<?xml version="1.0" encoding="utf-8"?>
<!-- Generator: Adobe Illustrator 18.0.0, SVG Export Plug-In . SVG Version: 6.00 Build 0)  -->
<!DOCTYPE svg PUBLIC "-//W3C//DTD SVG 1.1//EN" "http://www.w3.org/Graphics/SVG/1.1/DTD/svg11.dtd">
<svg version="1.1" id="Layer_1" xmlns="http://www.w3.org/2000/svg" xmlns:xlink="http://www.w3.org/1999/xlink" x="0px" y="0px"
	 viewBox="0 0 432 432" enable-background="new 0 0 432 432" xml:space="preserve">
<path fill="#6F91BD" d="M134,357.2c0.2,0,0.3,0,0.4,0c0.1,0,0.2,0,0.4,0c0.5,0,1.1,0,1.6,0c0.5,0,1.1,0.1,1.6,0.1
	c4,0.2,7.8,1.2,11.2,2.9c2.6,1.3,4.7,2.7,6.3,4.2c0.6,0.7,1.2,1.3,1.7,2c0.5,0.7,0.9,1.4,1.3,2.1c0.9,1.7,1.4,3.3,1.6,5
	c0.2,1.7,0.1,3.4-0.1,5.1c-0.3,1.7-0.7,3.3-1.2,5c-0.5,1.2-0.9,2.4-1.5,3.7c-0.5,1.2-1.2,2.4-2,3.7c-0.2,0.4-0.5,0.8-0.8,1.2
	c-0.4,0.4-0.7,0.7-1.1,1c-2.2,2.4-4.6,4.4-7.4,6c-1.5,0.9-3.1,1.6-4.7,2.2c-1.6,0.6-3.3,1.1-5.1,1.5c-2.6,0.5-5.2,0.8-7.7,0.8
	c-2,0.1-4-0.1-6.2-0.5c-0.7-0.1-1.4-0.2-2-0.4c-0.6-0.1-1.3-0.3-2-0.5c-2.4-0.5-4.7-1.2-7-2.1c-2.1-0.7-4-1.5-5.8-2.3
	c-1.8-0.8-3.5-1.8-5.2-2.8c-0.1-0.1-0.2-0.1-0.2-0.1s-0.1,0-0.2-0.1c-1,0.5-2,0.9-3.2,1.2c-1.1,0.3-2.2,0.6-3.3,0.9
	c-1.3,0.4-2.6,0.6-3.9,0.8c-1.3,0.2-2.7,0.2-4,0.2c-0.7,0-1.5,0-2.2,0c-0.8,0-1.5-0.1-2.2-0.1c-2.6-0.2-5-0.9-7.3-1.9
	c-0.8-0.4-1.6-0.9-2.3-1.3c-0.7-0.4-1.3-0.9-1.9-1.6c-1.3-1.4-1.6-3-1.1-4.9c0.3-1,0.8-1.9,1.5-2.5c1.4-1.3,3.4-2.2,5.8-2.6
	c1.5-0.2,3-0.3,4.4-0.3c1.4,0.1,2.9,0.2,4.4,0.5c1.6,0.3,3.2,0.7,4.6,1.1c1.5,0.4,3,1,4.5,1.6l0.5,0.2c0.2-0.3,0.4-0.6,0.5-1
	c0.3-1,0.5-2,0.7-3c0.2-1,0.4-2,0.6-3c0.2-0.7,0.3-1.3,0.4-1.9c0.1-0.6,0.2-1.3,0.3-1.9c0.2-0.9,0.3-1.8,0.5-2.7
	c0.1-0.9,0.3-1.8,0.5-2.6c0.2-0.8,0.3-1.6,0.4-2.4c0.1-0.8,0.2-1.6,0.3-2.4c0.1-0.4,0.2-0.7,0.2-1.1c0-0.4,0.1-0.7,0.1-1
	c0.2-1,0.3-1.9,0.3-2.8c0-0.9,0.2-1.8,0.3-2.8l0.8-6.6c0.1-0.7,0.1-1.4,0.1-2.1c0-0.7,0-1.4,0.1-2.1c0-0.9,0-1.7,0.1-2.6
	c0.1-0.9,0.1-1.8,0.1-2.6c0-1.4-0.1-2.8-0.4-4.2c0-0.7,0.4-1.3,1.1-1.7c1.1-0.6,2.3-1,3.6-1.4c1-0.2,2-0.4,3.1-0.6
	c1.1-0.2,2.1-0.2,3.2-0.1c0.5,0,1.1,0.1,1.6,0.3c0.4,0.1,0.8,0.3,0.9,0.8c0,0.9,0,1.8,0.1,2.8c0.1,0.9,0,1.8-0.1,2.8
	c-0.1,0.6-0.1,1.1-0.1,1.7c0,0.6,0,1.1-0.1,1.7c-0.1,0.9-0.2,1.8-0.2,2.8c0,0.9-0.1,1.9-0.2,2.8c-0.1,0.7-0.1,1.3-0.1,2
	c0,0.7,0,1.3-0.1,2c-0.1,0.8-0.2,1.6-0.2,2.4c0,0.8-0.1,1.6-0.2,2.4c-0.1,0.2-0.1,0.5-0.1,1c0.3-0.1,0.5-0.2,0.7-0.3
	c0.2-0.1,0.4-0.2,0.5-0.3c0.4-0.2,0.9-0.4,1.3-0.6c0.4-0.2,0.8-0.4,1.3-0.6c0.5-0.3,1.1-0.6,1.6-0.9c0.5-0.3,1.1-0.6,1.6-0.9
	c1.7-0.9,3.2-1.9,4.6-2.9c1.4-1,2.7-2.1,4-3.3c0.9-0.8,1.7-1.6,2.5-2.4s1.5-1.7,2.2-2.5c1.4-1.9,2.6-3.9,3.6-6.1
	c0.4-0.9,0.6-1.7,0.6-2.5c0-0.8,0-1.6-0.2-2.5c-0.4-1.8-1-3.5-2-5c-1-1.6-2.2-3.1-3.8-4.5c-0.3-0.2-0.6-0.5-0.9-0.6
	c-0.3-0.2-0.7-0.4-1-0.6c-2.1-1.2-4.4-2-7-2.2c-0.9-0.1-1.8-0.2-2.8-0.3c-0.9-0.1-1.9-0.1-2.9-0.1c-1,0-2,0-2.9,0.1
	s-1.9,0.2-2.9,0.4c-0.3,0.1-0.6,0.1-0.9,0c-0.3,0-0.6,0-0.9,0.1c-1.3,0.2-2.5,0.4-3.6,0.7c-0.8,0.2-1.6,0.4-2.3,0.6
	c-0.7,0.2-1.4,0.4-2.2,0.7c-1.3,0.4-2.4,0.8-3.5,1.3c-1.1,0.5-2.1,1.1-3.2,1.6c-3.7,2-6.8,4.2-9.3,6.7c-1.2,1.2-2.2,2.5-3,3.9
	c-0.4,0.9-0.8,1.7-1.1,2.5c-0.3,0.8-0.5,1.6-0.7,2.5c-0.2,0.8-0.3,1.6-0.3,2.3c0,0.8,0,1.5,0.1,2.3c0.2,0.5,0.3,1,0.4,1.4
	c0.1,0.5,0.2,0.9,0.4,1.3c0.4,0.7,0.8,1.3,1.2,2c0.4,0.6,1,1.2,1.7,1.7c0.3,0.2,0.6,0.3,0.9,0.5c0.4,0.2,0.9,0.2,1.2,0.2
	c0.7-0.1,1.4-0.3,2.1-0.5c0.7-0.2,1.3-0.5,1.8-0.8c0.1-0.1,0.2-0.1,0.3-0.1c0.1,0,0.2-0.1,0.3-0.1c0.8-0.5,1.7-0.7,2.6-0.6
	c0.9,0.1,1.8,0.3,2.6,0.6c0.3,0.2,0.6,0.3,0.9,0.5c1.2,0.8,1.4,1.7,0.8,2.7c-1.3,1.8-3.1,3-5.5,3.7c-1.3,0.3-2.9,0.4-4.7,0.2
	c-4.3-0.6-8.1-2-11.4-4.2c-1.3-0.9-2.5-1.9-3.4-2.9c-0.9-1-1.7-2.2-2.3-3.4c-0.3-0.6-0.5-1.2-0.7-1.7c-0.2-0.6-0.4-1.1-0.5-1.7
	c-0.1-0.4-0.1-0.7-0.1-1.1c0-0.4,0-0.8,0-1.2c0-0.4,0-0.7-0.1-1.1c0-0.4,0-0.8,0.1-1.2c0.1-0.4,0.2-0.9,0.3-1.3
	c0.1-0.4,0.2-0.9,0.4-1.4c0.1-0.3,0.2-0.6,0.3-1c0.1-0.3,0.2-0.7,0.4-1c1.3-3.3,3.6-6.3,6.9-9c0.7-0.6,1.4-1.2,2.1-1.8
	c0.7-0.6,1.5-1.1,2.4-1.6c2.1-1.3,4.2-2.4,6.5-3.5c2.2-1,4.7-1.9,7.3-2.7c2-0.5,3.9-0.9,5.8-1.1c2.2-0.2,4.5-0.4,6.9-0.6
	c2.2-0.1,4.3-0.1,6.3,0c3.7,0.1,7.2,0.6,10.6,1.3c3.4,0.8,6.6,1.9,9.6,3.3c4.1,2.1,7.3,4.6,9.5,7.5c0.6,0.7,1.2,1.5,1.6,2.3
	c0.4,0.8,0.9,1.6,1.3,2.4c0.2,0.3,0.3,0.6,0.3,1c0,0.3,0.1,0.7,0.2,1c0.4,1.7,0.5,3.3,0.1,4.7c-0.3,1.5-0.7,3-1.2,4.3
	c-0.2,0.6-0.4,1.1-0.7,1.7c-0.3,0.6-0.6,1.1-0.9,1.7c-0.8,1.3-1.8,2.6-2.9,3.8c-1.1,1.2-2.3,2.4-3.6,3.6c-0.7,0.6-1.4,1.1-1.9,1.7
	c-0.6,0.6-1.2,1.2-1.8,1.8c-0.2,0.1-0.3,0.1-0.3,0.2C134.3,356.9,134.2,357,134,357.2z M92.6,390.4c-0.6-0.3-1.2-0.6-1.8-0.8
	c-0.6-0.2-1.2-0.5-1.8-0.7c-1.3-0.4-2.5-0.8-3.8-1.1c-1.3-0.3-2.5-0.6-3.8-0.9c-1.4-0.2-2.7-0.1-3.8,0.5c-1.1,0.6-1.5,1.4-1.3,2.4
	c0.1,0.7,0.5,1.3,1.2,2c1,0.8,2.1,1.4,3.2,1.7c1.2,0.3,2.5,0.5,3.9,0.6c1.3,0.1,2.6-0.1,3.6-0.6c0.9-0.3,1.7-0.7,2.3-1.2
	c0.6-0.5,1.2-1,1.7-1.6L92.6,390.4z M123.7,396.3c2.6,0.1,5.3-0.3,8.2-1.2c1.2-0.4,2.3-0.9,3.3-1.3c1-0.5,1.9-1,2.8-1.7
	c0.9-0.7,1.7-1.4,2.4-2.1c0.7-0.7,1.3-1.4,1.9-2.2c0.4-0.5,0.9-1,1.3-1.5c0.4-0.5,0.7-1.1,1-1.6c1.1-1.7,1.7-3.6,2-5.6
	c0.2-1,0.3-1.9,0.5-2.9c0.1-0.9,0.1-1.9-0.1-2.9c-0.2-0.9-0.3-1.7-0.4-2.5c-0.1-0.8-0.3-1.6-0.5-2.5c0-0.1,0-0.2-0.1-0.4
	c-1.5-2.6-3.9-4.6-7-6.2c-0.7-0.4-1.6-0.7-2.7-0.9c-0.5-0.1-0.9-0.2-1.3-0.2s-0.9,0-1.3-0.1c-1.1-0.1-2.1,0-3.2,0
	c-1,0.1-2,0.2-3,0.3c-1.1,0.2-2.1,0.4-3.2,0.6c-1,0.2-2,0.5-3,0.8c-2.9,0.9-5.5,2-7.8,3.1c-0.4,0.2-0.5,0.4-0.5,0.6
	c-0.1,0.7-0.2,1.5-0.2,2.2c0,0.7-0.1,1.4-0.2,2.1c-0.2,0.8-0.3,1.6-0.3,2.3c0,0.7-0.2,1.5-0.3,2.2c-0.2,0.7-0.3,1.3-0.5,2
	c-0.1,0.7-0.3,1.3-0.5,2c-0.2,0.7-0.4,1.4-0.6,2.1c-0.2,0.7-0.4,1.5-0.6,2.2c-0.4,1.3-1,2.5-1.7,3.8c-0.7,1.2-1.6,2.4-2.6,3.6
	c-0.2,0.3-0.1,0.6,0.3,0.8c2.2,1.2,4.7,2.2,7.3,3c1.8,0.6,3.6,1,5.3,1.3S121.7,396.4,123.7,396.3z M197.9,386.9
	c-0.1,0.1-0.2,0.2-0.3,0.4c-0.1,0.1-0.2,0.2-0.3,0.4c-0.7,1-1.5,1.9-2.4,2.7c-0.9,0.8-2,1.6-3.2,2.2c-1.7,1-3.5,1.6-5.2,1.9
	c-1,0.2-2,0.3-3,0.3c-1,0-2,0-3-0.1c-0.5-0.1-0.9-0.1-1.5-0.2s-1-0.2-1.5-0.3c-1-0.2-1.8-0.6-2.6-0.9c-0.7-0.4-1.4-0.8-2.2-1.3
	c-0.7-0.5-1.4-1-1.9-1.5c-0.6-0.5-1.1-1.1-1.5-1.7c-0.6-0.8-1.2-1.6-1.7-2.4c-0.7-1.2-1.3-2.4-1.6-3.7c-0.2-0.6-0.4-1.2-0.5-1.8
	c-0.2-0.6-0.3-1.2-0.4-1.8c-0.2-0.6-0.3-1.2-0.3-1.8s0-1.2,0-1.8c0-0.8,0-1.6,0.1-2.3c0.1-0.8,0.3-1.5,0.5-2.2
	c0.2-0.5,0.3-0.9,0.5-1.4c0.1-0.4,0.3-0.9,0.5-1.3c0.5-1.1,1.2-2.2,1.9-3.2c0.7-1,1.6-2,2.6-3c1.8-1.7,4.2-3,7.1-3.9
	c1.6-0.4,3.4-0.6,5.5-0.6c0.6,0,1.3,0,1.9,0c0.6,0,1.3,0,1.9,0.1c1.7,0.2,3.2,0.5,4.6,0.9c1.5,0.4,2.9,0.9,4.1,1.6
	c1.2,0.7,2.4,1.4,3.4,2.2l0.4,0.3h0.1V362c0-1.3,0.5-2.4,1.5-3.3c0.9-0.9,2.1-1.5,3.6-1.8c1.3-0.2,2.5-0.3,3.7-0.2
	c1.2,0.1,2.4,0.3,3.7,0.6l0.1,0.1c0,0.1,0,0.1,0.1,0.1c0,0,0,0.1-0.1,0.2c-0.2,1.3-0.3,2.6-0.4,3.9c-0.1,1.3-0.2,2.6-0.4,3.9
	c-0.1,0.9-0.2,1.7-0.3,2.6s-0.2,1.8-0.3,2.7c-0.1,1.2-0.2,2.3-0.3,3.4s-0.2,2.3-0.3,3.5c-0.2,1.5-0.3,2.9-0.4,4.4s-0.1,2.9-0.1,4.4
	c0.1,0.3,0.1,0.6,0.1,0.9s0,0.6,0,0.9v0.4c0.1,0.3,0.3,0.5,0.7,0.6c0.4,0.1,0.7,0.1,1.1-0.1c0.4-0.2,0.6-0.4,0.9-0.6
	c0.2-0.2,0.4-0.4,0.6-0.7c0.6-1,1.3-1.9,1.9-2.9c0.6-0.9,1.3-1.9,1.9-2.9c0.5-0.9,1-1.7,1.5-2.5c0.4-0.8,0.9-1.7,1.3-2.5l2.4-4.7
	c0.2-0.5,0.4-1,0.7-1.4c0.3-0.5,0.5-0.9,0.8-1.4c0.4-0.6,0.7-1,0.9-1.3c0.4-0.5,0.9-0.8,1.7-0.8c0.8-0.1,1.4,0.1,1.9,0.4
	c0.3,0.2,0.5,0.6,0.7,1.1c0.1,0.7-0.1,1.4-0.5,2.3c-0.5,1.1-1.2,2.3-1.9,3.7c-0.4,0.8-0.9,1.6-1.3,2.3c-0.4,0.8-0.8,1.5-1.3,2.3
	c-0.4,0.7-0.9,1.5-1.3,2.2c-0.4,0.7-0.9,1.5-1.3,2.2c-0.5,0.7-0.9,1.4-1.3,2.1c-0.4,0.7-0.8,1.4-1.3,2.1c-0.4,0.5-0.7,0.9-1.1,1.4
	c-0.4,0.4-0.8,0.9-1.2,1.3c-0.5,0.4-0.9,0.8-1.3,1.1c-0.4,0.3-0.9,0.7-1.4,1c-1.3,0.7-2.7,1.1-4.3,1.1c-0.4,0.1-0.9,0.1-1.4,0.1
	c-0.5,0-1,0-1.4,0c-0.7,0-1.4-0.1-2-0.3c-0.6-0.2-1.1-0.4-1.7-0.7c-0.9-0.5-1.7-1-2.3-1.6c-0.6-0.6-1.2-1.2-1.6-1.8
	c-0.6-1-1-2-1.1-2.8c0-0.1,0-0.1-0.1-0.1c0,0-0.1,0-0.1-0.1H197.9z M180,380.4c0.1,0.7,0.1,1.3,0.1,1.9c0,0.6,0,1.2,0.1,1.8
	c0.1,0.2,0.1,0.4,0.1,0.6c0,0.2,0,0.4,0.1,0.6c0.1,0.4,0.2,0.7,0.2,1.1c0,0.4,0.2,0.8,0.3,1.2c0.2,0.5,0.4,0.9,0.6,1.4
	c0.2,0.4,0.6,0.8,1,1.2c0.4,0.4,1.1,0.7,1.8,0.8c0.8,0.1,1.5,0,2.2-0.2c0.4-0.2,0.9-0.4,1.3-0.6c0.4-0.2,0.8-0.4,1.3-0.7
	c2.2-1.3,4.1-2.8,5.6-4.6c1.2-1.3,2.1-2.7,2.7-4c0.3-0.6,0.4-1.3,0.4-2v-1.8c0.1-0.7,0.2-1.5,0.2-2.2c0-0.7,0.1-1.5,0.2-2.3
	c0-0.4,0-0.9,0-1.3c0-0.4,0-0.9,0.1-1.3c0-0.4,0-0.8-0.1-1.2c0-0.4-0.2-0.8-0.5-1.2l-1.2-1.7c-0.9-1.1-1.9-2-3-2.8
	c-0.8-0.5-1.7-0.9-2.6-1.1c-0.9-0.2-1.9-0.3-3-0.2c-0.3,0-0.6,0.1-0.9,0.2c-0.5,0.1-1,0.4-1.5,0.8c-0.7,0.6-1.3,1.1-1.6,1.7
	s-0.7,1.2-1.1,1.9c-0.3,0.6-0.5,1.1-0.7,1.7c-0.2,0.6-0.4,1.1-0.6,1.7c-0.2,0.6-0.4,1.1-0.5,1.7c-0.2,0.6-0.4,1.1-0.5,1.7
	c-0.1,0.5-0.2,1-0.2,1.6c0,0.6-0.1,1.1-0.2,1.6c-0.1,0.7-0.2,1.4-0.2,2.1C180.2,379,180.1,379.7,180,380.4z M235.2,389.6
	c0.4,0.1,0.7,0.1,0.8-0.1c0.5-0.5,0.9-0.9,1.1-1.1c0.8-1,1.6-2.1,2.3-3.1c0.7-1,1.4-2,2-3.1c0.4-0.9,0.9-1.7,1.3-2.5
	c0.4-0.8,0.9-1.6,1.3-2.5c0.5-1,1.1-1.9,1.5-2.9c0.5-0.9,1-1.9,1.5-2.9c0.2-0.3,0.3-0.6,0.5-1c0.1-0.3,0.3-0.7,0.5-1
	c0.4-0.6,0.6-1,0.8-1.3c0.4-0.4,0.9-0.7,1.5-0.8c0.7-0.1,1.3,0,1.8,0.2c0.4,0.2,0.8,0.6,0.9,1c0.2,0.7,0.1,1.3-0.1,1.7
	c-0.3,0.6-0.5,1.2-0.8,1.8c-0.3,0.6-0.6,1.2-0.9,1.8c-0.4,0.7-0.7,1.5-1.1,2.2c-0.4,0.7-0.7,1.5-1.1,2.2c-0.4,0.6-0.7,1.1-1,1.7
	c-0.3,0.6-0.6,1.2-0.9,1.8c-0.5,1-1,1.9-1.5,2.8c-0.6,0.9-1.2,1.8-1.8,2.8c-0.4,0.6-0.9,1.1-1.3,1.7c-0.4,0.6-0.9,1.1-1.4,1.6
	c-0.6,0.5-1.3,1-1.9,1.4c-0.6,0.5-1.3,0.9-2,1.2c-0.7,0.3-1.6,0.5-2.6,0.6c-0.6,0.1-1.3,0.1-1.9,0.1c-0.6,0-1.3,0-2,0
	c-1.2-0.1-2.2-0.4-3.2-1c-0.9-0.4-1.6-0.9-2.2-1.5c-0.6-0.6-1.1-1.2-1.5-1.8c-0.9-1.2-1.3-2.6-1.3-4.2c0.1-0.9,0.1-1.8,0.1-2.7
	c0-0.9,0-1.8,0.1-2.7c0.1-1,0.2-1.9,0.2-2.9c0-0.9,0.1-1.9,0.2-3c0.1-0.9,0.2-1.7,0.2-2.5c0-0.8,0.1-1.7,0.1-2.5
	c0.1-0.3,0.1-0.6,0.1-0.8c0-0.2,0-0.5,0.1-0.8c0-0.8,0-1.6,0.1-2.3c0-0.8,0.1-1.5,0.1-2.3c0.1-1.1,0.1-2.2,0.1-3.3
	c0-1.1,0-2.2,0.1-3.2c0-1.2,0-2.5,0.1-3.7c0-1.3,0.1-2.5,0.1-3.7V349c0.1-0.9,0.1-1.7,0.1-2.6c0-0.9,0-1.7,0-2.6c0-0.6,0-1.2,0-1.8
	c0-0.6-0.1-1.3-0.3-1.9c-0.1-0.2,0.1-0.4,0.5-0.5c1.6-0.3,3.3-0.4,5-0.3c2.2,0.2,4,0.7,5.4,1.7c1.1,0.9,1.7,1.8,2,2.8
	c0.3,1,0.4,2.1,0.4,3c0.1,0.4,0.1,0.7,0.1,1.1c0,0.3-0.1,0.7-0.1,1c-0.1,0.9-0.2,1.7-0.2,2.6c0,0.9-0.1,1.7-0.2,2.6
	c-0.1,0.7-0.1,1.5-0.1,2.2c0,0.8,0,1.5-0.1,2.2c-0.1,0.9-0.1,1.7-0.1,2.5c0,0.8,0,1.6-0.1,2.4c0,0.6,0,1.1-0.1,1.7
	c0,0.6-0.1,1.1-0.1,1.7c0,0.7,0,1.4-0.1,2.1c0,0.7-0.1,1.4-0.1,2.1c-0.1,0.9-0.1,1.7-0.1,2.6c0,0.9,0,1.7-0.1,2.6
	c-0.1,0.9-0.1,1.7-0.1,2.5c0,0.8,0,1.6-0.1,2.4c0,0.6,0,1.2-0.1,1.7c0,0.6-0.1,1.1-0.1,1.7c0,0.7,0,1.3-0.1,2c0,0.7-0.1,1.3-0.1,2
	C235.3,388.5,235.2,388.9,235.2,389.6z M259,389.6c0.4,0.1,0.7,0.1,0.8-0.1c0.5-0.5,0.9-0.9,1.1-1.1c0.8-1,1.6-2.1,2.3-3.1
	c0.7-1,1.4-2,2-3.1c0.4-0.9,0.9-1.7,1.3-2.5c0.4-0.8,0.9-1.6,1.3-2.5c0.5-1,1.1-1.9,1.5-2.9c0.5-0.9,1-1.9,1.5-2.9
	c0.2-0.3,0.3-0.6,0.5-1c0.1-0.3,0.3-0.7,0.5-1c0.4-0.6,0.6-1,0.8-1.3c0.4-0.4,0.9-0.7,1.5-0.8c0.7-0.1,1.3,0,1.8,0.2
	c0.4,0.2,0.8,0.6,0.9,1c0.2,0.7,0.1,1.3-0.1,1.7c-0.3,0.6-0.5,1.2-0.8,1.8c-0.3,0.6-0.6,1.2-0.9,1.8c-0.4,0.7-0.7,1.5-1.1,2.2
	c-0.4,0.7-0.7,1.5-1.1,2.2c-0.4,0.6-0.7,1.1-1,1.7c-0.3,0.6-0.6,1.2-0.9,1.8c-0.5,1-1,1.9-1.5,2.8c-0.6,0.9-1.2,1.8-1.8,2.8
	c-0.4,0.6-0.9,1.1-1.3,1.7c-0.4,0.6-0.9,1.1-1.4,1.6c-0.6,0.5-1.3,1-1.9,1.4c-0.6,0.5-1.3,0.9-2,1.2c-0.7,0.3-1.6,0.5-2.6,0.6
	c-0.6,0.1-1.3,0.1-1.9,0.1c-0.6,0-1.3,0-2,0c-1.2-0.1-2.2-0.4-3.2-1c-0.9-0.4-1.6-0.9-2.2-1.5c-0.6-0.6-1.1-1.2-1.5-1.8
	c-0.9-1.2-1.3-2.6-1.3-4.2c0.1-0.9,0.1-1.8,0.1-2.7c0-0.9,0-1.8,0.1-2.7c0.1-1,0.2-1.9,0.2-2.9c0-0.9,0.1-1.9,0.2-3
	c0.1-0.9,0.2-1.7,0.2-2.5c0-0.8,0.1-1.7,0.1-2.5c0.1-0.3,0.1-0.6,0.1-0.8c0-0.2,0-0.5,0.1-0.8c0-0.8,0-1.6,0.1-2.3
	c0-0.8,0.1-1.5,0.1-2.3c0.1-1.1,0.1-2.2,0.1-3.3c0-1.1,0-2.2,0.1-3.2c0-1.2,0-2.5,0.1-3.7c0-1.3,0.1-2.5,0.1-3.7V349
	c0.1-0.9,0.1-1.7,0.1-2.6c0-0.9,0-1.7,0-2.6c0-0.6,0-1.2,0-1.8c0-0.6-0.1-1.3-0.3-1.9c-0.1-0.2,0.1-0.4,0.5-0.5
	c1.6-0.3,3.3-0.4,5-0.3c2.2,0.2,4,0.7,5.4,1.7c1.1,0.9,1.7,1.8,2,2.8c0.3,1,0.4,2.1,0.4,3c0.1,0.4,0.1,0.7,0.1,1.1
	c0,0.3-0.1,0.7-0.1,1c-0.1,0.9-0.2,1.7-0.2,2.6c0,0.9-0.1,1.7-0.2,2.6c-0.1,0.7-0.1,1.5-0.1,2.2c0,0.8,0,1.5-0.1,2.2
	c-0.1,0.9-0.1,1.7-0.1,2.5c0,0.8,0,1.6-0.1,2.4c0,0.6,0,1.1-0.1,1.7c0,0.6-0.1,1.1-0.1,1.7c0,0.7,0,1.4-0.1,2.1s-0.1,1.4-0.1,2.1
	c-0.1,0.9-0.1,1.7-0.1,2.6c0,0.9,0,1.7-0.1,2.6c-0.1,0.9-0.1,1.7-0.1,2.5c0,0.8,0,1.6-0.1,2.4c0,0.6,0,1.2-0.1,1.7
	c0,0.6-0.1,1.1-0.1,1.7c0,0.7,0,1.3-0.1,2c0,0.7-0.1,1.3-0.1,2C259.1,388.5,259,388.9,259,389.6z M266.8,375.9c0-0.4,0-0.8,0-1.2
	c0-0.4,0-0.8,0.1-1.2c0.1-0.5,0.2-0.9,0.3-1.4c0.1-0.4,0.2-0.9,0.4-1.4c0.3-0.9,0.6-1.7,0.9-2.4c0.4-1,1-2,1.6-2.9
	c0.6-0.9,1.4-1.8,2.4-2.7c1.3-1.5,3.1-2.7,5.4-3.6c0.4-0.2,0.9-0.4,1.4-0.6c0.5-0.2,1-0.3,1.4-0.5c0.6-0.1,1.2-0.2,1.8-0.4
	c0.6-0.1,1.2-0.2,1.8-0.4c0.7-0.1,1.5-0.2,2.3-0.2c0.8,0,1.6,0,2.4,0c0.7,0.1,1.4,0.2,2,0.4c0.6,0.1,1.3,0.3,2,0.6
	c2.4,1,4.3,2.2,5.5,3.8c0.6,0.6,1.1,1.3,1.3,2.1c0.2,0.6,0.3,1.1,0.3,1.7c0,0.6,0.1,1.1,0.1,1.7c-0.3,1.8-1.2,3.5-2.8,5
	c-0.7,0.7-1.6,1.4-2.6,1.9c-1,0.6-2,1.1-3.1,1.6c-0.8,0.3-1.6,0.6-2.4,0.9c-0.8,0.3-1.5,0.6-2.4,0.9c-1.3,0.5-2.8,1-4.6,1.5
	c-0.2,0.1-0.3,0.2-0.3,0.3v2.9c0,0.3,0,0.6,0,0.8c0,0.2,0,0.5,0.1,0.7l0.4,1.9c0,0.5,0.1,0.9,0.4,1.4c0.2,0.5,0.4,1,0.5,1.4
	c0.2,0.5,0.5,0.9,0.9,1.3c0.4,0.5,1.2,0.9,2.3,1.2c0.9,0.2,1.9,0.1,3-0.2c0.7-0.1,1.4-0.3,1.9-0.6c0.6-0.2,1.2-0.5,1.8-0.8
	c0.4-0.2,0.7-0.4,1-0.6s0.6-0.5,1-0.7c1.3-0.8,2.6-1.9,3.8-3.2c0.6-0.6,1.2-1.2,1.7-1.8c0.5-0.6,1-1.3,1.4-1.9
	c0.4-0.5,0.7-1,0.9-1.4c0.3-0.5,0.6-0.9,0.9-1.4c0.4-0.7,0.8-1.4,1.1-2.1c0.3-0.7,0.6-1.4,1-2.2c0.3-0.7,0.6-1.3,0.9-1.9
	c0.3-0.6,0.6-1.2,1-1.9c0.3-0.6,0.7-1.2,1.2-2c0.3-0.4,0.8-0.6,1.6-0.6c0.9,0,1.6,0.2,2,0.6c0.3,0.2,0.5,0.6,0.7,1.1
	c0,0.4-0.1,0.8-0.3,1.3c-0.2,0.7-0.4,1.3-0.7,1.9c-0.3,0.6-0.5,1.2-0.8,1.8c-0.4,1.1-0.9,2.2-1.6,3.4c-0.5,0.8-0.9,1.6-1.3,2.3
	c-0.5,0.7-0.9,1.5-1.3,2.3c-0.6,0.9-1.3,1.7-1.9,2.4c-0.6,0.8-1.3,1.5-2,2.3c-0.6,0.6-1.3,1.2-1.9,1.8c-0.6,0.6-1.3,1.1-2.1,1.7
	c-0.7,0.6-1.5,1.1-2.2,1.6c-0.8,0.5-1.6,0.9-2.6,1.3c-0.5,0.2-0.9,0.4-1.3,0.5c-0.4,0.2-0.9,0.3-1.3,0.4c-0.4,0.1-0.9,0.2-1.4,0.2
	c-0.5,0-1,0.1-1.4,0.1c-0.7,0.1-1.4,0.1-2,0.1c-0.6,0-1.3,0-2,0h-0.7c-0.6,0-1.2,0-1.8,0c-0.6,0-1.1-0.1-1.7-0.1
	c-2.1-0.3-3.8-0.9-5.2-1.7c-1-0.6-1.8-1.1-2.6-1.8c-0.7-0.6-1.4-1.3-2.1-2c-0.5-0.5-0.8-1-1.1-1.6c-0.3-0.6-0.7-1.1-1-1.7
	c-0.3-0.5-0.5-1-0.7-1.5c-0.2-0.5-0.4-1-0.6-1.5c-0.4-0.9-0.7-1.8-0.8-2.7c-0.2-0.7-0.3-1.5-0.4-2.2
	C266.9,377.4,266.8,376.7,266.8,375.9z M282.8,375.3c0.2,0,0.3,0,0.3,0c0,0,0.1,0,0.2,0c0.4-0.1,0.9-0.3,1.3-0.4
	c0.4-0.2,0.8-0.3,1.3-0.4c1.7-0.6,3.3-1.4,4.7-2.4c1.4-1,2.5-2,3.2-2.9c0.3-0.3,0.5-0.6,0.7-1c0.2-0.3,0.4-0.7,0.5-1.1
	c0.2-0.6,0.3-1.1,0.3-1.4c-0.1-0.1-0.1-0.3-0.1-0.6c-0.1-0.4-0.3-0.9-0.7-1.3c-0.4-0.6-1.1-0.9-1.9-0.9c-1.1-0.1-2.1,0.2-3.2,0.8
	c-0.3,0.1-0.5,0.3-0.7,0.5c-0.2,0.2-0.4,0.3-0.5,0.5c-0.5,0.5-0.9,1-1.3,1.5c-0.5,0.5-0.9,1-1.2,1.6c-0.2,0.3-0.4,0.6-0.5,1
	c-0.2,0.3-0.4,0.7-0.5,1.1c-0.4,0.7-0.7,1.5-0.9,2.6c-0.3,0.5-0.4,1-0.4,1.6c-0.1,0.2-0.2,0.5-0.2,0.7
	C283,374.7,282.9,375,282.8,375.3z M315.2,367.3l-0.3,0.2c-0.1,0.3-0.2,0.6-0.3,0.9c-0.1,0.3-0.2,0.6-0.4,0.9
	c-0.3,0.7-0.6,1.5-0.9,2.2c-0.4,0.7-0.9,1.4-1.6,2.1l-0.4,0.3c-0.5,0.4-0.9,0.6-1.4,0.6s-0.9-0.1-1.3-0.3c-0.3-0.1-0.5-0.3-0.7-0.5
	c-0.4-0.6-0.4-1.2-0.1-1.7c0.1-0.3,0.2-0.6,0.3-0.8c0.1-0.2,0.2-0.4,0.3-0.7c0.1-0.3,0.3-0.7,0.7-1.2c0.3-0.3,0.4-0.6,0.5-1
	c0-0.4,0.1-0.7,0.1-1.1c0-0.2-0.2-0.5-0.7-0.6c-1.3-0.5-2.3-1.2-3-2c-0.4-0.6-0.8-1.3-0.9-2c-0.2-0.4-0.2-0.8-0.1-1
	c0-0.6,0.1-1,0.3-1.3c0.3-0.9,1-1.7,2.1-2.4c0.4-0.3,1-0.5,1.6-0.7c0.6-0.2,1.3-0.3,2-0.3c0.4,0,0.7,0,1.1,0c0.4,0,0.7,0,1.1,0.1
	c1.7,0.3,2.8,0.9,3.2,1.8c0.4,0.6,0.5,1.2,0.5,1.8c0,0.3,0,0.6,0,1c0,0.3,0,0.7-0.1,1c0,0.2,0,0.4-0.1,0.5c0,0.2-0.1,0.3-0.1,0.4
	c0.3,0.1,0.5,0.1,0.8,0c1.3-0.1,2.6-0.5,3.9-1.2c0.4-0.2,0.9-0.4,1.3-0.6c0.4-0.2,0.8-0.4,1.3-0.6c0.8-0.4,1.8-0.6,3.1-0.7
	c1-0.1,1.9-0.1,2.7,0.1c1.5,0.2,2.9,0.7,4,1.6c0.4,0.3,0.8,0.6,1.1,0.9c0.3,0.3,0.5,0.6,0.7,1.1c0.4,0.7,0.5,1.3,0.4,1.9
	c0,0.6,0,1.2-0.1,1.8c0,0.6-0.1,1.1-0.2,1.7c-0.1,0.7-0.2,1.3-0.2,1.9c0,0.6-0.1,1.2-0.2,1.8c0,0.4,0,0.7,0,1.1s0,0.7-0.1,1.1
	c0,0.4,0,0.9-0.1,1.3c0,0.4-0.1,0.9-0.2,1.4c-0.1,0.6-0.1,1.2-0.1,1.8c0,0.6,0,1.3-0.1,1.9c-0.1,0.7-0.1,1.3-0.1,1.9
	c0,0.6,0,1.3-0.1,1.9c-0.1,0.6-0.1,1.1-0.1,1.7c0,0.6,0,1.1-0.1,1.7c0,0.3,0,0.5,0.1,0.6c0.2,0.6,0.7,0.8,1.5,0.5
	c0.4-0.2,0.7-0.4,0.9-0.6l1.2-1.7c0.6-0.9,1.2-1.7,1.7-2.7c0.3-0.4,0.5-0.8,0.8-1.2c0.3-0.4,0.5-0.8,0.8-1.2l2-3.6
	c0.2-0.4,0.4-0.8,0.6-1.2c0.2-0.4,0.4-0.8,0.6-1.2c0.2-0.4,0.4-0.7,0.5-1.1c0.2-0.4,0.4-0.7,0.5-1.1c0.4-0.6,0.6-1,0.7-1.3
	c0.3-0.6,0.5-1.1,0.8-1.6c0.3-0.5,0.5-1.1,0.8-1.6c0.4-0.5,0.6-0.8,0.8-1c0.4-0.5,1-0.7,1.7-0.7c0.7,0,1.2,0.1,1.5,0.2
	c0.4,0.2,0.7,0.4,0.8,0.6c0.4,0.6,0.4,1.3,0.1,2c-0.2,0.5-0.4,0.9-0.7,1.4c-0.3,0.4-0.5,0.9-0.7,1.3c-0.2,0.3-0.3,0.6-0.4,0.9
	c-0.1,0.3-0.2,0.6-0.4,0.9c-0.4,0.6-0.7,1.1-0.9,1.7c-0.3,0.6-0.6,1.1-0.9,1.7c-0.2,0.4-0.4,0.8-0.7,1.2c-0.3,0.4-0.5,0.8-0.7,1.2
	c-0.5,0.9-1.1,1.7-1.5,2.6c-0.5,0.9-1,1.7-1.5,2.6c-0.4,0.6-0.7,1.2-1.1,1.7c-0.4,0.6-0.8,1.1-1.2,1.7c-0.5,0.7-0.9,1.3-1.5,1.8
	c-0.5,0.5-1.2,1-1.9,1.5c-1,0.7-2.2,1.3-3.8,1.6c-0.3,0.1-0.5,0.1-0.8,0.1c-0.3,0-0.5,0-0.8,0.1h-1.9c-1,0.1-1.8,0-2.6-0.2
	c-0.7-0.2-1.4-0.5-2.1-0.9c-1.3-0.7-2.2-1.6-3-2.7c-0.3-0.3-0.5-0.6-0.7-1c-0.2-0.4-0.4-0.8-0.6-1.2c-0.2-0.5-0.3-1-0.3-1.5
	c0-0.5-0.1-1-0.1-1.5c0.1-0.5,0.1-0.9,0.1-1.4c0-0.4,0-0.9,0-1.4c0.1-0.5,0.1-0.9,0.1-1.4c0-0.4,0-0.9,0.1-1.4l0.4-3.3
	c0-0.1,0-0.3,0.1-0.5s0.1-0.4,0.1-0.6c0.1-0.5,0.1-1,0.1-1.4s0-0.9,0.1-1.4c0.1-0.5,0.2-1,0.2-1.6c0-0.6,0.1-1.1,0.2-1.6
	c0-0.3,0-0.6,0.1-0.8c0-0.2,0-0.5-0.1-0.8c0-0.2,0-0.4-0.1-0.6c-0.1-0.2-0.2-0.4-0.3-0.6c-0.4-0.6-1.1-0.8-1.9-0.6
	c-0.8,0.2-1.7,0.4-2.6,0.6c-0.7,0.1-1.3,0.2-1.7,0.2H315.2z M312.5,363.4c0.2-0.3,0.3-0.6,0.4-1c0.1-0.3,0.1-0.7,0.1-1
	c0-0.6-0.1-1-0.3-1.3c-0.2-0.4-0.5-0.5-1.1-0.3c-0.3,0.1-0.7,0.3-1.2,0.6c0.1,0,0,0.1-0.3,0.3v0.9c0,0.4,0.1,0.7,0.4,0.9
	C311.1,363.1,311.7,363.4,312.5,363.4z M371.1,375.1c0.4-0.2,0.7-0.5,1-0.6c0.3-0.2,0.6-0.4,0.9-0.6c1.3-0.9,2.6-2,3.8-3.3
	c0.4-0.4,0.9-0.7,1.3-1.1c0.4-0.3,0.9-0.7,1.3-1c0.6-0.5,1.3-0.7,1.9-0.5c0.6,0.2,1.2,0.4,1.6,0.7c0.3,0.2,0.4,0.7,0.4,1.3
	c0,0.4-0.2,0.8-0.7,1.2c-1.2,1.3-2.6,2.7-4.3,4.1c-0.7,0.6-1.5,1.2-2.4,1.7c-0.9,0.6-1.7,1.1-2.6,1.7c-0.3,0.1-0.4,0.2-0.3,0.4
	c0.1,0.2,0.2,0.6,0.4,0.9c0.1,0.3,0.2,0.6,0.3,0.8c0.1,0.2,0.2,0.4,0.3,0.7c0.1,0.2,0.2,0.5,0.2,0.7c0,0.2,0.1,0.5,0.1,0.8
	c0,0.4,0,0.8,0,1.2c0,0.4,0,0.8-0.1,1.2c0,0.7-0.2,1.6-0.7,2.5c-0.5,0.9-1,1.7-1.5,2.4c-0.6,0.7-1.4,1.4-2.4,2.1
	c-0.9,0.6-2.1,1.1-3.6,1.6c-2,0.5-3.9,0.6-5.8,0.5c-2.7-0.2-4.8-1.1-6.3-2.8c-0.8-1-1.2-2-1.1-3c0-0.2,0-0.5,0-0.7
	c0-0.2,0-0.5,0.1-0.7c0.4-1.5,1.3-2.8,2.4-3.9c0.4-0.4,0.9-0.8,1.5-1.2c0.5-0.4,1-0.7,1.5-1.1l1.3-0.9c0.1-0.1,0.1-0.2,0-0.4
	c-0.3-0.5-0.5-1-0.7-1.4s-0.5-0.9-0.7-1.4c-0.3-0.5-0.6-1-0.9-1.5c-0.3-0.5-0.6-1-0.9-1.5l-1.2-2.2c-0.2-0.3-0.4-0.6-0.5-1
	c-0.2-0.3-0.4-0.7-0.5-1l-0.3-0.4c-0.1,0.1-0.2,0.3-0.4,0.6c-0.3,0.3-0.5,0.6-0.8,0.9c-0.3,0.3-0.6,0.6-0.9,0.9
	c-0.5,0.6-1.3,0.8-2.3,0.5c-0.6-0.2-1-0.4-1.2-0.6c-0.3-0.2-0.4-0.4-0.4-0.7c-0.1-0.4,0-0.9,0.3-1.6c0.3-0.5,0.5-1,0.8-1.4
	c0.3-0.5,0.5-0.9,0.8-1.4l0.8-1.7c0.1-0.1,0.1-0.3,0.1-0.6c-0.2-0.3-0.3-0.6-0.4-0.8c-0.1-0.2-0.2-0.5-0.4-0.8
	c-0.3-0.4-0.5-0.7-0.6-1.1s-0.3-0.8-0.5-1.2c-0.2-0.5-0.3-0.9-0.4-1.3c-0.1-0.4-0.1-0.8,0-1.3c0.2-2,0.9-3.6,2.3-5
	c1.3-1.2,2.8-2,4.6-2.4c0.8-0.2,1.7-0.4,2.8-0.4c2.2,0,4.1,0.5,5.5,1.4c1.1,0.7,1.7,1.6,2,2.7c0.2,1.3-0.2,2.4-1.1,3.3
	c-0.5,0.6-0.9,1.1-1.4,1.6c-0.5,0.5-1,1.1-1.4,1.6c-0.2,0.1-0.2,0.3-0.1,0.5c0.2,0.3,0.4,0.6,0.5,0.8c0.2,0.2,0.4,0.5,0.5,0.8
	c0.2,0.3,0.4,0.6,0.6,0.9c0.2,0.3,0.4,0.6,0.6,0.9c0.4,0.5,0.7,1,1,1.5c0.3,0.5,0.6,1,1,1.5c0.3,0.4,0.6,0.8,0.9,1.2
	c0.3,0.4,0.6,0.8,0.9,1.3c0.3,0.4,0.6,0.8,0.9,1.2c0.3,0.4,0.6,0.8,0.9,1.2l1.2,1.9c0.1,0.1,0.2,0.2,0.3,0.4S371,374.9,371.1,375.1z
	 M359.3,358.4c0.2-0.2,0.3-0.4,0.5-0.6c0.1-0.2,0.3-0.3,0.5-0.5c0.4-0.4,0.7-0.7,0.9-1.1c0.3-0.3,0.5-0.7,0.7-1.1
	c0.3-0.5,0.2-1-0.3-1.5c-0.6-0.8-1.7-1.3-3.2-1.4c-0.7-0.1-1.3,0-1.7,0.3c-0.4,0.3-0.6,0.7-0.5,1.1c0,0.4,0.2,0.9,0.5,1.5
	c0.3,0.5,0.6,1,0.9,1.4c0.4,0.4,0.8,0.9,1.2,1.3C359,358,359.1,358.2,359.3,358.4z M362,383.8c-0.2,0.1-0.3,0.2-0.5,0.3
	c-0.1,0.1-0.3,0.2-0.5,0.3c-0.4,0.3-0.8,0.6-1.1,0.9c-0.3,0.3-0.7,0.6-1,0.9c-0.4,0.5-0.5,0.9-0.5,1.3c-0.2,0.5-0.2,0.9,0,1.4
	c0,0.2,0.1,0.5,0.3,1c0.2,0.2,0.5,0.4,1.1,0.6c0.5,0.2,1,0.2,1.5,0c0.5-0.2,1.1-0.5,1.6-0.9c0.3-0.2,0.4-0.5,0.5-0.8
	c0.1-0.3,0.2-0.6,0.3-0.9c0.1-0.6,0-1.3-0.3-2.1l-0.8-1.4c-0.1-0.1-0.2-0.2-0.3-0.4C362.2,384.1,362.1,384,362,383.8z M93.2,219.5
	c0.4,0.2,1,0.5,1.7,0.7c0.6,0.2,1.3,0.4,2.1,0.5c0.8,0.2,1.8,0.3,3,0.4c0.6-5.4,1.5-11.2,2.8-17.4c1.3-6.2,3.2-12.8,5.7-19.8
	c0.3-0.7,0.8-1.3,1.5-1.8c0.7-0.5,1.6-0.8,2.6-0.9c1.2-0.1,2.4-0.2,3.6-0.1c1.2,0,2.3,0.3,3.4,0.9c1.7,0.9,2.3,2,1.8,3.3
	c-0.3,1-0.9,2.6-1.6,4.7c-0.7,2.1-1.4,4.7-2.3,7.8c-0.8,3-1.6,6.4-2.5,10.2c-0.8,3.8-1.5,7.8-2,12.1c3.4-0.7,7.3-1.9,11.4-3.6
	c4.2-1.7,8-3.8,11.4-6.4c3.4-2.6,6.2-5.5,8.3-8.8s2.9-6.9,2.3-10.8c-0.3-2.3-1.3-4.4-2.9-6.1c-1.6-1.7-3.5-3.2-5.8-4.4
	c-2.3-1.2-4.8-2.3-7.5-3.1c-2.7-0.8-5.4-1.5-8.1-2c-2.7-0.5-5.3-0.9-7.7-1.1s-4.4-0.4-6.1-0.5c-1,2.3-2.4,4.7-4.1,7.1
	c-1.7,2.4-4,4.9-6.7,7.3c-2.8,2.4-6.1,4.7-9.9,7c-3.9,2.3-8.4,4.4-13.7,6.3c-2.4,0.9-5.1,1.8-8.1,2.5c-2.6,0.6-5.7,1.2-9.4,1.7
	c-3.7,0.5-7.9,0.7-12.5,0.7c-5.6,0-10.5-0.9-14.8-2.6s-7.1-4.3-8.3-7.6c-0.8-4.5,1.3-8.6,6.3-12.3c2.1-1.6,5-3.2,8.6-4.7
	c3.6-1.6,8.2-3,13.8-4.2c5.6-1.3,12.4-2.4,20.3-3.3c7.9-0.9,17.2-1.5,28-1.8c0.8-3.5,0.8-6.7,0.1-9.4c-0.7-2.8-1.8-4.8-3.4-6
	c-0.5-0.4-0.7-0.9-0.5-1.4c0.2-0.5,0.6-0.8,1.4-1c1-0.2,2.2-0.4,3.5-0.6s2.6-0.2,3.8-0.1c1.2,0.1,2.4,0.4,3.6,0.9
	c1.1,0.5,2.1,1.2,3,2.1c0.3,0.4,0.5,0.9,0.8,1.5c0.3,0.7,0.5,1.3,0.7,1.8c0.3,1.1,0.4,2.6,0.4,4.8s-0.4,4.6-1.3,7.4
	c2.2,0.1,5,0.3,8.3,0.6c3.3,0.3,6.8,0.7,10.6,1.3c3.7,0.6,7.5,1.5,11.2,2.5c3.7,1,7.1,2.3,10.1,3.9c3.1,1.6,5.5,3.5,7.5,5.8
	c1.9,2.3,3,4.9,3.2,8c0.2,3.1-0.4,6-1.8,8.7c-1.4,2.7-3.3,5.2-5.7,7.4c-2.4,2.2-5.2,4.2-8.4,6c-3.2,1.8-6.5,3.4-9.9,4.7
	c-3.4,1.4-6.8,2.5-10.2,3.4c-3.4,0.9-6.5,1.6-9.3,2c5.9,6.9,10.9,12.6,15.2,17c4.3,4.4,8.3,7.9,11.9,10.4c3.6,2.5,7.1,4.1,10.6,4.8
	c3.4,0.8,7.2,1,11.4,0.6c0.6-0.1,1.1,0,1.5,0.3c0.4,0.3,0.7,0.6,0.8,0.9c0,0.5-0.1,1-0.3,1.7s-0.7,1.3-1.4,2
	c-1.2,1.1-2.8,1.9-4.6,2.2c-1.9,0.4-3.8,0.4-5.8,0c-1.4-0.3-2.9-0.8-4.7-1.5c-1.8-0.7-3.7-1.7-5.8-3c-2.1-1.3-4.4-2.9-6.8-4.9
	c-2.5-2-5-4.4-7.7-7.3c-2.6-2.7-5.3-5.6-8.1-8.7c-2.8-3.1-5.8-6.4-9.1-10.1c-0.3,5.1-0.3,10.2,0.1,15.6c0.4,5.3,1.3,10.7,2.6,16.1
	c0.2,0.8-0.1,1.6-0.8,2.3c-0.7,0.7-1.6,1.2-2.8,1.5c-1.2,0.2-2.4,0.3-3.7,0.3s-2.4-0.2-3.6-0.6c-1.4-0.5-2.2-1.3-2.5-2.4
	c-0.3-0.9-0.6-2.4-1-4.4c-0.4-2-0.8-4.5-1.2-7.5c-0.3-3-0.6-6.5-0.6-10.4c-0.1-3.9,0-8.3,0.4-13c-3.4,0.1-6.5-0.1-9.5-0.8
	c-3-0.6-5.5-1.6-7.6-3c-1.2-0.8-2.1-1.8-2.7-3.1s-0.3-2.4,0.9-3.4c1.1-0.8,2.5-1.4,4.1-1.7c1.1-0.2,1.9,0,2.2,0.8
	c0.6,1.1,1.4,2.1,2.5,3C90.5,218.1,91.8,218.9,93.2,219.5z M88.9,185.4c1.9-2,3.5-4,4.8-6.1s2.3-4.1,3.1-6.1
	c-9.9,0.3-18.5,0.8-25.8,1.6c-7.3,0.8-13.6,1.7-18.7,2.7c-5.2,1.1-9.4,2.2-12.7,3.6c-3.3,1.3-5.9,2.6-7.7,3.9
	c-4.6,3.1-6.4,6.5-5.4,10.3c0.5,1.5,1.5,2.8,3,3.7c1.5,0.9,3.3,1.7,5.5,2.2c2.1,0.5,4.5,0.8,7.1,0.8c2.6,0.1,5.2-0.1,7.7-0.4
	c4-0.4,8-1.1,11.8-2.1c3.8-1,7.4-2.2,10.8-3.6c3.4-1.4,6.5-3.1,9.3-4.8C84.5,189.4,86.9,187.5,88.9,185.4z M203.4,224.5
	c0.8,0.5,1,1.1,0.8,1.8c-0.2,0.5-0.5,1.3-0.9,2.4c-0.4,1.1-1,2.2-1.7,3.5c-0.7,1.3-1.5,2.5-2.5,3.8c-0.9,1.3-2,2.5-3.2,3.6
	c-1.2,1.1-2.5,2-4,2.6c-1.5,0.6-3.1,0.9-4.8,0.9c-3.9-0.1-6.7-1.6-8.5-4.6c-1.8-2.9-2.5-6.8-2.2-11.5c-1.1,1.5-2.5,3-4.1,4.7
	c-1.6,1.6-3.4,3.2-5.3,4.5c-1.9,1.4-4,2.5-6.3,3.3c-2.2,0.9-4.6,1.2-7,1c-2.4-0.2-4.3-0.7-5.7-1.6c-1.4-0.9-2.3-2-2.8-3.3
	c-0.5-1.3-0.6-2.8-0.3-4.4c0.3-1.6,0.9-3.2,1.7-4.8c0.8-1.6,1.9-3.1,3.2-4.6c1.3-1.4,2.8-2.7,4.5-3.7c1.8-1.1,3.8-2.1,6.1-2.9
	c2.2-0.8,4.5-1.4,6.6-1.7c2.2-0.3,4.3-0.3,6.3,0c2,0.3,3.8,1,5.4,2c0.2-0.8,0.4-1.5,0.7-2.2c0.3-0.7,0.6-1.4,0.8-2.2
	c0.4-0.9,1.3-1.3,2.6-1.3c1.2,0.1,2.6,0.2,4.3,0.4s3.2,0.7,4.6,1.3c0.5,0.3,0.9,0.7,1.2,1.1c0.3,0.4,0.3,0.9,0.1,1.4
	c-0.3,0.8-0.6,2-1.1,3.5c-0.5,1.5-1,3.1-1.5,4.8c-0.5,1.7-1,3.5-1.4,5.3s-0.6,3.4-0.8,4.9c-0.1,1.5-0.1,2.7,0.2,3.7
	c0.3,1,0.8,1.5,1.5,1.5c1.1,0.1,2.3-0.4,3.4-1.5c1.2-1.1,2.3-2.4,3.3-3.9c1-1.5,2-3,2.8-4.5c0.8-1.5,1.4-2.6,1.7-3.3
	c0.1-0.2,0.3-0.4,0.6-0.4c0.3-0.1,0.6,0,0.8,0.1C203.1,224.4,203.3,224.5,203.4,224.5z M157.8,235.4c0.6,0.1,1.5-0.3,2.6-1
	c1.1-0.7,2.4-1.6,3.7-2.7c1.4-1.1,2.8-2.4,4.2-3.7c1.4-1.4,2.8-2.7,4-3.9c1.2-1.2,2.3-2.3,3.2-3.3c0.9-0.9,1.5-1.6,1.7-1.8
	c-0.5-0.6-1.4-1-2.7-1.1s-2.8,0.1-4.4,0.6c-1.6,0.5-3.3,1.3-5.1,2.5c-1.8,1.1-3.4,2.7-4.8,4.6c-1.9,2.4-3.1,4.3-3.6,5.6
	c-0.5,1.3-0.6,2.3-0.5,2.9C156.4,234.8,156.9,235.3,157.8,235.4z M227.5,224.5c0.7,0.5,0.9,1.1,0.8,1.8c-0.1,0.7-0.3,1.7-0.8,2.9
	c-0.4,1.2-1,2.5-1.7,3.9c-0.7,1.4-1.5,2.8-2.5,4.3c-1,1.4-2.1,2.7-3.4,3.9c-1.2,1.2-2.6,2.1-4.1,2.9c-1.5,0.7-3.1,1.1-4.8,1
	c-2.8-0.1-5.1-0.9-6.8-2.4c-1.7-1.5-2.9-3.6-3.4-6.3c-0.6-2.7-0.5-5.9,0.1-9.6c0.6-3.7,1.9-7.7,3.7-12.1c0.3-0.9,1.1-1.3,2.5-1.2
	c1.2,0,2.6,0.1,4.3,0.4c1.7,0.2,3.2,0.7,4.6,1.3c0.5,0.3,0.9,0.7,1.2,1.1s0.3,0.9,0.1,1.4c-0.3,0.8-0.6,1.9-1.2,3.3
	c-0.5,1.4-1,2.9-1.5,4.6s-0.9,3.3-1.4,5s-0.7,3.2-0.9,4.6s-0.1,2.5,0.1,3.4c0.3,0.9,0.8,1.4,1.5,1.5c1.1,0.1,2.2-0.4,3.4-1.5
	c1.1-1.1,2.2-2.5,3.2-4.1c1-1.6,2-3.4,2.8-5.2c0.9-1.8,1.5-3.4,1.9-4.7c0.1-0.2,0.3-0.4,0.6-0.4c0.3-0.1,0.6,0,1,0.1
	C227,224.3,227.2,224.4,227.5,224.5z M212.3,212.5c-1.4-0.1-2.5-0.4-3.4-0.9c-0.9-0.5-1.3-1.1-1.1-1.7c0.2-0.6,0.8-1,1.8-1.3
	c1-0.3,2.2-0.4,3.6-0.3c1.3,0.1,2.4,0.4,3.3,0.9c0.9,0.5,1.3,1,1.1,1.6c-0.2,0.6-0.8,1.1-1.8,1.4
	C214.7,212.6,213.6,212.7,212.3,212.5z M245.1,243.8c0,0.7-0.1,1.4-0.3,2c-0.2,0.6-0.4,1.2-0.6,1.8c-0.3,0.6-0.6,1.2-1.2,1.7
	c-1.4,1.5-3.1,2.7-5.3,3.6c-2.2,0.9-4.6,1.2-7.2,1.2c-2.1-0.2-3.9-0.6-5.4-1.1c-1.4-0.5-2.6-1.2-3.7-2.2c-1.1-1-1.5-2.3-1.4-4
	c0.2-1.7,1.2-3.4,3.2-5c2-1.6,4.8-2.8,8.4-3.4c-0.3-0.4-0.7-0.8-1-1.1c-1.2-1.2-2.2-2.3-3-3.4c-0.8-1.1-1.5-2.1-2-3
	c-0.6-1.1-1.1-2-1.6-2.9c-1-2.4-1.5-4.6-1.5-6.6c0-0.9,0.1-1.7,0.3-2.6c0.2-0.9,0.6-1.6,1.2-2.3c0.6-0.7,1.3-1.3,2.3-1.9
	c1-0.6,2.2-1,3.7-1.2c1.6-0.2,3-0.3,4.3-0.2c1.1,0.1,2.2,0.4,3.2,0.7c1,0.4,1.7,0.9,2.1,1.8c0.3,0.6,0.1,1.1-0.4,1.4
	c-0.5,0.3-1.1,0.6-1.7,1s-1.2,0.9-1.7,1.6c-0.5,0.7-0.7,1.8-0.5,3.3c0.2,0.7,0.5,1.6,0.9,2.6c0.4,0.8,1,1.8,1.6,3
	c0.6,1.2,1.5,2.4,2.5,3.8l1.3,1.8c0.4,0.5,0.9,1.2,1.3,1.9c0.4,0.8,0.9,1.6,1.3,2.5c3.1,0.7,5.9,2,8.5,3.9c1,0.9,1.9,1.8,2.6,2.6
	c0.6,0.8,1.1,1.6,1.4,2.6c0.3,0.9,0.3,1.8-0.1,2.7c-0.4,0.9-1,1.6-1.7,2c-0.7,0.4-1.4,0.6-2.1,0.6c-0.7,0-1.3-0.1-1.9-0.3
	c-0.6-0.2-0.9-0.4-1.1-0.6c-0.3-0.3-0.5-0.6-0.6-1c0-0.4,0-0.7,0.2-1c0.2-0.3,0.4-0.6,0.6-1c-0.2-0.8-0.6-1.7-1.3-2.7
	C248,245.4,246.8,244.6,245.1,243.8z M231.3,248.9c1-0.6,1.8-1.5,2.3-2.7c0.5-1.2,0.5-2.5,0.2-4c-2.2,0.3-4,0.8-5.5,1.5
	c-1.5,0.7-2.5,1.4-2.9,2.2c-0.3,0.6-0.5,1.1-0.3,1.5c0.1,0.4,0.3,0.7,0.5,1c0.3,0.3,0.6,0.6,0.9,0.8c0.5,0.3,1.1,0.4,1.7,0.4
	c0.6,0,1.1-0.1,1.5-0.2C230.1,249.3,230.7,249.1,231.3,248.9z M273.3,224.5c0.7,0.5,0.9,1.1,0.8,1.8c-0.1,0.7-0.3,1.7-0.8,2.9
	c-0.4,1.2-1,2.5-1.7,3.9c-0.7,1.4-1.5,2.8-2.5,4.3c-1,1.4-2.1,2.7-3.4,3.9c-1.2,1.2-2.6,2.1-4.1,2.9c-1.5,0.7-3.1,1.1-4.8,1
	c-2.8-0.1-5.1-0.9-6.8-2.4c-1.7-1.5-2.9-3.6-3.4-6.3c-0.6-2.7-0.5-5.9,0.1-9.6c0.6-3.7,1.9-7.7,3.7-12.1c0.3-0.9,1.1-1.3,2.5-1.2
	c1.2,0,2.6,0.1,4.3,0.4c1.7,0.2,3.2,0.7,4.6,1.3c0.5,0.3,0.9,0.7,1.2,1.1s0.3,0.9,0.1,1.4c-0.3,0.8-0.6,1.9-1.2,3.3
	c-0.5,1.4-1,2.9-1.5,4.6s-0.9,3.3-1.4,5s-0.7,3.2-0.9,4.6s-0.1,2.5,0.1,3.4c0.3,0.9,0.8,1.4,1.5,1.5c1.1,0.1,2.2-0.4,3.4-1.5
	c1.1-1.1,2.2-2.5,3.2-4.1c1-1.6,2-3.4,2.8-5.2c0.9-1.8,1.5-3.4,1.9-4.7c0.1-0.2,0.3-0.4,0.6-0.4c0.3-0.1,0.6,0,1,0.1
	C272.8,224.3,273,224.4,273.3,224.5z M258.1,212.5c-1.4-0.1-2.5-0.4-3.4-0.9s-1.3-1.1-1.1-1.7c0.2-0.6,0.8-1,1.8-1.3
	c1-0.3,2.2-0.4,3.6-0.3c1.3,0.1,2.4,0.4,3.3,0.9c0.9,0.5,1.3,1,1.1,1.6c-0.2,0.6-0.8,1.1-1.8,1.4
	C260.6,212.6,259.4,212.7,258.1,212.5z M334.9,224.5c0.8,0.5,1,1.1,0.8,1.8c-0.2,0.5-0.4,1.1-0.7,1.8c-0.3,0.8-0.7,1.6-1.2,2.6
	c-0.5,1-1,2-1.7,3c-0.6,1.1-1.4,2.1-2.1,3.1c-2.4,3.4-5,6.4-7.7,9c-1.2,1.1-2.5,2.2-3.8,3.2c-1.3,1-2.7,1.9-4.1,2.6
	c-1.4,0.7-2.9,1.3-4.3,1.7c-1.5,0.4-2.9,0.5-4.4,0.3c-2.5-0.3-4.3-1.3-5.6-3s-2-3.6-2.4-5.6c-0.4-2.1-0.5-4.2-0.3-6.3
	c0.2-2.1,0.4-3.7,0.6-4.8c0.7-2.6,1.5-5.1,2.5-7.5c1-2.4,1.9-4.6,2.8-6.5c0.9-1.9,1.5-3.6,1.8-4.8c0.3-1.3,0.2-2.1-0.4-2.6
	c-0.5-0.3-1.1-0.3-1.7-0.1c-0.6,0.2-1.3,0.5-2,0.7c-0.8,0.4-1.5,0.8-2.2,1.4c-1.8,1.5-3.6,3.2-5.2,5.2c-1.7,2-3.2,4.1-4.5,6.2
	c-1.3,2.1-2.5,4.1-3.6,6.1c-1,1.9-1.9,3.6-2.5,4.8c-0.1,0.1-0.3,0.3-0.5,0.6c-0.3,0.3-0.6,0.6-1,0.9c-0.4,0.3-1,0.5-1.7,0.7
	s-1.6,0.3-2.6,0.3c-1.7,0-3-0.2-3.9-0.7c-0.9-0.5-1.6-0.9-2-1.3c-1.5-1.6-2.2-3.6-2.3-5.9c-0.1-2.3,0.2-4.7,0.8-7
	c0.6-2.3,1.3-4.5,2.2-6.5c0.9-2,1.5-3.5,2.1-4.5c0.3-0.6,1.1-1,2.5-1.1c1.2,0,2.7,0,4.4,0.1c1.7,0.1,3.3,0.4,4.6,0.8
	c1.5,0.6,2,1.3,1.6,2.3c-0.3,0.6-0.8,1.5-1.2,2.6c-0.5,1.1-1,2.2-1.5,3.6c-0.5,1.3-1,2.7-1.5,4.2c-0.5,1.5-0.8,2.9-1.1,4.4
	c1-2,2.4-4.3,4-6.9c1.6-2.6,3.5-5.1,5.7-7.4s4.5-4.3,7.1-5.9c2.6-1.6,5.3-2.3,8.3-2.3c2.5,0.1,4.5,0.5,5.9,1.2
	c1.4,0.7,2.5,1.7,3.1,2.8c0.6,1.1,1,2.4,1.1,3.7c0.1,1.4,0,2.8-0.3,4.1c-0.3,1.4-0.6,2.7-1,4c-0.4,1.3-0.8,2.4-1,3.3
	c-1.7,3.8-3.1,7.2-4,10.2c-0.4,1.3-0.8,2.6-1.2,3.8c-0.3,1.3-0.6,2.4-0.7,3.5c-0.1,1.1-0.1,2,0.1,2.7c0.2,0.7,0.5,1.2,1,1.4
	c0.8,0.3,1.8,0.1,3.2-0.7c1.3-0.7,2.8-1.8,4.5-3.3c1.6-1.4,3.3-3.1,5-5c1.7-1.9,3.3-3.8,4.8-5.8c1.3-1.6,2.5-3.4,3.5-5.3
	c1-1.9,1.8-3.3,2.2-4.1c0.3-0.5,0.9-0.6,1.5-0.4C334.4,224.3,334.6,224.4,334.9,224.5z M394.1,251.9c0.1,0.3,0.2,0.6,0.4,1
	c0.2,0.3,0.3,0.6,0.4,1c0.1,0.4,0.1,0.8,0.1,1.2c0,0.9-0.3,1.7-1,2.5c-0.7,0.8-1.9,1.2-3.7,1.4c-1,0-2-0.1-2.8-0.4
	c-0.7-0.2-1.3-0.6-1.9-1c-0.6-0.4-0.8-1.2-0.6-2.2c0.1-0.8,0-1.6-0.3-2.5c-0.3-0.9-0.9-1.7-1.9-2.4c-1-0.7-2.3-1.4-4.1-1.8
	c-1.7-0.5-4-0.8-6.7-0.9c-0.9,3.8-2,7.9-3.5,12.1c-1.5,4.3-3.4,8.3-5.9,12c-2.5,3.8-5.6,7-9.4,9.7c-3.7,2.7-8.3,4.5-13.8,5.2
	c-1.7,0.2-3.5,0.3-5.4,0.3c-1.9,0-3.9-0.3-6.1-0.7c-2.8-0.7-5.2-1.8-7.1-3.3c-0.8-0.6-1.5-1.3-2.2-2.2c-0.7-0.9-1.2-1.8-1.6-2.9
	c-0.4-1.1-0.6-2.4-0.5-3.7c0-1.4,0.4-2.9,1.1-4.7c1-2.5,2.9-5.1,5.5-7.6c2.6-2.6,5.8-4.9,9.6-7.1c3.8-2.2,8-4.1,12.7-5.7
	s9.7-2.8,14.9-3.5c0.7-3,1.4-6.1,2.2-9.2c0.8-3.1,1.6-6.2,2.5-9.2c-2,2.2-4.3,4.6-7,7c-2.7,2.4-5.6,4.5-8.8,6.2
	c-2.8,1.4-5.6,2.4-8.6,2.9c-3,0.5-5.9,0.4-8.8-0.4c-2.1-0.8-3.8-1.8-5-3.2c-1-1.2-1.7-2.7-1.9-4.6c-0.2-1.9,0.6-4.3,2.4-7.1
	c1.8-2.8,4.5-5,8.1-6.6s7.2-2.6,11-2.9c3.7-0.3,7.1,0,10.1,1c3,1,4.9,2.6,5.7,4.9c1.1-1.2,2.2-2.6,3.2-4c1-1.4,2-3,3-4.7
	c0.3-0.8,0.7-1.6,1-2.4c0.3-0.8,0.6-1.5,1-2.2c0.2-0.4,0.5-0.7,1.1-1c0.6-0.3,1.2-0.3,1.9-0.2c1.1,0.1,2.4,0.3,3.8,0.7
	c1.4,0.3,2.6,0.9,3.7,1.6c1,0.8,1.3,1.6,0.9,2.4c-0.7,1.5-1.9,4.6-3.6,9.1c-1.7,4.6-3.3,10.8-5,18.7c-0.1,0.4-0.2,0.8-0.2,1.2
	c0,0.4-0.2,0.9-0.3,1.3c1.4,0.1,3.1,0.2,5.2,0.4c2.1,0.2,4.2,0.5,6.3,1c2.1,0.5,4.1,1.2,5.9,2.1C392,249.4,393.3,250.5,394.1,251.9z
	 M327.6,281.1c3.4,1,6.6,1,9.7-0.1c3.1-1.1,6-2.7,8.6-4.9c2.6-2.2,4.8-4.7,6.6-7.6c1.9-2.8,3.2-5.5,3.9-8c0.4-1.6,0.9-3.4,1.5-5.3
	c0.6-2,1.1-4.1,1.6-6.3c-3,0.6-6.1,1.4-9.2,2.4s-6.1,2.2-9,3.7c-2.9,1.4-5.6,3-8.1,4.7c-2.5,1.7-4.6,3.6-6.5,5.7
	c-0.8,0.8-1.4,1.7-1.9,2.6c-0.5,0.8-1,1.6-1.4,2.6c-0.4,1-0.7,2-0.8,3c-0.2,1.5,0,3,0.6,4.4C323.9,279.4,325.3,280.4,327.6,281.1z
	 M338.4,237.6c0.9,0.1,2,0,3.5-0.3c1.5-0.3,3.1-0.8,4.8-1.6c1.8-0.8,3.7-1.8,5.7-3c2-1.2,4-2.7,6-4.5c0-0.3-0.1-0.8-0.3-1.4
	s-0.5-1.3-1-1.9c-0.5-0.6-1.2-1.2-2.1-1.6c-0.9-0.4-2-0.6-3.5-0.6c-0.9,0.1-1.9,0.2-3,0.5c-1.2,0.3-2.4,0.8-3.7,1.4
	c-1.3,0.6-2.5,1.5-3.7,2.5c-1.2,1-2.2,2.2-3,3.7c-0.4,0.8-0.8,1.5-1.2,2.3c-0.3,0.8-0.5,1.5-0.6,2.1c0,0.6,0.1,1.2,0.4,1.6
	C337.1,237.3,337.6,237.6,338.4,237.6z M144.8,156.4c2.2,0.8,4.5,1.4,6.9,1.7c2.8,0.3,5.5,0.2,8.1-0.8c1.5-0.6,2.7-1.3,3.4-2.4
	c1-1.4,0.2-2.5-2-2.6c-4.7-0.2-9.3-0.2-14,0.2c-0.4,0-0.7,0-1.3,0c0.3-0.2,0.5-0.4,0.6-0.5c4-2.6,6.5-5.9,8-9.7
	c0.6-1.6,0.9-3.2,0.5-4.8c-0.2-0.7-0.5-1.3-1.5-1.5c-1-0.2-1.5,0.4-2,0.9c-2.4,2.7-4.9,5.4-7.2,8.2c-1.4,1.7-2.4,3.5-2.6,5.5
	c0,0.3-0.2,0.5-0.3,0.9c-0.3-0.6-0.5-1-0.7-1.4c-1.5-3.1-3.7-5.9-6.4-8.5c-0.9-0.9-1.8-0.8-2.5,0.1c-0.4,0.5-0.7,1.1-0.9,1.7
	c-0.8,2.8-0.4,5.5,2.4,7.7c1.1,0.8,2.3,1.5,3.5,2.3c0.2,0.1,0.5,0.3,0.9,0.6c-1,0-1.6,0.1-2.3,0c-4-0.6-8.1-0.6-12.2-0.4
	c-0.7,0-1.4,0-1.8,0.5c-0.4,0.6,0,1.1,0.5,1.5c0.3,0.3,0.6,0.5,0.9,0.7c1.2,0.7,2.5,1.1,4,1.3c2.7,0.3,5.2-0.3,7.6-1
	c1-0.3,2.1-0.6,3.1-0.9c0.3-0.1,0.6,0,1.1,0c-0.3,0.3-0.4,0.4-0.6,0.6c-3.8,3.1-8.3,5.4-13.7,6.7c-1.5,0.3-3.1,0.7-4.6,1.1
	c-0.5,0.1-0.9,0.3-0.8,0.8c0.1,0.5,0.7,0.5,1.3,0.5c0.8-0.1,1.6-0.3,2.4-0.4c6.6-1.2,12.3-3.4,16.7-7.4c0.4-0.3,0.7-0.7,1.1-1
	c0.2-0.2,0.5-0.3,0.8-0.5c0.5,1.1,0.3,2,0.1,3c-0.6,3.1-0.2,6.1,1,9.1c0.5,1.2,1.6,1.4,2.9,0.6c1-0.6,1.5-1.4,1.8-2.3
	c0.7-2.2,0.6-4.5-0.7-6.6c-0.6-1-1.2-2-1.9-3C144.7,156.5,144.8,156.4,144.8,156.4z M336.1,191.9c2.7,1,5.5,1.8,8.4,2.1
	c3.4,0.3,6.8,0.2,9.9-1c1.8-0.7,3.3-1.6,4.2-3c1.2-1.7,0.2-3-2.4-3.1c-5.7-0.2-11.4-0.3-17.1,0.2c-0.4,0-0.9,0-1.6,0
	c0.4-0.3,0.6-0.4,0.8-0.6c4.8-3.2,8-7.2,9.8-11.8c0.8-1.9,1.1-3.9,0.6-5.9c-0.2-0.8-0.6-1.6-1.8-1.8c-1.2-0.2-1.9,0.5-2.4,1.1
	c-3,3.3-6,6.6-8.8,10c-1.7,2-2.9,4.3-3.2,6.7c0,0.3-0.2,0.6-0.4,1.1c-0.4-0.7-0.6-1.2-0.8-1.7c-1.9-3.8-4.5-7.2-7.9-10.4
	c-1.1-1.1-2.2-1-3,0.1c-0.5,0.6-0.8,1.4-1,2.1c-1,3.5-0.5,6.7,3,9.4c1.3,1,2.9,1.9,4.3,2.8c0.3,0.2,0.6,0.4,1.1,0.7
	c-1.2,0-2,0.1-2.8,0c-4.9-0.7-9.9-0.7-14.9-0.5c-0.8,0-1.7,0-2.2,0.6c-0.5,0.7,0,1.3,0.6,1.8c0.3,0.3,0.7,0.6,1.1,0.8
	c1.4,0.8,3.1,1.3,4.9,1.5c3.3,0.3,6.4-0.3,9.4-1.2c1.3-0.4,2.5-0.7,3.8-1.1c0.3-0.1,0.7,0,1.3-0.1c-0.4,0.3-0.5,0.5-0.7,0.7
	c-4.7,3.8-10.2,6.7-16.8,8.2c-1.9,0.4-3.8,0.8-5.6,1.3c-0.6,0.1-1.2,0.4-1,0.9c0.2,0.6,0.9,0.7,1.6,0.6c1-0.2,2-0.3,3-0.5
	c8.1-1.5,15.1-4.2,20.4-9.1c0.4-0.4,0.9-0.8,1.4-1.2c0.2-0.2,0.6-0.4,1-0.6c0.6,1.3,0.3,2.5,0.1,3.7c-0.8,3.8-0.3,7.5,1.2,11.2
	c0.6,1.4,2,1.7,3.5,0.7c1.2-0.7,1.8-1.7,2.2-2.8c0.8-2.8,0.7-5.5-0.9-8.1c-0.8-1.2-1.5-2.5-2.3-3.7C335.9,192,336,192,336.1,191.9z
	 M308.9,315.8c2.7,1,5.5,1.8,8.4,2.1c3.4,0.3,6.8,0.2,9.9-1c1.8-0.7,3.3-1.6,4.2-3c1.2-1.7,0.2-3-2.4-3.1
	c-5.7-0.2-11.4-0.3-17.1,0.2c-0.4,0-0.9,0-1.6,0c0.4-0.3,0.6-0.4,0.8-0.6c4.8-3.2,8-7.2,9.8-11.8c0.8-1.9,1.1-3.9,0.6-5.9
	c-0.2-0.8-0.6-1.6-1.8-1.8c-1.2-0.2-1.9,0.5-2.4,1.1c-3,3.3-6,6.6-8.8,10c-1.7,2-2.9,4.3-3.2,6.7c0,0.3-0.2,0.6-0.4,1.1
	c-0.4-0.7-0.6-1.2-0.8-1.7c-1.9-3.8-4.5-7.2-7.9-10.4c-1.1-1.1-2.2-1-3,0.1c-0.5,0.6-0.8,1.4-1,2.1c-1,3.5-0.5,6.7,3,9.4
	c1.3,1,2.9,1.9,4.3,2.8c0.3,0.2,0.6,0.4,1.1,0.7c-1.2,0-2,0.1-2.8,0c-4.9-0.7-9.9-0.7-14.9-0.5c-0.8,0-1.7,0-2.2,0.6
	c-0.5,0.7,0,1.3,0.6,1.8c0.3,0.3,0.7,0.6,1.1,0.8c1.4,0.8,3.1,1.3,4.9,1.5c3.3,0.3,6.4-0.3,9.4-1.2c1.3-0.4,2.5-0.7,3.8-1.1
	c0.3-0.1,0.7,0,1.3-0.1c-0.4,0.3-0.5,0.5-0.7,0.7c-4.7,3.8-10.2,6.7-16.8,8.2c-1.9,0.4-3.8,0.8-5.6,1.3c-0.6,0.1-1.2,0.4-1,0.9
	c0.2,0.6,0.9,0.7,1.6,0.6c1-0.2,2-0.3,3-0.5c8.1-1.5,15.1-4.2,20.4-9.1c0.4-0.4,0.9-0.8,1.4-1.2c0.2-0.2,0.6-0.4,1-0.6
	c0.6,1.3,0.3,2.5,0.1,3.7c-0.8,3.8-0.3,7.5,1.2,11.2c0.6,1.4,2,1.7,3.5,0.7c1.2-0.7,1.8-1.7,2.2-2.8c0.8-2.8,0.7-5.5-0.9-8.1
	c-0.8-1.2-1.5-2.5-2.3-3.7C308.7,315.9,308.8,315.9,308.9,315.8z M306,134.6c-3.2-0.2-8.5,0.9-11.5,1.5
	c-24.9,5.6-37.2,13.6-49.3,24.9c0.3-1.8,0.8-2.7-1.3-7.7c-1-2.5-1.9-6-0.5-8.4c0.9-1.5,2.6-3.1,5.3-3.4c2.3-0.3,3.4,2,2.6,3.4
	c-0.2,0.3-0.1,0.7,0.4,0.8c2,0.6,3.3-3.3-0.3-5c-3.6-1.7-11.8,1.1-11,8.2c0.5,4.5,3.7,8.2,2.7,11.8c-0.1,0.3-0.2,0.7-0.4,1.1
	c-1.4-1.9-4.6-1.8-6.6-0.5c-1.2-4.7,3.6-12.3-1.5-17.9c-3.9-4.3-11.8-3.1-11.5,0.1c0.1,1.2,1.5,2.3,2.2,2.5c0.7,0.2,1.6-0.2,1-0.7
	c-0.4-0.3-1-0.6-1.4-1.3c-0.6-1.3,0.8-2.3,2.3-2.4c6.8-0.5,8.3,6.6,7.6,10.8c-1.8,11.2-0.7,6.8-1,8.3c-0.7-0.5-0.9-1.4-5.8-5.2
	c-8.6-6.8-20-10.6-33.2-14.4c-10.4-3-16.8-4.3-25.5-5.9c-2.2-0.4-4.1-0.5-5,0.7c-0.7,1-0.6,2-0.3,3.1c0.6,2,1.9,3.1,4,4.4
	c4,2.6,4.9,2.5,3.3,5.8c-1.5,2.9-1.7,3.4,1,5.8c0.5,0.4,0.9,0.8,1.3,1.2c2.8,3-1.1,4.9-0.4,8c0.5,2.1,3.3,3.2,6.8,3.9
	c5.5,1.2,11.5,1,13.8,1.2c-4.2,1.6-13.5,4.3-12.9,7.2c0.7,3.4,1.2,1.3-0.1,5.7c-1.9,6.4,8.6,2.6,8.8,7.9c0.1,3.2,0.5,4.2,6.6,5.2
	c0.4,0.1,0.8,0.2,1.1,0.3c5.3,2.3,4,6.4,11.5,7.7c5.2,0.9,9.6-0.7,13.9-2.4c7.4-2.9,10.7-5.5,13.2-8.6c0.1,0.1,3.9,4.5,11.3,7.9
	c13.9,6.4,13.5,1.3,21.9,0.3c4.7-0.6,10.2-0.3,9.9-5c-0.1-1.7-0.4-2.3,1-3.1c2.2-1.3,6.8-1.1,7.8-3.2c0.6-1.2,0.1-2.2-0.4-3.9
	c-1.2-4,9.5-3.1,0.1-9.1c-1.9-1.3-4.1-2.5-7.7-4.1c0.1,0,21.4,3.4,20.7-3.3c-0.3-3.1-1.5-3.4,1.5-5.8c1.3-1.1,2.3-1.6,2-3.2
	c-0.4-2.6-2.8-3.4-1.3-5.8c1.8-3,6.5-3.1,5.4-5.8c-0.4-1-1.4-1.9-2.3-3.1c-2.5-3.4,2.5-6.3,3.4-8C310.1,135.5,308.2,134.7,306,134.6
	z"/>
<path fill="#BC936B" d="M98,120.3c0.1-0.7,0.2-1.4,0.3-2.1c0.2-1,0.3-2,0.5-3.1c0.4-2.6,0.7-5.1,1-7.7c0.9-6.4,1.4-12.8,1.6-19.3
	c0.1-4,0.1-7.9-0.2-11.9c-0.2-3.5-0.8-7.1-1.7-10.6c-0.4-1.4-1-3-1.7-4.7c-0.8-1.7-1.9-3.3-3.3-4.7c-1.4-1.4-3.2-2.4-5.5-2.9
	c-0.8-0.2-1.6-0.2-2.4-0.1c-1.5,0.3-2.7,0.9-3.6,1.8c-1.1,0.9-2,1.9-2.8,3c-0.3,0.4-0.6,0.8-0.9,1.2c-0.2,0.4-0.5,0.7-0.8,1
	c-0.4,0.6-1,1.2-1.5,1.8c-0.2,0.2-0.5,0.4-0.9,0.5c-0.8,0.2-1.7,0.2-2.5,0.1c-1.1-0.2-2-0.6-2.9-1c-0.7-0.4-1.4-0.8-2-1.4
	c-0.6-0.6-0.9-1.2-0.8-1.9c0-0.3,0.2-0.5,0.4-0.7c1.4-1.3,2.9-2.5,4.5-3.7c1.6-1.2,3.3-2.3,5.2-3.3c4.4-2.2,9.3-3.1,14.7-2.9
	c5.2,0.1,9.7,1.4,13.5,3.8c3.1,2.3,5.3,5.1,6.5,8.3c1.2,3.3,2,6.4,2.2,9.5c0.2,3,0.3,6.1,0.2,9.1c0,0.3,0,0.5,0,0.8
	c-0.1,3.4-0.1,6.7,0.1,10.1c2.3-7.4,5-14.7,8.2-21.9c2.3-5.2,5-10.2,8.2-15.2c2.5-4.1,5.5-8,8.9-11.7c2.7-3.1,5.8-6,9.3-8.7
	c2.5-2,5.4-3.8,8.5-5.3c3.1-1.6,6.5-2.8,10.2-3.7c5.7-1.3,11.4-1.3,17.1,0.1c3.8,1,7.2,2.4,10.1,4.3c2.9,1.9,5.3,4.1,7.2,6.5
	c2.1,2.7,3.6,5.5,4.4,8.5c0.9,3.2,1.1,6.4,0.6,9.6c-1.3,7.5-5.5,14-12.8,19.7c-4.8,3.7-10.4,6.9-16.7,9.4s-12.8,4.6-19.7,6.2
	l-0.5,0.1l0.3,0.7l0.5,0c0.4,0,0.9,0,1.3,0c0.7,0,1.4,0.1,2.2,0.2c2,0.2,4,0.6,5.9,1c2.4,0.6,4.6,1.3,6.7,2.3
	c2.1,0.9,3.8,2.1,5.3,3.5l0.2,0.1l0.3,0c10.2-0.6,18.8-0.8,25.8-0.7c3,0.1,4.8,0.5,5.4,1.1c0.6,0.6,0.4,1.2-0.7,1.8
	c-1,0.6-2.4,1-4.2,1.1c-2.6,0.1-5.6,0.3-8.9,0.4c-4.6,0.1-9.8,0.4-15.5,0.7l-0.6,0l0.1,0.4c0.7,3.4,0.4,6.7-0.9,9.9
	c-1.3,3-3.4,5.7-6.2,8.2c-5.8,4.9-13.3,7.9-22.4,9c-4.1,0.5-8.2,0.5-12.4-0.1c-2.3-0.3-4.4-1-6.2-2c-3-1.7-4.9-3.9-5.7-6.5
	c-0.8-3-0.1-5.9,2-8.7c1.3-1.8,3.1-3.4,5.2-4.8c2.1-1.4,4.4-2.6,6.9-3.7c3.8-1.5,7.8-2.8,12.1-3.7c4.3-0.9,8.6-1.7,12.9-2.1l0.9-0.1
	l-0.5-0.5c-1.4-1.4-3.2-2.5-5.5-3.2c-2.2-0.8-4.5-1.3-6.9-1.6c-2.5-0.3-5.1-0.5-7.7-0.5c-2.1,0-4.2,0-6.3,0.2
	c-1.1,0.1-2.1-0.1-2.8-0.7c-0.9-0.8-1.2-1.7-0.8-2.6c0.6-1.1,1.7-1.9,3.4-2.2c6.3-1.2,12.4-2.9,18.4-4.9c6-2,11.5-4.5,16.4-7.4
	c3.5-2.1,6.6-4.4,9.2-7c2.6-2.6,4.6-5.4,6-8.5c2.2-4.8,2.1-9.6-0.2-14.5c-1-1.9-2.4-3.7-4.3-5.3c-1.9-1.6-4.2-2.9-7-3.8
	c-2.8-0.9-5.6-1.2-8.5-1.1c-2.9,0.1-5.7,0.6-8.5,1.5c-4,1.3-7.5,3.1-10.7,5.4c-3.2,2.3-5.9,4.6-8.2,7.1c-3.5,3.8-6.6,7.7-9.1,11.9
	c-3.3,5.3-6,10.6-8.2,16.1c-2.8,6.9-5.1,13.9-7,20.9c-2.2,8.6-4,17.3-5.2,26c-0.4,0.1-0.9,0.3-1.5,0.4c-0.6,0.1-1.1,0.2-1.5,0.2
	c-1.7,0.2-3.3,0.2-5.1,0.2c-1.9,0-3.8-0.1-5.7-0.4c-0.3,0-0.8-0.1-1.4-0.3C98.6,120.6,98.2,120.5,98,120.3z M170.9,100l-0.1-0.4
	l-0.6,0c-7,0.4-13.6,1.7-19.8,3.8c-4.6,1.6-8.4,3.9-11.4,6.7c-2.3,2.3-3.6,4.7-3.8,7.5c-0.1,2.3,0.9,4.2,3.1,5.9
	c0.9,0.6,1.9,1.1,3.1,1.4c1.6,0.4,3.2,0.6,4.8,0.4c1.6-0.2,3.2-0.5,4.7-1c3.8-1.3,7-3.1,9.7-5.3c3.2-2.6,5.7-5.4,7.5-8.6
	C170.2,107,171.1,103.6,170.9,100z M253.3,115.5c-2.2,0-4.2-0.5-6-1.6c-1.8-1.1-3.1-2.5-4.2-4.1c-1-1.7-1.5-3.4-1.5-5.2v-0.1
	c0.1-3.2,0.5-7,1.3-11.2c0.8-4.2,1.6-8.1,2.6-11.7c0.9-3.6,1.6-6.2,2.1-7.6c-0.6,0.7-1.1,1.4-1.8,2.2c-2.1,2.6-4.6,5.6-7.6,9.1
	c-3,3.5-6.1,6.8-9.5,10.2c-3.4,3.3-6.8,6.1-10.2,8.3c-3.4,2.2-6.6,3.4-9.6,3.6h-0.6c-2.5,0-4.4-0.5-5.9-1.4c-1.4-1-2.4-2.3-3-3.9
	c-0.6-1.7-0.9-3.5-0.9-5.6c0-2.9,0.4-5.9,1.2-9.2c0.8-3.2,1.7-6.3,2.8-9.2c1-2.9,1.9-5.3,2.7-7.2c0.2-0.6,0.4-1.1,0.6-1.5
	c0.3-0.8,1.2-1.3,2.6-1.7c1.4-0.4,2.9-0.5,4.5-0.5c1.7,0,3.3,0.2,4.7,0.6c1.4,0.4,2.1,0.9,2.1,1.5c-5.4,11.8-8.1,20.5-8.1,26.2
	c0,1.3,0.2,2.3,0.5,3.1c0.3,0.8,0.8,1.3,1.5,1.5c0.3,0.1,0.6,0.1,0.9,0.1c1.3,0,2.9-0.7,4.8-2.1c1.9-1.4,3.8-3.2,6-5.4
	c2.1-2.2,4.3-4.6,6.5-7.2c2.2-2.6,4.3-5.2,6.4-7.8c2.7-3.3,5.1-6.2,7.2-8.6c2.1-2.4,3.8-3.9,4.9-4.5c0.8-0.4,1.8-0.5,2.8-0.5
	c1.2,0,2.4,0.2,3.6,0.6c1.2,0.4,2.2,1,3.1,1.7c0.8,0.7,1.2,1.6,1.2,2.5v0.3c-0.3,2.3-1.2,5.9-2.5,10.9c-1.2,4.4-2.3,9-3.4,13.8
	c-1.1,4.8-1.6,8.8-1.6,12.2c0,1.5,0.1,2.7,0.4,3.7c0.3,1,0.8,1.7,1.5,2c0.3,0.1,0.6,0.2,0.9,0.2c1.1,0,2.5-0.8,4.2-2.3
	c1.7-1.5,3.4-3.4,5.2-5.7c1.8-2.3,3.5-4.7,5.2-7.2c1.7-2.5,3.1-4.8,4.3-6.9c1.2-2.1,2-3.7,2.5-4.8c0.1-0.3,0.4-0.6,0.8-0.8
	c0.4-0.2,0.8-0.3,1.2-0.3c0.4,0,0.9,0.1,1.2,0.3c0.4,0.2,0.6,0.5,0.6,1c0,0.2-0.1,0.5-0.2,0.8c-1.1,2.1-2.8,4.9-5,8.7
	c-2.2,3.7-4.8,7.4-7.7,11c-2.9,3.6-5.9,6.3-9.1,8.1C257.4,115,255.3,115.5,253.3,115.5z M292,120c-1.5,0-2.9-0.2-4.2-0.7
	c-1.3-0.4-2.4-1.1-3.3-2.1c-1.2-1.3-1.6-2.6-1.3-3.9c0.7-2.4,2.6-4.6,6-6.8c3.3-2.2,6.8-4.1,10.5-5.6c-3.2-1.2-7.1-2.6-11.6-4.1
	c-2.1-0.7-4-1.3-5.6-1.9c-1.6-0.6-2.8-1-3.6-1.3c-3.4-1.5-5.7-3.3-7-5.4c-1.3-2-1.7-4.2-1.2-6.4c0.5-2.3,1.8-4.5,3.8-6.8
	c1.7-1.7,3.7-3.4,6.3-4.9c2.5-1.5,5.4-2.8,8.5-3.8c3.1-1,6.5-1.5,9.9-1.5c3.1,0,6.2,0.5,9.4,1.5c3.1,1.1,5.2,2.4,6.2,3.9
	c1,1.5,1.3,3.2,0.9,4.9c-0.4,1.7-1.1,3.3-2.2,5c-1.1,1.7-2.2,3.2-3.3,4.6c-0.4,0.5-1,0.9-1.9,1.1c-0.9,0.2-1.8,0.4-2.8,0.4
	c-1.6,0-3.1-0.3-4.5-0.8c-1.4-0.5-2-1.3-1.9-2.1c0.1-0.3,0.2-0.5,0.4-0.8c0.9-1.1,1.7-2.5,2.6-4.1c0.9-1.7,1.5-3.3,1.9-4.9
	c0.2-1,0.2-1.9,0.1-2.7c-0.2-0.8-0.6-1.5-1.2-2c-0.7-0.5-1.6-0.7-2.9-0.7c-1.2,0-2.7,0.3-4.6,0.8c-3.4,1-6.2,2.4-8.2,4.3
	c-2.1,1.9-3.4,3.9-3.9,6.1c-0.7,3,0.6,5.6,3.7,7.9c0.9,0.5,2.5,1.2,5,2.1c2.5,0.9,5.2,1.8,8.1,2.8c2.5,0.8,4.7,1.6,6.8,2.3
	c2.1,0.7,3.6,1.3,4.6,1.8c0.4-0.2,0.9-0.4,1.5-0.6c3.1-1.2,7-2.7,11.9-4.5s9.9-3.3,15.3-4.7l0.8-0.1c0.6,0,1,0.1,1.3,0.3
	c0.3,0.2,0.4,0.4,0.4,0.6c0,0.4-0.6,0.8-1.8,1.1c-5.5,1.5-10.8,3.3-16,5.3c-5.2,2-8.6,3.5-10.4,4.3c3.1,2.1,4.3,4.2,3.8,6.3
	c-0.5,2-1.9,4.1-4.2,6.3c-1.3,1.4-3.2,2.8-5.6,4.2c-2.5,1.4-5.2,2.7-8.1,3.7C297.4,119.5,294.6,120,292,120z M297.6,115.2
	c2,0,4-0.7,6.2-2c2.2-1.3,3.5-2.9,4-4.7c0.2-1,0-1.9-0.6-2.9c-0.6-0.9-1.7-1.8-3.3-2.7c-2.3,1-4.5,2.3-6.5,4c-2,1.7-3.2,3.3-3.6,4.8
	c-0.1,0.6-0.1,1.1,0.2,1.6c0.3,0.6,0.8,1.1,1.5,1.3C296.1,115.1,296.8,115.2,297.6,115.2z M349.4,153.8c-3.8,0-7.5-0.7-11-2
	c-3.5-1.3-6.3-3.2-8.5-5.6c-2.2-2.4-3.2-5.3-3.2-8.5c0-2.2,0.6-4.5,1.7-7c1.5-2.9,3.8-5.4,7-7.5c3.2-2.1,6.9-3.9,11.2-5.5
	c4.2-1.6,8.7-3.1,13.3-4.5c2.4-0.7,4.7-1.5,7.1-2.3c1.3-5.8,2.6-12,3.7-18.6c1.2-7,2.4-13.1,3.7-18.5c-0.5,0.7-1.1,1.4-1.7,2.1
	c-2,2.6-4.5,5.7-7.3,9.1c-2.9,3.5-5.9,6.9-9.3,10.2c-3.3,3.3-6.7,6.1-10,8.3c-3.4,2.2-6.5,3.4-9.5,3.6h-0.5c-2.4,0-4.3-0.5-5.7-1.5
	c-1.4-1-2.4-2.4-3-4.1c-0.6-1.7-0.9-3.7-0.9-5.9c0-3,0.4-6.3,1.2-9.8s1.8-6.8,2.8-9.9c1-3.1,2-5.7,2.8-7.8c0.3-0.8,0.5-1.4,0.7-2
	c0.3-0.8,1.2-1.3,2.6-1.7c1.4-0.4,2.8-0.5,4.5-0.5c1.7,0,3.3,0.2,4.7,0.5c1.4,0.4,2.1,0.9,2.2,1.5c-2.5,5.6-4.6,11.1-6.2,16.4
	c-1.6,5.3-2.4,9.6-2.4,12.7c0,1.2,0.1,2.3,0.4,3c0.3,0.8,0.8,1.3,1.4,1.5c0.3,0.1,0.6,0.1,0.9,0.1c1.4,0,3-0.7,4.8-2.1
	c1.8-1.4,3.8-3.2,5.8-5.4c2.1-2.2,4.2-4.6,6.3-7.2s4.2-5.2,6.3-7.8c2.6-3.3,4.9-6.2,7-8.6c2-2.4,3.6-3.9,4.8-4.5
	c0.8-0.4,1.8-0.5,2.8-0.5c1.2,0,2.4,0.2,3.7,0.6c1.2,0.4,2.3,0.9,3.1,1.6c0.8,0.7,1.3,1.5,1.3,2.5l-0.1,0.4
	c-1.3,8.1-2.9,16.5-4.7,25.2c-1,4.9-2,9.6-2.8,13.9c7.4-1.6,14.2-4.5,20.6-8.6c6.3-4.1,10.9-8.4,13.6-13c0.2-0.5,0.6-0.9,1.1-1.1
	s1-0.4,1.4-0.4c0.4,0,0.8,0.1,1.1,0.3c0.3,0.2,0.5,0.5,0.5,0.8c0,0.2-0.1,0.5-0.3,0.8c-8,11.7-21.1,20.8-39,27.3
	c-1,6.4-2.4,12.6-4.3,18.6c-1.9,6-4.2,10.5-6.8,13.5c-2.5,2.5-5.4,4.4-8.7,5.6C356.2,153.2,352.8,153.8,349.4,153.8z M348.6,149.7
	c1.3,0,2.7-0.4,4.1-1.1c1.4-0.7,2.8-1.8,4.1-3.4c1.3-1.6,2.5-3.7,3.6-6.2c2.4-6,4.4-12.9,5.8-20.6c-9.4,3.3-16.5,6.6-21.1,10
	c-2.2,1.6-3.8,3.3-4.8,5.2c-1,1.9-1.5,3.7-1.5,5.5c0,2.9,1,5.4,2.9,7.5C343.7,148.6,345.9,149.7,348.6,149.7z M231.4,280.7
	c-0.7,0.8-1.4,1.5-2.1,2.3c-1,1.1-2.3,1.7-3.7,1.8c-1,0.1-2,0.1-2.9,0c-1.6-0.1-3.3-0.3-4.9-0.3c-0.8,0-1.6,0.1-2.4,0.3
	c-0.4,0.1-0.7,0.2-0.9,0.7c0.3,0.3,0.6,0.5,0.9,0.8c1.3,1,2.7,1.8,4.1,2.5c1.1,0.6,2.2,1.2,3.3,1.8c1.1,0.7,2.1,1.7,2.7,2.9
	c0.7,1.3,0.9,2.6,0.5,4c-0.1,0.3-0.2,0.6-0.3,0.9c-0.3,1-0.3,2-0.1,3c0.1,0.7,0.3,1.3,0.4,2c0.5,3.1,0.1,6-1.5,8.7
	c-0.2,0.3-0.4,0.7-0.6,1.1c-1.7,3.8-0.2,7.7,3.5,9.2c2.7,1,5.5,1.1,8.3,0.6c0.1,0,0.2-0.1,0.3-0.1c-0.3-1.1,0-2.1,0.7-2.9
	c0.6-0.7,1.3-1.3,2-1.9c0.3-0.3,0.6-0.6,0.9-0.8c-0.2-0.7-0.7-1-1.2-1.2c-0.7-0.2-1.4-0.4-2.1-0.6c-1.1-0.2-2.1-0.5-3.1-1
	c-1.3-0.7-2-1.9-1.9-3.5c0.1-0.8,0.3-1.7,0.7-2.3c0.5-0.8,1.1-1.5,1.6-2.2c0.5-0.6,1-1.2,1.5-1.8c0.7-0.8,0.9-1.8,0.8-2.9
	c-0.1-1-0.4-1.9-0.6-2.9c-0.2-0.8-0.5-1.5-0.7-2.3c-0.5-1.7-0.2-3.2,0.7-4.7c0.3-0.4,0.6-0.8,0.9-1.2c1-1.2,1.2-2.6,0.7-4.1
	c-0.1-0.4-0.3-0.8-0.4-1.1c-0.4-0.8-0.8-1.6-1.1-2.4c-0.6-1.2-0.9-2.4-0.3-3.8C233.5,279.3,232.3,279.7,231.4,280.7z M229.6,273.5
	c-0.2-0.5-0.5-1-0.9-1.5c-2.1-3-5-4.7-8.5-5c-1.5-0.1-3.1-0.1-4.6,0c-2.9,0.2-5.7,0.5-8.6,0.6c-3.6,0.1-6.6,1.6-8.4,5
	c0,0-0.1,0.1-0.1,0.1c-0.3,0.4-0.4,0.9-0.4,1.4c0.1,1.1-0.5,1.9-1.5,2.2c-0.5,0.2-1,0.3-1.5,0.5c-1.8,0.7-3.5,1.4-5.1,2.5
	c-0.9,0.7-1.7,1.3-2.6,2.1c-1.3,1.1-2.4,2.3-3.1,3.9c-0.3,0.8-0.6,1.7-0.9,2.5c-0.6,2.1-1.5,4-2.9,5.6c-0.7,0.8-1.4,1.6-2.1,2.5
	c-0.3,0.4-0.7,0.9-0.9,1.4c-0.7,1.7,0,3.2,1.7,3.6c0.8,0.2,1.6,0.3,2.4,0.3c1.9,0.1,3.7,0.2,5.5,0.8c0.9,0.3,1.7,0.6,2.3,1.3
	c0.7,0.7,0.9,1.6,0.7,2.6c-0.2,0.6-0.4,1.2-1,1.6c-0.7,0.5-1.4,1-2.2,1.5c-0.6,0.3-1.2,0.6-1.7,0.9c-1.1,0.7-1.8,1.7-1.7,3
	c0,1.2,0.4,2.3,1.3,3.1c0.5,0.4,1,0.8,1.6,1.1c1.8,0.8,3.6,1.6,5.4,2.3c1.5,0.6,2.9,1.5,3.9,2.8c0.4,0.5,0.8,1.1,1.3,1.6
	c0.7,0.9,1.5,1.6,2.5,2.2c1.3,0.7,2.7,1.2,4.1,1.6c2.5,0.6,5,0.5,7.5,0.2c2.6-0.3,5-1.1,7.3-2.6c1.5-1,2.6-2.3,3.6-3.6
	c-0.3-0.7-0.7-1.2-0.9-1.8c-0.2-0.6-0.5-1.3-0.6-2c-0.5-2.6,0.1-5,1.4-7.2c1.2-2,1.6-4.2,1.3-6.6c-0.1-0.8-0.3-1.6-0.4-2.4
	c-0.2-1.3-0.3-2.5,0.1-3.7c0.2-0.5,0.3-1,0.4-1.6c0.1-0.5,0.1-1-0.1-1.4c-0.4-0.8-0.9-1.6-1.7-2.1c-0.7-0.5-1.4-0.9-2.1-1.3
	c-1.1-0.6-2.3-1.2-3.4-1.8c-1.2-0.7-2.4-1.5-3.4-2.5c-1.3-1.4-1.2-3.1,0.3-4.3c0.4-0.3,0.8-0.5,1.2-0.7c0.6-0.2,1.2-0.4,1.9-0.4
	c1.3,0,2.6,0,3.9,0.1c1.2,0.1,2.4,0.2,3.6,0.3c1.9,0.1,3.4-0.5,4.7-2c0.7-0.9,1.6-1.7,2.6-2.7C230.6,276.3,230.1,274.9,229.6,273.5z
	 M244.7,280.6c-1.6-0.7-3.2-1.2-4.9-1.5c-0.6-0.1-1.2-0.2-1.8-0.2c-1.3,0-2,1.1-1.6,2.4c0.2,0.5,0.5,0.9,0.7,1.3
	c0.4,0.8,0.9,1.6,1.2,2.5c0.3,0.6,0.4,1.3,0.6,1.9c0.3,1.4,0.1,2.7-0.7,3.9c-0.4,0.7-0.9,1.3-1.4,1.9c-0.8,1-1,2.1-0.6,3.3
	c0.3,0.8,0.5,1.6,0.7,2.4c0.2,0.9,0.5,1.8,0.6,2.6c0.3,1.8-0.1,3.5-1.3,5c-0.4,0.5-0.9,1-1.3,1.6c-0.5,0.6-0.9,1.2-1.3,1.8
	c-0.3,0.4-0.4,0.9-0.5,1.4c-0.1,0.6,0.1,1.2,0.7,1.4c0.6,0.3,1.3,0.5,1.9,0.7c1,0.3,2,0.5,3,0.8c0.9,0.3,1.6,0.8,2.2,1.6
	c0.8,1.2,0.8,2.3-0.2,3.4c-0.4,0.4-0.8,0.7-1.2,1.1c-0.5,0.5-1,1-1.5,1.5c-0.2,0.2-0.4,0.5-0.2,0.9c0.3-0.1,0.6-0.2,0.9-0.3
	c3.5-1.3,6.5-3.3,9.3-5.9c1.6-1.5,2.9-3.1,3.9-5.1c1.7-3.4,2.7-6.9,2.9-10.7c0-0.2,0-0.3,0-0.5c-1.2,0.5-2.4,0.9-3.6,1.4
	c0.1,0.6,0.2,1.2,0.2,1.8c0,0.6-0.4,1.1-1,1.2c-0.5,0.1-0.8-0.1-1.1-0.7c-0.1-0.2-0.2-0.5-0.2-0.7c-0.1-0.3-0.1-0.6-0.3-0.8
	c-0.5-0.8-0.7-1.8-0.9-2.7c0-0.2-0.1-0.5-0.2-0.7c-1.3-3.7-2.6-7.4-3.8-11.2c-0.5-1.4-1.1-2.6-2.1-3.6c-0.3-0.3-0.5-0.5-0.8-0.8
	c-0.2-0.3-0.4-0.7-0.6-1c-0.2-0.7,0.3-1.3,1-1.2c0.3,0,0.7,0.2,1,0.4c0.4,0.3,0.7,0.7,1.1,1c0.3,0.3,0.5,0.6,0.8,0.9
	c0.6-0.5,1.1-1,1.7-1.7C245.7,281.1,245.2,280.8,244.7,280.6z M298.6,264.4c-0.9-2.2-1.8-4.3-3-6.2c-3.4,2.7-6.8,5.1-10.5,7.4
	c0.9,1.8,1.7,3.5,2.6,5.3C291.4,268.7,295,266.5,298.6,264.4z M268.8,266.6c-3.6,2.8-7.2,5.6-10.7,8.4c0.7,1.5,1.4,2.8,2.2,4.2
	c3.7-2.5,7.4-5.1,11.1-7.6C270.4,269.9,269.6,268.3,268.8,266.6z M282.4,264.4c-0.8-1.8-1.5-3.6-2.3-5.5c-3.4,2.2-6.8,4.3-9.9,6.7
	c1,1.7,1.9,3.2,2.8,4.9C276.1,268.4,279.2,266.4,282.4,264.4z M275.3,280.3c-3.9,2.2-7.8,4.3-11.5,6.7c0.6,1.4,1.2,2.8,1.8,4.2
	c3.9-2,7.7-4,11.6-6C276.5,283.5,275.9,282,275.3,280.3z M277.1,279.3c0.6,1.7,1.1,3.3,1.7,5c3.7-1.9,7.3-3.8,10.8-5.9
	c-0.9-1.6-1.7-3.1-2.5-4.6C283.7,275.7,280.4,277.5,277.1,279.3z M276.2,277.1c3.3-1.8,6.5-3.5,9.7-5.4c-0.9-1.7-1.7-3.4-2.6-5.2
	c-3.1,2-6.2,4-9.3,6.1C274.8,274.2,275.5,275.6,276.2,277.1z M261.1,281.4c0.6,1.2,1.1,2.4,1.6,3.5c4-2.3,7.8-4.6,11.7-6.9
	c-0.7-1.4-1.4-2.8-2.1-4.3C268.5,276.3,264.8,278.8,261.1,281.4z M294.1,256.7c-1.8-2-3.8-2.9-6.5-1.8c-2,0.8-3.9,1.8-5.8,3
	c-0.1,0.1-0.2,0.2-0.3,0.3c0.8,1.7,1.7,3.4,2.6,5.3C287.5,261.1,290.8,258.9,294.1,256.7z M250.4,298.2c0.2,0.4,0.6,0.6,1.1,0.4
	c0.5-0.2,0.9-0.4,1.4-0.6c3.8-1.7,7.3-3.8,10.9-5.8c0.1,0,0.1-0.1,0.3-0.2c-0.6-1.3-1.2-2.7-1.8-4.1c-4.2,2.8-8.4,5.5-12.7,8.3
	C249.8,296.9,250.1,297.6,250.4,298.2z M261.1,285.9c-0.6-1.1-1.1-2.3-1.7-3.5c-4,2.6-7.9,5.2-11.9,7.8c0.4,1.3,0.9,2.6,1.3,4
	C253,291.4,257,288.7,261.1,285.9z M246.8,288.1c3.9-2.6,7.8-5.2,11.6-7.9c-0.6-1.4-1.2-2.8-1.8-4.2c-3.7,2.9-7.4,5.7-11.1,8.6
	C246,285.9,246.4,287,246.8,288.1z M288.7,272.9c0.8,1.6,1.6,3,2.4,4.6c1.9-1.2,3.7-2.4,5.3-3.9c0.7-0.6,1.3-1.4,1.8-2.1
	c1.2-1.5,1.4-3.3,0.8-5.3C295.8,268.9,292.2,270.8,288.7,272.9z M150,301c3.1,0.1,6.1,0.3,9.2,0.1c2.4-0.2,4.8-0.5,7.1-1.3
	c0.7-0.3,1.4-0.6,2.1-1c1.4-0.8,2.4-2.1,3.4-3.4c2.5-3.3,5.2-6.5,8-9.5c0.2-0.2,0.3-0.4,0.5-0.6c-0.4,0-0.7,0-0.9,0
	c-1.8,0-3.6,0-5.4,0c-4.2,0.1-8.4,0.3-12.7,0.4c-0.6,0-1,0.2-1.4,0.7c-3.6,4.3-6.9,8.9-9.9,13.8c-0.1,0.2-0.3,0.5-0.5,0.8
	C149.8,300.9,149.9,300.9,150,301z M163.8,283c4.8-0.3,9.7-0.3,14.5,0c1,0.1,2.1,0.2,3.1,0.4c0.5,0.1,0.7,0,1-0.3
	c1.8-1.7,3.6-3.5,5.6-5.1c2-1.7,4.2-2.8,6.8-3.2c0.3,0,0.6-0.2,0.9-0.3c0.1-0.5-0.1-0.7-0.4-0.9c-0.3-0.2-0.7-0.4-1.1-0.6
	c-1.4-0.7-3-0.9-4.5-1.1c-3.7-0.4-7.4-0.3-11,0c-0.3,0-0.6,0.1-0.8,0.2c-2.6,1.4-5.2,2.9-7.6,4.7c-2.3,1.8-4.4,3.6-6.5,5.6
	c-0.2,0.2-0.4,0.4-0.6,0.6C163.4,282.9,163.6,283,163.8,283z M149.2,297.5c2.3-3.9,5-7.5,7.8-11.1c0.1-0.2,0.2-0.3,0.4-0.6
	c-0.3,0-0.6,0-0.8,0c-5.2,0.3-10.4,0.8-15.6,1.4c-0.4,0.1-0.7,0.2-0.9,0.6c-0.5,0.9-1,1.7-1.4,2.6c-1.2,2.6-2.4,5.3-3.6,7.9
	c-0.2,0.4-0.4,0.8-0.6,1.3c4.4,0.4,8.7,0.8,12.9,1.1C148,299.6,148.5,298.5,149.2,297.5z M183.7,308.2c0.6-0.4,1.4-0.8,2-1.2
	c0.7-0.4,1.4-0.8,2-1.2c0.2-0.1,0.4-0.3,0.6-0.5c-0.2-0.5-0.6-0.7-1-0.8c-0.9-0.3-1.9-0.5-2.9-0.7c-1.3-0.2-2.6-0.2-3.8-0.4
	c-0.7-0.1-1.3-0.2-2-0.4c-2.3-0.7-3.6-2.9-3.2-5.3c0.1-0.8,0.4-1.6,0.9-2.3c0.4-0.6,0.9-1.2,1.4-1.8c0.6-0.7,1.2-1.4,1.8-2.2
	c0.8-1,1.4-2.2,1.7-3.5c-0.1,0-0.2,0.1-0.2,0.2c-1.5,1.7-3,3.5-4.5,5.2c-1.4,1.7-2.7,3.4-4.1,5c-1.1,1.3-2.3,2.3-3.8,2.9
	c-1.1,0.5-2.3,0.8-3.4,1.3c-0.2,0.1-0.4,0.1-0.6,0.2c0.5,2.4,0.8,4.7,1.4,7c5.3,0.3,10.5,0.8,15.9,0.8
	C182.2,309.7,182.8,308.8,183.7,308.2z M166.8,314.2c0.8,3,1.8,5.8,2.9,8.7c0.1,0.3,0.3,0.5,0.7,0.5c1.4,0.2,2.9,0.4,4.3,0.5
	c3.3,0.3,6.5,0.5,9.8,0.2c2-0.1,3.9-0.7,5.6-1.7c0.3-0.2,0.5-0.3,0.9-0.6c-1-0.4-1.9-0.8-2.8-1.2c-1.2-0.6-2.5-1.2-3.7-1.9
	c-1.8-1-2.8-2.7-3.1-4.7c-0.1-0.3-0.1-0.7-0.1-1.1c-4.9,0.4-9.8-0.3-14.8-0.5C166.6,313.1,166.7,313.6,166.8,314.2z M132.3,299.3
	c1.3-4,3.1-7.8,5.2-11.5c-0.3,0-0.5,0-0.7,0c-6.8,1.1-13.7,2.1-20.5,3.2c-0.5,0.1-0.8,0.3-1,0.8c-0.6,1.6-1.1,3.3-1.7,4.9
	c-0.2,0.5-0.2,0.9,0.1,1.3C119.9,298.5,126.1,298.9,132.3,299.3z M163.8,312.3c-7.1-0.3-14.2-1.1-21.3-1.9c0,0.3,0,0.5,0.1,0.7
	c0.4,1.8,0.9,3.6,1.3,5.4c0.1,0.4,0.3,0.4,0.6,0.5c1.8,0.5,3.6,1.1,5.4,1.6c4.4,1.2,8.8,2.3,13.2,3.4c1.3,0.3,2.6,0.6,4,0.8
	C166,319.3,164.9,315.8,163.8,312.3z M143.2,284.5c1.4-0.1,2.8-0.3,4.2-0.4c3.9-0.3,7.7-0.6,11.6-0.8c0.5,0,0.8-0.2,1.1-0.5
	c3.2-3.2,6.6-6.2,10.3-8.7c0.6-0.4,1.3-0.9,1.9-1.3c-0.6,0-1.2,0.1-1.9,0.2c-7.5,1.2-14.9,2.8-22.2,4.6c-0.3,0.1-0.7,0.2-0.9,0.5
	c-1.6,2-3.2,4-4.8,6c-0.1,0.2-0.2,0.3-0.4,0.6C142.7,284.5,142.9,284.5,143.2,284.5z M162.2,303.3c-3.5,0.5-7.1,0.4-10.6,0.3
	c-3.1-0.2-6.1-0.4-9.2-0.6c-0.2,0-0.4,0-0.6,0c0.1,1.7,0.3,3.3,0.4,4.9c7.1,1,14.1,1.6,21.1,2c-0.3-2.2-0.6-4.3-0.8-6.5
	C162.4,303.3,162.3,303.2,162.2,303.3z M117.8,288.3c7-1.1,13.9-2.1,20.9-3.2c0.4-0.1,0.6-0.2,0.9-0.5c1.4-1.9,2.8-3.7,4.3-5.5
	c0.1-0.1,0.2-0.3,0.3-0.5c-0.3,0.1-0.5,0.1-0.7,0.2c-2.5,0.7-5,1.3-7.5,2c-5.2,1.4-10.4,2.9-15.6,4.3c-1.2,0.3-2,0.8-2.5,2
	c-0.2,0.4-0.5,0.8-0.8,1.4C117.3,288.3,117.6,288.3,117.8,288.3z M121.3,301c0.2,1.3,0.4,2.5,0.6,3.7c5.9,1.1,11.8,2.2,17.8,2.8
	c0-1.6,0-3.2-0.1-4.9C133.5,302,127.5,301.4,121.3,301z M89.6,296.4c7.2,0.6,14.2,1.2,21.3,1.5c0.7-2.1,1.3-4.2,2-6.3
	C111.8,291.7,90.3,296.1,89.6,296.4z M123,308.8c0.1,0.7,0.6,1,1.2,1.3c4.9,1.7,9.8,3.4,14.8,5.1c0.7,0.3,1.5,0.5,2.3,0.7
	c-0.5-2-0.9-3.9-1.3-5.7c-5.8-0.9-11.5-1.8-17.4-2.8C122.7,307.9,122.9,308.4,123,308.8z M100.1,299.9c6.5,1.4,12.8,2.9,19.3,4.3
	c-0.1-1.1-0.2-2.2-0.3-3.3C112.7,300.6,106.4,300.2,100.1,299.9z M92.3,293.2c0.2,0,0.4-0.1,0.5-0.1c4.7-1,9.4-1.9,14-2.9
	c2.2-0.4,4.4-0.8,6.6-1.2c0.3,0,0.6-0.2,0.7-0.3c0.4-0.7,0.8-1.4,1.3-2.2C110.9,287.3,93.6,292.3,92.3,293.2z M104.1,303.4
	c5.4,1.8,10.9,3.5,16.4,5.3c-0.1-0.4-0.3-0.8-0.3-1.1c-0.1-0.5-0.4-0.7-0.9-0.8c-4.2-1-8.5-1.9-12.7-2.9c-0.8-0.2-1.6-0.3-2.4-0.5
	C104.1,303.3,104.1,303.3,104.1,303.4z"/>
</svg>
