<?xml version="1.0" encoding="utf-8"?>
<!-- Generator: Adobe Illustrator 18.0.0, SVG Export Plug-In . SVG Version: 6.00 Build 0)  -->
<!DOCTYPE svg PUBLIC "-//W3C//DTD SVG 1.1//EN" "http://www.w3.org/Graphics/SVG/1.1/DTD/svg11.dtd">
<svg version="1.1" id="Layer_1" xmlns="http://www.w3.org/2000/svg" xmlns:xlink="http://www.w3.org/1999/xlink" x="0px" y="0px"
	 viewBox="0 0 432 432" enable-background="new 0 0 432 432" xml:space="preserve">
<path fill="#BC936B" d="M286.2,133c-1.2,1.7-4.3,6.4-4.4,5.8c-5.3-1.7-10-6-12.2-10.3c-1.1-2.1-2.5-5.5,1-6.6c3.1-1,7.9,2.6,8.9,4.8
	c0.7-4.3,8.2-7.2,10.3-3.4C291.5,126.5,288.3,130,286.2,133z M319.4,126.4c-2.1-3.8-9.6-0.9-10.3,3.4c-1-2.2-5.8-5.8-8.9-4.8
	c-3.5,1.1-2.1,4.5-1,6.6c2.2,4.3,6.9,8.6,12.2,10.3c0.1,0.6,3.3-4.2,4.4-5.8C317.9,133.2,321.2,129.6,319.4,126.4z M259.7,113.9
	c-2.1-3.8-9.6-0.9-10.3,3.4c-1-2.2-5.8-5.8-8.9-4.8c-3.5,1.1-2.1,4.5-1,6.6c2.2,4.3,6.9,8.6,12.2,10.3c0.1,0.6,3.3-4.2,4.4-5.8
	C258.3,120.6,261.5,117.1,259.7,113.9z M222.8,120.4c-2.1-3.8-9.6-0.9-10.3,3.4c-1-2.2-5.8-5.8-8.9-4.8c-3.5,1.1-2.1,4.5-1,6.6
	c2.2,4.3,6.9,8.6,12.2,10.3c0.1,0.6,3.3-4.2,4.4-5.8C221.3,127.2,224.6,123.6,222.8,120.4z M183.4,126.4c-2.1-3.8-9.6-0.9-10.3,3.4
	c-1-2.2-5.8-5.8-8.9-4.8c-3.5,1.1-2.1,4.5-1,6.6c2.2,4.3,6.9,8.6,12.2,10.3c0.1,0.6,3.3-4.2,4.4-5.8
	C181.9,133.2,185.2,129.6,183.4,126.4z M160.5,233.7c-2.1-3.8-9.6-0.9-10.3,3.4c-1-2.2-5.8-5.8-8.9-4.8c-3.5,1.1-2.1,4.5-1,6.6
	c2.2,4.3,6.9,8.6,12.2,10.3c0.1,0.6,3.3-4.2,4.4-5.8C159.1,240.4,162.3,236.9,160.5,233.7z M308.4,226c-2.1-3.8-9.6-0.9-10.3,3.4
	c-1-2.2-5.8-5.8-8.9-4.8c-3.5,1.1-2.1,4.5-1,6.6c2.2,4.3,6.9,8.6,12.2,10.3c0.1,0.6,3.3-4.2,4.4-5.8
	C307,232.7,310.2,229.2,308.4,226z M117,378.3c1.9-13,2.9-26.2,2.9-39.4c-0.1-2.9-0.2-6-0.2-8.9V328c2.9,0,5.4,0.1,7.9,0
	c1.2,0,2.4-0.3,3.5-0.7c1.4-0.5,2.2-2.1,2-3.5c-0.2-1.4-1.3-2.9-2.9-3.3c-1-0.3-2.1-0.3-3.2-0.3c-1.9-0.1-3.8,0.2-5.6-0.3
	c-5.2-1-10.2-0.3-15.2,0.3c-1.3,0.2-2.6,0.5-3.8,0.9c-2.1,0.8-3,2.6-2.4,4.4c0.5,1.7,1.9,2.8,4,2.8c1.3,0,2.7-0.3,4-0.4
	c1.2-0.3,2.4-0.6,3.8,0c0.3,2.1,0.3,4.3,0.3,6.4c0.1,10.2-0.3,20.3,0.6,30.6c0.1,0.9-0.2,1.9,0,2.8c0.3,4,0.8,7.8,1.2,11.7
	c0.1,0.9,0.4,1.9,1.9,2.2C116.8,381,116.8,379.5,117,378.3z M157.6,321.4c-0.6,1.3-1,2.6-1.2,4c-0.4,4.5-0.8,8.9-1.1,13.4
	c-0.2,2.5-0.2,5.1-0.3,7.8c-2.2,0.3-4.1,1-6.7,0.8v-3.3c0.2-3.1,0.6-6.1,0.6-9.2c-0.1-3.5-0.4-7.2-0.8-10.7
	c-0.3-2.6-1.7-4.6-4.6-5.1c-1.5,0.3-3,0.5-4.2,0.8c-1.7,1-1.9,2.4-1.9,4l0.3,10c0.2,6.1,0.3,12.3,0.4,18.5c0.1,4.3,0.3,8.5,0.3,12.8
	c0.1,3.8,0,7.6,0.7,11.5c0.3,2.2,1.2,4.1,3.5,5.5c2.2-1.3,3.5-3.1,3.5-5.9c0-0.7,0-1.4,0.1-2.1c0.2-4,0.3-8.1,0.5-12
	c0.1-2.4,0.3-5,1-7.3c2.9-0.3,5.5-1.3,8.7-0.8c1.3,8.9,2.4,17.7,5.4,26.4c0.8,0.1,1.3,0.1,2,0.2c0.3-0.7,0.6-1.1,0.7-1.7
	c0.7-4.1,1.5-8.3,1.9-12.5c0.3-4.5,0.1-9,0.1-13.5c0-3.2-0.1-6.4,0-9.6c0-4.8,0-9.5,0.1-14.2c0-1.8,0.2-3.5,0.2-5.3
	c0.1-2.7-0.9-4-3.6-4.9c-0.7-0.2-1.3-0.3-1.9-0.3C159.1,318.8,158.1,319.9,157.6,321.4z M180,334.3c-0.1-2.7-0.5-5.3-0.2-8
	c1.3-0.2,2.3-0.3,3.3-0.4c1-0.3,2-0.4,2.9-0.8c1.1-0.4,1.8-1.4,1.7-2.7c0-1.3-0.7-2.2-1.9-2.9c-2.4-1.4-5-2.1-7.7-1.1
	c-1,0.3-2.2,0.6-3.3,0.8c-2.6,0.8-4,2.5-4,5.2c-0.1,1.9-0.1,3.7-0.1,5.6c0.3,11.7,0.8,23.3,0.3,34.9c-0.3,3.7,0.1,7.4,1.2,11
	c0.1,0.3,0,0.5,0,0.8c-0.3,0.5-0.6,1.1-0.8,1.8c-0.6,2.7,1.3,4.7,4,4.2c0.6-0.1,1.2-0.3,1.6-0.6c2-1.5,4.5-2.1,7-2.5
	c1.2-0.2,2.3-0.9,3.4-1.6c1.1-0.8,1.6-1.9,1.2-3.3c-0.4-1.4-1.4-2.3-2.9-2.5c-1-0.2-2,0-3.1-0.1c-0.7,0-1.3-0.2-1.8-0.2
	c0-7.1,0-13.9-0.1-20.7c0.9-1.1,2.1-1.4,3.4-1.6c1.9-0.4,2.9-1.8,3.7-3.2c1-1.8,0-4-2-4.5c-0.8-0.3-1.6-0.3-2.4-0.2
	c-0.9,0-1.9,0.2-2.9,0.3C179.6,339.4,180.1,336.9,180,334.3z M230.7,340.7c1.1-3.5,1.3-7,0.2-10.4c-2-6-5.6-10.4-12-11.8
	c-4-0.8-7,0.7-8.5,4.4c-0.3,0.8-0.7,1.6-0.8,2.4c-0.3,2.4-0.6,4.8-0.7,7.2c0,9.4,0,18.8,0.1,28.2c0,3.4-0.1,6.8,0.2,10.2
	c0.2,2.7,0.6,5.4,1.3,8c0.7,2.6,2.3,3.8,4.8,3.5c6.9-0.8,12.8-3.9,14.1-11.8c0.5-2.6,0.5-5.4,0.6-8c0.2-4.6-0.6-9.1-4.3-12.7
	C228.1,347,229.7,343.9,230.7,340.7z M216.7,355.5l4.1,0.3c1.5,0.9,1.8,2.3,1.9,3.6c0.1,2.7,0.3,5.4,0,8.1c-0.3,5.1-2.1,6.8-7.8,7.8
	C215.5,368.5,216.1,362.1,216.7,355.5z M217.2,345.7c0-3.8-0.1-7.6-0.1-11.3c-0.1-2.2,0.7-4,2.5-5.6c0.6,0.5,1.3,0.8,1.5,1.3
	c1.9,4.4,1.9,8.8,0.1,13.1c-0.7,1.5-1.9,2.6-3.6,3.5L217.2,345.7z M245.1,334.3c-0.1-2.7-0.5-5.3-0.2-8c1.3-0.2,2.3-0.3,3.3-0.4
	c1-0.3,2-0.4,2.9-0.8c1.1-0.4,1.8-1.4,1.7-2.7c0-1.3-0.7-2.2-1.9-2.9c-2.4-1.4-5-2.1-7.7-1.1c-1,0.3-2.2,0.6-3.3,0.8
	c-2.6,0.8-4,2.5-4,5.2c-0.1,1.9-0.1,3.7-0.1,5.6c0.3,11.7,0.8,23.3,0.3,34.9c-0.3,3.7,0.1,7.4,1.2,11c0.1,0.3,0,0.5,0,0.8
	c-0.3,0.5-0.6,1.1-0.8,1.8c-0.6,2.7,1.3,4.7,4,4.2c0.6-0.1,1.2-0.3,1.6-0.6c2-1.5,4.5-2.1,7-2.5c1.2-0.2,2.3-0.9,3.4-1.6
	c1.1-0.8,1.6-1.9,1.2-3.3c-0.4-1.4-1.4-2.3-2.9-2.5c-1-0.2-2,0-3.1-0.1c-0.7,0-1.3-0.2-1.8-0.2c0-7.1,0-13.9-0.1-20.7
	c0.9-1.1,2.1-1.4,3.4-1.6c1.9-0.4,2.9-1.8,3.7-3.2c1-1.8,0-4-2-4.5c-0.8-0.3-1.6-0.3-2.4-0.2c-0.9,0-1.9,0.2-2.9,0.3
	C244.8,339.4,245.3,336.9,245.1,334.3z M272.5,365.2c0,2.2-0.2,4.3-0.1,6.4c0,1.5,0.1,3,0.4,4.5c0.4,1.9,1.9,3.1,3.5,3.1
	c1.4,0,2.6-1.1,2.9-2.8c0.3-1.2,0.4-2.4,0.4-3.7c0.1-4.4,0.1-8.8,0.1-13.1c-0.1-6.1-0.3-12.3-0.3-18.4c-0.1-4.8-0.8-9.6-1.9-14.3
	c-0.7-2.4-1.7-4.9-3.5-6.8c-3.2-3.4-7.2-3.4-9.7,0.1c-1,1.3-1.7,3-2.2,4.6c-1.4,4.2-1.9,8.7-2.1,13.1c-0.2,5.6-0.7,11.3-1.5,16.8
	c-0.7,4.7-1.3,9.3-1.2,14.1c0,4.6,0.3,9.3,0.7,13.9c0.6,0.3,1,0.6,1.3,0.8c1.8-0.6,1.9-2.1,2.2-3.4l2.8-14.1
	c0.3-1.1,0.5-2.1,0.8-3.3c2.4-0.2,4.6,0,7.2,0.1C272.4,364,272.5,364.6,272.5,365.2z M266.3,355.8c-0.2-0.6-0.3-0.9-0.3-1.3
	c0.5-6.2,0.9-12.4,1.5-18.6c0.3-2.5,0.8-4.9,1.2-7.3c0.1-0.6,0.4-1.1,0.8-2c0.5,1.1,0.9,1.7,1.1,2.4c1,4.9,1.9,9.7,1.5,14.7
	c-0.2,2.6,0.1,5.2,0.1,7.9c0,1.1,0,2.2,0.1,3.8C270,355.5,268.3,355.7,266.3,355.8z M303.5,347.1c1.4-1.5,2.1-3.2,2.1-5.1
	c0.1-3.6,0.2-7.3-0.1-10.9c-0.2-2.2-0.8-4.4-1.7-6.5c-0.6-1.6-1.6-3.1-2.9-4.4c-2.4-2.7-5.7-2.9-8.8-0.8c-1.8,1.1-3.1,2.4-4,4.1
	c-0.9,2-2,4.1-2.4,6.2c-0.8,3.6-1.4,7.3-1.5,10.9c-0.3,9.4-0.3,18.9-0.3,28.3c0,2,0.6,4.1,1.2,6.1c0.7,2.3,2.1,4.3,4.1,5.9
	c1.3,1.1,2.9,1.8,4.8,1.9c3.4,0.1,6.1-1.3,7.4-4.5c1.2-2.9,1.9-6.1,2.7-9.2c0.7-2.4,0.3-4.9-0.3-7.2c-0.2-0.4-0.6-0.8-1.1-1.3
	c-0.5,0.7-1,1.1-1.3,1.7c-0.8,2.4-1.6,4.9-2.4,7.3c-0.6,1.8-1.3,3.5-2.1,5.2c-0.3,0.5-0.8,0.8-1.3,1.2c-1.4-0.6-1.3-1.4-1.3-2.3
	c0-1.8,0.3-3.5,0.2-5.1c-0.3-6.1-0.8-12-1.2-18c-0.2-3.5-0.3-7.1,0-10.6c0.3-3.5,1-6.8,1.7-10.2c0.1-0.6,0.7-1.1,1-1.8
	c1.2,1.1,1.1,2.2,1.2,3.3c0.1,2.1,0,4.2,0,6.2c0,3.6,0.7,7.1,2.2,10.1C301.3,348.6,302.4,348.1,303.5,347.1z M330.1,321.4
	c-0.6,1.3-1,2.6-1.2,4c-0.4,4.5-0.8,8.9-1.1,13.4c-0.2,2.5-0.2,5.1-0.3,7.8c-2.2,0.3-4.1,1-6.7,0.8v-3.3c0.2-3.1,0.6-6.1,0.6-9.2
	c-0.1-3.5-0.4-7.2-0.8-10.7c-0.3-2.6-1.7-4.6-4.6-5.1c-1.5,0.3-3,0.5-4.2,0.8c-1.7,1-1.9,2.4-1.9,4l0.3,10
	c0.2,6.1,0.3,12.3,0.4,18.5c0.1,4.3,0.3,8.5,0.3,12.8c0.1,3.8,0,7.6,0.7,11.5c0.3,2.2,1.2,4.1,3.5,5.5c2.2-1.3,3.5-3.1,3.5-5.9
	c0-0.7,0-1.4,0.1-2.1c0.2-4,0.3-8.1,0.5-12c0.1-2.4,0.3-5,1-7.3c2.9-0.3,5.5-1.3,8.7-0.8c1.3,8.9,2.4,17.7,5.4,26.4
	c0.8,0.1,1.3,0.1,2,0.2c0.3-0.7,0.6-1.1,0.7-1.7c0.7-4.1,1.5-8.3,1.9-12.5c0.3-4.5,0.1-9,0.1-13.5c0-3.2-0.1-6.4,0-9.6
	c0-4.8,0-9.5,0.1-14.2c0-1.8,0.2-3.5,0.2-5.3c0.1-2.7-0.9-4-3.6-4.9c-0.7-0.2-1.3-0.3-1.9-0.3C331.6,318.8,330.6,319.9,330.1,321.4z
	 M330.5,122.7c-0.3,0.2-1.4,1.8-2.4,3.5c-1,1.7-3.1,5.2-4.7,7.9c-1.6,2.6-3.5,6-4.3,7.4c-0.8,1.4-2,3.4-2.7,4.4
	c-1.4,2.3-1.8,3.7-1.1,4.8c0.6,0.9,1.1,1.4,1.1,1.2c0-0.1,0.1-0.1,0.2,0.2c0.3,0.5,2.1,0.5,2.9,0c0.8-0.4,2.5-2.9,5.7-8.5
	c1.3-2.2,3.2-5.4,4.2-7.1c5.1-8.4,5.8-9.8,5.8-11.2c0-0.8-0.1-1.3-0.3-1.4c-0.2-0.1-0.3-0.3-0.3-0.4c0-0.2-0.2-0.4-0.5-0.5
	c-0.3-0.1-0.5-0.3-0.5-0.4s-0.3-0.3-0.6-0.3C332.4,122,331.2,122.2,330.5,122.7z M349.3,135.6c-1,0.1-1.5,0.2-1.9,0.7
	c-0.3,0.3-1.9,2.1-3.5,3.9c-3.1,3.4-9.9,10.5-12.5,12.8c-0.8,0.8-1.4,1.5-1.4,1.7c0,0.2-0.1,0.4-0.3,0.4c-0.2,0-0.3,0.5-0.3,1
	c0,0.6,0.1,1,0.3,1c0.1,0,0.3,0.1,0.3,0.3c0,0.2,0.3,0.6,0.6,0.9c0.5,0.5,0.9,0.7,1.9,0.8c1.2,0.1,1.4,0.1,2.6-0.9
	c2.4-1.8,16.4-16.6,17.4-18.3c0.4-0.7,0.4-2.4,0.1-2.4c-0.2,0-0.3-0.2-0.3-0.3c0-0.4-0.7-1.3-1.3-1.5
	C350.8,135.5,350.1,135.5,349.3,135.6z M357.3,162.1c-5.6,2.5-13.8,5.6-18.1,7c-2.4,0.8-3.7,1.5-3.9,2.2c-0.1,0.3-0.2,0.5-0.4,0.5
	c-0.4,0-0.3,1.6,0.1,2.3c0.6,1.2,1.8,2,2.9,2c1.8,0,22.7-8.1,27.3-10.6c1.5-0.8,2.1-1.9,1.9-3.4c-0.1-1.1-0.6-1.7-1.9-2.5
	C364.5,159.1,363.2,159.5,357.3,162.1z M337,190.2c-1.1-0.1-2.3,0.8-2.9,2c-0.4,0.7-0.4,2.3-0.1,2.3c0.1,0,0.3,0.2,0.3,0.3
	c0,0.5,1,1.3,1.9,1.7c0.4,0.2,4.7,0.5,9.8,0.7c5,0.2,11,0.5,13.3,0.7c2.4,0.2,6.2,0.2,8.6,0.2c4.2-0.1,4.3-0.1,4.8-0.7
	c1.2-1.4,1.5-2.3,0.9-3.4c-1.1-2-1.8-2.2-7-2.2c-2.3,0-5.8-0.1-7.8-0.3c-2-0.1-6.8-0.4-10.8-0.5c-4-0.2-7.9-0.4-8.8-0.5
	C338.4,190.3,337.4,190.2,337,190.2z M330,204.9c-2.2,0-3.8,2.1-3.2,4c0.2,0.5,0.5,1.1,0.7,1.3c0.4,0.5,5.2,3.2,12.2,6.9
	c2.4,1.3,6.3,3.4,8.5,4.7c7.8,4.5,11.2,6.2,12.2,6.2c0.5,0,0.9-0.1,0.9-0.3c0-0.2,0.2-0.3,0.3-0.3c0.2,0,0.6-0.2,1-0.5
	c0.5-0.5,0.6-0.8,0.6-2.1c0-1.4-0.1-1.7-0.8-2.3c-0.4-0.4-1.6-1.2-2.7-1.7c-1-0.6-4.6-2.5-7.8-4.3c-3.2-1.8-9.3-5.2-13.6-7.5
	C333.4,206.3,330.6,204.9,330,204.9z M317.5,221.2c0,0.1-0.2,0.3-0.4,0.3s-0.6,0.2-0.9,0.5c-0.3,0.3-0.5,0.7-0.5,0.9
	s-0.1,0.4-0.3,0.4c-0.4,0-0.3,1.4,0.1,2.1c0.7,1.2,1.3,1.6,6.4,4.2c4.8,2.4,11.8,6.2,19.2,10.3c4.1,2.3,10,5.1,10.8,5.1
	c1.1,0,2.7-1.1,2.7-1.9c0-0.2,0.1-0.4,0.3-0.4c0.4,0,0.3-1.3-0.1-2.2c-0.6-1.1-0.8-1.3-4.8-3.3c-2-1-7.3-3.8-11.8-6.3
	c-4.6-2.5-10.7-5.7-13.6-7.2C319.5,221.1,317.5,220.4,317.5,221.2z M99.3,122.2c-0.3,0.1-0.6,0.2-0.6,0.3s-0.2,0.3-0.5,0.4
	c-0.3,0.1-0.5,0.3-0.5,0.5c0,0.2-0.1,0.4-0.3,0.4c-0.2,0.1-0.3,0.6-0.3,1.4c0,1.3,0.8,2.7,5.8,11.2c1,1.7,2.9,4.9,4.2,7.1
	c3.3,5.6,5,8.1,5.7,8.5c0.8,0.5,2.6,0.4,2.9,0c0.1-0.2,0.2-0.3,0.2-0.2c0,0.3,0.6-0.3,1.1-1.2c0.7-1,0.4-2.5-1.1-4.8
	c-0.7-1-1.9-3.1-2.7-4.4c-0.8-1.4-2.7-4.7-4.3-7.4c-1.6-2.7-3.7-6.2-4.7-7.9c-1-1.7-2-3.3-2.4-3.5C101.3,122.2,100.1,122,99.3,122.2
	z M81.4,135.6c-0.5,0.2-1.3,1.1-1.3,1.5c0,0.2-0.1,0.3-0.3,0.3c-0.4,0-0.3,1.7,0.1,2.4c1,1.7,15,16.5,17.4,18.3c1.2,1,1.4,1,2.6,0.9
	c1-0.1,1.4-0.3,1.9-0.8c0.3-0.4,0.6-0.8,0.6-0.9c0-0.1,0.1-0.3,0.3-0.3c0.2,0,0.3-0.5,0.3-1c0-0.6-0.1-1-0.3-1
	c-0.1,0-0.3-0.2-0.3-0.4c0-0.2-0.7-0.9-1.4-1.7c-2.6-2.4-9.4-9.4-12.5-12.8c-1.6-1.8-3.2-3.6-3.5-3.9c-0.4-0.5-0.9-0.6-1.9-0.7
	C82.4,135.5,81.6,135.5,81.4,135.6z M67.1,159.7c-1.2,0.8-1.7,1.4-1.9,2.5c-0.2,1.5,0.4,2.6,1.9,3.4c4.5,2.5,25.5,10.6,27.3,10.6
	c1.2,0,2.3-0.8,2.9-2c0.4-0.7,0.5-2.3,0.1-2.3c-0.1,0-0.3-0.2-0.4-0.5c-0.2-0.7-1.4-1.4-3.9-2.2c-4.2-1.4-12.4-4.6-18.1-7
	C69.2,159.5,67.9,159.1,67.1,159.7z M93.2,190.4c-0.8,0.1-4.8,0.3-8.8,0.5c-4,0.2-8.8,0.4-10.8,0.5c-2,0.1-5.5,0.3-7.8,0.3
	c-5.2,0-5.9,0.2-7,2.2c-0.6,1.1-0.4,2,0.9,3.4c0.6,0.6,0.6,0.6,4.8,0.7c2.3,0.1,6.2,0,8.6-0.2c2.4-0.2,8.4-0.5,13.3-0.7
	c5.1-0.2,9.4-0.5,9.8-0.7c0.9-0.4,1.9-1.2,1.9-1.7c0-0.2,0.1-0.3,0.3-0.3c0.4,0,0.3-1.6-0.1-2.3c-0.6-1.2-1.8-2-2.9-2
	C95.1,190.2,94.1,190.3,93.2,190.4z M93.9,209.1c-4.3,2.3-10.4,5.7-13.6,7.5c-3.2,1.8-6.7,3.7-7.8,4.3c-1,0.6-2.2,1.3-2.7,1.7
	c-0.7,0.6-0.8,0.8-0.8,2.3c0,1.3,0.1,1.7,0.6,2.1c0.3,0.3,0.8,0.5,1,0.5c0.2,0,0.3,0.1,0.3,0.3c0,0.1,0.4,0.3,0.9,0.3
	c1,0,4.3-1.7,12.2-6.2c2.2-1.3,6.1-3.4,8.5-4.7c7-3.7,11.8-6.4,12.2-6.9c0.2-0.2,0.6-0.8,0.7-1.3c0.7-1.9-1-4-3.2-4
	C101.9,204.9,99,206.3,93.9,209.1z M108,223.6c-2.9,1.5-9.1,4.7-13.6,7.2c-4.6,2.5-9.9,5.3-11.8,6.3c-4,2-4.2,2.2-4.8,3.3
	c-0.4,0.9-0.5,2.2-0.1,2.2c0.2,0,0.3,0.2,0.3,0.4c0,0.8,1.6,1.9,2.7,1.9c0.8,0,6.6-2.8,10.8-5.1c7.3-4.1,14.4-7.9,19.2-10.3
	c5.1-2.6,5.7-2.9,6.4-4.2c0.4-0.7,0.4-2.1,0.1-2.1c-0.1,0-0.3-0.2-0.3-0.4s-0.2-0.6-0.5-0.9s-0.7-0.5-0.9-0.5
	c-0.2,0-0.4-0.1-0.4-0.3C115,220.4,113,221.1,108,223.6z M156,204c3.9-2.3,5.8-5.1,5.8-8.3c0-2.6-1.2-4.8-3.5-6.6
	c-1.4-1.1-3.2-2-5.4-2.6c-1-0.3-1.5-0.6-1.5-1c0-0.4,0.4-1,1.1-1.8c4.7-4.6,7.1-10.7,7.1-18.1c0-6.1-2.2-10.7-6.5-13.7
	c-3.7-2.6-8-3.9-12.9-3.9c-4.7,0-7,2.2-7,6.6v45c0,5.2,2.4,7.8,7.3,7.8C147,207.5,152.1,206.4,156,204z M142.6,184.5v-29.1
	c0-0.8,0.4-1.2,1.3-1.3c1.3,0,2.5,0.2,3.6,0.6c2.2,0.9,3.8,2.6,4.8,5.3c0.7,1.8,1,3.8,1,5.9c0,3.8-0.8,7.4-2.5,10.9
	c-1.3,2.6-2.6,4.7-3.9,6.2c-1.4,1.5-2.5,2.2-3.3,2.2C142.9,185.3,142.6,185,142.6,184.5z M142.6,199.6v-7.2c0-1.2,0.8-1.8,2.4-1.8
	c3.2,0,5.8,0.4,7.6,1.3c1.9,0.9,2.8,2.1,2.8,3.8c0,1.7-0.9,3.1-2.7,4.2c-1.8,1.1-4.5,1.7-8.2,1.7
	C143.2,201.4,142.6,200.8,142.6,199.6z M189.2,206.5c1.6-0.7,2.4-1.7,2.4-2.9c0-0.6-0.2-1.1-0.7-1.4c-0.5-0.3-1.1-0.5-1.7-0.5
	c-1,0-2,0-3,0.1c-1,0.1-2,0.1-3,0.1c-3.1,0-5.2-0.8-6.3-2.3c-0.7-1-1-2.5-1-4.4v-1.8c0-1.1,0.6-1.6,1.8-1.6l7.9,0.1
	c0.9,0,1.6-0.2,2.1-0.6c0.5-0.4,0.8-1,0.8-1.6c0-1.1-0.4-1.8-1.1-2.3c-0.6-0.4-1.6-0.6-2.9-0.6c-1.1,0-2.1,0-3.2,0.1
	c-1.1,0.1-2.2,0.1-3.2,0.1c-0.7,0-1.2-0.2-1.6-0.5c-0.4-0.3-0.5-1.1-0.5-2.3v-27.1c0-2,0.9-3.1,2.7-3.1c1,0,1.9,0,2.9,0.1
	c1,0,2,0.1,2.9,0.1c1.3,0,2.4-0.3,3-0.8c0.7-0.6,1-1.1,1-1.7c0-1.7-1.1-2.6-3.2-2.9c-0.9-0.1-1.7-0.2-2.4-0.2h-10.3
	c-3,0-4.9,1.2-5.6,3.7c-0.3,1.2-0.5,2.6-0.5,4.2v32c0,2.5,0.1,4.8,0.3,7.1c0.5,5,2.4,8.4,5.9,10.2c1.9,1,4.6,1.5,8.1,1.5
	C184.8,207.5,187.6,207.2,189.2,206.5z M209.9,155.1c0-0.6,0.3-0.9,0.9-0.9h4.1c1.3,0,2.2-0.3,2.8-0.8c0.7-0.5,1-1.1,1-1.7
	c0-0.9-0.3-1.6-0.9-2.1c-0.6-0.4-1.4-0.7-2.2-0.8c-0.9-0.1-1.7-0.2-2.4-0.2h-16c-0.7,0-1.5,0.1-2.4,0.2c-0.9,0.1-1.6,0.4-2.2,0.8
	c-0.6,0.4-0.9,1.1-0.9,2.1c0,0.6,0.3,1.2,1,1.7c0.6,0.5,1.6,0.8,2.8,0.8h4.2c0.6,0,0.9,0.3,0.9,0.9v45.8c0,1.9,0.1,3.2,0.5,4.1
	c0.2,0.6,0.5,1.1,1,1.6c0.6,0.7,1.6,1,3.1,1c3.2,0,4.8-2.1,4.8-6.4V155.1z M240.5,155.1c0-0.6,0.3-0.9,0.9-0.9h4.1
	c1.3,0,2.2-0.3,2.8-0.8c0.7-0.5,1-1.1,1-1.7c0-0.9-0.3-1.6-0.9-2.1c-0.6-0.4-1.4-0.7-2.2-0.8c-0.9-0.1-1.7-0.2-2.4-0.2h-16
	c-0.7,0-1.5,0.1-2.4,0.2c-0.9,0.1-1.6,0.4-2.2,0.8c-0.6,0.4-0.9,1.1-0.9,2.1c0,0.6,0.3,1.2,1,1.7c0.6,0.5,1.6,0.8,2.8,0.8h4.2
	c0.6,0,0.9,0.3,0.9,0.9v45.8c0,1.9,0.1,3.2,0.5,4.1c0.2,0.6,0.5,1.1,1,1.6c0.6,0.7,1.6,1,3.1,1c3.2,0,4.8-2.1,4.8-6.4V155.1z
	 M274.4,206.5c1.6-0.7,2.4-1.7,2.4-2.9c0-0.6-0.2-1.1-0.7-1.4s-1.1-0.5-1.7-0.5c-1,0-2,0-3,0.1c-1,0.1-2,0.1-3,0.1
	c-3.1,0-5.2-0.8-6.3-2.3c-0.7-1-1-2.5-1-4.4v-1.8c0-1.1,0.6-1.6,1.8-1.6l7.9,0.1c0.9,0,1.6-0.2,2.1-0.6s0.8-1,0.8-1.6
	c0-1.1-0.4-1.8-1.1-2.3c-0.6-0.4-1.6-0.6-2.9-0.6c-1.1,0-2.1,0-3.2,0.1c-1.1,0.1-2.2,0.1-3.2,0.1c-0.7,0-1.2-0.2-1.6-0.5
	c-0.4-0.3-0.5-1.1-0.5-2.3v-27.1c0-2,0.9-3.1,2.7-3.1c1,0,1.9,0,2.9,0.1c1,0,2,0.1,2.9,0.1c1.3,0,2.4-0.3,3-0.8c0.7-0.6,1-1.1,1-1.7
	c0-1.7-1.1-2.6-3.2-2.9c-0.9-0.1-1.7-0.2-2.4-0.2h-10.3c-3,0-4.9,1.2-5.6,3.7c-0.3,1.2-0.5,2.6-0.5,4.2v32c0,2.5,0.1,4.8,0.3,7.1
	c0.5,5,2.4,8.4,5.9,10.2c1.9,1,4.6,1.5,8.1,1.5C270,207.5,272.8,207.2,274.4,206.5z M306.1,206.8c0.6-0.5,0.9-1.2,0.9-2.2
	c0-1.3-2.2-4.7-6.5-10.2c-0.6-0.8-1.2-1.6-1.9-2.4c-1.8-2.1-2.7-3.3-2.7-3.6c0-0.2,0.1-0.3,0.3-0.5c3.7-2.4,6.5-5.8,8.4-10.2
	c1.5-3.7,2.3-7.8,2.3-12.2c0-6.1-2.2-10.7-6.5-13.7c-3.7-2.5-8.2-3.8-13.3-3.8c-4.4,0-6.6,2.2-6.6,6.6v46.1c0,1.1,0.1,2.2,0.2,3.2
	c0.2,1,0.5,1.9,1.2,2.5c0.6,0.7,1.6,1,3.1,1c3.2,0,4.8-2.1,4.8-6.4v-9.5c0-0.9,0.1-1.4,0.3-1.4c0.1,0,0.5,0.3,1,1
	c2.9,4.9,5.3,8.8,7.3,11.9c1.9,2.9,3.6,4.4,5.4,4.4C304.8,207.5,305.5,207.3,306.1,206.8z M289.7,183.9v-28.5c0-0.8,0.4-1.2,1.3-1.3
	c4.1,0,6.9,1.9,8.4,5.8c0.7,1.8,1,3.8,1,6c0,3.2-0.5,6.3-1.5,9.3c-0.9,2.7-2.2,5-3.9,7c-1.8,2-3.1,3-4.2,3
	C290.1,185.3,289.7,184.8,289.7,183.9z"/>
<path fill="#6F91BD" d="M111.1,98.3c3.6,0,6.2-0.1,9,0c4.7,0.1,9.1,1.8,12.8,5c2.3,1.9,3.2,4.5,2.3,7c-0.8,2.5-3.2,4.1-6.2,4
	c-1.9-0.1-3.9-0.6-5.8-1c-7.3-1.9-14.3-1.9-21.4,1c-4.7,1.8-6.6,0.4-8.7-5.5c0.3-0.8,0.4-1.8,0.8-2.9c0.1-0.8,0.6-1.7,0.7-2.1
	c-3-14.2-3.9-28-2.9-41.9c0.8-14.6,2.1-29.2,3.2-44c0.1-1.5,0.3-3,0.7-4.5c1.5-5,6.5-6.1,10.3-2.3c2.2,2.1,3.6,4.5,3.9,7.6
	c0.4,5.1,0.7,10.1,0.8,15.2c0.1,16.7-1.2,33.4,0.3,50.2c0.3,2.8,0,5.7,0,8.5C111,94.2,111.1,96,111.1,98.3z M140.8,13.3
	c2.5-1,4.7-1.9,6.8-2.8c5.1,1.4,6.5,2.8,6.9,7c0.1,1.1,0.1,2.2,0,3.3c-2.1,20-1.8,40-1.7,59.9c0.1,9.1-0.7,18.2-1.1,27.1
	c-0.1,1.5-0.8,3-1.2,4.8l-4.7,0.4c-0.8-1.8-1.8-3.3-2.3-5c-2.5-7.3-4-14.9-4.5-22.6c-0.6-8.4-1.4-16.8-2.1-25.2
	c-1.1-11.3-1.9-22.6-0.4-33.9C136.9,22,137.6,17.6,140.8,13.3z M174.7,23c-0.7,5.2,0,18.7,1.1,22.6c3-0.6,6.1-1,9.1-1.5
	c1.9-0.4,3.7-0.4,5.7,0.4c2.9,1.4,4.4,4.3,3.3,7c-1.2,3.3-3.3,5.4-7.2,5.7c-3.6,0.3-7.3,1-11.2,1.4c0,1.9,0,3.6-0.1,5.1l-0.8,44.8
	c0,2.2-0.1,4.4-1.8,6.3c-2.9-0.4-4.8-2.1-6.1-4.8c-2.3-5-3.6-10.2-3.9-15.4c-0.1-6.6-0.6-13.2-0.7-19.7c-0.3-8.7-0.7-17.2-0.7-25.8
	c0.3-10.8,0.8-21.2,1.4-31.8c0-1.2,0.3-2.6,0.6-3.9c0.8-2.3,2.6-4,5.4-3.9c5.9,0.4,11.8-1,17.9,0.3c0.8,0.1,1.5,0.1,2.3,0.4
	c3.9,0.8,5.9,3,6.3,6.6c0.3,3.4-1.4,5.8-5.1,6.5c-2.9,0.4-6.1,0.3-9,0.3C179.2,23.5,177.1,23.2,174.7,23z M218.4,48.3
	c1.6-0.1,3.2-0.4,4.7-0.4c1.2-0.1,2.6-0.1,3.9,0.3c3.3,1,5,4.5,3.3,7.4c-1.2,2.3-3,4.5-6.1,5.2c-2.1,0.3-4,0.8-5.5,2.6
	c0.1,11.2,0.1,22.3,0.1,33.9c0.8,0,1.8,0.3,2.9,0.3c1.8,0.1,3.4-0.1,5.1,0.1c2.3,0.4,4,1.8,4.7,4.1c0.7,2.3-0.1,4.1-1.9,5.4
	c-1.8,1.1-3.6,2.3-5.5,2.6c-4.1,0.7-8.1,1.7-11.4,4.1c-0.7,0.6-1.7,0.8-2.6,1c-4.4,0.8-7.6-2.5-6.6-6.9c0.3-1.1,0.8-2.1,1.2-2.9
	c0-0.6,0.1-1,0-1.4c-1.8-5.9-2.3-12-1.9-18.1c1-19,0.1-38-0.4-57.2c0-3,0-6.1,0.1-9.1c0.1-4.4,2.3-7.3,6.6-8.5
	c1.8-0.4,3.7-0.8,5.4-1.4c4.5-1.7,8.7-0.6,12.7,1.8c1.9,1.1,3,2.6,3,4.7c0.1,2.1-1,3.7-2.8,4.4c-1.5,0.7-3.2,1-4.8,1.4
	c-1.7,0.3-3.3,0.4-5.4,0.7c-0.6,4.4,0.1,8.7,0.3,13.1C217.7,39.8,216.8,43.9,218.4,48.3z M270,13.3c2.5-1,4.7-1.9,6.8-2.8
	c5.1,1.4,6.5,2.8,6.9,7c0.1,1.1,0.1,2.2,0,3.3c-2.1,20-1.8,40-1.7,59.9c0.1,9.1-0.7,18.2-1.1,27.1c-0.1,1.5-0.8,3-1.2,4.8l-4.7,0.4
	c-0.8-1.8-1.8-3.3-2.3-5c-2.5-7.3-4-14.9-4.5-22.6c-0.6-8.4-1.4-16.8-2.1-25.2c-1.1-11.3-1.9-22.6-0.4-33.9
	C266.2,22,266.9,17.6,270,13.3z M322.3,43.1c-0.8-0.8-2.2-2.1-2.9-3.4c-1.8-3.9-4.3-7.7-4.5-11.9c-0.1-2.3-0.7-4.8-4-6.7
	c-1,0.8-2.3,1.4-2.6,2.2c-0.6,1.9-0.8,4-0.4,5.9c0.3,2.2,1.4,4.4,2.5,6.5c2.1,3.4,4.1,7,6.6,10.3c6.1,8,10.1,16.7,12,25.5
	c2.8,11.4,2.6,22.9-1.4,33.8c-0.6,1.5-1.2,3-2.3,4.4c-3.3,4.4-9.4,5.6-15.8,3c-2.3-1-4.5-2.2-6.5-3.7c-5.2-3.9-8.4-8.5-9.9-13.9
	c-2.2-8-2.8-15.8-1.7-23.7c0.4-3.3,1.8-6.2,3.7-9.1c1.5-2.2,3.7-3.9,7.3-4.1c4,0.7,5.7,3,6.2,5.8c0.4,1.7,0.3,3.3,0.1,5
	c-0.3,5-0.8,9.8-0.8,14.7c-0.1,3.4,0.3,7,0.7,10.5c0.3,2.2,1.4,4.3,4.7,5.5c2.9-2.1,3.7-4.8,4-7.7c0.6-6.6-0.6-13.2-2.3-19.8
	c-3-11-9.6-21.1-17.1-30.9c-2.5-3.3-4.5-6.8-5.5-10.5c-1.7-7.7,1.5-13.8,7.6-18.9c3.9-3.2,10.8-3.4,16.4-1.1
	c4.1,1.8,7.2,4.3,9.4,7.3c3.9,5.8,5.6,11.7,5.8,17.9c0.1,2.2-0.6,4.4-2.3,6.1C327.5,43.5,325.6,44.2,322.3,43.1z M279.3,272.9
	c0.1,0.3,0.3,0.7,0.5,0.7c0.1,0,0.1,0,0.1,0.1c0,0,0.3,0.1,0.7,0.2c0.4,0,1.3,0.2,2,0.3c3.6,0.6,6.9,0.9,10.5,0.8
	c6.5-0.2,10.6-0.7,14-2c2.5-1,4.5-2.4,6.4-4.7c1.4-1.7,2.7-4.4,3-6.3c0.1-0.3,0.1-1.3,0.1-2.1c0-1.3-0.1-1.6-0.3-2.4
	c-0.5-1.6-1.3-3-2.7-4.6c-1.3-1.4-2.5-2.3-4.3-3c-0.9-0.3-1.9-0.6-2.9-0.7c-0.6-0.1-2.4,0-3.1,0.2c-3.5,0.7-5.9,2.6-7.3,5.6
	c-0.5,1.1-0.8,2.1-0.8,3.4c0,1,0,1.2,0.2,2c0.6,2.4,2,4.1,3.9,4.9c3,1.2,5.8,1,8.2-0.7c1-0.7,1.2-1.1,1.1-1.6
	c-0.1-0.4-0.3-0.7-0.5-0.7c-0.1,0-0.1,0-0.1-0.1c-0.1-0.2-0.8-0.1-1.2,0.1c-1.5,1-2.1,1.3-3.5,1.5c-0.9,0.1-1.1,0.1-2.1-0.2
	c-1.4-0.4-2-0.8-2.8-1.8c-0.5-0.6-0.5-0.6-0.5-1.3c0-1,0.3-1.6,1.2-2.5c1.1-1.1,1.6-1.4,3.2-2.2c2.1-1.1,2.6-1.2,4.8-1.2
	c1.7,0,1.8,0,2.6,0.3c0.7,0.2,1.5,0.6,2.9,1.2c0.4,0.2,1.2,1,1.4,1.3c0.1,0.2,0.2,0.6,0.2,0.8c0,0.2,0.1,0.8,0.1,1.3l0.1,0.9
	l-0.6,1.1c-1.1,2.3-2.6,3.6-6.3,5.4c-2.7,1.3-7.8,2.9-11.3,3.4c-3.8,0.6-8.5,0.9-13.4,1.1c-1.5,0-2.8,0.1-2.9,0.2
	C279.6,271.7,279.2,272.4,279.3,272.9z M318.7,277.3c2.1-0.5,4.4-1.6,5.8-3c1.9-1.9,2.1-4.8,0.4-6.5c-0.6-0.6-1-0.9-1.6-1.1
	c-1.4-0.5-2.7,0.1-3.6,1.8c-0.7,1.3-1.2,2-1.6,2.5c-0.6,0.6-1.8,1.5-2.8,2c-0.9,0.5-3.1,1.2-3.8,1.3c-0.6,0.1-0.9,0.3-1,0.6
	c0,0.1-0.1,0.2-0.1,0.2c-0.1,0-0.1,0.5,0,1c0.1,0.4,0.5,0.8,0.9,0.9c0.2,0,1,0.2,1.7,0.3C314.8,277.5,317.4,277.5,318.7,277.3z
	 M311,280.7c2.2,1.1,3.8,2.4,4.8,4.2c0.5,0.8,0.7,1.5,0.9,2.7c0.2,1.2,0.4,1.7,0.9,2.3c1.2,1.2,2.9,1.2,4.2-0.1
	c0.9-0.9,1.4-2,1.4-3.5c0-1.8-0.4-2.9-1.6-4.2c-0.9-0.9-2-1.7-3.5-2.5c-1.7-0.9-3-1.3-5-1.6c-1.3-0.2-2.7-0.2-2.7-0.1
	c0,0-0.1,0.1-0.1,0.1c-0.2,0-0.6,0.4-0.8,0.7c-0.2,0.3-0.2,0.8,0,0.8c0,0,0.1,0.1,0.1,0.1C309.6,280,310,280.3,311,280.7z
	 M279.7,282.4c-0.2,0.3-0.3,0.9-0.2,0.9c0,0,0.1,0.1,0.1,0.3c0.1,0.4,0.3,0.7,0.5,0.7c0.1,0,0.1,0,0.1,0.1c0,0.1,0.4,0.1,1.1,0.1
	c0.6,0,1.8,0.1,2.7,0.2c0.9,0.1,2.4,0.2,3.4,0.3c2.2,0.2,4,0.4,6.4,0.9c4.6,0.8,8.2,2,11.6,3.8c1.6,0.9,2.5,1.5,3.5,2.5
	c2.1,2,2.8,3.9,2.9,6.9c0,1,0,1.1-0.3,1.5c-0.6,1-2,1.9-3.6,2.5c-0.9,0.3-0.9,0.3-2.8,0.3c-1.7,0-2,0-2.7-0.2
	c-1.4-0.4-2.3-0.9-3.1-1.8c-0.4-0.4-0.8-0.9-0.9-1c-0.2-0.2-0.2-0.3,0-0.6c0.2-0.5,1.6-1.7,2.1-2c0.7-0.3,1.5-0.5,3.1-0.6
	c0.7-0.1,1.4-0.1,1.6-0.1c0.5-0.1,1.1-0.3,1.1-0.4c0,0,0.1-0.2,0.2-0.2c0.2-0.2,0.1-0.8-0.3-1.1c-0.4-0.4-0.8-0.4-2.7-0.4
	c-3,0.1-4.5,0.7-6.3,2.6c-0.9,0.9-1.2,1.6-1.4,2.8c-0.2,1.4,0,2.7,0.7,4.1c1.4,3,3.8,4.3,7.8,4.3c2.9,0,4.7-0.6,6.4-2.2
	c0.3-0.3,0.8-0.9,1-1.3c0.3-0.4,0.6-1,0.8-1.3c0.3-0.5,0.8-1.5,1.2-2.6c0.6-1.6,0.3-5.1-0.5-7.6c-0.5-1.3-1.4-3.3-2-4.2
	c-1.4-2.1-3.7-4.3-5.6-5.4c-1.2-0.7-3-1.4-4.5-1.7c-2-0.5-5.4-0.9-7.8-1c-1.9-0.1-7.1,0-8.7,0.1c-2.3,0.2-4.1,0.4-4.4,0.5
	C280.1,282.1,279.8,282.2,279.7,282.4z M141.9,271.6c-0.1,0-1.4-0.1-2.9-0.2c-4.8-0.1-9.6-0.5-13.4-1.1c-3.5-0.5-8.6-2.1-11.3-3.4
	c-3.6-1.8-5.2-3.1-6.3-5.4l-0.6-1.1l0.1-0.9c0-0.5,0.1-1,0.1-1.3c0-0.2,0.1-0.6,0.2-0.8c0.2-0.4,1-1.1,1.4-1.3
	c1.4-0.6,2.2-1,2.9-1.2c0.8-0.3,0.9-0.3,2.6-0.3c2.2,0,2.7,0.1,4.8,1.2c1.7,0.8,2.1,1.2,3.2,2.2c0.9,0.9,1.2,1.5,1.2,2.5
	c0,0.7,0,0.7-0.5,1.3c-0.8,1-1.4,1.4-2.8,1.8c-1,0.3-1.3,0.3-2.1,0.2c-1.3-0.2-2-0.4-3.5-1.5c-0.4-0.3-1.1-0.4-1.2-0.1
	c0,0.1-0.1,0.1-0.1,0.1c-0.2,0-0.4,0.4-0.5,0.7c-0.1,0.5,0.2,0.9,1.1,1.6c2.4,1.7,5.3,2,8.2,0.7c1.9-0.8,3.3-2.6,3.9-4.9
	c0.2-0.8,0.2-1.1,0.2-2c-0.1-1.3-0.3-2.3-0.8-3.4c-1.5-3-3.8-4.9-7.3-5.6c-0.7-0.2-2.5-0.3-3.1-0.2c-1,0.1-2.1,0.4-2.9,0.7
	c-1.8,0.7-3,1.5-4.3,3c-1.4,1.6-2.2,3-2.7,4.6c-0.2,0.7-0.2,1.1-0.3,2.4c0,0.8,0,1.8,0.1,2.1c0.3,1.9,1.6,4.6,3,6.3
	c1.9,2.3,3.8,3.7,6.4,4.7c3.5,1.3,7.5,1.9,14,2c3.6,0.1,7-0.2,10.5-0.8c0.8-0.1,1.7-0.3,2-0.3c0.4-0.1,0.7-0.1,0.7-0.2
	c0,0,0.1-0.1,0.1-0.1c0.2,0,0.4-0.4,0.5-0.7C142.8,272.4,142.4,271.7,141.9,271.6z M109.1,277.3c0.8-0.1,1.5-0.2,1.7-0.3
	c0.5-0.1,0.8-0.5,0.9-0.9c0.1-0.5,0.1-1,0-1c0,0-0.1-0.1-0.1-0.2c-0.1-0.3-0.5-0.5-1-0.6c-0.7-0.1-2.9-0.9-3.8-1.3
	c-1-0.5-2.2-1.3-2.8-2c-0.5-0.5-1-1.2-1.6-2.5c-0.9-1.6-2.2-2.3-3.6-1.8c-0.5,0.2-0.9,0.5-1.6,1.1c-1.7,1.7-1.5,4.6,0.4,6.5
	c1.4,1.4,3.6,2.5,5.8,3C104.6,277.5,107.2,277.5,109.1,277.3z M112.4,279.7c0-0.1,0-0.1,0.1-0.1c0.1,0,0.1-0.5,0-0.8
	c-0.2-0.3-0.6-0.7-0.8-0.7c-0.1,0-0.1,0-0.1-0.1c0-0.2-1.4-0.1-2.7,0.1c-1.9,0.3-3.2,0.7-5,1.6c-1.5,0.8-2.6,1.5-3.5,2.5
	c-1.2,1.3-1.6,2.4-1.6,4.2c0,1.4,0.5,2.6,1.4,3.5c1.3,1.2,3.1,1.2,4.2,0.1c0.5-0.6,0.7-1.1,0.9-2.3c0.2-1.2,0.4-1.9,0.9-2.7
	c1-1.8,2.6-3.1,4.8-4.2C112,280.3,112.4,280,112.4,279.7z M141.8,282c-0.3-0.1-2.1-0.3-4.4-0.5c-1.6-0.1-6.8-0.2-8.7-0.1
	c-2.5,0.1-5.9,0.6-7.8,1c-1.5,0.3-3.3,1-4.5,1.7c-1.9,1.1-4.1,3.3-5.6,5.4c-0.6,0.9-1.6,2.9-2,4.2c-0.8,2.4-1.1,5.9-0.5,7.6
	c0.4,1.1,0.8,2.1,1.2,2.6c0.2,0.3,0.5,0.9,0.8,1.3c0.3,0.4,0.7,1,1,1.3c1.7,1.6,3.5,2.2,6.4,2.2c4,0,6.4-1.3,7.8-4.3
	c0.7-1.4,0.9-2.7,0.7-4.1c-0.2-1.2-0.5-1.8-1.4-2.8c-1.8-1.9-3.2-2.5-6.3-2.6c-1.9-0.1-2.3,0-2.7,0.4c-0.4,0.3-0.5,0.9-0.3,1.1
	c0.1,0.1,0.2,0.2,0.2,0.2c0,0.1,0.6,0.4,1.1,0.4c0.2,0,1,0.1,1.6,0.1c1.5,0.1,2.4,0.3,3.1,0.6c0.6,0.3,1.9,1.5,2.1,2
	c0.2,0.3,0.2,0.3,0,0.6c-0.1,0.1-0.5,0.6-0.9,1c-0.9,0.9-1.8,1.4-3.1,1.8c-0.7,0.2-1,0.2-2.7,0.2c-1.9,0-1.9,0-2.8-0.3
	c-1.6-0.6-3-1.5-3.6-2.5c-0.3-0.5-0.3-0.5-0.3-1.5c0-3.1,0.8-4.9,2.9-6.9c1-1,1.9-1.6,3.5-2.5c3.4-1.8,7-3,11.6-3.8
	c2.4-0.4,4.2-0.7,6.4-0.9c1-0.1,2.6-0.2,3.4-0.3c0.9-0.1,2.1-0.2,2.7-0.2c0.7,0,1.1-0.1,1.1-0.1c0-0.1,0.1-0.1,0.1-0.1
	c0.2,0,0.4-0.4,0.5-0.7c0-0.2,0.1-0.3,0.1-0.3c0.1,0,0-0.6-0.2-0.9C142.2,282.2,141.9,282.1,141.8,282z M178.1,286.4
	c-0.4,1.8-0.8,3.5-1.1,4.9c-0.9,4.3-5,6.4-12.2,6.4c-6.1,0-9.2-1.7-9.2-5.1c0-0.8,0.5-3.2,1.5-7.2c1-4,2.5-9.4,4.6-16.3
	c3.5-11.6,7.6-21.2,12.4-28.8c4-6.6,9.7-9.8,16.9-9.8c5.9,0,10.7,1.8,14.5,5.4c2.3,2.3,4.6,5.6,6.8,9.9c5.8,11.5,10.7,25.1,14.7,41
	c0.5,2.1,0.8,3.8,0.8,5.1c0,1.6-0.3,2.8-1,3.7c-1.1,1.5-3.2,2.2-6.3,2.2c-3.8,0-6-1.4-6.6-4.1c-0.8-3.8-1.6-7.6-2.6-11.5
	c-0.3-1.4-1.9-2.1-4.8-2.1h-22.8c-2.6,0-4.1,0.7-4.5,2.2C178.9,283.2,178.5,284.6,178.1,286.4z M205.3,274.5c2.3,0,3.4-0.6,3.4-1.8
	c0-0.3-0.8-3.3-2.5-8.9c-4.5-15.2-8.2-22.8-10.9-22.8c-1.9,0-5.3,7.5-10.3,22.6c-2,5.9-2.9,9-2.9,9.2c0,1.1,1.1,1.6,3.4,1.6H205.3z
	 M261,290.5c0,4.8-3.5,7.2-10.4,7.2c-3.1,0-5.2-0.4-6.6-1.1c-0.9-0.5-1.6-1.1-2-1.8c-0.7-1-1-2.6-1-4.7v-51.8c0-0.7-0.6-1-1.9-1
	h-8.9c-2.7,0-4.7-0.3-6.1-0.9c-1.4-0.6-2.1-1.2-2.1-1.9c0-1.1,0.7-1.8,2-2.3c1.3-0.5,2.9-0.8,4.8-0.9c1.9-0.1,3.5-0.2,5.1-0.2h34.2
	c1.5,0,3.2,0.1,5.1,0.2c1.9,0.1,3.5,0.4,4.8,0.9c1.3,0.5,2,1.3,2,2.3c0,0.7-0.7,1.3-2.1,1.9c-1.4,0.6-3.4,0.9-6.1,0.9H263
	c-1.3,0-2,0.3-2,1V290.5z M218.1,417.5c1.2-0.4,2.3-1.3,3-2.3c1.5-2.1,1.9-4.8,1.1-7.2c-0.4-1.3-1.4-2.8-2.5-3.9
	c-0.4-0.4-0.8-0.9-0.8-0.9c0-0.4,9.2-3.7,9.5-3.4c0,0-0.2,0.5-0.5,1c-1.3,2.3-1.9,3.9-1.7,4.9c0.1,0.6,0.8,1.4,1.4,1.6
	c1.3,0.4,2.7-0.6,3.7-2.5c0.3-0.5,0.9-2,1.4-3.4c0.5-1.3,1-2.5,1-2.5c0.1-0.1,5.3-0.8,7.2-0.9l1.4-0.1l-0.6,0.8
	c-1.4,1.9-1.9,2.9-1.9,4.1c0,0.7,0,0.8,0.5,1.3c0.5,0.5,0.6,0.5,1.3,0.5c1,0,1.6-0.3,2.5-1.2c0.8-0.8,1.6-2.3,2.4-4.4
	c0.2-0.6,0.4-1.1,0.5-1.2c0.3-0.3,1.7-0.5,5.9-0.5c2.3,0,4.3,0,4.3,0.1s-0.4,0.6-0.9,1.3c-0.5,0.7-1.2,1.7-1.4,2.3
	c-0.5,0.9-0.5,1.2-0.5,2c0,1.5,0.7,2.3,2,2.3c1.6,0,3.1-1.8,4.8-6l0.7-1.8l3.3,0.1c1.8,0,3.9,0.1,4.7,0.2l1.4,0.1l-0.9,0.9
	c-1.1,1.2-1.6,1.9-2.2,3c-0.8,1.6-0.7,2.5,0.2,3.3c0.5,0.4,0.5,0.4,1.3,0.4c0.7,0,1-0.1,1.6-0.6c1.2-0.8,3.3-3.5,4.5-5.7l0.5-0.9
	l1.2,0.1c2.5,0.2,7.4,0.6,7.4,0.7c0,0-0.3,0.4-0.7,0.9c-1.5,1.6-2.1,2.8-2.1,4.3c0,2.2,2.3,2.8,3.9,1.1c1-1,2.5-3.8,3-5.4
	c0.2-0.5,0.2-0.5,0.8-0.4c1,0.1,5.7,0.7,6.9,0.9l1,0.1l-0.5,0.6c-0.8,1-1.7,2.7-2.1,3.7c-0.4,1.2-0.4,2.4,0.1,3
	c1.1,1.2,2.8,0.9,4.2-0.7c0.6-0.7,1.6-2.7,2.3-4.6l0.5-1.3l0.6,0.1c0.3,0,2,0.2,3.6,0.4c1.6,0.2,3.2,0.3,3.4,0.4l0.4,0.1l-0.7,1.1
	c-0.9,1.3-1.6,3.2-1.7,4.4c-0.1,1.6,0.6,2.6,1.8,2.6c1,0,2.2-0.8,3-2.2c0.6-1,1.5-3.1,1.9-4.6l0.3-1.1l2.6-0.1
	c1.4-0.1,3.4-0.2,4.3-0.3c1-0.1,1.8-0.2,1.8-0.2c0,0-0.2,0.6-0.5,1.3c-1.4,3.2-1.7,4.8-1.1,5.9c0.9,1.6,3,1.1,4.3-1.1
	c0.6-1,1.3-3.4,1.6-5.1c0.1-0.9,0.4-1.7,0.4-1.8c0.1-0.1,0.8-0.3,1.5-0.5c2.2-0.6,5.2-1.7,6.8-2.5c2.5-1.2,5.9-3.6,9.6-6.8
	c1.6-1.4,2-2.4,1.1-3.2c-0.3-0.3-0.5-0.4-0.9-0.4c-0.5,0-0.6,0.1-1.5,0.9c-1.7,1.7-5.4,4.6-7.9,6c-1.9,1.2-4.8,2.3-8.1,3.2l-1.3,0.3
	l-0.2-0.4c-0.7-1.2-2.2-3.4-2.7-4c-1.9-2.2-4.5-1.7-4.7,0.9c-0.1,1.2,0.3,2.4,1,3.5c0.3,0.5,0.6,0.9,0.5,1c-0.1,0.1-2.1,0.3-4.6,0.4
	c-2.6,0.1-2.7,0.1-2.8-0.2c-0.5-1.6-2.3-4.1-3.6-5.3c-0.6-0.5-1.6-0.9-2.2-0.9c-0.9,0-1.9,1-1.9,1.9c0,0.7,0.4,1.9,0.9,3
	c0.3,0.5,0.4,1,0.4,1c-0.1,0.1-6.2-0.6-6.3-0.7c-0.1,0-0.4-0.7-0.8-1.4c-0.9-1.5-2.4-3.3-3.4-3.9c-1-0.6-1.9-0.6-2.6,0
	c-0.9,0.8-0.9,2.2-0.1,3.6c0.2,0.4,0.4,0.7,0.4,0.7c0,0-0.3,0-0.6,0c-0.6-0.1-5.3-0.6-5.5-0.6c-0.1,0-0.5-0.5-0.9-1.2
	c-1.1-1.6-2.4-2.9-3.5-3.5c-1.6-0.7-2.7-0.5-3.2,0.6c-0.3,0.7-0.2,1.4,0.3,2.5c0.2,0.4,0.4,0.8,0.4,0.8c0,0-1.3-0.1-2.9-0.2
	l-2.8-0.2l-0.9-1.1c-1.3-1.6-3.6-3.8-4.6-4.5c-1.4-1-2.5-1-3.3-0.1c-0.7,0.9-0.6,2,0.7,3.9c0.4,0.6,0.7,1.2,0.7,1.2
	c0,0.1-6.3-0.1-6.7-0.1c-0.1,0-0.7-0.6-1.3-1.3c-2-2.4-3.2-3.5-4.6-4.2c-1.8-0.9-3.4-0.3-3.4,1.4c0,0.7,0.4,1.5,1.5,2.8
	c0.5,0.6,0.9,1.2,0.8,1.2c0,0-1.8,0-4,0.1l-4,0l-1.5-1.4c-3.1-3-4.8-3.9-6.1-3.3c-0.3,0.1-0.6,0.4-0.8,0.7c-0.6,0.9-0.2,2.8,0.8,4.1
	c0.2,0.2,0.3,0.5,0.3,0.5c0,0-0.8,0.1-1.8,0.2c-0.9,0.1-2.7,0.3-3.8,0.5l-2.1,0.3l-1.4-1.4c-1.8-1.7-2.5-2.3-3.5-2.8
	c-1.9-1-3.5-0.1-3.3,1.7c0.1,0.8,0.4,1.4,1.7,2.9l0.7,0.8l-0.4,0.1c-0.7,0.1-4.1,1.3-5.3,1.7c-0.6,0.2-1.8,0.8-2.7,1.2l-1.7,0.8
	l-0.8-0.5c-1.9-1.2-5.8-2.8-7.8-3.2c-0.8-0.2-0.8-0.2-1.5-1.1c-3.1-4.5-6.3-6.8-8.4-5.9c-0.7,0.3-1.1,1-1.1,1.9c0,0.7,0.1,1,0.6,1.9
	c0.3,0.6,1,1.5,1.4,2c0.4,0.5,0.8,1,0.7,1c0,0-0.7,0.1-1.6,0.3c-0.9,0.1-2.5,0.4-3.7,0.7c-1.2,0.2-2.2,0.5-2.2,0.5
	c0,0-0.7-0.5-1.4-1.2c-1.4-1.2-3.4-2.7-4.3-3.2c-1.4-0.7-2.5-0.7-3.1,0.2c-0.7,1.1-0.1,2.7,2.1,4.9c0.6,0.7,0.7,0.8,0.5,0.9
	c-0.1,0-2,0.5-4.2,1.1l-3.9,1l-1.7-1.8c-2.4-2.6-3.9-3.6-5.5-4c-1.3-0.3-2.4,0.4-2.4,1.6c0,0.9,1.3,3.2,2.6,4.6
	c0.4,0.4,0.6,0.7,0.6,0.8c-0.2,0.2-4.3,0.7-7.7,0.9l-1,0.1l-1.1-1.3c-2.6-2.9-3.6-3.9-4.7-4.4c-0.9-0.5-1.5-0.5-2.2-0.2
	c-0.8,0.4-1.1,1-1,1.9c0.1,0.6,1.2,2.6,2,3.6c0.2,0.3,0.4,0.6,0.4,0.7c0,0.1-1.1,0.1-3.9,0.1h-3.9l-1.6-1.9
	c-2.1-2.4-4.2-4.5-4.8-4.7c-0.8-0.3-1.5-0.3-2,0.1c-1.1,1-0.8,2.3,1.1,5.2l0.9,1.3h-1c-1.1,0-6.2-0.4-6.3-0.5
	c-0.1,0-0.5-0.8-1.1-1.7c-2.2-3.5-3.5-5.2-4.4-5.6c-1.5-0.7-2.8,0-2.8,1.5c0,0.6,1,2.9,1.8,4.4c0.3,0.4,0.4,0.8,0.3,0.8
	c-0.5,0-5.2-0.7-6.9-1.1c-3.2-0.6-2.8-0.3-4.1-2.9c-2.2-4.4-3.2-5.7-4.1-5.9c-1-0.3-1.9,0.3-2.2,1.2c-0.1,0.6,0.1,2.2,0.7,3.7
	l0.3,0.8l-0.3-0.1c-0.5-0.2-2.7-1.3-3.8-2c-1.3-0.8-2.8-2-5.1-3.9c-2-1.7-2.1-1.8-2.8-1.8c-0.4,0-0.6,0.1-0.9,0.4
	c-0.4,0.4-0.4,0.6-0.4,1.2c0,0.4,0.3,0.7,2.5,2.6c3.9,3.3,6.3,4.8,9.9,6.3c0.5,0.2,1.1,0.5,1.3,0.6l0.5,0.2l-1.2,0.6
	c-2.3,1.2-3.4,2.2-3.9,3.2c-0.5,1.1-0.2,2.1,0.6,2.6c0.5,0.3,1,0.3,2,0.1c1.8-0.5,3.6-1.7,5.7-3.9l1.1-1.1l0.8,0.2
	c1.3,0.4,4.7,1,7.6,1.4c1.5,0.2,2.8,0.4,3.1,0.4l0.4,0.1l-1,0.8c-2.9,2.3-4.1,4.1-4,5.7c0.2,1.7,1.8,2.2,3.9,1.1
	c1.6-0.8,4.6-4.1,5.8-6.4c0.2-0.3,0.4-0.6,0.6-0.7c0.1,0,1,0,1.9,0.1c0.9,0.1,2.9,0.2,4.5,0.2l2.9,0.1l-1.1,1.2c-2,2.2-3,4-3,5.3
	c0,1.5,1.2,2.2,2.7,1.5c1.4-0.6,2.7-2.1,4.8-5.5c0.8-1.2,1.5-2.3,1.6-2.4c0.1-0.1,1.4-0.2,4.4-0.2l4.3,0l-1.1,1.1
	c-2,2-2.7,3-2.7,4.3c0,0.6,0.1,0.8,0.5,1.2c0.4,0.5,0.5,0.5,1.3,0.5c0.7,0,1-0.1,1.6-0.4c1.6-0.9,4.1-3.8,5.3-6.2l0.4-0.8l1.2-0.1
	c2.7-0.2,4.4-0.4,6.6-0.7c1.2-0.2,2.3-0.3,2.3-0.3c0,0-0.5,0.6-1.1,1.3c-1.4,1.6-1.9,2.3-2.3,3.3c-0.4,0.8-0.4,1.1-0.2,1.8
	c0.3,1,1.6,1.3,2.8,0.8c1.4-0.7,3.2-3,4.8-6.1c0.4-0.8,0.9-1.7,1-1.9c0.1-0.2,0.4-0.4,0.7-0.4c0.3-0.1,2.2-0.6,4.4-1.2
	c2.1-0.6,3.9-1,3.9-1c0,0-0.3,0.6-0.7,1.2c-0.7,1.2-1.1,2.3-1.1,2.9c0,0.5,0.4,1.3,0.8,1.5c0.5,0.3,1.2,0.3,1.8,0
	c1.4-0.6,3.8-3.7,4.8-6.1c0.2-0.5,0.4-1,0.5-1c0.4-0.4,8.7-1.9,9-1.6c0.1,0-0.2,0.4-0.6,0.9c-1.5,1.7-2.7,3.8-2.8,4.9
	c-0.2,1.3,0.6,2.2,1.7,2.2c1.9,0,4.4-2.6,6.1-6.4l0.7-1.5l0.5,0c0.8,0,3.7,1,5.3,1.8c1.9,0.9,1.9,0.8,1.1,1.7
	c-0.9,1-2.1,3.1-2.5,4.3c-0.6,2-0.7,3.7-0.2,5.2c0.6,1.8,2.3,3.5,4.2,4.2C215.8,417.8,217.3,417.8,218.1,417.5z M215.5,414.7
	c-0.7-0.3-1.7-1.2-2-1.8c-0.9-1.8,0-5.1,2.1-7.3l0.7-0.8l0.7,0.7c1,0.8,2.1,2.3,2.4,3.2c0.2,0.4,0.3,1.2,0.4,1.8c0.1,1,0,1.1-0.4,2
	c-0.4,1-1.2,1.9-2,2.2C217,414.9,216.1,414.9,215.5,414.7z"/>
</svg>
