<?xml version="1.0" encoding="utf-8"?>
<!-- Generator: Adobe Illustrator 18.0.0, SVG Export Plug-In . SVG Version: 6.00 Build 0)  -->
<!DOCTYPE svg PUBLIC "-//W3C//DTD SVG 1.1//EN" "http://www.w3.org/Graphics/SVG/1.1/DTD/svg11.dtd">
<svg version="1.1" id="Layer_1" xmlns="http://www.w3.org/2000/svg" xmlns:xlink="http://www.w3.org/1999/xlink" x="0px" y="0px"
	 viewBox="0 0 432 432" enable-background="new 0 0 432 432" xml:space="preserve">
<path fill="#BC936B" d="M371.1,177.7c-2.2,3.2-8.2,12.2-8.5,11.1c-10.1-3.3-19.1-11.5-23.2-19.6c-2.1-4-4.7-10.5,1.9-12.7
	c5.9-1.9,15.1,4.9,16.9,9.1c1.4-8.2,15.6-13.7,19.6-6.5C381.2,165.3,375,172,371.1,177.7z M71.9,319.1c2.4,0,5,0.1,7.3-0.3
	c3-0.7,4.4-3.1,4.2-6.7c-0.3-3.7-2-6-5.2-6.8c-0.7-0.3-1.2-0.3-1.9-0.4c-5-1.3-9.8,0.1-14.6-0.3c-2.3-0.1-3.7,1.6-4.4,4
	c-0.2,1.3-0.4,2.7-0.4,4c-0.4,11-0.9,21.8-1.1,32.9c0,8.8,0.3,17.7,0.6,26.6c0.1,6.7,0.5,13.5,0.6,20.4c0.2,5.4,1.2,10.8,3.2,16
	c1,2.8,2.6,4.6,4.9,5c1.4-2,1.5-4.3,1.5-6.6l0.7-46.3c0.1-1.6,0.1-3.3,0.1-5.3c3.1-0.4,6.2-1.1,9.1-1.4c3.2-0.3,4.8-2.4,5.9-5.8
	c0.9-2.8-0.3-5.8-2.7-7.3c-1.6-0.9-3-0.9-4.6-0.4c-2.5,0.6-5,1-7.4,1.6c-0.9-4-1.5-18-0.9-23.4C68.5,318.8,70.2,319.1,71.9,319.1z
	 M103.9,390.4c0-3,0.2-6,0-8.8c-1.2-17.4-0.1-34.6-0.2-51.9c-0.1-5.3-0.3-10.4-0.7-15.7c-0.2-3.1-1.4-5.7-3.2-7.8
	c-3.2-3.8-7.2-2.7-8.4,2.4c-0.3,1.6-0.5,3.1-0.6,4.7c-0.9,15.2-1.9,30.3-2.6,45.5c-0.8,14.4-0.1,28.6,2.4,43.3
	c-0.1,0.4-0.4,1.3-0.6,2.1c-0.3,1.1-0.5,2.1-0.7,3c1.7,6.1,3.3,7.6,7.1,5.7c5.7-3,11.5-3,17.5-1c1.6,0.4,3.2,0.9,4.7,1
	c2.5,0.1,4.4-1.6,5.1-4.1c0.7-2.6,0-5.3-1.9-7.3c-3-3.3-6.6-5-10.5-5.1c-2.3-0.1-4.4,0-7.3,0C104,394,103.9,392.1,103.9,390.4z
	 M124.6,322.2c-1.2,11.7-0.6,23.4,0.3,35.1c0.6,8.7,1.2,17.4,1.7,26.1c0.5,8,1.7,15.8,3.7,23.4c0.4,1.7,1.2,3.3,1.9,5.1l3.8-0.4
	c0.3-1.9,0.9-3.4,1-5c0.3-9.3,1-18.7,0.9-28.1c-0.1-20.7-0.3-41.3,1.4-62c0.1-1.1,0.1-2.3,0-3.4c-0.3-4.4-1.5-5.8-5.6-7.3
	c-1.7,0.9-3.5,1.9-5.5,2.8C125.6,312.9,125,317.5,124.6,322.2z M161.1,373.6c4.7-4.3,8.8-9.3,12.2-15.1c3-5.4,4.7-11.4,5.2-18.1
	c0.3-5-0.2-10-0.8-15c-1.5-13.4-9.9-19.7-17.1-21.2c-4.6-0.9-8.4,0.7-11,5.4c-1.2,2.3-2.3,4.8-3,7.6c-1.4,5-1.6,10.4-1.1,15.8
	c0.9,10.1,1.1,20.2,0.8,30.5c-0.2,9-0.2,18.1,0,27.2c0,4.4,0.6,8.8,1.3,13.1c0.5,2.6,1.6,5,2.7,7.4c0.3,1,1.5,1.4,2.5,2.3
	c0.8-1,1.6-1.6,2-2.6c1.5-3.4,2.3-7.1,2.4-11.1c0.1-7.7,0.6-15.2,0.8-23.4C159,375.5,160,374.5,161.1,373.6z M158.5,350.7
	c0.4-6.6,0.9-13,1.5-19.5c0.3-3.7,1-7.3,3.3-10.3c0.7,0.7,1.4,1.3,1.7,2.1c0.9,2.4,1.8,5,2.5,7.6c1.1,4.6,0.9,9.1-0.3,13.3
	c-1.8,6-4.6,11-8.1,15.2c-0.1,0.1-0.3,0.1-0.8,0.1C158.2,356.4,158.2,353.5,158.5,350.7z M221.7,319.1c2.4,0,5,0.1,7.3-0.3
	c3-0.7,4.4-3.1,4.2-6.7c-0.3-3.7-2-6-5.2-6.8c-0.7-0.3-1.2-0.3-1.9-0.4c-5-1.3-9.8,0.1-14.6-0.3c-2.3-0.1-3.7,1.6-4.4,4
	c-0.2,1.3-0.4,2.7-0.4,4c-0.4,11-0.9,21.8-1.1,32.9c0,8.8,0.3,17.7,0.6,26.6c0.1,6.7,0.5,13.5,0.6,20.4c0.2,5.4,1.2,10.8,3.2,16
	c1,2.8,2.6,4.6,4.9,5c1.4-2,1.5-4.3,1.5-6.6l0.7-46.3c0.1-1.6,0.1-3.3,0.1-5.3c3.1-0.4,6.2-1.1,9.1-1.4c3.2-0.3,4.8-2.4,5.9-5.8
	c0.9-2.8-0.3-5.8-2.7-7.3c-1.6-0.9-3-0.9-4.6-0.4c-2.5,0.6-5,1-7.4,1.6c-0.9-4-1.5-18-0.9-23.4C218.3,318.8,220,319.1,221.7,319.1z
	 M253.7,390.4c0-3,0.2-6,0-8.8c-1.2-17.4-0.1-34.6-0.2-51.9c-0.1-5.3-0.3-10.4-0.7-15.7c-0.2-3.1-1.4-5.7-3.2-7.8
	c-3.2-3.8-7.2-2.7-8.4,2.4c-0.3,1.6-0.5,3.1-0.6,4.7c-0.9,15.2-1.9,30.3-2.6,45.5c-0.8,14.4-0.1,28.6,2.4,43.3
	c-0.1,0.4-0.4,1.3-0.6,2.1c-0.3,1.1-0.5,2.1-0.7,3c1.7,6.1,3.3,7.6,7.1,5.7c5.7-3,11.5-3,17.5-1c1.6,0.4,3.2,0.9,4.7,1
	c2.5,0.1,4.4-1.6,5.1-4.1c0.7-2.6,0-5.3-1.9-7.3c-3-3.3-6.6-5-10.5-5.1c-2.3-0.1-4.4,0-7.3,0C253.8,394,253.7,392.1,253.7,390.4z
	 M277.1,400.1c1.5,3.8,3.6,7.1,6.4,9.5c3.8,3.4,7.7,3.8,11.4,1.1c2.1-1.6,3.6-3.7,4.6-6.4c0.8-2.1,1.3-4.4,1.9-6.6
	c4.6-17.8,6.3-36.5,6.2-55.9c0-4.1,0-8.3-0.4-12.5c-0.4-5.8-2.3-11.4-4.8-16.7c-3.5-6.7-8.3-9-14-7.1c-0.8,0.3-1.6,0.7-2.5,0.9
	c-2.8,0.1-4.6,2.3-6.1,4.8c-2.4,4.4-4.1,9.3-5,14.5c-3,16.7-4.1,33.8-2.9,51.3C272.3,385.2,274.3,392.7,277.1,400.1z M285,389.7
	c-0.7-5.6-1.3-11.1-1.7-16.7c-0.6-12-0.8-23.8,0.8-35.3c0.4-2.6,0.9-5.1,1.6-7.6c0.9-3,2.5-5.3,5.5-6.4c0.7,1,1.6,1.9,1.9,3
	c0.9,2.4,1.8,5.1,2.3,7.7c1.2,7.7,1.9,15.5,1,23.1c-1.6,12.5-2.5,25.4-5.7,37.3c-0.2,1-0.6,2.1-0.9,3c-0.1,0.4-0.4,0.6-1.1,1
	C285.8,396.4,285.4,392.9,285,389.7z M329.2,373.6c4.7-4.3,8.8-9.3,12.2-15.1c3-5.4,4.7-11.4,5.2-18.1c0.3-5-0.2-10-0.8-15
	c-1.5-13.4-9.9-19.7-17.1-21.2c-4.6-0.9-8.4,0.7-11,5.4c-1.2,2.3-2.3,4.8-3,7.6c-1.4,5-1.6,10.4-1.1,15.8
	c0.9,10.1,1.1,20.2,0.8,30.5c-0.2,9-0.2,18.1,0,27.2c0,4.4,0.6,8.8,1.3,13.1c0.5,2.6,1.6,5,2.7,7.4c0.3,1,1.5,1.4,2.5,2.3
	c0.8-1,1.6-1.6,2-2.6c1.5-3.4,2.3-7.1,2.4-11.1c0.1-7.7,0.6-15.2,0.8-23.4C327.2,375.5,328.2,374.5,329.2,373.6z M326.6,350.7
	c0.4-6.6,0.9-13,1.5-19.5c0.3-3.7,1-7.3,3.3-10.3c0.7,0.7,1.4,1.3,1.7,2.1c0.9,2.4,1.8,5,2.5,7.6c1.1,4.6,0.9,9.1-0.3,13.3
	c-1.8,6-4.6,11-8.1,15.2c-0.1,0.1-0.3,0.1-0.8,0.1C326.4,356.4,326.4,353.5,326.6,350.7z M381.3,338.2c1.5-1.7,2-4,1.9-6.3
	c-0.1-6.4-1.6-12.5-4.7-18.5c-1.8-3.1-4.3-5.7-7.7-7.6c-4.6-2.4-10.3-2.1-13.4,1.1c-4.9,5.3-7.5,11.5-6.2,19.5
	c0.8,3.8,2.5,7.4,4.5,10.8c6.1,10.1,11.5,20.5,14,31.9c1.5,6.8,2.4,13.7,1.9,20.5c-0.2,3-0.9,5.8-3.3,8c-2.7-1.3-3.6-3.4-3.8-5.7
	c-0.3-3.6-0.7-7.3-0.6-10.8c0-5.1,0.4-10.1,0.7-15.2c0.1-1.7,0.2-3.4-0.1-5.1c-0.4-2.8-1.8-5.3-5.1-6c-2.9,0.3-4.7,2-6,4.3
	c-1.6,3-2.7,6-3,9.4c-0.9,8.1-0.4,16.2,1.4,24.5c1.2,5.6,3.8,10.4,8.1,14.4c1.6,1.6,3.4,2.8,5.3,3.8c5.3,2.7,10.2,1.4,12.9-3.1
	c0.9-1.4,1.5-3,1.9-4.6c3.3-11.3,3.4-23.1,1.1-34.9c-1.6-9.1-4.8-18.1-9.8-26.4c-2-3.4-3.7-7.1-5.4-10.7c-0.9-2.1-1.8-4.4-2-6.7
	c-0.3-2-0.1-4.1,0.3-6.1c0.2-0.9,1.4-1.4,2.1-2.3c2.7,2,3.2,4.6,3.3,7c0.2,4.3,2.3,8.3,3.7,12.3c0.6,1.4,1.7,2.7,2.4,3.6
	C378.5,340.4,380.1,339.7,381.3,338.2z M74,98.1c0-3,0.4-6,0-8.8c-2.1-17.4-0.2-34.6-0.4-51.9c-0.2-5.3-0.6-10.4-1.2-15.7
	c-0.4-3.1-2.3-5.7-5.4-7.8c-5.4-3.8-12.4-2.7-14.5,2.4c-0.6,1.6-0.8,3.1-1,4.7c-1.5,15.2-3.3,30.3-4.5,45.5
	c-1.4,14.4-0.2,28.6,4.1,43.3c-0.2,0.4-0.8,1.3-1,2.1c-0.6,1.1-0.8,2.1-1.2,3c2.9,6.1,5.6,7.6,12.2,5.7c9.9-3,19.7-3,30-1
	c2.7,0.4,5.4,0.9,8.1,1c4.3,0.1,7.5-1.6,8.7-4.1c1.2-2.6,0-5.3-3.3-7.3c-5.2-3.3-11.4-5-18-5.1c-3.9-0.1-7.5,0-12.6,0
	C74.2,101.6,74,99.8,74,98.1z M109.6,29.8c-2.1,11.7-1,23.4,0.6,35.1c1,8.7,2.1,17.4,2.9,26.1c0.8,8,2.9,15.8,6.4,23.4
	c0.8,1.7,2.1,3.3,3.3,5.1l6.6-0.4c0.6-1.9,1.5-3.4,1.7-5c0.6-9.3,1.7-18.7,1.5-28.1c-0.2-20.7-0.6-41.3,2.3-62
	c0.2-1.1,0.2-2.3,0-3.4c-0.6-4.4-2.5-5.8-9.7-7.3c-2.9,0.9-6,1.9-9.5,2.8C111.4,20.6,110.4,25.1,109.6,29.8z M172.7,26.7
	c4.1,0,8.5,0.1,12.6-0.3c5.2-0.7,7.5-3.1,7.2-6.7c-0.6-3.7-3.5-6-8.9-6.8c-1.2-0.3-2.1-0.3-3.3-0.4c-8.5-1.3-16.8,0.1-25.1-0.3
	c-3.9-0.1-6.4,1.6-7.6,4c-0.4,1.3-0.8,2.7-0.8,4c-0.8,11-1.5,21.8-1.9,32.9c0,8.8,0.6,17.7,1,26.6c0.2,6.7,0.8,13.5,1,20.4
	c0.4,5.4,2.1,10.8,5.4,16c1.7,2.8,4.4,4.6,8.5,5c2.3-2,2.5-4.3,2.5-6.6l1.2-46.3c0.2-1.6,0.2-3.3,0.2-5.3c5.4-0.4,10.6-1.1,15.7-1.4
	c5.4-0.3,8.3-2.4,10.1-5.8c1.5-2.8-0.6-5.8-4.6-7.3c-2.7-0.9-5.2-0.9-7.9-0.4c-4.3,0.6-8.5,1-12.8,1.6c-1.5-4-2.5-18-1.5-23.4
	C166.9,26.4,169.8,26.7,172.7,26.7z M223.4,39.2c-0.2-4.6-1.2-9-0.4-13.5c2.9-0.3,5.2-0.4,7.6-0.7c2.3-0.4,4.6-0.7,6.8-1.4
	c2.5-0.7,4.1-2.4,3.9-4.6c0-2.1-1.5-3.7-4.3-4.8c-5.6-2.4-11.4-3.6-17.8-1.9c-2.3,0.6-5,1-7.5,1.4c-6,1.3-9.1,4.3-9.3,8.8
	c-0.2,3.1-0.2,6.3-0.2,9.4c0.8,19.8,1.9,39.5,0.6,59.1c-0.6,6.3,0.2,12.5,2.7,18.7c0.2,0.4,0,0.9,0,1.4c-0.6,0.9-1.4,1.9-1.7,3
	c-1.4,4.6,3.1,8,9.3,7.1c1.4-0.1,2.7-0.4,3.7-1c4.6-2.6,10.3-3.6,16.1-4.3c2.7-0.3,5.2-1.6,7.7-2.7c2.5-1.3,3.7-3.1,2.7-5.6
	s-3.3-3.8-6.6-4.3c-2.3-0.3-4.6,0-7.2-0.1c-1.5,0-2.9-0.3-4.1-0.3c0-12,0-23.5-0.2-35.1c2.1-1.9,4.8-2.4,7.7-2.7
	c4.3-0.7,6.8-3,8.5-5.4c2.3-3,0-6.7-4.6-7.7c-1.7-0.4-3.7-0.4-5.4-0.3c-2.1,0-4.3,0.3-6.6,0.4C222.6,47.8,223.8,43.5,223.4,39.2z
	 M291.1,29.8c-2.1,11.7-1,23.4,0.6,35.1c1,8.7,2.1,17.4,2.9,26.1c0.8,8,2.9,15.8,6.4,23.4c0.8,1.7,2.1,3.3,3.3,5.1l6.6-0.4
	c0.6-1.9,1.5-3.4,1.7-5c0.6-9.3,1.7-18.7,1.5-28.1c-0.2-20.7-0.6-41.3,2.3-62c0.2-1.1,0.2-2.3,0-3.4c-0.6-4.4-2.5-5.8-9.7-7.3
	c-2.9,0.9-6,1.9-9.5,2.8C292.8,20.6,291.9,25.1,291.1,29.8z M380.1,45.8c2.5-1.7,3.5-4,3.3-6.3c-0.2-6.4-2.7-12.5-8.1-18.5
	c-3.1-3.1-7.3-5.7-13.2-7.6c-7.9-2.4-17.6-2.1-23,1.1c-8.5,5.3-13,11.5-10.6,19.5c1.4,3.8,4.3,7.4,7.7,10.8
	c10.4,10.1,19.7,20.5,24,31.9c2.5,6.8,4.1,13.7,3.3,20.5c-0.4,3-1.5,5.8-5.6,8c-4.6-1.3-6.2-3.4-6.6-5.7c-0.6-3.6-1.2-7.3-1-10.8
	c0-5.1,0.8-10.1,1.2-15.2c0.2-1.7,0.4-3.4-0.2-5.1c-0.8-2.8-3.1-5.3-8.7-6c-5,0.3-8.1,2-10.3,4.3c-2.7,3-4.6,6-5.2,9.4
	c-1.5,8.1-0.8,16.2,2.3,24.5c2.1,5.6,6.6,10.4,13.9,14.4c2.7,1.6,5.8,2.8,9.1,3.8c9.1,2.7,17.6,1.4,22.3-3.1c1.5-1.4,2.5-3,3.3-4.6
	c5.6-11.3,5.8-23.1,1.9-34.9c-2.7-9.1-8.3-18.1-16.8-26.4c-3.5-3.4-6.4-7.1-9.3-10.7c-1.5-2.1-3.1-4.4-3.5-6.7
	c-0.6-2-0.2-4.1,0.6-6.1c0.4-0.9,2.3-1.4,3.7-2.3c4.6,2,5.4,4.6,5.6,7c0.4,4.3,3.9,8.3,6.4,12.3c1,1.4,2.9,2.7,4.1,3.6
	C375.3,48.1,378,47.4,380.1,45.8z"/>
<path fill="#6F91BD" d="M301.8,195.7c1.8-0.5,1.8-2.4,0.8-4c-0.7-1.3-1.9-2.1-3.1-3.1c-3.4-2.8,9.7-1.2-0.2-6.4l-6.5-3.4
	c-0.4-0.2-0.7-0.5-0.5-0.9c0.2-0.5,0.6-0.4,1.1-0.3c3.9,0.9,6.7,1.1,12,2.9c8.5,2.8,13.7,8.9,10,12.2c-1.1,1-2,1.5-2.1,3
	c-0.2,1.8-0.2,3.7-1.2,5.8c-2.4,4.6-7.5,5.6-11.9,3.3c-0.9-0.5-1.6-1-2.6-1.5c-1.8-1-4.1,2.9-7.8,3.3c-5.5,0.6-11.9-7.5-5.7-22.6
	c0.2-0.4,1-2.4,1.3-2.7c0.4-0.4,1.1-0.3,1.3,0.3c0.3,0.9-0.5,10,2.6,12.4c2.1,1.7,2.6-5.7,5.3-2.9c0.2,0.2,0.4,0.4,0.6,0.7
	C295.8,192.5,298.6,196.5,301.8,195.7z M284.2,180.9c0.5-0.9-0.2-1.5-0.8-1.2c-2.1,1-5.8,7.7-8.1,10.6c-2.6,3.2-4.5,3.8-4.7,2.5
	c-0.5-2.7,1.4-5.1,2-6.1c1.4-2.4-0.1-2.5-1.4-3.1c-0.3-0.1-0.3-0.2-0.2-0.5c1.1-3.3,7.2-4.6,8.4-6.8c1.5-2.7-4.6-1.1-14.6,0.8
	c-1.8,0.4-3.6,0.8-5,1.5c-4.4,2.1-4.2,6-2.4,7.8c1.8,1.8,1.5,2.1-0.1,4.8c-3.1,5.5-0.3,9.9,3.7,9.9c2.5,0,3.8-0.8,5.6,0.1
	c1.9,0.9,3.5,1.4,5.7,0.7C281.4,199.2,279.7,189.1,284.2,180.9z M293.4,171.2c-1.1,1.6,0,2.3,0.8,1.8c1.5-0.9,9.7-6.8,17.3-6.6
	c7,0.2,9.2,7.3,3.7,8.3c-4.6,0.9-9.2-1.4-16.5-0.3c-5.4,0.8-4,2.4-2.6,2.6c1.2,0.1,3.6,0.1,7.1,0.8c7.7,1.5,13.4,7.1,17.9,7.4
	c2.4,0.2,4-1.7,4.3-4.2c0.6-4-2.2-6.6-0.6-8.3c0.9-1,1.9-1.7,2.4-2.2c1.4-1.3,1.2-3.2,0.1-4.5c-2.2-2.9-6.8-3-9.1-4.2
	c-2-1.1,0.5-4.3-4.6-5C306.8,155.9,298.5,163.5,293.4,171.2z M278.2,164.7c-4.3-4.2-9.2-10-16.9-10.1c-3.2-0.1-5,1.9-6,2.9
	c-1.2,1.2-2,1.2-3.5,2c-2.4,1.2-2.4,3.9-0.9,6.2c1.4,2.2,2.9,2.2,2.2,3.7c-0.4,0.9-2.9,3.4-0.8,5.4c3.6,3.5,11.3,0.4,16.8-1.1
	c3-0.8,5.8-0.9,8.5,0.2c0.6,0.3,1.1-0.4,0.7-0.9c-0.5-0.6-2.9-2.4-5.6-3.3c-1.5-0.5-3.2-0.8-6.3-1.9c-3.4-1.2-2-3.4,2-2.9
	c3.8,0.5,5.4,1.7,8.4,3.4c1.2,0.7,2,1.2,2.7,1.1c0.9-0.1,1.2-0.9,0.8-1.6C279.6,166.3,280,166.8,278.2,164.7
	C278.2,164.7,278.2,164.7,278.2,164.7z M296.1,145.4c0.9-0.4,1.6-0.1,1.7,0.8c0.6,3.3-1.2,6.8-4.3,15.5c-2.3,6.5-0.1,6,0.5,5
	c0.6-0.9,1.5-3,3.7-5.4c7.4-7.9,11.8-11.1,10-15c-0.7-1.7-1.8-2.1-3.4-2.9c-2.8-1.5-0.3-6.6-5.2-7.5c-5.1-0.9-6.7,4.6-9.5,4
	c-1-0.2-1.9-0.5-3,0.5c-6.2,5,0.5,22.1,2.2,23.8c0.3,0.3,1,0.1,1-0.5c0-0.1-0.4-1.7-0.4-2.3C289,155.1,293.1,146.9,296.1,145.4z
	 M271.9,150.6c-0.2,1.1-1.4,1.5-1.9,2.5c-0.5,1,0.4,2.1,1.7,1.8c2.6-0.6,2.2-4.2,4.5-0.2c7.4,12.6,6.4,17.9,8,21.1
	c1.5,2.9,5.9,1.1,5.3-2.4c-0.8-5-8.4-17-10.2-19.2c-1.4-1.6-2.1-2.3-2.4-3.3c-0.4-1.2,2.7-1.1,2.9-2.9c0.2-1.7-1.2-3.2-2.8-2.4
	c-1.2,0.6-1.2,1.7-1.4,2.8c-0.1,0.3-0.1,0.6-0.2,0.8c0,0.2-0.2,0.3-0.4,0.3c-0.8,0-1-0.6-1.3-1.5c-0.3-1,0.4-1.4,1.2-2.2
	c1.1-1.2,1.4-2.5,0.2-3.5c-1.1-0.9-3.1-0.1-3.2,1.8c0,0.3,0,0.9,0.1,1.5c0.1,0.8-0.6,1.1-1.1,0.6c-0.9-0.8-1.5-2.3-0.4-3.4
	c0.3-0.3,0.5-0.7,0.8-1.1c0.7-1.3-0.8-3-2.5-2.3c-1.4,0.5-2.2,2.2-1.1,4c0.1,0.1,0.1,0.3,0.3,0.5c-0.5-0.2-1.5-0.8-2-1.1
	c-1.2-0.8-0.9-1.9-0.8-3c0.1-1.4,0.2-2.5-0.8-3.3c-1.6-1.2-3.9,0.4-4.4,2.9c0,0.1,0,0.3-0.1,0.4c-4-1.3-5.5,2.9-1.9,4.6
	c-2.3,3.6,1.3,5.1,2.9,3c0.9-1.2,1-2,2.3-2.9c0.5-0.3,0.9-0.2,1.5,0.1c0.5,0.3,1.5,0.9,2,1.2c-0.9,0.9-1.8,1.5-2.1,2.1
	c-0.5,1.2,0.6,2.3,2.2,1.6c1.1-0.5,1.3-1.2,2-1.7c0.2-0.2,0.4-0.2,0.7,0.1c0,0.3-0.2,0.4-0.4,0.5c-0.4,0.3-0.7,0.6-1.1,0.9
	c-0.7,0.6-1.2,1.8-0.5,2.6c0.8,0.9,2.3,0.4,3-0.4c0.3-0.4,0.5-0.8,0.8-1.1c0.1-0.2,0.2-0.4,0.5-0.5
	C271.9,150.1,271.9,150.3,271.9,150.6z M68.3,280.2c3.4-2.1,6.3-5,8.6-8.6c2.3-3.6,4-7.5,5.1-11.5c1.1-4.1,1.5-7.8,1.1-11.2
	c1.1-0.4,2.9-1.1,5.4-2.3c2.5-1.2,4.9-2.4,7.2-3.7c2.3-1.3,3.8-2.3,4.5-3c0.6-0.8,1-1.5,0.9-2.2s-0.2-1.1-0.6-1.4
	c-0.4-0.3-0.7-0.2-1.1,0.1c-1.3,1.2-3.1,2.5-5.4,3.8c-2.3,1.3-4.6,2.4-6.8,3.4c-2.2,1-3.8,1.7-4.9,2.1c-0.6-4.5-2-7.9-4.1-10
	c-2.1-2.1-4.4-3.3-6.8-3.4l-1.1,0c-2.4,0-4.7,0.6-6.7,1.7c-2,1.2-3.8,2.7-5.3,4.8c-1.5,2-2.8,4.4-3.9,7c0.5-4.7,1.3-9.6,2.2-14.8
	c0.2-1.1,0.4-2.2,0.6-3.2c5.6-1.1,11-3.7,16.3-7.9c5.3-4.2,9.8-9.4,13.6-15.8s6.2-13.3,7.3-20.8c0.2-1.7,0.3-3.2,0.2-4.6
	c-0.3-4.1-1.6-7.2-4-9.5s-5.7-3.3-9.8-3.3l-1.3,0c-4.3,0.3-8.2,1.9-11.6,4.7c-3.5,2.9-6.4,6.6-8.8,11.3c-2.4,4.7-4.2,9.9-5.5,15.6
	c-1.9,9.2-3.6,20-5.3,32.4c-1.7,12.3-2.7,21.7-3.2,28.1l0,0.4c0.1,1,0.5,1.7,1.3,2.2c0.8,0.4,1.7,0.7,2.7,0.7c1,0,2-0.2,2.9-0.6
	c0.9-0.4,1.5-1,1.8-1.8c0.4-3.2,1.1-6.2,2.2-9c1.1-2.9,2.5-5.2,4.3-7.1c1.8-1.8,3.9-2.8,6.2-2.8c0.6,0,1.2,0.1,1.9,0.2
	c1,0.2,2.1,1,3.2,2.5c1.1,1.5,1.8,3.4,2,6c0,0.7,0,1.4-0.1,2.2c-1.6,0.8-3.7,2.1-6.2,3.7c-2.5,1.7-5.1,3.7-7.7,6.2
	c-2.6,2.5-4.8,5.2-6.6,8.3c-2.1,3.9-3.1,6.9-2.9,9.1c0.1,1.9,0.9,3.2,2.2,4c1.3,0.8,2.9,1.2,4.8,1.2
	C60.7,283.4,64.5,282.3,68.3,280.2z M54.9,277c-0.4-0.3-0.5-0.7-0.6-1.2c-0.1-1.1,0.7-3.1,2.3-5.9c1.6-2.5,3.5-4.8,5.8-6.9
	c2.3-2.1,4.5-3.9,6.5-5.4c2.1-1.5,3.7-2.6,4.7-3.2c-0.8,4.5-1.9,8-3.2,10.5c-1.3,2.5-3.2,5-5.6,7.6c-1.2,1.4-2.7,2.5-4.4,3.4
	c-1.7,0.9-3.1,1.4-4.3,1.4C55.7,277.4,55.3,277.3,54.9,277z M60.6,208.1c1.3-5.9,3-11.7,4.9-17.3c2-5.6,4.2-10.4,6.8-14.4
	c2.5-3.9,5.3-6.3,8.4-7.2c0.4-0.1,0.8-0.1,1.1-0.1c1.3,0,2.3,0.6,2.9,1.7c0.6,1.1,0.9,2.6,1,4.5c0.1,2.3-0.1,4.9-0.5,7.8
	c-0.9,5.9-3.1,11.9-6.4,18c-3.4,6.1-7,11.3-10.9,15.7c-3.9,4.3-7.3,6.8-10.1,7.3C58.3,219.3,59.3,214,60.6,208.1z M111,275
	c2-0.9,4.1-2.2,6.2-3.9c3.8-3.2,7.6-7.1,11.4-11.9c3.8-4.8,7.7-10.2,11.6-16.3c0.2-0.5,0.4-0.9,0.4-1.2c0-0.4-0.1-0.7-0.4-0.9
	c-0.3-0.2-0.6-0.3-1-0.3c-0.4,0-0.8,0.1-1.1,0.3c-0.4,0.2-0.8,0.5-1.1,0.9c-1.5,2.1-3,4.2-4.5,6.3c-2.5,3.7-5.2,7.4-8.3,11.1
	c-3,3.7-6.9,7.1-11.4,10.3c-1.6,1.1-3.1,1.6-4.5,1.6c-1,0-1.9-0.4-2.7-1.1c-0.8-0.7-1.4-1.8-1.8-3.4c-0.3-1.5-0.5-3.6-0.5-6.2
	c0-3,0.2-6.5,0.7-10.4c0.4-4,1.1-7.9,1.9-12c0.9-4,1.9-7.8,3.2-11.2c1.3-3.4,2.7-6.2,4.3-8.4c1.6-2.1,3.4-3.2,5.5-3.2h0.2
	c0.6,0,1.1,0.5,1.5,1.3c0.3,0.9,0.5,2,0.5,3.3c0,2.4-0.5,5.3-1.6,8.6c-1,3.3-2.7,6.4-4.9,9.3c-2.3,2.9-5.2,5-8.8,6.3
	c-0.7,0.3-1,0.6-1,0.9c0,0.4,0.4,0.7,1.1,0.9c0.7,0.3,1.6,0.4,2.8,0.4c1.9,0,3.8-0.3,5.8-0.8c2-0.5,4-1.4,5.9-2.7
	c1.9-1.3,3.6-3,5.1-5.3c1.5-2.3,2.7-5.1,3.6-8.6c0.4-1.7,0.6-3.4,0.6-4.9c0-2.8-0.6-5.1-1.8-7.1c-1.2-2-2.8-3.5-4.7-4.6
	c-1.9-1.1-4.1-1.6-6.4-1.6c-2.1,0-4.3,0.5-6.5,1.4c-2.2,1-4.3,2.5-6.2,4.5c-2.6,2.9-4.7,6.5-6.5,11c-1.8,4.5-3.1,9.2-4,14.3
	c-0.9,5-1.4,9.8-1.4,14.1c0,1.4,0,2.7,0.1,3.9c0.5,5.4,1.9,9.5,4.3,12.2c2.3,2.8,5.2,4.2,8.6,4.2C107,276.3,109,275.8,111,275z
	 M170.5,279.6c0.8-0.3,2.4-2.3,4.6-5.9c2.2-3.6,4.6-7.9,7.3-12.8c2.6-4.9,5-9.6,7.1-13.9c2.1-4.3,3.4-7.3,4-9
	c0.2-0.3,0.3-0.6,0.3-0.9c0-0.5-0.2-0.8-0.6-1.1c-0.4-0.3-0.8-0.4-1.3-0.4c-0.4,0-0.8,0.1-1.2,0.4c-0.4,0.3-0.7,0.7-1,1.3
	c-1.2,2.7-2.8,6.1-4.8,10.2c-2,4.1-4.2,8.2-6.5,12.3c-2.3,4.1-4.4,7.6-6.3,10.4c-1.9,2.8-3.4,4.3-4.3,4.3c-0.6,0.1-0.9-0.8-0.9-2.8
	v-0.3c0.4-9.3,1.5-20.5,3.4-33.6c1.9-13,4-26.6,6.5-40.7c1.9,1.3,3.7,2.4,5.5,3.4c2.2,1.3,4.3,2.3,6.3,2.9c2,0.6,3.8,0.9,5.4,0.9
	c3.1,0,5.5-0.9,7.3-2.6c1.8-1.7,2.7-3.8,2.7-6.3c0-1-0.2-2-0.4-3c-0.4-1.2-1-2.1-1.8-2.7c-0.8-0.6-1.6-0.8-2.5-0.8
	c-1,0-1.9,0.3-2.7,1s-1.2,1.6-1.3,2.7c0,0.4,0.2,0.8,0.5,1.1c0.4,0.3,0.8,0.6,1.2,0.8c0.8,0.5,1.4,1,2,1.7c0.5,0.7,0.8,1.3,0.8,1.9
	c0,0.4-0.2,0.7-0.5,0.9c-0.3,0.3-0.8,0.4-1.6,0.4h-0.1c-1.4-0.1-3-0.5-5-1.3c-2-0.8-3.9-1.7-5.7-2.6c-2.8-1.6-5.7-3.4-8.8-5.5
	c0.4-2.3,0.8-4.6,1.1-6.8c1.2-7.2,2.4-14.3,3.5-21.4l0.1-0.8c0-1.4-0.6-2.5-1.7-3.3c-1.1-0.8-2.4-1.2-3.7-1.2c-1.1,0-2.1,0.3-3,0.9
	c-0.9,0.6-1.5,1.5-1.7,2.8l-3.7,23.5c-4.7-3.4-9.5-6.8-14.4-10.2c1.6-9.4,3.1-18.5,4.5-27.5c0-0.2,0-0.5,0-0.7
	c0-1.4-0.6-2.6-1.7-3.4c-1.1-0.8-2.4-1.2-3.7-1.2c-1.1,0-2.1,0.3-3,0.9c-0.9,0.6-1.5,1.5-1.7,2.8l-3.6,23.2
	c-6.3-3.9-12.1-6.5-17.4-7.7c-1.5-0.3-2.9-0.4-4.3-0.4c-3.4,0-6.2,0.8-8.5,2.5c-2.3,1.7-4,3.9-5.2,6.6c-1.2,2.7-1.8,5.7-1.8,8.8
	c0,3.8,0.9,7.5,2.7,11.3c1.8,3.7,4.5,6.8,8.1,9.3c0.9,0.5,1.8,0.8,2.6,0.8c1.1,0,2-0.3,2.9-1c0.9-0.6,1.6-1.4,2.2-2.3
	c0.5-0.9,0.8-1.7,0.8-2.5c0-0.8-0.4-1.4-1.1-1.7c-4.6-1.6-8.1-4-10.5-7.2c-2.5-3.2-3.7-6.4-3.7-9.4c0-1.6,0.3-3,1-4.2
	c0.7-1.3,1.7-2.3,3.1-3c1.4-0.8,3.2-1.1,5.4-1.1c2,0,4.3,0.4,6.9,1.1c4.7,1.5,10,4,15.6,7.6c-1.7,11.1-3.4,22.8-5.2,34.8
	c-1.7,12.1-3.2,23.1-4.4,33.2c-1.2,10.1-1.8,17.3-1.8,21.7c0,1.5,0.1,2.6,0.2,3.2c0.7,2.6,2.1,4.7,4,6.2c2,1.5,3.9,2.3,5.8,2.3
	c1.3,0,2.4-0.4,3.3-1.1c2.5-2.4,4.9-6.6,7.3-12.4s4.5-12.1,6.5-18.9c-0.6,4.6-1.2,8.4-1.6,11.3c-0.5,3.3-0.9,6-1.1,8
	c-0.2,2.1-0.4,4.2-0.4,6.3c0,1.5,0.1,2.6,0.3,3.2c0.7,2.7,2,4.7,4,6.2c1.9,1.5,3.9,2.2,5.8,2.2C168.4,280.6,169.5,280.2,170.5,279.6
	z M143.1,266.7v-0.5c0.6-13.7,1.9-27.8,3.8-42.4c2-14.6,4.2-29.1,6.6-43.6c4.6,3.2,9,6.4,13.4,9.6c0.3,0.2,0.6,0.5,1,0.7
	c-0.2,1.4-0.4,2.9-0.7,4.3c-0.5,3.8-1.4,8.9-2.5,15.2c-1.1,6.3-2.7,13-4.6,20.1c-1.9,6.9-3.9,13.5-6,19.6c-2.1,6.2-4,11.2-5.8,15.2
	c-1.8,4-3.2,5.9-4.1,5.9C143.5,271.1,143.1,269.7,143.1,266.7z M204,275c2-0.9,4.1-2.2,6.2-3.9c3.8-3.2,7.6-7.1,11.4-11.9
	c3.8-4.8,7.7-10.2,11.6-16.3c0.2-0.5,0.4-0.9,0.4-1.2c0-0.4-0.1-0.7-0.4-0.9c-0.3-0.2-0.6-0.3-1-0.3c-0.4,0-0.8,0.1-1.1,0.3
	c-0.4,0.2-0.8,0.5-1.1,0.9c-1.5,2.1-3,4.2-4.5,6.3c-2.5,3.7-5.2,7.4-8.3,11.1c-3,3.7-6.9,7.1-11.4,10.3c-1.6,1.1-3.1,1.6-4.5,1.6
	c-1,0-1.9-0.4-2.7-1.1c-0.8-0.7-1.4-1.8-1.8-3.4c-0.3-1.5-0.5-3.6-0.5-6.2c0-3,0.2-6.5,0.7-10.4c0.4-4,1.1-7.9,1.9-12
	c0.9-4,1.9-7.8,3.2-11.2c1.3-3.4,2.7-6.2,4.3-8.4c1.6-2.1,3.4-3.2,5.5-3.2h0.2c0.6,0,1.1,0.5,1.5,1.3c0.3,0.9,0.5,2,0.5,3.3
	c0,2.4-0.5,5.3-1.6,8.6c-1,3.3-2.7,6.4-4.9,9.3c-2.3,2.9-5.2,5-8.8,6.3c-0.7,0.3-1,0.6-1,0.9c0,0.4,0.4,0.7,1.1,0.9
	c0.7,0.3,1.6,0.4,2.8,0.4c1.9,0,3.8-0.3,5.8-0.8c2-0.5,4-1.4,5.9-2.7c1.9-1.3,3.6-3,5.1-5.3c1.5-2.3,2.7-5.1,3.6-8.6
	c0.4-1.7,0.6-3.4,0.6-4.9c0-2.8-0.6-5.1-1.8-7.1c-1.2-2-2.8-3.5-4.7-4.6c-1.9-1.1-4.1-1.6-6.4-1.6c-2.1,0-4.3,0.5-6.5,1.4
	c-2.2,1-4.3,2.5-6.2,4.5c-2.6,2.9-4.7,6.5-6.5,11c-1.8,4.5-3.1,9.2-4,14.3c-0.9,5-1.4,9.8-1.4,14.1c0,1.4,0,2.7,0.1,3.9
	c0.5,5.4,1.9,9.5,4.3,12.2c2.3,2.8,5.2,4.2,8.6,4.2C199.9,276.3,201.9,275.8,204,275z M262.8,286.8c2.6-3.5,5.1-8.1,7.4-13.7
	c2.3-5.6,4.4-11.4,6.1-17.5c1.7-6.1,3-11.6,3.8-16.6c0.1-0.7,0.2-1.2,0.2-1.7c0-0.7-0.1-1.1-0.4-1.4c-0.2-0.3-0.5-0.4-0.8-0.4
	c-0.4,0-0.8,0.2-1.1,0.6c-0.4,0.4-0.6,1-0.7,1.6c-1.6,8.9-3.7,17-6.2,24.2c-2.6,7.2-5.1,13.1-7.8,17.4c-2.6,4.4-4.9,6.7-6.7,7
	c-1.1,0.1-2-0.4-2.9-1.5c-0.5-1.2-0.8-2.6-0.8-4.2c0-1.7,0.2-3.7,0.7-5.8c0.5-2.1,1-4.3,1.7-6.5c0.7-2.2,1.4-4.4,2.1-6.4
	c1.1-3.2,1.9-5.9,2.4-8.1c0.2-1.2,0.4-2.3,0.4-3.3c0-1.8-0.4-3.4-1.1-4.6c-0.7-1.2-1.7-2.2-2.9-3c-1.2-0.8-2.5-1.5-4-2
	c-1.4-0.5-2.9-1-4.4-1.4c-1.8-0.5-3.5-1.1-5-1.7c-1.5-0.6-2.6-1.5-3.4-2.5c0.5-0.9,1.1-1.9,1.8-2.9c1.2-1.9,2.5-3.9,3.7-6.1
	c1.3-2.2,2.3-4.4,3.2-6.6c0.9-2.2,1.3-4.4,1.3-6.3c0-1.4-0.3-2.7-0.9-3.9c-0.6-1.2-1.5-2.3-2.8-3.2c-2.3-1.5-4.4-2.2-6.4-2.2
	c-2.6,0-4.9,1-6.9,3c-2,2-3.6,4.6-4.8,7.8c-1.1,3.2-1.7,6.6-1.7,10.2c0,2.6,0.4,5.2,1.1,7.8c0.8,2.8,2.3,5.2,4.5,7.3
	c2.2,2.1,4.8,3.7,7.9,5c0,0,0.1,0,0.1,0c1.2,0.5,2.8,1.1,4.7,1.8c1.9,0.7,3.5,1.1,5,1.4c0.1,0.1,0.1,0.2,0.1,0.4
	c0,0.4-0.2,1.1-0.5,2.1c-0.3,1-0.7,2.2-1.2,3.5c-0.7,2-1.4,4.3-2.2,6.9c-0.8,2.6-1.5,5.3-2.1,8.2c-0.6,2.9-0.9,5.6-0.9,8.4
	c0,1.7,0.2,3.4,0.5,5c0.6,2.5,2.1,4.5,4.3,6.2c2.2,1.6,4.4,2.7,6.6,3.1c0.3,0.1,0.7,0.1,1.1,0.1c0,0,0.1,0,0.1,0
	C257.6,292.1,260.2,290.4,262.8,286.8z M235.9,227c0-2.7,0.4-5.5,1.2-8.3c0.8-2.8,1.8-5.2,2.9-7.1c1.1-1.9,2.2-2.9,3.1-2.9
	c0.1,0,0.2,0,0.4,0c1,0.3,1.7,0.9,2.1,1.6c0.4,0.7,0.7,1.6,0.7,2.6c0,1.8-0.5,3.9-1.6,6.3c-1,2.4-2.2,4.7-3.5,6.8
	c-1.3,2.2-2.4,4-3.3,5.3c-0.4,0.6-0.7,1.1-0.9,1.4C236.3,231.3,235.9,229.3,235.9,227z M307.7,278c2.5-0.5,5.8-4.5,10-11.9
	c4.1-7.4,8.3-17.6,12.6-30.4c0.2-0.4,0.3-0.9,0.3-1.2c-0.1-0.8-0.4-1.2-0.9-1.2c-0.4,0-0.9,0.4-1.4,1.2
	c-3.7,11.1-7.4,19.9-11.2,26.5c-3.8,6.6-6.6,9.9-8.4,9.9c-0.5,0-0.9-0.3-1.2-0.9c-0.3-0.6-0.4-1.6-0.4-2.9c0-0.6,0-1.3,0.1-2
	c1-11,2.3-21.7,3.9-32c0-0.5-0.4-1-1-1.3c-0.7-0.3-1.5-0.6-2.4-0.8c-0.9-0.2-1.8-0.2-2.5-0.2c-1.1,0-2,0.2-2.7,0.6
	c-0.8,0.4-1.2,1.1-1.2,1.9c-0.2,3-0.7,7.6-1.6,14c-1.1,7.8-1.8,14.6-2.2,20.2v0.3c0,1.3,0.3,2.8,1,4.4c0.7,1.6,1.7,3,3,4.2
	c1.3,1.2,2.9,1.8,4.9,1.8C306.6,278.1,307.1,278.1,307.7,278z M311.1,225.3c0.7-0.8,1.2-1.7,1.4-2.8l0.7-5.8l0-0.6
	c0-0.9-0.3-1.7-0.8-2.4c-0.5-0.7-1.2-1-2-1h-3.9c-0.9,0-1.7,0.4-2.5,1.1c-0.7,0.8-1.2,1.7-1.3,2.8l-0.7,5.8l0,0.6
	c0,0.9,0.3,1.7,0.8,2.4c0.5,0.6,1.2,1,2,1h3.9C309.6,226.5,310.4,226.1,311.1,225.3z M361.6,277.7c1.8-1.6,3.6-3.8,5.5-6.6
	c1.8-2.7,3.7-5.8,5.5-9.1c1.8-3.4,3.6-6.8,5.4-10.3c2.6-5.1,5.1-9.8,7.6-14.1c0.2-0.5,0.3-0.9,0.3-1.3c0-0.5-0.1-0.8-0.4-1.1
	c-0.2-0.2-0.5-0.3-0.9-0.3c-0.3,0-0.7,0.1-1,0.3c-0.3,0.2-0.6,0.6-0.7,1c-1.9,3.4-3.9,7.2-6.1,11.4c-2.3,4.4-4.6,8.7-6.9,12.8
	c-2.3,4.1-4.4,7.6-6.3,10.4c-1.9,2.8-3.5,4.1-4.6,4.1c-0.3,0-0.5-0.1-0.7-0.3c-0.6-0.5-1-1.1-1.2-1.8c-0.2-0.7-0.3-1.4-0.3-2.2
	c0-1,0.1-1.9,0.3-2.8c0-0.1,0-0.2,0-0.4c0.5-3.6,1.1-7.1,2-10.6c0.8-3.5,1.7-6.9,2.7-10.4c1.3-4.7,2.5-9.5,3.6-14.3
	c0.4-1.8,0.6-3.8,0.6-5.9c0-1.5-0.2-3-0.6-4.4c-0.4-1.4-1-2.5-2-3.4c-1-0.9-2.3-1.3-4.1-1.3h-0.5c-2.2,0.2-4.5,1.6-7,4.1
	c-2.4,2.5-4.9,5.6-7.2,9.4c-2.4,3.7-4.6,7.5-6.7,11.4c-2.1,3.9-3.8,7.3-5.3,10.2c-0.4,0.7-0.7,1.3-1,1.9c1-5,2.6-14.3,4.6-28
	c0.4-2.2,0.7-4.4,1-6.6v-0.1c0-0.8-0.5-1.5-1.6-1.9c-1-0.5-2.2-0.7-3.4-0.7c-1.1,0-2.1,0.2-3,0.6c-0.9,0.4-1.4,1-1.5,1.8
	c-0.2,2.3-0.8,6.3-1.7,12s-1.8,11.4-2.8,17.1c-0.6,3.5-1.1,6.5-1.5,8.8c-0.4,2.4-0.6,3.7-0.6,4.1v0.4c0,1.1,0.2,1.9,0.7,2.6
	c0.5,0.7,1.1,1.2,1.8,1.6c0.7,0.3,1.5,0.5,2.3,0.5c0.8,0,1.6-0.2,2.3-0.6c1.1-0.8,2.5-2.7,4.3-5.9c1.8-3.2,3.8-6.8,5.9-11
	c1.9-3.8,3.9-7.5,5.8-11c2-3.5,3.8-6.5,5.5-8.9c1.7-2.4,3.2-3.5,4.4-3.5c0.2,0,0.4,0,0.6,0.1c0.4,0.2,0.6,0.9,0.6,1.9
	c0,1.4-0.3,3.5-0.9,6.2c-0.6,2.7-1.3,5.7-2.2,9.1c-0.7,2.9-1.5,5.8-2.2,8.9c-0.7,3-1.3,5.9-1.8,8.7c-0.5,2.8-0.7,5.3-0.7,7.4
	c0,2,0.3,3.6,0.8,4.8c1.2,2.6,2.5,4.6,3.8,5.7c1.3,1.2,2.7,1.8,4,1.8C358.1,280.1,359.8,279.3,361.6,277.7z"/>
</svg>
