<?xml version="1.0" encoding="utf-8"?>
<!-- Generator: Adobe Illustrator 18.0.0, SVG Export Plug-In . SVG Version: 6.00 Build 0)  -->
<!DOCTYPE svg PUBLIC "-//W3C//DTD SVG 1.1//EN" "http://www.w3.org/Graphics/SVG/1.1/DTD/svg11.dtd">
<svg version="1.1" id="Layer_1" xmlns="http://www.w3.org/2000/svg" xmlns:xlink="http://www.w3.org/1999/xlink" x="0px" y="0px"
	 viewBox="0 0 432 432" enable-background="new 0 0 432 432" xml:space="preserve">
<path fill="#426393" d="M210.2,265c-3.7,4.8-13.7,31.4-40.6,37.2c-6.1,1.3-11.1,0-15.2-3.1c-6.6-4.9-11.1-12.5-11.2-21.6
	c-0.1-10.3,4.3-15.4,8.3-22.3c1.2-2,0.3-1.2-5.7-7.3c-8-8.1-11.9-21.2-10.1-32.1c3.1-18.4,4-17.7-1.4-22.7c-1.2-1.1-2.7-2.3-3.8-4
	c-7.3-11.8,22.2-23.9,52,4.8c21.1,20.3,26.7,45.1,28.8,49c0.2-3-0.5-6.4,0.7-10.3c0.7-2.3,1.6-2.1,1.6-3
	c-0.2-12.1-2.9-36.7-9.6-46.1c-3.2-4.6-5.3-3.3-5-0.7c0.2,1.6,0.9,2.7,1.8,4.8c2.1,4.9-4.7,6-5.6-1.9c-0.8-6.6,4.5-10.8,9.4-5.9
	c10.3,10.2,11.4,46.4,11.7,46.9c0.9-6.4,2.6-28.3,7.5-39.6c8-18.3,16.5-0.6,11.5,3.8c-1.3,1.2-2.9,0.7-3.4-1c-0.6-1.8-0.1-4-0.7-5.6
	c-1.3-3.3-4.8,3.3-6,6.8c-3.9,10.8-5.3,30.5-6.6,38.7c0.1,0.1,0.1,0.1,0.2,0.2c5.1,3.9,1,13.5,1.4,16.3c2.2-4.5,14.1-51.6,56.8-66.5
	c21.8-7.6,26.3,2.4,23.1,10c-2.1,5.1-7,5.8-7.6,12.5c-0.6,6.9,3.4,14.9,1,28.3c-3.4,18.5-11.9,22.8-13.6,25.9
	c-0.7,1.4,0,2.2,0.9,3.4c3.6,4.9,6.5,10.2,7.3,16.4c1.6,13.8-8.6,25.4-20.8,26.9c-11.4,1.4-31.2-4.7-40.7-22.4
	c-4.2-7.8-5-13.7-6.7-16.2c-0.9,4.7-3,40.8-5.5,44.7c-1,1.5-3.6,1.6-4.4-4.8c-0.5-3.8-0.6-25.8-0.4-30.5c0.2-4,0.2-1.1,0.6-8.9
	C210.2,265.1,210.2,265,210.2,265z M281.2,185.8c-17.9,2.2-39.9,25.5-48.4,43.5c-0.4,0.9-0.5,1.7,0.2,2.2c2.2,1.3,0.9-3.7,13.5-15.2
	c20.1-18.4,36.4-18.2,40.9-24.4C289.4,189,287.5,185,281.2,185.8z M142.8,188.5c3.5,1.6,13.7,1.4,28.3,12.1
	c13.3,9.7,16.9,17.5,18.9,19.6c0.6,0.6,1.3,0,1.2-0.8c-1.4-7.6-22.4-32.1-38.5-37.4C138.8,177.4,136.8,185.9,142.8,188.5z
	 M255.8,219.7c-1.3,1.8-0.2,3.2,1,2.9c1.3-0.4,3.4-2.4,6.7-3.7c11.9-5,20.3-6.4,21.9-10.3c0.6-1.4,0.3-2.9-0.8-3.9
	C279,199.8,260.5,213.2,255.8,219.7z M152.5,288c1.2,0.9,2.7,0.4,3.4-2.3c1.5-5.9-1-13.7,2.7-24.5c0.6-1.7-1.2-2.8-2.4-0.6
	c-1.9,3.3-2,3.9-2.7,5.3C150.1,272.6,148.1,284.9,152.5,288z M271.6,293c4.6-5.5,7.4-16,4.6-16.1c-1.8,0-0.2,4.1-6,9.1
	c-2.6,2.2-4.8,3.1-7.8,5.2c-3.6,2.5-4,6.5-1.4,7.3C264.2,299.7,269.2,295.9,271.6,293z M259.1,279.1c-0.1-2.9-1.2-6.8-1.5-7.3
	c-0.5-0.9-1.6-0.7-1.9,0.7c-0.3,1.7-0.3,4.5-1.2,7.3c-1,3.4-2.7,5.6-4.1,9c-0.8,1.9-0.9,5.6,1.5,5.9c2.3,0.3,4.5-3.1,5.4-5.5
	C258.6,286.2,259.3,282.4,259.1,279.1z M170.5,293.3c0-1.2-0.1-2.2-0.9-3.8c-4.9-10.3-4.7-7.9-5.8-15.7c-0.1-0.4-0.1-0.8-0.2-1.2
	c-0.3-0.8-1.1-1-1.6-0.3c-2.1,2.6-1.5,17.4,4.1,22.2c2.1,1.8,3.7,1.3,4.2-0.2C170.4,293.9,170.5,293.5,170.5,293.3z M212.3,289
	C212.3,289,212.3,289,212.3,289c-0.4,11.9-0.7,13,0.9,13c1.6,0,1.4-2.2,1.5-5.4c0.7-15.7,0.8-18.4,0.2-21.8c-0.2-0.9-1.4-1.1-1.6,1
	C212.5,281.1,212.7,279,212.3,289z M147.5,202.3c7.4,0.8,3.6-1,11.9,1c1,0.2,2.4-1.1-0.6-3.2c-1.5-1-3-1.8-4.7-2.3
	C143.9,194.5,141.4,201.6,147.5,202.3z M181.7,289.2c-0.4-2.2-2.5-4.2-4.5-2.7c-2.7,2.1-1.3,6.9,1.6,6.6
	C180.3,293,182,291.2,181.7,289.2z M246.9,287.8c-0.4-2.2-2.5-4.2-4.5-2.7c-2.7,2.1-1.3,6.9,1.6,6.6
	C245.5,291.5,247.2,289.8,246.9,287.8z M248.4,223.9c1.4,0.1,2.6-1.2,2.8-2.8c0.1-1.6-1.4-2.7-2.5-2.8
	C245.6,218,245,223.7,248.4,223.9z M219,256.1c-0.4-0.6-1-0.4-1.6-0.1c-2.3,1.3-4.1-0.6-5.4-0.7c-1,0-1.6,1.2,0,2.5
	C215.4,260.6,220.1,257.8,219,256.1z M290.3,185.6c-0.1,1.4,1,2.7,2.3,2.8c0.9,0,2.5-1,2.5-2.6c0-1.5-0.9-2.8-2.2-2.8
	C291.5,182.9,290.4,184.1,290.3,185.6z M219.6,247c0.4-0.7-0.1-1.6-1.3-1.2c-2.9,0.9-4.8-0.8-6-0.5c-0.7,0.2-0.9,1.2,0.3,2
	C213.6,247.9,218.8,248.3,219.6,247z M143.1,204.6c-0.3,0.1-0.6,0.2-0.9,0.3c-1.2,0.7-1.8,2.7-0.5,4.1c0.8,0.9,2.1,0.9,2.9-0.2
	c0.2-0.3,0.3-0.6,0.4-0.9C145.6,206.8,144.6,204.8,143.1,204.6z M217.1,269.6c1.3-0.7,0.9-2.4-0.6-2.2c-2.7,0.3-4.7-1.3-5.1,0.4
	C210.9,269.7,215,270.8,217.1,269.6z M237.1,284c-0.2-1.3-1.7-2.6-3-1.8c-0.9,0.5-1.3,1.5-1.1,2.6C233.6,287.9,237.7,287,237.1,284z
	 M186.1,286.8c0.6,0.5,1.4,0.4,1.9-0.1c1.6-1.5,0.5-4.5-1.4-4C185,283.1,184.5,285.7,186.1,286.8z M15.4,250.3
	c3-1.4,6.2-2.5,9.7-3.3c3-0.7,6.5-1,10.4-1c3.9,0,8.1,0.7,12.5,2.1c0.4-3.1,0.6-6.1,0.7-9c0.1-2.9,0-5.5-0.2-7.9
	c-0.2-2.4-0.5-4.5-0.9-6.4c-0.4-1.9-0.9-3.3-1.5-4.4c-0.4-0.8-0.5-1.5-0.3-2.3c0.1-0.8,0.5-1.3,1-1.6c0.7-0.4,1.5-0.7,2.4-1
	c0.9-0.3,1.7-0.3,2.6-0.1c0.8,0.2,1.6,0.7,2.4,1.4c0.8,0.8,1.5,1.9,2,3.4c0.2,0.6,0.5,1.4,0.7,2.5c0.2,1.1,0.4,2.1,0.5,2.8
	c0.2,2.2,0.3,5.7,0.2,10.5c-0.1,4.8-0.8,10.3-2,16.4c2,1.7,3.9,3.8,5.5,6.3c1.7,2.5,3.1,5.5,4.2,9.1c1.1,3.5,1.9,7.6,2.4,12.2
	c0.4,4.6,0.5,9.7,0,15.5c0,0.8-0.1,1.8-0.2,3c-0.1,1-0.2,2.2-0.4,3.6c-0.1,1.4-0.3,2.9-0.5,4.7c1.8-6,3.6-11.8,5.4-17.3
	c1.8-5.5,3.6-10.4,5.5-14.7c1.8-4.3,3.7-7.8,5.5-10.5s3.6-4.3,5.3-4.9c0.9-0.3,1.9-0.3,2.9-0.1c0.8,0.2,1.5,0.6,2,1.3
	c0.6,0.7,1.1,1.5,1.4,2.5c0.4,1,0.6,2.1,0.6,3.3c0.1,1.2-0.1,2.3-0.4,3.5c-3.2,10.7-5.5,20.7-7,30c-1.5,9.3-2.5,17.5-3.1,24.6
	c-0.7,8.2-0.9,15.8-0.7,22.8c1.4-10,3-19.3,4.8-27.9c1.8-8.6,3.8-16.5,5.7-23.6c2-7.1,3.9-13.4,5.9-19c1.9-5.6,3.7-10.3,5.3-14.1
	c1.6-3.9,3-6.9,4.1-9.2c1.1-2.3,1.8-3.6,2-4.1c0.6-1.3,1.4-2.1,2.3-2.4c0.8-0.2,1.6-0.1,2.6,0.3c0.9,0.4,1.8,1.2,2.6,2.5
	c0.8,1.2,1.1,2.6,0.9,4.2c-0.3,2.2-0.7,5.7-1.2,10.5c-0.5,4.9-1.1,10.7-1.7,17.6c-0.6,6.9-1.1,14.6-1.6,23.1s-0.9,17.4-1.1,26.7
	c-0.2,9.3-0.3,18.8-0.1,28.7c0.1,9.8,0.6,19.4,1.5,28.9c0.1,1.3,0,2.6-0.4,3.8c-0.4,1.2-1,2.1-1.7,2.8c-0.8,0.8-1.8,1-2.8,0.8
	c-1.1-0.2-2-0.9-2.8-1.9c-0.4-0.5-0.8-1-1.1-1.7c-0.3-0.7-0.5-1.4-0.5-2.3c-0.2-2.8-0.4-7.8-0.8-15c-0.3-7.2-0.5-16-0.5-26.5
	s0.3-22.4,0.8-35.8c0.5-13.3,1.5-27.6,3.1-42.8c-2.2,5.1-4.2,10.5-6.1,16.3c-1.9,5.8-3.6,11.6-5.1,17.5c-1.5,5.9-3,11.7-4.2,17.4
	c-1.3,5.7-2.4,11.1-3.3,16.1c-1,5-1.7,9.5-2.4,13.5c-0.6,4-1.1,7.2-1.5,9.5c-0.2,1.6-0.7,2.9-1.5,3.9c-0.8,1-1.7,1.5-2.7,1.5
	c-1.2,0-2.3-0.3-3.2-0.8c-0.9-0.5-1.6-1.2-2.1-1.9c-1.1-1.2-1.8-3.1-1.9-5.5c-0.4-8.2-0.3-16.3,0.2-24.2c0.5-7.9,1.2-15.4,2.1-22.6
	c1-7.1,2-13.7,3.2-19.7c1.2-6,2.3-11.3,3.4-15.8c-1,1.7-2.2,4.2-3.7,7.5c-1.5,3.3-3.2,7.7-5.3,13.2c-2,5.5-4.4,12.3-7,20.4
	c-2.6,8.1-5.7,17.7-9,28.9c-1.3,4.9-2.8,10-4.5,15.3c-1.7,5.3-3.6,10.8-5.7,16.4c-0.4,1-1,1.8-1.6,2.3c-0.7,0.5-1.4,0.7-2.1,0.5
	c-0.9-0.3-1.6-0.8-2.2-1.6c-0.6-0.8-1.1-1.8-1.6-2.9c-0.4-0.8-0.5-1.6-0.6-2.5c0-0.9,0.1-1.7,0.4-2.5c4.3-11.7,7.7-22.2,10.2-31.5
	c2.5-9.3,4.4-17.3,5.7-24c1.5-7.7,2.6-14.6,3-20.7c0.2-2.3,0.4-4.6,0.4-7.1c0.1-2.1,0-4.4-0.2-7c-0.2-2.6-0.5-5.1-1.1-7.6
	c-1-4.6-2.9-8.6-5.6-11.9c-1.8,6.1-4.5,12.3-7.9,18.4c-3.4,6.1-7.9,11.6-13.6,16.4c-1.7,1.5-3.5,2.8-5.6,4c-1.8,1-3.9,2-6.5,2.8
	c-2.6,0.8-5.4,1.2-8.6,1.2c-3.9,0-7.3-1.4-10.2-4.2c-3-2.8-4.9-6.9-5.7-12.2c-0.6-5.1-0.3-10,0.8-14.6c0.5-2,1.2-4,2.1-6.2
	s2.1-4.2,3.7-6.2c1.5-2,3.4-3.8,5.6-5.6C9.6,253.2,12.3,251.6,15.4,250.3z M46.6,255.8c-4.3-1.4-8.3-2.1-12.2-2.1
	c-3.8,0-7.2,0.3-10.1,0.8c-3.4,0.7-6.5,1.6-9.3,2.8c-3.6,1.5-6.6,3.6-9.3,6.2c-1.1,1.1-2.2,2.5-3.2,4c-1,1.5-1.8,3.2-2.5,5.2
	c-0.7,1.9-1.1,4.1-1.4,6.4c-0.3,2.4-0.2,5,0.2,7.8c0.4,2.5,1.1,4.4,2.1,5.9c1.1,1.5,2.3,2.7,3.8,3.5c1.5,0.8,3.1,1.2,4.9,1.3
	s3.6-0.1,5.3-0.6c2.8-0.7,5.5-1.8,8.1-3.3c2.6-1.6,5.1-3.5,7.4-5.8c2.3-2.3,4.4-4.9,6.4-7.8c1.9-2.9,3.6-6,4.9-9.3
	c1-2.5,1.9-5,2.7-7.5C45.4,260.9,46.1,258.4,46.6,255.8z M144.2,335.1c0.5,0.7,0.7,1.6,0.6,2.8c-0.2,1.3-0.5,3.4-1.1,6.4
	c-0.6,2.9-1.3,5.9-2.3,9c-1,3.1-2.1,5.8-3.5,8.1c-1.4,2.3-3,3.5-4.9,3.5c-2.6,0.1-4.9-0.9-6.9-3c-0.8-0.8-1.6-2-2.4-3.5
	c-0.7-1.5-1.4-3.3-1.9-5.4c-0.5-2.2-0.9-4.7-1.1-7.7c-0.2-3-0.2-6.5,0.1-10.5c0.4-4.5,1.1-8.6,2.1-12.2c0.4-1.5,0.9-3,1.5-4.4
	c0.6-1.4,1.3-2.7,2-3.8c0.8-1.1,1.7-1.9,2.7-2.5s2.1-0.9,3.4-0.8c1.6,0.2,2.8,1,3.7,2.4c0.9,1.4,1.4,3.1,1.6,5.1
	c0.2,2,0.1,4.2-0.3,6.5c-0.4,2.4-1,4.6-1.9,6.7c-0.9,2.1-2,3.8-3.3,5.3c-1.3,1.5-2.8,2.3-4.4,2.5c0,1.5,0.1,3.3,0.2,5.4
	c0.2,2.1,0.4,4.1,0.9,6c0.4,1.9,1.1,3.4,2,4.6c0.9,1.2,2,1.6,3.5,1.2c0.7-0.2,1.5-1.2,2.4-3c0.9-1.8,1.7-3.9,2.4-6.3
	c0.8-2.4,1.5-4.7,2.1-7c0.6-2.3,1.1-4,1.3-5.2c0.1-0.4,0.2-0.6,0.4-0.7c0.2-0.1,0.4,0,0.6,0.1C144,334.8,144.1,335,144.2,335.1z
	 M132.9,318.9c-0.1,0-0.3,0.1-0.7,0.4c-0.3,0.2-0.7,0.8-1.1,1.8c-0.4,0.9-0.9,2.4-1.4,4.4c-0.5,2-1,4.7-1.4,8.2
	c0.7-0.5,1.4-1.2,2.3-2.3c0.9-1,1.6-2.5,2.4-4.4c0.6-1.6,1-2.9,1.1-4c0.1-1,0.1-1.9,0-2.5c-0.1-0.7-0.3-1.1-0.5-1.3
	C133.3,318.9,133,318.8,132.9,318.9z M145.2,311c0.3,0.8,0.8,1.9,1.5,3.2c0.7,1.3,1.9,2.4,3.7,3.5c0.1,0.1,0.5,0.4,1.1,0.8
	c0.6,0.4,1.3,1,2.1,1.8c0.5,0.5,1.1,1,1.6,1.6c0.6,0.6,1,1.3,1.4,2.1c0.4,0.8,0.6,1.8,0.8,2.9c0.1,1.1,0.1,2.5-0.1,4
	c-1.2,5.9-1.6,10.7-1.3,14.4c0.3,3.8,1,5.8,2.2,6.1c0.8,0.2,1.5-0.3,2.3-1.6c0.7-1.2,1.4-2.7,2.1-4.5c0.7-1.7,1.3-3.6,1.8-5.4
	c0.5-1.9,0.9-3.4,1.1-4.5c0.2-0.8,0.6-1,1.1-0.6c0.1,0.1,0.2,0.2,0.4,0.4c0.5,0.8,0.7,1.8,0.5,2.8c-0.2,1.3-0.5,3.2-1.1,5.6
	c-0.5,2.4-1.3,4.8-2.2,7.1c-1,2.4-2.1,4.4-3.4,6.2c-1.3,1.7-2.9,2.6-4.7,2.5c-2.1-0.1-3.8-1.1-5.1-3.1c-1.3-2-2.2-4.6-2.8-8
	c-0.5-3.3-0.7-7.3-0.5-11.7c0.2-4.5,0.8-9.3,1.7-14.5c-0.5,0-1,0-1.5-0.1c-0.5,0-1-0.1-1.5-0.2c0,3.4-0.2,6.5-0.7,9.4
	c-0.4,2.9-0.8,5-1.2,6.4c-0.3,1-0.8,1.7-1.5,1.8h-0.5c-0.2,0-0.4-0.1-0.6-0.4c-0.2-0.3-0.2-0.6,0-1c0.4-1.9,0.7-4.4,1-7.6
	c0.3-3.2,0.4-6.2,0.3-9.3c-1.6-0.4-2.7-1.3-3.3-2.7c-0.6-1.4-0.9-3-0.9-4.7s0.2-3.3,0.6-4.7c0.4-1.5,0.8-2.4,1.2-2.9l0.5-0.4
	c0.2-0.1,0.4-0.2,0.7-0.3c0.3-0.1,0.6-0.1,0.8,0c0.5,0.2,0.8,0.5,1.1,1.1c0.3,0.5,0.5,1.1,0.6,1.7c0.1,0.6,0.2,1.2,0.3,1.7
	C145,310.3,145.1,310.7,145.2,311z M171.5,360.8c-0.5,0.1-1,0-1.6-0.4c-0.2-0.2-0.5-0.3-0.7-0.4c-1.5-1.2-2.6-3-3.3-5.4
	c-0.7-2.4-1.2-5-1.3-8s-0.1-6.1,0.1-9.4c0.2-3.3,0.5-6.5,0.9-9.5c0.4-3,0.8-5.8,1.3-8.3c0.5-2.5,0.9-4.5,1.2-5.9
	c0.3-1.4,0.9-2.1,1.8-2.1c0.8,0,1.8,0.1,3,0.4c1.2,0.2,2.2,0.8,3.2,1.8c0.5,0.5,0.8,1.1,1,1.9c0.2,0.8,0.2,1.6,0,2.5
	c-0.5,2.4-1.1,5.6-1.8,9.8c-0.7,4.2-1.3,9-1.7,14.5c0.7-2.1,1.6-4.6,2.6-7.5c1-2.9,2.2-5.7,3.4-8.3c1.2-2.6,2.5-4.9,3.9-6.7
	c1.3-1.8,2.6-2.8,3.9-2.8c1.6,0,2.9,0.5,3.8,1.5c0.9,1,1.6,2.2,2,3.8c0.4,1.5,0.6,3.2,0.7,5c0,1.8,0,3.6-0.1,5.3
	c-0.2,1.7-0.4,3.5-0.5,5.4c-0.2,1.9-0.3,3.5-0.4,4.9c-0.1,1.4,0,2.3,0.1,2.9c0.2,0.6,0.5,0.3,1-0.7c0.4-0.7,1-2.2,2.1-4.5
	c1-2.4,2.3-5.1,3.7-8.2c1.4-3.1,3-6.3,4.7-9.6c1.7-3.3,3.5-6.2,5.2-8.7c1.7-2.5,3.4-4.4,5.1-5.6c1.6-1.2,3.1-1.3,4.3-0.1
	c0.8,0.8,1.4,1.8,2,3.3c0.5,1.2,0.8,2.8,1,4.7c0.2,1.9,0,4.4-0.5,7.4c-1.8,7.6-3.4,14.4-4.5,20.4c-0.5,2.5-1,5-1.5,7.5
	c-0.4,2.5-0.8,4.7-1,6.7c-0.2,2-0.4,3.6-0.4,4.8c0,1.2,0.2,1.9,0.5,2c0.5,0.2,1,0,1.5-0.6c0.5-0.6,1.1-1.3,1.6-2.3
	c0.6-1,1.3-2.2,1.9-3.5c0.6-1.3,1.1-2.5,1.6-3.8c0.6-1.4,1.2-2.9,1.7-4.4c0.4-1.3,0.8-2.7,1.2-4.2c0.4-1.5,0.8-2.9,1.2-4.3
	c0.4-1.4,0.6-2.7,0.9-3.8c0.2-1.1,0.4-2.1,0.6-2.8c0.1-0.4,0.2-0.6,0.4-0.7c0.2-0.1,0.4,0,0.6,0.1c0.1,0.1,0.2,0.2,0.2,0.2
	c0,0,0.1,0.1,0.2,0.2c0.5,0.8,0.7,1.7,0.5,2.8c-0.1,0.8-0.3,1.7-0.5,3c-0.2,1.2-0.5,2.6-0.8,4.2c-0.3,1.6-0.7,3.2-1.2,4.9
	c-0.4,1.7-0.9,3.4-1.5,5c-0.1,0.1-0.3,0.7-0.6,1.8s-0.8,2.4-1.5,3.9c-0.6,1.5-1.4,3.1-2.3,4.8c-0.9,1.7-1.9,3.2-2.9,4.5
	c-1.1,1.3-2.2,2.3-3.5,3c-1.3,0.7-2.6,0.7-4,0.1c-1.4-0.6-2.4-1.8-3-3.7c-0.6-1.9-1-4.2-1.1-6.9c-0.1-2.7,0.1-5.7,0.4-9
	c0.4-3.3,0.9-6.7,1.5-10c1.4-7.9,3.5-16.7,6.2-26.3c-0.4-0.1-1,0.4-1.8,1.4c-0.8,1-1.7,2.5-2.7,4.3s-2.1,3.9-3.3,6.3
	c-1.2,2.4-2.3,4.7-3.4,7.1c-1.1,2.4-2.1,4.6-3.1,6.8c-1,2.2-1.8,4-2.4,5.5c-1,2.4-1.9,4.1-2.8,5.3c-0.9,1.2-1.6,2.1-2.4,2.6
	c-0.8,0.7-1.6,1-2.3,1c-2.1,0.2-3.6-0.8-4.5-2.8c-0.9-2.1-1.5-4.5-1.7-7.4c-0.2-2.8-0.3-5.6,0-8.2c0.2-2.6,0.4-4.4,0.6-5.4
	c0.3-1.9,0.4-3,0.2-3.3c-0.1-0.2-0.2-0.2-0.4-0.1c-1.2,0.9-2.4,2.7-3.5,5.4c-1.2,2.6-2.2,5.4-3.2,8.4c-0.9,3-1.8,5.8-2.4,8.6
	c-0.7,2.7-1.1,4.7-1.4,5.8c-0.1,0.4-0.2,0.8-0.4,1.1c-0.2,0.3-0.4,0.5-0.7,0.8C172.2,360.6,171.8,360.7,171.5,360.8z M265,335.1
	c0.5,0.8,0.7,1.7,0.5,2.8c-0.1,0.8-0.3,2.1-0.6,3.8c-0.3,1.7-0.7,3.6-1.2,5.6c-0.5,2-1,4.1-1.7,6.2c-0.6,2.1-1.4,4-2.2,5.7
	c-0.8,1.7-1.8,3.1-2.8,4.2c-1,1-2.1,1.5-3.3,1.4c-2.7-0.2-4.6-2.6-5.9-7.4c-1.2-4.7-1.8-10.9-1.5-18.5c-0.8,2.4-1.7,4.9-2.8,7.5
	c-1.1,2.6-2.3,5.1-3.7,7.3c-1.3,2.2-2.8,4-4.3,5.4c-1.5,1.4-3.1,1.9-4.8,1.6c-1.7-0.3-3-1.2-3.9-2.6c-1-1.5-1.6-3.3-2-5.4
	c-0.4-2.1-0.4-4.5-0.2-7c0.2-2.5,0.6-5.1,1.2-7.7c0.6-2.6,1.3-5,2.2-7.4c0.9-2.3,1.9-4.3,3.1-5.9c1.2-1.8,2.6-3.3,4.2-4.7
	c1.5-1.3,3.1-2.2,4.6-2.7c1.5-0.5,3-0.5,4.4,0c1.4,0.5,2.6,1.6,3.7,3.3c0.1-1.2,0.3-2.4,0.5-3.5c0.2-1.1,0.4-2.3,0.6-3.5
	c0.3-1.4,0.9-2.1,1.8-2.1c0.8,0.1,1.8,0.3,3,0.7c1.2,0.4,2.2,1.1,3.2,2.1c0.4,0.5,0.6,1.1,0.8,1.8c0.2,0.7,0.2,1.4,0.1,2.2
	c-0.2,1.3-0.4,3.2-0.8,5.6c-0.3,2.4-0.7,5-1,7.8c-0.4,2.8-0.7,5.6-0.9,8.5c-0.3,2.9-0.4,5.5-0.5,7.9c-0.1,2.4,0,4.4,0.1,5.9
	c0.2,1.6,0.5,2.4,1.1,2.5c0.8,0.2,1.6-0.6,2.4-2.3c0.8-1.7,1.6-3.8,2.3-6.2s1.4-4.8,1.9-7.3c0.6-2.5,1-4.2,1.2-5.4
	c0.1-0.4,0.2-0.6,0.4-0.7c0.2-0.1,0.4,0,0.6,0.1C264.8,334.8,265,335,265,335.1z M233.6,352.6c0.4,0.1,1-0.4,1.8-1.6
	c0.8-1.1,1.6-2.6,2.6-4.4c0.9-1.8,1.9-3.8,2.9-6c1-2.2,1.9-4.3,2.8-6.3s1.6-3.7,2.2-5.2c0.6-1.5,1-2.5,1.2-3c-0.4-1-1-1.6-1.9-1.8
	c-0.9-0.2-1.9,0.1-3,0.9c-1.1,0.8-2.3,2.1-3.5,4c-1.2,1.8-2.3,4.3-3.3,7.4c-1.3,3.9-2.1,6.9-2.4,9c-0.3,2.1-0.4,3.7-0.3,4.7
	C232.7,351.6,233,352.3,233.6,352.6z M281.7,335.1c0.5,0.8,0.7,1.7,0.5,2.8c-0.1,1.1-0.2,2.7-0.5,4.6c-0.3,1.9-0.7,4-1.2,6.3
	s-1.1,4.6-1.7,6.9c-0.7,2.3-1.5,4.4-2.3,6.3c-0.9,1.9-1.8,3.4-2.8,4.6c-1,1.2-2.1,1.7-3.3,1.6c-2-0.1-3.5-1.4-4.7-3.8
	c-1.2-2.5-2-5.8-2.4-10.1c-0.4-4.3-0.4-9.4,0.1-15.4c0.4-5.9,1.3-12.4,2.5-19.4c0.2-1.5,0.7-2.2,1.7-2c0.8,0,1.8,0.2,3,0.6
	c1.2,0.4,2.2,1.1,3.2,2.1c0.4,0.5,0.6,1.1,0.8,1.8c0.2,0.7,0.2,1.4,0.1,2.2c-0.2,1.3-0.4,3.1-0.8,5.4c-0.4,2.3-0.7,4.7-1,7.4
	c-0.3,2.6-0.6,5.3-0.9,8c-0.3,2.7-0.5,5.1-0.6,7.4c-0.1,2.2-0.1,4.1,0.1,5.5c0.2,1.5,0.5,2.2,1.1,2.3c0.8,0.2,1.5-0.6,2.3-2.4
	c0.8-1.8,1.5-4,2.2-6.7c0.7-2.6,1.4-5.4,2-8.3c0.6-2.9,1-5.4,1.3-7.5c0.1-0.4,0.2-0.6,0.4-0.7c0.2-0.1,0.4,0,0.7,0.1
	C281.3,334.7,281.4,334.9,281.7,335.1z M271.2,315.8c-1-0.2-1.7-0.7-2.4-1.5c-0.6-0.8-0.9-1.7-0.8-2.8c0.1-0.9,0.5-1.6,1.2-2.1
	c0.7-0.5,1.5-0.6,2.5-0.4c0.9,0.2,1.6,0.7,2.3,1.5c0.6,0.8,0.9,1.7,0.8,2.6c-0.1,1-0.5,1.8-1.2,2.3
	C272.9,315.9,272.1,316,271.2,315.8z M300.1,355.6c-0.2-1.4-0.4-2.9-0.6-4.4c-0.1-1.5-0.3-2.9-0.4-4.2c-0.1-1.5-0.2-3-0.3-4.5
	c-0.8,2.2-1.8,4.4-2.8,6.7c-1.1,2.3-2.3,4.3-3.6,6.1c-1.3,1.8-2.7,3.2-4.1,4.3c-1.5,1.1-3,1.5-4.5,1.2c-1.7-0.3-3-1.2-3.9-2.6
	c-1-1.5-1.6-3.3-1.9-5.4c-0.3-2.1-0.4-4.5-0.2-7c0.2-2.5,0.6-5.1,1.1-7.7s1.3-5,2.3-7.4c0.9-2.3,2-4.3,3.1-5.9
	c1.1-1.6,2.3-3,3.6-4.2c1.3-1.2,2.6-2.1,4-2.8c1.3-0.7,2.6-0.9,3.9-0.8c1.3,0.1,2.4,0.6,3.5,1.6c0.5-8,1.2-15.9,2.1-23.6
	c0.9-7.7,2-14.3,3.1-19.7c1-5.2,2.2-9.7,3.6-13.6c0.5-1.6,1.1-3.2,1.8-4.7c0.7-1.5,1.4-2.8,2.2-3.9c0.8-1.1,1.6-1.9,2.5-2.4
	c0.9-0.5,1.8-0.6,2.8-0.2c1.2,0.5,2,2.1,2.5,4.9c0.5,2.8,0.7,6.3,0.6,10.6c-0.1,4.3-0.5,9.1-1.1,14.5c-0.7,5.4-1.6,10.9-2.8,16.5
	c-1.2,5.6-2.7,11.1-4.4,16.6c-1.7,5.4-3.7,10.4-5.9,14.8c-0.4,4.5-0.6,8.8-0.7,12.9c-0.1,4.1-0.1,7.6,0.1,10.8
	c0.2,3.1,0.5,5.6,1.1,7.4c0.5,1.8,1.3,2.8,2.3,2.8c0.8,0,1.6-1.2,2.5-3.5c0.9-2.4,1.7-5.1,2.5-8.1c0.8-3.1,1.5-6.1,2.1-9.1
	c0.6-3,1-5,1.3-6.2c0.2-0.8,0.6-1,1.1-0.6c0.1,0.1,0.2,0.2,0.4,0.4c0.5,0.8,0.7,1.8,0.5,2.8c-0.1,0.8-0.3,2.2-0.7,4.2
	c-0.3,1.9-0.8,4.1-1.3,6.5c-0.5,2.4-1.2,4.9-1.9,7.4c-0.7,2.5-1.5,4.9-2.4,6.9c-0.9,2.1-1.9,3.8-2.9,5.1c-1,1.3-2.2,1.9-3.3,1.8
	c-0.9,0-1.8-0.5-2.7-1.6c-0.8-0.8-1.5-2.3-2.3-4.2C301.4,362.1,300.7,359.3,300.1,355.6z M286.7,352.6c0.5,0.2,1.2-0.5,2.2-2
	c1-1.5,2.1-3.3,3.3-5.5c1.2-2.2,2.4-4.5,3.6-6.9c1.2-2.5,2.2-4.5,3-6.2c0-1.2,0-2.4,0-3.6c0-1.2,0.1-2.4,0.1-3.8
	c-0.7-0.4-1.4-0.4-2.3-0.2s-1.8,0.8-2.8,1.8c-1,1-2,2.3-2.9,4c-1,1.7-1.9,3.8-2.7,6.4c-1.3,3.9-2.1,6.9-2.4,9
	c-0.3,2.1-0.4,3.7-0.3,4.7C285.8,351.6,286.1,352.3,286.7,352.6z M312.4,279.5c-0.3,1.7-0.7,3.9-1.1,6.6c-0.4,2.7-0.9,5.7-1.3,9.1
	c-0.5,3.4-0.9,7.1-1.4,11c-0.4,3.9-0.9,7.9-1.3,11.8c2.4-6.9,4.2-13.7,5.5-20.5c1.3-6.8,2.2-12.9,2.7-18.4c0.6-6.4,1-12.5,1-18.3
	c-0.5,1.7-1,3.6-1.4,5.8c-0.5,2.2-0.9,4.2-1.3,6.1C313.3,274.9,312.8,277.2,312.4,279.5z"/>
<path fill="#BC936B" d="M435.7,238.5c-1.5,1.2-3.3,2.1-5.6,2.6c-0.8,0.2-1.7,0.4-2.6,0.5c-0.1,0.3-0.2,0.5-0.3,0.8
	c-1.2,3.6-2.7,7.1-4.9,10.4c-2.1,3.2-4.9,6.1-8.2,8.9c-0.8,0.6-1.6,1.2-2.6,1.7c-1,0.5-1.4,1.2-1.6,2c-0.5,3.4-1.1,6.8-1.8,10.2
	c-1.2,5.8-3,11.6-5,17.3c-3.7,10.9-7.5,21.8-11.3,32.7c-0.8,2.2-1.7,4.5-2.7,6.7c-0.8,1.7-1.7,3.4-2.6,5.1c-0.5,1-1.3,1.9-2.3,2.7
	c-2,1.6-4.6,1.8-7.2,0.6c-1.7-0.8-2.9-1.9-3.8-3.1c-1.4-1.7-2.4-3.4-3.1-5.3c-1.4-3.5-2.7-7.1-3.9-10.7c-3.3-9.9-6-19.8-8.3-29.8
	c-2.2-9.2-4.5-18.4-6.7-27.6c-0.2-0.8-0.5-1.7-0.7-2.5c-0.4-1.3-1.4-2.2-3-3c-6.3-3-10.6-7-12.9-11.8c-0.4-0.9-0.8-1.8-1.2-2.7
	c-0.2-0.5-0.7-0.9-1.4-1.2c-1.7-0.7-3.3-1.4-4.9-2.1c-1.1-0.5-2-1.2-2.7-2.1c-1-1.2-1.1-2.5-0.4-3.9c0.5-1.1,1.6-1.9,3.3-2.2
	c1.5-0.3,3.1-0.6,4.6-0.6c4.6-0.2,9.3-0.3,13.9-0.3c13.6,0,27.1,0.1,40.7,0.1c5.3,0,10.5-0.1,15.8-0.2c7.1-0.1,14.2,0,21.3,0.2
	c2.6,0.1,5.3,0.3,7.8,0.7c1.4,0.3,2.7,0.7,3.8,1.4C437.1,235.3,437.3,237.2,435.7,238.5z M346.7,215.4c2.9-0.3,5.9-0.3,8.8-0.1
	c4.2,0.2,8.4,0.5,12.6,0.7c6.5,0.4,12.9,0.3,19.3-0.6c2.6-0.3,5.2-0.8,7.6-1.6c3-1,5.4-2.4,6.8-4.4c4-5.5,3.6-11-0.6-16.4
	c-1.6-2.1-4.1-3.9-6.7-5.6c-2.2-1.5-4.4-2.9-6.6-4.4c-0.1-0.1-0.3-0.2-0.4-0.3c-0.3-0.1-0.6-0.1-0.7,0.2c-0.1,0.1-0.1,0.2-0.1,0.4
	c-0.5,1.7-1.8,3.1-3.5,4.3c-2.5,1.7-5.5,3-8.7,4.1c-5.8,2-11.6,3.9-17.1,6.2c-2.5,1.1-5,2.1-7.1,3.5c-5.6,3.8-6.9,8.3-5.1,13.2
	C345.5,215.5,345.6,215.5,346.7,215.4z M339.1,229.8c2.2,0,4.4,0,6.6,0c7.8,0.2,15.6,0.1,23.5-0.1c5.7-0.1,11.3-0.2,17-0.3
	c3.2,0,6.4-0.1,9.6-0.1c3,0,6-0.1,9.1,0c5.5,0.1,11.1,0.4,16.6,0.5c0.6,0,1.2,0,1.9,0c1.6-0.1,2.4-0.7,2.4-1.8
	c0-0.4-0.1-0.8-0.3-1.2c-1.2-2.9-3.3-5.4-6.6-7.5c-0.6-0.3-1.3-0.7-1.9-1c-3.1-1.6-6.6-2.8-10.1-4c-1-0.3-1.9-0.7-2.7-1.1
	c-0.8-0.3-1.1-0.4-1.9-0.1c-0.3,0.1-0.5,0.2-0.8,0.3c-4,2-8.6,3.2-13.6,3.8c-5.7,0.7-11.5,0.9-17.4,0.6c-4.8-0.2-9.5-0.5-14.2-0.8
	c-2.6-0.2-5.3-0.1-7.9,0c-4.3,0.2-7.7,1.4-10.6,3.5c-2.9,2.1-3.5,4.5-2.5,7.2C335.8,229.4,336.8,229.8,339.1,229.8z M362.1,193.3
	c0,0,0.1,0.1,0.1,0.1c0.5,0.1,1,0,1.4-0.2c1.2-0.4,2.3-0.8,3.5-1.2c3.3-1.2,6.7-2.4,9.9-3.6c1.4-0.5,2.8-1.1,3.7-2
	c0.9-0.8,1.7-1.7,2.4-2.6c1-1.2,1.2-2.5,0.9-3.9c-0.2-0.6-0.4-1.3-0.6-1.9c-0.8-2.4-0.8-4.7,0.3-7.1c0.2-0.5,0.4-0.9,0.6-1.4
	c0.2-0.6,0.4-1.2,0.5-1.8c0.1-1.5-1.3-2.3-3.6-2c-0.5,0.1-1,0.2-1.4,0.3c-4.8,1.4-8.9,3.4-11.8,6.3c-4.8,4.9-6.8,10.3-6.3,16.1
	C361.8,190.1,362,191.7,362.1,193.3z M87.1,233.4c6.6,2.3,7.2-2.8,9.9-7.5c3.9,7.4,6.8,14.3,17,14.2c1.1,0,3.9-0.7,3.7-3.8
	c-0.4-4.7-3.9-8.1-5.9-10.9c13.4,6.6,29,0.8,10.8-6.5c-22-8.8-11.6-1.2-37.1-13.4c-4.9-2.3-9.7-4.8-14.8-6.7
	c-18.5-6.9-10.4,8.1,3.7,12.1c-23.7,5.3-10.8,17.9,10.6,10.3C83.7,226.4,80.7,230.6,87.1,233.4z M121.4,204.9
	c0.6-7.9,0.4-9.9-3.1-10c1.2-9-4.1-4.9-6.2-3.6c-0.1,0-0.1-0.1-0.2-0.1c3.6-9.3,0.7-7.7,3.2-20.1c0.3-1.3-1.4-2.4-2.5-0.8
	c-7.9,12-13.6,12.3-24.6,17.9c-14.9,7.6-14.5,30.8,11,35.7C104.7,224.8,120.6,216.1,121.4,204.9z M110.2,207.1
	c0.1-0.2,0-0.4,0.1-0.7c-6.5-1.7,1.2-1.8-6.8-19.2c0,0-0.1,0-0.2-0.1c-3,5.1-5.7,10.9-9.2,9.8c-2.8,4.5-5.5,7.3-9.1,2.1
	c-1.8,1.7-1.9,13.2-0.2,18.5c3.1,2.7,7.5,4.8,13,6.1C107.1,221,107.7,214.9,110.2,207.1z M116.4,108.3l-1.6,11.6
	c-2.1,13.3-2.7,26.6-1.3,40.1c0.5,5.6,4,10.4,7.7,15.4c1.3,1.9,4,2.9,7.2,2.7c5.8-3.5,6.9-4.6,7.2-8.7c0.3-2.3,0-4.6-0.3-6.7
	c-1.6-7.9-1.1-15.4-0.3-23.1c1.1-9.2,2.7-18.5,4-27.7c0.8-5.8,2.1-11.8,2.4-17.7c1.1-16.4,1.6-32.7,2.4-49.1c0-2.3,0-4.6-0.5-6.9
	c-0.8-4.4-3.7-7.5-10.1-8.3c-4.3,0.2-6.9,1.7-8.5,3.9c-2.4,3.3-5.1,6.4-6.6,9.6L96.5,90.5c-0.5,1.2-0.3,2.9-3.7,2.7
	C89.9,85.1,87.2,77,84.3,69c-3.2-8.3-6.4-16.8-11.7-24.1c-5.1-3.3-9.3-6-13.3-8.3C52.1,34.9,47.9,37,45.8,41
	c-1.3,2.5-2.1,5.4-2.7,8.1c-0.8,4.8-1.1,9.6-1.6,14.4c-1.3,18.1-2.4,36.2,2.9,54.5c0.8,3.1,1.3,6.2,1.6,9.4
	c1.1,10.2,1.9,20.4,2.9,30.8c0.3,3.9,1.3,7.9,2.7,11.8c0.3,1.3,2.7,2.5,4.8,4c1.6-1.5,3.5-2.3,3.7-3.5c1.3-3.5,2.7-7.1,3.2-10.8
	c2.4-16.2,4.8-32.4,6.9-48.5c0.3-0.8,0.8-1.3,1.6-2.5c2.9,2.7,2.4,5.2,2.9,7.7c1.6,7.1,3.2,14.1,5,21.2c0.5,1.9,1.6,4,2.9,5.8
	c5.3,6.2,15.7,6.6,19.9,0.4c1.6-2.5,2.4-5.2,3.5-7.9l6.4-21.2c0.8-2.3,1.9-4.6,2.7-6.7C115.6,108.1,115.9,108.3,116.4,108.3z
	 M199.9,137.7c0,5-0.5,9.8-0.3,14.6c0,3.5,0.3,6.9,1.3,10.4c1.3,4.4,6.1,7.1,10.9,7.1c4.5,0,8.2-2.5,9.3-6.4
	c0.8-2.7,1.3-5.6,1.3-8.5c0.3-10,0.3-20,0.3-30.1c-0.3-14.1-0.8-28.1-1.1-42.2c-0.3-11-2.4-22-6.1-32.8c-2.1-5.6-5.3-11.2-10.9-15.6
	c-10.1-7.7-22.9-7.7-30.6,0.2c-3.2,3.1-5.3,6.9-6.9,10.6c-4.5,9.6-6.1,19.8-6.6,30.1c-0.5,12.9-2.1,25.8-4.8,38.3
	c-2.1,10.8-4,21.4-3.7,32.4c0,10.6,1.1,21.2,2.1,31.8c1.9,0.8,3.2,1.3,4.3,1.9c5.6-1.3,5.8-4.8,6.9-7.7l8.8-32.4
	c0.8-2.5,1.6-4.8,2.4-7.5c7.7-0.4,14.6,0,22.9,0.2C199.6,135,199.9,136.4,199.9,137.7z M180.5,116.2c-0.5-1.3-1.1-2.1-1.1-2.9
	c1.6-14.3,2.9-28.3,4.8-42.6c0.8-5.8,2.4-11.2,3.7-16.8c0.3-1.3,1.3-2.5,2.7-4.6c1.6,2.5,2.9,3.9,3.5,5.6
	c3.2,11.2,5.8,22.2,4.8,33.5c-0.5,6,0.3,11.9,0.3,18.1c0,2.5,0,5,0.3,8.7C192.2,115.6,186.6,116,180.5,116.2z M312,108.3l-1.6,11.6
	c-2.1,13.3-2.7,26.6-1.3,40.1c0.5,5.6,4,10.4,7.7,15.4c1.3,1.9,4,2.9,7.2,2.7c5.8-3.5,6.9-4.6,7.2-8.7c0.3-2.3,0-4.6-0.3-6.7
	c-1.6-7.9-1.1-15.4-0.3-23.1c1.1-9.2,2.7-18.5,4-27.7c0.8-5.8,2.1-11.8,2.4-17.7c1.1-16.4,1.6-32.7,2.4-49.1c0-2.3,0-4.6-0.5-6.9
	c-0.8-4.4-3.7-7.5-10.1-8.3c-4.3,0.2-6.9,1.7-8.5,3.9c-2.4,3.3-5.1,6.4-6.6,9.6l-21.5,47.4c-0.5,1.2-0.3,2.9-3.7,2.7
	c-2.9-8.1-5.6-16.2-8.5-24.3c-3.2-8.3-6.4-16.8-11.7-24.1c-5.1-3.3-9.3-6-13.3-8.3c-7.2-1.7-11.4,0.4-13.6,4.4
	c-1.3,2.5-2.1,5.4-2.7,8.1c-0.8,4.8-1.1,9.6-1.6,14.4c-1.3,18.1-2.4,36.2,2.9,54.5c0.8,3.1,1.3,6.2,1.6,9.4
	c1.1,10.2,1.9,20.4,2.9,30.8c0.3,3.9,1.3,7.9,2.7,11.8c0.3,1.3,2.7,2.5,4.8,4c1.6-1.5,3.5-2.3,3.7-3.5c1.3-3.5,2.7-7.1,3.2-10.8
	c2.4-16.2,4.8-32.4,6.9-48.5c0.3-0.8,0.8-1.3,1.6-2.5c2.9,2.7,2.4,5.2,2.9,7.7c1.6,7.1,3.2,14.1,5,21.2c0.5,1.9,1.6,4,2.9,5.8
	c5.3,6.2,15.7,6.6,19.9,0.4c1.6-2.5,2.4-5.2,3.5-7.9l6.4-21.2c0.8-2.3,1.9-4.6,2.7-6.7C311.2,108.1,311.5,108.3,312,108.3z
	 M395.4,137.7c0,5-0.5,9.8-0.3,14.6c0,3.5,0.3,6.9,1.3,10.4c1.3,4.4,6.1,7.1,10.9,7.1c4.5,0,8.2-2.5,9.3-6.4
	c0.8-2.7,1.3-5.6,1.3-8.5c0.3-10,0.3-20,0.3-30.1c-0.3-14.1-0.8-28.1-1.1-42.2c-0.3-11-2.4-22-6.1-32.8c-2.1-5.6-5.3-11.2-10.9-15.6
	c-10.1-7.7-22.9-7.7-30.6,0.2c-3.2,3.1-5.3,6.9-6.9,10.6c-4.5,9.6-6.1,19.8-6.6,30.1c-0.5,12.9-2.1,25.8-4.8,38.3
	c-2.1,10.8-4,21.4-3.7,32.4c0,10.6,1.1,21.2,2.1,31.8c1.9,0.8,3.2,1.3,4.3,1.9c5.6-1.3,5.8-4.8,6.9-7.7l8.8-32.4
	c0.8-2.5,1.6-4.8,2.4-7.5c7.7-0.4,14.6,0,22.9,0.2C395.2,135,395.4,136.4,395.4,137.7z M376,116.2c-0.5-1.3-1.1-2.1-1.1-2.9
	c1.6-14.3,2.9-28.3,4.8-42.6c0.8-5.8,2.4-11.2,3.7-16.8c0.3-1.3,1.3-2.5,2.7-4.6c1.6,2.5,2.9,3.9,3.5,5.6
	c3.2,11.2,5.8,22.2,4.8,33.5c-0.5,6,0.3,11.9,0.3,18.1c0,2.5,0,5,0.3,8.7C387.7,115.6,382.1,116,376,116.2z"/>
</svg>
