<?xml version="1.0" encoding="utf-8"?>
<!-- Generator: Adobe Illustrator 18.0.0, SVG Export Plug-In . SVG Version: 6.00 Build 0)  -->
<!DOCTYPE svg PUBLIC "-//W3C//DTD SVG 1.1//EN" "http://www.w3.org/Graphics/SVG/1.1/DTD/svg11.dtd">
<svg version="1.1" id="Layer_1" xmlns="http://www.w3.org/2000/svg" xmlns:xlink="http://www.w3.org/1999/xlink" x="0px" y="0px"
	 viewBox="0 0 432 432" enable-background="new 0 0 432 432" xml:space="preserve">
<path fill="#6F91BD" d="M50.9,380.2c-4.8-0.2-8.9-0.5-13.4-0.2c-0.5,2.4-0.9,4.4-1.4,6.6L31,415.2c-0.6,2.6-0.8,5.6-4.1,6.8
	c-0.6-0.5-1.4-1-2.5-1.7c-0.6-9.4-1.2-18.7-1.2-28.1c-0.2-9.7,0.9-19,2.2-28.6c1.6-11.1,2.5-22.4,2.8-33.8c0.3-9,1.2-18,3.9-26.5
	c0.9-3.2,2.2-6.6,4-9.4c4.5-7,12-7,17.9-0.2c3.3,3.9,5.1,8.8,6.4,13.8c2.2,9.5,3.4,19.2,3.6,28.9c0.2,12.4,0.5,24.8,0.6,37.2
	c0,8.8,0,17.7-0.2,26.5c0,2.6-0.3,5.1-0.8,7.5c-0.6,3.4-2.8,5.6-5.5,5.6c-2.8,0-5.6-2.4-6.4-6.3c-0.6-3.1-0.8-6.1-0.8-9.2
	c-0.2-4.3,0.2-8.5,0.2-12.9C51.3,383.7,51.1,382.5,50.9,380.2z M50.9,365c-0.2-3.2-0.2-5.4-0.2-7.7c0-5.4-0.5-10.7-0.2-16
	c0.6-10-0.9-19.7-2.8-29.6c-0.3-1.5-1.1-2.7-2-4.9c-0.8,1.9-1.4,2.9-1.6,4.1c-0.8,4.9-1.7,9.7-2.2,14.8c-1.1,12.6-1.9,25-2.8,37.6
	c0,0.7,0.3,1.4,0.6,2.6C43.5,365.7,46.7,365.4,50.9,365z M84,419.1l-5.6-3.7c-2.8-5.1-4.2-10.5-4.4-16.3c-0.9-18.7-2-37.2-1.2-55.8
	c0.2-6-0.2-12.1,0-18c0.3-8.7,1.9-17,6.1-24.3c6.2-10.9,18.6-13.3,27.9-5.4c3.9,3.1,6.7,7,8.3,11.9c1.9,5.3,2.8,10.7,2,16.2
	c-1.4,8.7-3,17.3-6.2,25.3c-2.2,4.9-5,9.5-7.8,14.8c0,0,0.3,1,0.6,1.7c6.4,10.7,9.2,22.8,11.7,35c1.1,5.4,0,10.4-2,15.1
	c-0.6,1.2-1.7,2-2.8,3.6c-1.2-1.5-2.6-2.6-3.3-3.9c-1.7-3.7-3.3-7.8-4.5-11.9c-2-6.3-3.4-12.8-5.3-19.2c-1.2-4.1-2.8-8-5.3-11.2
	c-1.9,0.3-1.4,1.9-1.4,2.9c-0.2,4.8,0,9.5-0.2,14.3c-0.2,7.8-1.1,15.6-3,23.3C87,415.5,86.3,417.9,84,419.1z M94.9,305.5
	c-3,3.6-3.6,7.7-3.7,11.6c-0.3,9.7-0.3,19.6-0.5,29.3c0,1.2-0.2,2.4,1.4,3.2c3-2.7,4.2-7,6.4-10.4c4.5-7.3,4.4-15.3,2.8-23.3
	C100.5,311.8,99.1,308.1,94.9,305.5z M143.4,338.2c1.9-0.2,3.6-0.5,5.3-0.5c1.4-0.2,3-0.2,4.4,0.3c3.7,1.2,5.6,5.6,3.7,9.2
	c-1.4,2.9-3.4,5.6-6.9,6.5c-2.3,0.3-4.5,1-6.2,3.2c0.2,13.8,0.2,27.5,0.2,41.8c0.9,0,2,0.3,3.3,0.3c2,0.2,3.9-0.2,5.8,0.2
	c2.7,0.5,4.5,2.2,5.3,5.1c0.8,2.9-0.2,5.1-2.2,6.6c-2,1.4-4.1,2.9-6.2,3.2c-4.7,0.8-9.2,2-12.9,5.1c-0.8,0.7-1.9,1-3,1.2
	c-5,1-8.6-3.1-7.5-8.5c0.3-1.4,0.9-2.6,1.4-3.6c0-0.7,0.2-1.2,0-1.7c-2-7.3-2.6-14.8-2.2-22.3c1.1-23.5,0.2-46.9-0.5-70.6
	c0-3.7,0-7.5,0.2-11.2c0.2-5.4,2.7-9,7.5-10.5c2-0.5,4.2-1,6.1-1.7c5.1-2,9.8-0.7,14.3,2.2c2.2,1.4,3.4,3.2,3.4,5.8
	c0.2,2.6-1.1,4.6-3.1,5.4c-1.7,0.8-3.6,1.2-5.5,1.7c-1.9,0.3-3.7,0.5-6.1,0.9c-0.6,5.4,0.2,10.7,0.3,16.2
	C142.6,327.6,141.7,332.7,143.4,338.2z M218.2,399.9c4.1,0,7-0.2,10.1,0c5.3,0.2,10.3,2.2,14.5,6.1c2.7,2.4,3.6,5.6,2.7,8.7
	c-0.9,3.1-3.6,5.1-7,4.9c-2.2-0.2-4.4-0.7-6.5-1.2c-8.3-2.4-16.2-2.4-24.2,1.2c-5.3,2.2-7.5,0.5-9.8-6.8c0.3-1,0.5-2.2,0.9-3.6
	c0.2-1,0.6-2,0.8-2.6c-3.4-17.5-4.4-34.5-3.3-51.7c0.9-18,2.3-36.1,3.6-54.2c0.2-1.9,0.3-3.7,0.8-5.6c1.7-6.1,7.3-7.5,11.7-2.9
	c2.5,2.6,4.1,5.6,4.4,9.4c0.5,6.3,0.8,12.4,0.9,18.7c0.2,20.6-1.4,41.2,0.3,61.9c0.3,3.4,0,7,0,10.5
	C218.1,394.8,218.2,397,218.2,399.9z M243.3,376.9c-1.6-20.9-0.2-41.3,4.1-61.2c1.2-6.3,3.6-12.1,6.9-17.3c2-3.1,4.5-5.6,8.4-5.8
	c1.2-0.2,2.3-0.7,3.4-1c7.8-2.2,14.5,0.5,19.3,8.5c3.6,6.3,6.1,12.9,6.7,19.9c0.6,5.1,0.6,10,0.6,15c0.2,23.1-2.2,45.4-8.6,66.7
	c-0.8,2.6-1.6,5.3-2.7,7.8c-1.4,3.2-3.4,5.8-6.4,7.7c-5.1,3.2-10.4,2.7-15.7-1.4c-3.9-2.9-6.9-6.8-8.9-11.4
	C246.6,395.5,243.8,386.5,243.3,376.9z M266.4,402.8c0.9-0.5,1.4-0.7,1.6-1.2c0.5-1,0.9-2.4,1.2-3.6c4.5-14.3,5.8-29.6,8-44.6
	c1.2-9,0.3-18.4-1.4-27.5c-0.6-3.1-1.9-6.3-3.1-9.2c-0.5-1.4-1.7-2.4-2.7-3.6c-4.2,1.4-6.4,4.1-7.6,7.7c-0.9,2.9-1.6,6-2.2,9
	c-2.2,13.8-1.9,27.9-1.1,42.2c0.5,6.6,1.4,13.3,2.3,19.9C262,395.6,262.5,399.9,266.4,402.8z M334.7,331.7c-0.9-1-2.5-2.6-3.3-4.3
	c-2-4.8-4.8-9.5-5.1-14.6c-0.2-2.9-0.8-6-4.5-8.3c-1.1,1-2.7,1.7-3,2.7c-0.6,2.4-0.9,4.9-0.5,7.3c0.3,2.7,1.6,5.4,2.8,8
	c2.3,4.3,4.7,8.7,7.5,12.8c6.9,9.9,11.4,20.6,13.6,31.5c3.1,14.1,3,28.2-1.6,41.7c-0.6,1.9-1.4,3.7-2.6,5.4
	c-3.7,5.4-10.6,7-17.9,3.7c-2.7-1.2-5.1-2.7-7.3-4.6c-5.9-4.8-9.5-10.5-11.2-17.2c-2.5-9.9-3.1-19.6-1.9-29.2
	c0.5-4.1,2-7.7,4.2-11.2c1.7-2.7,4.2-4.8,8.3-5.1c4.5,0.8,6.4,3.7,7,7.1c0.5,2,0.3,4.1,0.2,6.1c-0.3,6.1-0.9,12.1-0.9,18.2
	c-0.2,4.3,0.3,8.7,0.8,12.9c0.3,2.7,1.6,5.3,5.3,6.8c3.3-2.6,4.2-6,4.5-9.5c0.6-8.2-0.6-16.3-2.7-24.5c-3.4-13.6-10.9-26-19.3-38.1
	c-2.8-4.1-5.1-8.3-6.2-12.9c-1.9-9.5,1.7-17,8.6-23.3c4.4-3.9,12.2-4.2,18.6-1.4c4.7,2.2,8.1,5.3,10.6,9c4.4,7.1,6.4,14.5,6.5,22.1
	c0.2,2.7-0.6,5.4-2.7,7.5C340.6,332.2,338.4,333.1,334.7,331.7z M375.8,418.1c-2.7-0.7-3.3-2.6-3.4-4.4c-0.8-7.8-1.6-15.6-2.2-23.6
	c-0.3-1.9,0.2-3.7,0-5.6c-1.6-20.7-0.9-41.2-1.1-61.7c0-4.3,0-8.7-0.5-12.9c-2.6-1.2-4.8-0.5-7,0c-2.3,0.3-4.8,0.9-7.3,0.9
	c-3.9,0-6.6-2.2-7.5-5.6c-1.1-3.6,0.6-7.3,4.5-8.8c2.2-0.9,4.7-1.5,7-1.9c9.4-1.2,18.6-2.7,28.2-0.7c3.4,0.8,7,0.3,10.4,0.5
	c2,0.2,4.1,0.2,5.9,0.7c2.8,0.8,5,3.7,5.3,6.6c0.3,2.7-1.1,6-3.7,7c-2,0.9-4.4,1.4-6.5,1.4c-4.7,0.2-9.4,0-14.7,0v3.9
	c0,6,0.2,12.1,0.3,18c0.2,26.7-1.7,53.4-5.3,79.6C378,413.8,378,416.7,375.8,418.1z M84.3,84.8c1.1-9.9,0.8-18.7,0.8-27.5
	C85,47.4,84.9,37.3,85,27.5c0-3.4,0.5-6.8,1.2-10c0.5-2.9,1.6-5.6,4.9-6c0.5,0.5,1.6,0.8,1.9,1.7c2.5,6,5.2,11.9,5.1,18.7
	c-0.4,16.5-0.4,33.2-0.5,49.7c-0.1,7.3-0.1,14.5-0.5,21.6c-0.4,5.6-1.5,11.1-2.3,16.5c-0.4,2.7-1.9,4.2-3.9,4.4
	c-8.1-0.5-11.7-6-13.9-14.3C73.9,98.2,70.2,87,66.9,75.6c-0.3-0.8-0.8-1.7-1.9-3.9c-0.8,22.3-2.1,43-5.6,63.3c-0.1,0.5-0.7,1-1.3,2
	c-1.1-1-2.4-1.7-2.8-2.9c-1.1-3.2-2.1-6.8-2.4-10.2c-0.7-10.4-1.2-20.9-1.3-31.3c-0.1-12.2,0.1-24.3,0.3-36.4l0.4-37.1
	c0.1-2.4,0.4-4.9,1.2-7.1c1.9-5.6,7.1-6.1,10.7-1c1.6,2.2,2.8,5.3,3.7,8.2c4.1,12.9,6.9,26.2,9.7,39.6c1.6,7.1,3.5,14.1,5.1,21.3
	C83,81.2,83.4,82.4,84.3,84.8z M105.2,94.1c-1.3-20.9-0.1-41.3,3.5-61.2c1.1-6.3,3.1-12.1,5.9-17.3c1.7-3.1,3.9-5.6,7.2-5.8
	c1.1-0.2,2-0.7,2.9-1c6.7-2.2,12.4,0.5,16.5,8.5c3.1,6.3,5.2,12.9,5.7,19.9c0.5,5.1,0.5,10,0.5,15c0.1,23.1-1.9,45.4-7.3,66.7
	c-0.7,2.6-1.3,5.3-2.3,7.8c-1.2,3.2-2.9,5.8-5.5,7.7c-4.4,3.2-8.9,2.7-13.5-1.4c-3.3-2.9-5.9-6.8-7.6-11.4
	C108,112.7,105.6,103.7,105.2,94.1z M125,120c0.8-0.5,1.2-0.7,1.3-1.2c0.4-1,0.8-2.4,1.1-3.6c3.9-14.3,4.9-29.6,6.8-44.6
	c1.1-9,0.3-18.4-1.2-27.5c-0.5-3.1-1.6-6.3-2.7-9.2c-0.4-1.4-1.5-2.4-2.3-3.6c-3.6,1.4-5.5,4.1-6.5,7.7c-0.8,2.9-1.3,6-1.9,9
	c-1.9,13.8-1.6,27.9-0.9,42.2c0.4,6.6,1.2,13.3,2,19.9C121.2,112.8,121.6,117.1,125,120z M173.9,135.3c-2.3-0.7-2.8-2.6-2.9-4.4
	c-0.7-7.8-1.3-15.6-1.9-23.6c-0.3-1.9,0.1-3.7,0-5.6c-1.3-20.7-0.8-41.2-0.9-61.7c0-4.3,0-8.7-0.4-12.9c-2.3-1.2-4.1-0.5-6,0
	c-2,0.3-4.1,0.9-6.3,0.9c-3.3,0-5.6-2.2-6.4-5.6c-0.9-3.6,0.5-7.3,3.9-8.8c1.9-0.9,4-1.5,6-1.9c8-1.2,15.9-2.7,24.1-0.7
	c2.9,0.8,6,0.3,8.9,0.5c1.7,0.2,3.5,0.2,5.1,0.7c2.4,0.8,4.3,3.7,4.5,6.6c0.3,2.7-0.9,6-3.2,7c-1.7,0.9-3.7,1.4-5.6,1.4
	c-4,0.2-8,0-12.5,0v3.9c0,6,0.1,12.1,0.3,18c0.1,26.7-1.5,53.4-4.5,79.6C175.7,131,175.7,133.9,173.9,135.3z M257.4,97.4
	c-4.1-0.2-7.6-0.5-11.5-0.2c-0.4,2.4-0.8,4.4-1.2,6.6l-4.4,28.6c-0.5,2.6-0.7,5.6-3.5,6.8c-0.5-0.5-1.2-1-2.1-1.7
	c-0.5-9.4-1.1-18.7-1.1-28.1c-0.1-9.7,0.8-19,1.9-28.6c1.3-11.1,2.1-22.4,2.4-33.8c0.3-9,1.1-18,3.3-26.5c0.8-3.2,1.9-6.6,3.5-9.4
	c3.9-7,10.3-7,15.3-0.2c2.8,3.9,4.4,8.8,5.5,13.8c1.9,9.5,2.9,19.2,3.1,28.9c0.1,12.4,0.4,24.8,0.5,37.2c0,8.8,0,17.7-0.1,26.5
	c0,2.6-0.3,5.1-0.7,7.5c-0.5,3.4-2.4,5.6-4.7,5.6c-2.4,0-4.8-2.4-5.5-6.3c-0.5-3.1-0.7-6.1-0.7-9.2c-0.1-4.3,0.1-8.5,0.1-12.9
	C257.7,100.9,257.5,99.7,257.4,97.4z M257.4,82.2c-0.1-3.2-0.1-5.4-0.1-7.7c0-5.4-0.4-10.7-0.1-16c0.5-10-0.8-19.7-2.4-29.6
	c-0.3-1.5-0.9-2.7-1.7-4.9c-0.7,1.9-1.2,2.9-1.3,4.1c-0.7,4.9-1.5,9.7-1.9,14.8c-0.9,12.6-1.6,25-2.4,37.6c0,0.7,0.3,1.4,0.5,2.6
	C251,82.9,253.8,82.6,257.4,82.2z M294.8,117.1c3.5,0,6-0.2,8.7,0c4.5,0.2,8.8,2.2,12.4,6.1c2.3,2.4,3.1,5.6,2.3,8.7
	c-0.8,3.1-3.1,5.1-6,4.9c-1.9-0.2-3.7-0.7-5.6-1.2c-7.1-2.4-13.9-2.4-20.7,1.2c-4.5,2.2-6.4,0.5-8.4-6.8c0.3-1,0.4-2.2,0.8-3.6
	c0.1-1,0.5-2,0.7-2.6c-2.9-17.5-3.7-34.5-2.8-51.7c0.8-18,2-36.1,3.1-54.2c0.1-1.9,0.3-3.7,0.7-5.6c1.5-6.1,6.3-7.5,10-2.9
	c2.1,2.6,3.5,5.6,3.7,9.4c0.4,6.3,0.7,12.4,0.8,18.7c0.1,20.6-1.2,41.2,0.3,61.9c0.3,3.4,0,7,0,10.5
	C294.7,112,294.8,114.2,294.8,117.1z M340.1,117.1c3.5,0,6-0.2,8.7,0c4.5,0.2,8.8,2.2,12.4,6.1c2.3,2.4,3.1,5.6,2.3,8.7
	c-0.8,3.1-3.1,5.1-6,4.9c-1.9-0.2-3.7-0.7-5.6-1.2c-7.1-2.4-13.9-2.4-20.7,1.2c-4.5,2.2-6.4,0.5-8.4-6.8c0.3-1,0.4-2.2,0.8-3.6
	c0.1-1,0.5-2,0.7-2.6c-2.9-17.5-3.7-34.5-2.8-51.7c0.8-18,2-36.1,3.1-54.2c0.1-1.9,0.3-3.7,0.7-5.6c1.5-6.1,6.3-7.5,10-2.9
	c2.1,2.6,3.5,5.6,3.7,9.4c0.4,6.3,0.7,12.4,0.8,18.7c0.1,20.6-1.2,41.2,0.3,61.9c0.3,3.4,0,7,0,10.5
	C340,112,340.1,114.2,340.1,117.1z"/>
<path fill="#BC936B" d="M64.2,179.3c0,0.9,0,1.9,0,3c-0.1,1.1-0.1,2.2-0.2,3.5l-0.2,3.6c0,0.1,0,0.4-0.1,0.8c0,0.5-0.1,1.5-0.3,3.1
	c-0.1,1.6-0.4,4.1-0.7,7.4c-0.3,3.3-0.8,7.9-1.4,13.8c-0.4,3.7-0.8,7.9-1.2,12.4c-0.4,4.5-0.9,9.5-1.5,15c-0.2,2.5-0.5,4.9-0.7,7.1
	c-0.2,2.3-0.4,4.4-0.6,6.3c-0.3,3.1-0.6,5.6-0.8,7.7c-0.2,2-0.3,3.3-0.4,3.7c-0.2,2-0.5,4-0.9,5.8c-0.4,1.8-0.8,2.8-1.2,3.1H54
	c-0.4,0-0.8-0.5-1-1.5c-0.2-1-0.4-1.9-0.4-2.6c-0.1-0.5-0.2-1.5-0.3-3.1c-0.2-1.6-0.3-3.3-0.5-5.2c-0.2-1.9-0.3-3.6-0.5-5.3
	c-0.2-1.6-0.3-2.6-0.3-3l-0.1-0.2L49.6,233c-0.1-0.7-0.1-1.4-0.1-2.1c0-0.7-0.1-1.5-0.1-2.3c0-0.8-0.1-1.6-0.1-2.3
	c0-0.7-0.1-1.4-0.1-2.1c-0.1-0.9-0.1-1.8-0.2-2.6c0-0.8-0.1-1.6-0.2-2.4c0-0.2-0.1-0.5-0.1-0.8c0-0.3,0-0.6-0.1-0.9
	c0,0.6-0.1,1.2-0.1,1.9c0,0.7-0.1,1.4-0.2,2c0,0.6-0.1,1.2-0.1,1.8c0,0.6-0.1,1.3-0.1,2c-0.1,0.7-0.1,1.4-0.1,2.1
	c0,0.7-0.1,1.6-0.1,2.5c-0.1,0.9-0.1,1.7-0.2,2.4c-0.1,0.7-0.1,1.3-0.2,1.9c-0.1,0.7-0.2,1.4-0.2,2.1c-0.1,0.7-0.2,1.6-0.2,2.5
	c-0.1,0.9-0.1,1.8-0.2,2.6c-0.1,0.9-0.1,1.7-0.2,2.5c-0.1,0.9-0.1,1.8-0.2,2.6c0,0.8-0.1,1.6-0.2,2.6l-0.4,4.6
	c-0.2,3.4-0.4,6.3-0.6,8.8c-0.2,2.4-0.3,3.9-0.3,4.3c-0.1,1.7-0.2,3.3-0.5,4.8c-0.3,1.5-0.6,2.7-1,3.5c-0.3,0.5-0.6,0.7-1,0.7
	s-0.8-0.2-1.2-0.6c-0.4-0.4-0.7-0.9-0.9-1.6c-0.1-0.3-0.2-1.1-0.4-2.2c-0.2-1.1-0.4-2.4-0.6-3.8c-0.2-1.4-0.4-2.8-0.6-4.2
	c-0.2-1.4-0.3-2.4-0.4-3.1c0-0.2-0.2-1.2-0.4-2.9c-0.2-1.7-0.5-4.2-0.8-7.5c-0.2-1.9-0.4-4.2-0.6-7c-0.2-2.7-0.5-5.7-0.8-8.8
	c-0.3-3.2-0.6-6.3-0.8-9.4c-0.3-3.1-0.5-6.1-0.8-9.1c-0.4-4.5-0.8-8.2-1-11c-0.2-2.8-0.4-4.6-0.5-5.4c-0.2-1.4-0.3-3.1-0.4-5.2
	c-0.1-2.1-0.2-4.3-0.2-6.5c0-2.2-0.1-4.2-0.1-6c0-1.8,0-3.1,0.1-3.7c0.1-1.2,0.3-2.3,0.7-3.1c0.4-0.8,0.8-1.6,1.3-2.3
	c0,0,0.1-0.1,0.1-0.2c0.1-0.2,0.3-0.3,0.7-0.3c0.5,0,0.9,0.2,1.2,0.5c0.6,0.3,1,1.8,1.5,4.3c0.2,0.7,0.3,1.3,0.3,2
	c0.1,0.6,0.1,1.2,0.2,1.8c0,0.5,0.1,0.9,0.1,1.3c0,0.4,0.1,0.9,0.2,1.4c0.1,0.6,0.2,1.4,0.3,2.6c0.1,1.1,0.2,2.3,0.4,3.5
	c0.1,1.2,0.2,2.3,0.3,3.4c0.1,1.1,0.1,1.9,0.1,2.5c0,0.3,0.1,1.7,0.3,4.2c0.2,2.4,0.5,6,0.9,10.8c0.2,2.6,0.4,5.4,0.6,8.4
	c0.2,3,0.5,6.2,0.8,9.4c0.2,3.1,0.5,5.9,0.7,8.4c0.2,2.6,0.4,4.6,0.5,6.2c0.1-0.6,0.1-1.1,0.1-1.7c0-0.6,0.1-1.2,0.1-1.9v-0.2
	c0.1-1,0.2-2.1,0.3-3.2c0.1-1.1,0.2-2.3,0.3-3.6l0.3-4.1l0.4-4.6c0.1-0.7,0.1-1.4,0.2-2s0.1-1.3,0.2-1.9c0.1-0.6,0.1-1.2,0.2-1.8
	c0-0.6,0.1-1.2,0.1-1.8c0.2-2.3,0.4-4.3,0.5-6s0.2-3.1,0.3-4v-0.7c0-0.1,0-0.2,0.1-0.2c0-0.2,0-0.7,0.1-1.5c0.1-0.8,0.2-1.6,0.3-2.5
	s0.2-1.6,0.4-2.4c0.1-0.7,0.2-1.3,0.3-1.6c0.2-0.6,0.4-1,0.7-1.3c0.3-0.3,0.5-0.4,0.8-0.4c0.2,0,0.4,0.1,0.5,0.4
	c0.1,0.3,0.2,0.5,0.3,0.8c0,0,0.1,0,0.1,0.1s0,0.1,0.1,0.1c0.2,0.9,0.4,1.9,0.5,3.1l0.1,0.7c0,0.1,0,0.3,0,0.5
	c0,0.2,0.1,0.7,0.1,1.3c0.1,0.6,0.1,1.5,0.3,2.7s0.3,2.8,0.5,4.8c0,0.3,0.1,0.7,0.1,1c0,0.3,0.1,0.7,0.1,1.2c0,0.3,0.1,0.7,0.1,1.1
	c0,0.4,0.1,0.9,0.1,1.4c0.1,0.6,0.1,1.2,0.2,1.9c0,0.7,0.1,1.4,0.2,2c0.1,0.6,0.1,1.2,0.2,1.9c0,0.7,0.1,1.3,0.2,1.9
	c0.2,1.6,0.3,3.5,0.5,5.6c0.2,2.2,0.3,3.9,0.5,5.3c0.1-0.9,0.2-2,0.3-3.3c0.1-1.3,0.3-2.9,0.4-4.8c0.1-1.5,0.2-3,0.4-4.5
	c0.1-1.5,0.3-3.1,0.4-4.7c0.2-2.9,0.5-6,0.8-9.1c0.3-3.1,0.5-6,0.7-8.7c0.2-2.7,0.4-5,0.6-6.9c0.2-1.9,0.3-3.2,0.3-3.9
	c0.2-2.6,0.5-5.2,0.9-7.7c0.4-2.6,0.8-4.4,1.1-5.7c0-0.2,0-0.4,0-0.4c0-0.1,0-0.1,0-0.3c0.3-1.5,0.7-2.3,1.1-2.6s0.8-0.3,1-0.3
	c0.6,0,1.2,1.1,1.9,3.2c0.3,0.9,0.4,1.8,0.5,2.6c0.1,0.8,0.1,1.7,0.1,2.6C64.2,178.5,64.2,178.8,64.2,179.3z M85.2,279.3
	c-0.2,0.9-0.4,1.5-0.7,1.9c-0.2,0.2-0.4,0.3-0.6,0.3c-0.2,0-0.4-0.1-0.6-0.2c-0.2-0.1-0.4-0.3-0.6-0.5c-0.3-0.5-0.7-1.4-1.1-2.7
	c-0.1-0.2-0.2-0.5-0.3-0.7s-0.1-0.4-0.2-0.5c-0.2-0.6-0.5-1.4-0.8-2.6c-0.3-1.1-0.5-2-0.6-2.7c-0.1-0.3-0.2-1-0.3-2.1
	c-0.1-1.1-0.2-2.2-0.4-3.4s-0.3-2.4-0.4-3.6c-0.1-1.2-0.2-2.1-0.2-2.6c0-0.6-0.1-1.6-0.1-3.1c0-1.5-0.1-3-0.1-4.5
	c0-1.5-0.1-2.9-0.1-4.2c0-1.2,0-2,0-2.4c0-2.7,0.1-6,0.1-9.7c0.1-3.7,0.1-7.4,0.1-10.9c0-3.5,0.1-6.6,0.1-9.2c0-2.6,0-4.1,0-4.6
	v-1.7c0-0.5,0-0.8,0-0.9c0-0.2-0.1-0.6-0.1-1.3l-0.1-0.7h-0.1h-0.1c0,0.2-0.1,0.5-0.2,0.9c-0.1,0.4-0.2,1-0.3,1.8
	c-0.1,1.1-0.3,2.4-0.4,3.8c-0.2,1.4-0.3,2.3-0.3,2.6l-2.1,31.8c0,0.2,0,1-0.1,2.3c-0.1,1.3-0.2,2.9-0.3,4.7
	c-0.1,1.8-0.3,3.7-0.4,5.5c-0.2,1.9-0.3,3.4-0.5,4.7c-0.3,2.2-0.6,3.7-0.9,4.5c-0.3,0.8-0.6,1.6-0.9,2.1c-0.2,0.5-0.4,0.8-0.5,1
	c-0.3,0.9-0.7,1.4-1.1,1.6c-0.4,0.2-0.8,0.3-1,0.3c-0.2,0-0.4-0.1-0.6-0.2c-0.3-0.1-0.5-0.3-0.7-0.5c-0.3-0.6-0.5-1.1-0.7-1.6
	c-0.1-0.5-0.2-1-0.3-1.6l-0.1-0.7c-0.2-0.9-0.3-2.1-0.4-3.7c-0.1-1.5-0.2-2.5-0.2-2.8c0-0.2-0.1-1.1-0.1-2.6c0-1.5,0-3.3-0.1-5.3
	c0-2-0.1-3.9-0.1-5.9c0-1.9,0-3.4,0-4.4c0-0.5,0-2.6,0-6.5c0-3.9,0-8.6,0.1-14.2c0-5.6,0.1-11.5,0.1-17.9c0-6.4,0.1-12.4,0.1-18
	s0.1-10.3,0.1-14.2c0-3.9,0-6.1,0-6.6c0-1.9,0.2-3.8,0.4-5.5c0.2-1.8,0.4-3.1,0.6-4.2c0.3-1.5,0.6-2.4,1.1-2.8
	c0.4-0.4,0.8-0.7,1.1-0.8h0.2c0.2,0,0.4,0.1,0.6,0.4c0.2,0.3,0.3,0.5,0.4,0.8c0.1,0.2,0.2,0.3,0.2,0.3c0.3,0.5,0.5,1.1,0.7,2
	c0.2,0.8,0.4,1.8,0.6,2.8l0.1,0.3c0.2,0.8,0.3,1.5,0.3,2.1c0,0.6,0,1.3,0.1,2.1c0,0.3,0,0.7,0,1c0,0.3,0,0.7,0,1.2
	c0,0.7,0.1,1.5,0.1,2.5c0,1,0.1,1.9,0.1,2.9c0,1,0.1,1.8,0.1,2.5c0,0.7,0,1.1,0,1.2l-0.1,50.3v6.5c0.1-1.4,0.2-3,0.4-4.8
	c0.1-1.9,0.3-3.7,0.4-5.6c0.2-1.9,0.3-3.7,0.4-5.4c0.1-1.7,0.2-3.1,0.4-4.3c0.3-3.3,0.6-5.8,0.9-7.5c0.3-1.7,0.6-3.2,0.9-4.4
	c0.2-0.6,0.4-1.4,0.8-2.6c0.4-1.1,0.8-2,1.2-2.6c0.2-0.3,0.5-0.5,0.8-0.5c0.3,0,0.5,0.1,0.8,0.3c0.3,0.2,0.5,0.4,0.8,0.6
	c0.3,0.3,0.7,0.9,1.1,1.8c0.4,0.8,0.8,1.8,1.1,2.8c0.3,0.9,0.5,1.7,0.7,2.4c0.1,0.7,0.3,1.5,0.4,2.4c0.2,0.9,0.3,1.6,0.3,2.2
	c0.3,1.4,0.5,2.8,0.6,4.3c0.1,1.5,0.2,2.8,0.3,3.8c0,0.2,0.1,0.6,0.1,1c0,0.5,0.1,1.4,0.1,3c0,1.5,0,3.1,0,4.8c0,1.7,0,3.3-0.1,4.9
	c0,1.6-0.1,2.7-0.1,3.2c-0.1,5.2-0.2,9.9-0.3,14.2c-0.1,4.3-0.2,8.1-0.2,11.6c0,3.5,0,6.6,0.1,9.4c0.1,2.8,0.4,5.4,0.7,7.8v0.2
	C85.4,277.5,85.3,278.4,85.2,279.3z M107.3,223.5c0,1.7,0,3.3,0,4.8c0,1.5,0,2.9,0,4c0,0.5-0.1,1-0.1,1.5c0,0.6,0,1.2,0,1.9
	c0,0.7-0.1,1.5-0.1,2.4c0,0.5-0.1,0.9-0.1,1.4c0,0.5-0.1,0.9-0.1,1.4c-0.1,1.7-0.2,3.2-0.4,4.6c-0.1,0.7-0.1,1.1-0.1,1.4
	c-0.1,0.9-0.2,1.6-0.2,2c-0.1,0.7-0.1,1.4-0.2,2.1c0,0.7-0.1,1.4-0.2,2c-0.1,0.8-0.2,1.6-0.4,2.6c-0.2,0.9-0.3,1.8-0.4,2.7l-0.1,0.7
	c-0.2,0.9-0.4,2.2-0.7,4c-0.3,1.8-0.6,3-0.8,3.8c-0.2,0.9-0.6,1.8-1,2.8c-0.4,1-0.8,1.7-1.1,2.3c-0.4,0.7-0.6,1.1-0.8,1.4
	c-0.2,0.2-0.4,0.5-0.6,0.7c-0.2,0.2-0.4,0.3-0.7,0.3c-0.3,0-0.5,0-0.7,0c-0.1,0.1-0.2,0.2-0.2,0.2h-0.2c-0.2,0-0.3,0-0.5,0.1
	c-0.2,0.1-0.4,0.1-0.6,0.1h-0.2c-0.1,0-0.3-0.1-0.7-0.2c-0.3-0.1-0.7-0.3-1.1-0.4c-0.4-0.2-0.7-0.4-1.1-0.6
	c-0.3-0.2-0.6-0.5-0.7-0.7c-0.2-0.3-0.6-1-1.1-2.1c-0.6-1.1-0.9-2-1.2-2.6c-0.2-0.6-0.3-1.1-0.4-1.6c-0.1-0.5-0.3-1-0.4-1.6
	c-0.1-0.3-0.2-0.7-0.2-0.9c-0.1-0.3-0.2-0.6-0.2-0.9c-0.1-0.4-0.3-1.2-0.4-2.1c-0.2-1-0.3-2-0.5-3.1c-0.2-1.1-0.3-2.1-0.5-3.1
	c-0.1-1-0.2-1.7-0.3-2.1c-0.2-1.1-0.3-2.4-0.4-3.8c-0.1-1.4-0.2-2.6-0.3-3.7c0-0.5,0-1.5-0.1-3.1c0-1.6-0.1-3.3-0.1-5.1
	c0-1.8-0.1-3.5-0.1-5c0-1.5-0.1-2.6-0.1-3.1c0-0.6,0-1.2,0-2c0-0.7,0.1-1.5,0.1-2.3c0-0.6,0-1.1,0-1.7c0-0.6,0-1.1,0-1.5
	c0-0.8,0.1-2.4,0.3-4.7c0.2-2.3,0.4-5,0.8-7.9c0.2-1.7,0.3-2.7,0.3-3.1c0-0.6,0.1-1.1,0.2-1.6c0.1-0.5,0.2-1.1,0.3-1.8
	c0.1-0.3,0.1-0.7,0.2-1.1c0.1-0.4,0.1-0.8,0.2-1.3c0.1-1,0.3-2,0.5-3c0.2-1,0.4-1.8,0.6-2.6c0-0.1,0.1-0.2,0.1-0.3
	c0-0.1,0-0.2,0.1-0.3c0.1-0.4,0.3-1,0.5-1.7c0.2-0.7,0.4-1.3,0.6-1.9c0.2-0.7,0.4-1.4,0.7-2.2c0.1-0.2,0.2-0.6,0.4-1.1
	c0.2-0.5,0.4-1,0.7-1.5c0.2-0.5,0.5-1,0.7-1.4c0.2-0.4,0.4-0.8,0.5-1c0,0,0.1-0.1,0.3-0.3c0.3-0.5,0.6-0.9,0.9-1.2
	c0.3-0.3,0.5-0.6,0.7-0.7H98h0.9c0.1,0,0.3,0.1,0.6,0.2c0.3,0.1,0.6,0.3,0.8,0.5c0,0.2,0.2,0.4,0.4,0.5c0.4,0.5,0.9,0.9,1.3,1.4
	c0.4,0.5,0.7,1.1,1,1.6c0.3,0.7,0.6,1.5,0.9,2.4c0.3,0.9,0.5,1.6,0.6,2.2c0.1,0.5,0.2,1,0.3,1.5c0.1,0.6,0.2,1.1,0.3,1.7
	c0,0.2,0.1,0.4,0.1,0.6c0,0.2,0.1,0.4,0.1,0.6c0.1,0.8,0.3,2,0.5,3.7c0.2,1.6,0.4,3.3,0.7,5l0.1,1.2c0.2,1.5,0.3,3.1,0.4,4.8
	c0.1,1.8,0.2,3.2,0.2,4.3c0,0.2,0,0.4,0,0.4c0,0.1,0,0.2,0,0.4c0,0.3,0,0.8,0,1.4c0,0.6,0,1.3,0,2c0,0.9,0.1,1.9,0.1,3.1
	C107.2,221,107.2,222.2,107.3,223.5z M99.4,264c0.3-0.2,0.5-0.5,0.6-0.9c0.1-0.4,0.3-1.1,0.5-1.9c0.2-0.8,0.3-1.5,0.4-2.2
	c0.1-0.8,0.2-1.8,0.4-3.1c0.1-1.2,0.2-2.3,0.3-3.1c0-0.3,0.1-1,0.1-2c0-1,0.1-2,0.1-3.1c0.1-1.1,0.1-2.2,0.1-3.1
	c0-1,0.1-1.7,0.1-2.1c0-0.9,0.1-2.1,0.1-3.7c0-1.5,0-2.6-0.1-3.1c0-0.2-0.1-0.9-0.1-2.1c0-1.2,0-3.1-0.1-5.7c0-1.5,0-3,0-4.7
	c0-1.6,0-3.2-0.1-4.8c0-1.5-0.1-2.9-0.1-4c0-1.1-0.1-1.9-0.1-2.4c0-0.6-0.1-1.3-0.1-2.2c0-0.9-0.1-1.9-0.1-2.9
	c-0.1-1.8-0.1-3.7-0.2-5.5c-0.1-1.9-0.1-3.3-0.3-4.2c-0.3-3.1-0.6-5.1-0.8-6.1c-0.2-1-0.4-1.6-0.5-1.7c-0.2-0.2-0.4-0.3-0.6-0.3
	c-0.1,0-0.3,0.1-0.5,0.3c-0.1,0.1-0.2,0.2-0.3,0.3c-0.1,0.1-0.2,0.3-0.3,0.5c-0.1,0.2-0.3,0.6-0.4,1.2c-0.2,0.6-0.3,1.1-0.3,1.7
	l-0.1,0.7c-0.1,0.2-0.1,0.5-0.2,0.8c-0.1,0.3-0.1,0.9-0.3,1.7c-0.2,1.1-0.3,2-0.3,2.6c-0.1,0.6-0.1,1-0.1,1.2v0.5c0,0.2,0,0.4,0,0.6
	c0,0.2,0,0.4,0,0.8c0,0.2-0.1,0.5-0.1,0.8c0,0.3,0,0.7-0.1,1c-0.1,1.2-0.2,3-0.4,5.3c-0.1,1.9-0.1,3.5-0.1,4.8c0,1.2,0,2.4,0,3.6
	c0,0.7,0,1.6,0,2.9c0,1.2-0.1,2.5-0.1,3.7c0,0.7-0.1,1.3-0.1,2c0,0.6,0,1,0,1.1c0,0.2,0,0.5,0,0.9c0,0.3,0,0.7,0,1.2v4.1
	c0,0.6,0,1.5,0,2.8c0,1.3,0,2.6,0.1,4c0,1.4,0,2.6,0.1,3.7c0,1.1,0,1.9,0,2.2c0,0.5,0.1,1.3,0.1,2.5c0.1,1.2,0.1,2.2,0.2,3
	c0,0.3,0.1,0.9,0.2,1.6c0.1,0.7,0.2,1.5,0.4,2.4c0.1,0.9,0.3,1.6,0.4,2.3c0.1,0.7,0.2,1.1,0.2,1.2c0.1,0.2,0.2,0.7,0.5,1.5
	c0.2,0.8,0.4,1.4,0.6,1.7c0.1,0.2,0.2,0.5,0.4,0.8c0.2,0.3,0.3,0.6,0.4,0.7c0.1,0,0.2,0,0.4,0.1c0.2,0.1,0.3,0.1,0.4,0.1H99.4z
	 M147.3,179.3c0,0.9,0,1.9,0,3c-0.1,1.1-0.1,2.2-0.2,3.5l-0.2,3.6c0,0.1,0,0.4-0.1,0.8c0,0.5-0.1,1.5-0.3,3.1
	c-0.1,1.6-0.4,4.1-0.7,7.4c-0.3,3.3-0.8,7.9-1.4,13.8c-0.4,3.7-0.8,7.9-1.2,12.4c-0.4,4.5-0.9,9.5-1.5,15c-0.2,2.5-0.5,4.9-0.7,7.1
	c-0.2,2.3-0.4,4.4-0.6,6.3c-0.3,3.1-0.6,5.6-0.8,7.7c-0.2,2-0.3,3.3-0.4,3.7c-0.2,2-0.5,4-0.9,5.8c-0.4,1.8-0.8,2.8-1.2,3.1H137
	c-0.4,0-0.8-0.5-1-1.5c-0.2-1-0.4-1.9-0.4-2.6c-0.1-0.5-0.2-1.5-0.3-3.1c-0.2-1.6-0.3-3.3-0.5-5.2c-0.2-1.9-0.3-3.6-0.5-5.3
	c-0.2-1.6-0.3-2.6-0.3-3l-0.1-0.2l-1.3-21.8c-0.1-0.7-0.1-1.4-0.1-2.1c0-0.7-0.1-1.5-0.1-2.3c0-0.8-0.1-1.6-0.1-2.3
	c0-0.7-0.1-1.4-0.1-2.1c-0.1-0.9-0.1-1.8-0.2-2.6c0-0.8-0.1-1.6-0.2-2.4c0-0.2-0.1-0.5-0.1-0.8c0-0.3,0-0.6-0.1-0.9
	c0,0.6-0.1,1.2-0.1,1.9c0,0.7-0.1,1.4-0.2,2c0,0.6-0.1,1.2-0.1,1.8c0,0.6-0.1,1.3-0.1,2c-0.1,0.7-0.1,1.4-0.1,2.1
	c0,0.7-0.1,1.6-0.1,2.5c-0.1,0.9-0.1,1.7-0.2,2.4c-0.1,0.7-0.1,1.3-0.2,1.9c-0.1,0.7-0.2,1.4-0.2,2.1c-0.1,0.7-0.2,1.6-0.2,2.5
	c-0.1,0.9-0.1,1.8-0.2,2.6c-0.1,0.9-0.1,1.7-0.2,2.5c-0.1,0.9-0.1,1.8-0.2,2.6c0,0.8-0.1,1.6-0.2,2.6l-0.4,4.6
	c-0.2,3.4-0.4,6.3-0.6,8.8c-0.2,2.4-0.3,3.9-0.3,4.3c-0.1,1.7-0.2,3.3-0.5,4.8c-0.3,1.5-0.6,2.7-1,3.5c-0.3,0.5-0.6,0.7-1,0.7
	c-0.4,0-0.8-0.2-1.2-0.6c-0.4-0.4-0.7-0.9-0.9-1.6c-0.1-0.3-0.2-1.1-0.4-2.2c-0.2-1.1-0.4-2.4-0.6-3.8c-0.2-1.4-0.4-2.8-0.6-4.2
	c-0.2-1.4-0.3-2.4-0.4-3.1c0-0.2-0.2-1.2-0.4-2.9c-0.2-1.7-0.5-4.2-0.8-7.5c-0.2-1.9-0.4-4.2-0.6-7c-0.2-2.7-0.5-5.7-0.8-8.8
	c-0.3-3.2-0.6-6.3-0.8-9.4c-0.3-3.1-0.5-6.1-0.8-9.1c-0.4-4.5-0.8-8.2-1-11c-0.2-2.8-0.4-4.6-0.5-5.4c-0.2-1.4-0.3-3.1-0.4-5.2
	c-0.1-2.1-0.2-4.3-0.2-6.5c0-2.2-0.1-4.2-0.1-6c0-1.8,0-3.1,0.1-3.7c0.1-1.2,0.3-2.3,0.7-3.1c0.4-0.8,0.8-1.6,1.3-2.3
	c0,0,0.1-0.1,0.1-0.2c0.1-0.2,0.3-0.3,0.7-0.3c0.5,0,0.9,0.2,1.2,0.5c0.6,0.3,1,1.8,1.5,4.3c0.2,0.7,0.3,1.3,0.3,2
	c0.1,0.6,0.1,1.2,0.2,1.8c0,0.5,0.1,0.9,0.1,1.3c0,0.4,0.1,0.9,0.2,1.4c0.1,0.6,0.2,1.4,0.3,2.6c0.1,1.1,0.2,2.3,0.4,3.5
	c0.1,1.2,0.2,2.3,0.3,3.4c0.1,1.1,0.1,1.9,0.1,2.5c0,0.3,0.1,1.7,0.3,4.2c0.2,2.4,0.5,6,0.9,10.8c0.2,2.6,0.4,5.4,0.6,8.4
	c0.2,3,0.5,6.2,0.8,9.4c0.2,3.1,0.5,5.9,0.7,8.4c0.2,2.6,0.4,4.6,0.5,6.2c0.1-0.6,0.1-1.1,0.1-1.7c0-0.6,0.1-1.2,0.1-1.9v-0.2
	c0.1-1,0.2-2.1,0.3-3.2c0.1-1.1,0.2-2.3,0.3-3.6l0.3-4.1l0.4-4.6c0.1-0.7,0.1-1.4,0.2-2c0.1-0.7,0.1-1.3,0.2-1.9
	c0.1-0.6,0.1-1.2,0.2-1.8c0-0.6,0.1-1.2,0.1-1.8c0.2-2.3,0.4-4.3,0.5-6s0.2-3.1,0.3-4v-0.7c0-0.1,0-0.2,0.1-0.2c0-0.2,0-0.7,0.1-1.5
	c0.1-0.8,0.2-1.6,0.3-2.5c0.1-0.8,0.2-1.6,0.4-2.4c0.1-0.7,0.2-1.3,0.3-1.6c0.2-0.6,0.4-1,0.7-1.3c0.3-0.3,0.5-0.4,0.8-0.4
	c0.2,0,0.4,0.1,0.5,0.4c0.1,0.3,0.2,0.5,0.3,0.8c0,0,0.1,0,0.1,0.1s0,0.1,0.1,0.1c0.2,0.9,0.4,1.9,0.5,3.1l0.1,0.7
	c0,0.1,0,0.3,0,0.5c0,0.2,0.1,0.7,0.1,1.3c0.1,0.6,0.1,1.5,0.3,2.7s0.3,2.8,0.5,4.8c0,0.3,0.1,0.7,0.1,1c0,0.3,0.1,0.7,0.1,1.2
	c0,0.3,0.1,0.7,0.1,1.1c0,0.4,0.1,0.9,0.1,1.4c0.1,0.6,0.1,1.2,0.2,1.9c0,0.7,0.1,1.4,0.2,2c0.1,0.6,0.1,1.2,0.2,1.9
	c0,0.7,0.1,1.3,0.2,1.9c0.2,1.6,0.3,3.5,0.5,5.6c0.2,2.2,0.3,3.9,0.5,5.3c0.1-0.9,0.2-2,0.3-3.3c0.1-1.3,0.3-2.9,0.4-4.8
	c0.1-1.5,0.2-3,0.4-4.5c0.1-1.5,0.3-3.1,0.4-4.7c0.2-2.9,0.5-6,0.8-9.1c0.3-3.1,0.5-6,0.7-8.7c0.2-2.7,0.4-5,0.6-6.9
	c0.2-1.9,0.3-3.2,0.3-3.9c0.2-2.6,0.5-5.2,0.9-7.7s0.8-4.4,1.1-5.7c0-0.2,0-0.4,0-0.4c0-0.1,0-0.1,0-0.3c0.3-1.5,0.7-2.3,1.1-2.6
	s0.8-0.3,1-0.3c0.6,0,1.2,1.1,1.9,3.2c0.3,0.9,0.4,1.8,0.5,2.6c0.1,0.8,0.1,1.7,0.1,2.6C147.3,178.5,147.3,178.8,147.3,179.3z
	 M169.4,270.6c0,0.8-0.1,1.4-0.2,1.9c-0.2,0.6-0.4,1-0.7,1.2v0.2c-0.2,0.2-0.4,0.4-0.7,0.5c-0.3,0.1-0.6,0.2-0.8,0.2h-0.1
	c-0.1,0-0.3-0.1-0.5-0.2c-0.2-0.1-0.5-0.3-0.7-0.5c-0.1,0-0.1,0-0.2-0.1c-0.1-0.1-0.1-0.1-0.1-0.1c-0.2-0.2-0.6-0.6-1-1.2
	c-0.4-0.6-0.7-1-0.9-1.2c-0.2-0.2-0.4-0.8-0.8-1.7c-0.4-0.9-0.7-1.6-0.9-2.2c-0.1-0.2-0.2-0.8-0.4-1.6c-0.2-0.8-0.4-1.8-0.6-2.7
	c-0.2-1-0.4-2-0.6-3c-0.2-1-0.3-1.8-0.4-2.4c-0.1-0.6-0.2-1.3-0.2-2.2c-0.1-0.9-0.2-2-0.2-3.2c0,0.6-0.1,1-0.1,1.4
	c0,0.4-0.1,0.7-0.1,0.9c-0.1,1.1-0.3,2.4-0.6,3.7c-0.3,1.4-0.5,2.3-0.7,2.9c-0.2,0.6-0.4,1.1-0.5,1.4c-0.1,0.4-0.3,0.8-0.5,1.3
	c-0.1,0.2-0.1,0.3-0.2,0.3c-0.2,0.5-0.4,0.8-0.6,1c-0.2,0.2-0.4,0.5-0.6,0.7c-0.2,0.2-0.4,0.3-0.4,0.3c-0.2,0.3-0.5,0.5-0.9,0.5
	c-0.2,0-0.3,0-0.4-0.1c-0.1-0.1-0.3-0.1-0.4-0.1h-0.6c-0.3,0-0.6-0.2-0.9-0.6c-0.3-0.4-0.6-0.8-0.9-1.3c0-0.1-0.1-0.2-0.1-0.2
	c0,0,0-0.1-0.1-0.2c-0.2-0.2-0.5-0.8-1-1.7c-0.5-0.9-0.8-1.6-0.9-2.2c0-0.1-0.1-0.3-0.2-0.7c-0.2-0.9-0.4-1.7-0.6-2.4
	c-0.2-0.7-0.4-1.3-0.4-1.9c-0.1-0.3-0.2-1-0.3-1.9c-0.1-0.9-0.2-1.8-0.3-2.8s-0.2-1.9-0.3-2.8c-0.1-0.9-0.2-1.6-0.2-2
	c-0.1-0.9-0.1-2-0.2-3.3c0-1.3-0.1-2.4-0.1-3.1c0-0.6,0-1.6,0-3c0-1.4,0-2.9,0-4.5c0-1.6,0-3.1,0-4.5c0-1.4,0-2.4,0-3
	c0-0.6,0-1.1,0.1-1.5c0-1.5,0.1-3.4,0.2-5.8c0.1-2.4,0.3-4.7,0.5-7c0.2-1.5,0.4-3.1,0.6-5c0.2-1.9,0.4-3.8,0.6-5.7
	c0.2-1.9,0.3-3.5,0.5-4.8c0.1-1.2,0.2-2.1,0.3-2.6l1.1-6.5c0.2-1.4,0.6-2.7,1.1-4.1c0.5-1.4,0.9-2.7,1.4-3.9
	c0.4-0.9,0.8-1.8,1.4-2.6c0.6-0.9,1-1.5,1.3-2c0.2,0,0.2-0.1,0.2-0.3c0.2-0.2,0.4-0.5,0.8-0.9c0.3-0.3,0.7-0.6,1-0.7
	c0.2-0.1,0.5-0.2,0.9-0.2c0.3,0,0.6,0.1,1,0.3c0.2,0.1,0.3,0.2,0.5,0.3c0.2,0.1,0.3,0.1,0.5,0.3c0.2,0.1,0.4,0.2,0.5,0.3
	c0.1,0.1,0.2,0.1,0.2,0.3l0.9,1.5c0-0.6,0.1-1.2,0.2-2c0.1-0.8,0.2-1.5,0.4-2c0.2-0.7,0.4-1,0.8-1c0.2,0,0.4,0.1,0.6,0.3
	c0.2,0.2,0.3,0.4,0.4,0.5l0.1,0.2c0.1,0.2,0.3,0.5,0.4,0.8c0.2,0.3,0.3,0.8,0.5,1.4c0.2,0.7,0.4,1.6,0.6,2.7c0,0.1,0.1,0.2,0.1,0.3
	c0,0.1,0,0.1,0.1,0.3c0.1,0.6,0.2,1.3,0.3,2.2c0.1,0.9,0.2,1.6,0.2,2.2c0,0.6,0.1,1.7,0.1,3.5s0,2.9,0,3.5c0,0.3,0,1.1,0,2.1
	c0,1.1,0,2.2,0,3.4c0,1.2,0,2.3,0,3.2c0,1,0,1.6,0,1.8c0,0.1,0,0.4,0,0.8c0,0.4,0,1.2,0,2.4c0,1.2-0.1,2.9-0.1,5.2
	c-0.1,2.3-0.1,5.3-0.2,9.2c-0.1,2.2-0.1,4.1-0.1,5.9c0,1.8,0,2.8,0,3.1c0,0.3,0,1.3,0,2.9c0,1.6,0,3.4,0,5.4c0,2,0,4.1,0.1,6.1
	c0,2,0,3.7,0,4.9c0,0.1,0,0.5,0.1,1.2s0.1,1.5,0.1,2.4c0,0.9,0,1.9,0.1,2.9c0,1,0.1,1.9,0.2,2.7c0.1,1.8,0.3,3.5,0.4,5.2
	c0.2,1.6,0.3,2.6,0.4,2.8c0,0.2,0,0.5,0.1,0.7c0.1,0.2,0.1,0.5,0.2,0.8c0.1,0.3,0.1,0.9,0.3,1.5c0.2,0.8,0.3,1.3,0.4,1.6
	c0.1,0.3,0.2,0.7,0.4,1.1l0.1,0.2c0.2,0.5,0.3,0.7,0.3,0.7c0,0.1,0.1,0.2,0.2,0.3l0.1,0.3l0.3,0.8c0.1,0.3,0.1,0.6,0.1,0.8
	C169.4,269.8,169.4,270.1,169.4,270.6z M160.2,184.9c0-0.8,0.1-1.6,0.1-2.3c0-0.7,0-1.3,0.1-1.6c-0.1,0-0.2,0-0.3-0.1
	c-0.1-0.1-0.2-0.1-0.2-0.1c-0.3,0-0.5,0.1-0.6,0.3c0,0.1-0.1,0.2-0.1,0.2c-0.1,0.1-0.1,0.2-0.2,0.3c0,0.1-0.1,0.2-0.2,0.4
	c-0.1,0.1-0.2,0.5-0.4,1.1c-0.2,0.6-0.4,1.3-0.7,2.1c-0.2,0.8-0.5,1.6-0.7,2.5c-0.2,0.8-0.4,1.6-0.5,2.3c-0.2,1.5-0.4,2.8-0.5,4.1
	c-0.1,1.2-0.2,2-0.2,2.4l-0.4,3.9c-0.1,1.2-0.2,2.6-0.4,4.1c-0.1,1.5-0.2,3-0.3,4.5c-0.1,1.5-0.2,3-0.4,4.3
	c-0.1,1.3-0.2,2.4-0.2,3.1c-0.1,1.2-0.2,2.7-0.3,4.3c-0.1,1.6-0.2,3.2-0.3,4.8c-0.1,1.5-0.1,2.9-0.2,4.1c0,1.2-0.1,1.9-0.1,2.1v1.5
	c0.1,5.6,0.1,8.7,0.2,9.4c0.1,0.7,0.2,1.7,0.3,3.1c0.1,0.9,0.2,2,0.3,3.1c0.1,1.2,0.2,2,0.3,2.5c0.1,0.6,0.3,1.2,0.4,1.8
	c0.2,0.6,0.3,1.1,0.3,1.4c0,0.1,0,0.2,0,0.2c0,0,0,0.1,0,0.2h0.1h0.1h0.1c0-0.1,0.1-0.5,0.2-1c0.1-0.6,0.2-1.1,0.4-1.7
	c0.1-0.6,0.2-1.1,0.3-1.7c0.1-0.6,0.2-1,0.2-1.4c0.1-0.7,0.2-1.3,0.2-1.9c0.2-1.1,0.4-2.5,0.6-4.1c0.2-1.6,0.4-2.8,0.5-3.6
	c0-0.7,0.1-1.2,0.2-1.5c0-0.4,0.1-0.8,0.1-1c0-0.2,0-0.6,0-1c0-0.3,0-0.7,0-1c0-0.3,0-0.7,0-1c0-1.1,0-1.9,0.1-2.2
	c0-0.2,0-1,0.1-2.4c0-1.4,0.1-2.9,0.1-4.7c0.1-1.8,0.1-3.5,0.2-5.3c0.1-1.8,0.1-3.2,0.1-4.3L160.2,184.9z M192.6,271.3
	c0.1,0.7,0.1,1.3,0.1,1.8c0,0.5-0.1,1-0.1,1.6v0.2c0,0.7-0.1,1.2-0.2,1.5s-0.2,0.6-0.3,0.8c0,0.1-0.1,0.2-0.1,0.2
	c-0.2,0.5-0.4,0.7-0.7,0.7c-0.2,0-0.4,0-0.6-0.1c-0.2-0.1-0.4-0.1-0.6-0.3c-0.1-0.1-0.2-0.2-0.2-0.2c-0.2-0.1-0.5-0.4-0.9-0.8
	c-0.4-0.5-0.7-1.1-1-2c-0.2-0.3-0.4-1.1-0.7-2.4c-0.3-1.2-0.6-2.6-0.9-3.9c-0.3-1.4-0.6-2.6-0.8-3.8c-0.3-1.2-0.4-2-0.4-2.5
	c0-0.3-0.1-1.1-0.1-2.2c-0.1-1.1-0.1-2.3-0.2-3.6c-0.1-1.2-0.2-2.5-0.2-3.7c-0.1-1.2-0.1-2-0.1-2.5l-0.5-23.3c0-3.7,0-7.8,0-12.2
	c0-4.4,0-8.5,0.1-12.3c0-3.9,0-7.1,0-9.7c0-2.6,0-4.1,0-4.4c0-0.2,0-0.7-0.1-1.4c-0.1,0.6-0.3,1.6-0.6,3.1c-0.3,1.5-0.4,2.7-0.6,3.6
	c0,0.3-0.1,0.7-0.1,1c0,0.3-0.1,0.8-0.2,1.4c-0.2,1.1-0.3,2.3-0.5,3.6c-0.2,1.3-0.3,2.3-0.3,3.2c0,0.7-0.1,1.8-0.3,3.3
	c-0.1,1.5-0.3,3.1-0.4,4.8c-0.1,1.6-0.3,3.1-0.4,4.4c-0.1,1.3-0.2,2.1-0.2,2.3c-0.3,4.3-0.6,9-0.9,14c-0.3,5-0.6,9.8-0.9,14.2
	c-0.3,4.4-0.5,8.2-0.7,11.2c-0.2,3.1-0.3,4.8-0.3,5.3c0,0.7,0,1.6-0.1,2.6c-0.1,1.1-0.2,2.1-0.2,3.1c0,0.2-0.1,0.4-0.1,0.5
	s0,0.3-0.1,0.5c-0.1,1.2-0.3,2.2-0.5,2.8c-0.2,0.6-0.4,1.2-0.6,1.6c-0.2,0.5-0.6,0.7-1.2,0.7c-0.2,0-0.5-0.1-0.9-0.2
	c-0.4-0.1-0.7-0.5-0.9-1c-0.3-0.7-0.6-1.8-0.9-3.5c-0.3-1.6-0.5-2.6-0.6-3c0-0.6-0.1-1.4-0.1-2.5c0-1.1-0.1-2.7-0.1-5
	c-0.1-2.3-0.1-5.4-0.2-9.5h-0.1c0-0.5,0-2.3,0-5.6c0-3.3,0-7.3-0.1-12c0-4.7,0-9.8-0.1-15.3c0-5.5-0.1-10.7-0.1-15.6
	c0-4.9,0-9.1,0-12.6c0-3.5,0-5.7,0-6.5c0.1-2.7,0.4-5.1,1-7.1c0.6-2,1-3.3,1.4-3.8c0.4-0.7,0.8-1,1.3-1c0.6,0,1.1,0.3,1.7,0.8
	c0.4,0.6,0.7,1.2,0.8,1.8c0.2,0.6,0.3,1.4,0.5,2.3c0,0.2,0,0.4,0,0.4c0,0.1,0,0.1,0,0.3c0.3,1.5,0.5,3.1,0.6,4.8
	c0.1,1.7,0.2,2.8,0.2,3.4c0,0.3,0,1.2,0,2.5c0,1.3,0,2.8,0.1,4.6c0,1.8,0,3.6,0,5.4s0,3.6,0,5.2c0.1-0.9,0.2-2,0.4-3.4
	c0.1-1.4,0.3-2.7,0.4-4c0.1-1.3,0.3-2.5,0.4-3.5c0.1-1,0.2-1.7,0.2-2c0.1-0.6,0.2-1.1,0.2-1.6c0.1-0.5,0.2-1,0.2-1.6
	c0-0.2,0.1-0.5,0.1-0.8c0-0.3,0.1-0.5,0.1-0.8c0.1-0.9,0.3-1.8,0.6-2.6c0.3-0.8,0.4-1.3,0.6-1.5c0.2-0.6,0.5-1,1-1.4
	c0.4-0.4,0.8-0.7,1-0.9h0.3c0.3,0,0.6,0.1,1,0.3c0.3,0.2,0.6,0.4,0.7,0.5c0.2,0.2,0.6,0.7,1.1,1.4c0.5,0.7,0.9,1.4,1.1,2
	c0.3,0.6,0.5,1.2,0.6,2c0.1,0.7,0.3,1.7,0.5,3c0.1,0.7,0.2,1.5,0.3,2.5c0.1,1,0.2,1.9,0.3,2.8c0.1,0.9,0.2,1.7,0.2,2.4
	c0.1,0.7,0.1,1.1,0.1,1.2v0.2v0.2c0,4.4,0.1,8.2,0.1,11.3c0,3.1,0.1,6.3,0.1,9.6c0,3.3,0.1,6.1,0.1,8.3c0,2.3,0.1,5.4,0.2,9.3
	s0.3,7.8,0.5,11.7c0.2,3.9,0.3,7.4,0.5,10.5c0.2,3.1,0.3,4.9,0.4,5.4c0,0.5,0.1,1,0.2,1.7c0.1,0.7,0.1,1.3,0.2,1.8
	c0,0.5,0.1,1.2,0.2,2.1c0.1,0.9,0.1,1.5,0.2,1.9c0,0.3,0.1,0.7,0.1,1c0,0.1,0.1,0.2,0.1,0.3C192.5,270.9,192.5,271.1,192.6,271.3z
	 M216.5,274.8c0.1,0.9,0.1,1.6-0.1,2.2c-0.1,0.6-0.3,1.1-0.4,1.7v0.2c-0.2,0.7-0.4,1.1-0.6,1.3c-0.2,0.2-0.4,0.3-0.6,0.3h-0.2h-0.1
	c-0.4,0-0.6-0.1-0.9-0.2c-0.2-0.1-0.5-0.2-0.7-0.3c-0.2-0.1-0.4-0.3-0.5-0.5c-0.1-0.2-0.3-0.7-0.7-1.5c-0.3-0.8-0.6-1.4-0.7-1.9
	c0-0.1-0.2-0.7-0.4-1.8c-0.2-1.1-0.4-2.2-0.6-3.5c-0.2-1.2-0.4-2.5-0.6-3.7c-0.2-1.2-0.3-2-0.3-2.3c0-0.2,0-1-0.1-2.3
	c0-1.3-0.1-2.9-0.1-4.7c-0.1-1.8-0.1-3.7-0.2-5.7c-0.1-2-0.1-3.8-0.2-5.5c-0.1,1.1-0.2,1.9-0.2,2.4c-0.2,2.3-0.4,4.3-0.6,6.2
	c-0.2,1.9-0.3,3.1-0.4,3.7c-0.1,1-0.3,2-0.5,3.1c-0.2,1-0.4,2-0.6,3.1l-0.2,1c-0.2,0.9-0.4,1.6-0.6,2.1c-0.2,0.5-0.4,1.1-0.6,1.6
	c-0.2,0.5-0.3,0.8-0.4,1c-0.2,0.5-0.4,0.9-0.7,1.4c-0.3,0.5-0.6,1-0.9,1.4c-0.3,0.4-0.6,0.7-0.9,1c-0.3,0.3-0.4,0.4-0.5,0.4
	c-0.1,0.1-0.3,0.2-0.6,0.2h-0.8h-0.8h-0.2h-0.1c-0.4,0-0.8-0.3-1.2-0.8c-0.4-0.6-0.8-1.1-1.1-1.7l-0.1-0.3c-0.2-0.3-0.5-0.9-0.7-1.8
	c-0.3-0.9-0.5-1.8-0.7-2.7c-0.2-1-0.5-2.2-0.8-3.7c-0.2-0.9-0.3-1.9-0.4-3c-0.1-1.1-0.2-2.2-0.3-3.3c-0.1-1.4-0.2-2.5-0.2-3.4
	c-0.1-1.6-0.2-3.2-0.2-4.8c0-1.6,0-3.1,0-4.3c0-0.2,0-0.5,0-0.7c0-0.2,0-0.5,0-0.7c0-0.4,0-1.1,0-2c0-0.9,0-1.9,0.1-2.9
	c0-1,0-2,0.1-3.1c0-1,0.1-1.9,0.1-2.6c0-0.7,0.1-1.8,0.3-3.2c0.2-1.5,0.4-3.1,0.5-4.8c0.2-1.7,0.4-3.3,0.6-4.8
	c0.2-1.5,0.4-2.6,0.5-3.3s0.3-1.6,0.6-2.8c0.3-1.2,0.5-2.4,0.9-3.6c0.3-1.2,0.6-2.4,0.9-3.6c0.3-1.2,0.6-2.1,0.8-2.8
	c0.6-1.9,1.8-4.4,3.6-7.5c0-0.1,0.1-0.2,0.1-0.2c0.1-0.2,0.2-0.4,0.3-0.5c0.1-0.1,0.3-0.3,0.5-0.5c0.2-0.2,0.4-0.4,0.6-0.5
	c0.2-0.1,0.5-0.2,0.8-0.3c0.3-0.1,0.6-0.1,0.9-0.1h0.1c0.2,0,0.4,0,0.8,0.1c0.4,0.1,0.7,0.2,1,0.4c0.4,0.3,0.8,0.8,1.1,1.5
	c0.1,0.1,0.3,0.4,0.4,0.9c0-1,0.1-2.8,0.1-5.3c0-2.5,0.1-5.3,0.1-8.5c0.1-3.2,0.1-6.5,0.2-10c0.1-3.5,0.1-6.8,0.2-9.9
	c0.1-3.1,0.1-5.7,0.1-8c0-2.3,0.1-3.7,0.1-4.4c0.1-2.4,0.3-4.2,0.6-5.4c0.3-1.2,0.6-2.1,0.8-2.6l0.1-0.2c0.2-0.6,0.5-0.8,0.8-0.8
	c0.3,0,0.6,0.2,0.9,0.5c0.3,0.3,0.5,0.7,0.7,1.2c0.1,0.1,0.1,0.2,0.2,0.3c0.1,0.1,0.1,0.3,0.2,0.5c0.6,1.1,1,2,1.1,2.7
	c0.2,0.8,0.3,2.1,0.4,3.8s0.2,3.5,0.3,5.2c0,0.6,0,1.7,0,3.5c0,1.8,0,3.9,0,6.5c0,2.6-0.1,5.5-0.1,8.8c-0.1,3.2-0.1,6.6-0.1,10.1
	c0,2.4-0.1,4.4-0.1,6.1c0,1.7,0,2.8,0,3.2c0,0.3,0,1.1,0,2.3c0,1.2,0,2.7,0,4.6c0,1.9,0,4,0,6.5c0,2.4,0,5,0,7.6c0,3.3,0,6.6,0,9.9
	c0,3.3,0,6.4-0.1,9.2c0,2.8,0,5.2,0,7.2c0,2,0,3.3,0,4c0,1.3,0,2.8,0,4.8c0,1.9,0,3.9,0.1,5.8c0,1.9,0.1,3.7,0.1,5.4
	c0,1.7,0.1,3,0.2,3.7c0.1,0.9,0.1,1.6,0.1,2.2c0,0.6,0,1.1,0.1,1.5c0,0.2,0,0.5,0,0.8c0,0.3,0,0.6,0,0.9c0.1,0.6,0.1,1,0.1,1.4
	c0,0.3,0,0.6,0.1,0.8C216.5,274.3,216.5,274.6,216.5,274.8z M208.7,215.3c0-0.6,0-1.6,0-3.1c0-1.5,0-2.4,0-2.7v-0.2h-0.5H208
	c-0.2,0-0.4,0-0.5,0c-0.2,0-0.3,0.1-0.3,0.2c-0.1,0.1-0.1,0.2-0.2,0.3c0,0.1-0.1,0.1-0.2,0.3c-0.1,0.1-0.2,0.2-0.2,0.3
	c-0.1,0.1-0.2,0.2-0.4,0.4c-0.1,0.1-0.3,0.5-0.6,1.2c-0.3,0.7-0.6,1.5-0.9,2.6c-0.3,1-0.7,2.1-1,3.3c-0.3,1.2-0.6,2.4-0.8,3.5
	c-0.4,2.2-0.8,4.7-1.2,7.7c-0.4,3-0.6,5.5-0.6,7.4c0,1.1,0,2.5,0,4.1c0,1.6-0.1,3.2-0.1,4.8c0,1.4-0.1,2.6-0.1,3.7c0,1.1,0,2,0,2.6
	c0,0.9,0.1,2,0.2,3.1c0.1,1.2,0.2,2.2,0.2,3.1c0,0.1,0,0.2,0,0.3c0,0.1,0,0.2,0,0.4c0.1,0.9,0.2,2,0.3,3.3c0.2,1.3,0.3,2.2,0.4,2.6
	c0,0.1,0.1,0.2,0.1,0.3c0,0,0.1-0.1,0.1-0.2h0.1c0.1-0.2,0.3-0.5,0.5-0.9c0.2-0.3,0.4-0.8,0.5-1.4c0.1-0.3,0.3-1.2,0.5-2.5
	c0.2-1.3,0.3-2.2,0.4-2.8c0-0.3,0.1-0.6,0.1-0.7c0-0.1,0-0.3,0.1-0.5c0-0.1,0.1-0.8,0.3-2c0.2-1.2,0.4-2.5,0.6-4
	c0.2-1.7,0.5-3.4,0.7-5.1c0.3-1.7,0.4-2.8,0.5-3.4l0.1-0.7c0.2-1,0.4-2.1,0.5-3.2c0.1-1.1,0.2-2.2,0.3-3.1c0-0.3,0-0.9,0.1-1.7
	c0.1-0.8,0.2-1.6,0.2-2.6c0.2-1.4,0.3-2.8,0.4-4.4c0.1-1.6,0.2-2.8,0.3-3.6v-1.2c0-1.2,0.1-2.4,0.1-3.4
	C208.6,216.7,208.7,215.9,208.7,215.3z M236.8,185.2c0.1,1.4,0.2,3,0.2,4.9c0,0.6,0,1.1,0,1.7c0,0.6,0,1.1-0.1,1.7
	c0,0.5-0.1,0.9-0.1,1.4c0,0.5,0,1.1-0.1,1.6c0,1.9-0.2,3.9-0.6,6s-0.8,4-1.3,5.8c-0.5,1.8-1,3.5-1.5,4.9c-0.5,1.5-0.9,2.6-1.2,3.4
	c-0.2,0.5-0.6,1.1-1.2,2c-0.6,0.9-1.1,1.6-1.6,2c-0.2,0.2-0.5,0.4-0.9,0.6c-0.3,0.2-0.7,0.3-1,0.5c-0.3,0.2-0.7,0.3-1.2,0.4h-0.1
	h-0.8h-0.1c-0.1,0.5-0.1,0.8-0.1,1c0,0.5,0,1.4,0,2.7c0,1.4,0,2.3-0.1,2.9c0,1.5,0,3.1,0,4.8c0,1.8,0,3.7,0.1,5.7
	c0.1,2.8,0.2,5.7,0.4,8.7c0.2,3,0.4,5.1,0.6,6.5c0.2,1.4,0.4,2.6,0.7,3.7c0.3,1.1,0.5,2,0.7,2.8c0.2,0.8,0.4,1.4,0.6,1.7
	c0.2,0.3,0.4,0.8,0.7,1.4c0.2,0.6,0.6,0.9,1.2,0.9c0.3,0,0.5-0.1,0.8-0.2c0.3-0.1,0.5-0.2,0.7-0.3c0.7-0.6,1.1-1.6,1.4-3
	c0.3-1.4,0.5-3.3,0.7-5.5v-0.2c0-0.5,0.1-1,0.2-1.5c0.1-0.6,0.2-1,0.2-1.2c0.1-0.2,0.2-0.6,0.4-1c0.2-0.4,0.4-0.7,0.6-0.7
	c0.4,0,0.7,0.8,0.9,2.4c0.1,0.7,0.1,1.4,0,2.2c0,0.2,0,0.4,0,0.4c0,0.1,0,0.2,0,0.4c0,0.6,0,1.1-0.1,1.7c0,0.6-0.1,1.1-0.2,1.7
	c0,0.2-0.1,0.5-0.1,0.7c0,0.2,0,0.5-0.1,0.7c-0.3,3.1-0.8,5.5-1.4,7.3c-0.7,1.8-1.4,3.2-2.2,4.2c-0.8,1-1.6,1.6-2.4,2
	c-0.8,0.3-1.4,0.5-1.9,0.5h-0.3c-0.6,0-1.1-0.2-1.5-0.5s-0.8-0.9-1.3-1.7c-0.1,0-0.2-0.1-0.2-0.3c-0.5-0.8-1.1-2-1.7-3.5
	c-0.6-1.5-1.1-2.7-1.4-3.7l-0.3-0.8c-0.1-0.3-0.3-0.8-0.4-1.4c-0.2-0.6-0.3-1.3-0.5-2c-0.2-0.7-0.3-1.3-0.5-2
	c-0.1-0.6-0.2-1.1-0.3-1.4c-0.1-0.3-0.2-1.2-0.3-2.5c-0.1-1.3-0.3-2.7-0.4-4.2c-0.1-1.5-0.2-2.9-0.4-4.2c-0.1-1.3-0.2-2.1-0.2-2.5
	c0-0.5-0.1-1.3-0.1-2.6c0-1.3-0.1-2.7-0.1-4.3c-0.1-1.6-0.1-3.1-0.1-4.7c0-1.5-0.1-2.6-0.1-3.3s0-1.8,0.1-3.3c0-1.5,0.1-3.1,0.1-4.8
	c0.1-1.7,0.1-3.4,0.2-5.1c0.1-1.7,0.2-3.1,0.3-4.3c0.2-2.2,0.4-4.3,0.7-6.5c0.3-2.2,0.5-4.1,0.9-5.7c0.1-0.4,0.2-0.9,0.3-1.4
	c0.1-0.5,0.2-1.1,0.3-1.8c0.4-2,0.7-4.3,1.2-6.6c0.4-2.4,0.8-4.2,1.1-5.4c0.4-1.4,0.9-2.7,1.6-3.9c0.7-1.2,1.2-2.2,1.5-2.7
	c0,0,0.1,0,0.1-0.1c0-0.1,0-0.1,0.1-0.1c0.2-0.2,0.5-0.5,0.9-0.9c0.4-0.4,1-0.8,1.7-1.3c0.3-0.2,0.6-0.3,1-0.3
	c0.6,0,1.1,0.1,1.7,0.3c0.6,0.2,0.9,0.3,0.9,0.3c0,0,0.2,0.1,0.4,0.3c0.2,0.2,0.5,0.4,0.8,0.6c0.3,0.2,0.6,0.5,0.9,0.9
	c0.3,0.4,0.5,0.8,0.7,1.3C236.1,181.2,236.6,183.3,236.8,185.2z M234.2,195.4c0.1-0.9,0.1-1.9,0.1-3c0-1.1,0-1.8,0-2.3
	c0-0.5-0.1-0.8-0.1-1.2c-0.1-0.3-0.1-0.6-0.1-0.7c-0.1-0.5-0.3-0.7-0.4-0.7h-0.1c-0.1,0-0.2,0-0.4,0.1c-0.2,0.1-0.4,0.1-0.6,0.3
	c-0.2,0-0.3,0.1-0.4,0.2c-0.2,0.1-0.4,0.4-0.8,0.8c-0.3,0.4-0.6,0.7-0.8,0.9l-0.1,0.2c-0.2,0.2-0.4,0.9-0.9,2.1
	c-0.4,1.2-0.7,2-0.9,2.5c0,0.2-0.1,0.5-0.2,0.7c-0.1,0.3-0.2,0.7-0.2,0.9s-0.2,0.7-0.2,1.1c0,0.2-0.1,0.6-0.2,1.2
	c-0.1,0.6-0.2,1.2-0.2,1.9c-0.1,0.9-0.2,1.8-0.4,2.6c-0.1,0.8-0.2,1.4-0.3,1.9c-0.1,0.5-0.1,1-0.2,1.6c0,0.6-0.1,1.2-0.2,1.8
	c-0.1,0.9-0.1,1.6-0.2,2c-0.1,0.6-0.1,1.2-0.2,1.8c-0.1,0.6-0.1,1.1-0.1,1.3c0,0.2,0,0.3,0.1,0.3v0.2h0.2c0.1,0,0.3-0.1,0.6-0.2
	c0.3-0.1,0.6-0.3,1.1-0.7c0.8-0.6,1.5-1.4,2.1-2.4c0.6-1,1-1.9,1.2-2.6c0.6-1.7,1.2-3.6,1.7-5.6C233.7,200.4,234.1,198,234.2,195.4z
	 M257.1,178.6c0.1,0.9,0.2,2,0.2,3.4s0,2.6-0.1,3.6v0.9v0.2c0,1-0.1,1.8-0.1,2.5c0,0.6,0,1.3-0.1,2.1c0,0.6-0.1,1.2-0.1,1.8
	c-0.1,0.6-0.1,1.2-0.2,1.8c-0.1,0.5-0.2,1-0.2,1.7c-0.1,0.7-0.2,1.5-0.3,2.5c-0.1,1-0.3,1.9-0.5,2.8c-0.1,0.6-0.2,1.1-0.4,1.7
	c-0.1,0.6-0.2,1.1-0.3,1.5l-0.2,1c-0.1,0.7-0.3,1.2-0.4,1.4c-0.2,0.3-0.3,0.5-0.4,0.8c-0.2,0.2-0.3,0.3-0.4,0.3
	c-0.2,0-0.5-0.2-0.7-0.5c-0.2-0.3-0.3-0.7-0.4-1.2c-0.1-0.5-0.1-0.8-0.1-1.2v-0.3c-0.1-0.6-0.1-1.9,0.1-3.9c0-0.1,0.1-0.2,0.1-0.3
	c0-0.3,0-0.7,0.1-1.2c0-0.3,0-0.8,0.1-1.3c0-0.5,0.1-0.9,0.1-1.1s0-0.7,0-1.3s0-1.4,0.1-2.5V193c0-0.3,0.1-1.1,0.1-2.3
	c0-1.2,0-1.9,0-2.1c0-0.3-0.1-1-0.2-1.9c-0.1-0.9-0.2-1.5-0.2-1.7c0-0.1-0.1-0.3-0.2-0.7c-0.1-0.3-0.2-0.6-0.2-0.9
	c0,0-0.1-0.1-0.2-0.2c0,0-0.1,0-0.1-0.1c0-0.1-0.1-0.1-0.1-0.1c0-0.1-0.1-0.2-0.1-0.2c0,0-0.1-0.1-0.1-0.2h-0.1
	c-0.1,0-0.3,0.2-0.6,0.7c-0.2,0.2-0.4,1.1-0.7,2.6c-0.3,1.5-0.6,2.6-0.7,3.2c-0.2,0.7-0.3,1.1-0.3,1.2c-0.1,0.3-0.2,0.8-0.3,1.5
	c-0.1,0.7-0.3,1.4-0.4,2.3c-0.2,0.9-0.3,1.7-0.4,2.5c-0.1,0.8-0.2,1.4-0.3,1.9c-0.2,1.4-0.3,2.6-0.4,3.6c-0.1,1-0.2,1.8-0.2,2.4
	c0,0.6-0.1,1.4-0.2,2.6c-0.1,0.8-0.1,1.7-0.2,2.7c-0.1,1-0.1,2-0.2,3c-0.1,1-0.1,1.8-0.2,2.6c0,0.7-0.1,1.3-0.1,1.6c0,0.3,0,1,0,1.9
	c0,0.9,0,2,0,3.1c0,1.2,0,2.4,0,3.7c0,1.3,0,2.5,0,3.5c0,1.1,0.1,2,0.1,2.7s0,1.1,0,1.4c0,0.1,0,1.5,0,4.2c0,2.7,0,5.7-0.1,9.1
	c0,3.4-0.1,6.7-0.1,10c-0.1,3.3-0.1,5.5-0.2,6.6c-0.1,1.9-0.2,3.3-0.3,4.1c-0.1,0.8-0.2,1.5-0.4,2.2l-0.1,0.3
	c-0.2,0.9-0.4,1.8-0.7,2.6c-0.3,0.8-0.5,1.5-0.7,2c-0.4,0.8-0.8,1.3-1.2,1.5c0,0.1-0.1,0.2-0.2,0.2h-0.1c-0.2,0.2-0.3,0.3-0.4,0.3
	c-0.3,0-0.6-0.3-1-0.8c-0.4-0.6-0.7-1.1-0.9-1.7c-0.2-0.6-0.4-1.3-0.5-2.3c-0.1-1-0.2-1.7-0.3-2.3c0-0.2-0.1-0.5-0.1-0.8
	c0-0.3,0-0.7-0.1-1.1c0-0.6-0.1-1.2-0.1-2c0-0.8-0.1-1.4-0.1-1.7c0-0.3-0.1-1-0.1-2c0-1,0-2-0.1-3.1c0-1.1,0-2.3,0-3.4
	c0-1.1,0-2.1,0-2.9l0.1-35.7c0-0.2,0-1.2,0-2.9c0-1.7,0-3.7,0-6.1c0-2.4,0-5,0-7.7c0-2.8,0-5.4,0-7.7s0-4.4,0-6c0-1.6,0-2.5,0-2.7
	c0-0.6,0-1.4,0.1-2.6c0-0.4,0-0.8,0.1-1c0-0.7,0.1-1.7,0.2-3c0.1-1.3,0.2-2.2,0.2-2.8c0.1-0.6,0.2-1.1,0.3-1.7
	c0.1-0.6,0.3-1.1,0.4-1.5l0.1-0.3c0.2-0.6,0.3-0.9,0.5-1.1c0.2-0.2,0.4-0.3,0.5-0.4h0.1c0.1,0,0.3,0.1,0.6,0.3
	c0.3,0.2,0.5,0.4,0.7,0.6c0,0.1,0.1,0.3,0.3,0.5c0.2,0.2,0.3,0.5,0.5,0.8c0.1,0.2,0.3,0.5,0.4,0.9c0.2,0.4,0.3,0.8,0.4,1.1
	c0.2,0.6,0.3,1.5,0.5,2.9c0,0.1,0,0.2,0.1,0.3c0,0.1,0,0.2,0.1,0.2c0.1,0.5,0.2,1.1,0.2,1.9s0.1,1.5,0.2,2v0.7
	c0.1,1.4,0.2,2.3,0.2,2.7c0-0.2,0.1-0.5,0.1-0.8c0.1-0.3,0.1-0.7,0.2-1.1c0.1-0.5,0.1-0.9,0.2-1.3c0.1-0.4,0.1-0.7,0.1-0.9
	c0.1-0.7,0.4-1.7,0.8-3.1s0.7-2.3,0.9-2.7c0.2-0.3,0.5-0.9,1-1.7c0.5-0.8,0.9-1.3,1.1-1.5c0.2-0.2,0.6-0.5,1-0.7
	c0.5-0.2,0.8-0.3,1.1-0.3c0.2,0,0.5,0,0.8,0.1c0.3,0.1,0.6,0.2,1.1,0.4c0.4,0.2,0.9,0.7,1.5,1.4c0.6,0.7,1,1.5,1.2,2.3
	C256.6,175.3,256.9,176.8,257.1,178.6z M258.6,199.6c1.4,1,3.2,1.7,5.5,2.1c0.8,0.1,1.7,0.3,2.5,0.4c0.1,0.2,0.2,0.4,0.3,0.7
	c1.2,2.9,2.6,5.7,4.8,8.5c2.1,2.6,4.8,5,8.1,7.2c0.8,0.5,1.6,1,2.5,1.4c1,0.4,1.4,1,1.5,1.6c0.5,2.8,1,5.6,1.7,8.3
	c1.2,4.7,3,9.4,4.9,14.1c3.7,8.9,7.4,17.7,11.1,26.6c0.8,1.8,1.7,3.6,2.7,5.4c0.7,1.4,1.6,2.8,2.6,4.1c0.5,0.8,1.3,1.5,2.3,2.2
	c2,1.3,4.5,1.5,7.1,0.5c1.7-0.7,2.8-1.5,3.8-2.5c1.3-1.4,2.3-2.8,3-4.3c1.4-2.9,2.6-5.8,3.8-8.7c3.3-8,5.9-16.1,8.2-24.2
	c2.2-7.5,4.4-14.9,6.6-22.4c0.2-0.7,0.5-1.4,0.7-2c0.3-1,1.4-1.8,3-2.4c6.2-2.4,10.4-5.7,12.7-9.6c0.4-0.7,0.8-1.5,1.2-2.2
	c0.2-0.4,0.7-0.8,1.4-1c1.7-0.5,3.3-1.1,4.9-1.7c1.1-0.4,2-1,2.6-1.7c1-1,1.1-2.1,0.4-3.1c-0.5-0.9-1.6-1.5-3.2-1.8
	c-1.5-0.2-3-0.5-4.6-0.5c-4.6-0.1-9.1-0.3-13.7-0.3c-13.3,0-26.7,0.1-40,0.1c-5.2,0-10.4-0.1-15.6-0.2c-7-0.1-14,0-20.9,0.1
	c-2.6,0.1-5.2,0.2-7.7,0.6c-1.4,0.2-2.7,0.6-3.8,1.1C257.2,196.9,257,198.5,258.6,199.6z M347.6,180.3c1.7-4,0.4-7.7-5.1-10.8
	c-2-1.2-4.5-2-6.9-2.9c-5.4-1.9-11.2-3.4-16.8-5c-3.1-0.9-6.1-1.9-8.6-3.3c-1.7-1-3-2.1-3.5-3.5c0-0.1-0.1-0.2-0.1-0.3
	c-0.1-0.2-0.4-0.2-0.7-0.1c-0.2,0.1-0.3,0.1-0.4,0.2c-2.2,1.2-4.3,2.4-6.5,3.6c-2.5,1.4-4.9,2.8-6.6,4.5c-4.1,4.4-4.5,8.9-0.6,13.4
	c1.4,1.6,3.8,2.7,6.7,3.5c2.4,0.6,4.9,1,7.5,1.3c6.3,0.7,12.6,0.8,19,0.5c4.1-0.2,8.3-0.4,12.4-0.6c2.9-0.1,5.8-0.1,8.7,0.1
	C347.3,180.9,347.4,180.9,347.6,180.3z M357.5,191c1-2.1,0.4-4.1-2.4-5.8c-2.8-1.7-6.2-2.7-10.4-2.8c-2.6-0.1-5.2-0.1-7.8,0
	c-4.7,0.2-9.3,0.5-14,0.7c-5.7,0.2-11.4,0-17.1-0.5c-4.9-0.5-9.4-1.4-13.4-3.1c-0.2-0.1-0.5-0.2-0.8-0.3c-0.8-0.2-1.1-0.2-1.9,0.1
	c-0.9,0.3-1.8,0.7-2.7,0.9c-3.5,0.9-6.9,1.9-10,3.2c-0.6,0.3-1.2,0.5-1.9,0.8c-3.3,1.7-5.3,3.8-6.5,6.1c-0.2,0.3-0.2,0.6-0.3,1
	c-0.1,0.8,0.7,1.3,2.3,1.5c0.6,0,1.2,0,1.8,0c5.4-0.1,10.9-0.3,16.3-0.4c3-0.1,5.9,0,8.9,0c3.2,0,6.3,0,9.5,0.1
	c5.6,0.1,11.1,0.1,16.7,0.2c7.7,0.2,15.4,0.3,23.1,0.1c2.2-0.1,4.3,0,6.5,0C356,192.5,357,192.1,357.5,191z M331.4,158.9
	c0.5-4.7-1.5-9.1-6.2-13.1c-2.8-2.4-6.8-4-11.6-5.2c-0.4-0.1-0.9-0.2-1.4-0.2c-2.2-0.2-3.7,0.4-3.6,1.6c0.1,0.5,0.3,1,0.5,1.5
	c0.2,0.4,0.4,0.7,0.6,1.1c1.1,1.9,1.1,3.8,0.3,5.7c-0.2,0.5-0.4,1-0.6,1.6c-0.3,1.1-0.1,2.2,0.9,3.2c0.7,0.7,1.5,1.5,2.4,2.2
	c0.9,0.7,2.3,1.2,3.6,1.7c3.2,1,6.5,1.9,9.8,2.9c1.1,0.3,2.3,0.7,3.4,1c0.4,0.1,0.9,0.3,1.4,0.1c0.1-0.1,0.1-0.1,0.1-0.1
	C331.1,161.5,331.3,160.2,331.4,158.9z"/>
</svg>
