<?xml version="1.0" encoding="utf-8"?>
<!-- Generator: Adobe Illustrator 18.0.0, SVG Export Plug-In . SVG Version: 6.00 Build 0)  -->
<!DOCTYPE svg PUBLIC "-//W3C//DTD SVG 1.1//EN" "http://www.w3.org/Graphics/SVG/1.1/DTD/svg11.dtd">
<svg version="1.1" id="Layer_1" xmlns="http://www.w3.org/2000/svg" xmlns:xlink="http://www.w3.org/1999/xlink" x="0px" y="0px"
	 viewBox="0 0 432 432" enable-background="new 0 0 432 432" xml:space="preserve">
<g>
	<g>
		<path fill="#C59E73" d="M165.3,242c-2,0.3-9.4,4.5-19.8-0.3c-2.4-1.1-4-2.6-5-4.3c-1.6-2.7-2.2-5.6-0.9-7.9
			c1.5-2.5,3.7-2.8,6.1-3.5c0.7-0.2,0.3-0.2-1-3.1c-1.7-3.9-1.2-8,1-10.2c3.7-3.8,4-3.4,2.7-5.9c-0.3-0.5-0.7-1.2-0.8-1.8
			c-0.9-4.6,11.4-0.7,17.9,13.2c4.7,9.9,3.1,17.2,3.3,18.7c0.5-0.7,0.7-1.7,1.7-2.3c0.6-0.4,0.9-0.1,1-0.4c1.6-3,4.2-9.7,3.2-13.5
			c-0.5-1.9-1.4-2-1.7-1.3c-0.2,0.4-0.1,0.9,0,1.6c0,1.7-2.5,0.4-1.7-1.8c0.7-1.8,3.1-1.6,4.2,0.7c2.2,4.9-2.5,14-2.5,14.2
			c1.2-1.3,5-6.3,8.3-8c5.5-2.6,6,3.7,3.6,3.6c-0.7,0-1.1-0.5-1.1-1c0.1-0.6,0.5-1,0.5-1.5c0-1.1-2.2-0.3-3.1,0.3
			c-2.9,1.8-6.2,6.2-7.9,7.9c0,0,0,0.1,0,0.1c1.3,2.1-1.6,3.5-1.8,4.3c1.4-0.6,12.4-9.3,29.8-3.1c8.9,3.2,9.1,6.7,6.8,7.8
			c-1.5,0.7-3.3-0.2-4.5,1.3c-1.2,1.6-0.9,4.4-3.7,7.2c-3.8,3.8-7.5,2.8-8.5,3.2c-0.4,0.2-0.3,0.6-0.2,1.1c0.6,2,0.9,4,0.3,5.7
			c-1.4,3.7-6.7,4.2-11.3,1.8c-4.3-2.3-10.5-8.4-11.4-14.9c-0.4-2.9,0.2-4.5-0.1-5.5c-1,0.9-6.9,9.3-8.3,9.7
			c-0.6,0.1-1.5-0.4-0.9-2.2c0.4-1,3.5-6.5,4.2-7.6C164.5,243.1,164.1,243.8,165.3,242C165.4,242,165.3,242,165.3,242z M202.1,239.1
			c-6.7-3.6-17.9-3-23.6-0.6c-0.3,0.1-0.4,0.3-0.2,0.6c0.6,0.8,0.9-0.7,7-0.6c9.8,0.2,15.6,4,18.1,3.5
			C204.5,241.8,204.4,240.3,202.1,239.1z M152.1,207.6c1,1.2,4.7,3.5,8.4,9.5c3.4,5.5,3.5,8.2,4,9.2c0.1,0.3,0.5,0.3,0.5,0.1
			c0.6-2.2-3.4-13.1-8.4-18.1C152.3,204,150.4,205.6,152.1,207.6z M188.1,241.5c-0.7,0.1-0.5,0.8,0,0.9c0.5,0.2,1.6,0.2,2.9,0.6
			c5,1.5,8.2,3.2,9.3,2.6c0.4-0.2,0.5-0.6,0.3-1.1C199.3,242,190.8,241,188.1,241.5z M141.4,234.2c0.3,0.5,0.9,0.7,1.6,0.2
			c1.4-1.1,1.6-3.6,4.5-5.4c0.4-0.3,0-1-0.8-0.7c-1.2,0.4-1.3,0.5-1.7,0.7C142.8,229.9,140.3,232.5,141.4,234.2z M183.3,263.1
			c2.4-0.3,4.9-2.2,4-2.9c-0.6-0.4-0.7,0.9-3.4,0.8c-1.2-0.1-2.2-0.3-3.6-0.5c-1.6-0.2-2.3,0.7-1.5,1.5
			C179.8,263,182.1,263.3,183.3,263.1z M180.9,256.8c0.4-0.7,0.5-2,0.5-2.1c0-0.3-0.5-0.5-0.8-0.3c-0.3,0.3-0.8,1-1.5,1.5
			c-0.9,0.6-1.8,0.8-2.7,1.3c-0.6,0.3-1.1,1.2-0.3,1.8c0.8,0.6,2.1,0.3,2.7-0.1C179.7,258.4,180.4,257.7,180.9,256.8z M147.1,239.7
			c0.2-0.3,0.3-0.6,0.2-1.1c-0.3-3.7-0.6-3,0.2-5.2c0-0.1,0.1-0.2,0.1-0.3c0-0.3-0.3-0.5-0.5-0.5c-1.1,0.1-3,3.9-1.7,6.4
			c0.5,0.9,1.1,1.2,1.5,0.9C147,239.8,147.1,239.8,147.1,239.7z M162.7,248.4C162.7,248.4,162.7,248.4,162.7,248.4
			c-1.9,2.8-2.1,3-1.5,3.4c0.6,0.4,0.8-0.2,1.3-1c2.5-3.7,2.9-4.3,3.2-5.3c0.1-0.3-0.3-0.6-0.7-0.1
			C163.9,246.5,164.3,246,162.7,248.4z M151.9,212.1c2.6,1.9,1.4,0.6,4.1,3c0.3,0.3,1,0.3,0.2-0.9c-0.4-0.6-0.8-1.1-1.4-1.7
			C151.7,209.4,149.8,210.5,151.9,212.1z M151.7,241.3c0.2-0.6-0.3-1.6-1.2-1.7c-1.3-0.1-1.4,1.4-0.4,2
			C150.7,241.9,151.5,241.9,151.7,241.3z M175.2,256.1c0.2-0.6-0.3-1.6-1.2-1.7c-1.3-0.1-1.4,1.4-0.4,2
			C174.2,256.7,175.1,256.7,175.2,256.1z M184.9,240.8c0.5,0.3,1.1,0.3,1.4,0c0.3-0.4-0.1-1-0.5-1.3
			C184.7,238.7,183.7,240,184.9,240.8z M169.8,241.9c-0.1-0.3-0.3-0.3-0.6-0.4c-1-0.2-1.4-1.1-1.8-1.4c-0.3-0.2-0.7-0.1-0.4,0.6
			C167.8,242.1,169.9,242.5,169.8,241.9z M205.4,241.1c-0.2,0.3,0,0.9,0.4,1.2c0.3,0.2,1,0.3,1.3-0.1c0.2-0.4,0.1-0.9-0.4-1.2
			C206.2,240.8,205.6,240.8,205.4,241.1z M171.3,239.8c0.2-0.1,0.2-0.4-0.3-0.6c-1.2-0.5-1.6-1.3-2.1-1.5c-0.3-0.1-0.5,0.1-0.2,0.5
			C169,238.6,170.8,239.9,171.3,239.8z M150,211.6c-0.1,0-0.2-0.1-0.4-0.1c-0.5-0.1-1,0.2-0.8,0.9c0.2,0.4,0.6,0.7,1.1,0.6
			c0.1,0,0.2-0.1,0.3-0.1C150.5,212.7,150.5,212,150,211.6z M167.2,244.7c0.6,0.1,0.7-0.4,0.1-0.7c-1-0.6-1.5-1.4-1.9-1.1
			C164.9,243.3,166.2,244.5,167.2,244.7z M172.3,252.9c0.1-0.4-0.2-1-0.8-1.1c-0.4-0.1-0.7,0.1-0.8,0.4
			C170.5,253,172,253.8,172.3,252.9z M153.6,241.8c0.2,0.3,0.4,0.4,0.7,0.4c0.8,0,0.8-1,0.1-1.3
			C153.8,240.6,153.2,241.1,153.6,241.8z"/>
	</g>
</g>
<g>
	<path fill="#C59E73" d="M284.9,222.4c0.4,0.3,0.8,0.6,1.2,0.8c2.1,1.2,3.4,3,3.7,5.5c0.3,2.7,0.6,5.4,0.7,8.1
		c0.3,7.2,0,14.4-1.1,21.5c-1,6.6-2.2,13.1-3.4,19.7c-0.6,3.3-1.9,6.3-4.6,8.6c-0.1,0.1-0.2,0.3-0.4,0.5c0,0,0,0.1,0,0.2
		c0.3,0.2,0.6,0.4,0.9,0.6c1.5,1,2.2,2.4,1.9,4.1c-0.2,1.5-0.6,3-0.9,4.4c-2.1,9.3-4.7,18.5-8,27.4c-0.2,0.5-0.4,1.1-0.6,1.6
		c-0.9,2.7-2.4,5-4.9,6.5c-0.8,0.5-1.4,1.1-2.3,1.7c0.7,0.4,1.2,0.7,1.7,1c2.3,1.4,2.8,2.8,1.8,5.3c-1.8,4.5-3.6,8.9-5.5,13.4
		c-1.7,4.1-3.4,8.2-5.1,12.2c-0.5,1.2-1.2,2.3-1.8,3.5c-0.9,1.5-2.1,2.8-3.6,3.8c-1.1,0.7-2.1,1.6-3.3,2.5c0.8,0.4,1.3,0.6,1.8,0.9
		c2.1,1,2.6,1.9,2,4.1c-1.7,7-3.5,14.1-5.3,21.1c-0.4,1.7-1.2,3.3-1.9,4.9c-0.9,2-2.6,3-4.8,2.8c-2.4-0.2-4.8-0.4-7.1-0.9
		c-4.2-0.8-8.3-1.9-12.5-2.9c-1.8-0.4-3.6-1-5.3-1.6c-0.7-0.2-1.4-0.6-2-0.9c-1.9-1.1-2.7-3-2-5.1c0.7-1.9,1.6-3.8,2.7-5.5
		c2.8-4.3,5.7-8.5,8.5-12.7c9.8-15.1,18.7-30.8,26.1-47.3c4.3-9.6,7.8-19.5,10.8-29.6c3-10.2,5.4-20.5,6.9-31
		c1.3-9.4,2-18.8,1.9-28.2c-0.3-17.2-1.3-34.3-3.5-51.3c-1.1-8.9-2.8-17.8-5.5-26.4c-2.1-6.9-4.6-13.6-8.1-20
		c-0.6-1.1-1.1-2.2-1.6-3.3c-0.6-1.7,0.2-3,2-3c0.8,0,1.8,0.2,2.5,0.5c3.6,1.7,6.5,4.2,8.8,7.5c4.6,6.6,7.1,14.1,9.4,21.7
		c0.5,1.7,0.6,3.4,0.4,5.2c0,0.3,0,0.6-0.1,0.9c-0.1,2-0.1,2,1.9,2.7c1.2,0.4,2.1,1.2,2.6,2.4c0.4,1,0.8,2,1.1,3
		c2.9,9.7,4.7,19.5,5.8,29.6c0.3,3.1,0,5.9-1.7,8.5C285.2,221.7,285.1,222,284.9,222.4z"/>
</g>
<path fill="#4D9164" d="M318.2,65.3c0.7,0.8,1.3,1.4,1.9,2.1c1.1,1.6,0.8,3-0.9,3.9c-0.7,0.4-1.5,0.7-2.3,0.9
	c-2.2,0.6-4.4,1.2-6.6,1.8c-4.6,1.3-8.9,3.1-13.1,5.4c-1.1,0.6-2.1,1.3-3.3,2.1c0.4,0.7,0.8,1.3,1.1,1.9c1.4,2.5,0.9,3.8-1.7,4.9
	c-2.1,0.9-4.1,1.7-6.2,2.6c-3.4,1.4-6.7,3.2-9.6,5.6c-1.4,1.1-2.6,2.5-3.8,3.8c-0.3,0.3-0.5,0.8-0.6,1.4c0.9-0.4,1.8-0.7,2.6-1.1
	c9.6-4.2,19.7-6.3,30-7.7c3.2-0.4,6.4-0.6,9.6-0.3c1.1,0.1,2.3,0.4,3.4,0.7c1.9,0.6,2.6,2.5,1.7,4.1c-0.3,0.5-0.6,1.1-0.8,1.7
	c-0.2,0.6-0.3,1.2-0.5,1.9c1.1,0.1,2,0.1,2.9,0.1c4.3,0.2,8.7,0.3,13,0.6c2.7,0.2,5.3,0.5,7.9,1.5c0.9,0.4,1.9,0.8,2.7,1.4
	c1.6,1.2,1.6,2.7,0.3,4.1c-0.6,0.7-1.3,1.3-2,2c-0.4,0.4-0.6,0.9-1,1.5c0.8,0.3,1.3,0.6,1.9,0.7c4.4,1.4,9,2.7,13.2,4.6
	c5.5,2.5,10,6.1,13.5,11c1.7,2.5,3.1,5.2,3.8,8.1c0.2,0.7,0.3,1.3,0.3,2c-0.1,1.5-1.3,2.1-2.6,1.4c-0.6-0.3-1-0.7-1.5-1.1
	c-2.5-2.1-5-4.2-7.6-6.2c-3.1-2.4-6.4-4.4-10.2-5.6c-1.2-0.4-2.4-0.5-3.6-0.7c-0.4-0.1-0.8,0.1-1.4,0.1c0.4,1,0.8,1.9,1.1,2.7
	c0.6,1.5,1.1,3,1.1,4.7c0,2.4-1.8,3.5-3.9,2.3c-0.8-0.5-1.5-1.1-2.2-1.6c-3-2.5-6-5-9-7.4c-3.9-3.2-8.4-5.4-13.2-6.9
	c-1.3-0.4-2.7-0.5-4.3-0.7c0.1,0.4,0.1,0.8,0.2,1.2c0.2,1,0.6,2.1,0.7,3.1c0.3,2.8-1.8,4.2-4.3,3.1c-2-0.9-4-1.9-6-2.9
	c-4.1-2-8.3-3.7-12.6-4.9c-4.1-1.1-8.3-1.5-12.6-0.8c-0.6,0.1-1.2,0.3-1.8,0.4c0,0.1,0,0.2,0,0.3c0.6,0.2,1.3,0.3,1.9,0.5
	c7,1.5,13.7,3.8,20.1,6.9c8.1,4,15.3,9.4,20.5,16.9c1.2,1.8,2.2,3.7,3.1,5.6c0.4,0.9,0.6,1.9,0.7,2.9c0.2,1.8-0.7,3-2.5,3.4
	c-1.2,0.2-2.4,0.3-3.6,0.4c-1.4,0.2-2.8,0.4-4.1,0.8c-1.2,0.4-1.4,0.8-0.8,1.9c0.3,0.5,0.6,1,0.9,1.5c2.3,3.7,4.7,7.3,6.9,11
	c4.5,7.7,7.2,15.9,7.7,24.8c0.1,1.3,0.1,2.6,0,3.9c-0.2,2.6-1.4,3.6-4,3.5c-1.4,0-1.5,0-1.7,1.4c-0.8,4-1.4,7.9-2.3,11.9
	c-0.3,1.6-0.9,3.2-1.4,4.8c-0.2,0.5-0.4,1-0.8,1.4c-0.8,1-2.1,0.9-2.6-0.3c-0.3-0.6-0.4-1.3-0.5-2c-0.4-2.8-0.8-5.7-1.3-8.5
	c-2.8-18.2-9.9-34.7-20.5-49.7c-2.4-3.3-5-6.4-8.3-9c-0.6-0.5-1.2-0.9-2-1.4c-0.3,1.2-0.5,2.1-0.8,3c-0.4,1.1-0.7,2.2-1.2,3.1
	c-0.9,1.6-2.4,1.7-3.5,0.2c-0.6-0.8-1.1-1.6-1.5-2.5c-4.4-8.5-10.5-15.7-17.6-21.9c-1.4-1.2-2.9-2.3-4.7-2.9c-2.7-0.9-5.1-0.3-6.7,2
	c-2.2,3.3-4,6.8-5.4,10.5c-1.3,3.6-2.3,7.2-2.6,11c0,0.6-0.2,1.3-0.4,1.8c-0.6,1.4-1.9,1.8-3.1,0.9c-0.7-0.5-1.2-1.3-1.7-2
	c-0.5-0.7-0.8-1.5-1.2-2.3c-0.7,0.3-0.9,0.9-1.1,1.5c-1.6,3-2.8,6.2-3.7,9.5c-1.9,6.7-2.2,13.5-2,20.4c0,0.7,0.1,1.4,0,2
	c-0.2,1.8-1.5,2.6-3.1,1.8c-0.8-0.4-1.4-1-2.1-1.6c-0.8-0.7-1.4-1.6-2.3-2.5c-0.2,0.5-0.4,0.8-0.5,1.1c-1,3.5-1.4,7.2-1.7,10.8
	c-1.1,14.8,0.1,29.3,3.4,43.7c0.2,0.7,0.3,1.3,0.4,2c0.1,0.4,0.1,0.8,0.1,1.2c0,1.9-1.3,2.8-3,1.9c-1.1-0.6-2.2-1.4-3.2-2.3
	c-2.7-2.7-5.1-5.6-7.2-8.8c-3.4-5.3-6.2-10.9-8-17c-0.2-0.8-0.5-1.6-0.9-2.5c-0.6,0.5-1.2,1-1.7,1.4c-2.5,2.5-4.1,0.9-4.4-1.4
	c-0.3-2.5-0.7-5.1-0.6-7.7c0.2-8.2,1.6-16.2,4.5-24c1.9-5.1,4.4-9.9,7-14.6c0.9-1.6,1.8-3.2,2.6-4.9c0.1-0.2,0.1-0.5,0.3-0.9
	c-0.6-0.1-1.2-0.3-1.8-0.4c-1.7-0.3-2.5-1.2-2.2-3c0.2-1.3,0.7-2.6,1.2-3.9c1.9-4.9,4.7-9.4,7.9-13.6c0.3-0.4,0.6-0.8,0.7-1.4
	c-0.8,0.8-1.6,1.5-2.3,2.3c-3.6,3.9-6.5,8.2-9.3,12.7c-1.4,2.3-2.7,4.6-4.1,6.9c-0.6,0.9-1.1,1.8-1.8,2.6c-1.5,1.8-3.2,1.5-4.3-0.5
	c-0.4-0.8-0.6-1.6-1-2.4c-0.2-0.4-0.3-0.9-0.6-1.6c-0.7,0.8-1.3,1.4-1.8,2.1c-3.2,4.1-5.8,8.6-8.1,13.3c-3.1,6.4-5.2,13.1-6.9,20
	c-0.5,2.2-1.1,4.3-1.7,6.5c-0.2,0.7-0.5,1.4-0.9,2c-0.9,1.3-2.3,1.5-3.3,0.3c-0.8-0.9-1.4-2-1.8-3.1c-1-2.4-1.3-5-1.4-7.6
	c-0.3-6.5,0.6-12.9,2.7-19.1c1.1-3.1,2.1-6.3,3.1-9.4c0.8-2.5,0.6-2.8-2-3.2c-0.9-0.1-1.8-0.2-2.7-0.4c-1.4-0.4-2.1-1.4-1.8-2.8
	c0.2-0.9,0.6-1.9,1-2.7c1.1-2.3,2.7-4.3,4.6-6c3.6-3.4,7.3-6.7,11-10c1.3-1.2,2.8-2.3,4.1-3.5c0.4-0.3,0.7-0.7,1.2-1.1
	c-0.8-0.6-1.5-1-2.2-1.5c-1.8-1.3-2-2.6-0.5-4.3c0.7-0.8,1.4-1.5,2.2-2.1c3.6-2.9,7.5-5.2,11.5-7.5c6.2-3.5,12.5-6.7,19.2-9.1
	c0.2-0.1,0.4-0.2,0.9-0.4c-1.2-0.2-2.1-0.4-3-0.5c-4.4-0.2-8.7-0.3-13.1-0.3c-3.8-0.1-7.6-0.1-11.4-0.1c-0.4,0-0.8,0-1.2-0.1
	c-1.5-0.3-2.2-1.1-2.1-2.7c0.1-0.8,0.2-1.6,0.3-2.6c-0.5,0.1-0.9,0.2-1.2,0.3c-5.3,2.3-10.6,4.7-15.5,7.9c-2,1.3-4.1,2.5-6.1,3.7
	c-0.8,0.5-1.8,0.8-2.7,1.1c-1.4,0.3-2.2-0.4-2.2-1.9c0-1,0.1-1.9,0.1-3c-0.6,0.3-1,0.4-1.4,0.6c-7.2,3.5-14.3,7-21.5,10.4
	c-1.6,0.8-3.4,1.2-5.1,1.8c-0.5,0.2-1.2,0.1-1.7,0c-1-0.2-1.4-1.1-1.1-2c0.2-0.6,0.5-1.1,0.8-1.7c2.3-4,5-7.8,8.1-11.2
	c2.4-2.6,4.9-5.3,7.4-7.9c2.2-2.3,4.6-4.2,7.5-5.7c-0.4-0.3-0.6-0.6-0.9-0.8c-0.6-0.5-1.2-1-1.8-1.5c-1.6-1.5-1.4-3,0.5-3.8
	c6.2-2.5,12.4-5.1,19.2-5.8c0.6-0.1,1.3-0.1,1.9-0.1c0.6,0,1.2,0,2.1,0c-0.6-0.7-1-1.2-1.3-1.7c-0.6-0.8-1.2-1.6-1.7-2.5
	c-1.1-1.9-0.4-3.2,1.8-3.4c0.6-0.1,1.2,0,1.7,0c5.3,0,10.5,0.3,15.7,1.2c2.9,0.5,5.8,1.2,8.6,2.2c0.3,0.1,0.6,0.2,1.1,0.3
	c-0.2-0.7-0.4-1.1-0.4-1.6c-0.2-1.4,0.6-2.2,2-1.9c0.5,0.1,0.9,0.3,1.4,0.5c8.2,3.4,16,7.5,23.3,12.6c0.2,0.2,0.5,0.3,0.7,0.5
	c0.1,0,0.2,0,0.4,0.1c-0.2-0.4-0.4-0.7-0.6-1c-1.8-2.3-3.7-4.5-5.5-6.8c-0.5-0.6-1-1.3-1.5-2c-1-1.7-0.6-2.8,1.3-3.4
	c0.2-0.1,0.4-0.1,0.7-0.2c-0.2-0.2-0.3-0.3-0.4-0.4c-7.1-4.7-14.6-8.7-22.5-12c-2.3-1-4.8-1.7-7.1-2.5c-0.8-0.3-1.6-0.6-2.3-1
	c-1.4-0.9-1.5-2.1-0.4-3.3c0.6-0.6,1.2-1.1,1.9-1.6c0.2-0.2,0.4-0.4,0.7-0.7c-0.6-0.4-1.1-0.7-1.7-1c-7.4-3.7-14.8-7.4-22.2-11.1
	c-0.7-0.3-1.3-0.6-2-1c-0.9-0.5-1.8-1-1.6-2.2c0.2-1.1,1.3-1.2,2.2-1.3c3.4-0.4,6.9-0.8,10.3-1.2c6.7-0.7,13.4-0.6,20.1,0.2
	c2.1,0.3,4.2,0.9,6.3,1.3c0.2,0.1,0.5,0.1,0.9,0.2c-0.3-0.9-0.5-1.6-0.8-2.3c-0.2-0.7-0.5-1.5-0.7-2.2c-0.2-1.3,0.6-1.9,1.8-1.5
	c0.2,0.1,0.4,0.2,0.7,0.3c7.6,3.6,14.9,7.8,21.6,12.9c1.6,1.2,3.1,2.5,4.6,3.8c0.2,0.2,0.5,0.4,1,0.8c0.1-1.1,0.1-1.9,0.2-2.8
	c0.1-0.9,0.2-1.8,0.5-2.6c0.5-1.3,1.7-1.5,2.6-0.4c0.3,0.3,0.5,0.7,0.7,1.1c5.1,7.8,8.6,16.3,11.2,25.3c0.1,0.3,0.2,0.7,0.3,1
	c0,0.1,0.1,0.1,0.3,0.3c0.2-0.4,0.4-0.8,0.6-1.2c0.3-0.5,0.6-1,1-1.4c0.8-0.8,1.9-0.6,2.4,0.4c0.2,0.4,0.3,0.8,0.4,1.3
	c1.4,6.3,2.4,12.6,2.4,19.1c0,0.3,0,0.7,0,1c0,0.2,0.1,0.4,0.2,0.8c0.3-0.6,0.5-1,0.7-1.5c3.7-8.3,8.1-16.3,13.6-23.6
	c2.8-3.6,5.7-7.2,9.1-10.2c0.7-0.6,1.4-1.2,2.2-1.7c0.4-0.3,0.9-0.6,1.4-0.8c1.6-0.6,2.7,0,2.7,1.7c0,1.2-0.2,2.4-0.2,3.6
	c0,0.5,0,1,0,1.8c0.6-0.4,1-0.7,1.4-0.9c1.8-1.3,3.5-2.7,5.2-4c6.9-5.2,14.6-8.9,22.7-11.7c2.7-0.9,5.4-1.6,8.2-1.9
	c0.6,0,1.2-0.1,1.7,0.1c1.4,0.3,1.9,1.4,1.3,2.6c-0.6,1.2-1.3,2.3-2,3.4c-0.2,0.3-0.3,0.7-0.6,1.2c0.9,0,1.6-0.1,2.3-0.1
	c5.4-0.4,10.7-0.1,16,1c2.5,0.5,4.8,1.4,6.9,2.7c0.2,0.1,0.3,0.2,0.5,0.3c1.1,0.9,1,2-0.2,2.7c-0.6,0.3-1.2,0.5-1.8,0.6
	c-2.5,0.5-4.9,1-7.4,1.4c-6.6,1-12.8,3.2-19.1,5.4C318.9,64.9,318.6,65.1,318.2,65.3z M145.7,375.8c-1.2-0.2-2.7-0.1-4.5,0.1
	c-1.8,0.3-4,1-6.5,2.2c-1.7,0.8-3.6,1.8-5.7,2.9c-2.1,1.1-4.3,2.2-6.5,3.3c-2.2,1.1-4.5,2.3-6.9,3.4c-2.3,1.1-4.6,2.1-6.8,3.1
	c0-1.9,0.1-3.6,0.1-5c0.1-1.4,0.1-2.6,0.2-3.4c0.1-0.4,0-0.9-0.2-1.3c-0.2-0.4-0.5-0.7-0.9-0.9c-0.8-0.5-1.6-0.8-2.4-0.8
	c-0.8,0-1.4,0-1.9,0.1c-0.6,0.1-1,0.5-1.1,1.1c-0.2,1.7-0.3,3.6-0.4,5.8c-0.1,2.2-0.1,4.4-0.1,6.8c-0.8,0.2-1.5,0.5-2.3,0.7
	s-1.4,0.4-2.1,0.5c-2.2,0.4-4.2,0.6-5.8,0.4c-1.6-0.2-2.9-0.6-4-1.1c-1.1-0.6-1.9-1.3-2.4-2.2c-0.5-0.9-0.9-1.8-1-2.8
	c0-0.4-0.2-0.7-0.5-0.9c-0.3-0.2-0.7-0.3-1.1-0.2l-0.7,0.1c-0.8,0.2-1.4,0.5-2,0.9c-0.5,0.4-0.9,1-1.2,1.5c-0.2,0.6-0.3,1.2-0.3,1.8
	c0,0.6,0.3,1.2,0.7,1.8c0.6,0.8,1.4,1.6,2.5,2.4c1.1,0.8,2.5,1.4,4.3,1.7c1.8,0.4,3.9,0.5,6.5,0.2c2.6-0.2,5.6-0.9,9.2-2.1
	c0.2,3.5,0.5,7,0.9,10.5c0.4,3.4,1,6.5,1.8,9.2c0.9,3.1,1.8,5.4,2.8,6.9c1,1.5,1.9,2.6,2.8,3.2c1,0.7,2,1,3,0.9
	c0.9-0.1,1.7-0.6,2.4-1.4c0.7-0.8,1.3-1.8,1.8-2.9c0.5-1.1,0.9-2.4,1.2-3.7c0.3-1.3,0.6-2.6,0.8-3.9c0.2-1.2,0.3-2.4,0.4-3.3
	s0.1-1.7,0.1-2.1c0-0.5-0.2-1-0.7-1.3c-0.2-0.1-0.3-0.1-0.4-0.1c-0.4-0.2-0.7,0-0.8,0.4c-0.1,0.6-0.2,1.6-0.4,3.2
	c-0.2,1.5-0.5,3.1-0.8,4.7s-0.8,3-1.2,4.3c-0.5,1.3-1,2-1.6,2.1c-0.8,0.1-1.4-0.2-2-1c-0.6-0.8-1-2-1.4-3.4c-0.4-1.5-0.7-3.2-1-5.1
	c-0.3-2-0.5-4.1-0.6-6.3c-0.1-2.2-0.2-4.5-0.3-6.8c-0.1-2.3-0.1-4.5-0.1-6.6c4.9-1.9,9.4-3.9,13.5-5.8c4.1-1.9,7.6-3.5,10.7-4.8
	c3-1.3,5.4-2.1,7.2-2.4c1.8-0.3,2.9,0.1,3.3,1.3c0.1,0.5,0.4,0.8,0.7,1c0.3,0.2,0.6,0.3,0.9,0.3c0.3,0.1,0.7,0.1,1.1,0
	c0.9-0.1,1.7-0.4,2.4-0.8c0.7-0.4,1.2-0.9,1.5-1.4c0.3-0.6,0.4-1.1,0.3-1.6c-0.1-0.5-0.2-0.9-0.4-1.3c-0.3-0.5-0.6-0.9-1-1.2
	C148.2,376.4,147,376,145.7,375.8z M131.7,405.8c-0.2-0.1-0.4,0-0.5,0c-0.2,0.1-0.2,0.2-0.2,0.4c0,1.1-0.1,2.3-0.3,3.8
	s-0.4,2.9-0.7,4.3s-0.7,2.6-1.1,3.6c-0.4,1-1,1.5-1.6,1.5c-0.4,0-0.8-0.3-1-1c-0.3-0.7-0.5-1.6-0.6-2.7c-0.1-1.1-0.2-2.3-0.2-3.7
	c0-1.3,0-2.7,0-4c0-1.3,0-2.6,0.1-3.7c0.1-1.2,0.1-2.1,0.1-2.7c0-0.4-0.1-0.7-0.3-1.1c-0.2-0.3-0.5-0.6-0.8-0.7
	c-0.8-0.4-1.7-0.6-2.6-0.6c-0.9,0-1.7,0-2.4,0.2c-0.7,0-1.1,0.4-1.1,1.2c-0.3,3.6-0.4,6.8-0.1,9.8c0.2,3,0.7,5.4,1.4,7.5
	c0.7,2,1.6,3.5,2.8,4.6c1.1,1,2.5,1.4,4,1.1c0.9-0.1,1.7-0.6,2.4-1.3c0.7-0.7,1.3-1.6,1.8-2.7c0.5-1,0.9-2.2,1.2-3.4
	c0.3-1.2,0.5-2.4,0.7-3.6c0.2-1.2,0.3-2.2,0.3-3.2c0-1,0-1.8,0-2.3c0-0.6-0.2-1-0.7-1.3C131.8,405.8,131.7,405.8,131.7,405.8z
	 M124,397.6c0.5-0.3,0.8-0.8,0.7-1.3c0-0.5-0.3-0.9-0.8-1.2c-0.6-0.3-1.2-0.4-1.9-0.4c-0.8,0.1-1.4,0.2-1.9,0.6
	c-0.5,0.3-0.8,0.7-0.8,1.2c0,0.5,0.3,0.9,0.8,1.2c0.6,0.3,1.2,0.4,2,0.4C122.9,398.1,123.5,397.9,124,397.6z M138.1,417.4
	c0.2-0.1,0.3-0.3,0.4-0.5c0.1-0.2,0.2-0.4,0.2-0.6c0.1-0.6,0.3-1.6,0.5-3c0.3-1.4,0.6-2.9,1.1-4.5c0.5-1.6,1-3.1,1.7-4.5
	c0.6-1.5,1.4-2.5,2.2-3.1c0.1-0.1,0.2-0.1,0.3,0c0.2,0.1,0.2,0.6,0.2,1.6c0,0.5,0,1.4,0.1,2.7c0.1,1.3,0.3,2.6,0.8,4
	c0.4,1.3,1.1,2.4,2,3.3c0.9,0.9,2.1,1.1,3.7,0.7c0.5-0.1,1.1-0.4,1.7-0.8c0.5-0.4,1-0.9,1.6-1.6c0.6-0.7,1.1-1.7,1.7-3
	c0.3-0.8,0.8-1.8,1.3-3c0.5-1.2,1.1-2.4,1.8-3.7s1.3-2.6,1.9-3.9c0.7-1.3,1.3-2.5,2-3.5c0.6-1.1,1.2-1.9,1.7-2.5
	c0.5-0.6,0.9-0.9,1.2-1c-1.2,5.1-2,9.6-2.4,13.7c-0.1,1.7-0.2,3.4-0.2,5.1c0,1.7,0.2,3.1,0.5,4.4c0.3,1.3,0.8,2.3,1.5,3.2
	c0.7,0.8,1.5,1.3,2.6,1.3c1.1,0.1,2.1-0.1,3-0.7c0.9-0.5,1.7-1.2,2.4-2c0.7-0.8,1.3-1.7,1.8-2.6c0.5-1,1-1.8,1.3-2.7
	c0.3-0.8,0.6-1.5,0.8-2.1c0.2-0.6,0.3-0.9,0.3-0.9c0.3-0.9,0.5-1.7,0.7-2.6c0.2-0.9,0.3-1.7,0.4-2.5c0.1-0.8,0.2-1.5,0.2-2.1
	c0-0.6,0.1-1.1,0.1-1.5c0-0.6-0.2-1-0.7-1.3c-0.1,0-0.2-0.1-0.2-0.1c0,0-0.1,0-0.2-0.1c-0.2-0.1-0.3-0.1-0.5,0
	c-0.2,0.1-0.2,0.2-0.2,0.4c-0.1,0.4-0.1,0.9-0.2,1.5c-0.1,0.6-0.2,1.2-0.3,2c-0.1,0.7-0.3,1.5-0.5,2.3c-0.2,0.8-0.4,1.5-0.6,2.2
	c-0.3,0.8-0.6,1.6-0.9,2.4c-0.3,0.7-0.5,1.3-0.9,2.1c-0.3,0.7-0.7,1.3-1.1,2c-0.4,0.5-0.7,1-1.1,1.3c-0.3,0.3-0.7,0.5-1.1,0.5
	c-0.3,0-0.5-0.3-0.6-0.9c-0.1-0.6-0.2-1.4-0.2-2.4c0-1,0.1-2.1,0.2-3.4c0.1-1.3,0.3-2.5,0.4-3.8c0.4-3.1,0.9-6.6,1.6-10.5
	c0.1-1.5,0-2.8-0.3-3.7c-0.3-0.9-0.7-1.6-1.2-2.2c-0.5-0.6-1.1-1-1.8-1.3c-1.1-0.4-2.2-0.1-3.3,0.7c-1.1,0.8-2.3,2-3.4,3.5
	c-1.1,1.5-2.2,3.1-3.2,5c-1,1.9-1.9,3.6-2.7,5.4c-0.8,1.7-1.5,3.2-2.1,4.5c-0.6,1.3-1,2.1-1.2,2.5c-0.3,0.6-0.6,0.7-0.7,0.5
	c-0.2-0.2-0.3-0.7-0.4-1.4c-0.1-0.7-0.1-1.5-0.2-2.4c0-0.9-0.1-1.8-0.1-2.7c-0.1-0.8-0.2-1.7-0.4-2.6c-0.2-0.9-0.5-1.7-1-2.3
	c-0.5-0.7-1.1-1.2-1.9-1.5c-0.8-0.3-1.8-0.4-3.1-0.2c-1,0.2-1.9,0.8-2.7,1.9s-1.6,2.4-2.4,3.8s-1.3,3-1.9,4.6c-0.5,1.6-1,2.9-1.3,4
	c-0.2-2.7-0.2-5.1,0-7.3c0.2-2.1,0.3-3.8,0.5-5c0.1-0.4,0-0.8-0.2-1.2c-0.2-0.4-0.5-0.6-0.9-0.8c-0.8-0.3-1.7-0.4-2.6-0.4
	c-0.9,0.1-1.7,0.2-2.3,0.3c-0.7,0.1-1.1,0.6-1.2,1.3c-0.1,0.7-0.2,1.7-0.3,3c-0.1,1.3-0.2,2.7-0.2,4.2c0,1.5,0,3.1,0.2,4.7
	c0.1,1.6,0.4,3.2,0.8,4.6c0.4,1.4,1,2.6,1.8,3.7c0.8,1,1.8,1.7,3,2.1c0.2,0,0.4,0,0.6,0.1c0.5,0.1,0.9,0.1,1.3,0
	C137.7,417.7,137.9,417.6,138.1,417.4z M194.6,393.7c-0.2-0.1-0.3-0.1-0.5,0c-0.1,0.1-0.2,0.2-0.2,0.4c-0.1,0.6-0.2,1.5-0.5,2.7
	c-0.3,1.2-0.6,2.4-1,3.7c-0.4,1.3-0.8,2.4-1.3,3.4c-0.5,1-1,1.6-1.5,1.8c-1.1,0.4-2,0.4-2.8-0.1c-0.8-0.4-1.4-1.1-1.9-1.9
	c-0.5-0.8-0.9-1.8-1.2-2.8c-0.3-1-0.5-1.9-0.7-2.6c1.2-0.3,2.3-0.9,3.2-1.9c0.9-0.9,1.6-1.9,2.1-3.1c0.5-1.1,0.8-2.3,0.9-3.5
	c0.1-1.2,0-2.3-0.4-3.2c-0.3-0.9-0.9-1.7-1.7-2.2c-0.8-0.6-1.8-0.8-3.1-0.6c-1,0.1-1.8,0.4-2.5,0.9c-0.7,0.4-1.3,1-1.8,1.6
	c-0.5,0.6-0.9,1.3-1.2,2.1c-0.3,0.8-0.6,1.6-0.8,2.4c-0.4,1.9-0.6,4-0.5,6.2c0.2,2,0.4,3.7,0.9,5.1c0.4,1.4,1,2.6,1.6,3.6
	c0.6,1,1.3,1.8,2,2.4c0.7,0.6,1.4,1,2.1,1.3c1.7,0.7,3.6,0.9,5.6,0.4c1.4-0.3,2.6-1.1,3.4-2.4c0.9-1.3,1.5-2.8,2-4.4
	c0.4-1.6,0.7-3.2,0.9-4.7c0.2-1.5,0.3-2.6,0.3-3.3c0-0.6-0.3-1-0.7-1.3C194.9,393.8,194.8,393.7,194.6,393.7z M185.3,387.7
	c0.2,0.1,0.4,0.3,0.5,0.6c0.2,0.3,0.2,0.7,0.2,1.2c0,0.5-0.1,1.2-0.5,2.1c-0.4,1-0.8,1.8-1.4,2.5c-0.6,0.6-1.1,1.1-1.5,1.4
	c0-1.8,0.1-3.1,0.3-4.2c0.2-1,0.4-1.8,0.7-2.3c0.2-0.5,0.5-0.9,0.7-1c0.2-0.2,0.4-0.3,0.5-0.3C184.9,387.6,185.1,387.6,185.3,387.7z
	 M94,321c1.4-2,2.1-4.2,2.1-6.6c0-3.3-1.4-6.5-4-9.8c-1.2-1.4-2.5-2.8-3.9-4.2c-1.4-1.4-2.7-2.8-3.9-4.4c-2.9-3.4-4.4-7-4.4-10.7
	c0-1.5,0.2-3,0.5-4.4c0.3-1.5,0.9-2.7,1.9-3.7c0.9-1,2.3-1.4,4.2-1.4c1.6,0,3,0.9,4,2.8c1,1.9,1.5,4.5,1.5,7.8
	c0,1.4-0.1,2.9-0.3,4.3c-0.2,1.4-0.3,2.6-0.3,3.4c0,2.3,0.9,3.5,2.7,3.5c2.4,0,3.5-2.8,3.5-8.5l0-1.7c0-4.9-0.8-8.9-2.5-11.9
	c-2-3.7-5.4-5.5-10.1-5.5c-3.4,0-6.1,0.7-8.3,2c-2.2,1.3-3.8,3.2-4.9,5.6c-1.1,2.4-1.6,5.2-1.6,8.3c0,3,0.5,5.8,1.6,8.1
	c1.1,2.4,2.4,4.5,4,6.5s3.2,3.7,4.8,5.3c1.7,1.7,3.1,3.3,4.3,4.8c1.2,1.5,1.7,3,1.7,4.5c0,1.3-0.3,2.4-0.8,3.1
	c-0.5,0.7-1.5,1.1-2.9,1.1c-1.2,0-2.1-0.4-2.7-1.1c-0.6-0.7-1.1-1.6-1.3-2.7c-0.2-1-0.4-2-0.4-2.9c0-0.9-0.2-1.7-0.6-2.3
	c-0.4-0.6-1.1-0.9-2-0.9c-2.2,0-3.3,1.3-3.3,3.9c0,4.5,1.3,7.9,3.9,10.1c1.8,1.5,4.2,2.2,7,2.2C88.2,325.8,91.7,324.2,94,321z
	 M142.8,323.8c2.3-2.4,3.9-6.3,4.7-11.8c0.6-3.9,0.9-8.6,0.9-14.1c0-15-0.7-23.8-2-26.5c-0.5-0.9-1.3-1.3-2.6-1.3
	c-1,0-1.8,0.3-2.4,0.8c-0.6,0.6-1,1.3-1,2.3c0,1.4,0.1,3.3,0.3,5.6c0.5,6.1,0.8,12.5,0.8,19.5c0,13.2-1,19.8-3.1,19.8
	c-1.2,0-2.7-4.1-4.3-12.2c-0.5-2.4-1.1-4.2-1.7-5.4c-0.8-1.5-2.3-2.3-4.3-2.3c-0.7,0-1.4,0.1-2.1,0.4c-1.5,0.6-2.5,2.2-3,4.9
	c-1.6,8.7-3.1,13-4.4,13c-2.4,0-3.7-13.1-3.7-39.2c0-4.9-1.8-7.3-5.4-7.3c-2.7,0-4.2,1.3-4.6,3.8c-0.2,1.1-0.3,2.7-0.3,4.8
	c0,7.5,0.1,13.6,0.4,18.2c1.1,19.3,4.7,28.9,10.8,28.9c4.2,0,7.7-4.3,10.5-13c0.2-0.7,0.4-1,0.7-1c0.2,0,0.4,0.3,0.6,1
	c2.1,8.7,5.3,13,9.5,13C139.6,325.9,141.4,325.2,142.8,323.8z M180.2,322.7c2.4-2.1,4-4.7,4.7-7.7c0.1-0.3,0.1-0.6,0.1-0.8
	c0-0.7-0.2-1.3-0.7-1.7c-0.5-0.4-1-0.6-1.6-0.6c-1.2,0-2,0.6-2.4,1.7c-1.5,3.8-3.5,5.8-6.1,5.8c-2.4,0-4.4-1.5-6-4.4
	c-1.2-2.1-1.8-4.1-1.8-6.1c0-0.9,0.4-1.4,1.2-1.4c4.4-0.2,8-1.5,11-3.8c4.3-3.4,6.4-8.6,6.4-15.7c0-4.7-0.7-8.6-2.1-11.7
	c-1.9-4.1-5.2-6.1-10-6.1c-3.8,0-7.1,1.3-9.8,4c-5.3,5.1-7.9,13.7-7.9,25.8c0,4.8,0.5,9.2,1.5,13.1c2.2,8.5,7,12.8,14.5,12.8
	C174.9,325.7,177.9,324.7,180.2,322.7z M166.1,299.8c0.2-15.3,2.8-22.9,7.8-22.9c2.3,0,3.8,1.6,4.6,4.7c0.4,1.8,0.7,4.1,0.7,6.9
	c0,3.4-0.7,6-2,8c-1.3,2-2.9,3.3-4.9,4.2c-2,0.8-3.6,1.2-4.9,1.2C166.6,301.8,166.1,301.2,166.1,299.8z M215.9,322.7
	c2.4-2.1,4-4.7,4.7-7.7c0.1-0.3,0.1-0.6,0.1-0.8c0-0.7-0.2-1.3-0.7-1.7c-0.5-0.4-1-0.6-1.6-0.6c-1.2,0-2,0.6-2.4,1.7
	c-1.5,3.8-3.5,5.8-6.1,5.8c-2.4,0-4.4-1.5-6-4.4c-1.2-2.1-1.8-4.1-1.8-6.1c0-0.9,0.4-1.4,1.2-1.4c4.4-0.2,8-1.5,11-3.8
	c4.3-3.4,6.4-8.6,6.4-15.7c0-4.7-0.7-8.6-2.1-11.7c-1.9-4.1-5.2-6.1-10-6.1c-3.8,0-7.1,1.3-9.8,4c-5.3,5.1-7.9,13.7-7.9,25.8
	c0,4.8,0.5,9.2,1.5,13.1c2.2,8.5,7,12.8,14.5,12.8C210.6,325.7,213.6,324.7,215.9,322.7z M201.8,299.8c0.2-15.3,2.8-22.9,7.8-22.9
	c2.3,0,3.8,1.6,4.6,4.7c0.4,1.8,0.7,4.1,0.7,6.9c0,3.4-0.7,6-2,8c-1.3,2-2.9,3.3-4.9,4.2c-2,0.8-3.6,1.2-4.9,1.2
	C202.3,301.8,201.8,301.2,201.8,299.8z M246.6,325.3c1.2-0.3,2.4-0.8,3.3-1.4c1-0.6,1.5-1.5,1.5-2.5c0-1-0.6-1.5-1.9-1.5
	c-0.4,0-0.8,0-1.2,0.1c-1.1,0.3-2,0.4-2.9,0.4c-1.1,0-2.1-0.3-2.8-0.9c-0.8-0.6-1.3-1.7-1.7-3.3c-0.4-1.6-0.6-4.1-0.6-7.3v-30.8
	c0-1,0.5-1.5,1.5-1.5h5.4c1.1,0,2-0.3,2.5-0.8c0.6-0.5,0.8-1.1,0.8-1.7c0-1.8-0.9-2.7-2.7-2.7h-6c-1,0-1.5-0.6-1.5-1.7v-3.5
	c0-2.9-0.6-5-1.9-6.3c-0.9-1-2.2-1.4-3.8-1.4c-1.6,0-2.8,0.4-3.5,1.2c-0.7,0.8-1.2,1.8-1.4,3c-0.2,1.2-0.3,2.5-0.3,3.9v3.2
	c0,1.1-0.6,1.7-1.7,1.7c-1.8,0-3.1,0.3-3.8,0.7c-0.6,0.4-0.8,1-0.8,2c0,0.6,0.3,1.2,0.8,1.7c0.6,0.5,1.4,0.8,2.5,0.8h1.3
	c1.1,0,1.7,0.5,1.7,1.5v29.2c0,3.8,0.4,7.1,1.3,9.9c0.9,2.7,2.3,4.8,4.3,6.3c2,1.5,4.8,2.2,8.4,2.2
	C244.3,325.8,245.4,325.6,246.6,325.3z"/>
<g>
	<path fill="#C59E73" d="M69.6,365.5c0,0.6,0,1.1-0.1,1.6c-0.1,0.5-0.2,0.9-0.3,1.4c-0.1,0.5-0.3,0.9-0.6,1.4
		c-0.7,1.2-1.7,2.2-2.9,2.8c-1.2,0.7-2.5,1-3.9,0.9c-1.1-0.1-2.1-0.4-2.9-0.9c-0.7-0.4-1.4-0.9-2-1.7c-0.6-0.8-0.8-1.8-0.7-3.2
		s0.7-2.7,1.7-4s2.6-2.2,4.5-2.7c-0.2-0.3-0.4-0.6-0.6-0.9c-0.7-0.9-1.2-1.8-1.6-2.7c-0.4-0.9-0.8-1.6-1.1-2.3
		c-0.3-0.8-0.6-1.6-0.8-2.3c-0.6-1.9-0.8-3.7-0.8-5.2c0-0.7,0.1-1.4,0.2-2.1c0.1-0.7,0.3-1.3,0.6-1.8c0.3-0.6,0.7-1.1,1.3-1.5
		c0.5-0.4,1.2-0.8,2-0.9c0.8-0.2,1.6-0.2,2.3-0.1c0.6,0.1,1.2,0.3,1.7,0.6c0.5,0.3,0.9,0.7,1.2,1.4c0.1,0.5,0.1,0.9-0.2,1.1
		c-0.3,0.2-0.6,0.5-0.9,0.8c-0.3,0.3-0.7,0.7-0.9,1.3c-0.3,0.6-0.4,1.4-0.3,2.7c0.1,0.6,0.3,1.2,0.5,2c0.2,0.7,0.5,1.4,0.9,2.4
		c0.3,0.9,0.8,1.9,1.4,3l0.7,1.4c0.2,0.4,0.5,0.9,0.7,1.5c0.2,0.6,0.5,1.3,0.7,2c1.7,0.6,3.2,1.6,4.6,3.1c0.6,0.7,1,1.4,1.4,2.1
		c0.3,0.6,0.6,1.3,0.8,2c0.2,0.7,0.2,1.5-0.1,2.2c-0.2,0.7-0.5,1.3-0.9,1.6c-0.4,0.3-0.7,0.5-1.1,0.5c-0.4,0-0.7,0-1-0.2
		c-0.3-0.2-0.5-0.3-0.6-0.5c-0.2-0.2-0.3-0.5-0.3-0.8c0-0.3,0-0.5,0.1-0.8c0.1-0.2,0.2-0.5,0.3-0.8c-0.1-0.7-0.3-1.4-0.7-2.1
		C71.1,366.8,70.5,366.1,69.6,365.5z M62.1,369.6c0.6-0.5,1-1.2,1.2-2.1s0.3-2,0.1-3.2c-1.2,0.2-2.2,0.6-3,1.2
		c-0.8,0.6-1.3,1.1-1.6,1.7c-0.2,0.5-0.2,0.9-0.2,1.2c0.1,0.3,0.2,0.6,0.2,0.8c0.1,0.2,0.3,0.4,0.5,0.6c0.3,0.2,0.6,0.3,0.9,0.3
		c0.3,0,0.6,0,0.8-0.1C61.5,369.9,61.8,369.8,62.1,369.6z"/>
	<path fill="#C59E73" d="M87.4,343.1c0.1-0.5,0.2-1,0.4-1.5c0.2-0.6,0.3-1.1,0.5-1.6c0.2-0.6,0.3-1.2,0.4-1.8c0.1-0.7,0.6-1.1,1.3-1
		c0.7,0,1.4,0.1,2.3,0.3c0.9,0.2,1.7,0.5,2.5,1c0.7,0.6,0.9,1.2,0.7,2c-0.1,0.6-0.3,1.5-0.6,2.7c-0.3,1.1-0.5,2.3-0.8,3.6
		c-0.3,1.3-0.5,2.6-0.7,3.9c-0.2,1.3-0.4,2.5-0.5,3.6s0,2,0.1,2.7c0.1,0.7,0.4,1.1,0.9,1.2c0.6,0.1,1.1-0.2,1.7-0.8
		c0.6-0.6,1.2-1.3,1.7-2.2c0.5-0.9,1-1.8,1.4-2.7s0.7-1.7,0.9-2.2c0.2-0.5,0.5-0.6,0.8-0.3c0.1,0.1,0.2,0.1,0.2,0.1
		c0,0,0.1,0.1,0.2,0.1c0.4,0.4,0.6,0.9,0.4,1.4c-0.1,0.7-0.4,1.6-0.8,2.8c-0.4,1.2-1,2.4-1.7,3.5c-0.7,1.2-1.6,2.2-2.7,3
		s-2.3,1.3-3.7,1.2c-1.5,0-2.7-0.6-3.6-1.6c-0.9-1-1.5-2.5-1.9-4.5c-0.8,2.1-1.8,3.6-2.8,4.6c-1,1-2,1.7-3,2.1
		c-1.1,0.5-2.1,0.7-3.2,0.6c-3.1-0.2-5.1-2.3-5.9-6.3c-0.8-4-0.3-9.5,1.6-16.4c0.2-0.7,0.7-1.1,1.4-1c0.7,0,1.4,0.1,2.3,0.3
		c0.9,0.2,1.7,0.5,2.5,1c0.3,0.2,0.5,0.5,0.6,0.9c0.1,0.4,0.2,0.7,0.1,1.1c-0.1,0.7-0.3,1.5-0.6,2.5c-0.2,1-0.5,2.1-0.7,3.3
		c-0.2,1.2-0.4,2.4-0.6,3.6c-0.2,1.2-0.3,2.3-0.3,3.2c0,1,0,1.8,0.2,2.5c0.2,0.7,0.5,1.1,0.9,1.2c0.6,0.2,1.2,0,1.8-0.5
		c0.6-0.5,1.1-1.2,1.7-2.1c0.5-0.9,1-2,1.5-3.2c0.5-1.2,0.9-2.4,1.3-3.7s0.7-2.5,1-3.6C86.9,345,87.2,344,87.4,343.1z"/>
	<path fill="#C59E73" d="M104,363c-0.4,0-0.8,0-1.3-0.2c-0.2-0.1-0.4-0.2-0.6-0.2c-1.2-0.6-2-1.5-2.6-2.7c-0.6-1.2-0.9-2.5-1-3.9
		c-0.1-1.5-0.1-3,0.1-4.6c0.2-1.6,0.4-3.2,0.7-4.7c0.3-1.5,0.6-2.9,1-4.1c0.4-1.3,0.7-2.2,0.9-2.9c0.2-0.7,0.7-1,1.4-1
		c0.7,0,1.4,0.1,2.3,0.2c0.9,0.1,1.7,0.4,2.5,0.9c0.4,0.2,0.6,0.5,0.8,0.9c0.1,0.4,0.1,0.8,0,1.2c-0.4,1.2-0.8,2.8-1.4,4.9
		s-1,4.5-1.3,7.2c0.6-1,1.2-2.3,2.1-3.7c0.8-1.4,1.7-2.8,2.7-4.1c1-1.3,2-2.4,3-3.3c1-0.9,2.1-1.4,3-1.4c1.3,0,2.2,0.2,3,0.7
		c0.7,0.5,1.2,1.1,1.6,1.9c0.3,0.7,0.5,1.6,0.5,2.5c0,0.9,0,1.8-0.1,2.6c-0.1,0.8-0.3,1.7-0.4,2.7s-0.2,1.7-0.3,2.4
		c0,0.7,0,1.1,0.1,1.4c0.1,0.3,0.4,0.2,0.8-0.3c0.3-0.3,0.8-1.1,1.6-2.2c0.8-1.2,1.8-2.5,2.9-4.1c1.1-1.5,2.4-3.1,3.7-4.7
		c1.3-1.6,2.7-3.1,4.1-4.3c1.4-1.2,2.7-2.2,4-2.8c1.3-0.6,2.4-0.6,3.4-0.1c0.6,0.4,1.1,0.9,1.5,1.6c0.4,0.6,0.6,1.4,0.8,2.3
		c0.1,1,0,2.2-0.4,3.7c-1.4,3.8-2.6,7.1-3.6,10.1c-0.4,1.3-0.8,2.5-1.2,3.7c-0.3,1.2-0.6,2.3-0.8,3.3s-0.3,1.8-0.3,2.4
		c0,0.6,0.1,0.9,0.4,1c0.4,0.1,0.8,0,1.2-0.3c0.4-0.3,0.8-0.7,1.3-1.1c0.5-0.5,1-1.1,1.5-1.7c0.5-0.6,0.9-1.2,1.3-1.8
		c0.5-0.7,0.9-1.4,1.3-2.2c0.3-0.7,0.7-1.3,1-2.1c0.3-0.7,0.6-1.4,0.9-2.1c0.3-0.7,0.5-1.3,0.7-1.9c0.2-0.6,0.3-1,0.5-1.4
		c0-0.2,0.2-0.3,0.3-0.4c0.2,0,0.3,0,0.5,0.1c0.1,0.1,0.2,0.1,0.2,0.1c0,0,0.1,0.1,0.2,0.1c0.4,0.4,0.6,0.8,0.4,1.4
		c-0.1,0.4-0.2,0.9-0.4,1.5c-0.2,0.6-0.4,1.3-0.6,2.1c-0.3,0.8-0.6,1.6-0.9,2.4c-0.3,0.8-0.7,1.7-1.2,2.4c0,0-0.2,0.3-0.5,0.9
		c-0.3,0.5-0.7,1.2-1.2,1.9c-0.5,0.7-1.1,1.5-1.8,2.4c-0.7,0.8-1.5,1.6-2.3,2.2c-0.8,0.6-1.8,1.1-2.8,1.5c-1,0.3-2,0.3-3.1,0.1
		c-1.1-0.3-1.9-0.9-2.3-1.8c-0.5-0.9-0.8-2.1-0.8-3.4c-0.1-1.3,0-2.8,0.3-4.4c0.3-1.6,0.7-3.3,1.2-5c1.1-3.9,2.7-8.2,4.9-13
		c-0.3,0-0.8,0.2-1.4,0.7c-0.6,0.5-1.3,1.2-2.1,2.1c-0.8,0.9-1.7,1.9-2.6,3.1c-0.9,1.2-1.8,2.3-2.7,3.5c-0.9,1.2-1.7,2.3-2.4,3.4
		c-0.8,1.1-1.4,2-1.8,2.7c-0.8,1.2-1.5,2-2.2,2.6c-0.7,0.6-1.3,1-1.8,1.3c-0.7,0.3-1.3,0.5-1.8,0.5c-1.6,0.1-2.8-0.4-3.5-1.4
		c-0.7-1-1.2-2.2-1.4-3.6c-0.2-1.4-0.2-2.7,0-4.1c0.2-1.3,0.3-2.2,0.5-2.7c0.2-0.9,0.3-1.5,0.1-1.6c-0.1-0.1-0.2-0.1-0.3-0.1
		c-0.9,0.5-1.8,1.4-2.8,2.7c-0.9,1.3-1.7,2.7-2.5,4.2c-0.7,1.5-1.4,2.9-1.9,4.2c-0.5,1.3-0.9,2.3-1.1,2.9c0,0.2-0.2,0.4-0.3,0.6
		c-0.1,0.1-0.3,0.3-0.5,0.4C104.5,362.8,104.3,362.9,104,363z"/>
	<path fill="#C59E73" d="M152,363c-0.4,0-0.8,0-1.3-0.2c-0.2-0.1-0.4-0.2-0.6-0.2c-1.2-0.6-2-1.5-2.6-2.7c-0.6-1.2-0.9-2.5-1-3.9
		c-0.1-1.5-0.1-3,0.1-4.6c0.2-1.6,0.4-3.2,0.7-4.7c0.3-1.5,0.6-2.9,1-4.1c0.4-1.3,0.7-2.2,0.9-2.9c0.2-0.7,0.7-1,1.4-1
		c0.7,0,1.4,0.1,2.3,0.2c0.9,0.1,1.7,0.4,2.5,0.9c0.4,0.2,0.6,0.5,0.8,0.9c0.1,0.4,0.1,0.8,0,1.2c-0.4,1.2-0.8,2.8-1.4,4.9
		c-0.6,2.1-1,4.5-1.3,7.2c0.6-1,1.2-2.3,2.1-3.7c0.8-1.4,1.7-2.8,2.7-4.1c1-1.3,2-2.4,3-3.3c1-0.9,2.1-1.4,3-1.4
		c1.3,0,2.2,0.2,3,0.7c0.7,0.5,1.2,1.1,1.6,1.9c0.3,0.7,0.5,1.6,0.5,2.5c0,0.9,0,1.8-0.1,2.6c-0.1,0.8-0.3,1.7-0.4,2.7
		c-0.1,0.9-0.2,1.7-0.3,2.4c0,0.7,0,1.1,0.1,1.4c0.1,0.3,0.4,0.2,0.8-0.3c0.3-0.3,0.8-1.1,1.6-2.2c0.8-1.2,1.8-2.5,2.9-4.1
		c1.1-1.5,2.4-3.1,3.7-4.7c1.3-1.6,2.7-3.1,4.1-4.3c1.4-1.2,2.7-2.2,4-2.8c1.3-0.6,2.4-0.6,3.4-0.1c0.6,0.4,1.1,0.9,1.5,1.6
		c0.4,0.6,0.6,1.4,0.8,2.3c0.1,1,0,2.2-0.4,3.7c-1.4,3.8-2.6,7.1-3.6,10.1c-0.4,1.3-0.8,2.5-1.2,3.7c-0.3,1.2-0.6,2.3-0.8,3.3
		s-0.3,1.8-0.3,2.4c0,0.6,0.1,0.9,0.4,1c0.4,0.1,0.8,0,1.2-0.3c0.4-0.3,0.8-0.7,1.3-1.1c0.5-0.5,1-1.1,1.5-1.7
		c0.5-0.6,0.9-1.2,1.3-1.8c0.5-0.7,0.9-1.4,1.3-2.2c0.3-0.7,0.7-1.3,1-2.1c0.3-0.7,0.6-1.4,0.9-2.1c0.3-0.7,0.5-1.3,0.7-1.9
		c0.2-0.6,0.3-1,0.5-1.4c0-0.2,0.2-0.3,0.3-0.4c0.2,0,0.3,0,0.5,0.1c0.1,0.1,0.2,0.1,0.2,0.1c0,0,0.1,0.1,0.2,0.1
		c0.4,0.4,0.6,0.8,0.4,1.4c-0.1,0.4-0.2,0.9-0.4,1.5c-0.2,0.6-0.4,1.3-0.6,2.1c-0.3,0.8-0.6,1.6-0.9,2.4c-0.3,0.8-0.7,1.7-1.2,2.4
		c0,0-0.2,0.3-0.5,0.9c-0.3,0.5-0.7,1.2-1.2,1.9c-0.5,0.7-1.1,1.5-1.8,2.4c-0.7,0.8-1.5,1.6-2.3,2.2c-0.8,0.6-1.8,1.1-2.8,1.5
		c-1,0.3-2,0.3-3.1,0.1c-1.1-0.3-1.9-0.9-2.3-1.8c-0.5-0.9-0.8-2.1-0.8-3.4c-0.1-1.3,0-2.8,0.3-4.4c0.3-1.6,0.7-3.3,1.2-5
		c1.1-3.9,2.7-8.2,4.9-13c-0.3,0-0.8,0.2-1.4,0.7c-0.6,0.5-1.3,1.2-2.1,2.1c-0.8,0.9-1.7,1.9-2.6,3.1c-0.9,1.2-1.8,2.3-2.7,3.5
		c-0.9,1.2-1.7,2.3-2.4,3.4c-0.8,1.1-1.4,2-1.8,2.7c-0.8,1.2-1.5,2-2.2,2.6c-0.7,0.6-1.3,1-1.8,1.3c-0.7,0.3-1.3,0.5-1.8,0.5
		c-1.6,0.1-2.8-0.4-3.5-1.4c-0.7-1-1.2-2.2-1.4-3.6c-0.2-1.4-0.2-2.7,0-4.1c0.2-1.3,0.3-2.2,0.5-2.7c0.2-0.9,0.3-1.5,0.1-1.6
		c-0.1-0.1-0.2-0.1-0.3-0.1c-0.9,0.5-1.8,1.4-2.8,2.7s-1.7,2.7-2.5,4.2c-0.7,1.5-1.4,2.9-1.9,4.2c-0.5,1.3-0.9,2.3-1.1,2.9
		c0,0.2-0.2,0.4-0.3,0.6c-0.1,0.1-0.3,0.3-0.5,0.4C152.5,362.8,152.2,362.9,152,363z"/>
	<path fill="#C59E73" d="M213,350.3c0.4,0.3,0.6,0.8,0.5,1.4c-0.1,0.7-0.4,1.7-0.9,3.1c-0.4,1.4-1,2.9-1.8,4.4
		c-0.7,1.5-1.7,2.8-2.8,4s-2.4,1.7-3.8,1.7c-2,0-3.8-0.4-5.4-1.5c-0.7-0.4-1.3-1-1.9-1.7s-1.1-1.6-1.5-2.7c-0.4-1.1-0.7-2.3-0.9-3.8
		c-0.2-1.5-0.1-3.2,0.1-5.2c0.3-2.2,0.9-4.2,1.7-6c0.3-0.7,0.7-1.5,1.2-2.2c0.5-0.7,1-1.3,1.6-1.8c0.6-0.5,1.3-1,2.1-1.3
		c0.8-0.3,1.7-0.4,2.7-0.4c1.3,0.1,2.2,0.5,2.9,1.2c0.7,0.7,1.1,1.5,1.2,2.5c0.1,1,0.1,2-0.2,3.2c-0.3,1.2-0.8,2.3-1.5,3.3
		c-0.7,1-1.6,1.9-2.6,2.6c-1,0.7-2.2,1.1-3.5,1.2c0,0.7,0.1,1.6,0.2,2.7c0.1,1,0.3,2,0.7,3s0.9,1.7,1.5,2.3c0.7,0.6,1.6,0.8,2.8,0.6
		c0.6-0.1,1.2-0.6,1.9-1.5c0.7-0.9,1.3-1.9,1.9-3.1c0.6-1.2,1.2-2.3,1.6-3.5c0.5-1.1,0.8-2,1-2.5c0-0.2,0.2-0.3,0.3-0.4
		c0.2,0,0.3,0,0.5,0.1C212.8,350.1,212.9,350.2,213,350.3z M204.1,342.3c-0.1,0-0.3,0.1-0.5,0.2c-0.3,0.1-0.5,0.4-0.9,0.9
		c-0.3,0.5-0.7,1.2-1.1,2.2c-0.4,1-0.8,2.3-1.1,4.1c0.5-0.2,1.1-0.6,1.8-1.1c0.7-0.5,1.3-1.2,1.9-2.2c0.5-0.8,0.7-1.4,0.8-2
		c0.1-0.5,0.1-0.9,0-1.3s-0.2-0.5-0.4-0.7C204.4,342.3,204.3,342.2,204.1,342.3z"/>
	<path fill="#C59E73" d="M213.8,338.4c0.2,0.4,0.6,0.9,1.2,1.6c0.6,0.6,1.5,1.2,2.9,1.7c0.1,0,0.4,0.2,0.8,0.4
		c0.5,0.2,1,0.5,1.7,0.9c0.4,0.2,0.8,0.5,1.3,0.8c0.4,0.3,0.8,0.6,1.1,1s0.5,0.9,0.6,1.4c0.1,0.6,0.1,1.2-0.1,2
		c-0.9,2.9-1.3,5.3-1,7.1c0.2,1.9,0.8,2.9,1.7,3c0.6,0.1,1.2-0.2,1.8-0.8c0.6-0.6,1.1-1.3,1.7-2.2c0.5-0.9,1-1.8,1.4-2.7
		c0.4-0.9,0.7-1.7,0.9-2.2c0.2-0.4,0.5-0.5,0.8-0.3c0,0.1,0.2,0.1,0.3,0.2c0.4,0.4,0.6,0.9,0.4,1.4c-0.1,0.7-0.4,1.6-0.8,2.8
		c-0.4,1.2-1,2.4-1.7,3.5c-0.7,1.2-1.6,2.2-2.7,3c-1,0.9-2.3,1.3-3.7,1.2c-1.6,0-3-0.6-4-1.5c-1-1-1.7-2.3-2.2-3.9
		c-0.4-1.7-0.5-3.6-0.4-5.8c0.2-2.2,0.6-4.6,1.4-7.2c-0.4,0-0.8,0-1.2,0c-0.4,0-0.8-0.1-1.2-0.1c0,1.7-0.2,3.2-0.5,4.6
		c-0.3,1.4-0.7,2.5-0.9,3.2c-0.2,0.5-0.6,0.8-1.2,0.9h-0.4c-0.2,0-0.3-0.1-0.5-0.2c-0.1-0.1-0.1-0.3,0-0.5c0.3-0.9,0.5-2.2,0.8-3.7
		c0.2-1.6,0.3-3.1,0.2-4.6c-1.3-0.2-2.1-0.6-2.6-1.3s-0.7-1.5-0.7-2.3s0.2-1.6,0.5-2.3c0.3-0.7,0.6-1.2,0.9-1.4l0.4-0.2
		c0.1,0,0.3-0.1,0.5-0.1c0.2,0,0.4,0,0.7,0c0.4,0.1,0.7,0.3,0.9,0.5c0.2,0.3,0.4,0.5,0.5,0.8c0.1,0.3,0.2,0.6,0.2,0.8
		C213.7,338,213.7,338.2,213.8,338.4z"/>
</g>
<g>
	<path fill="#C59E73" d="M105.6,243.9c0.1,0.2,0.1,0.5,0.1,0.7c0,0.5-0.3,1-0.8,1.5c-0.8,0.8-1.7,1.4-2.5,1.9
		c-0.8,0.5-1.7,0.9-2.5,1.2c-0.1,2.7-0.6,4.7-1.3,6.2c-0.7,1.5-1.5,2.6-2.3,3.4c-0.9,0.9-2,1.4-3.2,1.7c-2,0.2-3.6,0-5-0.7
		c-1.4-0.7-2.5-1.6-3.4-2.8c-0.9-1.2-1.5-2.5-1.8-3.9c-0.3-1.4-0.4-2.8-0.3-4c0.3-2,0.8-3.5,1.7-4.7c0.9-1.2,1.5-2,2-2.4
		c-0.1-1.1-0.1-2.1,0.2-3c0.2-1,0.6-1.8,1.1-2.5c0.5-0.7,1-1.3,1.7-1.7c0.7-0.4,1.3-0.6,2-0.6c0.9,0,1.8,0.3,2.8,0.7
		c1,0.5,1.9,1.2,2.8,2.2c0.8,1,1.6,2.3,2.1,3.9c0.6,1.6,0.9,3.5,1,5.8c1-0.4,1.8-0.8,2.6-1.4c0.7-0.6,1.3-1.1,1.8-1.6
		c0.1-0.1,0.2-0.2,0.4-0.3C105.1,243.4,105.3,243.5,105.6,243.9z M92.4,257.4c0.6-0.1,1.1-0.5,1.6-1.1c0.5-0.6,0.8-1.2,1.1-2
		c0.3-0.7,0.5-1.5,0.7-2.3c0.2-0.8,0.3-1.5,0.3-2.2c-1.4,0-2.6-0.2-3.6-0.6c-1-0.4-1.8-0.8-2.2-1.1c-0.1,0.3-0.2,0.7-0.2,1
		c-0.1,0.4-0.1,0.8-0.2,1.2c-0.3,1.6-0.3,2.9,0,3.8c0.3,0.9,0.6,1.6,0.9,2.1C91.3,256.9,91.8,257.2,92.4,257.4z M91.3,240.2
		c-0.3,0.1-0.5,0.3-0.7,0.6c-0.2,0.3-0.3,0.5-0.4,0.8c0.3,0.1,0.6,0.2,0.9,0.3c0.3,0.1,0.5,0.3,0.8,0.4c0.2,0.1,0.4,0.4,0.5,0.7
		s0,0.6-0.2,0.8c-0.3,0.4-0.6,0.9-0.9,1.5c0.3,0.3,0.6,0.5,0.9,0.7c0.3,0.2,0.6,0.3,0.9,0.4c0.3,0.1,0.6,0.3,0.9,0.4
		c0.4,0.1,0.8,0.2,1.2,0.3c0.4,0.1,0.7,0.1,1.1,0.2c-0.1-1.5-0.3-2.8-0.7-3.8c-0.4-1.1-0.9-1.9-1.5-2.4c-0.3-0.3-0.6-0.5-1-0.7
		c-0.3-0.1-0.6-0.3-0.9-0.3C92,239.9,91.6,240,91.3,240.2z"/>
	<path fill="#C59E73" d="M117.2,236.9c-0.2-0.1-0.4-0.2-0.6-0.1l-0.3,0.1c-0.6,0.5-1.1,1.1-1.6,2c-0.5,0.9-1,1.9-1.4,3
		c-0.4,1.2-0.8,2.4-1.2,3.7c-0.4,1.3-0.7,2.6-1,3.9c-0.7,3.1-1.3,6.4-1.8,9.9h-0.1c0.1,1-0.4,1.7-1.4,2c-0.7,0.2-1.2,0.1-1.8-0.1
		c-0.5-0.2-1-0.5-1.3-0.7c-0.4-0.3-0.7-0.7-0.8-1.3c-0.1-0.7-0.2-1.7-0.3-3.2c-0.1-1.5-0.2-3.4-0.3-5.7c0-2.3,0-5.1,0.2-8.2
		c0.2-3.1,0.5-6.7,1-10.6c-2.6-0.3-5.4-1-8.1-2.2c-1.7-0.8-3.2-1.6-4.5-2.4c-1.1-0.8-2.1-1.7-3-2.7s-1.3-2.1-1.2-3.3
		c0.1-0.7,0.3-1.3,0.7-1.8c0.4-0.5,0.9-0.8,1.4-1c0.6-0.2,1.2-0.3,1.8-0.3c0.6,0,1.2,0,1.7,0.1c0.4,0.1,0.8,0.2,1.1,0.6
		c0.3,0.3,0.4,0.7,0.4,1.2c-0.1,0.6-0.1,1.4,0.1,2.3c0.1,0.9,0.6,1.8,1.2,2.7c0.7,0.9,1.7,1.7,3.1,2.4c1.4,0.7,3.3,1.2,5.8,1.4
		c0.3-1.7,0.5-3.4,0.8-5.2c0.3-1.8,0.7-3.7,1.1-5.6c1.5-6.9,3.4-12.7,5.7-17.5c2.4-4.7,4.9-8.5,7.6-11.3s5.5-4.6,8.3-5.5
		c2.8-0.9,5.4-1,7.8-0.3c1.6,0.5,2.9,1.4,4,2.6c1.1,1.3,1.9,2.8,2.5,4.6c0.6,1.8,0.9,3.9,0.9,6.1c0.1,2.2-0.2,4.5-0.7,6.9
		c-0.5,2.3-1.3,4.7-2.3,7c-1.1,2.3-2.4,4.5-4.1,6.6c-3.4,4.2-7.3,7.6-11.8,10.2c-4.5,2.6-9.2,4.1-14.2,4.5c-0.3,1.3-0.5,3.3-0.8,5.8
		c-0.3,2.5-0.5,5.4-0.6,8.9c0.3-1.5,0.8-3.1,1.3-4.7c0.5-1.6,1.2-3,1.8-4.3c0.7-1.3,1.5-2.3,2.4-3.2c0.9-0.9,1.9-1.4,3-1.5
		c0.6-0.1,1.2-0.1,1.8,0c0.5,0.1,1,0.3,1.6,0.6c0.6,0.3,1,0.8,1.4,1.6c0.6,1.2,1,2.5,1,3.9c0.1,1.4,0,2.9-0.2,4.3
		c-0.1,0.5-0.1,0.9-0.2,1.4c-0.1,0.4-0.1,0.8-0.2,1.2c-0.1,0.4-0.1,0.8-0.2,1.2c-0.2,1-0.3,2-0.4,2.9c-0.1,0.9-0.1,1.7-0.1,2.4
		c0,0.7,0.1,1.3,0.3,1.7s0.4,0.7,0.7,0.7c0.6,0.1,1.2-0.3,1.9-1.1c0.6-0.9,1.3-1.9,1.8-3s1.1-2.4,1.6-3.6c0.5-1.2,0.8-2.1,1-2.6
		c0-0.2,0.2-0.3,0.3-0.3c0.2,0,0.3,0,0.5,0.1c0.2,0.1,0.3,0.2,0.3,0.2c0.4,0.4,0.5,0.8,0.4,1.4c-0.1,0.4-0.3,1-0.5,1.9
		c-0.2,0.8-0.6,1.7-1,2.7c-0.4,1-0.8,2-1.4,3c-0.5,1-1.1,2-1.8,2.8c-0.7,0.9-1.4,1.5-2.2,2c-0.8,0.5-1.7,0.7-2.6,0.7
		c-1.3-0.1-2.5-0.6-3.3-1.7s-1.5-2.4-1.9-4.2c-0.4-1.7-0.5-3.8-0.5-6.2c0.1-2.4,0.4-5,1-7.7C117.5,238,117.5,237.2,117.2,236.9z
		 M111.5,228.6c3.3-0.4,6.3-1.2,9.2-2.5c2.9-1.3,5.4-2.9,7.8-4.8c2.3-1.9,4.3-4,6-6.3c1.7-2.3,3-4.6,3.9-6.9c1-2.5,1.7-5.1,1.9-7.6
		c0.3-2.5,0.2-4.8-0.1-6.8c-0.3-2-0.9-3.8-1.7-5.2c-0.8-1.4-1.9-2.3-3.1-2.6c-0.8-0.2-1.8-0.2-2.9,0.1c-1.2,0.2-2.4,0.9-3.8,1.9
		c-1.4,1-2.8,2.5-4.3,4.5c-1.5,2-3,4.6-4.5,7.8c-1.5,3.2-3,7.2-4.4,11.9C114,216.6,112.7,222.2,111.5,228.6z"/>
</g>
</svg>
