<?xml version="1.0" encoding="utf-8"?>
<!-- Generator: Adobe Illustrator 18.0.0, SVG Export Plug-In . SVG Version: 6.00 Build 0)  -->
<!DOCTYPE svg PUBLIC "-//W3C//DTD SVG 1.1//EN" "http://www.w3.org/Graphics/SVG/1.1/DTD/svg11.dtd">
<svg version="1.1" id="Layer_1" xmlns="http://www.w3.org/2000/svg" xmlns:xlink="http://www.w3.org/1999/xlink" x="0px" y="0px"
	 viewBox="0 0 432 432" enable-background="new 0 0 432 432" xml:space="preserve">
<path fill="#BC936B" d="M178.3,279.8c-1.7,2.5-6.5,9.7-6.7,8.8c-8-2.6-15.1-9.1-18.4-15.5c-1.7-3.2-3.8-8.4,1.5-10
	c4.7-1.5,12,3.9,13.4,7.2c1.1-6.5,12.4-10.9,15.6-5.2C186.4,269.9,181.4,275.3,178.3,279.8z M187.1,143.8
	c-3.2-5.7-14.5-1.4-15.6,5.2c-1.5-3.3-8.7-8.8-13.4-7.2c-5.2,1.7-3.1,6.8-1.5,10c3.3,6.4,10.4,12.9,18.4,15.5c0.2,0.9,5-6.3,6.7-8.8
	C184.9,154,189.8,148.7,187.1,143.8z M118.9,141.8c-3.2-5.7-14.5-1.4-15.6,5.2c-1.5-3.3-8.7-8.8-13.4-7.2c-5.2,1.7-3.1,6.8-1.5,10
	c3.3,6.4,10.4,12.9,18.4,15.5c0.2,0.9,5-6.3,6.7-8.8C116.7,152,121.6,146.7,118.9,141.8z M135.5,274.5c-3.2-5.7-14.5-1.4-15.6,5.2
	c-1.5-3.3-8.7-8.8-13.4-7.2c-5.2,1.7-3.1,6.8-1.5,10c3.3,6.4,10.4,12.9,18.4,15.5c0.2,0.9,5-6.3,6.7-8.8
	C133.3,284.6,138.2,279.3,135.5,274.5z M356.4,278.2c-3.2-5.7-14.5-1.4-15.6,5.2c-1.5-3.3-8.7-8.8-13.4-7.2c-5.2,1.7-3.1,6.8-1.5,10
	c3.3,6.4,10.4,12.9,18.4,15.5c0.2,0.9,5-6.3,6.7-8.8C354.2,288.4,359.2,283,356.4,278.2z M123.2,336c2.5-5.2,3-10.6,0.4-15.8
	c-4.5-9-12.5-15.7-27-17.8c-8.9-1.3-15.7,1-19.1,6.6c-0.8,1.1-1.5,2.4-1.7,3.7c-0.6,3.7-1.3,7.3-1.5,10.9c0,14.3,0,28.4,0.2,42.7
	c0,5.1-0.2,10.3,0.4,15.4c0.4,4.1,1.3,8.1,2.8,12.1c1.5,3.9,5.1,5.7,10.8,5.3c15.5-1.1,28.7-5.9,31.7-17.8c1.1-3.9,1.1-8.1,1.3-12.1
	c0.4-7-1.3-13.7-9.6-19.2C117.3,345.4,120.9,340.8,123.2,336z M91.8,358.3l9.3,0.4c3.4,1.4,4,3.4,4.2,5.5c0.2,4.1,0.6,8.1,0,12.2
	c-0.8,7.6-4.7,10.3-17.6,11.8C89,378,90.3,368.3,91.8,358.3z M92.8,343.5c0-5.7-0.2-11.5-0.2-17.1c-0.2-3.3,1.5-6.1,5.7-8.4
	c1.3,0.8,2.8,1.3,3.4,2c4.3,6.6,4.3,13.2,0.2,19.9c-1.5,2.3-4.3,3.9-8.1,5.2L92.8,343.5z M155.5,326.3c-0.2-4.1-1.1-8-0.4-12.1
	c2.8-0.3,5.1-0.4,7.4-0.6c2.3-0.4,4.5-0.6,6.6-1.3c2.5-0.6,4-2.2,3.8-4.1c0-1.9-1.5-3.3-4.2-4.3c-5.5-2.2-11.1-3.2-17.4-1.7
	c-2.3,0.5-4.9,0.9-7.4,1.3c-5.9,1.1-8.9,3.8-9.1,7.9c-0.2,2.8-0.2,5.6-0.2,8.4c0.8,17.7,1.9,35.3,0.6,52.8
	c-0.6,5.6,0.2,11.2,2.6,16.7c0.2,0.4,0,0.8,0,1.3c-0.6,0.8-1.3,1.7-1.7,2.7c-1.3,4.1,3,7.1,9.1,6.4c1.3-0.1,2.6-0.4,3.6-0.9
	c4.5-2.3,10-3.2,15.7-3.8c2.6-0.3,5.1-1.4,7.6-2.4c2.5-1.1,3.6-2.8,2.6-5c-0.9-2.2-3.2-3.4-6.4-3.8c-2.3-0.3-4.5,0-7-0.1
	c-1.5,0-2.8-0.3-4-0.3c0-10.7,0-21-0.2-31.3c2.1-1.7,4.7-2.2,7.6-2.4c4.2-0.6,6.6-2.7,8.3-4.8c2.3-2.7,0-6-4.5-6.9
	c-1.7-0.4-3.6-0.4-5.3-0.3c-2.1,0-4.2,0.3-6.4,0.4C154.7,334,155.9,330.1,155.5,326.3z M216.9,373c0,3.3-0.4,6.5-0.2,9.7
	c0,2.3,0.2,4.6,0.9,6.9c0.9,2.9,4.3,4.7,7.7,4.7c3.2,0,5.9-1.7,6.6-4.2c0.6-1.8,0.9-3.7,0.9-5.6c0.2-6.6,0.2-13.2,0.2-19.9
	c-0.2-9.3-0.6-18.6-0.8-27.9c-0.2-7.3-1.7-14.5-4.3-21.6c-1.5-3.7-3.8-7.4-7.7-10.3c-7.2-5.1-16.2-5.1-21.7,0.1
	c-2.3,2-3.8,4.6-4.9,7c-3.2,6.4-4.3,13.1-4.7,19.9c-0.4,8.5-1.5,17.1-3.4,25.3c-1.5,7.1-2.8,14.1-2.6,21.4c0,7,0.8,14,1.5,21
	c1.3,0.5,2.3,0.9,3,1.3c4-0.9,4.2-3.2,4.9-5.1l6.2-21.4c0.6-1.7,1.1-3.2,1.7-5c5.5-0.3,10.4,0,16.2,0.1
	C216.7,371.3,216.9,372.2,216.9,373z M203.1,358.8c-0.4-0.9-0.8-1.4-0.8-1.9c1.1-9.4,2.1-18.7,3.4-28.1c0.6-3.8,1.7-7.4,2.6-11.1
	c0.2-0.9,0.9-1.7,1.9-3.1c1.1,1.7,2.1,2.5,2.5,3.7c2.3,7.4,4.2,14.6,3.4,22.2c-0.4,3.9,0.2,7.9,0.2,12c0,1.7,0,3.3,0.2,5.7
	C211.4,358.4,207.4,358.7,203.1,358.8z M286.4,345.7c3.2-2.3,4.7-4.8,4.7-7.8c0.2-5.5,0.4-11.1-0.2-16.6c-0.4-3.3-1.9-6.6-3.8-9.8
	c-1.3-2.4-3.6-4.7-6.4-6.6c-5.5-4.1-12.8-4.3-19.8-1.3c-4,1.7-7,3.7-8.9,6.2c-2.1,3.1-4.5,6.2-5.5,9.4c-1.7,5.5-3.2,11.1-3.4,16.6
	c-0.6,14.3-0.6,28.5-0.6,42.8c0,3.1,1.3,6.2,2.6,9.3c1.5,3.4,4.7,6.5,9.3,8.9c3,1.7,6.6,2.7,10.8,2.8c7.6,0.1,13.8-2,16.6-6.7
	c2.6-4.5,4.2-9.2,6-13.9c1.5-3.7,0.6-7.4-0.8-10.9c-0.4-0.6-1.3-1.1-2.5-2c-1.1,1-2.3,1.7-2.8,2.5c-1.9,3.7-3.6,7.4-5.5,11.1
	c-1.3,2.7-3,5.3-4.7,7.9c-0.6,0.8-1.9,1.3-2.8,1.8c-3.2-0.9-3-2.2-2.8-3.4c0-2.7,0.6-5.2,0.4-7.8c-0.8-9.2-1.9-18.2-2.6-27.2
	c-0.4-5.3-0.8-10.7,0-16c0.6-5.2,2.3-10.3,3.8-15.4c0.2-0.9,1.5-1.7,2.3-2.7c2.6,1.7,2.5,3.3,2.6,5c0.2,3.2,0,6.4,0,9.4
	c0,5.5,1.5,10.7,4.9,15.3C281.5,347.8,284.1,347.2,286.4,345.7z M346.1,306.7c-1.3,1.9-2.3,3.9-2.6,6c-0.9,6.7-1.7,13.5-2.5,20.2
	c-0.4,3.8-0.4,7.8-0.6,11.8c-4.9,0.5-9.3,1.5-14.9,1.3v-5c0.4-4.7,1.3-9.3,1.3-13.9c-0.2-5.3-0.9-10.8-1.9-16.2
	c-0.8-3.9-3.8-7-10.4-7.6c-3.4,0.4-6.8,0.8-9.4,1.1c-3.8,1.5-4.3,3.7-4.3,6.1l0.6,15.2c0.4,9.3,0.8,18.6,0.9,28
	c0.2,6.5,0.6,12.9,0.6,19.4c0.2,5.7,0,11.5,1.5,17.3c0.8,3.3,2.6,6.2,7.7,8.3c4.9-2,7.9-4.7,7.9-8.9c0-1,0-2.2,0.2-3.2
	c0.4-6.1,0.6-12.2,1.1-18.2c0.2-3.7,0.6-7.5,2.3-11.1c6.4-0.4,12.3-1.9,19.5-1.3c3,13.5,5.3,26.7,12.1,39.9c1.9,0.1,3,0.1,4.5,0.3
	c0.6-1,1.3-1.7,1.5-2.5c1.5-6.2,3.4-12.5,4.2-18.8c0.8-6.7,0.2-13.6,0.2-20.4c0-4.8-0.2-9.7,0-14.5c0-7.3,0-14.4,0.2-21.5
	c0-2.7,0.4-5.3,0.4-8c0.2-4.1-2.1-6.1-8.1-7.4c-1.5-0.3-3-0.4-4.2-0.5C349.5,302.9,347.2,304.5,346.1,306.7z M41.1,123.4
	c4.3-19.6,6.6-39.6,6.4-59.6c-0.2-4.5-0.4-9-0.4-13.5v-2.9c6.4,0,12.1,0.1,17.8,0c2.6,0,5.5-0.4,7.9-1c3.2-0.8,4.9-3.2,4.5-5.2
	c-0.4-2.2-3-4.3-6.4-5c-2.3-0.4-4.7-0.4-7.2-0.5c-4.2-0.1-8.5,0.3-12.7-0.4c-11.7-1.5-22.9-0.4-34.2,0.5c-2.8,0.3-5.9,0.8-8.5,1.4
	c-4.7,1.1-6.8,3.9-5.5,6.6C4.1,46.4,7.3,48,12,48c3,0,6-0.4,8.9-0.6c2.6-0.4,5.3-0.9,8.5,0c0.6,3.2,0.6,6.5,0.6,9.7
	c0.2,15.4-0.6,30.7,1.3,46.2c0.2,1.4-0.4,2.8,0,4.2c0.8,6,1.7,11.8,2.6,17.7c0.2,1.4,0.9,2.8,4.2,3.3
	C40.7,127.5,40.7,125.3,41.1,123.4z M107.8,103.6c0,3.3-0.4,6.5-0.2,9.7c0,2.3,0.2,4.6,0.9,6.9c0.9,2.9,4.3,4.7,7.7,4.7
	c3.2,0,5.9-1.7,6.6-4.2c0.6-1.8,0.9-3.7,0.9-5.6c0.2-6.6,0.2-13.2,0.2-19.9c-0.2-9.3-0.6-18.6-0.8-27.9c-0.2-7.3-1.7-14.5-4.3-21.6
	c-1.5-3.7-3.8-7.4-7.7-10.3c-7.2-5.1-16.2-5.1-21.7,0.1c-2.3,2-3.8,4.6-4.9,7c-3.2,6.4-4.3,13.1-4.7,19.9
	c-0.4,8.5-1.5,17.1-3.4,25.3c-1.5,7.1-2.8,14.1-2.6,21.4c0,7,0.8,14,1.5,21c1.3,0.5,2.3,0.9,3,1.3c4-0.9,4.2-3.2,4.9-5.1l6.2-21.4
	c0.6-1.7,1.1-3.2,1.7-5c5.5-0.3,10.4,0,16.2,0.1C107.6,101.9,107.8,102.8,107.8,103.6z M94,89.4c-0.4-0.9-0.8-1.4-0.8-1.9
	c1.1-9.4,2.1-18.7,3.4-28.1c0.6-3.8,1.7-7.4,2.6-11.1c0.2-0.9,0.9-1.7,1.9-3.1c1.1,1.7,2.1,2.5,2.5,3.7c2.3,7.4,4.2,14.6,3.4,22.2
	c-0.4,3.9,0.2,7.9,0.2,12c0,1.7,0,3.3,0.2,5.7C102.3,89,98.3,89.3,94,89.4z M178.6,65.7c6.4-6.1,11.7-12.6,15.5-19.6
	c2.3-4.6,0.8-8.4-3.4-11.7c-4.9,0.5-5.1,0.5-6,1.3c-2.6,2.3-5.3,4.7-7.4,7.1c-4.7,5.3-9.1,10.8-13.6,16.2c-0.6,0.8-1.9,1.3-4.2,2.5
	l1.3-10.1c0.4-3.1,1.1-6.1,1.5-9.2c0.4-3.1,0-6.1-3.6-8.5c-0.6-0.3-1.3-0.6-2.1-0.9c-11.1-3.4-17.2-1.7-19.8,6.6
	c-2.6,8-3.8,16.2-3.2,24.3c0.9,15.4,1.5,30.8,2.5,46.3c0.2,3.9,1.3,8,2.1,12c0,0.6,0.4,1.3,0.8,1.8c0.9,1.7,2.6,2.5,5.3,2.7
	c2.6,0.1,5.3-1.1,6.2-3.1c0.6-1,0.9-2,0.9-3.1c1.1-6.6,2.3-13.4,3.2-20c0.9-7,1.9-13.9,3-20.8c0.2-1.4-0.2-2.9,3-3.8
	c0.8,0.9,2.1,1.8,2.5,2.8c4.2,8.7,7.6,17.3,6.8,26.7l-0.6,10.3c0,2.3,0.2,4.5,0.4,5.5c3,3.8,5.1,6.6,7.2,9.3
	c2.8,1.3,5.5,0.8,7.6-0.6c2.6-1.9,4.3-4.1,4.7-6.6c0.8-3.2,1.1-6.5,1.3-9.7c0.4-11-3.2-21.4-6.6-31.8c-1.5-4.3-4.3-8.4-10.4-11.5
	C175.8,68.4,177.3,67,178.6,65.7z M225.5,56.9c-0.2-4.1-1.1-8-0.4-12.1c2.8-0.3,5.1-0.4,7.4-0.6c2.3-0.4,4.5-0.6,6.6-1.3
	c2.5-0.6,4-2.2,3.8-4.1c0-1.9-1.5-3.3-4.2-4.3c-5.5-2.2-11.1-3.2-17.4-1.7c-2.3,0.5-4.9,0.9-7.4,1.3c-5.9,1.1-8.9,3.8-9.1,7.9
	c-0.2,2.8-0.2,5.6-0.2,8.4c0.8,17.7,1.9,35.3,0.6,52.8c-0.6,5.6,0.2,11.2,2.6,16.7c0.2,0.4,0,0.8,0,1.3c-0.6,0.8-1.3,1.7-1.7,2.7
	c-1.3,4.1,3,7.1,9.1,6.4c1.3-0.1,2.6-0.4,3.6-0.9c4.5-2.3,10-3.2,15.7-3.8c2.6-0.3,5.1-1.4,7.6-2.4c2.5-1.1,3.6-2.8,2.6-5
	c-0.9-2.2-3.2-3.4-6.4-3.8c-2.3-0.3-4.5,0-7-0.1c-1.5,0-2.8-0.3-4-0.3c0-10.7,0-21-0.2-31.3c2.1-1.7,4.7-2.2,7.6-2.4
	c4.2-0.6,6.6-2.7,8.3-4.8c2.3-2.7,0-6-4.5-6.9c-1.7-0.4-3.6-0.4-5.3-0.3c-2.1,0-4.2,0.3-6.4,0.4C224.7,64.6,225.8,60.7,225.5,56.9z
	 M344.5,84.2l-1.1,7.6c-1.5,8.8-1.9,17.6-0.9,26.5c0.4,3.7,2.8,6.9,5.5,10.2c0.9,1.3,2.8,1.9,5.1,1.8c4.2-2.3,4.9-3.1,5.1-5.7
	c0.2-1.5,0-3.1-0.2-4.5c-1.1-5.2-0.8-10.2-0.2-15.3c0.8-6.1,1.9-12.2,2.8-18.3c0.6-3.8,1.5-7.8,1.7-11.7c0.8-10.8,1.1-21.6,1.7-32.5
	c0-1.5,0-3.1-0.4-4.6c-0.6-2.9-2.6-5-7.2-5.5c-3,0.1-4.9,1.1-6,2.5c-1.7,2.2-3.6,4.2-4.7,6.4l-15.3,31.3c-0.4,0.8-0.2,1.9-2.6,1.8
	c-2.1-5.3-4-10.7-6-16c-2.3-5.5-4.5-11.1-8.3-15.9c-3.6-2.2-6.6-3.9-9.4-5.5c-5.1-1.1-8.1,0.3-9.6,2.9c-0.9,1.7-1.5,3.6-1.9,5.3
	c-0.6,3.2-0.8,6.4-1.1,9.5c-0.9,12-1.7,23.9,2.1,36c0.6,2,0.9,4.1,1.1,6.2c0.8,6.7,1.3,13.5,2.1,20.4c0.2,2.5,0.9,5.2,1.9,7.8
	c0.2,0.9,1.9,1.7,3.4,2.7c1.1-1,2.5-1.5,2.6-2.3c0.9-2.3,1.9-4.7,2.3-7.1c1.7-10.7,3.4-21.4,4.9-32.1c0.2-0.5,0.6-0.9,1.1-1.7
	c2.1,1.8,1.7,3.4,2.1,5.1c1.1,4.7,2.3,9.3,3.6,14c0.4,1.3,1.1,2.7,2.1,3.8c3.8,4.1,11.1,4.3,14.2,0.3c1.1-1.7,1.7-3.4,2.5-5.2
	l4.5-14c0.6-1.5,1.3-3.1,1.9-4.5C343.9,84,344.1,84.2,344.5,84.2z M394.2,56.9c-0.2-4.1-1.1-8-0.4-12.1c2.8-0.3,5.1-0.4,7.4-0.6
	c2.3-0.4,4.5-0.6,6.6-1.3c2.5-0.6,4-2.2,3.8-4.1c0-1.9-1.5-3.3-4.2-4.3c-5.5-2.2-11.1-3.2-17.4-1.7c-2.3,0.5-4.9,0.9-7.4,1.3
	c-5.9,1.1-8.9,3.8-9.1,7.9c-0.2,2.8-0.2,5.6-0.2,8.4c0.8,17.7,1.9,35.3,0.6,52.8c-0.6,5.6,0.2,11.2,2.6,16.7c0.2,0.4,0,0.8,0,1.3
	c-0.6,0.8-1.3,1.7-1.7,2.7c-1.3,4.1,3,7.1,9.1,6.4c1.3-0.1,2.6-0.4,3.6-0.9c4.5-2.3,10-3.2,15.7-3.8c2.6-0.3,5.1-1.4,7.6-2.4
	c2.5-1.1,3.6-2.8,2.6-5c-0.9-2.2-3.2-3.4-6.4-3.8c-2.3-0.3-4.5,0-7-0.1c-1.5,0-2.8-0.3-4-0.3c0-10.7,0-21-0.2-31.3
	c2.1-1.7,4.7-2.2,7.6-2.4c4.2-0.6,6.6-2.7,8.3-4.8c2.3-2.7,0-6-4.5-6.9c-1.7-0.4-3.6-0.4-5.3-0.3c-2.1,0-4.2,0.3-6.4,0.4
	C393.4,64.6,394.5,60.7,394.2,56.9z"/>
<path fill="#6F91BD" d="M52.2,193.6c1.5-0.4,2.9-0.5,4.4-0.3c1.5,0.2,2.7,0.8,3.6,1.7c1,1,1.5,2.1,1.6,3.4c0.1,1.3-0.3,2.6-1.1,3.8
	c-1,1.4-2.4,2.5-4.1,3.2c-2.4,1-5,1.4-7.6,1.4c-3.6,0.1-6.7-0.8-9.4-2.5c-2.3-1.7-3.9-3.7-4.9-6.1c-1-2.6-1.3-5.3-0.8-8.1
	c0.5-3,1.8-5.9,3.8-8.5c2-2.6,4.7-4.8,8-6.6c2.8-1.4,5.8-2.4,9-2.9c3.2-0.5,6.4-0.8,9.5-0.9c3.7-0.1,7.5,0,11.1,0.3
	c3.9,0.3,7.8,0.6,11.7,0.9c3.2,0.3,6.5,0.5,9.7,0.6c3.6,0.2,7.2,0.3,10.9,0.3c3,0,6.1,0,9.1-0.1c2.8-0.1,5.7-0.3,8.5-0.5
	c2.5-0.2,4.9-0.5,7.4-0.9c1.9-0.3,3.7-0.7,5.6-1.3c0.3,0,0.6,0.1,0.9,0.3c0.2,0.2,0.3,0.4,0.3,0.6c0,0.2,0,0.5,0,0.7
	c-0.2,0.8-0.5,1.5-0.9,2.2c-1.2,1.9-2.9,3.6-5,5c-1.8,1.2-3.8,2-6,2.4c-4.4,0.6-8.9,0.9-13.3,1c-3.2,0.1-6.4,0.1-9.6,0
	c-0.4,0-0.7,0-1.1,0c-0.9,0-1.7,0-2.6-0.1c-3-0.1-5.5,0.1-7.3,0.7c-1.8,0.6-3.4,2.2-4.6,4.7c-1.1,2.2-2,4.5-2.7,6.8
	c-1,2.9-1.8,5.9-2.6,8.8c-0.9,3.4-1.8,6.8-2.6,10.2c-0.8,3.6-1.7,7.2-2.5,10.9c-0.7,3.2-1.4,6.5-2.1,9.7c-0.7,2.9-1.3,5.8-1.9,8.7
	c-0.6,2.7-1.2,5.4-1.9,8.1c-0.5,2.3-1.1,4.5-1.7,6.8c-1.3,3.3-3.9,5.9-7.8,7.6c-2.6,1.2-5.4,1.9-8.3,2.1C57.7,260,60,252,62,244
	c1.7-7,3.3-14.1,4.8-21.1c0-0.1,0.1-0.3,0.1-0.4c1.1-5.1,2.3-10.2,3.5-15.3c1.3-5.5,2.8-10.9,4.4-16.4c1.1-4.3,4.3-7,9.5-8.1
	c3.9-0.7,7.8-1.2,11.8-1.5c1.3-0.1,2.6-0.2,3.7-0.4l-3.2-0.1c-5-0.1-9.9-0.3-14.8-0.6c-1.3,0-2.6-0.1-3.9-0.2
	c-2.4-0.1-4.9-0.2-7.3-0.4c-2.9-0.2-5.8-0.2-8.7,0c-2.4,0.1-4.8,0.5-7.1,1.2c-2.4,0.7-4.7,1.8-6.8,3.2c-1.5,1-2.8,2.2-3.8,3.6
	c-1,1.4-1.7,2.9-2.1,4.4c-0.8,2.5-0.9,5-0.2,7.4c0.3,1,0.7,2,1.4,2.9c0.7,0.9,1.6,1.6,2.7,2.1c0.9,0.4,1.9,0.5,3.1,0.5
	c0.6,0,1.3-0.1,1.9-0.4c1.3-0.5,2.3-1.3,3.1-2.3c0.8-1,1.2-2.1,1.3-3.2c0.1-0.9,0-1.7-0.3-2.5C54.4,195.1,53.5,194.2,52.2,193.6z
	 M110.3,259.9c-2.1,0-4.4-0.2-6.7-0.6c-3.9-0.7-7.1-2.1-9.5-4c-2.4-2-4.2-4.4-5.3-7.2c-1.1-2.8-1.6-5.9-1.6-9.1
	c0-4.7,1-9.4,2.9-14.1c2-4.7,4.6-8.8,7.8-12.2c3.2-3.4,6.9-5.5,10.9-6.4c0.7-0.1,1.4-0.2,2.2-0.2c1.6,0,3.4,0.2,5.2,0.7
	c1.8,0.4,3.3,1,4.6,1.6c1.3,0.6,1.9,1.2,1.9,1.7c0,0.4-0.5,0.8-1.6,1c-4.9,1.3-9.1,3.6-12.6,7.1s-6.1,7.3-8,11.8
	c-1.9,4.4-2.8,8.6-2.8,12.6c0,3.8,0.9,7,2.8,9.6c1.8,2.6,4.7,4,8.6,4.1h0.1c1.6,0,3.2-0.4,4.7-1.3c1.5-0.9,2.8-1.9,4-3.2
	c1.2-1.2,2.2-2.4,3.1-3.6c0.8-1.2,1.5-2.1,1.9-2.8c-1.6-0.6-3.3-1.6-5.1-2.9c-1.8-1.3-3.3-2.6-4.4-4c-1.2-1.6-2-3.1-2.6-4.7
	c-0.6-1.5-0.8-3-0.8-4.4c0-2.9,0.9-5.4,2.7-7.7c1.8-2.3,4.1-4.1,6.8-5.4c2.8-1.3,5.5-2,8.3-2c1.8,0,3.5,0.3,5.1,0.9
	c1.6,0.6,3.1,1.6,4.3,3s2.1,3.1,2.7,5.2c0.4,1.4,0.6,3,0.6,4.9c0,2.1-0.3,4.5-0.9,7.1c-0.6,2.6-1.6,5.3-2.9,8.1
	c0.4,0.1,0.8,0.1,1.3,0.1c1.8,0,3.9-0.5,6.3-1.4c2.4-1,4.9-2.1,7.3-3.5c2.4-1.4,4.6-2.8,6.4-4.2c0.3-0.4,0.7-0.6,1.1-0.8
	s0.7-0.3,1-0.3c0.3,0,0.5-0.1,0.6-0.1c1.1,0.1,1.6,0.6,1.6,1.4c0,0.3-0.1,0.6-0.2,0.9c-0.5,0.5-2,1.8-4.5,3.7
	c-2.5,1.9-5.8,3.8-9.9,5.6c-4.1,1.8-8.6,2.8-13.5,2.9c-3,3.9-6.5,6.9-10.4,9C119.8,258.9,115.3,259.9,110.3,259.9z M125.6,240
	c1.4-3.1,2.3-5.9,2.9-8.2c0.6-2.3,0.9-4.3,0.9-5.9c0-2.3-0.5-4-1.4-5c-0.9-1-2-1.5-3.2-1.5c-1.1,0-2.3,0.4-3.5,1.1
	c-1.2,0.8-2.1,1.8-2.9,3.1c-0.8,1.3-1.2,2.9-1.2,4.6c0,1.7,0.5,3.4,1.4,5.4C120.1,236,122.4,238.2,125.6,240z M209.8,193.6
	c1.5-0.4,2.9-0.5,4.4-0.3c1.5,0.2,2.7,0.8,3.6,1.7c1,1,1.5,2.1,1.6,3.4c0.1,1.3-0.3,2.6-1.1,3.8c-1,1.4-2.4,2.5-4.1,3.2
	c-2.4,1-5,1.4-7.6,1.4c-3.6,0.1-6.7-0.8-9.4-2.5c-2.3-1.7-3.9-3.7-4.9-6.1c-1-2.6-1.3-5.3-0.8-8.1c0.5-3,1.8-5.9,3.8-8.5
	c2-2.6,4.7-4.8,8-6.6c2.8-1.4,5.8-2.4,9-2.9c3.2-0.5,6.4-0.8,9.5-0.9c3.7-0.1,7.5,0,11.1,0.3c3.9,0.3,7.8,0.6,11.7,0.9
	c3.2,0.3,6.5,0.5,9.7,0.6c3.6,0.2,7.2,0.3,10.9,0.3c3,0,6.1,0,9.1-0.1c2.8-0.1,5.7-0.3,8.5-0.5c2.5-0.2,4.9-0.5,7.4-0.9
	c1.9-0.3,3.7-0.7,5.6-1.3c0.3,0,0.6,0.1,0.9,0.3c0.2,0.2,0.3,0.4,0.3,0.6c0,0.2,0,0.5,0,0.7c-0.2,0.8-0.5,1.5-0.9,2.2
	c-1.2,1.9-2.9,3.6-5,5c-1.8,1.2-3.8,2-6,2.4c-4.4,0.6-8.9,0.9-13.3,1c-3.2,0.1-6.4,0.1-9.6,0c-0.4,0-0.7,0-1.1,0
	c-0.9,0-1.7,0-2.6-0.1c-3-0.1-5.5,0.1-7.3,0.7c-1.8,0.6-3.4,2.2-4.6,4.7c-1.1,2.2-2,4.5-2.7,6.8c-1,2.9-1.8,5.9-2.6,8.8
	c-0.9,3.4-1.8,6.8-2.6,10.2c-0.8,3.6-1.7,7.2-2.5,10.9c-0.7,3.2-1.4,6.5-2.1,9.7c-0.7,2.9-1.3,5.8-1.9,8.7c-0.6,2.7-1.2,5.4-1.9,8.1
	c-0.5,2.3-1.1,4.5-1.7,6.8c-1.3,3.3-3.9,5.9-7.8,7.6c-2.6,1.2-5.4,1.9-8.3,2.1c2.6-7.9,4.9-15.9,6.9-23.9c1.7-7,3.3-14.1,4.8-21.1
	c0-0.1,0.1-0.3,0.1-0.4c1.1-5.1,2.3-10.2,3.5-15.3c1.3-5.5,2.8-10.9,4.4-16.4c1.1-4.3,4.3-7,9.5-8.1c3.9-0.7,7.8-1.2,11.8-1.5
	c1.3-0.1,2.6-0.2,3.7-0.4l-3.2-0.1c-5-0.1-9.9-0.3-14.8-0.6c-1.3,0-2.6-0.1-3.9-0.2c-2.4-0.1-4.9-0.2-7.3-0.4
	c-2.9-0.2-5.8-0.2-8.7,0c-2.4,0.1-4.8,0.5-7.1,1.2c-2.4,0.7-4.7,1.8-6.8,3.2c-1.5,1-2.8,2.2-3.8,3.6c-1,1.4-1.7,2.9-2.1,4.4
	c-0.8,2.5-0.9,5-0.2,7.4c0.3,1,0.7,2,1.4,2.9c0.7,0.9,1.6,1.6,2.7,2.1c0.9,0.4,1.9,0.5,3.1,0.5c0.6,0,1.3-0.1,1.9-0.4
	c1.3-0.5,2.3-1.3,3.1-2.3c0.8-1,1.2-2.1,1.3-3.2c0.1-0.9,0-1.7-0.3-2.5C212.1,195.1,211.1,194.2,209.8,193.6z M305.1,277.8
	c-1.9,0-3.5-0.3-4.6-1c-1.2-0.7-2-1.6-2.6-2.7c-0.5-1.1-0.8-2.3-0.8-3.5c0-0.8,0.1-1.7,0.4-2.5c2-6.9,3.3-12.7,4-17.6
	c0.7-4.9,1-8.9,1-12c0-1,0-1.9,0-2.8c-0.1-2.2-0.7-3.9-1.6-4.9c-0.9-1.1-2.1-1.6-3.6-1.6c-2,0-4.3,1-6.8,2.9c-2.5,1.9-4.9,4.6-7,8.1
	c-2.2,3.5-3.8,7.7-4.8,12.5c-0.3,0.5-1,0.9-2.1,1.2c-1.1,0.3-2.3,0.4-3.6,0.4c-1.3,0-2.5-0.2-3.5-0.5c-1.1-0.4-1.6-0.9-1.6-1.7v-0.2
	c0.7-6.1,2.5-15.7,5.5-28.6c3-12.9,5.9-23.8,8.7-32.5c1.8-5.3,4.3-10.1,7.5-14.4c3.2-4.3,7-7.8,11.5-10.5c4.4-2.7,9.4-4.1,14.8-4.4
	l1.6,0c5.3,0,9.4,1.1,12.4,3.2c3,2.1,4.5,5.2,4.5,9.1c0,1.2-0.2,2.5-0.5,3.8c-1.6,6.9-4.8,12.9-9.6,17.9c-4.7,5-10.4,9-16.9,12
	c-6.5,3-13.3,5-20.4,5.9c-0.8,2.9-1.7,6.5-2.8,10.6c-1,4.2-1.8,7.6-2.3,10.4c2.5-4.3,5.5-7.5,9-9.5c3.4-2.1,6.8-3.1,10.1-3.1
	c3.6,0,6.6,1.1,9.2,3.4c2.6,2.3,4,5.5,4.4,9.8l0,1.9c0,2.9-0.3,6.1-0.8,9.7c-0.5,3.6-1.2,7-1.9,10.3c-0.7,3.3-1.3,6-1.9,8.1
	c-0.4,1.6-0.6,2.9-0.6,3.9c0,1.6,0.5,2.4,1.4,2.3c1.7,0,4.3-2,7.9-6c3.6-4,7.1-9,10.6-15c3.5-6,6.2-12.3,8-18.8
	c0.1-0.3,0.4-0.5,0.7-0.6s0.7-0.2,1.1-0.2c0.5,0,0.9,0.1,1.3,0.3c0.4,0.2,0.6,0.5,0.6,0.9c0,0.2-0.1,0.4-0.2,0.7
	c-2.5,7.8-5.8,15-10,21.8c-4.2,6.7-8.4,12.3-12.6,16.6c-4.3,4.3-7.8,6.7-10.5,7.2C306.5,277.7,305.8,277.8,305.1,277.8z
	 M287.6,209.8c3.4-0.4,7.6-2.2,12.5-5.4c4.9-3.1,9.4-7.1,13.6-11.9c4.2-4.8,7-9.9,8.4-15.2c0.7-2.5,1-4.7,1-6.7
	c0-1.8-0.4-3.2-1.1-4.4c-0.7-1.1-2-1.7-3.8-1.7c-0.4,0-0.8,0-1.2,0.1c-4.5,0.7-8.4,2.6-11.6,5.7c-3.3,3.1-6.1,6.9-8.4,11.4
	c-2.3,4.5-4.2,9.3-5.7,14.2C289.7,200.8,288.5,205.4,287.6,209.8z M345.6,262.6c-4.2,0-7.8-1.1-10.8-3.4c-2.9-2.3-4.7-5.7-5.3-10.1
	c-0.1-1-0.1-2.1-0.1-3.2c0-3.6,0.6-7.5,1.7-11.6s2.8-8.1,5.1-11.8c2.2-3.7,4.9-6.7,8.1-9.1c2.4-1.7,5-2.9,7.7-3.7
	c2.8-0.8,5.5-1.2,8.1-1.2c2.9,0,5.5,0.4,8,1.3c2.4,0.9,4.4,2.1,5.9,3.8c1.5,1.6,2.2,3.6,2.2,5.9c0,1.3-0.2,2.6-0.7,4.1
	c-1.1,2.9-2.6,5.2-4.5,7.1c-1.9,1.9-4,3.3-6.4,4.3c-2.4,1-4.8,1.8-7.4,2.2c-2.5,0.4-5,0.6-7.3,0.6c-1.4,0-2.6-0.1-3.5-0.3
	c-0.9-0.2-1.3-0.5-1.3-0.8c0-0.2,0.4-0.5,1.3-0.7c4.5-1.1,8.2-2.8,11.1-5.2c2.8-2.4,4.9-4.9,6.2-7.6s1.9-5.1,1.9-7.1
	c0-1.1-0.2-2-0.6-2.7s-1-1.1-1.8-1.1H363c-2.5,0-4.8,0.9-6.8,2.7c-2,1.8-3.9,4.1-5.4,6.9c-1.6,2.8-2.9,5.9-4,9.3
	c-1.1,3.3-1.9,6.6-2.4,9.9c-0.5,3.3-0.8,6.1-0.8,8.6c0,2.2,0.2,3.9,0.6,5.1c0.5,1.3,1.2,2.2,2.2,2.8c1,0.6,2.1,0.9,3.4,0.9
	c1.7,0,3.6-0.4,5.6-1.3c5.7-2.7,10.5-5.5,14.3-8.5c3.8-3,7.3-6.1,10.4-9.1c1.8-1.7,3.7-3.5,5.6-5.2c0.4-0.3,0.9-0.6,1.4-0.8
	c0.5-0.2,1-0.3,1.4-0.3c0.5,0,0.9,0.1,1.2,0.3c0.3,0.2,0.5,0.4,0.5,0.8c0,0.3-0.2,0.6-0.5,1c-4.9,5-9.8,9.5-14.5,13.4
	c-4.8,3.9-9.5,7.2-14.3,9.8c-2.6,1.4-5.2,2.5-7.8,3.2C350.4,262.2,348,262.6,345.6,262.6z M406.7,164.3c-1.3-3.3-8.8-3-12.2-2.8
	c-2.8,0.1-5.3,0.5-7.9,1.1c-0.3,0.1-3.9,1-7,1.8c-3.2,0.5-0.7-0.9-0.7-0.9c3.6-1.9,8.6-4.4,9.4-4.8c3.1-1.5,15.5-8.1,8.3-11.1
	c-3.9-1.6-9,2.6-11.2,4.6c-1.8,1.6-3.3,3.2-4.6,5.1c-0.1,0.2-1.8,2.8-3.3,5.1l0,0c-1.8,2.1-1.3-0.2-1.3-0.2h0c0.8-3.3,2-7.8,2.2-8.4
	c0.8-2.8,3.5-14.1-4.4-12.3c-4.3,1-3.9,6.7-3.7,9.3c0.2,2.1,0.7,4,1.5,6.1c0.1,0.2,1.3,3,2.3,5.4c0.7,2.4-1.1,0.5-1.1,0.5
	c-2.5-2.8-5.8-6.6-6.3-7.1c-2-2.4-10.6-11.9-14.5-6.3c-2.1,3,3.4,6.8,6,8.6c2.1,1.4,4.2,2.5,6.7,3.5c0.2,0.1,3.7,1.4,6.6,2.5
	c2.7,1.4-0.3,1-0.3,1c-4.3-0.6-10.2-1.5-11.1-1.7c-3.6-0.6-18.5-2.6-16.1,3.4c1.3,3.3,8.8,3,12.2,2.8c2.8-0.1,5.3-0.5,7.9-1.1
	c0.3-0.1,3.9-1,7-1.8c3.2-0.5,0.7,0.9,0.7,0.9c-3.6,1.9-8.6,4.4-9.4,4.8c-3.1,1.5-15.5,8.1-8.3,11.1c3.9,1.6,9-2.6,11.2-4.6
	c1.8-1.6,3.3-3.2,4.6-5.1c0.1-0.2,1.8-2.8,3.3-5.1v0c1.8-2.1,1.3,0.2,1.3,0.2h0c-0.8,3.3-2,7.8-2.2,8.4c-0.8,2.8-3.5,14.1,4.4,12.3
	c4.3-1,3.9-6.7,3.7-9.3c-0.2-2.1-0.7-4-1.5-6.1c-0.1-0.2-1.3-3-2.3-5.4c-0.7-2.4,1.1-0.5,1.1-0.5c2.5,2.8,5.8,6.6,6.3,7.1
	c2,2.4,10.6,11.9,14.5,6.3c2.1-3-3.4-6.8-6-8.6c-2.1-1.4-4.2-2.5-6.7-3.5c-0.2-0.1-3.7-1.4-6.6-2.5c-2.7-1.4,0.3-1,0.3-1
	c4.3,0.6,10.2,1.5,11.1,1.7C394.2,168.3,409,170.3,406.7,164.3z M374.7,167.1c-1.8-0.3-2.2-1.7-1.2-2.8c1-1.1,3.5-0.6,3.8,0.8
	C377.5,166.5,376.3,167.4,374.7,167.1z M276.7,145.7c-0.9-2.3-6.2-2.1-8.6-2c-2,0.1-3.8,0.4-5.6,0.8c-0.2,0-2.8,0.7-5,1.3
	c-2.2,0.4-0.5-0.6-0.5-0.6c2.6-1.3,6.1-3.1,6.6-3.4c2.2-1.1,11-5.7,5.8-7.8c-2.8-1.1-6.3,1.8-8,3.2c-1.3,1.1-2.3,2.3-3.2,3.6
	c-0.1,0.1-1.3,2-2.3,3.6l0,0c-1.3,1.5-0.9-0.2-0.9-0.2h0c0.6-2.3,1.4-5.5,1.5-6c0.6-2,2.4-10-3.1-8.7c-3,0.7-2.8,4.7-2.6,6.6
	c0.1,1.5,0.5,2.9,1,4.3c0.1,0.1,0.9,2.1,1.7,3.8c0.5,1.7-0.8,0.4-0.8,0.4c-1.7-2-4.1-4.6-4.4-5.1c-1.4-1.7-7.5-8.4-10.3-4.5
	c-1.5,2.1,2.4,4.8,4.2,6.1c1.5,1,3,1.8,4.7,2.5c0.2,0.1,2.6,1,4.7,1.8c1.9,1-0.2,0.7-0.2,0.7c-3.1-0.4-7.2-1.1-7.8-1.2
	c-2.6-0.4-13.1-1.9-11.4,2.4c0.9,2.3,6.2,2.1,8.6,2c2-0.1,3.8-0.4,5.6-0.8c0.2,0,2.8-0.7,5-1.3c2.2-0.4,0.5,0.6,0.5,0.6
	c-2.6,1.3-6.1,3.1-6.6,3.4c-2.2,1.1-11,5.7-5.8,7.8c2.8,1.1,6.3-1.8,8-3.2c1.3-1.1,2.3-2.3,3.2-3.6c0.1-0.1,1.3-2,2.3-3.6v0
	c1.3-1.5,0.9,0.2,0.9,0.2h0c-0.6,2.3-1.4,5.5-1.5,6c-0.6,2-2.4,10,3.1,8.7c3-0.7,2.8-4.7,2.6-6.6c-0.1-1.5-0.5-2.9-1-4.3
	c-0.1-0.1-0.9-2.1-1.7-3.8c-0.5-1.7,0.8-0.4,0.8-0.4c1.7,2,4.1,4.6,4.4,5.1c1.4,1.7,7.5,8.4,10.3,4.5c1.5-2.1-2.4-4.8-4.2-6.1
	c-1.5-1-3-1.8-4.7-2.5c-0.2-0.1-2.6-1-4.7-1.8c-1.9-1,0.2-0.7,0.2-0.7c3.1,0.4,7.2,1.1,7.8,1.2C267.9,148.5,278.4,149.9,276.7,145.7
	z M254.2,147.7c-1.3-0.2-1.5-1.2-0.9-2c0.7-0.8,2.5-0.5,2.7,0.5C256.1,147.2,255.3,147.8,254.2,147.7z M266.4,284.3
	c-0.9-2.3-6.2-2.1-8.6-2c-2,0.1-3.8,0.4-5.6,0.8c-0.2,0-2.8,0.7-5,1.3c-2.2,0.4-0.5-0.6-0.5-0.6c2.6-1.3,6.1-3.1,6.6-3.4
	c2.2-1.1,11-5.7,5.8-7.8c-2.8-1.1-6.3,1.8-8,3.2c-1.3,1.1-2.3,2.3-3.2,3.6c-0.1,0.1-1.3,2-2.3,3.6l0,0c-1.3,1.5-0.9-0.2-0.9-0.2h0
	c0.6-2.3,1.4-5.5,1.5-6c0.6-2,2.4-10-3.1-8.7c-3,0.7-2.8,4.7-2.6,6.6c0.1,1.5,0.5,2.9,1,4.3c0.1,0.1,0.9,2.1,1.7,3.8
	c0.5,1.7-0.8,0.4-0.8,0.4c-1.7-2-4.1-4.6-4.4-5.1c-1.4-1.7-7.5-8.4-10.3-4.5c-1.5,2.1,2.4,4.8,4.2,6.1c1.5,1,3,1.8,4.7,2.5
	c0.2,0.1,2.6,1,4.7,1.8c1.9,1-0.2,0.7-0.2,0.7c-3.1-0.4-7.2-1.1-7.8-1.2c-2.6-0.4-13.1-1.9-11.4,2.4c0.9,2.3,6.2,2.1,8.6,2
	c2-0.1,3.8-0.4,5.6-0.8c0.2,0,2.8-0.7,5-1.3c2.2-0.4,0.5,0.6,0.5,0.6c-2.6,1.3-6.1,3.1-6.6,3.4c-2.2,1.1-11,5.7-5.8,7.8
	c2.8,1.1,6.3-1.8,8-3.2c1.3-1.1,2.3-2.3,3.2-3.6c0.1-0.1,1.3-2,2.3-3.6v0c1.3-1.5,0.9,0.2,0.9,0.2h0c-0.6,2.3-1.4,5.5-1.5,6
	c-0.6,2-2.4,10,3.1,8.7c3-0.7,2.8-4.7,2.6-6.6c-0.1-1.5-0.5-2.9-1-4.3c-0.1-0.1-0.9-2.1-1.7-3.8c-0.5-1.7,0.8-0.4,0.8-0.4
	c1.7,2,4.1,4.6,4.4,5.1c1.4,1.7,7.5,8.4,10.3,4.5c1.5-2.1-2.4-4.8-4.2-6.1c-1.5-1-3-1.8-4.7-2.5c-0.2-0.1-2.6-1-4.7-1.8
	c-1.9-1,0.2-0.7,0.2-0.7c3.1,0.4,7.2,1.1,7.8,1.2C257.6,287.1,268.1,288.5,266.4,284.3z M243.9,286.2c-1.3-0.2-1.5-1.2-0.9-2
	c0.7-0.8,2.5-0.5,2.7,0.5C245.8,285.8,245,286.4,243.9,286.2z"/>
</svg>
