<?xml version="1.0" encoding="utf-8"?>
<!-- Generator: Adobe Illustrator 18.0.0, SVG Export Plug-In . SVG Version: 6.00 Build 0)  -->
<!DOCTYPE svg PUBLIC "-//W3C//DTD SVG 1.1//EN" "http://www.w3.org/Graphics/SVG/1.1/DTD/svg11.dtd">
<svg version="1.1" id="Layer_1" xmlns="http://www.w3.org/2000/svg" xmlns:xlink="http://www.w3.org/1999/xlink" x="0px" y="0px"
	 viewBox="0 0 432 432" enable-background="new 0 0 432 432" xml:space="preserve">
<path fill="#BC936B" d="M317.3,271.4c-1.4,1.9-5,7.5-5.2,6.8c-6.2-2-11.8-7.1-14.3-12.1c-1.3-2.5-2.9-6.5,1.1-7.8
	c3.7-1.2,9.3,3,10.4,5.6c0.9-5.1,9.6-8.4,12.1-4C323.6,263.8,319.8,267.9,317.3,271.4z M133,254.4c-2.5-4.4-11.2-1.1-12.1,4
	c-1.1-2.6-6.8-6.8-10.4-5.6c-4.1,1.3-2.4,5.3-1.1,7.8c2.6,5,8.1,10,14.3,12.1c0.2,0.7,3.9-4.9,5.2-6.8
	C131.3,262.3,135.2,258.1,133,254.4z M297.6,202.9c-2.5-4.4-11.2-1.1-12.1,4c-1.1-2.6-6.8-6.8-10.4-5.6c-4.1,1.3-2.4,5.3-1.1,7.8
	c2.6,5,8.1,10,14.3,12.1c0.2,0.7,3.9-4.9,5.2-6.8C295.9,210.8,299.7,206.7,297.6,202.9z M132,198.1c-2.5-4.4-11.2-1.1-12.1,4
	c-1.1-2.6-6.8-6.8-10.4-5.6c-4.1,1.3-2.4,5.3-1.1,7.8c2.6,5,8.1,10,14.3,12.1c0.2,0.7,3.9-4.9,5.2-6.8
	C130.3,206.1,134.2,201.9,132,198.1z M132,143.6c-2.5-4.4-11.2-1.1-12.1,4c-1.1-2.6-6.8-6.8-10.4-5.6c-4.1,1.3-2.4,5.3-1.1,7.8
	c2.6,5,8.1,10,14.3,12.1c0.2,0.7,3.9-4.9,5.2-6.8C130.3,151.5,134.2,147.3,132,143.6z M344.3,150.4c-2.5-4.4-11.2-1.1-12.1,4
	c-1.1-2.6-6.8-6.8-10.4-5.6c-4.1,1.3-2.4,5.3-1.1,7.8c2.6,5,8.1,10,14.3,12.1c0.2,0.7,3.9-4.9,5.2-6.8
	C342.6,158.3,346.4,154.2,344.3,150.4z M359.2,214.5c-0.7,0.1-1.1,0.4-1.3,1.1c-0.3,0.8-2.4,4.1-3.4,5.2c-1.2,1.4-4.9,4.2-7.2,5.6
	c-3.9,2.4-9.9,4.2-16.7,5.2c-5.1,0.7-15.6,1-19.1,0.4c-0.5-0.1-1.3-0.1-1.8-0.1c-0.8,0-0.9,0-1.2,0.3c-0.2,0.2-0.3,0.4-0.3,1
	c0,0.8,0.3,1.1,1,1.4c2.9,0.9,16.2,0.7,22.6-0.2c7.8-1.2,13.7-3.3,18.4-6.4c2.6-1.7,5.4-4.1,6.7-5.6c1-1.2,2.6-3.6,3.4-5.1
	c0.6-1.2,0.6-1.8-0.2-2.5C359.8,214.5,359.7,214.5,359.2,214.5z M341.8,220.6c-0.5,0.3-1.5,0.7-2.3,0.9s-2.2,0.7-3.2,1
	c-3.6,1.1-5.4,1.5-15.8,2.8c-1.2,0.1-2.6,0.2-5.9,0.2c-4.8,0-4.7,0-5.2,0.7c-0.4,0.6,0,1.9,0.6,1.9c0.1,0,0.2,0.1,0.2,0.1
	c0,0.2,8.4,0.1,10.5-0.2c3-0.3,9.4-1.2,11.1-1.5c2.5-0.5,6.3-1.5,9.6-2.7c1.2-0.4,2.4-1.1,2.8-1.5c0.3-0.4,0.4-0.5,0.3-0.9
	c-0.1-0.6-0.3-1-0.7-1.2C343.2,220,342.7,220.1,341.8,220.6z M363.5,223.5c1.6,0.5,2.8,1.8,3,3.2c0.4,3-3.2,6.7-8,8.2
	c-0.9,0.3-4.8,1.1-6,1.3c-0.8,0.1-1.7-0.6-1.7-1.4c0-0.4,0.5-1.2,0.9-1.3c0.5-0.2,3.7-3,4.5-3.9c0.4-0.5,1.1-1.4,1.6-2
	c0.4-0.6,0.9-1.4,1.1-1.6c0.5-0.7,1.6-1.8,2.3-2.1C361.7,223.5,362.9,223.3,363.5,223.5z M362.1,226.5c-0.3,0.2-0.8,0.9-1.6,2
	c-0.6,0.9-1.5,2.1-2,2.7c-0.5,0.5-0.9,1-0.8,1c0.2,0,1.8-0.7,2.4-1c2.2-1.3,3.9-3.3,3.5-4.2c-0.1-0.3-0.8-0.7-1-0.7
	C362.6,226.2,362.3,226.4,362.1,226.5z M346.8,237.1c1.7,0.2,2.7,0.4,6.1,1.6c4.9,1.6,7.3,2.9,9,4.6c1.8,1.8,2.5,4,2,6
	c-0.2,0.8-0.8,2-1.4,2.6c-0.8,0.8-1.6,1.1-3.3,1.2c-1.4,0-1.4,0-2.3-0.4c-2.1-0.9-2.1-0.9-7.8-6.9c-3.5-3.7-4.5-4.5-6.5-5.2
	c-1-0.4-1.5-0.7-1.5-1c0-0.1-0.1-0.2-0.1-0.2c-0.1,0-0.1-0.2-0.1-0.5c0-0.3,0-0.5,0.1-0.5c0.1,0,0.1-0.1,0.1-0.2
	c0-0.2,0.8-0.9,1.2-1.1C342.8,237,345.4,236.9,346.8,237.1z M348.5,241.2c2.6,2.7,5.2,5.3,6,6.2c1,1.2,1.7,1.7,2.6,2.3
	c1.1,0.6,1.7,0.8,2.6,0.6c0.9-0.2,1.2-0.4,1.5-1.3c0.3-0.8,0.2-1.5-0.3-2.5c-0.6-1.3-1.9-2.3-4.3-3.5c-1.2-0.6-8.2-2.9-9-3
	C347.4,240,347.9,240.5,348.5,241.2z M305.6,238.8c0,0-0.2,0.1-0.3,0.2c-0.1,0.1-0.3,0.2-0.4,0.4c-0.1,0.1-0.2,0.3-0.2,0.3
	c-0.1,0-0.1,0.2-0.1,0.5c0,0.3,0,0.5,0.1,0.5s0.1,0.1,0.2,0.3c0,0.2,0.2,0.3,0.4,0.4c0.2,0,0.3,0.1,0.3,0.2c0,0.1,1.1,0.1,3,0
	c4.4-0.1,5.1,0,13.5,1.5c5.8,1.1,8.2,1.7,11.9,2.9c5.8,1.9,8.7,3.2,11.5,5c4,2.7,6.3,4.8,8.4,8.1c1.7,2.6,2.4,4.7,2.8,8
	c0.1,1.1,0.1,1.3-0.1,2.1c-0.7,2.9-1.8,4.5-4,6c-1.8,1.2-3.6,1.9-6,2.2c-3.1,0.4-5.5-0.9-7.6-4.3c-0.9-1.5-1.2-2.6-1.2-4.1
	c0-1.1,0-1.4,0.5-2.9c0.5-1.6,0.6-2.5,0.4-2.5c-0.1,0-0.1-0.1-0.2-0.3c0-0.2-0.2-0.3-0.4-0.4c-0.2,0-0.3-0.1-0.3-0.2
	s-0.2-0.1-0.5-0.1c-0.3,0-0.5,0-0.5,0.1c0,0-0.1,0.1-0.3,0.2c-0.4,0.2-0.6,0.6-1.1,2.6c-0.5,1.8-0.5,1.9-0.5,3.4
	c0,1.3,0,1.8,0.3,2.6c1,3.4,3.6,6.7,6.4,8c1.3,0.6,2.2,0.8,3.9,0.8c3.3,0,5.7-0.7,8.5-2.5c1.2-0.7,2.6-2.1,3.3-3.1
	c0.5-0.7,1.3-2.4,1.8-3.8c0.3-0.7,0.3-1,0.3-2.9c0-3.8-0.7-6.2-2.9-9.8c-3-5.1-9.1-9.9-15.6-12.5c-3.8-1.5-7.7-2.8-10.4-3.5
	c-2.1-0.5-2.5-0.6-8.3-1.7c-5.1-0.9-6.9-1.2-8.9-1.4C312.2,238.6,305.7,238.7,305.6,238.8z M69,214.8c-0.7,0.7-0.8,1.3-0.2,2.5
	c0.7,1.5,2.3,3.9,3.4,5.1c1.3,1.5,4.1,3.9,6.7,5.6c4.7,3.1,10.6,5.2,18.4,6.4c6.4,1,19.6,1.1,22.6,0.2c0.7-0.2,1-0.6,1-1.4
	c0-0.5,0-0.7-0.3-1c-0.3-0.3-0.4-0.3-1.2-0.3c-0.5,0-1.3,0.1-1.8,0.1c-3.5,0.5-14,0.3-19.1-0.4c-6.9-1-12.9-2.9-16.7-5.2
	c-2.3-1.4-5.9-4.3-7.2-5.6c-1-1.1-3.1-4.4-3.4-5.2c-0.2-0.7-0.6-1.1-1.3-1.1C69.4,214.5,69.3,214.5,69,214.8z M85.4,220.2
	c-0.4,0.2-0.7,0.6-0.7,1.2c0,0.5,0,0.6,0.3,0.9c0.4,0.4,1.6,1.1,2.8,1.5c3.3,1.1,7.1,2.2,9.6,2.7c1.7,0.3,8.1,1.2,11.1,1.5
	c2.2,0.2,10.5,0.4,10.5,0.2c0-0.1,0.1-0.1,0.2-0.1c0.6,0,1-1.3,0.6-1.9c-0.4-0.7-0.4-0.7-5.2-0.7c-3.3,0-4.8-0.1-5.9-0.2
	c-10.3-1.3-12.2-1.7-15.8-2.8c-1-0.3-2.5-0.8-3.2-1s-1.8-0.6-2.3-0.9C86.3,220.1,85.8,220,85.4,220.2z M67.9,223.8
	c0.7,0.3,1.8,1.4,2.3,2.1c0.2,0.2,0.6,1,1.1,1.6c0.4,0.6,1.1,1.6,1.6,2c0.8,0.9,4.1,3.7,4.5,3.9c0.4,0.2,0.9,1,0.9,1.3
	c0,0.8-0.9,1.6-1.7,1.4c-1.2-0.2-5-1-6-1.3c-4.8-1.5-8.5-5.1-8-8.2c0.2-1.4,1.4-2.7,3-3.2C66.1,223.3,67.3,223.5,67.9,223.8z
	 M66.4,226.2c-0.2,0-0.9,0.5-1,0.7c-0.4,0.9,1.3,2.9,3.5,4.2c0.6,0.3,2.2,1,2.4,1c0,0-0.3-0.4-0.8-1c-0.5-0.5-1.4-1.7-2-2.7
	c-0.7-1.1-1.3-1.8-1.6-2C66.7,226.4,66.5,226.2,66.4,226.2z M86.6,237.2c0.5,0.2,1.2,0.9,1.2,1.1c0,0.1,0.1,0.2,0.1,0.2
	c0.1,0,0.1,0.2,0.1,0.5c0,0.3,0,0.5-0.1,0.5c-0.1,0-0.1,0.1-0.1,0.2c0,0.3-0.5,0.6-1.5,1c-2,0.7-3,1.6-6.5,5.2
	c-5.7,6-5.7,5.9-7.8,6.9c-1,0.4-1,0.4-2.3,0.4c-1.7-0.1-2.5-0.3-3.3-1.2c-0.6-0.6-1.2-1.8-1.4-2.6c-0.5-2,0.3-4.2,2-6
	c1.7-1.8,4.1-3,9-4.6c3.5-1.1,4.4-1.4,6.1-1.6C83.6,236.9,86.2,237,86.6,237.2z M81.5,240c-0.8,0.1-7.8,2.4-9,3
	c-2.5,1.2-3.7,2.2-4.3,3.5c-0.5,0.9-0.5,1.7-0.3,2.5c0.3,0.9,0.6,1.1,1.5,1.3c0.9,0.2,1.5,0,2.6-0.6c0.9-0.5,1.6-1.1,2.6-2.3
	c0.8-0.9,3.3-3.6,6-6.2C81.2,240.5,81.6,240,81.5,240z M115.7,238.7c-2,0.2-3.7,0.5-8.9,1.4c-5.8,1.1-6.2,1.2-8.3,1.7
	c-2.7,0.7-6.6,2-10.4,3.5c-6.5,2.6-12.6,7.4-15.6,12.5c-2.2,3.6-2.9,6-2.9,9.8c0,1.9,0,2.1,0.3,2.9c0.5,1.4,1.3,3.1,1.8,3.8
	c0.7,1,2.2,2.4,3.3,3.1c2.8,1.8,5.2,2.5,8.5,2.5c1.7,0,2.6-0.2,3.9-0.8c2.7-1.3,5.4-4.6,6.4-8c0.2-0.7,0.3-1.2,0.3-2.6
	c0-1.6,0-1.7-0.5-3.4c-0.6-2-0.8-2.5-1.1-2.6c-0.1-0.1-0.3-0.2-0.3-0.2c0-0.1-0.2-0.1-0.5-0.1s-0.5,0-0.5,0.1s-0.1,0.1-0.3,0.2
	c-0.2,0-0.3,0.2-0.4,0.4c0,0.2-0.1,0.3-0.2,0.3c-0.2,0-0.1,0.9,0.4,2.5c0.4,1.6,0.5,1.8,0.5,2.9c0,1.5-0.4,2.7-1.2,4.1
	c-2.1,3.4-4.4,4.7-7.6,4.3c-2.4-0.3-4.1-1-6-2.2c-2.1-1.4-3.2-3.1-4-6c-0.2-0.8-0.2-1-0.1-2.1c0.4-3.2,1.1-5.3,2.8-8
	c2.1-3.3,4.3-5.4,8.4-8.1c2.8-1.8,5.7-3.1,11.5-5c3.6-1.2,6.1-1.8,11.9-2.9c8.4-1.6,9.2-1.6,13.5-1.5c1.9,0.1,3,0,3,0
	c0-0.1,0.1-0.2,0.3-0.2c0.2,0,0.3-0.2,0.4-0.4c0-0.2,0.1-0.3,0.2-0.3s0.1-0.2,0.1-0.5c0-0.3,0-0.5-0.1-0.5c0,0-0.1-0.1-0.2-0.3
	c-0.1-0.1-0.2-0.3-0.4-0.4c-0.1-0.1-0.3-0.2-0.3-0.2C123.3,238.7,116.9,238.6,115.7,238.7z M163.3,215.1c-0.1,0.1-0.2,0.3-0.3,0.4
	c-0.5,0.7-1,1.5-1.3,2.3c-0.3,0.8-0.6,1.6-0.7,2.4c-0.3,1.7-0.4,3.5-0.2,5.2c0,0.4,0.1,0.9,0.1,1.3c0,0.4,0.1,0.8,0.2,1.3
	c0.1,0.7,0.2,1.5,0.3,2.2c0.1,0.7,0.2,1.5,0.3,2.3c0.1,0.4,0.2,0.9,0.2,1.3c0,0.4,0.1,0.9,0.2,1.4c0.1,0.7,0.2,1.4,0.3,2.2
	c0.1,0.7,0.2,1.4,0.3,2.2c0.1,1,0.2,1.9,0.2,2.9c0.1,1,0.1,1.9,0.1,2.9c0,1,0.1,2,0,3c0,1-0.1,2-0.2,3c-0.1,0.8-0.2,1.5-0.4,2.3
	c-0.1,0.8-0.3,1.5-0.6,2.3c-0.2,0.6-0.5,1.2-0.8,1.7c-0.3,0.6-0.7,1.1-1.1,1.5c-0.9,1.1-2,1.7-3.4,1.8c-1,0.1-2,0.1-3-0.2
	c-1.5-0.3-2.8-1.1-4-2.3c-1.6-1.6-2.4-3.3-2.6-5.3c-0.2-2,0.4-3.6,1.8-4.7c0.3-0.3,0.3-0.6,0.1-0.8c-0.2-0.3-0.4-0.5-0.6-0.5
	c-0.6-0.3-1.3-0.3-2-0.1c-1.7,0.6-2.7,1.8-3.1,3.6c-0.2,0.7-0.3,1.4-0.2,2.1c0.1,0.7,0.2,1.4,0.5,2.1c0.3,1,0.7,1.9,1.2,2.8
	c0.5,0.9,1.1,1.7,1.8,2.5c2.8,3.2,6.2,5,10.2,5.5c0.9,0.1,1.8,0.1,2.7,0.1c0.9-0.1,1.8-0.2,2.7-0.5c1.6-0.5,3-1.4,4-2.6
	c0.7-0.9,1.3-1.8,1.8-2.8c0.5-1,0.8-2,1.1-3.1c0.1-0.4,0.2-0.7,0.3-1.1c0.1-0.3,0.2-0.7,0.3-1.1c0.1-0.5,0.2-1,0.2-1.5
	c0.1-0.5,0.1-1,0.1-1.5c0.1-0.5,0.1-1,0.1-1.4c0-0.4,0-0.9,0-1.4c0-0.7,0-1.4,0-2s0-1.4-0.1-2c0-0.6,0-1.2-0.1-1.8
	c-0.1-0.6-0.1-1.2-0.1-1.8c-0.1-0.8-0.2-1.6-0.2-2.4c0-0.8-0.1-1.5-0.2-2.3c-0.1-0.6-0.2-1.1-0.2-1.7c-0.1-0.6-0.1-1.1-0.2-1.7
	c-0.1-0.2-0.1-0.5-0.1-0.7c0-0.2,0-0.4,0-0.7l-0.4-3.7c-0.1-1.1-0.2-2.2-0.2-3.4c0-1.1,0-2.3,0-3.4c0.1-1.5,0.3-2.8,0.7-4
	c0.1-0.4,0.3-0.8,0.5-1.2c0.2-0.4,0.5-0.7,0.9-1c0.2-0.2,0.4-0.2,0.7-0.1c0.5,0.2,1.1,0.4,1.6,0.5c0.6,0.2,1.1,0.3,1.6,0.5
	c0.7,0.2,1.4,0.4,2.1,0.5c0.7,0.1,1.4,0.3,2.1,0.4c0.5,0.1,1,0.2,1.5,0.3c0.5,0.1,1,0.2,1.5,0.3c0.7,0.1,1.5,0.2,2.2,0.2
	c0.7,0,1.5,0,2.3,0c1.5-0.1,2.8-0.4,4.1-0.9c1.6-0.8,2.6-2,3-3.8c0.2-0.8,0.2-1.5,0-2.2c-0.2-0.7-0.4-1.4-0.8-2.1
	c-0.1-0.1-0.2-0.2-0.2-0.3c0,0.1-0.1,0.2-0.1,0.2c-0.8,1.8-2.1,3-3.9,3.6c-0.2,0.1-0.5,0.2-0.7,0.2c-0.2,0-0.4,0.1-0.7,0.1
	c-0.3,0.1-0.6,0.2-0.8,0.2c-0.3,0-0.5,0-0.8,0c-0.5,0-1,0-1.5-0.1c-0.5-0.1-1-0.1-1.5-0.1l-2.8-0.4c-0.6-0.1-1.2-0.2-1.7-0.4
	c-0.6-0.1-1.1-0.3-1.7-0.4c-0.4-0.1-0.7-0.2-1.1-0.3c-0.3-0.1-0.7-0.2-1.1-0.3l-3.1-0.7c-0.6-0.1-1.3-0.3-1.9-0.4
	c-0.6-0.1-1.3-0.2-1.9-0.3c-0.6-0.1-1.3-0.3-1.9-0.4c-0.6-0.1-1.2-0.2-1.9-0.3l-3.5-0.4c-0.7-0.1-1.4-0.2-2.2-0.3
	c-0.7-0.1-1.4-0.1-2.2-0.2c-0.8,0-1.5,0-2.3,0c-0.7,0-1.5,0-2.3,0.1c-1.6,0-3.3,0.3-5,0.7c-0.6,0.1-1.3,0.3-1.9,0.5
	c-0.6,0.2-1.2,0.4-1.7,0.7c-2.4,1.3-4.5,3-6.3,5.2c-0.4,0.5-0.7,1.1-1.1,1.6c-0.3,0.5-0.6,1.1-0.9,1.7c-0.2,0.5-0.5,1.1-0.7,1.6
	c-0.2,0.5-0.4,1-0.5,1.6c-0.1,0.3-0.2,0.6-0.2,0.9c-0.1,0.3-0.1,0.6-0.1,0.9c-0.1,0.5-0.2,1-0.2,1.5c0,0.5-0.1,1-0.1,1.5
	c0,0.5,0,1,0,1.4c0,0.5,0.1,0.9,0.1,1.4c0.1,0.2,0.1,0.4,0.1,0.5c0,0.1,0,0.3,0.1,0.5c0.1,0.4,0.2,0.8,0.3,1.2
	c0.1,0.4,0.3,0.8,0.4,1.2c0.4,1,0.9,1.9,1.5,2.7c0.6,0.9,1.3,1.6,2.1,2.3c0.5,0.4,1,0.7,1.5,1.1c0.5,0.3,1,0.6,1.5,0.8
	c0.3,0.1,0.7,0.2,1,0.3c0.3,0.1,0.6,0.2,1,0.3c0.4,0.1,0.8,0.2,1.2,0.3c0.4,0,0.8,0,1.2,0c0.7-0.1,1.2-0.3,1.7-0.5
	c1.1-0.7,1.8-1.6,2.3-2.7c0.3-0.7,0.2-1.4-0.3-1.9c-0.1-0.1-0.3-0.3-0.5-0.4c-0.2-0.1-0.4-0.2-0.5-0.3c-0.2-0.1-0.5-0.2-0.7-0.2
	c-0.7-0.1-1.2,0-1.7,0.5c-0.6,0.6-1.3,1-2.1,1.3c-0.4,0.1-0.8,0.1-1.1-0.1c-0.6-0.5-1-1-1.2-1.5c-0.2-0.4-0.5-0.9-0.7-1.3
	c-0.2-0.4-0.3-0.9-0.4-1.4c-0.1-0.4-0.2-0.7-0.3-1.1s-0.1-0.7-0.1-1.1c-0.1-0.4-0.1-0.9-0.1-1.3c0-0.4,0-0.9,0-1.3
	c0.1-0.8,0.2-1.6,0.4-2.5c0.1-0.5,0.2-0.9,0.3-1.4c0.1-0.4,0.3-0.9,0.5-1.3c0.9-2,2.1-3.7,3.8-5.1c1.5-1.4,3.2-2.3,5-2.7
	c1.2-0.3,2.4-0.5,3.8-0.7c0.9-0.1,1.8-0.2,2.7-0.2c0.7,0.1,1.3,0.1,2,0.1c0.7,0.1,1.3,0.1,2,0.3c0.7,0.1,1.4,0.2,2,0.4
	c0.7,0.2,1.4,0.4,2,0.6c0.2,0.1,0.5,0.2,1,0.4C163.5,214.7,163.4,214.9,163.3,215.1z M192.4,241.7c-0.1-0.4-0.2-0.9-0.3-1.5
	c-0.1-0.4-0.2-0.9-0.3-1.3c-0.1-0.4-0.3-0.9-0.4-1.3c-0.2-0.4-0.4-0.9-0.6-1.3c-0.2-0.5-0.5-0.9-0.8-1.3c-0.3-0.5-0.8-1-1.5-1.5
	c-0.2-0.1-0.4-0.3-0.6-0.4c-0.2-0.1-0.4-0.2-0.6-0.3c-1.1-0.5-2.3-0.9-3.6-1c-0.5-0.1-1.1-0.1-1.6-0.1c-0.5,0-1.1,0.1-1.6,0.2
	c-0.7,0.1-1.5,0.3-2.2,0.7c-1.2,0.6-2.3,1.5-3.2,2.7c-0.3,0.4-0.6,0.8-0.9,1.2c-0.2,0.4-0.5,0.8-0.7,1.3c-0.4,0.8-0.7,1.6-0.9,2.4
	c-0.1,0.2-0.2,0.5-0.2,0.7c0,0.2-0.1,0.5-0.1,0.7c-0.1,0.3-0.2,0.6-0.2,0.9c0,0.3-0.1,0.6-0.1,0.9c0,0.3-0.1,0.6-0.1,0.8
	c0,0.3-0.1,0.5-0.1,0.8c0,0.2,0,0.5,0,0.8c0,0.3,0,0.5,0,0.8c0,0.4,0,0.8,0,1.1c0,0.3,0,0.7,0,1.1c0,0.1,0,0.3,0,0.4
	c0,0.1,0,0.3,0,0.4l0.2,1.5c0.1,0.2,0.1,0.5,0.1,0.7c0,0.2,0.1,0.5,0.1,0.7c0.1,0.4,0.2,0.9,0.3,1.2s0.2,0.8,0.4,1.2
	c0.3,0.9,0.7,1.6,0.9,2.3c0.6,1.2,1.4,2.1,2.3,2.9c1,0.9,2.2,1.5,3.6,1.8c0.2,0.1,0.5,0.1,0.7,0.1c0.2,0,0.5,0,0.7,0.1
	c0.5,0,1.1,0,1.7,0c0.6-0.1,1.1-0.2,1.7-0.4c1-0.3,1.8-0.9,2.6-1.7c0.7-0.7,1.4-1.5,1.9-2.3c0.3-0.5,0.6-1,0.8-1.4
	c0.2-0.5,0.4-1,0.7-1.5c0.2-0.5,0.4-1.1,0.5-1.6c0.2-0.5,0.3-1.1,0.4-1.6c0-0.2,0.1-0.5,0.1-0.7c0-0.2,0.1-0.5,0.1-0.7
	c0-0.2,0.1-0.5,0.1-0.7c0-0.2,0.1-0.5,0.1-0.7c0-0.3,0.1-0.7,0.1-1c0-0.3,0.1-0.6,0.2-1c0-0.2,0-0.4,0.1-0.5v-0.9
	c0-0.1,0.1-0.2,0.1-0.3c0.4-0.3,0.9-0.6,1.2-0.8c0.4-0.3,0.8-0.6,1.2-0.9c0.6-0.5,1.1-1,1.7-1.5c0.5-0.5,1-1.1,1.4-1.8
	c0.1-0.1,0.2-0.3,0.3-0.4c0.1-0.1,0.2-0.3,0.3-0.5l-0.7-0.4c-0.2-0.1-0.5-0.2-0.9-0.1c-0.1,0-0.4,0.2-0.7,0.4
	c-0.3,0.3-0.6,0.7-0.9,1c-0.5,0.4-1,0.8-1.6,1.2c-0.2,0.2-0.5,0.4-0.7,0.5c-0.2,0.1-0.5,0.3-0.7,0.5V241.7z M180.9,240.9
	c0,0,0,0.1,0.1,0.1c0.8,1.4,2,2.5,3.4,3.2c0.2,0.1,0.5,0.2,0.7,0.3c0.2,0.1,0.5,0.2,0.7,0.3c0.3,0.1,0.7,0.2,1,0.3
	c0.3,0.1,0.7,0.2,1,0.3c0.2,0.1,0.6,0.2,1.1,0.3c0.2,0,0.3,0,0.4,0.1c0.1,0,0.1,0,0.1,0.1c-0.1,0.3-0.1,0.6-0.1,0.8
	c0,0.3,0,0.5,0,0.8c0,0.1,0,0.2,0,0.4c0,0.1,0,0.3,0,0.4c-0.1,0.2-0.1,0.5-0.1,0.8c0,0.3,0,0.5-0.1,0.8c-0.1,0.4-0.2,0.8-0.2,1.2
	c0,0.4-0.1,0.8-0.2,1.2c-0.2,1-0.6,1.9-0.9,2.7c-0.4,0.8-0.9,1.6-1.5,2.4c-0.7,0.9-1.5,1.5-2.4,1.8c-0.5,0.1-0.9,0.2-1.2,0.1
	c-0.5-0.1-1-0.4-1.4-0.9c-0.3-0.4-0.6-0.9-0.9-1.5c-0.1-0.3-0.3-0.6-0.3-0.9c-0.1-0.3-0.2-0.6-0.3-0.9c-0.1-0.2-0.1-0.4-0.1-0.5
	c0-0.1,0-0.3,0-0.5c-0.1-0.4-0.1-0.9-0.1-1.3c0-0.4-0.1-0.8-0.1-1.3c0-0.9,0-1.8,0-2.7c0-0.4,0-0.8,0-1.2c0-0.4,0.1-0.8,0.1-1.2
	l0.2-1.8c0-0.2,0.1-0.5,0.1-0.8c0-0.3,0.1-0.5,0.2-0.8c0-0.2,0.1-0.5,0.1-0.7c0-0.2,0.1-0.5,0.2-0.7c0.1-0.4,0.2-0.7,0.3-0.9
	l0.1-0.1C180.8,240.8,180.9,240.9,180.9,240.9z M189.1,242.7c-0.5,0.1-1.2,0-1.9-0.1c-0.6-0.2-1.2-0.4-1.7-0.7
	c-0.5-0.3-1-0.7-1.4-1.2c-0.5-0.6-0.9-1.2-1.1-2c-0.1-0.2-0.2-0.5-0.2-0.7c0-0.2-0.1-0.4-0.1-0.7c0-0.2,0-0.4,0.1-0.6
	c0.1-0.4,0.2-0.7,0.3-1c0.1-0.3,0.4-0.6,0.8-0.8c0.6-0.4,1.4-0.4,2.3-0.1c0.8,0.4,1.4,1,1.8,1.8c0.1,0.3,0.3,0.6,0.4,0.9
	c0.1,0.3,0.2,0.6,0.3,0.9l0.2,1.3c0.1,0.2,0.1,0.5,0.1,0.6c0,0.2,0,0.4,0,0.5c0.1,0.2,0.2,0.5,0.2,0.8c0,0.3,0.1,0.5,0.1,0.8v0.2
	H189.1z M233.9,215.1c-0.1,0.1-0.2,0.3-0.3,0.4c-0.5,0.7-1,1.5-1.3,2.3c-0.3,0.8-0.6,1.6-0.7,2.4c-0.3,1.7-0.4,3.5-0.2,5.2
	c0,0.4,0.1,0.9,0.1,1.3c0,0.4,0.1,0.8,0.2,1.3c0.1,0.7,0.2,1.5,0.3,2.2c0.1,0.7,0.2,1.5,0.3,2.3c0.1,0.4,0.2,0.9,0.2,1.3
	c0,0.4,0.1,0.9,0.2,1.4c0.1,0.7,0.2,1.4,0.3,2.2c0.1,0.7,0.2,1.4,0.3,2.2c0.1,1,0.2,1.9,0.2,2.9c0.1,1,0.1,1.9,0.1,2.9
	c0,1,0.1,2,0,3c0,1-0.1,2-0.2,3c-0.1,0.8-0.2,1.5-0.4,2.3c-0.1,0.8-0.3,1.5-0.6,2.3c-0.2,0.6-0.5,1.2-0.8,1.7
	c-0.3,0.6-0.7,1.1-1.1,1.5c-0.9,1.1-2,1.7-3.4,1.8c-1,0.1-2,0.1-3-0.2c-1.5-0.3-2.8-1.1-4-2.3c-1.6-1.6-2.4-3.3-2.6-5.3
	c-0.2-2,0.4-3.6,1.8-4.7c0.3-0.3,0.3-0.6,0.1-0.8c-0.2-0.3-0.4-0.5-0.6-0.5c-0.6-0.3-1.3-0.3-2-0.1c-1.7,0.6-2.7,1.8-3.1,3.6
	c-0.2,0.7-0.3,1.4-0.2,2.1c0.1,0.7,0.2,1.4,0.5,2.1c0.3,1,0.7,1.9,1.2,2.8c0.5,0.9,1.1,1.7,1.8,2.5c2.8,3.2,6.2,5,10.2,5.5
	c0.9,0.1,1.8,0.1,2.7,0.1c0.9-0.1,1.8-0.2,2.7-0.5c1.6-0.5,3-1.4,4-2.6c0.7-0.9,1.3-1.8,1.8-2.8c0.5-1,0.8-2,1.1-3.1
	c0.1-0.4,0.2-0.7,0.3-1.1c0.1-0.3,0.2-0.7,0.3-1.1c0.1-0.5,0.2-1,0.2-1.5c0.1-0.5,0.1-1,0.1-1.5c0.1-0.5,0.1-1,0.1-1.4
	c0-0.4,0-0.9,0-1.4c0-0.7,0-1.4,0-2s0-1.4-0.1-2c0-0.6,0-1.2-0.1-1.8c-0.1-0.6-0.1-1.2-0.1-1.8c-0.1-0.8-0.2-1.6-0.2-2.4
	c0-0.8-0.1-1.5-0.2-2.3c-0.1-0.6-0.2-1.1-0.2-1.7c-0.1-0.6-0.1-1.1-0.2-1.7c-0.1-0.2-0.1-0.5-0.1-0.7c0-0.2,0-0.4,0-0.7l-0.4-3.7
	c-0.1-1.1-0.2-2.2-0.2-3.4c0-1.1,0-2.3,0-3.4c0.1-1.5,0.3-2.8,0.7-4c0.1-0.4,0.3-0.8,0.5-1.2c0.2-0.4,0.5-0.7,0.9-1
	c0.2-0.2,0.4-0.2,0.7-0.1c0.5,0.2,1.1,0.4,1.6,0.5c0.6,0.2,1.1,0.3,1.6,0.5c0.7,0.2,1.4,0.4,2.1,0.5c0.7,0.1,1.4,0.3,2.1,0.4
	c0.5,0.1,1,0.2,1.5,0.3c0.5,0.1,1,0.2,1.5,0.3c0.7,0.1,1.5,0.2,2.2,0.2c0.7,0,1.5,0,2.3,0c1.5-0.1,2.8-0.4,4.1-0.9
	c1.6-0.8,2.6-2,3-3.8c0.2-0.8,0.2-1.5,0-2.2c-0.2-0.7-0.4-1.4-0.8-2.1c-0.1-0.1-0.2-0.2-0.2-0.3c0,0.1-0.1,0.2-0.1,0.2
	c-0.8,1.8-2.1,3-3.9,3.6c-0.2,0.1-0.5,0.2-0.7,0.2c-0.2,0-0.4,0.1-0.7,0.1c-0.3,0.1-0.6,0.2-0.8,0.2c-0.3,0-0.5,0-0.8,0
	c-0.5,0-1,0-1.5-0.1c-0.5-0.1-1-0.1-1.5-0.1l-2.8-0.4c-0.6-0.1-1.2-0.2-1.7-0.4c-0.6-0.1-1.1-0.3-1.7-0.4c-0.4-0.1-0.7-0.2-1.1-0.3
	c-0.3-0.1-0.7-0.2-1.1-0.3l-3.1-0.7c-0.6-0.1-1.3-0.3-1.9-0.4c-0.6-0.1-1.3-0.2-1.9-0.3c-0.6-0.1-1.3-0.3-1.9-0.4
	c-0.6-0.1-1.2-0.2-1.9-0.3l-3.5-0.4c-0.7-0.1-1.4-0.2-2.2-0.3c-0.7-0.1-1.4-0.1-2.2-0.2c-0.8,0-1.5,0-2.3,0c-0.7,0-1.5,0-2.3,0.1
	c-1.6,0-3.3,0.3-5,0.7c-0.6,0.1-1.3,0.3-1.9,0.5c-0.6,0.2-1.2,0.4-1.7,0.7c-2.4,1.3-4.5,3-6.3,5.2c-0.4,0.5-0.7,1.1-1.1,1.6
	c-0.3,0.5-0.6,1.1-0.9,1.7c-0.2,0.5-0.5,1.1-0.7,1.6c-0.2,0.5-0.4,1-0.5,1.6c-0.1,0.3-0.2,0.6-0.2,0.9c-0.1,0.3-0.1,0.6-0.1,0.9
	c-0.1,0.5-0.2,1-0.2,1.5c0,0.5-0.1,1-0.1,1.5c0,0.5,0,1,0,1.4c0,0.5,0.1,0.9,0.1,1.4c0.1,0.2,0.1,0.4,0.1,0.5c0,0.1,0,0.3,0.1,0.5
	c0.1,0.4,0.2,0.8,0.3,1.2c0.1,0.4,0.3,0.8,0.4,1.2c0.4,1,0.9,1.9,1.5,2.7c0.6,0.9,1.3,1.6,2.1,2.3c0.5,0.4,1,0.7,1.5,1.1
	c0.5,0.3,1,0.6,1.5,0.8c0.3,0.1,0.7,0.2,1,0.3c0.3,0.1,0.6,0.2,1,0.3c0.4,0.1,0.8,0.2,1.2,0.3s0.8,0,1.2,0c0.7-0.1,1.2-0.3,1.7-0.5
	c1.1-0.7,1.8-1.6,2.3-2.7c0.3-0.7,0.2-1.4-0.3-1.9c-0.1-0.1-0.3-0.3-0.5-0.4c-0.2-0.1-0.4-0.2-0.5-0.3c-0.2-0.1-0.5-0.2-0.7-0.2
	c-0.7-0.1-1.2,0-1.7,0.5c-0.6,0.6-1.3,1-2.1,1.3c-0.4,0.1-0.8,0.1-1.1-0.1c-0.6-0.5-1-1-1.2-1.5c-0.2-0.4-0.5-0.9-0.7-1.3
	c-0.2-0.4-0.3-0.9-0.4-1.4c-0.1-0.4-0.2-0.7-0.3-1.1s-0.1-0.7-0.1-1.1c-0.1-0.4-0.1-0.9-0.1-1.3c0-0.4,0-0.9,0-1.3
	c0.1-0.8,0.2-1.6,0.4-2.5c0.1-0.5,0.2-0.9,0.3-1.4c0.1-0.4,0.3-0.9,0.5-1.3c0.9-2,2.1-3.7,3.8-5.1c1.5-1.4,3.2-2.3,5-2.7
	c1.2-0.3,2.4-0.5,3.8-0.7c0.9-0.1,1.8-0.2,2.7-0.2c0.7,0.1,1.3,0.1,2,0.1c0.7,0.1,1.3,0.1,2,0.3c0.7,0.1,1.4,0.2,2,0.4
	c0.7,0.2,1.4,0.4,2,0.6c0.2,0.1,0.5,0.2,1,0.4C234.2,214.7,234.1,214.9,233.9,215.1z M244.3,218.5c0,0.1,0,0.2,0.1,0.3
	c0,0.5,0,1,0,1.5c0,0.5,0,1,0,1.5c0,0.8,0,1.5,0,2.3c0,0.7,0,1.5-0.1,2.3v2.2c-0.1,0.8-0.1,1.6-0.1,2.4c0,0.8,0,1.5-0.1,2.3
	c0,0.5,0,1,0,1.4s0,0.9-0.1,1.4c0,0.6,0,1.3,0,1.9c0,0.6-0.1,1.3-0.1,1.9v4.1c0,0.5,0,1,0,1.5c0,0.5,0,1-0.1,1.5c0,0.7,0,1.5,0,2.2
	c0,0.8-0.1,1.5-0.1,2.2c0,0.9,0,1.8,0,2.7s-0.1,1.8-0.2,2.7c-0.1,0.7-0.2,1.5-0.2,2.2c0,0.7-0.1,1.5-0.1,2.3v0.3
	c0.3,0.1,0.6,0.2,1,0.3c1.1,0.3,2.2,0.3,3.2,0c1-0.3,1.8-1.1,2.3-2.2c0.3-0.7,0.5-1.5,0.5-2.3v-0.9l0.2-3.5c0-0.5,0.1-1.1,0.1-1.6
	c0-0.5,0-1,0.1-1.6c0-0.7,0.1-1.4,0.1-2.2c0-0.7,0.1-1.4,0.2-2.1c0.1-0.4,0.1-0.8,0.1-1.1c0-0.3,0.1-0.7,0.1-1.1
	c0.1-0.5,0.3-1,0.6-1.7c0.2-0.6,0.5-1.2,0.8-1.8c0.3-0.6,0.7-1.1,1.1-1.6c0.7-0.9,1.5-1.8,2.6-2.6c0.1-0.1,0.3-0.2,0.5-0.3
	c0.2-0.1,0.4-0.2,0.5-0.3c0.4-0.2,0.8-0.3,1.2-0.2c0.4,0.1,0.7,0.4,1,0.7c0.1,0.2,0.3,0.4,0.4,0.6c0.1,0.2,0.2,0.4,0.3,0.7
	c0.2,0.6,0.3,1.2,0.4,1.8c0.1,0.3,0.2,0.7,0.2,0.9c0,0.3,0.1,0.6,0.2,0.9c0,0.2,0,0.5,0,0.8c0,0.3,0,0.5,0,0.8l0.2,4.1
	c0,1.1,0,2.1,0,3.2c0,1,0,2.1,0.1,3.2c0,0.3,0.1,0.7,0.1,1c0,0.3,0,0.6,0.1,1c0.1,0.5,0.2,1.1,0.3,1.6c0.1,0.5,0.2,1,0.3,1.6
	c0.1,0.7,0.4,1.4,0.7,2c0.9,1.5,2.1,2.2,3.8,2.1c0.2,0,0.5,0,0.7,0c0.2,0,0.5-0.1,0.7-0.1c1-0.1,1.8-0.6,2.5-1.4
	c0.8-0.9,1.5-1.9,2-3.1c0.3-0.7,0.6-1.4,0.9-2c0.3-0.7,0.6-1.4,0.9-2l1.3-3.3c0.2-0.7,0.5-1.3,0.7-1.9c0.2-0.6,0.5-1.3,0.7-1.9
	c0.2-0.5,0.4-1,0.5-1.5c0.1-0.5,0.3-1,0.5-1.5c0.1-0.5,0.1-1.1,0-1.7c-0.1-0.3-0.2-0.5-0.4-0.7c-0.3-0.2-0.7-0.2-1.1-0.1
	c-0.4,0.1-0.6,0.4-0.8,0.7c-0.1,0.2-0.2,0.4-0.3,0.5c-0.1,0.2-0.2,0.4-0.3,0.5c-0.2,0.6-0.5,1.2-0.6,1.8c-0.2,0.6-0.4,1.2-0.6,1.8
	c-0.2,0.7-0.5,1.4-0.8,2.1s-0.5,1.4-0.8,2.2c-0.4,1-0.8,2-1.2,3c-0.4,1-0.8,2-1.3,3c-0.1,0.2-0.2,0.4-0.3,0.5
	c-0.1,0.2-0.2,0.4-0.4,0.5c-0.1,0.1-0.2,0.3-0.4,0.6c-0.4,0.4-0.7,0.3-0.9-0.2c-0.1-0.1-0.1-0.2-0.1-0.4c0-0.4-0.1-0.8-0.1-1.1
	c0-0.3-0.1-0.7-0.1-1.1c0-0.8,0-1.5,0-2.3c0-0.7,0.1-1.5,0.1-2.3v-0.1c0-0.5,0-1,0-1.5c0-0.5,0.1-1,0.1-1.5c0-0.2,0-0.5,0-0.8
	c0-0.3,0-0.5,0-0.8c0-0.3,0-0.6,0-0.9c0-0.3,0-0.6,0-0.8c0-0.4,0-0.8,0-1.1c0-0.3,0-0.7,0-1c0-1.1-0.1-2.2-0.4-3.2
	c-0.1-0.5-0.3-1-0.5-1.5c-0.2-0.5-0.4-1-0.7-1.5c-1.2-2.1-2.9-3.4-5.3-3.9c-1.3-0.1-2.4-0.1-3.5,0.1c-0.9,0.2-1.6,0.6-2.3,1.1
	c-0.8,0.5-1.5,1.2-2.1,1.9c-0.6,0.7-1.1,1.5-1.5,2.4c-0.1,0.1-0.2,0.2-0.2,0.4c-0.1,0.1-0.1,0.3-0.2,0.4c-0.1-0.1-0.1-0.3-0.1-0.5
	c0-0.5,0-1,0-1.4c0-0.5,0-0.9,0-1.3c0.1-0.8,0.1-1.5,0.1-2.3c0-0.7,0-1.5,0.1-2.2c0-0.8,0-1.6,0-2.4c0-0.8,0.1-1.5,0.1-2.3v-3.1
	c0-0.4,0-0.8-0.1-1.1c-0.1-0.4-0.2-0.7-0.4-1.1c-0.4-0.8-0.9-1.3-1.5-1.7c-0.3-0.2-0.7-0.4-1-0.5c-0.3-0.1-0.7-0.2-1.1-0.3
	c-0.5-0.1-1-0.1-1.5,0c-0.5,0.1-1,0.2-1.5,0.3C244.3,218.3,244.3,218.4,244.3,218.5z M272.4,248.7c0.1,0.6,0.1,1.2,0.2,1.7
	c0.1,0.7,0.2,1.4,0.4,2.1c0.1,0.4,0.2,0.8,0.3,1.2s0.3,0.8,0.4,1.2c0.2,0.4,0.4,0.9,0.5,1.3c0.2,0.4,0.4,0.9,0.6,1.2
	c0.4,0.5,0.8,1.1,1.2,1.6c0.4,0.5,0.9,1,1.4,1.4c0.8,0.7,1.7,1.1,2.8,1.4c0.3,0,0.6,0.1,0.9,0.1c0.3,0,0.6,0,1,0h0.4
	c0.4,0,0.7,0,1.1,0c0.3,0,0.7,0,1.1-0.1c0.2-0.1,0.5-0.1,0.8-0.1c0.3,0,0.5-0.1,0.8-0.2c0.2-0.1,0.5-0.2,0.7-0.3
	c0.2-0.1,0.5-0.3,0.7-0.4c0.5-0.3,1-0.6,1.4-1c0.4-0.4,0.8-0.8,1.2-1.2c0.4-0.4,0.8-0.9,1.2-1.4c0.3-0.5,0.7-0.9,1-1.4
	c0.4-0.6,0.8-1.3,1.1-1.9c0.3-0.6,0.7-1.3,1-1.9c0.2-0.6,0.5-1.2,0.7-1.8c0.2-0.6,0.5-1.2,0.7-1.8c0.4-0.9,0.7-1.8,0.9-2.7
	c0.1-0.5,0.3-1,0.4-1.5s0.3-1,0.4-1.5c0.1-0.4,0.1-0.7,0.1-1c-0.1-0.4-0.2-0.7-0.4-0.9c-0.2-0.3-0.6-0.4-1.1-0.4
	c-0.4,0-0.7,0.2-0.9,0.5c-0.3,0.6-0.5,1.2-0.7,1.6c-0.2,0.5-0.4,1-0.5,1.5s-0.3,1-0.5,1.5c-0.2,0.6-0.4,1.2-0.5,1.7
	c-0.2,0.6-0.4,1.1-0.6,1.6c-0.2,0.4-0.4,0.8-0.5,1.1c-0.1,0.4-0.3,0.7-0.5,1.1c-0.2,0.5-0.5,1-0.8,1.5c-0.3,0.5-0.6,1-0.9,1.5
	c-0.6,1.1-1.3,1.9-2,2.6c-0.2,0.2-0.4,0.4-0.5,0.6c-0.2,0.2-0.4,0.4-0.5,0.5c-0.3,0.2-0.7,0.5-1,0.7c-0.3,0.2-0.7,0.3-1.1,0.4
	c-0.6,0.2-1.1,0.3-1.6,0.1c-0.6-0.2-1-0.6-1.2-0.9c-0.2-0.3-0.4-0.7-0.5-1.1c-0.1-0.4-0.2-0.7-0.3-1.1c-0.1-0.3-0.2-0.7-0.2-1.1
	l-0.2-1.5c-0.1-0.2-0.1-0.4-0.1-0.6c0-0.2,0-0.4,0-0.7v-2.3c0,0,0.1-0.1,0.1-0.2c1-0.4,1.8-0.8,2.5-1.2c0.4-0.2,0.9-0.5,1.3-0.7
	c0.4-0.2,0.8-0.5,1.3-0.7c0.6-0.4,1.1-0.8,1.7-1.2c0.5-0.4,1-1,1.4-1.5c0.9-1.2,1.4-2.5,1.5-3.9c0-0.4,0-0.9,0-1.3
	c0-0.4-0.1-0.9-0.2-1.3c-0.1-0.7-0.4-1.2-0.7-1.7c-0.7-1.2-1.7-2.2-3-3c-0.4-0.2-0.8-0.4-1.1-0.5c-0.3-0.1-0.7-0.2-1.1-0.3
	c-0.4-0.1-0.9-0.1-1.3,0c-0.4,0-0.9,0.1-1.2,0.2c-0.3,0.1-0.7,0.2-1,0.3c-0.3,0.1-0.6,0.2-1,0.3c-0.2,0.1-0.5,0.2-0.8,0.4
	c-0.3,0.1-0.5,0.3-0.8,0.4c-1.2,0.7-2.2,1.7-2.9,2.8c-0.5,0.7-1,1.4-1.3,2.1c-0.3,0.7-0.6,1.5-0.9,2.3c-0.2,0.5-0.4,1.2-0.5,1.9
	c-0.1,0.4-0.2,0.8-0.2,1.1c0,0.3-0.1,0.7-0.1,1.1c0,0.3-0.1,0.7-0.1,1c0,0.3,0,0.6,0,1C272.4,247.5,272.4,248.1,272.4,248.7z
	 M281.1,245.8c0-0.2,0.1-0.4,0.1-0.6c0-0.4,0.1-0.9,0.2-1.2c0.1-0.8,0.3-1.5,0.5-2c0.1-0.3,0.2-0.6,0.3-0.8c0.1-0.3,0.2-0.5,0.3-0.8
	c0.2-0.4,0.4-0.9,0.7-1.2s0.5-0.8,0.7-1.2c0.1-0.1,0.2-0.2,0.3-0.4c0.1-0.1,0.2-0.3,0.4-0.4c0.6-0.5,1.2-0.7,1.7-0.7
	c0.4,0,0.8,0.2,1,0.7c0.2,0.3,0.3,0.7,0.4,1c0,0.2,0,0.4,0.1,0.5c0,0.2,0,0.6-0.1,1.1c-0.1,0.3-0.2,0.6-0.3,0.8
	c-0.1,0.3-0.2,0.5-0.4,0.8c-0.4,0.8-1,1.6-1.8,2.3s-1.6,1.4-2.5,1.9c-0.2,0.1-0.5,0.2-0.7,0.3c-0.2,0.1-0.5,0.2-0.7,0.3
	c-0.1,0-0.1,0-0.1,0c0,0-0.1,0-0.2,0C281.1,246.2,281.1,246,281.1,245.8z"/>
<path fill="#6F91BD" d="M98.2,344.8c9.2,7.2,11.1,16,10.7,25.2c-0.2,5.2-0.2,10.7-1.5,15.8c-3.4,15.7-18,21.8-35.3,23.4
	c-6.3,0.5-10.3-1.8-12-7c-1.7-5.2-2.7-10.5-3.2-15.8c-0.6-6.7-0.4-13.5-0.4-20.2c-0.2-18.7-0.2-37.2-0.2-55.8
	c0.2-4.8,1-9.5,1.7-14.3c0.2-1.7,1-3.3,1.9-4.8c3.8-7.3,11.3-10.3,21.2-8.7c16.2,2.8,25,11.5,30,23.3c2.9,6.8,2.3,13.8-0.4,20.7
	C108.3,332.8,104.3,338.8,98.2,344.8z M71.4,394.8c14.3-2,18.7-5.5,19.5-15.5c0.6-5.3,0.2-10.7,0-16c-0.2-2.7-0.8-5.3-4.6-7.2
	L76,355.6C74.3,368.8,72.8,381.5,71.4,394.8z M78.1,338.5c4.2-1.7,7.3-3.8,9-6.8c4.6-8.7,4.6-17.3-0.2-26c-0.6-1-2.3-1.7-3.8-2.7
	c-4.6,3-6.5,6.7-6.3,11c0,7.3,0.2,14.8,0.2,22.3L78.1,338.5z M148.2,329.1c2.5-0.2,4.8-0.5,7.1-0.5c1.9-0.2,4-0.2,5.9,0.3
	c5,1.2,7.6,5.5,5,9c-1.9,2.8-4.6,5.5-9.2,6.3c-3.1,0.3-6.1,1-8.4,3.2c0.2,13.5,0.2,27,0.2,41c1.3,0,2.7,0.3,4.4,0.3
	c2.7,0.2,5.2-0.2,7.8,0.2c3.6,0.5,6.1,2.2,7.1,5c1.1,2.8-0.2,5-2.9,6.5c-2.7,1.3-5.5,2.8-8.4,3.2c-6.3,0.8-12.4,2-17.4,5
	c-1,0.7-2.5,1-4,1.2c-6.7,1-11.5-3-10.1-8.3c0.4-1.3,1.3-2.5,1.9-3.5c0-0.7,0.2-1.2,0-1.7c-2.7-7.2-3.6-14.5-3-21.8
	c1.5-23,0.2-46-0.7-69.2c0-3.7,0-7.3,0.2-11c0.2-5.3,3.6-8.8,10.1-10.3c2.7-0.5,5.7-1,8.2-1.7c6.9-2,13.2-0.7,19.3,2.2
	c2.9,1.3,4.6,3.2,4.6,5.7c0.2,2.5-1.5,4.5-4.2,5.3c-2.3,0.8-4.8,1.2-7.3,1.7c-2.5,0.3-5,0.5-8.2,0.8c-0.8,5.3,0.2,10.5,0.4,15.8
	C147.1,318.8,145.9,323.8,148.2,329.1z M214.5,370.2c-6.5-0.2-12-0.5-18.1-0.2c-0.6,2.3-1.3,4.3-1.9,6.5l-6.9,28
	c-0.8,2.5-1,5.5-5.5,6.7c-0.8-0.5-1.9-1-3.4-1.7c-0.9-9.2-1.7-18.3-1.7-27.5c-0.2-9.5,1.3-18.7,2.9-28c2.1-10.8,3.4-22,3.8-33.2
	c0.4-8.8,1.7-17.7,5.2-26c1.3-3.2,2.9-6.5,5.5-9.2c6.1-6.8,16.2-6.8,24.1-0.2c4.4,3.8,6.9,8.7,8.6,13.5c2.9,9.3,4.6,18.8,4.8,28.3
	c0.2,12.2,0.6,24.3,0.9,36.5c0,8.7,0,17.3-0.2,26c0,2.5-0.4,5-1,7.3c-0.8,3.3-3.8,5.5-7.3,5.5c-3.8,0-7.6-2.3-8.6-6.2
	c-0.8-3-1.1-6-1.1-9c-0.2-4.2,0.2-8.3,0.2-12.7C215,373.7,214.7,372.6,214.5,370.2z M214.5,355.4c-0.2-3.2-0.2-5.3-0.2-7.5
	c0-5.3-0.6-10.5-0.2-15.7c0.8-9.8-1.3-19.3-3.8-29c-0.4-1.5-1.5-2.7-2.7-4.8c-1,1.8-1.9,2.8-2.1,4c-1,4.8-2.3,9.5-2.9,14.5
	c-1.5,12.3-2.5,24.5-3.8,36.8c0,0.7,0.4,1.3,0.8,2.5C204.4,356.1,208.9,355.7,214.5,355.4z M282.1,340c-3.8-6-5.5-12.8-5.5-20
	c0-4,0.2-8.2,0-12.3c-0.2-2.2,0-4.3-2.9-6.5c-0.8,1.3-2.3,2.3-2.5,3.5c-1.7,6.7-3.6,13.3-4.2,20.2c-0.8,7-0.4,14,0,21
	c0.8,11.8,2.1,23.7,3,35.7c0.2,3.3-0.4,6.7-0.4,10.2c-0.2,1.7-0.4,3.3,3.2,4.5c1.1-0.7,2.5-1.3,3.1-2.3c1.9-3.3,3.8-6.8,5.2-10.3
	c2.1-4.8,4-9.7,6.1-14.5c0.6-1.2,1.9-2,3.1-3.3c1.3,1.2,2.3,1.8,2.7,2.7c1.5,4.7,2.5,9.5,0.9,14.3c-2.1,6.2-3.8,12.3-6.7,18.2
	c-3.1,6.2-10.1,9-18.5,8.8c-4.6-0.2-8.6-1.5-12-3.7c-5-3.2-8.6-7.2-10.3-11.7c-1.5-4-2.9-8.2-2.9-12.2c0-18.7,0-37.3,0.6-56
	c0.2-7.2,1.9-14.5,3.8-21.7c1-4.2,3.8-8.3,6.1-12.3c2.1-3.3,5.5-6,9.9-8.2c7.8-4,16-3.7,22,1.7c3.1,2.5,5.7,5.5,7.1,8.7
	c2.1,4.2,3.8,8.5,4.2,12.8c0.6,7.2,0.4,14.5,0.2,21.7c0,3.8-1.7,7.2-5.2,10.2C289.7,341,286.7,341.9,282.1,340z M367.1,282.5
	c1.3,0.2,2.9,0.3,4.6,0.7c6.7,1.7,9.2,4.3,9,9.7c0,3.5-0.4,7-0.4,10.5c-0.2,9.3-0.2,18.7-0.2,28.2c-0.2,6.3,0,12.7,0,19
	c0,8.8,0.6,17.8-0.2,26.7c-0.8,8.3-2.9,16.5-4.6,24.7c-0.2,1.2-1,2-1.7,3.3c-1.7-0.2-2.9-0.2-5-0.3c-7.6-17.2-10.1-34.5-13.5-52.2
	c-8-0.8-14.5,1.2-21.6,1.7c-1.9,4.7-2.3,9.7-2.5,14.5c-0.6,7.8-0.8,15.8-1.3,23.8c-0.2,1.3-0.2,2.8-0.2,4.2c0,5.5-3.4,9-8.8,11.7
	c-5.7-2.7-7.8-6.5-8.6-10.8c-1.7-7.7-1.5-15.2-1.7-22.7c0-8.5-0.4-16.8-0.6-25.3c-0.2-12.3-0.6-24.5-1.1-36.7l-0.6-19.8
	c0-3.2,0.6-6,4.8-8c2.9-0.5,6.7-1,10.5-1.5c7.3,0.8,10.7,4.8,11.5,10c1.1,7,1.9,14.2,2.1,21.2c0,6-1,12-1.5,18.2l0,6.5
	c6.3,0.3,11.1-1,16.6-1.7c0.2-5.3,0.2-10.5,0.6-15.5c0.8-8.8,1.7-17.7,2.7-26.5c0.4-2.7,1.5-5.3,2.9-7.8
	C359.8,285.2,362.3,283,367.1,282.5z M67.6,138.8c-2.8-0.7-3.4-2.4-3.6-4.3c-0.8-7.5-1.6-15-2.3-22.7c-0.3-1.8,0.2-3.6,0-5.4
	c-1.6-20-1-39.6-1.1-59.4c0-4.1,0-8.3-0.5-12.4c-2.8-1.1-5.1-0.5-7.4,0c-2.5,0.3-5.1,0.8-7.7,0.8c-4.1,0-6.9-2.1-7.9-5.4
	c-1.1-3.4,0.7-7,4.7-8.5c2.3-0.8,4.9-1.5,7.4-1.8c9.8-1.1,19.5-2.6,29.6-0.7c3.6,0.8,7.4,0.3,11,0.5c2.1,0.2,4.3,0.2,6.2,0.7
	c2.9,0.8,5.2,3.6,5.6,6.4c0.3,2.6-1.1,5.7-3.9,6.7c-2.1,0.8-4.6,1.3-6.9,1.3c-4.9,0.2-9.8,0-15.4,0v3.8c0,5.7,0.2,11.6,0.3,17.3
	c0.2,25.7-1.8,51.4-5.6,76.5C69.9,134.7,69.9,137.5,67.6,138.8z M127.6,102.3c-5.1-0.2-9.3-0.5-14.1-0.2c-0.5,2.3-1,4.3-1.5,6.4
	l-5.4,27.5c-0.7,2.5-0.8,5.4-4.3,6.5c-0.7-0.5-1.5-1-2.6-1.6c-0.7-9-1.3-18-1.3-27c-0.2-9.3,1-18.3,2.3-27.5
	c1.6-10.6,2.6-21.6,2.9-32.5c0.3-8.7,1.3-17.3,4.1-25.5c1-3.1,2.3-6.4,4.3-9c4.7-6.7,12.6-6.7,18.8-0.2c3.4,3.8,5.4,8.5,6.7,13.2
	c2.3,9.2,3.6,18.5,3.8,27.8c0.2,11.9,0.5,23.9,0.7,35.8c0,8.5,0,17-0.2,25.5c0,2.5-0.3,4.9-0.8,7.2c-0.7,3.3-2.9,5.4-5.7,5.4
	c-2.9,0-5.9-2.3-6.7-6.1c-0.7-2.9-0.8-5.9-0.8-8.8c-0.2-4.1,0.2-8.2,0.2-12.4C127.9,105.8,127.8,104.6,127.6,102.3z M127.6,87.8
	c-0.2-3.1-0.2-5.2-0.2-7.4c0-5.2-0.5-10.3-0.2-15.4c0.7-9.7-1-19-2.9-28.5c-0.3-1.5-1.1-2.6-2.1-4.7c-0.8,1.8-1.5,2.8-1.6,3.9
	c-0.8,4.7-1.8,9.3-2.3,14.2c-1.1,12.1-2,24-2.9,36.1c0,0.7,0.3,1.3,0.7,2.5C119.8,88.4,123.2,88.1,127.6,87.8z M184.9,64.1
	c5.2,3.9,7.7,9.2,9,14.7c2.9,13.4,6,26.8,5.7,40.9c-0.2,4.1-0.5,8.3-1.1,12.4c-0.3,3.3-1.8,6.1-4.1,8.5c-1.8,1.8-4.1,2.4-6.5,0.8
	c-1.8-3.4-3.6-7-6.2-11.9c-0.2-1.3-0.3-4.1-0.3-7l0.5-13.2c0.7-12.1-2.3-23.2-5.9-34.3c-0.3-1.3-1.5-2.5-2.1-3.6
	c-2.8,1.1-2.5,3.1-2.6,4.9c-1,8.8-1.8,17.7-2.6,26.7c-0.8,8.5-1.8,17.2-2.8,25.7c0,1.3-0.3,2.6-0.8,3.9c-0.8,2.5-3.1,4.1-5.4,3.9
	c-2.3-0.2-3.8-1.3-4.6-3.4c-0.3-0.7-0.7-1.5-0.7-2.3c-0.7-5.1-1.6-10.3-1.8-15.4c-0.8-20-1.3-39.7-2.1-59.5
	c-0.5-10.5,0.5-20.9,2.8-31.2c2.3-10.6,7.5-12.9,17.2-8.5c0.7,0.3,1.3,0.8,1.8,1.1c3.1,3.1,3.4,7,3.1,11c-0.3,3.9-1,7.8-1.3,11.8
	l-1.1,12.9c2-1.6,3.1-2.3,3.6-3.3c3.9-6.9,7.7-13.9,11.8-20.8c1.8-3.1,4.1-6.2,6.4-9.2c0.8-1,1-1,5.2-1.6c3.6,4.3,4.9,9.2,2.9,15
	c-3.3,9-7.8,17.3-13.4,25.2C188.1,59.8,186.8,61.6,184.9,64.1z M231,61.9c2-0.2,3.8-0.5,5.6-0.5c1.5-0.2,3.1-0.2,4.6,0.3
	c3.9,1.1,5.9,5.4,3.9,8.8c-1.5,2.8-3.6,5.4-7.2,6.2c-2.5,0.3-4.7,1-6.5,3.1c0.2,13.2,0.2,26.5,0.2,40.2c1,0,2.1,0.3,3.4,0.3
	c2.1,0.2,4.1-0.2,6.1,0.2c2.8,0.5,4.7,2.1,5.6,4.9c0.8,2.8-0.2,4.9-2.3,6.4c-2.1,1.3-4.3,2.8-6.5,3.1c-4.9,0.8-9.7,2-13.6,4.9
	c-0.8,0.7-2,1-3.1,1.1c-5.2,1-9-2.9-7.8-8.2c0.3-1.3,1-2.5,1.5-3.4c0-0.7,0.2-1.1,0-1.6c-2.1-7-2.8-14.2-2.3-21.4
	c1.1-22.6,0.2-45.1-0.5-67.9c0-3.6,0-7.2,0.2-10.8c0.2-5.2,2.8-8.7,7.8-10.1c2.1-0.5,4.4-1,6.4-1.6c5.4-2,10.3-0.7,15.1,2.1
	c2.3,1.3,3.6,3.1,3.6,5.6c0.2,2.5-1.1,4.4-3.3,5.2c-1.8,0.8-3.8,1.1-5.7,1.6c-2,0.3-3.9,0.5-6.4,0.8c-0.7,5.2,0.2,10.3,0.3,15.5
	C230.2,51.8,229.2,56.7,231,61.9z M332.1,81.7c-0.5,1.8-1.1,3.8-1.6,5.7l-3.9,18c-0.7,2.3-1.1,4.6-2.1,6.7c-2.6,5.2-9,4.9-12.3-0.3
	c-0.8-1.5-1.5-3.3-1.8-4.9c-1.1-6.1-2.1-11.9-3.1-18c-0.3-2.1,0-4.3-1.8-6.5c-0.5,1-0.8,1.5-1,2.1c-1.3,13.7-2.8,27.5-4.3,41.2
	c-0.3,3.1-1.1,6.2-2,9.2c-0.2,1-1.3,1.6-2.3,2.9c-1.3-1.3-2.8-2.3-2.9-3.4c-0.8-3.3-1.5-6.7-1.6-10c-0.7-8.8-1.1-17.5-1.8-26.2
	c-0.2-2.8-0.5-5.4-1-8c-3.3-15.5-2.6-30.9-1.8-46.3c0.3-4.1,0.5-8.2,1-12.3c0.3-2.3,0.8-4.7,1.6-6.9c1.3-3.4,3.9-5.2,8.3-3.8
	c2.5,2,5.1,4.3,8.2,7c3.3,6.2,5.2,13.4,7.2,20.4c1.8,6.9,3.4,13.7,5.2,20.6c2.1,0.2,2-1.3,2.3-2.3l13.2-40.2c1-2.8,2.6-5.4,4.1-8.2
	c1-1.8,2.6-3.1,5.2-3.3c3.9,0.7,5.7,3.3,6.2,7c0.3,2,0.3,3.9,0.3,5.9c-0.5,13.9-0.8,27.8-1.5,41.7c-0.2,5.1-1,10.1-1.5,15
	c-0.8,7.8-1.8,15.7-2.5,23.6c-0.5,6.5-0.8,12.9,0.2,19.6c0.2,1.8,0.3,3.8,0.2,5.7c-0.2,3.4-0.8,4.4-4.4,7.4c-2,0.2-3.6-0.7-4.4-2.3
	c-2.3-4.3-4.4-8.3-4.7-13.1c-0.8-11.5-0.5-22.7,0.8-34l1-9.8C332.6,81.9,332.4,81.7,332.1,81.7z M377.1,61.9c2-0.2,3.8-0.5,5.6-0.5
	c1.5-0.2,3.1-0.2,4.6,0.3c3.9,1.1,5.9,5.4,3.9,8.8c-1.5,2.8-3.6,5.4-7.2,6.2c-2.5,0.3-4.7,1-6.5,3.1c0.2,13.2,0.2,26.5,0.2,40.2
	c1,0,2.1,0.3,3.4,0.3c2.1,0.2,4.1-0.2,6.1,0.2c2.8,0.5,4.7,2.1,5.6,4.9c0.8,2.8-0.2,4.9-2.3,6.4c-2.1,1.3-4.3,2.8-6.5,3.1
	c-4.9,0.8-9.7,2-13.6,4.9c-0.8,0.7-2,1-3.1,1.1c-5.2,1-9-2.9-7.8-8.2c0.3-1.3,1-2.5,1.5-3.4c0-0.7,0.2-1.1,0-1.6
	c-2.1-7-2.8-14.2-2.3-21.4c1.1-22.6,0.2-45.1-0.5-67.9c0-3.6,0-7.2,0.2-10.8c0.2-5.2,2.8-8.7,7.8-10.1c2.1-0.5,4.4-1,6.4-1.6
	c5.4-2,10.3-0.7,15.1,2.1c2.3,1.3,3.6,3.1,3.6,5.6c0.2,2.5-1.1,4.4-3.3,5.2c-1.8,0.8-3.8,1.1-5.7,1.6c-2,0.3-3.9,0.5-6.4,0.8
	c-0.7,5.2,0.2,10.3,0.3,15.5C376.3,51.8,375.3,56.7,377.1,61.9z M330.1,178.7c-3.9-3.8-7.2-7.9-11.8-11.4c-4.1-3.2-8.9-6-14.1-8.4
	c-10.8-5.1-23.5-8.5-36.9-9.6c-12.9-1.1-26.1,0.7-36.1,5.9c-3.9,2.1-7,4.5-9.2,7.3c-2.3-2.7-5.3-5.2-9.2-7.3
	c-10-5.2-23.3-7-36.1-5.9c-13.5,1.1-26.1,4.5-36.9,9.6c-5.2,2.4-10,5.3-14.1,8.4c-4.6,3.5-7.9,7.6-11.8,11.4
	c-6.4-3.1-11.7-7.3-19.2-9.6c-0.8-0.2-1.6-0.5-2.4-0.7c0.1,0,0.4-2.5,0.3-2.8c-0.6-2.3-3.8-4-7.2-4.7c-6.4-1.4-12.7-1.5-19,0.3
	c-4.2,1.2-9.5,3.3-12.1,5.7c-2.7,2.6-3.5,5.7-4.4,8.7c-1.6,4.7,4.2,9.9,9.5,13.1c2.3,1.4,4.8,2.5,7.8,3.4
	c10.7,2.9,23.5,2.8,33.6-1.2c5.7-2.3,10-5.6,13.6-9.1c6.1,3.3,13.2,6.2,21.3,3.7c6.2-1.9,7.8-8.7,0.2-10.4c-3.1-0.7-6.3,0.4-8.1,2
	c-0.8,0.8-1.6,2.1-0.1,2.7c1.1,0.4,2.9,0.5,4,0c1.1-0.5,1.4-1.6,2.6-1.9c2.1-0.6,4.3,0.4,4.7,1.6c0.5,1.2-0.3,2.4-1.1,3.5
	c-1,1.2-2.6,1.6-4.7,1.7c-3.8,0.3-7.5-0.5-10.7-1.7c-1.6-0.6-3-1.3-4.5-2c-1-0.5-2.2-0.7-1.4-1.5c1.1-1.1,2.2-2.3,3.2-3.5
	c2.2-2.4,4.5-4.9,7.2-7.1c10.2-8.2,25.3-14.4,41.6-16.6c18.1-2.5,41.8,1.1,44.6,14.5c1.3,6-2.7,12.9-5.6,18.5
	c-2.8,5.7-12,7.1-20.6,7c-7.6-0.1-18.3-0.9-23-5.2c-4.9-4.5-5.2-11.9,1.6-15.7c3.2-1.8,9.7-3.7,13.5-1.5c2.2,1.3,2.3,3.1,3.3,4.7
	c3.8,6.3,20.7,5.4,17.3-2c-1-2.1-3.3-3.5-6.4-4.5c-7-2.3-16.3-2.8-23.7-1.1c-6.9,1.6-11.4,6.1-12.1,10.5c-0.8,5.2,3.1,10,10.2,12.7
	c7.4,2.9,16.5,4.1,25.2,4.2c7.7,0.1,16.4-0.6,22.5-3.8c2.6-1.4,4.8-2.9,6.5-4.6c1.7,1.7,3.8,3.2,6.5,4.6c6.1,3.2,14.8,3.9,22.5,3.8
	c8.6-0.1,17.8-1.3,25.2-4.2c7.1-2.7,11-7.5,10.2-12.7c-0.7-4.4-5.2-8.9-12.1-10.5c-7.4-1.7-16.7-1.2-23.7,1.1c-3,1-5.4,2.4-6.4,4.5
	c-3.4,7.4,13.5,8.4,17.3,2c1-1.6,1-3.4,3.3-4.7c3.8-2.2,10.3-0.4,13.5,1.5c6.7,3.8,6.5,11.2,1.6,15.7c-4.7,4.3-15.4,5-23,5.2
	c-8.6,0.2-17.7-1.3-20.6-7c-2.8-5.6-6.8-12.5-5.6-18.5c2.8-13.4,26.5-17,44.6-14.5c16.4,2.3,31.4,8.4,41.6,16.6
	c2.8,2.2,5,4.6,7.2,7.1c1.1,1.2,2.1,2.3,3.2,3.5c0.8,0.8-0.4,1-1.4,1.5c-1.5,0.7-2.9,1.4-4.5,2c-3.2,1.2-6.9,2-10.7,1.7
	c-2.1-0.1-3.7-0.5-4.7-1.7c-0.9-1-1.6-2.3-1.1-3.5c0.5-1.2,2.7-2.2,4.7-1.6c1.3,0.4,1.5,1.4,2.6,1.9c1,0.5,2.9,0.5,4,0
	c1.5-0.6,0.7-1.9-0.1-2.7c-1.8-1.6-5-2.7-8.1-2c-7.5,1.6-5.9,8.5,0.2,10.4c8.1,2.5,15.2-0.4,21.3-3.7c3.6,3.5,7.9,6.9,13.6,9.1
	c10.1,4,22.9,4.2,33.6,1.2c3-0.8,5.5-2,7.8-3.4c5.3-3.2,11-8.4,9.5-13.1c-1-2.9-1.7-6.1-4.4-8.7c-2.6-2.4-7.9-4.5-12.1-5.7
	c-6.3-1.8-12.6-1.7-19-0.3c-3.4,0.8-6.6,2.4-7.2,4.7c-0.1,0.3,0.2,2.8,0.3,2.8c-0.8,0.2-1.6,0.5-2.4,0.7
	C341.8,171.4,336.5,175.6,330.1,178.7z M106.1,185.1c-1.8,1.2-1.1,0.7-0.4,0.2c-7.2,4.7-19.4,7.3-28.9,4.1
	c-7.3-2.6-13.2-6.9-15.9-11.7c-3.1-5.6-2.5-11.6,6.7-14.6c4.7-1.5,9.6-1.5,14.6-0.7c4.1,0.7,8.2,2.5,6.8,5.4
	c-6.4-1.3-25.5,0.3-21.3,6.7c4.1,6.2,17.4,0.5,21.5-2.9c0.4-0.3,0.7-0.9,1.3-1.2c0.8-0.3,2-0.1,2.9,0c2.3,0.4,4.3,1.3,6.2,2.1
	c3.8,1.7,6.3,4.4,9.8,6.4c0.8,0.5,1.6,0.9,2.5,1.3c-1.7,1.6-3.5,3.1-5.6,4.5C106.6,184.6,106.7,184.6,106.1,185.1z M87.9,169.5
	c-2,2.1-14.2,9.2-17.2,4.6c-3-4.7,12-5.1,16.3-4.8C87.2,169.3,87.6,169.4,87.9,169.5z M353.3,170.4c0.5,0.2,0.9,0.8,1.3,1.2
	c4,3.3,17.4,9.1,21.5,2.9c4.2-6.5-14.9-8.1-21.3-6.7c-1.3-2.9,2.7-4.7,6.8-5.4c5-0.8,9.9-0.9,14.6,0.7c9.2,3,9.8,9,6.7,14.6
	c-2.7,4.9-8.6,9.2-15.9,11.7c-9.4,3.3-21.7,0.6-28.9-4.1c0.8,0.5,1.5,1-0.4-0.2c-0.7-0.4-0.6-0.4-0.3-0.2c-2-1.4-3.9-2.9-5.6-4.5
	c0.9-0.4,1.7-0.9,2.5-1.3c3.4-2,6-4.7,9.8-6.4c1.9-0.9,3.9-1.8,6.2-2.1C351.3,170.3,352.5,170.1,353.3,170.4z M355.9,169.5
	c0.3-0.1,0.6-0.2,0.9-0.2c4.3-0.3,19.3,0.1,16.3,4.8C370.1,178.7,357.9,171.6,355.9,169.5z"/>
</svg>
