<?xml version="1.0" encoding="utf-8"?>
<!-- Generator: Adobe Illustrator 18.0.0, SVG Export Plug-In . SVG Version: 6.00 Build 0)  -->
<!DOCTYPE svg PUBLIC "-//W3C//DTD SVG 1.1//EN" "http://www.w3.org/Graphics/SVG/1.1/DTD/svg11.dtd">
<svg version="1.1" id="Layer_1" xmlns="http://www.w3.org/2000/svg" xmlns:xlink="http://www.w3.org/1999/xlink" x="0px" y="0px"
	 viewBox="0 0 432 432" enable-background="new 0 0 432 432" xml:space="preserve">
<path fill="#6F91BD" d="M212.8,115.3c-0.2-0.2-0.1-0.5,0.1-0.7c0.1-0.1,0.3-0.2,0.5-0.3c1.5-0.7,3.1-1,4.8-1.2
	c4.3-0.4,8.3,0.2,12.3,1.3c3.9,1.1,7.3,2.7,10.5,4.7c3.1,2,6.2,3.9,9.4,5.9c2,1.2,4,2.3,6.2,3.3c2.9,1.2,6,2.1,9.4,2.1
	c3.9,0,7.2-1.1,10-3.1c1.5-1.1,2.3-2.6,2.5-4.1c0.3-1.9-0.1-3.7-1.1-5.5c-2.1-3.8-7.3-4.8-10.9-4.2c-1.6,0.2-3.1,0.8-4.1,1.8
	c-0.6,0.5-0.9,1.2-0.9,1.9c0,0.9,0.3,1.7,0.8,2.4c0.3,0.5,0.7,1,1.1,1.5c0.2,0.3,0.4,0.6,0.6,0.9c0.9,1.6,0.4,3-1.4,4.1
	c-1.3,0.8-2.9,1.1-4.6,1c-1.6-0.1-3.1-0.4-4.4-1.1c-3.4-1.7-4.9-4.2-4.9-7.2c0-3,1.6-5.5,4.4-7.5c1.5-1.1,3.2-2,5.1-2.6
	c1.9-0.6,3.8-0.8,5.8-0.6c0.1,0,0.3,0,0.4,0c0.1-0.3,0.1-0.6,0.2-0.8c0.2-0.9,0.9-1.6,2-2c0.6-0.2,1.2-0.4,1.9-0.5
	c3-0.4,5.7,0,8.4,1.1c1,0.4,1.9,1,2.7,1.5c0.2,0.1,0.4,0.3,0.6,0.4c0.1-0.1,0.2-0.2,0.3-0.3c0.7-0.8,1.7-1.2,3-0.9
	c0.7,0.1,1.2,0.4,1.8,0.7c1.7,1,2.9,2.2,3.8,3.7c2.7,4.6,3.1,9.4,0.8,14.1c-2.8,5.8-8.1,9.9-15.7,12.4c-3.1,1-6.4,1.4-9.8,1.1
	c-2.7-0.3-5.2-1-7.6-2c-3.7-1.6-6.8-3.7-9.5-6.1c-2.5-2.2-5-4.5-7.4-6.7c-2-1.8-4.1-3.5-6.4-5c-2.1-1.4-4.4-2.5-7-3.2
	c-2.3-0.6-4.6-0.7-7-0.6c-1.8,0.1-3.7,0.3-5.4,0.8c-0.1,0-0.2,0.1-0.3,0.1C213.3,115.7,213,115.6,212.8,115.3z M300.7,134.5
	c-0.9-0.1-1.9-0.1-2.8,0.1c-1,0.2-2,0.4-3,0.7c-1.8,0.5-3.6,1.1-5.4,1.7c-4.1,1.3-8.3,2.5-12.7,3.3c-2.6,0.4-5.2,0.8-7.9,0.9
	c-4,0-7.8-0.5-11.6-1.4c-2.3-0.6-4.5-1.4-6.5-2.4c-2.3-1.2-4.1-2.7-5.6-4.4c-0.1-0.1-0.2-0.3-0.4-0.4c-0.6-0.4-1.4-0.1-1.5,0.4
	c0,0.2,0,0.3,0.1,0.5c0.2,0.4,0.4,0.9,0.7,1.3c1.7,2.1,3.9,3.9,6.4,5.5c1.3,0.6,2.6,1.3,3.9,1.9c4.1,1.7,8.5,2.9,13.1,3.8
	c5.8,1.1,11.7,1.4,17.6,0.7c3.7-0.5,7.2-1.3,10.4-2.7c2.5-1.1,4.7-2.4,6.3-4.2c0.8-0.9,1.4-1.9,1.4-3
	C303.2,135.5,302.3,134.7,300.7,134.5z M230.4,120.8c-0.7-0.3-1.6-0.8-2.6-1.2c-3.7-1.7-7.7-2.6-12.1-2.7c-0.8,0-1.6,0.1-2.4,0.1
	c-0.2,0-0.3,0.1-0.5,0.1c-0.3,0.1-0.5,0.3-0.4,0.6c0,0.3,0.2,0.5,0.6,0.6c0.2,0,0.5,0.1,0.7,0.1c1,0.1,1.9,0.3,2.7,0.7
	c2.1,0.9,4.1,1.9,5.8,3.1c3,2.2,5.3,4.6,6.9,7.5c0.7,1.2,1.4,2.5,2.1,3.7c0.5,0.8,1,1.5,1.6,2.2c0.7,0.8,1.6,1.6,2.7,2.1
	c1.7,0.8,3.4,0.4,4.3-0.9c0.6-0.9,0.8-1.8,0.8-2.8c0-1-0.3-2-0.7-3C238.2,127.1,234.9,123.7,230.4,120.8z M303,113
	c-0.3-0.6-0.6-1.2-1.1-1.8c-0.8-0.7-1.7-1.3-3-1.3c-1.5-0.1-2.5,0.4-2.7,1.5c-0.1,0.6-0.1,1.2-0.1,1.8c0.1,1,0.3,2,0.5,3.1
	c0.4,2.4,0.1,4.8-1.1,7.1c-2,3.7-5,6.9-9.2,9.3c-0.3,0.2-0.6,0.4-0.8,0.6c-0.5,0.5-0.1,1,0.7,1.1c0.3,0,0.7,0,1-0.1
	c0.7-0.2,1.4-0.5,2.1-0.8c3-1.6,5.6-3.6,8-5.7c0.7-0.7,1.4-1.4,2.1-2.2c0.5-0.6,1-1.2,1.5-1.8c1.6-2.2,2.6-4.5,2.8-7
	C303.7,115.4,303.5,114.2,303,113z M147,137.4c3.1,1,6.4,1.4,9.8,1.1c2.7-0.3,5.2-1,7.6-2c3.7-1.6,6.8-3.7,9.5-6.1
	c2.5-2.2,5-4.5,7.4-6.7c2-1.8,4.1-3.5,6.4-5c2.1-1.4,4.4-2.5,7-3.2c2.3-0.6,4.6-0.7,7-0.6c1.8,0.1,3.7,0.3,5.4,0.8
	c0.1,0,0.2,0.1,0.3,0.1c0.4,0,0.7-0.1,0.9-0.3c0.2-0.2,0.1-0.5-0.1-0.7c-0.1-0.1-0.3-0.2-0.5-0.3c-1.5-0.7-3.1-1-4.8-1.2
	c-4.3-0.4-8.3,0.2-12.3,1.3c-3.9,1.1-7.3,2.7-10.5,4.7c-3.1,2-6.2,3.9-9.4,5.9c-2,1.2-4,2.3-6.2,3.3c-2.9,1.2-6,2.1-9.4,2.1
	c-3.9,0-7.2-1.1-10-3.1c-1.5-1.1-2.3-2.6-2.5-4.1c-0.3-1.9,0.1-3.7,1.1-5.5c2.1-3.8,7.3-4.8,10.9-4.2c1.6,0.2,3.1,0.8,4.1,1.8
	c0.6,0.5,0.9,1.2,0.9,1.9c0,0.9-0.3,1.7-0.8,2.4c-0.3,0.5-0.7,1-1.1,1.5c-0.2,0.3-0.4,0.6-0.6,0.9c-0.9,1.6-0.4,3,1.4,4.1
	c1.3,0.8,2.9,1.1,4.6,1c1.6-0.1,3.1-0.4,4.4-1.1c3.4-1.7,4.9-4.2,4.9-7.2c0-3-1.6-5.5-4.4-7.5c-1.5-1.1-3.2-2-5.1-2.6
	c-1.9-0.6-3.8-0.8-5.8-0.6c-0.1,0-0.3,0-0.4,0c-0.1-0.3-0.1-0.6-0.2-0.8c-0.2-0.9-0.9-1.6-2-2c-0.6-0.2-1.2-0.4-1.9-0.5
	c-3-0.4-5.7,0-8.4,1.1c-1,0.4-1.9,1-2.7,1.5c-0.2,0.1-0.4,0.3-0.6,0.4c-0.1-0.1-0.2-0.2-0.3-0.3c-0.7-0.8-1.7-1.2-3-0.9
	c-0.7,0.1-1.2,0.4-1.8,0.7c-1.7,1-2.9,2.2-3.8,3.7c-2.7,4.6-3.1,9.4-0.8,14.1C134.1,130.8,139.4,135,147,137.4z M176.3,132.6
	c-0.2,0.1-0.3,0.2-0.4,0.4c-1.5,1.7-3.3,3.2-5.6,4.4c-2,1-4.2,1.8-6.5,2.4c-3.8,0.9-7.6,1.5-11.6,1.4c-2.7,0-5.3-0.4-7.9-0.9
	c-4.4-0.7-8.6-1.9-12.7-3.3c-1.8-0.6-3.6-1.2-5.4-1.7c-1-0.3-2-0.5-3-0.7c-0.9-0.2-1.9-0.2-2.8-0.1c-1.6,0.2-2.5,1-2.5,2.3
	c0,1.1,0.6,2.1,1.4,3c1.6,1.8,3.8,3.1,6.3,4.2c3.2,1.4,6.7,2.2,10.4,2.7c5.9,0.7,11.8,0.4,17.6-0.7c4.6-0.9,8.9-2.1,13.1-3.8
	c1.4-0.5,2.6-1.3,3.9-1.9c2.6-1.6,4.7-3.4,6.4-5.5c0.3-0.4,0.5-0.8,0.7-1.3c0.1-0.1,0.1-0.3,0.1-0.5
	C177.7,132.5,176.9,132.2,176.3,132.6z M208.4,117.2c-0.1-0.1-0.3-0.1-0.5-0.1c-0.8-0.1-1.6-0.1-2.4-0.1c-4.3,0.1-8.4,0.9-12.1,2.7
	c-0.9,0.4-1.9,0.9-2.6,1.2c-4.6,2.9-7.8,6.2-9.6,10.3c-0.4,1-0.7,2-0.7,3c0,1,0.2,1.9,0.8,2.8c0.9,1.3,2.6,1.7,4.3,0.9
	c1.1-0.5,2-1.2,2.7-2.1c0.6-0.7,1.2-1.5,1.6-2.2c0.7-1.2,1.4-2.5,2.1-3.7c1.6-2.8,3.9-5.3,6.9-7.5c1.7-1.3,3.7-2.3,5.8-3.1
	c0.9-0.3,1.8-0.6,2.7-0.7c0.2,0,0.5-0.1,0.7-0.1c0.4-0.1,0.6-0.3,0.6-0.6C208.8,117.5,208.7,117.3,208.4,117.2z M121.9,125.5
	c0.7,0.7,1.4,1.5,2.1,2.2c2.4,2.2,4.9,4.1,8,5.7c0.6,0.3,1.4,0.6,2.1,0.8c0.3,0.1,0.7,0.1,1,0.1c0.8,0,1.1-0.6,0.7-1.1
	c-0.2-0.2-0.5-0.4-0.8-0.6c-4.2-2.5-7.2-5.6-9.2-9.3c-1.2-2.3-1.5-4.7-1.1-7.1c0.2-1,0.4-2,0.5-3.1c0.1-0.6,0.1-1.2-0.1-1.8
	c-0.2-1.1-1.2-1.6-2.7-1.5c-1.3,0.1-2.2,0.6-3,1.3c-0.5,0.5-0.9,1.1-1.1,1.8c-0.5,1.2-0.6,2.4-0.5,3.7c0.2,2.5,1.2,4.8,2.8,7
	C120.9,124.3,121.3,124.9,121.9,125.5z M222.2,129.3c-0.2,0.9-1.9,1.6-3,2c-1.6,0.7-3,1.4-2.6,3c0.3,1.1,2.5,4,0.4,4.9
	c-1,0.4-2.1-0.1-2.8-0.6c-0.5-0.4-1-0.9-1.5-1.3c-0.3-0.3-0.6-0.6-0.9-0.8c-0.8-0.5-1.9-0.3-2.6,0.1c-1.2,0.7-4.5,4.2-6.5,2.5
	c-2.2-1.9,3.3-5,0.1-6.4c-1.4-0.6-4.5-0.5-5-1.9c-0.4-1.4,2.9-2.2,4.3-2.2c0.9-0.1,1.8,0,2.7-0.3c1.4-0.4,1.5-1.5,1.9-2.5
	c0.4-1.1,1-2.5,2.3-3.3c1.1-0.6,2.1-0.2,2.8,0.5c1.2,1.3,1.8,2.8,3.3,4c1.6,1.1,3.5,0.7,5.4,1.1
	C221.1,128.3,222.3,128.6,222.2,129.3z M202.3,130.5c-0.1-0.4-0.5-0.7-1-0.6c-0.5,0.1-0.9,0.4-0.8,0.8c0,0.4,0.5,0.7,1,0.6
	C201.9,131.2,202.3,130.8,202.3,130.5z M209.3,124.7c0.1,0.4,0.5,0.6,1,0.6c0.5-0.1,0.9-0.4,0.8-0.8c0-0.4-0.5-0.6-1-0.6
	C209.6,124,209.3,124.3,209.3,124.7z M204.9,131.2c0.6-0.1,1-0.4,0.9-0.8c0-0.4-0.5-0.7-1.1-0.6c-0.5,0.1-1,0.4-0.9,0.8
	C203.9,130.9,204.3,131.3,204.9,131.2z M206.1,137.6c-0.1-0.4-0.5-0.7-1-0.6c-0.5,0.1-0.9,0.4-0.8,0.8c0.1,0.4,0.5,0.7,1,0.6
	C205.8,138.3,206.2,137.9,206.1,137.6z M207.8,135.2c-0.1-0.4-0.5-0.7-1.1-0.6c-0.5,0.1-0.9,0.4-0.9,0.8c0,0.4,0.5,0.7,1.1,0.6
	C207.4,136,207.8,135.6,207.8,135.2z M209.5,132.9c-0.1-0.4-0.5-0.7-1.1-0.6c-0.5,0.1-1,0.4-0.9,0.8c0.1,0.4,0.5,0.7,1.1,0.6
	C209.1,133.7,209.6,133.3,209.5,132.9z M211.2,129.8c-0.1-0.4-0.6-0.7-1.1-0.7c-0.6,0.1-0.9,0.4-0.9,0.9c0,0.4,0.6,0.8,1.1,0.7
	C210.8,130.5,211.2,130.2,211.2,129.8z M211.2,127.2c-0.1-0.4-0.5-0.7-1.1-0.6c-0.5,0.1-0.9,0.4-0.8,0.8c0.1,0.4,0.5,0.7,1.1,0.6
	C210.8,127.9,211.2,127.6,211.2,127.2z M212.8,133.1c0.5-0.1,1-0.4,0.9-0.8c-0.1-0.4-0.5-0.7-1.1-0.6c-0.5,0.1-1,0.4-0.9,0.8
	C211.8,132.9,212.3,133.2,212.8,133.1z M214.3,135.5c0.5-0.1,0.9-0.4,0.8-0.8c-0.1-0.4-0.5-0.7-1.1-0.6c-0.5,0.1-0.9,0.4-0.8,0.8
	C213.2,135.3,213.7,135.5,214.3,135.5z M216.5,137.1c-0.1-0.4-0.5-0.6-1-0.6c-0.5,0.1-0.9,0.4-0.8,0.8c0.1,0.4,0.5,0.6,1,0.6
	C216.2,137.8,216.6,137.5,216.5,137.1z M216.7,129.7c-0.1-0.4-0.5-0.7-1-0.6c-0.5,0.1-0.9,0.4-0.8,0.8c0.1,0.4,0.5,0.6,1,0.6
	C216.4,130.4,216.8,130.1,216.7,129.7z M220.1,129.3c0-0.4-0.5-0.6-1-0.6c-0.5,0-0.9,0.4-0.8,0.8c0.1,0.4,0.5,0.6,1,0.6
	C219.8,130.1,220.2,129.7,220.1,129.3z M49.7,410.3c-0.1-1.7-0.1-3.4-0.1-5.2v-27.5c0-0.4,0-0.9,0.1-1.5c0-0.5,0.1-1,0.2-1.5
	c0.1,0,0.2,0,0.3-0.1c0.1,0,0.2-0.1,0.4-0.1c1.1,1.8,1.9,3.5,2.7,5c1,2,1.9,4.1,2.9,6.2c0.9,2.1,1.9,4.1,3,6.2
	c0.6,1.2,1.5,2.1,2.6,2.7c1.1,0.6,2.4,0.9,3.8,0.9c2.9,0.1,5-1.2,6.2-3.8c0.2-0.4,0.4-0.9,0.6-1.4c0.2-0.5,0.5-1,0.7-1.5
	c1-2.1,2-4.3,3-6.4c1-2.2,2-4.3,3-6.4c0.3,0,0.5,0,0.7,0.1c0.2,0.7,0.3,1.3,0.3,1.7c0,5.5,0,10.9-0.1,16.3c0,5.4,0,10.8,0.1,16.3
	c0,2.6,0.3,4.9,0.9,7c0.9,2.9,3.4,4.2,7.4,3.7c2.9-0.3,4.6-1.8,5.2-4.6c0.2-0.9,0.3-1.6,0.3-2.1c0-4.6,0-9.2-0.1-13.7
	c0-4.6,0-9.1,0.1-13.7c0-6.1,0-12.2,0.1-18.2c0-6,0.1-12.1,0.2-18.2c0-0.7,0-1.5,0-2.3c0-0.8-0.1-1.6-0.3-2.4
	c-0.1-0.5-0.2-1.1-0.3-1.6c-0.1-0.5-0.3-1.1-0.5-1.6c-0.5-1.4-1.4-2.4-2.5-3.1c-1.1-0.6-2.4-1-3.9-1.2c-2.6-0.1-4.4,1-5.6,3.2
	c-0.5,1.1-1,2.1-1.4,3.2c-0.4,1.1-0.9,2.1-1.4,3.1c-1.5,3.2-3.1,6.4-4.6,9.6c-1.6,3.2-3.1,6.4-4.6,9.5c-0.6,1.2-1.2,2.5-1.8,3.7
	c-0.6,1.2-1.2,2.5-1.9,3.8c-0.4-0.4-0.6-0.8-0.9-1.1c-0.2-0.3-0.4-0.5-0.6-0.8c-2.1-5-4.5-9.9-7.2-14.7c-2.7-4.9-4.7-9.9-6.1-15.3
	c-0.4-1.6-1.4-2.8-2.9-3.7c-1.5-0.9-3.1-1.2-4.8-1.1c-1.6,0.2-3.1,0.8-4.4,1.8c-1.3,1-1.9,2.5-1.9,4.6c0,0.4,0,0.9-0.1,1.4
	c0,0.5-0.1,1-0.1,1.4c0.1,3.4,0.2,6.9,0.2,10.3c0,3.4,0.1,6.9,0.1,10.3c0,7.8,0,15.5-0.1,23.3c0,7.7-0.1,15.5-0.2,23.3
	c0,0.4,0,0.8,0.1,1.2c0,0.4,0.1,0.8,0.2,1.2c0.4,1.5,1.3,2.7,2.9,3.5c1.6,0.8,3.4,1.1,5.6,0.9c3.4-0.4,5-2.3,4.8-5.7
	C49.8,413.7,49.8,412,49.7,410.3z M147.3,415.3c1.5-1.8,2.9-3.7,4.2-5.8c1.1-1.7,1.8-3.4,2.3-5.3c0.3-1.6,0.5-3.2,0.7-4.8
	c0.2-1.6,0.3-3.2,0.3-4.8c0.2-7,0.3-13.9,0.3-20.9c0-6.9,0.1-13.9,0.2-21c0-1.4,0-2.8-0.1-4.2c0-1.4-0.1-2.9-0.2-4.4
	c-0.2-1.5-0.7-2.8-1.7-4s-2-1.8-3.3-2c-2.8-0.5-5,0.8-6.5,4c-0.6,1.1-0.9,2.2-0.9,3.3c0,1.2,0,2.3,0,3.6v39.1c0,1.5,0,2.9-0.1,4.3
	c-0.1,1.4-0.1,2.8-0.1,4.3c0.1,4.2-1.6,7.7-5,10.6c-2.7,2.2-5.8,2.7-9.2,1.5c-2.4-1-4.1-2.4-5.1-4.2c-1-1.8-1.6-3.9-1.7-6.3
	c0-0.1,0-0.6,0.1-1.6c0-1,0.1-2.2,0.1-3.6c0-1.4,0.1-3,0.1-4.8c0-1.8,0-3.6,0-5.5V368v-15.8c0-1.4,0-2.8,0-4.2
	c0-1.4-0.1-2.8-0.3-4.2c-0.2-2.2-0.9-3.8-2.3-4.6c-1.3-0.9-2.7-1.2-4.2-1.1c-1.5,0.2-2.8,0.9-3.8,2.1c-1,1.2-1.6,2.7-1.7,4.4
	c-0.1,2.3-0.1,4.6-0.1,7s0,4.7,0,7c0,4.9,0,9.7,0.1,14.5c0,4.8,0,9.6-0.2,14.5c-0.1,3.1-0.1,6.2,0.1,9.2c0.1,3.1,0.6,6.1,1.3,9.2
	c1.1,5,3.7,8.8,7.8,11.5c3.2,2.2,6.5,3.5,9.9,3.8c3.5,0.4,7,0.1,10.7-0.7c0.4-0.1,0.9-0.2,1.3-0.4c0.4-0.2,0.8-0.4,1.3-0.5
	C143.9,418.6,145.8,417.1,147.3,415.3z M186.9,420.9c2.5,0.7,5.1,0.8,7.8,0.3c1.2-0.2,2.5-0.4,3.6-0.7s2.4-0.6,3.5-1.1
	c2.2-0.9,4.2-2,6-3.3c1.8-1.3,3.3-3.1,4.5-5.3c2-3.7,3.2-7.5,3.4-11.3c0.3-3.8-0.1-7.7-1.1-11.6c-1-4-2.9-7.2-5.8-9.6
	c-2.9-2.4-6.1-4.4-9.7-6c-1.7-0.7-3.4-1.4-5-2.1s-3.4-1.3-5-2.1c-5-2.1-6.9-5.8-5.8-11.1c0.3-1.1,0.8-2.2,1.6-3.2
	c0.8-1,1.7-1.9,2.9-2.6c1.1-0.7,2.3-1.2,3.5-1.6c1.2-0.4,2.4-0.4,3.6-0.1c2.2,0.4,3.9,1.4,5,2.8c1.1,1.4,2,3.1,2.7,5
	c0.2,0.7,0.4,1.4,0.5,2.1c0.2,0.7,0.4,1.4,0.7,2.1c0.4,1.2,1.3,2.1,2.5,2.9c1.2,0.8,2.5,1.2,3.7,1.2c1.2,0,2.4-0.4,3.4-1.2
	c1-0.8,1.8-1.9,2.3-3.2c0.6-1.9,0.6-3.8,0-5.6c-1-2.4-2-4.7-3.1-6.9c-1.1-2.2-2.7-4.1-4.7-5.7c-2.1-1.7-4.3-3.2-6.6-4.4
	c-2.3-1.3-5-1.8-8-1.7c-2.9,0-6,0.8-9.3,2.3c-3.3,1.5-5.9,3.4-7.8,5.8c-2.1,2.6-3.6,5.3-4.6,8.3c-0.9,3-1.3,6.1-1.1,9.5
	c0,0.7,0.1,1.4,0.3,2.2c0.2,0.8,0.5,1.5,0.9,2.2c1.4,2.7,3.1,5.2,5.1,7.4c2,2.2,4.5,3.9,7.5,5.1c1.6,0.6,3.2,1.2,4.8,1.7
	c1.6,0.5,3.1,1.1,4.6,1.7c2.1,0.8,3.9,1.9,5.4,3.4c1.5,1.5,2.6,3.1,3.4,4.8c0.8,1.7,1.2,3.6,1.2,5.6c0,2-0.4,3.9-1.2,5.8
	c-0.9,2.2-2.3,3.9-4.2,5c-1.9,1.2-4.2,1.6-6.6,1.3c-2.5-0.4-4.6-1.3-6.3-2.9c-1.7-1.5-2.8-3.5-3.1-5.8c-0.2-0.9-0.3-1.7-0.4-2.6
	c-0.1-0.8-0.2-1.7-0.4-2.6c-0.6-3.5-2.8-5.2-6.6-4.9c-1.5,0.2-2.8,0.8-3.8,1.9c-1,1.1-1.6,2.5-1.8,4c-0.2,1.8,0,3.5,0.4,5.2
	c0.4,1.7,0.9,3.4,1.3,5c0.7,2.6,1.9,4.8,3.4,6.6c1.6,1.9,3.4,3.4,5.4,4.6C182.1,419.2,184.5,420.2,186.9,420.9z M269,339.4h-23.5
	c-1.6,0-3.2,0-4.8,0c-1.6,0-3.3,0-5,0.1c-1.4,0-2.6,0.4-3.6,1.2c-1,0.8-1.7,1.9-2.1,3.2c-0.4,1.2-0.4,2.4,0,3.5
	c0.3,1.1,1.1,2,2.3,2.7c0.6,0.4,1.3,0.6,2.1,0.8c0.8,0.2,1.5,0.3,2.3,0.4c1.5,0.1,3.1,0.1,4.6,0.1s3.3-0.1,5-0.1v8.4
	c0,5.2,0,10.4,0,15.6c0,5.2,0,10.4,0.1,15.7c0.1,3.4,0.2,6.7,0.3,10c0.1,3.3,0.2,6.7,0.3,10c0,1,0,1.9-0.1,2.8
	c-0.1,0.9-0.1,1.8,0,2.8c0.3,2.8,1.9,4.5,5,4.9c3.4,0.4,5.5-0.8,6.4-3.6c0.3-0.9,0.5-1.8,0.7-2.8c0.2-1,0.3-1.9,0.3-2.9
	c0.1-9.6,0.1-19.2,0.1-28.8c0-9.5-0.1-19.1-0.1-28.8c0-0.5,0-1.1,0.1-1.6c0-0.5,0.1-1.1,0.1-1.7c1.5,0,2.9,0,4.1,0.1
	c1.2,0,2.5,0,3.7-0.1c0.7-0.1,1.5-0.2,2.3-0.3c0.8-0.1,1.5-0.3,2.3-0.5c1.9-0.7,3.1-1.9,3.6-3.5c0.6-1.6,0.3-3.2-0.7-4.9
	C273.4,340.3,271.5,339.4,269,339.4z M312.4,392.4c0,1.2,0,2.3,0,3.4c0,1.1,0,2.2,0.1,3.4c0.5,8.4,4.3,14.9,11.4,19.4
	c0.5,0.4,1.1,0.7,1.7,1.1c0.6,0.4,1.2,0.6,1.8,0.8c2.7,0.4,5.3,0.7,7.9,0.8c2.6,0.1,5.2-0.4,7.8-1.6c0.6-0.3,1.2-0.4,1.7-0.4
	c0.5,0,1.1,0.3,1.6,0.9c1.6,1.6,3.5,2.2,5.7,1.9c2-0.5,3.4-1.3,4.1-2.2c0.7-0.9,1.1-2.4,1.2-4.6v-2.1v-16.1c0-1.5,0-3.1,0.1-4.6
	c0.1-1.6,0.1-3.1,0.1-4.6v-1.2c0-1.5-0.4-2.8-1.1-3.8c-0.7-1.1-1.5-1.6-2.5-1.6h-20.2c-1,0-1.8,0.6-2.5,1.7
	c-0.7,1.1-1.1,2.4-1.1,3.9c0,1.5,0.4,2.8,1.1,3.9c0.7,1.1,1.5,1.6,2.5,1.6h10.9c0,1.5,0,3,0.1,4.6s0,3.1-0.1,4.6
	c-0.2,1.8-0.8,3.2-1.7,4.4c-0.6,0.6-1.3,1.1-2.1,1.5c-0.8,0.4-1.6,0.8-2.4,1.3c-0.9,0.5-1.9,0.8-3,0.8c-1.1,0-2.2-0.2-3.2-0.5
	c-1-0.3-1.9-0.7-2.8-1.3c-0.8-0.5-1.5-1.1-1.9-1.6c-0.7-0.9-1.2-1.8-1.5-2.7c-1.2-5.2-1.9-10.3-1.9-15.2c0-0.6,0-1.5,0.1-2.5
	c0-1.1,0.1-2.1,0.1-3.2c0-1.1,0-2.1,0-3.1c0-1,0-1.7,0-2.3v-16.3c0-1.9,0.4-3.7,1.3-5.2c0.8-1.5,2-2.9,3.4-4.1
	c1.5-1.2,3.4-1.9,5.8-1.9c2.3,0,4.4,0.7,6,2.2c1.2,1,2,2,2.5,3.2c0.5,1.2,1,2.4,1.3,3.7c0.2,0.7,0.4,1.4,0.5,2.2
	c0.2,0.8,0.4,1.5,0.7,2.2c0.5,1.3,1.4,2.3,2.7,3.1c1.2,0.7,2.6,0.9,4.1,0.7c1.3-0.2,2.5-0.7,3.5-1.7c1-0.9,1.5-2.1,1.5-3.4
	c0.2-3.1-0.1-6-0.9-8.8c-0.8-2.7-2.2-5.4-4.2-7.8c-1.9-2.2-4-3.9-6.3-5c-2.3-1.1-4.9-2-7.6-2.5c-8.1-1.4-14.9,1-20.4,7.3
	c-2,2.5-3.5,5.2-4.4,8.1c-0.9,2.9-1.3,6-1.3,9.2V392.4z M370,382.1c-0.2,7.2,0.2,14.3,1.2,21.5c1,6.4,4,11,9,13.9
	c2.8,1.8,5.8,3,9,3.6c3.2,0.7,6.5,0.4,9.8-0.7c3.7-1.2,6.9-3,9.5-5.4c2.7-2.3,4.6-5.5,5.7-9.3c0.4-1.6,0.8-3.2,0.9-5
	c0.2-1.7,0.3-3.5,0.4-5.2c0.1-2.6,0.1-5.1,0.1-7.6c0-2.5-0.1-5-0.1-7.6v-14.9c0.1-2,0-4.1-0.4-6.2c-0.4-2.1-0.8-4.2-1.2-6.2
	c-0.8-3.4-2.5-6.6-5.2-9.4c-3.7-3.7-7.8-5.8-12.3-6.4c-4.5-0.5-9,0.3-13.4,2.5c-4.3,2-7.5,4.9-9.6,8.5c-2.1,3.6-3.1,7.7-3.1,12.3
	C370.3,367.8,370.1,374.9,370,382.1z M402.4,356.7c0.5,1.6,0.8,3.3,0.8,5.2c0.1,2.6,0.1,5.1,0,7.5c-0.1,2.4-0.1,4.9-0.1,7.5
	c0,2.3,0,4.6,0.1,6.8c0.1,2.3,0.1,4.5,0.1,6.8c0,1.5-0.1,3-0.2,4.4c-0.1,1.5-0.2,2.9-0.2,4.4c0,1.5-0.3,2.8-1,3.8
	c-0.7,1.1-1.5,2.1-2.5,3.1c-1.5,1.8-3.2,2.7-5,2.9c-1.9,0.2-3.7-0.1-5.6-0.8c-1.5-0.5-2.7-1.4-3.7-2.6c-1-1.2-1.6-2.6-2-4.2
	c-0.3-1.1-0.5-2.1-0.6-3.2c-0.1-1.1-0.2-2.2-0.3-3.4v-16v-16.7c0-1.4,0.2-2.8,0.5-4c0.3-1.3,0.9-2.5,1.7-3.8c2-3.1,4.7-4.7,8.1-4.8
	C397.4,349.4,400.7,351.8,402.4,356.7z M55.4,214.2c1.1-0.9,1.8-2.4,1.9-4.3c0.1-1.6,0.1-3.3,0.1-4.9s0-3.3,0-5
	c-0.1-2.5-0.1-5-0.2-7.5c-0.1-2.5-0.1-5-0.2-7.5l0.2-19c0-0.9,0-1.8,0-2.7s0-1.8,0-2.8c-0.1-0.6-0.1-1.2-0.2-1.7
	c-0.1-0.6-0.2-1.1-0.4-1.6c-0.3-0.9-0.9-1.7-1.7-2.4c-0.8-0.7-1.7-1-2.5-1c-0.9,0-1.7,0.3-2.5,0.8c-0.7,0.6-1.2,1.4-1.6,2.5
	c-0.5,1.8-0.7,3.7-0.7,5.8c-0.1,3.5,0,7,0,10.5c0.1,3.5,0.1,7,0,10.5c-0.1,4.3-0.1,8.6-0.2,12.9c-0.1,4.3-0.2,8.5-0.3,12.9
	c-0.1,1.2,0.3,2.3,1,3.2c0.8,1,1.7,1.6,2.9,1.9C52.8,215.4,54.2,215.1,55.4,214.2z M79.6,214.8c1.8,0.5,3.8,0.6,5.8,0.2
	c0.9-0.1,1.8-0.3,2.7-0.5c0.9-0.2,1.8-0.5,2.6-0.8c1.6-0.7,3.1-1.5,4.4-2.5c1.3-1,2.4-2.3,3.3-3.9c1.5-2.7,2.4-5.5,2.6-8.4
	c0.2-2.8-0.1-5.7-0.8-8.6c-0.7-2.9-2.1-5.3-4.3-7.1c-2.1-1.8-4.5-3.3-7.2-4.5c-1.2-0.5-2.5-1-3.7-1.5c-1.2-0.5-2.5-1-3.7-1.5
	c-3.7-1.6-5.1-4.3-4.3-8.3c0.2-0.8,0.6-1.6,1.2-2.4c0.6-0.8,1.3-1.4,2.1-1.9c0.8-0.5,1.7-0.9,2.6-1.2c0.9-0.3,1.8-0.3,2.7-0.1
	c1.6,0.3,2.9,1,3.7,2.1c0.8,1.1,1.5,2.3,2,3.7c0.1,0.5,0.3,1.1,0.4,1.6c0.1,0.5,0.3,1,0.5,1.6c0.3,0.9,0.9,1.6,1.9,2.2
	c0.9,0.6,1.8,0.9,2.7,0.9s1.8-0.3,2.5-0.9c0.8-0.6,1.3-1.4,1.7-2.4c0.5-1.4,0.5-2.8,0-4.1c-0.7-1.8-1.5-3.5-2.3-5.1
	c-0.8-1.6-2-3-3.5-4.2c-1.6-1.2-3.2-2.3-4.9-3.3c-1.7-0.9-3.7-1.4-5.9-1.2c-2.2,0-4.5,0.6-6.9,1.7c-2.4,1.1-4.4,2.6-5.8,4.3
	c-1.6,1.9-2.7,3.9-3.4,6.1c-0.7,2.2-1,4.5-0.8,7c0,0.5,0.1,1.1,0.2,1.6c0.2,0.6,0.4,1.1,0.6,1.6c1,2,2.3,3.9,3.8,5.4
	c1.5,1.6,3.3,2.9,5.6,3.8c1.2,0.5,2.4,0.9,3.5,1.3c1.2,0.4,2.3,0.8,3.4,1.3c1.6,0.6,2.9,1.4,4,2.5c1.1,1.1,1.9,2.3,2.5,3.5
	c0.6,1.3,0.9,2.7,0.9,4.1c0,1.5-0.3,2.9-0.9,4.3c-0.7,1.6-1.7,2.9-3.1,3.7c-1.4,0.9-3.1,1.2-4.9,1c-1.8-0.3-3.4-1-4.7-2.1
	c-1.3-1.1-2-2.6-2.3-4.3c-0.1-0.7-0.2-1.3-0.3-1.9c-0.1-0.6-0.2-1.3-0.3-1.9c-0.5-2.6-2.1-3.8-4.9-3.6c-1.1,0.1-2,0.6-2.8,1.4
	c-0.8,0.8-1.2,1.8-1.3,3c-0.1,1.3,0,2.6,0.3,3.8c0.3,1.2,0.7,2.5,1,3.7c0.5,1.9,1.4,3.5,2.6,4.9c1.2,1.4,2.5,2.5,4,3.4
	C76,213.5,77.8,214.3,79.6,214.8z M128.8,199.2c0,1.3,0.1,2.6,0.3,3.9c0.2,1.3,0.7,2.5,1.5,3.4c0.9,1.1,1.8,2.2,2.7,3.2
	c0.9,1,2,2,3.1,2.9c1.2,1,2.5,1.7,3.8,1.9c1.1,0.3,2.3,0.5,3.4,0.6c1.2,0.1,2.4,0.2,3.5,0.1c0.3,0,0.5,0,0.8,0
	c0.3,0,0.6-0.1,0.9-0.2c1-0.2,2-0.5,2.9-1c0.9-0.5,1.8-1,2.8-1.6c1-0.7,2-1.5,2.7-2.5c0.8-0.9,1.5-1.9,2.3-3
	c0.8-1.3,1.5-2.7,1.9-4.1c0.4-1.4,0.5-2.9,0.4-4.5c-0.1-1.2-0.5-2.3-1.2-3.1s-1.6-1.3-2.9-1.3c-1.2-0.1-2.2,0.2-3,0.7
	c-0.8,0.5-1.4,1.4-1.7,2.7c-0.1,0.5-0.2,1-0.3,1.5c-0.1,0.5-0.2,0.9-0.3,1.5c-0.5,1.8-1.3,3.2-2.6,4.2c-0.9,0.7-1.8,1.2-2.7,1.5
	c-1,0.3-2,0.3-3.1,0c-2.6-0.6-4.5-2.2-5.6-4.9c-0.5-1.4-0.8-3.1-1-4.9c-0.1-1.3-0.2-2.6-0.2-3.9s0-2.6-0.1-3.9v-6.2v-5.5
	c0.1-1.1,0.1-2.1,0.1-3.1c0-1,0-2,0.1-3.1c0.2-2.7,1.4-5,3.7-6.8c1.9-1.5,4.1-1.8,6.6-1c1.1,0.4,2,1.1,2.7,2.3
	c0.5,0.7,0.9,1.3,1.2,2c0.3,0.7,0.5,1.5,0.5,2.3c0.1,1.2,0.4,2.4,1.1,3.5c0.7,1.4,1.8,2.1,3.2,2.2c0.9,0.1,1.9-0.1,2.8-0.5
	c1-0.5,1.8-1.2,2.2-2.2c0.3-0.7,0.4-1.5,0.4-2.4c-0.1-2-0.5-3.9-1-5.5c-0.6-2-1.5-3.7-2.8-5.2c-2.2-2.4-4.9-4.2-8.3-5.3
	c-1.4-0.5-2.8-0.7-4.2-0.8c-1.4-0.1-2.9,0.1-4.4,0.5c-0.9,0.3-1.8,0.6-2.7,1c-0.9,0.4-1.7,0.9-2.5,1.4c-4.8,3.1-7.3,7.6-7.7,13.4
	c-0.1,1.1-0.1,2.3,0,3.4c0,1.2,0,2.3,0,3.4c0,1.2,0,2.3,0,3.5c0,1.1,0,2.3-0.2,3.5c-0.1,0.5-0.2,1.1-0.1,1.7
	c0.1,0.6,0.1,1.2,0.2,1.8c0.1,1.4,0.1,2.7,0.2,4.1c0.1,1.3,0.1,2.7,0.2,4.1C128.8,196.6,128.8,197.9,128.8,199.2z M199.3,191
	c-0.6-2.6-1.2-5.1-1.8-7.6c-0.7-3-1.4-5.9-2.1-8.8s-1.4-5.9-2.1-8.9c-0.3-1.3-0.6-2.7-0.9-4.1c-0.3-1.4-0.6-2.8-0.9-4.1
	c-0.3-1.2-1-2.2-1.9-2.8c-1-0.7-2-0.9-3.2-0.7c-1.1,0.2-1.9,0.7-2.5,1.4s-1,1.6-1.3,2.6c-0.3,1.1-0.6,2.1-0.8,3.1
	c-0.2,1-0.4,2-0.7,3.1c-0.5,2-1,4.1-1.5,6.1c-0.5,2-1,4.1-1.5,6.1c-0.6,2.2-1.2,4.4-1.9,6.6c-0.7,2.2-1.2,4.4-1.8,6.7
	c-0.7,3.3-1.5,6.5-2.3,9.7c-0.8,3.2-1.8,6.4-3,9.5c-0.4,1-0.3,2.2,0.1,3.3c0.5,1.2,1.4,2,2.8,2.5c1.4,0.5,2.7,0.4,3.9-0.1
	c1.2-0.5,2-1.4,2.4-2.7c0.1-0.5,0.2-0.9,0.3-1.3c0.1-0.4,0.2-0.9,0.3-1.3c0.3-0.8,0.5-1.7,0.7-2.5c0.2-0.8,0.4-1.7,0.7-2.5
	c0.1-0.4,0.2-0.8,0.3-1.2c0.1-0.4,0.2-0.9,0.3-1.4h11.6c0.3,1.3,0.7,2.6,1,4c0.3,1.3,0.6,2.7,0.7,4.2c0,0.7,0.2,1.4,0.5,2.2
	c0.5,1.2,1.2,2.1,2.4,2.7c1.1,0.6,2.3,0.8,3.5,0.4c2.2-0.4,3.3-2.1,3.3-5c-0.1-0.3-0.1-0.8-0.2-1.3c-0.1-0.6-0.2-1.1-0.3-1.7
	c-0.3-1.4-0.7-2.8-1.1-4.2c-0.4-1.4-0.8-2.7-1.1-4.1C200.5,196.1,199.9,193.6,199.3,191z M182.6,195.2c0.5-1.8,0.9-3.5,1.3-5.2
	c0.4-1.7,0.8-3.3,1.1-4.7c0.3-1.1,0.5-2.2,0.8-3.2c0.3-1,0.5-2,0.8-3.1h0.5c0.1,0.1,0.1,0.3,0.1,0.5h0.1c0.1,0.3,0.1,0.5,0.2,0.8
	c0.1,0.3,0.1,0.6,0.2,0.9c0.1,0.3,0.2,0.7,0.3,1.2c0.1,0.5,0.2,1,0.3,1.5c0.1,0.5,0.2,1,0.3,1.5c0.1,0.3,0.2,0.7,0.3,1.1
	c0.1,0.4,0.2,0.8,0.3,1.2c0.3,1,0.5,2,0.7,3c0.2,1.1,0.5,2.1,0.7,3.2c0.1,0.2,0.1,0.4,0.1,0.6c0,0.2,0.1,0.4,0.1,0.6H182.6z
	 M212.2,189.8c0,3.1,0,6.3,0,9.4c0,3.1,0,6.3,0,9.4c0,1.4,0.2,2.8,0.6,4c0.3,1.4,1.2,2.3,2.7,2.5c1,0.2,2.2,0.3,3.3,0.3
	c3.9-0.1,7.7-0.1,11.4-0.2c3.8-0.1,7.6-0.2,11.4-0.3c1.1,0,2-0.4,2.8-1.1c0.8-0.8,1.2-1.7,1.3-2.9c0.1-1-0.1-1.9-0.7-2.7
	c-0.6-0.8-1.4-1.3-2.5-1.5c-1.7-0.4-3.4-0.6-5.1-0.6c-1.7,0-3.4,0-5.1,0.1c-1.7,0.1-3.4,0.2-5.2,0.2c-1.7,0-3.6,0.1-5.4,0.2
	c-0.1-0.5-0.1-1-0.2-1.3c-0.1-0.4-0.1-0.7-0.1-1c0-0.6,0-1.2,0.1-1.7c0.1-0.6,0.1-1.1,0.1-1.7c0-2.7,0-5.5-0.1-8.2
	c-0.1-2.7-0.1-5.5-0.1-8.2c0-4.1,0-8.2,0-12.4c0-4.1,0.1-8.3,0.1-12.4c0-1.1-0.4-2.2-1.1-3.2c-0.8-1-1.7-1.6-2.8-1.8
	c-1-0.2-2.1,0-3,0.5c-1,0.6-1.6,1.4-2,2.5c-0.3,1.2-0.5,2.4-0.5,3.5c0,4.6,0,9.2,0,13.7s0,9.1,0.1,13.6V189.8z M253.4,189.8
	c0,3.1,0,6.3,0,9.4c0,3.1,0,6.3,0,9.4c0,1.4,0.2,2.8,0.6,4c0.3,1.4,1.2,2.3,2.8,2.5c1,0.2,2.2,0.3,3.3,0.3c3.9-0.1,7.7-0.1,11.4-0.2
	s7.5-0.2,11.3-0.3c1.1,0,2-0.4,2.8-1.1c0.8-0.8,1.2-1.7,1.3-2.9c0.1-1-0.1-1.9-0.7-2.7c-0.6-0.8-1.4-1.3-2.6-1.5
	c-1.7-0.4-3.4-0.6-5.1-0.6c-1.7,0-3.4,0-5.1,0.1c-1.7,0.1-3.4,0.2-5.2,0.2c-1.7,0-3.6,0.1-5.4,0.2c-0.1-0.5-0.1-1-0.2-1.3
	c-0.1-0.4-0.1-0.7-0.1-1c0-0.6,0-1.2,0.1-1.7c0.1-0.6,0.1-1.1,0.1-1.7c0-2.7,0-5.5-0.1-8.2c-0.1-2.7-0.1-5.5-0.1-8.2
	c0-4.1,0-8.2,0-12.4c0-4.1,0.1-8.3,0.1-12.4c0-1.1-0.4-2.2-1.1-3.2c-0.8-1-1.7-1.6-2.8-1.8c-1-0.2-2.1,0-3,0.5c-1,0.6-1.6,1.4-2,2.5
	c-0.3,1.2-0.5,2.4-0.5,3.5c0,4.6,0,9.2,0,13.7s0,9.1,0.1,13.6V189.8z M302.7,214.2c1.1-0.9,1.8-2.4,1.9-4.3c0.1-1.6,0.1-3.3,0.1-4.9
	s0-3.3,0-5c-0.1-2.5-0.1-5-0.2-7.5c-0.1-2.5-0.1-5-0.2-7.5l0.2-19c0-0.9,0-1.8,0-2.7c0-0.9,0-1.8,0-2.8c-0.1-0.6-0.1-1.2-0.2-1.7
	c-0.1-0.6-0.2-1.1-0.4-1.6c-0.3-0.9-0.9-1.7-1.7-2.4c-0.8-0.7-1.7-1-2.5-1c-0.9,0-1.7,0.3-2.5,0.8c-0.7,0.6-1.2,1.4-1.6,2.5
	c-0.5,1.8-0.7,3.7-0.7,5.8c-0.1,3.5,0,7,0,10.5c0.1,3.5,0.1,7,0,10.5c-0.1,4.3-0.1,8.6-0.2,12.9c-0.1,4.3-0.2,8.5-0.3,12.9
	c-0.1,1.2,0.3,2.3,1,3.2c0.8,1,1.7,1.6,2.9,1.9C300.1,215.4,301.6,215.1,302.7,214.2z M345.1,154.6c-0.7-0.4-1.4-0.6-2.1-0.6
	c-0.7,0-1.4,0.1-2.1,0.5c-0.7,0.4-1.2,1.1-1.6,2.1c-0.5,1.2-0.8,2.5-0.8,3.7c-0.1,1.1-0.1,2.2,0,3.3c0.1,1.1,0.1,2.2,0.2,3.3v19.7
	c0,0.3,0,0.7,0,1c0,0.3,0,0.7,0,1.1l-0.8-0.4c-0.1-0.1-0.3-0.4-0.4-0.8c-2.2-4.7-4.5-9.4-6.8-14c-2.3-4.6-4.4-9.4-6.3-14.3
	c-0.3-0.6-0.5-1.2-0.8-1.7c-0.3-0.6-0.7-1.1-1.1-1.6c-0.6-0.7-1.3-1.2-2-1.5c-0.8-0.3-1.5-0.3-2.2-0.2c-0.7,0.1-1.4,0.5-2,1
	s-1,1.2-1.4,2.1c-0.4,1.1-0.6,2.3-0.6,3.5c-0.1,1.3-0.1,2.6,0,4c0,1.3,0.1,2.7,0.1,4c0.1,6.9,0.1,13.7,0.1,20.5
	c0,6.8,0.1,13.7,0.1,20.5v0.7c-0.1,2,0.7,3.5,2.6,4.4c0.7,0.4,1.5,0.7,2.3,0.8c0.8,0.1,1.5,0,2.3-0.5c0.8-0.4,1.3-0.9,1.7-1.6
	c0.3-0.7,0.5-1.5,0.4-2.4c0-0.9,0-1.8,0-2.8c0-0.9,0-1.9,0-2.9c0-2.7,0-5.4,0-8.1c0-2.6,0-5.3,0-8.1c0.1-1.3,0.1-2.6,0.2-3.8
	c0.1-1.2,0.1-2.4,0.2-3.7c0.1,0,0.2,0,0.2,0c0,0,0.1,0,0.2,0c0.1,0.2,0.3,0.4,0.4,0.5c0.1,0.2,0.3,0.3,0.4,0.5c0.7,1.3,1.3,2.6,2,4
	c0.7,1.3,1.3,2.7,1.9,4c1.1,2.4,2.2,4.8,3.3,7.2c1.1,2.4,2.2,4.8,3.3,7.3c0.5,1.1,1,2.2,1.4,3.3c0.4,1.1,0.9,2.2,1.5,3.3
	c0.3,0.6,0.7,1.1,1.1,1.7c0.4,0.5,0.9,0.9,1.4,1.3c0.7,0.4,1.5,0.6,2.3,0.5c0.8,0,1.5-0.2,2.2-0.5c0.7-0.3,1.2-0.8,1.7-1.3
	c0.5-0.6,0.7-1.2,0.8-1.9c0.1-0.4,0.1-0.8,0.1-1.2c0-0.4,0-0.8,0-1.1c0-2,0-4-0.1-6c-0.1-2-0.1-4-0.1-6c0-6.3,0-12.6,0-18.9
	c0-6.2,0-12.5,0-18.8c0-0.7,0-1.4-0.1-2c-0.1-0.6-0.4-1.1-0.9-1.7C346.4,155.4,345.8,155,345.1,154.6z M357.8,193.7
	c0,0.9,0,1.7,0,2.5c0,0.8,0,1.7,0.1,2.5c0.4,6.2,3.2,11,8.4,14.3c0.4,0.3,0.8,0.5,1.2,0.8c0.4,0.3,0.9,0.5,1.3,0.6
	c2,0.3,3.9,0.5,5.8,0.6c1.9,0.1,3.9-0.3,5.8-1.2c0.5-0.2,0.9-0.3,1.3-0.3c0.4,0,0.8,0.2,1.2,0.7c1.2,1.2,2.6,1.6,4.2,1.4
	c1.5-0.4,2.5-0.9,3-1.6c0.5-0.7,0.8-1.8,0.9-3.4V209v-11.9c0-1.1,0-2.3,0.1-3.4c0.1-1.2,0.1-2.3,0.1-3.4v-0.9c0-1.1-0.3-2.1-0.8-2.8
	c-0.5-0.8-1.2-1.2-1.9-1.2h-14.9c-0.7,0-1.3,0.4-1.9,1.2c-0.5,0.8-0.8,1.8-0.8,2.9c0,1.1,0.3,2.1,0.8,2.8c0.5,0.8,1.2,1.2,1.9,1.2
	h8.1c0,1.1,0,2.3,0,3.4c0,1.2,0,2.3,0,3.4c-0.1,1.3-0.6,2.4-1.3,3.2c-0.5,0.5-1,0.8-1.6,1.1c-0.6,0.3-1.2,0.6-1.8,0.9
	c-0.7,0.4-1.4,0.6-2.2,0.6s-1.6-0.1-2.4-0.3s-1.4-0.5-2.1-0.9c-0.6-0.4-1.1-0.8-1.4-1.2c-0.5-0.7-0.9-1.3-1.1-2
	c-0.9-3.9-1.4-7.6-1.4-11.3c0-0.5,0-1.1,0-1.9c0-0.8,0-1.6,0-2.4c0-0.8,0-1.6,0-2.3c0-0.7,0-1.3,0-1.7v-12.1c0-1.4,0.3-2.7,0.9-3.8
	c0.6-1.1,1.5-2.1,2.5-3c1.1-0.9,2.5-1.4,4.3-1.4c1.7,0,3.2,0.5,4.5,1.6c0.8,0.7,1.5,1.5,1.9,2.4c0.4,0.8,0.7,1.8,1,2.7
	c0.1,0.5,0.3,1.1,0.4,1.6c0.1,0.6,0.3,1.1,0.5,1.6c0.4,1,1,1.7,2,2.3c0.9,0.5,1.9,0.7,3,0.5c1-0.1,1.8-0.5,2.6-1.2
	c0.7-0.7,1.1-1.5,1.1-2.5c0.1-2.3-0.1-4.5-0.7-6.5c-0.6-2-1.6-4-3.1-5.8c-1.4-1.6-2.9-2.9-4.7-3.7c-1.7-0.8-3.6-1.5-5.6-1.9
	c-6-1-11.1,0.8-15.1,5.4c-1.5,1.8-2.6,3.8-3.2,6c-0.7,2.2-1,4.4-1,6.8V193.7z"/>
<path fill="#BC936B" d="M76.6,132.4c-1.9,1-3.1,0.4-4-0.4c-3.7-3.5-7.4-6.9-11.1-10.4c-1-0.7-1.4-1.9-2.3-2.8
	c-9.6-9.3-17.6-19.6-26.2-29.6c-1.8-2.1-3.6-4.2-5.7-6c-2.7,1.3-4.1,3.1-5.7,4.9c-1.7,1.8-3.5,3.9-5.4,5.7c-3,2.9-6.1,3.9-8.3,3.1
	c-2.5-0.8-2.8-3.8-0.4-7.5c1.4-2.1,3.1-4.3,4.9-6.2c7.1-7.6,14.4-14.9,23.7-20.1c3.3-1.8,6.3-4.3,9.4-6.3c1.9-1.2,3.7-2.4,5.6-3.2
	c2.8-1.2,5.8-0.9,7.1,0.5c1.2,1.3,1,3.8-0.9,5.9c-1.5,1.6-3.3,3.2-5.2,4.5c-4,2.9-8.1,5.6-12.5,9c0.5,0.7,1,1.3,1.5,2
	c2.3,3,4.8,6.1,7.2,9c10.4,13.5,19.3,28.3,27.3,43.3C76.3,129.2,77.4,130.6,76.6,132.4z M103.9,23.2c1-0.3,2.2-0.6,3.6-0.9
	c5.3-0.9,7.8,0.2,8.8,3.5c0.8,2.2,1.2,4.4,2,6.6c1.9,5.8,3.9,11.5,6,17.4c1.3,3.9,2.8,7.8,4.2,11.7c1.9,5.4,4.3,10.8,5.7,16.5
	c1.3,5.3,1.9,10.8,2.9,16.1c0.1,0.8-0.1,1.4-0.2,2.4c-1,0.2-1.6,0.5-2.8,0.8c-8.2-8.8-14.1-18.6-20.8-28.3
	c-5.2,1.6-8.6,4.7-12.7,7.1c0.2,3.3,1.5,6.3,2.8,9.2c2,4.7,4.2,9.5,6.4,14.2c0.3,0.8,0.7,1.7,1.1,2.5c1.6,3.2,0.9,6.1-1,9.2
	c-3.7,0.1-6.1-1.5-7.9-3.7c-3.4-3.8-5.7-8.1-8.3-12.3c-2.8-4.8-5.8-9.4-8.7-14.1c-4.2-6.9-8.4-13.6-12.7-20.3
	c-2.3-3.6-4.6-7.3-7-10.9c-1-1.8-1.6-3.6,0.7-6.4c1.9-1.4,4.3-3.2,6.9-4.9c5.4-2.3,9-1.1,11.1,1.6c2.8,3.7,5.4,7.7,7.5,11.7
	c1.7,3.5,2.8,7.4,4.3,11.1c0.6,1.3,1.3,2.5,1.9,3.8c4-1.7,6.7-3.9,10-5.9c-1.3-3.2-2.6-6.3-3.7-9.4c-1.8-5.5-3.5-11.1-5-16.7
	c-0.4-1.7-0.3-3.6,0.1-5.6C99.1,27,100.4,25,103.9,23.2z M147.8,40.9c1.7-0.5,3.2-1.1,4.8-1.5c1.3-0.4,2.7-0.7,4.1-0.7
	c3.6,0,5.9,2.4,4.7,5c-0.9,2.1-2.4,4.2-5.3,5.4c-2,0.7-3.9,1.6-5,3.3c2.3,8.5,4.5,17.1,6.7,25.9c0.7-0.2,1.7-0.2,2.6-0.4
	c1.6-0.3,3.1-0.8,4.6-0.9c2.2-0.1,3.9,0.6,4.9,2.3c1,1.7,0.5,3.2-0.8,4.5c-1.4,1.2-2.7,2.5-4.3,3.1c-3.4,1.3-6.7,3-8.9,5.6
	c-0.5,0.6-1.2,1-2,1.4c-3.5,1.7-6.9,0.1-7.2-3.5c0-0.9,0.2-1.8,0.4-2.5c-0.1-0.4-0.1-0.8-0.3-1c-2.9-4-4.9-8.4-6-13
	c-3.7-14.6-9-28.7-14.3-42.9c-0.7-2.3-1.5-4.6-2.1-6.9c-0.9-3.4,0.9-6.4,5.5-8.8c2-0.9,4.1-1.9,5.9-2.8c4.9-2.7,10-3,15-2.2
	c2.4,0.4,3.9,1.3,4.3,2.9c0.5,1.6-0.5,3.1-2.4,4.1c-1.6,0.9-3.4,1.5-5.2,2.3c-1.8,0.7-3.6,1.2-5.9,2c0.3,3.5,1.9,6.6,2.9,9.9
	C145.4,34.6,145.4,37.9,147.8,40.9z M225.7,42.9c6,5,6.8,10.8,6.1,16.8c-0.4,3.4-0.6,6.9-1.6,10.3c-2.8,10.1-11.3,13.6-21,14.8
	c-3.6,0.4-5.9-1-7-4.3c-1.2-3.3-2-6.7-2.5-10.2c-0.7-4.3-0.8-8.8-1.1-13.1C197.7,45,196.9,33,196,20.8c-0.1-3.2,0.4-6.2,0.6-9.4
	c0.1-1.1,0.7-2.2,1.2-3.2c2.6-4.9,8.5-7.2,16.2-6.2c12.6,1.8,19.1,8.1,22.3,16c1.8,4.6,1,9.1-1.3,13.4C233,35.5,230,39.2,225.7,42.9
	z M208.5,75.5c8.4-1.5,11.1-3.6,11.7-10.2c0.5-3.5,0.3-7,0.2-10.4c-0.1-1.7-0.5-3.5-2.9-4.7c-2.2-0.1-4.5-0.2-6.8-0.3
	C209.9,58.4,209.2,66.7,208.5,75.5z M212.1,38.6c2.9-1.1,5-2.5,6.2-4.5c3.3-5.6,3.6-11.3,0-17c-0.5-0.7-1.7-1.1-2.8-1.8
	c-3.4,2-4.8,4.4-4.6,7.2c0.1,4.8,0.3,9.7,0.4,14.6C211.6,37.7,211.8,38.1,212.1,38.6z M261,36.3c1.8,0.2,3.4,0.3,5,0.6
	c1.3,0.1,2.8,0.4,4,1c3.3,1.5,4.4,4.6,2.2,6.5c-1.7,1.5-3.8,2.8-7,2.8c-2.1-0.2-4.2-0.1-5.9,1c-1.4,8.7-2.9,17.4-4.4,26.4
	c0.8,0.1,1.6,0.5,2.6,0.7c1.6,0.4,3.1,0.5,4.6,1c2,0.8,3.3,2.1,3.5,4.1c0.2,1.9-0.8,3.2-2.6,3.8c-1.7,0.5-3.5,1.2-5.2,1.1
	c-3.7-0.2-7.3,0-10.4,1.5c-0.7,0.3-1.5,0.4-2.3,0.4c-3.8,0.1-6.3-2.7-5.1-6.1c0.3-0.8,0.9-1.5,1.4-2.1c0-0.4,0.2-0.7,0.1-1.1
	c-1.1-4.8-1.1-9.6-0.2-14.4c2.6-14.8,3.4-29.8,4.4-45c0.3-2.4,0.5-4.8,0.9-7.1c0.5-3.4,3.3-5.5,8.5-5.8c2.2,0,4.5,0,6.5-0.2
	C267,5,271.8,6.7,276,9.5c2.1,1.3,3.1,2.8,2.7,4.4c-0.2,1.6-1.7,2.6-3.9,2.7c-1.8,0.2-3.7,0-5.7,0c-1.9-0.1-3.8-0.4-6.2-0.5
	c-1.2,3.3-1,6.8-1.4,10.3C261.4,29.6,260,32.6,261,36.3z M297.3,73.4c-3.9-1.5-7.1-2.8-10.9-3.7c-0.8,1.3-1.6,2.5-2.4,3.7
	c-3.1,5.4-6.1,10.9-9.1,16.4c-0.9,1.4-1.5,3.3-4.2,3.4c-0.4-0.4-0.9-0.9-1.6-1.5c1-5.9,2-11.9,3.4-17.7c1.4-6.1,3.7-11.6,6.3-17.3
	c3.1-6.5,5.8-13.3,8-20.3c1.8-5.5,4.2-10.8,8.3-15.3c1.5-1.7,3.3-3.5,5.7-4.6c5.8-3,13.6-0.4,18,5.8c2.4,3.5,3.1,7.2,3.1,10.6
	c-0.1,6.5-1.4,12.7-3.6,18.5c-2.9,7.4-5.6,14.9-8.5,22.3c-2.1,5.2-4.3,10.5-6.6,15.7c-0.6,1.5-1.5,2.9-2.4,4.2
	c-1.3,1.8-3.4,2.5-5.4,1.8c-2.1-0.8-3.6-3-3.4-5.5c0.2-2,0.7-3.9,1.4-5.7c0.8-2.6,1.9-5.1,2.9-7.8C296.7,75.7,296.9,74.9,297.3,73.4
	z M300.5,64.3c0.6-2,1-3.3,1.5-4.7c1.2-3.3,1.9-6.6,3.3-9.7c2.7-5.9,3.4-12.2,3.6-18.8c0-1-0.5-2-0.9-3.7c-1.1,0.9-1.9,1.3-2.3,2
	c-1.7,2.8-3.6,5.4-5,8.3c-3.5,7.3-6.6,14.7-9.7,22.2c-0.1,0.4,0,0.9,0,1.7C294,62.6,296.9,63.3,300.5,64.3z M346.6,74.4
	c-0.4-4.7,0.7-9.2,3-13.3c1.3-2.3,2.7-4.6,3.9-7.1c0.5-1.3,1.4-2.5,0.1-4.8c-1,0.5-2.3,0.5-2.8,1.1c-3.2,3.2-6.4,6.5-8.9,10.2
	c-2.6,3.8-4.5,8-6.3,12.2c-3,7.1-5.9,14.4-9.1,21.5c-0.9,2-2.3,3.7-3.3,5.8c-0.6,0.9-1.2,1.8,0.3,3.5c0.8-0.1,1.8,0,2.4-0.4
	c2.1-1.4,4.2-2.8,6.1-4.3c2.7-2.1,5.3-4.2,8.1-6.3c0.7-0.4,1.7-0.5,2.9-0.8c0.3,1.1,0.7,1.8,0.6,2.4c-0.8,3.1-1.9,6.1-4.4,8.3
	c-3.2,2.7-6.2,5.7-9.6,8c-3.7,2.5-8.1,2.1-12.3-0.2c-2.3-1.3-4-3.1-5.1-5.3c-1.7-3.1-2.6-6.4-2.3-9.5c0.3-2.7,0.5-5.6,1.6-8
	c4.9-11.1,9.9-22.3,15.2-33.3c2-4.2,5.1-8.1,8.4-11.8c1.8-2.1,4.9-3.7,7.6-5.3c2.4-1.3,5.6-1.7,9.3-1.4c6.7,0.5,12.5,3.9,14.9,9.4
	c1.3,2.7,2,5.4,1.9,7.8c0,3.2-0.4,6.3-1.6,8.8c-2.1,4.2-4.8,8.2-7.4,12.1c-1.3,2.1-3.5,3.3-6.7,3.7
	C350.8,77.7,348.8,77.1,346.6,74.4z M421,82.8c0.7,0.8,1.6,1.8,2.5,3c3.3,4.7,3.5,7.4,0.9,9.7c-1.6,1.6-3.5,3-5.1,4.6
	c-4.4,4.2-8.7,8.5-13.1,12.9c-3,2.8-5.8,5.9-8.8,8.8c-4.1,4.1-7.9,8.6-12.4,12.2c-4.2,3.5-9,6.3-13.4,9.4c-0.6,0.5-1.4,0.5-2.3,0.8
	c-0.7-0.8-1.2-1.3-2.1-2.3c4.2-11.4,10.4-21,16.2-31.2c-3.9-4.1-8.3-6-12.4-8.7c-2.9,1.6-5.1,4.1-7.1,6.5c-3.4,3.8-6.7,7.9-10,11.9
	c-0.6,0.6-1.2,1.4-1.7,2.1c-2.2,2.9-5.2,3.5-8.8,3c-1.7-3.4-1.4-6.1-0.2-8.8c2-4.7,4.8-8.7,7.4-12.8c3.1-4.6,5.9-9.3,8.9-14
	c4.4-6.8,8.6-13.5,12.7-20.3c2.3-3.7,4.5-7.4,6.8-11c1.1-1.7,2.6-3,6.1-2.2c2.1,1.1,4.8,2.6,7.5,4.1c4.5,4,5.1,7.8,3.5,10.8
	c-2.1,4.1-4.5,8.2-7.2,11.9c-2.4,3.1-5.5,5.7-8.2,8.7c-0.9,1.1-1.7,2.2-2.6,3.3c3.4,3,6.7,4.5,10,6.8c2.4-2.5,4.6-5.1,6.9-7.4
	c4.2-4,8.5-7.9,12.9-11.7c1.4-1.1,3.2-1.8,5.2-2.3C415.3,80,417.8,80.3,421,82.8z M116.9,308.2c-0.3,2.6-0.6,5-0.8,7
	c-0.7,6.1-3.8,9.2-9.3,9.2c-4.6,0-7-2.4-7-7.3c0-1.2,0.4-4.6,1.1-10.4c0.7-5.8,1.9-13.6,3.5-23.4c2.7-16.6,5.8-30.5,9.4-41.4
	c3.1-9.4,7.3-14.2,12.9-14.2c4.5,0,8.1,2.6,11,7.8c1.8,3.3,3.5,8.1,5.2,14.2c4.4,16.5,8.1,36.1,11.1,58.9c0.4,3,0.6,5.4,0.6,7.3
	c0,2.3-0.2,4.1-0.7,5.3c-0.8,2.1-2.4,3.2-4.8,3.2c-2.9,0-4.5-1.9-5-5.8c-0.6-5.4-1.2-11-2-16.6c-0.2-2-1.5-3-3.7-3h-17.3
	c-1.9,0-3.1,1.1-3.4,3.2C117.5,303.5,117.3,305.5,116.9,308.2z M137.6,291c1.7,0,2.6-0.8,2.6-2.5c0-0.4-0.6-4.7-1.9-12.9
	c-3.4-21.9-6.2-32.8-8.3-32.8c-1.4,0-4,10.8-7.8,32.5c-1.5,8.5-2.2,12.9-2.2,13.3c0,1.6,0.9,2.4,2.6,2.4H137.6z M211.6,322.5
	c-2.7,0-5-1.6-6.9-4.7c-4.3-6.8-10.5-17.2-18.6-31.2c-4.2-7.2-6.6-10.9-7.1-10.9c-0.5,0-0.7,1-0.7,2.9V314c0,6.9-2.6,10.4-7.9,10.4
	c-2.5,0-4.3-0.7-5.5-2.2c-1.2-1.4-1.8-4.3-1.8-8.7v-75c0-4.2,0.6-7,1.7-8.5c1.1-1.5,3-2.3,5.6-2.3c2.2,0,3.9,0.9,5.2,2.6
	c1.3,1.8,2,4.3,2,7.7c0,10.8,3.9,22.6,11.7,35.4l14.8,24.3c0.9,1.5,1.6,2.2,2.1,2.2c0.5,0,0.7-0.9,0.7-2.7v-61.7
	c0-2.6,0.3-4.5,1-5.9c0.6-1.4,1.8-2,3.6-2c3.6,0,5.3,2.7,5.3,8v80.8C217,320.5,215.2,322.5,211.6,322.5z M244.5,324.3
	c-6.1,0-9.1-3.6-9.1-10.9v-75c0-7.2,3-10.8,9.1-10.8c9,0,16.6,2.1,23,6.3c12.2,8.1,18.3,22.8,18.3,44.2c0,9.5-1.7,17.7-5,24.7
	c-2.9,5.9-6.8,10.6-11.9,14.2C261.9,321.9,253.8,324.3,244.5,324.3z M253.3,314c4.3,0,8.1-1.7,11.5-5.2c2.9-2.9,5.2-6.6,7-11.1
	c2.7-6.2,4-13.1,4-20.5c0-9.8-1.6-18.2-4.7-25c-1.7-3.8-3.7-6.7-6.2-8.8c-3.2-2.9-6.7-4.4-10.5-4.4c-2.5,0-3.8,1.1-3.8,3.2v68.6
	C250.6,312.9,251.5,314,253.3,314z M343,323.2h-20.9c-3.1,0-4.6-1.1-4.6-3.2c0-2.7,1.7-4.1,5-4.1c1.1,0,1.9-0.2,2.4-0.5
	s0.7-0.9,0.7-1.6v-75.7c0-1.4-0.7-2.1-2-2.2c-1.9-0.1-3.1-0.3-3.9-0.7c-1.5-0.7-2.2-1.9-2.2-3.5c0-2,1.7-3,5-3h21.1c3.3,0,5,1,5,3
	c0,1.6-0.7,2.8-2.2,3.5c-0.7,0.4-2.1,0.6-4.1,0.7c-1.2,0.1-1.7,0.6-1.7,1.7v76.7c0,1,0.5,1.6,1.6,1.7c1.8,0.1,3,0.3,3.7,0.7
	c1.4,0.8,2.1,2,2.1,3.5C347.9,322.2,346.3,323.2,343,323.2z M346.7,267.4c0.1,0.5,0.6,1.2,0.9,1.2c0.1,0,0.2,0.1,0.2,0.1
	c0,0.1,0.5,0.2,1.2,0.3c0.6,0.1,2.2,0.3,3.5,0.6c6,1,11.7,1.5,17.8,1.3c11-0.3,17.9-1.3,23.7-3.5c4.3-1.6,7.6-4.1,10.7-7.9
	c2.3-2.8,4.5-7.5,5.1-10.6c0.1-0.5,0.1-2.1,0.1-3.5c-0.1-2.2-0.1-2.8-0.5-4c-0.8-2.7-2.2-5-4.6-7.7c-2.2-2.4-4.3-3.9-7.2-5
	c-1.5-0.6-3.2-1-5-1.2c-1-0.1-4.1,0-5.3,0.3c-5.9,1.2-9.9,4.3-12.4,9.4c-0.9,1.8-1.3,3.5-1.4,5.7c-0.1,1.6,0,2,0.3,3.4
	c1,4,3.4,7,6.7,8.3c5,2.1,9.9,1.7,13.9-1.2c1.7-1.2,2.1-1.8,1.9-2.7c-0.1-0.6-0.6-1.3-0.9-1.3c-0.1,0-0.2-0.1-0.2-0.2
	c-0.1-0.4-1.3-0.2-2,0.2c-2.5,1.8-3.6,2.2-5.8,2.5c-1.5,0.2-1.9,0.1-3.6-0.3c-2.4-0.7-3.5-1.3-4.8-3c-0.8-1-0.8-1.1-0.8-2.2
	c0-1.6,0.6-2.7,2.1-4.2c1.8-1.8,2.6-2.3,5.4-3.7c3.6-1.8,4.4-2,8.2-2c2.8,0,3,0,4.3,0.4c1.1,0.4,2.6,1,4.9,2.1
	c0.6,0.3,2,1.6,2.3,2.2c0.2,0.4,0.4,0.9,0.4,1.3c0,0.4,0.1,1.3,0.2,2.1l0.2,1.4l-0.9,1.9c-1.9,3.9-4.5,6.1-10.6,9.2
	c-4.5,2.3-13.2,4.9-19.1,5.8c-6.4,1-14.4,1.6-22.6,1.8c-2.5,0-4.7,0.2-4.9,0.3C347.2,265.4,346.5,266.5,346.7,267.4z M413.4,274.7
	c3.6-0.8,7.4-2.7,9.8-5.1c3.2-3.1,3.5-8.1,0.6-11c-1.1-1.1-1.8-1.6-2.7-1.9c-2.4-0.9-4.6,0.2-6.1,3c-1.2,2.2-2,3.4-2.8,4.2
	c-1.1,1.1-3.1,2.5-4.8,3.3c-1.5,0.8-5.2,2.1-6.5,2.3c-0.9,0.1-1.6,0.5-1.7,1c-0.1,0.2-0.2,0.4-0.2,0.4c-0.2,0-0.2,0.9,0,1.7
	c0.2,0.7,0.8,1.3,1.6,1.5c0.3,0.1,1.6,0.3,2.9,0.5C406.7,275.2,411.1,275.2,413.4,274.7z M400.3,280.6c3.8,1.8,6.3,4.1,8.1,7.1
	c0.8,1.3,1.2,2.5,1.5,4.5c0.3,2,0.7,2.9,1.6,3.8c1.9,2,4.9,2,7.2-0.1c1.6-1.5,2.4-3.5,2.4-5.9c0-3.1-0.7-5-2.8-7.1
	c-1.5-1.6-3.4-2.9-5.9-4.2c-3-1.5-5.1-2.2-8.4-2.6c-2.2-0.3-4.6-0.4-4.6-0.2c0,0.1-0.1,0.2-0.2,0.2c-0.3,0-1,0.7-1.3,1.2
	c-0.3,0.5-0.3,1.3-0.1,1.3c0.1,0,0.2,0.1,0.2,0.2C397.9,279.3,398.6,279.8,400.3,280.6z M347.5,283.3c-0.3,0.4-0.5,1.5-0.3,1.5
	c0.1,0,0.2,0.2,0.2,0.5c0.1,0.6,0.5,1.2,0.8,1.3c0.1,0,0.2,0.1,0.2,0.2c0,0.1,0.7,0.2,1.9,0.2c1,0,3,0.2,4.5,0.3
	c1.5,0.1,4.1,0.4,5.8,0.5c3.7,0.3,6.7,0.7,10.8,1.4c7.7,1.4,13.8,3.4,19.6,6.4c2.8,1.5,4.2,2.5,5.9,4.1c3.5,3.4,4.8,6.5,4.9,11.7
	c0,1.8,0,1.8-0.5,2.6c-1.1,1.7-3.4,3.3-6.2,4.2c-1.5,0.5-1.5,0.5-4.7,0.5c-2.9,0-3.3,0-4.5-0.4c-2.3-0.7-3.9-1.5-5.3-3
	c-0.7-0.7-1.4-1.5-1.6-1.7c-0.3-0.4-0.3-0.4,0-1c0.4-0.8,2.7-2.9,3.6-3.4c1.1-0.5,2.6-0.8,5.2-1.1c1.1-0.1,2.4-0.2,2.8-0.2
	c0.8-0.1,1.8-0.5,1.8-0.7c0-0.1,0.1-0.3,0.3-0.4c0.4-0.4,0.2-1.3-0.4-1.8c-0.6-0.6-1.3-0.7-4.5-0.6c-5.1,0.2-7.6,1.2-10.6,4.4
	c-1.5,1.6-2,2.7-2.3,4.7c-0.4,2.4,0,4.5,1.1,6.9c2.4,5.1,6.4,7.3,13.2,7.3c4.9,0,7.9-1,10.8-3.7c0.5-0.5,1.3-1.5,1.8-2.2
	c0.5-0.8,1.1-1.8,1.4-2.2c0.6-0.9,1.3-2.6,2-4.4c1-2.7,0.6-8.7-0.9-12.8c-0.8-2.2-2.4-5.6-3.4-7.1c-2.4-3.6-6.2-7.3-9.4-9.1
	c-2-1.2-5.1-2.3-7.7-2.9c-3.4-0.8-9-1.5-13.2-1.7c-3.2-0.2-12-0.1-14.7,0.2c-3.9,0.3-7,0.7-7.5,0.8
	C348,282.8,347.6,283.1,347.5,283.3z M98.2,265.1c-0.2-0.1-2.4-0.2-4.9-0.3c-8.2-0.2-16.2-0.8-22.6-1.8c-6-0.9-14.6-3.5-19.1-5.8
	c-6.1-3.1-8.7-5.3-10.6-9.2l-0.9-1.9l0.2-1.4c0.1-0.8,0.2-1.8,0.2-2.1c0-0.4,0.2-1,0.4-1.3c0.3-0.6,1.7-1.9,2.3-2.2
	c2.3-1.1,3.8-1.7,4.9-2.1c1.3-0.4,1.5-0.5,4.3-0.4c3.8,0,4.6,0.2,8.2,2c2.8,1.4,3.6,2,5.4,3.7c1.5,1.5,2,2.6,2.1,4.2
	c0,1.1,0,1.1-0.8,2.2c-1.3,1.7-2.3,2.3-4.8,3c-1.7,0.5-2.1,0.5-3.6,0.3c-2.3-0.3-3.3-0.7-5.8-2.5c-0.7-0.5-1.9-0.6-2-0.2
	c0,0.1-0.1,0.2-0.2,0.2c-0.3,0-0.8,0.7-0.9,1.3c-0.2,0.9,0.3,1.5,1.9,2.7c4.1,2.9,8.9,3.3,13.9,1.2c3.2-1.3,5.6-4.3,6.7-8.3
	c0.4-1.4,0.4-1.8,0.3-3.4c-0.1-2.2-0.5-3.9-1.4-5.7c-2.5-5.1-6.5-8.2-12.4-9.4c-1.2-0.3-4.3-0.4-5.3-0.3c-1.8,0.2-3.5,0.6-5,1.2
	c-3,1.1-5.1,2.6-7.2,5c-2.4,2.7-3.8,5.1-4.6,7.7c-0.4,1.2-0.4,1.8-0.5,4c0,1.4,0,3,0.1,3.5c0.6,3.2,2.8,7.8,5.1,10.6
	c3.1,3.9,6.5,6.3,10.7,7.9c5.9,2.2,12.7,3.2,23.7,3.5c6.1,0.1,11.8-0.3,17.8-1.3c1.3-0.2,2.8-0.5,3.5-0.6c0.6-0.1,1.2-0.2,1.2-0.3
	c0-0.1,0.1-0.1,0.2-0.1c0.3,0,0.8-0.7,0.9-1.2C99.8,266.5,99.1,265.4,98.2,265.1z M42.9,274.7c1.3-0.2,2.6-0.4,2.9-0.5
	c0.8-0.2,1.4-0.8,1.6-1.5c0.2-0.8,0.2-1.7,0-1.7c-0.1,0-0.2-0.2-0.2-0.4c-0.1-0.4-0.8-0.9-1.7-1c-1.3-0.2-4.9-1.5-6.5-2.3
	c-1.8-0.9-3.7-2.2-4.8-3.3c-0.8-0.8-1.6-2-2.8-4.2c-1.5-2.8-3.7-3.8-6.1-3c-0.9,0.3-1.6,0.8-2.7,1.9c-2.8,2.8-2.6,7.8,0.6,11
	c2.4,2.3,6.2,4.3,9.8,5.1C35.3,275.2,39.6,275.2,42.9,274.7z M48.5,278.9c0-0.1,0.1-0.2,0.2-0.2c0.2,0,0.2-0.9-0.1-1.3
	c-0.3-0.5-1-1.2-1.3-1.2c-0.1,0-0.2-0.1-0.2-0.2c0-0.3-2.4-0.2-4.6,0.2c-3.3,0.5-5.4,1.2-8.4,2.6c-2.6,1.3-4.4,2.6-5.9,4.2
	c-2,2.1-2.7,4-2.8,7.1c0,2.4,0.8,4.4,2.4,5.9C30,298,33,298,34.9,296c0.9-0.9,1.3-1.8,1.6-3.8c0.3-2,0.7-3.2,1.5-4.5
	c1.8-3,4.3-5.3,8.1-7.1C47.8,279.8,48.5,279.3,48.5,278.9z M98.1,282.7c-0.5-0.2-3.6-0.5-7.5-0.8c-2.7-0.2-11.5-0.3-14.7-0.2
	c-4.2,0.2-9.9,0.9-13.2,1.7c-2.6,0.6-5.6,1.8-7.7,2.9c-3.2,1.9-6.9,5.5-9.4,9.1c-1,1.5-2.6,4.9-3.4,7.1c-1.4,4.1-1.8,10-0.9,12.8
	c0.7,1.9,1.4,3.5,2,4.4c0.3,0.5,0.9,1.5,1.4,2.2c0.4,0.8,1.2,1.8,1.8,2.2c2.9,2.7,5.9,3.7,10.8,3.7c6.8,0,10.8-2.2,13.2-7.3
	c1.2-2.4,1.5-4.5,1.1-6.9c-0.3-2-0.8-3.1-2.3-4.7c-3-3.2-5.4-4.3-10.6-4.4c-3.2-0.1-3.9,0-4.5,0.6c-0.6,0.6-0.8,1.5-0.4,1.8
	c0.1,0.1,0.3,0.3,0.3,0.4c0,0.2,1,0.6,1.8,0.7c0.4,0,1.6,0.1,2.8,0.2c2.6,0.2,4.1,0.5,5.2,1.1c1,0.5,3.2,2.6,3.6,3.4
	c0.3,0.5,0.3,0.6,0,1c-0.1,0.2-0.9,1-1.6,1.7c-1.5,1.5-3,2.3-5.3,3c-1.2,0.3-1.6,0.4-4.5,0.4c-3.2,0-3.2,0-4.7-0.5
	c-2.8-0.9-5.1-2.5-6.2-4.2c-0.5-0.8-0.5-0.9-0.5-2.6c0.1-5.2,1.4-8.3,4.9-11.7c1.8-1.7,3.2-2.7,5.9-4.1c5.7-3,11.9-5,19.6-6.4
	c4-0.7,7-1.1,10.8-1.4c1.7-0.1,4.3-0.4,5.8-0.5C93,287.1,95,287,96,287c1.2,0,1.9-0.1,1.9-0.2c0-0.1,0.1-0.2,0.2-0.2
	c0.3,0,0.7-0.6,0.8-1.3c0.1-0.3,0.2-0.5,0.2-0.5c0.2,0,0-1-0.3-1.5C98.7,283.1,98.3,282.8,98.1,282.7z"/>
</svg>
