<?xml version="1.0" encoding="utf-8"?>
<!-- Generator: Adobe Illustrator 18.0.0, SVG Export Plug-In . SVG Version: 6.00 Build 0)  -->
<!DOCTYPE svg PUBLIC "-//W3C//DTD SVG 1.1//EN" "http://www.w3.org/Graphics/SVG/1.1/DTD/svg11.dtd">
<svg version="1.1" id="Layer_1" xmlns="http://www.w3.org/2000/svg" xmlns:xlink="http://www.w3.org/1999/xlink" x="0px" y="0px"
	 viewBox="0 0 432 432" enable-background="new 0 0 432 432" xml:space="preserve">
<path fill="#BC936B" d="M106.5,392.7c-3-0.1-5.4-0.3-8.2-0.1c-0.3,1.3-0.6,2.5-0.9,3.7l-3.1,16c-0.4,1.4-0.5,3.1-2.5,3.8
	c-0.4-0.3-0.9-0.6-1.5-1c-0.4-5.2-0.8-10.5-0.8-15.7c-0.1-5.4,0.6-10.7,1.3-16c1-6.2,1.5-12.6,1.7-19c0.2-5.1,0.8-10.1,2.4-14.9
	c0.6-1.8,1.3-3.7,2.5-5.2c2.8-3.9,7.3-3.9,11-0.1c2,2.2,3.1,5,3.9,7.7c1.3,5.3,2.1,10.8,2.2,16.2c0.1,7,0.3,13.9,0.4,20.9
	c0,5,0,9.9-0.1,14.9c0,1.4-0.2,2.9-0.5,4.2c-0.4,1.9-1.7,3.2-3.3,3.2c-1.7,0-3.4-1.3-3.9-3.5c-0.4-1.7-0.5-3.4-0.5-5.2
	c-0.1-2.4,0.1-4.8,0.1-7.3C106.6,394.7,106.6,394,106.5,392.7z M106.5,384.2c-0.1-1.8-0.1-3.1-0.1-4.3c0-3.1-0.3-6-0.1-9
	c0.4-5.6-0.6-11.1-1.7-16.6c-0.2-0.9-0.7-1.5-1.2-2.8c-0.5,1-0.9,1.6-1,2.3c-0.5,2.8-1.1,5.4-1.3,8.3c-0.7,7.1-1.1,14-1.7,21.1
	c0,0.4,0.2,0.8,0.4,1.4C101.9,384.6,103.9,384.4,106.5,384.2z M155.3,375.4c-1.7-3.4-2.5-7.3-2.5-11.4c0-2.3,0.1-4.7,0-7.1
	c-0.1-1.2,0-2.5-1.3-3.7c-0.4,0.8-1,1.3-1.1,2c-0.8,3.8-1.6,7.6-1.9,11.5c-0.4,4-0.2,8,0,12c0.4,6.8,1,13.5,1.3,20.4
	c0.1,1.9-0.2,3.8-0.2,5.8c-0.1,1-0.2,1.9,1.4,2.6c0.5-0.4,1.1-0.8,1.4-1.3c0.9-1.9,1.7-3.9,2.4-5.9c1-2.8,1.8-5.5,2.8-8.3
	c0.3-0.7,0.9-1.1,1.4-1.9c0.6,0.7,1,1.1,1.2,1.5c0.7,2.7,1.1,5.4,0.4,8.2c-1,3.5-1.7,7.1-3.1,10.4c-1.4,3.5-4.6,5.2-8.4,5.1
	c-2.1-0.1-3.9-0.9-5.4-2.1c-2.3-1.8-3.9-4.1-4.7-6.7c-0.7-2.3-1.3-4.7-1.3-7c0-10.7,0-21.4,0.3-32.1c0.1-4.1,0.9-8.3,1.7-12.4
	c0.5-2.4,1.7-4.8,2.8-7.1c1-1.9,2.5-3.4,4.5-4.7c3.5-2.3,7.3-2.1,10,0.9c1.4,1.4,2.6,3.2,3.2,5c1,2.4,1.7,4.9,1.9,7.3
	c0.3,4.1,0.2,8.3,0.1,12.4c0,2.2-0.8,4.1-2.4,5.8C158.7,376,157.4,376.5,155.3,375.4z M182.3,392.7c-3-0.1-5.4-0.3-8.2-0.1
	c-0.3,1.3-0.6,2.5-0.9,3.7l-3.1,16c-0.4,1.4-0.5,3.1-2.5,3.8c-0.4-0.3-0.9-0.6-1.5-1c-0.4-5.2-0.8-10.5-0.8-15.7
	c-0.1-5.4,0.6-10.7,1.3-16c1-6.2,1.5-12.6,1.7-19c0.2-5.1,0.8-10.1,2.4-14.9c0.6-1.8,1.3-3.7,2.5-5.2c2.8-3.9,7.3-3.9,11-0.1
	c2,2.2,3.1,5,3.9,7.7c1.3,5.3,2.1,10.8,2.2,16.2c0.1,7,0.3,13.9,0.4,20.9c0,5,0,9.9-0.1,14.9c0,1.4-0.2,2.9-0.5,4.2
	c-0.4,1.9-1.7,3.2-3.3,3.2c-1.7,0-3.4-1.3-3.9-3.5c-0.4-1.7-0.5-3.4-0.5-5.2c-0.1-2.4,0.1-4.8,0.1-7.3
	C182.5,394.7,182.4,394,182.3,392.7z M182.3,384.2c-0.1-1.8-0.1-3.1-0.1-4.3c0-3.1-0.3-6-0.1-9c0.4-5.6-0.6-11.1-1.7-16.6
	c-0.2-0.9-0.7-1.5-1.2-2.8c-0.5,1-0.9,1.6-1,2.3c-0.5,2.8-1.1,5.4-1.3,8.3c-0.7,7.1-1.1,14-1.7,21.1c0,0.4,0.2,0.8,0.4,1.4
	C177.7,384.6,179.7,384.4,182.3,384.2z M222.2,380.7c-0.3,1.1-0.7,2.2-1,3.3l-2.3,10.5c-0.4,1.3-0.7,2.7-1.2,3.9
	c-1.5,3.1-5.2,2.9-7.2-0.2c-0.5-0.9-0.9-1.9-1-2.9c-0.7-3.5-1.2-7-1.8-10.5c-0.2-1.2,0-2.5-1-3.8c-0.3,0.6-0.5,0.9-0.6,1.2
	c-0.8,8-1.6,16-2.5,24c-0.2,1.8-0.7,3.6-1.1,5.3c-0.1,0.6-0.8,1-1.3,1.7c-0.8-0.8-1.6-1.3-1.7-2c-0.5-1.9-0.9-3.9-1-5.8
	c-0.4-5.2-0.7-10.2-1-15.3c-0.1-1.6-0.3-3.1-0.6-4.7c-1.9-9.1-1.5-18-1-27c0.2-2.4,0.3-4.8,0.6-7.2c0.2-1.3,0.5-2.8,1-4
	c0.8-2,2.3-3.1,4.9-2.2c1.4,1.1,3,2.5,4.8,4.1c1.9,3.6,3.1,7.8,4.2,11.9c1,4,2,8,3.1,12c1.2,0.1,1.1-0.8,1.3-1.3l7.7-23.5
	c0.6-1.6,1.5-3.1,2.4-4.8c0.6-1,1.5-1.8,3.1-1.9c2.3,0.4,3.3,1.9,3.6,4.1c0.2,1.1,0.2,2.3,0.2,3.4c-0.3,8.1-0.5,16.2-0.9,24.3
	c-0.1,3-0.6,5.9-0.9,8.8c-0.5,4.6-1,9.2-1.4,13.7c-0.3,3.8-0.5,7.5,0.1,11.5c0.1,1,0.2,2.2,0.1,3.3c-0.1,2-0.5,2.6-2.6,4.3
	c-1.1,0.1-2.1-0.4-2.6-1.3c-1.3-2.5-2.6-4.9-2.8-7.6c-0.5-6.7-0.3-13.3,0.5-19.8l0.6-5.7C222.5,380.8,222.4,380.7,222.2,380.7z
	 M248.1,390.4c-0.2,5.4-0.6,10.5-0.7,15.6c-0.1,2.7-0.8,5.2-2,7.4c-0.4,0.7-1,1-1.7,1.7c-0.9-0.6-1.8-0.9-2.1-1.5
	c-1-1.6-1.9-3.2-2.3-5c-0.7-2.9-1.1-5.8-1.1-8.8c-0.2-6.1-0.2-12.2,0-18.2c0.3-6.9,0.1-13.6-0.7-20.4c-0.4-3.6-0.2-7.2,1-10.6
	c0.7-1.8,1.5-3.5,2.6-5.1c2.2-3.2,5.4-4.2,9.4-3.6c6.1,1,13.3,5.2,14.5,14.2c0.5,3.3,1,6.7,0.7,10c-0.4,4.5-1.8,8.5-4.4,12.1
	c-2.9,3.9-6.3,7.3-10.3,10.1C250,389.1,249.1,389.7,248.1,390.4z M248.4,378.8c0.4,0,0.6,0,0.7-0.1c3-2.9,5.3-6.2,6.9-10.2
	c1-2.8,1.2-5.8,0.3-8.9c-0.6-1.7-1.3-3.4-2.1-5.1c-0.3-0.6-0.9-1-1.4-1.4c-1.9,2-2.5,4.4-2.8,6.9c-0.5,4.4-0.9,8.7-1.2,13.1
	C248.5,375,248.5,376.9,248.4,378.8z M281.6,369.1c1.1-0.1,2.2-0.3,3.2-0.3c0.9-0.1,1.8-0.1,2.7,0.2c2.3,0.7,3.4,3.1,2.3,5.2
	c-0.9,1.6-2.1,3.1-4.2,3.6c-1.4,0.2-2.8,0.6-3.8,1.8c0.1,7.7,0.1,15.5,0.1,23.5c0.6,0,1.2,0.2,2,0.2c1.2,0.1,2.4-0.1,3.5,0.1
	c1.6,0.3,2.8,1.2,3.2,2.9c0.5,1.6-0.1,2.9-1.3,3.7c-1.2,0.8-2.5,1.6-3.8,1.8c-2.9,0.5-5.6,1.1-7.9,2.9c-0.5,0.4-1.1,0.6-1.8,0.7
	c-3.1,0.6-5.2-1.7-4.6-4.8c0.2-0.8,0.6-1.4,0.9-2c0-0.4,0.1-0.7,0-1c-1.2-4.1-1.6-8.3-1.3-12.5c0.7-13.2,0.1-26.3-0.3-39.6
	c0-2.1,0-4.2,0.1-6.3c0.1-3.1,1.6-5.1,4.6-5.9c1.2-0.3,2.6-0.6,3.7-0.9c3.1-1.1,6-0.4,8.8,1.2c1.3,0.8,2.1,1.8,2.1,3.2
	c0.1,1.4-0.7,2.6-1.9,3.1c-1,0.5-2.2,0.7-3.3,1c-1.1,0.2-2.3,0.3-3.7,0.5c-0.4,3.1,0.1,6,0.2,9.1
	C281.1,363.2,280.5,366.1,281.6,369.1z M301.7,414.5l-3.4-2.1c-1.7-2.9-2.6-5.9-2.7-9.2c-0.6-10.5-1.2-20.9-0.8-31.3
	c0.1-3.3-0.1-6.8,0-10.1c0.2-4.9,1.1-9.5,3.7-13.6c3.8-6.1,11.4-7.4,17.1-3.1c2.4,1.7,4.1,3.9,5.1,6.7c1.1,3,1.7,6,1.2,9.1
	c-0.9,4.9-1.8,9.7-3.8,14.2c-1.3,2.8-3.1,5.3-4.8,8.3c0,0,0.2,0.6,0.4,1c3.9,6,5.6,12.8,7.2,19.7c0.7,3.1,0,5.8-1.2,8.5
	c-0.4,0.7-1,1.1-1.7,2c-0.8-0.9-1.6-1.4-2-2.2c-1-2.1-2-4.4-2.8-6.7c-1.2-3.5-2.1-7.2-3.2-10.8c-0.8-2.3-1.7-4.5-3.2-6.3
	c-1.1,0.2-0.9,1.1-0.9,1.6c-0.1,2.7,0,5.3-0.1,8c-0.1,4.4-0.7,8.8-1.8,13.1C303.5,412.5,303.1,413.9,301.7,414.5z M308.3,350.8
	c-1.8,2-2.2,4.3-2.3,6.5c-0.2,5.4-0.2,11-0.3,16.4c0,0.7-0.1,1.3,0.9,1.8c1.8-1.5,2.6-3.9,3.9-5.8c2.8-4.1,2.7-8.6,1.7-13.1
	C311.8,354.3,310.9,352.2,308.3,350.8z M94,194.9c-0.2,1-0.5,2.1-0.7,3.3l-1.7,10.2c-0.3,1.3-0.5,2.6-0.9,3.8
	c-1.1,3-3.9,2.8-5.3-0.2c-0.3-0.8-0.6-1.9-0.8-2.8c-0.5-3.4-0.9-6.8-1.3-10.2c-0.1-1.2,0-2.4-0.8-3.7c-0.2,0.6-0.3,0.8-0.4,1.2
	c-0.6,7.8-1.2,15.6-1.8,23.5c-0.1,1.8-0.5,3.5-0.8,5.2c-0.1,0.6-0.6,0.9-1,1.7c-0.6-0.7-1.2-1.3-1.3-2c-0.3-1.9-0.6-3.8-0.7-5.7
	c-0.3-5-0.5-10-0.8-14.9c-0.1-1.6-0.2-3.1-0.4-4.6c-1.4-8.8-1.1-17.6-0.8-26.4c0.1-2.3,0.2-4.7,0.4-7c0.1-1.3,0.4-2.7,0.7-3.9
	c0.6-2,1.7-3,3.6-2.1c1.1,1.1,2.2,2.4,3.5,4c1.4,3.5,2.2,7.6,3.1,11.6c0.8,3.9,1.5,7.8,2.2,11.7c0.9,0.1,0.8-0.7,1-1.3l5.7-22.9
	c0.4-1.6,1.1-3.1,1.8-4.7c0.4-1,1.1-1.8,2.2-1.9c1.7,0.4,2.5,1.9,2.7,4c0.1,1.1,0.1,2.2,0.1,3.4c-0.2,7.9-0.4,15.8-0.6,23.7
	c-0.1,2.9-0.4,5.8-0.6,8.6c-0.3,4.5-0.8,8.9-1.1,13.4c-0.2,3.7-0.4,7.4,0.1,11.2c0.1,1,0.1,2.1,0.1,3.3c-0.1,2-0.4,2.5-1.9,4.2
	c-0.8,0.1-1.5-0.4-1.9-1.3c-1-2.4-1.9-4.8-2-7.5c-0.3-6.5-0.2-12.9,0.4-19.4l0.4-5.6C94.3,195,94.2,194.9,94,194.9z M113.3,183.7
	c0.8-0.1,1.6-0.3,2.4-0.3c0.6-0.1,1.3-0.1,2,0.2c1.7,0.6,2.5,3.1,1.7,5c-0.6,1.6-1.5,3.1-3.1,3.5c-1.1,0.2-2,0.6-2.8,1.8
	c0.1,7.5,0.1,15.1,0.1,22.9c0.4,0,0.9,0.2,1.5,0.2c0.9,0.1,1.8-0.1,2.6,0.1c1.2,0.3,2,1.2,2.4,2.8c0.4,1.6-0.1,2.8-1,3.6
	c-0.9,0.7-1.8,1.6-2.8,1.8c-2.1,0.5-4.1,1.1-5.8,2.8c-0.3,0.4-0.8,0.6-1.3,0.6c-2.2,0.6-3.9-1.7-3.4-4.7c0.1-0.7,0.4-1.4,0.6-2
	c0-0.4,0.1-0.7,0-0.9c-0.9-4-1.2-8.1-1-12.2c0.5-12.9,0.1-25.7-0.2-38.6c0-2,0-4.1,0.1-6.1c0.1-3,1.2-4.9,3.4-5.8
	c0.9-0.3,1.9-0.6,2.7-0.9c2.3-1.1,4.4-0.4,6.5,1.2c1,0.7,1.5,1.8,1.5,3.2c0.1,1.4-0.5,2.5-1.4,3c-0.8,0.5-1.6,0.7-2.5,0.9
	c-0.8,0.2-1.7,0.3-2.7,0.5c-0.3,3,0.1,5.9,0.1,8.8C113,177.9,112.6,180.7,113.3,183.7z M143.4,194.9c-0.2,1-0.5,2.1-0.7,3.3
	l-1.7,10.2c-0.3,1.3-0.5,2.6-0.9,3.8c-1.1,3-3.9,2.8-5.3-0.2c-0.3-0.8-0.6-1.9-0.8-2.8c-0.5-3.4-0.9-6.8-1.3-10.2
	c-0.1-1.2,0-2.4-0.8-3.7c-0.2,0.6-0.3,0.8-0.4,1.2c-0.6,7.8-1.2,15.6-1.8,23.5c-0.1,1.8-0.5,3.5-0.8,5.2c-0.1,0.6-0.6,0.9-1,1.7
	c-0.6-0.7-1.2-1.3-1.3-2c-0.3-1.9-0.6-3.8-0.7-5.7c-0.3-5-0.5-10-0.8-14.9c-0.1-1.6-0.2-3.1-0.4-4.6c-1.4-8.8-1.1-17.6-0.8-26.4
	c0.1-2.3,0.2-4.7,0.4-7c0.1-1.3,0.4-2.7,0.7-3.9c0.6-2,1.7-3,3.6-2.1c1.1,1.1,2.2,2.4,3.5,4c1.4,3.5,2.2,7.6,3.1,11.6
	c0.8,3.9,1.5,7.8,2.2,11.7c0.9,0.1,0.8-0.7,1-1.3l5.7-22.9c0.4-1.6,1.1-3.1,1.8-4.7c0.4-1,1.1-1.8,2.2-1.9c1.7,0.4,2.5,1.9,2.7,4
	c0.1,1.1,0.1,2.2,0.1,3.4c-0.2,7.9-0.4,15.8-0.6,23.7c-0.1,2.9-0.4,5.8-0.6,8.6c-0.3,4.5-0.8,8.9-1.1,13.4
	c-0.2,3.7-0.4,7.4,0.1,11.2c0.1,1,0.1,2.1,0.1,3.3c-0.1,2-0.4,2.5-1.9,4.2c-0.8,0.1-1.5-0.4-1.9-1.3c-1-2.4-1.9-4.8-2-7.5
	c-0.3-6.5-0.2-12.9,0.4-19.4l0.4-5.6C143.6,195,143.5,194.9,143.4,194.9z M154.7,204.9c-0.7-11.5-0.1-22.6,1.8-33.5
	c0.6-3.4,1.6-6.6,3.1-9.5c0.9-1.7,2-3.1,3.8-3.2c0.6-0.1,1.1-0.4,1.5-0.6c3.5-1.2,6.5,0.3,8.7,4.7c1.6,3.4,2.7,7.1,3,10.9
	c0.3,2.8,0.3,5.5,0.3,8.2c0.1,12.7-1,24.9-3.9,36.5c-0.3,1.4-0.7,2.9-1.2,4.3c-0.6,1.8-1.5,3.2-2.9,4.2c-2.3,1.8-4.7,1.5-7.1-0.7
	c-1.8-1.6-3.1-3.7-4-6.2C156.2,215,154.9,210.1,154.7,204.9z M165.1,219.1c0.4-0.3,0.6-0.4,0.7-0.7c0.2-0.6,0.4-1.3,0.6-2
	c2-7.8,2.6-16.2,3.6-24.4c0.6-4.9,0.1-10.1-0.6-15.1c-0.3-1.7-0.8-3.4-1.4-5c-0.2-0.7-0.8-1.3-1.2-2c-1.9,0.7-2.9,2.2-3.4,4.2
	c-0.4,1.6-0.7,3.3-1,4.9c-1,7.5-0.8,15.3-0.5,23.1c0.2,3.6,0.6,7.3,1.1,10.9C163.2,215.1,163.4,217.5,165.1,219.1z M185.7,228
	l-2.5-2.1c-1.3-2.8-1.9-5.8-2-8.9c-0.4-10.2-0.9-20.4-0.6-30.5c0.1-3.3-0.1-6.6,0-9.9c0.1-4.8,0.8-9.3,2.7-13.3
	c2.8-6,8.4-7.3,12.6-3c1.8,1.7,3,3.8,3.7,6.5c0.8,2.9,1.3,5.9,0.9,8.8c-0.6,4.8-1.3,9.5-2.8,13.9c-1,2.7-2.2,5.2-3.5,8.1
	c0,0,0.1,0.6,0.3,0.9c2.9,5.9,4.1,12.5,5.3,19.2c0.5,3,0,5.7-0.9,8.3c-0.3,0.7-0.8,1.1-1.3,2c-0.6-0.8-1.2-1.4-1.5-2.1
	c-0.8-2-1.5-4.3-2-6.5c-0.9-3.4-1.5-7-2.4-10.5c-0.6-2.2-1.3-4.4-2.4-6.1c-0.8,0.2-0.6,1-0.6,1.6c-0.1,2.6,0,5.2-0.1,7.8
	c-0.1,4.3-0.5,8.6-1.3,12.8C187,226,186.7,227.3,185.7,228z M190.6,165.8c-1.3,2-1.6,4.2-1.7,6.3c-0.1,5.3-0.1,10.7-0.2,16
	c0,0.7-0.1,1.3,0.6,1.8c1.3-1.5,1.9-3.8,2.9-5.7c2-4,2-8.4,1.3-12.8C193.1,169.2,192.5,167.2,190.6,165.8z M206.9,160
	c1.3-0.6,2.4-1.3,3.4-1.9c2.6,0.9,3.3,1.9,3.5,4.7c0.1,0.7,0.1,1.5,0,2.2c-1.1,13.5-0.9,27-0.8,40.5c0.1,6.1-0.3,12.3-0.6,18.3
	c-0.1,1-0.4,2-0.6,3.3l-2.4,0.3c-0.4-1.2-0.9-2.2-1.2-3.4c-1.3-4.9-2-10.1-2.3-15.3c-0.3-5.7-0.7-11.4-1.1-17
	c-0.6-7.6-1-15.3-0.2-22.9C204.9,165.9,205.3,162.9,206.9,160z M225.6,183.7c0.8-0.1,1.6-0.3,2.4-0.3c0.6-0.1,1.3-0.1,2,0.2
	c1.7,0.6,2.5,3.1,1.7,5c-0.6,1.6-1.5,3.1-3.1,3.5c-1.1,0.2-2,0.6-2.8,1.8c0.1,7.5,0.1,15.1,0.1,22.9c0.4,0,0.9,0.2,1.5,0.2
	c0.9,0.1,1.8-0.1,2.6,0.1c1.2,0.3,2,1.2,2.4,2.8c0.4,1.6-0.1,2.8-1,3.6c-0.9,0.7-1.8,1.6-2.8,1.8c-2.1,0.5-4.1,1.1-5.8,2.8
	c-0.3,0.4-0.8,0.6-1.3,0.6c-2.2,0.6-3.9-1.7-3.4-4.7c0.1-0.7,0.4-1.4,0.6-2c0-0.4,0.1-0.7,0-0.9c-0.9-4-1.2-8.1-1-12.2
	c0.5-12.9,0.1-25.7-0.2-38.6c0-2,0-4.1,0.1-6.1c0.1-3,1.2-4.9,3.4-5.8c0.9-0.3,1.9-0.6,2.7-0.9c2.3-1.1,4.4-0.4,6.5,1.2
	c1,0.7,1.5,1.8,1.5,3.2c0.1,1.4-0.5,2.5-1.4,3c-0.8,0.5-1.6,0.7-2.5,0.9c-0.8,0.2-1.7,0.3-2.7,0.5c-0.3,3,0.1,5.9,0.1,8.8
	C225.3,177.9,224.8,180.7,225.6,183.7z M249.9,180.1c-0.4-0.6-1.1-1.4-1.5-2.3c-0.9-2.6-2.2-5.2-2.3-8c-0.1-1.6-0.4-3.3-2-4.6
	c-0.5,0.6-1.2,0.9-1.3,1.5c-0.3,1.3-0.4,2.7-0.2,4c0.1,1.5,0.7,3,1.3,4.4c1.1,2.3,2.1,4.8,3.4,7c3.1,5.4,5.1,11.3,6.1,17.2
	c1.4,7.7,1.3,15.5-0.7,22.8c-0.3,1-0.6,2-1.2,3c-1.7,3-4.8,3.8-8.1,2c-1.2-0.7-2.3-1.5-3.3-2.5c-2.7-2.6-4.3-5.8-5.1-9.4
	c-1.1-5.4-1.4-10.7-0.8-16c0.2-2.2,0.9-4.2,1.9-6.1c0.8-1.5,1.9-2.6,3.7-2.8c2,0.5,2.9,2.1,3.2,3.9c0.2,1.1,0.1,2.2,0.1,3.4
	c-0.1,3.4-0.4,6.6-0.4,10c-0.1,2.3,0.1,4.8,0.3,7.1c0.1,1.5,0.7,2.9,2.4,3.7c1.5-1.4,1.9-3.3,2-5.2c0.3-4.5-0.3-8.9-1.2-13.4
	c-1.5-7.4-4.9-14.2-8.7-20.9c-1.3-2.2-2.3-4.6-2.8-7.1c-0.8-5.2,0.8-9.3,3.9-12.8c2-2.1,5.5-2.3,8.4-0.7c2.1,1.2,3.7,2.9,4.8,4.9
	c2,3.9,2.9,7.9,2.9,12.1c0.1,1.5-0.3,3-1.2,4.1C252.6,180.4,251.6,180.9,249.9,180.1z M283.9,206.7c-2.2-0.1-4-0.3-6-0.1
	c-0.2,1.3-0.4,2.4-0.6,3.6l-2.3,15.6c-0.3,1.4-0.3,3.1-1.8,3.7c-0.3-0.3-0.6-0.6-1.1-0.9c-0.3-5.1-0.6-10.2-0.6-15.4
	c-0.1-5.3,0.4-10.4,1-15.6c0.7-6.1,1.1-12.3,1.3-18.5c0.1-4.9,0.6-9.9,1.8-14.5c0.4-1.8,1-3.6,1.8-5.1c2-3.8,5.4-3.8,8.1-0.1
	c1.5,2.1,2.3,4.8,2.9,7.5c1,5.2,1.5,10.5,1.6,15.8c0.1,6.8,0.2,13.6,0.3,20.4c0,4.8,0,9.7-0.1,14.5c0,1.4-0.1,2.8-0.3,4.1
	c-0.3,1.9-1.3,3.1-2.5,3.1c-1.3,0-2.5-1.3-2.9-3.4c-0.3-1.7-0.4-3.4-0.4-5c-0.1-2.3,0.1-4.7,0.1-7.1
	C284.1,208.6,284,208,283.9,206.7z M283.9,198.4c-0.1-1.8-0.1-3-0.1-4.2c0-3-0.2-5.9-0.1-8.8c0.3-5.5-0.4-10.8-1.3-16.2
	c-0.1-0.8-0.5-1.5-0.9-2.7c-0.3,1-0.6,1.6-0.7,2.2c-0.3,2.7-0.8,5.3-1,8.1c-0.5,6.9-0.8,13.7-1.3,20.6c0,0.4,0.1,0.7,0.3,1.4
	C280.6,198.7,282,198.6,283.9,198.4z M298.8,228l-2.5-2.1c-1.3-2.8-1.9-5.8-2-8.9c-0.4-10.2-0.9-20.4-0.6-30.5
	c0.1-3.3-0.1-6.6,0-9.9c0.1-4.8,0.8-9.3,2.7-13.3c2.8-6,8.4-7.3,12.6-3c1.8,1.7,3,3.8,3.7,6.5c0.8,2.9,1.3,5.9,0.9,8.8
	c-0.6,4.8-1.3,9.5-2.8,13.9c-1,2.7-2.2,5.2-3.5,8.1c0,0,0.1,0.6,0.3,0.9c2.9,5.9,4.1,12.5,5.3,19.2c0.5,3,0,5.7-0.9,8.3
	c-0.3,0.7-0.8,1.1-1.3,2c-0.6-0.8-1.2-1.4-1.5-2.1c-0.8-2-1.5-4.3-2-6.5c-0.9-3.4-1.5-7-2.4-10.5c-0.6-2.2-1.3-4.4-2.4-6.1
	c-0.8,0.2-0.6,1-0.6,1.6c-0.1,2.6,0,5.2-0.1,7.8c-0.1,4.3-0.5,8.6-1.3,12.8C300.1,226,299.9,227.3,298.8,228z M303.7,165.8
	c-1.3,2-1.6,4.2-1.7,6.3c-0.1,5.3-0.1,10.7-0.2,16c0,0.7-0.1,1.3,0.6,1.8c1.3-1.5,1.9-3.8,2.9-5.7c2-4,2-8.4,1.3-12.8
	C306.2,169.2,305.6,167.2,303.7,165.8z M325.5,183.7c0.8-0.1,1.6-0.3,2.4-0.3c0.6-0.1,1.3-0.1,2,0.2c1.7,0.6,2.5,3.1,1.7,5
	c-0.6,1.6-1.5,3.1-3.1,3.5c-1.1,0.2-2,0.6-2.8,1.8c0.1,7.5,0.1,15.1,0.1,22.9c0.4,0,0.9,0.2,1.5,0.2c0.9,0.1,1.8-0.1,2.6,0.1
	c1.2,0.3,2,1.2,2.4,2.8c0.4,1.6-0.1,2.8-1,3.6c-0.9,0.7-1.8,1.6-2.8,1.8c-2.1,0.5-4.1,1.1-5.8,2.8c-0.3,0.4-0.8,0.6-1.3,0.6
	c-2.2,0.6-3.9-1.7-3.4-4.7c0.1-0.7,0.4-1.4,0.6-2c0-0.4,0.1-0.7,0-0.9c-0.9-4-1.2-8.1-1-12.2c0.5-12.9,0.1-25.7-0.2-38.6
	c0-2,0-4.1,0.1-6.1c0.1-3,1.2-4.9,3.4-5.8c0.9-0.3,1.9-0.6,2.7-0.9c2.3-1.1,4.4-0.4,6.5,1.2c1,0.7,1.5,1.8,1.5,3.2
	c0.1,1.4-0.5,2.5-1.4,3c-0.8,0.5-1.6,0.7-2.5,0.9c-0.8,0.2-1.7,0.3-2.7,0.5c-0.3,3,0.1,5.9,0.1,8.8
	C325.2,177.9,324.8,180.7,325.5,183.7z M342.7,252.3c-3.8-6.8-17.3-1.6-18.6,6.2c-1.7-4-10.4-10.5-16-8.6c-6.3,2-3.7,8.2-1.8,12
	c3.9,7.7,12.5,15.4,22,18.5c0.3,1,5.9-7.5,8-10.5C340.1,264.4,346,258.1,342.7,252.3z M103.6,124.7c-3.8-6.8-17.3-1.6-18.6,6.2
	c-1.7-4-10.4-10.5-16-8.6c-6.3,2-3.7,8.2-1.8,12c3.9,7.7,12.5,15.4,22,18.5c0.3,1,5.9-7.5,8-10.5
	C100.9,136.8,106.8,130.4,103.6,124.7z"/>
<path fill="#6F91BD" d="M80.9,107.8c-1.8-0.4-2.2-1.6-2.3-2.8c-0.5-4.9-1.1-9.8-1.5-14.8c-0.2-1.2,0.1-2.3,0-3.5
	c-1.1-13-0.6-25.8-0.7-38.6c0-2.7,0-5.4-0.3-8.1c-1.8-0.7-3.3-0.3-4.8,0c-1.6,0.2-3.3,0.5-5,0.5c-2.7,0-4.5-1.4-5.1-3.5
	c-0.7-2.2,0.4-4.6,3.1-5.5c1.5-0.5,3.2-1,4.8-1.2c6.4-0.7,12.7-1.7,19.3-0.4c2.3,0.5,4.8,0.2,7.1,0.3c1.4,0.1,2.8,0.1,4,0.4
	c1.9,0.5,3.4,2.3,3.6,4.2c0.2,1.7-0.7,3.7-2.6,4.4c-1.4,0.5-3,0.9-4.5,0.9c-3.2,0.1-6.4,0-10,0v2.4c0,3.7,0.1,7.6,0.2,11.3
	c0.1,16.7-1.2,33.4-3.6,49.8C82.4,105.1,82.4,106.9,80.9,107.8z M138.3,28.1c0.6,0.1,1.5,0.2,2.3,0.4c3.4,1.1,4.7,2.8,4.6,6.2
	c0,2.2-0.2,4.5-0.2,6.7c-0.1,6-0.1,11.9-0.1,18c-0.1,4,0,8.1,0,12.1c0,5.6,0.3,11.4-0.1,17c-0.4,5.3-1.5,10.5-2.3,15.8
	c-0.1,0.7-0.5,1.3-0.9,2.1c-0.9-0.1-1.5-0.1-2.6-0.2c-3.8-11-5.1-22-6.8-33.3c-4-0.5-7.3,0.7-11,1.1c-1,3-1.2,6.2-1.3,9.3
	c-0.3,5-0.4,10.1-0.6,15.2c-0.1,0.9-0.1,1.8-0.1,2.7c0,3.5-1.7,5.7-4.5,7.4c-2.9-1.7-3.9-4.2-4.4-6.9c-0.9-4.9-0.7-9.7-0.9-14.5
	c0-5.4-0.2-10.7-0.3-16.2c-0.1-7.9-0.3-15.6-0.5-23.4l-0.3-12.7c0-2,0.3-3.8,2.4-5.1c1.5-0.3,3.4-0.6,5.3-1c3.7,0.5,5.4,3.1,5.9,6.4
	c0.5,4.5,1,9,1.1,13.5c0,3.8-0.5,7.7-0.7,11.6v4.2c3.2,0.2,5.6-0.6,8.4-1.1c0.1-3.4,0.1-6.7,0.3-9.9c0.4-5.6,0.9-11.3,1.4-16.9
	c0.2-1.7,0.7-3.4,1.5-5C134.5,29.8,135.8,28.4,138.3,28.1z M163,57.7c1.3-0.1,2.5-0.3,3.6-0.3c1-0.1,2-0.1,3,0.2
	c2.6,0.7,3.8,3.5,2.6,5.7c-1,1.8-2.3,3.5-4.7,4c-1.6,0.2-3.1,0.6-4.3,2c0.1,8.6,0.1,17.2,0.1,26.2c0.6,0,1.4,0.2,2.2,0.2
	c1.4,0.1,2.7-0.1,3.9,0.1c1.8,0.3,3.1,1.4,3.6,3.2c0.5,1.8-0.1,3.2-1.5,4.2c-1.4,0.9-2.8,1.8-4.3,2c-3.2,0.5-6.3,1.3-8.8,3.2
	c-0.5,0.4-1.3,0.6-2,0.7c-3.4,0.6-5.9-1.9-5.1-5.3c0.2-0.9,0.6-1.6,1-2.2c0-0.4,0.1-0.7,0-1.1c-1.4-4.6-1.8-9.3-1.5-13.9
	c0.7-14.7,0.1-29.4-0.3-44.2c0-2.3,0-4.7,0.1-7c0.1-3.4,1.8-5.6,5.1-6.6c1.4-0.3,2.9-0.6,4.2-1.1c3.5-1.3,6.7-0.4,9.8,1.4
	c1.5,0.9,2.3,2,2.3,3.6c0.1,1.6-0.7,2.9-2.1,3.4c-1.2,0.5-2.4,0.7-3.7,1.1c-1.3,0.2-2.6,0.3-4.1,0.5c-0.4,3.4,0.1,6.7,0.2,10.1
	C162.4,51.2,161.8,54.3,163,57.7z M220,67.8c4.7,4.6,5.6,10.2,5.4,16.1c-0.1,3.3-0.1,6.8-0.7,10.1c-1.7,10-9.2,13.9-17.9,14.9
	c-3.2,0.3-5.2-1.2-6.1-4.5c-0.9-3.3-1.4-6.7-1.6-10.1c-0.3-4.3-0.2-8.6-0.2-12.9c-0.1-11.9-0.1-23.7-0.1-35.7
	c0.1-3.1,0.5-6.1,0.9-9.2c0.1-1.1,0.5-2.1,1-3.1c1.9-4.7,5.7-6.6,10.7-5.5c8.2,1.8,12.7,7.3,15.2,14.9c1.5,4.4,1.2,8.8-0.2,13.2
	C225.1,60.1,223.1,63.9,220,67.8z M206.4,99.7c7.2-1.3,9.5-3.5,9.9-9.9c0.3-3.4,0.1-6.8,0-10.2c-0.1-1.7-0.4-3.4-2.3-4.6l-5.2-0.3
	C207.9,83.1,207.2,91.2,206.4,99.7z M209.8,63.7c2.1-1.1,3.7-2.4,4.6-4.4c2.3-5.5,2.3-11.1-0.1-16.6c-0.3-0.6-1.2-1.1-1.9-1.7
	c-2.3,1.9-3.3,4.3-3.2,7c0,4.7,0.1,9.5,0.1,14.3L209.8,63.7z M245.4,57.7c1.3-0.1,2.5-0.3,3.6-0.3c1-0.1,2-0.1,3,0.2
	c2.6,0.7,3.8,3.5,2.6,5.7c-1,1.8-2.3,3.5-4.7,4c-1.6,0.2-3.1,0.6-4.3,2c0.1,8.6,0.1,17.2,0.1,26.2c0.6,0,1.4,0.2,2.2,0.2
	c1.4,0.1,2.7-0.1,3.9,0.1c1.8,0.3,3.1,1.4,3.6,3.2c0.5,1.8-0.1,3.2-1.5,4.2c-1.4,0.9-2.8,1.8-4.3,2c-3.2,0.5-6.3,1.3-8.8,3.2
	c-0.5,0.4-1.3,0.6-2,0.7c-3.4,0.6-5.9-1.9-5.1-5.3c0.2-0.9,0.6-1.6,1-2.2c0-0.4,0.1-0.7,0-1.1c-1.4-4.6-1.8-9.3-1.5-13.9
	c0.7-14.7,0.1-29.4-0.3-44.2c0-2.3,0-4.7,0.1-7c0.1-3.4,1.8-5.6,5.1-6.6c1.4-0.3,2.9-0.6,4.2-1.1c3.5-1.3,6.7-0.4,9.8,1.4
	c1.5,0.9,2.3,2,2.3,3.6c0.1,1.6-0.7,2.9-2.1,3.4c-1.2,0.5-2.4,0.7-3.7,1.1c-1.3,0.2-2.6,0.3-4.1,0.5c-0.4,3.4,0.1,6.7,0.2,10.1
	C244.8,51.2,244.2,54.3,245.4,57.7z M282.2,53.7c-0.6-0.6-1.7-1.6-2.2-2.7c-1.4-3-3.3-6-3.5-9.2c-0.1-1.8-0.5-3.7-3.1-5.2
	c-0.7,0.6-1.8,1.1-2,1.7c-0.4,1.5-0.6,3.1-0.3,4.6c0.2,1.7,1.1,3.4,1.9,5c1.6,2.7,3.2,5.4,5.1,8c4.7,6.2,7.8,12.9,9.3,19.7
	c2.1,8.8,2,17.7-1.1,26.1c-0.4,1.2-1,2.3-1.8,3.4c-2.6,3.4-7.2,4.4-12.2,2.3c-1.8-0.7-3.5-1.7-5-2.9c-4-3-6.5-6.6-7.7-10.7
	c-1.7-6.2-2.1-12.2-1.3-18.3c0.3-2.6,1.4-4.8,2.9-7c1.2-1.7,2.9-3,5.6-3.2c3.1,0.5,4.4,2.3,4.8,4.5c0.3,1.3,0.2,2.6,0.1,3.8
	c-0.2,3.8-0.6,7.6-0.6,11.4c-0.1,2.7,0.2,5.4,0.5,8.1c0.2,1.7,1.1,3.3,3.6,4.3c2.2-1.6,2.9-3.7,3.1-6c0.4-5.1-0.4-10.2-1.8-15.3
	c-2.3-8.5-7.4-16.3-13.2-23.8c-1.9-2.6-3.5-5.2-4.3-8.1c-1.3-6,1.2-10.6,5.9-14.6c3-2.5,8.3-2.7,12.7-0.9c3.2,1.4,5.5,3.3,7.2,5.6
	c3,4.5,4.4,9,4.5,13.8c0.1,1.7-0.4,3.4-1.8,4.7C286.2,54,284.8,54.6,282.2,53.7z M310.3,107.8c-1.8-0.4-2.2-1.6-2.3-2.8
	c-0.5-4.9-1.1-9.8-1.5-14.8c-0.2-1.2,0.1-2.3,0-3.5c-1.1-13-0.6-25.8-0.7-38.6c0-2.7,0-5.4-0.3-8.1c-1.8-0.7-3.3-0.3-4.8,0
	c-1.6,0.2-3.3,0.5-5,0.5c-2.7,0-4.5-1.4-5.1-3.5c-0.7-2.2,0.4-4.6,3.1-5.5c1.5-0.5,3.2-1,4.8-1.2c6.4-0.7,12.7-1.7,19.3-0.4
	c2.3,0.5,4.8,0.2,7.1,0.3c1.4,0.1,2.8,0.1,4,0.4c1.9,0.5,3.4,2.3,3.6,4.2c0.2,1.7-0.7,3.7-2.6,4.4c-1.4,0.5-3,0.9-4.5,0.9
	c-3.2,0.1-6.4,0-10,0v2.4c0,3.7,0.1,7.6,0.2,11.3c0.1,16.7-1.2,33.4-3.6,49.8C311.8,105.1,311.8,106.9,310.3,107.8z M93.8,254.4
	c1.9-0.8,3.9-1.4,6.1-1.8c1.9-0.4,4.1-0.5,6.6-0.5c2.5,0,5.1,0.4,7.9,1.2c0.2-1.7,0.4-3.4,0.4-4.9c0.1-1.6,0-3-0.1-4.4
	c-0.1-1.3-0.3-2.5-0.6-3.5c-0.3-1-0.6-1.8-1-2.4c-0.2-0.4-0.3-0.8-0.2-1.3c0.1-0.4,0.3-0.7,0.6-0.9c0.5-0.2,1-0.4,1.5-0.5
	c0.6-0.2,1.1-0.2,1.6-0.1c0.5,0.1,1,0.4,1.5,0.8c0.5,0.4,0.9,1,1.3,1.9c0.1,0.3,0.3,0.8,0.4,1.4c0.1,0.6,0.2,1.1,0.3,1.6
	c0.1,1.2,0.2,3.1,0.1,5.8c-0.1,2.6-0.5,5.7-1.3,9c1.3,0.9,2.4,2.1,3.5,3.5c1.1,1.4,1.9,3,2.6,5c0.7,1.9,1.2,4.2,1.5,6.7
	c0.3,2.5,0.3,5.4,0,8.5c0,0.5,0,1-0.1,1.6c-0.1,0.6-0.1,1.2-0.2,2c-0.1,0.8-0.2,1.6-0.3,2.6c1.1-3.3,2.3-6.5,3.4-9.5
	c1.1-3,2.3-5.7,3.5-8.1c1.2-2.4,2.3-4.3,3.5-5.8c1.2-1.5,2.3-2.4,3.4-2.7c0.6-0.2,1.2-0.2,1.9-0.1c0.5,0.1,0.9,0.3,1.3,0.7
	c0.4,0.4,0.7,0.8,0.9,1.4c0.2,0.5,0.4,1.1,0.4,1.8c0,0.6-0.1,1.3-0.3,1.9c-2,5.9-3.5,11.4-4.5,16.5c-0.9,5.1-1.6,9.6-2,13.5
	c-0.4,4.5-0.6,8.7-0.4,12.5c0.9-5.5,1.9-10.6,3-15.4s2.4-9.1,3.6-13c1.3-3.9,2.5-7.4,3.7-10.4c1.2-3.1,2.3-5.7,3.4-7.8
	c1-2.1,1.9-3.8,2.6-5.1c0.7-1.2,1.1-2,1.3-2.3c0.4-0.7,0.9-1.2,1.5-1.3c0.5-0.1,1-0.1,1.6,0.2c0.6,0.2,1.1,0.7,1.6,1.4
	c0.5,0.7,0.7,1.5,0.6,2.3c-0.2,1.2-0.4,3.1-0.8,5.8c-0.3,2.7-0.7,5.9-1.1,9.7c-0.4,3.8-0.7,8-1,12.7c-0.3,4.7-0.6,9.6-0.7,14.7
	c-0.1,5.1-0.2,10.4-0.1,15.7c0.1,5.4,0.4,10.7,0.9,15.9c0.1,0.7,0,1.4-0.3,2.1c-0.2,0.6-0.6,1.2-1.1,1.5c-0.5,0.4-1.1,0.6-1.8,0.4
	c-0.7-0.1-1.3-0.5-1.8-1c-0.3-0.3-0.5-0.6-0.7-0.9c-0.2-0.4-0.3-0.8-0.3-1.2c-0.1-1.6-0.3-4.3-0.5-8.2c-0.2-3.9-0.3-8.8-0.3-14.6
	c0-5.8,0.2-12.3,0.5-19.7c0.3-7.3,1-15.2,1.9-23.5c-1.4,2.8-2.7,5.8-3.9,8.9c-1.2,3.2-2.3,6.4-3.2,9.6c-1,3.2-1.9,6.4-2.7,9.6
	c-0.8,3.1-1.5,6.1-2.1,8.8c-0.6,2.7-1.1,5.2-1.5,7.4c-0.4,2.2-0.7,4-0.9,5.3c-0.1,0.9-0.5,1.6-1,2.1c-0.5,0.5-1.1,0.8-1.7,0.8
	c-0.8,0-1.5-0.1-2-0.4c-0.5-0.3-1-0.6-1.3-1c-0.7-0.7-1.1-1.7-1.2-3c-0.2-4.5-0.2-8.9,0.1-13.3c0.3-4.4,0.8-8.5,1.4-12.4
	c0.6-3.9,1.3-7.5,2-10.8c0.7-3.3,1.5-6.2,2.1-8.7c-0.6,0.9-1.4,2.3-2.3,4.1c-0.9,1.8-2,4.2-3.3,7.3c-1.3,3-2.8,6.8-4.5,11.2
	c-1.7,4.4-3.6,9.7-5.7,15.9c-0.8,2.7-1.8,5.5-2.8,8.4c-1.1,2.9-2.3,5.9-3.6,9c-0.3,0.6-0.6,1-1,1.3c-0.4,0.3-0.9,0.4-1.3,0.3
	c-0.6-0.2-1-0.5-1.4-0.9c-0.4-0.4-0.7-1-1-1.6c-0.2-0.4-0.3-0.9-0.4-1.4s0.1-0.9,0.3-1.4c2.7-6.4,4.8-12.2,6.4-17.3
	c1.6-5.1,2.8-9.5,3.6-13.2c1-4.3,1.6-8,1.9-11.4c0.1-1.2,0.2-2.5,0.3-3.9c0-1.1,0-2.4-0.1-3.8c-0.1-1.4-0.3-2.8-0.7-4.2
	c-0.6-2.5-1.8-4.7-3.6-6.5c-1.2,3.4-2.8,6.7-5,10.1c-2.2,3.4-5,6.4-8.6,9c-1.1,0.8-2.2,1.6-3.6,2.2c-1.1,0.6-2.5,1.1-4.1,1.5
	c-1.6,0.4-3.4,0.7-5.5,0.7c-2.4,0-4.6-0.8-6.5-2.3c-1.9-1.5-3.1-3.8-3.6-6.7c-0.4-2.8-0.2-5.5,0.5-8c0.3-1.1,0.7-2.2,1.3-3.4
	c0.6-1.2,1.4-2.3,2.3-3.4c1-1.1,2.1-2.1,3.6-3.1C90.2,256,91.8,255.2,93.8,254.4z M113.6,257.5c-2.7-0.8-5.3-1.2-7.7-1.2
	s-4.6,0.2-6.4,0.5c-2.1,0.4-4.1,0.9-5.9,1.6c-2.3,0.8-4.2,2-5.9,3.4c-0.7,0.6-1.4,1.3-2,2.2c-0.6,0.8-1.2,1.8-1.6,2.8
	c-0.4,1.1-0.7,2.2-0.9,3.5c-0.2,1.3-0.1,2.7,0.1,4.3c0.2,1.3,0.7,2.4,1.4,3.3c0.7,0.8,1.5,1.5,2.4,1.9c0.9,0.4,2,0.7,3.1,0.7
	c1.1,0.1,2.3-0.1,3.4-0.3c1.8-0.4,3.5-1,5.2-1.8c1.7-0.9,3.2-1.9,4.7-3.2c1.5-1.3,2.8-2.7,4-4.3c1.2-1.6,2.3-3.3,3.1-5.1
	c0.6-1.3,1.2-2.7,1.7-4.1C112.8,260.3,113.2,258.9,113.6,257.5z M154.6,336.6c-0.2,0-0.5,0-0.7-0.1c-1-0.2-1.9-0.7-2.6-1.5
	c-0.3-0.3-0.7-0.8-0.9-1.3c-0.3-0.6-0.5-1.3-0.5-2c-0.1-1.6-0.3-4.3-0.5-8.3c-0.2-4-0.3-8.9-0.3-14.7c0-5.8,0.2-12.4,0.5-19.8
	c0.2-4.2,0.5-8.6,0.9-13.1c-1.1,2.9-2.1,5.9-2.9,8.8c-1,3.2-1.9,6.4-2.7,9.5c-0.8,3.1-1.5,6.1-2.1,8.8c-0.6,2.7-1.1,5.2-1.5,7.4
	c-0.4,2.2-0.7,3.9-0.9,5.2c-0.2,1.2-0.7,2.3-1.4,3.1c-0.6,0.6-1.2,1-1.9,1.2l-0.8,4.9l-0.1-4.8c-1,0-1.9-0.2-2.6-0.6
	c-0.7-0.4-1.3-0.8-1.8-1.4c-1-1-1.6-2.4-1.7-4.2c-0.2-4.6-0.2-9.1,0.1-13.5c0.3-4.4,0.8-8.6,1.4-12.6c0.3-2.1,0.7-4.1,1-6
	c-1.2,2.8-2.5,6.1-3.9,10c-1.7,4.4-3.6,9.7-5.7,15.9c-0.8,2.7-1.8,5.5-2.9,8.4c-1.1,2.9-2.3,6-3.7,9.1c-0.4,0.9-1,1.6-1.7,2
	c-0.8,0.5-1.6,0.7-2.4,0.5c-0.9-0.3-1.7-0.7-2.2-1.4c-0.4-0.6-0.9-1.2-1.2-1.9c-0.3-0.6-0.5-1.3-0.6-2.1c0-0.8,0.1-1.6,0.4-2.2
	c2.6-6.3,4.8-12,6.3-17.1c1.6-5,2.8-9.4,3.6-13c1-4.2,1.6-7.9,1.9-11.1c0.1-1.2,0.2-2.5,0.3-3.8c0-1.1,0-2.3-0.1-3.6
	c-0.1-1.3-0.3-2.6-0.6-3.8c-0.3-1.4-0.9-2.6-1.6-3.7c-1.1,2.6-2.5,5.3-4.2,7.9c-2.3,3.5-5.3,6.7-9,9.5c-1.1,0.9-2.4,1.7-3.8,2.3
	c-1.2,0.6-2.7,1.1-4.4,1.6c-1.7,0.5-3.7,0.7-5.8,0.7c-2.8,0-5.3-0.9-7.4-2.6c-2.2-1.8-3.6-4.4-4.2-7.8c-0.4-3.1-0.2-6.1,0.5-8.9
	c0.3-1.2,0.8-2.4,1.5-3.7c0.6-1.3,1.5-2.6,2.6-3.8c1-1.2,2.3-2.3,3.9-3.3c1.5-1,3.3-1.9,5.4-2.7c1.9-0.8,4.1-1.4,6.4-1.9
	c3.6-0.7,8.3-0.9,13.4,0.2c0.1-1,0.2-1.9,0.2-2.8c0.1-1.5,0-2.9-0.1-4.1c-0.1-1.2-0.3-2.3-0.5-3.2c-0.3-1-0.5-1.6-0.7-1.8
	c-0.5-0.9-0.7-1.8-0.5-2.7c0.2-1,0.8-1.8,1.6-2.1c0.5-0.2,1.1-0.4,1.7-0.6c0.8-0.2,1.5-0.2,2.3-0.1c0.8,0.2,1.5,0.5,2.2,1.1
	c0.7,0.6,1.3,1.5,1.8,2.6c0.2,0.3,0.4,0.9,0.5,1.7c0.1,0.7,0.2,1.2,0.3,1.6c0.2,1.4,0.2,3.4,0.1,6.2c-0.1,2.4-0.4,5.2-1.1,8.2
	c1,0.9,2,1.9,2.9,3.1c1.2,1.5,2.1,3.4,2.9,5.5c0.8,2.1,1.3,4.5,1.6,7.1c0.1,1.1,0.2,2.3,0.2,3.5c1-2.6,2-4.9,3-7
	c1.2-2.5,2.5-4.5,3.7-6.1c1.4-1.8,2.8-2.8,4.2-3.2c0.8-0.2,1.6-0.3,2.5-0.1c0.8,0.2,1.5,0.5,2.1,1.1c0.5,0.5,1,1.2,1.3,2
	c0.3,0.7,0.5,1.6,0.5,2.4c0.1,0.9-0.1,1.8-0.4,2.7c-2,5.7-3.5,11.2-4.4,16.2c-0.1,0.6-0.2,1.2-0.3,1.9c0.5-1.8,1-3.5,1.5-5.1
	c1.3-3.9,2.5-7.4,3.8-10.5c1.2-3.1,2.4-5.7,3.4-7.9c1-2.2,1.9-3.9,2.6-5.2c0.7-1.3,1.1-2,1.3-2.3c0.6-1.1,1.4-1.8,2.4-2.1
	c1-0.2,1.6-0.1,2.5,0.2c0.9,0.3,1.7,1,2.4,2c0.7,1,1,2.3,0.9,3.7c-0.2,1.2-0.5,3.1-0.8,5.8c-0.3,2.7-0.7,6-1.1,9.6
	c-0.4,3.8-0.7,8-1,12.6c-0.3,4.6-0.6,9.5-0.7,14.6c-0.1,5.1-0.2,10.3-0.1,15.7c0.1,5.3,0.4,10.6,0.9,15.7c0.1,1,0,2-0.4,2.9
	c-0.4,1-0.9,1.8-1.7,2.3C156.2,336.4,155.4,336.6,154.6,336.6z M155.6,256.6l-1.1,9.2c-1,8.3-1.6,16.1-1.9,23.4
	c-0.3,7.3-0.5,13.9-0.5,19.6c0,5.7,0.1,10.6,0.3,14.5c0.2,3.9,0.4,6.7,0.5,8.2c0,0.2,0.1,0.4,0.1,0.5c0.1,0.2,0.2,0.4,0.4,0.5
	c0.4,0.4,0.7,0.6,1,0.6c0.2,0,0.4,0,0.6-0.1c0.3-0.2,0.4-0.4,0.6-0.8c0.1-0.4,0.2-0.7,0.1-1.2c-0.5-5.2-0.8-10.6-0.9-16
	c-0.1-5.4-0.1-10.7,0.1-15.8c0.1-5.1,0.4-10.1,0.7-14.7c0.3-4.6,0.7-8.9,1-12.7c0.4-3.7,0.7-7,1.1-9.7c0.3-2.7,0.6-4.6,0.8-5.9
	c0-0.3,0-0.6-0.2-0.9c-0.3-0.5-0.6-0.7-0.9-0.8c-0.3-0.1-0.6-0.2-0.9-0.1c-0.1,0-0.3,0.3-0.4,0.5c-0.2,0.3-0.6,1-1.3,2.2
	c-0.7,1.2-1.5,2.9-2.5,5c-1,2.1-2.1,4.7-3.3,7.7c-1.2,3-2.4,6.5-3.7,10.3c-1.2,3.8-2.4,8.1-3.6,12.8c-0.1,0.5-0.2,0.9-0.3,1.4
	c0.1-0.3,0.2-0.7,0.3-1c0.8-3.1,1.7-6.4,2.7-9.6c1-3.3,2.1-6.5,3.3-9.7c1.2-3.2,2.5-6.3,3.9-9.1L155.6,256.6z M117.2,257.2l1.7,1.8
	c1.9,2,3.3,4.5,4,7.3c0.4,1.4,0.6,3,0.7,4.5c0.1,1.5,0.2,2.9,0.1,4.1c0,1.4-0.1,2.8-0.3,4.1c-0.3,3.3-1,7.2-2,11.6
	c-0.8,3.7-2.1,8.2-3.6,13.3c-1.6,5.2-3.8,11-6.5,17.5c-0.1,0.1-0.1,0.3-0.1,0.5c0,0.2,0.1,0.4,0.1,0.5c0.3,0.6,0.5,1,0.8,1.3
	c0.1,0.2,0.3,0.3,0.6,0.4c0,0,0.1-0.1,0.1-0.1c0.2-0.1,0.3-0.3,0.4-0.6c1.3-3,2.5-6,3.6-8.9c1-2.8,2-5.6,2.8-8.3
	c2.2-6.2,4.1-11.6,5.8-16c0.6-1.5,1.1-2.9,1.6-4.3l-2.6-0.8c0.1-0.9,0.3-1.8,0.3-2.5c0.1-0.8,0.2-1.5,0.2-2c0.1-0.5,0.1-1,0.1-1.4
	c0.3-3.2,0.3-5.9,0-8.3c-0.3-2.3-0.7-4.4-1.4-6.2c-0.6-1.8-1.4-3.3-2.4-4.5c-0.9-1.2-2-2.3-3.2-3.1l-1-0.7l0.3-1.2
	c0.8-3.2,1.2-6.1,1.2-8.6c0.1-2.5,0-4.4-0.1-5.4c-0.1-0.3-0.2-0.8-0.3-1.4c-0.1-0.6-0.2-0.9-0.3-1c-0.3-0.7-0.5-1-0.8-1.3
	c-0.3-0.2-0.6-0.4-0.9-0.5c-0.3-0.1-0.6,0-1,0.1c-0.3,0.1-0.6,0.2-0.9,0.3c0.4,0.7,0.7,1.6,1,2.6c0.3,1.1,0.5,2.4,0.6,3.8
	c0.1,1.4,0.2,3,0.1,4.6c-0.1,1.6-0.2,3.4-0.4,5.1l-0.3,1.9L114,255c-5.3-1.5-10.2-1.3-13.8-0.6c-2.1,0.4-4.1,1-5.9,1.7
	c-0.6,0.2-1.2,0.5-1.8,0.7c0.2-0.1,0.3-0.1,0.5-0.2c1.9-0.7,4-1.2,6.2-1.6c3.9-0.7,9.1-0.9,14.7,0.7l1.6,0.4l-0.4,1.7
	c-0.3,1.4-0.8,2.9-1.3,4.4c-0.5,1.5-1.1,2.9-1.8,4.3c-0.9,1.9-2,3.8-3.3,5.4c-1.3,1.7-2.7,3.2-4.3,4.5c-1.6,1.3-3.2,2.5-5,3.4
	c-1.7,0.9-3.4,1.5-5.2,1.9c0.7-0.1,1.3-0.2,2-0.4c1.5-0.4,2.8-0.9,3.8-1.4c1.2-0.6,2.3-1.3,3.3-2c3.4-2.5,6.2-5.4,8.2-8.6
	c2.1-3.2,3.7-6.5,4.8-9.7L117.2,257.2z M140.8,261.1l-2.1,7.8c-0.7,2.5-1.4,5.4-2.1,8.6c-0.7,3.3-1.4,6.9-2,10.7
	c-0.6,3.8-1,8-1.3,12.2c-0.3,4.3-0.3,8.6-0.1,13.1c0.1,1.3,0.5,1.6,0.6,1.8l0.1,0.2c0.2,0.2,0.5,0.5,0.8,0.6
	c0.3,0.2,0.7,0.2,1.2,0.3l-0.3-8.7c-0.1-3.9,0-8.2,0.5-12.8c0.4-3.9,1.1-8.6,2-13.7c1-5.2,2.5-10.8,4.5-16.8
	c0.1-0.4,0.2-0.8,0.2-1.1c0-0.4-0.1-0.8-0.2-1.2c-0.1-0.3-0.3-0.6-0.5-0.8c-0.2-0.2-0.3-0.3-0.6-0.3
	C141.3,261.1,141,261,140.8,261.1z M105.9,258.1c-2.3,0-4.4,0.2-6.2,0.4c-2,0.3-3.9,0.8-5.7,1.5c-2.1,0.8-3.9,1.8-5.4,3.1
	c-0.6,0.6-1.2,1.2-1.8,1.9c-0.5,0.7-1,1.5-1.3,2.4c-0.4,0.9-0.6,2-0.8,3.1c-0.1,1.1-0.1,2.3,0.1,3.7c0.2,1,0.5,1.8,1,2.4
	c0.5,0.6,1.1,1.1,1.9,1.5c0.8,0.4,1.6,0.6,2.6,0.6c0.2,0,0.3,0,0.5,0l0,0c0.8,0,1.7-0.1,2.5-0.3c1.7-0.3,3.3-0.9,4.8-1.7
	c1.6-0.8,3-1.8,4.4-3c1.4-1.2,2.7-2.5,3.8-4c1.1-1.5,2.1-3.1,2.9-4.8c0.6-1.3,1.1-2.6,1.6-3.9c0.3-0.7,0.5-1.5,0.7-2.2
	C109.6,258.3,107.7,258.1,105.9,258.1z M140,261.2c-0.7,0.3-1.5,1-2.3,2c-1.1,1.4-2.2,3.2-3.3,5.4c-1.1,2.3-2.3,5-3.4,7.9
	c-0.1,0.3-0.2,0.5-0.3,0.8c1-2.4,1.9-4.3,2.7-5.8c1-1.9,1.8-3.3,2.5-4.3L140,261.2z M185.3,301c0.3,0.4,0.4,0.9,0.3,1.6
	c-0.1,0.5-0.2,1.2-0.4,2.1c-0.2,0.9-0.4,2-0.7,3.1c-0.3,1.1-0.7,2.2-1.1,3.4c-0.4,1.1-0.9,2.2-1.4,3.1c-0.5,1-1.1,1.7-1.7,2.3
	c-0.6,0.6-1.3,0.8-2.1,0.8c-1.7-0.1-2.9-1.5-3.7-4c-0.8-2.6-1.1-6-1-10.2c-0.5,1.3-1.1,2.7-1.8,4.1c-0.7,1.5-1.5,2.8-2.3,4
	c-0.8,1.2-1.8,2.2-2.7,3c-1,0.8-2,1.1-3,0.9c-1.1-0.2-1.9-0.6-2.5-1.4c-0.6-0.8-1-1.8-1.2-3c-0.2-1.2-0.3-2.4-0.1-3.8
	c0.1-1.4,0.4-2.8,0.7-4.2c0.4-1.4,0.8-2.8,1.4-4c0.6-1.3,1.2-2.3,1.9-3.2c0.8-1,1.7-1.8,2.6-2.6c1-0.7,1.9-1.2,2.9-1.5
	c1-0.3,1.9-0.3,2.8,0c0.9,0.3,1.7,0.9,2.3,1.8c0.1-0.7,0.2-1.3,0.3-1.9c0.1-0.6,0.3-1.3,0.4-1.9c0.2-0.8,0.6-1.2,1.1-1.2
	c0.5,0.1,1.2,0.2,1.9,0.4c0.7,0.2,1.4,0.6,2,1.2c0.2,0.3,0.4,0.6,0.5,1c0.1,0.4,0.1,0.8,0.1,1.2c-0.1,0.7-0.3,1.8-0.5,3.1
	c-0.2,1.3-0.4,2.7-0.6,4.3c-0.2,1.5-0.4,3.1-0.6,4.7c-0.2,1.6-0.3,3-0.3,4.4c-0.1,1.3,0,2.4,0.1,3.3c0.1,0.9,0.3,1.3,0.7,1.4
	c0.5,0.1,1-0.3,1.5-1.3c0.5-1,1-2.1,1.4-3.4c0.4-1.3,0.9-2.7,1.2-4c0.4-1.3,0.6-2.3,0.8-3c0-0.2,0.1-0.3,0.3-0.4
	c0.1-0.1,0.3,0,0.4,0.1C185.2,300.9,185.3,301,185.3,301z M165.4,310.7c0.3,0.1,0.6-0.2,1.1-0.9c0.5-0.6,1-1.4,1.6-2.4
	c0.6-1,1.2-2.1,1.8-3.3c0.6-1.2,1.2-2.4,1.7-3.5c0.5-1.1,1-2,1.4-2.9c0.4-0.8,0.6-1.4,0.8-1.6c-0.2-0.6-0.6-0.9-1.2-1
	c-0.6-0.1-1.2,0.1-1.9,0.5c-0.7,0.4-1.5,1.2-2.2,2.2c-0.8,1-1.5,2.4-2.1,4.1c-0.8,2.1-1.3,3.8-1.5,4.9c-0.2,1.2-0.3,2-0.2,2.6
	C164.8,310.1,165,310.5,165.4,310.7z M178.4,319.1c-0.1,0-0.2,0-0.3,0c-1.6-0.1-3.9-1.1-5.1-5.2c-0.4-1.2-0.6-2.5-0.8-3.9
	c-0.5,0.8-1,1.6-1.5,2.4c-0.9,1.4-2,2.5-3.1,3.3c-1.3,1-2.7,1.4-4.1,1.2c-1.5-0.2-2.6-0.9-3.5-2.1c-0.8-1-1.3-2.3-1.6-3.7
	c-0.3-1.3-0.3-2.8-0.2-4.4c0.1-1.5,0.4-3,0.8-4.5c0.4-1.5,0.9-3,1.5-4.4c0.6-1.4,1.4-2.6,2.2-3.6c0.9-1.1,1.9-2,2.9-2.9
	c1.1-0.8,2.3-1.4,3.4-1.7c1.2-0.3,2.4-0.3,3.5,0c0.3,0.1,0.6,0.2,0.9,0.3c0.1-0.3,0.1-0.7,0.2-1.1c0.4-1.7,1.4-2.6,2.7-2.6
	c0.7,0.1,1.4,0.2,2.3,0.4c1,0.3,1.9,0.8,2.6,1.5l0.1,0.1c0.4,0.5,0.7,1,0.9,1.7c0.2,0.7,0.2,1.4,0.1,2.1l-0.5,3
	c-0.2,1.3-0.4,2.7-0.6,4.3c-0.2,1.5-0.4,3-0.6,4.6c-0.2,1.5-0.3,3-0.3,4.2c0,0.3,0,0.6,0,0.9c0.2-0.5,0.4-1.1,0.7-1.7
	c0.4-1.3,0.8-2.6,1.2-3.9c0.4-1.3,0.6-2.3,0.8-2.9c0.1-0.7,0.6-1.3,1.3-1.6l0.3-0.1l0.4,0c0.4,0,0.8,0.1,1.1,0.4
	c0.3,0.2,0.4,0.4,0.6,0.5c0.6,0.8,0.9,1.9,0.7,3.1c-0.1,0.4-0.2,1.2-0.4,2.1c-0.2,1-0.4,2-0.8,3.2c-0.3,1.2-0.7,2.3-1.1,3.5
	c-0.4,1.2-1,2.4-1.5,3.4c-0.6,1.1-1.3,2.1-2.1,2.8C180.4,318.7,179.4,319.1,178.4,319.1z M175.3,297l-0.2,6.2
	c-0.1,4,0.2,7.2,0.9,9.5c0.8,2.8,1.9,2.8,2.3,2.8l0.1,0c0.3,0,0.6-0.1,0.9-0.4c0.2-0.2,0.4-0.4,0.6-0.6c-0.1,0-0.2,0-0.3,0l-0.4,0
	c-0.7-0.1-1.7-0.7-1.9-2.8c-0.1-1-0.2-2.2-0.1-3.6c0.1-1.3,0.2-2.9,0.3-4.5c0.2-1.6,0.4-3.2,0.6-4.7c0.2-1.5,0.4-3,0.6-4.3l0.5-3.1
	c0-0.2,0-0.3,0-0.4c0-0.1-0.1-0.2-0.1-0.2c-0.4-0.4-0.8-0.6-1.3-0.7c-0.4-0.1-0.8-0.2-1.1-0.3c-0.1,0.6-0.2,1.1-0.3,1.7
	c-0.1,0.6-0.2,1.1-0.3,1.8l-0.5,4.1L175.3,297z M170.8,292.9c-0.3,0-0.7,0-1,0.1c-0.8,0.2-1.6,0.6-2.4,1.2c-0.9,0.6-1.6,1.4-2.3,2.3
	c-0.6,0.8-1.2,1.7-1.7,2.9c-0.5,1.2-1,2.4-1.3,3.7c-0.3,1.3-0.6,2.7-0.7,3.9c-0.1,1.2-0.1,2.3,0.1,3.3c0.2,0.9,0.5,1.6,0.9,2.2
	c0.3,0.5,0.8,0.7,1.5,0.8c0.7,0.1,1.3-0.1,1.9-0.6c0.2-0.2,0.5-0.4,0.7-0.6c-0.3,0.2-0.7,0.3-1,0.3l0,0l-0.6-0.1
	c-0.5-0.2-1.5-0.9-1.7-2.7c-0.1-0.8,0-1.8,0.2-3.2c0.2-1.3,0.8-3,1.7-5.3c0.7-1.8,1.5-3.4,2.4-4.5c0.9-1.2,1.8-2,2.7-2.6
	c0.8-0.5,1.6-0.8,2.4-0.8l0,0c-0.2-0.1-0.4-0.2-0.6-0.3C171.5,292.9,171.2,292.9,170.8,292.9z M171.7,297.1
	C171.6,297.1,171.6,297.2,171.7,297.1c-0.6,0.4-1.2,1-1.9,1.8c-0.7,0.9-1.3,2.1-1.9,3.6c-0.7,1.9-1.2,3.3-1.4,4.4
	c0.1-0.2,0.2-0.4,0.3-0.5c0.6-0.9,1.2-2,1.8-3.2c0.6-1.2,1.2-2.4,1.7-3.5C170.9,298.8,171.3,297.9,171.7,297.1z M197.4,312.3
	c-0.1-0.8-0.3-1.6-0.4-2.4c-0.1-0.8-0.2-1.6-0.3-2.3c-0.1-0.8-0.1-1.7-0.2-2.5c-0.5,1.2-1.1,2.4-1.8,3.7c-0.7,1.2-1.4,2.4-2.3,3.3
	c-0.8,1-1.7,1.8-2.6,2.4c-0.9,0.6-1.9,0.8-2.8,0.7c-1.1-0.2-1.9-0.6-2.5-1.4c-0.6-0.8-1-1.8-1.2-3c-0.2-1.2-0.3-2.4-0.1-3.8
	c0.1-1.4,0.3-2.8,0.7-4.2c0.4-1.4,0.8-2.8,1.4-4c0.6-1.3,1.3-2.3,2-3.2c0.7-0.9,1.4-1.6,2.3-2.3c0.8-0.6,1.7-1.2,2.5-1.5
	c0.8-0.4,1.7-0.5,2.5-0.5c0.8,0.1,1.5,0.3,2.2,0.9c0.3-4.4,0.8-8.7,1.4-13c0.6-4.2,1.3-7.8,2-10.8c0.6-2.9,1.4-5.3,2.3-7.5
	c0.3-0.9,0.7-1.7,1.2-2.6c0.4-0.8,0.9-1.5,1.4-2.1c0.5-0.6,1-1,1.6-1.3c0.6-0.3,1.1-0.3,1.7-0.1c0.8,0.3,1.3,1.2,1.6,2.7
	c0.3,1.5,0.5,3.5,0.4,5.8c-0.1,2.4-0.3,5-0.7,8c-0.4,3-1,6-1.8,9.1c-0.8,3.1-1.7,6.1-2.8,9.1c-1.1,3-2.3,5.7-3.7,8.1
	c-0.2,2.5-0.4,4.8-0.4,7.1c-0.1,2.2-0.1,4.2,0.1,5.9c0.1,1.7,0.3,3.1,0.7,4.1c0.3,1,0.8,1.5,1.5,1.5c0.5,0,1-0.6,1.6-1.9
	c0.6-1.3,1.1-2.8,1.6-4.5c0.5-1.7,1-3.3,1.4-5c0.4-1.6,0.7-2.8,0.8-3.4c0.1-0.5,0.4-0.6,0.7-0.3c0,0.1,0.1,0.1,0.3,0.2
	c0.3,0.5,0.4,1,0.3,1.6c-0.1,0.5-0.2,1.2-0.4,2.3c-0.2,1.1-0.5,2.3-0.8,3.6c-0.3,1.3-0.7,2.7-1.2,4.1c-0.4,1.4-1,2.7-1.5,3.8
	c-0.6,1.1-1.2,2.1-1.8,2.8c-0.7,0.7-1.4,1.1-2.1,1c-0.6,0-1.2-0.3-1.7-0.9c-0.5-0.5-1-1.2-1.5-2.3
	C198.2,315.9,197.8,314.3,197.4,312.3z M188.9,310.7c0.3,0.1,0.8-0.3,1.4-1.1c0.6-0.8,1.3-1.8,2.1-3c0.7-1.2,1.5-2.5,2.3-3.8
	c0.8-1.3,1.4-2.5,1.9-3.4c0-0.7,0-1.3,0-2c0-0.6,0-1.3,0.1-2.1c-0.4-0.2-0.9-0.2-1.4-0.1c-0.5,0.1-1.1,0.5-1.7,1
	c-0.6,0.5-1.2,1.3-1.9,2.2c-0.6,0.9-1.2,2.1-1.7,3.5c-0.8,2.1-1.3,3.8-1.5,4.9c-0.2,1.2-0.2,2-0.2,2.6
	C188.3,310.1,188.6,310.5,188.9,310.7z M205.2,270.5c-0.2,0.9-0.4,2.1-0.7,3.6c-0.3,1.5-0.5,3.1-0.8,5c-0.3,1.9-0.6,3.9-0.9,6
	c-0.3,2.2-0.6,4.3-0.8,6.5c1.5-3.8,2.7-7.5,3.5-11.3c0.8-3.7,1.4-7.1,1.7-10.1c0.4-3.5,0.6-6.9,0.6-10c-0.3,0.9-0.6,2-0.9,3.2
	c-0.3,1.2-0.6,2.3-0.8,3.3C205.7,268,205.5,269.2,205.2,270.5z M202,321.9l-0.2,0c-0.6,0-1.7-0.2-2.7-1.3c-0.6-0.6-1.2-1.5-1.8-2.8
	c-0.6-1.2-1-2.9-1.4-5.1c-0.1-0.6-0.2-1.3-0.3-1.9c-0.6,0.9-1.2,1.8-1.8,2.6c-0.9,1.1-1.9,2-3,2.7c-1.2,0.8-2.5,1.1-3.9,0.9
	c-1.4-0.2-2.6-0.9-3.5-2.1c-0.8-1-1.3-2.3-1.6-3.8c-0.2-1.3-0.3-2.8-0.2-4.4c0.1-1.5,0.4-3,0.8-4.6c0.4-1.5,0.9-3,1.6-4.4
	c0.7-1.4,1.4-2.6,2.2-3.6c0.7-1,1.6-1.8,2.5-2.6c0.9-0.7,1.9-1.3,2.8-1.7c1-0.5,2.1-0.6,3.1-0.6c0.3,0,0.5,0,0.7,0.1
	c0.3-3.6,0.7-7.2,1.2-10.7c0.6-4.3,1.3-8,2-11c0.7-2.9,1.4-5.5,2.3-7.7c0.3-0.9,0.8-1.8,1.2-2.7c0.5-0.9,1-1.8,1.6-2.5
	c0.6-0.8,1.4-1.3,2.1-1.7c0.8-0.4,1.7-0.5,2.6-0.3l0.9-2.6v3c1,0.6,1.7,1.9,2.1,3.7c0.3,1.7,0.5,3.8,0.4,6.3
	c-0.1,2.4-0.3,5.2-0.7,8.2c-0.4,3-1,6.1-1.8,9.3c-0.8,3.1-1.7,6.3-2.8,9.3c-1.1,2.9-2.3,5.6-3.6,8c-0.2,2.3-0.3,4.5-0.4,6.5
	c-0.1,2.2-0.1,4.1,0.1,5.7c0.1,1.4,0.3,2.6,0.5,3.4c0.1-0.1,0.1-0.3,0.2-0.4c0.5-1.2,1-2.7,1.5-4.3c0.5-1.6,0.9-3.3,1.3-4.9l0.8-3.4
	c0.5-1.6,1.6-1.8,1.9-1.8c0.3,0,0.8,0.1,1.3,0.5l0.5,0.5c0.6,0.9,0.9,1.9,0.7,3.1c-0.1,0.4-0.2,1.2-0.4,2.3
	c-0.2,1.1-0.5,2.3-0.8,3.7c-0.4,1.4-0.8,2.8-1.2,4.2c-0.5,1.5-1,2.9-1.6,4.1c-0.6,1.3-1.3,2.4-2.1,3.2
	C204.2,321.4,203.1,321.9,202,321.9z M198,300.1l0.2,4.9c0,0.8,0.1,1.6,0.2,2.4c0.1,0.7,0.2,1.5,0.2,2.3c0.1,0.8,0.2,1.5,0.3,2.3
	c0.3,1.9,0.7,3.3,1.2,4.2c0.5,1.1,0.9,1.6,1.1,1.8c0.4,0.4,0.6,0.4,0.7,0.4l0.1,0c0.1,0,0.4,0,0.9-0.5c0.1-0.1,0.1-0.1,0.2-0.2
	c-0.8,0-2.1-0.4-2.9-2.7c-0.4-1.2-0.6-2.7-0.8-4.6c-0.1-1.8-0.1-3.8-0.1-6.1c0-0.6,0-1.2,0.1-1.8l-0.5,1.2l1.5-12.3
	c0.3-2.2,0.5-4.4,0.8-6.5c0.3-2.2,0.6-4.2,0.9-6.1c0.3-1.9,0.6-3.6,0.9-5c0.3-1.5,0.5-2.7,0.7-3.7c0.3-1.3,0.6-2.5,0.9-3.8l0.9-3.4
	c0.3-1.2,0.6-2.4,0.9-3.3l1.1-3.4c0,0-0.1,0-0.1,0.1c-0.4,0.2-0.7,0.5-1.1,0.9c-0.4,0.5-0.8,1.1-1.2,1.8c-0.4,0.8-0.8,1.6-1.1,2.4
	c-0.8,2.1-1.6,4.5-2.2,7.2c-0.7,3-1.4,6.5-1.9,10.7c-0.6,4.2-1,8.5-1.3,12.8l-0.1,2.1l0,0l-0.1,1.2c0,0.7-0.1,1.4-0.1,2
	c0,0.6,0,1.3,0,1.9v0.5L198,300.1z M194.3,292.8c-0.5,0-1.1,0.1-1.6,0.4c-0.7,0.3-1.4,0.8-2.2,1.3c-0.7,0.6-1.4,1.2-2,2
	c-0.7,0.8-1.2,1.8-1.8,2.9c-0.5,1.2-1,2.4-1.3,3.7c-0.3,1.3-0.5,2.6-0.7,3.9c-0.1,1.2-0.1,2.3,0.1,3.3c0.2,0.9,0.4,1.6,0.9,2.2
	c0.3,0.5,0.8,0.7,1.5,0.8c0.7,0.1,1.2,0,1.8-0.4c0.4-0.3,0.8-0.6,1.2-1c-0.4,0.3-0.9,0.5-1.4,0.5l0,0h-0.2l-0.3-0.1
	c-0.7-0.3-1.5-1-1.8-2.6c-0.1-0.9-0.1-1.9,0.2-3.3c0.2-1.3,0.7-3.1,1.6-5.3c0.6-1.5,1.2-2.8,1.9-3.9c0.7-1.1,1.4-1.9,2.2-2.6
	c0.8-0.7,1.6-1.2,2.4-1.3c0.3-0.1,0.6-0.1,0.9-0.1c-0.4-0.3-0.8-0.4-1.3-0.5L194.3,292.8z M192.8,309c-0.4,0.6-0.8,1.2-1.2,1.7
	C192,310.1,192.4,309.6,192.8,309z M195,297.1c-0.2,0.1-0.3,0.2-0.5,0.4c-0.5,0.4-1,1.1-1.6,1.9c-0.5,0.8-1.1,1.9-1.5,3.1
	c-0.8,2-1.3,3.5-1.4,4.6c0,0.1,0,0.1,0,0.2c0.4-0.5,0.8-1.1,1.2-1.8c0.7-1.2,1.5-2.4,2.2-3.7c0.6-1.1,1.2-2.1,1.7-3c0-0.5,0-1,0-1.5
	C195,297.2,195,297.2,195,297.1z M222.7,301c0.3,0.4,0.5,0.9,0.4,1.6c-0.1,0.7-0.3,1.9-0.7,3.5c-0.4,1.6-0.8,3.3-1.4,4.9
	c-0.6,1.7-1.3,3.2-2.2,4.4c-0.9,1.3-1.9,1.9-3.1,1.9c-1.7,0.1-3.1-0.5-4.3-1.6c-0.5-0.5-1-1.1-1.5-1.9c-0.5-0.8-0.9-1.8-1.2-3
	c-0.3-1.2-0.6-2.6-0.7-4.2c-0.1-1.6-0.1-3.6,0.1-5.8c0.3-2.5,0.7-4.7,1.4-6.7c0.3-0.8,0.6-1.6,1-2.4c0.4-0.8,0.8-1.5,1.3-2.1
	c0.5-0.6,1.1-1.1,1.7-1.4c0.6-0.3,1.4-0.5,2.1-0.4c1,0.1,1.8,0.5,2.3,1.3c0.5,0.8,0.9,1.7,1,2.8c0.1,1.1,0,2.3-0.2,3.6
	c-0.2,1.3-0.6,2.5-1.2,3.7c-0.6,1.1-1.3,2.1-2.1,2.9c-0.8,0.8-1.8,1.3-2.8,1.4c0,0.8,0,1.8,0.1,3c0.1,1.2,0.3,2.3,0.6,3.3
	c0.3,1,0.7,1.9,1.2,2.5c0.5,0.6,1.3,0.9,2.2,0.7c0.4-0.1,0.9-0.7,1.5-1.7c0.5-1,1.1-2.2,1.5-3.5c0.5-1.3,0.9-2.6,1.3-3.8
	c0.4-1.3,0.7-2.2,0.8-2.8c0-0.2,0.1-0.3,0.3-0.4c0.1-0.1,0.3,0,0.4,0.1C222.6,300.9,222.7,301,222.7,301z M215.6,292.2
	c-0.1,0-0.2,0.1-0.4,0.2c-0.2,0.1-0.4,0.5-0.7,1c-0.3,0.5-0.6,1.3-0.9,2.4c-0.3,1.1-0.6,2.6-0.9,4.5c0.4-0.3,0.9-0.7,1.4-1.2
	c0.5-0.6,1-1.4,1.5-2.4c0.4-0.9,0.6-1.6,0.7-2.2c0.1-0.6,0.1-1,0-1.4c-0.1-0.4-0.2-0.6-0.3-0.7C215.8,292.1,215.7,292.1,215.6,292.2
	z M215.5,319.1c-1.9,0-3.7-0.7-5.1-2c-0.6-0.6-1.3-1.3-1.8-2.3c-0.5-0.9-1-2.1-1.4-3.4c-0.4-1.3-0.6-2.9-0.8-4.6
	c-0.1-1.7-0.1-3.8,0.1-6.1c0.3-2.7,0.8-5,1.4-7.1c0.3-0.9,0.6-1.8,1.1-2.6c0.4-0.9,0.9-1.7,1.5-2.4c0.6-0.8,1.4-1.4,2.2-1.8
	c0.9-0.5,1.8-0.7,2.9-0.6c1.5,0.2,2.7,0.8,3.5,2c0.7,1,1.2,2.3,1.3,3.7c0.1,1.3,0.1,2.7-0.2,4.2c-0.3,1.5-0.7,2.9-1.4,4.1
	c-0.7,1.3-1.5,2.5-2.5,3.4c-0.7,0.6-1.4,1.1-2.2,1.4c0,0.4,0.1,0.9,0.1,1.4c0.1,1,0.3,2,0.5,2.9c0.2,0.8,0.5,1.4,0.9,1.8
	c0.1,0.1,0.3,0.2,0.6,0.2c0.1-0.1,0.3-0.3,0.6-0.9c0.5-0.9,1-2,1.4-3.2c0.5-1.3,0.9-2.5,1.3-3.7c0.4-1.2,0.6-2.1,0.8-2.7
	c0.1-0.7,0.6-1.3,1.3-1.6l0.3-0.1l0.4,0c0.4,0,0.8,0.1,1.1,0.4c0.2,0.1,0.4,0.3,0.5,0.5c0.5,0.5,1,1.5,0.8,3c-0.1,0.9-0.4,2-0.7,3.7
	c-0.4,1.7-0.9,3.4-1.5,5.2c-0.7,1.8-1.5,3.5-2.4,4.9c-1.5,2.1-3.2,2.6-4.3,2.6L215.5,319.1z M215.1,289.6c-0.4,0-0.8,0.1-1.2,0.3
	c-0.5,0.2-0.8,0.6-1.2,1c-0.4,0.5-0.8,1.1-1.1,1.7c-0.3,0.7-0.6,1.4-0.9,2.2c-0.6,1.8-1,4-1.3,6.3c-0.2,2.1-0.2,3.9-0.1,5.4
	c0.1,1.5,0.3,2.8,0.6,3.9c0.3,1,0.6,1.9,1,2.6c0.4,0.6,0.8,1.1,1.2,1.5c0.9,0.8,1.9,1.3,3.1,1.3l0.2,0c0.4,0,1-0.1,1.8-1.1
	c-0.1,0.1-0.3,0.1-0.4,0.1c-1.6,0.4-2.8-0.1-3.7-1.2c-0.7-0.8-1.2-1.9-1.6-3.2c-0.3-1.2-0.5-2.4-0.6-3.7c-0.1-1.2-0.1-2.3-0.1-3.2v0
	l-0.2,0.2l0.5-3.6c0.3-2,0.6-3.6,0.9-4.8c0.4-1.2,0.7-2.1,1-2.7c0.4-0.8,0.8-1.3,1.3-1.6c0.2-0.1,0.5-0.3,0.7-0.4l0.1-0.1l0.4,0
	c0.4,0,0.8,0.2,1.2,0.5c-0.1-0.2-0.2-0.4-0.3-0.6c-0.2-0.2-0.5-0.6-1.2-0.6L215.1,289.6z M278.1,253c0.6-0.2,1.1-0.2,1.6,0
	c0.4,0.1,0.8,0.4,1.2,0.7c0.4,0.4,0.7,1,0.9,1.8c3.2-0.5,5.7-1.5,7.4-2.9c1.7-1.4,3.1-3.4,4-6c0.1-0.3,0.3-0.5,0.5-0.6
	c0.2-0.1,0.5-0.1,0.6,0.1c0.3,0.3,0.6,0.6,0.9,1c0.3,0.4,0.5,0.9,0.7,1.7c0.3,1.1,0.3,2.3,0.1,3.5c-0.3,1.2-0.7,2.1-1.4,2.8
	c-0.5,0.5-1,1-1.8,1.5c-0.7,0.5-1.6,1-2.7,1.4c-1.1,0.4-2.3,0.8-3.7,1.1c-1.4,0.3-3.1,0.5-4.9,0.5c-0.3,1.8-0.6,4.2-0.9,7.2
	c-0.3,3-0.7,6.3-1,10c-0.3,3.7-0.6,7.8-0.9,12.2c-0.3,4.4-0.5,8.9-0.6,13.6c-0.1,4.7-0.1,9.5,0,14.3c0.1,4.9,0.4,9.7,0.9,14.4
	l0.1,0.1c3-0.2,5.4-0.7,7.3-1.7c1.9-1,3.2-1.9,4-2.7c0.3-0.3,0.6-0.3,0.9-0.1c0.3,0.2,0.4,0.5,0.5,1c0,0.3,0,0.5,0,0.8
	c0,0.3,0,0.5-0.1,0.8c-0.1,0.8-0.3,1.6-0.6,2.2c-0.4,0.6-0.8,1.1-1.4,1.3c-1.4,0.6-2.9,1-4.3,1.3c-1.4,0.3-2.7,0.6-3.9,0.8
	c-1.4,0.2-2.7,0.4-4.1,0.5c-2.6,0.3-4.7,0.3-6.5,0.2c-1.7-0.1-3.1-0.3-4.3-0.7c-1.1-0.4-2.1-0.8-2.8-1.3c-0.7-0.5-1.3-1-1.9-1.4
	c-0.8-0.6-1.3-1.5-1.7-2.6c-0.4-1.1-0.4-2.2-0.3-3.4c0.1-0.7,0.3-1.3,0.6-1.8s0.5-0.8,0.8-1.1c0.2-0.2,0.4-0.3,0.6-0.2
	c0.2,0.1,0.4,0.2,0.6,0.5c1.1,2.3,2.4,4.1,4,5.4c1.6,1.3,3.7,2.1,6.5,2.3c-0.1-2-0.3-5.2-0.5-9.6c-0.2-4.4-0.3-9.8-0.2-16.1
	c0.1-6.3,0.3-13.4,0.8-21.3c0.5-7.9,1.3-16.2,2.5-25c-0.3-0.1-0.6-0.1-0.9-0.1s-0.6,0-0.9,0c-0.5,2-1.1,4.1-1.8,6.2
	c-0.8,2.1-1.7,4.2-2.9,6.3c-1.2,2.1-2.6,4.1-4.3,6.1c-1.7,2-3.7,3.8-5.9,5.4c-1,0.8-2.2,1.6-3.5,2.2c-1.1,0.6-2.5,1.1-4.1,1.5
	c-1.6,0.4-3.4,0.7-5.5,0.7c-1.2,0-2.4-0.2-3.5-0.6s-2.1-1-3-1.7c-0.9-0.8-1.7-1.7-2.3-2.8c-0.6-1.1-1.1-2.4-1.3-3.9
	c-0.3-2.7-0.1-5.3,0.6-7.8c0.3-1,0.8-2.1,1.4-3.2c0.6-1.1,1.4-2.2,2.3-3.3c1-1.1,2.1-2.1,3.6-3c1.4-1,3.1-1.8,5-2.5
	c1.4-0.6,3.1-1.1,5.1-1.6c1.7-0.4,3.8-0.8,6.4-1.2c2.6-0.4,5.6-0.6,9.2-0.7c0.3-3.1,0.4-5.9,0.1-8.3c-0.3-2.4-0.8-4.2-1.5-5.3
	c-0.2-0.4-0.3-0.8-0.2-1.2c0.1-0.4,0.3-0.8,0.6-1c0.5-0.2,1-0.4,1.6-0.5c0.5-0.1,1.1-0.1,1.6,0c0.5,0.1,1.1,0.4,1.6,0.8
	c0.5,0.4,0.9,1,1.3,1.9c0.1,0.3,0.3,0.8,0.4,1.4c0.1,0.6,0.2,1.1,0.3,1.6c0.1,0.9,0.2,2.3,0.2,4.1c0,1.9-0.2,4-0.6,6.5h1.6
	c0.1-0.6,0.4-1.1,0.7-1.6C277.2,253.3,277.6,253.1,278.1,253z M265.2,269.6c0.8-1.7,1.5-3.4,2.1-5.2c0.6-1.8,1-3.5,1.4-5.3
	c-1.3,0-2.6,0-3.9,0.1c-1.3,0.1-2.6,0.1-3.8,0.2c-2.8,0.3-5.3,0.7-7.6,1.3c-2.2,0.5-4,1-5.2,1.5c-2.3,0.8-4.2,2-5.9,3.4
	c-0.7,0.6-1.4,1.3-2,2.2c-0.6,0.8-1.2,1.8-1.6,2.8c-0.4,1.1-0.7,2.2-0.9,3.5c-0.2,1.3-0.1,2.7,0.1,4.3c0.2,1.3,0.7,2.4,1.3,3.3
	c0.7,0.8,1.5,1.5,2.4,1.9c0.9,0.4,2,0.7,3.1,0.7c1.1,0.1,2.3-0.1,3.4-0.3c1.8-0.4,3.5-1,5.2-1.9c1.7-0.9,3.2-2,4.7-3.2
	c1.5-1.3,2.8-2.7,4-4.3C263.3,273.1,264.3,271.4,265.2,269.6z M272.4,337.4c-0.6,0-1.1,0-1.7,0c-1.8-0.1-3.4-0.4-4.6-0.8
	c-1.3-0.4-2.3-0.9-3.2-1.5c-0.8-0.5-1.4-1-2-1.6c-1-0.8-1.7-1.9-2.2-3.3c-0.5-1.4-0.6-2.8-0.3-4.3c0.1-0.9,0.4-1.8,0.8-2.4
	c0.3-0.6,0.7-1.1,1.1-1.5c0.5-0.5,1.3-0.8,2.1-0.6c0.6,0.2,1.1,0.6,1.5,1.2c1,2.2,2.2,3.8,3.6,4.9c1,0.8,2.3,1.4,3.8,1.7
	c-0.1-1.9-0.2-4.4-0.4-7.5c-0.2-4.4-0.3-9.9-0.2-16.2c0.1-6.3,0.3-13.5,0.8-21.4c0.3-5.5,0.8-11.2,1.5-17.2
	c-0.7,1.9-1.7,3.8-2.7,5.7c-1.2,2.2-2.8,4.3-4.5,6.4c-1.8,2.1-3.8,4-6.2,5.7c-1,0.9-2.3,1.7-3.7,2.3c-1.2,0.6-2.6,1.1-4.4,1.6
	c-1.7,0.5-3.7,0.7-5.8,0.7c-1.4,0-2.7-0.2-3.9-0.7c-1.3-0.4-2.4-1.1-3.5-2c-1.1-0.9-2-2-2.7-3.3c-0.7-1.3-1.3-2.9-1.5-4.6
	c-0.4-3-0.1-5.9,0.7-8.6c0.4-1.2,0.9-2.4,1.5-3.6c0.6-1.2,1.5-2.5,2.6-3.6c1-1.2,2.3-2.3,3.8-3.3c1.5-1,3.3-1.9,5.4-2.7
	c1.4-0.6,3.2-1.1,5.2-1.6c1.7-0.4,3.9-0.8,6.5-1.2c2.3-0.3,4.9-0.5,7.9-0.7c0.2-2.3,0.2-4.5-0.1-6.3c-0.3-2.6-0.8-3.9-1.2-4.4
	c-0.5-0.8-0.7-1.7-0.5-2.7c0.2-0.9,0.6-1.6,1.3-2.1l0.3-0.2c0.6-0.2,1.2-0.4,1.8-0.6c0.7-0.2,1.5-0.2,2.2-0.1
	c0.8,0.2,1.5,0.5,2.2,1.1c0.7,0.6,1.3,1.5,1.8,2.6c0.2,0.3,0.4,0.9,0.5,1.7c0.1,0.6,0.3,1.2,0.3,1.7c0.1,1,0.2,2.5,0.2,4.4
	c0,0.9,0,1.9-0.1,2.9c0.4-0.3,0.8-0.5,1.2-0.6c0.7-0.2,1.6-0.2,2.3,0c0.6,0.1,1.2,0.5,1.8,1.1c0.3,0.3,0.6,0.7,0.9,1.2
	c2.3-0.5,4.2-1.3,5.4-2.4c1.5-1.2,2.6-3,3.5-5.3c0.3-0.8,0.8-1.3,1.4-1.6c0.8-0.3,1.5-0.2,2.2,0.3c0.4,0.4,0.8,0.8,1.2,1.3
	c0.4,0.6,0.7,1.3,1,2.3c0.4,1.4,0.4,2.9,0.1,4.4c-0.3,1.5-1,2.7-1.8,3.7c-0.5,0.6-1.2,1.1-2,1.7c-0.8,0.6-1.9,1.2-3,1.6
	c-1.1,0.4-2.4,0.8-3.9,1.2c-1.2,0.3-2.4,0.4-3.8,0.5c-0.2,1.6-0.4,3.5-0.7,5.6c-0.3,2.9-0.7,6.3-1,10c-0.3,3.7-0.6,7.8-0.9,12.1
	c-0.3,4.4-0.5,8.9-0.6,13.5c-0.1,4.7-0.1,9.5,0,14.2c0.1,4.3,0.4,8.5,0.7,12.6c2.1-0.2,3.9-0.7,5.2-1.5c2.1-1.2,3.2-2,3.6-2.4
	c0.6-0.6,1.2-0.7,1.5-0.7c0.4,0,0.9,0.1,1.3,0.4c0.7,0.5,1.1,1.3,1.2,2.3l0,0.9c0,0.4,0,0.7-0.1,1.1c-0.1,1-0.4,2-0.9,2.9
	c-0.5,0.9-1.3,1.6-2.2,2c-1.5,0.6-3.1,1.1-4.6,1.4c-1.5,0.3-2.8,0.6-4,0.8c-1.5,0.2-2.9,0.4-4.2,0.5
	C275.6,337.4,273.9,337.4,272.4,337.4z M261.8,325.7c-0.1,0.2-0.2,0.5-0.2,0.9c-0.1,0.9-0.1,1.7,0.2,2.5c0.3,0.8,0.6,1.3,1.1,1.7
	c0.5,0.5,1.1,0.9,1.7,1.4c0.6,0.4,1.4,0.8,2.4,1.1c1,0.3,2.4,0.5,3.9,0.6c1.6,0.1,3.7,0,6.2-0.2c1.3-0.1,2.6-0.3,4-0.5
	c1.1-0.2,2.4-0.5,3.9-0.8c1.3-0.3,2.7-0.7,4.1-1.3c0.2-0.1,0.5-0.3,0.6-0.6c0.2-0.4,0.3-0.8,0.4-1.3c-0.8,0.6-1.8,1.2-3,1.8
	c-2,1.1-4.7,1.8-7.9,1.9l-0.8,0l-0.8-1.1l-0.1-0.6c-0.5-4.7-0.7-9.6-0.9-14.5c-0.1-4.9-0.1-9.7,0-14.5c0.1-4.7,0.3-9.3,0.6-13.7
	c0.3-4.4,0.6-8.5,0.9-12.2c0.3-3.7,0.7-7.1,1-10.1c0.3-2.9,0.6-5.4,0.9-7.2l0.2-1.5h1.3c1.7,0,3.3-0.1,4.6-0.4
	c1.3-0.3,2.5-0.6,3.5-1c0.9-0.4,1.7-0.8,2.3-1.2c0.7-0.5,1.2-0.9,1.6-1.3c0.4-0.5,0.8-1.1,0.9-2c0.2-0.9,0.2-1.7,0-2.5
	c-0.1-0.3-0.2-0.6-0.2-0.7c-1,2.3-2.4,4.2-4.1,5.6c-1.9,1.6-4.7,2.7-8.1,3.2l-1.4,0.2l-0.4-1.5c-0.1-0.6-0.3-0.8-0.4-0.9
	c-0.2-0.2-0.4-0.3-0.6-0.4c-0.4-0.1-0.6-0.1-0.8,0c-0.1,0-0.2,0-0.3,0.3c-0.2,0.3-0.4,0.6-0.4,0.9l-0.3,1.3h-4.7l0.3-2.1
	c0.4-2.4,0.5-4.5,0.5-6.2c0-1.8-0.1-3.1-0.2-3.9c-0.1-0.4-0.2-0.9-0.3-1.4c-0.1-0.6-0.2-0.9-0.3-0.9c-0.3-0.7-0.5-1-0.8-1.3
	c-0.3-0.3-0.6-0.4-0.9-0.5c-0.3-0.1-0.7-0.1-1,0c-0.3,0.1-0.5,0.1-0.8,0.2c0.8,1.3,1.3,3.2,1.6,5.7c0.3,2.6,0.3,5.5-0.1,8.7
	l-0.2,1.5l-1.4,0c-2,0.1-3.9,0.2-5.7,0.3c0.4,0,0.8,0,1.2-0.1c1.3-0.1,2.6-0.1,3.9-0.1h2l-0.4,2.1c-0.3,1.8-0.8,3.7-1.4,5.5
	c-0.6,1.8-1.3,3.7-2.2,5.5c-0.9,1.9-2,3.7-3.3,5.4c-1.3,1.7-2.7,3.2-4.3,4.5c-1.5,1.3-3.2,2.5-5,3.4c-1.4,0.7-2.8,1.3-4.2,1.7
	c0.3-0.1,0.7-0.1,1-0.2c1.5-0.4,2.8-0.9,3.8-1.4c1.2-0.6,2.3-1.3,3.2-2c2.2-1.6,4.1-3.4,5.7-5.2c1.6-1.9,3-3.8,4.1-5.8
	c1.1-2,2.1-4,2.8-6.1c0.7-2,1.3-4.1,1.8-6l0.3-1.3h2.2c0.4,0,0.8,0,1.2,0.1l1.6,0.3l-0.2,1.8c-1.2,8.7-2,17.1-2.5,24.9
	c-0.5,7.8-0.7,14.9-0.8,21.2c-0.1,6.3,0,11.7,0.2,16c0.2,4.4,0.4,7.6,0.5,9.5l0.2,2.1l-1.9-0.2c-3-0.3-5.4-1.2-7.2-2.7
	C264.2,329.2,262.9,327.6,261.8,325.7z M266.6,260.9c-0.6,0-1.2,0-1.8,0.1c-1.3,0.1-2.5,0.1-3.8,0.2c-2.7,0.3-5.2,0.7-7.3,1.2
	c-2.2,0.5-3.9,1-5.1,1.5c-2.1,0.8-3.9,1.8-5.4,3.1c-0.6,0.6-1.2,1.2-1.8,1.9c-0.5,0.7-1,1.5-1.3,2.4c-0.4,0.9-0.6,2-0.8,3.1
	c-0.1,1.1-0.1,2.3,0.1,3.7c0.2,1,0.5,1.8,1,2.4c0.5,0.6,1.1,1.1,1.8,1.4c0.8,0.4,1.6,0.6,2.6,0.6c0.2,0,0.3,0,0.5,0l0,0
	c0.8,0,1.7-0.1,2.6-0.3c1.6-0.3,3.3-0.9,4.8-1.7c1.6-0.8,3-1.8,4.4-3c1.4-1.2,2.7-2.6,3.8-4c1.1-1.5,2.1-3.1,2.9-4.8
	c0.8-1.6,1.5-3.3,2-5C266.1,262.8,266.4,261.9,266.6,260.9z M312.1,301c0.3,0.5,0.5,1,0.3,1.6c-0.1,0.4-0.2,1-0.3,1.6
	c-0.1,0.7-0.3,1.4-0.5,2.3c-0.2,0.9-0.4,1.7-0.7,2.7c-0.3,0.9-0.6,1.8-0.9,2.7c-1.1,3-2.2,5.7-3.4,7.9c-0.5,1-1.1,1.9-1.7,2.8
	c-0.6,0.9-1.2,1.7-1.8,2.3c-0.6,0.6-1.2,1.1-1.9,1.5c-0.6,0.3-1.3,0.4-1.9,0.3c-1.1-0.3-1.9-1.1-2.4-2.6c-0.5-1.5-0.9-3.1-1-5
	c-0.2-1.8-0.2-3.7-0.1-5.5c0.1-1.8,0.2-3.3,0.3-4.2c0.3-2.3,0.7-4.5,1.1-6.6c0.4-2.1,0.8-4,1.2-5.8c0.4-1.7,0.6-3.1,0.8-4.3
	c0.1-1.1,0.1-1.9-0.2-2.3c-0.2-0.3-0.5-0.3-0.8-0.1c-0.3,0.2-0.6,0.4-0.9,0.7c-0.3,0.3-0.7,0.7-1,1.2c-0.8,1.3-1.5,2.8-2.3,4.6
	c-0.7,1.8-1.4,3.6-2,5.5c-0.6,1.9-1.1,3.7-1.5,5.4c-0.5,1.7-0.8,3.1-1.1,4.3c0,0.1-0.1,0.3-0.2,0.5c-0.1,0.3-0.3,0.5-0.5,0.8
	c-0.2,0.3-0.4,0.5-0.8,0.7c-0.3,0.2-0.7,0.3-1.2,0.3c-0.8,0-1.3-0.2-1.7-0.7c-0.4-0.4-0.7-0.8-0.9-1.1c-0.6-1.4-1-3.1-1-5.2
	c0-2.1,0.1-4.1,0.3-6.2c0.3-2,0.6-4,1-5.8c0.4-1.8,0.7-3.1,0.9-4c0.1-0.6,0.5-0.9,1.1-1c0.5,0,1.2,0,1.9,0.1c0.7,0.1,1.4,0.3,2,0.7
	c0.6,0.5,0.9,1.2,0.7,2c-0.1,0.6-0.3,1.3-0.5,2.3c-0.2,0.9-0.4,2-0.6,3.1c-0.2,1.2-0.4,2.4-0.6,3.7c-0.2,1.3-0.4,2.6-0.5,3.9
	c0.4-1.8,1-3.8,1.7-6.1c0.7-2.3,1.5-4.5,2.5-6.5c0.9-2,2-3.8,3.1-5.2c1.1-1.4,2.3-2.1,3.6-2c1.1,0.1,1.9,0.4,2.6,1
	c0.6,0.6,1.1,1.5,1.4,2.5c0.3,1,0.4,2.1,0.5,3.3c0,1.2,0,2.4-0.1,3.7c-0.1,1.2-0.3,2.4-0.5,3.5c-0.2,1.1-0.3,2.1-0.4,3
	c-0.8,3.3-1.3,6.3-1.7,9c-0.2,1.1-0.4,2.3-0.5,3.4c-0.2,1.1-0.3,2.1-0.3,3.1c-0.1,0.9,0,1.7,0,2.4c0.1,0.6,0.2,1,0.4,1.2
	c0.3,0.3,0.8,0.1,1.4-0.6c0.6-0.6,1.2-1.6,1.9-2.9c0.7-1.3,1.4-2.7,2.2-4.4c0.7-1.7,1.4-3.4,2.1-5.1c0.6-1.5,1.1-3,1.5-4.7
	c0.5-1.7,0.8-2.9,1-3.7c0.1-0.5,0.4-0.6,0.7-0.3C311.8,300.8,311.9,300.9,312.1,301z M299.9,328.6c-0.3,0-0.6,0-0.9-0.1
	c-1.1-0.3-2.6-1.1-3.6-3.7c-0.6-1.6-1-3.5-1.1-5.5c-0.2-1.9-0.2-3.9-0.1-5.8c0.1-1.9,0.2-3.3,0.3-4.4c0.3-2.3,0.7-4.6,1.1-6.8
	c0.4-2.1,0.8-4.1,1.2-5.8c0.2-1,0.4-2,0.6-2.8c-0.6,1.1-1.2,2.4-1.8,3.8c-0.7,1.7-1.4,3.5-1.9,5.3c-0.6,1.8-1.1,3.6-1.5,5.3
	c-0.4,1.7-0.8,3.1-1.1,4.2l-0.1,0.2c0,0.1-0.1,0.3-0.3,0.6c-0.2,0.4-0.4,0.8-0.6,1.1c-0.3,0.4-0.7,0.8-1.3,1.1
	c-0.5,0.3-1.2,0.5-1.9,0.5c-1.2,0-2.1-0.4-2.8-1.2c-0.5-0.5-0.8-1-1.1-1.4l-0.1-0.2c-0.7-1.6-1.1-3.6-1.2-6c0-2.2,0.1-4.3,0.4-6.5
	c0.3-2.1,0.6-4.1,1-5.9c0.4-1.8,0.7-3.2,0.9-4.1c0.2-1.2,1.1-2.1,2.3-2.3l0.2,0c0.6,0,1.3,0,2.1,0.1c1,0.1,1.9,0.4,2.7,1
	c0.5,0.4,0.9,0.9,1.2,1.4c0.8-1.5,1.6-2.8,2.5-3.9c1.4-1.7,3-2.6,4.6-2.6l0.2,0c1.5,0.1,2.7,0.6,3.6,1.5c0.8,0.9,1.4,1.9,1.8,3.2
	c0.3,1.1,0.5,2.4,0.6,3.8c0,1.3,0,2.6-0.1,3.9c-0.1,1.2-0.3,2.5-0.5,3.7c-0.2,1.1-0.3,2.1-0.4,2.9c-0.8,3.4-1.3,6.4-1.8,9.1
	c-0.2,1.1-0.4,2.3-0.5,3.3c-0.1,1-0.2,2-0.3,2.9c0,0.2,0,0.4,0,0.5c0.3-0.4,0.6-0.9,0.9-1.5c0.7-1.2,1.4-2.6,2.1-4.2
	c0.7-1.6,1.4-3.3,2.1-5c0.5-1.4,1-2.9,1.5-4.5c0.4-1.6,0.8-2.8,0.9-3.6c0.5-1.6,1.6-1.8,1.9-1.8c0.3,0,0.8,0.1,1.3,0.5l0.5,0.5
	c0.6,0.9,0.9,2,0.7,3.1c-0.1,0.4-0.2,0.9-0.3,1.6c-0.1,0.7-0.3,1.5-0.5,2.4c-0.2,0.9-0.5,1.8-0.8,2.8c-0.3,1-0.6,1.9-1,2.9
	c-1.1,3-2.2,5.8-3.5,8.1c-0.6,1-1.1,2-1.7,3c-0.6,1-1.3,1.9-2,2.6c-0.7,0.8-1.5,1.4-2.3,1.8C301.2,328.4,300.6,328.6,299.9,328.6z
	 M298.5,288.5c0.6,0,1.1,0.3,1.5,0.8c0.7,0.9,0.8,2,0.6,3.8c-0.2,1.2-0.4,2.7-0.8,4.4c-0.4,1.7-0.8,3.6-1.2,5.7
	c-0.4,2.1-0.8,4.3-1.1,6.5c-0.1,0.9-0.2,2.3-0.3,4.1c-0.1,1.7,0,3.5,0.1,5.3c0.2,1.7,0.5,3.2,0.9,4.5c0.5,1.3,1.1,1.5,1.3,1.5
	c0.3,0.1,0.6,0,0.9-0.1c0.3-0.1,0.6-0.3,0.9-0.6c-0.5,0-0.9-0.1-1.2-0.4c-0.9-0.6-1.1-2-1.1-2.4c-0.1-0.8-0.1-1.7,0-2.7
	c0.1-1,0.2-2.1,0.3-3.2c0.2-1.1,0.3-2.3,0.5-3.4c0.4-2.7,1-5.8,1.8-9.1c0.1-0.7,0.2-1.7,0.4-2.8c0.2-1.1,0.3-2.2,0.4-3.4
	c0.1-1.1,0.1-2.3,0.1-3.4c0-1-0.2-2-0.4-2.8c-0.2-0.7-0.5-1.3-0.9-1.7c-0.3-0.3-0.9-0.5-1.6-0.6h0
	C299.3,288.2,298.9,288.3,298.5,288.5z M285.6,311.6c0.1,0.1,0.3,0.4,0.6,0.8c0.1,0.1,0.3,0.1,0.6,0.1c0.3,0,0.4-0.1,0.4-0.1
	c0.2-0.1,0.2-0.2,0.3-0.2c0.1-0.2,0.2-0.3,0.3-0.4c0.1-0.1,0.1-0.3,0.1-0.3c0.3-1.1,0.6-2.5,1.1-4.2c0.1-0.3,0.1-0.5,0.2-0.8l-2-0.4
	c0.1-1.3,0.3-2.7,0.5-4c0.2-1.3,0.4-2.6,0.7-3.8c0.2-1.2,0.4-2.3,0.7-3.2c0.2-1,0.4-1.7,0.6-2.3c-0.4-0.3-0.8-0.4-1.3-0.5
	c-0.5-0.1-1-0.1-1.4-0.1c-0.2,0.9-0.5,2.1-0.8,3.6c-0.4,1.7-0.7,3.6-0.9,5.6c-0.2,1.9-0.4,3.9-0.3,5.9
	C284.9,309,285.1,310.5,285.6,311.6z M119.5,135.4c1.2,0.3,2.6,0.1,3.5-1.5c0.5-0.9,0.5-1.1,1.3-1.1c6.6,0,13.2-0.2,19.7-0.1
	c5.6,0.1,11.3,0.8,16.9,0.4c0.5,0,0.7-1,0.7-2c0-1-0.2-2-0.7-2c-5.6-0.4-11.3,0.4-16.9,0.4c-3.6,0-7.1-0.1-10.7-0.1
	c-1.8,0-3.7,0-5.5,0.2c-1.3,0.1-3,0.8-4.2-0.2c-0.7-0.5-1.2-1.9-1.8-2.8c-0.5-0.8-1-1.9-1.7-2.1c-0.8-0.2-1.5,1-2.2,1.7
	c-0.7,0.8-1.5,1.6-2.2,2.4c-0.4,0.4-1.5,1.1-1.7,1.8c-0.6,2.5,2.4,3.1,3.1,3.4C117.9,134.5,118.6,135.2,119.5,135.4z M120.4,137.5
	L120.4,137.5c-0.3,0-0.7,0-1-0.1c-0.7-0.2-1.3-0.6-1.9-1c-0.2-0.2-0.5-0.3-0.7-0.5c-0.1-0.1-0.2-0.1-0.4-0.2
	c-1.4-0.5-2.7-1.2-3.3-3.1c-0.2-0.9-0.2-1.9,0-2.8c0.3-1.2,1.1-1.9,1.8-2.4c0.1-0.1,0.3-0.2,0.4-0.3l2.2-2.4
	c0.1-0.2,0.3-0.3,0.4-0.5c0.6-0.8,1.4-1.7,2.4-1.5c0.9,0.2,1.5,1.3,2,2.2c0.1,0.1,0.2,0.3,0.2,0.4c0.2,0.3,0.4,0.7,0.6,1
	c0.3,0.6,0.7,1.2,0.9,1.5c0.3,0.2,0.7,0.3,1.2,0.3c0.5,0,1-0.1,1.5-0.2c0.4-0.1,0.7-0.1,1.1-0.1c1.7-0.1,3.4-0.2,5.6-0.2h0.1
	c1.6,0,3.2,0,4.8,0.1c1.6,0,3.2,0.1,4.7,0.1l1,0c2.1,0,4.3-0.1,6.4-0.3c2.3-0.1,4.8-0.3,7.1-0.3c1.2,0,2.3,0,3.4,0.1v0
	c0.5,0,0.9,0.4,1.2,0.9c0.4,0.7,0.6,1.8,0.6,3c0,1.1-0.2,2.2-0.6,3c-0.3,0.6-0.7,0.9-1.2,0.9c-1.1,0.1-2.2,0.1-3.4,0.1
	c-2.4,0-4.8-0.1-7.2-0.3c-2.1-0.1-4.2-0.2-6.4-0.3c-3.9,0-7.8,0-11.6,0c-2.6,0-5.3,0.1-7.9,0.1h-0.2c-0.2,0-0.2,0-0.3,0
	c0,0.1-0.1,0.2-0.2,0.3l-0.2,0.3C122.7,137.1,121.3,137.5,120.4,137.5z M115.3,131.2c0.5,0.3,1.1,0.6,1.4,0.7
	c0.3,0.1,0.5,0.2,0.6,0.3c0.3,0.2,0.5,0.3,0.8,0.5c0.5,0.3,1,0.7,1.5,0.8c0.2,0.1,0.5,0.1,0.7,0.1c0.8,0,1.5-0.4,1.9-1.1l0.1-0.3
	c0.2-0.4,0.4-0.8,0.7-1c-0.6-0.5-1.1-1.4-1.5-2.2c-0.2-0.3-0.3-0.6-0.5-0.8c-0.1-0.1-0.2-0.3-0.3-0.4c-0.3-0.5-0.7-1.1-0.9-1.2h0
	c-0.3,0-0.6,0.4-1,0.9c-0.2,0.2-0.4,0.4-0.5,0.6l-2.2,2.4c-0.1,0.1-0.3,0.3-0.6,0.5C115.6,131,115.5,131.1,115.3,131.2z
	 M153.3,131.2c2.5,0.1,5.1,0.2,7.3,0c0,0,0,0,0-0.1c-1-0.1-2-0.1-3.1-0.1C156.2,131.1,154.7,131.1,153.3,131.2z M166.5,130.6
	c0.9-0.1,3.1,0.8,3.4-1.6c0.4-2.8-2-3.9-3.1-3.3c-2.3,1.3-3,7.2-1.6,10.6c0.6,1.4,1.1,2,2.1,2.1c1.7,0.2,3.5,0.1,5.1-1.3
	c0.5-0.4,2.9-3.9,3.2-2.2c0.2,0.9-0.2,2.1-0.4,2.9c-0.3,2-0.4,4.2-0.4,6.3c0,1.2,0.1,3.1,0.5,4.1c0.4,1.2,1,0.1,1.6-0.5
	c1.3-1.3,2.1-2.7,2.3-5.5c0.2-1.9,0.5-2.7,1.2-4.2c0.6-1.3,1.4-2.7,1.6-4.5c0.2-1.9-0.3-4.5-0.7-6.2c-0.3-1.3-0.3-1.6,0.4-2.5
	c0.4-0.6,1-1,1.5-1.4c1.2-0.8,2.4-1.4,3.6-1.4c2.8-0.1,7,4.4,7.5,9.8c0.1,0.7,0,1.5,0,2.2c-0.5,3.9-2.3,7-4.3,7.8
	c-1.5,0.5-3.5,1-4.9-0.6c-1-1.1-1-2.7-0.8-4.7c0.2-1.7,0.9-3.2,1.9-2.8c1.1,0.4,2,2.4,3.3,1.7c0.6-0.3,0.9-1.3,0.7-2.4
	c-0.4-2.2-2.6-2.4-3.6-2c-1.5,0.5-2.6,2.8-3,5.5c-0.4,2.7,0.4,5.3,1.4,7.1c1.3,2.2,2.6,2.5,4.3,2.7c1.7,0.1,3.3-0.6,4.8-2.1
	c0.7-0.7,1.6-1.5,2-2.8c0.2-0.7,0.4-1.4,0.5-2.1c0.7,3.2,2,5.9,4,7.1c2.5,1.4,4.9,0.5,7.3-1.1c1.1-0.8,2.4-1.5,3.5-2.7
	c0.9-1.1,1.5-1.7,2.2,0.5c0.4,1.3,1,2.5,1.6,3.4c1,1.5,2.3,2,3.6,2c1.1,0,2-1.5,3.2-1.8c0.4-0.1,1.5,0.5,1.8,0.1
	c0.4-0.5,0.1-2,0-2.6c-0.5-2.3-1.8-3.8-2.8-5.3c-0.7-1.1-1.6-1.7-2.5-1.9c-0.5-0.1-1.6,0.2-1.7-0.9c-0.1-1.4,1.2-2.7,1.7-3.5
	c1.9-3.2,4.8-5.9,7.4-5.7c1.1,0.1,2.1,0.6,2.7,2.6c0.5,1.8,0.1,3-1,3.1c-0.9,0.1-3.1-0.8-3.4,1.6c-0.4,2.8,2,3.9,3.1,3.3
	c2.3-1.3,3-7.2,1.6-10.6c-0.6-1.4-1.1-2-2.1-2.1c-1.7-0.2-3.5-0.1-5.1,1.3c-0.5,0.4-2.9,3.9-3.2,2.2c-0.2-0.9,0.2-2.1,0.4-2.9
	c0.3-2,0.4-4.2,0.4-6.3c0-1.2-0.1-3.1-0.5-4.1c-0.4-1.2-1-0.2-1.6,0.5c-1.3,1.3-2.1,2.7-2.3,5.5c-0.2,1.9-0.5,2.7-1.2,4.2
	c-0.6,1.3-1.4,2.7-1.6,4.5c-0.2,1.9,0.3,4.5,0.7,6.2c0.3,1.3,0.3,1.6-0.4,2.5c-0.4,0.6-1,1-1.5,1.4c-1.2,0.8-2.4,1.4-3.6,1.4
	c-2.8,0.1-7-4.4-7.5-9.8c-0.1-0.7,0-1.5,0-2.2c0.5-3.9,2.3-7,4.3-7.8c1.5-0.5,3.5-1,4.9,0.6c1,1.1,1,2.7,0.8,4.7
	c-0.2,1.7-0.9,3.2-1.9,2.8c-1.1-0.4-2-2.4-3.3-1.7c-0.6,0.3-0.9,1.3-0.7,2.4c0.4,2.2,2.6,2.4,3.6,2c1.5-0.5,2.6-2.8,3-5.5
	c0.4-2.7-0.4-5.3-1.4-7.1c-1.3-2.2-2.6-2.5-4.3-2.7c-1.7-0.1-3.3,0.6-4.8,2.1c-0.7,0.7-1.6,1.5-2,2.8c-0.2,0.7-0.4,1.4-0.5,2.1
	c-0.7-3.2-2-5.9-4-7.1c-2.5-1.4-4.9-0.5-7.3,1.1c-1.1,0.8-2.4,1.5-3.5,2.7c-0.9,1.1-1.5,1.7-2.2-0.5c-0.4-1.3-1-2.5-1.6-3.4
	c-1-1.5-2.3-2-3.6-2c-1.1,0-2,1.5-3.2,1.8c-0.4,0.1-1.5-0.5-1.8-0.1c-0.4,0.5-0.1,2,0,2.6c0.5,2.3,1.8,3.8,2.8,5.3
	c0.7,1.1,1.6,1.7,2.5,1.9c0.5,0.1,1.6-0.2,1.7,0.9c0.1,1.4-1.2,2.7-1.7,3.5c-1.9,3.2-4.8,5.9-7.4,5.7c-1.1-0.1-2.1-0.6-2.7-2.6
	C165.1,132,165.5,130.7,166.5,130.6z M175.8,150.8c-0.3,0-0.9-0.2-1.3-1.4c-0.6-1.6-0.7-4.2-0.7-5.3c0-2.2,0.1-4.6,0.5-6.8
	c0,0,0-0.1,0-0.1c-0.3,0.4-0.7,0.8-0.8,1c-0.3,0.3-0.5,0.6-0.6,0.7c-1.2,1.1-2.6,1.6-4.4,1.6c-0.4,0-0.8,0-1.2-0.1
	c-1.2-0.1-2.1-1-2.9-2.9c-0.9-2.3-1.2-5.4-0.7-8.2c0.5-2.7,1.5-4.6,2.8-5.4c0.3-0.2,0.6-0.2,0.9-0.2c1,0,2.4,0.8,3.1,2.4
	c0.4,1,0.5,2.3,0.3,3.5c-0.3,2-1.3,3.1-2.9,3.1c-0.3,0-0.6,0-0.8-0.1c-0.2,0-0.4,0-0.5,0l-0.1,0c-0.1,0-0.1,0-0.1,0
	c0,0.1,0,0.2,0.1,0.3c0.2,0.7,0.6,1.5,1.8,1.5c2.5,0.2,5.1-2.6,6.7-5.2c0.1-0.2,0.3-0.5,0.5-0.7c0.1-0.1,0.1-0.2,0.2-0.2
	c-0.1,0-0.1,0-0.2,0c-1.2-0.3-2.2-1-3-2.3c-0.2-0.3-0.4-0.6-0.6-0.9c-0.9-1.3-2-2.8-2.5-5.1c-0.7-3.2,0-4.6,0.3-5
	c0.3-0.3,0.6-0.5,1-0.5c0.3,0,0.6,0.1,0.9,0.2c0.2,0,0.3,0.1,0.5,0.1c0.4-0.1,0.8-0.4,1.2-0.7c0.6-0.5,1.3-1,2.1-1
	c1.8,0.1,3.2,0.9,4.2,2.5c0.8,1.2,1.5,2.6,1.9,4c0.1,0.2,0.1,0.3,0.1,0.4c0.1-0.1,0.4-0.4,0.6-0.6c0.9-1,1.9-1.7,2.9-2.3
	c0.3-0.2,0.5-0.3,0.7-0.5c3.1-2.2,5.6-2.5,8-1.2c1.5,0.9,2.8,2.5,3.7,4.9c0.5-1,1.1-1.7,1.7-2.2l0.3-0.3c1.7-1.7,3.4-2.5,5.3-2.4
	c1.8,0.1,3.4,0.5,4.9,3.2c1.5,2.5,2.1,5.8,1.8,8.8c0.3-0.9,0.7-1.7,1-2.4c0.1-0.2,0.2-0.4,0.3-0.6c0.6-1.3,0.8-1.8,1-3.3
	c0.4-3.7,1.4-5.4,2.9-6.9c0.1-0.1,0.2-0.2,0.3-0.4c0.4-0.4,0.8-0.9,1.3-0.9c0.3,0,0.9,0.2,1.3,1.4c0.6,1.6,0.7,4.2,0.7,5.3
	c0,2.2-0.1,4.6-0.5,6.8c0,0,0,0.1,0,0.1c0.3-0.4,0.7-0.8,0.8-1c0.3-0.3,0.5-0.6,0.6-0.7c1.2-1.1,2.6-1.6,4.4-1.6
	c0.4,0,0.8,0,1.2,0.1c1.2,0.1,2.1,1,2.9,2.9c0.9,2.3,1.2,5.4,0.7,8.2c-0.5,2.7-1.5,4.6-2.8,5.4c-0.3,0.2-0.6,0.2-0.9,0.2
	c-1,0-2.4-0.8-3.1-2.4c-0.4-1-0.5-2.3-0.3-3.5c0.3-2,1.3-3.1,2.9-3.1c0.3,0,0.6,0,0.8,0.1c0.2,0,0.4,0,0.5,0l0.1,0
	c0.1,0,0.1,0,0.1,0c0-0.1,0-0.2-0.1-0.3c-0.2-0.7-0.6-1.5-1.8-1.5c-2.5-0.2-5.1,2.6-6.7,5.2c-0.1,0.2-0.3,0.5-0.5,0.7
	c-0.1,0.1-0.1,0.2-0.2,0.2c0.1,0,0.1,0,0.2,0c1.2,0.3,2.2,1,3,2.3c0.2,0.3,0.4,0.6,0.6,0.9c0.9,1.3,2,2.8,2.5,5.1
	c0.7,3.2,0,4.6-0.3,5c-0.3,0.3-0.6,0.5-1,0.5c-0.3,0-0.6-0.1-0.9-0.2c-0.2,0-0.3-0.1-0.5-0.1c-0.4,0.1-0.8,0.4-1.2,0.7
	c-0.6,0.5-1.3,1-2.1,1c-1.8-0.1-3.2-0.9-4.2-2.5c-0.8-1.2-1.5-2.6-1.9-4c-0.1-0.2-0.1-0.3-0.1-0.4c-0.1,0.1-0.4,0.4-0.6,0.6
	c-0.9,1-1.9,1.7-2.9,2.3c-0.3,0.2-0.5,0.3-0.7,0.5c-3.1,2.2-5.6,2.5-8,1.2c-1.5-0.9-2.8-2.5-3.7-4.9c-0.5,1-1.1,1.7-1.7,2.2
	l-0.3,0.3c-1.7,1.7-3.4,2.5-5.3,2.4c-1.8-0.1-3.4-0.5-4.9-3.2c-1.5-2.5-2.1-5.8-1.8-8.8c-0.3,0.9-0.7,1.7-1,2.4
	c-0.1,0.2-0.2,0.4-0.3,0.6c-0.6,1.3-0.8,1.8-1,3.3c-0.4,3.7-1.4,5.4-2.9,6.9c-0.1,0.1-0.2,0.2-0.3,0.4
	C176.7,150.3,176.3,150.8,175.8,150.8z M212.9,139.8c0.8,0.4,1.3,1.8,1.4,2.3c0.3,1,0.8,2,1.4,2.9c0.7,1,1.7,1.6,2.9,1.6h0
	c0.4,0,0.8-0.3,1.3-0.7c0.5-0.4,1.1-0.9,1.8-1c0.2-0.1,0.6,0,0.9,0.1c-0.3-1.3-1.1-2.4-1.8-3.5c-0.2-0.3-0.5-0.7-0.7-1
	c-0.5-0.8-1.1-1.2-2-1.5c-0.1,0-0.2,0-0.3,0c0,0,0,0,0,0c-0.6,0-2.1,0-2.3-2.5c-0.2-2.3,0.9-3.8,1.7-4.8c0.1-0.2,0.3-0.3,0.4-0.5
	c0.1-0.2,0.3-0.5,0.5-0.7c-0.3-0.3-0.6-0.8-0.7-1.5c-0.3-1.4,0-2.7,0.2-3.6c0-0.2,0.1-0.4,0.1-0.6c0.3-1.7,0.3-3.8,0.4-5.8
	c0-0.7-0.1-1.6-0.2-2.3l0,0c-0.1,0.2-0.3,0.3-0.4,0.5c-1.2,1.2-1.6,2.2-1.8,4.1c-0.2,2.4-0.7,3.5-1.4,5.1c-0.1,0.2-0.2,0.4-0.3,0.6
	c-0.5,0.9-1,2-1.1,3c-0.1,0.6-0.1,2,0.6,4.9C214,137.1,213.9,138.4,212.9,139.8z M175.9,132.8c0.3,0.3,0.6,0.8,0.7,1.5
	c0.3,1.4,0,2.7-0.2,3.6c0,0.2-0.1,0.4-0.1,0.6c-0.3,1.7-0.4,3.8-0.4,5.8c0,0.7,0.1,1.6,0.2,2.3l0,0c0.1-0.2,0.3-0.3,0.4-0.5
	c1.2-1.2,1.6-2.2,1.8-4.1c0.2-2.4,0.7-3.5,1.4-5.1c0.1-0.2,0.2-0.4,0.3-0.6c0.5-0.9,1-2,1.1-3c0.1-0.6,0.1-2-0.6-4.9
	c-0.5-2.1-0.4-3.4,0.6-4.7c-0.8-0.4-1.3-1.8-1.4-2.3c-0.3-1-0.8-2-1.4-2.9c-0.7-1-1.7-1.6-2.9-1.6h0c-0.4,0-0.8,0.3-1.3,0.7
	c-0.5,0.4-1.1,0.9-1.8,1c-0.3,0.1-0.6,0-0.9-0.1c0.3,1.3,1.1,2.4,1.8,3.5c0.2,0.3,0.5,0.7,0.7,1c0.5,0.8,1.1,1.2,2,1.5
	c0.1,0,0.2,0,0.3,0c0,0,0,0,0,0c0.6,0,2.1,0,2.3,2.5c0.2,2.3-0.9,3.8-1.7,4.8c-0.1,0.2-0.3,0.3-0.4,0.5
	C176.2,132.4,176,132.6,175.9,132.8z M196.6,134.2l0.9,4.4c0.4,2.1,1.3,4.8,3.3,5.9c1.9,1.1,4,0.8,6.6-1.1c0.2-0.2,0.4-0.3,0.7-0.5
	c-0.3,0.1-0.7,0.1-1,0.1l-0.1,0c-3.4,0-7.9-5.1-8.4-11.5c-0.1-1-0.1-2,0.1-3c0.5-4.4,2.6-8.2,5.1-9.3c0.6-0.2,1.2-0.4,1.7-0.5
	c-0.3,0-0.6-0.1-0.9-0.1c-1.5-0.1-2.9,0.5-4.2,1.9l-0.3,0.3c-0.5,0.5-1.1,1.1-1.3,1.7c-0.2,0.6-0.3,1.3-0.5,1.9l-1,4.4l-0.9-4.4
	c-0.4-2.1-1.3-4.8-3.3-5.9c-1.9-1.1-4-0.8-6.6,1.1c-0.2,0.2-0.4,0.3-0.7,0.5c0.3-0.1,0.7-0.1,1-0.1l0.1,0c3.4,0,7.9,5.1,8.4,11.5
	c0.1,1,0.1,2-0.1,3c-0.5,4.4-2.6,8.2-5.1,9.2c-0.6,0.2-1.2,0.4-1.7,0.5c0.3,0,0.6,0.1,0.9,0.1c1.5,0.1,2.9-0.5,4.2-1.9l0.3-0.3
	c0.5-0.5,1.1-1.1,1.3-1.7c0.2-0.6,0.3-1.3,0.5-1.9L196.6,134.2z M185.9,135.8c-0.3,0-0.5,0.9-0.6,1.4c-0.2,1.8,0,2.2,0.3,2.6
	c0.8,0.9,2.2,1,4.1,0.3c1.7-0.7,3.2-3.3,3.5-6.3c0.1-0.5,0.1-1,0-1.5c-0.3-4.1-3.9-8.2-6.3-8.2l-0.1,0c-1.1,0.1-2.2,0.5-3.3,1.3
	c-0.4,0.3-0.9,0.7-1.3,1.2c0,0,0,0,0,0.1l0,0c0.7,2.9,1,5.2,0.8,7.1c0.7-2.2,1.9-3.9,3.2-4.4c0.3-0.1,0.7-0.2,1.1-0.2
	c1.9,0,3.3,1.3,3.7,3.5c0.2,1,0.2,2.1-0.1,3c-0.3,0.9-0.7,1.6-1.3,1.9c-0.3,0.1-0.5,0.2-0.8,0.2c-0.8,0-1.5-0.6-2-1.2
	c-0.3-0.3-0.6-0.6-0.9-0.7C186,135.8,186,135.8,185.9,135.8z M206.4,122.8c-0.6,0-1.4,0.2-2.2,0.5c-1.7,0.7-3.2,3.3-3.5,6.3
	c-0.1,0.5-0.1,1,0,1.5c0.3,4.1,3.9,8.2,6.3,8.2l0.1,0c1.1-0.1,2.2-0.5,3.3-1.3c0.4-0.3,0.9-0.7,1.3-1.2c0,0,0,0,0-0.1l0,0
	c-0.7-2.9-1-5.2-0.8-7c-0.7,2.2-1.9,3.9-3.2,4.4c-0.3,0.1-0.7,0.2-1.1,0.2c-1.9,0-3.3-1.3-3.7-3.5c-0.2-1-0.2-2.1,0.1-3
	c0.3-0.9,0.7-1.6,1.3-1.9c0.3-0.1,0.5-0.2,0.8-0.2c0.8,0,1.5,0.6,2,1.2c0.3,0.3,0.6,0.6,0.9,0.7c0,0,0.1,0,0.1,0
	c0.3,0,0.5-0.9,0.6-1.4c0.2-1.8,0-2.2-0.3-2.6C207.9,123.1,207.2,122.8,206.4,122.8z M225.9,134.6c-0.7,0-0.9,0.2-0.9,0.3
	c0.1,0.4,0.7,1,1.4,1c0.2,0,0.3,0,0.3-0.1c0.4-0.2,0.7-0.6,0.9-1.1c-0.1,0-0.1,0-0.2,0c-0.2,0-0.5,0-0.9,0
	C226.4,134.6,226.1,134.6,225.9,134.6z M187.8,133C187.9,133,187.9,133.1,187.8,133c0.6,0.6,1,0.9,1.4,0.8
	C189,133.5,188.6,133.1,187.8,133z M204.8,129.6c0.2,0.3,0.6,0.7,1.4,0.8c0,0-0.1-0.1-0.1-0.1C205.6,129.8,205.2,129.4,204.8,129.6z
	 M166.7,128.7c0.2,0,0.4,0,0.6,0c0.2,0,0.5,0,0.7,0c0.7,0,0.9-0.2,0.9-0.3c-0.1-0.4-0.7-1-1.4-1c-0.2,0-0.3,0-0.3,0.1
	c-0.4,0.2-0.7,0.6-0.9,1.1c0.1,0,0.1,0,0.2,0C166.5,128.7,166.6,128.7,166.7,128.7z M276.3,128.5c-0.8-0.5-1.6-1.1-2.4-1.4
	c-1.2-0.3-2.6-0.1-3.5,1.5c-0.5,0.9-0.5,1.1-1.3,1.1c-6.6,0-13.2,0.2-19.7,0.1c-5.6-0.1-11.3-0.8-16.9-0.4c-0.5,0-0.7,1-0.7,2
	c0,1,0.2,2,0.7,2c5.6,0.4,11.3-0.4,16.9-0.4c3.6,0,7.1,0.1,10.7,0.1c1.8,0,3.7,0,5.5-0.2c1.3-0.1,3-0.8,4.2,0.2
	c0.7,0.5,1.2,1.9,1.8,2.8c0.5,0.8,1,1.9,1.7,2.1c0.8,0.2,1.5-1,2.2-1.7c0.7-0.8,1.5-1.6,2.2-2.4c0.4-0.4,1.5-1.1,1.7-1.8
	C279.9,129.4,276.9,128.8,276.3,128.5z M273.4,139.8L273.4,139.8c-0.1,0-0.2,0-0.3,0c-0.9-0.2-1.5-1.3-2-2.2
	c-0.1-0.1-0.2-0.3-0.2-0.4c-0.2-0.3-0.4-0.7-0.6-1c-0.3-0.6-0.7-1.2-0.9-1.5c-0.3-0.2-0.7-0.3-1.2-0.3c-0.5,0-1,0.1-1.5,0.2
	c-0.4,0.1-0.7,0.1-1.1,0.1c-1.7,0.1-3.4,0.2-5.6,0.2h-0.1c-1.6,0-3.2,0-4.7-0.1c-1.6,0-3.2-0.1-4.7-0.1l-1.1,0
	c-2.1,0-4.3,0.1-6.4,0.3c-2.3,0.1-4.8,0.3-7.1,0.3c-1.2,0-2.3,0-3.4-0.1v0c-0.5,0-0.9-0.4-1.2-0.9c-0.4-0.7-0.6-1.8-0.6-3
	c0-1.1,0.2-2.2,0.6-3c0.3-0.6,0.7-0.9,1.2-0.9c1.1-0.1,2.2-0.1,3.4-0.1c2.4,0,4.8,0.1,7.2,0.3c2.1,0.1,4.2,0.2,6.4,0.3
	c3.9,0,7.8,0,11.6,0c2.6,0,5.2,0,7.9,0h0.2c0.2,0,0.2,0,0.3,0c0-0.1,0.1-0.2,0.2-0.3l0.2-0.3c1-1.8,2.4-2.1,3.3-2.1
	c0.3,0,0.7,0,1,0.1c0.7,0.2,1.3,0.6,1.9,1c0.2,0.2,0.5,0.3,0.7,0.5c0.1,0.1,0.2,0.1,0.4,0.2c1.1,0.4,2.7,1,3.3,3.1
	c0.2,0.9,0.2,1.9,0,2.8c-0.3,1.2-1.1,1.9-1.8,2.4c-0.1,0.1-0.3,0.2-0.4,0.3l-2.2,2.4c-0.1,0.1-0.3,0.3-0.4,0.5
	C275,139,274.3,139.8,273.4,139.8z M270.2,131.3c0.6,0.5,1.1,1.4,1.5,2.2c0.2,0.3,0.3,0.6,0.5,0.8c0.1,0.1,0.2,0.3,0.3,0.4
	c0.3,0.5,0.7,1.1,0.9,1.2l0.1,0c0.3,0,0.6-0.4,0.9-0.9c0.2-0.2,0.4-0.4,0.5-0.6l2.2-2.4c0.1-0.1,0.3-0.3,0.6-0.5
	c0.1-0.1,0.2-0.2,0.3-0.3c-0.5-0.3-1.1-0.6-1.4-0.7c-0.3-0.1-0.5-0.2-0.6-0.3c-0.3-0.2-0.5-0.3-0.8-0.5c-0.5-0.3-1-0.7-1.5-0.8
	c-1.1-0.3-2.1,0.1-2.7,1l-0.1,0.3C270.6,130.7,270.4,131,270.2,131.3z M232.7,131.3c1,0.1,2,0.1,3,0.1c1.4,0,2.9,0,4.3-0.1
	C237.5,131.2,234.9,131.2,232.7,131.3C232.7,131.3,232.7,131.3,232.7,131.3z M103.6,296.3c-3.8-6.8-17.3-1.6-18.6,6.2
	c-1.7-4-10.4-10.5-16-8.6c-6.3,2-3.7,8.2-1.8,12c3.9,7.7,12.5,15.4,22,18.5c0.3,1,5.9-7.5,8-10.5C100.9,308.4,106.8,302,103.6,296.3
	z M200.4,241.5c-3.8-6.8-17.3-1.6-18.6,6.2c-1.7-4-10.4-10.5-16-8.6c-6.3,2-3.7,8.2-1.8,12c3.9,7.7,12.5,15.4,22,18.5
	c0.3,1,5.9-7.5,8-10.5C197.8,253.7,203.6,247.3,200.4,241.5z M327.1,117.6c-3.8-6.8-17.3-1.6-18.6,6.2c-1.7-4-10.4-10.5-16-8.6
	c-6.3,2-3.7,8.2-1.8,12c3.9,7.7,12.5,15.4,22,18.5c0.3,1,5.9-7.5,8-10.5C324.5,129.8,330.4,123.4,327.1,117.6z"/>
</svg>
