<?xml version="1.0" encoding="utf-8"?>
<!-- Generator: Adobe Illustrator 18.0.0, SVG Export Plug-In . SVG Version: 6.00 Build 0)  -->
<!DOCTYPE svg PUBLIC "-//W3C//DTD SVG 1.1//EN" "http://www.w3.org/Graphics/SVG/1.1/DTD/svg11.dtd">
<svg version="1.1" id="Layer_1" xmlns="http://www.w3.org/2000/svg" xmlns:xlink="http://www.w3.org/1999/xlink" x="0px" y="0px"
	 viewBox="0 0 432 432" enable-background="new 0 0 432 432" xml:space="preserve">
<path fill="#BC936B" d="M63.1,346.9c-3-5.9-4.3-12.7-4.3-19.7c0-3.9,0.2-8.1,0-12.2c-0.2-2.1,0-4.3-2.3-6.4c-0.7,1.3-1.8,2.3-2,3.5
	c-1.3,6.6-2.8,13.1-3.3,19.9c-0.7,6.9-0.3,13.8,0,20.7c0.7,11.7,1.6,23.3,2.3,35.2c0.2,3.3-0.3,6.6-0.3,10c-0.2,1.6-0.3,3.3,2.5,4.4
	c0.8-0.7,2-1.3,2.5-2.3c1.5-3.3,3-6.7,4.1-10.2c1.6-4.8,3.1-9.5,4.8-14.3c0.5-1.1,1.5-2,2.5-3.3c1,1.1,1.8,1.8,2.1,2.6
	c1.1,4.6,2,9.4,0.7,14.1c-1.6,6.1-3,12.2-5.3,17.9c-2.5,6.1-7.9,8.9-14.5,8.7c-3.6-0.2-6.7-1.5-9.4-3.6c-3.9-3.1-6.7-7.1-8.1-11.5
	c-1.1-3.9-2.3-8.1-2.3-12c0-18.4,0-36.8,0.5-55.2c0.2-7.1,1.5-14.3,3-21.4c0.8-4.1,3-8.2,4.8-12.2c1.6-3.3,4.3-5.9,7.7-8.1
	c6.1-3.9,12.5-3.6,17.3,1.6c2.5,2.5,4.4,5.4,5.6,8.6c1.6,4.1,3,8.4,3.3,12.7c0.5,7.1,0.3,14.3,0.2,21.4c0,3.8-1.3,7.1-4.1,10
	C69,347.9,66.7,348.7,63.1,346.9z M109.6,376.6c-5.1-0.2-9.4-0.5-14.1-0.2c-0.5,2.3-1,4.3-1.5,6.4l-5.4,27.6
	c-0.7,2.5-0.8,5.4-4.3,6.6c-0.7-0.5-1.5-1-2.6-1.6c-0.7-9-1.3-18.1-1.3-27.1c-0.2-9.4,1-18.4,2.3-27.6c1.6-10.7,2.6-21.7,3-32.7
	c0.3-8.7,1.3-17.4,4.1-25.6c1-3.1,2.3-6.4,4.3-9c4.8-6.7,12.7-6.7,18.9-0.2c3.5,3.8,5.4,8.6,6.7,13.3c2.3,9.2,3.6,18.6,3.8,28
	c0.2,12,0.5,24,0.7,36c0,8.5,0,17.1-0.2,25.6c0,2.5-0.3,4.9-0.8,7.2c-0.7,3.3-3,5.4-5.8,5.4c-3,0-5.9-2.3-6.7-6.1
	c-0.7-3-0.8-5.9-0.8-8.9c-0.2-4.1,0.2-8.2,0.2-12.5C109.9,380.1,109.8,378.9,109.6,376.6z M109.6,362c-0.2-3.1-0.2-5.3-0.2-7.4
	c0-5.3-0.5-10.4-0.2-15.4c0.7-9.7-1-19.1-3-28.6c-0.3-1.5-1.2-2.6-2.1-4.8c-0.8,1.8-1.5,2.8-1.6,3.9c-0.8,4.8-1.8,9.4-2.3,14.3
	c-1.2,12.2-2,24.2-3,36.3c0,0.7,0.3,1.3,0.7,2.5C101.7,362.6,105.2,362.3,109.6,362z M178.5,355.9c-0.5,1.8-1.1,3.8-1.6,5.8
	l-3.9,18.1c-0.7,2.3-1.1,4.6-2.1,6.7c-2.6,5.3-9,4.9-12.3-0.3c-0.8-1.5-1.5-3.3-1.8-4.9c-1.1-6.1-2.1-12-3.1-18.1
	c-0.3-2.1,0-4.3-1.8-6.6c-0.5,1-0.8,1.5-1,2.1c-1.3,13.8-2.8,27.6-4.3,41.4c-0.3,3.1-1.2,6.2-2,9.2c-0.2,1-1.3,1.6-2.3,3
	c-1.3-1.3-2.8-2.3-3-3.5c-0.8-3.3-1.5-6.7-1.6-10c-0.7-8.9-1.2-17.6-1.8-26.3c-0.2-2.8-0.5-5.4-1-8.1c-3.3-15.6-2.6-31.1-1.8-46.5
	c0.3-4.1,0.5-8.2,1-12.3c0.3-2.3,0.8-4.8,1.6-6.9c1.3-3.5,3.9-5.3,8.4-3.8c2.5,2,5.1,4.3,8.2,7.1c3.3,6.2,5.3,13.5,7.2,20.6
	c1.8,6.9,3.5,13.8,5.3,20.7c2.1,0.2,2-1.3,2.3-2.3l13.3-40.4c1-2.8,2.6-5.4,4.1-8.2c1-1.8,2.6-3.1,5.3-3.3c3.9,0.7,5.8,3.3,6.2,7.1
	c0.3,2,0.3,3.9,0.3,5.9c-0.5,14-0.8,28-1.5,41.9c-0.2,5.1-1,10.2-1.5,15.1c-0.8,7.9-1.8,15.8-2.5,23.7c-0.5,6.6-0.8,13,0.2,19.7
	c0.2,1.8,0.3,3.8,0.2,5.8c-0.2,3.4-0.8,4.4-4.4,7.4c-2,0.2-3.6-0.7-4.4-2.3c-2.3-4.3-4.4-8.4-4.8-13.1c-0.8-11.5-0.5-22.9,0.8-34.2
	l1-9.9C179,356.1,178.8,355.9,178.5,355.9z M223,372.7c-0.3,9.4-1,18.1-1.2,27c-0.2,4.6-1.3,8.9-3.5,12.8c-0.7,1.1-1.8,1.8-3,3
	c-1.5-1-3.1-1.5-3.6-2.6c-1.6-2.8-3.3-5.6-3.9-8.6c-1.2-4.9-2-10-2-15.1c-0.3-10.5-0.3-21,0-31.4c0.5-11.8,0.2-23.5-1.2-35.2
	c-0.7-6.2-0.3-12.5,1.6-18.2c1.1-3.1,2.6-6.1,4.4-8.7c3.8-5.4,9.4-7.2,16.1-6.2c10.5,1.8,22.8,9,25,24.5c0.8,5.8,1.6,11.5,1.2,17.3
	c-0.7,7.7-3.1,14.6-7.6,20.9c-4.9,6.7-10.9,12.5-17.8,17.4C226.3,370.4,224.8,371.5,223,372.7z M223.5,352.8c0.7,0,1,0,1.2-0.2
	c5.1-4.9,9.2-10.7,11.8-17.6c1.8-4.8,2.1-10,0.5-15.3c-1-3-2.3-5.9-3.6-8.7c-0.5-1-1.5-1.6-2.5-2.5c-3.3,3.5-4.3,7.6-4.8,11.8
	c-0.8,7.6-1.5,15-2.1,22.5C223.7,346.2,223.7,349.5,223.5,352.8z M267.7,294.3c3-1.2,5.6-2.3,8.1-3.3c6.1,1.6,7.7,3.3,8.2,8.4
	c0.2,1.3,0.2,2.6,0,3.9c-2.5,23.8-2.1,47.7-2,71.5c0.2,10.9-0.8,21.7-1.3,32.4c-0.2,1.8-1,3.6-1.5,5.8l-5.6,0.5
	c-1-2.1-2.1-3.9-2.8-5.9c-3-8.7-4.8-17.8-5.4-27c-0.7-10-1.6-20.1-2.5-30.1c-1.3-13.5-2.3-27-0.5-40.4
	C263.1,304.6,264,299.4,267.7,294.3z M332.8,364.5c1.3-9.5,1-18.1,1-26.6c-0.2-9.5-0.3-19.2-0.2-28.8c0-3.3,0.7-6.6,1.5-9.7
	c0.7-2.8,2-5.4,6.1-5.8c0.7,0.5,2,0.8,2.3,1.6c3.1,5.8,6.4,11.5,6.2,18.1c-0.5,15.9-0.5,32.1-0.7,48c-0.2,7.1-0.2,14-0.7,20.9
	c-0.5,5.4-1.8,10.7-2.8,15.9c-0.5,2.6-2.3,4.1-4.8,4.3c-10-0.5-14.5-5.8-17.1-13.8c-3.8-11.2-8.4-22-12.5-33c-0.3-0.8-1-1.6-2.3-3.8
	c-1,21.5-2.6,41.6-6.9,61.2c-0.2,0.5-0.8,1-1.6,2c-1.3-1-3-1.6-3.5-2.8c-1.3-3.1-2.6-6.6-3-9.9c-0.8-10-1.5-20.2-1.6-30.2
	c-0.2-11.8,0.2-23.5,0.3-35.2l0.5-35.8c0.2-2.3,0.5-4.8,1.5-6.9c2.3-5.4,8.7-5.9,13.2-1c2,2.1,3.5,5.1,4.6,7.9
	c5.1,12.5,8.5,25.3,12,38.3c2,6.9,4.3,13.6,6.2,20.5C331.2,361,331.7,362.2,332.8,364.5z M396,309.1l-6.6-1.2
	c-4.6,2.1-6.7,5.9-8.1,10.2c-6.9,20.9-9.4,42.6-7.6,64.9c0.3,2.8,1.1,5.8,1.8,8.6c0.7,2.1,1.8,3.8,4.4,5.1c4.1,0.5,7.9-1.3,9.7-5.4
	c3.6-7.9,5.6-16.1,3.5-25c-0.2-1.2-0.8-2-1.3-3.1l-9.5-1.5c-0.8-1.3-1.8-2.5-2.3-3.5c-0.2-4.4,4.8-9,10.5-10.5
	c3.1-0.7,6.2-1.1,9.4,0.2c2.5,0.8,3.8,2.8,4.6,5.6c-0.3,2-0.7,4.3-1.1,6.7c7.4,15.4,3.3,29.6-5.3,42.9c-2.1,3.5-5.3,6.2-9.2,7.7
	c-10.5,4.1-22.5-1.1-26.6-12.2c-2.1-5.8-3.4-11.8-3.8-17.8c-1.5-23,1.1-45.5,8.1-67.4c1.8-5.3,4.4-9.9,8.1-14
	c2.6-2.8,5.9-5.1,9.7-6.2c3.3-1.1,6.6-1.3,10-0.2c3.6,1.5,6.4,3.9,6.9,8.1C401.7,305.1,399.8,307.6,396,309.1z M90.7,188.2
	c0.1,2-0.8,3.1-2.8,3.4c-1.3,0.2-2.4,0-3.3-0.5s-1.5-1.2-1.7-2.1c-0.1-0.3-0.1-0.5-0.1-0.7c0-0.2,0-0.4,0-0.7
	c0.1-4.6,0.1-9.3,0.1-13.9c0-4.6,0-9.2,0-13.9c0-2.1,0-4.1,0-6.2c0-2.1-0.1-4.1-0.1-6.2c0-0.3,0-0.5,0-0.8c0-0.3,0-0.6,0-0.8
	c-0.1-1.2,0.3-2.1,1.1-2.7c0.8-0.6,1.7-1,2.6-1.1c1-0.1,2,0.1,2.8,0.6c0.9,0.5,1.5,1.3,1.7,2.2c0.8,3.2,2.1,6.2,3.6,9.1
	s3,5.8,4.3,8.8c0.1,0.2,0.2,0.3,0.4,0.5c0.1,0.2,0.3,0.4,0.5,0.6c0.4-0.8,0.8-1.6,1.1-2.3c0.3-0.7,0.7-1.5,1.1-2.2
	c0.9-1.9,1.8-3.8,2.8-5.7c1-1.9,1.9-3.8,2.8-5.7c0.3-0.6,0.6-1.2,0.8-1.8c0.2-0.6,0.5-1.3,0.8-1.9c0.7-1.3,1.8-2,3.3-1.9
	c0.9,0.1,1.7,0.3,2.3,0.7c0.7,0.4,1.1,1,1.5,1.8c0.2,0.3,0.3,0.6,0.3,0.9c0.1,0.3,0.1,0.6,0.2,1c0.1,0.5,0.2,0.9,0.2,1.4
	c0,0.5,0,0.9,0,1.3c-0.1,3.6-0.1,7.3-0.1,10.8c0,3.6,0,7.2,0,10.8c-0.1,2.7-0.1,5.5,0,8.2c0,2.7,0,5.4,0,8.2c0,0.3-0.1,0.7-0.2,1.3
	c-0.3,1.7-1.3,2.6-3.1,2.8c-2.4,0.3-3.9-0.5-4.4-2.2c-0.4-1.3-0.6-2.7-0.6-4.2c-0.1-3.3-0.1-6.5,0-9.7c0-3.2,0-6.5,0-9.7
	c0-0.3-0.1-0.6-0.2-1c-0.1-0.1-0.2-0.1-0.4-0.1c-0.6,1.3-1.2,2.5-1.8,3.8c-0.6,1.3-1.2,2.6-1.8,3.8c-0.2,0.3-0.3,0.6-0.4,0.9
	c-0.1,0.3-0.3,0.6-0.4,0.8c-0.7,1.6-2,2.3-3.7,2.3c-0.8,0-1.6-0.2-2.3-0.5c-0.7-0.3-1.2-0.9-1.5-1.6c-0.6-1.2-1.2-2.4-1.8-3.7
	c-0.6-1.2-1.1-2.5-1.7-3.7c-0.4-0.9-0.9-2-1.6-3c-0.1,0-0.2,0-0.2,0c-0.1,0-0.1,0-0.2,0c-0.1,0.3-0.1,0.6-0.1,0.9c0,0.3,0,0.6,0,0.9
	V182c0,1.1,0,2.1,0.1,3.1C90.7,186.1,90.7,187.1,90.7,188.2z M125.1,178.2c0-5,0-9.9,0-14.7c0-4.9-0.1-9.7-0.1-14.6
	c0-0.5,0-0.9,0-1.4s0-0.9,0.1-1.3c0.1-0.9,0.5-1.6,1.1-2.1c0.6-0.5,1.4-0.8,2.3-0.8c3,0,5.9,0,8.8,0c2.9,0,5.9,0,8.8,0
	c0.5,0,0.9,0,1.4,0c0.4,0,0.9,0,1.4,0.1c0.8,0.1,1.5,0.3,2,0.9c0.5,0.5,0.8,1.2,0.9,1.9c0.1,0.9,0,1.7-0.4,2.4
	c-0.4,0.7-1,1.1-1.8,1.3c-1.6,0.4-3.4,0.6-5.1,0.7c-1.6,0.1-3.3,0.1-4.9,0.1c-1.6,0-3.3,0-5,0c-0.4,0.1-0.8,0.1-1.1,0.2
	c-0.3,0.1-0.7,0.1-1.1,0.2v11c1.1,0,2.2,0.1,3.2,0.1c1,0,2.1,0,3.1,0c0.9,0,1.8,0,2.6,0c0.8,0,1.7,0,2.5,0c0.3,0,0.5,0,0.8,0
	s0.5,0,0.8,0.1c0.7,0.1,1.4,0.4,1.9,1c0.6,0.6,0.9,1.2,1,1.9c0.1,0.7-0.1,1.4-0.5,2.1c-0.4,0.7-1,1.2-1.7,1.4
	c-1,0.4-2.1,0.6-3.2,0.7c-1.4,0.1-2.8,0.1-4.2,0c-1.4,0-2.8,0-4.2,0c-1,0.1-1.5,0.2-1.7,0.3c-0.2,0.2-0.4,0.7-0.5,1.7
	c-0.2,2.1-0.3,4.2-0.2,6.3c0.1,2.1,0.1,4.2,0,6.3c0.4,0.1,0.7,0.1,0.9,0.1c0.2,0,0.4,0.1,0.7,0.1c2.4,0.1,4.8,0.2,7.2,0.2
	c2.4,0.1,4.8,0.1,7.3,0.2c1.7,0,2.8,0.8,3.4,2.5c0.4,0.9,0.3,1.8-0.1,2.7c-0.4,0.8-1.1,1.4-2.1,1.7c-0.6,0.2-1.2,0.2-1.8,0.2
	c-3.2,0.1-6.3,0.1-9.4,0.1s-6.2,0.1-9.4,0.2c-1.3,0-2.3-0.3-3-0.9c-0.7-0.6-1.1-1.7-1.1-3.1c0.1-1.6,0.1-3.2,0.1-4.8
	C125.1,181.4,125.1,179.8,125.1,178.2z M168.4,188.2c0.1,2-0.8,3.1-2.8,3.4c-1.3,0.2-2.4,0-3.3-0.5c-1-0.5-1.5-1.2-1.7-2.1
	c-0.1-0.3-0.1-0.5-0.1-0.7c0-0.2,0-0.4,0-0.7c0.1-4.6,0.1-9.3,0.1-13.9c0-4.6,0-9.2,0-13.9c0-2.1,0-4.1,0-6.2c0-2.1-0.1-4.1-0.1-6.2
	c0-0.3,0-0.5,0-0.8c0-0.3,0-0.6,0-0.8c-0.1-1.2,0.3-2.1,1.1-2.7c0.8-0.6,1.7-1,2.6-1.1c1-0.1,2,0.1,2.8,0.6c0.9,0.5,1.5,1.3,1.7,2.2
	c0.8,3.2,2.1,6.2,3.6,9.1c1.6,2.9,3,5.8,4.3,8.8c0.1,0.2,0.2,0.3,0.4,0.5c0.1,0.2,0.3,0.4,0.5,0.6c0.4-0.8,0.8-1.6,1.1-2.3
	c0.3-0.7,0.7-1.5,1.1-2.2c0.9-1.9,1.8-3.8,2.8-5.7c1-1.9,1.9-3.8,2.8-5.7c0.3-0.6,0.6-1.2,0.8-1.8c0.2-0.6,0.5-1.3,0.8-1.9
	c0.7-1.3,1.8-2,3.3-1.9c0.9,0.1,1.7,0.3,2.3,0.7c0.7,0.4,1.1,1,1.5,1.8c0.2,0.3,0.3,0.6,0.3,0.9c0.1,0.3,0.1,0.6,0.2,1
	c0.1,0.5,0.2,0.9,0.2,1.4c0,0.5,0,0.9,0,1.3c-0.1,3.6-0.1,7.3-0.1,10.8c0,3.6,0,7.2,0,10.8c-0.1,2.7-0.1,5.5,0,8.2
	c0,2.7,0,5.4,0,8.2c0,0.3-0.1,0.7-0.2,1.3c-0.3,1.7-1.3,2.6-3.1,2.8c-2.4,0.3-3.9-0.5-4.4-2.2c-0.4-1.3-0.6-2.7-0.6-4.2
	c-0.1-3.3-0.1-6.5,0-9.7c0-3.2,0-6.5,0-9.7c0-0.3-0.1-0.6-0.2-1c-0.1-0.1-0.2-0.1-0.4-0.1c-0.6,1.3-1.2,2.5-1.8,3.8
	c-0.6,1.3-1.2,2.6-1.8,3.8c-0.2,0.3-0.3,0.6-0.4,0.9c-0.1,0.3-0.3,0.6-0.4,0.8c-0.7,1.6-2,2.3-3.7,2.3c-0.8,0-1.6-0.2-2.3-0.5
	c-0.7-0.3-1.2-0.9-1.5-1.6c-0.6-1.2-1.2-2.4-1.8-3.7c-0.6-1.2-1.1-2.5-1.7-3.7c-0.4-0.9-0.9-2-1.6-3c-0.1,0-0.2,0-0.2,0
	c-0.1,0-0.1,0-0.2,0c-0.1,0.3-0.1,0.6-0.1,0.9c0,0.3,0,0.6,0,0.9V182c0,1.1,0,2.1,0.1,3.1C168.4,186.1,168.4,187.1,168.4,188.2z
	 M203.5,155.4c0-2.7,0.6-5.2,1.9-7.4c1.2-2.2,3.2-3.9,5.7-5.1c2.6-1.3,5.3-1.8,8-1.5c2.7,0.3,5.1,1.6,7.4,3.8
	c1.6,1.7,2.6,3.6,3.1,5.6c0.3,1.2,0.5,2.5,0.7,3.7c0.2,1.3,0.3,2.5,0.2,3.7v8.9c0,1.5,0,3,0,4.5c0,1.5,0,3,0,4.5
	c-0.1,1.1-0.1,2.1-0.2,3.1c-0.1,1-0.3,2-0.6,3c-0.7,2.3-1.8,4.2-3.4,5.6s-3.5,2.5-5.7,3.2c-2,0.7-4,0.8-5.9,0.4
	c-1.9-0.4-3.7-1.1-5.4-2.2c-3-1.7-4.8-4.5-5.4-8.3c-0.6-4.3-0.8-8.5-0.7-12.8C203.3,164,203.4,159.7,203.5,155.4z M216.7,148.9
	c-2,0.1-3.6,1-4.8,2.8c-0.5,0.7-0.8,1.5-1,2.3c-0.2,0.8-0.3,1.6-0.3,2.4v10v9.6c0.1,0.7,0.1,1.4,0.2,2c0.1,0.7,0.2,1.3,0.4,1.9
	c0.2,0.9,0.6,1.8,1.2,2.5c0.6,0.7,1.3,1.2,2.2,1.5c1.1,0.4,2.2,0.6,3.3,0.5c1.1-0.1,2.1-0.7,3-1.7c0.6-0.6,1.1-1.2,1.5-1.8
	c0.4-0.6,0.6-1.4,0.6-2.3c0-0.9,0-1.8,0.1-2.7c0.1-0.9,0.1-1.8,0.1-2.7c0-1.4,0-2.7-0.1-4.1c-0.1-1.3-0.1-2.7-0.1-4.1
	c0-1.5,0-3,0.1-4.5c0.1-1.4,0.1-2.9,0-4.5c0-1.1-0.2-2.1-0.5-3.1C221.6,150.2,219.6,148.8,216.7,148.9z M239.3,145.4
	c0.2-1.1,0.5-1.8,0.9-2.1c0.4-0.3,1.1-0.5,2.2-0.6c1.7-0.1,3.4-0.2,5-0.3c1.7-0.1,3.3-0.2,5-0.2c6.3,0,10.8,2.9,13.4,8.6
	c1.1,2.5,1.6,5,1.4,7.4c-0.2,2.4-0.8,4.9-1.9,7.3c-0.8,1.7-1.7,3-2.7,4c-1,0.9-2.5,1.9-4.6,2.9c0.5,0.8,0.9,1.6,1.4,2.4
	c0.4,0.8,0.9,1.6,1.3,2.3c0.9,1.6,1.8,3.2,2.7,4.8c0.9,1.6,1.8,3.2,2.7,4.9c0.5,0.9,0.7,1.8,0.5,2.6c-0.2,0.8-0.7,1.4-1.4,1.9
	c-1.3,0.7-2.7,0.7-4-0.2c-0.7-0.5-1.3-1.1-1.8-1.8c-1.8-2.9-3.6-5.8-5.2-8.8c-0.5-0.7-0.9-1.5-1.3-2.3c-0.4-0.8-0.8-1.6-1.2-2.4
	c-0.3-0.6-0.7-1.1-1.2-1.5c-0.5-0.4-1-0.8-1.6-1s-1.1-0.3-1.4-0.1c-0.4,0.2-0.6,0.6-0.6,1.3c-0.1,2.1-0.1,4.1-0.1,6.2
	c0,2.1,0,4.1,0,6.2c0,0.3,0,0.5,0.1,0.8c0.1,0.3,0.1,0.5,0.2,0.8c0.1,0.9-0.1,1.7-0.5,2.3c-0.4,0.6-1.1,1-2,1.2
	c-1.3,0.3-2.5,0-3.4-0.7c-0.9-0.7-1.5-1.8-1.6-3.1c-0.1-0.5-0.2-1-0.2-1.5s0-1,0-1.5c0-5.4,0-10.7,0-16c0-5.3,0-10.6,0-16
	c0-0.9,0-1.8-0.1-2.8c-0.1-0.9-0.1-1.9-0.2-2.8c0-0.4,0-0.7,0-1C239.2,146.1,239.2,145.8,239.3,145.4z M246.8,152.3
	c-0.1,2-0.1,3.9,0,5.9c0,2,0,3.9,0,5.9c0,0.6,0.1,1.1,0.3,1.3s0.6,0.4,1.3,0.4h2.6c0.7,0,1.5,0,2.3,0c0.8,0,1.5,0,2.1-0.1l0.2-0.2
	c0.5-0.4,0.9-0.8,1.4-1.3c0.5-0.4,0.9-0.9,1.2-1.5c1-1.7,1.4-3.5,1.2-5.2c-0.2-1.7-0.7-3.5-1.6-5.1c-0.6-1.1-1.3-1.8-2.2-2.4
	c-0.9-0.5-1.9-0.7-3.2-0.6c-0.4,0.1-0.9,0.1-1.3,0c-0.5,0-1,0-1.4,0c-1.1,0.1-1.9,0.3-2.3,0.7C247,150.5,246.8,151.2,246.8,152.3z
	 M278.1,191.6c-1-0.2-1.7-0.7-2.3-1.5c-0.6-0.8-0.9-1.7-0.8-2.6c0.1-3.5,0.2-6.9,0.3-10.4c0.1-3.4,0.1-6.9,0.2-10.4
	c0.1-2.8,0-5.7,0-8.5c-0.1-2.8-0.1-5.6,0-8.5c0-1.7,0.2-3.2,0.6-4.7c0.3-0.9,0.7-1.6,1.3-2c0.6-0.4,1.2-0.7,2-0.7
	c0.7,0,1.4,0.3,2,0.8c0.7,0.5,1.1,1.2,1.4,1.9c0.2,0.4,0.3,0.9,0.3,1.3c0.1,0.5,0.1,0.9,0.2,1.4c0.1,0.7,0.1,1.5,0,2.2
	c0,0.7,0,1.5,0,2.2l-0.2,15.3c0.1,2,0.1,4,0.2,6c0.1,2,0.1,4,0.2,6c0,1.4,0,2.7,0,4s0,2.6-0.1,3.9c-0.1,1.5-0.6,2.7-1.5,3.4
	C280.6,191.7,279.5,191.9,278.1,191.6z M290.4,178.2c0-5,0-9.9,0-14.7c0-4.9-0.1-9.7-0.1-14.6c0-0.5,0-0.9,0-1.4s0-0.9,0.1-1.3
	c0.1-0.9,0.5-1.6,1.1-2.1c0.6-0.5,1.4-0.8,2.3-0.8c3,0,5.9,0,8.8,0c2.9,0,5.9,0,8.8,0c0.5,0,0.9,0,1.4,0c0.4,0,0.9,0,1.4,0.1
	c0.8,0.1,1.5,0.3,2,0.9c0.5,0.5,0.8,1.2,0.9,1.9c0.1,0.9,0,1.7-0.4,2.4c-0.4,0.7-1,1.1-1.8,1.3c-1.6,0.4-3.4,0.6-5.1,0.7
	c-1.6,0.1-3.3,0.1-4.9,0.1c-1.6,0-3.3,0-5,0c-0.4,0.1-0.8,0.1-1.1,0.2c-0.3,0.1-0.7,0.1-1.1,0.2v11c1.1,0,2.2,0.1,3.2,0.1
	c1,0,2.1,0,3.1,0c0.9,0,1.8,0,2.6,0c0.8,0,1.7,0,2.5,0c0.3,0,0.5,0,0.8,0c0.2,0,0.5,0,0.8,0.1c0.7,0.1,1.4,0.4,1.9,1
	c0.6,0.6,0.9,1.2,1,1.9c0.1,0.7-0.1,1.4-0.5,2.1c-0.4,0.7-1,1.2-1.7,1.4c-1,0.4-2.1,0.6-3.2,0.7c-1.4,0.1-2.8,0.1-4.2,0
	c-1.4,0-2.8,0-4.2,0c-1,0.1-1.5,0.2-1.7,0.3c-0.2,0.2-0.4,0.7-0.5,1.7c-0.2,2.1-0.3,4.2-0.2,6.3c0.1,2.1,0.1,4.2,0,6.3
	c0.4,0.1,0.7,0.1,0.9,0.1c0.2,0,0.4,0.1,0.7,0.1c2.4,0.1,4.8,0.2,7.2,0.2c2.4,0.1,4.8,0.1,7.3,0.2c1.7,0,2.8,0.8,3.4,2.5
	c0.4,0.9,0.3,1.8-0.1,2.7c-0.4,0.8-1.1,1.4-2.1,1.7c-0.6,0.2-1.2,0.2-1.8,0.2c-3.2,0.1-6.3,0.1-9.4,0.1s-6.2,0.1-9.4,0.2
	c-1.3,0-2.3-0.3-3-0.9c-0.7-0.6-1.1-1.7-1.1-3.1c0.1-1.6,0.1-3.2,0.1-4.8C290.4,181.4,290.4,179.8,290.4,178.2z M330.5,189.5
	c-1.2-0.7-2.3-1.7-3.2-2.8c-1-1.1-1.6-2.4-2.1-4c-0.3-1-0.5-2-0.8-3c-0.3-1-0.3-2-0.2-3.1c0.1-0.9,0.5-1.8,1.1-2.4
	c0.6-0.7,1.4-1,2.3-1.1c2.3-0.2,3.6,0.8,4,2.9c0.1,0.5,0.2,1,0.2,1.5c0,0.5,0.1,1,0.2,1.5c0.2,1.4,0.8,2.5,1.9,3.4
	c1,0.9,2.3,1.5,3.8,1.7c1.5,0.2,2.8-0.1,4-0.8c1.2-0.7,2-1.7,2.5-3c0.5-1.1,0.7-2.3,0.7-3.4s-0.2-2.3-0.7-3.3c-0.5-1-1.1-2-2-2.8
	c-0.9-0.9-1.9-1.5-3.2-2c-0.9-0.4-1.8-0.7-2.8-1s-1.9-0.7-2.8-1c-1.8-0.7-3.3-1.7-4.5-3c-1.2-1.3-2.2-2.8-3-4.4
	c-0.2-0.4-0.4-0.9-0.5-1.3c-0.1-0.5-0.2-0.9-0.2-1.3c-0.1-2,0.1-3.9,0.7-5.7c0.6-1.8,1.5-3.4,2.7-4.9c1.2-1.4,2.7-2.6,4.7-3.5
	c2-0.9,3.8-1.3,5.5-1.3c1.8-0.1,3.4,0.2,4.8,1c1.4,0.8,2.7,1.7,4,2.7c1.2,0.9,2.1,2.1,2.8,3.4c0.7,1.3,1.3,2.7,1.9,4.1
	c0.4,1.1,0.4,2.2,0,3.3c-0.3,0.8-0.8,1.4-1.4,1.9c-0.6,0.5-1.3,0.7-2,0.7c-0.7,0-1.5-0.2-2.2-0.7c-0.7-0.5-1.2-1.1-1.5-1.7
	c-0.2-0.4-0.3-0.8-0.4-1.3c-0.1-0.4-0.2-0.8-0.3-1.3c-0.4-1.2-1-2.2-1.6-3s-1.7-1.4-3-1.7c-0.7-0.2-1.4-0.1-2.1,0.1
	c-0.7,0.2-1.4,0.5-2.1,1c-0.7,0.4-1.2,0.9-1.7,1.5c-0.5,0.6-0.8,1.3-1,1.9c-0.6,3.2,0.5,5.4,3.5,6.7c1,0.4,2,0.8,3,1.2
	c1,0.4,2,0.8,3,1.2c2.2,1,4.1,2.2,5.8,3.6c1.7,1.5,2.9,3.4,3.4,5.7c0.6,2.3,0.8,4.6,0.6,6.9c-0.2,2.3-0.8,4.6-2.1,6.8
	c-0.7,1.3-1.6,2.4-2.7,3.2c-1.1,0.8-2.2,1.5-3.6,2c-0.7,0.3-1.4,0.5-2.1,0.6c-0.7,0.2-1.4,0.3-2.2,0.4c-1.6,0.3-3.2,0.2-4.7-0.2
	C333.3,191,331.9,190.4,330.5,189.5z"/>
<path fill="#6F91BD" d="M383.2,233.6c0.1,3.2,0.2,6.3,0.4,9.5c-2.4,0.6-14.6,0.1-16.7-0.6c-0.5-3.5-0.7-7.1-0.6-8.7
	C372,233.7,377.6,233.7,383.2,233.6z M400.3,241.6c0.8-3,1.6-5.9,2.4-9c-2,0.2-3.9,0.4-5.8,0.5c-1.9,0.1-3.9,0.2-5.8,0.3
	c-1.9,0.1-3.8,0.1-5.8,0.2c0,3.2,0,6.3,0.2,9.5C390.5,242.8,395.4,242.4,400.3,241.6z M379.2,254.7c3.9,0.1,7.7-0.1,11.5-0.4
	c0.5-3.3,1-6.7,1.5-10c-4.8,0.4-9.5,0.7-14.4,0.7C378,248.3,378.8,251.4,379.2,254.7z M383.3,222.7c-0.2,0.1-0.4,0.1-0.6,0.2
	c-1.2,0.5-2.4,0.5-3.7,0.1c-0.7-0.2-1.4-0.5-2.1-0.7c-1.1-0.4-2.2-0.3-3.2,0.3c-0.3,0.2-0.7,0.5-0.9,0.7c-0.5,0.8-1,1.6-1.5,2.4
	c-0.5,0.9-0.8,1.9-1.3,2.9c-0.2,0.4-0.5,0.9-0.8,1.3c-0.7,0.9-1.5,1.7-3,1.7c0,0.2,0,0.4,0,0.6c5.6,0.1,11.3,0,16.9-0.2
	C383.3,228.9,383.3,225.9,383.3,222.7z M355.2,215.9c-0.2,0.4-0.5,0.7-0.7,1.1c-0.7,1.3-0.9,2.7-0.7,4.1c0.3,3.3,0.6,6.5,0.9,9.8
	c0,0.2,0.1,0.4,0.1,0.7c3.2,0.4,6.4,0.5,9.6,0.6c0-0.3,0.1-0.7,0.1-1c0-0.1,0-0.3-0.2-0.4c-1.3-1.1-1.9-2.5-2.2-3.9
	c-0.3-1.3-0.4-2.6-0.6-3.9c-0.1-0.6-0.1-1.2-0.3-1.7c-0.2-0.8-0.7-1.5-1.4-2.1c-0.3-0.2-0.6-0.4-1.1-0.3c-0.1,0-0.3,0-0.4,0
	c-1.1,0-1.9-0.4-2.3-1.1c-0.2-0.4-0.3-0.8-0.4-1.2c-0.1-0.2-0.1-0.4-0.1-0.5C355.3,216,355.2,215.9,355.2,215.9z M389.4,266.1
	c0.4-3.3,0.8-6.6,1.2-10c-1.9,0-3.7,0.2-5.5,0.2c-1.8,0.1-3.6,0.1-5.5,0.1c0.4,3.2,0.7,6.5,1.1,9.7
	C382.2,266.3,388,266.3,389.4,266.1z M385.3,222c0,3.3,0,6.7,0,10.1c5.9-0.1,11.8-0.2,17.7-1.1c0.6-3.8,1-7.5,0.6-11.3
	c-0.1,0-0.1,0-0.2,0c-0.1,0.2-0.3,0.5-0.3,0.7c-0.4,1.1-0.8,2.1-1.2,3.2c-0.4,1.2-1,2.3-1.8,3.4c-0.4,0.5-0.9,1.1-1.5,1.5
	c-1.4,1.1-3.2,1.3-5,0.7c-1.2-0.4-2.1-1-2.8-1.8c-0.6-0.7-1.2-1.4-1.8-2.1c-0.5-0.6-0.9-1.3-1.5-1.9c-0.3-0.4-0.8-0.7-1.3-1
	C386,222.1,385.7,221.9,385.3,222z M405.3,217.8c0.8,4.3,0.3,8.6-0.2,12.8c0.7,0.1,5.7-0.7,8.1-1.3c0.1-0.5,0.1-1.1,0.2-1.6
	c0.1-1.7,0.3-3.3,0.5-5c0.1-0.9,0.1-1.9,0.1-2.8c0-0.2-0.1-0.5-0.2-0.7c-0.2-0.4-0.7-0.6-1.2-0.4c-1.3,0.5-2.5,0.3-3.7-0.2
	c-0.7-0.3-1.4-0.5-2.2-0.8C406.3,217.6,405.8,217.6,405.3,217.8z M404.1,242.5c-3.1,0.8-6.2,1.2-9.4,1.5c-0.6,3.3-1.1,6.7-1.5,10.1
	c0.4,0,0.8,0,1.1,0c2-0.2,3.9-0.4,5.9-0.6c0.6-0.1,1.2-0.1,1.9-0.1C402.7,249.8,403.4,246.2,404.1,242.5z M376.8,254.6
	c-0.5-3.2-0.9-6.4-1.4-9.6c-3.2-0.1-6.5-0.3-9.8-1c0.6,3.2,1.2,6.3,1.7,9.4C370.4,253.9,373.6,254.3,376.8,254.6z M377.2,256.4
	c-3.3-0.4-6.3-0.7-9.5-1.1c0.6,3.3,1.1,6.7,1.9,10.1c2.9,0.2,5.7,0.6,8.7,0.7C377.9,262.8,377.6,259.6,377.2,256.4z M392.9,255.9
	c-0.4,3.4-0.8,6.8-1.3,10.2c2.8-0.1,5.5-0.3,8.3-0.9c0.6-3.4,1.1-6.8,1.7-10.4C398.8,255.4,395.9,255.7,392.9,255.9z M413.1,230.8
	c-2.8,0.5-5.5,1-8.2,1.5c-0.8,2.9-1.6,5.8-2.5,8.8c0.1,0,0.3,0,0.4-0.1c1.9-0.5,3.7-1,5.4-1.7c2.2-0.9,3.5-2.2,4-4
	c0.3-1.4,0.5-2.7,0.8-4.1C413.1,231.1,413.1,230.9,413.1,230.8z M355,233.2c0,0.1,0,0.2,0,0.3c0.2,1.3,0.4,2.7,0.9,4
	c0.4,1.3,1.4,2.3,3,2.9c1.8,0.7,3.7,1.2,5.6,1.7c0.1,0,0.2,0,0.5,0.1c-0.5-2.8-0.6-5.6-0.5-8.3C361.2,233.5,358.1,233.3,355,233.2z
	 M370,267.2c0.2,0.7,0.3,1.3,0.5,1.8c0.5,1.6,1,3.1,1.8,4.6c0.8,1.6,1.4,1.9,3.7,2c1.1,0.1,2.1,0.1,3.2,0.1c0.1,0,0.1,0,0.1,0
	c-0.3-2.6-0.6-5.3-0.9-7.9c-0.7-0.1-1.4-0.1-2.1-0.1c-1.6-0.1-3.2-0.3-4.8-0.4C371.1,267.2,370.6,267.2,370,267.2z M387.9,275.6
	c0.4-2.6,0.8-5.1,1.2-7.7c-2.8,0-5.5,0-8.3,0c0.3,2.6,0.5,5.2,0.8,7.8C383.7,275.9,385.8,275.8,387.9,275.6z M390.2,275.4
	c0.3,0,0.4,0,0.6,0c1.5-0.2,3-0.4,4.4-0.8c1.6-0.5,2.8-1.3,3.2-2.6c0.4-1.3,0.7-2.6,1-3.8c0.1-0.4,0.1-0.8,0.2-1.2
	c-2.7,0.6-5.4,0.7-8.2,0.9C391.1,270.4,390.7,272.9,390.2,275.4z M394.5,170.1c-0.1,0.2-0.2,0.3-0.3,0.4c-1.4,2.3-3.8,3.7-7,4.1
	c-3.1,0.4-5.7-0.5-7.7-2.3c-0.4-0.4-0.8-0.9-1.2-1.4c-0.2,0.1-0.5,0.1-0.7,0.2c-3.8,1.3-6.8,3.3-9.2,5.9c-3.5,3.7-5.6,7.8-6.1,12.3
	c-0.2,2.1,0.2,4.1,1.4,5.9c0.3,0.4,0.6,0.9,1,1.2c1.2,0.9,1.8,1.9,1.9,3.1c0,0.3,0,0.6,0.1,0.9c0,0.2,0.2,0.4,0.3,0.8
	c0.4-0.2,0.6-0.2,0.9-0.4c0.5-0.3,0.9-0.5,1.3-0.8c0.5-0.3,0.9-0.5,1.4-0.7c1-0.4,2.1-0.4,3.2,0c0.4,0.2,0.9,0.4,1.3,0.6
	c0.3,0.1,0.6,0.3,0.9,0.5c1.7,0.9,2.6,0.9,4.4,0c0.5-0.3,1-0.6,1.5-0.8c1.3-0.6,2.4-0.5,3.5,0.3c0.7,0.5,1.3,1.1,1.7,1.8
	c0.5,0.7,0.9,1.3,1.4,2c0.2,0.3,0.5,0.7,0.8,1c1.4,1.3,3.8,1.1,4.7-0.4c0.4-0.6,0.6-1.4,0.8-2c0.3-0.8,0.4-1.5,0.7-2.3
	c0.2-0.5,0.4-1,0.8-1.4c0.9-1.3,2.3-1.7,4.2-1.3c0.8,0.2,1.5,0.4,2.2,0.8c0.5,0.3,1.1,0.6,1.6,0.9c0.6,0.3,1.2,0.3,1.7,0
	c0.3-0.1,0.6-0.3,0.8-0.5c1.8-1.8,3.1-3.9,3.4-6.2c0.4-3-0.2-5.9-1.4-8.7c-1.4-3.5-3.9-6.5-6.9-9.3c-1.9-1.8-4.4-3-7.1-4.1
	C394.7,170.1,394.6,170.1,394.5,170.1z M364.8,201.9c-0.2,0.2-0.4,0.3-0.6,0.5c-2.5,2.1-4.6,4.4-6.6,6.8c-0.4,0.5-0.8,0.9-1.2,1.4
	c-0.4,0.5-0.7,1-1,1.5c-0.2,0.4-0.1,0.8,0.4,1.1c1.2,0.8,1.6,1.8,1.8,2.9c0,0.3,0.1,0.5,0.2,0.8c0.1,0.2,0.2,0.3,0.5,0.3
	c0.1,0,0.3,0,0.4,0c0.9,0,1.7,0.2,2.3,0.7c1.4,1,2.1,2.3,2.3,3.7c0.2,1.2,0.3,2.5,0.5,3.7c0.1,1.1,0.4,2.2,0.9,3.2
	c0.2,0.4,0.5,0.8,0.8,1.2c0.2,0.2,0.4,0.3,0.6,0.5c0.6-0.2,0.9-0.5,1-0.8c0.3-0.6,0.7-1.2,0.9-1.8c0.5-1.1,1-2.2,1.5-3.3
	c0.3-0.7,0.9-1.4,1.5-2.1c1.4-1.4,3.7-2,5.9-1.4c0.8,0.2,1.6,0.5,2.4,0.8c0.9,0.3,1.7,0.3,2.4-0.1c0.4-0.2,0.8-0.4,1.2-0.6
	c1.5-0.7,3.1-0.6,4.4,0.3c1,0.7,1.9,1.5,2.6,2.4c0.5,0.7,0.9,1.4,1.5,2.1c0.5,0.5,1,1.1,1.6,1.5c0.3,0.3,0.8,0.5,1.2,0.6
	c0.9,0.3,1.7,0.3,2.3-0.3c0.5-0.4,0.9-0.9,1.3-1.4c0.9-1.3,1.5-2.7,2-4c0.4-1,0.8-2,1.2-2.9c0.3-0.7,0.8-1.3,1.4-1.8
	c1.3-1.2,2.9-1.5,4.9-1c0.9,0.2,1.7,0.6,2.5,0.8c1.1,0.4,2.2,0.2,3-0.5c0.5-0.4,0.8-0.9,0.7-1.5c-0.6-4.3-2.4-8.3-6.1-11.6
	c-1.2-1.1-2.6-2-4.2-2.8c-0.7-0.3-1.4-0.8-2.1-1.1c-0.5-0.2-1-0.5-1.6-0.6c-0.7-0.2-1.1,0-1.4,0.5c-0.3,0.4-0.5,0.8-0.6,1.2
	c-0.3,1-0.6,2-0.9,3.1c-0.2,0.8-0.6,1.5-1.3,2.2c-1.4,1.5-4.4,2-6.6,0.6c-0.6-0.4-1.1-0.8-1.5-1.2c-0.5-0.5-0.8-1.1-1.2-1.6
	c-0.4-0.5-0.7-1.1-1.2-1.6c-0.3-0.3-0.6-0.6-0.9-0.9c-0.2-0.2-0.6-0.2-0.9-0.1c-0.3,0.2-0.6,0.3-0.9,0.5c-0.7,0.3-1.3,0.7-2.1,0.9
	c-1.5,0.5-3.1,0.4-4.5-0.2c-0.4-0.2-0.7-0.4-1.1-0.5c-0.4-0.2-0.8-0.4-1.3-0.6c-0.9-0.4-1.6-0.3-2.4,0.1c-0.4,0.3-0.8,0.5-1.3,0.8
	c-0.4,0.2-0.9,0.5-1.3,0.6c-1.3,0.5-2.4,0.3-3.3-0.5C365,202.1,364.9,202,364.8,201.9z M393,167.1c0-0.9-0.1-1.9-0.7-2.7
	c-0.3-0.5-0.7-0.9-1.2-1.2c-3.2-1.7-7.4-1.7-10.1,1.1c-1.5,1.6-1.6,3.3-0.9,5.1c0.5,1.2,1.4,2.2,2.9,2.9c1.7,0.8,3.5,0.9,5.3,0.3
	c2.9-0.9,4.4-2.5,4.7-4.9c0-0.2,0-0.4,0.1-0.6C393,167.2,393,167.2,393,167.1z M389.6,154.4c1.4,0.2,2.7,0.3,4-0.1
	c1.9-0.5,3.5-1.3,4.6-2.6c2.1-2.3,2.8-4.9,2.2-7.7c-0.2-0.9-0.7-1.7-1.4-2.4c-0.2-0.2-0.3-0.3-0.5-0.5c-0.2,0.1-0.4,0.2-0.5,0.3
	c-1.9,1.6-3.8,3.1-5.6,4.7c-2.2,1.9-3.4,4.1-3.9,6.6c0,0.1,0,0.2,0,0.3c0,0,0,0.1,0.1,0.1c0.2-0.1,0.4-0.2,0.6-0.3
	c2.1-1.3,3.7-2.9,5-4.7c0.3-0.4,0.5-0.7,0.8-1.1c0.1-0.1,0.2-0.2,0.3-0.3c0.3-0.3,0.7-0.4,1.1-0.3c0.4,0.1,0.5,0.4,0.4,0.8
	c-0.1,0.2-0.2,0.5-0.4,0.7c-1.5,2.4-3.5,4.5-6.4,6.2C389.8,154.3,389.7,154.3,389.6,154.4z M380.4,145.1c-0.3,0.2-0.6,0.4-1,0.7
	c4.4,4.3,5.7,9.3,5.7,14.6c0.3,0,0.6,0,1,0c0.3,0,0.6,0,1,0c0-0.5,0-0.9,0-1.3c-0.1-2.5-0.4-4.9-1.3-7.2c-0.7-1.8-1.6-3.5-3.1-4.9
	C381.9,146.2,381.2,145.6,380.4,145.1z M48.9,233.6c-0.1,3.2-0.2,6.3-0.4,9.5c2.4,0.6,14.6,0.1,16.7-0.6c0.5-3.5,0.7-7.1,0.6-8.7
	C60.2,233.7,54.6,233.7,48.9,233.6z M46.6,243.1c0.2-3.2,0.3-6.3,0.2-9.5c-2-0.1-3.9-0.1-5.8-0.2c-1.9-0.1-3.9-0.2-5.8-0.3
	c-1.9-0.1-3.8-0.3-5.8-0.5c0.8,3,1.6,6,2.4,9C36.7,242.4,41.6,242.8,46.6,243.1z M54.3,245c-4.9,0-9.6-0.3-14.4-0.7
	c0.5,3.4,1,6.7,1.5,10c3.8,0.2,7.6,0.4,11.5,0.4C53.4,251.4,54.1,248.3,54.3,245z M48.9,232.1c5.7,0.2,11.3,0.3,16.9,0.2
	c0-0.2,0-0.4,0-0.6c-1.5-0.1-2.3-0.9-3-1.7c-0.3-0.4-0.6-0.8-0.8-1.3c-0.5-0.9-0.8-1.9-1.3-2.9c-0.4-0.8-0.9-1.6-1.5-2.4
	c-0.2-0.3-0.5-0.5-0.9-0.7c-1-0.6-2.1-0.6-3.2-0.3c-0.7,0.2-1.4,0.4-2.1,0.7c-1.2,0.4-2.5,0.4-3.7-0.1c-0.2-0.1-0.4-0.1-0.6-0.2
	C48.9,225.9,48.9,228.9,48.9,232.1z M76.8,216c0,0.2-0.1,0.4-0.1,0.5c-0.1,0.4-0.2,0.8-0.4,1.2c-0.4,0.7-1.2,1.1-2.3,1.1
	c-0.1,0-0.3,0-0.4,0c-0.4,0-0.8,0.1-1.1,0.3c-0.8,0.6-1.2,1.3-1.4,2.1c-0.2,0.6-0.2,1.1-0.3,1.7c-0.2,1.3-0.3,2.6-0.6,3.9
	c-0.3,1.4-0.9,2.8-2.2,3.9c-0.1,0.1-0.2,0.3-0.2,0.4c0,0.3,0.1,0.6,0.1,1c3.3-0.1,6.4-0.2,9.6-0.6c0-0.2,0.1-0.5,0.1-0.7
	c0.3-3.3,0.6-6.5,0.9-9.8c0.1-1.4,0-2.8-0.7-4.1c-0.2-0.4-0.5-0.7-0.7-1.1C76.9,215.9,76.9,216,76.8,216z M51.5,266.2
	c0.4-3.2,0.7-6.4,1.1-9.7c-1.9,0-3.7-0.1-5.5-0.1c-1.8-0.1-3.7-0.2-5.5-0.2c0.4,3.4,0.8,6.7,1.2,10C44.1,266.3,50,266.3,51.5,266.2z
	 M46,222.2c-0.4,0.3-0.9,0.6-1.3,1c-0.6,0.6-1,1.3-1.5,1.9c-0.6,0.7-1.1,1.5-1.8,2.1c-0.7,0.8-1.7,1.4-2.8,1.8
	c-1.8,0.7-3.6,0.4-5-0.7c-0.6-0.5-1.1-1-1.5-1.5c-0.8-1.1-1.4-2.2-1.8-3.4c-0.4-1.1-0.8-2.1-1.2-3.2c-0.1-0.2-0.2-0.5-0.3-0.7
	c-0.1,0-0.1,0-0.2,0c-0.4,3.8,0,7.5,0.6,11.3c5.9,0.8,11.8,0.9,17.7,1.1c0-3.4,0-6.7,0-10.1C46.5,221.9,46.2,222.1,46,222.2z
	 M25.4,217.8c-0.7,0.2-1.4,0.5-2.2,0.8c-1.2,0.4-2.4,0.7-3.7,0.2c-0.5-0.2-1,0-1.2,0.4c-0.1,0.2-0.2,0.5-0.2,0.7
	c0,0.9-0.1,1.9,0.1,2.8c0.2,1.7,0.5,3.3,0.5,5c0,0.6,0.1,1.1,0.2,1.6c2.4,0.6,7.4,1.4,8.1,1.3c-0.6-4.3-1-8.5-0.2-12.8
	C26.4,217.6,25.9,217.6,25.4,217.8z M30.1,253.4c0.7,0,1.3,0.1,1.9,0.1c2,0.2,3.9,0.4,5.9,0.6c0.4,0,0.7,0,1.1,0
	c-0.4-3.4-0.9-6.7-1.5-10.1c-3.2-0.3-6.3-0.8-9.4-1.5C28.8,246.2,29.4,249.8,30.1,253.4z M64.8,253.4c0.6-3.1,1.2-6.2,1.7-9.4
	c-3.3,0.7-6.6,0.9-9.8,1c-0.5,3.2-0.9,6.4-1.4,9.6C58.6,254.3,61.7,253.9,64.8,253.4z M53.9,266.1c3-0.1,5.8-0.5,8.7-0.7
	c0.8-3.4,1.3-6.7,1.9-10.1c-3.2,0.4-6.2,0.7-9.5,1.1C54.6,259.6,54.2,262.8,53.9,266.1z M30.5,254.9c0.6,3.5,1.2,7,1.7,10.4
	c2.8,0.5,5.5,0.8,8.3,0.9c-0.4-3.4-0.8-6.8-1.3-10.2C36.3,255.7,33.4,255.4,30.5,254.9z M19.1,231.2c0.3,1.4,0.5,2.7,0.8,4.1
	c0.5,1.8,1.8,3.2,4,4c1.7,0.7,3.6,1.2,5.4,1.7c0.1,0,0.3,0.1,0.4,0.1c-0.8-3-1.7-5.9-2.5-8.8c-2.7-0.5-5.4-1-8.2-1.5
	C19.1,230.9,19.1,231.1,19.1,231.2z M67.8,233.7c0.1,2.8,0,5.5-0.5,8.3c0.2,0,0.4,0,0.5-0.1c1.9-0.5,3.8-1,5.6-1.7
	c1.6-0.6,2.6-1.6,3-2.9c0.4-1.3,0.7-2.6,0.9-4c0-0.1,0-0.2,0-0.3C74.1,233.3,71,233.5,67.8,233.7z M60.6,267.3
	c-1.6,0.1-3.2,0.3-4.8,0.4c-0.7,0.1-1.3,0.1-2.1,0.1c-0.3,2.7-0.6,5.3-0.9,7.9c0,0,0.1,0,0.1,0c1.1,0,2.1,0,3.2-0.1
	c2.3-0.1,2.8-0.4,3.7-2c0.8-1.5,1.3-3,1.8-4.6c0.2-0.6,0.3-1.2,0.5-1.8C61.6,267.2,61.1,267.2,60.6,267.3z M50.5,275.8
	c0.3-2.6,0.5-5.2,0.8-7.8c-2.8,0-5.5,0-8.3,0c0.4,2.6,0.8,5.1,1.2,7.7C46.4,275.8,48.5,275.9,50.5,275.8z M40.7,267.9
	c-2.8-0.2-5.5-0.3-8.2-0.9c0.1,0.5,0.1,0.8,0.2,1.2c0.3,1.3,0.6,2.6,1,3.8c0.4,1.3,1.5,2.1,3.2,2.6c1.4,0.4,2.9,0.6,4.4,0.8
	c0.2,0,0.3,0,0.6,0C41.5,272.9,41.1,270.4,40.7,267.9z M37.4,170.2c-2.7,1-5.2,2.3-7.1,4.1c-3,2.8-5.5,5.8-6.9,9.3
	c-1.2,2.8-1.9,5.7-1.4,8.7c0.3,2.3,1.6,4.3,3.4,6.2c0.2,0.2,0.5,0.4,0.8,0.5c0.6,0.3,1.2,0.3,1.7,0c0.5-0.3,1-0.6,1.6-0.9
	c0.7-0.4,1.4-0.6,2.2-0.8c1.9-0.4,3.2,0.1,4.2,1.3c0.3,0.4,0.6,0.9,0.8,1.4c0.3,0.8,0.4,1.5,0.7,2.3c0.2,0.7,0.4,1.4,0.8,2
	c0.9,1.5,3.3,1.7,4.7,0.4c0.3-0.3,0.6-0.6,0.8-1c0.5-0.7,0.9-1.3,1.4-2c0.5-0.7,1-1.3,1.7-1.8c1.1-0.8,2.3-0.9,3.5-0.3
	c0.5,0.2,1,0.5,1.5,0.8c1.8,0.9,2.6,0.9,4.4,0c0.3-0.2,0.6-0.3,0.9-0.5c0.4-0.2,0.9-0.4,1.3-0.6c1.1-0.4,2.1-0.4,3.2,0
	c0.5,0.2,1,0.4,1.4,0.7c0.5,0.3,0.9,0.5,1.3,0.8c0.2,0.1,0.5,0.2,0.9,0.4c0.1-0.3,0.2-0.5,0.3-0.8c0.1-0.3,0-0.6,0.1-0.9
	c0.1-1.2,0.7-2.2,1.9-3.1c0.4-0.3,0.8-0.8,1-1.2c1.2-1.9,1.6-3.9,1.4-5.9c-0.5-4.5-2.6-8.6-6.1-12.3c-2.4-2.5-5.4-4.5-9.2-5.9
	c-0.2-0.1-0.5-0.2-0.7-0.2c-0.4,0.5-0.8,1-1.2,1.4c-2,1.9-4.6,2.7-7.7,2.3c-3.2-0.4-5.6-1.8-7-4.1c-0.1-0.1-0.2-0.3-0.3-0.4
	C37.6,170.1,37.5,170.1,37.4,170.2z M67.1,202.2c-0.9,0.8-2,1-3.3,0.5c-0.5-0.2-0.9-0.4-1.3-0.6c-0.4-0.2-0.9-0.5-1.3-0.8
	c-0.8-0.5-1.6-0.5-2.4-0.1c-0.4,0.2-0.8,0.4-1.3,0.6c-0.4,0.2-0.7,0.4-1.1,0.5c-1.4,0.7-3,0.8-4.5,0.2c-0.7-0.2-1.4-0.6-2.1-0.9
	c-0.3-0.1-0.6-0.3-0.9-0.5c-0.3-0.2-0.6-0.2-0.9,0.1c-0.3,0.3-0.7,0.6-0.9,0.9c-0.4,0.5-0.8,1.1-1.2,1.6c-0.4,0.5-0.8,1.1-1.2,1.6
	c-0.4,0.4-1,0.9-1.5,1.2c-2.2,1.4-5.2,0.8-6.6-0.6c-0.7-0.7-1-1.4-1.3-2.2c-0.3-1-0.6-2-0.9-3.1c-0.1-0.4-0.4-0.9-0.6-1.2
	c-0.3-0.5-0.7-0.6-1.4-0.5c-0.6,0.1-1.1,0.3-1.6,0.6c-0.7,0.3-1.4,0.8-2.1,1.1c-1.6,0.8-3,1.7-4.2,2.8c-3.8,3.4-5.5,7.3-6.1,11.6
	c-0.1,0.6,0.2,1.1,0.7,1.5c0.8,0.7,1.9,0.9,3,0.5c0.8-0.3,1.7-0.6,2.5-0.8c1.9-0.5,3.5-0.2,4.9,1c0.6,0.5,1.1,1.2,1.4,1.8
	c0.4,1,0.8,2,1.2,2.9c0.5,1.4,1,2.8,2,4c0.4,0.5,0.8,1,1.3,1.4c0.7,0.5,1.4,0.6,2.3,0.3c0.4-0.2,0.9-0.4,1.2-0.6
	c0.6-0.5,1.1-1,1.6-1.5c0.6-0.7,1-1.4,1.5-2.1c0.7-0.9,1.5-1.7,2.6-2.4c1.3-0.9,2.9-1,4.4-0.3c0.4,0.2,0.8,0.4,1.2,0.6
	c0.8,0.4,1.6,0.5,2.4,0.1c0.8-0.3,1.6-0.6,2.4-0.8c2.3-0.6,4.5,0,5.9,1.4c0.6,0.6,1.2,1.3,1.5,2.1c0.5,1.1,1,2.2,1.5,3.3
	c0.3,0.6,0.6,1.2,0.9,1.8c0.2,0.3,0.5,0.7,1,0.8c0.2-0.2,0.5-0.3,0.6-0.5c0.3-0.4,0.6-0.8,0.8-1.2c0.5-1,0.8-2.1,0.9-3.2
	c0.2-1.2,0.2-2.5,0.5-3.7c0.2-1.4,0.9-2.7,2.3-3.7c0.6-0.5,1.4-0.7,2.3-0.7c0.1,0,0.3,0,0.4,0c0.3,0,0.5-0.1,0.5-0.3
	c0.1-0.3,0.2-0.5,0.2-0.8c0.2-1.1,0.6-2.1,1.8-2.9c0.4-0.3,0.6-0.7,0.4-1.1c-0.3-0.5-0.6-1-1-1.5c-0.4-0.5-0.8-0.9-1.2-1.4
	c-2-2.4-4.1-4.7-6.6-6.8c-0.2-0.2-0.4-0.3-0.6-0.5C67.3,202,67.2,202.1,67.1,202.2z M39.2,167.3c0,0.2,0,0.4,0.1,0.6
	c0.2,2.3,1.8,3.9,4.7,4.9c1.8,0.6,3.6,0.4,5.3-0.3c1.5-0.7,2.4-1.7,2.9-2.9c0.7-1.8,0.6-3.6-0.9-5.1c-2.7-2.8-6.9-2.8-10.1-1.1
	c-0.6,0.3-0.9,0.7-1.2,1.2c-0.5,0.9-0.6,1.8-0.7,2.7C39.2,167.2,39.2,167.2,39.2,167.3z M42.3,154.2c-2.8-1.7-4.8-3.8-6.4-6.2
	c-0.1-0.2-0.3-0.4-0.4-0.7c-0.2-0.4,0-0.7,0.4-0.8c0.4-0.1,0.8,0,1.1,0.3c0.1,0.1,0.2,0.2,0.3,0.3c0.3,0.4,0.5,0.7,0.8,1.1
	c1.3,1.8,2.9,3.4,5,4.7c0.2,0.1,0.4,0.2,0.6,0.3c0.1-0.1,0.1-0.1,0.1-0.1c0-0.1,0-0.2,0-0.3c-0.5-2.5-1.7-4.7-3.9-6.6
	c-1.8-1.6-3.7-3.1-5.6-4.7c-0.1-0.1-0.3-0.2-0.5-0.3c-0.2,0.2-0.4,0.3-0.5,0.5c-0.7,0.7-1.2,1.6-1.4,2.4c-0.6,2.8,0,5.3,2.2,7.7
	c1.1,1.2,2.7,2.1,4.6,2.6c1.3,0.3,2.6,0.3,4,0.1C42.4,154.3,42.4,154.3,42.3,154.2z M49.6,146.9c-1.5,1.5-2.4,3.2-3.1,4.9
	c-0.9,2.4-1.2,4.8-1.3,7.2c0,0.4,0,0.8,0,1.3c0.4,0,0.7,0,1,0c0.3,0,0.6,0,1,0c-0.1-5.3,1.2-10.3,5.7-14.6c-0.4-0.2-0.7-0.5-1-0.7
	C50.9,145.6,50.2,146.2,49.6,146.9z M66.3,121.2c3.2-21.2,4.8-42.8,4.7-64.3c-0.1-4.8-0.3-9.8-0.3-14.6v-3.2c4.7,0,8.8,0.1,12.9,0
	c1.9,0,4-0.4,5.8-1.1c2.3-0.8,3.6-3.4,3.3-5.6c-0.3-2.3-2.2-4.7-4.7-5.4c-1.7-0.4-3.4-0.4-5.2-0.6c-3-0.1-6.2,0.3-9.2-0.4
	c-8.5-1.6-16.6-0.4-24.9,0.6c-2.1,0.3-4.3,0.8-6.2,1.5c-3.4,1.2-4.9,4.3-4,7.1c0.8,2.7,3.2,4.5,6.6,4.5c2.2,0,4.4-0.4,6.5-0.7
	c1.9-0.4,3.8-1,6.2,0c0.4,3.4,0.4,7,0.4,10.4c0.1,16.6-0.4,33.1,1,49.9c0.1,1.5-0.3,3,0,4.5c0.6,6.5,1.2,12.8,1.9,19.1
	c0.1,1.5,0.7,3,3,3.6C66,125.6,66,123.3,66.3,121.2z M132.6,28.3c-1,2.1-1.7,4.3-1.9,6.5c-0.7,7.3-1.2,14.6-1.8,21.9
	c-0.3,4.1-0.3,8.4-0.4,12.8c-3.6,0.6-6.7,1.7-10.9,1.4v-5.4c0.3-5.1,1-10,1-15c-0.1-5.8-0.7-11.7-1.4-17.5c-0.6-4.3-2.7-7.6-7.6-8.2
	c-2.5,0.4-4.9,0.8-6.9,1.2c-2.7,1.7-3.2,4-3.2,6.6l0.4,16.4c0.3,10,0.6,20.1,0.7,30.2c0.1,7,0.4,13.9,0.4,20.9
	c0.1,6.2,0,12.4,1.1,18.7c0.5,3.6,1.9,6.7,5.6,8.9c3.6-2.2,5.8-5.1,5.8-9.6c0-1.1,0-2.3,0.1-3.4c0.3-6.6,0.4-13.2,0.8-19.7
	c0.1-4,0.4-8.1,1.6-12c4.7-0.4,8.9-2.1,14.2-1.4c2.2,14.6,3.8,28.9,8.8,43c1.4,0.1,2.2,0.1,3.3,0.3c0.4-1.1,1-1.8,1.1-2.8
	c1.1-6.7,2.5-13.5,3-20.3c0.5-7.3,0.1-14.7,0.1-22c0-5.2-0.1-10.4,0-15.7c0-7.8,0-15.5,0.1-23.2c0-2.9,0.3-5.8,0.3-8.7
	c0.1-4.4-1.5-6.6-5.9-8c-1.1-0.3-2.2-0.4-3-0.6C135,24.2,133.4,25.9,132.6,28.3z M169.1,49.4c-0.1-4.4-0.8-8.7-0.3-13.1
	c2.1-0.3,3.7-0.4,5.4-0.7c1.6-0.4,3.3-0.7,4.8-1.4c1.8-0.7,2.9-2.3,2.7-4.4c0-2.1-1.1-3.6-3-4.7c-4-2.3-8.1-3.4-12.6-1.8
	c-1.6,0.6-3.6,1-5.4,1.4c-4.3,1.2-6.5,4.1-6.6,8.5c-0.1,3-0.1,6-0.1,9.1c0.6,19.1,1.4,38.1,0.4,57c-0.4,6,0.1,12.1,1.9,18
	c0.1,0.4,0,0.8,0,1.4c-0.4,0.8-1,1.8-1.2,2.9c-1,4.4,2.2,7.7,6.6,6.9c1-0.1,1.9-0.4,2.6-1c3.3-2.5,7.3-3.4,11.4-4.1
	c1.9-0.3,3.7-1.5,5.5-2.6c1.8-1.2,2.6-3,1.9-5.4c-0.7-2.3-2.3-3.7-4.7-4.1c-1.7-0.3-3.3,0-5.1-0.1c-1.1,0-2.1-0.3-2.9-0.3
	c0-11.5,0-22.7-0.1-33.8c1.5-1.8,3.4-2.3,5.5-2.6c3-0.7,4.8-2.9,6-5.2c1.6-2.9,0-6.5-3.3-7.4c-1.2-0.4-2.6-0.4-3.9-0.3
	c-1.5,0-3,0.3-4.7,0.4C168.6,57.7,169.4,53.6,169.1,49.4z M252,59.9c1.8-5.6,2.2-11.4,0.3-17.1c-3.3-9.8-9.1-16.9-19.7-19.2
	c-6.5-1.4-11.4,1.1-13.9,7.1c-0.6,1.2-1.1,2.6-1.2,4c-0.4,4-1,7.8-1.1,11.8c0,15.4,0,30.7,0.1,46c0,5.5-0.1,11.1,0.3,16.6
	c0.3,4.4,1,8.8,2.1,13.1c1.1,4.3,3.7,6.2,7.8,5.8c11.3-1.2,20.9-6.3,23.1-19.2c0.8-4.3,0.8-8.8,1-13.1c0.3-7.6-1-14.8-7-20.8
	C247.8,70.1,250.4,65.1,252,59.9z M229.2,83.9l6.7,0.4c2.5,1.5,2.9,3.7,3,5.9c0.1,4.4,0.4,8.8,0,13.2c-0.6,8.2-3.4,11.1-12.8,12.8
	C227.1,105.3,228.1,94.8,229.2,83.9z M229.9,68c0-6.2-0.1-12.4-0.1-18.4c-0.1-3.6,1.1-6.6,4.1-9.1c1,0.8,2.1,1.4,2.5,2.2
	c3.2,7.1,3.2,14.3,0.1,21.4c-1.1,2.5-3.2,4.3-5.9,5.6L229.9,68z M275.5,49.4c-0.1-4.4-0.8-8.7-0.3-13.1c2.1-0.3,3.7-0.4,5.4-0.7
	c1.6-0.4,3.3-0.7,4.8-1.4c1.8-0.7,2.9-2.3,2.7-4.4c0-2.1-1.1-3.6-3-4.7c-4-2.3-8.1-3.4-12.6-1.8c-1.6,0.6-3.6,1-5.4,1.4
	c-4.3,1.2-6.5,4.1-6.6,8.5c-0.1,3-0.1,6-0.1,9.1c0.6,19.1,1.4,38.1,0.4,57c-0.4,6,0.1,12.1,1.9,18c0.1,0.4,0,0.8,0,1.4
	c-0.4,0.8-1,1.8-1.2,2.9c-1,4.4,2.2,7.7,6.6,6.9c1-0.1,1.9-0.4,2.6-1c3.3-2.5,7.3-3.4,11.4-4.1c1.9-0.3,3.7-1.5,5.5-2.6
	c1.8-1.2,2.6-3,1.9-5.4c-0.7-2.3-2.3-3.7-4.7-4.1c-1.7-0.3-3.3,0-5.1-0.1c-1.1,0-2.1-0.3-2.9-0.3c0-11.5,0-22.7-0.1-33.8
	c1.5-1.8,3.4-2.3,5.5-2.6c3-0.7,4.8-2.9,6-5.2c1.6-2.9,0-6.5-3.3-7.4c-1.2-0.4-2.6-0.4-3.9-0.3c-1.5,0-3,0.3-4.7,0.4
	C275,57.7,275.8,53.6,275.5,49.4z M330.8,55.8c1.8-1.7,2.5-3.9,2.3-6c-0.1-6.2-1.9-12.1-5.8-17.9c-2.2-3-5.2-5.5-9.3-7.3
	c-5.6-2.3-12.5-2.1-16.4,1.1c-6,5.1-9.2,11.1-7.6,18.8c1,3.7,3,7.1,5.5,10.4c7.4,9.8,14,19.8,17,30.8c1.8,6.6,2.9,13.2,2.3,19.8
	c-0.3,2.9-1.1,5.6-4,7.7c-3.3-1.2-4.4-3.3-4.7-5.5c-0.4-3.4-0.8-7-0.7-10.4c0-4.9,0.6-9.8,0.8-14.7c0.1-1.6,0.3-3.3-0.1-4.9
	c-0.6-2.8-2.2-5.1-6.2-5.8c-3.6,0.3-5.8,1.9-7.3,4.1c-1.9,2.9-3.3,5.8-3.7,9.1c-1.1,7.8-0.6,15.7,1.7,23.6c1.5,5.4,4.7,10,9.9,13.9
	c1.9,1.5,4.1,2.8,6.5,3.7c6.5,2.6,12.5,1.4,15.8-3c1.1-1.4,1.8-2.9,2.3-4.4c4-10.9,4.1-22.3,1.4-33.7c-1.9-8.8-5.9-17.5-12-25.4
	c-2.5-3.3-4.5-6.9-6.6-10.3c-1.1-2.1-2.2-4.3-2.5-6.5c-0.4-1.9-0.1-4,0.4-5.9c0.3-0.8,1.7-1.4,2.6-2.2c3.3,1.9,3.8,4.4,4,6.7
	c0.3,4.1,2.8,8,4.5,11.8c0.7,1.4,2.1,2.6,2.9,3.4C327.4,58,329.3,57.3,330.8,55.8z M362.5,121.2c3.2-21.2,4.8-42.8,4.7-64.3
	c-0.1-4.8-0.3-9.8-0.3-14.6v-3.2c4.7,0,8.8,0.1,12.9,0c1.9,0,4-0.4,5.8-1.1c2.3-0.8,3.6-3.4,3.3-5.6c-0.3-2.3-2.2-4.7-4.7-5.4
	c-1.6-0.4-3.4-0.4-5.2-0.6c-3-0.1-6.2,0.3-9.2-0.4c-8.5-1.6-16.6-0.4-24.9,0.6c-2.1,0.3-4.3,0.8-6.2,1.5c-3.4,1.2-4.9,4.3-4,7.1
	c0.8,2.7,3.2,4.5,6.6,4.5c2.2,0,4.4-0.4,6.5-0.7c1.9-0.4,3.9-1,6.2,0c0.4,3.4,0.4,7,0.4,10.4c0.1,16.6-0.4,33.1,1,49.9
	c0.1,1.5-0.3,3,0,4.5c0.6,6.5,1.2,12.8,1.9,19.1c0.1,1.5,0.7,3,3,3.6C362.3,125.6,362.3,123.3,362.5,121.2z M106,210.6
	c-5.9,0.8-8.9,2-8.9,3.6c-5.9,0-8.9,20.2-8.9,60.7c0,3.3,1.5,5.4,4.5,6.2c2.2,0,3.7-3.2,4.4-9.8c0-4.8,5-7.1,15.2-7.1h0.9v5.3
	c0,8.9,1.2,13.4,3.6,13.4h0.9c2.9,0,4.7-9.2,5.3-27.7c-0.6-2.1-0.9-5.4-0.9-9.8C122,222.2,116.7,210.6,106,210.6z M98.8,258.8
	c0-27.4,2.1-41.1,6.2-41.1h3.6c1.3,0.3,2.4,1.7,3.5,4.5c0.6,15.6,0.9,26.4,0.9,32.2c0,2.2-4.4,4-13.4,5.3
	C99.7,259.1,99.4,258.8,98.8,258.8z M136.8,217.9c-3.6,0-5.5,1.8-5.5,5.4v4.7c0,18.1-0.5,33.5-1.5,46.1c0,2.6,1.5,4.9,4.7,7h2.3
	c0-7.3,2.1-10.9,6.2-10.9c5.1,7.8,8.5,11.7,10.1,11.7c1.5-1.1,2.4-2,2.4-2.3v-1.5c-4.1-5.4-6.2-9.1-6.2-10.9v-1.5
	c2.6-6.3,3.9-13.3,3.9-21.1v-9.4c0-11.4-4.4-17.2-13.3-17.2H136.8z M138.1,225c0-0.9,0.5-1.4,1.5-1.6h2.3c0.3,0,1,0.6,2.3,1.6
	c0,22.1-1.3,34.6-3.9,37.5h-2.3V225z M164.2,219.1c-2.6,0-3.9,16.8-3.9,50.3c0,7.4,4.4,11.6,13.4,12.6c1,0,3.8-0.5,8.6-1.5V278
	c0-1.1-1.8-2.2-5.5-3.1c0,0.5-0.3,0.8-0.8,0.8h-4.7c-1.5-0.8-2.3-1.6-2.3-2.3v-13.4h3.9l5.5-1.5v-1.6l-0.8-1.5
	c-5.2-0.6-7.8-1.3-7.8-2.3v-28.3c8.4-2.5,12.6-4,12.6-4.7v-0.8c0-1.1-1.8-2.2-5.5-3.1L164.2,219.1z M238.2,210.6
	c-2.7,1-6.9,10.2-12.5,27.7h-0.9c-6.5-17.8-12.5-26.8-17.9-26.8h-0.8c-0.9,0-1.8,1.2-2.7,3.6c0.6,6.1,0.9,10.8,0.9,14.3V273
	c0,5.3,2.1,8,6.2,8h0.9c1.7-0.3,2.6-2.8,2.6-7.1V257c0-5-0.3-13.1-0.9-24.1h1.8c4.4,13.6,9.1,20.5,14.3,20.5h1.8
	c2.3-17.2,4.7-25.9,7.1-25.9v39.3c0.9,10.1,2.4,15.2,4.4,15.2h2.7c1,0,1.9-1.5,2.6-4.4h-0.9c-0.6-24.4-1.5-45.9-2.6-64.2
	c-1-1.8-1.8-2.7-2.7-2.7H238.2z M270.8,217.2c-5.3,0.6-8,1.7-8,3.2c-5.3,0-8,18.1-8,54.4c0,3,1.3,4.8,4,5.6c2,0,3.3-2.9,4-8.8
	c0-4.2,4.5-6.4,13.6-6.4h0.8v4.8c0,8,1,12,3.2,12h0.8c2.6,0,4.2-8.2,4.8-24.8c-0.6-2-0.8-4.9-0.8-8.8
	C285.2,227.6,280.4,217.2,270.8,217.2z M264.4,260.4c0-24.5,1.8-36.8,5.6-36.8h3.2c1.1,0.3,2.1,1.5,3.2,4c0.6,14,0.8,23.6,0.8,28.8
	c0,2-4,3.5-12,4.8C265.2,260.7,264.9,260.4,264.4,260.4z M303.9,218.5c-7.8,0.9-11.7,2.4-11.7,4.4v0.7c0,0.3,1.2,1.7,3.6,4.4v48.2
	h-4.4c-0.8,0-1.3,0.5-1.4,1.4c0,1.8,3.4,3.2,10.2,4.4c4.3-0.7,7.7-1.7,10.2-2.9c6.3-3.1,9.5-14.8,9.5-35.1c0-0.8-0.5-4.7-1.4-11.6
	C316.3,223.1,311.4,218.5,303.9,218.5z M303.1,228c0.4-2.4,1-3.6,2.2-3.6h2.2c2.4,0,3.9,7.5,4.3,22.6c0,19-2.4,28.5-7.3,28.5h-1.4
	v-2.2c0-10.2,0.3-19.5,0.7-27.7C303.4,240.2,303.1,234.4,303.1,228z M330,219.1c-2.6,0-3.9,16.8-3.9,50.3c0,7.4,4.4,11.6,13.4,12.6
	c0.9,0,3.8-0.5,8.6-1.5V278c0-1.1-1.8-2.2-5.5-3.1c0,0.5-0.3,0.8-0.8,0.8h-4.8c-1.5-0.8-2.3-1.6-2.3-2.3v-13.4h3.9l5.5-1.5v-1.6
	l-0.8-1.5c-5.2-0.6-7.8-1.3-7.8-2.3v-28.3c8.4-2.5,12.6-4,12.6-4.7v-0.8c0-1.1-1.8-2.2-5.5-3.1L330,219.1z"/>
</svg>
