<?xml version="1.0" encoding="utf-8"?>
<!-- Generator: Adobe Illustrator 18.0.0, SVG Export Plug-In . SVG Version: 6.00 Build 0)  -->
<!DOCTYPE svg PUBLIC "-//W3C//DTD SVG 1.1//EN" "http://www.w3.org/Graphics/SVG/1.1/DTD/svg11.dtd">
<svg version="1.1" id="Layer_1" xmlns="http://www.w3.org/2000/svg" xmlns:xlink="http://www.w3.org/1999/xlink" x="0px" y="0px"
	 viewBox="0 0 432 432" enable-background="new 0 0 432 432" xml:space="preserve">
<path fill="#6F91BD" d="M124,334.7c-1.2-0.2-1.4-0.9-1.5-1.5c-0.3-2.7-0.7-5.4-1-8.2c-0.1-0.6,0.1-1.3,0-1.9
	c-0.7-7.2-0.4-14.3-0.5-21.4c0-1.5,0-3-0.2-4.5c-1.2-0.4-2.1-0.2-3.1,0c-1,0.1-2.1,0.3-3.2,0.3c-1.7,0-2.9-0.8-3.3-1.9
	c-0.5-1.2,0.3-2.5,2-3.1c1-0.3,2.1-0.5,3.1-0.6c4.1-0.4,8.2-0.9,12.4-0.2c1.5,0.3,3.1,0.1,4.6,0.2c0.9,0.1,1.8,0.1,2.6,0.2
	c1.2,0.3,2.2,1.3,2.3,2.3c0.1,0.9-0.5,2.1-1.6,2.4c-0.9,0.3-1.9,0.5-2.9,0.5c-2.1,0.1-4.1,0-6.5,0v1.4c0,2.1,0.1,4.2,0.1,6.3
	c0.1,9.3-0.8,18.5-2.3,27.6C125,333.2,125,334.2,124,334.7z M161.1,290.5c0.4,0.1,1,0.1,1.5,0.2c2.2,0.6,3,1.5,3,3.4
	c0,1.2-0.1,2.5-0.1,3.7c-0.1,3.3-0.1,6.6-0.1,10c-0.1,2.2,0,4.5,0,6.7c0,3.1,0.2,6.3-0.1,9.4c-0.3,3-1,5.8-1.5,8.7
	c-0.1,0.4-0.3,0.7-0.5,1.2c-0.6-0.1-1-0.1-1.7-0.1c-2.5-6.1-3.3-12.2-4.4-18.5c-2.6-0.3-4.7,0.4-7.1,0.6c-0.6,1.7-0.8,3.4-0.8,5.1
	c-0.2,2.8-0.3,5.6-0.4,8.4c-0.1,0.5-0.1,1-0.1,1.5c0,1.9-1.1,3.2-2.9,4.1c-1.9-0.9-2.5-2.3-2.8-3.8c-0.6-2.7-0.5-5.4-0.6-8
	c0-3-0.1-6-0.2-9c-0.1-4.4-0.2-8.7-0.3-13l-0.2-7c0-1.1,0.2-2.1,1.6-2.8c1-0.2,2.2-0.4,3.4-0.5c2.4,0.3,3.5,1.7,3.8,3.5
	c0.3,2.5,0.6,5,0.7,7.5c0,2.1-0.3,4.2-0.5,6.4v2.3c2.1,0.1,3.6-0.4,5.4-0.6c0.1-1.9,0.1-3.7,0.2-5.5c0.3-3.1,0.6-6.3,0.9-9.4
	c0.1-0.9,0.5-1.9,1-2.8C158.7,291.4,159.5,290.7,161.1,290.5z M177,307c0.8-0.1,1.6-0.2,2.3-0.2c0.6-0.1,1.3-0.1,1.9,0.1
	c1.6,0.4,2.5,1.9,1.6,3.2c-0.6,1-1.5,1.9-3,2.2c-1,0.1-2,0.4-2.7,1.1c0.1,4.8,0.1,9.6,0.1,14.5c0.4,0,0.9,0.1,1.4,0.1
	c0.9,0.1,1.7-0.1,2.5,0.1c1.2,0.2,2,0.8,2.3,1.8c0.3,1-0.1,1.8-1,2.3c-0.9,0.5-1.8,1-2.7,1.1c-2.1,0.3-4.1,0.7-5.7,1.8
	c-0.3,0.2-0.8,0.4-1.3,0.4c-2.2,0.4-3.8-1.1-3.3-3c0.1-0.5,0.4-0.9,0.6-1.2c0-0.2,0.1-0.4,0-0.6c-0.9-2.5-1.2-5.1-1-7.7
	c0.5-8.1,0.1-16.3-0.2-24.5c0-1.3,0-2.6,0.1-3.9c0.1-1.9,1.2-3.1,3.3-3.7c0.9-0.2,1.9-0.4,2.7-0.6c2.3-0.7,4.3-0.2,6.3,0.8
	c1,0.5,1.5,1.1,1.5,2c0.1,0.9-0.5,1.6-1.4,1.9c-0.8,0.3-1.6,0.4-2.4,0.6c-0.8,0.1-1.7,0.2-2.7,0.3c-0.3,1.9,0.1,3.7,0.1,5.6
	C176.7,303.3,176.3,305.1,177,307z M204.8,290.5c2.1,1,2.3,2.4,2.5,3.8c0.5,3.5,0.9,10.7,1.4,14.3c0.1,0.9,0,1.8,1,2.8l0.7-2.5
	c0.3-1.1,0.5-5.8,0.8-7c0.2-0.6,0.5-1.2,1-1.6c1.6-1.6,4.5-1.2,5.7,0.9c0.4,0.6,0.5,6.1,0.8,6.8c0.2,0.8,0.3,1.6,0.6,3.1
	c0.5-1.1,0.8-1.7,0.9-2.2c0.7-3.1,1.4-11,2.1-14.2c0.4-1.9,1.6-3.2,4-3.7c1.9,1.4,2.7,2.9,2.4,4.8c-0.1,0.6-0.1,1.2-0.2,1.9
	c-1.5,8.6-3,17.2-4.5,25.8c-0.5,2.7-1.2,5.4-1.9,8.1c-0.3,0.9-0.8,1.8-1.2,2.8c-0.8,0-1.5,0.2-2.1-0.1c-0.5-0.2-1.2-0.6-1.4-1.1
	c-0.5-0.8-0.9-1.7-1.2-2.7c-0.6-2.4-1.2-4.7-1.9-7.6l-0.8,2.4c-0.6,2.2-1.2,4.5-1.9,6.8c-0.1,0.5-0.3,1-0.6,1.5
	c-1.2,1.8-3.9,1.7-5.4-0.2c-0.6-0.7-0.9-1.6-1.1-2.4c-0.3-1.5-0.7-3.1-0.8-4.7c-1.2-9.9-2.4-19.8-3.6-29.7c-0.2-1.6-0.1-3.1,0.8-4.4
	C201.8,291.1,202.9,290.4,204.8,290.5z M231.2,320.4c-0.7-7.3-0.1-14.3,1.8-21.2c0.5-2.2,1.6-4.2,3-6c0.9-1.1,2-1.9,3.7-2
	c0.6-0.1,1-0.2,1.5-0.4c3.4-0.8,6.4,0.2,8.5,3c1.6,2.2,2.7,4.5,3,6.9c0.3,1.8,0.3,3.5,0.3,5.2c0.1,8-1,15.8-3.8,23.1
	c-0.3,0.9-0.7,1.8-1.2,2.7c-0.6,1.1-1.5,2-2.8,2.7c-2.3,1.1-4.6,0.9-6.9-0.5c-1.7-1-3-2.4-3.9-4
	C232.6,326.8,231.4,323.7,231.2,320.4z M241.3,329.4c0.4-0.2,0.6-0.2,0.7-0.4c0.2-0.4,0.4-0.8,0.5-1.2c2-5,2.5-10.3,3.5-15.5
	c0.5-3.1,0.1-6.4-0.6-9.6c-0.3-1.1-0.8-2.2-1.4-3.2c-0.2-0.5-0.8-0.8-1.2-1.2c-1.9,0.5-2.8,1.4-3.4,2.7c-0.4,1-0.7,2.1-1,3.1
	c-1,4.8-0.8,9.7-0.5,14.6c0.2,2.3,0.6,4.6,1,6.9C239.4,326.9,239.6,328.4,241.3,329.4z M256.7,320.4c-0.7-7.3-0.1-14.3,1.8-21.2
	c0.5-2.2,1.6-4.2,3-6c0.9-1.1,2-1.9,3.7-2c0.6-0.1,1-0.2,1.5-0.4c3.4-0.8,6.4,0.2,8.5,3c1.6,2.2,2.7,4.5,3,6.9
	c0.3,1.8,0.3,3.5,0.3,5.2c0.1,8-1,15.8-3.8,23.1c-0.3,0.9-0.7,1.8-1.2,2.7c-0.6,1.1-1.5,2-2.8,2.7c-2.3,1.1-4.6,0.9-6.9-0.5
	c-1.7-1-3-2.4-3.9-4C258.1,326.8,256.9,323.7,256.7,320.4z M266.8,329.4c0.4-0.2,0.6-0.2,0.7-0.4c0.2-0.4,0.4-0.8,0.5-1.2
	c2-5,2.5-10.3,3.5-15.5c0.5-3.1,0.1-6.4-0.6-9.6c-0.3-1.1-0.8-2.2-1.4-3.2c-0.2-0.5-0.8-0.8-1.2-1.2c-1.9,0.5-2.8,1.4-3.4,2.7
	c-0.4,1-0.7,2.1-1,3.1c-1,4.8-0.8,9.7-0.5,14.6c0.2,2.3,0.6,4.6,1,6.9C264.9,326.9,265.1,328.4,266.8,329.4z M285.9,335.3
	c-1.4-0.7-1.7-1.7-2.1-2.5c-1-2.2-1.3-4.5-1.3-6.7c-0.1-2.8,0-5.7,0-8.5v-3.2c-0.2-3.9-0.6-7.8-0.6-11.7c0-2.7,0.3-5.4,0.8-8.1
	c0.9-4.1,5-5.4,9.5-3.4c5.2,2.3,7.7,6.1,8.8,10.6c2,8.2,1,16-2.2,23.4c-1.4,3.3-3.6,6.2-7.3,8C289.8,334.1,287.8,334.6,285.9,335.3z
	 M291,299.6c-0.3,0.5-0.6,0.9-0.7,1.5c-0.3,1.7-0.8,3.4-0.8,5.1c-0.1,4.4-0.1,8.8-0.1,13.2c0.1,2.4,0.2,4.8-0.6,7.1
	c-0.1,0.2,0.1,0.5,0.1,0.9c0.6-0.4,1.2-0.5,1.4-0.8c0.8-1.1,1.7-2.1,2.3-3.3c1.9-4,2.8-8.3,3.2-12.6c0.2-3.4-1.1-6.5-3-9.5
	C292.5,300.6,292.1,299.9,291,299.6z M319.8,304.7c-0.4-0.4-1.1-0.9-1.4-1.5c-0.9-1.7-2.1-3.3-2.3-5.1c-0.1-1-0.3-2.1-2-2.9
	c-0.5,0.4-1.2,0.6-1.3,0.9c-0.3,0.8-0.4,1.7-0.2,2.5c0.1,0.9,0.7,1.9,1.2,2.8c1,1.5,2.1,3,3.3,4.4c3,3.4,5,7.1,6,10.9
	c1.4,4.9,1.3,9.8-0.7,14.5c-0.3,0.6-0.6,1.3-1.2,1.9c-1.6,1.9-4.7,2.4-7.9,1.3c-1.2-0.4-2.3-0.9-3.2-1.6c-2.6-1.7-4.2-3.7-5-6
	c-1.1-3.4-1.4-6.8-0.8-10.1c0.2-1.4,0.9-2.7,1.9-3.9c0.8-0.9,1.9-1.7,3.6-1.8c2,0.3,2.8,1.3,3.1,2.5c0.2,0.7,0.1,1.4,0.1,2.1
	c-0.1,2.1-0.4,4.2-0.4,6.3c-0.1,1.5,0.1,3,0.3,4.5c0.1,0.9,0.7,1.8,2.3,2.4c1.4-0.9,1.9-2.1,2-3.3c0.3-2.8-0.3-5.7-1.2-8.5
	c-1.5-4.7-4.8-9-8.5-13.2c-1.2-1.4-2.3-2.9-2.8-4.5c-0.8-3.3,0.8-5.9,3.8-8.1c1.9-1.4,5.4-1.5,8.2-0.5c2.1,0.8,3.6,1.8,4.7,3.1
	c1.9,2.5,2.8,5,2.9,7.7c0.1,0.9-0.3,1.9-1.2,2.6C322.4,304.9,321.5,305.2,319.8,304.7z M111.2,164.5c-0.2,0.6-0.5,1.2-0.7,1.8
	l-1.6,5.8c-0.3,0.7-0.5,1.5-0.9,2.1c-1.1,1.7-3.7,1.6-5.1-0.1c-0.3-0.5-0.6-1-0.7-1.6c-0.5-1.9-0.9-3.8-1.3-5.8
	c-0.1-0.7,0-1.4-0.7-2.1c-0.2,0.3-0.3,0.5-0.4,0.7c-0.5,4.4-1.2,8.8-1.8,13.2c-0.1,1-0.5,2-0.8,2.9c-0.1,0.3-0.5,0.5-0.9,0.9
	c-0.5-0.4-1.1-0.7-1.2-1.1c-0.3-1-0.6-2.1-0.7-3.2c-0.3-2.8-0.5-5.6-0.7-8.4c-0.1-0.9-0.2-1.7-0.4-2.6c-1.4-5-1.1-9.9-0.7-14.8
	c0.1-1.3,0.2-2.6,0.4-3.9c0.1-0.7,0.3-1.5,0.7-2.2c0.5-1.1,1.6-1.7,3.5-1.2c1,0.6,2.1,1.4,3.4,2.3c1.4,2,2.2,4.3,3,6.5
	c0.7,2.2,1.4,4.4,2.2,6.6c0.9,0.1,0.8-0.4,0.9-0.7l5.5-12.9c0.4-0.9,1.1-1.7,1.7-2.6c0.4-0.6,1.1-1,2.2-1c1.6,0.2,2.4,1,2.6,2.3
	c0.1,0.6,0.1,1.3,0.1,1.9c-0.2,4.5-0.3,8.9-0.6,13.4c-0.1,1.6-0.4,3.2-0.6,4.8c-0.3,2.5-0.7,5-1,7.5c-0.2,2.1-0.3,4.1,0.1,6.3
	c0.1,0.6,0.1,1.2,0.1,1.8c-0.1,1.1-0.3,1.4-1.8,2.4c-0.8,0.1-1.5-0.2-1.8-0.7c-0.9-1.4-1.8-2.7-2-4.2c-0.3-3.7-0.2-7.3,0.3-10.9
	l0.4-3.1C111.4,164.5,111.4,164.5,111.2,164.5z M129.9,158.1c0.8-0.1,1.6-0.2,2.3-0.2c0.6-0.1,1.3-0.1,1.9,0.1
	c1.6,0.4,2.4,1.7,1.6,2.8c-0.6,0.9-1.5,1.7-3,2c-1,0.1-2,0.3-2.7,1c0.1,4.2,0.1,8.5,0.1,12.9c0.4,0,0.9,0.1,1.4,0.1
	c0.9,0.1,1.7-0.1,2.5,0.1c1.2,0.2,2,0.7,2.3,1.6c0.3,0.9-0.1,1.6-0.9,2c-0.9,0.4-1.8,0.9-2.7,1c-2,0.3-4,0.6-5.6,1.6
	c-0.3,0.2-0.8,0.3-1.3,0.4c-2.2,0.3-3.7-0.9-3.3-2.6c0.1-0.4,0.4-0.8,0.6-1.1c0-0.2,0.1-0.4,0-0.5c-0.9-2.3-1.1-4.6-0.9-6.9
	c0.5-7.2,0.1-14.5-0.2-21.7c0-1.2,0-2.3,0.1-3.5c0.1-1.7,1.2-2.8,3.3-3.2c0.9-0.2,1.8-0.3,2.6-0.5c2.2-0.6,4.3-0.2,6.2,0.7
	c0.9,0.4,1.5,1,1.5,1.8c0.1,0.8-0.5,1.4-1.4,1.7c-0.7,0.3-1.6,0.4-2.4,0.5c-0.8,0.1-1.6,0.2-2.6,0.3c-0.3,1.7,0.1,3.3,0.1,5
	C129.5,154.9,129.1,156.4,129.9,158.1z M158.9,164.5c-0.2,0.6-0.5,1.2-0.7,1.8l-1.6,5.8c-0.3,0.7-0.5,1.5-0.9,2.1
	c-1.1,1.7-3.7,1.6-5.1-0.1c-0.3-0.5-0.6-1-0.7-1.6c-0.5-1.9-0.9-3.8-1.3-5.8c-0.1-0.7,0-1.4-0.7-2.1c-0.2,0.3-0.3,0.5-0.4,0.7
	c-0.5,4.4-1.2,8.8-1.8,13.2c-0.1,1-0.5,2-0.8,2.9c-0.1,0.3-0.5,0.5-0.9,0.9c-0.5-0.4-1.1-0.7-1.2-1.1c-0.3-1-0.6-2.1-0.7-3.2
	c-0.3-2.8-0.5-5.6-0.7-8.4c-0.1-0.9-0.2-1.7-0.4-2.6c-1.4-5-1.1-9.9-0.7-14.8c0.1-1.3,0.2-2.6,0.4-3.9c0.1-0.7,0.3-1.5,0.7-2.2
	c0.5-1.1,1.6-1.7,3.5-1.2c1,0.6,2.1,1.4,3.4,2.3c1.4,2,2.2,4.3,3,6.5c0.7,2.2,1.4,4.4,2.2,6.6c0.9,0.1,0.8-0.4,0.9-0.7l5.5-12.9
	c0.4-0.9,1.1-1.7,1.7-2.6c0.4-0.6,1.1-1,2.2-1c1.6,0.2,2.4,1,2.6,2.3c0.1,0.6,0.1,1.3,0.1,1.9c-0.2,4.5-0.3,8.9-0.6,13.4
	c-0.1,1.6-0.4,3.2-0.6,4.8c-0.3,2.5-0.7,5-1,7.5c-0.2,2.1-0.3,4.1,0.1,6.3c0.1,0.6,0.1,1.2,0.1,1.8c-0.1,1.1-0.3,1.4-1.8,2.4
	c-0.8,0.1-1.5-0.2-1.8-0.7c-0.9-1.4-1.8-2.7-2-4.2c-0.3-3.7-0.2-7.3,0.3-10.9l0.4-3.1C159.1,164.5,159,164.5,158.9,164.5z
	 M169.8,170.1c-0.7-6.4-0.1-12.7,1.8-18.9c0.5-1.9,1.6-3.7,3-5.3c0.9-0.9,2-1.7,3.7-1.8c0.5-0.1,1-0.2,1.5-0.3
	c3.4-0.7,6.3,0.2,8.4,2.6c1.6,1.9,2.6,4,2.9,6.1c0.3,1.6,0.3,3.1,0.3,4.6c0.1,7.1-0.9,14-3.7,20.5c-0.3,0.8-0.7,1.6-1.2,2.4
	c-0.6,1-1.5,1.8-2.8,2.4c-2.2,1-4.5,0.8-6.8-0.4c-1.7-0.9-3-2.1-3.9-3.5C171.3,175.8,170,173,169.8,170.1z M179.9,178
	c0.4-0.2,0.6-0.2,0.7-0.4c0.2-0.3,0.4-0.7,0.5-1.1c2-4.4,2.5-9.1,3.5-13.7c0.5-2.8,0.1-5.7-0.6-8.5c-0.3-0.9-0.8-1.9-1.4-2.8
	c-0.2-0.4-0.7-0.7-1.2-1.1c-1.8,0.4-2.8,1.3-3.3,2.4c-0.4,0.9-0.7,1.8-0.9,2.8c-0.9,4.2-0.8,8.6-0.5,13c0.2,2,0.6,4.1,1,6.1
	C178,175.8,178.2,177.1,179.9,178z M199.7,183.1l-2.4-1.2c-1.2-1.6-1.8-3.2-1.9-5c-0.4-5.8-0.9-11.5-0.5-17.2c0.1-1.8-0.1-3.7,0-5.6
	c0.1-2.7,0.8-5.2,2.6-7.5c2.7-3.4,8.1-4.1,12.1-1.7c1.7,0.9,2.9,2.1,3.6,3.7c0.8,1.6,1.2,3.3,0.9,5c-0.6,2.7-1.3,5.3-2.7,7.8
	c-0.9,1.5-2.2,2.9-3.4,4.6c0,0,0.1,0.3,0.3,0.5c2.8,3.3,4,7,5.1,10.8c0.5,1.7,0,3.2-0.9,4.7c-0.3,0.4-0.7,0.6-1.2,1.1
	c-0.5-0.5-1.1-0.8-1.4-1.2c-0.7-1.2-1.4-2.4-2-3.7c-0.9-1.9-1.5-3.9-2.3-5.9c-0.5-1.3-1.2-2.5-2.3-3.5c-0.8,0.1-0.6,0.6-0.6,0.9
	c-0.1,1.5,0,2.9-0.1,4.4c-0.1,2.4-0.5,4.8-1.3,7.2C201,182,200.7,182.7,199.7,183.1z M204.4,148.1c-1.3,1.1-1.6,2.4-1.6,3.6
	c-0.1,3-0.1,6-0.2,9c0,0.4-0.1,0.7,0.6,1c1.3-0.8,1.8-2.1,2.8-3.2c2-2.3,1.9-4.7,1.2-7.2C206.9,150,206.3,148.8,204.4,148.1z
	 M220.2,144.8c1.2-0.4,2.3-0.7,3.3-1c2.5,0.5,3.2,1,3.4,2.7c0.1,0.4,0.1,0.8,0,1.3c-1,7.6-0.9,15.2-0.8,22.8
	c0.1,3.5-0.3,6.9-0.5,10.3c-0.1,0.6-0.4,1.2-0.6,1.8l-2.3,0.2c-0.4-0.7-0.9-1.3-1.2-1.9c-1.2-2.8-2-5.7-2.2-8.6
	c-0.3-3.2-0.7-6.4-1-9.6c-0.5-4.3-0.9-8.6-0.2-12.9C218.3,148.1,218.6,146.4,220.2,144.8z M238.2,158.1c0.8-0.1,1.6-0.2,2.3-0.2
	c0.6-0.1,1.3-0.1,1.9,0.1c1.6,0.4,2.4,1.7,1.6,2.8c-0.6,0.9-1.5,1.7-3,2c-1,0.1-2,0.3-2.7,1c0.1,4.2,0.1,8.5,0.1,12.9
	c0.4,0,0.9,0.1,1.4,0.1c0.9,0.1,1.7-0.1,2.5,0.1c1.2,0.2,2,0.7,2.3,1.6c0.3,0.9-0.1,1.6-0.9,2c-0.9,0.4-1.8,0.9-2.7,1
	c-2,0.3-4,0.6-5.6,1.6c-0.3,0.2-0.8,0.3-1.3,0.4c-2.2,0.3-3.7-0.9-3.3-2.6c0.1-0.4,0.4-0.8,0.6-1.1c0-0.2,0.1-0.4,0-0.5
	c-0.9-2.3-1.1-4.6-0.9-6.9c0.5-7.2,0.1-14.5-0.2-21.7c0-1.2,0-2.3,0.1-3.5c0.1-1.7,1.2-2.8,3.3-3.2c0.9-0.2,1.8-0.3,2.6-0.5
	c2.2-0.6,4.3-0.2,6.2,0.7c0.9,0.4,1.5,1,1.5,1.8c0.1,0.8-0.5,1.4-1.4,1.7c-0.7,0.3-1.6,0.4-2.4,0.5c-0.8,0.1-1.6,0.2-2.6,0.3
	c-0.3,1.7,0.1,3.3,0.1,5C237.9,154.9,237.5,156.4,238.2,158.1z M261.7,156.1c-0.4-0.3-1.1-0.8-1.4-1.3c-0.9-1.5-2.1-2.9-2.2-4.5
	c-0.1-0.9-0.3-1.8-2-2.6c-0.5,0.3-1.2,0.5-1.3,0.8c-0.3,0.7-0.4,1.5-0.2,2.3c0.1,0.8,0.7,1.7,1.2,2.5c1,1.3,2,2.7,3.3,3.9
	c3,3,4.9,6.3,5.9,9.7c1.4,4.3,1.3,8.7-0.7,12.8c-0.3,0.6-0.6,1.2-1.1,1.7c-1.6,1.7-4.6,2.1-7.8,1.2c-1.2-0.4-2.2-0.8-3.2-1.4
	c-2.6-1.5-4.1-3.2-4.9-5.3c-1.1-3-1.4-6-0.8-9c0.2-1.3,0.9-2.4,1.8-3.5c0.7-0.8,1.8-1.5,3.6-1.6c2,0.3,2.8,1.2,3,2.2
	c0.2,0.6,0.1,1.3,0.1,1.9c-0.1,1.9-0.4,3.7-0.4,5.6c-0.1,1.3,0.1,2.7,0.3,4c0.1,0.8,0.7,1.6,2.3,2.1c1.4-0.8,1.8-1.8,2-2.9
	c0.3-2.5-0.3-5-1.2-7.5c-1.5-4.2-4.7-8-8.4-11.7c-1.2-1.3-2.2-2.6-2.7-4c-0.8-2.9,0.7-5.2,3.7-7.2c1.9-1.2,5.3-1.3,8.1-0.4
	c2,0.7,3.5,1.6,4.6,2.8c1.9,2.2,2.8,4.5,2.8,6.8c0.1,0.8-0.3,1.7-1.2,2.3C264.2,156.3,263.3,156.5,261.7,156.1z M294.5,171.1
	c-2.1-0.1-3.9-0.2-5.8-0.1c-0.2,0.7-0.4,1.4-0.6,2l-2.2,8.8c-0.3,0.8-0.3,1.7-1.8,2.1c-0.3-0.2-0.6-0.3-1.1-0.5
	c-0.3-2.9-0.5-5.8-0.5-8.6c-0.1-3,0.4-5.9,0.9-8.8c0.7-3.4,1.1-6.9,1.2-10.4c0.1-2.8,0.5-5.6,1.7-8.2c0.4-1,0.9-2,1.8-2.9
	c2-2.1,5.2-2.1,7.8-0.1c1.4,1.2,2.2,2.7,2.8,4.2c0.9,2.9,1.5,5.9,1.6,8.9c0.1,3.8,0.2,7.6,0.3,11.5c0,2.7,0,5.4-0.1,8.2
	c0,0.8-0.1,1.6-0.3,2.3c-0.3,1-1.2,1.7-2.4,1.7c-1.2,0-2.4-0.7-2.8-1.9c-0.3-0.9-0.3-1.9-0.3-2.8c-0.1-1.3,0.1-2.6,0.1-4
	C294.7,172.2,294.6,171.8,294.5,171.1z M294.5,166.4c-0.1-1-0.1-1.7-0.1-2.4c0-1.7-0.2-3.3-0.1-4.9c0.3-3.1-0.4-6.1-1.2-9.1
	c-0.1-0.5-0.5-0.8-0.9-1.5c-0.3,0.6-0.6,0.9-0.7,1.3c-0.3,1.5-0.7,3-0.9,4.6c-0.5,3.9-0.8,7.7-1.2,11.6c0,0.2,0.1,0.4,0.3,0.8
	C291.3,166.6,292.7,166.5,294.5,166.4z M308.9,183.1l-2.4-1.2c-1.2-1.6-1.8-3.2-1.9-5c-0.4-5.8-0.9-11.5-0.5-17.2
	c0.1-1.8-0.1-3.7,0-5.6c0.1-2.7,0.8-5.2,2.6-7.5c2.7-3.4,8.1-4.1,12.1-1.7c1.7,0.9,2.9,2.1,3.6,3.7c0.8,1.6,1.2,3.3,0.9,5
	c-0.6,2.7-1.3,5.3-2.7,7.8c-0.9,1.5-2.2,2.9-3.4,4.6c0,0,0.1,0.3,0.3,0.5c2.8,3.3,4,7,5.1,10.8c0.5,1.7,0,3.2-0.9,4.7
	c-0.3,0.4-0.7,0.6-1.2,1.1c-0.5-0.5-1.2-0.8-1.4-1.2c-0.7-1.2-1.4-2.4-2-3.7c-0.9-1.9-1.5-3.9-2.3-5.9c-0.5-1.3-1.2-2.5-2.3-3.5
	c-0.8,0.1-0.6,0.6-0.6,0.9c-0.1,1.5,0,2.9-0.1,4.4c-0.1,2.4-0.5,4.8-1.3,7.2C310.2,182,309.9,182.7,308.9,183.1z M313.6,148.1
	c-1.3,1.1-1.6,2.4-1.6,3.6c-0.1,3-0.1,6-0.2,9c0,0.4-0.1,0.7,0.6,1c1.3-0.8,1.8-2.1,2.8-3.2c2-2.3,1.9-4.7,1.2-7.2
	C316,150,315.4,148.8,313.6,148.1z M334.7,158.1c0.8-0.1,1.6-0.2,2.3-0.2c0.6-0.1,1.3-0.1,1.9,0.1c1.6,0.4,2.4,1.7,1.6,2.8
	c-0.6,0.9-1.5,1.7-3,2c-1,0.1-2,0.3-2.7,1c0.1,4.2,0.1,8.5,0.1,12.9c0.4,0,0.9,0.1,1.4,0.1c0.9,0.1,1.7-0.1,2.5,0.1
	c1.1,0.2,2,0.7,2.3,1.6c0.3,0.9-0.1,1.6-0.9,2c-0.9,0.4-1.8,0.9-2.7,1c-2,0.3-4,0.6-5.6,1.6c-0.3,0.2-0.8,0.3-1.3,0.4
	c-2.2,0.3-3.7-0.9-3.3-2.6c0.1-0.4,0.4-0.8,0.6-1.1c0-0.2,0.1-0.4,0-0.5c-0.9-2.3-1.1-4.6-0.9-6.9c0.5-7.2,0.1-14.5-0.2-21.7
	c0-1.2,0-2.3,0.1-3.5c0.1-1.7,1.2-2.8,3.3-3.2c0.9-0.2,1.8-0.3,2.6-0.5c2.2-0.6,4.3-0.2,6.2,0.7c0.9,0.4,1.5,1,1.5,1.8
	c0.1,0.8-0.5,1.4-1.4,1.7c-0.7,0.3-1.6,0.4-2.4,0.5c-0.8,0.1-1.6,0.2-2.6,0.3c-0.3,1.7,0.1,3.3,0.1,5
	C334.3,154.9,333.9,156.4,334.7,158.1z"/>
<path fill="#BC936B" d="M318,222.9c1-0.8,2.2-1.3,3.5-1.6c2.3-0.6,4.7-0.8,7.1-0.9c6.4-0.2,12.9-0.4,19.3-0.2
	c4.8,0.1,9.6,0.3,14.3,0.3c12.3,0,24.6-0.1,36.9-0.1c4.2,0,8.4,0.2,12.6,0.4c1.4,0.1,2.8,0.4,4.2,0.7c1.5,0.4,2.5,1.3,3,2.6
	c0.6,1.6,0.5,3.1-0.4,4.6c-0.6,1-1.4,1.8-2.4,2.4c-1.5,0.9-3,1.7-4.5,2.5c-0.7,0.4-1.1,0.8-1.3,1.5c-0.4,1.1-0.7,2.2-1.1,3.3
	c-2.1,5.8-5.9,10.5-11.7,14c-1.5,0.9-2.4,2-2.8,3.5c-0.2,1-0.5,2-0.7,3c-2,10.9-4.1,21.8-6.1,32.7c-2.1,11.8-4.5,23.6-7.6,35.3
	c-1.1,4.2-2.3,8.5-3.5,12.7c-0.6,2.2-1.6,4.3-2.8,6.2c-0.9,1.4-1.9,2.7-3.5,3.6c-2.3,1.4-4.7,1.2-6.5-0.7c-0.9-1-1.6-2-2.1-3.2
	c-0.8-2-1.7-4-2.4-6c-0.9-2.6-1.7-5.3-2.5-7.9c-3.4-12.9-6.9-25.8-10.2-38.8c-1.8-6.8-3.4-13.6-4.5-20.5c-0.6-4-1.1-8.1-1.6-12.2
	c-0.1-1-0.5-1.7-1.4-2.4c-0.8-0.6-1.6-1.3-2.3-2.1c-3-3.2-5.5-6.7-7.4-10.5c-2-4-3.3-8.1-4.4-12.4c-0.1-0.3-0.2-0.6-0.3-1
	c-0.8-0.2-1.6-0.4-2.3-0.6c-2.1-0.6-3.7-1.6-5.1-3.1C316.2,226.6,316.4,224.3,318,222.9z M399.8,199.9c1.6-5.9,0.4-11.2-4.7-15.7
	c-1.9-1.7-4.1-2.9-6.4-4.2c-5-2.8-10.3-5-15.5-7.4c-2.9-1.3-5.7-2.8-7.9-4.8c-1.6-1.5-2.8-3.1-3.2-5.1c0-0.1-0.1-0.3-0.1-0.4
	c-0.1-0.3-0.4-0.4-0.7-0.2c-0.1,0.1-0.3,0.2-0.4,0.3c-2,1.7-4,3.5-6,5.2c-2.3,2-4.6,4.1-6.1,6.6c-3.8,6.4-4.2,12.9-0.6,19.5
	c1.3,2.4,3.5,4,6.2,5.2c2.2,0.9,4.5,1.5,6.9,1.9c5.8,1,11.7,1.1,17.5,0.7c3.8-0.3,7.6-0.6,11.5-0.9c2.7-0.2,5.3-0.1,8,0.2
	C399.4,200.8,399.5,200.8,399.8,199.9z M408.9,215.6c0.9-3.1,0.4-6-2.2-8.5c-2.6-2.5-5.7-3.9-9.6-4.2c-2.4-0.2-4.8-0.2-7.2,0
	c-4.3,0.3-8.6,0.7-12.9,1c-5.3,0.3-10.5,0.1-15.8-0.8c-4.5-0.7-8.7-2.1-12.4-4.5c-0.2-0.1-0.5-0.3-0.7-0.4c-0.7-0.3-1-0.3-1.7,0.1
	c-0.8,0.5-1.6,1-2.5,1.3c-3.2,1.4-6.3,2.8-9.2,4.7c-0.6,0.4-1.1,0.8-1.7,1.2c-3,2.5-4.9,5.5-6,8.9c-0.1,0.5-0.2,0.9-0.2,1.4
	c-0.1,1.2,0.7,2,2.1,2.1c0.6,0.1,1.1,0,1.7,0c5-0.2,10-0.5,15.1-0.6c2.7-0.1,5.5,0,8.2,0c2.9,0,5.8,0.1,8.8,0.1
	c5.1,0.1,10.3,0.1,15.4,0.3c7.1,0.2,14.2,0.4,21.3,0.1c2-0.1,4,0,6,0C407.4,217.8,408.4,217.3,408.9,215.6z M384.8,168.8
	c0.4-6.9-1.4-13.3-5.7-19.1c-2.6-3.5-6.3-5.9-10.7-7.5c-0.4-0.2-0.9-0.3-1.3-0.3c-2.1-0.4-3.4,0.6-3.3,2.4c0.1,0.7,0.3,1.5,0.5,2.2
	c0.1,0.6,0.3,1.1,0.5,1.6c1,2.8,1,5.6,0.3,8.4c-0.2,0.8-0.4,1.5-0.5,2.3c-0.3,1.6-0.1,3.2,0.8,4.6c0.7,1.1,1.4,2.1,2.2,3.1
	c0.8,1,2.1,1.8,3.4,2.4c3,1.5,6,2.8,9,4.3c1,0.5,2.1,0.9,3.2,1.4c0.4,0.2,0.8,0.4,1.3,0.2c0.1-0.1,0.1-0.1,0.1-0.2
	C384.5,172.6,384.7,170.7,384.8,168.8z M113.8,222.9c-1-0.8-2.2-1.3-3.5-1.6c-2.3-0.6-4.7-0.8-7.1-0.9c-6.4-0.2-12.9-0.4-19.3-0.2
	c-4.8,0.1-9.6,0.3-14.3,0.3c-12.3,0-24.6-0.1-36.9-0.1c-4.2,0-8.4,0.2-12.6,0.4c-1.4,0.1-2.8,0.4-4.2,0.7c-1.5,0.4-2.5,1.3-3,2.6
	c-0.6,1.6-0.5,3.1,0.4,4.6c0.6,1,1.4,1.8,2.4,2.4c1.5,0.9,3,1.7,4.5,2.5c0.7,0.4,1.1,0.8,1.3,1.5c0.4,1.1,0.7,2.2,1.1,3.3
	c2.1,5.8,5.9,10.5,11.7,14c1.5,0.9,2.4,2,2.8,3.5c0.2,1,0.5,2,0.7,3c2,10.9,4.1,21.8,6.1,32.7c2.1,11.8,4.5,23.6,7.6,35.3
	c1.1,4.2,2.3,8.5,3.5,12.7c0.6,2.2,1.6,4.3,2.8,6.2c0.9,1.4,1.9,2.7,3.5,3.6c2.3,1.4,4.7,1.2,6.5-0.7c0.9-1,1.6-2,2.1-3.2
	c0.8-2,1.7-4,2.4-6c0.9-2.6,1.7-5.3,2.5-7.9c3.4-12.9,6.9-25.8,10.2-38.8c1.8-6.8,3.4-13.6,4.5-20.5c0.6-4,1.1-8.1,1.6-12.2
	c0.1-1,0.5-1.7,1.4-2.4c0.8-0.6,1.6-1.3,2.3-2.1c3-3.2,5.5-6.7,7.4-10.5c2-4,3.3-8.1,4.4-12.4c0.1-0.3,0.2-0.6,0.3-1
	c0.8-0.2,1.6-0.4,2.3-0.6c2.1-0.6,3.7-1.6,5.1-3.1C115.7,226.6,115.5,224.3,113.8,222.9z M33.5,200.7c2.7-0.3,5.3-0.4,8-0.2
	c3.8,0.3,7.6,0.6,11.5,0.9c5.9,0.5,11.7,0.3,17.5-0.7c2.4-0.4,4.7-1,6.9-1.9c2.7-1.2,4.9-2.8,6.2-5.2c3.6-6.6,3.2-13.1-0.6-19.5
	c-1.5-2.5-3.7-4.6-6.1-6.6c-2-1.7-4-3.5-6-5.2c-0.1-0.1-0.2-0.2-0.4-0.3c-0.3-0.2-0.5-0.1-0.7,0.2c-0.1,0.1-0.1,0.3-0.1,0.4
	c-0.4,2-1.6,3.7-3.2,5.1c-2.3,2.1-5,3.5-7.9,4.8c-5.2,2.4-10.5,4.6-15.5,7.4c-2.3,1.3-4.6,2.5-6.4,4.2c-5,4.5-6.2,9.8-4.7,15.7
	C32.3,200.8,32.4,200.8,33.5,200.7z M26.5,217.8c2,0,4,0,6,0c7.1,0.3,14.2,0.1,21.3-0.1c5.1-0.2,10.3-0.2,15.4-0.3
	c2.9,0,5.8-0.1,8.8-0.1c2.7,0,5.5-0.1,8.2,0c5,0.2,10,0.4,15.1,0.6c0.6,0,1.1,0,1.7,0c1.5-0.1,2.2-0.9,2.1-2.1c0-0.5-0.1-1-0.2-1.4
	c-1.1-3.4-3-6.4-6-8.9c-0.6-0.4-1.1-0.8-1.7-1.2c-2.8-1.9-6-3.3-9.2-4.7c-0.9-0.4-1.7-0.8-2.5-1.3c-0.7-0.4-1-0.5-1.7-0.1
	c-0.2,0.1-0.5,0.2-0.7,0.4c-3.7,2.4-7.8,3.8-12.4,4.5c-5.2,0.8-10.5,1.1-15.8,0.8c-4.3-0.3-8.6-0.6-12.9-1c-2.4-0.2-4.8-0.2-7.2,0
	c-3.9,0.3-7,1.7-9.6,4.2c-2.6,2.5-3.2,5.4-2.2,8.5C23.5,217.3,24.4,217.8,26.5,217.8z M47.5,174.5c0,0.1,0.1,0.1,0.1,0.2
	c0.5,0.2,0.9,0,1.3-0.2c1.1-0.5,2.1-0.9,3.2-1.4c3-1.4,6-2.8,9-4.3c1.3-0.6,2.5-1.4,3.4-2.4c0.8-1,1.5-2.1,2.2-3.1
	c0.9-1.4,1.1-3,0.8-4.6c-0.1-0.8-0.3-1.5-0.5-2.3c-0.7-2.8-0.8-5.6,0.3-8.4c0.2-0.5,0.4-1.1,0.5-1.6c0.2-0.7,0.4-1.5,0.5-2.2
	c0.1-1.8-1.2-2.7-3.3-2.4c-0.4,0.1-0.9,0.2-1.3,0.3c-4.4,1.7-8.1,4-10.7,7.5c-4.4,5.8-6.2,12.3-5.7,19.1
	C47.2,170.7,47.3,172.6,47.5,174.5z M98.1,127.6c2.5-16.7,3.8-33.7,3.7-50.8c-0.1-3.8-0.2-7.7-0.2-11.5v-2.5c3.7,0,6.9,0.1,10.2,0
	c1.5,0,3.1-0.3,4.6-0.9c1.8-0.6,2.8-2.7,2.6-4.4c-0.2-1.8-1.7-3.7-3.7-4.2c-1.3-0.3-2.7-0.3-4.1-0.4c-2.4-0.1-4.9,0.2-7.3-0.3
	c-6.7-1.3-13.1-0.3-19.6,0.4c-1.6,0.2-3.4,0.7-4.9,1.2c-2.7,1-3.9,3.4-3.1,5.6c0.6,2.2,2.5,3.6,5.2,3.6c1.7,0,3.5-0.3,5.1-0.5
	c1.5-0.3,3-0.8,4.9,0c0.3,2.7,0.3,5.5,0.3,8.2c0.1,13.1-0.3,26.1,0.8,39.4c0.1,1.2-0.2,2.4,0,3.6c0.4,5.1,1,10.1,1.5,15.1
	c0.1,1.2,0.5,2.4,2.4,2.8C97.9,131.1,97.9,129.3,98.1,127.6z M150.3,54.3c-0.8,1.6-1.3,3.4-1.5,5.1c-0.5,5.7-1,11.5-1.4,17.2
	c-0.2,3.3-0.2,6.6-0.3,10.1c-2.8,0.4-5.3,1.3-8.6,1.1v-4.2c0.2-4,0.8-7.9,0.8-11.8c-0.1-4.6-0.5-9.2-1.1-13.8c-0.4-3.4-2.2-6-6-6.5
	c-2,0.3-3.9,0.7-5.4,1c-2.2,1.3-2.5,3.1-2.5,5.2l0.3,12.9c0.2,7.9,0.4,15.8,0.5,23.9c0.1,5.5,0.3,11,0.3,16.5
	c0.1,4.9,0,9.8,0.9,14.7c0.4,2.8,1.5,5.3,4.4,7.1c2.8-1.7,4.6-4,4.6-7.6c0-0.9,0-1.8,0.1-2.7c0.2-5.2,0.3-10.4,0.6-15.5
	c0.1-3.1,0.3-6.4,1.3-9.4c3.7-0.3,7-1.6,11.2-1.1c1.7,11.5,3,22.8,6.9,33.9c1.1,0.1,1.7,0.1,2.6,0.2c0.3-0.9,0.8-1.4,0.9-2.2
	c0.9-5.3,2-10.6,2.4-16.1c0.4-5.7,0.1-11.6,0.1-17.4c0-4.1-0.1-8.2,0-12.4c0-6.2,0-12.3,0.1-18.3c0-2.3,0.2-4.6,0.2-6.8
	c0.1-3.5-1.2-5.2-4.7-6.3c-0.9-0.2-1.7-0.3-2.4-0.4C152.3,51.1,151,52.5,150.3,54.3z M179.2,71c-0.1-3.5-0.7-6.8-0.2-10.3
	c1.6-0.2,2.9-0.3,4.2-0.5c1.3-0.3,2.6-0.5,3.8-1.1c1.4-0.5,2.3-1.8,2.2-3.5c0-1.6-0.9-2.8-2.4-3.7c-3.1-1.8-6.4-2.7-10-1.4
	c-1.3,0.4-2.8,0.8-4.2,1.1c-3.4,1-5.1,3.3-5.2,6.7c-0.1,2.4-0.1,4.8-0.1,7.2c0.4,15.1,1.1,30,0.3,45c-0.3,4.8,0.1,9.5,1.5,14.2
	c0.1,0.3,0,0.7,0,1.1c-0.3,0.6-0.8,1.4-1,2.3c-0.8,3.5,1.7,6.1,5.2,5.4c0.8-0.1,1.5-0.3,2.1-0.8c2.6-2,5.7-2.7,9-3.3
	c1.5-0.2,2.9-1.2,4.3-2.1c1.4-1,2.1-2.4,1.5-4.2c-0.5-1.8-1.8-2.9-3.7-3.3c-1.3-0.2-2.6,0-4-0.1c-0.9,0-1.6-0.2-2.3-0.2
	c0-9.1,0-17.9-0.1-26.7c1.2-1.4,2.7-1.8,4.3-2.1c2.4-0.5,3.8-2.3,4.8-4.1c1.3-2.3,0-5.1-2.6-5.9c-1-0.3-2.1-0.3-3-0.2
	c-1.2,0-2.4,0.2-3.7,0.3C178.7,77.5,179.4,74.3,179.2,71z M244.5,79.3c1.4-4.4,1.7-9,0.2-13.4c-2.6-7.7-7.2-13.3-15.5-15.2
	c-5.1-1.1-9,0.9-11,5.6c-0.4,1-0.9,2.1-1,3.1c-0.3,3.1-0.8,6.2-0.9,9.3c0,12.1,0,24.2,0.1,36.3c0,4.3-0.1,8.8,0.2,13.1
	c0.2,3.5,0.8,6.9,1.6,10.3c0.9,3.4,2.9,4.9,6.2,4.6c8.9-1,16.5-5,18.2-15.2c0.6-3.4,0.6-6.9,0.8-10.3c0.2-6-0.8-11.7-5.5-16.4
	C241.2,87.3,243.2,83.4,244.5,79.3z M226.5,98.2l5.3,0.3c1.9,1.2,2.3,2.9,2.4,4.7c0.1,3.5,0.3,6.9,0,10.4
	c-0.4,6.5-2.7,8.8-10.1,10.1C224.9,115.1,225.7,106.8,226.5,98.2z M227.1,85.7c0-4.9-0.1-9.8-0.1-14.5c-0.1-2.8,0.9-5.2,3.3-7.2
	c0.8,0.7,1.6,1.1,2,1.7c2.5,5.6,2.5,11.3,0.1,16.9c-0.9,1.9-2.5,3.4-4.7,4.4L227.1,85.7z M263.1,71c-0.1-3.5-0.7-6.8-0.2-10.3
	c1.6-0.2,2.9-0.3,4.2-0.5c1.3-0.3,2.6-0.5,3.8-1.1c1.4-0.5,2.3-1.8,2.2-3.5c0-1.6-0.9-2.8-2.4-3.7c-3.1-1.8-6.4-2.7-10-1.4
	c-1.3,0.4-2.8,0.8-4.2,1.1c-3.4,1-5.1,3.3-5.2,6.7c-0.1,2.4-0.1,4.8-0.1,7.2c0.4,15.1,1.1,30,0.3,45c-0.3,4.8,0.1,9.5,1.5,14.2
	c0.1,0.3,0,0.7,0,1.1c-0.3,0.6-0.8,1.4-1,2.3c-0.8,3.5,1.7,6.1,5.2,5.4c0.8-0.1,1.5-0.3,2.1-0.8c2.6-2,5.7-2.7,9-3.3
	c1.5-0.2,2.9-1.2,4.3-2.1c1.4-1,2.1-2.4,1.5-4.2c-0.5-1.8-1.8-2.9-3.7-3.3c-1.3-0.2-2.6,0-4-0.1c-0.9,0-1.6-0.2-2.3-0.2
	c0-9.1,0-17.9-0.1-26.7c1.2-1.4,2.7-1.8,4.3-2.1c2.4-0.5,3.8-2.3,4.8-4.1c1.3-2.3,0-5.1-2.6-5.9c-1-0.3-2.1-0.3-3-0.2
	c-1.2,0-2.4,0.2-3.7,0.3C262.6,77.5,263.3,74.3,263.1,71z M306.7,76c1.4-1.3,2-3,1.8-4.8c-0.1-4.9-1.5-9.5-4.6-14.1
	c-1.7-2.4-4.1-4.3-7.4-5.7c-4.4-1.8-9.9-1.6-12.9,0.9c-4.8,4-7.3,8.8-6,14.9c0.8,2.9,2.4,5.6,4.3,8.2c5.9,7.7,11.1,15.6,13.4,24.3
	c1.4,5.2,2.3,10.4,1.8,15.6c-0.2,2.3-0.9,4.4-3.1,6.1c-2.6-1-3.5-2.6-3.7-4.3c-0.3-2.7-0.7-5.5-0.5-8.2c0-3.9,0.4-7.7,0.6-11.6
	c0.1-1.3,0.2-2.6-0.1-3.9c-0.4-2.2-1.7-4-4.9-4.6c-2.8,0.2-4.6,1.5-5.8,3.3c-1.5,2.3-2.6,4.6-2.9,7.2c-0.9,6.2-0.4,12.4,1.3,18.7
	c1.2,4.2,3.7,7.9,7.8,11c1.5,1.2,3.3,2.2,5.1,2.9c5.1,2.1,9.9,1.1,12.5-2.4c0.9-1.1,1.4-2.3,1.8-3.5c3.1-8.6,3.3-17.6,1.1-26.6
	c-1.5-6.9-4.7-13.8-9.4-20.1c-2-2.6-3.6-5.4-5.2-8.1c-0.9-1.6-1.7-3.4-2-5.1c-0.3-1.5-0.1-3.1,0.3-4.7c0.2-0.6,1.3-1.1,2.1-1.7
	c2.6,1.5,3,3.5,3.1,5.3c0.2,3.3,2.2,6.3,3.6,9.3c0.5,1.1,1.6,2.1,2.3,2.7C304,77.7,305.5,77.2,306.7,76z M331.7,127.6
	c2.5-16.7,3.8-33.7,3.7-50.8c-0.1-3.8-0.2-7.7-0.2-11.5v-2.5c3.7,0,6.9,0.1,10.2,0c1.5,0,3.1-0.3,4.6-0.9c1.8-0.6,2.8-2.7,2.6-4.4
	c-0.2-1.8-1.7-3.7-3.7-4.2c-1.3-0.3-2.7-0.3-4.1-0.4c-2.4-0.1-4.9,0.2-7.3-0.3c-6.7-1.3-13.1-0.3-19.6,0.4c-1.6,0.2-3.4,0.7-4.9,1.2
	c-2.7,1-3.9,3.4-3.1,5.6c0.6,2.2,2.5,3.6,5.2,3.6c1.7,0,3.5-0.3,5.1-0.5c1.5-0.3,3-0.8,4.9,0c0.3,2.7,0.3,5.5,0.3,8.2
	c0.1,13.1-0.3,26.1,0.8,39.4c0.1,1.2-0.2,2.4,0,3.6c0.4,5.1,1,10.1,1.5,15.1c0.1,1.2,0.5,2.4,2.4,2.8
	C331.5,131.1,331.5,129.3,331.7,127.6z M152,250.4l-0.6,4.6c-0.7,5.3-0.9,10.6-0.5,16c0.2,2.2,1.4,4.2,2.7,6.1
	c0.5,0.8,1.4,1.2,2.5,1.1c2-1.4,2.4-1.8,2.5-3.5c0.1-0.9,0-1.8-0.1-2.7c-0.6-3.2-0.4-6.1-0.1-9.2c0.4-3.7,0.9-7.4,1.4-11.1
	c0.3-2.3,0.7-4.7,0.8-7.1c0.4-6.5,0.6-13.1,0.8-19.6c0-0.9,0-1.8-0.2-2.8c-0.3-1.8-1.3-3-3.5-3.3c-1.5,0.1-2.4,0.7-2.9,1.5
	c-0.8,1.3-1.7,2.5-2.3,3.8l-7.5,18.9c-0.2,0.5-0.1,1.2-1.3,1.1c-1-3.2-1.9-6.5-2.9-9.7c-1.1-3.3-2.2-6.7-4-9.6
	c-1.7-1.3-3.2-2.4-4.6-3.3c-2.5-0.7-4,0.2-4.7,1.8c-0.5,1-0.7,2.2-0.9,3.2c-0.3,1.9-0.4,3.8-0.6,5.8c-0.5,7.2-0.8,14.5,1,21.8
	c0.3,1.2,0.5,2.5,0.5,3.8c0.4,4.1,0.6,8.1,1,12.3c0.1,1.5,0.5,3.2,0.9,4.7c0.1,0.5,0.9,1,1.7,1.6c0.6-0.6,1.2-0.9,1.3-1.4
	c0.5-1.4,0.9-2.8,1.1-4.3c0.8-6.5,1.7-12.9,2.4-19.4c0.1-0.3,0.3-0.5,0.6-1c1,1.1,0.8,2.1,1,3.1c0.6,2.8,1.1,5.6,1.7,8.5
	c0.2,0.8,0.6,1.6,1,2.3c1.8,2.5,5.4,2.6,6.9,0.2c0.6-1,0.8-2.1,1.2-3.2l2.2-8.5c0.3-0.9,0.6-1.8,0.9-2.7
	C151.7,250.3,151.8,250.4,152,250.4z M180.9,262.2c0,2-0.2,3.9-0.1,5.8c0,1.4,0.1,2.8,0.5,4.1c0.5,1.8,2.1,2.8,3.8,2.8
	c1.6,0,2.9-1,3.2-2.5c0.3-1.1,0.5-2.2,0.5-3.4c0.1-4,0.1-8,0.1-12c-0.1-5.6-0.3-11.2-0.4-16.8c-0.1-4.4-0.8-8.8-2.1-13.1
	c-0.7-2.2-1.8-4.5-3.8-6.2c-3.5-3.1-7.9-3.1-10.6,0.1c-1.1,1.2-1.8,2.8-2.4,4.2c-1.6,3.8-2.1,7.9-2.3,12c-0.2,5.1-0.7,10.3-1.7,15.3
	c-0.7,4.3-1.4,8.5-1.3,12.9c0,4.2,0.4,8.5,0.7,12.7c0.6,0.3,1.1,0.5,1.5,0.8c1.9-0.5,2-1.9,2.4-3.1l3-12.9c0.3-1,0.6-1.9,0.8-3
	c2.7-0.2,5.1,0,7.9,0.1C180.8,261.1,180.9,261.6,180.9,262.2z M174.2,253.6c-0.2-0.5-0.4-0.8-0.4-1.2c0.6-5.7,1-11.3,1.7-17
	c0.3-2.3,0.8-4.5,1.3-6.7c0.1-0.5,0.5-1,0.9-1.8c0.6,1,1,1.5,1.2,2.2c1.1,4.5,2,8.8,1.7,13.4c-0.2,2.4,0.1,4.8,0.1,7.2
	c0,1,0,2,0.1,3.5C178.2,253.3,176.3,253.5,174.2,253.6z M206.3,275.3c4.9-2.4,7.9-6.1,9.7-10.5c4.2-9.7,5.6-19.8,2.9-30.5
	c-1.5-5.8-4.9-10.8-11.8-13.8c-6.1-2.7-11.5-1-12.7,4.4c-0.7,3.5-1.1,7-1.1,10.5c0,5.1,0.5,10.2,0.7,15.3v4.2c0,3.7-0.1,7.4,0,11.1
	c0,2.9,0.5,5.9,1.7,8.8c0.6,1.1,0.9,2.3,2.9,3.2C201.3,277.1,204,276.4,206.3,275.3z M208.1,233.6c2.5,3.9,4.2,8,4,12.4
	c-0.5,5.7-1.7,11.2-4.2,16.4c-0.8,1.5-1.9,2.9-3,4.3c-0.4,0.5-1.1,0.6-1.9,1.1c0-0.6-0.2-0.9-0.1-1.2c1-3,0.8-6.1,0.7-9.2
	c-0.1-5.8-0.1-11.5,0.1-17.2c0-2.2,0.6-4.5,1-6.7c0.1-0.7,0.6-1.3,0.9-1.9C207.1,231.8,207.6,232.7,208.1,233.6z M235.1,234
	c-0.1-2.5-0.6-4.8-0.2-7.3c1.4-0.2,2.5-0.2,3.6-0.4c1.1-0.2,2.2-0.4,3.2-0.8c1.2-0.4,1.9-1.3,1.8-2.5c0-1.2-0.7-2-2-2.6
	c-2.7-1.3-5.4-1.9-8.5-1c-1.1,0.3-2.4,0.5-3.6,0.8c-2.8,0.7-4.3,2.3-4.4,4.8c-0.1,1.7-0.1,3.4-0.1,5.1c0.4,10.7,0.9,21.3,0.3,31.9
	c-0.3,3.4,0.1,6.8,1.3,10.1c0.1,0.2,0,0.5,0,0.8c-0.3,0.5-0.6,1-0.8,1.6c-0.6,2.5,1.5,4.3,4.4,3.8c0.6-0.1,1.3-0.2,1.7-0.5
	c2.2-1.4,4.9-1.9,7.6-2.3c1.3-0.2,2.5-0.8,3.7-1.5c1.2-0.7,1.7-1.7,1.3-3c-0.5-1.3-1.6-2.1-3.1-2.3c-1.1-0.2-2.2,0-3.4-0.1
	c-0.7,0-1.4-0.2-1.9-0.2c0-6.5,0-12.7-0.1-18.9c1-1,2.3-1.3,3.7-1.5c2-0.4,3.2-1.6,4-2.9c1.1-1.6,0-3.6-2.2-4.1
	c-0.8-0.2-1.7-0.2-2.6-0.2c-1,0-2,0.2-3.1,0.2C234.7,238.6,235.2,236.3,235.1,234z M267.2,228.9c-1,6.3-0.5,12.6,0.3,18.9
	c0.5,4.7,1,9.4,1.4,14.1c0.4,4.3,1.4,8.5,3,12.6c0.4,0.9,1,1.8,1.6,2.8l3.1-0.2c0.3-1,0.7-1.8,0.8-2.7c0.3-5,0.8-10.1,0.7-15.1
	c-0.1-11.1-0.3-22.3,1.1-33.4c0.1-0.6,0.1-1.2,0-1.8c-0.3-2.4-1.2-3.2-4.6-3.9c-1.4,0.5-2.9,1-4.5,1.5
	C268.1,223.9,267.6,226.4,267.2,228.9z M305.4,252.2c-1.1-3.2-2.4-6.4-3.5-9.6c-1.9-6.1-3.9-12.1-6.7-17.9c-0.6-1.3-1.5-2.7-2.6-3.7
	c-2.5-2.3-6.1-2.1-7.4,0.5c-0.5,1-0.7,2.2-0.8,3.2l-0.3,16.8c-0.1,5.5-0.3,10.9-0.2,16.4c0.1,4.7,0.5,9.5,0.9,14.1
	c0.2,1.5,0.9,3.2,1.7,4.6c0.3,0.5,1.2,0.8,1.9,1.3c0.5-0.5,0.8-0.7,0.9-0.9c2.4-9.1,3.3-18.5,3.9-28.6c0.7,1,1.1,1.4,1.3,1.8
	c2.3,5.1,4.9,10.2,7,15.4c1.5,3.8,4,6.2,9.6,6.5c1.4-0.1,2.4-0.8,2.7-2c0.6-2.5,1.3-4.9,1.6-7.5c0.3-3.2,0.3-6.5,0.4-9.8
	c0.1-7.5,0.1-15,0.4-22.4c0.1-3.1-1.7-5.8-3.5-8.5c-0.2-0.4-0.9-0.5-1.3-0.8c-2.3,0.2-3,1.4-3.4,2.7c-0.5,1.5-0.8,3-0.8,4.5
	c-0.1,4.5,0,9,0.1,13.5c0,4,0.2,8-0.6,12.4C305.9,253.3,305.7,252.7,305.4,252.2z M120.8,203.8c1.4,0.2,3.1,0,4.1-0.9
	c0.6-0.6,0.6-0.7,1.5-0.7c7.7,0,15.4-0.1,23.1-0.1c6.6,0,13.2,0.5,19.8,0.3c0.6,0,0.9-0.6,0.9-1.2c0-0.6-0.3-1.2-0.9-1.2
	c-6.6-0.2-13.2,0.2-19.8,0.3c-4.2,0-8.3-0.1-12.5-0.1c-2.2,0-4.3,0-6.5,0.1c-1.5,0.1-3.5,0.5-4.9-0.1c-0.8-0.3-1.4-1.2-2.1-1.7
	c-0.6-0.5-1.2-1.2-2-1.3c-1-0.1-1.8,0.6-2.6,1.1c-0.9,0.5-1.7,1-2.6,1.5c-0.4,0.2-1.8,0.7-2,1.2c-0.7,1.5,2.9,1.9,3.6,2.1
	C118.9,203.3,119.8,203.7,120.8,203.8z M175.9,200.9c1.1-0.1,3.6,0.5,4-1c0.5-1.7-2.4-2.4-3.6-2.1c-2.7,0.8-3.5,4.5-1.9,6.6
	c0.7,0.9,1.3,1.3,2.4,1.3c1.9,0.1,4.1,0.1,5.9-0.8c0.6-0.3,3.4-2.4,3.8-1.4c0.2,0.6-0.3,1.3-0.4,1.8c-0.4,1.2-0.5,2.6-0.5,3.9
	c0,0.7,0.1,1.9,0.6,2.6c0.5,0.7,1.1,0.1,1.9-0.3c1.6-0.8,2.4-1.7,2.7-3.4c0.2-1.2,0.6-1.7,1.4-2.6c0.7-0.8,1.7-1.7,1.9-2.8
	c0.3-1.2-0.3-2.8-0.8-3.8c-0.4-0.8-0.4-1,0.5-1.6c0.5-0.4,1.1-0.6,1.7-0.9c1.4-0.5,2.8-0.9,4.3-0.9c3.2-0.1,8.2,2.7,8.7,6.1
	c0.1,0.5,0.1,0.9-0.1,1.4c-0.5,2.4-2.7,4.3-5.1,4.9c-1.7,0.3-4.1,0.6-5.7-0.4c-1.1-0.7-1.2-1.7-0.9-2.9c0.2-1.1,1-2,2.3-1.8
	c1.3,0.3,2.3,1.5,3.8,1.1c0.7-0.2,1-0.8,0.8-1.5c-0.5-1.4-3.1-1.5-4.2-1.3c-1.7,0.3-3.1,1.7-3.5,3.4c-0.4,1.7,0.4,3.3,1.7,4.4
	c1.5,1.4,3,1.6,5,1.7c2,0.1,3.8-0.4,5.6-1.3c0.8-0.4,1.9-0.9,2.3-1.8c0.2-0.4,0.4-0.8,0.6-1.3c0.8,2,2.3,3.7,4.7,4.4
	c2.9,0.9,5.8,0.3,8.6-0.7c1.3-0.5,2.8-1,4.1-1.7c1.1-0.7,1.8-1,2.5,0.3c0.5,0.8,1.2,1.5,1.9,2.1c1.2,0.9,2.7,1.2,4.2,1.3
	c1.3,0,2.4-0.9,3.7-1.1c0.5-0.1,1.8,0.3,2.1,0.1c0.5-0.3,0.1-1.2,0-1.7c-0.6-1.4-2.2-2.4-3.3-3.3c-0.9-0.7-1.8-1-2.9-1.2
	c-0.6-0.1-1.9,0.1-2-0.6c-0.1-0.9,1.4-1.7,2-2.2c2.3-2,5.6-3.6,8.7-3.5c1.3,0,2.5,0.4,3.1,1.6c0.6,1.1,0.1,1.9-1.1,2
	c-1.1,0.1-3.6-0.5-4,1c-0.5,1.7,2.4,2.4,3.6,2.1c2.7-0.8,3.5-4.5,1.9-6.6c-0.7-0.9-1.3-1.3-2.4-1.3c-1.9-0.1-4.1-0.1-5.9,0.8
	c-0.6,0.3-3.4,2.4-3.8,1.4c-0.2-0.6,0.3-1.3,0.4-1.8c0.4-1.2,0.5-2.6,0.5-3.9c0-0.7-0.1-1.9-0.6-2.5c-0.5-0.7-1.1-0.1-1.9,0.3
	c-1.6,0.8-2.4,1.7-2.7,3.4c-0.2,1.2-0.6,1.7-1.4,2.6c-0.7,0.8-1.7,1.7-1.9,2.8c-0.3,1.2,0.3,2.8,0.8,3.8c0.4,0.8,0.4,1-0.5,1.6
	c-0.5,0.4-1.1,0.6-1.7,0.9c-1.4,0.5-2.8,0.9-4.3,0.9c-3.2,0.1-8.2-2.7-8.7-6.1c-0.1-0.5-0.1-0.9,0.1-1.4c0.5-2.4,2.7-4.3,5.1-4.9
	c1.7-0.3,4.1-0.6,5.7,0.4c1.1,0.7,1.2,1.7,0.9,2.9c-0.2,1.1-1,2-2.3,1.8c-1.3-0.3-2.3-1.5-3.8-1.1c-0.7,0.2-1,0.8-0.8,1.5
	c0.5,1.4,3.1,1.5,4.2,1.3c1.7-0.3,3.1-1.7,3.5-3.4c0.4-1.7-0.4-3.3-1.7-4.4c-1.5-1.4-3-1.6-5-1.7c-2-0.1-3.8,0.4-5.6,1.3
	c-0.8,0.4-1.9,0.9-2.3,1.8c-0.2,0.4-0.4,0.8-0.6,1.3c-0.8-2-2.3-3.7-4.7-4.4c-2.9-0.9-5.8-0.3-8.6,0.7c-1.3,0.5-2.8,1-4.1,1.7
	c-1.1,0.7-1.8,1-2.5-0.3c-0.5-0.8-1.2-1.5-1.9-2.1c-1.2-0.9-2.7-1.2-4.2-1.3c-1.3,0-2.4,0.9-3.7,1.1c-0.5,0.1-1.8-0.3-2.1-0.1
	c-0.5,0.3-0.1,1.2,0,1.7c0.6,1.4,2.2,2.4,3.3,3.3c0.9,0.7,1.8,1,2.9,1.2c0.6,0.1,1.9-0.1,2,0.6c0.1,0.9-1.4,1.7-2,2.2
	c-2.3,2-5.6,3.6-8.7,3.5c-1.3,0-2.5-0.4-3.1-1.6C174.2,201.7,174.7,200.9,175.9,200.9z M304.5,199.5c-1-0.3-1.8-0.7-2.8-0.9
	c-1.4-0.2-3.1,0-4.1,0.9c-0.6,0.6-0.6,0.7-1.5,0.7c-7.7,0-15.4,0.1-23.1,0c-6.6,0-13.2-0.5-19.8-0.3c-0.6,0-0.9,0.6-0.9,1.2
	c0,0.6,0.3,1.2,0.9,1.2c6.6,0.2,13.2-0.2,19.8-0.3c4.2,0,8.3,0.1,12.5,0.1c2.2,0,4.3,0,6.5-0.1c1.5-0.1,3.5-0.5,4.9,0.1
	c0.8,0.3,1.4,1.2,2.1,1.7c0.6,0.5,1.2,1.2,2,1.3c1,0.1,1.8-0.6,2.6-1.1c0.9-0.5,1.7-1,2.6-1.5c0.4-0.2,1.8-0.7,2-1.2
	C308.7,200.1,305.2,199.7,304.5,199.5z M323.6,359.3c-2.2,3.1-3.9,6.9-6.4,9.8c-2.7,3.2-6.5,5.3-10.7,6.1c-5.5,1-12.5,0.1-18-0.8
	c-2.8-0.5-4.8,1.2-7.3,2.1c-3.5,1.3-7.3,1.9-10.9,0.6c-1.7-0.6-3.4-1.5-5-2.4c-1.3-0.8-2.7-1.9-4.4-1.8c-1.7,0-2.7,1.6-4.1,2.4
	c-1.8,1.1-3.7,2.1-5.6,2.8c-5.5,2-12.4,1-16.9-2.8c-2.3-1.9-4.3-5.1-5.3-8c-0.2-0.6-0.4-1.3-0.6-1.9c-0.4,1.3-0.8,2.5-1,3.8
	c-0.3,1.9-0.8,3.3-2.1,4.8c-0.9,1.1-2,2-3.3,2.8c-1.5,0.9-3.3,2-5.1,2.2c-0.9,0.1-1.9,0.1-2.8,0c-3.8-0.3-8.2-0.6-11.7-2.5
	c-0.9-0.5-1.8-1.1-2.7-1.7c-1.3-0.8-2.3-2-3.9-2c-1.9-0.1-2.7,1.1-4,2.1c-1.4,1.1-3.2,1.7-4.9,2.1c-3.3,0.8-7.1,1.2-10.3-0.1
	c-1.9-0.7-3.7-2-5.7-2.5c-2.3-0.5-4.1,0.4-6.3,1c-4.9,1.3-9.8,1.8-14.6,0c-3.2-1.3-6.5-2.8-9-5.2c-2.1-2-3.4-4.6-4.9-7.1
	c-0.7-1.2-1.8-2.3-2.4-3.5c-0.5-1.1-0.7-2.3-1.4-3.4c-2.4-4-6.8-5.8-11-7.2c-4.3-1.4-9.3-0.8-13.3,1.2c-1.5,0.8-2.9,1.7-4,3
	c-1.4,1.8-1.9,3.5-2.5,5.7c-0.4,1.6,0,3.9,1.2,5.2c1,1,2.6,1.7,3.9,2.3c2.7,1.2,9.2,0.4,8.6-3.7c-0.5-4.2-9.1,0.5-8.4-2.9
	c0.8-3.7,7.6-2.4,9.3-0.3c2.3,2.9,1.2,7.2-2.1,8.7c-4,1.8-9.4-0.3-12.1-3.5c-3.3-3.9-2.7-9.4,0.8-13c2.2-2.2,5-3.7,8-4.5
	c3.4-0.9,7-1,10.5-0.3c2.8,0.5,5.1,2.5,8,2.4c2.9-0.1,5.4-2.3,8.3-2.7c3-0.5,6-0.2,9,0.6c1.1,0.3,2.7,0.5,3.7,1.1
	c1,0.7,1.4,2,2.5,2.7c1.5,0.8,2-0.7,2.9-1.4c1.4-1,3.8-2.2,5.5-2.6c5.9-1.4,12.2,0.3,17.3,3.3c4.2,2.5,6.7,6.4,9.4,10.3
	c2.8,4,6.3,7,10.6,9.2c5.1,2.6,11.6,4.5,17.4,3.4c3.1-0.6,5.6-2,7.4-4.3c2.3-3.2,4-6.6,3.5-10.9c-0.4-3.7-3.4-6.7-6.9-7.9
	c-0.6-0.2-1.3-0.3-2-0.5c-3.2-0.7-7.3,0.6-8.8,3.7c-0.9,1.8-1.1,5.4,0.3,7.1c1.5,1.7,3.8,2.2,5.9,2c1.4-0.1,5-1.6,5.2,0.7
	c0.2,1.9-2.3,3-3.7,3.5c-2.5,0.9-7.1,0.6-9.1-1.3c-1.4-1.4-2-3.7-2.2-5.6c-0.4-4,1.3-8.5,5.1-10.3c5.6-2.5,13.1-1,16.1,4.6
	c0.7,1.3,1.2,2.7,1.6,4c0.3-1.3,0.9-2.7,1.6-4c3-5.6,10.6-7.2,16.1-4.6c6.5,2.8,7,14.1,0.9,17.5c-1.8,1-5.2,1.5-7.2,0.6
	c-2-0.9-4.2-3-3.5-5.4c0.4-1.4,1.7-2.4,3.1-1.7c1.4,0.7,2.2,2.1,3.6,2.8c3.2,1.6,4.7-1.3,5.2-4c0.3-1.8,0.3-4.2-0.5-5.8
	c-1.5-3.1-5.6-4.4-8.8-3.7c-0.7,0.1-1.4,0.2-2,0.5c-3.5,1.3-6.4,4.2-6.9,7.9c-0.5,4.2,1.2,7.7,3.5,10.9c1.7,2.4,4.2,3.7,7.4,4.3
	c5.8,1.2,12.2-0.7,17.4-3.4c4.3-2.2,7.8-5.2,10.6-9.2c2.8-3.9,5.2-7.8,9.4-10.3c5.1-3.1,11.4-4.7,17.3-3.3c1.7,0.4,4.1,1.6,5.5,2.6
	c1,0.7,1.5,2.3,2.9,1.4c1.1-0.6,1.4-2,2.5-2.7c0.9-0.6,2.6-0.8,3.7-1.1c2.9-0.7,6-1,9-0.6c2.9,0.5,5.4,2.6,8.3,2.7
	c2.9,0.1,5.3-1.8,8-2.4c3.5-0.7,7.1-0.6,10.5,0.3c3,0.8,5.8,2.3,8,4.5c3.5,3.5,4,9.1,0.8,13c-2.7,3.2-8.1,5.3-12.1,3.5
	c-4.3-2-4.5-8-0.3-10.2c2-0.9,6.1-2,7.1,0.9c0.4,1,0.7,2.8-0.6,3.2c-1.1,0.4-2.4-0.6-3.4-1.1c-1.7-0.7-3.8-0.6-4.1,1.7
	c-0.5,4.2,5.9,5,8.6,3.7c1.3-0.6,2.9-1.3,3.9-2.3c1.3-1.3,1.6-3.6,1.2-5.2c-0.6-2.1-1.1-3.9-2.5-5.7c-1.1-1.3-2.5-2.2-4-3
	c-4-2.1-9-2.6-13.3-1.2c-2.6,0.8-5.7,1.4-7.6,3.4C326.1,354.4,325.2,357.1,323.6,359.3z M163,367.5c-2.6-2.3-4.4-4.3-6.2-7.3
	c-3.6-5.9-9.6-12.1-17-12c-2.1,0-6.6,0.5-6.9,3.2c0,0.1,0,0.3,0,0.4c0.2,2.2,3.3,3.9,4.5,5.5c2.4,3.5,4.6,7.1,8,9.7
	c3.4,2.7,7.6,4.5,11.9,5.4c1.6,0.3,9.3,1.8,9.7-0.5C167.2,370.6,163.9,368.3,163,367.5z M188.2,367.5c-2-1.7-3.5-4.2-4.7-6.4
	c-0.2-0.3-0.3-0.6-0.5-0.9c-0.7-1.3-1.1-2.6-2.1-3.7c-1.2-1.3-2.3-2.5-3.7-3.6c-2.1-1.8-4.1-3.5-6.9-4.1c-3.2-0.7-6.7-0.8-9.9,0.2
	c-3.2,1-3.7,2.8-1.4,5.3c2.2,2.4,3.9,5.3,5.9,8c3.9,5.1,9.7,8.6,16,9.8c2.7,0.6,5.6,0.9,8.3,0.5
	C194.9,371.7,190.4,369.4,188.2,367.5z M292.3,362c2-2.6,3.6-5.5,5.9-8c2.2-2.4,1.8-4.3-1.4-5.3c-3.2-1-6.7-0.9-9.9-0.2
	c-2.8,0.6-4.8,2.3-6.9,4.1c-1.3,1.1-2.5,2.4-3.7,3.6c-1,1.1-1.5,2.4-2.1,3.7c-0.2,0.3-0.3,0.6-0.5,0.9c-1.2,2.3-2.8,4.7-4.7,6.4
	c-2.2,1.9-6.7,4.2-0.9,4.9c2.8,0.3,5.6,0.1,8.3-0.5C282.5,370.6,288.4,367.1,292.3,362z M324.2,351.8c0-0.2,0-0.3,0-0.4
	c-0.2-2.7-4.8-3.2-6.9-3.2c-7.4,0-13.5,6.1-17,12c-1.8,3-3.6,5-6.2,7.3c-0.9,0.8-4.2,3.1-3.9,4.5c0.4,2.3,8.1,0.9,9.7,0.5
	c4.3-0.9,8.4-2.8,11.9-5.4c3.4-2.6,5.6-6.2,8-9.7C320.8,355.6,324,354,324.2,351.8z"/>
</svg>
