<?xml version="1.0" encoding="utf-8"?>
<!-- Generator: Adobe Illustrator 18.0.0, SVG Export Plug-In . SVG Version: 6.00 Build 0)  -->
<!DOCTYPE svg PUBLIC "-//W3C//DTD SVG 1.1//EN" "http://www.w3.org/Graphics/SVG/1.1/DTD/svg11.dtd">
<svg version="1.1" id="Layer_1" xmlns="http://www.w3.org/2000/svg" xmlns:xlink="http://www.w3.org/1999/xlink" x="0px" y="0px"
	 viewBox="0 0 432 432" enable-background="new 0 0 432 432" xml:space="preserve">
<path fill="#6F91BD" d="M105.8,289.8c0.4,1.7,0.9,3.7,1.4,5.7c0.5,2.2,0.9,4.3,1.3,6.5c0.1,0.7,0.1,1.4,0.2,2.1c0,0.1,0,0.2-0.1,0.4
	c-0.1,0.2-0.3,0.3-0.6,0.3c-0.2,0-0.5-0.1-0.6-0.3c0,0,0-0.1,0-0.1c-0.4-1.4-0.8-2.8-1-4.2c-0.1-0.9-0.3-1.8-0.5-2.7
	c-0.3-1.7-0.7-3.4-1.1-5.1c-0.3,0.1-0.7,0.2-1.1,0.1c-0.4,0-0.7-0.1-1-0.2c-1-0.3-1.8-0.8-2.6-1.3c-0.8-0.5-1.5-1.2-2.2-1.8
	c-1.7-1.5-3.1-3.2-4.5-4.9c-1.6-2.1-3.1-4.2-4.1-6.5c-0.5-1.2-1-2.4-1.5-3.6c-0.5-1.4-0.9-2.7-1.4-4.1c0,0,0,0,0.1,0
	c-0.2-0.6-0.3-1.1-0.5-1.7c-0.3-0.9-0.6-1.8-0.8-2.7c-0.1-0.3-0.2-0.7-0.3-1c-0.5-1.6-1.1-3.3-1.6-4.9c-0.1-0.4-0.2-0.8-0.3-1.2
	c0-0.2,0-0.5,0-0.7c0.1-0.5,0.7-0.8,1.4-0.7c0.3,0.1,0.6,0.2,0.9,0.3c0.6,0.3,1.1,0.7,1.6,1c2.8,2.1,5.3,4.5,7.4,7
	c0.4,0.5,0.8,1.1,1.2,1.6c-0.7-1.4-1.5-2.7-2.3-4.1c-3.2-5.4-7.2-10.4-11.5-15.3c-0.5-0.5-1-1.1-1.4-1.6c-0.2-0.2-0.3-0.4-0.4-0.6
	c-0.1-0.2,0-0.4,0.2-0.6c0.3-0.1,0.5-0.1,0.8,0c0.3,0.2,0.5,0.4,0.7,0.6c1.2,1.3,2.4,2.5,3.6,3.9c3.1,3.5,5.9,7.2,8.3,11
	c1.8,2.8,3.4,5.6,4.9,8.5c0.8,1.7,1.6,3.4,2.3,5.1c0.8,1.9,1.6,3.8,2.3,5.8c0.1,0.3,0.2,0.5,0.3,0.8c0.3,0.8,0.6,1.6,0.9,2.5
	c0.4,1.3,0.8,2.7,1.2,4c0,0.1,0,0.1,0,0.2C105.3,288.2,105.6,289,105.8,289.8z M78.8,239.5c-0.8-0.7-1.8-1.1-3-1.2
	c-1.3-0.2-2.6-0.5-3.8-0.9c-0.6-0.2-1.1-0.1-1.4,0.4c-0.1,0.1-0.1,0.2-0.2,0.3c-0.5,1.4-0.4,2.7,0.7,3.9c0.1,0.1,0.1,0.2,0.2,0.3
	c-0.1,0-0.2,0-0.3,0c-1-0.1-1.9,0.1-2.9,0.2c-0.7,0.1-1,0.5-0.9,1c0.1,0.2,0.2,0.4,0.3,0.6c0.3,0.4,0.6,0.8,0.9,1.3
	c1.6,2,3.7,3.4,6.6,4.1c1.4,0.4,2.7,0.5,4.2,0.4c2.2-0.2,3.9-0.9,5.2-2.3c0.9-1,1.2-2.1,1.2-3.3c0-1.3-0.4-2.5-1-3.7
	c-0.7-1.3-1.6-2.5-2.6-3.7c-0.1-0.1-0.1-0.2-0.2-0.2c-0.4-0.3-1-0.4-1.5,0c-0.2,0.1-0.4,0.3-0.5,0.5c-0.4,0.5-0.6,1-0.7,1.5
	C79.1,238.8,79,239.2,78.8,239.5C78.9,239.5,78.9,239.5,78.8,239.5z M135.1,258.6c0-0.2,0-0.4,0-0.5c-0.2-0.5-0.8-0.7-1.4-0.6
	c-0.2,0.1-0.4,0.1-0.5,0.2c-0.4,0.2-0.9,0.4-1.3,0.7c-1.5,0.8-2.9,1.6-4.1,2.6c-2.5,1.9-4.8,3.9-6.9,6c-0.9,0.9-1.8,1.9-2.6,2.9
	c0.4-0.9,0.8-1.8,1.1-2.7c1.1-2.4,2.2-4.8,3.3-7.2c1.5-3.1,3.2-6.1,4.9-9.1c0.5-0.9,1.1-1.8,1.7-2.6c0.1-0.2,0.2-0.4,0.3-0.6
	c0.1-0.2,0-0.4-0.3-0.5c-0.3-0.1-0.5-0.1-0.8,0.1c-0.2,0.1-0.4,0.3-0.5,0.4c-0.3,0.4-0.7,0.8-0.9,1.2c-0.9,1.5-1.8,2.9-2.6,4.4
	c-1.4,2.4-2.7,4.9-3.8,7.4c-0.7,1.4-1.3,2.8-1.9,4.2c-0.6,1.2-1.1,2.5-1.6,3.7c-0.5,1.3-1.1,2.6-1.6,3.9c-0.5,1.4-7.5,24.5-7.9,27.4
	c-0.2,1.5-0.5,2.9-0.4,4.4c0,0.3,0.4,0.6,0.8,0.5c0.2-0.1,0.4-0.2,0.5-0.4c0.2-0.4,0.3-0.8,0.4-1.2c0.2-0.9,0.2-1.8,0.4-2.8
	c0.3-1.6,0.5-3.2,0.9-4.9c0.1,0,0.2,0,0.4,0c0.2,0,0.4-0.1,0.6-0.2c0.3-0.1,0.6-0.3,0.8-0.4c1.7-1.1,3.3-2.3,4.7-3.6
	c1.8-1.7,3.3-3.5,4.6-5.4c0.9-1.3,1.7-2.6,2.4-3.7c0.9-1.6,1.7-3,2.4-4.4c0.3-0.6,0.7-1.2,1-1.8c0.6-1.2,1.2-2.3,1.7-3.5
	c0.4-0.7,0.7-1.4,1.1-2.2c0.5-1.1,1-2.1,1.6-3.2c0.4-0.8,0.8-1.6,1.2-2.4c0.7-1.3,1.3-2.6,2-3.9
	C134.8,260.2,135.1,259.4,135.1,258.6z M127.3,242.3c-0.1-0.2-0.1-0.3-0.2-0.5c-0.1-0.4-0.3-0.8-0.4-1.2c-0.3-0.6-0.7-1.1-1.2-1.5
	c-0.2-0.2-0.5-0.3-0.7-0.5c-0.8-0.4-1.7-0.2-1.9,0.6c0,0.2-0.1,0.3-0.1,0.5c-0.2,0.6-0.3,1.2-0.5,1.8c-0.3,0.9-0.4,1.8-0.5,2.7
	c-0.1,1.4,0.3,2.8,1.1,4.1c0.6,1,1.5,2,2.7,2.7c2.1,1.3,5.2,1.7,8,0.6c0.8-0.3,1.6-0.7,2.3-1.2c1.6-1,3-2.2,4.4-3.4
	c0.2-0.2,0.4-0.3,0.5-0.5c0.1-0.1,0.2-0.3,0.3-0.5c0.1-0.5-0.1-0.8-0.7-0.9c-0.3-0.1-0.6-0.1-0.9-0.1c-0.7-0.1-1.5-0.2-2.2-0.2
	c-0.4,0-0.7,0-1.1,0c0-0.3,0.1-0.5,0.1-0.8c0.1-0.7,0-1.3-0.4-1.9c-0.7-1.1-1.8-1.7-3.4-1.7c-0.9,0-1.7,0.2-2.5,0.5
	C128.8,241.2,128,241.6,127.3,242.3C127.3,242.3,127.3,242.3,127.3,242.3z M123.5,252.7c-0.2-0.6-0.8-0.9-1.6-0.6
	c-0.4,0.1-0.8,0.3-1.1,0.6c-0.8,0.5-1.4,1.2-2.1,1.8c-1.3,1.3-2.5,2.6-3.5,3.9c-1.1,1.4-2.1,2.8-3.2,4.2c-0.5,0.6-0.9,1.3-1.1,1.6
	c-0.8,1.3-1.5,2.5-2.1,3.8c-0.1-2.2-0.2-4-0.2-5.9c-0.1-1.3-0.2-2.7-0.3-4c-0.1-1.1-0.1-2.3-0.2-3.4c-0.1-1.6-0.2-3.1-0.3-4.7
	c-0.1-1.3-0.1-2.5-0.2-3.8c0-0.4-0.1-0.7-0.1-1.1c0-0.1-0.1-0.3-0.2-0.4c-0.3-0.4-0.8-0.4-1.1,0c-0.1,0.1-0.2,0.2-0.2,0.4
	c0,0.3-0.1,0.6,0,0.9c0,0.7,0.1,1.4,0.1,2.2c0,0.9,0.1,1.8,0.1,2.8c0.1,2,0.3,4,0.4,6c0.1,1.3,0.2,2.6,0.3,4
	c0.1,1.9,0.2,3.9,0.3,5.8c0,0.7,0,1.5,0,2.2c-0.5-1.6-1.2-3.2-2-4.9c-0.2-0.3-0.5-1-0.9-1.7c-0.9-1.5-1.8-2.9-2.7-4.4
	c-0.9-1.4-1.9-2.8-3.1-4.1c-0.6-0.7-1.1-1.3-1.9-1.9c-0.3-0.2-0.7-0.5-1-0.6c-0.7-0.3-1.4-0.1-1.6,0.5c-0.1,0.1-0.1,0.3-0.1,0.4
	c0,0.3-0.1,0.6-0.1,0.8c-0.1,2.2-0.2,4.3-0.3,6.5c-0.1,2.4-0.2,4.9,0,7.3c0.2,2.5,0.8,4.9,1.9,7.3c0.5,1.1,1.1,2.2,1.9,3.3
	c1.8,2.5,3.9,4.8,6.2,7c0.6,0.6,1.3,1.1,2.1,1.6c0,0,0.1,0,0.1,0c0,0.2-0.1,0.3-0.1,0.5c-0.4,2.4-1,4.9-1.6,7.3
	c-0.4,1.7-0.8,3.4-1.2,5c-0.1,0.3-0.1,0.7,0,1.1c0,0.3,0.2,0.4,0.5,0.5c0.3,0,0.5-0.1,0.7-0.3c0.1-0.1,0.2-0.2,0.2-0.4
	c0.1-0.4,0.2-0.7,0.3-1.1c0.6-2.6,1.3-5.1,1.9-7.7c0.4-1.6,0.7-3.1,0.9-4.7c0.2-0.1,0.4-0.1,0.6-0.2c0.9-0.4,1.6-0.9,2.3-1.5
	c2.6-2,5-4.2,7-6.6c0.9-1,1.6-2,2.3-3.1c1.3-2.3,2.2-4.7,2.7-7.1c0.5-2.4,0.7-4.9,0.9-7.3c0.2-2.1,0.3-4.3,0.5-6.4
	c0-0.3,0-0.6,0-0.8C123.6,253,123.6,252.8,123.5,252.7z M104.3,234.7c-0.3-0.5-1.1-0.5-1.5-0.1c-0.1,0.1-0.1,0.1-0.2,0.2
	c-0.2,0.4-0.4,0.8-0.5,1.2c-0.2,0.6-0.4,1.3-0.6,1.9c-0.4,1.5-0.7,2.9-0.6,4.4c0.1,1.2,0.5,2.4,1.3,3.5c0.6,0.8,1.4,1.5,2.5,2.1
	c1,0.5,2.1,0.7,3.3,0.5c1.1-0.2,2.1-0.6,2.9-1.2c0.8-0.6,1.3-1.4,1.7-2.2c0.6-1.3,0.7-2.6,0.5-4c-0.2-1.8-0.9-3.5-2.1-5.1
	c-0.5-0.6-1-1.2-1.5-1.8c-0.5-0.5-1.2-0.5-1.7,0c-0.2,0.2-0.3,0.4-0.4,0.6c-0.1,0.1-0.1,0.2-0.2,0.3c-0.3-0.3-0.5-0.5-0.7-0.7
	c-0.5-0.5-1.2-0.4-1.6,0.1c-0.1,0.2-0.3,0.4-0.4,0.6C104.4,235,104.4,234.8,104.3,234.7z M108.1,279.4c-0.5,0-1,0-1.5,0
	c-1.6,0-3.3,0.1-4.9,0.2c-1.2,0-2.4,0.1-3.5,0.1c-1.8,0.1-3.6,0.1-5.4,0.3c-1.1,0.1-2.2,0.2-3.3,0.3c-0.6,0.1-1.2,0.2-1.8,0.5
	c-0.8,0.4-1.1,1.1-0.6,1.7c0.2,0.3,0.5,0.6,0.9,0.8c0.4,0.3,0.8,0.5,1.2,0.8c1.8,1,3.5,2.1,5.1,3.3c0.4,0.3,0.8,0.6,1.1,0.9
	c2.1,2.3,3.2,4.8,3.3,7.5c0,1.7-0.3,3.4-0.8,5.1c-0.9,2.7-2.2,5.2-4.2,7.5c-0.9,1-1.9,2.1-2.8,3.1c-1.5,1.7-3,3.4-4.2,5.3
	c-1.7,2.7-2.5,5.6-2,8.6c0.5,2.7,1.8,5.2,4,7.4c2.2,2.2,5,3.7,8.5,4.5c2.1,0.5,4.2,0.8,6.3,1.1c3.1,0.3,6.2,0.4,9.3,0.4
	c1.2,0,2.4-0.1,3.5-0.1c1.6-0.1,3.1-0.2,4.6-0.5c3.4-0.7,6.1-2.1,7.9-4.3c0.8-0.9,1.4-1.9,2-2.9c1-2.1,1.5-4.2,1.6-6.4
	c0.1-1.2,0-2.3-0.2-3.5c-0.5-2.9-1.9-5.5-4.2-7.9c-1.2-1.2-2.6-2.3-4-3.4c-1.1-0.9-2.3-1.8-3.4-2.7c-0.4-0.3-0.7-0.7-1.1-1.1
	c-0.9-1.1-1.4-2.3-1.7-3.6c-0.4-1.7-0.5-3.5-0.5-5.3c0-1,0.2-2,0.5-2.9c0.6-1.9,1.7-3.6,3.1-5.2c1-1.1,2.2-2.2,3.3-3.3
	c0.7-0.7,1.4-1.4,2-2c0.4-0.5,0.8-1,1-1.5c0.2-0.7-0.1-1.4-1-1.7c-0.3-0.1-0.6-0.2-0.9-0.3c-1-0.3-2.1-0.4-3.2-0.4
	c-2.2-0.1-4.3-0.2-6.5-0.3C113.2,279.3,110.6,279.4,108.1,279.4L108.1,279.4z M352.7,289.8c-0.4,1.7-0.9,3.7-1.4,5.7
	c-0.5,2.2-0.9,4.3-1.3,6.5c-0.1,0.7-0.1,1.4-0.2,2.1c0,0.1,0,0.2,0.1,0.4c0.1,0.2,0.3,0.3,0.6,0.3c0.2,0,0.5-0.1,0.6-0.3
	c0,0,0-0.1,0-0.1c0.4-1.4,0.8-2.8,1-4.2c0.1-0.9,0.3-1.8,0.5-2.7c0.3-1.7,0.7-3.4,1.1-5.1c0.3,0.1,0.7,0.2,1.1,0.1
	c0.4,0,0.7-0.1,1-0.2c1-0.3,1.8-0.8,2.6-1.3c0.8-0.5,1.5-1.2,2.2-1.8c1.7-1.5,3.1-3.2,4.5-4.9c1.6-2.1,3.1-4.2,4.1-6.5
	c0.5-1.2,1-2.4,1.5-3.6c0.5-1.4,0.9-2.7,1.4-4.1c0,0,0,0-0.1,0c0.2-0.6,0.3-1.1,0.5-1.7c0.3-0.9,0.6-1.8,0.8-2.7
	c0.1-0.3,0.2-0.7,0.3-1c0.5-1.6,1.1-3.3,1.6-4.9c0.1-0.4,0.2-0.8,0.3-1.2c0-0.2,0-0.5,0-0.7c-0.1-0.5-0.7-0.8-1.4-0.7
	c-0.3,0.1-0.6,0.2-0.9,0.3c-0.6,0.3-1.1,0.7-1.6,1c-2.8,2.1-5.3,4.5-7.4,7c-0.4,0.5-0.8,1.1-1.2,1.6c0.7-1.4,1.5-2.7,2.3-4.1
	c3.2-5.4,7.2-10.4,11.5-15.3c0.5-0.5,1-1.1,1.4-1.6c0.2-0.2,0.3-0.4,0.4-0.6c0.1-0.2,0-0.4-0.2-0.6c-0.3-0.1-0.5-0.1-0.8,0
	c-0.3,0.2-0.5,0.4-0.7,0.6c-1.2,1.3-2.4,2.5-3.6,3.9c-3.1,3.5-5.9,7.2-8.3,11c-1.8,2.8-3.4,5.6-4.9,8.5c-0.8,1.7-1.6,3.4-2.3,5.1
	c-0.8,1.9-1.6,3.8-2.3,5.8c-0.1,0.3-0.2,0.5-0.3,0.8c-0.3,0.8-0.6,1.6-0.9,2.5c-0.4,1.3-0.8,2.7-1.2,4c0,0.1,0,0.1,0,0.2
	C353.2,288.2,353,289,352.7,289.8z M379.6,239.5c-0.1-0.4-0.2-0.7-0.3-1c-0.2-0.5-0.4-1.1-0.7-1.5c-0.1-0.2-0.3-0.4-0.5-0.5
	c-0.4-0.3-1-0.3-1.5,0c-0.1,0.1-0.2,0.1-0.2,0.2c-0.9,1.2-1.9,2.4-2.6,3.7c-0.6,1.2-1,2.4-1,3.7c0,1.2,0.3,2.3,1.2,3.3
	c1.2,1.3,3,2.1,5.2,2.3c1.4,0.1,2.8-0.1,4.2-0.4c2.9-0.8,5.1-2.2,6.6-4.1c0.3-0.4,0.6-0.8,0.9-1.3c0.1-0.2,0.2-0.4,0.3-0.6
	c0.2-0.5-0.2-0.9-0.9-1c-1-0.1-1.9-0.2-2.9-0.2c-0.1,0-0.2,0-0.3,0c0.1-0.1,0.1-0.2,0.2-0.3c1.1-1.2,1.2-2.5,0.7-3.9
	c0-0.1-0.1-0.2-0.2-0.3c-0.3-0.4-0.8-0.6-1.4-0.4c-1.2,0.4-2.5,0.7-3.8,0.9C381.5,238.4,380.5,238.8,379.6,239.5
	C379.7,239.5,379.7,239.5,379.6,239.5z M324.2,261c0.7,1.3,1.3,2.6,2,3.9c0.4,0.8,0.8,1.6,1.2,2.4c0.5,1,1,2.1,1.6,3.2
	c0.4,0.7,0.7,1.4,1.1,2.2c0.6,1.2,1.2,2.3,1.7,3.5c0.3,0.6,0.6,1.2,1,1.8c0.8,1.4,1.5,2.8,2.4,4.4c0.7,1.1,1.5,2.4,2.4,3.7
	c1.3,1.9,2.8,3.7,4.6,5.4c1.4,1.3,3,2.5,4.7,3.6c0.3,0.2,0.5,0.3,0.8,0.4c0.2,0.1,0.4,0.1,0.6,0.2c0.1,0,0.2,0,0.4,0
	c0.3,1.6,0.6,3.2,0.9,4.9c0.2,0.9,0.2,1.8,0.4,2.8c0.1,0.4,0.2,0.8,0.4,1.2c0.1,0.2,0.2,0.3,0.5,0.4c0.4,0.1,0.8-0.1,0.8-0.5
	c0.1-1.5-0.2-2.9-0.4-4.4c-0.4-2.9-7.4-26-7.9-27.4c-0.5-1.3-1-2.6-1.6-3.9c-0.5-1.2-1.1-2.5-1.6-3.7c-0.6-1.4-1.3-2.8-1.9-4.2
	c-1.2-2.5-2.5-5-3.8-7.4c-0.8-1.5-1.7-2.9-2.6-4.4c-0.3-0.4-0.6-0.8-0.9-1.2c-0.1-0.2-0.3-0.3-0.5-0.4c-0.2-0.1-0.5-0.2-0.8-0.1
	c-0.3,0.1-0.4,0.3-0.3,0.5c0.1,0.2,0.1,0.4,0.3,0.6c0.6,0.9,1.2,1.8,1.7,2.6c1.8,3,3.5,6,4.9,9.1c1.1,2.4,2.2,4.8,3.3,7.2
	c0.4,0.9,0.8,1.8,1.1,2.7c-0.8-1-1.6-2-2.6-2.9c-2.1-2.1-4.4-4.1-6.9-6c-1.3-1-2.7-1.8-4.1-2.6c-0.4-0.2-0.9-0.4-1.3-0.7
	c-0.2-0.1-0.3-0.2-0.5-0.2c-0.6-0.2-1.3,0-1.4,0.6c-0.1,0.2-0.1,0.4,0,0.5C323.4,259.4,323.7,260.2,324.2,261z M331.2,242.3
	c-0.6-0.7-1.5-1.1-2.4-1.5c-0.8-0.3-1.6-0.5-2.5-0.5c-1.6,0-2.7,0.7-3.4,1.7c-0.4,0.6-0.5,1.3-0.4,1.9c0,0.2,0.1,0.5,0.1,0.8
	c-0.4,0-0.7,0-1.1,0c-0.8,0-1.5,0.1-2.2,0.2c-0.3,0.1-0.6,0.1-0.9,0.1c-0.6,0.1-0.9,0.4-0.7,0.9c0.1,0.2,0.1,0.3,0.3,0.5
	c0.1,0.2,0.3,0.4,0.5,0.5c1.4,1.2,2.8,2.3,4.4,3.4c0.7,0.4,1.5,0.9,2.3,1.2c2.8,1.1,5.9,0.7,8-0.6c1.2-0.7,2.1-1.6,2.7-2.7
	c0.8-1.3,1.1-2.7,1.1-4.1c0-0.9-0.2-1.8-0.5-2.7c-0.2-0.6-0.3-1.2-0.5-1.8c0-0.2-0.1-0.3-0.1-0.5c-0.1-0.8-1-1-1.9-0.6
	c-0.3,0.1-0.5,0.3-0.7,0.5c-0.5,0.4-1,1-1.2,1.5c-0.2,0.4-0.3,0.8-0.4,1.2C331.4,242,331.3,242.1,331.2,242.3
	C331.2,242.3,331.2,242.3,331.2,242.3z M334.9,253.1c0,0.3,0,0.6,0,0.8c0.2,2.1,0.3,4.3,0.5,6.4c0.2,2.4,0.4,4.9,0.9,7.3
	c0.5,2.5,1.4,4.8,2.7,7.1c0.6,1.1,1.4,2.1,2.3,3.1c2,2.4,4.4,4.5,7,6.6c0.7,0.5,1.4,1,2.3,1.5c0.2,0.1,0.4,0.2,0.6,0.2
	c0.3,1.6,0.6,3.1,0.9,4.7c0.6,2.6,1.3,5.2,1.9,7.7c0.1,0.4,0.2,0.7,0.3,1.1c0,0.1,0.1,0.2,0.2,0.4c0.2,0.2,0.4,0.3,0.7,0.3
	c0.3,0,0.5-0.2,0.5-0.5c0-0.4,0-0.7,0-1.1c-0.4-1.7-0.8-3.4-1.2-5c-0.6-2.4-1.2-4.9-1.6-7.3c0-0.2-0.1-0.3-0.1-0.5c0,0,0.1,0,0.1,0
	c0.8-0.5,1.5-1,2.1-1.6c2.3-2.2,4.4-4.5,6.2-7c0.7-1.1,1.4-2.1,1.9-3.3c1.1-2.4,1.6-4.8,1.9-7.3c0.2-2.4,0.2-4.9,0-7.3
	c-0.1-2.2-0.2-4.3-0.3-6.5c0-0.3,0-0.6-0.1-0.8c0-0.1-0.1-0.3-0.1-0.4c-0.2-0.6-0.9-0.8-1.6-0.5c-0.4,0.2-0.7,0.4-1,0.6
	c-0.7,0.6-1.3,1.3-1.9,1.9c-1.1,1.3-2.2,2.7-3.1,4.1c-0.9,1.4-1.8,2.9-2.7,4.4c-0.4,0.7-0.7,1.4-0.9,1.7c-0.8,1.7-1.5,3.3-2,4.9
	c0-0.7,0-1.5,0-2.2c0.1-1.9,0.2-3.9,0.3-5.8c0.1-1.3,0.2-2.7,0.3-4c0.1-2,0.3-4,0.4-6c0.1-0.9,0.1-1.8,0.1-2.8
	c0-0.7,0.1-1.4,0.1-2.2c0-0.3,0-0.6,0-0.9c0-0.1-0.1-0.3-0.2-0.4c-0.3-0.4-0.9-0.4-1.1,0c-0.1,0.1-0.1,0.3-0.2,0.4
	c-0.1,0.4-0.1,0.7-0.1,1.1c-0.1,1.3-0.1,2.5-0.2,3.8c-0.1,1.6-0.2,3.1-0.3,4.7c-0.1,1.1-0.1,2.3-0.2,3.4c-0.1,1.3-0.2,2.7-0.3,4
	c-0.1,1.9-0.2,3.7-0.2,5.9c-0.6-1.2-1.3-2.5-2.1-3.8c-0.2-0.3-0.6-1-1.1-1.6c-1-1.4-2.1-2.8-3.2-4.2c-1.1-1.4-2.3-2.7-3.5-3.9
	c-0.6-0.6-1.3-1.3-2.1-1.8c-0.3-0.2-0.7-0.4-1.1-0.6c-0.7-0.3-1.4,0-1.6,0.6C335,252.8,334.9,253,334.9,253.1z M354,235.2
	c-0.2-0.3-0.3-0.5-0.4-0.6c-0.4-0.5-1.1-0.5-1.6-0.1c-0.2,0.2-0.5,0.4-0.7,0.7c-0.1-0.1-0.1-0.2-0.2-0.3c-0.1-0.2-0.2-0.4-0.4-0.6
	c-0.5-0.5-1.2-0.5-1.7,0c-0.5,0.6-1,1.2-1.5,1.8c-1.2,1.6-1.9,3.3-2.1,5.1c-0.2,1.4,0,2.7,0.5,4c0.4,0.8,0.9,1.5,1.7,2.2
	c0.8,0.6,1.7,1.1,2.9,1.2c1.2,0.2,2.3,0,3.3-0.5c1.1-0.5,1.9-1.2,2.5-2.1c0.8-1.1,1.2-2.3,1.3-3.5c0.1-1.5-0.2-3-0.6-4.4
	c-0.2-0.7-0.4-1.3-0.6-1.9c-0.1-0.4-0.3-0.8-0.5-1.2c0-0.1-0.1-0.2-0.2-0.2c-0.4-0.4-1.2-0.4-1.5,0.1
	C354.2,234.8,354.1,235,354,235.2z M350.5,279.4c-2.6,0-5.1,0-7.7,0c-2.2,0-4.3,0.1-6.5,0.3c-1.1,0.1-2.2,0.2-3.2,0.4
	c-0.3,0.1-0.6,0.2-0.9,0.3c-0.9,0.4-1.3,1-1,1.7c0.2,0.6,0.5,1.1,1,1.5c0.7,0.7,1.3,1.4,2,2c1.1,1.1,2.3,2.1,3.3,3.3
	c1.4,1.6,2.5,3.3,3.1,5.2c0.3,1,0.5,1.9,0.5,2.9c0.1,1.8-0.1,3.5-0.5,5.3c-0.3,1.3-0.8,2.5-1.7,3.6c-0.3,0.4-0.7,0.8-1.1,1.1
	c-1.1,0.9-2.2,1.8-3.4,2.7c-1.4,1.1-2.8,2.2-4,3.4c-2.3,2.4-3.7,5-4.2,7.9c-0.2,1.2-0.3,2.3-0.2,3.5c0.1,2.2,0.6,4.4,1.6,6.4
	c0.5,1,1.2,2,2,2.9c1.9,2.2,4.6,3.7,7.9,4.3c1.5,0.3,3.1,0.5,4.6,0.5c1.2,0,2.4,0.1,3.5,0.1c3.1,0,6.2-0.1,9.3-0.4
	c2.1-0.2,4.2-0.6,6.3-1.1c3.5-0.8,6.3-2.4,8.5-4.5c2.2-2.2,3.5-4.7,4-7.4c0.5-3-0.3-5.9-2-8.6c-1.2-1.9-2.6-3.6-4.2-5.3
	c-0.9-1-1.9-2.1-2.8-3.1c-2-2.3-3.4-4.8-4.2-7.5c-0.5-1.7-0.8-3.4-0.8-5.1c0.1-2.8,1.2-5.3,3.3-7.5c0.3-0.3,0.7-0.6,1.1-0.9
	c1.6-1.2,3.3-2.2,5.1-3.3c0.4-0.2,0.9-0.5,1.2-0.8c0.3-0.2,0.6-0.5,0.9-0.8c0.5-0.7,0.3-1.3-0.6-1.7c-0.5-0.3-1.2-0.4-1.8-0.5
	c-1.1-0.1-2.2-0.3-3.3-0.3c-1.8-0.1-3.6-0.2-5.4-0.3c-1.2,0-2.4-0.1-3.5-0.1c-1.6-0.1-3.3-0.1-4.9-0.2
	C351.5,279.4,351,279.4,350.5,279.4L350.5,279.4z M51,45.1c0.4-1.6,0-3.1-0.6-4.7c-0.2-0.6-0.6-0.7-1.4-0.6c-2,0.4-3.7,1.2-5.4,2
	c-1.1,0.5-2.1,1.1-3.1,1.6c-1.6,0.8-3,1.9-4.3,3c0,0-0.1,0.1-0.1,0.1c-0.1,0.2-0.1,0.4,0.1,0.6c0.2,0.1,0.4,0.2,0.6,0.4
	c1.2,0.7,2.5,1,4,1.4c1.8,0.5,3.8,0.5,5.7,0C48.7,48.6,50.4,47.6,51,45.1z M68.6,62.9c-0.4-0.1-0.8-0.3-1.4-0.8
	c-11.3-8.5-14.5-13.2-16-15.2c-0.8,1.8-2.3,2.6-4.1,3c-0.9,0.2-1.7,0.3-2.6,0.3c0.2,0.1,0.4,0.3,0.5,0.4
	c3.9,3.4,18.5,16.5,22.7,17.9C68.1,66.4,68.4,64.5,68.6,62.9z M95.8,63.3c-20.2-2.2-23.6-9.8-24.8-8c-0.8,1.1-1,6-3,16.5
	c-0.6,3-1.2,6-1.8,9c-0.2,0.9-0.2,1.8-0.3,2.8c-0.2,1.3,0.6,2.3,1.9,3.1c1,0.6,2,1.2,3,1.6c2.9,1.3,5.9,2.3,9,3.1
	c2.8,0.8,5.7,1.2,8.6,1.5c6.2,0.7,8.6,0.9,10.5-1.1c2.4-2.6,3.1-7.7,4.7-14.4c0,0,0.3-1.7,0.4-1.7C108.3,57,109.2,64.8,95.8,63.3z
	 M96.1,62.3c8.2,0.9,9.6-1.1,10.9-0.4c-0.1-0.9-0.1-0.7-0.2-1.5c-0.3-2.2-0.5-4.4-0.8-6.7c-0.2-1.5-0.6-3-1.4-4.5
	c-0.1-0.1-0.1-0.2-0.2-0.3c-2.8,0.9-7.7,0.8-13-0.4c-4.9-1.1-9.1-3-11.4-4.8c-1.9,1.4-3,2.8-5.7,6.5c-0.9,1.3-1.2,1.6-2.1,2.9
	c-0.2,0.2-0.7,1-0.7,1.2C72.5,53.4,74.9,60,96.1,62.3z M84.9,45.6c4.4-10,16.3-8,14,3c4.1,0.1,4.1-0.1,4.7-0.2
	c2.6-12.8-16.5-18.7-22.5-5.3C81.5,43.9,84,45.2,84.9,45.6z M118.8,56c-5.4-3-9.5-2.4-11.4-1.4c0.2,1.6,0.4,3.1,0.5,4.7
	c9.5-2.8,17.7,7.8-3.2,19.3c-0.6,2.5-1,4.7-1.5,6.7c5.8-2.7,10.3-4.8,14.6-9C123.9,70.3,127.1,60.6,118.8,56z M384.4,49.1
	c1.9,0.4,3.9,0.4,5.7,0c1.5-0.4,2.8-0.8,4-1.4c0.2-0.1,0.4-0.2,0.6-0.4c0.3-0.2,0.3-0.4,0.1-0.6c0,0-0.1-0.1-0.1-0.1
	c-1.3-1.1-2.6-2.2-4.3-3c-1-0.5-2-1.1-3.1-1.6c-1.7-0.8-3.4-1.6-5.4-2c-0.7-0.2-1.1,0-1.4,0.6c-0.6,1.6-1,3.1-0.6,4.7
	C380.7,47.6,382.4,48.6,384.4,49.1z M363.3,68.6c4.3-1.5,18.9-14.5,22.7-17.9c0.2-0.1,0.3-0.3,0.5-0.4c-0.9,0-1.7-0.1-2.6-0.3
	c-1.8-0.4-3.3-1.2-4.1-3c-1.5,2-4.7,6.7-16,15.2c-0.6,0.5-1.1,0.7-1.4,0.8C362.7,64.5,363,66.4,363.3,68.6z M327.1,75.8
	c0,0,0.3,1.7,0.4,1.7c1.5,6.7,2.2,11.8,4.7,14.4c1.9,2,4.3,1.8,10.5,1.1c2.9-0.3,5.8-0.7,8.6-1.5c3.1-0.9,6.1-1.8,9-3.1
	c1.1-0.5,2-1.1,3-1.6c1.4-0.8,2.1-1.8,1.9-3.1c-0.1-0.9-0.1-1.9-0.3-2.8c-0.6-3-1.3-6-1.8-9c-2-10.5-2.2-15.4-3-16.5
	c-1.2-1.8-4.6,5.8-24.8,8C321.8,64.8,322.8,57,327.1,75.8z M359.7,54.2c-0.1-0.2-0.6-1-0.7-1.2c-0.9-1.3-1.2-1.6-2.1-2.9
	c-2.7-3.7-3.8-5.2-5.7-6.5c-2.3,1.9-6.4,3.7-11.4,4.8c-5.4,1.2-10.2,1.3-13,0.4c-0.1,0.1-0.1,0.2-0.2,0.3c-0.8,1.5-1.2,3-1.4,4.5
	c-0.3,2.2-0.5,4.4-0.8,6.7c-0.1,0.8-0.1,0.6-0.2,1.5c1.3-0.6,2.7,1.3,10.9,0.4C356.1,60,358.6,53.4,359.7,54.2z M349.9,43.1
	c-6-13.4-25.1-7.4-22.5,5.3c0.6,0.1,0.6,0.3,4.7,0.2c-2.3-11,9.6-13.1,14-3C347.1,45.2,349.6,43.9,349.9,43.1z M313.2,76.2
	c4.3,4.3,8.8,6.3,14.6,9c-0.5-2-0.9-4.2-1.5-6.7c-20.9-11.5-12.7-22.1-3.2-19.3c0.2-1.6,0.3-3.1,0.5-4.7c-1.9-1.1-6-1.6-11.4,1.4
	C303.9,60.6,307.2,70.3,313.2,76.2z M132.4,152.2v-43c0-1.8-0.3-3.4-0.8-4.6c-0.8-1.7-2.2-2.6-4.1-2.6c-0.9,0-1.7,0.3-2.6,1
	c-0.9,0.7-1.6,1.8-2.1,3.5c-2.8,9-5.9,18-9.4,27c-0.9-2.8-1.9-5.7-2.8-8.8c-1.5-4.6-3.4-10.4-5.6-17.2c-1.2-3.7-3.3-5.5-6.3-5.5
	c-3.2,0-4.8,2.4-4.8,7.2v41.7c0,1,0.1,1.9,0.2,2.8c0.3,2,1.7,3.1,3.9,3.1c1.5,0,2.6-0.5,3.4-1.4c0.8-0.9,1.1-2.3,1.1-4.1
	c0-10.8-0.2-20.8-0.6-29.9c-0.1-1.8-0.1-3-0.2-3.6c0-0.6-0.1-1.3-0.1-2.1c0-0.7,0-1.1,0.1-1.1c0.2,0,0.5,0.6,0.8,1.9
	c3.6,12.1,6.7,21.3,9.2,27.4c0.6,1.4,1.5,2.1,2.6,2.1c1.1,0,1.9-0.7,2.4-2c3.7-8.7,6.9-17.4,9.4-26.1c0.3-1.1,0.6-1.7,0.8-1.7
	c0.2,0,0.4,0.4,0.4,1.1c0,1.6-0.1,4-0.2,7.1c-0.2,6.2-0.4,15.5-0.4,27.8c0,1.4,0.2,2.5,0.5,3.3s1,1.2,2.1,1.2
	C131.4,156.7,132.4,155.2,132.4,152.2z M162.8,155.7c1.5-0.6,2.3-1.5,2.3-2.7c0-0.6-0.2-1-0.7-1.3c-0.5-0.3-1-0.4-1.6-0.4
	c-0.9,0-1.8,0-2.7,0.1c-0.9,0.1-1.8,0.1-2.7,0.1c-2.9,0-4.8-0.7-5.8-2.1c-0.6-0.9-0.9-2.3-0.9-4v-1.6c0-1,0.6-1.5,1.7-1.5l7.3,0.1
	c0.8,0,1.5-0.2,2-0.6c0.5-0.4,0.7-0.9,0.7-1.4c0-1-0.4-1.7-1.1-2.1c-0.6-0.4-1.5-0.5-2.7-0.5c-1,0-2,0-3,0.1c-1,0-2,0.1-3,0.1
	c-0.7,0-1.2-0.2-1.5-0.5c-0.3-0.3-0.5-1-0.5-2.1v-25c0-1.9,0.8-2.8,2.5-2.8c0.9,0,1.8,0,2.7,0.1c0.9,0,1.8,0,2.7,0
	c1.2,0,2.2-0.3,2.8-0.8c0.6-0.5,0.9-1,0.9-1.6c0-1.5-1-2.4-2.9-2.6c-0.8-0.1-1.5-0.1-2.2-0.1h-9.5c-2.8,0-4.5,1.1-5.1,3.4
	c-0.3,1.1-0.5,2.4-0.5,3.9v29.5c0,2.3,0.1,4.4,0.3,6.5c0.4,4.6,2.2,7.7,5.4,9.4c1.8,0.9,4.3,1.4,7.5,1.4
	C158.7,156.7,161.3,156.4,162.8,155.7z M207,152.2v-43c0-1.8-0.3-3.4-0.8-4.6c-0.8-1.7-2.2-2.6-4.1-2.6c-0.9,0-1.7,0.3-2.6,1
	c-0.9,0.7-1.6,1.8-2.1,3.5c-2.8,9-5.9,18-9.4,27c-0.9-2.8-1.9-5.7-2.8-8.8c-1.5-4.6-3.4-10.4-5.6-17.2c-1.2-3.7-3.3-5.5-6.3-5.5
	c-3.2,0-4.8,2.4-4.8,7.2v41.7c0,1,0.1,1.9,0.2,2.8c0.3,2,1.7,3.1,3.9,3.1c1.5,0,2.6-0.5,3.4-1.4c0.8-0.9,1.1-2.3,1.1-4.1
	c0-10.8-0.2-20.8-0.6-29.9c-0.1-1.8-0.1-3-0.2-3.6c0-0.6-0.1-1.3-0.1-2.1c0-0.7,0-1.1,0.1-1.1c0.2,0,0.5,0.6,0.8,1.9
	c3.6,12.1,6.7,21.3,9.2,27.4c0.6,1.4,1.5,2.1,2.6,2.1c1.1,0,1.9-0.7,2.4-2c3.7-8.7,6.9-17.4,9.4-26.1c0.3-1.1,0.6-1.7,0.8-1.7
	c0.2,0,0.4,0.4,0.4,1.1c0,1.6-0.1,4-0.2,7.1c-0.2,6.2-0.4,15.5-0.4,27.8c0,1.4,0.2,2.5,0.5,3.3c0.4,0.8,1,1.2,2.1,1.2
	C206,156.7,207,155.2,207,152.2z M244.3,142c0.9-4.3,1.3-9.3,1.3-15c0-4-0.4-7.6-1.2-11.1c-2.3-9.4-7-14-14.1-14
	c-5.3,0-9.2,2.2-12,6.5c-3.1,4.9-4.6,11.7-4.6,20.5c0,2.3,0.1,4.6,0.3,7.2c0.2,2.5,0.6,5,1.2,7.4c0.6,2.4,1.5,4.6,2.7,6.6
	c1.2,2,2.7,3.6,4.6,4.8c1.9,1.2,4.3,1.8,7.1,1.8C237.5,156.7,242.3,151.8,244.3,142z M225.3,145.8c-1.6-4.3-2.4-10.1-2.4-17.5
	c0-6.8,0.8-12.1,2.3-16c1.5-3.7,3.7-5.6,6.7-5.6c1.8,0,3.3,0.7,4.5,2.2c1.5,1.8,2.5,4.5,3.2,8.1c0.5,2.9,0.8,6.1,0.8,9.6
	c0,6.2-0.3,11.1-1.1,14.6c-1.4,6.8-4,10.2-8,10.2C228.7,151.4,226.7,149.5,225.3,145.8z M276.4,156c0.5-0.5,0.8-1.1,0.8-2
	c0-1.2-2-4.3-6-9.4c-0.5-0.7-1.1-1.4-1.8-2.2c-1.7-2-2.5-3.1-2.5-3.3c0-0.2,0.1-0.3,0.3-0.4c3.4-2.2,6-5.3,7.7-9.4
	c1.4-3.4,2.1-7.2,2.1-11.3c0-5.7-2-9.9-6-12.6c-3.4-2.3-7.5-3.5-12.2-3.5c-4.1,0-6.1,2-6.1,6.1v42.5c0,1,0.1,2,0.2,3
	c0.1,0.9,0.5,1.7,1.1,2.3c0.6,0.6,1.5,0.9,2.8,0.9c3,0,4.5-2,4.5-5.9v-8.8c0-0.8,0.1-1.3,0.3-1.3c0.1,0,0.4,0.3,0.9,0.9
	c2.7,4.5,4.9,8.1,6.8,10.9c1.7,2.7,3.4,4,5,4C275.2,156.7,275.9,156.5,276.4,156z M261.3,134.9v-26.3c0-0.7,0.4-1.1,1.2-1.2
	c3.8,0,6.4,1.8,7.7,5.4c0.6,1.7,0.9,3.5,0.9,5.5c0,2.9-0.5,5.8-1.4,8.6c-0.8,2.5-2,4.6-3.6,6.5c-1.6,1.8-2.9,2.7-3.8,2.7
	C261.6,136.2,261.3,135.8,261.3,134.9z M297.9,154.4c0-0.9-0.4-1.6-1.2-2c-0.4-0.2-1.1-0.4-2.1-0.4c-0.6,0-0.9-0.4-0.9-1v-43.5
	c0-0.6,0.3-0.9,1-1c1.1,0,1.9-0.2,2.3-0.4c0.8-0.4,1.2-1.1,1.2-2c0-1.1-0.9-1.7-2.8-1.7h-12c-1.9,0-2.8,0.6-2.8,1.7
	c0,0.9,0.4,1.6,1.2,2c0.4,0.2,1.1,0.3,2.2,0.4c0.7,0,1.1,0.5,1.1,1.2v42.9c0,0.4-0.1,0.7-0.4,0.9c-0.3,0.2-0.7,0.3-1.3,0.3
	c-1.9,0-2.8,0.8-2.8,2.3c0,1.2,0.9,1.8,2.6,1.8h11.8C297,156.1,297.9,155.5,297.9,154.4z M324,155.7c1.5-0.6,2.3-1.5,2.3-2.7
	c0-0.6-0.2-1-0.7-1.3c-0.5-0.3-1-0.4-1.6-0.4c-0.9,0-1.8,0-2.7,0.1c-0.9,0.1-1.8,0.1-2.7,0.1c-2.9,0-4.8-0.7-5.8-2.1
	c-0.6-0.9-0.9-2.3-0.9-4v-1.6c0-1,0.6-1.5,1.7-1.5l7.3,0.1c0.8,0,1.5-0.2,2-0.6c0.5-0.4,0.7-0.9,0.7-1.4c0-1-0.4-1.7-1.1-2.1
	c-0.6-0.4-1.5-0.5-2.7-0.5c-1,0-2,0-3,0.1c-1,0-2,0.1-3,0.1c-0.7,0-1.2-0.2-1.5-0.5c-0.3-0.3-0.5-1-0.5-2.1v-25
	c0-1.9,0.8-2.8,2.5-2.8c0.9,0,1.8,0,2.7,0.1c0.9,0,1.8,0,2.7,0c1.2,0,2.2-0.3,2.8-0.8c0.6-0.5,0.9-1,0.9-1.6c0-1.5-1-2.4-2.9-2.6
	c-0.8-0.1-1.5-0.1-2.2-0.1h-9.5c-2.8,0-4.5,1.1-5.1,3.4c-0.3,1.1-0.5,2.4-0.5,3.9v29.5c0,2.3,0.1,4.4,0.3,6.5
	c0.4,4.6,2.2,7.7,5.4,9.4c1.8,0.9,4.3,1.4,7.5,1.4C319.9,156.7,322.5,156.4,324,155.7z M347.2,153c1.6-1.9,2.4-4.3,2.4-7.2
	c0-3.2-1.2-6.3-3.6-9.3c-1.1-1.4-2.3-2.7-3.6-4c-3.2-3.1-5.4-5.8-6.7-8c-1.4-2.4-2.1-5-2.1-7.7c0-2.8,0.5-5.1,1.5-6.9
	c1.2-2.1,2.9-3.1,5.1-3.1c3.1,0,5.1,1.9,6.1,5.6c0.4,1.7,0.6,3.5,0.6,5.5c0,2.6-0.3,5.2-0.8,7.7c-0.1,0.4-0.1,0.7-0.1,1.1
	c0,1.3,0.6,2,1.9,2c1.4,0,2.5-1.3,3.1-3.9c0.4-1.9,0.7-4.2,0.7-6.8c0-10.6-4.2-15.9-12.5-15.9c-4,0-7.2,1.1-9.6,3.4
	c-1.2,1.2-2.2,2.5-2.9,4.2c-1,2.3-1.4,4.9-1.4,7.9c0,4.3,1.1,8.2,3.4,11.7c1.5,2.4,3.8,5.1,6.9,8.1c1.1,1.1,2.1,2.2,3.1,3.2
	c2,2.3,3.1,4.4,3.1,6.4c0,3.1-1.4,4.6-4.2,4.6c-2.5,0-4.1-1.3-4.8-3.9c-0.3-1.1-0.5-2.2-0.5-3.2c0-1.8-0.7-2.6-2.1-2.6
	c-0.8,0-1.4,0.3-1.8,1c-0.5,0.7-0.7,1.5-0.7,2.4c0,3.5,0.8,6.2,2.3,8.2c1.9,2.4,4.6,3.7,8.1,3.7C342,156.7,345.1,155.5,347.2,153z
	 M150.8,315.8l2.1-9.3h12.1l2,9.2l6.7-1.4l-8.8-38.6l-0.6-2.7h-10.8l-0.6,2.7l-8.8,38.6L150.8,315.8z M154.5,299.7l4.1-20.1
	l4.9,20.1H154.5z M182.7,315.5v-15.4c2.9,0.6,5,1.8,6.4,3.7c2,2.7,2.8,6.8,2.9,11.9l6.9-0.2c-0.2-6.5-1.3-11.8-4.3-15.8
	c-1.2-1.7-2.7-3-4.5-4.1c2.5-1.4,4.4-3.3,5.5-5.4c1.1-1.9,1.6-4,1.5-6c-0.1-2.1-0.8-4.1-2.1-5.9c-2.8-3.7-8.2-6.2-16.1-5.4l-3.1,0.3
	v3.1l0,39.2H182.7z M182.7,279.7c3.4,0.2,5.7,1.3,6.8,2.8c0.5,0.7,0.7,1.3,0.8,2.1c0,0.8-0.1,1.5-0.6,2.3c-1,1.9-3.3,3.5-7,4.2
	L182.7,279.7z M201.9,286.6c-0.7,3-1.1,6.3-1.1,9.5c0,3.3,0.3,6.4,1.1,9.2c1.7,6.1,5.2,10.6,10.9,10.7c6.1,0.2,10.1-5.9,11.8-13.8
	c0.7-3.1,1-6.4,1-9.8c0-3.4-0.3-6.7-1.1-9.5c-1.6-6.4-5.1-10.9-10.7-10.6C207.8,272.8,203.7,279,201.9,286.6z M214.3,279.3
	c1.5-0.1,2.8,2.2,3.6,5.4c0.6,2.3,0.9,5.1,0.9,7.8c0,2.8-0.3,5.7-0.9,8.3c-1,4.7-2.7,8.4-4.9,8.3c-2.1-0.1-3.5-2.4-4.4-5.6
	c-0.6-2.2-0.9-4.8-0.9-7.4c0-2.7,0.3-5.4,0.9-7.9C209.8,283.3,211.8,279.4,214.3,279.3z M228.1,272.8c0,0.1-3.9,39.7,9.5,42.6
	c9.2,1.9,13.5-4.4,15.3-13.1c1.7-7.8,1.2-17.7,0.9-23.9c-0.1-2-0.2-3.7-0.1-4.6l-6.9-0.2c0,1.2,0,2.9,0.1,5
	c0.3,5.9,0.7,15.2-0.8,22.2c-1.1,5-3.1,8.7-7.1,7.8c-7.3-1.5-4.1-35.1-4.1-35.2L228.1,272.8z M263,316.1l0.9-32.1l10.6,28.1l0.8,2.2
	h7.7l0.1-3.3l1.4-38.3l-6.9-0.2l-1,26.1l-8.8-23.4l-0.8-2.2h-9.7l-0.1,3.4l-1.1,39.8L263,316.1z M286.9,315.1l3.4,0
	c7.8,0.1,14.6-6.6,17.7-14.6c1.1-2.8,1.8-5.7,1.9-8.6c0.1-3-0.3-6-1.5-8.6c-2.6-5.9-8.3-10-18.4-9.9l-3.4,0.1l0,3.4l0.3,34.9
	L286.9,315.1z M293.5,280.4c4.7,0.6,7.4,2.8,8.6,5.6c0.7,1.7,1,3.6,0.9,5.6c-0.1,2.1-0.6,4.3-1.4,6.4c-1.7,4.2-4.5,7.9-7.9,9.5
	L293.5,280.4z"/>
<path fill="#BC936B" d="M184,340.4c-1.6,2.4-6.1,9.1-6.3,8.3c-7.5-2.5-14.3-8.6-17.4-14.6c-1.6-3-3.5-7.9,1.4-9.5
	c4.4-1.4,11.3,3.7,12.6,6.8c1.1-6.1,11.7-10.2,14.7-4.9C191.5,331.2,186.9,336.2,184,340.4z M240.8,326.6c-3-5.4-13.6-1.3-14.7,4.9
	c-1.4-3.1-8.2-8.3-12.6-6.8c-4.9,1.6-3,6.4-1.4,9.5c3.1,6.1,9.8,12.2,17.4,14.6c0.2,0.8,4.7-5.9,6.3-8.3
	C238.7,336.2,243.4,331.2,240.8,326.6z M294.9,324.9c-3-5.4-13.6-1.3-14.7,4.9c-1.4-3.1-8.2-8.3-12.6-6.8c-4.9,1.6-3,6.4-1.4,9.5
	c3.1,6.1,9.8,12.2,17.4,14.6c0.2,0.8,4.7-5.9,6.3-8.3C292.8,334.5,297.5,329.5,294.9,324.9z M294.9,239.9c-3-5.4-13.6-1.3-14.7,4.9
	c-1.4-3.1-8.2-8.3-12.6-6.8c-4.9,1.6-3,6.4-1.4,9.5c3.1,6.1,9.8,12.2,17.4,14.6c0.2,0.8,4.7-5.9,6.3-8.3
	C292.8,249.5,297.5,244.5,294.9,239.9z M234.8,242.3c-3-5.4-13.6-1.3-14.7,4.9c-1.4-3.1-8.2-8.3-12.6-6.8c-4.9,1.6-3,6.4-1.4,9.5
	c3.1,6.1,9.8,12.2,17.4,14.6c0.2,0.8,4.7-5.9,6.3-8.3C232.7,251.9,237.4,246.9,234.8,242.3z M189,239.9c-3-5.4-13.6-1.3-14.7,4.9
	c-1.4-3.1-8.2-8.3-12.6-6.8c-4.9,1.6-3,6.4-1.4,9.5c3.1,6.1,9.8,12.2,17.4,14.6c0.2,0.8,4.7-5.9,6.3-8.3
	C186.9,249.5,191.5,244.5,189,239.9z M89.4,372.7l8.9,0.1l-0.2,50.5l6.9,0.1l0.3-50.5l9.5,0.1l0-9.5l-25.3-0.3L89.4,372.7z
	 M124,423.4l0.3-18l10.5,0.3l0.3,17.6l6.9-0.2l-1-60.3L134,363l0.5,33.1l-10.2-0.2l0.5-32.8l-6.9-0.2l-0.9,60.3L124,423.4z
	 M166.4,412.1l-15.5,0.7l0.1-8.5l14.1-0.1l0-9.6l-13.9,0.1l0.3-21.8l14.6-0.1l0-9.6l-21.3,0.1l-0.1,4.7l-0.6,49.5l-0.1,5l3.6-0.1
	l19.1-0.8L166.4,412.1z M202.7,363.1c-7.9-0.5-13.9,8-16.7,18.7c-1.1,4.2-1.7,8.8-1.8,13.3c-0.1,4.6,0.5,9.1,1.8,13.1
	c2.7,8.7,8.4,14.8,17.9,14l-0.4-9.5c-6,0.5-9.5-3.1-11.1-8.2c-0.9-2.7-1.2-5.9-1.2-9.2c0-3.4,0.5-6.9,1.4-10.1
	c1.9-7.1,5.5-12.7,10-12.5L202.7,363.1z M211.2,422.6l2.1-12.9l12.1-0.1l2.1,12.8l6.7-2L225,367l-0.6-3.8l-10.8,0.1L213,367
	l-8.6,53.6L211.2,422.6z M214.7,400.2l4-27.8l5,27.8L214.7,400.2z M243,422l0-46.7l4,24.1l0.6,3.7l2.8,0l4.8,0l2.8,0l0.6-3.8l3.2-23
	l0.5,45.3l6.9-0.1l-0.6-53.5l-0.1-4.9l-3.6,0.2l-5.7,0.4l-2.7,0.2l-0.5,3.6l-3.3,23.5l-3.9-23.5l-0.6-3.8l-12,0.1v4.8l0,53.4
	L243,422z M278,422l-0.1-17.5c6.8-1.6,11.2-7,13.2-13.4c1-3.1,1.4-6.3,1.2-9.5c-0.1-3.2-0.8-6.3-2.1-9.1c-2.8-6.3-8.3-10.7-16.3-9.6
	l-3.1,0.4l0,4.3l0.3,54.3L278,422z M277.7,372.4c3.3,0.4,5.5,2.4,6.6,5.1c0.6,1.4,1,3,1,4.7c0.1,1.7-0.1,3.4-0.7,5.1
	c-1,3.3-3.3,6.2-6.9,7.5L277.7,372.4z M317.9,361.4l-23,0.1l0,4.7l-0.3,56.7l6.9,0.1l0.1-19.9l11.4,0.2l0-9.6l-11.4-0.2l0.1-22.5
	l16.3-0.1L317.9,361.4z M327.1,422.3l-0.3-60.3l-6.9,0l0.3,60.3L327.1,422.3z M336,421.6l-0.1-21.4c2.9,0.8,5,2.5,6.4,5.1
	c2,3.7,2.9,9.4,3,16.5l6.9-0.3c-0.2-9-1.4-16.4-4.4-21.9c-1.2-2.3-2.7-4.2-4.5-5.7c2.5-2,4.4-4.6,5.5-7.5c1.1-2.7,1.5-5.5,1.4-8.3
	c-0.1-2.9-0.8-5.7-2.2-8.1c-2.8-5.1-8.2-8.6-16.1-7.5l-3.1,0.4l0,4.3l0.3,54.3L336,421.6z M335.7,371.9c3.4,0.2,5.7,1.7,6.8,3.8
	c0.5,0.9,0.7,1.9,0.8,2.9c0,1-0.1,2.1-0.6,3.2c-1,2.6-3.3,4.8-6.9,5.9L335.7,371.9z M376.7,411.1l-15.6,0.7l0.1-8.5l14.1-0.1l0-9.6
	l-13.9,0.1l0.3-21.8l14.6-0.1l0-9.6l-21.3,0.1l-0.1,4.7l-0.6,49.5l-0.1,5l3.6-0.1l19.2-0.8L376.7,411.1z M132.5,74.5
	c1.8-12.1,2.7-24.4,2.7-36.7c-0.1-2.7-0.2-5.6-0.2-8.3v-1.8c2.7,0,5,0.1,7.4,0c1.1,0,2.3-0.2,3.3-0.6c1.3-0.5,2-2,1.9-3.2
	c-0.2-1.3-1.3-2.7-2.7-3.1c-0.9-0.2-2-0.2-3-0.3c-1.7-0.1-3.5,0.2-5.3-0.2c-4.9-0.9-9.5-0.2-14.2,0.3c-1.2,0.2-2.4,0.5-3.5,0.9
	c-2,0.7-2.8,2.4-2.3,4.1c0.5,1.6,1.8,2.6,3.8,2.6c1.3,0,2.5-0.2,3.7-0.4c1.1-0.2,2.2-0.6,3.5,0c0.2,2,0.2,4,0.2,6
	c0.1,9.5-0.2,18.9,0.5,28.5c0.1,0.9-0.2,1.7,0,2.6c0.3,3.7,0.7,7.3,1.1,10.9c0.1,0.9,0.4,1.7,1.7,2C132.4,77,132.4,75.7,132.5,74.5z
	 M170.3,21.4c-0.5,1.2-0.9,2.4-1.1,3.7c-0.4,4.2-0.7,8.3-1,12.5c-0.2,2.4-0.2,4.8-0.2,7.3c-2,0.3-3.8,0.9-6.2,0.8v-3.1
	c0.2-2.9,0.6-5.7,0.6-8.6c-0.1-3.3-0.4-6.7-0.8-10c-0.3-2.4-1.6-4.3-4.3-4.7c-1.4,0.2-2.8,0.5-3.9,0.7c-1.6,0.9-1.8,2.3-1.8,3.8
	l0.2,9.3c0.2,5.7,0.3,11.5,0.4,17.3c0.1,4,0.2,7.9,0.2,11.9c0.1,3.5,0,7.1,0.6,10.7c0.3,2,1.1,3.8,3.2,5.1c2-1.3,3.3-2.9,3.3-5.5
	c0-0.6,0-1.3,0.1-2c0.2-3.8,0.2-7.5,0.5-11.2c0.1-2.3,0.2-4.6,0.9-6.8c2.7-0.2,5.1-1.2,8.1-0.8c1.3,8.3,2.2,16.5,5,24.6
	c0.8,0.1,1.3,0.1,1.9,0.2c0.2-0.6,0.6-1,0.6-1.6c0.6-3.8,1.4-7.7,1.7-11.6c0.3-4.2,0.1-8.4,0.1-12.6c0-3-0.1-6,0-8.9
	c0-4.5,0-8.9,0.1-13.3c0-1.7,0.2-3.3,0.2-4.9c0.1-2.5-0.9-3.8-3.4-4.6c-0.6-0.2-1.3-0.2-1.7-0.3C171.7,19.1,170.8,20.1,170.3,21.4z
	 M191.2,33.5c-0.1-2.5-0.5-4.9-0.2-7.5c1.2-0.2,2.1-0.2,3.1-0.4c0.9-0.2,1.9-0.4,2.7-0.8c1-0.4,1.6-1.3,1.6-2.5c0-1.2-0.6-2-1.7-2.7
	c-2.3-1.3-4.6-2-7.2-1c-0.9,0.3-2,0.6-3.1,0.8c-2.4,0.7-3.7,2.4-3.8,4.9c-0.1,1.7-0.1,3.5-0.1,5.2c0.3,10.9,0.8,21.7,0.2,32.6
	c-0.2,3.5,0.1,6.9,1.1,10.3c0.1,0.2,0,0.5,0,0.8c-0.2,0.5-0.6,1-0.7,1.6c-0.6,2.5,1.3,4.4,3.8,3.9c0.5-0.1,1.1-0.2,1.5-0.6
	c1.9-1.4,4.2-2,6.5-2.4c1.1-0.2,2.1-0.9,3.1-1.5c1-0.7,1.5-1.7,1.1-3.1c-0.4-1.3-1.3-2.1-2.7-2.4c-0.9-0.2-1.9,0-2.9-0.1
	c-0.6,0-1.2-0.2-1.6-0.2c0-6.6,0-12.9-0.1-19.3c0.9-1,2-1.3,3.1-1.5c1.7-0.4,2.7-1.6,3.5-3c0.9-1.6,0-3.7-1.9-4.2
	c-0.7-0.2-1.5-0.2-2.2-0.2c-0.9,0-1.7,0.2-2.7,0.2C190.9,38.2,191.3,35.9,191.2,33.5z M238.5,39.5c1-3.2,1.3-6.5,0.2-9.7
	c-1.9-5.6-5.2-9.7-11.2-11c-3.7-0.8-6.5,0.6-7.9,4.1c-0.3,0.7-0.6,1.5-0.7,2.3c-0.2,2.3-0.5,4.5-0.6,6.8c0,8.8,0,17.5,0.1,26.3
	c0,3.1-0.1,6.4,0.2,9.5c0.2,2.5,0.6,5,1.2,7.5c0.6,2.4,2.1,3.5,4.5,3.3c6.4-0.7,11.9-3.6,13.2-11c0.5-2.4,0.5-5,0.6-7.5
	c0.2-4.3-0.6-8.5-4-11.8C236,45.3,237.5,42.5,238.5,39.5z M225.4,53.2l3.8,0.2c1.4,0.9,1.6,2.1,1.7,3.4c0.1,2.5,0.2,5,0,7.5
	c-0.3,4.7-2,6.4-7.3,7.3C224.3,65.4,224.8,59.4,225.4,53.2z M225.8,44.1c0-3.5-0.1-7.1-0.1-10.5c-0.1-2,0.6-3.8,2.4-5.2
	c0.6,0.5,1.2,0.8,1.4,1.3c1.8,4.1,1.8,8.2,0.1,12.2c-0.6,1.4-1.8,2.4-3.4,3.2L225.8,44.1z M251.9,33.5c-0.1-2.5-0.5-4.9-0.2-7.5
	c1.2-0.2,2.1-0.2,3.1-0.4c0.9-0.2,1.9-0.4,2.7-0.8c1-0.4,1.6-1.3,1.6-2.5c0-1.2-0.6-2-1.7-2.7c-2.3-1.3-4.6-2-7.2-1
	c-0.9,0.3-2,0.6-3.1,0.8c-2.4,0.7-3.7,2.4-3.8,4.9c-0.1,1.7-0.1,3.5-0.1,5.2c0.3,10.9,0.8,21.7,0.2,32.6c-0.2,3.5,0.1,6.9,1.1,10.3
	c0.1,0.2,0,0.5,0,0.8c-0.2,0.5-0.5,1-0.7,1.6c-0.5,2.5,1.3,4.4,3.8,3.9c0.6-0.1,1.1-0.2,1.5-0.6c1.9-1.4,4.2-2,6.5-2.4
	c1.1-0.2,2.1-0.9,3.1-1.5c1-0.7,1.5-1.7,1.1-3.1c-0.4-1.3-1.3-2.1-2.7-2.4c-0.9-0.2-1.9,0-2.9-0.1c-0.6,0-1.2-0.2-1.6-0.2
	c0-6.6,0-12.9-0.1-19.3c0.9-1,2-1.3,3.1-1.5c1.7-0.4,2.7-1.6,3.5-3c0.9-1.6,0-3.7-1.9-4.2c-0.7-0.2-1.5-0.2-2.2-0.2
	c-0.9,0-1.7,0.2-2.7,0.2C251.6,38.2,252,35.9,251.9,33.5z M283.4,37.1c1-0.9,1.4-2.2,1.3-3.4c-0.1-3.5-1.1-6.9-3.3-10.2
	c-1.3-1.7-3-3.1-5.3-4.2c-3.2-1.3-7.1-1.2-9.3,0.6c-3.5,2.9-5.3,6.4-4.3,10.7c0.6,2.1,1.7,4.1,3.1,6c4.2,5.6,8,11.3,9.7,17.6
	c1,3.8,1.6,7.5,1.3,11.3c-0.2,1.6-0.6,3.2-2.3,4.4c-1.9-0.7-2.5-1.9-2.7-3.1c-0.2-2-0.5-4-0.4-6c0-2.8,0.3-5.6,0.5-8.4
	c0.1-0.9,0.2-1.9-0.1-2.8c-0.3-1.6-1.3-2.9-3.5-3.3c-2,0.2-3.3,1.1-4.2,2.4c-1.1,1.6-1.9,3.3-2.1,5.2c-0.6,4.5-0.3,8.9,0.9,13.5
	c0.9,3.1,2.7,5.7,5.6,7.9c1.1,0.9,2.4,1.6,3.7,2.1c3.7,1.5,7.1,0.8,9-1.7c0.6-0.8,1-1.6,1.3-2.5c2.3-6.2,2.4-12.7,0.8-19.2
	c-1.1-5-3.4-10-6.8-14.5c-1.4-1.9-2.6-3.9-3.8-5.9c-0.6-1.2-1.3-2.4-1.4-3.7c-0.2-1.1-0.1-2.3,0.2-3.4c0.2-0.5,0.9-0.8,1.5-1.3
	c1.9,1.1,2.2,2.5,2.3,3.8c0.2,2.4,1.6,4.5,2.6,6.7c0.4,0.8,1.2,1.5,1.6,2C281.4,38.4,282.5,38,283.4,37.1z M301.5,74.5
	c1.8-12.1,2.7-24.4,2.7-36.7c-0.1-2.7-0.2-5.6-0.2-8.3v-1.8c2.7,0,5,0.1,7.4,0c1.1,0,2.3-0.2,3.3-0.6c1.3-0.5,2-2,1.9-3.2
	c-0.2-1.3-1.3-2.7-2.7-3.1c-0.9-0.2-2-0.2-3-0.3c-1.7-0.1-3.5,0.2-5.3-0.2c-4.9-0.9-9.5-0.2-14.2,0.3c-1.2,0.2-2.4,0.5-3.5,0.9
	c-2,0.7-2.8,2.4-2.3,4.1c0.5,1.6,1.8,2.6,3.8,2.6c1.3,0,2.5-0.2,3.7-0.4c1.1-0.2,2.2-0.6,3.5,0c0.2,2,0.2,4,0.2,6
	c0.1,9.5-0.2,18.9,0.6,28.5c0.1,0.9-0.2,1.7,0,2.6c0.3,3.7,0.7,7.3,1.1,10.9c0.1,0.9,0.4,1.7,1.7,2C301.4,77,301.4,75.7,301.5,74.5z
	 M89.6,220.3c0.8,0,1.5-0.1,2.1-0.4c0.6-0.3,1.1-0.8,1.3-1.7c0.2-0.8,0.3-1.4,0.4-1.8c0.1-0.4,0.2-0.8,0.3-1
	c0.1-0.2,0.2-0.4,0.2-0.6c0.1-0.2,0.1-0.4,0.2-0.6c0.1-0.2,0.2-0.5,0.3-0.8c1.1-0.1,2.4-0.1,3.9-0.1c1.8,0,5.1,0.1,9.9,0.3l0.2,1.6
	c0.1,1.2,0.4,2.2,0.7,3.1c0.3,0.9,0.9,1.3,1.8,1.4l1,0c0.4,0,0.9,0,1.5-0.1c0.6-0.1,1.2-0.4,1.8-0.9c0.5-0.4,0.7-1,0.8-1.8
	c-0.7-4.9-1.9-11.3-3.5-19c-1.6-7.7-3.1-14.8-4.7-21.3l-0.8-3.2c-0.5-1.6-2-2.4-4.6-2.4c-0.8,0-1.6,0.1-2.4,0.4
	c-1.1,0.3-1.7,1-2,2.2l-4.2,15.6c-0.3,1-1.3,4.9-3.2,11.6l-1.8,6.8c-1.6,6.1-2.5,9.4-2.5,9.9v0.4c0,0.6,0.2,1.2,0.5,1.6
	C87.2,220,88.1,220.3,89.6,220.3z M107.2,208.1h-0.8l-5.6,0l-2.6-0.1c-1.5,0-2.4,0-2.6-0.1c0.2-1.1,0.8-3.4,1.6-6.9
	c0.9-3.6,1.8-7.3,2.9-11.1c1-3.8,1.8-6.7,2.5-8.5c0.1,0,0.9,4,2.3,12.1C106.2,201.3,107,206.1,107.2,208.1z M147.9,220.4
	c1.7,0,3-0.6,3.9-1.7c0.2-0.3,0.3-0.6,0.3-0.8c0-0.5-0.4-1-1.1-1.5c-2-1.3-4.2-2.6-6.7-4c-2.4-1.4-4-2.3-4.9-2.9
	c4.1-1.4,7.2-3.8,9.3-7.1c2.1-3.4,3.2-7.4,3.2-12c0-4.4-0.8-8.1-2.5-11c-1.7-2.9-4.1-5.1-7.3-6.5c-3.2-1.4-7-2.1-11.4-2.1
	c-1.3,0-2.5,0.1-3.4,0.4c-1,0.2-1.5,0.9-1.5,1.9c-0.3,13.8-0.5,24.6-0.5,32.5c0,1.8,0,4.3,0.1,7.7c0,3.3,0.2,5.4,0.5,6.2
	c0.1,0.2,0.5,0.4,1.2,0.6c0.6,0.2,1.2,0.2,1.9,0.2c0.1,0,0.3,0,0.8,0c0.4,0,1-0.3,1.6-0.7c0.6-0.5,0.9-1.3,1-2.4l-0.2-6.2
	c1.1,1,5.5,3.9,13.2,8.8C146.1,220.1,146.9,220.4,147.9,220.4z M132.5,205h-0.1c-0.1-3.1-0.2-6.8-0.2-10.9c0-6.6,0.2-12.3,0.6-17.2
	c0-0.2,0.5-0.3,1.4-0.4l0.7,0c2.3,0,4.5,0.7,6.6,2.1c3.1,2.2,4.6,6,4.6,11.5c0,2.5-0.5,4.9-1.5,7.2c-1,2.3-2.4,4.1-4.4,5.5
	C138,204.3,135.5,205,132.5,205z M175.5,220.5c2,0,4.3-0.2,6.9-0.5c2.7-0.2,4-1,4-2.4c0.6-2.9-2.1-3.9-8.2-3
	c-1.7,0-5.1,0.2-10.1,0.5l0-1.9v-0.7l0-0.3l0-4.1c0-0.2,0.5-0.4,1.4-0.4c0.9,0,2,0,3.4-0.1c1.4-0.1,2.8-0.1,4.2-0.1
	c0.4,0,1.1,0,2.2,0c1.1,0,2.4-0.1,3.9-0.4c1.3-0.4,2-1.2,2-2.5c0.6-2.5-1.9-3.6-7.5-3.3l-3.3,0.1c-3.1,0.1-5.3,0.2-6.5,0.1l0.2-24
	h4.7c1.2,0,2.6,0,4.2,0c1.6,0,3.2,0,4.6-0.1c1.4,0,2.5-0.3,3.1-0.8c0.5-1.1,0.7-1.8,0.7-2.4c0-0.9-0.3-1.7-0.9-2.2
	c-1.5-0.6-4.7-0.8-9.5-0.8c-1,0-2.5,0-4.7,0c-2.2,0-4.5,0.1-7,0.3c-1.1,0.4-1.8,0.8-2,1.5c-0.2,0.5-0.3,1.1-0.3,1.9
	c0,1.7,0.1,3.5,0.1,5.4l0,5.9v14.2c0,12.2,0.1,18.7,0.3,19.5c0.2,0.2,1.5,0.4,4,0.5c1.9,0.1,4,0.2,6.4,0.2H175.5z M237.1,220.3
	c0.8,0,1.8-0.2,3-0.5c0.6-0.3,1.4-1.9,2.2-4.7c0.8-2.9,1.7-6.3,2.6-10.2c0.9-3.9,1.7-7.6,2.4-11.1c0.8-3.7,1.3-6.3,1.7-7.7
	c0.2,0.7,0.6,4.1,1.3,10.1c1.3,13.4,2.5,21,3.6,22.9c0.2,0.3,0.7,0.5,1.3,0.7c0.6,0.2,1.3,0.3,2,0.3c1.8,0,2.7-0.8,2.7-2.4
	c0-0.1-0.2-1.4-0.5-3.8c-0.4-2.5-0.8-5.5-1.3-9.2c-2.4-16.2-3.8-26.4-4.3-30.5c-0.2-1.3-1-2.2-2.3-2.8c-0.7-0.3-1.4-0.5-2-0.5
	c-0.6,0-1.4,0.2-2.4,0.6c-1,0.4-1.7,1.5-2.1,3.5c-0.4,2.4-1,5.3-1.7,8.8c-0.4,2.1-0.9,4.2-1.3,6.4c-1.4,6.8-2.7,12.8-3.9,18
	c-0.1,0.3-0.3,0.4-0.5,0.4c-0.2,0-0.4-0.2-0.5-0.5c-0.2-2-0.7-5.6-1.4-10.7c-2.1-13.6-3.5-22-4.3-25.2c-0.3-0.7-1-1.2-2.1-1.4
	c-0.6-0.1-1.1-0.2-1.7-0.2c-0.6,0-1.4,0.1-2.3,0.3c-0.9,0.2-1.5,0.8-1.8,1.7c-0.4,1.5-1.6,9-3.8,22.4c-2.2,13.4-3.3,20.7-3.4,22.2
	c0,2,1.1,3.1,3.2,3.1c1.8,0,2.9-0.6,3.2-1.7c0.1-0.6,0.3-1.8,0.6-3.7c2.7-19.1,4.2-28.7,4.4-28.9c0.6,2.2,1.7,9,3.3,20.5
	c0.5,4.1,1.1,7.3,1.6,9.4c0.5,2.2,1.3,3.5,2.4,4.1C235.6,220.1,236.3,220.3,237.1,220.3z M271.9,220.3c0.8,0,1.5-0.1,2.1-0.4
	c0.6-0.3,1.1-0.8,1.3-1.7c0.2-0.8,0.3-1.4,0.4-1.8c0.1-0.4,0.2-0.8,0.3-1c0.1-0.2,0.2-0.4,0.2-0.6c0.1-0.2,0.1-0.4,0.2-0.6
	c0.1-0.2,0.2-0.5,0.3-0.8c1.1-0.1,2.4-0.1,3.9-0.1c1.8,0,5.1,0.1,9.9,0.3l0.2,1.6c0.1,1.2,0.4,2.2,0.7,3.1c0.3,0.9,0.9,1.3,1.8,1.4
	l1,0c0.4,0,0.9,0,1.5-0.1c0.6-0.1,1.2-0.4,1.8-0.9c0.5-0.4,0.7-1,0.8-1.8c-0.7-4.9-1.9-11.3-3.5-19c-1.6-7.7-3.1-14.8-4.7-21.3
	l-0.8-3.2c-0.5-1.6-2-2.4-4.6-2.4c-0.8,0-1.6,0.1-2.4,0.4c-1.1,0.3-1.7,1-2,2.2l-4.2,15.6c-0.3,1-1.3,4.9-3.2,11.6l-1.8,6.8
	c-1.6,6.1-2.5,9.4-2.5,9.9v0.4c0,0.6,0.2,1.2,0.5,1.6C269.5,220,270.5,220.3,271.9,220.3z M289.6,208.1h-0.8l-5.6,0l-2.6-0.1
	c-1.5,0-2.4,0-2.6-0.1c0.2-1.1,0.8-3.4,1.6-6.9c0.9-3.6,1.8-7.3,2.9-11.1c1-3.8,1.8-6.7,2.5-8.5c0.1,0,0.9,4,2.3,12.1
	C288.6,201.3,289.4,206.1,289.6,208.1z M313,220.4c1,0,2.9-0.4,5.6-1.2c6.4-1.8,11.3-5.5,14.5-11.2c2-3.5,3-7.9,3-13
	c0-8-2.1-14-6.2-18c-4.1-3.9-10.1-5.9-17.9-5.9h-0.8c-1.8,0-2.8,0.4-3.2,1.1c-0.3,0.5-0.4,1.5-0.4,2.8l0.1,2.6l-0.1,3.5
	c-0.1,2.2-0.1,5.3-0.2,9.4c-0.1,6.6-0.2,11.7-0.2,15.2c0,8.8,0.2,13.5,0.7,14c0.5,0.4,1.6,0.6,3.4,0.6H313z M313.6,215.1l0.1-38.5
	c3.3,0,6.1,0.7,8.3,2c2.3,1.3,4,3,5.3,5.2c1.8,3,2.7,6.4,2.7,10.3c0,1.6-0.2,3.4-0.6,5.5c-0.4,2.1-1.3,4.3-2.7,6.7
	c-1.4,2.3-3.2,4.3-5.4,5.8C319.1,213.7,316.5,214.7,313.6,215.1z M359.4,220.5c2,0,4.3-0.2,6.9-0.5c2.7-0.2,4-1,4-2.4
	c0.6-2.9-2.1-3.9-8.2-3c-1.7,0-5.1,0.2-10.1,0.5l0-1.9v-0.7l0-0.3l0-4.1c0-0.2,0.5-0.4,1.4-0.4c0.9,0,2,0,3.4-0.1
	c1.4-0.1,2.8-0.1,4.2-0.1c0.4,0,1.1,0,2.2,0c1.1,0,2.4-0.1,3.9-0.4c1.3-0.4,2-1.2,2-2.5c0.6-2.5-1.9-3.6-7.5-3.3l-3.3,0.1
	c-3.1,0.1-5.3,0.2-6.5,0.1l0.2-24h4.7c1.2,0,2.6,0,4.2,0c1.6,0,3.2,0,4.6-0.1c1.4,0,2.5-0.3,3.1-0.8c0.5-1.1,0.7-1.8,0.7-2.4
	c0-0.9-0.3-1.7-0.9-2.2c-1.5-0.6-4.7-0.8-9.5-0.8c-1,0-2.5,0-4.7,0c-2.2,0-4.5,0.1-7,0.3c-1.1,0.4-1.8,0.8-2,1.5
	c-0.2,0.5-0.3,1.1-0.3,1.9c0,1.7,0.1,3.5,0.1,5.4l0,5.9v14.2c0,12.2,0.1,18.7,0.3,19.5c0.2,0.2,1.5,0.4,4,0.5c1.9,0.1,4,0.2,6.4,0.2
	H359.4z"/>
</svg>
