<?xml version="1.0" encoding="utf-8"?>
<!-- Generator: Adobe Illustrator 18.0.0, SVG Export Plug-In . SVG Version: 6.00 Build 0)  -->
<!DOCTYPE svg PUBLIC "-//W3C//DTD SVG 1.1//EN" "http://www.w3.org/Graphics/SVG/1.1/DTD/svg11.dtd">
<svg version="1.1" id="Layer_1" xmlns="http://www.w3.org/2000/svg" xmlns:xlink="http://www.w3.org/1999/xlink" x="0px" y="0px"
	 viewBox="0 0 432 432" enable-background="new 0 0 432 432" xml:space="preserve">
<path fill="#FAB46A" d="M50.9,375.5c-0.6-0.1-1,0-1.4,0.2c-0.3,0.1-0.5,0.3-0.8,0.4c-0.1,0.1-0.3,0.1-0.4,0.2
	c-0.5,0.2-1.1,0.2-1.5-0.1c-0.2-0.1-0.3-0.2-0.5-0.2c-0.6-0.3-1.1-0.3-1.7-0.1c-0.3,0.1-0.5,0.2-0.8,0.3c-0.3,0.1-0.7,0.2-1,0.3
	c-0.4,0.1-0.8,0-1.1-0.1c-0.2-0.1-0.5-0.3-0.7-0.4c-0.3-0.2-0.6-0.3-0.9-0.4c-0.3-0.1-0.6-0.2-0.9-0.1c-0.6,0-1,0.2-1.2,0.7
	c-0.2,0.3-0.2,0.6-0.2,1c0,0.2-0.1,0.4-0.1,0.7c-0.1,0.2-0.2,0.3-0.4,0.4c-0.1-0.1-0.2-0.2-0.3-0.2c-0.3-0.2-0.5-0.4-0.8-0.5
	c-0.3-0.2-0.7-0.3-1.1-0.1c0,0,0-0.1-0.1-0.1c-0.3-0.8-0.4-1.7-0.1-2.6c0.4-1.2,1.8-1.8,3.3-1.4c0.1,0,0.3,0.1,0.4,0.1
	c1.1,0.4,2.1,0.4,3.3,0.2c0.2-0.1,0.5-0.1,0.7-0.2c0.4-0.1,0.7-0.1,1.1-0.1c0.1,0,0.2,0,0.4,0c0.5,0.1,1,0,1.5-0.3
	c0.4-0.2,0.7-0.6,1-0.9c0.2-0.3,0.4-0.7,0.5-1.1c0.2-0.5,0.4-0.9,0.8-1.3c0.1-0.1,0.2-0.2,0.3-0.3c0.2,0,0.3,0.1,0.3,0.3
	c0.1,0.2,0.2,0.5,0.2,0.7c0,0.5,0,1,0.1,1.5c0,0.3,0.1,0.6,0.1,0.9c0.1,0.4,0.4,0.8,0.8,1.1c0.3,0.2,0.6,0.4,0.9,0.6
	C50.6,374.7,50.8,375,50.9,375.5z M52.7,373.6c0.2-0.1,0.4-0.2,0.5-0.3c1-0.7,1.5-1.7,1.5-2.8c0-0.5-0.1-1-0.2-1.4
	c-0.2-0.9-0.4-1.8-0.6-2.6c-0.2-1.1-0.8-2-2.2-2.4c0,0,0,0-0.1,0c-0.2-0.1-0.3-0.1-0.5-0.1c-0.4,0.1-0.7-0.1-0.9-0.4
	c-0.1-0.1-0.1-0.3-0.2-0.4c-0.3-0.5-0.6-1-1.1-1.5c-0.3-0.2-0.6-0.5-0.9-0.7c-0.5-0.4-0.9-0.7-1.6-0.8c-0.3-0.1-0.6-0.1-1-0.2
	c-0.8-0.1-1.5-0.3-2.2-0.7c-0.3-0.2-0.7-0.4-1-0.6c-0.2-0.1-0.4-0.2-0.6-0.2c-0.6-0.2-1.2,0.1-1.3,0.6c0,0.3,0,0.5,0,0.8
	c0,0.6,0.1,1.1-0.1,1.7c-0.1,0.3-0.2,0.5-0.4,0.8c-0.2,0.2-0.5,0.3-0.9,0.3c-0.2,0-0.5-0.1-0.6-0.2c-0.2-0.2-0.4-0.4-0.6-0.6
	c-0.1-0.2-0.3-0.3-0.4-0.5c-0.3-0.3-0.7-0.5-1.2-0.4c-0.4,0-0.8,0.2-1.1,0.5c-0.1,0.2-0.3,0.3-0.3,0.5c-0.2,0.6-0.4,1.2-0.7,1.7
	c-0.2,0.5-0.4,0.9-0.9,1.3c-0.2,0.1-0.4,0.3-0.5,0.4c-0.3,0.2-0.5,0.5-0.7,0.8c-0.2,0.4-0.4,0.9-0.4,1.3c-0.1,0.8,0,1.6,0.2,2.3
	c0.2,0.8,0.6,1.5,1.2,2.2c0.4,0.4,1,0.7,1.5,1c0.2-0.1,0.4-0.2,0.6-0.3c0.2-0.1,0.5-0.2,0.7-0.2c0.9-0.2,1.8-0.1,2.7,0.2
	c0.8,0.3,1.6,0.3,2.5,0.2c0.3-0.1,0.6-0.1,0.9-0.2c0.5-0.1,0.9-0.2,1.4-0.1c0.2,0,0.4,0,0.6,0.1c0.2,0,0.4,0,0.5-0.1
	c0.3-0.1,0.5-0.3,0.7-0.6c0.1-0.2,0.3-0.5,0.4-0.7c0.2-0.4,0.3-0.7,0.5-1.1c0.2-0.4,0.5-0.8,0.8-1.1c0.5-0.5,1.1-0.5,1.6-0.1
	c0.1,0.1,0.2,0.2,0.3,0.4c0.1,0.2,0.2,0.4,0.2,0.6c0.1,0.4,0.1,0.8,0.1,1.2c0,0.4,0,0.7,0,1.1c0,0.6,0.3,1,0.9,1.4
	c0.4,0.2,0.7,0.4,1.1,0.7C51.7,374,52.2,373.9,52.7,373.6z M50.7,378.5c0.2-0.5,0.3-1,0.4-1.5c0-0.2,0-0.4,0-0.5
	c0-0.4-0.5-0.6-0.9-0.4c-0.2,0.1-0.3,0.2-0.5,0.3c-0.3,0.2-0.6,0.3-0.9,0.5c-0.2,0.1-0.4,0.2-0.7,0.2c-0.5,0.1-1,0.1-1.5-0.1
	c-0.3-0.1-0.5-0.2-0.8-0.4c-0.4-0.2-0.8-0.2-1.2-0.1c-0.3,0.1-0.6,0.2-0.8,0.3c-0.3,0.1-0.6,0.2-1,0.3c-0.7,0.2-1.3,0.1-1.9-0.2
	c-0.2-0.1-0.4-0.2-0.6-0.4c-0.2-0.1-0.5-0.3-0.7-0.4c-0.2-0.1-0.4-0.1-0.5-0.1c-0.2,0-0.4,0.1-0.5,0.3c-0.1,0.2-0.1,0.4-0.2,0.6
	c-0.1,0.3-0.1,0.6-0.2,0.9c-0.1,0.3-0.2,0.5-0.5,0.7c-0.4,0.3-0.8,0.3-1.2,0.1c-0.2-0.1-0.3-0.2-0.5-0.3c-0.2-0.1-0.4-0.3-0.6-0.4
	c-0.1-0.1-0.2-0.1-0.3,0c0,0.1,0.1,0.2,0.1,0.3c0.6,1,1.5,1.9,2.5,2.7c0.6,0.4,1.3,0.8,2,1c1.3,0.4,2.6,0.6,4.1,0.6
	c0.1,0,0.1,0,0.2,0c-0.2-0.4-0.4-0.7-0.7-1.1c-0.2,0-0.4,0.1-0.7,0.1c-0.2,0-0.4-0.1-0.5-0.3c-0.1-0.1,0-0.3,0.2-0.4
	c0.1,0,0.2-0.1,0.2-0.1c0.1,0,0.2-0.1,0.3-0.1c0.3-0.2,0.6-0.3,1-0.4c0.1,0,0.2,0,0.3-0.1c1.3-0.5,2.6-1,4-1.5
	c0.5-0.2,0.9-0.4,1.2-0.8c0.1-0.1,0.2-0.2,0.3-0.3c0.1-0.1,0.2-0.2,0.4-0.2c0.3-0.1,0.5,0.1,0.5,0.3c0,0.1,0,0.2-0.1,0.3
	c-0.1,0.1-0.2,0.2-0.3,0.4c-0.1,0.1-0.2,0.2-0.3,0.3c0.2,0.2,0.4,0.3,0.7,0.5C50.5,378.8,50.6,378.7,50.7,378.5z M58.7,394.6
	c0.8-0.3,1.5-0.7,2.2-1.1c-1.1-1-2.1-1.9-3.1-3c-0.6,0.3-1.2,0.6-1.9,1C56.9,392.5,57.8,393.5,58.7,394.6z M56.8,385.5
	c-1.2-1-2.4-2-3.5-3c-0.5,0.3-1,0.5-1.5,0.8c1.1,1.1,2.1,2.1,3.2,3.2C55.6,386.1,56.2,385.8,56.8,385.5z M58.1,389.6
	c0.6-0.3,1.3-0.6,1.9-0.9c-0.9-1-1.8-1.9-2.9-2.8c-0.6,0.3-1.1,0.7-1.7,1C56.4,387.8,57.2,388.7,58.1,389.6z M52,387.9
	c-1-1.1-1.9-2.3-2.9-3.3c-0.5,0.2-1,0.5-1.5,0.7c0.9,1.1,1.8,2.3,2.7,3.4C50.8,388.4,51.4,388.2,52,387.9z M52.4,388.4
	c-0.6,0.2-1.2,0.5-1.8,0.7c0.8,1.1,1.7,2.1,2.6,3.1c0.5-0.3,1.1-0.6,1.6-0.9C54,390.4,53.2,389.4,52.4,388.4z M53.2,388.1
	c0.8,1,1.5,1.9,2.4,2.8c0.6-0.3,1.2-0.6,1.8-1c-0.9-0.9-1.7-1.8-2.6-2.7C54.2,387.6,53.7,387.8,53.2,388.1z M51,383.6
	c-0.4,0.2-0.8,0.4-1.2,0.6c1,1.1,2,2.3,3,3.4c0.5-0.3,1-0.5,1.5-0.8C53.2,385.7,52.1,384.7,51,383.6z M61.4,393
	c0.7-0.6,0.9-1.3,0.4-2.1c-0.4-0.6-0.8-1.1-1.3-1.7c0,0-0.1-0.1-0.1-0.1c-0.6,0.3-1.2,0.6-1.9,1C59.5,391.1,60.5,392,61.4,393z
	 M44.4,380.8c-0.1,0.1-0.2,0.2-0.1,0.3c0.1,0.1,0.2,0.3,0.3,0.4c0.8,1.1,1.7,2.1,2.5,3.2c0,0,0.1,0,0.1,0.1c0.5-0.2,0.9-0.5,1.4-0.7
	c-1.2-1.2-2.4-2.4-3.6-3.6C44.9,380.6,44.6,380.7,44.4,380.8z M49.4,383.8c0.4-0.2,0.8-0.4,1.2-0.6c-1.1-1.2-2.2-2.3-3.3-3.4
	c-0.5,0.2-0.9,0.4-1.4,0.5C47,381.4,48.2,382.6,49.4,383.8z M48,379.4c1.1,1.1,2.2,2.2,3.3,3.3c0.5-0.2,1-0.5,1.5-0.7
	c-1.2-1.1-2.4-2.1-3.6-3.1C48.8,379.1,48.4,379.3,48,379.4z M55.2,391.8c-0.5,0.3-1.1,0.6-1.6,0.9c0.5,0.5,1,1.1,1.7,1.5
	c0.3,0.2,0.5,0.3,0.8,0.5c0.6,0.3,1.3,0.3,2,0.1C57,393.9,56.1,392.8,55.2,391.8z M39.5,350c0.1,0.9,0.1,1.9,0.3,2.8
	c0.2,0.7,0.4,1.5,0.8,2.2c0.1,0.2,0.3,0.4,0.5,0.6c0.4,0.4,0.9,0.7,1.4,0.9c1.3,0.7,2.6,1.4,3.8,2.2c0.1,0,0.1,0.1,0.3,0.1
	c0-0.1,0-0.2,0-0.3c-0.1-0.6-0.1-1.1-0.2-1.7c-0.2-1.3-0.4-2.6-0.6-3.9c0-0.2-0.1-0.3-0.3-0.4c-1.7-1-3.6-1.8-5.5-2.6
	c-0.1,0-0.2-0.1-0.3-0.1C39.5,349.9,39.5,350,39.5,350z M46.7,353.7c0.3,1.5,0.5,3,0.6,4.5c0,0.3,0,0.6,0,1c0,0.1,0,0.2,0.2,0.3
	c0.7,0.5,1.4,1,2.1,1.5c0.7,0.6,1.2,1.2,1.4,2c0,0.1,0.1,0.2,0.1,0.3c0.2,0,0.3-0.1,0.3-0.2c0.1-0.1,0.1-0.2,0.2-0.4
	c0.2-0.5,0.2-0.9,0.2-1.4c0-1.1-0.2-2.3-0.4-3.4c0-0.1-0.1-0.2-0.1-0.2c-0.6-0.8-1.3-1.5-2-2.2c-0.7-0.6-1.5-1.3-2.3-1.8
	c-0.1-0.1-0.1-0.1-0.3-0.2C46.7,353.6,46.7,353.6,46.7,353.7z M40.8,349.7c1.5,0.6,3,1.3,4.4,2c0.1,0,0.1,0.1,0.2,0.1
	c0-0.1,0-0.2,0-0.2c-0.3-1.6-0.7-3.2-1.1-4.7c0-0.1-0.1-0.2-0.3-0.3c-0.3-0.1-0.7-0.3-1-0.4c-1-0.3-2-0.6-3.1-0.9
	c-0.2,0-0.3-0.1-0.5-0.1c0,1.4,0.1,2.7,0.1,4C40,349.4,40.4,349.5,40.8,349.7z M38.1,360.6c0.2,0.2,0.3,0.4,0.5,0.6
	c0.2,0.2,0.3,0.4,0.5,0.6c0.1,0.1,0.1,0.1,0.2,0.2c0.2-0.1,0.2-0.2,0.3-0.3c0.1-0.3,0.1-0.6,0.1-0.9c0-0.4,0-0.8,0-1.2
	c0-0.2,0-0.4,0.1-0.6c0.2-0.7,0.9-1.2,1.8-1.2c0.3,0,0.6,0.1,0.9,0.2c0.2,0.1,0.5,0.2,0.7,0.4c0.3,0.2,0.6,0.3,0.9,0.5
	c0.4,0.2,0.8,0.4,1.3,0.4c0,0-0.1,0-0.1-0.1c-0.7-0.4-1.4-0.8-2.1-1.2c-0.7-0.4-1.4-0.7-2-1.1c-0.5-0.3-0.9-0.6-1.2-1.1
	c-0.2-0.3-0.4-0.7-0.6-1c0-0.1-0.1-0.1-0.1-0.2c-0.9,0.2-1.7,0.4-2.5,0.7c0.1,1.6,0.1,3.3,0.3,4.9C37.5,360.2,37.9,360.4,38.1,360.6
	z M35.3,355.6c-1.1,0.3-2.1,0.7-3.1,1.2c-0.1,0.1-0.2,0.1-0.2,0.2c0,0.4,0,0.9,0,1.3c0,1,0.1,2,0.3,3c0.1,0.6,0.4,1.2,0.9,1.7
	c0.1,0.1,0.1,0.1,0.2,0.2c0.1-0.3,0.2-0.6,0.3-0.9c0.2-0.4,0.3-0.8,0.5-1.2c0.3-0.6,0.9-0.9,1.6-1.1c0.1,0,0.2,0,0.4-0.1
	c-0.3-1.5-0.3-3-0.4-4.6C35.7,355.5,35.5,355.6,35.3,355.6z M39.5,344.5c1.5,0.3,3,0.7,4.5,1.2c0-0.1,0-0.2,0-0.2
	c-0.7-2.1-1.3-4.1-2-6.2c-0.1-0.2-0.1-0.2-0.3-0.3c-0.6-0.1-1.3-0.2-1.9-0.4c-0.2,0-0.3,0-0.5,0.1C39.3,340.7,39.4,342.6,39.5,344.5
	z M35.9,354.6c-0.2-2.2-0.1-4.4-0.1-6.6c-0.1,0-0.2,0-0.3,0c-0.6,0.2-1.3,0.4-1.9,0.6c-0.1,0-0.1,0.1-0.2,0.2
	c-0.1,0.6-0.3,1.1-0.4,1.7c-0.3,1.4-0.5,2.8-0.8,4.2c-0.1,0.4-0.1,0.8-0.2,1.2C33.4,355.5,34.6,355.1,35.9,354.6z M45.3,347.4
	c0.1,0.4,0.2,0.9,0.3,1.3c0.3,1.2,0.5,2.4,0.8,3.5c0,0.1,0.1,0.2,0.2,0.3c1.3,0.9,2.5,1.8,3.6,2.9c0.2,0.2,0.4,0.4,0.6,0.5
	c0-0.2-0.1-0.4-0.1-0.6c-0.7-2.3-1.6-4.5-2.5-6.7c0-0.1-0.1-0.2-0.2-0.2c-0.8-0.4-1.6-0.9-2.4-1.3c-0.1,0-0.1-0.1-0.2-0.1
	C45.3,347.2,45.3,347.3,45.3,347.4z M39.2,353.8c-0.3-1.1-0.4-2.2-0.5-3.3c-0.1-0.9-0.1-1.9-0.1-2.8c0-0.1,0-0.1,0-0.2
	c-0.6,0.1-1.2,0.2-1.8,0.3c-0.1,2.2-0.1,4.4,0.1,6.6C37.6,354.2,38.4,354.1,39.2,353.8C39.2,353.9,39.2,353.9,39.2,353.8z M43,339.7
	c0.7,2.1,1.3,4.2,2,6.3c0,0.1,0.1,0.2,0.2,0.3c0.7,0.4,1.5,0.8,2.2,1.1c0.1,0,0.1,0,0.2,0.1c0-0.1-0.1-0.2-0.1-0.2
	c-0.3-0.7-0.7-1.5-1-2.2c-0.7-1.6-1.5-3.1-2.2-4.7c-0.2-0.4-0.4-0.6-0.8-0.7c-0.2-0.1-0.3-0.1-0.5-0.2
	C42.9,339.6,42.9,339.6,43,339.7z M38.4,341.2c-0.5,0.1-0.9,0.2-1.3,0.3c-0.2,1.9-0.4,3.7-0.4,5.6c0.6-0.1,1.2-0.1,1.8-0.2
	C38.5,345,38.5,343.1,38.4,341.2z M38.9,331.3c0,2.2,0.1,4.4,0.3,6.6c0.8,0.1,1.6,0.3,2.4,0.4C41.5,338,39,331.5,38.9,331.3z
	 M35.6,341.9c-0.3,0.1-0.4,0.2-0.4,0.4c-0.4,1.6-0.9,3.1-1.3,4.7c-0.1,0.2-0.1,0.5-0.2,0.7c0.7-0.2,1.4-0.4,2.1-0.6
	c0.1-1.8,0.2-3.6,0.3-5.4C35.9,341.8,35.8,341.9,35.6,341.9z M38,334.6c-0.3,2-0.6,4-0.8,6.1c0.4-0.1,0.8-0.1,1.2-0.2
	C38.2,338.5,38.1,336.6,38,334.6z M40.2,332c0,0.1,0,0.1,0.1,0.2c0.5,1.4,1.1,2.8,1.6,4.2c0.2,0.7,0.5,1.3,0.7,2
	c0,0.1,0.1,0.2,0.2,0.2c0.3,0.1,0.6,0.2,0.9,0.3C43.1,337.5,40.5,332.4,40.2,332z M36.9,336c-0.4,1.7-0.9,3.5-1.3,5.2
	c0.2,0,0.3-0.1,0.4-0.1c0.2,0,0.3-0.1,0.3-0.3c0.2-1.3,0.4-2.7,0.6-4C36.9,336.5,36.9,336.2,36.9,336C36.9,336,36.9,336,36.9,336z
	 M42.9,375.5c0.6-0.1,1,0,1.4,0.2c0.3,0.1,0.5,0.3,0.8,0.4c0.1,0.1,0.3,0.1,0.4,0.2c0.5,0.2,1.1,0.2,1.5-0.1
	c0.2-0.1,0.3-0.2,0.5-0.2c0.6-0.3,1.1-0.3,1.7-0.1c0.3,0.1,0.5,0.2,0.8,0.3c0.3,0.1,0.7,0.2,1,0.3c0.4,0.1,0.8,0,1.1-0.1
	c0.2-0.1,0.5-0.3,0.7-0.4c0.3-0.2,0.6-0.3,0.9-0.4c0.3-0.1,0.6-0.2,0.9-0.1c0.6,0,1,0.2,1.2,0.7c0.2,0.3,0.2,0.6,0.2,1
	c0,0.2,0.1,0.4,0.1,0.7c0.1,0.2,0.2,0.3,0.4,0.4c0.1-0.1,0.2-0.2,0.3-0.2c0.3-0.2,0.5-0.4,0.8-0.5c0.3-0.2,0.7-0.3,1.1-0.1
	c0,0,0-0.1,0.1-0.1c0.3-0.8,0.4-1.7,0.1-2.6c-0.4-1.2-1.8-1.8-3.3-1.4c-0.1,0-0.3,0.1-0.4,0.1c-1.1,0.4-2.1,0.4-3.3,0.2
	c-0.2-0.1-0.5-0.1-0.7-0.2c-0.4-0.1-0.7-0.1-1.1-0.1c-0.1,0-0.2,0-0.4,0c-0.5,0.1-1,0-1.5-0.3c-0.4-0.2-0.7-0.6-1-0.9
	c-0.2-0.3-0.4-0.7-0.5-1.1c-0.2-0.5-0.4-0.9-0.8-1.3c-0.1-0.1-0.2-0.2-0.3-0.3c-0.2,0-0.3,0.1-0.3,0.3c-0.1,0.2-0.2,0.5-0.2,0.7
	c0,0.5,0,1-0.1,1.5c0,0.3-0.1,0.6-0.1,0.9c-0.1,0.4-0.4,0.8-0.8,1.1c-0.3,0.2-0.6,0.4-0.9,0.6C43.2,374.7,43,375,42.9,375.5z
	 M42.5,374.2c0.4-0.3,0.7-0.5,1.1-0.7c0.6-0.3,0.9-0.8,0.9-1.4c0-0.4,0-0.7,0-1.1c0-0.4,0.1-0.8,0.1-1.2c0-0.2,0.1-0.4,0.2-0.6
	c0.1-0.1,0.2-0.3,0.3-0.4c0.5-0.4,1.1-0.4,1.6,0.1c0.3,0.3,0.6,0.7,0.8,1.1c0.2,0.4,0.3,0.7,0.5,1.1c0.1,0.2,0.3,0.5,0.4,0.7
	c0.2,0.2,0.4,0.4,0.7,0.6c0.2,0.1,0.3,0.1,0.5,0.1c0.2,0,0.4,0,0.6-0.1c0.5-0.1,0.9,0,1.4,0.1c0.3,0.1,0.6,0.2,0.9,0.2
	c0.8,0.2,1.7,0.1,2.5-0.2c0.9-0.3,1.8-0.4,2.7-0.2c0.2,0.1,0.5,0.1,0.7,0.2c0.2,0.1,0.4,0.2,0.6,0.3c0.5-0.3,1.1-0.6,1.5-1
	c0.6-0.6,1-1.4,1.2-2.2c0.2-0.8,0.3-1.5,0.2-2.3c-0.1-0.5-0.2-0.9-0.4-1.3c-0.2-0.3-0.4-0.6-0.7-0.8c-0.2-0.1-0.4-0.3-0.5-0.4
	c-0.5-0.4-0.7-0.8-0.9-1.3c-0.2-0.6-0.4-1.2-0.7-1.7c-0.1-0.2-0.2-0.4-0.3-0.5c-0.3-0.3-0.7-0.5-1.1-0.5c-0.5-0.1-0.9,0.1-1.2,0.4
	c-0.1,0.2-0.3,0.3-0.4,0.5c-0.2,0.2-0.4,0.4-0.6,0.6c-0.2,0.1-0.4,0.2-0.6,0.2c-0.4,0.1-0.7,0-0.9-0.3c-0.2-0.2-0.3-0.5-0.4-0.8
	c-0.1-0.6-0.1-1.1-0.1-1.7c0-0.3,0-0.5,0-0.8c-0.1-0.5-0.6-0.8-1.3-0.6c-0.2,0-0.4,0.1-0.6,0.2c-0.3,0.2-0.7,0.4-1,0.6
	c-0.6,0.4-1.4,0.6-2.2,0.7c-0.3,0-0.6,0.1-1,0.2c-0.6,0.1-1.1,0.5-1.6,0.8c-0.3,0.2-0.6,0.5-0.9,0.7c-0.5,0.4-0.8,1-1.1,1.5
	c-0.1,0.1-0.1,0.3-0.2,0.4c-0.2,0.3-0.5,0.5-0.9,0.4c-0.2,0-0.4,0-0.5,0.1c0,0,0,0-0.1,0c-1.3,0.5-2,1.3-2.2,2.4
	c-0.2,0.9-0.4,1.8-0.6,2.6c-0.1,0.5-0.2,0.9-0.2,1.4c0,1.1,0.5,2,1.5,2.8c0.2,0.1,0.3,0.2,0.5,0.3C41.5,373.9,42,374,42.5,374.2z
	 M43.3,379c0.3-0.2,0.5-0.3,0.7-0.5c-0.1-0.1-0.2-0.2-0.3-0.3c-0.1-0.1-0.2-0.2-0.3-0.4c-0.1-0.1-0.1-0.2-0.1-0.3
	c0-0.2,0.2-0.4,0.5-0.3c0.1,0,0.3,0.1,0.4,0.2c0.1,0.1,0.2,0.2,0.3,0.3c0.3,0.3,0.7,0.6,1.2,0.8c1.3,0.5,2.7,1,4,1.5
	c0.1,0,0.2,0.1,0.3,0.1c0.3,0.1,0.7,0.2,1,0.4c0.1,0.1,0.2,0.1,0.3,0.1c0.1,0,0.2,0.1,0.2,0.1c0.2,0.1,0.3,0.2,0.2,0.4
	c-0.1,0.2-0.3,0.3-0.5,0.3c-0.2,0-0.4-0.1-0.7-0.1c-0.2,0.4-0.4,0.7-0.7,1.1c0.1,0,0.1,0,0.2,0c1.4,0.1,2.7-0.1,4.1-0.6
	c0.8-0.2,1.4-0.6,2-1c1.1-0.8,1.9-1.6,2.5-2.7c0.1-0.1,0.1-0.2,0.1-0.3c-0.2-0.1-0.3,0-0.3,0c-0.2,0.1-0.4,0.3-0.6,0.4
	c-0.2,0.1-0.3,0.2-0.5,0.3c-0.4,0.3-0.8,0.2-1.2-0.1c-0.3-0.2-0.4-0.4-0.5-0.7c-0.1-0.3-0.1-0.6-0.2-0.9c0-0.2-0.1-0.4-0.2-0.6
	c-0.1-0.2-0.3-0.3-0.5-0.3c-0.2,0-0.4,0.1-0.5,0.1c-0.2,0.1-0.5,0.2-0.7,0.4c-0.2,0.1-0.4,0.2-0.6,0.4c-0.6,0.3-1.2,0.4-1.9,0.2
	c-0.3-0.1-0.6-0.2-1-0.3c-0.3-0.1-0.6-0.2-0.8-0.3c-0.4-0.2-0.8-0.1-1.2,0.1c-0.3,0.1-0.5,0.3-0.8,0.4c-0.5,0.2-1,0.2-1.5,0.1
	c-0.2-0.1-0.5-0.1-0.7-0.2c-0.3-0.1-0.6-0.3-0.9-0.5c-0.2-0.1-0.3-0.2-0.5-0.3c-0.4-0.2-0.9,0-0.9,0.4c0,0.2,0,0.4,0,0.5
	c0,0.5,0.2,1,0.4,1.5C43.1,378.7,43.2,378.8,43.3,379z M37.8,391.4c-0.6-0.3-1.3-0.7-1.9-1c-1,1-2,2-3.1,3c0.7,0.5,1.4,0.8,2.2,1.1
	C36,393.5,36.9,392.5,37.8,391.4z M38.7,386.4c1.1-1.1,2.1-2.1,3.2-3.2c-0.5-0.3-1-0.5-1.5-0.8c-1.2,1-2.3,2-3.5,3
	C37.6,385.8,38.2,386.1,38.7,386.4z M38.3,386.9c-0.6-0.3-1.1-0.7-1.7-1c-1,0.9-1.9,1.9-2.9,2.8c0.7,0.3,1.3,0.6,1.9,0.9
	C36.5,388.7,37.4,387.8,38.3,386.9z M43.5,388.7c0.9-1.1,1.8-2.3,2.7-3.4c-0.5-0.2-1-0.4-1.5-0.7c-1,1.1-2,2.2-2.9,3.3
	C42.4,388.2,42.9,388.4,43.5,388.7z M39,391.3c0.5,0.3,1.1,0.6,1.6,0.9c0.9-1,1.7-2.1,2.6-3.1c-0.6-0.2-1.2-0.5-1.8-0.7
	C40.6,389.4,39.8,390.4,39,391.3z M39,387.3c-0.9,0.9-1.7,1.8-2.6,2.7c0.6,0.3,1.2,0.6,1.8,1c0.8-0.9,1.6-1.9,2.4-2.8
	C40.1,387.8,39.6,387.6,39,387.3z M39.5,386.8c0.5,0.3,1,0.5,1.5,0.8c1-1.1,2-2.2,3-3.4c-0.4-0.2-0.8-0.4-1.2-0.6
	C41.6,384.7,40.6,385.7,39.5,386.8z M35.2,390.1c-0.7-0.3-1.3-0.6-1.9-1c0,0-0.1,0.1-0.1,0.1c-0.5,0.5-0.9,1.1-1.3,1.7
	c-0.5,0.8-0.3,1.4,0.4,2.1C33.3,392,34.3,391.1,35.2,390.1z M48.7,380.5c-1.2,1.2-2.4,2.4-3.6,3.6c0.5,0.2,1,0.5,1.4,0.7
	c0,0,0.1,0,0.1-0.1c0.9-1,1.8-2.1,2.5-3.2c0.1-0.1,0.2-0.3,0.3-0.4c0.1-0.1,0.1-0.3-0.1-0.3C49.1,380.7,48.9,380.6,48.7,380.5z
	 M47.9,380.3c-0.5-0.2-0.9-0.4-1.4-0.5c-1.1,1.1-2.2,2.3-3.3,3.4c0.4,0.2,0.8,0.4,1.2,0.6C45.6,382.6,46.7,381.4,47.9,380.3z
	 M44.5,378.9c-1.2,1-2.4,2.1-3.6,3.1c0.5,0.2,1,0.5,1.5,0.7c1.1-1.1,2.2-2.2,3.3-3.3C45.4,379.3,45,379.1,44.5,378.9z M35.7,394.8
	c0.7,0.2,1.4,0.2,2-0.1c0.3-0.2,0.6-0.3,0.8-0.5c0.6-0.4,1.1-1,1.7-1.5c-0.5-0.3-1.1-0.6-1.6-0.9C37.6,392.8,36.8,393.9,35.7,394.8z
	 M54.2,349.9c-0.1,0-0.2,0.1-0.3,0.1c-1.9,0.8-3.7,1.6-5.5,2.6c-0.2,0.1-0.3,0.2-0.3,0.4c-0.2,1.3-0.4,2.6-0.6,3.9
	c-0.1,0.6-0.1,1.1-0.2,1.7c0,0.1,0,0.2,0,0.3c0.1-0.1,0.2-0.1,0.3-0.1c1.2-0.8,2.5-1.5,3.8-2.2c0.5-0.3,1-0.5,1.4-0.9
	c0.2-0.2,0.3-0.4,0.5-0.6c0.4-0.7,0.6-1.4,0.8-2.2c0.2-0.9,0.2-1.9,0.3-2.8C54.2,350,54.2,349.9,54.2,349.9z M47.1,353.5
	c-0.1,0.1-0.2,0.1-0.3,0.2c-0.8,0.6-1.6,1.2-2.3,1.8c-0.8,0.7-1.4,1.4-2,2.2c-0.1,0.1-0.1,0.2-0.1,0.2c-0.2,1.1-0.4,2.3-0.4,3.4
	c0,0.5,0,1,0.2,1.4c0.1,0.1,0.1,0.2,0.2,0.4c0.1,0.1,0.1,0.2,0.3,0.2c0-0.1,0.1-0.2,0.1-0.3c0.2-0.8,0.7-1.4,1.4-2
	c0.7-0.5,1.4-1,2.1-1.5c0.1-0.1,0.2-0.2,0.2-0.3c0-0.3,0-0.6,0-1c0.1-1.5,0.3-3,0.6-4.5C47.1,353.6,47.1,353.6,47.1,353.5z
	 M54.3,349.2c0-1.3,0.1-2.6,0.1-4c-0.2,0.1-0.3,0.1-0.5,0.1c-1,0.3-2,0.6-3.1,0.9c-0.3,0.1-0.7,0.2-1,0.4c-0.1,0.1-0.2,0.1-0.3,0.3
	c-0.4,1.6-0.8,3.2-1.1,4.7c0,0.1,0,0.1,0,0.2c0.1,0,0.2-0.1,0.2-0.1c1.4-0.8,2.9-1.4,4.4-2C53.4,349.5,53.8,349.4,54.3,349.2z
	 M56.6,360.1c0.2-1.6,0.2-3.3,0.3-4.9c-0.8-0.3-1.7-0.5-2.5-0.7c0,0.1-0.1,0.1-0.1,0.2c-0.2,0.3-0.4,0.7-0.6,1
	c-0.3,0.4-0.7,0.8-1.2,1.1c-0.7,0.4-1.4,0.7-2,1.1c-0.7,0.4-1.4,0.8-2.1,1.2c0,0-0.1,0-0.1,0.1c0.5,0,0.9-0.2,1.3-0.4
	c0.3-0.2,0.6-0.3,0.9-0.5c0.2-0.1,0.5-0.3,0.7-0.4c0.3-0.1,0.6-0.2,0.9-0.2c0.9,0,1.7,0.4,1.8,1.2c0,0.2,0.1,0.4,0.1,0.6
	c0,0.4,0,0.8,0,1.2c0,0.3,0.1,0.6,0.1,0.9c0,0.1,0.1,0.2,0.3,0.3c0.1-0.1,0.2-0.1,0.2-0.2c0.2-0.2,0.3-0.4,0.5-0.6
	c0.2-0.2,0.3-0.4,0.5-0.6C55.9,360.4,56.2,360.2,56.6,360.1z M57.9,355.5c-0.1,1.5,0,3.1-0.4,4.6c0.2,0,0.3,0.1,0.4,0.1
	c0.8,0.2,1.3,0.5,1.6,1.1c0.2,0.4,0.4,0.8,0.5,1.2c0.1,0.3,0.2,0.6,0.3,0.9c0.1-0.1,0.2-0.2,0.2-0.2c0.5-0.5,0.7-1.1,0.9-1.7
	c0.2-1,0.3-2,0.3-3c0-0.4,0-0.9,0-1.3c0-0.1-0.1-0.2-0.2-0.2c-1-0.4-2-0.8-3.1-1.2C58.3,355.6,58.1,355.5,57.9,355.5z M54.6,338.7
	c-0.1-0.1-0.3-0.1-0.5-0.1c-0.6,0.1-1.2,0.3-1.9,0.4c-0.2,0-0.3,0.1-0.3,0.3c-0.7,2.1-1.3,4.1-2,6.2c0,0.1,0,0.1,0,0.2
	c1.5-0.5,2.9-0.9,4.5-1.2C54.4,342.6,54.5,340.7,54.6,338.7z M61.7,356c-0.1-0.4-0.1-0.8-0.2-1.2c-0.2-1.4-0.5-2.8-0.8-4.2
	c-0.1-0.6-0.3-1.1-0.4-1.7c0-0.1,0-0.2-0.2-0.2c-0.6-0.2-1.3-0.4-1.9-0.6c-0.1,0-0.2,0-0.3,0c0,2.2,0,4.4-0.1,6.6
	C59.1,355.1,60.4,355.5,61.7,356z M48.5,347.1c-0.1,0-0.2,0.1-0.2,0.1c-0.8,0.4-1.6,0.8-2.4,1.3c-0.1,0.1-0.2,0.2-0.2,0.2
	c-0.9,2.2-1.8,4.4-2.5,6.7c-0.1,0.2-0.1,0.4-0.1,0.6c0.2-0.2,0.4-0.4,0.6-0.5c1.1-1.1,2.3-2,3.6-2.9c0.1-0.1,0.2-0.2,0.2-0.3
	c0.2-1.2,0.5-2.4,0.8-3.5c0.1-0.4,0.2-0.9,0.3-1.3C48.4,347.3,48.5,347.2,48.5,347.1z M54.6,353.9c0.8,0.2,1.6,0.3,2.4,0.5
	c0.1-2.2,0.2-4.4,0.1-6.6c-0.6-0.1-1.2-0.2-1.8-0.3c0,0.1,0,0.1,0,0.2c0,0.9-0.1,1.9-0.1,2.8C55.1,351.7,54.9,352.8,54.6,353.9
	C54.6,353.9,54.6,353.9,54.6,353.9z M50.9,339.4c-0.2,0.1-0.4,0.2-0.5,0.2c-0.4,0.1-0.7,0.4-0.8,0.7c-0.7,1.6-1.5,3.1-2.2,4.7
	c-0.4,0.7-0.7,1.5-1,2.2c0,0.1-0.1,0.1-0.1,0.2c0.1,0,0.1-0.1,0.2-0.1c0.7-0.4,1.5-0.8,2.2-1.1c0.1-0.1,0.2-0.1,0.2-0.3
	c0.7-2.1,1.3-4.2,2-6.3C50.8,339.6,50.8,339.6,50.9,339.4z M55.3,346.9c0.6,0.1,1.2,0.1,1.8,0.2c0-1.9-0.2-3.7-0.4-5.6
	c-0.4-0.1-0.9-0.2-1.3-0.3C55.3,343.1,55.3,345,55.3,346.9z M52.3,338.3c0.8-0.1,1.6-0.3,2.4-0.4c0.2-2.2,0.2-4.4,0.3-6.6
	C54.7,331.5,52.3,338,52.3,338.3z M57.7,341.8c0.1,1.8,0.2,3.6,0.3,5.4c0.7,0.2,1.3,0.4,2.1,0.6c-0.1-0.3-0.1-0.5-0.2-0.7
	c-0.4-1.6-0.9-3.1-1.3-4.7c-0.1-0.2-0.2-0.3-0.4-0.4C58,341.9,57.9,341.8,57.7,341.8z M55.4,340.5c0.4,0.1,0.8,0.1,1.2,0.2
	c-0.3-2-0.6-4-0.8-6.1C55.6,336.6,55.5,338.5,55.4,340.5z M50.2,338.9c0.3-0.1,0.6-0.2,0.9-0.3c0.1,0,0.1-0.1,0.2-0.2
	c0.2-0.7,0.5-1.3,0.7-2c0.5-1.4,1.1-2.8,1.6-4.2c0,0,0-0.1,0.1-0.2C53.2,332.4,50.7,337.5,50.2,338.9z M56.9,336
	c0,0.3,0.1,0.5,0.1,0.8c0.2,1.3,0.4,2.7,0.6,4c0,0.2,0.1,0.3,0.3,0.3c0.1,0,0.3,0.1,0.4,0.1C57.8,339.4,57.3,337.7,56.9,336
	C56.9,336,56.9,336,56.9,336z M381.6,375.5c0.6-0.1,1,0,1.4,0.2c0.3,0.1,0.6,0.3,0.8,0.4c0.1,0.1,0.3,0.1,0.4,0.2
	c0.5,0.2,1.1,0.2,1.6-0.1c0.2-0.1,0.3-0.2,0.5-0.2c0.6-0.3,1.2-0.3,1.8-0.1c0.3,0.1,0.5,0.2,0.8,0.3c0.3,0.1,0.7,0.2,1.1,0.3
	c0.4,0.1,0.8,0,1.1-0.1c0.3-0.1,0.5-0.3,0.7-0.4c0.3-0.2,0.6-0.3,0.9-0.4c0.3-0.1,0.6-0.2,0.9-0.1c0.6,0,1,0.2,1.2,0.7
	c0.2,0.3,0.2,0.6,0.2,1c0,0.2,0.1,0.4,0.1,0.7c0.1,0.2,0.2,0.3,0.4,0.4c0.1-0.1,0.2-0.2,0.3-0.2c0.3-0.2,0.5-0.4,0.8-0.5
	c0.3-0.2,0.7-0.3,1.1-0.1c0,0,0-0.1,0.1-0.1c0.3-0.8,0.4-1.7,0.1-2.6c-0.4-1.2-1.8-1.8-3.3-1.4c-0.1,0-0.3,0.1-0.4,0.1
	c-1.1,0.4-2.2,0.4-3.3,0.2c-0.2-0.1-0.5-0.1-0.7-0.2c-0.4-0.1-0.7-0.1-1.1-0.1c-0.1,0-0.2,0-0.4,0c-0.5,0.1-1,0-1.5-0.3
	c-0.4-0.2-0.7-0.6-1-0.9c-0.2-0.3-0.4-0.7-0.5-1.1c-0.2-0.5-0.5-0.9-0.8-1.3c-0.1-0.1-0.2-0.2-0.3-0.3c-0.2,0-0.3,0.1-0.3,0.3
	c-0.1,0.2-0.2,0.5-0.2,0.7c0,0.5,0,1-0.1,1.5c0,0.3-0.1,0.6-0.1,0.9c-0.1,0.4-0.4,0.8-0.8,1.1c-0.3,0.2-0.6,0.4-0.9,0.6
	C381.9,374.7,381.7,375,381.6,375.5z M381.2,374.2c0.4-0.3,0.7-0.5,1.1-0.7c0.6-0.3,0.9-0.8,0.9-1.4c0-0.4,0-0.7,0-1.1
	c0-0.4,0.1-0.8,0.1-1.2c0-0.2,0.1-0.4,0.2-0.6c0.1-0.1,0.2-0.3,0.3-0.4c0.5-0.4,1.1-0.4,1.6,0.1c0.3,0.3,0.6,0.7,0.8,1.1
	c0.2,0.4,0.3,0.7,0.5,1.1c0.1,0.2,0.3,0.5,0.4,0.7c0.2,0.2,0.4,0.4,0.7,0.6c0.2,0.1,0.3,0.1,0.5,0.1c0.2,0,0.4,0,0.6-0.1
	c0.5-0.1,0.9,0,1.4,0.1c0.3,0.1,0.6,0.2,0.9,0.2c0.9,0.2,1.7,0.1,2.5-0.2c0.9-0.3,1.8-0.4,2.7-0.2c0.2,0.1,0.5,0.1,0.7,0.2
	c0.2,0.1,0.4,0.2,0.7,0.3c0.5-0.3,1.1-0.6,1.5-1c0.6-0.6,1-1.4,1.3-2.2c0.2-0.8,0.3-1.5,0.2-2.3c-0.1-0.5-0.2-0.9-0.4-1.3
	c-0.2-0.3-0.4-0.6-0.7-0.8c-0.2-0.1-0.4-0.3-0.6-0.4c-0.5-0.4-0.7-0.8-0.9-1.3c-0.2-0.6-0.4-1.2-0.7-1.7c-0.1-0.2-0.2-0.4-0.3-0.5
	c-0.3-0.3-0.7-0.5-1.1-0.5c-0.5-0.1-0.9,0.1-1.2,0.4c-0.1,0.2-0.3,0.3-0.4,0.5c-0.2,0.2-0.4,0.4-0.6,0.6c-0.2,0.1-0.4,0.2-0.6,0.2
	c-0.4,0.1-0.7,0-0.9-0.3c-0.2-0.2-0.3-0.5-0.4-0.8c-0.1-0.6-0.1-1.1-0.1-1.7c0-0.3,0-0.5,0-0.8c-0.1-0.5-0.6-0.8-1.3-0.6
	c-0.2,0-0.4,0.1-0.6,0.2c-0.3,0.2-0.7,0.4-1,0.6c-0.7,0.4-1.4,0.6-2.2,0.7c-0.3,0-0.6,0.1-1,0.2c-0.6,0.1-1.1,0.5-1.6,0.8
	c-0.3,0.2-0.6,0.5-0.9,0.7c-0.5,0.4-0.8,1-1.1,1.5c-0.1,0.1-0.2,0.3-0.2,0.4c-0.2,0.3-0.5,0.5-0.9,0.4c-0.2,0-0.4,0-0.5,0.1
	c0,0,0,0-0.1,0c-1.4,0.5-2,1.3-2.2,2.4c-0.2,0.9-0.4,1.8-0.6,2.6c-0.1,0.5-0.2,0.9-0.2,1.4c0,1.1,0.5,2,1.5,2.8
	c0.2,0.1,0.3,0.2,0.5,0.3C380.2,373.9,380.7,374,381.2,374.2z M382,379c0.3-0.2,0.5-0.3,0.7-0.5c-0.1-0.1-0.2-0.2-0.3-0.3
	c-0.1-0.1-0.2-0.2-0.3-0.4c-0.1-0.1-0.1-0.2-0.1-0.3c0-0.2,0.2-0.4,0.5-0.3c0.1,0,0.3,0.1,0.4,0.2c0.1,0.1,0.2,0.2,0.3,0.3
	c0.3,0.3,0.8,0.6,1.3,0.8c1.3,0.5,2.7,1,4,1.5c0.1,0,0.2,0.1,0.3,0.1c0.4,0.1,0.7,0.2,1,0.4c0.1,0.1,0.2,0.1,0.3,0.1
	c0.1,0,0.2,0.1,0.2,0.1c0.2,0.1,0.3,0.2,0.2,0.4c-0.1,0.2-0.3,0.3-0.5,0.3c-0.2,0-0.4-0.1-0.7-0.1c-0.2,0.4-0.4,0.7-0.7,1.1
	c0.1,0,0.1,0,0.2,0c1.4,0.1,2.8-0.1,4.1-0.6c0.8-0.2,1.4-0.6,2.1-1c1.1-0.8,1.9-1.6,2.6-2.7c0.1-0.1,0.1-0.2,0.1-0.3
	c-0.2-0.1-0.3,0-0.4,0c-0.2,0.1-0.4,0.3-0.6,0.4c-0.2,0.1-0.3,0.2-0.5,0.3c-0.4,0.3-0.9,0.2-1.3-0.1c-0.3-0.2-0.4-0.4-0.5-0.7
	c-0.1-0.3-0.1-0.6-0.2-0.9c0-0.2-0.1-0.4-0.2-0.6c-0.1-0.2-0.3-0.3-0.5-0.3c-0.2,0-0.4,0.1-0.5,0.1c-0.3,0.1-0.5,0.2-0.7,0.4
	c-0.2,0.1-0.4,0.2-0.6,0.4c-0.6,0.3-1.2,0.4-1.9,0.2c-0.3-0.1-0.6-0.2-1-0.3c-0.3-0.1-0.6-0.2-0.9-0.3c-0.4-0.2-0.9-0.1-1.3,0.1
	c-0.3,0.1-0.5,0.3-0.8,0.4c-0.5,0.2-1,0.2-1.5,0.1c-0.2-0.1-0.5-0.1-0.7-0.2c-0.3-0.1-0.6-0.3-0.9-0.5c-0.2-0.1-0.3-0.2-0.5-0.3
	c-0.4-0.2-0.9,0-0.9,0.4c0,0.2,0,0.4,0,0.5c0,0.5,0.2,1,0.4,1.5C381.8,378.7,381.9,378.8,382,379z M376.5,391.4
	c-0.7-0.3-1.3-0.7-1.9-1c-1,1-2,2-3.2,3c0.7,0.5,1.4,0.8,2.2,1.1C374.6,393.5,375.5,392.5,376.5,391.4z M377.4,386.4
	c1.1-1.1,2.2-2.1,3.3-3.2c-0.5-0.3-1-0.5-1.5-0.8c-1.2,1-2.4,2-3.6,3C376.2,385.8,376.8,386.1,377.4,386.4z M376.9,386.9
	c-0.6-0.3-1.1-0.7-1.7-1c-1,0.9-1.9,1.9-2.9,2.8c0.7,0.3,1.3,0.6,1.9,0.9C375.1,388.7,376,387.8,376.9,386.9z M382.2,388.7
	c0.9-1.1,1.8-2.3,2.7-3.4c-0.5-0.2-1-0.4-1.5-0.7c-1,1.1-2,2.2-3,3.3C381.1,388.2,381.6,388.4,382.2,388.7z M377.6,391.3
	c0.5,0.3,1.1,0.6,1.6,0.9c0.9-1,1.8-2.1,2.6-3.1c-0.6-0.2-1.2-0.5-1.8-0.7C379.2,389.4,378.4,390.4,377.6,391.3z M377.6,387.3
	c-0.9,0.9-1.7,1.8-2.6,2.7c0.6,0.3,1.2,0.6,1.8,1c0.8-0.9,1.6-1.9,2.4-2.8C378.7,387.8,378.2,387.6,377.6,387.3z M378.1,386.8
	c0.5,0.3,1,0.5,1.5,0.8c1-1.1,2-2.2,3-3.4c-0.4-0.2-0.8-0.4-1.2-0.6C380.3,384.7,379.2,385.7,378.1,386.8z M373.8,390.1
	c-0.7-0.3-1.3-0.6-1.9-1c0,0-0.1,0.1-0.1,0.1c-0.5,0.5-0.9,1.1-1.3,1.7c-0.5,0.8-0.3,1.4,0.4,2.1C371.9,392,372.8,391.1,373.8,390.1
	z M387.4,380.5c-1.2,1.2-2.4,2.4-3.6,3.6c0.5,0.2,1,0.5,1.4,0.7c0,0,0.1,0,0.1-0.1c0.9-1,1.8-2.1,2.6-3.2c0.1-0.1,0.2-0.3,0.3-0.4
	c0.1-0.1,0.1-0.3-0.1-0.3C387.9,380.7,387.7,380.6,387.4,380.5z M386.7,380.3c-0.5-0.2-1-0.4-1.4-0.5c-1.1,1.1-2.2,2.3-3.4,3.4
	c0.4,0.2,0.8,0.4,1.2,0.6C384.3,382.6,385.5,381.4,386.7,380.3z M383.2,378.9c-1.2,1-2.4,2.1-3.6,3.1c0.5,0.2,1,0.5,1.5,0.7
	c1.1-1.1,2.2-2.2,3.4-3.3C384.1,379.3,383.7,379.1,383.2,378.9z M374.3,394.8c0.7,0.2,1.4,0.2,2-0.1c0.3-0.2,0.6-0.3,0.8-0.5
	c0.6-0.4,1.1-1,1.7-1.5c-0.5-0.3-1.1-0.6-1.6-0.9C376.3,392.8,375.4,393.9,374.3,394.8z M393,349.9c-0.1,0-0.2,0.1-0.3,0.1
	c-1.9,0.8-3.8,1.6-5.5,2.6c-0.2,0.1-0.3,0.2-0.3,0.4c-0.2,1.3-0.4,2.6-0.6,3.9c-0.1,0.6-0.1,1.1-0.2,1.7c0,0.1,0,0.2,0,0.3
	c0.1-0.1,0.2-0.1,0.3-0.1c1.3-0.8,2.5-1.5,3.9-2.2c0.5-0.3,1-0.5,1.4-0.9c0.2-0.2,0.3-0.4,0.5-0.6c0.4-0.7,0.6-1.4,0.8-2.2
	c0.2-0.9,0.2-1.9,0.3-2.8C393.1,350,393.1,349.9,393,349.9z M385.8,353.5c-0.1,0.1-0.2,0.1-0.3,0.2c-0.8,0.6-1.6,1.2-2.3,1.8
	c-0.8,0.7-1.4,1.4-2.1,2.2c-0.1,0.1-0.1,0.2-0.1,0.2c-0.2,1.1-0.4,2.3-0.4,3.4c0,0.5,0,1,0.2,1.4c0.1,0.1,0.1,0.2,0.2,0.4
	c0.1,0.1,0.1,0.2,0.3,0.2c0-0.1,0.1-0.2,0.2-0.3c0.2-0.8,0.7-1.4,1.4-2c0.7-0.5,1.4-1,2.1-1.5c0.1-0.1,0.2-0.2,0.2-0.3
	c0-0.3,0-0.6,0-1c0.1-1.5,0.3-3,0.6-4.5C385.8,353.6,385.8,353.6,385.8,353.5z M393.1,349.2c0-1.3,0.1-2.6,0.1-4
	c-0.2,0.1-0.3,0.1-0.5,0.1c-1,0.3-2.1,0.6-3.1,0.9c-0.3,0.1-0.7,0.2-1,0.4c-0.2,0.1-0.2,0.1-0.3,0.3c-0.4,1.6-0.8,3.2-1.1,4.7
	c0,0.1,0,0.1,0,0.2c0.1,0,0.2-0.1,0.2-0.1c1.4-0.8,2.9-1.4,4.4-2C392.2,349.5,392.6,349.4,393.1,349.2z M395.5,360.1
	c0.2-1.6,0.2-3.3,0.3-4.9c-0.8-0.3-1.7-0.5-2.6-0.7c0,0.1-0.1,0.1-0.1,0.2c-0.2,0.3-0.4,0.7-0.6,1c-0.3,0.4-0.7,0.8-1.2,1.1
	c-0.7,0.4-1.4,0.7-2,1.1c-0.7,0.4-1.4,0.8-2.1,1.2c0,0-0.1,0-0.1,0.1c0.5,0,1-0.2,1.4-0.4c0.3-0.2,0.6-0.3,0.9-0.5
	c0.2-0.1,0.5-0.3,0.7-0.4c0.3-0.1,0.6-0.2,0.9-0.2c0.9,0,1.7,0.4,1.9,1.2c0,0.2,0.1,0.4,0.1,0.6c0,0.4,0,0.8,0,1.2
	c0,0.3,0.1,0.6,0.1,0.9c0,0.1,0.1,0.2,0.3,0.3c0.1-0.1,0.2-0.1,0.2-0.2c0.2-0.2,0.4-0.4,0.5-0.6c0.2-0.2,0.3-0.4,0.5-0.6
	C394.7,360.4,395.1,360.2,395.5,360.1z M396.7,355.5c-0.1,1.5,0,3.1-0.4,4.6c0.2,0,0.3,0.1,0.4,0.1c0.8,0.2,1.3,0.5,1.6,1.1
	c0.2,0.4,0.4,0.8,0.5,1.2c0.1,0.3,0.2,0.6,0.3,0.9c0.1-0.1,0.2-0.2,0.3-0.2c0.5-0.5,0.7-1.1,0.9-1.7c0.2-1,0.3-2,0.3-3
	c0-0.4,0-0.9,0-1.3c0-0.1-0.1-0.2-0.2-0.2c-1-0.4-2.1-0.8-3.1-1.2C397.1,355.6,396.9,355.5,396.7,355.5z M393.4,338.7
	c-0.1-0.1-0.3-0.1-0.5-0.1c-0.6,0.1-1.3,0.3-1.9,0.4c-0.2,0-0.3,0.1-0.3,0.3c-0.7,2.1-1.3,4.1-2,6.2c0,0.1,0,0.1,0,0.2
	c1.5-0.5,3-0.9,4.5-1.2C393.2,342.6,393.3,340.7,393.4,338.7z M400.6,356c-0.1-0.4-0.1-0.8-0.2-1.2c-0.2-1.4-0.5-2.8-0.8-4.2
	c-0.1-0.6-0.3-1.1-0.4-1.7c0-0.1,0-0.2-0.2-0.2c-0.7-0.2-1.3-0.4-2-0.6c-0.1,0-0.2,0-0.3,0c0,2.2,0,4.4-0.1,6.6
	C398,355.1,399.3,355.5,400.6,356z M387.2,347.1c-0.1,0-0.2,0.1-0.2,0.1c-0.8,0.4-1.6,0.8-2.4,1.3c-0.1,0.1-0.2,0.2-0.2,0.2
	c-1,2.2-1.9,4.4-2.6,6.7c-0.1,0.2-0.1,0.4-0.1,0.6c0.2-0.2,0.4-0.4,0.6-0.5c1.1-1.1,2.3-2,3.6-2.9c0.1-0.1,0.2-0.2,0.2-0.3
	c0.2-1.2,0.5-2.4,0.8-3.5c0.1-0.4,0.2-0.9,0.3-1.3C387.2,347.3,387.2,347.2,387.2,347.1z M393.4,353.9c0.8,0.2,1.6,0.3,2.4,0.5
	c0.1-2.2,0.2-4.4,0.1-6.6c-0.6-0.1-1.2-0.2-1.8-0.3c0,0.1,0,0.1,0,0.2c0,0.9-0.1,1.9-0.1,2.8C393.9,351.7,393.8,352.8,393.4,353.9
	C393.4,353.9,393.4,353.9,393.4,353.9z M389.6,339.4c-0.2,0.1-0.4,0.2-0.6,0.2c-0.4,0.1-0.7,0.4-0.8,0.7c-0.7,1.6-1.5,3.1-2.2,4.7
	c-0.4,0.7-0.7,1.5-1.1,2.2c0,0.1-0.1,0.1-0.1,0.2c0.1,0,0.2-0.1,0.2-0.1c0.7-0.4,1.5-0.8,2.2-1.1c0.1-0.1,0.2-0.1,0.2-0.3
	c0.7-2.1,1.3-4.2,2-6.3C389.6,339.6,389.6,339.6,389.6,339.4z M394.1,346.9c0.6,0.1,1.2,0.1,1.8,0.2c0-1.9-0.2-3.7-0.4-5.6
	c-0.4-0.1-0.9-0.2-1.4-0.3C394.1,343.1,394.1,345,394.1,346.9z M391.1,338.3c0.8-0.1,1.6-0.3,2.4-0.4c0.2-2.2,0.2-4.4,0.3-6.6
	C393.6,331.5,391.1,338,391.1,338.3z M396.5,341.8c0.1,1.8,0.2,3.6,0.3,5.4c0.7,0.2,1.4,0.4,2.1,0.6c-0.1-0.3-0.1-0.5-0.2-0.7
	c-0.4-1.6-0.9-3.1-1.3-4.7c-0.1-0.2-0.2-0.3-0.4-0.4C396.9,341.9,396.7,341.8,396.5,341.8z M394.2,340.5c0.4,0.1,0.8,0.1,1.2,0.2
	c-0.3-2-0.6-4-0.9-6.1C394.5,336.6,394.4,338.5,394.2,340.5z M389,338.9c0.3-0.1,0.6-0.2,0.9-0.3c0.1,0,0.1-0.1,0.2-0.2
	c0.2-0.7,0.5-1.3,0.7-2c0.5-1.4,1.1-2.8,1.6-4.2c0,0,0-0.1,0.1-0.2C392,332.4,389.5,337.5,389,338.9z M395.7,336
	c0,0.3,0.1,0.5,0.1,0.8c0.2,1.3,0.4,2.7,0.6,4c0,0.2,0.1,0.3,0.3,0.3c0.1,0,0.3,0.1,0.4,0.1C396.6,339.4,396.2,337.7,395.7,336
	C395.7,336,395.7,336,395.7,336z M388.9,374.4c-0.3-0.2-0.6-0.4-0.9-0.6c-0.4-0.3-0.7-0.6-0.8-1.1c-0.1-0.3-0.1-0.6-0.1-0.9
	c0-0.5,0-1-0.1-1.5c0-0.3-0.1-0.5-0.2-0.7c0-0.1-0.1-0.2-0.3-0.3c-0.1,0.1-0.2,0.2-0.3,0.3c-0.3,0.4-0.6,0.9-0.8,1.3
	c-0.2,0.4-0.3,0.7-0.5,1.1c-0.2,0.4-0.5,0.7-1,0.9c-0.4,0.3-0.9,0.4-1.5,0.3c-0.1,0-0.2,0-0.4,0c-0.4-0.1-0.8,0-1.1,0.1
	c-0.2,0.1-0.5,0.1-0.7,0.2c-1.1,0.3-2.2,0.2-3.3-0.2c-0.1-0.1-0.3-0.1-0.4-0.1c-1.5-0.4-2.9,0.2-3.3,1.4c-0.3,0.9-0.2,1.7,0.1,2.6
	c0,0,0,0.1,0.1,0.1c0.4-0.1,0.8-0.1,1.1,0.1c0.3,0.2,0.5,0.4,0.8,0.5c0.1,0.1,0.2,0.2,0.3,0.2c0.3-0.1,0.4-0.2,0.4-0.4
	c0.1-0.2,0.1-0.4,0.1-0.7c0.1-0.3,0.1-0.7,0.2-1c0.2-0.4,0.6-0.7,1.2-0.7c0.3,0,0.6,0,0.9,0.1c0.3,0.1,0.6,0.3,0.9,0.4
	c0.3,0.1,0.5,0.3,0.7,0.4c0.3,0.2,0.7,0.2,1.1,0.1c0.4-0.1,0.7-0.2,1.1-0.3c0.3-0.1,0.6-0.2,0.8-0.3c0.6-0.2,1.2-0.2,1.8,0.1
	c0.2,0.1,0.3,0.1,0.5,0.2c0.5,0.3,1,0.3,1.6,0.1c0.1-0.1,0.3-0.1,0.4-0.2c0.3-0.1,0.6-0.3,0.8-0.4c0.4-0.2,0.9-0.4,1.4-0.2
	C389.5,375,389.3,374.7,388.9,374.4z M391.5,373.6c0.2-0.1,0.4-0.2,0.5-0.3c1-0.7,1.6-1.7,1.5-2.8c0-0.5-0.1-1-0.2-1.4
	c-0.2-0.9-0.4-1.8-0.6-2.6c-0.2-1.1-0.8-2-2.2-2.4c0,0,0,0-0.1,0c-0.2-0.1-0.3-0.1-0.5-0.1c-0.4,0.1-0.7-0.1-0.9-0.4
	c-0.1-0.1-0.1-0.3-0.2-0.4c-0.3-0.5-0.7-1-1.1-1.5c-0.3-0.2-0.6-0.5-0.9-0.7c-0.5-0.4-0.9-0.7-1.6-0.8c-0.3-0.1-0.6-0.1-1-0.2
	c-0.8-0.1-1.5-0.3-2.2-0.7c-0.3-0.2-0.7-0.4-1-0.6c-0.2-0.1-0.4-0.2-0.6-0.2c-0.6-0.2-1.2,0.1-1.3,0.6c0,0.3,0,0.5,0,0.8
	c0,0.6,0.1,1.1-0.1,1.7c-0.1,0.3-0.2,0.5-0.4,0.8c-0.2,0.2-0.5,0.3-0.9,0.3c-0.2,0-0.5-0.1-0.6-0.2c-0.2-0.2-0.4-0.4-0.6-0.6
	c-0.1-0.2-0.3-0.3-0.4-0.5c-0.3-0.3-0.7-0.5-1.2-0.4c-0.5,0-0.9,0.2-1.1,0.5c-0.1,0.2-0.3,0.3-0.3,0.5c-0.2,0.6-0.4,1.2-0.7,1.7
	c-0.2,0.5-0.4,0.9-0.9,1.3c-0.2,0.1-0.4,0.3-0.6,0.4c-0.3,0.2-0.5,0.5-0.7,0.8c-0.2,0.4-0.4,0.9-0.4,1.3c-0.1,0.8,0,1.6,0.2,2.3
	c0.2,0.8,0.6,1.5,1.3,2.2c0.4,0.4,1,0.7,1.5,1c0.2-0.1,0.4-0.2,0.7-0.3c0.2-0.1,0.5-0.2,0.7-0.2c0.9-0.2,1.9-0.1,2.7,0.2
	c0.8,0.3,1.6,0.3,2.5,0.2c0.3-0.1,0.6-0.1,0.9-0.2c0.5-0.1,0.9-0.2,1.4-0.1c0.2,0,0.4,0,0.6,0.1c0.2,0,0.4,0,0.5-0.1
	c0.3-0.1,0.5-0.3,0.7-0.6c0.2-0.2,0.3-0.5,0.4-0.7c0.2-0.4,0.3-0.7,0.5-1.1c0.2-0.4,0.5-0.8,0.8-1.1c0.5-0.5,1.1-0.5,1.6-0.1
	c0.1,0.1,0.2,0.2,0.3,0.4c0.1,0.2,0.2,0.4,0.2,0.6c0.1,0.4,0.1,0.8,0.1,1.2c0,0.4,0,0.7,0,1.1c0,0.6,0.3,1,0.9,1.4
	c0.4,0.2,0.7,0.4,1.1,0.7C390.5,374,391,373.9,391.5,373.6z M389.5,378.5c0.2-0.5,0.3-1,0.4-1.5c0-0.2,0-0.4,0-0.5
	c0-0.4-0.5-0.6-0.9-0.4c-0.2,0.1-0.3,0.2-0.5,0.3c-0.3,0.2-0.6,0.3-0.9,0.5c-0.2,0.1-0.5,0.2-0.7,0.2c-0.5,0.1-1,0.1-1.5-0.1
	c-0.3-0.1-0.5-0.2-0.8-0.4c-0.4-0.2-0.8-0.2-1.3-0.1c-0.3,0.1-0.6,0.2-0.9,0.3c-0.3,0.1-0.6,0.2-1,0.3c-0.7,0.2-1.3,0.1-1.9-0.2
	c-0.2-0.1-0.4-0.2-0.6-0.4c-0.2-0.1-0.5-0.3-0.7-0.4c-0.2-0.1-0.4-0.1-0.5-0.1c-0.2,0-0.4,0.1-0.5,0.3c-0.1,0.2-0.1,0.4-0.2,0.6
	c-0.1,0.3-0.1,0.6-0.2,0.9c-0.1,0.3-0.2,0.5-0.5,0.7c-0.4,0.3-0.8,0.3-1.3,0.1c-0.2-0.1-0.3-0.2-0.5-0.3c-0.2-0.1-0.4-0.3-0.6-0.4
	c-0.1-0.1-0.2-0.1-0.4,0c0,0.1,0.1,0.2,0.1,0.3c0.6,1,1.5,1.9,2.6,2.7c0.6,0.4,1.3,0.8,2.1,1c1.3,0.4,2.7,0.6,4.1,0.6
	c0.1,0,0.1,0,0.2,0c-0.2-0.4-0.4-0.7-0.7-1.1c-0.2,0-0.4,0.1-0.7,0.1c-0.2,0-0.4-0.1-0.5-0.3c-0.1-0.1,0-0.3,0.2-0.4
	c0.1,0,0.2-0.1,0.2-0.1c0.1,0,0.2-0.1,0.3-0.1c0.3-0.2,0.6-0.3,1-0.4c0.1,0,0.2,0,0.3-0.1c1.3-0.5,2.7-1,4-1.5
	c0.5-0.2,0.9-0.4,1.3-0.8c0.1-0.1,0.2-0.2,0.3-0.3c0.1-0.1,0.2-0.2,0.4-0.2c0.3-0.1,0.5,0.1,0.5,0.3c0,0.1,0,0.2-0.1,0.3
	c-0.1,0.1-0.2,0.2-0.3,0.4c-0.1,0.1-0.2,0.2-0.3,0.3c0.2,0.2,0.4,0.3,0.7,0.5C389.3,378.8,389.4,378.7,389.5,378.5z M397.6,394.6
	c0.8-0.3,1.5-0.7,2.2-1.1c-1.1-1-2.2-1.9-3.2-3c-0.6,0.3-1.2,0.6-1.9,1C395.7,392.5,396.7,393.5,397.6,394.6z M395.6,385.5
	c-1.2-1-2.4-2-3.6-3c-0.5,0.3-1,0.5-1.5,0.8c1.1,1.1,2.2,2.1,3.3,3.2C394.5,386.1,395,385.8,395.6,385.5z M397,389.6
	c0.7-0.3,1.3-0.6,1.9-0.9c-0.9-1-1.9-1.9-2.9-2.8c-0.6,0.3-1.1,0.7-1.7,1C395.2,387.8,396.1,388.7,397,389.6z M390.8,387.9
	c-1-1.1-1.9-2.3-3-3.3c-0.5,0.2-1,0.5-1.5,0.7c0.9,1.1,1.8,2.3,2.7,3.4C389.6,388.4,390.2,388.2,390.8,387.9z M391.2,388.4
	c-0.6,0.2-1.2,0.5-1.8,0.7c0.8,1.1,1.7,2.1,2.6,3.1c0.6-0.3,1.1-0.6,1.6-0.9C392.8,390.4,392,389.4,391.2,388.4z M392,388.1
	c0.8,1,1.6,1.9,2.4,2.8c0.6-0.3,1.2-0.6,1.8-1c-0.9-0.9-1.7-1.8-2.6-2.7C393,387.6,392.5,387.8,392,388.1z M389.8,383.6
	c-0.4,0.2-0.8,0.4-1.2,0.6c1,1.1,2,2.3,3,3.4c0.5-0.3,1-0.5,1.5-0.8C392,385.7,390.9,384.7,389.8,383.6z M400.3,393
	c0.7-0.6,0.9-1.3,0.4-2.1c-0.4-0.6-0.8-1.1-1.3-1.7c0,0-0.1-0.1-0.1-0.1c-0.6,0.3-1.2,0.6-1.9,1C398.4,391.1,399.4,392,400.3,393z
	 M383.1,380.8c-0.1,0.1-0.2,0.2-0.1,0.3c0.1,0.1,0.2,0.3,0.3,0.4c0.8,1.1,1.7,2.1,2.6,3.2c0,0,0.1,0,0.1,0.1
	c0.5-0.2,0.9-0.5,1.4-0.7c-1.2-1.2-2.4-2.4-3.6-3.6C383.6,380.6,383.3,380.7,383.1,380.8z M388.1,383.8c0.4-0.2,0.8-0.4,1.2-0.6
	c-1.1-1.2-2.3-2.3-3.4-3.4c-0.5,0.2-0.9,0.4-1.4,0.5C385.8,381.4,386.9,382.6,388.1,383.8z M386.7,379.4c1.1,1.1,2.3,2.2,3.4,3.3
	c0.5-0.2,1-0.5,1.5-0.7c-1.2-1.1-2.4-2.1-3.6-3.1C387.5,379.1,387.1,379.3,386.7,379.4z M394,391.8c-0.5,0.3-1.1,0.6-1.6,0.9
	c0.5,0.5,1,1.1,1.7,1.5c0.3,0.2,0.6,0.3,0.8,0.5c0.6,0.3,1.3,0.3,2,0.1C395.8,393.9,395,392.8,394,391.8z M378.2,350
	c0.1,0.9,0.1,1.9,0.3,2.8c0.2,0.7,0.4,1.5,0.8,2.2c0.1,0.2,0.3,0.4,0.5,0.6c0.4,0.4,0.9,0.7,1.4,0.9c1.3,0.7,2.6,1.4,3.9,2.2
	c0.1,0,0.1,0.1,0.3,0.1c0-0.1,0-0.2,0-0.3c-0.1-0.6-0.1-1.1-0.2-1.7c-0.2-1.3-0.4-2.6-0.6-3.9c0-0.2-0.1-0.3-0.3-0.4
	c-1.8-1-3.6-1.8-5.5-2.6c-0.1,0-0.2-0.1-0.3-0.1C378.2,349.9,378.2,350,378.2,350z M385.4,353.7c0.3,1.5,0.5,3,0.6,4.5
	c0,0.3,0,0.6,0,1c0,0.1,0,0.2,0.2,0.3c0.7,0.5,1.5,1,2.1,1.5c0.7,0.6,1.2,1.2,1.4,2c0,0.1,0.1,0.2,0.2,0.3c0.2,0,0.3-0.1,0.3-0.2
	c0.1-0.1,0.1-0.2,0.2-0.4c0.2-0.5,0.2-0.9,0.2-1.4c0-1.1-0.2-2.3-0.4-3.4c0-0.1-0.1-0.2-0.1-0.2c-0.6-0.8-1.3-1.5-2.1-2.2
	c-0.7-0.6-1.5-1.3-2.3-1.8c-0.1-0.1-0.1-0.1-0.3-0.2C385.4,353.6,385.4,353.6,385.4,353.7z M379.5,349.7c1.5,0.6,3,1.3,4.4,2
	c0.1,0,0.1,0.1,0.2,0.1c0-0.1,0-0.2,0-0.2c-0.3-1.6-0.7-3.2-1.1-4.7c0-0.1-0.1-0.2-0.3-0.3c-0.3-0.1-0.7-0.3-1-0.4
	c-1-0.3-2.1-0.6-3.1-0.9c-0.2,0-0.3-0.1-0.5-0.1c0,1.4,0.1,2.7,0.1,4C378.6,349.4,379,349.5,379.5,349.7z M376.8,360.6
	c0.2,0.2,0.3,0.4,0.5,0.6c0.2,0.2,0.3,0.4,0.5,0.6c0.1,0.1,0.1,0.1,0.2,0.2c0.2-0.1,0.2-0.2,0.3-0.3c0.1-0.3,0.1-0.6,0.1-0.9
	c0-0.4,0-0.8,0-1.2c0-0.2,0-0.4,0.1-0.6c0.2-0.7,0.9-1.2,1.9-1.2c0.3,0,0.6,0.1,0.9,0.2c0.3,0.1,0.5,0.2,0.7,0.4
	c0.3,0.2,0.6,0.3,0.9,0.5c0.4,0.2,0.9,0.4,1.4,0.4c0,0-0.1,0-0.1-0.1c-0.7-0.4-1.4-0.8-2.1-1.2c-0.7-0.4-1.4-0.7-2-1.1
	c-0.5-0.3-0.9-0.6-1.2-1.1c-0.2-0.3-0.4-0.7-0.6-1c0-0.1-0.1-0.1-0.1-0.2c-0.9,0.2-1.7,0.4-2.6,0.7c0.1,1.6,0.1,3.3,0.3,4.9
	C376.2,360.2,376.5,360.4,376.8,360.6z M373.9,355.6c-1.1,0.3-2.1,0.7-3.1,1.2c-0.1,0.1-0.2,0.1-0.2,0.2c0,0.4,0,0.9,0,1.3
	c0,1,0.1,2,0.3,3c0.1,0.6,0.4,1.2,0.9,1.7c0.1,0.1,0.1,0.1,0.3,0.2c0.1-0.3,0.2-0.6,0.3-0.9c0.2-0.4,0.3-0.8,0.5-1.2
	c0.3-0.6,0.9-0.9,1.6-1.1c0.1,0,0.3,0,0.4-0.1c-0.3-1.5-0.3-3-0.4-4.6C374.3,355.5,374.1,355.6,373.9,355.6z M378.1,344.5
	c1.5,0.3,3,0.7,4.5,1.2c0-0.1,0-0.2,0-0.2c-0.7-2.1-1.3-4.1-2-6.2c-0.1-0.2-0.1-0.2-0.3-0.3c-0.6-0.1-1.3-0.2-1.9-0.4
	c-0.2,0-0.4,0-0.5,0.1C377.9,340.7,378,342.6,378.1,344.5z M374.5,354.6c-0.2-2.2-0.1-4.4-0.1-6.6c-0.1,0-0.2,0-0.3,0
	c-0.7,0.2-1.3,0.4-2,0.6c-0.1,0-0.1,0.1-0.2,0.2c-0.1,0.6-0.3,1.1-0.4,1.7c-0.3,1.4-0.5,2.8-0.8,4.2c-0.1,0.4-0.1,0.8-0.2,1.2
	C372,355.5,373.2,355.1,374.5,354.6z M384.1,347.4c0.1,0.4,0.2,0.9,0.3,1.3c0.3,1.2,0.5,2.4,0.8,3.5c0,0.1,0.1,0.2,0.2,0.3
	c1.3,0.9,2.6,1.8,3.6,2.9c0.2,0.2,0.4,0.4,0.6,0.5c0-0.2-0.1-0.4-0.1-0.6c-0.7-2.3-1.6-4.5-2.6-6.7c0-0.1-0.1-0.2-0.2-0.2
	c-0.8-0.4-1.6-0.9-2.4-1.3c-0.1,0-0.1-0.1-0.2-0.1C384,347.2,384,347.3,384.1,347.4z M377.8,353.8c-0.3-1.1-0.4-2.2-0.5-3.3
	c-0.1-0.9-0.1-1.9-0.1-2.8c0-0.1,0-0.1,0-0.2c-0.6,0.1-1.2,0.2-1.8,0.3c-0.1,2.2-0.1,4.4,0.1,6.6C376.2,354.2,377,354.1,377.8,353.8
	C377.8,353.9,377.8,353.9,377.8,353.8z M381.7,339.7c0.7,2.1,1.3,4.2,2,6.3c0,0.1,0.1,0.2,0.2,0.3c0.7,0.4,1.5,0.8,2.2,1.1
	c0.1,0,0.1,0,0.2,0.1c0-0.1-0.1-0.2-0.1-0.2c-0.3-0.7-0.7-1.5-1.1-2.2c-0.7-1.6-1.5-3.1-2.2-4.7c-0.2-0.4-0.4-0.6-0.8-0.7
	c-0.2-0.1-0.3-0.1-0.6-0.2C381.6,339.6,381.6,339.6,381.7,339.7z M377,341.2c-0.5,0.1-0.9,0.2-1.4,0.3c-0.2,1.9-0.4,3.7-0.4,5.6
	c0.6-0.1,1.2-0.1,1.8-0.2C377.1,345,377.1,343.1,377,341.2z M377.5,331.3c0,2.2,0.1,4.4,0.3,6.6c0.8,0.1,1.6,0.3,2.4,0.4
	C380.1,338,377.7,331.5,377.5,331.3z M374.2,341.9c-0.3,0.1-0.4,0.2-0.4,0.4c-0.4,1.6-0.9,3.1-1.3,4.7c-0.1,0.2-0.1,0.5-0.2,0.7
	c0.7-0.2,1.4-0.4,2.1-0.6c0.1-1.8,0.2-3.6,0.3-5.4C374.5,341.8,374.4,341.9,374.2,341.9z M376.6,334.6c-0.3,2-0.6,4-0.9,6.1
	c0.4-0.1,0.8-0.1,1.2-0.2C376.9,338.5,376.8,336.6,376.6,334.6z M378.8,332c0,0.1,0,0.1,0.1,0.2c0.5,1.4,1.1,2.8,1.6,4.2
	c0.3,0.7,0.5,1.3,0.7,2c0,0.1,0.1,0.2,0.2,0.2c0.3,0.1,0.6,0.2,0.9,0.3C381.8,337.5,379.2,332.4,378.8,332z M375.5,336
	c-0.4,1.7-0.9,3.5-1.3,5.2c0.2,0,0.3-0.1,0.4-0.1c0.2,0,0.3-0.1,0.3-0.3c0.2-1.3,0.4-2.7,0.6-4C375.5,336.5,375.5,336.2,375.5,336
	C375.5,336,375.5,336,375.5,336z M344.4,206.8c1,0.8,2,1.6,3.1,2.4c0.5,0.4,0.9,0.7,1.4,1.1c0.2,0.1,0.3,0.2,0.6,0.2
	c0.3,0,0.5-0.1,0.6-0.2c0.2-0.2,0.3-0.4,0.4-0.5c1-1.6,2.1-3.1,3.2-4.6c0,0,0-0.1,0.1-0.1c0.2-0.2,0.1-0.4-0.1-0.5
	c-0.2-0.2-0.4-0.3-0.7-0.5c-1.4-0.7-2.7-1.5-4-2.3c-0.1-0.1-0.2-0.1-0.3-0.2c-0.3-0.1-0.6-0.1-0.8,0c-0.3,0.1-0.5,0.3-0.7,0.5
	c-3.9,3.8-4,3.4-3.5,3.9C343.8,206.3,344.1,206.6,344.4,206.8z M382.1,214.7c0.4,0.1,0.7,0,0.9-0.2c0.1-0.1,0.1-0.2,0.2-0.4
	c0.7-1.5,1.5-3,2.3-4.5c0.1-0.1,0.1-0.3,0.2-0.4c0.1-0.2,0-0.4-0.2-0.6c-0.2-0.1-0.3-0.2-0.5-0.3c-0.6-0.3-1.3-0.7-2-0.9
	c-0.9-0.4-1.9-0.7-2.8-1.1c-0.4-0.2-0.6-0.1-0.8,0.2c-1,1.5-1.8,3.1-2.7,4.6c-0.1,0.1-0.1,0.3-0.1,0.4c0,0.2,0.1,0.3,0.2,0.4
	c0.1,0.2,0.3,0.3,0.5,0.4c1.5,0.8,3,1.6,4.5,2.3C382,214.7,382,214.7,382.1,214.7z M382.4,227.2c1.7,1.2,1.7,0.7,4-2.6
	c1.5-2.1,1.6-1.4-2.2-4.3c-0.4-0.3-0.8-0.6-1.2-0.9c-0.4-0.3-0.5-0.3-0.9,0c0,0-0.1,0.1-0.1,0.1c-1.5,1.2-2.8,2.5-4.1,3.8
	c-0.3,0.3-0.3,0.5,0,0.8c0.1,0.2,0.3,0.3,0.5,0.4C379.7,225.4,381.1,226.2,382.4,227.2z M370.7,228.8c-0.1-0.1-0.3-0.2-0.5-0.2
	c-0.3,0-0.5,0.1-0.6,0.3c-0.2,0.3-0.5,0.7-0.8,1c-0.6,0.8-1.3,1.6-1.9,2.4c-0.3,0.4-0.3,0.8,0,1.2c4.5,5.3,3.5,5,7.9-0.3
	c0.5-0.6,0-0.5-3.6-3.9C371.1,229.1,370.9,228.9,370.7,228.8z M348.4,228.3c-1.1-0.7-2.2-1.4-3.3-2.1c-0.1-0.1-0.2-0.1-0.3-0.2
	c-0.4-0.2-0.8-0.2-1.1,0.1c-0.1,0.1-0.2,0.2-0.2,0.3c-0.1,0.2-0.2,0.5-0.3,0.7c-0.6,1.3-1.2,2.7-1.9,4c-0.1,0.3-0.1,0.5,0.2,0.7
	c0.2,0.1,0.4,0.3,0.6,0.4c1,0.5,2,1,3,1.5c0.5,0.2,0.9,0.3,1.2,0c0.1-0.1,0.2-0.3,0.3-0.4c0.8-1.3,1.6-2.6,2.4-3.8
	c0.1-0.1,0.1-0.2,0.1-0.3c0-0.2-0.1-0.3-0.2-0.4C348.9,228.6,348.7,228.4,348.4,228.3z M362.3,223.6c-1-0.6-1.9-1.3-2.9-2
	c-0.2-0.1-0.4-0.3-0.6-0.4c-0.3-0.1-0.5-0.1-0.8,0c-0.2,0.1-0.3,0.3-0.4,0.5c-0.6,1-1.2,2-1.8,3c-0.1,0.2-0.2,0.4-0.3,0.6
	c-0.1,0.1-0.1,0.2-0.1,0.3c0,0.4,0.3,0.6,0.5,0.9c0.9,0.9,2,1.6,3.1,2.4c0,0,0.1,0,0.1,0.1c0.4,0.2,0.7,0.2,1-0.1
	c0.2-0.1,0.3-0.3,0.4-0.5c0.9-1.2,1.8-2.3,2.7-3.5c0.3-0.4,0.3-0.6-0.2-0.9C362.8,223.9,362.5,223.8,362.3,223.6z M368.3,208.3
	c-1.2-0.7-2.4-1.4-3.6-2.1c-0.8-0.5-0.8-0.6-0.4-1.3c0.6-1.1,1.3-2.1,1.9-3.2c0.1-0.2,0.2-0.4,0.4-0.5c0.3-0.3,0.6-0.4,1.1-0.2
	c0.2,0.1,0.3,0.1,0.5,0.2c1.2,0.5,2.5,1,3.7,1.4c0.3,0.1,0.6,0.2,0.9,0.4c0.4,0.3,0.5,0.5,0.3,0.9c-0.2,0.4-0.5,0.9-0.7,1.3
	c-0.6,1-1.1,2-1.7,3.1c-0.1,0.2-0.2,0.4-0.4,0.6c-0.1,0.1-0.3,0.2-0.5,0.2c-0.2,0-0.4,0-0.5-0.1C369,208.7,368.6,208.5,368.3,208.3z
	 M365.2,205.8c1.4,0.8,2.7,1.6,4.1,2.3c0.3,0.2,0.4,0.2,0.5-0.1c0.3-0.5,0.5-1,0.8-1.5c0.5-0.9,1.1-1.9,1.6-2.8
	c0.2-0.3,0.2-0.4-0.3-0.6c-0.1,0-0.1,0-0.2-0.1c-1.4-0.5-2.7-1-4-1.5c-0.1,0-0.1-0.1-0.2-0.1c-0.1,0-0.2,0.1-0.2,0.1
	c-0.1,0.2-0.3,0.3-0.4,0.5c-0.7,1.1-1.3,2.1-1.9,3.2C364.8,205.6,364.8,205.6,365.2,205.8z M353.8,211.2c1-1.1,2.1-2.2,3.1-3.3
	c0.4-0.5,0.8-0.5,1.4-0.2c0.1,0,0.2,0.1,0.3,0.1c0.9,0.6,1.9,1.1,3,1.6c0.2,0.1,0.4,0.2,0.6,0.3c0.2,0.1,0.3,0.3,0.3,0.5
	c0,0.1-0.1,0.2-0.1,0.4c-0.9,1.5-1.8,3-2.8,4.5c0,0.1-0.1,0.1-0.1,0.2c-0.2,0.2-0.5,0.3-0.8,0.2c-0.2-0.1-0.4-0.2-0.6-0.3
	c-0.4-0.3-0.9-0.6-1.3-0.9c-0.7-0.5-1.5-1-2.2-1.5c-0.2-0.1-0.4-0.3-0.6-0.4C353.4,211.8,353.4,211.7,353.8,211.2z M354.7,212
	c0.1,0.1,0.2,0.1,0.2,0.2c1.1,0.8,2.3,1.6,3.4,2.4c0.1,0.1,0.2,0.2,0.4,0.2c0.1-0.1,0.1-0.2,0.2-0.3c0.9-1.3,1.6-2.6,2.4-3.9
	c0-0.1,0.1-0.1,0.1-0.2c0.1-0.3,0.1-0.3-0.2-0.5c-0.1,0-0.1-0.1-0.2-0.1c-1.1-0.5-2-1-3-1.5c-0.1-0.1-0.2-0.1-0.4-0.2
	c-0.2,0.2-0.3,0.4-0.5,0.6c-0.9,1-1.8,1.9-2.6,2.9C354.4,211.8,354.3,211.7,354.7,212z M351,217.7c0.2,0.2,0.2,0.5,0,0.7
	c-0.3,0.4-0.6,0.7-1,1.1c-0.8,0.8-1.5,1.7-2.2,2.6c-0.2,0.2-0.3,0.4-0.5,0.5c-0.2,0.1-0.3,0.2-0.6,0.2c-0.2,0-0.4-0.1-0.6-0.3
	c-0.2-0.2-0.5-0.5-0.7-0.7c-0.8-0.9-1.6-1.9-2.4-2.8c-0.2-0.2-0.4-0.4-0.5-0.7c-0.3-0.4-0.2-0.7,0.2-1c0.5-0.4,1.1-0.7,1.6-1.1
	c0.6-0.4,1.3-0.8,1.9-1.2c0.5-0.3,0.9-0.3,1.4,0c1,0.8,2,1.5,3.1,2.3C350.8,217.5,350.9,217.6,351,217.7z M349.9,217.6
	c-0.9-0.7-1.9-1.3-2.8-2c-0.2-0.1-0.3-0.1-0.4,0c-1,0.7-2,1.3-3,2c-0.1,0.1-0.2,0.1-0.2,0.2c-0.4,0.3-0.4,0.3-0.1,0.7
	c0.1,0.2,0.3,0.3,0.4,0.5c0.8,0.9,1.6,1.8,2.4,2.7c0.1,0.1,0.3,0.3,0.4,0.4c0.1,0,0.2-0.1,0.2-0.1c1-1.3,2.2-2.5,3.2-3.7
	C350.3,218,350.3,217.9,349.9,217.6z M372.7,215.6c0.6,0.5,1.2,1,1.9,1.4c0.1,0.1,0.2,0.1,0.3,0.2c0.2,0.2,0.2,0.4,0.1,0.6
	c-0.1,0.1-0.1,0.2-0.2,0.3c-1.1,1.3-2.2,2.6-3.2,3.9c-0.3,0.4-0.8,0.4-1.1,0c-0.3-0.3-0.5-0.7-0.8-1c-0.7-1-1.5-2-2.3-3.1
	c-0.1-0.2-0.2-0.3-0.3-0.5c-0.1-0.1-0.1-0.2-0.1-0.3c0-0.2,0.1-0.3,0.2-0.4c0.9-0.9,1.7-1.9,2.5-2.8c0.4-0.4,0.7-0.4,1.2-0.1
	C371.3,214.5,372,215,372.7,215.6z M372,215.8c-0.5-0.4-1-0.9-1.6-1.3c-0.2-0.2-0.3-0.2-0.4,0c-0.7,0.9-1.4,1.7-2.2,2.5
	c-0.1,0.1-0.1,0.3,0,0.4c0.1,0.1,0.1,0.2,0.2,0.3c0.9,1.1,1.8,2.2,2.6,3.3c0.1,0.1,0.2,0.2,0.3,0.4c0.2-0.2,0.3-0.4,0.4-0.5
	c0.8-1,1.6-2.1,2.5-3c0.1-0.1,0.1-0.2,0.2-0.2c0.1-0.2,0.1-0.3-0.1-0.4C373.2,216.9,372.6,216.3,372,215.8z M360.7,234.7
	c0.1,0.1,0.2,0.2,0.2,0.3c0,0.1-0.1,0.2-0.1,0.3c-4.3,5.4-3.4,6.2-8.1,1.7c-0.5-0.5-0.4-0.7,2.3-4.5c0.1-0.1,0.2-0.2,0.3-0.3
	c0.3-0.3,0.5-0.3,1-0.2c0.2,0.1,0.3,0.1,0.4,0.2c1.2,0.7,2.5,1.5,3.7,2.2C360.4,234.5,360.6,234.6,360.7,234.7z M359.8,234.8
	c-0.5-0.3-0.9-0.6-1.4-0.8c-0.7-0.4-1.4-0.9-2.2-1.3c-0.2-0.1-0.3-0.1-0.4,0c0,0,0,0.1-0.1,0.1c-3,4.8-3.3,3.3,0.6,6.4
	c0.1,0,0.1,0.1,0.2,0.1c0.1,0,0.1,0,3.4-4.2C360,235,359.9,234.9,359.8,234.8z M386.6,233c-4.7,5.1-3.2,5-7.5,1.4
	c-1.2-1-1-0.9,1.9-4.3c0.2-0.2,0.5-0.4,0.7-0.6c0.4-0.3,0.8-0.2,1.2,0.1C384.6,230.6,387.2,232.4,386.6,233z M385.8,232.6
	c0-0.3-2.3-1.9-2.4-2c-1.1-0.8-1.1-0.8-1.3-0.6c-0.2,0.2-0.5,0.4-0.7,0.7c-3.1,3.7-2.8,2.2,0.8,5.5
	C382.6,236.5,385.8,232.7,385.8,232.6z M89.5,206c0.4-0.6,0.3-0.2-3.5-3.9c-0.2-0.2-0.4-0.4-0.7-0.5c-0.3-0.1-0.6-0.1-0.8,0
	c-0.1,0.1-0.2,0.1-0.3,0.2c-1.3,0.8-2.6,1.6-4,2.3c-0.3,0.1-0.5,0.3-0.7,0.5c-0.2,0.2-0.2,0.3-0.1,0.5c0,0,0,0.1,0.1,0.1
	c1.1,1.5,2.2,3,3.2,4.6c0.1,0.2,0.3,0.4,0.4,0.5c0.1,0.2,0.3,0.2,0.6,0.2c0.2,0,0.4-0.1,0.6-0.2c0.5-0.4,1-0.7,1.4-1.1
	c1-0.8,2.1-1.6,3.1-2.4C89,206.6,89.3,206.3,89.5,206z M51.2,214.6c1.5-0.7,3.1-1.5,4.5-2.3c0.2-0.1,0.4-0.2,0.5-0.4
	c0.1-0.1,0.2-0.3,0.2-0.4c0-0.1,0-0.3-0.1-0.4c-0.9-1.5-1.7-3.1-2.7-4.6c-0.2-0.3-0.4-0.3-0.8-0.2c-0.9,0.4-1.9,0.7-2.8,1.1
	c-0.7,0.3-1.3,0.6-2,0.9c-0.2,0.1-0.3,0.2-0.5,0.3c-0.2,0.2-0.3,0.4-0.2,0.6c0.1,0.1,0.1,0.3,0.2,0.4c0.8,1.5,1.6,3,2.3,4.5
	c0.1,0.1,0.1,0.2,0.2,0.4c0.2,0.3,0.5,0.4,0.9,0.2C51.1,214.7,51.1,214.7,51.2,214.6z M54.7,224.4c0.2-0.1,0.3-0.3,0.5-0.4
	c0.3-0.3,0.3-0.5,0-0.8c-1.3-1.3-2.6-2.6-4.1-3.8c0,0-0.1-0.1-0.1-0.1c-0.4-0.3-0.6-0.3-0.9,0c-0.4,0.3-0.8,0.6-1.2,0.9
	c-3.8,2.8-3.6,2.1-2.2,4.3c2.3,3.3,2.3,3.8,4,2.6C52,226.2,53.4,225.4,54.7,224.4z M61.8,229.3c-3.6,3.4-4.1,3.3-3.6,3.9
	c4.4,5.3,3.4,5.6,7.9,0.3c0.3-0.4,0.3-0.8,0-1.2c-0.6-0.8-1.3-1.6-1.9-2.4c-0.3-0.3-0.5-0.7-0.8-1c-0.1-0.2-0.3-0.3-0.6-0.3
	c-0.2,0-0.4,0-0.5,0.2C62.2,228.9,62,229.1,61.8,229.3z M84,228.8c-0.1,0.1-0.2,0.2-0.2,0.4c0,0.1,0.1,0.2,0.1,0.3
	c0.8,1.3,1.6,2.5,2.4,3.8c0.1,0.1,0.2,0.3,0.3,0.4c0.3,0.4,0.8,0.3,1.2,0c1-0.5,2-1,3-1.5c0.2-0.1,0.4-0.2,0.6-0.4
	c0.3-0.2,0.4-0.4,0.2-0.7c-0.6-1.3-1.2-2.7-1.9-4c-0.1-0.2-0.2-0.5-0.3-0.7c-0.1-0.1-0.1-0.2-0.2-0.3c-0.3-0.3-0.6-0.4-1.1-0.1
	c-0.1,0.1-0.2,0.1-0.3,0.2c-1.1,0.7-2.2,1.4-3.3,2.1C84.4,228.4,84.2,228.6,84,228.8z M70.1,224.1c-0.5,0.3-0.5,0.5-0.2,0.9
	c0.9,1.1,1.8,2.3,2.7,3.5c0.1,0.2,0.3,0.3,0.4,0.5c0.3,0.3,0.6,0.3,1,0.1c0,0,0.1,0,0.1-0.1c1-0.8,2.2-1.5,3.1-2.4
	c0.3-0.3,0.5-0.5,0.5-0.9c0-0.1,0-0.2-0.1-0.3c-0.1-0.2-0.2-0.4-0.3-0.6c-0.6-1-1.2-2-1.8-3c-0.1-0.2-0.2-0.3-0.4-0.5
	c-0.3-0.1-0.5-0.1-0.8,0c-0.2,0.1-0.4,0.2-0.6,0.4c-1,0.7-1.9,1.4-2.9,2C70.6,223.8,70.3,223.9,70.1,224.1z M63.8,208.8
	c-0.2,0.1-0.3,0.1-0.5,0.1c-0.2,0-0.4-0.1-0.5-0.2c-0.2-0.2-0.3-0.4-0.4-0.6c-0.6-1-1.1-2-1.7-3.1c-0.2-0.4-0.5-0.9-0.7-1.3
	c-0.2-0.4-0.1-0.6,0.3-0.9c0.3-0.2,0.6-0.3,0.9-0.4c1.3-0.5,2.5-0.9,3.7-1.4c0.2-0.1,0.3-0.1,0.5-0.2c0.5-0.2,0.8-0.1,1.1,0.2
	c0.1,0.2,0.3,0.3,0.4,0.5c0.7,1.1,1.3,2.1,1.9,3.2c0.4,0.7,0.4,0.8-0.4,1.3c-1.2,0.7-2.4,1.4-3.6,2.1
	C64.5,208.5,64.1,208.7,63.8,208.8z M68.1,205.3c-0.6-1.1-1.3-2.1-1.9-3.2c-0.1-0.2-0.2-0.3-0.4-0.5c0,0-0.1-0.1-0.2-0.1
	c-0.1,0-0.1,0-0.2,0.1c-1.3,0.6-2.7,1-4,1.5c-0.1,0-0.1,0-0.2,0.1c-0.4,0.2-0.5,0.2-0.3,0.6c0.5,0.9,1.1,1.9,1.6,2.8
	c0.3,0.5,0.5,1,0.8,1.5c0.2,0.3,0.2,0.3,0.5,0.1c1.4-0.8,2.7-1.6,4.1-2.3C68.3,205.6,68.3,205.6,68.1,205.3z M79.2,212.2
	c-0.2,0.1-0.4,0.3-0.6,0.4c-0.7,0.5-1.5,1-2.2,1.5c-0.4,0.3-0.9,0.6-1.3,0.9c-0.2,0.1-0.4,0.2-0.6,0.3c-0.3,0.1-0.6,0.1-0.8-0.2
	c-0.1-0.1-0.1-0.1-0.1-0.2c-1-1.5-1.9-3-2.8-4.5c-0.1-0.1-0.1-0.2-0.1-0.4c0-0.2,0.1-0.3,0.3-0.5c0.2-0.1,0.4-0.3,0.6-0.3
	c1.1-0.5,2-1,3-1.6c0.1-0.1,0.2-0.1,0.3-0.1c0.6-0.3,1-0.3,1.4,0.2c1,1.1,2.1,2.2,3.1,3.3C79.7,211.7,79.7,211.8,79.2,212.2z
	 M78.5,211.5c-0.9-1-1.8-1.9-2.6-2.9c-0.2-0.2-0.3-0.4-0.5-0.6c-0.2,0-0.3,0.1-0.4,0.2c-0.9,0.6-1.9,1.1-3,1.5
	c-0.1,0-0.1,0.1-0.2,0.1c-0.3,0.2-0.3,0.2-0.2,0.5c0,0.1,0.1,0.2,0.1,0.2c0.8,1.3,1.6,2.6,2.4,3.9c0.1,0.1,0.1,0.2,0.2,0.3
	c0.2,0,0.3-0.1,0.4-0.2c1.1-0.8,2.3-1.6,3.4-2.4c0.1-0.1,0.2-0.1,0.2-0.2C78.8,211.7,78.7,211.8,78.5,211.5z M82.4,217.4
	c1.1-0.7,2.1-1.5,3.1-2.3c0.5-0.4,0.9-0.4,1.4,0c0.6,0.4,1.3,0.8,1.9,1.2c0.5,0.4,1.1,0.7,1.6,1.1c0.5,0.3,0.5,0.6,0.2,1
	c-0.2,0.2-0.3,0.5-0.5,0.7c-0.8,0.9-1.6,1.8-2.4,2.8c-0.2,0.3-0.5,0.5-0.7,0.7c-0.2,0.2-0.4,0.3-0.6,0.3c-0.3,0-0.5-0.1-0.6-0.2
	c-0.2-0.2-0.4-0.3-0.5-0.5c-0.7-0.9-1.5-1.7-2.2-2.6c-0.3-0.4-0.6-0.7-1-1.1c-0.2-0.3-0.2-0.5,0-0.7
	C82.2,217.6,82.3,217.5,82.4,217.4z M83.1,218.3c1.1,1.2,2.2,2.4,3.2,3.7c0,0,0.1,0.1,0.2,0.1c0.1-0.1,0.3-0.3,0.4-0.4
	c0.8-0.9,1.6-1.8,2.4-2.7c0.2-0.2,0.3-0.3,0.4-0.5c0.3-0.4,0.3-0.4-0.1-0.7c-0.1-0.1-0.2-0.1-0.2-0.2c-1-0.7-2-1.3-3-2
	c-0.2-0.1-0.3-0.1-0.4,0c-0.9,0.7-1.8,1.4-2.8,2C82.8,217.9,82.8,218,83.1,218.3z M62.5,213.9c0.4-0.3,0.8-0.3,1.2,0.1
	c0.9,0.9,1.6,1.9,2.5,2.8c0.1,0.1,0.2,0.2,0.2,0.4c0,0.1-0.1,0.2-0.1,0.3c-0.1,0.2-0.2,0.3-0.3,0.5c-0.8,1-1.6,2-2.3,3.1
	c-0.2,0.3-0.5,0.7-0.8,1c-0.4,0.4-0.8,0.4-1.1,0c-1-1.3-2.1-2.7-3.2-3.9c-0.1-0.1-0.1-0.2-0.2-0.3c-0.2-0.2-0.1-0.4,0.1-0.6
	c0.1-0.1,0.2-0.1,0.3-0.2c0.7-0.4,1.3-0.9,1.9-1.4C61.1,215,61.8,214.5,62.5,213.9z M59.2,217.3c-0.2,0.1-0.2,0.2-0.1,0.4
	c0.1,0.1,0.1,0.2,0.2,0.2c0.9,1,1.7,2,2.5,3c0.1,0.1,0.2,0.3,0.4,0.5c0.1-0.2,0.2-0.3,0.3-0.4c0.8-1.1,1.7-2.2,2.6-3.3
	c0.1-0.1,0.1-0.2,0.2-0.3c0.1-0.1,0.1-0.3,0-0.4c-0.8-0.8-1.5-1.7-2.2-2.5c-0.2-0.2-0.2-0.2-0.4,0c-0.5,0.4-1,0.9-1.6,1.3
	C60.5,216.3,59.9,216.9,59.2,217.3z M72.8,234.4c1.2-0.7,2.5-1.5,3.7-2.2c0.1-0.1,0.3-0.2,0.4-0.2c0.4-0.1,0.7-0.1,1,0.2
	c0.1,0.1,0.2,0.2,0.3,0.3c2.6,3.8,2.8,4.1,2.3,4.5c-4.7,4.5-3.8,3.7-8.1-1.7c-0.1-0.1-0.1-0.2-0.1-0.3c0-0.1,0.1-0.2,0.2-0.3
	C72.5,234.6,72.7,234.5,72.8,234.4z M73.2,235.1c3.3,4.2,3.3,4.1,3.4,4.2c0.1,0,0.1-0.1,0.2-0.1c3.8-3.1,3.6-1.6,0.6-6.4
	c0,0,0-0.1-0.1-0.1c-0.2-0.2-0.2-0.2-0.4,0c-0.7,0.4-1.4,0.9-2.2,1.3c-0.5,0.3-0.9,0.6-1.4,0.8C73.2,234.9,73.1,235,73.2,235.1z
	 M50.2,229.5c0.4-0.2,0.8-0.4,1.2-0.1c0.3,0.2,0.5,0.4,0.7,0.6c3,3.5,3.1,3.4,1.9,4.3c-4.3,3.6-2.8,3.7-7.5-1.4
	C45.9,232.4,48.5,230.6,50.2,229.5z M50.8,236.2c3.6-3.2,3.9-1.7,0.8-5.5c-0.2-0.2-0.4-0.5-0.7-0.7c-0.2-0.2-0.3-0.2-1.3,0.6
	c-0.1,0.1-2.3,1.7-2.4,2C47.3,232.7,50.5,236.5,50.8,236.2z M72.8,400c0.2-1.7,1-2.6,2.4-2.6h12.3c1.6,0,2.4,0.8,2.6,2.4
	c0.5,4.6,1,9,1.4,13.4c0.3,3.2,1.5,4.7,3.5,4.7c1.7,0,2.8-0.9,3.4-2.6c0.4-1,0.5-2.5,0.5-4.3c0-1.5-0.1-3.5-0.4-5.9
	c-2.1-18.4-4.7-34.3-7.9-47.6c-1.2-5-2.4-8.8-3.7-11.5c-2-4.2-4.6-6.3-7.8-6.3c-3.9,0-6.9,3.8-9.1,11.5c-2.6,8.9-4.8,20-6.6,33.5
	c-1.1,7.9-1.9,14.2-2.5,18.9s-0.8,7.5-0.8,8.4c0,4,1.6,5.9,4.9,5.9c3.9,0,6.1-2.5,6.6-7.4c0.2-1.6,0.4-3.5,0.6-5.6
	C72.4,402.7,72.6,401.1,72.8,400z M76.3,391c-1.2,0-1.9-0.6-1.9-1.9c0-0.3,0.5-3.9,1.6-10.7c2.7-17.5,4.5-26.3,5.5-26.3
	c1.5,0,3.4,8.8,5.9,26.5c0.9,6.6,1.3,10.1,1.3,10.4c0,1.4-0.6,2.1-1.8,2.1H76.3z M152.5,411.9c2.9-4,4.4-8.3,4.4-12.8
	c0-0.9-0.2-1.7-0.7-2.2c-0.5-0.5-1-0.8-1.7-0.8c-1.5,0-2.4,1-2.8,3.1c-1.5,7.2-4.5,10.8-9.2,10.8c-3.2,0-5.7-3-7.4-9
	c-1.9-6.5-2.8-14.9-2.8-25.2c0-5.1,0.3-9.7,1-13.9c1.6-10.2,5.1-15.3,10.6-15.3c2.8,0,4.8,2,6.1,5.9c0.9,2.7,1.4,5.9,1.4,9.8
	c0,2.6-0.1,4.9-0.4,6.8c-0.2,1.5-0.3,2.9-0.3,4.2c0,1.5,0.2,2.6,0.7,3.3c0.5,0.7,1.2,1,2.2,1c1.5,0,2.6-1.5,3.2-4.5
	c0.4-1.9,0.6-5.1,0.6-9.4c0-6.9-1-12.4-3-16.6c-2.5-5-6.5-7.5-12.1-7.5c-3.8,0-6.9,0.9-9.5,2.6c-7.7,5.3-11.5,17.2-11.5,36
	c0,13.8,2.1,24.2,6.2,31.2c3.3,5.6,8,8.4,14,8.4C145.8,417.9,149.6,415.9,152.5,411.9z M173.8,400c0.2-1.7,1-2.6,2.4-2.6h12.3
	c1.6,0,2.4,0.8,2.6,2.4c0.5,4.6,1,9,1.4,13.4c0.3,3.2,1.5,4.7,3.5,4.7c1.7,0,2.8-0.9,3.4-2.6c0.4-1,0.5-2.5,0.5-4.3
	c0-1.5-0.1-3.5-0.4-5.9c-2.1-18.4-4.7-34.3-7.9-47.6c-1.2-5-2.4-8.8-3.7-11.5c-2-4.2-4.6-6.3-7.8-6.3c-3.9,0-6.9,3.8-9.1,11.5
	c-2.6,8.9-4.8,20-6.6,33.5c-1.1,7.9-1.9,14.2-2.5,18.9s-0.8,7.5-0.8,8.4c0,4,1.6,5.9,4.9,5.9c3.9,0,6.1-2.5,6.6-7.4
	c0.2-1.6,0.4-3.5,0.6-5.6C173.4,402.7,173.6,401.1,173.8,400z M177.2,391c-1.2,0-1.9-0.6-1.9-1.9c0-0.3,0.5-3.9,1.6-10.7
	c2.7-17.5,4.5-26.3,5.5-26.3c1.5,0,3.4,8.8,5.9,26.5c0.9,6.6,1.3,10.1,1.3,10.4c0,1.4-0.6,2.1-1.8,2.1H177.2z M254.4,411.5v-61.4
	c0-2.6-0.4-4.8-1.1-6.6c-1-2.5-2.7-3.7-5.2-3.7c-1.1,0-2.2,0.5-3.3,1.4s-2,2.6-2.6,5c-3.5,12.9-7.4,25.7-11.8,38.5
	c-1.1-4-2.3-8.2-3.5-12.5c-1.9-6.6-4.2-14.8-7-24.5c-1.5-5.3-4.2-7.9-7.9-7.9c-4,0-6,3.4-6,10.3v59.6c0,1.4,0.1,2.7,0.3,4
	c0.4,2.9,2.1,4.4,4.9,4.4c1.9,0,3.3-0.7,4.2-2c1-1.4,1.4-3.3,1.4-5.9c0-15.5-0.3-29.7-0.8-42.6c-0.1-2.5-0.2-4.2-0.2-5.1
	s-0.1-1.8-0.1-3c0-1,0.1-1.5,0.2-1.5c0.2,0,0.6,0.9,1.1,2.7c4.5,17.3,8.4,30.3,11.5,39.1c0.7,2,1.8,3,3.3,3c1.3,0,2.3-0.9,3-2.8
	c4.7-12.4,8.6-24.8,11.8-37.2c0.4-1.6,0.8-2.4,1.1-2.4c0.3,0,0.4,0.5,0.4,1.5c0,2.3-0.1,5.7-0.2,10.2c-0.3,8.9-0.4,22.1-0.4,39.6
	c0,2,0.2,3.6,0.7,4.7c0.5,1.1,1.3,1.7,2.6,1.7C253.2,417.9,254.4,415.8,254.4,411.5z M278,409.6v-12.5c0-1.4,0.7-2.3,2.1-2.5
	c1.9-0.3,3.7-1.1,5.3-2.3c4.3-3.1,7.5-7.6,9.6-13.4c1.8-4.9,2.6-10.2,2.6-16.1c0-8.1-2.5-14.1-7.5-18c-4.3-3.3-9.4-5-15.3-5
	c-5.1,0-7.7,2.9-7.7,8.7v60.7c0,1.5,0.1,2.9,0.3,4.2c0.2,1.3,0.6,2.4,1.3,3.3c0.7,0.9,1.9,1.3,3.5,1.3
	C276.1,417.9,278,415.2,278,409.6z M278,386.9v-37.5c0-1.1,0.5-1.6,1.5-1.7c2.4,0,4.4,0.7,6,2c1.7,1.4,2.9,3.3,3.7,5.7
	c0.8,2.4,1.2,5,1.2,7.8c0,4.2-0.6,8.2-1.8,12.2c-1,3.5-2.5,6.6-4.5,9.2c-2,2.6-3.6,3.9-4.8,3.9C278.4,388.7,278,388.1,278,386.9z
	 M330.1,416.6c1.9-0.9,2.8-2.2,2.8-3.8c0-0.8-0.3-1.5-0.9-1.9c-0.6-0.4-1.2-0.6-2-0.6c-1.1,0-2.3,0.1-3.4,0.2
	c-1.1,0.1-2.3,0.2-3.4,0.2c-3.6,0-6-1-7.3-3.1c-0.8-1.3-1.2-3.2-1.2-5.7v-2.3c0-1.4,0.7-2.1,2.1-2.1l9.1,0.2c1.1,0,1.9-0.3,2.5-0.9
	c0.6-0.6,0.9-1.3,0.9-2.1c0-1.4-0.4-2.4-1.3-3c-0.7-0.5-1.9-0.8-3.3-0.8c-1.2,0-2.5,0-3.7,0.1c-1.2,0.1-2.5,0.1-3.7,0.1
	c-0.8,0-1.4-0.2-1.9-0.7c-0.4-0.4-0.6-1.4-0.6-3v-35.7c0-2.7,1-4,3.1-4c1.1,0,2.2,0,3.4,0.1c1.1,0,2.3,0.1,3.4,0.1
	c1.6,0,2.7-0.4,3.5-1.1c0.8-0.7,1.1-1.5,1.1-2.3c0-2.2-1.2-3.4-3.7-3.8c-1-0.1-1.9-0.2-2.7-0.2H311c-3.5,0-5.6,1.6-6.4,4.9
	c-0.4,1.5-0.6,3.4-0.6,5.6v42.1c0,3.3,0.1,6.3,0.4,9.3c0.5,6.5,2.8,11,6.8,13.5c2.2,1.3,5.3,2,9.3,2
	C325,417.9,328.3,417.5,330.1,416.6z M366.7,416.9c0.7-0.7,1-1.6,1-2.9c0-1.7-2.5-6.1-7.5-13.4c-0.7-1-1.4-2-2.2-3.1
	c-2.1-2.8-3.1-4.4-3.1-4.7c0-0.2,0.1-0.4,0.4-0.6c4.3-3.1,7.5-7.6,9.6-13.4c1.8-4.9,2.6-10.2,2.6-16.1c0-8.1-2.5-14.1-7.5-18
	c-4.3-3.3-9.4-5-15.3-5c-5.1,0-7.7,2.9-7.7,8.7v60.7c0,1.5,0.1,2.9,0.3,4.2c0.2,1.3,0.6,2.4,1.3,3.3c0.7,0.9,1.9,1.3,3.5,1.3
	c3.7,0,5.6-2.8,5.6-8.4v-12.5c0-1.2,0.1-1.8,0.4-1.8c0.1,0,0.5,0.4,1.1,1.3c3.3,6.4,6.1,11.6,8.5,15.6c2.1,3.8,4.2,5.8,6.2,5.8
	C365.2,417.9,366.1,417.6,366.7,416.9z M347.8,386.9v-37.5c0-1.1,0.5-1.6,1.5-1.7c4.8,0,8,2.6,9.7,7.7c0.8,2.4,1.1,5,1.1,7.8
	c0,4.2-0.6,8.2-1.8,12.2c-1,3.5-2.5,6.6-4.5,9.2c-2,2.6-3.6,3.9-4.8,3.9C348.2,388.7,347.8,388.1,347.8,386.9z M111.5,230.8
	l0.9-37.3l3.9,19.3l0.6,3l3.1,0.1l5.3,0.1l3.1,0.1l0.7-3l4-18.3l-0.3,36.2l7.6,0.1l0.3-42.8l0-3.9l-3.9,0.1l-6.4,0.2l-3,0.1
	l-0.6,2.9l-4.2,18.7l-3.8-18.8l-0.6-3l-13.3-0.2l-0.1,3.8l-1,42.7L111.5,230.8z M167.9,223.6l-17.3,0.2l0.3-6.8l15.6,0.3l0.1-7.7
	l-15.4-0.3L152,192l16.2,0.3l0.1-7.7l-23.6-0.4l-0.2,3.7l-1.7,39.6l-0.2,4l4,0l21.3-0.2L167.9,223.6z M177.7,231.9l0.9-37.3
	l3.9,19.3l0.6,3l3.1,0.1l5.3,0.1l3.1,0.1l0.7-3l4-18.3l-0.3,36.2l7.6,0.1l0.3-42.8l0-3.9l-4,0.1l-6.4,0.2l-3,0.1l-0.6,2.9l-4.2,18.7
	l-3.8-18.8l-0.6-3l-13.3-0.2l-0.1,3.8l-1,42.7L177.7,231.9z M210.7,200.6c-0.8,3.3-1.3,6.9-1.4,10.5c-0.1,3.6,0.3,7.1,1,10.2
	c1.7,6.8,5.5,11.8,11.9,12.1c6.8,0.3,11.3-6.4,13.3-15c0.8-3.4,1.2-7.1,1.3-10.8c0.1-3.7-0.3-7.4-1-10.5
	c-1.7-7.1-5.4-12.2-11.6-11.9C217.4,185.3,212.8,192.1,210.7,200.6z M224.5,192.7c1.7-0.1,3,2.5,3.8,6c0.6,2.6,0.9,5.6,0.8,8.7
	c-0.1,3.1-0.4,6.3-1.1,9.2c-1.2,5.2-3.2,9.2-5.5,9.1c-2.3-0.1-3.9-2.7-4.8-6.3c-0.6-2.5-0.9-5.3-0.8-8.2c0.1-2.9,0.5-6,1.2-8.8
	C219.5,197.1,221.7,192.8,224.5,192.7z M246.2,233.2l0.3-17.1c3.2,0.7,5.5,2.1,7,4.2c2.1,3,3,7.6,3,13.2l7.6,0
	c-0.1-7.2-1.3-13.1-4.4-17.6c-1.3-1.9-2.9-3.4-4.9-4.7c2.8-1.6,4.9-3.6,6.2-5.9c1.2-2.1,1.8-4.4,1.7-6.6c-0.1-2.3-0.8-4.6-2.2-6.5
	c-3-4.1-8.9-7.1-17.8-6.3l-3.4,0.3l-0.1,3.4l-0.7,43.4L246.2,233.2z M246.9,193.5c3.8,0.3,6.3,1.5,7.5,3.2c0.5,0.7,0.8,1.5,0.8,2.3
	c0,0.8-0.2,1.7-0.7,2.6c-1.2,2-3.8,3.8-7.8,4.6L246.9,193.5z M274,234.2l0.8-48.2l-7.7-0.1l-0.8,48.2L274,234.2z M301.4,225.9
	l-17.3,0.2l0.3-6.8l15.6,0.3l0.1-7.7l-15.4-0.3l0.7-17.4l16.2,0.3l0.1-7.7l-23.6-0.4l-0.2,3.7l-1.7,39.6l-0.2,4l4,0l21.3-0.2
	L301.4,225.9z M304.9,216.4c-2.2,7.8-0.6,13,2.7,16.1c2.6,2.4,6.1,3.4,9.5,3.1c3.3-0.2,6.6-1.6,8.9-3.8c3.2-3,4.7-7.5,2.4-12.8
	c-1.1-2.4-2.6-4.9-4.2-7.2c-2-2.8-4.2-5.3-5.9-6.9c-3.2-3.1-3.9-5.8-3.3-7.7c0.5-1.4,1.6-2.5,3-3.1c1.3-0.5,2.7-0.5,3.8,0.2
	c1.7,1.1,2.9,4,2.5,9.4l7.6,0.5c0.6-8.6-2.1-13.8-6-16.3c-3.3-2.2-7.3-2.3-10.8-0.9c-3.4,1.3-6.3,4.1-7.5,7.8
	c-1.4,4.4-0.4,10,5.3,15.5c1.4,1.4,3.3,3.4,5,5.8c1.3,1.9,2.5,3.8,3.4,5.8c0.8,1.8,0.3,3.3-0.7,4.3c-1.1,1-2.6,1.6-4.2,1.7
	c-1.5,0.1-2.9-0.2-3.8-1.1c-1.4-1.3-1.9-3.9-0.6-8.4L304.9,216.4z"/>
<path fill="#3D6F35" d="M376.6,171.9c-0.2,0.1-0.5,0.1-0.8,0.1c0-0.1,0.1-0.1,0.1-0.1c0.8-3.5,4.6-6.6,9.8-11.3
	c2.7-2.4-5.9-0.2-14.2,6.9c-0.4,0.3-0.8,0.7-1.2,1.1c-0.1,0.1-0.2,0.1-0.3,0.2c-0.1-0.1,0-0.2,0-0.2c3-10,10.7-16.3,9.4-16.6
	c-1.6-0.3-6.5,3-10,5.7c0.6-7.4-7.8-24.7-7.7-14.3c0.1,6.9-2.4,12.6-2.2,15.3c-2.7-3-8.2-8.8-10-8.4c-1.3,0.3,4.3,8.2,7.3,18.3
	c0,0.1,0.1,0.1,0,0.2c-0.1-0.1-0.2-0.1-0.3-0.2c-0.4-0.4-0.8-0.7-1.2-1.1c-8.3-7-18.5-8.3-15.8-5.9c3.9,3.4,6.2,3.7,11.4,10.3
	c0,0,0.1,0,0.1,0.1c-0.3,0-0.5,0-0.8-0.1c-10-3.8-17.8-4.4-16.2-3.2c13.5,9.6,16.7,13.3,16.8,13.8c-10.1-6.4-19.5-6.6-16.5-4.6
	c12.9,8.3,18.3,13.4,18.5,13.7c-0.2,0-0.3,0-0.4,0c-14.5-7.2-13.9-5-11.8-3.4c7.9,5.9,10.6,9.2,10.6,9.2c-1.3,0.7-14.1,4-16.3,20.4
	c-2.3,16.7,5.3,25.3,28.4,25.5c23.2-0.2,30.7-8.8,28.4-25.5c-1.1-8.2-5.6-16.6-15.8-20.3c-0.4-0.1-0.3-0.1-0.4-0.2
	c0,0,8-5.8,12.9-10.7c2.5-2.5-4.7-0.5-14,4.9c-0.1,0.1-0.3,0.1-0.4,0c0.2-0.3,4.9-6.7,17.4-13.4c4.2-2.2-5.6-1.2-15.4,4.3
	c0.1-0.4,3.1-4.4,17-12.6C394.8,168.7,383.9,168.9,376.6,171.9z M374.7,197.8c0,0,2,0.5,3.8,1.3c7.4,3.5,11.3,11,12.4,18.6
	c2.1,14.2-2.4,24.8-27.5,25c-25.1-0.2-29.5-10.8-27.5-25c1.1-7.6,4.9-15.1,12.4-18.6c2-0.9,3.6-1.4,3.6-1.4
	c3.5,2.5,8.2,2.2,11.8,2.2C370.1,199.8,374.7,197.8,374.7,197.8z M40.1,169.8c14,8.2,16.9,12.2,17,12.6c-9.8-5.5-19.6-6.5-15.4-4.3
	c12.5,6.6,17.1,13,17.4,13.4c-0.2,0-0.3,0-0.4,0c-9.4-5.3-16.5-7.4-14-4.9c4.9,4.9,12.8,10.6,12.9,10.7c-0.2,0.1,0,0-0.4,0.2
	c-10.2,3.6-14.7,12-15.8,20.3c-2.3,16.7,5.3,25.3,28.4,25.5c23.2-0.2,30.7-8.8,28.4-25.5c-2.2-16.4-15-19.8-16.3-20.4
	c0,0,2.7-3.3,10.6-9.2c2.1-1.6,2.7-3.8-11.8,3.4c-0.1,0.1-0.3,0.1-0.4,0c0.2-0.3,5.7-5.4,18.5-13.7c3-1.9-6.4-1.8-16.5,4.6
	c0.1-0.4,3.2-4.1,16.8-13.8c1.6-1.1-6.1-0.6-16.2,3.2c-0.2,0.1-0.5,0.1-0.8,0.1c0-0.1,0.1-0.1,0.1-0.1c5.2-6.6,7.6-6.9,11.4-10.3
	c2.7-2.4-7.4-1.1-15.8,5.9c-0.4,0.3-0.8,0.7-1.2,1.1c-0.1,0.1-0.2,0.1-0.3,0.2c-0.1-0.1,0-0.2,0-0.2c3-10,8.6-18,7.3-18.3
	c-1.9-0.4-7.3,5.4-10,8.4c0.2-2.8-2.3-8.5-2.2-15.3c0.1-10.4-8.3,6.9-7.7,14.3c-3.5-2.6-8.4-6-10-5.7c-1.3,0.3,6.4,6.5,9.4,16.6
	c0,0.1,0.1,0.1,0,0.2c-0.1-0.1-0.2-0.1-0.3-0.2c-0.4-0.4-0.8-0.7-1.2-1.1c-8.3-7-16.9-9.3-14.2-6.9c5.2,4.7,9.1,7.8,9.8,11.3
	c0,0,0.1,0,0.1,0.1c-0.3,0-0.5,0-0.8-0.1C49.2,168.9,38.3,168.7,40.1,169.8z M69.4,199.9c3.6,0,8.3,0.3,11.8-2.2
	c0,0,1.6,0.5,3.6,1.4c7.4,3.5,11.3,11,12.4,18.6c2.1,14.2-2.4,24.8-27.5,25c-25.1-0.2-29.5-10.8-27.5-25c1.1-7.6,4.9-15.1,12.4-18.6
	c1.8-0.8,3.8-1.3,3.8-1.3S63,199.8,69.4,199.9z M58.1,140.9c-2.4-0.6-3-2.2-3.2-3.7c-0.7-6.6-1.4-13.2-2-20c-0.3-1.6,0.1-3.2,0-4.7
	c-1.4-17.5-0.9-34.8-1-52.2c0-3.6,0-7.3-0.4-10.9c-2.4-1-4.5-0.4-6.5,0c-2.2,0.3-4.5,0.7-6.8,0.7c-3.6,0-6-1.9-6.9-4.7
	c-1-3,0.6-6.2,4.2-7.5c2-0.7,4.3-1.3,6.5-1.6c8.6-1,17.1-2.3,26-0.6c3.2,0.7,6.5,0.3,9.6,0.4c1.9,0.1,3.7,0.1,5.5,0.6
	c2.6,0.7,4.6,3.2,4.9,5.6c0.3,2.3-1,5-3.5,5.9c-1.9,0.7-4,1.1-6,1.1c-4.3,0.1-8.6,0-13.5,0v3.3c0,5,0.1,10.2,0.3,15.2
	c0.1,22.6-1.6,45.2-4.9,67.3C60.1,137.3,60.1,139.7,58.1,140.9z M135.7,33.1c0.9,0.1,2,0.3,3.2,0.6c4.6,1.4,6.3,3.7,6.2,8.3
	c0,3-0.3,6-0.3,9.1c-0.1,8.1-0.1,16.1-0.1,24.3c-0.1,5.5,0,10.9,0,16.4c0,7.6,0.4,15.4-0.1,23c-0.6,7.2-2,14.2-3.2,21.3
	c-0.1,1-0.7,1.7-1.2,2.9c-1.2-0.1-2-0.1-3.5-0.3c-5.2-14.8-6.9-29.8-9.2-45c-5.5-0.7-9.9,1-14.8,1.4c-1.3,4-1.6,8.3-1.7,12.5
	c-0.4,6.8-0.6,13.7-0.9,20.6c-0.1,1.2-0.1,2.4-0.1,3.6c0,4.7-2.3,7.8-6,10.1c-3.9-2.3-5.3-5.6-5.9-9.3c-1.1-6.6-1-13.1-1.1-19.6
	c0-7.3-0.3-14.5-0.4-21.9C96.2,80.5,96,70,95.7,59.5l-0.4-17.1c0-2.7,0.4-5.2,3.3-6.9c2-0.4,4.6-0.9,7.2-1.3c5,0.7,7.3,4.2,7.9,8.6
	c0.7,6,1.3,12.2,1.4,18.3c0,5.2-0.7,10.4-1,15.7v5.6c4.3,0.3,7.6-0.9,11.4-1.4c0.1-4.6,0.1-9.1,0.4-13.4c0.6-7.6,1.2-15.2,1.9-22.9
	c0.3-2.3,1-4.6,2-6.8C130.6,35.4,132.3,33.6,135.7,33.1z M169,73.3c1.7-0.1,3.3-0.4,4.9-0.4c1.3-0.1,2.7-0.1,4,0.3
	c3.5,1,5.2,4.7,3.5,7.8c-1.3,2.4-3.2,4.7-6.3,5.5c-2.2,0.3-4.2,0.9-5.8,2.7c0.1,11.7,0.1,23.3,0.1,35.4c0.9,0,1.9,0.3,3,0.3
	c1.9,0.1,3.6-0.1,5.3,0.1c2.4,0.4,4.2,1.9,4.9,4.3c0.7,2.4-0.1,4.3-2,5.6c-1.9,1.2-3.7,2.4-5.8,2.7c-4.3,0.7-8.5,1.7-11.9,4.3
	c-0.7,0.6-1.7,0.9-2.7,1c-4.6,0.9-7.9-2.6-6.9-7.2c0.3-1.2,0.9-2.2,1.3-3c0-0.6,0.1-1,0-1.4c-1.9-6.2-2.4-12.5-2-18.8
	c1-19.8,0.1-39.7-0.4-59.7c0-3.2,0-6.3,0.1-9.5c0.1-4.6,2.4-7.6,6.9-8.9c1.9-0.4,3.9-0.9,5.6-1.4c4.7-1.7,9.1-0.6,13.2,1.9
	c2,1.1,3.2,2.7,3.2,4.9c0.1,2.2-1,3.9-2.9,4.6c-1.6,0.7-3.3,1-5,1.4c-1.7,0.3-3.4,0.4-5.6,0.7c-0.6,4.6,0.1,9.1,0.3,13.7
	C168.3,64.4,167.5,68.7,169,73.3z M246.1,86.8c6.3,6.2,7.6,13.8,7.3,21.7c-0.1,4.5-0.1,9.2-1,13.7c-2.3,13.5-12.4,18.8-24.2,20.1
	c-4.3,0.4-7-1.6-8.2-6c-1.2-4.5-1.9-9.1-2.2-13.7c-0.4-5.8-0.3-11.7-0.3-17.4c-0.1-16.1-0.1-32.1-0.1-48.2c0.1-4.2,0.7-8.2,1.2-12.4
	c0.1-1.4,0.7-2.9,1.3-4.2c2.6-6.3,7.8-8.9,14.5-7.5c11.1,2.4,17.1,9.9,20.6,20.1c2,5.9,1.6,11.9-0.3,17.8
	C253,76.4,250.3,81.6,246.1,86.8z M227.7,129.9c9.8-1.7,12.8-4.7,13.4-13.4c0.4-4.6,0.1-9.2,0-13.8c-0.1-2.3-0.6-4.6-3.2-6.2l-7-0.4
	C229.7,107.5,228.7,118.4,227.7,129.9z M232.3,81.3c2.9-1.4,5-3.3,6.2-5.9c3.2-7.5,3.2-15-0.1-22.4c-0.4-0.9-1.6-1.4-2.6-2.3
	c-3.2,2.6-4.5,5.8-4.3,9.5c0,6.3,0.1,12.8,0.1,19.3L232.3,81.3z M280.4,73.3c1.7-0.1,3.3-0.4,4.9-0.4c1.3-0.1,2.7-0.1,4,0.3
	c3.5,1,5.2,4.7,3.5,7.8c-1.3,2.4-3.2,4.7-6.3,5.5c-2.2,0.3-4.2,0.9-5.8,2.7c0.1,11.7,0.1,23.3,0.1,35.4c0.9,0,1.9,0.3,3,0.3
	c1.9,0.1,3.6-0.1,5.3,0.1c2.4,0.4,4.2,1.9,4.9,4.3c0.7,2.4-0.1,4.3-2,5.6c-1.9,1.2-3.7,2.4-5.8,2.7c-4.3,0.7-8.5,1.7-11.9,4.3
	c-0.7,0.6-1.7,0.9-2.7,1c-4.6,0.9-7.9-2.6-6.9-7.2c0.3-1.2,0.9-2.2,1.3-3c0-0.6,0.1-1,0-1.4c-1.9-6.2-2.4-12.5-2-18.8
	c1-19.8,0.1-39.7-0.4-59.7c0-3.2,0-6.3,0.1-9.5c0.1-4.6,2.4-7.6,6.9-8.9c1.9-0.4,3.9-0.9,5.6-1.4c4.7-1.7,9.1-0.6,13.2,1.9
	c2,1.1,3.2,2.7,3.2,4.9c0.1,2.2-1,3.9-2.9,4.6c-1.6,0.7-3.3,1-5,1.4c-1.7,0.3-3.4,0.4-5.6,0.7c-0.6,4.6,0.1,9.1,0.3,13.7
	C279.7,64.4,278.8,68.7,280.4,73.3z M330.1,67.8c-0.9-0.9-2.3-2.2-3-3.6c-1.9-4-4.5-8.1-4.7-12.4c-0.1-2.4-0.7-5-4.2-7
	c-1,0.9-2.4,1.4-2.7,2.3c-0.6,2-0.9,4.2-0.4,6.2c0.3,2.3,1.4,4.6,2.6,6.8c2.2,3.6,4.3,7.3,6.9,10.8c6.3,8.3,10.5,17.4,12.5,26.6
	c2.9,11.9,2.7,23.9-1.4,35.2c-0.6,1.6-1.3,3.2-2.4,4.6c-3.5,4.6-9.8,5.9-16.5,3.2c-2.4-1-4.7-2.3-6.8-3.9c-5.5-4-8.8-8.9-10.4-14.5
	c-2.3-8.3-2.9-16.5-1.7-24.7c0.4-3.5,1.9-6.5,3.9-9.5c1.6-2.3,3.9-4,7.6-4.3c4.2,0.7,5.9,3.2,6.5,6c0.4,1.7,0.3,3.4,0.1,5.2
	c-0.3,5.2-0.9,10.2-0.9,15.4c-0.1,3.6,0.3,7.3,0.7,10.9c0.3,2.3,1.4,4.5,4.9,5.8c3-2.2,3.9-5,4.2-8.1c0.6-6.9-0.6-13.8-2.4-20.7
	c-3.2-11.5-10.1-22-17.8-32.2c-2.6-3.4-4.7-7-5.8-10.9c-1.7-8.1,1.6-14.4,7.9-19.7c4-3.3,11.2-3.6,17.1-1.2c4.3,1.9,7.5,4.5,9.8,7.6
	c4,6,5.9,12.2,6,18.7c0.1,2.3-0.6,4.6-2.4,6.3C335.6,68.2,333.6,69,330.1,67.8z M368.1,140.9c-2.4-0.6-3-2.2-3.2-3.7
	c-0.7-6.6-1.4-13.2-2-20c-0.3-1.6,0.1-3.2,0-4.7c-1.4-17.5-0.9-34.8-1-52.2c0-3.6,0-7.3-0.4-10.9c-2.4-1-4.5-0.4-6.5,0
	c-2.2,0.3-4.5,0.7-6.8,0.7c-3.6,0-6-1.9-6.9-4.7c-1-3,0.6-6.2,4.2-7.5c2-0.7,4.3-1.3,6.5-1.6c8.6-1,17.1-2.3,26-0.6
	c3.2,0.7,6.5,0.3,9.6,0.4c1.9,0.1,3.7,0.1,5.5,0.6c2.6,0.7,4.6,3.2,4.9,5.6c0.3,2.3-1,5-3.5,5.9c-1.9,0.7-4,1.1-6,1.1
	c-4.3,0.1-8.6,0-13.5,0v3.3c0,5,0.1,10.2,0.3,15.2c0.1,22.6-1.6,45.2-4.9,67.3C370.1,137.3,370.1,139.7,368.1,140.9z M66.1,286.6
	c0,4.8,0.3,8.4,1,10.8c-0.6,20.2-2.5,30.4-5.7,30.4h-1c-2.5,0-3.8-4.9-3.8-14.7v-5.9h-1c-10.7,0-16.1,2.6-16.1,7.8
	c-0.8,7.2-2.3,10.7-4.7,10.7c-3.2-0.9-4.8-3.2-4.8-6.9c0-44.5,3.2-66.6,9.5-66.6c0-1.8,3.2-3.1,9.5-4
	C60.5,248.3,66.1,261.1,66.1,286.6z M42.5,302.2c9.5-1.5,14.2-3.5,14.2-5.9c0-6.4-0.3-18.1-1-35.3c-1.2-3-2.4-4.7-3.8-4.9h-3.8
	c-4.4,0-6.6,15-6.6,45.1C42.2,301.3,42.5,301.6,42.5,302.2z M86.1,248.9c10.4,0,15.6,7,15.6,20.9v11.3c0,9.5-1.5,18-4.5,25.7v1.9
	c0,2.2,2.4,6.7,7.3,13.3v1.9c0,0.5-0.9,1.5-2.8,2.9c-1.9,0-5.8-4.8-11.9-14.3c-4.9,0-7.3,4.4-7.3,13.3h-2.7
	c-3.6-2.6-5.5-5.4-5.5-8.5c1.2-15.3,1.9-33.9,1.9-56v-5.7c0-4.4,2.1-6.6,6.4-6.6H86.1z M85.2,302.9H88c3-3.5,4.5-18.7,4.5-45.5
	c-1.5-1.3-2.4-1.9-2.7-1.9H87c-1.2,0.2-1.8,0.9-1.8,1.9V302.9z M128.4,248.3c4.2,1.1,6.3,2.4,6.3,3.7v0.9c0,0.8-4.8,2.7-14.4,5.6
	v33.6c0,1.3,3,2.2,9,2.8l0.9,1.9v1.9l-6.3,1.9h-4.5v15.8c0,0.9,0.9,1.8,2.7,2.8h5.4c0.6,0,0.9-0.3,0.9-0.9c4.2,1.1,6.3,2.4,6.3,3.7
	v2.8c-5.5,1.3-8.8,1.9-9.9,1.9c-10.2-1.2-15.3-6.2-15.3-14.9c0-39.8,1.5-59.7,4.5-59.7L128.4,248.3z M198,248.3c0.9,0,1.9,1,2.9,3
	c1.2,20.2,2.2,43.7,2.8,70.5h1c-0.8,3.2-1.7,4.9-2.8,4.9H199c-2.1,0-3.7-5.5-4.7-16.7v-43.1c-2.5,0-5.1,9.5-7.6,28.4h-1.9
	c-5.4,0-10.5-7.5-15.1-22.5h-1.9c0.6,12.1,1,20.9,1,26.4v18.6c0,4.8-1,7.5-2.8,7.8h-1c-4.4,0-6.6-3-6.6-8.8v-48c0-3.8-0.3-9-1-15.7
	c1-2.6,1.9-3.9,2.9-3.9h0.9c5.7,0,12,9.8,18.9,29.4h1c5.9-19.2,10.3-29.3,13.2-30.4H198z M247.6,286.6c0,4.8,0.3,8.4,1,10.8
	c-0.6,20.2-2.5,30.4-5.7,30.4h-1c-2.5,0-3.8-4.9-3.8-14.7v-5.9h-1c-10.7,0-16.1,2.6-16.1,7.8c-0.8,7.2-2.3,10.7-4.7,10.7
	c-3.2-0.9-4.8-3.2-4.8-6.9c0-44.5,3.2-66.6,9.5-66.6c0-1.8,3.2-3.1,9.5-4C241.9,248.3,247.6,261.1,247.6,286.6z M223.9,302.2
	c9.5-1.5,14.2-3.5,14.2-5.9c0-6.4-0.3-18.1-1-35.3c-1.2-3-2.4-4.7-3.8-4.9h-3.8c-4.4,0-6.6,15-6.6,45.1
	C223.6,301.3,223.9,301.6,223.9,302.2z M286.1,264.5c1.2,8.7,1.7,13.6,1.7,14.6c0,25.3-3.8,39.9-11.5,43.8c-3,1.6-7.1,2.9-12.3,3.7
	c-8.2-1.4-12.3-3.2-12.3-5.5c0.2-1.2,0.7-1.8,1.7-1.8h5.3v-60.2c-2.9-3.3-4.4-5.2-4.4-5.5v-0.9c0-2.5,4.7-4.3,14.1-5.5
	C277.6,247.2,283.5,253,286.1,264.5z M268.4,281c-0.6,10.3-0.8,21.9-0.8,34.7v2.7h1.7c5.9,0,8.8-11.8,8.8-35.6
	c-0.6-18.9-2.4-28.3-5.3-28.3h-2.6c-1.3,0-2.2,1.5-2.6,4.6C267.6,267.1,267.8,274.4,268.4,281z M313.9,248.3
	c4.2,1.1,6.3,2.4,6.3,3.7v0.9c0,0.8-4.8,2.7-14.4,5.6v33.6c0,1.3,3,2.2,9,2.8l0.9,1.9v1.9l-6.3,1.9h-4.5v15.8c0,0.9,0.9,1.8,2.7,2.8
	h5.4c0.6,0,0.9-0.3,0.9-0.9c4.2,1.1,6.3,2.4,6.3,3.7v2.8c-5.5,1.3-8.8,1.9-9.9,1.9c-10.2-1.2-15.3-6.2-15.3-14.9
	c0-39.8,1.5-59.7,4.5-59.7L313.9,248.3z M348.2,248.9c4.8,0,7.1,23.8,7.1,71.5c0,2.1-1.4,4.2-4.1,6.3c-4.7,0-7.1-12.3-7.1-36.8
	c-0.7-14-1-26.3-1-36.8h-1.1c1-2.8,2.1-4.2,3.1-4.2H348.2z M396.7,252.2c-0.6,17.9-0.9,32.7-0.9,44.5v5.8c0,5.2-0.3,11.3-1,18.4
	l1,1.9c-1,2.6-1.9,3.9-2.8,3.9h-1.9c-2.5-0.9-3.8-3.8-3.8-8.7v-19.3c0-1.4-4.3-9.2-13.1-23.2h-1v34.8c0,2.6-0.6,6.8-1.9,12.6h-2.8
	c-2.5-1-3.7-3.3-3.7-6.7v-52.2c0-2.7-0.3-6.2-1-10.6l2.8-3.8c4.1,0,10.3,10.6,18.7,31.9l1.9,0.9h1v-0.9c0-5.4,0.3-13.5,0.9-24.2
	l-0.9-4.8c0.6-2.6,2.2-3.9,4.7-3.9C395,249,396.3,250.3,396.7,252.2z M307,154.8c1.8-1.5,4.7-1.8,7.1-2.4c4-1,8.6-0.6,12.3,0.9
	c1.4,0.6,2.7,1.2,3.7,2.2c1.3,1.3,1.8,2.5,2.3,4.1c0.4,1.2,0,2.8-1.1,3.7c-0.9,0.7-2.4,1.2-3.6,1.6c-2.5,0.9-8.5,0.3-8-2.7
	c0.2-1.6,2.2-1.7,3.8-1.2c0.9,0.3,2.1,1,3.1,0.8c1.2-0.3,0.9-1.6,0.5-2.3c-1-2.1-4.7-1.3-6.6-0.6c-3.9,1.6-3.7,5.9,0.3,7.3
	c3.7,1.3,8.7-0.2,11.1-2.5c3-2.8,2.5-6.8-0.7-9.3c-2-1.6-4.7-2.7-7.4-3.2c-3.2-0.6-6.5-0.7-9.7-0.2c-2.6,0.4-4.7,1.8-7.4,1.7
	c-2.7-0.1-5-1.6-7.7-2c-2.8-0.3-5.6-0.1-8.3,0.4c-1,0.2-2.5,0.4-3.4,0.8c-1,0.5-1.3,1.5-2.3,1.9c-1.3,0.6-1.8-0.5-2.7-1
	c-1.3-0.7-3.5-1.6-5.1-1.9c-5.4-1-11.3,0.2-16,2.4c-3.9,1.8-6.2,4.6-8.7,7.4c-2.6,2.9-5.8,5-9.8,6.6c-4.7,1.9-10.7,3.2-16.1,2.4
	c-2.9-0.4-5.2-1.4-6.8-3.1c-2.1-2.3-3.7-4.8-3.3-7.8c0.4-2.7,3.1-4.8,6.3-5.7c0.6-0.2,1.2-0.2,1.8-0.3c3-0.5,6.7,0.4,8.1,2.7
	c0.7,1.2,0.8,2.9,0.5,4.2c-0.5,2-1.9,4-4.8,2.9c-1.3-0.5-2.1-1.6-3.3-2c-1.3-0.5-2.5,0.2-2.9,1.2c-0.7,1.7,1.5,3.3,3.3,3.9
	c1.8,0.6,5,0.3,6.6-0.5c5.6-2.5,5.1-10.6-0.9-12.6c-5.1-1.8-12.1-0.7-14.9,3.3c-0.7,0.9-1.2,1.9-1.5,2.9c-0.3-1-0.8-1.9-1.5-2.9
	c-2.8-4-9.8-5.1-14.9-3.3c-3.6,1.3-5.1,4.5-4.7,7.4c0.2,1.4,0.8,3,2.1,4c1.8,1.4,6.1,1.6,8.4,1c1.3-0.4,3.6-1.2,3.4-2.5
	c-0.2-1.6-3.5-0.6-4.8-0.5c-2,0.1-4.1-0.2-5.5-1.4c-1.3-1.2-1.1-3.8-0.3-5.1c1.4-2.2,5.1-3.2,8.1-2.7c0.6,0.1,1.3,0.2,1.8,0.3
	c3.2,0.9,5.9,3,6.3,5.7c0.5,3.1-1.1,5.5-3.3,7.8c-1.6,1.7-3.9,2.7-6.8,3.1c-5.3,0.8-11.3-0.5-16.1-2.4c-4-1.6-7.2-3.8-9.8-6.6
	c-2.6-2.8-4.8-5.6-8.7-7.4c-4.7-2.2-10.6-3.4-16-2.4c-1.6,0.3-3.8,1.2-5.1,1.9c-0.9,0.5-1.4,1.6-2.7,1c-1-0.4-1.3-1.4-2.3-1.9
	c-0.8-0.4-2.4-0.6-3.4-0.8c-2.7-0.5-5.5-0.8-8.3-0.4c-2.7,0.3-5,1.9-7.7,2c-2.7,0.1-4.9-1.3-7.4-1.7c-3.2-0.5-6.5-0.4-9.7,0.2
	c-2.8,0.6-5.4,1.6-7.4,3.2c-3.2,2.5-3.7,6.5-0.7,9.3c2.5,2.3,7.4,3.8,11.1,2.5c3.1-1.1,4.1-4.2,2-6.3c-1.6-1.5-7.9-2.4-8.6,0.2
	c-0.7,2.4,7.3-0.9,7.8,2.1c0.5,3-5.5,3.6-8,2.7c-1.2-0.4-2.7-0.9-3.6-1.6c-1.2-0.9-1.5-2.6-1.1-3.7c0.5-1.5,1-2.8,2.3-4.1
	c1-1,2.3-1.6,3.7-2.2c3.7-1.5,8.3-1.9,12.3-0.9c3.9,1,8,2.2,10.2,5.1c0.6,0.8,0.8,1.7,1.3,2.5c0.6,0.9,1.5,1.7,2.2,2.5
	c1.4,1.8,2.5,3.7,4.5,5.1c2.3,1.7,5.3,2.9,8.3,3.8c4.4,1.4,9,1,13.5,0c2-0.4,3.7-1.1,5.8-0.7c1.9,0.3,3.5,1.3,5.3,1.8
	c3,0.9,6.5,0.6,9.6,0c1.6-0.3,3.2-0.7,4.5-1.5c1.2-0.7,2-1.6,3.7-1.5c1.5,0,2.4,0.8,3.6,1.4c0.8,0.4,1.6,0.8,2.5,1.2
	c3.2,1.3,7.3,1.5,10.8,1.8c0.9,0.1,1.8,0.1,2.6,0c1.6-0.2,3.3-0.9,4.7-1.6c1.1-0.5,2.2-1.2,3-2c1.1-1.1,1.7-2.1,1.9-3.4
	c0.2-0.9,0.6-1.8,0.9-2.8c0.1,0.5,0.3,0.9,0.5,1.4c1,2.1,2.8,4.4,4.9,5.7c4.2,2.7,10.6,3.4,15.7,2c1.8-0.5,3.6-1.2,5.2-2
	c1.3-0.6,2.2-1.7,3.8-1.8c1.5,0,2.8,0.7,4,1.3c1.5,0.7,3,1.3,4.6,1.7c3.3,1,6.9,0.5,10.1-0.4c2.3-0.7,4.2-1.9,6.8-1.5
	c5,0.7,11.5,1.3,16.6,0.6c3.8-0.6,7.3-2,9.9-4.4c2.2-2.1,3.9-4.8,5.9-7.1C304.4,158.2,305.3,156.3,307,154.8z M158.1,168.9
	c-0.3,1.6-7.5,0.6-9,0.4c-3.9-0.7-7.8-2-11-3.9c-3.1-1.9-5.2-4.5-7.4-7c-1.1-1.2-4-2.4-4.2-4c0-0.1,0-0.2,0-0.3
	c0.2-2,4.5-2.3,6.4-2.3c6.8,0,12.4,4.4,15.7,8.7c1.7,2.2,3.4,3.6,5.7,5.3C155.3,166.3,158.3,167.9,158.1,168.9z M178.6,169.2
	c-2.6,0.2-5.2,0-7.7-0.4c-5.8-0.9-11.2-3.4-14.8-7.1c-1.8-1.9-3.4-4-5.4-5.7c-2.1-1.8-1.7-3.1,1.3-3.8c3-0.7,6.2-0.7,9.2-0.1
	c2.6,0.5,4.4,1.7,6.4,3c1.2,0.8,2.3,1.7,3.4,2.6c0.9,0.8,1.4,1.7,2,2.7c0.1,0.2,0.3,0.4,0.4,0.7c1.1,1.6,2.6,3.4,4.4,4.6
	C179.8,167,184,168.7,178.6,169.2z M259.3,168.8c-2.5,0.4-5.1,0.6-7.7,0.4c-5.4-0.5-1.2-2.2,0.8-3.5c1.8-1.2,3.3-3,4.4-4.6
	c0.1-0.2,0.3-0.4,0.4-0.7c0.6-1,1-1.9,2-2.7c1.1-0.9,2.2-1.8,3.4-2.6c2-1.3,3.8-2.5,6.4-3c3-0.5,6.2-0.6,9.2,0.1
	c3,0.7,3.4,2,1.3,3.8c-2.1,1.8-3.6,3.8-5.4,5.7C270.4,165.4,265,167.9,259.3,168.8z M299.4,158.4c-2.2,2.5-4.2,5.1-7.4,7
	c-3.2,1.9-7,3.3-11,3.9c-1.5,0.2-8.6,1.3-9-0.4c-0.2-1,2.8-2.6,3.6-3.2c2.4-1.7,4.1-3.1,5.7-5.3c3.3-4.3,8.9-8.7,15.7-8.7
	c1.9,0,6.1,0.4,6.4,2.3c0,0.1,0,0.2,0,0.3C303.3,156,300.4,157.2,299.4,158.4z"/>
</svg>
