<?xml version="1.0" encoding="utf-8"?>
<!-- Generator: Adobe Illustrator 18.0.0, SVG Export Plug-In . SVG Version: 6.00 Build 0)  -->
<!DOCTYPE svg PUBLIC "-//W3C//DTD SVG 1.1//EN" "http://www.w3.org/Graphics/SVG/1.1/DTD/svg11.dtd">
<svg version="1.1" id="Layer_1" xmlns="http://www.w3.org/2000/svg" xmlns:xlink="http://www.w3.org/1999/xlink" x="0px" y="0px"
	 viewBox="0 0 432 432" enable-background="new 0 0 432 432" xml:space="preserve">
<path fill="#BC936B" d="M336.4,243.4c0.8-0.7,1.7-1.2,2.7-1.5c1.8-0.5,3.6-0.7,5.5-0.8c5-0.2,10-0.3,15-0.2
	c3.7,0.1,7.4,0.3,11.1,0.3c9.6,0,19.1-0.1,28.7-0.1c3.3,0,6.6,0.2,9.8,0.4c1.1,0.1,2.2,0.4,3.3,0.7c1.2,0.3,1.9,1.2,2.3,2.4
	c0.5,1.4,0.4,2.8-0.3,4.2c-0.5,0.9-1.1,1.7-1.9,2.2c-1.1,0.8-2.3,1.6-3.5,2.3c-0.5,0.3-0.8,0.8-1,1.3c-0.3,1-0.5,2-0.8,3
	c-1.6,5.3-4.6,9.6-9.1,12.9c-1.1,0.8-1.9,1.9-2.1,3.3c-0.2,0.9-0.4,1.8-0.5,2.7c-1.6,10-3.2,20-4.7,30c-1.7,10.9-3.5,21.7-5.9,32.4
	c-0.9,3.9-1.8,7.8-2.7,11.6c-0.5,2-1.2,3.9-2.2,5.7c-0.7,1.3-1.5,2.5-2.7,3.3c-1.8,1.3-3.6,1.1-5.1-0.6c-0.7-0.9-1.3-1.9-1.6-2.9
	c-0.7-1.8-1.3-3.6-1.8-5.5c-0.7-2.4-1.4-4.8-1.9-7.3c-2.7-11.9-5.3-23.7-8-35.6c-1.4-6.2-2.7-12.5-3.5-18.8
	c-0.5-3.7-0.9-7.4-1.2-11.2c-0.1-0.9-0.4-1.6-1.1-2.2c-0.7-0.6-1.3-1.2-1.8-1.9c-2.3-3-4.3-6.2-5.8-9.7c-1.6-3.6-2.6-7.5-3.4-11.3
	c-0.1-0.3-0.1-0.6-0.2-0.9c-0.6-0.2-1.2-0.4-1.8-0.6c-1.6-0.5-2.9-1.5-3.9-2.8C335,246.8,335.1,244.7,336.4,243.4z M399.9,222.3
	c1.2-5.4,0.3-10.3-3.6-14.4c-1.4-1.6-3.2-2.7-5-3.9c-3.9-2.5-8-4.6-12.1-6.8c-2.2-1.2-4.4-2.5-6.2-4.4c-1.3-1.4-2.2-2.9-2.5-4.7
	c0-0.1,0-0.3-0.1-0.4c-0.1-0.3-0.3-0.3-0.5-0.2c-0.1,0.1-0.2,0.2-0.3,0.3c-1.5,1.6-3.1,3.2-4.6,4.8c-1.8,1.8-3.5,3.7-4.7,6.1
	c-3,5.9-3.2,11.9-0.4,17.9c1,2.2,2.7,3.7,4.8,4.7c1.7,0.9,3.5,1.4,5.4,1.7c4.5,0.9,9.1,1,13.6,0.6c3-0.3,5.9-0.5,8.9-0.8
	c2.1-0.2,4.1-0.1,6.2,0.1C399.7,223.2,399.7,223.2,399.9,222.3z M407,236.7c0.7-2.9,0.3-5.5-1.7-7.8c-2-2.3-4.4-3.6-7.5-3.8
	c-1.9-0.1-3.7-0.2-5.6,0c-3.3,0.3-6.7,0.6-10,0.9c-4.1,0.3-8.2,0.1-12.2-0.7c-3.5-0.7-6.8-1.9-9.6-4.2c-0.2-0.1-0.4-0.3-0.5-0.4
	c-0.6-0.3-0.8-0.2-1.3,0.1c-0.6,0.4-1.3,0.9-1.9,1.2c-2.5,1.3-4.9,2.6-7.1,4.3c-0.5,0.4-0.9,0.7-1.3,1.1c-2.3,2.3-3.8,5-4.6,8.2
	c-0.1,0.4-0.2,0.9-0.2,1.3c0,1.1,0.5,1.8,1.7,1.9c0.4,0.1,0.9,0,1.3,0c3.9-0.2,7.8-0.4,11.7-0.6c2.1-0.1,4.3,0,6.4,0
	c2.3,0,4.5,0.1,6.8,0.1c4,0.1,8,0.1,12,0.3c5.5,0.2,11,0.3,16.6,0.1c1.6-0.1,3.1,0,4.7,0C405.9,238.8,406.6,238.3,407,236.7z
	 M388.3,193.7c0.3-6.3-1.1-12.2-4.5-17.6c-2-3.2-4.9-5.4-8.3-6.9c-0.3-0.1-0.7-0.2-1-0.3c-1.6-0.3-2.7,0.5-2.6,2.2
	c0,0.7,0.2,1.3,0.4,2c0.1,0.5,0.3,1,0.4,1.5c0.8,2.5,0.8,5.1,0.2,7.7c-0.1,0.7-0.3,1.4-0.4,2.1c-0.2,1.5-0.1,2.9,0.6,4.2
	c0.5,1,1.1,2,1.7,2.9c0.7,1,1.6,1.6,2.6,2.2c2.3,1.3,4.7,2.6,7,3.9c0.8,0.4,1.6,0.9,2.5,1.3c0.3,0.2,0.6,0.3,1,0.2
	c0-0.1,0.1-0.1,0.1-0.2C388.1,197.2,388.2,195.5,388.3,193.7z M89.7,243.4c-0.8-0.7-1.7-1.2-2.7-1.5c-1.8-0.5-3.6-0.7-5.5-0.8
	c-5-0.2-10-0.3-15-0.2c-3.7,0.1-7.4,0.3-11.1,0.3c-9.6,0-19.1-0.1-28.7-0.1c-3.3,0-6.6,0.2-9.8,0.4c-1.1,0.1-2.2,0.4-3.3,0.7
	c-1.2,0.3-1.9,1.2-2.3,2.4c-0.5,1.4-0.4,2.8,0.3,4.2c0.5,0.9,1.1,1.7,1.9,2.2c1.1,0.8,2.3,1.6,3.5,2.3c0.5,0.3,0.8,0.8,1,1.3
	c0.3,1,0.5,2,0.8,3c1.6,5.3,4.6,9.6,9.1,12.9c1.1,0.8,1.9,1.9,2.1,3.3c0.2,0.9,0.4,1.8,0.5,2.7c1.6,10,3.2,20,4.7,30
	c1.7,10.9,3.5,21.7,5.9,32.4c0.9,3.9,1.8,7.8,2.7,11.6c0.5,2,1.2,3.9,2.2,5.7c0.7,1.3,1.5,2.5,2.7,3.3c1.8,1.3,3.6,1.1,5.1-0.6
	c0.7-0.9,1.3-1.9,1.6-2.9c0.7-1.8,1.3-3.6,1.8-5.5c0.7-2.4,1.4-4.8,1.9-7.3c2.7-11.9,5.3-23.7,8-35.6c1.4-6.2,2.7-12.5,3.5-18.8
	c0.5-3.7,0.9-7.4,1.2-11.2c0.1-0.9,0.4-1.6,1.1-2.2c0.7-0.6,1.3-1.2,1.8-1.9c2.3-3,4.3-6.2,5.8-9.7c1.6-3.6,2.6-7.5,3.4-11.3
	c0.1-0.3,0.1-0.6,0.2-0.9c0.6-0.2,1.2-0.4,1.8-0.6c1.6-0.5,2.9-1.5,3.9-2.8C91.2,246.8,91,244.7,89.7,243.4z M26.2,222.3
	c-1.2-5.4-0.3-10.3,3.6-14.4c1.4-1.6,3.2-2.7,5-3.9c3.9-2.5,8-4.6,12.1-6.8c2.2-1.2,4.4-2.5,6.2-4.4c1.3-1.4,2.2-2.9,2.5-4.7
	c0-0.1,0-0.3,0.1-0.4c0.1-0.3,0.3-0.3,0.5-0.2c0.1,0.1,0.2,0.2,0.3,0.3c1.5,1.6,3.1,3.2,4.6,4.8c1.8,1.8,3.5,3.7,4.7,6.1
	c3,5.9,3.2,11.9,0.4,17.9c-1,2.2-2.7,3.7-4.8,4.7c-1.7,0.9-3.5,1.4-5.4,1.7c-4.5,0.9-9.1,1-13.6,0.6c-3-0.3-5.9-0.5-8.9-0.8
	c-2.1-0.2-4.1-0.1-6.2,0.1C26.5,223.2,26.4,223.2,26.2,222.3z M19.2,236.7c-0.7-2.9-0.3-5.5,1.7-7.8c2-2.3,4.4-3.6,7.5-3.8
	c1.9-0.1,3.7-0.2,5.6,0c3.3,0.3,6.7,0.6,10,0.9c4.1,0.3,8.2,0.1,12.2-0.7c3.5-0.7,6.8-1.9,9.6-4.2c0.2-0.1,0.4-0.3,0.5-0.4
	c0.6-0.3,0.8-0.2,1.3,0.1c0.6,0.4,1.3,0.9,1.9,1.2c2.5,1.3,4.9,2.6,7.1,4.3c0.5,0.4,0.9,0.7,1.3,1.1c2.3,2.3,3.8,5,4.6,8.2
	c0.1,0.4,0.2,0.9,0.2,1.3c0,1.1-0.5,1.8-1.7,1.9c-0.4,0.1-0.9,0-1.3,0c-3.9-0.2-7.8-0.4-11.7-0.6c-2.1-0.1-4.3,0-6.4,0
	c-2.3,0-4.5,0.1-6.8,0.1c-4,0.1-8,0.1-12,0.3c-5.5,0.2-11,0.3-16.6,0.1c-1.6-0.1-3.1,0-4.7,0C20.3,238.8,19.5,238.3,19.2,236.7z
	 M37.8,193.7c-0.3-6.3,1.1-12.2,4.5-17.6c2-3.2,4.9-5.4,8.3-6.9c0.3-0.1,0.7-0.2,1-0.3c1.6-0.3,2.7,0.5,2.6,2.2c0,0.7-0.2,1.3-0.4,2
	c-0.1,0.5-0.3,1-0.4,1.5c-0.8,2.5-0.8,5.1-0.2,7.7c0.1,0.7,0.3,1.4,0.4,2.1c0.2,1.5,0.1,2.9-0.6,4.2c-0.5,1-1.1,2-1.7,2.9
	c-0.7,1-1.6,1.6-2.6,2.2c-2.3,1.3-4.7,2.6-7,3.9c-0.8,0.4-1.6,0.9-2.5,1.3c-0.3,0.2-0.6,0.3-1,0.2c0-0.1-0.1-0.1-0.1-0.2
	C38,197.2,37.9,195.5,37.8,193.7z M92.4,337.9c-2.3-3.8-3.3-8.1-3.3-12.6c0-2.5,0.1-5.2,0-7.8c-0.1-1.4,0-2.7-1.8-4.1
	c-0.5,0.8-1.4,1.5-1.5,2.2c-1,4.2-2.1,8.4-2.5,12.7c-0.5,4.4-0.3,8.8,0,13.3c0.5,7.5,1.3,14.9,1.8,22.5c0.1,2.1-0.3,4.2-0.3,6.4
	c-0.1,1.1-0.3,2.1,1.9,2.8c0.6-0.4,1.5-0.8,1.9-1.5c1.1-2.1,2.3-4.3,3.1-6.5c1.3-3.1,2.4-6.1,3.7-9.2c0.4-0.7,1.1-1.3,1.9-2.1
	c0.8,0.7,1.4,1.2,1.6,1.7c0.9,2.9,1.5,6,0.5,9.1c-1.3,3.9-2.3,7.8-4,11.5c-1.9,3.9-6,5.7-11.1,5.6c-2.8-0.1-5.2-0.9-7.2-2.3
	c-3-2-5.2-4.5-6.2-7.4c-0.9-2.5-1.8-5.2-1.8-7.7c0-11.8,0-23.6,0.4-35.4c0.1-4.5,1.1-9.2,2.3-13.7c0.6-2.6,2.3-5.3,3.6-7.8
	c1.3-2.1,3.3-3.8,5.9-5.2c4.7-2.5,9.6-2.3,13.2,1.1c1.9,1.6,3.4,3.5,4.3,5.5c1.3,2.6,2.3,5.4,2.5,8.1c0.4,4.5,0.3,9.2,0.1,13.7
	c0,2.4-1,4.5-3.1,6.4C96.9,338.5,95.2,339.1,92.4,337.9z M128,356.9c-3.9-0.1-7.2-0.3-10.8-0.1c-0.4,1.5-0.8,2.7-1.1,4.1l-4.2,17.7
	c-0.5,1.6-0.6,3.5-3.3,4.2c-0.5-0.3-1.1-0.6-2-1.1c-0.5-5.8-1-11.6-1-17.4c-0.1-6,0.8-11.8,1.8-17.7c1.3-6.8,2-13.9,2.3-20.9
	c0.3-5.6,1-11.2,3.1-16.4c0.8-2,1.8-4.1,3.3-5.8c3.6-4.3,9.7-4.3,14.5-0.1c2.6,2.4,4.2,5.5,5.2,8.5c1.8,5.9,2.8,11.9,2.9,17.9
	c0.1,7.7,0.4,15.4,0.5,23c0,5.5,0,10.9-0.1,16.4c0,1.6-0.3,3.2-0.6,4.6c-0.5,2.1-2.3,3.5-4.4,3.5c-2.3,0-4.5-1.5-5.2-3.9
	c-0.5-1.9-0.6-3.8-0.6-5.7c-0.1-2.6,0.1-5.3,0.1-8C128.3,359.2,128.1,358.4,128,356.9z M128,347.6c-0.1-2-0.1-3.4-0.1-4.7
	c0-3.4-0.4-6.6-0.1-9.9c0.5-6.2-0.8-12.2-2.3-18.3c-0.3-0.9-0.9-1.7-1.6-3.1c-0.6,1.2-1.1,1.8-1.3,2.5c-0.6,3.1-1.4,6-1.8,9.2
	c-0.9,7.8-1.5,15.5-2.3,23.3c0,0.4,0.3,0.8,0.5,1.6C122,348,124.6,347.8,128,347.6z M180.7,343.7c-0.4,1.2-0.9,2.4-1.3,3.7l-3,11.6
	c-0.5,1.5-0.9,2.9-1.6,4.3c-2,3.4-6.9,3.2-9.4-0.2c-0.6-0.9-1.1-2.1-1.4-3.2c-0.9-3.9-1.6-7.7-2.4-11.6c-0.3-1.4,0-2.7-1.4-4.2
	c-0.4,0.6-0.6,0.9-0.8,1.4c-1,8.8-2.1,17.7-3.3,26.5c-0.3,2-0.9,4-1.5,5.9c-0.1,0.6-1,1.1-1.8,1.9c-1-0.8-2.1-1.5-2.3-2.2
	c-0.6-2.1-1.1-4.3-1.3-6.4c-0.5-5.7-0.9-11.3-1.4-16.8c-0.1-1.8-0.4-3.5-0.8-5.2c-2.5-10-2-19.9-1.4-29.8c0.3-2.6,0.4-5.3,0.8-7.9
	c0.3-1.5,0.6-3.1,1.3-4.4c1-2.2,3-3.4,6.4-2.4c1.9,1.3,3.9,2.7,6.3,4.5c2.5,4,4,8.6,5.5,13.2c1.4,4.4,2.6,8.8,4,13.3
	c1.6,0.1,1.5-0.8,1.8-1.5l10.2-25.9c0.8-1.8,2-3.5,3.1-5.3c0.8-1.2,2-2,4-2.1c3,0.4,4.4,2.1,4.8,4.5c0.3,1.3,0.3,2.5,0.3,3.8
	c-0.4,8.9-0.6,17.9-1.1,26.8c-0.1,3.3-0.8,6.5-1.1,9.7c-0.6,5.1-1.4,10.1-1.9,15.2c-0.4,4.2-0.6,8.3,0.1,12.6
	c0.1,1.2,0.3,2.4,0.1,3.7c-0.1,2.2-0.6,2.8-3.4,4.7c-1.5,0.1-2.8-0.4-3.4-1.5c-1.8-2.7-3.4-5.4-3.6-8.4c-0.6-7.4-0.4-14.6,0.6-21.9
	l0.8-6.3C181.1,343.8,181,343.7,180.7,343.7z M214.8,354.4c-0.3,6-0.8,11.6-0.9,17.3c-0.1,2.9-1,5.7-2.6,8.2
	c-0.5,0.7-1.4,1.2-2.3,1.9c-1.1-0.6-2.4-0.9-2.8-1.7c-1.3-1.8-2.5-3.6-3-5.5c-0.9-3.2-1.5-6.4-1.5-9.7c-0.3-6.7-0.3-13.5,0-20.1
	c0.4-7.6,0.1-15.1-0.9-22.5c-0.5-4-0.3-8,1.3-11.7c0.9-2,2-3.9,3.4-5.6c2.9-3.5,7.2-4.6,12.3-4c8.1,1.2,17.5,5.8,19.1,15.7
	c0.6,3.7,1.3,7.4,0.9,11.1c-0.5,4.9-2.4,9.4-5.8,13.4c-3.8,4.3-8.3,8-13.6,11.2C217.4,352.9,216.2,353.7,214.8,354.4z M215.2,341.7
	c0.5,0,0.8,0,0.9-0.1c3.9-3.2,7-6.8,9.1-11.3c1.4-3.1,1.6-6.4,0.4-9.8c-0.8-1.9-1.8-3.8-2.8-5.6c-0.4-0.6-1.1-1.1-1.9-1.6
	c-2.5,2.2-3.3,4.8-3.6,7.6c-0.6,4.8-1.1,9.6-1.6,14.4C215.3,337.5,215.3,339.6,215.2,341.7z M259,331c1.5-0.1,2.9-0.3,4.3-0.3
	c1.1-0.1,2.4-0.1,3.5,0.2c3,0.7,4.5,3.5,3,5.7c-1.1,1.8-2.8,3.5-5.5,4c-1.9,0.2-3.6,0.6-5,2c0.1,8.5,0.1,17,0.1,25.9
	c0.8,0,1.6,0.2,2.6,0.2c1.6,0.1,3.1-0.1,4.7,0.1c2.1,0.3,3.6,1.4,4.3,3.2c0.6,1.8-0.1,3.2-1.8,4.1c-1.6,0.8-3.3,1.8-5,2
	c-3.8,0.5-7.4,1.3-10.4,3.2c-0.6,0.4-1.5,0.6-2.4,0.7c-4,0.6-6.9-1.9-6-5.3c0.3-0.8,0.8-1.6,1.1-2.2c0-0.4,0.1-0.7,0-1.1
	c-1.6-4.5-2.1-9.2-1.8-13.8c0.9-14.5,0.1-29-0.4-43.7c0-2.3,0-4.6,0.1-6.9c0.1-3.4,2.1-5.6,6-6.5c1.6-0.3,3.4-0.6,4.9-1.1
	c4.2-1.3,7.9-0.4,11.6,1.4c1.8,0.8,2.8,2,2.8,3.6c0.1,1.6-0.9,2.8-2.5,3.4c-1.4,0.5-2.9,0.7-4.4,1.1c-1.5,0.2-3,0.3-4.9,0.5
	c-0.5,3.4,0.1,6.6,0.3,10C258.4,324.4,257.6,327.6,259,331z M285.6,381l-4.5-2.3c-2.3-3.2-3.4-6.5-3.5-10.1c-0.8-11.6-1.6-23-1-34.5
	c0.1-3.7-0.1-7.5,0-11.2c0.3-5.4,1.5-10.5,4.9-15c5-6.7,15-8.2,22.5-3.4c3.1,1.9,5.4,4.3,6.7,7.4c1.5,3.3,2.3,6.6,1.6,10
	c-1.1,5.4-2.4,10.7-5,15.7c-1.8,3.1-4,5.9-6.3,9.2c0,0,0.3,0.6,0.5,1.1c5.2,6.6,7.4,14.1,9.4,21.7c0.9,3.4,0,6.4-1.6,9.4
	c-0.5,0.7-1.4,1.3-2.3,2.2c-1-0.9-2.1-1.6-2.6-2.4c-1.4-2.3-2.6-4.8-3.6-7.4c-1.6-3.9-2.8-7.9-4.3-11.9c-1-2.5-2.3-4.9-4.3-6.9
	c-1.5,0.2-1.1,1.2-1.1,1.8c-0.1,2.9,0,5.9-0.1,8.8c-0.1,4.8-0.9,9.7-2.4,14.4C288,378.8,287.5,380.3,285.6,381z M294.4,310.7
	c-2.4,2.2-2.9,4.7-3,7.2c-0.3,6-0.3,12.1-0.4,18.1c0,0.7-0.1,1.5,1.1,2c2.4-1.7,3.4-4.3,5.2-6.4c3.6-4.5,3.5-9.5,2.3-14.4
	C298.9,314.6,297.8,312.3,294.4,310.7z M347.6,327c-0.8-0.6-2-1.6-2.6-2.6c-1.6-2.9-3.9-5.9-4.2-9.1c-0.1-1.8-0.6-3.7-3.6-5.2
	c-0.9,0.6-2.1,1.1-2.4,1.7c-0.5,1.5-0.8,3.1-0.4,4.5c0.3,1.7,1.3,3.4,2.3,4.9c1.9,2.6,3.8,5.4,6,7.9c5.5,6.1,9.2,12.7,10.9,19.5
	c2.5,8.7,2.4,17.5-1.3,25.8c-0.5,1.2-1.1,2.3-2.1,3.4c-3,3.4-8.6,4.3-14.5,2.3c-2.1-0.7-4.1-1.7-5.9-2.8c-4.8-2.9-7.7-6.5-9.1-10.6
	c-2-6.1-2.5-12.1-1.5-18.1c0.4-2.5,1.6-4.7,3.4-6.9c1.4-1.7,3.4-2.9,6.7-3.2c3.6,0.5,5.2,2.3,5.7,4.4c0.4,1.3,0.3,2.5,0.1,3.8
	c-0.3,3.8-0.8,7.5-0.8,11.3c-0.1,2.6,0.3,5.4,0.6,8c0.3,1.7,1.3,3.3,4.3,4.2c2.6-1.6,3.4-3.7,3.7-5.9c0.5-5.1-0.5-10.1-2.1-15.2
	c-2.8-8.4-8.8-16.1-15.6-23.6c-2.3-2.5-4.2-5.2-5-8c-1.5-5.9,1.4-10.5,6.9-14.4c3.5-2.4,9.8-2.6,15-0.8c3.8,1.4,6.5,3.3,8.6,5.6
	c3.5,4.4,5.2,8.9,5.3,13.7c0.1,1.7-0.5,3.4-2.1,4.6C352.4,327.3,350.6,327.8,347.6,327z M39.4,43.7c6.6,2.7,7.5,6.3,8.2,10.1
	c1.5,9.4,2.9,28.5,4.6,38.1c0.2,2.4,0,4.9,3.1,7.6l2.2-6.6c0.9-3,1.5-15.6,2.7-18.6c0.7-1.6,1.8-3.1,3.3-4.2
	c5.1-4.2,14.4-3.1,18.4,2.4c1.3,1.7,1.8,16.4,2.4,18.2c0.7,2.2,1.1,4.2,2,8.2c1.5-3,2.4-4.4,2.9-6c2.2-8.3,4.6-29.4,6.6-37.9
	c1.3-5.2,5.3-8.5,12.8-9.8c6,3.6,8.6,7.7,7.7,12.7c-0.2,1.6-0.2,3.3-0.7,5c-4.9,23-9.5,45.9-14.6,68.9c-1.5,7.2-3.8,14.5-6,21.7
	c-0.9,2.5-2.4,4.9-3.8,7.4c-2.7,0-4.9,0.5-6.6-0.2c-1.8-0.5-3.8-1.7-4.6-3c-1.8-2.2-2.9-4.6-3.8-7.1c-2-6.3-3.8-12.6-6-20.1
	l-2.4,6.3c-2,6-4,12.1-6.2,18.1c-0.4,1.3-1.1,2.7-2,3.9c-4,4.9-12.6,4.6-17.3-0.5c-1.8-1.9-2.9-4.2-3.5-6.3
	c-1.1-4.1-2.2-8.3-2.7-12.4c-4-26.4-7.7-52.8-11.7-79.3c-0.7-4.2-0.2-8.2,2.4-11.8C29.4,45.1,33.2,43.2,39.4,43.7z M151.4,87.4
	c2.7-0.2,5.1-0.5,7.5-0.5c2-0.2,4.2-0.2,6.2,0.3c5.3,1.1,8,5.2,5.3,8.5c-2,2.7-4.9,5.2-9.7,6c-3.3,0.3-6.4,0.9-8.8,3
	c0.2,12.7,0.2,25.5,0.2,38.7c1.3,0,2.9,0.3,4.6,0.3c2.9,0.2,5.5-0.2,8.2,0.2c3.8,0.5,6.4,2,7.5,4.7c1.1,2.7-0.2,4.7-3.1,6.1
	c-2.9,1.3-5.8,2.7-8.8,3c-6.6,0.8-13.1,1.9-18.4,4.7c-1.1,0.6-2.7,0.9-4.2,1.1c-7.1,0.9-12.2-2.8-10.6-7.9c0.4-1.3,1.3-2.4,2-3.3
	c0-0.6,0.2-1.1,0-1.6c-2.9-6.8-3.8-13.7-3.1-20.6c1.5-21.7,0.2-43.4-0.7-65.3c0-3.5,0-6.9,0.2-10.4c0.2-5,3.8-8.3,10.6-9.8
	c2.9-0.5,6-0.9,8.6-1.6c7.3-1.9,13.9-0.6,20.4,2c3.1,1.3,4.9,3,4.9,5.3c0.2,2.4-1.5,4.2-4.4,5c-2.4,0.8-5.1,1.1-7.7,1.6
	c-2.7,0.3-5.3,0.5-8.6,0.8c-0.9,5,0.2,9.9,0.4,14.9C150.3,77.7,148.9,82.4,151.4,87.4z M265.5,126.3c-6.9-0.2-12.6-0.5-19-0.2
	c-0.7,2.2-1.3,4.1-2,6.1l-7.3,26.4c-0.9,2.4-1.1,5.2-5.8,6.3c-0.9-0.5-2-0.9-3.5-1.6c-0.9-8.7-1.8-17.3-1.8-26
	c-0.2-9,1.3-17.6,3.1-26.4c2.2-10.2,3.5-20.8,4-31.3c0.4-8.3,1.8-16.7,5.5-24.5c1.3-3,3.1-6.1,5.7-8.7c6.4-6.4,17-6.4,25.4-0.2
	c4.6,3.6,7.3,8.2,9.1,12.7c3.1,8.8,4.9,17.8,5.1,26.7c0.2,11.5,0.7,23,0.9,34.4c0,8.2,0,16.4-0.2,24.5c0,2.4-0.4,4.7-1.1,6.9
	c-0.9,3.1-4,5.2-7.7,5.2c-4,0-8-2.2-9.1-5.8c-0.9-2.8-1.1-5.7-1.1-8.5c-0.2-3.9,0.2-7.9,0.2-12C266,129.6,265.8,128.5,265.5,126.3z
	 M265.5,112.3c-0.2-3-0.2-5-0.2-7.1c0-5-0.7-9.9-0.2-14.8c0.9-9.3-1.3-18.2-4-27.4c-0.4-1.4-1.6-2.5-2.9-4.6c-1.1,1.7-2,2.7-2.2,3.8
	c-1.1,4.6-2.4,9-3.1,13.7c-1.6,11.6-2.7,23.1-4,34.8c0,0.6,0.4,1.3,0.9,2.4C254.9,112.9,259.6,112.6,265.5,112.3z M312.4,162.3
	l-8-3.5c-4-4.7-6-9.8-6.2-15.1c-1.3-17.3-2.9-34.4-1.8-51.6c0.2-5.5-0.2-11.2,0-16.7c0.4-8,2.7-15.7,8.6-22.5
	c8.8-10.1,26.3-12.3,39.6-5c5.5,2.8,9.5,6.4,11.7,11c2.7,4.9,4,9.9,2.9,14.9c-2,8-4.2,16-8.8,23.4c-3.1,4.6-7.1,8.8-11.1,13.7
	c0,0,0.4,0.9,0.9,1.6c9.1,9.9,13.1,21.1,16.6,32.4c1.5,5,0,9.6-2.9,14c-0.9,1.1-2.4,1.9-4,3.3c-1.8-1.4-3.8-2.4-4.6-3.6
	c-2.4-3.5-4.6-7.2-6.4-11c-2.9-5.8-4.9-11.8-7.5-17.8c-1.8-3.8-4-7.4-7.5-10.4c-2.7,0.3-2,1.7-2,2.7c-0.2,4.4,0,8.8-0.2,13.2
	c-0.2,7.2-1.5,14.5-4.2,21.5C316.7,159,315.8,161.2,312.4,162.3z M327.9,57.2c-4.2,3.3-5.1,7.1-5.3,10.7c-0.4,9-0.4,18.1-0.7,27.1
	c0,1.1-0.2,2.2,2,3c4.2-2.5,6-6.5,9.1-9.6c6.4-6.8,6.2-14.2,4-21.6C335.9,63,333.9,59.6,327.9,57.2z M396.7,87.4
	c2.7-0.2,5.1-0.5,7.5-0.5c2-0.2,4.2-0.2,6.2,0.3c5.3,1.1,8,5.2,5.3,8.5c-2,2.7-4.9,5.2-9.7,6c-3.3,0.3-6.4,0.9-8.8,3
	c0.2,12.7,0.2,25.5,0.2,38.7c1.3,0,2.9,0.3,4.6,0.3c2.9,0.2,5.5-0.2,8.2,0.2c3.8,0.5,6.4,2,7.5,4.7c1.1,2.7-0.2,4.7-3.1,6.1
	c-2.9,1.3-5.8,2.7-8.8,3c-6.6,0.8-13.1,1.9-18.4,4.7c-1.1,0.6-2.7,0.9-4.2,1.1c-7.1,0.9-12.2-2.8-10.6-7.9c0.4-1.3,1.3-2.4,2-3.3
	c0-0.6,0.2-1.1,0-1.6c-2.9-6.8-3.8-13.7-3.1-20.6c1.5-21.7,0.2-43.4-0.7-65.3c0-3.5,0-6.9,0.2-10.4c0.2-5,3.8-8.3,10.6-9.8
	c2.9-0.5,6-0.9,8.6-1.6c7.3-1.9,13.9-0.6,20.4,2c3.1,1.3,4.9,3,4.9,5.3c0.2,2.4-1.5,4.2-4.4,5c-2.4,0.8-5.1,1.1-7.7,1.6
	c-2.7,0.3-5.3,0.5-8.6,0.8c-0.9,5,0.2,9.9,0.4,14.9C395.6,77.7,394.3,82.4,396.7,87.4z"/>
<path fill="#6F91BD" d="M134.1,177.5c0.8,0.2,1.9,0.3,3.1,0.6c4.4,1.6,6.1,4.1,6,9.1c0,3.3-0.3,6.6-0.3,9.9
	c-0.1,8.8-0.1,17.6-0.1,26.6c-0.1,6,0,12,0,17.9c0,8.3,0.4,16.8-0.1,25.2c-0.6,7.9-1.9,15.6-3.1,23.3c-0.1,1.1-0.7,1.9-1.1,3.1
	c-1.1-0.2-1.9-0.2-3.3-0.3c-5-16.2-6.7-32.6-8.9-49.2c-5.3-0.8-9.6,1.1-14.3,1.6c-1.2,4.4-1.5,9.1-1.7,13.7
	c-0.4,7.4-0.6,14.9-0.8,22.5c-0.1,1.3-0.1,2.7-0.1,3.9c0,5.2-2.2,8.5-5.8,11c-3.7-2.5-5.1-6.1-5.7-10.2c-1.1-7.2-1-14.3-1.1-21.4
	c0-8-0.3-15.9-0.4-23.9c-0.1-11.6-0.4-23.1-0.7-34.6l-0.4-18.7c0-3,0.4-5.7,3.2-7.6c1.9-0.5,4.4-0.9,6.9-1.4
	c4.9,0.8,7.1,4.6,7.6,9.4c0.7,6.6,1.3,13.4,1.4,20c0,5.7-0.7,11.3-1,17.1v6.1c4.2,0.3,7.4-0.9,11-1.6c0.1-5,0.1-9.9,0.4-14.6
	c0.6-8.3,1.1-16.7,1.8-25c0.3-2.5,1-5,1.9-7.4C129.3,180,130.9,177.9,134.1,177.5z M174.9,260.2c-4.3-0.2-7.9-0.5-11.9-0.2
	c-0.4,2.2-0.8,4.1-1.3,6.1l-4.6,26.4c-0.6,2.4-0.7,5.2-3.6,6.3c-0.6-0.5-1.2-0.9-2.2-1.6c-0.6-8.7-1.1-17.3-1.1-26
	c-0.1-9,0.8-17.6,1.9-26.4c1.4-10.2,2.2-20.8,2.5-31.3c0.3-8.3,1.1-16.7,3.5-24.5c0.8-3,1.9-6.1,3.6-8.7c4-6.4,10.7-6.4,16-0.2
	c2.9,3.6,4.6,8.2,5.7,12.7c1.9,8.8,3.1,17.8,3.2,26.7c0.1,11.5,0.4,23,0.6,34.4c0,8.2,0,16.4-0.1,24.5c0,2.4-0.3,4.7-0.7,6.9
	c-0.6,3.1-2.5,5.2-4.9,5.2c-2.5,0-5-2.2-5.7-5.8c-0.6-2.8-0.7-5.7-0.7-8.5c-0.1-3.9,0.1-7.9,0.1-12
	C175.2,263.5,175.1,262.4,174.9,260.2z M174.9,246.2c-0.1-3-0.1-5-0.1-7.1c0-5-0.4-9.9-0.1-14.8c0.6-9.3-0.8-18.2-2.5-27.4
	c-0.3-1.4-1-2.5-1.8-4.6c-0.7,1.7-1.2,2.7-1.4,3.8c-0.7,4.6-1.5,9-1.9,13.7c-1,11.6-1.7,23.1-2.5,34.8c0,0.6,0.3,1.3,0.6,2.4
	C168.3,246.8,171.2,246.5,174.9,246.2z M209.8,256.4c-0.3,9-0.8,17.3-1,25.8c-0.1,4.4-1.1,8.5-2.9,12.3c-0.6,1.1-1.5,1.7-2.5,2.8
	c-1.3-0.9-2.6-1.4-3.1-2.5c-1.4-2.7-2.8-5.3-3.3-8.2c-1-4.7-1.7-9.6-1.7-14.5c-0.3-10.1-0.3-20.1,0-30c0.4-11.3,0.1-22.5-1-33.7
	c-0.6-6-0.3-12,1.4-17.5c1-3,2.2-5.8,3.7-8.3c3.2-5.2,7.9-6.9,13.6-6c8.9,1.7,19.3,8.7,21.1,23.4c0.7,5.5,1.4,11,1,16.5
	c-0.6,7.4-2.6,14-6.4,20c-4.2,6.4-9.2,12-15,16.7C212.6,254.2,211.3,255.3,209.8,256.4z M210.2,237.4c0.6,0,0.8,0,1-0.2
	c4.3-4.7,7.8-10.2,10-16.8c1.5-4.6,1.8-9.6,0.4-14.6c-0.8-2.8-1.9-5.7-3.1-8.3c-0.4-0.9-1.3-1.6-2.1-2.4c-2.8,3.3-3.6,7.2-4,11.3
	c-0.7,7.2-1.3,14.3-1.8,21.5C210.3,231.1,210.3,234.2,210.2,237.4z M258,256.4c-0.3,9-0.8,17.3-1,25.8c-0.1,4.4-1.1,8.5-2.9,12.3
	c-0.6,1.1-1.5,1.7-2.5,2.8c-1.3-0.9-2.6-1.4-3.1-2.5c-1.4-2.7-2.8-5.3-3.3-8.2c-1-4.7-1.7-9.6-1.7-14.5c-0.3-10.1-0.3-20.1,0-30
	c0.4-11.3,0.1-22.5-1-33.7c-0.6-6-0.3-12,1.4-17.5c1-3,2.2-5.8,3.7-8.3c3.2-5.2,7.9-6.9,13.6-6c8.9,1.7,19.3,8.7,21.1,23.4
	c0.7,5.5,1.4,11,1,16.5c-0.6,7.4-2.6,14-6.4,20c-4.2,6.4-9.2,12-15,16.7C260.7,254.2,259.5,255.3,258,256.4z M258.4,237.4
	c0.6,0,0.8,0,1-0.2c4.3-4.7,7.8-10.2,10-16.8c1.5-4.6,1.8-9.6,0.4-14.6c-0.8-2.8-1.9-5.7-3.1-8.3c-0.4-0.9-1.3-1.6-2.1-2.4
	c-2.8,3.3-3.6,7.2-4,11.3c-0.7,7.2-1.3,14.3-1.8,21.5C258.5,231.1,258.5,234.2,258.4,237.4z M313.8,236.1v34.3
	c0,7.5-0.3,15.1-2.2,22.2c-0.6,2.4-1,4.9-3.1,6.1c-3.3-0.8-4.4-3.9-5-6.8c-1.1-5.7-2.1-11.5-2.6-17.1c-0.8-10.4-1.4-20.6-1.8-31
	c-0.3-5-1.2-10.1-2.9-14.8c-2.9-8.7-5-17.6-6.7-26.6c-0.6-3.5-1.7-6.9-2.4-10.4c-0.4-2.4-0.8-4.9-0.8-7.4c0-3.1,1.1-5.8,4-6.8
	c2.8-0.3,4.7,1.6,6.4,3.8c2.2,3,3.5,6.6,4.4,10.4c1.2,5.3,2.4,10.9,3.7,16.2c1,3.8,2.2,7.2,3.5,11.3c1.8-2.2,1.8-4.4,2.4-6.4
	c2.6-10.9,5.1-21.9,8-32.7c1-3.6,2.6-7.2,4.2-10.7c1-1.9,1.1-1.7,4.9-3.9c0.6,0.6,1.8,1.4,2.1,2.4c1.4,4.7,2.5,9.4,1.4,14.2
	c-0.1,0.5-0.1,0.9-0.3,1.4C326.7,202,323.6,221,313.8,236.1z"/>
</svg>
