<?xml version="1.0" encoding="utf-8"?>
<!-- Generator: Adobe Illustrator 18.0.0, SVG Export Plug-In . SVG Version: 6.00 Build 0)  -->
<!DOCTYPE svg PUBLIC "-//W3C//DTD SVG 1.1//EN" "http://www.w3.org/Graphics/SVG/1.1/DTD/svg11.dtd">
<svg version="1.1" id="Layer_1" xmlns="http://www.w3.org/2000/svg" xmlns:xlink="http://www.w3.org/1999/xlink" x="0px" y="0px"
	 viewBox="0 0 432 432" enable-background="new 0 0 432 432" xml:space="preserve">
<path fill="#6F91BD" d="M53.6,426.4c-11.1,0-18.9-2.2-23.3-6.6c-4.4-4.4-6.7-11-6.7-19.6l-0.3-97.8c0-5.4,0.8-9.3,2.4-11.5
	c2.1-2.8,5.9-4.1,11.3-4.2c5.2,0,9.1,1.4,11.6,4.2c2.3,2.6,3.4,6.1,3.5,10.7l0.3,103.2c0,5.7,2.9,8.5,8.8,8.5
	c7.5,0,12.3-0.1,14.5-0.4c2.2-0.2,4.5-0.3,7-0.3c2.1,0,3.8,0.3,5.3,1.1c1.5,0.7,2.3,1.8,2.3,3.3c0,3.4-4,5.9-12.2,7.6
	C72.2,425.8,64,426.4,53.6,426.4z M167.5,426.1c-3.7,0-6.6-0.7-8.6-2.1c-2.1-1.4-3.5-3.3-4.4-5.6c-0.9-2.3-1.3-4.7-1.3-7.3
	c0-1.2-0.2-1.8-0.6-1.8c-0.4,0-1,0.6-1.8,1.7c-7.1,10.1-16.8,15.1-28.8,15.2c-6.7,0-12.3-1.8-16.8-5.5c-4.5-3.7-7.9-8.5-10.2-14.6
	c-2.3-6.1-3.5-12.7-3.5-19.9c-0.1-19.7,3.8-35.8,11.7-48.1c8.3-12.9,19.9-19.4,34.8-19.5c4.5,0,9.1,1,13.8,3.1
	c1.2,0.5,2.2,0.8,3.1,0.8c1,0,1.9-0.3,2.6-1c2-2,5.3-3,9.7-3c4.2,0,7.2,0.7,9,2.3c1.8,1.5,3,3.5,3.5,5.9c0.5,2.4,0.7,4.9,0.7,7.5
	l0.2,76.2c0,2.6-0.2,5.1-0.7,7.5c-0.5,2.4-1.6,4.4-3.4,5.9C174.7,425.3,171.7,426.1,167.5,426.1z M125.8,414.1
	c7.6,0,13.8-4.8,18.8-14.3c2.8-5.3,4.9-11.7,6.3-19c1.4-7.3,2.1-13.2,2.1-17.7l-0.1-24.9c0-4.7-4.3-7-12.8-7
	c-4.5,0-8.3,1.3-11.5,3.9c-3.1,2.6-5.7,5.9-7.8,9.9c-2,4-3.6,8.3-4.8,12.8c-1.2,4.5-2,8.8-2.4,12.8c-0.4,4-0.6,7.3-0.6,9.7
	c0,5.9,0.4,11.5,1.2,16.6c0.8,5.1,2.1,9.3,4,12.4C120.2,412.6,122.7,414.1,125.8,414.1z M282.4,425.7c-3.7,0-7.7-1.6-11.8-4.9
	c-5.8-4.7-15.5-14.2-29-28.7c-1.5-1.6-2.7-2.4-3.4-2.4c-0.8,0-1.2,1.2-1.2,3.7l0.1,17.5c0,10-4.7,15-14.3,15
	c-7.2,0-11.3-2.7-12.4-8.1c-0.5-2.4-0.7-4.9-0.7-7.5l-0.3-108.4c0-2.6,0.2-5.1,0.7-7.4c0.5-2.4,1.6-4.4,3.5-5.9
	c1.8-1.5,4.8-2.3,8.9-2.3c9.5,0,14.3,4.9,14.4,14.9l0.2,65.9c0,1.9,0.3,2.8,0.9,2.8c0.7,0,1.7-0.8,2.9-2.3
	c12.2-15.4,22-28.4,29.6-39.2c2.8-4.1,5.5-6.9,7.9-8.4c1.7-1,3.6-1.5,5.8-1.5c2,0,3.7,0.4,5.3,1.2c1.5,0.8,2.3,2.1,2.3,3.8
	c0,3.1-1.7,7-5.3,11.8c-2.9,3.8-7,8.7-12.3,14.5c-5.9,6.4-13.4,15.3-22.4,26.5c-0.9,1-1.3,2-1.3,2.9c0,2.5,11.7,12.9,35.1,31.3
	c4.3,3.3,6.4,6.4,6.4,9.1c0,1.9-1,3.4-3.1,4.6C286.7,425.1,284.6,425.7,282.4,425.7z M337.6,425.4c-19,0.1-31.3-8.1-36.9-24.6
	c-2.6-7.7-4-16.1-4-25.3c-0.1-23.4,6.6-40,20-49.8c7-5.1,15.3-7.7,24.9-7.7c12.1,0,20.5,3.9,25.4,11.8c3.6,5.9,5.5,13.4,5.5,22.5
	c0,13.6-5.3,23.7-16.1,30.3c-7.5,4.6-16.8,7-27.9,7.4c-2.1,0.1-3.1,1-3.1,2.7c0,3.9,1.5,7.8,4.5,11.8c4.1,5.6,9.3,8.4,15.4,8.4
	c6.5,0,11.6-3.7,15.3-11.2c1.1-2.2,3.1-3.2,6.1-3.3c1.6,0,3,0.4,4.1,1.2c1.2,0.8,1.8,1.9,1.8,3.3c0,0.5-0.1,1-0.2,1.6
	c-1.8,5.9-5.8,10.9-12,14.9C354.6,423.4,346.9,425.3,337.6,425.4z M327.8,379.4c3.2,0,7.4-0.8,12.4-2.4c5-1.6,9.2-4.3,12.5-8.1
	c3.3-3.8,4.9-8.9,4.9-15.4c0-5.4-0.6-9.8-1.7-13.4c-2-6-5.9-9-11.7-8.9c-12.6,0-19.2,14.8-19.6,44.2
	C324.6,378.1,325.6,379.4,327.8,379.4z M11.2,2.6c5.4,2.5,6.1,6,6.7,9.6c1.3,9.1,2.5,27.4,4,36.6c0.2,2.3,0,4.7,2.6,7.3l1.7-6.4
	c0.7-2.9,1.1-15,2-17.9c0.5-1.5,1.4-3,2.6-4.1c4.1-4.1,11.6-3.1,14.8,2.2c1.1,1.7,1.5,15.7,2.1,17.6c0.6,2.1,0.9,4.1,1.7,7.9
	c1.2-2.9,1.9-4.3,2.3-5.8c1.7-8,3.5-28.4,5.1-36.6c1-5,4.2-8.2,10.3-9.5c4.8,3.4,7,7.4,6.3,12.2c-0.2,1.5-0.2,3.2-0.5,4.8
	c-3.8,22.2-7.3,44.3-11.3,66.5c-1.2,7-2.9,14-4.7,20.9c-0.7,2.4-1.9,4.7-3,7.1c-2.1,0-3.9,0.5-5.4-0.1c-1.4-0.4-3-1.6-3.8-2.9
	c-1.4-2.1-2.3-4.4-3.1-6.8c-1.6-6.1-3.1-12.1-5-19.4l-1.9,6.1c-1.6,5.8-3.1,11.7-4.9,17.5c-0.3,1.2-0.9,2.6-1.6,3.8
	c-3.2,4.7-10.1,4.5-13.9-0.3c-1.4-1.8-2.3-4.1-2.9-6c-0.9-3.9-1.8-8-2.2-12C6,69.6,2.8,44.2-0.6,18.7c-0.6-4.1-0.2-7.9,1.9-11.4
	C3.2,4,6.2,2.2,11.2,2.6z M101.8,44c2.1-0.2,4.1-0.5,6.1-0.5c1.6-0.2,3.4-0.2,5,0.3c4.3,1,6.5,5,4.3,8.2c-1.6,2.6-3.9,5-7.8,5.8
	c-2.7,0.3-5.2,0.9-7.1,2.9c0.3,12.3,0.4,24.5,0.5,37.3c1.1,0,2.3,0.3,3.7,0.3c2.3,0.1,4.5-0.2,6.6,0.1c3,0.4,5.2,1.9,6.1,4.5
	c0.9,2.6-0.1,4.5-2.5,5.9c-2.3,1.2-4.6,2.6-7.1,2.9c-5.3,0.8-10.5,1.9-14.8,4.7c-0.9,0.6-2.1,0.9-3.4,1.1c-5.7,1-9.8-2.7-8.6-7.5
	c0.3-1.2,1-2.3,1.6-3.2c0-0.6,0.2-1.1,0-1.5c-2.4-6.5-3.1-13.2-2.6-19.8c1.1-20.9-0.1-41.8-1-62.9c0-3.3-0.1-6.7,0.1-10
	c0.1-4.8,3-8.1,8.5-9.5c2.3-0.5,4.8-0.9,6.9-1.6c5.9-1.9,11.2-0.7,16.4,1.8c2.5,1.2,3.9,2.9,4,5.1c0.2,2.3-1.2,4.1-3.5,4.9
	c-2,0.8-4.1,1.1-6.2,1.6c-2.1,0.3-4.3,0.5-7,0.8c-0.7,4.8,0.2,9.5,0.5,14.4C100.9,34.6,99.8,39.2,101.8,44z M154,98.7
	c4.6,0,8-0.2,11.6-0.1c6.1,0.1,11.8,1.9,16.6,5.3c3,2.1,4.1,5,3.1,7.7c-1.1,2.7-4.1,4.6-8,4.5c-2.5-0.1-5-0.6-7.5-1
	c-9.5-2-18.6-2-27.6,1.3c-6.1,2-8.6,0.5-11.3-6c0.3-0.9,0.5-2,1-3.2c0.2-0.9,0.7-1.8,0.9-2.3c-4-15.6-5.2-30.7-4.1-46
	c0.9-16.1,2.4-32.1,3.7-48.4c0.2-1.7,0.3-3.3,0.9-5c1.9-5.5,8.3-6.7,13.4-2.7c2.9,2.3,4.7,5,5.1,8.3c0.6,5.6,1,11.1,1.2,16.7
	c0.3,18.3-1.3,36.7,0.8,55.1c0.4,3,0,6.2,0.1,9.4C153.8,94.1,154,96.1,154,98.7z M221.6,53.1c-3.3-5.4-4.7-11.6-4.8-18.1
	c0-3.6,0.1-7.4-0.1-11.2c-0.2-2,0-3.9-2.6-5.9c-0.7,1.2-1.9,2.1-2.1,3.2c-1.4,6.1-2.9,12.1-3.4,18.4c-0.7,6.4-0.3,12.7,0.1,19.1
	c0.8,10.8,2,21.5,2.7,32.4c0.2,3-0.3,6.1-0.3,9.2c-0.2,1.5-0.3,3,2.7,4.1c0.9-0.6,2.1-1.2,2.7-2.1c1.6-3,3.2-6.2,4.4-9.4
	c1.8-4.4,3.3-8.8,5.1-13.2c0.5-1.1,1.6-1.8,2.7-3c1.1,1,2,1.6,2.3,2.4c1.3,4.2,2.2,8.6,0.8,13c-1.7,5.6-3.1,11.2-5.6,16.6
	c-2.6,5.6-8.5,8.2-15.6,8.1c-3.9-0.1-7.3-1.3-10.2-3.3c-4.3-2.8-7.4-6.5-8.8-10.5c-1.3-3.6-2.6-7.4-2.6-11
	c-0.1-17-0.3-33.9,0.2-50.9c0.1-6.5,1.5-13.2,3.1-19.7c0.9-3.8,3.2-7.6,5.1-11.2c1.8-3,4.6-5.5,8.3-7.5c6.6-3.7,13.5-3.4,18.7,1.4
	c2.7,2.3,4.8,5,6.1,7.8c1.8,3.8,3.3,7.7,3.6,11.6c0.6,6.5,0.5,13.2,0.3,19.7c0,3.5-1.4,6.5-4.4,9.3C228,54,225.6,54.8,221.6,53.1z
	 M242.9,77.5c-1.9-18.6-0.5-36.8,4.2-54.6c1.4-5.6,4-10.8,7.7-15.5c2.3-2.7,5.1-5,9.6-5.2c1.4-0.2,2.7-0.6,3.9-0.9
	c8.9-2,16.6,0.3,22.2,7.4c4.1,5.6,7,11.5,7.8,17.7c0.7,4.5,0.8,8.9,0.8,13.3c0.3,20.6-2.2,40.5-9.4,59.5c-0.9,2.3-1.7,4.7-3,7
	c-1.6,2.9-3.9,5.2-7.3,6.9c-5.9,2.9-11.9,2.5-18-1.1c-4.5-2.5-7.9-6-10.2-10.1C246.7,94,243.5,86,242.9,77.5z M269.4,100.4
	c1.1-0.5,1.6-0.6,1.8-1.1c0.5-0.9,1.1-2.1,1.4-3.2c5.1-12.8,6.4-26.4,8.8-39.8c1.4-8,0.2-16.4-1.8-24.5c-0.7-2.7-2.2-5.6-3.6-8.2
	c-0.5-1.2-2-2.1-3.1-3.2c-4.8,1.3-7.3,3.7-8.7,6.9c-1.1,2.6-1.7,5.3-2.4,8c-2.4,12.3-2,24.9-1,37.6c0.6,5.9,1.7,11.8,2.8,17.7
	C264.4,94,265,97.8,269.4,100.4z M358.3,60.5c-0.5,1.7-1.2,3.5-1.7,5.3l-4.2,16.7c-0.7,2.1-1.2,4.2-2.3,6.2
	c-2.8,4.9-9.8,4.6-13.4-0.2c-0.9-1.4-1.6-3-2-4.5c-1.3-5.6-2.4-11-3.5-16.6c-0.4-2,0-3.9-2-6c-0.5,0.9-0.9,1.4-1.1,2
	c-1.3,12.7-2.8,25.5-4.3,38.2c-0.3,2.9-1.2,5.8-2.1,8.5c-0.2,0.9-1.4,1.5-2.5,2.7c-1.4-1.2-3-2.1-3.2-3.2c-0.9-3-1.7-6.2-1.9-9.2
	c-0.8-8.2-1.4-16.2-2.1-24.2c-0.2-2.6-0.6-5-1.1-7.4c-3.7-14.4-3.1-28.6-2.3-42.9c0.3-3.8,0.5-7.6,1-11.4c0.3-2.1,0.9-4.4,1.7-6.4
	c1.4-3.2,4.3-4.9,9.1-3.6c2.7,1.8,5.6,3.9,9,6.5c3.6,5.7,5.8,12.4,8,18.9c2,6.3,3.8,12.7,5.9,19c2.3,0.1,2.1-1.2,2.5-2.1l14.2-37.4
	c1.1-2.6,2.8-5,4.4-7.6c1-1.7,2.8-2.9,5.7-3.1c4.3,0.6,6.3,3,6.8,6.5c0.4,1.8,0.4,3.6,0.4,5.5c-0.4,12.9-0.7,25.8-1.3,38.7
	c-0.1,4.7-1,9.4-1.5,14c-0.8,7.3-1.9,14.6-2.5,21.8c-0.5,6.1-0.8,12,0.3,18.2c0.2,1.7,0.4,3.5,0.2,5.3c-0.2,3.2-0.9,4.1-4.8,6.9
	c-2.1,0.2-3.9-0.6-4.8-2.1c-2.5-3.9-4.9-7.7-5.3-12.1c-1-10.6-0.7-21.1,0.7-31.5l1-9.1C358.9,60.6,358.7,60.5,358.3,60.5z
	 M407.3,41.8c2.1-0.2,4.1-0.5,6.1-0.5c1.6-0.2,3.4-0.2,5,0.3c4.3,1,6.5,5,4.3,8.2c-1.6,2.6-3.9,5-7.8,5.8c-2.7,0.3-5.2,0.9-7.1,2.9
	c0.3,12.3,0.4,24.5,0.5,37.3c1.1,0,2.3,0.3,3.7,0.3c2.3,0.1,4.5-0.2,6.6,0.1c3,0.4,5.2,1.9,6.1,4.5c0.9,2.6-0.1,4.5-2.5,5.9
	c-2.3,1.2-4.6,2.6-7.1,2.9c-5.4,0.8-10.5,1.9-14.8,4.7c-0.9,0.6-2.1,0.9-3.4,1.1c-5.7,1-9.8-2.7-8.6-7.5c0.3-1.2,1.1-2.3,1.6-3.2
	c0-0.6,0.2-1.1,0-1.5c-2.4-6.5-3.1-13.2-2.6-19.8c1.1-20.9-0.1-41.8-1-62.9c0-3.3-0.1-6.7,0.1-10c0.1-4.8,3-8.1,8.5-9.5
	c2.3-0.5,4.8-0.9,7-1.6c5.9-1.9,11.2-0.7,16.4,1.9c2.5,1.2,4,2.8,4,5.1c0.2,2.3-1.2,4.1-3.5,4.9c-2,0.8-4.1,1.1-6.2,1.6
	c-2.1,0.3-4.3,0.5-6.9,0.8c-0.7,4.9,0.2,9.5,0.5,14.4C406.3,32.4,405.3,36.9,407.3,41.8z"/>
<path fill="#BC936B" d="M83.8,256.8c-2.6-0.6-3.2-2.3-3.4-3.9c-0.8-7-1.6-13.9-2.3-21c-0.3-1.7,0.1-3.3,0-5
	c-1.7-18.5-1.2-36.7-1.5-55c0-3.8-0.1-7.7-0.5-11.5c-2.6-1-4.8-0.4-6.9,0.1c-2.3,0.3-4.7,0.8-7.2,0.8c-3.8,0-6.4-1.9-7.4-4.9
	c-1.1-3.2,0.6-6.5,4.4-7.9c2.1-0.8,4.6-1.4,6.9-1.7c9.2-1.1,18.2-2.6,27.7-0.8c3.4,0.7,6.9,0.3,10.3,0.4c2,0.1,4,0.1,5.8,0.6
	c2.8,0.7,4.9,3.3,5.2,5.9c0.3,2.4-1,5.3-3.6,6.2c-2,0.8-4.3,1.2-6.4,1.3c-4.6,0.2-9.2,0.1-14.4,0.1l0,3.5c0,5.3,0.2,10.8,0.4,16.1
	c0.3,23.8-1.3,47.6-4.7,71C85.9,253,86,255.6,83.8,256.8z M116,219.9c-1.7-18.6-0.4-36.8,3.6-54.6c1.2-5.6,3.4-10.8,6.6-15.5
	c2-2.7,4.4-5,8.2-5.2c1.2-0.2,2.3-0.6,3.4-0.9c7.6-2,14.2,0.4,19.1,7.4c3.6,5.6,6.1,11.5,6.7,17.7c0.6,4.5,0.7,8.9,0.7,13.3
	c0.3,20.6-1.9,40.5-8,59.5c-0.8,2.3-1.5,4.7-2.6,7c-1.4,2.9-3.3,5.2-6.2,6.9c-5,2.9-10.2,2.5-15.5-1.1c-3.8-2.5-6.8-6-8.8-10.1
	C119.4,236.4,116.6,228.4,116,219.9z M138.9,242.8c0.9-0.5,1.4-0.6,1.5-1.1c0.5-0.9,0.9-2.1,1.2-3.2c4.4-12.8,5.5-26.4,7.5-39.8
	c1.2-8,0.2-16.4-1.6-24.5c-0.6-2.7-1.9-5.6-3.1-8.2c-0.5-1.2-1.7-2.1-2.6-3.2c-4.1,1.2-6.3,3.7-7.5,6.9c-0.9,2.6-1.5,5.3-2.1,8
	c-2.1,12.3-1.7,24.9-0.8,37.6c0.5,5.9,1.5,11.8,2.4,17.7C134.5,236.5,135,240.3,138.9,242.8z M230.4,255.8c-2.6-0.6-3.2-2.3-3.4-3.9
	c-0.8-7-1.6-13.9-2.3-21c-0.3-1.7,0.1-3.3,0-5c-1.7-18.5-1.2-36.7-1.5-55c0-3.8-0.1-7.7-0.6-11.5c-2.6-1-4.8-0.4-6.9,0
	c-2.3,0.3-4.7,0.8-7.2,0.8c-3.8,0-6.5-1.9-7.4-4.9c-1.1-3.2,0.6-6.5,4.4-7.9c2.1-0.8,4.6-1.4,6.9-1.7c9.2-1.1,18.2-2.6,27.7-0.8
	c3.4,0.7,6.9,0.3,10.3,0.4c2,0.1,4,0.1,5.8,0.6c2.8,0.7,4.9,3.3,5.2,5.9c0.3,2.4-1,5.3-3.6,6.2c-2,0.8-4.3,1.2-6.4,1.3
	c-4.6,0.2-9.2,0.1-14.4,0.1l0,3.5c0,5.3,0.2,10.8,0.4,16.1c0.3,23.8-1.3,47.6-4.7,70.9C232.6,252,232.6,254.6,230.4,255.8z
	 M312.2,141.7c0.9,0.1,2.2,0.3,3.4,0.6c4.9,1.5,6.8,3.9,6.6,8.7c0,3.2-0.3,6.4-0.2,9.5c-0.1,8.5,0,17,0,25.6
	c-0.1,5.8,0.1,11.5,0.1,17.3c0.1,8,0.6,16.2,0,24.2c-0.6,7.6-2,15-3.2,22.5c-0.1,1.1-0.8,1.8-1.2,3c-1.2-0.1-2.1-0.1-3.7-0.3
	c-5.6-15.6-7.6-31.3-10.1-47.4c-5.8-0.7-10.6,1.1-15.8,1.6c-1.4,4.2-1.6,8.8-1.7,13.2c-0.4,7.1-0.5,14.4-0.8,21.7
	c-0.1,1.2-0.1,2.6-0.1,3.8c0,5-2.4,8.2-6.4,10.7c-4.2-2.4-5.7-5.9-6.4-9.8c-1.3-7-1.2-13.8-1.4-20.6c-0.1-7.7-0.4-15.3-0.6-23
	c-0.2-11.2-0.6-22.3-1-33.3l-0.6-18c0-2.9,0.4-5.5,3.5-7.3c2.1-0.5,4.9-0.9,7.6-1.4c5.4,0.7,7.8,4.3,8.5,9
	c0.8,6.4,1.5,12.9,1.7,19.2c0,5.5-0.7,10.9-0.9,16.5l0,5.9c4.6,0.3,8.1-1,12.1-1.6c0.1-4.9,0.1-9.5,0.4-14.1
	c0.6-8,1.1-16.1,1.8-24.1c0.3-2.4,1-4.9,2.1-7.1C306.9,144.2,308.7,142.2,312.2,141.7z M348.1,183.7c1.8-0.2,3.5-0.5,5.2-0.5
	c1.4-0.2,2.9-0.2,4.3,0.3c3.7,1,5.6,5,3.7,8.2c-1.4,2.6-3.3,5-6.7,5.8c-2.3,0.3-4.4,0.9-6.1,2.9c0.2,12.3,0.3,24.5,0.4,37.3
	c0.9,0,2,0.3,3.2,0.3c2,0.1,3.8-0.2,5.7,0.1c2.6,0.4,4.5,1.9,5.2,4.5c0.8,2.6-0.1,4.5-2.1,5.9c-2,1.2-4,2.6-6.1,2.9
	c-4.6,0.8-9,1.9-12.7,4.6c-0.8,0.6-1.8,0.9-2.9,1.1c-4.9,0.9-8.5-2.7-7.4-7.5c0.3-1.2,0.9-2.3,1.4-3.2c0-0.6,0.1-1.1,0-1.5
	c-2-6.5-2.7-13.2-2.3-19.8c0.9-20.9-0.1-41.8-0.9-62.9c0-3.3,0-6.7,0.1-10c0.1-4.9,2.6-8,7.3-9.4c2-0.5,4.1-0.9,6-1.6
	c5-1.9,9.7-0.7,14.1,1.9c2.2,1.2,3.4,2.9,3.4,5.1c0.2,2.3-1,4.1-3,4.9c-1.7,0.8-3.5,1.1-5.4,1.5c-1.8,0.3-3.7,0.5-6,0.8
	c-0.6,4.9,0.2,9.5,0.4,14.4C347.2,174.3,346.3,178.9,348.1,183.7z M380.9,240.6c1.5-0.3,2.6,0.1,3.7,0.7c0.7,0.4,1.4,0.8,2.2,1.1
	c0.3,0.2,0.7,0.3,1,0.5c1.4,0.6,2.8,0.6,4.1,0c0.4-0.2,0.9-0.4,1.3-0.5c1.5-0.6,3.1-0.6,4.7,0c0.7,0.3,1.4,0.6,2.2,0.8
	c0.9,0.3,1.8,0.6,2.8,0.8c1,0.2,2,0.1,2.9-0.3c0.7-0.3,1.3-0.6,2-0.9c0.8-0.3,1.6-0.7,2.4-1c0.7-0.3,1.6-0.3,2.4-0.3
	c1.6,0.1,2.6,0.7,3.2,1.8c0.4,0.8,0.5,1.6,0.6,2.5c0.1,0.6,0.1,1.1,0.3,1.7c0.1,0.4,0.4,0.8,1.1,1.1c0.3-0.2,0.6-0.4,0.9-0.6
	c0.7-0.4,1.4-0.9,2.2-1.3c0.9-0.4,1.8-0.6,2.9-0.2c0.1-0.1,0.1-0.1,0.2-0.2c0.9-2.1,1.2-4.2,0.5-6.4c-0.9-3-4.6-4.7-8.6-3.8
	c-0.4,0.1-0.8,0.2-1.1,0.3c-2.8,0.9-5.8,0.9-8.7,0.2c-0.6-0.2-1.3-0.3-1.9-0.5c-1-0.3-2-0.4-3-0.3c-0.3,0-0.6,0-0.9,0.1
	c-1.5,0.2-2.7-0.1-3.9-0.8c-1.1-0.6-1.9-1.5-2.5-2.4c-0.5-0.9-0.9-1.8-1.4-2.7c-0.5-1.2-1.1-2.3-2-3.4c-0.2-0.3-0.4-0.5-0.7-0.8
	c-0.5,0.1-0.7,0.3-0.8,0.6c-0.2,0.6-0.5,1.2-0.6,1.8c-0.2,1.3-0.2,2.5-0.3,3.8c-0.1,0.7-0.2,1.5-0.4,2.2c-0.3,1.1-1.1,2-2.3,2.6
	c-0.8,0.5-1.7,0.9-2.5,1.3C381.8,238.7,381.2,239.6,380.9,240.6z M379.9,237.5c1.1-0.6,2-1.2,3-1.7c1.7-0.8,2.5-1.9,2.6-3.3
	c0.1-0.9,0.1-1.9,0.2-2.8c0.1-1,0.2-2,0.4-3c0.1-0.5,0.4-0.9,0.7-1.4c0.2-0.3,0.5-0.6,0.8-0.9c1.4-1,3.1-0.9,4.2,0.3
	c0.9,0.9,1.5,1.9,2,2.9c0.5,0.9,0.9,1.9,1.3,2.8c0.3,0.6,0.6,1.2,1,1.8c0.4,0.6,1,1.1,1.8,1.5c0.4,0.2,0.9,0.3,1.4,0.3
	c0.5-0.1,1.1-0.1,1.6-0.1c1.3-0.1,2.5,0,3.7,0.4c0.8,0.2,1.6,0.4,2.3,0.6c2.2,0.5,4.4,0.5,6.6-0.2c2.3-0.8,4.8-0.9,7.2-0.3
	c0.7,0.2,1.3,0.4,1.9,0.7c0.6,0.3,1.1,0.6,1.7,0.9c1.4-0.7,2.9-1.3,4.1-2.3c1.8-1.5,2.8-3.3,3.5-5.2c0.6-1.9,1-3.8,0.8-5.8
	c-0.1-1.1-0.4-2.2-1-3.3c-0.4-0.8-1-1.5-1.8-2.2c-0.5-0.4-0.9-0.8-1.4-1.1c-1.2-0.9-1.9-2.1-2.3-3.3c-0.5-1.5-1-2.9-1.6-4.4
	c-0.2-0.5-0.5-0.9-0.8-1.4c-0.6-0.8-1.7-1.2-2.9-1.4c-1.3-0.2-2.4,0.2-3.2,1c-0.4,0.4-0.7,0.8-1.1,1.2c-0.6,0.5-1.1,1-1.8,1.5
	c-0.5,0.3-1.1,0.5-1.7,0.5c-1,0.1-1.8-0.2-2.4-0.8c-0.6-0.6-0.8-1.2-1-1.9c-0.3-1.4-0.2-2.9-0.1-4.3c0.1-0.6,0.1-1.3,0-1.9
	c-0.2-1.3-1.6-2-3.3-1.7c-0.5,0.1-1,0.3-1.5,0.5c-0.9,0.4-1.8,0.9-2.7,1.3c-1.8,0.9-3.7,1.3-5.8,1.5c-0.9,0.1-1.7,0.2-2.6,0.4
	c-1.7,0.3-3,1-4.2,1.9c-0.8,0.6-1.6,1.1-2.4,1.7c-1.4,1-2.3,2.3-3.2,3.6c-0.2,0.4-0.4,0.7-0.6,1.1c-0.4,0.7-1.3,1.1-2.4,0.9
	c-0.5-0.1-1,0-1.4,0.1c0,0-0.1,0-0.1,0.1c-3.6,1-5.4,3.1-6,5.8c-0.5,2.2-1.2,4.3-1.8,6.5c-0.3,1.2-0.5,2.3-0.6,3.5
	c-0.2,2.7,1.1,5.1,3.8,7.1c0.4,0.3,0.9,0.6,1.4,0.8C377.4,236.5,378.7,237,379.9,237.5z M381.7,249.5c0.7-0.4,1.2-0.7,1.9-1.1
	c-0.3-0.2-0.5-0.5-0.8-0.7c-0.3-0.3-0.6-0.6-0.9-0.9c-0.2-0.2-0.3-0.5-0.3-0.8c0-0.5,0.7-0.9,1.3-0.6c0.4,0.1,0.7,0.3,0.9,0.5
	c0.3,0.2,0.5,0.4,0.7,0.7c0.8,0.9,1.9,1.5,3.2,2c3.5,1.4,7,2.8,10.5,4.2c0.2,0.1,0.4,0.1,0.7,0.2c0.9,0.2,1.8,0.5,2.6,1
	c0.2,0.1,0.5,0.2,0.8,0.3c0.2,0.1,0.4,0.2,0.6,0.3c0.5,0.3,0.7,0.6,0.6,0.9c-0.2,0.4-0.8,0.7-1.3,0.6c-0.6-0.1-1.2-0.2-1.7-0.4
	c-0.6,0.9-1.2,1.7-1.8,2.6c0.2,0,0.3,0.1,0.5,0.1c3.7,0.3,7.4-0.1,10.9-1c2-0.5,3.9-1.4,5.5-2.4c2.9-1.8,5.2-3.9,7-6.4
	c0.2-0.2,0.3-0.5,0.4-0.7c-0.4-0.2-0.7-0.1-0.9,0c-0.6,0.3-1.1,0.7-1.7,1c-0.4,0.3-0.8,0.6-1.3,0.8c-1.2,0.6-2.3,0.5-3.3-0.2
	c-0.7-0.5-1.1-1.1-1.3-1.8c-0.2-0.8-0.3-1.6-0.4-2.4c-0.1-0.5-0.2-1-0.4-1.5c-0.2-0.5-0.7-0.7-1.3-0.7c-0.5,0-1,0.1-1.5,0.2
	c-0.7,0.2-1.3,0.5-1.9,0.8c-0.6,0.3-1.1,0.6-1.7,0.8c-1.6,0.7-3.3,0.9-5,0.4c-0.9-0.2-1.7-0.5-2.5-0.8c-0.8-0.3-1.5-0.5-2.2-0.8
	c-1.1-0.4-2.2-0.4-3.3,0c-0.7,0.3-1.4,0.6-2.1,0.8c-1.3,0.4-2.6,0.5-3.9,0.1c-0.6-0.2-1.2-0.4-1.8-0.7c-0.8-0.4-1.5-0.8-2.3-1.2
	c-0.4-0.2-0.8-0.5-1.2-0.7c-1.2-0.5-2.4-0.1-2.5,0.9c-0.1,0.4,0,0.9,0,1.4c0.1,1.3,0.4,2.6,0.8,3.9
	C381.2,248.7,381.5,249,381.7,249.5z M365.9,279.9c-1.7-0.9-3.3-1.8-4.9-2.6c-2.7,2.5-5.5,4.9-8.6,7.1c1.8,1.2,3.7,2.1,5.7,3
	C360.7,284.9,363.3,282.4,365.9,279.9z M368.8,267.5c3-2.5,5.9-5,8.9-7.6c-1.3-0.7-2.5-1.4-3.9-2.1c-3.2,2.4-6.4,4.8-9.7,7.2
	C365.8,265.8,367.3,266.6,368.8,267.5z M367.5,268.6c-1.5-0.9-2.9-1.8-4.4-2.7c-2.8,2.1-5.3,4.5-7.9,6.8c1.7,0.8,3.4,1.6,5.1,2.4
	C362.7,272.9,365.1,270.8,367.5,268.6z M381.4,273.5c2.5-2.7,5-5.4,7.4-8.2c-1.3-0.6-2.6-1.2-3.9-1.8c-2.8,2.6-5.4,5.3-8.1,8
	C378.4,272.2,379.8,272.8,381.4,273.5z M369,279.7c1.4,0.8,2.8,1.6,4.2,2.5c2.5-2.5,4.8-5,7.2-7.6c-1.6-0.6-3.1-1.2-4.7-1.9
	C373.4,275.1,371.2,277.4,369,279.7z M369.4,269.7c-2.4,2.2-4.8,4.3-7.2,6.4c1.6,0.9,3.1,1.7,4.8,2.6c2.2-2.2,4.4-4.5,6.5-6.8
	C372.2,271.1,370.9,270.4,369.4,269.7z M370.7,268.5c1.4,0.7,2.7,1.4,4,2.1c2.8-2.7,5.5-5.4,8.3-8.1c-1.1-0.5-2.1-1.1-3.2-1.7
	C376.7,263.4,373.8,265.9,370.7,268.5z M359.1,276.3c-1.7-0.9-3.3-1.7-4.9-2.6c-0.1,0.1-0.2,0.1-0.3,0.2c-1.3,1.3-2.6,2.6-3.7,4.1
	c-1.5,1.9-0.9,3.6,0.9,5.2C353.8,280.9,356.4,278.6,359.1,276.3z M395.9,253.7c-3.3,2.9-6.6,5.8-9.8,8.7c1.3,0.6,2.5,1.2,3.7,1.9
	c0.1-0.1,0.2-0.1,0.3-0.2c2.4-2.5,5-5,7.1-7.6c0.3-0.3,0.5-0.7,0.7-1c0.2-0.3,0.2-0.6-0.2-0.9C397.1,254.3,396.5,254,395.9,253.7z
	 M393.9,253c-1.3-0.5-2.5-1-3.7-1.5c-3,2.7-6.1,5.4-9.2,8.2c1.1,0.6,2.2,1.1,3.2,1.7C387.4,258.6,390.6,255.8,393.9,253z M385,249.4
	c-3.3,2.5-6.5,5-9.9,7.5c1.3,0.6,2.6,1.2,3.9,1.9c3.1-2.6,6.1-5.3,9.2-8C387.2,250.3,386.1,249.9,385,249.4z M359.9,288
	c1.9,0.6,3.6,0.7,5.3,0c0.8-0.4,1.6-0.7,2.3-1.2c1.7-1,3.1-2.3,4.5-3.6c-1.4-0.8-2.8-1.6-4.2-2.4C365.3,283.3,362.9,285.8,359.9,288
	z M413.4,178.1c-0.4,0.1-0.6,0.2-0.9,0.3c-5.1,1.7-10.1,3.7-14.8,5.9c-0.5,0.3-0.8,0.6-0.9,1c-0.7,3.2-1.4,6.4-2,9.6
	c-0.3,1.4-0.5,2.7-0.7,4.1c0,0.2-0.1,0.4-0.1,0.7c0.3-0.1,0.5-0.2,0.7-0.3c3.4-1.8,6.8-3.5,10.4-5c1.4-0.6,2.7-1.3,3.7-2.2
	c0.5-0.5,0.9-1,1.3-1.5c1.2-1.7,1.8-3.5,2.2-5.3c0.6-2.3,0.8-4.7,1.1-7C413.4,178.3,413.4,178.2,413.4,178.1z M394,186.3
	c-0.3,0.2-0.5,0.3-0.7,0.4c-2.2,1.4-4.3,2.8-6.3,4.4c-2.1,1.6-3.9,3.4-5.6,5.2c-0.2,0.2-0.3,0.4-0.3,0.6c-0.8,2.8-1.3,5.6-1.4,8.4
	c0,1.2,0,2.4,0.5,3.5c0.1,0.3,0.3,0.6,0.4,0.9c0.1,0.2,0.3,0.4,0.8,0.4c0.1-0.2,0.3-0.4,0.4-0.7c0.7-1.9,2.1-3.5,4-4.8
	c1.9-1.3,3.8-2.5,5.8-3.7c0.3-0.2,0.5-0.4,0.5-0.7c-0.1-0.8,0-1.6,0-2.4c0.3-3.7,1-7.4,1.9-11.1C394,186.7,394,186.6,394,186.3z
	 M413.6,176.3c0.2-3.3,0.4-6.6,0.6-10c-0.5,0.1-0.9,0.2-1.3,0.3c-2.8,0.6-5.5,1.2-8.3,1.8c-0.9,0.2-1.8,0.5-2.7,0.8
	c-0.4,0.1-0.6,0.3-0.7,0.6c-1.3,3.9-2.5,7.8-3.4,11.7c0,0.2-0.1,0.4-0.1,0.6c0.2-0.1,0.4-0.1,0.6-0.2c3.8-1.7,7.8-3.3,11.9-4.6
	C411.2,177,412.4,176.7,413.6,176.3z M418.9,203.7c0.7-4.1,0.9-8.1,1.3-12.2c-2.2-0.7-4.4-1.3-6.7-1.9c-0.1,0.2-0.2,0.3-0.3,0.5
	c-0.6,0.8-1.1,1.7-1.7,2.5c-0.8,1.1-2,1.9-3.4,2.6c-1.8,0.9-3.7,1.7-5.5,2.6c-1.9,0.9-3.8,1.9-5.7,2.8c-0.1,0-0.2,0.1-0.2,0.2
	c1.3,0,2.5-0.4,3.6-0.9c0.8-0.4,1.6-0.8,2.4-1.1c0.6-0.3,1.3-0.6,2-0.9c0.7-0.3,1.5-0.4,2.4-0.4c2.5,0,4.4,1.3,4.8,3.1
	c0.1,0.5,0.1,1,0.1,1.5c0,1-0.1,2-0.1,3c0,0.7,0.2,1.5,0.3,2.2c0.1,0.3,0.2,0.6,0.7,0.9c0.2-0.1,0.4-0.2,0.6-0.4
	c0.5-0.5,1-0.9,1.4-1.4c0.5-0.5,0.9-1,1.4-1.4C416.9,204.3,417.8,204,418.9,203.7z M422.6,192.3c-0.4,3.8-0.4,7.6-1.4,11.3
	c0.4,0.1,0.7,0.2,1.1,0.2c2,0.5,3.5,1.4,4.3,2.9c0.5,1,0.9,2,1.3,3c0.3,0.7,0.5,1.5,0.8,2.3c0.3-0.2,0.5-0.4,0.7-0.6
	c1.3-1.2,2-2.6,2.4-4.1c0.7-2.5,1-5,1.1-7.5c0-1.1,0-2.2,0-3.3c0-0.3-0.1-0.4-0.4-0.6c-2.6-1.2-5.4-2.3-8.1-3.2
	C423.7,192.6,423.2,192.5,422.6,192.3z M415.3,150.4c-0.3-0.3-0.7-0.3-1.3-0.2c-1.7,0.3-3.4,0.5-5,0.8c-0.5,0.1-0.8,0.3-0.9,0.7
	c-1.9,5.1-3.9,10.2-5.8,15.2c-0.1,0.1-0.1,0.3-0.1,0.5c4-1.1,7.9-2.1,12-2.6C414.5,160,414.9,155.2,415.3,150.4z M432.7,193.9
	c-0.1-1.1-0.2-2.1-0.3-3.1c-0.5-3.5-1.1-7-1.7-10.5c-0.2-1.4-0.6-2.9-0.9-4.3c0-0.2-0.1-0.4-0.4-0.5c-1.7-0.5-3.4-1.1-5.1-1.6
	c-0.2-0.1-0.4-0.1-0.7-0.1c-0.2,5.5-0.3,11-0.9,16.5C426.1,191.5,429.3,192.7,432.7,193.9z M398.3,170.7c-0.3,0.1-0.5,0.1-0.6,0.2
	c-2.2,1-4.4,1.9-6.6,2.9c-0.3,0.1-0.5,0.4-0.6,0.6c-2.7,5.4-5.3,10.9-7.4,16.4c-0.2,0.5-0.4,0.9-0.4,1.4c0.5-0.4,1-0.9,1.5-1.3
	c3-2.5,6.3-4.8,9.9-6.8c0.4-0.2,0.6-0.5,0.7-0.8c0.8-2.9,1.5-5.8,2.3-8.7c0.3-1.1,0.7-2.1,1-3.2
	C398.2,171.2,398.2,170.9,398.3,170.7z M414.1,188.1c2.1,0.5,4.2,0.9,6.3,1.4c0.5-5.4,0.8-10.8,0.8-16.3c-1.6-0.3-3.1-0.6-4.8-0.9
	c0,0.2-0.1,0.3-0.1,0.5c-0.2,2.4-0.3,4.7-0.6,7.1c-0.3,2.7-0.7,5.4-1.6,8.1C414.1,188,414.1,188.1,414.1,188.1z M405.3,151.8
	c-0.6,0.2-1,0.3-1.5,0.5c-1.2,0.3-1.8,0.8-2.2,1.7c-2,3.8-4.2,7.6-6.3,11.4c-1,1.8-2,3.6-3,5.5c-0.1,0.1-0.1,0.3-0.3,0.5
	c0.3-0.1,0.4-0.1,0.5-0.2c2-0.9,4-1.8,6-2.6c0.3-0.1,0.5-0.3,0.7-0.6c1.9-5.2,3.9-10.4,5.9-15.5
	C405.2,152.3,405.3,152.1,405.3,151.8z M416.4,170.7c1.6,0.2,3.2,0.4,4.8,0.6c0.2-4.6-0.1-9.2-0.5-13.9c-1.2-0.3-2.3-0.6-3.5-0.9
	C416.8,161.3,416.6,166,416.4,170.7z M409.2,149c2.1-0.3,4.2-0.5,6.4-0.8c0.6-5.4,0.9-10.8,1.3-16.4
	C416.4,132.4,409.3,148.2,409.2,149z M423.4,158.2c0.1,4.6,0.3,9.1,0.4,13.6c1.8,0.5,3.5,1.1,5.4,1.7c-0.2-0.6-0.3-1.2-0.4-1.8
	c-1-3.9-2.1-7.9-3.1-11.8c-0.1-0.5-0.4-0.9-1.1-1.1C424.2,158.6,423.8,158.4,423.4,158.2z M417.4,154.8c1.1,0.2,2.1,0.4,3.2,0.6
	c-0.6-5.1-1.2-10.1-1.7-15.2C418.4,145.1,417.9,149.9,417.4,154.8z M403.6,150.5c0.9-0.2,1.6-0.4,2.4-0.7c0.2-0.1,0.4-0.3,0.4-0.5
	c0.7-1.6,1.4-3.3,2.1-4.9c1.5-3.5,3.1-6.9,4.6-10.4c0-0.1,0.1-0.2,0.2-0.4C412.3,134.4,405.1,147.1,403.6,150.5z M421.7,143.7
	c0.1,0.6,0.1,1.3,0.2,1.9c0.4,3.3,0.8,6.7,1.2,10c0,0.4,0.2,0.6,0.7,0.7c0.4,0.1,0.7,0.2,1.1,0.4c-1-4.4-2-8.7-3.1-13.1
	C421.7,143.7,421.7,143.7,421.7,143.7z M57.1,239.6c-0.8-0.4-1.7-0.9-2.5-1.3c-1.2-0.7-2-1.5-2.3-2.6c-0.2-0.7-0.4-1.5-0.4-2.2
	c-0.1-1.3-0.2-2.5-0.4-3.8c-0.1-0.6-0.4-1.2-0.6-1.8c-0.1-0.3-0.3-0.5-0.8-0.6c-0.2,0.3-0.4,0.5-0.6,0.8c-0.8,1.1-1.4,2.3-1.9,3.4
	c-0.4,0.9-0.8,1.8-1.3,2.7c-0.5,1-1.4,1.8-2.5,2.4c-1.2,0.7-2.4,1-3.9,0.8c-0.3,0-0.6-0.1-0.9-0.1c-1-0.1-2,0-3,0.3
	c-0.6,0.2-1.2,0.4-1.9,0.5c-2.9,0.8-5.8,0.8-8.7-0.1c-0.4-0.1-0.7-0.2-1.1-0.3c-4-0.9-7.6,0.8-8.6,3.8c-0.7,2.2-0.3,4.3,0.6,6.4
	c0,0.1,0.1,0.1,0.2,0.2c1-0.4,2-0.2,2.9,0.2c0.8,0.4,1.5,0.8,2.2,1.3c0.3,0.2,0.6,0.4,0.9,0.6c0.7-0.3,0.9-0.7,1.1-1.1
	c0.2-0.5,0.2-1.1,0.3-1.7c0.1-0.8,0.2-1.7,0.5-2.5c0.5-1.1,1.6-1.7,3.2-1.8c0.8-0.1,1.7,0,2.4,0.3c0.8,0.3,1.6,0.6,2.4,1
	c0.7,0.3,1.3,0.6,2,0.9c0.9,0.4,1.9,0.5,2.9,0.2c0.9-0.2,1.9-0.5,2.8-0.8c0.7-0.2,1.4-0.5,2.2-0.8c1.6-0.6,3.1-0.6,4.7,0
	c0.4,0.2,0.9,0.3,1.3,0.5c1.4,0.6,2.7,0.6,4.1,0c0.4-0.1,0.7-0.3,1-0.5c0.7-0.4,1.4-0.8,2.2-1.2c1.1-0.6,2.2-1,3.7-0.7
	C58.8,241,58.3,240.1,57.1,239.6z M63.9,237.3c0.5-0.2,0.9-0.5,1.4-0.8c2.6-2,3.9-4.4,3.7-7.1c-0.1-1.2-0.3-2.4-0.6-3.5
	c-0.6-2.2-1.3-4.3-1.8-6.5c-0.6-2.7-2.4-4.8-6.1-5.8c0,0-0.1,0-0.1,0c-0.5-0.2-0.9-0.2-1.4-0.1c-1.1,0.2-1.9-0.2-2.4-0.9
	c-0.2-0.4-0.4-0.7-0.7-1.1c-0.9-1.3-1.8-2.5-3.2-3.5c-0.8-0.6-1.6-1.2-2.4-1.7c-1.2-0.8-2.6-1.6-4.2-1.8c-0.8-0.1-1.7-0.3-2.6-0.3
	c-2.1-0.2-4.1-0.6-5.8-1.5c-0.9-0.4-1.8-0.9-2.7-1.3c-0.5-0.2-1-0.4-1.5-0.5c-1.7-0.3-3.1,0.4-3.3,1.7c-0.1,0.6-0.1,1.3,0,1.9
	c0.1,1.4,0.3,2.8-0.1,4.3c-0.2,0.7-0.4,1.4-1,1.9c-0.6,0.6-1.4,0.9-2.4,0.8c-0.7-0.1-1.3-0.2-1.7-0.5c-0.6-0.5-1.2-1-1.8-1.5
	c-0.4-0.4-0.7-0.8-1.1-1.2c-0.8-0.8-1.9-1.1-3.2-0.9c-1.2,0.2-2.2,0.6-2.9,1.4c-0.3,0.4-0.6,0.9-0.8,1.4c-0.6,1.5-1.1,2.9-1.6,4.4
	c-0.4,1.2-1.1,2.4-2.3,3.3c-0.5,0.4-0.9,0.8-1.4,1.2c-0.8,0.6-1.4,1.4-1.8,2.2c-0.6,1.1-0.8,2.2-1,3.3c-0.2,2,0.2,3.9,0.8,5.8
	c0.7,1.9,1.8,3.7,3.5,5.2c1.2,1,2.6,1.7,4.1,2.3c0.6-0.3,1.1-0.7,1.7-0.9c0.6-0.3,1.2-0.5,1.9-0.7c2.5-0.7,4.9-0.6,7.2,0.2
	c2.2,0.7,4.4,0.7,6.6,0.2c0.8-0.2,1.6-0.4,2.3-0.6c1.2-0.3,2.4-0.5,3.7-0.4c0.5,0.1,1.1,0.1,1.6,0.1c0.5,0,0.9-0.1,1.4-0.3
	c0.8-0.4,1.4-0.9,1.8-1.5c0.4-0.6,0.7-1.2,1-1.8c0.5-0.9,0.8-1.9,1.3-2.8c0.5-1,1.1-2,2-2.9c1.2-1.2,2.9-1.3,4.2-0.3
	c0.3,0.2,0.6,0.5,0.8,0.8c0.3,0.4,0.6,0.9,0.7,1.4c0.2,1,0.3,2,0.5,3c0.1,0.9,0.2,1.9,0.2,2.8c0.1,1.4,0.9,2.5,2.6,3.3
	c1,0.4,1.9,1,3,1.6C61.3,238.4,62.6,237.9,63.9,237.3z M59,249.7c0.4-1.3,0.7-2.6,0.8-3.9c0-0.5,0.1-0.9,0-1.4
	c-0.2-1-1.4-1.4-2.5-0.9c-0.4,0.2-0.8,0.5-1.2,0.7c-0.8,0.4-1.5,0.9-2.3,1.2c-0.6,0.3-1.2,0.5-1.8,0.7c-1.3,0.4-2.7,0.4-3.9,0
	c-0.7-0.2-1.4-0.5-2.1-0.8c-1.1-0.5-2.2-0.5-3.3,0c-0.7,0.3-1.5,0.6-2.2,0.9c-0.8,0.3-1.7,0.6-2.5,0.8c-1.8,0.5-3.5,0.3-5-0.4
	c-0.6-0.3-1.1-0.6-1.7-0.8c-0.6-0.3-1.3-0.6-1.9-0.8c-0.4-0.1-1-0.2-1.5-0.2c-0.7,0-1.1,0.2-1.3,0.7c-0.2,0.5-0.3,1-0.4,1.5
	c-0.2,0.8-0.2,1.6-0.4,2.4c-0.2,0.7-0.6,1.3-1.3,1.8c-1,0.8-2.2,0.9-3.3,0.3c-0.5-0.2-0.8-0.5-1.3-0.8c-0.5-0.3-1.1-0.7-1.7-1
	c-0.2-0.1-0.5-0.3-0.9,0c0.1,0.2,0.3,0.5,0.4,0.7c1.8,2.5,4.2,4.6,7.1,6.3c1.7,1,3.5,1.8,5.5,2.3c3.5,0.9,7.1,1.2,10.9,0.9
	c0.2,0,0.3-0.1,0.5-0.1c-0.6-0.9-1.2-1.7-1.9-2.6c-0.6,0.1-1.1,0.3-1.7,0.4c-0.5,0.1-1.1-0.2-1.3-0.6c-0.2-0.3,0-0.6,0.5-0.9
	c0.2-0.1,0.4-0.2,0.6-0.3c0.3-0.1,0.5-0.2,0.8-0.3c0.8-0.5,1.6-0.8,2.6-1c0.2-0.1,0.5-0.1,0.7-0.2c3.5-1.4,7-2.9,10.5-4.3
	c1.3-0.5,2.4-1.2,3.2-2.1c0.2-0.2,0.4-0.5,0.7-0.7c0.3-0.2,0.6-0.4,0.9-0.5c0.7-0.2,1.3,0.1,1.3,0.6c0,0.3-0.1,0.6-0.3,0.8
	c-0.2,0.3-0.5,0.6-0.8,1c-0.2,0.2-0.5,0.5-0.8,0.7c0.6,0.4,1.2,0.7,1.9,1.1C58.7,250.5,58.9,250.1,59,249.7z M82.3,288.7
	c2-0.9,4-1.9,5.7-3.1c-3.1-2.2-5.9-4.6-8.6-7.1c-1.6,0.9-3.2,1.7-4.9,2.7C77.2,283.7,79.7,286.2,82.3,288.7z M76.1,266.3
	c-3.3-2.4-6.5-4.8-9.7-7.1c-1.3,0.7-2.6,1.4-3.8,2.2c3,2.5,6,5,9,7.5C73,267.9,74.5,267.1,76.1,266.3z M80.1,276.3
	c1.7-0.8,3.3-1.6,5-2.4c-2.6-2.3-5.1-4.6-7.9-6.7c-1.5,0.9-2.9,1.8-4.4,2.7C75.3,272.1,77.7,274.2,80.1,276.3z M63.5,272.9
	c-2.7-2.7-5.3-5.4-8.2-7.9c-1.3,0.6-2.6,1.2-3.9,1.9c2.5,2.7,5,5.4,7.5,8.1C60.5,274.2,62,273.6,63.5,272.9z M64.7,274.2
	c-1.6,0.6-3.1,1.3-4.7,1.9c2.4,2.6,4.7,5.1,7.2,7.5c1.4-0.9,2.8-1.7,4.2-2.5C69.2,278.8,67,276.5,64.7,274.2z M66.8,273.2
	c2.2,2.3,4.3,4.5,6.6,6.7c1.6-0.9,3.1-1.7,4.7-2.6c-2.4-2.1-4.8-4.2-7.2-6.4C69.5,271.8,68.2,272.5,66.8,273.2z M60.5,262.2
	c-1.1,0.6-2.2,1.1-3.2,1.7c2.8,2.7,5.6,5.4,8.3,8.1c1.3-0.7,2.6-1.4,4-2.1C66.5,267.3,63.5,264.8,60.5,262.2z M89.3,284.3
	c1.8-1.6,2.3-3.3,0.8-5.2c-1.1-1.4-2.3-2.7-3.7-4c-0.1-0.1-0.2-0.1-0.3-0.2c-1.6,0.9-3.2,1.7-4.9,2.6
	C84,279.8,86.7,282.1,89.3,284.3z M42.6,256.2c-0.4,0.2-0.5,0.5-0.2,0.9c0.2,0.3,0.5,0.7,0.7,1c2.1,2.7,4.7,5.1,7.1,7.6
	c0.1,0.1,0.1,0.1,0.3,0.2c1.2-0.6,2.4-1.2,3.7-1.9c-3.3-2.9-6.6-5.7-9.9-8.6C43.7,255.6,43.1,255.9,42.6,256.2z M56.1,262.8
	c1-0.6,2.1-1.1,3.2-1.7c-3.1-2.7-6.2-5.4-9.3-8.1c-1.2,0.5-2.4,1-3.7,1.5C49.6,257.3,52.8,260.1,56.1,262.8z M51.9,252.2
	c3.1,2.7,6.2,5.3,9.3,7.9c1.3-0.6,2.6-1.3,3.9-1.9c-3.3-2.5-6.6-4.9-9.9-7.4C54,251.3,53,251.8,51.9,252.2z M72.6,282.2
	c-1.4,0.8-2.8,1.6-4.2,2.4c1.5,1.3,2.9,2.5,4.6,3.5c0.7,0.4,1.5,0.8,2.3,1.1c1.7,0.7,3.4,0.7,5.3,0
	C77.6,287.1,75.1,284.6,72.6,282.2z M26.1,180.1c0.3,2.3,0.5,4.7,1.1,7c0.5,1.8,1.1,3.6,2.3,5.3c0.4,0.5,0.8,1,1.3,1.5
	c1,1,2.4,1.6,3.8,2.2c3.6,1.5,7.1,3.2,10.5,4.9c0.2,0.1,0.4,0.2,0.7,0.3c0-0.3-0.1-0.5-0.1-0.7c-0.3-1.4-0.5-2.7-0.8-4.1
	c-0.7-3.2-1.4-6.4-2.1-9.6c-0.1-0.5-0.4-0.8-0.9-1c-4.8-2.2-9.7-4.2-14.9-5.8c-0.3-0.1-0.5-0.1-0.9-0.2
	C26.1,179.9,26.1,180,26.1,180.1z M45.7,188.4c0.9,3.7,1.6,7.3,2,11.1c0.1,0.8,0.1,1.6,0.1,2.4c0,0.4,0.1,0.5,0.5,0.7
	c2,1.2,3.9,2.3,5.8,3.6c1.9,1.3,3.4,2.8,4,4.8c0.1,0.2,0.3,0.4,0.4,0.6c0.5,0,0.7-0.2,0.8-0.4c0.2-0.3,0.3-0.6,0.4-0.9
	c0.5-1.2,0.5-2.4,0.4-3.6c-0.1-2.8-0.7-5.6-1.5-8.4c-0.1-0.2-0.2-0.4-0.3-0.6c-1.8-1.8-3.5-3.6-5.7-5.2c-2-1.5-4.1-2.9-6.4-4.3
	c-0.2-0.1-0.4-0.2-0.7-0.4C45.6,188.1,45.6,188.3,45.7,188.4z M29.4,179.1c4.1,1.3,8.1,2.8,11.9,4.5c0.2,0.1,0.3,0.1,0.6,0.2
	c0-0.3-0.1-0.4-0.1-0.6c-1-3.9-2.2-7.8-3.5-11.7c-0.1-0.3-0.3-0.5-0.7-0.6c-0.9-0.2-1.8-0.6-2.7-0.8c-2.8-0.6-5.5-1.2-8.3-1.8
	c-0.4-0.1-0.8-0.2-1.3-0.3c0.2,3.4,0.4,6.7,0.7,9.9C27.2,178.4,28.3,178.7,29.4,179.1z M23.6,206.7c0.5,0.4,0.9,0.9,1.4,1.4
	c0.5,0.5,1,0.9,1.4,1.4c0.2,0.1,0.4,0.2,0.6,0.4c0.4-0.2,0.6-0.6,0.7-0.9c0.1-0.7,0.3-1.5,0.3-2.3c0-1-0.1-2-0.2-3
	c0-0.5,0-1,0.1-1.5c0.4-1.8,2.3-3.1,4.8-3.1c0.8,0,1.6,0.1,2.4,0.4c0.7,0.3,1.3,0.5,2,0.8c0.8,0.4,1.6,0.8,2.4,1.1
	c1.1,0.5,2.3,0.8,3.6,0.8c0-0.1-0.1-0.1-0.2-0.2c-1.9-0.9-3.8-1.9-5.8-2.8c-1.8-0.9-3.7-1.7-5.5-2.5c-1.4-0.7-2.6-1.5-3.4-2.6
	c-0.6-0.8-1.1-1.6-1.7-2.4c-0.1-0.2-0.2-0.3-0.3-0.5c-2.3,0.6-4.5,1.2-6.7,2c0.4,4.1,0.6,8.1,1.4,12.2
	C21.9,205.7,22.8,206.1,23.6,206.7z M15.4,194.6c-2.8,1-5.5,2.1-8.1,3.3c-0.3,0.1-0.4,0.3-0.4,0.6c0,1.1,0,2.2,0.1,3.3
	c0.1,2.5,0.4,5,1.1,7.5c0.4,1.5,1.2,2.8,2.5,4c0.2,0.2,0.4,0.3,0.7,0.6c0.3-0.8,0.5-1.6,0.8-2.3c0.4-1,0.8-2,1.3-3
	c0.8-1.5,2.2-2.4,4.2-2.9c0.3-0.1,0.7-0.2,1.1-0.2c-1.1-3.7-1.1-7.5-1.5-11.3C16.5,194.3,15.9,194.4,15.4,194.6z M25.3,166.5
	c4.1,0.5,8.1,1.4,12,2.5c-0.1-0.2-0.1-0.4-0.1-0.5c-2-5.1-4-10.1-5.9-15.2c-0.2-0.4-0.4-0.6-0.9-0.7c-1.7-0.2-3.4-0.5-5.1-0.7
	c-0.5-0.1-0.9,0-1.3,0.3C24.4,156.9,24.8,161.7,25.3,166.5z M16.9,192c-0.7-5.4-0.8-10.9-1.1-16.5c-0.3,0.1-0.5,0.1-0.7,0.1
	c-1.7,0.5-3.4,1.1-5.1,1.6c-0.3,0.1-0.4,0.3-0.4,0.5c-0.3,1.4-0.6,2.9-0.9,4.3c-0.6,3.5-1.1,7-1.6,10.5c-0.1,1-0.2,2.1-0.3,3.1
	C10.3,194.5,13.6,193.3,16.9,192z M41.3,172.9c0.3,1.1,0.7,2.1,1,3.2c0.8,2.9,1.6,5.8,2.4,8.7c0.1,0.4,0.3,0.6,0.7,0.8
	c3.6,2,6.9,4.2,9.9,6.8c0.5,0.4,1,0.9,1.6,1.3c-0.1-0.5-0.3-0.9-0.4-1.4c-2.2-5.5-4.8-11-7.5-16.4c-0.1-0.2-0.3-0.5-0.6-0.6
	c-2.2-1-4.4-1.9-6.6-2.9c-0.2-0.1-0.4-0.1-0.6-0.2C41.2,172.5,41.3,172.7,41.3,172.9z M25.5,189.7c-1-2.6-1.4-5.3-1.7-8.1
	c-0.3-2.3-0.4-4.7-0.6-7.1c0-0.1-0.1-0.3-0.1-0.5c-1.6,0.3-3.2,0.6-4.7,0.9c0,5.5,0.3,10.9,0.9,16.3c2.1-0.5,4.2-1,6.3-1.4
	C25.5,189.8,25.5,189.7,25.5,189.7z M34.1,154.1c2,5.2,4,10.3,6,15.5c0.1,0.3,0.3,0.5,0.7,0.6c2,0.8,4,1.7,6,2.6
	c0.1,0.1,0.3,0.1,0.5,0.2c-0.1-0.3-0.2-0.4-0.3-0.5c-1-1.8-2-3.6-3-5.4c-2.1-3.8-4.3-7.6-6.4-11.4c-0.5-0.9-1.1-1.4-2.3-1.7
	c-0.5-0.1-0.9-0.3-1.5-0.4C34,153.7,34.1,153.9,34.1,154.1z M22.1,158.3c-1.2,0.3-2.4,0.6-3.5,0.9c-0.3,4.7-0.6,9.3-0.3,13.9
	c1.6-0.2,3.1-0.4,4.8-0.6C22.8,167.7,22.5,163,22.1,158.3z M22.3,133.6c0.4,5.5,0.7,11,1.4,16.4c2.2,0.3,4.3,0.5,6.4,0.7
	C29.9,149.9,22.7,134.1,22.3,133.6z M14.7,160.5c-0.7,0.2-0.9,0.6-1.1,1.1c-1,4-2,7.9-2.9,11.9c-0.1,0.6-0.3,1.2-0.4,1.9
	c1.9-0.6,3.7-1.2,5.4-1.7c0.1-4.5,0.2-9,0.3-13.6C15.5,160.2,15.1,160.4,14.7,160.5z M20.3,142c-0.5,5.1-1.1,10.1-1.6,15.2
	c1.1-0.2,2.1-0.4,3.2-0.7C21.4,151.7,20.9,146.9,20.3,142z M25.8,135.3c0.1,0.2,0.1,0.3,0.2,0.4c1.6,3.4,3.2,6.9,4.7,10.3
	c0.7,1.6,1.4,3.3,2.1,4.9c0.1,0.2,0.2,0.4,0.4,0.5c0.7,0.3,1.5,0.4,2.4,0.7C34.2,148.7,26.8,136.1,25.8,135.3z M17.4,145.5
	c-1,4.3-2,8.7-2.9,13.1c0.4-0.1,0.7-0.3,1.1-0.4c0.5-0.1,0.7-0.4,0.7-0.8c0.4-3.3,0.7-6.7,1.1-10c0.1-0.6,0.1-1.3,0.2-1.9
	C17.5,145.5,17.5,145.5,17.4,145.5z"/>
</svg>
