<?xml version="1.0" encoding="utf-8"?>
<!-- Generator: Adobe Illustrator 18.0.0, SVG Export Plug-In . SVG Version: 6.00 Build 0)  -->
<!DOCTYPE svg PUBLIC "-//W3C//DTD SVG 1.1//EN" "http://www.w3.org/Graphics/SVG/1.1/DTD/svg11.dtd">
<svg version="1.1" id="Layer_1" xmlns="http://www.w3.org/2000/svg" xmlns:xlink="http://www.w3.org/1999/xlink" x="0px" y="0px"
	 viewBox="0 0 432 432" enable-background="new 0 0 432 432" xml:space="preserve">
<path fill="#BC936B" d="M81.2,413.8c-4.3,0-7.7-1.9-10-5.6c-1.8-3-2.8-7.2-2.8-12.4c0-1.5,0.3-2.7,0.8-3.7c0.6-1,1.3-1.5,2.3-1.5
	c1.7,0,2.6,1.3,2.6,4c0,1.6,0.2,3.3,0.6,4.9c0.8,4,2.8,6,5.9,6c3.4,0,5.1-2.3,5.1-7c0-3-1.3-6.2-3.8-9.7c-1.2-1.5-2.4-3.1-3.8-4.8
	c-3.7-4.6-6.6-8.7-8.5-12.4c-2.8-5.3-4.2-11.3-4.2-17.8c0-4.5,0.6-8.5,1.8-12c0.8-2.5,2-4.6,3.5-6.4c2.9-3.4,6.8-5.2,11.7-5.2
	c10.2,0,15.3,8.1,15.3,24.3c0,4-0.3,7.5-0.8,10.4c-0.7,4-2,6-3.8,6c-1.6,0-2.4-1-2.4-3c0-0.5,0-1.1,0.1-1.6c0.7-3.9,1-7.8,1-11.8
	c0-3-0.3-5.8-0.8-8.3c-1.2-5.7-3.7-8.5-7.4-8.5c-2.7,0-4.8,1.6-6.3,4.8c-1.2,2.6-1.8,6.1-1.8,10.5c0,4.1,0.9,8.1,2.6,11.7
	c1.6,3.4,4.4,7.4,8.2,12.2c1.6,2,3.1,4,4.4,6.1c2.9,4.6,4.4,9.3,4.4,14.2c0,4.4-1,8.1-3,10.9C90,411.9,86.2,413.8,81.2,413.8z
	 M121.4,413.8c-6.4,0-10.9-3.3-13.5-9.8c-2-4.9-3-11.9-3-20.8v-43.1c0-1.5,0.1-3,0.3-4.4c0.4-3.3,2-4.9,4.7-4.9
	c1.4,0,2.6,0.4,3.4,1.3c1.4,1.5,2.2,4.1,2.2,7.6v44.9c0,3.6,0.2,6.9,0.5,9.6c0.4,3.8,1.3,6.7,2.6,8.5c1.2,1.6,2.9,2.5,5,2.5
	c5.4,0,8.2-6.8,8.2-20.3v-47.7c0-2.2,0.2-3.9,0.7-5.1c0.4-1.2,1.3-1.8,2.5-1.8c2.4,0,3.7,2.3,3.7,6.9v47.6
	C138.4,404.1,132.7,413.8,121.4,413.8z M183.4,412.2c-1.9,0-3.5-1.3-4.8-4c-3-5.9-7.3-14.8-12.9-26.9c-2.9-6.3-4.6-9.4-4.9-9.4
	c-0.3,0-0.5,0.8-0.5,2.5v30.5c0,6-1.8,9-5.5,9c-1.7,0-3-0.6-3.8-1.9c-0.8-1.3-1.2-3.8-1.2-7.5v-64.8c0-3.6,0.4-6.1,1.2-7.4
	c0.8-1.3,2.1-2,3.9-2c1.5,0,2.7,0.8,3.6,2.3c0.9,1.5,1.4,3.7,1.4,6.6c0,9.3,2.7,19.5,8.2,30.6l10.3,21c0.6,1.3,1.1,1.9,1.4,1.9
	c0.3,0,0.5-0.8,0.5-2.3v-53.3c0-2.2,0.2-3.9,0.7-5.1c0.4-1.2,1.3-1.8,2.5-1.8c2.5,0,3.7,2.3,3.7,6.9V407
	C187.2,410.5,185.9,412.2,183.4,412.2z M209.6,413.8c-4.3,0-7.7-1.9-10-5.6c-1.8-3-2.8-7.2-2.8-12.4c0-1.5,0.3-2.7,0.8-3.7
	c0.6-1,1.3-1.5,2.3-1.5c1.7,0,2.6,1.3,2.6,4c0,1.6,0.2,3.3,0.6,4.9c0.8,4,2.8,6,5.9,6c3.4,0,5.1-2.3,5.1-7c0-3-1.3-6.2-3.8-9.7
	c-1.2-1.5-2.4-3.1-3.8-4.8c-3.7-4.6-6.6-8.7-8.5-12.4c-2.8-5.3-4.2-11.3-4.2-17.8c0-4.5,0.6-8.5,1.8-12c0.8-2.5,2-4.6,3.5-6.4
	c2.9-3.4,6.8-5.2,11.7-5.2c10.2,0,15.3,8.1,15.3,24.3c0,4-0.3,7.5-0.8,10.4c-0.7,4-2,6-3.8,6c-1.6,0-2.4-1-2.4-3
	c0-0.5,0-1.1,0.1-1.6c0.7-3.9,1-7.8,1-11.8c0-3-0.3-5.8-0.8-8.3c-1.2-5.7-3.7-8.5-7.4-8.5c-2.7,0-4.8,1.6-6.3,4.8
	c-1.2,2.6-1.8,6.1-1.8,10.5c0,4.1,0.9,8.1,2.6,11.7c1.6,3.4,4.4,7.4,8.2,12.2c1.6,2,3.1,4,4.4,6.1c2.9,4.6,4.4,9.3,4.4,14.2
	c0,4.4-1,8.1-3,10.9C218.3,411.9,214.5,413.8,209.6,413.8z M264.4,413.8c-1.2,0-2.1-0.6-2.5-1.8c-0.4-1.2-0.7-2.9-0.7-5.1v-13.1
	c0-1.3-0.6-1.9-1.8-1.9l-13.5,0.1c-1.2,0-1.8,0.6-1.8,1.8v11.1c0,2.4-0.3,4.3-0.9,5.7c-0.9,2.1-2.4,3.2-4.6,3.2
	c-1.6,0-2.7-0.5-3.4-1.4c-0.5-0.7-0.9-1.5-1.2-2.6c-0.3-1.3-0.4-3.1-0.4-5.4v-64.8c0-1.5,0.1-3,0.3-4.4c0.4-3.3,2-4.9,4.7-4.9
	c1.9,0,3.3,0.8,4.2,2.4c0.9,1.6,1.3,3.8,1.3,6.5v43.2c0,1.6,0.6,2.4,1.8,2.4l13.5-0.1c1.2,0,1.8-0.8,1.8-2.4v-45.3
	c0-2.2,0.2-3.9,0.7-5.1c0.4-1.2,1.3-1.8,2.5-1.8c2.4,0,3.7,2.3,3.7,6.9V407C268.1,411.5,266.9,413.8,264.4,413.8z M293.5,412.8
	h-14.5c-2.1,0-3.2-0.9-3.2-2.8c0-2.4,1.2-3.5,3.5-3.5c0.8,0,1.3-0.1,1.6-0.4c0.3-0.3,0.5-0.8,0.5-1.4v-65.4c0-1.2-0.5-1.8-1.4-1.9
	c-1.3-0.1-2.2-0.3-2.7-0.6c-1-0.6-1.5-1.7-1.5-3.1c0-1.7,1.2-2.6,3.5-2.6H294c2.3,0,3.4,0.9,3.4,2.6c0,1.4-0.5,2.4-1.5,3.1
	c-0.5,0.3-1.5,0.5-2.8,0.6c-0.8,0.1-1.2,0.6-1.2,1.4v66.3c0,0.9,0.4,1.4,1.1,1.4c1.2,0.1,2.1,0.3,2.6,0.6c1,0.7,1.5,1.7,1.5,3.1
	C297,412,295.8,412.8,293.5,412.8z M337.4,412.2c-1.9,0-3.5-1.3-4.8-4c-3-5.9-7.3-14.8-12.9-26.9c-2.9-6.3-4.6-9.4-4.9-9.4
	c-0.3,0-0.5,0.8-0.5,2.5v30.5c0,6-1.8,9-5.5,9c-1.7,0-3-0.6-3.8-1.9c-0.8-1.3-1.2-3.8-1.2-7.5v-64.8c0-3.6,0.4-6.1,1.2-7.4
	c0.8-1.3,2.1-2,3.9-2c1.5,0,2.7,0.8,3.6,2.3c0.9,1.5,1.4,3.7,1.4,6.6c0,9.3,2.7,19.5,8.2,30.6l10.3,21c0.6,1.3,1.1,1.9,1.4,1.9
	c0.3,0,0.5-0.8,0.5-2.3v-53.3c0-2.2,0.2-3.9,0.7-5.1c0.4-1.2,1.3-1.8,2.5-1.8c2.5,0,3.7,2.3,3.7,6.9V407
	C341.1,410.5,339.8,412.2,337.4,412.2z M368.1,413.8c-3.9,0-7-0.7-9.1-2.1c-3.9-2.6-6.1-7.4-6.6-14.4c-0.2-3.1-0.3-6.5-0.3-9.9v-45
	c0-2.3,0.2-4.3,0.6-6c0.8-3.5,2.9-5.2,6.3-5.2h11.6c0.8,0,1.7,0.1,2.7,0.2c2.4,0.4,3.6,1.7,3.6,4c0,0.9-0.4,1.7-1.1,2.4
	c-0.7,0.8-1.9,1.1-3.4,1.1c-1.1,0-2.2,0-3.3-0.1c-1.1-0.1-2.2-0.1-3.3-0.1c-2,0-3.1,1.4-3.1,4.3v38.1c0,1.6,0.2,2.7,0.6,3.2
	c0.4,0.5,1,0.7,1.8,0.7c1.2,0,2.4,0,3.6-0.1c1.2-0.1,2.4-0.1,3.6-0.1c1.5,0,2.6,0.3,3.3,0.8c0.9,0.6,1.3,1.7,1.3,3.2
	c0,0.9-0.3,1.6-0.9,2.2c-0.6,0.6-1.4,0.9-2.4,0.9l-8.9-0.2c-1.4,0-2.1,0.8-2.1,2.3v2.5c0,2.7,0.4,4.7,1.2,6.1
	c1.2,2.2,3.6,3.3,7.2,3.3c1.1,0,2.2-0.1,3.3-0.2c1.1-0.1,2.2-0.2,3.3-0.2c0.7,0,1.4,0.2,2,0.6c0.6,0.4,0.8,1.1,0.8,2
	c0,1.8-0.9,3.1-2.8,4.1C375.7,413.3,372.6,413.8,368.1,413.8z M79.5,228.1c-4.2,0-7.4-1.4-9.7-4.3c-1.8-2.4-2.7-5.6-2.7-9.7
	c0-1.1,0.3-2.1,0.8-2.9c0.5-0.8,1.3-1.2,2.2-1.2c1.7,0,2.5,1,2.5,3.1c0,1.3,0.2,2.5,0.5,3.8c0.8,3.1,2.7,4.7,5.7,4.7
	c3.3,0,5-1.8,5-5.5c0-2.3-1.2-4.9-3.6-7.6c-1.1-1.2-2.3-2.5-3.6-3.8c-3.6-3.6-6.4-6.8-8.2-9.7c-2.7-4.1-4.1-8.8-4.1-13.8
	c0-3.5,0.6-6.6,1.7-9.4c0.8-1.9,1.9-3.6,3.4-5c2.8-2.7,6.6-4,11.4-4c9.9,0,14.8,6.3,14.8,18.9c0,3.1-0.3,5.9-0.8,8.1
	c-0.7,3.1-1.9,4.7-3.6,4.7c-1.5,0-2.3-0.8-2.3-2.3c0-0.4,0-0.8,0.1-1.3c0.6-3,1-6.1,1-9.2c0-2.3-0.2-4.5-0.8-6.5
	c-1.2-4.4-3.6-6.6-7.2-6.6c-2.6,0-4.7,1.2-6.1,3.7c-1.2,2.1-1.8,4.8-1.8,8.1c0,3.2,0.8,6.3,2.5,9.1c1.6,2.6,4.2,5.8,8,9.5
	c1.6,1.6,3,3.1,4.3,4.8c2.8,3.6,4.3,7.3,4.3,11c0,3.5-1,6.3-2.9,8.5C88,226.6,84.3,228.1,79.5,228.1z M118.4,228.1
	c-6.2,0-10.6-2.5-13.1-7.6c-1.9-3.8-2.9-9.2-2.9-16.2v-33.6c0-1.2,0.1-2.4,0.2-3.5c0.4-2.5,1.9-3.8,4.6-3.8c1.4,0,2.5,0.3,3.3,1
	c1.4,1.2,2.1,3.2,2.1,5.9v35c0,2.8,0.2,5.3,0.5,7.5c0.4,3,1.3,5.2,2.5,6.6c1.1,1.3,2.8,1.9,4.9,1.9c5.3,0,7.9-5.3,7.9-15.8v-37.2
	c0-1.7,0.2-3.1,0.6-4c0.4-0.9,1.2-1.4,2.4-1.4c2.4,0,3.6,1.8,3.6,5.3v37.1C134.9,220.6,129.4,228.1,118.4,228.1z M178.6,226.9
	c-1.8,0-3.4-1-4.6-3.1c-2.9-4.6-7.1-11.6-12.5-21c-2.8-4.9-4.4-7.3-4.8-7.3c-0.3,0-0.5,0.7-0.5,2v23.7c0,4.7-1.8,7-5.3,7
	c-1.7,0-2.9-0.5-3.7-1.5c-0.8-1-1.2-2.9-1.2-5.8v-50.5c0-2.8,0.4-4.7,1.1-5.7c0.8-1,2-1.5,3.7-1.5c1.4,0,2.6,0.6,3.5,1.8
	c0.9,1.2,1.4,2.9,1.4,5.2c0,7.2,2.6,15.2,7.9,23.8l10,16.4c0.6,1,1,1.5,1.4,1.5c0.3,0,0.5-0.6,0.5-1.8v-41.5c0-1.7,0.2-3.1,0.6-4
	c0.4-0.9,1.2-1.4,2.4-1.4c2.4,0,3.6,1.8,3.6,5.3v54.4C182.2,225.5,181,226.9,178.6,226.9z M203.9,228.1c-4.2,0-7.4-1.4-9.7-4.3
	c-1.8-2.4-2.7-5.6-2.7-9.7c0-1.1,0.3-2.1,0.8-2.9c0.5-0.8,1.3-1.2,2.2-1.2c1.7,0,2.5,1,2.5,3.1c0,1.3,0.2,2.5,0.5,3.8
	c0.8,3.1,2.7,4.7,5.7,4.7c3.3,0,5-1.8,5-5.5c0-2.3-1.2-4.9-3.6-7.6c-1.1-1.2-2.3-2.5-3.6-3.8c-3.6-3.6-6.4-6.8-8.2-9.7
	c-2.7-4.1-4.1-8.8-4.1-13.8c0-3.5,0.6-6.6,1.7-9.4c0.8-1.9,1.9-3.6,3.4-5c2.8-2.7,6.6-4,11.4-4c9.9,0,14.8,6.3,14.8,18.9
	c0,3.1-0.3,5.9-0.8,8.1c-0.7,3.1-1.9,4.7-3.6,4.7c-1.5,0-2.3-0.8-2.3-2.3c0-0.4,0-0.8,0.1-1.3c0.6-3,1-6.1,1-9.2
	c0-2.3-0.2-4.5-0.8-6.5c-1.2-4.4-3.6-6.6-7.2-6.6c-2.6,0-4.7,1.2-6.1,3.7c-1.2,2.1-1.8,4.8-1.8,8.1c0,3.2,0.8,6.3,2.5,9.1
	c1.6,2.6,4.2,5.8,8,9.5c1.6,1.6,3,3.1,4.3,4.8c2.8,3.6,4.3,7.3,4.3,11c0,3.5-1,6.3-2.9,8.5C212.3,226.6,208.7,228.1,203.9,228.1z
	 M257,228.1c-1.2,0-2-0.5-2.4-1.4c-0.4-0.9-0.6-2.2-0.6-3.9v-10.2c0-1-0.6-1.5-1.8-1.5l-13.1,0c-1.1,0-1.7,0.5-1.7,1.4v8.6
	c0,1.8-0.3,3.3-0.9,4.5c-0.9,1.7-2.4,2.5-4.4,2.5c-1.5,0-2.6-0.4-3.3-1.1c-0.5-0.5-0.9-1.2-1.2-2c-0.3-1-0.4-2.4-0.4-4.2v-50.5
	c0-1.2,0.1-2.4,0.3-3.5c0.4-2.5,1.9-3.8,4.6-3.8c1.8,0,3.2,0.6,4.1,1.9c0.9,1.2,1.3,2.9,1.3,5.1v33.7c0,1.3,0.6,1.9,1.7,1.9l13.1,0
	c1.2,0,1.8-0.6,1.8-1.8v-35.3c0-1.7,0.2-3.1,0.6-4c0.4-0.9,1.2-1.4,2.4-1.4c2.4,0,3.6,1.8,3.6,5.3v54.4
	C260.6,226.3,259.4,228.1,257,228.1z M285.2,227.4h-14c-2.1,0-3.1-0.7-3.1-2.2c0-1.8,1.1-2.8,3.3-2.8c0.8,0,1.3-0.1,1.6-0.3
	c0.3-0.2,0.5-0.6,0.5-1.1v-50.9c0-0.9-0.4-1.4-1.3-1.5c-1.3-0.1-2.1-0.2-2.6-0.5c-1-0.5-1.5-1.3-1.5-2.4c0-1.3,1.1-2,3.3-2h14.2
	c2.2,0,3.3,0.7,3.3,2c0,1.1-0.5,1.9-1.5,2.4c-0.5,0.3-1.4,0.4-2.8,0.5c-0.8,0.1-1.2,0.4-1.2,1.1v51.6c0,0.7,0.3,1.1,1,1.1
	c1.2,0.1,2,0.2,2.5,0.5c0.9,0.5,1.4,1.3,1.4,2.4C288.6,226.7,287.5,227.4,285.2,227.4z M327.7,226.9c-1.8,0-3.4-1-4.6-3.1
	c-2.9-4.6-7.1-11.6-12.5-21c-2.8-4.9-4.4-7.3-4.8-7.3c-0.3,0-0.5,0.7-0.5,2v23.7c0,4.7-1.8,7-5.3,7c-1.7,0-2.9-0.5-3.7-1.5
	c-0.8-1-1.2-2.9-1.2-5.8v-50.5c0-2.8,0.4-4.7,1.1-5.7c0.8-1,2-1.5,3.7-1.5c1.4,0,2.6,0.6,3.5,1.8s1.4,2.9,1.4,5.2
	c0,7.2,2.6,15.2,7.9,23.8l10,16.4c0.6,1,1,1.5,1.4,1.5c0.3,0,0.5-0.6,0.5-1.8v-41.5c0-1.7,0.2-3.1,0.6-4c0.4-0.9,1.2-1.4,2.4-1.4
	c2.4,0,3.6,1.8,3.6,5.3v54.4C331.3,225.5,330.1,226.9,327.7,226.9z M357.5,228.1c-3.8,0-6.7-0.6-8.9-1.7c-3.8-2-5.9-5.8-6.4-11.2
	c-0.2-2.5-0.3-5-0.3-7.7v-35.1c0-1.8,0.2-3.4,0.5-4.6c0.8-2.7,2.8-4.1,6.1-4.1h11.3c0.8,0,1.6,0.1,2.6,0.2c2.3,0.3,3.5,1.3,3.5,3.1
	c0,0.7-0.4,1.3-1.1,1.9c-0.7,0.6-1.8,0.9-3.3,0.9c-1.1,0-2.1,0-3.2-0.1c-1.1,0-2.1-0.1-3.2-0.1c-2,0-3,1.1-3,3.3v29.7
	c0,1.3,0.2,2.1,0.6,2.5c0.4,0.4,1,0.5,1.8,0.5c1.2,0,2.3,0,3.5-0.1c1.2-0.1,2.4-0.1,3.5-0.1c1.4,0,2.5,0.2,3.2,0.6
	c0.8,0.5,1.3,1.3,1.3,2.5c0,0.7-0.3,1.2-0.8,1.7c-0.6,0.5-1.3,0.7-2.3,0.7l-8.6-0.1c-1.3,0-2,0.6-2,1.8v1.9c0,2.1,0.4,3.6,1.1,4.8
	c1.2,1.7,3.5,2.5,6.9,2.5c1.1,0,2.2,0,3.2-0.1c1.1-0.1,2.2-0.1,3.2-0.1c0.7,0,1.4,0.2,1.9,0.5c0.5,0.3,0.8,0.9,0.8,1.5
	c0,1.4-0.9,2.4-2.7,3.2C364.9,227.7,361.8,228.1,357.5,228.1z M133.8,113c-5.4-9.6-24.4-2.3-26.3,8.7c-2.5-5.6-14.7-14.8-22.7-12.2
	c-8.9,2.9-5.3,11.5-2.5,17c5.6,10.9,17.6,21.8,31.2,26.3c0.4,1.5,8.4-10.6,11.3-14.9C130.1,130.2,138.4,121.2,133.8,113z M218.9,113
	c-5.4-9.6-24.4-2.3-26.3,8.7c-2.5-5.6-14.7-14.8-22.7-12.2c-8.9,2.9-5.3,11.5-2.5,17c5.6,10.9,17.6,21.8,31.2,26.3
	c0.4,1.5,8.4-10.6,11.3-14.9C215.2,130.2,223.5,121.2,218.9,113z M301.9,113c-5.4-9.6-24.4-2.3-26.3,8.7
	c-2.5-5.6-14.7-14.8-22.7-12.2c-8.9,2.9-5.3,11.5-2.5,17c5.6,10.9,17.6,21.8,31.2,26.3c0.4,1.5,8.4-10.6,11.3-14.9
	C298.2,130.2,306.5,121.2,301.9,113z M377,113c-5.4-9.6-24.4-2.3-26.3,8.7c-2.5-5.6-14.7-14.8-22.7-12.2c-8.9,2.9-5.3,11.5-2.5,17
	c5.6,10.9,17.6,21.8,31.2,26.3c0.4,1.5,8.4-10.6,11.3-14.9C373.3,130.2,381.6,121.2,377,113z"/>
<path fill="#6F91BD" d="M74.2,62.2v22.9c0,5-0.2,10.1-1.7,14.8c-0.4,1.6-0.7,3.3-2.3,4.1c-2.5-0.5-3.4-2.6-3.8-4.5
	c-0.8-3.8-1.6-7.7-2-11.5c-0.6-6.9-1-13.8-1.4-20.7c-0.2-3.4-0.9-6.7-2.2-9.9c-2.2-5.8-3.8-11.8-5-17.8c-0.4-2.3-1.3-4.6-1.8-6.9
	c-0.3-1.6-0.6-3.3-0.6-4.9c0-2.1,0.8-3.9,3-4.5c2.1-0.2,3.6,1.1,4.8,2.5c1.7,2,2.6,4.4,3.4,6.9c0.9,3.6,1.8,7.3,2.8,10.8
	c0.7,2.5,1.7,4.8,2.6,7.6c1.4-1.5,1.4-2.9,1.8-4.3c2-7.2,3.9-14.6,6.1-21.9c0.7-2.4,2-4.8,3.2-7.1c0.7-1.3,0.8-1.2,3.7-2.6
	c0.4,0.4,1.4,0.9,1.6,1.6c1.1,3.2,1.9,6.3,1.1,9.5c-0.1,0.3-0.1,0.6-0.2,0.9C84,39.4,81.7,52.2,74.2,62.2z M88.2,76.3
	c-1.1-12.9-0.1-25.5,2.7-37.8c0.8-3.9,2.4-7.5,4.6-10.7c1.4-1.9,3-3.5,5.7-3.6c0.8-0.1,1.6-0.4,2.3-0.6c5.3-1.4,9.8,0.3,13,5.3
	c2.4,3.9,4.1,8,4.5,12.3c0.4,3.2,0.4,6.2,0.4,9.2c0.1,14.3-1.5,28.1-5.8,41.2c-0.5,1.6-1,3.3-1.8,4.8c-0.9,2-2.3,3.6-4.3,4.7
	c-3.5,2-7,1.7-10.6-0.8c-2.6-1.8-4.6-4.2-6-7C90.4,87.8,88.5,82.2,88.2,76.3z M103.7,92.3c0.6-0.3,0.9-0.4,1-0.7
	c0.3-0.6,0.6-1.5,0.8-2.2c3-8.8,3.9-18.3,5.4-27.5c0.8-5.6,0.2-11.3-0.9-17c-0.4-1.9-1.3-3.9-2.1-5.7c-0.3-0.8-1.2-1.5-1.8-2.2
	c-2.8,0.8-4.3,2.5-5.1,4.7c-0.6,1.8-1.1,3.7-1.5,5.6c-1.5,8.5-1.3,17.2-0.7,26.1c0.3,4.1,0.9,8.2,1.6,12.3
	C100.8,87.9,101.1,90.5,103.7,92.3z M130.6,26.6c5.4-0.4,7.1,0.7,7.7,4.8c0.3,3,0.3,6.1,0.4,9c0.1,10.2,0,20.3,0.3,30.5
	c0.1,5.4,0.9,10.7,1.6,17c2-6.6,3.3-12.5,4-18.6c0.9-8,1.1-16,0.9-24.1c-0.1-5-0.1-10.2,0-15.2c0.1-2.2,0.5-4.3,1-6.4
	c0.4-1.5,1.7-2.3,3.5-2.2c1.8,0,3,1,3.7,2.4s1.3,2.8,1.5,4.2c0.4,2.8,0.7,5.7,0.8,8.5c0.1,11.2,0.1,22.5,0,33.7
	c-0.1,8.7-2,17.1-4.6,25.3c-0.5,1.8-1.5,3.5-2.6,4.9c-3.4,4.3-9.8,4.6-14.6,0.9c-2.1-1.7-3.8-3.7-4.5-6.1c-0.9-2.9-2-5.9-2.2-8.9
	c-0.4-8-0.6-16.1-0.7-24.2c0-6.2,0.3-12.4,0.1-18.5c-0.1-5,1.2-9.7,2-14.4C129,28.4,130,27.6,130.6,26.6z M200.2,78.3
	c-3.3-0.1-6-0.3-9-0.1c-0.3,1.5-0.6,2.7-0.9,4.1l-3.5,17.7c-0.4,1.6-0.5,3.5-2.7,4.2c-0.4-0.3-0.9-0.6-1.7-1.1
	c-0.4-5.8-0.8-11.6-0.8-17.3c-0.1-6,0.6-11.8,1.5-17.7c1.1-6.8,1.7-13.9,1.9-20.9c0.2-5.6,0.8-11.1,2.6-16.4c0.6-2,1.5-4.1,2.7-5.8
	c3-4.3,8.1-4.3,12.1-0.1c2.2,2.4,3.5,5.5,4.3,8.5c1.5,5.9,2.3,11.9,2.4,17.9c0.1,7.7,0.3,15.3,0.4,23c0,5.5,0,10.9-0.1,16.4
	c0,1.6-0.2,3.2-0.5,4.6c-0.4,2.1-1.9,3.5-3.7,3.5c-1.9,0-3.8-1.5-4.3-3.9c-0.4-1.9-0.5-3.8-0.5-5.7c-0.1-2.6,0.1-5.3,0.1-8
	C200.4,80.5,200.3,79.8,200.2,78.3z M200.2,69c-0.1-2-0.1-3.4-0.1-4.7c0-3.4-0.3-6.6-0.1-9.9c0.4-6.2-0.6-12.2-1.9-18.3
	c-0.2-0.9-0.7-1.7-1.4-3c-0.5,1.2-0.9,1.8-1.1,2.5c-0.5,3-1.2,6-1.5,9.1c-0.7,7.8-1.3,15.4-1.9,23.2c0,0.4,0.2,0.8,0.4,1.6
	C195.1,69.4,197.3,69.2,200.2,69z M222.4,102.4l-3.8-2.3c-1.9-3.2-2.8-6.5-2.9-10.1c-0.6-11.6-1.4-23-0.8-34.5
	c0.1-3.7-0.1-7.5,0-11.1c0.2-5.4,1.3-10.5,4.1-15c4.2-6.7,12.5-8.2,18.8-3.4c2.6,1.9,4.5,4.3,5.6,7.4c1.3,3.3,1.9,6.6,1.4,10
	c-0.9,5.4-2,10.7-4.2,15.7c-1.5,3-3.4,5.9-5.3,9.1c0,0,0.2,0.6,0.4,1c4.3,6.6,6.2,14.1,7.9,21.7c0.7,3.4,0,6.4-1.4,9.4
	c-0.4,0.7-1.2,1.3-1.9,2.2c-0.8-0.9-1.8-1.6-2.2-2.4c-1.2-2.3-2.2-4.8-3-7.4c-1.4-3.9-2.3-7.9-3.6-11.9c-0.8-2.5-1.9-4.9-3.6-6.9
	c-1.3,0.2-0.9,1.2-0.9,1.8c-0.1,2.9,0,5.9-0.1,8.8c-0.1,4.8-0.7,9.7-2,14.4C224.4,100.2,224,101.7,222.4,102.4z M229.8,32.2
	c-2,2.2-2.4,4.7-2.5,7.1c-0.2,6-0.2,12.1-0.3,18.1c0,0.7-0.1,1.5,0.9,2c2-1.7,2.8-4.3,4.3-6.4c3-4.5,2.9-9.5,1.9-14.4
	C233.6,36.1,232.6,33.8,229.8,32.2z M262.5,52.4c1.3-0.1,2.4-0.3,3.6-0.3c0.9-0.1,2-0.1,2.9,0.2c2.5,0.7,3.8,3.5,2.5,5.7
	c-0.9,1.8-2.3,3.5-4.6,4c-1.6,0.2-3,0.6-4.2,2c0.1,8.5,0.1,17,0.1,25.9c0.6,0,1.4,0.2,2.2,0.2c1.4,0.1,2.6-0.1,3.9,0.1
	c1.8,0.3,3,1.4,3.6,3.2c0.5,1.8-0.1,3.2-1.5,4.1c-1.4,0.8-2.7,1.8-4.2,2c-3.2,0.5-6.2,1.3-8.7,3.2c-0.5,0.4-1.3,0.6-2,0.7
	c-3.4,0.6-5.8-1.9-5-5.3c0.2-0.8,0.6-1.6,0.9-2.2c0-0.4,0.1-0.7,0-1.1c-1.4-4.5-1.8-9.1-1.5-13.8c0.7-14.5,0.1-29-0.3-43.6
	c0-2.3,0-4.6,0.1-6.9c0.1-3.4,1.8-5.6,5-6.5c1.4-0.3,2.8-0.6,4.1-1c3.5-1.3,6.6-0.4,9.7,1.4c1.5,0.8,2.3,2,2.3,3.6
	c0.1,1.6-0.7,2.8-2.1,3.4c-1.2,0.5-2.4,0.7-3.7,1.1c-1.3,0.2-2.5,0.3-4.1,0.5c-0.4,3.4,0.1,6.6,0.2,10
	C261.9,45.9,261.3,49,262.5,52.4z M327.4,65.1c-0.3,1.2-0.7,2.4-1.1,3.7l-2.5,11.6c-0.4,1.5-0.7,2.9-1.4,4.3
	c-1.7,3.4-5.8,3.2-7.9-0.2c-0.5-0.9-0.9-2.1-1.2-3.2c-0.7-3.9-1.4-7.7-2-11.6c-0.2-1.4,0-2.7-1.2-4.2c-0.3,0.6-0.5,0.9-0.6,1.4
	c-0.8,8.8-1.8,17.7-2.7,26.5c-0.2,2-0.7,4-1.3,5.9c-0.1,0.6-0.8,1.1-1.5,1.9c-0.8-0.8-1.8-1.5-1.9-2.2c-0.5-2.1-0.9-4.3-1-6.4
	c-0.4-5.7-0.7-11.2-1.2-16.8c-0.1-1.8-0.3-3.5-0.6-5.1c-2.1-10-1.7-19.9-1.2-29.7c0.2-2.6,0.3-5.3,0.6-7.9c0.2-1.5,0.5-3,1.1-4.4
	c0.8-2.2,2.5-3.4,5.4-2.4c1.6,1.3,3.3,2.7,5.3,4.5c2.1,4,3.4,8.6,4.6,13.1c1.2,4.4,2.2,8.8,3.4,13.2c1.4,0.1,1.3-0.8,1.5-1.5
	l8.5-25.9c0.6-1.8,1.7-3.5,2.6-5.3c0.6-1.2,1.7-2,3.4-2.1c2.5,0.4,3.7,2.1,4,4.5c0.2,1.3,0.2,2.5,0.2,3.8
	c-0.3,8.9-0.5,17.9-0.9,26.8c-0.1,3.3-0.6,6.5-0.9,9.7c-0.5,5-1.2,10.1-1.6,15.1c-0.3,4.2-0.5,8.3,0.1,12.6c0.1,1.2,0.2,2.4,0.1,3.7
	c-0.1,2.2-0.5,2.8-2.8,4.7c-1.3,0.1-2.3-0.4-2.8-1.5c-1.5-2.7-2.8-5.4-3-8.4c-0.5-7.4-0.3-14.6,0.5-21.9l0.6-6.3
	C327.7,65.2,327.6,65.1,327.4,65.1z M364.8,62.2v22.9c0,5-0.2,10.1-1.7,14.8c-0.4,1.6-0.7,3.3-2.3,4.1c-2.5-0.5-3.4-2.6-3.8-4.5
	c-0.8-3.8-1.6-7.7-2-11.5c-0.6-6.9-1-13.8-1.4-20.7c-0.2-3.4-0.9-6.7-2.2-9.9c-2.2-5.8-3.8-11.8-5-17.8c-0.4-2.3-1.3-4.6-1.8-6.9
	c-0.3-1.6-0.6-3.3-0.6-4.9c0-2.1,0.8-3.9,3-4.5c2.1-0.2,3.6,1.1,4.8,2.5c1.7,2,2.6,4.4,3.4,6.9c0.9,3.6,1.8,7.3,2.8,10.8
	c0.7,2.5,1.7,4.8,2.6,7.6c1.4-1.5,1.4-2.9,1.8-4.3c2-7.2,3.9-14.6,6.1-21.9c0.7-2.4,2-4.8,3.2-7.1c0.7-1.3,0.8-1.2,3.7-2.6
	c0.4,0.4,1.4,0.9,1.6,1.6c1.1,3.2,1.9,6.3,1.1,9.5c-0.1,0.3-0.1,0.6-0.2,0.9C374.6,39.4,372.3,52.2,364.8,62.2z M192.6,316.5
	c-0.4,0.6-0.8,1.1-1.2,1.6c-0.8,1.1-1.7,2-3,2.8c-0.9,0.5-2,1-3.2,0.5c-1.3-0.5-1.2-1.5-0.8-2.3c0.6-1.7,1.5-3.4,2.2-5.1
	c0.1-0.3,0.3-0.5,0.5-0.9c-0.7,0-1.3-0.1-1.9-0.1c-2-0.1-4-0.4-5.7-1.3c-0.8-0.4-1.5-0.9-2.1-1.4c-0.8-0.7-0.6-1.6,0.4-2.2
	c0.6-0.3,1.4-0.6,2.2-0.7c1.4-0.1,2.8,0,4.2,0.1c0.8,0,1.6,0.2,2.6,0.4c-0.2-0.3-0.3-0.6-0.5-0.7c-1-1.1-1.8-2.4-2-3.7
	c-0.1-0.6-0.1-1.3,0.2-1.9c0.5-1.2,1.9-1.6,3.3-1c0.7,0.3,1.5,0.7,1.9,1.2c0.9,0.9,1.6,1.9,2.4,2.9c0.3,0.4,0.5,0.8,0.9,1.4
	c0.3-0.6,0.5-0.9,0.7-1.3c0.7-1.6,1.7-3,3.2-4.3c0.6-0.5,1.4-1,2.2-1.4c1.3-0.5,2.5-0.2,3.1,0.8c0.5,0.9,0.6,1.9,0.2,2.9
	c-0.5,1.2-1.2,2.5-1.8,3.7c-0.3,0.5-0.6,1-0.9,1.6c1.2,0,2.2,0,3.2,0c2,0,4,0.4,5.8,1c0.4,0.1,0.8,0.3,1.2,0.5c1.8,1,1.7,2.4-0.4,3
	c-1,0.3-2.2,0.6-3.3,0.6c-2,0.1-4.1-0.1-6.2-0.1c-0.2,0-0.4,0-0.7,0c0.1,0.3,0.2,0.6,0.4,0.8c0.7,1.4,1.5,2.9,2.2,4.3
	c0.3,0.7,0.5,1.4,0.4,2.1c0,1.3-1.3,2-3,1.6c-1.4-0.3-2.6-0.9-3.4-1.8c-0.8-0.9-1.6-1.8-2.3-2.8C193,317.2,192.8,316.9,192.6,316.5z
	 M195.5,310.7c0-1.3-1.5-2.5-3.2-2.4c-1.7,0-3,1.1-3,2.4c0,1.3,1.4,2.5,3,2.5C193.8,313.2,195.5,311.9,195.5,310.7z M142.3,313
	c-0.4,0.6-0.8,1.1-1.2,1.6c-0.8,1.1-1.7,2-3,2.8c-0.9,0.5-2,1-3.2,0.5c-1.3-0.5-1.2-1.5-0.8-2.3c0.6-1.7,1.5-3.4,2.2-5.1
	c0.1-0.3,0.3-0.5,0.5-0.9c-0.7,0-1.3-0.1-1.9-0.1c-2-0.1-4-0.4-5.7-1.3c-0.8-0.4-1.5-0.9-2.1-1.4c-0.8-0.7-0.6-1.6,0.4-2.2
	c0.6-0.3,1.4-0.6,2.2-0.7c1.4-0.1,2.8,0,4.2,0.1c0.8,0,1.6,0.2,2.6,0.4c-0.2-0.3-0.3-0.6-0.5-0.7c-1-1.1-1.8-2.4-2-3.7
	c-0.1-0.6-0.1-1.3,0.2-1.9c0.5-1.2,1.9-1.6,3.3-1c0.7,0.3,1.5,0.7,1.9,1.2c0.9,0.9,1.6,1.9,2.4,2.9c0.3,0.4,0.5,0.8,0.9,1.4
	c0.3-0.6,0.5-0.9,0.7-1.3c0.7-1.6,1.7-3,3.2-4.3c0.6-0.5,1.4-1,2.2-1.4c1.3-0.5,2.5-0.2,3.1,0.8c0.5,0.9,0.6,1.9,0.2,2.9
	c-0.5,1.2-1.2,2.5-1.8,3.7c-0.3,0.5-0.6,1-0.9,1.6c1.2,0,2.2,0,3.2,0c2,0,4,0.4,5.8,1c0.4,0.1,0.8,0.3,1.2,0.5c1.8,1,1.7,2.4-0.4,3
	c-1,0.3-2.2,0.6-3.3,0.6c-2,0.1-4.1-0.1-6.2-0.1c-0.2,0-0.4,0-0.7,0c0.1,0.3,0.2,0.6,0.4,0.8c0.7,1.4,1.5,2.9,2.2,4.3
	c0.3,0.7,0.5,1.4,0.4,2.1c0,1.3-1.3,2-3,1.6c-1.4-0.3-2.6-0.9-3.4-1.8c-0.8-0.9-1.6-1.8-2.3-2.8C142.8,313.7,142.6,313.4,142.3,313z
	 M145.2,307.3c0-1.3-1.5-2.5-3.2-2.4c-1.7,0-3,1.1-3,2.4c0,1.3,1.4,2.5,3,2.5C143.6,309.7,145.3,308.4,145.2,307.3z M241.5,316.5
	c-0.4,0.6-0.8,1.1-1.2,1.6c-0.8,1.1-1.7,2-3,2.8c-0.9,0.5-2,1-3.2,0.5c-1.3-0.5-1.2-1.5-0.8-2.3c0.6-1.7,1.5-3.4,2.2-5.1
	c0.1-0.3,0.3-0.5,0.5-0.9c-0.7,0-1.3-0.1-1.9-0.1c-2-0.1-4-0.4-5.7-1.3c-0.8-0.4-1.5-0.9-2.1-1.4c-0.8-0.7-0.6-1.6,0.4-2.2
	c0.6-0.3,1.4-0.6,2.2-0.7c1.4-0.1,2.8,0,4.2,0.1c0.8,0,1.6,0.2,2.6,0.4c-0.2-0.3-0.3-0.6-0.5-0.7c-1-1.1-1.8-2.4-2-3.7
	c-0.1-0.6-0.1-1.3,0.2-1.9c0.5-1.2,1.9-1.6,3.3-1c0.7,0.3,1.5,0.7,1.9,1.2c0.9,0.9,1.6,1.9,2.4,2.9c0.3,0.4,0.5,0.8,0.9,1.4
	c0.3-0.6,0.5-0.9,0.7-1.3c0.7-1.6,1.7-3,3.2-4.3c0.6-0.5,1.4-1,2.2-1.4c1.3-0.5,2.5-0.2,3.1,0.8c0.5,0.9,0.6,1.9,0.2,2.9
	c-0.5,1.2-1.2,2.5-1.8,3.7c-0.3,0.5-0.6,1-0.9,1.6c1.2,0,2.2,0,3.2,0c2,0,4,0.4,5.8,1c0.4,0.1,0.8,0.3,1.2,0.5c1.8,1,1.7,2.4-0.4,3
	c-1,0.3-2.2,0.6-3.3,0.6c-2,0.1-4.1-0.1-6.2-0.1c-0.2,0-0.4,0-0.7,0c0.1,0.3,0.2,0.6,0.4,0.8c0.7,1.4,1.5,2.9,2.2,4.3
	c0.3,0.7,0.5,1.4,0.4,2.1c0,1.3-1.3,2-3,1.6c-1.4-0.3-2.6-0.9-3.4-1.8c-0.8-0.9-1.6-1.8-2.3-2.8C242,317.2,241.8,316.9,241.5,316.5z
	 M244.4,310.7c0-1.3-1.5-2.5-3.2-2.4c-1.7,0-3,1.1-3,2.4c0,1.3,1.4,2.5,3,2.5C242.7,313.2,244.4,311.9,244.4,310.7z M286.5,316.5
	c-0.4,0.6-0.8,1.1-1.2,1.6c-0.8,1.1-1.7,2-3,2.8c-0.9,0.5-2,1-3.2,0.5c-1.3-0.5-1.2-1.5-0.8-2.3c0.6-1.7,1.5-3.4,2.2-5.1
	c0.1-0.3,0.3-0.5,0.5-0.9c-0.7,0-1.3-0.1-1.9-0.1c-2-0.1-4-0.4-5.7-1.3c-0.8-0.4-1.5-0.9-2.1-1.4c-0.8-0.7-0.6-1.6,0.4-2.2
	c0.6-0.3,1.4-0.6,2.2-0.7c1.4-0.1,2.8,0,4.2,0.1c0.8,0,1.6,0.2,2.6,0.4c-0.2-0.3-0.3-0.6-0.5-0.7c-1-1.1-1.8-2.4-2-3.7
	c-0.1-0.6-0.1-1.3,0.2-1.9c0.5-1.2,1.9-1.6,3.3-1c0.7,0.3,1.5,0.7,1.9,1.2c0.9,0.9,1.6,1.9,2.4,2.9c0.3,0.4,0.5,0.8,0.9,1.4
	c0.3-0.6,0.5-0.9,0.7-1.3c0.7-1.6,1.7-3,3.2-4.3c0.6-0.5,1.4-1,2.2-1.4c1.3-0.5,2.5-0.2,3.1,0.8c0.5,0.9,0.6,1.9,0.2,2.9
	c-0.5,1.2-1.2,2.5-1.8,3.7c-0.3,0.5-0.6,1-0.9,1.6c1.2,0,2.2,0,3.2,0c2,0,4,0.4,5.8,1c0.4,0.1,0.8,0.3,1.2,0.5c1.8,1,1.7,2.4-0.4,3
	c-1,0.3-2.2,0.6-3.3,0.6c-2,0.1-4.1-0.1-6.2-0.1c-0.2,0-0.4,0-0.7,0c0.1,0.3,0.2,0.6,0.4,0.8c0.7,1.4,1.5,2.9,2.2,4.3
	c0.3,0.7,0.5,1.4,0.4,2.1c0,1.3-1.3,2-3,1.6c-1.4-0.3-2.6-0.9-3.4-1.8c-0.8-0.9-1.6-1.8-2.3-2.8C287,317.2,286.8,316.9,286.5,316.5z
	 M289.4,310.7c0-1.3-1.5-2.5-3.2-2.4c-1.7,0-3,1.1-3,2.4c0,1.3,1.4,2.5,3,2.5C287.7,313.2,289.4,311.9,289.4,310.7z M151,239.5
	c0.8,0,1.6,0.6,2.4,1.9c1,12.7,1.8,27.5,2.4,44.3h0.8c-0.7,2-1.5,3.1-2.4,3.1h-2.4c-1.8,0-3.1-3.5-4-10.5v-27.1
	c-2.1,0-4.3,6-6.4,17.9h-1.6c-4.6,0-8.8-4.7-12.7-14.1h-1.6c0.5,7.6,0.8,13.1,0.8,16.6v11.7c0,3-0.8,4.7-2.4,4.9h-0.8
	c-3.7,0-5.6-1.9-5.6-5.6v-30.2c0-2.4-0.3-5.7-0.8-9.9c0.8-1.6,1.6-2.4,2.4-2.4h0.8c4.8,0,10.1,6.2,15.9,18.5h0.8
	c5-12.1,8.7-18.4,11.1-19.1H151z M155.9,240.2l2.1-0.6c3.3,0.4,8.6,5.5,16,15.2c0.6-0.8,3.8-5.7,9.4-14.7l3.4,0.7
	c0.7,0,1.5,0.5,2.4,1.5c-8,8.8-12,17.3-12.3,25.4c0,1.9-0.3,6.4-0.8,13.4l0.8,3.5c-0.9,2.7-1.9,4.1-3,4.1h-1.5c-2-0.5-3-2.3-3-5.3
	V280c0-5.1,0.3-11.8,0.8-19.9c-9.6-10.9-14.3-17.2-14.3-18.7V240.2z M232.7,254.4v3.7c0,4.3,0.2,10.1,0.6,17.4
	c-2.1,8.9-6.1,13.3-11.8,13.3c-10.3,0-15.4-5-15.4-15.1v-2.8c0-20.5,2.8-30.7,8.3-30.7c0-0.3,1-0.4,3-0.4
	C226,239.7,231.1,244.6,232.7,254.4z M217.3,282.4h3.6c1.4,0,2.4-1.7,2.9-5.1v-25.7c0-4-1.2-6.4-3.6-7.3h-0.6c-4,0-5.9,9.5-5.9,28.4
	C213.7,279.1,214.9,282.4,217.3,282.4z M267.2,242c-0.5,11.2-0.8,20.5-0.8,28v3.7c0,3.3-0.3,7.1-0.8,11.5l0.8,1.2
	c-0.8,1.6-1.6,2.4-2.4,2.4h-1.6c-2.1-0.6-3.2-2.4-3.2-5.5v-12.2c0-0.9-3.6-5.8-11-14.6h-0.8v21.9c0,1.6-0.5,4.3-1.6,7.9h-2.4
	c-2.1-0.7-3.1-2.1-3.1-4.2v-32.8c0-1.7-0.3-3.9-0.8-6.7l2.4-2.4c3.4,0,8.7,6.7,15.7,20.1l1.6,0.6h0.8v-0.6c0-3.4,0.3-8.5,0.8-15.2
	l-0.8-3c0.5-1.6,1.8-2.4,3.9-2.4C265.8,239.9,266.8,240.7,267.2,242z M278.5,239.9c3.2,0,4.8,7.9,4.8,23.8c0,1.9-0.3,8.2-0.8,18.9
	l1.6,0.6h10.2l5.5,1.2v0.6c0,2-3.9,3.2-11.8,3.7h-7.9c-3.2-1.3-4.8-3.5-4.8-6.7v-31.1c0-6.1-0.5-9.2-1.6-9.2
	c0.5-0.8,0.8-1.4,0.8-1.8H278.5z M290.1,240.2l2.1-0.6c3.3,0.4,8.6,5.5,16,15.2c0.6-0.8,3.8-5.7,9.4-14.7l3.4,0.7
	c0.7,0,1.5,0.5,2.4,1.5c-8,8.8-12,17.3-12.3,25.4c0,1.9-0.3,6.4-0.8,13.4l0.8,3.5c-0.9,2.7-1.9,4.1-3,4.1h-1.5c-2-0.5-3-2.3-3-5.3
	V280c0-5.1,0.3-11.8,0.8-19.9c-9.6-10.9-14.3-17.2-14.3-18.7V240.2z M105.5,255.3c-5.4-9.6-24.4-2.3-26.3,8.7
	c-2.5-5.6-14.7-14.8-22.7-12.2c-8.9,2.9-5.3,11.5-2.5,17c5.6,10.9,17.6,21.8,31.2,26.3c0.4,1.5,8.4-10.6,11.3-14.9
	C101.8,272.5,110.1,263.5,105.5,255.3z M379.6,259.6c-5.4-9.6-24.4-2.3-26.3,8.7c-2.5-5.6-14.7-14.8-22.7-12.2
	c-8.9,2.9-5.3,11.5-2.5,17c5.6,10.9,17.6,21.8,31.2,26.3c0.4,1.5,8.4-10.6,11.3-14.9C375.8,276.8,384.1,267.7,379.6,259.6z"/>
</svg>
