<?xml version="1.0" encoding="utf-8"?>
<!-- Generator: Adobe Illustrator 18.0.0, SVG Export Plug-In . SVG Version: 6.00 Build 0)  -->
<!DOCTYPE svg PUBLIC "-//W3C//DTD SVG 1.1//EN" "http://www.w3.org/Graphics/SVG/1.1/DTD/svg11.dtd">
<svg version="1.1" id="Layer_1" xmlns="http://www.w3.org/2000/svg" xmlns:xlink="http://www.w3.org/1999/xlink" x="0px" y="0px"
	 viewBox="0 0 432 432" enable-background="new 0 0 432 432" xml:space="preserve">
<path fill="#333333" d="M329.1,135.5l-2.1-0.4l0.4-5v-0.8l2.1-0.4h2.9c1.4,0.7,2.1,1.8,2.1,3.3v0.8c-1,1.7-2.2,2.5-3.7,2.5H329.1z
	 M227.4,61.7c0.6-0.9,1.1-1.6,1.4-2.2c1.4-2.6,2.5-5,3.4-7.2c0.9-2.2,1.6-4.5,2.2-7c0.1-0.4,0.1-0.9,0.3-1.6
	c0.1-0.6,0.2-1.2,0.2-1.8c0-0.6,0-1.1,0-1.7c-0.1-0.5-0.2-0.9-0.4-1.1c-0.3,0.3-0.6,0.6-0.8,0.8c-0.2,0.2-0.4,0.5-0.5,0.7
	c-0.5,0.8-1,1.6-1.5,2.4c-0.5,0.8-1,1.6-1.4,2.4c-1.6,3.2-2.8,5.9-3.6,8.3c-0.9,2.4-1.5,4.4-2,6.1c-0.4,1.7-0.7,3.1-0.9,4.3
	c-0.1,1.2-0.3,2.1-0.4,2.8c1-1.1,1.7-2,2.3-2.8C226.1,63.4,226.7,62.6,227.4,61.7z M207.9,53.2c0.5-1.4,1-2.9,1.4-4.3
	c0.4-1.4,0.7-2.7,0.9-3.9c0.2-1.2,0.4-2.2,0.4-3c0.1-0.8,0.1-1.4,0-1.6c-0.8,0.5-1.6,1.7-2.6,3.4c-0.9,1.8-1.8,3.8-2.7,6
	c-0.9,2.3-1.7,4.6-2.4,7.1c-0.7,2.5-1.2,4.7-1.4,6.8c0.7-0.8,1.7-2.2,3-4.1C205.9,57.8,207,55.6,207.9,53.2z M309.1,250.2
	c0.2,2.5,0.5,4.9,0.9,7.2c0.4,2.3,0.9,4.7,1.7,7.1c0.4,2,1.2,4,2.3,6c0.6,1.4,1.4,2.6,2.3,3.5c0.9,0.9,1.2,1.4,1.1,1.5
	c0.7-1.2,1.1-2.2,1.5-3.1c0.9-2.1,1.4-4.1,1.7-6.2c0.3-2.1,0.3-4.2,0.2-6.3c-0.3-6.4-1.4-12.5-3.3-18.2c-1.9-5.7-4.5-11.4-7.7-16.9
	c-0.1-0.2-0.5-0.6-1.1-1.3c0,0.5,0,1-0.1,1.4c-0.1,0.4-0.1,0.8-0.1,1.2c-0.2,4-0.3,8-0.2,12C308.4,242.2,308.7,246.2,309.1,250.2z
	 M313.8,195.7c1.1-1.7,2.3-3.7,3.7-6c1.4-2.3,2.7-4.8,4.1-7.3c1.4-2.5,2.4-4.7,3.2-6.6c1.1-2.6,2.1-5.2,2.9-7.7
	c0.9-2.5,1.6-5.2,2.1-8c0.3-1.3,0.5-2.6,0.5-3.8c0-1.2-0.3-2.7-1-4.5c-0.5,0.5-1.1,1.2-1.6,1.9c-0.5,0.7-1,1.4-1.5,2
	c-1.5,2.5-3,5.2-4.4,8.1c-1.4,2.9-2.6,5.8-3.6,8.6c-2.7,7.9-4.4,14-5,18.3c-0.7,4.3-1.1,6.9-1.3,7.7
	C312.1,198.2,312.7,197.3,313.8,195.7z M229.4,211c-2-2.7-3.8-5.5-5.3-8.3c-0.3,0.3-0.5,0.5-0.5,0.6c-1.8,5.1-3,10.2-3.4,15.2
	c-0.4,5-0.1,10.2,1.1,15.4c0.4,1.6,1,3.2,1.6,4.6c0.7,1.5,1.6,2.8,2.8,4c1.2-0.4,2.2-1,2.9-1.6c0.8-0.7,1.6-1.6,2.4-2.8
	c1.2-2,2.2-4,2.9-6.1c0.8-2.1,1.4-4.2,1.9-6.4c0.3-1.7,0.6-3.2,0.8-4.4c0.2-1.2,0.3-2.7,0.3-4.5C234,215.6,231.4,213.7,229.4,211z
	 M272.9,195.7c1.1-1.7,2.3-3.7,3.7-6c1.4-2.3,2.7-4.8,4.1-7.3c1.4-2.5,2.4-4.7,3.2-6.6c1.1-2.6,2.1-5.2,2.9-7.7
	c0.9-2.5,1.6-5.2,2.1-8c0.3-1.3,0.5-2.6,0.5-3.8c0-1.2-0.3-2.7-1-4.5c-0.5,0.5-1.1,1.2-1.6,1.9c-0.5,0.7-1,1.4-1.5,2
	c-1.5,2.5-3,5.2-4.4,8.1c-1.4,2.9-2.6,5.8-3.6,8.6c-2.7,7.9-4.4,14-5,18.3c-0.7,4.3-1.1,6.9-1.3,7.7
	C271.1,198.2,271.8,197.3,272.9,195.7z M268.2,250.2c0.2,2.5,0.5,4.9,0.9,7.2c0.4,2.3,0.9,4.7,1.7,7.1c0.4,2,1.2,4,2.3,6
	c0.6,1.4,1.4,2.6,2.3,3.5c0.9,0.9,1.2,1.4,1.1,1.5c0.7-1.2,1.1-2.2,1.5-3.1c0.9-2.1,1.4-4.1,1.7-6.2c0.3-2.1,0.3-4.2,0.2-6.3
	c-0.3-6.4-1.4-12.5-3.3-18.2c-1.9-5.7-4.5-11.4-7.7-16.9c-0.1-0.2-0.5-0.6-1.1-1.3c0,0.5,0,1-0.1,1.4c-0.1,0.4-0.1,0.8-0.1,1.2
	c-0.2,4-0.3,8-0.2,12C267.5,242.2,267.7,246.2,268.2,250.2z M392.2,168.7c0.9-0.1,0.9-1.4,0-1.4c-0.1,0-0.2,0-0.3,0
	C391.2,167.6,391.2,168.8,392.2,168.7z M332,121c0-9.4-0.8-14.1-2.5-14.1h-0.4c-0.4,0-0.8,0.4-1.2,1.2v17h0.8
	C330.9,123.9,332,122.5,332,121z M236.4,199c-0.5-1.9-1.1-3.9-1.9-5.8c-0.8-1.9-1.7-3.8-2.8-5.5c-0.9,1.6-1.3,3.5-1.3,5.8
	c0,2.2,0.3,4.4,0.8,6.5c0.5,2.1,1.4,4,2.4,5.7c1.1,1.7,2.3,2.8,3.7,3.5c0.1-1.3,0.1-2.8-0.1-4.5C237.2,202.8,236.9,200.9,236.4,199z
	 M172.2,71.1c1.9-0.2,3.4-0.5,4.6-0.8c0.6-3.3,1.3-6.6,2.2-9.9c0.9-3.2,1.6-6.5,2.2-9.9c-3.1,3-5.8,6.2-8.1,9.5c-2.3,3.3-4.3,7-6,11
	C168.6,71.3,170.3,71.3,172.2,71.1z M352.5,212c0.9-0.5,1.6-1.3,2.3-2.3c0.9-1.2,1.5-2.5,1.9-3.8c0.4-1.4,0.7-2.7,0.9-4.1
	c0.2-1.8-0.1-3.6-0.8-5.4c-1.8,2.6-3.4,5.2-4.7,7.8c-1.3,2.6-2.3,5.4-3.1,8.3C350.4,212.7,351.6,212.5,352.5,212z M232.5,355.1
	c0.6-0.9,1.2-1.9,1.9-3.1c0.7-1.2,1.4-2.5,2.1-3.8c0.7-1.3,1.2-2.4,1.6-3.4c0.6-1.3,1.1-2.7,1.5-4c0.4-1.3,0.8-2.7,1.1-4.1
	c0.2-0.7,0.3-1.3,0.3-2s-0.2-1.4-0.5-2.3c-0.3,0.3-0.6,0.6-0.8,1c-0.3,0.4-0.5,0.7-0.8,1c-0.8,1.3-1.5,2.7-2.3,4.2
	c-0.7,1.5-1.3,3-1.8,4.4c-1.4,4.1-2.3,7.2-2.6,9.4c-0.3,2.2-0.6,3.5-0.7,4C231.6,356.5,231.9,356,232.5,355.1z M229.8,369.5
	c0,0.3,0,0.5,0,0.7c0,0.2,0,0.4,0,0.6c-0.1,2.1-0.1,4.1-0.1,6.2c0.1,2.1,0.2,4.1,0.4,6.2c0.1,1.3,0.3,2.5,0.5,3.7
	c0.2,1.2,0.5,2.4,0.9,3.6c0.2,1,0.6,2,1.2,3.1c0.3,0.7,0.7,1.3,1.2,1.8c0.4,0.5,0.6,0.7,0.6,0.8c0.3-0.6,0.6-1.1,0.8-1.6
	c0.4-1.1,0.7-2.1,0.9-3.2c0.1-1.1,0.2-2.1,0.1-3.3c-0.2-3.3-0.7-6.4-1.7-9.4c-1-3-2.3-5.9-4-8.7C230.3,370,230.1,369.8,229.8,369.5z
	 M209,353.8c-1.6-0.8-3-1.8-4.1-3.1c-1.1-1.2-2-2.6-2.7-4.3c-0.7-1.6-1.2-3.4-1.6-5.3c-0.3,0.6-0.6,1.1-0.8,1.6
	c-0.3,0.5-0.6,1-0.8,1.6c-0.9,1.9-1.6,3.8-2.2,5.8c-0.6,2-1,4-1.3,6c-0.4,2.6-0.6,5.1-0.6,7.6c0,2.5,0.3,5,0.9,7.5
	c0.3,1.3,0.8,2.5,1.3,3.8c0.5,1.2,1.1,2.4,1.9,3.5c0.4,0.6,0.9,1.2,1.5,1.8c0.6,0.6,1.2,1,1.9,1.4c1.3,0.7,2.6,0.8,3.8,0.2
	c0.7-0.3,1.4-0.7,2-1.2c0.6-0.4,1.1-1,1.6-1.6c0.5-0.8,1-1.5,1.4-2.3c0.4-0.8,0.8-1.5,1.2-2.3c1-2.5,1.6-5,1.9-7.6
	c0.3-2.5,0.4-5.1,0.5-7.8c0.1-0.6,0.1-1.2,0-1.8c-0.1-0.6-0.1-1.2-0.1-1.8C212.5,355.2,210.6,354.6,209,353.8z M207.2,346.9
	c0.7,1.1,1.4,2.1,2.3,2.9s1.7,1.5,2.6,1.9c0.9,0.5,1.6,0.7,2.3,0.8c-0.2-1.8-0.4-3.4-0.8-4.8c-0.4-1.4-0.8-3-1.3-4.6
	c-0.3-1.1-0.6-2.1-1.1-3.1c-0.4-1-1-2-1.7-2.9c-0.3-0.4-0.6-0.7-0.9-1c-0.3-0.3-0.6-0.7-0.9-1c-0.1,0.1-0.3,0.1-0.5,0.1
	c-0.2,0.4-0.4,0.8-0.6,1.1c-0.2,0.4-0.4,0.7-0.5,1.1c-0.6,2-0.7,3.9-0.3,5.8C206,344.4,206.5,345.7,207.2,346.9z M396.8,165.5
	C396.8,165.5,396.8,165.5,396.8,165.5c-0.9-0.3-1.9,0.8-1.2,1.5C396.7,168.3,398.3,166.2,396.8,165.5z M206,105.4
	c-0.6-1.5-1.3-2.3-2-2.5h-2c-2.3,0-3.4,7.6-3.4,22.7c0.3,0,0.5,0.2,0.5,0.5c4.9-0.7,7.4-1.7,7.4-3C206.5,120,206.3,114.1,206,105.4z
	 M390.7,210.9c2.2-2.3,3.7-4.6,4.5-7.1c0.8-2.4,1.2-5.2,1.2-8.4c0-0.5,0-1.1-0.1-1.5c-0.1-0.5-0.2-0.9-0.6-1.4
	c-1.1,0.8-2.3,2-3.6,3.8c-1.3,1.8-2.5,3.8-3.7,6c-1.1,2.2-2.1,4.4-2.9,6.7c-0.8,2.2-1.3,4.1-1.4,5.6c1.2-0.2,2.4-0.7,3.6-1.4
	C388.9,212.5,389.9,211.7,390.7,210.9z M207.7,304.6c-0.3-8.6-1.1-12.9-2.5-12.9H204c-0.7,0-1.1,0.7-1.3,2.1c0,3.6,0.1,7,0.4,10
	c-0.3,4.7-0.4,10-0.4,15.8v1.3h0.8C206.3,320.8,207.7,315.4,207.7,304.6z M165,288h-2c-2.4,0-3.6,7.8-3.6,23.4
	c0.3,0,0.5,0.2,0.5,0.5c5.1-0.8,7.6-1.8,7.6-3c0-3.3-0.2-9.4-0.5-18.3C166.4,289,165.7,288.1,165,288z M239.8,290.5
	c-0.7-1.6-1.3-2.4-2-2.6h-2c-2.4,0-3.6,7.8-3.6,23.4c0.3,0,0.5,0.2,0.5,0.5c5.1-0.8,7.6-1.8,7.6-3
	C240.3,305.6,240.2,299.4,239.8,290.5z M342.4,74.9c0.5-0.3,0.9-0.7,1.3-1.3c0.5-0.7,0.8-1.4,1-2.1c0.2-0.7,0.4-1.5,0.5-2.3
	c0.1-1,0-2-0.4-3c-1,1.4-1.9,2.9-2.6,4.3c-0.7,1.4-1.3,3-1.7,4.6C341.3,75.3,342,75.2,342.4,74.9z M369.9,351.2
	c-0.9,1.2-1.3,2.5-1.3,3.9c0,1.4,0.5,2.6,1.5,3.6c0.8-1.4,1.2-2.9,1.1-4.2C371.2,353,370.8,351.9,369.9,351.2z M364.9,168.2
	c-1.3-0.7-3.6,1.6-1.8,2.5C364.7,171.6,366.5,169.1,364.9,168.2z M367.3,181.8c-1.2-0.2-2.2,3-0.3,2.6
	C368.1,184.3,368.6,182,367.3,181.8z M369,170C369,170,369,170,369,170c-0.9,0.1-1,1.2-0.3,1.5C370.1,172,370.1,170,369,170z
	 M371.7,374.7c-1.1,0.9-2,2-2.8,3c-0.7,1.1-1.3,2.3-1.6,3.6c-0.2,0.9-0.3,1.9-0.3,2.8c0,0.9,0.3,1.8,0.7,2.7c0.3,0.6,0.6,1,1,1.4
	c0.4,0.4,0.9,0.7,1.5,0.9c0.3-0.3,0.5-0.5,0.8-0.8c0.2-0.2,0.4-0.5,0.6-0.8c0.4-0.7,0.8-1.4,1-2.2c0.2-0.8,0.4-1.6,0.5-2.3
	c0.2-1.5,0.1-2.9-0.2-4.2C372.6,377.5,372.2,376.1,371.7,374.7z M400.4,167.3c0.5,0.4,1.2,0.7,1.7,0.3c0.9-0.6,0.2-1.9-0.6-2.2
	c-1.2-0.5-2.2,0.7-1.3,1.7C400.3,167.2,400.4,167.2,400.4,167.3z M403.1,59.7c0.5-1.6,1-3.2,1.3-4.7c0.2-1,0.5-2.2,0.7-3.4
	c0.2-1.3,0.4-2.6,0.6-4.1c0.1-1.4,0.3-2.9,0.3-4.4c0.1-1.5,0-2.9-0.1-4.3c-0.3,0.5-0.6,1.1-1,2c-0.4,0.8-0.8,1.7-1.1,2.7
	c-0.4,1-0.7,1.9-1,2.9c-0.3,1-0.5,1.9-0.7,2.6c-0.7,2.7-1.2,5.4-1.5,7.9c-0.3,2.5-0.6,5.2-0.9,8.1c0,0.7,0,1.3,0,1.8
	c0,0.6,0,1.2,0,1.8c0.8-1.7,1.4-3.2,1.9-4.5C402,62.8,402.6,61.3,403.1,59.7z M323.5,374.7c-1.1,0.9-2,2-2.8,3
	c-0.7,1.1-1.3,2.3-1.6,3.6c-0.2,0.9-0.3,1.9-0.3,2.8c0,0.9,0.3,1.8,0.7,2.7c0.3,0.6,0.6,1,1,1.4c0.4,0.4,0.9,0.7,1.5,0.9
	c0.3-0.3,0.5-0.5,0.8-0.8c0.2-0.2,0.4-0.5,0.6-0.8c0.4-0.7,0.8-1.4,1-2.2c0.2-0.8,0.4-1.6,0.5-2.3c0.2-1.5,0.1-2.9-0.2-4.2
	C324.4,377.5,324,376.1,323.5,374.7z M426.4,45.9c-1,106.5-1.7,213-2.2,319.5c0,9.2-4.4,14.7-11.5,18.9
	c-17.5,10.3-37,14.6-56.7,17.5c-57.3,8.3-114.5,8.3-171-6.5c-8.9-2.3-17.5-6.4-25.9-10.5c-8.9-4.3-13.4-11.5-12.9-21.9
	c0.5-11.7,0.1-23.5,0.1-34.3c-13.8,0-26.2,0.1-38.5,0c-46.2-0.3-79.3-23.5-93-67.6c-12.7-40.7-12.1-81.8,2.3-122
	c13.2-36.8,43.5-57.3,82.7-57.9c14.5-0.2,29,0,44.5,0c0-11.6,0.8-23.1-0.2-34.4c-0.8-9.5,3.4-13.4,11.7-14.6
	c18.2-2.5,36.5-6.6,54.8-7c49.9-1,99.8-1,149.6,0c18.6,0.4,37.1,4.4,55.7,7.1C423.2,33.5,426.5,37.4,426.4,45.9z M332.9,85
	c0.2,1,0.6,2,1,2.9c0.4,0.9,1.1,1.7,1.8,2.5c1,0.9,2.1,1.6,3.4,2.1c1.3,0.5,2.6,0.7,4,0.7c1.4,0,2.7-0.3,4-0.9
	c1.3-0.6,2.4-1.6,3.4-3c0.2-0.2,0.3-0.4,0.5-0.6c0.1-0.2,0.3-0.5,0.5-0.7c0.7,2.1,2,4,3.9,5.6c1.9,1.6,4,2.4,6.5,2.6
	c2.4,0.1,4.7-0.5,6.6-1.8c0.9-0.7,1.7-1.4,2.5-2.3c0.8-0.9,1.5-1.8,2.2-2.6c0.7-1,1.4-1.9,2-2.9c0.1,0.7,0.1,1.3,0.2,1.9
	c0.3,1.4,0.6,2.4,0.8,3c0.7,1.5,1.8,2.6,3.4,3.4c1.5,0.8,3.2,1.2,4.9,1.2c2.7,0.1,5-0.8,6.6-2.8c0.2-0.3,0.5-0.8,0.9-1.4
	c0.4-0.6,0.7-1.3,1-1.9c0.3-0.7,0.6-1.3,0.9-1.8c0.3-0.5,0.5-0.9,0.6-1c0.1,1,0.3,1.9,0.5,2.5s0.4,1.3,0.7,1.8
	c0.6,1.3,1.3,2.4,2.2,3.3c0.9,0.9,1.9,1.5,2.9,1.8c1,0.3,2.2,0.3,3.3-0.1c1.2-0.4,2.3-1.2,3.4-2.5c1-1.1,1.7-2.3,2.4-3.4
	c0.6-1.1,1.3-2.4,1.9-3.8c1-1.8,1.9-3.9,2.9-6.3c1-2.4,1.8-4.5,2.4-6.5c0.1-0.2,0.1-0.5,0.1-0.9c-0.1-0.4-0.3-0.7-0.8-0.9
	c-0.8-0.1-1.3,0-1.6,0.4c-0.3,0.4-0.5,0.7-0.6,1c-0.8,2-1.7,4.1-2.7,6.3c-1,2.2-2,4.3-2.9,6.2c-0.7,1.4-1.4,2.8-2.2,4.1
	c-0.8,1.3-1.8,2.1-3,2.4c-0.6-0.1-1.1-0.7-1.6-1.8c-0.4-1.1-0.8-2.4-1.2-3.8c-0.3-1.4-0.6-2.9-0.8-4.3c-0.2-1.5-0.3-2.6-0.3-3.5
	c0-0.2,0-0.5,0.1-0.7c0.1-0.2,0.1-0.5,0.2-0.7c0.7-1.5,1.3-3,1.9-4.4c0.6-1.5,1.2-3,1.7-4.5c0.7-2,1.4-3.9,2-5.6
	c0.6-1.7,1.1-3.4,1.6-5.1c0.4-1.7,0.8-3.4,1.2-5.2c0.3-1.8,0.6-3.7,0.8-5.9c0.1-0.4,0.1-1,0.1-1.8c0-0.8,0.1-1.7,0.1-2.6
	c0-0.9,0-1.7,0-2.5c0-0.8-0.1-1.4-0.2-1.9c-0.3-1.6-1.3-2.2-3-2.1c-1.3,0.1-2.5,0.6-3.5,1.6c-1,0.9-1.9,2-2.6,3.3
	c-0.7,1.3-1.4,2.6-1.9,3.9c-0.5,1.3-0.9,2.6-1.2,3.6c-0.7,2.5-1.3,5-1.7,7.6c-0.4,2.5-0.8,5.1-1.2,7.6c-0.1,0.2-0.1,0.6-0.2,1.2
	c-0.1,0.6-0.1,1-0.2,1.1c-1.6-0.9-3-1.4-4.3-1.6c-1.3-0.1-2.5,0-3.6,0.4c-1.1,0.4-2.1,1-3,1.8c-0.9,0.8-1.7,1.7-2.5,2.8
	c-1.7,2.3-2.8,4.5-3.6,6.7c-0.6,1.2-1.2,2.4-1.8,3.6c-1,2-2.1,3.9-3.4,5.9c-0.7,1.1-1.4,2.2-2.2,3.2c-0.8,1.1-1.7,2-2.7,2.9
	c-0.5,0.4-0.9,0.7-1.4,1c-0.4,0.3-0.9,0.5-1.5,0.7c-0.5,0.2-1,0.1-1.3-0.3c-0.8-0.7-1.5-1.5-2.1-2.4c-0.6-0.9-1-1.8-1.2-2.8
	c-0.4-1.6-0.5-3.2-0.3-4.8c0.1-1.6,0.4-3.3,0.8-4.9h0.7h0.6c3.5-0.3,6.1-1.8,7.8-4.4c1.3-2.2,2.1-4.5,2.4-7.2c0-0.4,0-0.7,0-1.1
	c0-0.4,0-0.7-0.1-1.1c-0.2-1.7-1.2-2.7-3-3c-1.7-0.4-3.5-0.2-5.2,0.4c-0.9,0.4-1.7,0.8-2.5,1.4c-0.8,0.6-1.5,1.3-2.2,2
	c-0.9,1-1.7,2-2.4,3c-0.7,1-1.3,2.1-1.8,3.3c-1,1.9-1.7,3.9-2.2,5.9c-0.5,2-0.8,4-0.7,6.1c-1.7,3-3.1,5-4.4,6.1
	c-0.5,0.4-1.1,0.7-1.7,0.9c-0.6,0.2-1.2,0.1-1.7-0.3c-1-0.8-1.8-1.8-2.2-3c-0.6-1.4-1-2.7-1.1-4.1c-0.1-1.3-0.1-2.7,0.1-4.2
	c0.1-0.4,0.1-0.7,0.1-1.1c0-0.4,0.1-0.7,0.2-1.1h1.8c1.6-0.1,2.9-0.6,3.9-1.4c1-0.8,1.8-1.9,2.3-3.3c0.8-2.3,1-4.4,0.6-6.5
	c-0.2-0.8-0.5-1.4-0.9-1.8c-0.4-0.4-1.1-0.6-2-0.7c-2.5-0.2-4.7,0.6-6.6,2.2c-0.7,0.5-1.2,1.1-1.7,1.8c-0.5,0.7-1,1.3-1.5,2
	c-1.6,2.5-2.6,5-3.2,7.6C332.2,79.4,332.2,82.1,332.9,85z M402.7,125.7v-17.7c0-0.5,0.3-0.8,0.9-0.9h4.1l2.3-0.5v-0.9
	c0-0.9-2.1-1.7-6.4-2.3c-3.9,0-5.9,0.7-5.9,2.3c0.3,0,0.5,0.2,0.5,0.5c0,6-0.3,15.1-0.9,27.3c0,2.2,0.9,3.8,2.7,5h0.9
	c0.6,0,1-0.9,1.4-2.7c0-0.2-0.1-2.2-0.4-5.9c3.9-0.5,5.9-1.3,5.9-2.3C407.7,126.8,406.1,126.2,402.7,125.7z M374.6,174.4
	c-0.1-2-1.7-3.1-2.9-4.3c-1.6-1.5-3-2.9-5-3.9c-3.3-1.7-7.5-1.8-7.7,2.8c-0.1,3.2,1.6,4.4,4.6,4.3c2-0.1,4-0.2,6,0
	C371.1,173.6,373.1,175.1,374.6,174.4z M373.9,178.7c-1.3-1.8-6.6-0.4-8,0.7c-1.9,1.5-3.7,6-1.3,7.7c2.6,1.8,4.1-0.3,5.3-2.4
	c0.6-1.1,1.1-2.2,1.9-3.2C372.4,180.6,374.7,179.8,373.9,178.7z M356.1,110.1v10.2c0,3.3-0.1,7.6-0.4,12.8c0.7,3.6,1.6,5.3,2.6,5.3
	h0.9c0.9-0.2,1.3-1.4,1.3-3.5V111c0-0.7,0.1-1.2,0.4-1.8c4.1-1.3,6.2-2.3,6.2-3.1c-0.7-1.2-2.2-1.8-4.4-1.8
	c-9.5,0-14.2,0.6-14.2,1.8v1.3C353.6,108.7,356.1,109.6,356.1,110.1z M377.9,171.1c2,0.3,0.2-6.1,0-7c-0.6-3.4-0.8-6.8-0.7-10.3
	c0.1-4.6,0.5-11.6-4.1-14.6c-5.2-3.3-5.4,4.1-4.9,8.1c0.5,4.7,1.7,9.3,3.4,13.6c0.8,2.1,1.8,4.2,2.9,6.2
	C375.2,168.3,376.5,170.8,377.9,171.1z M393.5,116.3v-2.6c-0.9-7-3.8-10.6-8.6-10.6c-1.1,0-1.7,0.1-1.7,0.3c-3.1,0-4.6,7.4-4.6,22.2
	v2c0,7.3,2.9,10.9,8.6,10.9c3.2,0,5.4-3.2,6.6-9.6C393.6,123.6,393.5,119.4,393.5,116.3z M376.6,179.7c0.4,2.1,3.1,3,4.9,3.1
	c3.6,0.2,5.8-2.7,5.3-6.2C386,170.4,375.5,174.1,376.6,179.7z M388.8,158.4c2.5-3.5,9.9-7.9,6.8-11.8c-7-8.5-11.7,8-12.7,12.7
	c-0.4,2-0.7,4-0.8,6.1c0,1-0.2,2.1-0.1,3c0.1,0.8,0.5,1.8,1.3,1.1c0.6-0.5,1-2.7,1.3-3.5C385.7,163.4,387.1,160.8,388.8,158.4z
	 M388.9,171.9c1.4-0.6,2.5-1.5,4-1.9c1-0.3,2.1-0.5,3.1-0.6c1.7-0.1,3.8-0.1,5.4,0.2c1.1,0.2,2.3,1,3.5,0.4c0.4-0.2,0.7-0.6,0.9-1
	c0.5-1.5-0.5-3.8-1.2-4.7c-1.5-1.6-3.8-1.9-5.9-1.7c-4.2,0.5-8.8,2.9-11,6.6C386.8,170.7,386.4,172.9,388.9,171.9z M343.7,104.7
	h-1.4c-0.5,0-0.9,0.6-1.4,1.8h0.4c0,4.6,0.2,9.9,0.5,16c0,10.7,1.1,16,3.2,16c1.2-0.9,1.8-1.8,1.8-2.7
	C346.9,115.1,345.8,104.7,343.7,104.7z M324.3,107.4l-0.8,26.5c0,2.3,2.3,3.9,7,4.6c4,0,6.9-1.8,8.7-5.4c0-2.2-1.5-4.6-4.6-7v-0.4
	c1.4-1.7,2.1-3.5,2.1-5.4c0-2.8-0.1-5.1-0.4-6.6c0-6.3-2.6-9.5-7.9-9.5c-2.5,0-4,0.8-4.6,2.5L324.3,107.4z M287.8,69.8
	c0,2.3,0.1,4.6,0.4,6.9c0.2,2.4,0.7,4.6,1.3,6.7c0.5,1.7,1,3.3,1.6,4.9c0.6,1.6,1.4,3.1,2.6,4.4c0.8,0.8,1.5,1.4,2.3,1.7
	c0.7,0.3,1.7,0.3,2.7,0.1c0.6-0.1,1-0.3,1.1-0.5c0.1-0.2,0.2-0.7,0-1.3c-0.2-0.7-0.4-1.4-0.5-2.2c-0.2-0.7-0.4-1.4-0.6-2.1
	c-0.2-0.6-0.4-1.2-0.5-1.8c-0.1-0.6-0.1-1.2,0-1.9c0.2-1.3,0.4-2.6,0.5-3.9c0.2-1.3,0.4-2.6,0.7-3.8c0.8-3.9,2-7.8,3.4-11.5
	c1.5-3.7,3.4-7.2,5.8-10.6c1-1.3,2-2.6,3-3.8c1-1.2,2.2-2.3,3.5-3.3c0.7-0.5,1.3-0.9,2-1.3c0.7-0.4,1.5-0.7,2.4-0.9
	c0.5,0.4,0.9,0.9,1.1,1.5c0.2,0.6,0.3,1.3,0.3,2c0,0.7-0.1,1.4-0.2,2c-0.1,0.7-0.2,1.2-0.4,1.5c-0.6,2-1.2,3.9-1.9,5.9
	c-0.7,1.9-1.3,3.9-2,5.8c-0.9,2.7-1.8,5.3-2.8,7.9c-1,2.6-1.9,5.2-2.7,7.9c-0.7,2.2-1.1,4.3-1.4,6.5c-0.3,2.2-0.3,4.4,0,6.7
	c0.3,2.5,1.1,4.6,2.6,6.3c1.4,1.7,3.3,2.9,5.6,3.4c2.3,0.6,4.4,0.5,6.4-0.4c1.9-0.8,3.4-2.4,4.4-4.6c0.5-1,0.8-1.7,0.9-2.3
	c0.1-0.6,0.3-1.4,0.6-2.4c0.2-0.8,0.2-1.9,0.1-3.1c-0.1-1.3-0.4-2.2-0.8-3c-0.6-1-1.6-1.6-2.9-1.7c-1.3-0.1-2.4,0.2-3.3,0.9
	c0.7,1.3,1,2.6,1.1,4.1c0.1,1.5,0,2.9-0.4,4.2c-0.4,1.3-0.9,2.5-1.7,3.5c-0.7,1-1.7,1.7-2.7,2.1c-1.2-0.9-1.9-2-2.2-3.3
	c-0.5-2.1-0.6-4.3-0.3-6.5c0.3-1.9,0.7-3.7,1.3-5.5c0.5-1.8,1.2-3.5,1.9-5.2c1-2.6,2.1-5.1,3.1-7.6c1.1-2.5,2.1-5,3.1-7.6
	c0.7-1.6,1.2-3.2,1.7-4.9c0.5-1.6,0.9-3.3,1.2-5.1c0.5-3,0.1-5.6-1.1-7.8c-1.2-2.2-3.2-3.6-5.9-4.3c-2.3-0.5-4.5-0.5-6.6,0.1
	c-2,0.5-3.7,1.4-5.2,2.6c-1.5,1.2-2.9,2.5-4.1,4.1c-2.3,2.8-4.2,5.8-5.8,8.9c-1.6,3.1-2.9,6.4-3.9,9.8c-0.1,0.5-0.3,0.9-0.4,1.3
	c-0.1,0.4-0.3,0.8-0.4,1.3c-0.3-2.1-0.4-4.2-0.4-6.2c0.1-2,0.2-4.1,0.5-6.1c0.2-1.3,0.4-2.5,0.6-3.7c0.2-1.2,0.3-2.5,0.4-3.7
	c0.1-0.7,0-1.1-0.3-1.4c-0.2-0.3-0.6-0.5-1.2-0.6c-0.5-0.2-1.1-0.2-1.7,0c-0.6,0.2-1.1,0.7-1.6,1.5c-0.8,1.4-1.4,2.6-1.8,3.7
	c-0.4,1.1-0.9,2.3-1.2,3.7c-0.4,1.4-0.7,3.2-0.9,5.2C287.9,65.4,287.8,67.6,287.8,69.8z M304.9,122.4v-15.7c4.6-1.4,7-2.2,7-2.6
	v-0.4c0-0.6-1-1.2-3-1.7l-7,1.7c-1.5,0-2.2,9.3-2.2,27.8c0,4.1,2.5,6.4,7.4,7c0.5,0,2.1-0.3,4.8-0.9v-1.3c0-0.6-1-1.2-3-1.7
	c0,0.3-0.1,0.4-0.4,0.4h-2.6c-0.9-0.4-1.3-0.9-1.3-1.3v-7.4h2.2l3-0.9v-0.9l-0.4-0.9C306.3,123.4,304.9,123,304.9,122.4z M285,105.5
	c0.6,0,0.9,2.1,0.9,6.4v21.8c0,2.2,0.9,3.8,2.6,4.7h4.3c4.3-0.3,6.4-1.2,6.4-2.6v-0.4l-3-0.9h-5.5l-0.9-0.4
	c0.3-7.5,0.4-11.9,0.4-13.3c0-11.1-0.9-16.7-2.6-16.7h-2.1C285.5,104.5,285.3,104.9,285,105.5z M249.2,95c0.1,0.4,0.4,0.7,0.9,1
	c0.5,0.3,1.1,0.4,1.7,0.2c0.6-0.1,1.1-0.4,1.6-0.7c0.8-0.4,1.4-0.7,2-0.9c0.5-0.1,1.1-0.4,1.8-0.7c0.7-0.2,1.3-0.3,2.1-0.3
	c0.7,0,1.4,0.1,2.1,0.2c1.7,0.4,3.6,0.7,5.6,0.9c1.7,0.2,3.5,0,5.3-0.4c1.8-0.4,3.2-1.4,4.3-3c0.3-0.5,0.4-1.1,0.4-1.6
	c-0.1-0.5-0.4-0.9-1.1-1c-0.4-0.1-0.7-0.1-1,0c-0.3,0.1-0.7,0.3-1,0.5c-0.3,0.2-0.7,0.4-1,0.7c-0.4,0.2-0.8,0.4-1.3,0.6
	c-0.7,0.2-1.7,0.4-2.8,0.5c-1.2,0.1-2.1,0.1-2.8,0c-0.8-3.6-1.4-7.2-1.7-10.8c-0.3-3.6-0.4-7.3-0.3-11c0.1-3.7,0.4-7.3,0.9-11
	c0.4-3.6,1-7.2,1.7-10.8c0.4,0.1,0.8,0.1,1.2,0.1c0.4,0,0.8,0,1.1,0c1.6-0.1,2.9-0.3,4-0.6c1.1-0.4,2.1-1,3.1-2.1
	c0.3-0.3,0.4-0.7,0.2-1.1c-0.2-0.4-0.4-0.7-0.7-0.8c-0.8-0.4-1.7-0.4-2.6,0c-0.9,0.3-2.1,0.8-3.4,1.3c-0.7,0.2-1.4,0.4-2.2,0.4
	c-0.8,0-1.5-0.1-2.2-0.5c-2.1-1.1-4.3-1.7-6.7-1.8c-1.1-0.1-2.1-0.1-3.1,0.1c-1,0.2-1.9,0.6-2.8,1.3c-0.5,0.4-0.7,0.7-0.8,1.1
	c-0.1,0.4,0.2,0.6,0.7,0.8c0.5,0.2,1.1,0.2,1.8,0.2c0.7-0.1,1.3-0.1,1.8-0.3c1-0.3,1.8-0.3,2.5,0c0.7,0.3,1.4,0.6,2.2,1.1
	c-2.3,7.2-3.7,14.5-4.3,21.8c-0.6,7.3-0.1,14.6,1.7,21.9c-1,0.2-1.8,0.3-2.5,0.5c-0.7,0.1-1.6,0.4-2.6,0.9c-1,0.3-1.9,1-3,2
	C249.3,94.1,249.1,94.6,249.2,95z M247.6,107.4c5,1.3,7.5,2.2,7.5,2.7v10.2c0,3.3-0.1,7.6-0.4,12.8c0.7,3.6,1.6,5.3,2.6,5.3h0.9
	c0.9-0.2,1.3-1.4,1.3-3.5V111c0-0.7,0.1-1.2,0.4-1.8c2.6-0.8,4.4-1.5,5.3-2.1v0.3c5,1.3,7.5,2.2,7.5,2.7v10.2
	c0,3.3-0.1,7.6-0.4,12.8c0.7,3.6,1.6,5.3,2.6,5.3h0.9c0.9-0.2,1.3-1.4,1.3-3.5V111c0-0.7,0.1-1.2,0.4-1.8c4.1-1.3,6.2-2.3,6.2-3.1
	c-0.7-1.2-2.2-1.8-4.4-1.8c-7.9,0-12.5,0.4-13.8,1.2c-0.8-0.8-2.1-1.2-3.9-1.2c-9.5,0-14.2,0.6-14.2,1.8V107.4z M240,106.6h0.4
	c0,4.6,0.2,9.9,0.5,16c0,10.7,1.1,16,3.2,16c1.2-0.9,1.8-1.8,1.8-2.7c0-20.7-1.1-31.1-3.2-31.1h-1.4
	C240.9,104.7,240.4,105.3,240,106.6z M226.6,111.9v21.8c0,2.2,0.9,3.8,2.6,4.7h4.3c4.3-0.3,6.4-1.2,6.4-2.6v-0.4l-3-0.9h-5.5
	l-0.9-0.4c0.3-7.5,0.4-11.9,0.4-13.3c0-11.1-0.9-16.7-2.6-16.7h-2.1c0,0.3-0.1,0.7-0.4,1.3C226.3,105.5,226.6,107.6,226.6,111.9z
	 M192.5,77.6c0.1,2.3,0.3,4.7,0.8,7c0.2,1.2,0.5,2.3,0.9,3.4c0.3,1,0.8,2.1,1.5,3.1c0.8,1.3,1.8,2.3,3.2,3.1
	c1.3,0.8,2.8,1.3,4.3,1.5c1.5,0.2,3,0,4.4-0.5c1.5-0.5,2.7-1.5,3.8-2.9c0.4-0.5,0.8-1.2,1.3-2c0.5-0.9,1.1-2,1.7-3.3
	c0.6,3.3,2,6.2,4.1,8.8c0.7,0.9,1.6,1.6,2.6,2.1c1,0.5,2.1,0.7,3.2,0.8c1.1,0.1,2.2-0.1,3.3-0.6c1.1-0.4,2.1-1.2,2.9-2.2
	c0.7-0.8,1.4-1.7,2-2.6c0.6-0.9,1.1-1.9,1.6-2.9c1-2,2-4.3,3-6.9c1-2.6,1.7-5.3,2.3-8c0.1-0.7,0.2-1.3,0.2-1.9c0-0.6-0.3-0.9-0.9-1
	c-0.5-0.1-0.9,0-1.1,0.3c-0.3,0.2-0.5,0.5-0.7,0.8c-0.2,0.3-0.3,0.6-0.4,0.9c-0.1,0.3-0.1,0.4-0.1,0.5c-0.7,2.3-1.4,4.7-2.4,7.2
	c-0.9,2.5-1.9,4.8-2.9,7c-0.5,1-1,2-1.6,2.9c-0.6,0.9-1.2,1.8-1.9,2.6c-0.4,0.4-0.7,0.8-1.1,1.1c-0.4,0.3-0.9,0.6-1.4,0.9
	c-0.5-0.5-0.8-1-1.1-1.4c-0.2-0.5-0.4-1-0.6-1.5c-0.5-1.4-0.9-2.8-1.1-4.3c-0.2-1.5-0.4-2.9-0.5-4.4c-0.1-2.1-0.1-4.4,0.1-6.9
	c0.2-2.5,0.4-4.9,0.7-6.9c2.3-2.1,4.2-4.2,5.7-6.4c1.5-2.2,2.6-3.9,3.5-5.3c1.1-1.7,2.1-3.6,2.9-5.7c0.8-2.1,1.4-4,1.9-6
	c0.4-1.9,0.8-3.6,0.9-5.1c0.2-1.5,0.2-2.5,0.1-3.1c-0.1-0.7-0.3-1.4-0.7-2.1c-0.3-0.7-0.8-1.1-1.5-1.2c-1-0.2-2-0.1-3,0.1
	c-1,0.3-1.8,0.7-2.6,1.4c-0.7,0.5-1.4,1.1-2.1,1.7c-0.7,0.6-1.3,1.3-1.8,2c-0.8,1.1-1.6,2.2-2.4,3.3c-0.7,1.1-1.4,2.3-2.1,3.4
	c-1.7,3.2-3.1,6.4-4.2,9.7c-1.1,3.3-2,6.7-2.8,10.2c-0.5,2.1-0.8,4.2-1,6.2c-0.2,2.1-0.3,4.1-0.1,6.2c-0.5,1.3-1,2.6-1.6,4
	c-0.6,1.3-1.2,2.6-1.9,3.8c-0.7,1.2-1.4,2.2-2.2,3.1c-0.8,0.9-1.7,1.6-2.6,2c-0.2,0-0.5-0.1-0.9-0.4c-0.4-0.3-0.6-0.5-0.8-0.6
	c-0.6-0.7-1.1-1.3-1.4-2.1c-0.3-0.7-0.6-1.5-0.9-2.3c-0.8-3-1.2-6-1.3-9c-0.1-3,0-6,0.4-9c0.1-0.5,0.3-0.9,0.6-1.2
	c0.8-0.7,1.6-1.4,2.3-2.2c0.7-0.8,1.3-1.6,1.9-2.5c2.2-3,4.1-6.4,5.6-10.2c1.6-3.7,2.5-7.7,3-12c0.1-1.1,0-2.1-0.4-3
	c-0.4-0.9-1.1-1.4-2.2-1.6c-1.2-0.1-2.3,0-3.4,0.5c-1.1,0.4-2,1-2.7,1.7c-0.7,0.7-1.4,1.4-2.1,2.2c-0.7,0.7-1.3,1.5-1.9,2.4
	c-1.4,1.9-2.6,3.9-3.5,6c-1,2.1-1.8,4.3-2.6,6.5c-0.7,2.3-1.3,4.6-1.6,6.9c-0.4,2.3-0.7,4.7-0.9,7C192.6,73,192.5,75.3,192.5,77.6z
	 M198.6,293.8v27.4h-2.5c-0.5,0-0.7,0.3-0.8,0.8c0,1,1.9,1.8,5.8,2.5c2.5-0.4,4.4-0.9,5.8-1.6c3.6-1.8,5.4-8.4,5.4-20
	c0-0.5-0.3-2.7-0.8-6.6c-1.2-5.3-4-7.9-8.3-7.9c-4.4,0.5-6.7,1.4-6.7,2.5v0.4C196.5,291.4,197.2,292.3,198.6,293.8z M206.5,128.6v3
	c0,4.9,0.7,7.4,2,7.4h0.5c1.6,0,2.6-5.1,3-15.3c-0.3-1.2-0.5-3-0.5-5.4c0-12.8-3-19.3-8.9-19.3c-3.3,0.4-4.9,1.1-4.9,2
	c-3.3,0-4.9,11.2-4.9,33.6c0,1.8,0.8,3,2.5,3.5c1.2,0,2-1.8,2.5-5.4c0-2.6,2.8-3.9,8.4-3.9H206.5z M156.3,69.9
	c0.2,0.3,0.5,0.6,0.8,0.8c0.3,0.2,0.6,0.5,0.9,0.7c0.5,0.3,1,0.6,1.4,0.9c0.5,0.3,1,0.6,1.5,1c-0.2,0.7-0.4,1.4-0.6,2.3
	c-0.4,1.3-0.7,2.6-1,4.1c-0.3,1.5-0.6,3-0.9,4.6c-0.3,1.6-0.5,3.1-0.7,4.7c-0.2,1.5-0.3,2.9-0.4,4.3c-0.1,1.6,0.6,2.3,2,2.3
	c1.6,0,2.4-0.7,2.5-2.1c0.1-0.7,0.2-1.8,0.5-3.4c0.3-1.6,0.6-3.4,1-5.2c0.4-1.9,0.7-3.7,1.1-5.6c0.4-1.9,0.7-3.4,1-4.6
	c1.7,0.5,3.5,0.7,5.2,0.7c1.7,0,3.5-0.2,5.4-0.5c-0.1,1.3-0.2,2.8-0.3,4.6c-0.1,1.8,0,3.7,0.2,5.7c0.2,2,0.5,3.9,0.9,5.9
	c0.4,1.9,1.1,3.7,2,5.2c0.6,1,1.1,1.7,1.7,2.3c0.5,0.6,1.1,1.1,1.7,1.4c0.6,0.3,1.3,0.6,2.1,0.7c0.8,0.1,1.7,0.1,2.8,0
	c1-0.1,1.9-0.4,2.7-0.9c0.9-0.5,1.5-1.3,2-2.3c0.4-0.8,0.5-1.8,0.5-3.1c0-1.3-0.4-2.3-1.2-3c-0.5-0.5-1-0.7-1.7-0.8
	c-0.6-0.1-1.2,0.1-1.7,0.4c-0.4,0.2-0.6,0.4-0.6,0.6c0,0.1,0,0.3,0.1,0.5c0.1,0.2,0.3,0.4,0.5,0.7c0.2,0.3,0.4,0.7,0.5,1.2
	c0.1,1.1,0,1.9-0.4,2.4c-0.4,0.5-0.9,0.7-1.6,0.5c-0.5-0.7-1-1.7-1.3-2.9c-0.4-1.2-0.6-2.5-0.8-3.9c-0.2-1.3-0.3-2.7-0.4-3.9
	c-0.1-1.3-0.1-2.3-0.1-3.2c-0.1-3.9,0.1-7.8,0.8-11.6c0.7-3.8,1.4-7.7,2.2-11.6c0.4-2.1,0.8-4.2,1-6.2c0.3-2.1,0.6-4.1,0.9-6.2
	c0.1-1.1-0.1-2-0.6-2.5c-0.5-0.5-1.3-0.9-2.5-1.1c-2.6-0.5-4.8,0.1-6.6,1.9c-1.7,1.7-3.3,3.3-4.8,4.9c-1.5,1.6-2.9,3.4-4.2,5.2
	c-1.3,1.9-2.6,4-3.9,6.2c-1.3,2.3-2.6,4.8-4,7.7c-0.4-0.2-0.7-0.3-1.1-0.5c-0.4-0.1-0.7-0.3-1.2-0.5c-0.6-0.2-1.1-0.4-1.4-0.5
	c-0.4-0.1-0.8-0.2-1.3-0.2c-0.6,0.1-1,0.3-1.1,0.7C155.9,69,156,69.4,156.3,69.9z M145.6,160.7c2.7-22-8.3-35-23.9-46.9
	c-8.3-6.4-16.8-9.9-27.5-9.1c-23.7,1.7-47.4,20.8-55.2,48.5c-12.4,44.2-5.4,86.7,18.6,125.2c20.3,32.7,51.2,37,82,13.7
	c3.2-2.4,5.9-7.7,6-11.7c0.6-22.7,0.3-45.4,0.3-68.1c-0.2,0-0.5,0-0.7,0C145.2,195.2,143.5,177.7,145.6,160.7z M147.8,123.9
	c9.7,7.5,8.5,14.1,8.9,13.7c2.3-2.1,12.9-3.8,18.4-3.9c5.6-0.1,12.5-4.6,12.7-15.3c0.1-10.6-9-13.5-19.5-8.2c0,0-2.1-14.1-15.9-12.4
	C142.4,99,139.2,117.3,147.8,123.9z M173.1,309.4c-0.3-1.2-0.5-3.1-0.5-5.6c0-13.2-3-19.8-9.2-19.8c-3.4,0.4-5.1,1.1-5.1,2
	c-3.4,0-5.1,11.5-5.1,34.6c0,1.9,0.9,3.1,2.6,3.6c1.3,0,2.1-1.8,2.5-5.6c0-2.7,2.9-4.1,8.6-4.1h0.5v3c0,5.1,0.7,7.6,2,7.6h0.5
	C171.8,325.1,172.8,319.9,173.1,309.4z M176.2,253.6c3.1,0.4,6.1,0.3,8.9-0.3c2.8-0.6,5.4-1.9,7.8-3.7c2.4-1.8,4.3-4,5.8-6.7
	c1.8-3.2,2.9-6.5,3.1-9.8c0.2-3.3-0.1-6.7-0.8-10.2c-0.5-2.2-1.8-3.5-3.7-4.1c-2-0.5-4,0-6.2,1.6c0.8,2.8,1.1,5.6,1.1,8.4
	c-0.1,2.8-0.5,5.5-1.3,8c-0.8,2.5-2,4.7-3.7,6.7c-1.6,1.9-3.6,3.4-5.8,4.4c-0.5-0.3-1.6-1.2-3.2-2.5c-1.6-1.4-3.2-3.4-5-6.1
	c-1.7-2.7-3.2-6.2-4.5-10.5c-1.3-4.3-2-9.5-2.1-15.7c-0.1-5.6,0.4-11.8,1.6-18.4c1.2-6.6,2.9-12.6,5.2-17.9c0.6-1.4,1.5-3,2.6-4.7
	c1.1-1.7,2.3-3.4,3.7-5c1.4-1.6,2.9-2.9,4.5-4.1c1.6-1.1,3.1-1.9,4.6-2.2c2,0.7,3.2,1.9,3.7,3.7c0.5,1.8,0.8,3.6,0.7,5.2
	c-0.1,0.9-0.1,1.6,0.2,2.3c0.2,0.6,0.9,1.1,2.1,1.3c1.5,0.3,2.7,0.4,3.4,0.1c0.8-0.3,1.4-0.8,1.8-1.7c1.6-3.2,1.8-6.3,0.4-9.3
	c-1.4-2.9-4-4.9-8-5.8c-1.9-0.5-3.9-0.8-5.8-0.7c-1.9,0.1-3.7,0.4-5.3,0.8c-1.6,0.4-3.1,1-4.4,1.6c-1.3,0.7-2.4,1.2-3.2,1.8
	c-2.6,1.8-5,3.8-7.2,5.8c-2.2,2.1-4.1,4.4-5.6,7c-4,6.5-6.9,13.2-8.6,20.1c-1.7,6.9-2.5,14.1-2.3,21.6c0.2,4.3,0.7,8.5,1.5,12.6
	c0.8,4.1,2.4,8,4.6,11.8c1.3,2.2,2.7,4.2,4.3,6.1c1.6,1.9,3.5,3.5,5.9,5C170,252.1,173.1,253.2,176.2,253.6z M188.2,311.9v8.8
	c0,2.2,0.6,3.5,1.7,3.9h0.9c0.4,0,0.9-0.6,1.3-1.8l-0.4-0.9c0.3-3.2,0.4-6,0.4-8.3V311c0-5.3,0.1-12,0.4-20.1
	c-0.2-0.9-0.8-1.5-1.7-1.8c-1.2,0-1.9,0.6-2.2,1.8l0.4,2.2c-0.3,4.8-0.4,8.5-0.4,10.9v0.4h-0.4l-0.9-0.4c-3.9-9.6-6.9-14.4-8.8-14.4
	l-1.3,1.8c0.3,2,0.4,3.6,0.4,4.8v23.6c0,1.6,0.6,2.6,1.8,3h1.3c0.6-2.6,0.9-4.5,0.9-5.7v-15.7h0.4
	C186.1,307.7,188.2,311.2,188.2,311.9z M249.4,361.2c-0.4-0.4-0.9-0.6-1.2-0.5c-0.4,0.1-0.9,0.4-1.5,0.8c-0.9,0.6-2,1.2-3.1,1.8
	c-1.1,0.6-2.2,1.1-3.3,1.4c-0.8,0.3-1.6,0.4-2.5,0.4c-0.9,0-1.8-0.1-2.7-0.3c-0.9-0.2-1.8-0.4-2.6-0.6c-0.8-0.2-1.5-0.4-2.1-0.7
	c0-0.3,0-0.6,0-0.9c0-0.3,0.1-0.5,0.1-0.7c0.1-0.2,0.1-0.4,0.2-0.7c0.1-0.1,0.3-0.2,0.5-0.4c0.3-0.2,0.5-0.5,0.8-0.7
	c0.3-0.3,0.6-0.5,0.8-0.8c0.3-0.3,0.4-0.4,0.5-0.5c1.4-1.6,2.6-3.2,3.6-4.8c1-1.6,1.9-3.2,2.7-4.9c0.8-1.6,1.5-3.4,2-5.1
	c0.6-1.8,1.2-3.7,1.7-5.9c0.2-0.7,0.3-1.5,0.4-2.5c0-0.9,0-1.8-0.1-2.6c-0.3-1.6-1-2.6-2.3-2.9c-1.6-0.3-3.1-0.1-4.4,0.8
	c-1,0.7-1.9,1.4-2.8,2.3c-1,1.1-1.9,2.3-2.7,3.5c-0.8,1.2-1.5,2.4-2.2,3.7c-1.5,3-2.8,6.1-3.8,9.2c-0.1-0.1-0.2-0.1-0.3-0.2
	c-0.4-0.2-0.9-0.1-1.3,0.1c-0.4,0.3-0.8,0.5-1,0.6c-0.2,0.1-0.5,0.3-0.9,0.5c-0.4,0.3-0.9,0.5-1.3,0.7c-0.6,0.3-1.2,0.6-1.8,0.8
	c-0.3-2-0.6-4-1.1-6c-0.4-2.1-1-4-1.7-5.9c-0.4-1.1-0.9-2.1-1.4-3.1c-0.5-1-1.1-1.9-1.9-2.8c-0.7-0.7-1.6-1.2-2.7-1.5
	c-1.1-0.3-2.1-0.4-3.1-0.3c-1,0.1-2,0.3-2.9,0.8c-0.9,0.4-1.6,1-2,1.8c-0.2,0.3-0.5,0.6-0.9,0.7c-1.8,0.3-3.3,1-4.5,1.9
	c-1.2,0.9-2.3,2.1-3.3,3.4c-1.6,2.1-2.8,4.2-3.8,6.4c-1.5,3.3-2.4,6.8-2.8,10.2c-0.4,3.5-0.4,7,0.1,10.7c0.3,2.1,0.7,4,1.3,5.9
	c0.6,1.9,1.5,3.7,2.8,5.4c1.1,1.6,2.4,2.9,3.8,3.8c1.4,0.9,3.1,1.6,5.1,2c3.5,0.6,6.6,0.3,9.2-0.9c2.6-1.2,4.7-3.3,6.2-6.4
	c0.5-0.9,0.9-1.9,1.3-2.9c0.4-1,0.7-2,1-3.1c0.4-1.8,0.8-3.6,1-5.4c0.2-1.8,0.3-3.6,0.5-5.4c0.1-1,0.2-2,0.2-3.1c0-1,0-2.1,0.1-3.1
	c1.3-0.3,2.4-0.7,3.4-1.2c0.7-0.4,1.4-0.8,2.1-1.3c-0.6,2.3-1.2,4.7-1.6,7.2c-0.1,0.6-0.2,1.2-0.3,1.8c-0.1,0.6-0.2,1.2-0.3,1.8
	l-0.3,1.9c-0.1,0.6-0.1,1.2-0.2,1.8c-0.1,0.6-0.1,1.1-0.1,1.8c-0.1,2-0.2,3.9-0.2,5.9s0.1,3.9,0.3,5.9c0.1,1.5,0.3,3,0.5,4.5
	c0.3,1.5,0.6,2.9,1,4.4c0.8,2.6,2,4.9,3.7,6.9c2.1,2.2,4.5,3.2,7.4,3c1.1-0.1,1.9-0.4,2.5-0.8c0.6-0.4,1.2-1.1,1.7-2
	c0.2-0.3,0.4-0.7,0.6-1.1c0.2-0.5,0.3-0.9,0.5-1.3c0.4-1.4,0.7-2.8,0.7-4.2c0-1.4-0.1-2.8-0.3-4.3c-0.4-3.3-1.3-6.5-2.6-9.5
	c-1.3-3-2.8-5.8-4.7-8.6c-0.2-0.3-0.4-0.6-0.5-0.9c0.1,0,0.2,0,0.5,0.1c0.3,0.1,0.6,0.2,0.9,0.2c0.3,0.1,0.6,0.1,0.8,0.2
	s0.4,0.1,0.5,0.1c1.2,0.2,2.4,0.2,3.6,0c1.2-0.2,2.4-0.5,3.5-1c1.1-0.5,2.2-1,3.3-1.7c1.1-0.7,2.1-1.4,3-2.1
	c0.2-0.1,0.5-0.3,0.7-0.7C249.8,362,249.8,361.6,249.4,361.2z M240.3,314.5v3c0,5.1,0.7,7.6,2,7.6h0.5c1.7,0,2.7-5.3,3-15.8
	c-0.3-1.2-0.5-3.1-0.5-5.6c0-13.2-3-19.8-9.2-19.8c-3.4,0.4-5.1,1.1-5.1,2c-3.4,0-5.1,11.5-5.1,34.6c0,1.9,0.9,3.1,2.6,3.6
	c1.3,0,2.1-1.8,2.5-5.6c0-2.7,2.9-4.1,8.6-4.1H240.3z M256,263.3c1.5,5.1,3.9,9.5,7.1,13.3c4,4.2,8.8,6.2,14.5,5.8
	c2.1-0.2,3.7-0.7,4.8-1.5c1.1-0.8,2.2-2.1,3.3-3.8c0.4-0.5,0.8-1.3,1.2-2.2c0.4-0.9,0.7-1.8,0.9-2.5c0.9-2.7,1.3-5.4,1.3-8.1
	c0-2.7-0.2-5.5-0.6-8.3c-0.9-6.5-2.5-12.6-5-18.4c-2.5-5.7-5.5-11.3-9.1-16.7c-0.4-0.6-0.8-1.2-1-1.8c0.1,0,0.4,0.1,1,0.2
	c0.5,0.2,1.1,0.3,1.7,0.4c0.6,0.1,1.1,0.2,1.6,0.3c0.5,0.1,0.8,0.2,0.9,0.2c2.4,0.4,4.7,0.5,7.1,0.1c2.3-0.4,4.6-1,6.8-1.9
	c0.5-0.2,0.9-0.4,1.4-0.7c-0.1,0.7-0.1,1.4-0.2,2c-0.1,1.1-0.2,2.2-0.2,3.4c-0.2,3.8-0.3,7.6-0.3,11.5c0,3.8,0.2,7.7,0.7,11.5
	c0.2,2.9,0.6,5.8,1.1,8.7c0.5,2.9,1.2,5.7,2,8.5c1.5,5.1,3.9,9.5,7.1,13.3c4,4.2,8.8,6.2,14.5,5.8c2.1-0.2,3.7-0.7,4.8-1.5
	c1.1-0.8,2.2-2.1,3.3-3.8c0.4-0.5,0.8-1.3,1.2-2.2c0.4-0.9,0.7-1.8,0.9-2.5c0.9-2.7,1.3-5.4,1.3-8.1c0-2.7-0.2-5.5-0.6-8.3
	c-0.9-6.5-2.5-12.6-5-18.4c-2.5-5.7-5.5-11.3-9.1-16.7c-0.4-0.6-0.8-1.2-1-1.8c0.1,0,0.4,0.1,1,0.2c0.5,0.2,1.1,0.3,1.7,0.4
	c0.6,0.1,1.1,0.2,1.6,0.3c0.5,0.1,0.8,0.2,0.9,0.2c2.4,0.4,4.7,0.5,7.1,0.1c2.3-0.4,4.6-1,6.8-1.9c0.4-0.2,0.7-0.3,1.1-0.5
	c-0.6,3.9-0.4,8,0.6,12.3c0.4,1.8,1.1,3.6,1.9,5.2c0.8,1.6,1.9,3.1,3.3,4.5c1.7,1.6,3.8,2.9,6.1,3.8c2.3,0.9,4.7,1.4,7.2,1.3
	c2.5-0.1,4.9-0.6,7.3-1.7c2.4-1.1,4.4-2.9,6.2-5.4c0.3-0.3,0.6-0.7,0.9-1.1c0.3-0.4,0.6-0.9,0.9-1.3c1.3,3.8,3.7,7.2,7.1,10.2
	c3.4,2.8,7.3,4.4,11.7,4.6c4.4,0.3,8.4-0.8,12-3.3c1.6-1.2,3.1-2.6,4.5-4.2c1.4-1.6,2.7-3.2,3.9-4.7c2.5-3.4,4.7-6.9,6.6-10.5
	c1.9-3.6,3.7-7.3,5.4-11.1c0.4-0.9,0.7-1.5,0.9-2c0.2-0.5,0.4-1.2,0.7-2c0.4-1,0.7-1.9,0.8-2.8c0.3-1.6-0.2-2.7-1.5-3.1
	c-1.1-0.3-2-0.2-2.8,0.3c-0.8,0.5-1.4,1.4-1.9,2.4c-1.8,3.9-3.7,7.6-5.4,11.2c-1.8,3.6-3.9,7.1-6.3,10.7c-1.2,2-2.5,3.9-3.9,5.8
	c-1.4,1.9-3,3.7-4.9,5.2c-0.9,0.6-1.7,1.2-2.5,1.8c-0.8,0.5-1.7,1-2.7,1.3c-1,0.3-1.8,0.2-2.4-0.5c-1.5-1.3-2.8-2.7-3.8-4.3
	c-1-1.6-1.8-3.3-2.2-5.1c-0.7-2.9-0.8-5.8-0.6-8.8c0.3-2.9,0.7-5.9,1.4-8.9h1.3h1.1c6.3-0.5,11-3.2,14.1-8c2.4-3.9,3.8-8.2,4.4-13
	c0-0.6,0-1.3,0-1.9c0-0.6-0.1-1.3-0.2-1.9c-0.4-3-2.2-4.9-5.4-5.5c-3.1-0.7-6.3-0.4-9.4,0.8c-1.6,0.6-3.1,1.5-4.5,2.6
	c-1.4,1.1-2.7,2.3-3.9,3.6c-1.6,1.7-3.1,3.5-4.3,5.4c-1.2,1.9-2.4,3.9-3.3,5.9c-1.7,3.5-3.1,7-4.1,10.6c-1,3.6-1.4,7.3-1.3,11.1
	c-3,5.4-5.7,9.1-8,11c-1,0.8-2,1.3-3.2,1.7c-1.1,0.4-2.2,0.2-3.2-0.6c-1.8-1.4-3.2-3.2-4.1-5.4c-1.1-2.5-1.7-5-1.9-7.4
	c-0.2-2.4-0.2-5,0.2-7.6c0.1-0.7,0.2-1.3,0.2-1.9c0.1-0.7,0.2-1.3,0.4-2h3.2c2.9-0.2,5.3-1.1,7.1-2.5c1.8-1.5,3.2-3.4,4.2-5.9
	c1.5-4.1,1.9-8.1,1.1-11.9c-0.3-1.5-0.9-2.6-1.7-3.3c-0.8-0.7-2-1.1-3.7-1.2c-4.4-0.3-8.4,1-12,4.1c-1.2,1-2.2,2.1-3.2,3.2
	c-0.9,1.2-1.8,2.4-2.7,3.6c-2,3.2-3.5,6.4-4.6,9.7c-0.3,0.1-0.5,0.3-0.7,0.4c-2.2,1.2-4.3,2.1-6.3,2.8c-1.5,0.5-3.1,0.8-4.9,0.7
	c-1.7-0.1-3.5-0.2-5.3-0.6c-1.8-0.3-3.5-0.7-5-1.1c-1.6-0.4-3-0.9-4.1-1.3c0-0.7,0-1.2,0.1-1.7c0.1-0.5,0.1-0.9,0.2-1.4
	c0.1-0.4,0.2-0.9,0.3-1.3c0.2-0.1,0.6-0.4,1.1-0.8c0.5-0.4,1-0.9,1.6-1.4c0.6-0.5,1.1-1,1.6-1.5c0.5-0.5,0.8-0.8,1.1-1.1
	c2.7-3.1,5.1-6.3,7.1-9.3c2-3.1,3.8-6.2,5.3-9.4c1.5-3.2,2.8-6.5,4-10c1.1-3.5,2.2-7.3,3.3-11.4c0.4-1.4,0.7-3,0.7-4.8
	c0.1-1.8,0-3.4-0.2-5c-0.5-3.1-2-5-4.4-5.7c-3.1-0.7-6-0.1-8.6,1.6c-1.9,1.3-3.7,2.8-5.4,4.4c-1.9,2.2-3.7,4.4-5.3,6.7
	c-1.6,2.3-3,4.7-4.3,7.2c-3.1,6.2-5.7,12.4-7.6,18.7c-2,6.3-3.5,12.8-4.7,19.5c-0.2,1.2-0.4,2.4-0.6,3.5c-0.1,0.8-0.3,1.6-0.4,2.4
	c-0.1,0-0.1,0.1-0.2,0.1c-2.2,1.2-4.3,2.1-6.3,2.8c-1.5,0.5-3.1,0.8-4.9,0.7c-1.7-0.1-3.5-0.2-5.3-0.6c-1.8-0.3-3.5-0.7-5-1.1
	c-1.6-0.4-3-0.9-4.1-1.3c0-0.7,0-1.2,0.1-1.7c0.1-0.5,0.1-0.9,0.2-1.4c0.1-0.4,0.2-0.9,0.3-1.3c0.2-0.1,0.6-0.4,1.1-0.8
	s1-0.9,1.6-1.4c0.6-0.5,1.1-1,1.6-1.5c0.5-0.5,0.8-0.8,1.1-1.1c2.7-3.1,5.1-6.3,7.1-9.3c2-3.1,3.8-6.2,5.3-9.4c1.5-3.2,2.8-6.5,4-10
	c1.1-3.5,2.2-7.3,3.3-11.4c0.4-1.4,0.7-3,0.7-4.8c0.1-1.8,0-3.4-0.2-5c-0.5-3.1-2-5-4.4-5.7c-3.1-0.7-6-0.1-8.6,1.6
	c-1.9,1.3-3.7,2.8-5.4,4.4c-1.9,2.2-3.7,4.4-5.3,6.7c-1.6,2.3-3,4.7-4.3,7.2c-3.1,6.2-5.7,12.4-7.6,18.7c-2,6.3-3.5,12.8-4.7,19.5
	c-0.2,1.2-0.4,2.4-0.6,3.5c-0.1,0.7-0.2,1.4-0.3,2.1c-0.2,0.1-0.5,0.3-0.7,0.4c-1.7,0.8-3.5,1.2-5.4,1.3c-1.8,0.1-3,0.1-3.6,0
	c-0.1-1.8-0.2-3.6-0.2-5.4c0-1.7-0.1-3.5-0.3-5.2c-0.2-2.5-0.7-5-1.5-7.5c-0.8-2.5-1.8-4.8-3.2-7c-2.2-3.7-5.6-4.9-10.2-3.7
	c-3.7,0.9-5.7,3.4-6,7.6c0,0.5,0,1.1,0,1.6c0,0.5-0.1,1.2-0.2,1.9c-2.3,0.2-4.1,1-5.5,2.3c-1.4,1.3-2.7,2.8-3.9,4.5
	c-1.1,1.8-2,3.6-2.8,5.2c-1.3,2.9-2.2,6-2.7,9.1c-0.5,3.1-0.6,6.3-0.4,9.4c0.2,2.5,0.7,5,1.3,7.4c0.6,2.4,1.7,4.7,3.1,6.9
	c0.7,1,1.5,1.9,2.7,2.8c1.1,0.9,2.2,1.6,3.3,2.1c1.9,1,4.1,1.4,6.5,1.4c2.4-0.1,4.5-0.5,6.5-1.4c2.5-1.2,4.5-3,6.1-5.4
	c1.6-2.4,2.8-4.8,3.7-7.1c0.3-1,0.7-2.2,1.1-3.7c0.4-1.5,0.7-3,1.1-4.5c0.3-1.5,0.6-2.8,0.8-3.9c0.2-1.1,0.3-1.9,0.3-2.2
	c3,0,6.1-0.4,9.3-1.3c0,0,0.1,0,0.1,0c-0.1,1-0.2,1.9-0.3,2.8c-0.1,1.1-0.2,2.2-0.2,3.4c-0.2,3.8-0.3,7.6-0.3,11.5
	c0,3.8,0.2,7.7,0.7,11.5c0.2,2.9,0.6,5.8,1.1,8.7C254.4,257.7,255.1,260.5,256,263.3z M369.8,293.3V319c0,2.6,1,4.5,3,5.5h5
	c5-0.3,7.5-1.3,7.5-3V321l-3.5-1h-6.5l-1-0.5c0.3-8.8,0.5-14,0.5-15.6c0-13.1-1-19.6-3-19.6h-2.5c0,0.4-0.2,0.9-0.5,1.5
	C369.5,285.8,369.8,288.3,369.8,293.3z M350,308v-16.1c4.8-1.4,7.2-2.3,7.2-2.7v-0.5c0-0.7-1.1-1.3-3.1-1.8l-7.2,1.8
	c-1.5,0-2.2,9.6-2.2,28.6c0,4.2,2.5,6.6,7.6,7.2c0.5,0,2.2-0.3,4.9-0.9v-1.4c0-0.7-1.1-1.3-3.1-1.8c0,0.3-0.1,0.5-0.5,0.5h-2.7
	c-0.9-0.5-1.3-0.9-1.3-1.3V312h2.2l3.1-0.9v-0.9l-0.5-0.9C351.5,309,350,308.6,350,308z M330.5,297.2v22.5c0,2.3,0.9,3.9,2.6,4.9
	h4.4c4.4-0.3,6.6-1.2,6.6-2.6v-0.5l-3.1-0.9h-5.7l-0.9-0.4c0.3-7.7,0.4-12.3,0.4-13.7c0-11.5-0.9-17.2-2.6-17.2H330
	c0,0.3-0.1,0.7-0.5,1.3C330.2,290.6,330.5,292.8,330.5,297.2z M326,301.7V299c-0.9-7.3-3.9-10.9-8.8-10.9c-1.1,0-1.7,0.1-1.7,0.3
	c-3.2,0-4.8,7.6-4.8,22.8v2c0,7.5,3,11.2,8.9,11.2c3.3,0,5.6-3.3,6.8-9.9C326.1,309.2,326,304.9,326,301.7z M291.8,306.4
	c-0.3,4.7-0.5,9.7-0.5,14.8c0,1.8,0.8,2.9,2.4,3.3c1.9,0,2.8-3.3,2.8-10c0-0.6,0.8-0.9,2.4-1h3.4c0.3,7,1.2,10.5,2.8,10.5h0.5
	c0.6,0,1.3-0.9,1.9-2.8c-0.6-2.1-0.9-5.5-0.9-10c0-15.6-1.3-23.4-3.8-23.4l-1.9,1c0.7,3.8,1,8.6,1,14.3v5.7c-0.5,1-1,1.5-1.4,1.5
	H298l-1-0.5c-0.7-13.7-1.8-20.5-3.3-20.5h-1.5l-1.4,1L291.8,306.4z M261.4,300c0,16.4,2.2,24.6,6.5,24.6h0.5
	c1.1-0.3,3.3-4.5,6.5-12.5h0.5c2.2,7.7,4.5,11.5,7,11.5c1.9,0,3.2-2.8,4-8.5c0-3.7,0.2-12.7,0.5-27.1c0-2.7-1-4-3-4
	c-1,0.8-1.5,1.8-1.5,3v7.5c0,5.1-0.2,12.2-0.5,21.1h-1l-1-2.5c-1-7.4-2.8-11-5.5-11h-0.5l-1,0.5c-3,9-4.7,13.5-5,13.5h-0.5
	c-0.6-12-1.1-18.1-1.5-18.1c0-9.4-1.5-14-4.5-14c-1,1.3-1.5,2.1-1.5,2.5C260.6,295.5,261.1,300,261.4,300z M294.6,340.4
	c0.8-0.1,1.5-0.5,2-1c0.5-0.6,0.7-1.3,0.7-2.1c-0.1-0.6-0.2-1-0.5-1.5c-0.3-0.4-0.7-0.8-1.1-1.1c-0.8-0.7-1.6-1.2-2.6-1.5
	c-0.9-0.3-1.9-0.6-2.9-0.7c-2-0.3-3.8-0.2-5.6,0.1c-1.8,0.4-3.6,1-5.3,1.8c-1.2,0.6-2.3,1.3-3.4,1.9c-1.1,0.7-2.2,1.3-3.3,1.9
	c-0.5,0.3-1,0.6-1.5,0.9c-0.5,0.3-1,0.6-1.5,0.9c-0.4-0.3-0.7-0.7-0.6-1c0-0.4,0-0.7,0-1c0-0.2,0-0.3-0.1-0.5
	c-0.1-0.2-0.2-0.3-0.4-0.5c-0.6-0.4-1.3-0.5-2.1-0.3c-0.8,0.3-1.4,0.7-1.8,1.3c-0.6,1.1-0.6,1.9,0.1,2.6c0.7,0.7,1.5,1.2,2.4,1.4
	c2.3,0.6,4.7,0.4,6.9-0.5c0.7-0.3,1.4-0.6,2.1-1c0.7-0.4,1.4-0.8,2.1-1.1c0.2-0.1,0.6-0.2,1-0.3c0,0.1,0.1,0.6,0.4,1.8
	c0.3,1.1,0.5,2.5,0.9,4c0.3,1.6,0.7,3.2,1,4.9c0.3,1.7,0.5,3.2,0.7,4.4c0.3,2.6,0.6,5.2,0.7,7.9c0.1,2.6-0.1,5.3-0.5,7.9
	c-0.1,0.7-0.2,1.4-0.4,2.1c-0.1,0.7-0.3,1.4-0.5,2c-0.1,0.3-0.3,0.9-0.7,1.7c-0.3,0.8-0.8,1.6-1.3,2.4c-0.5,0.8-1.1,1.4-1.7,1.9
	c-0.6,0.5-1.2,0.6-1.8,0.3c-0.4-0.3-0.8-0.7-1.2-1.2c-0.3-0.5-0.6-1-0.8-1.4c-0.6-1-1-2.1-1.2-3.3c-0.4-1.8-0.3-3.8,0.3-5.8
	c0.6-2,1.5-3.7,2.6-5.2c0.3,0.1,0.6,0.2,0.9,0.2c0.3,0,0.6,0.1,0.8,0.1c0.6,0.1,1,0,1.5-0.3c0.4-0.2,0.7-0.5,0.7-0.8
	c0.1-0.7-0.5-1.3-1.8-1.8c-1.6-0.6-3.2-0.6-4.6-0.1c-1.5,0.6-2.6,1.6-3.5,3.1c-1,1.7-1.6,3.5-1.8,5.3c-0.2,1.8-0.1,3.7,0.2,5.6
	c0.3,2,1,3.7,2.1,5.3c1,1.6,2.4,2.5,4.2,2.8c4.6,0.9,8.5-0.3,11.7-3.7c2-2.2,3.3-4.7,4-7.5c0.7-3.1,1-6.4,0.8-9.8
	c-0.1-3.7-0.6-7.4-1.5-11.1c-0.3-1.2-0.7-2.7-1.2-4.4c-0.5-1.7-1-3.3-1.5-4.9c-0.5-1.6-0.9-2.9-1.3-4c-0.4-1.1-0.5-1.7-0.5-1.8
	l1.3-0.5c1.1-0.3,1.9-0.3,2.4,0c0.6,0.3,1.1,0.9,1.5,2c0.1,0.3,0.2,0.5,0.4,0.8c0.1,0.3,0.3,0.5,0.4,0.8c0.3,0.7,0.8,1.2,1.6,1.3
	C293.2,340.4,293.9,340.4,294.6,340.4z M389.9,361.4c-0.5-0.3-1-0.4-1.5-0.1c-0.5,0.3-1,0.5-1.5,0.9c-2.5,1.6-4.6,2.8-6.4,3.5
	c-1.8,0.7-3,1.2-3.8,1.4c-0.4-0.7-0.9-1.3-1.2-1.8c-0.4-0.5-0.7-0.9-1-1.3c-0.3-0.4-0.7-0.8-1.1-1.2c-0.4-0.4-0.9-0.9-1.4-1.4
	c0.1-0.3,0.3-0.6,0.5-0.9c0.3-0.6,0.6-1.2,0.9-1.7c0.3-0.5,0.5-1,0.7-1.5c0.2-0.5,0.3-1,0.4-1.5c0.1-0.5,0.1-1.2,0-1.9
	c0-1-0.2-2-0.5-2.9c-0.3-0.8-0.8-1.4-1.5-1.8c-0.7-0.4-1.5-0.5-2.3-0.4c-0.9,0.1-1.7,0.3-2.4,0.7c-0.6,0.4-1.3,0.9-1.9,1.5
	c-0.6,0.7-1.2,1.6-1.6,2.7c-0.5,1.1-0.7,2.4-0.8,3.8c-0.1,2.1,0.4,4.1,1.5,5.9c0.1,0.2,0.4,0.5,0.7,0.9c0,0.1,0,0.1-0.1,0.2
	c-0.3,1-0.8,2.1-1.3,3.4c-0.5,1.3-1,2.5-1.6,3.8c-0.6,1.3-1.2,2.3-1.7,3.2c-0.8,1.3-1.7,2.3-2.8,3c-0.5-0.7-0.8-1.4-1-2
	c-0.2-0.6-0.3-1.3-0.4-2c-0.3-1.9-0.3-3.8-0.2-5.7c0.1-1.9,0.3-3.8,0.4-5.8c0.1-0.8,0.1-1.6,0.2-2.4c0.1-0.8,0.1-1.7,0.3-2.5
	c0-0.7-0.3-1.2-0.8-1.5c-0.7-0.3-1.4-0.3-2,0c-0.6,0.3-1,0.7-1.2,1.5c-0.2,0.8-0.4,1.5-0.6,2.3c-0.2,0.7-0.4,1.5-0.7,2.2
	c-0.5,1.3-1,2.7-1.5,4c-0.5,1.3-1.1,2.6-1.7,3.9c-0.4,0.9-0.9,1.7-1.4,2.6c-0.5,0.8-1,1.6-1.5,2.4c-0.4,0.6-0.8,1.1-1.3,1.5
	c-0.5,0.5-1.1,0.8-1.8,1.1c-0.4-0.7-0.7-1.4-0.8-2c-0.1-0.7-0.1-1.4-0.1-2.1c0.1-2.9,0.5-5.8,1.3-8.6c0.5-1.7,1-3.4,1.5-5.1
	c0.5-1.7,1-3.4,1.4-5.1c0.6-2-0.3-2.8-2.5-2.7c-1.1,0.2-2.1,0.7-2.8,1.5c-0.4,0.4-0.7,0.9-0.9,1.4c-0.9,1.6-1.7,3.2-2.3,4.9
	c-0.6,1.4-1,2.9-1.4,4.4c-1.4,0.8-2.6,1.4-3.7,1.9c-1.8,0.7-3,1.2-3.8,1.4c-0.4-0.7-0.9-1.3-1.2-1.8c-0.4-0.5-0.7-0.9-1-1.3
	c-0.3-0.4-0.7-0.8-1.1-1.2c-0.4-0.4-0.9-0.9-1.4-1.4c0.1-0.3,0.3-0.6,0.5-0.9c0.3-0.6,0.6-1.2,0.9-1.7c0.3-0.5,0.5-1,0.7-1.5
	c0.2-0.5,0.3-1,0.4-1.5c0.1-0.5,0.1-1.2,0-1.9c0-1-0.2-2-0.5-2.9c-0.3-0.8-0.8-1.4-1.5-1.8c-0.7-0.4-1.5-0.5-2.3-0.4
	c-0.9,0.1-1.7,0.3-2.4,0.7c-0.6,0.4-1.3,0.9-1.9,1.5c-0.6,0.7-1.2,1.6-1.6,2.7c-0.5,1.1-0.7,2.4-0.8,3.8c-0.1,2.1,0.4,4.1,1.5,5.9
	c0.1,0.1,0.2,0.3,0.3,0.4c-1.6,3.5-3.1,6.4-4.5,8.5c-1.6,2.5-3,4.1-4.1,4.9c-0.6,0.4-1.1,0.7-1.7,0.8c-0.6,0.2-1.1,0.1-1.6-0.3
	c-0.9-0.7-1.6-1.6-2.1-2.8c-0.6-1.3-0.9-2.6-1-3.8c-0.1-1.3-0.1-2.6,0.1-3.9c0.1-0.3,0.1-0.7,0.1-1c0-0.3,0.1-0.7,0.2-1h1.7
	c1.5-0.1,2.7-0.5,3.7-1.3c0.9-0.8,1.7-1.8,2.2-3.1c0.8-2.1,1-4.2,0.6-6.1c-0.2-0.8-0.5-1.4-0.9-1.7c-0.4-0.4-1-0.6-1.9-0.6
	c-2.3-0.2-4.3,0.5-6.2,2.1c-0.6,0.5-1.2,1.1-1.6,1.7c-0.5,0.6-0.9,1.2-1.4,1.8c-1.5,2.3-2.5,4.7-3,7.1c-0.6,2.4-0.5,4.9,0.1,7.6
	c0.2,0.9,0.5,1.8,1,2.7c0.4,0.8,1,1.6,1.7,2.3c0.9,0.8,1.9,1.5,3.1,2c1.2,0.5,2.4,0.8,3.7,0.8c1.3,0,2.5-0.3,3.8-0.8
	c1.2-0.6,2.3-1.4,3.3-2.7c0.6-0.8,1.3-1.8,2-2.9c0.7-1.2,1.4-2.4,2-3.6c0.7-1.2,1.3-2.4,1.8-3.5c0.2-0.5,0.4-0.9,0.6-1.3
	c0.2,0.2,0.4,0.5,0.6,0.8c0.5,0.7,1,1.5,1.5,2.3c0.5,0.8,0.9,1.5,1.3,2.2c0.1,0.2,0.2,0.6,0.3,1c-0.2,0.2-0.4,0.3-0.6,0.5
	c-0.2,0.2-0.3,0.3-0.5,0.4c-0.8,0.8-1.6,1.6-2.3,2.4c-0.7,0.8-1.3,1.7-1.9,2.6c-0.6,0.9-1,2-1.3,3.3c-0.3,1.2-0.3,2.6-0.1,4
	c0.3,1.5,0.9,2.9,1.8,4.1c0.9,1.2,2.2,1.9,3.7,2c0.4,0,0.9,0,1.3,0c0.4,0,0.8-0.1,1.3-0.2c2.5-0.4,4.6-1.5,6.2-3.1
	c1.6-1.6,2.5-3.9,2.6-6.6c0.1-2.8-0.4-5.6-1.4-8.4c-0.2-0.6-0.5-1.2-0.8-1.8c-0.3-0.6-0.6-1.2-0.9-1.7c0.6-0.2,1.4-0.5,2.4-0.9
	c1-0.4,2-0.9,3.1-1.4c0,0,0,0,0.1,0c-0.1,0.7-0.2,1.4-0.3,2c-0.2,1.5-0.1,3,0.1,4.6c0.3,3.2,2,5.2,5.1,5.9c1.3,0.3,2.5,0.3,3.6,0
	c1.1-0.3,2.2-0.8,3.1-1.8c0.7-0.7,1.3-1.4,1.8-2.1c0.6-0.8,1.1-1.5,1.8-2.3c0.2-0.2,0.3-0.4,0.4-0.6c0.1-0.2,0.2-0.4,0.3-0.6
	c0.1,0.8,0.3,1.7,0.6,2.8c0.3,1.1,0.6,1.9,1,2.5c0.4,0.8,1,1.4,1.8,1.8c0.7,0.4,1.5,0.6,2.3,0.7c0.8,0.1,1.5,0,2.3-0.2
	c0.7-0.2,1.3-0.6,1.8-1c0.6-0.6,1.2-1.3,1.7-1.9c1.3-2,2.4-4,3.3-6.2c0.5-1.2,1-2.5,1.5-3.9c0.5,0.7,1,1.4,1.5,2.1
	c0.5,0.8,0.9,1.5,1.3,2.2c0.1,0.2,0.2,0.6,0.3,1c-0.2,0.2-0.4,0.3-0.6,0.5c-0.2,0.2-0.3,0.3-0.5,0.4c-0.8,0.8-1.6,1.6-2.3,2.4
	c-0.7,0.8-1.3,1.7-1.9,2.6c-0.6,0.9-1,2-1.3,3.3c-0.3,1.2-0.3,2.6-0.1,4c0.3,1.5,0.9,2.9,1.8,4.1c0.9,1.2,2.2,1.9,3.7,2
	c0.4,0,0.9,0,1.3,0c0.4,0,0.8-0.1,1.3-0.2c2.5-0.4,4.6-1.5,6.2-3.1c1.6-1.6,2.5-3.9,2.6-6.6c0.1-2.8-0.4-5.6-1.4-8.4
	c-0.2-0.6-0.5-1.2-0.8-1.8c-0.3-0.6-0.6-1.2-0.9-1.7c0.6-0.2,1.4-0.5,2.4-0.9c1-0.4,2-0.9,3.1-1.4s2.1-1,3.1-1.5
	c1-0.5,1.7-1,2.2-1.4c0.7-0.5,1.2-1,1.3-1.6C390.3,362.1,390.2,361.7,389.9,361.4z M402.8,314.7c-0.2-5.5-0.3-9.8-0.3-13V299
	c-0.9-7.3-3.9-10.9-8.8-10.9c-1.1,0-1.7,0.1-1.7,0.3c-3.2,0-4.8,7.6-4.8,22.8v2c0,7.5,3,11.2,8.9,11.2
	C399.3,324.5,401.5,321.2,402.8,314.7z M423.1,291.2c-0.7-1.2-2.2-1.8-4.5-1.8c-9.8,0-14.6,0.6-14.6,1.8v1.4
	c5.2,1.3,7.8,2.3,7.8,2.8v10.5c0,3.4-0.1,7.8-0.5,13.2c0.8,3.7,1.7,5.5,2.7,5.5h0.9c0.9-0.2,1.4-1.4,1.4-3.6v-24.7
	c0-0.7,0.1-1.3,0.5-1.8C421,293.1,423.1,292,423.1,291.2z M395.3,291.5h-0.3c-2.3,0-3.4,7.1-3.4,21.1c0,4.7,0.7,7.1,2,7.1h2
	c0.8,0,1.3-1.3,1.7-3.8V297C397.3,294,396.6,292.2,395.3,291.5z M383.4,88.3c0.1,0.5,0.4,1.2,0.9,2.1c0.5,0.9,1,1.5,1.7,1.8
	c0.4,0.2,1,0.1,1.6-0.4c0.7-0.4,1.2-0.9,1.5-1.3c0.7-1,1.3-2,1.8-2.9c0.5-0.9,1-2.1,1.7-3.6c0.1-0.3,0.2-0.8,0.2-1.5
	c0-0.7,0-1.3,0-1.7c-0.3-2-0.4-3.8-0.4-5.2c0-1.5,0-3.1,0.1-4.8c0-1.3-0.5-2.1-1.6-2.6c-0.7-0.3-1.4-0.2-2.1,0.4
	c-0.7,0.5-1.4,1.2-2.1,2.1c-0.6,0.9-1.2,1.8-1.7,2.7c-0.5,0.9-0.8,1.6-1,2c-0.3,0.7-0.6,1.6-0.8,2.6c-0.2,1-0.4,2.2-0.4,3.4
	c-0.1,1.2-0.1,2.4,0,3.6C382.9,86.1,383.1,87.2,383.4,88.3z M363.5,74.3c1.2-1.3,2-2.6,2.5-3.9c0.4-1.3,0.7-2.9,0.7-4.6
	c0-0.3,0-0.6,0-0.9c0-0.3-0.1-0.5-0.3-0.8c-0.6,0.4-1.3,1.1-2,2.1c-0.7,1-1.4,2.1-2,3.3c-0.6,1.2-1.2,2.4-1.6,3.7
	c-0.4,1.2-0.7,2.3-0.8,3.1c0.7-0.1,1.3-0.4,2-0.8C362.5,75.2,363.1,74.8,363.5,74.3z M318.9,291.5h-0.3c-2.3,0-3.4,7.1-3.4,21.1
	c0,4.7,0.7,7.1,2,7.1h2c0.8,0,1.3-1.3,1.7-3.8V297C320.9,294,320.2,292.2,318.9,291.5z M392.7,148.2c-0.1-0.2-0.2-0.3-0.3-0.4
	c-1.2-0.9-3,0.9-2.7,2.3C390.4,152.7,394.1,150.4,392.7,148.2z M385.1,159c-0.3-0.1-0.7,0.1-0.9,0.5c-0.6,1.1,1.2,1.6,1.5,0.4
	C385.8,159.4,385.5,159.1,385.1,159z M388.9,154.1c-0.2-0.7-0.6-1-0.9-1c-1-0.1-2.2,1.7-1.1,2.5C388,156.4,389.3,155.4,388.9,154.1z
	 M386.6,106.4h-0.3c-2.2,0-3.3,6.8-3.3,20.5c0,4.6,0.7,6.9,2,6.9h2c0.7,0,1.3-1.2,1.6-3.6v-18.5C388.6,108.8,387.9,107,386.6,106.4z
	 M321.8,351.2c-0.9,1.2-1.3,2.5-1.3,3.9c0,1.4,0.5,2.6,1.5,3.6c0.8-1.4,1.2-2.9,1.1-4.2C323,353,322.6,351.9,321.8,351.2z
	 M373.6,145.5c0.3-0.5,0.4-1.2,0.1-1.9c-0.3-0.8-0.9-1.1-1.5-1.1c-1.4,0-2.8,1.7-1.2,3.2C372.1,146.6,373.1,146.3,373.6,145.5z
	 M369.8,179.7c-0.9-0.2-1.2,1.2-0.3,1.4C370.4,181.2,370.5,179.9,369.8,179.7z M304.8,363.5c0.4-0.3,0.8-0.7,1.2-1.2
	c0.4-0.6,0.8-1.3,1-2c0.2-0.7,0.3-1.4,0.5-2.1c0.1-0.9,0-1.9-0.4-2.8c-0.9,1.3-1.8,2.7-2.4,4c-0.7,1.3-1.2,2.8-1.6,4.3
	C303.7,363.9,304.4,363.8,304.8,363.5z M374.7,157.9c-0.9,0.2-1.8,1.5-0.4,2.1c0.9,0.4,1.7-0.3,1.5-1.2
	C375.7,157.9,375.2,157.7,374.7,157.9z M373.5,150.4c0,0-0.1,0-0.1,0c-0.8-0.2-1.5,0.5-1.6,1.3c0,0.8,0.7,1.3,1.5,1.3
	C374.7,152.9,374.8,150.8,373.5,150.4z M153.6,127.1c0.5,0.4,1,0.5,1.6,0.4c0.5-0.1,1-0.5,1.3-1.2c0.3-0.5,0.5-1.1,0.8-1.6
	c0.2-0.5,0.5-1.1,0.8-1.7c0.4-0.9,0.7-1.7,1.1-2.6c0.4-0.9,0.7-1.7,1.1-2.6l3-6.4c0.1-0.3,0.3-0.6,0.4-0.9c0.2-0.3,0.3-0.6,0.4-0.9
	c0.1-0.2,0.1-0.4,0.2-0.6c0.1-0.2,0.1-0.4,0.1-0.6c0-0.4,0-0.7-0.2-1.1c-0.2-0.3-0.4-0.6-0.7-0.7c-0.3-0.1-0.6-0.2-1-0.1
	c-0.3,0.1-0.6,0.3-0.9,0.6c-0.4,0.5-0.8,1.1-1.1,1.9c-0.6,1.2-1.1,2.4-1.6,3.6c-0.5,1.2-1,2.4-1.6,3.6c-0.7,1.5-1.4,2.9-2.1,4.3
	c-0.7,1.4-1.4,2.9-2.1,4.3c-0.2,0.4-0.3,0.8-0.2,1.3C153,126.4,153.2,126.8,153.6,127.1z M164.6,125c0.1-0.2,0.1-0.5,0.2-0.7
	c0.2-1-0.1-1.6-1.1-2c-0.4-0.1-0.8-0.1-1.2,0c-0.4,0.2-0.7,0.4-0.9,0.8c-0.2,0.4-0.4,0.9-0.5,1.3c-0.1,0.5-0.2,0.9-0.2,1.4
	c-0.1,0.7-0.1,1.4,0.1,2.1c0.2,0.6,0.5,1.2,0.8,1.8c0.4,0.6,0.9,1.2,1.4,1.6c0.5,0.5,1.2,0.8,1.9,1c0.3,0.1,0.7,0.2,1,0.3
	c0.3,0.1,0.7,0.1,1,0.1c0.7,0,1.3,0,1.9-0.1c0.6-0.1,1.2-0.4,1.7-0.8c0.9-0.7,1.7-1.5,2.2-2.5c0.5-0.9,0.9-1.9,1.1-3
	c0.2-1.1,0.1-2.1-0.3-3.1c-0.4-0.9-1-1.8-1.8-2.6c-0.3-0.4-0.7-0.7-1-1.1c-0.3-0.4-0.7-0.7-1-1.1c-1-1.1-1.1-2.3-0.2-3.5
	c0.2-0.3,0.5-0.5,0.8-0.6c0.3-0.2,0.7-0.3,1-0.3c0.4,0,0.7,0,1.1,0c0.4,0.1,0.7,0.2,0.9,0.4c0.5,0.4,0.8,0.8,0.9,1.3
	c0.1,0.5,0.1,1,0.1,1.6c0,0.2-0.1,0.4-0.1,0.6c0,0.2-0.1,0.4-0.1,0.6c0,0.3,0.1,0.7,0.3,1c0.2,0.3,0.5,0.6,0.8,0.7
	c0.3,0.1,0.6,0.2,1,0.1c0.3-0.1,0.7-0.3,0.9-0.5c0.4-0.4,0.6-0.9,0.6-1.4c0-0.7,0-1.4,0-2.1c0-0.7-0.2-1.3-0.5-2
	c-0.3-0.7-0.7-1.3-1.2-1.9c-0.4-0.6-1-1-1.8-1.3c-0.7-0.3-1.6-0.5-2.6-0.5c-1,0-1.9,0.2-2.6,0.6c-0.8,0.4-1.5,0.9-2.1,1.6
	c-0.6,0.6-1,1.4-1.4,2.3c-0.1,0.2-0.1,0.4-0.2,0.6c0,0.2,0,0.4,0,0.6c0,0.9,0.2,1.7,0.4,2.4c0.3,0.8,0.7,1.5,1.3,2.1
	c0.3,0.3,0.7,0.7,1,1c0.3,0.3,0.7,0.6,1,1c0.4,0.4,0.8,0.9,1,1.5c0.2,0.5,0.3,1.1,0.3,1.6c0,0.5-0.1,1-0.3,1.5
	c-0.2,0.5-0.6,0.9-1,1.3c-0.5,0.5-1,0.7-1.6,0.8c-0.6,0.1-1.2-0.1-1.8-0.4c-0.6-0.4-1-0.9-1.3-1.4c-0.3-0.6-0.3-1.2-0.1-1.8
	C164.5,125.5,164.5,125.2,164.6,125z"/>
</svg>
