<?xml version="1.0" encoding="utf-8"?>
<!-- Generator: Adobe Illustrator 18.0.0, SVG Export Plug-In . SVG Version: 6.00 Build 0)  -->
<!DOCTYPE svg PUBLIC "-//W3C//DTD SVG 1.1//EN" "http://www.w3.org/Graphics/SVG/1.1/DTD/svg11.dtd">
<svg version="1.1" id="Layer_1" xmlns="http://www.w3.org/2000/svg" xmlns:xlink="http://www.w3.org/1999/xlink" x="0px" y="0px"
	 viewBox="0 0 432 432" enable-background="new 0 0 432 432" xml:space="preserve">
<path fill="#333333" d="M128.2,359.7c-3.3-2.6-7.5-4.6-12.6-5.9c-2.3-0.6-3.5-1.4-3.5-2.3c0-1,0.9-2.4,2.7-4.2
	c11-10.8,16.5-24.8,16.5-42.1c0-14.2-5.1-24.8-15.2-31.8c-8.6-6-18.6-9-29.9-9c-10.9,0-16.3,5.1-16.3,15.4v104.5
	c0,12.1,5.6,18.2,16.9,18.2c15,0,27-2.7,36-8.1s13.4-11.9,13.4-19.4C136.2,368.9,133.6,363.8,128.2,359.7z M91.6,281.5
	c0-1.9,1-2.9,3-2.9c3.1,0,5.9,0.5,8.3,1.4c5.1,2.1,8.9,6.2,11.2,12.2c1.5,4.1,2.3,8.7,2.3,13.8c0,8.8-1.9,17.3-5.8,25.4
	c-3,6.2-6,10.9-9.2,14.3c-3.2,3.4-5.8,5.1-7.8,5.1c-1.4,0-2.1-0.6-2.1-1.8V281.5z M115.1,384.5c-4.2,2.6-10.5,3.9-18.9,3.9
	c-3,0-4.5-1.4-4.5-4.3v-16.8c0-2.8,1.8-4.2,5.5-4.2c7.5,0,13.4,1,17.7,3c4.3,2,6.5,4.9,6.5,8.7C121.3,378.7,119.3,381.9,115.1,384.5
	z M205.5,295.8c-2.4-8.8-4.8-15.6-7.4-20.3c-4.1-7.4-9.3-11.1-15.7-11.1c-7.9,0-14,6.7-18.4,20.2c-5.1,15.7-9.6,35.4-13.4,59.2
	c-2.2,14-3.9,25.2-5,33.4c-1.1,8.3-1.6,13.2-1.6,14.9c0,7,3.3,10.5,9.9,10.5c7.8,0,12.2-4.4,13.2-13.1c0.4-2.9,0.8-6.2,1.2-10
	c0.4-3.8,0.8-6.6,1.1-8.6c0.5-3.1,2.1-4.6,4.9-4.6h24.8c3.1,0,4.9,1.4,5.2,4.3c1.1,8,2,15.9,2.8,23.7c0.7,5.6,3,8.3,7.1,8.3
	c3.4,0,5.6-1.5,6.8-4.5c0.7-1.8,1.1-4.4,1.1-7.6c0-2.7-0.3-6.2-0.9-10.5C217.2,347.4,211.9,319.3,205.5,295.8z M198,354.9h-21.4
	c-2.5,0-3.7-1.1-3.7-3.4c0-0.5,1.1-6.9,3.2-19c5.4-31,9.2-46.5,11.2-46.5c3,0,6.9,15.6,11.8,46.9c1.8,11.7,2.7,17.8,2.7,18.4
	C201.7,353.7,200.5,354.9,198,354.9z M267.4,347.2c-0.8,1.4-1.2,2.6-1.2,3.6c0,1.1,0.6,2.3,1.8,3.6c10.1,11,20.2,21.9,30.4,32.7
	c3.3,3.5,4.9,6.5,4.9,9.1c0,1.9-0.8,3.4-2.4,4.5c-1.6,1.1-3.3,1.7-5.1,1.7c-2.9,0-6-1.6-9.3-4.9c-5.6-5.6-14.6-16.2-26.8-31.9
	c-1-1.2-1.8-1.9-2.3-1.9c-0.8,0-1.2,1.1-1.2,3.4v20.4c0,3.7-0.6,6.7-1.8,9.1c-1.8,3.8-5,5.7-9.6,5.7c-5.7,0-9-2.7-9.8-8.1
	c-0.4-2.4-0.5-4.8-0.5-7.5V279.8c0-5.9,0.8-10,2.4-12.2c1.6-2.2,4.3-3.3,8-3.3c4.1,0,7.2,1.6,9.1,4.7c1.5,2.5,2.3,5.9,2.3,10v60.5
	c0,2.2,0.3,3.4,0.8,3.4c0.4,0,1.1-0.9,2-2.8c12-25.7,21.9-48.3,29.5-67.7c1.2-3.1,2.5-5.3,3.9-6.4c1.4-1.2,3.2-1.7,5.5-1.7
	c1.7,0,3,0.5,3.9,1.5c0.9,1,1.4,2.2,1.4,3.7c0,4.6-1.6,10.8-4.9,18.5c-3.3,7.7-7.6,16.6-13,26.7C279.9,324.8,274,335.6,267.4,347.2z
	 M371.6,393.3c0,2.9-1.9,5.2-5.7,6.8c-3.8,1.6-10.3,2.4-19.5,2.4c-8,0-14.3-1.2-18.8-3.5c-8-4.3-12.6-12.2-13.7-23.8
	c-0.5-5.2-0.7-10.7-0.7-16.4v-74.4c0-3.8,0.4-7.1,1.2-9.8c1.7-5.7,6-8.6,13-8.6h24c1.7,0,3.5,0.1,5.5,0.4c4.9,0.6,7.4,2.8,7.4,6.7
	c0,1.4-0.8,2.8-2.3,4c-1.5,1.3-3.9,1.9-7,1.9c-2.3,0-4.5,0-6.8-0.1c-2.3-0.1-4.5-0.1-6.8-0.1c-4.2,0-6.3,2.4-6.3,7.1v63
	c0,2.7,0.4,4.5,1.2,5.2c0.8,0.8,2.1,1.2,3.7,1.2c2.5,0,5-0.1,7.5-0.2c2.5-0.1,5-0.2,7.5-0.2c3,0,5.3,0.4,6.7,1.3
	c1.8,1.1,2.7,2.8,2.7,5.3c0,1.4-0.6,2.6-1.8,3.6c-1.2,1-2.8,1.5-5,1.5l-18.4-0.3c-2.8,0-4.3,1.2-4.3,3.7v4.1c0,4.4,0.8,7.8,2.4,10.1
	c2.5,3.6,7.5,5.4,14.7,5.4c2.3,0,4.6-0.1,6.9-0.3c2.3-0.2,4.6-0.3,6.9-0.3c1.5,0,2.9,0.4,4,1.1C371,390.7,371.6,391.8,371.6,393.3z
	 M66.4,130.4c11,0,19.7-2,26.3-5.9c6.5-4,9.8-8.7,9.8-14.2c0-4.5-2-8.2-5.9-11.2c-2.4-1.9-5.5-3.3-9.2-4.3c-1.7-0.4-2.5-1-2.5-1.7
	c0-0.7,0.6-1.8,1.9-3c8-7.9,12.1-18.1,12.1-30.8c0-10.4-3.7-18.1-11.1-23.2c-6.3-4.4-13.6-6.5-21.8-6.5c-8,0-11.9,3.8-11.9,11.3
	v76.4C54,126,58.1,130.4,66.4,130.4z M69.9,42c0-1.4,0.7-2.1,2.2-2.1c2.3,0,4.3,0.3,6.1,1c3.8,1.5,6.5,4.5,8.2,8.9
	c1.1,3,1.7,6.4,1.7,10c0,6.4-1.4,12.6-4.2,18.5c-2.2,4.5-4.4,8-6.7,10.5c-2.3,2.5-4.2,3.7-5.7,3.7c-1,0-1.6-0.4-1.6-1.3V42z
	 M69.9,104.6c0-2,1.3-3,4-3c5.4,0,9.8,0.7,12.9,2.2c3.2,1.4,4.8,3.6,4.8,6.4c0,2.9-1.5,5.2-4.6,7.1c-3,1.9-7.7,2.8-13.8,2.8
	c-2.2,0-3.3-1.1-3.3-3.2V104.6z M115.5,130.4c5.7,0,8.9-3.2,9.7-9.6c0.3-2.1,0.6-4.5,0.9-7.3c0.3-2.7,0.6-4.8,0.8-6.3
	c0.3-2.2,1.5-3.4,3.6-3.4h18.1c2.3,0,3.6,1,3.8,3.1c0.8,5.9,1.5,11.6,2.1,17.3c0.5,4.1,2.2,6.1,5.2,6.1c2.5,0,4.1-1.1,5-3.3
	c0.5-1.3,0.8-3.2,0.8-5.6c0-2-0.2-4.5-0.6-7.7c-3.1-23.8-7-44.3-11.6-61.5c-1.7-6.4-3.5-11.4-5.4-14.8c-3-5.4-6.8-8.1-11.5-8.1
	c-5.7,0-10.2,4.9-13.4,14.8c-3.8,11.5-7,25.9-9.8,43.2c-1.6,10.2-2.9,18.4-3.6,24.4c-0.8,6-1.2,9.7-1.2,10.9
	C108.3,127.9,110.7,130.4,115.5,130.4z M131.6,79.3c4-22.6,6.7-34,8.2-34c2.2,0,5,11.4,8.6,34.2c1.3,8.5,1.9,13,1.9,13.4
	c0,1.8-0.9,2.7-2.7,2.7H132c-1.8,0-2.7-0.8-2.7-2.5C129.3,92.7,130,88.1,131.6,79.3z M174.7,124.5c-0.3-1.7-0.4-3.5-0.4-5.4V40.8
	c0-4.3,0.6-7.3,1.7-8.9c1.2-1.6,3.1-2.4,5.8-2.4c3,0,5.2,1.1,6.6,3.4c1.1,1.9,1.7,4.3,1.7,7.3v44.2c0,1.6,0.2,2.5,0.6,2.5
	c0.3,0,0.8-0.7,1.4-2c8.8-18.8,16-35.3,21.6-49.5c0.9-2.3,1.9-3.9,2.9-4.7c1-0.8,2.3-1.3,4-1.3c1.2,0,2.2,0.4,2.9,1.1
	c0.7,0.7,1,1.6,1,2.7c0,3.4-1.2,7.9-3.6,13.5c-2.4,5.6-5.6,12.1-9.5,19.5c-4,7.3-8.3,15.2-13.1,23.7c-0.6,1-0.8,1.9-0.8,2.7
	c0,0.8,0.4,1.7,1.3,2.7c7.3,8,14.8,16,22.2,23.9c2.4,2.6,3.6,4.8,3.6,6.7c0,1.4-0.6,2.5-1.7,3.3c-1.1,0.8-2.4,1.2-3.7,1.2
	c-2.1,0-4.4-1.2-6.8-3.6c-4.1-4.1-10.6-11.9-19.6-23.3c-0.7-0.9-1.3-1.4-1.7-1.4c-0.6,0-0.8,0.8-0.8,2.5v14.9c0,2.7-0.4,4.9-1.3,6.7
	c-1.3,2.8-3.7,4.1-7,4.1C177.7,130.4,175.3,128.4,174.7,124.5z M232.3,110.4c-0.3-3.8-0.5-7.8-0.5-12V44.1c0-2.8,0.3-5.2,0.8-7.2
	c1.2-4.2,4.4-6.3,9.5-6.3h17.5c1.2,0,2.6,0.1,4,0.3c3.6,0.4,5.4,2.1,5.4,4.9c0,1-0.6,2-1.7,3c-1.1,0.9-2.8,1.4-5.1,1.4
	c-1.6,0-3.3,0-5-0.1c-1.7-0.1-3.3-0.1-5-0.1c-3.1,0-4.6,1.7-4.6,5.2v46c0,2,0.3,3.3,0.9,3.8c0.6,0.6,1.5,0.8,2.7,0.8
	c1.8,0,3.6,0,5.5-0.1c1.8-0.1,3.7-0.1,5.5-0.1c2.2,0,3.8,0.3,4.9,1c1.3,0.8,1.9,2.1,1.9,3.9c0,1-0.4,1.9-1.3,2.7
	c-0.9,0.7-2.1,1.1-3.6,1.1l-13.4-0.2c-2.1,0-3.1,0.9-3.1,2.7v3c0,3.2,0.6,5.7,1.7,7.4c1.9,2.6,5.4,4,10.8,4c1.7,0,3.4-0.1,5-0.2
	c1.7-0.2,3.3-0.2,5-0.2c1.1,0,2.1,0.3,2.9,0.8c0.8,0.5,1.3,1.3,1.3,2.4c0,2.1-1.4,3.8-4.1,5c-2.8,1.2-7.5,1.8-14.3,1.8
	c-5.9,0-10.5-0.9-13.7-2.6C236.4,124.7,233.1,118.9,232.3,110.4z M282.8,128.8c1.1,1.1,2.8,1.7,5.2,1.7c5.5,0,8.2-3.6,8.2-10.8
	v-16.1c0-1.6,0.2-2.3,0.6-2.3c0.2,0,0.8,0.6,1.7,1.7c4.9,8.3,9,15,12.4,20.2c3.2,5,6.2,7.5,9.1,7.5c1.7,0,3-0.4,4-1.3
	c1-0.9,1.5-2.1,1.5-3.7c0-2.2-3.7-7.9-11-17.2c-1-1.3-2.1-2.6-3.2-4c-3.1-3.6-4.6-5.7-4.6-6.1c0-0.3,0.2-0.6,0.5-0.8
	c6.4-4,11.1-9.8,14.2-17.3c2.6-6.3,3.9-13.2,3.9-20.7c0-10.4-3.7-18.2-11.1-23.3c-6.4-4.3-13.9-6.5-22.5-6.5
	c-7.5,0-11.3,3.8-11.3,11.3v78.3c0,1.9,0.1,3.7,0.4,5.4C281.1,126.2,281.8,127.7,282.8,128.8z M296.3,42c0-1.4,0.8-2.1,2.3-2.1
	c7,0,11.8,3.3,14.3,9.9c1.1,3.1,1.7,6.4,1.7,10.1c0,5.4-0.9,10.6-2.6,15.8c-1.5,4.6-3.7,8.6-6.7,11.9c-3,3.4-5.3,5.1-7.1,5.1
	c-1.3,0-1.9-0.8-1.9-2.3V42z M339,79.4c-4.2-6.4-6.3-13.6-6.3-21.5c0-5.4,0.9-10.2,2.7-14.5c1.3-3,3-5.6,5.3-7.7
	c4.4-4.1,10.3-6.2,17.6-6.2c15.3,0,22.9,9.8,22.9,29.4c0,4.9-0.4,9.1-1.2,12.6c-1.1,4.8-3,7.3-5.6,7.3c-2.4,0-3.6-1.2-3.6-3.6
	c0-0.6,0.1-1.3,0.2-1.9c1-4.7,1.5-9.4,1.5-14.3c0-3.6-0.4-7-1.2-10c-1.8-6.8-5.5-10.2-11.1-10.2c-4.1,0-7.2,1.9-9.4,5.8
	c-1.8,3.2-2.7,7.4-2.7,12.6c0,5,1.3,9.7,4,14.2c2.4,4.1,6.5,9,12.4,14.7c2.4,2.4,4.6,4.9,6.7,7.4c4.4,5.6,6.6,11.3,6.6,17.1
	c0,5.4-1.5,9.8-4.5,13.2c-3.9,4.5-9.6,6.8-17,6.8c-6.5,0-11.5-2.2-15-6.7c-2.8-3.7-4.1-8.7-4.1-15c0-1.8,0.4-3.3,1.3-4.5
	s2-1.8,3.4-1.8c2.6,0,3.9,1.6,3.9,4.9c0,1.9,0.3,3.9,0.8,6c1.3,4.8,4.2,7.3,8.8,7.3c5.1,0,7.7-2.8,7.7-8.5c0-3.6-1.9-7.5-5.6-11.7
	c-1.7-1.9-3.6-3.8-5.6-5.8C346.1,88.8,341.8,83.8,339,79.4z M112.8,177.4c0,1.3-0.7,1.7-1.7,1.9c-0.5,0.1-1.1-0.1-0.8-0.6
	c0.4-1,0.5-2.5,1.7-2.8C112.8,175.6,112.5,176.9,112.8,177.4z M110.4,165.6c-2,4.3-3.2,9-5.7,13.1c-0.5,0.8-0.9,1.6-1.8,1.9
	c-0.6,0.2-1.3,0.5-1.8,0.1c-0.6-0.5-0.2-1.2,0-1.7c2.4-5.5,4.7-11.1,7.1-16.6c0.3-0.6,0.5-1.7,1.2-1.6c1,0.1,0.7,1.3,0.9,2
	c0.2,0.5,0.2,1.1,0.3,1.7C110.6,164.7,110.6,165.2,110.4,165.6z M107.9,153.3c1.1,0.2,0.7,1.9,1.2,2.9c-0.3,0.9-0.5,1.9-0.9,2.8
	c-2.9,6.8-5.9,13.5-8.9,20.3c-0.3,0.6-0.6,1.1-0.9,1.7c-0.5,0.8-1.3,1-2.1,0.8c-1-0.4-0.5-1.3-0.3-1.8c1.6-5.1,4-9.8,6.1-14.8
	c1.3-3.2,2.8-6.4,4.3-9.6C106.7,154.6,106.8,153.1,107.9,153.3z M106.1,146.2c1.2,0.3,0.8,2,1.4,3c-0.3,0.8-0.6,1.5-0.9,2.3
	c-4.1,9.4-8.5,18.7-12.3,28.3c-0.3,0.8-0.6,1.6-1.2,2.1c-0.8,0.7-1.9,0.8-2.8,0.4c-1-0.4-0.3-1.2,0-1.8c4.8-10.5,9.6-21,13.8-31.7
	c0-0.1,0.1-0.2,0.1-0.2C104.7,147.5,105,146,106.1,146.2z M83.3,179.4c3.1-5.9,6.3-11.8,9.5-17.6c1.9-3.6,3.9-7.1,5.8-10.7
	c0.3-0.6,0.6-1.2,1-1.6c0.6-0.6,1.6-1.3,2.4-0.7c0.7,0.5-0.1,1.3-0.4,1.9c-3.7,10.1-8.4,19.8-12.8,29.6c-0.7,1.6-1.6,2.9-3.4,2.3
	C81.9,182.5,81.8,182.4,83.3,179.4z M77.3,179.4c2.7-5.1,5.5-10.1,8.4-15.1c2.1-3.8,3.9-7.7,6.4-11.3c0.5-0.7,0.8-1.4,1.6-1.8
	c1-0.5,2.3-1.2,3-0.6c1,0.8-0.3,1.8-0.7,2.5c-5,9.3-10.1,18.5-15.1,27.8c-0.4,0.7-0.6,1.6-1.7,1.4C76.9,182.4,76.2,181.4,77.3,179.4
	z M71.4,178.4c3.6-6.3,7.3-12.4,10.7-18.8c1.2-2.3,2.9-4.3,4.4-6.5c0.2-0.3,0.4-0.7,0.7-0.8c1-0.5,2.4-1.2,3.3-0.5
	c0.9,0.7-0.3,1.8-0.7,2.5c-4.6,8.2-9.2,16.4-13.8,24.5c-0.6,1.1-0.9,2.8-2.7,2.4C70.5,181.2,70.2,180.6,71.4,178.4z M66.7,178.2
	c0.4-0.9,0.9-1.7,1.4-2.6c3.7-6.3,6.9-12.8,11-18.9c0.5-0.8,1-1.5,1.5-2.2c0.8-1.1,2.3-1.9,3.2-1.3c1,0.7-0.4,1.9-0.9,2.7
	c-4.6,7.6-8.8,15.5-13.8,22.9c-0.4,0.6-0.4,1.5-1.4,1.3C66.7,179.9,66.2,179.3,66.7,178.2z M71,159.7c-2.5,4.4-5,8.8-7.5,13.2
	c-0.3,0.5-0.5,1.5-1,1.4c-0.9-0.2-0.4-1.2-0.5-1.7c-0.1-6.4,3.5-10.4,8.1-13.7c0.3-0.2,0.8-0.4,0.9-0.3
	C71.7,158.8,71.2,159.3,71,159.7z M64.2,175.2c2.8-6,6.2-11.6,9.6-17.2c0.7-1.1,1.6-2.2,3.1-2.5c0.5-0.1,1.2-0.3,0.9,0.8
	c-0.2,0.4-0.4,0.8-0.7,1.3c-3.7,6.2-7.3,12.4-11.1,18.6c-0.4,0.6-0.5,2.1-1.8,1.4C63.2,177,63.8,175.9,64.2,175.2z M337.6,235.8
	c-0.6-0.3-0.3-1-0.1-1.4c0.8-1.5,1.6-3,2.4-4.5c0.3-0.5,0.4-1.4,1.2-1.1c0.7,0.2,0.7,1,0.7,1.9c-0.3,1.9-1.1,3.7-3,4.9
	C338.5,235.7,337.9,236,337.6,235.8z M332.1,236.1c1.3-3.3,2.6-6.5,4.5-9.5c0.6-0.9,1.3-0.8,2-0.3c0.7,0.5,1.2,1,0.6,2
	c-1.4,2.6-2.8,5.3-4.2,7.9c-0.4,0.8-1.2,1-2,1.1C332.1,237.5,331.8,236.9,332.1,236.1z M326.3,236.4c1.4-4,3.1-7.9,5.1-11.6
	c1-1.8,2.2-0.6,3.3-0.3c1.5,0.4,0.7,1.3,0.3,2.1c-1.3,2.8-2.6,5.6-4,8.3c-0.8,1.5-1.4,3.2-3.4,3.2
	C326,238.2,325.9,237.5,326.3,236.4z M320,237c1.7-4.3,3.1-8.7,5.4-12.7c0.4-0.6,0.8-1.4,1.3-1.6c1-0.5,2.2,0,3.1,0.6
	c0.9,0.6,0.1,1.5-0.2,2.2c-1.6,3.7-3.4,7.4-4.9,11.1c-0.7,1.6-1.6,2.3-3.2,2.1C320,238.9,319.5,238.4,320,237z M314.1,237.8
	c2-5.5,3.8-11.1,6.8-16.1c1-1.7,2.3-0.4,3.3,0c1.3,0.4,0.4,1.3,0.1,2c-2,4.4-4,8.8-6,13.3c-0.7,1.5-1.7,2.3-2.9,2.2
	C313.9,239.3,313.8,238.5,314.1,237.8z M307.4,238.9c2.5-6.2,4.5-12.5,8.3-18.1c0.9-1.3,2-1,3.1-0.6c1.6,0.7,0.4,1.7,0.1,2.4
	c-2.2,5-4.5,10-6.5,15.1c-0.8,2-2.2,2.4-3.2,2.4C307.3,240.5,307,239.9,307.4,238.9z M314.2,220.8c-3.7,6-6.3,12.6-8.8,19.1
	c-0.6,1.7-2.1,1.7-3.4,2.3c-0.7,0.2-1-0.1-1-0.8c0-0.4,0.1-0.9,0.3-1.3c3-6.8,5.6-13.7,9.7-19.9c0.5-0.7,0.8-1.7,2-1.4
	C314.2,219,315.2,219.3,314.2,220.8z M420.7,222.6c-0.3,0.9-1.2,0.4-1.9,0.4c-7.2,0.5-14.3,1.6-21.4,3c-8.6,1.7-16.5,5.3-24.7,7.8
	c-7,2.2-13.7,5.1-20.5,7.7c-9.8,3.8-19.6,7.9-28.8,13c-3.7,2.1-7.8,3.4-11.8,4.6c-5.8,1.8-12.4-0.1-15.5-4.2c-1.1-1.5-1.1-2.7,0-4.1
	c1.8-2.4,4.3-3.8,6.9-5.2c6.3-3.2,13.1-3.7,20-4.3c5-0.4,10-1.1,15-2.2c3.4-0.8,5.4-2.9,6.6-6.1c1.4-3.7,2.2-7.4,2.5-11.3
	c0.7-10.2,5.6-18.6,10.8-27.1c4.1-6.7,9.8-10.3,16.9-12.9c12.7-4.6,25.7-7.8,39-10.3c0.6-0.1,1.3-0.1,1.9-0.2
	c0.6,0.1,1.4-0.3,1.7,0.4c0.3,0.7-0.5,1.1-0.9,1.5c-7,8-13.3,16.6-19.1,25.6c-0.7,1.1-1.3,2.2-1.7,3.4c-1.1,2.8-0.5,4.3,2.3,5.7
	c7.5,3.9,15,7.9,21.6,13.3C420,221.6,420.9,222,420.7,222.6z M65.4,206.7c0.9,1.9,0.4,2.7-1.8,2.4c-1-0.2-2-0.3-2.9-0.5
	c-6.1-1.7-12.5-2.3-18.5-4.2c-5.6-1.7-11.1-3.6-16.7-5.5c-4.3-1.4-8.4-3.4-12.5-5.1c-2.5-1-2.5-1.5-0.6-3.3
	c6.6-6.1,13.1-12.1,19.7-18.2c2.4-2.2,2.3-2.1,0.2-4.8c-4.1-5.2-6.8-11-8.8-17.3c-2.4-7.7-4-15.6-5.3-23.5c-0.1-0.7-0.5-1.6,0.4-1.9
	c0.6-0.2,1,0.6,1.5,1c8,7.8,17.4,13.5,28,17.1c5,1.7,10.2,2,15.5,0.6c7.5-2,14.9-4.4,22.1-7.2c4.8-1.9,9.9-2.1,15-1.4
	c2.4,0.3,4.1,1.5,4.8,3.8c0.7,2.5-0.9,4.1-2.7,5.5c-1.8,1.3-3.9,1.7-6.1,2.1c-5.1,0.8-10.1,2.2-15,3.5c-5.1,1.3-9.8,3.9-14.1,6.7
	c-7.3,4.8-9.4,12.1-8.8,20.5c0.7,9.7,3.3,19,6.2,28.2C65,205.7,65.2,206.3,65.4,206.7z M283.8,182c0-0.2,0-0.4,0.1-0.6
	c0.2-0.5,0.3-1.1,0.5-1.6c0.4-0.8,0.6-1.6,0.8-2.4c0.2-1.2,0.8-2.3,1.3-3.3c0.1-0.3,0.3-0.6,0.4-1c0.3-1,0.7-1.9,1.2-2.9
	c0.6-1.1,1.1-2.4,1.5-3.6c0.2-0.5,0.3-0.9,0.8-1.4c0.1,1.2,0.4,2.3,0.1,3.4c-0.1,0.4-0.1,0.8,0,1.2c0.1,1.1,0,2.1,0.1,3.3
	c0,0.8,0,1.7,0,2.6c0.1,0.3,0.1,0.6,0.1,1c-0.2,1.3-0.1,2.7,0,4c0,0.5,0,0.9,0,1.4c0,0.4-0.3,0.7-0.8,0.8c-0.3,0.1-0.5,0.1-0.8,0.1
	c-1.5,0-3.1,0.1-4.6,0C284,182.8,283.8,182.6,283.8,182z M71.6,233.3c-0.1,1.7,0.5,3.2,1.5,4.5c2.6,3.3,5.6,6.2,9.4,8
	c12,5.6,24.7,8.7,42,8.7c7.2,0.3,17.8-2.6,27.9-7.2c10.1-4.6,20.2-9.2,30.8-12.6c12.3-4,23.8-10,36.4-13.1c7.1-1.8,13.9-4.8,21.1-6
	c4.2-0.7,8.5-0.9,12.5-2c13-3.7,26.1-4.2,39.4-2.8c9.8,1,19.4,3.2,28.8,6.4c7,2.4,14.3,3.9,20.5,8.3c1.4,1,1.9,0.4,1.9-1.1
	c-0.1-2.6,0-5.2,0.5-7.8c2.1-11.1,7.3-20.7,14.3-29.4c2.7-3.3,5.5-6.5,7.6-10.2c2.8-5.3,2-9.2-2.9-12.7c-5.7-4.1-12.2-6.6-18.7-9
	c-10-3.7-20.4-5.5-30.8-7.4c-7.4-1.4-14.8-2.8-22.2-3.3c-10.5-0.6-21.1-1.1-31.7,0.1c-8.3,1-16.8,1.3-25,2.9
	c-7.6,1.5-15.2,2.9-22.7,5.2c-5,1.5-10.1,2.5-15.1,4.1c-9.8,3.1-19.5,6.5-29.3,9.6c-7.7,2.5-15.7,4.1-23.4,6.7
	c-11.1,3.7-22.2,7.6-33.7,10c-12.2,2.5-24.5,3.2-36.9,1.7c-4.1-0.5-8.6-0.9-11.6-4.4c-0.3-0.3-0.7-0.8-1.1-0.6
	c-0.6,0.3-0.3,0.9-0.2,1.4c1.4,7.4,3.1,14.7,5.3,21.9C69.1,213,72.3,222.8,71.6,233.3z M268.5,185.1c0-0.2,0.1-0.2,0.2-0.3
	c1-1,2-2.2,3.1-3.2c0.9-0.8,1.2-0.4,1.6-0.3c0.5,0.1,0.7,0.2,1.2,0.4c1.1,0.3,1.7,0,2.1-0.9c0.4-1.2,0.8-2.4,1.3-3.6
	c0.8-1.7,1.3-3.5,1.8-5.3c0-0.2,0-0.2,0.1-0.3c0.4-1.1,0.9-2.1,1.3-3.2c1-2.7,2.5-5.3,3.6-7.9c0.3-0.8,0.8-1.5,1.1-2.3
	c0.3-0.5,0.5-1,0.8-1.5c0.1-0.2,0.1-0.5,0.3-0.7c0.5-0.9,1-1.7,1.2-2.7c0.1-0.5,0.4-0.8,0.9-0.8c0.3-0.1,0.6-0.1,0.8,0.2
	c0.1,0,0.2,0.1,0.2,0.2c1.1,0.9,2.3,1.2,3.8,1.1c0.8-0.1,1.6,0,2.4,0.2c0.7,0.1,1.1,0.4,1.2,1c0.2,0.8,0.5,1.7,0.6,2.5
	c0.1,0.5,0.1,0.9,0.1,1.5c0,0.8,0,1.8,0,2.6c0,1.3-0.1,2.6,0,3.9c0,0.8,0,1.7,0.1,2.5c0,0.9,0,1.9,0,2.8c-0.1,2.4-0.2,4.6-0.2,7
	c0.1,1.1,0.2,2.1,0.4,3.2c0.1,0.4,0.3,0.5,0.7,0.4c0.3,0,0.6-0.1,0.9-0.2c0.4-0.1,0.9-0.1,1.4,0c0.1,0.6-0.2,1-0.5,1.4
	c-0.5,0.5-1,1-1.5,1.6c-0.7,0.5-1,1.3-0.9,2c0.1,1.1,0.3,2.2,0.3,3.4c0.1,0.5,0.1,1.1,0.1,1.6c0.1,1.3,0.2,2.5,0.7,3.7
	c0.2,0.6,0.3,1.3,0.4,1.9c0,1.1,0.3,2.1,0.7,3.1c0.2,0.4,0.3,0.8,0.5,1.2c0.2,0.6-0.1,1-0.8,1.1c-0.9,0.2-1.8,0.4-2.7,0.3
	c-0.9,0-1.9,0-2.8-0.1c-0.9,0-1.4-0.3-1.8-1.1c-0.1-0.3-0.2-0.6-0.3-0.9c-0.3-1.5-0.6-2.9-1-4.3c-0.6-1.9-0.6-3.9-0.9-5.8
	c-0.2-0.5-0.1-0.9-0.1-1.5c0-0.2,0-0.5,0-0.8c-0.1-0.4-0.3-0.6-0.8-0.6c-0.3,0-0.4,0-0.7,0.1c-1.9,0.2-3.7,0.4-5.7,0.5
	c-0.5,0.1-1.1,0.2-1.6,0.4c-0.4,0.2-0.8,0.5-0.9,0.9c-0.2,0.7-0.5,1.3-0.6,1.9c-0.2,1.6-0.8,3-1.2,4.5c-0.5,1.3-0.8,2.6-1.2,3.9
	c-0.4,1.2-0.8,2.3-0.9,3.6c0,0,0,0,0,0.1c-0.3,0.8-0.9,1-1.6,0.6c-1.4-0.9-2.8-2-3.8-3.2c-0.5-0.5-0.6-1.2-0.4-1.8
	c0.2-0.8,0.4-1.7,0.6-2.6c0-0.1,0.1-0.2,0.1-0.3c0.9-1.9,1.3-3.9,1.9-5.8c0.2-0.6,0.3-1.2,0.3-1.8c0.1-0.5-0.2-0.7-0.7-0.9
	c-0.2,0-0.8-0.2-0.9-0.2c-1.4-0.2-0.5-0.2-1.9-0.4c-0.8-0.2-1.3-0.6-2.1-0.8C268.3,185.8,268.2,185.4,268.5,185.1z M226.9,161.7
	c0.2-0.6,0.7-0.9,1.2-1.1c1.3-0.6,2.6-1,4.1-0.9c0.7,0.1,1.3,0.4,1.6,0.9c0.2,0.4,0.4,0.8,0.6,1.2c0.2,0.5,0.4,1.1,0.5,1.6
	c0.2,0.7,0.5,1.3,1,1.9c0.6,0.9,1.2,1.8,1.6,2.8c0,0.1,0.1,0.1,0.1,0.2c0.9,1.4,1.6,2.8,2.5,4.2c0.2,0.3,0.4,0.7,0.6,1
	c0.3,0.3,0.6,0.7,0.9,1.1c0.7,0.7,1.3,1.5,1.8,2.4c0.3,0.5,0.6,1,0.9,1.4c1.1,1.3,2.2,2.7,3.4,3.9c1,1.1,1.9,2.1,2.9,3.2
	c0.2,0.2,0.3,0.4,0.6,0.7c0.4,0.5,1,1,1.4,1.4c0.3,0.4,0.8,0.7,1.1,1.1c0.6,0.8,1.6,1.3,2.5,1.7c0.4-0.2,0.4-0.5,0.4-0.8
	c0-0.7-0.1-1.4-0.2-2.1c-0.2-1.3-0.4-2.6-0.5-4c0-1.4-0.2-2.7-0.4-4.1c-0.1-0.3-0.2-0.7-0.2-1c0-1.2-0.2-2.3-0.5-3.4
	c-0.2-0.8-0.3-1.6-0.4-2.4c-0.1-0.3-0.1-0.5-0.2-0.8c-0.1-0.7-0.3-1.3-0.4-2c-0.2-1-0.3-1.9-0.4-2.8c0-0.3-0.1-0.5-0.1-0.7
	c-0.1-0.5-0.3-1-0.4-1.5c-0.4-2.9-1.2-5.6-2-8.3c-0.1-0.6-0.3-1.2-0.3-1.8c-0.1-0.5,0.1-1,0.5-1.4c1.7-1.6,3.7-1.8,5.6-0.9
	c0.9,0.4,1.5,1.1,1.7,2.1c0.1,0.6,0.3,1.3,0.5,1.8c0,0.1,0.1,0.3,0.2,0.4c0.5,2,0.9,3.9,1.4,5.9c0.2,0.9,0.5,1.8,0.6,2.7
	c0.2,1,0.3,2.1,0.5,3.2c0.1,0.7,0.3,1.5,0.4,2.2c0.3,1.9,0.5,3.7,0.8,5.5c0.1,0.4,0.1,0.8,0.1,1.2c0.4,1.5,0.6,3,1,4.5
	c0.2,0.7,0.2,1.4,0.2,2.1c0.1,1.4,0.2,2.7,0.3,4.1c0.1,1.4,0.1,2.7,0.1,4.1c0,0.1,0,0.2,0,0.4c-0.2,1.6-0.1,3,0.1,4.6
	c-0.1,0.2,0,0.3,0,0.5c-0.1,1.6-0.7,2.5-2.4,3.1c-0.6,0.2-1.1,0.4-1.7,0.4c-1.5,0.2-2.8-0.3-3.9-1.1c-1.5-0.8-2.9-1.9-4.3-2.8
	c-0.2-0.1-0.4-0.3-0.5-0.5c-0.4-0.5-1-1-1.5-1.3c-0.3-0.2-0.6-0.4-0.8-0.6c-0.8-0.8-1.7-1.6-2.5-2.3c-0.3-0.3-0.5-0.5-0.7-0.8
	c-0.5-0.7-1-1.3-1.6-1.8c-0.4-0.4-0.7-0.8-1-1.2c-0.5-1.1-1.3-1.9-2.1-2.7c-0.4-0.5-0.9-0.8-1.3-1.4c-0.3-0.5-0.7-0.9-1-1.3
	c-0.2-0.4-0.5-0.8-0.7-1.3c-0.3-0.5-0.7-1-1.1-1.5c0-0.1-0.2-0.2-0.5-0.4c-0.1,1.6,0.1,2.8,0.6,4.1c0.1,0.3,0.1,0.6,0.1,0.8
	c0.1,1.3,0.1,2.6,0.6,3.9c0.3,0.8,0.5,1.6,0.7,2.5c0,0.1,0.1,0.3,0,0.4c0.1,1.3,0.4,2.5,0.8,3.7c0.3,1.3,0.6,2.5,0.9,3.8
	c0,0.2,0.1,0.4,0.1,0.7c0.3,1,0.6,2,0.9,3c0.3,1,0.5,1.9,0.8,2.9c0.2,0.7,0.1,1.5-0.3,2.3c-0.4,0.6-0.9,1.1-1.7,1.2
	c-0.5,0.1-0.9,0.2-1.4,0.3c-0.7,0.2-1.5,0.1-2.2,0c-0.3,0-0.6-0.2-0.7-0.3c-0.7-0.5-1.2-1.1-1.5-1.9c-0.6-1.9-1.3-3.8-1.6-5.8
	c-0.1-1.1-0.2-2.1-0.7-3.1c-0.1-0.1-0.1-0.2-0.1-0.4c-0.1-1.7-0.9-3.2-1.2-5c-0.2-1-0.5-2-0.4-3.1c0-0.1-0.1-0.3-0.1-0.4
	c-0.5-1.9-0.6-4-1.2-5.9c-0.2-0.8-0.4-1.6-0.5-2.5c-0.2-0.8-0.3-1.6-0.4-2.4c0-0.5-0.1-1.1-0.2-1.8c-0.1-0.8-0.1-1.6-0.2-2.4
	c-0.1-0.9-0.2-1.8-0.2-2.6c-0.1-1.5-0.4-2.8-0.4-4.3c0-0.4-0.1-0.8-0.2-1.3c-0.1-1.1-0.3-2.3-0.4-3.5
	C226.6,162.9,226.8,162.3,226.9,161.7z M183.4,174.9c0.1-0.6,0.6-1,1-1.3c1.3-0.8,2.5-1.4,4-1.4c0.7,0,1.3,0.2,1.7,0.7
	c0.3,0.4,0.5,0.7,0.7,1.1c0.2,0.5,0.5,1,0.7,1.5c0.3,0.7,0.7,1.2,1.2,1.8c0.7,0.8,1.4,1.6,1.9,2.6c0,0.1,0.1,0.1,0.1,0.2
	c1,1.3,2,2.6,3,3.8c0.3,0.3,0.5,0.6,0.8,1c0.4,0.3,0.7,0.7,1,1c0.8,0.6,1.5,1.4,2.1,2.1c0.4,0.4,0.7,0.9,1.1,1.2
	c1.3,1.2,2.5,2.4,3.9,3.5c1.1,0.9,2.2,1.9,3.3,2.8c0.2,0.2,0.4,0.4,0.6,0.6c0.5,0.4,1.1,0.9,1.6,1.3c0.4,0.4,0.9,0.6,1.3,1
	c0.7,0.7,1.8,1,2.7,1.4c0.4-0.2,0.3-0.6,0.3-0.8c-0.1-0.7-0.3-1.4-0.5-2c-0.4-1.3-0.7-2.6-1-3.9c-0.2-1.4-0.6-2.7-0.9-4
	c-0.1-0.3-0.3-0.6-0.3-0.9c-0.1-1.2-0.5-2.2-1-3.3c-0.3-0.8-0.5-1.5-0.7-2.3c-0.1-0.3-0.2-0.5-0.3-0.8c-0.2-0.7-0.5-1.3-0.6-2
	c-0.3-0.9-0.5-1.8-0.8-2.7c0-0.3-0.2-0.5-0.2-0.7c-0.2-0.5-0.4-1-0.5-1.4c-0.7-2.8-1.9-5.4-3.1-8c-0.2-0.6-0.5-1.1-0.6-1.7
	c-0.2-0.5-0.1-1,0.3-1.5c1.5-1.8,3.4-2.3,5.5-1.6c1,0.3,1.6,0.9,1.9,1.9c0.2,0.6,0.5,1.2,0.7,1.8c0,0.1,0.1,0.3,0.2,0.4
	c0.7,1.9,1.4,3.8,2.2,5.7c0.3,0.9,0.7,1.7,0.9,2.6c0.3,1,0.6,2.1,0.9,3.1c0.2,0.7,0.5,1.5,0.7,2.2c0.5,1.8,1,3.6,1.4,5.4
	c0.1,0.4,0.2,0.8,0.3,1.2c0.5,1.4,1,2.9,1.5,4.3c0.3,0.6,0.4,1.4,0.5,2.1c0.3,1.4,0.6,2.7,0.8,4c0.3,1.4,0.4,2.7,0.7,4
	c0,0.1,0,0.2,0,0.4c0,1.6,0.3,3,0.6,4.5c0,0.2,0,0.3,0.1,0.5c0.1,1.6-0.4,2.6-2,3.4c-0.5,0.3-1.1,0.5-1.7,0.6c-1.5,0.4-2.8,0-4-0.6
	c-1.6-0.6-3.1-1.5-4.6-2.3c-0.2-0.1-0.4-0.3-0.6-0.5c-0.5-0.5-1.1-0.9-1.7-1.1c-0.3-0.1-0.6-0.4-0.9-0.5c-0.9-0.7-1.8-1.3-2.7-1.9
	c-0.3-0.2-0.6-0.5-0.8-0.7c-0.6-0.6-1.2-1.1-1.8-1.6c-0.5-0.3-0.8-0.7-1.1-1.1c-0.6-1-1.5-1.7-2.5-2.4c-0.5-0.4-1-0.7-1.5-1.2
	c-0.3-0.5-0.8-0.8-1.2-1.1c-0.3-0.4-0.6-0.8-0.9-1.2c-0.4-0.4-0.8-0.9-1.2-1.4c0-0.1-0.2-0.2-0.5-0.3c0.1,1.6,0.5,2.8,1.1,4
	c0.1,0.3,0.2,0.6,0.2,0.8c0.2,1.3,0.5,2.6,1,3.8c0.4,0.7,0.7,1.5,1,2.4c0,0.1,0.1,0.3,0,0.4c0.2,1.3,0.7,2.4,1.2,3.5
	c0.5,1.2,0.9,2.4,1.3,3.6c0.1,0.2,0.1,0.4,0.2,0.7c0.4,1,0.9,1.9,1.3,2.9c0.4,0.9,0.8,1.8,1.1,2.8c0.3,0.7,0.3,1.5,0,2.3
	c-0.3,0.7-0.8,1.2-1.5,1.4c-0.5,0.2-0.9,0.3-1.3,0.5c-0.7,0.3-1.5,0.3-2.2,0.3c-0.3,0-0.6-0.1-0.8-0.2c-0.7-0.4-1.4-0.9-1.7-1.7
	c-0.8-1.8-1.8-3.6-2.3-5.6c-0.2-1-0.5-2.1-1.1-3c-0.1-0.1-0.1-0.2-0.1-0.4c-0.3-1.6-1.3-3.1-1.8-4.8c-0.3-0.9-0.7-1.9-0.8-3
	c0-0.1-0.1-0.3-0.1-0.4c-0.8-1.8-1.1-3.9-1.9-5.7c-0.3-0.8-0.6-1.6-0.8-2.4c-0.3-0.8-0.5-1.5-0.7-2.3c-0.1-0.5-0.3-1.1-0.4-1.7
	c-0.2-0.8-0.3-1.6-0.5-2.4c-0.2-0.9-0.4-1.7-0.5-2.5c-0.3-1.4-0.8-2.7-0.9-4.2c0-0.4-0.2-0.8-0.3-1.3c-0.3-1.1-0.6-2.2-0.8-3.4
	C183.2,176.1,183.3,175.5,183.4,174.9z M143.7,192.4c0.4-0.6,0.8-1.3,1.4-1.9c1-1,2-1.9,3.1-2.7c0.4-0.2,0.8-0.6,1.1-0.8
	c1.2-1.1,2.7-1.6,4.2-2.1c0.3-0.1,0.7-0.3,0.9-0.3c1.3-0.4,2.4-0.8,3.4-1.2c0.2-0.1,0.5-0.1,0.8-0.1c1.3-0.3,2.6-0.5,4-0.7
	c2.4-0.3,4.8-0.2,6.9,0.8c0.9,0.4,1.6,0.8,2.4,1.4c1,0.7,2,1.5,3,2.2c0.3,0.2,0.4,0.4,0.6,0.7c0.6,0.7,1.3,1.4,1.8,2.1
	c0.9,1.4,1.9,2.8,2.5,4.3c0.2,0.6,0.6,1.1,0.8,1.6c1,1.8,1.5,3.8,2.1,5.7c0.1,0.2,0.1,0.5,0.2,0.7c0.4,0.9,0.6,1.9,0.7,2.9
	c0.3,1.9,0.6,3.8,0.9,5.6c0,0.3,0,0.6,0.1,0.9c0.1,1.6,0.1,3.3,0.1,4.9c0,0.7-0.2,1.5-0.3,2.2c-0.5,2.8-1.9,5.3-3.8,7.6
	c-0.3,0.4-0.7,0.8-1.2,1.2c-0.7,0.7-1.5,1.3-2.2,1.9c-0.8,0.7-1.8,1.2-2.7,1.7c-1.1,0.7-2.4,0.9-3.6,0.9c-1,0-2,0-3,0.2
	c-1.5,0.3-2.8,0-4-0.5c-2-0.8-3.7-1.9-5.1-3.4c-0.1-0.1-0.2-0.2-0.3-0.2c-1.4-1-2-2.4-2.8-3.7c-1.4-2.4-2.7-4.8-3.7-7.4
	c-0.4-1.1-1-2.2-1.5-3.3c-0.2-0.5-0.5-0.9-0.9-1.1c-0.4-0.3-0.9-0.6-1.2-0.8c-0.3-0.2-0.5-0.5-0.8-0.8c-0.3-0.3-0.5-0.7-0.9-0.9
	c-1.4-1.2-2.4-2.6-2.9-4.2c-0.3-0.9-0.6-1.7-0.8-2.6c-0.3-0.6-0.4-1.2-0.5-1.9c0-0.9-0.1-1.8-0.2-2.8c0.1-0.1,0-0.2,0-0.2
	C142.4,196.3,142.6,194.3,143.7,192.4z M105.1,222.6c0.3-1.9,0.8-3.7,1.2-5.5c0.1-0.3,0.1-0.6,0.3-0.9c0.8-1.7,1.2-3.4,2.2-5
	c1-1.8,2.2-3.6,3.4-5.3c0.4-0.7,1.1-1.4,1.6-2c0.8-0.8,1.5-1.5,2.3-2.3c2.5-2.4,5.4-4.2,8.9-5.1c1-0.3,2-0.5,3.1-0.7
	c1-0.2,2-0.3,3.1-0.3c1.3,0,2.6,0,3.9,0.2c0.9,0.1,1.8,0.4,2.7,0.7c0.4,0.2,0.9,0.5,1.2,0.8c1.6,1.8,3,3.7,3.1,6.1
	c0,0.4,0.1,0.7,0.1,1c-0.1,0.7-0.5,1.3-1.1,1.5c-1,0.5-2.1,0.7-3.3,0.7c-0.3,0-0.5,0-0.8,0c-1.5,0-2.3-0.7-2.6-1.8
	c-0.2-0.9-0.4-1.8-0.7-2.7c-0.2-0.8-0.5-1.6-0.9-2.3c-0.4-0.8-1.3-1.4-2.2-1.9c-0.5-0.2-1-0.1-1.4,0c-1.2,0.4-2.2,0.8-3.1,1.6
	c-0.4,0.5-1,0.8-1.5,1.1c-0.6,0.4-1.2,0.9-1.6,1.5c-0.1,0.2-0.2,0.4-0.5,0.5c-0.8,0.7-1.4,1.5-2,2.4c-0.3,0.5-0.8,1-1.1,1.6
	c-1.6,2.2-2.7,4.6-3.6,7.1c-0.7,1.8-1.2,3.7-1.6,5.6c-0.2,0.6-0.5,1.3-0.6,2c-0.4,1.8-0.6,3.6-1,5.4c-0.1,0.4,0,0.8,0,1.2
	c0.1,1,0.2,2,0.3,3c0.1,0.4,0.3,1,0.4,1.4c0.6,1.8,1.3,3.4,2.2,5c0.4,0.6,0.8,1.1,1.2,1.7c0.5,0.5,0.9,1.1,1.5,1.6
	c0.3,0.3,0.6,0.5,1.1,0.7c0.6,0.3,1.2,0.6,1.7,1.2c0.2,0.1,0.5,0.3,0.6,0.4c0.9,0.2,1.6,0.3,2.5,0.4c0.3,0,0.8-0.1,1-0.3
	c0.8-0.5,1.4-1,2-1.8c0.4-0.7,1-1.5,1.3-2.2c0.4-0.8,0.9-1.6,1.1-2.5c0.6-1.3,1.1-2.6,1.6-4c0.2-0.6,0.3-1.2,0.4-1.8
	c0.2-0.8,0.3-1.6,0.5-2.3c0.2-1.2,0.5-2.3,0.6-3.4c0-0.5-0.1-0.9-0.1-1.4c-0.8-0.2-1.4,0.1-1.8,0.5c-0.8,0.8-1.6,1.7-1.8,2.8
	c0,0.2-0.1,0.3-0.2,0.5c-0.1,0.2-0.6,0.4-0.8,0.1c-0.1,0-0.2-0.1-0.2-0.1c-0.9-0.8-2.1-1.3-3.1-1.9c-0.3-0.1-0.5-0.3-0.7-0.4
	c-0.9-0.5-1.4-1.3-1-2.2c0.2-0.5,0.4-1,0.6-1.4c0.1-0.3,0.4-0.5,0.4-0.8c0.4-0.8,1.1-1.3,1.9-1.6c0.4-0.2,0.8-0.5,1.2-0.5
	c1.5-0.2,3.1-0.6,4.6-0.6c2.2,0,4.3,0.2,6.6,0.1c1.4,0,1.3,0.2,2.7-0.2c0.5-0.1,0.9,0,1.4,0.3c1.2,0.6,2.2,1.3,3,2.3
	c0.3,0.3,0.6,0.5,0.8,0.8c0.1,0.1,0.3,0.2,0.4,0.3c0.2,0.2,0.4,0.5,0.2,0.8c-0.1,0.3-0.5,0.3-0.8,0.4c-0.2,0-0.3,0-0.5,0
	c-0.8,0.1-1.7,0.1-2.5,0.1c-0.8,0.1,0.1,0-0.7,0.1c-1,0-1.3,0.2-1.3,1.1c0,0.4,0.1,0.8,0.1,1.2c0.2,1.1,0.3,2.2,0.4,3.3
	c0.2,1.7,0.5,3.4,1,5c0.2,0.6,0.4,1.3,0.5,2c0.2,1.3,0.6,2.6,1,3.7c0.2,0.4,0.3,0.8,0.4,1.3c0.3,1.5,0.8,3,1.5,4.5
	c0.1,0.2,0.2,0.4,0.2,0.7c0.1,0.3-0.1,0.7-0.5,0.8c-0.2,0.1-0.3,0.1-0.5,0.1c-1.8,0.2-3.5,0.4-5.3,0.5c-1.2,0.1-1.5-0.2-2-1.2
	c-0.7-1.8-1.2-3.6-1.5-5.5c0-0.2-0.2-0.4-0.3-0.8c-0.1,0.2-0.3,0.3-0.4,0.5c-0.5,1.2-1.3,2.1-2.2,3.1c-0.5,0.6-1.2,0.9-1.9,1.2
	c-1.7,0.5-3.2,1-4.9,1.4c-0.5,0.1-1,0.2-1.5,0.2c-1,0-2-0.1-3.1-0.1c-1.5,0.1-3-0.3-4.5-0.6c-1.1-0.2-2.2-0.4-3.3-0.9
	c-3.2-1.5-5.7-3.6-7.2-6.6c-0.7-1.3-1-2.7-1.4-4.2c-0.4-2-0.8-3.8-0.8-5.8C104.7,225.8,104.8,224.2,105.1,222.6z M150.6,191.9
	c0.1-0.9,0.2-1.8,0.9-2.6c1.1-1.2,2.3-2.2,4-2.8c0.2-0.1,0.5-0.2,0.7-0.2c1.9-0.1,3.8-0.2,5.5,0.5c1.3,0.6,2.7,1.1,3.9,1.9
	c0.3,0.2,0.6,0.4,0.9,0.7c0.3,0.2,0.5,0.4,0.9,0.6c1.2,0.9,2.2,2,2.8,3.3c0.3,0.5,0.5,0.9,0.8,1.4c0.5,0.6,0.8,1.3,1.2,2
	c0.4,1.1,0.9,2.2,1.4,3.1c0.1,0.2,0.1,0.3,0.1,0.4c0.6,1.9,1.3,3.7,1.9,5.7c0.3,0.6,0.3,1.3,0.5,1.9c0.5,1.8,0.8,3.5,1.1,5.4
	c0.1,0.8,0.2,1.5,0.2,2.3c0,1.1,0,2.2-0.1,3.3c-0.1,1.4-0.2,2.9-0.6,4.3c-0.2,1.1-0.7,2.1-1.2,3.1c-0.2,0.4-0.5,0.8-0.9,1.1
	c-0.5,0.4-1.1,0.7-1.6,1.1c-0.8,0.5-1.7,0.6-2.5,0.3c-1-0.3-1.9-0.7-2.7-1.4c-1.1-0.8-2.1-1.7-2.9-2.8c-0.9-1.2-1.8-2.4-2.6-3.6
	c-0.1-0.1-0.2-0.3-0.3-0.5c-0.7-1.5-1.4-2.9-2.1-4.3c-0.1-0.4-0.3-0.7-0.3-1.1c0.1-0.7,0.3-1.3,1-1.6c0.6-0.2,1-0.5,1.5-0.8
	c1.8-0.6,3.3-1.5,4.9-2.5c1.2-0.7,2-1.8,2.8-2.9c0.4-0.5,0.6-1.1,1.2-1.4c0.1-0.1,0.1-0.2,0.2-0.3c0.2-0.4-0.1-0.9-0.5-0.9
	c-0.2,0.1-0.3,0-0.3,0.1c-1.5,0.3-3,0.8-4.4,1.3c-0.3,0.2-0.5,0.3-0.8,0.4c-0.8,0.5-1.5,1.1-1.7,1.9c-0.2,0.7-0.6,1.2-1.3,1.6
	c-0.1,0.1-0.1,0.1-0.2,0.2c-1.1,0.5-2.2,0.3-3.1,0c-0.9-0.2-1.3-0.9-1.5-1.6c-0.5-1.6-0.8-3.3-1.2-4.9c-0.2-1.1-0.4-2.1-0.3-3.2
	c0-0.2,0-0.2,0-0.4c-0.4-1.9,0-3.8,0.1-5.6c0-0.2,0.1-0.5,0.2-0.7c0.1-0.2,0.1-0.4,0.2-0.6c0.1-0.8-0.4-1.3-1.2-1.2
	c-1,0.2-1.9,0.5-2.8,0.7c-0.3,0.1-0.7,0.2-0.9,0.2C150.9,192.6,150.5,192.4,150.6,191.9z M207.8,140.1c-3.6,1.5-7.4,2.4-10.9,3
	c3.3,0.7,5.8,1.7,8,3.2c1,0.5,1,1.2,0.9,1.5c-0.1,0.2-0.2,0.4-0.4,0.5c-0.1,0.1-0.3,0.2-0.4,0.3c0,0-0.2,0-0.2,0.1l-0.6,0.1
	c-0.8,0.1-1.6,0.1-2.5,0.1l-0.3,0c-0.4,0-0.8,0-1.2,0c-3.9,0-7.2-0.9-9.6-2.7c-0.2-0.1-0.4-0.2-0.5-0.4c-0.7-0.7-1.5-1-2.6-1
	c-0.6,0-1.2,0.1-1.7,0.2c-4.5,0.7-9.1,1-13.4,1.2c2.2,1,3.9,2.4,5.3,3.6c0.5,0.5,0.7,0.9,0.6,1.4c-0.2,0.7-1,1-1.2,1.1
	c-0.8,0.2-1.9,0.2-2.7,0.1c-4.1-0.6-7.2-2.3-9.4-5.1c-0.4-0.6-0.7-0.7-1-0.7l-4.4,0.4c-1.9,0.2-3.8,0.3-5.8,0.5
	c2.4,0.9,4.6,2,6.5,3.3c0,0,0.1,0,0.1,0.1c0.3,0.1,1.2,0.6,0.9,1.6c-0.2,1.1-1.3,1.3-1.8,1.3c-2.7,0.4-5.4,0.1-8.3-1
	c-1.9-0.7-3.7-1.8-5.4-3.3c-0.7-0.6-1.2-0.8-2.1-0.6c-3.9,0.9-7.9,2.4-12.1,4.6c1.7,0,3.4,0.2,5.1,0.6c1.5,0.3,2.7,0.8,3.8,1.4
	c0.8,0.3,1.1,0.8,1,1.4c-0.1,0.9-1,1.2-1.3,1.2c-2.6,0.7-4.8,1-6.8,1c-3.2,0-5.2-0.8-6.6-1.6c-0.9-0.5-1.3-0.4-2.1,0.2
	c-1.8,1.4-3.5,3-5,4.4c1.4-0.4,2.8-0.6,4.4-0.6c2.7,0,5.4,0.6,7.4,1.1l0.2,0c0.4,0.1,1.4,0.3,1.5,1.3c0.1,1.3-1.3,1.7-1.7,1.8
	c-3.5,0.9-6.6,1.7-10,1.7l-0.6,0c-1.8,0-3.7,0-5.6-0.1c-0.5,0-0.7,0.1-1,0.4c-0.2,0.3-0.4,0.6-0.6,0.8c-0.4,0.5-0.8,1-1.1,1.5
	c-0.2,0.3-0.5,0.6-0.9,0.8c-0.7,3.1-2,5.8-3.8,8.4c-0.4,0.6-1,0.9-1.6,0.4c-0.6-0.4-0.1-1,0.2-1.4c1.3-2.6,2.3-5.2,3.3-7.9
	c-0.2-0.4-0.3-1,0.2-1.8c0.6-1,1.3-1.9,2.2-2.8c0.5-0.4,0.7-0.9,0.5-1.8c-0.5-2.5-0.5-4.7-0.2-6.7c0-0.3,0.1-0.5,0.2-0.7
	c0.2-1.3,0.7-2.6,1.2-3.8c0.4-0.9,0.8-1.9,1.3-2.8c0.1-0.1,0.1-0.2,0.2-0.3c0.8-1.2,1.8-2.4,3.1-3.4c0.5-0.4,0.9-0.5,1.4-0.3
	c0.5,0.2,0.8,0.7,0.9,1.4c0.2,1.4,0.2,2.8-0.1,4.2c-0.4,2.5-1,5.2-2,7.7c0.4-0.3,0.8-0.7,1.2-1c1.6-1.4,3.2-2.8,5-4
	c0.1-0.1,0.2-0.2,0.2-0.5l0.1-0.2c0.1-0.4,0.3-0.8,0.4-1.3c1-3,2.8-5.8,5.1-8.1c0.9-1,2-1.9,3.2-2.6l0.3-0.2c0,0,0,0,0,0
	c0.4-0.3,1.2-0.5,1.8,0c0.7,0.6,0.4,1.5,0.3,1.9c-0.9,2.5-2.1,4.7-3.8,6.7c3.5-1.7,7.2-3,11.3-3.9c0.3-0.1,0.4-0.2,0.6-0.5
	c2.1-3.8,4.7-6.6,8-8.5c1-0.6,2-0.9,2.9-1.3l0.7-0.3c0.5-0.2,1.4-0.3,1.8,0.3c0.3,0.3,0.4,0.9-0.1,1.8c-1.4,2.2-2.7,3.9-4.2,5.2
	c-0.6,0.5-1.5,1.2-2.3,1.8l0.1,0c2.4-0.3,4.4-0.5,7-0.7l1.7-0.1c1.4-0.1,2.7-0.2,4-0.2c0.5,0,0.8-0.2,1.2-0.6
	c3.8-4,8.1-6.6,12.9-7.9l0.2-0.1c0.2-0.1,0.5-0.2,0.8-0.2c0.5,0,0.8,0.2,1.1,0.6c0.6,0.8,0.1,1.6-0.2,2c-1.4,2.3-3.2,4-6,5.6
	c-0.1,0-0.1,0.1-0.2,0.1c4.9-0.2,9.7-0.6,14.4-1.3c0.3,0,0.5-0.2,0.7-0.4c1.4-2.3,3.4-4.5,5.9-6.6c0.9-0.7,1.9-1.1,2.8-1.5l0.6-0.3
	c0.5-0.2,1.4-0.3,1.9,0.3c0.6,0.7,0.2,1.5,0.1,1.9c-0.7,1.5-1.8,2.8-2.8,4l-0.4,0.4c-0.3,0.4-0.6,0.7-0.9,1c0.9-0.2,1.7-0.4,2.6-0.5
	c2.3-0.5,4.4-0.9,7-1.9c2.3-0.9,3.8-2.4,5.3-4.9c0.6-1.1,1.3-2.1,2.1-3.1c1.1,1.6,2.9,2.8,5.3,3.1c-0.3,0.2-0.5,0.5-0.8,0.7
	c-1.7,1.4-3.5,2.9-5.9,3.9c-0.7,0.3-1.3,0.6-2,1.1C209.2,139.4,208.5,139.8,207.8,140.1z M241.6,246.2c-4.9,0.2-9.7,0.6-14.4,1.3
	c-0.3,0.1-0.5,0.2-0.7,0.4c-1.4,2.3-3.4,4.4-5.9,6.6c-0.9,0.7-1.9,1.1-2.8,1.5l-0.6,0.3c-0.5,0.2-1.4,0.3-1.9-0.3
	c-0.6-0.7-0.2-1.5-0.1-1.9c0.7-1.5,1.8-2.8,2.8-4l0.4-0.4c0.3-0.4,0.6-0.7,0.9-1c-0.9,0.2-1.7,0.4-2.6,0.5c-2.3,0.5-4.4,0.9-7,1.9
	c-2.3,0.9-3.8,2.4-5.3,4.9c-2.3,3.9-5.3,7.1-9,9.5c-0.1,0-0.2,0.1-0.2,0.2c-0.3,0.2-0.7,0.6-1.3,0.6c-0.4,0-0.7-0.1-1-0.4
	c-1-0.9-0.6-2.1-0.4-2.7c1.1-3.1,2.9-5.7,5.3-7.8c1.7-1.4,3.5-2.9,5.9-3.9c0.7-0.3,1.3-0.7,2-1.1c0.7-0.4,1.4-0.8,2.1-1.1
	c3.6-1.5,7.4-2.4,10.9-3c-3.3-0.7-5.8-1.7-8-3.2c-1-0.5-1-1.2-0.9-1.5c0.1-0.2,0.2-0.4,0.4-0.5c0.1-0.1,0.3-0.2,0.4-0.3
	c0,0,0.2,0,0.2-0.1l0.6-0.1c0.7-0.1,1.6-0.1,2.5-0.1l0.3,0c0.4,0,0.8,0,1.2,0c3.9,0,7.2,0.9,9.6,2.7c0.2,0.1,0.3,0.2,0.5,0.4
	c0.7,0.7,1.5,1,2.6,1c0.6,0,1.2-0.1,1.7-0.2c4.5-0.7,9.1-1,13.4-1.2c-2.2-1-3.9-2.4-5.3-3.6c-0.5-0.5-0.7-0.9-0.6-1.4
	c0.2-0.7,1-1,1.2-1.1c0.8-0.2,1.9-0.2,2.7-0.1c4.1,0.6,7.2,2.3,9.4,5.1c0.4,0.6,0.7,0.7,1,0.7l4.4-0.4c1.9-0.2,3.8-0.3,5.8-0.5
	c-2.4-0.9-4.6-2-6.5-3.3c0,0-0.1,0-0.1-0.1c-0.3-0.1-1.2-0.6-1-1.6c0.2-1.1,1.3-1.3,1.8-1.3c2.7-0.4,5.4-0.1,8.3,1
	c1.9,0.7,3.7,1.8,5.4,3.3c0.7,0.6,1.2,0.8,2.1,0.6c3.9-0.9,7.9-2.4,12.1-4.6c-1.7,0-3.4-0.2-5.1-0.6c-1.5-0.3-2.7-0.8-3.8-1.4
	c-0.4-0.2-1.1-0.5-1-1.4c0.1-0.9,1-1.2,1.3-1.2c2.6-0.7,4.8-1,6.8-1c3.2,0,5.2,0.8,6.6,1.6c0.9,0.5,1.3,0.4,2.1-0.2
	c1.8-1.4,3.5-3,5-4.4c-1.4,0.4-2.8,0.6-4.4,0.6c-2.7,0-5.4-0.6-7.4-1.1l-0.2,0c-0.4-0.1-1.4-0.3-1.5-1.3c-0.1-1.3,1.3-1.7,1.7-1.8
	c3.5-0.9,6.6-1.7,10-1.7l0.6,0c1.8,0,3.7,0,5.6,0.1c0,0,0,0,0,0c0.5,0,0.7-0.1,0.9-0.4c0.2-0.3,0.4-0.6,0.6-0.8
	c0.4-0.5,0.8-1,1.1-1.5c0.2-0.3,0.6-0.9,1.2-1c0.4-0.1,0.8,0,1.1,0.2c0.4,0.2,1.1,0.9,0.3,2.4c-0.6,1-1.3,1.9-2.2,2.8
	c-0.5,0.4-0.7,0.9-0.5,1.8c0.1,0.6,0.2,1.1,0.2,1.6c1.3-2.8,2.4-5.7,4.5-8.1c0.6-0.8,1.2-1.5,2.2-0.9c1.1,0.6,0.2,1.4-0.1,2
	c-2.8,4.5-5.1,9.3-7.1,14.1c-0.2,0.8-0.5,1.6-0.9,2.4c-0.2,0.5-0.4,1-0.7,1.5c-0.5,1.3-1,2.5-1.4,3.8c-0.3,0.8-0.7,1.6-1.2,2.4
	c-0.3,0.4-0.8,0.9-1.4,0.6c-0.4-0.2-0.2-0.8-0.2-0.8c0.1-0.3,0.1-0.6,0.2-0.9c-0.4,0.3-0.9,0.4-1.3,0.3c-0.5-0.2-0.8-0.7-0.9-1.4
	c-0.2-1.4-0.2-2.8,0.1-4.2c0.4-2.5,1-5.2,2-7.7c-0.4,0.3-0.8,0.7-1.2,1c-1.6,1.4-3.2,2.8-5,4c-0.1,0.1-0.2,0.2-0.2,0.5l-0.1,0.2
	c-0.1,0.5-0.3,0.9-0.4,1.3c-1,3-2.8,5.8-5.1,8.1c-0.9,1-2,1.9-3.2,2.6l-0.3,0.2c0,0-0.1,0.1-0.2,0.1c-0.2,0.2-1.1,0.4-1.7-0.1
	c-0.7-0.6-0.4-1.5-0.3-1.9c0.9-2.5,2.1-4.7,3.8-6.7c-3.5,1.7-7.2,3-11.3,3.9c-0.3,0.1-0.4,0.2-0.6,0.5c-2.1,3.8-4.8,6.6-8,8.5
	c-1,0.6-2,0.9-2.9,1.3l-0.7,0.3c-0.5,0.2-1.4,0.3-1.8-0.3c-0.4-0.5-0.3-1.1,0.1-1.8c1.4-2.2,2.7-3.9,4.2-5.2
	c0.6-0.5,1.5-1.2,2.3-1.8l-0.1,0c-2.4,0.3-4.4,0.5-7,0.7l-1.7,0.1c-1.3,0.1-2.7,0.1-4,0.2c-0.5,0-0.8,0.2-1.2,0.6
	c-3.8,4-8.1,6.6-12.9,7.9l-0.2,0.1c-0.2,0.1-0.5,0.2-0.8,0.2c-0.5,0-0.8-0.2-1.1-0.6c-0.6-0.8-0.1-1.6,0.2-2c1.4-2.3,3.2-4,6-5.6
	C241.5,246.3,241.5,246.3,241.6,246.2z M383.5,123.8c-1-1.4-1.1-3-0.7-4.7c0.1-0.6,0.5-1.1,1-1.5c1.1-1.1,2.4-1.7,4-1.7
	c0.6,0,1.1,0.1,1.7,0.1c0.6,0.1,0.9-0.2,1.1-0.8c0.1-0.4,0.2-0.9,0.3-1.3c0.6-1.7,1.7-3.2,3.2-4.2c2-1.3,4-1.3,6.1-0.3
	c0.3,0.2,0.6,0.4,1,0.6c0.2,0.1,0.4,0.2,0.6,0.3c0.6,0.1,1.1-0.2,1.1-0.8c0-0.3,0-0.5,0-0.8c-0.2-1.9,0.4-3.7,1.4-5.3
	c0.4-0.7,0.8-1.3,1.3-1.9c2.2-2.7,5.1-4.4,8.5-5.1c0.9-0.2,1.8-0.2,2.7-0.1c0.2,0,0.3,0.1,0.6,0.1c-0.2,0.1-0.3,0.1-0.3,0.2
	c-1.9,1-3,2.6-3.1,4.7c-0.1,1.8,0.4,3.5,1.3,5.1c0.5,0.8,1,1.6,1.6,2.4c0.5,0.8,1,1.6,1.4,2.5c0.5,1.5,0.5,3.1,0,4.6
	c-0.1,0.2-0.2,0.3-0.3,0.5c-0.1,0.3-0.3,0.5-0.4,0.8c-0.3,0.6-0.2,1.1,0.4,1.6c0.3,0.2,0.5,0.4,0.8,0.6c0.3,0.2,0.6,0.5,0.9,0.8
	c1,1,1.3,2.2,1.1,3.6c-0.3,1.3-0.8,2.4-1.5,3.5c-0.2,0.3-0.3,0.5-0.4,0.8c-0.2,0.5-0.2,1,0.1,1.5c0.2,0.3,0.5,0.6,0.7,0.9
	c1.6,1.8,2.1,3.9,1.4,6.3c-0.4,1.2-1.1,2-2.4,2.2c-0.8,0.2-1.6,0.2-2.4,0.2c-2.8-0.2-5.5-0.7-8.1-1.6c-2.9-0.9-5.6-2.1-8.4-3.3
	c-3-1.3-6-2.9-8.9-4.5c-2-1.1-3.8-2.4-5.5-4C384.5,125,384,124.4,383.5,123.8z M409,149.6c0.1-0.4,0-0.7-0.3-0.9
	c-0.3-0.2-0.6-0.1-0.9,0.1c-0.3,0.2-0.6,0.4-0.8,0.7c-0.8,1-1.6,2-2.3,3c-2.2,3-4.3,6.1-6.5,9.2c-0.6,0.8-1.1,1.6-1.6,2.5
	c-1.6-0.6-3.2-1.4-4.8-2.1c0.1-0.2,0.1-0.3,0.2-0.4c1.1-2.1,2.1-4.1,3.2-6.2c1.2-2.2,2.4-4.5,3.6-6.7c0.2-0.5,0.5-0.9,0.7-1.4
	c0.1-0.2,0.1-0.4,0.2-0.6c0.1-0.5,0-0.9-0.4-1.1c-0.4-0.2-0.8-0.1-1.1,0.3c-0.3,0.3-0.5,0.6-0.7,0.9c-0.8,1.4-1.6,2.8-2.4,4.2
	c-1.3,2.4-2.6,4.9-3.9,7.3c-0.5,0.9-0.9,1.8-1.3,2.6c-0.5-0.1-3.8-1.6-4.3-2c0.4-1.1,0.8-2.2,1.2-3.3c0.7-2.1,1.5-4.2,2.2-6.2
	c0.6-1.8,1.3-3.6,1.9-5.3c0.4-1,0.7-2.1,1-3.1c0.1-0.2,0.1-0.5,0.1-0.7c0-0.3-0.1-0.6-0.4-0.7c-0.3-0.1-0.6-0.1-0.8,0.1
	c-0.3,0.3-0.6,0.6-0.8,1c-0.5,1-0.9,1.9-1.3,3c-0.9,2.5-1.8,5-2.7,7.5c-0.8,2.1-1.5,4.3-2.3,6.4c0,0.1-0.1,0.3-0.2,0.5
	c-1.5-0.8-3-1.7-4.4-2.5c0.7-3.1,1.3-6.1,2-9.1c0.6-2.5,1.1-5,1.7-7.6c0.1-0.3,0.1-0.6,0.1-0.9c0-0.4-0.1-0.7-0.5-0.8
	c-0.4-0.1-0.7,0-0.9,0.3c-0.4,0.5-0.7,1.1-0.8,1.7c-0.5,1.9-1,3.9-1.5,5.8c-0.7,2.9-1.3,5.8-1.9,8.8c0,0.2-0.1,0.4-0.1,0.6
	c-0.1,0-0.1,0-0.2,0c-0.8-0.6-1.7-1.2-2.5-1.8c-0.7-0.5-1.1-1.2-1.2-2.2c-0.2-1.9-0.1-3.9,0-5.8c0.2-5.2,0.9-10.3,2-15.4
	c0.1-0.5,0.2-1.1,0.4-1.7c0.2,0.2,0.4,0.3,0.6,0.5c0.4,0.5,0.8,1,1.2,1.5c0.6,0.9,1.3,1.8,1.9,2.7c0.7,1,1.5,1.8,2.5,2.5
	c1.2,0.9,2.6,1.3,4.1,1.5c1.1,0.2,2.2,0.3,3.3,0.4c1.4,0.2,2.8,0.5,4.1,1c1.8,0.7,3.3,1.7,4.7,3.1c0.8,0.8,1.5,1.6,2.3,2.4
	c1.1,1.1,2.3,2.1,3.7,2.8c1,0.5,2.1,0.9,3.2,1.1c1.1,0.2,2.3,0.3,3.5,0.3c0.9,0,1.9-0.1,2.8-0.1c1.1,0,2.2,0.1,3.3,0.4
	c0.1,0,0.3,0.1,0.5,0.1c-0.1,0.3-0.3,0.5-0.4,0.7c-3,4.9-6.5,9.3-10.5,13.4c-1.1,1.1-2.3,2.2-3.6,3.1c-0.4,0.3-0.9,0.5-1.3,0.7
	c-0.2,0.1-0.4,0.1-0.5,0.1c-0.9-0.2-1.7-0.5-2.5-0.8c0.2-0.3,0.4-0.6,0.6-0.9c2.6-4,5.4-7.8,8.2-11.7c0.5-0.6,0.9-1.3,1.3-1.9
	C408.8,150.2,408.9,149.9,409,149.6z M381.2,123.1c0.2,0.4,0.4,0.9,0.6,1.3c0.7,1.2,1.7,2.2,2.7,3.2c1.7,1.5,3.5,2.7,5.5,3.8
	c2.1,1.2,4.3,2.4,6.5,3.4c2.1,1,4.3,1.9,6.4,2.8c2.2,0.9,4.5,1.7,6.8,2.3c1.8,0.5,3.7,0.8,5.5,0.9c0.8,0.1,1.6,0,2.5-0.1
	c0.1,0,0.3,0,0.4,0c0.2,1.9,0.1,3.6-0.4,5.5c-0.3-0.1-0.6-0.1-0.9-0.2c-1.3-0.3-2.5-0.3-3.8-0.3c-1,0-1.9,0.1-2.9,0
	c-1.8,0-3.5-0.3-5.1-1.1c-1.3-0.7-2.4-1.5-3.4-2.6c-0.7-0.8-1.5-1.5-2.2-2.3c-2.2-2.4-5-3.8-8.2-4.3c-1.2-0.2-2.5-0.3-3.7-0.5
	c-0.9-0.1-1.9-0.3-2.8-0.5c-1.3-0.3-2.3-1.1-3.1-2c-0.4-0.4-0.7-0.9-1-1.3c-0.4-0.5-0.8-1.1-1.2-1.6c-0.8-1.1-1.5-2.2-2.7-2.9
	C378,124.9,379.4,123.8,381.2,123.1z M417.1,256c1.3,2.5,0.4,7.2-0.6,9.7c-1,2.5-2.7,4.9-4.5,6.9c-2.5,2.8-5,4.5-8.4,6.1
	c-4,1.9-7.7,3.9-12,4.9c-2.4,0.6-5,1.2-7.5,1.2c-0.5,0-1-0.1-1.4-0.1c-2.1-0.3-2.5-2.6-3-4.4c-1.4-5.9-1.7-12.1-2.2-18.1
	c-0.3-3.5-0.1-7.2-0.1-10.7c0-2.3,0.1-5.5,1.5-7.5c1.9-2.7,4.7-2.2,7.4-1c2.7,1.1,4.2,3.2,4.7,6c0.3,1.9-0.1,3.7,0,5.6
	c0.1,2.3,1.9,2.7,3.6,1.7c2.3-1.4,4.3-2.8,7-2.7c2.8,0,5.5-0.7,8.4-0.6C412.4,252.8,415.8,253.6,417.1,256z M382.4,298.9
	c0.5,2-0.3,3-1.6,4.3c-2.4,2.6-3.9,5.9-5.4,9c-0.7,1.4-1.4,2.8-2.2,4.2c-1.8,3.1-4.4,7.3-8.1,3.9c-2.8-2.6-4.7-5.8-7-8.8
	c-3.1-4.1-6.8-9.7-3.9-14.8c2.1-3.7,7.8-1.6,10.3,0.5c1.1,0.9,1.7,2.2,2.8,3.1c0.7,0.6,1.4,0.7,2.1,0.6c2.9-0.5,5.4-6,8.4-5.8
	C379.4,295.1,382,297.2,382.4,298.9z"/>
</svg>
