<?xml version="1.0" encoding="utf-8"?>
<!-- Generator: Adobe Illustrator 18.0.0, SVG Export Plug-In . SVG Version: 6.00 Build 0)  -->
<!DOCTYPE svg PUBLIC "-//W3C//DTD SVG 1.1//EN" "http://www.w3.org/Graphics/SVG/1.1/DTD/svg11.dtd">
<svg version="1.1" id="Layer_1" xmlns="http://www.w3.org/2000/svg" xmlns:xlink="http://www.w3.org/1999/xlink" x="0px" y="0px"
	 viewBox="0 0 432 432" enable-background="new 0 0 432 432" xml:space="preserve">
<path fill="#333333" d="M117.3,410.9c0.5,0.4,0.6,0.8,0.3,1.1c-0.3,0.3-0.9,0.5-1.8,0.6c-0.9,0.1-2,0.2-3.2,0.3
	c-4.4,0.4-8.6-0.3-12.5-2.1c-3.9-1.8-7.3-4.2-10.2-7.2c-5.7-6.1-10.7-12.8-15.1-20c-2.4-3.7-4.5-7.1-6.1-10.1
	c-1.7-3.1-2.9-5.6-3.6-7.7l-0.5,0.8c-1.6,2.8-2.8,5.2-3.5,7.4c-0.7,2.1-1,3.6-1,4.2c-0.2,0.8-0.4,1.2-0.7,1.3
	c-0.3,2.9-0.1,6,0.8,9.3c0.9,3.3,2.8,6.7,5.8,10c-0.6,0.4-1.5,0.4-2.6-0.1c-1.1-0.5-2.5-1.3-4.1-2.4c-1.6-1.1-3.3-2.6-5.2-4.3
	c-1.8-1.7-3.6-3.6-5.3-5.7c-3.6-4.4-5.8-9.2-6.7-14.7c-0.9-5.4-1-11-0.3-16.9c0.7-5.8,1.9-11.8,3.6-17.8c1.6-6,3.2-11.9,4.7-17.5
	c1.5-5.6,2.7-10.9,3.5-15.8c0.8-4.9,0.7-9.2-0.3-12.9c-1.1-3.7-2.5-6.9-4-9.7c-0.5-0.8-0.3-1.1,0.6-1c0.8,0.1,2,0.6,3.5,1.4
	c1.5,0.8,3.2,1.8,5.1,3.1c1.9,1.3,3.8,2.7,5.5,4.3c1.8,1.5,3.3,3.1,4.6,4.8c1.3,1.6,2,3.2,2.3,4.7c0.4,3.4,0.4,6.9-0.1,10.7
	c-0.5,3.8-1.2,7.7-2.2,11.8c-1,4.1-2.2,8.2-3.5,12.4c-1.3,4.2-2.6,8.4-3.9,12.6c-1.2,4.2-2.4,8.3-3.4,12.3c-1,4-1.7,7.8-2,11.4
	l2.8-10.4c3.4-8.3,7.1-16.6,11.1-24.8c4-8.2,8.4-16.1,13.3-23.7c4.9-7.6,10.3-14.7,16.3-21.4c5.9-6.6,12.5-12.5,19.7-17.6
	c7.2-5.1,15.2-9.2,23.9-12.3c8.7-3.2,18.2-5.1,28.7-5.8c2-0.1,4.1,0,6.2,0.1c0.1,1.4,0,2.8,0.2,4.2c0.1,0.9,0,1.8,0.1,2.7
	c-2,0.1-4,0.3-6,0.5c-6.8,1-13.5,2.8-20,5.4c-6.5,2.6-12.7,5.9-18.8,9.9c-6,4-11.7,8.4-17,13.3c-5.3,4.9-10.4,10.2-15.2,15.9
	c-4.8,5.6-9.2,11.4-13.1,17.2c-3.9,5.8-7.4,11.7-10.6,17.6c-3.2,5.9-5.8,11.6-8.1,17.1c3.8,7.5,7.5,14.1,11.3,19.8
	c3.8,5.7,7.6,10.6,11.3,14.8c3.8,4.1,7.5,7.6,11.1,10.3c3.7,2.8,7.3,4.9,10.8,6.5C115.7,409.9,116.8,410.5,117.3,410.9z
	 M150.8,216.6c-0.7,0.4-1,0.7-1.2,0.8c0.2,0.1,0.7,0.2,1.5,0.3c2.5,0.5,6.3,0.6,11.4,0.4c5-0.2,10.3-0.7,16-1.2
	c-0.1-3.5-0.2-7-0.2-10.2c0-3.6-0.1-7-0.2-10.1c0-0.6,0.3-1.1,1-1.5l0.2-0.1c0.8-0.2,1.5-0.5,2.3-0.8c0.8-0.3,1.5-0.6,2.3-1
	c0.4-0.1,0.7-0.2,0.9-0.2c0.7,0,1.5,0.5,1.5,1.7c0,3.3,0,6.8,0.1,10.5c0.1,3.5,0.1,7.1,0.1,10.9c2.4-0.2,5.3-0.6,8.6-1
	c3.8-0.5,7.7-0.9,11.6-1.1c1.9-0.1,3.8-0.2,5.7-0.2c1-6.7,2.4-13.1,4.3-18.9c2.3-7.3,5.4-13.8,9.2-19.2c3.9-5.5,8.7-9.2,14.4-11.2
	c3-1.1,6-1.3,9-0.7c3,0.6,5.5,2.3,7.7,4.9c1.8,2.2,3.1,5.1,3.8,8.6c0.6,3.4,0.6,7.4-0.2,11.9c-1.1,6.4-3.1,12.1-5.8,17.1
	c-2.7,5-5.9,9.6-9.7,13.7c-3.8,4.1-8.1,7.9-12.8,11.2c-4.5,3.3-9.3,6.4-14.2,9.5c-0.1,4.3-0.1,8.3,0.1,11.9
	c0.2,3.8,0.5,7.4,0.8,10.7c0.4,3.4,0.9,6.7,1.5,9.7c0.3,1.5,0.6,2.9,1,4.4c0.3-2,0.7-4.2,1.2-6.4c1-4.2,2.3-8.4,4.1-12.4
	c0.8-1.7,1.6-3.5,2.7-5.6c1-2.1,2.2-4.2,3.4-6.2c1.3-2,2.7-4,4.3-5.8c1.6-1.8,3.4-3.4,5.4-4.7c2.4-1.6,4.8-1.8,7-0.8
	c2.2,1,3.7,2.5,4.5,4.6c1.1,2.4,1.2,5.7,0.5,9.8c-0.7,4-1.7,8.2-2.8,12.6c-1.2,4.4-2.4,8.8-3.7,13c-1.2,4.2-1.9,7.8-2,10.7
	c0,0.6,0.1,0.9,0.2,1.1c0.2-0.1,0.5-0.4,0.9-1c1.7-2.3,3.6-5.1,5.7-8.3c2.1-3.2,4.1-6.3,5.9-9.3c1.9-3,3.5-5.7,4.9-8.2
	c1.3-2.3,2.1-3.8,2.6-4.8c0.1-2.3,0.2-4.5,0.4-6.7c0.3-4.3,0.7-7.7,1-10.2c0-0.6,0.7-1.2,1.6-1.7c0.8-0.5,1.6-0.9,2.5-1.2
	c0.9-0.4,1.7-0.5,2.5-0.5c0.7,0,1.1,0.3,1.3,0.6c0.2,0.3,0.4,0.7,0.3,1.4c-0.4,1.8-0.7,5.1-0.9,9.7c-0.2,4.6-0.4,9.5-0.5,14.7
	c-0.1,5.1,0,10,0.2,14.5c0.2,4.4,0.6,7.6,1.2,9.4c0.1,0.4,0.4,0.9,0.8,0.9c0.5,0,1.1-0.3,1.8-0.8c1.8-1.3,3.5-3.2,5-5.7
	c1.6-2.6,3.2-5.4,4.7-8.3c1.5-3,2.8-5.9,4-8.8l2.8-6.8c-0.4-1.9-0.7-3.7-0.6-5.4c0.1-2.5,0.7-4.7,1.8-6.5c1.2-1.9,3.3-3.2,6.1-3.7
	c2-0.4,4-0.4,6,0.1c2,0.5,3.8,1.2,5.3,2.3c1.5,1.1,2.8,2.5,3.8,4.1c1,1.7,1.5,3.7,1.5,5.8c0,1-0.6,1.6-1.6,1.6c-1,0-1.6-0.6-1.6-1.6
	c0.1-1.2-0.2-2.3-0.8-3.5c-0.7-1.3-1.6-2.4-2.7-3.3c-1.1-0.9-2.3-1.5-3.7-1.9c-1.3-0.3-2.6-0.2-3.9,0.5c-1.7,1.2-2.5,3-2.4,5.6
	c0.1,2.8,0.6,5.8,1.7,9c1.1,3.2,2.4,6.3,3.9,9.1c1.3,2.4,2.3,4.3,3,5.5c1.5-0.6,3.3-1.6,5.2-2.9c2.3-1.5,4.5-3.3,6.6-5.2
	c2.1-1.9,4.1-3.8,5.9-5.7c1.8-1.8,3-3.4,3.7-4.7l0.1-0.2c0.5-0.5,1.3-0.6,2-0.3c0.9,0.5,1.1,1.3,0.8,1.9c-0.8,1.5-2.1,3.2-4,5.2
	c-1.8,1.9-3.9,4-6.1,6c-2.2,2-4.5,3.9-6.9,5.6c-2,1.4-3.9,2.5-5.7,3.2c1.2,1.8,2.7,4.2,4.6,7.1c2.2,3.5,4.1,7.2,5.6,10.9
	c1.5,3.8,2.4,7.5,2.5,11c0.1,3.7-1.5,6.7-4.8,8.7c-1.9,1.2-4.1,1.9-6.5,2.1c-0.5,0-1,0.1-1.5,0.1c-2,0-4-0.3-5.9-0.9
	c-2.5-0.8-4.8-2.1-6.9-4c-2.1-1.9-3.7-4.4-4.8-7.6c-1.8-5.6-1.7-10.8,0.2-15.6c1.8-4.5,5-8.3,9.4-11.3c-0.7-1.1-1.5-2.4-2.5-4
	c-1.2-2-2.4-4.4-3.4-6.9c-0.7-1.7-1.4-3.5-2.1-5.3c-0.5,1.1-1,2.2-1.5,3.5c-1.3,3-2.7,6.1-4.2,9.1c-1.5,3-3.2,5.9-4.9,8.6
	c-1.7,2.7-3.6,4.9-5.6,6.4c-1.8,1.5-3.4,2.2-4.8,2.2c-0.4,0-0.7,0-1-0.1c-1.6-0.4-3-1.5-4.1-3.2c-1.6-2.6-2.7-6.2-3.3-10.7
	c-0.6-4.4-1-9.1-1-13.9c0-0.1,0-0.2,0-0.2c-1.3,2.3-2.9,4.8-4.6,7.7c-1.9,3.1-3.9,6.4-6,9.6c-2.1,3.3-4.1,6.2-6,8.6
	c-1.1,1.4-2.2,2.3-3.3,2.6c-0.4,0.1-0.9,0.2-1.3,0.2c-0.6,0-1.2-0.1-1.8-0.4c-0.9-0.5-1.7-1.2-2.2-2.2c-0.5-0.9-0.8-1.9-0.9-2.8
	c-0.3-2.5,0-5.5,0.8-9.1c0.8-3.5,1.7-7.2,2.6-11.1c1-3.9,2-7.8,2.8-11.7c0.9-3.8,1.2-7.3,1.1-10.5c0-2.8-0.5-4-0.9-4.6
	c-0.2-0.3-0.4-0.3-0.6-0.3c-0.3,0-0.8,0.1-1.7,0.7c-1.7,1.1-3.3,2.4-4.6,4c-1.4,1.6-2.8,3.3-4,5.2c-1.2,1.8-2.3,3.8-3.3,5.8
	c-1,1.9-1.9,3.8-2.6,5.6c-1.7,4.2-3.1,8.4-4,12.6c-0.9,4.2-1.5,7.9-1.6,11.2c0,0.8-0.7,1.2-1.4,1.6c-0.6,0-1,0.2-1.4,0.6
	c-0.4,0.1-0.7,0.3-1.1,0.4c-0.9,0.3-1.7,0.4-2.4,0.5c-1.6,0.1-2-0.7-2.2-1.1c-1.5-5-2.8-11.1-3.7-18.4c-0.2-1.3-0.3-2.7-0.5-4
	l-0.7,1.6c-1.3,3.2-2.8,6.4-4.4,9.7c-1.6,3.2-3.3,6.3-5.1,9.1c-1.9,2.9-3.8,5.2-5.8,6.7c-1.9,1.4-3.5,2.1-4.9,2.1
	c-0.3,0-0.6,0-0.9-0.1c-1.6-0.4-3-1.5-4.1-3.3c-1-1.6-1.8-4.2-2.5-8c-0.7-3.6-1.3-7.8-1.9-12.5c-0.3-2.6-0.5-5.2-0.8-8
	c0,0-0.1,0-0.1,0c0.1-1.2-0.3-2.4-0.4-3.5c-0.1-1.1,0-2.2-0.1-3.2c0,0,0.1,0,0.1,0c0,0,0-0.1,0-0.1c-0.3-5.2-0.6-10.2-0.8-14.8
	c-0.2-4.7-0.3-8.8-0.4-12.3c-0.1-2.8-0.1-4.9-0.1-6.4c-5.4,0.5-10.6,0.8-15.5,1.1c-5.2,0.3-9.3,0.1-12.3-0.4
	c-1.8-0.3-4.4-0.9-4.8-2.6c-0.3-1.3,0.7-2.8,3.3-4.5c1-0.6,2-1.1,3.2-1.6c1.1-0.5,2.5-1.1,4-1.7c0.1-0.1,0.4-0.2,0.7-0.2
	c0.3,0,0.9,0.1,1.3,0.9c0.3,0.5,0.3,1,0.2,1.3c-0.1,0.4-0.4,0.8-0.9,1c-1.7,0.7-3.1,1.2-4.1,1.8L150.8,216.6z M306.1,280.1
	c-3.8,2.7-6.6,6-8.1,9.8c-1.7,4-1.7,8.6,0,13.5c0.6,1.6,1.7,3.3,3.2,5c1.6,1.7,3.3,3,5.2,4.1c1.7,0.9,3.5,1.4,5.4,1.4l0.3,0
	c1.9-0.1,3.6-0.9,5.2-2.6c1.4-1.4,1.8-3.5,1.2-6.3c-0.7-3-1.8-6.2-3.3-9.5c-1.5-3.3-3.3-6.5-5.2-9.4
	C308.3,283.6,307,281.6,306.1,280.1z M218.1,236.7c4.4-2.7,8.6-5.6,12.7-8.5c4.5-3.2,8.5-6.8,12-10.7c3.5-3.9,6.6-8.2,9-12.9
	c2.5-4.7,4.3-10.1,5.4-16c0.7-4,0.8-7.6,0.2-10.6c-0.6-3-1.6-5.4-3-7.2c-1.4-1.7-2.8-2.8-4.3-3.2c-0.7-0.2-1.4-0.3-2.1-0.3
	c-0.8,0-1.6,0.1-2.3,0.4c-1.5,0.5-3,1.3-4.5,2.3c-1.5,1.1-2.9,2.3-4.1,3.5c-3.6,3.6-6.6,8-9,13.2c-2.4,5.3-4.4,10.9-5.8,16.8
	c-0.8,3.4-1.5,6.9-2.1,10.4c2.8,0.2,5.2,0.7,7.1,1.4c1.9,0.7,3.5,1.7,4.7,3.2c1.4,1.6,1.5,3.6,0.5,6.1c-0.5,0.9-1.1,1.1-1.5,1.1
	c-0.3,0-0.6-0.1-0.9-0.2c-0.5-0.3-0.7-0.6-0.8-1c-0.1-0.3-0.1-0.6,0.2-1.1c0.6-1.7,0.1-2.4-0.3-2.8c-0.9-0.9-1.9-1.6-3.2-2.2
	c-1.7-0.6-3.8-1.1-6.3-1.2c-0.2,1.5-0.4,2.9-0.5,4.4C218.7,226.9,218.3,232,218.1,236.7z M186.8,219.5c0,1.2,0,3.2,0.1,5.9
	c0.1,3.4,0.2,7.4,0.4,12.2c0.2,4.7,0.4,9.7,0.7,15c0,0.9,0.1,1.8,0.1,2.8c0,0,0,0,0,0c0,0.8,0,1.6,0.1,2.4c0,0.1,0,0.1,0,0.2
	c0.1,0.9,0.1,1.9,0.2,2.8c0,0,0,0,0,0c0.1,2.3,0.3,4.7,0.4,6.9c0.3,4.7,0.6,9,0.9,12.6c0.4,4.4,0.8,6.3,1.2,7.1
	c0.1,0.3,0.4,1.1,0.8,1.1c0.5,0,1.1-0.3,1.8-0.8c1.8-1.3,3.5-3.3,5.2-6c1.7-2.7,3.4-5.7,4.9-8.9c1.5-3.2,2.9-6.4,4.2-9.4
	c1.2-2.8,2.2-5.1,3-7.1c-0.3-4-0.4-8.1-0.5-12.4c-0.1-8.3,0.4-16.8,1.4-25.3c0.1-0.5,0.2-1.1,0.2-1.6c-1.7,0-3.5,0.1-5.3,0.2
	c-3.9,0.3-7.7,0.6-11.3,1.1C192,218.9,189.2,219.2,186.8,219.5z M193.3,261.3c1.7,0.2,2.9,0.2,3.5,0c0.7-0.2,0.8-0.5,0.5-1
	c-0.3-0.5-1-1-2.1-1.7s-2.4-1.3-3.8-2c-0.5-0.2-1-0.4-1.5-0.6c0,1.7,0.1,3.3,0.4,5C191.3,261,192.3,261.2,193.3,261.3z M373.9,358.4
	c0.4,0.6,0.6,1.3,0.5,2.1c-1,2.9-2.3,6-3.7,9.5c-1.5,3.4-3.2,6.6-5.2,9.7c-2,3-4.2,5.6-6.5,7.7c-2.3,2.1-4.9,3.2-7.6,3.3
	c-3.9,0.1-7.3-0.9-10.1-3.1c-2.8-2.2-4.6-5.1-5.3-8.6c-0.4-1.3-0.4-3.1-0.1-5.2c0.3-2.1,0.8-4.4,1.4-6.8c0.6-2.5,1.1-4.9,1.7-7.5
	c0.6-2.5,1-4.8,1.3-6.9c0.3-2.1,0.3-3.7,0.2-5c-0.2-1.2-0.8-1.9-1.9-1.9c-1.2,0-2.7,0.8-4.4,2.4c-1.7,1.6-3.5,3.6-5.2,6
	c-1.7,2.4-3.4,5.1-4.8,7.9c-1.5,2.9-2.6,5.6-3.3,8.1l-4.1,14.5c-0.4,1.3-0.7,2.3-0.9,3.1c-0.2,0.8-0.4,1.4-0.6,1.8
	c-0.2,0.4-0.4,0.6-0.6,0.8c-0.2,0.1-0.4,0.2-0.7,0.2c-1.5,0-3-0.5-4.4-1.5c-1.4-1-2.6-2.2-3.5-3.5c-0.9-1.3-1.6-2.7-2-4
	c-0.1-0.2-0.1-0.5-0.2-0.7c-1,1.3-2.1,2.6-3.3,3.8c-1.8,1.8-3.9,3.4-6.1,4.5c-2.3,1.2-4.7,1.8-7.2,1.8c-3.9,0.1-7.2-0.6-10-1.9
	c-2.8-1.3-5-3.2-6.6-5.4c-1.6-2.3-2.8-4.9-3.5-7.9c-0.1-0.5-0.2-1-0.3-1.5c-1,2-2.1,3.8-3.3,5.6c-2,3-4.2,5.6-6.6,7.7
	c-2.4,2.1-4.9,3.2-7.7,3.3c-3.8,0.1-7.1-0.9-9.9-3.1c-2.8-2.2-4.6-5.1-5.3-8.6c-0.4-1.3-0.4-3.1-0.1-5.2c0.4-2.1,0.8-4.4,1.4-6.8
	c0.5-2.5,1.1-4.9,1.6-7.5c0.5-2.5,0.9-4.8,1.2-6.9c0.3-2.1,0.3-3.7,0.1-5c-0.2-1.2-0.8-1.9-1.7-1.9c-1.2,0-2.7,0.9-4.3,2.6
	c-1.7,1.7-3.3,3.9-5,6.4c-1.6,2.6-3.2,5.3-4.8,8.3c-1.5,3-2.8,5.6-3.8,8.1l-0.1,0.1l-2.4,13.6c-0.1,1.4-0.3,2.5-0.4,3.4
	c-0.1,0.8-0.3,1.5-0.4,1.9c-0.1,0.4-0.3,0.7-0.5,0.9c-0.2,0.1-0.5,0.2-0.9,0.2c-1.6,0-3.2-0.5-4.6-1.6c-1.5-1-2.7-2.3-3.7-3.7
	c-1-1.4-1.8-2.9-2.4-4.3c-0.3-0.8-0.6-1.5-0.7-2.1c-1.4,1.8-2.8,3.6-4.5,5.1c-1.9,1.7-3.9,3.2-6.1,4.3c-2.2,1.1-4.6,1.7-7.2,1.8
	c-4.2,0.1-7.8-0.6-10.7-2.1c-2.9-1.5-5.2-3.5-6.8-5.9c-1.6-2.5-2.8-5.3-3.6-8.6c-0.1-0.4-0.2-0.9-0.2-1.3c-1.2,2.3-2.5,4.6-3.9,6.7
	c-2,3-4.3,5.5-6.8,7.5c-2.5,2.1-5.1,3.2-7.8,3.4c-3.8,0.3-7.1-0.3-9.8-1.8c-2.7-1.4-4.9-3.2-6.6-5.4c-1.7-2.1-2.8-4.3-3.5-6.5
	c-0.1-0.3-0.2-0.6-0.3-1c-0.7,1.4-1.5,2.7-2.3,4c-1.3,2-2.7,3.8-4.2,5.4c-1.5,1.5-3.2,2.8-4.8,3.8c-1.7,1-3.4,1.6-5.2,1.7
	c-2.4,0.1-4.5-0.3-6.1-1.2c-1.7-0.9-3.1-2.1-4.3-3.5c-1.2-1.4-2.1-2.8-2.7-4.3c-0.6-1.4-0.9-2.6-1-3.6c-0.1-2.9,0.2-6.3,0.9-10.3
	c0.7-4,1.5-7.9,2.4-11.8c0.9-3.9,1.5-7.4,1.8-10.6c0.3-3.2,0.1-5.4-0.7-6.6c-0.7-1.1-0.2-1.5,1.3-1.4c1.5,0.1,3.4,0.7,5.4,1.6
	c2.1,0.9,4.1,2.2,6,3.9c1.9,1.7,3,3.5,3.2,5.5c0.1,0.7-0.2,2.1-0.7,4c-0.5,1.9-1.1,4.2-1.7,6.6c-0.6,2.5-1.3,5.1-2.1,7.9
	c-0.7,2.8-1.3,5.3-1.7,7.6c-0.4,2.3-0.6,4.2-0.6,5.8c0,1.5,0.5,2.4,1.4,2.6c1.2,0.3,2.6-0.4,4.1-2c1.5-1.6,3.1-3.6,4.6-6
	c1.5-2.5,3-5.2,4.5-8.2c1-1.9,1.9-3.7,2.8-5.5c0.7-4,1.6-8.3,2.6-13.2c1.1-5.3,2.2-10.8,3.4-16.6c1.2-5.8,2.3-11.1,3.2-16.1
	c-2.4,0.5-4.7,0.9-7,1.2c-2,0.3-3.9,0.7-5.8,1.1c0.1,0,0.1,0.1,0.2,0.1c1.4,1,2.1,1.9,2.2,2.7c-3.3,2.6-5.7,5.9-7.2,10
	c-0.9,2.4-2.1,4.1-3.7,5.1c-1.6,1-4,0.8-7.2-0.6c-1.3-0.7-2.1-1.3-2.4-1.8c-0.3-0.5-0.4-1.4-0.3-2.5c0-1.2,0.1-2.7,0.3-4.4
	c0.2-1.7,0.4-3.5,0.8-5.2c0.4-1.7,0.9-3.3,1.5-4.7c0.6-1.4,1.4-2.4,2.4-2.9c0.6-0.5,1.8-0.5,3.5-0.1c1.7,0.4,3.5,1,5.3,1.8
	c0.7,0.3,1.3,0.6,1.9,0.9c0.2-0.2,0.5-0.5,0.9-0.7c1-0.8,2.6-1.7,4.7-2.7c1.8-0.9,3.6-1.7,5.4-2.4c1.8-0.7,3.8-1.4,5.8-2.1
	c0.4-3.1,0.7-5.6,0.9-7.7c0.2-2,0.1-3.3-0.4-3.9c-0.7-0.9-0.3-1.4,1-1.4c1.3,0,3,0.5,4.9,1.3c1.9,0.8,3.9,1.9,5.8,3.3
	c1.9,1.4,3.3,3,4,4.9c2.7-0.5,5.6-0.8,8.8-1c3.2-0.2,6.7-0.4,10.5-0.6c1.4,0,3.2,0.1,5.3,0.2c2.1,0.1,4.4,0.4,6.7,0.8
	c2.3,0.4,4.6,1,6.9,1.8c2.3,0.7,4.3,1.7,6,3c1.7,1.3,3,2.5,4,3.7c1,1.2,1.7,2.3,2.1,3.2c0.4,0.9,0.5,1.6,0.4,2.1
	c-0.1,0.5-0.5,0.6-1.2,0.1c-2.8-1.3-6-2.5-9.7-3.4c-3.7-0.9-7.5-1.6-11.2-2.1c-3.8-0.5-7.3-0.8-10.5-0.9c-3.3-0.1-5.8,0-7.7,0.3
	c-0.7,0.2-2.1,0.4-4.1,0.6c-2,0.2-4.3,0.4-7,0.7c-0.3,2.6-0.9,5.8-1.7,9.7c-0.8,3.8-1.6,7.9-2.5,12.2c-0.9,4.3-1.8,8.7-2.7,13.1
	c-0.9,4.4-1.8,8.6-2.6,12.4c-0.8,3.9-1.5,7.2-2.1,10c-0.6,2.8-1.1,4.8-1.4,5.8c-0.3,1.7-0.4,3-0.1,4c0.3,1,0.8,1.8,1.5,2.3
	c0.7,0.5,1.5,0.8,2.6,0.9c1.1,0.1,2,0.1,2.9-0.2c1.2-0.3,2.6-1.2,4.3-2.8c1.6-1.6,3.3-3.6,5-6.1c1.7-2.5,3.4-5.1,5.1-7.9
	c1.5-2.6,2.9-5.1,4-7.6c0.4-1.6,0.8-3.1,1.3-4.7c1.1-3.3,2.6-6.2,4.5-8.8s4.1-4.7,6.8-6.3c2.7-1.6,5.6-2.5,8.7-2.5
	c3.3-0.1,6,0.7,8.2,2.3c2.1,1.6,3.8,3.5,4.9,5.8c1.1,2.3,1.7,4.7,1.6,7.2c-0.1,2.5-0.7,4.7-1.8,6.4c-0.7,1-1.7,1.8-3,2.3
	c-1.2,0.5-2.4,0.9-3.6,1c-1.1,0.1-2.1,0.1-2.9-0.3c-0.8-0.3-1.1-0.8-0.9-1.6c2.2-2.7,3.6-5.5,4.3-8.3c0.6-2.9,0.7-5.2,0.3-7
	c-0.4-1.8-1.3-2.9-2.6-3.1c-1.3-0.3-2.9,0.8-4.7,3.2c-1.3,1.7-2.6,4-3.7,6.7c-1.1,2.8-2.1,5.7-3,8.7c-0.8,3.1-1.4,6.1-1.8,9.2
	c-0.4,3.1-0.4,5.8,0.1,8.2c0.4,2.4,1.3,4.4,2.6,5.8c1.3,1.5,3.2,2.1,5.6,1.9c2.8-0.1,5.2-1.1,7.4-3c2.2-1.8,4.2-4.1,5.9-6.6
	c1.8-2.6,3.4-5.3,4.8-8.3c0.6-1.2,1.1-2.3,1.7-3.4c0.9-5.5,2-11.3,3.3-17.4c1.3-6.1,2.9-12.2,4.8-18.3c1.9-6.1,4-11.8,6.3-16.9
	c2.3-5.2,4.9-9.6,7.8-13.2c2.9-3.7,6.1-6.1,9.8-7.2c1.2-0.3,2.7-0.2,4.4,0.4c1.7,0.6,3.3,1.4,4.9,2.6c1.5,1.2,2.8,2.6,3.9,4.1
	c1,1.6,1.5,3.1,1.3,4.7c-1,8.1-3.7,15.2-8.2,21.2c-4.5,6-10.3,11.8-17.5,17.3c-0.7,2.6-1.3,4.9-1.9,6.9c-0.6,2.1-1.1,4.4-1.7,7
	c1.3-2.4,2.6-4.7,3.9-6.8c1.3-2.1,2.8-4,4.5-5.6c1.6-1.6,3.4-2.8,5.3-3.6c1.9-0.8,4-1.2,6.4-1c5,0.5,8.6,3.1,10.8,7.8
	c0.9,2.1,1.2,4.6,0.9,7.5c-0.3,2.9-0.9,5.9-1.7,9c-0.8,3.1-1.7,6-2.7,8.9c-1,2.9-1.6,5.2-2,7c-0.2,1.7-0.1,2.9,0.2,3.7
	c0.3,0.8,0.8,1.3,1.5,1.4c0.6,0.1,1.4,0,2.4-0.5c0.9-0.4,1.7-1.1,2.4-2.1c0.9-1.1,2-2.6,3.3-4.5c1.2-1.8,2.5-3.8,3.9-5.8
	c1.3-2,2.7-4.1,3.9-6.2c0.9-1.5,1.6-2.8,2.3-4.1c0.2-1,0.4-2,0.7-3c0.8-3.1,2-5.9,3.5-8.6l0.1-0.1c2.1-3.6,4.4-6.3,7.1-7.9
	c2.7-1.6,5.3-2.5,8-2.7c2.7-0.1,5.2,0.5,7.5,1.8c2.3,1.3,4.2,3.1,5.6,5.5c1.3,1.9,2,3.9,2.1,6c0,2.1-0.3,4.2-0.9,6.3
	c-0.6,2.1-1.6,4.1-3.1,6.1c-1.4,1.9-3.1,3.6-5.1,5.1c-1.9,1.4-4.1,2.6-6.4,3.5c-2.3,0.9-4.8,1.3-7.3,1.2c-0.1,1.6,0,3.1,0.3,4.5
	c0.2,1.4,0.7,2.6,1.4,3.6c0.7,1,1.6,1.8,2.7,2.3c1.1,0.5,2.5,0.7,4.2,0.6c2.9-0.1,5.4-1.1,7.7-2.8c2.2-1.7,4.2-3.9,5.9-6.4
	c1.7-2.6,3.2-5.3,4.6-8.2c0.5-1.1,1-2.1,1.5-3.2c0.6-2.4,1.1-4.8,1.6-7.2c0.9-4,1.5-7.8,2-11.2c0.4-3.5,0.4-6.1-0.2-7.8
	c-0.2-0.7,0.1-1.1,0.8-1.2c0.7,0,1.7,0.1,2.9,0.5c1.2,0.4,2.5,0.9,4,1.7c1.5,0.8,2.9,1.6,4.2,2.6c1.3,1,2.4,2,3.2,3.1
	c0.8,1.1,1.2,2.1,1.1,3.2c-0.1,0.6-0.3,1.6-0.6,3c-0.3,1.4-0.7,3-1.3,5c1.1-2.4,2.4-4.8,3.7-7c1.3-2.2,2.7-4.2,4.3-5.7
	c1.5-1.6,3.3-2.8,5.1-3.7c1.9-0.9,4-1.2,6.3-1c4.8,0.3,8.4,2.9,10.6,7.8c0.9,2.1,1.3,4.6,1,7.7c-0.3,3-0.8,6.1-1.5,9.2
	c-0.7,3.1-1.5,6.1-2.4,9c-0.9,2.9-1.5,5.2-1.8,7.1c-0.4,1.7-0.4,3,0.1,3.8s1,1.4,1.6,1.5c0.6,0.1,1.4-0.1,2.3-0.6
	c0.9-0.5,1.7-1.2,2.4-2.2c0.8-1.1,1.8-2.7,3-4.5c1.2-1.9,2.5-3.9,3.8-6c1.3-2.1,2.6-4.3,3.8-6.4c1.2-2.2,2.2-4.1,3-5.9
	c0.3-0.7,0.7-1.2,1.2-1.3c0.5-0.1,1.1-0.1,1.6,0.2C373,357.4,373.5,357.8,373.9,358.4z M279.9,367.6c3.4,0.1,6.2-0.7,8.5-2.2
	c2.3-1.5,4.1-3.4,5.3-5.7c1.2-2.2,1.9-4.6,2.2-7c0.3-2.4,0.1-4.4-0.5-6.1c-0.6-1.6-1.5-2.6-2.8-3c-1.3-0.3-3,0.5-5,2.4
	c-1.1,1-2.1,2.4-2.9,4.2c-0.8,1.8-1.5,3.7-2.1,5.7c-0.6,2-1.1,4-1.6,6C280.6,364,280.2,365.9,279.9,367.6z M227.2,334
	c2.1-2.2,4.2-4.7,6.1-7.4c1.9-2.7,3.7-5.4,5.3-8.2c1.6-2.7,3-5.3,4.2-7.8c1.2-2.5,2-4.7,2.6-6.5c0.6-1.9,0.8-3.3,0.7-4.4
	s-0.6-1.5-1.5-1.3c-3.2,0.7-6.3,3.8-9.2,9.4S229.7,322.2,227.2,334z M63.1,55c0-5.4-1.1-13.1,4-16.5c4.3-2.6,9.4-3.1,13.9-4
	c7.7-1.1,15.6-1.7,23.3-1.1c4,0.3,8,0.9,11.6,2.6c3.1,1.7,7.4,4.8,9.4,7.7c1.7,2.3,2,5.1,2.3,8c0,6,0,11.6-2,17.3
	c-2,5.7-5.1,10.8-8.8,15.6l-4,4.8c-1.4,1.7-3.4,2.6-4.3,4.5c4,1.7,8.8,3.1,11.9,6.8c1.4,1.7,2,4,2.6,6.3c2.8,12.2,0,23.6-7.1,33.8
	c-2,2.8-4.3,6.5-6.8,8.8c-4.8,4.3-9.9,8-16.2,9.7l-8.8,2.3c-3.1,0.3-8,0.6-9.9-1.1c-1.7-1.4-3.7-2.8-4.8-6.3
	c-1.7-6.8-2.3-13.9-2.8-20.5C64.8,107.6,62.9,81.4,63.1,55z M97.8,101.3c-4.5-0.6-8.8,1.4-12.8,3.1l0.3,16.5l0.6,10.8l0.9,9.9l0.6,6
	c0.9,3.1,1.4,3.4,1.4,3.4c2.3-0.6,7.1-2.3,9.7-4.5c9.1-8,15.3-18.8,13.9-31.5C111.2,106.4,105.8,101.9,97.8,101.3z M82.2,51
	c0.3,9.9,0.3,19.9,0.9,30.1l0.6,9.1l0.3,4.8c0.3,0,11.4-3.7,18.8-8c10.8-6.3,13.4-21.6,12.5-33.8c-0.6-5.4-3.7-11.4-9.9-11.1
	c-2.8,0-5.4-0.3-8,0C93,42.5,83,42.8,82.7,45C82.7,45,82.2,48.2,82.2,51z M389.6,111.8c-4.8,6.8-9.7,13.4-16.5,18.2
	c-9.7,5.4-16.8,5.7-24.7,8.8c1.7,2.8,2.8,5.4,3.4,7.1c2.6,9.7-2.3,20.7-10.2,26.4c-4.8,3.4-12.5,5.4-18.2,3.4
	c-15.9-6.3-12.5-25-3.4-32.1c4.8-4.3,13.1-7.7,13.1-7.7c-2.6-4.5-9.7-15.3-12.5-19.9c-4,4.3-8.2,8.5-16.5,15.1l-8.2,6.3
	c0.6,0.9,1.4,2.6,2.3,4c0.9,1.7,1.4,3.4,1.7,4.5c2.8,9.7-2,20.2-10.2,26.1c-4.5,3.4-11.9,6-17.6,4c-15.6-6.3-14.2-23.3-5.1-30.4
	c4.8-4.3,14.8-9.1,14.8-9.1c-2.6-4.5-10.5-16.8-13.4-20.7c-0.2-0.3-0.4-0.5-0.6-0.8c-2,3-4.1,6.2-4.5,6.8
	c-12.2,18.2-18.8,29-23.9,34.7c-9.9,10.2-24.4,13.1-37.2,5.4c-8.6-5.1-12.4-15.4-13.4-25.1c-7.1,11.7-13.7,22.8-20.4,36.7
	c-3.7,8-7.7,15.6-13.6,21.9c-1.7,1.7-4,2.8-6.3,3.4c-5.1,0.6-9.4-4-11.4-8.8c-2.8-7.1-3.4-14.8-3.7-22.4c-0.3-9.7,0.3-19,0.9-28.4
	c0.6-5.1,0.9-9.9,1.4-14.5c1.7-11.9,3.7-25.6,4.5-29.3c3.4-21.3,8.2-42.3,17.3-61.7c3.7-8.5,8.5-16.5,15.6-22.2
	c7.1-5.4,18.5-8,26.7-4c6.8,4.5,11.9,15.3,11.4,23.9c-0.3,9.7-4.5,18.5-9.4,26.4c-10.2,17.6-23.9,32.7-39.5,44.9
	c-1.4,1.1-3.1,2-4,3.7c-1.4,2-2.3,4.8-2.3,7.4c-4.3,25.9-8.5,52.3-8,78.4c8.5-7.1,13.4-18.2,18.5-28.4c7.7-15.6,14.6-25.8,22.1-37.7
	c0.1-0.9,0.2-1.8,0.4-2.6c1.4-8.2,2.8-15.1,7.1-22.2c6-11.9,15.3-18.5,25.9-18.5c6.5,0.3,13.4,3.4,15.3,9.7c3.4,9.9,0.9,18.8-6,26.1
	c-6.3,6.5-13.9,11.4-22.7,11.6c-2.8,9.7-1.4,25.3,7.4,28.4c13.4,5.4,21.3-9.9,39.8-36.1c2.6-3.7,5.3-8.4,8.1-12.4
	c-1.6-2-3.2-3.9-4.4-6.3c-2-4.8-5.4-9.4-2.8-20.5c3.1-11.9,18.2-15.3,25-13.9c7.4,0.9,12.8,8.5,11.4,17c-1.1,8-10.2,14.8-15.6,20.5
	c1.1,1.4,7.4,11.4,11.6,18.8c0.6,1.1,2,3.1,3.4,5.4c6-4,16.8-13.9,23.6-20.5c-6.3-7.4-8.8-17.9-6.8-24.4
	c2.6-11.1,14.8-16.8,24.7-15.3c7.7,0.9,12.5,8,11.1,16.8c-1.4,8-9.7,15.3-15.3,21c1.4,1.4,6.8,9.7,11.1,17c1.1,1.4,2.6,4,4.5,7.1
	c3.1-1.1,7.4-2,8-2c6-2,13.6-3.4,17.6-6.5c6.5-4.3,10.8-11.1,16.2-16.8C389.6,104.7,392.2,108.4,389.6,111.8z M209.2,124.3
	c7.4-4.5,12.8-7.4,17-13.9c4-5.7,5.7-12.8,3.4-19.6c-0.3-1.7-2.8-0.6-4.3,0.6C219.1,96.2,212.3,108.4,209.2,124.3z M158,99.6
	c19.3-17,31.8-27.6,40.3-44.6c6.3-12.8,9.1-21.9,5.1-34.9c-1.4-5.4-5.4-8.5-10.5-9.9c-7.7-1.7-12.2,11.4-21.3,35.5
	c-1.4,4.3-4,11.9-5.1,16.8c-2.6,9.4-4.5,19.3-7.1,29L158,99.6z M274,101c3.7-4,5.7-6,8.8-9.1c4-4,8.8-13.9-0.6-15.1
	c-7.4-1.4-10.8,8.5-10.8,15.1C271.1,92.5,273.4,101.6,274,101z M284.8,142.8c-6.8,3.1-15.9,7.7-17.6,15.3c-0.9,4.3,0.6,8.2,4.8,10.5
	c4.5,1.1,9.4,0,10.8-1.4c3.4-3.1,4.8-5.4,5.7-9.7C289.3,152.4,288.5,149,284.8,142.8z M325.7,101.6c3.1-3.1,6.8-7.1,9.7-10.8
	c3.7-4.5,8-12.8-1.1-13.9c-7.7-1.1-11.1,9.1-11.1,15.1S325.1,102.2,325.7,101.6z M335.9,142.5c-4.5,1.4-7.4,2.8-9.7,5.4
	c-2.3,2.3-5.4,6.5-6.3,10.2c-0.9,4.3,0.9,9.9,5.1,12.2c4,0.6,6.8-1.1,8.5-2.6c3.1-3.1,4.5-5.7,5.4-10.2
	C339.9,152.4,339.6,148.8,335.9,142.5z M272.3,228c1.7,0,3-0.7,3.9-2c0.9-1,1.3-2.5,1.3-4.4c0-1.7-0.4-3.1-1.3-4.3
	c-1.1-1.5-2.4-2.3-3.9-2.3c-1.4,0-2.7,0.8-3.7,2.2c-1,1.3-1.5,2.7-1.5,4.3c0,1.6,0.5,3,1.5,4.3C269.4,227.3,270.7,228,272.3,228z
	 M339.4,408.1v-2.9c0-0.8-0.6-1.4-1.4-1.4h-4V398c0-0.8-0.6-1.4-1.4-1.4H171.4c-0.8,0-1.4,0.6-1.4,1.4v5.8h-3.7
	c-0.8,0-1.4,0.6-1.4,1.4v4.2c-10.1-2.8-33.2-10.8-33.2,1.7c0,12.6,22.7,6.5,33.2,3.8v2.9c0,0.8,0.6,1.4,1.4,1.4h3.7v5.8
	c0,0.8,0.6,1.4,1.4,1.4h161.3c0.8,0,1.4-0.6,1.4-1.4v-5.8h4c0.8,0,1.4-0.6,1.4-1.4v-4.2c10.1,2.8,33.2,10.8,33.2-1.7
	C372.6,399.3,349.9,405.5,339.4,408.1z M108.2,254.9c-3.1-5.9-6-11.9-9-17.8c-0.4-0.8-1-1.6-1.5-2.6c-0.9,0.5-1.6,0.9-2.4,1.3
	c-3.4,2.1-6,1.7-8.2-1.5c-1.4-2.1-2.7-4.3-3.5-6.6c-3.4-9.6-6.7-19.3-9.8-29.1c-0.5-1.7,0.1-3.8,0.3-5.7c1.4,1.1,3.1,1.9,4.1,3.3
	c14.7,19.2,29.3,38.4,43.9,57.7c1,1.3,1.9,2.7,2.3,4.3c0.7,2.7-1.1,5.9-3.7,7.2c-2.5,1.2-5.4,0.7-7.2-1.8
	C111.5,260.8,109.8,257.9,108.2,254.9z M101,234c4,7.6,7.9,15.3,11.9,22.9c0.9,1.7,2,3.3,3.2,4.8c1.5,1.7,3.2,1.5,4.6-0.3
	c1.6-2.1,0.5-3.7-0.8-5.5c-13.5-17.9-27-35.9-40.5-53.8c-0.5-0.6-1-1.2-1.5-1.7c3.9,11.6,6.7,23.6,13.5,34.1
	c1.5-0.9,2.5-1.5,3.5-2.1C98.7,230,98.8,230,101,234z M128.1,196.2c-3.3,3.8-6.7,7.4-10.5,11.5c0.1,0.2,0.8,0.8,1.6,1.6
	c3.7-3.6,6.9-6.8,10.4-9.9c0.7-0.7,2.1-0.6,3.1-0.9c-0.4,1-0.4,2.3-1.1,3.1c-3.1,3.5-6.3,6.8-9.6,10.3c0.4,0.4,1.1,1,2.7,2.5
	c3.2-3.6,6.2-7.1,9.4-10.4c0.6-0.7,1.9-0.7,2.9-1c-0.3,1.1-0.2,2.4-0.8,3.1c-3,3.5-6.2,6.8-9.5,10.4c0.3,0.3,0.9,1,2.3,2.5
	c2-2.3,3.8-4.5,5.7-6.6c1.5-1.6,3-3.3,4.8-4.7c0.6-0.5,1.8-0.3,2.7-0.5c-0.2,0.8-0.1,2-0.6,2.5c-4.3,4.5-8.6,8.9-13.1,13.1
	c-3.1,2.9-6.7,2.5-10.3,1c-0.8-0.3-1.5-0.8-2.8-1.6c-2.4,2.5-4.5,5-6.9,7.3c-0.6,0.5-1.8,0.4-2.7,0.6c0.2-0.9,0.1-2.1,0.7-2.7
	c2.2-2.4,4.6-4.6,7.1-7c-0.5-0.8-0.8-1.5-1.2-2.1c-2.8-4.8-2.4-8.4,1.5-12.3c4.1-4,8.1-8,12.3-11.9c0.7-0.7,2.1-0.6,3.1-0.9
	C128.9,194.1,128.8,195.4,128.1,196.2z M114.8,209.7c-1.9,2.7-1.1,6.2,2.2,9.4c3,2.8,6.3,3.3,8.7,1.5
	C122.1,217,118.4,213.3,114.8,209.7z M74.4,254c5-4.2,10-8.2,14.9-12.5c0.6-0.6,0.8-1.7,1.1-2.6c-0.9,0-2-0.4-2.5,0
	c-6,5-12.1,10-17.9,15.2c-2.1,1.9-2.6,4.5-1.3,7.2c1.3,2.8,3.8,4,7.9,4.3c0.9-0.6,2.8-1.3,4.2-2.6c6.1-6.2,12-12.6,17.9-19
	c0.6-0.7,0.5-2,0.7-3c-1,0.3-2.2,0.3-2.9,0.9c-3,3.1-5.9,6.4-8.8,9.6c-3.1,3.3-6.3,6.6-9.5,9.8c-1.8,1.8-3.9,1.6-5.7-0.1
	c-2-1.8-1.3-3.6,0.2-5.3C73.1,255.1,73.8,254.5,74.4,254z M369.2,216.6c-2.1-0.5-3.2-0.7-5,0.3c-2.3,1.3-4.5,3-6.3,5
	c-1.4,1.6-1.8,4-2.2,6.1c-0.6-1-1.5-1.7-2.1-2.7c-0.5-0.8-0.6-1.4-1.4-1.9c-1.5-1.1-3.4-1.5-5.2-1.9c-2.3-0.6-5.5-0.9-7.8-0.3
	c-2.7,0.8-4.6,2.7-5.3,5.5c-0.7,3.1,0.4,6.1,1.9,8.7c1.4,2.4,2.5,4.7,4.4,6.7c2.3,2.4,5.3,4.4,8.2,6c4,2.3,7.4,6,10.4,9.5
	c0.9,1.1,1.6,2.6,2.9,3.2c0.2,0.1,0.5,0.2,0.7,0.2c2,0.4,2.3-3,2.7-4.4c0.7-2.6,1.2-5.5,2.9-7.7c1.6-2.1,3.7-3.7,5.2-5.8
	c1-1.3,1.2-3.1,1.9-4.5c0.8-1.5,0.8-3.9,1.3-5.7c0.5-2,1.1-3.8,1.4-5.8c0.4-2.9,0.3-5.6-1.9-7.7
	C374.2,217.9,371.5,217.1,369.2,216.6z M308.2,205c-0.4-2.1-1.5-3.6-3.5-4.5c-2-0.8-4.1-1.2-5.4,0.8c-1,1.4-1.1,3.8-1.1,5.5
	c0,2.6-0.2,5.3,0.1,7.9c0.4,4.5,0.6,9,1.6,13.4c0.3,1.4,0.6,3,2.2,3.3c0.3,0.1,0.7,0.1,1.1,0.1c1.9,0.1,3.8-0.4,5.5-0.9
	c3.2-0.8,5.9-2.2,8.9-3.6c2.5-1.2,4.3-2.4,6.2-4.5c1.3-1.4,2.6-3.2,3.3-5.1c0.7-1.8,1.4-5.3,0.4-7.2c-0.9-1.8-3.5-2.4-5.3-2.4
	c-2.1,0-4.1,0.5-6.2,0.5c-2,0-3.5,1-5.1,2c-1.2,0.8-2.6,0.4-2.6-1.2C308.1,207.7,308.4,206.4,308.2,205z M347.2,208.8
	c2.8,2.5,4.7-0.6,6-2.8c0.6-1,1.1-2,1.6-3.1c1.1-2.3,2.2-4.7,4-6.6c0.9-1,1.5-1.7,1.2-3.2c-0.3-1.2-2.2-2.8-3.4-2.8
	c-2.2-0.1-4.1,3.9-6.2,4.3c-0.5,0.1-1,0-1.5-0.5c-0.8-0.6-1.3-1.6-2.1-2.3c-1.9-1.6-6-3.1-7.6-0.4c-2.1,3.8,0.6,7.9,2.9,10.9
	C343.7,204.5,345.2,206.9,347.2,208.8z M353,297.8l-3.7-11.4l-3.7,11.4h-12l9.7,7.1l-3.7,11.4l9.7-7.1l9.7,7.1l-3.7-11.4l9.7-7.1
	H353z"/>
</svg>
