<?xml version="1.0" encoding="utf-8"?>
<!-- Generator: Adobe Illustrator 18.0.0, SVG Export Plug-In . SVG Version: 6.00 Build 0)  -->
<!DOCTYPE svg PUBLIC "-//W3C//DTD SVG 1.1//EN" "http://www.w3.org/Graphics/SVG/1.1/DTD/svg11.dtd">
<svg version="1.1" id="Layer_1" xmlns="http://www.w3.org/2000/svg" xmlns:xlink="http://www.w3.org/1999/xlink" x="0px" y="0px"
	 viewBox="0 0 432 432" enable-background="new 0 0 432 432" xml:space="preserve">
<path fill="#333333" d="M360.8,285.7c-0.4,0.4-0.5,0.8-0.3,1.2c0.2,0.4,0.3,0.8,0.5,1.2c0.6,1.1,1.2,2.2,1.8,3.2
	c0.3,0.5,0.5,0.9,0.7,1.4c0.3,1,0.1,1.9-0.7,2.6c-0.8,0.7-1.7,0.8-2.7,0.3c-0.3-0.2-0.7-0.4-1-0.6c-0.8-0.6-1.6-1.2-2.4-1.8
	c-0.5-0.4-0.9-0.7-1.4-1.1c-0.3,0.2-0.6,0.4-0.8,0.7c-1.1,1.1-2.1,2.2-3.2,3.3c-0.5,0.5-1,1-1.6,1.3c-0.9,0.6-1.8,0.5-2.6-0.1
	c-0.7-0.5-0.9-1.4-0.8-2.2c0.1-0.8,0.3-1.6,0.6-2.3c0.3-0.9,0.6-1.9,0.9-2.8c0.2-0.6,0.1-0.7-0.5-1c-0.9-0.4-1.9-0.6-2.8-0.9
	c-0.7-0.2-1.5-0.4-2.2-0.7c-0.3-0.1-0.6-0.2-0.8-0.4c-1.4-0.8-1.6-2.5-0.6-3.6c0.4-0.4,0.9-0.7,1.3-1c1.6-0.9,3.3-1.3,5.1-1.7
	c0.6-0.1,1.1-0.2,1.8-0.4c-0.1-1.2-0.2-2.2-0.3-3.3c-0.1-0.9-0.2-1.8-0.1-2.7c0-1.2,0.9-2.1,2-2.2c0.7-0.1,1.4,0.1,1.9,0.6
	c0.5,0.5,1,1,1.4,1.6c0.6,0.9,1.1,1.9,1.7,2.9c0.3,0.5,0.5,0.9,0.8,1.4c0.4-0.1,0.9-0.2,1.3-0.3c1.1-0.4,2.2-0.8,3.3-1.1
	c0.6-0.2,1.3-0.3,2-0.3c1.7,0.1,2.8,1.6,2.3,3.3c-0.2,0.7-0.5,1.4-1,1.9c-0.7,0.8-1.4,1.6-2.2,2.3
	C361.8,284.8,361.3,285.2,360.8,285.7z M114.2,280c0.6-0.6,1.1-1.2,1.7-1.8c0.4-0.4,0.7-0.9,0.8-1.5c0.3-1.3-0.5-2.5-1.8-2.6
	c-0.5,0-1,0.1-1.5,0.2c-0.9,0.2-1.7,0.6-2.5,0.9c-0.3,0.1-0.6,0.2-1,0.3c-0.2-0.4-0.4-0.7-0.6-1.1c-0.4-0.7-0.8-1.5-1.3-2.2
	c-0.3-0.4-0.7-0.8-1.1-1.2c-0.4-0.4-0.9-0.5-1.5-0.4c-0.9,0.1-1.5,0.8-1.5,1.7c0,0.7,0.1,1.4,0.1,2.1c0.1,0.8,0.1,1.7,0.2,2.6
	c-0.5,0.1-0.9,0.2-1.4,0.3c-1.4,0.3-2.7,0.6-3.9,1.3c-0.4,0.2-0.7,0.4-1,0.7c-0.8,0.9-0.6,2.2,0.4,2.8c0.2,0.1,0.4,0.2,0.6,0.3
	c0.6,0.2,1.1,0.3,1.7,0.5c0.7,0.2,1.4,0.5,2.1,0.7c0.5,0.2,0.5,0.3,0.4,0.8c-0.2,0.7-0.5,1.4-0.7,2.2c-0.2,0.6-0.3,1.2-0.4,1.8
	c-0.1,0.7,0.1,1.3,0.6,1.7c0.6,0.5,1.3,0.5,2,0.1c0.4-0.3,0.9-0.6,1.2-1c0.8-0.8,1.6-1.7,2.5-2.6c0.2-0.2,0.4-0.3,0.6-0.5
	c0.4,0.3,0.8,0.6,1.1,0.8c0.6,0.5,1.2,1,1.8,1.4c0.2,0.2,0.5,0.3,0.7,0.5c0.7,0.3,1.4,0.3,2.1-0.2c0.6-0.5,0.7-1.2,0.5-2
	c-0.1-0.4-0.3-0.7-0.5-1.1c-0.5-0.8-0.9-1.7-1.4-2.5c-0.2-0.3-0.3-0.6-0.4-0.9c-0.1-0.4-0.1-0.7,0.2-0.9
	C113.4,280.7,113.8,280.4,114.2,280z M310.7,279.8c-1.6-0.8-3.3-1.2-5.1-0.9c-3,0.4-4.7,2.8-4.1,5.7c0.4,1.8,1.2,3.4,2.1,4.9
	c3.2,5.1,10,9,15.2,9.8c1.5,0.2,2.9,0.2,4.3-0.3c0.7-0.3,1.3-0.6,1.7-1.3c0.7-1,1.3-2.1,1.7-3.2c0.6-1.7,0.9-3.4,1.2-5.1
	c0.5-3.2,0.6-6.3,0-9.5c-0.3-1.8-0.8-3.6-1.8-5.2c-0.8-1.4-1.8-2.5-3.1-3.3c-2.7-1.7-7.2-1-8.5,3.1c-0.1,0.2-0.2,0.5-0.2,0.7
	c-0.4,1.6-0.5,3.3-0.4,4.9c0,0.5,0,1.1,0,1.7c-0.3-0.2-0.4-0.4-0.6-0.5C312.4,280.8,311.6,280.2,310.7,279.8z M59.3,278.2
	c-1.6-0.8-3.3-1.2-5.1-0.9c-3,0.4-4.7,2.8-4.1,5.7c0.4,1.8,1.2,3.4,2.1,4.9c3.2,5.1,10,9,15.2,9.8c1.5,0.2,2.9,0.2,4.3-0.3
	c0.7-0.3,1.3-0.6,1.7-1.3c0.7-1,1.3-2.1,1.7-3.2c0.6-1.7,0.9-3.4,1.2-5.1c0.5-3.2,0.6-6.3,0-9.5c-0.3-1.8-0.8-3.6-1.8-5.2
	c-0.8-1.4-1.8-2.5-3.1-3.3c-2.7-1.7-7.2-1-8.5,3.1c-0.1,0.2-0.2,0.5-0.2,0.7c-0.4,1.6-0.5,3.3-0.4,4.9c0,0.5,0,1.1,0,1.7
	c-0.3-0.2-0.4-0.4-0.6-0.5C61,279.2,60.2,278.6,59.3,278.2z M87.5,329.8c-2.9-7-6.3-14-10.2-20.9c-0.9-1.8-2.1-2.9-3.6-3.3
	c-1.5-0.4-3.3-0.4-5.3,0.1c-1.8,0.3-2.3,1.4-1.5,3.3c1.1,2.9,2.5,5.8,3.9,8.9c3.2,6.8,5.8,13.6,7.9,20.4c2.1,6.9,3.4,14,3.9,21.5
	c0.1,1.3,0.2,2.5,0.3,3.6c0.1,1.1,0.1,2.3,0.1,3.4c0,4.6-0.4,8.8-1.2,12.7c-0.2,0.8-0.5,1.7-0.7,2.7c-0.2,1-0.5,1.9-0.9,2.8
	c-0.3,0.9-0.7,1.7-1.2,2.4c-0.5,0.7-0.9,1.1-1.4,1.2c-0.3,0.1-0.9-0.2-1.6-0.9c-0.7-0.7-1.5-1.5-2.4-2.6c-0.9-1-1.7-2.2-2.5-3.4
	c-0.8-1.3-1.4-2.5-1.9-3.6c-1.9-4.3-3.4-8.9-4.3-13.6c-0.9-4.7-1.4-9.5-1.5-14.3c-0.1-1.3-0.2-2.5-0.3-3.8c-0.1-1.3-0.1-2.5-0.3-3.8
	c0-1.6-0.8-2.6-2.4-2.9c-1.9-0.3-3.7-0.2-5.3,0.5c-1.6,0.7-2.7,2.1-3.3,4.3c-2.7,11.3-6.8,22.1-12.2,32.4c-1.3,2.3-2.6,4.5-4.1,6.5
	c-1.5,2.1-3.3,3.9-5.3,5.5c-0.5,0.3-0.9,0.6-1.3,0.9c-0.4,0.2-0.8,0.5-1.3,0.9c-1.4-2.1-2.1-4.2-2.2-6.5c-0.1-2.3-0.1-4.6,0.2-6.9
	c0.9-7.1,2.5-14,4.9-20.6c2.3-6.6,4.8-13.2,7.5-19.7c1.6-4,3.2-8,4.7-12c1.5-4,2.9-8.1,4.2-12.2c1-3.3,1.4-6.9,1.2-10.6
	c-0.2-5-2.9-8.4-8.1-10c-3.1-1-6.4-1.3-10-0.7c-4,0.6-7.4,1.6-10.2,3.1c-2.8,1.5-5.4,3.7-7.8,6.7c-2.3,2.9-3.8,6.3-4.6,10.3
	c-0.7,4-0.5,7.7,0.6,11c0.7,1.9,1.9,3.1,3.6,3.4c1.7,0.3,3.5,0.1,5.5-0.9c0.1,0,0.3-0.1,0.5-0.3c0.2-0.2,0.4-0.5,0.5-0.9
	c0.1-0.4,0.1-0.9,0-1.6c-0.1-0.7-0.5-1.6-1-2.7c-0.9-1.8-1.3-3.8-1.1-5.8c0.2-2.1,0.8-4.1,2-6c1.5-2.6,3.6-4.9,6.3-7
	c2.7-2,5.2-3.3,7.5-3.9c0.8,0.9,1.2,2,1.3,3.2c0.1,1.2,0,2.4-0.3,3.5c-0.7,3.7-1.7,7.2-3.1,10.6c-1.4,3.4-2.8,6.8-4.3,10.1
	c-2.4,5.5-4.8,10.9-7.1,16.3c-2.3,5.4-4.3,11-5.9,16.8c-1.1,4-2.1,8-2.7,12c-0.7,4-0.9,8.1-0.7,12.2c0.3,5.2,2.1,9.1,5.2,11.8
	c3.1,2.7,7.3,4.1,12.5,4c2.6-0.1,5-0.6,7-1.5c2.1-0.9,4-2.2,5.8-3.8c2.5-2.3,4.6-4.7,6.4-7.4c1.7-2.6,3.3-5.4,4.6-8.4
	c0.5-1,1.1-2.4,1.8-4.2c0.7-1.8,1.2-3,1.5-3.7c0.1,0.9,0.3,1.9,0.6,3c0.3,1.1,0.5,1.9,0.8,2.5c0.7,2.4,1.6,4.7,2.8,7
	c1.2,2.2,2.4,4.1,3.7,5.6c1.6,1.8,3.4,3.5,5.4,5c2,1.5,4.3,2.4,7,2.7c5.2,0.8,9.2,0.2,12-1.8c2.9-2,4.9-4.9,6-8.7
	c0.2-0.6,0.4-1.1,0.4-1.7c0.1-0.6,0.2-1.1,0.4-1.7c0.9-4.7,1.3-9.4,1.3-14c-0.1-4.6-0.4-9.4-0.9-14.2
	C92.3,344.3,90.4,336.9,87.5,329.8z M388.5,361.5c-0.1,0.5-0.2,0.9-0.2,1.4c0,1.7,0.2,4,0.6,6.8c0.4,2.8,0.9,5.6,1.5,8.3
	c0.6,2.7,1.4,5.2,2.2,7.3c0.9,2.1,1.9,3.3,3,3.5c2.3-0.6,4.2-2.1,5.7-4.6c1.5-2.5,2.9-5.2,4.1-7.9c1.8-3.7,3.7-7.6,5.6-11.9
	c1.9-4.3,3.6-8.3,5.2-12.1c0.2-0.6,0.6-1.2,1.2-1.9c0.6-0.7,1.6-0.9,3.1-0.7c0.9,0.2,1.4,0.8,1.5,1.6c0.1,0.9,0.1,1.5-0.2,1.8
	c-1.3,3.7-2.8,7.8-4.6,12.4c-1.8,4.6-3.7,8.6-5.5,12c-1.3,2.6-2.5,5-3.7,7.2c-1.2,2.2-2.7,4.4-4.5,6.5c-2.1,2.4-4.2,4-6.4,4.7
	c-2.2,0.7-4.4,0.8-6.4,0.3c-2-0.6-3.9-1.7-5.6-3.4c-1.7-1.7-3.1-3.8-4.3-6.4c-0.5-1-0.9-2.2-1.3-3.4c-0.4-1.3-0.7-2.9-0.9-4.8
	c-0.2,0.2-0.6,0.9-1.1,1.9c-0.5,1-1.1,2.2-1.7,3.4c-0.6,1.3-1.3,2.5-2,3.7c-0.7,1.2-1.3,2.1-1.7,2.7c-3.2,3.8-7.4,5.6-12.7,5.3
	c-3.3,0-6.4-0.8-9.4-2.3c-2.9-1.5-5.1-3.7-6.4-6.6c-0.3-0.7-0.7-1.9-1-3.4c-1.1,2.2-2.3,4.4-3.6,6.5c-1.3,2.1-2.5,4.1-3.9,6
	c-1.3,1.9-2.9,3.7-4.9,5.3c-1.3,1.1-2.7,2.1-4.2,2.9c-1.5,0.8-3.2,1.3-4.9,1.5c-3.8,0.5-7.2-0.3-10.1-2.4c-3-2.1-4.7-5-5.2-8.8
	c-0.3-2.6-0.4-5.2-0.1-7.7c0.3-2.5,0.7-5.1,1.3-7.7c1.3-5.2,2.8-10.2,4.7-15c1.9-4.9,3.7-9.7,5.6-14.5c0.8-2.3,1.6-4.5,2.5-6.7
	c0.9-2.2,1.6-4.4,2.3-6.7c0.3-1.1,0.6-2.3,0.7-3.3c0.1-1.1-0.1-2.4-0.7-3.9c-0.9,0.8-1.8,1.5-2.7,2.1c-0.9,0.6-1.7,1.2-2.5,1.9
	c-3.1,2.7-5.9,6.1-8.4,10.1c-3.1,4.8-5.6,9.8-7.4,15c-1.8,5.2-3.2,10.7-4.1,16.4c-0.1,0.8-0.2,1.6-0.3,2.4c-0.1,0.8-0.1,1.6-0.3,2.4
	c-0.5,1.8-0.4,3.9,0.2,6.2c0.5,1.5-0.1,2.5-1.5,2.9c-2.1,0.7-4.2,0.7-6.4,0c-0.6-0.2-1.1-0.5-1.5-0.9c-0.4-0.4-0.7-0.9-0.9-1.5
	c-0.9-1.6-1.6-3.2-2.1-4.8c-0.5-1.6-0.9-3.3-1.3-5c-0.4-2.2-0.8-4.4-1-6.6c-0.1,0.2-0.2,0.4-0.3,0.6c-1.4,2.5-2.8,5-4.2,7.4
	c-1.4,2.4-2.8,4.4-4,6c-1.9,2.5-4.2,4.4-6.7,5.5c-2.5,1.1-5.1,1.7-7.7,1.7c-2.6,0-5.2-0.5-7.6-1.5c-2.5-1-4.6-2.4-6.4-4.1
	c-1.5-1.5-2.7-3.1-3.5-4.8c-0.4-0.7-0.7-1.5-1-2.3c-0.8,1.6-1.7,3.2-2.6,4.7c-1.9,3.1-3.7,5.5-5.6,7.2c-2.7,2.5-5.6,3.9-8.6,4.2
	c-3,0.3-6.1-0.1-9.4-1.1c-1.9-0.7-4.2-2-6.6-3.9c-2.5-1.9-4.5-4-6.3-6.3c0.1,1.5,0.5,3.4,1.1,5.7c0.6,2.3,1.1,4.3,1.3,6
	c0.2,1.3,0.5,2.6,0.8,4c0.3,1.4-0.4,2.3-2,2.9c-3,1.1-5.7,1.1-8.1,0c-1.1-0.7-2.1-1.7-2.9-3.1c-1.6-2.4-2.8-4.9-3.6-7.6
	c-0.8-2.6-1.5-5.3-2.1-8.1c-0.7-3.2-1.1-6.3-1.6-9.5c-1.9,3.5-4,6.8-6.3,10c-1.3,1.6-2.6,3.3-4.1,5c-1.5,1.7-3.1,3.2-4.8,4.5
	c-3.8,2.6-8,3.8-12.7,3.5c-4.7-0.3-8.8-1.9-12.4-4.9c-3.7-3.2-6.2-6.8-7.6-10.8c-0.3,0.5-0.7,0.9-0.9,1.4c-0.3,0.5-0.6,0.9-0.9,1.2
	c-1.8,2.6-4,4.5-6.5,5.7c-2.5,1.1-5.1,1.7-7.7,1.8c-2.6,0.1-5.2-0.4-7.6-1.4c-2.5-1-4.6-2.3-6.4-4c-1.5-1.5-2.7-3.1-3.5-4.8
	c-0.9-1.7-1.5-3.5-2-5.5c-1.3-5.5-1.3-10.7-0.2-15.6c1.1-4.9,3.2-9.8,6.2-14.6c0.9-1.3,1.9-2.5,2.8-3.8c1-1.3,2.1-2.4,3.3-3.4
	c3.8-3.2,8-4.6,12.7-4.3c1.7,0.1,3,0.5,3.9,1.3c0.9,0.7,1.5,1.9,1.8,3.5c0.8,4,0.4,8.2-1.2,12.5c-1,2.6-2.5,4.7-4.5,6.3
	c-1.9,1.5-4.5,2.4-7.6,2.7h-3.4c-0.2,0.7-0.4,1.4-0.4,2.1c-0.1,0.7-0.1,1.4-0.3,2.1c-0.3,2.7-0.4,5.4-0.2,8c0.2,2.6,0.9,5.2,2.1,7.8
	c0.9,2.3,2.3,4.2,4.3,5.7c1,0.8,2.1,1,3.3,0.6c1.2-0.4,2.3-1,3.3-1.8c2.4-2.1,5.2-5.9,8.4-11.7c-0.1-4,0.3-7.9,1.4-11.8
	c1-3.8,2.5-7.6,4.3-11.2c1-2.2,2.2-4.3,3.5-6.3c1.3-2,2.8-3.9,4.5-5.8c1.3-1.4,2.6-2.6,4.1-3.8c1.5-1.1,3.1-2.1,4.8-2.7
	c3.3-1.3,6.6-1.5,10-0.9c3.3,0.7,5.2,2.6,5.7,5.8c0.1,0.7,0.2,1.4,0.2,2.1c0,0.7,0,1.4,0,2.1c-0.6,5-2.1,9.6-4.6,13.7
	c-3.3,5-8.3,7.8-14.9,8.4H153h-1.4c-0.7,3.2-1.2,6.4-1.5,9.4c-0.3,3.1-0.1,6.2,0.6,9.3c0.5,1.9,1.2,3.8,2.3,5.4
	c1.1,1.7,2.4,3.2,4,4.5c0.7,0.7,1.5,0.9,2.6,0.5c1-0.3,2-0.8,2.8-1.4c0.9-0.6,1.7-1.2,2.7-1.9c1.9-1.6,3.7-3.4,5.2-5.5
	c1.5-2.1,2.9-4.1,4.1-6.2c2.5-3.8,4.7-7.6,6.6-11.3c0.8-1.5,1.5-3.1,2.3-4.7c0-1.3-0.1-2.6-0.1-3.9c0.1-8.8,1.2-17.7,3.5-26.6
	c1.8-7.1,4.4-13.8,7.6-20c0.2-0.4,0.4-0.7,0.6-1.1c-4.3,0-8.5,0-12.7,0c-8.1,0-16,0.1-23.5,0.1c-5.7,0-11.2-0.1-16.4-0.1
	c-16.1,12.1-13.4,9.1-34.8,10.6c-2.3,0.2-4.6,0.4-6.8,0.5c-2.8,0.1-5.8,0.9-10.1,1c-2,0-4,0-5.4-1.7c-0.6-0.9-0.8-1.3-0.8-2.6
	c0.2-2.4,1.8-4.3,6.9-7.4c-2.2,0-5,0-6.9-0.9c-1.3-0.6-1.5-1-0.2-1.6c1-0.5,2.7-0.3,3.8-0.5c1.1-0.1,2.2-0.3,3.3-0.4
	c-4.4-3.6-6-5.1-6.2-8.3c0-0.2,0-0.3,0-0.6c1-6.2,7.7-4.5,12.9-3.4c0.6,0.1,1,0.2,1.6,0.3c8.6,1.1,5.4,0.8,15.5,1.4
	c4.7,0.2,7.9-0.7,13.3,0.9c3.7,1.2,10.9,5.3,13.3,9.1c5.4-0.1,11.1-0.2,17.1-0.3c7.5-0.1,15.3-0.2,23.5-0.2c4.9,0,9.9,0.1,15,0.1
	c2.6-4.4,5.6-8.7,8.9-12.8c1.3-1.5,2.6-2.9,4-4.2c1.4-1.3,3-2.5,4.7-3.5c3-1.8,5.9-2.5,8.9-2.1c1.7,0.2,3,0.9,4,1.9
	c0.9,1,1.5,2.3,1.9,3.7c0.3,1.4,0.5,2.9,0.4,4.5c-0.1,1.6-0.1,3.1-0.3,4.5c-0.4,2.8-1,5.6-1.7,8.3c1.7,0,3.4,0,5.1,0
	c4.3,0.1,8.7-0.7,13-0.7c4.3,0.1,8.6,0.1,12.9,0.2c8.5,0.3,17,0.5,25.1,0.7c8.1,0.2,16,0.3,23.5,0.3c1.9,0,3.7-0.1,5.5-0.1
	c0.9,0,1.8,0,2.7-0.2c0.9-0.1,1.8-0.3,2.7-0.3c3.5,0,6.9,0.4,10.2,0.3c6.5-0.3,12.5,0.6,17.8-0.2c5.3-0.6,9.9-0.3,13.7,0.1
	c3,0.3,5.5,0.6,7.4,0.7c0-0.2,0-0.4,0.1-0.6c0.4-2,2.1-5.4,4.5-5.7c2.1-0.3,3.8,1.4,4.4,3c0.2,0.6,0.2,1.7,0.8,2.1
	c1.3,0.8,2.1-1.5,2.3-2.2c0-0.1,0.1-0.2,0.1-0.3c0.6-1.5,1.6-2.7,3.6-2.8c0.4,0,0.8,0,1.2,0.1c0.2-0.4,0.3-0.8,0.4-1.2
	c1-2.6,2.2-5.1,3.6-7.5c1.4-2.4,3.1-4.5,5.1-6.3c1.9-1.8,4.2-2.8,6.7-3c3.2-0.3,5.1,1,5.7,3.9c0.2,0.9,0.4,2.1,0.4,3.6
	c0.1,1.5,0.1,3.1,0,4.8c-0.1,1.7-0.1,3.3-0.2,4.9c-0.1,1.5-0.1,2.7-0.3,3.5c0,0.5-0.1,1-0.1,1.6c2.9,0.5,5.8,0.9,8.7,1.3
	c2.1,0.3,7.6,0.6,8.8,2.1c-5.8,1.5-12,2.4-18.2,3c-0.2,1.1-0.3,2.2-0.5,3.2c-0.6,3.4-1.4,6.7-2.2,9.9c-0.9,3.2-1.9,6.4-3,9.7
	c-1.1,3.3-2.4,6.8-3.8,10.7c-1,3-2.1,5.9-3.3,8.7c-1.1,2.8-2.3,5.6-3.6,8.5C388.7,360.6,388.6,361,388.5,361.5z M394.1,301.4
	c2,0.3,4,0.5,6,0.7c0.3-2.7,0.5-5.5,0.6-8.3c0.1-2.9,0.1-5.6-0.2-8.2c-0.6,0.9-1.2,2.2-2,3.8c-0.7,1.6-1.5,3.3-2.1,5.2
	c-0.7,1.8-1.3,3.7-1.9,5.6C394.4,300.6,394.3,301,394.1,301.4z M388.5,342.8c1.5-3.2,2.7-6.1,3.7-8.6c1-2.5,2-5.3,3-8.4
	c1-3.1,1.8-6.1,2.4-9.1c0.5-1.9,0.9-4.1,1.4-6.6c0,0,0-0.1,0-0.1c-0.7,0.1-1.4,0.1-2.1,0.2c-1.6,0.1-3.3,0.2-4.9,0.4c0,0,0,0-0.1,0
	c-0.7,3.3-1.3,6.6-1.7,9.7c-0.6,4.8-1.2,10-1.6,15.5c0,1.3,0,2.4-0.1,3.5C388.5,340.4,388.5,341.5,388.5,342.8z M88.8,315.7
	C88.8,315.7,88.8,315.7,88.8,315.7C88.8,315.8,88.8,315.8,88.8,315.7c0,0-0.1,0.1,0,0.1c0,0,0,0,0,0
	C88.8,315.9,88.8,315.8,88.8,315.7z M102.7,307.5c-2.9,0-5.2,0-6.5,0c-1.7,0.9-3.3,2.1-4.6,3.5c-0.6,0.7-1.1,1.5-1.7,2.1
	c-0.5,0.5-0.9,1.2-0.7,2c0,0.1,0.1,0.3,0.2,0.4c0.3,0.5,0.7,0.8,1.2,0.9c1.1,0.2,2.2,0.2,3.3,0.4c0.6,0.1,1.2,0,1.8-0.1
	c0.2,0,1.5,0,1.6-0.2C99.3,313.6,101,310.7,102.7,307.5z M102.8,305c-0.7-0.8-1.5-2.7-2-3.8c-1-2.1-3.7-4.1-4.5-6.3
	c-1.6-0.2-2.9-0.5-4.9-0.3c-0.9,0.1-1.7,0.3-2.1,0.6c-0.1,0.1-0.2,0.1-0.2,0.2c0,0.1-0.1,0.1-0.1,0.2c0,0,0,0-0.1,0.1l-0.1,0.7
	c0.4,3.6,3.4,6.4,5.8,8.7C95.4,305,98.3,305,102.8,305z M105.6,298.3c1.1,1.8,2.4,3.4,3.7,5.1c0.4,0.5,0.9,1,1.3,1.5
	c2.2-0.1,4.6-0.1,7.3-0.2c-0.7-0.9-0.7-2-1.1-3c-0.7-1.7-1.3-3.4-2-5.1c-7.7-0.5-7.6-0.5-10.7-0.8
	C104.7,296.5,105.1,297.4,105.6,298.3z M119.4,307.6c-3.6,0-7,0-9.9-0.1c-1.1,2.5-1.7,5.4-3.1,7.7c2.7-0.3,7.6-0.5,9.3-0.6
	c0.5-1,1-1.5,1.5-2.6c0.6-1.3,1.4-2.5,2-3.8C119.3,308,119.3,307.8,119.4,307.6z M139.8,307.7c0,0-0.3,0-13.4-0.1
	c-0.3,0.3-0.7,0.6-0.8,0.7c-1.7,1.7-2.9,4.5-4,6.2c1.8,0,5-0.2,6.7-0.6c2.2-0.5,2.3-0.7,7.7-3.7
	C137.2,309.6,138.8,308.4,139.8,307.7z M139.8,304.2c-2.8-2.9-7-4.9-10.8-6.2c-2.6-0.9-5.4-1-8.6-1.2c1.9,3.8,5.6,4.7,6.9,7.7
	C142.6,304.1,135.6,304.3,139.8,304.2z M152.6,357.7c1.3-0.2,2.5-0.7,3.8-1.5c1.3-0.7,2.3-1.6,3.1-2.5c2.3-2.4,3.9-4.9,4.7-7.5
	c0.9-2.6,1.3-5.5,1.3-8.8c0-0.6,0-1.1-0.1-1.6c-0.1-0.5-0.3-1-0.6-1.5c-1.1,0.8-2.4,2.1-3.8,4c-1.4,1.9-2.7,4-3.9,6.4
	c-1.2,2.3-2.2,4.7-3.1,7C153.2,354.1,152.7,356.1,152.6,357.7z M115.4,355.5c1.6,0.2,2.9,0.1,3.8-0.5c0.9-0.6,1.7-1.4,2.4-2.4
	c0.9-1.3,1.6-2.6,2-4c0.4-1.4,0.7-2.9,0.9-4.4c0.2-1.9-0.1-3.8-0.9-5.7c-1.9,2.7-3.6,5.5-5,8.2C117.2,349.5,116.2,352.4,115.4,355.5
	z M209.8,303.9c3.5,0,7,0.1,10.5,0.1c0.9-3.3,1.5-6.8,1.9-10.3c0.1-1.3,0.2-2.5,0.2-3.7c0-1.2-0.2-2.5-0.5-3.9
	c-0.3,0.2-0.9,0.7-1.5,1.5c-0.7,0.7-1.4,1.6-2.2,2.6c-0.8,1-1.6,2-2.3,3c-0.7,1-1.3,1.9-1.8,2.6
	C212.5,298.5,211.1,301.2,209.8,303.9z M199.8,342.6c0.1,0.1,0.5-0.2,1.2-0.9c0.7-0.7,1.1-1.1,1.4-1.4c2.5-2.9,4.6-5.7,6.3-8.5
	c1.7-2.8,3.3-5.9,4.9-9.4c2.1-4.7,3.9-9.4,5.5-14.1c0.1-0.2,0.1-0.4,0.2-0.7c-3.7,0-7.4,0-11.1,0c-1,2.4-1.9,4.7-2.6,7.1
	c-1.9,6.2-3.5,12.9-4.9,20.3c-0.1,0.5-0.2,1-0.3,1.7c-0.1,0.7-0.2,1.4-0.3,2.2c-0.1,0.8-0.1,1.5-0.2,2.1
	C199.8,341.8,199.8,342.3,199.8,342.6z M209.7,362.1c1.9-1.3,3.5-2.8,4.9-4.5c1.4-1.7,2.5-3.4,3.3-5.2c0.8-1.8,1.1-3.4,1-4.9
	c-3.3,2.3-6.1,4.9-8.3,7.8s-4.4,6-6.4,9.4C205.9,364.3,207.8,363.4,209.7,362.1z M375.5,366.1c-0.6-3.9-0.9-7.2-0.9-10
	c0-2.8,0.1-5.9,0.2-9.2c0-2.4-1-4.1-3.1-5c-1.3-0.6-2.6-0.3-4,0.7c-1.4,1-2.7,2.4-4,4c-1.2,1.7-2.3,3.4-3.2,5.2
	c-0.9,1.8-1.5,3.1-1.9,3.9c-0.6,1.4-1.1,3.1-1.5,5.1c-0.4,2-0.7,4.2-0.9,6.4c-0.2,2.3-0.2,4.6,0,6.9c0.2,2.3,0.5,4.5,1.1,6.5
	c0.2,0.9,0.8,2.3,1.7,4c0.9,1.8,2,2.9,3.3,3.5c0.8,0.3,1.8,0.1,3.1-0.7c1.3-0.8,2.2-1.7,2.9-2.6c1.4-1.9,2.5-3.8,3.4-5.6
	c0.9-1.8,2-4.1,3.3-7c0.2-0.6,0.4-1.5,0.4-2.9C375.6,368,375.6,366.9,375.5,366.1z M381.1,311.2c-0.4-0.4-0.7-0.9-1.1-1.4
	c-0.4-0.5-1.2-2.7-2.3-2.3c-1.7,0.6-0.6,3.4-2.2,4.3c-1.9,1-4.3-0.5-5.5-1.6c-0.8-0.8-1.4-1.6-1.8-2.5c-2,0.1-4.6,0.3-7.9,0.7
	c-3.8,0.4-8.4,0.6-13.7,0.1c-5.3-0.8-11.3,0.1-17.8-0.2c-3.3,0-6.6,0.4-10.2,0.3c-0.9,0-1.8-0.2-2.7-0.3c-0.9-0.1-1.8-0.1-2.7-0.2
	c-1.8,0-3.7-0.1-5.5-0.1c-7.5,0-15.3,0-23.5,0.1c-8.1,0.2-16.6,0.3-25.1,0.5c-4.3,0-8.6,0-12.9,0.1c-4.3,0-8.7-0.8-13-0.9
	c-2,0-4.1,0-6.1-0.1c-0.7,2.4-1.4,4.7-2.2,7c-2.2,6.2-5,12.1-8.6,17.6c-1.7,2.9-3.9,5.8-6.5,8.8c-1.4,1.7-2.8,3.3-4.4,4.8
	c-1.5,1.5-3.2,2.8-5.1,3.9c-1,0.7-1.5,1.5-1.5,2.6v6.5c0.2-0.3,0.5-0.6,0.7-0.9c0.2-0.2,0.5-0.5,0.7-0.7c1-1.4,2.1-2.7,3.2-4
	c1.1-1.3,2.2-2.6,3.3-3.9c2.1-2.2,4.3-3.9,6.6-5.2c2.3-1.3,5.1-1.9,8.3-1.6h0.9c5.7,0.6,7.8,3.6,6.2,9.1c-1,3.3-2.7,6.1-5.2,8.2
	c-2.3,2.4-5.2,4.5-8.6,6.4c-0.3,0.2-0.9,0.5-1.8,0.9c-0.9,0.3-1.8,0.7-2.7,1.1c-1,0.4-1.9,0.8-2.8,1.2c-0.9,0.4-1.6,0.7-2.1,0.8
	c0.2,1.7,0.9,3.5,2.1,5.3c1.1,1.8,2.3,3.5,3.5,4.9c1.2,1.4,2.8,3.1,4.9,4.9c1.9,1.9,4.1,2.7,6.4,2.3c2.3-0.4,4.3-1.6,6.2-3.5
	c0.6-0.6,1.2-1.4,2-2.5c0.7-1.1,1.5-2.2,2.3-3.4c0.8-1.2,1.5-2.4,2.2-3.5c0.7-1.1,1.2-2.1,1.5-2.7c0.6-1.2,1.3-2.4,1.9-3.8
	c-0.2-3.4-0.1-6.6,0.7-9.7c1.1-4.9,3.2-9.8,6.2-14.6c0.9-1.3,1.9-2.5,2.8-3.8c1-1.3,2.1-2.4,3.3-3.4c3.8-3.2,8-4.6,12.7-4.3
	c1.7,0.1,3,0.5,3.9,1.3c0.9,0.7,1.5,1.9,1.8,3.5c0.8,4,0.4,8.2-1.2,12.5c-1,2.6-2.5,4.7-4.5,6.3c-1.9,1.5-4.5,2.4-7.6,2.7h-3.4
	c-0.2,0.7-0.4,1.4-0.4,2.1c-0.1,0.7-0.1,1.4-0.3,2.1c-0.3,2.7-0.4,5.4-0.2,8c0.2,2.6,0.9,5.2,2.1,7.8c0.9,2.3,2.3,4.2,4.3,5.7
	c1,0.8,2.1,1,3.3,0.7c1.2-0.3,2.4-0.9,3.5-1.7c2.2-1.7,4.9-5.1,8.3-10.1c2.4-3.5,4.8-7.9,7.3-13.1c-0.1-4.4,0.1-8.9,0.9-13.3
	c0.2-1.3,0.5-2.4,0.9-3.5c0.3-1.1,0.7-2.1,1.2-3.2c0.7-1.6,1.9-2.7,3.6-3.3c1.7-0.6,3.4-0.5,5,0.4c1.1,0.5,1.7,1.4,1.7,2.7
	c-0.1,2.7-0.3,5.5-0.5,8.2c-0.2,2.7-0.2,5.5,0,8.2c0.5-0.9,0.8-1.7,1-2.2c2.4-6.5,5.6-12.6,9.4-18.2c2.7-4,5.9-7.2,9.4-9.4
	c4.7-3.2,9.9-4,15.6-2.4c4.9,1.4,7.4,4.8,7.4,10.1c0,3.2-0.6,6.4-1.9,9.4l-9.3,21.6c-1.8,4-3.5,8.1-4.9,12.3
	c-1.4,4.2-2.5,8.5-3.3,13c-0.6,2.9-0.5,5.5,0.3,7.9c0.2,0.6,0.5,1.1,0.8,1.6c0.3,0.5,0.6,1.1,0.9,1.8c0.8-0.6,1.6-1.1,2.3-1.5
	c0.7-0.4,1.4-0.8,2-1.3c2.3-1.8,4.3-3.9,6.1-6.1c1.8-2.2,3.3-4.7,4.7-7.3c1.1-2.2,2.4-4.7,3.8-7.5c1-2.1,2-4.3,3-6.5
	c0-0.3,0-0.6,0-0.9c0.2-3.8,0.9-8,2.3-12.5c1.4-4.6,3.8-9.2,7.2-13.9c1.5-2.1,3.1-3.9,4.8-5.4c1.7-1.5,3.6-2.7,5.7-3.4
	c2.1-0.7,4.3-1,6.9-0.7c2.5,0.3,5.3,1.3,8.2,3c0.1-0.2,0.2-0.9,0.3-2.1c0.1-1.2,0.2-2,0.3-2.3c0.7-4.8,1.4-9.6,2.2-14.5
	C380,316.3,380.5,313.8,381.1,311.2z M257.8,355c0.9-0.6,1.7-1.4,2.4-2.4c0.9-1.3,1.6-2.6,2-4c0.4-1.4,0.7-2.9,0.9-4.4
	c0.2-1.9-0.1-3.8-0.9-5.7c-1.9,2.7-3.6,5.5-5,8.2c-1.4,2.7-2.5,5.7-3.3,8.8C255.7,355.7,256.9,355.5,257.8,355z M9.7,122.6
	c0.9,4.7,2.7,9.2,5.3,13.5c1.5,2.5,3.1,4.8,4.9,7c1.8,2.2,4.1,4.1,6.8,5.7c3.4,2,6.8,3.2,10.4,3.7c3.6,0.5,7,0.4,10.3-0.4
	c3.2-0.7,6.2-2.1,9-4.2c2.7-2.1,5-4.6,6.7-7.7c2.1-3.7,3.3-7.5,3.5-11.3c0.2-3.8-0.1-7.7-0.9-11.7c-0.6-2.5-2.1-4-4.3-4.7
	c-2.2-0.6-4.6,0-7.1,1.9c0.9,3.2,1.3,6.5,1.2,9.7c-0.1,3.2-0.6,6.3-1.5,9.1c-0.9,2.9-2.3,5.4-4.2,7.6s-4.1,3.9-6.7,5
	c-0.6-0.4-1.8-1.3-3.6-2.9c-1.8-1.6-3.7-3.9-5.7-7c-2-3.1-3.7-7.1-5.2-12c-1.5-4.9-2.3-10.9-2.4-18c-0.1-6.5,0.5-13.5,1.9-21.1
	c1.4-7.6,3.4-14.4,6-20.5c0.7-1.6,1.7-3.4,3-5.4c1.2-2,2.7-3.9,4.3-5.7c1.6-1.8,3.3-3.4,5.1-4.7c1.8-1.3,3.6-2.1,5.3-2.5
	c2.2,0.7,3.7,2.2,4.3,4.3c0.6,2.1,0.9,4.1,0.7,6c-0.1,1-0.1,1.9,0.2,2.6c0.2,0.7,1.1,1.2,2.4,1.5c1.7,0.4,3,0.4,3.9,0.1
	c0.9-0.3,1.6-1,2.1-2c1.9-3.7,2-7.3,0.5-10.6c-1.6-3.4-4.6-5.6-9.2-6.7c-2.2-0.6-4.4-0.9-6.6-0.7c-2.2,0.1-4.2,0.4-6.1,0.9
	c-1.9,0.5-3.5,1.1-5,1.9c-1.5,0.7-2.7,1.4-3.7,2.1c-3,2.1-5.8,4.4-8.3,6.7c-2.6,2.4-4.7,5-6.4,8c-4.6,7.5-7.9,15.2-9.9,23.1
	c-2,8-2.9,16.2-2.6,24.8C8.2,113.1,8.8,118,9.7,122.6z M303,77.8c0.9,0.5,1.9,0.6,3,0.4c1.1-0.2,2-0.7,2.6-1.3
	c1.4-1.2,2.2-2.7,2.4-4.5c0.2-1.7-0.1-3.3-1.1-4.7c-0.5-0.9-1.2-1.4-2.2-1.7c-1.7-0.2-3.3,0.3-4.8,1.6c-1.4,1.3-2.3,2.8-2.5,4.6
	C300,74.4,300.8,76.3,303,77.8z M424.8,102.8c-0.3,1.2-1.3,2.4-2.9,3.5c-1.1,1-2.8,2.1-4.9,3.2c-2.2,1.1-4.5,2.2-6.9,3.4
	c-2.4,1.1-4.8,2.1-7,3.1c-2.2,0.9-4,1.6-5.4,2c0.6,1.1,1.3,2.4,2,3.7c0.7,1.4,1.3,2.7,1.8,4.1c2.2,6.3,3.3,12.6,3.2,18.8
	c-0.2,6.2-2.2,11.2-5.9,14.8c-3.7,3.7-8.3,6-13.9,7c-1,0.2-2,0.4-2.9,0.4c-0.9,0-1.9,0-2.9,0c-3.5-0.3-6.2-1.7-8.3-4.4
	c-2.1-2.7-3.4-5.7-4-9c-0.5-3.2-0.4-6.2,0.2-9s1.6-5.2,2.8-7.3c1.2-2.1,2.6-4.1,4.2-5.9c1.6-1.8,3.3-3.6,5.1-5.3
	c0.4-0.2,0.7-0.6,1.1-0.9c0.4-0.4,0.8-0.7,1.3-1.1c-0.3-1-0.5-1.7-0.7-2.2c-0.7-1.5-1.7-3.1-2.8-4.8c-1.1-1.7-2.3-3.4-3.4-5
	c-0.4-0.6-0.9-1.1-1.3-1.7c-0.4,0.8-0.8,1.8-1.3,2.8c-1.2,2.5-2.5,5.1-4,7.8c-1.5,2.7-3,5.4-4.6,8c-1.6,2.6-3,4.8-4.4,6.5
	c-2.1,2.7-4.5,4.7-7.3,6c-2.7,1.2-5.5,1.9-8.4,1.9c-2.9,0-5.6-0.6-8.3-1.7c-2.7-1.1-5-2.6-7-4.5c-1.6-1.6-2.9-3.4-3.8-5.2
	c-0.9-1.9-1.6-3.9-2.1-6c0-0.1,0-0.2-0.1-0.3c-2,3.1-4.2,6.2-6.8,9.2c-3,3.4-6.5,5.3-10.4,6c-4,0.6-7.4,0.4-10.3-0.7
	c-3.2-1.4-5.6-3.3-7-5.7c-0.5-0.8-0.9-1.7-1.3-2.7c-0.7,1.2-1.5,2.4-2.3,3.6c-1.1,1.6-2.2,3.3-3.4,5.1c-1.7,2.6-3.8,5.1-6.1,7.6
	c-2.3,2.4-4.9,4.3-7.9,5.7c-1.5,0.6-3.1,1.1-4.9,1.4c-1.7,0.3-3.5,0.2-5.4-0.3c-3.4-0.7-5.8-2.1-7.3-4.1c-1.5-2-2.2-4.7-2.2-8.2
	c0-2.1,0.2-4.2,0.5-6.2s0.7-4.1,1.2-6.2c0.9-3.5,1.8-6.5,2.7-9c0.9-2.5,1.9-5.6,2.9-9c0.4-1.4,0.6-2.8,0.7-4.3
	c0.1-1.5-0.3-2.9-1-4.3c-0.7,0.1-1.5,0.3-2.1,0.5c-0.7,0.2-1.4,0.3-2.1,0.3c-1.4,0.3-2.8,0.4-4.2,0.6c-1.3,0.1-2.6,0.1-3.8-0.1
	c-1,1.3-2.1,2.5-3.4,3.4c-1.9,1.4-3.7,2.4-5.4,2.9c-3.6,1-7.2,1.5-10.6,1.5c0,0.4-0.1,1.2-0.4,2.5c-0.2,1.3-0.6,2.8-0.9,4.5
	c-0.4,1.7-0.8,3.4-1.2,5.1c-0.4,1.7-0.8,3.2-1.2,4.3c-1,2.7-2.4,5.5-4.2,8.2c-1.8,2.7-4.1,4.8-7,6.2c-2.2,1-4.7,1.5-7.5,1.6
	c-2.7,0.1-5.2-0.5-7.5-1.6c-1.2-0.6-2.5-1.4-3.8-2.4c-1.3-1-2.3-2.1-3.1-3.2c-1-1.5-1.8-3.1-2.5-4.8c-0.8,1.4-1.5,2.7-2.2,3.9
	c-1.2,2-2.3,3.5-3.2,4.7c-2.2,2.9-4.9,4.8-7.9,6c-3,1.1-6.1,1.5-9.2,1.1c-3.1-0.4-6.1-1.4-8.9-3.2c-2.8-1.7-5-3.9-6.6-6.5
	c-1.4-2.1-2.4-4.3-3.1-6.4c-0.2-0.6-0.3-1.2-0.5-1.8c-0.1,0.2-0.2,0.3-0.2,0.5c-3,6.3-5.4,10.5-7,12.8c-1.6,2.1-3.4,3.6-5.3,4.6
	c-1.9,0.9-3.8,1.3-5.7,1.2c-1.9-0.1-3.7-0.7-5.4-1.7c-1.7-1-3.2-2.4-4.5-4.1c-1.2-1.7-2.2-3.5-2.9-5.4c-0.7-1.9-1.2-3.9-1.6-6
	c-0.4-2.4-0.7-4.6-0.8-6.6s-0.4-3.9-0.7-5.5c-0.3,0.4-0.4,0.7-0.5,1.1c-0.1,0.4-0.2,0.7-0.5,1.1c-1,2.1-2,4.2-3,6.3
	c-1,2.1-2,4.2-3,6.3c-1.2,2.1-2.4,4-3.5,5.8c-2.1,2.9-4.8,4.8-8.2,5.8c-3.4,1-6.7,0.7-9.9-0.9c-1.1-0.5-2.4-1.8-3.7-3.9
	c-1.4-2.1-2.3-5-2.9-8.7c-0.6-3.7-0.5-8.1,0.1-13.4c0.6-5.3,2.3-11.3,5-18.2c0.5-1.1,1.2-2.4,2.1-3.8c0.9-1.4,1.9-2.8,3-4.2
	c1.1-1.4,2.3-2.6,3.5-3.6c1.2-1.1,2.3-1.9,3.3-2.5c3.2-1.9,6.7-3,10.3-3.4c3.6-0.4,7.3,0.2,11,1.7c0.4-2,1.2-3.1,2.6-3.4
	c1-0.2,2-0.3,2.9-0.3c0.9,0.1,1.9,0.4,2.9,1c0.5,0.4,0.9,1.1,1.1,2.1c0.1,0.9,0.2,1.7,0.2,2.4c0,0.7,0,1.6,0,2.4
	c-0.3,6.2-0.5,12.4-0.8,18.6c-0.3,6.2-0.3,12.3,0.1,18.6c0.2,2.9,0.6,5.7,1.1,8.6c0.5,2.9,1.9,5.3,4.1,7.5c1.9-0.9,3.7-2.9,5.6-6
	c1.9-3.1,3.7-6.6,5.4-10.4c1.1-2.4,2.2-4.8,3.4-7.4c0.1-0.2,0.2-0.4,0.2-0.6c-0.3-2.7-0.6-5.4-0.6-8.1c-0.1-4.8,0.1-9.7,0.6-14.5
	c0.5-4.8,1.1-9.7,1.9-14.5c0.7-4.8,1.9-9.6,3.4-14.4c1.5-4.7,3.3-9.3,5.3-13.6c2.1-4.4,4.5-8.5,7.4-12.5c1.2-1.7,2.5-3.4,3.9-4.9
	c1.4-1.6,2.8-3.1,4.3-4.6c1.5-1.4,3.4-2.5,5.6-3.5c2.2-0.9,4.6-1.3,7.1-1c2.1,0.3,3.6,1.3,4.5,3.3c0.9,1.9,1.2,4,0.9,6.2
	c-0.9,8.8-2.9,17.1-6.2,24.9c-3.2,7.8-7.2,14.8-11.8,21.2c-1.2,1.7-2.6,3.5-4,5.1c-1.4,1.7-3,3.2-4.8,4.6c-0.7,0.5-1.2,1.3-1.3,2.4
	c-0.7,6.3-1.1,12.6-0.9,18.8c0.1,6.2,1.1,12.4,2.8,18.7c0.5,1.9,1.1,3.5,2,4.8c0.8,1.4,1.6,2.5,2.5,3.4c0.9,0.9,1.6,1.6,2.2,2.1
	c0.6,0.5,1.1,0.7,1.3,0.7c3.1-1.2,5.9-3.8,8.5-7.6c2.5-3.8,4.8-7.8,6.7-12.1c0.1-0.3,0.2-0.5,0.3-0.8c-0.1-0.6-0.2-1.3-0.3-1.9
	c-0.2-3.6-0.1-7.2,0.5-10.8c0.6-3.6,1.6-7.1,3.1-10.4c0.9-1.9,1.9-3.9,3.2-6c1.4-2,2.9-3.7,4.5-5.2c1.6-1.5,3.7-2.4,6.3-2.6
	c0.1-0.9,0.2-1.6,0.2-2.2c0-0.6,0-1.2,0-1.9c0.4-4.8,2.7-7.8,6.9-8.8c5.3-1.4,9.3,0.1,11.8,4.3c1.6,2.5,2.9,5.2,3.7,8
	c0.9,2.9,1.4,5.7,1.7,8.6c0.2,2,0.4,4,0.4,6c0,2,0.1,4,0.2,6.2c0.6,0.1,2,0.1,4.1,0c2.1-0.1,4.2-0.6,6.2-1.5c1-0.4,1.9-1.1,2.8-2
	c-0.9-0.6-1.8-1.3-2.5-2.2c-1.8-2.4-2.8-5.3-3.1-8.8c-0.2-3.2,0.1-6.1,0.9-8.7c0.9-2.5,2.1-4.9,3.5-7c1.5-2,3-3.4,4.6-4.4
	c1.6-0.9,3.6-1.3,6.1-1c1.9,0.3,3.5,1.3,4.9,3.3c1.4,1.9,2.3,4.1,2.5,6.6c0.1,1.6,0.2,3,0.1,4c-0.1,1.1-0.2,2.1-0.5,3.1
	c-0.3,1-0.5,2-0.8,3.1c-0.3,1.1-0.7,2.3-1.2,3.8c-0.3,0.5-0.4,1-0.6,1.4c-0.1,0.4-0.3,1-0.6,1.6c0.6,0,1.2,0,1.8-0.1
	c0.6-0.1,1.1-0.1,1.8-0.1c2.1-0.2,3.9-0.4,5.2-0.5c1.4-0.1,3,0.3,5,1.2c4.6,1.9,7.1,5.3,7.6,10.3c0.2,2.4,0.2,4.5-0.3,6.5
	c-0.4,2-1,4.1-1.6,6.3c-0.7,2.5-1.5,4.7-2.1,6.7c-0.7,2-1.4,4.2-2.1,6.7c-0.4,1.4-0.7,2.6-1.1,3.8c-0.4,1.2-0.7,2.4-1.1,3.6
	c-0.3,1.1-0.4,2.4-0.5,3.8c-0.1,1.4,0.1,2.5,0.5,3.1c1.2-0.3,2.6-1,4.2-2.1c1.6-1.2,2.8-2.3,3.6-3.3c1.9-2,3.6-4.3,5.3-6.8
	c1.7-2.5,3.2-5,4.6-7.4c2-3.8,3.6-7.2,4.8-10.3c0.1-2.5,0.4-5,0.9-7.5c1-4.7,2.5-9.2,4.7-13.5c0.6-1.4,1.3-2.6,2.1-3.8
	c0.7-1.2,1.5-2.3,2.2-3.5c1.1-1.7,2.5-2.9,4.2-3.4c1.7-0.5,3.5-0.6,5.5-0.4c2.2,0.4,3.2,1.7,2.8,4.1c-0.1,1-0.3,2-0.6,3.1
	c-0.2,1.1-0.5,2.1-0.7,3.1c-0.7,2.6-1.5,5.3-2.1,7.9c-0.7,2.7-1.3,5.4-1.8,8.1c-0.5,2.7-0.9,5.5-1.3,8.4c-0.4,2.9-0.3,5.7,0.4,8.4
	c0.5,2,1.1,3.5,2,4.5c0.8,1,1.3,1.4,1.6,1.3c0.9-0.2,1.9-0.9,3.2-2c1.2-1.1,2.2-2,2.8-2.7c1.2-1.5,2.6-3.4,4.2-5.7
	c1.6-2.3,3.1-4.8,4.7-7.5c0.7-1.1,1.3-2.3,1.9-3.4c0.1-1.9,0.4-3.8,0.8-5.6c1.2-5.3,3.5-10.6,6.7-15.9c1-1.4,2-2.7,3.1-4.1
	c1.1-1.4,2.3-2.6,3.6-3.7c4.1-3.5,8.7-5,13.8-4.7c1.9,0.1,3.3,0.6,4.2,1.4c0.9,0.8,1.6,2.1,2,3.8c0.9,4.4,0.4,8.9-1.3,13.6
	c-1.1,2.9-2.7,5.1-4.8,6.8c-2.1,1.7-4.8,2.6-8.2,2.9h-3.7c-0.3,0.7-0.4,1.5-0.5,2.2c-0.1,0.7-0.2,1.5-0.3,2.2
	c-0.4,3-0.4,5.9-0.2,8.7c0.2,2.8,1,5.6,2.2,8.5c1,2.5,2.5,4.5,4.7,6.2c1.1,0.9,2.3,1.1,3.6,0.7c1.3-0.4,2.6-1,3.8-1.9
	c2.4-1.9,5.4-5.5,9-11c3.2-4.8,6.6-11.2,10.1-19c-0.3-0.4-0.5-0.7-0.7-1c-2.5-4-3.6-8.3-3.4-13.1c0.1-3.2,0.7-6.1,1.8-8.5
	c1.1-2.4,2.3-4.4,3.6-6.1c1.4-1.5,2.8-2.6,4.2-3.5c1.4-0.8,3.2-1.3,5.3-1.6c1.9-0.2,3.6,0.1,5.1,0.9c1.6,0.9,2.6,2.2,3.3,4.1
	c0.7,2.1,1.1,4.3,1.1,6.5c0.1,1.6,0.1,3-0.1,4.2c-0.2,1.2-0.5,2.3-0.8,3.4c-0.4,1.1-0.9,2.1-1.5,3.3c-0.6,1.1-1.3,2.4-2.1,3.7
	c-0.5,0.7-0.9,1.4-1.1,2.1c1.1,1.2,2.1,2.3,3.1,3.2c0.9,0.9,1.8,1.7,2.5,2.6c0.7,0.9,1.5,1.8,2.3,2.9c0.8,1.1,1.7,2.4,2.7,4
	c1.7-0.5,4.6-1.6,8.5-3.2c3.9-1.6,8.7-4.2,14.3-7.8c1.1-0.7,2.2-1.4,3.3-2c1.1-0.6,2.1-0.5,3.3,0.3
	C425,100.6,425.1,101.5,424.8,102.8z M337.8,105.4c1.7,0.3,3.1,0.1,4.1-0.6c1-0.6,1.9-1.5,2.6-2.6c1-1.4,1.7-2.8,2.1-4.4
	c0.4-1.6,0.8-3.1,1-4.8c0.2-2.1-0.1-4.2-0.9-6.2c-2.1,3-3.9,6-5.4,9C339.9,98.8,338.7,102,337.8,105.4z M156.9,81.5
	c1.5-1.7,3.6-4.6,6.2-8.5c2.7-3.9,4.9-8.4,6.8-13.3c1.1-3,2.1-6,2.9-9c0.8-3,1.4-5.7,1.9-8.2c0.4-2.5,0.7-4.6,0.9-6.3
	c0.2-1.7,0.2-2.9,0.1-3.4c-1.6,1.1-3.4,3.5-5.3,7.2c-1.9,3.7-3.8,7.9-5.7,12.6c-1.9,4.7-3.5,9.7-4.9,14.8
	C158.4,72.6,157.4,77.3,156.9,81.5z M108.6,91.2c-0.5-0.2-1-0.5-1.4-0.7c-0.4-0.2-1-0.5-1.6-0.7c-0.5-0.2-1.2-0.4-2.1-0.4
	c-0.9,0-1.7,0.2-2.3,0.6c-0.6,0.5-1.5,1.3-2.7,2.4c-1.2,1.1-2.1,2.3-2.9,3.5c-3.5,5.1-6,10.5-7.6,16.1c-1.6,5.7-2.6,11.5-2.8,17.6
	c-0.1,1.5-0.1,3,0.2,4.6c0.2,1.6,0.7,3.2,1.3,4.9c2.2-2.5,4.1-5,5.7-7.6c1.6-2.5,3-5.2,4.2-7.9c1.2-2.6,2.4-5.3,3.5-8
	c1.1-2.7,2.1-5.5,3.1-8.2c1-2.9,2-5.6,3-8.1C107,96.8,107.9,94.1,108.6,91.2z M214.4,110.2c-3.6-1.2-6.6-3.4-8.9-6.5
	c-2.3-3.1-4.3-6.3-6.1-9.5c-0.4,0.4-0.6,0.6-0.6,0.7c-2.1,5.8-3.4,11.7-3.9,17.4c-0.5,5.8-0.1,11.7,1.3,17.6
	c0.5,1.9,1.1,3.6,1.9,5.3c0.7,1.7,1.8,3.2,3.2,4.6c1.4-0.5,2.5-1.1,3.4-1.9c0.9-0.7,1.8-1.8,2.8-3.2c1.4-2.2,2.5-4.6,3.4-7
	c0.9-2.4,1.6-4.9,2.2-7.4c0.4-2,0.7-3.7,0.9-5C214.2,114.1,214.4,112.3,214.4,110.2z M214.6,96.2c-0.2-2-0.6-4.1-1.1-6.3
	c-0.6-2.2-1.3-4.5-2.1-6.7c-0.9-2.2-1.9-4.4-3.2-6.3c-1,1.9-1.5,4.1-1.5,6.6c0,2.6,0.3,5,0.9,7.5c0.6,2.4,1.6,4.6,2.8,6.5
	c1.2,1.9,2.7,3.3,4.3,4C214.9,100,214.8,98.2,214.6,96.2z M244.6,80.8c-0.1-1.6-0.6-2.9-1.3-4c-1.9,1.9-3,4.3-3.4,7.3
	c-0.4,3,0,6.2,1.4,9.5c0.7-0.9,1.4-2,2-3.5c0.6-1.4,1-3,1.2-4.6C244.6,84,244.7,82.4,244.6,80.8z M382.7,84.4c-0.1-3-1-5.4-2.9-7.2
	c-2,2.6-3,5.5-2.9,8.7c0.1,3.2,1.1,5.8,3.3,7.9C381.9,90.6,382.7,87.4,382.7,84.4z M386.4,139c-0.7-3-1.6-6.2-2.7-9.4
	c-2.5,2.1-4.5,4.4-6.2,6.7c-1.6,2.4-2.8,5-3.5,8c-0.5,2.1-0.7,4.2-0.7,6.2c0.1,2.1,0.6,4.1,1.6,6.1c0.6,1.2,1.3,2.3,2.1,3.2
	c0.8,0.9,2,1.6,3.5,2.1c0.6-0.6,1.2-1.2,1.7-1.7c0.5-0.5,0.9-1.1,1.3-1.7c1-1.5,1.7-3.1,2.2-4.8c0.5-1.7,0.9-3.5,1.1-5.2
	C387.3,145.2,387.1,142.1,386.4,139z M167.6,243.7v3.9c0,4.6,0.1,10.8,0.5,18.6c-1.8,9.5-5,14.2-9.8,14.2c-8.5,0-12.7-5.4-12.7-16.2
	v-2.9c0-21.9,2.3-32.9,6.9-32.9c0-0.3,0.8-0.5,2.5-0.5C162.1,228,166.3,233.3,167.6,243.7z M160.3,240.8c0-4.2-1-6.9-2.9-7.8h-0.5
	c-3.3,0-4.9,10.1-4.9,30.4c0,6.9,1,10.3,2.9,10.3h2.9c1.1,0,2-1.8,2.4-5.4V240.8z M195.6,260.3c0-7.9,0.2-17.9,0.6-29.9
	c-0.3-1.3-1.1-2.2-2.6-2.6c-1.7,0-2.8,0.9-3.2,2.6l0.6,3.2c-0.4,7.2-0.6,12.6-0.6,16.3v0.6h-0.7l-1.3-0.6
	c-5.8-14.3-10.2-21.4-13-21.4l-2,2.6c0.4,3,0.7,5.3,0.7,7.1v35.1c0,2.3,0.8,3.8,2.6,4.5h2c0.8-3.9,1.3-6.7,1.3-8.4v-23.4h0.7
	c6.1,9.4,9.1,14.6,9.1,15.6v13c0,3.3,0.9,5.3,2.6,5.9h1.3c0.6,0,1.3-0.9,2-2.6l-0.7-1.3c0.4-4.8,0.7-8.8,0.7-12.3V260.3z
	 M223.1,272.3c1.2,5.5,2.5,8.2,4.1,8.2h1.4c1.4-0.3,2-2.1,2-5.5v-36.8c0-1,0.2-1.9,0.7-2.7c6.4-2,9.5-3.5,9.5-4.8
	c-1.1-1.8-3.4-2.7-6.8-2.7c-14.6,0-21.8,0.9-21.8,2.7v2c7.7,2,11.6,3.4,11.6,4.1v15.7C223.7,257.7,223.5,264.3,223.1,272.3z
	 M248.3,280.3c2.8,0,4.1-4.8,4.1-14.4c0-0.8,1.1-1.3,3.4-1.4h4.8c0.4,10.1,1.7,15.1,4.1,15.1h0.7c0.9,0,1.8-1.4,2.7-4.1
	c-0.9-3.1-1.4-7.8-1.4-14.4c0-22.4-1.8-33.6-5.5-33.6l-2.7,1.4c0.9,5.5,1.4,12.3,1.4,20.6v8.3c-0.7,1.4-1.4,2-2.1,2h-3.4l-1.4-0.7
	c-1-19.7-2.6-29.5-4.8-29.5h-2.1l-2,1.4l1.4,23.3c-0.5,6.8-0.7,13.9-0.7,21.3C244.9,278.1,246,279.7,248.3,280.3z M290.3,231v-0.6
	c0-0.9-1.5-1.8-4.4-2.5l-10,2.5c-2.1,0-3.1,13.4-3.1,40.1c0,5.9,3.5,9.2,10.7,10c0.8,0,3.1-0.4,6.9-1.3v-1.9c0-0.9-1.5-1.8-4.4-2.5
	c0,0.4-0.2,0.6-0.6,0.6h-3.8c-1.3-0.7-1.9-1.3-1.9-1.9V263h3.1l4.4-1.3v-1.3l-0.6-1.3c-4.2-0.4-6.3-1-6.3-1.9v-22.6
	C287,232.8,290.3,231.5,290.3,231z M133.9,256.2C133.9,256.2,133.9,256.2,133.9,256.2C133.9,256.1,133.9,256.1,133.9,256.2z
	 M284,161.2c22.6,2.7,36.9,9.1,54.6,15.9c7.4,2.7,13,4.4,18,7.9c-0.4-0.3,2.7,1.6,5.2,4.9c4.5,6.3,1.1,13.5-0.9,21
	c-0.5,2.3-1.5,4.4-2,6.7c-1.5,5.9-0.5,2.3-2.7,10.4c-2.9,8.6-4.5,14.9-11.9,18.1c-2.8,1.2-5.8,2.1-8.8,2.5c-3.5,0.4-5.8-0.6-8.9-1.7
	c-7.3-2.7-18.3-6.2-23.1-0.2c-1.7,1.9-1.8,4.5-0.6,6.6c0.3,0.5,0.6,1.1,0.6,1.1c0.2,0.4,0.6,0.7,0.8,1c2.2,2.9,12.9,6.5,23.9,7.4
	c13.2,0.9,25.8-5.4,38-5.5c7-0.2,13.2,2.1,19,6.3l1.3,1c0.4,0.3,0.9,0.7,1.3,1.1l1.3,1.1l1.2,1.2c0.6,0.6,2.5,2.4,3.4,3.5
	c1.3-5.1-2-17.1-2.9-20.5c-0.1-0.2-0.2-0.7-0.3-0.9c-1.1-4-5.6-8.6-8.6-13.3c-0.2-0.4-0.2-0.9,0.1-1.2c0,0,1.3-1.7,4.6-2.6
	c5-1.1,5.2-0.9,9.5-0.7c1.8,0.1,5.9,0.4,7.5-0.2c0.2-0.1,0.5-0.1,0.7-0.3c0.1-0.1,0.2-0.1,0.3-0.1c0-0.1,0.1-0.1,0.1-0.1
	c0,0,0-0.1,0-0.1c0,0,0-0.1,0-0.1c0.2-1.1-2.2-4-2.8-4.9c0.1,0.2-1.6-2.2-2.8-3.6l-1.5-1.5c-3.1-2.8-4.9-4.8-11.1-7.2l-1-0.4
	c-5.6-1.7-10.4-2.3-15.9,0.1c0,0-2,1.1-2,1.1c-0.7,0.4-1.7,0.1-2-0.6c-0.4-0.7-0.1-1.7,0.6-2c0,0,2.3-1.1,2.3-1.1
	c2.6-1,3.5-1,4.8-1.3c3.8-0.7,9.6,0.2,13.1,1.6c5.8,2.3,6.4,3.1,9.5,4.9c2.4,1.6,1.4,0.8,3.8,2.9l1.7,1.7c1,1.1,2.1,2.5,3,3.6
	c2.2,2.8,5,6.1,2.9,9c-2.3,2.5-5.8,2.3-11.4,2c-1.5-0.1-3-0.1-4.5-0.2c-1.5-0.1-4.8-0.6-7.2,1.1c2.9,4.5,7.4,7.8,9.5,13.8
	c1.4,4.1,3.3,9.5,4.3,14.6c0.8,4.3,0.5,6,0.4,7.2c-0.1,1.2-0.9,4.3-2.4,5.4c-1,0.7-2.2,0.8-3.3,0.2l-0.2-0.1
	c-0.2-0.1-0.3-0.2-0.4-0.3c-0.4-0.3-0.6-0.6-1.2-1.3c-1.9-2.4-3.6-5.5-8.7-10.4c0,0-0.4-0.3-0.4-0.3c-16.6-13.8-34.9,1.7-53.7,2.3
	c-6.1,0.1-14.6-0.8-19.9-3.9c-3.6-2.1-6-5-6.6-6.2c-1.5-2.7-0.3-0.3-1.5-3c0,0-0.1-0.2-0.1-0.2l0-0.1c-0.1-0.6-0.4-1.2-0.4-1.8
	c-0.3-1.8,0.1-3.6,1-5.2c0.6-2.4,2.1-5,3-7.1c0.8-1.8,1.4-3.8,2.1-5.6c0.6-1.5,1.8-3.5,2.2-5.2c-9.5-1.7-19.1-3.6-28.8-4.8
	c-5.1-0.7-10.3-1.4-15.4-2.4c-1.3-0.3-2.6-0.4-3.9-0.6c-20.7-2.3-26-2.5-43.1-2.9c-14,0-30.8,1.3-39.2,2.4c-2.6,0.2-5.1,1-7.8,1.1
	c-24.7,3.2-30.9,4.4-41.9,6.4c0.4,0.5,0.7,1.2,1.1,2.2c0.9,2,1.7,4.2,2.5,6.4c0.9,2.3,3.2,6.1,3.3,9c1.7,3.6,1.2,6.9-0.6,10.4
	c-0.1,0.1-0.6,0.9-0.7,1c-3.1,4.7-14.5,7.8-20,8.9c0.1,0-2.4,0.5-2.5,0.5c-3.9,0.5-9.8,1.4-17.7-1c-11-3.2-22.1-8-29.2-6.7
	c-0.8,0.2-1.7,0.3-2.5,0.6c-8.3,2.8-13,11.9-22.7,23c-1.3,1.5-3.7,0.5-3.7-1.4l0.1-3.3c0.4-4,0.3-4.3,1.6-9.7l1-3.1
	c4.6-11.5,6.4-11.2,10.1-19.6c1.5-3.4,2.4-6.2,2.6-9.7c0,0-1.9,0.1-4.7,0c-11.8-0.3-8.2-0.2-15.2,0.3c-1.8,0.3-2,0.3-3.4,0.5
	c-1.2,0.2-2.3-0.9-2.1-2.1c0.5-3.3,1.7-6.5,4-9.3c5.2-6.9,16.4-11.8,25.1-12.5c4.2-0.4,8.7,0,12.6,1.8c0.6,0.3,0.8,1,0.6,1.5
	c-0.3,0.6-1,0.8-1.5,0.6c-12-5.4-33.3,4-36.5,15.3c5.1-1.4,16.3,0.1,19.6,0.3c3.4,0.2,3.3,0.2,3.3,0.2c0.9,0,1.5,0.8,1.5,1.6
	c-0.4,8.5-3.8,12.4-9.4,23.8c0.2-0.3-1.8,3.8-2.4,5.6c-1.5,4.5-2,6.1-2.6,11.4C43,270,49.8,260.3,60.5,257c12.3-4,21.3,4.9,40.1,4.7
	c2.8,0,3.1,0,4.4,0c10.1-0.8,20.3-1.1,25.3-5.9c0.1-0.1,0.3-0.2,0.4-0.4l0.4-0.6c0.3-0.4,0.9-1.4,1.3-2.7c1.5-4.9-2.1-9.8-8.5-10.1
	c-0.1,0-0.2,0-0.3,0c-1.8,0.1-2.9,0-4,0.3c-3.5,0.5-6.9,1.7-10.2,3.3c-6.3,2.9-10.2,6.4-17.2,4.5c-2.5-0.7-5-2.8-6.7-4.8
	c-1.9-2.3-2.9-4.6-4.2-7.1c-0.3-0.6-0.6-1.2-0.9-1.8c-3.5-6.8-6.6-23.6-8.2-27.4c-1.9-4.6-3.4-5.5-3.9-8c-0.3-1.3-0.4-2.8,0.1-4.2
	c0.5-1.6,1-2.4,1.8-3.6c2.3-3.3,8.8-9.9,18.5-14.7c2.1-1,5.3-2.9,7.2-3.6c4.7-2,9.4-2.6,21.6-6.8c8.7-3,11.6-3.7,21.8-5.5
	c8-1.4,45.4-5,54.9-5.3c10.7-0.4,28.9,0,39.2,0.3c3.6,0.1,7.7,0.7,12.3,0.9c4.6,0.2,9.7,0.7,15.3,1c9,0.6,10.7,0.9,13.3,0.9
	C277.2,160.5,281.1,160.9,284,161.2z M283.6,164.1c-30.9-3.5-43.9-4-83.6-3.7c-3.6,0-7.6,0.3-12.2,0.2c-6,0.1-12.2,0.8-15.2,1.2
	c-39.7,4.2-41.9,5.7-59.5,11.8c-3.9,1.2-19.8,5.6-23.3,7.3c-6.7,3.3-10.2,6.9-11.6,8.2c-1.6,1.5-4.9,5.2-5.9,7.3
	c-0.1,0.2-0.2,0.3-0.3,0.5c-0.1,0.1-0.1,0.2-0.1,0.3l-0.1,0.4c-0.5,1.5,0.3,3.3,0.8,5.5c0.4,1.8,1.9,4,2.7,6.6
	c3.2,12.3,3.4,13.6,5.8,20.4c0,0,0.9,2.5,0.9,2.5c2.4,5.3,4.1,7.2,10.4,5.5c1.3-0.3,2.5-1.3,3.7-1.9c10.3-5.3,12.2-5.8,15.9-7.2
	c4.3-1.6,29.9-6.9,57.1-10.8c2.6-0.4,5.3-0.2,7.9-0.6c31.3-3.9,57.4-2.4,88.2,0.6c2,0.2,3,0.3,14.4,2.1c10.4,1.4,20.4,3.6,30.4,5.5
	c6.7,1.3,12,2.5,18.5,5.6c18.9,9,19.6,16.7,27.8-14.5c0.7-2.3,0.9-4.6,1.5-6.9c1.4-5.1,3.1-9.3,3.1-13c0-4.9-3.1-7.3-5.3-9.1
	c-0.1-0.1-0.7-0.5-0.8-0.5c-3.4-2.4-7.4-4-11.3-5.4C323.2,174.8,308.8,167.2,283.6,164.1z M120.4,194.5c4.2,12.6,4.7,20.5,1.4,23.8
	c-1.3,1.3-3.2,2.6-5.7,4c-4.5,0.7-6.9,0.5-7.3-0.6c-0.1-0.6,0.1-1,0.6-1.2l2.7-0.9l-10-30c-2.1-1.2-3.1-1.8-3.2-2l-0.2-0.5
	c-0.4-1.2,1.7-2.9,6.3-5.2c4.7-1.6,8.7,0.3,12,5.6C119.1,191.7,120.3,194,120.4,194.5z M116,198c-3.4-9.3-5.9-13.7-7.4-13.2
	l-1.4,0.5c-0.7,0.2-0.9,1.1-0.6,2.7c1.3,4,2.7,7.5,4.1,10.7c1.4,5.2,3.2,11,5.3,17.4l0.5,1.4l0.9-0.3C120.4,216.2,120,209.8,116,198
	z M145.3,202.1c0.5,7.5-1,11.7-4.6,12.7c-6.4,1.7-10.7-1.5-12.8-9.7l-0.6-2.2c-4.3-16.6-4.8-25.3-1.3-26.2c-0.1-0.3,0.5-0.5,1.8-0.9
	c5.4-1.4,9.7,1.7,12.7,9.3l0.8,2.9C142.2,191.6,143.5,196.2,145.3,202.1z M139.8,205.1l-5.4-20.7c-0.8-3.2-2.1-5-3.8-5.3l-0.4,0.1
	c-2.5,0.6-1.7,8.6,2.3,23.9c1.4,5.2,2.8,7.6,4.3,7.2l2.2-0.6C139.9,209.5,140.1,207.9,139.8,205.1z M166.2,196.3l-0.6-3
	c-1.1-6.1-2.4-13.7-3.8-23c-0.4-0.9-1.2-1.5-2.4-1.6c-1.3,0.3-2,1.1-2.1,2.5l0.9,2.4c0.7,5.6,1.3,9.8,1.9,12.6l0.1,0.5l-0.5,0.1
	l-1.1-0.3c-6.5-10.1-10.9-15-13.1-14.6l-1.1,2.3c0.8,2.2,1.3,4,1.5,5.4l5.1,26.9c0.3,1.8,1.2,2.8,2.6,3.1l1.5-0.3
	c0.1-3.1,0-5.3-0.2-6.7l-3.4-18l0.5-0.1c6,6.4,9.1,9.9,9.2,10.6l1.9,10c0.5,2.5,1.4,3.9,2.9,4.1l1-0.2c0.5-0.1,0.9-0.9,1.1-2.3
	l-0.7-0.9C167.1,202.2,166.7,199,166.2,196.3z M175.2,164.1c-1-1.2-1.9-1.7-2.7-1.6l-3,4l0.1,1.2c2.6,0.5,4,1.9,4.2,4.1
	c0.1,2.8-0.5,4.7-1.8,5.7l0.2,1.2c1.3-0.2,2.5-1.4,3.6-3.8c1.1-2.4,1.5-4.6,1.2-6.7C176.8,166.6,176.2,165.2,175.2,164.1z
	 M199.9,164.6c-11.3,0.7-16.9,1.8-16.9,3.2l0.1,1.6c6.1,1.2,9.2,2.1,9.2,2.6l0.8,12.2c0.2,4,0.4,9.1,0.4,15.4
	c1.2,4.2,2.4,6.3,3.6,6.2l1.1-0.1c1-0.3,1.5-1.7,1.3-4.3l-1.8-28.7c0-0.8,0.1-1.5,0.4-2.2c4.9-1.8,7.3-3.2,7.2-4.2
	C204.4,165,202.6,164.4,199.9,164.6z M232.9,194.5l-0.5,0c-1.9,4.6-3.8,6.8-5.7,6.7l-1.5-0.1c-1.7-0.1-2.7-3.7-3-11
	c0.6-14.8,2.4-22.1,5.4-22l1.5,0.1c0.1,4.3,0.8,6.5,2.2,6.5c2,0.1,3-1.3,3.2-4.3l0-0.5c0.1-2.6-1.6-4.4-5.2-5.2l-2-0.1
	c-5.9-0.3-9.2,6.7-9.8,20.8l-0.1,3.4c-0.5,10.8,3.4,16.4,11.6,16.8c2.9,0.1,5-2.3,6.2-7.1C235.3,196.9,234.5,195.5,232.9,194.5z
	 M256.3,179.5l-0.3,3c-0.4,3.6-0.8,8.4-1.3,14.5c-2.2,7.2-5.2,10.6-8.9,10.2c-6.6-0.8-9.4-5.3-8.4-13.7l0.3-2.3
	c1.9-17,4.7-25.3,8.2-24.9c0-0.3,0.7-0.3,2-0.2C253.4,166.8,256.2,171.3,256.3,179.5z M249.3,170.2l-0.4,0
	c-2.5-0.3-4.7,7.4-6.5,23.1c-0.6,5.3-0.1,8.1,1.4,8.3l2.3,0.3c0.9,0.1,1.7-1.2,2.4-4l2.4-21.3C251.2,173.3,250.7,171.2,249.3,170.2z
	 M279.3,171.6c-1.3-0.3-2.3,0.3-2.9,1.5c0.2,0.7-0.2,7.3-1.2,20.1c-1.3,6.9-3.8,11.1-7.6,12.6l-1-0.2c-2-0.4-1.7-7.6,1-21.7
	c1.9-9.7,1.1-14.9-2.2-15.5l-1.7,0.7c0.8,0.9-0.2,9.2-3.2,24.9c-1.2,9.9,1.1,15.3,6.8,16.4c4.2,0.8,8.3-4,12.1-14.4
	C281.4,180.2,281.4,172.1,279.3,171.6z M282,211.6l1.5,0.4c1.4-2.7,2.3-4.8,2.7-6.1l4.7-17.6l0.5,0.1c2.7,8.3,3.9,12.9,3.7,13.6
	l-2.6,9.8c-0.7,2.5-0.4,4.2,0.8,4.9l1,0.3c0.5,0.1,1.1-0.4,2-1.6l-0.2-1.1c1.3-3.5,2.3-6.5,3-9.2l0.8-2.9c1.6-6,3.8-13.4,6.5-22.4
	c0-1-0.4-1.9-1.4-2.5c-1.3-0.3-2.3,0.1-3,1.3l-0.2,2.6c-1.8,5.3-3,9.4-3.7,12.1l-0.1,0.5l-0.5-0.1l-0.8-0.7
	c-1.5-12-3.3-18.2-5.5-18.8l-2,1.6c-0.3,2.3-0.6,4.2-0.9,5.5l-7.1,26.5C280.5,209.4,280.8,210.7,282,211.6z M308.4,221.5l1,0.3
	c1.1,0.1,2-1,2.9-3.5l9.2-27.2c0.2-0.7,0.6-1.4,1.2-1.8c5.2,0.1,7.9-0.2,8.2-1.1c-0.4-1.6-1.8-2.9-4.4-3.7
	c-10.8-3.6-16.4-4.8-16.8-3.4l-0.5,1.5c5.2,3.4,7.7,5.4,7.5,5.9l-3.9,11.6c-1.3,3.8-3.1,8.6-5.4,14.4
	C306.9,218.7,307.2,221.1,308.4,221.5z M382.9,184.2c-0.2-0.4-0.4-1-0.7-1.6c-0.4-1.1-0.5-1.3-1.6-3.6c-1.5-3.4-5.1-8.5-7.8-11.5
	c-12.3-13.5-32.1-14-35.7-2.5c-0.6,1.9-1.2,4.6-0.9,6.6c0.4,3.5,6.8,7.8,11.3,6c0.4-0.2,0.8-0.3,1.1-0.6c0.6-0.5,0.4-0.3,1-0.9
	c0.4-0.4,0.6-0.8,0.9-1.3c0,0,0.1-0.2,0.1-0.1c0,0,0.3-0.6,0.3-0.6c1.6-3.8-1.3-7.6-5-9.4c-0.2-0.1-0.5-0.2-0.7-0.3
	c-0.8-0.2-1.7,0.3-1.9,1.1c-0.2,0.8,0.3,1.7,1.1,1.9c6,1.7,5.5,6.1,4,7.6c-2.9,2.8-7.4,1.2-9.8-1.4c-1-1.1-1.6-1.9-0.9-5
	c0.3-1.1,0.7-2.2,1.1-3.3c0,0,0.4-1.1,1.3-2c2.8-3,7.3-3.5,11.1-2.2c9.7,3,15.9,11.8,21.1,19.4c0-0.1-0.1-0.1-0.1-0.1
	c2.9,4.8,2.4,4.9,5.4,9.3c0,0,0.2,0.3,0.1,0.2c15.4,18.3,32.4,15.5,36.2,9.5c2.2-5-1.2-11.9-7.6-14c-3-1.1-9.3-2.6-11.2-0.1
	c-0.4,0.5-0.5,0.8-0.5,0.8c-0.4,0.9,0,2,1,2.3c1.5,0.6,2.8-1.2,4.1-1.6c1.9-0.6,4.3-0.1,6.2,0.3c4.6,0.9,8,5.7,7.4,9.8
	c0,0.4-0.2,0.9-0.3,1.3l-0.2,0.5l-0.3,0.5c-0.5,0.6-1.3,1.1-2.1,1.5c-1.7,0.7-3.7,1-5.8,1c-8.5-0.2-15.8-7.6-20.1-14.7
	c-0.1-0.1-0.7-1.2-0.8-1.3c-0.1-0.2,0.1,0.2,0.1,0.1C383.5,185.5,383.1,184.6,382.9,184.2z M52.5,167.5c-2.6,2.9-6.2,8-7.8,11.5
	c-1,2.3-1.1,2.6-1.6,3.6c-0.2,0.5-0.4,1.1-0.7,1.6c-0.2,0.4-0.6,1.3-0.8,1.7c0,0,0.2-0.3,0.1-0.1c-0.1,0.1-0.7,1.1-0.8,1.3
	c-4.4,7.1-11.7,14.6-20.1,14.7c-2,0-4-0.3-5.8-1c-0.9-0.4-1.6-0.8-2.1-1.5l-0.3-0.5l-0.2-0.5c-0.1-0.4-0.3-0.9-0.3-1.3
	c-0.6-4.1,2.9-8.9,7.4-9.8c1.9-0.4,4.3-1,6.2-0.3c1.3,0.4,2.6,2.2,4.1,1.6c0.9-0.4,1.3-1.4,1-2.3c0,0-0.2-0.3-0.5-0.8
	c-1.9-2.5-8.2-0.9-11.2,0.1c-6.4,2.2-9.8,9.1-7.6,14c3.8,6.1,20.8,8.8,36.2-9.5c-0.1,0.1,0.2-0.2,0.1-0.2c3-4.4,2.5-4.4,5.4-9.3
	c0,0,0,0.1-0.1,0.1c5.2-7.6,11.4-16.3,21.1-19.4c3.9-1.3,8.3-0.8,11.1,2.2c0.9,0.9,1.3,2,1.3,2c0.4,1.1,0.9,2.1,1.1,3.3
	c0.6,3,0,3.9-0.9,5c-2.4,2.6-6.9,4.2-9.8,1.4c-1.6-1.5-2-5.9,4-7.6c0.8-0.2,1.3-1.1,1.1-1.9c-0.2-0.8-1.1-1.3-1.9-1.1
	c-0.2,0.1-0.5,0.2-0.7,0.3c-3.7,1.8-6.7,5.5-5,9.4c0,0,0.3,0.6,0.3,0.6c0-0.1,0.1,0.1,0.1,0.1c0.3,0.5,0.5,0.9,0.9,1.3
	c0.5,0.6,0.3,0.4,1,0.9c0.3,0.3,0.7,0.4,1.1,0.6c4.5,1.7,10.9-2.5,11.3-6c0.3-2-0.3-4.7-0.9-6.6C84.6,153.5,64.8,154.1,52.5,167.5z"
	/>
</svg>
