<?xml version="1.0" encoding="utf-8"?>
<!-- Generator: Adobe Illustrator 18.0.0, SVG Export Plug-In . SVG Version: 6.00 Build 0)  -->
<!DOCTYPE svg PUBLIC "-//W3C//DTD SVG 1.1//EN" "http://www.w3.org/Graphics/SVG/1.1/DTD/svg11.dtd">
<svg version="1.1" id="Layer_1" xmlns="http://www.w3.org/2000/svg" xmlns:xlink="http://www.w3.org/1999/xlink" x="0px" y="0px"
	 viewBox="0 0 432 432" enable-background="new 0 0 432 432" xml:space="preserve">
<path fill="#333333" d="M69.8,352.8c12.7,19.1,19.1,35.4,19.1,49.2c0,11-9,17.4-27,19.1c-18-4.9-27-18.7-27-41.3
	c0-2.7,1.1-7.4,3.2-14.3h4.8c4.3,0,7.4,11.1,9.5,33.3c4.7,6.4,7.8,9.5,9.5,9.5c6.4-1.7,9.5-5.4,9.5-11.1V394
	c0-7.3-9.5-24.8-28.6-52.4c-6.4-16.8-9.5-29-9.5-36.5c0-17,7.9-25.4,23.8-25.4c11.2,0,19.2,7.4,23.8,22.2
	c-1.8,14.8-4.5,22.2-7.9,22.2h-6.4c-3.2-0.7-4.8-4.9-4.8-12.7v-14.3c0-2.1-1.1-3.2-3.2-3.2h-1.6c-1.7,0-3.8,2.1-6.4,6.4v6.4
	C50.7,324.4,57.1,339.8,69.8,352.8z M164.4,348.5c0,8.7,0.6,15.3,1.8,19.5c-1.2,36.6-4.8,55-10.6,55h-1.8c-4.8,0-7.1-8.8-7.1-26.6
	v-10.6h-1.8c-20.1,0-30.2,4.8-30.2,14.2c-1.5,13-4.4,19.4-8.8,19.4c-6-1.6-8.9-5.8-8.9-12.4c0-80.5,6-120.7,17.8-120.7
	c0-3.3,6-5.7,17.8-7.1C153.8,279.2,164.4,302.3,164.4,348.5z M146.7,366.2c0-11.5-0.6-32.8-1.8-63.9c-2.3-5.5-4.6-8.4-7-8.9h-7.1
	c-8.2,0-12.4,27.2-12.4,81.7c1.2,0,1.8,0.6,1.8,1.8C137.8,374.2,146.7,370.6,146.7,366.2z M234.3,279.2c-4.7,0-7.6,2.4-8.7,7
	l1.7,8.7c-1.1,19.3-1.7,33.9-1.7,43.8v1.7h-1.8l-3.5-1.7c-15.7-38.5-27.4-57.8-35-57.8L180,288c1.2,8,1.8,14.4,1.8,19.3v94.6
	c0,6.3,2.3,10.3,6.9,12.2h5.3c2.3-10.4,3.5-18.1,3.5-22.7v-63h1.8c16.4,25.4,24.5,39.4,24.5,42v35c0,8.9,2.4,14.2,7,15.8h3.5
	c1.7,0,3.5-2.4,5.3-7l-1.8-3.5c1.2-12.8,1.8-23.8,1.8-33.2v-10.5c0-21.3,0.6-48.1,1.7-80.5C240.5,282.8,238.2,280.4,234.3,279.2z
	 M306.1,279.7c-39.2,0-58.7,2.5-58.7,7.3v5.5c20.7,5.4,31.2,9,31.2,11v42.3c0,13.7-0.6,31.5-1.8,53.2c3.2,14.7,6.8,22,11,22h3.7
	c3.7-0.8,5.5-5.7,5.5-14.7v-99.1c0-2.7,0.6-5.2,1.9-7.3c17.2-5.3,25.7-9.5,25.7-12.8C321.4,282.2,315.4,279.7,306.1,279.7z
	 M391.2,348.5c0,8.7,0.6,15.3,1.8,19.5c-1.2,36.6-4.8,55-10.6,55h-1.8c-4.8,0-7.1-8.8-7.1-26.6v-10.6h-1.8
	c-20.1,0-30.2,4.8-30.2,14.2c-1.5,13-4.4,19.4-8.8,19.4c-6-1.6-8.9-5.8-8.9-12.4c0-80.5,6-120.7,17.8-120.7c0-3.3,6-5.7,17.8-7.1
	C380.6,279.2,391.2,302.3,391.2,348.5z M373.4,366.2c0-11.5-0.6-32.8-1.8-63.9c-2.3-5.5-4.6-8.4-7-8.9h-7.1
	c-8.2,0-12.4,27.2-12.4,81.7c1.2,0,1.8,0.6,1.8,1.8C364.6,374.2,373.4,370.6,373.4,366.2z M61.4,95.5c5.4,0,10.1-1.8,13.9-5.4
	c3.2-3,5.3-7.1,6.2-12.2c0.2-1,0.3-2.1,0.3-3.1c0-1.6-0.5-2.3-1.5-2.3c-0.5,0-1.1,0.5-1.6,1.6c-3.5,7.5-8.5,11.2-15,11.2
	c-10.9,0-16.3-8.7-16.3-26c0-6.7,0.7-12.9,2.1-18.7c1.8-7.7,4.7-13.2,8.7-16.4c2.1-1.7,4.6-2.5,7.5-2.5c2.1,0,3.8,0.3,5.3,0.9
	c1.5,0.6,3,1.7,4.6,3.4c0.5,0.5,1,0.9,1.4,1.3c0.4,0.3,0.9,0.5,1.4,0.5c0.6,0,1-0.4,1.3-1.1c0.3-0.7,0.5-1.5,0.5-2.4
	c0-2.7-0.8-5.3-2.4-7.7c-1.5-2.3-3.6-4.1-6.3-5.5C68.8,9.7,65.7,9,62.2,9C54,9,47.3,12.4,42.1,19.2c-2.5,3.2-4.4,6.8-6,10.9
	C33.4,37.6,32,45.8,32,54.6c0,8.9,1.2,16.6,3.7,23.1C40.2,89.6,48.8,95.5,61.4,95.5z M89.9,77.6c-2.5-6.4-3.7-14.1-3.7-23.1
	c0-8.8,1.4-16.9,4.2-24.4c2.8-7.6,6.8-13.2,12.1-16.9c4.1-2.8,8.8-4.3,14-4.3c8.9,0,15.9,3.9,20.7,11.7C141.7,28,144,37.8,144,50
	c0,5.6-0.6,11.1-1.8,16.5c-1.1,4.9-2.6,9.3-4.6,13.3c-2.5,5.1-5.7,9-9.6,11.8c-3.6,2.6-7.7,4-12.4,4C103,95.5,94.5,89.6,89.9,77.6z
	 M101.6,59c0,6.4,0.7,11.6,2.1,15.6c2.5,7.1,7.2,10.7,14.2,10.7c5.4,0,9.9-3.9,13.4-11.7c1.6-3.5,2.8-7.5,3.6-11.8
	c0.8-4.3,1.2-8.7,1.2-13c0-7.4-1.3-13.6-4-18.7c-3-5.5-7.1-8.3-12.4-8.3c-2.9,0-5.3,0.8-7.4,2.5c-4,3.3-6.9,8.7-8.7,16.4
	C102.3,46.5,101.6,52.6,101.6,59z M158,77.6c-2.5-6.4-3.7-14.1-3.7-23.1c0-8.8,1.4-16.9,4.2-24.4c2.8-7.6,6.8-13.2,12.1-16.9
	c4.1-2.8,8.8-4.3,14-4.3c8.9,0,15.9,3.9,20.7,11.7c4.5,7.3,6.8,17.1,6.8,29.3c0,5.6-0.6,11.1-1.8,16.5c-1.1,4.9-2.6,9.3-4.6,13.3
	c-2.5,5.1-5.7,9-9.6,11.8c-3.6,2.6-7.7,4-12.4,4C171.2,95.5,162.6,89.6,158,77.6z M169.7,59c0,6.4,0.7,11.6,2.1,15.6
	c2.5,7.1,7.2,10.7,14.2,10.7c5.4,0,9.9-3.9,13.4-11.7c1.6-3.5,2.8-7.5,3.6-11.8c0.8-4.3,1.2-8.7,1.2-13c0-7.4-1.3-13.6-4-18.7
	c-3-5.5-7.1-8.3-12.4-8.3c-2.9,0-5.3,0.8-7.4,2.5c-4,3.3-6.9,8.7-8.7,16.4C170.4,46.5,169.7,52.6,169.7,59z M234.6,95.5
	c0.8,0,1.2-0.7,1.2-2c0-8.8,0.7-21.2,2.1-37.3c1.9,6,6.6,13.9,14.2,23.6c8.1,10.5,14.1,15.7,17.9,15.7c0.8,0,1.5-0.2,2-0.6
	c0.3-0.2,0.4-0.5,0.4-0.8c0-0.3-0.2-0.7-0.5-1.2c-3.4-5.3-6.7-11.1-10-17.3c-1.7-3.2-3.9-7.4-6.6-12.6c-2.7-5.1-5.6-9.5-8.8-13
	c3.4-2.8,6.9-6.2,10.4-9.9c4.7-5,8.7-10,11.8-14.9c3.6-5.7,5.4-10,5.4-13c0-2.1-1.1-3.1-3.2-3.1c-2,0-5.1,3-9.3,8.9
	c-1.9,2.7-3.9,5.6-6,8.8c-6.1,9.2-10.9,15.8-14.6,19.8l-2.5,2.8c1.3-14.8,1.9-24.9,1.9-30.1c0-6.7-2.1-10.1-6.3-10.1
	c-4.4,0-7.4,3.2-8.9,9.5c-1.1,4.6-1.6,12-1.6,22c0,10.9,0.4,20.6,1.2,29.1C226.7,86.9,229.9,95.5,234.6,95.5z M290.4,95.5
	c0.8,0,1.2-0.7,1.2-2c0-7,0.3-14.4,0.9-22.2c0.6-7.8,1.2-15.4,1.9-22.7c1.2-13.4,1.8-23.2,1.8-29.4c0-6.8-2.1-10.2-6.2-10.2
	c-4.4,0-7.4,3.2-8.9,9.5c-1.1,4.6-1.7,11.9-1.7,22c0,10.9,0.4,20.6,1.2,29.1C282.5,86.9,285.7,95.5,290.4,95.5z M310.8,80.9
	c0.6,4.1,1.5,7.2,2.6,9.3c1.1,2.1,2.5,3.6,4.3,4.3c1.7,0.7,3.9,1.1,6.4,1.1c3.6,0,8.5-0.5,14.7-1.6c7.8-1.3,11.7-3,11.7-5
	c0-0.8-0.8-1.2-2.3-1.2c-1.8,0-4.4,0.1-7.8,0.2c-4.5,0.2-8.6,0.3-12.3,0.3c-2,0-3.5-0.4-4.4-1.3c-0.9-0.9-1.4-2-1.6-3.3
	s-0.3-2.8-0.3-4.3c0-3.5,0.5-11.1,1.6-22.9c3.9,0,7.5-0.2,11-0.5s6.4-0.9,8.7-1.7c2.4-0.8,3.6-1.7,3.6-2.9c0-0.8-1.3-1.4-3.8-1.8
	c-2.5-0.5-5.5-0.8-8.9-1c-3.4-0.2-6.7-0.3-9.9-0.3c1.2-13.1,1.8-22.9,1.8-29.4c6.5,0,12.5-0.5,18-1.5c6.3-1.2,9.5-2.7,9.5-4.6
	c0-2.5-9.4-3.7-28.3-3.7c-8.1,0-12.9,3.2-14.3,9.5c-1.1,4.6-1.6,12-1.6,22c0,9.7,0.1,17.8,0.4,24.4
	C309.8,71.5,310.2,76.8,310.8,80.9z M394.7,59.8c-2.5-2.7-6.4-5.6-11.5-8.7c-6.1-3.8-10.2-7.2-12.3-10.3c-1.4-2.1-2.1-4.5-2.1-7.3
	c0-3.8,1.2-6.7,3.6-8.9c2.4-2.1,5.7-3.2,9.9-3.2c4.8,0,8.9,1.5,12.3,4.4c1.2,1,2,1.6,2.7,1.6c0.6,0,1-0.4,1.4-1.1
	c0.3-0.7,0.5-1.6,0.5-2.5c0-3.5-1.4-6.7-4.2-9.4C391.2,10.8,386,9,379.4,9c-7.1,0-13,2.2-17.6,6.5c-5.2,4.9-7.8,11.1-7.8,18.8
	c0,6.9,2.1,12.5,6.4,17c3,3.2,7.5,6.5,13.5,9.9c5.5,3.2,9.2,5.9,11.3,8.3c2,2.3,3.1,5,3.1,8c0,3.1-1.1,5.5-3.2,7.3
	c-2.2,1.8-5,2.7-8.5,2.7c-4,0-7.8-1.1-11.4-3.2c-3.6-2.2-6.3-5.1-8.1-8.8c-0.4-0.7-1-1.1-1.8-1.1c-1,0-1.6,0.6-1.6,1.9
	c0,5.3,2.2,9.8,6.5,13.5c1.5,1.3,3.3,2.5,5.2,3.4c3.4,1.7,6.9,2.5,10.6,2.5c7.4,0,13.3-1.8,17.7-5.5c4.3-3.7,6.5-9.1,6.5-16.2
	C400,68.3,398.3,63.6,394.7,59.8z M189.3,110.4c-0.9-1.6-1.7-2.5-2.5-2.5h-3.2c-2.5,0.9-6.3,9.3-11.4,25.2h-0.8
	c-6-16.2-11.4-24.4-16.3-24.4h-0.8c-0.8,0-1.6,1.1-2.5,3.2c0.5,5.5,0.8,9.9,0.8,13v39.8c0,4.9,1.9,7.3,5.7,7.3h0.8
	c1.6-0.3,2.4-2.5,2.4-6.5v-15.4c0-4.6-0.3-11.9-0.8-21.9h1.6c4,12.4,8.3,18.6,13,18.6h1.6c2.1-15.7,4.3-23.6,6.5-23.6v35.7
	c0.9,9.2,2.2,13.8,4,13.8h2.5c0.9,0,1.7-1.4,2.4-4h-0.8C191.2,146.6,190.4,127.1,189.3,110.4z M206.2,108.4h-2.6
	c-0.9,0-1.8,1.2-2.6,3.5h0.9c0,8.7,0.3,18.9,0.9,30.5c0,20.3,2,30.5,6.1,30.5c2.3-1.8,3.5-3.5,3.5-5.2
	C212.4,128.2,210.3,108.4,206.2,108.4z M232.6,165.7l-1.6-0.8c0.5-14.1,0.8-22.5,0.8-25c0-21-1.6-31.4-4.9-31.4h-4
	c0,0.6-0.3,1.4-0.8,2.4c1,0,1.6,4,1.6,12.1V164c0,4.2,1.6,7.2,4.9,8.9h8c8-0.5,12-2.1,12-4.8v-0.8l-5.6-1.6H232.6z M277.6,107.9
	h-0.8c-1.9,1.8-6.2,12.1-12.8,31.1c-1,0-1.6-2.4-1.6-7.1c-0.8-15.4-3.2-23.1-7.1-23.1c-1.6,1.1-2.4,2-2.4,2.4v0.8
	c0,8,0.8,19.1,2.4,33.5c0,18.6,1.9,27.9,5.5,27.9c1.6-1.2,2.4-2,2.4-2.4v-10.3c0-1.8,0.8-4.7,2.4-8.8h2.4
	c4.2,13.3,7.4,19.9,9.5,19.9l3.2-1.6c0-1.1-1-5.3-3.2-12.7c-4.8-8-7.1-12.6-7.1-13.6c4.2-11.3,7.7-22.4,10.3-33.5
	C280.8,109.5,279.8,108.7,277.6,107.9z M116.8,35.1c1.3,0,2.4-1.1,2.4-2.4c0-1.3-1.1-2.4-2.4-2.4c-1.3,0-2.4,1.1-2.4,2.4
	C114.5,34,115.5,35.1,116.8,35.1z M127.7,47.7c1.3,0,2.4-1.1,2.4-2.4c0-1.3-1.1-2.4-2.4-2.4c-1.3,0-2.4,1.1-2.4,2.4
	C125.3,46.6,126.4,47.7,127.7,47.7z M127.7,62.9c1.3,0,2.4-1.1,2.4-2.4c0-1.3-1.1-2.4-2.4-2.4c-1.3,0-2.4,1.1-2.4,2.4
	C125.3,61.8,126.4,62.9,127.7,62.9z M116.8,75.4c0,1.3,1.1,2.4,2.4,2.4s2.4-1.1,2.4-2.4c0-1.3-1.1-2.4-2.4-2.4
	S116.8,74.1,116.8,75.4z M106.2,62.9c0,1.3,1.1,2.4,2.4,2.4c1.3,0,2.4-1.1,2.4-2.4c0-1.3-1.1-2.4-2.4-2.4
	C107.3,60.5,106.2,61.6,106.2,62.9z M106.2,49.2c1.3,0,2.4-1.1,2.4-2.4s-1.1-2.4-2.4-2.4c-1.3,0-2.4,1.1-2.4,2.4
	S104.9,49.2,106.2,49.2z M186.3,35.1c1.3,0,2.4-1.1,2.4-2.4c0-1.3-1.1-2.4-2.4-2.4c-1.3,0-2.4,1.1-2.4,2.4
	C184,34,185,35.1,186.3,35.1z M197.2,47.7c1.3,0,2.4-1.1,2.4-2.4c0-1.3-1.1-2.4-2.4-2.4c-1.3,0-2.4,1.1-2.4,2.4
	C194.8,46.6,195.9,47.7,197.2,47.7z M197.2,62.9c1.3,0,2.4-1.1,2.4-2.4c0-1.3-1.1-2.4-2.4-2.4c-1.3,0-2.4,1.1-2.4,2.4
	C194.8,61.8,195.9,62.9,197.2,62.9z M186.3,75.4c0,1.3,1.1,2.4,2.4,2.4s2.4-1.1,2.4-2.4c0-1.3-1.1-2.4-2.4-2.4
	S186.3,74.1,186.3,75.4z M175.7,62.9c0,1.3,1.1,2.4,2.4,2.4c1.3,0,2.4-1.1,2.4-2.4c0-1.3-1.1-2.4-2.4-2.4
	C176.8,60.5,175.7,61.6,175.7,62.9z M175.7,49.2c1.3,0,2.4-1.1,2.4-2.4s-1.1-2.4-2.4-2.4c-1.3,0-2.4,1.1-2.4,2.4
	S174.4,49.2,175.7,49.2z M171,232.3c-4.5-0.8-10.7-1.2-18.8-1.2c1.2-13.3,1.9-23.1,1.9-29.4c6.5,0,12.5-0.5,17.9-1.5
	c6.4-1.2,9.5-2.7,9.5-4.6c0-2.5-9.5-3.7-28.4-3.7c-8,0-12.8,3.2-14.3,9.5c-1.1,4.6-1.7,11.9-1.7,22c0,10.9,0.4,20.6,1.2,29.1
	c1.7,17.3,4.9,26,9.7,26c0.8,0,1.2-0.7,1.2-2c0-8.9,0.7-21.3,2.1-37.2c8.5,0,15.1-0.7,19.8-2.2c2.4-0.8,3.6-1.7,3.6-2.9
	C174.8,233.4,173.5,232.8,171,232.3z M231.3,203.6c4.5,7.3,6.8,17.1,6.8,29.3c0,5.6-0.6,11.1-1.8,16.5c-1.1,4.9-2.6,9.3-4.6,13.3
	c-2.5,5.1-5.7,9-9.6,11.8c-3.6,2.6-7.7,4-12.4,4c-12.6,0-21.1-6-25.7-17.9c-2.5-6.4-3.7-14.1-3.7-23.1c0-8.8,1.4-16.9,4.2-24.4
	c2.8-7.6,6.8-13.2,12.1-16.9c4.1-2.8,8.8-4.3,14-4.3C219.5,191.9,226.4,195.8,231.3,203.6z M230.2,231.6c0-7.4-1.3-13.6-4-18.7
	c-3-5.5-7.1-8.3-12.4-8.3c-2.9,0-5.3,0.8-7.4,2.5c-4,3.3-6.9,8.7-8.7,16.4c-1.4,5.9-2.1,12-2.1,18.3c0,6.4,0.7,11.6,2.1,15.6
	c2.5,7.1,7.2,10.7,14.2,10.7c5.4,0,9.9-3.9,13.4-11.7c1.6-3.5,2.8-7.5,3.6-11.8C229.8,240.3,230.2,235.9,230.2,231.6z M303.3,212.3
	c0-3.8-0.6-7.2-1.9-10.3s-3.2-5.5-5.7-7.4c-2.5-1.8-5.6-2.8-9.1-2.8c-5.5,0-10.5,2.3-14.8,6.9c-2,2.1-3.7,4.3-5.2,6.9
	c0.1-1.2,0.1-2.4,0.1-3.4c0-6.9-2.1-10.3-6.3-10.3c-4.4,0-7.4,3.2-8.9,9.5c-1.1,4.6-1.6,12-1.6,22c0,10.9,0.4,20.6,1.2,29.1
	c1.7,17.3,4.9,26,9.6,26c0.8,0,1.2-0.7,1.2-2c0-7.9,0.6-18.7,1.7-32.2c0.4-4.1,1.3-9.7,2.9-16.9c2.2-10.3,5.8-17.6,10.7-21.7
	c2.1-1.8,4.4-2.7,7-2.7c1.4,0,2.6,0.4,3.4,1.2c0.9,0.8,1.5,1.8,1.9,3.1c0.4,1.2,0.6,2.5,0.6,3.8c0,3.5-0.5,6.9-1.6,10.2
	c-1.1,3.3-2.6,6.3-4.5,9c-3.6,4.9-7.9,7.8-13.1,8.8c-3.2,0.6-4.8,2-4.8,4.1c0.1,5.3,4.5,12.3,13.4,21.1c9.6,9.5,16.6,14.2,21.1,14.2
	c1,0,1.8-0.2,2.4-0.5c0.3-0.2,0.4-0.4,0.4-0.8c0-0.3-0.2-0.7-0.6-1.1c-3.9-4.8-7.8-10.1-11.7-15.8c-2-3-4.8-6.7-8.2-11.2
	c-1.6-2-3-3.7-4.4-5c6.1-1.4,11.2-4.1,15.3-8C300,229.9,303.3,222,303.3,212.3z M213.9,215.2c0-1.3-1.1-2.4-2.4-2.4
	c-1.3,0-2.4,1.1-2.4,2.4c0,1.3,1.1,2.4,2.4,2.4C212.9,217.6,213.9,216.5,213.9,215.2z M222.4,225.5c-1.3,0-2.4,1.1-2.4,2.4
	c0,1.3,1.1,2.4,2.4,2.4s2.4-1.1,2.4-2.4C224.7,226.6,223.7,225.5,222.4,225.5z M222.4,240.7c-1.3,0-2.4,1.1-2.4,2.4
	c0,1.3,1.1,2.4,2.4,2.4s2.4-1.1,2.4-2.4C224.7,241.7,223.7,240.7,222.4,240.7z M213.9,255.5c-1.3,0-2.4,1.1-2.4,2.4
	c0,1.3,1.1,2.4,2.4,2.4c1.3,0,2.4-1.1,2.4-2.4C216.3,256.6,215.2,255.5,213.9,255.5z M203.3,243c-1.3,0-2.4,1.1-2.4,2.4
	c0,1.3,1.1,2.4,2.4,2.4c1.3,0,2.4-1.1,2.4-2.4C205.7,244.1,204.6,243,203.3,243z M203.3,229.4c0-1.3-1.1-2.4-2.4-2.4
	s-2.4,1.1-2.4,2.4c0,1.3,1.1,2.4,2.4,2.4S203.3,230.7,203.3,229.4z M310.3,185.9H121.7c-5,0-9.1-4.1-9.1-9.1v-70.4
	c0-5,4.1-9.1,9.1-9.1h188.6c5,0,9.1,4.1,9.1,9.1v70.4C319.4,181.9,315.3,185.9,310.3,185.9z M121.7,182.2h188.6
	c2.9,0,5.3-2.4,5.3-5.3v-70.4c0-2.9-2.4-5.3-5.3-5.3H121.7c-2.9,0-5.3,2.4-5.3,5.3v70.4C116.4,179.8,118.8,182.2,121.7,182.2z
	 M334.4,138.9h36c3.4,0,6.4,1.8,8,4.8c1.6,3,1.4,6.5-0.5,9.3l-18.2,27.2c-1.2,1.8-1.2,4.1,0,5.9l18.2,27.2c1.9,2.8,2.1,6.3,0.5,9.3
	c-1.6,3-4.6,4.8-8,4.8h-36c-5,0-9.1-4.1-9.1-9.1V148C325.4,143,329.4,138.9,334.4,138.9z M370.4,142.7h-36c-2.9,0-5.3,2.4-5.3,5.3
	v70.4c0,2.9,2.4,5.3,5.3,5.3h36c2,0,3.7-1,4.7-2.8c0.9-1.7,0.8-3.8-0.3-5.4l-18.2-27.2c-2-3.1-2-7,0-10.1l18.2-27.2
	c1.1-1.7,1.2-3.7,0.3-5.4C374.1,143.7,372.4,142.7,370.4,142.7z M72.3,186.1c1.2-1.8,1.2-4.1,0-5.9L54.2,153
	c-1.9-2.8-2.1-6.3-0.5-9.3c1.6-3,4.6-4.8,8-4.8h36c5,0,9.1,4.1,9.1,9.1v70.4c0,5-4.1,9.1-9.1,9.1h-36c-3.4,0-6.4-1.8-8-4.8
	c-1.6-3-1.4-6.5,0.5-9.3L72.3,186.1z M75.5,188.2l-18.2,27.2c-1.1,1.7-1.2,3.7-0.3,5.4s2.7,2.8,4.7,2.8h36c2.9,0,5.3-2.4,5.3-5.3
	V148c0-2.9-2.4-5.3-5.3-5.3h-36c-2,0-3.7,1-4.7,2.8c-0.9,1.8-0.8,3.8,0.3,5.4l18.2,27.2C77.5,181.2,77.5,185.1,75.5,188.2z
	 M78.9,254.2c-0.9,13.2,42,2.2,42,2.2C120,255.8,79.8,240.9,78.9,254.2z M124.3,248.1c-0.4-0.7-20.7-23.3-25.7-15.2
	C93.7,240.9,124.3,248.1,124.3,248.1z M98.6,278.4c5,8.1,25.3-14.5,25.7-15.2C124.3,263.2,93.7,270.4,98.6,278.4z M353.2,254.2
	c-0.9-13.4-41.1,1.6-42,2.2C311.2,256.4,354.1,267.4,353.2,254.2z M307.9,248.1c0,0,30.6-7.2,25.7-15.2
	C328.6,224.8,308.2,247.4,307.9,248.1z M333.5,278.4c4.9-8-25.7-15.2-25.7-15.2C308.2,263.9,328.6,286.5,333.5,278.4z M134,304.7
	c-1.9,0-3.5,1.5-3.5,3.5c0,1.9,1.5,3.5,3.5,3.5s3.5-1.5,3.5-3.5C137.5,306.2,135.9,304.7,134,304.7z M134,319.1
	c-1.9,0-3.5,1.5-3.5,3.5c0,1.9,1.5,3.5,3.5,3.5s3.5-1.5,3.5-3.5C137.5,320.7,135.9,319.1,134,319.1z M134,336.4
	c-1.9,0-3.5,1.5-3.5,3.5c0,1.9,1.5,3.5,3.5,3.5s3.5-1.5,3.5-3.5C137.5,338,135.9,336.4,134,336.4z M134,353.7
	c-1.9,0-3.5,1.5-3.5,3.5c0,1.9,1.5,3.5,3.5,3.5s3.5-1.5,3.5-3.5C137.5,355.2,135.9,353.7,134,353.7z M361.2,304.7
	c-1.9,0-3.5,1.5-3.5,3.5c0,1.9,1.5,3.5,3.5,3.5s3.5-1.5,3.5-3.5C364.6,306.2,363.1,304.7,361.2,304.7z M361.2,319.1
	c-1.9,0-3.5,1.5-3.5,3.5c0,1.9,1.5,3.5,3.5,3.5s3.5-1.5,3.5-3.5C364.6,320.7,363.1,319.1,361.2,319.1z M361.2,336.4
	c-1.9,0-3.5,1.5-3.5,3.5c0,1.9,1.5,3.5,3.5,3.5s3.5-1.5,3.5-3.5C364.6,338,363.1,336.4,361.2,336.4z M361.2,353.7
	c-1.9,0-3.5,1.5-3.5,3.5c0,1.9,1.5,3.5,3.5,3.5s3.5-1.5,3.5-3.5C364.6,355.2,363.1,353.7,361.2,353.7z M69.6,149.2
	c-1.6,0-2.8,1.3-2.8,2.8s1.3,2.8,2.8,2.8s2.8-1.3,2.8-2.8S71.2,149.2,69.6,149.2z M81.7,166.1c0-1.6-1.3-2.8-2.8-2.8
	s-2.8,1.3-2.8,2.8c0,1.6,1.3,2.8,2.8,2.8S81.7,167.7,81.7,166.1z M83.1,197.2c0-1.6-1.3-2.8-2.8-2.8s-2.8,1.3-2.8,2.8
	s1.3,2.8,2.8,2.8S83.1,198.8,83.1,197.2z M88.2,183.1c1.6,0,2.8-1.3,2.8-2.8s-1.3-2.8-2.8-2.8s-2.8,1.3-2.8,2.8
	S86.6,183.1,88.2,183.1z M83.1,154.8c1.6,0,2.8-1.3,2.8-2.8s-1.3-2.8-2.8-2.8s-2.8,1.3-2.8,2.8S81.6,154.8,83.1,154.8z M96.6,154.8
	c1.6,0,2.8-1.3,2.8-2.8s-1.3-2.8-2.8-2.8s-2.8,1.3-2.8,2.8S95.1,154.8,96.6,154.8z M69.6,212.4c-1.6,0-2.8,1.3-2.8,2.8
	s1.3,2.8,2.8,2.8s2.8-1.3,2.8-2.8S71.2,212.4,69.6,212.4z M83.1,212.4c-1.6,0-2.8,1.3-2.8,2.8s1.3,2.8,2.8,2.8s2.8-1.3,2.8-2.8
	S84.7,212.4,83.1,212.4z M96.6,218c1.6,0,2.8-1.3,2.8-2.8s-1.3-2.8-2.8-2.8s-2.8,1.3-2.8,2.8S95.1,218,96.6,218z M363.9,154.8
	c1.6,0,2.8-1.3,2.8-2.8s-1.3-2.8-2.8-2.8s-2.8,1.3-2.8,2.8S362.4,154.8,363.9,154.8z M351.8,166.1c0,1.6,1.3,2.8,2.8,2.8
	s2.8-1.3,2.8-2.8c0-1.6-1.3-2.8-2.8-2.8S351.8,164.6,351.8,166.1z M350.4,197.2c0,1.6,1.3,2.8,2.8,2.8s2.8-1.3,2.8-2.8
	s-1.3-2.8-2.8-2.8S350.4,195.7,350.4,197.2z M345.4,183.1c1.6,0,2.8-1.3,2.8-2.8s-1.3-2.8-2.8-2.8s-2.8,1.3-2.8,2.8
	S343.8,183.1,345.4,183.1z M350.4,154.8c1.6,0,2.8-1.3,2.8-2.8s-1.3-2.8-2.8-2.8c-1.6,0-2.8,1.3-2.8,2.8S348.9,154.8,350.4,154.8z
	 M336.9,154.8c1.6,0,2.8-1.3,2.8-2.8s-1.3-2.8-2.8-2.8s-2.8,1.3-2.8,2.8S335.4,154.8,336.9,154.8z M363.9,218c1.6,0,2.8-1.3,2.8-2.8
	s-1.3-2.8-2.8-2.8s-2.8,1.3-2.8,2.8S362.4,218,363.9,218z M350.4,212.4c-1.6,0-2.8,1.3-2.8,2.8s1.3,2.8,2.8,2.8
	c1.6,0,2.8-1.3,2.8-2.8S352,212.4,350.4,212.4z M336.9,212.4c-1.6,0-2.8,1.3-2.8,2.8s1.3,2.8,2.8,2.8s2.8-1.3,2.8-2.8
	S338.5,212.4,336.9,212.4z M341.8,103.1c-3.1-1.6-5.9,2.2-6.3,4.8c-0.6,3.2,0.3,7.1,0.3,10.3c0.1,3.8-0.3,7.4,0.8,11.1
	c0.6-1.2,1-2.5,1.7-3.6c1.3-1.9,3.6-3,5.3-4.6c2-1.9,4.4-3.3,5.9-5.8c1.1-1.8,4.1-8.6,0.4-9.5c-2.2-0.5-5.4,3.7-6.6,4.9
	C343,108.5,344.6,104.5,341.8,103.1z M368.2,134.8c0.5-0.5,1-1,1.5-1.6c1.3-1.3,2.6-2.6,3.7-4.1c2.9-3.9,6.7-8.5,8.1-13.3
	c1-3.8,1.7-12.2-1.1-15.3c-2.1-2.3-4.1-2.3-5.5,0.5c-0.6,1.2-1.1,2.6-1.7,3.8c-0.3,0.6-1.1,2.1-1.8,2.2c-0.4,0.1-0.7-0.2-0.9-0.7
	c-0.4-0.7-0.7-1.9-1-2.4c-1.9-3.2-5-5.1-7.9-1.8c-2.7,3.2-0.4,9.9,1,13.1c1.6,3.5,3.5,7,4.6,10.7c0.5,1.6,1,3.4,0.9,5.1
	c-0.1,1.6-1.1,3-1,4.6C367.1,136.1,368.2,134.8,368.2,134.8z M90.7,105.8c-3.7,0.9-0.7,7.7,0.4,9.5c1.5,2.4,3.8,3.9,5.9,5.8
	c1.7,1.6,3.9,2.7,5.3,4.6c0.8,1.1,1.2,2.4,1.7,3.6c1.1-3.7,0.7-7.3,0.8-11.1c0.1-3.3,0.9-7.1,0.3-10.3c-0.5-2.6-3.2-6.4-6.3-4.8
	c-2.8,1.5-1.2,5.5-1.4,7.7C96.1,109.6,93,105.3,90.7,105.8z M78.1,115.4c1.4-3.1,3.7-9.9,1-13.1c-2.8-3.4-6-1.4-7.9,1.8
	c-0.3,0.5-0.6,1.6-1,2.4c-0.3,0.4-0.6,0.7-0.9,0.7c-0.7-0.1-1.5-1.6-1.8-2.2c-0.6-1.3-1.1-2.6-1.7-3.8c-1.5-2.8-3.4-2.9-5.5-0.5
	c-2.8,3.1-2.2,11.6-1.1,15.3c1.3,4.8,5.1,9.4,8.1,13.3c1.1,1.5,2.4,2.7,3.7,4.1c0.5,0.5,1,1,1.5,1.6c0,0,1.2,1.3,1.2,0.9
	c0.1-1.6-0.9-3-1-4.6c-0.1-1.7,0.4-3.5,0.9-5.1C74.6,122.4,76.5,118.9,78.1,115.4z"/>
</svg>
