<?xml version="1.0" encoding="utf-8"?>
<!-- Generator: Adobe Illustrator 18.0.0, SVG Export Plug-In . SVG Version: 6.00 Build 0)  -->
<!DOCTYPE svg PUBLIC "-//W3C//DTD SVG 1.1//EN" "http://www.w3.org/Graphics/SVG/1.1/DTD/svg11.dtd">
<svg version="1.1" id="Layer_1" xmlns="http://www.w3.org/2000/svg" xmlns:xlink="http://www.w3.org/1999/xlink" x="0px" y="0px"
	 viewBox="0 0 432 432" enable-background="new 0 0 432 432" xml:space="preserve">
<path fill="#333333" d="M111.9,142.9c5.6-0.7,11-2.4,16.5-3.7c2.6-0.7,5.2-1,7.7-2c2.3-1,4.8-1.9,7.3-1.8c0.4,1.8-2.7,4.4-3.7,5.6
	c-1.5,1.8-7.6,5.7-6.4,8.4c0.9,2,5.2,2.4,6.9,3.1c2.2,0.8,4,1.2,6.4,1.7c8.5,1.5,17,2.1,25.5,3.5c18.5,3.1,36.7,2.4,55.2,1.3
	c8.9-0.5,17.8-1.9,26.7-2.7c10.5-0.9,21-2.9,31.2-5.8c4.6-1.3,9-2.9,13.6-4.2c2.8-0.9,5.4-1.9,8-2.9c3.2-1.2,9.5-5,12.9-3.8
	c0.3,1-1.2,2.2-1.9,2.7c-1.1,0.7-2.6,1.2-3.5,1.9c-2.3,1.6-4.7,4.8-5.9,7.3c-2.7,5.7,17.6,7.2,20.1,7.7c0,3.1-6.4,4-8.5,4.4
	c-4.9,0.9-9.5,2.2-14.5,2.7c-7.2,0.8-14.4,1.8-21.5,2.6c-7,0.8-14.1,0.7-21,1.6c-13.6,1.6-28,0.4-41.7-0.4
	c-20.2-1.2-41.2-3.8-60.7-8.6c-4-1-7.9-1.4-11.8-2.7c-5.7-2-11.3-4.3-16.9-6.1c-0.7,2.8-1.7,5.5-1,8.3c0.1,0.5,2.4,8.6,1.8,8.4
	c-4.1-1.5-7.2-7.2-9.7-10.6c-2-2.7-3.8-5.3-5.5-8.2C116,148.4,112,145.2,111.9,142.9z M121.2,424.1c-35.9,0-32.8-52.3-13.3-79.1
	c4.6-13.3,14.7-23.7,30.2-21.5C183.5,329.8,157.7,424.1,121.2,424.1z M137.2,329.1c-7.2,0-13.2,6.4-17.2,14.8c1.4,3,2,6.5,0.8,7.7
	c-1.7,1.8-3.7,4.8-5.6,8.4c-1.8,13,1.1,25.1,11,25.1c5.4,0,6.6-2.4,7.9-2.4c0.5,0,0.6,1.6-0.8,3.9c-1.6,2.2-3,1.5-3.9,2.3
	c-1.4,1.3-0.8,3-4.3,3c-8.4,0-14.1-5.4-17.4-13.2c-5.3,18.2-6.2,38.1,7.4,38.1C145.2,416.9,168.5,329.1,137.2,329.1z M253.6,341.6
	c-0.9,0-3.9,0.2-7.7,0.5c1.3-2.8,2.2-4.7,2.7-5.1c4.3-4.4-10.3-7.8-10.8-7.2c-0.8,0.8-3,6-5.7,13.2c-6.3,0.3-11.5,0.5-11.5,0.1
	c0-0.9-2.3,7.2,2.9,7.2c1,0,3.3-0.1,5.9-0.2c-2.8,8-5.8,17.1-8.1,25.2c-3.4,6.8-11.4,21.9-16.1,21.9c-8.9,0,6.3-31.8,9-34.7
	c4.4-4.4-10.3-7.7-10.8-7.2c-1.3,1.3-4.4,8.3-7.1,16.5v-0.1c0,0-11.7,25.2-17.7,25.2c-9,0,6.2-31.8,8.9-34.7
	c4.4-4.3-10.2-7.7-10.8-7.2c-2.6,2.7-12.2,28-12.2,39.3c0,6.9,7.9,12.6,11.7,10.9c6.1-2.9,11.6-10,15.5-16.6c-0.4,2.2-0.6,4.3-0.6,6
	c0,6.9,7.9,12.6,11.7,10.9c5.7-2.7,10.7-9,14.6-15.1c-0.3,1.7-0.5,3.2-0.5,4.3c0,6.9,7.9,12.6,11.7,10.9
	c12.9-6.2,22.7-30.7,22.7-30.7l-2.6-2.8c0,0-11.7,25.2-17.7,25.2c-6.5,0,4-29.9,11.3-47.6c5.9-0.1,11-0.1,11.7,0.6
	C255.6,351.8,256.5,341.6,253.6,341.6z M124.9,84.7c8.7-56.9-14.4-76.9-42.8-76.9c-29,0-51.3,22.9-53.3,45.3
	c-0.5,4.5,4.2,5.1,5.6,8.5c1.2,2.9-0.9,6.2,1.4,7.9c2.3,1.4,7,2.9,10.2,2.9c4.8,0,5.1-5.1,0.9-5.1c-5,0-8.8-3.7-9-8.5
	c-0.3-12.7,18-38.6,40.3-38.6c32.9,0,33.8,32.9,27.4,63.7c-11.3,55-37.5,65.4-51.5,63.7c0.2-0.5,0.2-0.9,0.2-1.2c0-1.6,2.8-11,6-22
	c8.1-27.7,17-68.7,17-85.2c0-5.1-17-5.1-19.7-2.5c-0.3,0.3,1.9,4.3,0.6,10.2c-1.2,5.7-1.7,12.2-3.1,21.9
	C52.3,86.4,47.8,101,43,115.9c-4.6,14.4-7.3,21.1-7.3,22.8c0,3.1,0.6,5.7,4.3,8.1c2,1.2,4.2,2.2,6.4,2.8c1.5,3.9,4.6,8.7,10.1,10.5
	C79.8,168.1,116.3,140.5,124.9,84.7z M130.1,117.3c0-25.1,15.8-50.4,22.2-56.7c0.8-0.8,2.6-0.5,4.5,0.8c5.9-5.4,12.4-9.1,15.5-9.1
	c6.4,0,18.4,9.6,19.7,16.4c1.1,6.5,0.5,14.1-1.4,21.9c6.2-2.3,12.2-4.9,15.3-6.9c4.3-13.2,9.4-25,11.5-27.2
	c0.8-0.8,23.1,4.5,16.6,11.2c-2.6,2.6-12.6,21.5-16.7,36.1c10.1-20.8,39.5-47.3,43.2-47.3c0.2,0,0.2,0,0.3,0
	c3.4,0.2,21.9,5,15.8,11.2c-4.3,4.2-27.7,53.2-14.1,53.2c9.3,0,27-38.4,27-38.4l4,4.3c0,0-14.7,37.4-34.6,46.8
	c-5.6,2.6-17.7-6-17.7-16.6c0-12.6,7.7-36.1,13.5-49.9c-11.8,13-36.4,49.3-38.3,64.8v1.7c-5.6,2.6-17.8-6-17.8-16.7
	c0-6.4,2-15.8,4.8-25.2c-4.3,2.1-9.7,4.5-15.1,6.3c-6.8,18.9-21.7,36.4-41.2,36.4C140.2,134.2,130.1,128,130.1,117.3z M152.9,90.8
	c1.9,3.9,9.3,5.9,21.9,4.3c0.6,0,1.2-0.2,2-0.3c6.5-15.2,8.2-30.7,0.6-33.8c-2.9-1.2-8.8,2.3-14.1,7.6c1.1,2.6,1.1,5.4-0.9,7.6
	C160.5,77.9,156.8,83.7,152.9,90.8z M144.7,126.4c11,0,21.7-11.6,29-25.3c-0.2,0.2-0.3,0.2-0.6,0.2c-8.4,0.3-16.6-1.1-22.3-6.5
	C143.1,109.2,136.6,126.4,144.7,126.4z M311.5,56.5c4-3.4,14.9-27.7,14.9-35.5c0-4.2-13-3.3-13.6,0.2c-0.9,5.7-8.2,27.4-11.8,33.5
	C299.8,56.5,307.4,59.9,311.5,56.5z M344.9,133.4c19.7-9.5,34.6-46.8,34.6-46.8l-4-4.3c0,0-17.8,38.4-27,38.4
	c-9.9,0,6-45.6,17.2-72.5c9-0.2,16.7-0.2,17.8,0.9c2.2,2.3,3.4-13.2-0.9-13.2c-1.4,0-5.9,0.3-11.8,0.8c2-4.3,3.4-7.1,4.2-7.7
	c6.5-6.7-15.7-11.9-16.4-11c-1.2,1.2-4.6,9.1-8.7,20.1c-9.6,0.5-17.5,0.8-17.5,0.2c0-1.4-3.6,11,4.5,11c1.6,0,5-0.2,9-0.3
	c-8.7,25-18.8,57.3-18.8,67.9C327.1,127.4,339.2,136,344.9,133.4z M116.6,326.8c3-5.2,5.3-10.8,6.8-16.8c1.8-6.7,2.8-13.4,2.8-20.2
	c0-6.8-0.3-13.6-1-20.4c-0.2-1.3-0.3-2.7-0.4-4c-0.1-1.3-0.2-2.7-0.4-4c1.2-0.3,2.1-0.6,2.8-0.9c0.7-0.3,1.4-0.5,2.3-0.9
	c4.5-1.5,8.4-3.3,11.8-5.4c3.3-2.1,6.8-4.5,10.5-7.4c1.7-1.3,2.3-3,2-4.9c-0.3-1.9-1.2-3.1-2.5-3.6c-1.2-0.5-2.3-0.6-3.5-0.4
	c-1.2,0.3-2.8,1-5,2.1c-2.8,1.8-5.9,3.7-9.3,5.6c-3.3,1.9-6.8,3.6-10.3,4.9c-2-11.9-3.9-23.4-5.8-34.6c2-0.3,4-0.6,6-0.8
	c2-0.2,4-0.4,6-0.8c6.3-1.3,11.8-3.7,16.3-7.1c4.5-3.4,8.3-8.2,11.3-14.4c2.7-5.5,2.3-10.9-1.3-16.3c-1.7-2.8-4.5-4.8-8.5-5.8
	c-4-1-7.5-0.8-10.5,0.8c-2.2,1.2-2.5,2.7-1,4.5c3.2,3.8,3.8,8.3,2,13.3c-0.5,1.3-1,2.7-1.6,4c-0.6,1.3-1.3,2.6-2.1,3.8
	c-2.8,3.8-6.1,6.6-9.8,8.4c-3.7,1.8-7.9,2-12.8,0.9c-1.8-0.3-3.6-0.8-5.1-1.4c-1.6-0.6-3.2-1.1-4.9-1.6c-1.8-0.7-3.5-1.4-5.1-2.1
	c-1.6-0.8-3.3-1.4-5.1-1.9c-9.5-2.5-18.5-1.8-27.1,2c-1.8,0.8-3.5,1.9-4.9,3.3c-1.4,1.3-2.5,3.1-3.1,5.3c-1,2.7-0.4,4.6,1.8,5.8
	c1.8,1.2,3.9,1.5,6.3,0.9c2.3-0.6,4.1-1.8,5.3-3.6c3.3-5.3,8-6.9,14-4.8c2.3,0.8,4.5,1.7,6.6,2.6c2.1,0.9,4.4,1.8,6.9,2.6
	c1,7,2,13.9,3.1,20.8c1.1,6.9,2.2,14,3.4,21.5c-3,0.3-5.8,0.3-8.5-0.2c-1.3-0.2-2.6-0.4-3.9-0.6c-1.3-0.3-2.9-0.5-4.9-0.9
	c-1.3,0-2.7,0.2-4.1,0.5c-1.4,0.3-2.3,1.5-2.6,3.5c0,1.5,0.8,2.7,2.5,3.6c1.7,0.9,3.8,1.6,6.3,2.1c2.5,0.5,5.2,0.8,8,0.9
	c2.8,0.1,5.3,0,7.3-0.1c0.5,4.7,0.8,9.3,0.9,13.8c0.1,4.5,0,9-0.4,13.5c-0.3,5.8-1.1,11.6-2.3,17.3c-1.2,5.7-3.1,11.2-5.8,16.5
	c-0.8,2-1.9,3.9-3.3,5.6c-1.3,1.8-3,3.3-5,4.6c-2.3-2.2-4.1-4.9-5.4-8.1c-1.3-3.3-1.9-6.6-2-10c-0.1-3.4,0.4-6.7,1.5-9.9
	c1.1-3.2,2.8-5.8,5.1-8c2.2-1.7,3.9-2.6,5.1-2.9c1.3-0.2,2.5-0.6,3.9-1.1c0.5-0.2,0.7-0.5,0.5-0.9c-0.2-0.4-0.3-0.7-0.5-0.9
	c-1.3-1.7-2.8-2.6-4.3-2.9c-1.5-0.2-3.1-0.2-4.8,0.1c-4.2,0.5-8.1,2.4-11.8,5.8c-3.7,3.3-6.1,7.2-7.3,11.5c-1.7,7-1.4,13.9,0.8,20.5
	c1.8,5.7,4.9,9.8,9.3,12.3c4.3,2.5,9.4,3.2,15.3,2c5-1.2,9.6-3.2,13.8-6C111,334.7,114.3,331.2,116.6,326.8z M239.6,226.1
	c-2.3-0.3-4.5,0.4-6.4,2.1c-1.9,1.8-3,3.8-3.4,6.1c-0.5,3,0.7,5.5,3.5,7.5c1.2,0.7,2.5,0.8,4,0.5c1.5-0.3,2.7-0.9,3.5-1.8
	c1.8-1.7,2.9-3.7,3.3-6c0.3-2.3-0.2-4.4-1.5-6.3C241.9,227.2,240.9,226.4,239.6,226.1z M369,272.6c0.4,1.1,0.2,2.1-0.6,3.1
	c-1.7,2.2-5.3,5-10.9,8.5c-5.6,3.5-13.1,6.2-22.4,8c-1.3,0.3-2.3,0.9-2.9,1.6c-0.6,0.8-1,1.8-1.4,3.1c-1.7,5.2-3.7,10.5-6,16
	c-1.3,3-2.7,5.7-4.1,8c-1.4,2.3-3.3,4.7-5.6,7c-2.8,2.8-6.2,4.9-10,6.1c-3.8,1.3-7.7,1.5-11.5,0.9c-6-1-9.3-4.7-9.8-11
	c-0.2-4.7,1.3-9.3,4.5-13.8c2.5-3.3,5.4-6.3,8.6-9c3.3-2.7,7-4.7,11.1-6c2.5-1,4.3-2.2,5.4-3.6c1.1-1.4,1.8-3.5,2.1-6.4
	c0.3-5.3,0.5-10.6,0.6-15.7c0.1-5.1-0.4-10.2-1.4-15.4c-0.3-1.5-0.8-3.3-1.5-5.4c-0.7-2.1-1.7-3.3-3-3.6c-1.3,0.8-2.6,1.7-3.9,2.6
	c-1.3,0.9-2.4,1.9-3.4,2.9c-3.2,2.8-6.1,6.2-8.8,10c-3.3,3.8-6.1,8.1-8.4,12.9c-2.3,4.8-4.1,9.3-5.4,13.7c-1.3,4.3-2.3,8.1-3,11.4
	c-0.7,3.3-1,5.3-1,6.1c0.2,24.4,3.6,48.5,10.3,72.4c0.7,2.2,1.3,4.3,1.8,6.4c0.5,2.1,1,4.2,1.5,6.4c0.7,1.5,0.2,2.7-1.5,3.5
	c-2.2,1-4.8,1.3-7.9,0.8c-3.1-0.5-5.4-2-6.9-4.5c-1.5-2.7-2.9-5.3-4.1-8c-1.3-2.7-2.3-5.4-3.1-8.3c-5.3-18.9-8.3-37.7-8.8-56.4
	c-0.1-3-0.2-6-0.2-9c-2.3,3.5-4.9,6.9-7.8,10.3c-4,4.5-8.7,7.2-14,8c-5.3,0.8-9.9,0.5-13.8-1c-4.3-1.8-7.5-4.4-9.4-7.6
	c-0.3-0.5-0.6-1-0.8-1.6c-0.9,1.6-1.7,3.1-2.5,4.4c-1.7,2.7-3.1,4.8-4.3,6.3c-3,3.8-6.6,6.5-10.6,8c-4.1,1.5-8.2,2-12.4,1.5
	c-4.2-0.5-8.1-1.9-11.9-4.3c-3.8-2.3-6.7-5.3-8.9-8.8c-1.8-2.8-3.2-5.7-4.1-8.6c-0.9-2.9-1.7-6-2.4-9.4c-1.3-6.5-2.1-13-2.3-19.5
	c-0.2-6.5,0.1-13,0.8-19.5c0.7-6.5,1.5-13,2.5-19.5c1-6.5,2.5-12.9,4.5-19.3c2-6.3,4.4-12.4,7.1-18.3c2.8-5.8,6.1-11.4,9.9-16.8
	c1.7-2.3,3.4-4.5,5.3-6.6c1.8-2.1,3.8-4.1,5.8-6.1c2-1.8,4.5-3.4,7.5-4.6c3-1.3,6.2-1.7,9.5-1.4c2.8,0.3,4.8,1.8,6,4.4
	c1.2,2.6,1.6,5.4,1.3,8.4c-1.2,11.9-3.9,23-8.3,33.4c-4.3,10.4-9.6,19.9-15.8,28.4c-1.7,2.3-3.5,4.6-5.4,6.9
	c-1.9,2.3-4.1,4.3-6.4,6.1c-1,0.7-1.6,1.8-1.8,3.3c-1,8.5-1.4,17-1.3,25.3c0.2,8.4,1.4,16.7,3.8,25c0.7,2.5,1.5,4.7,2.6,6.5
	c1.1,1.8,2.2,3.4,3.4,4.6c1.2,1.3,2.2,2.2,3,2.9c0.8,0.7,1.4,1,1.8,1c4.2-1.7,8-5,11.4-10.1c3.4-5.1,6.4-10.5,9-16.3
	c0-0.1,0.1-0.2,0.1-0.3c-0.3-5.5,0.1-11,1.2-16.2c1.3-6.3,3.4-12.3,6.3-18.2c0.8-1.8,1.8-3.5,2.8-5.1c1-1.6,2-3.1,3-4.6
	c1.5-2.3,3.4-3.8,5.6-4.5c2.3-0.7,4.7-0.8,7.4-0.5c3,0.5,4.3,2.3,3.8,5.5c-0.2,1.3-0.4,2.7-0.8,4.1c-0.3,1.4-0.7,2.8-1,4.1
	c-1,3.5-2,7.1-2.9,10.6c-0.9,3.6-1.7,7.2-2.4,10.9c-0.7,3.7-1.3,7.4-1.8,11.3c-0.5,3.8-0.3,7.6,0.5,11.3c0.7,2.7,1.5,4.7,2.6,6
	c1.1,1.3,1.8,1.9,2.1,1.8c1.2-0.3,2.6-1.2,4.3-2.6c1.7-1.4,2.9-2.6,3.8-3.6c1.7-2,3.5-4.5,5.6-7.6c2.1-3.1,4.2-6.4,6.3-10
	c1.1-1.9,2.1-3.8,3.2-5.7c1.1-13.9,3.6-27.6,7.5-41.3c0.7-1.8,1.3-3.7,2-5.5c0.7-1.8,1.4-3.7,2.3-5.5c1.3-2.7,3-4.2,5.1-4.6
	c2.1-0.4,4-0.3,5.9,0.4c1.3,0.3,2.6,0.9,3.9,1.8c1.3,0.8,1.6,2.1,1.1,3.8c-0.7,2.3-1.3,4.8-2,7.4c-0.7,2.6-1.2,5-1.6,7.1
	c-0.4,2.2-0.9,4.7-1.4,7.5c0.3-0.5,0.7-1,1.1-1.6c0.4-0.6,0.8-1.2,1.1-1.9c1.5-2.3,3.1-4.6,4.8-6.9c1.7-2.3,3.7-4.3,6-6.1
	c3.7-3,7.9-5,12.8-6.1c4.8-1.1,9.5-1,14,0.1c3.7,0.8,6.5,2.6,8.5,5.4c2,2.8,3.5,5.9,4.5,9.4c1,3.5,1.5,7.1,1.6,10.9
	c0.1,3.8,0,7.1-0.1,10.1c-0.2,0.3-0.3,1-0.3,2c0,1-0.1,2.1-0.3,3.3c-0.2,1.3-0.3,2.8-0.5,4.3c1.3-0.3,3-0.8,5-1.4
	c2-0.6,4-1.3,6.1-2.1c2.1-0.8,4.2-1.8,6.4-2.9c2.2-1.1,4.1-2.3,5.8-3.6c1.3-1.2,2.6-2.1,3.8-2.8c1.2-0.7,2.8-0.8,4.8-0.5
	C367.6,270.8,368.6,271.5,369,272.6z M177.5,246.9c2-2.3,4.8-6.1,8.4-11.4c3.6-5.3,6.6-11.2,9.1-17.9c1.5-4,2.8-8,3.9-12
	c1.1-4,1.9-7.7,2.5-11c0.6-3.3,1-6.2,1.3-8.5c0.3-2.3,0.3-3.8,0.1-4.5c-2.2,1.5-4.6,4.7-7.1,9.6c-2.6,4.9-5.1,10.6-7.6,16.9
	c-2.5,6.3-4.7,13-6.6,19.9C179.4,234.9,178.1,241.2,177.5,246.9z M311.5,302.8c-2.7,1.2-5.1,2.8-7.1,4.8c-2.1,2-3.8,4.2-5,6.5
	c-1.3,2.3-2,4.7-2.4,7c-0.3,2.3,0,4.5,1,6.5c1.3-1,2.8-2.5,4.3-4.5c1.5-2,2.9-4.2,4.1-6.5c1.3-2.3,2.3-4.8,3.3-7.3
	C310.5,306.8,311.1,304.6,311.5,302.8z M400.7,140.5c-0.4,0.8-0.6,1.3-0.9,1.8c-2.1,4.1-4.1,8.2-6.3,12.2c-0.3,0.6-1.4,1.1-2.3,1.1
	c-0.8,0-2.3-0.9-2.6-1.4c-0.5-0.9-0.5-2-0.1-2.8c2.2-4.5,4.5-9,6.8-13.4c0.6-1.1,0.2-2-1.3-2.8c-1.6-0.8-1.8,0.2-2.2,0.9
	c-2.2,4.3-4.3,8.6-6.5,12.8c-1.1,2.1-2.5,2.7-4.3,1.7c-1.7-0.9-2-2.3-1-4.3c2.2-4.3,4.4-8.7,6.6-13c0.5-1.1,0.3-1.8-1.4-2.5
	c-1.5-0.6-1.9,0.1-2.3,0.9c-2.3,4.5-4.5,9-6.8,13.4c-0.8,1.6-2.3,2-3.9,1.3c-1.7-0.8-2.4-2.4-1.7-4c0.5-1.2,1.1-2.3,1.7-3.4
	c1.6-3.2,3.2-6.4,4.8-9.6c-0.2-0.1-0.3-0.3-0.5-0.4c-0.9,0.2-1.8,0.4-2.6,0.6c-7.4,2.5-11.3,7.4-12.6,14.1
	c-0.9,4.8,1.1,9.8,3.5,14.8c2.2,4.5,2.3,8.4,0.4,12.1c-10.9,21.2-21.7,42.6-32.5,63.9c-0.2,0.5-0.5,1-0.7,1.5
	c-0.4,1.6,0.5,3.5,2.4,4.7c2,1.3,4.3,1.4,5.7,0.2c0.7-0.6,1.2-1.4,1.7-2.3c11-21.5,21.9-43.1,32.8-64.6c1.3-2.5,3.4-4.2,6.6-5.1
	c2.1-0.6,4.3-1.1,6.5-1.5c9.1-1.9,13.9-7.1,15.1-14.8C403.6,148.8,403,144.9,400.7,140.5z M85.9,176.7c0.1-2.3-0.1-2.9,0-4.1
	c0.1-2.5,1.7-8.7,2-9.6c1.9-5.6,6.8-9.4,10.8-6.9c3.4,2.1,5.2,7.8,3.4,11.7c0.6,0,1.2,0.1,1.8,0.1c0.9-0.2,1.9-0.3,2.9-0.3
	c6.9-0.1,8.4,7.3-0.3,13.9c-3.6,2.7-6.3,3.7-10.3,4.2c-8.9,0.6-9-1.7-13.7,2.7c-0.4,0.4-1.1,0-0.9-0.6c1.3-2.6,2.9-5.9,3.7-8.8
	C85.7,178.3,85.9,177.9,85.9,176.7z M85.7,182.5c-0.1,0.2-1.6,3.2-1.7,3.3c4.5-3.2,7.2-0.1,14.6-5.1c4.9-3.2,9.8-3.8,11.5-7.1
	c0.2-0.4,0.2-1.2,0.1-1.6c-0.3-1.7-0.4-3.4-6.2-2.9l-2.8-0.3c-0.4,0-0.6-0.5-0.4-0.8c0.6-0.8,0.4-0.5,0.7-1.3
	c0.9-3.5-1.3-7.7-3.7-8.9c-0.8-0.4-1.6-0.4-2.5-0.3c-2.1-0.1-4.3,2.8-5.1,6.2c-0.2,0.7-1.1,7.3-1.8,9.4
	C86.7,178,87.7,178.4,85.7,182.5z M257.6,201.2c-3.3,11.7-6.3,10.7-2.8,18.7c0.4,0.7-0.6,1.4-1.2,0.8c-2.7-2.9-6.2-6.5-9.5-8.8
	c-0.8-0.6-1.2-1-2.7-1.6c-3-1.2-3.8-1.2-5.3-1.9c-3.1-1.3-10.3-6.2-11.3-7c-6.2-5-8.8-13.1-3.8-17.1c4.2-3.4,12.4-3.1,16.5,1.1
	c0.3-0.7,0.6-1.5,0.9-2.2c0.2-1.3,0.5-2.6,0.9-3.9c3-8.9,13.2-7.3,17.6,6.8C258.8,191.9,258.8,195.9,257.6,201.2z M252.5,196
	c-1.8-7.7-0.3-14.4-3.8-17.9c-0.4-0.5-1.4-0.8-2-0.9c-2.4-0.4-4.5-1.1-6.6,6.6c0,0-1.7,3.4-1.7,3.4c-0.2,0.5-0.9,0.5-1.2,0.1
	c-0.8-1.1-0.5-0.8-1.3-1.5c-4-2.8-10.5-1.9-13.1,0.6c-0.9,0.8-1.2,1.8-1.5,3c-1.1,2.6,1.6,6.8,5.6,9.4c0.9,0.5,8.8,4.8,11.1,6.7
	c5.5,4.6,6.5,3.4,10.8,7.9c0.2,0.2,3.3,3.5,3.5,3.7C250.1,209.8,255.4,207.7,252.5,196z M274.1,209.4c-0.2-0.7-0.2-0.9-0.3-2.2
	c0,0.1,0-0.2,0-0.1c0.4-3,2.4-4,4.1-3.8c1.5,0.2,2.6,1.3,3.6,2.5c3.9,5.3,0.7,5.7,4.4,14c0.3,0.6-0.2,1.5-1.2,1.2
	c-1.8-0.4-3.1-0.4-6.6-0.6C264,219.7,265.6,206.1,274.1,209.4z M271.2,211.3c-0.4,0.1-0.5,0.4-0.6,0.6c-0.3,0.8,1.8,2.8,2.5,3.3
	c1.9,1.8,7.1,2.6,10.3,3.4c-0.8-2-1.8-2.7-2.5-5.7c-0.4-1.8-0.5-2.8-1.1-4.4c0,0,0-0.1,0,0c-0.6-1.1-0.1-0.2-0.6-1
	c-0.6-0.8-1.9-1.4-2.7-0.1c-0.1,0.2-0.1,0.1-0.1,0.2c0,0,0-0.3,0-0.1c-0.2,0.5-0.3,0.7-0.2,1.3c0,0.4,0.2,1.5,0.5,2.2
	c0.4,0.9-0.7,1.7-1.4,1.1c-1.4-1-2.1-1.1-3.3-1.1C271.6,211.2,271.4,211.2,271.2,211.3z M324.6,214.1c-1.7,3.5-3.7,6.8-5.6,10.4
	c-0.1,0.4-0.4,1-0.5,1.7c-0.3,1.4,0.4,2.6,1.6,3.1c1.3,0.6,2.6,0.3,3.4-0.9c0.6-0.9,1-1.8,1.4-2.8c1.2-3.5,2.3-7,3.7-10.5
	c3-7.9,6.1-15.8,9.2-23.7c0.4-0.9,1-1.6,1.9-1.9c0.7-0.3,1.5-0.5,2.2-0.8c1.9-0.6,3.4-1.6,4.6-3.2c2.9-3.7,4.5-7.9,4.2-12.7
	c-0.1-1.7-0.6-3.4-1.2-5c-0.7-2-2.1-2.5-4.1-1.8c-0.9,0.3-1.9,0.7-2.7,1.2c-3.8,2.3-6.1,5.9-7.6,10c-1.1,3.3-1.1,6.5,0.6,9.6
	c0.2,0.3,0.3,0.6,0.4,1c0.3,0.9,0.3,1.8-0.1,2.7C332.3,198.6,328.5,206.4,324.6,214.1z"/>
</svg>
