<?xml version="1.0" encoding="utf-8"?>
<!-- Generator: Adobe Illustrator 18.0.0, SVG Export Plug-In . SVG Version: 6.00 Build 0)  -->
<!DOCTYPE svg PUBLIC "-//W3C//DTD SVG 1.1//EN" "http://www.w3.org/Graphics/SVG/1.1/DTD/svg11.dtd">
<svg version="1.1" id="Layer_1" xmlns="http://www.w3.org/2000/svg" xmlns:xlink="http://www.w3.org/1999/xlink" x="0px" y="0px"
	 viewBox="0 0 432 432" enable-background="new 0 0 432 432" xml:space="preserve">
<path fill="#333333" d="M353.7,334.2c-1.6-1-3.2-1.1-4.7-0.4c-1.5,0.8-3.1,1.6-4.7,2.7c-8.1,4.9-14.9,8.4-20.6,10.6
	c-5.7,2.2-9.7,3.6-12.3,4.3c-1.4-2.2-2.7-4-3.9-5.4c-1.2-1.4-2.3-2.7-3.4-3.9c-1.1-1.2-2.3-2.4-3.6-3.5c-1.3-1.2-2.8-2.6-4.4-4.3
	c0.4-0.8,0.9-1.8,1.6-2.8c1.1-1.9,2.1-3.5,3-5.1c0.9-1.5,1.6-3,2.2-4.4c0.5-1.4,0.9-2.9,1.2-4.5c0.3-1.6,0.3-3.5,0.1-5.7
	c0-3-0.5-6-1.6-8.8c-0.9-2.5-2.5-4.4-4.7-5.6c-2.2-1.2-4.7-1.6-7.4-1.3c-3.1,0.3-5.6,1.1-7.7,2.1c-2.1,1.1-4.1,2.7-6.1,4.7
	c-2,2.2-3.7,4.9-5.3,8.2c-1.5,3.3-2.4,7.1-2.6,11.5c-0.3,6,1.1,11.6,4.3,16.8c-6,3.4-11.2,6-15.7,7.7c-5.7,2.2-9.7,3.6-12.3,4.3
	c-1.4-2.2-2.7-4-3.9-5.4c-1.2-1.4-2.3-2.7-3.4-3.9c-1.1-1.2-2.3-2.4-3.6-3.5c-1.3-1.2-2.8-2.6-4.4-4.3c0.4-0.8,0.9-1.8,1.6-2.8
	c1.1-1.9,2.1-3.5,3-5.1c0.9-1.5,1.6-3,2.2-4.4c0.5-1.4,0.9-2.9,1.2-4.5c0.3-1.6,0.3-3.5,0.1-5.7c0-3-0.5-6-1.6-8.8
	c-0.9-2.5-2.5-4.4-4.7-5.6c-2.2-1.2-4.7-1.6-7.4-1.3c-3.1,0.3-5.6,1.1-7.7,2.1c-2.1,1.1-4.1,2.7-6.1,4.7c-2,2.2-3.7,4.9-5.3,8.2
	c-1.5,3.3-2.4,7.1-2.6,11.5c-0.4,6.4,1.3,12.3,4.8,17.7c0.2,0.4,0.6,0.8,1,1.3c-5,10.6-9.9,19.2-14.6,25.7
	c-5.3,7.4-9.7,12.4-13.1,14.9c-1.8,1.2-3.6,2-5.5,2.5s-3.6,0.2-5.3-1c-3.1-2.2-5.3-5-6.7-8.3c-1.8-3.9-2.9-7.7-3.2-11.5
	c-0.4-3.8-0.3-7.7,0.3-11.7c0.2-1,0.3-2,0.4-3c0.1-1,0.3-2,0.7-3h5.4c4.8-0.3,8.8-1.6,11.8-3.9c3.1-2.3,5.4-5.3,7-9.2
	c2.5-6.4,3.1-12.5,1.9-18.4c-0.5-2.4-1.5-4.1-2.8-5.2c-1.3-1.1-3.4-1.7-6.1-1.9c-7.4-0.5-14,1.6-19.9,6.3c-2,1.5-3.7,3.2-5.3,5.1
	c-1.5,1.9-3,3.7-4.4,5.6c-4.7,7.1-7.9,14.2-9.7,21.5c-1.4,5.8-1.6,11.9-0.7,18.3c-0.3,0.6-0.5,1.2-0.8,1.8c-2.8,5.8-6,11.3-9.7,16.4
	c-3.7,5.1-7.8,8.5-12.3,10.2c-0.4,0-1-0.3-1.9-1c-0.9-0.7-2-1.6-3.2-2.9c-1.3-1.3-2.5-2.8-3.6-4.7c-1.2-1.9-2.1-4-2.8-6.6
	c-2.5-8.4-3.9-16.8-4-25.3c-0.2-8.4,0.3-16.9,1.3-25.5c0.2-1.5,0.8-2.6,1.9-3.3c2.5-1.9,4.8-3.9,6.9-6.2c2.1-2.3,4-4.6,5.8-6.9
	c6.6-8.6,12.3-18.1,17-28.7c4.7-10.5,7.6-21.8,8.9-33.7c0.4-3-0.1-5.8-1.3-8.5c-1.3-2.6-3.4-4.1-6.5-4.4c-3.6-0.3-7,0.1-10.2,1.4
	s-5.9,2.8-8.1,4.7c-2.2,2-4.2,4.1-6.2,6.2c-2,2.1-3.9,4.3-5.7,6.7c-4.1,5.4-7.7,11-10.6,16.9c-3,5.9-5.5,12-7.7,18.4
	c-2.2,6.4-3.8,12.9-4.8,19.5c-1.1,6.6-2,13.1-2.7,19.7c-0.7,6.6-1,13.1-0.8,19.7c0.2,6.6,1,13.1,2.4,19.7c0.7,3.4,1.6,6.5,2.6,9.5
	c1,2.9,2.5,5.9,4.4,8.7c2.3,3.5,5.5,6.5,9.6,8.8s8.3,3.8,12.8,4.3c4.5,0.5,8.9,0,13.3-1.5c4.4-1.5,8.2-4.2,11.4-8.1
	c1.3-1.5,2.8-3.6,4.6-6.3c1.3-1.9,2.6-4.1,4-6.7c0.1,0.1,0.1,0.3,0.2,0.4c1.3,2.5,3.2,4.9,5.5,7.1c2.9,2.5,6.2,4.5,10.1,6.1
	c3.9,1.5,7.9,2.3,12,2.3c4.1,0,8.2-0.8,12.1-2.5c3.9-1.7,7.4-4.4,10.5-8.1c2-2.4,4.1-5.3,6.3-8.8c2.2-3.5,4.4-7.2,6.6-10.9
	c2.2-3.7,4.1-7.2,5.8-10.6c0.7-1.4,1.4-2.7,1.9-3.8c0.6,0.7,1.2,1.5,1.8,2.3c1.7,2.2,3.4,4.5,5,6.8c1.6,2.4,3,4.5,4,6.6
	c0.4,0.7,0.7,1.7,1.1,3c-0.7,0.5-1.3,1-1.9,1.5s-1.1,0.9-1.6,1.3c-2.7,2.4-5.2,4.8-7.4,7.2c-2.2,2.4-4.3,5.1-6.1,8
	c-1.8,2.9-3.1,6.2-4,9.9c-0.9,3.7-1,7.7-0.3,12.1c0.9,4.5,2.8,8.6,5.8,12.3c3,3.6,7,5.6,12,5.9c1.4,0,2.8,0,4.2,0
	c1.3,0,2.7-0.2,4.2-0.5c8.1-1.3,14.8-4.5,20.1-9.5c5.3-5,8.1-11.7,8.5-20.1c0.2-8.4-1.3-16.9-4.6-25.5c-0.7-1.9-1.6-3.7-2.6-5.6
	c-1-1.9-1.9-3.5-2.8-5.1c2-0.5,4.6-1.4,7.8-2.7c3.2-1.3,6.6-2.7,10.1-4.2c3.5-1.5,6.8-3,10-4.5c0.6-0.3,1.1-0.6,1.7-0.8
	c1,1.2,2.1,2.5,3.2,3.9c1.7,2.2,3.4,4.5,5,6.8c1.6,2.4,3,4.5,4,6.6c0.4,0.7,0.7,1.7,1.1,3c-0.7,0.5-1.3,1-1.9,1.5s-1.1,0.9-1.6,1.3
	c-2.7,2.4-5.2,4.8-7.4,7.2c-2.2,2.4-4.3,5.1-6.1,8c-1.8,2.9-3.1,6.2-4,9.9c-0.9,3.7-1,7.7-0.3,12.1c0.9,4.5,2.8,8.6,5.8,12.3
	c3,3.6,7,5.6,12,5.9c1.4,0,2.8,0,4.2,0c1.3,0,2.7-0.2,4.2-0.5c8.1-1.3,14.8-4.5,20.1-9.5c5.3-5,8.1-11.7,8.5-20.1
	c0.2-8.4-1.3-16.9-4.6-25.5c-0.7-1.9-1.6-3.7-2.6-5.6c-1-1.9-1.9-3.5-2.8-5.1c2-0.5,4.6-1.4,7.8-2.7s6.6-2.7,10.1-4.2
	c3.5-1.5,6.8-3,10-4.5c3.1-1.5,5.5-2.9,7.1-4.3c2.3-1.5,3.7-3.1,4.2-4.8C354.8,336.1,354.6,334.9,353.7,334.2z M167.6,328.4
	c2.2-4,4.8-8.1,7.8-12.1c1.3,2.7,1.7,5.5,1.3,8.3c-0.4,2.2-0.9,4.3-1.5,6.4c-0.6,2.1-1.7,4.1-3.1,5.9c-1.1,1.5-2.3,2.7-3.8,3.5
	c-1.4,0.8-3.4,1.1-5.9,0.8C163.8,336.8,165.5,332.5,167.6,328.4z M108.8,289.9c2.1-7,4.4-13.7,7.1-20.1c2.7-6.4,5.4-12.1,8.2-17.1
	c2.8-5,5.3-8.2,7.7-9.7c0.2,0.7,0.1,2.2-0.1,4.5c-0.3,2.4-0.7,5.2-1.3,8.6c-0.6,3.4-1.5,7.1-2.7,11.1c-1.2,4-2.6,8.1-4.2,12.1
	c-2.7,6.7-6,12.8-9.8,18.1c-3.9,5.3-6.9,9.1-9,11.5C105.3,303.3,106.7,296.9,108.8,289.9z M223.7,325.7c-3.1-2.9-4.6-6.4-4.7-10.7
	c-0.1-4.3,1.3-8.2,4.2-11.7c2.7,2.4,4.1,5.6,4.2,9.7C227.4,317,226.2,321.3,223.7,325.7z M233.4,399.7c-0.4,2.4-0.9,4.7-1.6,7.1
	c-0.7,2.4-1.8,4.5-3.2,6.6c-0.5,0.8-1.2,1.6-1.9,2.3c-0.7,0.7-1.5,1.4-2.4,2.3c-2.2-0.7-3.8-1.6-5-2.8c-1.2-1.2-2.2-2.6-3.1-4.3
	c-1.4-2.7-2.2-5.4-2.3-8.2c-0.1-2.8,0.2-5.6,0.9-8.5c1.1-4,2.8-7.7,5.1-10.9c2.3-3.2,5.3-6.2,8.9-9.1c1.6,4.4,2.9,8.6,3.9,12.8
	C233.7,391,233.9,395.3,233.4,399.7z M289.9,325.7c-3.1-2.9-4.6-6.4-4.7-10.7c-0.1-4.3,1.3-8.2,4.2-11.7c2.7,2.4,4.1,5.6,4.2,9.7
	C293.6,317,292.4,321.3,289.9,325.7z M299.6,399.7c-0.4,2.4-0.9,4.7-1.6,7.1c-0.7,2.4-1.8,4.5-3.2,6.6c-0.5,0.8-1.2,1.6-1.9,2.3
	c-0.7,0.7-1.5,1.4-2.4,2.3c-2.2-0.7-3.8-1.6-5-2.8c-1.2-1.2-2.2-2.6-3.1-4.3c-1.4-2.7-2.2-5.4-2.3-8.2c-0.1-2.8,0.2-5.6,0.9-8.5
	c1.1-4,2.8-7.7,5.1-10.9c2.3-3.2,5.3-6.2,8.9-9.1c1.6,4.4,2.9,8.6,3.9,12.8C299.9,391,300.1,395.3,299.6,399.7z M111.4,201
	c-0.9-6.5-1.1-12.9-0.8-19.1c0.3-6.3,1.5-12.5,3.6-18.7c0.4-1.2,0.8-2.1,1.2-2.9c0.4-0.8,1-1.7,1.6-2.8c0.6-1.2,1.4-1.9,2.3-2.3
	c0.9-0.4,2-0.2,3.1,0.4c0.2,0.1,0.4,0.4,0.6,0.7c0.2,0.3,0.3,0.6,0.4,0.9c0.1,0.4,0.1,0.9,0,1.4c-0.1,0.5-0.2,1-0.2,1.5
	c-0.2,1.9-0.5,3.6-0.7,5.2s-0.5,3.3-0.7,5.2c0.5-0.9,1-1.8,1.7-2.7c0.7-0.9,1.4-1.8,2-2.7c1-1.5,2.2-2.7,3.5-3.9
	c1.3-1.1,2.8-2.2,4.3-3.1c2.3-1.5,4.9-2.1,7.6-2c4.3,0.4,6.6,2.5,6.6,6.4c0,1.5-0.2,2.9-0.5,4.3c-0.3,1.4-0.8,2.7-1.4,3.9
	c-0.6,1.2-1.3,2.5-2,3.7c-0.7,1.2-1.5,2.5-2.2,3.7c-0.2,0.4-0.3,0.7-0.6,1c-0.2,0.3-0.5,0.7-0.8,1.1c2.1,0.1,4,0.6,5.6,1.6
	c1.7,1,3,2.3,3.9,3.7c1.7,2.4,2.8,5.1,3.1,8.1c0.4,2.9,0.3,6.1-0.1,9.6c-0.5,3.5-1.4,6.5-2.9,9.2c-0.6,1.2-1.4,2.4-2.2,3.4
	c-0.9,1-1.9,1.9-3,2.7c-1.9,1.2-4.1,1.9-6.5,2c-2.4,0.1-4.5-0.5-6.3-1.7c-1.6-1-2.7-2.6-3.3-4.7c-0.7-2.1-0.7-4.2-0.1-6.2
	c0.2-0.8,0.4-1.3,0.6-1.6c0.2-0.3,0.5-0.7,0.9-1.5c0.7-1.3,1.7-2.3,3-3.1c1.3-0.7,2.6-0.8,4-0.2c0.1,0.1,0.2,0.2,0.3,0.3
	c0.2,0.1,0.2,0.2,0.2,0.4c0.1,0.1,0,0.5-0.3,1c-1.3,2.2-2.1,4.4-2.3,6.8c-0.2,2.3,0.7,4.7,2.7,7c1.2-0.9,2.3-2.1,3.2-3.6
	c0.9-1.5,1.6-3.2,2.1-5c0.5-1.8,0.8-3.7,1-5.7c0.2-2,0.1-4-0.1-6c-0.2-1.3-0.3-2.7-0.6-4.1c-0.2-1.4-0.6-2.7-1-3.9
	c-0.4-1.2-1-2.1-1.6-2.8c-0.6-0.7-1.4-0.9-2.3-0.6c-1.9,0.5-3.4,0.8-4.5,0.9c-1.1,0.1-1.9,0.1-2.4-0.1c-0.5-0.2-0.8-0.5-0.9-0.8
	c-0.1-0.4,0-0.8,0.1-1.2c0.2-0.4,0.5-0.7,0.7-1c0.2-0.3,0.4-0.6,0.6-0.9c2-2.5,3.7-5.1,5-7.8c1.3-2.7,2.3-5.6,2.9-8.7
	c0.2-1,0.4-2,0.4-3c0-1-0.2-2.1-0.8-3.2c-0.5,0.4-1.1,0.7-1.6,1c-0.5,0.3-1,0.7-1.3,1c-2.3,2.1-4.3,4.4-6,7
	c-1.7,2.6-3.1,5.2-4.4,8.1c-1.1,2.6-2,5.1-2.7,7.8c-0.7,2.6-1.4,5.3-2,8c-0.3,1.4-0.4,2.8-0.2,4.2c0.2,1.4,0.3,2.8,0.6,4.2
	c0.3,1.7,0.7,3.9,1.3,6.3c0.5,2.5,1.1,4.8,1.6,7c0.5,2.2,1,4.2,1.3,5.8c0.3,1.6,0.5,2.5,0.5,2.6c0.2,1,0.1,1.7-0.2,2.2
	c-0.3,0.4-0.9,0.7-1.9,0.9c-0.7,0.1-1.4,0.2-2.1,0.2c-0.7,0-1.4-0.1-2-0.2c-0.8-0.1-1.2-0.3-1.4-0.7c-0.2-0.4-0.4-0.8-0.8-1.4
	c-2-3.7-3.5-7.4-4.4-11C112.8,209,112.1,205.2,111.4,201z M166.4,198.4c0-0.4,0.1-0.9,0.3-1.3h2.3c2.1-0.1,3.8-0.7,5.1-1.7
	c1.3-1,2.3-2.3,3-4c1.1-2.8,1.4-5.4,0.8-8c-0.2-1-0.6-1.8-1.2-2.2c-0.6-0.5-1.5-0.7-2.6-0.8c-3.2-0.2-6.1,0.7-8.6,2.7
	c-0.9,0.7-1.6,1.4-2.3,2.2c-0.7,0.8-1.3,1.6-1.9,2.4c-2,3.1-3.4,6.2-4.2,9.3c-0.8,3.1-0.7,6.4,0.1,9.9c0.3,1.2,0.8,2.4,1.3,3.5
	c0.6,1.1,1.4,2.1,2.4,3.1c1.2,1.1,2.7,2,4.4,2.6c1.7,0.7,3.4,1,5.2,1c1.8,0,3.5-0.4,5.2-1.1c1.7-0.7,3.2-1.9,4.5-3.5
	c0.9-1,1.8-2.3,2.7-3.8c0.9-1.4,1.7-2.8,2.5-4.2c0.1,1.8,0.3,3.6,0.5,5.4c0.2,1.1,0.5,2.3,0.9,3.5c0.5,1.2,1,2.3,1.6,3.3
	c0.9,1.5,2.1,2.6,3.5,3.3c1.4,0.8,2.8,1.2,4.3,1.4c1.5,0.2,2.9,0.1,4.4-0.2c1.4-0.3,2.7-0.8,3.7-1.6c1.1-0.8,2.3-1.9,3.6-3.4
	c1.3-1.5,2.3-2.8,3-3.9c0.4-0.6,0.8-1.2,1.1-1.9c0.3-0.7,0.7-1.3,1.1-1.9c0.5,4.4,1.5,7.9,3.1,10.7c1.6,2.8,3.9,4.6,6.8,5.4
	c2,0.7,4.3,0.5,6.8-0.3c2.5-0.9,4.6-2.5,6.3-5c1.7-2.5,3.3-5.2,4.7-7.9c0.4-0.8,0.8-1.6,1.2-2.3c0.2,0.5,0.4,0.9,0.6,1.4
	c0.6,1.1,1.4,2.1,2.4,3.1c1.2,1.1,2.7,2,4.4,2.6c1.7,0.7,3.4,1,5.2,1c1.8,0,3.5-0.4,5.2-1.1c1.7-0.7,3.2-1.9,4.5-3.5
	c0.9-1,1.8-2.3,2.7-3.8c1-1.5,1.9-3.1,2.9-4.7c0.9-1.6,1.8-3.1,2.5-4.6c0.7-1.5,1.3-2.6,1.7-3.4c0.1-0.3,0.2-0.6,0.4-1
	c0.1-0.2,0.2-0.4,0.2-0.5c0.7,0.1,1.4,0.1,2.1,0.1c0.9-0.1,1.8-0.2,2.6-0.3c0.5,0,0.9-0.1,1.3-0.2c0.4-0.1,0.9-0.2,1.3-0.3
	c0.5,0.8,0.7,1.6,0.6,2.5c0,0.9-0.2,1.7-0.4,2.5c-0.6,2-1.2,3.8-1.8,5.3c-0.6,1.5-1.1,3.3-1.7,5.3c-0.3,1.2-0.6,2.5-0.8,3.7
	c-0.2,1.2-0.3,2.4-0.3,3.7c0,2,0.5,3.6,1.4,4.8c0.9,1.2,2.4,2,4.5,2.4c1.2,0.3,2.3,0.3,3.4,0.2c1.1-0.2,2.1-0.5,3-0.8
	c1.9-0.8,3.5-1.9,4.9-3.3c1.4-1.4,2.7-2.9,3.8-4.4c0.8-1.1,1.5-2.1,2.2-3c0.7-0.9,1.3-1.8,1.8-2.7c0.5-0.9,1.1-1.9,1.6-2.8
	c0.5-1,1-2.1,1.6-3.3c0.4-1,0.8-2.3,1.3-3.7c0.5-1.5,0.9-2.7,1.2-3.8c0.2-0.9,0.3-1.9,0.3-2.7s-0.4-1.4-1.2-1.5
	c-1.2-0.1-2,0.3-2.4,1.2c-0.4,0.9-0.8,2-1.2,3.1c-0.9,2.5-1.7,4.7-2.4,6.6c-0.8,1.9-1.8,4-3.1,6.3c-0.9,1.4-1.8,2.8-2.9,4.3
	s-2.2,2.8-3.3,4c-0.5,0.6-1.3,1.2-2.3,1.9c-1,0.7-1.8,1.1-2.6,1.3c-0.2-0.4-0.3-1-0.3-1.8c0-0.8,0.1-1.6,0.3-2.2
	c0.2-0.7,0.5-1.4,0.7-2.1c0.2-0.7,0.5-1.4,0.7-2.2c0.5-1.5,0.9-2.8,1.3-3.9c0.4-1.2,0.9-2.5,1.3-3.9c0.4-1.3,0.7-2.5,1-3.7
	c0.3-1.2,0.3-2.4,0.2-3.8c-0.3-2.9-1.9-4.9-4.8-6c-1.2-0.5-2.3-0.7-3.1-0.7c-0.9,0-1.9,0.1-3.3,0.3c-0.4,0-0.8,0-1.1,0.1
	c-0.3,0-0.7,0.1-1.1,0.1c0.2-0.4,0.3-0.7,0.3-0.9c0.1-0.3,0.2-0.5,0.3-0.8c0.3-0.9,0.6-1.6,0.8-2.2c0.2-0.6,0.4-1.2,0.5-1.8
	c0.2-0.6,0.3-1.2,0.3-1.8c0-0.6,0-1.4-0.1-2.3c-0.2-1.5-0.7-2.7-1.6-3.9c-0.9-1.1-1.9-1.8-3.1-1.9c-1.6-0.1-2.8,0.1-3.8,0.6
	c-1,0.5-1.9,1.4-2.9,2.6c-0.9,1.2-1.7,2.6-2.2,4.1c-0.5,1.5-0.7,3.2-0.6,5.1c0.2,2,0.8,3.8,1.9,5.1c0.6,0.8,1.4,1.4,2.4,1.8
	c-2.4,5.2-4.7,9.4-7,12.5c-2.3,3.2-4.2,5.4-5.6,6.4c-0.8,0.5-1.6,0.9-2.4,1.1c-0.8,0.2-1.6,0.1-2.3-0.4c-1.3-0.9-2.3-2.1-2.9-3.6
	c-0.8-1.7-1.2-3.3-1.4-5c-0.2-1.6-0.1-3.3,0.1-5.1c0.1-0.4,0.1-0.9,0.2-1.3c0-0.4,0.1-0.9,0.3-1.3h2.3c2.1-0.1,3.8-0.7,5.1-1.7
	c1.3-1,2.3-2.3,3-4c1.1-2.8,1.4-5.4,0.8-8c-0.2-1-0.6-1.8-1.2-2.2c-0.6-0.5-1.5-0.7-2.6-0.8c-3.2-0.2-6.1,0.7-8.6,2.7
	c-0.9,0.7-1.6,1.4-2.3,2.2c-0.7,0.8-1.3,1.6-1.9,2.4c-2,3.1-3.4,6.2-4.2,9.3c-0.6,2.3-0.7,4.7-0.4,7.2c-0.4,0.8-0.7,1.5-1.1,2.2
	c-2,3.9-3.5,6.7-4.6,8.5c-0.6,1-1.4,2.1-2.4,3.3c-1,1.2-1.9,2.1-2.9,2.8c-0.9,0.6-1.7,0.7-2.4,0.5c-0.7-0.3-1.3-0.7-1.8-1.5
	c-0.5-0.7-0.9-1.5-1.2-2.4c-0.3-0.9-0.5-1.6-0.6-2.2c-0.4-1.7-0.6-3.4-0.6-5.2c0-1.8,0.1-3.6,0.2-5.4c0.4-4.1,0.9-8.1,1.7-12.1
	c0.7-4,1.6-7.9,2.6-11.9c0.8-3.3,1.7-6.6,2.8-9.8c0.7,0.1,1.4,0.3,2.1,0.4c0.7,0.1,1.4,0.3,2.1,0.4c3.4,0.7,6.8,1.1,10.2,1.2
	c3.4,0.1,6.8-0.1,10.3-0.7c3.9-0.6,7.3-2,10.4-4.1c2.1-1.4,3.6-3.3,4.5-5.9c0.9-2.5,0.6-4.8-0.8-6.8c-2.3-2.9-5.2-4.6-8.7-4.9
	c-0.2,0-0.4,0-0.6,0c-0.3,0-0.5,0.1-0.6,0.2c-0.4,0.1-0.6,0.4-0.7,0.7c0,0.5,0.2,0.9,0.6,1.1c0.7,0.4,1.4,0.7,2,0.9
	c1.8,0.6,2.7,1.8,2.7,3.7c0.1,0.9,0,1.8-0.3,2.6c-0.3,0.8-0.7,1.5-1.3,2.2c-1.1,1.5-2.3,2.6-3.8,3.5c-1.4,0.9-3,1.6-4.6,2.1
	c-2.4,0.7-4.8,1.1-7.2,1.2c-2.4,0.1-4.8,0-7.2-0.2c-1.3-0.1-2.6-0.3-3.9-0.5c-1.3-0.2-2.6-0.4-3.9-0.6c0.5-1.4,0.9-2.7,1.4-4
	s0.9-2.7,1.4-4c0.5-1.3,0.9-2.7,1.2-4c0.3-1.4,0.7-2.8,1.1-4.2c0.2-0.6,0.2-1,0.1-1.2c-0.1-0.2-0.4-0.4-1-0.5
	c-1.3-0.4-2.5-0.1-3.6,0.7c-0.6,0.6-1.2,1.2-1.9,1.7c-0.6,0.6-1.2,1.2-1.6,1.9c-1.3,1.8-2.6,3.7-3.7,5.5c-1.2,1.9-2.2,3.8-3,5.8
	c-0.3-0.1-0.7-0.2-1.2-0.3c-2.6-0.7-5.1-1.5-7.6-2.3c-2.5-0.8-5-1.7-7.5-2.7c0.2-0.4,0.3-0.7,0.4-1.1c0.1-0.4,0.3-0.7,0.4-1.1
	c0.3-0.7,0.6-1.3,0.9-2c0.3-0.7,0.5-1.4,0.6-2.1c0.2-0.7,0.3-1.2,0.1-1.5c-0.2-0.3-0.7-0.5-1.5-0.8c-1.8-0.4-3.3-0.1-4.4,1
	c-0.6,0.6-1.3,1.3-2,2.2s-1.4,1.8-2,2.7c-4.2-1.7-8.4-2.9-12.6-3.8c-4.2-0.8-8.6-1-13.1-0.5c-1.6,0.1-3,0.4-4.5,0.7
	c-1.4,0.3-2.9,0.8-4.2,1.5c-1.9,0.9-3.3,2.2-4.4,3.7c-1,1.5-1.3,3.1-0.8,4.9c0.5,1.8,1.6,3.3,3.3,4.4c1.6,1.1,3.3,1.5,5,1.1
	c0.5,0,0.9-0.2,1.2-0.5c0.2-0.7,0-1.1-0.6-1.3c-0.6-0.2-1.1-0.3-1.5-0.4c-0.5-0.1-0.9-0.3-1.2-0.6c-0.3-0.3-0.5-0.7-0.6-1.1
	c-0.7-1.9-0.4-3.5,0.8-4.8c0.9-0.9,1.8-1.6,2.7-2.1c1-0.5,2-0.9,3.1-1.2c2-0.4,4.1-0.7,6.1-0.8c2.1-0.1,4.1,0,6.2,0.2
	c2.3,0.3,4.5,0.8,6.7,1.4c2.2,0.7,4.4,1.4,6.6,2.2c-2,3.5-3.6,7.1-4.8,10.7c-0.7,2.2-1.4,4.2-2,6.1c-0.6,1.9-1.2,3.8-1.9,6
	c-1.4,5.1-2.1,10.1-2.3,15.2c-1.6,3.2-3.2,5.9-4.8,8c-2.3,3.2-4.2,5.4-5.6,6.4c-0.8,0.5-1.6,0.9-2.4,1.1c-0.8,0.2-1.6,0.1-2.3-0.4
	c-1.3-0.9-2.3-2.1-2.9-3.6c-0.8-1.7-1.2-3.3-1.4-5c-0.2-1.6-0.1-3.3,0.1-5.1C166.4,199.3,166.4,198.8,166.4,198.4z M169.4,189.4
	c0.9-1.7,2.1-3.5,3.4-5.2c0.5,1.2,0.7,2.4,0.6,3.6c-0.2,0.9-0.4,1.9-0.6,2.8c-0.3,0.9-0.7,1.8-1.3,2.6c-0.5,0.7-1,1.2-1.6,1.5
	c-0.6,0.4-1.5,0.5-2.6,0.3C167.7,193,168.5,191.2,169.4,189.4z M273.7,182.6c0.3-1.7,1-3.2,2.2-4.3c0.5,0.7,0.7,1.4,0.8,2.3
	c0.1,0.9,0,1.8-0.1,2.8c-0.2,0.9-0.4,1.8-0.8,2.7c-0.3,0.8-0.8,1.5-1.2,2C273.7,186.2,273.4,184.3,273.7,182.6z M253.5,189.4
	c0.9-1.7,2.1-3.5,3.4-5.2c0.5,1.2,0.7,2.4,0.6,3.6c-0.2,0.9-0.4,1.9-0.6,2.8c-0.3,0.9-0.7,1.8-1.3,2.6c-0.5,0.7-1,1.2-1.6,1.5
	c-0.6,0.4-1.5,0.5-2.6,0.3C251.8,193,252.6,191.2,253.5,189.4z M195.7,202.2c0.2-4.2,0.6-8.4,1.3-12.5c0.7-4.1,1.6-8.2,2.7-12.3
	c0.6-2.4,1.3-4.8,2.2-7.1c0.8-2.3,1.6-4.7,2.5-7c2.7,1,5.4,2,8.1,2.8c2.7,0.9,5.4,1.7,8.1,2.5c-0.1,0.1-0.1,0.3-0.1,0.3
	s0,0.2-0.1,0.3c-3.6,9.8-6,19.9-7,30.3c-0.9,1.9-1.9,3.9-3,6c-1,2.1-2,3.7-2.9,5c-0.4,0.5-0.8,1.1-1.3,1.8c-0.5,0.7-1,1.4-1.6,2
	s-1.1,1.3-1.7,1.8c-0.5,0.5-1,0.9-1.4,1.1c-0.7,0.4-1.3,0.5-1.9,0.4c-0.6-0.1-1.1-0.3-1.5-0.5c-0.4-0.3-0.7-0.6-1-1
	c-0.3-0.4-0.5-0.7-0.6-1c-0.6-2.1-1-4.2-1-6.4C195.5,206.6,195.6,204.4,195.7,202.2z M188.8,261.8c-1.5,5.2-2.8,10.4-4.1,15.5
	c-1.3,5.2-1.4,9.7-0.4,13.4c0.3,1.1,0.9,2.1,1.8,3.1c0.9,1,2,1.7,3.2,2.1c0.6,0.2,1.1,0.3,1.7,0.3c0.8,0,1.7-0.2,2.6-0.5
	c1.5-0.5,3.1-1.7,4.6-3.6c2.3-2.8,4.6-6.2,7-10c2.4-3.9,4.5-7.7,6.4-11.3c0.6-1.2,1.2-2.3,1.7-3.3c0.1,3.7,0.8,7.2,2,10.7
	c1.3,3.9,3.3,7.1,5.7,9.4c2.3,2.1,4.7,3.3,7.3,3.6c0.5,0,1,0.1,1.4,0.1c2,0,4-0.4,5.9-1.3c2.3-1,4.4-2.5,6.3-4.5
	c1.8-1.8,3.4-3.9,4.6-6.2c2.2-0.8,4.3-2.1,6.3-3.7c2-1.7,3.9-3.6,5.5-5.6c1.6-2.1,3.1-4.2,4.4-6.5c1.3-2.2,2.4-4.4,3.3-6.3
	c0.2-0.3,0.2-0.7,0.1-1c-0.2-0.4-0.5-0.7-1-0.9c-0.8-0.3-1.6-0.2-2.1,0.3l-0.2,0.3c-0.9,1.8-1.9,3.6-3,5.5c-1.1,1.9-2.3,3.8-3.7,5.7
	c-1.4,1.9-2.9,3.6-4.5,5.1c-0.8,0.7-1.6,1.4-2.4,2c1-2.6,1.6-5.3,2-8.2c0.5-4,0.4-7.9-0.3-11.8c-0.7-3.9-2-7.6-4-11
	c-2-3.5-4.6-6.4-7.8-8.8c-2.5-1.9-4.9-2.8-7.2-2.9l-0.3,0c-2.2,0-4.1,0.7-5.7,2c-1.6,1.3-2.9,3.1-3.7,5.4c-0.8,2.1-1.2,4.4-1.1,6.9
	c-2.7,2.2-4.7,5.1-5.9,8.8c-0.1,0.4-0.2,0.7-0.3,1.1c-0.4,0.8-1.1,2.2-2.2,4.4c-1.3,2.7-2.9,5.8-4.8,9.4c-1.9,3.6-4,7.3-6.3,11
	c-2.3,3.7-4.5,7-6.7,9.7c-1.4,1.8-2.1,1.8-2.2,1.8c-0.5-0.1-0.8-0.7-1-1.5c-0.7-3-0.3-6.7,0.9-11.1c1.3-4.6,2.8-9.4,4.3-14.3
	c1.5-5,2.8-9.9,3.8-14.7c1-4.9,0.9-9.3-0.5-13.1c-1.4-3.4-3.9-5.8-7.4-6.9c-3.5-1.1-7-1-10.4,0.4c-3.4,1.3-6.4,3.6-8.7,7.1
	c-2.3,3.3-4.2,7.1-5.9,11.1c-1.6,4-2.9,8.1-3.9,12.2c-0.3,1.4-0.6,2.7-0.9,4c-0.5-3.8-1-7.5-1.5-11.2c-0.8-5.8-1.6-11.7-2.5-17.8
	c-0.1-0.4-0.6-1.4-2.5-1.2c-0.8,0.1-1.6,0.3-2.5,0.6c-0.9,0.3-1.7,0.7-2.3,1.1c-0.7,0.4-1.5,1-1.4,2.1c1.5,8.8,2.8,17.7,3.9,26.4
	c1,8.7,2.3,17.3,3.7,25.5c0.3,1.8,1.7,1.9,2.1,1.9c0.2,0,0.3,0,0.5-0.1c0.9-0.2,1.7-0.5,2.7-1.2c0.8-0.6,1.5-1.1,2.1-1.7
	c0.8-0.8,1.2-1.4,1.2-2.1c-0.3-1.8-0.6-3.7-0.8-5.6l-0.8-5.4c0.1-2.4,0.7-5.9,1.7-10.3c1-4.4,2.4-8.8,4.1-13.3
	c1.8-4.4,3.9-8.5,6.2-12.1c2.2-3.4,4.7-5.7,7.2-6.6c2.8-1,4.8-0.3,6.4,2.3c1.8,2.8,2.4,6.4,1.7,10.9
	C191.3,251.7,190.2,256.6,188.8,261.8z M237,236.7c3,2.2,5.4,5,7.2,8.2c1.8,3.3,3,6.8,3.5,10.5c0.5,3.7,0.5,7.5-0.1,11.2
	c-0.6,3.5-1.6,6.7-3.1,9.6c-2.9-0.1-5.2-1.2-7.1-3.2c-2.1-2.3-3.7-5-4.8-8.1c-1.2-3.2-2-6.5-2.5-9.9c-0.5-3.2-0.8-5.9-0.9-7.9
	c1.5-0.9,3-1.5,4.6-1.8c1.8-0.3,3.5-0.4,5.7-0.2c1,0,1.7-0.6,1.8-1.5c0.1-0.6-0.2-1-0.4-1.2c-0.3-0.4-0.8-0.5-1.3-0.5
	c-1.4-0.2-3.4-0.3-5.9-0.3c-1.8,0-3.3,0.1-4.5,0.3c0.1-1,0.3-2,0.5-3c0.3-1.3,0.7-2.3,1.3-3c0.5-0.6,1.2-0.9,2.1-0.9
	C233.8,234.9,235,235.2,237,236.7z M230.7,286.8c-1.4-0.1-2.7-0.9-4-2.4c-1.4-1.6-2.5-3.8-3.2-6.5c-0.8-2.8-1.3-5.7-1.6-8.7
	c-0.3-3-0.3-5.9,0.1-8.8c0.2-1.4,0.4-2.6,0.7-3.8c0.4,1.5,0.9,3.2,1.5,4.8c1.1,3.1,2.5,6,4.3,8.7c1.8,2.8,4,5.1,6.5,7
	c2.1,1.6,4.6,2.5,7.3,2.8c-0.7,0.9-1.5,1.8-2.5,2.8c-1.4,1.4-2.9,2.5-4.5,3.2C233.7,286.6,232.2,286.9,230.7,286.8z M268.3,232.1
	c-4.7,0.4-9.2,0.7-13.4,0.9c-4.6,0.2-8.2,0.1-10.8-0.3c-1.6-0.2-3.9-0.7-4.3-2.2c-0.4-1.5,1.5-2.9,2.9-3.8c0.9-0.5,1.8-0.9,2.8-1.3
	c1-0.4,2.2-0.9,3.5-1.4c0.1-0.1,0.4-0.2,0.7-0.2c0.3,0,0.9,0.1,1.3,0.8c0.3,0.5,0.3,0.9,0.2,1.1c-0.1,0.4-0.4,0.7-0.9,0.9
	c-1.5,0.6-2.7,1-3.6,1.5l-2.5,1.2c-0.4,0.2-0.7,0.4-0.9,0.5c0.2,0.1,0.6,0.1,1.1,0.2c2.2,0.4,5.5,0.5,10,0.3c4.3-0.2,9-0.5,13.9-1
	c-0.1-2.9-0.1-5.7-0.1-8.3c0-3-0.1-5.7-0.2-8.2c0-0.5,0.3-1,0.9-1.4l0.2-0.1c0.7-0.2,1.3-0.4,2-0.7c0.7-0.3,1.3-0.5,2-0.8
	c0.4-0.1,0.6-0.2,0.8-0.2c0.7,0,1.5,0.4,1.5,1.5c0,2.7,0,5.6,0.1,8.6c0,2.8,0.1,5.8,0.1,8.8c2.1-0.2,4.6-0.5,7.4-0.8
	c3.3-0.4,6.7-0.7,10.1-0.9c3.4-0.2,6.8-0.3,10-0.2c3.3,0.1,6,0.5,8,1.3c1.7,0.6,3.1,1.4,4.2,2.6c1.2,1.3,1.4,3.1,0.5,5.1
	c-0.4,0.8-1.1,0.9-1.4,0.9c-0.3,0-0.5-0.1-0.8-0.2c-0.5-0.3-0.7-0.7-0.8-0.9c-0.1-0.2-0.1-0.6,0.2-1c0.5-1.3,0.1-1.9-0.2-2.2
	c-0.7-0.7-1.7-1.3-2.8-1.8c-1.8-0.7-4.3-1-7.2-1.1c-3,0-6.3,0-9.7,0.2c-3.4,0.2-6.7,0.5-9.9,0.9c-2.8,0.4-5.3,0.6-7.4,0.9
	c0,1,0,2.6,0.1,4.7c0.1,2.8,0.2,6.2,0.3,10c0.2,3.9,0.4,8,0.6,12.3c0.2,4.3,0.5,8.4,0.7,12.4c0.3,3.9,0.5,7.4,0.8,10.3
	c0.3,3.6,0.7,5.1,1,5.8c0.2,0.6,0.4,0.9,0.6,0.9c0.4,0,0.9-0.2,1.5-0.6c1.5-1.1,3.1-2.7,4.5-4.9c1.5-2.2,2.9-4.7,4.2-7.3
	c1.3-2.7,2.6-5.2,3.7-7.7c1.2-2.5,2.1-4.7,2.9-6.4c0.2-0.7,1.1-1,2-0.6c1.3,0.7,0.9,1.6,0.8,1.7l-2.9,6.5c-1.2,2.6-2.4,5.3-3.8,7.9
	c-1.4,2.6-2.9,5.2-4.5,7.5c-1.6,2.4-3.3,4.3-5.1,5.5c-1.7,1.2-3.1,1.7-4.4,1.7c-0.3,0-0.6,0-0.9-0.1c-1.4-0.3-2.7-1.2-3.7-2.8
	c-0.9-1.3-1.6-3.5-2.2-6.6c-0.6-3-1.2-6.4-1.6-10.3c-0.5-3.8-0.8-7.9-1.1-12.2c-0.3-4.3-0.5-8.4-0.7-12.2c-0.2-3.8-0.3-7.2-0.3-10.1
	C268.4,235,268.3,233.3,268.3,232.1z M178.5,126.5c-0.1,4,0.4,7.6,1.7,10.6c7,16.2,23.9,10.5,42.9-21.6
	c-4.1,41.5,18.4,39.8,33.8,10.8c0.8,7.1,2.3,13.1,4.5,17.1c9.4,17.6,31.7-0.9,39.2-22.3c2.6-7.4-1.7-8.8-5.5,0
	c-5.7,13.5-16.2,26.4-20.2,17.7c-4.7-10.5-1.1-48.4,4.2-83.2c10.4-4.6,27.7-11.4,36.9-8.1c4,1.4-0.6,4.5,2.7,5.4
	c6.6,2.1,14-7.3,4.1-11.4c-10.1-4.8-33.5,5.3-42.9,8.9c1.5-8.7,3.1-20.3,2.1-27.1c-0.6-3.8-4.2-4.7-7.1,1.2
	c-3.7,8.3-9,22.6-11.5,31.4c-8.9,4.3-14.4,4.2-13.6,0c0.6-3.5,0.1-6.8-2.9-5.5c-7.4,3.5-6.4,12.4,2.4,13c4,0.4,7.4-0.6,12.5-2.5
	l-0.6,2.7c-3.7,15.1-6,38-4.9,56.2c-10,17.4-19.6,22.2-18.7-1.5c0-9.5,1-18.8,2-28.1c0.4-3.6,0.6-7.4,0.7-11c0-1.9-1.2-2.9-3.2-2.8
	c-1.5,0.1-2.7,0.7-3.4,2c-1,1.9-1.9,3.9-2.6,5.9c-1.6,4.2-3.1,8.6-4.6,12.9c-0.6,1.6-1.2,3.3-2.1,4.7
	c-18.4,33.2-35.7,48.9-28.7,14.8c2-11.7,7.7-25.5,15.1-31.8c7.2-6.2,14.4-5.3,12.9,4.2c-0.5,2.3,2.9,2.3,3.5,0.1
	c2.4-12.7-14-15.4-25.6-6.3c-9.8,7.9-17.4,20.2-20.8,31.8c-14.3,26.6-38,43.1-40.6,4.2c11.1-2.5,27.5-14.5,28.2-30.2
	c0.6-8.1-6.2-13.5-14.6-11.6c-19.2,5.4-31.6,31.6-27.5,52C133.8,157.1,162.9,154.4,178.5,126.5z M149.8,86.9
	c8.7-11.5,13.2,1.9,6.6,13.8c-2.9,5.2-8.5,11.5-15.5,12.8C140.9,101.4,144.7,93.1,149.8,86.9z M332.4,286.1c2.3,2.7,6.1,2,7.5-1.2
	c0.8-1.9,0.1-3.4-1.1-4.9c-10.8-13.3-21.5-26.5-32.3-39.8c-0.7-0.8-1.7-1.3-2.6-2c-0.1,1.2-0.7,2.4-0.3,3.5
	c2.6,7.3,5.1,14.7,8.1,21.9c2.2,5.3,3.9,5.6,9.3,2.7c2.5,4.7,4.9,9.3,7.4,13.8C329.7,282.1,330.9,284.2,332.4,286.1z M319.7,264.7
	c-0.9,0.7-2,1.2-2.9,1.7c-2.8-2.3-8.3-14.8-10.7-23.8c0.6,0.6,0.9,0.9,1.2,1.3c10,12.4,20,24.8,29.9,37.3c0.3,0.3,0.5,0.6,0.7,1
	c0.8,1.4,0.2,2.4-0.9,3.3c-1.2,0.9-2.4,0.4-3.1-0.6c-1.3-1.8-2.5-3.8-3.6-5.7c-2.5-4.5-5-9.1-7.5-13.6
	C322,263.9,321.1,263.7,319.7,264.7z M338.3,250.9c1.4-1.4,2.7-2.7,4-4c1.2-1.2,2.6-2.3,3.7-3.5c0.3-0.3,0.1-1,0.2-1.5
	c-0.5,0-1.1,0-1.5,0.2c-0.5,0.3-0.9,0.8-1.4,1.2c-2.2,2-4.4,4-6.7,6.1c-0.7-0.6-1.2-1.1-1.3-1.2c2.7-2.8,5.3-5.3,7.8-8
	c0.4-0.4,0.4-1.2,0.7-1.8c-0.7,0.2-1.6,0.1-2.1,0.5c-3.1,2.7-6.2,5.5-9.2,8.3c-2.5,2.3-2.8,4.7-1.2,7.5c0.4,0.6,0.8,1.2,1.2,1.9
	c-1.8,1.6-3.6,3.2-5.3,4.9c-0.4,0.4-0.3,1.1-0.4,1.7c0.6-0.1,1.4,0,1.8-0.3c1.7-1.6,3.4-3.3,5-5c4.3,2.1,6.9,2.5,8.9,0.8
	c3.6-3,6.9-6.3,10.3-9.5c0.3-0.3,0.1-0.9,0.2-1.4c-0.5,0-1.2,0-1.6,0.2c-0.5,0.2-0.8,0.7-1.2,1.1c-2.2,2.2-4.4,4.3-6.6,6.4
	c-1-0.7-1.6-1.1-2-1.4c2.5-2.5,4.8-4.7,7-7c0.5-0.5,0.5-1.4,0.7-2.1c-0.7,0.2-1.6,0.3-2.1,0.7c-2.5,2.1-4.8,4.3-7.4,6.7
	C339.2,251.8,338.7,251.4,338.3,250.9z M335.1,256.3c-2.7-2.2-3.3-4.8-1.8-6.8c2.7,2.5,5.4,5,8.1,7.5
	C339.8,258.3,337.3,258.1,335.1,256.3z M300.1,284.6c-1-1.9-0.5-3.7,1.1-5c4.1-3.4,8.4-6.8,12.7-10.1c0.4-0.3,1.2-0.1,1.8-0.1
	c-0.2,0.5-0.3,1.3-0.7,1.6c-3.6,2.9-7.2,5.6-10.8,8.5c-0.4,0.3-0.8,0.7-1.2,1.1c-1.5,1.5-1.6,2.8-0.3,4c1.3,1.1,3.1,1.2,4.5-0.1
	c2.7-2.5,5.3-5.1,7.9-7.7c1.8-1.8,3.5-3.7,5.4-5.5c0.4-0.4,1.2-0.3,1.8-0.4c-0.1,0.6,0,1.3-0.4,1.7c-4.5,4.5-8.9,9.1-13.5,13.5
	c-0.8,0.8-2.1,1.1-2.7,1.4C302.7,287.3,301,286.4,300.1,284.6z M145.9,70.4c28.5-1.9,57-3.9,85.6-5.8c3-0.2,4.4-1.2,4.6-4
	c0.7-8.1,1.9-16.1,2.4-24.2c0.1-2.5-0.9-5.5-2.5-7.5c-10.4-12.3-24.2-19.2-40.7-21.2c-2.3-0.3-5.1,0.4-7.1,1.6
	c-7,4.2-13.6,8.9-20.5,13.2c-2.9,1.8-4.6,3.4-0.1,7.1c-3.1,0.3-5,0.5-6.8,0.5c-1.4,0.1-3.2-0.6-4.2,0c-6.7,3.8-13.7,7.3-13.1,16.4
	c0.2,2.3-0.3,4.3,2.9,4.9c0.7,0.1,1.6,1.5,1.5,2.3c0,0.8-1.1,2.2-1.7,2.2c-4,0-4,2.5-4.2,5.1c-0.1,1.8-0.4,3.6-0.5,5.5
	C141.3,69.8,142.2,70.7,145.9,70.4z M161.7,32.9c1.6,0.5,3.9-0.2,5.6-1c2.6-1.2,2.8-2.8,1.2-6.5c7.6-4.9,15.2-10,22.9-14.9
	c0.6-0.4,1.6-0.4,2.4-0.4c14.3,0.7,31.7,9.7,40.4,21.3c-9,0.6-17.4,1.1-25.9,1.6c-0.9,0.1-1.8-0.5-2.8-0.6c-2.4-0.2-5.3-1.3-7-0.4
	c-5.4,3-11.3,2.2-17,2.7c-9.8,0.8-19.6,1.3-30.4,2C155,34.4,157.2,31.6,161.7,32.9z M206.2,38.1c-0.3,2.7-2.3,3.5-4.9,3.6
	c-2.5-0.6-4.2-1.9-4-4.5c0.2-2.9,2.6-3,4.8-2.9C204.4,34.5,206.5,35.4,206.2,38.1z M145.4,59.1c0.4-0.1,1.3-0.2,1.7-0.6
	c1.4-1.4,3.5-2.9,3.7-4.5c0.2-1.6-1.2-4-2.7-5c-3.3-2.2-0.9-4.8-0.9-7.1c0-0.7,2-2,3.2-2.1c14.4-1.1,28.8-2.1,43.5-3
	c1.4,5.3,4.2,7.9,8.2,7.7c4.5-0.2,6.8-2.8,7.4-8.6c8.6-0.6,17.2-1.1,26.2-1.7c-1,9.3-1.9,18.3-2.8,27.6c-29.5,2-58.8,4-88.3,6
	C144.9,64.8,145.1,62.1,145.4,59.1z M171.4,40.6c-4.2-0.3-8.4,2.8-8.8,6.7c-0.4,3.9,3.3,8,7.5,8.2c4.4,0.2,8.1-2.8,8.5-6.9
	C179,44.6,175.7,40.9,171.4,40.6z M175.6,48.5c-0.5,2.5-2.3,3.9-5.2,3.7c-2.8-0.2-4.9-2.3-4.5-4.7c0.5-2.6,2.2-3.9,4.2-3.8
	C173.9,44,176.1,46.2,175.6,48.5z M189.1,28.7c3.8,0.4,7.6-1.9,7.9-4.7c0.3-2.8-2.6-5.4-6.4-5.9c-3.9-0.5-7.5,1.5-7.9,4.5
	C182.3,25.6,185.2,28.3,189.1,28.7z M189.8,21.4c1.3,0.1,2.6,1.4,3.9,2.2c-1.2,0.9-2.4,1.7-3.9,2.9c-1.6-1.4-2.8-2.3-3.9-3.3
	C187.1,22.5,188.5,21.3,189.8,21.4z M333.5,64.6c8.3,29.7-8.9,63.6-21.4,88.4c-7.9,15.5-14.1,27.8-12.4,34.6c0,0.2,0,0.4-0.2,0.5
	c-0.1,0-0.1,0.1-0.2,0.1c-0.3,0.1-0.6-0.1-0.6-0.4c-1.8-7.1,4.5-19.6,12.5-35.3c12.5-24.6,29.6-58.4,21.4-87.7
	c-0.1-0.3,0.1-0.5,0.4-0.6C333.1,64.2,333.4,64.3,333.5,64.6z M328,68.2c-1.3-1.4-2.1-3-2.8-5.1c0-0.1,0-0.3,0.1-0.4
	c0.1-0.1,0.2-0.2,0.4-0.2c2-0.1,4.6,2.4,5.4,3.2c1,1,1.2,2.1,1.4,3.1c0.1,0.3,0.1,0.6,0.2,0.9c0.3,0.1,0.4,0.4,0.3,0.6
	c0,0.1-0.1,0.2-0.1,0.3c0,0.1-0.1,0.2-0.2,0.3c-0.1,0.1-0.2,0.1-0.3,0.1c-0.1,0-0.2,0-0.3-0.1c-1.5,0.1-3.1-1.7-4-2.7L328,68.2z
	 M336.3,69.9c0.1-0.3,0.1-0.7,0.1-1c0.1-1,0.2-1.9,0.6-2.8c0.3-0.9,0.9-1.5,1.5-2.1c0.2-0.3,0.5-0.5,0.7-0.8
	c0.1-0.2,0.2-0.4,0.4-0.6c0.3-0.5,0.6-1,1.1-1.3c0.2-0.1,0.4-0.1,0.6,0c1.9,1.5,1.3,4.3,0.4,5.9c-0.4,0.6-0.8,1.1-1.3,1.5
	c-0.5,0.4-1.1,0.7-1.7,1c-0.4,0.2-0.7,0.4-1.1,0.6c-0.1,0.1-0.3,0.1-0.5,0c0,0,0,0,0,0c-0.1,0-0.2,0.1-0.3,0
	C336.4,70.4,336.2,70.2,336.3,69.9z M325.2,71.9c0.2-0.3,0.5-0.6,1.4-0.6c2.2,0.1,5.5,3,6.3,4.5c0.4,0.8,0.6,1.6,0.7,2.5
	c0.1,0.3,0.1,0.6,0.2,0.8c0.2,0.1,0.3,0.2,0.3,0.4c0,0.2,0,0.4-0.1,0.6c0,0.1-0.1,0.1-0.2,0.2c-0.1,0.1-0.2,0.1-0.4,0.1
	c-0.1,0-0.2,0-0.3-0.1c-2.6-0.2-4.4-2.3-5.6-3.8l-0.2-0.2C325.7,74.4,324.7,72.8,325.2,71.9z M336.7,85.2c-1.6-1.6,1.5-6.1,1.5-6.1
	c0.9-1.2,2.1-2.2,3.2-3.1c1.2-1,2.4-1.9,3.2-3.2c0.1-0.2,0.3-0.2,0.4-0.2c0.2,0,0.4,0.1,0.5,0.2c1.8,2.8,0.7,7.6-1.4,9.8
	c-0.2,0.2-0.5,0.4-0.8,0.7c-1.5,1.2-4.1,2.6-6,1.9C337.2,85.3,336.9,85.3,336.7,85.2z M322.5,79.7c1,0.9,2.2,1.4,3.5,2
	c1.6,0.7,3.2,1.4,4.4,2.8c0.8,1,1.5,2.4,1.9,3.4c0.1,0.3,0.2,0.7,0.2,1c0,0.3,0.1,0.9,0.2,1c0.3,0.1,0.4,0.4,0.2,0.6
	c0,0.1-0.1,0.1-0.1,0.2c-0.1,0-0.1,0.1-0.2,0.1c-0.1,0.1-0.2,0.1-0.4,0.1c-1.4,0-3.1-1.1-5.4-3.2c-2.1-1.9-4.1-4.8-5.3-7.5
	c-0.1-0.2,0-0.5,0.2-0.6C322.1,79.5,322.3,79.5,322.5,79.7z M346.4,83.7c0.2,0,0.4,0.2,0.4,0.4c0.3,3.7-1.5,7.3-4.5,9.7
	c-1.4,1.1-3.1,1.9-4.9,2.3c-0.1,0.1-0.2,0.2-0.4,0.3c-0.3,0.1-0.6-0.1-0.6-0.4c-0.8-3.7,0.7-5.4,3.7-7.1c0.3-0.2,0.6-0.3,0.9-0.5
	c2.1-1.2,3.9-2.2,4.8-4.4C345.9,83.8,346.2,83.6,346.4,83.7z M330.3,93.7c0.8,0.9,1.9,3.3,1.3,4.7c0,0.1-0.1,0.2-0.2,0.2
	c-0.1,0.1-0.3,0.1-0.5,0.1c0,0-0.1,0-0.1,0c-0.3,0.2-0.6,0.2-0.9,0.2c-1.5,0-3.5-1.7-4-2.4c-0.3-0.5-0.6-0.9-0.9-1.4
	c-0.3-0.5-0.6-1-1-1.5c-0.2-0.2-0.4-0.4-0.5-0.6c-0.5-0.5-1-1.1-1.2-1.7c0-0.1,0-0.3,0.1-0.4c0.1-0.1,0.2-0.2,0.4-0.2
	C325.5,90.4,328.7,91.7,330.3,93.7z M333.1,107c-1.3-3.5,2.4-5.7,5.4-7.5c1.5-0.9,2.9-1.7,3.5-2.6c0.2-0.2,0.4-0.3,0.7-0.1
	c0.2,0.1,0.3,0.4,0.2,0.6c-0.3,0.6-0.5,1.3-0.6,1.9c-0.5,1.6-1,3.3-2.6,4.6c0,0-0.1,0.1-0.1,0.1l-0.4,0.3c-1.4,1-3.2,2.5-5.1,2.6
	c-0.1,0.1-0.2,0.2-0.3,0.3C333.5,107.4,333.2,107.2,333.1,107z M321,98.1c0.6,0.3,1.3,0.6,1.9,1c2.3,1.1,4.7,2.2,5.9,4.8
	c0.9,1.9,1.1,3.4,0.6,4.4c-0.1,0.3-0.4,0.6-0.6,0.8c-0.2,0.2-0.5,0.3-0.8,0.4c-0.2,0.1-0.4,0-0.5-0.1c-0.3,0.1-0.7,0.1-1,0
	c-1.8-0.5-2.8-3.4-2.8-3.5c-0.2-0.5-0.3-0.9-0.5-1.4c-0.6-2-1.3-4.1-2.8-5.6c-0.2-0.2-0.2-0.4,0-0.6C320.5,98,320.8,97.9,321,98.1z
	 M334,112.2c2.8-1.4,4.7-3.1,7-5.1c0.2-0.1,0.4-0.2,0.6-0.1c0.2,0.1,0.3,0.3,0.3,0.5c-0.3,3-1.9,6.9-4.6,9c-0.4,0.3-0.8,0.6-1.2,0.8
	c-1.7,0.9-3.6,0.9-5.4,0.2c0,0,0,0,0,0c-0.2,0-0.3-0.1-0.4-0.2c-0.1,0-0.2-0.1-0.3-0.1c-0.1-0.1-0.2-0.2-0.3-0.3
	c0-0.1,0-0.3,0.1-0.4c0,0,0.1-0.1,0.1-0.2c0.1-0.1,0.1-0.3,0.3-0.4c0,0,0,0,0.1,0C330.8,113.8,332.5,113,334,112.2z M318.7,107.3
	c2.7,0.9,5.7,2,6.5,4.9c0.8,2.7,0.6,4.9-0.6,6.4c0.1,0.1,0.1,0.2,0,0.4c0,0.1-0.1,0.2-0.2,0.2c-0.1,0.1-0.3,0.1-0.5,0.1
	c-1.9-0.6-2.6-2.7-3.1-4.3l-0.4-1.1c-0.7-2-1.4-4.2-2.8-5.8c-0.1-0.2-0.1-0.4,0-0.6c0.1-0.2,0.4-0.2,0.6-0.2L318.7,107.3z
	 M331,121.6c0.6,0,1.2,0,1.6-0.2c3-0.8,4.7-1.6,5.1-2.4c0.1-0.2,0.4-0.3,0.6-0.3c0.3,0.1,0.4,0.3,0.3,0.6c-0.4,1.5-1.6,3-3,4.1
	c-0.7,0.6-1.6,1.1-2.3,1.4c-1.6,0.8-3.5,0.5-5.4-0.8c-0.1,0.1-0.3,0.1-0.4,0c-0.3-0.1-0.4-0.4-0.3-0.6
	C327.8,121.8,329.6,121.7,331,121.6z M316.5,118.6c1.9,1.2,5.1,3.8,5.4,6.6c0.1,1.2-0.3,2.3-1.2,3.4c0,0.1-0.1,0.1-0.1,0.2
	c0,0,0,0,0,0c0,0,0,0-0.1,0c-0.1,0.1-0.2,0.1-0.3,0.1c-0.2,0.1-0.4,0.1-0.6,0c-1.1-0.3-1.9-2.5-3.1-7.1c-0.3-1.1-0.6-2.3-0.7-2.5
	c-0.1-0.2-0.1-0.5,0.1-0.6C316,118.5,316.3,118.5,316.5,118.6z M328,130.3l0.4,0c2.6-0.2,4.3-0.8,6.3-2.1c0.2-0.1,0.4-0.1,0.6,0
	c0.2,0.1,0.3,0.3,0.2,0.5c-0.6,1.9-2.2,4.1-3.9,5.4c-0.4,0.3-0.8,0.6-1.1,0.8c-2.4,1.3-3.9,0.2-5.3-0.8c-0.5-0.3-1-0.7-1.5-0.9
	c-0.3-0.1-0.3-0.4-0.2-0.7c0.1-0.1,0.1-0.2,0.2-0.2C324.1,130.6,326.6,130.4,328,130.3z M315.6,128.8c1.2,0.9,2.4,1.9,3,3.4
	c0.4,1.1,0.2,2,0,2.9c0,0.1-0.1,0.3-0.1,0.4c0.1,0.1,0.1,0.3,0.1,0.5c0,0.2,0,0.3-0.2,0.4c0,0-0.1,0-0.1,0.1
	c-0.4,0.2-0.8,0.2-1.2,0.1c-1.2-0.5-2-2.5-2.2-2.9c-0.2-0.6-0.3-1.3-0.5-2c-0.3-1.3-0.5-2.6-1.3-3.6c-0.2-0.2-0.3-0.4-0.5-0.6
	c-0.2-0.2-0.1-0.5,0.1-0.7c0.2-0.2,0.5-0.1,0.7,0c0.2,0.2,0.4,0.4,0.5,0.6C314.5,127.9,315,128.4,315.6,128.8z M322.5,139.4
	c0.8-0.2,1.6-0.3,2.4-0.4c1.3-0.1,2.5-0.2,3.6-1.1c0.2-0.1,0.4-0.1,0.6,0c0.2,0.1,0.3,0.3,0.2,0.5c-0.4,1.7-1.1,2.9-2.2,3.7
	c-0.6,0.4-1.3,0.8-2.1,1.1c0,0-3.7,1.1-5,0.4c-0.1,0-0.2-0.1-0.2-0.2c0,0-0.1-0.1-0.1-0.1c-0.1-0.1-0.1-0.3-0.1-0.4
	c-0.1-0.6-0.1-1.1,0.2-1.7C320.3,140.4,321.2,139.7,322.5,139.4z M313.6,141.2c0.3,1,0.3,2-0.2,2.9c0.1,0.1,0.1,0.1,0.1,0.2
	c0,0.2,0,0.4-0.2,0.5c-0.1,0-0.1,0.1-0.2,0.1c-1.5,0.3-2.3-1.8-3.1-4.1c-0.4-1.2-1-2.7-1.5-3.1c-0.2-0.1-0.3-0.4-0.1-0.6
	c0.1-0.2,0.4-0.3,0.7-0.2C310.9,137.7,313,139.2,313.6,141.2z M319.5,146.4l0.3-0.1c0.1-0.1,0.3-0.1,0.5-0.1c0.2,0,0.3,0.2,0.3,0.3
	c0.6,1.6-0.8,4.1-2.4,5.3c-0.2,0.2-0.4,0.3-0.6,0.4c-0.9,0.5-1.9,0.5-2.6,0c0,0,0,0,0,0c-0.7-0.3-0.8-0.7-0.8-1
	C313.9,150.2,315.6,148.7,319.5,146.4z M307.7,148.1c0.9,0.7,1.9,1.5,2.3,3.1c0.2,1,0.4,3.2-0.8,4.1c0,0,0,0,0,0
	c-0.1,0.1-0.3,0.1-0.4,0.1c-0.1,0-0.3-0.1-0.4-0.2c-0.1-0.1-0.1-0.3-0.2-0.4c-1.4-0.7-1.8-3-2.2-5.1c-0.2-1-0.4-2-0.7-2.6
	c-0.1-0.2,0-0.5,0.2-0.6c0.2-0.1,0.5-0.1,0.7,0.1C306.7,147.2,307.2,147.7,307.7,148.1z M328.4,60.4c-0.9-2.2-0.4-4.7,0.1-6.8
	c0-0.2,0.2-0.3,0.3-0.3c0.2-0.1,0.3,0,0.5,0c2.2,1.3,3.7,3.3,4.2,5.4c0.2,1,0.7,3.4-0.1,4.2c0,0-0.1,0.1-0.1,0.1
	c-0.2,0.1-0.3,0.2-0.5,0.2c-0.1,0.1-0.2,0.2-0.3,0.2C330.5,63.7,329,61.7,328.4,60.4z"/>
</svg>
