<?xml version="1.0" encoding="utf-8"?>
<!-- Generator: Adobe Illustrator 18.0.0, SVG Export Plug-In . SVG Version: 6.00 Build 0)  -->
<!DOCTYPE svg PUBLIC "-//W3C//DTD SVG 1.1//EN" "http://www.w3.org/Graphics/SVG/1.1/DTD/svg11.dtd">
<svg version="1.1" id="Layer_1" xmlns="http://www.w3.org/2000/svg" xmlns:xlink="http://www.w3.org/1999/xlink" x="0px" y="0px"
	 viewBox="0 0 432 432" enable-background="new 0 0 432 432" xml:space="preserve">
<path fill="#333333" d="M100.2,337.1c0-2.1-0.4-4.1-1.1-5.8c-0.8-1.7-1.9-3.1-3.4-4.1c-1.5-1-3.4-1.6-5.7-1.6
	c-8.1,0-15.1,6.9-20.8,20.8c0.1-2.4,0.2-4.5,0.2-6.4c0-2.9-0.4-5.4-1.2-7.6c-0.8-2.2-2-3.9-3.7-5.1c-1.7-1.2-3.8-1.8-6.5-1.8
	c-4.1,0-7.8,1.1-11.3,3.4c-3.5,2.3-6.6,5.3-9.3,9.1c-2.7,3.8-5,8-7,12.8s-3.4,9.6-4.4,14.6c-1,5-1.5,9.8-1.5,14.4
	c0,1,0.4,1.9,1.1,2.6c0.7,0.7,1.6,1.1,2.6,1.1c1.1,0,1.9-0.4,2.7-1.1c0.7-0.7,1.1-1.6,1.1-2.6c0-4.2,0.3-8.7,1-13.4s1.7-9.2,3-13.6
	c1.3-4.4,2.9-8.3,4.8-11.9c1.9-3.5,4.1-6.4,6.6-8.5c2.5-2.1,5.2-3.2,8.1-3.2c1.9,0,3.3,0.8,4.2,2.5c0.9,1.7,1.4,4,1.4,6.9
	c0,5.2-0.4,11.3-1.3,18.3c-0.8,7.1-1.8,14.2-2.8,21.5c-2.3,15.6-3.4,26.4-3.4,32.2c0,2.2,0.1,3.8,0.4,4.9c0.3,1.1,0.9,1.7,2.1,1.7
	c1.1,0,1.9-0.4,2.4-1.3c0.5-0.9,0.9-2.2,1.3-3.9c2.3-10.5,4.2-21,5.8-31.7c1.5,0.4,2.7,0.7,3.6,0.7c3,0,6-1,9-3c3-2,5.8-4.7,8.4-7.9
	c2.6-3.3,5-6.9,7-10.8c2-3.9,3.7-7.8,4.9-11.8C99.6,343.8,100.2,340.3,100.2,337.1z M86.3,357.3c-3.8,7.5-8.2,13-13.3,16.5
	c-2.2,1.5-4.5,2.4-6.9,2.6c0.5-4,1-8,1.4-12c1.5-4.9,3.3-9.8,5.6-14.6c3.1-6.7,6.3-11.5,9.6-14.4c1.8-1.6,3.6-2.4,5.5-2.4
	c2.5,0,3.7,1.4,3.8,4.3C92,343.1,90.1,349.8,86.3,357.3z M380.6,377.9c-0.8,0-1.4,0.4-1.7,1.2l-1.9,4.8c-2.5,6.5-6.1,11.9-10.6,16.3
	c-5.2,5.1-10.9,7.6-17,7.6c-2.2,0-4-0.6-5.5-1.7c-1.5-1.1-2.7-2.6-3.5-4.3c-0.8-1.7-1.2-3.5-1.2-5.3c0-2.6,0.4-5.4,1.3-8.3
	c3.2,1.6,6.4,2.4,9.6,2.4s5.8-0.6,7.8-1.8c2-1.2,3.5-2.8,4.5-4.7c1-1.9,1.5-3.9,1.5-5.9c0-1.8-0.4-3.5-1.3-5
	c-0.8-1.6-2.1-2.9-3.7-3.9c-1.6-1-3.6-1.5-6-1.5c-6,0-11,2.9-15.3,8.7c-1.9,2.5-3.4,5.3-4.5,8.2c-0.6,1.5-1,3-1.4,4.5
	c-2.2,4.3-5,8-8.2,11.1c-5.2,5.1-10.9,7.6-17,7.6c-2.2,0-4.1-0.6-5.6-1.7c-1.5-1.1-2.7-2.6-3.5-4.3c-0.8-1.7-1.2-3.5-1.2-5.3
	c0-2.6,0.4-5.4,1.3-8.3c1.5-5.1,3.8-8.9,6.9-11.4c1.6-1.3,3.6-2,5.8-2c1.7,0,2.8,0.7,3.5,2c0.4,0.7,0.6,2.2,0.6,4.5
	c0,2.3,0.5,3.5,1.5,3.5c1,0,1.8-0.5,2.5-1.6c0.7-1,1.1-2.2,1.4-3.4c0.3-1.2,0.5-2.2,0.5-3c0-2.5-0.9-4.6-2.7-6.3
	c-1.9-1.8-4.4-2.7-7.5-2.7c-6,0-11,2.9-15.3,8.7c-1.9,2.5-3.4,5.3-4.5,8.2c-0.7,1.7-1.2,3.5-1.5,5.2c-1.2,2.6-2.3,4.8-3.3,6.7
	c-3.7,6.7-7.2,10.1-10.5,10.1c-2,0-2.9-3.6-2.9-10.8c0-4,0.4-10.2,1.2-18.8c0.3-3.1,0.5-5.2,0.5-6.2c0-2.9-0.9-4.4-2.6-4.4
	c-1.2,0-2.3,0.7-3.1,2.2c-1,1.8-2.1,4.7-3.3,8.7c-2.1,6.9-4.3,12.9-6.7,18c-3.4,7-6.7,10.5-10.1,10.5c-1.2,0-2.2-0.8-2.9-2.4
	c-0.8-1.6-1.1-3.7-1.1-6.1c0-5,0.6-12.2,1.8-21.7c0.3-2.6,0.5-4.2,0.5-4.8c0-2.9-0.9-4.4-2.7-4.4c-2.1,0-3.6,2-4.5,6.1
	c-0.6,2.4-1.1,4.7-1.5,7c-2.9,7.3-5.4,13-7.6,16.9c-3.7,6.7-7.2,10.1-10.5,10.1c-1,0-1.7-0.8-2.2-2.5c-0.5-1.7-0.7-3.8-0.7-6.3
	c0-8.2,0.5-17,1.5-26.6c0.4-1.2,1.1-3.8,2.2-8.1c3.2-12.2,4.8-21.6,4.8-28.4c0-6.1-1.5-9.2-4.6-9.2c-2.5,0-4.5,4.2-5.9,12.6
	c-2.3,14.3-3.9,24.5-4.7,30.6c-1-0.7-2.6-1-4.7-1c-4.8,0.1-9.4,2.2-13.7,6.2c-1.4,1.3-2.7,2.7-3.9,4.2c-0.3,0.2-0.4,0.4-0.6,0.7
	c-2.1,2.7-4,5.7-5.5,9c0,0.1-0.1,0.2-0.1,0.3c0,0-0.1,0.1-0.1,0.1c-2.2,1.9-5.2,2.8-9.1,2.8c0.3-2,0.5-4,0.5-6
	c0-3.1-0.4-5.9-1.3-8.6s-2.2-4.7-4-6.3c-1.8-1.6-4.2-2.4-7.2-2.4c-2.3,0-4.2,0.7-5.8,2.2c-0.5-0.2-1-0.3-1.6-0.3
	c-1.2,0-2.5,0.5-3.9,1.5c-2.5,1.9-4.6,4.2-6.4,7c-1.5,2.5-2.6,5.1-3.4,7.8c-1.7,2.2-3.8,3.4-6.4,3.4c-1.1,0-1.9-0.4-2.6-1.2
	c-1.1-1.3-1.8-4-2-8.1c-0.1-2.7-0.6-5.2-1.3-7.6c-0.9-3.2-3-4.7-6.1-4.7c-4.1,0-8,3.7-11.6,11.2c-1.2,2.5-2.6,5.8-4,9.7
	c1.2-9.2,1.8-15.1,1.8-17.8c0-2.9-0.9-4.4-2.6-4.4c-2.1,0-3.6,2-4.5,6.1c-2.5,10.8-3.7,22.7-3.7,35.7c0,3.9,0.8,5.8,2.5,5.8
	c1.1,0,1.9-0.4,2.5-1.2c0.6-0.8,1.4-2.5,2.2-5.2c2.7-8,5-14.2,6.9-18.7c3.4-8,6.2-12,8.3-12c0.7,0,1.2,0.7,1.5,2.2
	c0.1,0.7,0.2,1.6,0.3,2.7c0.1,1.1,0.3,2.2,0.4,3.5c0.8,6.3,4.1,9.5,9.7,9.5c2.5,0,4.7-0.6,6.6-1.7c0.3-0.2,0.6-0.4,0.9-0.6
	c-0.1,1.1-0.2,2.3-0.2,3.5c0,7.3,2.3,12.6,7,15.8c2.2,1.5,4.9,2.3,8.2,2.3c4.2,0,8.1-1.7,11.4-5c3-3.2,5.4-7.7,7-13.4
	c3-0.1,5.6-0.7,7.9-1.6c-0.9,3-1.4,5.9-1.4,8.6c0,4.2,1.1,7.4,3.3,9.5c1.4,1.3,3.4,1.9,6,1.9c5.2,0,10.1-3.4,14.6-10.2
	c2.2-3.1,4.2-7.3,6.1-12.4c-0.1,2.1-0.1,4.1-0.1,6c0,3,0.3,5.7,1,8.2c0.7,2.5,1.7,4.5,3.3,6.1c1.5,1.5,3.6,2.3,6.3,2.3
	c5.7,0,11.5-6.6,17.5-19.9c0,0.9-0.1,1.8-0.1,2.7c0,3.4,0.4,6.3,1.1,8.9c0.7,2.6,1.8,4.6,3.3,6c1.5,1.4,3.6,2.2,6.1,2.2
	c6.7,0,12.5-5.9,17.2-17.7v1.1c0,3,0.3,5.7,1,8.2c0.7,2.5,1.7,4.5,3.3,6.1c1.5,1.5,3.6,2.3,6.3,2.3c3.6,0,7.1-2.6,10.7-7.7
	c1.4-2,2.7-4.1,3.9-6.5c0.6,3.6,2.1,6.7,4.5,9.2c3.2,3.4,7.7,5,13.6,5c4.1,0,7.7-0.9,11-2.8c5-2.8,9.5-7.3,13.4-13.2
	c0.4,4.4,1.9,8.1,4.7,11c3.2,3.4,7.7,5,13.6,5c4.1,0,7.7-0.9,11-2.8c8.6-4.9,15.6-14.3,20.9-28.3c0.8-1.9,1.1-3,1.1-3.3
	c0-0.3-0.1-0.6-0.2-0.9C381.9,378.3,381.4,377.9,380.6,377.9z M347.2,376.9c1.6-1.3,3.6-2,5.8-2c1.2,0,2.2,0.4,3,1.3
	c0.8,0.9,1.2,1.9,1.2,3.1c0,2-0.9,3.6-2.6,4.9c-1.7,1.3-3.5,2-5.3,2c-2.4,0-4.9-0.7-7.4-2.2C343.3,381,345.1,378.6,347.2,376.9z
	 M159.2,403.6c-1.6,1.6-3.5,2.3-5.9,2.3c-1.5,0-2.7-0.4-3.7-1.1c-2.5-2-3.8-5.4-3.8-10.4c0-3,0.7-6.2,2-9.7c0.9-2.4,2.1-4.4,3.7-6.1
	c0.4,3.8,1.8,7.4,4.3,10.6c1.5,2,3.3,3.6,5.7,4.8c0.9,0.5,1.8,0.9,2.9,1.2C163.2,398.5,161.5,401.3,159.2,403.6z M165.8,389.9
	c-3.7-1.7-6.2-4.4-7.6-8.1c-0.6-1.5-0.9-2.8-0.9-3.9c0-1.1,0.2-1.9,0.7-2.6c0.5-0.7,1.1-1,2-1c4.1,0,6.2,3.6,6.2,10.8
	C166.2,386.6,166.1,388.2,165.8,389.9z M206.5,382.2c-6.9,15.9-13,23.9-18.5,23.9c-1.2,0-1.8-1.2-1.8-3.5c0-4.1,1-8.5,3-13.1
	c2-4.6,4.7-8.5,8.2-11.6c3.5-3.2,7.5-4.9,12.1-5.2C208.3,376.9,207.3,380.1,206.5,382.2z M15.2,60.8c-2.3,0.6-4.4,0.3-6.3-0.9
	c-2.2-1.2-2.8-3.1-1.8-5.8c0.7-2.2,1.7-3.9,3.1-5.3c1.4-1.3,3.1-2.4,4.9-3.3c8.5-3.8,17.6-4.5,27.1-2c1.8,0.5,3.6,1.1,5.1,1.9
	c1.6,0.8,3.3,1.5,5.1,2.1c1.7,0.5,3.3,1,4.9,1.6c1.6,0.6,3.3,1,5.1,1.4c4.9,1.2,9.1,0.9,12.8-0.9c3.7-1.8,6.9-4.6,9.8-8.4
	c0.8-1.2,1.5-2.4,2.1-3.8c0.6-1.3,1.1-2.7,1.6-4c1.8-5,1.2-9.5-2-13.3c-1.5-1.8-1.2-3.3,1-4.5c3-1.5,6.5-1.8,10.5-0.8
	c4,1,6.9,2.9,8.5,5.8c3.5,5.4,3.9,10.8,1.3,16.3c-3,6.2-6.8,11-11.3,14.4c-4.5,3.4-10,5.8-16.3,7.2c-2,0.3-4,0.6-6,0.8
	c-2,0.2-4,0.4-6,0.8c1.8,11.2,3.8,22.8,5.8,34.6c3.5-1.3,6.9-3,10.3-4.9c3.3-1.9,6.4-3.8,9.3-5.6c2.2-1.2,3.8-1.9,5-2.1
	c1.2-0.3,2.3-0.1,3.5,0.4c1.3,0.5,2.2,1.7,2.5,3.6c0.3,1.9-0.3,3.6-2,4.9c-3.7,2.8-7.2,5.3-10.5,7.4c-3.3,2.1-7.3,3.9-11.8,5.4
	c-0.8,0.3-1.6,0.6-2.3,0.9c-0.7,0.3-1.6,0.5-2.8,0.9c0.2,1.3,0.3,2.7,0.4,4c0.1,1.3,0.2,2.7,0.4,4c0.7,6.9,1,13.7,1,20.5
	s-0.9,13.5-2.8,20.2c-1.5,6-3.8,11.6-6.8,16.8c-2.3,4.3-5.6,7.9-9.8,10.8c-4.2,2.8-8.8,4.9-13.8,6c-5.9,1.2-11,0.5-15.3-2
	c-4.4-2.5-7.4-6.6-9.3-12.3c-2.2-6.7-2.4-13.6-0.8-20.6c1.2-4.3,3.6-8.2,7.3-11.5c3.7-3.3,7.6-5.3,11.8-5.8c1.7-0.3,3.3-0.4,4.8-0.1
	c1.5,0.3,2.9,1.2,4.3,2.9c0.2,0.2,0.3,0.5,0.5,0.9c0.2,0.4,0,0.7-0.5,0.9c-1.3,0.5-2.6,0.9-3.9,1.1c-1.3,0.3-3,1.2-5.1,2.9
	c-2.3,2.2-4.1,4.9-5.1,8c-1.1,3.2-1.6,6.5-1.5,9.9c0.1,3.4,0.8,6.8,2,10c1.3,3.3,3.1,6,5.4,8.2c2-1.3,3.7-2.9,5-4.6
	c1.3-1.8,2.4-3.6,3.3-5.6c2.7-5.4,4.6-10.9,5.8-16.6c1.2-5.7,1.9-11.5,2.3-17.3c0.3-4.5,0.5-9,0.4-13.6c-0.1-4.5-0.4-9.1-0.9-13.8
	c-2,0.2-4.4,0.2-7.3,0.1c-2.8-0.1-5.5-0.4-8-0.9c-2.5-0.5-4.6-1.2-6.3-2.1c-1.7-0.9-2.5-2.1-2.5-3.6c0.3-2,1.2-3.2,2.6-3.5
	c1.4-0.3,2.8-0.5,4.1-0.5c2,0.3,3.6,0.6,4.9,0.9c1.3,0.3,2.5,0.5,3.9,0.6c2.7,0.5,5.5,0.6,8.5,0.3c-1.2-7.5-2.3-14.7-3.4-21.6
	c-1.1-6.9-2.1-13.8-3.1-20.8c-2.5-0.8-4.8-1.7-6.9-2.6c-2.1-0.9-4.3-1.8-6.7-2.6c-6-2.2-10.7-0.6-14.1,4.8
	C19.3,59,17.6,60.3,15.2,60.8z M102.3,142.2c-0.8,7.1-0.9,13.1-0.1,18.1c0.8,4.9,2,8.8,3.9,11.7c1.8,2.8,3.5,4.6,5,5.3
	c4.3,2.2,8.8,2.6,13.3,1.3c4.5-1.3,8.2-3.9,11-7.8c1.5-2.3,3.1-4.9,4.8-7.8c1.3-2.8,2.7-5.7,4-8.5c1.3-2.8,2.7-5.7,4-8.5
	c0.3-0.5,0.5-1,0.6-1.5c0.1-0.5,0.3-1,0.6-1.5c0.3,2.2,0.6,4.6,0.9,7.4c0.3,2.8,0.6,5.7,1.1,8.9c0.5,2.8,1.2,5.5,2.1,8
	c0.9,2.5,2.2,4.9,3.9,7.3c1.7,2.3,3.7,4.2,6,5.5c2.3,1.3,4.8,2.1,7.3,2.3c2.5,0.2,5.1-0.4,7.7-1.6c2.6-1.3,5-3.3,7.2-6.1
	c2.2-3,5.3-8.7,9.4-17.2c4.1-8.4,8.6-20,13.4-34.5c0.1-0.2,0.1-0.5,0.2-0.7c0.2,0,0.4,0,0.7,0c1.9-0.2,3.8-0.4,5.6-0.8
	c1,0,2-0.1,2.9-0.4c0.9-0.3,1.9-0.5,2.9-0.6c1,1.8,1.5,3.8,1.4,5.8c-0.1,2-0.4,3.9-0.9,5.8c-1.3,4.7-2.6,8.7-3.9,12.2
	c-1.3,3.4-2.5,7.5-3.6,12.2c-0.7,2.8-1.2,5.6-1.6,8.4c-0.4,2.8-0.6,5.6-0.6,8.4c0,4.7,1,8.4,3,11c2,2.7,5.3,4.5,9.8,5.5
	c2.5,0.7,4.9,0.8,7.3,0.4c2.3-0.4,4.5-1,6.5-1.9c4-1.8,7.6-4.4,10.7-7.7c3.1-3.3,5.8-6.7,8.2-10.2c1.7-2.5,3.2-4.8,4.6-6.9
	c1.4-2.1,2.7-4.2,3.9-6.3c0.6-1.1,1.2-2.1,1.7-3.2c0.5,1.5,1.1,3.1,1.8,4.6c0.5,1.2,1.1,2.3,1.8,3.3c0.7,1,1.3,2.1,2,3.3
	c1.3,2,3,3.2,4.9,3.6c1.9,0.4,3.9,0.4,5.9-0.1c1.5-0.3,2.5-0.8,3-1.4c0.5-0.6,0.6-1.6,0.3-3.1c-0.5-2-1-4-1.6-5.9
	c-0.6-1.9-1-3.9-1.4-5.9c-0.3-1.2-0.6-2.3-0.9-3.5c-0.3-1.2-0.3-2.3-0.1-3.5c0.8-6,1.9-12,3.3-17.8c1.3-5.9,3.4-11.5,6.3-16.8
	c2.3-4.5,5.1-8.6,8.2-12.2c3.1-3.6,6.6-6.9,10.4-9.9c0.3-0.3,0.7-0.5,1.1-0.6c0.4-0.1,0.8-0.3,1.1-0.6c0.3,2.2,0.4,4.2,0.3,6
	c-0.2,1.8-0.4,3.7-0.8,5.5l-6,27.9c-0.8,4-1.3,8.1-1.3,12.2c0,4.1,0.4,8.2,1.3,12.2c0.5,2.8,2.1,4.4,4.8,4.5c0.7,0.2,1.3,0.3,2,0.3
	c0.7,0,1.4,0,2.3,0c2.2-0.2,3.6-1.5,4.3-4c1.8-6,4.1-11.8,6.6-17.4c2.6-5.6,5.7-10.9,9.4-15.9c2-3,4.3-5.7,7-8.2
	c2.7-2.4,5.6-4.6,8.8-6.4c0.8-0.3,1.5-0.7,2.1-1.1c0.6-0.4,1.3-0.8,2.1-1.1c1.2,1.3,1.8,2.6,1.8,3.9c0,1.3-0.2,2.5-0.5,3.6
	c-0.5,1.8-1,3.6-1.5,5.4c-0.5,1.8-1.2,3.5-2,5.1c-0.8,1.8-1.8,3.6-2.9,5.4c-1.1,1.8-2.1,3.6-3.1,5.4c-2.5,4.9-5,9.7-7.5,14.4
	c-2.5,4.8-4.5,9.7-6,14.9c-0.8,3.3-1.5,6.6-2,9.8c-0.5,3.2-0.5,6.4,0,9.8c0.5,3,1.8,5.4,4,7.3c2.2,1.8,4.8,2.9,7.8,3.3
	c6.9,1,13-0.7,18.6-5c1.8-1.7,4.6-4.4,8.2-8.3c3.6-3.8,7.4-9.5,11.4-16.8c3.8-7,7.3-13.9,10.4-20.7c3.1-6.8,5.3-12.6,6.6-17.4
	c0.3-0.7,0.6-1.9,0.9-3.6s-0.3-2.8-1.6-3.1c-2-0.7-3.6-0.3-4.8,1.3c-1.2,1.5-2.1,3-2.8,4.5c-0.2,0.5-0.8,2.1-1.8,4.8
	c-1,2.7-2.3,5.9-4,9.5c-1.7,3.7-3.6,7.7-5.8,12c-2.2,4.4-4.5,8.5-7,12.5c-3.2,5-6.1,9.1-8.9,12.2c-2.8,3.1-5.1,5.5-7.2,7.3
	c-2,1.8-3.6,3-4.8,3.8c-1.2,0.8-1.8,1.1-2,1.1c-1.5-2.8-2.1-5.7-1.8-8.5c0.3-2.8,1.1-5.7,2.3-8.5c1.8-3.8,3.6-7.8,5.4-11.8
	c1.8-4,3.6-7.9,5.4-11.8c1.5-3.3,3.1-6.6,4.8-9.7c1.7-3.1,3.3-6.3,4.8-9.7c1.7-4,2.8-7.9,3.5-11.8c0.8-4.5,0.1-8.2-2.1-11.2
	c-2.3-2.9-5.7-4.6-10.4-4.9c-3.2-0.3-6.2-0.1-9.2,0.6c-2.9,0.8-5.8,2-8.7,3.6c-3,1.8-5.7,3.9-8.2,6.1c-2.4,2.3-4.7,4.7-6.9,7.4
	c-0.5,0.7-1,1.3-1.4,1.8c-0.4,0.5-1,1.2-1.6,2c0.8-3.2,1.6-6.1,2.4-8.8c0.8-2.7,1.4-5.4,1.9-8.3c0.7-3.7,0.9-7.4,0.8-11.3
	c-0.2-2.8-1-5.1-2.6-6.8c-1.6-1.7-3.8-2.8-6.7-3.5c-5.7-1.5-10.9-0.7-15.6,2.5c-3.5,2.3-6.9,5.2-10,8.5c-5,5.7-9.2,12.2-12.5,19.6
	c-0.2,0.3-0.4,0.7-0.6,1c-0.3,0.3-0.5,0.9-0.9,1.8v-3.5c-0.2-1.3-0.2-2.6-0.1-3.9c0.1-1.3,0-2.5-0.4-3.9c0-1.3-0.7-2.5-2-3.5
	c-1.8-1.3-4.1-1.7-6.7-1c-2.6,0.7-4.4,2-5.4,4c-1.5,2.7-2.5,5.6-3,8.8c-1.5,8.5-1.9,16.9-1.1,25c0.1,1.5,0.3,3,0.6,4.6
	c-0.2,0.6-0.5,1.2-0.7,1.8c-1.7,4.4-3.9,9.2-6.8,14.6c-1.8,3.2-3.9,6.5-6.1,9.9c-2.3,3.4-4.6,6.5-7.2,9.2c-1.2,1.3-2.8,2.8-4.9,4.4
	c-2.1,1.6-4,2.5-5.6,2.9c-0.5-0.8-0.7-2.2-0.6-4.1c0.1-1.9,0.3-3.6,0.6-5.1c0.5-1.7,1-3.3,1.5-4.9c0.5-1.6,1-3.3,1.5-5.1
	c1-3.3,2-6.4,2.9-9c0.9-2.7,1.9-5.7,2.9-9c0.8-3,1.5-5.9,2.1-8.5c0.6-2.7,0.7-5.6,0.4-8.8c-0.7-6.7-4.1-11.3-10.3-13.8
	c-2.7-1.2-4.9-1.7-6.8-1.6c-1.8,0.1-4.2,0.3-7,0.6c-0.8,0-1.6,0-2.4,0.1c-0.8,0.1-1.5,0.1-2.4,0.1c0.3-0.8,0.6-1.5,0.8-2.1
	c0.2-0.6,0.4-1.2,0.8-1.9c0.7-2,1.2-3.7,1.6-5.1c0.4-1.4,0.8-2.8,1.1-4.1c0.3-1.3,0.5-2.7,0.6-4.1c0.1-1.4,0-3.2-0.1-5.4
	c-0.3-3.3-1.5-6.3-3.4-8.9c-1.9-2.6-4.1-4.1-6.6-4.4c-3.4-0.3-6.1,0.1-8.2,1.4c-2.1,1.3-4.1,3.2-6.1,5.9c-2,2.8-3.6,6-4.8,9.4
	c-1.2,3.4-1.6,7.3-1.3,11.7c0.3,4.7,1.7,8.6,4.1,11.8c1.8,2.4,4.2,4,7.3,4.9c-0.4,0.9-0.9,2.1-1.4,3.5c-0.8,2.3-1.8,4.8-3,7.7
	c-1.2,2.8-2.5,6-4,9.4c-1.5,3.4-3,6.7-4.5,9.9c-2.3,5.2-4.8,9.9-7.3,14.1c-2.5,4.2-5,6.9-7.5,8c-3-2.8-4.9-6.2-5.5-10
	c-0.7-3.8-1.2-7.7-1.5-11.5c-0.5-8.4-0.5-16.7-0.1-25c0.4-8.3,0.8-16.6,1.1-25c0-1.2,0-2.3,0-3.3c0-1-0.1-2.1-0.3-3.3
	c-0.3-1.3-0.8-2.3-1.5-2.8c-1.3-0.8-2.6-1.3-3.9-1.4c-1.3-0.1-2.6,0-3.9,0.4c-1.8,0.3-3,1.8-3.5,4.5c-5-2-10-2.8-14.8-2.3
	c-4.9,0.5-9.5,2-13.8,4.5c-1.3,0.8-2.8,2-4.4,3.4c-1.6,1.4-3.1,3.1-4.6,4.9c-1.5,1.8-2.8,3.7-4,5.6c-1.2,1.9-2.1,3.6-2.8,5.1
	C105.4,126.9,103.1,135,102.3,142.2z M202.3,94.6c0.6-4,2.1-7.3,4.6-9.8c1,1.5,1.6,3.3,1.8,5.4c0.2,2.1,0.1,4.2-0.3,6.4
	c-0.3,2.2-0.9,4.2-1.6,6.1c-0.8,1.9-1.6,3.5-2.6,4.6C202.3,102.9,201.7,98.6,202.3,94.6z M120.1,155.8c0.3-8.2,1.6-16.1,3.8-23.7
	c2.2-7.6,5.6-14.8,10.3-21.7c1-1.7,2.3-3.3,3.9-4.8c1.6-1.5,2.8-2.6,3.6-3.3c0.8-0.5,1.9-0.8,3.1-0.8c1.3,0,2.2,0.2,2.9,0.5
	c0.8,0.3,1.5,0.7,2.1,1c0.6,0.3,1.2,0.7,1.9,1c-1,3.9-2.2,7.5-3.5,10.9c-1.3,3.4-2.7,7.1-4,10.9c-1.3,3.7-2.7,7.4-4.1,11
	c-1.4,3.7-3,7.3-4.6,10.8c-1.7,3.7-3.6,7.2-5.6,10.7c-2.1,3.4-4.6,6.8-7.7,10.2c-0.8-2.3-1.4-4.6-1.8-6.7
	C120,159.9,119.9,157.8,120.1,155.8z M314.9,275.7c1.5-2.6,2.4-4.2,2.8-5.2c0-0.1,0.1-0.2,0.1-0.4c0-0.8-0.4-1.4-1.1-1.6
	c-0.5-0.2-1.1-0.3-1.9,0.4c-0.1,0.1-0.1,0.2-0.2,0.2c-0.5,1-1.4,2.7-2.8,5.2c-1.4,2.5-3.1,5.3-4.9,8.3c-1.9,3.1-3.9,6.2-6,9.4
	c-2.1,3.2-4,6.1-5.8,8.4c-0.4,0.5-0.7,0.8-0.9,1c-0.1-0.2-0.1-0.6-0.1-1.1c0.1-3,0.8-6.6,2.1-10.9c1.2-4.3,2.5-8.7,3.7-13.2
	c1.2-4.5,2.2-8.8,2.9-12.8c0.7-4.2,0.5-7.5-0.5-10c-0.9-2.1-2.4-3.7-4.6-4.7c-2.3-1-4.7-0.7-7.1,0.8c-2,1.3-3.8,2.9-5.4,4.7
	c-1.6,1.8-3.1,3.8-4.4,5.9c-1.3,2.1-2.5,4.2-3.5,6.3c-1,2.1-1.9,4-2.7,5.7c-1.8,4.1-3.2,8.3-4.2,12.6c-0.5,2.2-0.9,4.2-1.2,6.3
	c-0.3-1.5-0.6-2.9-0.9-4.3c-0.6-3.1-1.1-6.4-1.5-9.9c-0.4-3.4-0.7-7.1-0.9-10.8c-0.2-3.7-0.2-7.7-0.1-12c4.9-3.1,9.8-6.3,14.3-9.6
	c4.7-3.4,9.1-7.2,12.9-11.4c3.9-4.2,7.2-8.8,9.9-13.9c2.7-5,4.7-10.8,5.8-17.3c0.8-4.5,0.8-8.6,0.2-12.1c-0.7-3.5-2-6.5-3.8-8.7
	c-2.2-2.7-4.8-4.4-7.8-5c-3-0.6-6-0.4-9.1,0.7c-5.8,2-10.7,5.8-14.6,11.3c-3.9,5.5-7,12-9.3,19.5c-2.3,7.4-4,15.5-5,24.1
	c-1,8.6-1.5,17.2-1.4,25.6c0,4.2,0.2,8.3,0.4,12.3c-0.7,1.2-1.9,2.6-3.4,4.2c-1.8,1.9-3.8,3.8-6,5.8c-2.1,1.9-4.4,3.7-6.7,5.3
	c-2,1.3-3.7,2.3-5.3,3c-0.7-1.3-1.8-3.2-3-5.6c-1.5-2.9-2.8-6-4-9.2c-1.1-3.2-1.7-6.3-1.8-9.1c-0.1-2.6,0.8-4.5,2.4-5.6
	c1.3-0.7,2.6-0.8,3.9-0.5c1.4,0.3,2.6,1,3.7,1.9c1.1,0.9,2,2.1,2.7,3.4c0.7,1.2,1,2.4,0.8,3.6c0,1,0.7,1.7,1.7,1.7
	c1,0,1.7-0.7,1.7-1.7c0-2.2-0.5-4.2-1.6-5.9c-1-1.7-2.3-3.1-3.9-4.2c-1.5-1.1-3.4-1.9-5.4-2.3c-2-0.5-4.1-0.5-6.1-0.1
	c-2.9,0.6-5,1.8-6.3,3.8c-1.2,1.9-1.8,4.1-1.9,6.6c0,1.8,0.2,3.7,0.7,5.6c-0.4,1.3-1.1,3.2-2.1,5.6c-1.2,2.9-2.7,6-4.4,9.1
	c-1.7,3.1-3.6,6.2-5.6,9.1c-2,2.8-4,4.9-6,6.2c-1.6,1-3.1,1.4-4.7,1.1c-1.5-0.3-3-1.6-4.3-3.9c-1.6-2.6-2.8-5.6-3.6-9
	c-0.7-3.1-1.1-5.7-1.2-7.7c1.6-0.9,3.4-2.1,5.5-3.7c2.3-1.8,4.3-3.7,6.2-5.9c1.9-2.2,3.2-4.5,4-6.9c0.9-2.6,0.5-5.1-1.1-7.5
	c-1.5-2.2-3.4-3.2-5.9-3.1c-2.3,0.1-4.4,0.8-6.3,2.1c-3.2,2-5.7,4.9-7.3,8.7c-0.8,1.8-1.4,3.6-1.9,5.5c-0.8,2.1-1.8,4.7-3,7.8
	c-1.3,3.4-2.7,6.9-4.3,10.5c-1.6,3.5-3.3,6.9-5,9.9c-1.7,3-3.5,5.2-5.3,6.5c-0.7,0.5-1.4,0.8-1.8,0.8c-0.3,0-0.6-0.5-0.7-0.9
	c-0.5-1.5-0.9-3.4-1.2-5.8c-0.3-2.5-0.6-5.2-0.9-8.2c-0.3-3-0.5-6.2-0.8-9.5c-0.3-3.3-0.4-6.6-0.6-9.8c0-0.7-0.5-1.3-1.5-1.3h-4.3
	c-1.7,0-3.5-0.1-5.3-0.2c-1.8-0.1-3.5-0.4-5.1-0.7c-1.2-0.3-2.3-0.7-3.3-1.2c0.3-0.8,0.6-1.5,0.9-2.2c0.5-1,0.9-2,1.3-3
	c0.4-0.9,0.8-2.1,1.2-3.5c0.4-1.4,0.7-2.8,0.9-4.2c0.2-1.5,0.2-2.8,0.1-4.1c-0.2-1.4-0.8-2.7-1.8-3.6c-1.1-0.9-2.4-1.3-4.3-1
	c-2.5,0.6-4.6,1.9-6.4,4.1c-1.7,2.1-2.7,4.5-3,7.1c-0.3,2.6,0.2,5.2,1.5,7.9c0.9,1.9,2.5,3.5,4.6,4.8c-2.6,3.4-5.5,6.7-8.6,9.8
	c-3.2,3.2-6.4,6.1-9.4,8.8c-0.9-1.2-2-2.2-3.1-2.9c-1.2-0.7-2.6-1-4.3-1c0.1-1.8,0.2-3.5,0.2-5.3c0.1-1.9,0.2-3.8,0.4-5.6
	c3.1-2.3,6.1-4.9,9-7.8c3-3,5.6-6.4,7.9-9.9c2.3-3.5,4.1-7.3,5.6-11.2c1.5-3.9,2.4-8,2.6-12.1c0.3-3,0.1-6.5-0.6-10.4
	c-0.7-3.9-1.9-7.3-3.8-10c-2.8-3.5-6.2-4.4-9.9-2.4c-3.4,1.8-6.3,5.2-8.7,10.1c-2.1,4.5-3.8,9.8-5.2,15.8c-1.4,6-2.5,12.2-3.3,18.5
	c-0.8,6.3-1.5,12.5-1.9,18.5c-0.4,5.8-0.6,10.8-0.8,14.9c-1.7,1.3-3.3,2.8-4.9,4.6c-1.6,1.9-3,3.8-4.1,5.7c-1.1,1.9-1.9,3.7-2.3,5.4
	c-0.5,1.9-0.3,3.3,0.6,4.3c0.9,1,2.4,1.2,4.5,0.7c1.6-0.4,3.7-1.4,6.3-3.2c0.1,1.4,0.2,2.8,0.4,4.3c0.2,2.2,0.5,4.4,1,6.5
	c0.5,2.1,1.1,4.2,1.9,6.3c0.8,2.1,1.9,3.8,3.1,5.1c2.3,2.8,4.8,4.1,7.2,4.1c2.6,0,4.7-2,6.2-5.9c1.8-4.6,2.6-9.9,2.2-15.9
	c-0.4-5.9-1.5-11.2-3.3-15.7c-0.3-0.9-0.7-1.8-1.2-2.7c3.3-2.8,6.6-6,10.1-9.4c3.4-3.4,6.5-7,9.3-10.7c2.1,0.9,4.4,1.5,6.7,2
	c2.1,0.4,4.1,0.6,6.1,0.7c0.2,2.9,0.5,5.9,0.9,8.8c0.4,3.3,0.8,6.4,1.3,9.3c0.5,2.9,1.1,5.6,1.7,8c0.7,2.4,1.5,4.4,2.4,5.9
	c1.1,1.7,2.5,2.8,4.2,3.2c0.3,0.1,0.7,0.1,1.1,0.1c1.5,0,3.1-0.7,4.9-2.2c2-1.6,4-4,5.9-7.2c1.9-3.1,3.6-6.6,5.2-10.2
	c1.2-2.7,2.3-5.4,3.3-8.1c0.1,2.3,0.5,4.6,1,6.8c1,4.1,2.5,7.7,4.6,10.6c2.7,3.6,5.7,5.7,9,6.3c0.7,0.1,1.3,0.2,2,0.2
	c2.6,0,5-0.9,7.2-2.7c2.3-1.9,4.6-4.4,6.8-7.4c2.2-3,4.2-6,5.9-9.2c1.7-3.1,3.2-6.2,4.3-9.1c0.2-0.6,0.5-1.2,0.7-1.8
	c0.6,1.6,1.2,3.2,1.9,4.8c1.1,2.6,2.3,4.9,3.5,7c0.9,1.6,1.8,3,2.5,4c-4.4,3.1-7.6,6.9-9.5,11.5c-2,4.8-2.1,10.2-0.2,15.8
	c1.1,3.2,2.7,5.8,4.9,7.7c2.1,1.9,4.5,3.2,7,4c2,0.6,4,1,6,1c0.5,0,1,0,1.5-0.1c2.5-0.2,4.7-0.9,6.6-2.1c3.3-2.1,5-5.1,4.8-8.9
	c-0.1-3.5-1-7.3-2.6-11.1c-1.5-3.8-3.5-7.5-5.7-11c-1.9-2.9-3.4-5.3-4.6-7.1c1.8-0.7,3.7-1.8,5.7-3.3c2.4-1.7,4.7-3.7,7-5.7
	c2.3-2.1,4.3-4.1,6.2-6.1c0.4-0.4,0.8-0.8,1.1-1.2c0.2,2.2,0.4,4.4,0.7,6.5c1,7.3,2.2,13.6,3.8,18.6c0.1,0.4,0.6,1.3,2.2,1.1
	c0.8-0.1,1.6-0.2,2.5-0.5c0.9-0.3,1.7-0.6,2.4-0.9c0.5-0.2,1.6-0.7,1.6-1.7c0.1-3.4,0.7-7.2,1.6-11.4c0.9-4.2,2.3-8.5,4.1-12.7
	c0.8-1.8,1.7-3.7,2.7-5.7c1-2,2.1-4,3.4-5.8c1.2-1.9,2.6-3.6,4-5.2c1.4-1.6,3-2.9,4.7-4.1c0.9-0.6,1.5-0.7,1.7-0.7
	c0.2,0,0.4,0.1,0.5,0.3c0.4,0.6,0.9,1.9,0.9,4.7c0.1,3.2-0.3,6.8-1.1,10.6c-0.9,4-1.9,7.9-2.9,11.8c-1,3.9-1.9,7.6-2.7,11.2
	c-0.8,3.6-1,6.7-0.8,9.2c0.1,1,0.5,2,1,2.9c0.5,1,1.3,1.7,2.2,2.2c0.6,0.3,1.2,0.4,1.9,0.4c0.4,0,0.9-0.1,1.3-0.2
	c1.1-0.3,2.2-1.2,3.3-2.6c1.9-2.4,4-5.3,6.1-8.7c2.1-3.3,4.1-6.6,6-9.8C311.8,281.1,313.5,278.2,314.9,275.7z M267,234.7
	c0.6-6.1,1.7-12.2,3.1-18.2c1.4-6,3.4-11.7,5.9-17c2.4-5.3,5.5-9.8,9.1-13.4c1.2-1.2,2.6-2.4,4.2-3.5c1.5-1.1,3-1.9,4.5-2.4
	c0.8-0.2,1.5-0.4,2.3-0.4c0.7,0,1.4,0.1,2.1,0.3c1.5,0.4,3,1.5,4.4,3.2c1.4,1.8,2.5,4.2,3.1,7.2c0.6,3.1,0.5,6.7-0.2,10.7
	c-1.1,6-3,11.4-5.4,16.2c-2.5,4.8-5.6,9.2-9.1,13.1c-3.6,3.9-7.7,7.6-12.2,10.9c-4.1,2.9-8.4,5.8-12.8,8.6
	C266.1,245.3,266.5,240.1,267,234.7z M189.5,273.5c0.3-1.8,0.8-3.6,1.4-5.3c0.6-1.7,1.4-3.4,2.3-4.9c0.9-1.5,2-2.8,3.3-3.9
	c0.7-0.6,1.6-1.1,2.6-1.6c0.2-0.1,0.3-0.1,0.5-0.1c0.4,0,0.7,0.3,1.1,0.9c1,1.5,1.2,3.2,0.6,4.9c-0.7,1.9-1.8,3.8-3.3,5.5
	c-1.6,1.8-3.4,3.5-5.3,5.1c-1.3,1-2.4,1.9-3.5,2.6C189.2,275.7,189.3,274.6,189.5,273.5z M110.6,260.7c0.4-4.1,1-8.4,1.7-12.9
	c0.7-4.4,1.6-8.8,2.8-13.2c1.1-4.3,2.5-8.3,4-11.8c0.8-1.6,1.5-3.2,2.3-4.6c0.7-1.4,1.5-2.4,2.3-3.2c0.7-0.7,1.5-1.1,2.2-1.2
	c0.1,0,0.1,0,0.2,0c0.5,0,1,0.3,1.5,1c0.8,0.9,1.5,2.2,2,3.6c0.5,1.5,0.9,3.1,1.2,4.8c0.2,1.7,0.4,3.4,0.6,5.1
	c0.1,1.7,0.1,3.1,0,4.3c-0.6,7.5-3.1,14.6-7.4,21.4c-3.9,6.1-8.6,11.3-13.9,15.4C110,266.8,110.3,263.9,110.6,260.7z M100.5,301.6
	c-4.9,3.3-6.6,3.8-7.5,3.8c-0.3-0.1-0.4-0.2-0.4-0.2c-0.1-0.1-0.2-0.5,0.2-1.7c0.6-1.8,1.8-3.9,3.7-6.3c1.3-1.8,2.7-3.3,4-4.6V301.6
	z M108.6,292.5c0-1.3,0-2.8,0.1-4.2c1.1-0.1,2,0.1,2.7,0.5c0.8,0.5,1.5,1.1,2.2,2.1c-1,0.9-2.1,1.7-3,2.7c-0.7,0.6-1.3,1.2-2.1,1.8
	V292.5z M118.2,302.5c0.6,2.5,0.9,5.1,1,7.7c0.1,2.6,0,5.2-0.3,7.8c-0.3,2.5-0.9,4.8-1.8,6.8c-0.7,2.1-1.4,2.4-1.5,2.5
	c-0.4,0.2-0.8-0.2-1.1-0.7c-0.9-1.2-1.8-2.9-2.5-5.1c-0.8-2.3-1.4-4.8-1.9-7.4c-0.5-2.6-0.9-5.3-1.1-7.9c-0.2-2.4-0.4-4.5-0.4-6.3
	c1.3-1,2.5-2,3.7-3.1c1-0.9,2-1.8,3-2.7c0,0.1,0.1,0.2,0.1,0.3c0.2,0.5,0.4,1,0.6,1.4C116.9,297.7,117.6,300,118.2,302.5z
	 M138.1,261.6c-0.2,1-0.6,1.9-1,2.7c-0.3,0.5-0.5,1.1-0.8,1.6c-1.2-1.1-1.9-2.2-2.2-3.6c-0.4-1.7-0.3-3.4,0.1-5.1
	c0.4-1.7,1.1-3.2,2-4.5c0.9-1.3,1.8-2.2,2.6-2.6c0.1,0,0.1-0.1,0.2-0.2c0.2-0.2,0.3-0.2,0.3-0.2c0,0,0.1,0.1,0.1,0.1
	c0.4,0.3,0.7,0.9,0.7,1.8c0.1,1.1,0,2.3-0.2,3.5c-0.2,1.3-0.5,2.5-0.9,3.6C138.8,259.9,138.4,260.8,138.1,261.6z M241.4,309.6
	c1.6,3.4,2.7,6.6,3.4,9.6c0.6,2.8,0.2,4.9-1.2,6.3c-1.6,1.7-3.3,2.6-5.3,2.7l-0.3,0c-1.9,0-3.7-0.5-5.4-1.4c-1.9-1-3.6-2.4-5.2-4.1
	c-1.6-1.7-2.7-3.4-3.2-5c-1.7-5-1.7-9.6,0-13.7c1.6-3.9,4.3-7.2,8.2-9.9c0.9,1.5,2.2,3.5,3.8,6C238.1,303,239.9,306.2,241.4,309.6z
	 M297.1,365.2c7.1-20,14-40.1,20.6-60.3c4.4,1.3,9.1,1,13.5-0.6c-0.2,11.8,10.1,26.2,22.5,20.3c0.2,1.3,0.5,2.5,0.9,3.8
	C336.2,341.7,316.9,353.9,297.1,365.2z M355.2,250.5c-6.9,2.6-12.9,7.2-17.8,12.5c-3.2,3.5-5.3,7.7-8.3,11.3c-1.2,1.4-2.1,1.8-4,2.2
	c-7.9,2-20.8,7.6-15.8,18.2c1.4,3,3.8,5.1,6.6,6.4c0.4,0.2,0.9,0.4,1.4,0.5c0.5,0.2,0.9,0.3,1.4,0.4c4.5,1.1,9.6,0.6,13.5-1.3
	c1.2-0.6,2.4,0.4,2.2,1.7c-1.7,10.3,8,26.1,19.8,18.6c1-0.6,2.1,0.3,2.2,1.3c0.1,1.4,0.4,2.9,0.8,4.3c0.1,0.5,0.3,1,0.4,1.5
	c0.2,0.5,0.3,0.9,0.5,1.4c1.7,4.1,4.5,7.8,8.8,9.4c7.7,3,13.7-2,15-9.5c0.3-6.5-2.9-11.7-6.4-16.9c-0.4-0.5-0.2-1.4,0.3-1.8
	c12.4-11.4,26.5-28.4,17.9-46.2C386.8,250.2,369.5,245.1,355.2,250.5z M321.2,295.4c-0.6-2-1.4-3.8-2.4-5.6
	c-0.8-1.4,1.4-2.7,2.3-1.3c1.1,2,2,4,2.7,6.2C324.2,296.3,321.7,297,321.2,295.4z M324.9,283.4c0.9-0.5,1.6-1.3,2.2-2.1
	c0.9-1.4,3.2-0.1,2.2,1.3c-0.8,1.2-1.9,2.2-3.1,3C324.8,286.6,323.5,284.3,324.9,283.4z M333.4,290.7c-1.3,0.5-2.7,0.9-4.1,1.2
	c-1.6,0.3-2.3-2.2-0.7-2.5c1.4-0.3,2.8-0.7,4.1-1.2c0.7-0.3,1.4,0.3,1.6,0.9C334.5,289.9,334,290.4,333.4,290.7z M354.9,259.8
	c0.8-0.4,1.3-0.8,2-1.4c0.5-0.5,1.3-0.5,1.8,0c0.5,0.5,0.5,1.3,0,1.8c-0.7,0.7-1.6,1.4-2.5,1.8c-0.6,0.3-1.4,0.1-1.8-0.5
	C354.1,261,354.3,260.1,354.9,259.8z M345.1,278.2c0.8,1.4,1.4,2.9,1.6,4.5c0.1,0.7-0.2,1.4-0.9,1.6c-0.6,0.2-1.5-0.2-1.6-0.9
	c-0.2-1.4-0.6-2.7-1.4-3.9C342,278.1,344.3,276.8,345.1,278.2z M340.7,270.8c0.6-1,1.2-1.9,2-2.7c0.5-0.5,1.4-0.5,1.8,0
	c0.5,0.5,0.4,1.3,0,1.8c-0.6,0.7-1.1,1.4-1.6,2.2C342.1,273.6,339.9,272.2,340.7,270.8z M340.9,295.7c-0.3-1.7-0.9-3.3-1.9-4.8
	c-0.9-1.4,1.4-2.7,2.3-1.3c1,1.6,1.8,3.5,2.1,5.4C343.7,296.7,341.2,297.4,340.9,295.7z M347.5,308.7c-0.5,0.4-1.4,0.5-1.8,0
	c-0.8-1-1.6-1.9-2.5-2.7c-0.5-0.5-0.5-1.4,0-1.8c0.5-0.5,1.3-0.4,1.8,0c0.9,0.8,1.7,1.7,2.5,2.7C347.9,307.5,348,308.2,347.5,308.7z
	 M353.1,293.8c-0.5,1.9-1.1,3.9-1.6,5.8c-0.4,1.6-2.9,0.9-2.5-0.7c0.5-1.9,1.1-3.9,1.6-5.8C351.1,291.5,353.6,292.2,353.1,293.8z
	 M353,286.1c-0.1-1.6-0.4-3.2-0.7-4.8c-0.4-1.6,2.1-2.3,2.5-0.7c0.4,1.8,0.7,3.6,0.8,5.4C355.7,287.7,353.1,287.7,353,286.1z
	 M353.6,273.5c-1.6,0.5-2.3-2-0.7-2.5c1.5-0.4,2.9-1,4.3-1.7c1.5-0.8,2.8,1.5,1.3,2.3C356.9,272.3,355.3,273,353.6,273.5z
	 M364.2,312.1c-2.3-0.5-4.5-1-6.8-1.4c-1.6-0.3-0.9-2.8,0.7-2.5c2.3,0.5,4.5,1,6.8,1.4C366.5,309.9,365.8,312.4,364.2,312.1z
	 M363,292.9c0.8,1.6,1.5,3.3,2,5c0.5,1.6-2,2.2-2.5,0.7c-0.5-1.5-1.1-3-1.8-4.4C360,292.7,362.2,291.4,363,292.9z M368.5,323.3
	c-0.1,1.7-2.7,1.7-2.6,0c0.1-2.1,0.2-4.1,0.3-6.2c0.1-1.7,2.7-1.7,2.6,0C368.6,319.2,368.6,321.3,368.5,323.3z M369.8,284.1
	c-2.8-0.3-5.6-0.7-8.4-1.1c-1.6-0.3-0.9-2.8,0.7-2.5c2.6,0.4,5.1,0.8,7.7,1C371.4,281.6,371.4,284.2,369.8,284.1z M366.9,265.2
	c-0.1-1.7,2.5-1.7,2.6,0c0.1,2.4,0.5,4.8,1.2,7.1c0.5,1.6-2,2.3-2.5,0.7C367.4,270.4,367,267.8,366.9,265.2z M366.1,260.6
	c-1.6-0.2-1.6-2.8,0-2.6c2.4,0.3,4.8,0.6,7.2,0.9c1.6,0.2,1.6,2.8,0,2.6C370.9,261.2,368.5,260.9,366.1,260.6z M376.5,294.4
	c-0.9,1.2-1.8,2.5-2.7,3.7c-1,1.3-3.2,0-2.2-1.3c0.9-1.2,1.8-2.5,2.7-3.7C375.3,291.7,377.5,293,376.5,294.4z M377.4,267.2
	c-0.5-0.5-0.5-1.3,0-1.8c0.5-0.5,1.4-0.5,1.8,0c0.7,0.8,1.4,1.6,2,2.3c0.5,0.5,0.5,1.3,0,1.8c-0.5,0.5-1.4,0.5-1.8,0
	C378.8,268.8,378.1,268,377.4,267.2z M384.4,280.1c-0.6,2-1.3,3.9-2,5.8c-0.6,1.5-3.1,0.8-2.5-0.7c0.8-1.9,1.5-3.9,2-5.8
	C382.3,277.8,384.8,278.5,384.4,280.1z M85.9,237c-12.8-2-25.7-1.5-37.9,3c-11.1,4.1-20.8,11.1-29.3,19.2
	c14.4,17.3,28.6,34.7,42.6,52.2C70.9,287.1,79.1,262.2,85.9,237z M72.5,244.2c1.8-0.2,2.7,1.2,2.3,2.9c-0.4,1.7-1.7,2.6-3.1,3.6
	C69.8,248.7,68.9,244.6,72.5,244.2z M63.1,263.9c1.9-0.6,2.9,1.1,2.7,2.8c-0.2,1.5-1.2,2.6-2.2,3.6c-1.1-0.7-2-1.6-2.4-2.8
	C60.7,265.9,61.5,264.4,63.1,263.9z M35,264.2c-2.6-0.1-6.1-2.1-4.1-5c1-1.5,2.7-1.3,3.7,0.1C35.6,260.8,35.3,262.6,35,264.2z
	 M50.7,278.1c-2.5-0.3-5.6-2.3-3.8-5c1-1.6,2.9-1.5,3.8,0.1C51.7,274.7,51.2,276.5,50.7,278.1z M51.8,253.7
	c-1.3-0.6-2.4-1.5-2.9-2.8c-0.6-1.5,0.2-3.1,1.8-3.6c1.7-0.6,2.8,1,2.8,2.6C53.5,251.3,52.6,252.5,51.8,253.7z M56.7,290.6
	c-0.6-1.5,0.2-3.1,1.8-3.6c1.7-0.6,2.8,1,2.8,2.6c0,1.5-0.9,2.7-1.7,3.9C58.3,292.9,57.2,291.9,56.7,290.6z M47.2,237.4
	c-11.5,4.2-21.5,11.4-30.3,19.7c-0.6-0.8-1.3-1.5-1.9-2.3c16.8-21.7,46.2-31.7,72.7-24.6c-0.4,1.4-0.7,2.8-1.1,4.3
	C73.3,232.4,59.9,232.8,47.2,237.4z M423.4,207.4c-1.7,3.8-4.1,7.1-7.3,9.8c-3.7,3.1-7.9,4.7-12.7,4.9c-2.2,0.1-4.4-0.4-6.4-1.2
	c-7.2-2.9-12.1-8-13.8-15.5c-1.9-8.5,3.2-16.8,12.6-17.9c8.5-1,14.2,6.7,12.6,13.7c-0.3,1.5-1.2,2.7-2.3,3.7c-0.9,0.8-2,0.8-3.1,0.4
	c-2.2-0.8-3.3-2.8-3-5.1c0-0.2,0.1-0.4,0.1-0.6c0.4-2.4-1.4-4.2-3.8-3.8c-2.7,0.4-4.7,2.6-5.1,5.3c-0.2,1.6,0,3,0.7,4.5
	c1.3,2.8,3.3,5,5.9,6.6c3.5,2,7,2,10.5,0.2c5-2.5,8.9-9,8.5-14.5c-0.6-7.6-5.3-15-14.1-16.8c-2.9-0.6-5.8-0.2-8.7,0.5
	c-4.3,1.1-8.2,3-11.5,6c-4,3.7-6.1,8.3-6.8,13.7c-0.5,3.8,0,7.5,1.2,11.1c0.7,2.1,1.5,4.1,2.5,6c2.9,5.6,7.1,10,12.7,13
	c2.6,1.4,5.4,2.5,8.2,3.5c1.1,0.4,2.2,0.8,3.3,1.3c1,0.4,1.8,1.1,2.4,2c1.2,2,0.1,4.2-2.2,4.2c-1.6,0-3.3-0.2-4.9-0.5
	c-14.3-3.4-24.3-11.7-29.4-25.6c-1.3-3.6-2.2-7.4-2.3-11.2c-0.4-15.9,9.6-26.8,21.7-30.8c3.6-1.2,6.7-1.8,10.3-1.9
	c8.7,0,15.6,3.5,20.8,10.5c2.7,3.7,4.3,8,5,12.5C425.7,199.6,425.1,203.6,423.4,207.4z M273.2,348.8c0.1,1.2,0.2,2.5,0.3,3.7
	c0.1,1,0.3,2,0.5,3.1c0.1,0.5,0,1-0.1,1.4c-0.3,1.5-2,2.1-3.2,1.1c-0.3-0.3-0.6-0.6-0.8-1c-0.9-1.5-1.7-3.1-2.6-4.6
	c-0.3-0.5-0.5-1-0.8-1.5c-0.4,0.1-0.8,0.2-1.1,0.3c-0.9,0.4-1.8,0.8-2.7,1.2c-1,0.4-1.9,0.9-2.9,1.3c-0.4,0.2-0.9,0.3-1.4,0.3
	c-1.1,0-1.9-1-1.7-2.1c0.1-0.5,0.3-0.9,0.5-1.3c0.5-0.8,1-1.6,1.5-2.4c0.2-0.3,0.4-0.6,0.6-1c-0.7-0.8-1.3-1.5-2-2.2
	c-0.6-0.7-1.3-1.3-2-1.9c-0.2-0.2-0.4-0.5-0.6-0.7c-0.9-1.3-0.4-2.9,1.1-3.5c0.9-0.3,1.8-0.4,2.7-0.3c1.4,0.2,2.8,0.4,4.2,0.6
	c0.2,0,0.4,0.1,0.6,0.1c0.1-0.2,0.3-0.5,0.4-0.7c0.9-1.4,1.8-2.8,2.7-4.2c0.1-0.2,0.3-0.4,0.4-0.6c0.3-0.6,0.8-1,1.3-1.3
	c0.7-0.4,1.5-0.3,2,0.3c0.3,0.4,0.5,0.8,0.6,1.3c0.3,1.1,0.4,2.3,0.6,3.4c0.1,0.7,0.2,1.4,0.3,2c0,0.4,0.2,0.6,0.6,0.7
	c1,0.3,2,0.5,3.1,0.8c0.8,0.2,1.5,0.3,2.3,0.5c0.9,0.2,1.6,0.7,1.8,1.7c0.2,1-0.1,1.8-0.8,2.4c-0.3,0.3-0.7,0.6-1.1,0.8
	c-0.6,0.3-1.2,0.6-1.8,0.8c-0.6,0.2-1.3,0.4-1.9,0.7C273.2,347.8,273.1,347.8,273.2,348.8z M81.2,203.6c0.2-0.6,0.1-0.7-0.4-0.9
	c-0.8-0.3-1.7-0.6-2.5-0.9c-0.7-0.2-1.4-0.4-2-0.6c-0.3-0.1-0.5-0.2-0.8-0.3c-1.2-0.7-1.5-2.2-0.5-3.3c0.3-0.4,0.8-0.7,1.2-0.9
	c1.4-0.8,3-1.2,4.6-1.5c0.5-0.1,1-0.2,1.6-0.3c-0.1-1.1-0.2-2-0.3-3c-0.1-0.8-0.2-1.7-0.1-2.5c0-1.1,0.8-1.9,1.8-2
	c0.6-0.1,1.3,0.1,1.7,0.5c0.5,0.4,0.9,0.9,1.3,1.4c0.6,0.8,1,1.7,1.5,2.6c0.2,0.4,0.5,0.8,0.7,1.3c0.4-0.1,0.8-0.2,1.1-0.3
	c1-0.3,2-0.7,3-1c0.6-0.2,1.2-0.3,1.8-0.3c1.6,0.1,2.5,1.5,2.1,3c-0.2,0.7-0.5,1.2-0.9,1.7c-0.6,0.7-1.3,1.4-2,2.1
	c-0.4,0.4-0.8,0.8-1.3,1.2c-0.4,0.3-0.4,0.7-0.2,1.1c0.1,0.4,0.3,0.7,0.5,1.1c0.5,1,1.1,2,1.6,3c0.2,0.4,0.5,0.8,0.6,1.3
	c0.3,0.9,0.1,1.7-0.6,2.3c-0.7,0.6-1.6,0.7-2.4,0.3c-0.3-0.1-0.6-0.3-0.9-0.5c-0.7-0.6-1.5-1.1-2.2-1.7c-0.4-0.3-0.8-0.6-1.3-1
	c-0.3,0.2-0.5,0.4-0.7,0.6c-1,1-1.9,2-2.9,3c-0.4,0.4-0.9,0.9-1.5,1.2c-0.8,0.5-1.6,0.4-2.4-0.1c-0.7-0.5-0.9-1.2-0.7-2
	c0.1-0.7,0.3-1.4,0.5-2.1C80.7,205.3,81,204.5,81.2,203.6z M156.1,342.1c-0.4,0.3-0.4,0.7-0.2,1.1c0.1,0.4,0.3,0.7,0.5,1.1
	c0.5,1,1.1,2,1.6,3c0.2,0.4,0.5,0.8,0.6,1.3c0.3,0.9,0.1,1.7-0.6,2.3c-0.7,0.6-1.6,0.7-2.4,0.3c-0.3-0.1-0.6-0.3-0.9-0.5
	c-0.7-0.6-1.5-1.1-2.2-1.7c-0.4-0.3-0.8-0.6-1.3-1c-0.3,0.2-0.5,0.4-0.7,0.6c-1,1-1.9,2-2.9,3c-0.4,0.4-0.9,0.9-1.5,1.2
	c-0.8,0.5-1.6,0.4-2.4-0.1c-0.7-0.5-0.9-1.2-0.7-2c0.1-0.7,0.3-1.4,0.5-2.1c0.3-0.9,0.6-1.7,0.8-2.6c0.2-0.6,0.1-0.7-0.4-0.9
	c-0.8-0.3-1.7-0.6-2.5-0.9c-0.7-0.2-1.4-0.4-2-0.6c-0.3-0.1-0.5-0.2-0.8-0.3c-1.2-0.7-1.5-2.2-0.5-3.3c0.3-0.4,0.8-0.7,1.2-0.9
	c1.4-0.8,3-1.2,4.6-1.5c0.5-0.1,1-0.2,1.6-0.3c-0.1-1.1-0.2-2-0.3-3c-0.1-0.8-0.2-1.7-0.1-2.5c0-1.1,0.8-1.9,1.8-2
	c0.6-0.1,1.3,0.1,1.7,0.5c0.5,0.4,0.9,0.9,1.3,1.4c0.6,0.8,1,1.7,1.5,2.6c0.2,0.4,0.5,0.8,0.7,1.3c0.4-0.1,0.8-0.2,1.1-0.3
	c1-0.3,2-0.7,3-1c0.6-0.2,1.2-0.3,1.8-0.3c1.6,0.1,2.5,1.5,2.1,3c-0.2,0.7-0.5,1.2-0.9,1.7c-0.6,0.7-1.3,1.4-2,2.1
	C157,341.3,156.6,341.7,156.1,342.1z M154.6,214.6c0.3-0.1,0.7-0.2,1-0.3c0-0.2,0-0.5,0-0.7c-0.1-1.5-0.3-3.1-0.3-4.6
	c0-0.4,0-0.8,0.1-1.2c0.3-1.5,1.9-2.1,3.1-1.1c0.5,0.4,0.8,1,1.2,1.5c0.6,1.1,1.1,2.1,1.7,3.2c0.5,1,0.5,1,1.5,0.6
	c1.1-0.4,2.1-0.8,3.2-1.2c0.3-0.1,0.6-0.2,0.8-0.3c0.9-0.2,1.7,0,2.2,0.7c0.6,0.7,0.7,1.5,0.3,2.3c-0.2,0.4-0.5,0.7-0.8,1
	c-0.7,0.6-1.3,1.2-2,1.9c-0.3,0.3-0.6,0.5-1,0.9c0.8,1,1.5,1.9,2.2,2.9c0.2,0.3,0.5,0.6,0.7,1c0.5,0.9,0.6,1.8,0,2.7
	c-0.6,0.9-1.5,1.1-2.5,0.9c-0.8-0.2-1.5-0.6-2.3-0.9c-0.6-0.3-1.2-0.7-1.9-1c-0.2,0.2-0.4,0.5-0.6,0.7c-0.6,0.9-1.3,1.8-1.9,2.7
	c-0.5,0.6-0.9,1.3-1.4,1.9c-0.9,1.1-2.7,1-3.3-0.2c-0.4-0.7-0.5-1.4-0.3-2.1c0.2-1,0.4-2,0.6-3c0.1-0.3,0.1-0.5,0.2-0.8
	c-0.3-0.1-0.6-0.2-0.9-0.3c-1.1-0.4-2.3-0.8-3.4-1.2c-0.3-0.1-0.5-0.2-0.8-0.4c-1.3-0.9-1.4-2.7-0.2-3.7c0.4-0.3,0.9-0.6,1.4-0.7
	C152.3,215.3,153.5,214.9,154.6,214.6z M342.7,230.6c-4.8-0.7-11-4.3-13.9-8.9c-0.9-1.4-1.6-2.8-2-4.5c-0.5-2.7,1.1-4.9,3.8-5.2
	c1.6-0.2,3.2,0.1,4.6,0.9c0.8,0.4,1.6,0.9,2.3,1.4c0.2,0.1,0.3,0.2,0.6,0.4c0-0.6,0-1.1,0-1.6c-0.1-1.5,0-3,0.4-4.5
	c0.1-0.2,0.1-0.4,0.2-0.7c1.2-3.7,5.3-4.4,7.8-2.8c1.2,0.8,2.1,1.8,2.8,3c0.8,1.5,1.3,3.1,1.6,4.8c0.5,2.9,0.4,5.7,0,8.6
	c-0.2,1.6-0.6,3.1-1.1,4.7c-0.4,1.1-0.9,2-1.6,3c-0.4,0.6-1,0.9-1.6,1.2C345.3,230.8,344,230.8,342.7,230.6z M189.7,336.6
	c0.2,0.1,0.3,0.2,0.6,0.4c0-0.6,0-1.1,0-1.6c-0.1-1.5,0-3,0.4-4.5c0.1-0.2,0.1-0.4,0.2-0.7c1.2-3.7,5.3-4.4,7.8-2.8
	c1.2,0.8,2.1,1.8,2.8,3c0.8,1.5,1.3,3.1,1.6,4.8c0.5,2.9,0.4,5.7,0,8.6c-0.2,1.6-0.6,3.1-1.1,4.7c-0.4,1.1-0.9,2-1.6,3
	c-0.4,0.6-1,0.9-1.6,1.2c-1.3,0.5-2.6,0.5-3.9,0.3c-4.8-0.7-11-4.3-13.9-8.9c-0.9-1.4-1.6-2.8-2-4.5c-0.5-2.7,1.1-4.9,3.8-5.2
	c1.6-0.2,3.2,0.1,4.6,0.9C188.2,335.5,189,336.1,189.7,336.6z M197.3,214.3c0.2,0.1,0.3,0.2,0.6,0.4c0-0.6,0-1.1,0-1.6
	c-0.1-1.5,0-3,0.4-4.5c0.1-0.2,0.1-0.4,0.2-0.7c1.2-3.7,5.3-4.4,7.8-2.8c1.2,0.8,2.1,1.8,2.8,3c0.8,1.5,1.3,3.1,1.6,4.8
	c0.5,2.9,0.4,5.7,0,8.6c-0.2,1.6-0.6,3.1-1.1,4.7c-0.4,1.1-0.9,2-1.6,3c-0.4,0.6-1,0.9-1.6,1.2c-1.3,0.5-2.6,0.5-3.9,0.3
	c-4.8-0.7-11-4.3-13.9-8.9c-0.9-1.4-1.6-2.8-2-4.5c-0.5-2.7,1.1-4.9,3.8-5.2c1.6-0.2,3.2,0.1,4.6,0.9
	C195.8,213.3,196.6,213.8,197.3,214.3z M396.2,350c0.1,1.3-0.1,2.6-0.5,3.8c-0.6,2.2-1.5,4.3-2.7,6.3c-0.8,1.2-1.6,2.4-2.4,3.6
	c-0.1,0.2-0.2,0.3-0.4,0.5c-1.2,1.3-2.6,1.6-4.2,1.1c-0.6-0.2-1.2-0.5-1.7-0.8c-3.3-2.4-5.9-5.4-7.5-9.2c-0.4-0.8-0.6-1.7-0.7-2.6
	c-0.1-0.6-0.1-1.2,0.1-1.9c0.5-2,2.2-2.9,4-2.8c1.8,0.1,3.3,1,4.5,2.3c0.5,0.5,0.8,1.1,1.3,1.7c0.1,0.1,0.2,0.3,0.3,0.5
	c0.2-0.5,0.3-0.9,0.4-1.4c0.4-1.2,0.9-2.3,1.6-3.3c0.5-0.7,1-1.3,1.7-1.8c1.8-1.2,4-0.9,5.2,0.9C395.9,347.8,396.2,348.9,396.2,350z
	 M227.6,230.6c-0.4-0.8-0.6-1.7-0.7-2.6c-0.1-0.6-0.1-1.2,0.1-1.9c0.5-2,2.2-2.9,4-2.8c1.8,0.1,3.3,1,4.5,2.3
	c0.5,0.5,0.8,1.1,1.3,1.7c0.1,0.1,0.2,0.3,0.3,0.5c0.2-0.5,0.3-0.9,0.4-1.4c0.4-1.2,0.9-2.3,1.6-3.3c0.5-0.7,1-1.3,1.7-1.8
	c1.8-1.2,4-0.9,5.2,0.9c0.7,0.9,0.9,2,1,3.1c0.1,1.3-0.1,2.6-0.5,3.8c-0.6,2.2-1.5,4.3-2.7,6.3c-0.8,1.2-1.6,2.4-2.4,3.6
	c-0.1,0.2-0.2,0.3-0.4,0.5c-1.2,1.3-2.6,1.6-4.2,1.1c-0.6-0.2-1.2-0.5-1.7-0.8C231.8,237.4,229.2,234.3,227.6,230.6z M336.1,244.9
	c0,0.5-0.1,1-0.3,1.5c-0.9,2.4-2.3,4.5-4.1,6.4c-0.5,0.6-1.2,1-1.9,1.5c-1.2,0.8-2.5,0.7-3.6-0.1c-0.5-0.4-1-0.8-1.4-1.4
	c-1.6-2.2-2.7-4.6-3.2-7.2c-0.2-0.8-0.2-1.6,0-2.4c0.4-1.7,2-2.5,3.5-1.7c0.7,0.3,1.3,0.9,1.7,1.5c0.5,0.9,0.8,1.8,1.2,2.6
	c0.1,0.3,0.2,0.6,0.4,1c0.2-0.3,0.3-0.4,0.4-0.6c0.7-1,1.4-1.9,2.3-2.7c0.6-0.4,1.2-0.8,1.9-1C334.7,241.9,336.2,243.1,336.1,244.9z
	"/>
</svg>
