<?xml version="1.0" encoding="utf-8"?>
<!-- Generator: Adobe Illustrator 18.0.0, SVG Export Plug-In . SVG Version: 6.00 Build 0)  -->
<!DOCTYPE svg PUBLIC "-//W3C//DTD SVG 1.1//EN" "http://www.w3.org/Graphics/SVG/1.1/DTD/svg11.dtd">
<svg version="1.1" id="Layer_1" xmlns="http://www.w3.org/2000/svg" xmlns:xlink="http://www.w3.org/1999/xlink" x="0px" y="0px"
	 viewBox="0 0 432 432" enable-background="new 0 0 432 432" xml:space="preserve">
<path fill="#333333" d="M326.4,269c0.9-6.8-0.8-12.9-5-18.3c-2.6-3.3-6-5.5-10.2-5.9c-4.8-0.5-9,1.1-12.2,5c-1,1.2-1.6,2.5-1.9,4
	c-1,4.2,0.7,9.7,3.8,12.5c1.7,1.5,3.6,2.4,5.9,2.3c2.2-0.1,3.9-1.2,5.1-3c1.3-1.9,0.4-5.5-1.5-6.8c-1.3-0.8-2.9-0.5-3.8,0.8
	c-0.1,0.2-0.2,0.4-0.4,0.5c-0.7,0.8-1.6,0.8-2.2,0c-0.7-0.8-0.9-1.7-0.7-2.7c0.2-1.2,0.9-2.2,1.9-2.9c2.2-1.6,4.6-1.9,7.2-1.1
	c1.1,0.4,2.2,1,3,1.8c2.9,3,4.1,6.6,3.2,10.8c-0.7,3.2-2.8,5.4-5.6,7c-3.7,2.1-7.5,2.1-11.3,0.6c-2.6-1.1-4.9-2.7-6.6-5
	c-2.7-3.6-4.1-7.6-4.4-11.8c-0.2-8.5,5-15.3,13-17.8c9.1-2.8,17.9,1.3,22.7,7.4c3.3,4.2,5.6,8.9,6.4,14.3c0.5,3.3,0.5,6.7-0.4,10
	c-0.1,0.5-0.3,1-0.5,1.5c-0.6,1.2-1.9,1.9-3.1,1.7c-1.4-0.2-2.4-1.2-2.6-2.6C326.3,270.5,326.3,269.7,326.4,269z M155.1,252.9
	c-0.4-3.3-0.8-6.8-2.7-9.5c-1.9-2.9-5.2-5-8.5-4.1c-2.5,0.6-4.5,2.7-5.4,5c-1,2.5-1.2,5-1.4,7.4c-1,19.8,0.4,39.9,1.9,59.5
	c0.4,7,1,13.8,2.1,20.7c0.4,2.9,0.6,4.8,3.3,6.8c2.1,1.4,4.8,2.3,7.2,2.7c5.8,1,11.8,0.8,17.6,0.8c1.7,0,3.1,0,4.5-0.6
	c1.2-0.6,2.5-2.1,2.5-3.5c-0.2-1.2-1.2-2.5-2.5-2.9c-1.2-0.6-2.7-0.6-3.9-0.8c-4.5,0-9.1-0.2-13.6-0.4v-0.2
	C154.9,306.9,158.2,279.8,155.1,252.9z M194.4,267.6c-2.3,1-2.5,2.9-0.4,4.5c1.7,1.4,3.9,1.9,7,1.9c1.4,0,2.7-0.8,2.9-2.3
	c0.2-2.1-0.8-3.7-2.9-4.1C198.7,267,196.7,266.5,194.4,267.6z M252.5,342.6c-0.2,5.2-0.6,10.5-2.3,15.7c-0.6,1.4-1.2,2.9-1.9,4.3
	c-1,2.1-2.9,3.1-5.4,3.3c-3.7,0.4-7-0.8-9.9-3.1c-2.5-2.1-4.3-4.5-5.8-7.2c-2.7-5-4.3-10.3-5.4-15.9c-2.1-10.1-2.5-20.7-1.7-31
	c0-0.2,0-0.3,0-0.5c-6.9,8.4-16.7,20.4-20.1,22.8c-3.9,2.5-8.3,2.5-11.2-1.2c-2.1-2.5-3.1-5.4-3.5-8.5c-0.8-7.9-0.4-15.5,1-23.2
	c0.6-4.3,1.7-8.9,2.9-13.2c0.4-1.9,1.2-3.5,2.3-5c2.3-3.1,6.8-3.5,9.3-1c0.8,0.8,1.4,2.1,1.7,3.1c0.2,1.4,0.2,3.1,0,4.5
	c-1.7,12.4-3.5,24.8-5.2,37.4c-0.2,1.2-0.2,2.5-0.4,4.1c3.9-3.9,18.2-22.1,21.9-25.8c0.7-0.6,1.3-1.2,2-1.8c1-9,2.5-18,5.1-26.9
	c2.9-9.9,7.4-19.8,14.9-27.3c2.5-2.7,5.6-5,9.1-6.2c3.5-1,7.6-0.8,10.5,1.4c2.3,1.9,3.7,5,4.1,7.9c0.8,5.4-0.6,11.2-2.1,16.3
	c-3.1,9.7-8.1,18.4-15.1,25.8c-2.9,3.3-6.4,6.2-10.3,8.7c5.4,1,7.9,5,9.9,9.3c0.6,1.4,1.2,2.9,1.9,4.8c2.6-0.7,9.2-7.2,13.5-11.4
	c0.1-4.1,0.9-8.1,2.6-11.7c2.1-5,6-9.3,11-11.4c4.8-2.3,11-2.1,15.3,1c3.7,2.7,6,7,6.6,11.4c0.6,4.8-0.8,9.9-4.1,13
	c-4.3,4.1-11,4.8-16.7,5c-1,11.6,2.9,17.4,9.5,16.7c4.1-0.4,16.5-16.5,25-24.8c1-1,2.3-2.1,3.5-3.1c0.6-0.4,1.2-0.8,1.9-1
	c0.6,0,1.4,0.2,1.9,0.6c0.4,0.6,0.4,1.2,0.2,1.7c-0.4,0.6-0.8,1.2-1.2,1.7c-8.3,9.7-20.9,24.6-25.8,27.9c-5,3.1-12,1.2-14.7,0.4
	c-4.8-1.4-8.5-5.2-11-9.3c-1.9-3.7-3.1-7.7-3.6-11.9c-3.8,3.7-8.6,7.8-12.4,9C251.9,321.7,252.9,335.2,252.5,342.6z M276.5,305
	c3.9,0.6,8.3,0.4,11.8-1c2.5-1.2,4.1-3.5,4.3-4.8c1.9-6,0-13.2-5.6-16.5c-4.3-2.5-6.6,3.7-7.9,6.6c-0.8,2.9-1.7,5.6-2.1,8.5
	C277.1,298.4,276.5,302.5,276.5,305z M236.4,296.7c2.7-1,8.7-7.2,11.4-10.7c6.8-8.7,11-18.2,12.2-29.1c0.4-3.3,0.2-6.6-1-9.7
	c-0.6-1.7-1.4-3.1-3.1-3.9c-3.5,0.8-6.4,6.6-7.6,8.7c-2.7,4.5-4.3,9.3-6,14.3C239.3,276.1,237.4,286,236.4,296.7z M235.1,314.9
	c3.7,2.1,6.4,1.9,9.7,0.6c-0.8-3.3-2.1-6.8-4.1-9.7c-0.8-1.2-3.9-3.3-4.8-3.5C235.7,306.7,235.3,310.8,235.1,314.9z M245.9,319.7
	c-1.2,0.4-2.5,0.6-3.7,0.6c-2.3,0.2-4.8,0.2-7-0.6c0,0.6,0,1,0,1.7c-0.2,8.5,0,17,1.4,25.4c0.6,3.9,1.2,8.1,3.1,11.8
	c0.4,1.2,1,2.7,2.3,3.5c1.4-0.8,2.1-2.5,2.7-3.7c1.7-3.9,2.7-7.9,3.1-12C248.4,339.3,248.4,325.3,245.9,319.7z M71.8,127.4
	c-1.5,0.7-2.7,1.5-3.9,2.6c-1.1,1.1-1.9,2.4-2.5,4.2c-0.8,2.1-0.3,3.6,1.4,4.6c1.5,0.9,3.1,1.2,5,0.7c1.8-0.5,3.2-1.4,4.2-2.9
	c2.6-4.2,6.3-5.5,11.1-3.8c1.8,0.7,3.6,1.4,5.2,2.1c1.7,0.7,3.5,1.4,5.4,2.1c0.8,5.5,1.6,11,2.5,16.4c0.9,5.4,1.7,11.1,2.7,17
	c-2.4,0.3-4.6,0.2-6.7-0.2c-1.1-0.1-2.1-0.3-3.1-0.5c-1-0.2-2.3-0.4-3.9-0.7c-1.1,0-2.1,0.1-3.3,0.4c-1.1,0.3-1.8,1.2-2.1,2.8
	c0,1.2,0.7,2.1,2,2.9c1.3,0.7,3,1.3,5,1.7s4.1,0.6,6.3,0.7c2.2,0.1,4.2,0,5.7-0.1c0.4,3.7,0.6,7.3,0.7,10.9c0.1,3.6,0,7.1-0.3,10.7
	c-0.3,4.6-0.9,9.2-1.8,13.7c-0.9,4.5-2.4,8.8-4.6,13.1c-0.7,1.6-1.5,3.1-2.6,4.5c-1.1,1.4-2.4,2.6-4,3.7c-1.9-1.7-3.3-3.9-4.3-6.4
	c-1-2.6-1.5-5.2-1.6-7.9c-0.1-2.7,0.3-5.3,1.2-7.8c0.9-2.5,2.2-4.6,4.1-6.3c1.7-1.3,3.1-2.1,4.1-2.3c1-0.2,2-0.5,3.1-0.9
	c0.4-0.1,0.5-0.4,0.4-0.7c-0.1-0.3-0.3-0.6-0.4-0.7c-1.1-1.3-2.2-2.1-3.4-2.3c-1.2-0.2-2.4-0.2-3.8,0.1c-3.3,0.4-6.4,1.9-9.3,4.6
	c-2.9,2.6-4.8,5.7-5.7,9.1c-1.3,5.5-1.1,11,0.6,16.2c1.5,4.5,3.9,7.7,7.3,9.7c3.4,2,7.5,2.5,12.1,1.6c4-0.9,7.6-2.5,10.9-4.8
	c3.3-2.2,5.9-5.1,7.7-8.5c2.4-4.1,4.2-8.5,5.3-13.3c1.5-5.3,2.2-10.6,2.2-15.9c0-5.3-0.3-10.7-0.8-16.1c-0.1-1.1-0.2-2.1-0.3-3.2
	c-0.1-1.1-0.2-2.1-0.3-3.2c0.9-0.3,1.6-0.5,2.2-0.7c0.5-0.2,1.1-0.4,1.8-0.7c3.6-1.2,6.7-2.6,9.3-4.3c2.6-1.6,5.4-3.6,8.3-5.8
	c1.3-1.1,1.8-2.3,1.6-3.9c-0.3-1.5-0.9-2.5-2-2.9c-0.9-0.4-1.9-0.5-2.8-0.3c-0.9,0.2-2.2,0.8-4,1.7c-2.2,1.5-4.7,2.9-7.3,4.5
	c-2.6,1.5-5.3,2.8-8.1,3.9c-1.6-9.4-3.1-18.5-4.6-27.3c1.6-0.3,3.2-0.5,4.8-0.6c1.6-0.1,3.2-0.3,4.8-0.6c5-1.1,9.3-2.9,12.9-5.6
	c3.6-2.7,6.5-6.5,8.9-11.4c2.1-4.4,1.8-8.6-1-12.9c-1.3-2.2-3.6-3.8-6.7-4.6c-3.2-0.8-5.9-0.6-8.3,0.6c-1.7,0.9-2,2.1-0.8,3.6
	c2.5,3,3,6.5,1.6,10.5c-0.4,1.1-0.8,2.1-1.3,3.2c-0.5,1.1-1,2-1.7,3c-2.2,3-4.8,5.2-7.7,6.6c-2.9,1.4-6.3,1.6-10.1,0.7
	c-1.5-0.3-2.8-0.6-4.1-1.1c-1.3-0.5-2.5-0.9-3.9-1.3c-1.5-0.5-2.8-1.1-4.1-1.7c-1.3-0.6-2.6-1.1-4.1-1.5
	C85.6,123.9,78.5,124.4,71.8,127.4z M184.1,229c-1.3-1.8-2.3-3.8-3.1-5.7c-0.7-2-1.3-4.1-1.7-6.3c-0.4-2.5-0.7-4.9-0.9-7
	c-0.2-2.2-0.4-4.1-0.7-5.8c-0.3,0.4-0.4,0.8-0.5,1.2c-0.1,0.4-0.2,0.8-0.5,1.2c-1.1,2.2-2.1,4.5-3.2,6.7c-1.1,2.2-2.1,4.5-3.2,6.7
	c-1.3,2.2-2.6,4.3-3.8,6.1c-2.2,3-5.1,5.1-8.7,6.1c-3.6,1.1-7.1,0.7-10.5-1c-1.2-0.5-2.5-1.9-4-4.2c-1.5-2.2-2.5-5.3-3.1-9.2
	c-0.6-3.9-0.6-8.6,0.1-14.3c0.7-5.6,2.4-12,5.3-19.3c0.5-1.2,1.3-2.5,2.2-4.1c0.9-1.5,2-3,3.2-4.5c1.2-1.5,2.4-2.7,3.7-3.9
	c1.3-1.1,2.4-2,3.5-2.7c3.4-2,7.1-3.2,10.9-3.6c3.8-0.4,7.7,0.2,11.7,1.8c0.4-2.1,1.3-3.3,2.8-3.6c1.1-0.3,2.1-0.4,3.1-0.3
	c1,0.1,2,0.4,3.1,1.1c0.5,0.4,0.9,1.1,1.2,2.2c0.1,0.9,0.2,1.8,0.2,2.6c0,0.8,0,1.7,0,2.6c-0.3,6.6-0.6,13.2-0.9,19.7
	c-0.3,6.5-0.3,13.1,0.1,19.7c0.3,3,0.7,6.1,1.2,9.1c0.5,3,2,5.7,4.4,7.9c2-0.9,4-3,5.9-6.3c2-3.3,3.9-7,5.7-11.1
	c1.2-2.5,2.4-5.1,3.6-7.8c1.2-2.7,2.2-5.2,3.2-7.4c0.9-2.2,1.7-4.3,2.4-6c0.4-1.1,0.8-2.1,1.1-2.8c-2.4-0.7-4.3-2-5.8-3.8
	c-1.9-2.5-3-5.6-3.3-9.3c-0.3-3.4,0.1-6.5,1-9.2c0.9-2.7,2.2-5.2,3.8-7.4c1.6-2.1,3.2-3.7,4.9-4.7c1.6-1,3.8-1.4,6.4-1.1
	c2,0.3,3.7,1.4,5.2,3.5c1.5,2,2.4,4.4,2.7,7c0.1,1.7,0.2,3.1,0.1,4.3c-0.1,1.1-0.2,2.2-0.5,3.3c-0.3,1.1-0.6,2.1-0.9,3.3
	c-0.3,1.1-0.8,2.5-1.3,4.1c-0.3,0.5-0.5,1-0.6,1.5c-0.1,0.5-0.3,1-0.6,1.7c0.7,0,1.3,0,1.9-0.1c0.6-0.1,1.2-0.1,1.9-0.1
	c2.2-0.3,4.1-0.4,5.5-0.5c1.5-0.1,3.2,0.4,5.3,1.3c4.9,2,7.6,5.6,8.1,10.9c0.3,2.5,0.2,4.8-0.3,6.9c-0.5,2.1-1,4.4-1.7,6.7
	c-0.8,2.6-1.6,5-2.3,7.1c-0.7,2.1-1.5,4.5-2.3,7.1c-0.4,1.5-0.8,2.8-1.2,4.1c-0.4,1.3-0.8,2.5-1.2,3.9c-0.3,1.2-0.4,2.5-0.5,4.1
	c-0.1,1.5,0.1,2.6,0.5,3.3c1.3-0.3,2.8-1,4.5-2.3c1.6-1.3,2.9-2.4,3.9-3.5c2-2.1,3.9-4.5,5.6-7.2c1.8-2.7,3.4-5.3,4.9-7.8
	c2.2-4.2,4-8.1,5.3-11.5c0.2-0.5,0.4-1,0.5-1.5c-0.2-1.2-0.3-2.4-0.5-3.6c-0.6-6.4-0.3-13,0.9-19.7c0.4-2.5,1.2-4.8,2.4-6.9
	c0.8-1.6,2.2-2.6,4.3-3.2c2-0.5,3.8-0.3,5.2,0.8c1.1,0.8,1.6,1.7,1.6,2.8c0.3,1.1,0.4,2.1,0.3,3.1c-0.1,1,0,2,0.1,3.1v2.8
	c0.3-0.7,0.5-1.1,0.7-1.4c0.2-0.3,0.4-0.5,0.5-0.8c2.6-5.8,5.9-11,9.9-15.4c2.5-2.6,5.1-4.9,7.9-6.7c3.7-2.5,7.8-3.2,12.3-2
	c2.2,0.5,4,1.5,5.2,2.8c1.3,1.3,1.9,3.1,2.1,5.3c0.1,3-0.1,6-0.6,8.9c-0.4,2.2-0.9,4.4-1.5,6.5c-0.6,2.1-1.2,4.4-1.9,6.9
	c0.5-0.7,1-1.2,1.3-1.6c0.3-0.4,0.7-0.9,1.1-1.4c1.7-2.1,3.5-4.1,5.4-5.8c1.9-1.8,4.1-3.4,6.4-4.9c2.2-1.3,4.5-2.3,6.8-2.9
	c2.3-0.6,4.7-0.8,7.2-0.5c3.7,0.3,6.4,1.6,8.2,3.9c1.8,2.3,2.3,5.2,1.7,8.8c-0.5,3-1.5,6.1-2.8,9.3c-1.2,2.6-2.4,5.2-3.8,7.6
	c-1.3,2.4-2.6,5-3.8,7.6c-1.5,3-2.9,6.1-4.3,9.3s-2.8,6.3-4.3,9.3c-0.9,2.2-1.5,4.5-1.8,6.7c-0.3,2.2,0.2,4.5,1.4,6.7
	c0.1,0,0.7-0.3,1.6-0.9c0.9-0.6,2.2-1.6,3.8-3c1.6-1.4,3.5-3.3,5.6-5.7c2.2-2.4,4.5-5.6,7-9.6c2-3.2,3.8-6.5,5.5-9.9
	c1.7-3.4,3.2-6.6,4.6-9.5c1.3-2.9,2.4-5.4,3.2-7.5c0.8-2.1,1.3-3.4,1.4-3.8c0.5-1.2,1.3-2.4,2.2-3.6c0.9-1.2,2.2-1.5,3.8-1
	c1.1,0.3,1.5,1.1,1.3,2.5c-0.2,1.4-0.4,2.3-0.7,2.9c-1.1,3.8-2.8,8.4-5.2,13.8c-2.4,5.3-5.2,10.8-8.2,16.3c-3.2,5.8-6.2,10.2-9,13.3
	c-2.8,3-5,5.2-6.4,6.5c-4.4,3.4-9.2,4.8-14.7,4c-2.4-0.3-4.4-1.1-6.1-2.6c-1.7-1.5-2.8-3.4-3.2-5.7c-0.4-2.6-0.4-5.2,0-7.7
	c0.4-2.5,0.9-5.1,1.6-7.7c1.2-4.1,2.8-8,4.8-11.8s4-7.6,5.9-11.4c0.8-1.5,1.6-2.9,2.5-4.3c0.9-1.4,1.6-2.8,2.3-4.3
	c0.7-1.3,1.2-2.7,1.6-4.1c0.4-1.4,0.8-2.8,1.2-4.3c0.3-0.9,0.4-1.9,0.4-2.9s-0.5-2-1.4-3.1c-0.7,0.3-1.2,0.6-1.7,0.9
	c-0.5,0.3-1,0.6-1.7,0.9c-2.5,1.5-4.8,3.1-6.9,5.1c-2.1,1.9-4,4.1-5.5,6.4c-2.9,4-5.4,8.2-7.4,12.6c-2,4.4-3.8,9-5.2,13.8
	c-0.5,2-1.7,3-3.4,3.2c-0.7,0-1.3,0-1.8,0c-0.5,0-1.1-0.1-1.6-0.2c-2.1-0.1-3.4-1.3-3.8-3.6c-0.7-3.2-1-6.4-1-9.6
	c0-3.2,0.3-6.4,1-9.6l4.8-22c0.3-1.5,0.5-2.9,0.6-4.4c0.1-1.5,0.1-3-0.2-4.8c-0.3,0.3-0.6,0.4-0.9,0.5c-0.3,0.1-0.6,0.2-0.9,0.5
	c-3,2.4-5.8,5-8.2,7.8c-2.4,2.8-4.6,6-6.4,9.6c-2.2,4.2-3.9,8.7-5,13.3c-1.1,4.6-1.9,9.3-2.6,14.1c-0.1,0.9-0.1,1.9,0.1,2.8
	c0.2,0.9,0.4,1.9,0.7,2.8c0.3,1.6,0.6,3.1,1.1,4.7c0.5,1.5,0.9,3.1,1.3,4.7c0.3,1.2,0.2,2-0.2,2.5c-0.4,0.5-1.2,0.8-2.4,1.1
	c-1.6,0.4-3.1,0.4-4.7,0.1c-1.5-0.3-2.8-1.3-3.9-2.9c-0.5-0.9-1.1-1.8-1.6-2.6c-0.5-0.8-1-1.7-1.4-2.6c-0.5-1.2-1-2.4-1.4-3.6
	c-0.5,0.9-0.9,1.7-1.4,2.6c-0.9,1.7-1.9,3.3-3.1,5c-1.1,1.7-2.3,3.5-3.7,5.4c-1.9,2.8-4,5.4-6.4,8c-2.4,2.6-5.2,4.6-8.4,6
	c-1.6,0.7-3.3,1.2-5.2,1.5c-1.9,0.3-3.8,0.2-5.7-0.3c-3.6-0.8-6.1-2.2-7.7-4.4c-1.6-2.1-2.4-5-2.4-8.7c0-2.2,0.2-4.5,0.5-6.6
	c0.3-2.2,0.8-4.4,1.3-6.6c0.9-3.7,1.9-6.9,2.9-9.6c1-2.7,2-5.9,3.1-9.6c0.4-1.5,0.6-3,0.7-4.6c0.1-1.6-0.3-3.1-1.1-4.6
	c-0.8,0.1-1.6,0.3-2.3,0.5c-0.7,0.2-1.5,0.3-2.3,0.3c-1.5,0.3-2.9,0.5-4.5,0.6c-0.2,0-0.3,0-0.5,0c-0.1,0.2-0.1,0.4-0.2,0.6
	c-3.8,11.5-7.4,20.6-10.6,27.2c-3.2,6.7-5.7,11.2-7.4,13.6c-1.7,2.2-3.6,3.9-5.6,4.9c-2,1-4.1,1.4-6,1.3c-2-0.1-3.9-0.7-5.7-1.8
	C187,232.3,185.4,230.9,184.1,229z M220.9,176.1c0.8-0.9,1.5-2.1,2.1-3.7c0.6-1.5,1-3.1,1.3-4.9c0.3-1.7,0.3-3.4,0.2-5.1
	c-0.1-1.6-0.6-3.1-1.4-4.3c-2,2-3.2,4.6-3.7,7.7C219,169.2,219.4,172.6,220.9,176.1z M179.5,173.6c-0.5-0.3-1-0.5-1.5-0.8
	c-0.5-0.3-1-0.5-1.7-0.8c-0.5-0.3-1.3-0.4-2.3-0.4s-1.8,0.2-2.5,0.6c-0.7,0.5-1.6,1.4-2.9,2.6c-1.3,1.2-2.3,2.4-3.1,3.8
	c-3.7,5.4-6.4,11.1-8.1,17.1c-1.7,6-2.7,12.2-3,18.7c-0.1,1.6-0.1,3.2,0.2,4.9c0.3,1.7,0.7,3.4,1.4,5.2c2.4-2.6,4.4-5.3,6-8
	c1.7-2.7,3.1-5.5,4.5-8.4c1.3-2.8,2.5-5.6,3.7-8.5c1.1-2.9,2.2-5.8,3.3-8.7c1.1-3,2.1-5.9,3.2-8.6
	C177.8,179.5,178.7,176.6,179.5,173.6z M179.9,381.2c-0.1,0.7-0.7,1.3-1.4,1.3c-0.1,0-0.1,0-0.2,0c-31.6-3.7-59.9-15.4-83.5-34
	c-0.7,0.2-1.4,0.5-2,0.8c-3.4,1.3-6.9,2.6-10.5,2.6c-2.1,0-4.2-0.4-6.5-1.6c-0.5-0.3-0.8-0.8-0.8-1.4c0.1-2.2,1.4-3.8,3.5-4.8
	c2.8-1.3,6.9-1.3,10.2-0.6c-3.1-2.7-6.2-5.6-9.1-8.6c-0.1,0.4-0.3,0.9-0.8,1.1c-2.7,1.3-10,3.5-15.8,3.5c-2.3,0-4.4-0.3-5.9-1.2
	c-1.6-0.9-2.5-2.2-2.7-3.9c-0.3-2.8,0.7-4.3,1.7-5.1c3.7-3.1,12.1-0.5,17.7,1.1c0.8,0.2,1.5,0.5,2.1,0.6c-3.8-4.1-7.3-8.3-10.7-12.8
	c0,0.1-0.1,0.2-0.1,0.4c0.2,0.3,0.2,0.6,0.2,0.9c-0.1,0.7-0.7,1.2-1.4,1.2c-0.1,0-0.1,0-0.2,0c-0.9-0.1-2.5-0.2-4.4-0.3
	c-9.9-0.4-19.9-1.2-23.4-5.6c-1-1.3-1.4-2.8-1.1-4.5c0.3-1.8,1.3-3.2,3-4.1c4.1-2.3,11-1.1,13.8,0.1c4.1,1.6,7.5,4.5,10.3,7.3
	C58,308,54.4,302.2,51,296.1c0,0-0.1,0-0.1,0c-1.3,0-2.9,0-4.7,0.1c-2.1,0.1-4.4,0.2-6.8,0.2c-7.7,0-16.1-1-18.5-6.3
	c-0.3-0.6-0.1-1.4,0.5-1.8c8.2-5.7,21.7,0.6,28,4.9c-2.3-4.3-4.5-8.8-6.5-13.5c0,0-0.1,0-0.1,0c-0.7-0.2-1.1-0.8-1-1.5
	c-0.3-0.1-0.7-0.2-1.1-0.3c-0.5,0-1.1,0.1-1.6,0.1c-3.5,0.2-6.8,0.3-9.9,0.3c-6.7,0-12-0.7-13.5-3.5c-0.5-0.9-0.8-2.5,0.6-4.6
	c5.2-7.7,13.6-2.3,19.7,1.6c1.8,1.1,3.4,2.2,4.9,2.9c-0.6-1.4-1.2-2.8-1.7-4.3c-1.9-4.9-3.6-9.9-5.1-15c-0.1-0.1-0.2-0.2-0.3-0.3
	c0,0-0.1,0-0.1,0c-0.6,0-1.2-0.1-1.9-0.1c-12-0.5-24.8-1.6-25.2-7.9c-0.1-2,0.7-3.7,2.3-4.7c4.1-2.7,12.4-1.1,15.1,0.2
	c3.5,1.7,6.1,4.4,8.5,7.1c-1.3-4.7-2.4-9.4-3.3-14.1c-0.1,0-0.1,0-0.2,0c-0.7,0-1.3-0.5-1.4-1.2c-0.3-0.1-0.6-0.3-1-0.4
	c-9.8-4.5-20.3-9.8-21.2-15.5c-0.2-1.2-0.1-3,1.7-4.8c2.6-2.5,5.7-3,9-1.5c4.3,1.9,8.3,6.7,10.9,11.6c-0.6-3.9-1.1-7.8-1.5-11.7
	c-1.3-1.7-4.6-3.3-7.8-4.8C13,205.2,8,202.8,6.9,199c-0.5-1.7-0.2-3.5,0.9-5.4c1.9-3.2,4-4.8,6.4-4.7c4.3,0.2,7.8,6.1,10.5,11.6
	c-0.2-4.7-0.3-9.3-0.2-14c-4.2-3.5-17.6-17-16.6-24.9c0.2-2.1,1.5-3.8,3.6-4.7c2.5-1.1,4.9-0.9,7,0.6c3.4,2.3,5.6,7.6,6.9,12.8
	c0.3-3.1,0.6-6.1,1-9.2c-9-10.7-19.1-24.8-18.2-33.4c0.2-2.3,1.2-4.1,2.8-5.5c1.4-1.1,2.9-1.5,4.4-1.1c3.5,0.9,7,5.5,10.6,14.2
	c1.2,2.8,2.3,5.8,3.2,9.1c1.2-6,2.7-11.8,4.4-17.6c-0.1,0-0.2,0.1-0.3,0.1c0,0.5-0.2,1-0.6,1.3c-0.2,0.2-0.5,0.2-0.8,0.2
	c-0.5,0-0.9-0.2-1.2-0.6c-9.5-14-13.4-24.2-11.6-30.5c0.7-2.5,2.4-4.3,4.8-5.4c2-0.9,3.9-0.8,5.6,0c3.1,1.6,5.3,6,6.7,13.1
	c0.7,3.5,1.3,7.6,0.7,11.8c1.5-4.3,3.2-8.5,5-12.6c-0.1,0-0.2-0.1-0.3-0.2c-0.7-0.4-0.8-1.3-0.4-2c0,0,0,0,0-0.1
	c-4.2-13.4-8.1-30.7-4-38.4c1.1-2,2.7-3.4,4.7-3.9c1.7-0.5,3.2-0.2,4.5,0.8c2.9,2.2,4.3,7.8,4.3,17.2c0,3.1-0.1,6.5-0.7,9.9
	c2-3.6,4.1-7.2,6.3-10.6c-0.1-0.4-0.1-0.8,0.1-1.2c0.2-0.3,0.4-0.6,0.5-0.9c-3.5-5-4.6-16.3-3.1-24.2c1-5.4,3.2-8.8,6.2-9.9
	c0.6-0.2,1.3,0,1.6,0.5c3.2,4.3,2.3,12.9,1.7,18.6l-0.2,1.9c-0.2,1.9-0.5,4.2-1,6.6c2.6-3.5,5.3-6.9,8.1-10.2
	c1.3-6.4,9.3-23.4,15.3-24.4c1.7-0.3,3.9,0.4,5.1,5.1C92.6,47,82.2,55,72.8,60.4c-0.2,0.4-0.6,0.8-1.2,0.8c-0.1,0-0.1,0-0.2,0
	c-2.1,2.5-4.1,5.1-6.1,7.7c3.2-1.4,7.1-2.3,11.8-2.6c0.9-0.1,9.2-0.5,11,3.4c0.8,1.7,0.1,3.6-1.9,5.6c-3.1,3.1-6.4,4.1-9.6,4.1
	c-2.8,0-5.7-0.7-8.3-1.4c-2.7-0.7-5.3-1.4-7.8-1.4c0,0,0,0,0,0h0c-0.1,0-0.3,0-0.4-0.1C55.7,83,51.7,90,48.2,97.1
	c7.8-4,19.5-7.9,24.8-6.7c2.7,0.6,3.3,2.4,3.4,3.4c0.2,1.5-0.2,3.6-3.1,5.4c-6.1,3.7-20.2,3.8-26.7,2c-0.2,0.1-0.3,0.2-0.5,0.3
	c-2.4,5.3-4.6,10.7-6.6,16.2c0.2-0.2,0.4-0.3,0.7-0.5c5.6-3.7,14.7-4.7,19.7-3.2c0.5,0.1,0.9,0.5,1,1c0.3,1.3,0.3,3.3-1.9,5.3
	c-4.3,4-15.3,6.3-20.2,6.3c-0.8,0-1.5-0.1-1.9-0.2c-0.1,0-0.1,0-0.2-0.1c-2.4,7.9-4.4,16.1-5.9,24.4c2.9-5.1,7-10.6,11-11.4
	c1.4-0.3,3.4-0.2,5.2,2c0.6,0.7,0.8,1.6,0.7,2.5c-0.5,3.2-5.5,6.9-11.9,11.4c-2.1,1.5-4.2,3-4.7,3.6c-0.1,0.1-0.3,0.2-0.4,0.3
	c0,0.2,0,0.3,0,0.5c-0.1,0.5-0.4,0.8-0.8,1c0.2,0.6,0.1,1.2-0.4,1.7c-0.1,0.1-0.2,0.1-0.3,0.2c-0.5,4.4-1,8.8-1.2,13.2
	c3.6-4.8,9.2-9.4,13.2-11.5c5.6-2.9,8-1.2,8.8,0.1c0.7,1,1.3,2.7,0.3,5.1c-2.8,6.3-16.8,13.3-22.8,15c0,0.2,0,0.3,0,0.5
	c0,0.2,0.1,0.4,0,0.6c0,0.2,0,0.5,0,0.7c-0.1,5.5,0,11,0.3,16.5c2.8-3.8,7.2-7.5,10.8-9.2c4.7-2.2,6.6-0.4,7.4,0.8
	c0.9,1.5,1.1,3.2,0.4,4.8c-2.3,5.6-14.1,9.5-18.2,10.7c0,0.5,0.1,1,0.1,1.5c0,0.1,0,0.3,0,0.4c0.4,4.5,1,8.9,1.7,13.3
	c2.7-6.5,7.4-15.6,12.5-17.3c1.7-0.6,3.4-0.3,4.8,0.8c1.1,0.8,1.7,1.9,1.8,3.2c0.3,4.6-6.1,11.1-11.9,16.8c-2.4,2.4-4.9,4.9-5.6,6.1
	c0.8,4,1.7,7.9,2.7,11.8c1.2-2.8,2.9-5.4,4.2-7.3l0.5-0.8c2.9-4.4,8.5-11.8,12.6-11.4c1,0.1,2.3,0.6,3.2,2.6
	c3,7.1-9.1,17.3-9.2,17.4c-1.1,0.9-2.3,1.8-3.4,2.6c-1.9,1.5-3.8,2.8-5.4,4.6c0,0.2,0,0.3,0,0.5c0,0.2,0,0.4,0,0.6
	c1.5,4.8,3.1,9.6,4.9,14.3c0.3,0.9,0.7,1.8,1,2.6c0.4-1.3,0.7-2.6,1-3.9c0.7-3.1,1.4-6.3,3.4-9.7c3.3-5.6,10.2-9.4,13.8-7.4
	c1.4,0.8,3.4,3,0.3,9.1c-1.9,3.8-5.3,6.4-8.5,8.8c-3.2,2.5-6.3,4.9-7.7,8.3c1.6,3.8,3.3,7.5,5.2,11.1c2.6-7,11.1-16.1,16.7-18.3
	c2.9-1.1,4.6-0.4,5.5,0.5c1,0.9,1.5,2.1,1.4,3.5c-0.3,4.9-7.9,10.9-16.4,17.1c-0.8,0.6-1.6,1.2-2.2,1.6c-0.1,0.5-0.3,0.9-0.8,1.1
	c-0.3,0.1-0.6,0.3-0.8,0.4c0.1,0.2,0.2,0.5,0.2,0.7c2.7,4.8,5.5,9.4,8.6,13.9c0.4-2.7,1.3-5.4,2.4-7.5c2.3-4.3,5.5-7.1,8.6-7.6
	c1.8-0.3,3.1,0.1,3.8,1.2c1.5,2.3-0.7,6.3-3.5,10.9c-0.3,0.5-0.6,0.9-0.8,1.3c-0.4,0.7-0.8,1.5-1.3,2.4c-1.1,2.3-2.4,4.8-4.2,6.5
	c3.1,4.1,6.4,8.1,9.9,11.8c-0.7-3.5,0-7.9,2-11.3c1.9-3.2,4.6-5.3,7.6-5.8c0.6-0.1,1.3,0.3,1.6,0.9c2.8,6.7-2.7,14.9-8.1,19.5
	c3.4,3.6,7,7,10.7,10.2c-0.4-1.8-0.8-3.6-0.6-5.5c0.1-1.5,1.7-7.5,4.9-8.9c1.2-0.6,2.5-0.4,3.7,0.4c3.5,2.4,0.5,10-3.3,17.9
	c23.3,18.6,51.4,30.4,82.7,34C179.4,379.7,180,380.4,179.9,381.2z M46.2,271c1.5-1.5,3.2-2.8,4.9-4.1c3.1-2.4,6-4.6,7.7-7.9
	c1.6-3.1,1.6-4.9,0.9-5.3c-0.2-0.1-0.5-0.2-0.9-0.2c-2.2,0-6.6,2.3-9,6.5c-1.7,3-2.4,5.8-3.1,8.8C46.5,269.6,46.4,270.3,46.2,271z
	 M28.5,206.8c5.3-1.6,13.7-5.2,15.2-8.7c0.3-0.8,0.2-1.4-0.2-2.1c-0.2-0.3-0.6-0.5-1.1-0.5c-1,0-2.2,0.5-2.7,0.8
	C35.4,198.2,30.4,203.2,28.5,206.8z M27.8,181.3c5.7-2,17.5-8.2,19.7-13.1c0.5-1.2,0.3-1.8,0-2.3c-0.2-0.3-0.6-0.4-1.2-0.4
	c-1,0-2.4,0.4-4,1.3C36.6,169.8,29.8,176.5,27.8,181.3z M32.2,154.3c0.6-0.4,1.2-0.8,1.9-1.3c3.6-2.5,10.4-7.2,10.7-9.5
	c-0.7-1.1-1.4-1.3-1.9-1.3c-0.2,0-0.3,0-0.4,0.1C39.1,142.9,34.9,149.2,32.2,154.3z M50.6,99.2c6.3,0.8,16.6,0.4,21.2-2.4
	c1.9-1.2,1.8-2.2,1.7-2.6c0-0.2-0.1-0.7-1.2-1C67.8,92.2,57.6,95.8,50.6,99.2z M74,55.4c0.1,0.1,0.2,0.1,0.4,0.2
	c0.1,0.1,0.2,0.2,0.3,0.3c9.5-6,14.3-11.9,13.2-16.4c-0.2-0.9-0.8-2.9-1.7-2.9c0,0-0.1,0-0.1,0C82.6,37.1,76.5,48.7,74,55.4z
	 M62.8,73.8c2.1,0.3,4.2,0.8,6.2,1.3c5.7,1.5,10.6,2.8,15.2-1.9c1.2-1.3,1.5-2.1,1.3-2.4c-0.5-1.1-4.4-1.9-8.2-1.7
	C70.8,69.5,65.9,71.1,62.8,73.8z M58.4,71.6c1.2-3.4,1.7-7.2,1.9-10.1l0.2-2C61,55,61.8,47.8,60,44c-1.5,1.2-2.6,3.7-3.3,7.2
	C55.4,58,56.2,66.9,58.4,71.6z M43,98.4c4.2-6.1,4.7-14.2,4.7-20.7c0-11.3-2.2-14.2-3.1-14.9c-0.4-0.3-0.7-0.4-1.2-0.4
	c-0.2,0-0.5,0-0.8,0.1c-1.3,0.4-2.3,1.2-3,2.5C38.1,68,36.5,76.3,43,98.4z M38.2,123.9c3,0.2,14.9-1.8,18.8-5.6c0.7-0.7,1-1.2,1-1.7
	c-4.4-0.9-11.8,0.1-16.3,3.1C40,120.9,38.8,122.3,38.2,123.9z M34.2,124.6C34.2,124.6,34.2,124.6,34.2,124.6c0.1,0,0.1-0.1,0.1-0.2
	C34.3,124.5,34.3,124.5,34.2,124.6z M33.3,105.6c-1.6-8.1-4-10.4-5.3-11.1c-0.4-0.2-0.9-0.4-1.4-0.4c-0.5,0-1.1,0.1-1.7,0.4
	c-1.7,0.7-2.7,1.9-3.2,3.6c-0.8,2.9-0.6,10,9.6,25.6C35.1,117.9,34.4,111,33.3,105.6z M24.1,182.3c0-5.6-2.3-19.1-7.3-22.5
	c-0.7-0.5-1.5-0.7-2.3-0.7c-0.6,0-1.3,0.2-2,0.5c-1.2,0.5-1.8,1.3-1.9,2.4C10.1,166.9,18.6,177.1,24.1,182.3z M25.1,208
	c-0.4-0.8-0.9-1.8-1.4-3c-2.2-4.6-6.2-13.1-9.6-13.2c0,0-0.1,0-0.1,0c-1.5,0-2.8,1.8-3.7,3.3c-0.7,1.2-0.9,2.2-0.6,3.1
	c0.8,2.6,5.3,4.8,9.3,6.7C21.2,205.9,23.3,206.9,25.1,208C25.1,208,25.1,208,25.1,208z M26.9,231.1c-1.6-5.5-6.9-13.9-12-16.2
	c-0.9-0.4-1.7-0.6-2.4-0.6c-1.3,0-2.4,0.5-3.4,1.5c-1,1-1,1.7-0.9,2.2C8.8,222.6,20.9,228.3,26.9,231.1z M27.4,153.6
	c0.1-6-2-12.1-4.1-17.1c-4.4-10.4-7.5-12.2-8.7-12.5c-0.2,0-0.3-0.1-0.5-0.1c-0.5,0-0.9,0.2-1.4,0.6c-1,0.8-1.6,2-1.8,3.5
	c-0.3,3.4,1.4,11.6,15.9,29.3C27,156,27.2,154.8,27.4,153.6z M31,230.9c1.1-1.2,2.5-2.6,4.3-4.4c4.5-4.5,11.3-11.2,11-14.5
	c0-0.5-0.2-0.8-0.6-1.1c-0.5-0.3-0.9-0.5-1.4-0.5c-0.3,0-0.5,0-0.8,0.1c-4.6,1.5-10.1,13.4-12.5,20C31,230.7,31,230.8,31,230.9z
	 M30.7,252.3c-2.5-2.8-4.9-5.4-8.1-7c-1.3-0.6-4.6-1.4-7.6-1.4c-1.8,0-3.5,0.3-4.6,1c-0.8,0.5-1.1,1.2-1,2.2
	C9.6,251.1,24.4,252,30.7,252.3z M36.1,251c1.5-1.4,3.1-2.5,4.6-3.7c1.1-0.8,2.2-1.6,3.3-2.5c4.3-3.5,9.9-10.5,8.4-14.1
	c-0.4-0.8-0.7-0.9-0.8-0.9c0,0-0.1,0-0.1,0c-1.8,0-6,4.3-9.8,10.1l-0.5,0.8C39.3,243.3,36.5,247.6,36.1,251z M35.9,275.3
	c-0.5-0.3-1-0.6-1.5-1c-4.4-2.9-8.2-5.1-11.2-5.1c-1.8,0-3.3,0.8-4.6,2.6c-0.3,0.4-0.7,1.2-0.5,1.6
	C19.5,275.8,29.8,275.6,35.9,275.3z M44.2,293.4c-6.2-3.4-14.6-6.1-20-3.4C27.5,293.7,37.2,293.7,44.2,293.4z M52.4,291.5
	c0.8-0.7,1.9-1.5,3.3-2.5c4.9-3.6,15.1-11,15.3-15c0-0.5-0.1-0.8-0.5-1.2c-0.2-0.2-0.5-0.3-0.9-0.3c-0.5,0-1.1,0.2-1.6,0.4
	C62.2,275.1,53.3,285.9,52.4,291.5z M61.8,317.5c-2.9-3.2-6.7-6.8-11.3-8.7c-1.4-0.6-4.1-1.1-6.7-1.1c-1.7,0-3.4,0.2-4.6,0.9
	c-0.9,0.5-1.4,1.2-1.6,2.1c-0.2,0.8,0,1.5,0.5,2.2c2.9,3.7,14.9,4.2,21.3,4.5C60.3,317.5,61.1,317.5,61.8,317.5z M65.8,314
	c1.3-1.4,2.4-3.6,3.3-5.5c0.5-0.9,0.9-1.9,1.4-2.6c0.2-0.4,0.5-0.8,0.8-1.3c2.7-4.4,3.9-7,3.6-7.8c0,0-0.1,0-0.4,0
	c-0.2,0-0.4,0-0.7,0.1c-2.3,0.3-4.7,2.6-6.5,6.1c-1.9,3.7-2.7,7.8-2,10.4C65.5,313.5,65.7,313.8,65.8,314z M76,333.9
	c-0.8-0.2-1.8-0.5-3-0.8c-3-0.9-8.3-2.5-11.9-2.5c-1.4,0-2.5,0.2-3.2,0.8c-0.2,0.2-0.9,0.7-0.6,2.5c0.1,0.8,0.5,1.3,1.2,1.7
	C62.1,337.5,71.3,335.6,76,333.9z M80.3,327.8c3.7-3.7,7-9.1,6-13.6c-1.7,0.6-3.2,2-4.4,4C80.2,321.2,79.6,325,80.3,327.8z
	 M90.7,346.9c-2.9-1.1-8.1-1.6-10.9-0.3c-1,0.5-1.4,1-1.7,1.5C82.3,349.8,86.4,348.5,90.7,346.9z M97.6,330
	c-0.2-0.2-0.4-0.2-0.6-0.2c-0.1,0-0.2,0-0.3,0.1c-1.5,0.7-3,4.8-3.2,6.6c-0.2,1.8,0.3,3.6,0.7,5.6c0,0.1,0,0.1,0,0.2
	C99.1,331.8,97.9,330.2,97.6,330z M403,235.7c-1,4.7-2.1,9.4-3.3,14.1c2.4-2.7,5-5.4,8.5-7.1c2.6-1.3,11-2.9,15.1-0.2
	c1.6,1.1,2.4,2.7,2.3,4.7c-0.4,6.3-13.2,7.4-25.2,7.9c-0.7,0-1.3,0.1-1.9,0.1c0,0-0.1,0-0.1,0c-0.1,0.1-0.2,0.2-0.3,0.3
	c-1.5,5-3.2,10-5.1,15c-0.6,1.4-1.1,2.9-1.7,4.3c1.4-0.7,3.1-1.8,4.9-2.9c6.1-3.9,14.5-9.3,19.7-1.6c1.5,2.1,1.1,3.7,0.6,4.6
	c-1.5,2.7-6.8,3.5-13.5,3.5c-3.1,0-6.4-0.2-9.9-0.3c-0.6,0-1.1-0.1-1.6-0.1c-0.4,0.1-0.7,0.2-1.1,0.3c0,0.7-0.4,1.3-1,1.5
	c0,0-0.1,0-0.1,0c-2,4.6-4.2,9.1-6.5,13.5c6.4-4.3,19.8-10.6,28-4.9c0.6,0.4,0.8,1.1,0.5,1.8c-2.4,5.4-10.8,6.3-18.5,6.3
	c-2.4,0-4.7-0.1-6.8-0.2c-1.8-0.1-3.4-0.1-4.7-0.1c0,0-0.1,0-0.1,0c-3.4,6.1-7,11.9-10.9,17.4c2.8-2.8,6.3-5.6,10.3-7.3
	c2.8-1.1,9.7-2.3,13.8-0.1c1.6,0.9,2.7,2.3,3,4.1c0.3,1.7-0.1,3.2-1.1,4.5c-3.5,4.3-13.5,5.1-23.4,5.6c-1.9,0.1-3.5,0.2-4.4,0.3
	c-0.1,0-0.1,0-0.2,0c-0.7,0-1.3-0.5-1.4-1.2c0-0.3,0-0.6,0.2-0.9c-0.1-0.1-0.1-0.2-0.1-0.4c-3.4,4.5-7,8.8-10.7,12.8
	c0.6-0.2,1.3-0.4,2.1-0.6c5.6-1.7,14-4.2,17.7-1.1c0.9,0.8,2,2.3,1.7,5.1c-0.2,1.7-1.1,3-2.7,3.9c-1.5,0.8-3.6,1.2-5.9,1.2
	c-5.9,0-13.1-2.2-15.8-3.5c-0.4-0.2-0.7-0.6-0.8-1.1c-2.9,3-6,5.9-9.1,8.6c3.3-0.7,7.4-0.7,10.2,0.6c2.2,1,3.4,2.7,3.5,4.8
	c0,0.6-0.3,1.1-0.8,1.4c-2.2,1.1-4.4,1.6-6.5,1.6c-3.6,0-7.1-1.3-10.5-2.6c-0.7-0.3-1.4-0.5-2-0.8c-23.5,18.6-51.9,30.4-83.5,34
	c-0.1,0-0.1,0-0.2,0c-0.7,0-1.3-0.5-1.4-1.3c-0.1-0.8,0.5-1.5,1.3-1.6c31.4-3.6,59.5-15.4,82.7-34c-3.8-7.9-6.8-15.5-3.3-17.9
	c1.2-0.8,2.5-1,3.7-0.4c3.2,1.5,4.7,7.4,4.9,8.9c0.2,1.9-0.2,3.8-0.6,5.5c3.7-3.2,7.3-6.6,10.7-10.2c-5.4-4.6-10.9-12.8-8.1-19.5
	c0.3-0.6,0.9-1,1.6-0.9c3,0.5,5.7,2.5,7.6,5.8c2,3.5,2.8,7.8,2,11.3c3.4-3.8,6.7-7.7,9.9-11.8c-1.8-1.7-3-4.2-4.2-6.5
	c-0.4-0.9-0.9-1.7-1.3-2.4c-0.2-0.3-0.5-0.8-0.8-1.3c-2.8-4.6-5.1-8.6-3.5-10.9c0.7-1.1,2-1.5,3.8-1.2c3.2,0.5,6.3,3.3,8.6,7.6
	c1.1,2.1,2.1,4.8,2.4,7.5c3-4.4,5.9-9.1,8.6-13.9c0-0.3,0.1-0.5,0.2-0.7c-0.3-0.1-0.6-0.2-0.8-0.4c-0.5-0.2-0.7-0.7-0.8-1.1
	c-0.7-0.5-1.4-1-2.2-1.6c-8.5-6.2-16.2-12.2-16.4-17.1c-0.1-1.3,0.4-2.5,1.4-3.5c0.9-0.8,2.6-1.6,5.5-0.5
	c5.6,2.2,14.1,11.3,16.7,18.3c1.8-3.6,3.5-7.3,5.2-11.1c-1.4-3.4-4.5-5.8-7.7-8.3c-3.2-2.5-6.6-5-8.5-8.8c-3.1-6.1-1.2-8.3,0.3-9.1
	c3.6-1.9,10.5,1.8,13.8,7.4c1.9,3.3,2.7,6.5,3.4,9.7c0.3,1.3,0.6,2.6,1,3.9c0.3-0.9,0.7-1.7,1-2.6c1.8-4.7,3.4-9.5,4.9-14.3
	c-0.1-0.2-0.1-0.4,0-0.6c0-0.2,0-0.3,0-0.5c-1.6-1.7-3.5-3.1-5.4-4.6c-1.1-0.8-2.3-1.7-3.4-2.6c-0.1-0.1-12.2-10.2-9.2-17.4
	c0.8-2,2.2-2.5,3.2-2.6c4.1-0.4,9.7,7,12.6,11.4l0.5,0.8c1.3,1.9,3,4.5,4.2,7.3c1-3.9,1.9-7.9,2.7-11.8c-0.7-1.2-3.2-3.7-5.6-6.1
	c-5.7-5.7-12.2-12.2-11.9-16.8c0.1-1.3,0.7-2.4,1.8-3.2c1.5-1.1,3.1-1.4,4.8-0.8c5.1,1.7,9.8,10.8,12.5,17.3
	c0.7-4.4,1.3-8.9,1.7-13.3c0-0.1,0-0.3,0-0.4c0-0.5,0.1-1,0.1-1.5c-4.1-1.2-15.9-5.1-18.2-10.7c-0.7-1.6-0.5-3.3,0.4-4.8
	c0.8-1.2,2.8-3,7.4-0.8c3.6,1.7,8,5.4,10.8,9.2c0.3-5.5,0.4-11,0.3-16.5c-0.1-0.2-0.1-0.5,0-0.7c0-0.2,0-0.4,0-0.6
	c0-0.2,0-0.3,0-0.5c-5.9-1.7-19.9-8.8-22.8-15c-1.1-2.3-0.4-4,0.3-5.1c0.9-1.3,3.2-3,8.8-0.1c4,2.1,9.7,6.7,13.2,11.5
	c-0.3-4.4-0.7-8.8-1.2-13.2c-0.1,0-0.2-0.1-0.3-0.2c-0.5-0.4-0.6-1.1-0.4-1.7c-0.4-0.2-0.7-0.5-0.8-1c0-0.2-0.1-0.3,0-0.5
	c-0.2-0.1-0.3-0.2-0.4-0.3c-0.5-0.6-2.7-2.1-4.7-3.6c-6.5-4.5-11.5-8.2-11.9-11.4c-0.1-0.9,0.1-1.8,0.7-2.5c1.8-2.2,3.8-2.3,5.2-2
	c4,0.8,8.1,6.3,11,11.4c-1.5-8.3-3.5-16.4-5.9-24.4c-0.1,0-0.1,0.1-0.2,0.1c-0.4,0.1-1.1,0.2-1.9,0.2c-4.9,0-15.9-2.3-20.2-6.3
	c-2.1-2-2.2-4-1.9-5.3c0.1-0.5,0.5-0.9,1-1c5-1.4,14-0.5,19.7,3.2c0.2,0.2,0.4,0.3,0.7,0.5c-2-5.5-4.1-10.9-6.6-16.2
	c-0.2-0.1-0.3-0.2-0.5-0.3c-6.5,1.8-20.6,1.6-26.7-2c-2.9-1.8-3.3-3.9-3.1-5.4c0.1-1,0.7-2.8,3.4-3.4c5.2-1.3,17,2.7,24.8,6.7
	c-3.5-7.2-7.5-14.1-11.9-20.7c-0.1,0-0.3,0.1-0.4,0.1h0c0,0,0,0,0,0c-2.5,0-5.1,0.7-7.8,1.4c-2.7,0.7-5.5,1.4-8.3,1.4
	c-3.3,0-6.5-1-9.6-4.1c-2-2.1-2.7-4-1.9-5.6c1.7-3.8,10-3.4,11-3.4c4.7,0.3,8.6,1.2,11.8,2.6c-1.9-2.6-4-5.2-6.1-7.7
	c-0.1,0-0.1,0-0.2,0c-0.5,0-1-0.4-1.2-0.8c-9.3-5.4-19.8-13.4-17.8-21.6c1.1-4.7,3.4-5.3,5.1-5.1c6,1,14.1,18,15.3,24.4
	c2.8,3.3,5.5,6.7,8.1,10.2c-0.5-2.4-0.8-4.7-1-6.6l-0.2-1.9c-0.6-5.7-1.5-14.4,1.7-18.6c0.4-0.5,1-0.7,1.6-0.5
	c3,1.1,5.1,4.5,6.2,9.9c1.5,7.9,0.5,19.2-3.1,24.2c0.2,0.3,0.3,0.6,0.5,0.9c0.2,0.4,0.3,0.8,0.1,1.2c2.2,3.4,4.3,7,6.3,10.6
	c-0.5-3.4-0.7-6.9-0.7-9.9c0-9.4,1.4-15,4.3-17.2c1.3-1,2.8-1.2,4.5-0.8c2,0.6,3.6,1.9,4.7,3.9c4.2,7.7,0.2,25-4,38.4c0,0,0,0,0,0.1
	c0.4,0.7,0.3,1.6-0.4,2c-0.1,0.1-0.2,0.1-0.3,0.2c1.8,4.1,3.4,8.3,5,12.6c-0.6-4.2,0-8.3,0.7-11.8c1.4-7.1,3.7-11.4,6.7-13.1
	c1.7-0.9,3.6-0.9,5.6,0c2.5,1.1,4.1,2.9,4.8,5.4c1.8,6.3-2.1,16.5-11.6,30.5c-0.3,0.4-0.7,0.6-1.2,0.6c-0.3,0-0.6-0.1-0.8-0.2
	c-0.4-0.3-0.7-0.8-0.6-1.3c-0.1,0-0.2,0-0.3-0.1c1.7,5.8,3.2,11.7,4.4,17.6c0.8-3.3,2-6.3,3.2-9.1c3.6-8.7,7.1-13.3,10.6-14.2
	c1.6-0.4,3.1,0,4.4,1.1c1.7,1.3,2.6,3.2,2.8,5.5c0.8,8.6-9.3,22.7-18.2,33.4c0.4,3,0.7,6.1,1,9.2c1.3-5.2,3.4-10.5,6.9-12.8
	c2.1-1.4,4.5-1.6,7-0.6c2.1,0.9,3.4,2.5,3.6,4.7c0.9,7.9-12.5,21.4-16.6,24.9c0.1,4.7,0,9.3-0.2,14c2.7-5.5,6.2-11.4,10.5-11.6
	c2.5-0.1,4.5,1.5,6.4,4.7c1.1,1.9,1.4,3.7,0.9,5.4c-1.2,3.8-6.1,6.1-10.8,8.4c-3.2,1.5-6.5,3.1-7.8,4.8c-0.4,3.9-0.9,7.8-1.5,11.7
	c2.7-4.9,6.7-9.8,10.9-11.6c3.4-1.5,6.5-0.9,9,1.5c1.8,1.8,1.9,3.6,1.7,4.8c-1,5.7-11.5,11-21.2,15.5c-0.3,0.2-0.7,0.3-1,0.4
	c-0.1,0.7-0.7,1.2-1.4,1.2C403.1,235.7,403.1,235.7,403,235.7z M405.1,231.1c6-2.8,18.1-8.5,18.8-13c0.1-0.5,0.1-1.3-0.9-2.2
	c-1.1-1-2.2-1.5-3.4-1.5c-0.8,0-1.6,0.2-2.4,0.6C412,217.2,406.7,225.5,405.1,231.1z M407.9,182.3c5.4-5.2,14-15.4,13.4-20.4
	c-0.1-1.1-0.7-1.9-1.9-2.4c-0.7-0.3-1.3-0.5-2-0.5c-0.8,0-1.5,0.2-2.3,0.7C410.2,163.2,407.9,176.7,407.9,182.3z M406.9,208
	C406.9,208,406.9,208,406.9,208c1.8-1.1,3.9-2.1,6.1-3.2c4-1.9,8.5-4.1,9.3-6.7c0.3-0.9,0.1-1.9-0.6-3.1c-0.9-1.5-2.3-3.3-3.7-3.3
	c0,0-0.1,0-0.1,0c-3.4,0.2-7.5,8.7-9.6,13.2C407.8,206.1,407.4,207.1,406.9,208z M358,55.4c-2.5-6.7-8.6-18.2-12-18.8
	c0,0-0.1,0-0.1,0c-0.9,0-1.5,2-1.7,2.9c-1.1,4.5,3.7,10.4,13.2,16.4c0.1-0.1,0.1-0.2,0.3-0.3C357.7,55.5,357.8,55.4,358,55.4z
	 M369.2,73.8c-3.1-2.7-7.9-4.3-14.5-4.7c-3.8-0.2-7.7,0.6-8.2,1.7c-0.2,0.3,0.1,1.2,1.3,2.4c4.6,4.7,9.5,3.4,15.2,1.9
	C365,74.6,367.1,74.1,369.2,73.8z M373.6,71.6c2.1-4.7,3-13.6,1.7-20.4c-0.7-3.5-1.8-6-3.3-7.2c-1.8,3.8-1,11-0.5,15.5l0.2,2
	C372,64.4,372.5,68.1,373.6,71.6z M381.4,99.2c-7-3.4-17.2-7-21.7-5.9c-1.2,0.3-1.2,0.7-1.2,1c0,0.4-0.2,1.4,1.7,2.6
	C364.8,99.6,375.1,100,381.4,99.2z M389,98.4c6.6-22.1,5-30.4,3.3-33.4c-0.7-1.3-1.7-2.2-3-2.5c-0.3-0.1-0.6-0.1-0.8-0.1
	c-0.4,0-0.8,0.1-1.2,0.4c-0.9,0.7-3.1,3.6-3.1,14.9C384.3,84.2,384.8,92.3,389,98.4z M393.8,123.9c-0.5-1.6-1.7-3-3.5-4.1
	c-4.6-3-11.9-4-16.3-3.1c0.1,0.5,0.3,1,1,1.7C378.8,122.1,390.7,124,393.8,123.9z M397.8,124.6c0-0.1-0.1-0.1-0.1-0.2
	C397.7,124.5,397.7,124.6,397.8,124.6C397.8,124.6,397.8,124.6,397.8,124.6z M400.7,123.8c10.2-15.6,10.4-22.7,9.6-25.6
	c-0.5-1.7-1.5-2.9-3.2-3.6c-0.6-0.3-1.2-0.4-1.7-0.4c-0.5,0-1,0.1-1.4,0.4c-1.3,0.7-3.6,3-5.3,11.1
	C397.6,111,396.9,117.9,400.7,123.8z M399.8,154.3c-2.7-5.1-6.9-11.4-10.2-12.1c-0.1,0-0.3-0.1-0.4-0.1c-0.5,0-1.2,0.3-1.9,1.3
	c0.3,2.3,7.1,7,10.7,9.5C398.6,153.5,399.3,153.9,399.8,154.3z M404.2,181.3c-2.1-4.8-8.8-11.6-14.5-14.5c-1.6-0.8-3-1.3-4-1.3
	c-0.6,0-1,0.1-1.2,0.4c-0.3,0.4-0.6,1.1,0,2.3C386.7,173.2,398.5,179.3,404.2,181.3z M405.2,157.3c14.5-17.7,16.2-25.9,15.9-29.3
	c-0.1-1.5-0.7-2.7-1.8-3.5c-0.5-0.4-0.9-0.6-1.4-0.6c-0.2,0-0.3,0-0.5,0.1c-1.2,0.3-4.3,2.1-8.7,12.5c-2.1,5-4.2,11.1-4.1,17.1
	C404.8,154.8,405,156,405.2,157.3z M403.5,206.8c-1.9-3.6-6.9-8.5-11.2-10.6c-0.5-0.2-1.7-0.8-2.7-0.8c-0.5,0-0.9,0.1-1.1,0.5
	c-0.5,0.7-0.5,1.4-0.2,2.1C389.7,201.6,398.2,205.2,403.5,206.8z M385.8,271c-0.2-0.7-0.3-1.4-0.5-2c-0.7-3-1.3-5.9-3.1-8.8
	c-2.4-4.2-6.9-6.5-9-6.5c-0.4,0-0.6,0.1-0.9,0.2c-0.7,0.4-0.7,2.2,0.9,5.3c1.6,3.2,4.6,5.5,7.7,7.9
	C382.6,268.2,384.3,269.5,385.8,271z M338.5,336.4c-0.2-1.8-1.7-5.9-3.2-6.6c-0.1,0-0.2-0.1-0.3-0.1c-0.1,0-0.3,0.1-0.6,0.2
	c-0.3,0.2-1.5,1.8,3.3,12.2c0-0.1,0-0.1,0-0.2C338.2,340,338.6,338.2,338.5,336.4z M341.3,346.9c4.3,1.6,8.4,2.9,12.6,1.2
	c-0.2-0.5-0.7-1.1-1.7-1.5C349.4,345.2,344.2,345.7,341.3,346.9z M350.1,318.3c-1.2-2-2.7-3.4-4.4-4c-1,4.5,2.3,9.8,6,13.6
	C352.4,325,351.8,321.2,350.1,318.3z M356,333.9c4.7,1.7,13.9,3.6,17.4,1.7c0.8-0.4,1.1-0.9,1.2-1.7c0.2-1.8-0.4-2.3-0.6-2.5
	c-0.7-0.6-1.8-0.8-3.2-0.8c-3.6,0-8.9,1.6-11.9,2.5C357.8,333.4,356.8,333.7,356,333.9z M364.7,302.9c-1.8-3.5-4.3-5.8-6.5-6.1
	c-0.3,0-0.5-0.1-0.7-0.1c-0.2,0-0.4,0-0.4,0c-0.3,0.8,0.9,3.4,3.6,7.8c0.3,0.5,0.6,1,0.8,1.3c0.4,0.8,0.9,1.7,1.4,2.6
	c0.9,1.9,2,4.1,3.3,5.5c0.2-0.2,0.3-0.5,0.5-0.7C367.4,310.7,366.6,306.6,364.7,302.9z M370.2,317.5c0.7,0,1.5-0.1,2.4-0.1
	c6.4-0.3,18.3-0.8,21.3-4.5c0.5-0.6,0.7-1.3,0.5-2.2c-0.2-0.9-0.7-1.6-1.6-2.1c-1.2-0.7-2.9-0.9-4.6-0.9c-2.6,0-5.3,0.6-6.7,1.1
	C377,310.7,373.2,314.3,370.2,317.5z M379.6,291.5c-0.9-5.6-9.8-16.3-15.6-18.6c-0.5-0.2-1.1-0.4-1.6-0.4c-0.4,0-0.7,0.1-0.9,0.3
	c-0.4,0.3-0.5,0.7-0.5,1.2c0.2,3.9,10.4,11.4,15.3,15C377.6,290,378.8,290.8,379.6,291.5z M387.8,293.4c7,0.3,16.8,0.3,20-3.4
	C402.3,287.4,394,290,387.8,293.4z M396.1,275.3c6.1,0.3,16.4,0.5,17.7-1.8c0.2-0.4-0.2-1.2-0.5-1.6c-1.3-1.9-2.8-2.6-4.6-2.6
	c-3,0-6.7,2.2-11.2,5.1C397.1,274.7,396.6,275,396.1,275.3z M395.9,251c-0.4-3.4-3.2-7.7-5-10.3l-0.5-0.8c-3.8-5.8-8-10.1-9.8-10.1
	c0,0-0.1,0-0.1,0c-0.1,0-0.4,0-0.8,0.9c-1.5,3.6,4.1,10.5,8.4,14.1c1.1,0.9,2.2,1.7,3.3,2.5C392.8,248.4,394.4,249.6,395.9,251z
	 M401.3,252.3c6.3-0.3,21.1-1.2,21.3-5.2c0.1-1-0.3-1.7-1-2.2c-1.1-0.7-2.8-1-4.6-1c-3,0-6.3,0.7-7.6,1.4
	C406.1,246.9,403.7,249.5,401.3,252.3z M401,230.6c-2.4-6.6-7.9-18.5-12.5-20c-0.3-0.1-0.6-0.1-0.8-0.1c-0.5,0-0.9,0.2-1.4,0.5
	c-0.4,0.3-0.6,0.6-0.6,1.1c-0.2,3.3,6.5,10,11,14.5c1.8,1.8,3.2,3.2,4.3,4.4C401,230.8,401,230.7,401,230.6z M159.8,71.5
	c0-0.2-0.2-0.5-0.3-0.7c0-1.6,0-3.1,0-4.7c0.1-0.2,0.2-0.5,0.2-0.7c-0.3-4.4,1.1-8.5,2.4-12.7c0.2-0.6,0.9-1.1,1.3-1.7
	c0.5-0.6,1.1-1.2,1.5-1.9c0.4-0.8,0.9-1.1,1.9-1.2c1.3-0.1,2.8-0.6,3.9-1.2c2.1-1.2,3.9-2.5,6.6-2.4c1.7,0,3.5-1.1,5.3-1.5
	c1-0.2,2.1,0.1,3.1,0c2.7-0.3,4.8,1.3,7.1,2.1c2.5,0.8,5.2,0.9,7.8,1.4c6.7,1.3,13.4,2.6,20.1,4.1c2.9,0.6,5.6,0.8,8.5,0.1
	c1.2-0.3,2.5-0.3,3.7-0.2c7.7,0.6,15.5,1.2,23.2,1.8c1.1,0.1,2.3,0.1,3.2,0.6c4.2,2.4,8.6,2.1,13.1,1.1c2-0.5,4.1-0.6,6.1-1.1
	c1.5-0.3,2.9-0.8,4.3-1.4c1.3-0.5,2.4-0.8,3.8-0.3c0.6,0.2,1.5,0,2.2-0.2c1.2-0.5,2.3-1.1,3.4-1.8c0.4-0.2,0.8-0.7,0.8-1.1
	c-0.1-1.3,0.8-1.5,1.7-1.8c1.6-0.5,3.2-1,5.3-1.6c-0.5,0.7-0.7,1-1,1.4c2,0.7,3.8,1.5,5.8,2.1c0.7,0.3,1.3,0.5,1.3,1.5
	c0,0.4,0.4,0.8,0.7,1.2c1,1.1,2,2.1,3,3.1c0.3,0.2,0.7,0.4,1.1,0.4c0.8,0,1.6-0.3,2.3-0.2c1.6,0.1,3.3,0.1,4.7,0.7
	c2.3,1,2.8,2.7,1.5,4.8c-0.9,1.4-1.4,2.9-1.5,4.5c-0.1,1.8-1.5,2.8-3.3,2.4c-0.7-0.1-1.4-0.4-2.2-0.6c-0.8,2.1-0.7,4.1,0.4,6
	c0.9,1.5,1.7,3,2.7,4.4c1.4,2.2,2.1,4.7,2,7.3c0,0.5-0.3,1.3-0.7,1.5c-2.6,1.6-5.2,3.2-8.5,2.3c-0.2-0.1-0.5,0-0.8,0.1
	c-3.6,1.6-7.3,1-10.9,0.3c-1.9-0.3-3.4,0.1-4.8,1.2c-4.8,4.1-8.9,8.6-10.9,14.8c-0.5,1.7-1.3,3.4-2.1,5c-0.3,0.6-0.7,1.2-1.3,1.6
	c-2.7,2.1-5.3,4.3-8.1,6.2c-2.8,1.9-4.7,4.3-5.5,7.5c-1.4,5.4-2.8,10.8-3.8,16.3c-0.5,2.9-0.3,5.9-0.4,8.9c0,2,1.4,3,3,3.7
	c1.4,0.6,2.4,1.8,2.3,3.3c-0.1,1.5-1.3,1.9-2.4,2c-1.6,0.2-3.4,0.3-5,0c-4.4-0.8-8.7-0.5-13.1-0.6c-2.9,0-3.5-0.7-3.3-3.6
	c0.1-1.5,0.4-2.9,1.4-4.3c1.8-2.3,1.6-5.2,1.2-8c-0.1-1-0.4-2.1-0.8-3c-2.8-5.5-3.1-11.6-4.1-17.6c-0.3-1.8-0.5-3.7-0.8-5.6
	c-0.5-3.2-2-4.4-5.3-4.3c-4.5,0.2-9.1,0.5-13.6,0.6c-5.3,0.2-10.5-0.8-15.5-2.4c-2.1-0.7-4-2.4-5.8-3.8c-3.1-2.5-3.9-2.3-5.1,1.5
	c-1.7,5.7-3.7,11.3-6.9,16.4c-2.5,3.9-2.2,8.3-1.7,12.6c0.6,4.8,1.7,9.6,2.7,14.4c0.1,0.6,0.7,1.1,1.1,1.5c1.3,1.4,2.7,2.7,4,4.1
	c0.7,0.8,0.5,1.7-0.8,1.7c-4.1,0-8.1,0-12.2-0.1c-0.5,0-1.5-0.9-1.5-1.5c-0.2-7.1-2.6-13.7-4.8-20.3c-0.6-1.9-1.3-3.8-1.9-5.6
	c-0.1-0.4-0.4-0.8-0.7-1.6c-0.4,1.2-0.7,1.9-1.1,3.1c-0.3-1.3-0.5-2.2-0.8-3.1c-0.4,0.2-0.7,0.3-1.1,0.5c-0.4-2.2-0.8-4.4-1.2-6.7
	c-0.4,0.2-0.8,0.4-1,0.5c0.2-1.6,0.9-3.4,0.5-4.9c-0.4-1.5-1.8-2.8-2.9-4.4c0.5-3.6,1-7.5,1.4-11.5c0.5-5.1-0.5-10.1-1.3-15.1
	C161.7,82.2,160.7,76.9,159.8,71.5z M251.8,151.9c1.5-4.3,0.4-8.5-0.4-12.8C249.6,143.4,250.4,147.7,251.8,151.9z M222.2,379.6
	l-3.8-11.5l-3.8,11.5h-12.1l9.8,7.1l-3.8,11.5l9.8-7.1l9.8,7.1l-3.8-11.5l9.8-7.1H222.2z M107,271c-0.2,0.6-0.3,1.1-0.4,1.7
	c-0.1,0.6,0.1,1.2,0.6,1.6c0.6,0.4,1.3,0.5,1.9,0.1c0.4-0.3,0.8-0.6,1.2-1c0.8-0.8,1.6-1.6,2.3-2.4c0.2-0.2,0.4-0.3,0.6-0.5
	c0.4,0.3,0.7,0.5,1.1,0.8c0.6,0.5,1.2,0.9,1.8,1.4c0.2,0.2,0.5,0.3,0.7,0.4c0.7,0.3,1.4,0.3,2-0.2c0.6-0.5,0.7-1.2,0.5-1.9
	c-0.1-0.4-0.3-0.7-0.5-1c-0.4-0.8-0.9-1.6-1.3-2.4c-0.1-0.3-0.3-0.6-0.4-0.9c-0.1-0.3-0.1-0.6,0.2-0.9c0.4-0.3,0.7-0.7,1-1
	c0.5-0.6,1.1-1.1,1.6-1.7c0.4-0.4,0.6-0.9,0.8-1.4c0.3-1.2-0.4-2.4-1.7-2.5c-0.5,0-1,0.1-1.5,0.2c-0.8,0.2-1.6,0.6-2.4,0.8
	c-0.3,0.1-0.6,0.2-0.9,0.2c-0.2-0.4-0.4-0.7-0.6-1c-0.4-0.7-0.8-1.4-1.2-2.1c-0.3-0.4-0.7-0.8-1-1.1c-0.4-0.3-0.9-0.5-1.4-0.4
	c-0.8,0.1-1.4,0.8-1.5,1.6c0,0.7,0.1,1.3,0.1,2c0.1,0.8,0.1,1.6,0.2,2.4c-0.5,0.1-0.9,0.2-1.3,0.3c-1.3,0.3-2.6,0.6-3.7,1.2
	c-0.4,0.2-0.7,0.4-1,0.7c-0.8,0.8-0.6,2.1,0.4,2.7c0.2,0.1,0.4,0.2,0.6,0.3c0.5,0.2,1.1,0.3,1.6,0.5c0.7,0.2,1.4,0.4,2,0.7
	c0.4,0.2,0.5,0.3,0.3,0.7C107.5,269.6,107.2,270.3,107,271z M128.2,302.5c0.2-0.2,0.5-0.5,0.6-0.8c0.3-0.7,0.2-1.3-0.2-1.9
	c-0.5-0.6-1.1-0.7-1.8-0.6c-0.2,0.1-0.5,0.2-0.7,0.2c-0.8,0.3-1.7,0.7-2.5,1c-0.8,0.3-0.8,0.3-1.2-0.5c-0.5-0.9-0.9-1.7-1.4-2.6
	c-0.3-0.4-0.5-0.9-0.9-1.2c-1-0.8-2.3-0.3-2.5,0.9c-0.1,0.3-0.1,0.7-0.1,1c0.1,1.2,0.2,2.5,0.3,3.7c0,0.2,0,0.4,0,0.6
	c-0.3,0.1-0.6,0.2-0.8,0.2c-0.9,0.3-1.8,0.5-2.8,0.8c-0.4,0.1-0.8,0.3-1.1,0.6c-1,0.8-1,2.2,0.1,3c0.2,0.1,0.4,0.3,0.6,0.3
	c0.9,0.3,1.8,0.6,2.7,0.9c0.2,0.1,0.5,0.1,0.8,0.2c-0.1,0.3-0.1,0.5-0.1,0.7c-0.2,0.8-0.3,1.6-0.5,2.4c-0.1,0.6,0,1.2,0.3,1.7
	c0.5,1,1.9,1.1,2.7,0.2c0.4-0.5,0.7-1,1.1-1.5c0.5-0.7,1-1.5,1.5-2.2c0.1-0.2,0.3-0.4,0.5-0.6c0.5,0.3,1,0.6,1.5,0.8
	c0.6,0.3,1.2,0.6,1.8,0.7c0.8,0.2,1.5,0,2-0.7c0.5-0.7,0.4-1.4,0-2.1c-0.2-0.3-0.4-0.5-0.6-0.8c-0.6-0.7-1.1-1.5-1.7-2.3
	c0.3-0.3,0.6-0.5,0.8-0.7C127.1,303.5,127.7,303,128.2,302.5z M299.1,124.7c-1.2-0.6-2.4-0.9-3.7-0.7c-2.2,0.3-3.5,2-3,4.2
	c0.3,1.3,0.9,2.5,1.6,3.6c2.4,3.7,7.3,6.6,11.2,7.2c1.1,0.2,2.1,0.2,3.2-0.2c0.5-0.2,1-0.5,1.3-0.9c0.5-0.7,1-1.5,1.3-2.4
	c0.4-1.2,0.7-2.5,0.9-3.8c0.3-2.3,0.4-4.6,0-6.9c-0.2-1.3-0.6-2.6-1.3-3.8c-0.6-1-1.3-1.8-2.3-2.4c-2-1.2-5.3-0.7-6.3,2.3
	c-0.1,0.2-0.1,0.3-0.2,0.5c-0.3,1.2-0.4,2.4-0.3,3.6c0,0.4,0,0.8,0,1.3c-0.2-0.2-0.3-0.3-0.5-0.4C300.3,125.5,299.7,125,299.1,124.7
	z M328.8,141.8c1.3,3,3.3,5.5,6,7.4c0.4,0.3,0.9,0.5,1.3,0.7c1.3,0.5,2.4,0.2,3.4-0.8c0.1-0.1,0.2-0.2,0.3-0.4
	c0.7-1,1.3-1.9,1.9-2.9c1-1.6,1.7-3.3,2.2-5.1c0.3-1,0.4-2,0.4-3.1c-0.1-0.9-0.3-1.7-0.8-2.5c-1-1.4-2.8-1.7-4.2-0.7
	c-0.6,0.4-1,0.9-1.3,1.5c-0.5,0.8-0.9,1.8-1.3,2.7c-0.1,0.3-0.2,0.7-0.3,1.1c-0.1-0.2-0.2-0.3-0.2-0.4c-0.3-0.5-0.6-1-1-1.4
	c-1-1.1-2.1-1.8-3.6-1.9c-1.5-0.1-2.9,0.6-3.3,2.2c-0.1,0.5-0.1,1-0.1,1.5C328.4,140.4,328.5,141.1,328.8,141.8z M287.2,339.9
	c-0.6,0.4-1,0.9-1.3,1.5c-0.5,0.8-0.9,1.8-1.3,2.7c-0.1,0.3-0.2,0.7-0.3,1.1c-0.1-0.2-0.2-0.3-0.2-0.4c-0.3-0.5-0.6-1-1-1.4
	c-1-1.1-2.1-1.8-3.6-1.9c-1.5-0.1-2.9,0.6-3.3,2.2c-0.1,0.5-0.1,1-0.1,1.5c0.1,0.7,0.3,1.4,0.6,2.1c1.3,3,3.3,5.5,6,7.4
	c0.4,0.3,0.9,0.5,1.3,0.7c1.3,0.5,2.4,0.2,3.4-0.8c0.1-0.1,0.2-0.2,0.3-0.4c0.7-1,1.3-1.9,1.9-2.9c1-1.6,1.7-3.3,2.2-5.1
	c0.3-1,0.4-2,0.4-3.1c-0.1-0.9-0.3-1.7-0.8-2.5C290.4,339.2,288.6,338.9,287.2,339.9z M170.3,272.5c0.4,0.3,0.9,0.5,1.3,0.7
	c1.3,0.5,2.4,0.2,3.4-0.8c0.1-0.1,0.2-0.2,0.3-0.4c0.7-1,1.3-1.9,1.9-2.9c1-1.6,1.7-3.3,2.2-5.1c0.3-1,0.4-2,0.4-3.1
	c-0.1-0.9-0.3-1.7-0.8-2.5c-1-1.4-2.8-1.7-4.2-0.7c-0.6,0.4-1,0.9-1.3,1.5c-0.5,0.8-0.9,1.8-1.3,2.7c-0.1,0.3-0.2,0.7-0.3,1.1
	c-0.1-0.2-0.2-0.3-0.2-0.4c-0.3-0.5-0.6-1-1-1.4c-1-1.1-2.1-1.8-3.6-1.9c-1.5-0.1-2.9,0.6-3.3,2.2c-0.1,0.5-0.1,1-0.1,1.5
	c0.1,0.7,0.3,1.4,0.6,2.1C165.6,268.2,167.6,270.6,170.3,272.5z"/>
</svg>
