<?xml version="1.0" encoding="utf-8"?>
<!-- Generator: Adobe Illustrator 18.0.0, SVG Export Plug-In . SVG Version: 6.00 Build 0)  -->
<!DOCTYPE svg PUBLIC "-//W3C//DTD SVG 1.1//EN" "http://www.w3.org/Graphics/SVG/1.1/DTD/svg11.dtd">
<svg version="1.1" id="Layer_1" xmlns="http://www.w3.org/2000/svg" xmlns:xlink="http://www.w3.org/1999/xlink" x="0px" y="0px"
	 viewBox="0 0 432 432" enable-background="new 0 0 432 432" xml:space="preserve">
<path fill="#333333" d="M90.5,344.8c0.8,6.1,0.7,12.7-0.2,19.9c-0.9,7.2-2.8,13.6-5.7,19.2c-1.2,2.6-2.7,4.9-4.3,7
	c-1.7,2.1-3.6,4-5.9,5.7c-3.8,2.6-8,4-12.7,4.2c-4.7,0.2-8.8-0.9-12.3-3.5c-3-2.1-5.2-5.4-6.5-9.8c-1.3-4.4-1.3-8.7-0.1-13
	c0.5-1.7,0.9-2.8,1.3-3.3c0.4-0.5,0.9-1.6,1.7-3.1c1.4-2.7,3.3-4.8,5.9-6.4c2.6-1.5,5.1-1.7,7.7-0.5c0.1,0.2,0.4,0.3,0.7,0.6
	c0.3,0.2,0.5,0.5,0.5,0.8c0.1,0.3-0.1,1-0.7,2c-2.6,4.5-4.1,9.2-4.5,14.1c-0.5,4.9,1.3,9.7,5.2,14.5c2.4-1.8,4.5-4.3,6.2-7.5
	c1.7-3.2,3.1-6.7,4.1-10.5c1-3.8,1.6-7.8,1.9-11.9c0.3-4.2,0.2-8.3-0.2-12.4c-0.3-2.7-0.7-5.6-1.1-8.5c-0.5-3-1.1-5.6-1.9-8.1
	c-0.8-2.4-1.9-4.4-3.1-5.8c-1.2-1.4-2.7-1.9-4.5-1.2c-3.6,1.1-6.6,1.7-8.7,1.9c-2.2,0.2-3.8,0.2-4.8-0.2c-1-0.4-1.6-0.9-1.7-1.7
	c-0.2-0.8-0.1-1.6,0.2-2.5c0.5-0.8,0.9-1.4,1.4-2c0.5-0.6,0.8-1.2,1.1-1.8c3.9-5.1,7.2-10.6,9.8-16.2c2.6-5.7,4.5-11.7,5.7-18.1
	c0.5-2.1,0.7-4.2,0.8-6.3c0.1-2-0.4-4.3-1.5-6.7c-1.1,0.8-2.1,1.5-3.1,2.2c-1,0.7-1.9,1.4-2.6,2.2c-4.5,4.4-8.4,9.2-11.7,14.5
	c-3.3,5.3-6.1,10.9-8.5,16.8c-2.1,5.3-3.9,10.7-5.2,16.1c-1.4,5.5-2.7,11-3.9,16.6c-0.6,2.9-0.8,5.8-0.5,8.6
	c0.3,2.9,0.7,5.8,1.1,8.6c0.6,3.6,1.4,8,2.5,13.2c1.1,5.2,2.1,10,3.2,14.7c1.1,4.6,1.9,8.6,2.6,12c0.7,3.4,1,5.2,1,5.3
	c0.3,2.1,0.2,3.6-0.3,4.5c-0.5,0.9-1.8,1.5-3.8,1.8c-1.4,0.3-2.7,0.4-4.1,0.3c-1.4-0.1-2.7-0.2-3.9-0.3c-1.5-0.2-2.4-0.6-2.7-1.4
	c-0.3-0.8-0.8-1.7-1.6-3c-3.9-7.7-6.8-15.3-8.6-22.8c-1.8-7.5-3.3-15.6-4.5-24.2C8,346.3,7.5,333,8.1,320c0.7-13,3-26,6.9-38.9
	c0.8-2.4,1.6-4.5,2.4-6.1c0.8-1.7,1.9-3.6,3.1-5.9c1.2-2.4,2.7-4,4.5-4.8c1.8-0.8,3.9-0.5,6.1,0.9c0.5,0.3,0.9,0.8,1.3,1.4
	c0.4,0.6,0.6,1.2,0.8,1.8c0.1,0.9,0.1,1.9,0,2.8c-0.2,1-0.3,2-0.5,3.1c-0.5,3.9-0.9,7.6-1.4,10.9c-0.5,3.3-0.9,7-1.4,10.9
	c0.9-1.8,2-3.7,3.4-5.6c1.4-1.9,2.6-3.7,3.9-5.6c2-3,4.2-5.7,6.8-8.1c2.6-2.3,5.4-4.5,8.4-6.5c4.5-3,9.5-4.4,14.8-4.1
	c8.5,0.8,12.8,5.2,13,13.4c0,3-0.3,6-0.9,8.9c-0.6,2.9-1.5,5.6-2.7,8.2c-1.2,2.6-2.5,5.2-4,7.7c-1.4,2.6-2.8,5.2-4.2,7.7
	c-0.3,0.8-0.7,1.5-1.1,2.2c-0.5,0.7-1,1.5-1.6,2.4c4.1,0.2,7.8,1.3,11,3.4c3.3,2.1,5.8,4.7,7.6,7.7C87.7,333,89.8,338.6,90.5,344.8z
	 M31.4,250.1c1.1,1.5-2,2.6-2.8,3.7c-1,1.4-1.8,2.8-2.6,4.3c-1.6,3-3.7,5.8-7.1,3.3c-3.3-2.3-0.8-8.4,1.7-10.4
	C22.4,249.6,29.6,247.7,31.4,250.1z M22.4,254.3c-1.6-0.2-3,4-0.4,3.6C23.5,257.6,24.2,254.6,22.4,254.3z M25.8,251.4
	c-1.1-0.3-1.6,1.6-0.4,1.8C26.6,253.5,26.8,251.6,25.8,251.4z M98.7,302.2c0.9-2.1,1.8-9.5,1.8-10.4c0-0.2,0.2-0.7,0.2-1.2
	c0.4-2.6,1.2-7.9,1.6-15.1c0.4-8.3,1.1-39.6,1.1-46.5c2.5-0.4,7.2-1.1,8.8-1.2c2.5-0.5,4.2-1.4,4.9-2.6c0-0.2,0-0.2,0.2-0.4
	c0.5-0.9,1.4-2.5,0.4-4c0-0.2-0.2-0.4-0.2-0.5c-0.5-0.7-1.1-1.4-2.3-1.8c-1.4-0.2-7-0.5-7.7-0.5c-0.9,0-3-0.4-4.6-0.5
	c0-8.1,0.2-21.5,0.2-22.3c0-1.4,1.2-7.9,1.8-9c0-0.2,0.2-0.4,0.2-0.7c0.5-1.1,1.2-2.5,1.9-3.2c0.4-0.4,0.5-0.9,0.9-1.2
	c0.4-0.4,0.9-1.1,1.2-1.1c1.1,0,1.8,0,2.1,0.2c0.2,0.2,0.4,0.5,0.5,1.4c0,0.7,0.4,1.4,0.7,2.1c0.2,0.5,0.4,0.9,0.4,1.2
	c0.2,0.7,0.7,4.9,0.7,5.6c0,0,0,5.6,0.9,6.9c0,0,0,0,0,0.2c0.4,0.5,1.1,1.4,2.8,1.4c0.4,0,0.5,0,0.7,0c0.2,0,0.4,0,0.4,0
	c1.6-0.2,3.3-0.4,4-3.2c0.5-2.1,0.4-7.6,0.4-8.3c0-0.5-0.2-5.1-1.1-7.9c-0.9-3-3-6.2-4-7.4c-0.9-1.2-1.9-1.8-3-2.3
	c-0.2-0.2-0.4-0.4-0.5-0.4c-1.4-0.9-4.6-1.2-5.6-1.2l-0.2-0.2l-0.2,0.2c-0.2,0-4.6,0.5-6,0.9c-1.4,0.4-4,1.4-5.1,2.1
	c-0.9,0.5-4.8,3.5-5.6,4.6c-0.2,0.2-0.5,0.5-0.7,0.9c-1.8,1.8-3.2,3.5-3.5,4.4c-0.4,1.1-3.7,9.9-3.7,11.1c-0.2,0.9-0.9,4-1.2,5.6
	l-0.2,0.7c-0.4,1.6-1.2,15.5-1.4,18.3l-0.2,1.9c-2.3,0.2-5.3,0.2-5.5,0.2c-0.4,0-2.1,0.2-2.6,0.4c-2.3,0.4-2.8,0.9-3,1.1
	c-0.2,0-0.2,0-0.2,0c-0.4,0.4-1.2,0.9-1.4,2.1c0,0.7-0.2,1.8,0.5,2.8c0.2,0,0.2,0.2,0.2,0.2c0.4,0.9,0.9,1.1,1.8,1.6
	c1.1,0.5,1.4,0.7,2.8,1.1H73c1.2,0.4,5.1,0.9,7.4,1.1l1.1,38l1.6,17.9c0.2,0.2,0.7,3.7,1.4,7.4c1.6,7.7,1.8,8.1,2.1,8.4
	c0.5,0.9,1.4,2.1,2.5,2.8c0.7,0.5,2.5,1.6,4,1.6c0,0,0.2,0,0.4,0C94.5,305.2,97.6,304.7,98.7,302.2z M415.2,312.6
	c0.4,0.1,0.8,0,1.1-0.3c0.4-0.3,0.6-0.6,0.6-1c0.1-0.4,0-0.8-0.3-1.1c-0.3-0.3-0.6-0.5-1-0.6c-0.4-0.1-0.8,0-1.1,0.3
	c-0.4,0.3-0.6,0.7-0.6,1.1c-0.1,0.4,0,0.8,0.3,1.2C414.4,312.3,414.8,312.5,415.2,312.6z M423.8,322.4c-0.3-0.4-0.7-0.6-1.1-0.7
	c-0.4-0.1-0.8,0-1.1,0.3c-0.4,0.3-0.6,0.6-0.7,1c-0.1,0.4,0,0.8,0.3,1.2c0.3,0.4,0.6,0.6,1,0.6c0.4,0.1,0.8,0,1.2-0.3
	c0.4-0.3,0.6-0.7,0.6-1.1C424.2,323.1,424.1,322.8,423.8,322.4z M419.2,331.4c-0.5-0.4-0.9-0.6-1.4-0.6c-1.6,0-3,0.2-4.4,0.5
	c-1.4,0.4-2.6,1-3.8,1.7c-1.2,0.7-2.3,1.6-3.4,2.6c-1.1,1-2.1,2-3,3.1c2.3-0.1,4.6-0.2,6.9-0.2c2.3,0,4.5-0.5,6.7-1.3
	c1.1-0.4,2.1-1.1,2.8-2c0.3-0.4,0.4-0.8,0.6-1.4c0.1-0.5,0.1-1-0.1-1.4C420,332.2,419.6,331.8,419.2,331.4z M50,237.3
	c3-5,9.2-8.2,14.8-8.9c2.8-0.3,5.9,0.1,7.9,2.3c1.1,1.2,2.3,4.3,1.7,6.3c-0.2,0.6-0.6,1.1-1.1,1.4c-1.6,0.8-3.2-0.2-4.7-0.5
	c-2.2-0.4-5.1-0.4-7.3-0.3c-1.3,0.1-2.9,0.4-4.2,0.8c-2,0.6-3.5,1.9-5.4,2.6C48.3,242.3,48.8,239.3,50,237.3z M66.9,234.5
	c0.1,0.1,0.1,0.2,0.2,0.2c0.6,0.6,1.7,0.9,2.3,0.5c1.2-0.8,0.3-2.6-0.8-3C67.1,231.4,65.8,233,66.9,234.5z M60.6,234.3
	c1.6,1.8,3.7-1.1,1.7-2c0,0,0,0-0.1,0C61.1,231.8,59.7,233.3,60.6,234.3z M56,236.6c1.2-0.1,1.3-1.8,0-1.9c-0.1,0-0.3,0-0.4,0.1
	C54.7,235.1,54.7,236.7,56,236.6z M401.8,342.6c-0.2,1.4-0.4,2.5-0.7,3.3c-2.3,7-5.1,14.5-8.4,22.5c-3.3,8-7.3,15.9-11.8,23.6
	c-1.7,2.7-3.4,5.4-5.1,8c-1.7,2.6-3.9,4.9-6.5,7c-1.7,1.5-3.5,2.8-5.6,3.9c-2,1.1-4.2,1.7-6.5,2c-5,0.6-9.5-0.5-13.4-3.2
	c-3.9-2.7-6.2-6.6-6.8-11.6c-0.5-3.5-0.5-6.9-0.1-10.2c0.4-3.3,0.9-6.7,1.7-10.2c1.7-6.8,3.8-13.4,6.2-19.9c2.5-6.4,5-12.8,7.4-19.2
	c1.1-3,2.2-6,3.3-8.9c1.1-2.9,2.2-5.8,3.1-8.9c0.5-1.5,0.8-3,0.9-4.4c0.1-1.4-0.2-3.1-0.9-5.1c-1.2,1.1-2.4,2-3.5,2.7
	c-1.1,0.8-2.2,1.6-3.3,2.5c-4.1,3.6-7.8,8.1-11.1,13.4c-4.1,6.4-7.3,13-9.8,19.9c-2.4,6.9-4.2,14.1-5.5,21.7
	c-0.2,1.1-0.3,2.1-0.3,3.2c-0.1,1.1-0.2,2.1-0.3,3.2c-0.6,2.4-0.5,5.2,0.2,8.2c0.6,2-0.1,3.3-2,3.9c-2.7,0.9-5.5,0.9-8.4,0
	c-0.8-0.3-1.4-0.7-1.9-1.3c-0.5-0.5-0.9-1.2-1.3-1.9c-1.2-2.1-2.2-4.2-2.8-6.4c-0.7-2.1-1.3-4.3-1.7-6.6c-1.2-6.4-2-12.7-2.3-19.1
	c0-0.5,0-1.1-0.1-1.6c-0.4,0.2-0.9,0.3-1.3,0.5c-4.4,1.2-8.7,1.8-13,1.8c0,0.5-0.2,1.5-0.5,3.1c-0.3,1.6-0.7,3.4-1.1,5.5
	c-0.5,2-0.9,4.1-1.5,6.3c-0.5,2.1-1,3.9-1.5,5.2c-1.2,3.3-2.9,6.7-5.1,10c-2.2,3.3-5,5.8-8.5,7.5c-2.7,1.2-5.8,1.9-9.1,1.9
	c-3.3,0.1-6.4-0.6-9.1-1.9c-1.5-0.8-3.1-1.7-4.7-3c-1.6-1.2-2.8-2.5-3.8-3.9c-2-3-3.4-6.2-4.3-9.7c-0.5-2-0.9-4-1.3-6
	c-0.8,1.2-1.7,2.3-2.6,3.4c-0.9,1.2-2,2.5-3.3,4c-1.3,1.4-2.7,2.9-4.2,4.3c-1.5,1.4-3,2.8-4.4,4.1c-1.4,1.3-2.8,2.3-4,3.1
	c-4.4,3-9,4.9-13.7,5.7c-4.8,0.8-9.7,0.1-14.7-2c-2.4-1.2-4.5-2.6-6.1-4.2c-1.7-1.6-3.1-3.4-4.3-5.6c-0.8-1.5-1.6-3-2.2-4.6
	c-3.6,7.3-6.3,12.3-8.2,15c-2,2.6-4.1,4.4-6.5,5.6c-2.4,1.1-4.7,1.6-6.9,1.5c-2.3-0.2-4.5-0.8-6.6-2c-2.1-1.2-3.9-2.9-5.5-5
	c-1.5-2.1-2.7-4.3-3.5-6.6c-0.8-2.3-1.5-4.7-1.9-7.3c-0.5-2.9-0.8-5.6-1-8.1c-0.2-2.5-0.5-4.7-0.8-6.7c-0.3,0.5-0.5,0.9-0.6,1.4
	c-0.1,0.5-0.3,0.9-0.6,1.4c-1.2,2.6-2.4,5.2-3.6,7.7c-1.2,2.6-2.4,5.2-3.6,7.7c-1.5,2.6-3,4.9-4.3,7c-2.6,3.5-5.9,5.8-10,7
	c-4.1,1.2-8.1,0.8-12-1.1c-1.4-0.6-2.9-2.2-4.5-4.8c-1.7-2.6-2.8-6.1-3.5-10.6c-0.7-4.5-0.6-9.9,0.1-16.4c0.8-6.4,2.8-13.8,6.1-22.2
	c0.6-1.4,1.4-2.9,2.5-4.7c1.1-1.7,2.3-3.4,3.6-5.1c1.4-1.7,2.8-3.1,4.2-4.4c1.4-1.3,2.8-2.3,4-3.1c3.9-2.3,8.1-3.6,12.5-4.1
	c4.4-0.5,8.9,0.2,13.4,2c0.5-2.4,1.5-3.8,3.2-4.1c1.2-0.3,2.4-0.4,3.5-0.3c1.1,0.1,2.3,0.5,3.5,1.3c0.6,0.5,1.1,1.3,1.4,2.5
	c0.1,1.1,0.2,2,0.2,3c0,0.9,0,1.9,0,3c-0.3,7.6-0.6,15.1-1,22.6c-0.4,7.5-0.3,15,0.1,22.6c0.3,3.5,0.8,7,1.4,10.5
	c0.6,3.5,2.3,6.5,5,9.1c2.3-1.1,4.5-3.5,6.8-7.3c2.3-3.8,4.5-8,6.6-12.7c1.2-2.6,2.4-5.3,3.7-8c0-0.7,0-1.5,0-2.2
	c0.5-13.6,5-25.9,13.6-36.8c2.1-2.7,4.5-5.1,7.3-7.2c2.7-2,5.9-3.6,9.5-4.7c4.1-1.2,8.3-1.4,12.7-0.7c2.9,0.5,5.1,1.6,6.8,3.3
	c1.7,1.7,2.4,3.8,2.3,6.3c0,0.6-0.2,1.5-0.5,2.7c-1.2,2.9-3.5,3.9-6.8,3c-0.8-0.3-1.2-0.6-1.4-1c-0.2-0.4-0.4-0.9-0.7-1.5
	c-0.8-2.4-2.4-4.3-4.8-5.7c-0.8,0.6-1.4,1.1-1.9,1.6c-0.5,0.5-1.1,1-1.7,1.6c-3.3,3.3-6.1,7.1-8.2,11.4c-2,4.2-3.6,8.5-4.8,12.8
	c-1.2,4.3-2,8.7-2.3,13.3c-0.2,4.4,0.3,8.6,1.5,12.7c1.1,4.1,3,8,5.6,11.6c1.7,2.1,3.6,2.7,5.9,1.7c2.3-1,4.8-2.5,7.5-4.7
	c4.2-3.3,8.1-7,11.6-11.1c3.5-4.1,6.5-8,9.1-11.8c0.6-0.9,1.1-1.7,1.7-2.5c0.1-1.4,0.3-2.7,0.5-4.1c0.7-4.4,1.9-8.6,3.7-12.7
	c1.1-2.3,2.3-4.7,3.9-7.3c1.7-2.4,3.5-4.5,5.5-6.4c2-1.8,4.5-2.9,7.7-3.2c0.1-1.1,0.2-2,0.2-2.7c0-0.8,0-1.5,0-2.3
	c0.5-5.9,3.3-9.5,8.4-10.7c6.5-1.7,11.3,0.1,14.3,5.2c2,3,3.5,6.3,4.5,9.8c1.1,3.5,1.7,7,2,10.5c0.3,2.4,0.5,4.9,0.5,7.3
	c0,2.4,0.1,4.9,0.2,7.5c0.8,0.2,2.4,0.2,5,0c2.6-0.1,5.1-0.8,7.5-1.8c0.4-0.2,0.8-0.4,1.2-0.6c0.2-3.3,0.5-6.5,1.1-9.8
	c0.3-1.7,0.7-3.2,1.1-4.7c0.5-1.4,1-2.8,1.6-4.2c0.9-2.1,2.5-3.6,4.8-4.4c2.3-0.8,4.5-0.6,6.6,0.6c1.5,0.6,2.3,1.8,2.3,3.6
	c-0.2,3.6-0.4,7.3-0.7,10.9c-0.3,3.6-0.3,7.3,0,10.9c0.6-1.2,1.1-2.2,1.4-3c3.2-8.6,7.3-16.7,12.5-24.1c3.6-5.3,7.8-9.5,12.5-12.5
	c6.2-4.2,13.1-5.3,20.7-3.2c6.5,1.8,9.8,6.3,9.8,13.4c0,4.2-0.8,8.4-2.5,12.5l-12.3,28.6c-2.4,5.3-4.6,10.7-6.5,16.2
	c-1.9,5.5-3.4,11.2-4.4,17.2c-0.8,3.8-0.6,7.3,0.5,10.5c0.3,0.8,0.6,1.5,1,2.2c0.4,0.7,0.8,1.5,1.3,2.4c1.1-0.8,2.1-1.4,3.1-1.9
	c1-0.5,1.9-1.1,2.6-1.7c3-2.4,5.7-5.1,8.1-8.1c2.3-3,4.4-6.2,6.3-9.7c1.5-2.9,3.2-6.2,5-9.9c1.8-3.7,3.6-7.6,5.2-11.6
	c1.7-4,3.3-7.9,4.9-11.7c1.6-3.8,2.9-7.2,4-10.2c0.5-1.7,1.2-2.9,2.3-3.8c1.1-0.8,2.3-0.9,3.9-0.3
	C401.5,340.2,402,341.2,401.8,342.6z M141.4,330c-0.6-0.3-1.2-0.6-1.7-0.9c-0.5-0.3-1.2-0.6-1.9-0.9c-0.6-0.3-1.5-0.5-2.6-0.5
	s-2.1,0.2-2.8,0.7c-0.8,0.6-1.9,1.6-3.3,3c-1.4,1.4-2.6,2.8-3.5,4.3c-4.2,6.2-7.3,12.8-9.3,19.7c-2,6.9-3.1,14.1-3.4,21.5
	c-0.2,1.8-0.1,3.7,0.2,5.6c0.3,1.9,0.8,3.9,1.6,6c2.7-3,5-6.1,6.9-9.2c1.9-3.1,3.6-6.3,5.1-9.7c1.5-3.2,2.9-6.4,4.2-9.8
	c1.3-3.3,2.5-6.7,3.7-10c1.2-3.5,2.4-6.8,3.6-9.9C139.4,336.8,140.5,333.5,141.4,330z M281.2,353.2c-4.4-1.5-8-4.2-10.8-8
	c-2.8-3.8-5.3-7.6-7.4-11.6c-0.5,0.5-0.7,0.8-0.7,0.9c-2.6,7.1-4.2,14.2-4.8,21.2c-0.6,7-0.1,14.2,1.6,21.5c0.6,2.3,1.4,4.4,2.3,6.5
	c0.9,2,2.2,3.9,3.9,5.6c1.7-0.6,3-1.4,4.1-2.3c1.1-0.9,2.2-2.2,3.4-3.9c1.7-2.7,3-5.6,4.1-8.5c1.1-3,2-5.9,2.7-9
	c0.5-2.4,0.8-4.5,1.1-6.1C281,357.9,281.2,355.8,281.2,353.2z M281.5,336.1c-0.2-2.4-0.7-5-1.4-7.7c-0.7-2.7-1.6-5.5-2.6-8.2
	c-1.1-2.7-2.4-5.3-3.9-7.7c-1.2,2.3-1.8,5-1.8,8.1c0,3.1,0.4,6.1,1.1,9.1c0.8,3,1.9,5.6,3.4,8c1.5,2.4,3.3,4,5.2,4.9
	C281.8,340.7,281.7,338.6,281.5,336.1z M408.1,331.6c0.8-0.9,1.6-1.8,2.4-2.6c0.9-1,1.6-2,2.1-3.2c0.5-1.1,0.8-2.4,0.8-3.7
	c0-0.4-0.1-0.9-0.3-1.4c-0.2-0.5-0.4-0.9-0.7-1c-0.4-0.2-0.9-0.2-1.4-0.2c-0.6,0-1.1,0.2-1.5,0.3c-0.5,0.3-1,0.6-1.4,1.1
	c-0.4,0.4-0.8,0.9-1.2,1.4c-1.5,2.2-2.7,4.6-3.7,7c-1,2.4-1.8,4.9-2.4,7.5c-0.1,0.3-0.1,0.6-0.2,0.9s-0.1,0.7-0.1,1.1
	c0,0,0-0.1,0-0.1c0.8-0.8,1.7-1.5,2.5-2.3c0.8-0.8,1.7-1.5,2.6-2.2C406.4,333.3,407.2,332.4,408.1,331.6z M26.1,62.3
	c1.8,1.1,3.8,1.4,6,0.9c2.3-0.5,4-1.7,5.1-3.5c3.3-5.1,7.8-6.6,13.6-4.5c2.3,0.8,4.4,1.7,6.4,2.6c2,0.9,4.2,1.8,6.6,2.6
	c0.9,6.8,1.9,13.5,2.9,20.1c1,6.6,2.1,13.6,3.1,20.8c-2.9,0.3-5.6,0.2-8.2-0.3c-1.3-0.2-2.5-0.4-3.7-0.6c-1.2-0.2-2.8-0.5-4.7-0.9
	c-1.3,0-2.6,0.1-4,0.5c-1.4,0.3-2.2,1.4-2.6,3.4c0,1.5,0.8,2.6,2.4,3.5c1.6,0.9,3.6,1.6,6,2.1c2.4,0.5,5,0.8,7.7,0.9
	c2.7,0.1,5.1,0.1,7-0.1c0.5,4.5,0.7,9,0.8,13.3c0.1,4.4-0.1,8.7-0.4,13.1c-0.4,5.6-1.1,11.2-2.3,16.7c-1.2,5.5-3.1,10.8-5.7,15.9
	c-0.8,1.9-1.9,3.7-3.2,5.4c-1.3,1.7-2.9,3.2-4.9,4.4c-2.2-2.1-4-4.7-5.2-7.9c-1.2-3.2-1.8-6.4-1.9-9.7c-0.1-3.3,0.4-6.5,1.5-9.5
	c1.1-3.1,2.7-5.6,5-7.7c2.1-1.6,3.8-2.5,5-2.8c1.2-0.2,2.5-0.6,3.8-1.1c0.5-0.2,0.6-0.4,0.5-0.8c-0.2-0.4-0.3-0.7-0.5-0.9
	c-1.3-1.6-2.6-2.6-4.1-2.8c-1.5-0.3-3-0.2-4.6,0.1c-4,0.5-7.8,2.3-11.4,5.5c-3.6,3.2-5.9,6.9-7.1,11.1c-1.7,6.8-1.5,13.4,0.6,19.8
	c1.7,5.5,4.7,9.5,8.9,11.9c4.2,2.4,9.1,3.1,14.7,2c4.8-1.1,9.3-3,13.3-5.7c4-2.7,7.2-6.2,9.5-10.3c2.9-5,5.1-10.4,6.6-16.2
	c1.8-6.4,2.7-12.9,2.8-19.5c0-6.5-0.2-13.1-0.9-19.7c-0.2-1.3-0.3-2.6-0.3-3.9c-0.1-1.3-0.2-2.6-0.3-3.9c1.1-0.3,2-0.6,2.7-0.8
	c0.6-0.2,1.4-0.5,2.2-0.8c4.4-1.4,8.2-3.1,11.4-5.1c3.2-2,6.6-4.4,10.2-7.1c1.6-1.3,2.3-2.8,2-4.7c-0.3-1.9-1.1-3-2.4-3.5
	c-1.1-0.5-2.3-0.6-3.4-0.4c-1.1,0.2-2.8,0.9-4.9,2c-2.8,1.8-5.7,3.6-9,5.4c-3.2,1.8-6.6,3.4-9.9,4.7c-1.9-11.5-3.7-22.6-5.4-33.4
	c1.9-0.3,3.9-0.5,5.8-0.7c1.9-0.1,3.9-0.4,5.8-0.7c6.1-1.3,11.4-3.5,15.8-6.8c4.4-3.3,8-7.9,11-13.8c2.6-5.3,2.2-10.5-1.1-15.7
	c-1.6-2.7-4.3-4.6-8.2-5.6c-3.9-1-7.3-0.8-10.2,0.7c-2.1,1.1-2.4,2.6-1,4.3c3,3.7,3.7,8,1.9,12.8c-0.5,1.3-1,2.6-1.6,3.9
	c-0.6,1.3-1.3,2.5-2.1,3.6c-2.8,3.7-5.9,6.4-9.5,8c-3.6,1.7-7.7,1.9-12.3,0.8c-1.8-0.3-3.4-0.8-5-1.4c-1.5-0.6-3.1-1.1-4.7-1.6
	c-1.8-0.7-3.4-1.4-4.9-2.1c-1.5-0.7-3.2-1.3-4.9-1.8c-9.2-2.5-17.9-1.9-26.1,1.8c-1.8,0.8-3.4,1.8-4.7,3.1c-1.4,1.3-2.4,3-3.1,5.1
	C23.5,59.3,24.1,61.2,26.1,62.3z M168.7,230.2c0.7,0.4,1.4,0.5,2.1,0.5c0.5,0,0.9-0.2,1.2-0.4c0.7-0.4,1.8-0.9,2.5-2.3
	c0.2-0.2,0.4-0.5,0.7-1.1c0.5-0.9,1.2-2.1,1.9-3.3c1.1-1.8,2.1-4,2.5-5.5c0.2-0.5,0.4-1.1,0.7-1.8c0.4-1.2,0.9-2.6,1.1-3.7
	c0.4-1.6,0.4-2.6,0.5-4.8v-0.2c0-0.2,0-0.5,0-0.9c0.2-2.1,0.4-5.3-0.4-7.2c-0.7-2.1-1.2-3.2-2.5-4.6c-1.4-1.6-5.6-3.3-8.1-3.9
	c-2.6-0.5-4-0.5-5.5-0.5c-1.6,0-4.9,0.5-6.3,1.1c-1.4,0.5-5.3,2.6-6.3,3.3c-1.2,0.9-4.2,4.6-4.9,6c-0.2,0.5-0.7,1.4-1.1,2.3
	c-0.5,0.9-0.9,1.6-1.1,1.9c0-0.5-0.2-1.4-0.5-2.8c0-0.4,0-0.5,0-0.7c-0.2-1.1-0.9-3.2-1.2-4c0,0-0.2-0.2-0.4-0.5
	c-0.5-1.2-1.1-2.3-1.6-3c-0.7-0.7-1.8-1.8-2.5-2.1c-0.4-0.4-0.9-0.7-1.4-0.9c-0.4-0.2-0.7-0.4-0.9-0.5c-1.1-0.5-3-0.9-3.7-0.9
	c-0.2,0-0.2,0-0.2,0c-0.9,0.2-2.3,0.5-3.2,1.6c0,0-0.2,0.2-0.4,0.4c-0.7,0.9-1.8,2.1-2.1,3.3c-0.4,1.2-1.1,4.6-1.2,6
	c-0.2,0.4-0.2,0.7-0.2,1.1c-0.2,0.9-0.4,1.8-0.4,2.6c0,1.1,0.2,32.9,0.4,34.3l-0.4,37c0,3.2,0,10.4,0.5,11.8
	c0.2,0.7,0.5,2.6,0.7,3.9c0.2,0.9,0.2,1.4,0.4,1.9c0.4,1.2,1.2,3.5,2.3,4.8c1.1,1.2,4.2,2.6,5.8,2.6c0.4,0,0.7-0.2,1.1-0.4
	c0,0,0.4,0,0.7-0.2c1.1-0.2,2.5-0.7,3.7-1.6c1.2-1.1,3-3,4.2-4.8c0-0.2,0.2-0.4,0.2-0.4c1.1-1.4,1.6-2.5,2.1-6.5
	c0.7-4.9,1.1-30.6,1.1-31c0-0.4,0-1.9-0.2-4.2c0-4.2-0.2-11.4-0.2-12.7c0-1.2,1.2-7,1.9-10.2c0.4-1.2,0.5-2.1,0.5-2.6
	c0.2-1.1,0.9-3.3,1.8-6.2c0.5-1.8,3.5-7.2,4.4-8.4c0.2-0.2,0.5-0.7,0.9-1.2c0.9-1.4,3.5-5.5,4.4-6s1.6-0.7,1.8-0.7h0.2
	c0.2,0.2,0.4,0.2,0.5,0.4c0.4,0,0.5,0.2,0.7,0.2c0.4,0.2,0.4,0.2,0.5,0.2c0.5,0.5,1.1,1.4,1.2,1.6c0.2,0.5,1.1,3,1.2,3.7
	c0,0.5,0,3.9-0.2,4.6c0,0.2,0,0.4,0,0.7c-0.4,2.1-0.4,3.3-0.4,3.9c0,0.4-0.4,1.8-0.4,2.5c-0.2,0.7-0.2,1.1-0.2,1.2
	c0,0,0,0.2-0.2,0.4c-0.4,2.1-0.5,3.2-0.2,4c0,0.2,0,0.2,0,0.4C167.3,228.5,167.7,229.5,168.7,230.2z M199.5,246.1
	c0,0.9-0.2,4.6-0.4,5.8c0,3,0,6.7,0.4,10.9c0.5,5.8,1.9,12.8,3.2,15.7c1.2,2.8,3.2,5.1,4.4,6.7c1.4,1.6,1.9,1.9,3.9,3.2
	c0.9,0.7,2.1,0.9,3.5,0.9c1.6,0,3.2-0.4,4.4-0.5c4-1.1,5.1-4,6.3-8.8v-0.2c0.2-0.9,0.9-2.5,1.2-2.8c0.4-0.5,1.9-1.8,3.2-1.8
	c1.1,0,2.3,1.1,2.6,2.5c0.4,0.9,0.2,1.8,0,2.3c0,0.4-0.2,0.5-0.2,0.9c0,1.1-0.4,2.3-0.7,3.5c-0.2,0.5-0.2,0.9-0.4,1.4
	c-3.2,12.5-17.6,14.3-23.6,14.4c-0.4,0-0.7,0-0.9,0c-3.7,0-5.3-0.7-8.3-2.3c-0.2,0-0.5-0.2-0.7-0.4c-3.3-1.6-7.4-5.6-9.3-7.4
	c-0.4-0.4-0.7-0.7-0.9-0.9c-1.4-1.2-4.2-5.6-4.9-7c-0.9-1.6-3.5-12.1-3.7-13.7c-0.4-1.8-1.2-12.5-1.4-15.5c-0.2-3,1.1-13.4,2.1-18.1
	c1.1-4.4,2.8-9.3,4.6-12.7c0.4-0.9,1.1-1.9,1.8-3.3c2.1-4.2,4.9-10,6.9-12.5c2.3-2.8,7.4-5.6,9.2-6.9c0.2,0,0.4-0.2,0.5-0.2
	c1.1-0.5,3.7-1.4,7.7-2.3c0.7-0.2,1.8-0.4,3-0.4c3.3,0,7.7,0.5,7.9,0.5c0.7,0.2,6,1.1,8.3,3.2c2.1,2.1,3.7,4.4,4.4,6.3
	c0.4,1.4,0.5,3,0.5,5.1c0,1.1,0,2.3-0.2,3.5c-0.2,0.9-0.2,1.9-0.4,3.2c-0.5,8.1-9.9,17.2-13.7,20.8c-1.2,0.9-5.8,3.3-8.3,4.2
	c-2.6,0.9-8.8,1.6-9,1.6h-0.2c0,0-1.6,0-2.3,0c-0.2,0-0.2,0-0.4,0C199.7,245.4,199.5,245.7,199.5,246.1z M202.1,235.7
	c0,0.2,0,0.4,0.2,0.4c0,0,0,0,0,0.2c0.2,0,0.4,0,0.7,0c0.7,0,2.3-0.2,4.9-0.9c4.6-1.2,8.4-3.7,9.7-5.1c3.5-3.5,7.4-7.7,8.1-13
	c0.4-1.8,0.5-4.6,0.5-5.5c-0.2-0.9-0.7-1.8-0.9-1.9c-0.4-0.5-0.9-0.7-1.2-0.7c0,0,0,0-0.2,0c-0.5,0-1.8,0.2-3,0.4
	c-0.4,0-0.7,0-1.1,0.2c-1.2,0.2-3.5,1.2-4.6,1.8l-0.4,0.2c-0.9,0.4-4.4,3.9-5.3,4.8c-0.2,0.4-0.4,0.5-0.5,0.7
	c-0.5,0.7-1.1,1.2-1.4,2.1c-0.2,0.5-0.7,1.8-1.2,3.2c-0.7,1.8-1.6,3.7-1.9,4.6c-0.4,0.9-0.7,2.3-1.1,3.5c-0.2,0.9-0.4,1.6-0.5,2.1
	C202.5,233.8,202.1,235.3,202.1,235.7z M51.4,222.7c-2.3,3.2-4.2,6.7-5.7,10.3c-0.5,1.1-0.9,4-1.8,4.8c-1.1,0.9-1.6-0.5-1.8-1.5
	c-0.2-1.2,0.1-2.8,0.1-4.1c0.1-2.7,0.6-5.5,1.1-8.2c1.3-6.3,7.8-28.6,17.1-17.2C64.8,212.1,54.7,218,51.4,222.7z M52.6,211.5
	c1,3.5,6,0.4,4.1-2.6c-0.1-0.2-0.3-0.4-0.5-0.5C54.6,207.2,52.1,209.6,52.6,211.5z M46.5,223.5c-0.5-0.1-1,0.1-1.3,0.7
	c-0.8,1.5,1.6,2.1,2,0.6C47.5,224.1,47,223.6,46.5,223.5z M51.6,216.9c-0.3-0.9-0.7-1.3-1.3-1.4c-1.4-0.2-3,2.2-1.5,3.3
	C50.3,220,52.1,218.6,51.6,216.9z M35,251.5c0.6,2.9,4.1,4,6.6,4.1c4.9,0.3,7.8-3.6,7.2-8.4C47.7,238.8,33.5,243.8,35,251.5z
	 M23.6,207.8c-0.6-5.4-0.3-15.4,6.7-10.9c6.2,4,5.7,13.5,5.5,19.6c-0.1,4.6,0.1,9.3,0.9,13.9c0.2,1.2,2.6,9.9,0,9.4
	c-1.9-0.3-3.7-3.8-4.5-5.2c-1.5-2.7-2.8-5.5-4-8.4C26,220.3,24.4,214.1,23.6,207.8z M31.8,224.8c1.2,0.5,2.2-0.4,2.1-1.7
	c-0.1-1.1-0.8-1.3-1.5-1.2C31.2,222.3,30,224,31.8,224.8z M30.8,211.9c-0.1,0-0.1,0-0.2,0c-1.1-0.2-2.1,0.6-2.1,1.8
	c0,1.1,0.9,1.8,2,1.7C32.5,215.3,32.5,212.4,30.8,211.9z M27.6,205.6c1.3,1.2,2.7,0.8,3.4-0.3c0.4-0.7,0.6-1.6,0.2-2.5
	c-0.4-1-1.2-1.5-2-1.5C27.3,201.2,25.3,203.6,27.6,205.6z M248.9,277.6c0.4-1.9,0.7-3.3,0.4-4.4c0-0.2,0-0.4-0.2-0.5
	c-0.2-1.1-0.4-2.1-1.6-2.8c-0.9-0.4-1.8-0.7-2.5-0.7c-0.2,0-0.4,0-0.5,0c-0.2,0-0.4,0-0.4,0h-0.4l-0.5,0.4c0,0-0.9,0.7-1.8,1.4
	c-0.5,0.7-1.8,1.9-2.6,4c-0.7,1.4-0.9,4.4-0.9,8.6c0,0.4,0,0.7,0,0.9c0,1.2,1.8,7.7,2.5,9.2c1.1,1.6,2.3,2.8,3.7,3.7
	c1.2,0.7,4.6,2.6,6.3,3c0.4,0,0.5,0,0.9,0c1.6,0.4,3.5,0.9,5.6,0.9c2.6,0,4.8-0.2,7.9-1.1c0.9-0.2,1.6-0.2,2.3-0.4
	c1.9-0.4,3.9-0.7,6.2-2.6c0.5-0.4,0.9-0.7,1.4-1.1c2.1-1.8,3.7-3.2,4.8-4.9c0.4-0.7,0.5-1.1,0.9-1.6c0.7-0.9,1.6-2.1,2.5-4.6
	c0.2-0.5,0.4-0.9,0.5-1.2c1.2-2.8,1.9-4.6,2.1-8.4c0.2-4.2,0.2-7-0.5-9.1c-0.2-0.2-7.2-17.1-10-20.4c-2.3-2.5-10.4-19.5-11.6-22.9
	c-1.1-3-3.5-14.3-3.5-15.5c0-0.7,0-1.1,0-1.4c0-0.4,0-0.7,0-1.2c0-0.4,0.2-0.5,0.2-0.7c0-0.7,0.2-1.2,0.5-1.8c0.5-0.7,4.4-3,5.3-3.3
	c0.2,0,0.4,0,0.5-0.2c0.7-0.2,1.6-0.5,2.6-0.5c0.4,0,0.7,0,1.1,0c1.9,0.4,2.6,1.1,3.5,2.1c0.7,1.2,1.1,2.1,1.2,3
	c0.2,0.4,0.2,1.8,0.2,2.8c0.2,2.6,0.4,3.9,0.7,4.6c0.4,1.2,1.8,3,3.5,3c0.4,0,0.5,0,0.9-0.2c0.2,0,0.2,0,0.4,0
	c1.1,0,1.9-0.5,2.8-1.8c1.2-2.1,0.9-5.3,0.9-5.6c-0.2-0.7-1.2-6.9-2.3-9.2c-0.4-0.4-0.5-0.9-0.7-1.2c-0.5-1.4-1.1-2.3-2.3-3.3
	c-0.4-0.4-0.5-0.7-0.9-0.9c-0.5-0.7-1.1-1.2-2.5-1.9c-1.9-1.1-6.7-1.1-7.7-1.1c-0.9,0-2.5,0-3.5,0.4c-2.3,0.4-8.6,2.5-10.9,4
	c-1.1,0.7-6.2,4.4-8.4,9.2c-1.9,4-3.2,10.7-3.3,12.8c-0.2,2.3,1.4,14.4,3.7,19.4c2.3,4.8,9.7,19.5,11.3,22.5c1.6,3,4.2,9.3,4.8,11.8
	c0.2,0.5,0.4,1.1,0.5,1.8c0.5,1.8,1.1,3.7,1.1,4.9c-0.2,0.7-0.2,1.4-0.2,2.1c0,1.1,0,2.1-0.2,3.2c0,0.9-0.4,2.1-0.5,3.2
	c-0.2,0.7-0.4,1.4-0.5,1.9c0,0.7-0.9,2.3-1.2,2.6c-0.2,0.2-0.4,0.4-0.4,0.4c-0.4,0.4-0.7,0.7-1.4,0.9c-0.9,0.2-1.4,0.2-2.1,0.2
	c-0.5,0-0.9,0-1.4-0.2c-1.2-0.2-4.4-1.4-4.9-1.8c-0.5-0.7-0.7-1.2-1.1-2.6c-0.4-1.8-0.7-4.6-0.5-5.8
	C248.6,278.8,248.8,278.3,248.9,277.6z M327.2,269.3c0.2,1.2,0.5,12.1,1.1,14.6c0.5,2.5,3,10.6,3.9,12.1c0.7,1.4,2.6,4.4,4,5.5
	c0.4,0.2,0.7,0.7,1.4,1.2c1.4,1.4,2.5,2.3,3.3,2.8c1.1,0.5,2.6,0.7,3.7,0.7c0.9,0,1.6-0.2,1.9-0.4c1.6-0.7,3-2.8,2.3-4.8V301
	c-4.4-9.9-2.1-22.9-1.2-44.5c0.2-2.5,0.9-14.6,0.4-16.5c0-0.4,0-0.7-0.2-1.1c-0.4-2.1-0.9-5.6-2.5-8.4c-0.4-0.9-0.7-1.6-1.1-2.3
	c-0.7-1.8-1.4-3-3.2-4.9c-2.1-2.1-4.8-4-6.9-4.8c-1.4-0.4-3.2-0.9-4.8-0.9c-1.1,0-1.8,0.2-2.5,0.5c-2.6,1.1-5.1,4-6,5.3
	c-1.8,2.5-3.3,5.6-5.1,12.3c-1.2,4.8-3.3,15-4.6,20.8c0-2.3,0-4.8,0-6.7l0.2-52.1c0-0.4-0.5-6.7-1.1-9.3c0-0.9-0.2-1.6-0.2-2.3
	c-0.2-1.6-0.2-2.8-1.2-4.4l-0.2-0.4c-1.2-2.1-2.3-4-3.9-4.9c-0.2,0-0.5-0.2-0.7-0.4c-0.7-0.5-1.8-1.2-3.2-1.2c-0.2,0-0.5,0-0.7,0
	c-1.6,0.2-4.9,0.7-6.5,3.7c-0.9,2.1-2.8,6.2-3,10c-0.2,3.3-1.2,77.1-1.2,80.2c0.2,4.2,0.5,17.8,0.9,18.8c0,0.7,1.1,4.9,1.9,6.7
	c0.2,0.4,0.2,0.5,0.4,0.7c0.5,1.2,1.1,2.3,3,3.3c1.2,0.5,3.2,0.7,4,0.7c1.2,0,4.6-0.2,6.3-1.9c0.4-0.4,0.9-0.7,1.4-1.1
	c1.8-1.1,3.9-2.5,5.6-6.9c2.1-5.3,3.9-17.1,4-17.8l6.3-32.9c0.2-0.7,1.4-4.4,2.1-6.7c0.4-1.6,1.2-2.5,1.4-2.8h0.2h0.2
	c0.2,0.2,0.2,0.4,0.4,0.7c0.5,1.4,0.5,1.4,0.5,2.3c0,0.4,0,0.9,0,1.8C328.5,235.7,327.8,257.9,327.2,269.3z M141.8,51.8
	c-1.3,2-3.6,4.2-5.7,5.3c-0.9,0.4-2.1,0.7-3.1,1.1c-0.7,0.3-2,1.1-1.9,2c2.6,1.4,8.3-0.9,11-1.5c2.3-0.5,4.6-1.1,7-1.4
	c3.9-0.6,7.8-1.3,11.7-1.8c8.7-1.1,17.5-1.5,26.3-0.9c7.4,0.5,14.9,0.4,22.3,1.1c15.3,1.4,30.3,3.1,45.1,8
	c6.8,2.2,13.7,3.8,20.5,6.1c1.9,0.6,3.3,1.2,5,2.1c1.4,0.8,4.8,1.7,5.3,3.4c0.6,2.3-4.9,4.8-6.3,6.1c-1,0.9-3.8,2.7-3.7,4.2
	c2.1,0.3,4.2-0.1,6.2-0.6c2.2-0.5,4.4-0.5,6.6-0.7c4.7-0.4,9.3-1.2,14-1c0.2-1.9-2.7-5-3.4-6.9c-1-2.6-2.2-5-3.5-7.4
	c-1.6-3.1-3.5-8.2-6.6-9.9c-0.5-0.3,0.4,6.7,0.4,7.1c0.2,2.4-0.9,4.5-1.8,6.7c-4.4-2.3-8.7-4.8-13.1-7.1c-3-1.6-6.2-2.4-9.4-3.7
	c-15.5-6.4-32.4-11.1-48.8-14.6c-11.1-2.4-22.8-5.2-34.2-5.5c-5.8-0.2-11.6-1.1-17.5-1.3c-6-0.2-12-0.3-18-0.5
	c-4.2-0.2-8.1,0.3-12.3,0.4c-1.8,0.1-7.2,0-7.6,2.5C128.2,43.8,144.7,47.5,141.8,51.8z M398.6,320.7c-0.4-0.3-0.7-0.5-1.1-0.5
	c-0.3,0-0.6,0.1-1,0.4c-0.3,0.3-0.6,0.6-0.9,0.9c-0.2,0.3-0.3,0.5-0.3,0.9c-0.1,0.3-0.1,0.6-0.1,0.9c0,2.2,0.4,4.2,1.3,6.1
	c0.9,1.8,1.8,3.7,2.9,5.5c1-2.7,1.3-5.5,1-8.3c-0.2-1.7-0.6-3.4-1.2-5C399.3,321.3,399,321,398.6,320.7z M404.7,311
	c-0.8-0.1-1.5,0.1-2.1,0.5c-0.6,0.5-1,1.1-1.1,1.9c-0.1,0.8,0.1,1.4,0.6,2.1c0.4,0.6,1.1,1,1.8,1.1c0.8,0.1,1.5-0.1,2.1-0.5
	c0.6-0.5,1-1.1,1.1-1.9c0.1-0.8-0.1-1.5-0.5-2.1C406,311.5,405.4,311.1,404.7,311z M398.3,164.6c1.2,6.3,2.6,9.6,5.4,16.5
	c0.2,0.2,0.3,0.4,0.3,0.7c1.8,4.3,2.1,5.4,2.5,6.8c0.2,0.2,0.3,0.4,0.2,0.6c1.5,4.5,1.3,6.7,0.9,8.5c-0.3,1.1-0.8,2.1-1.3,3
	c-0.7,1.1-2.9,4.7-3.2,6.3c0,0,0,0,0,0c0,0,0,0,0,0c0.1,0,0.2,0,0.3-0.1c1.3-0.6,3-3.2,5.1-1.9c1.9,1.2,1.2,5.9,1.1,7.8
	c-0.1,1.4-0.1,10.4-0.3,12.6l-0.3,3.1c-1.5,14.3-2.3,16.3-7.4,18.6c0.8,0.1,1.2,0.3,1.9,0.9c0.7,0.7,0.9,1.7,0.9,2.7
	c-0.4,4-3.8,8.4-5.4,10.7c0.1,0.6-0.2,1.2-0.9,1.3c-1.7,2.5-2.6,4-4.6,6.3c-0.7,0.8-1.3,1.6-2,2.4c-2.5,3.3-5.8,8.1-9.8,8.8
	c-1.8,0.4-3.3-1.2-5.2-1c1.8,1.3,3.8,3.3,2.4,4.9c-0.7,0.6-1.3,1-3.3,0.7c-2.2-0.4-4.4-1.2-6.3-2.2c0.8,1.2,1.3,2.4,2,3.3
	c1.5,2.1,1.7,3.3,1.7,3.3c0.1,0.3-0.3,0.6-0.6,0.4c0,0-0.7-0.5-1.3-1.4c-0.6-0.9-0.8-1.8-1.3-2.7c-1.3-2.4-3.5-3.2-4.5-4.3
	c0,0-0.1,0.1-0.1,0.1c2.9,2.7,1.7,6.1,2,10.8c0,0.3-0.2,0.5-0.5,0.5c-0.3,0-0.5-0.2-0.5-0.5c0,0,0-0.8,0-1.8c0-2-0.2-2.9-0.4-3.7
	c-0.3-1-0.7-2.5-1.4-4.4c-0.5,0.5-1.9,2.2-2.5,2.8c-0.8,0.8-1.6,1.5-2.2,2.2c-2.5,2.9-3.8,4.6-3.8,4.6c-0.2,0.3-0.5,0.3-0.8,0.1
	c-0.3-0.2-0.3-0.5-0.1-0.8c0,0,0,0,0,0c0,0,1.4-1.6,3.6-4.7c1.6-2.3,2.4-3.3,4.9-6.3c0,0-0.4-0.4-0.4-0.4c-0.4-0.4-0.6-0.5-1-0.9
	c-0.2-0.2-0.4-0.3-0.7-0.5c-2.1-1.5-0.8-1.2-3.8-2.6c-1.4-0.5-1-0.4-2.4-0.6c-0.7-0.1-0.5-1.1,0.2-1c0,0,0.5,0.1,0.5,0.1
	c1.9,0.3,3.3,0.8,4,1.1c1.2,0.5,2.6,0.5,4.2,2.9c0.2,0.3,0.3,0.5,0.4,0.8c0.2-0.2,0.4-0.5,0.6-0.8c-5.9-9-8.2-12.1-5.1-20.1
	c0.2-0.5,0.4-0.9,0.7-1.3c0.2-0.3,0.5-0.5,0.9-0.3c0.2,0.1,0.3,0.2,0.3,0.4c0.7,2.5,1.4,5.2,3.3,6.9c0.2-0.4,0.3-0.9,0.2-1.3
	c-0.2-0.2-0.3-0.6-0.1-0.9c-0.7-2.5-2.6-3.6-2.1-8c-1.2-2.9,2-9.9,4.4-18.6c2.2-7.8,2.4-7.2,4.3-11c0.7-1.3,2-6.4,4.2-5.9
	c0,0,0,0,0.1-0.1c0.1,0,0.3-0.2,0.5-0.3c1.5-0.4,2.4,0.5,3.5,1.1c0.3-3.7-2.9-7.4-2.8-11.1c0-0.5,0.2-0.9,0.3-1.3
	c-0.5-1.6-0.1-4.1,0.1-5.5c0.7-4.1,3.3-7.6,5.6-11c2.6-3.7,5.5-7.2,8.5-10.5c1.5-1.6,3-3.7,4-5.8c0.2-0.6,0.5-2,0.6-2.7
	c0,0,0,0,0-5.1c-0.2-0.2-0.3-0.5-0.2-0.7c-0.1,0.1-0.1,0.3,0.1-0.5c0.1-0.2,0-0.2,0.2-0.4c-0.1,0,0-0.1,0.2-0.2c0-0.1,0-0.2,0-0.2
	c0-0.3,0.2-0.5,0.5-0.5c0.3,0,0.5,0.3,0.5,0.5c0,0,0,0.1,0,0.1C397.8,164.1,398.2,164.3,398.3,164.6z M381,215.4
	c0.3-0.1,0.6,0,0.7,0.2c0.2,0.3,0.4,0.7,0.6,1c0.7,2.2,0.6,2.9,1.8,6.2c1,2.8,3.2,9.1,4,12c0.4-1.4,1.1-4.1,1.4-5.6
	c1.6-7.7,2.1-8.3,3.4-16.3c-0.1,0-0.1-0.1-0.2-0.1c0,0-0.1-0.1-0.1-0.1c0,0-0.4-0.8-1.2-1.9c-0.7-1.1-1.7-2.6-2.7-4
	c-0.6-0.8-2.5-2.9-3.1-3.6c-0.7-0.7-1.3-1.4-1.5-1.6c-0.4-0.4-0.4-1,0-1.4c0.4-0.4,1-0.4,1.4,0c0.1,0.1,0.1,0.2,0.2,0.3
	c0.3,0.6,1.2,2.2,2.2,3.9c0.7,1.1,1.2,2.2,5.2,6.9c0.3-1.9,0.5-2.9,1.3-10c-0.2-0.1-0.4-0.3-0.4-0.6c-0.1-1.5-0.2-1.8-0.7-3.3
	c-0.6-1.6-2.5-4.5-4.2-6.2c-0.3-0.3-0.3-0.8,0-1c0.4-0.4,1.1-0.2,1.2,0.3c0.7,2.3,2.9,4.7,4.4,8.1c0.8-8.4,1.2-16.3,1.3-23.4
	c-2.9,9.9-9.4,16.6-14.9,27.6C378.4,208.4,378.5,210,381,215.4z M374.8,227.6c0.1,0,0.3,0.1,0.4,0.2c0.1,0.1,0.6,0.8,0.7,0.9
	c2.5,3.9,2.9,8.6,7.2,14.9c0.3,0.4,1.1,1.6,1.3,2.1c1.3-3.2,2.5-7.1,2.8-8.1c-1.7-9.1-4.6-15.3-5.3-18.2c0,0.5-0.1,0.8-0.2,1.4
	c-0.2,0.9-1.3,1-2.1,0.7c-0.4-0.1-0.7-0.3-1-0.5c-0.5-0.3-1-0.7-1.3-0.8c-0.3-0.1-0.3-0.1-0.5,0.1c0,0-0.2,0.2-0.3,0.4
	C375.5,222.2,375.2,226.2,374.8,227.6z M369.8,241.3c0.2,0,0.4,0.1,0.5,0.3c0.9,1.1,0.7,0.7,1.9,2.8c2.9,5.4,4.3,7.7,6.6,13.9
	c0.7-1.5,4.8-10.4,4.9-10.7c-0.2-0.1-0.3-0.3-0.4-0.5c-0.3-1.1-0.5-1.6-1.2-2.9c-2-3.8-5.1-12.1-7.9-14.7c-1.7,5.1-0.9,3.1-3.4,9.4
	C370.5,239.9,370.5,240,369.8,241.3z M367.3,246.1c0.1,0,0.2,0,0.3,0.1c4.3,2.3,6,10.2,9.3,15.8c0-0.1,0.1-0.1,0.1-0.2
	c0-0.2,0.1-0.4,0.3-0.5c0.2-0.3,0.3-0.7,0.5-1c-1.1-4.4-0.6-2.7-1.8-6c-0.2-0.5-0.4-1.1-0.7-1.7c-1.9-4-1.4-3-2.5-4.9
	c-0.4-0.7-1.9-3.1-2.4-3.7c-0.7-0.8-0.2-0.3-1.2-1.2c-0.2-0.2-0.1-0.1-0.2-0.2C368.5,243.8,367.9,245,367.3,246.1z M365.9,261.7
	c0.1,0,0.2,0.1,0.3,0.1c1.6,1,2.1,3.3,2.8,5.7c0.8,2.7,0.9,3.7,1,5c2.7-3.4,2.4-3.1,4.5-6.3c0.6-0.8,1-1.7,1.6-2.8
	c-2.5-2.9-3-7.6-5.2-11.6c-0.8-1.6-2-2.8-2.6-3.3c-0.5-0.4-0.3-0.3-1.4-0.9c-0.1-0.1-0.2-0.1-0.3-0.2
	C362.4,256.2,364.9,258.6,365.9,261.7z M365.6,277.8c3.2-3.8,2.5-3,3.4-4.1c0-0.1-0.1-0.2-0.1-0.3c-0.1-1.9-0.2-2.1-0.6-3.6
	c-0.5-1.5-1.5-4.5-2.3-5.8c-0.1,0.5-0.3,0.9-0.6,1.3c-0.2,0.3-0.5,0.3-0.7,0.2c-0.1,0-0.9-0.8-0.9-0.8c-1.5-1.7-2.2-3.1-2.9-5.3
	c-1,2.6-0.8,4.1-0.9,5.1c0,0.5,0,0.9,0,1.4C360.4,269.9,361.7,272.2,365.6,277.8z M385.4,275.9c-0.4,0.1-0.9,0.1-1.5,0.1
	c-5.9-0.1-8-2.6-10.7-4.1c-3.5,4.2-1.9,2.5-6.6,7.8c0.7,1.1,1.7,1.9,2.9,2.5c1.8,0.9,5.1,2.2,7.1,1.8c0.2,0,0.3-0.1,0.5-0.1
	c0.1-0.1,0.2-0.1,0.3-0.2l0.2-0.2c0-0.2,0.1-0.1,0-0.3c-0.2-1-2.2-2.1-3.2-3.7c-0.2-0.3,0-0.7,0.3-0.8c2.2-0.6,3,0.6,5,0.5
	C382,278.6,383,278.4,385.4,275.9z M396.2,263c-5.5,0.4-11,0.7-16.8,0.1c-1.5,2.4-2.2,3.6-2.9,4.5c-0.2,0.3-2.2,3-2.4,3.3
	c3.5,1.8,4,4.6,11.9,3.6c0.2,0,0.4,0.1,0.5,0.2c1.2-1.3,2.3-2.8,3.4-4.2C391.5,268.4,393.4,266.5,396.2,263z M401.4,249.6
	C401.6,249.7,401.5,249.7,401.4,249.6C401.5,249.7,401.4,249.7,401.4,249.6c-1.1-0.2-3.1,0.6-4.9,0.2c-6.4,1.4-2.5,0.4-6.2,1.4
	c-5.1,1-2.5,0.6-5.6,0.9c-0.7,2.1-2.1,5.2-4.5,9.7c1.1,0.2,2.7,0.4,3.8,0.5c5,0.5,9.1,0.6,13.3-1.5c0.2-0.1,0.4-0.1,0.6-0.1
	c1.1-1.7,5.6-9.4,4.2-10.8c0,0-0.1-0.1-0.1-0.1c0,0,0,0,0,0C401.9,249.8,401.5,249.7,401.4,249.6z M405.5,240
	c-5.9,2.1-11.5,6-19.3,7.8c-0.3,0.9-0.1,0.4-1.1,3.1c1.9,0.1,1.9,0,5-0.3c2.1-0.5,2-0.3,5.5-1.9c0-2,6.3-3.1,7.6-4.3
	C404.6,243.4,405.1,241.7,405.5,240z M406,190.2c-3.7,3.6-8.5,9.2-8.5,9.2c-0.3,0.4-1,0.4-1.2-0.1c-1.2,13.9-3.5,25.7-3.9,27.4
	c-0.3,1-0.6,2.1-0.9,3.1c-0.3,1-0.6,2.1-0.9,3.1c-1.2,4.7-2.8,9.9-3.9,12.9c3.7-1.2,9.2-1.4,17.9-7.5c0.5-0.4,0.8-0.6,0.8-0.6
	c0.1-0.1,0.2-0.1,0.3-0.2c0-0.1,0.4-5.2,0.8-9c0.8-8.1,0.3-2.7,0.7-8.5c-3.1,2.6-7.2,4.8-9.3,6.5c-2.5,1.9-3.2,2.5-4.2,3.1
	c-0.5,0.3-0.8,0.4-0.8,0.4c-0.3,0.2-0.8,0-0.9-0.3c-0.2-0.4,0-0.8,0.4-1c0.2-0.1,0.5-0.2,0.7-0.3c0.4-0.2,1-0.6,1.8-1
	c7.9-5.4,9.1-5.4,12.4-9.2c0.7-7.8,1-9.9,0.5-11.3c-0.1-0.3-0.3-0.6-0.3-0.6c0,0,0,0,0,0c0,0-0.1,0-0.2-0.1c-0.3-0.1-0.5,0-0.9,0.2
	c-1.2,0.6-2.2,2.2-4,2c0,0-0.1,0-0.3-0.1c-3.8,2.1-5.2,4-6.1,5c-0.3,0.3-0.8,0.4-1.1,0.1c-0.4-0.3-0.4-0.9,0-1.2
	c2.9-2.5,2-1.7,6.5-4.7c-0.2-1.5,2.1-5.3,3.5-7.5C407.5,196.4,407.1,194.2,406,190.2z M403.3,182.7c-1.9,2-2.9,3.7-5.5,5.7
	c-0.3,0.2-0.6,0.2-0.9-0.1c-0.1,3.7-0.5,9.1-0.6,10.1c0,0,0,0,0.1-0.1c0,0,6.2-6.1,9.1-9.7C405.2,187.7,404.8,186.5,403.3,182.7z
	 M402.8,181.4c-2.6-6.6-4-9.7-5.3-15.7c0,0.8,0,1.5-0.1,2.3c0,1-0.1,1-0.1,1.9c0,3.2-0.1,10.2-0.3,17.4c0.1-0.1,0.3-0.2,0.4-0.3
	c0.2-0.1,0.5-0.3,0.7-0.5C399.8,185.3,401.5,183.1,402.8,181.4z M122.3,118.5c0.7-1.4,1.5-3.1,2.7-4.9c1.1-1.8,2.4-3.7,3.9-5.4
	c1.5-1.8,3-3.3,4.5-4.7c1.5-1.4,3-2.4,4.3-3.2c4.2-2.4,8.7-3.8,13.3-4.3c4.7-0.5,9.4,0.3,14.3,2.3c0.5-2.6,1.6-4,3.4-4.3
	c1.3-0.3,2.5-0.4,3.8-0.3c1.2,0.1,2.5,0.5,3.7,1.4c0.6,0.5,1.1,1.4,1.4,2.7c0.1,1.1,0.2,2.2,0.2,3.1c0,1,0,2,0,3.1
	c-0.4,8.1-0.8,16.1-1.2,24.1c-0.5,8-0.5,16,0,24.1c0.3,3.7,0.8,7.4,1.4,11.1c0.6,3.7,2.4,7,5.3,9.7c2.4-1.1,4.9-3.7,7.3-7.7
	c2.4-4,4.8-8.5,7.1-13.5c1.5-3.1,2.9-6.2,4.4-9.5c1.5-3.3,2.8-6.3,3.9-9c1.1-2.7,2.1-5.2,2.9-7.4c0.5-1.4,1-2.5,1.4-3.4
	c-2.9-0.9-5.3-2.4-7-4.7c-2.3-3.1-3.6-6.9-3.9-11.4c-0.3-4.2,0.1-7.9,1.3-11.2c1.1-3.3,2.7-6.3,4.7-9c2-2.6,3.9-4.5,6-5.7
	c2-1.2,4.6-1.6,7.9-1.3c2.4,0.3,4.5,1.8,6.4,4.3c1.8,2.5,2.9,5.4,3.2,8.6c0.1,2.1,0.2,3.8,0.1,5.2c-0.1,1.4-0.3,2.7-0.6,4
	c-0.3,1.3-0.7,2.6-1.1,4c-0.4,1.4-0.9,3-1.6,4.9c-0.3,0.6-0.6,1.2-0.7,1.8c-0.2,0.6-0.4,1.2-0.7,2.1c0.8,0,1.6,0,2.3-0.1
	c0.7-0.1,1.5-0.1,2.3-0.1c2.7-0.3,5-0.5,6.8-0.6c1.8-0.1,3.9,0.5,6.5,1.6c6,2.5,9.2,6.9,9.8,13.4c0.3,3.1,0.2,5.9-0.4,8.5
	c-0.6,2.6-1.3,5.3-2.1,8.2c-1,3.2-1.9,6.1-2.8,8.7c-0.9,2.6-1.8,5.5-2.8,8.7c-0.5,1.8-1,3.4-1.5,5c-0.5,1.5-1,3.1-1.5,4.7
	c-0.3,1.4-0.5,3.1-0.6,5c-0.1,1.9,0.1,3.2,0.6,4c1.6-0.3,3.4-1.2,5.5-2.8c2-1.5,3.6-2.9,4.7-4.2c2.4-2.6,4.7-5.5,6.9-8.8
	c2.2-3.3,4.2-6.5,6-9.5c2.8-5.1,5-9.8,6.6-14c0.2-0.6,0.5-1.2,0.7-1.8c-0.2-1.5-0.4-2.9-0.5-4.4c-0.7-7.8-0.3-15.8,1.2-24.1
	c0.5-3.1,1.5-5.9,3-8.5c1-1.9,2.7-3.2,5.2-3.8c2.5-0.6,4.6-0.3,6.4,1c1.3,1,1.9,2.1,1.9,3.4c0.3,1.3,0.4,2.5,0.3,3.8
	c-0.1,1.2-0.1,2.5,0.1,3.8l0,3.4c0.3-0.8,0.6-1.4,0.9-1.7c0.2-0.3,0.4-0.6,0.6-1c3.3-7.1,7.3-13.3,12.2-18.8
	c3.1-3.2,6.3-5.9,9.7-8.2c4.5-3,9.5-3.8,15-2.3c2.7,0.7,4.9,1.8,6.4,3.4c1.5,1.6,2.4,3.8,2.5,6.5c0.1,3.7-0.1,7.3-0.8,10.9
	c-0.5,2.7-1.1,5.4-1.9,8c-0.7,2.6-1.5,5.4-2.3,8.5c0.6-0.8,1.2-1.4,1.6-1.9c0.4-0.5,0.9-1,1.3-1.7c2.1-2.6,4.3-4.9,6.7-7.1
	c2.3-2.2,5-4.1,7.9-5.9c2.7-1.6,5.5-2.7,8.4-3.5c2.8-0.7,5.8-0.9,8.8-0.6c4.5,0.4,7.9,1.9,10,4.8c2.2,2.8,2.8,6.4,2,10.8
	c-0.7,3.7-1.8,7.5-3.5,11.4c-1.5,3.2-3,6.3-4.7,9.3c-1.6,3-3.2,6.1-4.7,9.3c-1.8,3.7-3.6,7.5-5.3,11.3c-1.7,3.9-3.5,7.6-5.3,11.3
	c-1.1,2.7-1.9,5.5-2.2,8.2c-0.3,2.7,0.2,5.5,1.6,8.2c0.2,0,0.8-0.4,1.9-1.1c1.1-0.7,2.7-1.9,4.6-3.6c1.9-1.7,4.3-4,6.9-7
	c2.7-3,5.6-6.9,8.7-11.7c2.4-3.9,4.7-7.9,6.8-12.1c2.1-4.2,4-8,5.6-11.6c1.6-3.5,2.9-6.6,3.9-9.2c1-2.6,1.6-4.1,1.7-4.6
	c0.7-1.4,1.5-2.9,2.7-4.3c1.1-1.4,2.7-1.8,4.6-1.2c1.3,0.3,1.8,1.3,1.6,3c-0.3,1.7-0.5,2.9-0.9,3.5c-1.3,4.7-3.5,10.3-6.5,16.8
	c-3,6.5-6.4,13.1-10.2,19.9c-3.9,7.1-7.6,12.5-11.1,16.1c-3.5,3.7-6.1,6.3-7.9,7.9c-5.3,4.2-11.3,5.7-17.9,4.7
	c-2.9-0.3-5.4-1.4-7.5-3.2c-2.1-1.8-3.4-4.1-3.8-7c-0.5-3.2-0.4-6.4,0.1-9.4c0.5-3.1,1.2-6.2,2-9.4c1.5-5,3.4-9.8,5.9-14.4
	c2.4-4.6,4.9-9.2,7.3-13.9c1-1.8,2-3.5,3.1-5.2c1.1-1.7,2-3.4,2.8-5.2c0.8-1.6,1.5-3.3,2-4.9c0.5-1.7,1-3.4,1.5-5.2
	c0.3-1.1,0.5-2.3,0.5-3.5c0-1.2-0.6-2.5-1.7-3.8c-0.8,0.3-1.5,0.7-2.1,1.1c-0.6,0.4-1.3,0.8-2.1,1.1c-3.1,1.8-5.9,3.8-8.5,6.1
	c-2.6,2.3-4.9,4.9-6.8,7.8c-3.6,4.8-6.6,9.9-9.2,15.3c-2.5,5.4-4.7,11-6.5,16.8c-0.7,2.4-2,3.7-4.1,3.8c-0.8,0-1.5,0-2.2,0
	c-0.6,0-1.3-0.1-1.9-0.3c-2.6-0.2-4.1-1.6-4.6-4.4c-0.8-3.9-1.2-7.8-1.1-11.7c0-4,0.4-7.9,1.3-11.7l6-26.8c0.3-1.8,0.6-3.5,0.8-5.3
	c0.2-1.8,0.1-3.7-0.2-5.8c-0.3,0.3-0.7,0.5-1.1,0.6c-0.4,0.1-0.8,0.3-1.1,0.6c-3.7,2.9-7.1,6-10.1,9.5c-3,3.5-5.7,7.3-7.9,11.7
	c-2.8,5.1-4.8,10.5-6.1,16.2c-1.3,5.6-2.4,11.4-3.2,17.2c-0.2,1.1-0.1,2.3,0.1,3.4c0.2,1.1,0.5,2.3,0.8,3.4c0.3,1.9,0.7,3.8,1.3,5.7
	c0.6,1.9,1.1,3.8,1.5,5.7c0.3,1.5,0.2,2.5-0.3,3c-0.5,0.6-1.5,1-2.9,1.3c-1.9,0.5-3.8,0.5-5.7,0.1c-1.9-0.4-3.4-1.6-4.7-3.5
	c-0.6-1.1-1.3-2.2-1.9-3.2c-0.6-1-1.2-2-1.7-3.2c-0.6-1.5-1.2-3-1.7-4.5c-0.6,1.1-1.1,2.1-1.7,3.1c-1.1,2-2.4,4-3.8,6
	c-1.4,2-2.9,4.2-4.5,6.6c-2.3,3.4-4.9,6.6-7.9,9.8c-3,3.1-6.4,5.6-10.3,7.3c-1.9,0.8-4,1.4-6.3,1.8c-2.3,0.4-4.6,0.3-7-0.4
	c-4.3-1-7.5-2.8-9.4-5.4c-1.9-2.6-2.9-6.1-2.8-10.7c0-2.7,0.2-5.4,0.7-8.1c0.4-2.7,1-5.4,1.6-8.1c1.2-4.5,2.3-8.4,3.6-11.7
	c1.2-3.3,2.5-7.2,3.8-11.7c0.5-1.8,0.8-3.6,0.9-5.6c0.1-1.9-0.3-3.8-1.3-5.6c-1,0.2-1.9,0.4-2.8,0.6c-0.9,0.2-1.8,0.4-2.8,0.3
	c-1.8,0.3-3.6,0.5-5.4,0.7c-0.2,0-0.4,0-0.6,0c-0.1,0.2-0.1,0.4-0.2,0.7c-4.8,14-9.1,25.1-13.1,33.2c-4,8.1-7.1,13.6-9.2,16.5
	c-2.1,2.7-4.4,4.7-6.9,5.9c-2.5,1.2-5,1.7-7.4,1.5c-2.4-0.2-4.8-0.9-7-2.2c-2.3-1.3-4.2-3.1-5.8-5.4c-1.6-2.3-2.8-4.6-3.7-7
	c-0.9-2.4-1.5-5-2-7.8c-0.5-3.1-0.8-5.9-1-8.6c-0.2-2.7-0.5-5-0.8-7.1c-0.3,0.5-0.5,1-0.6,1.4c-0.1,0.5-0.3,1-0.6,1.4
	c-1.3,2.7-2.6,5.5-3.9,8.2c-1.3,2.7-2.6,5.5-3.9,8.2c-1.6,2.7-3.2,5.2-4.6,7.5c-2.8,3.7-6.3,6.2-10.7,7.4c-4.4,1.3-8.6,0.8-12.8-1.3
	c-1.4-0.7-3.1-2.4-4.8-5.1c-1.8-2.8-3-6.5-3.7-11.3c-0.7-4.8-0.6-10.6,0.2-17.4C116.5,135.2,118.7,127.4,122.3,118.5z M214.1,109.1
	c1-1.1,1.8-2.6,2.6-4.5c0.7-1.8,1.3-3.8,1.6-5.9c0.3-2.1,0.4-4.1,0.3-6.2c-0.1-2-0.7-3.8-1.7-5.2c-2.4,2.4-3.9,5.5-4.5,9.4
	C211.8,100.7,212.3,104.8,214.1,109.1z M133,161.3c0.3,2,0.9,4.2,1.7,6.4c2.9-3.2,5.4-6.5,7.4-9.8c2-3.3,3.9-6.7,5.5-10.3
	c1.6-3.4,3.1-6.8,4.5-10.4c1.4-3.5,2.7-7.1,4.1-10.6c1.3-3.7,2.6-7.2,3.9-10.5c1.3-3.3,2.5-6.8,3.4-10.5c-0.6-0.3-1.2-0.7-1.8-1
	c-0.6-0.3-1.2-0.7-2.1-1c-0.6-0.3-1.6-0.5-2.8-0.5c-1.2,0-2.2,0.2-3,0.7c-0.8,0.6-2,1.7-3.5,3.1c-1.5,1.4-2.8,3-3.8,4.6
	c-4.6,6.6-7.9,13.5-10,20.9c-2.1,7.3-3.4,14.9-3.8,22.8C132.6,157.3,132.7,159.3,133,161.3z M11.2,237.1c0.3-6.3,5.9-6.1,10.4-3.8
	c2.7,1.4,4.6,3.2,6.7,5.2c1.7,1.6,3.8,3.1,4,5.8c-2,0.9-4.7-1.1-6.7-1.3c-2.7-0.3-5.4-0.1-8.1,0C13.4,243.1,11.1,241.4,11.2,237.1z
	 M24.4,240.4c1.7,0.7,1.8-2.1,0.4-2.1c0,0-0.1,0-0.1,0C23.5,238.5,23.4,240,24.4,240.4z M16.8,239.4c2.1,1.1,4.6-2.3,2.4-3.4
	C17.4,235.1,14.4,238.2,16.8,239.4z"/>
</svg>
