<?xml version="1.0" encoding="utf-8"?>
<!-- Generator: Adobe Illustrator 18.0.0, SVG Export Plug-In . SVG Version: 6.00 Build 0)  -->
<!DOCTYPE svg PUBLIC "-//W3C//DTD SVG 1.1//EN" "http://www.w3.org/Graphics/SVG/1.1/DTD/svg11.dtd">
<svg version="1.1" id="Layer_1" xmlns="http://www.w3.org/2000/svg" xmlns:xlink="http://www.w3.org/1999/xlink" x="0px" y="0px"
	 viewBox="0 0 432 432" enable-background="new 0 0 432 432" xml:space="preserve">
<g>
	<path fill="#333333" d="M449.8,409.3c-0.2-0.3-0.5-0.7-0.8-1.1c-0.7-1-1.6-4.7-1.6-9.6c0-4.6,0.2-27.9,0.2-28.2
		c-0.1-0.4-0.5-8.9-0.7-9.5c-0.1-0.9-0.8-3.2-1-3.9c-0.2-0.8-1.9-4.5-2.4-5.1c-0.4-0.7-2.2-2.2-3-2.7c-1-0.5-2.3-0.9-3.1-1
		c-0.1,0-0.1,0-0.2,0c-0.2,0-0.3,0-0.7,0c-0.7,0-1.2,0.1-1.9,0.5c-1.2,0.8-2.4,2.2-3.1,3.1l-0.1,0.1c-1,1.3-1.6,2.4-2,3.2
		c0,0.1-0.2,0.4-0.3,0.8c-0.3,0.8-0.9,1.8-1.1,2.8c-0.1,0.2-0.1,0.4-0.2,0.8c-0.1-0.7-0.2-1.3-0.4-1.9c-0.8-2.8-3.1-5.9-4.2-7
		c-1.2-1-2.1-1.3-2.8-1.5c-0.7-0.2-1.3-0.4-2.2-0.4c-0.2,0-0.3,0-0.4,0c-1.1,0.1-2.6,0.3-3.7,1.8c-0.9,1.2-2.1,3.6-2.8,6.2
		c-0.3,1.5-1.9,7.5-3,11.8c0-0.1,0-0.2,0-0.3c0-0.8,0.4-10.2,0.1-12.7c-0.4-3.1-0.8-5-1.3-6.1c-0.5-1.4-1.5-2.6-2.1-3.3l-0.1-0.1
		c-0.5-0.7-1-1.2-1.8-1.8c-0.8-0.5-1.8-1-3-1c-0.1,0-0.3,0-0.5,0c-1.6,0.2-3.5,1.8-3.8,3.9c-0.3,1.9-1.4,25.5-1.4,26.5l0.7,19.9v0.1
		c0.4,3.3,1.5,11.9,1.6,12.3c0,0.8,1.3,3.8,2.2,4.6c0.8,0.8,2.2,1.5,3.6,1.5c0.2,0,0.3,0,0.4,0h0.2c1.5-0.2,3.3-0.4,4.2-1.6
		c0.2-0.2,0.3-0.3,0.5-0.5c0.4-0.5,1-1.2,1.3-2.3c0.4-1.5,0.7-4.3,0.7-5.8c0.1-1.3,0.5-13.9,0.7-15.6c0-0.7,0.4-2.3,0.8-3.9
		c0.5-2.6,1.3-5.8,1.5-8.2c0.2-2.8,1.9-8.1,2.8-11.3c0.5-1.8,0.8-2.6,0.9-3.1c0.1-0.5,0.2-1.3,0.4-2c0,2-0.3,17.2-0.7,27.5l0.7,15.1
		v0.1c0.3,2.4,0.9,8,1.4,9.1c0.5,1,1.4,2.2,2.2,2.6c0.7,0.4,1.8,0.8,2.7,0.8c0.2,0,0.5-0.1,0.8-0.1c0.7-0.2,2.1-0.8,2.8-1.8
		c0.1-0.1,0.3-0.3,0.4-0.5c0.5-0.5,1.1-1.2,1.2-2c0-0.1,0.1-0.3,0.2-0.5c0.5-1.2,1.6-3.6,1.4-7.2c-0.2-4.4,0.3-23.4,0.3-24.3
		c0.1-0.2,0.2-1,0.4-2.7c0.3-2.4,0.8-6.1,1-6.8c0-0.4,0.1-1.2,0.3-2.3c0.2-2.1,0.7-5.6,1.1-6.5c0.7-1.6,1.4-3,1.6-3.2
		c0.1,0,0.1,0,0.1,0c0.1,0.4,0.3,1,0.3,1.2c0,0.5,0.8,9.7,0.4,14.2c-0.4,4.6,0,20.1,0,20.8v0.1h0.1c0.1,1.3,1.6,12.6,1.9,13.6
		c0.2,1.1,2.5,5.9,3.5,7.2c1,1.4,3.1,2.2,4.2,2.6c0.8,0.3,2,0.5,3,0.5c0.7,0,1.1-0.1,1.5-0.4c0,0,0.1,0,0.1-0.1
		c0.8-0.4,1.3-1.1,1-2.7C450.9,410.6,450.4,410,449.8,409.3z"/>
	<path fill="#333333" d="M496.1,408.5c-0.1,0-0.1-0.1-0.2-0.2c-0.2-0.1-0.2-0.1-0.3-0.2c-0.1,0-0.2-0.1-0.5-0.4l-0.1-0.1
		c-0.7-0.5-0.9-0.8-1.4-1.8c-0.4-0.9-0.7-1.2-0.9-1.5c-0.1-0.1-0.2-0.3-0.2-0.4c-0.2-0.3-1-2.8-1.4-5.1c-0.4-2.1-0.7-5.6-0.8-5.9
		c0-3.2-0.3-11.6-0.2-12.5c0-0.4,0.1-3.1,0.3-5.8c0.7-9.8,0.8-10.9,0.7-11.3c0-0.5-0.1-5.8-0.1-6.8c0-0.7,0-3.8-0.1-4.5
		c-0.1-0.8-0.5-2.1-0.9-2.8c-0.1-0.1-0.1-0.2-0.2-0.3c-0.2-0.5-0.5-1.2-1.1-1.8c-0.7-0.8-1.3-1.1-1.8-1.4c-0.1,0-0.2-0.1-0.2-0.1
		c-0.2-0.1-1-0.5-1.8-0.5c-0.7,0-1.2,0.2-1.5,0.7c-0.7,0.7-1,2-1.1,2.6l-1.6-1c-0.2-0.1-0.4-0.2-1.3-0.3c-0.5-0.1-1.2-0.2-1.8-0.3
		c-0.5-0.1-1.2-0.2-1.9-0.2c-0.5,0-1.1,0-1.6,0.1c-1.1,0.1-2.7,0.8-3.3,1c0,0.1-0.2,0.2-0.4,0.2c-1.1,0.5-3.7,1.9-5,3
		c-1.8,1.5-3.7,3.4-4.6,5.1c-0.9,1.8-1.5,3.1-2.1,4.2c-0.2,0.5-0.7,2.2-1.4,4.7c-0.7,2.4-1.4,5-2.1,6.9c-1,3-1.2,6.3-1.3,8.2
		c-0.1,0.4-0.1,0.8-0.1,1c-0.1,1.4-0.1,8.2,0,9.6c0,1,0.2,3,0.4,4.2c0.2,1.2,1.6,5.1,2.1,6.1c0.3,0.7,1.2,1.6,2,2.7
		c0.1,0.1,0.3,0.3,0.3,0.4c0.5,0.7,3,2.2,3.6,2.5c0.1,0.1,0.2,0.1,0.3,0.2c1,0.5,2.2,1.2,3.4,1.2c0.3,0,0.7,0,1.1,0
		c0.5,0,1.1,0.1,1.6,0.1c0.8,0,1.4-0.1,1.8-0.3c0.2,0,0.4-0.1,0.8-0.2c0.7-0.2,1.4-0.5,2.1-1.1c0.1,0,0.2-0.1,0.3-0.2
		c0.7-0.5,1.2-1,1.9-1.8c0.5-0.8,1.9-2.8,2.3-4.3c0.1-0.3,0.3-0.9,0.4-1.5c0.3,1.5,0.7,2.7,0.9,3.5c0.7,1.5,3.3,5.6,3.8,6.2
		c0.7,0.8,2.6,2.2,3.2,2.5c0.4,0.3,2.6,1.3,3.5,1.5c0.1,0,0.3,0.1,0.7,0.1c1,0.2,1.9,0.4,2.3,0.4c0.1,0,0.1,0,0.1,0
		c0.8,0,2.3-0.2,2.8-0.4v-0.1c0.5-0.1,1-0.3,1.3-0.8c0.2-0.2,0.4-0.5,0.4-1.2c-0.1-0.5-0.1-0.8-0.4-1.2
		C496.4,408.8,496.3,408.7,496.1,408.5z M479.9,355.1l-2.2,19.4c-0.2,2.8-1,10.2-1,10.7c-0.1,0.3-0.1,0.9-0.1,1.4
		c0,0.4-0.1,0.9-0.1,1.3c0,0.5-0.1,0.8-0.2,1.3c-0.1,0.2-0.2,0.5-0.3,1c-0.2,1-1.4,3.5-2.1,4.9c-0.2,0.5-0.3,0.9-0.4,1.2
		c-0.3,0.8-1.9,3.3-2.2,3.7h-0.1c0,0,0,0-0.1,0c-0.1,0-0.1,0-0.2,0c0-0.1-0.1-0.1-0.1-0.2c-0.3-0.4-1-1.3-1.4-2.1
		c-0.3-0.5-0.8-2.4-1.1-3.6c-0.2-0.9-0.4-1.6-0.5-2c-0.1-0.4-0.2-2.5-0.3-6c0-0.5,0-0.9,0-1c0-0.7,0.8-6.7,1.4-9.8
		c0.4-2.1,1.6-7.2,2.4-10.3c0.4-1.6,0.5-2.4,0.7-2.5c0-0.4,0.4-2.3,1.3-4.2c0.9-1.8,3.7-4.8,4.2-5.1c0.3-0.2,0.4-0.3,0.7-0.4
		c0.1,0,0.1,0,0.2-0.1c0.2-0.1,0.9-0.2,1.2-0.2c0.1,0,0.5,0.1,0.9,0.1C480.1,353,480,354.1,479.9,355.1z"/>
	<path fill="#333333" d="M532.7,348.2c-0.9-1-3.5-2.1-5-2.4c-1.6-0.3-2.5-0.3-3.4-0.3c-1,0-3.1,0.3-3.9,0.7
		c-0.9,0.3-3.3,1.6-3.9,2.1c-0.8,0.5-2.6,2.8-3.1,3.7c-0.1,0.3-0.4,0.9-0.7,1.4c-0.3,0.5-0.5,1-0.7,1.2c0-0.3-0.1-0.9-0.3-1.8
		c0-0.2,0-0.3,0-0.4c-0.1-0.7-0.5-2-0.8-2.5c0,0-0.1-0.1-0.2-0.3c-0.3-0.8-0.7-1.4-1-1.9c-0.4-0.4-1.1-1.1-1.5-1.3
		c-0.2-0.2-0.5-0.4-0.9-0.5c-0.2-0.1-0.4-0.2-0.5-0.3c-0.7-0.3-1.9-0.5-2.3-0.5c-0.1,0-0.1,0-0.1,0c-0.5,0.1-1.4,0.3-2,1
		c0,0-0.1,0.1-0.2,0.2c-0.4,0.5-1.1,1.3-1.3,2.1c-0.2,0.8-0.7,2.8-0.8,3.7c-0.1,0.2-0.1,0.4-0.1,0.7c-0.1,0.5-0.2,1.1-0.2,1.6
		c0,0.7,0.1,20.5,0.2,21.3l-0.2,23c0,2,0,6.5,0.3,7.3c0.1,0.4,0.3,1.6,0.4,2.4c0.1,0.5,0.1,0.9,0.2,1.2c0.2,0.8,0.8,2.2,1.4,3
		s2.6,1.6,3.6,1.6c0.2,0,0.4-0.1,0.7-0.2c0,0,0.2,0,0.4-0.1c0.7-0.1,1.5-0.4,2.3-1c0.8-0.7,1.9-1.9,2.6-3c0-0.1,0.1-0.2,0.1-0.2
		c0.7-0.9,1-1.5,1.3-4c0.4-3.1,0.7-19,0.7-19.3c0-0.2,0-1.2-0.1-2.6c0-2.6-0.1-7.1-0.1-7.9c0-0.8,0.8-4.4,1.2-6.3
		c0.2-0.8,0.3-1.3,0.3-1.6c0.1-0.7,0.5-2.1,1.1-3.8c0.3-1.1,2.2-4.5,2.7-5.3c0.1-0.1,0.3-0.4,0.5-0.8c0.5-0.9,2.2-3.4,2.7-3.7
		c0.5-0.3,1-0.4,1.1-0.4h0.1c0.1,0.1,0.2,0.1,0.3,0.2c0.2,0,0.3,0.1,0.4,0.1c0.2,0.1,0.2,0.1,0.3,0.1c0.3,0.3,0.7,0.9,0.8,1
		c0.1,0.3,0.7,1.9,0.8,2.3c0,0.3,0,2.4-0.1,2.8c0,0.1,0,0.2,0,0.4c-0.2,1.3-0.2,2.1-0.2,2.4c0,0.2-0.2,1.1-0.2,1.5
		c-0.1,0.4-0.1,0.7-0.1,0.8c0,0,0,0.1-0.1,0.2c-0.2,1.3-0.3,2-0.1,2.5c0,0.1,0,0.1,0,0.2c0.1,0.4,0.3,1.1,1,1.5
		c0.4,0.2,0.9,0.3,1.3,0.3c0.3,0,0.5-0.1,0.8-0.2c0.4-0.2,1.1-0.5,1.5-1.4c0.1-0.1,0.2-0.3,0.4-0.7c0.3-0.5,0.8-1.3,1.2-2.1
		c0.7-1.1,1.3-2.5,1.5-3.4c0.1-0.3,0.2-0.7,0.4-1.1c0.2-0.8,0.5-1.6,0.7-2.3c0.2-1,0.2-1.6,0.3-3V356c0-0.1,0-0.3,0-0.5
		c0.1-1.3,0.2-3.3-0.2-4.5C533.8,349.7,533.5,349,532.7,348.2z"/>
	<path fill="#333333" d="M577.8,405.1c-0.1-0.3-0.2-0.7-0.2-0.9c-0.4-1.3-1-3.1-1.4-3.7c-0.3-0.5-3.7-7.5-5.8-11.8l-9.2-13.8
		l-0.1-0.1c-1.8-2.3-4.6-5.9-5.5-7.1v-0.1c0.3-0.3,2.4-2.7,3.7-4.2c0.5-0.7,5-5.4,5.5-5.9c0.3-0.4,0.5-0.5,0.5-0.7
		c1.1-1.2,3.4-3.8,3.7-4.5s1-2.5,1-3.6v-0.1c-0.1-0.8-0.1-1.6-0.5-2.3c0,0-1-1.2-1.8-1.5c0,0-0.1-0.1-0.2-0.1
		c-0.3-0.2-0.8-0.5-1.3-0.5h-0.1c-0.3,0.1-1.4,0.2-2.2,1c-0.1,0.1-0.3,0.3-0.5,0.5c-0.9,0.8-1.6,1.4-2,1.9c-0.2,0.2-1.6,2.1-3.8,5
		c-1.8,2.2-3.4,4.5-3.7,4.9c-0.7,0.7-2.2,2.6-3.1,3.7c0-0.4,0-1,0.1-1.4c0-1.2,0.1-4.9,0-5.7c-0.1-0.4-0.2-1-0.4-1.5
		c-0.2-0.9-0.4-1.8-0.5-2.3c-0.2-0.8-0.5-1.4-0.9-2c-0.2-0.3-0.3-0.5-0.4-1l-0.2-0.3c-0.3-0.9-0.5-1.6-1-2.3c-0.3-0.4-0.7-0.7-0.9-1
		c-0.1-0.2-0.3-0.3-0.4-0.5c-0.7-0.8-2.1-1.8-2.7-2.1c-0.4-0.1-1.4-0.3-2-0.3c-0.2,0-0.4,0-0.7,0.1h-0.1c-0.5,0.2-1.8,0.7-2,1.9
		c-0.1,0.9-0.3,3.5-0.3,5c-0.1,1.6-0.9,13.7-0.9,13.8l-0.8,10.1l-0.1,19v0.1c0,0.2,0.3,6.9,0.4,8c0.1,0.9,0.1,3.6,0.1,5
		c0,0.5,0,0.8,0,0.9c0,0.4,0.1,1.5,0.8,2.5c0.2,0.3,0.4,0.8,0.7,1.2c0.3,0.7,0.7,1.3,1,1.8c0.1,0.1,0.2,0.3,0.3,0.5
		c0.5,0.8,1.2,1.8,2,2.1c0.1,0,0.1,0,0.2,0.1c0.5,0.2,1.1,0.4,1.8,0.4c0.5,0,1-0.1,1.3-0.4h0.1c1-0.9,1.9-1.5,2.3-2
		c0.2-0.2,0.3-0.4,0.4-0.5c0.2-0.2,0.8-0.8,1.1-1.4l0.3-0.7c0.3-0.3,0.8-1,1-2.3c0.1-0.2,0.1-0.4,0.1-0.7c0.2-1.3,0.3-2.1,0.3-3.6
		c0-0.9,0-5.7-0.1-10.1c0-3.6,0-7,0-7.9c0-1-0.2-3.2-0.3-5c1.5,2.8,4,7.8,5.8,11.3l6,12.1v0.1c0.3,0.4,2.7,4.9,3.4,5.7
		c0.5,0.9,2.2,2.2,2.8,2.4c0.1,0.1,0.2,0.1,0.3,0.2h0.1c0,0.1,1.3,1,2.8,1.2c0.4,0,1,0.2,1.4,0.3c0.7,0.1,1.2,0.2,1.6,0.2
		c0.1,0,0.3,0,0.4,0c0.7-0.2,2.2-0.9,2.7-1.8c0.5-0.8,0.8-1.8,0.5-3C578.3,406.8,578,405.8,577.8,405.1z"/>
	<path fill="#333333" d="M609.5,351.3c-1.4-1.3-4.7-1.9-5.1-2c-0.1,0-2.8-0.3-4.9-0.3c-0.8,0-1.4,0.1-1.9,0.2
		c-2.5,0.5-4.2,1.1-4.8,1.4c-0.1,0-0.2,0.1-0.3,0.1c-1.1,0.8-4.3,2.5-5.7,4.3c-1.2,1.5-3,5.1-4.3,7.8c-0.4,0.9-0.9,1.5-1.1,2.1
		c-1.1,2.1-2.2,5.1-2.8,7.9c-0.7,3-1.4,9.4-1.3,11.3c0.1,1.9,0.7,8.5,0.9,9.6c0.1,1,1.8,7.5,2.3,8.5c0.4,0.9,2.2,3.6,3.1,4.4
		c0.1,0.1,0.3,0.3,0.5,0.5c1.2,1.1,3.7,3.6,5.8,4.6c0.1,0.1,0.3,0.2,0.4,0.2c1.9,1,2.8,1.4,5.1,1.4c0.1,0,0.3,0,0.5,0
		c3.7-0.1,12.7-1.2,14.7-9c0.1-0.3,0.1-0.5,0.2-0.9c0.2-0.8,0.4-1.5,0.4-2.2c0-0.2,0.1-0.3,0.1-0.5c0.1-0.3,0.2-0.9,0-1.4
		c-0.2-0.9-1-1.5-1.6-1.5c-0.8,0-1.8,0.8-2,1.1c-0.2,0.2-0.7,1.2-0.8,1.8v0.1c-0.8,3-1.4,4.8-3.9,5.5c-0.8,0.1-1.8,0.3-2.7,0.3
		c-0.9,0-1.6-0.1-2.2-0.5c-1.2-0.8-1.5-1-2.4-2c-0.8-1-2-2.4-2.7-4.2c-0.8-1.8-1.6-6.1-2-9.7c-0.2-2.6-0.2-4.9-0.2-6.8
		c0.1-0.8,0.2-3.1,0.2-3.6c0-0.2,0.1-0.4,0.2-0.7c0.1,0,0.1,0,0.2,0c0.4,0,1.4,0,1.4,0h0.1c0.1,0,3.9-0.4,5.6-1
		c1.5-0.5,4.4-2.1,5.1-2.6c2.4-2.2,8.2-7.9,8.5-12.9c0.1-0.8,0.1-1.4,0.2-2c0.1-0.8,0.1-1.5,0.1-2.2c0-1.3-0.1-2.3-0.3-3.2
		C611.8,354.1,610.8,352.7,609.5,351.3z M607.3,361.8c-0.4,3.3-2.8,5.9-5,8.1c-0.8,0.9-3.2,2.4-6,3.2c-1.6,0.4-2.6,0.5-3.1,0.5
		c-0.2,0-0.3,0-0.4,0c0-0.1,0-0.1,0-0.1c-0.1,0-0.1-0.1-0.1-0.2c0-0.2,0.2-1.2,0.5-2c0.1-0.3,0.2-0.8,0.3-1.3
		c0.2-0.8,0.4-1.6,0.7-2.2c0.2-0.5,0.8-1.8,1.2-2.8c0.3-0.9,0.7-1.6,0.8-2c0.2-0.5,0.5-0.9,0.9-1.3c0.1-0.1,0.2-0.2,0.3-0.4
		c0.5-0.5,2.7-2.7,3.3-3l0.2-0.1c0.7-0.3,2.1-1,2.8-1.1c0.2-0.1,0.4-0.1,0.7-0.1c0.8-0.1,1.5-0.2,1.9-0.2c0.1,0,0.1,0,0.1,0
		c0.2,0,0.5,0.1,0.8,0.4c0.1,0.1,0.4,0.7,0.5,1.2C607.7,359,607.6,360.8,607.3,361.8z"/>
	<path fill="#333333" d="M642.8,398.1c-0.3-0.1-0.7-0.2-1-0.2c-0.8,0-1.3,0.3-1.4,0.9l-0.1,0.1c-0.1,0.3-0.3,0.8-0.4,1.4
		c0,0.3-0.2,0.9-0.4,1.3c-0.1,0.3-0.2,0.7-0.3,0.9c0,0.3,0,0.3-0.4,0.7l-0.1,0.1c-0.5,0.5-1.5,1-1.8,1c-1.1-0.2-2.5-1.5-2.4-2.7
		c0.1-0.9-0.1-3.5-0.2-6.3c-0.2-2.3-0.3-4.6-0.3-5.6c0-2.2,0.2-12.5,0.3-13.3c0-0.8,0.3-5.8,0.4-7.8c0.8-0.1,2-0.2,2.5-0.3
		c1.1-0.2,2.2-0.7,2.8-1c0.7-0.4,1.2-1.1,1.5-1.5c0.3-0.3,0.7-1,0.9-1.5c0.1-0.1,0.1-0.1,0.1-0.2c0.2-0.3,0.2-0.8,0-1.2
		c-0.4-0.4-1.1-0.8-1.6-0.8c-0.1,0-0.1,0-0.2,0c0,0-0.1,0-0.3,0c-0.3,0.1-1,0.2-1.4,0.1c-0.4,0-2.8,0-4.3,0c0-0.1,0-0.2,0-0.3
		c0-1.2,0.1-2.8,0.1-4.7c0-1.6,0-3.4,0-5.4c-0.1-1.8-0.1-2.7-0.3-3.3c-0.5-1.6-1.3-3-2.2-3.9c-1-1-2.1-1.4-3-1.8
		c-0.8-0.2-1.8-0.1-2.6,0.3c-0.4,0.3-0.9,0.7-1.4,1.1c-0.1,0.2-0.3,0.3-0.5,0.5c-0.9,0.5-1.5,1.1-1.9,2.8c-0.3,1.3-0.7,3.6-0.9,5.5
		c0,0.5-0.1,1-0.1,1.4c-0.1,1-0.2,2.1-0.3,3.1c0,0.2,0,0.4,0,0.8c-0.1,0.9-0.1,1.8-0.2,2.6c0,0.4,0,0.8,0,1c-0.1,0-0.2,0-0.2,0
		c-0.2,0-0.3-0.1-0.4-0.1c-0.2,0-0.4-0.1-0.7-0.1c-0.2,0-0.4-0.1-0.5-0.1c-0.1,0-0.2,0-0.3,0c-0.4-0.1-0.9-0.2-1.2-0.2
		c-0.1,0-0.2,0.1-0.3,0.1c-0.8,0.1-1.4,0.7-2.1,1.4c-0.8,0.9-0.9,1.9-0.9,2.2c0,0.5,0.3,1.8,0.9,2.2c0,0.1,0,0.1,0.1,0.1
		c0.2,0.2,0.5,0.5,1.2,0.7c0.8,0.2,1.5,0.3,2.3,0.4c0.5,0.1,1.2,0.2,1.8,0.3c-0.2,3.3-1,15.1-1,16c-0.1,1.1,0.1,6.5,0.1,6.7v0.1
		c0.2,2.7,0.5,7.3,0.5,7.8c0,0.7,0.9,5.3,1.3,5.9c0,0.1,0.1,0.3,0.2,0.5c0.4,1,1.2,2.5,2.1,3.3c0.9,1,2.3,2.2,3.3,2.7
		c1.1,0.7,3.3,1.1,4.6,1.1c1.4,0,4.3-0.8,5.4-1.4c0.7-0.4,3.5-2.5,4.2-3.5c0.2-0.3,0.4-0.7,0.4-0.8c0.2-0.3,1-1.6,1.3-2.2
		c0.3-0.7,0.5-2.8,0.5-4C643.9,400.1,643.8,398.6,642.8,398.1z"/>
	<path fill="#333333" d="M353.9,335.3c1.8,0,3.2-0.4,4.2-1.3c1-0.9,1.7-2,2.1-3.4c0.4-1.4,0.6-2.8,0.6-4.4v-10.9
		c0-1.5,0.9-2.3,2.6-2.3l11.3,0.2c1.3,0,2.3-0.3,3-0.9c0.7-0.6,1.1-1.4,1.1-2.2c0-1.5-0.5-2.6-1.6-3.3c-0.9-0.5-2.3-0.8-4.1-0.8
		c-1.5,0-3.1,0-4.6,0.1c-1.5,0.1-3.1,0.1-4.6,0.1c-1,0-1.8-0.2-2.3-0.7c-0.5-0.5-0.8-1.5-0.8-3.2v-38.6c0-2.9,1.3-4.4,3.9-4.4
		c1.4,0,2.9,0,4.7,0.1c1.8,0.1,3.3,0.1,4.7,0.1c1.9,0,3.4-0.4,4.3-1.2c0.9-0.8,1.4-1.6,1.4-2.5c0-2.4-1.5-3.7-4.5-4.1
		c-1.2-0.1-2.4-0.2-3.4-0.2h-15.8c-4.3,0-6.9,1.8-7.9,5.3c-0.5,1.7-0.7,3.7-0.7,6v62.9c0,1.6,0.1,3.1,0.4,4.6
		C348.4,333.6,350.4,335.3,353.9,335.3z"/>
	<path fill="#333333" d="M396.5,321.1c0.3-2.3,0.5-4.1,0.7-5.2c0.3-1.9,1.3-2.8,3-2.8h15.2c1.9,0,3,0.9,3.2,2.6
		c0.7,4.9,1.2,9.8,1.7,14.5c0.4,3.4,1.8,5.1,4.4,5.1c2.1,0,3.5-0.9,4.2-2.8c0.4-1.1,0.7-2.7,0.7-4.7c0-1.7-0.2-3.8-0.5-6.4
		c-2.6-19.9-5.9-37.1-9.7-51.6c-1.5-5.4-3-9.6-4.5-12.5c-2.5-4.5-5.7-6.8-9.6-6.8c-4.8,0-8.6,4.1-11.3,12.4
		c-3.2,9.6-5.9,21.7-8.2,36.3c-1.4,8.6-2.4,15.4-3,20.5c-0.7,5.1-1,8.1-1,9.1c0,4.3,2,6.4,6.1,6.4c4.8,0,7.5-2.7,8.1-8
		C395.9,325.5,396.2,323.4,396.5,321.1z M401.1,292.4c3.3-19,5.6-28.5,6.9-28.5c1.8,0,4.2,9.6,7.2,28.7c1.1,7.1,1.6,10.9,1.6,11.3
		c0,1.5-0.8,2.2-2.3,2.2h-13.1c-1.5,0-2.3-0.7-2.3-2.1C399.2,303.7,399.8,299.8,401.1,292.4z"/>
	<path fill="#333333" d="M470.3,335.3c1.4,0,2.5-0.4,3.3-1.1c0.8-0.7,1.2-1.8,1.2-3.1c0-1.8-3.1-6.6-9.2-14.5
		c-0.8-1.1-1.7-2.2-2.7-3.4c-2.6-3-3.9-4.7-3.9-5.1c0-0.3,0.1-0.5,0.4-0.7c5.3-3.4,9.3-8.2,11.9-14.5c2.2-5.3,3.3-11.1,3.3-17.4
		c0-8.7-3.1-15.2-9.3-19.5c-5.3-3.6-11.6-5.4-18.9-5.4c-6.3,0-9.5,3.2-9.5,9.5v65.7c0,1.6,0.1,3.1,0.3,4.6c0.2,1.5,0.8,2.6,1.7,3.6
		c0.9,0.9,2.3,1.4,4.4,1.4c4.6,0,6.9-3,6.9-9.1v-13.5c0-1.3,0.2-2,0.5-2c0.2,0,0.7,0.5,1.4,1.4c4.1,6.9,7.6,12.6,10.4,16.9
		C465.3,333.2,467.8,335.3,470.3,335.3z M451.9,303.6c-1.1,0-1.6-0.6-1.6-1.9v-40.6c0-1.2,0.6-1.8,1.9-1.8c5.9,0,9.9,2.8,12,8.3
		c0.9,2.6,1.4,5.4,1.4,8.5c0,4.5-0.7,8.9-2.2,13.2c-1.2,3.8-3.1,7.2-5.6,10C455.3,302.2,453.3,303.6,451.9,303.6z"/>
	<path fill="#333333" d="M539.5,335.3c3.1,0,4.6-2.3,4.6-7v-66.5c0-2.8-0.4-5.2-1.3-7.2c-1.2-2.7-3.4-4-6.4-4
		c-1.3,0-2.7,0.5-4.1,1.5c-1.4,1-2.5,2.8-3.3,5.4c-4.3,14-9.2,27.8-14.5,41.7c-1.4-4.3-2.9-8.8-4.4-13.5c-2.3-7.2-5.2-16-8.7-26.5
		c-1.9-5.7-5.1-8.5-9.7-8.5c-5,0-7.5,3.7-7.5,11.2v64.5c0,1.5,0.1,2.9,0.3,4.3c0.5,3.2,2.6,4.7,6,4.7c2.3,0,4-0.7,5.2-2.2
		c1.2-1.5,1.8-3.6,1.8-6.4c0-16.7-0.3-32.1-0.9-46.2c-0.1-2.8-0.2-4.6-0.3-5.5c-0.1-0.9-0.1-2-0.1-3.3c0-1.1,0.1-1.6,0.2-1.6
		c0.3,0,0.7,1,1.3,2.9c5.6,18.7,10.3,32.9,14.2,42.4c0.9,2.2,2.2,3.3,4,3.3c1.6,0,2.9-1,3.8-3c5.8-13.5,10.6-26.9,14.6-40.3
		c0.5-1.7,0.9-2.6,1.3-2.6c0.4,0,0.5,0.5,0.5,1.6c0,2.5-0.1,6.1-0.3,11c-0.4,9.6-0.5,23.9-0.5,42.9c0,2.2,0.3,3.9,0.8,5.1
		C536.9,334.7,538,335.3,539.5,335.3z"/>
	<path fill="#333333" d="M575.9,259.3c1.4,0,2.8,0,4.2,0.1s2.8,0.1,4.2,0.1c1.9,0,3.4-0.4,4.3-1.2c0.9-0.8,1.4-1.6,1.4-2.5
		c0-2.4-1.5-3.7-4.5-4.1c-1.2-0.1-2.4-0.2-3.4-0.2h-14.7c-4.3,0-6.9,1.8-7.9,5.3c-0.5,1.7-0.7,3.7-0.7,6v45.6
		c0,3.5,0.1,6.9,0.4,10.1c0.7,7.1,3.4,11.9,8.4,14.6c2.8,1.4,6.6,2.2,11.5,2.2c5.7,0,9.6-0.5,12-1.5c2.3-1,3.5-2.4,3.5-4.2
		c0-0.9-0.4-1.6-1.1-2c-0.7-0.4-1.5-0.7-2.5-0.7c-1.4,0-2.8,0.1-4.2,0.2s-2.8,0.2-4.2,0.2c-4.5,0-7.5-1.1-9-3.3
		c-1-1.5-1.5-3.5-1.5-6.2v-2.5c0-1.5,0.9-2.3,2.6-2.3l11.3,0.2c1.3,0,2.3-0.3,3-0.9c0.7-0.6,1.1-1.4,1.1-2.2c0-1.5-0.5-2.6-1.6-3.3
		c-0.9-0.5-2.3-0.8-4.1-0.8c-1.5,0-3.1,0-4.6,0.1c-1.5,0.1-3.1,0.1-4.6,0.1c-1,0-1.8-0.2-2.3-0.7c-0.5-0.5-0.8-1.5-0.8-3.2v-38.6
		C572,260.8,573.3,259.3,575.9,259.3z"/>
	<path fill="#333333" d="M625.1,329c2.6,4.2,5.2,6.3,7.7,6.3c1.4,0,2.5-0.4,3.3-1.1c0.8-0.7,1.2-1.8,1.2-3.1c0-1.8-3.1-6.6-9.2-14.5
		c-0.8-1.1-1.7-2.2-2.7-3.4c-2.6-3-3.9-4.7-3.9-5.1c0-0.3,0.1-0.5,0.4-0.7c5.3-3.4,9.3-8.2,11.9-14.5c2.2-5.3,3.3-11.1,3.3-17.4
		c0-8.7-3.1-15.2-9.3-19.5c-5.3-3.6-11.6-5.4-18.9-5.4c-6.3,0-9.5,3.2-9.5,9.5v65.7c0,1.6,0.1,3.1,0.3,4.6c0.2,1.5,0.8,2.6,1.7,3.6
		c0.9,0.9,2.3,1.4,4.4,1.4c4.6,0,6.9-3,6.9-9.1v-13.5c0-1.3,0.2-2,0.5-2c0.2,0,0.7,0.5,1.4,1.4C618.8,319.1,622.3,324.7,625.1,329z
		 M612.8,301.7v-40.6c0-1.2,0.6-1.8,1.9-1.8c5.9,0,9.9,2.8,12,8.3c0.9,2.6,1.4,5.4,1.4,8.5c0,4.5-0.7,8.9-2.2,13.2
		c-1.2,3.8-3.1,7.2-5.6,10c-2.5,2.8-4.5,4.2-5.9,4.2C613.3,303.6,612.8,303,612.8,301.7z"/>
	<path fill="#333333" d="M662.3,326.9c-3.9,0-6.3-2-7.4-6.1c-0.5-1.7-0.7-3.4-0.7-5c0-2.7-1.1-4.1-3.3-4.1c-1.2,0-2.1,0.5-2.9,1.5
		c-0.7,1-1.1,2.3-1.1,3.8c0,5.3,1.2,9.5,3.5,12.6c2.9,3.8,7.1,5.7,12.6,5.7c6.2,0,11-1.9,14.3-5.7c2.5-2.9,3.8-6.6,3.8-11.1
		c0-4.9-1.9-9.7-5.5-14.4c-1.7-2.1-3.6-4.2-5.6-6.2c-4.9-4.8-8.4-8.9-10.4-12.3c-2.2-3.7-3.3-7.7-3.3-11.9c0-4.4,0.8-7.9,2.3-10.6
		c1.8-3.2,4.4-4.8,7.9-4.8c4.7,0,7.8,2.9,9.4,8.6c0.7,2.6,1,5.4,1,8.4c0,4.1-0.4,8-1.3,12c-0.1,0.5-0.2,1.1-0.2,1.6c0,2,1,3,3,3
		c2.2,0,3.8-2,4.7-6.1c0.7-2.9,1-6.5,1-10.6c0-16.4-6.4-24.6-19.3-24.6c-6.2,0-11.1,1.7-14.8,5.2c-1.9,1.8-3.4,3.9-4.5,6.5
		c-1.5,3.6-2.2,7.7-2.2,12.2c0,6.6,1.8,12.6,5.3,18c2.4,3.7,5.9,7.9,10.7,12.6c1.7,1.7,3.3,3.3,4.7,4.9c3.2,3.5,4.7,6.8,4.7,9.8
		C668.8,324.5,666.6,326.9,662.3,326.9z"/>
	<path fill="#333333" d="M680.7,362.7c-4,1.4-8.3,1.7-12.4,0.5c-6,18.5-12.3,36.9-18.8,55.2c18.1-10.4,35.7-21.5,52.6-33.7
		c-0.4-1.1-0.6-2.3-0.8-3.5C689.9,386.7,680.5,373.5,680.7,362.7z"/>
	<path fill="#333333" d="M721.4,368.6c11.4-10.5,24.2-26,16.4-42.3c-6.3-13.1-22.1-17.8-35.2-12.9c-6.3,2.4-11.8,6.6-16.3,11.5
		c-2.9,3.2-4.9,7.1-7.6,10.3c-1.1,1.3-2,1.6-3.6,2.1c-7.2,1.8-19,7-14.5,16.7c1.3,2.8,3.5,4.7,6,5.8c0.4,0.2,0.8,0.4,1.3,0.5
		c0.4,0.1,0.9,0.3,1.3,0.4c4.1,1,8.8,0.5,12.4-1.2c1.1-0.5,2.2,0.4,2,1.5c-1.6,9.5,7.3,23.9,18.1,17c0.9-0.6,1.9,0.2,2,1.2
		c0.1,1.3,0.4,2.6,0.7,3.9c0.1,0.5,0.3,0.9,0.4,1.4c0.1,0.4,0.3,0.9,0.5,1.3c1.5,3.8,4.2,7.1,8.1,8.6c7.1,2.8,12.6-1.8,13.7-8.7
		c0.3-5.9-2.6-10.7-5.8-15.5C720.8,369.8,721,369,721.4,368.6z M671.5,354.5c-0.5-1.8-1.3-3.5-2.2-5.1c-0.8-1.3,1.3-2.5,2.1-1.2
		c1.1,1.8,1.9,3.7,2.4,5.7C674.2,355.4,671.9,356,671.5,354.5z M674.9,343.6c0.8-0.5,1.5-1.1,2-1.9c0.8-1.3,2.9-0.1,2,1.2
		c-0.8,1.1-1.7,2-2.8,2.8C674.8,346.5,673.6,344.4,674.9,343.6z M682.6,350.2c-1.2,0.5-2.5,0.9-3.7,1.1c-1.5,0.3-2.1-2-0.6-2.3
		c1.3-0.2,2.5-0.6,3.7-1.1c0.6-0.2,1.3,0.3,1.4,0.8C683.6,349.5,683.2,350,682.6,350.2z M729.3,340.5c-0.5,1.8-1.2,3.6-1.9,5.4
		c-0.6,1.4-2.9,0.8-2.3-0.6c0.7-1.8,1.3-3.5,1.9-5.4C727.5,338.4,729.7,339.1,729.3,340.5z M723,327.1c0.4-0.4,1.3-0.5,1.7,0
		c0.6,0.7,1.2,1.4,1.9,2.1c0.4,0.5,0.5,1.2,0,1.7c-0.4,0.4-1.3,0.5-1.7,0c-0.6-0.7-1.2-1.4-1.9-2.1
		C722.5,328.3,722.5,327.6,723,327.1z M702.3,321.9c0.7-0.4,1.2-0.7,1.8-1.3c0.5-0.5,1.2-0.4,1.7,0c0.4,0.5,0.4,1.2,0,1.7
		c-0.7,0.7-1.4,1.2-2.3,1.7c-0.6,0.3-1.3,0.1-1.6-0.4C701.6,323,701.8,322.2,702.3,321.9z M694.9,342.9c0.1,0.6-0.2,1.3-0.8,1.4
		c-0.6,0.2-1.4-0.2-1.4-0.8c-0.2-1.3-0.6-2.4-1.2-3.5c-0.8-1.3,1.3-2.5,2.1-1.2C694.2,340.1,694.7,341.5,694.9,342.9z M689.4,332
		c0.5-0.9,1.1-1.7,1.8-2.5c0.4-0.5,1.3-0.4,1.7,0c0.5,0.5,0.4,1.2,0,1.7c-0.6,0.6-1,1.3-1.4,2C690.6,334.5,688.6,333.3,689.4,332z
		 M689.5,354.8c-0.3-1.6-0.9-3-1.7-4.4c-0.8-1.3,1.2-2.5,2.1-1.2c1,1.5,1.6,3.2,1.9,4.9C692,355.7,689.8,356.3,689.5,354.8z
		 M695.5,366.8c-0.4,0.4-1.3,0.5-1.7,0c-0.7-0.9-1.5-1.7-2.3-2.5c-0.5-0.4-0.4-1.3,0-1.7c0.5-0.5,1.2-0.4,1.7,0
		c0.8,0.8,1.6,1.6,2.3,2.5C695.9,365.6,696,366.3,695.5,366.8z M700.7,353.1c-0.5,1.8-1,3.6-1.5,5.3c-0.4,1.5-2.7,0.8-2.3-0.6
		c0.5-1.8,1-3.6,1.5-5.3C698.8,351,701.1,351.6,700.7,353.1z M700.6,346c-0.1-1.5-0.3-2.9-0.7-4.4c-0.4-1.5,1.9-2.1,2.3-0.6
		c0.4,1.6,0.6,3.3,0.8,5C703,347.5,700.7,347.5,700.6,346z M701.2,334.5c-1.5,0.4-2.1-1.9-0.6-2.3c1.4-0.4,2.6-0.9,3.9-1.6
		c1.4-0.7,2.5,1.4,1.2,2.1C704.2,333.4,702.7,334,701.2,334.5z M710.8,369.8c-2.1-0.4-4.1-0.9-6.2-1.3c-1.5-0.3-0.9-2.6,0.6-2.3
		c2.1,0.4,4.1,0.9,6.2,1.3C713,367.9,712.3,370.1,710.8,369.8z M709.7,352.3c0.7,1.5,1.3,3,1.8,4.6c0.5,1.5-1.8,2.1-2.3,0.6
		c-0.4-1.4-1-2.7-1.6-4C707,352.1,709,350.9,709.7,352.3z M714.8,380.1c-0.1,1.5-2.4,1.5-2.4,0c0.1-1.9,0.2-3.8,0.2-5.7
		c0.1-1.5,2.4-1.5,2.4,0C714.9,376.4,714.8,378.2,714.8,380.1z M715.9,344.2c-2.6-0.3-5.1-0.6-7.7-1c-1.5-0.2-0.9-2.5,0.6-2.3
		c2.3,0.4,4.7,0.7,7.1,0.9C717.5,342,717.5,344.3,715.9,344.2z M713.3,326.9c-0.1-1.5,2.3-1.5,2.4,0c0.1,2.2,0.5,4.4,1.1,6.5
		c0.4,1.5-1.9,2.1-2.3,0.6C713.8,331.7,713.4,329.3,713.3,326.9z M712.6,322.7c-1.5-0.2-1.5-2.6,0-2.4c2.2,0.3,4.4,0.5,6.6,0.8
		c1.5,0.2,1.5,2.6,0,2.4C717,323.2,714.8,322.9,712.6,322.7z M717.6,355.8c0.8-1.1,1.6-2.3,2.5-3.4c0.9-1.2,2.9,0,2,1.2
		c-0.8,1.1-1.6,2.3-2.5,3.4C718.8,358.3,716.8,357.1,717.6,355.8z"/>
	<path fill="#333333" d="M355.1,350.9c-10.2,3.7-19,10.2-26.9,17.6c13.2,15.8,26.2,31.8,39.1,47.8c8.8-22.3,16.4-45,22.6-68.1
		C378.2,346.3,366.3,346.8,355.1,350.9z M343.3,373.1c-2.4,0-5.6-1.9-3.7-4.5c0.9-1.3,2.4-1.2,3.4,0.1
		C343.8,370,343.5,371.6,343.3,373.1z M357.6,385.8c-2.3-0.3-5.1-2.1-3.5-4.6c1-1.4,2.6-1.4,3.5,0.1
		C358.5,382.7,358,384.3,357.6,385.8z M358.6,363.5c-1.2-0.5-2.2-1.4-2.6-2.6c-0.5-1.4,0.2-2.9,1.7-3.3c1.6-0.5,2.6,0.9,2.6,2.4
		C360.2,361.2,359.4,362.4,358.6,363.5z M365.7,399.9c-1.2-0.5-2.2-1.4-2.6-2.6c-0.5-1.4,0.2-2.9,1.7-3.3c1.6-0.5,2.6,0.9,2.6,2.4
		C367.3,397.6,366.5,398.8,365.7,399.9z M371.5,375.4c-0.2,1.3-1.1,2.4-2,3.3c-1-0.6-1.8-1.5-2.2-2.6c-0.5-1.5,0.2-2.9,1.7-3.3
		C370.7,372.3,371.7,373.8,371.5,375.4z M379.7,357.3c-0.3,1.5-1.6,2.4-2.8,3.3c-1.7-1.8-2.6-5.5,0.7-5.9
		C379.2,354.5,380,355.8,379.7,357.3z"/>
	<path fill="#333333" d="M324.9,364.5c0.6,0.7,1.2,1.4,1.8,2.1c8.1-7.6,17.2-14.2,27.8-18.1c11.6-4.2,23.9-4.6,36-2.7
		c0.3-1.3,0.7-2.6,1-3.9C367.2,335.4,340.3,344.6,324.9,364.5z"/>
	<path fill="#333333" d="M556.1,235.8c5.3-38-28.7-81.1-69.4-74.8c-36.7,5.6-59.8,41.7-59.4,77C469,224.1,513.5,225,556.1,235.8z"/>
	<path fill="#333333" d="M615.3,239c-12.2-5.6-25.3-9.3-38.4-11.4c-1.8-0.3-2.5,2.9-0.6,3.3c12.2,2.3,23.5,6.3,34.3,11.4
		C612.1,241.2,613.7,240,615.3,239z"/>
	<path fill="#333333" d="M391,230.1c-0.8,1.5-1.6,3.1-2.5,4.7c0.7,0.7,1.8,0.9,2.9,0.1c6.9-5,14.5-9.6,22.5-12.5
		c0.4-0.1,0.3-0.7-0.1-0.6C405.7,223.7,398.2,226.1,391,230.1z"/>
	<path fill="#333333" d="M566.5,191.7c-3.4,0.9-2.2,6.2,1.2,5.3c25.4-6.9,49.8-5.6,75.1,0.1c3.3,0.7,4.9-3.9,1.7-5
		C619.8,183.6,591.4,184.7,566.5,191.7z"/>
	<path fill="#333333" d="M556.1,167.8c19-10.7,39.4-18.1,60.8-22.3c2.3-0.5,1.5-4.1-0.8-3.6c-21.7,4.1-42.3,12.1-61.4,23.3
		C553,166,554.4,168.7,556.1,167.8z"/>
	<path fill="#333333" d="M528,147.6c15.8-17.1,33.7-30.9,52.6-44.4c2.6-1.9-0.5-6.3-3.2-4.6c-19.8,11.9-37.4,28.3-52.7,45.4
		C522.6,146.3,525.9,150,528,147.6z"/>
	<path fill="#333333" d="M495.2,142.4c7.2-24.3,19.7-47.2,33.4-68.4c1.7-2.7-2.4-5.4-4.1-2.7c-14.2,22-23,45.8-30,70.8
		C494.4,142.6,495.1,142.8,495.2,142.4z"/>
	<path fill="#333333" d="M473.5,145.2c-5.6-24.5-7.1-49.1-6.9-74.1c0-3.6-5.2-3.9-5.6-0.3c-2.5,25.3,0.6,51.1,6.8,75.6
		C468.7,150.1,474.4,148.9,473.5,145.2z"/>
	<path fill="#333333" d="M398.6,121.2c15.6,12.8,31.5,25.2,47.1,38c2.8,2.3,5.8-2.4,3.1-4.7c-15.5-12.9-31-25.8-47.3-37.7
		C398.7,114.7,396,119.1,398.6,121.2z"/>
	<path fill="#333333" d="M422,179c3,0.8,4.4-3.7,1.5-4.5c-13.6-3.8-27.6-7.6-41.7-7.7c2.3,1.6,4.4,3.4,6.3,5.4
		C399.6,173,410.9,175.9,422,179z"/>
	<path fill="#333333" d="M411.1,196.7c-3.9,0.9-7.8,2-11.7,3.1c0,1.9-0.1,3.8-0.3,5.8c4.4-1.4,8.8-2.6,13.2-3.6
		C415.6,201.2,414.5,195.9,411.1,196.7z"/>
</g>
</svg>
