<?xml version="1.0" encoding="utf-8"?>
<!-- Generator: Adobe Illustrator 18.0.0, SVG Export Plug-In . SVG Version: 6.00 Build 0)  -->
<!DOCTYPE svg PUBLIC "-//W3C//DTD SVG 1.1//EN" "http://www.w3.org/Graphics/SVG/1.1/DTD/svg11.dtd">
<svg version="1.1" id="Layer_1" xmlns="http://www.w3.org/2000/svg" xmlns:xlink="http://www.w3.org/1999/xlink" x="0px" y="0px"
	 viewBox="0 0 432 432" enable-background="new 0 0 432 432" xml:space="preserve">
<path fill="#333333" d="M348.3,316.6c-1,0.5-2.1,1.2-3.2,1.9c-5.5,3.5-10.1,6.1-14,7.7c-3.8,1.6-6.6,2.6-8.3,3.1
	c-1-1.6-1.9-2.9-2.7-3.9c-0.8-1-1.6-2-2.3-2.8c-0.7-0.9-1.6-1.7-2.5-2.6c-0.9-0.9-1.9-1.9-3-3.1c0.2-0.6,0.6-1.3,1.1-2
	c0.7-1.3,1.4-2.6,2-3.7c0.6-1.1,1.1-2.2,1.5-3.2c0.4-1,0.6-2.1,0.8-3.3c0.2-1.2,0.2-2.5,0.1-4.1c0-2.2-0.4-4.3-1.1-6.4
	c-0.6-1.8-1.7-3.2-3.2-4c-1.5-0.9-3.2-1.2-5-0.9c-2.1,0.2-3.8,0.8-5.2,1.6c-1.4,0.8-2.8,1.9-4.1,3.4c-1.3,1.6-2.5,3.6-3.6,5.9
	c-1,2.4-1.6,5.1-1.7,8.3c-0.2,4.6,0.9,8.9,3.3,12.8c0.4,0.6,1.1,1.5,2.1,2.7c0.1,0.1,0.1,0.2,0.2,0.2c-1.5,6-3.8,11.4-6.8,16.1
	c-3.8,6.2-8.3,11.1-13.4,14.9c0-0.2-0.1-1.5-0.3-3.8c-0.2-2.3-0.5-5.2-0.8-8.6c-0.4-3.4-0.8-7.1-1.4-11c-0.5-3.9-1.2-7.6-1.9-11
	c-0.7-3.8-1.6-7.5-2.7-11.2c-1.1-3.7-2.5-7.3-4.2-10.9c-1.2-2.4-2.5-4-3.9-4.6c-1.4-0.6-3.4-0.5-5.9,0.2c-1.3,0.5-2.4,0.5-3.3,0
	c-1.5-0.6-3-0.9-4.5-0.9s-3,0.1-4.5,0.4c-3.5,0.6-6.7,1.8-9.5,3.6c-2.8,1.8-5.4,3.9-7.9,6.5c-3,3.4-5.5,7.1-7.4,11.1
	c-1.9,4-3.4,8.1-4.5,12.3c-1,3.5-1.5,6.7-1.6,9.4c-0.1,1.4,0,2.9,0.1,4.5c-3.7,5.8-8,10.5-12.9,14.1c0-0.2-0.1-1.5-0.3-3.8
	c-0.2-2.3-0.5-5.2-0.8-8.6c-0.4-3.4-0.8-7.1-1.4-11c-0.5-3.9-1.2-7.6-1.9-11c-0.7-3.8-1.6-7.5-2.7-11.2c-1.1-3.7-2.5-7.3-4.2-10.9
	c-1.2-2.4-2.5-4-3.9-4.6c-1.4-0.6-3.4-0.5-5.9,0.2c-1.3,0.5-2.4,0.5-3.3,0c-1.5-0.6-3-0.9-4.5-0.9c-1.5,0-3,0.1-4.5,0.4
	c-3.5,0.6-6.7,1.8-9.5,3.6c-2.8,1.8-5.4,3.9-7.9,6.5c-3,3.4-5.5,7.1-7.4,11.1c-1.9,4-3.4,8.1-4.5,12.3c-0.6,2.2-1,4.2-1.3,6
	c-1.5,2.8-3,5.3-4.5,7.5c-3.6,5.4-6.6,9-8.9,10.8c-1.2,0.9-2.5,1.5-3.7,1.8c-1.3,0.4-2.5,0.1-3.6-0.7c-2.1-1.6-3.6-3.6-4.6-6
	c-1.2-2.8-2-5.6-2.2-8.3c-0.2-2.7-0.2-5.6,0.2-8.5c0.1-0.7,0.2-1.5,0.3-2.2c0.1-0.7,0.2-1.5,0.5-2.2h3.7c3.3-0.2,6-1.2,8-2.8
	c2.1-1.6,3.7-3.9,4.8-6.7c1.7-4.6,2.1-9.1,1.3-13.3c-0.4-1.7-1-3-1.9-3.7c-0.9-0.8-2.3-1.2-4.1-1.4c-5-0.4-9.5,1.2-13.5,4.6
	c-1.3,1.1-2.5,2.3-3.6,3.7c-1,1.3-2,2.7-3,4c-3.2,5.1-5.4,10.3-6.6,15.5c-1.2,5.2-1.2,10.8,0.2,16.6c0.5,2.1,1.2,4,2.1,5.8
	c0.9,1.8,2.2,3.5,3.7,5.1c1.9,1.8,4.2,3.3,6.9,4.4c2.6,1.1,5.3,1.6,8.1,1.6c2.8,0,5.5-0.6,8.2-1.8c2.7-1.2,5.1-3.2,7.1-5.8
	c1.3-1.7,2.8-3.8,4.3-6.4c0.3-0.4,0.5-0.9,0.8-1.4c0.1,0.9,0.2,1.7,0.4,2.6c0.6,3.4,1.8,6.2,3.7,8.3c1.8,2.1,4.3,3.5,7.3,4.1
	c6.3,1.1,11.5-0.6,15.5-5.1c1.9-2.1,3.7-4.6,5.3-7.7c2.3-4.3,4.2-8.3,5.6-12.1c1.4-3.8,2.8-8,4.1-12.6c0.4-1.2,0.7-2.6,1.1-4
	c0.4-1.5,0.7-2.8,1.1-4c0,0.1,0.2,1.2,0.5,3.3c0.3,2.1,0.6,4.5,0.9,7.3c0.3,2.8,0.6,5.7,0.9,8.7c0.3,3,0.5,5.4,0.6,7.2
	c0.2,4.4,0.4,8.8,0.5,13.2c0.1,4.4,0.2,8.8,0.5,13.2c0,1.7-0.7,3-2.2,4c-1.3,1.1-2.7,2.2-4,3.3c-1.3,1.1-2.7,2.2-4,3.3
	c-2.3,1.9-4.5,4-6.5,6.1c-2,2.1-3.9,4.4-5.8,6.9c-1.1,1.6-2,3.2-2.7,4.9c-0.2,0-0.4,0-0.6,0c-2.3-0.1-4.5-0.1-6.6-0.1
	c-3.7,0-7.1,0-10.3,0.1c-0.3-0.6-0.6-1.1-1-1.7c-0.5-0.7-0.9-1.3-1.3-1.9c-0.2-0.3-0.4-0.6-0.5-0.9c-0.1-0.4-0.3-0.7-0.4-1.1
	c-0.3-0.7-0.5-1.5-1-2.2l-0.4-0.6l0-0.1l0,0l-0.1-0.1l-0.1-0.1c-0.1-0.1-0.1-0.1-0.2-0.2c-0.5-0.4-0.9-0.5-1.4-0.7
	c-0.9-0.3-1.7-0.3-2.5-0.4c-0.8-0.1-1.6-0.1-2.4-0.2c-0.8-0.1-1.5-0.2-2.3-0.3c-0.8-0.1-1.5-0.1-2.3-0.1c-0.8,0-1.6,0.1-2.3,0.2
	c-0.8,0.1-1.6,0.1-2.3,0.1c-0.8,0-1.6,0-2.3-0.1c-0.3,0-0.6,0-1,0c-0.3-0.2-0.6-0.4-0.6-0.4c-0.2-0.1-0.4-0.1-0.7,0
	c-0.2,0.1-0.3,0.2-0.4,0.3c-0.7,0-1.3-0.1-2-0.1c-1.5-0.1-3.1-0.1-4.7-0.1h0c-0.4,0-0.7,0.2-0.9,0.5c-0.4,0.5-0.3,1.2,0.2,1.6
	c0.9,0.7,1.9,1.4,2.8,2.1l2.8,2.2c0.4,0.4,0.9,0.7,1.4,1.1c0.5,0.3,0.9,0.7,1.4,1.1c0.8,0.8,1.6,1.7,2.4,2.6l0,0c0,0,0,0,0,0
	c0.2,0.2,0.6,0.2,0.8,0c0.2-0.2,0.2-0.6,0-0.8c-0.9-0.9-1.7-1.7-2.4-2.7c-0.4-0.4-0.9-0.8-1.2-1.3c-0.4-0.5-0.7-1-1.2-1.4l-2.7-2.5
	c0,0-0.1-0.1-0.1-0.1c0.4,0,0.8,0,1.2,0c0.9,0,1.8,0,2.7,0c0.1,0.2,0.3,0.4,0.5,0.6c0.2,0.3,0.5,0.6,0.7,0.9
	c0.2,0.3,0.6,0.6,0.9,0.8c0.3,0.3,0.7,0.6,1,1c0.3,0.4,0.6,0.8,0.9,1.1c0.5,0.8,1.1,1.5,1.6,2.3c0.3,0.4,0.5,0.7,0.8,1
	c0.2,0.3,0.5,0.6,0.7,0.9c0.1,0.2,0.3,0.3,0.4,0.5c-0.2,0-0.3,0-0.3,0c-0.5,0-0.9,0.4-0.8,0.9c0,0.5,0.4,0.9,0.9,0.9c0,0,0.4,0,1,0
	c-0.4,0.5-0.9,0.9-1.3,1.4c-0.3,0.4-0.7,0.7-1.1,1.1c-0.4,0.3-0.8,0.6-1.2,0.9l-1.2,0.9l-0.6,0.5c-0.1,0.1-0.2,0.2-0.3,0.2
	c0,0-0.2,0.1-0.3,0.2c-0.4,0.3-0.8,0.7-1.1,1c-0.3,0.3-0.7,0.7-0.9,1.1l0,0c0,0,0,0,0,0c0,0.1-0.1,0.1-0.1,0.2
	c-0.5,0.1-0.9,0.2-1.4,0.3c-0.7,0.2-1.4,0.6-2,0.8c-0.2,0.1-0.5,0.1-0.7,0.1c0.1-0.1,0.2-0.3,0.2-0.4c0.1-0.2,0.2-0.3,0.3-0.4
	c0.1-0.1,0.3-0.2,0.5-0.4l0.7-0.4c0.2-0.1,0.4-0.3,0.7-0.4c0.5-0.3,0.9-0.7,1.3-1.1c0.4-0.4,0.8-0.8,1.1-1.2l1-1.2
	c0.7-0.8,1.4-1.5,2.2-2.1l0,0c0.3-0.2,0.4-0.6,0.2-0.9c-0.2-0.3-0.6-0.4-0.9-0.2c-1,0.6-1.8,1.4-2.5,2.2l-1.1,1.2
	c-0.4,0.4-0.7,0.7-1.1,1.1c-0.4,0.3-0.7,0.6-1.1,0.9c-0.2,0.1-0.4,0.3-0.6,0.4l-0.7,0.4c-0.3,0.1-0.5,0.3-0.8,0.5
	c-0.3,0.2-0.5,0.6-0.6,0.9c-0.1,0.3-0.2,0.5-0.3,0.7c-0.1,0.2-0.2,0.4-0.3,0.6l-0.1,0.1c0,0.1-0.1,0.1-0.1,0.2
	c-0.1,0.4,0.2,0.7,0.6,0.8c0.7,0.1,1.5,0.3,2.4,0.3c0.8,0,1.5,0,2.2,0l4.2-0.3c0.7,0,1.4-0.1,2.1-0.1l2-0.1l2,0l0.5,0
	c0.1,0,0.3,0,0.4,0l1,0c0.7,0,1.4,0,2.2,0c0.8,0,1.5,0.1,2.5-0.2l0.1,0l0.1,0l0.1,0l0.4-0.2c0.2-0.1,0.4-0.3,0.6-0.5
	c0.3-0.3,0.6-0.7,0.8-1c0.3-0.6,0.8-1.1,1.2-1.7c0.9-1.1,1.8-2.2,2.8-3.2c0.5-0.5,0.9-1.1,1.4-1.7c0.4-0.5,0.8-1,1.1-1.6
	c3.2,0,6.7,0.1,10.6,0.2c2,0.1,4,0.1,6.1,0.2c-1.3,3.5-2.1,7.3-2.2,11.3c0,4.6,1.3,8.2,4,10.8c2.7,2.6,6.3,3.7,11,3.5
	c0.2,0,0.4,0,0.5-0.1c0.1-0.1,0.2-0.1,0.5-0.1c3.5-0.4,6.6-1.4,9.2-3.1c2.6-1.7,4.9-3.9,6.9-6.6c2.7-3.5,4.8-7.3,6.4-11.3
	c0.5-1.2,1-2.5,1.5-3.7c5.9,0,11.9,0,17.9-0.1c7.1,0,14.2,0,21.3,0.1c-1.2,3.4-1.8,6.9-2,10.6c0,4.6,1.3,8.2,4,10.8
	c2.7,2.6,6.3,3.7,11,3.5c0.2,0,0.4,0,0.5-0.1c0.1-0.1,0.2-0.1,0.5-0.1c3.5-0.4,6.6-1.4,9.2-3.1c2.6-1.7,4.9-3.9,6.9-6.6
	c2.7-3.5,4.8-7.3,6.4-11.3c0.5-1.2,1-2.5,1.5-3.8c3.9,0.1,7.9-0.4,11.8-0.4c3.7,0,7.4,0,11-0.1c3.8-0.1,6.3-0.2,7.3-0.3
	c0.1,0.4,0.1,0.8,0.2,1.2c-0.5,0.3-0.9,0.8-0.8,1.4c0.1,0.8,0.8,1.4,1.6,1.3c0.7-0.1,1.5-0.1,2.2-0.2l2.3-0.3l4.4-0.5l2.2-0.2
	l2.2-0.2l2.2-0.1l0.3,0c-0.3,0.3-0.5,0.6-0.8,0.9c-0.3,0.4-0.7,0.8-1.1,1.1l-1,1.2c-0.3,0.4-0.6,0.8-0.9,1.3l-0.8,1.4l-0.8,1.4
	l-0.7,1.5c-0.2,0.5-0.2,1,0.1,1.5c0.4,0.8,1.4,1.1,2.2,0.6l0.2-0.1c1-0.6,2-1.2,2.9-1.8c1-0.6,2-1.2,2.9-1.8
	c0.9-0.7,1.8-1.4,2.8-2.1c0.5-0.3,1-0.6,1.4-1c0.5-0.3,1-0.6,1.5-0.9c1-0.6,2-1.1,3.1-1.6c1.1-0.4,2.2-0.8,3.2-1.3
	c1.1-0.5,2-1.1,3-1.7c1-0.6,2-1.1,3.1-1.6l0,0c0.1-0.1,0.2-0.2,0.3-0.3c0.2-0.3,0.1-0.7-0.3-0.9c-1-0.5-1.9-1-2.9-1.5
	c-1-0.5-2-0.9-3-1.3c-2-0.8-4-1.7-5.9-2.5c-1-0.4-1.9-1-2.8-1.5c-0.9-0.5-1.8-1.1-2.8-1.5c-0.9-0.5-1.8-1-2.7-1.5
	c-0.9-0.5-1.7-1.1-2.5-1.7c-0.5-0.3-1.1-0.4-1.6-0.1c-0.8,0.4-1.1,1.4-0.7,2.1l0,0c0.4,0.7,0.7,1.4,1.1,2.1c0.4,0.7,0.7,1.4,1.1,2.1
	l0.5,1c0.2,0.3,0.4,0.7,0.5,1c0.1,0.2,0.2,0.4,0.3,0.7c-0.6,0-1.2,0-1.8,0c-0.6,0-1.2-0.1-1.8-0.2c-0.6-0.1-1.2-0.2-1.8-0.3
	l-0.9-0.2l-1-0.2l-1.9-0.3c-0.6-0.1-1.2-0.2-1.8-0.4c-0.3-0.1-0.6-0.1-0.8-0.2c-0.1,0-0.2-0.1-0.3-0.1l-0.1-0.1c0,0,0.1,0,0.1,0
	c-1.1-0.6-2.5-0.1-3.1,1.1c-0.4,0.8-0.3,1.6,0.2,2.3c0,0-0.1,0.1-0.1,0.1c0,0-0.2,0.4-0.3,0.9c0,0.2-0.1,0.4-0.1,0.7
	c-1-0.1-3.5-0.2-7.2-0.3c-7.2-0.2-14.4,0.3-21.5-1c0,0,0,0-0.1,0c1.1-3.5,2-7.1,2.5-10.8c1-6.3,1.5-12.6,1.5-18.8
	c0-0.1,0.5-0.5,1.6-1.2c1-0.7,2.3-1.6,3.8-2.8c1.5-1.2,3.3-2.8,5.2-4.8c1.9-1.9,3.8-4.3,5.7-7.1c1-1.3,2.1-3.2,3.3-5.7
	c1.2-2.4,2.4-5,3.5-7.7c0.6-1.4,1.1-2.8,1.6-4.1c0.5,0.8,1,1.5,1.5,2.3c1.1,1.7,2,3.3,2.7,4.8c0.2,0.5,0.5,1.2,0.7,2.2
	c-0.5,0.4-0.9,0.7-1.3,1.1c-0.4,0.4-0.7,0.7-1.1,0.9c-1.8,1.7-3.5,3.4-5,5.2c-1.5,1.8-2.9,3.7-4.1,5.8c-1.2,2.1-2.1,4.4-2.7,7.1
	c-0.6,2.7-0.7,5.6-0.2,8.8c0.6,3.3,1.9,6.2,3.9,8.9c2,2.6,4.7,4,8.1,4.3c1,0,1.9,0,2.8,0c0.9,0,1.9-0.1,2.8-0.4
	c5.5-1,10-3.3,13.6-6.9c3.6-3.6,5.5-8.4,5.8-14.5c0.1-6.1-0.9-12.2-3.1-18.5c-0.5-1.3-1.1-2.7-1.7-4c-0.7-1.3-1.3-2.6-1.9-3.7
	c1.3-0.4,3.1-1,5.3-1.9c2.2-0.9,4.5-1.9,6.9-3c2.4-1.1,4.6-2.2,6.8-3.3c2.1-1.1,3.7-2.1,4.8-3.1c1.6-1.1,2.5-2.3,2.8-3.5
	c0.3-1.2,0.2-2.1-0.5-2.6C350.4,316.1,349.3,316,348.3,316.6z M115.9,312.6c1.5-2.9,3.2-5.8,5.3-8.8c0.9,2,1.2,4,0.9,6
	c-0.2,1.6-0.6,3.1-1,4.7c-0.4,1.5-1.1,3-2.1,4.3c-0.7,1.1-1.6,2-2.6,2.6c-1,0.6-2.3,0.8-4,0.5C113.3,318.7,114.4,315.6,115.9,312.6z
	 M177.3,302.1c0,0.3-0.1,0.6-0.2,0.8c-1.6,5.1-3,9.8-4.2,14.1c-1.2,4.3-2.7,9-4.4,14.1c-2,5.7-4.5,10.9-7.7,15.5
	c-0.6,1-1.3,1.9-1.9,2.7c-0.7,0.8-1.6,1.5-2.8,2.1c-0.2-0.6-0.5-1.6-0.6-2.8c-0.2-1.3-0.3-2.4-0.3-3.4c-0.1-6.9,0.5-13.3,1.7-19.2
	c1.3-5.8,3.7-11.8,7.4-17.9c1.1-1.9,2.4-3.7,4-5.4c1.6-1.6,3-2.8,4.4-3.4c1.8-0.2,3.3,0.4,4.6,2
	C177.3,301.6,177.3,301.8,177.3,302.1z M134.1,386.2c0.4,0.8,0.8,1.5,1.2,2.2c0.4,0.8,1.1,1.6,1.6,2.3l0.8,1.1l0.8,1.1
	c0.3,0.4,0.5,0.7,0.7,1.1l0.2,0.3c-0.7,0-1.3,0-1.9,0.1c-0.1-0.2-0.2-0.3-0.4-0.4l0,0c-0.1-0.2-0.2-0.4-0.2-0.6
	c-0.1-0.2-0.2-0.5-0.2-0.7c-0.1-0.2-0.2-0.5-0.3-0.7c-0.1-0.1-0.1-0.2-0.2-0.4l-0.2-0.3l-0.4-0.6c-0.2-0.4-0.5-0.9-0.7-1.3l-0.8-1.2
	c-0.3-0.4-0.5-0.8-0.8-1.1c-0.2-0.3-0.4-0.6-0.6-0.9C133.1,386.2,133.6,386.2,134.1,386.2z M129.6,386.5c0.3,0,0.5,0,0.8-0.1
	c0.4,0.6,0.9,1.2,1.4,1.8l1,1.1l0.9,1c0.3,0.3,0.6,0.7,0.8,1.1l0.4,0.6l0.2,0.3c0,0,0.1,0.2,0.1,0.3c0.1,0.2,0.2,0.4,0.2,0.7
	c0.1,0.2,0.1,0.4,0.2,0.7c0.1,0.2,0.2,0.4,0.3,0.7c-0.6,0-1.2,0-1.7,0.1l-0.1-0.1c0,0-0.1-0.1-0.3-0.3c-0.1-0.1-0.2-0.3-0.3-0.5
	c-0.1-0.2-0.3-0.4-0.5-0.7c-0.1-0.1-0.2-0.2-0.3-0.4c-0.1-0.1-0.2-0.3-0.4-0.4c-0.2-0.3-0.5-0.6-0.8-0.8c-0.5-0.5-1.1-1.1-1.7-1.7
	c-0.6-0.6-1.1-1.1-1.6-1.7c-0.3-0.3-0.4-0.6-0.6-0.8c-0.2-0.3-0.4-0.5-0.5-0.7c0,0,0,0,0,0C128.1,386.6,128.8,386.6,129.6,386.5z
	 M126.3,393.9c-0.2-0.3-0.5-0.5-0.7-0.9c-0.2-0.3-0.5-0.7-0.7-1c-0.5-0.7-1-1.5-1.5-2.3c-0.5-0.8-1-1.6-1.3-2.5
	c-0.2-0.4-0.3-0.8-0.5-1.2c0.4,0,0.8,0,1.1,0c0.8,0,1.5,0.1,2.3,0.2c0.1,0,0.1,0,0.2,0c0.1,0.1,0.1,0.3,0.2,0.5
	c0.1,0.2,0.3,0.5,0.5,0.8c0.2,0.3,0.4,0.6,0.6,0.9c0.2,0.3,0.5,0.6,0.8,0.9c0.5,0.6,1.1,1.2,1.7,1.7c0.6,0.5,1.2,1.1,1.8,1.6
	c0.3,0.2,0.5,0.5,0.8,0.7c0.1,0.1,0.2,0.2,0.3,0.3c0.1,0.1,0.2,0.2,0.3,0.3c0.2,0.2,0.4,0.4,0.5,0.6c0,0.1,0.1,0.1,0.1,0.1
	c-2.4,0.1-4.3,0.2-5.5,0.3C127,394.7,126.7,394.3,126.3,393.9z M127.8,402.1l-0.2,0.3l-0.1,0.1l0,0l0,0l0,0c0,0,0,0,0-0.1l0,0l0,0
	l-0.1,0.1l-0.5,0.5l-0.1,0.1c-0.4,0-0.7,0-1.1,0c-1,0-1.9,0.1-2.9,0.3c0,0,0,0,0,0c0.1-0.1,0.1-0.2,0.2-0.3l0.4-0.6l0.8-1.3
	c0.6-0.8,1.2-1.6,1.9-2.3c0.7-0.7,1.3-1.5,2-2.2c0,0,0,0,0,0c0,0,0,0,0,0c1.2,0,2.9-0.1,5-0.2c-0.2,0.3-0.3,0.5-0.5,0.8
	c-0.3,0.3-0.6,0.6-0.9,0.9l-1,0.9l-1,1l-1,1C128.5,401.4,128.2,401.8,127.8,402.1z M130.2,403.8c-0.3-0.1-0.6-0.2-0.9-0.3l0.2-0.2
	c0.3-0.4,0.5-0.7,0.8-1.1l0.8-1.1l0.8-1l0.9-1c0.3-0.4,0.6-0.8,0.9-1.1c0.3-0.4,0.5-0.8,0.8-1.1c0,0,0-0.1,0.1-0.1
	c0-0.1,0.1-0.1,0.1-0.2c0.5,0,1,0,1.5,0l-0.3,0.7l-0.6,1.1c-0.2,0.4-0.5,0.7-0.7,1.1c-0.3,0.3-0.6,0.7-0.9,1
	C132.4,401.5,131.2,402.6,130.2,403.8z M141,397.4c-0.4,0.5-0.9,1-1.4,1.5c-1,1-2,1.9-3.1,2.9c-0.5,0.5-1,1-1.5,1.6
	c-0.4,0.6-0.7,0.9-1.1,1c-0.4,0.1-1.1,0-1.7-0.1c0,0-0.1,0-0.1,0c0.3-0.3,0.5-0.7,0.8-1c0.5-0.7,1.1-1.5,1.6-2.2l1.6-2.3
	c0.2-0.4,0.5-0.8,0.7-1.2l0.5-1.2c1.4,0,2.8,0,4.4,0C141.5,396.8,141.3,397.2,141,397.4z M140.9,394.3c0,0-0.1-0.1-0.2-0.1l-0.4-0.8
	c-0.2-0.4-0.4-0.9-0.7-1.2l-0.7-1.1l-0.7-1.1c-0.5-0.8-1-1.4-1.4-2.3c-0.2-0.4-0.4-0.8-0.6-1.2c0.1,0,0.1,0,0.2,0
	c0.3,0.1,0.6,0.2,0.7,0.3c0,0,0.4,0.3,0.3,0.3l0.3,0.4c0.4,0.5,0.7,1.2,1.1,1.9c0.2,0.4,0.4,0.7,0.6,1c0.2,0.4,0.5,0.7,0.7,1
	c0.4,0.7,1,1.3,1.4,1.9c0.2,0.3,0.4,0.6,0.6,0.9l0.1,0.1C141.7,394.3,141.3,394.3,140.9,394.3z M306.5,394.5c0-0.1,0-0.1,0-0.2
	c0,0,0.1,0,0.1,0l0.4,0.1c0.2,0,0.5,0,0.6,0c0.4,0,0.7,0,1.1,0c0.7,0,1.3,0,2-0.1c0.6,0,1.3,0,1.9-0.1l0.4,0l0.4,0l1,0
	c0.7,0,1.3,0.1,2,0c0.7,0,1.3,0,2-0.1c0.7-0.1,1.3-0.1,2-0.2c0.3,0,0.6-0.1,1-0.1c0.3,0,0.6,0,1,0.1c0.1,0,0.2,0,0.3,0
	c0.5-0.1,0.8-0.5,0.8-1l-0.1-0.6c-0.1-0.4-0.1-0.8-0.2-1.2c-0.1-0.4-0.3-0.8-0.4-1.2c-0.1-0.4-0.3-0.7-0.5-1.1l-0.3-0.6
	c0.4,0.2,0.7,0.4,1.1,0.5c0.5,0.2,1,0.4,1.5,0.6l1.6,0.5c1.1,0.3,2.1,0.6,3.1,0.9c2,0.7,4.1,1.4,6,2.2c1,0.4,2,0.8,2.9,1.3
	c0.5,0.2,1,0.5,1.5,0.8c-0.6,0.2-1.3,0.5-2,0.7c-0.3,0.1-0.6,0.2-0.9,0.3c-1.5,0.3-3.1,0.7-4.6,1c-1.8,0.4-3.6,0.9-5.3,1.6
	c-0.8,0.3-1.5,0.8-2.4,1c-0.6,0.1-1.2,0.2-1.9,0.2c0,0,0,0,0.1-0.1l1-1.1l0,0c0.1-0.1,0.2-0.3,0.2-0.5c0-0.5-0.4-0.9-0.8-0.9
	l-2.3-0.1l-2.2,0l-4.5,0.2c-1.5,0.1-2.9,0.2-4.4,0.2l-2.1,0c-0.5,0-0.9,0-1.4-0.1c0.1-0.4,0.1-0.7,0.2-1.1
	C306.6,395.8,306.6,395.1,306.5,394.5z M262.3,379.2c0,1.1-0.1,2.2-0.2,3.3c-0.4,3.4-0.8,6.8-1.3,10.2c-0.1,0.7-0.2,1.3-0.3,2
	c-2.6,0-5.3-0.2-7.9-0.2c-2.1,0-4.2,0-6.2,0c0.8-1.6,1.6-3.2,2.6-4.7c1.8-2.7,3.9-5.1,6.1-7.4c2.3-2.3,4.8-4.5,7.6-6.9
	C262.4,376.9,262.3,378.1,262.3,379.2z M234,326c1.3-5.8,3.7-11.8,7.4-17.9c1.1-1.9,2.4-3.7,4-5.4c1.6-1.6,3-2.8,4.4-3.4
	c1.8-0.2,3.3,0.4,4.6,2c0,0.2,0,0.5,0,0.8c0,0.3-0.1,0.6-0.2,0.8c-1.6,5.1-3,9.8-4.2,14.1c-1.2,4.3-2.7,9-4.4,14.1
	c-2,5.7-4.5,10.9-7.7,15.5c-0.6,1-1.3,1.9-1.9,2.7c-0.7,0.8-1.6,1.5-2.8,2.1c-0.2-0.6-0.5-1.6-0.6-2.8c-0.2-1.3-0.3-2.4-0.3-3.4
	C232.2,338.2,232.8,331.8,234,326z M171.8,389.8c1.8-2.7,3.9-5.1,6.1-7.4c2.3-2.3,4.8-4.5,7.6-6.9c-0.2,1.3-0.4,2.6-0.4,3.7
	c0,1.1-0.1,2.2-0.2,3.3c-0.4,3.4-0.8,6.8-1.3,10.2c-0.1,0.5-0.2,1-0.3,1.5c-0.3,0-0.7,0-1,0c-2.6,0-5.2,0.2-7.7,0.2
	c-1.9,0.1-3.7,0.1-5.5,0C169.9,392.9,170.8,391.3,171.8,389.8z M181.3,402.6c-0.6,1.7-1.3,3.3-2,4.8c-0.7,1.5-1.5,3-2.2,4.5
	c-1.5,2.7-3.5,4.6-6,5.8c-1.3-0.6-2.3-1.4-2.9-2.3c-0.6-0.9-1.1-2-1.5-3.2c-0.5-1.3-0.8-2.7-0.8-4c-0.1-1.3,0-2.7,0.3-4
	c0.5-2.5,1.1-4.9,2-7.2c2.1,0.1,4.3,0.1,6.5,0.3c2.5,0.2,5.1,0.3,7.8,0.3c0.1,0,0.3,0,0.4,0C182.3,399.3,181.9,401,181.3,402.6z
	 M215.3,394.3c-5.6,0-11.2,0-16.7,0c0,0,0,0,0,0c1.2-3.7,2.1-7.4,2.7-11.3c1-6.3,1.5-12.6,1.5-18.8c0-0.1,0.5-0.5,1.6-1.2
	c1-0.7,2.3-1.6,3.8-2.8c1.5-1.2,3.3-2.8,5.2-4.8c1.3-1.3,2.6-2.8,3.8-4.5c0.6,1.3,1.3,2.5,2.2,3.5c1.8,2.1,4.3,3.5,7.3,4.1
	c6.3,1.1,11.5-0.6,15.5-5.1c1.9-2.1,3.7-4.6,5.3-7.7c2.3-4.3,4.2-8.3,5.6-12.1c1.4-3.8,2.8-8,4.1-12.6c0.4-1.2,0.7-2.6,1.1-4
	c0.4-1.5,0.7-2.8,1.1-4c0,0.1,0.2,1.2,0.5,3.3c0.3,2.1,0.6,4.5,0.9,7.3c0.3,2.8,0.6,5.7,0.9,8.7c0.3,3,0.5,5.4,0.6,7.2
	c0.2,4.4,0.4,8.8,0.5,13.2c0.1,4.4,0.2,8.8,0.5,13.2c0,1.7-0.7,3-2.2,4c-1.3,1.1-2.7,2.2-4,3.3c-1.3,1.1-2.7,2.2-4,3.3
	c-2.3,1.9-4.5,4-6.5,6.1c-2,2.1-3.9,4.4-5.8,6.9c-1.1,1.6-2,3.3-2.8,5C230.4,394.3,222.9,394.3,215.3,394.3z M258.4,402.6
	c-0.6,1.7-1.3,3.3-2,4.8c-0.7,1.5-1.5,3-2.2,4.5c-1.5,2.7-3.5,4.6-6,5.8c-1.3-0.6-2.3-1.4-2.9-2.3c-0.6-0.9-1.1-2-1.5-3.2
	c-0.5-1.3-0.8-2.7-0.8-4c-0.1-1.3,0-2.7,0.3-4c0.4-2.3,1-4.5,1.8-6.6c5,0,9.9,0,14.9-0.1C259.5,399.2,259,400.9,258.4,402.6z
	 M308.2,310.6c-2.1-2.1-3.1-4.7-3.2-7.8c-0.1-3.1,0.9-5.9,2.8-8.5c1.8,1.7,2.8,4.1,2.8,7C310.7,304.4,309.9,307.5,308.2,310.6z
	 M314.7,364.2c-0.2,1.7-0.6,3.4-1.1,5.1c-0.5,1.7-1.2,3.3-2.2,4.8c-0.4,0.6-0.8,1.2-1.3,1.6c-0.5,0.5-1,1-1.6,1.6
	c-1.5-0.5-2.6-1.2-3.4-2c-0.8-0.9-1.5-1.9-2.1-3.1c-1-2-1.5-3.9-1.6-5.9c-0.1-2,0.2-4.1,0.6-6.1c0.7-2.9,1.9-5.5,3.5-7.9
	c1.6-2.3,3.6-4.5,6-6.6c1.1,3.2,2,6.2,2.6,9.2C314.9,357.9,315.1,361,314.7,364.2z M80.2,74.8c-8.3,8.5-14.9,17-20.2,25.2
	c-1.1,1.5-2.1,3.1-3,4.6c-0.9,1.5-1.6,3-2.3,4.4c-2,1.5-3.8,1.4-5.4-0.4c-1.6-1.8-2.9-4.4-3.7-7.8c-0.8-3.4-1.1-7.1-0.8-11.3
	c0.3-4.1,1.4-7.7,3.2-10.6c1.6-3.5,4.6-7.7,9.1-12.7c4.5-5,10.2-10.1,17.1-15.4c6.9-5.3,14.8-10.5,23.8-15.6
	c9-5.1,18.4-9.6,28.2-13.4c9.8-3.9,19.8-6.9,29.9-9c10.1-2.2,19.6-3.2,28.4-3.2c8.8,0,16.7,1.2,23.6,3.5c6.9,2.3,12.1,5.9,15.7,10.6
	c0.9,0.9,1.5,2.3,1.7,4.2c0.2,1.9,0.1,3.6-0.3,5.2c-0.4,1.6-1,2.9-1.7,3.8c-0.8,0.9-1.6,0.9-2.5,0c-1.4-3.9-3.8-7-7.3-9.1
	c-3.5-2.1-7.6-3.5-12.1-4.2c-4.5-0.7-9.2-0.9-14-0.7c-4.8,0.3-9.2,0.7-13.3,1.1c-10.8,1.2-22.1,4.2-33.6,9
	c-11.5,4.8-22.6,10.9-32.8,18C98.1,58.1,88.7,66,80.2,74.8z M98.9,105.3c-3.7,2.5-7.5,5.4-11.4,8.6c-0.6,0.4-1.3,1-2.1,1.7
	c-0.8,0.7-1.7,1.2-2.5,1.6c-0.8,0.3-1.5,0.4-2.1,0.1c-0.6-0.3-0.9-1.1-1-2.6c-0.2-2.2-0.2-4.2,0-6c0.2-1.8,1.2-3.6,3-5.1
	c2.6-2.4,5.4-4.8,8.5-7.1c3.1-2.3,6.2-4.5,9.5-6.6c1.2-7.3,2.6-14,4.1-20c1.5-6,2.8-11,3.7-15.1c0.4-0.8,1.8-1.1,4.1-0.8
	c2.3,0.3,4.8,0.9,7.4,1.8c2.6,0.9,4.8,1.9,6.7,3.1c1.9,1.2,2.9,2.2,2.9,3.1c-0.7,2.5-1.3,4.9-1.9,7.3c-0.6,2.4-1.1,4.8-1.6,7.3
	c3.5-1.6,7-3,10.4-4.3c3.4-1.3,6.9-2.5,10.4-3.7c1.4-0.5,2.6-0.8,3.6-1.1c1-0.3,1.6,0.4,1.8,2c0.2,1.4,0.1,2.8-0.4,4.4
	c-0.5,1.5-1.2,3.1-2,4.5c-0.8,1.5-1.8,2.8-2.9,3.9c-1.1,1.1-2.3,1.9-3.7,2.4c-4,1.3-7.7,2.6-10.9,3.8c-3.3,1.2-6.4,2.4-9.4,3.7
	c-1.9,13.4-3.5,26.6-3.5,40.1c0,11.5,1.2,20.1,3,25.9c-0.3,0.9-1.4,1.4-3.4,1.6c-2,0.2-4.1,0.2-6.5,0c-2.3-0.2-4.5-0.6-6.5-1.2
	c-2-0.6-3.2-1.3-3.5-2.2c-2.3-8-3.8-16.4-4.3-25.1C98.1,122.5,98.2,113.9,98.9,105.3z M386.5,126.1c-0.9,1-2.1,2.2-3.7,3.5
	c-1.6,1.4-3.4,2.9-5.3,4.4c-2,1.6-4,3.3-6.1,5.1c-2.1,1.8-4.2,3.5-6.2,5.2c-0.6,0.5-0.9,0.7-1.6,1.2c-1.9,1.4-4.1,3.1-6.6,5
	c-2.5,1.9-5.1,3.6-7.7,5c-2.6,1.5-5.2,2.4-7.7,2.7c-2.5,0.4-4.8-0.3-6.7-1.9c-3.9-3.4-6.3-7-7.1-10.8c-0.8-3.8-0.8-7.5,0.2-11
	c0.9-3.3,2.4-6.5,4.6-9.6c2.2-3.1,4.6-6.3,7.2-9.6c1.1-1.2,1.9-2.4,2.5-3.5c0.5-1.1,1-2.1,1.2-3.1c0.6-1.9,0.6-3,0-3.1
	c-1-0.3-2.7,0.1-4.9,1.1c-3.4,1.3-6.4,2.8-9,4.5c-2.6,1.7-4.3,3.4-5.3,4.9c-0.5,0.9-1.3,2.1-2.4,3.5c-1.1,1.4-2.2,2.9-3.3,4.4
	c-2.3,3-4.5,6.3-6.7,9.7c-2.1,3.4-3.5,6.8-4.3,10.1c-0.1,0.2-0.1,0.5-0.1,0.8c0,0.3,0,0.6-0.1,0.9c0,0.5-0.1,1.2-0.2,2
	c-0.2,0.8-0.4,1.7-0.6,2.8c-0.4-0.1-0.6-0.1-1-0.2c-1.9,0-3.7-0.5-5.6-1.4c-1.9-0.9-3.5-2.1-4.9-3.7c-1.4-1.5-2.4-3.4-3-5.4
	c-0.6-2.1-0.6-4.4,0.3-6.7c0.7-2,1.8-4.2,3-6.6c1.2-2.4,2.5-4.8,3.9-7.3c1.4-2.5,2.8-4.8,4.3-7.1c1.5-2.3,2.8-4.3,4.1-6.3
	c0.9-0.7,1.6-1.5,2-2.3c0.5-0.8,0.8-1.6,0.9-2.3c0.5-2.3,0.1-3.6-1.2-3.9c-1.2-0.2-2.9,0.2-5,1.5c-4.3,2-7.7,4.4-10.3,7.2
	c-2.6,2.8-4.3,4.9-5.3,6.3c-1,2-2.1,4.1-3.3,6.4c-1.1,2.3-2.2,4.6-3.2,6.9s-1.8,4.6-2.5,6.8c-0.7,2.2-1.1,4.3-1.4,6.2
	c-0.5,3.1-0.5,5-0.1,5.7c-2.2,0-4.6-0.3-7-1c-2.4-0.7-4.5-1.7-6.2-3c-1.8-1.3-3.1-3-3.9-5c-0.4-0.9-0.6-1.9-0.6-2.9
	c-1,1-1.9,2-2.9,2.9c-2.3,2.2-4.6,3.8-6.9,4.8c-2.4,1-4.7,0.9-7.1-0.2c-4.6-2.4-7.7-5.3-9.3-8.8c-1.6-3.5-2.4-7.1-2.3-10.7
	c0.1-4.3,1-8.4,2.8-12.4c1.7-4,3.3-8.2,4.7-12.5c-1.6-0.1-3.2-0.4-4.7-0.7c-0.2,0.4-0.4,0.9-0.7,1.4c-1.4,2.7-3.1,6-5.2,9.9
	c-2.1,3.9-4.3,7.9-6.6,11.9c-1.5,2.4-3.2,5-5,7.8c-1.8,2.8-3.7,5.4-5.8,7.7c-2.1,2.3-4.2,4.1-6.5,5.5c-2.3,1.3-4.7,1.6-7.2,0.7
	c-3.9-1.6-6.8-3.9-8.9-6.7c-2-2.9-3.3-5.8-3.9-8.9c-2.9,3.7-6.1,7.1-9.4,10.2c-3.3,3.2-6.9,5.5-10.9,7.1c-1,0.4-2,0.7-3,1
	c-1,0.3-1.9,0.5-2.7,0.6c-5.4,0.9-9.8-0.2-13.1-3.3s-5.7-7.3-6.8-12.7c-0.5-2.5-0.7-5-0.7-7.6c0-2.6,0.4-5.3,1-8
	c0.8-3.1,2.3-6.8,4.3-11c2.1-4.2,4.9-8.3,8.5-12.3c3.6-4,8.1-7.5,13.4-10.4c5.3-2.9,11.6-4.8,18.3-5.1c2.9-0.1,5.6,0.4,8,1.7
	c2.4,1.2,4.5,2.7,6.3,4.5c1.7,1.8,3,3.7,3.9,5.7c0.8,2,1.2,3.9,1.1,5.5c0,0.6-0.5,1.1-1.5,1.6c-1,0.4-2.1,0.7-3.3,0.7
	c-1.5,0.1-2.8-0.1-4.1-0.4c-1.3-0.4-1.9-1-2-2c0-0.4-0.2-1-0.6-1.8c-0.3-0.8-0.8-1.5-1.4-2.3c-0.6-0.7-1.3-1.3-2.1-1.8
	c-0.9-0.5-1.8-0.6-2.8-0.4c-2.7,0.3-5.3,1.4-7.8,3.1c-2.5,1.7-4.9,3.8-7.1,6.4c-2.2,2.6-4.2,5.5-5.8,8.7c-1.7,3.2-3,6.4-4,9.6
	c-2.2,7.2-2.9,12.7-2.3,16.5c0.5,3.2,1.9,4.6,4.1,4.3c0.3,0,0.8-0.2,1.6-0.6c0.8-0.4,1.6-0.7,2.2-1.1c-0.1,0-0.1,0-0.2,0
	c3.9-3.2,7.6-7.1,11.1-11.6c3.5-4.5,6.8-8.9,9.7-13.2c0.4-1.7,1-3.2,1.8-4.5c0.8-1.3,0.9-2.8,0.5-4.6c-0.2-1,0.2-1.7,1.1-2.3
	c1-0.5,2.2-0.8,3.7-0.9c1.5-0.1,2.9-0.1,4.3,0c1.4,0.1,2.5,0.2,3.2,0.3c2.1,0.7,3.5,1.6,4.2,2.7c0.8,1.2,1.2,2.8,1.2,4.9
	c0.1,2.5-0.1,4.7-0.5,6.6c-0.4,1.9-1,4-1.8,6.3c-0.7,2.5-1.1,3.8-1.8,6.3c-0.6,2.9-0.8,4.9-0.7,6.1c0,1,0.4,1.3,1.1,0.8
	c0.7-0.5,1.6-1.4,2.7-2.7c1.1-1.4,2.4-3,3.8-4.9c1.4-1.9,2.9-3.9,4.4-5.9c-0.1,0-0.1,0-0.2,0c3-5.2,5.7-10,8-14.4
	c1.6-3,3-5.6,4.1-7.7c-0.3-0.2-0.7-0.4-1-0.6c-2-1.3-3.6-2.9-4.8-4.8c-1.3-1.9-1.9-4.3-1.9-7c0-1.5,0.2-3.2,0.8-5
	c0.5-1.8,1.3-3.6,2.4-5.4c1.1-1.8,2.5-3.3,4.2-4.7c1.7-1.4,3.8-2.3,6.4-2.9c2-0.5,4-0.4,5.9,0.3c1.9,0.6,3.4,1.6,4.6,2.9
	c1.2,1.3,2,2.9,2.6,4.6c0.5,1.8,0.5,3.6-0.1,5.5c-0.6,2-1.2,3.6-1.8,4.9c-0.7,1.3-1.5,3.2-2.5,5.6c2.2,0.6,4.3,1,6.3,1.1
	c2,0.1,4.2,0.6,6.7,1.4c2.6,1.1,4.3,2.5,5.2,4.4c0.9,1.8,1.2,3.8,1,5.9c-0.1,1.5-0.4,2.9-0.8,4.2c-0.4,1.3-0.9,2.5-1.4,3.6
	c-2.8,5.4-4.5,9.2-5.5,11.4c-0.9,2.2-1.5,3.6-1.9,4.2c-1,2.9-1.5,4.9-1.5,6c0,1.1,0.3,1.5,1,1.3c0.7-0.2,1.6-0.8,2.8-1.9
	c1.2-1,2.4-2.3,3.6-3.7c1.2-1.4,2.4-2.8,3.5-4.1c1.1-1.3,2-2.4,2.6-3.1c1.6-2.2,3.3-4.5,4.9-6.8c1.5-2,2.9-4,4.1-5.8
	c0.9-2.2,1.8-4.3,2.8-6.5c1.3-3,2.6-5.8,3.7-8.3c1.2-2.6,2.1-4.7,2.8-6.5c0.7-1.8,1.1-2.9,1.2-3.4c-0.2-1,0.5-1.7,2-1.9
	c1.5-0.2,3.3-0.2,5.4,0.1c2.1,0.3,4,0.9,5.6,1.6c2.4,1.3,4,2.9,4.7,4.8c0.7,1.9,1,3.9,0.7,6.1c1.4-0.6,2.1-0.9,3.5-1.5
	c2.8-0.9,5.5-1.4,8.2-1.5c2.7-0.2,5.3,0.1,7.8,0.6c3.4,0.8,6.2,2.1,8.4,4c2.2,1.9,3.3,4.4,3.5,7.4c2.1-1,4.4-1.8,7-2.4
	c2.8-0.6,5.6-0.9,8.3-0.9c2.7,0.1,5.3,0.5,7.8,1.3c4.1,1.3,7.2,3.3,9.2,6.1c2,2.7,2.3,6.2,0.9,10.3c-0.3,0.9-0.7,1.9-1.2,2.8
	c-0.5,0.9-1,1.8-1.6,2.6c-0.7,0.9-1.5,2-2.4,3c-1,1.1-2,2.3-3.1,3.6c-2.8,3.4-5.7,7.1-8.5,11.1c-2.9,4-4.7,7.4-5.5,10
	c-0.3,1.1,0,1.4,1.2,1.1c1.1-0.4,2.5-1.1,4.3-2.2c1.7-1.1,3.6-2.3,5.5-3.8c2-1.4,3.6-2.7,4.9-3.9c3.6-3.1,7.5-6.3,11.5-9.6
	c4-3.3,7.4-6,9.9-8.1c0.9-0.6,1.9-0.8,3-0.5c1.1,0.2,2,0.8,2.8,1.5c0.7,0.8,1.2,1.7,1.5,2.6C387.4,124.2,387.2,125.1,386.5,126.1z
	 M179,228.2c0.1,0.8,0.2,1.5,0.2,2.3c0.1,0.8,0.2,1.5,0.4,2.3c0.1,0.6,0.3,1.3,0.4,1.9c0.2,0.6,0.3,1.2,0.5,1.8
	c0.5,1.4,1.2,2.5,2,3.5c1.5,1.7,3.3,2.3,5.4,1.7c0.6-0.2,1.1-0.4,1.6-0.8c0.4-0.3,0.8-0.8,1.1-1.3c0.4-0.6,0.6-1.2,0.8-1.9
	c0.2-0.7,0.4-1.3,0.5-2c0.2-0.7,0.3-1.4,0.3-2c0-0.6,0.1-1.3,0.1-1.9c0-0.6,0-1.3,0-1.9c-0.1-0.7-0.2-1.4-0.2-2.1
	c-0.1-0.7-0.1-1.4-0.2-2.1c-0.1-0.4-0.2-0.9-0.2-1.3c-0.1-0.4-0.1-0.8-0.2-1.3c-0.1-0.6-0.3-1.3-0.4-1.9c-0.1-0.6-0.3-1.3-0.5-2
	c-0.1-0.5-0.3-1-0.5-1.7c0-0.2-0.1-0.3-0.1-0.4c0-0.1-0.1-0.2-0.1-0.4c0.1-0.1,0.1-0.1,0.2-0.1c0.7-0.5,1.4-1,2-1.6
	c1-0.9,1.9-2.1,2.5-3.5c0.2-0.3,0.3-0.7,0.4-1c0.2-0.4,0.3-0.9,0.4-1.4c0.1-0.2,0.1-0.4,0.2-0.6c0-0.2,0.1-0.4,0.1-0.6l0.1-0.1h0.7
	c0.2,0,0.5,0,0.8-0.1c0.4-0.1,0.8-0.2,1.1-0.4c0.4-0.2,0.6,0,0.8,0.4c0,0.1,0.1,0.2,0.1,0.4c0,0.1,0.1,0.2,0.1,0.4
	c0,0.2,0,0.4,0,0.5c0,0.2,0,0.3,0,0.5c0,0.3-0.1,0.7-0.1,1c0,0.4-0.1,0.7-0.1,1c0,0.3-0.1,0.6-0.1,0.9c0,0.3,0,0.6-0.1,0.9
	c0,0.1,0,0.2,0,0.4c0,0.1,0,0.2,0,0.3l-0.2,2.2c0,0.3-0.1,0.6-0.1,0.9c0,0.3,0,0.6-0.1,0.9c0,0.3,0,0.6,0,0.9s0,0.6-0.1,0.9
	c0,0.3,0,0.7,0,1c0,0.3,0.1,0.7,0.2,1c0.1,0.3,0.2,0.5,0.3,0.8c0.1,0.2,0.2,0.5,0.3,0.7c0.3,0.7,0.8,1.3,1.3,1.7
	c0.3,0.2,0.6,0.4,1,0.6c0.3,0.1,0.7,0.2,1.1,0.2h0.8c0.1,0,0.2-0.1,0.4-0.1c0.1,0,0.2,0,0.4-0.1c0.7-0.2,1.2-0.5,1.7-1
	c0.3-0.3,0.6-0.7,0.8-1c0.2-0.3,0.5-0.7,0.7-1.2c0.2-0.4,0.4-0.7,0.5-1.1c0.2-0.4,0.3-0.7,0.5-1.1c0.1-0.2,0.2-0.5,0.3-0.7
	c0.1,0.2,0.1,0.4,0.2,0.5c0.2,0.4,0.3,0.7,0.5,1.1c0.1,0.4,0.3,0.7,0.5,1c0.3,0.4,0.6,0.9,1,1.3c0.3,0.4,0.7,0.8,1.1,1.2
	c0.6,0.6,1.4,0.9,2.3,1.1c0.2,0,0.5,0.1,0.8,0.1c0.3,0,0.5,0,0.8,0h0.3c0.3,0,0.6,0,0.9,0c0.3,0,0.6,0,0.9-0.1
	c0.2,0,0.4-0.1,0.6-0.1s0.4-0.1,0.6-0.2c0.2-0.1,0.4-0.2,0.6-0.3c0.2-0.1,0.4-0.2,0.6-0.3c0.4-0.2,0.8-0.5,1.2-0.8
	c0.3-0.3,0.7-0.7,1-1c0.4-0.4,0.7-0.7,1-1.1c0.3-0.4,0.6-0.8,0.8-1.2c0.3-0.5,0.6-1,0.9-1.5c0.3-0.5,0.6-1,0.8-1.6
	c0.2-0.5,0.4-1,0.6-1.5c0.2-0.5,0.4-1,0.6-1.5c0.3-0.8,0.6-1.5,0.7-2.2c0.1-0.4,0.2-0.8,0.4-1.2c0.1-0.3,0.1-0.6,0.2-0.9
	c0.1-0.1,0.1-0.2,0.2-0.3c0.1-0.2,0.2-0.4,0.4-0.6c0.1-0.2,0.1-0.4,0.2-0.4l0.1,0.2c0.1,0.2,0.2,0.4,0.2,0.6
	c0.1,0.2,0.2,0.4,0.2,0.6l0.5,1.4c0.1,0.3,0.3,0.7,0.4,1c0.1,0.3,0.3,0.7,0.4,1c0.1,0.3,0.2,0.6,0.3,0.9c0.1,0.3,0.2,0.6,0.3,0.9
	c0,0.1,0,0.2,0,0.2l-0.6,0.6c-0.2,0.2-0.4,0.5-0.7,0.7c-0.2,0.2-0.5,0.5-0.7,0.8c-0.5,0.8-0.9,1.6-1.1,2.6c0,0.2-0.1,0.3-0.1,0.5
	c0,0.2,0,0.3,0,0.5c0,0.7,0.1,1.3,0.5,2c0.7,1.1,1.6,1.7,2.8,1.9c0.8,0.1,1.7,0,2.6-0.3c0.7-0.3,1.2-0.6,1.6-1
	c0.4-0.4,0.8-0.9,1.1-1.4c0.3-0.5,0.5-1,0.7-1.6c0.2-0.6,0.3-1.1,0.3-1.6c0-0.3,0.1-0.6,0.1-0.8c0-0.3,0-0.5,0-0.8
	c0-0.2,0-0.4,0-0.5c0-0.1-0.1-0.3-0.1-0.5c0-0.2-0.1-0.3-0.1-0.5c0-0.1-0.1-0.3-0.1-0.5c-0.1-0.2-0.1-0.4-0.2-0.6
	c0-0.1,0-0.2,0.1-0.2c0.4-0.4,0.8-0.7,1.2-1.1c0.3-0.3,0.5-0.5,0.8-0.8c0,0,0,0,0,0c0,0.6,0,1.2,0,1.8c0,0.6-0.1,1.2-0.1,1.8
	c0,0.7,0,1.5,0,2.2c0,0.7-0.1,1.5-0.2,2.2c-0.1,0.6-0.1,1.2-0.2,1.8c0,0.6-0.1,1.2-0.1,1.9v0.2c0.2,0.1,0.5,0.2,0.8,0.2
	c0.9,0.2,1.8,0.2,2.7,0c0.8-0.3,1.4-0.9,1.9-1.8c0.3-0.6,0.4-1.2,0.4-1.9v-0.7l0.2-2.9c0-0.4,0.1-0.9,0.1-1.3c0-0.4,0-0.9,0.1-1.3
	c0-0.6,0.1-1.2,0.1-1.8c0-0.6,0.1-1.2,0.2-1.7c0-0.3,0.1-0.6,0.1-0.9s0-0.6,0.1-0.9c0.1-0.4,0.3-0.9,0.5-1.4c0.2-0.5,0.4-1,0.7-1.5
	c0.3-0.5,0.6-0.9,0.9-1.4c0.6-0.7,1.3-1.4,2.1-2.2c0.1-0.1,0.2-0.2,0.4-0.3c0.1-0.1,0.3-0.2,0.5-0.3c0.3-0.2,0.7-0.3,1-0.2
	c0.3,0.1,0.6,0.3,0.8,0.6c0.1,0.2,0.2,0.3,0.3,0.5c0.1,0.2,0.2,0.3,0.3,0.5c0.2,0.5,0.3,1,0.4,1.4c0.1,0.3,0.1,0.5,0.2,0.8
	c0,0.2,0.1,0.5,0.2,0.8c0,0.2,0,0.4,0,0.6c0,0.2,0,0.4,0,0.6l0.2,3.4c0,0.9,0,1.8,0,2.6c0,0.9,0,1.8,0.1,2.7c0,0.3,0.1,0.6,0.1,0.8
	c0,0.3,0,0.5,0.1,0.8c0.1,0.4,0.2,0.9,0.2,1.3c0.1,0.4,0.2,0.9,0.3,1.3c0.1,0.6,0.3,1.1,0.5,1.6c0.7,1.2,1.8,1.8,3.1,1.7
	c0.2,0,0.4,0,0.6,0c0.2,0,0.4,0,0.6-0.1c0.8-0.1,1.5-0.5,2-1.1c0.7-0.7,1.2-1.6,1.7-2.5c0.2-0.6,0.5-1.1,0.7-1.7
	c0.2-0.6,0.5-1.1,0.7-1.7l1.1-2.7c0.2-0.6,0.4-1.1,0.6-1.6s0.4-1,0.6-1.6c0.2-0.4,0.3-0.8,0.4-1.2c0.1-0.4,0.3-0.8,0.4-1.2
	c0.1-0.4,0.1-0.9,0-1.4c-0.1-0.2-0.2-0.4-0.4-0.5c-0.3-0.2-0.6-0.2-0.9-0.1c-0.3,0.1-0.5,0.3-0.6,0.6c-0.1,0.2-0.2,0.3-0.2,0.5
	c-0.1,0.1-0.1,0.3-0.2,0.5c-0.2,0.5-0.4,1-0.5,1.5c-0.1,0.5-0.3,1-0.5,1.5c-0.2,0.6-0.4,1.1-0.6,1.7c-0.2,0.6-0.4,1.2-0.6,1.8
	c-0.3,0.8-0.7,1.6-1,2.4c-0.3,0.8-0.7,1.6-1.1,2.4c-0.1,0.2-0.2,0.3-0.2,0.5c-0.1,0.1-0.2,0.3-0.3,0.5c0,0.1-0.2,0.3-0.4,0.5
	c-0.3,0.3-0.6,0.3-0.7-0.2c-0.1-0.1-0.1-0.2-0.1-0.3c0-0.3-0.1-0.6-0.1-0.9c0-0.3-0.1-0.6-0.1-0.9c0-0.6,0-1.3,0-1.9
	c0-0.6,0.1-1.2,0.1-1.9v-0.1c0-0.4,0-0.9,0-1.3c0-0.4,0-0.8,0.1-1.3c0-0.2,0-0.4,0-0.6c0-0.2,0-0.4,0-0.6c0-0.2,0-0.5,0-0.7
	c0-0.2,0-0.5,0-0.7c0-0.3,0-0.6,0-0.9c0-0.3,0-0.6,0-0.8c0-0.9-0.1-1.8-0.4-2.7c-0.1-0.4-0.2-0.9-0.4-1.3c-0.2-0.4-0.4-0.8-0.6-1.2
	c-1-1.8-2.4-2.8-4.4-3.2c-1-0.1-2-0.1-2.9,0.1c-0.7,0.2-1.3,0.5-1.9,0.9c-0.7,0.4-1.3,1-1.7,1.6c-0.5,0.6-0.9,1.3-1.2,2
	c-0.1,0.1-0.1,0.2-0.2,0.3c0,0.1-0.1,0.2-0.2,0.3c-0.1-0.1-0.1-0.2-0.1-0.4c0-0.4,0-0.8,0-1.2c0-0.4,0-0.8,0-1.1
	c0-0.6,0.1-1.3,0.1-1.9c0-0.6,0-1.2,0.1-1.8c0-0.7,0-1.3,0-2c0-0.6,0.1-1.3,0.1-1.9v-2.5c0-0.3,0-0.6-0.1-0.9c0-0.3-0.1-0.6-0.3-0.9
	c-0.3-0.6-0.7-1.1-1.3-1.4c-0.3-0.2-0.6-0.3-0.8-0.4c-0.3-0.1-0.6-0.1-0.9-0.2c-0.4-0.1-0.9-0.1-1.3,0c-0.4,0.1-0.8,0.2-1.3,0.3
	c0,0.1,0.1,0.2,0.1,0.3c0,0.1,0,0.2,0.1,0.3c0,0.4,0,0.9,0,1.3c0,0.4,0,0.8,0,1.3c0,0.6,0,1.3,0,1.9c0,0.6,0,1.2-0.1,1.9v1.8
	c0,0.7-0.1,1.3-0.1,2c0,0.6,0,1.3-0.1,1.9c0,0.4,0,0.8,0,1.2c0,0.4,0,0.8-0.1,1.2c0,0.5,0,1,0,1.6c0,0.5-0.1,1-0.1,1.6v1.8
	c-0.2,0.2-0.3,0.4-0.5,0.6c-0.5,0.8-1.1,1.6-1.7,2.2c-0.1,0.1-0.3,0.2-0.4,0.4c-0.1,0.1-0.3,0.3-0.5,0.4c0-0.1-0.1-0.2-0.1-0.3
	c0-0.1-0.1-0.2-0.1-0.2l-0.5-1.3c-0.1-0.3-0.2-0.6-0.4-0.8s-0.3-0.5-0.4-0.8c-0.1-0.3-0.3-0.6-0.4-0.9c-0.1-0.3-0.3-0.5-0.4-0.8
	c-0.2-0.3-0.3-0.6-0.5-1c-0.1-0.3-0.3-0.6-0.5-1c-0.1-0.2-0.2-0.4-0.3-0.6c-0.1-0.2-0.2-0.4-0.3-0.6c-0.1-0.2-0.2-0.4-0.2-0.5
	c-0.1-0.2-0.2-0.3-0.2-0.5c0-0.1,0-0.2,0.1-0.3c0.2-0.4,0.4-0.7,0.6-1.1c0.2-0.3,0.4-0.7,0.6-1.1c0.4-0.6,0.6-1.3,0.5-2.2
	c-0.1-0.7-0.4-1.3-0.9-1.7c-0.6-0.6-1.5-0.9-2.5-0.9c-0.5,0-0.9,0.1-1.3,0.2c-0.8,0.3-1.5,0.8-2,1.6c-0.6,0.9-0.9,2-1,3.3
	c0,0.3,0,0.6,0,0.9c0,0.3,0.1,0.6,0.2,0.9c0.1,0.3,0.2,0.5,0.2,0.8c0.1,0.2,0.2,0.5,0.3,0.7c0.1,0.2,0.1,0.4,0.2,0.5
	c0,0.1,0.1,0.3,0.2,0.5c0,0.2,0,0.3-0.1,0.4l-0.4,1.1c-0.1,0.3-0.2,0.6-0.4,0.9c0,0.1-0.1,0.1-0.1,0.2c-0.1,0.1-0.1,0.1-0.2,0.2
	c-0.2,0.5-0.4,1-0.5,1.3c-0.2,0.4-0.3,0.9-0.5,1.2c-0.1,0.4-0.3,0.8-0.4,1.2c-0.2,0.5-0.3,1-0.5,1.4c-0.1,0.5-0.3,0.9-0.5,1.4
	c-0.2,0.3-0.3,0.6-0.4,0.9c-0.1,0.3-0.3,0.6-0.4,0.9c-0.2,0.4-0.4,0.9-0.6,1.3c-0.2,0.4-0.5,0.8-0.8,1.2c-0.5,0.9-1.1,1.6-1.7,2.1
	c-0.2,0.2-0.3,0.3-0.5,0.5c-0.1,0.2-0.3,0.3-0.5,0.4c-0.3,0.2-0.6,0.4-0.8,0.5c-0.3,0.2-0.6,0.3-0.9,0.4c-0.5,0.2-0.9,0.2-1.3,0.1
	c-0.5-0.2-0.8-0.5-1-0.8c-0.2-0.3-0.3-0.6-0.4-0.9c-0.1-0.3-0.2-0.6-0.2-0.9c-0.1-0.3-0.2-0.6-0.2-0.9l-0.2-1.3
	c0-0.2-0.1-0.3-0.1-0.5c0-0.2,0-0.3,0-0.5v-1.9c0,0,0-0.1,0.1-0.2c0.8-0.3,1.5-0.6,2-1c0.4-0.2,0.7-0.4,1.1-0.6
	c0.3-0.2,0.7-0.4,1.1-0.6c0.5-0.3,0.9-0.7,1.4-1c0.4-0.4,0.8-0.8,1.1-1.3c0.7-1,1.1-2,1.3-3.3c0-0.4,0-0.7,0-1.1
	c0-0.4-0.1-0.7-0.2-1.1c-0.1-0.6-0.3-1-0.6-1.4c-0.6-1-1.4-1.8-2.5-2.5c-0.3-0.2-0.6-0.3-0.9-0.4c-0.3-0.1-0.6-0.2-0.9-0.2
	c-0.4,0-0.7,0-1.1,0c-0.4,0-0.7,0.1-1,0.2c-0.3,0.1-0.6,0.2-0.8,0.2c-0.3,0.1-0.5,0.2-0.8,0.2c-0.2,0.1-0.4,0.2-0.6,0.3
	c-0.2,0.1-0.4,0.2-0.6,0.4c-1,0.6-1.8,1.4-2.4,2.3c-0.4,0.6-0.8,1.1-1.1,1.7c-0.3,0.6-0.5,1.2-0.7,1.9c-0.2,0.4-0.3,1-0.4,1.6
	c-0.1,0.3-0.1,0.6-0.2,0.9c0,0.3-0.1,0.6-0.1,0.9c0,0.3-0.1,0.6-0.1,0.8s0,0.5,0,0.8c0,0.5,0,1,0.1,1.5c0,0.3,0.1,0.5,0.1,0.8
	l-0.8,2.1c-0.1,0.3-0.2,0.5-0.4,0.8c-0.1,0.2-0.2,0.5-0.4,0.8c-0.2,0.6-0.5,1.2-0.8,1.7l-0.5,1.1c-0.1,0.2-0.3,0.3-0.4,0.4
	c-0.4,0.2-0.6,0.1-0.7-0.3c0-0.1-0.1-0.2-0.1-0.4c0-0.4,0.1-0.8,0.1-1.1c0-0.4,0-0.7,0.1-1.1c0-0.4,0.1-0.9,0.1-1.3
	c0-0.4,0-0.8,0.1-1.3c0-0.4,0.1-0.9,0.1-1.3c0-0.4,0-0.8,0.1-1.2c0-0.3,0.1-0.6,0.1-0.9c0-0.3,0-0.6,0-0.8c0-0.2,0.1-0.5,0.1-0.7
	s0-0.5,0-0.7c0-0.4,0.1-0.8,0.1-1.2c0-0.4,0-0.8,0.1-1.2c0-0.4,0.1-0.7,0.1-1.1c0-0.4,0-0.8,0-1.2c0-0.4,0-0.8-0.2-1.3
	c-0.1-0.3-0.2-0.5-0.3-0.7c-0.1-0.2-0.3-0.4-0.5-0.6c-0.5-0.6-1.1-0.9-1.8-1c-0.4-0.1-0.8-0.1-1.2-0.1c-0.6,0.1-1,0.2-1.4,0.5
	c-0.2,0.1-0.4,0.3-0.6,0.4c-0.2,0.1-0.4,0.3-0.6,0.4c-0.6,0.5-1.2,0.7-1.7,0.8c-0.1,0.1-0.2,0.1-0.4,0c0-0.1,0-0.2,0-0.3
	c0-0.1,0-0.2,0-0.3c0-0.2,0.1-0.4,0.1-0.6c0-0.2,0-0.4,0-0.6c0-0.4-0.1-0.8-0.2-1.2c-0.2-0.6-0.7-1-1.4-1.2
	c-0.2-0.1-0.3-0.1-0.5-0.1c-0.2,0-0.3,0-0.5,0c-0.3,0-0.6,0.1-0.9,0.2c-0.3,0.1-0.5,0.3-0.7,0.5c-0.5,0.5-0.8,1-1,1.6
	c-0.1,0.2-0.1,0.4-0.1,0.8c0,0.2,0,0.4,0.1,0.7c0.1,0.5,0.2,0.9,0.4,1.3c0.3,0.6,0.7,1,1.3,1.3c0.2,0.1,0.3,0.3,0.3,0.4
	c0,0.2,0,0.5,0,0.7c0,0.2-0.1,0.5-0.2,0.7c-0.2,0.3-0.3,0.6-0.3,0.8c0,0.2-0.1,0.3-0.1,0.5c-0.1,0.2-0.2,0.5-0.4,0.7
	c-0.8,1.3-1.7,2.3-2.8,3.1c-0.1,0.1-0.2,0.1-0.2,0.2c-0.1,0-0.1,0.1-0.2,0.1c0,0-0.1-0.1-0.1-0.1c-0.2-0.6-0.5-1.1-0.7-1.6
	c-0.2-0.5-0.5-1-0.8-1.5c-0.6-1-1.3-1.9-2-2.7c-0.1-0.1-0.1-0.2-0.1-0.4c0-0.4,0.1-0.7,0.1-1.1s0-0.7,0-1.1v-2.8
	c0-0.2,0-0.5-0.1-0.9c0.2-0.1,0.4-0.1,0.5-0.2c0.1,0,0.3-0.1,0.5-0.2c0.6-0.3,1.2-0.7,1.7-1.1c0.5-0.4,0.9-0.9,1.3-1.5
	c0.3-0.4,0.5-0.9,0.7-1.4c0.1-0.5,0.2-1,0.3-1.6c0-1.1-0.2-2.3-0.6-3.4c-0.3-0.6-0.6-1-1.1-1.4c-0.4-0.4-0.9-0.7-1.5-1.1
	c-0.5-0.3-1.1-0.4-1.7-0.4c-0.3,0-0.6,0.1-0.9,0.2c-0.3,0.1-0.6,0.2-0.9,0.2c-0.7,0.3-1.3,0.8-1.7,1.3c-0.4,0.6-0.8,1.2-1.1,1.9
	c-0.3,0.7-0.5,1.4-0.6,2.2c0,0.2-0.1,0.4-0.1,0.6c0,0.2-0.1,0.5-0.1,0.7c0,0.4-0.1,0.8-0.1,1.2c0,0.4,0,0.8,0,1.2c0,0.3,0,0.6,0,0.9
	c0,0.3,0,0.5,0,0.8v2c0,0.8,0.1,1.5,0.1,2.3c0,0.7,0,1.5,0.1,2.3c0,0.2-0.1,0.3-0.2,0.5c-0.3,0.3-0.5,0.7-0.7,1.3
	c-0.1,0.4-0.2,0.9-0.1,1.2c0,0.4,0.1,0.8,0.2,1.2c0.1,0.4,0.1,0.9,0.1,1.4c0,0.3,0,0.6-0.1,0.8c0,0.3-0.1,0.6-0.1,0.9
	c-0.1,0.8-0.1,1.6-0.2,2.4c0,0.8-0.1,1.6-0.1,2.4c0,1.3-0.1,2.7-0.1,4C178.8,225.5,178.9,226.8,179,228.2z M233.5,218.8
	c0,0.1,0.1,0.2,0.1,0.2c0,0.1,0.1,0.2,0.1,0.2l0.4,0.9c0.1,0.5,0.2,1,0.1,1.4c0,0.2-0.1,0.4-0.1,0.6c0,0.2-0.1,0.4-0.2,0.5
	c-0.2,0.3-0.5,0.5-0.7,0.6c-0.2,0.1-0.4,0.1-0.7,0c-0.2-0.1-0.4-0.2-0.5-0.4c-0.1-0.3-0.1-0.5-0.1-0.7c-0.1-0.3-0.1-0.6,0-0.9
	c0-0.2,0.1-0.5,0.2-0.8c0.2-0.2,0.3-0.4,0.5-0.6c0.1-0.2,0.3-0.4,0.5-0.6c0.1-0.1,0.2-0.2,0.2-0.2
	C233.3,219,233.4,218.9,233.5,218.8z M231.1,198.4c0.2-0.2,0.4-0.3,0.8-0.2c0.7,0.1,1.2,0.4,1.4,0.9c0.2,0.3,0.2,0.6,0.1,1
	c-0.1,0.3-0.2,0.5-0.3,0.8c-0.1,0.2-0.3,0.5-0.4,0.7c-0.1,0.1-0.2,0.2-0.2,0.3c-0.1,0.1-0.1,0.2-0.2,0.4c-0.1-0.2-0.1-0.3-0.2-0.3
	c-0.2-0.3-0.4-0.6-0.5-0.8c-0.2-0.3-0.3-0.6-0.4-0.9c-0.2-0.4-0.2-0.7-0.2-1C230.8,198.8,230.9,198.5,231.1,198.4z M215.4,212.7
	c0-0.2,0-0.3,0.1-0.5c0-0.4,0.1-0.7,0.2-1c0.1-0.7,0.3-1.2,0.4-1.7c0.1-0.2,0.2-0.5,0.2-0.7c0.1-0.2,0.2-0.4,0.2-0.6
	c0.2-0.4,0.3-0.7,0.5-1c0.2-0.3,0.4-0.6,0.6-1c0.1-0.1,0.2-0.2,0.2-0.3c0.1-0.1,0.2-0.2,0.3-0.3c0.5-0.4,1-0.6,1.4-0.5
	c0.4,0,0.6,0.2,0.8,0.6c0.2,0.3,0.3,0.6,0.3,0.8c0,0.2,0,0.3,0.1,0.4c0,0.2,0,0.5-0.1,0.9c-0.1,0.2-0.2,0.5-0.2,0.7
	c-0.1,0.2-0.2,0.4-0.3,0.6c-0.3,0.6-0.8,1.3-1.4,1.9c-0.6,0.6-1.3,1.2-2.1,1.6c-0.2,0.1-0.4,0.2-0.6,0.3c-0.2,0.1-0.4,0.2-0.6,0.3
	c0,0-0.1,0-0.1,0c0,0-0.1,0-0.2,0C215.3,213,215.3,212.8,215.4,212.7z M193.7,203.7c0.1-0.1,0.2-0.2,0.1-0.2
	c0.2-0.2,0.4-0.4,0.5-0.4c0.2-0.1,0.4-0.1,0.5,0.2c0.1,0.2,0.1,0.5,0.1,0.8c0,0.2,0,0.4-0.1,0.6c0,0.2-0.1,0.4-0.2,0.6
	c-0.4,0-0.6-0.2-0.8-0.5c-0.1-0.2-0.2-0.4-0.2-0.6V203.7z M185.2,197.9c0-0.5,0-0.9,0.1-1.4c0-0.4,0.1-0.7,0.2-1.1
	c0.1-0.4,0.2-0.7,0.4-1.1c0,0,0-0.1,0-0.1c0,0,0,0,0-0.1c0.2-0.3,0.5-0.5,0.8-0.5c0.3,0,0.6,0.2,0.8,0.6c0.2,0.4,0.3,0.9,0.3,1.3
	c0,0.4,0,0.9-0.1,1.3c-0.1,0.4-0.2,0.8-0.4,1.2c-0.2,0.4-0.5,0.7-0.8,1c-0.3,0.3-0.7,0.5-1.1,0.7h-0.2c0-0.1,0-0.2,0-0.2
	c0-0.1,0-0.2,0-0.2C185.2,198.9,185.2,198.4,185.2,197.9z M184.5,214.1c0-0.3,0.1-0.6,0.1-0.9c0-0.3,0-0.5,0.1-0.8h0.1
	c0.5,0.8,0.9,1.7,1.3,2.5h-0.3c-0.2-0.1-0.4-0.2-0.5-0.2c-0.1-0.1-0.3-0.1-0.5-0.2C184.5,214.4,184.4,214.3,184.5,214.1z
	 M183.8,224.2c0-0.5,0.1-1.1,0.1-1.7c0-0.5,0.1-1,0.1-1.5c0-0.5,0-1,0.1-1.5c0-0.4,0.1-0.7,0.1-1.1c0-0.4,0-0.7,0.1-1.1
	c0.2,0.1,0.4,0.2,0.5,0.2c0.2,0.1,0.3,0.1,0.5,0.2c0.2,0.1,0.4,0.1,0.6,0.2c0.2,0,0.4,0.1,0.6,0.1c0.1,0,0.1,0,0.2,0
	c0,0,0.1,0,0.2,0c0.2,0,0.4,0.1,0.5,0.4c0.2,0.6,0.3,1.3,0.5,1.9c0.2,0.6,0.3,1.3,0.5,1.9c0.1,0.5,0.2,1,0.3,1.6
	c0.1,0.5,0.2,1,0.3,1.6c0.1,0.8,0.2,1.6,0.3,2.4c0.1,0.8,0.1,1.6,0.2,2.4c0,0.6,0.1,1.2,0.1,1.8c0,0.6,0,1.2-0.1,1.8
	c-0.1,1.2-0.3,2.4-0.7,3.5c-0.1,0.2-0.2,0.5-0.4,0.7c-0.2,0.2-0.4,0.5-0.6,0.7c-0.2,0.1-0.5,0.2-0.8,0.2c-0.3,0-0.6-0.1-0.8-0.2
	c-0.2-0.2-0.4-0.4-0.5-0.6c-0.1-0.2-0.3-0.5-0.4-0.7c-0.3-0.8-0.6-1.8-0.8-2.9c-0.1-0.4-0.1-0.9-0.2-1.3c0-0.4-0.1-0.9-0.2-1.3
	c0-0.4-0.1-0.9-0.1-1.3c0-0.4,0-0.9-0.1-1.3c0-0.6-0.1-1.1-0.1-1.7c0-0.5,0-1.1,0-1.7C183.8,225.3,183.8,224.7,183.8,224.2z
	 M135.5,261.5c15.3,17.2,36.3,27.4,56.2,27.4c11.1,0,21.3-3.2,29.4-9.3c8.8,8.2,21,12.6,34.5,12.6c18.2,0,37.3-8,52.5-21.8
	c28.8-26.3,35.4-66,14.7-88.7c-9-9.9-22.2-15.3-37.1-15.3c-5.8,0-11.8,0.8-17.8,2.4c-10.3-20-27.6-31.9-46.5-31.9
	c-16.6,0-32,9.2-42.6,25.3c-5.5-1.5-11-2.2-16.4-2.2c-12.6,0-23.7,4.1-32.3,11.7C107.1,192.2,109.5,232.4,135.5,261.5z M285.7,174.3
	c12.7,0,23.8,4.5,31.3,12.7c17.7,19.4,11.3,54.2-14.2,77.5c-13.8,12.6-31,19.8-47.2,19.8c-9.4,0-17.9-2.4-24.8-7.1
	c26.2-5.7,46.2-35.3,46.2-69.6c0-10.9-2-21.7-5.8-31.4C276,175,280.9,174.3,285.7,174.3z M183.1,170.3c0.6-1.1,1.3-2.3,2.1-3.4
	c9.1-14,22.3-22,36.2-22c16.1,0,31,10.6,39.9,28.4c0.6,1.1,1.1,2.3,1.7,3.6c4,9.3,6.1,20,6.1,30.7c0,32.3-18.4,59.1-42.8,62.4
	c-1.1,0.1-2.1,0.2-3.2,0.3l-0.1-0.1l-1,0.1c-0.4,0-0.8,0-1.1,0l-0.9-0.1l-0.1,0.1c-0.9,0-1.8-0.1-2.7-0.2
	c-24.4-2.8-43.4-30.3-43.4-62.5C173.7,194.1,176.9,181.2,183.1,170.3z M135.2,177.7c7.1-6.4,16.5-9.7,27.1-9.7c4,0,8.2,0.5,12.3,1.4
	c-5.8,11.4-8.8,24.5-8.8,38.2c0,34.1,18.9,62.8,44.7,69.3c-5.6,2.7-12,4.2-18.8,4.2c-17.6,0-36.4-9.3-50.3-24.8
	C118.4,230.4,115.6,195.2,135.2,177.7z M127.9,224.8c0.3-0.3,0.6-0.6,0.9-0.8c6.5-5.1,16.2,2.6,21.7,11.6c-0.9-3.3-1.5-6.7-1.5-10
	c-0.6-0.7-1.2-1.7-1.5-2c-1.1-0.9-2.8-0.7-4-1.5c-1.3-0.8-2.3-2.2-2.8-3.7c-0.2-0.5-1.5-5,0.3-4.6c0,0,0.1,0,0.1,0.1
	c2.1,0.3,3.8,1.8,4.9,3.5c1.1,1.6,0.8,4,2.3,5.3c0.1,0.1,0.4,0.4,0.8,0.8c0.2-4.5,1.4-8.7,3.9-12.4c1.7-2.5,7.5-9.3,11-5.4
	c1.7,1.9,1.4,4.7-0.5,6.4c-1,0.9-2.1,1.1-3.3,1.1c-0.7,0-1.1,0-1.6-0.6c-0.2-0.4-0.4-1,0.1-1.3c0.5-0.3,1,0.1,1.4,0.3
	c0.6,0.3,1.2,0.1,1.9-0.1c1.3-0.5,1.5-1.2,1.1-2.6c-0.3-1-0.9-2.1-2.1-2.1c-2.7,0.1-5.1,2.5-6.4,4.6c-3,4.9-3.6,9.8-3.4,15.3
	c0.6-0.8,1.5-1.6,1.6-2.2c0.2-0.8-0.1-1.4,0.2-2.2c1.1-2.8,4.8-3.5,7.6-3.5c0.5,0,0.7,0.7,0.3,1c-0.3,0.2-1,1.7-1.2,2.1
	c-0.3,0.5-0.4,1-0.7,1.4c-0.8,0.9-2.5,1.7-3.6,2c-0.6,0.1-1.2-0.2-1.7,0.1c-1.1,0.6-1.3,2.2-2.4,2.9c0.2,3.8,0.9,7.5,2,11
	c0.3-0.8,1-1.4,1.1-2.3c0.1-1-0.2-2,0.1-3c0.6-1.9,3.7-5.9,6.6-5.3c0.2,0,0.5,0.1,0.5,0.4c-0.1,2.4-0.8,5.1-2.4,6.9
	c-1.2,1.4-3.5,0.9-4.3,2.8c-0.2,0.4-0.8,1.3-1.2,1.7c1,3,2.3,5.8,4,8.5c1.1-1.7,0.1-1.4,1.2-3.4c0.8-1.5,3-4.7,4.9-4.9
	c0.6-0.1,0.8,0.2,0.9,0.6c0.2,1.2-0.5,2.3-0.8,3.4c-0.1,0.5,0,1-0.2,1.4c-0.2,0.7-0.7,1.2-1.1,1.7c-1,1.5-2.6,1.2-3.5,1.1
	c-0.2,0-0.2-0.1-0.4-0.1c-0.2,0-0.6,0.5-0.8,0.6c0.7,1.1,1.4,2.2,2.2,3.2c0.2,0.3-0.2,0.6-0.4,0.4c-0.7-0.8-1.4-1.6-2-2.5
	c-0.2,0.1-0.4,0.1-0.5,0.2c-0.4,0.3-0.2,0.2-0.2,0.6c0,0.9-0.9,1.4-1.6,1.7c-1.4,0.6-3.1,0.9-4.6,0.5c-2-0.5-2.8-2.7-3-4.5
	c0-0.3,0.2-0.4,0.5-0.3c2.1-1.2,5.2-0.3,6.8,0.6c0.5,0.3,1.1,0.9,1.8,0.8c0.2,0,0.4-0.1,0.6-0.1c-1.3-1.9-2.6-4-3.7-6.2
	c-0.1,0-0.2-0.1-0.2-0.2c-2.4-4.8-5-9.1-8.8-13c-3.9-4-10.5-8.8-15.2-5.8c-3.4,2-1.4,7.9,2.5,6.5c0.8-0.3,1.3-0.8,1.4-1.2
	c0.1-0.4-0.1-0.7-0.2-0.9c-0.1-0.2-0.1-0.2-0.3-0.3c-0.4-0.5-0.3-1.2,0.1-1.5c0.6-0.5,1.5-0.2,1.7,0.5c0.9,2.5-0.3,4.1-2.5,4.5
	C127.4,233.2,125.6,227.7,127.9,224.8z M283.6,212.2c-1.9-1.7-2.1-4.5-0.5-6.4c3.5-3.9,9.3,3,11,5.4c2.5,3.7,3.7,7.9,3.9,12.4
	c0.3-0.4,0.6-0.6,0.8-0.8c1.4-1.4,1.2-3.7,2.3-5.3c1.1-1.7,2.9-3.2,4.9-3.5c0,0,0.1,0,0.1-0.1c1.8-0.5,0.4,4,0.3,4.6
	c-0.4,1.5-1.5,2.8-2.8,3.7c-1.2,0.8-2.9,0.5-4,1.5c-0.3,0.2-0.9,1.3-1.5,2c0,3.3-0.6,6.7-1.5,10c5.5-9,15.2-16.8,21.7-11.6
	c0.3,0.3,0.6,0.5,0.9,0.8c2.3,2.8,0.5,8.4-4.3,7.5c-2.2-0.4-3.4-2-2.5-4.5c0.2-0.7,1.1-1,1.7-0.5c0.5,0.4,0.5,1.1,0.1,1.5
	c-0.1,0.2-0.1,0.2-0.3,0.3c-0.1,0.2-0.3,0.5-0.2,0.9c0.1,0.4,0.5,1,1.4,1.2c3.9,1.4,6-4.4,2.5-6.5c-4.7-3-11.3,1.8-15.2,5.8
	c-3.8,3.9-6.4,8.2-8.8,13c0,0.1-0.1,0.1-0.2,0.2c-1.1,2.2-2.3,4.3-3.7,6.2c0.2,0,0.4,0.1,0.6,0.1c0.7,0.1,1.2-0.5,1.8-0.8
	c1.5-0.9,4.7-1.8,6.8-0.6c0.2-0.1,0.5,0.1,0.5,0.3c-0.2,1.9-1,4-3,4.5c-1.5,0.4-3.2,0.1-4.6-0.5c-0.8-0.3-1.6-0.8-1.6-1.7
	c0-0.4,0.2-0.3-0.2-0.6c-0.2-0.1-0.4-0.2-0.5-0.2c-0.6,0.9-1.3,1.7-2,2.5c-0.2,0.2-0.6-0.1-0.4-0.4c0.8-1,1.5-2.1,2.2-3.2
	c-0.1-0.1-0.6-0.6-0.8-0.6c-0.2-0.1-0.2,0.1-0.4,0.1c-0.9,0.1-2.5,0.4-3.5-1.1c-0.4-0.6-0.9-1-1.1-1.7c-0.1-0.5-0.1-1-0.2-1.4
	c-0.3-1.1-1-2.3-0.8-3.4c0.1-0.4,0.3-0.7,0.9-0.6c1.9,0.2,4.1,3.4,4.9,4.9c1.1,2.1,0.1,1.7,1.2,3.4c1.6-2.7,3-5.6,4-8.5
	c-0.5-0.4-1.1-1.3-1.2-1.7c-0.8-2-3.1-1.4-4.3-2.8c-1.6-1.8-2.3-4.5-2.4-6.9c0-0.3,0.2-0.4,0.5-0.4c2.9-0.6,6,3.4,6.6,5.3
	c0.3,1,0,2,0.1,3c0.1,0.8,0.8,1.5,1.1,2.3c1.1-3.5,1.8-7.2,2-11c-1-0.7-1.3-2.3-2.4-2.9c-0.6-0.3-1.1,0.1-1.7-0.1
	c-1.2-0.3-2.8-1.1-3.6-2c-0.4-0.4-0.5-1-0.7-1.4c-0.2-0.4-0.8-1.9-1.2-2.1c-0.4-0.2-0.2-1,0.3-1c2.7,0,6.4,0.7,7.6,3.5
	c0.3,0.8,0.1,1.5,0.2,2.2c0.1,0.6,1,1.4,1.6,2.2c0.2-5.5-0.4-10.4-3.4-15.3c-1.3-2.2-3.7-4.5-6.4-4.6c-1.2-0.1-1.8,1.1-2.1,2.1
	c-0.4,1.3-0.2,2,1.1,2.6c0.7,0.3,1.2,0.4,1.9,0.1c0.4-0.2,0.9-0.6,1.4-0.3c0.5,0.3,0.4,0.9,0.1,1.3c-0.4,0.7-0.9,0.7-1.6,0.6
	C285.7,213.3,284.6,213,283.6,212.2z M208,236.3l-3.7,2.7l1.4,4.4l-3.7-2.7l-3.7,2.7l1.4-4.4l-3.7-2.7h4.6l1.4-4.4l1.4,4.4H208z
	 M246.5,236.3l-3.7,2.7l1.4,4.4l-3.7-2.7l-3.7,2.7l1.4-4.4l-3.7-2.7h4.6l1.4-4.4l1.4,4.4H246.5z M224.4,231.3
	c1.7,1.9,1.3,7.1,0.7,9.4c-0.8,2.9-3.1,5.8-4.9,8.1c-0.7,0.9-1.5,1.7-2.2,2.5c-0.3,0.3-0.6,0.6-0.9,0.9c0,0-0.7,0.8-0.7,0.6
	c-0.1-1,0.5-1.8,0.6-2.8c0.1-1-0.2-2.1-0.6-3.1c-0.7-2.3-1.9-4.3-2.8-6.5c-0.8-1.9-2.2-6-0.6-8c1.7-2.1,3.7-0.8,4.8,1.1
	c0.2,0.3,0.4,1,0.6,1.4c0.2,0.3,0.3,0.5,0.6,0.4c0.4-0.1,0.9-1,1.1-1.4c0.4-0.8,0.7-1.6,1-2.3C222,229.9,223.1,229.9,224.4,231.3z
	 M220,187.4c0,0-5.6-28.3,3-27.2C231.7,161.2,220.5,186.8,220,187.4z M225.3,189.8c0,0,5.8-19.6,10.8-16.1
	C241.2,177.2,225.8,189.6,225.3,189.8z M206.6,172c5.4-2.9,8.9,17.2,8.9,17.2C215.1,189,201.1,175,206.6,172z"/>
</svg>
