<?xml version="1.0" encoding="utf-8"?>
<!-- Generator: Adobe Illustrator 18.0.0, SVG Export Plug-In . SVG Version: 6.00 Build 0)  -->
<!DOCTYPE svg PUBLIC "-//W3C//DTD SVG 1.1//EN" "http://www.w3.org/Graphics/SVG/1.1/DTD/svg11.dtd">
<svg version="1.1" id="Layer_1" xmlns="http://www.w3.org/2000/svg" xmlns:xlink="http://www.w3.org/1999/xlink" x="0px" y="0px"
	 viewBox="0 0 432 432" enable-background="new 0 0 432 432" xml:space="preserve">
<path fill="#333333" d="M133.4,283.8c1.8,0.6,3.7,0.6,5.5,0.1c1.8-0.5,3.3-1.6,4.5-3.2c0.8-0.9,1.2-1.9,1.4-2.8
	c0.2-1,0.3-1.8,0.2-2.4c-0.1-0.5-0.3-0.9-0.8-1.3c-0.4-0.4-0.9-0.5-1.5-0.4c-4.1,0.5-7.8,0.2-11.1-0.9c-3.3-1.1-6.8-3.5-10.4-7.2
	c-3.6-3.7-7.5-8.8-11.8-15.3c-4.3-6.5-9.4-14.9-15.3-25.1c3.3-1.7,6.1-3.3,8.5-4.9c2.4-1.6,4.5-3,6.1-4.3c1.9-1.5,3.5-2.9,4.9-4.1
	c4.2-3.9,7.6-8,10.2-12.3c2.8,1.1,6.3,1.8,10.4,2.3c4.6,0.5,10.2,0.3,16.9-0.6c-0.9,6.3-1.6,12.5-1.9,18.7
	c-0.3,5.3-0.3,10.1-0.1,14.5c-0.1,0.2-0.1,0.5-0.2,0.7c-0.8,2.6-1.8,5-2.7,7.4c-1,2.3-2,4.3-3.1,5.9c-1.1,1.6-2.2,2.3-3.3,2.1
	c-0.8-0.1-1.3-0.8-1.5-2.1c-0.3-1.3-0.3-2.9-0.1-4.9c0.2-2,0.5-4.1,0.9-6.5c0.4-2.4,0.9-4.7,1.3-7.1c0.5-2.3,0.9-4.5,1.4-6.5
	c0.5-2,0.9-3.6,1.1-4.8c0.2-0.7,0.1-1.3-0.1-1.9s-0.6-1.1-1.1-1.6c-1.3-0.9-2.8-1.5-4.4-1.9c-1.6-0.3-3-0.5-4.2-0.5
	c-1.3-0.2-2.1,0.4-2.4,1.8c-1.8,6.2-2.9,11.9-3.6,17.1s-0.7,9.8-0.1,13.6c0.5,3.8,1.6,6.8,3.3,8.9c1.7,2.2,3.9,3.3,6.6,3.4
	c1.7,0.1,3.2-0.4,4.7-1.4c1.5-1,2.8-2.4,4-4.1c1.2-1.7,2.3-3.5,3.3-5.6c0.5-1,0.9-2,1.3-3c0.5,2.5,1,4.7,1.7,6.3
	c1.3,3,2.5,5.2,3.9,6.6c1.5,1.6,3.2,2.5,5,2.6c1.7,0.1,3.2-0.5,4.7-1.6c1.5-1.2,2.8-2.7,4.1-4.5c1.3-1.8,2.4-3.9,3.4-6.1
	c0.8-1.7,1.4-3.4,2-5c0.2,0.8,0.4,1.5,0.7,2.2c0.8,1.9,1.6,3.5,2.7,4.8c1,1.3,2.1,2.3,3.3,3.1c2.8,1.8,6,2.7,9.6,2.6
	c2.6,0,4.9-1,6.8-3.1c2-2,3.6-4.4,4.9-7.1c0.3-0.6,0.6-1.3,0.9-1.9c0.1,3,0.3,5.5,0.5,7.6c0.3,2.7,0.5,4.6,0.7,5.8
	c0.2,1,0.6,1.8,1.4,2.3c0.6,0.4,1.4,0.8,2.3,1.2c1,0.4,2,0.5,3.2,0.1c1.8-0.6,2.7-1.8,2.5-3.6h0.1c0.7-6.3,1.7-12.3,2.9-17.8
	c0.5-2.3,1.1-4.7,1.7-7c0.6-2.3,1.3-4.5,2-6.6c0.7-2.1,1.5-3.9,2.4-5.5c0.9-1.6,1.8-2.8,2.8-3.6l0.5-0.2c0.2-0.1,0.6,0,1,0.2
	c0.5,0.5,0.6,1.8,0.2,4c-1,5-1.5,9.6-1.6,13.9c-0.1,4.3,0.2,7.9,1,11.1c0.7,3.1,1.9,5.6,3.5,7.4c1.6,1.8,3.6,2.8,6,2.9
	c1.7,0.1,3.2-0.3,4.6-1.3c1.4-0.9,2.7-2.1,3.9-3.7c1.2-1.5,2.2-3.2,3.1-5.1c0.5-1,1-2.1,1.4-3.1c0.2,0.9,0.5,1.8,0.8,2.6
	c0.8,1.9,1.6,3.5,2.7,4.8c1,1.3,2.1,2.3,3.3,3.1c2.8,1.8,6,2.7,9.6,2.6c2.6,0,4.9-1,6.8-3.1c2-2,3.6-4.4,4.9-7.1
	c0.3-0.7,0.7-1.4,1-2.1c0.4,1.7,0.9,3.2,1.8,4.5c0.4,0.5,1.1,1.1,1.9,1.8c0.9,0.7,2.1,1.1,3.8,1.1c1,0,1.9-0.1,2.6-0.4
	c0.7-0.3,1.3-0.6,1.7-1.1c0.4-0.4,0.8-0.8,1-1.3c0.2-0.4,0.4-0.7,0.5-0.9c0.6-1.8,1.4-4.1,2.4-6.9c1-2.8,2.1-5.6,3.4-8.6
	c1.3-3,2.7-5.9,4.4-8.8c1.6-2.9,3.3-5.4,5.1-7.4c0.7-0.8,1.4-1.5,2.1-2c0.7-0.4,1.3-0.8,1.9-1.1c0.6-0.3,1.2-0.2,1.7,0.2
	c0.6,0.6,0.7,1.8,0.4,3.6c-0.3,1.8-0.9,4.1-1.8,6.9c-0.8,2.8-1.7,5.8-2.7,9.3c-1,3.4-1.8,7-2.4,10.6c-0.3,1.6-0.5,3.9-0.6,6.8
	c-0.2,3-0.1,5.9,0.3,8.9c0.4,3,1.1,5.6,2.3,8c1.2,2.4,3,3.8,5.4,4.2c1.4,0.2,2.8,0.1,4.3-0.4c1.4-0.5,2.8-1.3,4.2-2.4
	c1.4-1,2.7-2.3,4-3.8c1.3-1.5,2.5-3,3.7-4.6c2.7-3.7,5.2-7.9,7.5-12.8c0.8-1.4,1.4-2.9,2.1-4.4c0.6-1.5,1.2-2.9,1.6-4.3
	c0.5-1.4,0.8-2.6,1.1-3.7c0.3-1.1,0.5-2,0.7-2.6c0.2-0.9,0-1.8-0.7-2.5c-0.3-0.2-0.5-0.3-0.6-0.4c-0.7-0.4-1.2-0.3-1.5,0.5
	c-0.4,1.3-1.1,3.2-2.1,5.9c-1,2.7-2.1,5.2-3.4,7.5c-1.5,2.8-3.1,5.6-4.7,8.3c-1.6,2.7-3.2,5-4.8,7.1c-1.6,2-3,3.6-4.3,4.6
	c-1.3,1-2.3,1.4-3.1,0.9c-0.5-0.2-0.8-0.9-1-1.9c-0.2-1-0.2-2.3-0.1-3.8c0.1-1.5,0.4-3.1,0.7-4.9c0.3-1.8,0.7-3.6,1.1-5.4
	c0.9-4.3,2.2-9.2,3.9-14.5c0.2-1.3,0.6-2.9,1-4.8c0.4-1.8,0.8-3.7,1-5.7c0.2-2,0.3-3.9,0.2-5.9c-0.1-2-0.4-3.7-1.1-5.3
	c-0.6-1.6-1.6-2.9-3-3.9c-1.4-1-3.3-1.6-5.7-1.7c-2.8-0.1-5.5,1-8,3.3c-2.5,2.3-4.8,5-6.9,8.3c-2.1,3.3-3.9,6.8-5.5,10.5
	c-1.6,3.7-2.9,7-3.9,9.8c0.3-2.1,0.6-4.2,1.1-6.3c0.5-2.1,0.9-4.1,1.4-5.9c0.5-1.9,1-3.6,1.4-5.1c0.5-1.5,0.9-2.7,1.2-3.6
	c0.4-1.3-0.1-2.4-1.5-3.3c-1.3-0.7-2.8-1.1-4.5-1.2c-1.7-0.1-3.1-0.2-4.3-0.2c-1.3,0.2-2.1,0.7-2.4,1.6c-0.5,1.4-1.2,3.6-2,6.4
	c-0.8,2.9-1.5,6-2.1,9.3c-0.2,0.9-0.3,1.7-0.4,2.6c-0.2,0.6-0.5,1.2-0.8,1.9c-0.9,2-1.9,4.1-2.9,6.2c-1.1,2.1-2.2,3.9-3.4,5.6
	c-1.2,1.6-2.3,2.5-3.3,2.7c-2.1,0.3-3.7,0-4.9-1.1c-1.2-1-2.1-2.4-2.8-4.1c-0.6-1.7-1-3.4-1.3-5.3c-0.2-1.9-0.3-3.5-0.3-4.8
	c2.3-0.2,4.3-0.9,6.2-2.2c1.9-1.3,3.4-2.9,4.7-4.7c1.3-1.8,2.1-3.8,2.7-5.9c0.5-2.1,0.7-4,0.4-5.8c-0.2-1.8-1-3.3-2.2-4.5
	c-1.2-1.2-2.9-2-5.2-2.1c-1.8-0.1-3.3,0.1-4.8,0.7c-1.4,0.5-2.7,1.3-3.7,2.3c-1.1,1-2,2.1-2.9,3.3c-0.8,1.3-1.5,2.5-2.1,3.9
	c-1.4,3.2-2.4,6.8-3,10.8c-0.2,1.8-0.3,3.5-0.4,5c0,0.1-0.1,0.1-0.1,0.2c-0.8,2.2-1.7,4.3-2.7,6.4c-1,2.1-2.1,4-3.2,5.5
	c-1.1,1.5-2.2,2.2-3.3,2.1c-0.6-0.1-1-0.5-1.2-1.3c-0.3-0.8-0.4-1.8-0.5-3.1c-0.1-1.3,0-2.8,0.1-4.4c0.2-1.6,0.4-3.4,0.6-5.2
	c0.1-0.7,0.2-1.4,0.3-2.2c0.1-0.8,0.2-1.5,0.3-2.2c0.1-0.8,0.2-1.7,0.2-2.5c0.3-2.5,0.3-5,0.2-7.6c-0.1-2.6-0.8-4.9-1.9-7
	c-0.7-1.3-1.6-2.3-2.6-2.8c-1-0.5-2-0.9-2.9-1.1c-1.1-0.2-2.2-0.2-3.3,0c-1.9,0.3-3.7,1.2-5.3,2.8c-1.6,1.6-3,3.5-4.2,5.8
	c-1.2,2.3-2.3,4.9-3.2,7.7c-0.9,2.8-1.7,5.6-2.3,8.4c0.2-6.2,0.5-11.5,0.9-15.9c0.4-4.5,0.8-7.9,1.3-10.3c8.9-0.8,17.4-3.6,25.3-8.4
	c8-4.8,14.9-11,20.8-18.6c2.9-3.8,5.3-7.7,7.1-11.9c1.8-4.2,3.2-8.4,4-12.6c0.8-4.2,1.2-8.3,1-12.3c-0.2-4-0.8-7.6-1.8-10.9
	c-1-3.3-2.6-6-4.6-8.3c-2-2.3-4.4-3.8-7.3-4.6c-4.3-1.3-8.9-1-13.9,0.7c-5,1.7-9.9,5.1-14.8,10.1c-4.8,5-9.3,11.8-13.4,20.4
	c-4.1,8.5-7.3,19-9.8,31.4c0,0.2-0.1,0.4-0.1,0.6c-1.8,0.5-3.7,1.1-5.7,1.6c-4,1.2-8.2,2.4-12.6,3.6c-1.1,0.3-2.2,0.6-3.2,0.9
	c-0.1-1-0.1-2,0-2.8c0.1-0.8-0.1-1.5-0.7-2.1c-0.5-0.6-1.2-0.9-1.9-1c-0.9-0.1-1.9-0.1-3.1-0.1c-1.1,0-2.2,0.2-3.2,0.6
	c-1,0.4-1.9,1-2.6,1.8c-0.7,0.8-1.1,1.9-1.2,3.3c-0.1,1.2,0.2,2.4,0.7,3.5c-3.8,1-7.4,1.8-11,2.6c0.7-3.3,1.3-6.3,1.9-8.8
	c0.6-2.5,1.1-4.5,1.5-5.9c0.2-0.8,0.3-1.5,0.1-2.3c-0.2-0.8-0.6-1.4-1.3-1.9c-1.2-1.2-2.6-1.9-3.9-2.2c-1.4-0.3-2.5-0.4-3.4-0.4
	c-1.2,0-2,0.5-2.4,1.6c-0.9,2.9-1.8,6.3-2.7,10c-0.9,3.8-1.7,7.8-2.4,12c-1.4,0.2-2.8,0.3-4.2,0.4c-1.4,0.1-2.6,0.2-3.8,0.2
	c-4.1,0-7.5-0.4-10.3-1.3c-2.5-0.8-4.5-1.8-6.1-2.9c1.7-3.7,3-7.3,3.9-10.7c1.3-4.7,1.9-8.9,2-12.6c0.1-3.7,0-6.3-0.2-8
	c-0.2-0.8-0.4-1.6-0.7-2.6c-0.3-1-0.6-1.8-0.9-2.3c-0.8-1.3-1.7-2.3-2.8-3c-1.1-0.7-2.3-1.1-3.5-1.2c-1.2-0.2-2.4-0.1-3.6,0.1
	c-1.2,0.2-2.4,0.5-3.4,0.9c-0.7,0.2-1.1,0.8-1.3,1.5c-0.2,0.8-0.1,1.4,0.4,2c1.3,1.5,2.3,3.9,3,7.1c0.7,3.2,0.9,6.9,0.6,11
	c-0.1,1.7-0.4,3.4-0.7,5.2c0,0,0,0,0,0h-1.3c-1.4,0.1-2.7,0.4-3.8,1c-1.1,0.6-1.9,1.4-2.6,2.3c-0.6,1-1,2-1.1,3.1
	c-0.1,1.1,0.1,2.3,0.6,3.4c0.7,1.6,1.9,3.2,3.4,4.9c-1.1,2.2-2.4,4.4-3.8,6.6c-2.2,3.2-4.7,6.1-7.7,8.8c-3,2.7-6.3,5.1-10.1,7.3
	c0.5-7.3,1.1-14.1,1.8-20.6c0.7-6.5,1.4-12.4,2.2-17.6c0.8-5.3,1.5-9.7,2.1-13.4c0.7-3.7,1.2-6.4,1.5-8.1c0.2-1.5-0.2-2.8-1.3-3.9
	c-1.1-1.2-2.3-1.9-3.6-2.3c-1.3-0.3-2.5-0.4-3.7-0.3c-1.2,0.2-2.1,0.7-2.9,1.6c-0.8,0.9-1.2,1.9-1.4,3.1c-2,9.8-3.6,19.3-4.8,28.4
	c-1.2,9.1-2,17.9-2.6,26.2c-1.8-2.3-3.6-4.4-5.6-6.1c-2-1.8-4.1-3.1-6.6-4c-1.7-0.7-3.5-1.1-5.6-1.4c-2-0.3-4.4-0.1-6.9,0.4
	c-3.4,0.8-5.9,2-7.4,3.8c-1.5,1.8-2.6,3.6-3.1,5.5c-0.6,2.2-0.7,4.5-0.2,7.1c1.1,4.8,3.6,8.3,7.4,10.6c3.9,2.3,8.8,3.6,14.8,3.9
	c2.3,0.2,4.4,0.2,6.4,0c2-0.2,4-0.4,5.8-0.8c-0.2,6.3-0.2,12-0.1,17.3c0.1,5.3,0.2,10,0.4,14.3c0.2,4.2,0.4,7.8,0.7,10.7
	c0.2,2.9,0.5,5.1,0.6,6.6c0.1,0.7,0.3,1.4,0.8,2c0.4,0.6,1,1.1,1.6,1.5c1.2,0.9,2.5,1.5,3.9,1.7c1.5,0.2,2.8,0,3.9-0.7
	c1.1-0.5,1.9-1.3,2.4-2.4c0.5-1.1,0.7-2.2,0.6-3.4c-0.9-6.9-1.5-13.9-1.9-20.9c-0.3-7-0.4-14.1-0.3-21.1c2.9,4.8,5.6,9.2,8.2,13.3
	c2.5,4.1,5,8,7.3,11.6c2.7,4.1,5.2,7.5,7.6,10.4c2.4,2.8,4.6,5.2,6.6,7c2,1.8,3.9,3.3,5.6,4.3C130.5,282.7,132.1,283.4,133.4,283.8z
	 M261.9,219.9c0.7-1.8,1.4-3,1.9-3.9c0.6-0.8,1.1-1.4,1.6-1.6c0.5-0.2,0.8-0.3,0.9-0.3c0.2-0.1,0.5,0,0.9,0.2
	c0.3,0.2,0.6,0.6,0.7,1.2c0.2,0.6,0.2,1.3,0,2.3c-0.2,0.9-0.7,2.1-1.5,3.5c-1,1.7-2.1,3-3.3,3.9c-1.2,0.9-2.3,1.6-3.2,2
	C260.5,224.1,261.2,221.7,261.9,219.9z M220,187.1c1.2-0.1,2.3-0.2,3.3-0.2c3.3,0,5.1,1.1,5.3,3.4c0.1,0.9,0.4,1.6,0.9,2
	c0.5,0.4,1,0.7,1.5,0.9c0.6,0.2,1.2,0.4,2,0.4c1.7,0.1,3.2-0.1,4.6-0.6c1.4-0.5,2.4-1.1,3.1-1.9c0.7-0.9,1-1.8,1.1-2.7
	c0-0.9-0.1-1.7-0.3-2.4c-0.3-0.9-0.8-1.8-1.4-2.5c-1.3-1.4-3.2-2.5-5.5-3.4c-2-0.7-4.6-1.1-7.9-1.3c-1.4-0.1-3,0-4.8,0.2
	c0.7-2.9,1.4-5.6,2.2-8.2c2.5-8.4,5-15.5,7.6-21.4c2.6-5.8,5.2-10.5,7.8-14.1c2.6-3.5,5.1-6.3,7.6-8.1c2.4-1.9,4.7-3,6.8-3.5
	c2.1-0.5,3.8-0.5,5.3-0.2c2.2,0.5,4,2,5.6,4.5c1.5,2.5,2.6,5.6,3.3,9.3c0.6,3.7,0.7,7.8,0.3,12.3c-0.4,4.5-1.5,9-3.3,13.6
	c-1.6,4.2-3.9,8.3-6.8,12.5c-3,4.2-6.5,8-10.6,11.4c-4.1,3.5-8.7,6.4-13.8,8.8c-5.1,2.4-10.5,4-16.4,4.8
	C218.3,195.9,219.1,191.4,220,187.1z M208,189.1c-0.1,0.8-0.3,1.6-0.4,2.3c-0.5,3.3-1,6.4-1.4,9.4c-4.4-0.3-7.9-1.1-10.4-2.4
	c-2.5-1.3-4.4-2.6-5.6-4.2c-0.2-0.3-0.4-0.5-0.6-0.8C196.7,191.7,202.7,190.3,208,189.1z M158.8,234c0.2-3.5,0.6-7.3,1.1-11.3
	c0.5-4,1.1-8,1.8-12c0.7-4,1.4-7.9,2.1-11.6c5.6-1.1,10.8-2.2,15.9-3.3c1,0.9,2,1.7,3.1,2.4c2.3,1.5,5,2.9,8.1,4.3
	c5,1.9,9.9,3.1,14.6,3.6c-0.8,7.1-1.4,13.4-1.6,19.1c-0.1,2.2-0.1,4.3-0.2,6.3c-0.2,0.5-0.4,1-0.7,1.6c-0.8,2-1.8,4.1-2.9,6.2
	c-1.1,2.1-2.2,3.9-3.4,5.6c-1.2,1.6-2.4,2.5-3.4,2.7c-1.3,0.2-2.5,0.2-3.4-0.2c-1-0.4-1.8-1-2.4-1.8c-0.7-0.8-1.2-1.7-1.6-2.8
	c-0.4-1.1-0.8-2.2-1-3.4c-0.6-2.8-0.8-6-0.6-9.6c0.3-3.4,0.9-6.1,1.6-8.2c0.7-2,1.4-3.6,2.1-4.7c0.7-1.1,1.4-1.8,2-2.2
	c0.6-0.4,1-0.6,1.2-0.6c0.2-0.1,0.6,0.1,1.1,0.5c0.5,0.4,0.7,1.2,0.5,2.3c-0.1,0.2,0,0.5,0.1,0.9c0.2,0.7,0.6,1,1.4,1
	c0.8,0.2,1.6,0,2.5-0.5c0.9-0.5,1.4-1.2,1.5-2.1c0.2-2.3-0.2-4.4-1.5-6.1c-1.2-1.8-3.3-2.7-6-2.9c-1.8-0.1-3.3,0.1-4.8,0.7
	c-1.4,0.5-2.7,1.3-3.8,2.3c-1.1,1-2,2.1-2.9,3.3c-0.8,1.3-1.5,2.5-2.1,3.9c-1.4,3.2-2.4,6.8-3,10.8c-0.2,1.8-0.3,3.4-0.4,4.9
	c-0.1,0.3-0.2,0.6-0.3,1c-0.9,2.6-1.9,5.3-3.1,8c-1.2,2.7-2.4,5.1-3.6,7.2c-1.2,2.1-2.4,3.1-3.5,3.1c-1.4,0-2.5-0.8-3.2-2.4
	c-0.7-1.6-1.2-3.8-1.4-6.5C158.6,240.7,158.6,237.5,158.8,234z M81.1,220.9c0,0.7-0.1,1.4-0.1,2.1c-2.2,0.6-4.5,1.1-6.9,1.5
	c-2.6,0.3-5.2,0.4-7.9,0.2c-2.7-0.2-5.2-0.6-7.4-1.3c-2.2-0.7-4-1.7-5.4-3.1c-1.4-1.3-2.1-3-2.1-5c0-1.6,0.4-3,1.2-4.1
	c0.8-1.2,1.8-2.1,3.1-2.7c1.3-0.6,2.6-1,4.2-1.1c1.5-0.1,3.1,0,4.6,0.4c1.7,0.4,3.3,1.1,4.9,2c1.6,0.9,3.2,1.9,4.6,2.9
	c1.5,1,2.8,2.1,4.1,3.2c1.2,1.1,2.3,2,3.1,2.9C81.1,219.5,81.1,220.2,81.1,220.9z M134.8,210.1c-0.9-0.7-1.2-1.5-1.1-2.4
	c0.2-0.8,0.8-1.5,1.8-1.9c1-0.4,2.2-0.5,3.5-0.4c1.2,0.2,2.3,0.6,3.2,1.3c0.9,0.7,1.2,1.5,1.1,2.3c-0.2,0.9-0.8,1.6-1.8,2
	c-1,0.4-2.1,0.5-3.4,0.4C136.8,211.3,135.7,210.8,134.8,210.1z M48.9,132c0.1-3.9,8-4.7,10.7-5.2c6.1-1,11.8-2.4,18-3
	c8.9-0.8,17.8-1.8,26.7-2.7c8.7-0.8,17.5-0.5,26.1-1.4c16.9-1.7,34.6,0.2,51.5,1.6c16.7,1.4,33.8,3.5,50.6,6.7
	c-0.9,0.7-1.6,1.8-2.2,2.7c-0.6,1-1.5,1.8-2.2,2.8c-0.5,0.7-0.9,1.4-1.3,2.2c-17.6-1.9-35.2-1.5-53-0.9c-11.1,0.4-22.1,1.9-33.1,2.6
	c-13.1,0.8-26,3.1-38.7,6.3c-5.7,1.5-11.2,3.3-16.9,4.9c-3.5,1-6.7,2.2-10,3.4c-3.9,1.5-11.9,5.9-16,4.3c-0.3-1.3,1.5-2.7,2.5-3.2
	c1.4-0.8,3.2-1.4,4.4-2.2c2.9-2,5.9-5.8,7.4-8.9C77,135.1,52,132.8,48.9,132z M242.1,138.1c-1-0.2-2-0.3-2.9-0.5
	c1.9-2.2,3.9-4.3,5.3-6.8c0,0,0-0.1,0-0.1c4.1,0.9,8.2,1.9,12.3,3c3.5,0.9,7,1.5,10.4,2.4c0,1.1,0.2,2.1,0.4,3.2
	c0.2,0.9,0.3,1.9,0.3,2.9C259.3,140.7,250.6,139.7,242.1,138.1z M316.2,157.9c-7,0.7-13.7,2.6-20.5,4.2c-3.3,0.7-6.5,1.1-9.6,2.3
	c-2.9,1.1-6,2.2-9.1,2.1c-0.4-2.2,3.4-5.4,4.7-6.9c1.9-2.2,9.6-6.9,8.2-10.2c-1-2.5-6.3-3.2-8.5-4c-2-0.8-3.8-1.3-5.7-1.8
	c0-0.3,0.1-0.6,0.1-0.9c0-1.3-0.3-2.6-0.4-3.8c5.6,2.2,11.2,4.5,16.9,6.5c0.9-3.4,2.2-6.7,1.4-10.3c-0.1-0.6-2.7-10.7-2-10.4
	c5,2,8.8,9.1,11.7,13.4c2.4,3.4,4.6,6.7,6.6,10.3C311.2,151,316.1,155,316.2,157.9z M93.3,294.4c-4.2-1.1-9-1.8-13.2-1.8
	c-4.8,0.4-10.5-1.1-12.7,4.6c-1.5,4.2-0.9,9.2-0.9,13.4c0,7.9,0,15.6,0,23.3v31.4c0,4.6,0.4,12.5,0.2,17.3v0.2c0,4.4,2.9,9.9,7.7,9
	c11-2.4,21.9-6.8,29.9-15.1c2.6-2.6,4.8-5.5,6.6-8.6c0.7-1.3,1.1-2.6,1.8-4c3.3-7.9,6.1-15.4,6.4-23.9c0.2-8.3-1.3-16.9-4.6-24.6
	C110.2,306.1,104,297.3,93.3,294.4z M108.8,353.2c-4,12.3-13.4,25.9-26.6,29.2V375c0.2-7.2,0.7-14.5,0.7-21.9c0.2-6.1,0-12.5,0-18.9
	c0-10.5,0-23.5,0.2-34c0,0,5,0.9,9.2,2.9c4.6,2.2,8.8,7,11.9,11.2C112.3,325.4,113,340.3,108.8,353.2z M377.9,350.4
	c-2.6,3.5-5.3,8.1-7.7,11.6c-14.3,20.2-20.4,32-30.7,27.9c-6.8-2.4-7.9-14.5-5.7-21.9c6.8-0.2,12.7-4,17.6-9
	c5.3-5.7,7.2-12.5,4.6-20.2c-1.5-4.8-6.8-7.2-11.9-7.5c-8.1,0-15.4,5-20,14.3c-2.9,4.9-4.1,9.6-5.1,15.1l-21,22.6
	c-2.2,2.4-4.6,5.9-7.9,7c-3.3,1.3-5-0.4-5.5-4.2c-0.4-8.3-0.7-7.9,0-15.6c1.1-10.5,1.3-15.4,3.5-22.2c1.1-3.1,4.6-4.4,6.1-4.2
	c5.5,1.1,7.5,5.3,7.2,8.3c0,1.8-0.9,2.4,1.1,4.6c1.3,1.5,2.2-1.5,2.6-3.1c0.9-5.3-0.4-10.1-4.6-12.3c-4.8-2.6-14.3-2.4-18.7,0.9
	c-3.5,2.6-6.4,7.9-8.1,13c-0.6,1.5-1.1,3-1.4,4.4c-1.1,0.9-1.9,2.2-2.8,3.2c-6.4,7.9-12.1,15.4-20.6,21.5c0.7-5,0.9-10.1,1.1-15.1
	c0-4.4,0.7-8.8,0.7-13.2c0.4-7,0.7-14.7-7.7-16.5c-1.1-0.4-2.4-0.4-3.7,0.2c-1.1,0.4-1.8,1.3-2.6,2.2c-5.5,6.6-8.8,14.5-11,22.8
	c-1.8,6.8-3.1,13.6-4.6,20.4l-2,7.7c-0.9-0.9-1.5-5.9-1.8-7c-2-14-3.1-24.1-0.9-38.2c0.4-3.5-1.5-6.1-4.8-6.8
	c-2.6-0.4-5.5,1.5-6.4,4.4c-0.2,0.7-0.2,1.3-0.2,2c-0.5,2.9-0.7,5.9-0.9,8.8c-2.8,3.5-5.9,7.5-8.1,10.7l-1.1,1.3
	c-3.3,4.2-7.5,9.4-10.3,13.4c-5.5,7.9-11,16-16.2,24.1c0.4-3.1,1.1-6.1,1.8-9.2c1.5-6.1,2.9-12.3,4-18.7c0.7-3.1,1.3-6.1,1.8-9.2
	c0.4-2.4,0.2-5,0-7.5c-0.2-3.5-0.7-5-4.4-5c-0.2-2-0.7-2.9-1.5-5.3c-0.9-2.6-0.9-2.9-2.4-5c-1.5-2-3.1-5-6.8-5.9
	c-3.5-0.9-11-2.4-15.1-1.1c-6.1,2-7.7,4-10.5,6.4c-5.7,5.5-9.4,16.7-10.5,24.4c-0.7,5.9-0.2,13.4,3.1,18.2c1.8,2.6,4.4,6.1,8.8,6.8
	c6.8,0.7,12.3-9.2,14.5-13c2.2-4,4.8-9,7-13.2c1.8-3.5,7.2-12.9,7.7-12.9c-1.1,5.7-4,18.7-4.8,23.9c-1.5,7.5-1.8,11-3.1,17.8
	c-0.7,4.2-0.7,9.4-1.1,13.6c-0.2,3.3-1.5,8.6,0.7,11.4c1.1,1.3,3.3,2,5,1.5c3.3-1.3,5-6.1,6.8-8.8c2.2-3.7,4.4-7.7,6.8-11.2
	c5.9-9.2,13-18,19.3-26.8c2.8-4.3,5.7-8.7,8.9-13c0.1,4.3,0.4,8.7,0.8,13c0.7,8.6,3.5,16.9,6.4,25.2c1.3,3.7,4.4,5.5,7.9,5.3
	c1.3-0.2,2.9-0.7,3.3-2.2c0.9-4,2-8.1,2.6-12.1c2-14.9,6.1-30.9,8.6-37.3c2.2-5.9,6.4-12.3,6.1-11.2c-1.3,13.4-2.6,26.6-2.2,40.2
	c0.2,2.2,0.4,4.8,1.3,7c1.3,2.2,4.4,3.7,7,3.7c3.3,0.2,6.4-3.3,8.3-5.5c4.4-4.2,8.1-9,11.6-13.8c1.8-2.3,3.6-4.7,5.4-7
	c-0.3,8.4,1.5,16.6,7.8,22.8c2.9,2.6,7,3.5,10.8,2.4c5.7-1.5,10.1-7.2,14-11.2c4.8-4.6,9.6-9.1,14.2-13.9c0.2,8.3,3,17.9,10.6,22.4
	c9.9,5.9,21.1,3.7,28.8-4.2c4-4.4,9-12.7,18.4-26.8c0.7-0.9,5.9-8.8,6.4-9.9C383,349.1,380.6,346.7,377.9,350.4z M346.8,337.9
	c1.1-0.9,3.1-1.8,3.3-0.4c1.8,5.3,0.4,10.8-2.6,15.1c-3.3,5-7.5,7.2-13.2,10.8C336.7,351.1,341.9,341.6,346.8,337.9z M162.4,352.8
	l-6.6,9.7c-8.6,13.4-11.4,17.8-14.9,23.5c-0.4-0.9-2.9-2.4-3.3-7c-0.4-3.7-0.2-10.5,0.4-13.2c1.1-4.4,2.6-8.1,4.8-12.5
	c3.3-6.4,9.7-9.2,14.5-9.2c2.9,0,4.4,2.6,5,3.3C164.1,349.1,162.8,352.6,162.4,352.8z M59.3,103.5c-0.8-2.8-0.9-5.8-0.5-8.7
	c1-5,3-8.6,6-10.8c3-2.2,6.9-3.2,11.9-2.9c1.5,0.1,3,0.5,4.4,1.1c1.4,0.6,2.7,1.3,3.9,2.2c1.2,0.8,2.1,1.6,2.8,2.4
	c0.7,0.8,1.1,1.3,1.2,1.7c0.1,0.6,0,0.7-0.4,0.5c-0.4-0.2-0.9-0.5-1.7-0.8c-4-1-7.4-1.3-10-0.9c-2.6,0.4-4.7,1.1-6.2,2.3
	c-1.6,1.2-2.7,2.6-3.4,4.2c-0.7,1.6-1.3,3.1-1.6,4.5c-0.6,2.5-0.9,4.7-0.8,6.6c0.1,1.9,0.5,3.4,1,4.6c0.6,1.2,1.4,2.2,2.4,2.9
	c1,0.7,2.1,1.2,3.1,1.6c1.1,0.4,2.2,0.6,3.3,0.7c1.1,0.1,2.1,0.2,3,0.2c2.6,0,5.2-0.9,7.9-2.8c2.7-1.9,5.3-4.4,7.9-7.6
	c2.5-3.2,4.9-6.9,7.2-11.2c2.3-4.3,4.3-8.8,6.1-13.7c1.8-4.8,3.3-9.8,4.6-15c1.2-5.1,2.1-10.1,2.5-15c0.4-4.9,0.4-9.5,0-13.9
	c-0.4-4.4-1.4-8.3-2.9-11.6c-1-2.2-3-3.4-5.8-3.7c-1-0.1-2.7,0.1-4.9,0.6c-2.3,0.5-4.8,1.6-7.7,3.3c-1.7,1.1-3.3,2.3-5,3.6
	c-1.7,1.3-3.2,2.8-4.7,4.4c-1.4,1.6-2.6,3.4-3.4,5.3c-0.9,1.9-1.3,4-1.4,6.2c-0.1,2.2,0.4,4.6,1.5,7.1c1,2.5,2.7,5.2,5.1,8
	c1.4,1.5,2.4,2.4,3,2.8c0.3,0.4,0.5,0.7,0.7,0.9c0.2,0.2,0,0.4-0.6,0.4c-0.9,0.1-2.2,0-3.8-0.2c-1.6-0.2-3.4-0.7-5.2-1.4
	c-1.9-0.8-3.8-1.9-5.7-3.4c-1.9-1.5-3.6-3.5-4.9-6c-1.5-2.6-2.1-5.3-2-8.1c0.1-2.8,0.8-5.5,2.1-8.2c1.3-2.6,3-5.2,5.3-7.5
	c2.3-2.4,4.9-4.5,7.9-6.3c3-1.8,6.2-3.2,9.7-4.3c3.5-1.1,7.1-1.6,10.8-1.7c3.4-0.1,6.2,0.1,8.6,0.5c2.4,0.4,4.3,1.1,5.9,2
	c1.6,0.9,2.9,2.1,3.9,3.5c1.1,1.4,2,3.1,2.9,5c1,1.9,1.7,4.7,2.1,8.4c0.4,3.7,0.5,7.9,0.4,12.6c-0.1,4.7-0.6,9.8-1.5,15.3
	c-0.9,5.4-2.1,10.8-3.7,16.1c-1.6,5.3-3.6,10.4-6,15.3c-2.4,4.9-5.4,9.2-8.9,12.8c-3.5,3.7-7.4,6.5-11.9,8.7
	c-4.4,2.1-9.4,3.1-15,2.9c-3.3-0.1-6.2-0.9-8.9-2.3c-2.7-1.4-4.9-3.2-6.8-5.4C61.3,108.8,60,106.3,59.3,103.5z M125.9,70.4
	c-0.2-0.6,0.1-0.9,0.6-0.9c0.6,0,1.3,0.1,2.2,0.4c0.9,0.3,1.9,0.7,3.1,1.3c1.1,0.6,2.2,1.3,3.2,2c1,0.8,1.8,1.5,2.4,2.4
	c0.6,0.8,0.9,1.7,0.9,2.5c-0.1,0.5-0.2,1.2-0.4,2.3c-0.2,1.1-0.6,2.3-1,3.8c0.9-1.9,1.8-3.7,2.8-5.4c1-1.7,2.1-3.2,3.3-4.4
	c1.2-1.2,2.5-2.2,4-2.8c1.5-0.7,3.1-0.9,4.9-0.8c3.7,0.3,6.5,2.3,8.2,6c0.7,1.6,1,3.6,0.8,5.9c-0.2,2.3-0.6,4.7-1.2,7.1
	c-0.6,2.4-1.2,4.7-1.9,6.9c-0.7,2.2-1.1,4-1.4,5.4c-0.3,1.3-0.3,2.3,0,3c0.3,0.7,0.8,1.1,1.2,1.2c0.5,0.1,1.1,0,1.8-0.4
	c0.7-0.4,1.3-0.9,1.8-1.7c0.6-0.9,1.4-2,2.3-3.5c0.9-1.5,1.9-3,3-4.6c1-1.6,2-3.3,3-5c0.9-1.7,1.7-3.2,2.3-4.5
	c0.2-0.6,0.5-0.9,0.9-1c0.4-0.1,0.8-0.1,1.2,0.2c0.4,0.2,0.7,0.5,1,1c0.3,0.4,0.4,1,0.4,1.6c-0.8,2.2-1.7,4.7-2.9,7.3
	c-1.1,2.6-2.5,5.1-4,7.5c-1.6,2.3-3.2,4.3-5,5.9c-1.8,1.6-3.7,2.5-5.9,2.6c-3,0.1-5.6-0.7-7.8-2.4c-2.2-1.7-3.6-3.9-4.1-6.6
	c-0.3-1-0.3-2.4-0.1-4c0.3-1.6,0.6-3.4,1-5.3c0.4-1.9,0.9-3.8,1.3-5.8c0.4-1.9,0.8-3.7,1-5.3c0.2-1.6,0.2-2.9,0.1-3.8
	c-0.1-1-0.6-1.4-1.4-1.4c-0.9,0-2.1,0.6-3.4,1.8c-1.3,1.2-2.7,2.8-4,4.6s-2.6,3.9-3.7,6.1c-1.1,2.2-2,4.3-2.6,6.3l-3.2,11.2
	c-0.3,1-0.5,1.8-0.7,2.4c-0.1,0.6-0.3,1.1-0.4,1.4c-0.2,0.3-0.3,0.5-0.4,0.6c-0.1,0.1-0.3,0.2-0.5,0.2c-1.2,0-2.3-0.4-3.4-1.2
	c-1.1-0.8-2-1.7-2.7-2.7c-0.7-1-1.2-2.1-1.6-3.1c-0.3-1-0.4-1.8-0.2-2.4c0.3-2,0.8-4.5,1.6-7.6c0.7-3,1.4-6.1,2.1-9.2
	c0.7-3.1,1.2-6,1.5-8.7C126.4,73.8,126.3,71.8,125.9,70.4z M183.4,59.1c-1.6-5.3-1.8-10.1-0.7-14.3c1.1-4.2,3.1-8,5.9-11.2
	c2.8-3.2,6.2-5.9,10.1-8s8.1-3.8,12.4-4.9c3.1-0.8,6.3-1.4,9.7-1.7c3.4-0.3,6.2-0.4,8.4-0.4c6-0.1,12.4,0.1,19.1,0.6
	c6.7,0.5,13.3,1,19.7,1.5c6.4,0.5,12.5,0.8,18.2,1c5.7,0.2,10.4-0.1,14.2-0.8c1.9-0.4,3.7-0.9,5.5-1.6c1.8-0.6,3.4-1.4,4.7-2.4
	c1.4-1,2.4-2.2,3-3.6c0.6-1.4,0.8-3.1,0.4-5.1c0.2-0.5,0.5-0.6,1-0.5c0.4,0.2,0.9,0.5,1.3,1c0.4,0.5,0.9,1.1,1.3,1.8
	c0.4,0.7,0.7,1.3,0.9,1.7c1.2,3.4,1.5,6.2,0.8,8.6c-0.7,2.3-2.1,4.3-4,5.8c-2,1.5-4.5,2.7-7.5,3.5c-3,0.8-6.2,1.3-9.6,1.5
	c-4,0.3-8.4,0.2-13-0.2c-4.6-0.4-9.4-0.9-14.3-1.6c-4.9-0.7-9.9-1.4-15-2.2c-5.1-0.8-10-1.5-15-2c1.2,0.8,2.5,1.8,3.9,2.9
	c1.3,1.1,2.6,2.3,3.7,3.5c1.1,1.2,2,2.4,2.8,3.6c0.7,1.2,1.1,2.3,1,3.3c-0.3,4.1-1.3,8.4-3.1,12.8c-1.8,4.5-3.8,9-6.1,13.6
	c-2.3,4.6-4.6,9.2-6.8,13.7c-2.3,4.6-4.1,9.1-5.4,13.6c-1.3,4.5-2,8.8-1.9,13.1c0.1,4.2,1.3,8.2,3.8,12c-0.5,0.3-1.2,0.3-2.1,0
	c-0.9-0.3-1.9-0.9-3-1.8c-1.1-0.9-2.2-2-3.4-3.3c-1.1-1.3-2.2-2.8-3-4.4c-1.3-2.5-2.1-5.2-2.1-8.2c-0.1-3,0.2-6.2,0.9-9.4
	c0.7-3.3,1.7-6.7,3.1-10.2c1.3-3.5,2.8-7,4.4-10.5c1.6-3.5,3.2-7,4.8-10.4c1.6-3.4,3-6.7,4.3-9.8c1.2-3.1,2.2-6.1,2.9-8.9
	c0.7-2.8,0.9-5.3,0.7-7.5c-0.1-0.3-0.2-0.7-0.4-1.3c-0.2-0.6-0.3-1.3-0.5-2c-0.2-0.8-0.3-1.5-0.5-2.3c-0.2-0.8-0.4-1.5-0.5-2
	c-5.1-0.5-10-0.7-14.7-0.7c-4.7,0-8.9,0.7-12.7,2c-4.8,1.5-8.4,3.8-10.9,6.8c-2.5,3-4.1,6.6-4.8,10.7c-0.7,4.1-0.5,8.6,0.5,13.4
	c1,4.8,2.8,9.7,5.2,14.8c0.2,0.4,0.3,0.8,0.6,1.1c0.2,0.3,0.3,0.6,0.3,0.8c0,0.2-0.1,0.3-0.3,0.3s-0.7-0.2-1.3-0.5
	c-1.4-0.7-3-1.5-4.7-2.4c-1.7-0.9-3.3-2-5-3.2c-1.6-1.2-3.1-2.6-4.4-4.2C184.9,63,184,61.1,183.4,59.1z M320,57.3
	c-2.5,2-4.4,4.5-5.5,7.7c-0.7,1.9-1.6,3.2-2.8,3.9c-1.2,0.8-3.1,0.6-5.6-0.4c-1-0.5-1.6-1-1.9-1.4c-0.3-0.4-0.3-1.1-0.2-1.9
	c0-0.9,0.1-2.1,0.2-3.4c0.1-1.3,0.3-2.7,0.6-4c0.3-1.3,0.7-2.5,1.1-3.7c0.5-1.1,1.1-1.9,1.9-2.2c0.5-0.4,1.4-0.4,2.7-0.1
	c1.3,0.3,2.7,0.8,4.1,1.4c1.4,0.6,2.6,1.3,3.7,2.1C319.4,56,320,56.7,320,57.3z M315.3,99.3c-1.2,1.9-2.3,3.4-3.5,4.7
	c-1.2,1.2-2.3,1.7-3.2,1.5c-0.7-0.2-1-0.8-1-2c0-1.2,0.1-2.7,0.4-4.5c0.3-1.8,0.7-3.7,1.3-5.9c0.6-2.1,1.1-4.1,1.6-6.1
	c0.5-1.9,0.9-3.6,1.3-5.1c0.4-1.5,0.6-2.5,0.5-3.1c-0.2-1.6-1-3-2.5-4.3c-1.5-1.3-3.1-2.3-4.7-3c-1.6-0.7-3-1.1-4.2-1.2
	c-1.2-0.1-1.5,0.3-1,1.1c0.6,0.9,0.8,2.6,0.5,5.1c-0.3,2.5-0.7,5.2-1.4,8.2c-0.4,1.6-0.7,3.3-1,4.9c-0.3,0.5-0.5,0.9-0.8,1.4
	c-1,1.6-2,3.2-3,4.8c-1,1.6-2,3.1-3,4.5c-1,1.4-1.8,2.6-2.5,3.5c-0.5,0.7-1.1,1.3-1.9,1.6c-0.7,0.3-1.3,0.5-1.8,0.3
	c-0.5-0.1-0.9-0.5-1.1-1.1c-0.3-0.6-0.3-1.6-0.2-2.9c0.3-1.4,0.8-3.2,1.5-5.4c0.8-2.2,1.4-4.5,2.1-6.8c0.6-2.4,1-4.7,1.3-6.9
	s0-4.2-0.7-5.8c-1.7-3.6-4.4-5.6-8.3-6c-1.8-0.2-3.5,0.1-4.9,0.7c-1.5,0.6-2.9,1.6-4.1,2.8c-1.3,1.2-2.4,2.7-3.5,4.3
	c-1,1.7-2,3.4-3,5.3c0.4-2,0.8-3.8,1.3-5.4c0.4-1.6,0.9-3.4,1.4-5.4c5.5-4.2,10-8.7,13.5-13.3c3.4-4.6,5.6-10.1,6.3-16.4
	c0.2-1.2-0.2-2.4-1-3.6c-0.8-1.2-1.8-2.3-3-3.2c-1.2-0.9-2.4-1.6-3.8-2c-1.3-0.4-2.4-0.5-3.4-0.3c-2.8,0.9-5.3,2.7-7.5,5.6
	c-2.2,2.8-4.2,6.2-6,10.2c-1.8,4-3.4,8.3-4.9,13.1c-1.5,4.7-2.7,9.4-3.7,14.1c-1,4.7-1.9,9.2-2.5,13.5s-1.2,7.9-1.6,11
	c-0.1,0.6,0.2,1.5,0.6,2.6c0.5,1.1,1.1,2.2,1.9,3.3c0.8,1.1,1.7,2.1,2.9,2.9c1.1,0.8,2.3,1.2,3.6,1.2c0.3,0,0.5-0.1,0.7-0.2
	c0.2-0.1,0.3-0.3,0.3-0.7c0.1-0.3,0.2-0.8,0.3-1.5c0.1-0.6,0.2-1.5,0.3-2.6l1.9-10.5l0.1-0.1c0.8-1.9,1.8-3.9,3-6.2
	c1.2-2.3,2.4-4.4,3.7-6.4c1.3-2,2.6-3.6,3.8-5c1.3-1.3,2.4-2,3.3-2c0.7,0,1.2,0.5,1.3,1.4c0.2,1,0.1,2.2-0.1,3.8
	c-0.2,1.6-0.5,3.4-0.9,5.3c-0.4,1.9-0.8,3.9-1.2,5.8c-0.4,1.9-0.8,3.7-1,5.3c-0.3,1.6-0.3,3,0,4c0.6,2.7,1.9,4.9,4.1,6.6
	c2.2,1.7,4.7,2.5,7.6,2.4c2.1-0.1,4.1-1,5.9-2.6c1.8-1.6,3.5-3.6,5.1-5.9c0.1-0.1,0.2-0.3,0.3-0.4c0.1,0.6,0.3,1.2,0.6,2
	c0.5,1.1,1.2,2.2,2.1,3.3c0.9,1.1,2,2,3.3,2.7c1.3,0.7,2.9,1,4.7,0.9c1.4-0.1,2.7-0.5,4-1.3c1.3-0.8,2.5-1.8,3.7-3
	c1.2-1.2,2.3-2.6,3.3-4.2c1-1.6,1.9-3.2,2.8-5c0.9-1.7,1.6-3.4,2.3-5.1c0.6-1.7,1.2-3.3,1.7-4.7c0-0.1,0-0.2,0-0.2
	c0.2-0.7,0.5-1.5,0.8-2.2c0.6-1.6,1.2-3.3,1.8-4.9c0.9,2.5,1.8,5.3,2.7,8.3c0.9,3,1.2,5.8,1.1,8.3c-0.1,2.5-1,4.6-2.6,6.2
	c-1.6,1.6-4.3,2.3-8.1,2.1c-0.3,0-0.5,0-0.7,0.1c-0.2,0.1-0.1,0.3,0.3,0.7c1.9,2.1,3.8,3.6,5.9,4.3c2.1,0.8,4.2,1,6.3,0.8
	c2-0.2,4.1-0.7,6.4-1.6c2.2-0.9,4.3-2.1,6.3-3.7c1.6-1.2,3-2.6,4.1-4c1.1-1.5,2.1-2.9,3-4.5c0.9-1.5,1.7-3.1,2.3-4.7
	c0.6-1.6,1.3-3.3,2-5c0.2-0.4,0.1-0.8-0.2-1.2c-0.3-0.4-0.6-0.7-1-1c-0.4-0.3-0.8-0.4-1.3-0.5c-0.5,0-0.9,0.1-1.2,0.4
	c-1.4,3.7-2.8,6.6-4.2,8.9c-1.4,2.3-3,4.2-5,5.7c-0.5-2.1-1.4-4.3-2.6-6.6c-1.2-2.3-2.3-4.6-3.5-6.8c-1.1-2.2-2.1-4.2-2.8-6.1
	c-0.8-1.8-1.1-3.4-0.9-4.6c0.7-3.4,1.9-6.2,3.7-8.4c1.8-2.2,4-4.2,6.6-6c0.2-0.5-0.2-1.1-1.2-2c-1-0.9-2.1-1.7-3.3-2.5
	c-1.3-0.8-2.6-1.5-3.9-2.1c-1.3-0.6-2.3-0.8-3-0.6c-1.3,0.3-2.5,1.1-3.5,2.5c-1,1.3-1.8,3-2.4,4.9c-0.6,1.9-1,3.9-1.1,6
	c-0.2,2.1-0.2,4.1,0,5.9c-0.9,2.2-1.7,4.6-2.5,7c-0.8,2.4-1.6,4.7-2.5,6.7c-0.8,1.6-1.7,3.3-2.6,5.1
	C317.6,95.3,316.5,97.4,315.3,99.3z M275.2,47.7c2.3-4.3,4.6-6.7,7.1-7.3c0.7-0.2,1,0.2,1.1,1c0.1,0.8-0.1,1.9-0.5,3.4
	c-0.4,1.5-1.1,3.1-2,5.1c-0.9,1.9-2,3.9-3.2,6c-1.2,2.1-2.6,4.2-4.1,6.3c-1.5,2.1-3,4-4.7,5.7C270.8,58.7,273,52,275.2,47.7z
	 M169.3,292.1c0.3-2,0.4-3.8,0.5-5.4c0-1.6-0.2-2.7-0.6-3.5c-0.6-0.7-0.6-1.1,0-1.2c0.5-0.2,1.4-0.1,2.4,0.1s2.3,0.7,3.6,1.3
	c1.3,0.6,2.6,1.3,3.9,2.2c1.3,0.9,2.3,1.8,3.2,2.9c0.9,1.1,1.3,2.2,1.5,3.4c0.1,0.7-0.1,1.9-0.5,3.7c-0.4,1.8-0.9,3.8-1.5,6.1
	c-0.6,2.3-1.3,4.7-2,7.2c-0.7,2.5-1.2,4.8-1.6,7c-0.4,2.1-0.5,4-0.4,5.5c0.1,1.5,0.6,2.3,1.4,2.4c1,0.2,2.3-0.4,3.8-1.8
	c1.5-1.4,3.1-3.4,4.7-6c1.6-2.5,3.1-5.5,4.6-9c1.5-3.5,2.6-7.1,3.4-10.9c0.4-1.4,0.5-2.9,0.4-4.4c-0.1-1.5-0.4-3.2-0.7-5
	c-0.2-0.7,0.1-1.1,0.8-1.1c0.7,0,1.7,0.2,2.9,0.7c1.2,0.5,2.5,1.1,3.9,2c1.4,0.8,2.6,1.7,3.8,2.7c1.2,1,2.1,1.9,2.8,2.8
	c0.7,0.9,1.1,1.7,1,2.4c-0.3,1.7-0.7,3.5-1.1,5.5c-0.5,2-1,4-1.5,6.1s-1,4.1-1.4,6.1c-0.4,2-0.7,3.7-0.9,5.2
	c-0.2,1.5-0.2,2.7-0.1,3.6c0.1,0.9,0.5,1.4,1,1.4c1.8-0.1,3.7-1.3,5.5-3.6c1.8-2.4,3.5-5.3,5.1-8.9c1.6-3.6,2.9-7.6,3.9-12
	c1-4.4,1.7-8.6,1.9-12.6c0.2-4-0.1-7.7-1.1-10.9c-1-3.2-2.7-5.5-5.1-6.9c-1-0.6-1.5-1.1-1.6-1.6c-0.1-0.5,0.1-0.9,0.6-1.3
	c0.5-0.4,1.1-0.6,2-0.8c0.8-0.2,1.7-0.2,2.6-0.2c2.5,0.2,4.9,1.1,7.2,2.7c2.3,1.6,4,3.4,5,5.5c1,2.1,1.5,4.9,1.2,8.5
	c-0.2,3.6-0.9,7.5-1.9,11.7c-1.1,4.2-2.5,8.5-4.4,12.8c-1.8,4.3-3.9,8.2-6.1,11.8c-2.2,3.5-4.6,6.4-7,8.6c-2.4,2.2-4.8,3.3-7,3.3
	c-3.1,0-5.9-1.1-8.6-3.3c-2.7-2.2-4.3-4.8-4.9-7.7c-0.4-1.5-0.7-2.8-0.9-3.9c-1.8,4.3-3.9,7.8-6.4,10.5c-2.5,2.7-5.4,4.2-8.8,4.4
	c-2.1,0.1-4-0.2-5.5-1.1c-1.6-0.9-2.8-1.9-3.9-3.2c-1-1.3-1.8-2.6-2.3-3.9c-0.6-1.3-0.9-2.4-0.9-3.3c-0.1-1.8,0-3.8,0.2-6
	c0.3-2.2,0.7-4.5,1.1-6.9c0.5-2.4,1-4.8,1.6-7.2C168.7,296.4,169.1,294.2,169.3,292.1z M261.4,310.3c1.8-1.3,3.3-2.9,4.6-4.6
	c1.3-1.8,2.2-3.6,2.8-5.5c0.5-1.9,0.8-3.8,0.8-5.8c0-1.9-0.7-3.7-1.9-5.5c-1.3-2.1-3.1-3.8-5.1-5c-2.1-1.2-4.3-1.7-6.8-1.6
	c-2.4,0.1-4.9,0.9-7.3,2.4c-2.4,1.5-4.6,3.9-6.5,7.2L242,292c-1.3,2.4-2.4,5-3.2,7.8c-0.8,2.8-1.2,5.7-1.3,8.5
	c-0.1,2.9,0.2,5.7,0.8,8.3c0.6,2.7,1.7,5.1,3.2,7.1c1.5,2.1,3.5,3.7,6,4.9c2.5,1.2,5.5,1.8,9.1,1.7c2.3,0,4.5-0.5,6.6-1.6
	c2-1.1,3.9-2.4,5.6-4.1s3.2-3.5,4.6-5.5c1.4-2,2.6-4,3.5-6c1-2,1.8-3.7,2.5-5.4c0.7-1.6,1.2-2.9,1.6-3.9c0.2-0.4,0.1-0.9-0.2-1.4
	c-0.3-0.5-0.7-0.9-1.3-1.2c-0.6-0.3-1.2-0.5-1.7-0.6c-0.6-0.1-1,0.2-1.2,0.6c-1,2.2-2.2,4.6-3.4,7.2c-1.2,2.6-2.6,5.1-4.2,7.4
	c-1.6,2.3-3.3,4.3-5.4,5.9c-2,1.6-4.3,2.4-7,2.6c-1.5,0.1-2.8-0.1-3.8-0.6c-1-0.5-1.8-1.2-2.4-2.1c-0.6-0.9-1-2-1.2-3.3
	c-0.2-1.3-0.3-2.7-0.2-4.1c2.3,0.1,4.5-0.3,6.6-1.1C257.7,312.6,259.6,311.6,261.4,310.3z M251.1,304.4c0.4-1.9,0.9-3.7,1.4-5.5
	c0.6-1.8,1.2-3.5,1.9-5.2c0.7-1.6,1.6-2.9,2.7-3.8c1.9-1.8,3.4-2.5,4.6-2.2s2,1.2,2.6,2.7c0.6,1.5,0.7,3.3,0.5,5.5
	c-0.2,2.2-0.9,4.3-2,6.4c-1.1,2-2.7,3.8-4.8,5.2c-2.1,1.4-4.7,2.1-7.7,2C250.4,308,250.7,306.3,251.1,304.4z M381.4,173.5
	c7.6-12.4-1-27.3-20.9-25.9c-21.3-49.2-59.2-3-36.4,15.8c0,0,0.2,0.1,0.6,0.2l-13,15.9c-1.3,1.6-1.2,4,0.1,5.5l15.5-18.8l1.9,1.5
	l-15.5,18.9l4.1,3.4l15.5-18.9l1.9,1.5l-15.5,18.9l18,14.7l-1.4-1.1l15.5-18.9l1.9,1.5l-15.5,18.8c1.8,1,4.1,0.6,5.4-1l15.1-18.4
	c0.2-0.3,0.4-0.5,0.5-0.8c0.3,0.4,0.7,0.8,1,1.3C373,205.4,395.8,187.1,381.4,173.5z M323.6,194.8l15.5-18.9l1.9,1.5l-15.5,18.9
	L323.6,194.8z M331.9,201.6l-1.9-1.5l15.5-18.9l1.9,1.5L331.9,201.6z M348.3,260.1c2,1.4,3.3,3.4,3.9,5.8c0.5,1.7,0.6,3.4,0.4,5.1
	c0,0.1,0,0.3-0.1,0.5c0.2-0.2,0.4-0.3,0.5-0.4c1.7-1.2,3.6-2.1,5.6-2.6c2.3-0.6,4.6-0.6,6.8,0c2.4,0.7,4.2,2.1,5,4.5
	c0.4,1.2,0.6,2.5,0.5,3.8c-0.2,2.4-0.9,4.5-2.3,6.5c-1.5,2.1-3.4,3.7-5.6,5.1c-2.8,1.8-5.8,3.1-9,4c-2.5,0.7-5.1,1.4-7.7,1.9
	c-1.8,0.4-3.7,0.6-5.6,0.7c-0.8,0.1-1.5-0.2-2-0.8c-0.4-0.5-0.8-1-1.2-1.6c-1-1.4-1.7-2.9-2.4-4.5c-1.5-3.7-2.9-7.6-3.7-11.5
	c-0.5-2.5-0.7-5-0.6-7.6c0.2-2.1,0.7-4.1,1.7-6c1.6-2.8,4-4.4,7.2-5C343.1,257.6,345.8,258.3,348.3,260.1z M317.1,290.5
	c0.9,1.3,1.4,2.7,1.5,4.3c0.1,1.7-0.2,3.3-0.7,4.9c-0.7,2.1-1.6,4-2.9,5.8c-1,1.4-2,2.8-3.1,4.2c-0.8,1-1.7,1.8-2.5,2.7
	c-0.4,0.4-0.8,0.5-1.4,0.4c-0.4-0.1-0.9-0.2-1.3-0.3c-1.1-0.3-2.1-0.8-3.1-1.3c-2.4-1.3-4.6-2.7-6.7-4.4c-1.3-1.1-2.5-2.3-3.4-3.6
	c-0.8-1.1-1.4-2.4-1.6-3.8c-0.4-2.1,0.2-3.9,1.6-5.5c1.4-1.5,3.1-2.3,5.1-2.4c1.6-0.1,3.1,0.3,4.4,1.3c0.9,0.7,1.7,1.5,2.3,2.4
	c0.1,0.1,0.1,0.2,0.2,0.3c0.1-0.2,0.1-0.3,0.1-0.4c0.4-1.3,1-2.6,1.8-3.7c0.9-1.3,2.1-2.2,3.5-2.9c1.5-0.7,3-0.7,4.4,0.2
	C315.9,289.3,316.6,289.8,317.1,290.5z M300.6,178.9c0.9,1.3,1.4,2.7,1.5,4.3c0.1,1.7-0.2,3.3-0.7,4.9c-0.7,2.1-1.6,4-2.9,5.8
	c-1,1.4-2,2.8-3.1,4.2c-0.8,1-1.7,1.8-2.5,2.7c-0.4,0.4-0.8,0.5-1.4,0.4c-0.4-0.1-0.9-0.2-1.3-0.3c-1.1-0.3-2.1-0.8-3.1-1.3
	c-2.4-1.3-4.6-2.7-6.7-4.4c-1.3-1.1-2.5-2.3-3.4-3.6c-0.8-1.1-1.4-2.4-1.6-3.8c-0.4-2.1,0.2-3.9,1.6-5.5c1.4-1.5,3.1-2.3,5.1-2.4
	c1.6-0.1,3.1,0.3,4.4,1.3c0.9,0.7,1.7,1.5,2.3,2.4c0.1,0.1,0.1,0.2,0.2,0.3c0.1-0.2,0.1-0.3,0.1-0.4c0.4-1.3,1-2.6,1.8-3.7
	c0.9-1.3,2.1-2.2,3.5-2.9c1.5-0.7,3-0.7,4.4,0.2C299.5,177.6,300.1,178.2,300.6,178.9z M365.4,308.3c1.4,1.6,2,3.4,1.6,5.5
	c-0.2,1.4-0.8,2.6-1.6,3.8c-1,1.4-2.1,2.6-3.4,3.6c-2.1,1.7-4.3,3.1-6.7,4.4c-1,0.5-2,1-3.1,1.3c-0.4,0.1-0.8,0.2-1.3,0.3
	c-0.5,0.1-1-0.1-1.4-0.4c-0.9-0.9-1.8-1.7-2.5-2.7c-1.1-1.3-2.1-2.8-3.1-4.2c-1.3-1.8-2.2-3.7-2.9-5.8c-0.5-1.6-0.8-3.2-0.7-4.9
	c0.1-1.6,0.6-3,1.5-4.3c0.5-0.7,1.1-1.3,1.8-1.7c1.4-0.9,2.9-0.9,4.4-0.2c1.4,0.6,2.6,1.6,3.5,2.9c0.8,1.1,1.4,2.4,1.8,3.7
	c0,0.1,0.1,0.2,0.1,0.4c0.1-0.1,0.1-0.2,0.2-0.3c0.6-1,1.4-1.8,2.3-2.4c1.3-1,2.8-1.4,4.4-1.3C362.3,306,364,306.7,365.4,308.3z
	 M192.8,154.2l-6.3,4.6l2.4,7.4l-6.3-4.6l-6.3,4.6l2.4-7.4l-6.3-4.6h7.8l2.4-7.4l2.4,7.4H192.8z M159.3,307.4l-10.3,7.5L153,327
	l-10.3-7.5l-10.3,7.5l3.9-12.1l-10.3-7.5h12.7l3.9-12.1l3.9,12.1H159.3z M379.3,220.8l-10.3,7.5l3.9,12.1l-10.3-7.5l-10.3,7.5
	l3.9-12.1l-10.3-7.5h12.7l3.9-12.1l3.9,12.1H379.3z"/>
</svg>
