<?xml version="1.0" encoding="utf-8"?>
<!-- Generator: Adobe Illustrator 18.0.0, SVG Export Plug-In . SVG Version: 6.00 Build 0)  -->
<!DOCTYPE svg PUBLIC "-//W3C//DTD SVG 1.1//EN" "http://www.w3.org/Graphics/SVG/1.1/DTD/svg11.dtd">
<svg version="1.1" id="Layer_1" xmlns="http://www.w3.org/2000/svg" xmlns:xlink="http://www.w3.org/1999/xlink" x="0px" y="0px"
	 viewBox="0 0 432 432" enable-background="new 0 0 432 432" xml:space="preserve">
<g>
	<path fill="#333333" d="M90.2,357.4c0,1.6-4.2,3.7-12.6,6.3c-0.6,1.1-0.9,2.2-0.9,3.6v48.5c0,4.4-0.9,6.8-2.7,7.2h-1.8
		c-2.1,0-3.9-3.6-5.4-10.8c0.6-10.6,0.9-19.3,0.9-26v-20.7c0-1-5.1-2.8-15.3-5.4v-2.7c0-2.4,9.6-3.6,28.8-3.6
		C85.8,353.8,88.8,355,90.2,357.4z M122.9,378c0,6.3,0.2,14.8,0.7,25.5c-2.4,12.9-6.9,19.4-13.4,19.4c-11.6,0-17.5-7.4-17.5-22.1v-4
		c0-29.9,3.1-44.9,9.4-44.9c0-0.4,1.1-0.7,3.4-0.7c9.8,0,15.6,7.2,17.4,21.4V378z M112.8,368.7c0-5.8-1.3-9.4-4-10.7h-0.7
		c-4.5,0-6.7,13.9-6.7,41.6c0,9.3,1.3,14,4,14h4c1.5,0,2.6-2.5,3.3-7.4V368.7z M170.9,356c-0.9-1.7-1.7-2.6-2.6-2.6h-3.5
		c-2.6,1-6.7,9.9-12.2,26.9h-0.8c-6.4-17.4-12.2-26.1-17.4-26.1h-0.8c-0.9,0-1.8,1.2-2.6,3.5c0.6,5.9,0.9,10.6,0.9,13.9v42.6
		c0,5.2,2,7.8,6,7.8h0.9c1.7-0.3,2.6-2.6,2.6-6.9v-16.5c0-4.9-0.3-12.8-0.8-23.5h1.7c4.3,13.3,8.9,20,13.9,20h1.7
		c2.4-16.8,4.7-25.2,7-25.2v38.2c1,9.9,2.4,14.8,4.3,14.8h2.6c1,0,1.9-1.5,2.6-4.4h-0.9C173,394.8,172.1,374,170.9,356z M211.2,378
		c0,6.3,0.2,14.8,0.7,25.5c-2.4,12.9-6.9,19.4-13.4,19.4c-11.6,0-17.5-7.4-17.5-22.1v-4c0-29.9,3.1-44.9,9.4-44.9
		c0-0.4,1.1-0.7,3.4-0.7c9.8,0,15.6,7.2,17.4,21.4V378z M201.2,368.7c0-5.8-1.3-9.4-4-10.7h-0.7c-4.5,0-6.7,13.9-6.7,41.6
		c0,9.3,1.3,14,4,14h4c1.5,0,2.6-2.5,3.3-7.4V368.7z M240.6,406.4c0,2.1,2.4,6.2,7,12.3v1.7c0,0.4-0.9,1.3-2.6,2.6
		c-1.8,0-5.6-4.4-11.4-13.2c-4.6,0-7,4.1-7,12.3h-2.6c-3.5-2.3-5.3-4.9-5.3-7.8c1.2-14.1,1.7-31.3,1.7-51.7v-5.3
		c0-4.1,2.1-6.1,6.2-6.1h3.5c9.9,0,14.9,6.4,14.9,19.3V381c0,8.7-1.5,16.6-4.4,23.6V406.4z M235.1,359.1c-1.5-1.2-2.4-1.8-2.6-1.8
		h-2.6c-1.2,0.2-1.7,0.8-1.7,1.8v42h2.6C233.6,397.8,235.1,383.8,235.1,359.1z M274.4,406.4c0,2.1,2.4,6.2,7,12.3v1.7
		c0,0.4-0.9,1.3-2.6,2.6c-1.8,0-5.6-4.4-11.4-13.2c-4.6,0-7,4.1-7,12.3h-2.6c-3.5-2.3-5.3-4.9-5.3-7.8c1.2-14.1,1.7-31.3,1.7-51.7
		v-5.3c0-4.1,2.1-6.1,6.2-6.1h3.5c9.9,0,14.9,6.4,14.9,19.3V381c0,8.7-1.5,16.6-4.4,23.6V406.4z M268.9,359.1
		c-1.5-1.2-2.4-1.8-2.6-1.8h-2.6c-1.2,0.2-1.7,0.8-1.7,1.8v42h2.6C267.4,397.8,268.9,383.8,268.9,359.1z M316.3,378
		c0,6.3,0.2,14.8,0.7,25.5c-2.4,12.9-6.9,19.4-13.4,19.4c-11.6,0-17.5-7.4-17.5-22.1v-4c0-29.9,3.1-44.9,9.4-44.9
		c0-0.4,1.1-0.7,3.4-0.7c9.8,0,15.6,7.2,17.4,21.4V378z M306.2,368.7c0-5.8-1.3-9.4-4-10.7h-0.7c-4.5,0-6.7,13.9-6.7,41.6
		c0,9.3,1.3,14,4,14h4c1.5,0,2.6-2.5,3.3-7.4V368.7z M363.7,354.4c-1.7,1.3-2.6,3-2.6,5.1v12.7c0,8.7-0.3,20.5-0.8,35.6h-1.7
		c0-2.9-0.6-4.3-1.7-4.3c-1.6-12.4-4.7-18.6-9.3-18.6h-0.8l-1.7,0.8c-5,15.3-7.9,22.9-8.5,22.9h-0.8c-1-20.3-1.8-30.5-2.5-30.5
		c0-15.8-2.6-23.7-7.7-23.7c-1.7,2.2-2.5,3.6-2.5,4.3c1.3,15.2,2.1,22.8,2.5,22.8c0,27.7,3.7,41.5,11,41.5h0.8
		c2-0.5,5.6-7.6,11-21.2h0.8c3.8,13,7.7,19.5,11.9,19.5c3.2,0,5.4-4.8,6.8-14.4c0-6.2,0.3-21.5,0.8-45.7
		C368.7,356.6,367,354.4,363.7,354.4z M66.6,118.6c12.9-4.1,19.3-7.9,19.3-12.3c0-0.5,0-0.8,0-1.3c-3.6-0.3-5.4-0.4-9-0.6
		c-6.7,1.5-10,2.4-16.7,4.1c-1-0.3-1.5-0.4-2.5-0.7C58.5,84.8,59,71.2,59,67.2c-0.1-12,3.7-40.6-7.7-48.7c-2.5,0.7-3.8,1.1-6.4,1.8
		c0,1-0.4,2.3-1.3,4.3c1.7-0.5,2.5,5.8,2.5,18.8c0,22.1,0,44.3,0,66.4c0,6.8,2.6,10.9,7.7,12.2C58.9,120.6,61.5,119.9,66.6,118.6z
		 M93.3,102C93.4,80.8,87.3,36,105,19.7c0-2.1,3.9-4.5,11.8-6.7c20.9-0.9,21.5,28.4,21.2,42.8c-0.1,5.7,0.4,10.1,1.2,12.9
		c-0.8,24.5-3.2,36.9-7.1,37.4c-0.5,0.1-0.7,0.1-1.2,0.2c-3.2,0.4-4.7-5.2-4.7-17c0-2.8,0-4.2,0-7.1c-0.5,0.1-0.7,0.1-1.2,0.2
		c-13.3,2-20,6.5-20,12.7c-1,8.8-2.9,13.5-5.9,14C95.2,108.7,93.2,106.4,93.3,102z M107.3,78.2c0.8-0.1,1.2,0.2,1.2,1
		c11.8-3.9,17.7-7,17.7-9.9c0-7.7-0.4-21.7-1.2-42.3c-1.5-3.4-3.1-5.1-4.7-5.2c-1.9,0.3-2.8,0.4-4.7,0.8
		C104.5,36.2,107.2,61.4,107.3,78.2z M150.6,70.3c0.1,12.8,7.8,34.6,22.1,31.5c13.7-2.9,19.1-23.5,21-38
		c-0.8-16.1-1.7-50.2-10.5-53.8c-1.6-0.7-5,1.8-5.9,4.9c3.3,14.6,4.3,29.9,5.9,44.8c0,15.8-3.9,26.4-11.6,31.9
		c-0.9,0.1-1.4,0.1-2.4,0.2c-10.4-9.8-6.9-35.3-7-48c-0.2-22.1-3.9-33.2-11.6-32.3c-1.4,1.1-2.1,1.6-3.5,2.7
		C152.3,31.6,150.5,52.3,150.6,70.3z M203.5,88c0,4,1.6,6.6,4.6,7.8c1.4,0,2.1,0,3.4,0c1.6-6.8,2.3-11.7,2.3-14.7
		c0-16.3,0-24.4,0-40.7c0.4,0,0.7,0,1.1,0C225.7,56.7,231,66,231,67.7c0,9.1,0,13.6,0,22.7c0,5.7,1.5,9.2,4.5,10.3
		c0.9,0,1.4,0,2.3,0.1c1.1,0,2.3-1.5,3.4-4.4c-0.4-0.9-0.7-1.4-1.1-2.3c0.7-8.3,1.1-15.4,1.1-21.5c0-2.7,0-4.1,0-6.8
		c0-17.3,0.6-34.6,1.1-52c-0.5-2.3-2.1-3.9-4.5-4.7c-3-0.1-5,1.4-5.7,4.4c0.4,2.2,0.7,3.4,1.1,5.6c-0.7,12.5-1.1,21.9-1.1,28.3
		c0,0.4,0,0.7,0,1.1c-0.4,0-0.7,0-1.1,0c-0.9-0.5-1.4-0.7-2.3-1.2c-5.7-13-10.4-29.5-22.9-37.4c-1.4,1.8-2.1,2.8-3.4,4.6
		c0.7,5.1,1.1,9.2,1.1,12.4C203.5,47.2,203.5,67.6,203.5,88z M249.4,94.7c0.2-1.4,1-2.1,2.2-2c2.6,0.2,3.9,0.2,6.5,0.4
		c0-23.6,0-47.3,0-70.9c-3.6-4.1-5.4-6.5-5.4-6.8c0-0.4,0-0.6,0-1c0-2.9,5.8-4.8,17.4-5.2c11.2,1,18.4,8.7,21.6,22.7
		c1.4,10.4,2.1,16.2,2.1,17.4c0.1,15.7,0.9,40.1-14,50c-3.6,1.5-8.7,2.4-15.1,2.9C254.5,99.7,249.4,97.4,249.4,94.7z M270,49
		c-0.7,12.1-1.1,25.7-1.1,40.7c0,1.3,0,1.9,0,3.2c0.9,0.1,1.3,0.1,2.1,0.2c13.1-7.5,10.8-28.1,10.8-40.9c0.1-21.6-2.8-33.6-6.4-34
		c-1.3-0.1-2-0.2-3.3-0.3c-1.7-0.2-3,1.8-3.3,5.1C268.3,31.8,269.3,41.1,270,49z M302.4,94.9c1.8-22.5,2.1-45,2.3-67.6
		c0-2.8,0-4.1,0-6.9c0-5.4,2.7-7.6,8.1-6.8c1.8,0.3,2.7,0.4,4.6,0.7c13,2.2,19.5,12,19.5,28.9c0,5.5,0,8.3,0,13.8
		c0,11.4-1.9,21.4-5.7,29.9c0,0.9,0,1.4,0,2.3c0,2.7,3.1,8.7,9.2,17.9c0,0.9,0,1.4,0,2.3c0,0.6-1.2,1.5-3.4,2.8
		c-2.3-0.5-7.3-7.2-14.9-20.1c-6.1-1.1-9.2,3.8-9.2,14.6c-1.4-0.2-2.1-0.3-3.5-0.5C304.7,102.5,302.4,98.7,302.4,94.9z M314.8,79.5
		c1.4,0.2,2.1,0.3,3.5,0.6c7.8-15.8,9.6-44.7,5.7-54.2c-0.6-1.5-3.1-2.9-3.5-3c-1.4-0.2-2.1-0.4-3.5-0.6c-1.5,0-2.3,0.7-2.3,2
		C314.8,42.7,314.8,61.1,314.8,79.5z M388.4,38.6c-1.2-2.5-2.2-3.9-3.2-4.2c-1.3-0.4-1.9-0.5-3.2-0.9c-8.3,14.4-13.4,21.8-15.1,22.2
		c-10.5-20.8-18.9-31.8-24.9-33c-0.4-0.1-0.7-0.1-1.1-0.2c0,0.9,0,1.3,0,2.2c5,13.9,13.3,26.7,20.6,39.5
		c-0.7,15.1-1.1,27.3-1.1,36.9c0,2.6,0,3.9,0,6.5c0,5.5,1.5,9.2,4.3,10.8c0.9,0.2,1.3,0.3,2.2,0.5c1.6,0.4,3-1.8,4.3-6.6
		c-0.4-2.7-0.7-4.1-1.1-6.8c0.7-13.1,1-21.5,1.1-24.8C371.7,66.3,380.8,51.1,388.4,38.6z M196.5,207.7c-0.6,2.7-0.9,5.1-0.9,7.1
		c0,1.1,0.1,2.1,0.3,3c0.6,2.8,2,4.2,4.4,4.2c2.4,0,4.4-1.6,6.3-4.7c1.6-2.7,2.8-6,3.6-10.1c0.5-2.3,0.7-4.3,0.7-6
		c0-0.8,0-1.6-0.1-2.3c-0.4-2.8-1.8-4.3-4.1-4.3C201.8,194.7,198.4,199,196.5,207.7z M212.9,171.8c18.4,0,33.2,14.9,33.2,33.2v0
		c0,18.4-14.9,33.2-33.2,33.2h0c-18.4,0-33.2-14.9-33.2-33.2v0C179.7,186.7,194.6,171.8,212.9,171.8L212.9,171.8z M216.2,223.9
		c0,1.6,0.8,2.4,2.5,2.4c2.4,0,3.9-1.7,4.7-5l1.7-7.9c1.2-5.6,2.8-10.1,5-13.5c2.1-3.5,4.1-5.2,5.8-5.2c0.5,0,1,0.2,1.3,0.5
		c0.4,0.5,0.8,0.7,1.3,0.7c0.6,0,1.2-0.3,1.8-0.8c0.6-0.6,0.9-1.2,1.1-1.9c0-0.2,0.1-0.3,0.1-0.4c0-0.6-0.3-1-0.9-1.4
		c-0.7-0.4-1.6-0.6-2.8-0.6c-2.9,0-5.7,1.7-8.3,5c-0.3,0.4-0.5,0.6-0.6,0.6c0,0-0.1,0-0.1-0.1c0-0.1,0-0.3,0.1-0.5
		c0.2-0.7,0.2-1.4,0.2-2c0-2-0.9-3-2.8-3c-1,0-1.8,0.3-2.4,0.8c-0.6,0.5-1,1.2-1.3,1.9c-0.3,0.8-0.5,1.6-0.7,2.5l-5.4,25.2
		c-0.2,0.9-0.3,1.7-0.3,2.5V223.9z M207,190.7c-4.7,0-8.7,1.8-11.8,5.5c-2.7,3.2-4.7,7.5-5.8,13c-0.5,2.3-0.7,4.4-0.7,6.2
		c0,1.9,0.3,3.7,0.8,5.2c1.3,3.8,4,5.6,8.2,5.6c4.6,0,8.4-1.8,11.3-5.4c2.6-3.2,4.5-7.6,5.7-13.3c0.5-2.4,0.8-4.6,0.8-6.6
		c0-1.6-0.2-3.1-0.5-4.4C213.8,192.7,211.2,190.7,207,190.7z M137.4,111.2c0,0.1,0,0.2,0,0.3c0,0.5,0.2,0.9,0.7,1.4
		c0.5,0.5,1.5,0.8,2.7,0.8h4.2c0.5,0,0.7,0.2,0.7,0.6c0,0.1,0,0.2,0,0.3l-9.9,46.6c-0.3,1.5-0.5,2.7-0.5,3.6c0,0.2,0,0.4,0,0.6
		c0.1,0.6,0.3,1.2,0.7,1.6c0.5,0.7,1.4,1,2.9,1c3.3,0,5.4-2.2,6.3-6.5l10-46.9c0.1-0.6,0.5-0.9,1.1-0.9h4.2c1.3,0,2.3-0.3,3.1-0.8
		c0.8-0.5,1.2-1.1,1.4-1.7c0.1-0.3,0.1-0.5,0.1-0.7c0-0.6-0.2-1-0.6-1.4c-0.5-0.4-1.2-0.7-2.1-0.8c-0.9-0.1-1.6-0.2-2.4-0.2h-16.3
		c-0.7,0-1.5,0.1-2.5,0.2c-0.9,0.1-1.7,0.4-2.5,0.8C138.1,109.6,137.7,110.3,137.4,111.2z M189.1,129.2c0.5,1.7,0.7,3.6,0.7,5.7
		c0,2.6-0.3,5.4-1,8.6c-1.6,7.4-4,13.2-7.5,17.4c-3.8,4.7-8.8,7.1-14.9,7.1c-5.4,0-9-2.5-10.7-7.4c-0.7-2-1.1-4.2-1.1-6.8
		c0-2.5,0.3-5.2,1-8.2c1.5-7.2,4.1-12.9,7.7-17c4.1-4.8,9.3-7.2,15.5-7.2C184.3,121.5,187.7,124,189.1,129.2z M184,135.2
		c0-1.1-0.1-2.1-0.2-3c-0.5-3.7-2.3-5.6-5.3-5.6c-6.5,0-10.9,5.7-13.4,17.1c-0.8,3.6-1.1,6.7-1.1,9.3c0,1.5,0.1,2.8,0.3,3.9
		c0.8,3.7,2.7,5.5,5.8,5.5c3.1,0,5.8-2,8.2-6.1c2-3.5,3.6-7.9,4.7-13.2C183.7,140.2,184,137.5,184,135.2z M192.7,150.7
		c1.8-8.6,4.6-15.5,8.3-20.9c3.9-5.6,8.4-8.4,13.3-8.4c1.3,0,2.5,0.3,3.5,0.9c0.3,0.2,0.6,0.3,0.8,0.3c0.2,0,0.3-0.3,0.5-0.9
		l1.7-7.8c0.2-1.1,0.6-2.1,1.1-3.1c0.5-1,1.1-1.8,1.9-2.4c0.8-0.6,1.8-0.9,3-0.9c1.4,0,2.3,0.3,2.8,1c0.4,0.6,0.6,1.3,0.6,2.1
		c0,0.1,0,0.5-0.1,1.1c0,0.6-0.2,1.5-0.4,2.6l-10,47c-0.2,1.1-0.5,2.2-0.9,3.3c-0.4,1-0.9,1.9-1.7,2.5c-0.8,0.7-1.8,1-3.2,1
		c-1.2,0-2.1-0.3-2.6-0.9c-0.5-0.6-0.9-1.4-0.9-2.4v-0.5c0-0.8,0.1-1.7,0.3-2.6c0-0.2,0-0.3,0-0.4c0-0.2,0-0.3-0.1-0.3
		c-0.1,0-0.6,0.6-1.6,1.7c-3.1,3.6-6.4,5.4-10,5.4c-2.2,0-3.9-0.8-5-2.4c-1.1-1.6-1.8-3.7-2-6.4c-0.1-0.6-0.1-1.3-0.1-1.9
		C192,155.4,192.2,153.1,192.7,150.7z M199.1,157.9c0,1.1,0.1,2.3,0.4,3.3c0.3,1.1,0.9,1.6,1.9,1.6c2.5,0,5-2.1,7.5-6.2
		c1.4-2.2,2.6-5,3.8-8.2c1.1-3.3,2-6.4,2.7-9.4l1.9-8.8c0.1-0.3,0.1-0.7,0.1-1c0-0.3,0-0.5-0.1-0.7c-0.3-1-1.4-1.5-3.5-1.5
		c-1.5,0-2.9,0.6-4.1,1.7c-1.3,1.1-2.4,2.6-3.5,4.3c-1,1.7-2,3.6-2.7,5.5c-0.8,2-1.5,3.8-2,5.6c-0.5,1.8-0.9,3.1-1.1,4.2
		c-0.5,2.6-0.9,5-1.2,7.2C199.2,156.3,199.1,157.1,199.1,157.9z M262.3,122.4c0.4,0.6,0.6,1.3,0.6,2.1c0,0.1,0,0.5,0,1.1
		c0,0.6-0.2,1.5-0.4,2.6l-7,33c-0.2,1.1-0.5,2.2-0.9,3.3c-0.4,1-0.9,1.9-1.7,2.5c-0.7,0.7-1.8,1-3.2,1c-1.2,0-2.1-0.3-2.6-0.9
		c-0.5-0.6-0.9-1.4-0.9-2.4v-0.5c0-0.8,0.1-1.7,0.3-2.6c0.1-0.2,0.1-0.4,0.1-0.5c0-0.2,0-0.2-0.1-0.2c-0.1,0-0.4,0.2-0.7,0.7
		c-3.3,4.4-6.9,6.5-10.9,6.5c-2.2,0-3.9-0.8-5-2.4c-1.1-1.6-1.8-3.7-2-6.4c-0.1-0.6-0.1-1.3-0.1-1.9c0-2.1,0.3-4.3,0.8-6.7
		c1.8-8.6,4.6-15.5,8.3-20.9c3.9-5.6,8.4-8.4,13.3-8.4c1.5,0,2.9,0.5,4.2,1.4c0.3,0.2,0.6,0.4,0.9,0.4c0.3,0,0.7-0.1,1-0.4
		c0.9-0.9,2-1.3,3.5-1.3C261,121.5,261.9,121.8,262.3,122.4z M253.2,129.2c0-1.5-1.2-2.3-3.6-2.3c-1.5,0-2.9,0.6-4.1,1.7
		c-1.3,1.1-2.4,2.6-3.5,4.3c-1,1.7-2,3.6-2.8,5.5c-0.8,2-1.5,3.8-2,5.6c-0.5,1.8-0.9,3.1-1.1,4.2c-0.5,2.6-0.9,5-1.2,7.2
		c-0.1,0.9-0.1,1.7-0.1,2.5c0,1.1,0.1,2.3,0.4,3.3c0.3,1.1,0.9,1.6,1.9,1.6c2.5,0,5-2.1,7.5-6.2c1.4-2.3,2.7-5,3.8-8.2
		c1.1-3.2,1.9-5.7,2.3-7.7l2.3-10.8C253.1,129.7,253.2,129.5,253.2,129.2z M291.7,124.8c-0.5,1-0.8,2-1.1,3.1l-1.9,9
		c-1.6,7.4-3.3,12.3-5.1,14.9c-3,4.3-5.8,6.4-8.4,6.4c-1.7,0-2.6-1.5-2.6-4.6c0-1.9,0.3-4.4,1-7.4c1.5-7,3-12.7,4.5-17.2
		c0.5-1.5,0.9-3,1.2-4.5c0.1-0.3,0.1-0.6,0.1-0.9c0-1.5-1.1-2.3-3.2-2.3c-1.2,0-2.1,0.5-2.7,1.4c-0.7,0.9-1.3,2.1-1.8,3.6
		c-1.7,4.9-3.4,11.2-5.1,19c-0.7,3.5-1.1,6.4-1.1,8.8v0.5c0.1,5.8,2.5,8.7,7.2,8.7c3.6,0,7.1-1.8,10.5-5.4c0.4-0.4,0.6-0.6,0.8-0.6
		c0.1,0,0.1,0.1,0.1,0.3c0,0.2,0,0.4-0.1,0.8c-0.5,2.3-1.4,5-2.8,8.1c-2.8,6.4-5.9,9.6-9.4,9.6c-1,0-1.6-0.3-2-1
		c-0.4-0.7-0.6-1.4-0.6-2.1c0-0.5,0.1-1.2,0.2-1.8c0.1-0.5,0.2-0.9,0.2-1.2c0-1.3-0.6-1.9-1.9-1.9c-1.1,0-1.9,0.3-2.5,1
		c-0.6,0.6-1,1.4-1.1,2.2c-0.2,0.9-0.3,1.8-0.3,2.6c0,0.5,0,1,0.1,1.5c0.2,1.4,0.7,2.6,1.4,3.7c0.7,0.9,1.6,1.7,2.8,2.2
		c1.2,0.5,2.7,0.8,4.6,0.8c2.8,0,5.2-0.7,7.4-2c2.2-1.4,4-3.1,5.6-5.3c1.6-2.2,2.9-4.6,4.1-7.2c1.1-2.6,2.1-5.2,2.8-7.7
		c0.7-2.6,1.3-4.8,1.7-6.8l5.3-24.7c0.2-1.1,0.4-2,0.4-2.6c0-0.6,0-1,0-1.1c0-0.9-0.2-1.6-0.6-2.1c-0.5-0.6-1.4-1-2.7-1
		c-1.2,0-2.2,0.3-3.1,0.9C292.8,123,292.2,123.8,291.7,124.8z M129,333.8c-2.7-29.7,8.4-44.7,7.3-67.1
		c-0.8-17.4-12.6-25.6-24.5-14.6c-1.4,1.3-2.9,2.8-4.2,4.3c-14.4,16.9-19.8,30.8-25.4,53.1c-0.1-8.6,4.8-43.4,1.2-56.7
		c-1.2-5-5.5-3.1-6.7,0c-9.3,21.3-12.1,53.9-3.1,74.7c3.6,9.1,8.8,5.4,9.5,1.3c0.3-1.2,0.5-2.5,0.7-3.7c2.6-22.3,10.2-43.4,23.2-62
		c2-2.8,4.3-5.1,6.5-7.7c7.6-8.6,12.7-4.6,10.4,5.9c-0.5,2.4-1.2,4.7-2,7.2c-10.1,35.6-10.8,52.2,0.8,71.8c2.9,3.7,9,4.9,6.5-3.2
		C129.2,336.1,129,335,129,333.8z M217.4,240.6c-0.4,0.3-0.7,0.7-1,1c1.1,0.3,2.1,0.6,3.1,0.8c0.6,0.1,1.1,0.2,1.6,0.4
		c2.1-2,4-2,4.7,1c1.2,0.3,2.4,0.5,3.6,0.8C228.2,238.1,223.3,235.4,217.4,240.6z M255.8,320.6c-16.6,22.4-29.3,23.9-34.6,2.8
		c-1.2,6-2,12.8-2.1,18.9c0,8.4-10.3,6.2-11.7-0.2c-1.4-6.3-2.6-14-3.3-22.3c-12.7,26.5-31.7,28.6-28.3-8.3
		c-15.6,28.1-29.5,33.1-35.2,18.9c-4.8-12.1,3.5-35.4,17.5-47.4c9.5-7.9,23-5.5,21,5.5c-0.5,2-3.3,2-2.9-0.1
		c1.2-8.3-4.6-9.1-10.6-3.7c-6.1,5.4-10.8,17.6-12.4,27.8c-5.8,29.9,8.5,16.1,23.6-12.9c0.7-1.2,1.2-2.7,1.7-4.1
		c1.2-3.8,2.5-7.6,3.8-11.3c0.6-1.7,1.3-3.5,2.2-5.1c0.5-1.1,1.5-1.6,2.8-1.7c1.6-0.1,2.7,0.8,2.7,2.5c-0.1,3.2-0.3,6.5-0.6,9.7
		c-0.8,8.2-1.6,16.3-1.6,24.6c-0.8,21.2,7.5,16.3,16,0.2c-1.4-20.9-0.3-44.5,5.4-60.1c1.1,0.2,2.2,0.4,3.3,0.6
		c1,0.2,1.9,0.4,2.9,0.5c-1.2,5.6-1.9,16.3-1.3,30.3c4.4-8.6,8.6-20.5,10.6-28.7c1.1,0.2,2.3,0.3,3.4,0.5c-2.5,9.4-8,23.9-13.6,36.3
		c0,15.5,1,28,2,36.4c1.7-16.1,5.8-37.8,14.2-49.2c2.8-4,5.6-6.1,8.2-6.8l0.2,0.4c0.7,1.2,1.9,1.2,2.4,1.2c0.6,0,2-0.1,3.5-0.2
		c4.7,4.1,6,14.8-0.5,25c-3.8,5.4-8.6,9.7-14.9,12.2c-0.8,0.4-2,0.8-3.1,1.2c5.4,19.7,12.3,22.9,29.1,1.2
		c0.4-16.1,9.7-33.4,23.2-37.5c6.9-1.6,12.5,3.1,12,10.2c-0.6,13.8-14.1,24.3-23.2,26.5c2.1,32.9,20.3,20.6,32.1-1.2
		c2.3-19.6,17.8-39,33.6-25c-0.6-18.7,5.7-41,14.1-48.7c6.4-6,13.6-3.3,14.3,8.4c0.5,11.1-7.4,30.2-15.2,45.7
		c0.1,36.4,8.1,50.4,17,22.5c0.8-1.7,2.8-1.4,2.8,0c-6.6,29.9-23.4,34.1-29.9,5.5c-1.1,2.5-5.9,8.9-10.3,12.9
		c-7.6,6.9-19.9,3.9-24.5-5.6c-1.1-2.2-1.6-4.4-2-6.8c-0.1-0.5-0.1-1-0.1-1.5c-12.7,24.9-36.9,27.4-43.3,2.7
		C256,322.5,255.9,321.5,255.8,320.6z M346.1,285c7.4-15.5,11.4-27.7,10.9-38.4c0-7.3-3.7-8.4-6.4-0.7
		C347.3,254.8,345.7,268.9,346.1,285z M322.2,329.6c4.5-3.5,10-9,12.9-14.2c-0.9-6.9-1.7-15.4-1.8-22.8
		C307.9,275.1,302.8,342.9,322.2,329.6z M268.4,309.7c5.7-1.1,10.4-6.7,12.7-11.2c5.4-10.5,1.7-22.2-5.4-12.1
		C271.5,291.9,268.4,299.1,268.4,309.7z M224.9,308.6c4-2.7,8.2-6.7,11.1-10.5c11.8-15.1,6.1-26.2-1.7-15.3
		C229.8,289.8,226.3,299.8,224.9,308.6z M249.3,272.8c5.9-1.4,11.6-3.2,17.3-5.2c4.6-1.7,9.1-3.6,13.5-5.7c2.8-1.3,7.8-2.5,10-4.3
		c-2.4-1.7-6-2.2-8.7-3.4c-3.1-1.4-5.8-3.3-8.6-5.1c-4.9-3.1-9.6-6.7-13.5-10.9c-0.7-0.7-7.8-8.7-8.6-8.1c-0.7,3.4,1.1,8.2,2.2,11.5
		c0.8,2.5,3.7,7.8-0.6,9c-2,0.5-6.4,0-8.4-0.4c-10.9-2.3-16.2-3.3-24.9-5.3c-9-2.1-21.5-6.7-30.3-9.4c-14.4-4.4-24.8-8.5-38.6-14.5
		c-8.1-3.5-15.4-8-22.6-12.9c-3.5-2.3-7-4.4-10.6-6.4c-2.6-1.4-5.1-5.3-8.3-5.2c-0.2,0-0.4,0-0.6,0.1c-2.4,0.8,2.1,5.8,2.7,7.1
		c1.7,3.6,7.8,10.4,6.5,14.4c-10.1-0.1-20.3-7.7-30.2-6.4c0.3,2.5,2.9,2.6,4.7,3.7c2.3,1.3,4,3.5,6.4,4.7
		c16.8,9.1,34.9,14.3,53.4,19.2c8.6,2.3,17.1,4.8,25.7,7c9.4,2.4,18.9,3.3,28.4,4.9c9,1.6,18,3.5,27.2,4.3c6.3,0.6,13.2,0.2,19.3,2
		c-0.8,5.8-7.9,11-11,15.8C240.9,273.5,248.4,273,249.3,272.8z M96,177.9c0.5,2.5,3.6,3.5,5.8,3.6c4.3,0.2,6.8-3.2,6.3-7.4
		C107.2,166.8,94.7,171.2,96,177.9z M122.2,157.6c2.4-0.3,5.2,0.1,6.9,2c0.9,1,2.1,3.8,1.5,5.5c-0.2,0.5-0.5,0.9-1,1.2
		c-1.4,0.7-2.8-0.2-4.1-0.5c-2-0.4-4.4-0.4-6.4-0.2c-1.2,0.1-2.5,0.4-3.7,0.7c-1.8,0.5-3.1,1.6-4.8,2.3c-3,1.2-2.5-1.5-1.4-3.2
		C111.8,161,117.2,158.2,122.2,157.6z M124.1,162.9c0.1,0.1,0.1,0.1,0.2,0.2c0.6,0.5,1.5,0.8,2.1,0.4c1.1-0.7,0.2-2.2-0.7-2.7
		C124.3,160.3,123.1,161.7,124.1,162.9z M118.5,162.8c1.4,1.6,3.2-1,1.5-1.8c0,0,0,0-0.1,0C119,160.6,117.8,161.9,118.5,162.8z
		 M114.5,164.8c1.1-0.1,1.1-1.6,0-1.7c-0.1,0-0.2,0-0.3,0C113.3,163.5,113.4,164.9,114.5,164.8z M118.4,138.7c3.8,4.6-5.1,9.8-8,14
		c-2,2.8-3.7,5.8-5,9c-0.4,0.9-0.8,3.5-1.5,4.2c-0.9,0.8-1.4-0.4-1.6-1.3c-0.1-1.1,0-2.4,0.1-3.6c0.1-2.4,0.5-4.8,1-7.2
		C104.5,148.2,110.2,128.6,118.4,138.7z M106.1,153.3c-0.4-0.1-0.9,0.1-1.1,0.6c-0.7,1.3,1.4,1.9,1.8,0.5
		C107,153.8,106.6,153.4,106.1,153.3z M110.6,147.5c-0.2-0.8-0.7-1.2-1.1-1.2c-1.2-0.1-2.6,2-1.4,2.9
		C109.5,150.2,111.1,149.1,110.6,147.5z M115.1,140.5c-0.1-0.2-0.3-0.3-0.4-0.5c-1.4-1.1-3.6,1.1-3.2,2.7
		C112.4,145.8,116.8,143.1,115.1,140.5z M91.9,129.9c5.5,3.5,5,11.8,4.8,17.2c-0.1,4.1,0.1,8.2,0.8,12.2c0.2,1,2.3,8.7,0,8.2
		c-1.6-0.3-3.2-3.3-3.9-4.6c-1.3-2.4-2.5-4.8-3.5-7.3c-2-5.2-3.4-10.6-4.1-16.1C85.5,134.8,85.7,126,91.9,129.9z M93.3,154.4
		c1,0.5,2-0.4,1.8-1.5c-0.1-0.9-0.7-1.2-1.3-1C92.7,152.2,91.7,153.7,93.3,154.4z M92.4,143.1c0,0-0.1,0-0.1,0
		c-1-0.2-1.8,0.6-1.8,1.6c0,1,0.8,1.6,1.8,1.5C93.8,146.1,93.8,143.6,92.4,143.1z M89.5,137.6c1.1,1,2.4,0.7,3-0.3
		c0.4-0.6,0.5-1.4,0.1-2.2c-0.4-0.9-1.1-1.3-1.7-1.3C89.2,133.8,87.5,135.8,89.5,137.6z M80.6,170.4c-3.6,0.1-5.6-1.4-5.5-5.2
		c0.2-5.6,5.2-5.4,9.1-3.4c2.3,1.2,4.1,2.8,5.9,4.6c1.5,1.4,3.4,2.8,3.5,5.1c-1.7,0.8-4.1-0.9-5.9-1.1
		C85.4,170.1,83,170.4,80.6,170.4z M86.7,168.2c1.5,0.6,1.6-1.8,0.3-1.8c0,0-0.1,0-0.1,0C85.9,166.5,85.8,167.8,86.7,168.2z
		 M82.2,164.3c-1.6-0.8-4.3,1.9-2.1,3C81.9,168.2,84.1,165.2,82.2,164.3z M83.4,177.5c1.6-1.3,7.9-3,9.5-0.8c1,1.3-1.8,2.3-2.5,3.2
		c-0.9,1.2-1.5,2.5-2.2,3.8c-1.4,2.6-3.2,5.1-6.2,2.9C79,184.6,81.1,179.3,83.4,177.5z M87.6,179.4c1,0.3,1.3-1.4,0.4-1.6
		C86.9,177.5,86.5,179.2,87.6,179.4z M84.7,183.5c1.3-0.2,1.9-2.9,0.3-3.1C83.6,180.2,82.4,183.9,84.7,183.5z M334.6,171.6
		c4.3,0.2,6.8-3.2,6.3-7.4c-0.9-7.4-13.5-3-12.1,3.7C329.3,170.5,332.4,171.5,334.6,171.6z M355,147.7c2.4-0.3,5.2,0.1,6.9,2
		c0.9,1,2.1,3.8,1.5,5.5c-0.2,0.5-0.5,0.9-1,1.2c-1.4,0.7-2.8-0.2-4.1-0.5c-2-0.4-4.4-0.4-6.4-0.2c-1.2,0.1-2.5,0.4-3.7,0.7
		c-1.8,0.5-3.1,1.6-4.8,2.3c-3,1.2-2.5-1.5-1.4-3.2C344.6,151.1,350,148.3,355,147.7z M356.8,153c0.1,0.1,0.1,0.1,0.2,0.2
		c0.6,0.5,1.5,0.8,2.1,0.4c1.1-0.7,0.2-2.2-0.7-2.7C357,150.4,355.8,151.8,356.8,153z M351.3,152.9c1.4,1.6,3.2-1,1.5-1.8
		c0,0,0,0-0.1,0C351.7,150.7,350.5,152,351.3,152.9z M347.2,154.9c1.1-0.1,1.1-1.6,0-1.7c-0.1,0-0.2,0-0.3,0
		C346.1,153.5,346.1,155,347.2,154.9z M351.2,128.8c3.8,4.6-5.1,9.8-8,14c-2,2.8-3.7,5.8-5,9c-0.4,0.9-0.8,3.5-1.5,4.2
		c-0.9,0.8-1.4-0.4-1.6-1.3c-0.1-1.1,0-2.4,0.1-3.6c0.1-2.4,0.5-4.8,1-7.2C337.3,138.3,343,118.7,351.2,128.8z M338.9,143.4
		c-0.4-0.1-0.9,0.1-1.1,0.6c-0.7,1.3,1.4,1.9,1.8,0.5C339.7,143.9,339.4,143.5,338.9,143.4z M343.4,137.6c-0.2-0.8-0.7-1.2-1.1-1.2
		c-1.2-0.1-2.6,2-1.4,2.9C342.3,140.3,343.8,139.1,343.4,137.6z M347.8,130.6c-0.1-0.2-0.3-0.3-0.4-0.5c-1.4-1.1-3.6,1.1-3.2,2.7
		C345.1,135.9,349.6,133.2,347.8,130.6z M326.4,153.1c-1.3-2.4-2.5-4.8-3.5-7.3c-2-5.2-3.4-10.6-4.1-16.1c-0.5-4.7-0.3-13.6,5.9-9.6
		c5.5,3.5,5,11.8,4.8,17.2c-0.1,4.1,0.1,8.2,0.8,12.2c0.2,1,2.3,8.7,0,8.2C328.7,157.4,327.1,154.4,326.4,153.1z M325.2,127.4
		c0.4-0.6,0.5-1.4,0.1-2.2c-0.4-0.9-1.1-1.3-1.7-1.3c-1.6,0-3.3,2-1.4,3.8C323.4,128.7,324.6,128.3,325.2,127.4z M324.9,136.3
		c1.7-0.1,1.7-2.6,0.2-3.1c0,0-0.1,0-0.1,0c-1-0.2-1.8,0.6-1.8,1.6C323.1,135.7,324,136.3,324.9,136.3z M327.8,143.1
		c-0.1-0.9-0.7-1.2-1.3-1c-1.1,0.3-2.1,1.8-0.5,2.5C327.1,145,328,144.2,327.8,143.1z M326.4,161.7c-1.7,0.8-4.1-0.9-5.9-1.1
		c-2.4-0.3-4.7-0.1-7.1,0c-3.6,0.1-5.6-1.4-5.5-5.2c0.2-5.6,5.2-5.4,9.1-3.4c2.3,1.2,4.1,2.8,5.9,4.6
		C324.4,158,326.3,159.3,326.4,161.7z M314.9,154.4c-1.6-0.8-4.3,1.9-2.1,3C314.7,158.3,316.9,155.3,314.9,154.4z M319.8,156.4
		C319.8,156.4,319.7,156.5,319.8,156.4c-1.1,0.1-1.2,1.5-0.3,1.8C321,158.9,321.1,156.4,319.8,156.4z M325.6,166.8
		c1,1.3-1.8,2.3-2.5,3.2c-0.9,1.2-1.5,2.5-2.2,3.8c-1.4,2.6-3.2,5.1-6.2,2.9c-2.9-2.1-0.7-7.3,1.5-9.1
		C317.8,166.3,324,164.6,325.6,166.8z M317.8,170.5c-1.4-0.2-2.6,3.5-0.3,3.1C318.7,173.3,319.3,170.7,317.8,170.5z M320.7,167.9
		c-1-0.3-1.4,1.4-0.4,1.6C321.4,169.7,321.6,168.1,320.7,167.9z M304.5,214.5c1.6,1.6,3.5,2.9,5.5,4c2.7,1.6,5,4,6.9,6.3
		c0.6,0.7,1.1,1.7,2,2.2c0.1,0.1,0.3,0.1,0.5,0.2c1.3,0.3,1.5-2,1.8-2.9c0.5-1.7,0.8-3.7,1.9-5.2c1.1-1.4,2.5-2.5,3.5-3.9
		c0.6-0.9,0.8-2.1,1.3-3c0.6-1,0.6-2.6,0.9-3.8c0.3-1.3,0.7-2.6,0.9-3.9c0.3-2,0.2-3.8-1.3-5.1c-1.2-1.1-3-1.6-4.6-2
		c-1.4-0.3-2.1-0.5-3.3,0.2c-1.5,0.9-3,2-4.2,3.4c-0.9,1.1-1.2,2.7-1.5,4.1c-0.4-0.6-1-1.1-1.4-1.8c-0.3-0.5-0.4-0.9-1-1.3
		c-1-0.7-2.3-1-3.5-1.3c-1.5-0.4-3.7-0.6-5.2-0.2c-1.8,0.5-3.1,1.8-3.5,3.7c-0.5,2.1,0.3,4.1,1.3,5.9
		C302.4,211.6,303.2,213.2,304.5,214.5z M269.3,204c-0.2-1.4-1-2.4-2.3-3c-1.3-0.6-2.7-0.8-3.6,0.5c-0.7,1-0.7,2.5-0.7,3.7
		c0,1.8-0.1,3.6,0.1,5.3c0.3,3,0.4,6,1.1,8.9c0.2,0.9,0.4,2,1.5,2.2c0.2,0,0.5,0.1,0.7,0.1c1.2,0,2.5-0.3,3.7-0.6
		c2.1-0.5,4-1.5,5.9-2.4c1.6-0.8,2.9-1.6,4.1-3c0.9-1,1.7-2.2,2.2-3.4c0.5-1.2,0.9-3.6,0.3-4.8c-0.6-1.2-2.3-1.6-3.5-1.6
		c-1.4,0-2.8,0.3-4.1,0.3c-1.3,0-2.3,0.7-3.4,1.3c-0.8,0.5-1.7,0.3-1.8-0.8C269.2,205.8,269.4,204.9,269.3,204z M293.2,194
		c0.6-0.7,1-1.1,0.8-2.1c-0.2-0.8-1.5-1.9-2.3-1.9c-1.5-0.1-2.7,2.6-4.2,2.9c-0.3,0.1-0.7,0-1-0.3c-0.5-0.4-0.8-1.1-1.4-1.5
		c-1.3-1-4-2.1-5.1-0.2c-1.4,2.5,0.4,5.3,1.9,7.3c1.1,1.5,2.1,3.1,3.4,4.3c1.8,1.7,3.1-0.4,4-1.9c0.4-0.7,0.7-1.4,1.1-2.1
		C291.3,196.9,292,195.3,293.2,194z"/>
</g>
</svg>
