<?xml version="1.0" encoding="utf-8"?>
<!-- Generator: Adobe Illustrator 18.0.0, SVG Export Plug-In . SVG Version: 6.00 Build 0)  -->
<!DOCTYPE svg PUBLIC "-//W3C//DTD SVG 1.1//EN" "http://www.w3.org/Graphics/SVG/1.1/DTD/svg11.dtd">
<svg version="1.1" id="Layer_1" xmlns="http://www.w3.org/2000/svg" xmlns:xlink="http://www.w3.org/1999/xlink" x="0px" y="0px"
	 viewBox="0 0 432 432" enable-background="new 0 0 432 432" xml:space="preserve">
<path fill="#333333" d="M70.4,273.7c57.1,0,97.4-147.5,26.4-157.3c-24.2-3.3-40,12.9-47.2,33.7C19.1,191.8,14.3,273.7,70.4,273.7z
	 M49.6,202.8c5.1,12.2,14,20.7,27.2,20.7c5.4,0,4.5-2.7,6.7-4.8c1.3-1.3,3.5-0.2,6-3.7c2.2-3.5,2.1-6,1.3-6c-2.1,0-4,3.8-12.4,3.8
	c-15.4,0-20-18.9-17.2-39.3c3-5.7,6-10.3,8.7-13.2c1.9-1.9,1-7.3-1.3-12.1c6.2-13.2,15.6-23.2,26.9-23.2c49,0,12.4,137.3-34.3,137.3
	C39.9,262.4,41.4,231.3,49.6,202.8z M209.3,174c0,15.9-26.9,63.4-52.4,70.9c-6.2,1.7-18.3-6.8-18.3-17.6c0-17.8,14.9-57.4,19.2-61.5
	c0.8-0.8,23.5,4.5,16.8,11.3c-4.5,4.5-31,56.9-19.1,56.9c16.7,0,44.8-62.3,44.8-73.7C200.4,155.9,209.3,164.8,209.3,174z
	 M374.3,219.3c0-18.4-18.6-39.6-1.1-57.1c4-4-12.1-11.9-15.3-8.6c-7.6,7.6-11.1,14.3-12.1,20.7l-8.9,17.8l0,0c0,0,0,0-0.1,0.1
	l-0.3,0.5l0,0c-2.4,5-18.5,38.8-27.2,38.8c-14.1,0,9.7-49.7,14-54.2c6.7-6.5-14.6-11.8-16.7-11.3c-2.1,0.5-14.9-0.2-16.8-0.6
	c0,0,2.4-8.4,6-12.1c2.7-2.7-11.8-5.6-14.6-2.7c-1.7,1.9-8.1,18.8,0.2,19.4c-2.9,6.5-8.1,18-10.3,22.7
	c-6.7,13.7-22.9,43.9-41.6,43.9c-7,0-7.2-10-4.3-21.8c14.9-3.8,32.3-20.8,32.3-33.4c0-10.8-22.6-21.3-31.2-12.7
	c-11,11-19.5,37.7-19.5,56.9c0,15.6,13,19.4,20,19.4c24.2,0,41.2-32.4,48.8-47.7c2.7-5.6,8.7-19.2,12.1-26.7
	c5.7,0.8,14.1,1.6,15.7,0.8c-5.9,12.4-15.9,41.5-15.9,56.1c0,10.8,12.4,19.7,18.3,17c7.4-3.6,14.1-11,19.7-18.9
	c2.2,8.4,7.6,19.6,21.5,19.6C360.8,245.2,374.3,233.8,374.3,219.3z M245.3,175.8c6.7,0-4.6,28.3-18.4,33.4
	C231.8,193,241,175.8,245.3,175.8z M331.1,216.9c6.3-10.7,10-20.2,10-20.2l-0.1-0.1l5.3-11.1c2.7,12.4,11.3,23.8,11.3,38.1
	c0,11.1-4.6,14.5-10.6,14.5C332.3,238.1,331.2,219.6,331.1,216.9z M20.6,287.6c-0.6-3.1,1.2-5.6,4.3-6c1.9-0.2,3.7,0.1,5.4,1
	c0.9,0.5,1.8,1.1,2.7,1.7c0.2,0.1,0.4,0.3,0.7,0.5c0-0.7,0-1.3,0-1.8c-0.1-1.8,0-3.5,0.4-5.2c0.1-0.3,0.2-0.5,0.2-0.8
	c1.4-4.3,6.1-5,9-3.3c1.4,0.9,2.5,2,3.3,3.5c1,1.7,1.5,3.6,1.9,5.5c0.6,3.3,0.5,6.6,0,10c-0.3,1.8-0.7,3.6-1.3,5.4
	c-0.4,1.2-1.1,2.3-1.8,3.4c-0.4,0.7-1.1,1-1.8,1.3c-1.5,0.6-3,0.6-4.5,0.4c-5.5-0.8-12.6-4.9-16-10.3
	C21.8,291.1,21,289.4,20.6,287.6z M417.2,319.8c-0.3,1.8-0.7,3.6-1.3,5.4c-0.4,1.2-1.1,2.3-1.8,3.4c-0.4,0.7-1.1,1-1.8,1.3
	c-1.5,0.6-3,0.6-4.5,0.4c-5.5-0.8-12.6-4.9-16-10.3c-1-1.6-1.9-3.3-2.3-5.2c-0.6-3.1,1.2-5.6,4.3-6c1.9-0.2,3.7,0.1,5.4,1
	c0.9,0.5,1.8,1.1,2.7,1.7c0.2,0.1,0.4,0.3,0.7,0.5c0-0.7,0-1.3,0-1.8c-0.1-1.8,0-3.5,0.4-5.2c0.1-0.3,0.2-0.5,0.2-0.8
	c1.4-4.3,6.1-5,9-3.3c1.4,0.9,2.5,2,3.3,3.5c1,1.7,1.5,3.6,1.9,5.5C417.8,313.1,417.7,316.4,417.2,319.8z M403.7,207
	c1.4,0.9,2.5,2,3.3,3.5c1,1.7,1.5,3.6,1.9,5.5c0.6,3.3,0.5,6.6,0,10c-0.3,1.8-0.7,3.6-1.3,5.4c-0.4,1.2-1.1,2.3-1.8,3.4
	c-0.4,0.7-1.1,1-1.8,1.3c-1.5,0.6-3,0.6-4.5,0.4c-5.5-0.8-12.6-4.9-16-10.3c-1-1.6-1.9-3.3-2.3-5.2c-0.6-3.1,1.2-5.6,4.3-6
	c1.9-0.2,3.7,0.1,5.4,1c0.9,0.5,1.8,1.1,2.7,1.7c0.2,0.1,0.4,0.3,0.7,0.5c0-0.7,0-1.3,0-1.8c-0.1-1.8,0-3.5,0.4-5.2
	c0.1-0.3,0.2-0.5,0.2-0.8C396.1,206,400.8,205.2,403.7,207z M19.9,330.1c-0.6-0.4-1.2-1-1.6-1.6c-1.8-2.5-3.1-5.3-3.8-8.3
	c-0.2-0.9-0.2-1.8,0-2.7c0.4-1.9,2.3-2.8,4.1-2c0.8,0.4,1.5,1,1.9,1.8c0.5,1,1,2,1.4,3.1c0.1,0.3,0.2,0.7,0.4,1.1
	c0.2-0.3,0.3-0.5,0.5-0.7c0.8-1.1,1.6-2.2,2.7-3.1c0.6-0.5,1.3-0.9,2.1-1.1c2-0.5,3.7,0.9,3.6,3c0,0.6-0.2,1.2-0.4,1.7
	c-1.1,2.8-2.6,5.2-4.7,7.4c-0.6,0.6-1.4,1.2-2.1,1.7C22.7,331.1,21.2,331.1,19.9,330.1z M397.8,184.5c0,0.6-0.2,1.2-0.4,1.7
	c-1.1,2.8-2.6,5.2-4.7,7.4c-0.6,0.6-1.4,1.2-2.1,1.7c-1.4,0.9-2.8,0.8-4.2-0.1c-0.6-0.4-1.2-1-1.6-1.6c-1.8-2.5-3.1-5.3-3.8-8.3
	c-0.2-0.9-0.2-1.8,0-2.7c0.4-1.9,2.3-2.8,4.1-2c0.8,0.4,1.5,1,1.9,1.8c0.5,1,1,2,1.4,3.1c0.1,0.3,0.2,0.7,0.4,1.1
	c0.2-0.3,0.3-0.5,0.5-0.7c0.8-1.1,1.6-2.2,2.7-3.1c0.6-0.5,1.3-0.9,2.1-1.1C396.2,181,397.9,182.4,397.8,184.5z M81.9,284.5
	c0,0.6-0.2,1.2-0.4,1.7c-1.1,2.8-2.6,5.2-4.7,7.4c-0.6,0.6-1.4,1.2-2.1,1.7c-1.4,0.9-2.8,0.8-4.2-0.1c-0.6-0.4-1.2-1-1.6-1.6
	c-1.8-2.5-3.1-5.3-3.8-8.3c-0.2-0.9-0.2-1.8,0-2.7c0.4-1.9,2.3-2.8,4.1-2c0.8,0.4,1.5,1,1.9,1.8c0.5,1,1,2,1.4,3.1
	c0.1,0.3,0.2,0.7,0.4,1.1c0.2-0.3,0.3-0.5,0.5-0.7c0.8-1.1,1.6-2.2,2.7-3.1c0.6-0.5,1.3-0.9,2.1-1.1C80.3,281,82,282.4,81.9,284.5z
	 M121.6,327.6c-0.2-0.9-0.2-1.8,0-2.7c0.4-1.9,2.3-2.8,4.1-2c0.8,0.4,1.5,1,1.9,1.8c0.5,1,1,2,1.4,3.1c0.1,0.3,0.2,0.7,0.4,1.1
	c0.2-0.3,0.3-0.5,0.5-0.7c0.8-1.1,1.6-2.2,2.7-3.1c0.6-0.5,1.3-0.9,2.1-1.1c2-0.5,3.7,0.9,3.6,3c0,0.6-0.2,1.2-0.4,1.7
	c-1.1,2.8-2.6,5.2-4.7,7.4c-0.6,0.6-1.4,1.2-2.1,1.7c-1.4,0.9-2.8,0.8-4.2-0.1c-0.6-0.4-1.2-1-1.6-1.6
	C123.5,333.4,122.3,330.6,121.6,327.6z M172,151.6c-0.2-0.9-0.2-1.8,0-2.7c0.4-1.9,2.3-2.8,4.1-2c0.8,0.4,1.5,1,1.9,1.8
	c0.5,1,1,2,1.4,3.1c0.1,0.3,0.2,0.7,0.4,1.1c0.2-0.3,0.3-0.5,0.5-0.7c0.8-1.1,1.6-2.2,2.7-3.1c0.6-0.5,1.3-0.9,2.1-1.1
	c2-0.5,3.7,0.9,3.6,3c0,0.6-0.2,1.2-0.4,1.7c-1.1,2.8-2.6,5.2-4.7,7.4c-0.6,0.6-1.4,1.2-2.1,1.7c-1.4,0.9-2.8,0.8-4.2-0.1
	c-0.6-0.4-1.2-1-1.6-1.6C174,157.5,172.7,154.7,172,151.6z M113.3,413.9c-6.1,6.2-12.1-2.9-20-13.9c20.2-31.2,24.4-86.1-11.7-90.8
	c-17.1-2.2-30.9,11.5-36.2,27.7c-7.7,12.2-12.6,28.1-13.3,42.8c-4.4,2.1-8.3,4.5-11.1,7.1c-3.4,3.1-0.5,8.9,1.8,6.6
	c0.2-0.2,3.8-2.9,9.4-5.6c1.2,18.6,10.4,33.5,30.5,33.5c8.2,0,15.9-4.3,22.6-11.1c4.6,8.9,8.6,16.6,16.2,16.6c4,0,7-2.1,8.4-5
	c2.2-4,4-2.4,6.8-5.7C119.2,413.1,117.1,410.2,113.3,413.9z M56.2,413.1c-12,0-13.8-13.8-11.2-29.6c5.5-1,11.4-0.9,17.2,1.3
	c7.3,2.7,12.5,7.8,16.4,13.6C72,407.3,64.3,413.1,56.2,413.1z M84.5,389.1c-5.1-5.6-11-10.5-18.1-12.7c-6.6-2-13.3-2.1-19.7-1.1
	c3.8-14.9,10.5-29.7,15.8-34.9c1.8-1.7,0-7.7-2.7-11.4c4.6-7.8,11.9-13.8,20.9-13.8C104.9,315.1,100.2,360.1,84.5,389.1z
	 M396.4,344.6c3.1-3.1-9.3-9.2-11.7-6.6c-5.9,5.9-8.6,11-9.3,15.9l-6.8,13.7l0,0c0,0,0,0,0,0.1l-0.2,0.4l0,0
	c-1.8,3.9-14.2,29.8-20.9,29.8c-10.9,0,7.5-38.2,10.8-41.7c5.1-5-11.2-9-12.8-8.7c-1.6,0.4-11.5-0.1-13-0.5c0,0,1.8-6.5,4.6-9.3
	c2.1-2.1-9-4.3-11.2-2.1c-1.3,1.5-6.2,14.4,0.1,14.9c-2.2,5-6.2,13.8-7.9,17.5c-5.1,10.5-17.6,33.7-32,33.7c-5.4,0-5.5-7.7-3.3-16.7
	c11.5-2.9,24.8-16,24.8-25.7c0-8.3-17.4-16.4-23.9-9.8c-3.9,3.9-7.5,10.6-10.1,18l0,0c0,0-13.9,30.3-21.3,30.3
	c-7,0,2.4-29,10.9-50.3c6.4,0.4,11,1.1,12,2.1c1.8,1.7,2.7-9.8-0.7-10.4c-1-0.1-3.8-0.2-7.7-0.2c3.1-7.3,5.6-12.6,6.5-13.4
	c5.3-5.3-12.3-9.4-12.9-8.7c-1.1,1.1-4.9,10.4-9,22.1c-5.5,0-11.2,0.1-16.9,0.1c1.3-2.9,2.4-4.9,2.9-5.5c5.3-5.1-10.9-8.8-11.5-8.2
	c-1,1-3.3,6.4-6.1,13.7c-8.3,0-14.3-0.2-14.3-0.6c0-0.1,0-0.1-0.1,0.1c0.8-5.6,5.6-13.3,7.9-15.7c2.8-2.7-9.2-9.4-11.6-6
	c-2.2,3.1-4.6,13.6-4.6,16c0,2.2,6.6,8.4,7.9,7.8c-0.3,2.6,0.1,6.6,4.2,6.6c1,0,3.8-0.1,7.7-0.1c-2.9,7.9-5.9,16.9-8.3,25.1
	c-4.3,8.5-13.5,25.6-18.9,25.6c-10.9,0,7.5-38.5,10.9-41.9c5.1-5.1-12.2-9.3-13-8.7c-1.8,1.8-6.5,12.9-10.1,24.6
	c-4.2,8.4-13.6,26-19.2,26c-10.8,0,7.6-38.2,10.9-41.7c5.3-5.3-12.3-9.3-13-8.7c-1.6,1.6-5.3,10-8.6,19.8v-0.1
	c0,0-14.1,30.3-21.3,30.3c-10.9,0,7.5-38.2,10.8-41.7c5.3-5.1-12.2-9.3-12.9-8.7c-3.2,3.3-14.7,33.6-14.7,47.3
	c0,8.3,9.5,15.1,14.1,13.1c7.3-3.5,13.9-12,18.7-19.9c-0.5,2.7-0.7,5.1-0.7,7.2c0,8.3,9.5,15.1,14.1,13.1c6.9-3.3,13-10.9,17.6-18.4
	c-0.3,1.9-0.4,3.6-0.4,5.2c0,8.4,9.5,15.3,14.1,13.1c6.8-3.2,12.9-10.7,17.5-18.1c-0.3,2-0.5,3.8-0.5,5.1c0,8.3,9.5,15.1,14.1,13.1
	c7.5-3.5,13.9-12.1,18.7-20c-0.5,2.9-0.9,5.3-0.9,7c0,8.3,9.5,15.1,14.1,13.1c7.8-3.8,14.6-13.1,19.5-21.4c-0.3,2.4-0.4,4.7-0.4,6.9
	c0,12,10,14.9,15.4,14.9c18.6,0,31.6-24.9,37.5-36.7c2.1-4.3,6.7-14.8,9.3-20.5c4.4,0.6,10.9,1.2,12.1,0.6
	c-4.5,9.5-12.2,31.9-12.2,43.1c0,8.3,9.5,15.1,14.1,13.1c5.7-2.7,10.9-8.4,15.1-14.6c1.7,6.5,5.9,15,16.5,15c10.6,0,21-8.8,21-19.9
	C397.2,374.3,382.9,358,396.4,344.6z M298,355c5.1,0-3.5,21.7-14.2,25.7C287.6,368.2,294.7,355,298,355z M241.5,367.6
	c-0.5,1.1-14.1,30.3-21.1,30.3c-7.8,0,2.7-32,10.4-50.8c5.6-0.1,11.6-0.1,17.5,0C245.9,353.8,243.5,360.8,241.5,367.6z M376.2,402.9
	c-11.3,0-12.1-14.2-12.2-16.3c4.8-8.3,7.7-15.6,7.7-15.6l0,0l4.1-8.5c2.1,9.5,8.7,18.3,8.7,29.3
	C384.4,400.3,380.9,402.9,376.2,402.9z M98.5,298c0.1,1.4,0.3,2.7,0.6,4c0,0.3,0.2,0.8,0.5,1c0.2,0.2,0.6,0.2,0.8,0.2
	c0.1,0,0.4-0.3,0.4-0.5l0.6-3.7c1.2-7.3,2.9-17,4-20.9c8.7-4.7,10.9-5.9,16.8-6.3c2.3,14.6,3.4,27.2,4.2,36.4c0.6,7,6.1,1.7,6.9-2.2
	c0.8-5.7-0.7-21.5-5-40c-0.5-2.1-1.1-4.1-1.7-6.1c-4.8-16.7-16.4-10-22.3,6.7c-1,2.7-2.4,7.4-3.5,10.5c-2.6,2.2-6.1,5.5-7.9,7.7
	c-2.1,2.8-1.6,5.4,1.9,1.6c1.1-1.2,2.4-2.2,3.7-3.3c0.1-0.1,0.7-0.5,1.2-0.8c-0.2,0.8-0.3,1.9-0.4,2.2
	C98.4,288.8,98.4,293.4,98.5,298z M119.8,257.3c0-0.1,1.4,8.5,1.8,11.2c-1.6,0.3-4,0.5-5.4,0.9c-5.2,1.5-6.9,2.2-9.5,3.7
	C109.4,259.5,117.3,245.7,119.8,257.3z M100.5,281.5C100.5,281.5,100.5,281.5,100.5,281.5C100.4,281.5,100.5,281.5,100.5,281.5z
	 M187.4,297.5c-0.2-0.1-0.5-0.1-0.7,0.1c-0.2,0.2-0.4,0.5-0.5,0.8c-3,6-6.9,8.7-10.6,8.7c-6,0-11.7-6.9-13.8-17.4
	c0.6-0.2,1-0.3,1.3-0.5c2.2-0.8,4.5-1.6,6.7-2.7c10.6-5,15.1-15.5,15.1-24.4c0-8.1-3.7-14.6-9.6-14.9c-15.5-0.7-21.1,26.8-21.1,45.3
	c0,3.1,0.1,6.2,0.1,9.3c-3-9.7-3.9-20.6-3.9-30.9c0-7,0.4-13.8,0.7-19.8c0.1-2.4-0.7-3.5-1.6-3.5c-0.9,0-2,1-2.5,3.1
	c-2.3,8.9-3.8,18.7-3.8,28.6c0,10.3,1.6,20.7,5.8,30.3c0.7,1.6,1.6,3.1,2.5,4.6c0.7,1.4,1.8,2.1,2.8,2.1c1.3,0,2.5-1,2.7-3.1
	c0.1-2-0.1-8.5,0.5-15.8c2,9.3,8.3,13.5,14.7,13.5c6.6,0,13.3-4.6,15.5-12.9C187.7,297.7,187.6,297.5,187.4,297.5z M174.3,250.5
	c2.9,0,4.4,3.1,4.4,7.5c0,8.8-6.1,23-20.6,30.1C158.5,272.6,162.8,250.5,174.3,250.5z M191.2,267.7c-0.1,0.2,2.3-6.7,3.6-9.1
	c-2.8,0.1-4,0.2-5.5-0.1c-0.4-0.1-0.4-0.8-0.1-1c1.3-0.8,5.7-1.8,7.2-2c0.8-1,3.2-1.7,4.6-0.8l2-0.4c4.2-0.7,8.5-0.9,12.8-0.7
	c0.8,0,1.7,0.2,2.5,0.4c2,0.8,2.2,2-0.4,2.9c-1.3,0.4-2.7,0.4-4,0.2c-4.2-0.6-9.6-0.1-13.8,0.6c-0.3,1-0.5,2.1-0.5,2.7
	c-1.6,9.2-1.8,9.3-2.1,18.7l8.3-0.7c0.8-0.1,2.7,0.1,3.7,0.9c0.5,0.4,0.5,1.2-0.1,1.6c-0.7,0.5-1.4,0.8-2.2,0.8
	c-6.3,0.3-8.5,0.4-9.5,0.5c-0.1,0.9,0,2.2,0,2.6c0.2,5.7,1.8,14.3,4.6,19.1c4,7.4,8.5,6.5,15.1,1.7c0.5-0.4,0.9-0.9,1.3-1.4
	c0.3-0.3,0.5-0.6,0.8-0.8c0.4-0.3,0.9-0.4,1.3,0c0.3,0.2,0.5,0.7,0.4,1c-0.1,0.7-0.2,1.3-0.6,1.8c-7,8.4-16.1,8.8-24.5,2.2
	C187.2,300.8,186.5,281.3,191.2,267.7z M265.8,251.2c-0.8,6.5-1.2,15.1-1.3,19.7c3.7-0.7,6.2-1.1,11.2-0.6c1,0.1,1.9,0.4,2.7,0.9
	c1.4,1,0.7,2.4-1.5,2.9c-1.2,0.3-2.3,0.5-3.5,0.3c-2.6-0.5-6.2,0.3-8.8,0.9c-0.1,5.4,0.5,19.2,0.9,27.1c0.2,3.6-4.6,8.1-7.4-0.5
	c-3.9-16.1-4-31.8,1.4-47l0.7-2.4c-1.7,0.9-4.6,2.6-5.9,3.5c-0.8,0.5-1.7,0.8-2.7,0.6c-1.2-0.4-0.5-1.5,0.3-2.5
	c1.2-1.4,2.7-2.4,4.4-3.3c5-2.8,13.1-4.6,21.1-4.9c1.4-0.1,2.7,0.1,4,0.1c4.1,0.6,3.7,3.6-0.4,3.9H278
	C274.6,249.9,269.5,250.1,265.8,251.2z M306.2,257.1c-6.7,17-6.5,48,7.4,48c22.2,0,25.9-58.5,0.8-58.5c-16.4,0-27.2,16.8-27.2,35.6
	c0,0.8,0,1.7,0.1,2.5c0,0.2,0.1,0.5,0,0.7c-0.1,0.2-0.2,0.5-0.4,0.5c-0.2,0.1-0.5,0.1-0.7-0.1c-0.3-0.2-0.6-0.5-0.7-0.8
	c-0.3-2-0.4-4-0.4-5.9c0-18.6,11.9-34.9,29.1-34.9c31.5,0,27.2,65.8-2.5,65.8c-19.3,0-24-26.4-14.4-46c1.4-3.1,3.1-6.1,5.5-8.5
	l1.2-1.2c0.4-0.4,1.1-0.7,1.8-0.7c0.8,0,1.4,0.4,1.2,1.3C306.7,255.6,306.5,256.3,306.2,257.1z M352.7,314.1
	c0.7,1.4,1.8,2.1,2.8,2.1c1.3,0,2.5-1,2.7-3.1c0.1-2-0.1-8.5,0.5-15.8c2,9.3,8.3,13.5,14.7,13.5c6.6,0,13.3-4.6,15.5-12.9
	c0-0.1-0.1-0.4-0.3-0.4c-0.2-0.1-0.5-0.1-0.7,0.1c-0.2,0.2-0.4,0.5-0.5,0.8c-3,6-6.9,8.7-10.6,8.7c-6,0-11.7-6.9-13.8-17.4
	c0.6-0.2,1-0.3,1.3-0.5c2.2-0.8,4.5-1.6,6.7-2.7c10.6-5,15.1-15.5,15.1-24.4c0-8.1-3.7-14.6-9.6-14.9c-15.5-0.7-21.1,26.8-21.1,45.3
	c0,3.1,0.1,6.2,0.1,9.3c-3-9.7-3.9-20.6-3.9-30.9c0-7,0.4-13.8,0.7-19.8c0.1-2.4-0.7-3.5-1.6-3.5s-2,1-2.5,3.1
	c-2.3,8.9-3.8,18.7-3.8,28.6c0,10.3,1.6,20.7,5.8,30.3C350.8,311.1,351.7,312.6,352.7,314.1z M375.4,250.5c2.9,0,4.4,3.1,4.4,7.5
	c0,8.8-6.1,23-20.6,30.1C359.6,272.6,363.9,250.5,375.4,250.5z M117.7,94.1c-0.8-17.8,5.5-45.4,14.5-63.1c4.6-8.6,10.5-5.1,8.8,6.9
	c-4.8,32.9-11,78.3,2.4,93.9c5.8,6.6,17.5,1.3,22-7.6c4-7.9,7.5-7.2,4.6,0.1C150.5,157.8,120.4,138.9,117.7,94.1z M226.3,113.2
	c0.3,4.5,0.7,8.9,1.4,13.2c-0.8,0.5-1.6,1-2.3,1.4l-5.8,4c-5.2,4.5-1.9,7.3,3.1,4.5c1.4-0.7,4.8-2.4,6.3-3.3c1,3.6,3,9.9,5.1,13.1
	c4.1,8.5,16.1,10,19.3,2.6c3.1-9.2-1-22.4-11.9-25.2c5.8-3.5,13.3-9.2,21-14.9c0.6,9.6,2.1,17.9,4.8,23c9,18.1,30.6-1,37.8-22.9
	c2.5-7.6-1.7-9-5.3,0c-5.5,13.8-15.7,27.1-19.5,18.2c-4.6-10.8-1.1-49.7,4.1-85.5c10-4.7,26.7-11.7,35.5-8.3
	c3.9,1.4-0.6,4.6,2.6,5.5c6.4,2.2,13.5-7.5,4-11.7c-9.8-4.9-32.3,5.4-41.3,9.2c1.4-8.9,3-20.8,2-27.8c-0.6-3.9-4.1-4.8-6.9,1.2
	c-3.6,8.5-8.7,23.2-11.1,32.3c-0.8,0.4-1.6,0.8-2.4,1.2c1-4,1.5-8,1.5-11.9c0-9.6-7.3-12.6-14.4-7.9c-10.2,6.5-19.1,23.1-22.8,37
	c-3.8,14.6-5.5,30.3-5.2,45.4c-13.9,25.3-35,39.3-37.4,1c10.7-2.5,26.5-14.9,27.2-31.1c0.6-8.3-6-13.8-14.1-11.9
	c-18.5,5.5-30.5,32.5-26.5,53.5C182.7,146.1,211.5,142.9,226.3,113.2z M245.5,143.2c-2.4-3.5-2.9-10-3.6-14.1
	C248.7,129.4,249.1,146.8,245.5,143.2z M255.8,28.4c4.7-6.9,7.9-3.7,8.5,3.6c0.3,4-0.4,8.3-1.7,12.6c-4.5,1.3-7,0.3-6.5-2.7
	c0.6-3.6,0.1-7-2.8-5.7c-0.9,0.4-1.6,1-2.3,1.6C252.5,34.2,254,31,255.8,28.4z M243,75.2c1.2-9.9,3-21,5.8-30.6
	c0.6,2.5,2.9,4.7,6.8,4.9c1.9,0.2,3.6,0,5.4-0.4c-3.7,9.4-9.9,18.9-16.2,26.6c-0.4,0.5-0.8,1.2-2,2.5C242.8,76.8,243,75.7,243,75.2z
	 M241.7,85.8c2.4-3.1,5.9-7.7,7.8-9.9c6.7-8,12.6-17.9,16-28.1c0.7-0.3,1.4-0.5,2.2-0.8l-0.6,2.8c-3.4,14.6-5.5,36.2-4.9,54.2
	c-6.8,4.8-14.2,10.1-21.1,14.4C240.2,108.5,241,92.6,241.7,85.8z M198.1,73.7c8.4-11.8,12.8,1.9,6.4,14.2
	c-2.8,5.3-8.2,11.8-14.9,13.1C189.5,88.6,193.2,80.1,198.1,73.7z M347,109c1.5,1,2.8,2.2,4.2,3.3c-1.8,0.7-3.7,1.6-5.7,1.7
	C346.2,112.4,346.6,110.7,347,109z M352.3,111.3c-1.5-1.2-2.9-2.4-4.4-3.4c1.5-0.7,3-1.5,4.4-2.5
	C352.6,107.3,352.8,109.3,352.3,111.3z M335.9,77.8c6.1,8.3,23,14,23.8,14.4c3.2,1.5-4.2,11.5-14.7,15.3c-1.3,0.5-2.5,0.7-3.6,1.3
	c-9.6-22.7-12-20.7-14.4-27.1c1.4,0.3,3,0.9,4.3,0.2C333.1,80.9,333.2,74.2,335.9,77.8z M366.6,137.3c0.2,1.5,0.5,3,0.6,4.6
	c-1.3,0.1-5.6-3.1-6.7-3.9C362.6,138.1,364.6,137.8,366.6,137.3z M344.3,113c-0.7-1-1.3-2.1-1.8-3.2c0.7-0.1,2.4-0.7,3.1-0.9
	C345.2,110.2,344.9,111.6,344.3,113z M365.9,99.7c0-0.1-3.6-6.3-3.7-6.6c1.8,0.6,3.6,1.3,5.4,1.9C367.2,95.8,367.2,96.3,365.9,99.7z
	 M353.7,105.4c2,0.8,3.8,2,5.8,2.7c-1.8,1.2-3.7,2.2-5.7,3.1C354.3,109.2,354,107.3,353.7,105.4z M368.1,137.3
	c0.4,0.3,5.2,2.8,7.2,3.4c-2,1.1-4.2,1.9-6.5,1.5C368.9,140.9,368.3,138.9,368.1,137.3z M333.4,75.7c-4.1,2.5,0.7,13.2-17.7-6.1
	c-2.1-2.2-1.9-3.3-4.2-1.9c-2,1.3,4,2.7-0.7,6.8c-6.2,4.7-14-1.3-10.9-9.1c3.8-9.7,11.1-0.1,9.7-5.4c-3-11.7,14.4-15.7,18-8.1
	c2.2,4.8-8,6.4-8.1,6.5C318.1,59.5,329.9,68.9,333.4,75.7z M357.8,100.9c0.8,1.9,1.4,3.8,1.9,5.7c-1.9-0.7-3.6-1.8-5.5-2.6
	C355.5,103,356.7,102,357.8,100.9z M359.3,99.1c1-1.3,1.8-2.6,2.3-4.2c0.9,1.7,1.8,3.5,2.8,5.1C362.7,99.8,361.1,99.2,359.3,99.1z
	 M361.3,106.7c-0.6-2.1-1.2-4.1-2-6.1c2,0.1,3.8,0.8,5.8,1.1C364,103.6,362.8,105.3,361.3,106.7z M386.8,121.2c1,2.1,1.7,4.4,2,6.7
	c-2-0.8-4-1.5-6.2-1.6C384.1,124.7,385.5,123,386.8,121.2z M376.2,139.4c-2.4-0.7-4.6-2-6.8-3.2c1.9-0.8,3.7-1.9,5.4-3.1
	C375.3,135.3,375.9,137.3,376.2,139.4z M394.6,120.4c-0.6-2.5-1.3-5-2.3-7.6c1.3,2.2,2.2,4.5,2.8,6.9
	C394.9,119.9,394.8,120.1,394.6,120.4z M369,95.6c14.7,5.7,21.4,13.6,21.7,14.8c0.9,2.9-15.1,28-30.7,26.1c0,0,0,0,0,0
	c-1-0.1-1.9-0.6-2.6-1.3c-6.1-5.9-9.8-12.5-13.1-19.8C347,116.3,365.6,111.6,369,95.6z M376.2,133c2.4,0.4,4.6,1.3,6.8,2.3
	c-1.8,1.5-3.7,2.9-5.4,4C377.4,137.2,376.8,135.1,376.2,133z M388.3,119.1c1.1-1.7,2-3.5,2.9-5.4c0.7,2.4,1.5,4.8,2.1,7.3
	C391.6,120.4,389.9,119.8,388.3,119.1z M395.6,121.8c2,13.6-7,27.3-24.4,21.9C379.9,142.5,391,130.3,395.6,121.8z M390.3,127.5
	c-0.3-2.4-0.8-4.8-2.1-6.9c1.8,0.6,3.5,1.4,5.3,2C392.5,124.3,391.4,125.9,390.3,127.5z M381.2,127.8c1.3,2.1,1.4,4.5,1.9,6
	c-2-1-4-1.7-6.2-2.1C378.4,130.4,379.8,129.1,381.2,127.8z M384.7,133.8c-0.6-2-0.9-4-1.7-5.9c2.1,0.2,3.9,0.9,5.8,1.6
	C387.5,131,386.1,132.5,384.7,133.8z M71.9,107.7c6.8,16.7,48.2-3.3,28.9-28.6c5.9-0.1,4.4-19.8,2-26.1c-2.3-6-6.1-11.4-7.5-17.7
	c-0.4-1.7,0.1-5.2-1-5.7c-2.9-1.3-14.9,33.9-10.4,42.6c-4.1,0.4-14.6,4-14,7.4c-1.1,0.5-1.9,1.1-2.7,2c-4.9-5.4-13-0.6-34.4-1.6
	C32.7,79.8,64.3,117.8,71.9,107.7z M47,92.2c5.8-2.9,6.3-0.9,8.9,0.7c5,3.1,3.6,0.3-2.7,5.3C51.1,96.2,49,94.2,47,92.2z M54.7,99.6
	c1-0.6,4.4-2.7,6-3.7c0.5-0.3,1.1-0.5,1.8-0.4c2.9,0.2,4.8-0.9-0.9,9.7C59.2,103.5,56.8,101.5,54.7,99.6z M73,104.6
	c5.1,2.7,5.5-0.1,11.1,1.4c5.7,1.5,12.6-4.6,15.6-11.3C106.5,107.7,76,121.1,73,104.6z M94.3,90.4c1.8-0.6,3.3-2.9,3.8-4.9
	c4.2,7-5.9,19.2-12.4,18.8C89.9,102.9,95.7,95.2,94.3,90.4z M89.7,98c-7.1,5.1-18.2-4.2-10-12.7c0,0,0,0,0,0
	c0.5-0.5,1.1-0.8,1.8-0.8C91.3,84,96.1,93,89.7,98z M93.5,88.6c-4.2-7.1-15.3-9.6-18.3-0.5C66.9,76.8,106.6,77.6,93.5,88.6z
	 M74.3,90.1c2.3,7.1,4.4,13.1,13.1,11c-6.6,5.9-20.7-4.1-14.9-14C73,88.2,73.6,89.1,74.3,90.1z M102.3,100.7
	c1.2-5.2-1.5-7.2-1.6-8.7c-0.3-2.7,2.3-4.7-3.8-10.5c-1.5-1.4-0.3-1.9-1.6-4.8C101.7,79.8,108.1,95.9,102.3,100.7z M103,65.7
	c0,4.5-0.2,7.2-0.6,8.8c-0.5,2.1-3.1,2.8-4.6,1.3C91.6,69.4,94.3,73.7,103,65.7z M102.7,60.3c0.2,1.7-0.5,3.4-1.8,4.5
	c-2,1.5-4.7,4-6.8,4.9c-1.5-12.1-0.7-6.7,7.2-15.4C102,56.2,102.4,58.2,102.7,60.3z M94,37.1c2.2,7.8,4.5,5.4-0.4,9
	C93.6,44.4,93.9,37.4,94,37.1z M97.2,45.3c1.1,2.4,2.3,4.7,3.3,7.1c-0.4,0.2-7.2,6.5-7.3,6.6C93.1,47.8,93.2,48.7,97.2,45.3z
	 M89.9,42.6c0.6-2,1.3-4,2.1-6c0,0.7-0.3,10.6-0.4,11.1c-0.3-0.5-0.7-1-1.1-1.6C89.7,45.2,89.5,43.8,89.9,42.6z M88.6,47.1
	c0.3,0.4,1.2,1.6,1.9,2.4c0.6,0.7,1,1.5,0.9,2.4c0,2.3-0.1,4.6,0,6.9C85.2,52.8,86,56.4,88.6,47.1z M84.7,61.1
	c0.3-1.7,0.8-3.3,1.3-5c6.8,6.5,5.1,4.5,6.1,13c-3.9-2.5-5.5-3.8-6.3-4.6C84.9,63.6,84.5,62.3,84.7,61.1z M92.8,73.9
	c-5.1-3.5-8.2,1.9-8.5-8.1C87.4,68.9,91.7,68.9,92.8,73.9z M94.1,79.7c-4.9-2.2-12.6-2.9-17.6-0.9c-0.9,0.4-1.8,0.4-2.7,0.2
	c-0.4-0.1-1-0.1-1.4,0C77.6,73.7,92.7,70.3,94.1,79.7z M73.4,80.9c-4.4,5.2-7.9,18.1,4.9,23C66.3,104.6,62.4,80.4,73.4,80.9z
	 M66.9,97.6c2.9,6.4,3.9,3.1,4.4,8c-1.2,0.5-2.1,3.8-8.1,0.6C65.3,102,66.3,101.6,66.9,97.6z M66.2,83.2C65.1,85.6,65,87.7,65,90
	c-1.1-3-2-5.9-2.9-9C63.8,81.3,65.2,81.8,66.2,83.2z M59.5,80.6c1.4,0.2,0.9,2.2,4.8,13c-5,0.6-5.5-6.7-6.7-10.6
	C57.2,81.8,58.2,80.5,59.5,80.6z M53.3,81.1c0.9-0.1,1.8,0.5,2,1.4c0.7,3,3.1,9.2,3.3,9.7c-6-2.9-6.1-3.3-9.1-10.7
	C50.7,81.4,52,81.3,53.3,81.1z M47.5,81.9c0.6,1.6,1.4,3.2,2.2,4.8c-3-1.6-6.1-2.8-9.2-3.9C42.8,82.6,45.2,82.2,47.5,81.9z
	 M39.1,84.3c5.2,1.8,10.6,4.4,11.2,4.8C43.4,90.7,47.6,92.6,39.1,84.3z M336,143.4l-6.7,4.8l2.5,7.8l-6.7-4.8l-6.7,4.8l2.5-7.8
	l-6.7-4.8h8.2l2.5-7.8l2.5,7.8H336z M182.7,330.9l-6.7,4.8l2.5,7.8l-6.7-4.8l-6.7,4.8l2.5-7.8l-6.7-4.8h8.2l2.5-7.8l2.5,7.8H182.7z"
	/>
</svg>
