<?xml version="1.0" encoding="utf-8"?>
<!-- Generator: Adobe Illustrator 18.0.0, SVG Export Plug-In . SVG Version: 6.00 Build 0)  -->
<!DOCTYPE svg PUBLIC "-//W3C//DTD SVG 1.1//EN" "http://www.w3.org/Graphics/SVG/1.1/DTD/svg11.dtd">
<svg version="1.1" id="Layer_1" xmlns="http://www.w3.org/2000/svg" xmlns:xlink="http://www.w3.org/1999/xlink" x="0px" y="0px"
	 viewBox="0 0 432 432" enable-background="new 0 0 432 432" xml:space="preserve">
<path fill="#333333" d="M239.3,282.4c-0.2,0.2-0.3,0.4-0.2,0.7c0.1,0.2,0.2,0.5,0.3,0.7c0.3,0.6,0.7,1.3,1,1.9
	c0.1,0.3,0.3,0.5,0.4,0.8c0.2,0.6,0.1,1.1-0.4,1.5c-0.5,0.4-1,0.4-1.6,0.2c-0.2-0.1-0.4-0.2-0.6-0.3c-0.5-0.4-0.9-0.7-1.4-1.1
	c-0.3-0.2-0.5-0.4-0.8-0.6c-0.2,0.1-0.3,0.3-0.5,0.4c-0.6,0.6-1.2,1.3-1.9,1.9c-0.3,0.3-0.6,0.6-0.9,0.8c-0.5,0.3-1.1,0.3-1.5-0.1
	c-0.4-0.3-0.6-0.8-0.5-1.3c0.1-0.5,0.2-0.9,0.3-1.4c0.2-0.5,0.4-1.1,0.5-1.6c0.1-0.4,0.1-0.4-0.3-0.6c-0.5-0.2-1.1-0.4-1.6-0.5
	c-0.4-0.1-0.9-0.3-1.3-0.4c-0.2-0.1-0.3-0.1-0.5-0.2c-0.8-0.5-1-1.4-0.3-2.1c0.2-0.2,0.5-0.4,0.8-0.6c0.9-0.5,1.9-0.8,3-1
	c0.3-0.1,0.7-0.1,1-0.2c-0.1-0.7-0.1-1.3-0.2-1.9c0-0.5-0.1-1.1-0.1-1.6c0-0.7,0.5-1.2,1.2-1.3c0.4-0.1,0.8,0.1,1.1,0.3
	c0.3,0.3,0.6,0.6,0.8,0.9c0.4,0.5,0.7,1.1,1,1.7c0.2,0.3,0.3,0.5,0.5,0.8c0.3-0.1,0.5-0.1,0.7-0.2c0.6-0.2,1.3-0.5,1.9-0.7
	c0.4-0.1,0.8-0.2,1.2-0.2c1,0.1,1.6,1,1.4,2c-0.1,0.4-0.3,0.8-0.6,1.1c-0.4,0.5-0.8,0.9-1.3,1.4
	C239.9,281.9,239.6,282.2,239.3,282.4z M263.5,165.6c-0.9-0.5-1.9-0.7-3-0.6c-1.7,0.2-2.8,1.6-2.4,3.3c0.2,1,0.7,2,1.3,2.9
	c1.9,3,5.8,5.3,8.9,5.7c0.9,0.1,1.7,0.1,2.5-0.2c0.4-0.2,0.8-0.4,1-0.7c0.4-0.6,0.8-1.2,1-1.9c0.3-1,0.5-2,0.7-3
	c0.3-1.8,0.3-3.7,0-5.5c-0.2-1.1-0.5-2.1-1-3c-0.4-0.8-1-1.4-1.8-1.9c-1.6-1-4.2-0.6-5,1.8c0,0.1-0.1,0.3-0.1,0.4
	c-0.3,1-0.3,1.9-0.2,2.9c0,0.3,0,0.6,0,1c-0.2-0.1-0.3-0.2-0.4-0.3C264.5,166.2,264,165.8,263.5,165.6z M258.7,270.4
	c-1.3-0.6-2.6-0.9-4-0.7c-2.3,0.3-3.7,2.2-3.2,4.5c0.3,1.4,0.9,2.7,1.7,3.9c2.5,4,7.8,7.1,12,7.7c1.1,0.2,2.3,0.2,3.4-0.3
	c0.5-0.2,1-0.5,1.4-1c0.5-0.8,1-1.6,1.4-2.5c0.4-1.3,0.7-2.6,0.9-4c0.4-2.5,0.5-4.9,0-7.4c-0.3-1.4-0.7-2.8-1.4-4.1
	c-0.6-1.1-1.4-1.9-2.4-2.6c-2.1-1.3-5.7-0.7-6.7,2.4c-0.1,0.2-0.1,0.4-0.2,0.6c-0.3,1.3-0.4,2.6-0.3,3.9c0,0.4,0,0.8,0,1.4
	c-0.2-0.2-0.3-0.3-0.5-0.4C260,271.2,259.4,270.8,258.7,270.4z M147.4,201c2.8-2.9,4.9-6.3,6.4-10.1c0.3-0.7,0.5-1.5,0.5-2.3
	c0.1-2.8-2.2-4.8-5-4.1c-1.1,0.3-2.1,0.8-2.9,1.5c-1.5,1.2-2.6,2.6-3.7,4.2c-0.2,0.3-0.4,0.6-0.7,1c-0.2-0.6-0.4-1.1-0.6-1.5
	c-0.6-1.4-1.2-2.8-2-4.2c-0.6-1.1-1.5-1.9-2.6-2.4c-2.4-1.1-5,0.1-5.5,2.8c-0.3,1.2-0.3,2.5,0,3.7c0.9,4.1,2.6,8,5.1,11.4
	c0.6,0.8,1.4,1.6,2.3,2.2c1.8,1.3,3.8,1.3,5.7,0.1C145.5,202.6,146.5,201.8,147.4,201z M81.5,161.7c-1-2.6-1-5.4-0.1-8.4
	c0.9-3,2.8-5.6,5.6-7.9c2.8-2.2,6.3-3.9,10.7-5c4.4-1.1,9.4-1.1,15.2-0.1c1.9-3.8,4-8.4,6.4-14c2.4-5.5,4.8-11.5,7.3-17.8
	c2.5-6.3,5.1-12.8,7.6-19.5c2.5-6.7,4.9-13.2,7.1-19.5c2.2-6.2,4.1-12,5.7-17.3c1.7-5.3,2.9-9.7,3.7-13.3c1.2-5.2,1.7-8.9,1.5-11.1
	c-0.2-2.2-0.8-3.3-1.9-3.4c-1.1-0.1-2.7,0.7-4.6,2.2c-1.9,1.5-4.1,3.4-6.5,5.7c-2.4,2.2-4.9,4.6-7.6,7.1c-2.7,2.5-5.4,4.5-8,6.2
	c-6.4,4.1-12.1,6.3-17.2,6.6c-5.1,0.3-9.3-0.7-12.6-2.9c-3.4-2.2-5.8-5.3-7.3-9.2c-1.5-3.9-1.7-8-0.8-12.2c0.4-1.9,0.7-3.2,1.1-3.9
	c0.4-0.7,0.9-1,1.4-0.9c0.5,0.1,1,0.5,1.5,1.2c0.5,0.7,1,1.5,1.6,2.3c2.1,3.7,4.5,5.9,7.2,6.7c2.7,0.8,5.5,0.8,8.5-0.2
	c3-0.9,6.2-2.5,9.5-4.6c3.3-2.1,6.7-4.3,10.2-6.6c3.5-2.3,7-4.5,10.4-6.5c3.5-2,7-3.3,10.5-3.9c4.1-0.7,7.8-0.6,10.9,0.4
	c3.1,0.9,5.7,2.4,7.6,4.5c1.9,2.1,3.3,4.5,4,7.3c0.7,2.8,0.8,5.8,0.4,8.8c-0.9,5.1-2.4,10.9-4.3,17.4c-1.9,6.5-4.2,13.4-6.8,20.5
	c-2.6,7.1-5.4,14.4-8.3,21.7c-2.9,7.3-5.9,14.2-8.8,20.8c-2.9,6.5-5.6,12.5-8.2,17.9c-2.6,5.4-4.8,9.7-6.5,13
	c13,3.5,26.2,7.8,39.7,12.9c5.5,2.1,11,4.1,16.6,6.2c0.1-4.5,0.4-9.6,0.9-15.5c0.4-4.5,1-9.1,1.6-13.9c-0.9,1.3-1.9,2.5-2.9,3.7
	c-1.8,2.1-3.7,3.7-5.7,4.8c-2,1.1-4.1,1.2-6.2,0.3c-3.8-1.9-6.6-4.4-8.4-7.6c-1.8-3.2-2.7-6.6-2.7-10.3c0-0.9,0.1-1.8,0.2-2.7
	c0.1-0.8,0.3-1.7,0.5-2.7l2.5-11.3c0.7-2.6,1.4-5.4,2.1-8.3c0.7-2.9,1.4-5.7,1.9-8.1c0.6-2.5,1.1-4.6,1.4-6.5c0.4-1.8,0.5-3,0.5-3.4
	c-0.2-0.9,0.2-1.6,1.3-2c1.1-0.4,2.5-0.6,4.2-0.6c1.7,0,3.1,0.2,4.4,0.7c2.1,0.8,3.6,2.1,4.4,3.7c0.8,1.7,1.2,3.5,1.2,5.5
	c0,1.3-0.1,2.6-0.4,3.8c-0.2,1.2-0.5,2.3-0.7,3.3l-7.6,28.8c-0.7,2.7-1,4.5-0.9,5.5c0.1,0.9,0.4,1.3,1,1.1c0.5-0.2,1.2-0.8,2.1-1.9
	c0.9-1.1,1.8-2.4,2.8-3.7c1-1.4,1.9-2.7,2.7-4c0.8-1.3,1.5-2.3,1.9-3h-0.2c1.6-2.9,3.1-5.7,4.5-8.5c0.7-3.4,1.5-6.8,2.3-10.2
	c2.1-8.6,4.5-17,7.5-25.3c2.9-8.3,6.3-16,10.1-23.3c3.8-7.3,8-13.6,12.7-19.2c1.8-1.8,3.7-3.1,5.7-3.9c2-0.8,3.9-1.1,5.7-0.7
	c1.8,0.4,3.3,1.3,4.6,2.9c1.3,1.6,2.1,3.9,2.5,7c-0.4,5.5-1.4,11.9-3.1,18.9c-1.7,7.1-4,14-6.9,20.8c-2.9,6.8-6.4,13-10.5,18.7
	c-4.1,5.7-8.7,9.8-13.8,12.6c-0.2,0.5-0.5,1.3-0.7,2.4c-0.2,1.1-0.5,2.4-0.7,4c3.4-0.8,6.7-1.7,9.8-2.7c3.1-0.9,6-2.1,8.7-3.4
	c1.4-0.7,2.8-1.6,4-2.5c1.7-3.9,3.8-7.5,6.3-10.8c2.6-3.4,5.5-6.3,8.7-8.9c3.2-2.6,6.5-4.7,9.9-6.2c3.3-1.5,6.7-2.3,10.1-2.3
	c2.4,0,4.7,0.4,7.1,1.1c2.4,0.7,4.4,1.8,6.2,3.2c1.8,1.4,3.2,3.2,4.2,5.4c1,2.2,1.3,4.7,1,7.7c-1.2,6.5-3.5,11.6-7.1,15.2
	c-3.5,3.7-7.7,6.5-12.6,8.7c-3.4,1.5-6.8,2.8-10.3,3.7c-3.4,0.9-6.5,1.7-9.4,2.1c0.2,2.4,1.1,4.4,2.7,6.1c1.5,1.7,3.4,2.6,5.7,2.6
	c3.9,0,7.8-1.1,11.6-3.3c3.8-2.2,7.4-5,10.8-8.5c3.4-3.5,6.5-7.5,9.3-11.9c2.8-4.5,5.2-9,7.1-13.6c0.5-1.2,1.1-2,2-2.4
	c0.9-0.4,1.7-0.5,2.5-0.3c0.8,0.2,1.4,0.8,1.9,1.6c0.5,0.8,0.7,1.8,0.4,3c-0.7,4.7-2.5,9.7-5.3,14.9c-2.8,5.2-6.4,10-10.8,14.3
	c-4.4,4.4-9.4,8-15,11c-5.7,2.9-11.7,4.5-18.2,4.8c-7.7,0.2-13.5-1.8-17.5-6.1c-4-4.3-5.5-10.3-4.6-18c0.1-0.7,0.2-1.5,0.3-2.2
	c-5.2,2.6-11,4.4-17.2,5.4l0.9,1.2c0.5,0.7,0.9,1.3,1.2,1.8c0.2,0.5,0.5,0.9,0.9,1.2c1.6,2.4,3.3,5.3,5.1,8.8
	c1.8,3.5,2.6,8.4,2.6,14.5c0,4.5-0.5,9.1-1.6,13.9c-0.8,3.7-1.9,7.1-3.3,10.4c11.3,4.1,22.5,8,33.4,11.5c12.9,4.1,25.2,7,36.8,8.7
	c11.6,1.7,22.5,1.7,32.5,0.3c10.1-1.5,19-5.3,26.6-11.6c0.5-0.4,1.1-0.8,1.8-1.4c0.7-0.6,1.4-1,1.9-1.1c0.6-0.2,1.1-0.1,1.5,0.3
	c0.4,0.4,0.6,1.3,0.6,2.8c0,1.9-0.4,3.8-1.3,5.7c-0.9,1.9-2,3.8-3.4,5.7c-1.4,1.8-3,3.4-4.7,4.9c-1.7,1.4-3.3,2.5-4.7,3.4
	c-8.6,5.2-18.5,7.9-29.7,8.2c-11.2,0.3-23.1-0.9-35.8-3.7c-12.7-2.8-25.7-6.6-39.1-11.5c-8.2-3-16.4-6.1-24.5-9.2
	c-0.1,0.1-0.3,0.3-0.4,0.5c-2.8,2.8-5.8,4.5-9.2,5.1c-4,0.6-6.7-0.4-8.1-3c-1.3-2.4-2.4-6-3.3-10.8c-10.9-4.3-21.4-8.3-31.6-12.1
	c-12-4.4-22.8-7.6-32.6-9.6c-2.6,4.7-5.7,8.2-9.2,10.5c-3.5,2.3-7.1,3.4-10.8,3.4c-5.4,0-9.7-0.9-12.8-2.7
	C84.6,166.5,82.5,164.3,81.5,161.7z M244.2,116c2.5-0.5,5-1.1,7.5-1.9c2.5-0.8,4.9-1.7,7-2.7c1.7-0.8,3.3-1.8,5-3
	c1.6-1.2,3.1-2.5,4.3-4c1.2-1.5,2.2-3.1,2.9-4.8c0.7-1.7,1.1-3.4,1.1-5.2c-0.1-2.8-1.2-4.5-3.3-5.1c-2.1-0.6-4.5,0.1-7.2,2.1
	c-5,3.4-8.7,7.1-11.2,11C247.8,106.3,245.7,110.8,244.2,116z M210.3,96c2.4-2.6,4.7-6,7-10.2c2.3-4.2,4.5-8.7,6.5-13.5
	c2.1-4.8,3.9-9.7,5.5-14.7c1.6-5,2.9-9.5,3.8-13.6c0-0.2-0.1-0.5-0.2-0.8c-0.1-0.3-0.4-0.1-0.7,0.6c-5,7.5-9.2,15.8-12.7,24.9
	C215.9,77.7,212.9,86.8,210.3,96z M199.5,168.9c2.5,1,5.1,1.9,7.6,2.9c0.4-0.9,0.7-1.9,1-2.9c0.9-3.1,1.7-6.4,2.4-9.7
	c0.6-3.4,1-6.2,1-8.6c0-4.7-0.9-8.9-2.7-12.6c-1.8-3.7-3.6-6.9-5.4-9.6c-1.4,8.8-2.4,17-3,24.3C199.8,159.1,199.5,164.5,199.5,168.9
	z M95.8,156.9c0.2,0.6,0.8,1,1.7,1.2c0.9,0.2,1.9,0.2,3-0.1c1.1-0.3,2.3-0.9,3.4-1.8c1.2-0.9,2.2-2,3-3.4c-0.2-0.2-1-0.4-2.4-0.4
	c-1.4-0.1-2.7,0.1-4.2,0.4c-1.4,0.3-2.6,0.8-3.6,1.4C95.8,154.8,95.4,155.7,95.8,156.9z M180.2,75.2c2.7,0,5.2-1.1,7.4-3.4
	c2.2-2.3,3.7-5.2,4.2-8.6c0.1-0.6,0.2-1.2,0.3-1.8c0.1-0.6,0.1-1.2,0.1-1.8c0-2.7-0.7-5-2.1-6.8c-1.4-1.8-3.4-2.7-5.8-2.7
	s-4.9,1.2-7.2,3.5c-2.3,2.4-3.7,5.2-4.3,8.7c-0.1,0.6-0.2,1.2-0.3,1.8c-0.1,0.6-0.1,1.2-0.1,1.8c0,2.7,0.7,5,2.1,6.7
	C175.9,74.3,177.8,75.2,180.2,75.2z M114,331.1c-1.4-2.9-2.9-5.8-4.6-8.7c-2.9-5.1-6.1-10-9.6-14.8c-3.4-4.8-7-9.5-10.6-14.1
	c-1.5-1.9-2.9-3.8-4-5.7c-1.1-1.9-2-4-2.6-6.1c-0.7-2.4-1-4.6-0.8-6.8c0.2-2.2,1.1-4.3,2.7-6.3c0.7-0.9,1.6-1.8,2.6-2.7
	c1-0.8,2.2-1.2,3.6-1.1c1.5,0.1,2.8,0.6,3.7,1.5c0.9,0.9,1.7,1.9,2.3,3.1c0.4,0.7,0.6,1.5,0.7,2.3c0.1,0.8,0.3,1.7,0.5,2.5
	c0.4,1.3,1.4,2.1,3,2.3c1.9,0.2,3.3,0.1,4.2-0.4c0.9-0.5,1.6-1.5,1.9-3.2c0.9-3.9-0.4-7-3.9-9.2c-0.9-0.6-1.9-1.1-3-1.7
	c-1.1-0.5-2.2-0.9-3.4-1.1c-5-1.1-9.4-1.1-13.4-0.1c-4,1-7.3,2.7-9.8,5c-2.5,2.3-4.3,5-5.4,8.1c-1.1,3.1-1.2,6.3-0.4,9.5
	c0.7,2.7,1.8,5.3,3.3,7.9c1.5,2.5,3,5.1,4.7,7.7c3.1,4.6,6.1,9.2,9,13.8c2.9,4.6,5.8,9.3,8.5,14c1.2,1.9,2.2,3.9,2.9,5.9
	c0.8,2.1,1.5,4.2,2.2,6.3c0.9,3.3,1.4,6.6,1.3,9.9c-0.1,3.3-0.9,6.5-2.6,9.7c-2,4-5.1,7-9.4,8.8c-5.4,2.4-10.3,1.5-14.5-2.5
	c-1.3-1.3-2.3-2.7-2.9-4.1c-0.6-1.4-1.2-2.9-1.7-4.6c-1.3-3.9-1.3-7.9-0.1-12c1.2-4.1,3.6-7.3,7.2-9.6c1.2,0.4,2,1.4,2.6,3.2
	c0.5,1.8,0.9,3.4,1.1,4.8c0.2,1.2,0.5,2,0.9,2.4c0.4,0.4,1.2,0.7,2.5,1c0.6,0.1,1.1,0.1,1.5,0.1c0.4-0.1,0.9-0.1,1.5-0.1
	c2.2-0.4,3.3-1.4,3.2-3.2c-0.1-1.3-0.3-2.6-0.4-3.8c-0.2-1.2-0.5-2.5-1-3.8c-1.1-3.1-3.7-5-7.8-5.7c-2.4-0.5-4.7-0.5-6.9-0.2
	c-2.2,0.4-4.4,1.2-6.4,2.5c-3.5,2.4-6,5.1-7.3,8.3c-3.4,8.3-2.8,16.1,1.9,23.5c3.7,5.7,9.3,8.9,16.8,9.7c12.6,1.2,23.4-1.9,32.2-9.4
	c3.2-2.6,5.3-5.7,6.4-9.4c1.3-4.7,1.4-9.6,0.4-14.7C116.5,337.1,115.4,334.1,114,331.1z M342.5,324.2c-1.7,5.7-3.4,10.8-5.4,15.3
	c-1.9,4.5-4.4,9.3-7.3,14.2c-1.1,1.8-2.6,3.9-4.5,6.3c-1.9,2.4-3.7,4.3-5.4,5.6c-1.5,1.3-3.4,2.2-5.6,2.7c-2.2,0.5-4.4,0.6-6.7,0.3
	c-2.3-0.3-4.5-1.1-6.5-2.3c-2.1-1.2-3.8-3-5.2-5.4c-0.9-1.5-1.8-3.3-2.5-5.3c-0.7-2-1.2-3.9-1.4-5.7c0-0.2,0-0.3-0.1-0.5
	c0,0.1-0.1,0.1-0.1,0.2c-0.8,1.5-1.7,2.9-2.7,4.4c-1,1.5-2.1,3.1-3.3,4.9c-1.7,2.5-3.6,4.9-5.7,7.2c-2.2,2.3-4.7,4.1-7.5,5.4
	c-1.4,0.6-2.9,1-4.6,1.3c-1.7,0.3-3.4,0.2-5.1-0.3c-3.2-0.7-5.5-2-6.9-3.9c-1.4-1.9-2.1-4.5-2.1-7.8c0-2,0.1-4,0.4-5.9
	c0.3-1.9,0.7-3.9,1.1-5.9c0.8-3.3,1.7-6.2,2.6-8.6c0.9-2.4,1.8-5.3,2.7-8.6c0.4-1.3,0.6-2.7,0.6-4.1c0.1-1.4-0.3-2.8-1-4.1
	c-0.7,0.1-1.4,0.3-2,0.4c-0.6,0.2-1.3,0.3-2,0.3c-1.3,0.2-2.6,0.4-4,0.5c-1.2,0.1-2.4,0-3.6-0.1c-1,1.2-2,2.3-3.2,3.2
	c-1.8,1.4-3.5,2.3-5.1,2.7c-3.4,0.9-6.8,1.4-10.1,1.4c0,0.4-0.1,1.1-0.4,2.4c-0.2,1.2-0.5,2.7-0.9,4.2c-0.4,1.6-0.7,3.2-1.1,4.9
	c-0.4,1.7-0.8,3-1.1,4.1c-0.9,2.6-2.3,5.2-4,7.8c-1.7,2.6-3.9,4.5-6.6,5.8c-2.1,0.9-4.5,1.4-7.1,1.5c-2.6,0.1-5-0.4-7.1-1.5
	c-1.2-0.6-2.4-1.4-3.6-2.3c-1.2-0.9-2.2-1.9-2.9-3c-1.2-1.9-2.2-3.9-2.9-6c-0.5,1.1-1.1,2.1-1.7,3.2c-2.4,4.4-4.8,8.3-7.3,11.7
	c-1.2,1.6-2.4,3.2-3.7,4.5c-1.3,1.4-2.7,2.7-4.1,4c-2.2,2.1-5,3.4-8.3,3.7c-3.7,0.5-6.8-0.2-9.4-2c-2.6-1.8-4-4.6-4.2-8.2
	c-0.2-2.4-0.3-4.7-0.3-7c0.1-2.3,0.3-4.6,0.8-6.8c1.1-6.2,2.5-11.6,4.3-16.2c1.8-4.5,3.6-9.2,5.4-14.1c0.9-2.4,1.6-4.5,1.9-6.5
	c0.3-2,0.5-4.4,0.6-7.1c0-0.6,0-1.3-0.1-2.2c-0.1-0.9-0.2-1.6-0.4-2c-0.5,0.2-0.9,0.5-1.3,0.8c-0.4,0.3-0.8,0.6-1.1,0.8
	c-2.8,2-5.2,4.3-7.3,6.8c-2,2.5-3.7,5.2-5.2,8.1c-1.5,2.9-2.8,5.9-3.9,9c-1.1,3.1-2.2,6.2-3.3,9.3c-0.5,1.3-0.9,2.6-1.3,3.9
	c-0.4,1.3-0.8,2.6-1.1,3.9c-0.6,1.9-0.8,3.9-0.7,6c0.1,2.1,0.4,4.1,0.9,6c0.2,1.4,0.2,2.4-0.2,3c-0.4,0.6-1.3,1-2.8,1.2
	c-2.4,0.4-4.1,0.2-5.2-0.4c-1.1-0.6-2.2-1.7-3.1-3.3c-2.7-4.1-4.5-8.4-5.4-12.9c-0.9-4.5-1.6-9.1-2.2-13.8
	c-0.9-7.9-1.1-15.8-0.5-23.8c0.6-8,2.1-15.7,4.6-23.1c1.9-5.7,3.9-10.7,6.1-15c2.2-4.4,5.2-8.8,8.9-13.4c0.6-0.8,1.4-1.8,2.6-3
	c1.1-1.2,2.1-2.1,2.9-2.7c2.4-2.2,5.3-3.2,8.8-3c3.3,0.2,5.5,1.8,6.5,4.8c0.6,1.4,0.9,2.8,1,4.2c0.1,1.4,0,2.8-0.3,4.3
	c-0.4,4.1-1.1,8.2-2.1,12.1c-1.1,4-2.3,7.9-3.7,11.8c-2,5.3-4.5,10.2-7.4,14.8c-2.9,4.5-6.2,8.9-9.7,13c-1.2,1.4-1.8,2.8-1.8,4.1
	v14.9c0.2-0.6,0.4-1.1,0.6-1.5c0.2-0.4,0.4-0.9,0.6-1.3c1.3-3.2,2.7-6.3,4.1-9.5c1.4-3.1,3.1-6.1,5.1-8.9c1.3-2,2.8-3.8,4.4-5.5
	c1.7-1.6,3.5-3.1,5.5-4.4c3.2-2.1,6.7-3.2,10.6-3.2c3.3,0.1,5.9,1.1,7.8,2.9c1.9,1.8,2.9,4.5,3,7.9c0.2,2.4,0.2,4.7-0.2,6.9
	c-0.4,2.2-0.8,4.5-1.4,6.7c-1.3,4.4-3,8.7-5,12.9c-2.1,4.2-3.7,8.6-4.9,12.9c-2,8-2.8,13.7-2.5,17c0.4,3.3,0.9,5.1,1.8,5.3
	c0.1,0,0.6-0.2,1.4-0.5c0.8-0.4,2.2-1.5,4.2-3.5c1.9-1.9,3.9-4.4,6-7.6c2.1-3.2,3.8-6,5.1-8.3c1.1-1.9,2.2-4.1,3.4-6.5
	c0.8-1.5,1.5-3.1,2.2-4.7c-0.2-3.3-0.1-6.7,0.5-10c0.5-3.4,1.5-6.7,2.9-9.9c0.8-1.8,1.8-3.7,3-5.7c1.3-1.9,2.7-3.5,4.2-5
	c1.5-1.4,3.5-2.2,6-2.5c0.1-0.8,0.2-1.5,0.2-2.1c0-0.6,0-1.2,0-1.8c0.4-4.6,2.5-7.4,6.5-8.3c5.1-1.3,8.8,0.1,11.1,4.1
	c1.5,2.4,2.7,4.9,3.5,7.6c0.8,2.7,1.4,5.4,1.6,8.1c0.2,1.9,0.4,3.8,0.4,5.7c0,1.9,0.1,3.8,0.2,5.8c0.6,0.1,1.9,0.1,3.9,0
	c2-0.1,3.9-0.6,5.8-1.4c0.9-0.4,1.8-1,2.6-1.9c-0.9-0.6-1.7-1.3-2.3-2.2c-1.7-2.2-2.7-5-2.9-8.3c-0.2-3.1,0.1-5.8,0.9-8.2
	c0.8-2.4,1.9-4.6,3.4-6.6c1.4-1.9,2.9-3.3,4.3-4.2c1.5-0.9,3.4-1.2,5.7-1c1.8,0.2,3.3,1.3,4.7,3.1c1.4,1.8,2.2,3.9,2.4,6.3
	c0.1,1.5,0.1,2.8,0.1,3.8c-0.1,1-0.2,2-0.4,2.9c-0.2,0.9-0.5,1.9-0.8,2.9c-0.3,1-0.7,2.2-1.2,3.6c-0.2,0.5-0.4,0.9-0.5,1.3
	c-0.1,0.4-0.3,0.9-0.5,1.5c0.6,0,1.1,0,1.7-0.1c0.5-0.1,1.1-0.1,1.7-0.1c2-0.2,3.7-0.4,5-0.4c1.3-0.1,2.9,0.3,4.8,1.1
	c4.4,1.8,6.8,5,7.3,9.7c0.2,2.2,0.1,4.3-0.3,6.2c-0.4,1.9-0.9,3.9-1.5,6c-0.7,2.4-1.4,4.5-2,6.4c-0.7,1.9-1.3,4-2,6.4
	c-0.4,1.3-0.7,2.5-1.1,3.6c-0.4,1.1-0.7,2.3-1.1,3.4c-0.2,1.1-0.4,2.3-0.4,3.6c-0.1,1.4,0.1,2.3,0.4,2.9c1.2-0.2,2.5-0.9,4-2
	c1.5-1.1,2.6-2.2,3.4-3.1c1.8-1.9,3.4-4,5-6.5c1.6-2.4,3-4.7,4.3-7c2-3.8,3.6-7.2,4.8-10.3c0.4-0.9,0.7-1.9,1.1-2.9
	c-0.1-9.6,1.1-19.2,3.5-28.7c0.9-3.4,1.9-6.6,2.8-9.6c0.9-3,1.9-6.3,3-9.8c0.7-2.5,1.6-5,2.7-7.4l-2.7-2.1c-1.8-1.3-3.7-1.7-5.7-1.2
	c-2.1,0.5-3.6,1.7-4.5,3.7c-0.2,0.4-0.4,0.8-0.5,1.3c-0.1,0.5-0.5,0.9-1.2,1c-1.2,0.2-2.3,0.1-3.4-0.5c-2.4-0.8-2.9-2.5-1.8-5.1
	c1.1-2.6,3.1-4.2,6-5c2.5-0.6,4.9-0.8,7.3-0.7c2.4,0.1,4.8,0.8,7.2,1.9c0.5,0.2,1.1,0.6,1.8,1.1c0.7-1.5,1.4-3,2.2-4.4
	c0.8-1.4,1.6-2.8,2.4-4.2c0.9-1.5,2-3.1,3.2-4.6c1.2-1.5,2.3-2.9,3.4-4.1c1.8-1.8,4-2.3,6.7-1.6c1.2,0.4,1.9,0.8,2.2,1.2
	c0.3,0.5,0.3,1.3-0.1,2.5c-0.4,1.2-0.7,2.3-1.1,3.4c-0.4,1.1-0.8,2.2-1.1,3.3c-1.1,2.7-2.1,5.5-3,8.2c-0.9,2.8-1.9,5.6-2.8,8.4
	c0.9,0.6,1.9,1.2,2.7,1.9c0.9,0.6,1.8,1.3,2.7,1.9c1.9,1.2,3.7,1.6,5.6,1.1c1.8-0.4,3.4-1.5,4.7-3.3c2.5-3.2,2-5.9-1.4-8.1
	c-0.2-0.2-0.6-0.5-1.2-0.7c-0.6-0.2-0.8-0.6-0.5-1.1c0.2-0.4,0.7-0.6,1.3-0.8c0.6-0.2,1.1-0.3,1.5-0.4c2.4-0.2,4.7,0.3,6.9,1.5
	c2.2,1.2,3.8,2.9,4.8,5c0.6,1.3,0.7,2.6,0.4,3.8c-0.3,1.2-0.9,2.4-1.9,3.4c-3.1,3.5-7.1,5.4-12.2,5.7c-5.7,0.2-10.8-1-15.4-3.7
	c-0.6,1.5-1.1,3-1.4,4.5c-0.4,1.5-0.8,3-1.2,4.7c-1.7,6.7-3,13.4-4.2,20c-1.1,6.6-1.9,13.3-2.2,20.2c-0.1,3.5-0.1,7-0.1,10.5
	c0.1,3.5,0.6,6.9,1.5,10.3c0.1,0.5,0.4,1,0.9,1.7c0.5,0.7,1,1.2,1.6,1.7c0.6,0.5,1.3,0.8,2.2,0.9c0.9,0.1,1.9-0.1,2.9-0.7
	c0.6-0.4,1.3-1,2.1-1.9c0.8-0.9,1.7-1.9,2.6-2.9s1.7-2.2,2.5-3.3c0.8-1.1,1.4-2.1,2-2.9c1.1-1.8,2.3-4.1,3.7-6.9
	c1.4-2.8,2.8-5.6,4.1-8.4c1.3-2.8,2.4-5.3,3.3-7.5c0.9-2.2,1.4-3.7,1.7-4.2c0.5-1.6,1-2.7,1.7-3.2c0.6-0.5,1.3-0.6,2-0.4
	C342.7,320.7,343.2,322,342.5,324.2z M138.9,307.6c0.6-0.5,1.2-1.1,1.9-2c0.7-0.9,1.2-1.6,1.4-2c3.3-5.2,6-10.5,8.2-16
	c2.2-5.5,3.9-11.2,5.2-17.1c0.5-2.6,0.8-5.2,1.1-8c0.1-1.4,0.1-2.8-0.1-4.2c-0.2-1.4-0.6-2.7-1.3-4c-1.2,0.7-2.4,2.2-3.7,4.5
	c-1.3,2.3-2.6,5.1-3.8,8.3c-1.2,3.2-2.4,6.8-3.6,10.5c-1.2,3.8-2.2,7.5-3.1,11.2c-0.9,3.7-1.5,7.2-1.9,10.4
	C138.8,302.6,138.7,305.3,138.9,307.6z M223.1,330.4c-3.4-1.2-6.2-3.2-8.4-6.2c-2.2-2.9-4.1-6-5.7-9c-0.4,0.4-0.5,0.6-0.5,0.7
	c-2,5.5-3.2,11.1-3.7,16.5c-0.5,5.5-0.1,11.1,1.2,16.7c0.5,1.8,1.1,3.4,1.8,5c0.7,1.6,1.7,3,3,4.3c1.3-0.5,2.4-1.1,3.2-1.8
	c0.8-0.7,1.7-1.7,2.7-3c1.3-2.1,2.4-4.3,3.2-6.6c0.8-2.3,1.5-4.6,2.1-7c0.4-1.9,0.6-3.5,0.9-4.8C223,334.1,223.1,332.4,223.1,330.4z
	 M223.4,317.1c-0.2-1.9-0.5-3.9-1.1-6c-0.5-2.1-1.2-4.2-2-6.4c-0.8-2.1-1.8-4.1-3-6c-0.9,1.8-1.4,3.9-1.4,6.3c0,2.4,0.3,4.8,0.9,7.1
	c0.6,2.3,1.5,4.4,2.7,6.2c1.2,1.8,2.5,3.1,4.1,3.8C223.6,320.7,223.6,319,223.4,317.1z M251.8,302.5c-0.1-1.5-0.5-2.7-1.2-3.8
	c-1.8,1.8-2.9,4.1-3.3,6.9c-0.4,2.8,0,5.8,1.3,9c0.7-0.8,1.3-1.9,1.9-3.3c0.5-1.4,0.9-2.8,1.1-4.3
	C251.9,305.5,251.9,304,251.8,302.5z M77,415.9l-1-0.5c0.4-9.2,0.5-14.6,0.5-16.2c0-13.6-1.1-20.4-3.2-20.4h-2.6
	c0,0.4-0.2,0.9-0.5,1.6c0.7,0,1,2.6,1,7.9v26.7c0,2.8,1.1,4.7,3.2,5.8h5.2c5.2-0.4,7.8-1.4,7.8-3.1v-0.5l-3.7-1H77z M90,378.6h-1.7
	c-0.6,0-1.2,0.8-1.7,2.3h0.6c0,5.7,0.2,12.3,0.6,19.8c0,13.2,1.3,19.8,4,19.8c1.5-1.2,2.3-2.3,2.3-3.4C94,391.5,92.7,378.6,90,378.6
	z M114.4,408.9h-0.5c-1.7,4.8-3.6,7.1-5.6,7.1h-1.5c-1.8,0-3-3.7-3.5-11.2c0-15.2,1.5-22.8,4.6-22.8h1.5c0.3,4.4,1.1,6.6,2.5,6.6
	c2,0,3-1.5,3-4.6v-0.5c0-2.7-1.9-4.4-5.6-5.1h-2c-6.1,0-9.1,7.3-9.1,21.8v3.5c0,11.2,4.2,16.7,12.7,16.7c3,0,5-2.5,6.1-7.6
	C116.9,411.2,116.1,409.8,114.4,408.9z M135,378.3h-0.5c-1.2,1.2-4,7.9-8.3,20.2c-0.7,0-1-1.5-1-4.6c-0.5-10-2.1-15-4.6-15
	c-1,0.7-1.6,1.3-1.6,1.5v0.5c0,5.2,0.5,12.4,1.6,21.8c0,12.1,1.2,18.1,3.6,18.1c1-0.8,1.6-1.3,1.6-1.6v-6.7c0-1.2,0.5-3,1.5-5.7h1.6
	c2.7,8.6,4.8,13,6.2,13l2.1-1c0-0.7-0.7-3.5-2.1-8.3c-3.1-5.2-4.6-8.2-4.6-8.8c2.8-7.3,5-14.6,6.7-21.8
	C137.1,379.3,136.4,378.8,135,378.3z M165.6,378.4c-11.7,0-17.5,0.7-17.5,2.2v1.6c6.2,1.6,9.3,2.7,9.3,3.3v12.6
	c0,4.1-0.2,9.4-0.5,15.9c0.9,4.4,2,6.6,3.3,6.6h1.1c1.1-0.2,1.6-1.7,1.6-4.4v-29.6c0-0.8,0.2-1.5,0.6-2.2c5.1-1.6,7.7-2.8,7.7-3.8
	C170.2,379.2,168.4,378.4,165.6,378.4z M187.6,378l-2.2,1.1c0.7,4.4,1.1,9.9,1.1,16.5v6.6c-0.6,1.1-1.1,1.6-1.7,1.6h-2.8l-1.1-0.5
	c-0.8-15.8-2.1-23.7-3.9-23.7h-1.7l-1.6,1.1l1.1,18.7c-0.4,5.5-0.6,11.2-0.6,17.1c0,2,0.9,3.3,2.8,3.8c2.2,0,3.3-3.8,3.3-11.6
	c0-0.7,0.9-1,2.8-1.1h3.8c0.3,8.1,1.4,12.1,3.3,12.1h0.6c0.7,0,1.4-1.1,2.2-3.3c-0.7-2.5-1.1-6.3-1.1-11.6
	C192,387,190.5,378,187.6,378z M207.3,378.3l-8,2c-1.7,0-2.5,10.7-2.5,32.2c0,4.7,2.8,7.4,8.5,8c0.6,0,2.5-0.3,5.5-1V418
	c0-0.7-1.2-1.4-3.5-2c0,0.3-0.2,0.5-0.5,0.5h-3c-1-0.5-1.5-1-1.5-1.5v-8.5h2.5l3.5-1v-1l-0.5-1c-3.3-0.3-5-0.8-5-1.5v-18.1
	c5.4-1.6,8-2.6,8-3v-0.5C210.9,379.6,209.7,378.9,207.3,378.3z M227.5,390.3v-1.7c0.7-1.1,1.2-1.7,1.7-1.7h0.4
	c0.6,0,0.8,0.3,0.8,0.8v3.8c0,2.1,0.4,3.2,1.3,3.4h1.7c0.9,0,1.6-2,2.1-5.9c-1.2-3.9-3.3-5.9-6.3-5.9c-4.2,0-6.3,2.2-6.3,6.7
	c0,2,0.8,5.2,2.5,9.7c5.1,7.3,7.6,11.9,7.6,13.9v0.9c0,1.5-0.8,2.5-2.5,2.9c-0.4,0-1.3-0.8-2.5-2.5c-0.6-5.9-1.4-8.8-2.5-8.8h-1.2
	c-0.6,1.8-0.9,3.1-0.9,3.8c0,6,2.4,9.7,7.2,10.9c4.8-0.4,7.2-2.1,7.2-5.1c0-3.6-1.7-8-5.1-13C229.2,399,227.5,394.9,227.5,390.3z
	 M254.6,395.7c-0.8,11.4-3.3,17-7.4,17h-2.3v5.5l-0.5,2.3h-1.8c-0.9-0.2-1.7-1.3-2.3-3.2c0.3-9.6,0.5-15.8,0.5-18.9
	c0-1.7-0.1-5.9-0.5-12.9c0-1.6,1.8-2.7,5.5-3.2C250.4,382.3,253.3,386.8,254.6,395.7z M249.7,392.9c-1.3-4.3-2.4-6.4-3.2-6.4h-0.9
	c-0.6,0.1-0.9,0.4-0.9,0.9v7.8c0,3.2,0.1,8.1,0.4,14.7h0.9C247.9,410,249.1,404.3,249.7,392.9z M273,396.8c0,3.3,0.1,7.8,0.4,13.5
	c-1.3,6.8-3.6,10.3-7.1,10.3c-6.2,0-9.2-3.9-9.2-11.7v-2.1c0-15.8,1.7-23.8,5-23.8c0-0.2,0.6-0.4,1.8-0.4c5.2,0,8.3,3.8,9.2,11.3
	V396.8z M267.7,391.9c0-3.1-0.7-5-2.1-5.7h-0.4c-2.4,0-3.5,7.3-3.5,22c0,4.9,0.7,7.4,2.1,7.4h2.1c0.8,0,1.4-1.3,1.7-3.9V391.9z
	 M292.8,396.8c0,3.3,0.1,7.8,0.4,13.5c-1.3,6.8-3.6,10.3-7.1,10.3c-6.2,0-9.2-3.9-9.2-11.7v-2.1c0-15.8,1.7-23.8,5-23.8
	c0-0.2,0.6-0.4,1.8-0.4c5.2,0,8.3,3.8,9.2,11.3V396.8z M287.5,391.9c0-3.1-0.7-5-2.1-5.7H285c-2.4,0-3.5,7.3-3.5,22
	c0,4.9,0.7,7.4,2.1,7.4h2.1c0.8,0,1.4-1.3,1.7-3.9V391.9z M311.1,383.7c-1.2,0-2,0.6-2.3,1.8l0.4,2.2c-0.3,5-0.4,8.8-0.4,11.4v0.4
	h-0.4l-0.9-0.4c-4.1-10-7.1-15-9.1-15L297,386c0.3,2.1,0.4,3.7,0.4,5v24.6c0,1.6,0.6,2.7,1.8,3.2h1.4c0.6-2.7,0.9-4.7,0.9-5.9v-16.4
	h0.4c4.3,6.6,6.4,10.2,6.4,10.9v9.1c0,2.3,0.6,3.7,1.8,4.1h0.9c0.4,0,0.9-0.6,1.4-1.8l-0.4-0.9c0.3-3.3,0.4-6.2,0.4-8.7v-2.7
	c0-5.5,0.1-12.5,0.4-20.9C312.7,384.6,312.1,384,311.1,383.7z M187.5,196.6h-2.9c-1,0-2,1.3-2.9,3.9h1c0,9.7,0.3,21.1,1,34
	c0,22.6,2.3,34,6.8,34c2.6-2,3.9-3.9,3.9-5.8C194.4,218.7,192.1,196.6,187.5,196.6z M214.5,262c-0.9,0-2.5-1.6-4.9-4.9
	c-1.1-11.3-2.7-17-4.9-17h-2.4c-1.1,3.5-1.6,5.9-1.6,7.3c0,11.6,4.6,18.6,13.8,21.1c9.2-0.9,13.8-4.1,13.8-9.7
	c0-7-3.2-15.4-9.7-25.1c-6.5-6.6-9.7-14.5-9.7-23.5v-3.2c1.3-2.2,2.4-3.2,3.2-3.2h0.8c1.1,0,1.6,0.6,1.6,1.6v7.3
	c0,4,0.8,6.1,2.4,6.5h3.2c1.8,0,3.1-3.8,4.1-11.3c-2.4-7.5-6.4-11.3-12.2-11.3c-8.1,0-12.2,4.3-12.2,13c0,3.9,1.6,10.1,4.9,18.6
	c9.7,14.1,14.6,23,14.6,26.8v1.6C219.3,259.3,217.7,261.2,214.5,262z M278.7,222.4c8.5-0.5,17.1-0.2,25.6,0.2
	c3.1,0.2,6.2,0.5,9.2,0.9c3.1,0.4,6.5,0.5,9.5,1.3c2.6,0.6,8.6,3.6,10.3,0c1.3-2.8-2.2-5.1-4.3-6c-8.8-3.6-19.4-2.1-28.6-1.8
	c-15.6,0.6-31.1,2.2-45.9,6.7c-1.7,0.5-6.4,1-5.7,3.9c0.2,0.9,1,1.5,1.5,2.2c0.6,0.7,0.9,1.6,1,2.5c0.1,1.7-0.4,3.7-0.8,5.3
	c-0.4,2.2-2,7.7,0.9,9c0.5,0.2,0.9,0.1,1.3-0.2c2.2-1.5,2.4-6.2,2.3-8.6c0-1.9-0.3-3.8-0.9-5.6c-0.3-0.8-0.7-1.6-1.2-2.3
	c-1-1.3-0.6-2,0.9-1.3c1.5,0.7,2.8,1.5,4.2,2.4c1.6,1,3,2.2,4.4,3.5c1.5,1.4,2.8,3,4.1,4.5c1.5,1.8,2.7,3.8,4.6,5.1
	c1.6,1.1,3,2,4.8,1.1c1.7-0.8,2.4-2.1,1.9-3.9c-0.6-2.2-2.5-4.4-4.3-5.8c-2.9-2.2-5.8-4.1-9-5.5c-1.5-0.6-3-1.2-4.6-1.8
	c-0.8-0.3-3.5-0.8-3.5-1.7c2.5-0.5,5.5,0.3,8,0.8c3.6,0.6,7.2,1.5,10.9,2.1c3.4,0.6,7.1,1.5,10.3,2.7c0.8,0.3,1.6,0.4,2.4,0.7
	c0.7,0.2,1.3,0.6,2,0.8c3.5,1,6.9,2.3,10.6,2.4c1.9,0,7,0.2,8.1-1.8c1.1-1.9-1.1-3.3-2.6-3.9c-4.8-1.8-10.1-2.4-15.2-3.1
	c-6.8-0.9-13.5-1.5-20.3-2.1c-2.2-0.2-4.3-0.3-6.5-0.4c-0.4,0-2.6,0.1-2.7-0.5C261.4,223.5,276.8,222.5,278.7,222.4z M247.5,220.4
	c2-0.5,3.9-0.6,5.9-0.5c0.6,0,3,0.3,4.1-0.2c0.3-0.1,0.5-0.3,0.6-0.6c0.2-1.5-4.5-3.1-5.6-3.3c-2.4-0.5-5-0.3-7.4,0.2
	c-4.1,0.9-9.5,3.3-10.3,7.9c-0.5,3,1.5,5.9,3.6,7.8c1.5,1.5,5.9,5,8.1,2.9c1-1-1.8-2.2-2.5-2.8c-1.2-1-2.1-2.2-2.5-3.7
	C240.4,223.9,243.9,221.4,247.5,220.4z M78.5,224.8c3-0.7,6.4-0.9,9.5-1.3c3.1-0.4,6.1-0.8,9.2-0.9c8.5-0.4,17.1-0.7,25.6-0.2
	c1.9,0.1,17.2,1.1,17,2.1c-0.1,0.5-2.3,0.5-2.7,0.5c-2.2,0.1-4.3,0.2-6.5,0.4c-6.8,0.6-13.5,1.2-20.3,2.1
	c-5.1,0.7-10.4,1.3-15.2,3.1c-1.5,0.6-3.7,1.9-2.6,3.9c1.1,2,6.2,1.8,8.1,1.8c3.7-0.1,7.1-1.3,10.6-2.4c0.7-0.2,1.4-0.5,2-0.8
	c0.8-0.3,1.7-0.4,2.4-0.7c3.3-1.2,6.9-2.1,10.3-2.7c3.7-0.7,7.3-1.5,10.9-2.1c2.5-0.4,5.5-1.3,8-0.8c-0.1,0.9-2.7,1.4-3.5,1.7
	c-1.5,0.5-3,1.1-4.6,1.8c-3.2,1.4-6.2,3.3-9,5.5c-1.8,1.4-3.6,3.6-4.3,5.8c-0.5,1.8,0.3,3.2,1.9,3.9c1.8,0.9,3.3,0,4.8-1.1
	c2-1.4,3.1-3.4,4.6-5.1c1.3-1.5,2.6-3.1,4.1-4.5c1.4-1.3,2.8-2.5,4.4-3.5c1.4-0.9,2.7-1.7,4.2-2.4c1.5-0.7,1.9,0,0.9,1.3
	c-0.5,0.7-0.9,1.5-1.2,2.3c-0.7,1.8-0.9,3.7-0.9,5.6c0,2.3,0.1,7,2.3,8.6c0.4,0.3,0.8,0.4,1.3,0.2c3-1.3,1.3-6.7,0.9-9
	c-0.3-1.7-0.9-3.6-0.8-5.3c0.1-0.9,0.4-1.8,1-2.5c0.6-0.7,1.3-1.3,1.5-2.2c0.7-2.8-4-3.4-5.7-3.9c-14.9-4.5-30.3-6.1-45.9-6.7
	c-9.2-0.3-19.9-1.9-28.6,1.8c-2.1,0.9-5.6,3.2-4.3,6C70,228.4,75.9,225.5,78.5,224.8z M157.6,231.8c-0.7,0.6-3.5,1.8-2.5,2.8
	c2.2,2.1,6.6-1.4,8.1-2.9c2-1.9,4.1-4.8,3.6-7.8c-0.8-4.6-6.2-7-10.3-7.9c-2.4-0.5-5-0.7-7.4-0.2c-1.1,0.2-5.7,1.8-5.6,3.3
	c0,0.3,0.2,0.5,0.6,0.6c1.1,0.5,3.4,0.3,4.1,0.2c2-0.1,3.9,0,5.9,0.5c3.6,1,7.1,3.5,6.1,7.7C159.7,229.6,158.8,230.8,157.6,231.8z
	 M342.4,313.3c-1.1,1.5-0.1,3.7,0.9,4.9c2,2.4,5.1,2.1,7.1-0.3C353.9,313.7,345.3,309.2,342.4,313.3z M368.7,321.8
	c-0.1,1-1,3-2.2,3.5c-0.4,0.2-0.7,0.2-1.1,0.1c-1.1-0.4-1.3-1.6-1.8-2.4c-0.8-1.2-2-2.6-3.1-3.6c-0.6-0.6-1.5-1.2-2.2-1.6
	c-1.2-0.7-2.4-0.8-3.6-1.4c-2.1-1-0.4-2,1-2.4c3.7-0.8,7.9,0.7,10.7,3C367.7,318.3,368.9,319.9,368.7,321.8z M359.5,315.7
	c-0.1-0.1-0.1-0.1-0.2-0.1c-0.6-0.3-1.3,0.5-0.7,1C359.2,317.1,360,316.3,359.5,315.7z M363.4,317.6
	C363.4,317.6,363.4,317.6,363.4,317.6c-0.3-0.7-1.6-0.7-1.7,0.1C361.6,319.2,363.9,318.9,363.4,317.6z M366.3,320.6
	c-0.4-1.1-1.7-1-1.9,0.2c0,0.1,0,0.1,0,0.2c0,0.5,0.3,1.2,0.8,1.3C366.1,322.5,366.5,321.3,366.3,320.6z M374.6,305.6
	c-0.6,4.3-7.8,2.2-11.4,2.7c-2.5,0.3-5,0.9-7.3,1.8c-0.7,0.3-2.3,1.3-3,1.3c-0.9-0.1-0.5-1-0.1-1.5c0.5-0.6,1.3-1.2,2-1.7
	c1.3-1.1,2.8-2.1,4.3-3.1C362.5,303,375.8,296.2,374.6,305.6z M360.6,306.4c-0.2-0.2-0.5-0.4-0.9-0.3c-1,0.3-0.3,1.7,0.6,1.2
	C360.7,307.1,360.8,306.7,360.6,306.4z M366,304.7c-0.5-0.7-2.4-0.4-2.2,0.7c0.1,1.2,1.5,1.5,2.1,0.5
	C366.2,305.3,366.2,304.9,366,304.7z M372,304.3c-0.1-1.3-2.4-1.4-3-0.3c-1.2,2,2.5,3,3,0.8C372,304.6,372,304.4,372,304.3z
	 M349.2,304.5c0.6-1.9,1.3-3.7,2.2-5.5c1.7-3.7,4-7.1,6.6-10.2c2.2-2.6,7.1-6.9,8-1.7c0.9,4.7-3.8,8.6-6.8,11.2
	c-2.2,2-4.3,4.1-6.1,6.5c-0.5,0.6-3.5,5.6-4.4,4.1C348,307.9,348.8,305.6,349.2,304.5z M360.7,289.6c0,1.1,0.8,1.6,1.6,1.5
	c0.5-0.1,1-0.4,1.3-1c0.3-0.7,0.2-1.2-0.2-1.6C362.6,287.6,360.7,287.7,360.7,289.6z M357.4,295.3c0.9,0.9,2.3-0.4,1.8-1.4
	c0,0,0-0.1-0.1-0.1c-0.4-0.6-1.2-0.7-1.8-0.2C356.8,294.1,356.9,294.9,357.4,295.3z M353.6,300.1c0.3,0.8,1.2,0.9,1.7,0.2
	c0.4-0.5,0.3-1-0.1-1.2C354.5,298.7,353.2,298.8,353.6,300.1z M345.6,304.4c0,1.5,0.2,3.2-1,4.4c-1.3-0.5-1.6-2.7-2.3-3.7
	c-1-1.4-2.3-2.6-3.5-3.8c-1.8-1.9-2.1-3.7,0-5.5c3.1-2.7,5.5,0.1,6.3,3.2C345.6,300.8,345.6,302.5,345.6,304.4z M342.8,299
	c-0.4-1.2-3.2-1.3-2.7,0.4C340.5,300.9,343.2,300.6,342.8,299z M344.1,302.7C344.1,302.7,344.1,302.7,344.1,302.7
	c-0.6-0.5-1.4,0.1-1.1,0.7C343.4,304.5,344.7,303.4,344.1,302.7z M341.5,310.9c-0.2,1.2-2.1,0.2-3,0.3c-1.1,0.1-2.1,0.4-3.2,0.7
	c-2.1,0.6-4.3,0.8-4.7-1.9c-0.3-2.6,3.5-4.1,5.6-3.8C337.8,306.5,341.8,309,341.5,310.9z M335.6,308.6c-0.6-0.9-3.2,0.4-1.8,1.4
	C334.5,310.5,336.2,309.5,335.6,308.6z M338.4,308.9c-0.4-0.7-1.4-0.1-1,0.6C337.8,310.2,338.8,309.5,338.4,308.9z M313.3,103.8
	c2.2,13.2-20,57.1-27,65.7c-5.2,6.4,0.2,8.2,4.5,9.7c4.2,1.7,9.4,4,9.8-4.2c0.6-11.1,13.4-58.5,23.8-66.9c4.7-1.8,9.4-6.8,12-13.7
	c3.9-10.1,1.8-20.2-4.5-22.6c-6.4-2.4-14.6,3.8-18.5,13.8c-2.4,6.3-2.5,12.6-0.7,17.1C313,103.1,313.2,103.5,313.3,103.8z
	 M319.9,157.5c-1.2,0.6-2.3,1.2-3.5,1.8c-4.9,2.4-7.6,6.4-8.6,11.7c-0.4,2.5-0.3,5.1,0.8,7.7c0.2-0.6,0.4-0.9,0.5-1.3
	c1.3-3,2.5-6,3.8-8.9c0.2-0.4,0.8-0.9,1.3-1c0.4-0.1,1.2,0.3,1.3,0.7c0.2,0.5,0.2,1.3,0,1.9c-1.3,3.3-2.7,6.5-4.1,9.8
	c-0.4,0.8-0.2,1.4,0.6,1.7c0.8,0.4,1-0.3,1.2-0.9c1.3-3.1,2.6-6.2,3.9-9.3c0.6-1.5,1.4-2.1,2.3-1.7c0.9,0.4,1,1.3,0.4,2.8
	c-1.3,3.2-2.6,6.3-4,9.4c-0.3,0.8-0.2,1.3,0.6,1.5c0.8,0.2,1-0.3,1.3-0.9c1.4-3.3,2.7-6.5,4.1-9.8c0.5-1.2,1.3-1.6,2.1-1.3
	c0.9,0.3,1.2,1.3,0.8,2.5c-0.3,0.8-0.7,1.7-1,2.5c-1,2.3-2,4.6-2.9,7c0.1,0.1,0.2,0.1,0.2,0.2c0.5-0.2,1-0.5,1.4-0.7
	c4-2.6,6.3-6.3,7.2-10.9c0.7-3.3-0.2-6.4-1.3-9.4c-1-2.7-0.9-5.3,0.2-8c6.6-15.5,13.1-31,19.6-46.5c0.2-0.4,0.3-0.7,0.4-1.1
	c0.3-1.1-0.2-2.3-1.1-2.8c-1-0.6-2.2-0.4-3,0.5c-0.4,0.5-0.7,1.1-1,1.7c-6.6,15.7-13.2,31.4-19.8,47
	C322.8,155.2,321.6,156.6,319.9,157.5z"/>
</svg>
