<?xml version="1.0" encoding="utf-8"?>
<!-- Generator: Adobe Illustrator 18.0.0, SVG Export Plug-In . SVG Version: 6.00 Build 0)  -->
<!DOCTYPE svg PUBLIC "-//W3C//DTD SVG 1.1//EN" "http://www.w3.org/Graphics/SVG/1.1/DTD/svg11.dtd">
<svg version="1.1" id="Layer_1" xmlns="http://www.w3.org/2000/svg" xmlns:xlink="http://www.w3.org/1999/xlink" x="0px" y="0px"
	 viewBox="0 0 432 432" enable-background="new 0 0 432 432" xml:space="preserve">
<path fill="#383735" d="M70,201.8c-0.2-1.8-0.4-3.6-0.6-5.4c-0.2-1.8-0.4-3.6-0.5-5.4c0-0.2,0-0.4,0.2-0.6c0.3,1.1,0.5,2.2,0.8,3.3
	c0.6,2.7,1.1,5.4,1.6,8.1c0.1,0.3,0.1,0.7,0.8,0.6c0.8-0.1,0.8-0.4,0.8-0.9c-0.3-2.8-0.6-5.6-0.9-8.5c-0.1-1.1-0.2-2.2-0.1-3.4
	c0.4,1.7,0.8,3.5,1.1,5.2c0.4,2,0.8,4,1.2,6.1c0.1,0.4,0.1,0.8,0.8,0.7c0.8-0.1,0.7-0.5,0.6-0.9c-0.6-3.8-1.2-7.7-1.7-11.5
	c0.1,0,0.3,0,0.4-0.1c0.2,0.6,0.5,1.1,0.6,1.7c1,4.1,2,8.2,2.9,12.2c0.3,1.1-0.1,2.1-1.1,3.2c-1.7,1.7-2.3,3.5-2,5.5
	c1.8,9.5,4,18.8,6.7,28.1c0.2,0.7,0.3,1.4,0.2,2.2c-0.1,1.3-1.3,2.2-3,2.4c-1.7,0.3-3.1-0.2-3.6-1.4c-0.3-0.8-0.5-1.7-0.5-2.6
	c-0.2-9.5-0.9-18.9-1.9-28.3c-0.2-2.2-1.5-3.7-3.8-5c-1-0.5-1.6-1.2-1.7-2.1c-0.4-4.9-0.8-9.7-1.1-14.6c0.2,0,0.3-0.1,0.5-0.1
	c0.1,0.6,0.2,1.3,0.3,1.9c0.5,3.1,1.1,6.2,1.6,9.4c0,0.2,0.3,0.6,0.5,0.6C69.7,202.7,70.1,202.3,70,201.8z M209.6,97.8
	c1.5,0.8,3.6,0.7,5.3,1.2c1.9,0.5,3.7,1.4,5.5,2.2c3.1,1.4,6.2,3.1,8.8,5.3c0.5,0.4,5.4,4.5,5.8,4.1c0-2.2-1.4-4.9-2.4-6.8
	c-0.7-1.4-2.9-4.4-0.6-5.6c1.1-0.5,3.7-0.7,4.8-0.6c6.5,0.2,9.6,0.3,14.8,0.6c5.4,0.3,13,1.8,18.3,2.5c8.7,1.1,15,2.6,23.6,4.8
	c5,1.3,9.6,3.3,14.3,5.5c2.2,1.1,4.4,1.9,6.7,2.8c1.6,0.6,3.4,2.7,5.3,2.3c0.1,0,0.2-0.1,0.3-0.1c1.3-0.7-1.8-3.3-2.3-4.1
	c-1.3-2-5.5-5.6-5.2-8.2c5.8-1,12.4,2.6,18,0.7c-0.4-1.5-1.9-1.3-3.1-1.8c-1.4-0.6-2.6-1.7-4.1-2.2c-10.5-3.8-21.4-5.1-32.5-6.2
	c-5.2-0.5-10.3-1.1-15.5-1.6c-5.6-0.5-11.2,0-16.8,0c-5.3,0-10.7-0.3-16,0.2c-3.7,0.3-7.6,1.3-11.3,0.8c-0.1-3.6,3.5-7.6,4.7-10.9
	c0-0.1-4.2,1-4.7,1.2c-3.3,1.5-6.4,3.2-9.4,5.1c-2.5,1.5-4.8,3.2-7.2,5C213.4,95.2,210.7,96.4,209.6,97.8z M59.4,68.4
	c0,5.1,2,7.7,6,7.7h0.9c1.7-0.3,2.5-2.6,2.5-6.9V53c0-4.8-0.3-12.6-0.9-23.1h1.7c4.2,13.1,8.8,19.7,13.7,19.7h1.7
	C87.4,33,89.7,24.7,92,24.7v37.7c0.9,9.7,2.4,14.6,4.3,14.6h2.6c1,0,1.8-1.4,2.5-4.3h-0.9C99.9,49.2,99.1,28.6,98,11
	c-0.9-1.7-1.8-2.6-2.6-2.6H92c-2.6,0.9-6.6,9.8-12,26.6h-0.9c-6.3-17.1-12-25.7-17.2-25.7h-0.8c-0.9,0-1.7,1.2-2.6,3.4
	c0.6,5.9,0.9,10.4,0.9,13.7V68.4z M107.7,70.2c0-38.9,2.9-58.4,8.6-58.4c0-1.6,2.9-2.7,8.6-3.5c10.3,0,15.5,11.2,15.5,33.5
	c0,4.2,0.3,7.4,0.9,9.5c-0.6,17.7-2.3,26.6-5.1,26.6h-0.9c-2.3,0-3.5-4.3-3.5-12.9v-5.1h-0.9c-9.7,0-14.6,2.3-14.6,6.9
	c-0.7,6.3-2.1,9.4-4.3,9.4C109.1,75.4,107.7,73.4,107.7,70.2z M118,54.7c0.6,0,0.9,0.3,0.9,0.9c8.6-1.3,12.9-3,12.9-5.1
	c0-5.6-0.3-15.9-0.9-30.9c-1.1-2.6-2.2-4.1-3.4-4.3H124C120,15.3,118,28.4,118,54.7z M148.7,67.7c0,3,1.1,5,3.4,5.9h2.5
	c1.1-5,1.7-8.7,1.7-11V32.1h0.9c7.9,12.3,11.9,19.1,11.9,20.3v16.9c0,4.3,1.2,6.9,3.4,7.6h1.7c0.8,0,1.7-1.2,2.5-3.4l-0.9-1.7
	c0.6-6.2,0.9-11.5,0.9-16.1v-5.1c0-10.3,0.3-23.3,0.8-38.9c-0.4-1.7-1.5-2.8-3.4-3.4c-2.3,0-3.7,1.2-4.2,3.4l0.8,4.2
	c-0.5,9.4-0.8,16.4-0.8,21.2V38H169l-1.7-0.8c-7.6-18.6-13.2-27.9-16.9-27.9l-2.5,3.4c0.6,3.9,0.9,7,0.9,9.3V67.7z M195.1,64.8v4.8
	c0,4.2,1.1,6.6,3.3,7.3h1.6c1.2,0,2.3-1.9,3.3-5.7l-0.8-4.9c0.5-9.8,0.8-16.1,0.8-18.7c0.2-11.3,4.7-23.1,13.2-35.4
	c-1-1.4-1.9-2.1-2.6-2.1l-3.7-0.9c-6.1,12.6-9.5,19.4-10.2,20.4c-8-13.6-13.7-20.6-17.3-21.2l-2.3,0.9V11c0,2.2,5.1,10.8,15.5,26.1
	C195.3,48.4,195.1,57.6,195.1,64.8z M236.3,70.5c0,3.3,1.5,5.4,4.5,6.2c3.6,0,5.4-6.2,5.4-18.8c0-1.1,1.5-1.6,4.5-1.8h6.2
	c0.5,13.1,2.3,19.6,5.4,19.6h0.9c1.2,0,2.4-1.8,3.6-5.3c-1.2-4-1.8-10.2-1.8-18.8c0-29.2-2.4-43.8-7.2-43.8l-3.6,1.8
	c1.2,7.1,1.8,16.1,1.8,26.8v10.8c-0.9,1.8-1.8,2.6-2.7,2.6h-4.5l-1.8-0.9c-1.3-25.6-3.4-38.4-6.3-38.4h-2.7l-2.6,1.8l1.8,30.4
	C236.6,51.6,236.3,60.9,236.3,70.5z M272.5,70.2c0-38.9,2.9-58.4,8.6-58.4c0-1.6,2.9-2.7,8.6-3.5c10.3,0,15.5,11.2,15.5,33.5
	c0,4.2,0.3,7.4,0.9,9.5c-0.6,17.7-2.3,26.6-5.1,26.6H300c-2.3,0-3.5-4.3-3.5-12.9v-5.1h-0.9c-9.7,0-14.6,2.3-14.6,6.9
	c-0.7,6.3-2.1,9.4-4.3,9.4C274,75.4,272.5,73.4,272.5,70.2z M282.8,54.7c0.6,0,0.9,0.3,0.9,0.9c8.6-1.3,12.9-3,12.9-5.1
	c0-5.6-0.3-15.9-0.9-30.9c-1.1-2.6-2.2-4.1-3.4-4.3h-3.5C284.8,15.3,282.8,28.4,282.8,54.7z M313.5,39c1.5,25.3,5.4,38,11.9,38
	l4.2-1.7c4.1-6.6,8.9-27.4,14.3-62.4c0-1.9-1.4-3.3-4.2-4.2l-2.5,1.7c-4.5,29.8-8.2,49.2-11,58.2h-1.7l-5-37.1
	c-1.2-15.2-4.1-22.8-8.4-22.8l-2.5,1.7C311.2,29.5,312.9,39,313.5,39z M361.8,77c1,0,4-0.5,9-1.6v-2.4c0-1.2-1.9-2.3-5.7-3.3
	c0,0.5-0.3,0.8-0.8,0.8h-4.9c-1.6-0.9-2.4-1.7-2.4-2.4V54.1h4.1l5.7-1.6v-1.6l-0.8-1.6c-5.4-0.5-8.2-1.3-8.2-2.4V17.4
	c8.7-2.5,13.1-4.2,13.1-4.9v-0.8c0-1.2-1.9-2.3-5.7-3.3L352,11.7c-2.7,0-4.1,17.4-4.1,52.3C347.9,71.5,352.5,75.9,361.8,77z
	 M100.4,109.4c1.8-1.5,4-3,6.7-4.4c2.6-1.4,5.8-2.7,9.4-3.8c2.5-0.8,5.5-1.5,8.8-2.3c2.9-0.6,6.3-1.3,10.2-2
	c3.9-0.7,8.3-1.3,13.2-1.9c1-0.1,2.4-0.2,4.1-0.3c1.7-0.1,3.3-0.2,4.9-0.3c1.8-0.1,3.7-0.3,5.8-0.4c6-0.3,11.2-0.8,15.7-1.5
	c4.4-0.6,8.2-1.5,11.3-2.6c3.1-1.1,5.7-2.5,7.6-4.1c2-1.6,3.5-3.7,4.6-6.1c0.2-0.4,0.5-0.7,1-0.9c0.5-0.2,0.9-0.2,1.3,0.1
	c0.6,0.3,1.1,0.7,1.6,1.2c0.5,0.5,1,1.2,1.3,2.2c0.6,1.5,0.6,3.1,0.2,4.6c-0.5,1.5-1.3,2.9-2.6,4c-0.9,0.8-2.1,1.6-3.7,2.5
	c-1.5,0.9-3.4,1.7-5.7,2.5c-2.2,0.8-4.9,1.4-8,2c-3.1,0.6-6.7,0.9-10.8,1.2c-2.2,0.1-4.5,0.2-6.7,0.3c-2.2,0.1-4.5,0.1-6.8,0.2
	c-0.3,1.3-0.7,3.1-1.2,5.5c-0.5,2.4-1.1,5.3-1.8,8.6c-0.7,3.4-1.4,7.1-2.1,11.3c-0.7,4.2-1.4,8.6-2,13.4c1.3-2,2.9-3.8,4.6-5.6
	c1.7-1.8,3.6-3.3,5.6-4.5c0.4-1.1,1-2.1,1.8-2.9c0.6-0.8,1.3-1.4,2.3-2c0.9-0.6,2-0.8,3.3-0.7c1.1,0,1.9,0.1,2.6,0.4
	c0.7,0.3,1.3,0.6,1.7,0.9c0.3,0.4,0.5,0.8,0.5,1.2c0,0.5-0.2,0.9-0.5,1.2c-2.5,2.5-4.3,5.4-5.5,8.8c-1.2,3.4-1.5,7.9-0.9,13.4
	c0.1,0.8-0.2,1.5-0.9,1.8c-0.8,0.4-1.4,0.3-2-0.3c-0.6-0.6-1.2-1.5-1.8-2.5c-0.6-1-1-2.3-1.3-3.8c-0.4-2-0.6-3.8-0.7-5.4
	c-0.1-1.5-0.1-2.9,0.1-4.1c-2,1.8-4,4.2-6,7.1c-2,2.9-3.4,6.7-4.4,11.1c-0.7,7.2-1.2,14.6-1.5,22.1c-0.3,7.5-0.1,15,0.4,22.5
	c1.5-0.6,2.9-1.3,4.2-2c1.3-0.7,2.4-1.3,3.4-1.9c1.1-0.7,2.1-1.4,2.9-2c2.7-2,5.2-4.1,7.3-6.4c2.1-2.3,3.9-4.6,5.4-6.9
	c1.4-2.3,2.5-4.4,3.2-6.4c0.7-2,0.9-3.6,0.7-5c-0.1-0.6,0.1-1.2,0.6-1.6c0.5-0.5,1.1-0.6,1.6-0.5c0.9,0.2,1.8,0.5,2.8,0.8
	c0.9,0.4,1.8,0.8,2.6,1.5c0.8,0.6,1.4,1.4,1.8,2.4c0.5,0.9,0.6,2.1,0.6,3.4c0,0.6-0.1,1.3-0.4,2.1c-0.2,0.8-0.5,1.5-0.8,2.1
	c-0.6,1.3-1.9,3.3-3.7,6c-1.9,2.7-4.4,5.5-7.6,8.5c-3.2,2.9-7.2,5.7-11.8,8.2c-4.7,2.6-10.1,4.4-16.2,5.5c-1.1,0.3-2.4,0.5-3.8,0.6
	c-1.3,0.1-2.8,0.2-4.6,0.3c-1.8,0.1-3.9,0-6.4-0.1c-1.7-0.1-3.4-0.4-5.1-0.6c-1.5-0.3-3.1-0.6-4.8-1.1c-1.7-0.5-3.3-1.1-4.7-1.8
	c-1.2-0.6-1.9-1.4-2.3-2.2c-0.3-0.8-0.4-1.6-0.4-2.3c0-0.4,0.1-0.6,0.4-0.7c0.3-0.1,0.6-0.1,0.8,0c3.7,1.5,7.5,2.4,11.5,2.9
	c4,0.5,7.9,0.4,11.7-0.1c-0.1-2.3-0.2-5.8-0.2-10.6c0-4.7,0.2-10.4,0.5-17.1c0.3-6.7,1-14.1,1.9-22.5c0.9-8.3,2.2-17.2,4-26.7
	c-3.7,3.7-8.3,7.1-13.8,10.3c-2,1.2-4.2,2.3-6.6,3.3c-2.1,0.8-4.7,1.6-7.7,2.4c-3,0.8-6.4,1.2-10.2,1.4c-2.2,0.1-4.4,0-6.5-0.5
	c-2.1-0.5-3.9-1.2-5.6-2.1c-1.7-0.9-3.1-2.2-4.3-3.6c-1.2-1.5-1.9-3.2-2.4-5.1c-0.6-3.6-0.2-7.1,1.2-10.5c0.6-1.5,1.5-3,2.6-4.5
	C97.2,112.5,98.6,110.9,100.4,109.4z M101,114.1c-1.2,1.2-2.2,2.5-2.9,3.9c-0.8,1.4-1.3,3-1.6,4.8c-0.3,1.8-0.2,3.7,0.3,5.8
	c0.4,1.8,1.2,3.3,2.5,4.4c1.2,1.1,2.7,1.9,4.5,2.4c1.8,0.5,3.7,0.7,5.8,0.7c2.1,0,4.2-0.3,6.3-0.7c3.3-0.6,6.5-1.6,9.7-2.9
	c3.2-1.3,6.1-2.9,8.8-4.7c2.7-1.9,5.3-3.9,7.6-6.1c2.3-2.2,4.3-4.6,5.9-7.1c1.6-2.4,2.9-4.8,4-7.2c1.1-2.4,1.9-4.8,2.5-7.3
	c-2.5,0.2-4.9,0.4-7.3,0.6c-2.4,0.2-4.8,0.5-7.2,0.7c-5.3,0.7-10.1,1.5-14.2,2.4c-4.1,0.9-7.4,1.7-9.8,2.5
	c-4.2,1.2-7.8,2.8-10.9,4.9C103.4,111.9,102.2,112.9,101,114.1z M229.5,168.6c-0.1,1.8-0.1,3.3,0.2,4.4c0.2,1.2,0.6,1.8,1.3,1.8
	c0.9,0.1,1.8-0.4,2.8-1.7c0.9-1.3,1.8-2.8,2.7-4.6c0.8-1.8,1.6-3.6,2.3-5.4c0.2-0.7,0.5-1.3,0.7-1.8c-0.1-2.9,0-6,0.2-9.4
	c0.3-5.2,0.9-10.5,1.6-15.7c-5.6,0.8-10.3,0.9-14.2,0.5s-7-1.2-9.6-2.2c-2.5-1.1-4.5-2.3-5.9-3.8c-1.4-1.5-2.4-2.9-3-4.3
	c-0.4-1-0.6-1.9-0.5-2.9c0.1-0.9,0.4-1.8,0.9-2.6c0.5-0.8,1.2-1.5,2.2-1.9c0.9-0.5,2-0.8,3.2-0.8h1.1c0.6,0,1.2,0.2,1.6,0.6
	s0.6,0.9,0.5,1.4c-0.1,1.5,0.1,2.9,0.6,4.4c0.6,1.5,1.5,2.8,2.9,3.9c1.4,1.1,3.3,2,5.6,2.8c2.3,0.7,5.2,1.1,8.6,1.1
	c1,0,2-0.1,3.2-0.2c1.2-0.1,2.3-0.2,3.5-0.4c0.6-3.6,1.3-6.9,2-10.1c0.7-3.2,1.5-6,2.3-8.4c0.3-0.9,1-1.4,2-1.4
	c0.8,0,1.7,0.1,2.9,0.4s2.3,0.9,3.3,1.8c0.6,0.4,0.9,1,1.1,1.6c0.2,0.7,0.2,1.3-0.1,1.9c-0.4,1.2-0.8,2.8-1.3,4.9
	c-0.5,2.1-1,4.6-1.6,7.4c3.6-0.8,7.2-1.6,11-2.6c3.7-1,7.4-2,11.1-3c3.6-1,7.2-2.1,10.6-3c3.4-1,6.5-1.9,9.2-2.6
	c4.1-1.1,7.5-1.5,10.2-1.4c2.7,0.1,4.9,0.5,6.6,1c2,0.7,3.5,1.6,4.6,2.8c0.5,0.6,0.9,1.3,1.2,2.1c0.2,0.6,0.3,1.3,0.3,2
	c0,0.7-0.3,1.5-0.9,2.3c-0.6,0.6-1.4,1.2-2.6,1.6s-2.4,0.6-3.8,0.5c-0.6,0-1.2-0.1-1.7-0.3c-0.4-0.1-0.8-0.4-1.3-0.7
	c-0.4-0.3-0.7-0.9-0.7-1.7c-0.2-1.9-1.7-2.8-4.5-2.8s-6.6,0.5-11.4,1.5c-4.8,1-10.5,2.4-17.1,4c-6.6,1.7-13.8,3.3-21.5,4.7
	c-0.6,3.1-1.2,6.3-1.8,9.7c-0.6,3.4-1.1,6.8-1.5,10.1c-0.4,3.3-0.7,6.5-0.9,9.5c-0.2,3-0.2,5.6,0,7.9c0.2,2.3,0.6,4.1,1.2,5.5
	s1.5,2,2.7,2c0.9,0,1.9-0.9,2.9-2.6c1.1-1.7,2.1-3.8,3-6c1-2.3,1.8-4.5,2.6-6.7c0.1-0.3,0.2-0.6,0.3-0.8c0-1.3,0.1-2.7,0.3-4.2
	c0.5-3.4,1.3-6.4,2.5-9c0.5-1.1,1.1-2.2,1.8-3.3c0.7-1.1,1.5-2,2.4-2.8c0.9-0.8,2-1.4,3.2-1.9c1.2-0.5,2.5-0.6,4-0.6
	c1.9,0.1,3.3,0.7,4.4,1.8c1,1,1.6,2.3,1.8,3.8c0.2,1.5,0.1,3.1-0.4,4.8c-0.5,1.8-1.2,3.4-2.3,4.9c-1.1,1.5-2.4,2.9-3.9,3.9
	c-1.6,1.1-3.3,1.7-5.2,1.8c0,1.1,0.1,2.5,0.3,4c0.2,1.6,0.5,3.1,1.1,4.5c0.5,1.4,1.3,2.5,2.3,3.4c1,0.9,2.4,1.2,4.1,0.9
	c0.8-0.1,1.8-0.9,2.8-2.3c1-1.4,2-2.9,2.9-4.7c0.9-1.7,1.7-3.5,2.5-5.2c0.3-0.6,0.5-1.1,0.7-1.6c0.1-0.7,0.2-1.4,0.3-2.2
	c0.5-2.8,1.1-5.4,1.8-7.8c0.7-2.4,1.3-4.2,1.7-5.4c0.2-0.8,0.9-1.2,2-1.4c1,0,2.2,0.1,3.6,0.2c1.4,0.1,2.7,0.4,3.8,1
	c1.2,0.7,1.6,1.6,1.3,2.7c-0.3,0.8-0.6,1.8-1,3c-0.4,1.3-0.8,2.7-1.2,4.3c-0.4,1.6-0.8,3.2-1.2,5c-0.4,1.8-0.7,3.5-0.9,5.3
	c0.8-2.4,1.9-5.1,3.3-8.2c1.3-3.1,2.9-6.1,4.6-8.8c1.8-2.8,3.7-5.1,5.8-7c2.1-1.9,4.3-2.8,6.7-2.7c2,0.1,3.6,0.5,4.8,1.4
	c1.2,0.9,2,2,2.5,3.3c0.5,1.3,0.8,2.8,0.9,4.5c0.1,1.6,0,3.3-0.2,4.9c-0.2,1.6-0.5,3.2-0.8,4.8c-0.4,1.5-0.6,2.9-0.8,4
	c-1.4,4.5-2.5,8.5-3.3,12.2c-0.4,1.5-0.7,3.1-0.9,4.6c-0.3,1.5-0.5,2.9-0.6,4.1c-0.1,1.3-0.1,2.3,0.1,3.2c0.1,0.9,0.4,1.4,0.8,1.6
	c0.6,0.3,1.5,0.1,2.6-0.8c1.1-0.9,2.3-2.2,3.6-3.9c1.3-1.7,2.7-3.7,4-5.9c1.4-2.2,2.7-4.6,3.9-6.9c1.1-2,2-4.1,2.8-6.3
	c0.8-2.2,1.4-3.9,1.8-4.9c0.3-0.6,0.7-0.8,1.3-0.4c0.1,0.1,0.2,0.2,0.5,0.3c0.6,0.6,0.8,1.3,0.6,2.1c-0.1,0.6-0.3,1.3-0.6,2.2
	c-0.2,0.9-0.6,1.9-0.9,3.1c-0.4,1.2-0.8,2.4-1.4,3.6c-0.5,1.3-1.1,2.5-1.7,3.7c-2,4.1-4.1,7.6-6.3,10.7c-1,1.3-2,2.6-3.1,3.8
	c-1.1,1.2-2.2,2.3-3.4,3.2c-1.2,0.9-2.3,1.5-3.5,2c-1.2,0.5-2.4,0.6-3.6,0.4c-2-0.4-3.5-1.5-4.5-3.5c-1-2-1.6-4.2-1.9-6.7
	c-0.3-2.5-0.4-5-0.3-7.5c0.1-2.5,0.3-4.4,0.5-5.7c0.6-3.1,1.2-6.1,2-8.9c0.8-2.9,1.6-5.5,2.3-7.8c0.7-2.3,1.2-4.2,1.5-5.8
	c0.3-1.5,0.2-2.6-0.3-3c-0.4-0.3-0.9-0.4-1.4-0.2c-0.5,0.2-1.1,0.5-1.6,0.9c-0.6,0.4-1.2,1-1.8,1.7c-1.5,1.8-2.9,3.8-4.3,6.2
	c-1.4,2.4-2.6,4.9-3.7,7.4c-1.1,2.5-2,4.9-2.9,7.2c-0.8,2.3-1.5,4.2-2,5.8c-0.1,0.1-0.2,0.4-0.4,0.7c-0.2,0.4-0.5,0.7-0.8,1
	c-0.4,0.4-0.8,0.6-1.4,0.9c-0.6,0.2-1.3,0.4-2.2,0.4c-1.4,0-2.5-0.3-3.2-0.9c-0.7-0.6-1.3-1.1-1.6-1.5c-0.7-1.1-1.2-2.4-1.5-3.8
	c-0.3,0.6-0.5,1.2-0.8,1.8c-1.1,2.3-2.5,4.3-4.1,6c-1.6,1.7-3.6,2.6-5.7,2.6c-3.1,0.1-5.8-0.7-8.1-2.2c-1-0.6-1.9-1.5-2.8-2.6
	c-0.9-1.1-1.6-2.4-2.3-4c-0.2-0.6-0.4-1.2-0.6-1.9c-0.5,1.4-1.1,2.8-1.7,4.2c-0.8,1.9-1.8,3.6-2.8,5.1c-1.1,1.5-2.2,2.8-3.4,3.8
	c-1.2,1-2.5,1.4-3.9,1.4c-1.5-0.1-2.9-0.9-4.2-2.2c-1.1-1.2-2.2-3-3.3-5.6c-0.8-2-1.4-4.6-1.9-8c-0.5,1.2-1,2.4-1.6,3.6
	c-0.8,1.5-1.6,3-2.6,4.3c-1,1.3-2.1,2.3-3.3,3.1c-1.2,0.8-2.5,1.1-3.9,1c-3.2-0.1-5.5-2-6.9-5.5c-1.5-3.5-2.1-8.1-1.8-13.8
	c-0.9,1.8-2,3.6-3.3,5.6c-1.3,2-2.7,3.8-4.3,5.4c-1.6,1.6-3.3,3-5.1,4c-1.8,1-3.7,1.4-5.7,1.2c-2-0.2-3.5-0.9-4.6-1.9
	c-1.1-1.1-1.9-2.4-2.3-4c-0.4-1.6-0.5-3.3-0.3-5.2s0.7-3.8,1.4-5.7c0.7-1.9,1.5-3.7,2.6-5.5c1.1-1.7,2.3-3.2,3.6-4.4
	c1.5-1.3,3.1-2.5,4.9-3.5c1.8-1,3.6-1.6,5.4-2c1.8-0.3,3.5-0.3,5.1,0c1.6,0.4,3.1,1.2,4.4,2.4c0.1-0.9,0.3-1.8,0.6-2.6
	c0.2-0.8,0.5-1.7,0.7-2.6c0.3-1.1,1.1-1.6,2.1-1.6c1,0.1,2.2,0.2,3.5,0.5c1.4,0.3,2.6,0.8,3.7,1.6c0.4,0.4,0.7,0.8,0.9,1.3
	c0.2,0.5,0.2,1.1,0.1,1.6c-0.2,1-0.5,2.4-0.9,4.1c-0.4,1.8-0.8,3.7-1.2,5.8c-0.4,2.1-0.8,4.2-1.1,6.3
	C229.8,164.8,229.6,166.8,229.5,168.6z M220.5,152.4c-0.4-0.8-1.2-1.2-2.2-1.4c-1.1-0.1-2.2,0.1-3.6,0.7c-1.3,0.6-2.7,1.6-4.1,2.9
	c-1.4,1.4-2.7,3.2-3.9,5.5c-1.5,2.9-2.5,5.1-2.9,6.7c-0.4,1.6-0.5,2.8-0.4,3.5c0.1,0.9,0.6,1.5,1.3,1.7c0.5,0.1,1.2-0.3,2.1-1.2
	c0.9-0.8,1.9-1.9,3-3.3c1.1-1.3,2.3-2.8,3.4-4.5c1.2-1.6,2.2-3.2,3.3-4.7c1-1.5,1.9-2.8,2.6-3.9
	C219.8,153.4,220.3,152.7,220.5,152.4z M269.3,157.9c0.8-0.3,1.7-0.9,2.7-1.7c1-0.8,1.9-1.9,2.8-3.3c0.7-1.2,1.1-2.2,1.3-2.9
	c0.1-0.8,0.1-1.4,0-1.9c-0.1-0.5-0.4-0.8-0.6-1c-0.3-0.2-0.5-0.2-0.7-0.2c-0.1,0-0.4,0.1-0.8,0.3c-0.4,0.2-0.8,0.6-1.3,1.3
	c-0.5,0.7-1,1.8-1.6,3.3C270.3,153.3,269.7,155.3,269.3,157.9z M198.9,240.3c2.7,0,4-4.7,4-14c0-0.8,1.1-1.2,3.3-1.3h4.7
	c0.4,9.8,1.7,14.6,4,14.6h0.7c0.9,0,1.8-1.3,2.6-4c-0.9-3-1.3-7.6-1.3-14c0-21.8-1.8-32.7-5.3-32.7l-2.6,1.3c0.9,5.3,1.3,12,1.3,20
	v8c-0.7,1.3-1.4,2-2,2h-3.3l-1.3-0.6c-1-19.1-2.5-28.7-4.7-28.7h-2l-2,1.3l1.3,22.6c-0.5,6.6-0.7,13.5-0.7,20.7
	C195.6,238.1,196.7,239.7,198.9,240.3z M238.6,196v-0.6c0-0.8-1.3-1.6-3.9-2.3l-9,2.3c-1.9,0-2.8,12-2.8,36c0,5.3,3.2,8.3,9.6,9
	c0.7,0,2.7-0.4,6.2-1.1v-1.7c0-0.8-1.3-1.6-3.9-2.3c0,0.4-0.2,0.6-0.6,0.6h-3.4c-1.1-0.6-1.7-1.1-1.7-1.7v-9.6h2.8l3.9-1.1v-1.1
	l-0.6-1.1c-3.8-0.4-5.6-0.9-5.6-1.7v-20.3C235.6,197.6,238.6,196.5,238.6,196z M243.7,239.9c-2.3-1.5-3.4-3.1-3.4-5
	c0.8-9,1.1-20,1.1-33v-3.4c0-2.6,1.3-3.9,3.9-3.9h2.2c6.3,0,9.5,4.1,9.5,12.3v6.7c0,5.5-0.9,10.6-2.8,15.1v1.1
	c0,1.3,1.5,3.9,4.5,7.8v1.1c0,0.3-0.6,0.9-1.7,1.7c-1.1,0-3.6-2.8-7.3-8.4c-3,0-4.5,2.6-4.5,7.8H243.7z M246.3,226.5h1.7
	c1.9-2.1,2.8-11,2.8-26.8c-0.9-0.8-1.5-1.1-1.7-1.1h-1.7c-0.8,0.1-1.1,0.5-1.1,1.1V226.5z M277.9,196v-0.6c0-0.8-1.3-1.6-3.9-2.3
	l-9,2.3c-1.9,0-2.8,12-2.8,36c0,5.3,3.2,8.3,9.6,9c0.7,0,2.7-0.4,6.2-1.1v-1.7c0-0.8-1.3-1.6-3.9-2.3c0,0.4-0.2,0.6-0.6,0.6H270
	c-1.1-0.6-1.7-1.1-1.7-1.7v-9.6h2.8l3.9-1.1v-1.1l-0.6-1.1c-3.8-0.4-5.6-0.9-5.6-1.7v-8.5c0.2-0.3,0.4-0.6,0.1-0.8c0,0,0,0-0.1,0
	v-10.9C274.9,197.6,277.9,196.5,277.9,196z M164.8,405.3v-47.8c-2.4-2.7-3.6-4.1-3.6-4.4v-0.7c0-2,3.9-3.4,11.6-4.4
	c7.5,0,12.4,4.6,14.5,13.8c1,6.9,1.4,10.8,1.4,11.6c0,20.1-3.1,31.7-9.4,34.8c-2.4,1.3-5.8,2.3-10.1,2.9c-6.7-1.1-10.1-2.6-10.1-4.4
	c0.1-1,0.6-1.4,1.4-1.4H164.8z M172.1,404.6h1.4c4.8,0,7.3-9.4,7.3-28.2c-0.5-15-2-22.5-4.4-22.5h-2.2c-1.1,0-1.8,1.2-2.2,3.7
	c0,6.3,0.2,12.1,0.7,17.4c-0.5,8.2-0.7,17.4-0.7,27.6V404.6z M205.2,411.3c1.9-1.4,2.9-2.9,2.9-4.3c0-32.7-1.7-49.1-5-49.1h-2.2
	c-0.7,0-1.4,1-2.1,2.9h0.7c0,7.2,0.3,15.6,0.7,25.2C200.2,402.9,201.9,411.3,205.2,411.3z M238.1,357v-0.7c0-1-1.6-1.9-4.8-2.7
	l-11,2.7c-2.3,0-3.4,14.6-3.4,43.8c0,6.4,3.9,10.1,11.7,11c0.8,0,3.3-0.4,7.5-1.3v-2.1c0-1-1.6-1.9-4.8-2.7c0,0.5-0.2,0.7-0.7,0.7
	h-4.1c-1.3-0.7-2-1.4-2-2v-11.7h3.4l4.8-1.3v-1.4l-0.7-1.3c-4.6-0.5-6.8-1.1-6.8-2v-24.7C234.4,358.9,238.1,357.6,238.1,357z
	 M247.7,406v-42c-2.1-2.3-3.2-3.6-3.2-3.8v-0.6c0-1.7,3.4-3,10.2-3.8c6.6,0,10.8,4,12.7,12.1c0.8,6,1.3,9.4,1.3,10.1
	c0,17.6-2.7,27.8-8.3,30.6c-2.1,1.1-5.1,1.9-8.9,2.5c-6-1-8.9-2.3-8.9-3.8c0.1-0.8,0.6-1.3,1.3-1.3H247.7z M254,405.4h1.3
	c4.2,0,6.4-8.3,6.4-24.8c-0.4-13.1-1.7-19.7-3.8-19.7h-1.9c-1,0-1.6,1-1.9,3.2c0,5.6,0.2,10.7,0.7,15.3c-0.4,7.2-0.7,15.2-0.7,24.2
	V405.4z M369.4,150.5c-0.5-2.2-1.5-4.3-2.6-6.2c-1.4-2.4-3.2-2.8-5.7-1.5c-1.1,0.6-2.3,1.3-3.2,2.2c-4.5,3.9-6.7,8.9-7.7,14.7
	c-0.8,4.6,0,8.7,2.9,12.4c0.3,0.4,0.5,0.8,0.7,1.2c0.6,1.1,0.8,2.3,0.4,3.6c-3.3,11-6.6,21.9-10.1,32.9c-1.5,4.9-3.3,9.7-5.1,14.8
	c-0.1,0.6-0.3,1.4-0.3,2.3c-0.1,1.9,1,3.3,2.8,3.7c1.8,0.5,3.5-0.2,4.2-1.9c0.6-1.2,1-2.6,1.2-3.9c0.9-4.8,1.5-9.6,2.5-14.4
	c2.2-11,4.6-21.9,6.9-32.8c0.3-1.3,1-2.2,2.1-2.9c0.9-0.5,1.8-1,2.7-1.5c2.3-1.2,4.1-2.9,5.3-5.1
	C369.7,162.4,370.8,156.6,369.4,150.5z M121.9,240c0.3-1.5,0.1-2.9-0.7-4.1c-10-16-18.2-32.7-24.6-49.8c-1.4-3.6,1.4-7.7,8.5-12.6
	c4.2-2.9,5.7-5.2,4.7-7.2c-3.5-7.2-7.1-14.4-10.8-21.6c-0.5-1-1.5-1.9-2.3-2.9c-0.5,0.2-1,0.3-1.5,0.5c2,7.1,4,14.1,6,21.2
	c0.2,0.7,0.8,1.4-2.6,2.3c-3,0.8-3.1,0.1-3.3-0.6c-1.4-3.7-2.7-7.3-4.2-11c-1.3-3.1-2.8-6.2-4.1-9.3c-0.4,2.3-0.2,4.4,0.1,6.5
	c0.9,5.3,1.8,10.7,2.7,16c0.1,0.8,0,1.5-3.2,2.3c-2.9,0.7-2.8,0-3-0.6c-1.9-4.9-3.8-9.8-5.8-14.7c-0.8-2-1.8-3.9-2.8-5.9
	c-0.8,0.6-0.9,1-0.8,1.3c0.5,3.4,1,6.8,1.6,10.2c0.6,3.4,1.3,6.8,2,10.2c0.2,1-1.6,2.2-3.8,2.3c-1.1,0.1-1.9-0.4-2.1-0.8
	c-2-5.7-3.9-11.4-5.8-17.1c-0.4-1.2-0.7-2.4-1-3.6c-0.7,0.2-1.3,0.4-2,0.6c1.1,9.3,2.1,18.5,3.3,27.8c0.2,1.7,2.6,2.5,6.5,2.7
	c9,0.5,14.1,2.4,14.9,6.5c3.2,17.7,5.3,35.6,5.2,54.2c0,1.7,0.6,3.4,1.8,4.8c1.7,1.9,7.3,1.6,14.4-0.4
	C116.5,245.3,121.5,242.5,121.9,240z M329.1,110.1l10.6,7.7l-4,12.5l10.6-7.7l10.6,7.7l-4-12.5l10.6-7.7h-13.1l-4-12.5l-4,12.5
	H329.1z M81.5,95.6l-4-12.5l-4,12.5H60.3l10.6,7.7l-4,12.5l10.6-7.7l10.6,7.7l-4-12.5l10.6-7.7H81.5z M173.5,251.3
	c0.1,0.1,0.2,0.1,0.4,0.1c1,0.2,1.2-1.6,1.4-2.3c0.4-1.4,0.6-2.9,1.5-4c0.8-1.1,1.9-1.9,2.7-3c0.5-0.7,0.6-1.6,1-2.3
	c0.4-0.8,0.4-2,0.7-3c0.3-1,0.6-2,0.7-3c0.2-1.5,0.2-2.9-1-4c-0.9-0.9-2.3-1.3-3.5-1.6c-1.1-0.3-1.7-0.4-2.6,0.2
	c-1.2,0.7-2.4,1.6-3.3,2.6c-0.7,0.8-0.9,2.1-1.2,3.2c-0.3-0.5-0.8-0.9-1.1-1.4c-0.2-0.4-0.3-0.7-0.7-1c-0.8-0.6-1.8-0.8-2.7-1
	c-1.2-0.3-2.9-0.5-4.1-0.1c-1.4,0.4-2.4,1.4-2.7,2.9c-0.4,1.6,0.2,3.2,1,4.5c0.7,1.2,1.3,2.4,2.3,3.5c1.2,1.3,2.8,2.3,4.3,3.1
	c2.1,1.2,3.8,3.1,5.4,4.9C172.5,250.2,172.8,251,173.5,251.3z M135,233.4c-0.2-1.1-0.8-1.9-1.8-2.3c-1-0.4-2.1-0.6-2.8,0.4
	c-0.5,0.7-0.6,2-0.6,2.9c0,1.4-0.1,2.8,0.1,4.1c0.2,2.3,0.3,4.7,0.9,7c0.2,0.7,0.3,1.6,1.1,1.7c0.2,0,0.4,0,0.5,0.1
	c1,0,2-0.2,2.9-0.4c1.7-0.4,3.1-1.2,4.6-1.9c1.3-0.6,2.3-1.3,3.2-2.3c0.7-0.8,1.3-1.7,1.7-2.6c0.4-1,0.7-2.8,0.2-3.7
	c-0.5-0.9-1.8-1.2-2.8-1.2c-1.1,0-2.1,0.3-3.2,0.2c-1,0-1.8,0.5-2.7,1c-0.6,0.4-1.4,0.2-1.4-0.6C134.9,234.8,135.1,234.1,135,233.4z
	 M147.5,226.8c1.4,1.3,2.4-0.3,3.1-1.5c0.3-0.5,0.6-1,0.9-1.6c0.6-1.2,1.2-2.5,2.1-3.4c0.5-0.5,0.8-0.9,0.6-1.7
	c-0.2-0.6-1.2-1.4-1.8-1.5c-1.2-0.1-2.1,2.1-3.2,2.2c-0.3,0-0.5,0-0.8-0.2c-0.4-0.3-0.7-0.8-1.1-1.2c-1-0.8-3.1-1.6-3.9-0.2
	c-1.1,2,0.3,4.1,1.5,5.7C145.7,224.5,146.5,225.8,147.5,226.8z M297,339.2c-5.6-2.8-22.2-2.3-26-2.3c-13.5,0-13.5,0.8-26.9,0.8
	c-31.4,0-62.9,0-94.4,0c-2.7,0-6.1-0.4-8.7-0.1c-3.5,0.5-10.7,3.5-6.5,6.4c6.1,4.1,19.3,3.3,27.1,3.5c9.7,0.3,19-1.8,28.7-1.8
	c4.6,0,9.2,0,13.7,0c17.5,0.1,35.1,0.3,52.6,0.9c10.7,0.4,37.3,4.3,42-4.3C299.3,341.1,298.6,340,297,339.2z M271.7,414.3
	c-13.5,0-13.5,1.7-26.9,1.7c-32.8,0-65.7-0.6-98.4-1.6c-5.4-0.2-14.1,0.3-12.9,5.7c0.3,1.4,1.8,2.2,3.8,2.8c3.8,1.1,9.5,0.9,12.6,1
	c32.3,0.7,64.8-0.3,97.4-0.3c11.3,0,22.7,0.4,34,0c5.2-0.2,16.3,0.3,17.2-4.5C299.8,412.5,277.8,414.3,271.7,414.3z M378.6,379.1
	c-14.4,2.2-38.9-24.3-49.3-7.5c-1-15.2-4.9-42.4-19.7-32.2c-8.6,5.9-15.4,19.7-5.6,28c8.6,7.3,16.3-12.5,7.3-12.4
	c-0.8,0-1.3,1-0.7,1.7c3.3,3.4-1.3,11.9-5,7.7c-1.6-1.8-2.6-4.3-2.8-6.7c-0.2-5.4,2-9.7,6.1-13.2c5.2-4.5,9.7-3.6,12.2,2.9
	c3.9,10.1,4.4,21.6,4.4,32.3c0,0.3,0.1,0.6,0.2,0.9l-0.1,1.6c0,10.5-0.6,23-5.5,32.4c-1.5,2.8-3.3,4.2-5.4,4.2c-2,0-4.3-1.3-6.6-3.7
	c-3.1-3.2-6.4-8.1-4.5-14c1.4-4.4,2.8-5.3,4-5.3c0,0,0,0,0,0c1.5,0.2,2.7,1.3,3.3,3c0.7,1.9,0.4,3.9-0.8,5.1c-0.4,0.4-0.5,1-0.3,1.5
	c0.2,0.5,0.7,0.9,1.4,0.9c2.7,0,4.4-1.7,4.4-4.6c0-4.5-3.8-10.3-8.1-10.3c-1.7,0-3.3,0.8-4.8,2.5c-3.4,3.8-4.7,8.8-3.6,14.1
	c1.2,6.2,5.4,11.7,11,14.4c1.8,0.9,3.6,1.3,5.2,1.3c10,0,13.4-16.8,14.3-33.7c10.7,15.3,34.6-10.4,48.8-8.2c0.9,0.1,1.4-0.9,0.9-1.4
	C380,379.9,379.5,378.9,378.6,379.1z M124.2,391.5c-4.3,0-8.1,5.7-8.1,10.3c0,2.9,1.6,4.6,4.4,4.6c0.7,0,1.2-0.3,1.4-0.9
	c0.2-0.5,0.1-1.1-0.3-1.5c-1.1-1.2-1.4-3.2-0.8-5.1c0.6-1.7,1.9-2.8,3.3-3c0,0,0,0,0,0c1.2,0,2.7,0.9,4,5.3c1.8,5.9-1.4,10.8-4.5,14
	c-2.4,2.4-4.6,3.7-6.6,3.7c-2.1,0-3.9-1.4-5.4-4.2c-4.9-9.5-5.4-22.1-5.4-32.5l-0.2-1.5c0.1-0.2,0.2-0.5,0.2-0.9
	c0-10.8,0.5-22.2,4.4-32.3c2.5-6.6,7-7.4,12.2-2.9c4.1,3.5,6.3,7.7,6.1,13.2c-0.1,2.4-1.2,4.9-2.8,6.7c-3.7,4.2-8.3-4.3-5-7.7
	c0.6-0.6,0.2-1.6-0.7-1.7c-9.1-0.2-1.3,19.6,7.3,12.4c9.8-8.3,3-22.1-5.6-28c-14.8-10.2-18.7,17-19.7,32.2
	c-10.4-16.8-34.9,9.7-49.3,7.5c-0.9-0.1-1.4,0.9-0.9,1.4c-0.5,0.5,0,1.6,0.9,1.4c14.2-2.2,38.1,23.5,48.8,8.2
	c0.8,17,4.2,33.7,14.3,33.7c1.6,0,3.3-0.5,5.2-1.3c5.6-2.7,9.8-8.2,11-14.4c1.1-5.3-0.2-10.3-3.6-14.1
	C127.5,392.3,125.9,391.5,124.2,391.5z M79.7,255.4h10.2l5.7-1.1v-2.3c0-2.3-5.3-4.1-15.8-5.7c-9.8,0-14.7,1.9-14.7,5.7
	c0.7,0,1.1,0.4,1.1,1.1c0,14.8-0.7,37.4-2.3,67.8c0,5.4,2.3,9.6,6.8,12.4h2.3c1.5,0,2.7-2.3,3.4-6.8c0-0.5-0.4-5.4-1.1-14.7
	c9.8-1.3,14.7-3.1,14.7-5.6c0-1.7-4.1-3.2-12.4-4.6v-44C77.4,256.4,78.1,255.7,79.7,255.4z M120.1,257.7v-1c0-1.4-2.3-2.7-6.7-3.8
	L98,256.7c-3.2,0-4.8,20.4-4.8,61.3c0,9,5.4,14.1,16.3,15.3c1.2,0,4.6-0.6,10.5-1.9v-2.9c0-1.4-2.3-2.7-6.7-3.8c0,0.7-0.3,1-1,1
	h-5.8c-1.9-1-2.9-1.9-2.9-2.9v-16.3h4.8l6.7-1.9v-1.9l-1-1.9c-6.4-0.7-9.6-1.6-9.6-2.9v-34.5C115,260.5,120.1,258.5,120.1,257.7z
	 M136.7,333.4h0.9c2.1-0.5,6.1-8.2,12-23h0.9c4.1,14.1,8.3,21.2,12.9,21.2c3.5,0,5.9-5.2,7.4-15.7c0-6.8,0.3-23.4,0.9-49.7
	c0-4.9-1.8-7.4-5.5-7.4c-1.9,1.5-2.8,3.3-2.8,5.5v13.8c0,9.4-0.3,22.3-0.9,38.7h-1.8c0-3.1-0.6-4.6-1.9-4.6
	c-1.8-13.5-5.1-20.3-10.1-20.3h-0.9l-1.8,0.9c-5.5,16.6-8.6,24.9-9.3,24.9h-0.9c-1-22.1-1.9-33.2-2.7-33.2c0-17.2-2.8-25.8-8.3-25.8
	c-1.8,2.4-2.7,3.9-2.7,4.6c1.4,16.6,2.3,24.8,2.7,24.8C124.8,318.3,128.8,333.4,136.7,333.4z M210.2,333.1c4.6,0,6.8-7.9,6.8-23.8
	c0-1.3,1.9-2.1,5.7-2.3h7.9c0.6,16.6,2.9,24.9,6.8,24.9h1.2c1.5,0,3-2.3,4.5-6.8c-1.5-5.1-2.3-13-2.3-23.8c0-37.1-3-55.6-9.1-55.6
	l-4.5,2.3c1.5,9.1,2.3,20.4,2.3,34v13.6c-1.2,2.3-2.3,3.3-3.4,3.3h-5.7l-2.3-1.1c-1.6-32.5-4.3-48.7-8-48.7h-3.4l-3.3,2.3l2.3,38.5
	c-0.8,11.3-1.2,23-1.2,35.2C204.5,329.4,206.4,332,210.2,333.1z M277.9,318.8v-5.8h-1c-11,0-16.6,2.6-16.6,7.8
	c-0.8,7.1-2.4,10.7-4.9,10.7c-3.2-0.9-4.9-3.2-4.9-6.8c0-44.2,3.2-66.3,9.7-66.3c0-1.8,3.2-3.1,9.7-3.9c11.7,0,17.5,12.7,17.5,38
	c0,4.8,0.3,8.4,1,10.8c-0.7,20.1-2.6,30.2-5.8,30.2h-1C279.2,333.4,277.9,328.5,277.9,318.8z M277.9,302.2c0-6.3-0.3-18-1-35.1
	c-1.3-3-2.6-4.6-3.9-4.9h-3.9c-4.6,0-6.8,15-6.8,44.9c0.7,0,1,0.3,1,1C273,306.5,277.9,304.6,277.9,302.2z M326.1,258.2
	c-5.1,33.7-9.2,55.5-12.4,65.7h-1.9l-5.7-41.9c-1.4-17.1-4.6-25.7-9.5-25.7l-2.9,1.9c3.2,21.6,5.1,32.4,5.7,32.4
	c1.6,28.5,6.1,42.8,13.3,42.8l4.7-1.9c4.6-7.5,10-30.9,16.1-70.4c0-2.1-1.6-3.7-4.7-4.7L326.1,258.2z M366,257.7v-1
	c0-1.4-2.3-2.7-6.7-3.8l-15.3,3.8c-3.2,0-4.8,20.4-4.8,61.3c0,9,5.4,14.1,16.3,15.3c1.2,0,4.6-0.6,10.5-1.9v-2.9
	c0-1.4-2.3-2.7-6.7-3.8c0,0.7-0.3,1-1,1h-5.8c-1.9-1-2.9-1.9-2.9-2.9v-16.3h4.8l6.7-1.9v-1.9l-1-1.9c-6.4-0.7-9.6-1.6-9.6-2.9v-34.5
	C360.9,260.5,366,258.5,366,257.7z M330,249.8c-4.6-3.8-1.7-8.8,0.1-9.6c1.7-0.8,5.1-0.2,6,1.6c0.9,1.9-1.3,3-2.9,2.8
	c-1.4-0.2-2.4-0.6-3.4,0.9c-0.8,1.1,0.3,3,1.4,3.6c2.5,1.3,5.5,1.5,7.9-0.1c3-2.1,4.5-5.7,2.8-9.3c-1.1-2.4-4-4.7-5.8-5.7
	c-6.6-3.6-13.5-3.7-18-3.8c0,1.1-0.3,2.1-0.5,3.2c-0.4,2.6-2,4.2-3.6,6.1c-1.4,1.6-3.1,3.1-5.3,3.2c-3.5,0.1-5.9-1.1-8.9-2.9
	c-4.1-2.5-8.2-5.9-10.5-10.1c-1.6-3-5.1-7.2-5.4-9c-0.3-1.5,1.5-1,2.1,0c0.4,0.8,0.2,2.3,5.2,7.9c4,4.5,6.7,6,9.7,7.4
	c3.6,1.7,7,2.2,10.6,0.9c0.3-0.1,0.6-0.2,0.8-0.3c2.1-1.2,4.4-3.6,4.5-6.4c-7.1-0.1-9.9,0.1-14.1-1.4c0,1.8,0.8,3.7,2.5,4.3
	c1,0.3,2.3,0,3.1,0.7c1,0.8-0.9,1.3-1.5,1.3c-2.8-0.2-5-3.5-5-6.6c-3.3-1.3-5.9-2.8-8-5.8c-1.2-1.7-1.8-3.6-1.9-5.5
	c0-0.2,0.2-1.8,0.1-1.9c-0.5-0.4-4.6-4.3-3-4.6c0.6-0.1,1.3,0.7,1.6,1.1c0.6,0.7,1.1,1.3,1.8,1.9c0.4-1.4,1.2-2.8,2.1-4
	c0.2-0.3,0.3-0.5,0.5-0.8c2.7-3.4,7-6.1,11.3-4c3.1,1.6,7.4,5,6.1,8.9c-0.8,2.4-2.6,4.8-5.1,5.5c-2.5,0.8-4.5,0.7-7,0
	c-2.6-0.8-4.8-1.4-7-3.1c0.1,0.1,0,1.5,0.1,1.8c0.3,2.1,0.7,3.1,1.9,4.4c1.8,2.1,4.4,3.6,6.9,4.6c0.2-0.8,0.6-1.5,1.2-2.2
	c1.5-1.8,3.5-2.2,4.2-2.4c3.6-1,6.3-0.1,8.5,2.4c1,1,1.7,2.5,2,4.2c6-0.3,5.2,0.1,8,0.4c1.2,0.1,2.3,0.2,3.5,0.5
	c0.6,0.1,1.3,0.4,1.9,0.5c1.2,0.3,2.3,0.7,3.4,0.9c1.6,0.3,3.2,0.8,4.5,1.7c2,1.4,4.3,3.1,5.6,5.2c1.2,2.1,1.6,4.4,0.6,6.7
	c-0.9,2-1.9,3.5-3.7,4.8C338.2,252.4,333.5,252.7,330,249.8z M293.7,214.8c3.1,2.4,6.9,3.9,10.5,2.5c1.5-0.5,3.1-1.4,3.7-2.9
	c1.7-3.6-4.2-12.4-11.5-4.4c-0.3,0.3-0.3,0.3-0.5,0.6c-0.3,0.3-0.2,0.4-0.5,0.7C293.8,213.5,293.8,214.2,293.7,214.8z M316.9,229.2
	c-0.1-0.9-0.3-1.8-0.7-2.5c-1.3-2.2-5.9-4.7-9.9-3c-0.9,0.4-1.6,1.2-2.2,1.8c-0.6,0.6-0.9,1.2-1.1,1.9c1.8,0.7,3.5,1.1,5.5,1.3
	C313.1,229.4,314.9,229.3,316.9,229.2z"/>
</svg>
