<?xml version="1.0" encoding="utf-8"?>
<!-- Generator: Adobe Illustrator 18.0.0, SVG Export Plug-In . SVG Version: 6.00 Build 0)  -->
<!DOCTYPE svg PUBLIC "-//W3C//DTD SVG 1.1//EN" "http://www.w3.org/Graphics/SVG/1.1/DTD/svg11.dtd">
<svg version="1.1" id="Layer_1" xmlns="http://www.w3.org/2000/svg" xmlns:xlink="http://www.w3.org/1999/xlink" x="0px" y="0px"
	 viewBox="0 0 432 432" enable-background="new 0 0 432 432" xml:space="preserve">
<path fill="#333333" d="M100.8,413.2c-0.2-0.3-0.3-0.7-0.4-1.2c-0.2-0.5-0.3-1.1-0.4-1.9c-0.2-0.6-0.3-1.2-0.3-1.8
	c-0.1-0.6-0.2-1.1-0.3-1.6c-0.3-1.5-0.6-3.6-0.8-6.3c-0.2-2.7-0.3-5.5-0.3-8.4c-0.1-3.3-0.1-6.7,0-10.2c0-3.4,0-6.6-0.1-9.6
	c-0.1-3-0.3-5.5-0.6-7.6c-0.3-2.5-0.5-4.8-0.7-6.9c-0.4-3-1-5.5-1.6-7.6c-0.6-2.1-1.2-3.9-1.8-5.3c-0.6-1.6-1.3-3-2.2-4.2
	c-1.3-1.6-2.8-3-4.5-4c-1.6-1-3.2-1.9-4.7-2.5c-1.6-0.6-3.3-1-5.1-1.3c3.3-3.4,6.1-6.9,8.6-10.4c2.4-3.5,4.5-6.6,6.1-9.2
	c1.9-3.1,3.6-6.1,4.9-8.9c1-2.1,1.9-4,2.6-5.9c0.7-1.9,1.1-3.5,1.4-4.8c0.4-1.6,0.7-3,0.9-4.2c0.3-1.6,0.4-2.9,0.2-3.9
	c-0.1-1-0.4-1.8-0.7-2.6c-0.3-0.7-0.6-1.3-0.9-1.8c-0.6-0.6-1.3-0.9-2-0.9c-0.6,0-1.1,0.4-1.6,1.1c-0.3,0.4-0.6,1.3-0.9,2.5
	c-0.1,0.6-0.3,1.1-0.4,1.6c-1,2.8-2.2,5.8-3.6,8.9c-1.2,2.7-2.6,5.8-4.3,9.2c-1.7,3.5-3.6,6.9-5.7,10.4c-1,1.8-2.2,3.6-3.6,5.3
	c-1.2,1.6-2.5,3.3-3.8,5.1c-1.3,1.8-2.6,3.4-3.8,4.9c-0.1-8.5-0.3-16.1-0.6-22.8c-0.2-6.8-0.6-11.8-1-15c-0.6-4-1.3-6.8-2.2-8.5
	c-0.9-1.6-1.7-2.6-2.5-2.9c-1-0.4-2.1-0.2-3.1,0.7c-0.7,0.4-1.3,2.1-1.8,4.9c-0.4,2.8-0.9,6.4-1.3,10.7c-0.4,4.3-0.8,9.2-1.1,14.6
	c-0.3,5.4-0.5,11.1-0.7,17c-3.1-0.3-5.3-0.2-6.7,0.2c-0.9,0.3-1.7,0.6-2.5,0.9c-1,0.4-2,1-2.9,1.8c-0.7,0.7-1.5,1.6-2.2,2.6
	c-0.7,1-1.2,2-1.3,3.2c-0.2,1-0.1,2.1,0.2,3.1c0.3,0.9,0.8,1.9,1.4,2.9c0.7,1,1.7,1.9,3,2.7c0.9,0.6,1.9,1,2.9,1.3
	c1.9,0.7,4.5,0.9,7.6,0.4c-0.3,8.9-0.5,17.1-0.6,24.5c-0.1,7.4-0.2,12.9-0.3,16.5c-0.3,9.7,0,16.7,0.8,21c0.8,4.4,3.1,6.6,6.8,6.6
	c1.2,0,2.2-0.8,3-2.3c0.8-1.6,1.4-3.4,1.9-5.5c0.6-2.4,1-5,1.1-8c0.3-3.4,0.6-7.5,0.9-12.1c0.3-4.7,0.5-9.8,0.7-15.3
	c0.1-5.5,0.3-11.2,0.3-17c0.1-5.9,0.1-11.7,0.1-17.5c0.1-0.1,0.3-0.2,0.3-0.2c0.1,0,0.2-0.1,0.3-0.2c1.9,0.3,3.8,0.7,5.6,1.3
	c1.6,0.6,3.2,1.4,4.7,2.5c1.5,1,2.8,2.5,4,4.2c0.4,0.9,1,2.2,1.6,3.8c0.7,2.4,1.5,7.1,2.2,14.3c0.1,1.3,0.3,2.8,0.4,4.2
	c0.1,1.2,0.2,2.6,0.2,4.1c0,1.6,0.1,3.2,0.2,4.8v3.1c0.1,1,0.2,2,0.2,2.9c0,0.9,0,1.9,0,2.9c-0.2,2.1-0.2,4.1,0,6
	c0,1.6,0.1,3.5,0.3,5.6c0.2,2.1,0.5,4,0.8,5.8c0.3,1.8,0.6,3.2,0.9,4.2c0.6,2.5,1.5,4.6,2.7,6.2c1,1.5,2.2,2.4,3.6,2.7
	c0.6,0.1,1.2,0.1,1.8-0.2c0.3-0.1,0.4-0.3,0.4-0.4c0.1-0.1,0.2-0.4,0.2-0.9c0-0.3,0-0.5-0.1-0.7
	C100.9,413.7,100.8,413.5,100.8,413.2z M56.1,339.3c-0.3,0.1-0.6,0.2-0.9,0.1c-0.3-0.1-0.6-0.1-0.9-0.1h-0.9c-2.1,0-3.4-0.2-4-0.7
	c-0.4-0.1-0.7-0.4-0.7-0.7v-0.4l0.2-0.2c0.3-0.3,0.7-0.6,1.3-0.9c0.3-0.1,0.9-0.4,1.8-0.7c0.3,0,0.7-0.1,1.1-0.2
	c0.3,0,0.7,0,1.2-0.1c0.5-0.1,1.1-0.1,1.7-0.1V339.3z M113.1,328.8c-0.6-1.6-1-3.3-1.1-5c-0.2-1.7,0-3.2,0.3-4.6
	c0.4-1.3,1.2-2.4,2.6-3.1c1.3-0.7,2.5-0.4,3.5,0.9c1,1.3,1.6,3.1,2,5.3c0.4,2.2,0.5,4.5,0.4,6.9c-0.1,2.4-0.4,4.2-1,5.6
	c-0.4,1.3-1.2,1.9-2.2,1.6c-0.1,0-0.4-0.1-0.7-0.2c-0.3-0.1-0.8-0.8-1.6-2c-0.2-0.1-0.4-0.5-0.7-1.1
	C114.2,331.8,113.7,330.4,113.1,328.8z M389.1,375.8c-0.4,0-0.9,0.4-1.4,1.2c-0.5,0.8-0.9,1.7-1.2,2.8c-0.4,1.2-0.8,2.6-1.1,4.2
	c-2.4,7-4.6,12-6.6,14.9c-2,3-3.8,4.7-5.2,5.1c-1.5,0.4-2.7,0.1-3.6-1.1c-0.9-1.2-1.3-2.4-1.3-3.6c-0.1-0.9-0.2-2.7-0.2-5.6
	c0-2.8,0.1-6.2,0.2-10c0-1.2,0-2.6,0-4.2c0-1.6,0.1-3.3,0.2-5.1c0.3-8.5-0.4-14.8-2.1-19c-1.7-4.2-3.7-7.2-5.9-9
	c-2.7-1.9-5.8-2.8-9.2-2.7c-3.1,0.1-5.8,2.2-8.1,6.2c-2.2,4-4.2,8.8-5.8,14.5v-19.2c0.3-5.5-0.2-9.3-1.4-11.5
	c-1.3-2.2-3.4-3.2-6.3-3.2c-1.2,0-2.1,0.4-2.8,1.3s-1.2,1.9-1.7,2.9c-0.6,1.2-1,2.5-1.1,4c-0.6,3.6-1,8.9-1.2,15.9
	c-0.2,7.1-0.3,14.3-0.2,21.8c0,2.3,0.1,4.4,0.1,6.6c-0.1,0.3-0.2,0.6-0.2,0.9c-0.3,1-0.6,2-0.9,2.9c-0.3,0.7-0.6,1.5-0.8,2.3
	c-0.2,0.8-0.5,1.6-0.8,2.3c-0.7,1.9-1.7,3.9-2.9,6c-1.2,2.1-2.5,4-4,5.8c-1.5,1.8-3.2,3.2-5.1,4.2c-1.9,1-4.1,1.5-6.5,1.3
	c-2.2-0.3-3.9-1.8-5-4.6c-1.1-2.7-1.9-5.9-2.3-9.5c1.9-0.6,3.7-2.2,5.5-4.8c1.7-2.6,3.1-5.6,4.2-9.1c1.1-3.5,2-7.2,2.6-11.2
	c0.6-4,0.7-7.8,0.3-11.5c-0.4-3.6-1.2-6.9-2.5-9.7c-1.3-2.8-3.2-4.8-5.7-5.8c-4-1.6-7.4-1.2-10,1.2c-2.7,2.5-4.8,5.5-6.2,9
	c-1.8,4.2-3.1,9.2-4,15.1c-0.5,5-0.6,9.6-0.5,14c-0.1,0.6-0.3,1.2-0.4,1.8c-2.2,8.5-4.3,15-6.2,19.5c-1.9,4.5-3.7,7.8-5.2,9.7
	c-1.6,1.9-2.8,2.8-3.8,2.6c-1-0.2-1.5-0.9-1.7-2.1c-0.1-0.6-0.2-1.9-0.2-3.9c0-2,0-4.4,0-7.2c0-2.8,0-5.9,0.1-9.1
	c0.1-3.3,0.1-6.5,0.1-9.8c0-1.2,0-2.3,0.1-3.5c0.1-1.1,0.1-2.2,0.1-3.2c0-6.2-0.3-11.4-1-15.6c-0.7-4.2-1.6-7.5-2.8-9.9
	c-1.2-2.5-2.7-4.2-4.5-5.2c-1.8-1-3.7-1.6-5.7-1.8c-0.7-0.1-1.4-0.2-2.1-0.1c-0.7,0.1-1.4,0.1-2.1,0.1c-1.3,0.1-2.7,0.9-4,2.3
	c-1.3,1.4-2.6,3.2-3.7,5.5c-1.1,2.2-2.2,4.7-3.1,7.5c-1,2.8-1.9,5.6-2.8,8.6c0.3-6.2,0.5-12.6,0.6-19.2c0.1-6.5,0.1-12.8,0.2-18.7
	c0.1-5.9,0.1-11.2,0.1-15.8c0-4.6,0-8.1,0-10.5c0.3-8.5-0.3-14.6-1.7-18.4c-1.4-3.8-3.6-5.7-6.6-5.7c-1.2,0-2.1,0.7-2.8,2.2
	c-0.7,1.5-1.2,3.1-1.4,4.9c-0.4,2.1-0.7,4.4-0.9,6.9c-0.4,3.6-0.8,8.2-1,13.6c-4.7,0.3-9.5,0.5-14.3,0.3c-7.2-0.2-14.4-0.4-21.5-0.6
	c-4.5,0-8.9,0-13.4,0c-4.5,0-8.9,0.1-13.4,0.2c0.1-7.7-0.4-12.8-1.8-15.3c-1.3-2.5-3.4-3.5-6.4-3.2c-1.2,0.2-2.1,0.8-2.7,1.9
	c-0.7,1.1-1.1,2.3-1.4,3.5c-0.4,1.6-0.7,3.3-0.9,5.1c-0.3,2.7-0.5,5.4-0.7,8.2h-21.6c-2.2-0.1-4.2-0.6-6-1.2
	c-1.8-0.7-3.4-1.2-4.8-1.7c-1.4-0.4-2.6-0.6-3.7-0.6c-1,0.1-1.9,0.8-2.5,2.1c-0.9,1.8-0.9,3-0.1,3.7c0.8,0.7,1.7,1.2,2.8,1.4
	c0.3,0.1,0.7,0.2,1.3,0.2h2.7c5.3,0,10.7,0,15.9,0c5.3,0,10.5-0.1,15.7-0.2c-0.3,4.9-0.4,10.3-0.4,16.1c0,5.9,0,12.3,0,19.3
	l-0.2,22.5c-0.1,5.7-0.2,10.9-0.1,15.5c-2.2,6.4-4.3,11.1-6.2,13.9c-2,3-3.8,4.7-5.2,5.1c-1.5,0.4-2.7,0.1-3.6-1.1
	c-0.9-1.2-1.3-2.4-1.3-3.6c-0.2-0.9-0.2-2.8-0.2-5.7c0-2.9,0.1-6.3,0.2-10.2c0.1-3.9,0.3-8.1,0.3-12.5c0.1-4.4,0.2-8.6,0.3-12.6
	c0.1-6.5-0.6-11.2-2.2-13.9c-1.6-2.7-3-4.5-4.2-5.2c-0.3-0.3-0.6-0.4-0.8-0.4c-0.2,0-0.5-0.1-0.8-0.2c-0.3,0-0.6-0.1-0.9-0.2
	c-1.5-0.1-2.6,0.3-3.2,1.4c-0.7,1.1-1.2,2.3-1.4,3.7c-0.4,1.6-0.7,3.4-0.7,5.3c-0.4,11.4-0.6,21-0.6,28.8c0.1,7.8,0.6,14.1,1.6,18.9
	c1,4.8,2.5,8.4,4.5,10.7c2,2.3,4.7,3.5,8.1,3.7c3.6,0.1,6.6-1,9.1-3.3c2.5-2.4,4.7-5.2,6.5-8.5c0.4-0.8,0.8-1.5,1.2-2.3
	c0,0.1,0,0.2,0,0.3c0.5,7,1.3,12.4,2.4,16.4c1.1,3.9,2.6,6.6,4.4,8.1c1.8,1.5,3.9,2.3,6.3,2.5c3.4,0.1,6.4-1.7,9.1-5.5
	c2.7-3.8,5-8.1,6.9-12.9c1.3-3.3,2.4-6.6,3.4-9.7c0.2,0.9,0.3,1.8,0.5,2.6c0.7,2.7,1.6,5.3,2.8,7.6c1.2,2.3,2.7,4.3,4.5,5.9
	c1.8,1.6,3.9,2.7,6.5,3.3c4.6,1,8.8,1,12.5-0.2c5-1.6,9.1-4.8,12.3-9.4c2.7-3.9,4.8-8,6.5-12.1c0.3,2,0.6,3.6,1.1,4.9
	c0.6,1.7,1.1,3,1.7,3.9c0.5,0.9,1,1.4,1.6,1.7c0.5,0.2,0.9,0.3,1.2,0.3c1.2,0.1,2.2,0,3.1-0.6c0.9-0.5,1.6-1.1,2-1.9
	c0.6-0.7,1-1.6,1.1-2.7c0.4-2.2,1-5,1.7-8.2c0.7-3.3,1.5-6.7,2.5-10.2c1-3.6,1.9-7.1,2.9-10.5c1-3.4,1.9-6.5,2.9-9.1
	c1-2.7,1.9-4.8,2.8-6.2c0.9-1.5,1.6-2,2.2-1.6c0.7,0.6,1.3,1.8,1.8,3.7c0.4,1.9,0.8,4,1,6.3c0.2,2.4,0.4,4.8,0.4,7.1
	c0.1,2.4,0.1,4.3,0.1,5.8v14.7c0.1,6.7,0.6,12.1,1.3,16.4c0.7,4.2,1.7,7.6,2.8,10c1.2,2.5,2.5,4.1,4.1,5c1.5,0.9,3.3,1.4,5.2,1.6
	c3.6,0.1,6.7-1.7,9.3-5.5c2.7-3.8,4.9-8.1,6.8-12.9c1.3-3.3,2.3-6.5,3.3-9.6c0.2,0.8,0.3,1.7,0.5,2.5c0.7,2.7,1.6,5.3,2.8,7.6
	c1.2,2.3,2.7,4.3,4.5,5.9c1.8,1.6,3.9,2.7,6.5,3.3c4.5,1,8.6,1,12.5-0.2c5-1.6,9.1-4.8,12.3-9.4c1.9-2.8,3.5-5.7,4.9-8.7
	c0,0.1,0,0.2,0,0.2c0.3,6.4,0.7,10.7,1.1,12.9c0.3,1.6,0.8,2.8,1.6,3.6c0.7,0.7,1.5,1.3,2.2,1.6c0.7,0.3,1.6,0.4,2.5,0.2
	c1.6,0,2.9-1.8,3.8-5.3c0.4-1.3,0.8-2.9,1.1-4.7c0.3-1.8,0.6-3.7,0.9-5.8c0.1-1.5,0.3-2.9,0.4-4.2c0.1-1.3,0.3-2.2,0.4-2.7
	c2.1-11.9,4.1-21.2,6.1-28.1c2-6.8,4-10.4,6.1-10.7c1.3-0.1,2.4,0.7,3.2,2.7c0.8,1.9,1.3,5.5,1.4,10.7v4c0,1.2,0,2.5-0.1,3.9
	c-0.1,1.4,0,2.9,0.1,4.3c0.1,11,1.3,18.9,3.4,23.6c2.1,4.8,5.7,7.3,10.9,7.6c3.6,0.1,6.6-1,9.1-3.3c2.5-2.4,4.7-5.2,6.5-8.5
	c1.8-3.3,3.2-6.4,4.2-9.5c1-3,1.7-5.2,2-6.3C392,378.8,391.6,376.2,389.1,375.8z M213.8,386.9c-0.3,0.7-0.6,1.5-0.8,2.3
	c-0.2,0.8-0.5,1.6-0.8,2.3c-0.9,1.9-1.9,3.9-3,6c-1.1,2.1-2.5,4-4,5.8c-1.6,1.8-3.3,3.2-5.1,4.2c-1.9,1-4,1.5-6.3,1.3
	c-2.5-0.3-4.3-2.1-5.5-5.3c-1.1-3.3-1.9-6.8-2.3-10.7c-0.6-4.6-0.7-9.8-0.4-15.6c0-8,0.5-14.5,1.6-19.5c1-5,2.2-8.7,3.3-11.2
	c1.2-2.5,2.3-4,3.3-4.5c1-0.4,1.6-0.3,1.8,0.4c0.1,1.5-0.3,2.9-1.2,4.1c-1,1.3-1.7,2.5-2.3,3.7c-0.3,0.9,0,1.6,0.9,2.2
	c0.4,0.3,1,0.4,1.6,0.4c1.2,0.2,2.2-0.1,3-0.9c0.8-0.7,1.4-1.6,1.9-2.7c0.6-1.2,1-2.5,1.1-4c0.3-2.2,0.2-3.9-0.3-5
	c-0.5-1.1-1.2-2.1-2.1-3c-0.7-0.6-1.4-1-2.1-1.2c-0.7-0.2-1.4-0.4-2.1-0.6c-0.7-0.1-1.5-0.1-2.2,0c-3.4,0.6-6.5,2.2-9.4,4.7
	c-2.5,2.1-4.9,5.3-7.2,9.6c-2.3,4.3-3.8,10.4-4.6,18.3c-0.4,4.9-0.6,9.4-0.5,13.7c-0.2,0.7-0.4,1.3-0.6,2.1
	c-2.2,8.5-4.3,15-6.2,19.5c-1.9,4.5-3.6,7.8-5.1,9.7c-1.5,1.9-2.7,2.8-3.7,2.6c-1-0.2-1.5-0.9-1.7-2.1c-0.1-0.7-0.3-2.2-0.3-4.5
	c-0.1-2.2-0.1-4.9-0.1-7.9c0-3,0-6.3,0.1-9.9c0.1-3.6,0.1-7.1,0.2-10.5c0.1-3.4,0.1-6.5,0.2-9.4c0.1-2.8,0.1-5.1,0.1-6.9
	c0.4-11.1,0.6-21.5,0.4-31.1c-0.2-9.6-0.2-16.9,0-21.9c4.5-0.1,8.9-0.2,13.4-0.2c4.5,0,8.9,0,13.4,0c4.8,0.2,9.5,0.3,14.3,0.4
	c4.8,0.1,9.5,0.1,14.3,0c0.6,0,1.7,0.1,3.3,0.2c1.2,0.1,2.5,0.2,3.7,0.3c-0.2,4.4-0.3,8.9-0.4,13.7c-0.1,6.4-0.2,13-0.2,19.7
	c0,6.8,0.1,13.1,0.2,19.2c0.1,5.7,0.3,10.8,0.5,15.3c-0.4,1.1-0.7,2.3-1,3.8C214.4,385.1,214.1,386,213.8,386.9z M293.7,388.7
	c-0.2-1.6-0.2-3.1-0.2-4.5c0-1.3,0-2.5,0-3.6c0-1.2,0.1-2.3,0.2-3.3c0.4-6.7,0.9-11.8,1.4-15.3c0.5-3.5,1.1-6,1.7-7.7
	c0.6-1.8,1.2-2.7,1.8-2.7c0.7,0.6,1.3,1.7,1.6,3.3c0.3,1.6,0.5,3.3,0.7,4.9c0.1,1.9,0.2,4.1,0.2,6.5c-0.3,7-1.2,12.1-2.8,15.5
	C296.7,385.3,295.2,387.5,293.7,388.7z M138.7,57.3c-0.7-6.9-1-14.8-1-23.7c0-8.2,0.4-14.2,1.3-18c1.2-5.2,4.1-7.7,8.6-7.7
	c2.2,0,4.3,1.9,6.3,5.6c1.2,2.3,2.4,5.3,3.6,9.2c1.4,4.2,3.3,9.7,5.8,16.6c2.8,7.7,5.2,14.3,7.1,19.7c-0.5-6.3-0.8-13.9-0.8-22.9
	c0-8.5,0.4-15.1,1.2-19.5c1-5.7,2.9-8.6,5.7-8.6c2.9,0,4.5,2.2,4.7,6.5c0.1,1.1,0.1,2,0.1,2.8c0,4.3-0.5,12-1.5,23
	c-1.4,15.9-2.1,28.2-2.1,36.7c0,1.1-0.3,1.6-0.9,1.6c-2,0-4.1-1.9-6.3-5.6c-2.2-3.7-4.7-8.7-7.5-14.9c-5-10.9-9-20.9-12.2-30
	c-0.2,3.5-0.6,7.5-1,12.1c-0.6,6-1.1,12.2-1.6,18.6c-0.5,6.4-0.7,12.4-0.7,18.1c0,1.1-0.3,1.6-1,1.6
	C142.7,78.6,140.1,71.5,138.7,57.3z M213.6,78.6c3.9,0,7.3-1.1,10.2-3.2c3.2-2.3,5.8-5.5,7.8-9.6c1.6-3.3,2.9-6.9,3.8-10.9
	c1-4.4,1.5-8.9,1.5-13.5c0-10-1.9-17.9-5.6-23.9c-4-6.4-9.6-9.5-16.9-9.5c-4.3,0-8.1,1.2-11.5,3.5c-4.3,3-7.6,7.6-9.9,13.8
	c-2.3,6.1-3.4,12.7-3.4,19.9c0,7.3,1,13.6,3,18.8C196.4,73.7,203.4,78.6,213.6,78.6z M203.9,33.7c1.5-6.2,3.8-10.7,7.1-13.4
	c1.7-1.4,3.7-2.1,6.1-2.1c4.3,0,7.7,2.3,10.1,6.8c2.2,4.2,3.3,9.3,3.3,15.3c0,3.5-0.3,7.1-1,10.6c-0.7,3.6-1.6,6.8-2.9,9.7
	c-2.9,6.4-6.5,9.6-11,9.6c-5.7,0-9.6-2.9-11.6-8.8c-1.1-3.3-1.7-7.5-1.7-12.8C202.2,43.5,202.7,38.5,203.9,33.7z M50.6,180.9
	c0.2,4.7,0.5,8.2,0.8,10.6c0.4,3.7,1,6.4,1.8,8.1c0.7,1.7,1.5,2.9,2.2,3.7c0.7,0.7,1.6,1,2.5,0.9c1.5-0.1,2.7-2.2,3.6-6.2
	c0.9-4,1.6-9.1,2-15.4c0.1-0.9,0.6-3.6,1.4-8.2c0.8-4.6,1.9-9.6,3.3-14.9c1.4-5.3,3.2-10.2,5.3-14.6c2.2-4.4,4.6-6.8,7.5-7.2
	c2.2-0.3,3.9,1,5,3.9c1.1,2.9,1.8,6.7,2,11.4c0.2,4.7,0,9.9-0.6,15.7c-0.6,5.8-1.4,11.4-2.5,16.7c-2.5,0.4-4.9,0.9-7.2,1.4
	c-2.3,0.5-4.4,1.3-6.3,2.3c-1.9,1-3.6,2.4-5,4.1c-1.4,1.7-2.4,4-3,6.8c-0.7,3-0.8,5.5-0.2,7.6c0.6,2.1,1.4,3.7,2.5,4.9
	c0.9,1,1.9,1.7,2.9,2.1c1,0.4,2.1,0.6,3.1,0.8c1,0.2,2.2,0.2,3.3,0.2c4,0,8.2-2.1,12.6-6.3c4.4-4.2,7.9-11.1,10.6-20.6
	c4.3-1.6,7.6-3.3,9.8-5.1c0.5-0.4,0.9-0.8,1.3-1.1c0.2,5.6,0.7,10.3,1.4,14.1c1,4.8,2.5,8.4,4.5,10.7c2,2.3,4.7,3.5,8.1,3.7
	c3.6,0.2,6.6-1,9.1-3.3c2.5-2.4,4.7-5.2,6.5-8.5c0.4-0.8,0.8-1.5,1.2-2.3c0,0.1,0,0.2,0,0.3c0.5,7,1.3,12.4,2.4,16.4
	c1.1,3.9,2.6,6.6,4.4,8.1c1.8,1.5,3.9,2.3,6.3,2.4c3.4,0.1,6.4-1.7,9.1-5.5c2.7-3.8,5-8.1,6.9-12.9c1.3-3.3,2.4-6.6,3.4-9.7
	c0.2,0.9,0.3,1.8,0.5,2.6c0.7,2.7,1.6,5.3,2.8,7.6c1.2,2.3,2.7,4.3,4.5,5.9c1.8,1.6,3.9,2.7,6.5,3.3c4.6,1,8.8,1,12.5-0.2
	c5-1.6,9.1-4.8,12.3-9.4c2.7-3.9,4.8-8,6.5-12.1c0.3,2,0.6,3.6,1.1,4.9c0.6,1.7,1.1,3,1.7,3.9c0.5,0.9,1,1.4,1.6,1.7
	c0.5,0.2,0.9,0.3,1.2,0.3c1.2,0.2,2.2,0,3.1-0.6c0.9-0.5,1.6-1.1,2-1.9c0.6-0.7,1-1.6,1.1-2.7c0.4-2.2,1-5,1.7-8.2
	c0.7-3.3,1.5-6.7,2.5-10.2c1-3.6,1.9-7.1,2.9-10.5c1-3.4,1.9-6.5,2.9-9.1c1-2.7,1.9-4.8,2.8-6.2c0.9-1.5,1.6-2,2.2-1.6
	c0.7,0.6,1.3,1.8,1.8,3.7c0.4,1.9,0.8,4,1,6.3c0.2,2.4,0.4,4.8,0.4,7.1c0.1,2.4,0.1,4.3,0.1,5.8V191c0.1,6.7,0.6,12.1,1.3,16.4
	c0.7,4.2,1.7,7.6,2.8,10c1.2,2.5,2.5,4.1,4.1,5c1.5,0.9,3.3,1.4,5.2,1.6c3.6,0.1,6.7-1.7,9.3-5.5c2.7-3.8,4.9-8.1,6.8-12.9
	c1.3-3.3,2.3-6.5,3.3-9.6c0,0.1,0.1,0.3,0.1,0.4c1,4.8,2.5,8.4,4.5,10.7c2,2.3,4.7,3.5,8.1,3.7c3.6,0.2,6.6-1,9.1-3.3
	c2.5-2.4,4.7-5.2,6.5-8.5c0.4-0.7,0.7-1.4,1.1-2.1c0,0.1,0,0.2,0,0.3c0.3,6.4,0.7,10.7,1.1,12.9c0.3,1.6,0.8,2.8,1.6,3.6
	c0.7,0.7,1.5,1.3,2.2,1.6c0.7,0.3,1.6,0.4,2.5,0.2c1.6,0,2.9-1.8,3.8-5.3c0.4-1.3,0.8-2.9,1.1-4.7c0.3-1.8,0.6-3.7,0.9-5.8
	c0.1-1.5,0.3-2.9,0.4-4.2c0.1-1.3,0.3-2.2,0.4-2.7c2.1-11.9,4.1-21.2,6.1-28.1c2-6.8,4-10.4,6.1-10.7c1.3-0.1,2.4,0.7,3.2,2.7
	c0.8,1.9,1.3,5.5,1.4,10.7v4c0,1.2,0,2.5-0.1,3.9c-0.1,1.4,0,2.9,0.1,4.3c0.1,11,1.3,18.9,3.4,23.6c2.1,4.8,5.7,7.3,10.9,7.6
	c3.6,0.2,6.6-1,9.1-3.3c2.5-2.4,4.7-5.2,6.5-8.5c1.8-3.3,3.2-6.4,4.2-9.5c1-3,1.7-5.2,2-6.3c1.6-4.6,1.2-7.1-1.3-7.6
	c-0.4,0-0.9,0.4-1.4,1.2c-0.5,0.8-0.9,1.7-1.2,2.8c-0.4,1.2-0.8,2.6-1.1,4.2c-2.4,7-4.6,12-6.6,14.9c-2,3-3.8,4.7-5.2,5.1
	c-1.5,0.4-2.7,0.1-3.6-1.1c-0.9-1.2-1.3-2.4-1.3-3.6c-0.1-0.9-0.2-2.7-0.2-5.6c0-2.8,0.1-6.2,0.2-10c0-1.2,0-2.6,0-4.2
	c0-1.6,0.1-3.3,0.2-5.1c0.3-8.5-0.4-14.8-2.1-19c-1.7-4.2-3.7-7.2-5.9-9c-2.7-1.9-5.8-2.8-9.2-2.7c-3.1,0.2-5.8,2.2-8.1,6.2
	c-2.2,4-4.2,8.8-5.8,14.5v-19.2c0.3-5.5-0.2-9.3-1.4-11.5c-1.3-2.2-3.4-3.2-6.3-3.2c-1.2,0-2.1,0.4-2.8,1.3
	c-0.7,0.9-1.2,1.9-1.7,2.9c-0.6,1.2-1,2.5-1.1,4c-0.6,3.6-1,8.9-1.2,15.9c-0.2,7.1-0.3,14.3-0.2,21.8c0,3,0.1,5.8,0.1,8.6
	c-2.2,6.4-4.3,10.9-6.2,13.7c-2,3-3.8,4.7-5.2,5.1c-1.5,0.4-2.7,0.1-3.6-1.1c-0.9-1.2-1.3-2.4-1.3-3.6c-0.1-0.9-0.2-2.8-0.2-5.7
	c0-2.9,0.1-6.3,0.2-10.2c0.1-3.9,0.3-8.1,0.3-12.5c0.1-4.4,0.2-8.6,0.3-12.6c0.1-6.5-0.6-11.2-2.2-13.9c-1.6-2.7-3-4.5-4.2-5.2
	c-0.3-0.3-0.6-0.4-0.8-0.4c-0.2,0-0.5-0.1-0.8-0.2c-0.3,0-0.6-0.1-0.9-0.2c-1.5-0.1-2.6,0.3-3.2,1.4c-0.7,1.1-1.2,2.3-1.4,3.7
	c-0.4,1.6-0.7,3.4-0.7,5.3c-0.4,11.4-0.6,21.1-0.6,28.8c0,1.5,0.1,3,0.1,4.4c-0.2,0.6-0.3,1.3-0.4,2c-2.2,8.5-4.3,15-6.2,19.5
	c-1.9,4.5-3.7,7.8-5.2,9.7c-1.6,1.9-2.8,2.8-3.8,2.6c-1-0.2-1.5-0.9-1.7-2.1c-0.1-0.6-0.2-1.9-0.2-3.9s0-4.4,0-7.2
	c0-2.8,0-5.9,0.1-9.1c0.1-3.3,0.1-6.5,0.1-9.8c0-1.2,0-2.3,0.1-3.5c0.1-1.1,0.1-2.2,0.1-3.2c0-6.2-0.3-11.4-1-15.6
	c-0.7-4.2-1.6-7.5-2.8-9.9c-1.2-2.5-2.7-4.2-4.5-5.2c-1.8-1-3.7-1.6-5.7-1.8c-0.7-0.1-1.4-0.2-2.1-0.1c-0.7,0.1-1.4,0.1-2.1,0.1
	c-1.3,0.2-2.7,0.9-4,2.3c-1.3,1.4-2.6,3.2-3.7,5.5c-1.1,2.2-2.2,4.7-3.1,7.5c-1,2.7-1.9,5.6-2.8,8.6c0.3-6.2,0.5-12.6,0.6-19.2
	c0.1-6.5,0.1-12.8,0.2-18.7c0.1-5.9,0.1-11.2,0.1-15.8c0-4.6,0-8.1,0-10.5c0.3-8.5-0.3-14.6-1.7-18.4c-1.4-3.8-3.6-5.7-6.6-5.7
	c-1.2,0-2.1,0.7-2.8,2.2c-0.7,1.5-1.2,3.1-1.4,4.9c-0.4,2.1-0.7,4.4-0.9,6.9c-0.4,3.6-0.8,8.2-1,13.6c-4.7,0.3-9.5,0.5-14.3,0.3
	c-7.2-0.2-14.4-0.4-21.5-0.6c-4.5,0-8.9,0-13.4,0c-4.5,0-8.9,0.1-13.4,0.2c0.1-7.7-0.4-12.8-1.8-15.3c-1.3-2.5-3.4-3.5-6.4-3.2
	c-1.2,0.2-2.1,0.8-2.7,1.9c-0.7,1.1-1.1,2.3-1.4,3.5c-0.4,1.6-0.7,3.3-0.9,5.1c-0.3,2.7-0.5,5.4-0.7,8.2h-21.6
	c-2.2-0.1-4.2-0.6-6-1.2c-1.8-0.7-3.4-1.2-4.8-1.7c-1.4-0.4-2.6-0.6-3.7-0.6c-1,0.1-1.9,0.8-2.5,2.1c-0.9,1.8-0.9,3-0.1,3.7
	c0.8,0.7,1.7,1.2,2.8,1.4c0.3,0.2,0.7,0.2,1.3,0.2h2.7c5.3,0,10.7,0,15.9,0c5.3,0,10.5-0.1,15.7-0.2c-0.3,4.9-0.4,10.3-0.4,16.1
	c0,5.9,0,12.3,0,19.3l-0.2,22.5c-0.1,5.7-0.2,10.9-0.1,15.5c-2.2,6.4-4.3,11.1-6.2,13.9c-2,3-3.8,4.7-5.2,5.1
	c-1.5,0.4-2.7,0.1-3.6-1.1c-0.9-1.2-1.3-2.4-1.3-3.6c-0.2-0.9-0.2-2.8-0.2-5.7c0-2.9,0.1-6.3,0.2-10.2c0.1-3.9,0.3-8.1,0.3-12.5
	c0.1-4.4,0.2-8.6,0.3-12.6c0.1-6.5-0.6-11.2-2.2-13.9c-1.6-2.7-3-4.5-4.2-5.2c-0.3-0.3-0.6-0.4-0.8-0.4c-0.2,0-0.5-0.1-0.8-0.2
	c-0.3,0-0.6-0.1-0.9-0.2c-1.5-0.1-2.6,0.3-3.2,1.4c-0.7,1.1-1.2,2.3-1.4,3.7c-0.4,1.6-0.7,3.4-0.7,5.3c-0.4,11-0.6,20.2-0.6,27.8
	c-0.3,0.3-0.6,0.5-1,0.9c-2.1,2.4-5,4.1-8.7,5.1c1.2-5.6,1.8-11.4,1.8-17.4c0-5.9-0.7-11.4-2-16.3c-1.3-4.9-3.5-8.9-6.3-12.1
	c-2.9-3.2-6.6-4.9-11.2-5c-4,0-7.4,2-10.1,5.9c-2.7,3.9-4.9,8.5-6.6,13.7c0-5,0-10,0-14.8c0-4.8,0-9.4,0-13.6c0-4.2,0-8,0.1-11.4
	c0.1-3.3,0.1-5.9,0.1-7.7c0.3-8.5-0.3-14.6-1.7-18.4c-1.4-3.8-3.6-5.7-6.6-5.7c-1.2,0-2.1,0.7-2.8,2.2c-0.7,1.5-1.2,3.1-1.4,4.9
	c-0.4,2.1-0.7,4.4-0.9,6.9c-0.4,3.7-0.8,8.4-1,14c-0.2,5.6-0.4,11.7-0.6,18c-0.1,6.4-0.2,13-0.2,19.7c0,6.8,0,13.1,0.1,19.2
	C50.2,170.8,50.4,176.2,50.6,180.9z M81,199.7c-0.9,2.5-1.9,4.6-3.1,6.2c-0.4,0.6-1,1.1-1.6,1.6c-0.6,0.3-1.2,0.6-1.9,0.9
	c-0.7,0.3-1.4,0.3-2.1,0c-1.2-0.3-2-0.9-2.3-1.7c-0.4-0.8-0.6-1.7-0.6-2.6c0-1,0.2-2.2,0.7-3.3c0.9-3,2.8-5.1,5.7-6.5
	c2.9-1.3,5.5-2.3,7.9-2.9C82.8,194.4,81.9,197.2,81,199.7z M153.5,191.2c0.1-3.6,0.1-7.1,0.2-10.5c0.1-3.4,0.1-6.5,0.2-9.4
	c0.1-2.8,0.1-5.1,0.1-6.9c0.4-11.1,0.6-21.5,0.4-31.1c-0.2-9.6-0.2-16.9,0-21.9c4.5-0.1,8.9-0.2,13.4-0.2c4.5,0,8.9,0,13.4,0
	c4.8,0.1,9.5,0.3,14.3,0.4c4.8,0.2,9.5,0.2,14.3,0c0.6,0,1.7,0.1,3.3,0.2c1.2,0.1,2.5,0.2,3.7,0.3c-0.2,4.4-0.3,8.9-0.4,13.7
	c-0.1,6.4-0.2,13-0.2,19.7c0,6.8,0.1,13.1,0.2,19.2c0.1,5.7,0.3,10.8,0.5,15.3c-0.4,1.1-0.7,2.3-1,3.8c-0.3,1-0.6,2-0.9,2.9
	c-0.3,0.7-0.6,1.5-0.8,2.3c-0.2,0.8-0.5,1.6-0.8,2.3c-0.9,1.9-1.9,3.9-3,6c-1.1,2.1-2.5,4-4,5.8c-1.6,1.8-3.3,3.2-5.1,4.2
	c-1.9,1-4,1.5-6.3,1.3c-2.5-0.3-4.3-2.1-5.5-5.3c-1.1-3.3-1.9-6.8-2.3-10.7c-0.6-4.6-0.7-9.8-0.4-15.6c0-8,0.5-14.5,1.6-19.5
	c1-5,2.2-8.7,3.3-11.2c1.2-2.5,2.3-4,3.3-4.5c1-0.4,1.6-0.3,1.8,0.4c0.1,1.5-0.3,2.9-1.2,4.1c-1,1.3-1.7,2.5-2.3,3.7
	c-0.3,0.9,0,1.6,0.9,2.2c0.4,0.3,1,0.4,1.6,0.4c1.2,0.1,2.2-0.1,3-0.9c0.8-0.7,1.4-1.6,1.9-2.7c0.6-1.2,1-2.5,1.1-4
	c0.3-2.2,0.2-3.9-0.3-5c-0.5-1.1-1.2-2.1-2.1-3c-0.7-0.6-1.4-1-2.1-1.2c-0.7-0.2-1.4-0.4-2.1-0.6c-0.7-0.1-1.5-0.1-2.2,0
	c-3.4,0.6-6.5,2.2-9.4,4.7c-2.5,2.1-4.9,5.3-7.2,9.6c-2.3,4.3-3.8,10.4-4.6,18.3c-0.4,4.9-0.6,9.4-0.5,13.7
	c-0.2,0.7-0.4,1.3-0.6,2.1c-2.2,8.5-4.3,15-6.2,19.5c-1.9,4.5-3.6,7.8-5.1,9.7c-1.5,1.9-2.7,2.8-3.7,2.6c-1-0.2-1.5-0.9-1.7-2.1
	c-0.1-0.7-0.3-2.2-0.3-4.5c-0.1-2.2-0.1-4.9-0.1-7.9C153.4,198.1,153.4,194.8,153.5,191.2z M114.4,128.6c-0.6-1.6-1-3.3-1.1-5
	c-0.2-1.7,0-3.2,0.3-4.6c0.4-1.3,1.2-2.4,2.6-3.1c1.3-0.7,2.5-0.4,3.5,0.9c1,1.3,1.6,3.1,2,5.3c0.4,2.2,0.5,4.5,0.4,6.9
	c-0.1,2.4-0.4,4.2-1,5.6c-0.4,1.3-1.2,1.9-2.2,1.6c-0.1,0-0.4-0.1-0.7-0.2c-0.3-0.1-0.8-0.8-1.6-2c-0.2-0.1-0.4-0.5-0.7-1.1
	C115.5,131.7,115,130.3,114.4,128.6z M289.8,116.8c1,1.3,1.6,3.1,2,5.3c0.4,2.2,0.5,4.5,0.4,6.9c-0.1,2.4-0.4,4.2-1,5.6
	c-0.4,1.3-1.2,1.9-2.2,1.6c-0.1,0-0.4-0.1-0.7-0.2c-0.3-0.1-0.8-0.8-1.6-2c-0.1-0.1-0.4-0.5-0.7-1.1c-0.4-1.2-1-2.6-1.6-4.2
	c-0.6-1.6-1-3.3-1.1-5c-0.1-1.7,0-3.2,0.3-4.6c0.4-1.3,1.2-2.4,2.6-3.1C287.7,115.2,288.9,115.5,289.8,116.8z M349.8,287.6
	c-1.2,2.6-2.4,5.2-3.5,7.8c2.9,5.5,5.7,11,8.7,16.5c1.8,3.5,3.9,6.8,5.8,10.2c0.5,1,1,2,1.3,3.1c0.4,1.5-0.3,2.7-1.6,3.4
	c-1.3,0.6-2.7,0.3-3.6-0.9c-0.4-0.6-0.8-1.2-1-1.6c-1.5-4.1-2.9-8-4.4-11.8c-2.1-5.2-4.3-10.4-6.5-15.7c-3.4,7.8-6.7,15.7-9.7,23.6
	c-0.3,0.9-0.8,1.7-1.4,2.5c-0.9,1.3-2.4,1.6-3.9,0.9c-1.4-0.7-2.1-2-1.6-3.5c0.4-1.1,0.9-2.2,1.5-3.2c4.8-7.8,9.3-15.7,13.7-23.7
	c-0.9-2.1-1.8-4.3-2.7-6.4c-0.4-1-1.1-1.6-2.1-2c-0.3-0.1-0.7-0.3-1.1-0.4c-3.7-0.8-6.3-3-8.1-6.2c-2.3-4.1-3.5-8.4-2.7-13.1
	c0.2-1,0.5-2,0.9-3c0.9-2.1,2.2-2.8,4.3-2c1.7,0.6,3.4,1.4,4.8,2.5c4,3.1,6.2,7.3,7.2,12.2c0.4,2,0.1,4-0.7,5.9
	c-0.3,0.8-0.7,1.5-0.9,2.3c-0.4,1-0.3,2,0.2,2.9c0.8,1.5,1.6,3.1,2.4,4.6c1-1.9,2.1-3.9,3.1-5.8c1.3-2.5,1.5-5,0.7-7.6
	c-0.3-1.1-0.3-2.2,0.3-3.2c3.1-5.6,6.2-11.1,9.3-16.7c0.1,0.1,0.3,0.1,0.4,0.2c-0.4,0.8-0.8,1.5-1.1,2.3c-1.8,3.7-3.6,7.5-5.3,11.2
	c-0.1,0.3-0.2,0.8-0.1,1c0.3,0.5,0.9,0.3,1.2-0.3c1.1-2.1,2.2-4.2,3.3-6.3c1.1-2.1,2.2-4.1,3.3-6.2c0.1-0.2,0.3-0.4,0.5-0.5
	c-0.6,1.4-1.1,2.7-1.8,4.1c-1.5,3.3-3,6.6-4.5,9.9c-0.2,0.4-0.4,0.8,0.1,1.1c0.6,0.4,0.9,0,1.1-0.5c1.7-3.3,3.5-6.5,5.3-9.8
	c0.7-1.3,1.4-2.5,2.2-3.7c-0.9,2.1-1.8,4.2-2.8,6.3c-1.1,2.4-2.2,4.9-3.4,7.3c-0.2,0.4-0.5,0.9,0.1,1.2c0.7,0.4,0.9-0.2,1.1-0.6
	c2.2-4.5,4.5-9.1,6.7-13.6c0.1,0,0.2,0.1,0.3,0.1c-0.3,0.7-0.5,1.5-0.8,2.2c-2.1,5-4.2,10.1-6.4,15.1c-0.6,1.4-1.5,2.3-3,2.9
	C352.6,283.6,350.9,285.2,349.8,287.6z M185.4,254.1c0,0.7-0.6,1.4-1.7,2.1c-2,0-3.1-4.1-3.1-12.3c-0.3-4.7-0.5-8.8-0.5-12.3h-0.4
	c0.4-1,0.8-1.4,1.3-1.4h1.3C184.4,230.1,185.4,238.1,185.4,254.1z M203.6,230.9c-0.3,6-0.4,11.1-0.4,15v2c0,1.8-0.1,3.8-0.4,6.2
	l0.4,0.6c-0.4,0.9-0.8,1.3-1.2,1.3h-0.8c-1.1-0.3-1.6-1.3-1.6-2.9v-6.6c0-0.5-1.9-3.1-5.7-7.9h-0.4v11.8c0,0.9-0.3,2.3-0.8,4.3h-1.2
	c-1.1-0.4-1.6-1.1-1.6-2.3v-17.7c0-0.9-0.1-2.1-0.4-3.6l1.2-1.3c1.8,0,4.5,3.6,8.1,10.8l0.8,0.3h0.4v-0.3c0-1.9,0.1-4.6,0.4-8.2
	l-0.4-1.6c0.3-0.9,1-1.3,2-1.3C202.8,229.8,203.4,230.3,203.6,230.9z M231,254.5h0.4c-0.3,1.1-0.8,1.7-1.2,1.7h-1.2
	c-0.9,0-1.6-1.9-2-5.6V236c-1.1,0-2.2,3.2-3.3,9.6h-0.8c-2.4,0-4.6-2.5-6.6-7.6h-0.8c0.3,4.1,0.4,7,0.4,8.9v6.3
	c0,1.6-0.4,2.5-1.2,2.6h-0.4c-1.9,0-2.9-1-2.9-3v-16.2c0-1.3-0.1-3-0.4-5.3c0.4-0.9,0.8-1.3,1.2-1.3h0.4c2.5,0,5.2,3.3,8.2,9.9h0.4
	c2.6-6.5,4.5-9.9,5.8-10.2h1.6c0.4,0,0.8,0.3,1.2,1C230.3,237.5,230.7,245.4,231,254.5z M249.8,231.2c-4.2,6.5-6.3,11.1-6.3,13.6
	c0,1-0.1,3.4-0.4,7.3l0.4,1.9c-0.5,1.5-1,2.2-1.6,2.2h-0.8c-1-0.3-1.6-1.2-1.6-2.8v-1.9c0-2.8,0.1-6.3,0.4-10.7
	c-5-5.9-7.5-9.3-7.5-10.1v-0.6h0.4c2.2,0,5.2,2.6,9,7.9c0.6-0.2,2.5-2.7,5.5-7.6h1.2C249,230.2,249.4,230.6,249.8,231.2z
	 M308.7,268.1l1.1,0.1c0.5,0,1.1,0,1.6,0.1c0.9,0.1,1.7,0.1,2.4,0.1c1.5,0,3.1-0.2,4.3-1.4c1.4-1.9-0.3-4-1.5-5.5l-0.1-0.1
	c-0.5-0.6-1.1-1.4-1.7-2l-1-1l-0.3-0.2c-0.7-0.6-0.7-0.6-1.2-0.9c-0.1-0.1-0.4-0.2-0.7-0.5c-0.4-0.2-0.7-0.4-1-0.6
	c-1-0.6-1.8-1.1-4.2-2.1c-2.1-0.8-5.4-1.2-7.4-0.9l-0.4,0.1c-0.5,0.1-1.1,0.2-2.2,0.6c-0.1,0-1.4,0.6-1.4,0.7
	c-0.3,0.2-0.6,0.5-0.7,0.9c-0.1,0.4-0.1,0.8,0.1,1.1c0.4,0.7,1.3,1,2,0.6l0,0c0.3-0.1,0.8-0.3,1.1-0.6c1.2-0.5,2.5-0.8,3.7-0.8
	c1.3,0,2.6,0.2,4.4,0.8l0.6,0.2c2.9,1.1,3.9,2.1,5.3,3.4l1.2,1.2c0.6,0.7,1.5,1.9,1.5,1.9l0.1,0.1c0.8,1.1,1.1,1.6,1.3,1.9
	c-0.1,0-0.1,0-0.1,0c-0.2,0.1-0.7,0.2-1.7,0.2c-0.7,0-1.4,0-1.9-0.1l-1.1-0.1c-1.7-0.1-2.1-0.1-4.6,0.4c-1.9,0.5-2.7,1.5-2.8,1.6
	c-0.4,0.4-0.4,1-0.1,1.4c0.6,0.9,1.2,1.7,1.8,2.6c1.2,1.6,2.4,3.1,2.7,4.5c0,0.1,0.1,0.4,0.2,0.5l0.1,0.4c0.4,1.7,1.6,6.3,1.6,9.1
	c-0.4-0.4-0.7-0.7-0.9-0.9l-1.6-1.5c-0.2-0.1-0.3-0.3-0.5-0.4l-0.7-0.5c-3.2-2.4-6.6-3.6-10.2-3.6l-0.5,0c-3,0-6.2,0.8-9.2,1.5
	c-3.7,0.9-7.5,1.8-11.3,1.5c-6.3-0.5-11.6-2.6-12.5-3.8c-0.1-0.1-0.1-0.2-0.2-0.2c-0.1-0.1-0.2-0.2-0.2-0.3c0,0-0.2-0.3-0.3-0.6
	c-0.5-0.9-0.4-2.1,0.3-2.9c0.8-1,2.1-1.5,3.9-1.5c2.5,0,5.4,0.9,7.9,1.9l0.4,0.1c1.6,0.6,2.9,1.1,4.7,0.8c1.6-0.2,3.2-0.7,5-1.4
	c3.9-1.7,5-4.9,6.4-9l0.4-1.2l0.3-1.2c0.6-2,0.6-2,0.7-2.8l0.4-1.7c0.1-0.6,0.3-1.1,0.5-1.7c0.2-0.6,0.4-1.3,0.6-1.9
	c0.2-0.6,0.4-1.3,0.6-1.9c1-3.4,2.1-6.9-0.2-10c-0.9-1.2-2.2-2.4-3-2.8l0,0c-2.5-1.7-5.2-2.7-8.6-3.9l-1.3-0.4c-1-0.4-2-0.8-2.9-1.1
	c-8.4-3.3-15.7-6.2-26.8-7.5c-1.5-0.2-3.7-0.4-5.3-0.4c-0.7,0-1.2-0.1-2.2-0.1c-1-0.1-2.5-0.2-5-0.4c-1.3-0.1-2.6-0.2-3.8-0.3
	c-1.6-0.1-3.1-0.2-4.6-0.3c-1.3,0-2.5-0.1-3.7-0.3c-1.1-0.1-2.1-0.2-3-0.2c-4.4-0.1-10.1-0.2-15.2-0.2c-2.5,0-4.5,0-6.1,0.1
	c-5,0.1-25.4,2.1-29.9,2.9c-5.5,1-7.1,1.4-11.9,3c-3.4,1.2-5.7,1.8-7.5,2.3c-1.7,0.5-3,0.8-4.3,1.4c-0.6,0.3-1.5,0.7-2.3,1.2
	c-0.6,0.3-1.2,0.6-1.6,0.8c-5.6,2.7-9.1,6.4-10.3,8.2c-0.4,0.6-0.7,1.1-1,2.1c-0.3,0.8-0.3,1.6-0.1,2.6c0.2,0.8,0.5,1.4,0.9,2.1
	c0.3,0.6,0.8,1.3,1.3,2.4c0.3,0.7,0.8,2.5,1.3,4.6c0.9,3.5,2,7.9,3.2,10.2c0.1,0.3,0.3,0.6,0.5,1c0.2,0.3,0.4,0.7,0.5,1
	c0.5,1,1,2,1.8,3c1.2,1.4,2.6,2.4,3.9,2.8c0.8,0.2,1.5,0.3,2.2,0.3c2.1,0,3.8-0.9,5.6-1.8c0.6-0.3,1.3-0.7,1.9-1
	c2.1-1,3.8-1.5,5.4-1.7c0.4-0.1,0.8-0.1,1.5-0.1l0.6,0c1.5,0.1,2.8,0.7,3.6,1.8c0.6,0.9,0.8,1.9,0.5,2.9c-0.2,0.6-0.5,1.1-0.6,1.3
	l-0.4,0.5c-2.3,2.2-6.9,2.6-11.9,2.9l-1.5,0.1c-0.4,0-0.7,0-1.2,0l-1.5,0c-4.4,0-7.8-1-10.9-1.8c-2.4-0.7-4.7-1.3-7-1.3
	c-1.3,0-2.5,0.2-3.8,0.6c-4.7,1.5-8.1,5.2-10.3,7.9c0.2-1.2,0.5-2.1,1-3.7c0.2-0.5,0.6-1.6,1.3-2.9l0,0c0.7-1.5,1.4-2.8,2-3.9
	c1.9-3.5,3-5.6,3.1-9.2c0-0.8-0.6-1.5-1.4-1.5l-1.8-0.1c-0.4,0-1-0.1-1.6-0.1c-2.3-0.2-5.9-0.5-8-0.2c2-4.1,8.5-7.7,14.4-7.7
	c1.6,0,3,0.3,4.1,0.8c0.6,0.3,1.4,0,1.7-0.6c0.1-0.3,0.2-0.7,0-1c-0.1-0.3-0.4-0.6-0.7-0.7c-2-0.9-4.6-1.3-7.2-1
	c-4.5,0.4-11,3-14.1,7c-1.2,1.5-2,3.2-2.3,5.3c-0.1,0.5,0.1,1,0.4,1.3c0.4,0.4,0.9,0.6,1.5,0.6c0.7-0.1,0.8-0.1,1.8-0.3
	c0.9-0.1,1.5-0.1,1.9-0.2c1.5-0.1,1.5-0.1,6.3,0c0.8,0,1.4,0,1.9,0c-0.2,1.6-0.6,2.9-1.3,4.4c-0.9,1.9-1.5,3-2.2,4.1
	c-0.9,1.5-1.9,3-3.3,6.6l-0.6,1.7c-0.7,2.7-0.7,3.1-0.9,4.8l-0.1,2.4c0,0.5,0.2,0.9,0.5,1.3c0.3,0.3,0.8,0.5,1.3,0.5
	c0.5,0,1-0.2,1.3-0.6c1.5-1.7,2.7-3.3,3.9-4.8c3-3.8,5.1-6.5,8.2-7.5c0.3-0.1,0.5-0.2,0.8-0.2c0.2,0,0.3-0.1,0.4-0.1
	c0.4-0.1,0.8-0.1,1.3-0.1c2.7,0,6.2,1.1,9.9,2.3c1.4,0.5,2.9,0.9,4.3,1.4c1.9,0.6,3.8,0.9,5.8,0.9c1.5,0,2.7-0.2,3.7-0.3l0.3,0
	c0.7-0.1,1.2-0.2,1.5-0.3c1.7-0.3,9.2-2,11.2-5.1l0.4-0.5l0,0l0.2-0.3l0,0c1-2.1,1.1-3.9,0.2-5.8c-0.1-1.2-0.7-2.6-1.3-3.7
	c-0.2-0.5-0.4-0.9-0.5-1.2l-0.3-0.8c-0.3-0.9-0.7-1.8-1.1-2.7l-0.1-0.2c0-0.1-0.1-0.1-0.1-0.2l0.9-0.2c5-0.9,8.9-1.6,20.9-3.1
	c0.8,0,1.5-0.2,2.2-0.3c0.7-0.1,1.3-0.3,2-0.3c4.9-0.6,14-1.3,21.2-1.3c9.5,0.2,12.3,0.4,23.4,1.6c0.7,0.1,1.4,0.2,2,0.3
	c2.2,0.5,4.5,0.8,6.7,1.1l1.7,0.2c4.3,0.5,8.6,1.3,12.7,2.1l2.2,0.4c-0.1,0.4-0.3,0.8-0.5,1.1c-0.2,0.3-0.3,0.7-0.4,1
	c-0.2,0.5-0.4,1-0.5,1.5c-0.2,0.5-0.4,1.1-0.6,1.6c-0.1,0.4-0.3,0.7-0.5,1.2c-0.4,0.8-0.9,1.8-1.1,2.7c-0.5,1-0.7,2.1-0.6,3.1
	c0,0.3,0.1,0.6,0.2,0.9l0,0.1l0,0l0.2,0.4c0.2,0.5,0.3,0.7,0.3,0.7l0.1,0.2c0,0,0.1,0.2,0.4,0.6l1.9,4l-0.5-2.2
	c0.7,0.7,1.5,1.4,2.6,2c3.6,2,9.1,2.2,10.7,2.2l0.4,0c3.6-0.1,7.1-1.2,10.5-2.2c3.5-1.1,6.8-2.1,10-2.1c3.1,0,5.7,1,8.1,3l0.2,0.1
	c1.9,1.9,3,3.3,3.8,4.4c0.3,0.4,0.6,0.8,0.9,1.2c0.3,0.4,0.5,0.5,0.8,0.8c0.1,0.1,0.2,0.1,0.3,0.2l0.2,0.1c0.8,0.4,1.7,0.3,2.4-0.2
	c1.1-0.8,1.5-2.8,1.5-3.4l0-0.1c0.1-0.7,0.2-1.7-0.2-3.9c-0.5-2.8-1.5-5.7-2.3-7.9l-0.1-0.2c-0.8-2.2-2.1-3.8-3.4-5.3
	c-0.5-0.6-1-1.2-1.4-1.8c0.4-0.2,1-0.3,1.6-0.3C308.1,268,308.4,268,308.7,268.1z M261.3,261c-4.2-0.8-8.4-1.7-12.8-2.3
	c-6.2-1-6.7-1-7.8-1.1c-8.5-0.8-17.7-1.6-27.3-1.6c-7,0-13.8,0.4-20.7,1.3c-0.7,0.1-1.3,0.1-2,0.2c-0.7,0-1.5,0.1-2.2,0.2
	c-15.3,2.2-28.8,5.1-31.1,5.9l-0.7,0.2c-1.6,0.6-3.1,1.1-8.1,3.7c-0.2,0.1-0.5,0.3-0.7,0.4c-0.4,0.2-0.8,0.5-1.1,0.6
	c-0.8,0.2-1.4,0.3-1.9,0.3c-1.4,0-2-0.6-3-2.9l-0.3-1c-0.1-0.1-0.1-0.3-0.1-0.4l0,0c-1.1-3.1-1.3-4.1-2.5-8.5l-0.7-2.5
	c-0.2-0.8-0.6-1.5-0.9-2.1c-0.2-0.5-0.5-1-0.6-1.4c-0.1-0.3-0.2-0.7-0.2-1c-0.2-0.7-0.3-1.3-0.2-1.7l0.1-0.3
	c0.1-0.1,0.1-0.2,0.2-0.3c0.4-0.9,2.1-2.9,3.1-3.7l0.2-0.2c0.9-0.8,2.7-2.6,5.9-4.2c1.4-0.7,6.8-2.3,10-3.2c1.1-0.3,2-0.6,2.6-0.8
	l1.8-0.6c7.9-2.8,10.3-3.6,30.3-5.8l0.5-0.1c1.8-0.2,4.8-0.5,7.7-0.6c1.4,0,2.7,0,4-0.1c0.8,0,1.6-0.1,2.4-0.1l0.3,0
	c3.5,0,6.5,0,9.3,0c14.3,0,21.4,0.4,35.9,2c10.5,1.3,17.6,4.1,25.2,7c2.3,0.9,4.6,1.8,7.1,2.7c2,0.7,4.2,1.6,6.1,2.9
	c0.1,0.1,0.2,0.2,0.3,0.2l0.1,0.1c1.2,1,2.5,2.1,2.5,4.4c0,1.3-0.5,2.9-1,4.7c-0.2,0.7-0.4,1.4-0.6,2.1c-0.2,0.7-0.3,1.3-0.4,2
	c-0.1,0.6-0.2,1.2-0.4,1.8c-2.4,9.1-3.6,11.7-5.3,11.7c-1,0-2.5-0.8-4.4-1.9c-1.3-0.7-2.7-1.5-4.5-2.3c-3.6-1.7-6.5-2.3-10.2-3.1
	C263.8,261.5,262.5,261.3,261.3,261z M87.9,248.4c-0.1-6.4-1.8-14.1-0.6-20.4c0.9-5.1,6.4-12.7,12.5-9.4c5.5,2.9,2.4,10.8,2.7,15.3
	c2.5-2.3,8.7-10.8,13.1-9.7c7.3,1.8,1.5,15.2-0.7,18.7c-3,4.8-7.6,7.6-11.6,11.4c-3.3,3.1-7.8,5.3-10.4,9.1
	c-1.5,2.2-2.3,4.7-3.4,7.1C87.3,262.9,88,255.8,87.9,248.4z M60.4,269.5c-0.1-1.2,0.6-2.2,0.7-3.3c0.1-1.2-0.3-2.5-0.7-3.7
	c-0.8-2.7-2.2-5.2-3.4-7.8c-1-2.3-2.7-7.2-0.7-9.5c2.1-2.5,4.4-1,5.7,1.3c0.2,0.4,0.4,1.2,0.8,1.7c0.2,0.3,0.4,0.5,0.7,0.5
	c0.5-0.1,1.1-1.2,1.3-1.6c0.4-0.9,0.8-1.9,1.3-2.8c1.1-2,2.5-2.1,4-0.4c2.1,2.3,1.6,8.4,0.8,11.2c-1,3.5-3.7,6.9-5.9,9.7
	c-0.8,1.1-1.8,2-2.7,3c-0.4,0.4-0.8,0.8-1.1,1.1C61.3,268.9,60.4,269.8,60.4,269.5z M276.3,319.4c-0.1-6.4-1.8-14.1-0.6-20.4
	c0.9-5.1,6.4-12.7,12.5-9.4c5.5,2.9,2.4,10.8,2.7,15.3c2.5-2.3,8.7-10.8,13.1-9.7c7.3,1.8,1.5,15.2-0.7,18.7
	c-3,4.8-7.6,7.6-11.6,11.4c-3.3,3.1-7.8,5.3-10.4,9.1c-1.5,2.2-2.3,4.7-3.4,7.1C275.7,334,276.5,326.9,276.3,319.4z M248.9,340.6
	c-0.1-1.2,0.6-2.2,0.7-3.3c0.1-1.2-0.3-2.5-0.7-3.7c-0.8-2.7-2.2-5.2-3.4-7.8c-1-2.3-2.7-7.2-0.7-9.5c2.1-2.5,4.4-1,5.7,1.3
	c0.2,0.4,0.4,1.2,0.8,1.7c0.2,0.3,0.4,0.5,0.7,0.5c0.5-0.1,1.1-1.2,1.3-1.6c0.4-0.9,0.8-1.9,1.3-2.8c1.1-2,2.5-2.1,4-0.4
	c2.1,2.3,1.6,8.4,0.8,11.2c-1,3.5-3.7,6.9-5.9,9.7c-0.8,1.1-1.8,2-2.7,3c-0.4,0.4-0.8,0.8-1.1,1.1
	C249.8,339.9,248.9,340.8,248.9,340.6z M338.6,239.9c-0.2-0.1-0.1-0.4,0.1-0.5c2.8-0.4,5.3,1.9,6.1,4.5c0.7,2.5,1.6,6.4,0.4,8.8
	c-0.2,0.3-0.6,0.2-0.6-0.1c0,0,0-0.1,0-0.1c-4-2.1-8.1-7.8-6.3-12.4C338.4,240,338.5,239.9,338.6,239.9z M352.8,249.7
	C352.8,249.7,352.8,249.7,352.8,249.7c0.1,0.3-0.1,0.4-0.3,0.4c-0.1,0.1-0.3,0.1-0.4,0c0,0-0.1,0-0.1,0c-0.8-0.3-1.7-1.4-2.3-2
	c-1.5-1.6-2.8-3.9-1.1-5.9c0.1-0.2,0.5-0.1,0.4,0.2c0,0,0,0,0,0.1C352,242.6,354,246.9,352.8,249.7z M350.8,234.9
	c0.6-2.1-1.6-5.8-4.1-4.5c-0.6,0.3-1.3,1-0.9,1.8c0.4,0.8,1.2,0.6,1.8,1c0.5,0.3,0.5,1,0.1,1.4c-1.3,0.9-3.5-1.4-3.3-2.7
	c0.2-1.1,0.9-2,2.1-2.2c3.1-0.5,6.5,1.6,6.4,5c-0.3,8.8-14.5,3-17.4-1c-0.3-0.4,0.3-0.3,0.5-0.2c0.4,0.2,0.7,0.6,1.1,0.9
	c0.6,0.4,1.2,0.8,1.9,1.1c0.8,0.4,1.6,0.8,2.3,1.2c1.4,0.8,2.8,1.3,4.4,1.5c1.2,0.2,2.7,0.3,3.6-0.5
	C350,237,350.6,235.9,350.8,234.9z M340.1,219.4c2.1,2,3.6,4.5,3,7.5c-0.5,2.9-3.5,4.4-6.3,4c-2.4-0.4-5.5-2.1-4.1-5
	c0.5-0.9,1.4-1.2,2.4-0.8c0.4,0.2,0.8,0.5,1.1,0.9c0.5,0.6,0.3,0.8-0.2,1.3c-0.3,0.3-0.5,0.7-0.5,1.1c0.1,2,3.3,2.2,4.6,1.4
	c0.5-0.3,0.9-0.7,1.2-1.3c0.7-1.6,0.7-3.7-0.6-5.1c-1.9-1.9-4.9-3.6-7.7-3c-1.5,0.3-2.9,0.8-4.1,1.8c-1.2,0.9-1.7,2.1-2.1,3.4
	c-0.5,1.4-1.1,2.6-0.9,4.1c0.2,1.5,0.6,3,1.3,4.3c0.6,1.3,1.1,2.6,1.9,3.8c0.2,0.3-0.2,0.7-0.4,0.4c-4-3.7-3.9-11.9-1.8-16.5
	C329.3,216.3,335.6,215.1,340.1,219.4z M320.4,253.9c-2.1-2-3.6-4.5-3-7.5c0.5-2.9,3.5-4.4,6.3-4c2.1,0.3,4.9,1.7,4.4,4.2
	c-0.2,1.2-1,2.3-2.3,1.9c-1.2-0.3-2.3-1.5-1.5-2.7c1.5-2.3-2.1-2.9-3.6-2.4c-1.4,0.4-1.8,1.8-1.9,3c-0.1,1.4,0.1,2.2,1.1,3.3
	c0.9,0.9,2,1.4,3.1,2c1.6,0.8,3.3,1.2,5,1.2c2.1,0.1,3.5-0.4,4.8-2.1c0.8-1.1,1.1-2.6,1.4-3.9c0.3-1.3,0.6-2.7,0.4-4
	c-0.5-2.8-1.5-5.1-3.1-7.5c-0.2-0.3,0.2-0.7,0.4-0.4c4,3.7,3.9,11.9,1.8,16.5C331.2,257,324.9,258.2,320.4,253.9z M321.9,233.4
	c0.2,0.1,0.1,0.4-0.1,0.5c-2.8,0.4-5.3-1.9-6.1-4.5c-0.7-2.4-1.7-6.4-0.4-8.8c0.2-0.3,0.6-0.3,0.6,0.1c0,0,0,0.1,0,0.1
	c4,2.1,8.1,7.8,6.3,12.4C322.1,233.3,322,233.4,321.9,233.4z M307.7,223.6C307.7,223.6,307.7,223.6,307.7,223.6
	c-0.1-0.3,0.1-0.4,0.3-0.4c0.1-0.1,0.3-0.1,0.4,0c0,0,0.1,0,0.1,0c0.8,0.3,1.7,1.4,2.3,2c1.5,1.6,2.8,3.9,1.1,5.9
	c0,0-0.1,0.1-0.1,0.1C308.5,231.3,306.5,226.5,307.7,223.6z M325.1,239.6c0.2,0.2-0.1,0.5-0.3,0.4c-3.4-1.5-6-4.3-9.9-4.9
	c-0.8-0.1-1.7-0.1-2.5,0c-0.7,0.1-1,0.7-1.5,1.3c-0.8,1.2-1.4,2.8-0.9,4.2c0.4,1.2,1.7,2.1,2.9,2.2c0.5,0.1,1.1,0.1,1.6-0.2
	c0.5-0.2,1.1-0.6,1.2-1.1c0.1-0.6-0.7-1-1.2-1.1c-0.7-0.1-1.2,0.1-1.8-0.4c-0.5-0.4-0.3-1.3,0.2-1.6c0.6-0.3,1.8,0.5,2.3,0.9
	c0.7,0.5,1.2,1.1,1.1,2c-0.2,1.1-0.9,2-2.1,2.2c-3.1,0.5-6.5-1.6-6.4-5C308,229.7,322.2,235.6,325.1,239.6z M367.7,253.3
	c-1.6-0.4-3.2-1-4.8-1c-0.7,0-1.2-0.7-1.4-1.2c-0.5-1.2-2.7,1.1-3.6,1.4c-1.1,0.4-2-0.7-2-1.7c0-1.6,1.7-4.7-0.6-5
	c-0.6-0.1-0.6-0.8-0.1-1c1.2-0.5,3.1-0.4,3.1,1.4c0,0.9-0.2,1.8-0.4,2.7c-0.2,1-0.9,2.4,0.4,1.5c1.1-0.8,2.5-2,4-1.3
	c0.6,0.3,0.5,1.7,1,1.8c1.7,0.6,2.9,1.4,4.5,2.2C368,253.1,367.9,253.4,367.7,253.3z M304.5,222.5c0,1.6-1.7,4.7,0.6,5
	c0.6,0.1,0.6,0.8,0.1,1c-1.2,0.5-3.1,0.4-3.1-1.4c0-0.9,0.2-1.8,0.4-2.7c0.2-1,0.9-2.4-0.4-1.5c-1.1,0.8-2.5,2-4,1.3
	c-0.6-0.3-0.5-1.7-1-1.8c-1.7-0.6-2.9-1.4-4.5-2.2c-0.2-0.1-0.1-0.4,0.1-0.3c1.6,0.4,3.2,1,4.8,1c0.7,0,1.2,0.7,1.4,1.2
	c0.5,1.2,2.7-1.1,3.6-1.4C303.7,220.4,304.5,221.4,304.5,222.5z M258.9,93.7l-1.2,5.5l37.5,8.5l1.2-5.5l-33.5-7.6l33.5,7.6
	c5-5.3,10.1-10.6,14.8-16.4c3.9-2.1,8.7-4,13.6-5.8c8.4-3.2,16.9-6.5,21.4-11.3l0,0l0.1-0.2l0,0c1.7-1.8,3-3.9,3.5-6.1
	c0.5-2.4,0-4.8-2.3-6.9l0,0l-0.1-0.1l0,0c-4.4-4-13.6-0.6-20.4,2.3c1.2-3.8,2-7.9,2.5-12.2l-78-17.6
	C244.3,47.7,249.3,70.2,258.9,93.7L258.9,93.7z M325.6,62c0.1-0.1,0.2-0.1,0.3-0.1c6.1-2.7,15.9-7,19.3-4l0,0l0.1,0l0,0
	c1.3,1.2,1.6,2.5,1.3,3.8c-0.3,1.5-1.4,3.1-2.7,4.6l0,0l-0.1,0.2l0,0c-3.9,4.2-12.1,7.4-20.1,10.5c-2.7,1-5.5,2.1-8,3.2
	C319.6,74.6,323,68.6,325.6,62z M107.1,65.7c0.5,4.2-2,7.7-6.4,7.5c-2.2-0.1-5.3-1.1-5.8-3.7C93.5,62.7,106.2,58.2,107.1,65.7z
	 M108.2,56.9c-1,1.8-1.5,4.4,1.4,3.2c1.7-0.7,3-1.8,4.8-2.3c1.1-0.4,2.5-0.6,3.7-0.7c2-0.2,4.5-0.2,6.5,0.2c1.3,0.3,2.8,1.2,4.2,0.5
	c0.5-0.3,0.8-0.7,1-1.2c0.6-1.7-0.5-4.5-1.5-5.6c-1.7-1.9-4.6-2.3-7-2C116.3,49.6,110.8,52.4,108.2,56.9z M124.8,52.3
	c0.9,0.4,1.8,2,0.7,2.7c-0.6,0.4-1.5,0.1-2.1-0.4c-0.1-0.1-0.1-0.1-0.2-0.2C122.2,53.1,123.4,51.6,124.8,52.3z M119,52.4
	C119,52.4,119.1,52.4,119,52.4c1.8,0.8,0,3.4-1.4,1.8C116.9,53.3,118.1,52,119,52.4z M113.2,54.6c0.1,0,0.2,0,0.3,0
	c1.1,0,1.1,1.6,0,1.7C112.4,56.3,112.4,54.9,113.2,54.6z M102.8,57.3c0.8-0.7,1.2-3.3,1.6-4.2c1.4-3.2,3.1-6.3,5.1-9.1
	c2.9-4.2,11.9-9.5,8.1-14.1c-8.3-10.2-14.1,9.6-15.2,15.2c-0.5,2.4-0.9,4.8-1,7.3c-0.1,1.1-0.3,2.5-0.1,3.6
	C101.3,56.9,101.9,58.1,102.8,57.3z M113.7,31.2c0.1,0.1,0.3,0.3,0.4,0.5c1.7,2.6-2.7,5.4-3.6,2.3C110.1,32.2,112.3,30.1,113.7,31.2
	z M108.5,37.5c0.4,0,0.9,0.4,1.1,1.2c0.5,1.6-1.1,2.7-2.5,1.7C105.8,39.5,107.3,37.4,108.5,37.5z M104,45.2c0.3-0.5,0.7-0.7,1.1-0.6
	c0.5,0.1,0.8,0.5,0.7,1.1C105.4,47.1,103.3,46.6,104,45.2z M88.9,47c1,2.6,2.2,5,3.5,7.4c0.7,1.3,2.3,4.3,4,4.6
	c2.3,0.4,0.2-7.3,0-8.3c-0.7-4.1-0.9-8.2-0.8-12.3c0.1-5.5,0.6-13.9-4.9-17.4c-6.2-4-6.5,4.9-5.9,9.7C85.4,36.3,86.9,41.8,88.9,47z
	 M92.6,43.2c0.6-0.2,1.2,0.1,1.3,1c0.2,1.1-0.8,1.9-1.8,1.5C90.5,45,91.5,43.5,92.6,43.2z M91,37.4c-0.9,0-1.8-0.6-1.8-1.5
	c0-1,0.9-1.8,1.9-1.6c0,0,0.1,0,0.2,0C92.7,34.7,92.6,37.3,91,37.4z M89.7,24.9c0.7,0,1.4,0.4,1.8,1.3c0.4,0.8,0.2,1.7-0.1,2.3
	c-0.6,0.9-1.9,1.3-3,0.3C86.3,26.9,88,24.8,89.7,24.9z M79.3,61.9c2.4-0.1,4.8-0.3,7.2,0c1.8,0.2,4.2,2,6,1.2
	c-0.1-2.4-2-3.7-3.5-5.1c-1.9-1.8-3.6-3.4-6-4.6c-4-2-9-2.2-9.2,3.4C73.6,60.5,75.7,62,79.3,61.9z M85.7,57.8
	C85.7,57.8,85.8,57.8,85.7,57.8c1.4,0,1.3,2.4-0.2,1.8C84.6,59.3,84.7,57.9,85.7,57.8z M80.9,55.7c2,1-0.3,4-2.2,3
	C76.6,57.6,79.3,54.9,80.9,55.7z M82.1,69.1c-2.3,1.8-4.5,7.2-1.5,9.3c3.1,2.2,4.9-0.3,6.3-2.9c0.7-1.3,1.4-2.6,2.3-3.9
	c0.7-1,3.5-2,2.5-3.3C90.1,66.1,83.7,67.7,82.1,69.1z M83.4,75.1c-2.3,0.4-1.1-3.4,0.3-3.2C85.3,72.2,84.7,74.9,83.4,75.1z M86.3,71
	c-1.1-0.3-0.7-1.9,0.4-1.6C87.6,69.6,87.4,71.2,86.3,71z"/>
</svg>
