<?xml version="1.0" encoding="utf-8"?>
<!-- Generator: Adobe Illustrator 18.0.0, SVG Export Plug-In . SVG Version: 6.00 Build 0)  -->
<!DOCTYPE svg PUBLIC "-//W3C//DTD SVG 1.1//EN" "http://www.w3.org/Graphics/SVG/1.1/DTD/svg11.dtd">
<svg version="1.1" id="Layer_1" xmlns="http://www.w3.org/2000/svg" xmlns:xlink="http://www.w3.org/1999/xlink" x="0px" y="0px"
	 viewBox="0 0 432 432" enable-background="new 0 0 432 432" xml:space="preserve">
<path fill="#333333" d="M187,254c-0.2,0.8-0.5,1.7-0.7,2.5c-0.5,1.8-1.1,3.6-1.9,5.3c-0.4,0.9-0.8,1.7-1.3,2.5
	c-0.1,0.2-0.2,0.3-0.4,0.5c-0.2,0.3-0.5,0.3-0.8,0.3c-0.2-0.1-0.4-0.1-0.6-0.2c-0.9-0.3-1.8-0.8-2.7-1.2c-1.4-0.7-2.9-1.5-4.3-2.3
	c-1.7-1-3.3-2-4.9-3.1c-0.9-0.6-1.8-1.3-2.6-2c-1-0.9-1.7-1.9-2.4-3c-0.4-0.7-0.8-1.5-1-2.3c-0.3-1.2-0.5-2.4-0.3-3.6
	c0.2-1.4,1.2-2.8,2.4-3.5c0.8-0.5,1.6-0.8,2.4-0.9c1.3-0.2,2.6-0.2,3.9,0.2c0.6,0.2,1.2,0.4,1.8,0.8c0.4,0.2,0.7,0.5,1,0.8
	c0,0,0,0,0.1,0.1c0,0,0-0.1,0-0.1c0-0.3,0.1-0.7,0.2-1c0.2-0.5,0.5-1.1,0.7-1.6c0.5-0.8,1-1.6,1.7-2.3c0.7-0.7,1.5-1.4,2.4-1.8
	c0.6-0.3,1.3-0.6,2-0.7c1.3-0.2,2.4,0,3.5,0.8c0.6,0.4,1,1,1.4,1.5c0.6,0.9,1,1.8,1.3,2.8c0.5,1.5,0.6,3,0.5,4.6c0,1-0.2,2-0.4,3
	C187.7,251.5,187.3,252.7,187,254z M406.5,295c-0.7-0.1-1.4-0.1-2.2,0c-1,0.1-2,0.4-2.9,0.9c-0.9,0.4-1.7,1-2.4,1.6
	c-0.5,0.4-0.9,0.8-1.3,1.2c-0.2,0.3-0.4,0.6-0.6,0.9c0,0,0,0,0,0.1c0,0,0-0.1,0-0.1c-0.2-0.4-0.4-0.8-0.6-1.1
	c-0.4-0.5-0.9-1-1.4-1.4c-1.1-0.8-2.3-1.3-3.6-1.6c-0.9-0.2-1.8-0.2-2.6,0c-1.4,0.3-2.8,1.2-3.5,2.5c-0.6,1.1-0.9,2.3-1,3.5
	c-0.1,0.9,0,1.7,0.2,2.5c0.2,1.3,0.6,2.5,1.2,3.7c0.5,1,1.1,1.9,1.7,2.8c1.1,1.6,2.3,3.2,3.6,4.7c1,1.3,2.1,2.5,3.2,3.7
	c0.7,0.7,1.4,1.5,2.1,2.1c0.2,0.1,0.3,0.3,0.5,0.4c0.3,0.2,0.6,0.2,0.9,0.1c0.2-0.1,0.3-0.2,0.5-0.3c0.8-0.6,1.5-1.2,2.2-1.9
	c1.3-1.4,2.5-2.8,3.7-4.4c0.5-0.7,1-1.4,1.6-2.1c0.8-1.1,1.6-2.2,2.3-3.3c0.5-0.9,1.1-1.8,1.5-2.7c0.6-1.4,1-2.9,1.1-4.5
	c0.1-1.1,0-2.1-0.2-3.1c-0.2-0.7-0.4-1.4-0.8-2C408.8,295.9,407.8,295.3,406.5,295z M186.9,397.4c-1.3,1.3-3,1.8-5.1,1.5
	c-2.1-0.5-3.8-1.1-5.3-1.8c-3.8-2-7.2-4.1-10.3-6.5c-0.9-0.7-1.8-1.3-2.7-1.9c-0.8-0.6-1.7-1.3-2.7-2c-0.7-0.6-1.3-1.1-2-1.6
	c-0.7-0.5-1.3-1.1-1.8-1.8c-3-2.9-5.7-6.2-8-10c-0.9-1.4-1.9-2.9-2.7-4.4c-0.9-1.5-1.8-3-2.6-4.5c-0.7-1.1-1.3-2.3-1.8-3.4
	c-0.6-1.1-1.1-2.3-1.7-3.5c-0.6-1.1-1.1-2.3-1.6-3.4c-0.5-1.1-1-2.3-1.5-3.5c-0.5-1-0.9-2-1.3-2.9c-0.4-0.9-0.8-1.9-1.1-2.9
	c-0.2-0.4-0.1-0.8,0.3-1.1c1.3-1,2.6-2,3.9-3c1.3-0.9,2.6-1.9,3.9-3l5.5-4.6c1-0.8,2-1.7,3-2.5c0.9-0.8,1.9-1.6,2.8-2.5
	c1-1,2.1-2.1,3.1-3.2c1-1.1,2-2.2,3-3.3c1.8-2.1,3.5-4.3,5-6.7c0.3,0.1,0.7,0.1,1,0.1c2.6,0,4.6-1,5.9-3.1c1.4-2.2,1.5-4.5,0.3-7
	c-0.4-0.6-0.8-1.1-1.2-1.5c0.3-0.7,0.6-1.5,0.9-2.3c0.5-1.3,0.9-2.6,1.3-3.9c0.4-1.3,0.8-2.7,1.1-4.1c0.2-0.8,0.3-1.5,0.4-2.3
	c0.1-0.8,0.2-1.5,0.4-2.3c0.2-1,0.3-2.1,0.4-3.2c0.1-1.1,0.1-2.3,0.1-3.4c0.1-1.3,0.1-2.6,0-3.9c-0.1-1.3-0.3-2.6-0.6-3.9
	c-0.3-1.2-0.6-2.4-1-3.6c-0.4-1.2-0.8-2.3-1.4-3.4c-0.6-1-1.2-2-2-2.8c-0.8-0.8-1.8-1.5-2.9-2c-1.9-0.9-3.9-1.4-6.1-1.4
	c-1.4,0.2-2.6,0.6-3.5,1.1c-0.8,0.5-1.2,1.1-1.3,1.8c-0.1,0.5,0.1,0.9,0.6,1.3c0.2,0.2,0.4,0.3,0.6,0.3c0.5,0.2,0.9,0.3,1.3,0.3
	s0.9,0.1,1.3,0.3c2,0.6,3.2,1.7,3.7,3.4c0.1,0.4,0.2,0.8,0.2,1.1c0,0.4,0.1,0.8,0.2,1.1c0.1,1.4,0.1,2.8,0.1,4.2
	c0,1.4-0.1,2.8-0.3,4.2c-0.2,1.7-0.5,3.3-0.8,4.8c-0.4,1.1-0.7,2.3-1,3.4c-0.3,1.2-0.7,2.3-1.1,3.3c-0.7,1.9-1.4,3.7-2.2,5.3
	c-0.8,1.7-1.6,3.3-2.5,4.9c-3.3,6.2-7,11.8-11.1,16.9c-1.4,1.9-2.9,3.6-4.4,5.2c-1.5,1.6-3.2,3.2-4.9,4.8c-1.5,1.4-3.1,2.7-4.6,4
	c-1.6,1.3-3.2,2.5-4.9,3.7c-0.2,0.2-0.6,0.4-1.1,0.6V334c0-1.8,0-3.6,0.1-5.3c0-1.8,0.1-3.6,0.1-5.5c0-0.9,0-1.9-0.1-2.8
	c0-0.9-0.1-1.9-0.1-2.8c-0.1-1-0.2-2-0.3-2.9c-0.1-0.9-0.1-1.8-0.1-2.7c-0.1-2-0.2-3.9-0.4-5.9c-0.1-2-0.4-3.9-0.8-5.9
	c-0.4-2.5-0.9-5.1-1.7-7.7c-0.5-1.5-1-3-1.5-4.4c-0.6-1.5-1.2-2.8-2-4.2c-0.8-1.6-1.8-3-2.9-4.4c-1.1-1.3-2.3-2.5-3.7-3.5
	c-2.1-1.5-4.4-2.5-6.9-3c-1.3-0.2-2.6-0.2-3.8-0.1c-1.2,0.1-2.5,0.3-3.8,0.6c-2.8,0.8-5.5,1.9-8,3.4c-3.9,2.3-7.4,5.3-10.4,9.3
	c-0.8,1-1.5,2.1-2.1,3.3c-0.7,1.2-1.3,2.3-2,3.4c-1.4,3-2.4,6.1-3,9.3c-0.2,0.8-0.3,1.5-0.4,2.3c0,0.8-0.2,1.6-0.4,2.3
	c-0.2,1.6-0.2,3.2,0,4.7c0.2,1.5,0.4,3.1,0.6,4.7c0.2,0.8,0.4,1.5,0.7,2.3c0.3,0.8,0.6,1.6,0.8,2.3c0.8,1.9,1.7,3.7,2.8,5.3
	c1.1,1.7,2.5,3.2,4.1,4.5c1.6,1.4,3.2,2.5,4.8,3.2c1.5,0.7,3.1,1.2,4.9,1.7c1.8,0.5,3.5,0.6,5.1,0.3c1.1,0,2.1-0.3,3-0.8
	c2.2-1.4,3.7-3.3,4.6-5.6c0.5-1.2,0.3-2.3-0.6-3.4c-0.2-0.2-0.4-0.4-0.6-0.6c-0.2-0.2-0.4-0.4-0.6-0.6c-2.2-1.5-4.1-1.4-5.9,0.4
	c-1.2,1-2.7,1.9-4.4,2.5c-0.7,0-1,0-1.1-0.1c-0.4-0.2-0.7-0.4-1.1-0.6c-0.3-0.2-0.6-0.5-0.9-0.9c-1.5-1.9-2.5-3.8-3.1-5.9
	c-0.2-0.8-0.4-1.7-0.5-2.5c-0.1-0.8-0.3-1.7-0.5-2.5c-0.1-1.7-0.1-3.4,0-5.2c0.1-2.3,0.5-4.7,1.3-7.2c0.6-2,1.3-3.8,2.1-5.3
	c0.8-1.6,1.6-3.1,2.7-4.5c1-1.4,2.2-2.8,3.4-4.1c0.9-1,1.9-2,2.8-2.8c0.9-0.8,2-1.6,3.2-2.3c0.8-0.5,1.5-0.8,2.4-1.1
	c0.8-0.3,1.7-0.3,2.7-0.1c0.8,0.2,1.4,0.4,2,0.6c0.6,0.2,1.1,0.7,1.6,1.3c0.1,0.1,0.1,0.2,0.1,0.2c0,0,0,0.1,0.1,0.2
	c0.3,0,0.4,0.1,0.5,0.2c0,0.1,0.1,0.3,0.2,0.5c0.5,1.2,0.9,2.4,1.2,3.6c0.3,1.2,0.6,2.4,0.8,3.7c0.2,1.4,0.4,2.8,0.6,4.3
	c0.2,1.5,0.3,2.9,0.4,4.3c0.2,2,0.3,4,0.4,6c0.1,2,0.2,4,0.3,6v10.8c0,3.5,0,6.9-0.1,10.3c0,3.4-0.1,6.9-0.1,10.5v0.3
	c-0.1,1.4-0.2,2.8-0.2,4.2c0,1.4-0.1,2.8-0.2,4.1c0,1.6,0,3.2-0.1,4.9c-0.1,1.6-0.2,3.3-0.3,4.9l-0.4,7.6c-0.1,1.2-0.2,2.4-0.3,3.6
	c-0.1,1.2-0.3,2.4-0.6,3.6c-0.1,0.9,0.2,1.7,1,2.3c0.6,0.6,1.2,1,1.9,1.4c0.7,0.4,1.4,0.7,2.2,1c1.8,0.8,3.7,1.2,5.8,1
	c0.8-0.1,1.5-0.6,1.8-1.4c0.4-1,0.7-2,0.8-3c0.2-1,0.4-2,0.6-3c0.2-0.9,0.3-1.9,0.4-2.8c0-0.9,0.1-1.9,0.2-2.8
	c0.2-1.9,0.3-3.7,0.4-5.6c0.1-1.8,0.2-3.7,0.4-5.6v-1.8c0.2,0.1,0.3,0.2,0.4,0.3c0,0.1,0.1,0.2,0.2,0.3c0.6,1.2,1.1,2.4,1.6,3.6
	c0.5,1.2,1.1,2.3,1.8,3.4c0.8,1.3,1.5,2.7,2.2,4.1c0.7,1.4,1.6,2.7,2.6,3.9c0,0.1,0.1,0.2,0.3,0.4c0.1,0.6,0.3,1.1,0.7,1.5
	c0.6,0.8,1.1,1.5,1.7,2.4c0.6,0.8,1.1,1.6,1.7,2.4c1,1.3,2,2.6,3,3.8c1,1.2,2.1,2.4,3.3,3.5c1,0.9,2.1,1.9,3.1,2.7
	c1,0.9,2.1,1.8,3.1,2.7c0.5,0.4,0.9,0.7,1.4,1c0.5,0.3,0.9,0.6,1.4,1c3.8,3.3,7.7,6,11.8,8.2c1.8,0.8,3.6,1.6,5.3,2.2
	c1.8,0.6,3.7,1.1,5.6,1.5c2.2,0.3,4.1,0,5.9-0.8c1.6-0.8,2.8-1.9,3.7-3.3c0.8-1.4,1.5-2.8,2-4.4c0.2-0.7,0.1-1.2-0.1-1.5
	C188.2,396.4,187.5,396.6,186.9,397.4z M414.8,345.8c0.2,0.6,0.2,1.1,0.1,1.7c-0.1,0.6-0.2,1.1-0.4,1.7c-0.2,0.4-0.3,0.8-0.4,1.1
	c-0.1,0.4-0.2,0.8-0.4,1.1c-0.2,0.8-0.4,1.5-0.7,2.1c-0.3,0.7-0.5,1.4-0.7,2.1c-0.2,0.6-0.4,1.1-0.6,1.7c-0.2,0.6-0.4,1.1-0.6,1.5
	c-0.4,1-0.7,2-1.1,2.9c-0.3,0.9-0.7,1.8-1.2,2.7c-0.2,0.7-0.4,1.3-0.7,1.9c-0.3,0.6-0.5,1.2-0.7,1.9c-0.4,0.8-0.7,1.5-1.1,2.4
	c-0.3,0.8-0.7,1.7-1.1,2.5c-0.3,0.6-0.5,1.1-0.8,1.7c-0.2,0.6-0.5,1.1-0.8,1.5c-0.8,1.7-1.8,3.2-3,4.6c-0.3,0.3-0.6,0.6-0.8,0.9
	c-0.3,0.3-0.6,0.6-0.8,0.8c-1.3,1-2.7,1.6-4.2,1.7c-0.5,0-0.9,0-1.3,0.1c-0.4,0-0.9,0.1-1.3,0.1c-1.5,0-2.9-0.5-4.2-1.5
	c-1.1-0.8-2.1-1.8-3-3c-0.8-1.2-1.4-2.5-1.7-3.8c-0.3-0.9-0.4-1.9-0.4-3c-0.2-1.3-0.3-2.6-0.4-3.9c0-1.3,0-2.6,0.1-3.9
	c0-0.8,0-1.7,0-2.5c0-0.8,0-1.6,0.1-2.3c0-0.8,0-1.5,0.1-2.2c0-0.7,0.1-1.4,0.2-2.2c0-0.8,0-1.5,0.1-2.1c0-0.7,0.1-1.3,0.2-2
	c0.1-0.4,0.1-0.8,0.1-1.4c0.1-0.7,0.2-1.3,0.2-1.9c0-0.6,0.1-1.3,0.1-2c0.1-0.7,0.2-1.3,0.2-2c0-0.7,0.1-1.3,0.2-2
	c0.1-1.2,0.1-2.4,0-3.7l-0.4-1.7c0-0.2-0.1-0.4-0.3-0.6c-0.8-0.7-1.8-0.8-2.8-0.6c-1.2,0.3-2.4,1-3.5,2.1c-0.4,0.3-0.7,0.7-0.8,1.1
	c-0.5,0.7-0.9,1.3-1.3,1.9c-0.4,0.6-0.8,1.2-1.3,1.8c-0.3,0.5-0.5,1-0.8,1.5c-0.2,0.6-0.5,1.1-0.8,1.7c-0.3,0.8-0.6,1.5-0.9,2.3
	c-0.3,0.8-0.6,1.6-0.9,2.3c-0.4,0.9-0.6,1.6-0.7,2.1c-0.2,0.8-0.4,1.5-0.6,2.3c-0.2,0.8-0.4,1.5-0.6,2.3c-0.2,0.6-0.4,1.1-0.5,1.7
	c-0.1,0.6-0.3,1.1-0.5,1.7l-1.3,4.2c-0.2,0.6-0.4,1.2-0.6,2c-0.2,0.7-0.4,1.3-0.6,1.9c-0.2,0.6-0.4,1.2-0.6,1.9
	c-0.5,2-1,3.9-1.7,5.8c-0.2,0.8-0.4,1.5-0.7,2.3c-0.3,0.8-0.6,1.5-0.8,2.3c-0.2,0.6-0.5,1.1-0.8,1.7c-0.5,0.8-1.1,1.2-1.8,1.3
	c-0.8,0.1-1.5,0.1-2.1,0c-1.6-0.3-2.9-0.9-3.9-1.8c-0.7-0.6-1.3-1.4-2-2.5c-0.7-1.4-1-2.7-1.1-3.9c-0.2-0.6-0.3-1.1-0.3-1.7
	c0-0.6,0-1.2-0.1-1.8c-0.1-0.8-0.1-1.5,0-2.1c0.1-0.7,0.1-1.4,0.1-2.1c0.1-0.3,0.1-0.6,0.1-0.9c0-0.3,0-0.6,0-0.9c0-0.2,0-0.4,0-0.7
	c-0.1,0.1-0.1,0.2-0.2,0.4c-0.7,1.3-1.3,2.6-2,3.7c-0.7,1.2-1.4,2.4-2.1,3.6c-0.7,0.9-1.3,1.9-2,2.7c-0.7,0.9-1.4,1.8-2.3,2.6
	c-0.8,0.8-1.5,1.6-2.3,2.4c-0.8,0.8-1.7,1.4-2.7,2c-0.5,0.3-0.9,0.5-1.4,0.8c-0.5,0.2-0.9,0.4-1.4,0.6c-0.5,0.2-1,0.3-1.5,0.4
	c-0.5,0-1,0.1-1.5,0.2c-0.8,0.1-1.5,0.1-2.1,0.1c-0.7,0-1.4,0-2.1,0H325c-0.7,0-1.3,0-1.9-0.1c-0.6,0-1.2-0.1-1.8-0.2
	c-2.2-0.5-4-1.4-5.5-2.7c-1-0.8-1.9-1.8-2.7-2.7c-0.8-1-1.5-2-2.3-3c-0.5-0.8-0.9-1.5-1.2-2.4c-0.3-0.8-0.7-1.7-1.1-2.5
	c-0.1-0.4-0.3-0.8-0.4-1.2c-0.2,0.4-0.4,0.9-0.6,1.3c-0.6,1.3-1.1,2.6-1.7,3.9c-1,2.3-2.3,4.2-3.9,5.9c-1.2,1.5-2.8,2.4-4.8,2.7
	c-0.5,0.1-0.9,0.2-1.3,0.2s-0.9,0.1-1.3,0.1c-3.2,0.1-5.6-1.3-7.3-4.1c-0.6-1.1-1-2.4-1.3-3.8c-0.3-1-0.5-2-0.6-3
	c-0.1-1-0.3-2-0.5-3c-0.1-0.7-0.1-1.3-0.1-1.9c0-0.6,0-1.2-0.1-1.9c-0.2-2.2-0.3-4.2-0.2-6.3c0-2,0.1-4.1,0.1-6.1l-0.4-8
	c0-0.5,0-1-0.1-1.5c0-0.5-0.1-1-0.1-1.5c-0.2-0.7-0.3-1.3-0.4-1.8c0-0.6-0.2-1.2-0.4-1.8c-0.2-1.1-0.5-2.3-0.8-3.4
	c-0.2-0.5-0.4-0.9-0.6-1.3c-0.2-0.4-0.5-0.8-0.8-1.1c-0.5-0.7-1.1-1.1-1.9-1.3c-0.8-0.2-1.6-0.1-2.3,0.4c-0.4,0.2-0.7,0.4-1.1,0.6
	c-0.3,0.2-0.6,0.4-0.9,0.6c-2,1.7-3.6,3.4-4.9,5.1c-0.8,1-1.4,2.1-2,3.2c-0.6,1.1-1.1,2.2-1.6,3.4c-0.5,1.2-0.8,2.3-1.1,3.2
	c-0.2,0.8-0.3,1.5-0.3,2.1c0,0.7,0,1.4-0.1,2.1c-0.2,1.3-0.3,2.7-0.4,4c0,1.4-0.1,2.7-0.2,4.2c-0.1,1-0.1,2-0.1,3s0,2-0.1,3
	l-0.4,6.8v1.7c0,1.7-0.3,3.2-1,4.5c-1.1,2.2-2.6,3.6-4.5,4.2c-2,0.6-4,0.6-6.2,0c-0.8-0.2-1.4-0.4-2-0.6v-0.6c0.1-1.5,0.2-3,0.2-4.4
	c0-1.4,0.2-2.8,0.4-4.2c0.2-1.7,0.3-3.4,0.4-5.1c0-1.5,0.1-3,0.1-4.5c-0.6,1.2-1.1,2.5-1.7,3.7c-1,1.9-2.1,3.7-3.3,5.5
	c-1.3,1.7-2.6,3.3-3.9,4.8c-0.7,0.7-1.3,1.3-2,1.9c-0.7,0.6-1.5,1.2-2.3,1.6c-1.4,0.8-2.8,1.4-4.1,1.5c-0.4,0.1-0.7,0.2-1.1,0.2
	c-0.3,0-0.7,0.1-1.2,0.2h-2.4c-0.6,0.1-1.1,0.1-1.6,0.1c-0.5,0-1-0.1-1.5-0.1c-0.8-0.1-1.5-0.2-2.2-0.3c-0.7-0.1-1.4-0.2-2.2-0.4
	c-1.4-0.5-2.8-1.4-4.2-2.7c-0.8-0.8-1.4-1.5-2-2.2c-0.6-0.7-1.2-1.5-1.8-2.3c-0.5-0.7-0.8-1.3-1.1-1.9c-0.3-0.6-0.6-1.3-1-2
	c-0.4-0.8-0.7-1.7-1.1-2.6c-0.3-0.9-0.6-1.8-0.8-2.7c0,0,0,0,0,0c-0.2,0.6-0.5,1.2-0.7,1.7c-0.7,1.3-1.3,2.7-1.8,4.1
	c-0.6,1.4-1.2,2.8-2,4.1c-1.1,1.9-2.3,3.4-3.5,4.5c-1.2,1.2-2.9,1.9-4.9,2.1h-2.7c-0.8,0.1-1.5,0-2.2-0.4c-0.7-0.3-1.4-0.7-2-1.2
	c-0.8-0.7-1.5-1.4-2.1-2.3c-0.6-0.8-1.1-1.8-1.5-2.8c-0.9-2-1.4-4.2-1.4-6.8c0-1.1,0-2.2,0.1-3.3c0-1.1,0.1-2.2,0.1-3.3
	c0-0.3,0-0.6,0-0.9l-2.4,6.1c-0.5,1.2-1,2.4-1.6,3.6c-0.6,1.2-1.2,2.4-1.8,3.6c-1,2.2-2.3,4-3.9,5.5c-1.5,1.3-3.1,2-4.9,2
	c-0.5,0.1-1.2,0.1-2.1,0.1c-1.7,0.1-3.3-0.5-4.9-1.7c-1.4-1.3-2.5-2.8-3.4-4.4c-0.2-0.6-0.4-1.1-0.6-1.7c-0.2-0.6-0.4-1.2-0.6-1.8
	c-0.2-0.8-0.3-1.7-0.4-2.6c0-0.9,0-1.8,0.2-2.6v-2.4c0.1-1.3,0.2-2.6,0.2-3.9c0-1.3,0.1-2.6,0.2-3.9c0.1-1,0.1-2.1,0.1-3.2
	c0-1.1,0-2.1,0.1-3.2l0.4-6.8c0.1-1.8,0.2-3.6,0.2-5.3c0-1.8,0.1-3.6,0.2-5.3c0.1-1,0.1-2.1,0.1-3.2c0-1.1-0.1-2.2-0.2-3.3
	c-0.1-0.1-0.1-0.3-0.1-0.6c0.4-0.2,0.6-0.3,0.7-0.3c0.9-0.2,1.9-0.3,2.7-0.4c0.9-0.1,1.9,0,2.9,0.1c0.7,0.2,1.3,0.4,2,0.5
	c0.7,0.1,1.3,0.4,1.8,0.9c1.1,0.7,2,1.6,2.5,2.8c0.5,0.8,0.7,1.6,0.8,2.5c0.1,0.9,0.2,1.8,0.3,2.6c0,1.4,0,2.8-0.1,4.2
	c0,1.4-0.1,2.8-0.2,4.2c-0.1,1.3-0.2,2.6-0.3,3.9c-0.1,1.3-0.2,2.6-0.3,3.9c-0.1,0.5-0.1,0.9-0.1,1.3c0,0.4,0,0.8,0,1.1
	c-0.2,1-0.3,2.1-0.4,3.2c0,1.1-0.1,2.1-0.2,3.2c-0.1,1.1-0.2,2.3-0.3,3.4c-0.1,1.2-0.2,2.3-0.3,3.4c-0.1,0.9-0.1,1.9-0.1,2.8
	c0,0.9,0,1.9-0.1,2.8v1.7c0.2,0.8,0.6,1,1.3,0.7c0.5-0.2,0.9-0.6,1.4-1.3c0.5-0.7,0.8-1.5,1.1-2.3c0.6-1.3,1.1-2.6,1.7-3.7
	c0.6-1.2,1.1-2.4,1.7-3.7c0.3-0.8,0.6-1.5,0.9-2.4c0.3-0.8,0.6-1.6,0.9-2.4c0.6-1.5,1.1-3,1.6-4.5c0.5-1.5,1.1-3,1.6-4.5
	c0.2-0.7,0.4-1.3,0.6-2c0.2-0.7,0.4-1.4,0.6-2.1c0.2-0.6,0.4-1.1,0.7-1.7c0.1-0.3,0.3-0.6,0.4-0.8c0-0.3,0-0.7,0-1
	c0-0.5,0-0.9,0.1-1.4c0-1,0-2.1,0.1-3.2c0-1.1,0.1-2.2,0.2-3.2c0-0.9,0-1.9,0-2.7c0-0.9,0-1.8,0.1-2.7c0-1,0-2.1,0.1-3.1
	c0-1,0.1-2.1,0.2-3.1c0.1-0.7,0.1-1.3,0.1-2c0-0.7,0-1.3,0.1-2c0-0.3-0.1-0.4-0.4-0.4h-0.6h-4.9c-1.2,0-2-0.5-2.4-1.4
	c-0.5-1.1-0.3-2.1,0.6-3c0.1-0.1,0.1-0.2,0.1-0.2c0,0,0-0.1,0.1-0.2c0.5-0.6,1-0.8,1.7-0.7h4.6h0.8c0-2.4,0-4.9,0.1-7.2
	c0-2.4,0-4.8-0.2-7.2c0.2-0.2,0.4-0.3,0.6-0.3c0.2,0,0.5,0,0.8-0.1c0.7-0.1,1.3-0.2,1.8-0.3c0.6-0.1,1.2-0.1,1.8,0
	c1,0.1,2,0.3,3,0.5c0.9,0.2,1.8,0.7,2.5,1.3c1.5,1.2,2.4,2.7,2.8,4.5c0.1,0.6,0.1,1.1,0.1,1.7c0,0.6,0,1.1,0,1.7v4.6
	c0,0.2,0,0.3,0.1,0.4c0,0.1,0.1,0.2,0.1,0.4h0.8h5.8c0.9-0.1,1.6,0.3,2.1,1.3c0.5,0.8,0.6,1.5,0.4,2.4c-0.2,1.2-0.9,1.8-2.1,1.8
	h-6.5c-0.5,0-0.8,0.2-0.8,0.7c0,0.8,0,1.4-0.1,2c0,0.6-0.1,1.3-0.1,2c-0.1,1.6-0.2,3.2-0.3,4.9c-0.1,1.7-0.2,3.3-0.3,4.9
	c0,1.2,0,2.4-0.1,3.6c0,1.2-0.1,2.4-0.2,3.6c-0.1,1-0.2,2.1-0.2,3.1c0,1-0.1,2.1-0.1,3.1v0.4c-0.1,1.6-0.1,3.2-0.1,4.9
	c0,1.6,0,3.3-0.1,4.9c-0.1,1.3-0.2,2.6-0.2,3.9c0,1.3-0.1,2.6-0.2,3.9c-0.1,0.6-0.1,1.1-0.1,1.6c0,0.5,0,1-0.1,1.5
	c-0.2,1-0.2,2-0.1,2.9c0.1,0.9,0.1,1.9,0,2.9c0,0.2,0,0.3,0.1,0.4c0,0.1,0.1,0.2,0.1,0.4c0.1,0.7,0.5,0.9,1.3,0.7
	c0.5-0.3,0.9-0.7,1.3-1.1c0.6-1,1.1-2.1,1.5-3.1c0.5-1,0.9-2.1,1.4-3.2c0.5-1.1,0.9-2.2,1.4-3.3c0.8-1.7,1.4-3.3,2-4.8
	c0.6-1.5,1.1-3,1.6-4.4c0-0.4-0.1-0.9-0.1-1.6c0-0.6,0-1.2,0.1-2c0-0.8,0.1-1.5,0.2-2.3c0.2-1,0.4-2.1,0.5-3.2
	c0.1-1.1,0.4-2.1,0.8-3.2c0.5-1.6,1-3.1,1.7-4.6c0.7-1.5,1.4-2.8,2.3-4.2c0.5-0.6,0.9-1.1,1.3-1.7c0.4-0.6,0.8-1.1,1.3-1.5
	c1.6-1.7,3.3-3,5.2-3.8c1.5-0.8,3-1.3,4.4-1.7c0.8-0.2,1.5-0.3,2.3-0.4c0.8-0.1,1.5-0.1,2.3,0c1.7,0,3.3,0.4,4.8,1.1
	c1.8,0.8,3.3,1.8,4.5,2.8c0.7,0.5,1.2,1,1.7,1.5c0.5,0.6,0.9,1.2,1.3,2c0.4,0.8,0.7,1.8,0.8,2.8c0.1,1.4,0,3-0.3,4.6
	c-0.3,2-0.8,3.8-1.5,5.6c-0.5,1.1-1.1,1.9-1.8,2.4c-0.8,0.5-1.5,0.5-2.4,0c-0.8-0.5-1-1.1-0.8-1.8c0-0.3,0-0.6,0.1-0.8
	c0.1-0.3,0.2-0.6,0.3-0.8c0.2-0.5,0.3-1,0.4-1.5c0.1-0.5,0.2-1,0.3-1.5c0.2-0.9,0.3-1.6,0.4-2c0.1-0.9,0-1.9-0.3-3
	c-0.2-0.8-0.4-1.3-0.6-1.7c-0.5-0.8-1.2-1.1-2.3-1.1c-1.5,0-2.7,0.6-3.5,1.7c-0.6,0.8-1.1,1.5-1.5,2.2c-0.5,0.7-0.9,1.5-1.4,2.3
	c-0.3,0.7-0.6,1.3-0.8,1.9c-0.3,0.6-0.5,1.3-0.7,2c-0.2,0.7-0.4,1.3-0.6,2c-0.2,0.7-0.4,1.4-0.6,2.1c-0.2,0.6-0.3,1.1-0.4,1.8
	c0,0.6-0.1,1.2-0.2,1.9c-0.4,1.6-0.6,3.4-0.6,5.5c-0.1,0.5-0.1,1-0.1,1.5c0,0.5,0,1,0,1.5v3.1c0,0.7,0,1.3,0.1,1.9
	c0,0.6,0.1,1.2,0.2,1.9c0.1,1.6,0.5,3.4,1.1,5.5c0.3,1,0.7,2,1.3,3c1,1.3,2.3,1.9,3.9,1.8c0.5-0.1,0.9-0.2,1.3-0.3
	c0.4-0.1,0.8-0.2,1.1-0.4c0.7-0.4,1.3-0.8,1.9-1.1c0.6-0.4,1.2-0.8,1.8-1.3c2-1.8,3.7-3.8,5.2-6.1c0.8-1.3,1.5-2.6,2.3-3.9
	c0.8-1.3,1.4-2.7,2-4.1c0.9-2,1.8-4.2,2.5-6.6l2.1-5.9l0.6-1.7v-5.4c0.1-1.2,0.2-2.4,0.2-3.7c0-1.2,0.1-2.4,0.1-3.7
	c0.1-0.9,0.1-1.9,0.1-2.7c0-0.9,0-1.8,0-2.7c0.1-1.5,0.1-3,0.1-4.4c0-1.5,0-3,0.1-4.6v-4.2c0.1-1.5,0.1-3,0.1-4.4c0-1.4,0-2.9,0-4.4
	c0-1,0-2-0.1-3c0-0.9-0.1-1.9-0.1-3c-0.1-0.2-0.1-0.4-0.1-0.6c0-0.2,0-0.4-0.1-0.6c1-0.3,2-0.5,3-0.6c0.9-0.1,1.9-0.1,3,0.1
	c0.7,0.2,1.5,0.4,2.1,0.5c0.7,0.1,1.3,0.4,2,0.9c1.2,0.7,2.2,1.7,3,3.2c0.4,0.7,0.6,1.3,0.7,2c0.1,0.7,0.1,1.4,0.1,2.2v5.9
	c-0.1,1.5-0.2,3-0.2,4.4c0,1.5-0.1,3-0.1,4.6c-0.1,1.4-0.1,2.8-0.1,4.3c0,1.5,0,2.9-0.1,4.4c0,0.8,0,1.7-0.1,2.6
	c0,0.9-0.1,1.8-0.1,2.7c0,0.5,0.1,0.8,0.3,1c0.2-0.2,0.3-0.4,0.4-0.7c0.1-0.3,0.2-0.5,0.4-0.7c0.8-1.7,1.8-3.2,2.9-4.6
	c1.1-1.4,2.4-2.6,4-3.7c1.2-0.9,2.7-1.6,4.4-2.1c2.1-0.4,4.3-0.4,6.8-0.1c4.6,0.8,8,3.3,10.3,7.5c0.5,0.9,0.9,1.9,1.3,2.8
	c0.4,0.9,0.7,1.9,0.9,3c0.6,2,0.8,4,0.8,6.2c0,0.7,0,1.3,0.1,2c0,0.7,0.1,1.4,0.1,2.1c0,0.5,0,1-0.1,1.5c0,0.6-0.1,1.1-0.1,1.7
	c0,0.5,0,1,0.1,1.5c0,0.5,0.1,1,0.1,1.5c-0.1,1-0.2,2-0.2,3c0,0.9-0.1,1.9-0.1,3v0.1c-0.1,1.5-0.2,3-0.2,4.4c0,1.4-0.1,2.9-0.1,4.4
	c0,0.8,0,1.5,0.1,2.1c0.1,0.7,0.2,1.4,0.3,2.1c0,0.3,0.1,0.5,0.3,0.7c0.4,1,0.9,1.2,1.7,0.4c0.5-0.5,0.8-0.8,0.8-1.1
	c0.3-0.4,0.5-0.7,0.7-1.1c0.2-0.3,0.4-0.7,0.6-1.1c0.8-1.9,1.7-3.8,2.5-5.7c0.8-1.9,1.6-3.8,2.3-5.7c0.1-0.2,0.2-0.4,0.2-0.7
	c-0.1-0.6-0.2-1.3-0.2-1.9c-0.1-1.1-0.1-2.3-0.1-3.5c0-0.7,0-1.3,0-1.9c0-0.6,0-1.2,0.1-1.9c0.1-0.8,0.2-1.5,0.3-2.1
	c0.1-0.7,0.2-1.4,0.4-2.1c0.3-1.4,0.6-2.6,1-3.7c0.5-1.6,1-3.1,1.7-4.5c0.7-1.4,1.5-2.8,2.5-4.1c1.4-2.3,3.3-4.1,5.6-5.5
	c0.5-0.3,1-0.6,1.5-0.8c0.5-0.3,1-0.5,1.5-0.7c0.7-0.2,1.3-0.4,1.9-0.6c0.6-0.2,1.2-0.4,1.9-0.6c0.8-0.2,1.5-0.3,2.4-0.4
	c0.8,0,1.7,0,2.5,0.1c0.8,0.2,1.5,0.4,2.1,0.6c0.7,0.2,1.4,0.5,2.1,1c2.5,1.5,4.5,3.4,5.8,5.8c0.7,0.8,1.1,1.9,1.4,3.2
	c0.2,0.8,0.3,1.7,0.4,2.5c0,0.8,0.1,1.7,0.1,2.5c-0.3,2.8-1.3,5.3-3,7.6c-0.8,1.1-1.6,2.1-2.7,3c-1,0.8-2.1,1.6-3.2,2.4
	c-0.8,0.5-1.7,0.9-2.5,1.4c-0.8,0.5-1.6,0.9-2.5,1.4c-1.3,0.8-2.9,1.5-4.8,2.3c-0.2,0.2-0.3,0.3-0.3,0.4v4.5c0,0.5,0,0.9,0,1.3
	c0,0.4,0,0.8,0.1,1.1l0.4,3c0,0.8,0.1,1.5,0.4,2.1c0.2,0.8,0.4,1.5,0.6,2.2c0.2,0.7,0.5,1.4,1,2c0.5,0.8,1.3,1.4,2.4,1.8
	c0.9,0.3,2,0.2,3.1-0.3c0.8-0.2,1.4-0.5,2-0.8c0.6-0.4,1.2-0.8,1.9-1.3c0.4-0.3,0.7-0.6,1.1-1c0.3-0.4,0.7-0.8,1.1-1.1
	c1.4-1.2,2.7-2.9,3.9-4.9c0.7-0.9,1.2-1.9,1.8-2.8c0.5-0.9,1-1.9,1.5-3c0.4-0.8,0.7-1.5,1-2.2c0.3-0.7,0.6-1.4,1-2.2
	c0.5-1,0.9-2.1,1.2-3.2c0.3-1.1,0.7-2.2,1.1-3.3c0.3-1,0.6-2,0.9-2.9c0.3-0.9,0.7-1.9,1.1-2.9c0,0,0-0.1,0-0.1c0-0.4,0-0.8,0-1.2
	c0-1,0.1-2.1,0.1-3.1V340c0-0.8,0-1.5,0.1-2.4c0-0.8,0.1-1.6,0.1-2.4c-0.1-1-0.2-2-0.2-3c0-0.9-0.1-1.9-0.1-2.8c0-0.2,0-0.3-0.1-0.4
	c0-0.1-0.1-0.2-0.1-0.4c1.3-0.5,2.9-0.7,4.6-0.7c0.6,0,1.1,0,1.7,0.1c0.6,0.1,1.1,0.2,1.7,0.4c2.1,0.8,3.5,1.9,4.4,3.4
	c0.3,0.5,0.5,0.9,0.8,1.4c0.2,0.5,0.4,1,0.6,1.5c0.1,0.1,0.1,0.3,0.1,0.6c0.1,0.6,0.2,1.2,0.3,1.8c0.1,0.6,0.1,1.2,0.1,1.8
	c0,0.9,0,1.9,0,2.7c0,0.9,0,1.8-0.1,2.6l-0.4,4.6c-0.1,0.9-0.2,1.8-0.2,2.7c0,0.8-0.1,1.7-0.2,2.7c-0.1,0.3-0.1,0.6-0.1,0.9
	c0,0.3,0,0.6,0,0.9c-0.1,0.2,0,0.5,0.1,1c0.2-0.6,0.4-1,0.6-1.3c0.4-0.9,0.7-1.9,1-2.7c0.3-0.9,0.7-1.8,1.1-2.7
	c0.2-0.7,0.4-1.3,0.8-2c0.3-0.7,0.6-1.3,0.9-2l2.1-4.2c0.7-1.2,1.3-2.4,2-3.7c0.7-1.2,1.4-2.4,2.2-3.5c0.8-1.3,1.9-2.4,3.5-3.4
	c1.3-0.8,2.8-1.4,4.4-1.8c2-0.5,4-0.6,6.1-0.4c0.6,0,1.1,0,1.7,0.1c0.6,0.1,1.1,0.2,1.7,0.4c2.2,0.8,3.8,2,4.8,3.7
	c0.5,0.8,0.8,1.9,1,3.2c0.1,0.5,0.2,1,0.2,1.5c0,0.5,0,1-0.1,1.5c0,0.5,0,1-0.1,1.5c0,0.5-0.1,1-0.1,1.5c0,0.8,0,1.5,0,2.3
	c0,0.8,0,1.6-0.1,2.5v2.5c0,1.1,0,2.3,0,3.4c0,1.2,0,2.3-0.1,3.4c0,0.6,0,1.2,0,1.8c0,0.6,0,1.2-0.1,1.9c-0.1,0.9-0.2,1.8-0.2,2.7
	c0,0.8-0.1,1.7-0.2,2.7v1.4c-0.1,0.6-0.2,1.1-0.2,1.7c0,0.6-0.1,1.1-0.2,1.5c-0.1,0.6-0.2,1.1-0.2,1.6c0,0.5-0.1,1.1-0.2,1.6
	c-0.1,0.4-0.2,0.7-0.2,1c0,0.3-0.1,0.6-0.1,1c0.1,0.2,0.1,0.4,0.1,0.5c0,0.1,0,0.3,0.1,0.5c0.3,0.8,0.8,0.9,1.7,0.6
	c0.8-0.5,1.3-1.1,1.7-1.8c0.2-0.5,0.4-0.9,0.6-1.4c0.2-0.5,0.4-0.9,0.6-1.4l2.5-5.5c0.3-0.7,0.5-1.3,0.8-1.9c0.2-0.6,0.5-1.3,0.8-2
	c0.4-0.9,0.7-1.9,1.1-2.8c0.3-0.9,0.7-1.9,1.1-3c0.2-0.6,0.4-1.1,0.6-1.8c0.2-0.6,0.4-1.2,0.6-1.9c0.4-1,0.7-2,1-3
	c0.3-0.9,0.6-1.9,1-3c0.2-0.5,0.4-0.9,0.6-1.3c0.2-0.4,0.4-0.9,0.6-1.3c0.4-0.8,0.8-1.2,1.3-1.3c0.5-0.1,1-0.1,1.5,0.1
	C414.1,344,414.7,344.6,414.8,345.8z M322.6,355.5c0.2,0,0.3,0,0.4-0.1c0,0,0.1-0.1,0.2-0.1c0.5-0.2,0.9-0.4,1.3-0.6
	c0.4-0.2,0.9-0.4,1.3-0.6c1.8-0.9,3.4-2.2,4.9-3.7c1.5-1.5,2.6-3,3.4-4.5c0.3-0.5,0.5-1,0.7-1.5c0.2-0.5,0.4-1.1,0.6-1.6
	c0.2-0.9,0.3-1.6,0.3-2.1c-0.1-0.2-0.1-0.5-0.1-1c-0.1-0.7-0.3-1.3-0.7-2c-0.5-0.9-1.1-1.4-2-1.4c-1.1-0.1-2.3,0.3-3.4,1.3
	c-0.3,0.2-0.5,0.4-0.7,0.7c-0.2,0.3-0.4,0.5-0.6,0.7c-0.5,0.8-0.9,1.5-1.4,2.3c-0.5,0.8-0.9,1.5-1.3,2.4c-0.2,0.5-0.4,1-0.6,1.5
	c-0.2,0.5-0.4,1.1-0.6,1.6c-0.4,1-0.7,2.3-1,3.9c-0.3,0.8-0.4,1.5-0.4,2.4c-0.1,0.4-0.2,0.8-0.2,1.1
	C322.8,354.6,322.7,355,322.6,355.5z M118.7,70.2c0.4,0.8,0.7,1.6,1,2.3c0.3,0.8,0.7,1.4,1.1,2.1c0.8,1.1,1.6,2.1,2.6,3
	c0.9,0.9,1.9,1.7,3,2.5c0.7,0.4,1.4,0.8,2.2,1.1c0.8,0.3,1.5,0.6,2.3,0.9c1.3,0.4,2.5,0.5,3.6,0.5c1.1,0,2.2-0.2,3.1-0.8
	c1.6-0.9,2.9-2.4,3.6-4.3c0.4-0.8,0.3-1.6-0.2-2.4c-0.4-0.5-0.9-1-1.7-1.4c-0.7-0.4-1.4-0.5-2-0.5c-0.6,0-1.2,0.3-1.9,1
	c-0.5,0.5-1,0.9-1.6,1.2c-0.5,0.3-1.1,0.6-1.7,0.9c-0.4,0.1-0.9,0.1-1.6-0.2l-0.4-0.4c-0.6-0.6-1.2-1.2-1.6-1.9
	c-0.4-0.7-0.7-1.4-1-2.2c-0.2-0.6-0.4-1.1-0.5-1.7c-0.1-0.5-0.2-1.1-0.4-1.7c-0.3-1.8-0.4-3.5-0.3-5.3c0.1-0.8,0.2-1.5,0.3-2.3
	c0.1-0.7,0.3-1.5,0.4-2.3c0.6-2.6,1.6-5,3-7.2c1.1-1.9,2.4-3.5,3.9-5c1.4-1.5,3-2.9,4.6-4.2c1.6-1.3,3.5-2.4,5.7-3.3
	c0.4-0.2,0.9-0.4,1.3-0.6c0.4-0.2,0.9-0.3,1.3-0.5l1.9-0.6c0.2,0,0.4,0,0.5-0.1c1.4-0.4,2.9-0.6,4.5-0.8c1.1-0.1,2.1,0,2.8,0.3
	c1.3,0.5,2.4,1.2,3.2,2.1c1.1,1.2,1.9,2.6,2.4,4.3c0.1,0.4,0.3,0.7,0.4,1.1c0.1,0.4,0.2,0.8,0.2,1.1c0.1,0.8,0.1,1.5,0.1,2.3
	c0,0.7-0.1,1.5-0.2,2.3c-0.1,1.4-0.3,2.7-0.3,4c-0.1,1.3-0.2,2.6-0.3,3.9c-0.1,1.1-0.1,2.1-0.2,3.2c-0.1,1-0.2,2.1-0.3,3.1
	c0,0.4,0,0.8-0.1,1.2c0,0.4-0.1,0.8-0.1,1.2c-0.1,1-0.3,2-0.3,2.8c-0.1,0.9-0.2,1.8-0.3,2.8c-0.1,0.9-0.2,1.9-0.3,2.8
	c0,0.9-0.1,1.9-0.3,2.8c0,0.4,0,0.7-0.1,1c0,0.3-0.1,0.7-0.2,1c-0.1,0.8-0.1,1.6-0.2,2.4c-0.1,0.8-0.2,1.7-0.3,2.5
	c-0.1,0.7-0.2,1.4-0.3,2.1c0,0.7-0.1,1.4-0.3,2.2c0,0.4-0.1,0.9-0.2,1.6c-0.1,0.7-0.1,1.4-0.2,2.1c-0.1,0.7-0.2,1.4-0.3,2.2
	l-0.6,4.8c-0.1,0.6-0.3,1.3-0.3,2c-0.1,0.7-0.2,1.3-0.3,2c-0.1,0.7-0.3,1.4-0.4,2.1c-0.1,0.7-0.2,1.4-0.4,2.1
	c-0.1,0.6-0.1,1.3-0.2,1.9c-0.1,0.6-0.2,1.3-0.3,1.9c-0.1,0.9-0.3,1.8-0.4,2.7c-0.1,0.9-0.2,1.8-0.4,2.8c-0.2,1-0.3,1.9-0.2,2.7
	c0.2,1.3,0.9,2,2,2.3c0.6,0.1,1.1,0.2,1.6,0.3c0.5,0,1,0,1.6-0.1c2-0.4,3.7-1.3,5-2.7c0.4-0.5,0.7-1,1.1-1.6
	c0.4-0.5,0.7-1.1,1.1-1.7c1.1-1.9,2.1-3.7,3.1-5.6c1-1.9,1.9-3.7,2.8-5.6c0.9-1.6,1.7-3.3,2.5-5c0.8-1.7,1.6-3.4,2.4-5
	c0.6-1.3,1.2-2.6,1.8-3.9c0.6-1.3,1.3-2.5,1.8-3.8c0.6-1.3,1.3-2.6,1.9-3.9c0.6-1.3,1.2-2.6,1.8-3.9c0.9-1.9,1.8-3.7,2.7-5.6
	c0.9-1.9,1.8-3.7,2.7-5.6c1.5-2.9,3-5.9,4.4-8.8c0.2-0.4,0.4-0.8,0.7-1.2c0.2-0.4,0.5-0.8,0.7-1.2c0.1,0.1,0.1,0.1,0.2,0.1
	c0,0.6,0,1-0.1,1.3c-0.1,0.7-0.2,1.4-0.3,2.1c0,0.7-0.1,1.3-0.3,2c-0.1,0.8-0.3,1.6-0.4,2.3c-0.1,0.8-0.2,1.5-0.4,2.3
	c-0.1,0.6-0.2,1.3-0.3,1.9c-0.1,0.6-0.2,1.2-0.3,1.9c-0.1,0.8-0.3,1.6-0.3,2.4c-0.1,0.8-0.1,1.6-0.2,2.4c-0.1,1.3-0.3,2.6-0.3,3.8
	c-0.1,1.3-0.1,2.5-0.2,3.8c-0.1,1.7-0.1,3.4-0.1,5.1c0,1.7,0.1,3.3,0.2,5c0.1,1.2,0.2,2.5,0.3,3.8c0.1,1.3,0.2,2.5,0.4,3.8
	c0.1,1,0.3,2,0.4,3c0.1,1,0.3,2,0.4,3c0.1,0.9,0.3,1.8,0.5,2.7c0.2,0.9,0.4,1.8,0.6,2.7c0.4,1.4,0.9,2.8,1.4,4.1
	c0.5,1.3,1.1,2.6,1.7,3.9c1.8,3.6,4,6.8,6.8,9.7c1.9,1.9,3.8,3.2,5.8,4c0.4,0.1,0.7,0.3,1.1,0.4c0.4,0.1,0.8,0.2,1.2,0.2
	c0.6-0.1,1.3-0.4,1.8-1.1c0.6-0.6,0.7-1.4,0.3-2.1c-0.1-0.4-0.3-0.9-0.5-1.3c-0.2-0.4-0.4-0.8-0.8-1.2c-2-2.6-3.6-5.4-4.7-8.4
	c-0.6-1.4-1.1-2.7-1.4-4.1c-0.4-1.4-0.8-2.8-1.1-4.2c-0.6-2.2-1-4.5-1.3-6.8c-0.1-1.2-0.3-2.4-0.4-3.6c-0.1-1.2-0.3-2.4-0.4-3.6
	c-0.1-1.4-0.2-2.9-0.2-4.3c0-1.4,0-2.9-0.1-4.3c-0.1-0.5-0.1-1-0.1-1.5c0-0.5,0.1-1,0.1-1.6c0.1-1.4,0.1-2.8,0.2-4.1
	c0-1.3,0.1-2.7,0.1-4c0.1-0.5,0.1-1,0.1-1.4c0-0.5,0-0.9,0.1-1.4c0.1-1,0.2-1.9,0.3-2.8c0.1-0.9,0.2-1.8,0.3-2.8
	c0.1-0.7,0.1-1.4,0.2-2.1c0.1-0.7,0.2-1.4,0.3-2.1c0.1-0.8,0.3-1.5,0.4-2.3c0.1-0.7,0.2-1.5,0.4-2.3l0.6-3.9c0.2-1,0.4-2,0.7-3.1
	c0.2-1,0.5-2.1,0.8-3.2c0.4-1.2,0.7-2.5,1-3.7c0.3-1.3,0.6-2.5,1-3.8c0.4-1.7,0.5-3.3,0.2-4.7c-0.3-1.4-1.1-2.6-2.4-3.4
	c-0.9-0.6-2-1-3.3-1.2c-0.4,0-0.7,0-1,0c-0.3,0-0.6,0.1-1,0.2c-0.6,0.1-1.2,0.4-1.6,0.8c-0.4,0.4-0.8,0.9-1.1,1.4
	c-0.5,0.9-1,1.8-1.5,2.7c-0.9,1.4-1.7,2.9-2.6,4.4c-0.9,1.5-1.8,3-2.7,4.4c-1.3,2.2-2.6,4.4-3.9,6.7c-1.3,2.2-2.6,4.4-3.9,6.7
	c-1.1,2-2.3,4-3.4,6c-1.1,2-2.2,4-3.3,6.1c-0.9,1.6-1.8,3.3-2.7,5c-0.9,1.7-1.8,3.3-2.7,5c-0.9,1.6-1.7,3.3-2.5,5
	c-0.8,1.7-1.7,3.3-2.5,5c-0.1,0.2-0.3,0.4-0.4,0.7c-0.1,0.3-0.2,0.5-0.4,0.7h-0.1V93c0.1-1.1,0.3-2.1,0.4-3.2
	c0.1-1.1,0.3-2.1,0.4-3.2c0.1-1.3,0.3-2.6,0.4-3.9c0.1-1.3,0.3-2.7,0.4-4c0.1-1.4,0.3-2.7,0.4-4c0.1-1.3,0.3-2.7,0.4-4
	c0.1-0.9,0.1-1.7,0.2-2.6c0.1-0.9,0.1-1.7,0.2-2.6c0.1-0.4,0.1-0.7,0.2-1.1c0-0.4,0.1-0.7,0.1-1.1c0.1-1.2,0.3-2.4,0.3-3.6
	c0.1-1.2,0.2-2.4,0.3-3.6c0.1-0.4,0.1-0.7,0.1-1c0-0.3-0.1-0.7-0.1-1c0.1-1,0.1-1.9,0.2-2.8c0-0.9,0.1-1.8,0.1-2.8v-3.4
	c0-0.8,0-1.6-0.1-2.4c0-0.8-0.2-1.6-0.4-2.4c-0.5-2-1.5-3.8-2.9-5.3c-1-1-2.1-1.8-3.4-2.5c-1.3-0.7-2.6-1.2-4-1.6
	c-1.6-0.4-3.3-0.8-4.9-1c-1.1-0.1-2.3-0.2-3.4-0.3c-1.1-0.1-2.3-0.1-3.4,0.1c-0.9,0.1-1.8,0.3-2.7,0.3c-0.9,0.1-1.7,0.2-2.6,0.3
	c-1,0.2-2,0.5-3.1,0.8c-1,0.3-2.1,0.7-3.1,1c-1.9,0.7-3.8,1.6-5.7,2.8c-0.8,0.4-1.5,0.9-2.2,1.4c-0.7,0.5-1.4,1.1-2.1,1.7
	c-0.6,0.6-1.3,1.2-1.9,1.8c-0.6,0.6-1.3,1.3-1.8,2c-2.2,2.4-4.1,5.2-5.6,8.2c-1,2.3-1.7,4.5-2.1,6.7c-0.1,0.6-0.2,1.1-0.3,1.7
	c0,0.5-0.1,1.1-0.2,1.7c-0.1,1.8-0.1,3.6,0,5.3C117.7,66.9,118.1,68.6,118.7,70.2z M220.2,88.7c0.1,0.8,0.2,1.7,0.4,2.5
	c0.1,1,0.3,2,0.5,3c0.2,1,0.5,2,0.8,3c0.7,3.1,1.9,6.2,3.5,9c1.6,2.9,3.5,5.5,5.7,7.8c1.4,1.4,2.9,2.7,4.5,3.9
	c1.6,1.2,3.3,2.2,5.2,3c1.2,0.5,2.5,0.9,3.8,1.2c1.3,0.3,2.6,0.5,4,0.5c1.2,0,2.4-0.1,3.6-0.2c1.2-0.1,2.4-0.4,3.6-0.8
	c2.9-0.9,5.4-2.1,7.5-3.8c1.6-1.1,3.1-2.4,4.4-3.8c1.3-1.4,2.5-2.9,3.5-4.6c0.9-1.4,1.8-2.8,2.6-4.2c0.8-1.4,1.5-2.8,2.3-4.3
	c0.6-1.4,1.3-2.7,1.8-4.1c0.6-1.4,1.1-2.8,1.6-4.2c0.2-0.6,0.4-1.3,0.7-2c0.2-0.7,0.4-1.4,0.6-2.2c0.7-2.2,1.4-4.5,1.9-6.8
	c0.2-0.9,0.4-1.7,0.5-2.5c0.1-0.8,0.3-1.7,0.4-2.5c0.1-0.9,0.3-1.8,0.4-2.7c0.1-0.9,0.2-1.8,0.4-2.7c0.1-1,0.1-1.9,0.2-2.8
	c0-0.9,0.1-1.8,0.1-2.8h-0.1c0-0.6,0-1.1,0.1-1.6c0-0.5,0-1-0.1-1.6c-0.1-1.1-0.2-2.3-0.3-3.4c-0.1-1.1-0.3-2.3-0.5-3.3
	c-0.1-0.9-0.3-1.8-0.5-2.7c-0.2-0.9-0.4-1.7-0.6-2.6c-0.4-1.2-0.7-2.4-1.1-3.5c-0.4-1.1-0.8-2.2-1.3-3.3c-0.6-1.4-1.2-2.9-1.9-4.3
	c-0.7-1.4-1.5-2.8-2.5-4.1c-1.3-1.9-2.8-3.5-4.4-5c-1.6-1.5-3.5-2.7-5.6-3.6c-1-0.4-2-0.7-3-0.9c-1-0.2-2-0.4-3.1-0.5
	c-0.9-0.1-1.7,0-2.6,0.1c-0.9,0.1-1.7,0.3-2.6,0.5c-1.9,0.6-3.6,1.4-4.9,2.5c-1.2,1-2.3,2.1-3.4,3.3c-1,1.2-2,2.5-2.7,3.8
	c-1.3,2.3-2.5,4.7-3.5,7.1c-0.6,1.4-1.1,2.7-1.6,4.1c-0.5,1.4-0.9,2.8-1.2,4.2c-0.1,0.5-0.3,1-0.3,1.4c-0.1,0.4-0.2,0.9-0.3,1.4
	l-1,5.2c-0.1,0.6-0.3,1.3-0.3,1.9c-0.1,0.6-0.1,1.2-0.2,1.9c-0.3,1.9,0,3.8,0.9,5.7c0.4,0.9,1.1,1.4,2,1.5c1.1,0,1.8-0.5,2.3-1.4
	c0.6-1,1-2,1.3-3.1c0.3-1.1,0.6-2.2,0.7-3.3c0.1-0.6,0.1-1.1,0.2-1.7c0-0.6,0.1-1.1,0.3-1.7c0.2-1.1,0.5-2.2,0.8-3.3
	c0.3-1,0.7-2.1,1-3.2c0.4-1.2,0.9-2.4,1.4-3.6c0.5-1.2,1.1-2.4,1.7-3.6c0.4-0.9,0.9-1.7,1.3-2.5c0.5-0.8,1-1.6,1.6-2.4
	c0.8-1,1.7-1.9,2.6-2.8c1-0.9,2.1-1.5,3.4-1.9c1.9-0.6,3.6-0.4,5.2,0.4c1.4,0.7,2.5,1.8,3.3,3.3c0.8,1.4,1.4,2.9,2,4.5
	c0.5,1.5,1,3.1,1.3,4.8c0.1,0.6,0.3,1.2,0.4,1.8c0.1,0.6,0.3,1.2,0.4,1.8c0.1,0.5,0.2,1,0.3,1.4c0,0.5,0.1,0.9,0.3,1.4
	c0.1,0.7,0.1,1.4,0.2,2c0,0.6,0.1,1.3,0.3,1.9c0,0.4,0,0.7,0.1,1.1c0,0.4,0.1,0.8,0.1,1.2c0.1,1.2,0.3,2.4,0.3,3.6
	c0.1,1.2,0.1,2.4,0.2,3.6c0.1,1.1,0.1,2.3,0.1,3.4c0,1.1-0.1,2.2-0.2,3.3c-0.1,1-0.1,2-0.2,2.8c0,0.9-0.1,1.8-0.3,2.7
	c-0.1,0.8-0.1,1.6-0.2,2.3c-0.1,0.8-0.2,1.5-0.3,2.3c-0.1,0.7-0.3,1.4-0.4,2.1c-0.1,0.7-0.2,1.4-0.4,2.1c-0.1,0.8-0.3,1.6-0.5,2.4
	c-0.2,0.8-0.4,1.6-0.6,2.4c-0.4,1.4-0.8,2.7-1.2,4c-0.5,1.3-1,2.6-1.6,3.9c-0.5,1-1,2-1.5,3c-0.5,1-1,2-1.6,3
	c-1,1.4-2.1,2.7-3.3,3.9c-1.2,1.1-2.6,2.1-4.2,2.9c-1.4,0.7-2.8,1.1-4.2,1.1c-2.5,0.1-4.8-0.8-6.8-2.7c-1.4-1.4-2.6-3-3.6-4.7
	c-1-1.7-1.9-3.5-2.7-5.3c-0.6-1.4-1-2.9-1.4-4.3c-0.4-1.4-0.7-2.9-1.1-4.3c-0.2-0.8-0.4-1.6-0.6-2.4c-0.2-0.8-0.3-1.6-0.5-2.4
	c-0.1-0.8-0.3-1.5-0.3-2.2c-0.1-0.7-0.2-1.4-0.3-2.1c-0.4-1.9-0.6-3.8-0.6-5.7c-0.3-2-0.5-4.1-0.6-6.2c-0.1-1.4-0.1-2.9-0.1-4.3
	c0-1.5,0-2.9-0.1-4.3c0-0.3,0-0.6,0-0.9c0-0.3,0-0.6,0.1-1c0.1-0.9,0.2-1.8,0.3-2.7c0.1-0.9,0.2-1.8,0.3-2.8
	c0.1-0.6,0.1-1.1,0.2-1.7c0.1-0.6,0.2-1.1,0.3-1.7c0.3-1.9,0.7-3.9,1.3-5.9c0.4-2.1,0.6-4.1,0.5-6c-0.1-1.2-0.7-2.1-1.6-2.6
	c-0.9-0.5-1.8-0.7-2.7-0.5c-0.5,0.1-0.9,0.3-1.3,0.5c-0.4,0.3-0.7,0.6-1.1,1c-1.4,1.6-2.4,3.5-3,5.6c-0.4,1.2-0.8,2.4-1.2,3.6
	c-0.4,1.2-0.8,2.4-1.1,3.6c-0.3,1-0.5,2-0.8,3c-0.2,1-0.4,2-0.6,3c-0.1,0.6-0.3,1.2-0.4,1.8c-0.1,0.6-0.2,1.3-0.4,1.8
	c-0.3,1.6-0.5,3.1-0.6,4.7c-0.4,2.1-0.6,4.1-0.6,6c-0.1,2.1-0.1,4.3,0,6.3c0,2,0.1,4,0.3,5.9C220,87,220.1,87.9,220.2,88.7z
	 M80.2,146.9c-4.5,3.5-9.7,6.7-15.8,9.6c-2.8,1.5-5.9,2.8-9.3,3.8c-3,0.9-6.5,1.7-10.7,2.4s-8.9,0.8-14.1,0.6
	c-6.3-0.3-11.8-2-16.5-5c-4.7-3.1-7.6-7.4-8.7-13c-0.5-7.5,2.1-14.2,8-20c2.5-2.5,5.9-5,10-7.3c4.1-2.4,9.4-4.5,15.8-6.3
	c6.4-1.8,14.1-3.3,23-4.4s19.4-1.7,31.6-1.6c1-5.8,1.3-10.9,0.8-15.5c-0.5-4.6-1.7-7.9-3.4-10c-0.6-0.7-0.7-1.5-0.4-2.3
	c0.3-0.8,0.9-1.3,1.7-1.6c1.2-0.3,2.5-0.6,4-0.8c1.5-0.2,2.9-0.2,4.2,0c1.3,0.3,2.7,0.8,3.9,1.6c1.3,0.8,2.3,2,3.1,3.6
	c0.4,0.6,0.7,1.5,1,2.6c0.3,1.1,0.5,2.1,0.7,3c0.2,1.8,0.2,4.4,0.1,7.9c-0.2,3.5-0.8,7.5-2,12.1c2.5,0.2,5.6,0.6,9.4,1.3
	c3.8,0.7,7.7,1.6,11.9,2.8c4.2,1.2,8.3,2.7,12.4,4.6c4.1,1.9,7.8,4.2,11.1,7.1c3.3,2.8,5.9,6.1,7.9,10c2,3.8,3,8.3,2.8,13.3
	c-0.1,2.9-0.5,5.6-1.2,8.2c0.7,1.1,1.6,2.2,2.7,3.2c1.9,1.6,4.4,3,7.5,4.2c3.1,1.2,7.1,1.8,11.8,2.1c1.4,0.1,2.8,0.1,4.4,0
	c1.6-0.1,3.2-0.2,4.9-0.3c1.1-4.9,2.2-9.5,3.4-13.8c1.2-4.3,2.4-8.1,3.6-11.5c0.5-1.2,1.5-1.8,2.8-1.8c1.1,0,2.4,0.3,4,0.7
	c1.6,0.4,3.1,1.3,4.5,2.7c0.7,0.6,1.2,1.4,1.4,2.3c0.2,0.9,0.1,1.8-0.2,2.7c-0.6,1.6-1.2,3.9-2,6.7c-0.8,2.9-1.7,6.2-2.6,10.1
	c4.2-0.7,8.6-1.6,13-2.5c-0.5-1.3-0.8-2.7-0.6-4.1c0.2-1.5,0.7-2.8,1.5-3.7c0.9-0.9,1.9-1.6,3.1-2c1.2-0.4,2.4-0.6,3.7-0.6
	c1.3,0,2.5,0.1,3.6,0.2c0.9,0.1,1.6,0.6,2.2,1.3c0.6,0.7,0.8,1.5,0.7,2.5c-0.2,0.9-0.2,2-0.1,3.2c1.3-0.3,2.5-0.6,3.8-0.9
	c5.1-1.2,10-2.4,14.8-3.6c2.3-0.6,4.6-1.1,6.7-1.6c0.1-0.2,0.1-0.5,0.2-0.7c3.4-14.3,7.8-26.3,12.9-36c5.2-9.7,10.7-17.4,16.6-23
	c5.9-5.6,11.8-9.3,17.6-11c5.9-1.7,11.3-1.8,16.1-0.1c3.2,1.1,6,3,8.2,5.7c2.2,2.7,3.8,6,4.9,9.8c1,3.8,1.6,8.1,1.5,12.7
	c0,4.7-0.6,9.4-1.8,14.2c-1.2,4.8-3,9.7-5.3,14.5c-2.3,4.8-5.3,9.3-8.9,13.5c-7.3,8.6-15.6,15.4-25.1,20.6
	c-9.5,5.1-19.4,7.9-29.8,8.4c-0.6,2.8-1.3,6.8-2,11.9c-0.7,5.2-1.3,11.3-1.8,18.5c0.8-3.2,1.8-6.4,3-9.6c1.2-3.2,2.6-6.2,4.1-8.8
	c1.5-2.6,3.2-4.8,5.2-6.5c1.9-1.8,4-2.7,6.2-2.9c1.3-0.1,2.5-0.1,3.8,0.2c1.1,0.2,2.1,0.7,3.3,1.4c1.1,0.7,2.1,1.8,2.9,3.4
	c1.2,2.5,1.9,5.2,1.9,8.2c0,3-0.2,6-0.6,8.8c-0.1,1-0.3,1.9-0.4,2.9c-0.1,0.8-0.3,1.6-0.5,2.5c-0.2,0.9-0.3,1.8-0.5,2.5
	c-0.4,2.1-0.7,4.1-1,6c-0.3,1.9-0.4,3.6-0.4,5.1c0,1.5,0.2,2.7,0.4,3.7c0.2,0.9,0.7,1.5,1.4,1.6c1.3,0.3,2.6-0.5,4-2.2
	c1.4-1.7,2.7-3.8,4-6.2c1.3-2.4,2.4-4.9,3.5-7.3c0.4-1.1,0.8-2,1.2-2.8c1-5.8,2.6-12,4.8-18.6c0.4-1.5,1.3-2.2,2.8-1.9
	c1.4,0.1,3,0.3,4.8,0.8c1.9,0.5,3.6,1.3,5.1,2.4c0.6,0.5,1,1.1,1.2,1.9c0.3,0.7,0.3,1.5,0,2.3c-0.4,1.3-0.9,3.2-1.6,5.5
	c-0.7,2.3-1.4,4.8-2,7.5c-0.7,2.7-1.3,5.4-1.9,8.1c-0.6,2.7-1.1,5.2-1.3,7.5c-0.3,2.3-0.3,4.2-0.1,5.7c0.2,1.5,0.8,2.3,1.6,2.5
	c1.2,0.3,2.5-0.5,3.9-2.3c1.3-1.8,2.6-4,3.9-6.7c1.1-2.3,2.1-4.7,3.1-7.2c0.2-3,0.6-5.9,1.3-8.8c0.8-3.8,1.8-7.3,2.9-10.6
	c1.1-3.3,2-5.8,2.7-7.4c0.3-1.1,1.3-1.6,2.8-1.8c1.4,0.1,3,0.2,4.9,0.4c1.9,0.2,3.6,0.8,5.2,1.6c1.6,1,2.1,2.3,1.6,3.9
	c-0.4,1-1,2.4-1.6,4.1c-0.6,1.7-1.3,3.7-1.9,5.8c-0.7,2.2-1.3,4.4-2,6.8c-0.6,2.4-1.2,4.8-1.6,7.2c1.3-3.2,3-7,5-11.2
	c2-4.2,4.3-8.2,6.9-11.9c2.6-3.7,5.4-6.8,8.4-9.3c3-2.5,6.2-3.6,9.5-3.4c2.8,0.2,5,1,6.5,2.3c1.5,1.3,2.6,2.9,3.3,4.7
	c0.6,1.9,1,3.9,1,6.2c0,2.3-0.2,4.5-0.6,6.8c-0.4,2.3-0.9,4.4-1.5,6.6c-0.6,2.1-1,3.9-1.4,5.5c-2.2,6.1-4,11.7-5.2,16.6
	c-0.6,2.1-1.1,4.2-1.6,6.3c-0.5,2.1-0.8,4-1.1,5.7c-0.2,1.7-0.3,3.2-0.1,4.4c0.1,1.2,0.5,2,1.1,2.3c0.9,0.5,2.1,0.2,3.6-0.9
	c1.6-1.1,3.3-2.9,5.2-5.1c1.9-2.3,3.9-4.9,6-8c2-3,4-6.1,5.9-9.3c1.6-2.6,3-5.5,4.3-8.5c1.3-3,2.2-5.3,2.8-6.7c0.4-0.9,1-1,1.8-0.5
	c0.1,0.1,0.3,0.3,0.7,0.5c0.8,0.9,1.1,1.9,0.7,2.9c-0.2,0.8-0.5,1.8-0.9,3c-0.4,1.2-0.9,2.7-1.5,4.2c-0.6,1.6-1.3,3.2-2.1,4.9
	c-0.8,1.7-1.7,3.4-2.6,5c-3,5.5-6.1,10.3-9.4,14.4c-1.4,1.8-2.9,3.5-4.5,5.1c-1.6,1.6-3.2,3-4.8,4.1c-1.5,1-3,1.8-4.4,2.3v7.7h3.7
	c0.7,0,1.3,1,1.3,2.1v4.4c9.8-4,31.1-13.3,31.1,5.8c0,18.8-21.6,6.8-31.1,2.5v6.3c0,1.2-0.6,2.1-1.3,2.1h-3.7v8.7
	c0,1.2-0.6,2.1-1.3,2.1H222.1c-0.7,0-1.3-1-1.3-2.1v-8.7h-3.4c-0.7,0-1.3-1-1.3-2.1V280c-9.8,4-31.1,13.3-31.1-5.8
	c0-18.8,21.6-6.8,31.1-2.5v-6.3c0-1.2,0.6-2.1,1.3-2.1h3.4v-8.7c0-1.2,0.6-2.1,1.3-2.1h141.7c-0.3-0.5-0.6-0.9-0.8-1.5
	c-1.2-2.8-2-6-2.3-9.4c-0.3-3.5-0.3-6.9,0.1-10.3c0.3-3.4,0.7-6.1,1.1-7.9c1-4.2,2.1-8.3,3.4-12.2c1.3-3.9,2.5-7.5,3.6-10.6
	c1.1-3.1,1.9-5.8,2.4-7.9c0.5-2.1,0.4-3.5-0.2-4.2c-0.6-0.5-1.2-0.6-1.9-0.3c-0.7,0.3-1.5,0.7-2.3,1.1c-0.9,0.5-1.8,1.3-2.6,2.2
	c-2.1,2.3-4.2,5.1-6.3,8.4c-2,3.3-3.9,6.6-5.5,10c-1.7,3.4-3.1,6.7-4.4,9.8c-1.3,3.1-2.3,5.8-3.1,7.9c-0.1,0.2-0.3,0.5-0.6,1
	c-0.3,0.5-0.7,0.9-1.2,1.4c-0.5,0.5-1.2,0.8-2,1.1c-0.8,0.3-1.8,0.4-3,0.4c-1.9-0.1-3.4-0.6-4.4-1.4c-1-0.9-1.7-1.6-2.2-2.2
	c-0.5-0.8-0.8-1.7-1.2-2.7c-0.4,0.7-0.7,1.5-1.1,2.2c-1.2,2.3-2.6,4.4-4.1,6.3c-1.5,1.9-3.1,3.4-4.9,4.5c-1.7,1.1-3.6,1.6-5.5,1.4
	c-3.2-0.2-5.7-1.7-7.5-4.3c-1.8-2.6-3-6.1-3.4-10.5c-0.1-0.9-0.1-1.9-0.2-2.8c-0.3,0.7-0.7,1.3-1,2c-1.2,2.1-2.5,4-3.9,5.7
	c-1.4,1.7-3,3.1-4.7,4.1c-1.7,1-3.5,1.4-5.4,1.2c-2.8-0.2-5.1-1.4-6.8-3.6c-1.7-2.2-3-5.2-3.7-8.8c-0.7-3.7-0.9-8-0.6-12.9
	c0.3-4.9,1.2-10.3,2.6-16c0.5-2.5,0.5-4.1-0.1-4.7c-0.5-0.3-0.9-0.4-1.1-0.3l-0.6,0.3c-1.2,0.9-2.4,2.3-3.5,4.1
	c-1.1,1.8-2.1,3.9-3,6.3c-0.9,2.4-1.8,4.9-2.7,7.6c-0.8,2.7-1.6,5.4-2.3,8c-1.6,6.3-3.1,13.2-4.3,20.5l-0.1,0
	c0.1,2.1-0.9,3.5-3.1,4.1c-1.4,0.3-2.6,0.2-3.7-0.3c-1.1-0.5-2-1.1-2.6-1.6c-0.8-0.6-1.3-1.5-1.5-2.7c-0.1-1.4-0.3-3.6-0.5-6.7
	c-0.2-2.4-0.2-5.4-0.2-8.9c-0.4,0.7-0.7,1.5-1.2,2.2c-1.7,3.1-3.7,5.7-6.1,8c-2.4,2.3-5.1,3.3-8.1,3.2c-4.3-0.1-7.9-1.3-11-3.5
	c-1.3-0.9-2.5-2.2-3.7-3.7c-1.1-1.6-2.1-3.5-2.9-5.7c-0.3-0.8-0.5-1.7-0.7-2.6c-0.8,1.9-1.7,3.8-2.6,5.7c-1.3,2.6-2.7,4.9-4.2,6.9
	c-1.5,2.1-3.2,3.7-5,5c-1.8,1.3-3.6,1.8-5.5,1.6c-2.1-0.3-4-1.4-5.7-3.3c-1.5-1.7-2.9-4.3-4.2-7.9c-0.7-2-1.3-4.5-1.7-7.5
	c-0.5,1.1-1.1,2.3-1.7,3.4c-1.2,2.3-2.6,4.4-4.1,6.3c-1.5,1.9-3.1,3.4-4.9,4.5c-1.7,1.1-3.6,1.6-5.5,1.4c-3.2-0.2-5.7-1.7-7.5-4.3
	c-1.8-2.6-3-6.1-3.4-10.5c-0.4-4.4-0.2-9.7,0.8-15.7c1-6.1,2.7-12.6,5-19.7c0.4-1.5,1.3-2.2,2.8-1.9c1.4,0.1,3,0.3,4.8,0.8
	c1.9,0.5,3.6,1.3,5.1,2.4c0.6,0.5,1,1.1,1.2,1.9c0.3,0.7,0.3,1.5,0,2.3c-0.4,1.3-0.9,3.2-1.6,5.5c-0.7,2.3-1.4,4.8-2,7.5
	c-0.7,2.7-1.3,5.4-1.9,8.1c-0.6,2.7-1.1,5.2-1.4,7.5c-0.3,2.3-0.3,4.2-0.1,5.7c0.2,1.5,0.8,2.3,1.6,2.5c1.2,0.3,2.5-0.5,3.9-2.3
	c1.3-1.8,2.7-4,3.9-6.7c1.3-2.7,2.5-5.5,3.6-8.4c0.1-0.3,0.2-0.6,0.3-0.8c-0.1-5.1,0.2-10.7,0.8-16.8c0.8-7.2,1.8-14.4,3.2-21.6
	c-7.8,0.7-14.3,0.7-19.6-0.1c-5.3-0.8-9.7-2-13.1-3.6c-0.8-0.4-1.6-0.8-2.4-1.2c-2.3,3.3-5,6.2-8.1,8.7c-4,3.3-8.4,6-13.2,8.1
	c-4.8,2.1-9.5,3.7-14,4.8c3.9,1,7.9,2.6,12,4.5c4.1,2,7.7,4.5,10.9,7.7c3.2,3.1,5.6,7,7.3,11.6c1.7,4.6,2.1,10.1,1.2,16.4
	c-1,7-2.9,12.8-5.7,17.3c-2.8,4.5-6.2,8.1-10,10.8c-3.9,2.7-8,4.6-12.4,5.7c-4.4,1.1-8.7,1.7-12.8,1.8c-4.1,0.1-7.9-0.1-11.4-0.7
	c-3.5-0.5-6.2-1.1-8.1-1.8c-4-1.2-7.6-3.1-10.7-5.4c-2.6-2.1-4.9-4.7-6.8-8.1c-1.9-3.3-2.5-7.6-1.8-12.8c0.5-3.8,1.4-6.9,3-9.3
	c1.5-2.5,3.3-4.4,5.3-5.9c2-1.5,4.1-2.6,6.3-3.4c2.2-0.7,4.3-1.2,6.2-1.5c0.1-10.3,1-22.6,2.7-37c1.7-14.4,5-30.8,9.7-49.2
	c0.2-1.2,0.8-2.1,1.7-2.9c0.9-0.8,1.9-1.2,3.1-1.4c1.4-0.1,2.7-0.1,4,0c1.3,0.2,2.6,0.7,3.8,1.6c1.9,1.5,2.5,3.4,1.8,5.5
	c-0.9,3.4-2.4,9.5-4.3,18.4c-1.9,8.9-3.6,19.8-4.9,32.9c3.9-0.8,8-2.2,12.4-4.1c4.4-1.9,8.3-4.4,11.8-7.5c3.5-3,6.4-6.7,8.6-11
	c1.2-2.3,2-4.7,2.4-7.3c0-0.4,0-0.8,0.1-1.1c0-0.2,0.1-0.4,0.2-0.6c0.2-1.8,0.2-3.7,0.1-5.6c-0.3-3.8-1.3-7.2-3-10.1
	c-1.7-2.9-3.7-5.5-6.2-7.6c-2.5-2.1-5.2-4-8.3-5.5c-3-1.5-6-2.7-9-3.7c-3-1-5.8-1.7-8.4-2.2c-2.6-0.5-4.9-0.9-6.7-1.2
	c-1.3,3.7-3.1,7.6-5.2,11.5c-2.2,4-4.9,7.9-8.2,11.7C88.6,139.7,84.7,143.4,80.2,146.9z M120.2,193.4c-3.6-1.3-6.9-2.3-9.8-2.9
	c-0.2,3.4-0.4,6.8-0.6,10.4c-0.2,3.5-0.2,7.1-0.2,10.8c2.3,0.6,4.5,1.5,6.6,2.7c2.1,1.2,4,2.7,5.8,4.5c1.4,1.5,2.3,3.4,2.9,5.6
	c0.5,2.2-0.1,4.2-1.8,6c-1.2,1.3-2.9,2.1-5.1,2.5c-1.4,0.1-2.2-0.4-2.5-1.7c-1-3.5-2.9-6.4-5.7-8.7c0,3.3,0.2,6.6,0.4,10.1
	c0.2,3.4,0.4,6.8,0.8,10.2c0.1,1.4-0.2,2.6-1.1,3.8c-0.9,1.2-2,1.9-3.4,2.3c-1.3,0.2-2.6,0.3-4.1,0.3c-1.5-0.1-2.7-0.5-3.9-1.2
	c-0.8-0.4-1.4-1-1.8-1.8c-0.5-0.7-0.8-1.5-0.9-2.3c-0.3-2-0.7-5-1.1-9.1c-0.5-4.1-0.7-9.3-0.8-15.7c-1.4,0.2-2.8,0.6-4.3,1
	c-1.5,0.5-3,1.2-4.3,2.1c-1.3,0.9-2.5,2.1-3.5,3.6c-1,1.5-1.7,3.2-2.1,5.4c-0.6,3.7-0.4,6.7,0.6,9.2c1.1,2.5,2.4,4.5,4.1,6.1
	c1.7,1.6,3.4,2.9,5.3,3.7c1.9,0.9,3.3,1.5,4.2,1.8c1.2,0.4,3.1,0.8,5.7,1.1c2.6,0.3,5.4,0.4,8.6,0.2c3.2-0.1,6.5-0.7,10-1.7
	c3.4-1,6.6-2.5,9.6-4.7c3-2.2,5.5-5.1,7.7-8.8c2.1-3.7,3.5-8.4,4-14.1c0.6-6-0.1-11-1.9-15c-1.8-4-4.2-7.3-7.3-9.8
	C127.1,196.7,123.8,194.8,120.2,193.4z M251.3,268.3c0-0.2,0-0.4,0-0.6c0-0.2,0-0.5,0-0.7c0-0.2,0-0.5,0-0.8c0-0.6,0-1.2,0-1.8
	c0-0.6,0-1.2,0-1.8v-4.3c0-0.6,0-1.1,0-1.7c0-0.6,0-1.2,0-1.7c0-0.1,0-0.3,0-0.5c0-0.2,0-0.3,0-0.5c-0.1-0.5-0.4-0.9-0.9-1.1
	c-0.5-0.2-1.1-0.1-1.6,0.1c-0.3,0.1-0.6,0.3-0.8,0.5c-0.2,0.2-0.4,0.4-0.6,0.6c-0.7,0.7-1.3,1.4-1.8,2.1c-0.7,0.9-1.4,1.7-2,2.6
	c-0.7,0.9-1.3,1.7-2,2.6c-0.4,0.5-0.7,0.9-1,1.4c-0.3,0.5-0.6,1-0.9,1.5c-0.5,1-0.9,2-1.1,3c-0.2,0.8-0.1,1.6,0.1,2.4
	c0.2,0.7,0.6,1.2,1.2,1.7c0.3,0.3,0.6,0.5,1,0.7c0.4,0.2,0.7,0.3,1.1,0.5c0.2,0.1,0.5,0.1,0.7,0c0.2-0.1,0.4-0.2,0.5-0.3
	c0.1-0.1,0.2-0.3,0.2-0.4c-0.1-0.3-0.2-0.6-0.5-0.7c-0.4-0.3-0.8-0.6-1.3-0.9c-0.4-0.2-0.6-0.6-0.8-1c-0.1-0.2-0.1-0.4-0.1-0.7
	c0-0.2,0-0.5,0-0.7c0-0.4,0.1-0.8,0.2-1.2c0.1-0.4,0.3-0.7,0.5-1.1c0.3-0.6,0.7-1.3,1.1-1.9c0.4-0.6,0.9-1.2,1.4-1.8
	c0.4-0.5,0.8-0.9,1.2-1.4c0.4-0.5,0.8-0.9,1.2-1.4c0.1-0.1,0.1-0.1,0.2-0.2c0.1-0.1,0.2-0.2,0.2-0.3c0,0.1,0,0.1,0,0.2
	c0,0.3,0,0.7,0,1c0,0.3,0,0.6,0,0.9c0,0.3,0,0.7,0,1c0,0.3,0,0.7,0,1c0,0.8,0,1.6,0,2.5c0,0.8,0,1.7,0,2.5c0,0.6,0,1.1,0,1.7
	c0,0.6,0,1.1,0,1.7c0,0.9,0,1.9,0,2.8c0,0.9,0,1.9-0.1,2.9c0,0.3,0,0.7,0,1c0,0.3,0,0.7,0,1c0,0.3,0,0.7,0,1s0,0.7,0,1
	c0,0.3,0,0.7-0.1,1c0,0.3,0,0.7-0.1,1c0,0.1,0,0.3,0,0.4c0,0.1-0.1,0.3-0.1,0.4c0,0.1-0.1,0.3-0.1,0.4s-0.1,0.3-0.1,0.4
	c-0.1,0.6-0.2,1.2-0.4,1.7c-0.1,0.1-0.1,0.2-0.1,0.4c0,0.1-0.1,0.2-0.2,0.4c-0.3,0.5-0.8,0.8-1.6,0.7c-0.5,0-0.9-0.2-1.2-0.4
	c-0.9-0.6-1.4-1.4-1.7-2.3c-0.2-0.6-0.2-1.1,0-1.7c0.1-0.6,0.4-1.2,0.8-1.7c0.1-0.2,0.3-0.4,0.4-0.6c0.1-0.2,0.3-0.4,0.4-0.6
	c0.3-0.4,0.2-0.7-0.3-0.9c-0.2-0.1-0.5-0.2-0.8-0.1c-0.3,0-0.5,0.2-0.7,0.4c-0.2,0.2-0.4,0.4-0.6,0.6c-0.2,0.2-0.4,0.4-0.6,0.7
	c-0.2,0.3-0.4,0.6-0.6,0.9c-0.2,0.3-0.2,0.7-0.3,1.1c-0.1,0.4,0,0.7,0,1.1c0.1,0.3,0.1,0.5,0.2,0.7c0.1,0.2,0.2,0.5,0.4,0.7
	c0.2,0.4,0.5,0.7,0.8,1.1c0.3,0.3,0.6,0.7,1,0.9c0.5,0.4,1.1,0.8,1.7,1c0.6,0.3,1.2,0.4,1.9,0.6c0.4,0,0.7,0.1,1.1,0.1
	c0.4,0,0.7,0,1.1,0c0.4,0,0.7-0.1,1-0.2c0.3-0.1,0.6-0.3,0.9-0.5c0.6-0.4,1.1-1,1.3-1.8c0.1-0.1,0.1-0.3,0.2-0.4
	c0.1-0.1,0.1-0.3,0.2-0.4c0.1-0.1,0.1-0.2,0.1-0.4c0-0.1,0.1-0.2,0.1-0.4c0.1-0.2,0.1-0.4,0.1-0.6c0-0.2,0.1-0.4,0.1-0.6l0.2-1.7
	c0.1-0.5,0.1-0.9,0.1-1.4c0-0.4,0-0.9,0.1-1.4c0.1-1,0.1-2,0.1-3c0-0.4,0-0.9,0-1.3s0-0.9,0-1.3V269
	C251.3,268.8,251.3,268.6,251.3,268.3z M274.4,274.6c0-0.1,0-0.3,0-0.4c-0.1-0.3-0.2-0.5-0.5-0.5c-0.2,0-0.3-0.1-0.5,0
	c-0.1,0-0.3,0.2-0.4,0.4c-0.1,0.1-0.1,0.2-0.2,0.4c-0.1,0.1-0.1,0.2-0.2,0.4c-0.1,0.3-0.2,0.5-0.3,0.8c-0.1,0.2-0.2,0.5-0.3,0.8
	c-0.1,0.2-0.1,0.3-0.2,0.5c-0.1,0.2-0.1,0.3-0.2,0.5c-0.1,0.3-0.2,0.5-0.3,0.8c-0.1,0.2-0.2,0.5-0.3,0.7c-0.1,0.2-0.2,0.4-0.2,0.5
	c-0.1,0.2-0.1,0.3-0.2,0.5l-0.7,1.4c-0.1,0.1-0.1,0.2-0.2,0.4c-0.1,0.1-0.1,0.2-0.2,0.4c-0.1,0.2-0.3,0.4-0.5,0.5
	c-0.2,0.1-0.4,0-0.5-0.1c0,0,0-0.1,0-0.1s0-0.1,0-0.1c0-0.1,0-0.2,0-0.3c0-0.1,0-0.2,0.1-0.3c0-0.1,0-0.3,0.1-0.4
	c0-0.1,0-0.3,0.1-0.4c0-0.1,0-0.3,0.1-0.4c0-0.1,0-0.3,0.1-0.4v-0.4c0-0.2,0-0.5,0.1-0.7c0-0.2,0-0.5,0.1-0.7c0-0.2,0-0.3,0-0.5
	c0-0.2,0-0.3,0-0.5c0-0.3,0-0.6,0-0.9s0-0.6,0-0.9v-0.7c0-0.2,0-0.4,0-0.6c0-0.2,0-0.4,0-0.6c0-0.1,0-0.3,0-0.4c0-0.1,0-0.3,0-0.4
	c0-0.1,0-0.3,0-0.4c0-0.1,0-0.3-0.1-0.4c-0.1-0.3-0.2-0.6-0.3-0.9c-0.3-0.4-0.8-0.8-1.4-1c-0.2,0-0.3-0.1-0.5-0.1
	c-0.2,0-0.3,0-0.5,0c-0.6,0-1.2,0-1.8,0.1c-0.5,0.1-0.9,0.3-1.3,0.5c-0.5,0.2-0.8,0.5-1,0.9c-0.2,0.3-0.4,0.6-0.6,0.9
	c-0.2,0.3-0.4,0.6-0.6,1l-0.6,1.1c-0.1,0.2-0.2,0.3-0.3,0.5c-0.1,0.2-0.2,0.3-0.2,0.5c-0.1,0.2-0.2,0.5-0.3,0.7
	c-0.1,0.2-0.2,0.5-0.3,0.7c-0.1,0.1-0.1,0.2-0.2,0.3c-0.1-0.1-0.1-0.2,0-0.3c0-0.1,0-0.2,0-0.2c0-0.1,0-0.2,0-0.2
	c0-0.2,0-0.5,0.1-0.7c0-0.2,0-0.5,0.1-0.7l0.1-1.2c0-0.2,0-0.4,0-0.7c0-0.2,0-0.5,0-0.7c0-0.1,0-0.3,0-0.5c0-0.2-0.1-0.3-0.1-0.5
	c0-0.1,0-0.1,0-0.1c-0.1-0.1-0.1-0.3-0.2-0.4c-0.1-0.1-0.1-0.2-0.2-0.4c-0.2-0.4-0.7-0.7-1.3-0.9c-0.2,0-0.3-0.1-0.5-0.1
	c-0.2,0-0.3,0-0.5,0c-0.5,0-1,0.1-1.4,0.2c0,0,0,0.1,0,0.1c0,0,0,0.1,0,0.1c0,0.2,0,0.5,0,0.7c0,0.2,0,0.5,0.1,0.8
	c0,0.2,0,0.4,0,0.6c0,0.2,0,0.4,0,0.6v0.9c0,0.3,0,0.5,0,0.8s0,0.5,0,0.8v0.7c0,0.2,0,0.5,0,0.7c0,0.2,0,0.5,0,0.7
	c0,0.1,0,0.2,0,0.3s0,0.2,0,0.3c0,0.3,0,0.6,0,0.9c0,0.3,0,0.6,0,0.9c0,0.1,0,0.2,0,0.2c0,0.1,0,0.2,0,0.2c0,0.2,0,0.4,0,0.6
	c0,0.2,0,0.4,0,0.6c0,0.2,0,0.3,0,0.5s0,0.3,0.1,0.4c0,0.3,0.1,0.7,0.3,1c0.2,0.3,0.4,0.5,0.6,0.7c0.3,0.2,0.7,0.4,1.2,0.5
	c0.2,0,0.4,0,0.6,0c0.2,0,0.4-0.1,0.5-0.3c0.1-0.1,0.2-0.3,0.2-0.4c0.1-0.2,0.2-0.4,0.2-0.6c0.1-0.2,0.1-0.4,0.2-0.6
	c0.2-0.5,0.4-1,0.5-1.5c0.1-0.2,0.1-0.3,0.2-0.5c0.1-0.2,0.1-0.3,0.2-0.5c0.1-0.2,0.1-0.4,0.2-0.5l0.4-1.1c0.1-0.1,0.1-0.3,0.1-0.4
	c0-0.1,0.1-0.3,0.1-0.4c0.1-0.2,0.1-0.4,0.2-0.6c0.1-0.2,0.1-0.4,0.2-0.6c0-0.1,0.1-0.3,0.2-0.6c0.1-0.2,0.2-0.4,0.3-0.6
	c0.1-0.2,0.2-0.4,0.3-0.6c0.1-0.1,0.2-0.3,0.2-0.4c0.1-0.1,0.1-0.3,0.2-0.4c0.1-0.1,0.3-0.3,0.4-0.5c0.1-0.2,0.2-0.3,0.4-0.5
	c0.1-0.1,0.1-0.2,0.2-0.3c0.3-0.3,0.7-0.5,1-0.6c0.3-0.1,0.6,0,0.8,0.1c0.1,0,0.1,0.1,0.1,0.1l0.1,0.4c0,0.3,0,0.6,0,1
	c0,0.2,0,0.3-0.1,0.5c0,0.2,0,0.3-0.1,0.5c0,0.2,0,0.4,0,0.5c0,0.2,0,0.3-0.1,0.5c0,0.1,0,0.3,0,0.4c0,0.2,0,0.3-0.1,0.5
	c0,0.2,0,0.4,0,0.6c0,0.2,0,0.4-0.1,0.6s0,0.4,0,0.6c0,0.2,0,0.4,0,0.6c0,0.2,0,0.4,0,0.6c0,0.3,0,0.7,0,1c0,0.3,0,0.7,0.1,1
	c0,0.3,0,0.5,0.1,0.8c0.1,0.3,0.2,0.7,0.5,1c0.2,0.3,0.5,0.6,0.9,0.8c0.4,0.3,0.8,0.4,1.2,0.4c0.1,0,0.3,0,0.4,0c0.1,0,0.3,0,0.4,0
	c0.4,0,0.8-0.2,1.2-0.4c0.1,0,0.2-0.1,0.2-0.2c0.1-0.1,0.2-0.2,0.2-0.2c0.3-0.4,0.6-0.8,0.9-1.2c0.1-0.1,0.2-0.3,0.2-0.4
	c0.1-0.1,0.1-0.3,0.2-0.4c0.1-0.2,0.2-0.4,0.3-0.7c0.1-0.2,0.2-0.4,0.3-0.6c0.1-0.2,0.1-0.3,0.2-0.5c0.1-0.2,0.1-0.3,0.2-0.5
	c0.1-0.2,0.3-0.5,0.3-0.7c0.1-0.2,0.2-0.5,0.3-0.8c0.1-0.1,0.1-0.3,0.2-0.4c0.1-0.1,0.1-0.3,0.2-0.4c0.1-0.2,0.1-0.4,0.2-0.6
	c0.1-0.2,0.2-0.4,0.2-0.6c0.1-0.1,0.1-0.2,0.1-0.3c0-0.1,0.1-0.2,0.1-0.3C274.4,274.9,274.4,274.8,274.4,274.6z M336.5,290.6
	c0-0.2-0.1-0.3-0.2-0.5c-0.1-0.1-0.1-0.2-0.2-0.3c-0.1-0.1-0.1-0.2-0.2-0.3c-0.7-0.9-1.3-1.9-1.7-2.9c-0.4-1-0.8-2-1-3.1
	c-0.4-1.8-0.7-3.7-0.9-5.5c-0.1-1.8-0.2-3.7,0-5.5c0.1-1.7,0.2-3.3,0.4-5c0.2-1.6,0.6-3.3,1.1-4.9c0.2-0.6,0.4-1.2,0.6-1.8
	s0.2-1.2,0.2-1.9c0-1-0.5-1.6-1.5-1.8c-0.6-0.1-1.1-0.2-1.4,0c-0.3,0.1-0.6,0.4-0.9,0.9c-1.7,2.7-3.3,5.4-4.8,8.2
	c-1.5,2.8-2.9,5.6-4.3,8.4c-0.2,0.3-0.3,0.6-0.5,1c-0.2,0.3-0.3,0.7-0.5,1.1c-0.1-1,0-2,0.1-2.9c0.1-0.9,0.2-1.9,0.2-2.8
	c0.1-1,0.2-2.1,0.3-3.1c0.1-1,0.2-2,0.4-3.1c0.1-0.9,0.3-1.9,0.6-2.8c0.3-0.9,0.5-1.8,0.6-2.8c0.1-0.5,0-1-0.3-1.4
	c-0.3-0.4-0.8-0.7-1.4-0.8c-0.6-0.2-1.1-0.2-1.4,0c-0.3,0.2-0.6,0.5-0.9,1.1c-0.1,0.1-0.1,0.2-0.2,0.4c-0.1,0.1-0.1,0.2-0.2,0.4
	c-1,1.7-1.9,3.3-2.8,5c-0.9,1.7-1.7,3.4-2.5,5.1c-0.6,1.2-1.2,2.5-1.8,3.7c-0.6,1.2-1.2,2.4-1.8,3.7c0-0.3,0-0.5,0-0.6
	c0.1-1.4,0.3-2.7,0.5-4.1c0.2-1.3,0.3-2.7,0.5-4.1c0.1-1.2,0.2-2.4,0.3-3.5c0.1-1.2,0.2-2.3,0.1-3.5c0-0.7,0-1.3-0.2-1.8
	c-0.2-0.5-0.4-1-0.8-1.4c-0.3-0.4-0.7-0.7-1.2-1c-0.5-0.3-0.9-0.5-1.4-0.6h0.1c-0.1,0-0.2,0-0.3-0.1c-0.9-0.2-1.8-0.4-2.6-0.4
	c-1.6-0.1-3.1-0.1-4.3,0.2c-1.2,0.3-2.1,0.5-2.8,0.8c-0.1,0-0.1,0-0.2,0.1c-0.1,0-0.1,0-0.2,0.1l-0.2,0.1c-0.2,0.1-0.5,0.2-0.8,0.4
	c-0.3,0.1-0.5,0.3-0.8,0.4l0,0c-0.1,0-0.2,0.1-0.3,0.3c-0.1,0.1-0.3,0.1-0.4,0.2c-0.1,0.1-0.2,0.2-0.4,0.3c-0.2,0.1-0.4,0.3-0.5,0.4
	l-0.8,0.7c0,0,0,0,0,0c-0.1,0.2-0.3,0.3-0.4,0.5c-0.1,0.1-0.3,0.3-0.4,0.4l0,0c-0.5,0.7-1,1.3-1.3,1.9c-0.2,0.3-0.3,0.6-0.5,1
	c-0.1,0.3-0.3,0.7-0.4,1.1c-0.1,0.3-0.1,0.6-0.2,0.9c0,0.3-0.1,0.6-0.1,0.9v0.1v0c0,0.3,0,0.7,0,1c0,0.3,0.1,0.7,0.1,1h0
	c0,0.2,0.1,0.4,0.1,0.5c0,0.1,0.1,0.3,0.1,0.4v0l0.1,0.1c0.1,0.2,0.2,0.5,0.3,0.7c0.1,0.2,0.2,0.4,0.4,0.7c0.1,0.1,0.2,0.3,0.3,0.4
	c0.1,0.1,0.2,0.3,0.3,0.5c0.1,0,0.1,0,0.1,0.1c0,0,0.1,0,0.1,0.1c0,0,0,0.1,0.1,0.1l0.2,0.2c0.1,0.1,0.3,0.2,0.4,0.3
	c0.1,0.1,0.3,0.2,0.4,0.3c0.2,0.1,0.4,0.2,0.7,0.4c0.2,0.1,0.4,0.2,0.7,0.3c0.5,0.2,1,0.3,1.6,0.4l0,0h0h0.5c0.2,0,0.4,0,0.5,0
	c0.2,0,0.3-0.1,0.6-0.1c0.2-0.1,0.4-0.2,0.6-0.3c0.3-0.3,0.6-0.6,0.9-0.9l0.1-0.1v0c0,0,0.1-0.1,0.1-0.2v0c0.1-0.3,0-0.6-0.2-0.8
	c0,0,0,0,0,0c0,0,0,0,0,0c-0.1,0-0.1-0.1-0.2-0.1c-0.1-0.1-0.2-0.1-0.2-0.1c0,0-0.1,0-0.1,0l-0.2-0.1c-0.2,0-0.4-0.1-0.5-0.1
	c-0.1,0-0.2,0-0.4,0.1c-0.2,0-0.3,0.1-0.4,0.3l-0.1,0.1c-0.1,0.1-0.2,0.2-0.5,0.3c-0.1,0-0.3,0.1-0.6,0.2c-0.1,0-0.1,0-0.2,0.1H295
	c-0.1,0-0.2-0.1-0.2-0.1c0,0,0,0,0,0c-0.1,0-0.1,0-0.1,0c-0.3-0.1-0.5-0.4-0.7-0.6v-0.1c-0.1,0-0.1-0.1-0.1-0.2
	c0-0.1-0.1-0.2-0.1-0.2c0,0-0.1-0.1-0.1-0.1c0,0-0.1-0.1-0.1-0.1c0,0,0-0.1,0-0.1c0,0,0,0,0-0.1l0,0c-0.1-0.1-0.1-0.2-0.1-0.3
	c0-0.1,0-0.2-0.1-0.3c0,0,0,0,0-0.1c0,0,0,0,0-0.1v-0.1c0,0,0-0.1,0-0.1c0,0,0-0.1,0-0.1c0-0.1,0-0.1,0-0.2V268V268
	c-0.1-0.3-0.1-0.6,0-1v-0.1v0c-0.1-0.1-0.1-0.2,0-0.3v0c0.1-1,0.4-2,0.8-2.9c0.1-0.3,0.4-0.7,0.7-1.1c0.2-0.4,0.5-0.7,0.7-1
	c0.2-0.3,0.4-0.5,0.7-0.7c0.2-0.2,0.4-0.4,0.7-0.6c0.1,0,0.2-0.1,0.2-0.2c0.1-0.1,0.2-0.1,0.2-0.2c0.2-0.2,0.3-0.3,0.5-0.4l0.7-0.4
	c0.2-0.1,0.4-0.2,0.6-0.3c0.2-0.1,0.4-0.2,0.6-0.2c0,0,0,0,0.1,0c0,0,0,0,0.1,0c0.1-0.1,0.2-0.1,0.2-0.1c0.1,0,0.2,0,0.2-0.1
	c0.1,0,0.1,0,0.2-0.1c0.1,0,0.2-0.1,0.2-0.1c0.1,0,0.1,0,0.2-0.1c0.1,0,0.2,0,0.2-0.1c0.1,0,0.2-0.1,0.3-0.1c0.1,0,0.2-0.1,0.3-0.1
	c0.1,0,0.2,0,0.3,0c0.2,0,0.3-0.1,0.4-0.1h0c0.1,0,0.2-0.1,0.2-0.1h0l1.2-0.1h0.3h0.2h0.4c0.8,0.2,1.4,0.6,1.8,1.2
	c0.4,0.6,0.7,1.2,0.8,1.9c0,0.8-0.1,1.5-0.1,2.3c-0.1,0.7-0.1,1.5-0.2,2.3c-0.1,1.3-0.3,2.6-0.4,3.9c-0.1,1.3-0.3,2.6-0.4,3.9
	c-0.2,1.4-0.3,2.8-0.5,4.1c-0.2,1.4-0.4,2.7-0.6,4.1c-0.2,0.8-0.3,1.6-0.5,2.4c-0.2,0.8-0.3,1.6-0.3,2.4c0,0.5,0.1,0.8,0.2,1
	c0.2,0.2,0.5,0.3,1,0.3c1.1,0,2-0.3,2.7-1c0.5-0.4,0.8-0.9,1.1-1.4c0.3-0.5,0.5-1,0.8-1.6c0.9-2.3,1.8-4.6,2.8-6.8
	c0.9-2.3,1.8-4.5,2.8-6.8c0.3-0.7,0.6-1.5,0.9-2.2c0.3-0.7,0.7-1.5,1.1-2.3c0,0.1,0,0.2,0,0.2c0,0,0,0.1,0,0.1
	c-0.2,1.3-0.4,2.7-0.6,4c-0.2,1.3-0.3,2.7-0.4,4c-0.2,1.6-0.3,3.1-0.3,4.7c0,1.6,0,3.1-0.1,4.7c0,0.8,0,1.8,0.2,2.7
	c0.1,0.3,0.2,0.5,0.3,0.6c0.2,0.1,0.4,0.1,0.7,0.1c1.4-0.1,2.4-0.7,3-1.8c0.2-0.4,0.4-0.8,0.6-1.2c0.2-0.4,0.3-0.8,0.5-1.2
	c0.9-2.2,1.8-4.5,2.7-6.7c0.9-2.2,1.9-4.4,2.9-6.6c0.3-0.5,0.5-1.1,0.8-1.6c0.3-0.5,0.6-1,0.9-1.5c-0.1,0.6-0.2,1.3-0.3,2
	c-0.1,0.7-0.2,1.3-0.2,2c-0.2,2-0.3,4.1-0.3,6.1c0,2,0.1,4.1,0.5,6.1c0.2,1.4,0.6,2.7,1.2,4c0.5,1.3,1.3,2.5,2.4,3.6
	c0.9,1,2,1.7,3.4,2.1c0.4,0.1,0.8,0.1,1-0.2C336.5,290.9,336.5,290.7,336.5,290.6z M354.9,274.2c0-0.1-0.1-0.2-0.1-0.3
	c0-0.1-0.1-0.2-0.3-0.2c-0.2,0-0.4-0.1-0.6,0c-0.2,0-0.3,0.2-0.4,0.4c-0.1,0.2-0.2,0.4-0.3,0.6c-0.1,0.2-0.2,0.4-0.2,0.7
	c-0.1,0.3-0.3,0.7-0.4,1.1c-0.2,0.4-0.3,0.7-0.4,1.1c-0.4,1.1-0.9,2.1-1.4,3.1c-0.2,0.4-0.4,0.7-0.7,1.1c-0.2,0.3-0.5,0.7-0.8,1
	c0,0,0,0-0.1,0.1v-0.1c0-0.1,0-0.1,0-0.2c0-0.1,0-0.1,0-0.2c0-0.3,0-0.6,0.1-0.9c0-0.3,0-0.6,0.1-0.9c0-0.2,0-0.5,0.1-0.7
	c0-0.2,0-0.5,0.1-0.7c0-0.4,0-0.7,0.1-1.1c0-0.4,0-0.7,0.1-1.1c0-0.2,0-0.3,0-0.5c0-0.2,0-0.3,0.1-0.5c0-0.1,0-0.3,0-0.4
	c0-0.1,0-0.3,0-0.4c0-0.3,0.1-0.6,0.1-0.9c0-0.3,0.1-0.6,0.1-0.9c0-0.2,0-0.4,0-0.7c0-0.2,0-0.5-0.1-0.7c0-0.1,0-0.1,0-0.2
	c0-0.1,0-0.1,0-0.2c-0.1-0.1-0.1-0.3-0.2-0.4c-0.1-0.1-0.1-0.2-0.2-0.4c-0.1-0.1-0.1-0.2-0.2-0.3c-0.1-0.1-0.1-0.1-0.2-0.2
	c-0.5-0.4-1.1-0.6-1.8-0.6c-0.2,0-0.4,0-0.7,0c-0.2,0-0.4,0-0.7,0.1v0.1c0,0.6,0,1.3,0,1.9c0,0.6,0,1.3,0,1.9v1l-0.1,1.7
	c0,0.1,0,0.3,0,0.4s0,0.3-0.1,0.4c0,0.2,0,0.4-0.1,0.6c0,0.2,0,0.4-0.1,0.6c0,0.1,0,0.3-0.1,0.4c0,0.1,0,0.3-0.1,0.5
	c0,0,0,0.1,0,0.1c-0.1,0.2-0.3,0.4-0.4,0.6c-0.1,0.2-0.3,0.4-0.5,0.6c-0.6,0.6-1.2,1.2-1.9,1.6c-0.4,0.2-0.7,0.3-1.1,0.4
	c-0.4,0-0.7-0.1-0.8-0.4c-0.1-0.2-0.1-0.4-0.1-0.7c0-0.4,0-0.7,0-1.1s0-0.8,0-1.1c0-0.4,0.1-0.7,0.1-1.1c0-0.4,0.1-0.7,0.1-1.1
	c0-0.1,0-0.3,0-0.4c0-0.1,0-0.3,0-0.4c0-0.1,0-0.3,0-0.4c0-0.1,0-0.3,0-0.4c0-0.3,0.1-0.5,0.1-0.8c0-0.3,0.1-0.5,0.1-0.8
	c0-0.3,0-0.6,0-0.8c0-0.3,0-0.6-0.1-0.9c-0.1-0.4-0.3-0.8-0.6-1.3c-0.2-0.2-0.4-0.4-0.7-0.6c-0.3-0.1-0.6-0.2-0.9-0.3
	c-0.2,0-0.5-0.1-0.7-0.1c-0.2,0-0.5,0-0.7,0.1c-0.1,0-0.2,0-0.2,0c-0.1,0-0.1,0-0.2,0.1v0.1c0,0.2,0,0.5,0.1,0.7c0,0.2,0,0.5,0,0.7
	v1.3c0,0.5,0,1,0,1.5c0,0.5,0,1,0,1.5c0,0.3,0,0.6,0,0.9c0,0.3,0,0.6-0.1,0.9c-0.1,0.4-0.1,0.7-0.1,1.1c0,0.4,0,0.7-0.1,1.1
	c0,0.2,0,0.4,0,0.5c0,0.2,0,0.3-0.1,0.5c0,0.2,0,0.5,0,0.7c0,0.2,0.1,0.4,0.2,0.7c0.1,0.5,0.3,0.9,0.6,1.2c0.2,0.2,0.4,0.4,0.6,0.5
	c0.2,0.1,0.5,0.3,0.7,0.4c0.3,0.1,0.5,0.2,0.8,0.2h0.7c0.5,0,1.1-0.1,1.5-0.3c0.9-0.3,1.8-0.8,2.5-1.4c0.2-0.2,0.4-0.4,0.6-0.6
	c0.2-0.2,0.3-0.4,0.5-0.6c0-0.1,0.1-0.1,0.2-0.1c0,0,0,0.1,0,0.1v1c0,0.2,0,0.4,0,0.6c0,0.2,0,0.4,0,0.6c0,0.3,0,0.5,0,0.8
	c0,0.3,0,0.5-0.1,0.8c0,0.1,0,0.1-0.1,0.2c-0.1,0.1-0.2,0.1-0.2,0.2c-0.1,0.1-0.2,0.1-0.2,0.2c-0.3,0.2-0.6,0.5-0.9,0.7
	c-0.3,0.2-0.6,0.4-0.9,0.7c-0.4,0.3-0.7,0.7-1,1c-0.3,0.4-0.6,0.7-0.8,1.2c-0.3,0.6-0.5,1.2-0.6,1.8c-0.1,0.5-0.1,1-0.1,1.4
	c0.1,0.7,0.2,1.4,0.5,2c0.1,0.2,0.3,0.5,0.5,0.7c0.2,0.2,0.4,0.4,0.7,0.6c0.5,0.3,1.1,0.6,1.6,0.7s1.1,0.1,1.7,0
	c0.9-0.2,1.5-0.6,2-1.4c0.2-0.3,0.3-0.5,0.4-0.8c0.1-0.3,0.2-0.6,0.3-0.9c0.1-0.2,0.1-0.5,0.1-0.7c0-0.2,0.1-0.5,0.1-0.7
	c0-0.1,0-0.1,0-0.2c0-0.1,0-0.1,0-0.2c0-0.2,0.1-0.4,0.1-0.6c0-0.2,0.1-0.4,0.1-0.6c0-0.3,0-0.6,0.1-0.9s0-0.6,0.1-0.9
	c0-0.5,0-0.9,0.1-1.4c0-0.4,0-0.9,0.1-1.4v-0.6c0-0.1,0-0.2,0.1-0.2c0.2-0.1,0.4-0.3,0.5-0.4c0.1-0.1,0.3-0.3,0.4-0.4
	c0.2-0.2,0.4-0.5,0.6-0.7c0.2-0.2,0.4-0.5,0.6-0.8c0.1-0.2,0.3-0.3,0.4-0.5c0.1-0.1,0.2-0.3,0.3-0.5l1.1-2.3
	c0.1-0.2,0.2-0.4,0.2-0.6c0.1-0.2,0.2-0.4,0.3-0.6c0.1-0.3,0.2-0.5,0.3-0.8s0.2-0.6,0.4-0.8c0.1-0.2,0.1-0.4,0.2-0.6
	c0.1-0.2,0.1-0.4,0.2-0.6C354.9,274.8,355,274.5,354.9,274.2z M277.9,136.9c-1,3-2,6.1-3,9.4c2-0.1,3.9-0.2,5.5,0
	c3.8,0.4,6.8,1,9.1,1.9c2.7,1.1,4.7,2.5,6.2,4.2c0.6,0.9,1.1,1.9,1.5,3c0.3,0.9,0.3,1.8,0.2,2.8c-0.1,1-0.6,2-1.4,3.1
	c-0.8,0.8-2,1.5-3.7,2c-1.6,0.5-3.4,0.7-5.3,0.5c-0.9,0-1.6-0.2-2.3-0.5c-0.6-0.2-1.1-0.6-1.7-1.1c-0.6-0.5-0.9-1.3-0.9-2.4
	c-0.2-2.6-2.2-4-6-4.2c-1.1-0.1-2.4,0-3.9,0c-1.3,4.9-2.5,10.1-3.8,15.6c6.8-0.6,13.2-2.1,19.3-4.7c6-2.5,11.5-5.7,16.4-9.5
	c4.9-3.8,9.2-8,12.9-12.7c3.6-4.7,6.5-9.4,8.6-14.2c2.3-5.2,3.8-10.4,4.5-15.7c0.7-5.2,0.8-9.9,0.3-14.2c-0.5-4.3-1.6-7.9-3.3-10.9
	s-3.7-4.8-6.2-5.5c-1.6-0.5-3.7-0.5-6.1-0.1c-2.4,0.4-5.1,1.7-8,3.7c-2.9,2.1-6,5.1-9.2,9c-3.2,4-6.5,9.3-9.8,15.9
	C284.5,119.1,281.2,127.2,277.9,136.9z M236.8,161.4c0.2,0.3,0.4,0.6,0.6,0.9c1.4,1.9,3.5,3.6,6.3,5.2c2.8,1.6,6.8,2.7,11.9,3.3
	c0.6-3.5,1.3-7.1,2.1-10.8c0.2-0.9,0.4-1.8,0.6-2.7C252.1,158.4,244.9,159.7,236.8,161.4z M198.4,217.8c0.1,3.2,0.5,5.7,1.3,7.6
	c0.7,1.9,1.9,2.9,3.6,3c1.3,0.1,2.7-1.1,4.2-3.4c1.6-2.4,3.1-5.1,4.6-8.2c1.5-3.1,2.8-6.1,4-9.1c0.2-0.4,0.3-0.8,0.4-1.1
	c0.1-1.8,0.3-3.7,0.7-5.7c0.9-4.6,2.2-8.7,4-12.3c0.7-1.5,1.6-3,2.7-4.4c1-1.4,2.2-2.6,3.5-3.7c1.3-1.1,2.8-1.9,4.5-2.4
	c1.7-0.6,3.5-0.7,5.6-0.6c3.2,0.3,5.5,1.6,6.8,3.7c1.4,2.1,1.8,4.5,1.4,7.2c-0.1,1.1-0.8,1.9-1.9,2.4c-1.1,0.5-2.1,0.7-2.9,0.5
	c-0.9,0-1.4-0.4-1.5-1.2c-0.2-0.4-0.2-0.7-0.1-1c0.3-1.2,0.1-2.1-0.5-2.6c-0.6-0.5-1-0.7-1.3-0.6c-0.2,0-0.7,0.2-1.4,0.6
	c-0.7,0.4-1.6,1.2-2.4,2.4c-0.9,1.2-1.8,3-2.7,5.3c-0.9,2.3-1.7,5.5-2.2,9.4c-0.4,4.2-0.3,8,0.2,11.2c0.2,1.4,0.6,2.7,1,4
	c0.4,1.3,1,2.4,1.7,3.3c0.7,1,1.6,1.7,2.7,2.2c1.1,0.5,2.4,0.6,4,0.4c1.3-0.1,2.6-1.1,4.1-2.9c1.5-1.8,2.9-3.9,4.3-6.3
	c1.4-2.4,2.6-4.7,3.7-7c0.3-0.7,0.6-1.3,0.8-1.8c0.1-2.3,0.3-4.7,0.5-7.3c0.5-6.5,1.5-13.9,2.8-22.1c-5.5-0.8-11.1-2.5-16.8-5
	c-3.5-1.7-6.6-3.5-9.2-5.4c-1.2-0.9-2.4-1.9-3.5-3c-5.9,1.1-12.1,2.1-18.6,3c-1.1,4.2-2.1,8.7-3.1,13.3c-1,4.7-1.9,9.3-2.7,13.8
	c-0.8,4.6-1.4,8.9-1.8,13C198.4,211,198.3,214.6,198.4,217.8z M82,131.7c2.4-3.1,4.4-6.3,6-9.6c1.6-3.3,2.9-6.6,3.9-9.9
	c-11.2,0-21,0.4-29.2,1.3c-8.2,0.9-15.3,2.1-21.2,3.6c-5.9,1.5-10.7,3.2-14.6,5.2c-3.8,2-6.8,4-9.1,6.1c-5.4,4.9-7.6,10.5-6.8,16.7
	c0.5,2.5,1.5,4.6,3.2,6.3c1.7,1.6,3.7,2.9,6.1,3.8c2.4,0.9,5,1.5,7.9,1.7c2.9,0.2,5.8,0.2,8.7-0.2c4.6-0.5,9.1-1.4,13.4-2.9
	c4.4-1.5,8.5-3.3,12.4-5.5c3.9-2.2,7.5-4.7,10.7-7.5C76.8,138,79.6,135,82,131.7z M179.9,179.4c1.2-0.4,1.9-1.2,2.1-2.2
	c0.2-1-0.1-1.9-1.1-2.7c-1-0.9-2.2-1.4-3.6-1.7c-1.5-0.3-2.9-0.2-4.1,0.3c-1.2,0.4-1.9,1.1-2.1,2.1c-0.2,1.1,0.1,2,1.1,2.9
	c1,0.9,2.2,1.4,3.8,1.7C177.5,179.9,178.8,179.8,179.9,179.4z M315.8,179.3c-1.2,0.4-1.9,1.1-2.1,2.1c-0.2,1.1,0.1,2,1.1,2.9
	c1,0.9,2.2,1.4,3.8,1.7c1.4,0.3,2.8,0.2,3.9-0.3c1.2-0.4,1.9-1.2,2.1-2.2c0.2-1-0.1-1.9-1.1-2.7c-1-0.9-2.2-1.4-3.6-1.7
	C318.3,178.8,317,178.8,315.8,179.3z M344.9,287.8c-0.1,0.1-0.2,0.2-0.3,0.3c-0.4,0.4-0.7,0.9-1,1.4c-0.3,0.5-0.5,1-0.6,1.5
	c-0.1,0.1-0.1,0.3-0.1,0.4c0,0.1,0,0.3-0.1,0.4c-0.1,0.5-0.1,1,0,1.6c0.1,0.3,0.3,0.5,0.5,0.7c0.4,0.2,0.7,0.2,0.9-0.1
	c0.1-0.1,0.2-0.3,0.3-0.5c0.1-0.3,0.2-0.5,0.3-0.8c0.1-0.2,0.1-0.5,0.2-0.8l0.1-1.1c0-0.1,0-0.2,0-0.3s0-0.2,0-0.3
	c0-0.3,0-0.5,0-0.8c0-0.2,0-0.5,0.1-0.8c0-0.2,0-0.3,0-0.5c0-0.2,0-0.3,0-0.5v-0.2c-0.1,0-0.1,0-0.1,0
	C345.1,287.6,345,287.7,344.9,287.8z M426.9,147.5c-0.8-0.8-3.2-0.9-4.2-1.1c-3.4-0.7-6.6-1.5-10.1-1.9c-3.1-0.3-6.4-1.1-9.3-2.2
	c-1.8-0.7-2.1-1.6-2.4-3.3c-0.5-3-1-6.1-1.5-9.1c-0.5-2.3-0.3-4.8-1.1-7c-1.1-0.2-2.3,3.7-2.7,4.4c-1.4,2.9-2.4,6.1-4.1,8.9
	c-0.6,1-1.4,2.7-2.5,3.1c-1.5,0.5-3.3-0.3-4.7-0.5c-1-0.1-2-0.4-2.9-0.4c-0.8,0-1.5,0.1-2.2,0.1c-1.8-0.2-3.5-0.7-5.2-1.3
	c-1-0.3-5.9-2.3-6.2-0.5c-0.2,1.3,1.9,2.7,2.7,3.4c2.4,1.8,4.8,3.5,7.2,5.3c1.9,1.5,4.3,4.2,4.6,6.7c0.2,1.6-0.5,3.1-1.2,4.5
	c-1.1,2.2-2.3,4.4-3.3,6.7c-0.1,0.2-0.2,0.5-0.3,0.7c-0.7,1.7-1.7,3.3-2.6,5c-0.5,1-1.9,2.2-1.9,3.4c1.2,0.1,2.6-0.9,3.6-1.4
	c1.9-1,3.6-2,5.3-3.3c1.4-1.1,2.9-2.1,4.2-3.3c1.1-1,2.2-2.1,3.3-3c0.7-0.5,1.5-1.5,2.2-1.8c3.3,2.7,6,6.1,7.6,10.1
	c0.5,1.3,1.3,2.6,2,3.9c0.5,0.8,1.1,2.1,1.9,2.6c0.5,0.3,2.8,1.1,3.3,0.5c0.5-0.7-0.5-2.7-0.7-3.3c-0.6-1.7-1-3.3-1.4-5
	c-0.8-2.8-1.5-5.6-2.3-8.5c-0.4-1.4-1.1-3.3,0.2-4.3c1-0.8,2.6-1.1,3.8-1.5c1.8-0.6,3.7-1.2,5.5-2c2.2-0.9,4.4-1.7,6.7-2.2
	c2.1-0.4,4.3-0.5,6.4-0.9C425.2,148.8,427.6,148.3,426.9,147.5z M337.3,152c-1.3,0.5-3.3,0.1-4.7,0.2c-0.7,0-2.5-0.1-2.7,0.7
	c-0.1,0.5,0.5,0.9,1.3,1.3c0.9,0.4,1.9,0.7,2.3,0.8c1,0.4,3.1,1,3.9,1.7c1.1,1.1,0.3,2.9,0.1,4.1c-0.4,1.7-1,3.8-0.4,5.6
	c3.6-0.1,4.1-6.4,7.1-6.4c1.5,0,3.9,2.2,5.3,2.9c1.5,0.7,3.4,1.6,5.1,1.2c0.2-2.9-4.2-4.3-5.6-6.4c-1.4-2.1,2.4-4.1,3.9-5.6
	c0.4-0.3,2-1.7,2-2.2c0-1.3-3.6-0.7-4.6-0.6c-1.1,0.1-3.1,0.5-4,0c-0.9-0.6-1.3-1.9-2-2.7c-0.7-0.8-1.5-1.5-2.2-2.4
	c-1.2-1.6-1.5-1.1-2,0.8c-0.4,1.4-0.5,2.9-0.8,4.3C338.7,150.5,338.6,151.5,337.3,152z M345.1,113.8c1.2,0.5,2.7,0.9,3.3,1.2
	c1.4,0.6,4.5,1.4,5.6,2.5c1.5,1.6,0.5,4.2,0.1,6c-0.5,2.5-1.4,5.5-0.6,8.1c5.2-0.2,6-9.3,10.4-9.3c2.2,0,5.6,3.2,7.7,4.2
	c2.1,1,4.9,2.3,7.3,1.8c0.3-4.2-6.1-6.2-8.2-9.3c-2-3.1,3.5-6,5.7-8.1c0.5-0.5,2.9-2.4,2.9-3.1c0-1.8-5.3-1-6.6-0.9
	c-1.6,0.2-4.6,0.7-5.8-0.1c-1.3-0.8-1.9-2.7-2.9-3.9c-1.1-1.2-2.2-2.2-3.2-3.5c-1.7-2.3-2.1-1.5-2.9,1.1c-0.6,2-0.7,4.1-1.2,6.2
	c-0.5,1.9-0.6,3.3-2.5,4c-1.9,0.7-4.7,0.2-6.8,0.3c-1,0-3.7-0.2-4,1C343.1,112.7,344,113.3,345.1,113.8z"/>
</svg>
