<?xml version="1.0" encoding="utf-8"?>
<!-- Generator: Adobe Illustrator 18.0.0, SVG Export Plug-In . SVG Version: 6.00 Build 0)  -->
<!DOCTYPE svg PUBLIC "-//W3C//DTD SVG 1.1//EN" "http://www.w3.org/Graphics/SVG/1.1/DTD/svg11.dtd">
<svg version="1.1" id="Layer_1" xmlns="http://www.w3.org/2000/svg" xmlns:xlink="http://www.w3.org/1999/xlink" x="0px" y="0px"
	 viewBox="0 0 432 432" enable-background="new 0 0 432 432" xml:space="preserve">
<path fill="#333333" d="M196.2,104.2c0.9-0.3,1.9-0.3,3-0.2c1.2,0.2,1.7,1,1.5,2.2c-0.1,0.5-0.2,1.1-0.3,1.7
	c-0.1,0.6-0.3,1.1-0.4,1.7c-0.4,1.4-0.8,2.9-1.2,4.3c-0.4,1.5-0.7,2.9-1,4.4c-0.3,1.5-0.5,3-0.7,4.6c-0.2,1.6-0.1,3.1,0.2,4.6
	c0.3,1.1,0.6,1.9,1.1,2.5c0.4,0.5,0.7,0.8,0.9,0.7c0.5-0.1,1.1-0.5,1.7-1.1c0.7-0.6,1.2-1.1,1.5-1.5c0.7-0.8,1.4-1.9,2.3-3.1
	c0.9-1.3,1.7-2.6,2.6-4.1c0.6-1,1.2-2.1,1.7-3.1c0.1-5,0.8-10,2-14.9c0.5-2,1.1-3.8,1.6-5.6c0.5-1.7,1.1-3.6,1.7-5.7
	c0.4-1.4,0.9-2.9,1.5-4.3l-1.5-1.2c-1-0.7-2.1-1-3.3-0.7c-1.2,0.3-2.1,1-2.6,2.1c-0.1,0.2-0.2,0.5-0.3,0.8c-0.1,0.3-0.3,0.5-0.7,0.6
	c-0.7,0.1-1.3,0-1.9-0.3c-1.4-0.5-1.7-1.5-1-3c0.6-1.5,1.8-2.5,3.5-2.9c1.4-0.3,2.8-0.5,4.2-0.4c1.4,0.1,2.8,0.4,4.1,1.1
	c0.3,0.1,0.6,0.3,1,0.6c0.4-0.9,0.8-1.7,1.3-2.6c0.4-0.8,0.9-1.6,1.4-2.5c0.5-0.9,1.2-1.8,1.8-2.7c0.7-0.9,1.3-1.7,1.9-2.3
	c1-1,2.3-1.3,3.9-0.9c0.7,0.2,1.1,0.4,1.3,0.7c0.2,0.3,0.2,0.8-0.1,1.4c-0.2,0.7-0.4,1.3-0.7,2c-0.2,0.6-0.5,1.3-0.7,1.9
	c-0.6,1.6-1.2,3.2-1.7,4.8c-0.5,1.6-1.1,3.2-1.6,4.9c0.5,0.3,1.1,0.7,1.6,1.1c0.5,0.4,1,0.7,1.6,1.1c1.1,0.7,2.2,0.9,3.2,0.7
	c1.1-0.2,2-0.9,2.7-1.9c1.4-1.8,1.2-3.4-0.8-4.7c-0.1-0.1-0.4-0.3-0.7-0.4c-0.3-0.1-0.4-0.3-0.3-0.6c0.1-0.2,0.4-0.4,0.8-0.5
	c0.4-0.1,0.7-0.2,0.9-0.3c1.4-0.1,2.7,0.2,4,0.9c1.3,0.7,2.2,1.7,2.8,2.9c0.3,0.8,0.4,1.5,0.3,2.2c-0.2,0.7-0.5,1.4-1.1,2
	c-1.8,2-4.1,3.1-7,3.3c-3.3,0.1-6.2-0.6-8.9-2.1c-0.3,0.9-0.6,1.8-0.8,2.6c-0.2,0.9-0.4,1.8-0.7,2.7c-1,3.9-1.8,7.7-2.4,11.5
	c-0.6,3.8-1.1,7.7-1.3,11.6c-0.1,2-0.1,4.1-0.1,6.1c0,2,0.3,4,0.9,6c0.1,0.3,0.2,0.6,0.5,1c0.3,0.4,0.6,0.7,0.9,1
	c0.3,0.3,0.8,0.4,1.3,0.5c0.5,0.1,1.1-0.1,1.7-0.4c0.3-0.2,0.7-0.6,1.2-1.1c0.5-0.5,1-1.1,1.5-1.7c0.5-0.6,1-1.2,1.4-1.9
	c0.4-0.6,0.8-1.2,1.2-1.7c0.6-1,1.3-2.3,2.1-4c0.8-1.6,1.6-3.3,2.3-4.9c0.7-1.6,1.4-3,1.9-4.3c0.5-1.3,0.8-2.1,1-2.5
	c0.3-1,0.6-1.6,1-1.8c0.4-0.3,0.8-0.3,1.2-0.2c1,0.2,1.3,1,0.9,2.2c-1,3.3-2,6.2-3.1,8.8c-1.1,2.6-2.5,5.4-4.2,8.2
	c-0.6,1-1.5,2.2-2.6,3.6c-1.1,1.4-2.2,2.5-3.1,3.2c-0.9,0.7-2,1.3-3.2,1.5c-1.3,0.3-2.6,0.3-3.9,0.2c-1.3-0.2-2.6-0.6-3.8-1.3
	c-1.2-0.7-2.2-1.8-3-3.1c-0.5-0.9-1-1.9-1.4-3.1c-0.4-1.2-0.7-2.2-0.8-3.3c-0.2-1.2-0.3-2.3-0.4-3.5c-1.1,1.9-2.5,3.8-4.1,5.7
	c-1.6,1.8-3.5,2.9-5.7,3.3c-2.2,0.3-4.1,0.2-5.6-0.4c-1.8-0.7-3-1.8-3.8-3.1c-0.8-1.3-1.3-2.9-1.5-4.6c-0.3-2.7-0.1-5.4,0.4-7.9
	c0.5-2.6,1.4-5,2.6-7.4c0.3-0.7,0.7-1.4,1.1-2.1c0.4-0.6,0.8-1.3,1.2-1.9C194.5,105.1,195.3,104.5,196.2,104.2z M200.2,99.3
	c0.6-0.1,1.1-0.4,1.4-0.7c0.7-0.7,1.2-1.5,1.3-2.5c0.1-1-0.1-1.8-0.6-2.6c-0.3-0.5-0.7-0.8-1.2-0.9c-1-0.1-1.8,0.2-2.6,0.9
	c-0.8,0.7-1.2,1.5-1.4,2.5c-0.2,1.2,0.3,2.2,1.4,3.1C199.1,99.4,199.6,99.4,200.2,99.3z M235.1,79.9c-0.1,0.2-0.1,0.5-0.1,0.9
	c0.1,0.5,0.3,0.8,0.7,1c0.4,0.2,0.7,0.2,1.1-0.1c0.5-0.3,1-0.7,1.2-1.2c0.3-0.4,0.6-1,0.9-1.7c0.3-0.8,0.6-1.7,0.7-2.6
	c0.1-0.9,0.1-1.7-0.2-2.4c-0.2-0.7-0.6-1.3-1.1-1.7c-0.5-0.4-1.2-0.6-2-0.5c-0.8,0.1-1.3,0.3-1.7,0.7c-0.4,0.4-0.7,0.8-0.9,1.3
	c-0.2,0.5-0.3,0.9-0.3,1.4c0,0.4,0,0.8,0.1,1c0.2,0.5,0.4,0.9,0.7,1.1c0.3,0.2,0.5,0.2,0.8,0.2c0.3,0,0.6-0.1,1.1-0.3
	c0.2,0.2,0,0.8-0.6,1.8C235.4,79.4,235.2,79.8,235.1,79.9z M252,110.2c-0.3,0.4-0.5,0.8-0.6,1.1c0.6,0.7,1.2,1.3,1.7,1.7
	c0.5,0.5,1,1,1.4,1.4c0.4,0.5,0.8,1,1.3,1.6c0.4,0.6,0.9,1.3,1.5,2.2c1-0.3,2.5-0.9,4.6-1.7c2.1-0.9,4.8-2.3,7.8-4.3
	c0.6-0.4,1.2-0.8,1.8-1.1c0.6-0.3,1.2-0.3,1.8,0.2c0.3,0.3,0.4,0.7,0.3,1.4c-0.2,0.7-0.7,1.3-1.6,1.9c-0.6,0.5-1.5,1.1-2.7,1.7
	c-1.2,0.6-2.5,1.2-3.8,1.8c-1.3,0.6-2.6,1.2-3.8,1.7c-1.2,0.5-2.2,0.9-3,1.1c0.3,0.6,0.7,1.3,1.1,2c0.4,0.8,0.7,1.5,1,2.2
	c1.2,3.5,1.8,6.9,1.7,10.3c-0.1,3.4-1.2,6.1-3.2,8.1c-2,2-4.5,3.3-7.6,3.8c-0.5,0.1-1.1,0.2-1.6,0.2c-0.5,0-1,0-1.6,0
	c-1.9-0.1-3.4-0.9-4.5-2.4c-1.1-1.5-1.9-3.1-2.2-5c-0.3-1.8-0.2-3.4,0.1-4.9c0.3-1.5,0.9-2.8,1.5-4c0.7-1.2,1.4-2.2,2.3-3.2
	c0.9-1,1.8-2,2.8-2.9c0.2-0.1,0.4-0.3,0.6-0.5c0.2-0.2,0.4-0.4,0.7-0.6c-0.1-0.5-0.3-1-0.4-1.2c-0.4-0.8-0.9-1.7-1.5-2.7
	c-0.6-1-1.2-1.9-1.9-2.8c-0.6-0.9-1.3-1.7-1.8-2.3c-0.6-0.7-1-1.2-1.2-1.5c-1.4-2.2-2-4.6-1.8-7.2c0.1-1.8,0.4-3.3,1-4.6
	c0.6-1.3,1.2-2.4,2-3.3c0.7-0.8,1.5-1.4,2.3-1.9c0.8-0.4,1.8-0.7,2.9-0.9c1-0.1,2,0,2.8,0.5c0.9,0.5,1.4,1.2,1.8,2.2
	c0.4,1.2,0.6,2.3,0.6,3.6c0.1,0.9,0.1,1.7-0.1,2.3c-0.1,0.6-0.3,1.3-0.5,1.8c-0.2,0.6-0.5,1.2-0.8,1.8
	C252.8,108.8,252.5,109.5,252,110.2z M250.5,102.7c0-1.7-0.6-3-1.6-3.9c-1.1,1.4-1.6,3-1.6,4.8c0,1.7,0.6,3.2,1.8,4.3
	C250,106.1,250.5,104.4,250.5,102.7z M251,127.5c-1.4,1.2-2.5,2.4-3.4,3.7c-0.9,1.3-1.5,2.8-1.9,4.4c-0.3,1.2-0.4,2.3-0.4,3.4
	c0,1.1,0.3,2.2,0.9,3.3c0.3,0.7,0.7,1.3,1.2,1.7c0.4,0.5,1.1,0.9,1.9,1.1c0.3-0.3,0.6-0.6,0.9-0.9c0.3-0.3,0.5-0.6,0.7-0.9
	c0.5-0.8,1-1.7,1.2-2.7c0.3-1,0.5-1.9,0.6-2.9c0.2-1.8,0.1-3.5-0.3-5.2C252.1,131,251.6,129.3,251,127.5z M125.6,123.2
	c-9.9-2.5-22.2,19.9-29.1,37.9c-6.7,17.7-9,35.3,1.9,37c14.5,2.2,28.2-14,35.7-28c4-23.6,15.2-54.8,28.5-62.7
	c19.6-11.9,24.1,11.7,11.1,31c-7.4,10.9-18.6,20.6-28.2,22.7c-1.1,4.9-2,10.1-2.8,15.2c1.9-5.7,4.8-11.8,11.8-11.8
	c15.7,0,2,34,5.5,33.7c6.3-0.5,17.7-23.6,19.8-29.8c0.1-0.2,0.2-0.4,0.3-0.5c3.8-9.4,10.7-17.5,18.6-16.2c3.3,0.6,5.9,3.3,5.8,7.8
	c-0.1,9-9.3,14.2-17,15.2c-1.1,4.2-1.8,13.5,1.8,16.4c7.4,4,16.3-11.6,20.3-19.5c2.4-8.7,8.1-16.4,16-15.2c3,0.5,5.7,2.2,7.5,4.4
	c0.8-2.2,1.5-3.7,4.4-3.7c2,0,4.3,1.8,4.3,3.8c0,5.5-9.8,32.7-6.3,32.7c5.2,0,18.5-17.4,20.2-23.6c0.3-2.9,0.5-5.8,0.6-8.4
	c0.3-5.3,9.9-4.8,8.7,0.9c1.2-6.4,6.1-9.7,11-9.9c10.6-0.5,12.4,9.4,10.8,17.4c-1.8,8.7-7.3,17.6-14.9,17.6
	c-10.7,0-6.6-13.4,3.9-15.8c1.6-7.5,1.6-15.8-2.7-14.4c-11.8,4-9,49.7-17.2,66.2c-1.9,4-4.5,6.3-8.1,5.9c-11.1-1-3.2-26.3,2.7-41.6
	c-5.3,6.5-11.7,12-16.3,11.2c-5.2-0.9-7-5.7-7-11.7c-3.4,5.5-8.1,9-13.6,5.8c-3.2-1.7-4.8-5.7-5.2-10.4
	c-5.1,7.6-12.1,14.4-20.3,14.4c-5.7,0-9.5-4.6-10.8-10.3c-0.1-0.7-0.2-1.4-0.3-2.1c-5.6,8.8-12.9,17.2-18.4,17.5
	c-11.4,0.6-1.8-32.4-7.1-32.9c-3.6-0.2-8.5,23.5-14.3,24c-2.8,0.3-4.6-3.5-4.7-8.5c0-1.4,0.1-3,0.3-4.6
	c-11.3,15.7-29.2,31-45.6,16.7c-14.4-17.6,2.3-59.2,22.8-73.6c5-3.5,16.3-8.5,20.7-3c2,2.5,0.6,6.6-2.4,9c-2.7,2.2-4.6-1.2-2.5-2.8
	C127.9,125.2,127.5,123.7,125.6,123.2z M274.3,177.4c-0.8,0.4-2.6,2-3.5,3.4c-1,1.7,0.3,2.9,1.6,0.8
	C273,180.6,273.7,179.2,274.3,177.4z M253.5,194.3c-3,9.4-5.9,18.7-6.4,28.8C251.2,213.1,252.3,204.8,253.5,194.3z M219.6,189.2
	c1.9-0.4,10.2-18.1,11.2-21.1c0.7-2.2-0.2-7.1-2.8-7.4C218.9,159.4,215.2,190.1,219.6,189.2z M188.8,170.8
	c10.6-2.4,12.6-13.9,9.7-14.3C194.8,157.9,190.9,165.6,188.8,170.8z M146.7,155.3c8.3-3.1,17.3-10.9,23.4-19
	c10.8-14.4,8.1-32-4.3-22.5C156.2,121,148.5,148,146.7,155.3z M322.4,170c1.6-3.7,3.8-10.9,4.3-16.5c-1.8-0.8-4.5-2.5-6.3-4.5
	c-2.8-3.3-1.6-8.8,3.1-8.8c4.3,0,6.9,2.2,7.8,5.8c0.3,1.4,0.5,3.2,0.4,5.5c17.9,9,12.1,18.6,7.2,35.7c-2.3,8-4.3,16.4-2.8,16.9
	c4.5,1.4,21.9-32.1,23.2-35c1.1-2.9,5.6-0.8,4.2,1.8c-2.7,6.3-18.4,43.5-29.4,42.4c-2.1-0.2-3.7-1.1-4.8-2.8
	c-9.9-15,13.8-50.1,1.9-54.8c-0.7,4.1-2,8.9-3.5,12.8c0,0.2,0,0.3,0,0.5c-4.2,10-14.3,28-27.6,28c-5.7,0-9.5-4.6-10.8-10.3
	c-2.7-12.2,7.8-37.5,21.4-35.1c3.3,0.6,5.9,3.3,5.8,7.8c-0.1,9-9.3,14.2-17,15.2c-1.1,4.2-1.8,13.5,1.8,16.4
	c7.8,4.2,17.4-13.4,20.9-20.8C322.3,170.2,322.4,170.1,322.4,170z M300.8,170.8c10.6-2.4,12.6-13.9,9.7-14.3
	C306.9,157.9,303,165.6,300.8,170.8z M366.7,311.6c-3.8,5.2-7.8,10.4-12.5,14.9c-2.1,2.4-5.4,6.1-9,5.9c-2.8,0-6.1-1.7-7.5-4
	c-0.9-2.4-1.2-5.2-1.4-7.5c-0.5-14.6,0.9-28.8,2.4-43.2c0.2-1.2-4.2,5.7-6.6,12c-2.6,6.8-7.1,24.1-9.2,40.1c-0.7,4.2-1.9,8.7-2.8,13
	c-0.5,1.7-2.1,2.1-3.5,2.4c-3.8,0.2-7.1-1.7-8.5-5.7c-3.1-9-6.1-17.9-6.8-27.1c-0.4-4.7-0.7-9.3-0.8-14c-3.4,4.6-6.5,9.4-9.6,14
	c-6.8,9.4-14.4,18.9-20.8,28.8c-2.6,3.8-5,8-7.3,12c-1.9,2.8-3.8,8-7.3,9.4c-1.9,0.5-4.2-0.2-5.4-1.7c-2.4-3.1-0.9-8.7-0.7-12.3
	c0.5-4.5,0.5-10.1,1.2-14.6c1.4-7.3,1.7-11.1,3.3-19.1c0.9-5.7,4-19.6,5.2-25.7c-0.5,0-6.4,10.1-8.3,13.9c-2.4,4.5-5.2,9.9-7.5,14.2
	c-2.4,4-8.3,14.6-15.6,13.9c-4.7-0.7-7.5-4.5-9.4-7.3c-3-4.4-3.8-10.9-3.5-16.7c-6.5,9.5-12.8,19-21,27.3c-2.4,2.4-5.2,4.5-8.3,5
	c-2.8,0.5-5.9-0.5-7.8-2.6c-2.8-3.1-4-14.4-3.8-19.3c0.5-6.6,1.2-13.2,2.1-19.8c0.7-4.7,2.6-10.8,0.9-15.6c-1.7-4-9.4,8.7-9.7,9.7
	c-3.1,6.4-5,13.4-7.1,20.3c-1.7,5.7-3.3,11.3-4.7,17.2c-1.2,4.7-1.2,11.6-3.8,15.6c-5.7,8.5-15.1-9-16.5-13.4
	c-2.1-5.9-4-17.9-4.2-21c-0.5,0.2-6.8,14.6-9.9,19.6c-2.8,4.2-6.1,8.5-10.6,10.6C91,349.8,91,318.2,92.4,307.1
	c1.9-16.5,5-33.5,8.7-49.8c-9-4.7-24.3-10.8-33.7-12.5c-11.8-1.9-28.1,0.2-32.3,8.3c-4.7,9-11.8,4.5-3.8-5.7
	c5.9-7.5,19.1-9.9,26.9-9.4c12,0.5,30.4,5.4,44.6,11.3c0.2-0.9,8.5-36.6,8.7-36.6c6.6-1.2,8.3-0.2,10.1,5.9c0.9,2.8,1.2,8,0.7,10.6
	c-0.5,1.9-3.3,12.3-4.7,18.9l-1.9,8.3c4.5,2.1,10.6,3.5,16.5,5.2c1.2-7.5,5.7-24.8,11.6-34.7c7.1-11.8,14.2-23.8,27.8-27.6
	c8.3-2.1,17.2-0.9,24.5,3.5c9.2,5.4,9.9,13.9,8.7,24.1c-2.1,21.2-37,43.2-59,43.2c-0.2,3.3-0.9,34,0.2,42c0.5,2.8,0.9,6.8,2.1,11.1
	c1.4-1.9,2.1-5.4,2.4-6.6c1.7-5.9,2.6-10.4,5-16.5c1.4-3.3,2.6-6.4,4-9.4c3.3-6.8,7.3-11.8,13.7-14.6c6.8-3.1,17.5,2.1,18.4,10.4
	c0.7,7.3,0.2,16.3-0.7,23.6c-0.2,2.4-0.5,8.5-0.5,10.8c0,5,7.5-4,9.7-6.4c3.1-3.1,5.9-6.4,8.7-9.7c2.7-3.3,5.4-6.7,8.1-10
	c2-6.3,5.1-12.8,9.1-16.6c3.1-2.6,4.7-4.7,11.3-6.8c4.5-1.4,12.5,0.2,16.3,1.2c4,0.9,5.7,4.2,7.3,6.4c1.7,2.4,1.7,2.6,2.6,5.4
	c0.9,2.6,1.4,3.5,1.7,5.7c4,0,4.5,1.7,4.7,5.4c0.2,2.6,0.5,5.4,0,8c-0.5,3.3-1.2,6.6-1.9,9.9c-1.2,6.8-2.6,13.4-4.2,20
	c-0.7,3.3-1.4,6.6-1.9,9.9c5.7-8.7,11.6-17.5,17.5-25.9c3.1-4.2,7.5-9.9,11.1-14.4l1.2-1.4c2.4-3.4,5.7-7.7,8.7-11.5
	c0.2-3.2,0.4-6.3,0.9-9.5c0-0.7,0-1.4,0.2-2.1c0.9-3.1,4-5.2,6.8-4.7c3.5,0.7,5.7,3.5,5.2,7.3c-2.4,15.1-1.2,25.9,0.9,41
	c0.2,1.2,0.9,6.6,1.9,7.5l2.1-8.3c1.7-7.3,3.1-14.6,5-21.9c2.4-9,5.9-17.5,11.8-24.5c0.9-0.9,1.7-1.9,2.8-2.4c1.4-0.7,2.8-0.7,4-0.2
	c9,1.9,8.7,10.1,8.3,17.7c0,4.7-0.7,9.4-0.7,14.2c-0.2,5.4-0.5,10.8-1.2,16.3c9.2-6.6,15.3-14.6,22.2-23.1c0.9-1.2,1.9-2.6,3.1-3.5
	c3.5-4.2,6.8-8.5,8.7-10.6c3.8-4.2,2.8,2.6,2.4,3.5l-4.5,6.4l-1.2,1.9C375.2,300.5,370.9,306.1,366.7,311.6z M147.4,263.5
	c17.2,0,37.7-12.3,47.2-28.3c1.9-3.1,3.5-6.1,4-9.7c1.7-8-2.4-17-9-21.2c-7.5-4.7-16.3,3.3-21.5,9.2c-3.8,4-6.4,8.7-9,13.7
	C154.7,236.1,147.1,257.8,147.4,263.5z M131.6,267.9c-7.5-1.9-15.3-4.2-17.2-5.2c0,0-6.4,34.9-7.1,40.8l-2.6,25.9
	c-0.2,1.4-0.2,3.1,0.7,4c4.2,5,18.6-20.5,20.3-23.6c1.2-1.9,3.8-6.1,5-8.5C130.6,295.8,129.9,282.6,131.6,267.9z M255.4,280
	c-0.7-0.7-2.4-3.5-5.4-3.5c-5.2,0-12,3.1-15.6,9.9c-2.4,4.7-4,8.7-5.2,13.4c-0.7,2.8-0.9,10.1-0.5,14.2c0.5,5,3.1,6.6,3.5,7.5
	c3.8-6.1,6.8-10.8,16-25.2l7.1-10.4C255.8,285.6,257.3,281.9,255.4,280z M79.8,347.8c-14,0-22.8,0.4-26.3,1.3
	c-2.2,0.5-3.3,1.7-3.3,3.4c0,1.7,0.8,2.9,2.5,3.5c1.7,0.6,4,0.9,6.8,0.9c2.3,0,4.6-0.1,6.7-0.2c-1.2,3.8-1.8,10.4-1.8,19.9
	c0,3.7,0.1,7.7,0.2,11.9c0.2,4.2,0.4,8.3,0.8,12.4c0.4,4,1,7.7,1.7,10.9c0.7,3.3,1.6,5.9,2.7,7.9c1.1,2,2.4,3,3.9,3
	c0.5,0,0.8-0.1,0.9-0.4c0.2-0.3,0.2-0.7,0.2-1.3c0-5.8,0.3-12,0.8-18.6c0.5-6.6,1.1-12.9,1.6-19c1.1-12,1.7-20,1.7-24.1
	c0-1.3-0.1-2.4-0.2-3.4c12.4-1.2,18.5-3.1,18.5-5.6C97.3,348.6,91.5,347.8,79.8,347.8z M144.6,348.8c-0.7-0.7-1.8-1.1-3.2-1.1
	c-3.8,0-6.4,2.7-7.7,8.2c-1,4-1.4,10.3-1.4,19c0,2.5,0,4.9,0.1,7.2c-4.6-0.4-10-0.6-16.1-0.6c-1.6,0-2.9,0-4.1,0.1
	c1.1-11.7,1.6-19.9,1.6-24.4c0-2.4-0.2-4.3-0.7-5.8c-0.7-2.5-2.3-3.7-4.8-3.7c-3.8,0-6.4,2.7-7.7,8.2c-1,4.1-1.4,10.4-1.4,19
	c0,8.9,0.4,17.3,1.1,25.1c0.8,9,2.3,15.5,4.3,19.3c1.1,2.1,2.4,3.1,4,3.1c0.7,0,1.1-0.6,1.1-1.7c0-7.7,0.6-18.4,1.8-32.2
	c1.2,0.1,2.6,0.1,4.2,0.1c6.3,0,11.9-0.3,16.9-1c0.2,4.4,0.5,8.6,0.8,12.4c1.5,14.9,4.3,22.4,8.4,22.4c0.7,0,1.1-0.6,1.1-1.7
	c0-8.9,0.8-21.8,2.4-38.8c1.1-11.9,1.7-20,1.7-24.3c0-0.8,0-1.8-0.1-2.9C146.6,352,145.9,350.1,144.6,348.8z M171.4,347.8
	c-7,0-11.1,2.7-12.4,8.2c-0.9,4-1.4,10.3-1.4,19c0,8.4,0.1,15.4,0.3,21.1c0.2,5.7,0.6,10.3,1.1,13.8c0.5,3.5,1.3,6.2,2.2,8
	c1,1.8,2.2,3.1,3.7,3.7c1.5,0.6,3.3,0.9,5.6,0.9c3.1,0,7.4-0.5,12.7-1.4c6.7-1.2,10.1-2.6,10.1-4.3c0-0.7-0.7-1-2-1
	c-1.6,0-3.8,0-6.7,0.1c-3.9,0.2-7.4,0.2-10.7,0.2c-1.7,0-3-0.4-3.8-1.1c-0.8-0.7-1.2-1.7-1.4-2.9c-0.2-1.2-0.3-2.4-0.3-3.7
	c0-3,0.5-9.6,1.4-19.8c3.3,0,6.5-0.2,9.5-0.5c3-0.3,5.5-0.8,7.5-1.4c2.1-0.7,3.1-1.5,3.1-2.5c0-0.7-1.1-1.2-3.2-1.6
	c-2.2-0.4-4.7-0.7-7.7-0.8c-2.9-0.2-5.8-0.2-8.5-0.2c1-11.3,1.5-19.8,1.6-25.4c5.6,0,10.8-0.4,15.5-1.3c5.4-1,8.2-2.3,8.2-4
	C195.8,348.8,187.7,347.8,171.4,347.8z M245.5,365.4c0-3.2-0.6-6.2-1.7-8.9c-1.1-2.7-2.8-4.8-5-6.4c-2.2-1.6-4.8-2.4-7.9-2.4
	c-4.8,0-9,2-12.8,5.9c-1.7,1.8-3.2,3.8-4.5,5.9c0.1-1.1,0.1-2,0.1-2.9c0-5.9-1.8-8.9-5.5-8.9c-3.8,0-6.4,2.7-7.7,8.2
	c-0.9,4-1.4,10.3-1.4,19c0,9.4,0.4,17.8,1.1,25.1c1.5,14.9,4.2,22.4,8.3,22.4c0.7,0,1.1-0.6,1.1-1.7c0-6.9,0.5-16.1,1.4-27.8
	c0.3-3.6,1.1-8.4,2.5-14.6c1.9-8.9,5-15.2,9.2-18.7c1.8-1.6,3.8-2.3,6-2.3c1.2,0,2.2,0.3,3,1.1c0.8,0.7,1.3,1.6,1.7,2.7
	c0.4,1.1,0.5,2.2,0.5,3.2c0,3-0.5,5.9-1.4,8.8c-0.9,2.9-2.2,5.4-3.9,7.8c-3.1,4.2-6.9,6.8-11.3,7.6c-2.8,0.5-4.2,1.7-4.2,3.6
	c0.1,4.6,3.9,10.7,11.5,18.2c8.3,8.2,14.4,12.3,18.2,12.3c0.8,0,1.5-0.2,2.1-0.5c0.2-0.2,0.4-0.4,0.4-0.7c0-0.3-0.2-0.6-0.5-1
	c-3.4-4.2-6.8-8.7-10.1-13.6c-1.7-2.6-4.1-5.8-7.1-9.7c-1.3-1.7-2.6-3.2-3.8-4.3c5.3-1.2,9.7-3.5,13.2-6.9
	C242.7,380.6,245.5,373.8,245.5,365.4z M296.3,417.9c0.4,1.6,0.7,2.5,0.7,2.8c0,0.7-0.6,1.1-1.7,1.1c-3.2,0-6.9-4.7-10.9-14.2
	c-1.5-3.5-3-7.2-4.4-11.4c-4.5,0.7-9.4,1.1-14.7,1.1c-1.1,0-2.1,0-3.1-0.1l-1.1,3.2c-5,14.5-8.5,21.8-10.7,21.8
	c-0.4,0-0.6-0.5-0.6-1.5c0-3.7,2.9-16.9,8.8-39.5c1.9-7.3,3.3-13.2,4.3-17.7c1-4.5,2-8,3.1-10.5c1.5-3.5,4.5-5.2,9.1-5.2
	c4.1,0,6.9,2.9,8.4,8.6c1.5,5.7,3.2,13.8,5,24.4C291.3,396.6,294,409,296.3,417.9z M278.1,390.7c-3.4-10.6-5.7-18.9-6.9-25.1
	c-1.7,7.4-4,15.7-6.8,24.6h1.3C270,390.3,274.2,390.4,278.1,390.7z M347.1,356.5c1.1,2.7,1.7,5.6,1.7,8.9c0,3.6-0.6,7.3-1.7,10.9
	c-1.1,3.6-2.7,6.9-4.8,9.9c-2.1,3-4.6,5.4-7.6,7.2c-3,1.8-6.2,2.7-9.9,2.7c-4.2,0-7.7-1-10.4-3.1c-1,11.7-1.4,20.9-1.4,27.8
	c0,1.2-0.4,1.7-1.1,1.7c-4.1,0-6.9-7.5-8.3-22.4c-0.7-7.3-1.1-15.7-1.1-25.1c0-8.7,0.5-15,1.4-19c1.3-5.4,3.8-8.2,7.7-8.2
	c3.6,0,5.5,3,5.5,8.9c0,0.9,0,1.9-0.1,2.9c1.3-2.2,2.8-4.2,4.5-5.9c3.8-4,8-5.9,12.8-5.9c3.1,0,5.7,0.8,7.9,2.4
	C344.3,351.7,346,353.9,347.1,356.5z M337.3,364.3c0-1.1-0.2-2.2-0.5-3.2c-0.4-1.1-0.9-2-1.7-2.7c-0.8-0.7-1.8-1.1-3-1.1
	c-2.2,0-4.2,0.8-6,2.3c-4.2,3.6-7.3,9.8-9.2,18.7l-2,9.3c1.2,0.5,2.5,0.8,3.8,0.8c2.7,0,5.2-0.7,7.4-2.1c2.3-1.4,4.3-3.2,5.9-5.5
	c1.7-2.3,3-4.9,3.9-7.8S337.3,367.2,337.3,364.3z M399.4,350.5c-1.2-1.8-2.8-2.7-5-2.7c-2.3,0-3.9,1.4-4.9,4.1
	c-0.7,2-1.3,5.1-1.6,9.2c-0.7,7.3-2.4,14.5-5.2,21.5c-2.5,6.1-5.1,9.1-7.8,9.1c-3.6,0-5.3-5.1-5.3-15.2c0-3.1,0.2-7.6,0.7-13.5
	c0.2-2.3,0.3-4,0.3-5.1c0-1.6-0.1-3.1-0.4-4.6c-0.2-1.5-0.8-2.8-1.6-3.9c-0.8-1-2-1.5-3.6-1.5c-2.2,0-4,0.8-5.1,2.5
	c-1.2,1.7-2,3.9-2.4,6.7c-0.4,2.8-0.6,6-0.6,9.5c0,2,0.1,4.4,0.3,7.2c0.2,2.8,0.6,5.6,1.1,8.5c0.6,2.9,1.4,5.6,2.6,8.1
	c1.2,2.5,2.7,4.5,4.6,6.1c1.9,1.6,4.3,2.3,7.2,2.3c7.6,0,13.2-6.3,16.8-18.9c0.2,3.3,0.2,5.5,0.2,6.7c0,8.1-1,14.6-3,19.5
	c-2.5,6-6.5,9-12.1,9c-5.2,0-9.4-3.2-12.5-9.5c-0.3-0.6-0.8-0.9-1.4-0.9c-0.8,0-1.3,0.6-1.3,1.7c0,1.3,0.5,3.1,1.4,5.4
	c1.5,3.7,3.9,6.6,7.2,8.6c2.5,1.6,5.4,2.3,8.7,2.3c15.4,0,23.8-11.5,25.3-34.5c0.2-4.1,0.4-11,0.4-20.6c0-3.5-0.2-6.7-0.6-9.6
	C401.4,354.7,400.6,352.3,399.4,350.5z M405.5,112.3c-2.9,1.3-6.3,0-11.6-2.1c-1.4-0.6-2.9-1.1-4.3-1.6c-1.4-0.5-4.5-2-7.3-1.3
	c1.6,4.8,5,9.1,5.2,15c0.2,4,0.4,9.3-0.3,14c-0.5,3.9-1.3,5.4-1.8,6.4c-0.4,1-2.1,3.5-3.7,4c-1.1,0.3-2.2,0-3-0.8
	c-0.1-0.1-0.1-0.1-0.2-0.2c-0.1-0.1-0.2-0.3-0.3-0.4c-0.3-0.4-0.4-0.7-0.7-1.5c-1.1-2.6-1.7-5.9-5.1-11.5c0,0-0.2-0.4-0.3-0.4
	c-11.5-16.3-34.7-8.2-50.7-10.8c-5.6-0.9-13.6-3.4-18.2-7c-3.1-2.4-5-5.5-5.4-6.6c-1-2.7-0.3-0.3-1-3c0,0-0.1-0.2,0-0.2
	c0,0,0-0.1,0-0.1c-0.1-0.6-0.2-1.1-0.1-1.7c0-1.7,0.6-3.3,1.7-4.6c0.9-2.1,2.7-4.2,3.9-6c1-1.5,1.9-3.2,2.9-4.8
	c0.8-1.2,2.3-2.9,3-4.3c-9.4-3.2-19-6.1-28.6-8.4c-5.1-1.2-10.4-2.3-15.5-3.8c-1.3-0.4-2.6-0.6-4-0.8c-14.8-2.4-29.4-4.1-44.4-4.4
	c-13.6,0.4-27.3,1.6-40.5,3.6c-2.6,0.4-5.2,1.3-7.9,1.7c-14.2,3-28.2,6.4-42,11c0.4,0.4,0.8,1,1.4,1.8c1.2,1.7,2.3,3.6,3.4,5.4
	c1.2,1.9,4,5,4.5,7.6c2.2,3,2.1,6,0.8,9.5c-0.1,0.1-0.5,0.9-0.5,1c-2.3,4.7-17.7,11.3-17.7,11.3s-2.2,0.9-2.3,0.9
	c-3.6,1.1-9.1,3.2-16.8,2.6c-9.4-0.7-19.7-2-29,1.1c-0.7,0.4-1.6,0.7-2.2,1.2c-8,6.1-10.7,17.4-14.6,26.5c-0.7,1.6-3.1,1.6-3.7-0.1
	c-0.4-1.1-0.5-1.7-0.9-2.9c-0.8-3.6-1-3.9-1.3-8.9c0-1.2,0-1.8,0-3c0.9-11.4,2.8-11.7,4-20.2c0.5-3.4,0.6-6.1-0.2-9.3
	c0,0-1.9,0.6-4.6,1.4c-11.5,3.3-8.1,2.4-14.6,5.2c-1.7,0.9-1.8,1-3.1,1.6c-1.1,0.6-2.5,0-2.6-1.1c-0.5-3-0.4-6.3,1.1-9.4
	c4.1-8.9,12.4-15.4,21.5-19.1c4.2-1.7,8.8-2.6,13.3-2.2c0.7,0.1,1.1,0.6,1,1.2c-0.1,0.6-0.8,1-1.4,0.9c-13.2-0.7-31,10.5-31.9,24.7
	c4.5-3,15.9-5.2,19.2-6.1c3.4-0.9,3.3-0.8,3.3-0.8c0.8-0.2,1.7,0.2,1.9,1c1.9,7.6-2.5,23.6-2.5,23.6s-0.6,3.8-0.7,5.6
	c-0.1,4.4-0.1,5.9,0.9,10.7c1.9-5.3,5.6-15.9,14.7-21.6c11.1-6.9,26.6-2.6,39-5.3c2.7-0.6,2.9-0.6,4.2-0.8
	c9.5-2.6,19.1-4.5,23.3-9.7c0.1-0.1,0.2-0.2,0.3-0.4c0.1-0.2,0.2-0.3,0.3-0.6c0.2-0.4,0.7-1.4,0.9-2.6c0.8-4.5-3.4-8.5-9.8-7.8
	c-0.1,0-0.2,0-0.3,0c-1.8,0.4-2.9,0.5-3.9,0.9c-3.4,1-6.5,2.8-9.5,4.8c-5.6,3.8-8.8,7.7-15.9,7.6c-2.6-0.1-5.4-1.4-7.5-2.7
	c-2.3-1.6-3.8-3.5-5.7-5.3c-0.4-0.4-0.9-0.9-1.3-1.3c-4.9-5.2-12-19.3-14.5-22.1c-3-3.5-4.8-4-6-6c-0.6-1.1-1.1-2.4-1-3.8
	c0.2-1.5,0.4-2.4,1-3.6c1.6-3.6,6.9-11.4,16.4-18c2-1.4,5.2-3.9,7.1-5c4.7-2.9,9.7-4.6,22.5-10.8c9.1-4.4,12.3-5.7,23.4-8.9
	c20-5.3,41-8.9,61.6-10.3c14.8-1,29.8-0.7,44.6,0c4.1,0.2,8.8,1,14,1.4c5.2,0.4,11,1.3,17.2,2.1c10.1,1.3,12,1.9,14.9,2.2
	c3.2,0.4,7.7,1.2,10.8,1.9c20.5,4.8,39.4,14.1,57.8,24.7c7.4,4.2,17.6,11.7,17.6,11.7s2.6,2.2,4.4,5.8c3.3,6.8-2.4,12.3-5.9,18.3
	c-1.1,1.8-2.5,3.6-3.6,5.4c-2.7,4.8-1,2.2-5.1,8.5c-4.5,6.8-7.8,12.1-15.6,13.2c-3,0.4-6.1,0.6-9.1,0.3c-3.4-0.3-5.5-1.7-8.3-3.3
	c-6.6-3.8-17-8.7-22.5-4.2c-1.8,1.4-2.3,3.8-1.5,5.8c0.2,0.5,0.4,1,0.4,1c0.1,0.3,0.5,0.7,0.7,1.1c1.7,2.9,11.6,8.2,21.7,10.8
	c11.9,3.1,25.1,0.9,37.1,3.7c6.6,1.5,12,5.4,16.1,10.8c0.4,0.5,0.6,0.7,0.9,1.2c0.3,0.4,0.6,0.9,0.9,1.3c0.4,0.6,0.5,0.8,0.9,1.4
	c0.3,0.5,0.5,0.8,0.8,1.4c0.4,0.7,1.6,2.9,2.1,4.1c2.6-4,3-15.5,3.2-18.7c0-0.2,0-0.7,0-0.9c0.1-3.8-2.9-9.2-4.6-14.2
	c-0.1-0.4,0-0.8,0.4-1c0,0,1.8-1.2,5.2-0.9c5.2,0.5,5.4,0.8,9.5,2.4c1.8,0.7,5.6,2.3,7.4,2.3c0.2,0,0.5,0.1,0.7,0c0.1,0,0.2,0,0.3,0
	c0,0,0.1,0,0.2-0.1c0,0,0,0,0.1,0c0,0,0-0.1,0-0.1c0.5-0.9-1.3-5.2-1.3-5.2s-1-2.5-1.7-4.1c-0.4-0.7-0.6-1.1-1-1.8
	c-2.3-3.5-3.4-5.8-9-9.9c-0.4-0.3-0.6-0.4-0.9-0.7c-5.2-3.2-16.1-4.8-16.1-4.7c0,0-2.3,0.4-2.3,0.4c-0.7,0-1.7-0.4-1.9-1.1
	c-0.2-0.8,0.3-1.5,1.1-1.6c0,0,2.6-0.3,2.6-0.3c2.8-0.1,3.9,0.1,5.2,0.3c4,0.5,9.8,3.1,12.8,5.4c5.2,3.8,5.7,4.8,8.1,7.4
	c1.9,2.1,1.1,1.1,2.9,3.8c0.5,0.8,0.7,1.3,1.2,2.1c0.6,1.3,1.3,2.8,1.8,4.1C406.7,106.8,408.4,110.6,405.5,112.3z M310.9,80.5
	c6.6,2.3,11.8,4.4,17.6,8.5c16.7,11.7,19.3,12.8,31-6.5c1.1-1.8,2-3.9,3.1-5.7c2.6-4.1,5.4-7.4,6.2-10.7c1.1-4.3-1.6-7.3-3.5-9.5
	c-0.1-0.1-0.6-0.6-0.7-0.7c-3.1-3-7-5.5-10.9-7.8c-20.3-11.7-40.3-22.4-62.8-27.8c-30.4-7.2-62.2-8.4-94-7.6
	c-4.1,0.1-8.7,0.5-13.8,0.7c-6.6,0.3-13.7,1.6-17.1,2.2c-22.7,3.9-44.3,9.5-64.7,19.5c-3.9,1.9-20.5,9.5-23.9,11.9
	c-6.5,4.6-9.4,8.8-10.6,10.3c-1.3,1.7-4,6-4.5,8c0,0.2-0.1,0.4-0.2,0.5c0,0.1-0.1,0.2-0.1,0.3c0,0.2,0,0.2,0,0.4
	c-0.2,1.5,1.1,2.9,2.1,4.7c0.8,1.5,3,3,4.3,5.1c6.1,9.8,10.5,16.6,10.5,16.6s1.4,2,1.4,2c3.5,4.2,5.5,5.4,11.5,2.5
	c1.2-0.6,2.2-1.7,3.2-2.5c9.2-7,11.1-7.9,14.6-9.7c17-8.7,37.6-13.2,56.8-17.8c2.6-0.6,5.5-0.7,8.1-1.2c29.9-5.5,60.8-3.8,91.3,1.3
	c2,0.3,3.1,0.5,14.6,3.4C290.8,73.6,300.9,76.9,310.9,80.5z M135.3,106.1C135.3,106.1,135.3,106.1,135.3,106.1
	C135.4,106,135.4,106,135.3,106.1z M124.3,57c-2.2-0.7-5.3-1.2-9.2-1.4c-4.7-0.3-8.1-0.9-10.2-1.8c-1.4-0.6-2.4-1.6-3.1-2.9
	c-0.9-1.8-0.8-3.5,0.2-5.1c1-1.6,2.9-3,5.6-4.1c3.1-1.2,6.1-1.5,9-0.9c1,0.2,1.7,0.3,2.1,0.1c0.4-0.1,0.6-0.4,0.7-0.9
	c0.1-0.4,0-0.9-0.2-1.3c-0.8-1.7-2.4-2.9-4.9-3.5c-3.3-0.8-7.1-0.4-11.4,1.4c-4.6,1.8-7.9,4.4-9.8,7.7c-2.1,3.7-2.2,7.3-0.3,10.9
	c1.7,3.2,4.4,5.3,8.1,6.3c2.6,0.7,6.2,1.1,10.7,1.3c4.1,0.1,7.1,0.6,8.9,1.2c1.8,0.6,3,1.7,3.7,3.1c0.7,1.5,0.5,2.9-0.4,4.3
	c-0.9,1.4-2.5,2.5-4.6,3.3c-2.5,1-5,1.4-7.7,1.3c-2.7-0.1-5-0.8-6.9-2.1c-0.4-0.2-0.8-0.3-1.4,0c-0.6,0.3-0.8,0.7-0.5,1.3
	c1.2,2.5,3.6,4.1,7.1,4.7c1.2,0.2,2.5,0.3,3.9,0.3c2.4,0,4.7-0.5,6.9-1.4c4.5-1.8,7.7-4,9.6-6.8c1.9-2.8,2.1-5.9,0.6-9.3
	C129.5,59.8,127.4,58,124.3,57z M164.7,60.9c-1.2,0.3-2.9,0.7-5,1.3c-2.9,0.8-5.5,1.5-7.9,2.1c-1.3,0.3-2.3,0.4-3,0.1
	c-0.7-0.3-1.2-0.7-1.6-1.4c-0.3-0.6-0.6-1.3-0.9-2.1c-0.6-1.7-1.4-5.7-2.6-11.8c2.5-0.7,4.9-1.4,7.1-2.2c2.2-0.8,4.1-1.5,5.5-2.3
	c1.5-0.8,2.1-1.4,1.9-2c-0.1-0.4-1-0.5-2.8-0.3c-1.7,0.2-3.8,0.5-6.1,1c-2.3,0.5-4.5,1-6.6,1.6c-1.4-6.8-2.6-11.8-3.6-15
	c4.4-1.2,8.4-2.5,12-3.9c4.1-1.6,6.1-2.9,5.8-3.9c-0.4-1.2-7.1-0.4-20.1,3c-5.5,1.5-8.2,4-8.1,7.4c0.1,2.5,1,6.3,2.7,11.3
	c1.7,4.8,3.1,8.9,4.4,12.1c1.3,3.2,2.4,5.8,3.5,7.7c1.1,1.9,2.1,3.3,3.2,4.2c1.1,0.9,2.2,1.3,3.4,1.4c1.2,0.1,2.6-0.1,4.3-0.6
	c2.3-0.6,5.4-1.7,9.1-3.2c4.8-1.9,7.1-3.3,6.8-4.3C166.2,60.8,165.7,60.7,164.7,60.9z M224.9,17c-1.2-2.4-3.3-3.5-6.2-3.4
	c-0.9,0-1.3,0.4-1.3,1.1c0,0.4,0.1,0.7,0.1,1c0.8,2.9,1.2,5.5,1.4,7.9c0.3,3.8,0.2,7.5-0.3,11.1c-0.4,3.6-1.1,6.8-1.9,9.6
	c-0.8,2.8-1.7,5.1-2.6,6.8c-0.9,1.7-1.8,2.6-2.7,2.6c-1.6,0.1-3-2-4.2-6.2c-1.6-5.4-2.9-13.4-3.9-24.1c-0.1-1.4-0.4-2.5-0.9-3.4
	c-0.8-1.4-2.1-2.1-4.1-1.9c-1.9,0.2-3.4,0.6-4.5,1.3c-1,0.7-1.7,1.6-2,2.7c-0.3,1.1-0.4,2.4-0.2,3.9c0.5,5.1,0.4,9.9-0.2,14.3
	c-0.6,4.5-1.5,8.1-2.6,11c-1.1,2.9-2.2,4.4-3.3,4.5c-1.6,0.2-3.1-2.1-4.6-6.8c-1.9-5.9-3.7-14.7-5.3-26.5c-0.5-3.6-2.2-5.2-5.2-4.8
	c-2,0.2-3.4,0.7-4.4,1.5c-1,0.7-1.6,1.7-1.9,2.8c-0.3,1.1-0.3,2.5,0,3.9c1.7,10.6,4.3,19.1,7.7,25.7c2.4,4.5,5.1,7.5,8.3,9.1
	c1.7,0.8,3.5,1.1,5.6,0.9c3.3-0.3,6-2.9,8.3-7.7c1-2.1,1.9-4.5,2.6-7.1c3.7,8.9,8.5,13.1,14.7,12.7c3.3-0.2,6.2-2.7,8.7-7.4
	c2.1-4,3.8-9,4.9-14.9c1-5.3,1.5-9.8,1.3-13.5C226,20.7,225.6,18.5,224.9,17z M245.6,15.2c-3.1-0.3-5.4,1.2-6.8,4.5
	c-1,2.3-1.7,6.1-2.2,11.4c-0.5,5.7-0.6,10.8-0.4,15.2c0.4,9.1,2.1,13.8,5.3,14c0.5,0,0.9-0.3,0.9-1c0.3-3.6,0.9-7.5,1.7-11.5
	c0.8-4,1.6-8,2.5-11.7c1.5-6.9,2.5-12,2.9-15.2C249.8,17.3,248.5,15.4,245.6,15.2z M298.8,28.7c0.6-2.7-0.3-4.4-2.8-5
	c-2.3-0.6-4.5,0.9-6.3,4.2c-1.4,2.6-2.9,6.6-4.3,11.9c-1.5,5.6-2.6,10.4-3.2,14.4c-0.6-3.7-1.5-8.2-2.5-13.5
	c-1-4.7-1.7-8.5-2.2-11.4c-0.4-2.6-1-4.7-1.6-6.3c-1.1-2.7-2.6-4.2-4.5-4.6c-3.9-0.8-6.8,0.4-8.5,3.5c-1.3,2.2-2.6,5.9-3.7,11.1
	c-1.3,5.6-2.1,10.6-2.5,15.1c-0.8,9.1,0.3,13.9,3.4,14.5c0.5,0.1,0.9-0.2,1-0.9c0.8-3.6,1.9-7.3,3.2-11.2c1.3-3.9,2.7-7.7,4-11.4
	c1-2.8,1.9-5.2,2.7-7.4c1.3,6.2,3.1,13.1,5.4,20.8c1.3,4.3,2.5,7.9,3.7,10.6c1.2,2.7,2.5,4.2,4.1,4.6c0.5,0.1,0.8-0.2,1-0.8
	c1.4-5.3,4-12.7,8-22.3c2.7-6.6,4.6-11.3,5.3-13.9C298.5,30,298.6,29.4,298.8,28.7z M319.3,78.2c3.2-0.4,6.1-1.6,8.7-3.7
	c2-1.7,3.7-3.7,5.1-6.2c1.2-2.2,1.4-4.2,0.7-5.9c-0.9-2.1-3.2-4-7-5.7c-5.8-2.5-9-3-9.7-1.8c-0.3,0.5,0.2,1.2,1.4,2s3.2,2,6,3.4
	c1.4,0.7,2.3,1.5,2.8,2.4c0.5,1,0.4,2.2-0.3,3.6c-1.2,2.3-2.8,4-4.8,5.1c-1.4,0.8-2.8,1.2-4.3,1.3c-1.8,0.1-3.6-0.2-5.4-0.9
	c-3.8-1.6-5.6-4.2-5.3-7.9c0.2-1.9,0.8-4.1,2-6.6c1.6-3.4,3.7-6.3,6.3-9c1.6-1.7,3.4-3,5.2-4c3.7-2.1,7.2-2.4,10.6-1
	c1.2,0.5,2.1,1,2.8,1.6c0.7,0.5,1.2,1.1,1.5,1.6c0.4,0.5,0.6,1,0.8,1.4c0.2,0.4,0.4,0.7,0.6,1c0.2,0.3,0.4,0.5,0.8,0.6
	c0.3,0.2,0.7,0.1,1.1-0.2s0.8-0.6,1-1c0.7-1.2,0.9-2.6,0.6-4.1c-0.3-1.5-1.1-2.9-2.4-4.3c-1.3-1.4-3.1-2.5-5.3-3.5
	c-4.3-1.8-8.6-2.3-12.9-1.4c-3.4,0.7-6.6,2.1-9.6,4.4c-4.1,3.1-7.3,7.1-9.5,11.9c-1.7,3.7-2.5,7.1-2.4,10.4c0.1,3.5,1.3,6.5,3.5,9.2
	c2,2.3,4.8,4.2,8.5,5.7C313.4,78.1,316.4,78.6,319.3,78.2z M388.5,307.4l-3.9,12H372l10.2,7.4l-3.9,12l10.2-7.4l10.2,7.4l-3.9-12
	l10.2-7.4h-12.6L388.5,307.4z M357,133l-3,9.3h-9.8l7.9,5.8l-3,9.3l7.9-5.8l7.9,5.8l-3-9.3l7.9-5.8H360L357,133z M156.6,87.7l-3-9.3
	l-3,9.3h-9.8l7.9,5.8l-3,9.3l7.9-5.8l7.9,5.8l-3-9.3l7.9-5.8H156.6z M302.4,125.6c0.1-0.2,0.3-0.3,0.5-0.4c-0.3-0.8,0.5-1.4,1.2-0.9
	c0.5,0.4,4.1,4.6,5.2,5.7c0.1,0.1,0.8,0.9,1,1c0.2-1.9,0.7-2.6,1.3-4.6c0.1-0.4,0.6-0.6,1-0.4c0.6,0.3,0.6,0.8,1.5,4
	c0.3,1.1,0.8,2.2,1.1,3.3c0.2,0.6,0.3,1.1,0.4,1.7c0.7,2.3,1.7,5,1.7,5c0.1,0.3-0.2,0.6-0.5,0.5c-8.7-3.5-9.7-2.6-13.1-3.2
	c-1.2-0.2-1.2-1.8-0.2-2.1c0.4-0.1,0.8-0.3,1.3-0.4c1.8-0.5,0.5-0.1,3.3-1.1c-1.6-1.5-2.6-1.9-4.4-3.1c-1.9-1.3-2.2-1.2-2-1.2
	c-1.1-0.3-1.3-1.8-0.3-2.3c0,0,0.1,0,0.1,0c0.2-0.3,0,0,0.4-0.7c-3.4-2.6-7-4.4-11.2-5.2c-0.2,0-0.3-0.1-0.3-0.2
	c-0.3,0.2-0.7-0.7-0.8-0.9c-1.3-2.3-1.3-2.2-1.9-3c-0.3-0.5-0.8-0.7-1.3-0.8c1.1,1.6,0.8,1.2,1.6,2.6c0.1,0.2,0.3,1.1,0.4,1.1
	c0.2,0.1,0.2,0.2,0.2,0.5c0,0,0,0,0,0c0,0.2-0.4,0.3-0.5,0.1c-0.4-0.7-0.2-0.6-0.5-1.3c-0.3-0.9-1.5-1.9-2.3-3c-0.6,0-0.9,0-1.6-0.1
	c1,1.5,2,2.1,3,3.6c0.2,0.3,0.1,0.1,0.3,0.4c0.2,0.2,0.1,0.3,0,0.4c-0.3,0.3-0.8-0.5-1.1-0.8c-1-1.1-2.9-2.4-3.4-3.8
	c-0.7-0.1-1.2-0.1-1.9-0.2c0.5,0.8-0.1,0.3,2,3.4c0.1,0.2,0.2,0.3,0.3,0.4c0,0,0.8,0.9,0.8,0.9c0.2,0.1,0.3,0.3,0.1,0.4
	c0,0,0,0-1.1,1c-1,0.9-1.2,1.5-1.7,2.1c0.9-0.1,1.4-0.1,2-0.1c0,0,0,0,0.1-0.1c0.1-0.1,0.2-0.1,0.2-0.2c0,0,0,0,0,0c0,0,0,0,0,0
	c0,0,0,0,0,0c0,0,0,0,0,0h0c0.6-0.6,1.1-1,1.7-1.5c1.3-0.9,1-0.7,1.4-1.3c0.2-0.3,0.7,0,0.5,0.3c0,0-0.1,0.1-0.5,0.5
	c-1.2,1.2-1.1,1-1.8,1.9c-0.1,0.2-0.3,0.3-0.4,0.5c0,0,0,0.1-0.1,0.1c0.8,0.2,1.1-0.1,4.2-2.3c0.3-0.2,1.2-1,1.5-0.8
	c0.1,0.1,0.2,0.2,0.1,0.3c-0.1,0.5-1.2,1.1-1.4,1.2c-1,0.7-2,1.5-3,2.2c-0.4,0.3-1,0.5-1.5,0.7c-0.2,0.1-0.4,0.2-0.5,0.2
	c-0.3,0-0.6,0-0.9,0c-0.4,0-0.8,0-1.2,0c-2.1,0-3.4,0.3-5.2,0c-0.2,0-0.3-0.2-0.3-0.4c0-0.1,0-0.1,0.1-0.2c0.4-0.8,0,0,0.3-0.6
	c0.1-0.3,0.4-0.5,0.7-0.7c0.1,0,0.6-0.3,0.6-0.4c0.5-0.4,0.7-0.5,1.1-0.9c0.2-0.2,0.4-0.4,0.5-0.5c0.4-0.4,0.8-0.7,1.3-1
	c0.2-0.1,0.4,0,0.5,0.1c0.1,0.1,0.1,0.3-0.1,0.4c-0.4,0.3-0.8,0.6-1.1,0.9c-1.2,1.2-1.2,1.3-2.1,1.8c-0.7,0.4-0.6,0.4-0.8,0.7
	c0.1,0,0.2,0,0.3-0.1c0.6-0.2,0.6-0.3,1.7-0.5c0,0,0-0.1,0.1-0.1c0,0,0,0,0,0c0,0,0,0,0,0c0.3-0.5,1.1-1.1,1.1-1.1
	c0.2-0.1,0.9-0.6,1.1-0.7c0.7-0.4,0.7-0.5,2-1.7c0,0,0,0,0,0c0,0-0.3-0.4-0.7-0.9c-0.1-0.1-0.2-0.3-0.4-0.4
	c-2.8-3.8-1.9-2.1-3.2-3.7c-0.5,0-1.9,0-2.1,0c0.3,0.2,1.2,1,1.5,1.2c0,0,1.5,1.7,2.5,2.6c0.1,0.1,0.1,0.3,0,0.4
	c-0.1,0.1-0.3,0.1-0.4,0c0,0,0,0,0,0c-1.6-1.8-2-1.7-2.6-2.3c-1-0.7-1.4-1-3-1.9c-0.5-0.3-0.3-1,0.4-1c1.7,0,2.7,0,3.6,0.1
	c0.2-0.2,0.4-0.2,0.6-0.1c0,0,0.1,0.1,0.3,0.2c0,0,0,0,0,0c5.2,0.3,3.1-0.3,6.7,0.4c2.6,0.5,2.3,1.6,2.8,2.6
	c0.4,0.8,1.2,1.5,1.6,2.7c0.2-0.3,0.6-0.2,1-0.2C294.2,120.6,299.5,122.4,302.4,125.6z M302.4,127.2c0.8,0.4,1.8,1.6,3.7,3.1
	c2.3,1.9,2.7,2.6,3.4,3.3c0.3,0.3,0.2,0.7-0.1,0.8c-0.6,0.2-1.2,0.6-2.6,1.5c1.1,0.4,1.6,0.6,2.5,1c1.3,0.1,1.9,0.9,4.8,0.9
	c0.4,0,1.1-0.1,1.6,0c-1.2-3.1-1.8-3.9-2.4-5.8c-0.5-1.7-0.8-2.4-1.1-3c-0.6,1.1-0.9,1.8-1,3.1c0,0.5-0.5,0.6-0.8,0.3
	c-3.4-3.3-4.4-4.7-6.8-6.6C303.3,126.4,302.9,126.8,302.4,127.2z M75.2,321.4c-0.5-0.1-1-0.1-1.4,0c-0.7,0.1-1.3,0.3-1.9,0.6
	c-0.6,0.3-1.1,0.6-1.6,1.1c-0.3,0.2-0.6,0.5-0.8,0.8c-0.2,0.2-0.3,0.4-0.4,0.6c0,0,0,0,0,0.1c0,0,0,0,0-0.1
	c-0.1-0.3-0.2-0.5-0.4-0.7c-0.3-0.4-0.6-0.7-1-0.9c-0.7-0.5-1.5-0.9-2.4-1c-0.6-0.1-1.2-0.1-1.8,0c-0.9,0.2-1.9,0.8-2.4,1.7
	c-0.4,0.7-0.6,1.5-0.7,2.4c0,0.6,0,1.1,0.1,1.7c0.2,0.9,0.4,1.7,0.8,2.4c0.3,0.7,0.7,1.3,1.2,1.9c0.7,1.1,1.6,2.1,2.4,3.1
	c0.7,0.8,1.4,1.7,2.1,2.5c0.5,0.5,0.9,1,1.4,1.4c0.1,0.1,0.2,0.2,0.3,0.3c0.2,0.1,0.4,0.1,0.6,0c0.1-0.1,0.2-0.1,0.3-0.2
	c0.5-0.4,1-0.8,1.4-1.3c0.9-0.9,1.7-1.9,2.5-2.9c0.4-0.5,0.7-0.9,1-1.4c0.5-0.7,1.1-1.5,1.6-2.2c0.4-0.6,0.7-1.2,1-1.8
	c0.4-1,0.7-2,0.8-3c0-0.7,0-1.4-0.2-2.1c-0.1-0.5-0.3-0.9-0.5-1.3C76.8,322.1,76.1,321.6,75.2,321.4z M48.1,302.4
	c-0.3-0.2-0.7-0.3-1.1-0.4c-0.5-0.1-1.1-0.2-1.7-0.1c-0.5,0-1,0.2-1.6,0.3c-0.3,0.1-0.6,0.2-0.9,0.4c-0.2,0.1-0.3,0.2-0.5,0.3
	c0,0,0,0,0,0c0,0,0,0,0-0.1c0-0.2,0-0.5-0.1-0.7c-0.1-0.4-0.3-0.7-0.5-1c-0.4-0.6-0.9-1.1-1.5-1.5c-0.4-0.3-0.9-0.4-1.4-0.5
	c-0.7-0.1-1.7,0.1-2.3,0.6c-0.5,0.4-0.9,1-1.2,1.6c-0.2,0.4-0.3,0.9-0.4,1.3c-0.1,0.7-0.2,1.4-0.1,2.1c0.1,0.6,0.2,1.2,0.3,1.8
	c0.3,1,0.6,2.1,0.9,3.1c0.3,0.8,0.6,1.7,0.9,2.5c0.2,0.5,0.4,1,0.7,1.5c0.1,0.1,0.1,0.2,0.2,0.3c0.1,0.2,0.2,0.2,0.4,0.2
	c0.1,0,0.2,0,0.3-0.1c0.5-0.1,1-0.3,1.5-0.6c0.9-0.4,1.8-1,2.7-1.5c0.4-0.3,0.8-0.5,1.2-0.8c0.6-0.4,1.2-0.8,1.8-1.3
	c0.4-0.3,0.9-0.7,1.3-1.1c0.6-0.6,1.1-1.3,1.5-2.1c0.2-0.5,0.4-1.1,0.5-1.7c0.1-0.4,0-0.8,0-1.2C49.1,303.3,48.7,302.8,48.1,302.4z
	 M81.3,292.3c0.6-1.5,1.1-3,1.2-4.6c0.1-1.1,0-2.1-0.2-3.2c-0.2-0.7-0.4-1.4-0.8-2c-0.7-1.1-1.7-1.8-3-2.1c-0.7-0.1-1.5-0.1-2.2,0
	c-1,0.1-2,0.5-2.9,0.9c-0.9,0.4-1.7,1-2.5,1.6c-0.5,0.4-0.9,0.8-1.3,1.2c-0.2,0.3-0.4,0.6-0.6,0.9c0,0,0,0,0,0.1c0,0,0-0.1,0-0.1
	c-0.2-0.4-0.4-0.8-0.6-1.1c-0.4-0.5-0.9-1-1.4-1.4c-1.1-0.8-2.3-1.3-3.7-1.6c-0.9-0.2-1.8-0.2-2.7,0c-1.4,0.3-2.9,1.2-3.6,2.5
	c-0.6,1.1-0.9,2.3-1,3.6c-0.1,0.9,0,1.7,0.2,2.6c0.2,1.3,0.6,2.5,1.2,3.7c0.5,1,1.1,2,1.8,2.9c1.1,1.6,2.4,3.2,3.6,4.8
	c1.1,1.3,2.1,2.5,3.3,3.8c0.7,0.8,1.4,1.5,2.2,2.2c0.2,0.1,0.3,0.3,0.5,0.4c0.3,0.2,0.6,0.2,0.9,0.1c0.2-0.1,0.4-0.2,0.5-0.3
	c0.8-0.6,1.5-1.2,2.2-2c1.3-1.4,2.6-2.9,3.7-4.4c0.5-0.7,1.1-1.4,1.6-2.1c0.8-1.1,1.6-2.2,2.4-3.4C80.4,294.2,80.9,293.3,81.3,292.3
	z M204.7,259.2l42.7-10.6l0,0c0.1,0.1,6.8-1.5,14.9-3.5c8.2-2,14.9-3.8,14.9-3.9h0l4.9-1.2c0,0,7.6-2.2,11.9-4.8
	c4.2-2.5,10-7.1,11.7-10.4c1.6-3.3,2.8-6,4.2-7.9c1.4-1.9,4.6-3.6,6.9-4.2c2.3-0.6,6.4-1,9.8,1.1c3.4,2.2,4.3,6.1,3.7,8.2
	c-0.6,2.1-2.4,9.3-17.2,8.7c-9.8-0.4-19.5,9.2-24.9,15.6l0,0l0,0c0,0-0.2,0.1-0.5,0.5c-0.3,0.3-0.7,0.8-1.1,1.3
	c-0.5,0.6-1,1.3-1.6,2c-0.1,0.2-0.3,0.4-0.5,0.6c-0.2,0.2-0.3,0.4-0.5,0.6l-0.1,0.1l-0.1,0.1c0,0,0,0-0.1,0.1c0,0,0,0-0.1,0.1
	c-0.1,0.1-0.2,0.1-0.3,0.2c-0.1,0.1-0.2,0.1-0.3,0.1c-0.1,0-0.3,0.1-0.4,0.1c-2.2,0.5-4.2,0.9-5.6,1.3c-1.4,0.3-2.3,0.6-2.3,0.6l0,0
	h0c0,0,0.9-0.1,2.4-0.4c1.5-0.3,3.5-0.7,5.7-1.2c0.1,0,0.3-0.1,0.4-0.1c0.1,0,0.3-0.1,0.4-0.2c0.1-0.1,0.3-0.2,0.4-0.3
	c0,0,0.1-0.1,0.1-0.1c0,0,0.1-0.1,0.1-0.1l0.1-0.1l0.1-0.1c0.2-0.2,0.3-0.4,0.4-0.6c0.1-0.2,0.3-0.4,0.4-0.6
	c0.6-0.8,1.1-1.5,1.5-2.1c0.9-1.2,1.4-1.9,1.4-1.9c0.4,0.3,0.8,0.7,1.1,1.1c3.1,3.6,3.8,3.2,6.1,2.8c2.3-0.4,3.5-1.5,8.2-4.5
	s8.4-3.7,12-3.1c3.6,0.7,15,1.8,19.7,2.5c4.7,0.7,9.5,1.4,12.4,5c2.8,3.5,2.1,8.7-1.3,12c-3.4,3.3-8.5,4.4-18.4,4.2
	c-10-0.2-19-5.2-22.6-7.5c-3.6-2.3-4.4-3.9-10.2-2.5c-5.7,1.4-9.2-0.1-9.2-0.1l-11.2-2.2c-10.1,2.2-26.8,5.6-40.3,8
	c-16.1,2.8-26.1-0.1-29.8-1.6c-0.2-0.1-0.4-0.3-0.4-0.6C204.3,259.5,204.4,259.3,204.7,259.2z M318.1,261.4c9.1,3.4,17.1,2,21.2,0.8
	c4.1-1.2,7.7-2.4,7.1-7.7c-0.7-6.9-14.4-6.6-19.8-7.2c-7.6-1.1-17.3-3.7-19.2,2.1C305.6,255.2,309,257.9,318.1,261.4z M309.9,225.5
	c2.4,4.9,10.1,3.1,11.6,2.6c1.5-0.5,9.6-3.6,5.9-10.4c-2.4-4.5-9.6-3.3-12-2.2C311.6,217.1,307.4,220.6,309.9,225.5z M280.4,246.2
	c-0.5-0.8-1.5-1-2.3-0.5c-0.8,0.5-1,1.5-0.5,2.3c0.5,0.8,1.5,1,2.3,0.5C280.6,248,280.9,247,280.4,246.2z M247.4,248.6L247.4,248.6
	c0-0.1,6.6-1.8,14.9-3.9c8-2,14.5-3.5,14.9-3.5l-54.3-8.6c-1.2-0.2-2.4-0.1-3.5,0.4l-14.5,5.5c-0.2,0.1-0.3,0.3-0.3,0.5
	c0,0.2,0.2,0.4,0.4,0.5L247.4,248.6z M372.2,221.7c0.2-0.5,0-1.2-0.1-1.7c-0.1-0.5-0.2-1-0.2-1.5c-0.1-2.2-0.6-3.9-0.1-6.3
	c0.1-0.8,0.2-0.8,1.7-3.4c0,0,0-0.2,0.7-0.4c0.7,0.2,0.7,0.4,0.7,0.4c0,0.1,0.2,0.5,0.3,0.6c0.1,0.2,0.2,0.4,0.3,0.7
	c0.6,1.5,1.2,3,1.4,4.7c0.2,1.3,0.3,2.7,0.2,4.2c0,0.2-0.1,0.4,0.2,0.4c0.3,0,0.4-0.3,0.6-0.5c0.4-0.6,1.1-1.5,1.7-2.2
	c1.9-2,4-3.4,6.8-4.1c0.6-0.1,1.2,0.3,1.2,0.9c0.1,3-1.1,5.3-3.3,7.1c-0.7,0.5-1.4,1-2.1,1.5c-0.2,0.1-0.8,0.4-0.8,0.7
	c0,0.3,1.3,0.1,1.5,0c2.4-0.6,3.6-0.6,6.3-0.2c1.1,0.2,1,0.2,1.8,0.3c1,0.1,1.3,0.1,1.9,0.3c0.2,0.1,0.4,0.3,0.4,0.5
	c0,1.2-1.5,1.7-2.6,2.1c-0.8,0.2-1.4,0.5-2.6,0.7c-0.3,0-1-0.1-1.2,0.2c0.2,0.3,0.8,0.3,1.2,0.6c0.8,0.6,1.1,1.2,1.4,1.5
	c0.7,0.7,3.5,2,2.7,4.2c0,0-0.1,0.1-0.1,0.2c-0.5,0.9-1.9,1-3.1,1.1c-3.1,0.5-3.5,0-6.9-2.1c-0.3-0.2-0.6-0.4-0.9-0.6
	c0.8,1,2.1,2.8,2.6,4c0.3,0.8,1.1,4.4,1.1,4.7c0,0,0-0.1,0,0.2c-0.1,0.2-0.4,0.5-0.6,0.5c-0.2,0-0.2,0-0.2,0
	c-2.5-0.3-4.2-1.2-4.8-2.1c-0.6-0.7-1.6-2.4-2-3.3c0.4,2.9-0.6,5.8-3,7.2c-0.1,0.1-0.3,0-0.4-0.1c-1-1.2-1.4-3.7-1.5-4.4
	c0-0.2,0-1.3-0.3-1.2c-0.1,0-0.2,0.4-0.2,0.5c-0.7,1.9-1.6,3.8-4.8,4.4c-0.2,0-0.3-0.1-0.3-0.2c-0.4-0.6-0.3-1.2-0.4-2.2
	c-0.1-1.3-0.4-3.4,0.3-4.6c0.1-0.2,0.2-0.4-0.2-0.3c-0.3,0.1-0.6,0.3-0.9,0.4c-1.8,0.9-5.1,1.6-5.8-0.5c-0.3-1.2,0.6-2.5,1.4-3.6
	c0.6-0.9,1.2-1.8,2.1-2.2c0.1-0.1,0.2,0,0.1-0.2c0-0.1-0.2-0.2-0.2-0.2c-0.3-0.1-0.7,0-1.1,0c-0.6-0.1-1.2-0.2-1.7-0.5
	c-1.1-0.4-2.1-1.1-3.1-1.7c-0.6-0.4-1.3-0.8-1.3-1.5c0-1.1,2.8-3.2,7-2.5c1.3,0.2,2.5,0.5,3.8,0.8c0.2,0,0.7,0.3,0.8,0.1
	c0.2-0.3-0.8-0.8-1.1-1c-2.1-1.4-3.2-2-4.3-4.1c-0.6-1.1-0.7-1.9-0.7-2.8c0-0.3,0.2-0.5,0.4-0.5c0.4-0.1,0.7-0.2,1.1-0.2
	c2.8-0.3,6.4,2.8,7.6,4.2c0.8,0.9,1.2,1.8,1.6,2.6C371.9,221.5,372,222.1,372.2,221.7z M370.1,220c-0.8-1.2-5-4.9-7.7-4.2
	c0.2,1.5,1.3,2.4,2.1,3.3c3.5,3.7,4.6,3.9,6.1,5.7c0.1,0.1,0.1,0.3,0,0.5c-0.1,0.1-0.3,0.1-0.5,0c-1.7-1.3-8-1.9-8.6-1.9
	c-1.7-0.1-3.2,0.1-4.5,1.3c-0.1,0.1-0.1,0.1-0.1,0.1c0.1,0.1,0.3,0.2,0.6,0.4c1.6,0.7,2.3,1.4,4,1.8c0.7,0.1,1.1,0.2,2.5,0
	c0.7-0.1,4.6-0.4,5.6-0.4c0.4,0,0.5,0.4,0.2,0.6c-2.9,1.7-3.4,2.1-4.1,2.6c-1.4,1-2.5,1.2-3.9,3.5c-0.6,1-0.1,0.9,0.7,0.9
	c0.8,0,1.8-0.4,2.6-0.7c0,0,0.1-0.1,0.1-0.1c2-1.2-0.2,0.4,5.8-3.7c0.3-0.3,0.8,0.1,0.5,0.5c-0.2,0.2-0.5,0.5-0.6,0.6
	c-1,1.1-1.8,2.9-2.5,4.2c-0.5,1-0.6,1-0.6,2.7c0,0.7,0,1.4-0.2,2.1c0,0.2-0.2,0.5,0,0.6c0.1,0.1,0.3,0.1,0.4,0.1
	c0.1-0.1,0.1-0.2,0.2-0.3c0.2-0.2,0.5-0.4,0.7-0.6c0.4-0.4,0.7-0.8,0.9-1.3c2.2-4.6,2-8.5,2.9-8.2c0.2,0.1,0.2,0.2,0.2,0.3
	c0.1,1.7,0.1,4,0.2,6.2c0.1,1.2,0.1,1.5,0.1,2.3c0,0.4,0,2.4,0.3,2.7c0.3,0.4,0.6-0.4,0.7-0.6c0.6-1.3,0.7-2.5,0.8-3.9
	c0.2-2.4,0.2-2.9,0-6c-0.1-0.1,0-0.4,0.2-0.4c0.1,0,0.3,0,0.4,0.1c1.5,2,2.8,5.8,4.2,7.4c0.4,0.5,1,0.8,1.6,1.1
	c0.3,0.1,0.6,0.3,0.9,0.3c0.9,0-0.3-3.5-0.6-4.1c-0.8-1.5-1.8-2.8-2.8-4.1c-0.6-0.9-1.4-1.8-2.2-2.6c-0.3-0.2,0-0.7,0.3-0.6
	c0.6,0.3,1.2,0.5,1.8,0.9c4.1,2,2.7,1.1,5.4,2.1c0.6,0.2,1.2,0.4,1.7,0.6c0.7,0.2,1.1,0.5,1.9,0.7c0.2,0,1.6,0,2.1-0.2
	c-0.2-0.6-1.7-1.4-2.2-1.7c-1.2-0.8-1-2-8.4-3.4c-0.6-0.1-1.4-0.3-2-0.6c-0.4-0.1-0.2-0.8,0.3-0.6c0,0,0,0,0.8-0.1
	c1.8-0.1,2.6,0.1,5.9-0.3c1.2-0.2,2,0,3.8-0.3c1-0.2,0.5-0.1,1.8-0.5c0.5-0.1,1.3-0.3,1.6-0.6c-0.8-0.1-1.1-0.1-2,0
	c-2.1,0.1-4.2-0.6-6.3-0.6c-0.6,0-2.2,0.2-2.9,0.4c-0.5,0.2-1,0.2-1.6,0.3c-0.2,0-0.5,0-0.7-0.1c-0.3-0.3,0.3-0.5,0.5-0.7
	c4.8-3.7,6.5-7.6,6.6-8.3c-0.6,0.3-1.2,0.6-1.7,1c-3.3,2-6.4,3.9-7.3,7.6c0,0.2-0.2,0.3-0.4,0.3c-0.2,0-0.3-0.3-0.3-0.4
	c0-0.2,0.1-0.4,0.1-0.6c0.7-4.2,0.3-8.1-1.6-11.9c-0.2,0.6-0.4,1.1-0.3,1c-0.1,0.7-1.2,4.7-1,7.7c0.1,1.7,0.5,3.8,0.5,3.8
	c0,0.3-0.2,0.5-0.5,0.3C371.9,223.4,371,221.3,370.1,220z M372.4,227.9c0.2,0.1,0.5,0.3,0.8,0.4c0.7,0.3,1.6,0.4,2.3-0.1
	c0.6-0.5,1.2-1.7,0.4-2.3c-0.3-0.2-0.7-0.3-1.1-0.5c-0.4-0.2-0.9-0.4-1.3-0.3c-0.4,0.1-0.6,0.3-0.9,0.5c-0.4,0.4-0.5,0.6-0.6,1.1
	C371.9,227.2,371.9,227.6,372.4,227.9z M381.3,186.2c0.1-0.1-0.4-0.4-0.6-0.5c-1.1-0.7-1.6-1-2.2-2.1c-0.3-0.5-0.4-1-0.4-1.4
	c0-0.1,0.1-0.2,0.2-0.3c0.2-0.1,0.4-0.1,0.6-0.1c1.5-0.2,3.3,1.4,3.9,2.2c0.4,0.5,0.6,0.9,0.8,1.4c0,0.1,0.1,0.4,0.2,0.2
	c0.1-0.2,0-0.6-0.1-0.9c0-0.3-0.1-0.5-0.1-0.8c0-1.1-0.3-2-0.1-3.3c0.1-0.4,0.1-0.4,0.9-1.8c0,0,0-0.1,0.4-0.2
	c0.3,0.1,0.4,0.2,0.4,0.2c0,0.1,0.1,0.3,0.1,0.3c0.1,0.1,0.1,0.2,0.1,0.3c0.3,0.8,0.6,1.5,0.7,2.4c0.1,0.7,0.2,1.4,0.1,2.2
	c0,0.1,0,0.2,0.1,0.2c0.2,0,0.2-0.2,0.3-0.3c0.2-0.3,0.6-0.8,0.9-1.1c1-1.1,2.1-1.8,3.5-2.1c0.3-0.1,0.6,0.2,0.6,0.5
	c0,1.6-0.6,2.8-1.7,3.7c-0.4,0.3-0.7,0.5-1.1,0.8c-0.1,0.1-0.4,0.2-0.4,0.3c0,0.2,0.7,0,0.8,0c1.2-0.3,1.9-0.3,3.3-0.1
	c0.6,0.1,0.5,0.1,0.9,0.2c0.5,0.1,0.7,0.1,1,0.2c0.1,0,0.2,0.1,0.2,0.3c0,0.6-0.8,0.9-1.4,1.1c-0.4,0.1-0.7,0.3-1.3,0.4
	c-0.2,0-0.5,0-0.6,0.1c0.1,0.1,0.4,0.2,0.6,0.3c0.4,0.3,0.6,0.6,0.7,0.8c0.3,0.4,1.8,1,1.4,2.2c0,0,0,0.1,0,0.1
	c-0.3,0.4-1,0.5-1.6,0.6c-1.6,0.2-1.8,0-3.6-1.1c-0.2-0.1-0.3-0.2-0.5-0.3c0.4,0.5,1.1,1.5,1.4,2.1c0.2,0.4,0.5,2.3,0.5,2.5
	c0,0,0,0,0,0.1c0,0.1-0.2,0.2-0.3,0.2c-0.1,0-0.1,0-0.1,0c-1.3-0.1-2.1-0.6-2.5-1.1c-0.3-0.4-0.8-1.3-1-1.7c0.2,1.5-0.3,3-1.5,3.7
	c-0.1,0-0.2,0-0.2-0.1c-0.5-0.6-0.7-1.9-0.8-2.3c0-0.1,0-0.7-0.2-0.6c0,0-0.1,0.2-0.1,0.3c-0.4,1-0.8,2-2.5,2.3
	c-0.1,0-0.1-0.1-0.1-0.1c-0.2-0.3-0.2-0.6-0.2-1.2c0-0.7-0.2-1.8,0.2-2.4c0.1-0.1,0.1-0.2-0.1-0.1c-0.2,0-0.3,0.2-0.5,0.2
	c-0.9,0.4-2.6,0.8-3-0.2c-0.2-0.6,0.3-1.3,0.7-1.9c0.3-0.5,0.6-0.9,1.1-1.1c0.1,0,0.1,0,0.1-0.1c0,0-0.1-0.1-0.1-0.1
	c-0.2,0-0.4,0-0.5,0c-0.3,0-0.6-0.1-0.9-0.2c-0.6-0.2-1.1-0.6-1.6-0.9c-0.3-0.2-0.7-0.4-0.7-0.8c0-0.6,1.4-1.6,3.6-1.3
	c0.7,0.1,1.3,0.2,2,0.4C381,186.2,381.2,186.3,381.3,186.2z M383.1,187.4c-0.1,0.1-0.2,0.1-0.2,0c-0.9-0.7-4.1-1-4.5-1
	c-0.9,0-1.7,0-2.3,0.7c0,0-0.1,0.1,0,0c0,0.1,0.2,0.1,0.3,0.2c0.8,0.4,1.2,0.7,2.1,0.9c0.4,0.1,0.6,0.1,1.3,0c0.4,0,2.4-0.2,2.9-0.2
	c0.2,0,0.3,0.2,0.1,0.3c-1.5,0.9-1.8,1.1-2.1,1.3c-0.7,0.5-1.3,0.6-2,1.8c-0.3,0.5,0,0.4,0.3,0.5c0.4,0,0.9-0.2,1.3-0.4
	c0,0,0.1,0,0.1,0c1-0.6-0.1,0.2,3-1.9c0.1-0.1,0.4,0.1,0.2,0.2c-0.1,0.1-0.3,0.2-0.3,0.3c-0.5,0.6-0.9,1.5-1.3,2.2
	c-0.2,0.5-0.3,0.5-0.3,1.4c0,0.4,0,0.7-0.1,1.1c0,0.1-0.1,0.2,0,0.3c0,0,0.1,0.1,0.2,0c0.1,0,0.1-0.1,0.1-0.1
	c0.1-0.1,0.3-0.2,0.4-0.3c0.2-0.2,0.3-0.4,0.5-0.7c1.1-2.4,1-4.4,1.5-4.3c0.1,0,0.1,0.1,0.1,0.2c0.1,0.9,0.1,2.1,0.1,3.2
	c0,0.6,0.1,0.8,0.1,1.2c0,0.2,0,1.2,0.1,1.4c0.2,0.2,0.3-0.2,0.3-0.3c0.3-0.7,0.4-1.3,0.4-2c0.1-1.3,0.1-1.5,0-3.1
	c0-0.1,0-0.2,0.1-0.2c0.1,0,0.1,0,0.2,0.1c0.8,1,1.4,3,2.2,3.8c0.2,0.3,0.5,0.4,0.8,0.5c0.1,0.1,0.3,0.2,0.5,0.2
	c0.5,0-0.1-1.8-0.3-2.1c-0.4-0.8-1-1.4-1.4-2.1c-0.3-0.5-0.7-0.9-1.1-1.3c-0.2-0.1,0-0.4,0.2-0.3c0.3,0.1,0.6,0.3,1,0.4
	c2.1,1.1,1.4,0.6,2.8,1.1c0.3,0.1,0.6,0.2,0.9,0.3c0.4,0.1,0.6,0.3,1,0.3c0.1,0,0.8,0,1.1-0.1c-0.1-0.3-0.9-0.7-1.1-0.9
	c-0.6-0.4-0.5-1-4.3-1.7c-0.3-0.1-0.7-0.1-1-0.3c-0.2-0.1-0.1-0.4,0.1-0.3c0,0,0,0,0.4,0c0.9-0.1,1.3,0.1,3-0.2c0.6-0.1,1.1,0,2-0.2
	c0.5-0.1,0.3-0.1,1-0.2c0.2-0.1,0.7-0.2,0.9-0.3c-0.4-0.1-0.6,0-1,0c-1.1,0.1-2.2-0.3-3.3-0.3c-0.3,0-1.1,0.1-1.5,0.2
	c-0.3,0.1-0.5,0.1-0.8,0.1c-0.1,0-0.3,0-0.3-0.1c-0.1-0.2,0.2-0.3,0.3-0.4c2.5-1.9,3.4-3.9,3.4-4.3c-0.3,0.2-0.6,0.3-0.9,0.5
	c-1.7,1-3.3,2-3.8,3.9c0,0.1-0.1,0.2-0.2,0.1c-0.1,0-0.2-0.2-0.1-0.2c0-0.1,0-0.2,0-0.3c0.4-2.2,0.2-4.2-0.8-6.2
	c-0.1,0.3-0.2,0.6-0.2,0.5c-0.1,0.4-0.6,2.4-0.5,4c0.1,0.9,0.3,2,0.3,2c0,0.2-0.1,0.2-0.2,0.2c-0.5-0.3-1-1.4-1.5-2
	c-0.4-0.6-2.6-2.5-4-2.2c0.1,0.8,0.6,1.3,1.1,1.7c1.8,1.9,2.4,2,3.2,3C383.2,187.2,383.2,187.3,383.1,187.4z M384,188.7
	c0.1,0.1,0.3,0.1,0.4,0.2c0.4,0.1,0.8,0.2,1.2,0c0.3-0.2,0.6-0.9,0.2-1.2c-0.2-0.1-0.4-0.2-0.5-0.2c-0.2-0.1-0.4-0.2-0.7-0.2
	c-0.2,0-0.3,0.1-0.5,0.3c-0.2,0.2-0.3,0.3-0.3,0.6C383.7,188.3,383.7,188.5,384,188.7z M394.6,263.6c-0.2,0-0.5,0-0.6,0.1
	c0.1,0.1,0.4,0.2,0.6,0.3c0.4,0.3,0.6,0.6,0.7,0.8c0.3,0.4,1.8,1,1.4,2.2c0,0,0,0.1,0,0.1c-0.3,0.4-1,0.5-1.6,0.6
	c-1.6,0.2-1.8,0-3.6-1.1c-0.2-0.1-0.3-0.2-0.5-0.3c0.4,0.5,1.1,1.5,1.4,2.1c0.2,0.4,0.5,2.3,0.5,2.5c0,0,0,0,0,0.1
	c0,0.1-0.2,0.2-0.3,0.2c-0.1,0-0.1,0-0.1,0c-1.3-0.1-2.1-0.6-2.5-1.1c-0.3-0.4-0.8-1.3-1-1.7c0.2,1.5-0.3,3-1.5,3.7
	c-0.1,0-0.2,0-0.2-0.1c-0.5-0.6-0.7-1.9-0.8-2.3c0-0.1,0-0.7-0.2-0.6c0,0-0.1,0.2-0.1,0.3c-0.4,1-0.8,2-2.5,2.3
	c-0.1,0-0.1-0.1-0.1-0.1c-0.2-0.3-0.2-0.6-0.2-1.2c0-0.7-0.2-1.8,0.2-2.4c0.1-0.1,0.1-0.2-0.1-0.1c-0.2,0-0.3,0.2-0.5,0.2
	c-0.9,0.4-2.6,0.8-3-0.2c-0.2-0.6,0.3-1.3,0.7-1.9c0.3-0.5,0.6-0.9,1.1-1.1c0.1,0,0.1,0,0.1-0.1c0,0-0.1-0.1-0.1-0.1
	c-0.2,0-0.4,0-0.5,0c-0.3,0-0.6-0.1-0.9-0.2c-0.6-0.2-1.1-0.6-1.6-0.9c-0.3-0.2-0.7-0.4-0.7-0.8c0-0.6,1.4-1.6,3.6-1.3
	c0.7,0.1,1.3,0.2,2,0.4c0.1,0,0.3,0.1,0.4,0.1c0.1-0.1-0.4-0.4-0.6-0.5c-1.1-0.7-1.6-1-2.2-2.1c-0.3-0.5-0.4-1-0.4-1.4
	c0-0.1,0.1-0.2,0.2-0.3c0.2-0.1,0.4-0.1,0.6-0.1c1.5-0.2,3.3,1.4,3.9,2.2c0.4,0.5,0.6,0.9,0.8,1.4c0,0.1,0.1,0.4,0.2,0.2
	c0.1-0.2,0-0.6-0.1-0.9c0-0.3-0.1-0.5-0.1-0.8c0-1.1-0.3-2-0.1-3.3c0.1-0.4,0.1-0.4,0.9-1.8c0,0,0-0.1,0.4-0.2
	c0.3,0.1,0.4,0.2,0.4,0.2c0,0.1,0.1,0.3,0.1,0.3c0.1,0.1,0.1,0.2,0.1,0.3c0.3,0.8,0.6,1.5,0.7,2.4c0.1,0.7,0.2,1.4,0.1,2.2
	c0,0.1,0,0.2,0.1,0.2c0.2,0,0.2-0.2,0.3-0.3c0.2-0.3,0.6-0.8,0.9-1.1c1-1.1,2.1-1.8,3.5-2.1c0.3-0.1,0.6,0.2,0.6,0.5
	c0,1.6-0.6,2.8-1.7,3.7c-0.4,0.3-0.7,0.5-1.1,0.8c-0.1,0.1-0.4,0.2-0.4,0.3c0,0.2,0.7,0,0.8,0c1.2-0.3,1.9-0.3,3.3-0.1
	c0.6,0.1,0.5,0.1,0.9,0.2c0.5,0.1,0.7,0.1,1,0.2c0.1,0,0.2,0.1,0.2,0.3c0,0.6-0.8,0.9-1.4,1.1C395.5,263.3,395.2,263.5,394.6,263.6z
	 M389.4,263.2c0,0,0,0,0.4,0c0.9-0.1,1.3,0.1,3-0.2c0.6-0.1,1.1,0,2-0.2c0.5-0.1,0.3-0.1,1-0.2c0.2-0.1,0.7-0.2,0.9-0.3
	c-0.4-0.1-0.6,0-1,0c-1.1,0.1-2.2-0.3-3.3-0.3c-0.3,0-1.1,0.1-1.5,0.2c-0.3,0.1-0.5,0.1-0.8,0.1c-0.1,0-0.3,0-0.3-0.1
	c-0.1-0.2,0.2-0.3,0.3-0.4c2.5-1.9,3.4-3.9,3.4-4.3c-0.3,0.2-0.6,0.3-0.9,0.5c-1.7,1-3.3,2-3.8,3.9c0,0.1-0.1,0.2-0.2,0.1
	c-0.1,0-0.2-0.2-0.1-0.2c0-0.1,0-0.2,0-0.3c0.4-2.2,0.2-4.2-0.8-6.2c-0.1,0.3-0.2,0.6-0.2,0.5c-0.1,0.4-0.6,2.4-0.5,4
	c0.1,0.9,0.3,2,0.3,2c0,0.2-0.1,0.2-0.2,0.2c-0.5-0.3-1-1.4-1.5-2c-0.4-0.6-2.6-2.5-4-2.2c0.1,0.8,0.6,1.3,1.1,1.7
	c1.8,1.9,2.4,2,3.2,3c0.1,0.1,0.1,0.2,0,0.2c-0.1,0.1-0.2,0.1-0.2,0c-0.9-0.7-4.1-1-4.5-1c-0.9,0-1.7,0-2.3,0.7c0,0-0.1,0.1,0,0
	c0,0.1,0.2,0.1,0.3,0.2c0.8,0.4,1.2,0.7,2.1,0.9c0.4,0.1,0.6,0.1,1.3,0c0.4,0,2.4-0.2,2.9-0.2c0.2,0,0.3,0.2,0.1,0.3
	c-1.5,0.9-1.8,1.1-2.1,1.3c-0.7,0.5-1.3,0.6-2,1.8c-0.3,0.5,0,0.4,0.3,0.5c0.4,0,0.9-0.2,1.3-0.4c0,0,0.1,0,0.1,0
	c1-0.6-0.1,0.2,3-1.9c0.1-0.1,0.4,0.1,0.2,0.2c-0.1,0.1-0.3,0.2-0.3,0.3c-0.5,0.6-0.9,1.5-1.3,2.2c-0.2,0.5-0.3,0.5-0.3,1.4
	c0,0.4,0,0.7-0.1,1.1c0,0.1-0.1,0.2,0,0.3c0,0,0.1,0.1,0.2,0c0.1,0,0.1-0.1,0.1-0.1c0.1-0.1,0.3-0.2,0.4-0.3
	c0.2-0.2,0.3-0.4,0.5-0.7c1.1-2.4,1-4.4,1.5-4.3c0.1,0,0.1,0.1,0.1,0.2c0.1,0.9,0.1,2.1,0.1,3.2c0,0.6,0.1,0.8,0.1,1.2
	c0,0.2,0,1.2,0.1,1.4c0.2,0.2,0.3-0.2,0.3-0.3c0.3-0.7,0.4-1.3,0.4-2c0.1-1.3,0.1-1.5,0-3.1c0-0.1,0-0.2,0.1-0.2
	c0.1,0,0.1,0,0.2,0.1c0.8,1,1.4,3,2.2,3.8c0.2,0.3,0.5,0.4,0.8,0.5c0.1,0.1,0.3,0.2,0.5,0.2c0.5,0-0.1-1.8-0.3-2.1
	c-0.4-0.8-1-1.4-1.4-2.1c-0.3-0.5-0.7-0.9-1.1-1.3c-0.2-0.1,0-0.4,0.2-0.3c0.3,0.1,0.6,0.3,1,0.4c2.1,1.1,1.4,0.6,2.8,1.1
	c0.3,0.1,0.6,0.2,0.9,0.3c0.4,0.1,0.6,0.3,1,0.3c0.1,0,0.8,0,1.1-0.1c-0.1-0.3-0.9-0.7-1.1-0.9c-0.6-0.4-0.5-1-4.3-1.7
	c-0.3-0.1-0.7-0.1-1-0.3C389,263.5,389.1,263.1,389.4,263.2z M387.8,263c-0.2-0.1-0.4-0.2-0.7-0.2c-0.2,0-0.3,0.1-0.5,0.3
	c-0.2,0.2-0.3,0.3-0.3,0.6c0,0.2,0,0.5,0.2,0.6c0.1,0.1,0.3,0.1,0.4,0.2c0.4,0.1,0.8,0.2,1.2,0c0.3-0.2,0.6-0.9,0.2-1.2
	C388.2,263.1,388,263.1,387.8,263z"/>
</svg>
