<?xml version="1.0" encoding="utf-8"?>
<!-- Generator: Adobe Illustrator 18.0.0, SVG Export Plug-In . SVG Version: 6.00 Build 0)  -->
<!DOCTYPE svg PUBLIC "-//W3C//DTD SVG 1.1//EN" "http://www.w3.org/Graphics/SVG/1.1/DTD/svg11.dtd">
<svg version="1.1" id="Layer_1" xmlns="http://www.w3.org/2000/svg" xmlns:xlink="http://www.w3.org/1999/xlink" x="0px" y="0px"
	 viewBox="0 0 432 432" enable-background="new 0 0 432 432" xml:space="preserve">
<path fill="#333333" d="M62.9,138.1c-2.5-0.7-4.7-1.7-6.6-3.1c-1.9-1.4-3.5-2.9-4.7-4.4c-1.5-1.7-2.7-3.6-3.6-5.7
	c-1.4-2.4-2.3-5-2.6-7.8c-0.4-2.8-0.5-5.4-0.5-7.8c0-2.7,0.2-5.3,0.6-8c0.6-3.1,1.4-5.7,2.4-8c1-2.2,2.1-4.1,3.2-5.7
	c1.3-1.7,2.6-3.2,4-4.6c1-0.7,1.9-1.1,2.9-1.3c1-0.1,1.8,0.4,2.5,1.5c0.6,1.3,0.7,2.3,0.4,3.3c-0.3,0.9-0.8,1.8-1.7,2.6
	c-0.8,0.8-1.8,1.8-2.9,2.7c-1.1,1-2.2,2.2-3.1,3.6c-0.6,0.8-1,1.9-1.5,3.1c-0.4,1.1-0.8,2.4-1,3.8c-0.3,1.4-0.4,3-0.4,4.8
	c0,1.7,0.1,3.4,0.4,5.2c0.3,1.5,0.7,3.3,1.1,5.1c0.5,1.9,1.3,3.7,2.4,5.4c1.1,1.7,2.4,3.2,4,4.6c1.3,1.1,2.9,2.2,4.8,3.1
	c1.9,1,4.2,1.4,6.9,1.3c3.3-0.3,6.4-2.2,9.1-5.7c2.7-3.5,4.1-8.7,4.3-15.5c-0.1-3.9-0.6-7.4-1.5-10.5c-0.8-3.1-2-6-3.4-8.8
	c-1.4-2.8-3.1-5.6-5.2-8.3c-2.1-2.7-4.5-5.7-7.1-8.9c-4.5-5.3-7.6-9.8-9.2-13.3s-2.7-5.9-2.9-7c-1.4-4.8-2.1-9.1-2-13
	c0.1-3.9,0.5-7.3,1.2-10.3c0.7-3.4,1.7-6.4,3.1-9.2c1.1-2.1,2.5-4,4.2-5.7c1.5-1.5,3.4-2.9,5.7-4c2.2-1.1,5-1.7,8.2-1.9
	c1.8,0,3.6,0.3,5.5,0.8c1.5,0.4,3.2,1.1,4.9,2c1.7,0.9,3.3,2.3,4.7,4.1c0.9,1,1.6,2.2,2.1,3.8c0.6,1.3,1.1,2.8,1.6,4.6
	c0.5,1.8,0.9,3.9,1.2,6.1c0,0.4,0,0.9,0,1.5c0,0.6-0.1,1.2-0.2,1.9c0,1.7-0.3,3.4-1,5.1c-0.6,1.8-2,2.4-3.9,2
	c-1.4-0.6-2.3-1.4-2.8-2.5c-0.4-1.4-0.4-3.2,0.1-5.5c0.5-2.2,0.5-4.7,0.1-7.3c-0.3-1.8-0.8-3.3-1.6-4.5c-0.8-1.2-1.6-2.1-2.4-2.8
	c-1-0.8-2-1.5-3.1-1.9c-1.5-0.6-2.8-0.8-3.9-0.6c-1.1,0.1-1.9,0.4-2.6,0.6c-1.3,0.4-2.6,1.5-4.1,3.3c-1.5,1.8-2.5,4.8-3,9.1
	c-0.1,0.8-0.3,2.1-0.5,3.9c-0.2,1.8-0.3,3.7-0.2,5.8c0.1,2.1,0.3,4.3,0.7,6.6c0.4,2.3,1.2,4.5,2.3,6.6c0.8,2,2.2,4.5,4.2,7.7
	c2,3.1,4.8,7,8.4,11.4c3.7,4.5,6.6,8.3,8.7,11.3c0.6,1,1.4,2.4,2.3,4.2c1,1.8,1.9,4,2.8,6.5c0.9,2.5,1.5,5.4,2,8.6
	c0.5,3.2,0.6,6.7,0.3,10.5c-0.1,2.9-0.7,5.8-1.7,8.6c-0.8,2.4-2.1,4.9-3.8,7.6c-1.7,2.7-3.9,5-6.7,6.9c-1.8,1.1-3.9,2-6.1,2.5
	c-2,0.6-4.2,0.9-6.8,1.1C69,139.5,66.1,139,62.9,138.1z M223.7,96.5c0.1,1.1-0.1,1.8-0.8,2.1c-0.4,0.1-0.8,0.1-1.3,0h-1
	c-1,0-2-0.2-2.9-0.6c-0.3,2.1-0.6,4.3-1,6.7c-0.4,2.4-1,5-1.7,7.8c-0.4,2-1,4.3-1.7,7.1c-0.7,2.8-1.7,5.5-3,8.1
	c-1.3,2.6-3,4.9-4.9,6.8c-2,2-4.3,3-7.1,3.1c-3.5,0.1-6.3-0.8-8.5-2.9c-2.2-2.1-4-5.7-5.4-10.7c-1.8,4.9-4.2,9.1-7.2,12.5
	c-3,3.4-7,5-11.9,4.7c-3.6-0.3-6.7-1.5-9.1-3.8c-2.5-2.2-4.4-5.1-5.8-8.5c-1.2-2.9-2.1-6.1-2.6-9.5c-1.4,3.3-3.2,6.6-5.3,9.8
	c-2.9,4.3-6.8,7.3-11.5,8.8c-3.6,1.1-7.6,1.2-11.8,0.2c-2.4-0.6-4.4-1.6-6.1-3.1c-1.7-1.5-3.1-3.4-4.2-5.6c-1.1-2.2-2-4.5-2.6-7.1
	c-0.6-2.6-1.1-5.2-1.4-7.9c-0.7-6.2-0.7-13.1,0-20.8c0.8-5.6,2.1-10.4,3.8-14.3c1.4-3.4,3.4-6.2,5.9-8.5c2.5-2.3,5.7-2.7,9.4-1.2
	c2.4,1,4.2,2.8,5.4,5.5c1.2,2.7,2,5.7,2.3,9.1c0.3,3.4,0.2,7-0.3,10.8c-0.6,3.8-1.4,7.3-2.4,10.6c-1.1,3.3-2.4,6.2-4,8.6
	c-1.6,2.5-3.3,4-5.1,4.5c0.4,3.4,1.2,6.3,2.2,8.9c1.1,2.6,2.6,4,4.7,4.3c2.2,0.1,4.3-0.3,6.1-1.3c1.8-1,3.4-2.3,4.8-4
	c1.4-1.7,2.7-3.5,3.8-5.5c1.1-2,2-3.8,2.7-5.7c0.3-0.7,0.5-1.4,0.7-2.2c0.2-0.8,0.5-1.5,0.7-2.2c0.3-0.8,0.6-1.7,0.8-2.7
	c0-0.3,0.1-0.5,0.2-0.7c0-0.7-0.1-1.5-0.1-2.2c-0.1-3.8,0-7.1,0.3-10.1c0.3-2.9,0.6-5,0.8-6.3c0.6-3.5,1.3-6.6,2.1-9.2
	c0.7-2.4,1.7-4.5,2.9-6.3c1.3-1.8,2.9-2.7,4.8-2.5c1.5,0.1,2.7,0.8,3.5,2c0.8,1.2,1.3,2.8,1.5,4.7c0.2,2,0.2,4.1,0,6.5
	c-0.2,2.4-0.5,4.8-0.9,7.1c-0.4,2.7-0.7,6.4-0.9,11.1c-0.2,4.8-0.2,9.5,0.1,14.3c0.3,4.8,0.8,8.9,1.6,12.4c0.8,3.5,1.9,5.3,3.5,5.5
	c2,0.1,3.7-0.8,5.2-2.8c1.5-2,2.8-5,3.9-8.9c1.1-3.9,1.9-8.6,2.6-14.2c0.7-5.5,1.2-11.8,1.5-18.8c0.1-0.8,0.3-1.8,0.5-2.8
	c0.2-1.1,0.6-2,1-2.8c0.5-0.8,1.2-1.5,2-2c0.8-0.5,1.9-0.6,3.1-0.3c2.8,0.7,4.8,2.3,5.9,4.8c1.1,2.5,1.8,5,2.1,7.3
	c0.3,3.5,0.6,7,0.9,10.5c0.3,3.5,0.7,6.8,0.9,9.8c0.3,3,0.5,5.6,0.7,7.8c0.2,2.2,0.4,3.6,0.5,4.3c0.3,0.8,0.7,1.6,1.2,2.4
	c0.5,0.8,1.1,1.3,1.8,1.6c1.7,0.6,3.1-0.2,4.4-2.3c1.3-2.1,2.3-4.9,3.3-8.5c0.9-3.6,1.6-7.6,2.2-12.1c0.6-4.5,1-8.9,1.3-13.2
	c-2.1-1.5-4.1-3.6-6.1-6.1c-2-2.5-3.4-6-4.4-10.5c-1.1-4.9-1.4-8.7-0.9-11.3c0.5-2.7,1.2-4.7,2.2-6.1c1.1-1.5,2.6-2.5,4.4-2.9
	c2.9,0,5.5,1.3,7.6,3.8c1.8,2.1,3.3,5.5,4.4,10.3c1.1,4.8,1.3,11.7,0.4,20.8c1.5,1,2.8,1.7,3.9,2.2
	C223.2,95.2,223.7,95.8,223.7,96.5z M123.2,106.7c1.5-3.1,2.3-8,2.6-14.6c0-2.2-0.1-4.3-0.2-6.1c-0.1-1.5-0.4-3.1-0.6-4.6
	c-0.3-1.5-0.8-2.6-1.5-3.1c-0.6,0-1.1,0.8-1.7,2.5c-0.6,1.5-1.1,4-1.6,7.2c-0.5,3.3-0.9,8.1-1.4,14.4c-0.1,1-0.2,2-0.2,3.1
	c0,1,0,2.1,0,3.4s0.1,2.7,0.2,4.2C120.3,112,121.8,109.8,123.2,106.7z M211.1,86c0-4.3-0.2-7.7-0.6-10.1c-0.4-2.5-1.1-4.4-1.9-5.8
	c-0.8-1.3-1.6-1.9-2.2-1.8c-0.6,0.1-0.9,1-0.9,2.6c0,1.6,0.6,4.2,1.9,7.7C208.4,81.7,209.7,84.2,211.1,86z M232.5,44.6
	c-1.3,0.7-2.1,1.7-2.4,2.9c-0.4,1.3-0.5,2.7-0.3,4.3c0.1,1.6,0.5,3.2,1,4.7c0.6,1.5,1.1,2.9,1.5,4c0.3,0.6,0.5,0.9,0.6,1
	c0.7,1.1,1.2,1.8,1.5,1.9c0.3,0.1,0.5,0.2,0.6,0.2c1,0.3,1.7-0.2,2.1-1.5c0.6-1.3,0.9-3,0.9-5.2c0.1-2.2-0.1-4.4-0.4-6.5
	c-0.4-2.1-1-3.8-1.9-5C234.9,44.2,233.8,43.9,232.5,44.6z M387.2,149.7c-0.1,0.6-0.5,1.2-1.2,1.6c-1.1,0.7-2.3,1.4-3.7,2.1
	c-1.3,0.7-2.6,1.3-3.9,1.7c-2.8,1.1-5.7,1.9-8.6,2.3c-2.9,0.4-5.9,0.8-8.8,1.1c-0.1,1-0.2,2-0.3,2.9c-0.1,1-0.2,2-0.5,2.9
	c-0.6,3.2-1.2,6.4-2,9.7c-0.8,3.2-1.9,6.3-3.5,9.2c-1.1,2.4-2.6,4.7-4.3,6.8c-1.8,2.2-3.9,3.8-6.4,4.9c-2.7,1-5.5,1.4-8.4,1.3
	c-4.9-0.4-8.8-2.5-11.8-6.1c-1.5-1.8-2.9-3.8-4.1-6c-1.2-2.2-2-4.4-2.4-6.8c-0.3-2.4-0.1-4.8,0.6-7.2c0.7-2.5,1.9-4.7,3.6-6.6
	c1.5-1.8,3.4-3.2,5.6-4.2c2.2-1,4.4-1.8,6.8-2.5c2.8-0.8,5.6-1.4,8.3-1.7c2.7-0.3,5.5-0.6,8.3-0.8c0-5.9-0.2-11.4-0.5-16.5
	c-0.4-5.1-0.7-8.9-0.9-11.2c-1.1,3.2-2.8,5.9-5,8.1c-2.2,2.2-5.8,3.2-10.7,3c-4.1-0.1-7.5-1.5-10.2-4.2c-2.7-2.7-4.9-5.8-6.5-9.6
	c-0.8-1.8-1.5-3.7-2-5.6c-0.7,1.5-1.4,3.1-2.3,4.6c-1.7,3.1-3.7,5.7-6.1,8c-2.4,2.2-5.2,3.3-8.6,3.1c-4.8-0.3-8.3-2.7-10.2-7.1
	c-2-4.5-3.1-11.9-3.2-22.3c-0.1-1.4-0.2-2.8-0.1-4.1c0.1-1.3,0.1-2.6,0.1-3.7v-3.8c-0.1-4.9-0.6-8.3-1.4-10.1
	c-0.8-1.8-1.8-2.7-3-2.5c-2,0.3-3.9,3.6-5.8,10.1c-1.9,6.4-3.8,15.3-5.8,26.5c-0.1,0.4-0.3,1.3-0.4,2.5c-0.1,1.3-0.3,2.6-0.4,4
	c-0.3,2-0.6,3.8-0.8,5.5c-0.3,1.7-0.6,3.1-1.1,4.4c-0.8,3.4-2,5-3.6,5c-0.8,0.1-1.6,0.1-2.3-0.2c-0.7-0.3-1.4-0.8-2.1-1.5
	c-0.7-0.7-1.2-1.8-1.5-3.4c-0.4-2.1-0.8-6.2-1-12.2c0-0.1,0-0.2,0-0.3c-0.3,0.7-0.7,1.3-1,2c-1.7,3.1-3.7,5.7-6.1,8
	c-2.4,2.2-5.2,3.3-8.6,3.1c-3.2-0.1-5.8-1.3-7.7-3.5c-1.9-2.2-3.3-5.5-4.2-10.1c-0.9-4.5-1.4-10.5-1.5-17.8
	c-0.1-7.3,0.1-16.4,0.5-27.2c0-1.8,0.2-3.5,0.6-5c0.3-1.3,0.7-2.4,1.4-3.5c0.6-1.1,1.6-1.5,3-1.4c0.3,0.1,0.6,0.2,0.8,0.2
	c0.3,0.1,0.5,0.2,0.7,0.2s0.5,0.1,0.7,0.4c1.1,0.7,2.4,2.3,4,4.9c1.5,2.6,2.2,7,2.1,13.1c-0.1,3.8-0.2,7.7-0.3,11.9
	c-0.1,4.1-0.2,8.1-0.3,11.8c-0.1,3.7-0.2,6.9-0.2,9.7c0,2.7,0.1,4.5,0.2,5.4c0,1.1,0.4,2.2,1.3,3.4c0.8,1.1,2,1.5,3.4,1.1
	c1.4-0.4,3-2,4.9-4.8c1.8-2.6,3.7-7,5.8-12.9c-0.1-2.6-0.1-5.3-0.1-8.2c-0.1-7.1,0-13.9,0.2-20.6c0.2-6.6,0.6-11.7,1.2-15
	c0.1-1.4,0.5-2.7,1-3.8c0.4-1,0.9-1.9,1.6-2.7c0.6-0.8,1.5-1.3,2.6-1.3c2.8,0,4.8,1,6,3c1.2,2,1.6,5.6,1.4,10.8v18.1
	c1.5-5.3,3.4-9.9,5.5-13.6c2.1-3.8,4.7-5.7,7.6-5.9c3.2-0.1,6.1,0.7,8.7,2.5c2.1,1.7,4,4.5,5.6,8.5c1.6,4,2.3,10,2,18
	c-0.1,1.7-0.2,3.3-0.2,4.8c0,1.5,0,2.9,0,4c-0.1,3.6-0.2,6.8-0.2,9.4c0,2.7,0.1,4.4,0.2,5.2c0,1.1,0.4,2.2,1.3,3.4
	c0.8,1.1,2,1.5,3.4,1.1c1.4-0.4,3-2,4.9-4.8c1.8-2.6,3.7-6.9,5.8-12.8c-0.4-3-0.5-5.6-0.4-7.8c0-6.7,0.8-12.7,2.3-18.1
	c0.6-2.2,1.4-4.4,2.4-6.6c1-2.2,2.4-4.1,4-5.9c1.6-1.7,3.5-3.2,5.7-4.3c2.2-1.1,4.7-1.7,7.7-1.9c2.8,0,5.4,0.6,7.8,1.9
	c2,1.1,3.9,2.9,5.8,5.5c1.9,2.5,3,6.3,3.5,11.3c1-0.7,2-1,3.1-0.8c5,0.7,7.6,4.3,7.6,10.9c-0.1,4.3-0.2,8.5-0.2,12.4
	c0,3.4,0,6.9-0.1,10.5c-0.1,3.6,0,6.7,0.1,9c0.1,4.6,0.2,9.2,0.1,13.9c-0.1,4.6-0.3,9.2-0.7,13.6c3.9-0.3,7.8-0.9,11.5-1.8
	c3.8-0.9,7.3-2.5,10.7-4.7c0.6-0.4,1.2-0.5,1.8-0.3c0.6,0.2,1.1,0.6,1.4,1.2C387.1,148.5,387.2,149.1,387.2,149.7z M348.6,93.8
	c0-0.6-0.1-1.9-0.4-4.1c-0.3-2.2-0.7-4.5-1.4-6.9c-0.6-2.4-1.4-4.8-2.4-6.9c-1-2.2-2.3-3.7-4-4.5c-3.4-1.5-6.2,0.1-8.6,4.9
	c-2.4,4.8-3.9,13.3-4.6,25.5c-0.3,7.3-0.1,12.9,0.5,17c0.6,4.1,1.4,7.1,2.4,9c1.1,2.4,2.4,3.8,3.8,4.2c2.4,0.7,4.5,0.2,6.4-1.4
	c1.9-1.6,3.4-3.7,4.5-6.2c1.4-3.1,2.4-6.4,2.9-10c0.6-3.6,0.9-6.9,1.1-10C349,100.8,348.9,97.3,348.6,93.8z M350.3,159.9
	c-3.1,0.6-6.4,1.4-10.1,2.5c-3.6,1.1-6.9,2.6-9.8,4.5c-2.9,1.9-4.9,4.2-6.2,6.8c-1.3,2.7-1,5.9,0.6,9.7c0.1,0.3,0.4,0.7,0.7,1.4
	c0.3,0.6,0.9,1.3,1.6,2c2,2.4,4.3,3.9,7.1,4.6c2.9,0.3,5.4-0.4,7.2-2.1c1.9-1.7,3.5-4,4.7-6.9c1.3-2.9,2.2-6.4,2.7-10.3
	C349.6,168.2,350,164.1,350.3,159.9z M144.1,162.6c-1.5,0-3,0.8-4.4,2.3c-1.4,1.5-2.5,3.5-3.4,5.9c-0.2-1.5-0.5-2.8-0.9-4
	c-1.1-2.8-3-4.2-5.7-4.2c-1.5,0-3,0.8-4.4,2.3c-1.4,1.5-2.6,3.5-3.5,6c0.1-1.1,0.1-2.1,0.1-2.9c0-1.2-0.2-2.3-0.5-3.3
	c-0.5-1.4-1.2-2.1-2.2-2.1c-1.1,0-2,0.4-2.5,1.3c-0.6,0.9-1,2.1-1.2,3.6c-0.2,1.5-0.3,3.2-0.3,5.1c0,5.8,0.5,10.3,1.6,13.5
	c0.8,2.5,2,3.7,3.4,3.7c0.2,0,0.4-0.1,0.5-0.2c0.1-0.1,0.1-0.3,0.1-0.7c0-3.7,0.3-7,0.8-9.7c0.5-2.7,1.5-5.2,2.7-7.4
	c1.2-2,2.3-3,3.4-3c2.1,0,3.2,5.2,3.2,15.5c0,1.9,0.1,3.2,0.4,3.9c0.3,0.7,0.6,1,1.1,1c1,0,2.3-3.4,3.7-10.1
	c0.5-2.7,1.4-5.2,2.7-7.4c1.2-2,2.3-3,3.4-3c2.1,0,3.2,4.4,3.2,13.2c0,1.7,0,3-0.1,4.1c0,1.1-0.1,2.1-0.1,2.9c0,0.5,0.2,0.7,0.7,0.7
	c0.5,0,1-0.4,1.5-1.2c0.5-0.8,1-1.8,1.5-3.1s0.9-2.7,1.2-4.3c0.3-1.6,0.6-3,0.7-4.3c0.1-1.3,0.1-2.3,0.1-3.1c0-2.7-0.4-5.1-1.1-6.9
	C148.7,164,146.8,162.6,144.1,162.6z M176.7,180.6c0,0.5-0.1,1.2-0.4,2.1c-0.7,2.2-2.1,4-4.1,5.4c-1.6,1.1-3.5,1.7-5.9,1.7
	c-3.3,0-5.9-1-7.8-3c-2.2-2.3-3.3-5.8-3.3-10.2c0-2.2,0.4-4.4,1.1-6.4c0.8-2.1,2-3.8,3.8-5.1c2.1-1.6,4.5-2.4,7.2-2.4
	c3,0,5.3,1,6.8,2.9c1,1.2,1.4,2.8,1.4,4.8c0,2.1-0.7,4-2,5.6c-1.6,1.8-3.9,2.7-7.1,2.7c-1.9,0-3.5-0.4-4.8-1.1c0,0.5,0,1,0,1.5
	c0.1,2.2,0.8,3.9,1.9,5.2c1,1.1,2.4,1.7,4,1.7c2.9,0,5.4-1.8,7.7-5.5c0.2-0.3,0.5-0.5,0.7-0.5C176.5,179.8,176.7,180.1,176.7,180.6z
	 M161.9,175c0.7,0.7,1.8,1,3,1c2,0,3.7-0.6,5-1.7c1-0.9,1.6-2.1,1.6-3.5c0-1.8-0.9-2.8-2.8-2.8c-1.5,0-2.7,0.4-3.7,1.3
	C163.5,170.6,162.4,172.5,161.9,175z M197.4,162.6c-1.9,0-3.7,0.8-5.5,2.3c-1.9,1.7-3.5,3.9-4.6,6.7c0.1-1.4,0.1-2.6,0.1-3.6
	c0-1.2-0.2-2.3-0.5-3.3c-0.5-1.4-1.2-2.1-2.2-2.1c-1.1,0-2,0.4-2.5,1.3c-0.6,0.9-1,2.1-1.2,3.6c-0.2,1.5-0.3,3.2-0.3,5.1
	c0,5.8,0.5,10.3,1.6,13.5c0.8,2.5,1.9,3.7,3.4,3.7c0.2,0,0.4-0.1,0.5-0.2c0.1-0.1,0.1-0.3,0.1-0.7c0-3.7,0.3-7,1-9.7
	c0.7-2.7,1.8-5.2,3.4-7.4c1.6-2.2,3.1-3.3,4.6-3.3c2.2,0,3.3,4.5,3.3,13.4c0,1.7,0,3-0.1,4.1c0,1.1,0,2.1,0,2.9
	c0,0.5,0.2,0.7,0.7,0.7c0.5,0,1-0.4,1.5-1.2c0.5-0.8,1-1.8,1.5-3.1c0.5-1.3,0.9-2.7,1.2-4.3c0.3-1.6,0.6-3,0.7-4.3
	c0.1-1.3,0.1-2.3,0.1-3.1c0-2.7-0.4-5.1-1.1-6.9C202,164,200.1,162.6,197.4,162.6z M209.1,174.4c0.6-2,1.4-3.8,2.6-5.5s2.5-3,4-4.1
	c1.6-1,3.4-1.6,5.3-1.6c1.9,0,3.6,0.4,5,1.3c0.5,0.3,1,0.7,1.3,1.1v-1.3c0-4.7,0.3-8.1,0.8-10.2c0.7-2.9,2.1-4.4,4.1-4.4
	c1.7,0,2.7,1.2,2.8,3.7c0,0.6,0.1,1.1,0.1,1.6c0,2.3-0.3,6.7-0.9,13c-0.8,9.1-1.3,16-1.3,20.7c0,0.6-0.2,0.9-0.6,0.9
	c-2.3,0-3.9-4.5-4.6-13.5c-0.8,4.2-2.4,7.6-4.9,10.3c-2,2.1-4.3,3.2-6.8,3.2c-1.7,0-3.1-0.4-4.2-1.3c-1.2-0.8-2-2-2.6-3.4
	c-0.6-1.4-0.9-3-0.9-4.7C208.2,178.4,208.5,176.5,209.1,174.4z M214.3,181c0,0.6,0.1,1.2,0.3,1.8c0.2,0.6,0.5,1,0.9,1.4
	c0.4,0.4,0.9,0.6,1.6,0.6c1.2,0,2.3-0.4,3.2-1.2c2.1-1.8,3.8-4.6,5.1-8.6c0.5-1.5,1.1-3.6,1.9-6.3c-0.5-0.2-1.1-0.3-1.7-0.3
	c-2.1,0-4,0.6-5.7,1.7c-1.7,1.2-3,2.7-4,4.6C214.8,176.6,214.3,178.7,214.3,181z M247.8,185.8c-0.5,0.2-1.1,0.3-1.6,0.3
	c-1.7,0-3.2-0.7-4.5-2c-0.9-1-1.6-1.9-1.9-2.8c-0.1-0.4-0.4-0.6-0.7-0.6c-0.6,0-0.8,0.5-0.8,1.5c0,1.8,0.6,3.4,1.8,4.9
	c1.5,1.9,3.7,2.8,6.4,2.8c1.8,0,3.4-0.3,4.7-1c1.3-0.7,2.2-1.6,2.9-2.7c0.7-1.1,1-2.4,1-3.9c0-1.4-0.3-2.6-0.9-3.5
	c-0.6-0.9-1.4-1.6-2.3-2.2c-0.9-0.6-1.8-1.1-2.8-1.6c-2.7-1.4-4-2.9-4-4.3c0-0.8,0.3-1.4,1-1.8c0.6-0.5,1.4-0.7,2.4-0.7
	c0.7,0,1.4,0.1,1.9,0.3c0.6,0.2,1.1,0.5,1.5,0.8c0.4,0.3,0.8,0.6,1.1,0.8c0.3,0.3,0.6,0.5,0.8,0.6c0.2,0.2,0.4,0.2,0.6,0.2
	c0.3,0,0.5-0.2,0.7-0.5c0.2-0.3,0.3-0.7,0.3-1.1c0-1.2-0.3-2.2-0.9-3.2c-0.6-1-1.5-1.8-2.7-2.4c-1.2-0.6-2.6-0.9-4.2-0.9
	c-2.6,0-4.7,0.8-6.4,2.3c-1.7,1.5-2.6,3.5-2.6,5.9c0,3.1,1.4,5.5,4.1,7c0.8,0.5,1.6,0.9,2.4,1.3c0.8,0.4,1.6,0.8,2.3,1.2
	c1.5,0.9,2.3,2,2.3,3.3c0,0.5-0.2,1-0.5,1.3C248.8,185.4,248.4,185.6,247.8,185.8z M253.2,272.1v-8.9c0-0.9,0-2.1-0.1-3.5
	c0-1.4-0.1-2.9-0.3-4.3c-0.1-1.4-0.3-2.7-0.6-3.9c-0.3-1.1-0.6-1.9-1.1-2.2c-0.4-0.3-0.8,0-1.4,0.9c-0.5,0.9-1.1,2.2-1.7,3.8
	c-0.6,1.6-1.2,3.5-1.8,5.6c-0.6,2.1-1.2,4.2-1.8,6.4c-0.6,2.2-1.1,4.2-1.5,6.2c-0.4,2-0.7,3.7-1,5c-0.1,0.6-0.3,1.2-0.7,1.6
	c-0.3,0.5-0.7,0.8-1.2,1.2c-0.5,0.3-1.2,0.4-1.9,0.3c-0.2,0-0.4-0.1-0.7-0.2c-0.3-0.1-0.6-0.5-0.9-1c-0.3-0.5-0.7-1.3-1-2.4
	c-0.2-0.7-0.4-1.5-0.6-2.4c-0.6,2.2-1.3,4.4-2.3,6.8c-1.2,2.9-2.6,5.6-4.2,7.9c-1.6,2.3-3.5,3.4-5.6,3.3c-1.4-0.1-2.7-0.6-3.8-1.5
	c-1.1-0.9-2-2.6-2.7-4.9c-0.7-2.4-1.2-5.7-1.5-10c-0.3-4.2-0.4-9.8-0.2-16.8l0.1-13.7c0-4.2,0-8.2,0-11.7c0-3.6,0.1-6.8,0.3-9.8
	c-3.2,0.1-6.3,0.1-9.6,0.1c-3.2,0-6.4,0-9.7,0h-1.6c-0.4,0-0.6,0-0.8-0.1c-0.6-0.2-1.2-0.5-1.7-0.9c-0.5-0.4-0.5-1.2,0.1-2.2
	c0.4-0.8,0.9-1.2,1.5-1.3c0.6,0,1.4,0.1,2.2,0.3c0.9,0.3,1.8,0.6,2.9,1c1.1,0.4,2.3,0.7,3.7,0.7h13.1c0.1-1.7,0.2-3.4,0.4-5
	c0.1-1.1,0.3-2.1,0.5-3.1c0.2-0.7,0.5-1.4,0.9-2.1c0.4-0.7,1-1.1,1.7-1.2c1.8-0.2,3.1,0.5,3.9,2s1.2,4.6,1.1,9.3
	c2.7-0.1,5.4-0.1,8.1-0.1c0.8,0,1.6,0,2.4,0c0.1-3.2,0.3-6,0.6-8.1c0.1-1.5,0.3-2.9,0.5-4.2c0.2-1.1,0.5-2.1,0.9-3
	c0.4-0.9,1-1.4,1.7-1.4c1.8,0,3.1,1.2,4,3.5c0.9,2.3,1.2,6,1,11.2c0,0.6,0,1.3,0,2.1c3.4,0.1,6.7,0.2,10.1,0.3
	c4.4,0.1,8.7-0.1,13.1-0.6c1.4-0.2,2.4,0,2.9,0.6c0.5,0.6,0.7,1.2,0.6,1.9c-0.1,0.7-0.3,1.3-0.7,1.8c-0.4,0.5-0.8,0.6-1.3,0.3
	c-0.5-0.3-1.2-0.5-2.1-0.7c-0.9-0.2-2-0.4-3.1-0.5c-1.1-0.1-2.1-0.2-3.1-0.3c-1-0.1-1.7-0.1-2-0.1c-2.9,0.1-5.8,0.1-8.7,0
	c-1.9-0.1-3.8-0.1-5.7-0.2c0,0.6,0,1.2,0,1.8c0,2.8,0,6-0.1,9.6c0,3.6-0.1,7.4-0.1,11.4c0,4-0.2,7.9-0.3,11.7
	c0.5-1.8,1.1-3.5,1.7-5.2c0.6-1.7,1.2-3.2,1.9-4.5c0.7-1.4,1.4-2.5,2.2-3.3c0.8-0.9,1.6-1.3,2.4-1.4c0.5,0,0.9,0,1.3-0.1
	c0.4,0,0.8,0,1.3,0.1c1.2,0.1,2.4,0.5,3.5,1.1c1.1,0.6,2,1.7,2.7,3.2c0.8,1.5,1.3,3.5,1.7,6c0.4,2.5,0.6,5.7,0.6,9.5
	c0,0.6,0,1.3-0.1,2c0,0.7-0.1,1.4-0.1,2.1c0,2,0,4-0.1,6c0,2-0.1,3.8-0.1,5.6c0,1.7,0,3.2,0,4.4c0,1.2,0,2,0.1,2.4
	c0.1,0.7,0.4,1.2,1,1.3c0.6,0.1,1.4-0.4,2.3-1.6c0.9-1.2,2-3.1,3.2-5.9c1.2-2.8,2.4-6.7,3.8-11.9c0.1-0.4,0.2-0.7,0.2-1.1
	c-0.1-2.7,0-5.5,0.3-8.5c0.5-3.6,1.4-6.7,2.4-9.2c0.9-2.2,2.2-4,3.8-5.5c1.6-1.5,3.7-1.7,6.1-0.7c1.5,0.6,2.7,1.8,3.5,3.5
	c0.8,1.7,1.3,3.7,1.5,5.9c0.2,2.2,0.2,4.5-0.2,7c-0.4,2.4-0.9,4.7-1.6,6.8c-0.7,2.1-1.5,4-2.6,5.6c-1,1.6-2.1,2.6-3.3,2.9
	c0.3,2.2,0.7,4.1,1.4,5.8c0.7,1.7,1.7,2.6,3.1,2.8c1.4,0.1,2.8-0.2,3.9-0.8c1.2-0.6,2.2-1.5,3.1-2.6c0.9-1.1,1.7-2.3,2.4-3.5
	c0.7-1.3,1.3-2.5,1.8-3.7c0.2-0.5,0.3-0.9,0.5-1.4c0.1-0.5,0.3-1,0.5-1.4c0.2-0.5,0.4-1.1,0.5-1.8c0.2-1,0.5-1.9,0.8-2.6
	c0.2-0.6,0.4-1.2,0.7-1.7c0.3-0.5,0.6-0.7,0.9-0.7c1.3,0.3,1.5,1.8,0.8,4.6c-0.2,0.6-0.4,1.3-0.5,1.9c-0.2,0.5-0.3,1.1-0.5,1.7
	c-0.1,0.6-0.3,1.1-0.5,1.4c-1,3-2.4,5.9-4.3,8.7c-1.9,2.8-4.4,4.7-7.5,5.7c-2.4,0.7-4.9,0.8-7.6,0.1c-1.5-0.4-2.8-1-3.9-2
	c-1.1-1-2-2.2-2.7-3.6c-0.7-1.4-1.3-2.9-1.7-4.6c-0.1-0.5-0.2-1-0.3-1.6c-0.6,1.9-1.2,3.9-2,5.9c-1.1,2.9-2.5,5.6-4.1,7.9
	c-1.6,2.3-3.5,3.4-5.7,3.3c-1.2-0.1-2.2-0.4-3.1-0.9c-0.9-0.5-1.8-1.6-2.5-3.1c-0.7-1.5-1.3-3.5-1.7-6.1S253.3,276.2,253.2,272.1z
	 M281.7,267.9c0,0.8,0,1.7,0.1,2.7c0.9-0.7,1.8-2.1,2.8-4.1c0.9-2,1.5-5.2,1.7-9.4c0-1.4,0-2.8-0.1-3.9c-0.1-1-0.2-2-0.4-3
	c-0.2-1-0.5-1.7-0.9-2c-0.4,0-0.7,0.5-1.1,1.6c-0.4,1-0.7,2.6-1,4.7c-0.3,2.1-0.6,5.2-0.9,9.3c-0.1,0.6-0.1,1.3-0.1,2
	C281.7,266.4,281.7,267.1,281.7,267.9z M233.5,267.8c0.2-0.9,0.5-1.6,0.7-2.3c-0.1-2.7-0.2-5.8-0.3-9.3c-0.1-3.7-0.1-7.5-0.1-11.7
	c0-4.1,0-8.1,0.1-12c0.1-3.1,0.2-6.1,0.3-8.9c-0.8,0-1.5,0-2.3,0c-2.7,0-5.4,0-8.1,0.1c-0.1,3.1-0.1,7.5,0,13.4
	c0.1,5.8,0,12.1-0.3,18.9c0,1.1,0,2.5-0.1,4.2c0,1.7-0.1,3.6-0.1,5.7c0,2.1-0.1,4.2-0.1,6.4c0,2.2-0.1,4.2-0.1,6
	c0,1.9,0,3.5,0.1,4.8c0,1.4,0.1,2.3,0.2,2.7c0.1,0.7,0.4,1.2,1,1.3c0.6,0.1,1.3-0.4,2.2-1.6c0.9-1.2,1.9-3.1,3.1-5.9
	C230.9,276.9,232.2,272.9,233.5,267.8z M138.3,346.8c-1.3-3.9-2.8-7.3-4.3-10.1c-1.5-2.8-2.8-5-3.6-6.5c-3.3-4.8-7.8-10.6-13.5-17.6
	c-5.6-6.9-10-12.8-13-17.7c-3-4.9-5.2-8.8-6.5-11.9c-1.7-3.3-2.9-6.7-3.6-10.2c-0.7-3.6-1-7-1.1-10.2c-0.1-3.3,0-6.2,0.3-8.9
	c0.3-2.7,0.6-4.7,0.8-6c0.9-6.7,2.4-11.4,4.7-14.1c2.3-2.7,4.4-4.4,6.3-5c1.1-0.4,2.4-0.8,4.1-1c1.6-0.2,3.6,0.1,6,1
	c1.7,0.7,3.4,1.6,4.9,2.9c1.3,1.1,2.6,2.6,3.8,4.4c1.2,1.8,2,4.2,2.5,7c0.7,4.1,0.6,7.9-0.2,11.4c-0.8,3.5-0.8,6.3-0.2,8.5
	c0.7,1.7,2.1,3,4.3,3.9c3.1,0.7,5.1-0.4,6.1-3.1c1-2.7,1.5-5.4,1.5-8c0.2-1.1,0.3-2.1,0.3-2.9c0-0.9,0-1.6,0-2.3
	c-0.4-3.5-1-6.6-1.8-9.4c-0.8-2.8-1.6-5.2-2.5-7.2c-0.9-2.4-2-4.3-3.3-5.9c-2.2-2.8-4.6-4.9-7.3-6.3c-2.6-1.4-5.1-2.4-7.5-3.1
	c-2.8-0.9-5.6-1.3-8.5-1.3c-5,0.2-9.2,1.2-12.7,2.9c-3.5,1.7-6.4,3.8-8.8,6.2c-2.6,2.6-4.8,5.5-6.5,8.8c-2.2,4.3-3.8,9.1-4.9,14.3
	c-1.1,4.6-1.7,9.9-1.8,15.9c-0.1,6.1,0.9,12.8,3.1,20.2c0.4,1.7,2,5.4,4.6,10.9c2.6,5.5,7.4,12.4,14.3,20.7c4.1,5,7.8,9.6,11.1,13.8
	c3.3,4.2,6,8.5,8.1,12.8c2.2,4.3,3.9,8.9,5.2,13.7c1.3,4.8,2.1,10.2,2.3,16.3c-0.2,10.6-2.4,18.6-6.6,24.1
	c-4.2,5.4-8.9,8.4-14.1,8.8c-4.1,0.2-7.7-0.4-10.7-2c-3-1.5-5.5-3.1-7.4-4.9c-2.4-2.2-4.4-4.6-6.1-7.2c-1.7-2.6-3-5.4-3.7-8.3
	c-0.8-2.9-1.3-5.6-1.8-8c-0.4-2.8-0.6-5.5-0.6-8.1c0-2.8,0.2-5.3,0.6-7.5c0.4-2.2,1-4.1,1.6-5.9c0.6-2,1.4-3.6,2.3-4.9
	c1.5-2.2,3.1-4,4.9-5.5c1.7-1.5,3.2-2.9,4.5-4.2c1.3-1.3,2.2-2.7,2.6-4.1c0.4-1.4,0.2-3.1-0.6-5c-1.1-1.7-2.4-2.5-3.9-2.3
	c-1.5,0.2-3,0.9-4.5,2c-2.2,2.2-4.2,4.6-6.1,7.2c-1.7,2.4-3.4,5.3-5,8.8c-1.6,3.5-2.9,7.6-3.7,12.4c-0.7,4.1-1,8.2-1,12.4
	c0,3.7,0.3,7.7,0.8,12c0.5,4.3,1.9,8.3,4.1,12c1.3,3.3,3.1,6.2,5.5,8.8c2,2.4,4.4,4.7,7.3,6.8c2.9,2.2,6.3,3.8,10.2,4.9
	c5,1.5,9.5,2.2,13.5,2c4-0.2,7.5-0.8,10.6-1.6c3.5-0.9,6.6-2.2,9.4-3.9c4.3-3,7.8-6.6,10.4-10.7c2.6-4.1,4.6-8,5.9-11.7
	c1.5-4.3,2.4-8.8,2.6-13.3c0.4-5.9,0.3-11.3-0.5-16.3C140.7,355.1,139.6,350.7,138.3,346.8z M380.5,361.4c0.3,1.7-0.1,4.4-1.1,8.1
	c-0.4,1.7-1.3,4.9-2.4,9.6c-1.2,4.7-2.9,9.4-5.2,14.3c-2.3,4.9-5.2,9.2-8.8,12.8c-3.6,3.7-8,5.3-13.2,4.9c-3-0.2-5.9-0.9-8.6-2.1
	c-2.8-1.2-5.1-4.2-7-8.9c-0.8-2-1.5-4.5-2.2-7.3c-0.7,2-1.5,4-2.3,6c-1.7,4.3-3.7,8.3-5.9,11.9c-2.2,3.6-4.7,6.4-7.5,8.6
	c-2.8,2.2-6,3.1-9.4,2.9c-8.9-0.4-14.8-8.2-17.7-23.3c-2.9-15.1-4-38.5-3.1-70.4c-1.8,7.6-3.6,15.8-5.6,24.7
	c-2,8.9-4.2,17.3-6.6,25.2c-2.4,7.9-5,14.8-7.9,20.7c-2.9,5.9-5.9,9.5-9.2,11.1c-2.8,1.3-5.4,1.6-8,1c-2.4-0.4-4.6-1.7-6.9-3.7
	c-2.2-2.1-4.2-5.9-5.9-11.5c-0.7-1.7-1.1-3.6-1.3-5.7c-0.2-2.1-0.4-4-0.7-5.7c-0.2-2.2-0.2-4.2,0-6.2c-0.2-11.1-0.2-21.8,0.2-32.2
	c0.1-2.5,0.2-4.8,0.3-7c-4.2,1.3-8.4,2.4-12.8,3.1c-0.2,5.9-0.8,13.3-1.8,22.3c-1,9-2.8,17.7-5.4,26.2c-2.6,8.5-6.3,15.7-11.2,21.6
	c-4.9,6-11.3,8.7-19.4,8.3c-5.6-0.2-10.4-1.7-14.3-4.4c-3.9-2.7-7-6.1-9.3-10.1c-2.3-4-3.9-8.5-4.9-13.3c-1-4.9-1.6-9.6-2-14.1
	c-0.3-4.6-0.3-8.7,0.2-12.4c0.4-3.7,0.9-6.5,1.3-8.5c0.9-4.1,2-7.8,3.3-11.1c1.1-2.8,2.7-5.3,4.7-7.5c2.1-2.2,4.6-3.1,7.6-2.9
	c5,0.4,7.5,2.8,7.5,7.2c0,4.3-0.5,10.3-1.6,17.9c-0.7,4.1-1,8.9-1.1,14.5c-0.1,5.5,0.1,10.9,0.7,16.1c0.5,5.2,1.5,9.6,2.9,13.2
	c1.4,3.6,3.3,5.5,5.7,5.7c2.8,0.2,5.4-1.2,7.8-4.2c2.4-3,4.4-7.5,6-13.3c1.6-5.9,3-13,4.1-21.5c1.1-8.5,1.8-17.9,2.3-28.3
	c-8-0.4-15.4-1.8-22.3-4.1c-6.8-2.3-12.4-5.3-16.7-8.9c-4.3-3.7-7.3-8.8-8.9-15.3c-1.6-6.5-1.6-12.8,0-18.9
	c1.6-6.1,5-11.1,10.2-15.1c5.2-4,12.6-5.6,22.1-4.7c7.6,0.7,13.5,3.5,17.9,8.6c4.3,5.1,7.6,10.7,9.8,16.9c2.2,6.2,3.6,12.1,4.2,17.9
	c0.7,5.7,1,9.6,1,11.5c4.5-0.4,8.9-1,13.2-1.8c0.3-2.7,0.7-5,1.1-7c0.2-2.2,0.7-4.2,1.6-6.2c0.6-1.5,1.4-2.9,2.2-4.2
	c0.9-1.3,2.1-2,3.8-2c4.3,0,7.3,1.6,9.1,4.9c1.4,2.5,2.1,6.2,2.2,11.2c0,0.2,0,0.3,0,0.5c0,1.5,0,3.1-0.1,4.8c0,2,0,5,0,9.1
	c0,4.1,0,8.8,0,14.1c0,5.3,0,11.1,0,17.2c0,6.2-0.1,12.3-0.3,18.4c0,1.5,0.3,2.3,1,2.3c0.9,0.2,2-1.3,3.4-4.6
	c1.4-3.3,2.9-7.4,4.6-12.5c1.6-5.1,3.4-10.9,5.2-17.4c1.9-6.5,3.7-13,5.4-19.3c1.7-6.4,3.3-12.5,4.7-18.2c1.4-5.7,2.6-10.6,3.4-14.5
	c1.3-6.1,2.9-10.4,4.7-12.8c1.9-2.5,3.6-4,5.2-4.6c1.6-0.5,3-0.5,4.1,0.2c1.1,0.7,1.7,1.1,2,1.3c2,1.3,4,4,6.2,8
	c2.2,4,3.2,10.6,2.9,19.7c-0.2,5.9-0.4,13.7-0.7,23.4c-0.2,9.8-0.4,19.4-0.5,28.9c-0.1,9.5-0.2,18.1-0.2,25.7c0,7.6,0.1,12,0.3,13.3
	c0.2,1.7,1,3,2.4,3.7c1.4,0.8,3.2,0,5.4-2.3c2.2-2.3,4.7-6.6,7.5-12.8c2.3-5.2,4.8-12.4,7.4-21.7c-0.8-9.1-1-21.1-0.6-36.2l0.3-32.8
	c0-15,0.2-28.1,0.5-39.4c0.3-11.3,0.9-21,1.8-29.3c0.2-3.7,0.6-7,1.3-10.1c0.4-2.6,1.1-5,2.1-7.2c1-2.2,2.3-3.3,4-3.3
	c4.3,0,7.4,2.8,9.5,8.3c2,5.5,2.8,14.5,2.4,26.8c0,3.3,0,7.6,0,13c0,5.4,0,11.6,0,18.5c0,6.9-0.1,14.5-0.3,22.8
	c-0.2,8.2-0.4,16.7-0.7,25.4c0,3.7-0.1,8.5-0.2,14.3c-0.1,5.9-0.2,11.7-0.2,17.6c0,5.9,0.1,11.2,0.2,16.1c0.1,4.9,0.3,8.1,0.5,9.6
	c0,1.7,0.2,3.8,0.5,6.2c0.3,2.4,1.7,3.8,4.1,4.2c0.9,0.2,2-0.1,3.3-0.8c1.3-0.8,2.7-2.3,4.1-4.6c1.4-2.3,3-5.5,4.7-9.6
	c1.7-4.1,3.5-9.3,5.2-15.6c0.4-2.2,1-4.2,1.6-6.2c0.4-1.7,1-3.2,1.8-4.4c0.8-1.2,1.5-1.8,2.1-1.8
	C379.1,358.6,380.2,359.7,380.5,361.4z M205,331.5c0-1.5-0.1-4.7-0.2-9.4c-0.1-4.8-0.7-9.8-1.6-15.1c-1-5.3-2.7-10.2-5-14.6
	c-2.4-4.4-5.9-7.2-10.4-8.3c-6.3-1.5-11.1-0.7-14.3,2.6c-3.3,3.3-5.1,7.4-5.5,12.4c-0.4,5,0.4,10.1,2.6,15.4
	c2.2,5.3,5.7,9.3,10.7,11.9c2.4,1.3,5.7,2.4,9.9,3.3C195.4,330.4,200,331,205,331.5z M282.2,158.1c-1.5,1.5-15.2,13.4-21.6,17.4
	c14.2,20.3,12.7,17.1,21.1,30.6c1.5,2.4-1.5,5-3.7,3.3c-31.4-8.1-58.3-9-94.7-9c-31.5,0.4-64.5,4-96,9.3c-1.4,0.2-2.3-0.7-2.5-1.7
	c-0.2-1.4,0-1,12.9-17.9c7.5-10.1,4.9-6.5,11.5-15.7c-9.4-5.8-14.7-8.2-24.4-15.2c-1.4-1-1.4-3.1,0.1-4.1c0.2-0.2,0.4-0.4,0.7-0.5
	c36.6-11.7,70.1-13.6,125.3-12.3c25.2,1.2,38.4,3,70,11.8C282.9,154.2,283.7,156.7,282.2,158.1z M277.3,156.3
	c-35.1-9.2-50.5-9.7-66.5-10.4c-42.3-0.8-84.4-0.7-121.3,10.7c6.7,6,14.5,11.1,21.8,16.7c0.4,0.3,0.6,0.8,0.3,1.3
	c-6.8,10.6-2.7,4.8-19.9,30.1c14.1-2.3,27.8-4.3,43.2-6c63.3-6.7,114.2-1.8,140,4.9c-4-7.5-5.8-9.8-16.3-27.5
	c-0.7-0.4-0.6-1.4-0.1-1.8C266,168.6,270.4,163.2,277.3,156.3z M92.9,173.8c-3.5,1.9-4.2,8.1,0.9,7.9
	C101.2,181.3,98.9,170.5,92.9,173.8z M89,173.1c-0.5-0.7-1.5-0.1-2.2-0.5c-0.6-0.3-1.7-1.7-2.1-2.3c-1.5-1.8-2.5-4-3.4-6.1
	c-1.3-2.9-4.6-9-8.7-5.4c-3.7,3.2,1.4,9,3.8,11.2c3.1,2.8,7.4,5.4,11.7,4.3C88.6,174.2,89.5,173.8,89,173.1z M74.2,184.4
	c3.3-1.1,6.7-2.1,9.7-3.7c1-0.5,3.8-1.2,3.2-2.8c-0.7-1.8-6.3-0.8-8.5-1c-2.9-0.2-5.9-0.4-8.8-0.4c-3.1-0.1-6.9-1.1-9,2
	c-1.3,2-0.7,4.4,1.3,5.6C65.9,186.5,70.2,185.7,74.2,184.4z M82.8,185c-2,2-3.4,4.6-4.6,7.2c-0.8,1.9-2.3,4.7-1.2,6.8
	c0.8,1.5,4.3,2.9,5.9,2.1c4.2-2.2,1.7-11.8,4.4-17c0.5-0.9,0.9-1.1,0.5-2.1C86.1,181.9,83.9,183.9,82.8,185z M272,181.7
	c5.2,0.3,4.5-6,0.9-7.9C267,170.5,264.7,181.3,272,181.7z M293,158.4c-1.1-0.6-3,0.4-3.9,1.2c-1.9,1.8-2.8,4.5-4.3,6.6
	c-1.2,1.6-2.2,3.3-3.7,4.6c-1.3,1.1-2.3,1-3.8,1.4c-0.9,0.2-1.4,0.6-1,1.4c0.9,1.7,4.6,1.1,6.1,0.7c2.7-0.7,5.2-2.4,7.2-4.2
	c2-1.9,4.2-2.7,5.4-5.5c0.5-1.3,0.1-2-0.3-3.2C294.4,160.2,294.2,158.9,293,158.4z M299.6,174.4c-4.3-0.4-5.5,1.8-8.3,2.4
	c-4,0.9-11.8-1-12.6,1.2c-0.6,1.6,2.2,2.2,3.2,2.8c3,1.7,6.5,2.7,9.7,3.7c1.9,0.6,2.8,1.7,7.2,0.5c1.6-0.4,3.3-1.4,4.7-2.2
	c1.1-0.7,1-1.6,0.8-2.9C304.1,177,302.7,174.6,299.6,174.4z M282.4,200.6c3,1.2,6-0.3,7.6-3c1.5-2.7-1.6-2.4-2.2-4.4
	c-0.2-0.5-0.1-1.1-0.3-1.6c-1.3-3.3-6.1-9.8-9.3-9.5c-0.4,1,0.1,1.2,0.5,2.1c2,4,2.5,7.9,1.8,12.3
	C280.2,198,280.7,199.9,282.4,200.6z M159.5,253.9c1-2,1.6-4.2,2.9-6c2.2-3.2,6-5.1,8.8-7.7c3.4-3.2,7.3-5.6,9.8-9.6
	c1.9-3,6.8-14.3,0.6-15.8c-3.7-0.9-8.9,6.2-11.1,8.2c-0.3-3.7,2.3-10.4-2.3-12.8c-5.2-2.7-9.8,3.7-10.5,7.9
	c-1,5.3,0.4,11.8,0.5,17.2C158.3,241.7,157.7,247.6,159.5,253.9z M170.5,267c0.4-0.1,0.9-0.2,1.3-0.3c1.1-0.3,2.2-0.5,3.2-0.9
	c2.8-1.1,6.3-2.3,8.5-4.4c1.7-1.6,4.8-5.8,4.3-8.4c-0.4-1.9-1.4-2.5-3.1-1.5c-0.7,0.4-1.4,1-2.1,1.5c-0.3,0.2-1.2,0.8-1.7,0.6
	c-0.2-0.1-0.3-0.3-0.3-0.7c0-0.5,0.2-1.2,0.2-1.6c0-2.2-1-4.3-3.5-3.5c-2.4,0.8-3.4,5.1-3.7,7.2c-0.3,2.4-0.4,4.8-1,7.1
	c-0.3,1-0.6,2.1-1.2,2.9c-0.5,0.8-1.5,1.2-2,2.1C169.5,267.3,170.5,267,170.5,267z M312.4,138.9c-2.4,0.8-3.4,5.1-3.7,7.2
	c-0.3,2.4-0.4,4.8-1,7.1c-0.3,1-0.6,2.1-1.2,2.9c-0.5,0.8-1.5,1.2-2,2.1c-0.1,0.2,0.9-0.1,0.9-0.1c0.4-0.1,0.9-0.2,1.3-0.3
	c1.1-0.3,2.2-0.5,3.2-0.9c2.8-1.1,6.3-2.3,8.5-4.4c1.7-1.6,4.8-5.8,4.3-8.4c-0.4-1.9-1.4-2.5-3.1-1.5c-0.7,0.4-1.4,1-2.1,1.5
	c-0.3,0.2-1.2,0.8-1.7,0.6c-0.2-0.1-0.3-0.3-0.3-0.7c0-0.5,0.2-1.2,0.2-1.6C316,140.1,315,138,312.4,138.9z M314.2,227.1l-3.8-11.6
	l-3.8,11.6h-12.2l9.9,7.2l-3.8,11.6l9.9-7.2l9.9,7.2l-3.8-11.6l9.9-7.2H314.2z M306.9,199.2l-2.2,6.7l5.7-4.1l5.7,4.1l-2.2-6.7
	l5.7-4.1h-7l-2.2-6.7l-2.2,6.7h-7L306.9,199.2z M94.9,34.7c0.8-0.4,2.1-0.3,3-0.3c0.8-0.1,1.7-0.2,2.5-0.3c-3.4-2.8-4.7-4-4.8-6.4
	c0-0.2,0-0.2,0-0.4c0.7-4.8,6-3.5,10-2.7c0.4,0.1,0.8,0.1,1.2,0.2c6.6,0.8,4.2,0.6,12,1.1c3.6,0.2,6.1-0.6,10.3,0.7
	c2.9,1,8.4,4.1,10.3,7.1c4.2-0.1,8.6-0.2,13.2-0.2c5.8-0.1,11.9-0.1,18.2-0.2c6.3,0,12.8,0.2,19.4,0.2c6.6,0.1,13.3,0.1,20,0.1
	c3.4,0,6.7-0.6,10.1-0.5c3.3,0,6.7,0.1,10,0.1c6.6,0.2,13.1,0.4,19.4,0.6c6.3,0.2,12.4,0.3,18.2,0.2c1.4,0,2.9,0,4.3-0.1
	c0.7,0,1.4,0,2.1-0.1c0.7-0.1,1.4-0.2,2.1-0.2c2.7,0,5.3,0.3,7.9,0.2c5-0.2,9.7,0.5,13.8-0.2c4.1-0.4,7.7-0.3,10.6,0.1
	c2.3,0.3,4.2,0.4,5.7,0.5c0-0.1,0-0.3,0-0.4c0.3-1.5,1.6-4.2,3.5-4.4c1.6-0.2,3,1.1,3.4,2.3c0.2,0.5,0.1,1.3,0.6,1.6
	c1,0.6,1.6-1.2,1.8-1.7c0-0.1,0.1-0.2,0.1-0.2c0.4-1.2,1.2-2.1,2.8-2.2c1.5-0.1,2.6,1,3.8,1.5c1.2,0.4,2.4,0.5,3.7,0.7
	c3.1,0.5,6.2,0.7,9.3,1.2c2.4,0.4,4.9,0.8,7.3,1.1c1.7,0.2,5.9,0.5,6.8,1.6c-6.5,1.7-13.7,2.4-20.6,2.9c-1.2,0.1-2.5,0.2-3.8,0.3
	c-1.6,0.2-1.9,0.8-3.3,1.5c-1.1,0.5-2.4,0.5-3.6,0.2c-1.2-0.4-1.7-1.4-2.4-2.2c-0.3-0.4-0.9-2.1-1.8-1.8c-1.3,0.5-0.5,2.7-1.7,3.3
	c-1.4,0.8-3.3-0.4-4.2-1.3c-0.6-0.6-1.1-1.3-1.4-1.9c-1.5,0.1-3.6,0.2-6.1,0.5c-2.9,0.3-6.5,0.5-10.6,0.1c-4.1-0.6-8.7,0.1-13.8-0.2
	c-2.5,0-5.1,0.3-7.9,0.2c-0.7,0-1.4-0.1-2.1-0.2c-0.7-0.1-1.4-0.1-2.1-0.1c-1.4,0-2.8,0-4.3-0.1c-5.8,0-11.9,0-18.2,0.1
	c-6.3,0.1-12.8,0.3-19.4,0.4c-3.3,0-6.6,0-10,0.1c-3.3,0-6.7-0.7-10.1-0.7c-6.7-0.1-13.4-0.1-20-0.1c-6.6,0-13.1,0-19.4,0
	c-6.3,0-12.4,0.1-18.2,0.1c-4.4,0-8.7,0-12.7-0.1c-12.5,9.4-10.4,7-26.9,8.2c-1.8,0.2-3.5,0.3-5.3,0.4c-2.2,0.1-4.5,0.7-7.8,0.8
	c-1.5,0-3.1,0-4.2-1.3c-0.5-0.7-0.6-1-0.6-2c0.2-1.8,1.4-3.3,5.3-5.8c-1.7,0-3.9,0-5.3-0.7C94.1,35.5,93.9,35.3,94.9,34.7z
	 M98.4,42.6C98.4,42.6,98.4,42.6,98.4,42.6C98.3,42.6,98.4,42.6,98.4,42.6C98.3,42.7,98.3,42.7,98.4,42.6c0,0.1,0,0.1,0,0.1
	C98.4,42.7,98.4,42.6,98.4,42.6z M137.8,36.4c0,0,0.1,0-10.3-0.1c-0.3,0.2-0.5,0.4-0.6,0.5c-1.3,1.3-2.2,3.5-3.1,4.8
	c1.4,0,3.9-0.2,5.2-0.5c1.7-0.4,1.7-0.5,5.9-2.8C135.8,37.9,137,37,137.8,36.4z M122.9,27.9c1.5,3,4.4,3.7,5.3,5.9
	c11.8-0.3,6.3-0.2,9.6-0.2c-2.1-2.2-5.4-3.8-8.3-4.8C127.5,28.1,125.3,28.1,122.9,27.9z M122,36.3c-2.8,0-5.4,0-7.6-0.1
	c-0.9,1.9-1.3,4.2-2.4,6c2.1-0.2,5.9-0.4,7.2-0.5c0.4-0.7,0.8-1.2,1.1-2c0.5-1,1.1-2,1.6-3C121.9,36.7,122,36.5,122,36.3z
	 M110.2,27.2c0.5,0.6,0.8,1.3,1.2,1.9c0.8,1.4,1.9,2.6,2.9,3.9c0.3,0.4,0.7,0.7,1,1.2c1.7,0,3.6-0.1,5.6-0.1
	c-0.5-0.7-0.5-1.6-0.9-2.3c-0.6-1.3-1-2.6-1.5-3.9C112.5,27.4,112.6,27.4,110.2,27.2z M102.9,34.3c0.6,0,2.8,0,6.3-0.1
	c-0.6-0.7-1.1-2.1-1.5-2.9c-0.8-1.6-2.8-3.2-3.4-4.9c-1.2-0.2-2.2-0.4-3.8-0.2c-0.7,0.1-1.3,0.2-1.6,0.5c0,0.1-0.1,0.1-0.2,0.2
	c0,0.1-0.1,0.1-0.1,0.1c0,0,0,0,0,0.1l-0.1,0.5C98.7,30.3,101,32.5,102.9,34.3z M99.1,40.7c-0.4,0.4-0.7,1-0.5,1.5
	c0,0.1,0.1,0.2,0.1,0.3c0.2,0.4,0.5,0.6,1,0.7c0.9,0.2,1.7,0.1,2.6,0.3c0.4,0.1,0.9,0,1.4-0.1c0.2,0,1.2,0,1.3-0.2
	c1.6-2.3,2.9-4.6,4.2-7c-2.3,0-4,0-5.1,0c-1.3,0.7-2.6,1.6-3.6,2.7C100,39.6,99.6,40.2,99.1,40.7z"/>
</svg>
