<?xml version="1.0" encoding="utf-8"?>
<!-- Generator: Adobe Illustrator 18.0.0, SVG Export Plug-In . SVG Version: 6.00 Build 0)  -->
<!DOCTYPE svg PUBLIC "-//W3C//DTD SVG 1.1//EN" "http://www.w3.org/Graphics/SVG/1.1/DTD/svg11.dtd">
<svg version="1.1" id="Layer_1" xmlns="http://www.w3.org/2000/svg" xmlns:xlink="http://www.w3.org/1999/xlink" x="0px" y="0px"
	 viewBox="0 0 432 432" enable-background="new 0 0 432 432" xml:space="preserve">
<path fill="#333333" d="M103.9,378.4c0.6,1.8,0.8,4.4,0.8,7.8c0,4.4-0.6,9.7-1.8,15.9c-1.3,6.9-3.1,12.7-5.3,17.3
	c-2.6,5.5-5.4,8.2-8.5,8.2c-5.8,0-9.9-5.4-12.4-16.2c-0.9,3-1.9,5.7-3,8.1c-2.6,5.4-5.4,8.1-8.5,8.1c-1.9,0-3.6-0.6-5-1.8
	c-2.7-2.3-4.9-6.2-6.4-11.8c-2.2-8.2-3.3-18.6-3.3-31.2c0-1.8,0.2-3.3,0.6-4.6c0.4-1.3,1-2.3,2-3c0.9-0.7,2.3-1.1,4-1.1
	c2.6,0,3.9,2.1,3.9,6.4c0,14,0.5,24.5,1.5,31.7c0.8,5.7,2,8.6,3.4,8.6c1,0,2.1-1.6,3.5-4.9s2.5-7.5,3.5-12.7
	c1-5.2,1.5-10.8,1.6-16.8c0-1.8,0.2-3.3,0.6-4.6c0.4-1.3,1-2.3,2-3c0.9-0.7,2.3-1.1,4-1.1c1.7,0,2.9,0.9,3.4,2.6
	c0.3,1.1,0.5,2.4,0.5,4.1c0,12.7,0.5,22.2,1.5,28.7c0.8,5.1,1.9,7.6,3.4,7.6c0.8,0,1.6-1,2.6-2.9c1-1.9,1.9-4.6,2.8-7.8
	c0.9-3.3,1.7-7,2.3-11.2c0.6-4.2,0.9-8.5,0.9-13c0-2.9-0.2-6-0.7-9.4c0-0.3-0.1-0.7-0.1-1.1c0-0.8,0.4-1.2,1.2-1.2
	C101.3,374.1,103,375.5,103.9,378.4z M139.8,424.4c0.3,1.1,0.5,1.8,0.5,2c0,0.5-0.4,0.8-1.2,0.8c-2.3,0-4.9-3.4-7.8-10.2
	c-1.1-2.5-2.1-5.2-3.2-8.1c-3.2,0.5-6.7,0.8-10.5,0.8c-0.8,0-1.5,0-2.2-0.1l-0.8,2.3c-3.6,10.4-6.1,15.6-7.7,15.6
	c-0.3,0-0.4-0.4-0.4-1.1c0-2.7,2.1-12.1,6.3-28.3c1.3-5.2,2.4-9.4,3.1-12.6c0.7-3.2,1.4-5.7,2.2-7.5c1-2.5,3.2-3.7,6.5-3.7
	c2.9,0,4.9,2,6,6.1c1.1,4.1,2.3,9.9,3.6,17.4C136.3,409.1,138.1,418,139.8,424.4z M126.8,404.9c-2.5-7.6-4.1-13.5-5-18
	c-1.2,5.3-2.9,11.2-4.9,17.6h0.9C121,404.6,124,404.7,126.8,404.9z M168.5,422.8c-1.1,0-2.7,0-4.8,0.1c-2.8,0.1-5.3,0.2-7.6,0.2
	c-1.5,0-2.6-0.4-3.1-1.3c-0.5-0.8-0.8-2.2-0.8-4.2c0-2.4,0.2-5.3,0.5-8.5l1-10.4c0.8-8.6,1.2-14.5,1.2-17.5c0-0.6,0-1.3-0.1-2
	c-0.2-3.3-1.5-5-3.8-5c-2.7,0-4.6,2-5.5,5.9c-0.7,2.9-1,7.4-1,13.6c0,7.9,0.1,13.9,0.3,18c0.4,6.2,1.1,10.5,2.3,12.7
	c0.7,1.3,1.6,2.2,2.7,2.6c1.1,0.4,2.4,0.7,4,0.7c2.2,0,5.2-0.3,9.1-1c4.8-0.8,7.3-1.9,7.3-3.1C170,423,169.5,422.8,168.5,422.8z
	 M191.3,393.4c2.9-3.1,5.4-6.2,7.3-9.2c2.2-3.5,3.3-6.2,3.3-8.1c0-1.3-0.7-1.9-2-1.9c-1.2,0-3.1,1.8-5.7,5.5
	c-1.2,1.7-2.4,3.5-3.7,5.5c-3.7,5.7-6.8,9.8-9,12.2l-1.6,1.7c0.8-9.2,1.2-15.4,1.2-18.6c0-4.2-1.3-6.3-3.9-6.3c-2.7,0-4.6,2-5.5,5.9
	c-0.7,2.9-1,7.4-1,13.6c0,6.7,0.3,12.7,0.8,18c1,10.7,3,16.1,6,16.1c0.5,0,0.8-0.4,0.8-1.2c0-5.4,0.4-13.1,1.3-23.1
	c1.2,3.7,4.1,8.6,8.8,14.6c5,6.5,8.7,9.7,11.1,9.7c0.5,0,0.9-0.1,1.2-0.4c0.2-0.1,0.2-0.3,0.2-0.5c0-0.2-0.1-0.5-0.3-0.8
	c-2.1-3.3-4.1-6.8-6.2-10.7c-1.1-2-2.4-4.6-4.1-7.8c-1.7-3.2-3.5-5.8-5.4-8C186.9,397.7,189.1,395.7,191.3,393.4z M252.8,424.4
	c0.3,1.1,0.5,1.8,0.5,2c0,0.5-0.4,0.8-1.2,0.8c-2.3,0-4.9-3.4-7.8-10.2c-1.1-2.5-2.1-5.2-3.2-8.1c-3.2,0.5-6.7,0.8-10.5,0.8
	c-0.8,0-1.5,0-2.2-0.1l-0.8,2.3c-3.6,10.4-6.1,15.6-7.7,15.6c-0.3,0-0.4-0.4-0.4-1.1c0-2.7,2.1-12.1,6.3-28.3
	c1.3-5.2,2.4-9.4,3.1-12.6c0.7-3.2,1.4-5.7,2.2-7.5c1-2.5,3.2-3.7,6.5-3.7c2.9,0,4.9,2,6,6.1c1.1,4.1,2.3,9.9,3.6,17.4
	C249.3,409.1,251.2,418,252.8,424.4z M239.8,404.9c-2.5-7.6-4.1-13.5-5-18c-1.2,5.3-2.9,11.2-4.9,17.6h0.9
	C234,404.6,237,404.7,239.8,404.9z M304.7,374.1c-0.8,0-1.2,0.4-1.2,1.2c0,0.4,0,0.8,0.1,1.1c0.5,3.4,0.7,6.5,0.7,9.4
	c0,4.5-0.3,8.8-0.9,13c-0.6,4.2-1.4,7.9-2.3,11.2c-0.9,3.3-1.8,5.9-2.8,7.8c-1,1.9-1.9,2.9-2.6,2.9c-1.5,0-2.6-2.5-3.4-7.6
	c-1-6.5-1.5-16-1.5-28.7c0-1.7-0.2-3-0.5-4.1c-0.5-1.8-1.7-2.6-3.4-2.6c-1.7,0-3,0.4-4,1.1c-0.9,0.7-1.6,1.7-2,3
	c-0.4,1.3-0.6,2.8-0.6,4.6c-0.1,6-0.6,11.6-1.6,16.8c-1,5.2-2.2,9.4-3.5,12.7c-1.3,3.3-2.5,4.9-3.5,4.9c-1.5,0-2.6-2.9-3.4-8.6
	c-1-7.2-1.5-17.8-1.5-31.7c0-4.3-1.3-6.4-3.9-6.4c-1.7,0-3,0.4-4,1.1c-0.9,0.7-1.6,1.7-2,3c-0.4,1.3-0.6,2.8-0.6,4.6
	c0,12.6,1.1,23,3.3,31.2c1.5,5.6,3.7,9.6,6.4,11.8c1.4,1.2,3.1,1.8,5,1.8c3.1,0,5.9-2.7,8.5-8.1c1.1-2.4,2.1-5.1,3-8.1
	c2.5,10.8,6.6,16.2,12.4,16.2c3.1,0,5.9-2.7,8.5-8.2c2.2-4.6,3.9-10.4,5.3-17.3c1.2-6.2,1.8-11.5,1.8-15.9c0-3.4-0.3-6-0.8-7.8
	C309,375.5,307.3,374.1,304.7,374.1z M345.8,424.4c0.3,1.1,0.5,1.8,0.5,2c0,0.5-0.4,0.8-1.2,0.8c-2.3,0-4.9-3.4-7.8-10.2
	c-1.1-2.5-2.1-5.2-3.2-8.1c-3.2,0.5-6.7,0.8-10.5,0.8c-0.8,0-1.5,0-2.2-0.1l-0.8,2.3c-3.6,10.4-6.1,15.6-7.7,15.6
	c-0.3,0-0.4-0.4-0.4-1.1c0-2.7,2.1-12.1,6.3-28.3c1.3-5.2,2.4-9.4,3.1-12.6c0.7-3.2,1.4-5.7,2.2-7.5c1-2.5,3.2-3.7,6.5-3.7
	c2.9,0,4.9,2,6,6.1c1.1,4.1,2.3,9.9,3.6,17.4C342.2,409.1,344.1,418,345.8,424.4z M332.7,404.9c-2.5-7.6-4.1-13.5-5-18
	c-1.2,5.3-2.9,11.2-4.9,17.6h0.9C326.9,404.6,329.9,404.7,332.7,404.9z M379.3,376.1c-0.8-1.3-2-2-3.6-2c-1.7,0-2.8,1-3.5,2.9
	c-0.5,1.4-0.9,3.7-1.2,6.6c-0.5,5.2-1.7,10.4-3.7,15.4c-1.8,4.3-3.6,6.5-5.6,6.5c-2.5,0-3.8-3.6-3.8-10.9c0-2.2,0.2-5.5,0.5-9.7
	c0.1-1.7,0.2-2.9,0.2-3.6c0-1.1-0.1-2.2-0.3-3.3c-0.2-1.1-0.6-2-1.1-2.8c-0.6-0.7-1.4-1.1-2.6-1.1c-1.6,0-2.8,0.6-3.7,1.8
	c-0.8,1.2-1.4,2.8-1.7,4.8c-0.3,2-0.5,4.3-0.5,6.8c0,1.4,0.1,3.2,0.2,5.2c0.1,2,0.4,4,0.8,6.1c0.4,2.1,1,4,1.9,5.8
	c0.8,1.8,1.9,3.2,3.3,4.3c1.4,1.1,3.1,1.7,5.1,1.7c5.5,0,9.5-4.5,12-13.5c0.1,2.3,0.2,3.9,0.2,4.8c0,5.8-0.7,10.4-2.1,14
	c-1.8,4.3-4.7,6.5-8.7,6.5c-3.7,0-6.7-2.3-9-6.8c-0.2-0.4-0.5-0.7-1-0.7c-0.6,0-0.9,0.4-0.9,1.2c0,1,0.3,2.2,1,3.8
	c1.1,2.7,2.8,4.7,5.2,6.2c1.8,1.1,3.8,1.7,6.3,1.7c11,0,17.1-8.2,18.1-24.7c0.2-2.9,0.3-7.9,0.3-14.8c0-2.5-0.1-4.8-0.4-6.9
	C380.7,379.1,380.1,377.4,379.3,376.1z M56.7,46.4c1.3,1.3,2.5,2.6,3.7,3.8c2.4,2.7,3.7,5.3,3.7,7.6c0,3.7-1.7,5.5-5,5.5
	c-3,0-4.9-1.6-5.7-4.7c-0.4-1.3-0.5-2.6-0.5-3.9c0-2.1-0.8-3.1-2.5-3.1c-0.9,0-1.7,0.4-2.2,1.2c-0.5,0.8-0.8,1.8-0.8,2.9
	c0,4.1,0.9,7.4,2.7,9.7c2.2,2.9,5.5,4.4,9.7,4.4c4.8,0,8.5-1.5,11-4.4c1.9-2.2,2.9-5.1,2.9-8.6c0-3.8-1.4-7.5-4.3-11.1
	c-1.3-1.6-2.8-3.2-4.3-4.8c-3.8-3.7-6.5-6.9-8-9.5c-1.7-2.9-2.6-5.9-2.6-9.2c0-3.4,0.6-6.1,1.8-8.2c1.4-2.5,3.4-3.7,6.1-3.7
	c3.6,0,6,2.2,7.2,6.6c0.5,2,0.8,4.2,0.8,6.5c0,3.1-0.3,6.2-1,9.2c-0.1,0.4-0.1,0.8-0.1,1.3c0,1.6,0.8,2.4,2.3,2.4
	c1.7,0,2.9-1.6,3.7-4.7c0.5-2.3,0.8-5,0.8-8.1c0-12.7-5-19-14.9-19c-4.8,0-8.6,1.3-11.4,4c-1.5,1.4-2.6,3-3.4,5
	c-1.1,2.8-1.7,5.9-1.7,9.4c0,5.1,1.4,9.7,4.1,13.9C50.4,39.6,53.1,42.8,56.7,46.4z M80.8,45.2c-0.2-3-0.4-5.9-0.4-8.6
	c0-10.5,1.8-18.6,5.5-24.4c3.2-5.2,8-7.8,14.3-7.8c8.6,0,14.2,5.6,16.9,16.8c1,4.1,1.4,8.5,1.4,13.2c0,6.8-0.5,12.8-1.6,17.9
	c-2.4,11.7-8.2,17.5-17.4,17.5c-3.4,0-6.2-0.7-8.5-2.1c-2.3-1.4-4.1-3.3-5.5-5.7c-1.4-2.4-2.5-5-3.2-7.9
	C81.6,51.2,81.1,48.2,80.8,45.2z M91.3,35.9c0,8.8,1,15.8,2.9,20.9c1.7,4.5,4.1,6.7,7.1,6.7c4.7,0,7.9-4.1,9.5-12.2
	c0.8-4.2,1.3-10,1.3-17.4c0-4.2-0.3-8-1-11.5c-0.8-4.3-2-7.5-3.8-9.6c-1.4-1.7-3.2-2.6-5.3-2.6c-3.6,0-6.2,2.2-8,6.7
	C92.2,21.4,91.3,27.8,91.3,35.9z M131.8,69.8c1.8,0,3.1-0.6,4-1.7c0.9-1.1,1.4-2.8,1.4-4.9c0-12.9-0.2-24.8-0.7-35.7
	c-0.1-2.1-0.2-3.5-0.2-4.2c-0.1-0.7-0.1-1.5-0.1-2.5c0-0.8,0.1-1.3,0.2-1.3c0.2,0,0.6,0.8,1,2.3c4.3,14.5,8,25.4,11,32.7
	c0.7,1.7,1.7,2.5,3.1,2.5c1.3,0,2.2-0.8,2.9-2.4c4.5-10.4,8.2-20.8,11.3-31.1c0.4-1.3,0.7-2,1-2c0.3,0,0.4,0.4,0.4,1.3
	c0,1.9-0.1,4.7-0.2,8.5c-0.3,7.4-0.4,18.5-0.4,33.1c0,1.7,0.2,3,0.7,4c0.4,0.9,1.3,1.4,2.5,1.4c2.4,0,3.6-1.8,3.6-5.4V13
	c0-2.2-0.3-4-1-5.5c-1-2.1-2.6-3.1-4.9-3.1c-1,0-2.1,0.4-3.1,1.2c-1.1,0.8-1.9,2.2-2.5,4.2c-3.3,10.8-7.1,21.5-11.2,32.2
	c-1.1-3.3-2.2-6.8-3.4-10.5c-1.8-5.5-4-12.4-6.7-20.5c-1.5-4.4-4-6.6-7.5-6.6c-3.8,0-5.8,2.9-5.8,8.6v49.8c0,1.1,0.1,2.3,0.3,3.3
	C127.6,68.6,129.2,69.8,131.8,69.8z M191.1,68.1c2.1,1.1,5.1,1.7,8.9,1.7c4.4,0,7.4-0.4,9.2-1.2c1.8-0.8,2.7-1.8,2.7-3.2
	c0-0.7-0.3-1.2-0.8-1.6c-0.5-0.3-1.2-0.5-1.9-0.5c-1.1,0-2.2,0-3.3,0.1c-1.1,0.1-2.2,0.1-3.3,0.1c-3.4,0-5.8-0.9-7-2.6
	c-0.8-1.1-1.1-2.7-1.1-4.8v-1.9c0-1.2,0.7-1.8,2-1.8l8.7,0.1c1,0,1.8-0.2,2.4-0.7c0.6-0.5,0.8-1.1,0.8-1.7c0-1.2-0.4-2-1.3-2.5
	c-0.7-0.4-1.8-0.6-3.2-0.6c-1.2,0-2.4,0-3.5,0.1c-1.2,0.1-2.4,0.1-3.5,0.1c-0.8,0-1.4-0.2-1.8-0.5c-0.4-0.4-0.6-1.2-0.6-2.5V14.5
	c0-2.2,1-3.4,3-3.4c1.1,0,2.1,0,3.2,0.1c1.1,0,2.1,0.1,3.2,0.1c1.5,0,2.6-0.3,3.3-0.9c0.7-0.6,1.1-1.2,1.1-1.9
	c0-1.8-1.2-2.9-3.5-3.1c-1-0.1-1.8-0.2-2.6-0.2H191c-3.3,0-5.3,1.4-6.1,4.1c-0.4,1.3-0.5,2.8-0.5,4.7v35.2c0,2.7,0.1,5.3,0.3,7.8
	C185.1,62.3,187.3,66.1,191.1,68.1z M213.1,10.3c0.7,0.6,1.8,0.8,3.1,0.8h4.6c0.6,0,1,0.3,1,1v50.3c0,2,0.2,3.6,0.5,4.5
	c0.2,0.7,0.6,1.2,1.1,1.7c0.7,0.7,1.8,1.1,3.4,1.1c3.6,0,5.3-2.3,5.3-7V12.1c0-0.7,0.3-1,1-1h4.5c1.4,0,2.4-0.3,3.1-0.8
	c0.7-0.6,1.1-1.2,1.1-1.8c0-1-0.3-1.8-1-2.3c-0.7-0.5-1.5-0.8-2.5-0.9c-1-0.1-1.8-0.2-2.6-0.2h-17.6c-0.8,0-1.7,0.1-2.6,0.2
	c-1,0.1-1.8,0.4-2.5,0.9c-0.7,0.5-1,1.2-1,2.3C212,9.1,212.4,9.7,213.1,10.3z M250.2,63.7c-0.3,0.2-0.8,0.3-1.6,0.3
	c-2.2,0-3.4,0.9-3.4,2.8c0,1.5,1,2.2,3.1,2.2h14.1c2.2,0,3.4-0.7,3.4-2c0-1.1-0.5-1.9-1.4-2.4c-0.5-0.3-1.3-0.4-2.5-0.5
	c-0.7-0.1-1-0.4-1-1.1V11.1c0-0.7,0.4-1.1,1.2-1.1c1.3-0.1,2.3-0.2,2.8-0.5c1-0.5,1.5-1.3,1.5-2.4c0-1.3-1.1-2-3.4-2h-14.3
	c-2.2,0-3.4,0.7-3.4,2c0,1.1,0.5,1.9,1.5,2.4c0.5,0.3,1.3,0.4,2.6,0.5c0.9,0.1,1.3,0.5,1.3,1.5v51.2
	C250.7,63.2,250.5,63.5,250.2,63.7z M277.2,69.8c1.8,0,3.1-0.6,4-1.7c0.9-1.1,1.4-2.8,1.4-4.9c0-12.9-0.2-24.8-0.7-35.7
	c-0.1-2.1-0.2-3.5-0.2-4.2c-0.1-0.7-0.1-1.5-0.1-2.5c0-0.8,0.1-1.3,0.2-1.3c0.2,0,0.6,0.8,1,2.3c4.3,14.5,8,25.4,11,32.7
	c0.7,1.7,1.7,2.5,3.1,2.5c1.3,0,2.2-0.8,2.9-2.4c4.5-10.4,8.2-20.8,11.3-31.1c0.4-1.3,0.7-2,1-2c0.3,0,0.4,0.4,0.4,1.3
	c0,1.9-0.1,4.7-0.2,8.5c-0.3,7.4-0.4,18.5-0.4,33.1c0,1.7,0.2,3,0.7,4c0.4,0.9,1.3,1.4,2.5,1.4c2.4,0,3.6-1.8,3.6-5.4V13
	c0-2.2-0.3-4-1-5.5c-1-2.1-2.6-3.1-4.9-3.1c-1,0-2.1,0.4-3.1,1.2c-1.1,0.8-1.9,2.2-2.5,4.2c-3.3,10.8-7.1,21.5-11.2,32.2
	c-1.1-3.3-2.2-6.8-3.4-10.5c-1.8-5.5-4-12.4-6.7-20.5c-1.5-4.4-4-6.6-7.5-6.6c-3.8,0-5.8,2.9-5.8,8.6v49.8c0,1.1,0.1,2.3,0.3,3.3
	C273,68.6,274.5,69.8,277.2,69.8z M336.5,68.1c2.1,1.1,5.1,1.7,8.9,1.7c4.4,0,7.4-0.4,9.2-1.2c1.8-0.8,2.7-1.8,2.7-3.2
	c0-0.7-0.3-1.2-0.8-1.6c-0.5-0.3-1.2-0.5-1.9-0.5c-1.1,0-2.2,0-3.3,0.1c-1.1,0.1-2.2,0.1-3.3,0.1c-3.4,0-5.8-0.9-7-2.6
	c-0.8-1.1-1.1-2.7-1.1-4.8v-1.9c0-1.2,0.7-1.8,2-1.8l8.7,0.1c1,0,1.8-0.2,2.4-0.7c0.6-0.5,0.8-1.1,0.8-1.7c0-1.2-0.4-2-1.3-2.5
	c-0.7-0.4-1.8-0.6-3.2-0.6c-1.2,0-2.4,0-3.6,0.1c-1.2,0.1-2.4,0.1-3.5,0.1c-0.8,0-1.4-0.2-1.8-0.5c-0.4-0.4-0.6-1.2-0.6-2.5V14.5
	c0-2.2,1-3.4,3-3.4c1.1,0,2.1,0,3.2,0.1c1.1,0,2.1,0.1,3.2,0.1c1.5,0,2.6-0.3,3.3-0.9c0.7-0.6,1.1-1.2,1.1-1.9
	c0-1.8-1.2-2.9-3.5-3.1c-1-0.1-1.8-0.2-2.6-0.2h-11.3c-3.3,0-5.3,1.4-6.1,4.1c-0.4,1.3-0.5,2.8-0.5,4.7v35.2c0,2.7,0.1,5.3,0.3,7.8
	C330.5,62.3,332.7,66.1,336.5,68.1z M368.4,46.4c1.3,1.3,2.5,2.6,3.7,3.8c2.4,2.7,3.7,5.3,3.7,7.6c0,3.7-1.7,5.5-5,5.5
	c-3,0-4.9-1.6-5.7-4.7c-0.4-1.3-0.5-2.6-0.5-3.9c0-2.1-0.8-3.1-2.5-3.1c-0.9,0-1.7,0.4-2.2,1.2c-0.5,0.8-0.8,1.8-0.8,2.9
	c0,4.1,0.9,7.4,2.7,9.7c2.2,2.9,5.5,4.4,9.7,4.4c4.8,0,8.5-1.5,11-4.4c1.9-2.2,2.9-5.1,2.9-8.6c0-3.8-1.4-7.5-4.3-11.1
	c-1.3-1.6-2.8-3.2-4.3-4.8c-3.8-3.7-6.5-6.9-8-9.5c-1.7-2.9-2.6-5.9-2.6-9.2c0-3.4,0.6-6.1,1.8-8.2c1.4-2.5,3.4-3.7,6.1-3.7
	c3.6,0,6,2.2,7.2,6.6c0.5,2,0.8,4.2,0.8,6.5c0,3.1-0.3,6.2-1,9.2c-0.1,0.4-0.1,0.8-0.1,1.3c0,1.6,0.8,2.4,2.3,2.4
	c1.7,0,2.9-1.6,3.7-4.7c0.5-2.3,0.8-5,0.8-8.1c0-12.7-5-19-14.9-19c-4.8,0-8.6,1.3-11.4,4c-1.5,1.4-2.6,3-3.4,5
	c-1.1,2.8-1.7,5.9-1.7,9.4c0,5.1,1.4,9.7,4.1,13.9C362,39.6,364.8,42.8,368.4,46.4z M70.9,74.8c-0.1-0.4-0.8-0.8-1.1-1.1
	c-2,1-2.1,1-2.6,1.8c-0.8,1.6-1.7,3.3-2.2,5c-1.5,5.1-2.9,10.2-4.3,15.3c-0.3,1-0.3,2-1.3,3c-0.7-1.9-1.3-3.5-1.8-5.3
	c-0.7-2.5-1.3-5.1-2-7.6c-0.5-1.8-1.2-3.5-2.4-4.9c-0.9-1-1.9-1.9-3.4-1.8c-1.5,0.4-2.1,1.7-2.1,3.2c0,1.2,0.2,2.4,0.4,3.5
	c0.4,1.6,1,3.2,1.3,4.9c0.9,4.2,2,8.4,3.5,12.4c0.9,2.2,1.4,4.6,1.5,6.9c0.2,4.9,0.5,9.6,1,14.5c0.3,2.7,0.8,5.4,1.4,8
	c0.3,1.3,0.9,2.8,2.7,3.2c1.1-0.6,1.3-1.8,1.6-2.9c1-3.3,1.2-6.8,1.2-10.4v-16.1c5.2-7.1,6.8-16,9.1-24.5c0.1-0.2,0.1-0.4,0.1-0.7
	C72.2,79.2,71.6,77,70.9,74.8z M74,89.9c0.6-2.7,1.7-5.2,3.2-7.5c1-1.3,2.1-2.4,4-2.5c0.6-0.1,1.1-0.3,1.6-0.4
	c3.7-1,6.8,0.2,9.1,3.7c1.7,2.7,2.9,5.6,3.2,8.6c0.3,2.2,0.3,4.3,0.3,6.5c0.1,10-1,19.7-4.1,28.9c-0.4,1.1-0.7,2.3-1.3,3.4
	c-0.7,1.4-1.6,2.5-3,3.3c-2.4,1.4-4.9,1.2-7.4-0.6c-1.8-1.3-3.2-2.9-4.2-4.9c-1.8-3.8-3.2-7.7-3.4-11.9C71.4,107.4,72,98.6,74,89.9z
	 M79.5,114.3c0.2,2.9,0.7,5.7,1.1,8.6c0.3,1.6,0.5,3.5,2.4,4.7c0.4-0.2,0.7-0.3,0.7-0.5c0.2-0.4,0.4-1,0.6-1.5
	c2.1-6.2,2.7-12.8,3.8-19.3c0.6-3.9,0.1-8-0.7-11.9c-0.3-1.3-0.9-2.7-1.5-4c-0.2-0.6-0.8-1-1.3-1.5c-2,0.6-3,1.8-3.6,3.3
	c-0.4,1.3-0.7,2.6-1,3.9C79,102,79.2,108.1,79.5,114.3z M115.5,78c-1.3-0.1-2.1,0.5-2.4,1.5c-0.4,1.5-0.7,2.9-0.7,4.5
	c-0.1,3.5-0.1,7.1,0,10.7c0.1,5.7,0,11.3-0.7,16.9c-0.5,4.3-1.4,8.4-2.8,13c-0.4-4.4-1-8.2-1.1-11.9c-0.2-7.1-0.1-14.2-0.2-21.4
	c-0.1-2.1-0.1-4.2-0.3-6.3c-0.4-2.9-1.6-3.7-5.4-3.4c-0.4,0.7-1.1,1.3-1.3,2c-0.6,3.3-1.5,6.6-1.4,10.1c0.1,4.3-0.1,8.6-0.1,13
	c0.1,5.7,0.2,11.3,0.5,16.9c0.1,2.1,0.9,4.2,1.5,6.3c0.5,1.7,1.7,3.1,3.2,4.3c3.4,2.6,7.9,2.4,10.2-0.7c0.8-1,1.5-2.2,1.8-3.5
	c1.8-5.7,3.2-11.6,3.2-17.7c0.1-7.9,0.1-15.8,0-23.6c-0.1-2-0.3-4-0.6-6c-0.1-1-0.6-2-1-2.9C117.6,78.7,116.7,78,115.5,78z
	 M148.8,128.6c-2-0.8-3.5-2.4-4.4-4.3c-0.7-1.5-1.3-3-1.8-4.5c-0.5-1.4-1-2.8-2.7-4.1c-0.7,0.6-1.4,1-1.8,1.7
	c-0.8,1.5-0.8,3.2-0.4,5c1,4.6,3.4,8.2,7.1,11c2.7,2.1,5.8,2.3,8.5,0.4c1.8-1.2,3-2.9,3.9-4.9c0.9-2.3,1.3-4.6,1.5-7.1
	c0.8-11.1,0.5-22.4,0.4-33.6c0-1.3-0.2-2.7-0.4-4c-0.4-2.4-1.8-4.1-4.1-4.8c-4.3-1.5-8.5-1-12.3,1c-1.2,0.6-2.1,1.5-2.1,3.2
	c0.1,0.3,0.1,0.7,0.3,1c0.2,0.3,0.4,0.6,0.7,0.8c3.5,1.8,3.5,1.8,6.8,1.6c0.5,0,1,0.2,1.6,0.3c0,1,0,1.7-0.1,2.4
	c-0.9,6.7-0.3,13.5,0.6,20.3c0.3,2.7,0.5,5.4,0.8,8.1c0.1,1.8,0.3,3.7,0.3,5.5C151.1,125.7,150.8,127.6,148.8,128.6z M172.6,124.6
	c-0.4-4.4-1-8.2-1.1-11.9c-0.2-7.1-0.1-14.2-0.2-21.4c-0.1-2.1-0.1-4.2-0.3-6.3c-0.4-2.9-1.6-3.7-5.4-3.4c-0.4,0.7-1.1,1.3-1.3,2
	c-0.6,3.3-1.5,6.6-1.4,10.1c0.1,4.3-0.1,8.6-0.1,13c0.1,5.7,0.2,11.3,0.5,16.9c0.1,2.1,0.9,4.2,1.5,6.3c0.5,1.7,1.7,3.1,3.2,4.3
	c3.4,2.6,7.9,2.4,10.2-0.7c0.8-1,1.5-2.2,1.8-3.5c1.8-5.7,3.2-11.6,3.2-17.7c0.1-7.9,0.1-15.8,0-23.6c-0.1-2-0.3-4-0.6-6
	c-0.1-1-0.6-2-1-2.9c-0.4-1-1.3-1.7-2.6-1.7c-1.3-0.1-2.1,0.5-2.4,1.5c-0.4,1.5-0.7,2.9-0.7,4.5c-0.1,3.5-0.1,7.1,0,10.7
	c0.1,5.7,0,11.3-0.7,16.9C174.9,115.9,174,120,172.6,124.6z M196.7,110.6c0.1-0.9,0.1-1.8-0.1-2.7c-0.3-1.5-1.2-2.7-3.3-3.1
	c-1.9,0.1-3.1,1-3.9,2.2c-1,1.5-1.8,3.1-2,4.9c-0.6,4.2-0.3,8.4,0.9,12.7c0.8,2.9,2.5,5.4,5.3,7.4c1,0.8,2.2,1.5,3.5,2
	c3.5,1.4,6.7,0.7,8.5-1.6c0.6-0.7,1-1.5,1.3-2.4c2.1-5.8,2.2-11.9,0.7-18c-1-4.7-3.2-9.4-6.4-13.6c-1.3-1.8-2.4-3.7-3.5-5.5
	c-0.6-1.1-1.2-2.3-1.3-3.5c-0.2-1-0.1-2.1,0.2-3.2c0.1-0.4,0.9-0.7,1.4-1.2c1.8,1,2.1,2.4,2.1,3.6c0.1,2.2,1.5,4.3,2.4,6.3
	c0.4,0.7,1.1,1.4,1.5,1.8c1.8,0.6,2.8,0.2,3.6-0.6c1-0.9,1.3-2.1,1.3-3.2c-0.1-3.3-1-6.5-3.1-9.6c-1.2-1.6-2.8-2.9-5-3.9
	c-3-1.3-6.7-1.1-8.8,0.6c-3.2,2.7-4.9,6-4.1,10.1c0.5,2,1.6,3.8,2.9,5.6c4,5.2,7.5,10.6,9.1,16.5c1,3.5,1.5,7.1,1.3,10.6
	c-0.1,1.5-0.6,3-2.1,4.1c-1.8-0.7-2.4-1.8-2.5-2.9c-0.2-1.8-0.4-3.8-0.4-5.6C196.3,115.9,196.6,113.3,196.7,110.6z M233.9,87.4
	c1,0,2.1-0.2,3.1-0.6c1.3-0.4,1.9-1.8,1.8-3c-0.1-1.3-1.2-2.5-2.5-2.9c-0.9-0.2-1.8-0.2-2.8-0.3c-1.6-0.1-3.3,0.1-4.9-0.2
	c-4.6-0.9-8.9-0.2-13.3,0.3c-1.1,0.1-2.3,0.4-3.3,0.8c-1.8,0.7-2.7,2.3-2.1,3.8c0.4,1.5,1.7,2.4,3.5,2.4c1.2,0,2.4-0.2,3.5-0.4
	c1-0.2,2.1-0.5,3.3,0c0.2,1.8,0.2,3.8,0.2,5.6c0.1,8.9-0.2,17.7,0.5,26.7c0.1,0.8-0.1,1.6,0,2.4c0.3,3.5,0.7,6.8,1,10.2
	c0.1,0.8,0.4,1.6,1.6,1.9c1-0.6,1-1.8,1.2-2.9c1.7-11.3,2.6-22.9,2.5-34.5c-0.1-2.6-0.1-5.2-0.1-7.8v-1.7
	C229.5,87.4,231.7,87.4,233.9,87.4z M260.3,89.6c-3.1,9.8-4.3,19.9-3.6,30.2c0.1,2.7,0.7,5.4,1.7,8c1.8,4.9,7.2,7.3,11.9,5.5
	c1.8-0.7,3.2-1.9,4.1-3.5c3.8-6,5.7-12.3,2.4-19.2c0.2-1.1,0.4-2.1,0.5-3c-0.4-1.3-1-2.1-2.1-2.5c-1.4-0.6-2.8-0.4-4.2-0.1
	c-2.6,0.7-4.8,2.7-4.7,4.7c0.2,0.4,0.7,1,1,1.5l4.3,0.7c0.2,0.5,0.5,0.9,0.6,1.4c1,4,0.1,7.7-1.5,11.2c-0.8,1.8-2.5,2.7-4.3,2.4
	c-1.2-0.6-1.7-1.3-2-2.3c-0.3-1.3-0.7-2.6-0.8-3.8c-0.8-10,0.3-19.7,3.4-29.1c0.6-1.9,1.5-3.6,3.6-4.6l2.9,0.5
	c1.7-0.7,2.6-1.8,2.4-3.5c-0.2-1.8-1.5-2.9-3.1-3.6c-1.5-0.5-3-0.4-4.5,0.1c-1.7,0.5-3.2,1.5-4.3,2.8
	C262.3,85.1,261.1,87.2,260.3,89.6z M285.1,128.3c-1.8-3.8-3.2-7.7-3.4-11.9c-0.7-9.1-0.1-17.9,1.9-26.5c0.6-2.7,1.7-5.2,3.2-7.5
	c1-1.3,2.1-2.4,4-2.5c0.6-0.1,1.1-0.3,1.6-0.4c3.7-1,6.8,0.2,9.1,3.7c1.7,2.7,2.9,5.6,3.2,8.6c0.3,2.2,0.3,4.3,0.3,6.5
	c0.1,10-1,19.7-4.1,28.9c-0.4,1.1-0.7,2.3-1.3,3.4c-0.7,1.4-1.6,2.5-3,3.3c-2.4,1.4-4.9,1.2-7.4-0.6
	C287.5,132,286.1,130.3,285.1,128.3z M289.2,114.3c0.2,2.9,0.7,5.7,1.1,8.6c0.3,1.6,0.5,3.5,2.4,4.7c0.4-0.2,0.7-0.3,0.7-0.5
	c0.2-0.4,0.4-1,0.6-1.5c2.1-6.2,2.7-12.8,3.8-19.3c0.6-3.9,0.1-8-0.7-11.9c-0.3-1.3-0.9-2.7-1.5-4c-0.2-0.6-0.8-1-1.3-1.5
	c-2,0.6-3,1.8-3.6,3.3c-0.4,1.3-0.7,2.6-1,3.9C288.7,102,288.8,108.1,289.2,114.3z M308.1,81.5c-1.8,0.7-2.7,2.3-2.1,3.8
	c0.4,1.5,1.7,2.4,3.5,2.4c1.2,0,2.4-0.2,3.5-0.4c1-0.2,2.1-0.5,3.3,0c0.2,1.8,0.2,3.8,0.2,5.6c0.1,8.9-0.2,17.7,0.5,26.7
	c0.1,0.8-0.1,1.6,0,2.4c0.3,3.5,0.7,6.8,1,10.2c0.1,0.8,0.4,1.6,1.6,1.9c1-0.6,1-1.8,1.2-2.9c1.7-11.3,2.6-22.9,2.5-34.5
	c-0.1-2.6-0.1-5.2-0.1-7.8v-1.7c2.5,0,4.7,0.1,6.9,0c1,0,2.1-0.2,3.1-0.6c1.3-0.4,1.9-1.8,1.8-3c-0.1-1.3-1.2-2.5-2.5-2.9
	c-0.9-0.2-1.8-0.2-2.8-0.3c-1.6-0.1-3.3,0.1-4.9-0.2c-4.6-0.9-8.9-0.2-13.3,0.3C310.3,80.8,309.1,81.1,308.1,81.5z M361.5,87.4
	c1,0,2.1-0.2,3.1-0.6c1.3-0.4,1.9-1.8,1.8-3c-0.1-1.3-1.2-2.5-2.5-2.9c-0.9-0.2-1.8-0.2-2.8-0.3c-1.6-0.1-3.3,0.1-4.9-0.2
	c-4.6-0.9-8.9-0.2-13.3,0.3c-1.1,0.1-2.3,0.4-3.3,0.8c-1.8,0.7-2.7,2.3-2.1,3.8c0.4,1.5,1.7,2.4,3.5,2.4c1.2,0,2.4-0.2,3.5-0.4
	c1-0.2,2.1-0.5,3.3,0c0.2,1.8,0.2,3.8,0.2,5.6c0.1,8.9-0.2,17.7,0.5,26.7c0.1,0.8-0.1,1.6,0,2.4c0.3,3.5,0.7,6.8,1,10.2
	c0.1,0.8,0.4,1.6,1.6,1.9c1-0.6,1-1.8,1.2-2.9c1.7-11.3,2.6-22.9,2.5-34.5c-0.1-2.6-0.1-5.2-0.1-7.8v-1.7
	C357.1,87.4,359.3,87.4,361.5,87.4z M378.2,119.9c0-0.5-0.1-1-0.1-2.1c-2.3-0.1-4.2-0.2-6.3-0.1c-0.2,1-0.4,1.9-0.7,2.9l-2.4,12.4
	c-0.3,1.1-0.4,2.4-1.9,2.9c-0.3-0.2-0.7-0.4-1.2-0.7c-0.3-4.1-0.6-8.1-0.6-12.2c-0.1-4.2,0.4-8.2,1-12.4c0.7-4.8,1.2-9.7,1.3-14.7
	c0.1-3.9,0.6-7.8,1.8-11.5c0.4-1.4,1-2.9,1.9-4.1c2.1-3,5.7-3,8.5-0.1c1.5,1.7,2.4,3.8,3,6c1,4.1,1.6,8.3,1.7,12.5
	c0.1,5.4,0.2,10.8,0.3,16.1c0,3.8,0,7.7-0.1,11.5c0,1.1-0.1,2.2-0.4,3.2c-0.3,1.5-1.3,2.4-2.6,2.4c-1.3,0-2.7-1-3-2.7
	c-0.3-1.3-0.4-2.7-0.4-4C378.1,123.7,378.2,121.8,378.2,119.9z M378.1,111.3c-0.1-1.4-0.1-2.4-0.1-3.3c0-2.4-0.2-4.6-0.1-6.9
	c0.3-4.3-0.4-8.5-1.3-12.8c-0.1-0.7-0.5-1.2-1-2.1c-0.4,0.8-0.7,1.3-0.7,1.8c-0.4,2.1-0.8,4.2-1,6.4c-0.5,5.5-0.9,10.8-1.3,16.3
	c0,0.3,0.1,0.6,0.3,1.1C374.5,111.6,376.1,111.4,378.1,111.3z M102.9,176c-8,4.8-11.9,15.6-11.9,32.6c0,12.5,2.1,22,6.4,28.3
	c3.4,5.1,8.2,7.7,14.4,7.7c4.8,0,8.7-1.8,11.7-5.5c3-3.6,4.6-7.5,4.6-11.6c0-0.9-0.2-1.5-0.7-2c-0.5-0.5-1.1-0.7-1.7-0.7
	c-1.5,0-2.5,0.9-2.9,2.8c-1.5,6.6-4.7,9.8-9.5,9.8c-3.3,0-5.9-2.7-7.7-8.2c-1.9-5.9-2.9-13.5-2.9-22.9c0-4.6,0.3-8.8,1-12.6
	c1.7-9.3,5.3-13.9,10.9-13.9c2.9,0,5,1.8,6.3,5.4c0.9,2.4,1.4,5.4,1.4,8.9c0,2.4-0.1,4.4-0.4,6.2c-0.2,1.4-0.3,2.7-0.3,3.8
	c0,1.4,0.2,2.4,0.7,3s1.2,0.9,2.3,0.9c1.6,0,2.7-1.4,3.3-4.1c0.4-1.8,0.6-4.6,0.6-8.6c0-6.3-1-11.3-3.1-15.1
	c-2.6-4.6-6.7-6.8-12.5-6.8C108.7,173.7,105.5,174.5,102.9,176z M137.1,222c0,3.6,0.1,7,0.3,10c0.3,3.3,1,6,2.1,8.2
	c1.5,3,4.1,4.5,7.7,4.5c1.1,0,2.4-0.2,3.9-0.6c1.5-0.4,2.7-1,3.6-1.7c0.7-0.5,1-1.2,1-2c0-1-0.6-1.5-1.8-1.5c-0.4,0-1,0.1-1.8,0.3
	c-0.5,0.2-1.1,0.2-1.8,0.2c-0.8,0-1.3-0.3-1.7-0.9c-0.4-0.6-0.6-1.7-0.8-3.3c-0.1-1.6-0.2-4-0.2-7.1v-47c0-1.9-0.3-3.5-0.9-4.8
	c-0.9-1.9-2.4-2.8-4.6-2.8c-1.9,0-3.2,0.6-3.9,1.8c-0.7,1.2-1.1,3.2-1.1,6.2V222z M180.2,231.3c-1.9,4.9-4.3,7.3-7.3,7.3
	c-3.2,0-4.8-4.7-4.8-14c0-8.9,0.3-16.9,1-24c0.3-2.9,0.4-5.1,0.4-6.8c0-2.5-1.4-3.7-4.1-3.7c-1.5,0-2.5,0.5-3.1,1.6
	c-1.6,3.1-2.5,13.8-2.5,32c0,7.1,1,12.4,2.9,15.9c1.9,3.4,4.8,5.2,8.7,5.2c4.1,0,7.5-2.1,10.3-6.4c0.9-1.4,1.4-2.1,1.6-2.1
	c0.2,0,0.2,0.3,0.2,1c0,1.3,0.2,2.5,0.5,3.6c0.3,1.2,0.9,2.1,1.7,2.8c0.8,0.7,1.9,1.1,3.3,1.1c1.6,0,2.7-0.4,3.4-1.2
	c0.7-0.8,1.2-1.8,1.3-3c0.2-1.2,0.3-2.5,0.3-3.8v-38.7c0-1.3-0.1-2.6-0.3-3.8c-0.2-1.2-0.6-2.2-1.3-3c-0.7-0.8-1.9-1.2-3.4-1.2
	c-1.4,0-2.5,0.4-3.3,1.1c-0.8,0.7-1.4,1.7-1.7,2.8c-0.3,1.2-0.5,2.4-0.5,3.6v9.4c0,4.6-0.3,9-0.8,13.4
	C182.1,224.8,181.3,228.4,180.2,231.3z M209.3,241.6c2.4,2,5.5,3,9.2,3c3.5,0,6.4-1,8.6-2.9c2.3-1.9,3.8-4.4,4.6-7.5
	c0.1-0.4,0.2-0.7,0.2-1c0-0.7-0.2-1.3-0.7-1.7c-0.5-0.4-1-0.6-1.6-0.6c-1.1,0-1.8,0.6-2.3,1.7c-1.5,3.7-3.5,5.6-6,5.6
	c-3.2,0-5.7-2.3-7.3-7c-1.1-3-1.6-6.5-1.6-10.5c0-9.5,1.3-16.4,3.8-20.6c1.4-2.3,3-3.5,4.7-3.5c2.2,0,3.7,1.5,4.5,4.5
	c0.4,1.8,0.6,4,0.6,6.8c0,1.2-0.1,2.4-0.3,3.6c-0.1,0.6-0.1,1.5-0.1,2.6c0,0.9,0.1,1.8,0.4,2.5c0.3,0.7,0.9,1.1,2,1.1
	c2.5,0,3.8-3.4,3.8-10.3c0-11.6-4-17.5-11.8-17.5c-4.2,0-7.7,1.5-10.7,4.6c-5.1,5.3-7.6,14-7.6,26.1c0,4.8,0.6,8.9,1.7,12.2
	C204.7,236.5,206.7,239.4,209.3,241.6z M244.5,173.7c-1.6,0-2.7,0.4-3.4,1.2c-0.7,0.8-1.2,1.8-1.3,3c-0.2,1.2-0.3,2.5-0.3,3.8v55
	c0,1.3,0.1,2.6,0.3,3.8c0.4,2.8,2,4.1,4.8,4.1c3.7,0,5.5-2.5,5.5-7.6v-8.9c0-1.2,0.2-1.9,0.5-1.9c0.3,0,0.7,0.4,1.3,1.2
	c5.2,7.4,8.9,12.3,11.1,14.6c1.6,1.7,3.1,2.5,4.6,2.5c0.8,0,1.7-0.3,2.5-0.9c0.8-0.6,1.2-1.4,1.2-2.3c0-1.4-0.8-2.9-2.5-4.6
	c-9-9.4-13.5-14.7-13.5-15.9c0-0.5,0.2-0.9,0.5-1.5c3.5-5.7,6.4-10.2,8.7-13.4c2-2.9,3.6-5.4,4.7-7.3c1.4-2.4,2.1-4.4,2.1-6
	c0-0.9-0.3-1.5-0.9-2c-0.6-0.4-1.3-0.6-2-0.6c-0.9,0-1.6,0.3-2.2,0.8c-0.9,0.8-2,2.2-3.1,4.2c-2.9,5.5-6.7,12.1-11.4,19.9
	c-0.5,0.8-0.9,1.2-1.1,1.2c-0.2,0-0.4-0.5-0.4-1.4v-33.4C250,176.2,248.2,173.7,244.5,173.7z M310,179.7c1.5-0.1,2.5-0.2,3-0.5
	c1.1-0.5,1.6-1.4,1.6-2.6c0-1.5-1.2-2.2-3.6-2.2h-15.5c-2.4,0-3.6,0.7-3.6,2.2c0,1.2,0.5,2.1,1.6,2.6c0.5,0.3,1.5,0.4,2.8,0.5
	c1,0.1,1.5,0.6,1.5,1.6v55.5c0,0.5-0.2,0.9-0.5,1.2c-0.3,0.2-0.9,0.4-1.7,0.4c-2.4,0-3.6,1-3.6,3c0,1.6,1.1,2.4,3.4,2.4h15.3
	c2.4,0,3.6-0.7,3.6-2.2c0-1.2-0.5-2-1.5-2.6c-0.5-0.3-1.4-0.5-2.7-0.5c-0.8-0.1-1.1-0.5-1.1-1.2V181
	C308.7,180.2,309.2,179.8,310,179.7z M323.3,236.3c0.8,2.7,2.2,4.7,4.2,6.2c2,1.4,4.7,2.1,8.3,2.1c0.8,0,1.8-0.2,3-0.5
	c1.2-0.3,2.3-0.8,3.3-1.4c1-0.6,1.4-1.4,1.4-2.4s-0.6-1.5-1.8-1.5c-0.4,0-0.7,0-1.1,0.1c-1,0.3-2,0.4-2.9,0.4c-1.1,0-2-0.3-2.8-0.9
	c-0.7-0.6-1.3-1.7-1.7-3.3c-0.4-1.6-0.6-4-0.6-7.1V198c0-1,0.5-1.5,1.5-1.5h5.2c1.1,0,1.9-0.3,2.5-0.8c0.5-0.5,0.8-1.1,0.8-1.7
	c0-1.8-0.9-2.7-2.6-2.7h-5.9c-1,0-1.5-0.5-1.5-1.6v-3.5c0-2.8-0.6-4.8-1.8-6.2c-0.9-0.9-2.1-1.4-3.7-1.4c-1.6,0-2.7,0.4-3.4,1.2
	c-0.7,0.8-1.2,1.8-1.3,3c-0.2,1.2-0.3,2.5-0.3,3.8v3.1c0,1.1-0.5,1.6-1.6,1.6c-1.8,0-3,0.2-3.7,0.7c-0.5,0.4-0.8,1-0.8,2
	c0,0.6,0.3,1.2,0.8,1.7c0.5,0.5,1.4,0.8,2.5,0.8h1.3c1.1,0,1.6,0.5,1.6,1.5v28.6C322.1,230.4,322.5,233.6,323.3,236.3z M194.9,169
	c0.1-0.8,0.1-1.5-0.1-2.3c-0.3-1.3-1-2.3-2.9-2.7c-1.6,0.1-2.7,0.9-3.4,1.9c-0.9,1.3-1.5,2.7-1.7,4.2c-0.5,3.6-0.3,7.2,0.8,10.9
	c0.7,2.5,2.2,4.6,4.6,6.4c0.9,0.7,1.9,1.3,3,1.7c3,1.2,5.8,0.6,7.3-1.4c0.5-0.6,0.8-1.3,1.1-2c1.8-5,1.9-10.3,0.6-15.5
	c-0.9-4.1-2.7-8.1-5.5-11.7c-1.1-1.5-2.1-3.2-3-4.8c-0.5-1-1-2-1.1-3c-0.2-0.9-0.1-1.8,0.2-2.7c0.1-0.4,0.8-0.6,1.2-1
	c1.5,0.9,1.8,2,1.8,3.1c0.1,1.9,1.3,3.7,2.1,5.5c0.3,0.6,1,1.2,1.3,1.6c1.5,0.5,2.4,0.2,3.1-0.5c0.8-0.8,1.1-1.8,1.1-2.8
	c-0.1-2.9-0.9-5.6-2.7-8.2c-1-1.4-2.4-2.5-4.3-3.4c-2.6-1.1-5.8-1-7.5,0.5c-2.8,2.3-4.3,5.1-3.5,8.7c0.4,1.7,1.4,3.3,2.5,4.8
	c3.4,4.5,6.5,9.1,7.9,14.2c0.8,3,1.3,6.1,1.1,9.1c-0.1,1.3-0.5,2.6-1.8,3.6c-1.5-0.6-2-1.5-2.2-2.5c-0.2-1.6-0.4-3.2-0.3-4.8
	C194.5,173.5,194.8,171.3,194.9,169z M209.4,156.5c0.1-3.4,0.5-6.7,1.6-9.9c0.4-1.2,0.9-2.5,1.6-3.5c1.8-2.6,4.9-2.6,7.3-0.1
	c1.3,1.5,2.1,3.3,2.6,5.1c0.9,3.6,1.4,7.2,1.5,10.8c0.1,4.6,0.2,9.3,0.3,13.9c0,3.3,0,6.6-0.1,9.9c0,1-0.1,1.9-0.3,2.8
	c-0.3,1.3-1.1,2.1-2.2,2.1c-1.1,0-2.3-0.9-2.6-2.3c-0.3-1.1-0.3-2.3-0.3-3.4c-0.1-1.6,0.1-3.2,0.1-4.8c0-0.4-0.1-0.9-0.1-1.8
	c-2-0.1-3.6-0.2-5.5-0.1c-0.2,0.9-0.4,1.6-0.6,2.5l-2.1,10.7c-0.3,1-0.3,2.1-1.6,2.5c-0.3-0.2-0.6-0.4-1-0.6
	c-0.3-3.5-0.5-7-0.5-10.5c-0.1-3.6,0.4-7.1,0.9-10.7C208.9,165,209.3,160.7,209.4,156.5z M213.9,169c0,0.3,0.1,0.5,0.3,1
	c1.5-0.1,2.8-0.2,4.5-0.3c-0.1-1.2-0.1-2-0.1-2.9c0-2-0.2-4-0.1-6c0.3-3.7-0.4-7.4-1.1-11c-0.1-0.6-0.4-1-0.8-1.8
	c-0.3,0.7-0.6,1.1-0.6,1.5c-0.3,1.8-0.7,3.6-0.9,5.5C214.6,159.7,214.3,164.3,213.9,169z M239.7,143.1c-1.3,4.4-2.5,8.8-3.7,13.2
	c-0.3,0.8-0.3,1.7-1.1,2.6c-0.6-1.6-1.1-3-1.6-4.6c-0.6-2.2-1.1-4.4-1.7-6.5c-0.4-1.5-1-3-2-4.2c-0.8-0.9-1.6-1.6-2.9-1.5
	c-1.3,0.4-1.8,1.5-1.8,2.7c0,1,0.2,2,0.4,3c0.3,1.4,0.8,2.8,1.1,4.2c0.8,3.6,1.7,7.2,3,10.7c0.8,1.9,1.2,3.9,1.3,6
	c0.2,4.2,0.4,8.3,0.8,12.5c0.3,2.3,0.7,4.6,1.2,6.9c0.3,1.1,0.8,2.4,2.3,2.7c1-0.5,1.1-1.5,1.4-2.5c0.9-2.9,1-5.9,1-8.9v-13.8
	c4.5-6.1,5.9-13.8,7.9-21.1c0.1-0.2,0.1-0.4,0.1-0.6c0.5-1.9,0-3.8-0.6-5.7c-0.1-0.4-0.7-0.7-1-1c-1.7,0.9-1.8,0.8-2.2,1.6
	C240.9,140.2,240.2,141.6,239.7,143.1z M181.7,294.5c-1.2,2.4-1.9,4.3-2.1,5.6c-5.2,9.9-8.7,14.5-10.3,13.7l-0.5-0.2
	c-1.3-0.6-0.8-3.4,1.6-8.3l1.4-2.9l-0.5-0.2c-5.5-2.7-8.9-2.7-10.2-0.1c-2.2,3.4-3.8,4.8-5,4.2c-1.4-1.2-1.7-2.8-0.8-4.6
	c10.8-22.2,17.8-32.4,21.1-30.8c0.4-0.9,2.4-0.8,5.9,0.4C188.1,274,187.9,281.8,181.7,294.5z M181.8,275.8l-2-1
	c-2.3-1.1-7.1,5.8-14.4,20.8c0.3,0.2,0.4,0.4,0.3,0.7c5.3,1.6,8.2,1.9,8.7,0.6c1.5-3.2,4.2-9.1,8.1-17.8
	C182.7,277.4,182.4,276.2,181.8,275.8z M235.7,288.8c-1.5-0.6-2.8-0.3-3.8,1.1l-0.6,3c-3,6.1-5.1,10.7-6.4,13.9l-0.2,0.6l-0.6-0.2
	l-0.9-1c0.1-14.6-1.1-22.4-3.5-23.4l-2.6,1.6c-0.7,2.7-1.4,4.9-2,6.4l-12.7,30.5c-0.8,2-0.6,3.6,0.6,4.9l1.7,0.7
	c2.2-3.1,3.6-5.4,4.2-6.9l8.5-20.3l0.6,0.2c1.9,10.4,2.6,16,2.3,16.9l-4.7,11.3c-1.2,2.9-1.2,4.9,0.1,6l1.1,0.5
	c0.6,0.2,1.5-0.3,2.6-1.6l-0.1-1.3c2.1-4,3.8-7.5,5-10.5l1.4-3.4c2.9-6.9,6.7-15.5,11.4-25.8C237.2,290.7,236.7,289.6,235.7,288.8z
	 M263.9,316.1c-1.4,4.6-2.1,7.1-2.4,7.7c-5.7,12.6-10.9,19-15.7,19.2c-1.9,0.1-4.3-0.3-7.2-1.1c-3.9-2.6-5.6-4.5-5.1-5.6
	c0.4-0.5,0.8-0.7,1.3-0.5l2.7,1.2l13.5-30c-0.8-2.3-1.1-3.6-1-3.8l0.2-0.4c0.5-1.2,3.4-1.1,8.5,0.5
	C263.4,305.5,265.1,309.8,263.9,316.1z M259.3,308.1l-1.4-0.6c-0.7-0.3-1.5,0.2-2.4,1.7c-1.8,4-3.3,7.7-4.4,11.1
	c-2.6,5-5.4,10.7-8.2,17.1l-0.6,1.4l0.9,0.4c3,1.4,7.2-3.9,12.5-15.7C259.6,313.8,260.8,308.7,259.3,308.1z M316.4,359.5
	c-0.5,3.3-2.9,7.5-5.5,9.3c-7.8,5.6-21.3,6.4-33.3,2.3c-4.9-1.7-9.7-1.7-14.7-3.5c-20-7.2-38.6-16.7-56.8-24.4
	c-5.5-2.3-11.5-3.1-17.2-5.5c-4.3-1.8-8.7-3.4-12.6-5.1c-0.8-0.4-5.1-2.4-5.6-2.1c-0.7,0.4,0.1,2.7,0.3,3.7c0.9,6.4,1.8,13-0.6,20.4
	c-2.5,7.6-10.5,7.6-18.2,7c-5.5-0.4-10,0.2-14.9-0.6c-8.9-1.4-16.4-3.3-25-3.3c-4.8,0-10.2,0.7-12.3-3.9c-1.5-3.3-0.8-8.3-0.9-12.3
	c-0.2-9-0.5-17.9-0.3-27.9c0.1-6.5-1.1-12.2-1.6-18.5c-0.2-2.1-0.9-4.1-1-5.8c0-1.4,0.4-4.2,0.7-5.1c0.9-2.3,3.3-1.6,6-2
	c1.5-0.2,2.8-1.4,3.8-1.5c3-0.4,6.6-0.5,9.7-0.6c0.9,0,9.3,1.2,10.1,0.4c0.3-0.3,1-4.8,1.1-5.6c0.9-5.5,1.3-11.7,4-17.2
	c1.6-3.3,7.7-6.8,10.3-7.6c0.7-0.2,2.7-0.6,3.8-0.7c5.5-0.5,15.8,0.4,21.7,1.2c6.6,0.9,13.8,4.6,20.7,6.6c7.9,2.3,16.7,6.5,24.9,9.9
	c7.6,3.1,14,7.6,20.3,10.4c3.4,1.5,6.5,2.1,9.2,3.5c1.1,0.6,2,1.7,3.2,2.3c5.5,2.7,12,4.3,18.2,5.7c2.9,0.7,7,1.7,10.3,2.6
	c1.4,0.4,4.4,1.1,4.7,0.8c1.3-1.1-0.3-6.6-0.5-8.4c-0.1-1,0.1-2.5,0-3.2c-0.5-5-3.7-11.6-2.2-18c1.2-4.9,5.4-9,8.7-11
	c4-2.3,14.6-2.3,20.3-1.5c4.7,0.6,9.3,0.3,13.1,0.3c3.6,0.1,8,0.3,11.3,1.3c2.6,0.8,1.9,6.9,1.8,9c-0.1,4.3-0.9,9.8-0.7,13.6
	c0.8,15,2.2,34.3,4.3,49.3c0.9,6.4,3.3,11.7-5.3,11.7c-1.4,0-10.8-2.4-11.6-1.7c-1.3,1.2-0.2,6.5-0.3,9
	C317.6,348.2,317.1,354.4,316.4,359.5z M128.6,336.3c0.2-1.3,0.9-2.5,1-3.8c0.1-1,0.3-6.4,0.1-6.6c0,0-0.4-0.1-0.4-0.1
	C126.5,328.4,123.7,334.6,128.6,336.3z M162.3,347.7c-5.2-2.7-13.6-0.8-17.1-1c-7.8-0.5-18.7-4.7-21.8-10.5
	c-2.7-5.1-0.6-11.3,0.2-17.3c1-7.9,0.4-16,1.3-24.5c0.4-3.6,1.9-8.7-0.4-9.6c-2.8-1.2-8.5-0.3-12.9-0.1c-1.8,0.1-5.5,0.4-7.1,1.1
	c-3.2,1.4-2.5,6.5-2.5,9.3c0,7.3,1,14.7,1.2,20.7c0.3,9.1-0.1,17.9,0,26.7c0,3.1-0.4,7,0.4,8.6c1.6,3.2,6,2.1,10.3,2.6
	c8.3,0.8,17.2,2.7,25.5,3.7c5.1,0.6,15.2,1.4,19.7,0.2C163.5,356.4,167.5,350.4,162.3,347.7z M131.9,338.4c0.2,0.5,3.5,2,4.2,1.6
	c1.1-0.6,1.2-11.3,1.5-13.4c0.3-1.9,0.6-1.6-0.3-2c-3.1-1.2-3.6,8.6-4.6,11.7C132.4,337,131.6,337.7,131.9,338.4z M143.6,337.4
	c0.2-3.3,2.9-12.1,0.9-12.7c-1.9-0.6-1.8,0.7-2.1,2.4c-0.6,2.9-2.7,12.4-1.8,13.7c0.2,0.2,2.9,0.9,3,0.8
	C144.3,340.9,143.5,338.9,143.6,337.4z M151.4,332c0.1-1.3,2.5-8-0.9-6.8c-2,0.7-1.3,4.7-1.5,7.2c-0.2,2.2-1,3.7-1.3,5.8
	c-0.4,2.4,1.2,5.9,3.2,3.8C152.6,340.3,151.1,335.4,151.4,332z M156.3,342.3c3.5,2.9,3.3-3.8,3.5-6c0.3-3.4,1-9.8-2.2-9.3
	c-2.3,0.4-1.7,4.6-2.1,7.9C155.2,337.4,155.2,341.4,156.3,342.3z M166.4,336.9c-0.5-3.2,1-7.3-1.4-8.2c0.1,1.8-1,3.7-1.1,5.8
	c-0.4,4.7-1.3,10.9,2.7,12.2C167.3,343.7,166.8,339.3,166.4,336.9z M313.1,292.5c0-0.1,0-0.2-0.1-0.2c-7.4,5-19.9,6.9-30.6,5.6
	c-5.7-0.7-11.6-1.6-18.6-3.3c-17.1-4.2-31.6-14.4-48.3-21.3c-9.4-3.9-18.7-7.8-27.7-11.5c-3.4-1.4-7.2-1.9-10.8-3.1
	c-15.3-5.1-32.4-7.4-40.9,0.6c-3.7,3.6-4.5,11.6-5.2,17c-0.5,3.7-1.2,7.5-1.4,10.9c-0.3,5.7-0.5,10.9-0.6,15.7
	c-0.2,6.6-0.8,12.7-0.5,19.2c8.1-3.3,21.4-2.7,31.1,0.1c1.1,0.3,2.6,1.5,3.9,1.9c3.7,1.1,7.6,1.6,11.5,2.9
	c5.7,1.9,11.4,4.7,17.3,6.8c16.4,5.8,32.8,13.1,48.2,19.5c5.4,2.3,11,5.2,17.7,7.3c10.6,3.4,21.1,7.4,30.7,8.7
	c3.7,0.5,7.5-0.6,10.8-1.3c3.7-0.9,8.9-2.8,10.8-6.4c1-1.7,0.7-4.2,1.2-6.9c1.6-8.2,0.9-12.7,1.5-19.7
	C314.3,319.7,314.4,305.8,313.1,292.5z M282.5,287.2c0.1,1.3,0.3,4.9,1.2,5.6c3.7,2.8,3-3.5,2.7-5.4c-0.3-2.4-1.9-8.6-2.5-11.3
	c-0.4-1.7,0.1-2.7-1.7-3C282.7,276.8,282.2,282.5,282.5,287.2z M290.1,293.5c0.3,0.2,3.4-0.4,3.5-0.5c1-1.2-0.5-7.1-0.9-10
	c-0.3-2.6,0-7.5-2.9-7.2c-0.8,0.1-1.1,0.1-1.3,0.7c-0.5,2,1.2,6.2,1.4,9.9C290,288.7,289.4,292.9,290.1,293.5z M297.2,292.4
	c0.9,0.8,3-0.1,3,0c0.5-0.6,0.1-4.1,0-5.5c-0.3-2.5-0.5-5.2-0.8-6.6c-0.3-1.3-1.2-3.9-2.5-3.4c-1.4,0.6-0.2,7.7,0,10.2
	C297.1,288.7,296.6,291.9,297.2,292.4z M303.8,277.2c-0.1,0.1-0.5,1.5-0.5,1.8c-0.2,2,0.3,11.6,1.8,12.4c2.4,1.2,1.7-2.4,1.7-3.2
	c-0.1-1.7-1-5.2-1.1-6.9C305.6,280,306.1,275.6,303.8,277.2z M310.6,287.5c2.9-2.4,2.9-6.7-0.9-7.9
	C309.7,282.5,309.7,285.3,310.6,287.5z M316.1,278.2c0.9,1.1,2.3,4.8,2.4,7.6c0.2,9.5,1.2,20.1,0.2,30c-0.2,2.2-0.8,11.5,0.1,12.3
	c1,0.9,5.5,1.3,7.2,1.5c2.2,0.3,3.8-0.5,5.7,0.7c-0.9-4.6-0.3-9.5-1-14.3c-0.7-5.1-2.8-10-3-15c-0.1-3.1,0.2-5.7-0.2-7.9
	c-1.2-6.7-0.2-13.9-0.3-20.9c-0.1-3.8-0.8-7.6-0.3-11.3c0.4-3.3,0.7-4.9-2.2-5.3c-11.2-1.5-24.5-1.8-34.1-0.1
	c-2.8,0.5-6.3,0.3-7.6,2.4c-1.2,1.9-1.5,5.1-1.3,6.4c0.2,1.3,2.6,3.9,5.2,5.2c3.7,1.9,8.1,1.6,12.1,2.4c2.6,0.5,5,1.8,7.4,2.4
	C309.9,275.5,313.9,275.8,316.1,278.2z M186.9,348.6l-1.8-5.6l-1.8,5.6h-5.9l4.8,3.5l-1.8,5.6l4.8-3.5l4.8,3.5L188,352l4.8-3.5
	H186.9z M204.4,354.9h-4.8l-1.5-4.6l-1.5,4.6h-4.8l3.9,2.8l-1.5,4.6l3.9-2.8l3.9,2.8l-1.5-4.6L204.4,354.9z M212.2,358.3l-1.5-4.6
	l-1.5,4.6h-4.8l3.9,2.8l-1.5,4.6l3.9-2.8l3.9,2.8l-1.5-4.6l3.9-2.8H212.2z M262.3,283l3.3-6.4l7.1,1.2l-5-5.1l3.3-6.4l-6.4,3.2
	l-5-5.1l1.1,7.1l-6.4,3.2l7.1,1.2L262.3,283z M246.4,275.1l2.7-5.2l5.8,0.9l-4.1-4.2l2.7-5.2l-5.3,2.6l-4.1-4.2l0.9,5.8l-5.3,2.6
	l5.8,0.9L246.4,275.1z M232.6,267.1l2.7-5.2l5.8,0.9l-4.1-4.2l2.7-5.2l-5.3,2.6l-4.1-4.2l0.9,5.8l-5.3,2.6l5.8,0.9L232.6,267.1z
	 M78.7,349.7c2.5,0.7,5.2,1.5,7.7,2.8c-0.3-0.5-0.6-0.9-0.9-1.3c-1.2-1.8-2.5-3.6-3.6-5.5c-0.1-0.1-0.2-0.2-0.5-0.3l-0.2-0.1
	c-0.4-0.2-0.8-0.4-1.3-0.6c-3-1.4-5.7-3.5-7.8-6.1c-0.9-1.1-1.7-2.3-2.3-3.6l-0.2-0.5c-0.4-0.9-0.1-1.5,0.2-1.8
	c0.6-0.5,1.5-0.3,2-0.1c2.4,1.1,4.5,2.6,6.5,4.5c-1.3-3.7-2.3-7.7-2.9-12c0-0.3-0.1-0.5-0.5-0.7c-3.7-2.6-6.3-5.6-7.9-9.1
	c-0.5-1.1-0.8-2.1-1-3.2l-0.2-0.7c-0.3-0.9-0.1-1.5,0.5-1.8c0.2-0.1,0.4-0.2,0.7-0.2c0.6,0,1,0.3,1.2,0.5c2.1,1.7,3.7,3.2,4.9,4.9
	c0.5,0.6,1.1,1.6,1.6,2.5v0c0-2.5-0.1-4.6,0.1-7.2l0.1-1.8c0.1-1.5,0.1-2.8,0.2-4.2c0-0.5-0.1-0.8-0.5-1.3c-3.8-4.4-6-9-6.8-14.2
	l0-0.2c-0.1-0.4-0.3-1.4,0.6-1.9c0.2-0.1,0.5-0.2,0.7-0.2c0.6,0,1,0.4,1.3,0.6c2.2,1.7,3.8,3.7,5.2,6.8c0,0,0,0.1,0.1,0.1
	c0.3-5,0.4-10,0.1-14.9c0-0.4-0.1-0.5-0.4-0.7c-2.2-1.7-4.2-4-6.2-6.8c-0.7-1-1-2.1-1.2-3.1l-0.2-0.7c-0.1-0.4-0.4-1.4,0.5-2
	c0.7-0.5,1.6-0.1,2,0.1c1.5,0.9,2.7,2.1,3.8,3.3l0.4,0.4c0.3,0.3,0.6,0.6,0.8,0.9c-0.1-0.9-0.2-1.8-0.3-2.6
	c-0.2-2.4-0.5-4.6-1.3-7.4c-0.7-2.4-2-4.2-4.5-5.9c-3.8-2.8-6.8-6.2-8.8-10.3c0-0.1-0.1-0.2-0.1-0.2c-0.3-0.4-1-1.5,0-2.5
	c0.4-0.4,0.8-0.6,1.4-0.6c0.6,0,1.2,0.3,1.5,0.4c3.1,1.4,5.6,3.6,7.5,6.3c1.3,1.9,2.6,3.9,3.4,6.5c0.2,0.7,0.5,1.4,0.9,2.1
	c0.4,0.8,0.7,1.5,1,2.3c1.2,3.9,1.7,7.8,1.9,11.4c1.1-3.2,2.4-5.7,4.1-7.8c0.2-0.3,0.5-0.9,1.2-0.9c0.2,0,0.3,0,0.5,0.1
	c0.2,0.1,0.4,0.2,0.5,0.4c0.1,0.1,0.2,0.3,0.3,0.5l0,0.3l0,0.6c0,0.9,0,1.9-0.2,2.9c-0.2,4.6-1.6,8.3-3.9,10.9
	c-0.1,0.2-0.3,0.3-0.4,0.5c-1.4,1.1-1.4,2.6-1.3,4.4c0.2,4.7,0.1,9.4-0.2,13.9c1.3-2.1,2.9-3.7,4.3-5c0.5-0.5,1.1-0.7,1.5-0.5
	c0.8,0.2,0.9,1.1,1,1.4c0.2,1,0,2-0.2,2.8c-1.1,4.2-3.1,7.2-6.2,9.2c-0.7,0.4-0.8,0.7-0.8,1.1l-0.1,4.5c0,1.9-0.1,3.9-0.1,5.9
	c1.2-2.4,2.5-4.4,4.1-6.2c0,0,0.1-0.1,0.1-0.1c0.2-0.3,0.6-0.9,1.3-0.9c0.1,0,0.3,0,0.4,0.1c1.1,0.4,1.2,1.5,1.2,2
	c0.1,2.8-0.5,5.6-1.9,8.4c-0.9,1.9-2.3,3.6-4,5.2c-0.7,0.7-0.9,1.2-0.8,2.1c0.5,4.1,1.7,8.4,3.5,12.9c0.2-1.7,0.6-3.4,1.2-5.2
	c0.5-1.5,1.1-2.7,1.8-3.7c0.2-0.4,0.7-1.1,1.6-0.9c1,0.2,1.1,1.2,1.2,1.5c1.2,7.6-0.4,11.2-2,13.7c-0.6,0.9-0.6,1.3,0,2.2
	c1.3,2,2.6,3.8,3.9,5.5c-0.7-4.3,0.4-8.3,1.8-12c0-0.1,0-0.1,0.1-0.2c0.1-0.4,0.4-1.4,1.5-1.4c1.4,0.1,1.7,1.5,1.8,1.9
	c0.6,3.7,1.1,7,0.7,10.5c-0.2,2-0.5,4.2-0.8,6.4c-0.1,0.6,0,0.8,0.3,1c0.3,0.2,0.5,0.5,0.8,0.7c0.5,0.5,1,0.9,1.5,1.3
	c0.3,0.2,0.8,0.7,0.9,1.4c0.1,0.4-0.1,0.8-0.3,1.1c-0.3,0.4-0.7,0.6-1.1,0.6c-0.4,0-0.9-0.2-1.4-0.5c-1-0.7-1.9-1.6-2.6-2.5
	c-0.5-0.6-0.9-0.8-1.8-0.7c-2.7,0.2-4.9,0.1-6.9-0.5l-0.1,0c-0.2,0-0.4-0.1-0.6-0.2c-1.3-0.4-2.6-1-3.8-1.7c-0.9-0.5-1.9-1-2.7-1.6
	c-0.1-0.1-0.2-0.2-0.3-0.3c-1.2-1-2.2-2.1-3.2-3.5c-0.5-0.7-0.4-1.2-0.2-1.5c0.2-0.5,0.8-0.7,1.6-0.8
	C75.9,349.2,77.3,349.3,78.7,349.7z M62.5,243.6c0.5,0.9,1,1.9,1.6,2.7c1.8,2.6,4.1,4.9,7.5,7.4c-1.1-2.9-2.9-5.5-5.4-7.8
	C65.2,245,64,244.2,62.5,243.6z M82.2,265.9c-1.7,3.2-2.8,6.2-3.1,9.1c0.6-0.8,1.2-1.7,1.6-2.8c0.2-0.4,0.3-1,0.5-1.4
	c0.1-0.4,0.3-0.8,0.4-1.1C81.8,268.6,82,267.4,82.2,265.9C82.2,266,82.2,266,82.2,265.9z M85.7,332.7c-0.2,0.5-0.4,1-0.6,1.6
	c-1,3.1-1.4,5.8-1.2,8.2C85.6,339.7,86.2,336.5,85.7,332.7z M91.9,352.3l0.2,0.7c0.2,0.5,0.3,1,0.5,1.5c0.1-0.8,0.2-1.5,0.3-2.2
	c0.5-3.1,0.4-6.4-0.2-10.3C91.6,345.2,91.3,348.7,91.9,352.3z M79.3,354.4c0.2,0,0.3,0.1,0.5,0.2c0.2,0.1,0.5,0.3,0.7,0.4
	c2.7,1.3,5.7,2.1,8.8,2.1c-4.2-3.2-8.4-5-12.9-5.5c-0.2,0-0.3-0.1-0.5-0.1c-0.1,0-0.2,0-0.2,0c0.1,0.1,0.2,0.2,0.3,0.3l0.3,0.3
	c0.5,0.5,1.1,1.1,1.9,1.6C78.5,353.9,78.9,354.1,79.3,354.4z M74,295.3c-0.9-2.5-2.1-4.4-3.8-5.7c0.1,0.3,0.1,0.6,0.2,0.9
	c0.3,1.3,0.7,2.5,1.2,3.6c1.1,2.5,2.3,4.5,3.7,6.1c0-0.4-0.1-0.9-0.2-1.4c0-0.3-0.1-0.6-0.2-0.9c0-0.4-0.3-0.9-0.5-1.4
	C74.3,296,74.1,295.7,74,295.3z M83,293.9c-1.5,1.4-2.4,2.7-3.1,4.1c-0.6,1.2-1,2.3-1.3,3.3c0.7-0.5,1.2-1.1,1.8-1.8l0.1-0.1
	C81.9,297.5,82.8,295.7,83,293.9z M80.4,318.7c1.1-1.9,2.3-4.5,2.3-7.3c-1.5,1.8-2.5,3.9-3.4,6c-0.7,1.5-1.1,2.8-1.2,4.1
	C79.1,320.6,79.9,319.7,80.4,318.7z M75.1,274.2c-1-2.3-2.9-4-4.7-5.5c1,2.6,3,4.7,5,6.6C75.4,275,75.3,274.6,75.1,274.2z
	 M74.6,321.6c0,0,0-0.1-0.1-0.1c-1.6-3-3.4-6-6-8.2C69.6,316.4,71.6,319.1,74.6,321.6z M72.9,335.8c1.7,2.5,4,4.6,6.6,6.1
	C77.3,339,75.2,337.1,72.9,335.8z M347.6,360c-0.8,1-1.6,1.8-2.6,2.5c-0.5,0.4-1,0.5-1.4,0.5c-0.4,0-0.8-0.2-1.1-0.6
	c-0.3-0.3-0.4-0.7-0.3-1.1c0.1-0.7,0.6-1.2,0.9-1.4c0.5-0.4,1-0.8,1.5-1.3c0.3-0.2,0.5-0.5,0.8-0.7c0.3-0.3,0.4-0.5,0.3-1
	c-0.3-2.2-0.6-4.3-0.8-6.4c-0.3-3.5,0.1-6.8,0.7-10.5c0.1-0.5,0.3-1.9,1.8-1.9c1.1,0,1.3,1,1.5,1.4c0,0.1,0,0.1,0.1,0.2
	c1.4,3.7,2.5,7.8,1.8,12c1.3-1.7,2.7-3.5,3.9-5.5c0.6-0.9,0.6-1.3,0-2.2c-1.7-2.5-3.2-6.1-2-13.7c0-0.3,0.2-1.3,1.2-1.5
	c0.9-0.2,1.3,0.5,1.6,0.9c0.7,1,1.3,2.2,1.8,3.7c0.6,1.8,1,3.5,1.2,5.2c1.8-4.5,2.9-8.7,3.5-12.9c0.1-0.9-0.1-1.4-0.8-2.1
	c-1.7-1.5-3-3.3-4-5.2c-1.4-2.8-2-5.6-1.9-8.4c0-0.5,0.1-1.7,1.2-2c0.1,0,0.3-0.1,0.4-0.1c0.7,0,1.1,0.6,1.3,0.9
	c0,0,0.1,0.1,0.1,0.1c1.5,1.8,2.9,3.9,4.1,6.2c0-2,0-4-0.1-5.9l-0.1-4.5c0-0.4-0.1-0.7-0.8-1.1c-3.1-2-5.1-5-6.2-9.2
	c-0.2-0.8-0.4-1.8-0.2-2.8c0.1-0.3,0.2-1.1,1-1.4c0.5-0.2,1,0,1.5,0.5c1.4,1.3,3,2.9,4.3,5c-0.2-4.5-0.4-9.2-0.2-13.9
	c0.1-1.8,0-3.3-1.3-4.4c-0.2-0.1-0.3-0.3-0.4-0.5c-2.4-2.6-3.7-6.3-3.9-10.9c-0.1-1-0.1-2-0.2-2.9l0-0.6l0-0.3
	c0-0.2,0.1-0.4,0.3-0.5c0.1-0.2,0.3-0.3,0.5-0.4c0.2-0.1,0.3-0.1,0.5-0.1c0.7,0,1,0.6,1.2,0.9c1.7,2.1,3,4.5,4.1,7.8
	c0.3-3.6,0.7-7.6,1.9-11.4c0.3-0.8,0.6-1.6,1-2.3c0.3-0.7,0.7-1.4,0.9-2.1c0.7-2.5,2.1-4.6,3.4-6.5c1.9-2.8,4.5-4.9,7.5-6.3
	c0.4-0.2,0.9-0.4,1.5-0.4c0.5,0,1,0.2,1.4,0.6c1,1,0.3,2,0,2.5c-0.1,0.1-0.1,0.2-0.1,0.2c-2.1,4.1-5,7.5-8.8,10.3
	c-2.4,1.8-3.8,3.5-4.5,5.9c-0.8,2.8-1,5-1.3,7.4c-0.1,0.8-0.2,1.7-0.3,2.6c0.2-0.3,0.5-0.6,0.8-0.9l0.4-0.4c1.1-1.2,2.3-2.4,3.8-3.3
	c0.4-0.2,1.3-0.6,2-0.1c0.9,0.6,0.6,1.6,0.5,2l-0.2,0.7c-0.3,1-0.6,2.1-1.2,3.1c-1.9,2.9-3.9,5.1-6.2,6.8c-0.3,0.2-0.3,0.4-0.4,0.7
	c-0.2,4.9-0.2,9.9,0.1,14.9c0,0,0-0.1,0.1-0.1c1.4-3.1,3-5.1,5.2-6.8c0.3-0.2,0.8-0.6,1.3-0.6c0.3,0,0.5,0.1,0.7,0.2
	c1,0.6,0.7,1.6,0.6,1.9l0,0.2c-0.8,5.1-3.1,9.8-6.8,14.2c-0.4,0.4-0.5,0.8-0.5,1.3c0.1,1.4,0.2,2.7,0.2,4.2l0.1,1.8
	c0.1,2.6,0.1,4.8,0.1,7.2v0c0.6-0.9,1.1-1.9,1.6-2.5c1.2-1.7,2.8-3.2,4.9-4.9c0.2-0.1,0.6-0.5,1.2-0.5c0.2,0,0.5,0.1,0.7,0.2
	c0.6,0.3,0.8,0.9,0.5,1.8l-0.2,0.7c-0.3,1-0.5,2.1-1,3.2c-1.6,3.5-4.2,6.5-7.9,9.1c-0.3,0.2-0.4,0.4-0.5,0.7
	c-0.6,4.3-1.5,8.2-2.9,12c1.9-1.9,4-3.4,6.5-4.5c0.4-0.2,1.4-0.5,2,0.1c0.4,0.3,0.7,0.9,0.2,1.8l-0.2,0.5c-0.6,1.3-1.4,2.5-2.3,3.6
	c-2.1,2.6-4.8,4.7-7.8,6.1c-0.4,0.2-0.8,0.4-1.3,0.6l-0.2,0.1c-0.3,0.1-0.4,0.2-0.5,0.3c-1.1,1.9-2.4,3.7-3.6,5.5
	c-0.3,0.4-0.6,0.9-0.9,1.3c2.5-1.3,5.1-2.1,7.7-2.8c1.4-0.4,2.8-0.6,4.3-0.5c0.8,0,1.3,0.3,1.6,0.8c0.2,0.3,0.2,0.8-0.2,1.5
	c-1,1.4-2,2.6-3.2,3.5c-0.1,0.1-0.2,0.2-0.3,0.3c-0.9,0.6-1.8,1.1-2.7,1.6c-1.2,0.7-2.5,1.3-3.8,1.7c-0.2,0.1-0.5,0.2-0.6,0.2
	l-0.1,0c-2,0.5-4.2,0.7-6.9,0.5C348.5,359.2,348,359.4,347.6,360z M358.6,269.8c0.1,0.3,0.2,0.7,0.4,1.1c0.2,0.5,0.3,1,0.5,1.4
	c0.4,1,1,1.9,1.6,2.8c-0.3-3-1.4-5.9-3.1-9.1c0,0,0,0,0,0C358.1,267.4,358.3,268.6,358.6,269.8z M373.9,245.9
	c-2.5,2.3-4.3,4.9-5.4,7.8c3.4-2.5,5.7-4.8,7.5-7.4c0.6-0.8,1.1-1.8,1.6-2.7C376.1,244.2,374.9,245,373.9,245.9z M347.2,352.4
	c0.1,0.7,0.2,1.4,0.3,2.2c0.2-0.5,0.3-1,0.5-1.5l0.2-0.7c0.6-3.6,0.3-7.1-0.8-10.3C346.8,346,346.7,349.3,347.2,352.4z M355,334.2
	c-0.2-0.5-0.4-1.1-0.6-1.6c-0.5,3.9,0.1,7.1,1.8,9.8C356.4,340,356.1,337.3,355,334.2z M363.8,351.6c-4.5,0.6-8.7,2.4-12.9,5.5
	c3.1,0,6.1-0.7,8.8-2.1c0.2-0.1,0.5-0.3,0.7-0.4c0.1-0.1,0.3-0.2,0.5-0.2c0.4-0.2,0.8-0.5,1.2-0.7c0.8-0.6,1.4-1.1,1.9-1.6l0.3-0.3
	c0.1-0.1,0.2-0.2,0.3-0.3c-0.1,0-0.2,0-0.2,0C364.1,351.5,363.9,351.5,363.8,351.6z M359.7,299.4l0.1,0.1c0.6,0.7,1.1,1.4,1.8,1.8
	c-0.3-1.1-0.7-2.2-1.3-3.3c-0.7-1.4-1.7-2.7-3.1-4.1C357.3,295.7,358.2,297.5,359.7,299.4z M365.2,297.8c0,0.3-0.1,0.6-0.2,0.9
	c-0.1,0.5-0.2,1-0.2,1.4c1.4-1.6,2.6-3.6,3.7-6.1c0.5-1.1,0.9-2.3,1.2-3.6c0.1-0.3,0.1-0.6,0.2-0.9c-1.7,1.4-2.9,3.2-3.8,5.7
	c-0.1,0.4-0.3,0.8-0.4,1.1C365.5,296.9,365.3,297.5,365.2,297.8z M360.6,341.9c2.6-1.6,4.8-3.6,6.6-6.1
	C364.9,337.1,362.8,339,360.6,341.9z M371.6,313.2c-2.6,2.2-4.4,5.2-6,8.2c0,0,0,0.1-0.1,0.1C368.5,319.1,370.5,316.4,371.6,313.2z
	 M369.7,268.8c-1.8,1.5-3.7,3.2-4.7,5.5c-0.2,0.3-0.3,0.7-0.3,1.1C366.7,273.5,368.6,271.4,369.7,268.8z M360.8,317.5
	c-1-2.1-2-4.2-3.4-6c0,2.8,1.2,5.4,2.3,7.3c0.5,1,1.3,1.9,2.4,2.8C361.9,320.3,361.5,318.9,360.8,317.5z M350.4,214.6
	c4.9-2.6,9.8-5.1,15.8-4.8c2,0,4.3-0.1,6.5-0.8c1.6-0.5,3-1.3,3.1-3.2c0.1-1.8-0.8-3.1-2.3-4c-1.6-1-3.3-1.4-5.2-1.3
	c-5.7,0.3-10.7,2.3-15.2,5.7c-4.2,3.3-7.7,7.1-10,12c-0.1,0.3-0.4,0.7,0,0.9c0.1,0.1,0.6-0.1,0.8-0.3
	C345.8,217.1,348.1,215.8,350.4,214.6z M376.5,213.8c-4.5-0.9-8.9-0.5-13.3,0.5c-4.3,0.9-8.5,2.1-12.4,4.1c-0.5,0.3-1,0.5-1.5,0.8
	c-0.4,0.2-1.3,0.7-1.4,1.1c-0.2,0.6,0.5,0.6,0.9,0.6c7.1-0.6,13.9,0.9,20.8,2.4c3.5,0.8,7,1.6,10.7,1.7c1.8,0,3.4-0.7,4.2-2.3
	c0.8-1.6,0.8-3.2-0.3-4.8C382.3,215.1,379.4,214.3,376.5,213.8z M349.8,225.7c3.5,2.3,6.9,4.8,9.5,8.2c2.1,2.8,4.7,5,7.7,6.8
	c1.8,1.1,4,0.9,5.2-0.3c1.2-1.2,2-3,1.5-4.7c-0.1-0.4-0.3-0.8-0.5-1.2c-0.6-1.3-1.7-2.4-2.7-3.3c-1.5-1.3-3.3-2.2-5-3.1
	c-2.8-1.4-5.8-2.6-8.8-3.4c-1.5-0.4-3.1-0.7-4.7-0.9c-0.8-0.1-3-0.5-3.2,0.7C348.4,225.4,349.3,225.5,349.8,225.7z M57.8,205.8
	c2.1,0.7,4.4,0.8,6.3,0.8c5.9-0.3,10.7,2.2,15.4,4.6c2.3,1.2,4.5,2.4,6.4,4.3c0.2,0.2,0.6,0.4,0.7,0.3c0.4-0.2,0.1-0.6,0-0.9
	c-2.1-4.8-5.6-8.5-9.7-11.7c-4.3-3.4-9.3-5.3-14.8-5.6c-1.8-0.1-3.5,0.3-5.1,1.2c-1.5,0.9-2.4,2.2-2.3,3.9
	C54.9,204.6,56.3,205.4,57.8,205.8z M81.1,217.4c0.4,0,1,0,0.9-0.6c-0.1-0.5-1-0.9-1.4-1.1c-0.5-0.3-1-0.5-1.5-0.8
	c-3.8-2-7.9-3.1-12.1-4c-4.3-0.9-8.6-1.3-13-0.4c-2.8,0.5-5.7,1.3-7.5,4c-1.1,1.5-1.1,3.1-0.3,4.7c0.8,1.6,2.3,2.3,4.1,2.3
	c3.6,0,7-0.9,10.4-1.6C67.5,218.3,74.2,216.9,81.1,217.4z M63.5,236.8c2.9-1.8,5.4-4,7.5-6.7c2.5-3.3,5.8-5.7,9.2-8
	c0.4-0.3,1.3-0.4,1.1-1.1c-0.3-1.1-2.4-0.8-3.2-0.7c-1.5,0.2-3.1,0.5-4.6,0.9c-3,0.8-5.9,2-8.6,3.3c-1.7,0.8-3.4,1.8-4.9,3
	c-1,0.9-2,1.9-2.6,3.2c-0.2,0.4-0.4,0.8-0.5,1.2c-0.5,1.6,0.3,3.4,1.5,4.6C59.6,237.7,61.7,237.9,63.5,236.8z M59.4,185.5
	c1-2,1.6-4.2,2.9-6c2.2-3.2,6-5.1,8.7-7.6c3.4-3.2,7.2-5.6,9.8-9.6c1.9-3,6.8-14.2,0.6-15.7c-3.7-0.9-8.9,6.2-11,8.2
	c-0.3-3.7,2.3-10.4-2.3-12.8c-5.1-2.7-9.8,3.7-10.5,7.9c-0.9,5.3,0.4,11.8,0.5,17.2C58.2,173.3,57.6,179.3,59.4,185.5z M105.1,166.7
	c0.3-0.3,0.6-0.6,0.9-1c0.8-0.8,1.6-1.6,2.3-2.5c1.8-2.4,4.1-5.2,4.9-8.2c0.6-2.3,1-7.5-0.7-9.4c-1.3-1.4-2.5-1.4-3.4,0.3
	c-0.4,0.8-0.7,1.6-1.1,2.4c-0.2,0.4-0.7,1.3-1.1,1.4c-0.2,0-0.4-0.1-0.6-0.4c-0.3-0.5-0.5-1.1-0.6-1.4c-1.1-1.9-3.1-3.1-4.8-1.1
	c-1.6,1.9-0.2,6.1,0.6,8c1,2.2,2.1,4.3,2.8,6.5c0.3,1,0.6,2.1,0.6,3.1c-0.1,1-0.7,1.8-0.6,2.8C104.4,167.5,105.1,166.7,105.1,166.7z
	 M167.1,171.1l-3.8-11.5l9.8-7.1H161l-3.8-11.5l-3.8,11.5h-12.1l9.8,7.1l-3.8,11.5l9.8-7.1L167.1,171.1z M379.8,141.6
	c-5.2,0.7-5,7.9-6.5,11.3c-1.3-2.6-3.8-11-7.6-11.5c-6.3-0.7-5.5,11.6-4.8,15c1,4.6,3.8,8.2,5.9,12.3c1.7,3.4,4.6,6.4,5.6,10.2
	c0.6,2.1,0.4,4.4,0.7,6.6c3.8-5.2,5.3-11.1,7.6-16.9c1.9-5.1,5.4-10.6,6.4-16C387.7,148.3,385.6,140.8,379.8,141.6z M333.9,173.1
	c0.2,0.4,0.4,0.8,0.6,1.2c0,0,0.4,1,0.5,0.8c0.4-0.9,0.1-1.9,0.4-2.8c0.3-1,1-1.9,1.6-2.7c1.4-1.9,3.3-3.5,4.9-5.2
	c1.5-1.5,4.2-4.9,3.3-7.3c-0.9-2.5-3.2-2.1-4.9-0.6c-0.3,0.2-0.7,0.8-1.1,1.1c-0.2,0.2-0.5,0.3-0.7,0.2c-0.4-0.2-0.5-1.3-0.6-1.7
	c-0.1-0.9-0.1-1.7-0.2-2.6c-0.3-1.9-1.3-2.4-3.1-1.5c-2.3,1.2-3.7,6.2-3.9,8.6c-0.3,3,1,6.5,1.8,9.4
	C333,171.1,333.5,172.1,333.9,173.1z M276.3,159.7l11.7-3.3l-11.4-4.2l0.4-12.1l-7.5,9.6l-11.4-4.2l6.8,10.1l-7.5,9.6l11.7-3.3
	l6.8,10.1L276.3,159.7z"/>
</svg>
