<?xml version="1.0" encoding="utf-8"?>
<!-- Generator: Adobe Illustrator 18.0.0, SVG Export Plug-In . SVG Version: 6.00 Build 0)  -->
<!DOCTYPE svg PUBLIC "-//W3C//DTD SVG 1.1//EN" "http://www.w3.org/Graphics/SVG/1.1/DTD/svg11.dtd">
<svg version="1.1" id="Layer_1" xmlns="http://www.w3.org/2000/svg" xmlns:xlink="http://www.w3.org/1999/xlink" x="0px" y="0px"
	 viewBox="0 0 432 432" enable-background="new 0 0 432 432" xml:space="preserve">
<path fill="#333333" d="M293.5,134c0.3,0.8,0.4,1.6,0.4,2.4c0,1.2-0.1,2.4-0.5,3.5c-0.5,1.7-1.3,3.3-2.3,4.7c-0.7,1-1.4,1.8-2.2,2.7
	c-1.1,1.1-2.2,2.1-3.4,3.2c-0.7,0.7-1.5,1.3-2.2,2c-1.6,1.4-3.3,2.8-5.1,4c-0.9,0.6-1.9,1.2-2.8,1.6c-0.2,0.1-0.4,0.2-0.6,0.2
	c-0.4,0.1-0.7,0-0.9-0.3c-0.2-0.2-0.3-0.4-0.4-0.5c-0.7-0.9-1.3-1.9-1.9-2.9c-0.9-1.6-1.8-3.2-2.7-4.8c-1-2-2-4-2.9-6
	c-0.5-1.2-0.9-2.3-1.3-3.6c-0.4-1.4-0.5-2.9-0.5-4.3c0-1,0.1-1.9,0.4-2.8c0.4-1.4,1-2.6,1.9-3.7c1.1-1.2,2.9-2,4.5-1.9
	c1,0,2,0.2,2.9,0.6c1.4,0.6,2.6,1.4,3.6,2.6c0.5,0.6,0.9,1.2,1.2,1.9c0.2,0.4,0.3,0.9,0.4,1.4c0,0,0,0.1,0,0.1c0,0,0.1-0.1,0.1-0.1
	c0.2-0.3,0.5-0.6,0.9-0.8c0.5-0.4,1.1-0.7,1.7-1c1-0.5,2-0.9,3.1-1.2c1.1-0.3,2.3-0.4,3.4-0.3c0.8,0.1,1.6,0.2,2.4,0.5
	C292.1,131.6,293,132.6,293.5,134z M366.9,185.9c0.6-0.8,1.1-1.7,1.3-2.7c0.2-0.7,0.3-1.3,0.3-2c0-0.5-0.1-0.9-0.2-1.4
	c-0.3-0.8-0.8-1.4-1.6-1.7c-0.4-0.2-0.9-0.3-1.4-0.3c-0.7,0-1.3,0-2,0.2c-0.6,0.1-1.2,0.4-1.8,0.7c-0.3,0.2-0.7,0.4-1,0.6
	c-0.2,0.1-0.4,0.3-0.5,0.5c0,0,0,0,0,0c0,0,0,0,0-0.1c0-0.3-0.1-0.5-0.2-0.8c-0.2-0.4-0.4-0.8-0.7-1.1c-0.6-0.7-1.3-1.1-2.1-1.5
	c-0.5-0.2-1.1-0.3-1.7-0.4c-0.9,0-2,0.4-2.6,1.1c-0.6,0.6-0.9,1.3-1.1,2.1c-0.2,0.5-0.2,1.1-0.2,1.6c0,0.8,0.1,1.7,0.3,2.5
	c0.2,0.7,0.5,1.4,0.7,2c0.5,1.2,1.1,2.3,1.6,3.5c0.5,0.9,1,1.9,1.6,2.8c0.3,0.6,0.7,1.1,1.1,1.6c0.1,0.1,0.2,0.2,0.3,0.3
	c0.1,0.2,0.3,0.2,0.5,0.1c0.1,0,0.3-0.1,0.4-0.1c0.6-0.3,1.1-0.6,1.6-0.9c1-0.7,2-1.5,2.9-2.3c0.4-0.4,0.9-0.8,1.3-1.1
	c0.7-0.6,1.3-1.2,1.9-1.8C366.1,187,366.5,186.5,366.9,185.9z M256.7,156.3c-0.4-0.2-0.8-0.2-1.1-0.2c-0.6,0-1.1,0-1.6,0.1
	c-0.5,0.1-1,0.3-1.5,0.6c-0.3,0.1-0.6,0.3-0.8,0.5c-0.2,0.1-0.3,0.2-0.4,0.4c0,0,0,0,0,0c0,0,0,0,0-0.1c0-0.2-0.1-0.4-0.2-0.7
	c-0.2-0.3-0.4-0.6-0.6-0.9c-0.5-0.5-1.1-1-1.7-1.2c-0.5-0.2-0.9-0.3-1.4-0.3c-0.8,0-1.6,0.3-2.2,0.9c-0.5,0.5-0.7,1.1-0.9,1.8
	c-0.1,0.4-0.2,0.9-0.2,1.4c0,0.7,0.1,1.4,0.2,2.1c0.2,0.6,0.4,1.2,0.6,1.7c0.4,1,0.9,1.9,1.4,2.9c0.4,0.8,0.8,1.6,1.3,2.3
	c0.3,0.5,0.6,0.9,0.9,1.4c0.1,0.1,0.1,0.2,0.2,0.3c0.1,0.1,0.3,0.2,0.5,0.1c0.1,0,0.2-0.1,0.3-0.1c0.5-0.2,0.9-0.5,1.4-0.8
	c0.9-0.6,1.7-1.2,2.5-1.9c0.4-0.3,0.7-0.6,1.1-0.9c0.6-0.5,1.1-1,1.6-1.5c0.4-0.4,0.8-0.8,1.1-1.3c0.5-0.7,0.9-1.5,1.1-2.3
	c0.2-0.6,0.2-1.1,0.2-1.7c0-0.4-0.1-0.8-0.2-1.1C257.8,157,257.3,156.5,256.7,156.3z M102.4,344.9c-0.3,11.1,0,22.1,0.9,33
	c0.1,1.4-0.2,2.7-0.9,3.9c-0.7,1.3-1.7,2.2-2.9,2.9c-1.5,0.7-3,0.9-4.7,0.7c-1.7-0.2-3.2-0.8-4.6-1.9c-0.7-0.5-1.2-1.1-1.7-1.7
	c-0.4-0.7-0.7-1.5-0.8-2.3c-0.2-2.6-0.3-7.2-0.4-13.6c0-6.5,0.2-14.4,0.7-23.8c0.5-9.4,1.4-20.1,2.6-32c1.3-11.9,3.2-24.7,5.7-38.4
	c-5.1,5.1-11.5,9.9-19.1,14.3c-2.7,1.7-5.8,3.2-9.2,4.5c-2.9,1.2-6.5,2.3-10.6,3.3c-4.2,1.1-8.9,1.7-14.1,1.9c-3.1,0.2-6.1,0-9-0.7
	c-2.9-0.6-5.5-1.6-7.8-2.9c-2.3-1.3-4.3-3-5.9-5c-1.6-2-2.7-4.4-3.3-7.1c-0.9-4.9-0.3-9.8,1.6-14.6c0.9-2,2.1-4.1,3.6-6.3
	c1.5-2.1,3.5-4.3,6.1-6.4c2.6-2.1,5.7-4.2,9.3-6.1c3.6-1.9,8-3.7,13-5.2c3.5-1,7.5-2,12.1-3.1c3.9-0.9,8.5-1.8,13.9-2.8
	c5.4-1,11.4-1.8,18.1-2.6c1.7-0.2,3.8-0.4,6.2-0.6c2.4-0.2,4.7-0.4,6.9-0.6c2.5-0.2,5.1-0.3,7.9-0.4c8.3-0.5,15.6-1.2,21.7-2
	c6.1-0.9,11.3-2.1,15.6-3.6c4.3-1.6,7.8-3.5,10.6-5.7c2.7-2.3,4.9-5.1,6.4-8.5c0.3-0.6,0.8-1,1.4-1.2c0.6-0.2,1.2-0.2,1.8,0.1
	c0.8,0.4,1.5,0.9,2.3,1.6c0.7,0.7,1.3,1.7,1.8,3.1c0.8,2.1,0.8,4.3,0.2,6.4c-0.6,2.1-1.8,4-3.6,5.5c-1.3,1.1-3,2.2-5.1,3.4
	c-2.1,1.2-4.8,2.4-7.9,3.4c-3.1,1.1-6.8,2-11.1,2.8c-4.3,0.8-9.3,1.3-14.9,1.6c-3.1,0.2-6.2,0.3-9.2,0.4c-3.1,0.1-6.2,0.2-9.4,0.3
	c-0.4,1.7-0.9,4.3-1.7,7.6c-0.7,3.3-1.6,7.3-2.5,11.9c-0.9,4.7-1.9,9.9-2.9,15.6c-1,5.8-2,12-2.8,18.6c1.8-2.7,4-5.3,6.3-7.8
	c2.4-2.5,5-4.5,7.8-6.2c0.6-1.5,1.4-2.8,2.5-3.9c0.8-1,1.8-1.9,3.1-2.7c1.3-0.8,2.8-1.2,4.6-1.2c1.5-0.1,2.7,0.1,3.6,0.5
	c1,0.4,1.7,0.9,2.3,1.4c1.2,1.1,1.2,2.2,0,3.3c-3.4,3.4-5.9,7.5-7.6,12.2c-1.7,4.8-2.1,11-1.2,18.6c0.2,1.2-0.2,2-1.3,2.5
	c-1.1,0.5-2,0.4-2.8-0.4c-0.9-0.9-1.7-2-2.5-3.4c-0.8-1.4-1.4-3.2-1.8-5.3c-0.5-2.8-0.8-5.3-0.9-7.4c-0.1-2.1-0.1-4,0.1-5.7
	c-2.8,2.5-5.6,5.8-8.4,9.9c-2.8,4.1-4.8,9.2-6,15.4C103.3,323,102.7,333.8,102.4,344.9z M103,239.5c-3.4,0.3-6.8,0.6-10.1,0.9
	c-3.3,0.3-6.7,0.6-10,1c-7.4,1-13.9,2.1-19.7,3.3c-5.7,1.2-10.2,2.4-13.5,3.4c-5.8,1.7-10.9,3.9-15.1,6.8c-1.8,1.3-3.6,2.7-5.2,4.3
	c-1.7,1.6-3,3.4-4.1,5.4c-1.1,2-1.8,4.2-2.3,6.6c-0.4,2.4-0.3,5.1,0.4,8c0.6,2.5,1.7,4.5,3.4,6c1.7,1.5,3.8,2.6,6.2,3.3
	c2.4,0.7,5.1,1,8,0.9c2.9,0,5.8-0.4,8.7-0.9c4.7-0.9,9.1-2.2,13.5-4c4.3-1.8,8.4-4,12.2-6.6c3.8-2.6,7.3-5.4,10.5-8.5
	c3.2-3.1,5.8-6.4,8.1-9.9c2.2-3.3,4.1-6.6,5.5-10C100.9,246.3,102.1,242.9,103,239.5z M301.4,300.1c1,0.8,2.3,1.3,3.9,1.5
	c1.5,0.2,2.8,0.1,3.9-0.4c1.2-0.5,1.8-1.3,2-2.3c0.2-1-0.2-1.9-1.2-2.7c-1-0.8-2.3-1.3-3.7-1.5c-1.6-0.2-2.9,0-4.1,0.4
	c-1.2,0.5-1.8,1.2-2,2.2C300,298.3,300.4,299.3,301.4,300.1z M415,371.9c0,1.5-0.4,2.8-1.1,4.1c-0.7,1.3-2.2,2.1-4.3,2.3
	c-1.2,0-2.2-0.2-3.2-0.6c-0.8-0.4-1.5-0.9-2-1.7c-0.6-0.7-0.8-1.9-0.6-3.6c0.1-1.2,0-2.4-0.2-3.7c-0.2-1.3-0.8-2.5-1.7-3.6
	c-0.9-1.1-2.1-2.1-3.6-3c-1.5-0.9-3.4-1.5-5.7-1.9c-0.7,3.4-1.3,6.5-1.9,9.3c-0.6,2.8-1.1,5.2-1.6,7.1c-0.6,2.3-1.1,4.4-1.6,6.1
	c-1.5,5.4-3.3,10.5-5.5,15.1c-2.2,4.6-4.7,8.7-7.6,12.3c-2.9,3.6-6.1,6.6-9.7,9c-3.5,2.4-7.4,4-11.4,4.9c-1.9,0.4-4.1,0.6-6.3,0.6
	c-2.3,0-4.8-0.4-7.6-1.3c-3.2-1.1-5.9-2.8-8-5.1c-1.8-1.9-3.2-4.7-4.2-8.3c-1-3.6-0.7-8.2,0.9-14c1.2-4.4,3.3-8.7,6.4-13.1
	c3.1-4.4,6.9-8.4,11.4-12c4.5-3.6,9.6-6.8,15.1-9.4c5.6-2.6,11.5-4.4,17.7-5.4c1.4-8.3,2.3-15.9,2.7-22.6c0.4-6.7,0.6-12.6,0.5-17.8
	c-1.4,7.7-3.3,13.4-5.7,17.2c-2.4,3.8-4.9,6.6-7.4,8.2c-2.9,1.8-6,2.7-9.2,2.6c-3.2-0.2-5.8-1.7-7.8-4.5c-1.1-1.5-2-3.3-2.6-5.4
	c-0.2,0.5-0.3,0.9-0.5,1.4c-0.9,2.5-1.9,5-3.1,7.6c-1.2,2.6-2.5,5-3.9,7.1c-1.4,2.1-3,3.9-4.7,5.2c-1.7,1.4-3.6,2-5.5,1.9
	c-2.1-0.2-4.1-1.2-5.8-3.1c-1.6-1.7-3-4.2-4.4-7.7c-0.8-1.9-1.4-4.4-2-7.4c-0.5,1.2-1,2.3-1.5,3.5c-1.1,2.4-2.4,4.5-3.8,6.5
	c-1.4,1.9-3,3.5-4.7,4.7c-1.7,1.2-3.5,1.8-5.5,1.7c-3.2-0.1-5.8-1.4-7.7-3.9c-1.9-2.5-3.2-6-3.9-10.4c-0.2-1.2-0.3-2.4-0.4-3.6
	c-0.6,1.5-1.3,2.9-2,4.3c-0.1,0.1-0.4,0.7-1,1.8c-0.6,1.1-1.4,2.5-2.4,4c-1,1.6-2.3,3.2-3.7,4.9c-1.5,1.7-3.1,3.3-4.8,4.7
	c-1.7,1.4-3.7,2.4-5.7,3.1c-2.1,0.7-4.2,0.7-6.5,0.1c-2.2-0.6-3.9-1.8-4.9-3.8c-1-1.9-1.6-4.3-1.7-7.1c-0.1-2.8,0.1-5.8,0.7-9.2
	c0.6-3.4,1.4-6.8,2.4-10.3c2.3-8.2,5.7-17.2,10.2-27.1c-0.7-0.1-1.7,0.4-2.9,1.5c-1.3,1.1-2.7,2.5-4.4,4.4c-1.7,1.9-3.5,4.1-5.4,6.5
	c-1.9,2.4-3.7,4.9-5.5,7.3c-1.8,2.4-3.5,4.8-5.1,7c-1.6,2.2-2.9,4.1-3.9,5.7c-1.7,2.4-3.2,4.2-4.6,5.5c-1.4,1.2-2.7,2.1-3.9,2.7
	c-1.4,0.7-2.6,1-3.8,1c-3.4,0.2-5.8-0.8-7.4-2.9c-1.5-2.1-2.5-4.7-2.8-7.6c-0.4-2.9-0.4-5.7-0.1-8.4c0.3-2.7,0.7-4.6,0.9-5.5
	c0.5-1.9,0.6-3.1,0.3-3.3c-0.2-0.2-0.4-0.2-0.6-0.1c-1.9,1-3.9,2.8-5.7,5.5c-1.9,2.7-3.6,5.6-5.2,8.7c-1.6,3.1-2.9,6-4,8.8
	c-1.1,2.8-1.9,4.8-2.3,6c-0.1,0.4-0.3,0.8-0.7,1.2c-0.3,0.3-0.7,0.6-1.1,0.8c-0.4,0.2-0.9,0.4-1.5,0.5c-0.8,0.1-1.7-0.1-2.6-0.4
	c-0.4-0.2-0.8-0.3-1.2-0.4c-2.4-1.3-4.2-3.1-5.4-5.5c-0.7-1.4-1.2-3-1.6-4.6c-0.5,1.2-1,2.3-1.6,3.5c-1.1,2.1-2.3,4.1-3.6,5.9
	c-1.4,1.8-2.9,3.2-4.5,4.3c-1.7,1.1-3.4,1.6-5.4,1.5c-4.4-0.2-7.6-2.7-9.6-7.6c-2-4.9-2.9-11.2-2.5-19.1c-1.3,2.4-2.8,5-4.6,7.7
	c-1.8,2.7-3.8,5.2-6,7.5c-2.2,2.3-4.5,4.1-7.1,5.5c-2.5,1.4-5.1,2-7.9,1.7c-2.7-0.3-4.9-1.2-6.4-2.7c-1.6-1.5-2.6-3.3-3.2-5.5
	c-0.6-2.2-0.7-4.6-0.4-7.2c0.3-2.6,1-5.3,1.9-7.9c0.9-2.7,2.1-5.2,3.6-7.6c1.5-2.4,3.2-4.4,5-6c2-1.8,4.3-3.4,6.8-4.8
	c2.5-1.4,5-2.3,7.5-2.8c2.5-0.5,4.9-0.5,7.1,0c2.3,0.5,4.3,1.6,6,3.3c0.2-1.3,0.5-2.5,0.8-3.6c0.3-1.2,0.7-2.4,0.9-3.6
	c0.5-1.5,1.5-2.2,2.9-2.2c1.4,0.1,3,0.3,4.9,0.7c1.9,0.4,3.6,1.1,5.2,2.2c0.6,0.5,1,1.1,1.3,1.8c0.3,0.7,0.3,1.5,0.1,2.3
	c-0.3,1.4-0.7,3.3-1.2,5.7c-0.5,2.5-1.1,5.1-1.7,8c-0.6,2.9-1.1,5.8-1.5,8.7c-0.4,3-0.7,5.7-0.9,8.2c-0.1,2.5-0.1,4.5,0.2,6.1
	c0.3,1.6,0.9,2.5,1.7,2.5c1.3,0.2,2.5-0.6,3.9-2.4c1.3-1.8,2.5-3.9,3.7-6.4c1.2-2.5,2.2-5,3.1-7.5c0.2-0.4,0.3-0.8,0.4-1.2
	c0.1-0.7,0.1-1.5,0.2-2.3c0.4-3.4,0.9-6.6,1.5-9.8c0.6-3.1,1.3-6,2.1-8.6c0.8-2.6,1.4-4.7,1.9-6.1c0.5-1.5,1.5-2.2,2.9-2.2
	c1.4,0,3,0.1,4.9,0.4c1.9,0.2,3.6,0.9,5.2,1.8c0.8,0.5,1.3,1.1,1.6,2c0.3,0.8,0.3,1.7,0,2.5c-0.8,2.4-1.7,5.8-2.9,10.1
	c-1.2,4.3-2.1,9.3-2.8,14.9c1.2-2.1,2.6-4.7,4.3-7.7c1.7-3,3.6-5.9,5.6-8.6c2-2.7,4.1-5,6.3-6.9c2.2-1.9,4.3-2.8,6.3-2.8
	c2.6,0,4.7,0.5,6.2,1.5c1.5,1,2.6,2.3,3.3,3.9c0.7,1.6,1,3.3,1.1,5.2c0,1.9,0,3.7-0.2,5.5c-0.3,1.7-0.6,3.6-0.9,5.5
	c-0.3,1.9-0.5,3.6-0.6,5c-0.1,1.4,0,2.4,0.2,3c0.2,0.6,0.8,0.3,1.7-0.7c0.6-0.7,1.7-2.2,3.4-4.7c1.7-2.4,3.7-5.2,6-8.4
	c2.3-3.2,4.9-6.5,7.7-9.9c2.8-3.4,5.7-6.4,8.5-9c2.9-2.6,5.6-4.5,8.3-5.7c2.7-1.3,5-1.3,7.1-0.1c1.3,0.8,2.3,1.9,3.2,3.3
	c0.8,1.3,1.3,2.9,1.6,4.9c0.3,2,0,4.5-0.9,7.6c-3,7.9-5.5,14.8-7.4,21c-0.9,2.6-1.7,5.2-2.4,7.7c-0.7,2.5-1.3,4.8-1.7,6.8
	c-0.4,2-0.6,3.7-0.6,4.9c0,1.3,0.3,1.9,0.9,2c0.8,0.2,1.6,0,2.4-0.6c0.8-0.6,1.7-1.4,2.7-2.3c1.1-1.1,2.1-2.3,3.1-3.6
	c1-1.3,1.8-2.6,2.6-3.9c1-1.5,1.9-3,2.8-4.5c0.7-1.4,1.4-2.8,2-4.3c0.7-1.5,1.3-3,1.9-4.4c0.6-1.5,1.1-2.8,1.5-3.9
	c0.3-0.9,0.6-1.7,0.8-2.4c0.8-5.2,2-10.8,3.7-16.7c0.3-1.6,1.2-2.2,2.8-2c1.4,0,3,0.2,4.9,0.6c1.9,0.4,3.6,1.1,5.2,2.2
	c0.6,0.5,1,1.1,1.3,1.8s0.3,1.5,0.1,2.3c-0.3,1.4-0.7,3.2-1.3,5.5c-0.6,2.3-1.1,4.9-1.7,7.6c-0.5,2.7-1,5.5-1.5,8.2
	c-0.5,2.8-0.8,5.3-1,7.6c-0.2,2.3-0.1,4.2,0.1,5.7c0.3,1.5,0.9,2.3,1.7,2.4c1.3,0.2,2.5-0.6,3.8-2.5c1.3-1.8,2.5-4.1,3.6-6.8
	c1.2-2.7,2.2-5.6,3.2-8.6c0.1-0.3,0.2-0.5,0.2-0.8c-0.3-4.6-0.3-9.6-0.1-15c0.3-6.5,0.9-12.9,1.7-19.4c0.9-6.5,2-12.7,3.3-18.6
	c1.3-6,2.7-11.2,4.1-15.6c1.7-5.3,3.7-10,6-14c1-1.6,2-3.2,3.1-4.8c1.1-1.6,2.3-2.9,3.6-4c1.3-1.1,2.6-1.9,4.1-2.5
	c1.5-0.5,3-0.6,4.5-0.2c1.8,0.5,3.2,2.2,4,5c0.8,2.9,1.2,6.5,1,10.9c-0.1,4.4-0.8,9.4-1.8,14.9c-1.1,5.5-2.6,11.2-4.6,17
	c-2,5.8-4.4,11.5-7.1,17c-2.8,5.6-5.9,10.7-9.5,15.2c-0.6,4.7-1,9.1-1.2,13.2c-0.2,4.2-0.2,7.9,0.1,11.1c0.3,3.2,0.9,5.7,1.7,7.6
	c0.9,1.9,2.1,2.8,3.8,2.8c1.3,0,2.6-1.2,4.1-3.6c1.5-2.4,2.8-5.2,4.2-8.4c1.3-3.2,2.5-6.3,3.5-9.3c0.4-1.2,0.7-2.2,1-3.1
	c-0.3-3.9-0.2-8.4,0.3-13.3c0.7-6.4,2-13.1,4.1-20.3c0.3-1.6,1.2-2.2,2.8-2c1.4,0,3,0.2,4.9,0.6c1.9,0.4,3.6,1.1,5.2,2.2
	c1.5,1.2,1.9,2.5,1.5,4.1c-0.3,1.4-0.7,3.3-1.2,5.7c-0.5,2.4-1.1,5-1.6,7.9c-0.5,2.8-1,5.7-1.5,8.7c-0.4,3-0.7,5.7-0.9,8.1
	c-0.1,2.4-0.1,4.5,0.2,6.2c0.3,1.7,0.9,2.6,1.7,2.8c1.4,0.4,2.7,0,4.1-1.2c1.4-1.2,2.6-2.9,3.8-5c1.2-2.1,2.3-4.6,3.3-7.4
	c1-2.8,1.9-5.5,2.8-8.3c0.8-2.8,1.5-5.3,2.1-7.7c0.6-2.4,1-4.3,1.3-5.7c0.1-0.5,0.2-0.9,0.2-1.2c0-0.3,0.1-0.5,0.1-0.7v-0.6
	c0.2-1.5,1.1-2.3,2.6-2.5c1.6-0.1,3.2,0,4.7,0.2c1.5,0.2,2.7,0.5,3.8,0.8c2.7,0.7,4.2,2.4,4.4,5.1c0.8,10.2,0.8,19.9,0.1,29.3
	c-0.7,9.3-1.6,17.8-2.8,25.3c1.7,0.2,3.7,0.5,5.7,0.9c2.1,0.4,4.1,1,6.1,1.9c2,0.9,3.8,2,5.3,3.3c1.6,1.3,2.7,3,3.5,5
	c0.2,0.5,0.4,1,0.6,1.6C414.9,369.4,415,370.6,415,371.9z M331.8,303.8c3.9-7.1,6.8-14.1,8.9-21.1c2-7,3.5-13.3,4.5-18.9
	c1.1-6.6,1.6-12.9,1.7-18.8c-0.8,1.7-1.6,3.7-2.3,6c-0.8,2.2-1.5,4.3-2.2,6.3c-0.8,2.3-1.5,4.7-2.2,7c-0.5,1.7-1.1,4-1.8,6.8
	c-0.7,2.8-1.5,5.9-2.2,9.4c-0.7,3.5-1.5,7.3-2.3,11.3C333.2,295.7,332.5,299.8,331.8,303.8z M165.8,312.3c-0.6-1.1-1.6-1.7-3.1-1.9
	c-1.5-0.2-3.1,0.1-4.9,0.9c-1.8,0.8-3.8,2.2-5.7,4.1c-2,1.9-3.8,4.4-5.5,7.6c-2.1,4-3.5,7.1-4,9.2c-0.5,2.2-0.7,3.8-0.5,4.9
	c0.2,1.3,0.8,2,1.7,2.3c0.7,0.1,1.6-0.4,2.9-1.6c1.3-1.2,2.7-2.7,4.2-4.5c1.6-1.8,3.1-3.9,4.7-6.2c1.6-2.3,3.1-4.4,4.5-6.5
	c1.4-2,2.6-3.8,3.6-5.4C164.9,313.8,165.6,312.8,165.8,312.3z M377.8,361.2c-3.5,0.9-7.1,2.1-10.9,3.8c-3.8,1.6-7.4,3.6-10.9,6
	c-3.5,2.3-6.8,5-9.8,8.1c-3.1,3.1-5.7,6.4-7.8,10c-0.9,1.4-1.6,2.8-2.2,4.2c-0.6,1.3-1.1,2.7-1.5,4.3c-0.4,1.6-0.8,3.3-0.9,5
	c-0.2,2.5,0,4.9,0.7,7.3c0.6,2.3,2.2,4,4.7,5.1c3.9,1.6,7.6,1.7,11.2,0.3c3.6-1.5,6.9-3.9,10-7.3c3.1-3.4,5.7-7.5,8.1-12.3
	c2.3-4.8,4.1-9.7,5.2-14.8c0.9-3.5,1.6-6.9,2.3-10.1C376.6,367.5,377.2,364.3,377.8,361.2z M167.8,245.8v7.4c0,5.1-0.2,12-0.5,20.8
	h-1c0-1.7-0.3-2.5-1-2.5c-0.9-7.3-2.7-10.9-5.4-10.9h-0.5l-1,0.5c-2.9,8.9-4.6,13.4-5,13.4h-0.5c-0.6-11.9-1-17.8-1.5-17.8
	c0-9.2-1.5-13.9-4.5-13.9c-1,1.3-1.5,2.1-1.5,2.5c0.8,8.9,1.2,13.3,1.5,13.3c0,16.2,2.2,24.2,6.4,24.2h0.5c1.1-0.3,3.3-4.4,6.4-12.4
	h0.5c2.2,7.6,4.5,11.4,6.9,11.4c1.9,0,3.2-2.8,4-8.4c0-3.6,0.2-12.5,0.5-26.7c0-2.6-1-4-2.9-4C168.2,243.6,167.8,244.6,167.8,245.8z
	 M191.4,242.3v-0.5c0-0.8-1.2-1.4-3.6-2.1l-8.2,2.1c-1.7,0-2.6,11-2.6,32.9c0,4.8,2.9,7.6,8.8,8.2c0.6,0,2.5-0.3,5.7-1v-1.6
	c0-0.8-1.2-1.4-3.6-2.1c0,0.4-0.2,0.5-0.5,0.5h-3.1c-1-0.5-1.5-1-1.5-1.5v-8.8h2.6l3.6-1v-1l-0.5-1c-3.4-0.4-5.1-0.9-5.1-1.5v-18.5
	C188.6,243.7,191.4,242.7,191.4,242.3z M213.3,247h1.4c0.2,4.1,1,6.1,2.4,6.1c1.9,0,2.8-1.4,2.8-4.2v-0.5c0-2.5-1.7-4.1-5.2-4.7
	h-1.9c-5.7,0-8.5,6.8-8.5,20.3v3.3c0,10.4,3.9,15.6,11.8,15.6c2.8,0,4.7-2.4,5.7-7.1c0-1.6-0.8-2.9-2.4-3.8H219
	c-1.6,4.4-3.4,6.6-5.2,6.6h-1.4c-1.7,0-2.7-3.5-3.3-10.4C209.1,254.1,210.5,247,213.3,247z M238.5,275v-3.1H238
	c-5.9,0-8.9,1.4-8.9,4.2c-0.4,3.8-1.3,5.8-2.6,5.8c-1.7-0.5-2.6-1.7-2.6-3.7c0-23.7,1.7-35.6,5.2-35.6c0-0.9,1.7-1.7,5.2-2.1
	c6.3,0,9.4,6.8,9.4,20.4c0,2.6,0.2,4.5,0.5,5.8c-0.4,10.8-1.4,16.2-3.1,16.2h-0.5C239.2,282.9,238.5,280.3,238.5,275z M238.5,266.2
	c0-3.4-0.2-9.7-0.5-18.9c-0.7-1.6-1.4-2.5-2.1-2.6h-2.1c-2.5,0-3.7,8-3.7,24.1c0.4,0,0.5,0.2,0.5,0.5
	C235.9,268.5,238.5,267.4,238.5,266.2z M252.2,282.9h5.1c5.1-0.4,7.6-1.4,7.6-3v-0.5l-3.6-1h-6.6l-1-0.5c0.3-8.9,0.5-14.1,0.5-15.7
	c0-13.2-1-19.8-3-19.8h-2.5c0,0.4-0.2,0.8-0.5,1.5c0.7,0,1,2.5,1,7.6v25.9C249.2,279.9,250.2,281.8,252.2,282.9z M269.1,282.9h5.1
	c5.1-0.4,7.6-1.4,7.6-3v-0.5l-3.6-1h-6.6l-1-0.5c0.3-8.9,0.5-14.1,0.5-15.7c0-13.2-1-19.8-3-19.8h-2.5c0,0.4-0.2,0.8-0.5,1.5
	c0.7,0,1,2.5,1,7.6v25.9C266.1,279.9,267.1,281.8,269.1,282.9z M297.3,243h-1.6c-0.6,0-1.1,0.7-1.6,2.2h0.5c0,5.4,0.2,11.7,0.6,18.9
	c0,12.6,1.3,19,3.8,19c1.4-1.1,2.2-2.2,2.2-3.2C301.1,255.3,299.8,243,297.3,243z M311.4,276.6c0.9,4.2,1.9,6.3,3.1,6.3h1
	c1-0.2,1.6-1.6,1.6-4.2v-28.3c0-0.8,0.2-1.5,0.5-2.1c4.9-1.5,7.4-2.7,7.4-3.7c-0.8-1.4-2.6-2.1-5.2-2.1c-11.2,0-16.8,0.7-16.8,2.1
	v1.6c5.9,1.5,8.9,2.6,8.9,3.2v12.1C312,265.3,311.8,270.4,311.4,276.6z M89.5,72.5v1.7c0,3-1.5,5-4.5,5.8c-0.8,0-2.3-1.7-4.5-5
	c-1-11.7-2.5-17.5-4.5-17.5h-2.3c-1,3.6-1.5,6.1-1.5,7.5c0,11.9,4.3,19.1,12.9,21.7c8.6-0.9,12.9-4.2,12.9-10c0-7.2-3-15.8-9.1-25.9
	c-6.1-6.8-9.1-14.9-9.1-24.2v-3.3c1.2-2.2,2.2-3.3,3-3.3h0.8c1,0,1.5,0.6,1.5,1.7v7.5c0,4.1,0.8,6.3,2.3,6.7h3
	c1.7,0,2.9-3.9,3.8-11.7c-2.2-7.8-6-11.7-11.4-11.7c-7.6,0-11.4,4.4-11.4,13.3c0,4,1.5,10.4,4.5,19.2C84.9,59.4,89.5,68.6,89.5,72.5
	z M101.7,66.1v-3.8c0-27.9,2.7-41.9,8-41.9c0-0.4,0.9-0.6,2.8-0.6c8.3,0,13.2,6.7,14.7,20v5c0,5.8,0.2,13.8,0.6,23.8
	c-2,12-5.8,18.1-11.3,18.1C106.6,86.6,101.7,79.8,101.7,66.1z M109.1,64.8c0,8.7,1.1,13.1,3.4,13.1h3.4c1.3,0,2.2-2.3,2.8-6.9V36.1
	c0-5.4-1.1-8.8-3.4-10h-0.6C111,26.1,109.1,39,109.1,64.8z M134.8,78.6c0,4.8,1.7,7.2,5.1,7.2h0.8c1.5-0.3,2.2-2.5,2.2-6.5V64
	c0-4.6-0.2-11.9-0.7-21.8h1.5c3.6,12.4,7.5,18.6,11.8,18.6h1.5c2-15.6,4-23.5,5.9-23.5v35.6c0.8,9.2,2,13.8,3.6,13.8h2.2
	c0.9,0,1.6-1.4,2.2-4.1h-0.8c-0.5-22.2-1.2-41.5-2.2-58.3c-0.8-1.6-1.5-2.4-2.2-2.4h-2.9c-2.2,0.9-5.7,9.2-10.3,25.1h-0.7
	c-5.4-16.2-10.3-24.3-14.7-24.3h-0.7c-0.8,0-1.5,1.1-2.2,3.2c0.5,5.5,0.8,9.9,0.8,13V78.6z M189.6,86.6c0.9,0,3.6-0.5,8.2-1.6v-2.5
	c0-1.2-1.8-2.3-5.2-3.3c0,0.6-0.2,0.8-0.8,0.8h-4.5c-1.5-0.8-2.2-1.7-2.2-2.5v-14h3.7L194,62v-1.7l-0.8-1.6c-5-0.6-7.4-1.4-7.4-2.5
	V26.8c8-2.6,11.9-4.2,11.9-4.9V21c0-1.2-1.8-2.3-5.2-3.3L180.6,21c-2.5,0-3.7,17.5-3.7,52.5C176.9,81.2,181.1,85.6,189.6,86.6z
	 M224.9,75c4,0,6.8-3.8,8.2-11.3c0-2.6-1.1-4.6-3.4-6H229c-2.4,7-4.9,10.6-7.5,10.6h-2c-2.4,0-4-5.5-4.8-16.6
	c0-22.6,2-33.9,6.2-33.9h2c0.3,6.5,1.5,9.8,3.4,9.8c2.7,0,4.1-2.2,4.1-6.8V20c0-4-2.5-6.6-7.5-7.6h-2.7c-8.2,0-12.3,10.8-12.3,32.4
	v5.3C207.8,66.7,213.5,75,224.9,75z M236.2,67.5c0-37.8,2.5-56.8,7.6-56.8c0-1.5,2.5-2.7,7.6-3.3c9.1,0,13.6,10.8,13.6,32.5
	c0,4.1,0.2,7.2,0.8,9.2c-0.5,17.3-2,25.9-4.5,25.9h-0.8c-2,0-3-4.2-3-12.5v-5h-0.8c-8.6,0-12.9,2.2-12.9,6.7
	c-0.6,6.1-1.9,9.2-3.8,9.2C237.5,72.5,236.2,70.6,236.2,67.5z M245.3,52.5c0.5,0,0.8,0.3,0.8,0.8c7.6-1.3,11.4-3,11.4-5
	c0-5.4-0.2-15.4-0.8-30.1c-1-2.6-2-3.9-3-4.2h-3C247,14,245.3,26.9,245.3,52.5z M272.9,24.8v41.2c0,4.2,1.5,7.2,4.4,8.9h7.3
	c7.3-0.6,11-2.2,11-4.8v-0.8l-5.2-1.6H281l-1.5-0.8c0.5-14.2,0.7-22.5,0.7-25.1c0-21-1.5-31.5-4.4-31.5h-3.6c0,0.6-0.2,1.4-0.8,2.5
	C272.4,12.7,272.9,16.7,272.9,24.8z M297.4,24.8v41.2c0,4.2,1.5,7.2,4.4,8.9h7.3c7.3-0.6,11-2.2,11-4.8v-0.8l-5.2-1.6h-9.5l-1.5-0.8
	c0.5-14.2,0.7-22.5,0.7-25.1c0-21-1.5-31.5-4.4-31.5h-3.6c0,0.6-0.2,1.4-0.8,2.5C296.9,12.7,297.4,16.7,297.4,24.8z M334.1,51.6
	c0,20.2,1.8,30.2,5.5,30.2c2.1-1.7,3.1-3.4,3.1-5.2c0-39.1-1.8-58.8-5.5-58.8h-2.4c-0.8,0-1.6,1.1-2.3,3.5h0.8
	C333.3,30.1,333.5,40.2,334.1,51.6z M358.5,28.1v19.2c0,6.3-0.2,14.3-0.8,24.2c1.3,6.7,2.8,10.1,4.5,10.1h1.5
	c1.5-0.4,2.3-2.6,2.3-6.7V29.7c0-1.3,0.2-2.3,0.8-3.3c7.1-2.5,10.7-4.4,10.7-5.9c-1.2-2.2-3.7-3.3-7.6-3.3
	c-16.3,0-24.4,1.1-24.4,3.3V23C354.2,25.5,358.5,27.2,358.5,28.1z M95.2,128.2c0.6,2.3,1.8,4.6,3.3,7c1.6,2.4,3.6,4.8,6,7.2
	c2.4,2.4,5.3,4.3,8.6,5.9c3.7,1.8,7.7,2.9,12.1,3.3c0.6-1.1,1.5-2.5,2.5-4.1c1-1.6,2.2-3.3,3.5-5c1.3-1.7,2.8-3.4,4.4-5
	c1.6-1.6,3.3-3.1,5.1-4.3c2.5-1.7,4.7-2.8,6.7-3.5c2-0.7,3.8-1,5.4-0.9c1.6,0.1,2.9,0.4,3.9,1.2c1,0.7,1.8,1.7,2.3,2.9
	c0.6,1.6,0.8,3.2,0.5,4.8c-0.3,1.6-0.8,3.2-1.7,4.7c-0.9,1.5-2,3-3.4,4.3c-1.4,1.4-2.9,2.5-4.6,3.5c-2.2,1.4-4.4,2.4-6.4,3.2
	c-2,0.8-3.9,1.4-5.6,1.9c-1.7,0.5-3.2,0.8-4.5,1c-1.3,0.2-2.3,0.3-3,0.4c-1.2,2.8-2.3,5.6-3.2,8.5c-0.9,2.9-1.6,5.7-2.2,8.4
	c-0.6,2.7-1,5.4-1.4,7.8c-0.3,2.5-0.5,4.7-0.6,6.7c-0.1,1.8-0.1,3.9-0.1,6.1c0,2.2,0.2,4.4,0.5,6.6c0.3,2.2,0.9,4.4,1.7,6.5
	c0.8,2.1,1.9,4,3.4,5.6c1.5,1.7,3.3,3,5.6,4c2.3,1,5.1,1.5,8.5,1.5c3-0.2,5.8-0.9,8.4-2.1c1.1-0.5,2.2-1.2,3.3-2
	c1.1-0.8,2.2-1.8,3.1-3c0.9-1.2,1.8-2.6,2.6-4.2c0.8-1.6,1.3-3.4,1.7-5.5c0.6-3.2,0.5-5.8-0.3-7.7c-0.8-1.9-1.8-3.2-3.2-3.9
	c-1.4-0.7-2.9-1-4.6-0.8c-1.7,0.2-3.1,0.8-4.3,1.6c-0.7,0.5-1.3,0.5-1.9,0.1c-0.6-0.4-0.8-1-0.7-1.7c0.2-0.9,0.5-1.8,1.1-2.7
	c0.6-0.9,1.5-1.8,2.7-2.7c1.4-0.9,2.7-1.5,4.1-1.7c1.4-0.2,2.6-0.2,3.6-0.1c1.2,0.2,2.4,0.5,3.5,1.1c1.8,0.8,3.3,2.1,4.3,4.1
	c1.1,2,1.7,4.2,2,6.8c0.3,2.5,0.1,5.2-0.6,8c-0.7,2.8-1.8,5.5-3.4,8.1c-1.6,2.6-3.7,4.9-6.3,6.9c-2.6,2-5.8,3.4-9.4,4.2
	c-5.5,1.3-10.5,1.4-14.9,0.3c-4.4-1.1-8-3.2-11-6.2c-3-3-5.2-6.7-6.6-11.3c-1.4-4.5-2-9.6-1.7-15.2c0.2-3.8,0.6-7.4,1.3-10.8
	c0.7-3.4,1.4-6.5,2.3-9.2c0.8-2.7,1.7-5.1,2.6-7.2c0.9-2.1,1.6-3.7,2.2-5c-4.1-0.3-7.8-1-11.1-2.1c-3.3-1.1-6.2-2.5-8.8-4
	c-2.6-1.6-4.8-3.3-6.8-5.1c-1.9-1.9-3.6-3.7-4.9-5.5c-1.3-1.8-2.4-3.4-3.1-4.9c-0.8-1.5-1.3-2.7-1.6-3.5c-0.2-0.5-0.3-1.1-0.4-1.8
	c-0.1-0.7-0.2-1.3-0.2-1.7c0.1-1.1,0.3-2.1,0.8-2.9c0.5-0.8,1.1-1.5,1.8-2c0.7-0.5,1.5-1,2.3-1.3c0.8-0.3,1.6-0.6,2.4-0.8
	c0.5-0.1,1,0,1.4,0.4c0.4,0.4,0.5,0.8,0.4,1.4C94.4,124.1,94.6,126,95.2,128.2z M133,151.6c4-0.4,7.8-1.3,11.5-2.9
	c1.7-0.7,3.3-1.6,4.9-2.6c1.5-1,2.8-2.1,3.9-3.3c1.1-1.2,1.9-2.5,2.3-3.9c0.5-1.4,0.5-2.9,0.1-4.4c-0.7-0.9-1.7-1.5-2.9-1.6
	c-1.1-0.1-2.5,0.2-4.2,1c-1.7,0.8-3.9,2.5-6.4,5c-1.8,1.8-3.5,3.7-5,5.9C135.6,146.9,134.3,149.2,133,151.6z M194,141.8
	c2.5-13,5.9-24,10.2-33c4.3-9,9-16.1,14-21.4c5.1-5.3,10.2-8.8,15.5-10.6c5.2-1.8,10.1-2,14.6-0.7c3,0.9,5.5,2.5,7.6,4.9
	c2.1,2.4,3.7,5.2,4.8,8.7c1.1,3.4,1.7,7.2,1.9,11.4c0.2,4.2-0.2,8.5-1,12.9c-0.9,4.4-2.3,8.8-4.2,13.2c-1.9,4.4-4.4,8.6-7.5,12.5
	c-6.2,8-13.5,14.6-21.8,19.5c-8.3,5-17.2,7.9-26.5,8.8c-0.4,2.5-0.9,6.1-1.3,10.8c-0.4,4.7-0.7,10.2-0.9,16.7
	c0.6-2.9,1.4-5.8,2.4-8.8c1-3,2.1-5.7,3.3-8.1c1.3-2.4,2.7-4.4,4.4-6.1c1.7-1.7,3.5-2.6,5.5-2.9c1.1-0.2,2.3-0.2,3.4,0
	c1,0.2,2,0.5,3,1.1c1,0.6,2,1.6,2.8,2.9c1.2,2.2,1.9,4.6,2,7.3c0.1,2.7,0.1,5.4-0.2,8c-0.1,0.9-0.2,1.7-0.3,2.6
	c-0.1,0.7-0.2,1.5-0.3,2.3c-0.1,0.8-0.2,1.6-0.3,2.3c-0.3,1.9-0.5,3.7-0.7,5.4c-0.2,1.7-0.2,3.2-0.1,4.6c0.1,1.4,0.3,2.4,0.5,3.3
	c0.3,0.8,0.7,1.3,1.3,1.4c1.1,0.2,2.3-0.5,3.5-2.2c1.2-1.6,2.3-3.5,3.3-5.8c0.6-1.2,1.1-2.5,1.6-3.8c0.3-1.8,0.8-3.6,1.4-5.4
	c0.8-2.4,1.9-4.7,3.3-6.8c1.4-2.1,2.9-4,4.5-5.4c1.8-1.7,3.9-3.1,6.2-4.3c2.3-1.2,4.5-2.1,6.8-2.5c2.2-0.4,4.4-0.4,6.4,0
	c2.1,0.4,3.9,1.4,5.4,3c0.2-1.1,0.4-2.2,0.7-3.3c0.3-1,0.6-2.1,0.9-3.3c0.4-1.3,1.3-2,2.6-2c1.2,0.1,2.7,0.3,4.4,0.7
	c1.7,0.4,3.3,1,4.7,2c0.5,0.4,0.9,1,1.2,1.6c0.3,0.7,0.3,1.3,0.1,2c-0.3,1.2-0.6,2.9-1.1,5.2c-0.5,2.2-1,4.6-1.5,7.2
	c-0.5,2.6-1,5.2-1.4,7.9c-0.4,2.7-0.7,5.1-0.8,7.3c-0.1,2.2-0.1,4.1,0.2,5.5c0.3,1.4,0.8,2.2,1.6,2.3c1.1,0.2,2.3-0.5,3.5-2.2
	c1.2-1.6,2.3-3.5,3.3-5.8c0.3-0.6,0.5-1.1,0.8-1.7c0-0.1,0-0.2,0-0.3c0.4-3.7,1.4-6.6,3-8.8c1.6-2.2,2.8-3.7,3.7-4.5
	c-0.3-2-0.2-3.9,0.2-5.7c0.4-1.8,1-3.4,1.9-4.7c0.9-1.4,1.9-2.4,3.1-3.2c1.2-0.8,2.4-1.2,3.7-1.2c1.7,0,3.4,0.4,5.3,1.3
	c1.9,0.9,3.6,2.3,5.2,4.1c1.6,1.9,3,4.3,4.1,7.3c1.1,3,1.8,6.6,2,10.8c1.8-0.7,3.4-1.6,4.8-2.6c0.6-0.5,1.2-1,1.7-1.4
	c-0.4-2.1-0.6-4.1-0.6-5.9c0-1.3,0.1-2.6,0.3-3.9c0.2-1.3,0.6-2.4,1.2-3.5c0.6-1,1.4-2,2.4-2.8c1-0.8,2.2-1.4,3.7-1.8
	c1.6-0.3,3-0.4,4.3-0.3c1.1,0.2,2.2,0.5,3.2,1c1,0.5,1.7,1.4,2.2,2.6c0.3,1,0.1,1.6-0.4,2s-1.1,0.9-1.8,1.4
	c-0.7,0.6-1.2,1.4-1.8,2.4c-0.5,1-0.7,2.7-0.5,5c0.2,1,0.5,2.3,0.9,3.8c0.4,1.2,1,2.7,1.6,4.5c0.7,1.7,1.5,3.6,2.6,5.6l1.3,2.6
	c0.4,0.8,0.9,1.7,1.3,2.9c0.4,1.1,0.9,2.4,1.3,3.7c3.1,1,6,3,8.7,5.8c1,1.3,1.9,2.6,2.6,3.9c0.6,1.1,1.1,2.4,1.4,3.8
	c0.3,1.4,0.3,2.8-0.1,4.1c-0.4,1.4-1,2.4-1.7,2.9c-0.7,0.6-1.4,0.9-2.1,0.9c-0.7,0-1.3-0.1-1.9-0.4c-0.6-0.3-0.9-0.6-1.1-0.9
	c-0.4-0.4-0.5-0.9-0.6-1.4c0-0.5,0-1,0.2-1.4c0.2-0.4,0.4-0.9,0.7-1.4c-0.2-1.2-0.6-2.6-1.3-4c-0.7-1.4-1.9-2.7-3.7-3.9
	c0,1-0.1,2.1-0.3,3c-0.2,0.9-0.4,1.8-0.7,2.7c-0.3,0.9-0.7,1.8-1.2,2.6c-1.4,2.3-3.2,4-5.4,5.3c-2.2,1.3-4.6,1.9-7.3,1.8
	c-2.1-0.3-3.9-0.8-5.5-1.7c-1.4-0.7-2.6-1.8-3.7-3.2c-1.1-1.4-1.6-3.4-1.4-6c0.2-2.5,1.3-5,3.3-7.5c2-2.4,4.9-4.1,8.5-5.1
	c-0.4-0.6-0.7-1.2-1-1.7c-1.2-1.7-2.3-3.4-3.1-5c-0.8-1.6-1.5-3.1-2-4.4c-0.6-1.5-1.1-2.8-1.5-4.1c-1,0.8-2,1.5-3,2.1
	c-1.6,1-3.1,1.7-4.6,2.4c-0.2,5-0.9,8.8-2.2,11.6c-1.3,2.8-2.7,4.9-4.2,6.4c-1.7,1.7-3.7,2.8-5.9,3.3c-3.7,0.5-6.8,0.2-9.4-1.1
	c-2.6-1.3-4.8-3-6.4-5.2c-1.5-2-2.5-4.1-3.2-6.4c-0.8,1.4-1.6,2.8-2.6,4c-1.2,1.6-2.6,2.9-4.1,3.9c-1.5,1-3.1,1.4-4.9,1.3
	c-3.9-0.2-6.8-2.4-8.7-6.8s-2.6-10.1-2.2-17.2c-1.1,2.2-2.5,4.5-4.1,6.9c-1.6,2.4-3.4,4.7-5.4,6.8c-2,2.1-4.1,3.7-6.4,5
	c-2.3,1.3-4.6,1.8-7.1,1.5c-2.4-0.3-4.4-1.1-5.8-2.4c-1.1-1.1-1.9-2.3-2.5-3.8c-0.9,1.7-1.9,3.4-3,4.8c-1.2,1.6-2.6,2.9-4.1,3.9
	c-1.5,1-3.1,1.4-4.9,1.3c-2.5-0.1-4.6-1.1-6.3-3c-1.7-1.9-2.9-4.5-3.7-7.8c-0.8-3.3-1.1-7.1-1-11.6c0.1-4.5,0.7-9.3,1.7-14.6
	c0.3-2.3,0.3-3.7-0.3-4.2c-0.4-0.3-0.8-0.3-1-0.3l-0.5,0.3c-1,0.9-2,2.1-2.9,3.8c-0.9,1.7-1.7,3.6-2.5,5.8c-0.7,2.2-1.4,4.5-2.1,6.9
	c-0.7,2.4-1.2,4.9-1.8,7.3c-1.2,5.8-2.2,12-3,18.6h-0.1c0.2,1.9-0.7,3.2-2.6,3.8c-1.2,0.3-2.3,0.3-3.3-0.1c-1-0.4-1.8-0.9-2.4-1.3
	c-0.8-0.5-1.3-1.3-1.4-2.4c-0.2-1.2-0.4-3.2-0.7-6c-0.3-2.8-0.5-6.4-0.7-10.7c-0.1-4.4-0.1-9.5,0.1-15.4c0.2-5.9,0.8-12.6,1.6-20
	c-5-0.5-10.1-1.8-15.3-3.8c-3.2-1.4-6.1-2.9-8.5-4.5c-2.1-1.4-4-3-5.7-4.9c-1.7-1.9-2.5-3.9-2.3-6.1c0.1-1.4,0.5-2.5,1.2-3.4
	c0.7-0.9,1.6-1.5,2.7-1.9c1-0.4,2.2-0.6,3.3-0.7c1.2,0,2.3,0,3.2,0.1c0.8,0.1,1.5,0.4,2,1c0.6,0.6,0.8,1.4,0.7,2.2
	c-0.2,1.2-0.1,2.7,0.2,4.4c0.3,1.7,1.1,3.4,2.4,5c1.3,1.6,3.3,3.1,5.9,4.4c2.6,1.3,6.2,2.1,10.9,2.5c0.4-3.1,0.9-6.4,1.4-9.8
	C192.7,149,193.3,145.4,194,141.8z M331.6,219.8c-1.5,1-2.5,2.1-2.9,3.3c-0.4,0.9-0.5,1.6-0.3,2.2c0.1,0.6,0.3,1.1,0.5,1.5
	c0.3,0.4,0.6,0.8,0.9,1.2c0.5,0.4,1.1,0.7,1.7,0.7c0.6,0,1.1-0.1,1.6-0.3c0.5-0.2,1.1-0.4,1.7-0.8c1-0.9,1.8-2.2,2.3-4
	c0.5-1.8,0.5-3.8,0.2-6C334.9,218,333.1,218.7,331.6,219.8z M301.5,187c0.6,0.2,1.2,0.4,1.7,0.6c0.5,0.2,1,0.5,1.4,0.7
	c0.4,0.3,0.7,0.7,0.9,1.3c0.2,0.6,0,1.1-0.4,1.6c-0.5,0.7-1,1.7-1.6,2.9c0.5,0.5,1.1,1,1.7,1.3c0.6,0.4,1.2,0.6,1.7,0.8
	c0.6,0.3,1.2,0.5,1.7,0.7c0.8,0.3,1.5,0.4,2.2,0.5c0.7,0.1,1.4,0.2,2.1,0.3c-0.2-2.8-0.6-5.2-1.4-7.1c-0.7-2-1.7-3.5-2.8-4.5
	c-0.6-0.5-1.2-1-1.8-1.3c-0.5-0.3-1.1-0.5-1.7-0.6c-0.6-0.1-1.2,0-1.8,0.3c-0.5,0.3-0.9,0.6-1.2,1.1
	C301.9,186,301.6,186.5,301.5,187z M301.2,210.9c0.5,1.7,1.1,3.1,1.8,3.9c0.9,1,1.9,1.6,3,2c1.1-0.3,2.1-0.9,2.9-2
	c0.8-1.1,1.5-2.3,2-3.7c0.5-1.4,0.9-2.9,1.2-4.4c0.3-1.5,0.4-2.9,0.5-4.1c-2.6,0.1-4.9-0.3-6.8-1c-1.9-0.8-3.3-1.4-4.2-2
	c-0.2,0.6-0.3,1.3-0.4,2c-0.1,0.7-0.2,1.4-0.3,2.2C300.6,206.7,300.7,209.1,301.2,210.9z M245.6,205.4c0.2,1.1,0.7,1.8,1.6,2.1
	c0.6,0.1,1.5-0.4,2.6-1.4c1.1-1,2.4-2.4,3.8-4.1c1.4-1.7,2.8-3.5,4.3-5.6c1.4-2.1,2.8-4,4.1-5.8c1.3-1.8,2.4-3.5,3.3-4.9
	c0.9-1.4,1.5-2.3,1.8-2.8c-0.5-1-1.4-1.5-2.8-1.7c-1.3-0.2-2.8,0.1-4.5,0.9c-1.7,0.7-3.4,2-5.2,3.7c-1.8,1.7-3.4,4-4.9,6.9
	c-1.9,3.6-3.1,6.4-3.6,8.3C245.6,202.9,245.5,204.4,245.6,205.4z M202.4,162.1c6.1-0.8,11.8-2.4,17.2-5c5.3-2.5,10.1-5.6,14.4-9.2
	c4.3-3.6,8-7.6,11.1-12c3.1-4.4,5.5-8.7,7.1-13.1c1.8-4.8,3-9.6,3.4-14.3c0.4-4.7,0.3-9-0.3-12.8c-0.7-3.8-1.8-7.1-3.4-9.7
	c-1.6-2.6-3.6-4.2-5.8-4.7c-1.5-0.3-3.3-0.3-5.5,0.2c-2.2,0.5-4.5,1.7-7.1,3.7c-2.5,2-5.2,4.8-7.9,8.5c-2.8,3.7-5.5,8.6-8.2,14.7
	c-2.7,6.1-5.4,13.6-7.9,22.4C206.8,139.6,204.5,150,202.4,162.1z M253.8,114.2c0.4-2.2,0.8-4.4,1.1-6.7c-12.6,0.2-25.7,1.1-36.1,2.4
	c-1,2.7-2.2,5.4-3.1,8.1c0,0.1-0.1,0.3-0.1,0.4c2.1-0.2,4.3-0.4,6.1-0.6C237.3,116.6,246.8,115.3,253.8,114.2z M321.7,110.5
	c0.8-0.5,1.6-0.9,2.4-1.4c0.7-0.4,1.4-1,2.1-1.2c0.2-0.1,0.5-0.1,0.7-0.2c0.1,0,0.5-0.2,0.4-0.1c8.9-2.1,12.8-3.4,21.6-0.9
	c1.2,0.4,0.6,0.1,3.9,1.6c0,0,4.9,2.2,7.2,7.7c1.2,2.9,1.6,5.7,1.5,8.8c4.5,1.3,7.3,3,9.9,5.1c4.8,3.8,6.2,5.7,8.8,9.3
	c3.3,5.5,1.8,3,3.4,6.4c0.8,1.9,0.4,0.7,1.8,5c0.4,1.2,0.4,1.4,1.1,5.2c0.1,0.6,0.5,5.4,0.5,5.3c0.1,19.8-15.6,30.2-19.8,56.8
	c-1.3,8.4-1,19.5,7.1,21.7l0.5,0.1c0,0,1,0.1,1.1,0.1c1.7-0.2,0.6-0.1,1.5-0.3c4.3-1.5,6.6-8.4,4.5-11.6c-2.7-4.1-6.3-0.7-6.6,2
	c-0.1,0.4,0,0.7-0.1,1c0.1,0.3,0.1,0.6,0.1,0.7c0.3,0.7-0.2-0.1,0.7,1.3c0.4,0.6,0.2,1.5-0.4,1.9c-0.6,0.4-1.5,0.3-2-0.4
	c-0.6-0.9-0.6-1-1-2.1c-1.1-4.2,2.3-8.7,6.1-8.8c0.5,0,1,0,1.5,0.2c0.2,0.1,0.5,0.1,0.7,0.3c1.2,0.7,0.9,0.5,2,1.5
	c0.2,0.1,0.3,0.3,0.4,0.5c4.6,6.5-2.2,17.5-9.2,15.3l-0.4-0.2c-8.9-2.7-8.7-14.4-7.5-23.5c2.8-19.8,8.6-28.9,12.4-41.2
	c2.8-9.3,1.8-13,1.8-14.9c0,0.1-0.6-3.1-0.6-3.3c-1-5.1-3.2-10.2-6.3-14.5c-1.3-1.5-2.4-3.1-3.9-4.4c-4.5-4.3-6.7-5.6-9.4-6.8
	c-0.9,3.4-2.9,9-5.9,11c-1,0.7-0.4,0.4-1.7,1.1c-2.4,1.2-5.3,1.5-8,0.7c-2.7-0.8-5.2-3.3-5.6-6.4c-0.2-1.8-0.2-1.6-0.1-3.1
	c0-0.4,0.1-0.7,0.1-0.6l0.1-0.5c1.4-9.4,10.3-12.5,19.6-10.6c-0.2-2.3-0.8-4.7-2-6.7c-2-3.5-4.5-4.4-5.7-4.9c0,0,0,0-0.1,0
	c-0.4-0.1-1.7-0.5-2.1-0.6c-1.1-0.3-0.7-0.2-1.7-0.4l-1.6-0.2c-0.4-0.1-3.1-0.1-3.4,0c-2,0.2-1.5,0.2-2.4,0.3c0,0-0.2,0-0.2,0
	c-0.3-0.1-1.4,0.3-1.7,0.4c-3.8,0.9-5,1.9-7.6,2.5c-0.7,0.2-1.2,0.7-1.8,1.1c-0.5,0.5-1.1,0.8-1.7,1.2c-0.8,0.5-2.1,1.6-2.9,2.2
	c-0.3,0.2-0.7,0.4-0.9,0.7c-0.2,0.2-0.3,0.5-0.4,0.7c-0.4,0.7-1.2,1.3-1.8,1.8c-0.2,0.2-2.8,2.7-2.7,2.8c1.6,2.3,5.3,8.7,6,12.9
	c0.8,3.1-1.1,9.8-4.9,12.9c-2.3,1.8-4.4,2-6.8,1.6c-0.3,0-0.2,0-0.7-0.2c-1.7-0.6-1.1-0.3-2.3-0.9c-1.5-0.8-2.9-1.9-4-3.4
	c-5.9-8.4,1.3-22.8,6.1-28.2c-0.8-0.8-3.1-2.3-3.4-2.5c-0.2-0.1-2.3-1.2-2.5-1.3c-10-3.6-20.5-4.7-31.2-4.3
	c-4.4,0.2-7.9,0.6-11.7,1.1c0.3-1.6,0.5-3.2,0.8-4.8c0-0.2,0-0.3,0-0.5c8.6,0.1,16.5,0.5,22.7,1.5c6.2,1,3.4,0.5,7.8,1.5
	c3.7,0.9-0.4-0.3,7.6,2.1c1.7,0.6-0.1-0.2,3.8,1.4c1.9,0.7,5.6,3.1,7.2,4.6c-0.1-0.1,4.1-4,4.2-4c0.3-0.3,0.4-0.6,0.6-0.9
	C318.1,113,320.3,111.2,321.7,110.5z M358.5,131.7c-6.5-2.5-13-2.6-15.2,4c-0.2,0.5-0.2,0.4-0.4,1.5c-0.2,0.7-0.1,1-0.1,1.4
	c-0.1,4.2,5.3,6.1,9.2,4.2c1.2-0.6,0.6-0.3,1.4-0.8C356.1,140.3,357.9,134.8,358.5,131.7z M317.9,127.3c-0.1-0.2-0.3-0.8-0.6-0.9
	c-0.3-0.1-0.4,0.1-0.6,0.3c-0.1,0.2-2.7,4.5-3.6,6.1c-1.1,2-2,4.1-2.6,6.2c-0.7,2.5-0.9,6.1,1.6,7.9c0.8,0.6,0,0.1,1.3,0.8
	c0,0,0.2,0.1,0,0.1c0.2,0.1,1,0.4,1.2,0.4c3.2,1,7.4-4.9,7.5-9.1C322.6,136.2,319.1,129.1,317.9,127.3z M188.3,116.2
	c6.7-1.7,9.8-2.5,11.8-3c-0.7,2.6-1.2,5.4-2,8c-7.9,1.5-7.7,1.8-26.1,4c-10.8,1.3-18.1,2.4-27.5,1.4c-16.2-1.6-30.2-11.8-32.2-19
	c-0.4-1-0.5-2.1-0.6-3.1c0-2.1-0.1-2.7,1.1-6.1c0.3-1,0.9-1.8,1.4-2.7c5.7-9.9,25.2-8.8,28.8,3.7c5.7,0.6,10.9,4,13.5,8
	c0.3,0.5,0.8,1.4,1.1,1.9c0.4,0.8,0.1,1.7-0.7,2.1c-0.8,0.4-1.9,0-2.2-0.8c-0.2-0.4-0.5-1.5-0.7-1.8c-1.7-3.7-6.3-7-10.7-7.9
	c1.5,6.8-0.2,14.1-7.7,13.5c-6-0.4-7.5-7.6-4-11.5c0.9-1.2,3.9-3.2,7.5-3.6c-4-6.1-13.2-6.6-14.6-6.4c-3.4,0.1-6.6,1.3-8.6,4
	c-1,1.5-1.9,3-2.3,4.8c-0.4,1.3-0.2,3.9,0.4,5.3c0.3,0.9,0.8,1.6,1.2,2.5c1.3,1.7,2.4,3.3,6.2,6c3,2.1,7.3,4.1,10.9,5.3
	C144.7,125.5,161.3,122,188.3,116.2z M135,101.6c-0.8,0.5-2,1.1-2.6,1.9c-2.4,2.6-2.4,7.3,0.6,9.2c0.2,0.2,0.5,0.3,0.8,0.4
	c0.3,0.2,1,0.3,1.3,0.4c0,0,1.2,0.1,1.2,0.1c0.8,0,1.2,0,2.2-0.3c4.8-1.7,3.8-8.2,1.3-12.7C137.8,100.6,136.8,100.9,135,101.6z
	 M344.1,156.8l-2.2-6.8l-2.2,6.8h-7.2l5.8,4.2l-2.2,6.8l5.8-4.2l5.8,4.2l-2.2-6.8l5.8-4.2H344.1z M366.2,280.2
	c3.7,1.9,7.5,3.4,11.6,4.1c5,1,10,2.1,14.8,3.9c3.1,1.2,6,2.5,8.3,5c0.3,0.3,0.6,0.5,0.9,0.8c0.3,0.2,0.6,0.3,0.9,0
	c0.2-0.2,0.2-0.5,0-0.8c-0.6-0.7-1.1-1.4-1.8-2c-3.3-2.7-7-4.9-11.1-6.3c-0.6-0.2-1.3-0.4-1.9-0.7c-2.5-1.1-5.1-2.1-7.7-3
	c-2.7-1-5.4-1.9-8-3.2c-1.4-0.7-1.4-0.8-1-2.2c0.5-2,1.2-3.9,1.4-5.9c0.4-3.3,0.7-6.6,0.7-9.9c0-4.7-0.7-9.3-2.5-13.7
	c-0.2-0.5-0.3-1.1-1.1-1.4c-0.4,0.9-0.1,1.7,0.1,2.4c1.2,6,1.3,12-0.1,17.9c-1,4.4-2.2,8.8-4.7,12.6c-0.5,0.7-0.3,1.3,0.3,1.8
	C365.5,279.8,365.9,280,366.2,280.2z M374.8,275.4c-0.9,2,6.3,2.6,7.4,2.8c4.8,1,9.4,3,13.6,5.8c0.7,0.4,1.3,1,2.4,1
	c-0.1-1.1-0.6-1.8-1.2-2.3c-0.9-0.8-1.8-1.6-2.7-2.3c-3.5-2.8-7.2-5.2-11.7-6c-0.9-0.2-1.3-0.6-1.2-1.5c1.4-6.8-1.4-15.4-4.1-21.6
	c-0.2-0.5-0.4-1.1-1.2-1.3c-0.1,0.6,0,1,0.1,1.4c0.7,2.8,1.1,5.7,1.3,8.7c0.2,5-0.1,9.9-2.2,14.5C375,274.9,374.9,275.2,374.8,275.4
	z M385.9,269c-0.3,0.3-0.7,0.7-0.4,1.2c0.2,0.4,0.7,0.3,1.1,0.3c0.1,0,0.2,0,0.3-0.1c3.9-0.7,7.9-1.4,11.8-2.1
	c1.2-0.2,2.3-0.6,3.4-1c1.8-0.7,3.1-2.1,3.7-3.9c0.9-2.3-0.7-4.7-3.2-4.8c-0.9-0.1-1.8,0.1-2.7,0.4c-3.4,1.2-6.5,2.9-9.2,5.2
	C389.1,265.8,387.5,267.4,385.9,269z M406.7,278.2c1-1.5,0.8-3.2-0.7-4.9c-3.3-3.9-11.3-2.2-15.7-1.6c-0.4,0.1-0.8,0.2-1.1,0.4
	c-0.4,0.3-0.4,0.7-0.1,1c0.3,0.3,0.6,0.5,1,0.7c2.2,1.3,4.4,2.5,6.5,3.9c1.7,1.1,3.5,1.8,5.4,2.3
	C403.9,280.4,405.8,279.7,406.7,278.2z M384.9,253.4c-0.9,2.1-0.6,4.8-0.4,7c0.3,1.9,0.6,3.9,0.4,5.9c0,0.4-0.1,0.8,0.3,1.1
	c0.6,0.3,0.8-0.3,1.1-0.6c0.2-0.2,0.3-0.3,0.4-0.5c1.4-2.3,2.8-4.6,3.9-7c1-2,2.1-4.7,0.8-6.8c-1.3-2.2-3.7-2.4-5.4-0.7
	C385.5,252.2,385.1,252.8,384.9,253.4z M92.1,220.2c4.4-0.7,8.9-1.3,13.4-0.3c0.8,0.2,1.3-0.2,1.5-0.9c0.1-0.4,0.2-0.8,0.3-1.1
	c0.4-4.1,0.3-8.2-0.4-12.3c-1-5-1.8-10.1-1.9-15.2c-0.1-3.3,0.1-6.5,1.5-9.6c0.2-0.4,0.3-0.7,0.4-1.1c0.1-0.4,0-0.7-0.4-0.8
	c-0.3-0.1-0.6,0-0.7,0.3c-0.4,0.8-0.9,1.6-1.2,2.4c-1.3,4.1-2,8.3-1.7,12.6c0,0.7,0.1,1.3,0,2c-0.1,2.8-0.1,5.5,0,8.3
	c0.1,2.9,0.2,5.7,0,8.6c-0.1,1.5-0.2,1.6-1.7,1.7c-2,0.2-4,0.4-6,0.9c-3.2,0.9-6.4,1.8-9.5,3.1c-4.4,1.8-8.4,4.1-11.8,7.4
	c-0.4,0.4-0.9,0.7-0.9,1.5c1,0.1,1.6-0.6,2.2-1C80.5,223.5,86.1,221.2,92.1,220.2z M94.9,206.6c-6.9,1.3-13.7,7-18.5,11.8
	c-0.4,0.4-0.9,0.8-0.7,1.6c0.6-0.1,0.9-0.3,1.3-0.6c2.4-1.7,4.9-3.2,7.6-4.4c4.6-2.1,9.2-3.6,14.3-3.3c0.3,0,0.6,0,0.8,0
	c2.2,0.1,0.1-6.8-0.1-7.9c-0.8-4.9-0.7-9.9,0.3-14.7c0.2-0.8,0.4-1.6,0.1-2.6c-1,0.5-1.4,1.2-1.7,2c-0.4,1.1-0.8,2.2-1.1,3.4
	c-1.3,4.3-2.1,8.6-1.2,13.1C96.1,205.8,95.8,206.4,94.9,206.6z M82,189.4c-1.4-1.4-3.1-2.1-5-2c-2.5,0.1-4.1,2.4-3.3,4.7
	c0.3,0.9,0.8,1.6,1.4,2.3c2.3,2.7,5.1,4.9,8.2,6.6c2.1,0.9,4.2,1.9,6.3,2.8c0.4,0.2,0.9,0.4,1.2-0.1c0.3-0.4,0-0.8-0.1-1.1
	c0-0.1-0.1-0.2-0.2-0.3c-2.1-3.4-4.2-6.8-6.3-10.2C83.6,191.1,82.9,190.2,82,189.4z M90.5,181c-1.8-0.3-3.2,0.5-4.3,2.5
	c-2.4,4.5,2.1,11.4,4.3,15.1c0.2,0.3,0.5,0.6,0.8,0.9c0.4,0.3,0.8,0.2,0.9-0.3c0.1-0.4,0.2-0.8,0.2-1.1c0.4-2.5,0.7-5,1.2-7.5
	c0.3-2,0.4-3.9,0.1-5.9C93.6,182.9,92.2,181.3,90.5,181z M72.1,204.8c-1.6,2-0.9,4.3,1.4,5.3c0.7,0.3,1.3,0.4,2,0.4
	c2.3,0,4.7-1.2,6.6-2.3c1.7-1,3.4-2,5.3-2.5c0.4-0.1,0.8-0.2,0.9-0.7c0.1-0.6-0.5-0.6-0.9-0.8c-0.2-0.1-0.4-0.1-0.6-0.2
	c-2.6-0.5-5.3-0.8-8-1C76.5,202.9,73.7,202.9,72.1,204.8z M329.1,382.9c-2.6-0.6-23.3-2-20.6-7.9c1.2-2.6,3.6-5.8,6-7.5
	c1-0.7,2.5-1.2,3.6-1.9c0.7-0.5,2.3-1.7,2-2.7c-3.4-1.3-9.9,2.6-13.2,3.9c-2.8,1.1-5.4,2.1-8.2,3c-4.7,1.4-9.2,3-13.9,4.4
	c-10.4,2.9-21.1,5-31.9,5.9c-9.1,0.8-18.2,2.3-27.3,2.8c-18.9,1.1-37.5,1.9-56.5-1.3c-8.7-1.5-17.4-2.1-26.1-3.6
	c-2.4-0.4-4.2-0.8-6.5-1.7c-1.8-0.7-6.2-1.1-7.1-3.2c-1.2-2.7,5-6.8,6.6-8.6c1-1.2,4.1-4,3.8-5.8c-2.6,0-5.1,0.9-7.5,1.9
	c-2.5,1.1-5.2,1.4-7.9,2.1c-5.6,1.4-11.2,3.2-16.9,3.8c0.1,2.4,4.2,5.6,5.4,7.8c1.7,3,3.6,5.6,5.6,8.4c2.5,3.4,5.8,9.3,9.9,10.8
	c0.6,0.2-1.7-8.1-1.8-8.6c-0.8-2.9,0.2-5.7,1-8.5c5.8,1.9,11.5,4.3,17.3,6.3c4,1.4,8,1.8,12.1,2.8c20.1,4.9,41.5,7.5,62.2,8.7
	c14,0.8,28.7,2.1,42.7,0.4c7.1-0.9,14.4-0.8,21.6-1.6c7.4-0.8,14.7-1.9,22.1-2.7c5.1-0.6,9.9-1.8,14.9-2.8
	C322.5,387,329.1,386.1,329.1,382.9z"/>
</svg>
