<?xml version="1.0" encoding="utf-8"?>
<!-- Generator: Adobe Illustrator 18.0.0, SVG Export Plug-In . SVG Version: 6.00 Build 0)  -->
<!DOCTYPE svg PUBLIC "-//W3C//DTD SVG 1.1//EN" "http://www.w3.org/Graphics/SVG/1.1/DTD/svg11.dtd">
<svg version="1.1" id="Layer_1" xmlns="http://www.w3.org/2000/svg" xmlns:xlink="http://www.w3.org/1999/xlink" x="0px" y="0px"
	 viewBox="0 0 432 432" enable-background="new 0 0 432 432" xml:space="preserve">
<path fill="#333333" d="M102.3,147.6c0.3,1.6,0.6,3.2,0.9,4.8c0.1,1.5,0.2,3.1,0.3,4.6c0.1,1.5,0.3,3,0.5,4.5c0,0.1,0,0.1,0,0.1
	c-0.4-0.4-0.8-0.7-1.1-1c-0.3-0.3-0.6-0.6-0.8-0.9c-2.3-2.8-4.4-5.7-6.3-8.7c-1.8-3-3.4-6.3-4.7-9.7c-0.3-0.8-0.5-1.6-0.6-2.4
	c-0.1-0.8-0.1-1.6-0.1-2.4c0.1-0.6,0.4-1.3,0.8-1.9c0.4-0.7,0.9-1.1,1.4-1.4c0.4-0.2,1-0.2,1.7,0c0.7,0.2,1.3,0.5,1.8,0.8
	c1.5,1.1,2.6,2.4,3.4,3.9c0.8,1.5,1.4,3.1,1.8,4.8C101.8,144.4,102.1,146,102.3,147.6z M82.9,149.2c-0.6,0.2-1.1,0.4-1.4,0.8
	c-0.3,0.3-0.4,0.8-0.3,1.4c0.1,0.6,0.2,1.2,0.3,1.7c0.1,0.4,0.4,0.7,0.7,1c0.3,0.3,0.6,0.6,0.9,0.9c2.4,1.8,5,2.9,7.7,3.5
	c2.7,0.5,5.5,0.9,8.4,1.3c-2.1-3.2-4.9-5.8-8.3-7.8c-2-1.2-4.2-2.1-6.4-2.8C84.1,149,83.6,149,82.9,149.2z M85.9,121.1
	c-0.6,0.1-1.1,0.3-1.5,0.7c-0.4,0.4-0.6,0.9-0.6,1.4c0,0.6,0.2,1.1,0.6,1.5c0.4,0.4,0.9,0.6,1.5,0.6c0.6-0.1,1.1-0.3,1.5-0.7
	c0.4-0.4,0.6-0.9,0.6-1.4c0-0.6-0.2-1.1-0.6-1.5C87,121.3,86.5,121.1,85.9,121.1z M105.1,123.1c-0.6,0-1.2,0.3-1.6,0.7
	c-0.4,0.4-0.6,0.9-0.6,1.5c0,0.6,0.2,1.1,0.6,1.6c0.4,0.4,0.9,0.6,1.6,0.6c0.6,0,1.1-0.2,1.5-0.6c0.4-0.4,0.6-0.9,0.6-1.5
	c0-0.6-0.3-1.2-0.7-1.6C106.1,123.3,105.7,123.1,105.1,123.1z M105.3,147.2c-0.1,1.9-0.1,3.8,0.1,5.7c0.2,1.9,0.6,3.9,1,5.8
	c1.7-2.6,3.5-5.2,5.3-7.7c1.8-2.5,3.1-5.3,4-8.3c0.5-1.5,0.5-3.1,0.1-4.7c-0.2-0.6-0.5-1.1-1-1.7c-0.5-0.6-1-0.9-1.6-1
	c-0.6-0.1-1.3-0.1-2.1,0.1c-0.8,0.2-1.4,0.6-1.7,1c-1.3,1.7-2.3,3.4-2.9,5.2C105.8,143.4,105.4,145.3,105.3,147.2z M80,133.7
	c-1.1,0-2,0.4-2.7,1.1c-0.8,0.7-1.1,1.6-1.1,2.7c0,1.1,0.4,2,1.2,2.7c0.7,0.7,1.6,1.1,2.7,1c1,0,1.9-0.3,2.7-1.1
	c0.8-0.7,1.1-1.6,1.1-2.7c0-1.1-0.4-2-1.1-2.7C81.9,134,81,133.7,80,133.7z M107.6,354.6c0,6-1.4,11.6-4.1,16.6
	c-3.3,6-8.3,10.6-15.1,13.8c-2.6,1.2-5.4,2-8.3,2.3c-2.2,0.2-3.3,1.1-3.3,2.6v12.9c0,5.8-2.9,8.6-8.8,8.6c-2.6,0-4.4-0.4-5.6-1.3
	c-1.1-0.9-1.8-2-2.1-3.4c-0.3-1.4-0.4-2.8-0.4-4.3v-62.5c0-6,4-9,12-9c9.2,0,17.2,1.7,23.9,5.2C103.7,340.1,107.6,346.3,107.6,354.6
	z M96.1,355.1c0-2.9-0.6-5.6-1.8-8.1c-1.2-2.4-3.1-4.4-5.8-5.9c-2.5-1.3-5.6-2-9.4-2c-1.6,0-2.4,0.6-2.4,1.7v38.6
	c0,1.2,0.7,1.8,2,1.8c1.8,0,4.3-1.3,7.5-4c3.2-2.7,5.5-5.9,7.1-9.5C95.2,363.6,96.1,359.4,96.1,355.1z M161.5,404.1
	c-0.9-0.4-1.9-0.6-3.1-0.6c-1.8,0-3.6,0.1-5.3,0.2c-1.8,0.1-3.6,0.2-5.3,0.2c-5.7,0-9.5-1.1-11.4-3.2c-1.2-1.4-1.9-3.3-1.9-5.9v-2.4
	c0-1.4,1.1-2.2,3.3-2.2l14.3,0.2c1.7,0,2.9-0.3,3.9-0.9c0.9-0.6,1.4-1.3,1.4-2.1c0-1.4-0.7-2.5-2.1-3.1c-1.2-0.5-2.9-0.8-5.2-0.8
	c-1.9,0-3.9,0-5.8,0.1c-2,0.1-3.9,0.1-5.8,0.1c-1.3,0-2.3-0.2-2.9-0.7c-0.6-0.4-1-1.5-1-3.1v-36.7c0-2.8,1.6-4.1,4.9-4.1
	c1.7,0,3.5,0,5.3,0.1c1.8,0.1,3.5,0.1,5.3,0.1c2.4,0,4.3-0.4,5.4-1.1c1.2-0.7,1.8-1.5,1.8-2.4c0-2.2-1.9-3.5-5.7-3.9
	c-1.6-0.1-3-0.2-4.3-0.2h-18.6c-5.4,0-8.8,1.7-10.1,5c-0.6,1.6-0.9,3.5-0.9,5.7v43.4c0,3.3,0.2,6.5,0.6,9.6
	c0.8,6.7,4.4,11.3,10.6,13.9c3.5,1.4,8.4,2.1,14.6,2.1c7.2,0,12.2-0.5,15.2-1.4s4.4-2.3,4.4-4C162.9,405.2,162.4,404.5,161.5,404.1z
	 M222.4,351.5c1.6,5,2.3,10.4,2.3,16.2c0,8.4-0.9,15.8-2.6,22.1c-4,14.4-13.5,21.6-28.6,21.6c-5.6,0-10.2-0.9-13.9-2.6
	c-3.7-1.8-6.7-4.1-9.1-7c-2.3-2.9-4.1-6.1-5.3-9.7c-1.2-3.6-2-7.2-2.4-10.9c-0.4-3.7-0.6-7.2-0.6-10.6c0-12.9,3-22.9,9-30.1
	c5.3-6.4,13.1-9.6,23.5-9.6C208.8,330.9,218,337.8,222.4,351.5z M214.2,367.1c0-5.2-0.5-9.9-1.6-14.2c-1.2-5.3-3.3-9.2-6.2-11.8
	c-2.3-2.1-5.3-3.2-8.8-3.2c-5.8,0-10.2,2.7-13.1,8.2c-3,5.7-4.6,13.5-4.6,23.5c0,10.9,1.6,19.5,4.8,25.8c2.8,5.5,6.7,8.2,11.7,8.2
	c7.7,0,12.9-5,15.7-15.1C213.5,383.4,214.2,376.3,214.2,367.1z M286.3,354.6c0,6-1.4,11.6-4.1,16.6c-3.3,6-8.3,10.6-15.1,13.8
	c-2.6,1.2-5.4,2-8.3,2.3c-2.2,0.2-3.3,1.1-3.3,2.6v12.9c0,5.8-2.9,8.6-8.8,8.6c-2.6,0-4.4-0.4-5.6-1.3c-1.1-0.9-1.8-2-2.1-3.4
	c-0.3-1.4-0.4-2.8-0.4-4.3v-62.5c0-6,4-9,12-9c9.2,0,17.2,1.7,23.9,5.2C282.4,340.1,286.3,346.3,286.3,354.6z M274.8,355.1
	c0-2.9-0.6-5.6-1.8-8.1c-1.2-2.4-3.1-4.4-5.8-5.9c-2.5-1.3-5.6-2-9.4-2c-1.6,0-2.4,0.6-2.4,1.7v38.6c0,1.2,0.7,1.8,2,1.8
	c1.8,0,4.3-1.3,7.5-4c3.2-2.7,5.5-5.9,7.1-9.5C273.8,363.6,274.8,359.4,274.8,355.1z M334.7,404.1c-0.9-0.4-1.9-0.6-3.1-0.6
	c-1.5,0-2.8,0.1-4.1,0.2c-1.3,0.1-4.1,0.2-8.4,0.2c-3.4,0-5.1-1.6-5.1-4.9v-59.5c0-2.6-0.7-4.7-2-6.2c-1.5-1.6-3.7-2.4-6.8-2.4
	c-3.2,0-5.4,0.8-6.6,2.4c-1,1.3-1.4,3.5-1.4,6.6v56.4c0,5,1.3,8.8,3.9,11.3c2.6,2.6,7.1,3.8,13.6,3.8c6.1,0,10.9-0.3,14.3-1
	c4.7-0.9,7.1-2.4,7.1-4.3C336,405.2,335.6,404.5,334.7,404.1z M380.3,404.1c-0.9-0.4-1.9-0.6-3.1-0.6c-1.8,0-3.6,0.1-5.3,0.2
	c-1.8,0.1-3.6,0.2-5.3,0.2c-5.7,0-9.5-1.1-11.4-3.2c-1.2-1.4-1.9-3.3-1.9-5.9v-2.4c0-1.4,1.1-2.2,3.3-2.2l14.3,0.2
	c1.7,0,2.9-0.3,3.9-0.9c0.9-0.6,1.4-1.3,1.4-2.1c0-1.4-0.7-2.5-2.1-3.1c-1.2-0.5-2.9-0.8-5.2-0.8c-1.9,0-3.9,0-5.8,0.1
	c-2,0.1-3.9,0.1-5.8,0.1c-1.3,0-2.3-0.2-2.9-0.7c-0.6-0.4-1-1.5-1-3.1v-36.7c0-2.8,1.6-4.1,4.9-4.1c1.7,0,3.5,0,5.3,0.1
	c1.8,0.1,3.5,0.1,5.3,0.1c2.4,0,4.3-0.4,5.4-1.1c1.2-0.7,1.8-1.5,1.8-2.4c0-2.2-1.9-3.5-5.7-3.9c-1.6-0.1-3-0.2-4.3-0.2h-18.6
	c-5.4,0-8.8,1.7-10.1,5c-0.6,1.6-0.9,3.5-0.9,5.7v43.4c0,3.3,0.2,6.5,0.6,9.6c0.8,6.7,4.4,11.3,10.6,13.9c3.5,1.4,8.4,2.1,14.6,2.1
	c7.2,0,12.2-0.5,15.2-1.4c2.9-0.9,4.4-2.3,4.4-4C381.7,405.2,381.2,404.5,380.3,404.1z M69,119.5c0.7-3,0.2-5.9-1.5-8.9
	c-1.8-3.2-5-5.6-9.7-7c-2.1-0.6-4.4-1.1-6.7-1.4c-5.7-0.8-10.1-1.6-13.1-2.7c-3.3-1.2-5.8-3.1-7.6-5.8c-1.8-2.8-2.7-5.4-2.6-7.9
	c0.1-3,1.7-5.5,4.6-7.3c4-2.5,7.8-2.2,11.3,0.8c1.5,1.4,2.9,3,4.1,5c1.6,2.7,2.7,5.5,3.6,8.4c0.1,0.4,0.3,0.8,0.5,1.1
	c0.8,1.3,2,1.5,3.5,0.6c1.8-1,2.2-3.1,1.5-6.2c-0.5-2.3-1.5-4.7-3.1-7.4C47.7,69.9,39,67.5,28,74.5c-5.3,3.4-8.7,7.3-10.3,11.6
	c-0.8,2.2-1.1,4.4-0.8,6.6c0.4,3.1,1.6,6,3.6,8.8c2.9,4,7,6.7,12,8.2c3.4,1,7.9,1.8,13.4,2.4c2,0.2,3.8,0.5,5.6,0.8
	c3.8,0.7,6.2,2.1,7.5,4.1c1.9,3.1,1.3,5.5-1.8,7.5c-2.8,1.8-5.3,1.7-7.8-0.4c-1.1-0.8-1.9-1.8-2.6-2.8c-1.2-1.7-2.5-2-4.1-0.9
	c-0.9,0.6-1.3,1.4-1.4,2.4c-0.1,1,0.2,1.9,0.9,2.9c2.3,3.3,5,5.3,7.9,6.1c3.6,0.9,7.3,0.2,11.1-2.3C65.5,126.6,68.1,123.4,69,119.5z
	 M64.9,89.5c-4.9-9-6.7-17.1-5.2-24.3c1.3-6.4,5.8-11.5,13.2-14.8c10.1-4.5,18.9-2,25.8,7.1c2.5,3.3,4.5,7.2,6.1,11.5
	c2.3,6.3,3.8,12,4.4,17.1c1.5,11.7-2,19.1-10.8,23c-3.3,1.5-6.2,2.1-9,1.9c-2.8-0.2-5.4-1-7.8-2.3c-2.4-1.3-4.7-3.1-6.7-5.2
	c-2.1-2.1-3.9-4.4-5.6-6.9C67.6,94.2,66.1,91.8,64.9,89.5z M70.8,64.7c-0.1,5.1,1.6,11.2,5.1,18.3c3.8,7.8,7.8,13.4,11.9,17.1
	c3.5,3.2,6.8,4.1,9.8,2.7c4.6-2,6.2-7,5-15.1c-0.7-4.2-2.3-9.6-5-16.4c-1.5-3.8-3.3-7.2-5.2-10.1c-2.4-3.6-5-5.9-7.9-7
	c-2.3-0.9-4.7-0.8-7.2,0.3C73.1,56.3,70.9,59.8,70.8,64.7z M122.9,92.2c0.4,1.1,0.8,2.1,1.3,3c1.2,2.1,3.1,2.7,5.8,1.9
	c1.8-0.6,2.9-1.5,3.5-2.8c0.6-1.3,0.6-3,0-5c-3.6-12.2-7.1-23.3-10.6-33.3c-0.7-2-1.2-3.3-1.4-3.9c-0.3-0.6-0.5-1.4-0.8-2.3
	c-0.2-0.8-0.3-1.2-0.2-1.2c0.3-0.1,0.9,0.5,1.8,1.8c9,12.2,15.7,21.5,20.6,27.7c1.1,1.4,2.4,1.9,3.9,1.6c1.3-0.3,2.2-1.3,2.5-3
	c2.5-11,4.7-21.8,6.5-32.5c0.2-1.4,0.5-2.1,0.8-2.2c0.3-0.1,0.6,0.3,0.7,1.1c0.3,1.8,0.7,4.6,1.2,8.3c1,7.2,2.7,17.9,5.3,32.1
	c0.3,1.6,0.8,2.9,1.4,3.7c0.6,0.8,1.5,1.1,2.7,0.9c2.4-0.4,3.4-2.3,2.8-5.8c-2.6-16.6-5.2-33.2-7.8-49.8c-0.3-2.1-1-3.8-2.1-5.2
	c-1.5-1.8-3.7-2.5-6.6-2c-1.3,0.2-2.5,0.9-3.7,1.9c-1.2,1-2,2.6-2.3,4.6c-2,11.2-4.2,22.4-6.3,33.7c-2-2.9-4.1-5.9-6.2-9
	c-3.4-4.8-7.7-10.6-13.1-17.3c-2.9-3.7-6.6-4.9-10.9-3.5c-4.7,1.5-6.1,4.9-4.3,10.3C112.6,61.4,117.8,76.8,122.9,92.2z M180.8,65.7
	c0.3,2.6,0.7,5.2,1.2,7.5c1.1,5.3,3.8,8.6,7.9,10.3c2.3,0.9,5.4,1.2,9.3,1c4.5-0.3,7.7-0.7,9.5-1.5c1.8-0.8,2.8-1.9,2.7-3.2
	c0-0.7-0.3-1.2-0.9-1.5c-0.6-0.3-1.3-0.5-2-0.5c-1.2,0-2.3,0.1-3.4,0.2c-1.1,0.1-2.3,0.2-3.4,0.3c-3.6,0.2-6.1-0.5-7.5-2.1
	c-0.9-1-1.4-2.6-1.6-4.6c-0.1-0.8-0.1-1.1-0.1-1.9c-0.1-1.1,0.6-1.8,2.1-1.9c3.8-0.2,5.7-0.3,9.5-0.4c1.1,0,1.9-0.3,2.5-0.8
	c0.6-0.5,0.9-1.1,0.9-1.7c0-1.2-0.5-2-1.5-2.4c-0.8-0.4-2-0.6-3.6-0.5c-1.3,0.1-2.6,0.1-3.9,0.3c-1.3,0.1-2.6,0.2-3.9,0.3
	c-0.9,0.1-1.5-0.1-2-0.4c-0.5-0.3-0.7-1.1-0.8-2.4c-0.9-11.7-1.4-17.5-2.3-29.2c-0.2-2.2,1-3.4,3.4-3.5c1.3-0.1,2.6-0.1,4-0.2
	c1.3,0,2.7-0.1,4-0.1c1.8-0.1,3.2-0.4,4.1-1c0.9-0.6,1.3-1.3,1.3-1.9c0-1.8-1.5-2.8-4.5-2.9c-1.2-0.1-2.3-0.1-3.3,0
	c-5.7,0.3-8.6,0.5-14.3,1c-4.2,0.4-6.6,2-7.3,4.8c-0.3,1.3-0.4,2.8-0.2,4.6C178.5,45.1,179.2,52,180.8,65.7z M212.2,25.7
	c0.9,0.5,2.2,0.8,3.9,0.8c2.3,0,3.4,0,5.7,0.1c0.8,0,1.2,0.4,1.2,1c-0.3,16.4-0.7,32.9-1,49.3c0,2,0.1,3.5,0.4,4.5
	c0.2,0.7,0.6,1.2,1,1.7c0.7,0.7,1.8,1.1,3.4,1.2c3.7,0.1,5.6-2,5.9-6.6c1-16.5,1.9-33.1,2.9-49.6c0-0.7,0.5-1,1.3-0.9
	c2.2,0.1,3.4,0.2,5.6,0.4c1.7,0.1,3,0,3.9-0.5c0.9-0.5,1.4-1,1.5-1.7c0.1-1-0.3-1.8-1.1-2.3c-0.8-0.5-1.8-0.9-3-1.1
	c-1.2-0.2-2.3-0.3-3.3-0.4c-8.8-0.6-13.3-0.8-22.1-0.9c-1,0-2.1,0-3.3,0.2c-1.2,0.1-2.2,0.4-3.1,0.9c-0.9,0.5-1.3,1.2-1.3,2.2
	C210.8,24.5,211.3,25.1,212.2,25.7z M246.2,82.7c-0.2,1.4,0.8,2.2,3,2.5c5.8,0.7,8.7,1.1,14.5,2.1c2.3,0.4,3.6,0,3.8-1.3
	c0.2-1-0.2-1.9-1.1-2.6c-0.4-0.4-1.3-0.7-2.5-0.9c-0.7-0.2-1-0.6-0.9-1.3c2.7-16.7,5.5-33.5,8.2-50.2c0.1-0.7,0.7-1,1.6-0.9
	c1.6,0.2,2.8,0.3,3.5,0.1c1.3-0.3,2-0.9,2.2-2c0.2-1.3-1-2.2-3.8-2.7c-7.1-1.2-10.7-1.7-17.9-2.6c-2.8-0.3-4.3,0.2-4.4,1.5
	c-0.1,1.1,0.4,1.9,1.6,2.5c0.6,0.3,1.6,0.6,3.2,0.8c1.1,0.2,1.6,0.7,1.5,1.6c-2.1,16.6-4.2,33.2-6.3,49.8c-0.1,0.5-0.3,0.8-0.6,1
	c-0.4,0.2-0.9,0.2-1.7,0.1C247.7,80.1,246.4,80.9,246.2,82.7z M274.6,86.4c-0.1,2.4,1.3,3.9,4,4.5c1.8,0.4,3.3,0.2,4.4-0.7
	c1.2-0.9,2-2.3,2.5-4.4c3-12.3,5.6-23.7,7.5-34.2c0.4-2.1,0.6-3.4,0.7-4.1c0.1-0.7,0.3-1.5,0.5-2.4c0.2-0.8,0.4-1.2,0.5-1.2
	c0.3,0.1,0.5,0.9,0.7,2.5c1.7,15,2.8,26.4,3.9,34.2c0.3,1.8,1.1,2.9,2.6,3.3c1.3,0.4,2.5,0,3.7-1.3c7.7-8.3,15.1-16.5,22-24.8
	c0.9-1.1,1.5-1.6,1.8-1.4c0.3,0.1,0.3,0.6,0.1,1.3c-0.6,1.8-1.7,4.3-3.1,7.8c-2.8,6.7-6.6,16.9-11.5,30.4c-0.6,1.6-0.8,2.9-0.7,3.9
	c0.1,1,0.8,1.7,1.9,2.2c2.3,0.9,4.1-0.3,5.4-3.6c6.1-15.6,12.2-31.3,18.3-46.9c0.8-2,1-3.8,0.8-5.5c-0.4-2.3-2-4-4.8-5.1
	c-1.2-0.5-2.6-0.5-4.2-0.3c-1.5,0.3-3,1.2-4.4,2.8c-7.4,8.6-14.9,17.3-22.4,26c-0.3-3.5-0.6-7.1-0.9-10.9c-0.5-5.8-1.3-13-2.6-21.5
	c-0.7-4.6-3.3-7.5-7.7-8.5c-4.8-1.1-7.7,1.2-8.8,6.7c-3.3,15.9-6.6,31.9-9.9,47.8C274.7,84.3,274.6,85.4,274.6,86.4z M336,96.5
	c-1.6,5.1-1,9.4,1.8,12.9c1.6,2,4.2,3.8,7.8,5.6c4.1,2.1,7.2,3.3,9.2,3.6c2,0.3,3.4-0.2,4.1-1.3c0.3-0.6,0.3-1.2,0-1.8
	c-0.4-0.6-0.9-1.1-1.6-1.4c-1-0.6-2.1-1.1-3.2-1.6c-1.1-0.5-2.1-1-3.2-1.5c-3.3-1.7-5.2-3.6-5.6-5.7c-0.3-1.3,0.1-2.9,0.9-4.8
	c0.3-0.7,0.5-1,0.8-1.7c0.5-1,1.4-1.2,2.8-0.6c3.5,1.8,5.2,2.7,8.6,4.6c1,0.5,1.9,0.7,2.7,0.6c0.8-0.1,1.3-0.4,1.6-1
	c0.6-1,0.5-2-0.1-2.9c-0.5-0.7-1.5-1.5-2.9-2.3c-1.2-0.6-2.4-1.2-3.6-1.8c-1.2-0.6-2.5-1.2-3.7-1.7c-0.8-0.4-1.3-0.8-1.6-1.4
	c-0.2-0.5-0.1-1.3,0.5-2.5c5.1-10.5,7.6-15.8,12.7-26.3c1-2,2.6-2.4,4.8-1.3c1.2,0.6,2.4,1.2,3.6,1.9c1.2,0.7,2.4,1.3,3.6,1.9
	c1.7,0.9,3.1,1.3,4.2,1.2c1.1-0.1,1.8-0.4,2.1-1c0.9-1.6,0-3.2-2.5-4.9c-1-0.7-2-1.2-2.9-1.7c-5.2-2.7-7.8-4-13.1-6.5
	c-3.9-1.8-6.8-1.6-8.8,0.4c-0.9,1-1.8,2.3-2.5,3.9c-5.5,12.7-8.3,19-13.9,31.7C337.6,91.8,336.7,94.2,336,96.5z M405.5,75.7
	c-5.3-3.4-10.2-4.8-14.7-4.4c-2.3,0.2-4.4,0.9-6.3,2c-2.6,1.6-4.7,4-6.4,7c-2.4,4.4-3.2,9.1-2.5,14.3c0.5,3.5,1.7,7.9,3.4,13.1
	c0.6,1.9,1.1,3.7,1.6,5.4c0.9,3.7,0.7,6.6-0.6,8.5c-2,3-4.5,3.5-7.6,1.5c-2.8-1.8-3.8-4.1-2.9-7.2c0.3-1.3,0.8-2.5,1.4-3.6
	c1.1-1.8,0.8-3.1-0.9-4.1c-0.9-0.5-1.8-0.6-2.7-0.3c-0.9,0.4-1.7,1-2.2,2c-2,3.5-2.7,6.8-2.2,9.7c0.6,3.7,2.9,6.7,6.7,9.1
	c4.4,2.8,8.4,3.8,12.4,3.1c3-0.6,5.5-2.2,7.5-5c2.2-3,2.9-6.9,2.2-11.7c-0.4-2.2-0.9-4.4-1.6-6.7c-1.7-5.5-2.8-9.9-3-13.1
	c-0.3-3.5,0.4-6.6,2.1-9.3c1.7-2.8,3.8-4.7,6.1-5.7c2.8-1.1,5.7-0.8,8.6,1.1c3.9,2.6,5.3,6.2,4.1,10.6c-0.6,2-1.5,3.9-2.8,5.8
	c-1.8,2.5-3.8,4.8-6.1,6.8c-0.3,0.3-0.6,0.6-0.8,0.9c-0.9,1.3-0.5,2.4,1,3.5c1.7,1.2,3.8,0.8,6.3-1.2c1.8-1.4,3.7-3.4,5.5-5.9
	C418,91.8,416.4,82.7,405.5,75.7z M153.9,147.8c-0.3,0.2-0.7,0.3-1.3,0.3c-1.8,0-2.7,0.8-2.7,2.3c0,1.2,0.8,1.8,2.5,1.8h11.5
	c1.8,0,2.7-0.5,2.7-1.6c0-0.9-0.4-1.5-1.2-1.9c-0.4-0.2-1.1-0.4-2.1-0.4c-0.6,0-0.9-0.4-0.9-0.9V105c0-0.6,0.3-0.9,1-0.9
	c1.1,0,1.8-0.2,2.3-0.4c0.8-0.4,1.2-1.1,1.2-1.9c0-1.1-0.9-1.6-2.7-1.6h-11.6c-1.8,0-2.7,0.5-2.7,1.6c0,0.9,0.4,1.5,1.2,1.9
	c0.4,0.2,1.1,0.3,2.1,0.4c0.7,0,1.1,0.4,1.1,1.2v41.7C154.3,147.4,154.1,147.7,153.9,147.8z M193.4,101.1c-0.7-1.1-1.8-1.6-3.4-1.6
	c-1.6,0-2.7,0.5-3.3,1.6c-0.5,0.8-0.7,2.3-0.7,4.4v37.3c0,3.3,0.6,5.8,1.9,7.5c1.3,1.7,3.5,2.5,6.7,2.5c3,0,5.4-0.2,7.1-0.7
	c2.3-0.6,3.5-1.6,3.5-2.9c0-0.6-0.2-1-0.7-1.3c-0.4-0.3-0.9-0.4-1.5-0.4c-0.7,0-1.4,0-2,0.1c-0.6,0.1-2,0.1-4.2,0.1
	c-1.7,0-2.5-1.1-2.5-3.2v-39.3C194.4,103.5,194,102.1,193.4,101.1z M221.7,104.1c1.1,0,1.8-0.2,2.3-0.4c0.8-0.4,1.2-1.1,1.2-1.9
	c0-1.1-0.9-1.6-2.7-1.6h-11.6c-1.8,0-2.7,0.5-2.7,1.6c0,0.9,0.4,1.5,1.2,1.9c0.4,0.2,1.1,0.3,2.1,0.4c0.7,0,1.1,0.4,1.1,1.2v41.7
	c0,0.4-0.1,0.7-0.4,0.9c-0.3,0.2-0.7,0.3-1.3,0.3c-1.8,0-2.7,0.8-2.7,2.3c0,1.2,0.8,1.8,2.5,1.8h11.5c1.8,0,2.7-0.5,2.7-1.6
	c0-0.9-0.4-1.5-1.2-1.9c-0.4-0.2-1.1-0.4-2.1-0.4c-0.6,0-0.9-0.4-0.9-0.9V105C220.8,104.4,221.1,104.1,221.7,104.1z M249.7,118.9
	c2.1-3.9,3.8-7.3,5-10.3c1.3-3,1.9-5.4,1.9-7.1c0-0.6-0.2-1-0.5-1.4c-0.4-0.4-0.9-0.6-1.5-0.6c-0.9,0-1.6,0.2-2.1,0.7
	c-0.5,0.4-1,1.3-1.5,2.5c-3,7.5-6.8,16.2-11.4,26.1c-0.3,0.7-0.6,1.1-0.8,1.1c-0.2,0-0.3-0.4-0.3-1.3v-23.3c0-1.6-0.3-2.9-0.9-3.9
	c-0.7-1.2-1.9-1.8-3.5-1.8c-1.4,0-2.5,0.4-3.1,1.3c-0.6,0.8-0.9,2.4-0.9,4.7v41.3c0,1,0.1,2,0.2,2.9c0.3,2.1,1.6,3.1,3.8,3.1
	c1.8,0,3-0.7,3.7-2.2c0.5-0.9,0.7-2.1,0.7-3.5v-7.9c0-0.9,0.1-1.3,0.4-1.3c0.2,0,0.5,0.2,0.9,0.7c4.7,6,8.2,10.1,10.3,12.3
	c1.3,1.3,2.5,1.9,3.6,1.9c0.7,0,1.4-0.2,2-0.6c0.6-0.4,0.9-1,0.9-1.7c0-1-0.6-2.2-1.9-3.5c-3.9-4.2-7.9-8.4-11.7-12.6
	c-0.5-0.5-0.7-1-0.7-1.4c0-0.4,0.1-0.9,0.4-1.4C245.3,127,247.7,122.8,249.7,118.9z M271.3,105c0.9,0,1.7,0,2.6,0.1
	c0.9,0,1.8,0.1,2.6,0.1c1.2,0,2.1-0.2,2.7-0.7c0.6-0.5,0.9-1,0.9-1.6c0-1.5-0.9-2.3-2.8-2.6c-0.8-0.1-1.5-0.1-2.1-0.1h-9.2
	c-2.7,0-4.4,1.1-5,3.3c-0.3,1-0.4,2.3-0.4,3.8v28.7c0,2.2,0.1,4.3,0.3,6.3c0.4,4.4,2.2,7.5,5.3,9.2c1.7,0.9,4.2,1.4,7.3,1.4
	c3.6,0,6.1-0.3,7.5-0.9c1.5-0.6,2.2-1.5,2.2-2.6c0-0.6-0.2-1-0.7-1.3c-0.4-0.3-1-0.4-1.6-0.4c-0.9,0-1.8,0-2.7,0.1
	c-0.9,0.1-1.8,0.1-2.7,0.1c-2.8,0-4.7-0.7-5.7-2.1c-0.6-0.9-0.9-2.2-0.9-3.9v-1.6c0-1,0.5-1.4,1.6-1.4l7.1,0.1
	c0.8,0,1.5-0.2,1.9-0.6c0.5-0.4,0.7-0.9,0.7-1.4c0-1-0.3-1.6-1-2.1c-0.6-0.3-1.4-0.5-2.6-0.5c-1,0-1.9,0-2.9,0.1
	c-1,0-1.9,0.1-2.9,0.1c-0.6,0-1.1-0.1-1.4-0.4c-0.3-0.3-0.5-1-0.5-2v-24.3C268.8,105.9,269.7,105,271.3,105z M112.3,178.5
	c0.2,0.6,0.9,1.1,2.1,1.3c1.5,0.3,2.6,0.3,3.3,0.1c0.7-0.3,1.3-0.8,1.7-1.7c1.6-3.2,1.7-6.2,0.4-9c-1.3-2.9-3.9-4.8-7.8-5.7
	c-1.9-0.5-3.8-0.7-5.6-0.6c-1.8,0.1-3.6,0.4-5.1,0.8c-1.6,0.4-3,1-4.3,1.6c-1.3,0.6-2.3,1.2-3.2,1.7c-2.5,1.8-4.9,3.7-7.1,5.7
	c-2.2,2-4,4.3-5.5,6.8c-3.9,6.3-6.7,12.9-8.4,19.6c-1.7,6.8-2.4,13.8-2.2,21.1c0.2,4.2,0.7,8.3,1.5,12.3c0.8,4,2.3,7.8,4.5,11.5
	c1.3,2.1,2.7,4.1,4.2,5.9c1.5,1.8,3.5,3.5,5.8,4.8c2.9,1.7,5.8,2.7,8.9,3.2c3.1,0.4,6,0.3,8.7-0.3c2.7-0.6,5.3-1.8,7.6-3.6
	c2.3-1.7,4.2-3.9,5.7-6.6c1.8-3.2,2.8-6.4,3-9.6c0.2-3.2-0.1-6.5-0.8-9.9c-0.5-2.1-1.7-3.4-3.6-4c-1.9-0.5-3.9,0-6,1.6
	c0.7,2.7,1.1,5.5,1,8.2c-0.1,2.7-0.5,5.3-1.3,7.8c-0.8,2.4-2,4.6-3.6,6.5c-1.6,1.9-3.5,3.3-5.7,4.3c-0.5-0.3-1.6-1.1-3.1-2.5
	c-1.5-1.3-3.1-3.3-4.8-5.9c-1.7-2.6-3.2-6-4.4-10.2c-1.3-4.2-2-9.3-2.1-15.3c-0.1-5.5,0.4-11.5,1.6-17.9c1.2-6.4,2.9-12.3,5.1-17.4
	c0.6-1.4,1.5-2.9,2.5-4.6c1.1-1.7,2.3-3.3,3.6-4.8c1.4-1.5,2.8-2.9,4.4-4c1.5-1.1,3-1.8,4.5-2.1c1.9,0.6,3.1,1.8,3.6,3.6
	c0.5,1.8,0.7,3.5,0.6,5.1C112,177.2,112.1,177.9,112.3,178.5z M171.1,216.7c0.1-0.7,0.2-1.4,0.3-2.1c0.2-1.1,0.3-2.2,0.6-3.4
	c1.2-6.5,2.7-12.9,4.6-19c1.9-6.1,4.4-12.2,7.4-18.2c1.3-2.4,2.7-4.8,4.2-7.1c1.5-2.3,3.2-4.5,5.1-6.6c1.6-1.6,3.3-3,5.2-4.3
	c2.5-1.7,5.3-2.2,8.4-1.6c2.3,0.6,3.7,2.5,4.3,5.5c0.2,1.5,0.3,3.1,0.2,4.8c-0.1,1.7-0.3,3.3-0.7,4.7c-1.1,4-2.1,7.7-3.2,11.1
	c-1.1,3.4-2.4,6.6-3.9,9.7c-1.5,3.1-3.2,6.2-5.1,9.2c-2,3-4.3,6-6.9,9.1c-0.2,0.2-0.6,0.6-1,1c-0.5,0.5-1,1-1.6,1.4
	c-0.6,0.5-1.1,0.9-1.6,1.3c-0.5,0.4-0.8,0.7-1,0.8c-0.1,0.4-0.2,0.8-0.3,1.3c-0.1,0.4-0.2,0.9-0.2,1.3c-0.1,0.5-0.1,1-0.1,1.7
	c1.2,0.4,2.5,0.8,4,1.3c1.5,0.4,3.2,0.8,4.9,1.1c1.7,0.3,3.5,0.5,5.1,0.6c1.7,0.1,3.3-0.2,4.8-0.7c2-0.6,4.1-1.5,6.2-2.7
	c0.1,0,0.1-0.1,0.2-0.1c0.1-0.8,0.3-1.6,0.4-2.4c0.2-1.1,0.3-2.2,0.6-3.4c1.2-6.5,2.7-12.9,4.6-19c1.9-6.1,4.4-12.2,7.4-18.2
	c1.3-2.4,2.7-4.8,4.2-7.1c1.5-2.3,3.2-4.5,5.1-6.6c1.6-1.6,3.3-3,5.2-4.3c2.5-1.7,5.3-2.2,8.4-1.6c2.3,0.6,3.7,2.5,4.3,5.5
	c0.2,1.5,0.3,3.1,0.2,4.8c-0.1,1.7-0.3,3.3-0.7,4.7c-1.1,4-2.1,7.7-3.2,11.1c-1.1,3.4-2.4,6.6-3.9,9.7c-1.5,3.1-3.2,6.2-5.1,9.2
	c-2,3-4.3,6-6.9,9.1c-0.2,0.2-0.6,0.6-1,1c-0.5,0.5-1,1-1.6,1.4c-0.6,0.5-1.1,0.9-1.6,1.3c-0.5,0.4-0.8,0.7-1,0.8
	c-0.1,0.4-0.2,0.8-0.3,1.3c-0.1,0.4-0.2,0.9-0.2,1.3c-0.1,0.5-0.1,1-0.1,1.7c1.2,0.4,2.5,0.8,4,1.3c1.5,0.4,3.2,0.8,4.9,1.1
	c1.7,0.3,3.5,0.5,5.1,0.6c1.7,0.1,3.3-0.2,4.8-0.7c2-0.6,4.1-1.5,6.2-2.7c0.3-0.1,0.5-0.3,0.7-0.4c1.1-3.2,2.6-6.3,4.5-9.4
	c0.8-1.2,1.7-2.3,2.6-3.5c0.9-1.2,1.9-2.2,3.1-3.2c3.5-3,7.4-4.3,11.7-4c1.6,0.1,2.8,0.5,3.6,1.2c0.8,0.7,1.3,1.8,1.7,3.2
	c0.7,3.7,0.4,7.6-1.1,11.6c-1,2.4-2.3,4.4-4.1,5.8c-1.8,1.4-4.1,2.2-7,2.5h-3.2c-0.2,0.6-0.3,1.3-0.4,1.9c-0.1,0.6-0.1,1.3-0.2,1.9
	c-0.3,2.5-0.4,5-0.2,7.4c0.2,2.4,0.8,4.8,1.9,7.2c0.8,2.1,2.2,3.9,4,5.2c1,0.7,2,0.9,3.1,0.6c1.1-0.4,2.1-0.9,3.1-1.7
	c2.2-1.9,4.8-5.5,7.8-10.8c-0.1-3.7,0.3-7.3,1.3-10.9c1-3.5,2.3-7,4-10.4c1-2,2-3.9,3.2-5.8c1.2-1.8,2.6-3.6,4.2-5.3
	c1.2-1.3,2.4-2.4,3.8-3.5c1.4-1.1,2.9-1.9,4.4-2.5c3.1-1.2,6.1-1.4,9.2-0.8c3.1,0.6,4.8,2.4,5.2,5.4c0.1,0.6,0.2,1.3,0.2,1.9
	c0,0.6,0,1.3,0,1.9c-0.5,4.6-2,8.9-4.3,12.7c-3.1,4.6-7.7,7.2-13.8,7.8h-1.1h-1.3c-0.6,3-1.1,5.9-1.3,8.7c-0.3,2.9-0.1,5.7,0.6,8.6
	c0.4,1.8,1.1,3.5,2.1,5c1,1.5,2.2,2.9,3.7,4.2c0.6,0.6,1.4,0.8,2.4,0.5c1-0.3,1.8-0.7,2.6-1.3c0.8-0.5,1.6-1.1,2.5-1.7
	c1.8-1.5,3.4-3.2,4.8-5.1c1.4-1.9,2.6-3.8,3.8-5.7c2.3-3.5,4.4-7,6.1-10.5c1.7-3.5,3.5-7.1,5.3-10.9c0.5-1.1,1.2-1.8,1.9-2.4
	c0.7-0.5,1.6-0.6,2.7-0.3c1.3,0.4,1.7,1.4,1.4,3c-0.1,0.8-0.4,1.7-0.8,2.7c-0.3,0.8-0.6,1.5-0.7,2c-0.2,0.5-0.5,1.1-0.9,2
	c-1.7,3.7-3.5,7.3-5.3,10.9c-1.8,3.5-4,6.9-6.4,10.2c-1.2,1.5-2.4,3-3.8,4.6c-1.4,1.6-2.9,3-4.4,4.1c-3.5,2.4-7.4,3.5-11.7,3.2
	c-4.3-0.3-8.1-1.8-11.4-4.5c-3.4-3-5.7-6.3-7-10c-0.3,0.4-0.6,0.8-0.9,1.3c-0.3,0.4-0.6,0.8-0.9,1.1c-1.7,2.4-3.7,4.2-6,5.2
	c-2.3,1.1-4.7,1.6-7.1,1.7c-2.4,0.1-4.8-0.4-7.1-1.3c-2.3-0.9-4.3-2.1-5.9-3.7c-1.4-1.4-2.5-2.9-3.2-4.4c-0.8-1.6-1.4-3.3-1.8-5.1
	c-1-4.2-1.1-8.2-0.6-12c-0.4,0.2-0.7,0.3-1.1,0.5c-2.2,0.9-4.4,1.5-6.7,1.9c-2.3,0.4-4.6,0.3-6.9-0.1c-0.1,0-0.4-0.1-0.9-0.2
	c-0.5-0.1-1-0.2-1.6-0.3c-0.6-0.1-1.1-0.2-1.7-0.4c-0.5-0.2-0.8-0.2-1-0.2c0.2,0.5,0.5,1.1,1,1.7c3.5,5.3,6.4,10.7,8.9,16.3
	c2.4,5.6,4.1,11.6,4.9,17.9c0.4,2.7,0.6,5.4,0.6,8.1c0,2.6-0.4,5.3-1.3,7.9c-0.2,0.7-0.5,1.6-0.9,2.5c-0.4,0.9-0.8,1.6-1.2,2.1
	c-1.1,1.7-2.1,2.9-3.2,3.7c-1.1,0.8-2.7,1.3-4.7,1.5c-5.5,0.3-10.2-1.6-14.1-5.7c-3.2-3.7-5.5-8-7-13c-0.8-2.7-1.5-5.5-2-8.3
	c-0.5-2.8-0.8-5.6-1-8.5c-0.4-3.7-0.6-7.4-0.6-11.2c0-3.7,0.1-7.5,0.3-11.2c0-1.2,0.1-2.3,0.2-3.3c0.1-0.6,0.1-1.3,0.2-2
	c-0.5,0.2-0.9,0.4-1.4,0.6c-2.2,0.9-4.4,1.5-6.7,1.9c-2.3,0.4-4.6,0.3-6.9-0.1c-0.1,0-0.4-0.1-0.9-0.2c-0.5-0.1-1-0.2-1.6-0.3
	c-0.6-0.1-1.1-0.2-1.7-0.4c-0.5-0.2-0.8-0.2-1-0.2c0.2,0.5,0.5,1.1,1,1.7c3.5,5.3,6.4,10.7,8.9,16.3c2.4,5.6,4.1,11.6,4.9,17.9
	c0.4,2.7,0.6,5.4,0.6,8.1c0,2.6-0.4,5.3-1.3,7.9c-0.2,0.7-0.5,1.6-0.9,2.5c-0.4,0.9-0.8,1.6-1.2,2.1c-1.1,1.7-2.1,2.9-3.2,3.7
	c-1.1,0.8-2.7,1.3-4.7,1.5c-5.5,0.3-10.2-1.6-14.1-5.7c-3.2-3.7-5.5-8-7-13c-0.8-2.7-1.5-5.5-2-8.3c-0.5-2.8-0.8-5.6-1-8.5
	c-0.4-3.7-0.6-7.4-0.6-11.2c0-3.7,0.1-7.5,0.3-11.2c0-1.2,0.1-2.3,0.2-3.3c0.1-0.9,0.2-1.8,0.3-2.7c0,0-0.1,0-0.1,0
	c-3.1,0.8-6.1,1.3-9,1.3c0,0.3-0.1,1-0.3,2.1c-0.2,1.1-0.5,2.4-0.8,3.8c-0.3,1.4-0.7,2.9-1,4.4c-0.4,1.5-0.7,2.7-1,3.6
	c-0.8,2.3-2,4.6-3.6,7c-1.5,2.3-3.5,4.1-5.9,5.2c-1.9,0.8-4,1.3-6.3,1.3c-2.3,0.1-4.4-0.4-6.3-1.3c-1.1-0.5-2.1-1.2-3.2-2.1
	c-1.1-0.8-2-1.7-2.6-2.7c-1.4-2.1-2.4-4.4-3-6.7c-0.6-2.4-1.1-4.8-1.3-7.2c-0.2-3.1-0.1-6.1,0.4-9.2c0.5-3.1,1.3-6,2.6-8.9
	c0.7-1.6,1.6-3.3,2.7-5.1c1.2-1.7,2.4-3.2,3.8-4.4c1.4-1.3,3.2-2,5.4-2.2c0.1-0.7,0.2-1.4,0.2-1.9c0-0.5,0-1.1,0-1.6
	c0.3-4.1,2.3-6.6,5.9-7.4c4.5-1.2,7.9,0.1,10,3.6c1.4,2.1,2.4,4.4,3.2,6.8c0.7,2.4,1.2,4.9,1.4,7.3c0.2,1.7,0.3,3.4,0.3,5.1
	c0,1.7,0.1,3.4,0.2,5.2c0.5,0.1,1.7,0.1,3.5,0c1.8-0.1,3.5-0.5,5.2-1.3C170.7,216.9,170.9,216.8,171.1,216.7z M154.9,221.9
	c-3.1-1.1-5.6-2.9-7.5-5.5c-2-2.6-3.7-5.3-5.1-8.1c-0.3,0.3-0.5,0.5-0.5,0.6c-1.8,5-2.9,9.9-3.3,14.8c-0.4,4.9-0.1,9.9,1.1,15
	c0.4,1.6,1,3.1,1.6,4.5c0.6,1.4,1.5,2.7,2.7,3.9c1.2-0.4,2.1-1,2.9-1.6c0.7-0.6,1.5-1.5,2.4-2.7c1.2-1.9,2.1-3.9,2.9-5.9
	c0.7-2.1,1.4-4.1,1.9-6.3c0.3-1.7,0.6-3.1,0.8-4.3C154.8,225.2,154.9,223.7,154.9,221.9z M155.1,210.1c-0.2-1.7-0.5-3.5-1-5.4
	c-0.5-1.9-1.1-3.8-1.8-5.7c-0.7-1.9-1.6-3.7-2.7-5.4c-0.8,1.6-1.3,3.5-1.3,5.6c0,2.2,0.3,4.3,0.8,6.3c0.5,2.1,1.3,3.9,2.4,5.5
	c1.1,1.6,2.3,2.8,3.6,3.4C155.3,213.2,155.3,211.8,155.1,210.1z M298.3,219.9c1.2-0.2,2.3-0.7,3.5-1.3c1.2-0.7,2.1-1.5,2.9-2.3
	c2.1-2.2,3.6-4.5,4.4-6.9c0.8-2.4,1.2-5.1,1.2-8.2c0-0.5,0-1-0.1-1.5c-0.1-0.5-0.2-0.9-0.6-1.3c-1.1,0.7-2.2,2-3.5,3.7
	c-1.3,1.7-2.5,3.7-3.6,5.9c-1.1,2.2-2.1,4.3-2.9,6.5C298.8,216.6,298.4,218.4,298.3,219.9z M263.9,217.8c1.5,0.2,2.6,0.1,3.5-0.5
	c0.8-0.5,1.6-1.3,2.2-2.2c0.8-1.2,1.5-2.4,1.8-3.7c0.4-1.3,0.7-2.7,0.9-4c0.2-1.8-0.1-3.5-0.8-5.2c-1.8,2.5-3.3,5.1-4.6,7.6
	S264.6,215,263.9,217.8z M227.8,204c0.2-0.1,0.8-1,1.9-2.6c1.1-1.6,2.2-3.6,3.6-5.9c1.3-2.3,2.6-4.6,4-7.1c1.3-2.5,2.3-4.6,3.1-6.4
	c1.1-2.5,2-5,2.9-7.5c0.8-2.5,1.5-5.1,2.1-7.8c0.3-1.3,0.5-2.5,0.5-3.7c0-1.2-0.3-2.7-1-4.4c-0.5,0.5-1.1,1.1-1.6,1.8
	c-0.5,0.7-1,1.3-1.4,2c-1.5,2.4-2.9,5.1-4.3,7.9c-1.4,2.9-2.5,5.7-3.5,8.4c-2.6,7.7-4.3,13.7-4.9,17.8
	C228.4,200.7,228,203.2,227.8,204z M224.3,242.9c0.1,3.9,0.4,7.8,0.8,11.7c0.2,2.4,0.5,4.8,0.9,7.1c0.4,2.3,0.9,4.6,1.7,6.9
	c0.4,1.9,1.2,3.9,2.2,5.9c0.6,1.4,1.4,2.5,2.2,3.4c0.8,0.9,1.2,1.4,1.1,1.5c0.6-1.2,1.1-2.2,1.4-3c0.8-2,1.4-4,1.7-6
	c0.3-2,0.3-4.1,0.2-6.2c-0.3-6.2-1.4-12.1-3.2-17.7c-1.8-5.6-4.4-11.1-7.5-16.5c-0.1-0.2-0.5-0.6-1.1-1.3c0,0.5,0,1-0.1,1.3
	c-0.1,0.4-0.1,0.8-0.1,1.2C224.2,235,224.2,239,224.3,242.9z M187.9,204c0.2-0.1,0.8-1,1.9-2.6c1.1-1.6,2.2-3.6,3.6-5.9
	c1.3-2.3,2.6-4.6,4-7.1c1.3-2.5,2.3-4.6,3.1-6.4c1.1-2.5,2-5,2.9-7.5c0.8-2.5,1.5-5.1,2.1-7.8c0.3-1.3,0.5-2.5,0.5-3.7
	c0-1.2-0.3-2.7-1-4.4c-0.5,0.5-1.1,1.1-1.6,1.8c-0.5,0.7-1,1.3-1.4,2c-1.5,2.4-2.9,5.1-4.3,7.9c-1.4,2.9-2.5,5.7-3.5,8.4
	c-2.6,7.7-4.3,13.7-4.9,17.8C188.5,200.7,188.1,203.2,187.9,204z M184.4,242.9c0.1,3.9,0.4,7.8,0.8,11.7c0.2,2.4,0.5,4.8,0.9,7.1
	c0.4,2.3,0.9,4.6,1.7,6.9c0.4,1.9,1.2,3.9,2.2,5.9c0.6,1.4,1.4,2.5,2.2,3.4c0.8,0.9,1.2,1.4,1.1,1.5c0.6-1.2,1.1-2.2,1.4-3
	c0.8-2,1.4-4,1.7-6c0.3-2,0.3-4.1,0.2-6.2c-0.3-6.2-1.4-12.1-3.2-17.7c-1.8-5.6-4.4-11.1-7.5-16.5c-0.1-0.2-0.5-0.6-1.1-1.3
	c0,0.5,0,1-0.1,1.3c-0.1,0.4-0.1,0.8-0.1,1.2C184.3,235,184.3,239,184.4,242.9z M348.1,214.1c-0.5-0.5-0.6-1.1-0.4-1.7
	c0.1-0.4,0.3-0.8,0.5-1.2c0.8-1.5,1.7-2.9,2.5-4.4c2.4-4.1,4.1-8.5,5.2-13.2c0.5-1.9,0.9-3.8,1.1-5.8c0.2-2.2,0.1-4.3-0.3-6.4
	c-0.1-0.7-0.5-1.1-1.2-1.2c-0.3-0.1-0.5-0.1-0.8-0.1c-3.1-0.1-6.2-0.2-9.3-0.2c-2.8,0-5.6-0.1-8.4-0.1c-5,0-10.1,0.2-15.1,0.2
	c-3.1,0-6.1,0-9.2,0c-1,0-2.1-0.2-3.1-0.3c-0.3,0-0.6-0.2-0.8-0.3c-0.5-0.4-0.6-1-0.1-1.4c0.3-0.3,0.7-0.5,1.2-0.6
	c1.3-0.3,2.6-0.3,3.9-0.3c3-0.1,6-0.3,9-0.3c6.8-0.1,13.5-0.1,20.3-0.2c2.9,0,5.8-0.2,8.7-0.3c1.6,0,3.3-0.1,4.9,0
	c0.5,0,1,0.1,1.4,0.3c1.3,0.4,2.1,1.3,2.6,2.5c0.5,1,0.7,2.1,0.8,3.2c0.1,0.8,0.1,1.7,0.2,2.5c0,0.1,0,0.3,0,0.4
	c0.6-0.1,1.1-0.1,1.6-0.2c4.6-0.4,9.4,2.3,11.1,7.5c1,3,0.8,6-0.3,8.9c-0.5,1.3-1.1,2.5-1.9,3.7c-2,3-4.8,4.8-8.4,5.5
	c-1.2,0.2-2.3,0.1-3.5,0.1c-1.8,0-3.5-0.7-5-1.6c-0.1-0.1-0.2-0.1-0.3-0.2c-0.1,0.2-0.3,0.3-0.4,0.5c-0.9,1.2-1.9,2.3-2.8,3.5
	c-0.5,0.7-1.2,1.1-2,1.4C349.2,214.6,348.6,214.6,348.1,214.1z M357.4,205.1c0.3,0.2,0.6,0.5,0.9,0.7c1,0.6,2.1,0.7,3.2,0.6
	c3.5-0.5,6.1-2.3,7.7-5.5c1.4-2.8,1.3-5.7-0.4-8.4c-0.6-1-1.5-1.8-2.6-2.3c-0.5-0.3-1.1-0.3-1.6-0.3c-1,0-1.9,0.4-2.7,0.9
	c-0.3,0.1-0.4,0.3-0.4,0.6c-0.1,1-0.2,1.9-0.4,2.9c-0.6,3.6-1.8,7-3.4,10.2C357.6,204.7,357.5,204.9,357.4,205.1z M334.2,135.4
	c-1.1-2.3-2.9-3.9-5.3-4.9c-0.3-0.1-0.6-0.2-0.9-0.2c-0.5-0.1-0.9,0.1-1,0.5c-0.2,0.4-0.1,0.8,0.3,1c0.2,0.2,0.5,0.4,0.8,0.6
	c0.2,0.2,0.5,0.3,0.8,0.4c1.4,0.8,2.6,1.9,3.2,3.5c0.3,0.7,0.6,1.3,0.8,2c1.3,4.3,1.4,8.6,0.6,13c-0.5,3-1.6,5.7-3,8.4
	c-0.7,1.3-1.3,2.6-1.9,3.9c-0.7,1.4-1.1,2.8-1.3,4.4c-0.1,1.3,0.1,2.6,0.6,3.8c0.1,0.3,0.3,0.6,0.6,0.8c0.4,0.3,0.9,0.1,0.9-0.4
	c0-0.3,0-0.6,0-0.9c-0.2-1.8-0.2-3.5,0.5-5.1c0.3-0.8,0.6-1.5,1-2.3c0.7-1.3,1.4-2.7,2.1-4c2.3-4.3,3.3-8.9,3.4-13.8
	c-0.2-1.7-0.3-3.4-0.5-5.1C335.6,139.1,335.1,137.2,334.2,135.4z M320.3,161.7c-0.5,1-1,2-1.4,3.1c-0.8,2.2-0.7,4.4,0.2,6.5
	c0.2,0.6,0.5,1.1,1,1.6c0.3,0.3,0.6,0.5,1,0.4c0.4,0,0.7-0.3,0.6-0.7c0-0.1-0.1-0.3-0.2-0.4c-0.8-1.2-1-2.5-1-3.8
	c-0.1-1.3,0.3-2.5,0.9-3.7c0.5-0.9,1-1.9,1.5-2.8c1-1.9,1.9-3.8,2.5-5.8c0.8-2.7,1.3-5.4,1-8.3c-0.3-2.8-1.3-5.2-2.9-7.5
	c-0.2-0.3-0.5-0.5-0.7-0.7c-0.3-0.3-0.7-0.3-1.1-0.1c-0.4,0.2-0.5,0.6-0.4,1c0,0.5,0.3,0.8,0.5,1.2c1.5,2.4,2.4,4.9,2.4,8.5
	c-0.1,1.8-0.6,4.2-1.4,6.5C322,158.5,321.1,160.1,320.3,161.7z M344.3,163.2c-0.1,0-0.1,0-0.2,0.1c-0.4,0.2-0.7,0.5-0.6,0.9
	c0,0.4,0.3,0.8,0.7,0.9c0.3,0.1,0.6,0.1,0.8,0.1c0.7-0.1,1.3-0.3,1.9-0.8c1.1-1.1,1.7-2.4,1.7-4c-0.1-3-2.9-5.1-5.7-4.8
	c-2.8,0.4-5,1.8-6.3,4.4c-1.1,2.2-1.5,4.5-1.6,6.8c0,2.4,0.8,4.4,2.2,6.2c0.1,0.2,0.4,0.4,0.6,0.4c0.6,0.3,1.2-0.1,1.2-0.7
	c0-0.3-0.1-0.6-0.2-0.9c-0.2-0.4-0.5-0.9-0.7-1.3c-0.4-0.7-0.6-1.4-0.7-2.2c0-1.1,0-2.1,0.3-3.2c0.4-1.9,1.2-3.6,2.5-5.1
	c0.7-0.8,1.6-1.3,2.6-1.6c0.9-0.2,1.7-0.1,2.4,0.5c0.7,0.6,1.2,1.5,1,2.5C345.8,162.5,345.2,163,344.3,163.2z M121.1,328.7
	c0.6-0.7,0.9-1.7,0.9-3.1c0-8.1-0.1-15.5-0.4-22.2c-0.1-1.3-0.1-2.2-0.1-2.6c0-0.4-0.1-1-0.1-1.6c0-0.5,0-0.8,0.1-0.8
	c0.1,0,0.3,0.5,0.6,1.4c2.7,9,5,15.8,6.8,20.4c0.4,1,1.1,1.6,1.9,1.6c0.8,0,1.4-0.5,1.8-1.5c2.8-6.5,5.1-12.9,7-19.4
	c0.2-0.8,0.5-1.3,0.6-1.3s0.3,0.3,0.3,0.8c0,1.2,0,3-0.1,5.3c-0.2,4.6-0.3,11.5-0.3,20.6c0,1.1,0.1,1.9,0.4,2.5
	c0.3,0.6,0.8,0.9,1.5,0.9c1.5,0,2.2-1.1,2.2-3.3v-32c0-1.4-0.2-2.5-0.6-3.5c-0.6-1.3-1.6-1.9-3.1-1.9c-0.6,0-1.3,0.2-2,0.7
	c-0.7,0.5-1.2,1.4-1.6,2.6c-2.1,6.7-4.4,13.4-7,20c-0.7-2.1-1.4-4.2-2.1-6.5c-1.1-3.5-2.5-7.7-4.2-12.8c-0.9-2.7-2.5-4.1-4.7-4.1
	c-2.4,0-3.6,1.8-3.6,5.4v31c0,0.7,0.1,1.4,0.2,2.1c0.3,1.5,1.2,2.3,2.9,2.3C119.7,329.8,120.5,329.4,121.1,328.7z M149.6,314.5
	c-0.1-1.9-0.2-3.7-0.2-5.3c0-6.5,1.1-11.6,3.4-15.2c2-3.2,5-4.9,8.9-4.9c5.3,0,8.8,3.5,10.5,10.4c0.6,2.5,0.9,5.3,0.9,8.2
	c0,4.3-0.3,8-1,11.2c-1.5,7.3-5.1,10.9-10.8,10.9c-2.1,0-3.9-0.4-5.3-1.3c-1.4-0.9-2.6-2.1-3.4-3.5c-0.9-1.5-1.6-3.1-2-4.9
	C150.1,318.2,149.8,316.3,149.6,314.5z M156.1,308.6c0,5.5,0.6,9.9,1.8,13c1,2.8,2.5,4.2,4.4,4.2c2.9,0,4.9-2.5,5.9-7.6
	c0.5-2.6,0.8-6.2,0.8-10.9c0-2.6-0.2-5-0.6-7.2c-0.5-2.7-1.3-4.7-2.4-6c-0.9-1.1-2-1.6-3.3-1.6c-2.2,0-3.9,1.4-5,4.2
	C156.7,299.6,156.1,303.6,156.1,308.6z M188.9,316.7c0,0.2,0.6,1,1.9,2.5c0.5,0.6,0.9,1.1,1.3,1.6c3,3.8,4.4,6.1,4.4,7
	c0,0.6-0.2,1.1-0.6,1.5c-0.4,0.3-0.9,0.5-1.6,0.5c-1.2,0-2.4-1-3.7-3c-1.4-2.1-3.1-4.8-5-8.1c-0.4-0.5-0.6-0.7-0.7-0.7
	c-0.2,0-0.2,0.3-0.2,0.9v6.5c0,2.9-1.1,4.4-3.3,4.4c-1,0-1.7-0.2-2.1-0.7c-0.4-0.4-0.7-1-0.8-1.7c-0.1-0.7-0.2-1.4-0.2-2.2v-31.6
	c0-3,1.5-4.6,4.6-4.6c3.5,0,6.5,0.9,9.1,2.6c3,2.1,4.5,5.2,4.5,9.4c0,3.1-0.5,5.8-1.6,8.4c-1.3,3-3.2,5.4-5.7,7
	C189,316.5,188.9,316.6,188.9,316.7z M191,307.7c0.7-2.1,1-4.2,1-6.4c0-1.5-0.2-2.8-0.7-4.1c-1-2.7-2.9-4-5.8-4
	c-0.6,0-0.9,0.3-0.9,0.9v19.5c0,0.6,0.3,0.9,0.8,0.9c0.7,0,1.6-0.7,2.9-2C189.5,311.1,190.4,309.5,191,307.7z M209.2,293.2
	c0.7,0,1.3,0,2,0c0.7,0,1.3,0,2,0c0.9,0,1.6-0.2,2.1-0.6c0.5-0.4,0.7-0.8,0.7-1.2c0-1.1-0.7-1.8-2.2-2c-0.6-0.1-1.1-0.1-1.6-0.1
	h-7.1c-2.1,0-3.3,0.8-3.8,2.5c-0.2,0.8-0.3,1.8-0.3,2.9v21.9c0,1.7,0.1,3.3,0.2,4.8c0.3,3.4,1.7,5.7,4,7c1.3,0.7,3.2,1,5.5,1
	c2.7,0,4.6-0.2,5.8-0.7c1.1-0.5,1.7-1.1,1.7-2c0-0.4-0.2-0.8-0.5-1c-0.3-0.2-0.7-0.3-1.2-0.3c-0.7,0-1.4,0-2,0.1
	c-0.7,0.1-1.3,0.1-2,0.1c-2.1,0-3.6-0.5-4.3-1.6c-0.5-0.7-0.7-1.7-0.7-3v-1.2c0-0.7,0.4-1.1,1.3-1.1l5.4,0.1c0.6,0,1.1-0.1,1.5-0.4
	c0.3-0.3,0.5-0.7,0.5-1.1c0-0.7-0.3-1.3-0.8-1.6c-0.4-0.3-1.1-0.4-2-0.4c-0.7,0-1.5,0-2.2,0.1c-0.7,0-1.5,0.1-2.2,0.1
	c-0.5,0-0.9-0.1-1.1-0.3c-0.2-0.2-0.4-0.7-0.4-1.5v-18.6C207.3,293.9,207.9,293.2,209.2,293.2z M240.4,325.4v-31.5
	c0-0.4,0.2-0.6,0.6-0.6h2.8c0.9,0,1.5-0.2,1.9-0.5c0.4-0.3,0.7-0.7,0.7-1.1c0-0.6-0.2-1.1-0.6-1.4c-0.4-0.3-0.9-0.5-1.5-0.5
	c-0.6-0.1-1.1-0.1-1.6-0.1h-10.9c-0.5,0-1,0-1.6,0.1c-0.6,0.1-1.1,0.3-1.5,0.5c-0.4,0.3-0.6,0.8-0.6,1.4c0,0.4,0.2,0.8,0.7,1.1
	c0.4,0.3,1.1,0.5,1.9,0.5h2.9c0.4,0,0.6,0.2,0.6,0.6v31.3c0,1.3,0.1,2.2,0.3,2.8c0.1,0.4,0.4,0.8,0.7,1.1c0.4,0.5,1.1,0.7,2.1,0.7
	C239.3,329.8,240.4,328.3,240.4,325.4z M265.6,328.9c0.3,0.6,0.8,0.9,1.5,0.9c1.5,0,2.2-1.1,2.2-3.3v-34c0-2.2-0.7-3.3-2.2-3.3
	c-0.7,0-1.3,0.3-1.5,0.9c-0.3,0.6-0.4,1.4-0.4,2.5v22.1c0,0.8-0.4,1.1-1.1,1.1l-8.2,0c-0.7,0-1.1-0.4-1.1-1.2v-21.1
	c0-1.3-0.3-2.4-0.8-3.2c-0.5-0.8-1.4-1.2-2.5-1.2c-1.7,0-2.6,0.8-2.9,2.4c-0.1,0.7-0.2,1.4-0.2,2.2v31.6c0,1.1,0.1,2,0.3,2.6
	c0.2,0.5,0.4,0.9,0.7,1.3c0.4,0.5,1.1,0.7,2.1,0.7c1.3,0,2.2-0.5,2.8-1.6c0.4-0.7,0.6-1.6,0.6-2.8V320c0-0.6,0.4-0.9,1.1-0.9l8.2,0
	c0.7,0,1.1,0.3,1.1,0.9v6.4C265.2,327.5,265.3,328.3,265.6,328.9z M296.1,323.1c0.2,1.3,0.3,2.3,0.3,3.1c0,1-0.1,1.7-0.3,2.2
	c-0.3,0.9-1,1.3-2,1.3c-1.2,0-1.9-0.8-2.1-2.5c-0.2-2.3-0.5-4.6-0.8-7c-0.1-0.8-0.6-1.3-1.5-1.3h-7.3c-0.8,0-1.3,0.5-1.4,1.4
	c-0.1,0.6-0.2,1.4-0.3,2.5c-0.1,1.1-0.2,2.1-0.4,2.9c-0.3,2.6-1.6,3.9-3.9,3.9c-2,0-2.9-1-2.9-3.1c0-0.5,0.2-1.9,0.5-4.4
	c0.3-2.4,0.8-5.7,1.5-9.8c1.1-7,2.4-12.8,3.9-17.4c1.3-4,3.1-6,5.4-6c1.9,0,3.4,1.1,4.6,3.3c0.7,1.4,1.5,3.4,2.2,6
	C293.3,305.2,294.9,313.5,296.1,323.1z M290.3,314.6c0-0.2-0.3-2-0.8-5.4c-1.4-9.2-2.6-13.8-3.5-13.8c-0.6,0-1.7,4.6-3.3,13.7
	c-0.6,3.6-0.9,5.4-0.9,5.6c0,0.7,0.4,1,1.1,1h6.3C289.9,315.7,290.3,315.4,290.3,314.6z M303.1,329.8c2.2,0,3.3-1.5,3.3-4.4v-14.9
	c0-0.8,0.1-1.2,0.3-1.2c0.2,0,1.2,1.5,3,4.6c3.4,5.9,6,10.3,7.8,13.1c0.8,1.3,1.8,2,2.9,2c1.5,0,2.3-0.9,2.3-2.6v-34
	c0-2.2-0.8-3.3-2.3-3.3c-0.7,0-1.2,0.3-1.5,0.9c-0.3,0.6-0.4,1.4-0.4,2.5v26c0,0.8-0.1,1.1-0.3,1.1c-0.2,0-0.5-0.3-0.9-0.9
	l-6.3-10.3c-3.3-5.4-4.9-10.4-4.9-14.9c0-1.4-0.3-2.5-0.9-3.2c-0.6-0.7-1.3-1.1-2.2-1.1c-1.1,0-1.9,0.3-2.3,1
	c-0.5,0.6-0.7,1.8-0.7,3.6v31.6c0,1.8,0.2,3.1,0.7,3.7C301.2,329.5,302,329.8,303.1,329.8z M354.3,305.3c2.7-0.7,5.4-1.4,7.9-2.1
	c2.5-0.8,4.8-1.7,6.7-2.5c3.9-1.6,6.3-3.1,6.3-3.1l-0.1-0.3c0,0-2.9,0.2-7,1.1c-2.1,0.4-4.4,1-6.9,1.8c-2.5,0.8-5.1,1.9-7.7,2.8
	c-5.2,1.9-10.5,3.8-14.4,5.3c-3.9,1.5-6.5,2.5-6.5,2.5l0,0.1l0,0.1c0,0,2.7,0.8,6.7,1.9c4,1.2,9.4,2.6,14.8,4.1
	c2.7,0.7,5.3,1.6,7.9,2.2c2.5,0.6,4.9,1,7,1.2c4.2,0.6,7,0.5,7,0.5l0.1-0.3c0,0-2.6-1.3-6.5-2.6c-2-0.7-4.3-1.4-6.9-2
	c-2.5-0.6-5.3-0.9-8-1.5c-5.5-1-10.9-2.1-15.1-2.8c-2-0.3-3.7-0.6-4.9-0.8c1.2,0,2.9,0,5,0.1c4.2,0.1,9.7,0,15.3,0.1
	c2.8,0,5.6,0.1,8.2,0c2.6-0.1,5-0.4,7.1-0.7c4.2-0.5,6.9-1.3,6.9-1.3l0-0.3c0,0-2.8-0.6-7-0.8c-2.1-0.1-4.5-0.2-7.1-0.1
	c-2.6,0.1-5.4,0.5-8.1,0.7c-5.5,0.5-11.1,0.9-15.3,1.3c-2.1,0.2-3.8,0.4-5,0.5c1.2-0.3,2.8-0.7,4.8-1.2
	C343.6,308.2,348.9,306.7,354.3,305.3z M99.9,308.2c-3.9-1.5-9.1-3.4-14.4-5.3c-2.6-0.9-5.2-2-7.7-2.8c-2.5-0.8-4.9-1.4-6.9-1.8
	c-4.1-0.9-7-1.1-7-1.1l-0.1,0.3c0,0,2.4,1.5,6.3,3.1c1.9,0.8,4.2,1.7,6.7,2.5c2.5,0.8,5.2,1.4,7.9,2.1c5.4,1.5,10.7,2.9,14.8,4
	c2,0.5,3.7,0.9,4.8,1.2c-1.2-0.1-2.9-0.3-5-0.5c-4.2-0.4-9.7-0.8-15.3-1.3c-2.8-0.2-5.5-0.6-8.1-0.7c-2.6-0.1-5,0-7.1,0.1
	c-4.2,0.2-7,0.8-7,0.8l0,0.3c0,0,2.8,0.8,6.9,1.3c2.1,0.3,4.5,0.5,7.1,0.7c2.6,0.1,5.4,0,8.2,0c5.6,0,11.1,0,15.3-0.1
	c2.1,0,3.8-0.1,5-0.1c-1.2,0.2-2.9,0.5-4.9,0.8c-4.1,0.7-9.6,1.8-15.1,2.8c-2.7,0.5-5.5,0.9-8,1.5c-2.5,0.6-4.9,1.3-6.9,2
	c-4,1.3-6.5,2.6-6.5,2.6l0.1,0.3c0,0,2.9,0,7-0.5c2.1-0.3,4.5-0.7,7-1.2c2.5-0.6,5.2-1.5,7.9-2.2c5.4-1.5,10.7-2.9,14.8-4.1
	c4-1.2,6.7-1.9,6.7-1.9l0-0.1l0-0.1C106.4,310.7,103.8,309.7,99.9,308.2z M124.7,283.5c0.7,0.8,1.2,1.9,2.1,2.3
	c0.2,0.1,0.3,0.1,0.5,0.2c1.4,0.3,1.7-2.2,1.9-3.2c0.5-1.9,0.9-4,2.1-5.6c1.2-1.5,2.7-2.7,3.8-4.2c0.7-1,0.9-2.2,1.4-3.3
	c0.6-1.1,0.6-2.9,1-4.1c0.4-1.4,0.8-2.8,1-4.2c0.3-2.1,0.2-4.1-1.4-5.6c-1.3-1.2-3.3-1.8-5-2.2c-1.5-0.4-2.3-0.5-3.6,0.2
	c-1.7,1-3.3,2.2-4.6,3.7c-1,1.2-1.3,2.9-1.6,4.4c-0.4-0.7-1.1-1.2-1.5-1.9c-0.3-0.6-0.5-1-1-1.4c-1.1-0.8-2.5-1.1-3.8-1.4
	c-1.7-0.4-4-0.7-5.7-0.2c-2,0.6-3.4,2-3.8,4c-0.5,2.2,0.3,4.5,1.4,6.4c1,1.7,1.8,3.4,3.2,4.9c1.7,1.8,3.9,3.2,6,4.4
	C120.1,278.3,122.5,280.9,124.7,283.5z M350.3,254.8c-0.3-1.8-1.3-3.1-3-3.8c-1.7-0.7-3.5-1-4.7,0.6c-0.9,1.2-0.9,3.2-0.9,4.7
	c0,2.2-0.1,4.5,0.1,6.8c0.4,3.8,0.5,7.7,1.4,11.4c0.3,1.2,0.5,2.6,1.9,2.8c0.3,0,0.6,0.1,0.9,0.1c1.6,0,3.2-0.4,4.7-0.7
	c2.7-0.6,5.1-1.9,7.6-3.1c2.1-1,3.7-2.1,5.3-3.8c1.1-1.2,2.2-2.8,2.8-4.3c0.6-1.6,1.2-4.5,0.4-6.1c-0.8-1.5-3-2-4.5-2
	c-1.8,0-3.5,0.4-5.3,0.4c-1.7,0-3,0.8-4.4,1.7c-1,0.6-2.2,0.4-2.3-1.1C350.3,257.2,350.5,256,350.3,254.8z M306.6,280.1
	c2.4,2.2,4-0.5,5.1-2.4c0.5-0.9,1-1.7,1.4-2.6c1-1.9,1.9-4,3.4-5.6c0.8-0.9,1.3-1.5,1-2.7c-0.3-1-1.9-2.4-2.9-2.4
	c-1.9-0.1-3.5,3.4-5.3,3.7c-0.4,0.1-0.8,0-1.3-0.4c-0.7-0.5-1.1-1.4-1.8-2c-1.6-1.3-5.2-2.6-6.5-0.3c-1.8,3.2,0.5,6.8,2.5,9.3
	C303.6,276.4,304.8,278.5,306.6,280.1z M159.2,280.3c0.5-0.9,1-1.7,1.4-2.6c1-1.9,1.9-4,3.4-5.6c0.8-0.9,1.3-1.5,1-2.7
	c-0.3-1-1.9-2.4-2.9-2.4c-1.9-0.1-3.5,3.4-5.3,3.7c-0.4,0.1-0.8,0-1.3-0.4c-0.7-0.5-1.1-1.4-1.8-2c-1.6-1.3-5.2-2.6-6.5-0.3
	c-1.8,3.2,0.5,6.8,2.5,9.3c1.4,1.9,2.6,3.9,4.4,5.5C156.4,284.9,158.1,282.3,159.2,280.3z M381.2,228.5c0.5-0.5,2.9-2.4,2.9-3.1
	c0-1.8-5.2-1-6.5-0.9c-1.6,0.2-4.5,0.7-5.7-0.1c-1.3-0.8-1.9-2.7-2.9-3.8c-1-1.2-2.2-2.2-3.2-3.5c-1.7-2.3-2.1-1.5-2.9,1.1
	c-0.6,2-0.7,4.1-1.2,6.1c-0.5,1.9-0.6,3.3-2.5,4c-1.9,0.7-4.7,0.2-6.7,0.3c-0.9,0-3.6-0.2-3.9,1c-0.2,0.7,0.7,1.3,1.8,1.8
	c1.2,0.5,2.7,0.9,3.2,1.2c1.4,0.6,4.5,1.4,5.5,2.5c1.5,1.6,0.5,4.1,0.1,5.9c-0.5,2.5-1.4,5.4-0.6,8c5.1-0.2,5.9-9.1,10.2-9.2
	c2.1,0,5.6,3.2,7.6,4.2c2.1,1,4.9,2.3,7.2,1.7c0.3-4.1-6-6.1-8.1-9.2C373.6,233.5,379,230.6,381.2,228.5z"/>
</svg>
