<?xml version="1.0" encoding="utf-8"?>
<!-- Generator: Adobe Illustrator 18.0.0, SVG Export Plug-In . SVG Version: 6.00 Build 0)  -->
<!DOCTYPE svg PUBLIC "-//W3C//DTD SVG 1.1//EN" "http://www.w3.org/Graphics/SVG/1.1/DTD/svg11.dtd">
<svg version="1.1" id="Layer_1" xmlns="http://www.w3.org/2000/svg" xmlns:xlink="http://www.w3.org/1999/xlink" x="0px" y="0px"
	 viewBox="0 0 432 432" enable-background="new 0 0 432 432" xml:space="preserve">
<path fill="#333333" d="M125.7,380.6c-0.1-0.9-0.3-1.8-0.5-2.8c-0.2-1.3-0.5-2.6-0.9-4c-0.3-1.4-0.8-2.7-1.4-4
	c-0.3-0.9-0.7-1.8-1.1-2.6c-0.4-0.8-0.8-1.7-1.3-2.6c-0.7-1.3-1.5-2.5-2.4-3.6c-0.9-1.1-1.9-2.2-2.9-3.3c-2.1-2.1-4.3-3.3-6.6-3.8
	c-0.6-0.1-1.2-0.2-1.7-0.3c-0.6-0.1-1.2-0.1-1.7-0.3c-1.3-0.1-2.5-0.1-3.6-0.1c-1.2,0.1-2.4,0.3-3.6,0.6c-2.5,0.7-4.8,2-6.7,4
	c-2.6,2.3-4.9,5.2-6.7,8.8c-0.2,0.2-0.4,0.5-0.5,0.9c-0.1,0.3-0.3,0.7-0.5,1c-0.1-0.7-0.2-1.4-0.3-2c-0.1-0.6-0.1-1.2-0.1-1.8
	c0.1-0.9,0.2-1.8,0.2-2.7s0.1-1.8,0.2-2.7c0-1.3,0-2.6,0.1-3.9c0.1-1.3,0.1-2.6,0.1-3.9c0.1-1.1,0.2-2.3,0.2-3.4
	c0-1.1,0.1-2.2,0.2-3.4v-9.1v-0.5v-6.2c-0.2-1.4-0.6-2.5-1.2-3.5c-0.7-1.3-1.6-2.3-2.8-3c-1.2-0.7-2.4-1.3-3.8-1.6
	c-1.7-0.3-3.2-0.5-4.5-0.3c-1.6,0-3,0.2-4.3,0.7v0.9c0.1,1.3,0.2,2.6,0.3,3.9c0.1,1.3,0.1,2.7,0.1,4.1c0,1.3,0,2.6,0,4
	c0,1.4-0.1,2.8-0.2,4.1c0,2.2,0,4.4,0,6.6c0,2.2-0.1,4.4-0.2,6.6c0,1.6,0,3.2-0.1,4.8c-0.1,1.6-0.1,3.2-0.1,4.8
	c-0.1,1.4-0.2,2.7-0.2,4.1c0,1.3-0.1,2.7-0.2,4.1v8.3v1.6c-0.1,0.9-0.2,1.8-0.2,2.7c0,0.9,0,1.8,0,2.7c-0.1,0.9-0.2,1.9-0.2,2.8
	c0,1,0,1.9,0,2.8v4.1c-0.1,1.6-0.2,3.2-0.2,4.7c0,1.6-0.1,3.1-0.2,4.7c0,0.9,0,1.8,0,2.6c0,0.8-0.1,1.6-0.2,2.4
	c-0.1,1.4-0.2,2.8-0.3,4.1c-0.1,1.4-0.1,2.7-0.3,4c-0.1,0.9-0.2,1.8-0.3,2.6c-0.1,0.8-0.1,1.6-0.1,2.4c-0.1,0.3-0.1,0.7-0.1,1
	c0.1,0.3,0.1,0.7,0.1,1c0.3,0.1,0.7,0.2,1,0.3c0.3,0.1,0.7,0.2,1,0.3c2.9,0.7,5.5,0.6,7.9-0.2c1.7-0.5,3.2-1.6,4.3-3.3
	c1-1.5,1.7-3.5,1.9-6V414l0.2,0.2l0.3,0.3c1.4,1.5,2.8,2.9,4.3,4.1c1.5,1.3,3.2,2.2,5.2,2.9c1,0.5,2,0.8,3,1.1c1,0.3,2,0.5,3.2,0.6
	c0.9,0.1,1.8,0.2,2.8,0.3c0.9,0.1,1.8,0.1,2.8,0.1c3.3-0.1,6.5-1.1,9.5-3.1c1.6-1,3-2.3,4.3-3.7c1.3-1.4,2.4-3,3.3-4.6
	c1.5-2.3,2.7-4.7,3.5-7.3c0.9-2.6,1.5-5.2,2-7.9c0.5-2.2,0.7-4.5,0.7-7.1c0-1.1,0-2.2,0-3.3c0-1-0.1-2.1-0.3-3.3
	C126,382.5,125.9,381.6,125.7,380.6z M106.5,384.9c-0.1,1.4-0.2,2.9-0.4,4.4c-0.2,2.8-0.6,5.4-1,7.9c-0.3,2.5-1,5.2-1.9,8.1
	c-0.3,1.2-0.7,2.2-1.1,3.3c-0.4,1-0.9,2.1-1.5,3.1c-0.8,1.4-1.6,2.4-2.4,3.1c-0.7,0.6-1.4,0.9-2.1,1c-1.5,0.2-2.8,0.1-4-0.4
	c-1.2-0.5-2.2-1.2-3.3-2.2c-1.7-1.7-3.1-3.7-4.1-6c-0.6-1-1-2-1.4-2.9c-0.3-0.8-0.5-1.6-0.3-2.4c0-1.5,0-3,0.1-4.4
	c0.1-1.4,0.1-2.9,0.1-4.4l0.5-10.9c0-0.5,0.1-0.9,0.2-1.3c0.1-0.4,0.2-0.8,0.3-1.3c1.1-3.6,2.9-6.9,5.2-10c0.9-1.5,2-2.8,3.3-4.1
	c1.3-1.2,2.6-2.3,4-3.4c0.3-0.3,1-0.7,1.9-1.2c1.7-0.8,3.3-0.4,4.7,1.2c0.7,0.9,1.2,1.8,1.6,2.8c0.6,1.7,1,3.7,1.2,5.9
	c0.2,1.3,0.4,2.5,0.4,3.6c0.1,1.2,0.1,2.3,0.3,3.5v2.6h0.2C106.6,382,106.5,383.4,106.5,384.9z M352.9,375.3c-0.3-0.2-1-0.3-1.9-0.3
	c-0.9,0-1.7,0.5-2.2,1.4c-0.2,0.3-0.6,1-1,1.9c-0.3,1-0.7,2-1,3c-0.3,1-0.7,2-1,3c-0.1,0.5-0.4,1.3-0.9,2.4
	c-0.2,0.7-0.5,1.4-0.7,2.1c-0.2,0.7-0.5,1.4-0.7,2.1c-0.2,0.8-0.5,1.6-0.8,2.2c-0.3,0.7-0.5,1.4-0.8,2.2l-2.6,6.7
	c-0.3,0.8-0.7,1.6-1,2.2c-0.3,0.7-0.7,1.4-1,2.2c-0.7,1.7-1.4,3.4-2.2,5l-1.6,3.1c-0.3,0.5-0.7,0.9-1.2,1.2c-1,0.6-1.7,0.3-1.9-0.9
	c-0.1-0.2-0.2-0.6-0.2-1.2c0.1-1.1,0.2-2.2,0.2-3.3c0-1,0.1-2.1,0.2-3.1c0.1-1.3,0.2-2.5,0.2-3.6c0-1.1,0.1-2.4,0.2-3.6
	c0.1-1.3,0.2-2.5,0.2-3.6c0-1.1,0.1-2.3,0.2-3.5c0.1-0.9,0.2-1.8,0.3-2.6c0.1-0.8,0.1-1.6,0.1-2.4c0.1-0.7,0.2-1.4,0.2-2.1
	c0-0.7,0-1.4,0-2.1c0.1-1.1,0.2-2.3,0.3-3.4c0.1-1.1,0.1-2.3,0.3-3.5c0.1-1,0.2-2.1,0.3-3.2c0.1-1.1,0.1-2.2,0.1-3.4
	c0.1-1.1-0.1-2.4-0.5-3.6c-0.2-0.8-0.5-1.5-0.9-2c-0.3-0.5-0.8-1.1-1.4-1.6c-1.5-1.6-3.2-2.6-5.2-2.9c-1-0.3-2.2-0.4-3.5-0.2
	c-1.6,0.2-2.9,0.7-4,1.4c-0.6,0.3-1.1,0.7-1.6,1.1c-0.5,0.4-1.1,0.8-1.6,1.1c-1.7,1.4-3.4,2.1-5,2.2c-0.3,0.2-0.7,0.2-1,0
	c0-0.2,0-0.5,0.1-0.8c0.1-0.3,0.1-0.6,0.1-0.9c0.1-0.6,0.2-1.2,0.2-1.8c0-0.6,0-1.2,0-1.8c0-1.3-0.2-2.4-0.7-3.5
	c-0.6-1.7-2-2.9-4.1-3.5c-0.5-0.2-0.9-0.3-1.4-0.3c-0.5,0.1-0.9,0.1-1.4,0.1c-0.9,0.1-1.8,0.3-2.6,0.6c-0.8,0.3-1.5,0.7-2.1,1.3
	c-1.5,1.4-2.4,2.9-2.8,4.5c-0.2,0.5-0.3,1.3-0.3,2.4c-0.1,0.5-0.1,1.1,0.2,1.9c0.2,1.4,0.6,2.6,1.2,3.8c0.8,1.6,2.1,2.9,3.8,3.8
	c0.6,0.3,0.9,0.7,0.9,1.2c0,0.7,0,1.4-0.1,2.1c-0.1,0.7-0.3,1.3-0.6,1.9c-0.5,0.9-0.7,1.7-0.9,2.2c-0.1,0.5-0.2,0.9-0.3,1.3
	c-0.1,0.3-0.2,0.8-0.3,1.2c-0.1,0.3-0.2,0.6-0.3,0.8c-0.4,1.1-0.8,2.3-1.1,3.5c-0.5,1.4-0.9,2.7-1.3,4.1c-0.4,1.3-0.9,2.6-1.5,3.9
	c-0.5,0.9-0.9,1.8-1.2,2.7c-0.3,0.9-0.8,1.8-1.2,2.7c-0.6,1.3-1.2,2.5-1.8,3.6c-0.6,1.2-1.4,2.3-2.2,3.5c-1.5,2.5-3.1,4.5-4.8,6
	c-0.5,0.5-0.9,0.9-1.3,1.4c-0.4,0.5-0.8,0.9-1.3,1.2c-0.8,0.6-1.6,1.1-2.3,1.6c-0.8,0.5-1.6,0.8-2.5,1c-1.4,0.6-2.6,0.7-3.8,0.3
	c-1.4-0.6-2.4-1.3-2.9-2.2c-0.6-0.8-1-1.6-1.2-2.5c-0.2-0.9-0.5-1.8-0.7-2.7c-0.3-0.8-0.5-1.7-0.5-2.6l-0.5-3.6
	c-0.1-0.5-0.2-0.9-0.2-1.4c0-0.5,0-1,0-1.6V396c0-0.1,0.1-0.3,0.3-0.5c2.3-0.9,4.3-1.8,5.9-2.8c1-0.6,2-1.1,3-1.7c1-0.6,2-1.1,3-1.7
	c1.4-0.9,2.7-1.9,4-2.9c1.3-1,2.4-2.2,3.3-3.6c2.1-2.8,3.3-5.9,3.6-9.3c0-1,0-2.1-0.1-3.1c-0.1-1-0.2-2.1-0.4-3.1
	c-0.3-1.6-0.9-2.9-1.7-4c-1.6-2.9-4-5.2-7.1-7.1c-0.9-0.6-1.8-1-2.6-1.2c-0.8-0.2-1.7-0.5-2.6-0.7c-1-0.1-2.1-0.1-3.1-0.1
	c-1,0.1-2,0.2-2.9,0.4c-0.8,0.2-1.6,0.5-2.3,0.7c-0.7,0.2-1.5,0.5-2.3,0.7c-0.6,0.2-1.2,0.5-1.8,0.9c-0.6,0.3-1.2,0.7-1.8,1
	c-2.9,1.7-5.2,4-6.9,6.7c-1.3,1.6-2.3,3.3-3.1,5c-0.8,1.7-1.5,3.6-2.1,5.5c-0.5,1.3-0.9,2.8-1.2,4.5c-0.2,0.9-0.4,1.8-0.5,2.6
	c-0.1,0.8-0.2,1.7-0.3,2.6c-0.1,0.8-0.2,1.6-0.2,2.3c0,0.8,0,1.5,0,2.3c0,1.5,0.1,2.9,0.2,4.3c0,0.1,0,0.3,0,0.4
	c-0.2,0.7-0.5,1.3-0.7,2c-0.7,1.8-1.5,3.8-2.4,5.9c-0.6,1.4-1.2,2.7-1.7,4.1c-0.6,1.3-1.2,2.6-1.7,3.9c-0.6,1.3-1.2,2.5-1.9,3.8
	c-0.5,0.6-1,1-1.6,1.4c-0.9,0.2-1.4-0.1-1.6-0.9c0-0.2,0-0.4-0.1-0.5c-0.1-0.1-0.1-0.3-0.1-0.5c0.1-1.3,0.1-2.4,0-3.5
	c-0.1-1.1-0.1-2.3,0.2-3.5c0.1-0.6,0.2-1.2,0.2-1.8c0-0.6,0.1-1.3,0.2-2c0.1-1.6,0.2-3.2,0.3-4.8c0.1-1.6,0.1-3.2,0.3-4.8
	c0.1-2,0.2-3.9,0.2-6c0-2,0.1-4,0.2-6v-0.5c0-1.3,0-2.5,0.1-3.8c0.1-1.3,0.1-2.5,0.3-3.8c0.1-1.5,0.2-3,0.3-4.4
	c0.1-1.4,0.1-2.9,0.1-4.4c0.1-2,0.2-4,0.3-6c0.1-2.1,0.2-4.1,0.3-6c0-0.9,0-1.8,0.1-2.5c0.1-0.7,0.1-1.6,0.1-2.5
	c0.1-0.6,0.5-0.9,1-0.9h7.9c1.5,0,2.4-0.7,2.6-2.2c0.2-1,0.1-2-0.5-2.9c-0.6-1.1-1.4-1.7-2.6-1.6h-7.1h-1c0-0.2,0-0.4-0.1-0.5
	c-0.1-0.1-0.1-0.3-0.1-0.5v-5.7c0-0.7,0-1.4,0-2.1c0-0.7-0.1-1.4-0.2-2.1c-0.5-2.2-1.6-4-3.5-5.5c-0.9-0.8-2-1.4-3.1-1.6
	c-1.2-0.3-2.4-0.5-3.6-0.6c-0.8-0.1-1.6-0.1-2.2,0c-0.7,0.1-1.4,0.2-2.2,0.3c-0.3,0.1-0.7,0.2-0.9,0.2c-0.3,0-0.5,0.1-0.8,0.3
	c0.2,3,0.3,6,0.3,8.9c-0.1,2.9-0.1,5.9-0.1,8.9h-1h-5.7c-0.3,0-0.7,0-1,0.1c-0.3-0.1-0.6-0.1-0.9-0.1h-7.1h-1c0-0.2,0-0.4-0.1-0.5
	c-0.1-0.1-0.1-0.3-0.1-0.5v-5.7c0-0.7,0-1.4,0-2.1c0-0.7-0.1-1.4-0.2-2.1c-0.5-2.2-1.6-4-3.5-5.5c-0.9-0.8-2-1.4-3.1-1.6
	c-1.2-0.3-2.4-0.5-3.6-0.6c-0.8-0.1-1.6-0.1-2.2,0c-0.7,0.1-1.4,0.2-2.2,0.3c-0.3,0.1-0.7,0.2-0.9,0.2c-0.3,0-0.5,0.1-0.8,0.3
	c0.2,3,0.3,6,0.3,8.9c-0.1,2.9-0.1,5.9-0.1,8.9h-1h-5.7c-0.8-0.1-1.5,0.2-2.1,0.9c-0.1,0.1-0.2,0.2-0.2,0.3c0,0.1-0.1,0.1-0.2,0.3
	c-1,1-1.3,2.2-0.7,3.6c0.5,1.2,1.4,1.7,2.9,1.7h6h0.7c0.3,0,0.5,0.2,0.5,0.5c-0.1,0.8-0.2,1.6-0.2,2.4c0,0.8-0.1,1.6-0.2,2.4
	c-0.1,1.3-0.2,2.5-0.3,3.8c-0.1,1.3-0.1,2.5-0.1,3.8c-0.1,1.2-0.2,2.3-0.2,3.4c0,1.1,0,2.2,0,3.4c-0.1,1.3-0.2,2.6-0.3,4
	c-0.1,1.4-0.1,2.7-0.1,4c-0.1,0.6-0.2,1.2-0.2,1.7c0,0.1,0,0.3,0,0.4c-0.6,1.3-1.1,2.5-1.4,3.4c-0.5,1.3-0.9,2.4-1.3,3.5
	c-0.4,1.1-0.8,2.3-1.1,3.5c-0.5,1.4-0.9,2.7-1.3,4.1c-0.4,1.3-0.9,2.6-1.5,3.9c-0.5,0.9-0.9,1.8-1.2,2.7c-0.3,0.9-0.7,1.8-1.2,2.7
	c-0.6,1.3-1.2,2.5-1.8,3.6c-0.6,1.2-1.4,2.3-2.2,3.5c-1.5,2.5-3.1,4.5-4.8,6c-0.5,0.5-0.9,0.9-1.3,1.4c-0.4,0.5-0.8,0.9-1.3,1.2
	c-0.8,0.6-1.6,1.1-2.3,1.6c-0.7,0.5-1.6,0.8-2.5,1c-1.4,0.6-2.6,0.7-3.8,0.3c-1.4-0.6-2.4-1.3-2.9-2.2c-0.6-0.8-1-1.6-1.2-2.5
	c-0.2-0.9-0.5-1.8-0.7-2.7c-0.3-0.8-0.5-1.7-0.5-2.6l-0.5-3.6c-0.1-0.5-0.2-0.9-0.2-1.4c0-0.5,0-1,0-1.6V396c0-0.1,0.1-0.3,0.3-0.5
	c2.3-0.9,4.3-1.8,5.9-2.8c1-0.6,2-1.1,3-1.7c1-0.6,2-1.1,3-1.7c1.4-0.9,2.7-1.9,4-2.9c1.3-1,2.4-2.2,3.3-3.6
	c2.1-2.8,3.3-5.9,3.6-9.3c0-1,0-2.1-0.1-3.1c-0.1-1-0.2-2.1-0.4-3.1c-0.3-1.6-0.9-2.9-1.7-4c-1.6-2.9-4-5.2-7.1-7.1
	c-0.9-0.6-1.8-1-2.6-1.2c-0.8-0.2-1.7-0.5-2.6-0.7c-1-0.1-2.1-0.1-3.1-0.1c-1,0.1-2,0.2-2.9,0.4c-0.8,0.2-1.6,0.5-2.3,0.7
	c-0.7,0.2-1.5,0.5-2.3,0.7c-0.6,0.2-1.2,0.5-1.8,0.9c-0.6,0.3-1.2,0.7-1.8,1c-2.9,1.7-5.2,4-6.9,6.7c-1.3,1.6-2.3,3.3-3.1,5
	c-0.8,1.7-1.5,3.6-2.1,5.5c-0.5,1.3-0.9,2.8-1.2,4.5c-0.2,0.9-0.4,1.8-0.5,2.6c-0.1,0.8-0.2,1.7-0.3,2.6c-0.1,0.8-0.2,1.6-0.2,2.3
	c0,0.8,0,1.5,0,2.3c0,1.5,0.1,2.9,0.2,4.3c0.1,1.4,0.3,2.8,0.5,4.1c0.1,1.6,0.5,3.3,1,5c0.2,0.9,0.5,1.8,0.8,2.8
	c0.3,0.9,0.6,1.8,0.9,2.8c0.5,1,0.9,2.1,1.3,3.1c0.4,1,0.9,2,1.5,2.9c0.9,1.3,1.8,2.5,2.8,3.7c0.9,1.2,2,2.3,3.3,3.4
	c1.8,1.6,4.1,2.7,6.7,3.3c0.7,0.1,1.4,0.2,2.2,0.3c0.7,0.1,1.5,0.1,2.3,0.1h0.9c0.9,0,1.8,0,2.6,0c0.8,0,1.7-0.1,2.6-0.2
	c0.6-0.1,1.2-0.2,1.8-0.3c0.6-0.1,1.2-0.2,1.8-0.4c0.6-0.2,1.1-0.5,1.7-0.8c0.6-0.3,1.1-0.6,1.7-0.9c1.3-0.7,2.4-1.5,3.4-2.4
	c1-0.9,1.9-1.9,2.8-2.9c1-1,2-2.1,2.8-3.2c0.8-1.1,1.6-2.2,2.4-3.4c0.9-1.5,1.8-3,2.6-4.4c0.8-1.4,1.6-3,2.4-4.6
	c0.3-0.9,0.7-1.7,1-2.6c0,0.1,0,0.2,0,0.3c0,1.4,0,2.7-0.1,4.1c-0.1,1.3-0.1,2.7-0.1,4.1c0,3.1,0.6,5.9,1.7,8.3
	c0.6,1.3,1.2,2.4,1.9,3.5c0.7,1,1.6,2,2.6,2.8c0.8,0.6,1.6,1.1,2.5,1.5c0.9,0.4,1.8,0.5,2.7,0.4h3.3c2.5-0.2,4.5-1.1,6-2.6
	c1.5-1.4,2.9-3.2,4.3-5.5c0.9-1.6,1.7-3.3,2.4-5c0.7-1.7,1.4-3.4,2.2-5c0.9-2.2,1.8-4.5,2.8-7.1c0.4-1,0.8-2,1.2-3
	c-0.1,0.6-0.1,1.1-0.1,1.7c0,0.7,0,1.4,0,2.1c0,1.4,0,2.7-0.1,4.1c-0.1,1.3-0.1,2.7-0.1,4.1c0,3.1,0.6,5.9,1.7,8.3
	c0.6,1.3,1.2,2.4,1.9,3.5c0.7,1,1.6,2,2.6,2.8c0.8,0.6,1.6,1.1,2.5,1.5c0.9,0.4,1.8,0.5,2.7,0.4h3.3c2.5-0.2,4.5-1.1,6-2.6
	c1.5-1.4,2.9-3.2,4.3-5.5c0.9-1.6,1.7-3.3,2.4-5c0.7-1.7,1.4-3.4,2.2-5c0.3,0.9,0.6,1.7,0.9,2.6c0.5,1,0.9,2.1,1.3,3.1
	c0.4,1,0.9,2,1.5,2.9c0.9,1.3,1.8,2.5,2.8,3.7c0.9,1.2,2,2.3,3.3,3.4c1.8,1.6,4.1,2.7,6.7,3.3c0.7,0.1,1.4,0.2,2.2,0.3
	c0.7,0.1,1.5,0.1,2.3,0.1h0.9c0.9,0,1.8,0,2.6,0c0.8,0,1.7-0.1,2.6-0.2c0.6-0.1,1.2-0.2,1.8-0.3c0.6-0.1,1.2-0.2,1.8-0.4
	c0.6-0.2,1.1-0.5,1.7-0.8c0.6-0.3,1.1-0.6,1.7-0.9c1.3-0.7,2.4-1.5,3.4-2.4c1-0.9,1.9-1.9,2.8-2.9c1-1,2-2.1,2.8-3.2
	c0.8-1.1,1.6-2.2,2.4-3.4c0.9-1.5,1.8-3,2.6-4.4c0.8-1.4,1.6-3,2.4-4.6c0.6-1.5,1.1-2.9,1.7-4.3c0.6-1.4,1.1-2.8,1.7-4.3
	c0.9-2.2,1.6-4.3,2.1-6.4c0.3-1.1,0.7-2.3,1-3.5c0.3-1.1,0.6-2.4,0.9-3.6c0.2-0.7,0.3-1.3,0.3-1.9c0.1-0.2,0.2-0.5,0.2-0.7
	c0.2-0.6,0.4-1.1,0.5-1.6c0.1-0.5,0.2-1.1,0.3-1.6l0.3-0.3h2.1c0.6,0,1.3-0.1,2.2-0.3c1.1-0.2,2.2-0.6,3.3-1c1-0.5,1.8-0.1,2.4,1
	c0.1,0.3,0.2,0.7,0.3,1c0.1,0.3,0.2,0.7,0.2,1c0.1,0.6,0.1,1.1,0.1,1.6c-0.1,0.5-0.1,1-0.1,1.6c-0.1,0.9-0.2,1.9-0.3,2.9
	c-0.1,1-0.1,2-0.3,2.9c-0.1,0.9-0.2,1.8-0.2,2.7c0,0.9-0.1,1.8-0.2,2.7c0,0.3,0,0.7-0.1,1c-0.1,0.3-0.1,0.6-0.1,0.9l-0.5,6.2
	c-0.1,0.9-0.2,1.8-0.2,2.6c0,0.8-0.1,1.7-0.2,2.6c0,0.9,0,1.8,0,2.6c0,0.8-0.1,1.7-0.2,2.6c0,0.9,0,1.9,0.1,2.8
	c0.1,1,0.2,1.9,0.4,2.8c0.2,0.8,0.5,1.6,0.8,2.2c0.3,0.7,0.6,1.3,0.9,1.9c0.9,2.1,2.2,3.7,3.8,5c0.9,0.7,1.8,1.2,2.8,1.6
	c0.9,0.4,2,0.5,3.3,0.4h2.4c0.3-0.1,0.7-0.2,1-0.2c0.3,0,0.7-0.1,1-0.2c2-0.6,3.6-1.6,4.8-2.9c0.9-0.9,1.7-1.9,2.4-2.8
	c0.7-1,1.3-2.1,1.9-3.4c0.6-1,1.1-2.1,1.6-3.1c0.5-1,0.9-2.1,1.4-3.3c0.7-1.6,1.4-3.2,2-4.8c0.6-1.6,1.3-3.2,2-4.8
	c0.2-0.8,0.5-1.6,0.9-2.2c0.3-0.7,0.6-1.4,0.9-2.2c0.5-1,0.9-2.1,1.2-3.1c0.3-1,0.7-2.1,1.2-3.1c0.2-0.6,0.4-1.1,0.5-1.6
	c0.1-0.5,0.3-1.1,0.5-1.6c0.2-0.8,0.5-1.6,0.9-2.4c0.3-0.8,0.6-1.7,0.9-2.6c0.3-1.4,0.3-2.6-0.2-3.8
	C353.8,376,353.5,375.6,352.9,375.3z M264.8,386.9c0.1-0.5,0.1-0.9,0.3-1.4c0-1,0.2-2,0.5-2.9c0.3-2,0.7-3.6,1.2-4.8
	c0.2-0.7,0.5-1.4,0.7-2c0.2-0.6,0.5-1.2,0.7-1.8c0.5-1,1-2,1.6-2.9c0.6-0.9,1.1-1.8,1.7-2.8c0.2-0.2,0.5-0.5,0.7-0.9
	c0.2-0.3,0.5-0.6,0.9-0.9c1.4-1.1,2.8-1.7,4.1-1.6c1,0,1.8,0.6,2.4,1.7c0.5,0.8,0.7,1.6,0.9,2.4c0,0.6,0.1,1,0.2,1.2
	c0,0.6-0.1,1.4-0.3,2.6c-0.2,0.7-0.5,1.4-0.7,2c-0.2,0.6-0.5,1.2-0.9,1.8c-0.9,1.8-2.3,3.7-4.1,5.5c-1.8,1.8-3.9,3.3-6,4.5
	c-0.6,0.2-1.1,0.5-1.6,0.8c-0.5,0.3-1.1,0.5-1.6,0.8c-0.1,0-0.2,0-0.3,0.1c-0.1,0.1-0.2,0.1-0.4,0.1
	C264.6,387.8,264.7,387.3,264.8,386.9z M150.5,386.9c0.1-0.5,0.1-0.9,0.3-1.4c0-1,0.2-2,0.5-2.9c0.3-2,0.7-3.6,1.2-4.8
	c0.2-0.7,0.5-1.4,0.7-2c0.2-0.6,0.5-1.2,0.7-1.8c0.5-1,1-2,1.6-2.9c0.6-0.9,1.1-1.8,1.7-2.8c0.2-0.2,0.5-0.5,0.7-0.9
	c0.2-0.3,0.5-0.6,0.9-0.9c1.4-1.1,2.8-1.7,4.1-1.6c1,0,1.8,0.6,2.4,1.7c0.5,0.8,0.7,1.6,0.9,2.4c0,0.6,0.1,1,0.2,1.2
	c0,0.6-0.1,1.4-0.3,2.6c-0.2,0.7-0.5,1.4-0.7,2c-0.2,0.6-0.5,1.2-0.9,1.8c-0.9,1.8-2.3,3.7-4.1,5.5c-1.8,1.8-3.9,3.3-6,4.5
	c-0.6,0.2-1.1,0.5-1.6,0.8c-0.5,0.3-1.1,0.5-1.6,0.8c-0.1,0-0.2,0-0.3,0.1c-0.1,0.1-0.2,0.1-0.4,0.1
	C150.4,387.8,150.4,387.3,150.5,386.9z M215.7,380.3c-0.6,1.8-1.2,3.5-1.7,5c-0.6,1.8-1.2,3.7-1.8,5.4c-0.6,1.8-1.3,3.6-2,5.4
	c-0.7,1.8-1.5,3.8-2.4,5.9c-0.6,1.4-1.2,2.7-1.7,4.1c-0.6,1.3-1.2,2.6-1.7,3.9c-0.6,1.3-1.2,2.5-1.9,3.8c-0.5,0.6-1,1-1.6,1.4
	c-0.9,0.2-1.4-0.1-1.6-0.9c0-0.2,0-0.4-0.1-0.5c-0.1-0.1-0.1-0.3-0.1-0.5c0.1-1.3,0.1-2.4,0-3.5c-0.1-1.1-0.1-2.3,0.2-3.5
	c0.1-0.6,0.2-1.2,0.2-1.8c0-0.6,0.1-1.3,0.2-2c0.1-1.6,0.2-3.2,0.3-4.8c0.1-1.6,0.1-3.2,0.3-4.8c0.1-2,0.2-3.9,0.2-6
	c0-2,0.1-4,0.2-6v-0.5c0-1.3,0-2.5,0.1-3.8c0.1-1.3,0.1-2.5,0.3-3.8c0.1-1.5,0.2-3,0.3-4.4c0.1-1.4,0.1-2.9,0.1-4.4
	c0.1-2,0.2-4,0.3-6c0.1-2.1,0.2-4.1,0.3-6c0-0.9,0-1.8,0.1-2.5c0.1-0.7,0.1-1.6,0.1-2.5c0.1-0.6,0.5-0.9,1-0.9h7.9
	c0.2,0,0.3,0,0.5-0.1c0.2,0,0.4,0.1,0.7,0.1h6h0.7c0.3,0,0.5,0.2,0.5,0.5c-0.1,0.8-0.2,1.6-0.2,2.4c0,0.8-0.1,1.6-0.2,2.4
	c-0.1,1.3-0.2,2.5-0.3,3.8c-0.1,1.3-0.1,2.5-0.1,3.8c-0.1,1.2-0.2,2.3-0.2,3.4c0,1.1,0,2.2,0,3.4c-0.1,1.3-0.2,2.6-0.3,4
	c-0.1,1.4-0.1,2.7-0.1,4c-0.1,0.5-0.1,1-0.2,1.5c-0.1,0.1-0.3,0.2-0.4,0.4C216.8,377.1,216.1,378.7,215.7,380.3z M299.7,361.1
	c0.3-0.3,0.5-0.5,0.3-0.5c0.7-0.7,1.2-1.1,1.6-1.2c0.7-0.3,1.1-0.2,1.4,0.5c0.2,0.6,0.3,1.4,0.3,2.4c0,0.6-0.1,1.2-0.2,1.8
	c-0.1,0.6-0.3,1.2-0.5,1.8c-1,0-1.8-0.5-2.4-1.4c-0.3-0.5-0.5-1-0.5-1.7V361.1z M76.4,47.9c3.2-6,15.4-7.6,24.2-6.2
	c7.1,1.2,18.5,5.8,25.3,9.4c-2.8,12.2-5.1,24.9-6.5,37.3c-1.1,8.3-1.1,32,13.4,25.1c3.4-1.6,5.8-4.8,7.9-7.9
	c2.3-3.7,7.1-14.5,7.4-14.7c0.2,2.3,1.6,11.3,3.2,15.7c1.1,3.4,8.1,16.4,12.4,10.1c1.9-3,1.9-8.1,2.8-11.7c1.1-4.4,2.3-8.7,3.5-12.9
	c1.6-5.1,3-10.4,5.3-15.2c0.2-0.7,6-10.2,7.2-7.2c1.2,3.5-0.2,8.1-0.7,11.7c-0.7,4.9-1.2,9.9-1.6,14.8c-0.2,3.7,0.7,12.2,2.8,14.5
	c1.4,1.6,3.7,2.3,5.8,1.9c2.3-0.4,4.4-1.9,6.2-3.7c5.5-5.6,9.9-12,14.3-18.4c0.9,5.5,3.3,11,8.1,13.8c7.9,4.8,17,3,23.1-3.4
	c3.2-3.5,7.2-10.2,14.8-21.5c0.5-0.7,4.8-7.1,5.1-7.9c0.5-1.9-1.4-3.9-3.5-0.9c-2.1,2.8-4.2,6.5-6.2,9.4
	c-11.5,16.2-16.4,25.8-24.7,22.4c-5.5-1.9-6.4-11.7-4.6-17.7c5.5-0.2,10.2-3.2,14.1-7.2c4.2-4.6,5.8-10.1,3.7-16.2
	c-1.2-3.9-5.5-5.8-9.5-6c-6.5,0-12.4,4.1-16.1,11.5c-2.6,4.4-3.5,8.7-4.4,13.8c-0.2,1-0.3,2-0.3,3.1c-0.8,1-1.7,2-2.5,3.1
	c-2.1,2.5-4.2,4.9-6.5,7.2c-1.6,1.8-7.2,8.5-7.2,4.8c0-1.8,0.2-6.4,0.4-8.1c0.7-5.5,1.1-12.2,0.5-17.7c-0.7-6.2-8.7-10.1-13.8-7.8
	c-4.8,2.1-7.8,5.8-10.2,11c-1.1,2.3-1.9,4.6-3,7.1c-1.8,4.6-2.5,7.9-3.7,12.4c-0.2,0.9-0.7,3.5-1.8,4.9c-0.9-3.2-1.2-6.2-1.6-8.3
	c-0.9-6-0.4-29-0.2-31.4c16.4,0,42.6-16.4,44.2-32.3c0.9-7.6,0.4-14-6.5-18c-5.5-3.4-12.2-4.2-18.4-2.6
	c-10.2,2.8-15.5,11.8-20.8,20.7c-4.4,7.4-7.8,20.3-8.7,26c-4.4-1.2-9-2.3-12.4-3.9l1.4-6.2c1.1-4.9,3.2-12.7,3.5-14.1
	c0.4-1.9,0.2-5.8-0.5-7.9c-1.4-4.6-2.6-5.3-7.6-4.4c-0.2,0-6.4,26.7-6.5,27.4c-10.6-4.4-24.4-8.1-33.4-8.5
	C87.8,36.2,78,38,73.5,43.6C67.5,51.2,72.8,54.6,76.4,47.9z M232,60.4c0.9-0.7,2.5-1.4,2.6-0.4c1.4,4.2,0.4,8.7-2.1,12.2
	c-2.6,4.1-6,5.8-10.6,8.7C223.8,71,228.1,63.4,232,60.4z M169.3,28.4c1.9-3.7,3.9-7.2,6.7-10.2c3.9-4.4,10.4-10.4,16.1-6.9
	c4.9,3.2,7.9,9.9,6.7,15.9c-0.4,2.6-1.6,4.9-3,7.2c-7.1,12-22.4,21.2-35.3,21.2C160.3,51.4,165.9,35.1,169.3,28.4z M128.5,105.1
	l1.9-19.4c0.5-4.4,5.3-30.6,5.3-30.6c1.4,0.7,7.2,2.5,12.9,3.9c-1.2,10.9-0.7,20.8-0.7,25.1c-0.9,1.8-2.8,4.9-3.7,6.4
	c-1.2,2.3-12,21.4-15.2,17.7C128.3,107.4,128.3,106.1,128.5,105.1z M59.3,206.9c0.4,0.1,0.9,0.3,1.3,0.4c0.4,0.1,0.9,0.3,1.3,0.4
	c3.7,0.9,7.1,0.8,10.2-0.2c2.2-0.6,4.1-2,5.5-4.2c1.3-1.9,2.1-4.5,2.4-7.8V194l0.2,0.2l0.4,0.4c1.8,1.9,3.6,3.7,5.5,5.3
	c1.9,1.6,4.1,2.9,6.6,3.8c1.3,0.6,2.6,1.1,3.9,1.4c1.3,0.4,2.6,0.6,4.1,0.8c1.2,0.1,2.4,0.3,3.5,0.3c1.2,0.1,2.4,0.1,3.5,0.1
	c4.3-0.1,8.3-1.5,12.2-4c2.1-1.3,3.9-2.9,5.5-4.8c1.6-1.8,3-3.8,4.2-5.9c1.9-3,3.4-6.1,4.5-9.4c1.1-3.3,2-6.7,2.5-10.1
	c0.6-2.8,0.9-5.8,0.9-9.1c0-1.5,0-2.9,0-4.2c0-1.3-0.1-2.7-0.4-4.2c-0.1-1.2-0.3-2.4-0.4-3.5c-0.1-1.2-0.4-2.4-0.7-3.5
	c-0.3-1.6-0.7-3.3-1.1-5.1c-0.4-1.8-1-3.5-1.8-5.1c-0.4-1.2-0.9-2.3-1.4-3.3c-0.5-1-1.1-2.1-1.7-3.3c-0.9-1.6-1.9-3.2-3.1-4.7
	c-1.2-1.5-2.4-2.9-3.8-4.2c-2.7-2.7-5.5-4.3-8.4-4.9c-0.7-0.1-1.5-0.3-2.2-0.3c-0.7-0.1-1.5-0.2-2.2-0.3c-1.6-0.1-3.2-0.2-4.7-0.1
	c-1.5,0.1-3,0.3-4.7,0.8c-3.2,0.9-6.1,2.6-8.6,5.1c-3.4,3-6.3,6.7-8.6,11.3c-0.3,0.3-0.5,0.7-0.7,1.1c-0.1,0.4-0.4,0.9-0.7,1.3
	c-0.1-0.9-0.3-1.7-0.3-2.5c-0.1-0.8-0.1-1.6-0.1-2.3c0.1-1.2,0.2-2.3,0.2-3.4c0-1.1,0.1-2.2,0.2-3.4c0-1.6,0-3.3,0.1-5
	c0.1-1.7,0.1-3.4,0.1-5c0.1-1.5,0.2-2.9,0.2-4.3c0-1.4,0.1-2.8,0.2-4.3V93.9v-0.7v-8c-0.3-1.8-0.8-3.2-1.6-4.4
	c-0.9-1.6-2.1-2.9-3.5-3.9c-1.5-1-3.1-1.7-4.9-2.1c-2.2-0.4-4.1-0.6-5.8-0.4c-2.1,0-3.9,0.3-5.5,0.9v1.1c0.1,1.6,0.3,3.3,0.3,5
	c0.1,1.7,0.1,3.4,0.1,5.2c0,1.6,0,3.3,0,5.1c0,1.8-0.1,3.5-0.2,5.3c0,2.8,0,5.6,0,8.4c0,2.8-0.1,5.6-0.2,8.4c0,2.1,0,4.1-0.1,6.2
	c-0.1,2.1-0.1,4.1-0.1,6.2c-0.1,1.8-0.2,3.5-0.2,5.2c0,1.7-0.1,3.4-0.2,5.2v10.6v2c-0.1,1.2-0.2,2.3-0.2,3.4c0,1.1,0,2.3,0,3.4
	c-0.1,1.2-0.2,2.4-0.2,3.7c0,1.3,0,2.5,0,3.7v5.3c-0.1,2.1-0.2,4.1-0.2,6.1s-0.1,4-0.2,6.1c0,1.2,0,2.3,0,3.3c0,1-0.1,2.1-0.2,3.1
	c-0.1,1.8-0.3,3.5-0.3,5.3c-0.1,1.8-0.2,3.5-0.3,5.1c-0.1,1.2-0.3,2.3-0.3,3.3c-0.1,1-0.1,2.1-0.1,3.1c-0.1,0.4-0.2,0.9-0.1,1.3
	C59.3,206,59.3,206.4,59.3,206.9z M82.1,178.5c0-1.9,0-3.8,0.1-5.6c0.1-1.8,0.1-3.7,0.1-5.6l0.7-14c0-0.6,0.1-1.1,0.2-1.7
	c0.1-0.5,0.3-1.1,0.4-1.7c1.5-4.6,3.7-8.9,6.6-12.8c1.2-1.9,2.6-3.7,4.2-5.2c1.6-1.6,3.3-3,5.1-4.3c0.4-0.4,1.3-1,2.4-1.6
	c2.2-1,4.2-0.5,6,1.6c0.9,1.2,1.6,2.4,2,3.5c0.7,2.2,1.3,4.7,1.6,7.5c0.3,1.6,0.5,3.2,0.6,4.7c0.1,1.5,0.2,3,0.3,4.4v3.3h0.2
	c-0.1,1.9-0.3,3.8-0.3,5.6c-0.1,1.8-0.3,3.7-0.6,5.6c-0.3,3.5-0.7,6.9-1.3,10.2c-0.4,3.2-1.3,6.7-2.4,10.4c-0.4,1.5-0.9,2.9-1.4,4.2
	c-0.5,1.3-1.1,2.7-1.9,4c-1,1.8-2.1,3.1-3.1,4c-0.9,0.7-1.8,1.2-2.7,1.3c-1.9,0.3-3.6,0.1-5.1-0.6c-1.5-0.7-2.9-1.6-4.2-2.8
	c-2.2-2.2-4-4.8-5.3-7.8c-0.7-1.3-1.3-2.6-1.8-3.8C82.1,180.6,82,179.5,82.1,178.5z M257.7,119.4c-3.2-1.6-6.9-2.7-10.9-3.1
	c-1.6-0.3-3.2-0.4-4.9-0.3c-1.6,0.1-3.2,0.3-4.9,0.6c-2.2,0.3-4.4,1-6.6,2c-3.7,1.9-6.9,4.7-9.7,8.2c-1,1.2-1.9,2.4-2.7,3.7
	c-0.7,1.3-1.5,2.5-2.2,3.9c-1.2,2.5-2.1,4.9-2.7,7.3c-0.2,0.5-0.4,1-0.5,1.6c-0.4,0.3-0.8,0.6-1.3,0.9c-0.7,0.6-1.5,1.1-2.2,1.6
	c-0.7,0.4-1.5,1-2.2,1.6v-0.4c-0.3-1.2-0.6-2.7-0.9-4.4c-0.3-1.3-0.6-2.7-1-4c-0.4-1.3-0.8-2.7-1.2-4c-0.6-1.3-1.2-2.7-1.9-4.1
	c-0.7-1.4-1.4-2.7-2.3-3.9c-1-1.6-2.5-3.2-4.4-4.7c-0.6-0.4-1.2-0.8-1.8-1.2c-0.6-0.4-1.2-0.7-1.8-1c-3.2-1.6-6.9-2.7-10.9-3.1
	c-1.6-0.3-3.2-0.4-4.9-0.3c-1.6,0.1-3.2,0.3-4.9,0.6c-2.2,0.3-4.4,1-6.6,2c-3.7,1.9-6.9,4.7-9.7,8.2c-1,1.2-1.9,2.4-2.7,3.7
	c-0.7,1.3-1.5,2.5-2.2,3.9c-1.2,2.5-2.1,4.9-2.7,7.3c-0.3,0.7-0.5,1.5-0.7,2.2c-0.1,0.7-0.3,1.5-0.4,2.2c-0.3,0.9-0.5,1.8-0.7,2.7
	c-0.1,0.9-0.3,1.8-0.4,2.7c-0.1,0.9-0.3,1.7-0.3,2.5c-0.1,0.8-0.2,1.6-0.3,2.3c0,0.7,0,1.5-0.1,2.3c-0.1,0.8-0.1,1.6-0.1,2.3
	c0,1.2,0,2.3,0.1,3.3c0.1,1,0.1,2.1,0.1,3.3c0,0.4,0,0.9,0.1,1.3c0.1,0.4,0.1,0.9,0.1,1.3l0.7,4.7c0.1,0.7,0.3,1.5,0.3,2.2
	c0.1,0.7,0.2,1.5,0.3,2.2c0.3,1.3,0.6,2.6,0.9,3.8c0.3,1.2,0.7,2.4,1.1,3.5c1,2.7,2,4.9,2.9,6.9c1.9,3.5,4.3,6.5,7.1,8.9
	c3.1,2.8,6.7,4.6,10.9,5.3c0.7,0.3,1.5,0.4,2.2,0.4c0.7,0,1.5,0.1,2.2,0.2c1.6,0.1,3.3,0.1,5.1,0c1.8-0.1,3.5-0.6,5.1-1.3
	c3-0.9,5.6-2.6,8-5.1c2.2-2.1,4.1-4.4,5.8-7.1c1-1.5,1.9-2.9,2.5-4.3c0.7-1.4,1.4-2.9,2.1-4.5c0.6-1.6,1.1-3.2,1.7-4.9
	c0.5-1.6,0.9-3.2,1.2-4.9c0.1-0.7,0.3-1.5,0.4-2.2c0.1-0.7,0.3-1.5,0.4-2.2c0.1-0.7,0.3-1.4,0.3-2.1c0.1-0.7,0.2-1.4,0.3-2.1
	c0.1-1,0.3-2,0.3-3c0.1-1,0.3-2,0.6-3c0-0.7,0.1-1.3,0.2-1.6v-2.7c0-0.3,0.1-0.6,0.4-0.9c1-0.7,2-1.3,2.9-2
	c-0.1,0.6-0.1,1.2-0.2,1.7c0,0.7,0,1.5-0.1,2.3c-0.1,0.8-0.1,1.6-0.1,2.3c0,1.2,0,2.3,0.1,3.3c0.1,1,0.1,2.1,0.1,3.3
	c0,0.4,0,0.9,0.1,1.3c0.1,0.4,0.1,0.9,0.1,1.3l0.7,4.7c0.1,0.7,0.3,1.5,0.3,2.2c0.1,0.7,0.2,1.5,0.3,2.2c0.3,1.3,0.6,2.6,0.9,3.8
	c0.3,1.2,0.7,2.4,1.1,3.5c1,2.7,2,4.9,2.9,6.9c1.9,3.5,4.3,6.5,7.1,8.9c3.1,2.8,6.7,4.6,10.9,5.3c0.7,0.3,1.5,0.4,2.2,0.4
	c0.7,0,1.5,0.1,2.2,0.2c1.6,0.1,3.3,0.1,5.1,0c1.8-0.1,3.5-0.6,5.1-1.3c3-0.9,5.6-2.6,8-5.1c2.2-2.1,4.1-4.4,5.8-7.1
	c1-1.5,1.9-2.9,2.5-4.3c0.7-1.4,1.4-2.9,2.1-4.5c0.6-1.6,1.1-3.2,1.7-4.9c0.5-1.6,0.9-3.2,1.2-4.9c0.1-0.7,0.3-1.5,0.4-2.2
	c0.1-0.7,0.3-1.5,0.4-2.2c0.1-0.7,0.3-1.4,0.3-2.1c0.1-0.7,0.2-1.4,0.3-2.1c0.1-1,0.3-2,0.3-3c0.1-1,0.3-2,0.6-3
	c0-0.7,0.1-1.3,0.2-1.6v-2.7c0-0.3,0.1-0.6,0.4-0.9c1.3-0.9,2.6-1.7,3.8-2.5c1.2-0.8,2.4-1.7,3.5-2.8c0.8-0.6,1.5-1.3,2.2-1.9
	c0,2.2,0,4.5-0.1,6.8c-0.1,2.7-0.1,5.2-0.1,7.8c-0.1,2.1-0.2,4.2-0.2,6.3c0,2.1-0.1,4.2-0.2,6.3c0,2.1,0,4.2-0.1,6.4
	c-0.1,2.2-0.2,4.4-0.3,6.6l-0.7,9.3c-0.1,1.2-0.2,2.4-0.2,3.5c0,1.2-0.1,2.4-0.2,3.5c-0.1,0.6,0.1,1,0.7,1.1
	c0.7,0.3,1.5,0.5,2.2,0.7c0.7,0.1,1.5,0.3,2.2,0.4c3.1,0.7,6.1,0.4,8.9-0.9c3.2-1.6,5.4-4.1,6.4-7.3c0.7-1.9,1.1-3.9,1.1-6
	c0-0.3,0.1-0.5,0.2-0.7c0.3-1.6,0.7-3.1,1.1-4.5c0.4-1.4,0.9-2.9,1.3-4.5c0.4-2.1,0.9-4,1.4-5.9c0.5-1.8,1-3.8,1.4-5.9
	c0.3-0.9,0.6-1.6,0.9-2.2c0.3,0.3,0.5,0.4,0.7,0.4c0.1,0,0.3,0.1,0.4,0.4c0.3,0.3,0.6,0.6,0.9,0.9c0.3,0.3,0.6,0.7,0.9,1.1
	c0.9,1.2,1.6,2.4,2.2,3.8c0.6,1.3,1.2,2.7,1.8,4c0.3,0.7,0.6,1.5,0.9,2.3c0.3,0.8,0.6,1.6,0.9,2.3c1.2,2.8,2.7,5.5,4.4,8.2
	c1.6,2.5,3.5,4.7,5.6,6.6c2.1,1.9,4.6,3.5,7.4,4.7c3.7,1.5,7.2,1.7,10.4,0.7c3.5-1.2,6.7-3,9.5-5.5c1.5-1.2,2.8-2.5,3.9-4.1
	c1.1-1.6,2.2-3.1,3.4-4.8c0.7-1.2,1.5-2.4,2.3-3.8c0.8-1.3,1.5-2.7,2.1-4.2c0.3-1.2,0.7-2.2,1.1-3.2c0.4-1,0.9-2,1.3-3.2
	c1-2.4,2-4.7,2.9-7.1c0.9-2.4,1.8-4.8,2.7-7.3c0.7-1.8,1.4-3.6,2-5.4c0.6-1.8,1.3-3.7,2-5.4c0.3-0.7,0.5-1.5,0.7-2.3
	c0.1-0.8,0.1-1.7,0-2.5c0-1.3-0.4-2.4-1.1-3.1c-0.9-0.7-1.9-1-3.1-0.8c-1.2,0.2-2.1,0.8-2.7,1.7c-0.3,0.6-0.6,1.1-0.9,1.6
	c-0.3,0.4-0.5,1-0.7,1.6l-3.3,9.3c-0.4,1.3-0.9,2.7-1.3,4.1c-0.4,1.4-1,2.8-1.5,4.1c-0.7,2.1-1.5,4.1-2.2,6c-0.7,1.9-1.5,3.9-2.2,6
	c-0.7,1.9-1.6,3.7-2.7,5.2c-1,1.6-2.2,3.1-3.5,4.8c-0.6,0.7-1.2,1.4-1.9,2c-0.7,0.6-1.4,1-2.3,1.3c-2.2,0.7-4.1,0.5-5.5-0.7
	c-0.9-0.6-1.6-1.3-2.2-2c-0.6-0.7-1.2-1.5-1.8-2.2c-1.2-1.6-2.3-3.3-3.2-5.1c-1-1.8-1.9-3.5-2.8-5.3c-0.9-2.1-1.7-4.1-2.5-6
	c-0.8-1.9-1.7-3.9-2.5-6c0-0.3,0-0.5-0.1-0.7c-0.1-0.1-0.1-0.4-0.1-0.7c1.2-0.6,2.1-1,2.9-1.3c4.6-2.4,8.6-5.5,12.2-9.3
	c2.2-2.5,4.2-5.2,5.9-8c1.7-2.8,3-5.8,3.9-9.1c0.4-1.6,0.7-3.3,0.9-5c0.1-1.7,0.1-3.4-0.2-5c-0.6-2.8-1.7-5-3.4-6.5
	c-1.7-1.6-3.8-2.6-6.3-3.2c-2.7-0.6-5.7-0.7-9.1-0.2c-0.7,0.1-1.5,0.3-2.2,0.4c-0.7,0.1-1.5,0.4-2.2,0.7c-3.8,1.2-7.5,3.5-10.9,6.9
	c-0.7,0.7-1.4,1.4-2,2.1c-0.6,0.7-1,1.4-1.3,2.3c-0.6,1-1.2,2-1.8,3c-0.6,1-1.2,2-1.8,3.2c-1.6,3-3.1,5.9-4.5,8.9
	c-1.4,3-2.7,6-3.9,9.1c-0.3,0.4-0.5,0.9-0.6,1.4c-0.1,0.5-0.3,1-0.6,1.4h-0.2v-1.3c0-1.5,0-3,0.1-4.4c0.1-1.5,0.1-3,0.1-4.4
	c0.1-1.6,0.2-3.1,0.2-4.5c0-1.4,0.1-2.8,0.2-4.3c0-2.1,0-4.1,0.1-6.1c0.1-2,0.1-4,0.1-6.1c0.1-2.1,0.2-4.1,0.2-6
	c0-1.9,0.1-3.9,0.2-6c0-1.6,0-3.2,0-4.7c0-1.5,0.1-3,0.2-4.7c0-1.3,0-2.7,0.1-4.1c0.1-1.4,0.1-2.8,0.1-4.1c0-1.2,0-2.4,0-3.7
	c0-1.3-0.1-2.5-0.2-3.7c-0.7-4.4-3-7.6-6.6-9.5c-2.7-1.2-5.2-1.8-7.7-1.8c-1.2,0-2.3,0.1-3.4,0.2c-1.1,0.1-2.3,0.4-3.4,0.9
	c0,1.6,0,3.1,0.1,4.5c0.1,1.4,0.2,2.8,0.3,4.3c0,1.9,0,3.8-0.1,5.5c-0.1,1.8-0.1,3.6-0.1,5.5v6.4c-0.1,3.1-0.2,6.2-0.2,9.3
	c0,3.1-0.1,6.1-0.2,9.1c0,1.8,0,3.5-0.1,5.3c-0.1,1.8-0.1,3.5-0.1,5.1c-0.1,1.9-0.2,3.8-0.2,5.6c0,1.1,0,2.3-0.1,3.4
	c-0.3,0.3-0.7,0.6-1,0.9c-1.5,1.2-3.1,2.4-4.9,3.5c-0.7,0.6-1.5,1.1-2.2,1.6c-0.7,0.4-1.5,1-2.2,1.6v-0.4c-0.3-1.2-0.6-2.7-0.9-4.4
	c-0.3-1.3-0.6-2.7-1-4c-0.4-1.3-0.8-2.7-1.2-4c-0.6-1.3-1.2-2.7-1.9-4.1c-0.7-1.4-1.4-2.7-2.3-3.9c-1-1.6-2.5-3.2-4.4-4.7
	c-0.6-0.4-1.2-0.8-1.8-1.2C258.9,120,258.3,119.7,257.7,119.4z M177.8,131.8c0.3-1.2,0.6-2.2,0.9-3.1c0.4-0.9,1.3-1.7,2.4-2.4
	c1.9-1.2,4.2-1.3,6.9-0.2c2.4,1.3,4.2,3.2,5.5,5.5c0.4,0.9,0.8,1.8,1.2,2.7c0.4,0.9,0.7,1.8,1,2.7l0.7,4c0.1,0.7,0.3,1.4,0.3,1.9
	c0.1,0.5,0.1,1.1,0.1,1.7c0.3,0.7,0.5,1.5,0.6,2.3c0.1,0.8,0.2,1.6,0.3,2.3v0.7H197c-1.6,0.1-3.5,0-5.8-0.4
	c-1.9-0.6-3.7-1.3-5.2-2.1c-1.6-0.8-3-2-4.3-3.7c-1.6-1.8-2.7-3.8-3.3-6c-0.3-0.7-0.5-1.4-0.6-2c-0.1-0.6-0.2-1.3-0.3-2
	C177.6,132.8,177.6,132.2,177.8,131.8z M197.8,161.6c-0.1,0.8-0.1,1.7-0.1,2.5c0,0.3,0,0.7-0.1,1.1c-0.1,0.4-0.1,0.9-0.1,1.3
	c-0.1,0.7-0.2,1.5-0.2,2.3c0,0.8-0.1,1.6-0.2,2.3c-0.3,1.2-0.5,2.4-0.7,3.5c-0.1,1.2-0.4,2.4-0.7,3.5c-0.7,3-1.7,5.7-2.9,8.2
	c-1.2,2.5-2.7,4.9-4.7,7.3c-2.2,2.7-4.7,4.5-7.3,5.5c-1.5,0.4-2.7,0.6-3.8,0.4c-1.6-0.4-3-1.3-4.2-2.7c-1-1.2-1.9-2.7-2.7-4.4
	c-0.4-0.9-0.8-1.8-1-2.7s-0.5-1.8-0.8-2.7c-0.1-0.6-0.3-1.1-0.3-1.6c-0.1-0.4-0.1-1-0.1-1.6c-0.1-1.3-0.3-2.6-0.3-3.9
	c-0.1-1.3-0.2-2.5-0.3-3.9c-0.1-2.7-0.1-5.4,0-8.2c0-1.2,0-2.4,0.1-3.7c0.1-1.3,0.2-2.5,0.3-3.7l0.7-5.3c0.1-0.7,0.3-1.5,0.4-2.3
	c0.1-0.8,0.4-1.6,0.7-2.3c0.1-0.7,0.3-1.4,0.4-2.1c0.1-0.7,0.4-1.4,0.7-2.1c0.3-1.2,0.6-2.1,0.9-2.7l0.2-0.2
	c0.1,0.1,0.2,0.3,0.2,0.3c0,0.1,0.1,0.2,0.2,0.3c2.5,4.3,6,7.5,10.4,9.7c0.7,0.3,1.4,0.6,2.1,0.8c0.7,0.2,1.4,0.5,2.1,0.8
	c1,0.3,2.1,0.6,3.1,0.8c1,0.2,2.1,0.5,3.1,0.8c0.7,0.3,1.8,0.6,3.3,0.9c0.6,0,1,0.1,1.3,0.2c0.3,0,0.4,0.1,0.4,0.4
	C198,159.9,197.9,160.8,197.8,161.6z M321.9,152.2c0.4-1.2,0.8-2.4,1.2-3.5c0.4-1.2,0.8-2.4,1.2-3.5c0.9-2.5,1.9-5,3-7.5
	c1.1-2.5,2.4-4.9,3.9-7.3c0.7-1,1.4-2,2.1-3c0.7-1,1.5-1.9,2.5-2.8c1.5-1.5,3.2-2.2,5.1-2.2c1.5,0,2.4,0.8,2.7,2.4
	c0,0.7-0.1,1.5-0.2,2.2c-0.1,0.7-0.4,1.5-0.7,2.2c-0.9,2.4-2,4.5-3.2,6.5c-1.3,2-2.6,4-4.1,6.1c-1.2,1.5-2.4,2.9-3.7,4.2
	c-1.3,1.3-2.5,2.6-3.9,3.8c-0.9,0.7-1.7,1.4-2.5,1.9c-0.8,0.5-1.7,1-2.8,1.4c-0.3,0-0.5,0.1-0.7,0.2V152.2z M264.1,159
	c-0.1,0.9-0.3,1.7-0.3,2.5c-0.1,0.8-0.1,1.7-0.1,2.5c0,0.3,0,0.7-0.1,1.1c-0.1,0.4-0.1,0.9-0.1,1.3c-0.1,0.7-0.2,1.5-0.2,2.3
	c0,0.8-0.1,1.6-0.2,2.3c-0.3,1.2-0.5,2.4-0.7,3.5c-0.1,1.2-0.4,2.4-0.7,3.5c-0.7,3-1.7,5.7-2.9,8.2c-1.2,2.5-2.7,4.9-4.6,7.3
	c-2.2,2.7-4.7,4.5-7.3,5.5c-1.5,0.4-2.7,0.6-3.8,0.4c-1.6-0.4-3-1.3-4.2-2.7c-1-1.2-1.9-2.7-2.7-4.4c-0.4-0.9-0.8-1.8-1-2.7
	c-0.2-0.9-0.5-1.8-0.8-2.7c-0.1-0.6-0.3-1.1-0.3-1.6c-0.1-0.4-0.1-1-0.1-1.6c-0.1-1.3-0.3-2.6-0.3-3.9c-0.1-1.3-0.2-2.5-0.3-3.9
	c-0.1-2.7-0.1-5.4,0-8.2c0-1.2,0-2.4,0.1-3.7c0.1-1.3,0.2-2.5,0.3-3.7l0.7-5.3c0.1-0.7,0.3-1.5,0.4-2.3c0.1-0.8,0.4-1.6,0.7-2.3
	c0.1-0.7,0.3-1.4,0.4-2.1c0.1-0.7,0.4-1.4,0.7-2.1c0.3-1.2,0.6-2.1,0.9-2.7l0.2-0.2c0.1,0.1,0.2,0.3,0.2,0.3c0,0.1,0.1,0.2,0.2,0.3
	c2.5,4.3,6,7.5,10.4,9.7c0.7,0.3,1.4,0.6,2.1,0.8c0.7,0.2,1.4,0.5,2.1,0.8c1,0.3,2.1,0.6,3.1,0.8c1,0.2,2.1,0.5,3.1,0.8
	c0.7,0.3,1.8,0.6,3.3,0.9c0.6,0,1,0.1,1.3,0.2C264,158.6,264.1,158.7,264.1,159z M261.7,136.9l0.7,4c0.1,0.7,0.3,1.4,0.3,1.9
	c0.1,0.5,0.1,1.1,0.1,1.7c0.3,0.7,0.5,1.5,0.6,2.3c0.1,0.8,0.2,1.6,0.3,2.3v0.7H263c-1.6,0.1-3.5,0-5.8-0.4
	c-1.9-0.6-3.7-1.3-5.2-2.1c-1.5-0.8-3-2-4.3-3.7c-1.6-1.8-2.7-3.8-3.3-6c-0.3-0.7-0.5-1.4-0.6-2c-0.1-0.6-0.2-1.3-0.3-2
	c0-0.7,0.1-1.3,0.2-1.8c0.3-1.2,0.6-2.2,0.9-3.1c0.4-0.9,1.3-1.7,2.4-2.4c1.9-1.2,4.2-1.3,6.9-0.2c2.4,1.3,4.2,3.2,5.5,5.5
	c0.4,0.9,0.8,1.8,1.2,2.7C261.1,135.1,261.4,136,261.7,136.9z M185.1,212.1c-0.5-4.5,4.8-6.4,7.2-1.9c1.4,2.6,0.3,4.9-2.5,5.5
	C188,215.9,185.4,214,185.1,212.1z M181,230.7c-1.6,7-3.4,13.5-1.6,20.6c0.8,3.1,4,4.4,6.5,4.1c4.8-0.3,6.4-3.5,9.1-7
	c5.7-8.5,9.5-15.6,14.1-22.4c2.6,3.7,5.8,8.1,6.6,9.9c0,0-3,1.4-4.9,2.3c-7,4.6-8.2,15.7,0.7,18.5c2.7,1,7.2,0,9.4-1.6
	c4-2.7,5.2-9.8,3.8-14.5c-0.3-0.8-0.8-2-1.5-3.4c5-2,5.9-1.4,11.7-4.2c3.4-2.3,5.6-6,7.9-9.3c0.3-0.7,0.1-4-2-1.5
	c-2.5,2.7-3.7,6-6.8,8c-2.7,1.8-4.9,1.9-8.6,3.1c-0.3,0-2.3,0.4-3.8,1c-0.8-1.5-1.6-2.7-2-3.4c-2-3.5-4.8-7.5-5.3-8.2
	c2.6-2.7,6.7-6.3,7.2-10.1c0.8-4-1.6-7.9-4.9-8.6c-7.2-1.1-10.5,1.8-12.7,7.5c-1.1,4,0.5,6.5,1.5,8.9c0.3,0.5,1,1.6,2,3
	c-1.7,2-3.4,4.3-4.9,6.4c-1.1,1.2-4,6-4.1,6.3c-2.7,4.2-5.6,8-8.7,11.9c-0.7,0.8-1.5,1.8-2.5,2.3c-0.1,0.1,0.3-4,0.3-4.1
	c0.3-1.8,0.5-3.5,0.7-5.5c0.5-3.4,1-7,1.4-10.5c0.3-1.6,0.4-3.3,0.5-4.8c0.1-0.8,1-4.4,0.4-5.2c-0.8-1.5-5-0.4-6.3,0.7
	C182.8,222.6,181.6,228.7,181,230.7z M215.7,253.4c-5,5-9.5-5.6-4.1-11c1.2-1.2,3.4-2.5,5.6-3.1C220.2,244.4,219,250.4,215.7,253.4z
	 M211.2,211.8c1.1-2.6,3.4-4.8,5.5-4.4c4.5,0.5,2.2,5.6,0.3,7.5c-1.5,1.5-3.1,2.9-4.9,4C211.5,219.1,210.1,214.8,211.2,211.8z
	 M136.3,318.3c1.4-0.4,2.8-1.1,4-2c0.7-0.4,0.9-1.1,0.8-2c0-0.5-0.3-0.7-0.8-0.7c-0.4,0-0.9,0.1-1.5,0.2c-1.4,0.4-2.9,0.3-4.4-0.4
	c-1.7-0.8-3.2-2.1-4.4-3.8c-0.5-0.7-1-1.4-1.4-2.1c-0.4-0.7-0.8-1.4-1.3-2.2c-0.3-0.4-0.6-0.9-0.9-1.4c-0.3-0.5-0.5-1-0.7-1.5
	c-1-2.2-1.9-4.7-2.7-7.3c-1-3.5-1.9-6.9-2.7-10.2c-0.3-1-0.5-1.9-0.7-2.9c-0.2-1-0.4-2-0.6-3c-0.2-1.1-0.4-2.3-0.7-3.4
	c-0.2-1.2-0.4-2.3-0.7-3.4c-0.2-1.3-0.4-2.5-0.7-3.8c-0.2-1.3-0.4-2.5-0.7-3.8c-0.2-1-0.3-1.9-0.4-2.8c-0.1-0.9-0.3-1.8-0.4-2.7
	c-0.2-1-0.3-2-0.4-3c-0.1-1-0.3-2-0.4-3l-1-7.4c-0.1-0.3-0.1-0.6-0.1-0.9c0-0.3,0-0.6-0.1-1c-0.2-0.8-0.3-1.7-0.3-2.5
	c-0.1-0.9-0.1-1.7-0.2-2.5c-0.1-1-0.3-2.1-0.3-3.1c-0.1-1-0.2-2.1-0.3-3.1c0-0.7,0-1.3-0.1-1.7c-0.1-0.8-0.3-1.6-0.3-2.3
	c-0.1-0.7-0.2-1.5-0.3-2.3c-0.1-1.4-0.4-2.9-0.7-4.4c-0.1-0.8-0.4-1.6-0.6-2.3c-0.3-0.7-0.6-1.5-0.9-2.3c-1.1-1.9-2.7-2.9-4.7-2.9
	c-1.9,0-3.6,0.3-5.2,1c-1.5,0.7-2.7,1.7-3.6,3c-0.7,1-1.4,2.1-1.9,3.2c-0.5,1.1-1,2.2-1.5,3.3c-0.6,1.6-1.1,3.1-1.5,4.7
	c-0.4,1.6-0.8,3.2-1.2,4.9c-0.4,1.8-0.8,3.6-1,5.4c-0.1,0.8-0.3,1.6-0.4,2.5c-0.2,0.8-0.3,1.6-0.4,2.5c-0.1,0.7-0.3,1.4-0.3,2.1
	c-0.1,0.7-0.2,1.4-0.3,2.2c-0.1,0.7-0.3,1.3-0.3,2c-0.1,0.6-0.2,1.3-0.3,2c-0.1,0.7-0.3,1.3-0.3,2c-0.1,0.7-0.2,1.3-0.3,1.9
	c-0.1,0.8-0.3,1.7-0.5,2.5c-0.2,0.9-0.4,1.7-0.6,2.5c-0.1,0.7-0.3,1.3-0.5,2c-0.2,0.7-0.4,1.3-0.5,1.9c-0.1,0.4-0.3,0.6-0.8,0.6
	c-0.5-0.1-1-0.1-1.6-0.1c-0.5,0-1,0-1.6,0c-1,0.1-1.9,0.2-2.8,0.3c-0.9,0.2-1.9,0.3-2.8,0.4c-1.3,0.3-2.5,0.6-3.7,0.9
	c-1.2,0.3-2.4,0.8-3.6,1.4c-3.5,1.4-6.5,3.6-9,6.6c-1.3,1.5-2.4,3.1-3.2,4.9c-0.8,1.8-1.4,3.6-1.8,5.6c-0.2,0.6-0.2,1.2-0.3,1.9
	c0,0.7-0.1,1.3-0.3,1.9c-0.1,1-0.2,2-0.1,3c0.1,0.9,0.3,1.9,0.6,3c0.6,2.3,1.5,4.4,2.8,6.4c1.5,2.5,3.6,4.4,6.3,5.8
	c2.2,1,4.4,1.7,6.8,2.1c0.4,0.1,0.8,0.1,1.2,0.1c0.4,0,0.8,0,1.2,0.1c1.1,0.1,2.2,0.2,3.3,0.1c1.1-0.1,2.2-0.3,3.3-0.6
	c3.1-0.9,5.4-2.7,6.9-5.5c0.4-0.7,0.7-1.4,1.1-2.1c0.3-0.7,0.7-1.5,1.1-2.2c0.8-1.9,1.5-3.9,2.2-5.7c0.6-1.9,1.2-3.8,1.8-5.8
	c0.3-0.9,0.6-1.8,0.8-2.6c0.2-0.9,0.5-1.7,0.8-2.5c0.4-1.3,0.8-2.7,1.2-4c0.4-1.3,0.9-2.6,1.2-4c0.2-0.7,0.4-1.3,0.7-2
	c0.2-0.7,0.4-1.3,0.6-1.9c0.1-0.5,0.4-0.9,1.1-1h0.6l9.4-0.3h1.1c0.1,0.4,0.1,0.9,0.2,1.2c0,0.4,0.1,0.7,0.2,1.1
	c0.2,1.3,0.4,2.5,0.7,3.7c0.2,1.2,0.5,2.4,0.8,3.7c0.3,1.5,0.6,3,0.9,4.4c0.3,1.5,0.6,2.9,1,4.4c0.2,1.1,0.5,2.2,0.8,3.3
	c0.3,1.1,0.6,2.2,1,3.3c0.2,0.8,0.4,1.6,0.7,2.3c0.2,0.7,0.5,1.5,0.8,2.3c0.1,0.4,0.3,0.8,0.4,1.2c0.1,0.4,0.3,0.8,0.5,1.2
	c1.4,2.8,2.9,5.3,4.4,7.6c0.7,1.1,1.5,2.2,2.4,3.1c0.9,1,1.8,1.9,3,2.7c0.8,0.6,1.7,1.1,2.6,1.5c0.9,0.4,1.9,0.7,3,0.8
	C132.7,318.8,134.5,318.7,136.3,318.3z M82.1,273c0,0.4-0.1,0.7-0.3,1.1c-0.1,0.6-0.3,1.2-0.4,1.8c-0.1,0.6-0.2,1.2-0.4,1.8
	c-0.3,1-0.6,2.1-0.8,3.1c-0.2,1-0.5,2.1-0.8,3.1c-0.2,1-0.5,1.9-0.7,2.8c-0.3,0.9-0.5,1.8-0.8,2.8c-0.6,1.7-1.2,3.4-1.8,5.1
	c-0.6,1.7-1.4,3.3-2.2,5c-0.4,0.8-0.9,1.6-1.4,2.3c-0.5,0.7-1.1,1.5-1.7,2.1c-0.4,0.4-0.8,0.7-1.2,0.9c-0.4,0.2-0.9,0.4-1.4,0.4
	c-0.7,0-1.3-0.1-2-0.3c-1-0.4-2-0.9-2.9-1.5c-0.9-0.6-1.7-1.4-2.3-2.3c-0.6-0.7-1.1-1.5-1.4-2.3c-0.3-0.8-0.6-1.7-0.8-2.7
	c-0.4-1.5-0.5-3-0.3-4.6c0.4-2.8,1.2-5.5,2.3-7.9c1-2.2,2.4-4,4-5.5c1.6-1.5,3.5-2.8,5.6-3.9c1.8-0.9,3.6-1.6,5.5-2
	c1.9-0.4,3.8-0.7,5.8-0.7c0.3,0,0.5,0,0.7,0.1C82.2,272.2,82.2,272.6,82.1,273z M107.1,265.5h-2c-1.2,0-2.3,0-3.5-0.1
	c-1.1,0-2.3-0.1-3.5-0.2c-0.5,0-0.7-0.3-0.7-0.9c0.2-1,0.4-2,0.6-3c0.2-1,0.4-2,0.6-3c0.1-0.9,0.3-1.8,0.5-2.6
	c0.2-0.9,0.4-1.7,0.5-2.5c0.1-0.7,0.3-1.3,0.4-2c0.1-0.6,0.2-1.2,0.4-1.8c0.1-0.6,0.3-1.2,0.3-1.9c0.1-0.7,0.2-1.3,0.3-1.9
	c0.2-0.9,0.4-1.8,0.6-2.6c0.1-0.9,0.3-1.7,0.6-2.6c0.1-0.9,0.3-1.8,0.6-2.6c0.2-0.9,0.4-1.7,0.6-2.6h0.1c0.1,0.4,0.1,0.7,0.2,1.1
	c0,0.3,0.1,0.7,0.2,1.1c0.1,1,0.1,2.1,0.2,3.1c0.1,1,0.1,2,0.2,3.1c0.1,0.9,0.3,1.8,0.3,2.7c0.1,0.9,0.2,1.7,0.3,2.6
	c0.1,0.9,0.3,1.8,0.4,2.7c0.1,0.9,0.2,1.8,0.4,2.6c0.4,2.8,0.8,5.4,1,7.8c0,0.5,0,1,0.1,1.5c0.1,0.4,0.1,0.9,0.2,1.3V265.5z
	 M329.5,277.3c-0.4-0.4-0.8-0.7-1.3-0.9c-0.5-0.2-1,0-1.6,0.7c-0.4,0.4-0.7,0.9-1.1,1.3c-0.4,0.5-0.7,0.9-1.1,1.4
	c-1,1.8-2,3.3-3.1,4.5c-0.2,0.3-0.5,0.5-0.7,0.8c-0.3,0.3-0.5,0.5-0.8,0.9c-0.1-0.3-0.2-0.5-0.2-0.6c-0.1-0.2-0.2-0.3-0.2-0.5
	l-1-2.6c-0.2-0.6-0.5-1.2-0.7-1.7c-0.3-0.5-0.5-1.1-0.7-1.7c-0.2-0.7-0.5-1.3-0.7-1.8c-0.3-0.5-0.5-1.1-0.7-1.7
	c-0.3-0.7-0.6-1.3-0.8-2c-0.3-0.7-0.5-1.3-0.8-2c-0.2-0.4-0.3-0.8-0.5-1.3c-0.2-0.4-0.4-0.8-0.5-1.3c-0.2-0.4-0.3-0.8-0.4-1.1
	c-0.1-0.3-0.3-0.7-0.4-1.1c-0.1-0.3,0-0.5,0.1-0.6c0.4-0.8,0.8-1.5,1.2-2.2c0.4-0.7,0.8-1.4,1.2-2.2c0.7-1.3,1-2.8,0.9-4.5
	c-0.2-1.4-0.8-2.6-1.7-3.7c-1.2-1.3-2.7-1.9-4.6-1.9c-0.9,0-1.7,0.2-2.3,0.5c-1.5,0.6-2.8,1.7-3.8,3.3c-1.1,1.8-1.7,4.1-1.9,6.8
	c-0.1,0.7-0.1,1.3,0,1.8c0.1,0.5,0.2,1.2,0.3,1.8c0.1,0.6,0.3,1.1,0.4,1.6c0.1,0.5,0.3,1,0.5,1.5c0.1,0.4,0.3,0.8,0.3,1.1
	c0.1,0.3,0.2,0.7,0.3,1.1c0,0.3,0,0.6-0.1,0.8l-0.7,2.3c-0.2,0.7-0.4,1.3-0.7,2c-0.1,0.2-0.2,0.5-0.2,0.7c-0.1,0.2-0.2,0.3-0.3,0.5
	c-0.4,0.7-0.7,1.4-0.9,2.1c-0.2,0.8-0.4,1.5-0.7,2.3c-0.4,1.2-0.8,2.4-1.2,3.7c-0.4,1.3-0.8,2.5-1.2,3.8c-1.1,3.7-2.3,7.2-3.7,10.6
	c-0.5,1.3-1.1,2.5-1.8,3.6c-0.7,1.1-1.4,2.2-2.2,3.3c0.1,0,0,0.1-0.3,0.3v-0.5c0.1-0.3,0.1-0.5,0.1-0.8c0-0.3,0-0.5,0.1-0.8
	c0.1-1.1,0.1-2.1,0.2-3.1c0-1,0.1-2,0.2-3c0.1-0.8,0.1-1.7,0.2-2.5c0-0.8,0.1-1.7,0.2-2.5c0.1-1.3,0.1-2.5,0.2-3.8
	c0-1.3,0.1-2.5,0.3-3.8c0-0.6,0-1.2,0.1-1.7c0-0.5,0.1-1.1,0.2-1.7c0.1-0.4,0.1-0.9,0.1-1.3c0-0.5,0-0.9,0.1-1.3
	c0.1-1.1,0.1-2.1,0.2-3.1c0.1-1,0.1-2.1,0.2-3.1c0-0.8,0-1.5,0-2.3c0-0.8-0.1-1.6-0.2-2.3c-0.1-0.3-0.1-0.5-0.1-0.8
	c0-0.3,0-0.5-0.1-0.6c-0.2-0.5-0.3-1-0.5-1.4c-0.2-0.4-0.4-0.8-0.6-1.3c-0.2-0.4-0.3-0.8-0.5-1c-0.2-0.3-0.4-0.5-0.6-0.8
	c-1.3-1.3-2.9-2-4.8-2.1c-0.6-0.1-1.2-0.1-1.8-0.1c-0.6,0-1.2,0.1-1.8,0.3v0.5c-0.1,2.2-0.1,4.3-0.1,6.5c0,2.1,0,4.3-0.1,6.5v3.3
	l-0.3,5.7c0,0.5,0,1-0.1,1.5c0,0.5-0.1,1-0.2,1.4c-0.1,0.7-0.1,1.3-0.2,1.9c0,0.6-0.1,1.2-0.3,1.9c-0.1,0.5-0.1,1-0.2,1.5
	c0,0.5-0.1,1.1-0.3,1.6c0,0.2,0,0.3-0.1,0.4c-0.4,0.8-0.7,1.5-1.1,2.2c-0.4,0.7-0.8,1.4-1.3,2.1c-1.6,2.2-3.3,3.9-5.2,5.3
	c-1,0.7-2,1.1-3,1.4c-1.1,0.2-1.9-0.3-2.2-1.4c-0.3-0.6-0.4-1.3-0.2-2.3c0.1-1.3,0.1-2.5,0.1-3.8c0-1.3,0-2.6,0.1-3.8
	c0.1-1.3,0.1-2.5,0.2-3.8c0.1-1.3,0.1-2.5,0.2-3.8c0.1-0.5,0.1-1,0.1-1.4c0-0.5,0-0.9,0.1-1.4c0.1-0.4,0.1-0.9,0.1-1.3
	c0-0.5,0-0.9,0.1-1.4c0.1-0.9,0.1-1.8,0.2-2.8c0.1-0.9,0.1-1.8,0.2-2.8c0.1-0.9,0.1-1.9,0.1-2.9c0-1-0.1-2-0.3-3
	c-0.2-1.3-0.7-2.8-1.6-4.3c-0.5-0.8-1.2-1.5-2-2c-0.8-0.5-1.6-0.8-2.4-0.9c-0.7-0.2-1.3-0.2-2-0.2c-0.7,0-1.3,0.1-2,0.3
	c-0.2,0-0.4,0-0.6,0.1c-0.2,0.1-0.4,0.2-0.6,0.3v0.5c0.1,0.8,0.1,1.7,0.2,2.5c0,0.8,0.1,1.7,0.1,2.5v4.4c-0.1,1.7-0.1,3.4-0.1,5
	c0,1.7,0,3.4,0,5c0,0.4,0,0.8,0,1.2l-1.8,5.6c-0.4,1.2-0.7,2.3-1.1,3.5c-0.4,1.1-0.8,2.3-1.2,3.5c-0.5,1.3-1,2.7-1.6,4
	c-0.5,1.3-1,2.6-1.6,4c-0.2,0.3-0.3,0.6-0.5,0.9c-0.2,0.3-0.4,0.6-0.7,0.8c-0.3,0.3-0.6,0.3-0.9,0.1c-0.3-0.2-0.5-0.5-0.6-0.9v-0.5
	c0-0.4,0-0.8,0-1.3c0-0.4,0-0.8-0.1-1.3c0-2,0-4,0.1-6c0.1-2,0.2-4,0.3-6c0.1-1.7,0.1-3.3,0.2-4.8c0.1-1.6,0.1-3.1,0.2-4.7
	c0.1-1.3,0.1-2.5,0.2-3.7c0.1-1.2,0.1-2.4,0.2-3.6c0.1-1.8,0.3-3.7,0.3-5.4c0.1-1.8,0.2-3.5,0.3-5.3c0.1-0.2,0.1-0.3,0.1-0.3
	c0,0-0.1-0.1-0.1-0.2l-0.1-0.1c-1-0.4-2.1-0.7-3.1-0.8c-1-0.1-2,0-3.1,0.3c-1.3,0.5-2.3,1.3-3,2.5c-0.8,1.3-1.2,2.8-1.2,4.5v0.8
	h-0.1l-0.3-0.4c-0.9-1.1-1.8-2.1-2.8-3c-1-0.9-2.1-1.6-3.4-2.1c-1.1-0.6-2.4-1-3.8-1.3c-0.5-0.1-1-0.1-1.6-0.1c-0.5,0-1,0-1.6,0
	c-1.7,0-3.2,0.3-4.6,0.9c-2.5,1.3-4.4,3.1-5.9,5.4c-0.8,1.3-1.5,2.7-2.1,4.1c-0.6,1.4-1.1,2.8-1.6,4.3c-0.1,0.6-0.3,1.2-0.4,1.8
	c-0.1,0.6-0.2,1.2-0.4,1.9c-0.1,0.4-0.2,0.9-0.2,1.3c-0.2,0.3-0.4,0.6-0.8,0.9c-0.4,0.3-0.8,0.7-1.2,1c-0.4,0.3-0.8,0.6-1.3,0.9
	c-0.2,0.2-0.3,0.3-0.6,0.3v-0.3c0.1-0.4,0.1-0.9,0.2-1.4c0.1-0.5,0.1-1,0.2-1.5c0.1-0.9,0.1-1.9,0.2-2.8c0.1-1,0.1-1.9,0.2-2.8
	c0.1-2.3,0-4.5-0.3-6.8c-0.2-1.8-0.9-3.6-2.1-5.2c-1-1.3-2.1-2-3.5-2.3c-1.8-0.4-3.4-0.3-4.9,0.3c-1.2,0.3-2.3,1.1-3.2,2.4
	c-0.8,1-1.4,2.1-1.7,3.3c-0.3,1.2-0.6,2.5-0.7,3.7c-0.2,3,0.2,5.9,1.3,8.7c0.6,1.5,1.3,2.9,2.1,4.2c0.8,1.3,1.9,2.4,3.1,3.3
	c0.7,0.5,1,1.3,0.8,2.4c-0.3,1.1-0.6,2.2-0.8,3.3c-0.2,1.1-0.5,2.2-0.8,3.3c-0.2,0.7-0.3,1.4-0.4,2.1c-0.1,0.7-0.3,1.4-0.6,2.1
	c-0.6,1.8-1.5,3.2-2.6,4.4c-0.7,0.6-1.3,0.9-1.8,0.9c-1,0.1-1.7-0.3-2.3-1.3l-1-1.9c-0.4-0.8-0.7-1.5-0.9-2.3
	c-0.3-0.8-0.5-1.6-0.6-2.4c-0.1-0.4-0.3-0.8-0.3-1.3c-0.1-0.4-0.1-0.8-0.1-1.3c0-1.1,0-2.2-0.1-3.2c0-1-0.1-2.2-0.1-3.3
	c-0.1-1.3-0.1-2.5-0.1-3.8c0-1.3,0-2.5-0.1-3.8v-5.5c-0.1-0.7-0.1-1.3-0.2-1.8c-0.1-0.5-0.2-1.1-0.4-1.7c-0.4-1.2-1.2-2.1-2.2-2.8
	c-1.1-0.7-2.3-0.9-3.6-0.8c-0.9,0-1.7,0.5-2.3,1.5c-0.5,0.9-0.8,2-0.8,3.1c-0.1,0.9-0.2,1.9-0.3,2.9c0,1-0.1,2-0.2,2.9l-0.3,6
	c-0.1,0.3-0.1,0.7-0.1,0.9c0,0.3,0,0.6,0,0.8c-0.1,1.1-0.3,2.2-0.4,3.2c-0.1,1-0.3,2.1-0.4,3.2c-0.1,0.6-0.2,1.2-0.3,1.7
	c-0.1,0.5-0.2,1.1-0.4,1.6c-0.1,1-0.4,2-0.7,3c-0.3,1-0.6,2-1,2.9c-0.2,0.4-0.4,0.8-0.6,1.3c-0.2,0.4-0.4,0.8-0.7,1.3
	c-0.4,0.5-0.8,0.5-1.2,0.1c-0.5-0.3-1-1-1.5-1.9c-0.7-1.3-1.3-2.7-1.7-4.2c-0.4-1.5-0.7-3-1-4.5c-0.1-0.7-0.2-1.3-0.3-1.8
	c0-0.5-0.1-1.2-0.2-1.8c-0.2-0.8-0.3-1.5-0.3-2.3c-0.1-0.8-0.1-1.6-0.2-2.3c-0.1-0.8-0.1-1.5-0.1-2.3c0-0.8,0-1.5,0-2.3
	c-0.1-1.1-0.1-2.2-0.1-3.3c0-1.1,0-2.2-0.1-3.3c0-1.3,0-2.6-0.1-3.9c-0.1-1.3-0.3-2.6-0.6-3.9c-0.1-0.3-0.2-0.6-0.2-0.9
	c-0.1-0.3-0.1-0.5-0.2-0.9c-0.2-0.6-0.5-1.1-0.7-1.6c-0.3-0.5-0.5-0.9-0.8-1.3l-0.7-0.8c-1-1-2.4-1.6-4.1-1.8
	c-0.8-0.2-1.6-0.2-2.3,0c-0.7,0.2-1.5,0.4-2.3,0.8c-0.1,0-0.3,0-0.3,0.1c-0.1,0.1-0.2,0.2-0.3,0.3c0,0.3,0,0.4,0.1,0.5
	c0.1,0.4,0.2,0.8,0.2,1.3c0.1,0.4,0.1,0.8,0.2,1.3c0.1,0.8,0.2,1.7,0.3,2.5c0,0.8,0.1,1.6,0.3,2.5c0.1,1,0.1,2,0.2,3
	c0.1,1,0.2,2,0.3,3c0,0.5,0,0.9,0.1,1.1c0.1,0.8,0.1,1.5,0.2,2.3c0.1,0.8,0.1,1.5,0.2,2.3c0,0.3,0,0.5,0.1,0.8c-0.3,1-0.7,2.1-1,3.1
	c-0.4,1.3-0.8,2.6-1.3,4c-0.4,1.2-0.7,2.3-1.1,3.4c-0.4,1.1-0.7,2.2-1.1,3.4c-0.5,1.4-1.1,2.8-1.7,4.2c-0.6,1.4-1.2,2.8-1.9,4.2
	c-0.1,0.3-0.4,0.8-0.9,1.5c-0.1,0.3-0.3,0.3-0.7,0.1c0-0.9,0-1.6,0.1-2c0-0.9,0-1.8,0.1-2.8c0-0.9,0.1-1.8,0.1-2.8
	c0-0.8,0-1.5,0.1-2.3c0-0.8,0.1-1.6,0.1-2.4c0.1-1.1,0.1-2.2,0.1-3.3c0-1.1,0-2.2,0.1-3.4c0.1-1.2,0.1-2.3,0.1-3.5
	c0-1.2,0-2.3,0.1-3.5c0-0.9,0-1.9,0.1-2.8c0-1,0.1-1.9,0.1-2.8c0-0.8,0-1.5,0.1-2.3c0-0.8,0.1-1.5,0.1-2.3c0.1-1.1,0.1-2.2,0.1-3.3
	c0-1.1,0-2.2,0.1-3.4c0.1-1,0.1-2,0.1-3.1c0-1,0-2.1,0.1-3.1c0.1-1.2,0.1-2.3,0.2-3.5c0-1.2,0.1-2.3,0.2-3.5c0-0.4,0-0.9,0.1-1.3
	c0-0.5,0-0.9-0.1-1.4c0-1.3-0.1-2.7-0.3-4.2c-0.2-1.3-0.8-2.6-1.7-3.8c-1.1-1.3-2.6-2-4.5-2.3c-1.4-0.2-2.8,0-4.1,0.4
	c-0.4,0.1-0.5,0.3-0.4,0.6c0.1,0.9,0.2,1.8,0.2,2.6c0,0.8,0,1.7,0,2.5c0,1.2,0,2.4,0,3.5c0,1.2,0,2.4-0.1,3.5v0.3
	c0,1.7,0,3.4-0.1,5.1c0,1.7-0.1,3.4-0.1,5.1c-0.1,1.4-0.1,2.9-0.1,4.4s0,3-0.1,4.5c0,1.1,0,2.2-0.1,3.2c0,1.1-0.1,2.1-0.1,3.2
	c-0.1,0.4-0.1,0.8-0.1,1.1c0,0.3,0,0.7-0.1,1.1c0,1.2,0,2.3-0.1,3.5c0,1.1-0.1,2.3-0.2,3.5c-0.1,1.4-0.1,2.8-0.2,4.1
	c0,1.3-0.1,2.6-0.2,4c-0.1,1.3-0.1,2.5-0.1,3.7c0,1.2,0,2.5-0.1,3.7c0,2.2,0.4,4.1,1.1,5.8c0.4,0.9,0.8,1.8,1.3,2.5
	c0.5,0.8,1.1,1.4,1.8,2c0.8,0.8,1.7,1.3,2.7,1.4c0.6,0,1.2,0,1.7,0c0.5,0,1,0,1.6-0.1c0.8-0.2,1.5-0.5,2.1-0.9
	c0.6-0.5,1.2-1.1,1.7-1.7c0.5-0.6,1-1.3,1.6-2c0.4-0.7,0.8-1.4,1.2-2.2c0.3-0.8,0.7-1.6,1.1-2.3c0.5-1.3,1-2.5,1.5-3.8
	c0.5-1.3,0.9-2.6,1.3-3.9c0.2-0.8,0.4-1.6,0.7-2.3c0.1,0.7,0.1,1.3,0.3,2c0.2,1,0.4,2,0.7,3c0.8,2.7,1.9,5.2,3.3,7.4
	c1,1.4,2,2.7,3.2,3.7c1.2,1.1,2.6,1.8,4.1,2.2c1.8,0.5,3.6,0.5,5.4,0c2.5-0.8,4.6-2.3,6.4-4.5c0.2-0.3,0.4-0.5,0.6-0.8
	c0.2-0.3,0.4-0.5,0.6-0.8c0.4,0.4,0.7,0.8,0.9,1.2c0.3,0.4,0.5,0.7,0.8,1.1c1.7,2,3.8,3.3,6.1,3.9c1.9,0.4,3.7,0.3,5.4-0.3
	c2.5-0.8,4.7-2.5,6.5-5c1.1-1.6,2.1-3.3,2.9-5c0.8-1.8,1.5-3.6,2.1-5.5c0.3-0.9,0.6-1.9,0.8-2.9c0.2-1,0.4-2,0.7-2.9
	c0.1-0.3,0.3-0.5,0.4-0.5c0.2,0,0.5-0.1,0.8-0.3c1.1-0.3,2.2-0.9,3.2-1.8c0,0,0.1-0.1,0.1-0.1c0,0.6,0,1.1,0,1.6
	c0,0.8,0.1,1.6,0.2,2.5c0.1,0.8,0.2,1.7,0.3,2.5c0.1,0.8,0.3,1.7,0.4,2.5c0.3,1.7,0.7,3.4,1.3,5c0.4,1.1,0.9,2.2,1.5,3.3
	c0.4,0.8,0.8,1.6,1.3,2.3c0.5,0.7,1,1.4,1.6,2.1c0.6,0.7,1.2,1.3,1.8,1.8c0.6,0.5,1.3,0.9,2.1,1.3c0.4,0.2,0.8,0.3,1.2,0.4
	c0.4,0.1,0.9,0.2,1.2,0.3c0.8,0.1,1.7,0.1,2.5,0.1c0.9,0,1.7-0.1,2.5-0.4c1.5-0.4,2.9-1.3,4.4-2.6c1-0.9,1.9-2,2.7-3.1
	c0.7-1.1,1.4-2.4,2-3.7c0.1-0.2,0.1-0.3,0.2-0.5c0.1-0.2,0.1-0.3,0.2-0.5h0.1c0,0.1,0,0.1,0.1,0.1c0,0,0.1,0,0.1,0.1
	c0.1,1.1,0.4,2.4,0.9,3.8c0.4,0.9,0.8,1.8,1.3,2.5c0.5,0.8,1.2,1.5,1.9,2.1c0.4,0.4,0.9,0.8,1.4,1c0.5,0.3,1,0.4,1.6,0.4
	c0.4,0,0.8,0,1.2,0s0.8,0,1.2-0.1c1.3,0,2.5-0.5,3.6-1.5c0.4-0.4,0.8-0.9,1.2-1.3c0.3-0.5,0.7-1,1.1-1.6c0.4-0.6,0.7-1.2,1-1.8
	c0.3-0.6,0.6-1.2,0.9-1.9c0.4-0.9,0.7-1.9,1.1-2.8c0.2-0.7,0.5-1.4,0.8-2c0,0.2,0,0.3,0,0.5c0,0.8,0,1.6,0.1,2.4
	c0.1,0.8,0.2,1.5,0.4,2.3c0.4,1.6,0.9,2.9,1.7,4c0.4,0.8,1,1.4,1.6,1.8c0.6,0.5,1.3,0.9,2,1.3c0.7,0.4,1.5,0.6,2.2,0.6h1.9
	c1.5,0,2.9-0.3,4.1-0.9c2.5-1,4.8-2.6,6.8-4.9c0.6-0.7,1.1-1.3,1.6-2c0.4-0.6,0.9-1.3,1.3-2c0-0.3,0.1-0.5,0.4-0.4
	c0,0.2,0,0.3,0.1,0.5v3.3c0.1,0.7,0.1,1.3,0.1,1.9c0,0.6,0,1.2,0.1,1.9c0.1,0.9,0.1,1.8,0.1,2.7c0,0.9-0.1,1.8-0.2,2.7
	c0,0.3-0.1,0.5-0.2,0.6c-0.2,0.3-0.4,0.5-0.7,0.8c-0.2,0.3-0.4,0.5-0.7,0.6c-0.8,0.8-1.6,1.6-2.3,2.4c-0.7,0.8-1.5,1.5-2.3,2.3
	c-1,1.1-2,2.2-2.8,3.5c-0.9,1.2-1.6,2.5-2.2,4c-0.9,2-1.5,4.1-1.7,6.2c-0.2,1.8-0.3,3.5-0.2,4.9c0.1,2.5,0.6,4.8,1.5,6.8
	c0.4,0.8,0.8,1.6,1.3,2.3c0.5,0.7,1.1,1.4,1.8,2c1.4,1.2,2.9,1.9,4.4,2.3c1.5,0.3,3.1,0.3,4.7-0.1c2.4-0.6,4.2-2.2,5.5-4.8
	c0.4-0.9,0.8-1.9,1.1-2.8c0.3-1,0.6-2,0.8-3c0.1-0.8,0.3-1.6,0.3-2.4c0.1-0.8,0.2-1.6,0.3-2.4c0.1-0.3,0.1-0.5,0.1-0.8
	c0-0.3,0-0.5,0.1-0.8c0.1-0.7,0.1-1.4,0.2-2.1c0.1-0.7,0.1-1.4,0.2-2.1c0.1-1.1,0.1-2.2,0.2-3.2c0-1.1,0.1-2.1,0.2-3.1
	c0.1-1.6,0.1-3.1,0.2-4.7c0-1.5,0.1-3.1,0.2-4.7v-2.1c0-0.3,0.1-0.6,0.2-0.8c0.5-0.4,1-0.9,1.4-1.3c0.4-0.5,0.8-0.9,1.2-1.4
	c0.6-0.8,1.2-1.7,1.7-2.5c0.5-0.8,1-1.7,1.6-2.6c0.4-0.6,0.7-1.1,1-1.6c0.3-0.5,0.6-1.1,0.8-1.8l3-7.9c0.2-0.7,0.4-1.4,0.7-2.1
	c0.2-0.7,0.5-1.4,0.8-2.2c0.3-0.9,0.6-1.9,0.9-2.8c0.3-1,0.6-1.9,1-2.8c0.1-0.7,0.3-1.3,0.6-1.9c0.2-0.6,0.4-1.2,0.6-1.9
	c0-0.1,0-0.1,0.1-0.2c0.1-0.2,0.3-0.4,0.4-0.6c0.2-0.4,0.4-0.8,0.7-1.2c0.1-0.5,0.3-0.8,0.3-0.9l0.2,0.5c0.1,0.4,0.3,0.9,0.4,1.3
	c0.1,0.5,0.3,0.9,0.4,1.3l1,3c0.2,0.7,0.5,1.4,0.7,2.1c0.3,0.7,0.5,1.4,0.7,2.1c0.2,0.7,0.4,1.3,0.6,2c0.2,0.6,0.4,1.3,0.6,2
	c0.1,0.3,0.1,0.4,0,0.5l-1.1,1.3c-0.4,0.5-0.8,1-1.2,1.5s-0.9,1.1-1.2,1.6c-1,1.6-1.6,3.4-2,5.4c-0.1,0.3-0.1,0.7-0.1,1
	c0,0.3,0,0.7,0,1c-0.1,1.4,0.2,2.8,0.9,4.2c1.3,2.3,3,3.6,5.2,3.9c1.6,0.3,3.2,0,4.8-0.6c1.3-0.6,2.3-1.3,3-2.1
	c0.8-0.9,1.5-1.9,2-2.9c0.5-1,0.9-2.1,1.3-3.3c0.4-1.3,0.6-2.4,0.6-3.4c0.1-0.6,0.1-1.2,0.1-1.7s0-1.1,0-1.7c0-0.4,0-0.8-0.1-1.1
	c0-0.3-0.1-0.6-0.2-0.9c-0.1-0.3-0.1-0.6-0.2-0.9c-0.1-0.3-0.2-0.6-0.2-1.1c-0.2-0.5-0.3-0.9-0.3-1.3c-0.1-0.3,0-0.4,0.2-0.5
	c0.7-0.8,1.5-1.5,2.2-2.3c0.7-0.8,1.4-1.6,2-2.4c1.4-1.9,2.6-3.8,3.6-5.7c0.4-0.6,0.6-1.1,0.6-1.6
	C329.8,278.2,329.7,277.6,329.5,277.3z M197.1,274.7c0,0.7,0,1.3-0.1,1.9c0,0.6-0.1,1.2-0.1,1.8c0,0.7,0,1.3-0.1,1.9
	c0,0.6-0.1,1.2-0.1,1.8c0,0.2,0,0.3-0.1,0.3c0,0-0.1,0.1-0.1,0.3c-0.7-0.5-1.2-1-1.5-1.6c-0.8-1.4-1.4-3.1-1.8-4.9
	c-0.2-0.7-0.2-1.3-0.3-1.9c0-0.6-0.1-1.2-0.1-1.9c0-1.1,0.1-2,0.4-2.8c0.2-0.7,0.6-1.2,1.1-1.5c0.4-0.3,0.7-0.3,1.1,0
	c0.6,0.6,1,1.3,1.1,2.3c0.1,0.8,0.2,1.5,0.2,2.3C197.2,273.3,197.1,274,197.1,274.7z M235.6,280.5c0,0.6,0,1.2,0,1.8
	c-0.1,1.1-0.1,2.1-0.2,3.1c0,1-0.1,2-0.2,3v2.5c0,1-0.1,1.9-0.3,2.8c-0.5,1.8-1.3,3.7-2.2,5.5c-1.3,2.4-2.8,4.5-4.7,6.3
	c-0.4,0.3-0.7,0.6-1.1,0.9c-0.3,0.3-0.7,0.6-1.1,0.8c-0.6,0.3-1.2,0.4-1.8,0.3c-0.6-0.1-1.1-0.5-1.5-1.1c-0.4-0.5-0.7-1-0.8-1.6
	c-0.2-0.6-0.4-1.2-0.5-1.9c-0.2-0.6-0.2-1.1-0.3-1.6c0-0.5-0.1-1-0.2-1.5c-0.1-0.3-0.1-0.5-0.1-0.8c0-0.3,0-0.6-0.1-0.8
	c-0.1-0.8-0.1-1.7-0.1-2.5c0-0.8,0-1.7-0.1-2.6c0.1-0.9,0.1-1.9,0.2-2.9c0-1,0.1-2,0.2-2.9c0.1-0.7,0.1-1.4,0.2-2.1
	c0-0.8,0.1-1.5,0.2-2.1c0.1-0.8,0.3-1.5,0.4-2.3c0.1-0.8,0.3-1.6,0.4-2.3c0.1-0.8,0.3-1.5,0.5-2.3c0.2-0.8,0.4-1.6,0.6-2.3
	c0.3-0.9,0.6-1.8,0.9-2.6c0.3-0.8,0.7-1.6,1.3-2.3c0.4-0.6,0.8-1,1.2-1.1c0.3-0.2,0.6-0.3,0.8-0.3c0.9-0.2,1.7-0.1,2.5,0.3
	c0.7,0.3,1.5,0.8,2.1,1.5c0.9,1,1.7,2.3,2.5,3.8l1,2.3c0.2,0.6,0.4,1.2,0.4,1.7c0,0.5,0.1,1.1,0.1,1.7
	C235.6,279.3,235.6,279.9,235.6,280.5z M278.5,323.5c0,0.5,0,1-0.1,1.6c0,0.5-0.1,1.1-0.1,1.7c-0.1,0.9-0.1,1.8-0.2,2.6
	c0,0.8-0.1,1.7-0.1,2.6c-0.1,0.4-0.1,0.8-0.1,1.1c0,0.3,0,0.6-0.1,1.1l-0.3,3.8c-0.1,0.9-0.3,1.8-0.4,2.6c-0.2,0.8-0.4,1.7-0.8,2.6
	c-0.3,0.6-0.6,1.1-0.9,1.6c-0.7,0.9-1.5,1-2.6,0.3c-0.6-0.4-1-1.2-1.3-2.3c-0.4-1.8-0.4-3.5,0-5.3c0.1-0.5,0.1-1,0.2-1.5
	c0-0.5,0.1-1,0.3-1.4c0.4-1.8,1-3.6,1.7-5.2c0.7-1.6,1.6-3.2,2.6-4.6c0.2-0.4,0.5-0.8,0.8-1.1c0.3-0.3,0.6-0.6,1-0.9
	c0.1,0,0.2,0,0.3-0.1V323.5z M310.2,262.3c-0.1,0.3-0.2,0.5-0.4,0.8c-0.1-0.3-0.3-0.5-0.3-0.6c-0.4-0.6-0.7-1.2-1-1.8
	c-0.3-0.6-0.6-1.2-0.8-1.9c-0.3-0.8-0.4-1.5-0.4-2c-0.1-0.7,0.1-1.2,0.4-1.6c0.3-0.4,0.8-0.5,1.4-0.4c1.3,0.2,2.2,0.8,2.7,1.9
	c0.4,0.7,0.4,1.3,0.2,2c-0.1,0.6-0.3,1.1-0.6,1.6c-0.2,0.5-0.5,0.9-0.8,1.4C310.5,261.9,310.3,262.1,310.2,262.3z M313.2,304.9
	c-0.1,0.4-0.2,0.7-0.4,1.1c-0.4,0.6-0.9,1-1.3,1.3c-0.4,0.2-0.8,0.1-1.2-0.1c-0.4-0.2-0.7-0.5-0.9-0.8c-0.2-0.7-0.2-1.1-0.2-1.4
	c-0.1-0.6-0.1-1.2,0-1.9c0-0.5,0.1-1.1,0.4-1.8c0.3-0.4,0.6-0.8,0.8-1.3c0.3-0.4,0.6-0.8,0.9-1.3c0.1-0.2,0.3-0.3,0.4-0.4
	c0.1-0.1,0.2-0.3,0.4-0.4c0.1,0.2,0.1,0.3,0.2,0.5c0.1,0.2,0.1,0.3,0.2,0.5l0.7,1.9c0.2,1.1,0.3,2.1,0.2,2.9
	C313.3,304.2,313.2,304.6,313.2,304.9z M379.7,342.2c-1.3,8.8-4.1,16.9-11.8,22.3c-4.1,2.9-8.7,4.7-13.6,4.9
	c-6.1,0.2-11.3-2.6-14.8-7.6c-3.5-5-4.1-10.8-3.1-16.7c0.9-5.6,3.2-10.7,5.7-15.7c1.9-3.7,4-7.2,4.8-11.3c0.8-3.9,1.2-7.8-0.9-11.8
	c-0.4-1.8-1.9-3.3-3.4-4.7c-2-1.8-4.4-2.2-6.5-1c-2.5,1.4-4.3,4.4-4,6.8c0.3,1.9,2.2,3.2,3.8,2.6c0.4-0.1,0.7-0.6,1-0.1
	c0.3,0.5-0.1,0.9-0.5,1.1c-0.6,0.4-1.3,0.6-2,0.3c-1.5-0.6-2.6-1.5-3.2-3.1c-1.2-3.6,1.7-7.6,5-9c2-0.8,4-0.9,5.9,0.4
	c4.1,2.8,6.2,6.7,6.5,11.6c0.4,5.3-1.1,10.2-3.4,14.9c-1.8,3.6-3.9,7.1-5.2,10.9c-0.8,2.4-1.8,4.7-2.2,7.2c-0.1,0.3-0.3,0.8,0.1,0.9
	c0.3,0.1,0.4-0.4,0.5-0.6c1.6-3.7,4.6-5.9,8.1-7.4c2.5-1,5.1-1,7.6,0.3c5.4,2.8,6.9,11.2,2.5,14.8c-2.3,1.9-6.5,1.4-7.5-1.3
	c-0.7-1.6,0.4-3.8,1.9-3.9c0.4,0,0.7-0.1,0.9,0.3c0.1,0.3-0.1,0.6-0.4,0.6c-1.1,0.1-1.4,0.8-1.4,1.7c0,1,0.6,1.7,1.5,2.2
	c1.5,0.7,3.3,0.4,4.5-0.8c2.6-2.5,2.3-6.5,0.7-9.2c-1.5-2.6-3.7-4.5-7-4.3c-3.1,0.1-5.8,1.5-8,3.7c-5.8,5.8-5.5,17.5,1.4,22.6
	c3.6,2.7,7.5,4.7,12.2,4c2.5-0.4,4.9-1.1,7.2-2.1c5.3-2.4,9.6-5.9,12-11.3c1.9-4.3,3.5-8.7,3.8-13.5c0.4-5.7-0.2-11.3-2.1-16.7
	c-0.2-0.5-0.8-1.1,0.1-1.5c0.8-0.3,0.9,0.5,1.1,1C379.5,329.9,380.6,336,379.7,342.2z M356.6,363c6-1.4,9.9-5.6,12.9-10.7
	c3.5-6.1,4.1-12.6,2.9-19.4c-0.4-2.5-1-4.9-1.5-7.4c-0.1-0.3-0.3-0.6,0-0.8c0.4-0.2,0.6,0.1,0.8,0.4c0.1,0.2,0.2,0.4,0.3,0.6
	c1.5,5.3,2.5,10.8,2,16.3c-0.4,4.5-1.9,8.7-4.5,12.6c-2.6,3.9-5.8,7-10.1,9c-2.7,1.2-5.5,1.4-8.2,0.6c-2.1-0.6-4-1.7-5.1-3.7
	c-0.2-0.4-0.8-0.8-0.2-1.2c0.5-0.3,0.8,0.3,1.1,0.6c0,0,0.1,0.1,0.1,0.1C349.6,363.1,353,363.8,356.6,363z M340.1,319.8
	c1.2-4.7,1.4-9.5-1.8-13.8c-0.2-0.3-0.4-0.6-0.1-0.9c0.3-0.3,0.7-0.1,0.9,0.1c0.7,0.6,1.3,1.3,1.7,2.2c1.3,3.9,1.4,7.8,0.6,11.8
	c-0.8,4-2.7,7.8-4.3,11.5c-2.2,4.9-3.9,9.9-4.2,15.3c0,0.9,0.5,2.5-0.5,2.5c-0.9,0-0.8-1.8-0.7-2.8c0.2-4,1.1-7.9,2.7-11.6
	C336.3,329.4,338.8,324.8,340.1,319.8z M349.1,329.8c2.1-4.4,4.5-8.5,7.8-12c1.1-1.2,2.5-2.2,4.2-2.3c1,0,2,0.2,2.6,1.5
	c0.1,1.2,0.4,2.5-0.5,3.9c-1.5,2.3-3.7,3.6-6,4.8c-2.6,1.3-5.2,2.6-7,5.2c-0.3,0.4-0.6,0.5-1,0.3
	C348.8,330.7,348.9,330.3,349.1,329.8z M351,334.3c-0.2-0.5,0.3-0.7,0.6-1c1.9-1.6,4-3.1,6.5-4.2c1.1-0.3,2.2-1.1,3.6-1.2
	c2.3-0.1,3.7,0.9,4,2.8c0.3,1.8-0.9,3.4-3,3.9c-1.7,0.5-3.5,0.1-5.2,0c-1.8-0.1-3.6-0.7-5.4-0.2C351.7,334.6,351.2,334.8,351,334.3z
	 M325.5,312.1c-1.2,2.9-3.5,5.3-3.5,8.7c0,0.4-0.2,0.8-0.5,0.8c-0.6,0.1-0.8-0.5-0.9-0.9c-1-3.3-1.5-6.7-0.6-10
	c0.5-1.8,1.2-3.6,2.8-4.7c1.4-0.9,2.4-0.6,3.3,1.2C326.3,308.6,326.2,310.3,325.5,312.1z M367.3,341.9c0.6,1,0.6,2.2,0.5,3.3
	c-0.1,1.3-0.8,2.4-2.2,2.6c-1.2,0.2-1.7-0.8-2.1-1.8c-0.8-2-1.5-4.1-2.8-5.8c-0.5-0.7-0.5-1.5,0.7-1.7
	C363.7,338.2,366.3,339.6,367.3,341.9z M342.3,293.4c1.8,0,3.6,0.2,5.3,0.9c3.2,1.4,4.5,4.2,5.2,7.3c0.2,0.7,1,1.8-0.1,2.1
	c-1.2,0.3-0.9-1.1-1.1-1.7c-0.8-3.4-2.4-6-6-6.9c-1.9-0.5-3.7-0.6-5.6-0.1c-0.4,0.1-0.9,0.4-1-0.2c-0.2-0.6,0.4-0.8,0.8-0.9
	C340.7,293.8,341.5,293.6,342.3,293.4z M332.3,324.5c0.7-2.5,1.6-4.9,0.7-7.5c-0.1-0.3-0.1-0.8,0.3-0.8c0.5-0.1,0.7,0.3,1,0.7
	c0.2,0.8,0.3,1.7,0.2,2.6c-0.3,5-3.3,9.3-3.7,14.3c0,0.3-0.2,0.5-0.4,0.5c-0.2,0-0.4-0.3-0.4-0.5c-0.1-1.2-0.1-2.3,0.3-3.5
	C331.1,328.2,331.8,326.4,332.3,324.5z M323.4,321.6c-0.3-0.2-0.4-0.4-0.3-0.7c0.8-2.5,2.2-4.5,4.1-5.9c1.5-0.7,2.4-0.1,2.4,1.3
	c0.1,1.5-0.9,2.9-2.4,3.6c-1.1,0.5-2.4,0.5-3.2,1.7C323.9,321.8,323.7,321.8,323.4,321.6z M343.7,285.6c0.1-0.5,0.5-0.8,0.8-1.1
	c1.5-1.2,3.1-1,4.6-0.3c1.9,0.9,3.4,2.3,4,4.4c0.1,0.2,0,0.5-0.2,0.6c-0.2,0.2-0.6,0.1-0.8-0.1c-0.2-0.3-0.4-0.6-0.6-0.9
	c-0.9-1.3-1.9-2.5-3.5-3.1c-1.3-0.5-2.5-0.2-3.6,0.6C344.1,286.2,343.8,286.1,343.7,285.6z M359.9,307.2c0.5,1,1.5,1.1,2.4,0.8
	c1.1-0.4,1.5-1.6,0.9-2.8c-0.4-0.8-1.2-1.3-2.3-1C359.9,304.5,359.3,306.2,359.9,307.2z M361.2,305.2c0.4-0.2,0.8,0.1,1,0.5
	c0.2,0.4,0.3,0.9-0.2,1.2c-0.5,0-0.9,0-1.1-0.5C360.6,305.9,360.7,305.5,361.2,305.2z M355.9,313.6c0.9-0.4,0.6-1.3,0.5-2
	c-0.5-1-1.2-1.4-2.2-1c-0.9,0.4-0.8,1.2-0.5,1.9C354.1,313.4,355,314,355.9,313.6z M354.8,311.4c0.2-0.1,0.5,0,0.6,0.2
	c0.1,0.2,0.3,0.5,0,0.8c-0.4,0.1-0.5-0.1-0.7-0.4C354.6,311.8,354.5,311.6,354.8,311.4z M359.2,294.5c-0.8,0.4-1.1,1.1-0.7,1.9
	c0.4,0.8,1,1.2,1.9,1.1c1-0.6,1.1-1.4,0.7-2.3C360.7,294.3,360,294.2,359.2,294.5z M360,296.2c-0.1,0-0.3-0.1-0.4-0.1
	c-0.2-0.3-0.1-0.5,0.1-0.6c0.1,0,0.4,0.1,0.4,0.2C360.3,295.9,360.3,296.1,360,296.2z M368.2,313.5c-0.3-0.7-0.9-1.1-1.9-0.7
	c-0.9,0.4-1,1.1-0.7,1.9c0.3,1,1.1,1.2,2,0.9C368.4,315.2,368.7,314.5,368.2,313.5z M367.2,314.4c-0.2,0.1-0.4,0-0.5-0.3
	c0.1-0.1,0.1-0.3,0.2-0.4c0.2-0.1,0.5,0,0.5,0.3C367.4,314.1,367.3,314.3,367.2,314.4z M305.6,327.3c-0.7,0.4-1.3,1-1.9,1.5
	c-0.4,0.2-0.8,0.5-1.3,0.7c-0.4-3.5-4.2-6.7-7.5-6.6c-3.9,0-5.6,4.9-4.5,9.6c0.2,0.8,1.8,5.8,2.8,7.6c0.5,0.9,0.8,1.2,1.8,2.9
	c0.5,0.9,0.5,1.2,0.7,1.8c0.7,2.3,1,5.4,1.2,7.7c0,0.5,0.8,0.5,0.9,0c1.3-5.1,2.4-3.6,8.3-7.9c2.5-2.1,4-4,5.3-7.4
	C314.6,328.7,310.4,324.2,305.6,327.3z M305.7,340.1c-3,6.7-6.2,5.7-8,9.9c0-0.1-0.3-2.9-0.3-3.1c-0.4-3.7-1.3-3.5-2.2-7.8
	c-0.4-1.8-2.6-6.7-2.8-7.3c-1-2.7-0.7-5.7,0.8-6.5c0.6-0.5,1.1-0.8,1.9-0.9c2.2-0.2,5.6,1.7,6.5,4.6c0.1,0.7,0.1,0.4,0.1,1.2
	c0,0.3,0.3,0.5,0.6,0.4c0,0,2.1-1,2.1-1c3.8-2.9,4.6-1.8,5.6-0.7c0.3,0.3,0.6,0.8,0.6,1.2C310.9,333.2,307.7,335.8,305.7,340.1z
	 M150.4,327.9c-2.1-0.3-3.5,0.7-4.9,2.2c0.1-5.2-11-7.2-10.9,3.8c0.2,4.9,3.6,8.2,4.7,13.4c0,0.2,0.4,2,0.5,2.2
	c0.2,0.3,0.6,0.4,0.9,0.1c2.8-2.1,4-2.6,6.4-5.2c3.4-3.6,2.3-1.8,4.3-4.7C153.5,337,155.6,329.1,150.4,327.9z M147.4,340.7
	c-0.4,0.9-1.1,1.9-1.7,2.4c-2.6,2.6-2.8,3.2-5,4.8c-1.1-5-0.6-4.8-1.4-7c-0.8-2.2-2.4-5.3-2.1-7.9c0.4-3.6,1.2-4.5,3.9-4.6
	c2-0.1,2.7,0.9,2.4,2c-0.2,0.8-0.2,0.4-0.1,2.2c0,0.9,1.1,1.2,1.6,0.5c0.9-1.2,2.9-3.4,4.4-3.1c0.1,0,0.1,0.1,0.2,0.1
	c0.1,0.1,0.1,0.1,0.2,0.2c0.3,0.5-0.3-0.4,0.5,0.7c-0.2-0.2,0-0.1-0.1-0.1C151.3,334.4,148.8,337.7,147.4,340.7z M97.3,336.1
	c3.6,3.1,5.1,4.2,6.7,6.3c0.9,1.1,2.1,0.6,2.3-0.3c2.9-12.2,6.7-10,7-19c0-2.2-0.3-4.3-1.8-5.8c-1.6-1.7-4.7-2.3-7.7,0.6
	c0,0-0.3,0.2-0.1,0.1c-1,1.5-1.1,1.8-1.5,2.7C95.8,309.7,82.5,323.2,97.3,336.1z M103.6,324.5c0.3-1,1-2.3,1.3-2.7
	c0.4-0.7,0.8-0.8,1.4-1.2c0.1-0.1-0.2,0.2-0.1,0.1c0.2-0.1,0,0,0.3-0.1c2.1-0.7,3,1.1,2.9,2.4c-0.1,1.3,0.1-0.1-0.2,1.6
	c0-0.2,0,0,0-0.1c-0.7,2.2-1.5,3.4-2.5,5.7c-1.8,4-1.3,5.5-2.1,8.4c-2.7-3.6-7.7-8.9-8.3-12.5c-0.3-1.1-0.9-5.1,0.1-5.8
	c0.2-0.2,0.7-0.3,1.2-0.2c0.2,0,0.5,0.2,0.8,0.3c1.3,1,2.1,1.7,2.7,4C101.4,325.8,103.2,325.8,103.6,324.5z M374.3,259.8
	c0.1,2.2-1.5,3.2-3.3,3.9c-4.7,1.7-9.8-1.8-14.3-2.8c-5.7-1.3-11.9-0.2-17.4,1.7c-1.6,0.6-3.1,1.4-4.5,2.4c-1.5,1.1-2.1,1.5-2.1-0.7
	c0.1-3.8,0.5-7.8,0-11.6c-0.4-2.7-1-5.5-1.7-8.1c-1.2-4-3.6-7.1-6.6-9.9c-2.1-2-4.6-4.4-6.1-7.1c-0.5-0.9-0.9-1.9-1.1-2.9
	c-0.5-2.6,1.3-4.4,3.9-4.2c2.6,0.2,4.7,2.2,6.2,4.2c1.9,2.6,3.3,5.6,4.6,8.6c1.7,4,3.7,7.6,4.5,12c0.2,1.2,0.2,2.5,0.5,3.7
	c0.3,1.3,0.4,2.1,1.6,1.8c1-0.3,2.5-1.5,3.2-2.3c0.6-0.6,1.6-2.2,2.8-1.6c2.3,1.1-2,6.6-1.8,8.3c0.2,2.2,2.7,1.3,4.1,0.8
	c6.5-2.1,14.9-3.4,21.6-1.3C371,255.7,374.2,256.5,374.3,259.8z M346.2,241.8c2,0,2,3.3,0.1,2.9l-1.7-0.4
	C342.6,243.9,345.1,241.8,346.2,241.8z M347.8,239.2l-0.8-0.4c-1.7-0.6-0.2-2.7,1.1-2.2C349.5,237.1,349.2,239,347.8,239.2z
	 M346.8,252.3c2.2-1.7,4.4-3.3,7-4.5c1.3-0.6,2.5-1.2,3.9-1.5c1.5-0.3,3.8-0.9,5.4-0.5c1.3,0.3,2.1,1.6,1.3,2.9
	c-0.9,1.4-3.7,1.5-5.3,1.7c-2,0.3-4.2,0.2-6.1,0.6c-1.7,0.4-3.2,1.3-4.8,2c-0.3,0.2-0.7,0.3-1,0.4
	C345.5,254.1,345.9,253,346.8,252.3z M338.7,242.9c0-1.5-0.4-3.1-0.7-4.5c-0.4-1.6-3.1-6-0.5-6.9c4.9-1.5,3.4,12.1,2.8,14.3
	c-0.1,0.4-0.7,2.3-1.3,2.2C338.1,247.8,338.7,243.5,338.7,242.9z M286.4,248.7c0.3,0.4,0.9,0.5,1.3,0.2c4.2-3,5.8-3.9,9.5-7.6
	c4.9-5.3,3.4-2.7,6.3-6.9c3-4.1,6.2-15.6-1.6-17.5c-3-0.4-5.1,1-7.2,3.2c0.2-7.7-16.2-10.6-16,5.6c0.4,7.2,5.3,12.1,6.9,19.7
	C285.7,245.8,286.2,248.5,286.4,248.7z M282.7,224.6c0.6-5.3,1.8-6.6,5.8-6.7c3-0.1,3.9,1.4,3.5,2.9c-0.3,1.1-0.2,0.6-0.2,3.2
	c0,1.3,1.6,1.7,2.3,0.8c1.3-1.7,4.3-5,6.4-4.5c0.1,0.1,0.2,0.1,0.3,0.2c0.1,0.1,0.2,0.2,0.2,0.3c0.4,0.7-0.5-0.5,0.7,1.1
	c-0.2-0.3-0.1-0.1-0.1-0.1c1.6,4.9-2,9.7-4.1,14.2c-0.6,1.3-1.6,2.7-2.5,3.6c-3.8,3.9-4.1,4.6-7.3,7c-1.6-7.3-0.9-7-2.1-10.2
	C284.6,232.9,282.3,228.5,282.7,224.6z M147.9,227.9c3.6,3.1,5.1,4.2,6.7,6.3c0.9,1.1,2.1,0.6,2.3-0.3c2.9-12.2,6.7-10,7-19
	c0-2.2-0.3-4.3-1.8-5.8c-1.6-1.7-4.7-2.3-7.7,0.6c0,0-0.3,0.2-0.1,0.1c-1,1.5-1.1,1.8-1.5,2.7C146.4,201.5,133.1,215,147.9,227.9z
	 M154.2,216.3c0.3-1,1-2.3,1.3-2.7c0.4-0.7,0.8-0.8,1.4-1.2c0.1-0.1-0.2,0.2-0.1,0.1c0.2-0.1,0,0,0.3-0.1c2.1-0.7,3,1.1,2.9,2.4
	c-0.1,1.3,0.1-0.1-0.2,1.6c0-0.2,0,0,0-0.1c-0.7,2.2-1.5,3.4-2.5,5.7c-1.8,4-1.3,5.5-2.1,8.4c-2.7-3.6-7.7-8.9-8.3-12.5
	c-0.3-1.1-0.9-5.1,0.1-5.8c0.2-0.2,0.7-0.3,1.2-0.2c0.2,0,0.5,0.2,0.8,0.3c1.3,1,2.1,1.7,2.7,4C152,217.6,153.8,217.6,154.2,216.3z
	 M273.6,226.5l-7.8,5.7l3,9.2l-7.8-5.7l-7.8,5.7l3-9.2l-7.8-5.7h9.6l3-9.2l3,9.2H273.6z"/>
</svg>
