<?xml version="1.0" encoding="utf-8"?>
<!-- Generator: Adobe Illustrator 18.0.0, SVG Export Plug-In . SVG Version: 6.00 Build 0)  -->
<!DOCTYPE svg PUBLIC "-//W3C//DTD SVG 1.1//EN" "http://www.w3.org/Graphics/SVG/1.1/DTD/svg11.dtd">
<svg version="1.1" id="Layer_1" xmlns="http://www.w3.org/2000/svg" xmlns:xlink="http://www.w3.org/1999/xlink" x="0px" y="0px"
	 viewBox="0 0 432 432" enable-background="new 0 0 432 432" xml:space="preserve">
<path fill="#333333" d="M169.6,12.3c0-0.9,0.3-1.5,0.9-1.9c0.6-0.4,1.3-0.7,2.1-0.8c0.8-0.1,1.6-0.1,2.2-0.1h15c0.7,0,1.4,0,2.2,0.1
	c0.8,0.1,1.5,0.3,2.1,0.8c0.6,0.4,0.9,1.1,0.9,1.9c0,0.6-0.3,1.1-0.9,1.6c-0.6,0.5-1.5,0.7-2.7,0.7h-3.9c-0.6,0-0.9,0.3-0.9,0.9
	v43.4c0,4-1.5,6-4.6,6c-1.3,0-2.3-0.3-2.9-0.9c-0.4-0.4-0.7-0.9-0.9-1.5c-0.3-0.8-0.4-2.1-0.4-3.9V15.4c0-0.6-0.3-0.9-0.8-0.9h-3.9
	c-1.2,0-2.1-0.2-2.7-0.7C169.9,13.4,169.6,12.8,169.6,12.3z M202,64.8c1.7,0,2.9-0.7,3.7-2.2c0.5-1,0.7-2.3,0.7-3.8v-9
	c0-7.4,0.9-13.3,2.6-17.6c1.5-3.8,3.5-5.7,5.8-5.7c1.7,0,2.8,1.6,3.4,4.8c0.3,1.9,0.5,4.3,0.5,7.2c0,6-0.3,12-0.8,18
	c-0.2,2.3-0.3,4.1-0.3,5.4c0,1.9,1.1,2.9,3.3,2.9c1.2,0,2-0.4,2.4-1.2c1.3-2.5,1.9-10.9,1.9-25.2c0-3.4-0.3-6.3-0.8-8.6
	c-1.2-5.3-4-8-8.4-8c-3.5,0-6.4,2-8.7,5.9c-0.3,0.5-0.5,0.7-0.6,0.7s-0.2-0.3-0.2-0.9V15.1c0-2.3-0.3-3.9-0.9-4.9
	c-0.6-0.9-1.6-1.4-3.1-1.4c-2.9,0-4.4,2-4.4,6v43.7c0,1.1,0.1,2.1,0.2,3C198.6,63.7,199.8,64.8,202,64.8z M231.5,54.9
	c-0.8-3.1-1.2-6.4-1.2-10.1c0-9.4,2-16,6.1-19.9c2.1-2,4.7-3.1,7.6-3.1c3.7,0,6.2,1.6,7.7,4.7c1.1,2.4,1.7,5.4,1.7,9
	c0,5.4-1.6,9.5-4.9,12.1c-2.3,1.8-5.1,2.8-8.5,2.9c-0.6,0-0.9,0.4-0.9,1.1c0,1.6,0.5,3.1,1.4,4.7c1.2,2.3,2.8,3.4,4.7,3.4
	c2,0,3.5-1.5,4.7-4.5c0.3-0.9,1-1.3,1.9-1.3c0.5,0,0.9,0.2,1.3,0.5c0.4,0.3,0.5,0.8,0.5,1.3c0,0.2,0,0.4-0.1,0.6
	c-0.6,2.4-1.8,4.4-3.7,6c-1.8,1.5-4.1,2.3-7,2.3C236.9,64.8,233.1,61.5,231.5,54.9z M238.7,44.7c0,1.1,0.3,1.6,1,1.6
	c1,0,2.2-0.3,3.8-1c1.5-0.6,2.8-1.7,3.8-3.2c1-1.5,1.5-3.6,1.5-6.2c0-2.2-0.2-3.9-0.5-5.4c-0.6-2.4-1.8-3.6-3.6-3.6
	C240.9,27,238.9,32.9,238.7,44.7z M97.7,201.2c2.1,7.8,3.9,17.1,5.3,27.9c0.2,1.4,0.3,2.6,0.3,3.5c0,1.1-0.1,1.9-0.4,2.5
	c-0.4,1-1.1,1.5-2.3,1.5c-1.4,0-2.1-0.9-2.4-2.8c-0.3-2.6-0.6-5.2-0.9-7.8c-0.1-0.9-0.7-1.4-1.7-1.4h-8.2c-0.9,0-1.5,0.5-1.6,1.5
	c-0.1,0.6-0.2,1.6-0.4,2.8c-0.1,1.2-0.3,2.3-0.4,3.3c-0.3,2.9-1.8,4.4-4.4,4.4c-2.2,0-3.3-1.2-3.3-3.5c0-0.5,0.2-2.2,0.5-4.9
	s0.9-6.4,1.6-11.1c1.3-7.9,2.7-14.4,4.4-19.6c1.5-4.5,3.5-6.7,6.1-6.7c2.1,0,3.9,1.2,5.2,3.7C96.1,196,97,198.3,97.7,201.2z
	 M96.5,219.6c0-0.2-0.3-2.2-0.9-6.1c-1.6-10.3-2.9-15.5-3.9-15.5c-0.7,0-1.9,5.1-3.7,15.4c-0.7,4-1.1,6.1-1.1,6.3
	c0,0.7,0.4,1.1,1.2,1.1h7.1C96.1,220.8,96.5,220.4,96.5,219.6z M119.3,221.9c0,0.2,0.7,1.1,2.1,2.8c0.5,0.6,1,1.2,1.5,1.8
	c3.3,4.2,5,6.8,5,7.8c0,0.7-0.2,1.3-0.7,1.7c-0.4,0.4-1,0.6-1.8,0.6c-1.3,0-2.7-1.1-4.1-3.4c-1.5-2.4-3.4-5.4-5.6-9.1
	c-0.4-0.5-0.7-0.8-0.8-0.8c-0.2,0-0.3,0.4-0.3,1.1v7.3c0,3.3-1.2,4.9-3.7,4.9c-1.1,0-1.9-0.2-2.4-0.7c-0.5-0.5-0.8-1.1-0.9-1.9
	c-0.1-0.8-0.2-1.6-0.2-2.5v-35.5c0-3.4,1.7-5.1,5.1-5.1c3.9,0,7.3,1,10.2,2.9c3.4,2.3,5,5.8,5,10.6c0,3.4-0.6,6.6-1.8,9.4
	c-1.4,3.4-3.6,6-6.4,7.8C119.4,221.6,119.3,221.7,119.3,221.9z M121.6,211.7c0.8-2.3,1.2-4.7,1.2-7.1c0-1.7-0.3-3.2-0.8-4.6
	c-1.1-3-3.3-4.5-6.5-4.5c-0.7,0-1,0.3-1,1v21.9c0,0.7,0.3,1,0.9,1c0.8,0,1.9-0.8,3.2-2.3C120,215.6,121,213.8,121.6,211.7z
	 M137.5,235.4c1.5,0.8,3.6,1.2,6.2,1.2c3.1,0,5.2-0.3,6.5-0.8c1.3-0.5,1.9-1.3,1.9-2.2c0-0.5-0.2-0.9-0.6-1.1
	c-0.4-0.2-0.8-0.4-1.3-0.4c-0.8,0-1.5,0-2.3,0.1c-0.8,0.1-1.5,0.1-2.3,0.1c-2.4,0-4-0.6-4.9-1.8c-0.5-0.8-0.8-1.9-0.8-3.4v-1.4
	c0-0.8,0.5-1.2,1.4-1.2l6.1,0.1c0.7,0,1.3-0.2,1.6-0.5s0.6-0.7,0.6-1.2c0-0.8-0.3-1.4-0.9-1.8c-0.5-0.3-1.2-0.4-2.2-0.4
	c-0.8,0-1.7,0-2.5,0.1c-0.8,0-1.7,0.1-2.5,0.1c-0.5,0-1-0.1-1.2-0.4c-0.3-0.3-0.4-0.8-0.4-1.7v-20.9c0-1.6,0.7-2.4,2.1-2.4
	c0.7,0,1.5,0,2.2,0c0.8,0,1.5,0,2.2,0c1,0,1.8-0.2,2.3-0.6c0.5-0.4,0.8-0.9,0.8-1.3c0-1.3-0.8-2-2.4-2.2c-0.7-0.1-1.3-0.1-1.8-0.1
	h-7.9c-2.3,0-3.7,1-4.3,2.9c-0.3,0.9-0.4,2-0.4,3.3v24.7c0,1.9,0.1,3.7,0.2,5.4C133.3,231.3,134.8,233.9,137.5,235.4z M181.7,232
	c-0.6,0-1.2,0-1.7,0.1c-0.5,0.1-1.7,0.1-3.6,0.1c-1.5,0-2.2-0.9-2.2-2.8v-33.8c0-1.5-0.3-2.7-0.9-3.5c-0.6-0.9-1.6-1.4-2.9-1.4
	c-1.4,0-2.3,0.5-2.8,1.4c-0.4,0.7-0.6,2-0.6,3.8v32c0,2.8,0.5,5,1.6,6.4c1.1,1.5,3,2.2,5.8,2.2c2.6,0,4.6-0.2,6.1-0.6
	c2-0.5,3-1.4,3-2.5c0-0.5-0.2-0.9-0.6-1.1C182.6,232.2,182.2,232,181.7,232z M207.7,224.3c-1.7,8.2-5.7,12.3-12.2,12.3
	c-2.4,0-4.4-0.5-5.9-1.5c-1.6-1-2.9-2.3-3.9-4c-1-1.6-1.7-3.5-2.3-5.5c-0.5-2-0.9-4.1-1-6.2c-0.2-2.1-0.2-4.1-0.2-6
	c0-7.3,1.3-13,3.8-17.1c2.3-3.6,5.6-5.5,10-5.5c6,0,9.9,3.9,11.8,11.7c0.7,2.8,1,5.9,1,9.2C208.8,216.5,208.5,220.7,207.7,224.3z
	 M204.3,211.4c0-2.9-0.2-5.6-0.7-8.1c-0.5-3-1.4-5.2-2.6-6.7c-1-1.2-2.2-1.8-3.7-1.8c-2.5,0-4.4,1.6-5.6,4.7
	c-1.3,3.2-1.9,7.7-1.9,13.4c0,6.2,0.7,11.1,2,14.6c1.2,3.1,2.8,4.7,5,4.7c3.3,0,5.5-2.9,6.7-8.6C204,220.6,204.3,216.6,204.3,211.4z
	 M214.8,225.6c-0.5-2-0.9-4.1-1-6.2c-0.2-2.1-0.2-4.1-0.2-6c0-7.3,1.3-13,3.8-17.1c2.3-3.6,5.6-5.5,10-5.5c6,0,9.9,3.9,11.8,11.7
	c0.7,2.8,1,5.9,1,9.2c0,4.8-0.4,9-1.1,12.6c-1.7,8.2-5.7,12.3-12.2,12.3c-2.4,0-4.4-0.5-5.9-1.5c-1.6-1-2.9-2.3-3.9-4
	C216.1,229.4,215.4,227.6,214.8,225.6z M221.1,212.8c0,6.2,0.7,11.1,2,14.6c1.2,3.1,2.8,4.7,5,4.7c3.3,0,5.5-2.9,6.7-8.6
	c0.6-2.9,0.9-7,0.9-12.2c0-2.9-0.2-5.6-0.7-8.1c-0.5-3-1.4-5.2-2.6-6.7c-1-1.2-2.2-1.8-3.7-1.8c-2.5,0-4.4,1.6-5.6,4.7
	C221.8,202.7,221.1,207.1,221.1,212.8z M252.6,192.3c-0.6-1-1.6-1.6-3-1.6c-1.2,0-2.1,0.4-2.6,1.1c-0.5,0.7-0.8,2.1-0.8,4v35.5
	c0,0.9,0.1,1.7,0.2,2.5c0.3,1.8,1.4,2.7,3.3,2.7c1.5,0,2.6-0.6,3.2-1.9c0.4-0.8,0.6-1.8,0.6-3v-6.8c0-0.7,0.1-1.1,0.4-1.1
	c0.2,0,0.4,0.2,0.8,0.6c4.1,5.2,7,8.7,8.9,10.6c1.1,1.1,2.1,1.6,3.1,1.6c0.6,0,1.2-0.2,1.7-0.6c0.5-0.4,0.8-0.9,0.8-1.5
	c0-0.9-0.5-1.9-1.6-3c-3.4-3.6-6.8-7.2-10.1-10.8c-0.4-0.5-0.6-0.9-0.6-1.2c0-0.3,0.1-0.7,0.4-1.2c2.2-3.8,4.2-7.4,6-10.7
	c1.8-3.3,3.2-6.3,4.3-8.8c1.1-2.6,1.6-4.6,1.6-6.1c0-0.5-0.2-0.9-0.5-1.2c-0.3-0.3-0.7-0.5-1.3-0.5c-0.8,0-1.4,0.2-1.8,0.6
	c-0.5,0.4-0.9,1.1-1.3,2.1c-2.5,6.4-5.8,13.9-9.8,22.4c-0.3,0.6-0.5,0.9-0.6,0.9c-0.2,0-0.3-0.4-0.3-1.1v-20
	C253.3,194.3,253.1,193.2,252.6,192.3z M275.8,232.3c-0.2,0.2-0.6,0.2-1.1,0.2c-1.6,0-2.4,0.6-2.4,1.9c0,1,0.7,1.5,2.2,1.5h9.9
	c1.6,0,2.4-0.5,2.4-1.4c0-0.7-0.3-1.3-1-1.7c-0.3-0.2-0.9-0.3-1.8-0.4c-0.5,0-0.7-0.3-0.7-0.8v-36.3c0-0.5,0.3-0.8,0.8-0.8
	c0.9,0,1.6-0.1,1.9-0.3c0.7-0.4,1-0.9,1-1.7c0-0.9-0.8-1.4-2.4-1.4h-10c-1.6,0-2.4,0.5-2.4,1.4c0,0.8,0.3,1.3,1,1.7
	c0.3,0.2,0.9,0.3,1.8,0.3c0.6,0,0.9,0.4,0.9,1v35.8C276.1,231.9,276,232.2,275.8,232.3z M298.5,231.6v-16.7c0-0.9,0.1-1.4,0.4-1.4
	c0.2,0,1.4,1.7,3.4,5.1c3.8,6.6,6.8,11.5,8.8,14.8c0.9,1.5,2,2.2,3.3,2.2c1.7,0,2.5-1,2.5-2.9v-38.2c0-2.5-0.8-3.8-2.5-3.8
	c-0.8,0-1.4,0.3-1.7,1c-0.3,0.6-0.5,1.6-0.5,2.8v29.2c0,0.8-0.1,1.3-0.4,1.3c-0.2,0-0.6-0.4-1-1.1l-7-11.5
	c-3.7-6.1-5.6-11.7-5.6-16.8c0-1.6-0.3-2.8-1-3.6c-0.6-0.8-1.5-1.2-2.5-1.2c-1.2,0-2.1,0.4-2.6,1.1c-0.5,0.7-0.8,2.1-0.8,4v35.5
	c0,2.1,0.3,3.4,0.8,4.1c0.6,0.7,1.4,1,2.6,1C297.2,236.5,298.5,234.9,298.5,231.6z M342.2,210.6c0,1,0.2,1.6,0.6,2
	c0.3,0.3,0.7,0.5,1.4,0.5c0.8,0,1.4-0.7,1.9-2.2c0.4-1.4,0.6-3.4,0.6-6c0-4-0.7-7.3-2-9.7c-1.6-2.9-4.3-4.4-8.1-4.4
	c-2.5,0-4.6,0.5-6.3,1.5c-5.1,3.1-7.7,10.1-7.7,21c0,8.1,1.4,14.2,4.1,18.3c2.2,3.3,5.3,4.9,9.3,4.9c1.9,0,3.7-0.5,5.3-1.6
	c1.6-1.1,2.9-2.4,3.8-4.1c0.9-1.7,1.4-3.4,1.4-5.3c0-2.2-0.6-3.6-1.9-4.2c-1-0.5-3.1-0.7-6.3-0.7c-1,0-1.8,0.2-2.3,0.5
	c-0.5,0.3-0.8,0.9-0.8,1.7c0,0.5,0.2,0.9,0.6,1.4c0.4,0.4,0.9,0.6,1.7,0.6l1.4,0c0.9,0,1.8-0.1,2.7-0.1c0.9,0,1.3,0.3,1.3,1
	c0,1-0.3,2-0.8,2.9c-0.5,0.9-1.3,1.7-2.1,2.3c-0.9,0.6-1.9,0.9-2.9,0.9c-2.2,0-3.8-1.8-5-5.3c-1.3-3.8-1.9-8.7-1.9-14.8
	c0-5.8,0.8-10.2,2.3-13.2c1.3-2.6,3.1-3.9,5.5-3.9c2,0,3.4,1.3,4.3,4c0.5,1.5,0.7,3.2,0.7,5.2c0,1.5-0.1,2.9-0.3,4
	C342.3,209,342.2,209.8,342.2,210.6z M81.2,396.2c0,5.6-1,10.4-2.9,14.4c-1.7,3.4-4,6.2-6.9,8.3c-4.1,2.9-8.8,4.3-14.2,4.3
	c-3.6,0-5.3-2.1-5.3-6.4V373c0-4.2,1.8-6.3,5.3-6.3c5.2,0,9.7,1.2,13.4,3.7C77.6,375.1,81.2,383.7,81.2,396.2z M75.4,395.6
	c0-5.8-0.9-10.6-2.8-14.6c-1-2.2-2.2-3.9-3.6-5.2c-1.9-1.7-3.9-2.6-6.1-2.6c-1.5,0-2.2,0.6-2.2,1.9v40.1c0,1.2,0.5,1.9,1.6,1.9
	c2.5,0,4.7-1,6.7-3c1.7-1.7,3-3.8,4.1-6.5C74.6,404,75.4,400,75.4,395.6z M97.3,371.5c1.2,0,2-0.2,2.4-0.4c0.8-0.4,1.3-1.1,1.3-2.1
	c0-1.2-1-1.7-2.9-1.7H85.8c-1.9,0-2.9,0.6-2.9,1.7c0,0.9,0.4,1.6,1.3,2.1c0.4,0.2,1.2,0.4,2.2,0.4c0.8,0,1.2,0.5,1.2,1.3V417
	c0,0.4-0.1,0.7-0.4,0.9c-0.3,0.2-0.7,0.3-1.4,0.3c-1.9,0-2.9,0.8-2.9,2.4c0,1.3,0.9,1.9,2.7,1.9h12.2c1.9,0,2.9-0.6,2.9-1.7
	c0-0.9-0.4-1.6-1.2-2.1c-0.4-0.2-1.1-0.4-2.2-0.4c-0.6,0-0.9-0.4-0.9-1v-44.8C96.3,371.9,96.7,371.6,97.3,371.5z M125.3,410.7
	c4.1,5.2,6.2,8.4,6.2,9.7c0,0.9-0.3,1.6-0.8,2.1c-0.5,0.5-1.3,0.7-2.2,0.7c-1.6,0-3.4-1.4-5.1-4.2c-1.9-2.9-4.2-6.7-7-11.3
	c-0.5-0.6-0.8-0.9-0.9-0.9c-0.2,0-0.3,0.4-0.3,1.3v9c0,4-1.5,6.1-4.6,6.1c-1.4,0-2.3-0.3-2.9-0.9c-0.6-0.6-1-1.4-1.1-2.4
	c-0.1-1-0.2-2-0.2-3V373c0-4.2,2.1-6.3,6.3-6.3c4.8,0,9,1.2,12.6,3.6c4.1,2.9,6.2,7.2,6.2,13c0,4.2-0.7,8.1-2.2,11.6
	c-1.7,4.2-4.4,7.4-7.9,9.7c-0.2,0.1-0.3,0.3-0.3,0.4c0,0.2,0.9,1.4,2.6,3.4C124.2,409.3,124.8,410,125.3,410.7z M120.1,399.2
	c1.7-1.9,2.9-4.1,3.7-6.7c1-2.9,1.5-5.8,1.5-8.8c0-2.1-0.3-3.9-0.9-5.7c-1.4-3.7-4.1-5.6-8-5.6c-0.8,0-1.3,0.4-1.3,1.2v27.1
	c0,0.8,0.4,1.3,1.1,1.3C117.1,402,118.4,401.1,120.1,399.2z M156.4,368.2c-0.6-0.4-1.3-0.7-2.1-0.8c-0.8-0.1-1.6-0.1-2.2-0.1h-15.2
	c-0.7,0-1.4,0-2.3,0.1s-1.5,0.4-2.1,0.8c-0.6,0.4-0.9,1.1-0.9,2c0,0.6,0.3,1.1,0.9,1.6c0.6,0.5,1.5,0.7,2.7,0.7h4
	c0.6,0,0.8,0.3,0.8,0.9v43.5c0,1.8,0.1,3.1,0.4,3.9c0.2,0.6,0.5,1.1,0.9,1.5c0.6,0.6,1.5,0.9,2.9,0.9c3.1,0,4.6-2,4.6-6.1v-43.8
	c0-0.6,0.3-0.9,0.9-0.9h3.9c1.2,0,2.1-0.2,2.7-0.7c0.6-0.5,0.9-1,0.9-1.6C157.3,369.3,157,368.6,156.4,368.2z M188.9,367.4
	c-0.5-0.5-1.2-0.7-2.1-0.7c-1.2,0-2,0.6-2.5,1.8c-0.2,0.5-0.3,1.1-0.3,1.6c-0.4,6.7-1.5,13.4-3.3,20.2c-0.8,3.1-1.8,6-3,8.6
	c-0.3,0.6-0.6,0.9-0.9,0.9c-0.8,0-1.9-2.3-3.3-7c-1.1-3.7-2.1-7.6-2.8-11.5c-0.8-3.9-1.3-6.8-1.5-8.6c-0.3-2.5-0.9-4.2-1.9-5.2
	c-0.6-0.6-1.5-0.9-2.8-0.9c-1.3,0-2.3,0.3-2.9,0.9c-0.6,0.6-1,1.4-1.1,2.4c-0.2,1-0.2,2-0.2,3c0,2.2,0.5,5.6,1.6,10.1
	c1,4.5,2.4,8.9,4,13.2c1.2,3.2,2.4,5.7,3.8,7.6c0.8,1.1,1.2,2.5,1.2,4.1v8.9c0,1.1,0.1,2.1,0.2,3c0.1,1,0.5,1.8,1.1,2.4
	c0.6,0.6,1.6,0.9,2.9,0.9c3.1,0,4.6-2,4.6-6.1v-9.4c0-1.7,0.4-3.3,1.2-4.8c2.8-5.2,4.9-10.4,6.5-15.8c1.8-6.2,2.7-11.3,2.7-15.5
	c0-0.8-0.1-1.6-0.2-2.3C189.6,368.5,189.3,367.9,188.9,367.4z M238.1,413.9c0.2,1.7,0.4,3.2,0.4,4.3c0,1.3-0.1,2.4-0.4,3.1
	c-0.5,1.2-1.4,1.9-2.8,1.9c-1.7,0-2.6-1.1-2.9-3.4c-0.3-3.2-0.7-6.4-1.2-9.7c-0.1-1.2-0.9-1.7-2.1-1.7h-10.1c-1.1,0-1.8,0.6-2,1.9
	c-0.1,0.8-0.3,2-0.5,3.5c-0.2,1.5-0.3,2.9-0.5,4.1c-0.4,3.6-2.2,5.4-5.4,5.4c-2.7,0-4.1-1.4-4.1-4.3c0-0.7,0.2-2.7,0.7-6.1
	s1.1-7.9,2-13.7c1.5-9.7,3.4-17.8,5.5-24.2c1.8-5.5,4.3-8.3,7.5-8.3c2.6,0,4.8,1.5,6.4,4.5c1,1.9,2,4.7,3,8.3
	C234.2,389.2,236.4,400.6,238.1,413.9z M230.1,402.2c0-0.2-0.4-2.7-1.1-7.5c-2-12.8-3.6-19.2-4.8-19.2c-0.8,0-2.3,6.3-4.6,19
	c-0.9,5-1.3,7.5-1.3,7.8c0,0.9,0.5,1.4,1.5,1.4h8.7C229.6,403.7,230.1,403.2,230.1,402.2z M266.3,391.1c0,1.2,0.2,2,0.7,2.5
	c0.4,0.4,0.9,0.6,1.7,0.6c1,0,1.8-0.9,2.3-2.7c0.5-1.8,0.8-4.3,0.8-7.4c0-5-0.8-9-2.5-12c-2-3.6-5.4-5.4-10-5.4
	c-3.1,0-5.7,0.6-7.8,1.9c-6.3,3.8-9.5,12.5-9.5,26c0,10,1.7,17.5,5.1,22.5c2.7,4.1,6.6,6.1,11.5,6.1c2.4,0,4.6-0.7,6.5-2
	c2-1.3,3.5-3,4.7-5.1c1.2-2.1,1.7-4.3,1.7-6.5c0-2.7-0.8-4.5-2.4-5.2c-1.2-0.6-3.8-0.8-7.8-0.8c-1.3,0-2.2,0.2-2.9,0.6
	c-0.7,0.4-1,1.1-1,2.1c0,0.6,0.2,1.1,0.7,1.7c0.5,0.5,1.2,0.8,2.1,0.8l1.7,0c1.1,0,2.2-0.1,3.3-0.1c1.1,0,1.6,0.4,1.6,1.3
	c0,1.2-0.3,2.4-1,3.6c-0.7,1.2-1.5,2.1-2.6,2.9c-1.1,0.7-2.3,1.1-3.6,1.1c-2.7,0-4.7-2.2-6.1-6.5c-1.5-4.7-2.3-10.8-2.3-18.2
	c0-7.1,0.9-12.6,2.8-16.3c1.6-3.2,3.8-4.8,6.7-4.8c2.4,0,4.2,1.6,5.3,4.9c0.6,1.8,0.9,4,0.9,6.4c0,1.9-0.1,3.5-0.3,4.9
	C266.3,389.2,266.3,390.2,266.3,391.1z M306.8,413.9c0.2,1.7,0.4,3.2,0.4,4.3c0,1.3-0.1,2.4-0.4,3.1c-0.5,1.2-1.4,1.9-2.8,1.9
	c-1.7,0-2.6-1.1-2.9-3.4c-0.3-3.2-0.7-6.4-1.2-9.7c-0.1-1.2-0.9-1.7-2.1-1.7h-10.1c-1.1,0-1.8,0.6-2,1.9c-0.1,0.8-0.3,2-0.5,3.5
	c-0.2,1.5-0.3,2.9-0.5,4.1c-0.4,3.6-2.2,5.4-5.4,5.4c-2.7,0-4.1-1.4-4.1-4.3c0-0.7,0.2-2.7,0.7-6.1c0.4-3.4,1.1-7.9,2-13.7
	c1.5-9.7,3.4-17.8,5.5-24.2c1.8-5.5,4.3-8.3,7.5-8.3c2.6,0,4.8,1.5,6.4,4.5c1,1.9,2,4.7,3,8.3C302.9,389.2,305,400.6,306.8,413.9z
	 M298.7,402.2c0-0.2-0.4-2.7-1.1-7.5c-2-12.8-3.6-19.2-4.8-19.2c-0.8,0-2.3,6.3-4.6,19c-0.9,5-1.3,7.5-1.3,7.8
	c0,0.9,0.5,1.4,1.5,1.4h8.7C298.2,403.7,298.7,403.2,298.7,402.2z M324.6,371.5c1.2,0,2-0.2,2.4-0.4c0.8-0.4,1.3-1.1,1.3-2.1
	c0-1.2-1-1.7-2.9-1.7h-12.3c-1.9,0-2.9,0.6-2.9,1.7c0,0.9,0.4,1.6,1.3,2.1c0.4,0.2,1.2,0.4,2.3,0.4c0.8,0,1.2,0.5,1.2,1.3V417
	c0,0.4-0.1,0.7-0.4,0.9c-0.3,0.2-0.7,0.3-1.4,0.3c-1.9,0-2.9,0.8-2.9,2.4c0,1.3,0.9,1.9,2.7,1.9H325c1.9,0,2.9-0.6,2.9-1.7
	c0-0.9-0.4-1.6-1.2-2.1c-0.4-0.2-1.1-0.4-2.2-0.4c-0.6,0-0.9-0.4-0.9-1v-44.8C323.6,371.9,324,371.6,324.6,371.5z M361.9,366.7
	c-1,0-1.7,0.4-2.1,1.2c-0.4,0.8-0.6,1.9-0.6,3.4v36c0,1-0.1,1.6-0.4,1.6c-0.3,0-0.7-0.4-1.2-1.3l-8.7-14.2
	c-4.6-7.5-6.9-14.4-6.9-20.7c0-2-0.4-3.5-1.2-4.5c-0.8-1-1.8-1.5-3.1-1.5c-1.5,0-2.6,0.4-3.2,1.3c-0.7,0.9-1,2.5-1,5v43.8
	c0,2.5,0.3,4.2,1,5.1c0.7,0.8,1.8,1.3,3.2,1.3c3.1,0,4.6-2,4.6-6.1v-20.6c0-1.1,0.1-1.7,0.4-1.7c0.3,0,1.7,2.1,4.1,6.4
	c4.7,8.2,8.3,14.2,10.8,18.2c1.1,1.8,2.4,2.7,4,2.7c2.1,0,3.1-1.2,3.1-3.6v-47.2C365,368.2,364,366.7,361.9,366.7z M52.8,24.8
	c-2.5-5.2,3.2-10.1,10.3-1.1c0-1.5,0-3.2,1.5-3.9c0.8-0.3,0.9-0.4,2.1-0.4c1.4,0,3.5,0.9,5.6,3.2c0.4-0.7,0.7-1.3,1.2-1.9
	c0.5-0.6,1.4-1.1,2.3-1.3l0.1,0l0,0c0,0,0.1,0,0.1,0c0,0,0.1,0,0.1,0l0.2,0c0.2,0,0.3,0,0.6,0c0.2,0,0.5,0.1,0.7,0.1l0.6,0.2
	c0.7,0.3,1.4,0.8,1.8,1.4c0.9,1,1.1,1.5,1.6,2.5c1.7-3.6,5.5-1.1,7.2,2.7c0.9-2.1,3.7-4.1,7.6-0.4c0.5,0.4,1,1.1,1.5,1.8
	c1.1,1.5,1.6,3.7,1.9,5.5c0.2,1.1,0.3,2.2,0.4,3.3c0.1,0.6,0.2,1.3,0.2,1.9c0,0.4,0.1,0.6,0.4,0.9c0.7,0.4,1.6,0.2,2.3,0.1
	c1-0.1,2-0.1,2.9-0.1c1,0,2,0,3-0.1c0.3,0,3.1-0.2,3.1-0.1c-0.8-2.3-4.7-4.1-3.9-6.6c2.2,0.1,5,1.5,7,2.5c1.7,0.9,4.8,2.3,6.7,3.9
	c4.7-0.1,9.6-0.2,14.7-0.3c8,0,16.5-0.2,25.2,0c4.7,0.1,9.5,0.1,14.3,0.2v3.7c-4.8,0-9.6,0-14.3,0c-8.7,0-17.2,0.1-25.2,0.2
	c-5.3,0-10.3,0-15.2,0c-1.8,1-3.5,2.1-5.2,3.4c-1.7,1.2-9.3,4.6-8.6,0.6c0.3-1.8,2.2-2.8,3.5-4c-3.6,0-7-0.1-10.2-0.1
	c-0.3,2-0.1,1.9-1.7,5.7c-0.7,1.6-1.2,3.4-2,5c-0.3,0.6-0.7,1.2-1.2,1.7c-0.4,0.4-1.1,0.6-1.7,0.9c-0.4,0.2-0.8,0.3-1.3,0.2
	c-0.8,0-1.7-0.4-2.3-0.7c-0.2-0.1-1.8-1.3-1.7-1.5c-1.2,1.5-3.4,3.2-5.2,2.5c-0.7-0.2-0.5-0.1-0.9-0.4c-0.3-0.2-0.5-0.3-0.7-0.5
	c-0.3-0.3-0.7-0.7-0.9-0.9c-1.6,2.5-3.5,5.1-6.3,4.1c-0.8-0.4-1-0.5-1.9-1.5c-0.3-0.3-0.6-0.8-0.8-1.2c-3.1,3-6,3.6-9.7,1.4
	c-0.9,0.6-2.9,1.6-4,1.6c-0.3,0-0.4,0-0.7,0c0.2,0.1-0.3-0.1-0.2-0.1c-0.5-0.3-0.8-0.5-1.1-1c-0.9-2.1,0.4-5.2,1.5-7.2
	c1.7-3.3,7.5-8.3,8.9-10.1c0.1-0.1,0.2-0.2,0.3-0.2C63.3,36,55.3,30.3,52.8,24.8z M98.7,42.2c-1.3,0-2.6,0-3.8,0
	c-0.4,3.2-1.9,5.7-4.3,9.2c0.5,1.5,1.5,2.3,3,2.3c0.3-0.1,0.6-0.2,0.8-0.3c0.1-0.1,0.3-0.2,0.5-0.3c1.2-1.5,0.8-0.9,2.7-5.8
	c0.2-0.6,0.5-1.1,0.6-1.7C98.9,43.3,98.7,44.1,98.7,42.2z M89.9,29.1c1.2,2.9,3.2,6.7,4.7,9.5c0.1,0.2,0.2,0.4,0.2,0.7
	c1.1,0,2.3,0,3.4-0.1c-0.8-4.2-0.4-6.9-1.6-9.8c-0.5-0.9,0.1-0.1-1.1-2c0-0.1-0.9-1.1-1.9-1.6c-0.3-0.2-0.8-0.4-1-0.4l-0.5,0
	c-0.3,0-0.8,0.1-1.1,0.4c-0.6,0.4-0.9,1.2-0.8,1.4c-0.1,0.1,0,0.4,0.1,0.5c0,0.2,0.1,0.2,0.1,0.2C90.5,28.5,90.3,28.9,89.9,29.1z
	 M73.8,24.6c3.7,5.6,3.7,8.1,6.6,14.5c0.1,0.1,0.1,0.2,0.1,0.5c1.1,0,2.2,0,3.4-0.1c-2.9-9.3-3-16.6-7.2-18c0-0.1-0.7,0-0.7,0
	C74.9,21.9,74.9,22.8,73.8,24.6z M73.7,54.1c0.3,1.2,0.7,2.1,1.9,2.7c0.8,0.2,0.2,0.1,0.8,0.1c0.3-0.1,0.6-0.2,0.8-0.4
	c0.2-0.2,0.3-0.3,0.6-0.5c0.9-1,1.6-2.5,2.2-3.7c2.8-4.9,3-5.4,3.6-10.2c-0.2,0-3.5,0-3.6,0c-0.9,2.4-0.4,2.2-2,5.3
	C76.4,50.7,75.3,52.2,73.7,54.1z M70.8,42.1c-0.7,0-1.3,0-1.8,0c-1.3,4.5-7.8,8-9.8,13.2c-0.2,0.5-0.3,1.1-0.3,1.2c0,0,0,0,0,0
	c0,0,0,0,0,0c0,0,0.1,0,0.2,0c1,0,2.3-0.6,2.3-0.6c1.5-0.9,0.6,0,6.8-8.4C69,46.7,70.2,43.2,70.8,42.1z M55.3,22.3
	c0.1,0.5,0.3,0.9,0.5,1.3c0,0,0.4,0.7,0.4,0.7c6.1,8.1,7.7,7.8,13.5,14.7c0.5-0.1,1-0.1,1.6-0.1c-1.6-4.5-3.2-6-6.2-9.7
	c-4.1-5-3.8-4.5-5.6-6.1c-1-0.7-2.6-1.7-3.8-1.5C55.4,21.6,55.2,21.7,55.3,22.3z M271.5,42.5c2.2,0,4.4,0,6.5,0.1
	c2.1,0,4.3,0,6.4,0.2c1.1,0.1,2.1,0.2,3.1,0.3c1,0,2.1,0,3.1,0c2.1,0,4.1-0.1,6.1-0.2c8-0.3,15.6,0.2,22.6-0.3
	c3.5,0,6.9,0.2,10.1,0.4c-1.2,1-2.5,1.9-2.7,3.4c-0.7,4,7,0.7,8.6-0.6c1.2-0.9,2.4-1.8,3.7-2.5c3.3,0,6.3-0.2,9.1-0.4
	c-1.2,6.1-9.3,10.7-9,16.7c5.5-2.7,11.1-7.4,16.6-10.5c5.7-3.2,12-3.4,17.6-6.3c-1.4-3.9-11.5-7.3-14.8-8.9
	c-6.5-3.1-11.8-8.3-17.9-12.7l-0.6,1.9c-1.3,6.5,5.9,10.9,7.8,16c-2.1-0.1-4.4-0.3-6.8-0.3c-1.9-1.6-4.9-2.9-6.6-3.8
	c-2-1-4.8-2.4-7-2.5c-0.8,2.4,3,4.2,3.9,6.5c-3.7,0.2-7.7,0.5-11.9,0.5c-7-0.5-14.6,0-22.6-0.3c-2-0.1-4-0.2-6.1-0.2
	c-1,0-2.1,0-3.1,0c-1,0-2.1,0.2-3.1,0.3c-2.1,0.2-4.2,0.1-6.4,0.2c-2.1,0-4.3,0-6.5,0.1c-5.6,0-11.2-0.1-17-0.2v3.4
	c1.2,0,2.5,0,3.7,0C262.7,42.5,267.1,42.5,271.5,42.5z M72.9,211c0.7-0.3,1.7-0.5,1.5-1.5c-0.2-0.8-1.1-0.6-1.7-0.6
	c-2-0.2-4-0.4-6-0.4c-6.3-0.1-28.4,0.2-31.5,7.3c-1,2.3,1,5,3.5,5.7c0.1,0,0.2,0.1,0.3,0.1c5,1.2,11.6-2,16.2-3.5
	C61.2,216.1,66.9,213.1,72.9,211z M54.6,191.6c-3.4-1-11.7,0.3-6.6,5.2c4,3.9,11.4,6.1,16.6,7.4c2.2,0.6,4.4,0.8,6.6,0.6
	c0.7-0.1,1.7,0.1,2-0.9c0.3-1-0.6-1.3-1.3-1.7C66.4,198.6,61.2,193.5,54.6,191.6z M70.3,215.3c-1.3,1-10.7,9.3-13.6,15.4
	c-1.5,3.1-1.3,5.6,2.4,6.3c6.5,1.3,10.9-16,13.3-19.9c0.5-0.8,1.2-1.5,0.2-2.4C71.7,213.9,71,214.7,70.3,215.3z M358.8,208.5
	c-2,0-4,0.2-6,0.4c-0.6,0-1.6-0.1-1.7,0.6c-0.2,1,0.8,1.3,1.5,1.5c6,2.1,11.7,5.1,17.8,7.1c4.5,1.5,11.2,4.7,16.2,3.5
	c0.1,0,0.2-0.1,0.3-0.1c2.4-0.7,4.5-3.4,3.5-5.7C387.2,208.7,365.2,208.3,358.8,208.5z M354.3,204.8c2.2,0.2,4.5-0.1,6.6-0.6
	c5.2-1.3,12.6-3.5,16.6-7.4c5.1-4.9-3.2-6.2-6.6-5.2c-6.6,1.9-11.8,7-17.4,10.6c-0.7,0.4-1.5,0.7-1.3,1.7
	C352.6,204.9,353.5,204.7,354.3,204.8z M366.4,237c3.7-0.7,3.9-3.3,2.4-6.3c-2.9-6.1-12.3-14.4-13.6-15.4c-0.7-0.5-1.4-1.4-2.3-0.5
	c-0.9,0.8-0.2,1.6,0.2,2.4C355.5,220.9,359.9,238.3,366.4,237z M105.6,331.3H83.2c-2.5,0-4.3,1.4-5.3,4.2c-0.6,1.8-1.5,4.3-2.6,7.7
	c-1.1,3.4-2.1,6.4-3,9c-2.6,7.9-7.5,11.9-14.5,11.9c-4.9,0-7.4-2.1-7.4-6.3c0-0.9,0.1-2,0.4-3.1c0.3-1.5,1.8-6,4.3-13.4
	c2.6-7.5,6.2-17.5,10.9-30.2c8-21.5,15.8-39.3,23.5-53.5c6.5-12.2,13.3-18.3,20.5-18.3c5.8,0,9.8,3.3,12.1,10
	c1.4,4.3,2.3,10.4,2.7,18.4c0.4,7,0.6,14.4,0.6,22.3c0,16.1-0.8,34-2.4,53.7c-0.3,3.9-0.7,7-1.2,9.5c-0.6,2.9-1.4,5.2-2.4,6.9
	c-1.7,2.7-4,4.1-7.1,4.1c-3.3,0-4.9-2-4.9-5.9c0-0.5,0-1,0.1-1.6c0.7-7,1.4-14.1,2-21.4v-0.6C109.5,332.4,108.2,331.3,105.6,331.3z
	 M105.8,247.5c0,0,0.3,0.2,0.9,0.5c0.6,0.3,1.3,0.7,2.2,1.3c0.4,0.3,0.9,0.6,1.3,1c0.4,0.4,0.9,0.7,1.3,1.2c0.2,0.2,0.4,0.4,0.7,0.7
	c0.2,0.2,0.4,0.5,0.6,0.7c0.4,0.5,0.8,1,1.2,1.5c0.3,0.6,0.7,1.1,1,1.7c0.2,0.6,0.6,1.1,0.8,1.7c0.2,0.6,0.4,1.2,0.6,1.7
	c0.2,0.6,0.3,1.1,0.5,1.6c0.2,0.5,0.3,1,0.4,1.4c0.1,0.4,0.2,0.8,0.3,1.1c0.2,0.6,0.3,1,0.3,1s0.1-0.4,0.3-1
	c0.1-0.3,0.2-0.7,0.2-1.2c0.1-0.5,0.1-1,0.1-1.5c0-0.6,0-1.2,0-1.8c-0.1-0.6-0.2-1.3-0.3-2c-0.2-0.7-0.4-1.4-0.7-2.1
	c-0.3-0.7-0.7-1.4-1.1-2.1c-0.5-0.6-0.9-1.3-1.5-1.8c-0.3-0.3-0.6-0.5-0.8-0.8c-0.3-0.2-0.6-0.5-0.9-0.7c-0.6-0.5-1.2-0.7-1.8-1.1
	c-0.6-0.3-1.2-0.5-1.8-0.6c-0.5-0.2-1.1-0.2-1.5-0.3c-0.5-0.1-0.9-0.1-1.2-0.1C106.2,247.4,105.8,247.5,105.8,247.5z M85,294.5
	c0.9-2.4,1.7-4.7,2.6-7c1.7-4.5,3.1-8.8,4.4-12.4c2.5-7.3,3.9-12.3,3.9-12.3s-2.3,4.6-5.4,11.7c-1.6,3.5-3.3,7.7-5.2,12.1
	c-0.9,2.2-1.9,4.5-2.8,6.9c-0.9,2.4-1.9,4.7-2.8,7.1c-0.9,2.4-1.8,4.8-2.7,7.2c-0.9,2.4-1.7,4.7-2.6,7c-1.7,4.5-3.1,8.8-4.4,12.4
	c-2.5,7.3-3.9,12.3-3.9,12.3s2.3-4.6,5.4-11.7c1.6-3.5,3.3-7.7,5.2-12.1c0.9-2.2,1.9-4.5,2.8-6.9c0.9-2.4,1.9-4.7,2.8-7.1
	C83.2,299.3,84.1,296.9,85,294.5z M106.7,321.1c2.2,0,3.6-1.1,4.1-3.3c0.1-0.5,0.5-6.1,1.1-16.6c0.6-10.4,0.9-18.8,0.9-25.3
	c0-11.3-0.9-17-2.6-17c-1.8,0-8.2,14-19,42c-4.3,11-6.5,16.7-6.6,17.2c-0.1,0.3-0.1,0.6-0.1,0.9c0,1.4,0.9,2.2,2.8,2.2H106.7z
	 M156.3,335.2c-1.1,5-1.6,9-1.6,11.8c0,0.3,0,1.2,0,2.7c0,1.5,0.6,2.8,1.7,3.8c1.1,1,2.6,1.5,4.5,1.5c1.6,0,3.3-0.2,5.2-0.7
	c0.7-0.2,1.4-0.2,2.1-0.2c1.8,0,2.7,0.6,2.7,1.8c0,0.2,0,0.5-0.1,0.7c-0.4,1.7-1.5,3.1-3.4,4.3c-1.9,1.1-4,2-6.3,2.5
	c-2.2,0.5-4.1,0.8-5.5,0.8c-6.2,0-10.8-1.3-13.8-3.8c-3-2.5-4.7-6.1-5.2-10.9c-0.1-1.1-0.2-2.3-0.2-3.4c0-4,0.5-8.5,1.6-13.6
	l10.7-50.4c0.1-0.3,0.1-0.5,0.1-0.6c0-1.3-0.8-1.9-2.5-1.9h-2.2c-1.9,0-3.3-0.5-4-1.4c-0.6-0.7-0.9-1.4-0.9-2.2c0-0.3,0-0.5,0.1-0.7
	c0.4-1.7,1.1-2.8,2.2-3.5c1.5-0.9,3.8-1.3,6.9-1.3c1.9,0,3.1-1,3.4-2.9l1.2-5.5c0.5-2.3,1.1-4.5,1.9-6.7c0.8-2.1,1.9-3.9,3.5-5.3
	c1.6-1.4,3.7-2,6.5-2c2.8,0,4.8,0.8,5.9,2.5c1,1.4,1.5,3.3,1.5,5.6c0,1.6-0.2,3.3-0.6,5.2l-1.3,6.1c-0.1,0.3-0.1,0.6-0.1,1
	c0,1.3,0.7,1.9,2.1,1.9H183c2.5,0,3.8,1,3.8,3.1c0,0.5-0.1,1-0.2,1.6c-0.2,1.1-0.9,2.1-2.1,3c-1.2,0.9-2.7,1.4-4.7,1.4h-9.2
	c-1.7,0-2.7,0.9-3,2.6L156.3,335.2z M155.9,303.5c0.4-2.3,0.9-4.5,1.3-6.8c0.4-2.2,0.8-4.4,1.2-6.6c0.7-4.3,1.4-8.3,1.8-11.7
	c1-6.9,1.4-11.5,1.4-11.5s-1.4,4.4-3,11.2c-0.8,3.4-1.8,7.3-2.7,11.5c-0.5,2.1-1,4.3-1.4,6.5c-0.5,2.2-0.9,4.5-1.4,6.8
	c-0.4,2.3-0.9,4.5-1.3,6.8c-0.4,2.2-0.8,4.4-1.2,6.6c-0.7,4.3-1.4,8.3-1.8,11.7c-1,6.9-1.4,11.5-1.4,11.5s1.4-4.4,3-11.2
	c0.8-3.4,1.8-7.3,2.7-11.5c0.5-2.1,1-4.3,1.4-6.5C155,308,155.5,305.8,155.9,303.5z M306.1,274.3c0.1-0.6,0.2-1.1,0.2-1.4
	c0-0.6-0.2-1-0.5-1c-0.5,0-1.5,1.3-2.8,3.9c-10.1,19.8-21.4,39.6-34.1,59.4c-1.9,3-4.1,4.5-6.5,4.5c-2.6,0-4.3-1.6-4.9-4.8
	c-2.8-14-5.3-34.8-7.7-62.5c-0.2-2.9-0.5-4.3-1-4.3c-0.2,0-0.5,0.8-0.9,2.4c-0.4,1.9-0.7,3.5-0.8,4.8c-0.2,1.3-0.6,4-1.3,8.1
	c-3.5,20.7-7.8,43.4-13.1,68.1c-0.9,4.1-2.5,7.3-4.7,9.4c-2.2,2.2-5,3.2-8.3,3.2c-4.9,0-7.4-2.1-7.4-6.4v-0.6c0.1-2,0.4-4.1,0.8-6.3
	l20.3-95.1c2.3-11,7.1-16.4,14.4-16.4c6.8,0,10.7,4.2,11.7,12.6c1.9,15.5,3.4,28.6,4.5,39.1c0.7,7,1.4,13.6,2.2,20
	c12.2-20.4,23.7-40.9,34.5-61.4c2-3.8,4.1-6.5,6.5-8c2.4-1.5,4.5-2.3,6.5-2.3c4.4,0,7.1,2,8.1,5.9c0.3,1.2,0.5,2.6,0.5,4.1
	c0,2-0.3,4.1-0.8,6.5l-20.9,98.1c-1.4,6.8-4.4,10.3-9,10.3c-2.3,0-3.7-0.9-4.1-2.7c-0.2-0.7-0.3-1.6-0.3-2.6c0-1.4,0.2-3,0.6-5
	c6-28,10.7-49.1,14.3-63.3C304,283.4,305.3,277.9,306.1,274.3z M238.3,277.2c0,0-1.3,3.6-2.9,9.2c-0.8,2.8-1.7,6-2.6,9.5
	c-0.4,1.7-0.9,3.5-1.3,5.4c-0.4,1.8-0.9,3.7-1.3,5.6c-0.4,1.9-0.8,3.7-1.2,5.6c-0.4,1.8-0.7,3.7-1.1,5.4c-0.7,3.5-1.3,6.8-1.7,9.7
	c-0.9,5.7-1.3,9.5-1.3,9.5s1.3-3.6,2.9-9.2c0.8-2.8,1.7-6,2.5-9.5c0.4-1.7,0.9-3.5,1.3-5.4c0.4-1.8,0.9-3.7,1.3-5.6
	c0.4-1.9,0.8-3.7,1.2-5.6c0.4-1.8,0.7-3.7,1.1-5.4c0.7-3.5,1.3-6.8,1.7-9.7C237.9,281,238.3,277.2,238.3,277.2z M260.3,295.7
	c-0.1-1.9-0.2-4-0.4-6c-0.2-2.1-0.5-4.1-0.8-6c-0.3-1.9-0.6-3.7-1-5.2c-0.6-3-1.3-5-1.3-5s-0.3,2.1-0.3,5.2c0,1.6,0,3.4,0.1,5.3
	c0.1,1.9,0.2,4,0.4,6c0.2,2.1,0.5,4.1,0.8,6c0.3,1.9,0.6,3.7,1,5.2c0.6,3,1.3,5,1.3,5s0.3-2.1,0.3-5.2
	C260.4,299.4,260.4,297.6,260.3,295.7z M297.3,273.4c0,0-1.8,2-4.1,5.3c-1.2,1.6-2.5,3.6-3.8,5.6c-0.7,1.1-1.4,2.1-2.1,3.2
	c-0.7,1.1-1.4,2.3-2.1,3.4c-0.7,1.2-1.3,2.3-2,3.4c-0.7,1.1-1.2,2.3-1.8,3.4c-1.2,2.2-2.2,4.3-3.1,6.1c-1.7,3.6-2.7,6.1-2.7,6.1
	s1.8-2,4.1-5.3c1.2-1.6,2.5-3.6,3.8-5.6c0.7-1.1,1.4-2.1,2.1-3.2c0.7-1.1,1.4-2.3,2.1-3.4c0.7-1.2,1.3-2.3,2-3.4
	c0.7-1.1,1.2-2.3,1.8-3.4c1.2-2.2,2.2-4.3,3.1-6.1C296.4,275.9,297.3,273.4,297.3,273.4z M305.2,295.8c-0.4,1.7-0.9,3.5-1.3,5.4
	c-0.4,1.8-0.9,3.7-1.3,5.6c-0.4,1.9-0.8,3.7-1.2,5.6c-0.4,1.8-0.7,3.7-1.1,5.4c-0.7,3.5-1.3,6.8-1.7,9.7c-0.9,5.7-1.3,9.5-1.3,9.5
	s1.3-3.6,2.9-9.2c0.8-2.8,1.7-6,2.5-9.5c0.4-1.7,0.9-3.5,1.3-5.4c0.4-1.8,0.9-3.7,1.3-5.6c0.4-1.9,0.8-3.7,1.2-5.6
	c0.4-1.8,0.7-3.7,1.1-5.4c0.7-3.5,1.3-6.8,1.7-9.7c0.9-5.7,1.3-9.5,1.3-9.5s-1.3,3.6-2.9,9.2C306.9,289.1,306.1,292.3,305.2,295.8z
	 M378.2,278.6c0.6,2.3,0.9,4.8,0.9,7.6c0,3.7-0.5,7.9-1.5,12.5c-2.6,12.1-8.1,21.2-16.7,27c-5.9,4.1-12.7,6.3-20.4,6.6
	c-1.4,0.1-2.2,0.9-2.6,2.4c-0.3,1.3-0.4,2.6-0.4,3.9c0,2.2,0.4,4.5,1.2,6.7c1.7,5,4.7,7.5,8.8,7.5c4.4,0,8.6-3.3,12.5-9.9
	c1.2-1.9,2.8-2.9,4.8-2.9c1.1,0,1.9,0.4,2.6,1.1c0.4,0.5,0.6,1.1,0.6,1.8c0,0.3,0,0.7-0.1,1c-0.1,0.4-0.3,0.9-0.5,1.4
	c-2.3,5.3-6,9.7-11,13.3c-4.8,3.4-10.3,5.1-16.6,5.1c-12.9,0-19.7-7.4-20.3-22.1c-0.1-1.1-0.1-2.1-0.1-3.2c0-6,0.7-12.5,2.2-19.4
	c4.4-20.9,12.1-35.7,23.1-44.4c5.7-4.5,11.8-6.8,18.4-6.8C371.4,268,376.4,271.6,378.2,278.6z M341.5,293.5
	c2.7-6.4,4.8-10.6,4.8-10.6s-2.9,3.7-6.2,9.9c-1.7,3.1-3.5,6.8-5.2,10.9c-0.8,2.1-1.7,4.2-2.4,6.4c-0.7,2.2-1.4,4.5-2,6.8
	c-0.3,1.1-0.5,2.3-0.8,3.5c-0.2,1.2-0.4,2.3-0.6,3.5c-0.3,2.3-0.5,4.6-0.6,6.9c0,1.1,0,2.2,0,3.3c0,1.1,0.2,2.1,0.3,3.2
	c0.2,2,0.7,4,1.2,5.7c0.2,0.9,0.6,1.7,0.9,2.4c0.3,0.8,0.6,1.5,1,2.1c0.6,1.3,1.4,2.3,1.9,3.2c0.6,0.9,1.2,1.4,1.5,1.9
	c0.4,0.4,0.5,0.6,0.5,0.6s-0.1-0.3-0.4-0.7c-0.3-0.5-0.7-1.1-1.2-2.1c-0.4-0.9-1-2-1.4-3.3c-0.2-0.7-0.5-1.3-0.7-2.1
	c-0.2-0.8-0.5-1.5-0.6-2.4c-0.3-1.7-0.6-3.5-0.7-5.5c0-1-0.1-2-0.1-3c0-0.5,0-1,0-1.6c0-0.5,0.1-1.1,0.1-1.6
	c0.1-2.1,0.5-4.3,0.8-6.6c0.2-1.1,0.4-2.2,0.6-3.3c0.3-1.1,0.5-2.2,0.8-3.3c0.5-2.2,1.1-4.5,1.8-6.6c0.7-2.2,1.4-4.3,2.1-6.3
	c0.8-2,1.5-4,2.2-5.9C340.1,296.9,340.8,295.1,341.5,293.5z M368.7,287.8c-0.2-5.3-2.3-8-6.3-8c-8.5,0-15.8,13.2-21.7,39.5
	c-0.1,0.6-0.2,1.1-0.2,1.6c0,1.3,0.5,1.9,1.5,1.9c2.2,0,5.2-0.7,8.9-2.1c3.7-1.4,7.1-3.8,10-7.2c3-3.4,5.1-7.9,6.3-13.7
	c0.9-4.3,1.4-8,1.4-11V287.8z M38.8,173.5c0-1.4,0.2-2.9,0.6-4.7l18.4-86.6c1.8-8.3,6.2-12.5,13.2-12.5c10.4,0,18.7,2.4,25,7.2
	c8.5,6.5,12.7,16.8,12.7,30.8c0,6.1-0.8,12.8-2.4,20.3c-2.3,11-6.3,20.5-11.9,28.5c-4.7,6.8-10.4,12.2-17.1,16.3
	c-9.3,5.7-19.3,8.5-30,8.5C41.6,181.3,38.8,178.7,38.8,173.5z M95.5,98c-1.1-4.3-2.7-7.7-4.9-10.2c-3.1-3.4-6.7-5.1-11-5.1
	c-3,0-4.7,1.2-5.2,3.7l-16.9,79.2c-0.1,0.5-0.1,0.9-0.1,1.4c0,1.5,0.8,2.3,2.4,2.3c4.9,0,9.8-2,14.6-6c4-3.3,7.6-7.6,10.9-12.8
	c4.5-7.2,7.7-15.1,9.5-23.7c1.3-6.3,2-12.1,2-17.3C96.8,105.4,96.4,101.6,95.5,98z M66.8,81.7c0,0,0.4-0.2,1.2-0.6
	c0.7-0.4,1.8-0.9,3-1.3c0.6-0.3,1.3-0.5,2-0.7c0.7-0.2,1.5-0.4,2.3-0.6c0.8-0.2,1.6-0.3,2.5-0.4c0.8-0.1,1.7-0.1,2.6-0.1
	c0.9,0,1.7,0.1,2.6,0.2c0.8,0.1,1.7,0.3,2.5,0.4c0.8,0.2,1.6,0.4,2.3,0.6c0.7,0.2,1.4,0.5,2.1,0.7c0.6,0.2,1.3,0.4,1.8,0.7
	c0.5,0.2,1,0.4,1.4,0.6c0.8,0.3,1.2,0.5,1.2,0.5s-0.3-0.4-0.9-0.9c-0.3-0.3-0.7-0.7-1.1-1c-0.4-0.4-1-0.8-1.6-1.2
	c-0.6-0.4-1.2-0.9-2-1.2c-0.8-0.4-1.6-0.7-2.4-1.1c-0.9-0.2-1.8-0.5-2.8-0.8c-1-0.1-2-0.3-3-0.3c-1,0-2,0-3,0.2
	c-1,0.1-1.9,0.4-2.8,0.7c-0.9,0.3-1.7,0.7-2.5,1c-0.7,0.4-1.4,0.8-2,1.2c-0.6,0.4-1.1,0.9-1.6,1.2c-0.4,0.4-0.8,0.8-1.1,1.1
	C67,81.3,66.8,81.7,66.8,81.7z M53,146.5c0,0,1.2-2.7,2.6-6.9c0.7-2.1,1.5-4.5,2.3-7.2c0.4-1.3,0.8-2.7,1.2-4.1
	c0.4-1.4,0.7-2.8,1.1-4.2c0.3-1.4,0.7-2.9,1-4.3c0.3-1.4,0.6-2.8,0.9-4.1c0.6-2.7,1.1-5.2,1.4-7.4c0.7-4.3,1-7.3,1-7.3
	s-1.2,2.7-2.6,6.9c-0.7,2.1-1.5,4.5-2.3,7.2c-0.4,1.3-0.8,2.7-1.2,4.1c-0.4,1.4-0.7,2.8-1.1,4.2c-0.3,1.4-0.7,2.9-1,4.3
	c-0.4,1.4-0.6,2.8-0.9,4.1c-0.6,2.7-1.1,5.2-1.4,7.4C53.3,143.6,53,146.5,53,146.5z M46.8,169.7c0,0.5,0.2,1.1,0.4,1.6
	c0.3,0.5,0.5,1.1,0.9,1.7c0.3,0.6,0.8,1,1.3,1.5c0.5,0.4,1.1,0.7,1.7,1c0.6,0.2,1.2,0.4,1.8,0.5c0.6,0.1,1.1,0.1,1.7,0.1
	c0.5,0,1-0.1,1.4-0.2c0.4,0,0.8-0.2,1.2-0.3c0.3-0.1,0.6-0.2,0.9-0.3c0.5-0.2,0.7-0.3,0.7-0.3s-0.3-0.1-0.8-0.2
	c-0.5-0.1-1.2-0.2-2-0.4c-0.4-0.1-0.8-0.2-1.2-0.3c-0.4-0.1-0.8-0.3-1.3-0.4c-0.4-0.1-0.8-0.4-1.2-0.6c-0.4-0.3-0.8-0.5-1.1-0.7
	c-0.3-0.3-0.7-0.6-0.9-0.9c-0.3-0.3-0.5-0.7-0.8-1.1c-0.2-0.4-0.5-0.8-0.6-1.2c-0.2-0.4-0.4-0.8-0.5-1.1c-0.6-1.5-0.9-2.6-0.9-2.6
	s-0.2,0.3-0.3,0.7c-0.2,0.5-0.4,1.2-0.4,2.1C46.7,168.7,46.7,169.2,46.8,169.7z M127.8,180.1h-24.1c-3.1,0-4.6-0.9-4.6-2.8
	c0-0.3,0-0.6,0.1-0.9c0.7-3.2,2.9-4.7,6.7-4.7c1.3,0,2.2-0.2,2.8-0.6c0.6-0.4,1-1,1.2-1.9l18.6-87.4c0-0.3,0.1-0.5,0.1-0.8
	c0-1.1-0.6-1.6-1.8-1.7c-2.1-0.1-3.5-0.4-4.3-0.8c-1.2-0.7-1.8-1.7-1.8-3c0-0.3,0-0.7,0.1-1.1c0.5-2.3,2.7-3.4,6.5-3.4h24.3
	c3.4,0,5.1,0.9,5.1,2.7c0,0.2,0,0.5-0.1,0.8c-0.4,1.9-1.5,3.2-3.4,4.1c-1,0.4-2.6,0.7-4.9,0.8c-1.3,0.1-2.1,0.7-2.4,1.9l-18.8,88.6
	c0,0.2-0.1,0.5-0.1,0.6c0,0.8,0.5,1.2,1.4,1.3c2,0.1,3.4,0.4,4.1,0.9c1.1,0.7,1.7,1.7,1.7,3c0,0.3,0,0.7-0.1,1.1
	C133.7,178.9,131.6,180.1,127.8,180.1z M126.8,132.1c0.4-1.8,0.8-3.6,1.2-5.5c0.4-1.9,0.8-3.8,1.1-5.7c0.4-1.9,0.7-3.8,1-5.7
	c0.4-1.9,0.6-3.7,0.9-5.5c0.6-3.6,1.1-7,1.4-9.9c0.8-5.8,1-9.7,1-9.7s-1.2,3.7-2.6,9.4c-0.7,2.8-1.5,6.1-2.3,9.7
	c-0.4,1.8-0.8,3.6-1.2,5.5c-0.4,1.9-0.8,3.8-1.1,5.7c-0.4,1.9-0.7,3.8-1,5.7c-0.4,1.9-0.6,3.7-0.9,5.5c-0.6,3.6-1.1,7-1.5,9.9
	c-0.8,5.8-1,9.7-1,9.7s1.2-3.7,2.6-9.4C125.2,138.9,126,135.6,126.8,132.1z M198,102.2c0.7-3.3,1.1-6.4,1.1-9.2c0-0.6,0-1.2-0.1-1.9
	c-0.3-7.6-3.6-11.3-9.9-11.3c-4.5,0-8.4,2.1-11.8,6.4c-2.7,3.5-4.7,8.2-6,14c-0.5,2.2-0.7,4.2-0.7,6.2c0,3.3,0.6,6.5,1.8,9.5
	c1.7,4.5,5.1,9.9,10.2,16.3c2.1,2.7,4,5.4,5.7,8.2c2.6,4.4,3.9,9,3.9,13.6c0,1.8-0.2,3.6-0.6,5.4c-1.2,5.9-3.9,10.8-8.1,14.6
	c-5.4,5-12.2,7.5-20.4,7.5c-7.2,0-12.2-2.5-14.9-7.5c-1.3-2.4-2-5.4-2-8.8c0-2.3,0.3-4.9,0.9-7.8c0.4-2,1.2-3.6,2.4-4.9
	c1.2-1.3,2.6-2,4.2-2c2.2,0,3.4,1.1,3.4,3.4c0,0.6-0.1,1.2-0.2,2c-0.3,1.8-0.5,3.6-0.5,5.4v1.2c0.3,5.4,3,8,8.1,8
	c5.7,0,9.2-3.1,10.5-9.4c0.2-0.9,0.3-1.7,0.3-2.6c0-3.3-1.3-6.8-3.8-10.4c-1.5-2.1-3.1-4.2-4.9-6.5c-4.9-6.1-8.4-11.6-10.5-16.6
	c-2-4.4-2.9-9.2-2.9-14.3c0-3.1,0.4-6.2,1.1-9.5c1.2-6,3.3-11.3,6.3-16.1c2.1-3.3,4.7-6.2,7.7-8.5c5.9-4.6,12.9-6.9,21-6.9
	c13.3,0,19.9,6.7,19.9,20.1c0,3.6-0.5,7.8-1.4,12.4c-1.1,5.4-2.6,10-4.3,13.9c-2.4,5.4-5,8-8,8c-2.2,0-3.2-0.9-3.2-2.7
	c0-0.4,0-0.8,0.1-1.3c0.1-0.7,0.4-1.4,0.6-2.2C195.2,112.8,196.9,107.5,198,102.2z M175.5,171c-0.6,0.5-1.2,0.9-1.7,1.4
	c-0.5,0.4-1,0.8-1.5,1.1c-0.5,0.3-0.9,0.6-1.2,0.8c-0.7,0.5-1.1,0.8-1.1,0.8s0.5-0.1,1.3-0.3c0.4-0.1,0.9-0.2,1.5-0.4
	c0.3-0.1,0.6-0.2,0.9-0.3c0.3-0.1,0.6-0.3,1-0.4c0.7-0.3,1.4-0.6,2.1-1.1c0.7-0.5,1.5-1,2.2-1.6c0.7-0.7,1.4-1.3,2-2.1
	c0.6-0.8,1.2-1.6,1.6-2.6l0.6-1.4c0.2-0.5,0.3-1,0.5-1.5c0.3-1,0.4-2,0.5-2.9c0-0.9,0.1-1.9,0-2.7c0-0.4-0.1-0.8-0.1-1.2
	c-0.1-0.4-0.2-0.8-0.3-1.1c-0.1-0.7-0.4-1.4-0.6-1.9c-0.2-0.6-0.4-1-0.6-1.4c-0.4-0.8-0.7-1.2-0.7-1.2s0.1,0.5,0.1,1.3
	c0.1,0.4,0.1,0.9,0.1,1.5c0,0.6,0.1,1.2,0,1.9c0,0.7,0,1.4-0.1,2.2c0,0.8-0.2,1.6-0.3,2.4c-0.2,0.8-0.4,1.6-0.7,2.4
	c-0.1,0.4-0.3,0.8-0.4,1.2l-0.6,1.2c-0.2,0.4-0.4,0.8-0.6,1.1c-0.2,0.4-0.5,0.7-0.7,1.1c-0.5,0.7-1.1,1.3-1.6,2
	C176.6,169.9,176,170.5,175.5,171z M170.5,131c-0.2-0.6-0.3-1.3-0.5-2.1c-0.2-0.7-0.4-1.5-0.6-2.3c-0.4-1.6-0.9-3.3-1.4-5
	c-0.5-1.7-1-3.4-1.6-5c-0.5-1.6-1.1-3.1-1.6-4.3c-1-2.5-1.8-4.1-1.8-4.1s-0.1,1.8,0.3,4.5c0.1,1.3,0.4,2.9,0.7,4.6
	c0.3,1.7,0.7,3.4,1.2,5.1c0.3,0.9,0.5,1.7,0.8,2.6c0.3,0.8,0.6,1.7,0.9,2.4c0.6,1.6,1.3,3,2,4.2c0.3,0.6,0.7,1.1,1,1.6
	c0.3,0.5,0.7,0.8,0.9,1.1c0.3,0.3,0.6,0.5,0.7,0.6c0.2,0.1,0.3,0.2,0.3,0.2s-0.2-0.4-0.5-1.1c-0.1-0.4-0.3-0.8-0.4-1.3
	C170.9,132.2,170.7,131.6,170.5,131z M200,77.9c0.7,0.5,1.3,0.9,1.8,1.4c0.5,0.5,1,0.9,1.3,1.2c0.4,0.4,0.6,0.6,0.8,0.9
	c0.2,0.2,0.3,0.3,0.3,0.3s0-0.1-0.1-0.4c-0.1-0.3-0.3-0.6-0.5-1.1c-0.2-0.5-0.6-1-1-1.6c-0.2-0.3-0.5-0.6-0.7-0.9
	c-0.3-0.3-0.6-0.6-0.9-1c-0.3-0.3-0.7-0.7-1.1-1c-0.4-0.3-0.8-0.7-1.2-0.9c-0.5-0.3-0.9-0.6-1.4-0.9c-0.5-0.3-1.1-0.5-1.6-0.7
	l-0.8-0.3l-0.9-0.2c-0.6-0.1-1.2-0.3-1.8-0.4c-0.6,0-1.2-0.1-1.9-0.1c-0.3,0-0.6,0-0.9,0l-0.9,0.1l-1.9,0.3
	c-0.6,0.1-1.2,0.3-1.8,0.5c-0.6,0.2-1.2,0.4-1.7,0.5c-0.5,0.2-1.1,0.5-1.6,0.7c-1,0.5-2,0.9-2.9,1.6c-0.9,0.6-1.6,1.1-2.4,1.7
	c-0.8,0.5-1.3,1.1-1.8,1.6c-0.5,0.5-1,0.9-1.3,1.3c-0.7,0.7-1.1,1.2-1.1,1.2s0.5-0.3,1.5-0.7c0.5-0.2,1-0.5,1.6-0.9
	c0.6-0.3,1.3-0.8,2.1-1.1c0.8-0.4,1.6-0.7,2.5-1.2c0.9-0.5,1.9-0.7,2.8-1.1c0.5-0.2,1-0.4,1.5-0.6c0.5-0.1,1-0.2,1.6-0.4
	c0.5-0.1,1-0.3,1.6-0.4l1.6-0.2l0.8-0.1c0.3,0,0.5,0,0.8,0c0.5,0,1.1,0,1.6,0c0.5,0.1,1,0.2,1.5,0.2l0.8,0.1l0.7,0.2
	c0.5,0.2,1,0.3,1.4,0.4c0.5,0.2,0.9,0.4,1.3,0.6c0.4,0.2,0.8,0.5,1.2,0.7C199.3,77.4,199.7,77.6,200,77.9z M224.1,82.2
	c0.4-2.1,1-4,1.7-6c1.6-4.3,4.7-6.5,9.3-6.5c3.2,0,5.2,1.1,6.2,3.2c0.6,1.2,0.9,2.7,0.9,4.4c0,1.3-0.2,2.7-0.5,4.2l-12.3,57.8
	c-0.1,0.4-0.1,0.8-0.1,1.1c0,1.4,0.8,2.1,2.4,2.1l22.4-0.1c2,0,3.2-1.1,3.7-3.2l12.8-60.5c0.6-3,1.5-5.2,2.5-6.8s2.6-2.4,4.7-2.4
	c3.1,0,4.7,1.8,4.7,5.3c0,1.1-0.2,2.4-0.5,3.9l-19.9,93.3c-1.3,6.1-4,9.2-8,9.2c-2.1,0-3.3-0.8-3.7-2.4c-0.2-0.7-0.3-1.4-0.3-2.3
	c0-1.2,0.2-2.7,0.6-4.4l3.7-17.6c0-0.3,0.1-0.5,0.1-0.7c0-1.2-0.8-1.8-2.5-1.8l-22.4,0.1c-2,0-3.1,0.8-3.5,2.4l-3.1,14.8
	c-0.7,3.2-1.7,5.7-3.2,7.7c-2.2,2.9-5,4.3-8.5,4.3c-2.6,0-4.4-0.6-5.3-1.9c-0.7-0.9-1.1-2.1-1.2-3.4c0-0.3-0.1-0.6-0.1-1
	c0-1.6,0.3-3.7,0.9-6.2L224.1,82.2z M260.1,161.1c0,0,1.2-3.2,2.6-8.1c0.7-2.4,1.5-5.3,2.2-8.4c0.4-1.5,0.8-3.1,1.1-4.8
	c0.4-1.6,0.7-3.3,1.1-4.9c0.3-1.7,0.7-3.3,1-5c0.3-1.6,0.6-3.3,0.9-4.8c0.6-3.1,1-6.1,1.4-8.6c0.7-5,1-8.5,1-8.5s-1.2,3.2-2.6,8.1
	c-0.7,2.4-1.5,5.3-2.2,8.4c-0.4,1.5-0.8,3.1-1.1,4.8c-0.4,1.6-0.7,3.3-1.1,4.9c-0.3,1.7-0.7,3.3-1,5c-0.3,1.6-0.6,3.3-0.9,4.8
	c-0.6,3.1-1,6.1-1.4,8.6C260.3,157.7,260.1,161.1,260.1,161.1z M224.7,121.1c-0.4,1.5-0.8,3.1-1.2,4.7c-0.4,1.6-0.7,3.1-1.1,4.7
	c-0.4,1.5-0.7,3.1-1,4.6c-0.6,3-1.1,5.7-1.5,8.1c-0.8,4.8-1.1,8-1.1,8s1.2-3,2.7-7.6c0.7-2.3,1.6-5,2.4-7.9c0.4-1.5,0.8-3,1.2-4.5
	c0.4-1.5,0.8-3.1,1.2-4.7c0.4-1.6,0.7-3.1,1.1-4.7c0.4-1.5,0.7-3.1,1-4.6c0.6-3,1.1-5.7,1.5-8.1c0.8-4.8,1.1-8,1.1-8s-1.2,3-2.7,7.6
	c-0.7,2.3-1.6,5-2.4,7.9C225.5,118.1,225.1,119.6,224.7,121.1z M334.9,81.4c-1.9,0-3.7,0-5.5-0.1c-1.8-0.1-3.6-0.1-5.4-0.1
	c-3.4,0-5.5,1.9-6.3,5.7l-10.8,50.9c-0.2,1-0.4,1.8-0.4,2.5c0,0.8,0.2,1.5,0.6,1.9c0.4,0.5,1.3,0.7,2.7,0.7c2,0,4,0,6-0.1
	c2.1-0.1,4.1-0.1,6.2-0.1c2.4,0,4.1,0.4,5.2,1.1c0.9,0.6,1.4,1.6,1.4,2.9c0,0.4,0,0.9-0.1,1.4c-0.2,1.1-0.9,2.1-2,2.9
	c-1.1,0.8-2.5,1.2-4.3,1.2l-14.8-0.2c-2.3,0-3.7,1-4.1,3l-0.7,3.3c-0.3,1.6-0.5,3-0.5,4.2c0,1.6,0.3,2.9,0.8,3.9
	c1.4,2.9,5,4.4,10.9,4.4c1.9,0,3.7-0.1,5.6-0.3c1.9-0.2,3.8-0.3,5.6-0.3c1.2,0,2.3,0.3,3.1,0.9c0.6,0.4,0.9,1.1,0.9,1.9
	c0,0.2,0,0.5-0.1,0.8c-0.5,2.3-2.4,4.2-5.7,5.5c-3.3,1.3-8.7,2-16.2,2c-6.5,0-11.4-1-14.6-2.9c-4.8-2.9-7.2-7.9-7.2-14.8
	c0-1.4,0.1-2.8,0.3-4.4c0.5-4.2,1.2-8.6,2.2-13.3l12.8-60.2c0.7-3.1,1.6-5.8,2.7-8c2.3-4.6,6.3-7,11.9-7h19.4c1.3,0,2.8,0.1,4.4,0.3
	c3.3,0.4,4.9,1.8,4.9,4.1c0,0.4,0,0.8-0.1,1.3c-0.2,1.1-1.1,2.2-2.5,3.3C339.3,80.9,337.3,81.4,334.9,81.4z M309.1,84.4
	c0,0-1.4,4.5-3.1,11.3c-0.9,3.4-1.8,7.4-2.8,11.6c-0.5,2.1-1,4.3-1.5,6.6c-0.5,2.2-1,4.5-1.4,6.8c-0.5,2.3-0.9,4.6-1.3,6.8
	c-0.5,2.2-0.8,4.5-1.2,6.6c-0.8,4.3-1.4,8.3-2,11.8c-1.1,6.9-1.5,11.6-1.5,11.6s1.4-4.5,3.1-11.3c0.9-3.4,1.8-7.4,2.8-11.6
	c0.5-2.1,1-4.3,1.5-6.6c0.5-2.2,1-4.5,1.4-6.8c0.5-2.3,0.9-4.6,1.3-6.8c0.5-2.2,0.8-4.5,1.2-6.6c0.8-4.3,1.4-8.3,2-11.8
	C308.6,89.1,309.1,84.4,309.1,84.4z M397,89.8c0,3.6-0.5,7.8-1.4,12.4c-1.1,5.4-2.6,10-4.3,13.9c-2.4,5.4-5,8-8,8
	c-2.2,0-3.2-0.9-3.2-2.7c0-0.4,0-0.8,0.1-1.3c0.1-0.7,0.4-1.4,0.6-2.2c2.2-5.2,3.9-10.4,5-15.8c0.7-3.3,1.1-6.4,1.1-9.2
	c0-0.6,0-1.2-0.1-1.9c-0.3-7.6-3.6-11.3-9.9-11.3c-4.5,0-8.4,2.1-11.8,6.4c-2.7,3.5-4.7,8.2-6,14c-0.5,2.2-0.7,4.2-0.7,6.2
	c0,3.3,0.6,6.5,1.8,9.5c1.7,4.5,5.1,9.9,10.2,16.3c2.1,2.7,4,5.4,5.7,8.2c2.6,4.4,3.9,9,3.9,13.6c0,1.8-0.2,3.6-0.6,5.4
	c-1.2,5.9-3.9,10.8-8.1,14.6c-5.4,5-12.2,7.5-20.4,7.5c-7.2,0-12.2-2.5-14.9-7.5c-1.3-2.4-2-5.4-2-8.8c0-2.3,0.3-4.9,0.9-7.8
	c0.4-2,1.2-3.6,2.4-4.9c1.2-1.3,2.6-2,4.2-2c2.2,0,3.4,1.1,3.4,3.4c0,0.6-0.1,1.2-0.2,2c-0.3,1.8-0.5,3.6-0.5,5.4v1.2
	c0.3,5.4,3,8,8.1,8c5.7,0,9.2-3.1,10.5-9.4c0.2-0.9,0.3-1.7,0.3-2.6c0-3.3-1.3-6.8-3.8-10.4c-1.5-2.1-3.1-4.2-4.9-6.5
	c-4.9-6.1-8.4-11.6-10.5-16.6c-2-4.4-2.9-9.2-2.9-14.3c0-3.1,0.4-6.2,1.1-9.5c1.2-6,3.3-11.3,6.3-16.1c2.1-3.3,4.7-6.2,7.7-8.5
	c5.9-4.6,12.9-6.9,21-6.9C390.4,69.7,397,76.4,397,89.8z M363.2,172.4c-0.5,0.4-1,0.8-1.5,1.1c-0.5,0.3-0.9,0.6-1.2,0.8
	c-0.7,0.5-1.1,0.8-1.1,0.8s0.5-0.1,1.3-0.3c0.4-0.1,0.9-0.2,1.5-0.4c0.3-0.1,0.6-0.2,0.9-0.3c0.3-0.1,0.6-0.3,1-0.4
	c0.7-0.3,1.4-0.6,2.1-1.1c0.7-0.5,1.5-1,2.2-1.6c0.7-0.7,1.4-1.3,2-2.1c0.6-0.8,1.2-1.6,1.6-2.6l0.6-1.4c0.2-0.5,0.3-1,0.5-1.5
	c0.3-1,0.4-2,0.5-2.9c0-0.9,0.1-1.9,0-2.7c0-0.4-0.1-0.8-0.1-1.2c-0.1-0.4-0.2-0.8-0.3-1.1c-0.1-0.7-0.4-1.4-0.6-1.9
	c-0.2-0.6-0.4-1-0.6-1.4c-0.4-0.8-0.7-1.2-0.7-1.2s0.1,0.5,0.1,1.3c0.1,0.4,0.1,0.9,0.1,1.5c0,0.6,0.1,1.2,0,1.9
	c0,0.7,0,1.4-0.1,2.2c0,0.8-0.2,1.6-0.3,2.4c-0.2,0.8-0.4,1.6-0.7,2.4c-0.1,0.4-0.3,0.8-0.4,1.2l-0.6,1.2c-0.2,0.4-0.4,0.8-0.6,1.1
	c-0.2,0.4-0.5,0.7-0.7,1.1c-0.5,0.7-1.1,1.3-1.6,2c-0.6,0.5-1.2,1.1-1.7,1.7C364.4,171.5,363.8,171.9,363.2,172.4z M357.5,121.6
	c-0.5-1.7-1-3.4-1.6-5c-0.5-1.6-1.1-3.1-1.6-4.3c-1-2.5-1.8-4.1-1.8-4.1s-0.1,1.8,0.3,4.5c0.1,1.3,0.4,2.9,0.7,4.6
	c0.3,1.7,0.7,3.4,1.2,5.1c0.3,0.9,0.5,1.7,0.8,2.6c0.3,0.8,0.6,1.7,0.9,2.4c0.6,1.6,1.3,3,2,4.2c0.3,0.6,0.7,1.1,1,1.6
	c0.3,0.5,0.7,0.8,0.9,1.1c0.3,0.3,0.6,0.5,0.7,0.6c0.2,0.1,0.3,0.2,0.3,0.2s-0.2-0.4-0.5-1.1c-0.1-0.4-0.3-0.8-0.4-1.3
	c-0.1-0.5-0.3-1.1-0.5-1.7c-0.2-0.6-0.3-1.3-0.5-2.1c-0.2-0.7-0.4-1.5-0.6-2.3C358.5,125,358,123.3,357.5,121.6z M393.8,81.7
	c0,0,0-0.1-0.1-0.4c-0.1-0.3-0.3-0.6-0.5-1.1c-0.2-0.5-0.6-1-1-1.6c-0.2-0.3-0.5-0.6-0.7-0.9c-0.3-0.3-0.6-0.6-0.9-1
	c-0.3-0.3-0.7-0.7-1.1-1c-0.4-0.3-0.8-0.7-1.2-0.9c-0.5-0.3-0.9-0.6-1.4-0.9c-0.5-0.3-1.1-0.5-1.6-0.7l-0.8-0.3l-0.9-0.2
	c-0.6-0.1-1.2-0.3-1.8-0.4c-0.6,0-1.2-0.1-1.9-0.1c-0.3,0-0.6,0-0.9,0l-0.9,0.1l-1.9,0.3c-0.6,0.1-1.2,0.3-1.8,0.5
	c-0.6,0.2-1.2,0.4-1.7,0.5c-0.5,0.2-1.1,0.5-1.6,0.7c-1,0.5-2,0.9-2.9,1.6c-0.9,0.6-1.6,1.1-2.4,1.7c-0.8,0.5-1.3,1.1-1.8,1.6
	c-0.5,0.5-1,0.9-1.3,1.3c-0.7,0.7-1.1,1.2-1.1,1.2s0.5-0.3,1.5-0.7c0.5-0.2,1-0.5,1.6-0.9c0.6-0.3,1.3-0.8,2.1-1.1
	c0.8-0.4,1.6-0.7,2.5-1.2c0.9-0.5,1.9-0.7,2.8-1.1c0.5-0.2,1-0.4,1.5-0.6c0.5-0.1,1-0.2,1.6-0.4c0.5-0.1,1-0.3,1.6-0.4l1.6-0.2
	L379,75c0.3,0,0.5,0,0.8,0c0.5,0,1.1,0,1.6,0c0.5,0.1,1,0.2,1.5,0.2l0.8,0.1l0.7,0.2c0.5,0.2,1,0.3,1.4,0.4c0.5,0.2,0.9,0.4,1.3,0.6
	c0.4,0.2,0.8,0.5,1.2,0.7c0.4,0.2,0.8,0.4,1.1,0.7c0.7,0.5,1.3,0.9,1.8,1.4c0.5,0.5,1,0.9,1.3,1.2c0.4,0.4,0.6,0.6,0.8,0.9
	C393.7,81.6,393.8,81.7,393.8,81.7z"/>
</svg>
