<?xml version="1.0" encoding="utf-8"?>
<!-- Generator: Adobe Illustrator 18.0.0, SVG Export Plug-In . SVG Version: 6.00 Build 0)  -->
<!DOCTYPE svg PUBLIC "-//W3C//DTD SVG 1.1//EN" "http://www.w3.org/Graphics/SVG/1.1/DTD/svg11.dtd">
<svg version="1.1" id="Layer_1" xmlns="http://www.w3.org/2000/svg" xmlns:xlink="http://www.w3.org/1999/xlink" x="0px" y="0px"
	 viewBox="0 0 432 432" enable-background="new 0 0 432 432" xml:space="preserve">
<path fill="#333333" d="M354.7,356.9c-0.9,0-1.6,0.4-1.9,1.1c-0.6,1.4-1.1,2.5-1.4,3.5c-0.4,1.2-0.8,2.2-1.2,3.2
	c-0.4,1-0.7,2.1-1,3.2c-0.4,1.3-0.8,2.5-1.2,3.7c-0.4,1.2-0.8,2.4-1.3,3.5c-0.4,0.8-0.8,1.6-1.1,2.4c-0.3,0.8-0.7,1.6-1.1,2.4
	c-0.5,1.2-1.1,2.3-1.6,3.3c-0.6,1-1.2,2.1-2,3.1c-1.4,2.3-2.8,4.1-4.4,5.5c-0.4,0.4-0.8,0.8-1.2,1.3c-0.4,0.4-0.8,0.8-1.2,1.1
	c-0.7,0.5-1.4,1-2.1,1.4c-0.7,0.4-1.4,0.7-2.3,0.9c-1.3,0.5-2.4,0.6-3.5,0.3c-1.3-0.5-2.1-1.2-2.7-2c-0.5-0.7-0.9-1.5-1.1-2.3
	c-0.2-0.8-0.4-1.6-0.6-2.4c-0.3-0.7-0.5-1.5-0.5-2.4l-0.5-3.3c-0.1-0.4-0.2-0.8-0.2-1.3c0-0.4,0-0.9,0-1.4v-5c0-0.1,0.1-0.3,0.3-0.5
	c2.1-0.8,3.9-1.7,5.3-2.5c0.9-0.5,1.9-1,2.7-1.6c0.9-0.5,1.8-1,2.7-1.6c1.3-0.8,2.5-1.7,3.6-2.7c1.1-0.9,2.1-2,3-3.3
	c1.9-2.5,3-5.3,3.3-8.5c0-0.9,0-1.9-0.1-2.8c-0.1-0.9-0.2-1.9-0.4-2.8c-0.3-1.5-0.8-2.7-1.6-3.6c-1.5-2.6-3.6-4.8-6.4-6.4
	c-0.8-0.5-1.6-0.9-2.4-1.1c-0.7-0.2-1.5-0.4-2.4-0.6c-0.9-0.1-1.9-0.1-2.8-0.1c-0.9,0.1-1.8,0.2-2.7,0.4c-0.7,0.2-1.4,0.4-2.1,0.6
	c-0.7,0.2-1.4,0.4-2.1,0.6c-0.5,0.2-1.1,0.5-1.6,0.8c-0.6,0.3-1.1,0.6-1.6,0.9c-2.6,1.6-4.7,3.6-6.3,6.1c-1.2,1.5-2.1,3-2.8,4.6
	c-0.7,1.6-1.4,3.2-1.9,5c-0.4,1.2-0.8,2.5-1.1,4.1c-0.2,0.8-0.4,1.6-0.5,2.4c-0.1,0.7-0.2,1.5-0.3,2.4c-0.1,0.7-0.2,1.4-0.2,2.1
	c0,0.7,0,1.4,0,2.1c0,1.4,0.1,2.7,0.2,3.9c0.1,0.6,0.1,1.2,0.2,1.8c0,0,0,0.1,0,0.1c-0.3,0.9-0.6,1.9-0.9,2.7
	c-0.3,0.9-0.7,1.8-1.1,2.6c-0.6,1.5-1.3,3-2,4.5c-0.7,1.5-1.4,3-2.1,4.5c-0.2,0.4-0.4,0.8-0.5,1.2c-0.2,0.4-0.3,0.7-0.5,1
	c-0.5,0.7-1,1.2-1.6,1.3c-0.7,0.2-1.2,0-1.3-0.6c-0.1-0.5-0.2-1.3-0.2-2.4c0.2-0.8,0.3-1.4,0.3-1.7c0.1-0.3,0.2-0.7,0.2-1.3
	c0.1-0.5,0.2-1,0.2-1.6c0.1-0.5,0.1-1,0.2-1.6c0.1-0.4,0.2-0.8,0.2-1.2c0-0.4,0-0.7,0-1l0.5-6.1c0-0.8,0-1.7,0.1-2.5
	c0.1-0.8,0.1-1.7,0.1-2.5v-11.6c0.1-0.5,0.2-1.1,0.2-1.6c0-0.6,0-1.1,0-1.6v-2.5c0.1-0.9,0.2-1.9,0.2-2.7c0-0.9-0.1-1.8-0.3-2.7
	c-0.2-1-0.4-1.8-0.6-2.4c-0.9-2.3-2.6-3.9-5-4.9c-1.4-0.5-3.1-0.9-5.2-1.1c-1.8-0.2-3.6-0.1-5.5,0.5c-1.8,0.3-3.3,0.8-4.7,1.6
	c-2.2,1.2-3.9,2.6-5,4.4c-0.5,0.8-1,1.7-1.5,2.5c-0.5,0.8-0.9,1.7-1.3,2.5c-0.5,0.9-1,1.9-1.5,2.8c-0.5,0.9-1,1.9-1.5,2.8l-2.4,4.7
	c-0.5,1.2-1,2.3-1.3,3.3c-0.4,1-0.8,2.1-1.3,3.3l-0.5,1.4c-0.1-0.1-0.2-0.3-0.2-0.5c0-0.7,0.1-1.3,0.2-1.7c0-1,0-2.1,0.1-3.1
	c0.1-1,0.1-2,0.1-3.1c0.1-2,0-4.2-0.3-6.6c0-0.5-0.1-1.1-0.2-1.6c-0.1-0.6-0.2-1.1-0.3-1.6c-0.1-0.5-0.3-1.1-0.5-1.6
	c-0.2-0.6-0.4-1.1-0.6-1.6c-1-2-2.6-3.9-4.5-5.8c-2.3-2-5-3.1-8-3.5c-0.6-0.1-1.2-0.1-1.8-0.1c-0.6,0.1-1.2,0.1-1.8,0.2
	c-2.3,0.3-4.1,1-5.5,2.2c-1.9,1.4-3.5,3.2-4.9,5.5c-0.5,0.9-1,1.9-1.4,2.9c-0.4,1-0.9,2-1.4,2.9c-0.5,1.4-1,2.7-1.6,4.1
	c-0.5,1.4-1,2.7-1.6,4.1c-0.3,1-0.7,2-1,3c-0.4,0.9-0.7,1.9-1,2.8c-0.3,0.8-0.6,1.7-0.9,2.6c-0.3,0.9-0.5,1.8-0.9,2.6
	c-0.2,0.5-0.3,1-0.4,1.4c-0.1,0.4-0.2,0.8-0.4,1.3h-0.2v-0.5c0.1-0.6,0.2-1.3,0.2-2c0-0.7,0-1.3,0-2c0.1-0.6,0.2-1.2,0.2-1.8
	c0-0.6,0-1.2,0-1.8l0.5-5.2c0.1-0.8,0.2-1.7,0.2-2.5c0.1-0.8,0.1-1.7,0.2-2.5c0-0.5,0-1,0.1-1.5s0.1-1,0.1-1.5
	c0.1-0.8,0.1-1.6,0.1-2.4c-0.1-0.7-0.1-1.5-0.2-2.4c-0.1-0.5-0.2-1-0.2-1.6c-0.1-0.5-0.2-1-0.4-1.6c-0.1-0.2-0.2-0.4-0.3-0.7
	c-0.1-0.3-0.3-0.5-0.5-0.9c-0.2-0.2-0.4-0.5-0.5-0.9c-0.1-0.4-0.3-0.7-0.5-0.9c-1.4-1.8-3.2-2.9-5.5-3.5c-0.5-0.1-1-0.2-1.4-0.2
	c-0.4-0.1-0.9-0.1-1.4-0.1c-1.9,0-3.5,0.2-4.9,0.6c-0.3,0-0.4,0.2-0.3,0.5v0.5c0.2,1.3,0.3,2.5,0.3,3.7c0,1.2,0,2.4,0,3.7
	c0,1.2,0,2.3,0,3.3c0,1-0.1,2.1-0.2,3.3v0.7c-1,0.8-2,1.5-3.1,2.3c-0.5,0.4-1,0.8-1.6,1.1c-0.5,0.3-1,0.7-1.6,1.1v-0.3
	c-0.2-0.8-0.4-1.9-0.6-3.1c-0.2-0.9-0.4-1.9-0.7-2.8c-0.3-0.9-0.5-1.9-0.9-2.8c-0.4-0.9-0.9-1.9-1.3-2.9c-0.5-1-1-1.9-1.6-2.7
	c-0.7-1.1-1.8-2.2-3.1-3.3c-0.4-0.3-0.8-0.6-1.3-0.9c-0.4-0.3-0.8-0.5-1.3-0.7c-2.3-1.2-4.9-1.9-7.7-2.2c-1.2-0.2-2.3-0.3-3.5-0.2
	c-1.2,0.1-2.3,0.2-3.5,0.4c-1.6,0.2-3.1,0.7-4.7,1.4c-2.6,1.4-4.9,3.3-6.9,5.8c-0.7,0.8-1.4,1.7-1.9,2.6c-0.5,0.9-1,1.8-1.6,2.7
	c-0.8,1.8-1.5,3.5-1.9,5.2c-0.2,0.5-0.4,1-0.5,1.6c-0.1,0.5-0.2,1-0.3,1.6c-0.2,0.6-0.4,1.3-0.5,1.9c-0.1,0.6-0.2,1.3-0.3,1.9
	c-0.1,0.6-0.2,1.2-0.2,1.8c-0.1,0.6-0.1,1.1-0.2,1.6c0,0.5,0,1.1-0.1,1.6c-0.1,0.6-0.1,1.1-0.1,1.6c0,0.8,0,1.6,0.1,2.4
	c0,0.5,0.1,1.1,0.1,1.7c-0.5,1.3-1,2.6-1.4,3.9c-0.8,2.1-1.7,4.2-2.6,6.4c-0.9,2.1-1.8,4.3-2.7,6.4c-0.2,0.4-0.4,0.8-0.6,1.2
	c-0.2,0.4-0.5,0.8-0.8,1.2c-0.1,0.3-0.4,0.7-0.9,1.3c-0.8,0.8-1.5,0.7-1.9-0.5c-0.2-0.2-0.3-0.5-0.3-0.8c-0.1-0.8-0.2-1.6-0.3-2.4
	c-0.1-0.7-0.2-1.5-0.2-2.4c0-1.7,0-3.3,0.1-4.9c0.1-1.6,0.1-3.2,0.2-4.9v-0.2c0-1.1,0-2.2,0.1-3.3c0.1-1,0.1-2.1,0.2-3.3
	c0-0.5,0-1.1-0.1-1.6c-0.1-0.6-0.1-1.1-0.1-1.6c0-0.6,0-1.3,0.1-1.9c0.1-0.6,0.1-1.2,0.1-1.7c0-0.8,0-1.6-0.1-2.4
	c-0.1-0.7-0.1-1.5-0.1-2.2c0-2.4-0.3-4.7-0.9-6.9c-0.2-1.2-0.5-2.2-1-3.3c-0.5-1-1-2.1-1.5-3.1c-2.5-4.6-6.3-7.4-11.5-8.3
	c-2.7-0.3-5.2-0.3-7.5,0.2c-1.9,0.5-3.5,1.3-4.9,2.4c-1.8,1.2-3.3,2.5-4.5,4.1c-1.2,1.6-2.3,3.3-3.2,5.2c-0.2,0.2-0.4,0.5-0.5,0.8
	c-0.1,0.3-0.3,0.6-0.5,0.8c-0.2-0.2-0.3-0.6-0.3-1.1c0-1,0-2.1,0.1-3.1c0.1-1,0.1-2,0.1-2.9c0.1-1.7,0.2-3.3,0.2-4.9
	c0-1.6,0.1-3.2,0.2-4.8c0-1.8,0-3.5,0.1-5.1c0.1-1.6,0.1-3.3,0.2-4.9v-6.6c0-0.8-0.1-1.6-0.2-2.4c-0.1-0.8-0.4-1.5-0.8-2.3
	c-0.8-1.7-1.9-2.9-3.3-3.6c-0.7-0.5-1.5-0.9-2.2-1c-0.7-0.2-1.5-0.3-2.4-0.5c-1.2-0.2-2.3-0.2-3.3-0.1c-1,0.2-2.1,0.4-3.3,0.7
	c0.1,0.2,0.2,0.4,0.2,0.7c0,0.3,0.1,0.5,0.2,0.7c0,1.2,0,2.3,0.1,3.3c0.1,1,0.1,2.1,0.1,3.3c0,1.7,0,3.3,0,4.9
	c0,1.6-0.1,3.2-0.2,4.9v4.7c-0.1,1.8-0.2,3.5-0.2,5.1c0,1.6-0.1,3.3-0.2,4.9c0,1,0,2.1,0,3.1c0,1-0.1,2-0.2,3.1c0,1.4,0,2.7-0.1,4.1
	c-0.1,1.4-0.1,2.7-0.2,4.1v8.8c0,1,0,2.1,0,3.1c0,1-0.1,2.1-0.2,3.3c0,1.6,0,3.2-0.1,4.8c-0.1,1.6-0.1,3.2-0.2,4.8
	c0,1.9,0,3.8-0.1,5.7c-0.1,1.9-0.2,3.8-0.4,5.7c-0.2,1.6-0.3,3.1-0.4,4.7c-0.1,1.6-0.1,3.2-0.2,4.9v0.6c0.6,0.2,1.4,0.4,2.2,0.6
	c2.4,0.6,4.7,0.6,6.9,0c2.1-0.7,3.8-2.3,5-4.7c0.7-1.5,1.1-3.1,1.1-5v-1.9l0.5-7.5c0.1-1.1,0.2-2.3,0.2-3.4s0.1-2.2,0.2-3.4
	c0.1-1.6,0.2-3.1,0.2-4.6c0.1-1.5,0.2-3,0.4-4.5c0.1-0.8,0.2-1.6,0.2-2.4c0-0.7,0.1-1.5,0.3-2.4c0.3-1,0.7-2.2,1.3-3.6
	c0.5-1.4,1.1-2.6,1.8-3.8c0.7-1.2,1.4-2.4,2.3-3.5c1.5-1.9,3.3-3.8,5.5-5.6c0.3-0.2,0.7-0.4,1-0.7c0.4-0.3,0.8-0.5,1.2-0.7
	c0.8-0.5,1.7-0.7,2.6-0.4c0.9,0.3,1.6,0.8,2.1,1.5c0.3,0.4,0.6,0.8,0.9,1.3c0.3,0.4,0.5,0.9,0.7,1.4c0.4,1.3,0.7,2.5,0.9,3.8
	c0.2,0.7,0.3,1.4,0.4,2c0.1,0.6,0.2,1.3,0.4,2c0,0.5,0,1.1,0.1,1.6c0.1,0.6,0.1,1.1,0.1,1.6l0.5,8.9c0,2.3,0,4.6-0.1,6.8
	c-0.1,2.3,0,4.6,0.2,7c0.1,0.7,0.2,1.4,0.2,2.1c0,0.7,0.1,1.4,0.2,2.1c0.2,1.2,0.4,2.3,0.5,3.4c0.2,1.1,0.4,2.2,0.7,3.4
	c0.3,1.6,0.8,3,1.4,4.2c1.9,3.1,4.6,4.7,8.2,4.6c0.5,0,1,0,1.5-0.1c0.5-0.1,1-0.1,1.5-0.2c2.2-0.3,4-1.3,5.3-3
	c1.8-1.9,3.2-4.1,4.4-6.6c0.6-1.5,1.3-2.9,1.9-4.4c0.4-1,0.8-2,1.3-2.9c0.2,0.8,0.5,1.7,0.8,2.5c0.7,1.9,1.4,3.5,2,4.9
	c1.4,2.5,3,4.6,5,6.3c2.2,2,4.8,3.2,7.7,3.8c0.5,0.2,1,0.3,1.6,0.3c0.5,0,1,0.1,1.6,0.2c1.1,0.1,2.4,0.1,3.6,0
	c1.3-0.1,2.5-0.4,3.6-0.9c2.1-0.6,4-1.8,5.6-3.6c1.6-1.5,2.9-3.1,4.1-5c0.7-1,1.3-2.1,1.8-3.1c0.5-1,1-2.1,1.5-3.2
	c0.4-1.1,0.8-2.3,1.2-3.5c0.4-1.1,0.7-2.3,0.9-3.5c0.1-0.5,0.2-1,0.3-1.6c0.1-0.5,0.2-1,0.3-1.6c0.1-0.5,0.2-1,0.2-1.5
	c0.1-0.5,0.1-1,0.2-1.5c0.1-0.7,0.2-1.4,0.2-2.1c0.1-0.7,0.2-1.4,0.4-2.1c0-0.5,0.1-0.9,0.2-1.1v-1.9c0-0.2,0.1-0.4,0.3-0.6
	c0.9-0.6,1.8-1.2,2.7-1.8c0.8-0.6,1.7-1.2,2.5-2c0.2-0.2,0.4-0.4,0.6-0.5v3.5c-0.1,1.2-0.2,2.3-0.2,3.4s-0.1,2.2-0.2,3.4v5.2
	c-0.1,0.9-0.2,1.9-0.2,2.8c0,0.9-0.1,1.8-0.2,2.7v1.4c0,0.5,0,1-0.1,1.4c-0.1,0.4-0.1,0.9-0.1,1.4c0,0.8,0,1.7,0,2.7
	s0.1,1.9,0.3,2.8c0.2,0.8,0.4,1.7,0.6,2.5c0.2,0.8,0.6,1.7,1.1,2.5c1.3,2.4,3.2,3.8,5.8,4.2c0.3,0.1,0.7,0.2,1.1,0.2
	c1.4,0.2,2.5-0.1,3.3-0.8c0.4-0.4,0.7-1,0.9-1.7c0.5-1,1-2.4,1.6-3.9c0.3-0.9,0.6-1.9,0.9-2.7c0.3-0.9,0.5-1.8,0.9-2.7
	c0.2-0.8,0.4-1.7,0.7-2.7c0.3-0.9,0.5-1.8,0.9-2.7c0.2-0.7,0.4-1.4,0.6-2.1c0.2-0.7,0.4-1.4,0.6-2.1c0.4-1,0.8-2.1,1.2-3.1
	c0.4-1,0.8-2.1,1.2-3.2c0.4-1,0.8-2,1.1-3c0.3-0.9,0.7-1.9,1.1-3c0.5-1.6,1.1-3.1,1.7-4.6c0.6-1.5,1.2-3.1,1.7-4.6
	c0.5-1.3,1-2.5,1.5-3.7c0.5-1.2,1-2.4,1.5-3.5c0.5-1.3,1.1-2.2,1.9-3c0.9-1,2.1-1.4,3.6-0.9c1,0.2,1.8,1,2.4,2.5
	c0.5,1.4,0.9,3,1.1,5c0.1,0.7,0.2,1.4,0.2,2.1c0,0.7,0.1,1.4,0.2,2.1c0,0.8,0,1.6-0.1,2.4c-0.1,0.8-0.1,1.6-0.1,2.4v2.4
	c-0.1,0.8-0.2,1.7-0.2,2.5c0,0.8-0.1,1.7-0.2,2.5v5.3c-0.1,1.2-0.2,2.3-0.2,3.5c0,1.2-0.1,2.3-0.2,3.5v2.2c-0.2,1.5-0.2,2.9,0,4.2
	c0.2,0.6,0.3,1.3,0.4,2c0.1,0.7,0.2,1.3,0.4,2c0.3,1.6,1,3.1,2,4.6c1.3,1.8,3,2.8,5.2,3h0.3c0.4,0.1,0.8,0.1,1.1,0.1
	c0.3-0.1,0.7-0.1,1.1-0.2c0.6-0.1,1.1-0.5,1.6-1.1c0.4-0.6,0.8-1.6,1.3-2.8c0.2-0.5,0.3-1,0.4-1.3c0.1-0.4,0.2-0.8,0.4-1.3
	c0.2-0.8,0.4-1.7,0.7-2.6c0.3-0.9,0.5-1.8,0.9-2.7l1.4-4.7c0.2-0.6,0.4-1.3,0.5-1.9c0.2-0.6,0.3-1.2,0.5-1.7
	c0.2-0.8,0.4-1.6,0.7-2.3c0.3-0.7,0.5-1.4,0.7-2.3c0.2-0.6,0.4-1.3,0.5-2c0.2-0.7,0.3-1.3,0.5-2c0.3-1.1,0.6-2.2,0.9-3.2
	c0.3-1,0.6-2,0.9-3.1c0.2-0.6,0.4-1,0.5-1.3c0.4-1,0.8-2,1.2-3c0.4-0.9,0.8-1.9,1.2-3l1.4-2.8c0.4-0.8,0.9-1.6,1.4-2.4
	c0.5-0.8,1-1.5,1.6-2.3c0.4-0.6,0.8-1,1.1-1.3c0.8-0.8,1.7-1.5,2.5-1.9c1.1-0.5,2.1-0.7,3-0.5c1.1,0.2,1.8,0.8,1.9,1.7
	c0.1,0.4,0.2,0.8,0.2,1.1c0.1,0.3,0.1,0.7,0.1,1.1c0,0.4,0,0.8,0.1,1.2c0.1,0.4,0,0.8-0.1,1.2c0,0.7,0,1.4-0.1,2.1
	c-0.1,0.7-0.1,1.4-0.2,2.1c-0.1,0.8-0.2,1.6-0.2,2.3c0,0.7-0.1,1.4-0.2,2.1c-0.1,0.3-0.2,0.9-0.2,1.7c-0.1,0.7-0.2,1.5-0.2,2.2
	c-0.1,0.7-0.1,1.5-0.2,2.4c-0.1,0.9-0.2,1.9-0.2,2.9c-0.1,1-0.1,2-0.1,2.9c-0.1,1.2-0.2,2.3-0.2,3.5c0,1.2-0.1,2.3-0.2,3.5
	c0,0.5,0,1,0.1,1.6c0.1,0.5,0.1,1,0.1,1.6c0,0.8,0,1.7,0.1,2.5c0.1,0.8,0.1,1.7,0.2,2.5l0.5,2.8c0.2,0.6,0.4,1.2,0.7,1.8
	c0.3,0.6,0.6,1.1,1,1.6c0.5,0.8,1.1,1.6,1.8,2.3c0.7,0.7,1.4,1.3,2.3,2c1.3,0.8,2.5,1.2,3.8,1.1c0.3,0,0.6,0,0.9,0.1
	c0.3,0.1,0.6,0,0.9-0.1c0.6,0,1.3,0,1.9-0.1c0.6-0.1,1.3-0.2,1.9-0.4c0.6-0.2,1.2-0.5,1.6-0.9c0.5-0.4,1-0.8,1.5-1.2
	c1.9-2,3.3-4,4.2-6c0.3-0.6,0.6-1.3,0.9-1.9c0.3-0.6,0.5-1.2,0.7-1.7c0.5-0.9,1-1.9,1.3-2.8c0.1-0.3,0.2-0.6,0.4-0.8
	c0.2,0.5,0.3,1,0.5,1.5c0.4,0.9,0.8,1.9,1.2,2.8c0.4,0.9,0.8,1.8,1.3,2.7c0.8,1.2,1.7,2.3,2.5,3.4c0.8,1.1,1.8,2.1,3,3.1
	c1.7,1.5,3.7,2.5,6.1,3c0.6,0.1,1.3,0.2,2,0.2c0.7,0.1,1.4,0.1,2.1,0.1h0.8c0.8,0,1.6,0,2.4,0c0.7,0,1.5-0.1,2.4-0.2
	c0.5-0.1,1.1-0.2,1.6-0.2c0.6-0.1,1.1-0.2,1.6-0.4c0.5-0.2,1-0.4,1.6-0.7c0.5-0.3,1-0.5,1.6-0.9c1.1-0.6,2.2-1.4,3.1-2.2
	c0.9-0.8,1.8-1.7,2.6-2.7c0.9-0.9,1.8-1.9,2.5-2.9c0.7-1,1.5-2,2.2-3.1c0.8-1.4,1.6-2.7,2.4-4c0.7-1.3,1.5-2.7,2.2-4.2
	c0.5-1.4,1-2.7,1.6-3.9c0.5-1.3,1-2.6,1.6-3.9c0.8-2,1.5-3.9,1.9-5.8c0.3-1,0.6-2.1,0.9-3.1c0.3-1,0.6-2.1,0.8-3.3
	c0.2-0.8,0.3-1.6,0.3-2.2c-0.2-0.8-0.5-1.5-0.8-1.9C356.6,357.2,355.8,356.9,354.7,356.9z M321.5,368.5c0.1-0.4,0.1-0.8,0.2-1.3
	c0-0.9,0.2-1.8,0.5-2.7c0.3-1.8,0.7-3.2,1.1-4.4c0.2-0.6,0.4-1.2,0.6-1.8c0.2-0.6,0.4-1.1,0.6-1.6c0.4-0.9,0.9-1.8,1.4-2.7
	c0.5-0.8,1-1.7,1.6-2.5c0.2-0.2,0.4-0.5,0.6-0.8c0.2-0.3,0.5-0.6,0.8-0.8c1.3-1,2.5-1.5,3.8-1.4c0.9,0,1.7,0.5,2.2,1.6
	c0.4,0.7,0.7,1.5,0.8,2.2c0,0.5,0.1,0.9,0.2,1.1c0,0.5-0.1,1.3-0.3,2.4c-0.2,0.6-0.4,1.2-0.6,1.8c-0.2,0.6-0.5,1.1-0.8,1.6
	c-0.8,1.7-2.1,3.3-3.8,5c-1.7,1.7-3.5,3-5.5,4.1c-0.5,0.2-1,0.4-1.5,0.7c-0.5,0.3-1,0.5-1.5,0.7c-0.1,0-0.2,0-0.2,0.1
	c-0.1,0.1-0.2,0.1-0.4,0.1C321.4,369.4,321.5,368.9,321.5,368.5z M176.8,349c0.2-0.8,0.4-1.6,0.6-2.2c0.3-0.6,0.9-1.2,1.7-1.7
	c1.4-0.8,3-0.9,4.9-0.2c1.7,0.9,3,2.3,3.9,3.9c0.3,0.6,0.6,1.3,0.9,1.9c0.3,0.6,0.5,1.3,0.7,1.9l0.5,2.8c0.1,0.5,0.2,1,0.2,1.3
	c0.1,0.4,0.1,0.8,0.1,1.2c0.2,0.5,0.3,1.1,0.4,1.6c0.1,0.6,0.1,1.1,0.2,1.6v0.5h-0.5c-1.2,0.1-2.5,0-4.1-0.3
	c-1.4-0.4-2.6-0.9-3.7-1.5c-1.1-0.6-2.1-1.4-3.1-2.6c-1.2-1.3-1.9-2.7-2.4-4.2c-0.2-0.5-0.3-1-0.4-1.4c-0.1-0.4-0.1-0.9-0.2-1.4
	C176.6,349.8,176.7,349.4,176.8,349z M191,370.2c-0.1,0.6-0.1,1.2-0.1,1.8c0,0.2,0,0.5-0.1,0.8c-0.1,0.3-0.1,0.6-0.1,0.9
	c-0.1,0.5-0.2,1.1-0.2,1.6c0,0.6-0.1,1.1-0.2,1.6c-0.2,0.8-0.4,1.7-0.5,2.5c-0.1,0.8-0.3,1.7-0.5,2.5c-0.5,2.1-1.2,4-2,5.8
	c-0.8,1.8-1.9,3.5-3.3,5.2c-1.6,1.9-3.3,3.2-5.2,3.9c-1,0.3-1.9,0.4-2.7,0.3c-1.2-0.3-2.1-0.9-3-1.9c-0.7-0.8-1.4-1.9-1.9-3.1
	c-0.3-0.6-0.5-1.3-0.7-1.9c-0.2-0.6-0.3-1.3-0.5-1.9c-0.1-0.4-0.2-0.8-0.2-1.1c-0.1-0.3-0.1-0.7-0.1-1.1c-0.1-0.9-0.2-1.9-0.2-2.7
	c-0.1-0.9-0.1-1.8-0.2-2.7c-0.1-1.9-0.1-3.8,0-5.8c0-0.8,0-1.7,0.1-2.6c0.1-0.9,0.1-1.8,0.2-2.6l0.5-3.8c0.1-0.5,0.2-1.1,0.3-1.6
	c0.1-0.6,0.3-1.1,0.5-1.6c0.1-0.5,0.2-1,0.3-1.5c0.1-0.5,0.3-1,0.5-1.5c0.2-0.8,0.4-1.5,0.6-1.9l0.2-0.2c0.1,0.1,0.2,0.2,0.2,0.2
	c0,0.1,0.1,0.1,0.2,0.2c1.8,3,4.2,5.3,7.4,6.9c0.5,0.2,1,0.4,1.5,0.5c0.5,0.2,1,0.3,1.5,0.5c0.7,0.2,1.5,0.4,2.2,0.5
	c0.7,0.2,1.5,0.3,2.2,0.5c0.5,0.2,1.3,0.4,2.4,0.6c0.4,0,0.7,0.1,0.9,0.2c0.2,0,0.3,0.1,0.3,0.3C191.1,369,191,369.6,191,370.2z
	 M153.1,19.2c-0.1-1.5,0.4-2.9,1.3-4.1c0.7-0.9,1.7-1.4,2.9-1.5c1.2-0.1,2.3,0.2,3.2,1v0.2V15c-0.2,0.2-0.3,0.3-0.4,0.5
	c-0.1,0.2-0.3,0.4-0.4,0.5c-0.6,1-0.8,1.8-0.4,2.5c0.4,0.7,1.1,1,2,0.9c0.3,0,0.9-0.1,1.7-0.4c0.8-0.3,1.7-0.6,2.6-1
	c1.3-0.7,2.9-1.5,4.6-2.4c1.7-0.9,3.6-1.6,5.5-2.2c1.9-0.6,3.9-0.9,5.9-1c2,0,4,0.5,5.9,1.5c1.4,0.7,2.5,1.7,3.3,3
	c0.8,1.3,1.3,2.7,1.5,4.2c0.2,1.5,0.1,3-0.3,4.6c-0.4,1.6-1.1,3-2,4.4c-1.1,1.3-2.2,2.1-3.1,2.4c-1,0.4-2.2,0.5-3.5,0.4
	c-2-0.2-3.1-0.6-3.3-1.4c-0.2-0.8-0.1-1.4,0.2-2c0.2-0.2,0.4-0.4,0.7-0.4c0.3,0,0.6-0.1,1-0.2c0.4-0.1,0.7-0.2,1.1-0.5
	c0.4-0.2,0.8-0.7,1.2-1.3c1.3-2.2,1.1-4.2-0.5-6.1c-1.1-1.3-2.6-2.1-4.4-2.3h-1.7c-1.6,3.6-3,7.5-4.3,11.8
	c-1.3,4.3-2.4,8.7-3.3,13.1c-0.9,4.5-1.5,9-1.9,13.5c-0.4,4.6-0.3,8.9,0.1,13.1c0.3,3,1,5.5,2,7.5c1,2,1.7,3.1,2,3.4
	c0.6,0.2,1.1-0.4,1.7-1.5c0.6-1.2,1-2.2,1.2-3.1c0.4-1.7,1.1-2.7,2.3-2.7c0.5-0.1,0.9,0.1,1.4,0.6c0.5,0.5,0.7,1.1,0.7,2
	c0.1,2.1-0.6,4.2-1.9,6.2c-1,1.5-2.5,2.5-4.4,2.9c-2.6,0.5-4.9,0-7-1.4c-2.1-1.4-3.7-3.1-4.9-5.2c-1.3-2.1-2.1-4.7-2.6-7.7
	c-0.5-3-0.8-5.7-0.8-8.2c-0.4-7,0-13.4,1.3-19.4c1.3-6,3.4-12.1,6.3-18.5c0.2-0.3,0.4-0.8,0.7-1.4c0.3-0.6,0.5-1.1,0.7-1.5
	c-2.5,0.8-4.7,1.2-6.6,1.3c-1.9,0.1-3.7-0.3-5.2-1.2C153.9,22,153.2,20.8,153.1,19.2z M191.4,62.3c0.4,3.2,0.9,6.3,1.5,9.3
	c0.6,3,1.8,5.9,3.6,8.7c0.6,1,1.3,1.8,2.1,2.2c0.8,0.4,1.9,0.5,3.5,0.3c1-0.2,1.7-0.4,1.9-0.8c0.2-0.4,0.3-1.1,0.1-2
	c-0.3-1.3-0.5-2.6-0.6-4c-0.1-1.4,0.1-2.8,0.5-4c0.2-0.9,0.5-1.7,0.8-2.6c0.3-0.9,0.6-1.7,0.9-2.6c0.7-2.1,1.4-4.1,2.2-6.2
	c0.8-2.1,1.6-4.1,2.6-6.1c1-1.9,2.2-3.8,3.5-5.5c1.3-1.7,3-3.2,4.9-4.6c0.2-0.2,0.5-0.3,0.8-0.5c0.3-0.2,0.6-0.4,0.9-0.5
	c0.2,0.3,0.3,0.8,0.3,1.4c0,0.6,0.1,1.1,0.1,1.5c-0.1,1.8-0.2,3.4-0.4,4.8c-0.2,1.3-0.6,2.8-1.2,4.4c-1.2,3.2-2.4,6.4-3.6,9.4
	c-1.2,3-2.2,6.7-2.9,10.9c-0.3,1.5-0.5,3-0.5,4.6c0,1.5,0,3.1,0.2,4.7c0.2,2.5,1.1,4.3,2.9,5.5c1.7,1.2,3.8,1.7,6.3,1.4
	c2.2-0.2,4.1-1.1,5.6-2.5c1-0.9,1.9-1.8,2.7-2.7c0.9-0.9,1.7-1.9,2.5-3c1.7-2.3,3.3-4.9,4.9-7.8c0.5-1,1-1.9,1.5-2.8
	c0.2,0.4,0.3,0.8,0.5,1.2c0.6,1.2,1.4,2.3,2.4,3.3c1.3,1.2,2.8,2.1,4.5,2.9c1.7,0.7,3.5,1.1,5.3,1.1c1.8,0,3.6-0.4,5.3-1.2
	c1.7-0.8,3.3-2.1,4.6-3.8c0.9-1.1,1.8-2.5,2.8-4.2c1-1.7,2-3.4,2.9-5.1c0.9-1.7,1.8-3.4,2.6-5c0.8-1.6,1.3-2.8,1.7-3.7
	c0.1-0.3,0.2-0.7,0.4-1.1c0.2-0.4,0.3-0.9,0.4-1.4c0.1-0.5,0.1-0.9,0-1.2c-0.1-0.4-0.3-0.6-0.7-0.8c-1-0.3-1.7,0.2-2.4,1.5
	c-2.5,5.9-5,10.7-7.3,14.1c-2.3,3.5-4.3,5.8-5.8,7c-0.8,0.6-1.6,0.9-2.4,1.2c-0.8,0.2-1.6,0.1-2.3-0.5c-1.3-1-2.3-2.3-3-3.9
	c-0.8-1.8-1.3-3.6-1.4-5.4c-0.2-1.8-0.1-3.6,0.1-5.5c0.1-0.5,0.1-0.9,0.2-1.4c0-0.5,0.1-1,0.3-1.4h2.4c2.1-0.2,3.9-0.8,5.2-1.8
	c1.3-1.1,2.4-2.5,3.1-4.3c1.1-3,1.4-5.9,0.8-8.7c-0.2-1.1-0.7-1.9-1.2-2.4c-0.6-0.5-1.5-0.8-2.7-0.9c-3.2-0.2-6.2,0.8-8.8,3
	c-0.9,0.7-1.6,1.5-2.3,2.4c-0.7,0.9-1.3,1.7-2,2.6c-2.1,3.3-3.5,6.7-4.3,10.1c-0.5,2.3-0.7,4.7-0.5,7.2c-0.5,1.2-1.1,2.4-1.6,3.5
	c-0.8,1.7-1.6,3.1-2.3,4.4c-0.9,1.6-2,3.4-3.4,5.6c-1.4,2.1-2.8,3.8-4,5.1c-1.3,1.3-2.3,2.1-2.9,2.4c-0.6,0.2-0.9,0.4-0.9,0.4
	c-0.6-0.2-1-1.3-1.2-3.6c-0.2-2.2,0.3-6,1.7-11.4c0.8-2.9,1.9-5.8,3.3-8.7c1.4-2.9,2.5-5.7,3.4-8.7c0.4-1.5,0.7-3,1-4.5
	c0.2-1.5,0.3-3,0.1-4.6c-0.1-2.3-0.8-4.1-2-5.3c-1.3-1.2-3-1.9-5.2-2c-2.6,0-5,0.7-7.1,2.1c-1.3,0.9-2.6,1.9-3.7,3
	c-1.1,1.1-2.1,2.3-3,3.7c-1.3,1.9-2.5,3.9-3.4,6c-0.9,2.1-1.9,4.2-2.7,6.4c-0.2,0.3-0.3,0.6-0.4,0.9c-0.1,0.3-0.3,0.6-0.4,1v-10
	c0-0.9,0.4-1.8,1.2-2.7c2.4-2.8,4.6-5.7,6.5-8.7c2-3,3.6-6.4,5-9.9c0.9-2.6,1.8-5.2,2.5-7.9c0.7-2.7,1.2-5.4,1.4-8.1
	c0.2-1,0.2-2,0.2-2.9c0-0.9-0.3-1.8-0.7-2.8c-0.7-2-2.2-3-4.4-3.2c-2.4-0.2-4.4,0.5-5.9,2c-0.6,0.4-1.2,1-2,1.8
	c-0.8,0.8-1.3,1.5-1.7,2c-2.5,3.1-4.5,6.1-6,9c-1.5,2.9-2.8,6.3-4.1,10.1c-1.7,5-2.7,10.2-3.1,15.5C190.6,51.7,190.8,57,191.4,62.3z
	 M250.1,51.1c1-1.9,2.1-3.8,3.4-5.7c0.6,1.3,0.8,2.6,0.6,3.9c-0.2,1-0.4,2-0.7,3c-0.3,1-0.7,1.9-1.4,2.8c-0.5,0.7-1,1.3-1.7,1.7
	c-0.6,0.4-1.5,0.5-2.6,0.4C248.4,55,249.1,53,250.1,51.1z M202.5,39.4c0.3-2.2,0.7-4.5,1.3-7s1.3-5,2.1-7.5c0.8-2.5,1.6-4.9,2.4-7.1
	c0.8-2.2,1.7-4,2.6-5.6c0.9-1.5,1.7-2.6,2.5-3c0.5,0.9,0.8,1.8,0.9,2.7c0.1,0.9,0.1,1.8,0.1,2.8c-0.2,1.8-0.4,3.6-0.7,5.3
	c-0.9,4-2,7.8-3.5,11.5c-1.5,3.7-3.3,7.3-5.5,10.7c-0.2,0.3-0.5,0.8-0.9,1.4c-0.5,0.6-0.9,1.1-1.3,1.4
	C202.2,43.4,202.2,41.6,202.5,39.4z M313.5,174.5H210.2c-0.5,0-0.9,0.9-0.9,1.9v7.9H207c-0.5,0-0.9,0.9-0.9,1.9v5.8
	c-6.5-3.9-21.2-14.8-21.2,2.3c0,17.3,14.5,8.9,21.2,5.2v4c0,1.1,0.4,1.9,0.9,1.9h2.3v7.9c0,1.1,0.4,1.9,0.9,1.9h103.2
	c0.5,0,0.9-0.9,0.9-1.9v-7.9h2.5c0.5,0,0.9-0.9,0.9-1.9v-5.8c6.5,3.9,21.2,14.8,21.2-2.3c0-17.3-14.5-8.9-21.2-5.2v-4
	c0-1.1-0.4-1.9-0.9-1.9h-2.5v-7.9C314.4,175.4,314,174.5,313.5,174.5z M218.7,205.6c0,0.8,0,1.5,0,2.3c-0.1,0.9-0.4,1.6-0.9,2
	c-0.5,0.5-1.2,0.6-2,0.4c-0.6-0.1-1-0.4-1.4-0.9c-0.4-0.5-0.5-1-0.5-1.6c0.1-2.1,0.1-4.1,0.2-6.2c0-2,0.1-4.1,0.1-6.2
	c0-1.7,0-3.4,0-5c0-1.7-0.1-3.3,0-5c0-1,0.1-1.9,0.3-2.8c0.2-0.5,0.4-0.9,0.8-1.2c0.3-0.3,0.7-0.4,1.2-0.4c0.4,0,0.8,0.2,1.2,0.5
	c0.4,0.3,0.7,0.7,0.8,1.1c0.1,0.3,0.2,0.5,0.2,0.8c0,0.3,0.1,0.5,0.1,0.8c0,0.4,0,0.9,0,1.3c0,0.4,0,0.9,0,1.3l-0.1,9.1
	c0,1.2,0.1,2.4,0.1,3.6c0,1.2,0.1,2.4,0.1,3.6C218.7,204.1,218.7,204.9,218.7,205.6z M230.2,191.6c0.6,0.3,1.2,0.5,1.8,0.7
	c0.6,0.2,1.2,0.5,1.8,0.7c1.3,0.6,2.4,1.3,3.5,2.1c1,0.9,1.7,2,2,3.4c0.3,1.4,0.5,2.8,0.4,4.1c-0.1,1.4-0.5,2.7-1.2,4
	c-0.4,0.8-1,1.4-1.6,1.9c-0.6,0.5-1.3,0.9-2.1,1.2c-0.4,0.2-0.8,0.3-1.2,0.4c-0.4,0.1-0.9,0.2-1.3,0.2c-1,0.2-1.9,0.1-2.8-0.1
	c-0.9-0.2-1.7-0.6-2.5-1.1c-0.7-0.4-1.4-1-1.9-1.6c-0.6-0.7-1-1.4-1.2-2.4c-0.2-0.6-0.3-1.2-0.5-1.8c-0.2-0.6-0.2-1.2-0.1-1.8
	c0.1-0.6,0.3-1,0.6-1.4c0.4-0.4,0.8-0.6,1.3-0.7c1.3-0.1,2.1,0.5,2.4,1.7c0.1,0.3,0.1,0.6,0.1,0.9c0,0.3,0.1,0.6,0.1,0.9
	c0.1,0.8,0.5,1.5,1.1,2c0.6,0.5,1.4,0.9,2.2,1c0.9,0.1,1.7-0.1,2.4-0.5c0.7-0.4,1.2-1,1.5-1.8c0.3-0.7,0.4-1.3,0.4-2
	c0-0.7-0.1-1.4-0.4-2c-0.3-0.6-0.7-1.2-1.2-1.7c-0.5-0.5-1.2-0.9-1.9-1.2c-0.5-0.2-1.1-0.4-1.6-0.6s-1.1-0.4-1.7-0.6
	c-1.1-0.4-2-1-2.7-1.8c-0.7-0.8-1.3-1.6-1.8-2.6c-0.1-0.3-0.2-0.5-0.3-0.8c-0.1-0.3-0.1-0.5-0.1-0.8c-0.1-1.2,0.1-2.3,0.4-3.4
	c0.3-1.1,0.9-2,1.6-2.9c0.7-0.8,1.6-1.5,2.8-2.1c1.2-0.5,2.3-0.8,3.3-0.8c1.1-0.1,2,0.1,2.8,0.6c0.8,0.5,1.6,1,2.4,1.6
	c0.7,0.6,1.3,1.2,1.7,2c0.4,0.8,0.8,1.6,1.1,2.4c0.2,0.6,0.2,1.3,0,2c-0.2,0.5-0.5,0.8-0.8,1.1c-0.4,0.3-0.8,0.4-1.2,0.4
	c-0.4,0-0.9-0.1-1.3-0.4c-0.4-0.3-0.7-0.6-0.9-1c-0.1-0.3-0.2-0.5-0.2-0.8c-0.1-0.3-0.1-0.5-0.2-0.8c-0.3-0.7-0.6-1.3-1-1.8
	c-0.4-0.5-1-0.8-1.8-1c-0.4-0.1-0.8-0.1-1.3,0c-0.4,0.1-0.9,0.3-1.2,0.6c-0.4,0.3-0.7,0.6-1,0.9c-0.3,0.4-0.5,0.7-0.6,1.2
	C227.7,189.5,228.4,190.8,230.2,191.6z M269.7,184.1c-0.2,0.6-0.6,1-1.3,1.2c-0.3,0.1-0.5,0.2-0.8,0.2c-0.3,0-0.5,0.1-0.8,0.1
	c-0.4,0-0.9,0-1.3,0c-0.4,0-0.9,0-1.5,0c0,0.2,0,0.4,0,0.6c0,0.2,0,0.4,0,0.6c0,3.4,0,6.8,0,10.2c0,3.4,0,6.8,0,10.2
	c0,0.3,0,0.7-0.1,1c-0.1,0.3-0.1,0.7-0.2,1c-0.3,1-1.1,1.4-2.3,1.3c-1.1-0.2-1.7-0.7-1.8-1.7c0-0.3,0-0.7,0-1c0-0.3,0-0.6,0-1
	c0-1.2-0.1-2.4-0.1-3.6c0-1.2-0.1-2.4-0.1-3.6c0-1.9,0-3.7,0-5.6c0-1.8,0-3.7,0-5.5v-3c-0.6,0-1.2,0-1.8,0c-0.6,0-1.1,0-1.6,0
	c-0.3,0-0.5-0.1-0.8-0.1c-0.3-0.1-0.5-0.2-0.8-0.3c-0.4-0.3-0.7-0.6-0.8-1c-0.1-0.4-0.1-0.8,0-1.2c0.2-0.5,0.4-0.8,0.8-1.1
	c0.3-0.3,0.8-0.4,1.3-0.4c0.6,0,1.2,0,1.8,0c0.6,0,1.2,0,1.7,0h8.3c0.9,0,1.5,0.3,2,1C269.8,182.9,269.9,183.5,269.7,184.1z
	 M290.1,208.8c-0.2,0.8-0.6,1.3-1.3,1.6c-0.7,0.3-1.3,0.2-2-0.2c-0.9-0.6-1.4-1.3-1.4-2.2c0-0.9,0-1.9,0-2.8c0-0.9,0-1.9,0-2.8
	c0-0.3,0-0.5,0-0.8c0-0.3,0-0.5-0.1-0.8c-0.3-0.1-0.5-0.1-0.8-0.2c-0.2,0-0.5-0.1-0.7-0.1c-0.7,0-1.5,0-2.2,0c-0.7,0-1.5,0-2.2,0.1
	c-0.4,0-0.7,0.1-0.9,0.2c-0.1,0.1-0.2,0.4-0.2,0.9c0,0.8,0.1,1.6,0.1,2.3c0,0.8,0.1,1.6,0.1,2.4c0.1,0.8,0,1.5-0.1,2.1
	c-0.3,1.2-1.2,1.8-2.6,1.7c-0.5-0.1-1-0.3-1.4-0.6c-0.4-0.4-0.6-0.8-0.7-1.4c-0.1-0.2-0.1-0.4-0.1-0.6c0-0.2,0-0.4,0-0.6
	c0-1.9,0-3.8,0-5.6c0-1.9,0-3.8,0-5.6c0-2,0-4,0-5.9c0-2,0-4,0-6c0-0.7,0.1-1.3,0.5-1.8c0.4-0.5,0.9-0.8,1.4-0.8
	c0.7-0.1,1.3,0,1.7,0.3c0.5,0.3,0.7,0.9,0.7,1.6c0,1.7,0,3.4,0,5.1c0,1.7,0,3.4,0,5.1c0,0.4,0.1,0.9,0.1,1.3c0,0.4,0,0.9,0.1,1.4
	c0.3,0,0.5,0,0.6,0c0.2,0,0.3,0,0.5,0c0.8,0,1.6,0,2.5,0c0.8,0,1.7,0,2.5,0c0.5,0,0.9-0.1,1.1-0.3c0.2-0.2,0.3-0.5,0.3-1.1
	c0-1.6,0-3.2,0-4.8c0-1.6,0-3.2,0-4.8c0-0.4,0-0.9,0.1-1.3c0.1-0.4,0.1-0.9,0.2-1.3c0.1-0.5,0.4-0.8,0.7-1.1
	c0.3-0.3,0.8-0.4,1.2-0.4c0.5,0,0.9,0.1,1.3,0.4c0.4,0.3,0.6,0.6,0.7,1.1c0.2,0.7,0.3,1.4,0.2,2c-0.1,2-0.2,4.1-0.1,6.1
	c0,2,0.1,4,0.1,6.1c0,1.8,0,3.6,0,5.4c0,1.8,0.1,3.6,0.1,5.4c0,0.2,0,0.4,0,0.6C290.1,208.5,290.1,208.7,290.1,208.8z M310,209.2
	c-0.3,0.5-0.7,0.8-1.2,1c-0.4,0.1-0.7,0.1-1.1,0.1c-1.9,0-3.7,0-5.6,0s-3.7,0-5.6,0.1c-0.8,0-1.3-0.2-1.8-0.6
	c-0.4-0.4-0.7-1-0.7-1.8c0-0.9,0.1-1.9,0.1-2.8c0-0.9,0-1.9,0-2.9c0-2.9,0-5.9,0-8.8c0-2.9,0-5.8-0.1-8.7c0-0.3,0-0.6,0-0.8
	s0-0.5,0-0.8c0.1-0.5,0.3-1,0.7-1.3c0.4-0.3,0.8-0.5,1.4-0.5c1.8,0,3.5,0,5.2,0c1.7,0,3.5,0,5.2,0c0.3,0,0.6,0,0.8,0
	c0.3,0,0.5,0,0.8,0c0.5,0,0.9,0.2,1.2,0.5c0.3,0.3,0.5,0.7,0.6,1.1c0.1,0.5,0,1-0.3,1.4c-0.2,0.4-0.6,0.7-1.1,0.8
	c-1,0.2-2,0.4-3.1,0.4c-1,0-1.9,0-2.9,0c-1,0-2,0-3,0c-0.3,0-0.5,0.1-0.7,0.1c-0.2,0-0.4,0.1-0.6,0.1v6.5c0.7,0,1.3,0.1,1.9,0.1
	c0.6,0,1.2,0,1.9,0c0.5,0,1.1,0,1.6,0c0.5,0,1,0,1.5,0c0.2,0,0.3,0,0.4,0c0.1,0,0.3,0,0.4,0c0.4,0.1,0.8,0.3,1.2,0.6
	c0.3,0.3,0.5,0.7,0.6,1.1c0.1,0.4,0,0.9-0.3,1.3c-0.3,0.4-0.6,0.7-1,0.8c-0.6,0.2-1.2,0.4-1.9,0.4c-0.8,0-1.6,0-2.5,0
	c-0.8,0-1.7,0-2.5,0c-0.6,0-0.9,0.1-1,0.2c-0.1,0.1-0.2,0.4-0.3,1c-0.1,1.3-0.2,2.5-0.1,3.7c0,1.2,0.1,2.5,0,3.8
	c0.2,0,0.4,0.1,0.5,0.1c0.1,0,0.3,0,0.4,0.1c1.4,0.1,2.9,0.1,4.3,0.1c1.4,0,2.9,0.1,4.4,0.1c1,0,1.7,0.5,2,1.5
	C310.2,208.2,310.2,208.8,310,209.2z M74.2,231.6c-0.5-1.1-1-2.2-1.5-3.4c-0.5-1.2-0.9-2.3-1.1-3.5c-0.2-0.5-0.4-1-0.5-1.6
	c-0.1-0.6-0.2-1.1-0.2-1.7c-0.2-1.1-0.4-2.3-0.5-3.5c-0.2-1.2-0.1-2.4,0.1-3.5c0.1-3.1,0.6-6.2,1.4-9.2c0.3-1,0.6-2,0.8-3
	c0.3-1,0.6-2,1.1-2.9c2-5,4.8-9.3,8.3-12.9c3.2-3.5,6.8-6.3,10.8-8.4c2.4-1.3,5.1-2.3,8.1-2.9c1.1-0.2,2.2-0.3,3.3-0.5
	c1.1-0.1,2.2,0,3.3,0.2c3,0.4,5.8,1.5,8.4,3.2c1.5,1.1,2.8,2.3,3.9,3.6c1.1,1.3,2.2,2.7,3.2,4.2c0.9,1.7,1.7,3.4,2.5,5
	c0.8,1.7,1.4,3.4,1.9,5.2c0.8,2.6,1.4,5.2,1.8,7.8c0.3,1.5,0.5,3,0.8,4.5c0.2,1.5,0.3,3,0.5,4.5c0.2,1.6,0.3,3.2,0.4,4.8
	c0,1.6,0.1,3.2,0.2,4.8c0.2,2.3,0.3,4.6,0.4,6.8c0,2.3,0.1,4.5,0.1,6.8v3.8c-0.1,0.2-0.1,0.4-0.1,0.7c0,0.3,0.1,0.5,0.1,0.7
	c5.2-0.1,10.4-0.2,15.4-0.2c5.1,0,10.2-0.1,15.3-0.2c0.1-0.2,0.2-0.6,0.2-1.1c0.1-2.4,0.2-4.8,0.3-7.2c0.1-2.4,0.2-4.8,0.3-7.2
	c0.1-1.2,0.2-2.4,0.2-3.7c0-1.3,0.2-2.5,0.4-3.8c0.1-1.1,0.2-2.1,0.4-3.1c0.2-1,0.3-1.9,0.4-2.9c0.2-0.8,0.3-1.5,0.3-2.2
	c0-0.7,0-1.4,0.2-2.2c0.1-0.4,0.2-0.8,0.2-1.2c0-0.4,0-0.8,0.2-1.2l1.4-6.8c0.3-1.4,0.6-2.8,0.9-4.2c0.3-1.4,0.7-2.8,1.1-4.2
	c0.5-1.6,1-3.2,1.5-4.8c0.5-1.6,1.2-3.2,2-4.7c0.7-1.4,1.5-2.6,2.4-3.5c1-1,2-1.3,3-0.9c0.5,0.2,1,0.4,1.5,0.5
	c0.5,0.2,1,0.3,1.5,0.5c1.6,0.9,2.6,2.3,2.9,4.2c0.2,2,0.2,3.8-0.2,5.4c-0.2,1-0.4,2-0.5,2.9c-0.2,1-0.3,1.9-0.5,2.9
	c-0.2,0.8-0.4,1.7-0.7,2.6c-0.3,0.9-0.5,1.8-0.7,2.6c-0.2,0.8-0.4,1.6-0.5,2.3c-0.2,0.7-0.3,1.5-0.5,2.3c-0.2,1.4-0.5,2.7-0.8,4
	c-0.3,1.3-0.6,2.6-0.8,4c-0.2,1.1-0.4,2.3-0.5,3.5c-0.1,1.2-0.3,2.4-0.5,3.5c-0.1,1.2-0.2,2.4-0.3,3.7c-0.1,1.3-0.2,2.5-0.3,3.7
	c-0.2,2.6-0.4,5.3-0.5,8c-0.1,2.7-0.2,5.4-0.2,8v1.2c0.8,0.2,1.6,0.4,2.3,0.5c0.7,0.2,1.5,0.3,2.3,0.5c0.5,0,1,0.2,1.5,0.5
	c0.9,0.4,1.5,1,1.7,1.9c0.2,0.9,0.2,1.6,0,2.3c-0.2,1.1-1.1,1.6-2.7,1.4c-0.5,0-1,0-1.6-0.2c-0.6-0.1-1.1-0.2-1.6-0.3h-1.8v2.6
	c0.2,1.9,0.3,3.8,0.5,5.6c0.1,1.9,0.2,3.7,0.5,5.5c0.1,1.1,0.2,2.2,0.3,3.2c0.1,1,0.2,2.1,0.5,3.2c0.2,1,0.4,2,0.5,2.9
	c0.2,1,0.3,2,0.5,3.1c0.2,1.1,0.4,2.2,0.7,3.3c0.2,1.1,0.5,2.2,0.7,3.3c0.2,0.8,0.5,1.7,0.8,2.6c0.3,0.9,0.5,1.8,0.8,2.6
	c0.7,1.9,1.5,3.8,2.3,5.6c0.1,0.2,0.2,0.5,0.3,0.7h-12.1c-0.7-1.1-1.4-2.3-2.1-3.5c-0.9-1.9-1.7-3.9-2.4-5.9c-0.7-2-1.3-4.1-1.8-6.2
	c-0.7-2.9-1.3-6-1.8-9.3c-0.4-2.1-0.7-4.2-0.8-6.3c-0.2-2.1-0.3-4.2-0.4-6.3c-0.1-1.1-0.2-2.2-0.2-3.3c-0.1-1.1-0.1-2.2-0.1-3.3
	c0-0.1,0-0.2-0.1-0.3c-0.1-0.1-0.1-0.2-0.1-0.3h-1.7c-1.5,0.1-3,0.2-4.5,0.2c-1.5,0.1-3.1,0.1-4.7,0.2c-1.3,0.2-2.6,0.3-3.9,0.4
	c-1.3,0.1-2.6,0.2-3.9,0.4c-1.1,0.2-2.2,0.4-3.2,0.5c-1,0.1-2,0.3-3,0.5c-0.5,0-1,0-1.4,0.1c-0.4,0.1-0.9,0.1-1.4,0.2
	c-1,0.2-1.8,0.3-2.4,0.3c-0.4,0.1-0.6,0.4-0.6,0.8v1.7c0,1.2,0,2.4,0.1,3.6c0,1.2,0,2.5-0.1,3.8c0,1.2,0,2.4-0.1,3.6
	c-0.1,1.2-0.1,2.4-0.1,3.6c-0.1,1.4-0.1,2.8-0.1,4.1c0,1.3,0,2.7-0.1,4.1c-0.1,1.7-0.2,3.4-0.4,5c-0.2,1.6-0.3,3.3-0.5,5
	c0,0.5,0,1-0.1,1.4c-0.1,0.4-0.1,0.9-0.2,1.4c-0.2,1.3-0.4,2.6-0.6,3.9c-0.2,1.3-0.4,2.6-0.6,3.9c-0.1,0.5-0.2,0.9-0.4,1.3
	c-0.2,0.3-0.3,0.8-0.5,1.3c-0.1,0.6-0.7,1-1.7,1.2c-1,0.3-2.2,0.2-3.5-0.2c-2.5-0.5-4.7-1.4-6.6-2.7c-0.8-0.5-1.4-1-1.8-1.5
	c-0.5-0.5-0.7-1.1-0.5-1.7c0.1-0.7,0.2-1.4,0.3-2c0.1-0.7,0.2-1.3,0.3-1.9c0.1-1.6,0.2-3.2,0.3-4.7c0.1-1.5,0.2-3,0.3-4.5
	c0.2-1.6,0.3-3.2,0.4-4.8c0-1.6,0.1-3.3,0.2-5c0.1-1.3,0.2-2.6,0.2-3.8v-5.3c0-0.5,0.1-1,0.3-1.5v-3.3c0-0.9,0-1.8,0.2-2.7
	c0-0.2,0-0.4-0.1-0.5c-0.1-0.1-0.1-0.2-0.1-0.5c-0.5,0.1-1,0.2-1.5,0.2c-0.5,0.1-1,0.2-1.5,0.4c-0.9,0.2-1.8,0.4-2.7,0.5
	c-0.9,0.1-1.8,0.3-2.6,0.5c-1.3,0.3-2.2-0.2-2.6-1.5c-0.9-2.8-0.7-5.4,0.6-7.7c0.6-1,1.6-1.8,2.9-2.3c1.8-0.7,3.8-1.1,6-1.1
	c0.4,0,0.9-0.1,1.5-0.3c0-0.2,0-0.4,0.1-0.5c0-0.1,0.1-0.2,0.1-0.5v-9.3c0-1.8,0-3.6-0.1-5.3c-0.1-1.8-0.1-3.5-0.1-5.3v-3.7
	c0-1.3-0.1-2.5-0.2-3.8c-0.1-1.4-0.2-2.8-0.2-4.3c-0.1-1.5-0.2-2.9-0.4-4.3c-0.2-1.4-0.4-2.8-0.6-4.1c-0.2-1.4-0.4-2.7-0.6-4.1
	c-0.2-1.3-0.5-2.6-0.8-3.8c-0.4-1.3-0.8-2.5-1.3-3.8c-0.1-0.2-0.2-0.4-0.2-0.5c-0.1-0.1-0.2-0.2-0.5-0.2l-0.2-0.3
	c-0.5-0.8-1.1-1.4-1.7-1.7c-0.7-0.3-1.4-0.5-2.2-0.8c-1.1-0.2-2.2-0.1-3.2,0.2c-1,0.3-2,0.7-2.9,1.2c-1.4,0.8-2.7,1.8-3.9,2.9
	c-1.2,1.1-2.4,2.3-3.5,3.6c-1.1,1.1-2.1,2.3-3,3.6c-0.9,1.3-1.8,2.7-2.6,4.1c-1.1,1.9-2.1,4.2-2.9,6.8c-1.1,3-1.7,6-1.8,8.9v3.8
	c0,1.3,0.2,2.5,0.5,3.7c0.2,0.6,0.3,1.2,0.4,1.9c0,0.7,0.2,1.3,0.4,1.9c0.2,1.1,0.6,2.1,1.1,3c0.5,0.9,1.1,1.8,1.6,2.7
	c0.7,1,1.6,1.9,2.7,2.6c0.5,0.4,1.1,0.5,1.8,0.1c0.9-0.3,1.8-0.7,2.6-1.1c0.8-0.4,1.6-1,2.3-1.8c0.8-1.1,1.9-1.6,3.2-1.4
	c1.4,0.1,2.5,0.5,3.4,1.1l0.3,0.3c0.8,0.5,1.4,1.2,1.7,2.1c0.3,0.9,0.3,1.9-0.2,3c-1,2.3-2.6,4.3-4.8,5.9c-0.8,0.5-1.7,0.8-2.6,1
	c-0.9,0.1-1.8,0.2-2.7,0.2c-1.4,0.1-2.7,0-4-0.4c-1.3-0.4-2.5-0.8-3.7-1.3c-2-0.7-3.8-1.7-5.5-2.9c-1.7-1.3-3.2-2.6-4.6-4.1
	c-0.8-0.8-1.5-1.7-2.1-2.6C75.3,233.7,74.7,232.7,74.2,231.6z M371.4,247.1c-0.6-0.4-1.3-0.5-2-0.3c-0.8,0.2-1.3,0.6-1.7,1.2
	c-0.8,1.4-1.4,2.8-1.8,4.2c-0.5,1.6-1,3.1-1.5,4.4c-0.5,1.6-1,3.2-1.6,4.7c-0.6,1.6-1.1,3.1-1.7,4.7c-0.6,1.6-1.3,3.3-2.1,5.1
	c-0.5,1.2-1,2.4-1.5,3.5c-0.5,1.2-1,2.3-1.5,3.4c-0.5,1.1-1.1,2.2-1.7,3.3c-0.4,0.5-0.9,0.9-1.4,1.2c-0.8,0.2-1.3,0-1.4-0.8
	c0-0.2,0-0.4-0.1-0.5c-0.1-0.1-0.1-0.2-0.1-0.5c0.1-1.1,0.1-2.1,0-3.1c-0.1-1-0.1-2,0.2-3.1c0.1-0.5,0.1-1,0.1-1.6
	c0-0.6,0.1-1.1,0.2-1.7c0.1-1.4,0.2-2.8,0.2-4.2c0.1-1.4,0.1-2.8,0.2-4.2c0.1-1.7,0.1-3.4,0.1-5.2c0-1.8,0.1-3.5,0.2-5.2v-0.5
	c0-1.1,0-2.2,0.1-3.3c0-1.1,0.1-2.2,0.2-3.3c0.1-1.3,0.2-2.6,0.2-3.8c0-1.3,0.1-2.5,0.1-3.8c0.1-1.7,0.2-3.5,0.3-5.3
	c0.1-1.8,0.2-3.6,0.3-5.3c0-0.8,0-1.5,0.1-2.2c0-0.7,0.1-1.4,0.1-2.2c0.1-0.5,0.4-0.8,0.9-0.8h6.9c1.3,0,2.1-0.7,2.3-2
	c0.2-0.9,0-1.8-0.5-2.6c-0.5-1-1.3-1.5-2.3-1.4h-6.2h-0.9c0-0.2,0-0.3-0.1-0.5c-0.1-0.1-0.1-0.2-0.1-0.5v-5c0-0.6,0-1.2,0-1.8
	c0-0.6-0.1-1.2-0.2-1.8c-0.4-1.9-1.4-3.5-3-4.8c-0.8-0.7-1.7-1.2-2.7-1.4c-1-0.2-2.1-0.4-3.2-0.5c-0.7-0.1-1.4-0.1-2,0
	c-0.6,0.1-1.3,0.2-2,0.3c-0.3,0.1-0.6,0.2-0.8,0.2c-0.3,0-0.5,0.1-0.7,0.3c0.2,2.6,0.3,5.2,0.2,7.7c-0.1,2.6-0.1,5.1-0.1,7.7h-0.9
	h-5c-0.7-0.1-1.3,0.2-1.8,0.8c-0.1,0.1-0.2,0.2-0.2,0.2c0,0.1,0,0.1-0.2,0.2c-0.9,0.9-1.1,2-0.6,3.2c0.4,1,1.3,1.5,2.6,1.5h5.3h0.6
	c0.3,0,0.5,0.1,0.5,0.5c-0.1,0.7-0.2,1.4-0.2,2.1c0,0.7-0.1,1.4-0.2,2.1c-0.1,1.1-0.2,2.2-0.2,3.3c-0.1,1.1-0.1,2.2-0.1,3.3
	c-0.1,1-0.2,2-0.2,2.9c0,1,0,1.9,0,2.9c-0.1,1.1-0.2,2.3-0.2,3.5c-0.1,1.2-0.1,2.4-0.1,3.5c-0.1,0.5-0.1,1-0.1,1.5
	c0,0.4,0,0.8,0,1.1c-0.2,0.3-0.4,0.8-0.8,1.4c-0.3,0.9-0.6,1.8-0.9,2.6c-0.3,0.9-0.6,1.7-0.9,2.6c-0.1,0.4-0.4,1.1-0.8,2.1
	c-0.2,0.6-0.4,1.2-0.6,1.8c-0.2,0.6-0.4,1.2-0.6,1.8c-0.2,0.7-0.4,1.4-0.7,2c-0.3,0.6-0.5,1.3-0.7,2l-2.3,5.9
	c-0.3,0.7-0.6,1.4-0.9,2c-0.3,0.6-0.6,1.3-0.9,2c-0.6,1.5-1.3,3-2,4.4l-1.4,2.7c-0.3,0.4-0.7,0.8-1.1,1.1c-0.9,0.5-1.5,0.3-1.7-0.8
	c-0.1-0.2-0.2-0.6-0.2-1.1c0.1-1,0.2-2,0.2-2.9c0-0.9,0-1.8,0.2-2.7c0.1-1.1,0.2-2.2,0.2-3.2c0-1,0-2.1,0.1-3.2
	c0.1-1.1,0.2-2.2,0.2-3.2c0-1,0-2,0.2-3c0.1-0.8,0.2-1.6,0.2-2.3c0-0.7,0.1-1.4,0.1-2.1c0.1-0.6,0.1-1.2,0.1-1.8c0-0.6,0-1.2,0-1.8
	c0.1-1,0.2-2,0.2-2.9c0-1,0.1-2,0.2-3.1c0.1-0.9,0.2-1.8,0.2-2.8c0-1,0.1-1.9,0.1-2.9c0.1-1-0.1-2.1-0.5-3.2
	c-0.2-0.7-0.5-1.3-0.8-1.7s-0.7-0.9-1.2-1.4c-1.3-1.4-2.8-2.3-4.5-2.6c-0.9-0.3-1.9-0.4-3-0.2c-1.4,0.2-2.6,0.6-3.5,1.2
	c-0.5,0.3-1,0.6-1.4,1c-0.5,0.4-0.9,0.7-1.4,1c-1.5,1.2-3,1.9-4.4,2c-0.3,0.2-0.6,0.2-0.9,0c0-0.2,0-0.4,0.1-0.7
	c0-0.2,0.1-0.5,0.1-0.8c0.1-0.5,0.2-1,0.2-1.6c0-0.6,0-1.1,0-1.6c0-1.1-0.2-2.1-0.6-3c-0.5-1.5-1.7-2.5-3.6-3
	c-0.4-0.2-0.8-0.3-1.2-0.2c-0.4,0.1-0.8,0.1-1.2,0.1c-0.8,0.1-1.6,0.3-2.3,0.5c-0.7,0.3-1.3,0.6-1.8,1.1c-1.3,1.2-2.1,2.5-2.4,3.9
	c-0.2,0.4-0.3,1.1-0.3,2.1c-0.1,0.4,0,1,0.2,1.7c0.2,1.2,0.6,2.3,1.1,3.3c0.7,1.4,1.8,2.5,3.3,3.3c0.5,0.3,0.8,0.7,0.8,1.1
	c0,0.6,0,1.2-0.1,1.8c0,0.1,0,0.2-0.1,0.3c0,0,0,0,0,0c-0.3,0.4-0.7,1.1-1.1,2.1c-0.3,0.8-0.6,1.6-0.9,2.3c-0.3,0.8-0.6,1.5-0.8,2.3
	l-2.7,7.7c-0.5,1.4-1,2.8-1.5,4.1c-0.5,1.4-1.1,2.7-1.7,4.1c-0.7,1.6-1.4,3.2-2.1,4.7c-0.7,1.6-1.4,3.1-2.1,4.7
	c-0.2,0.4-0.4,0.8-0.7,1.1c-0.3,0.4-0.6,0.7-1,1c-0.4,0.3-0.8,0.4-1.2,0.2c-0.4-0.2-0.7-0.6-0.8-1.1v-0.6c0-0.5,0-1,0-1.5
	c0-0.5-0.1-1-0.2-1.5c0-2.4,0-4.8,0.2-7.2c0.1-2.4,0.2-4.8,0.5-7.2c0.1-2,0.2-3.9,0.3-5.8c0.1-1.9,0.2-3.7,0.3-5.6
	c0.1-1.5,0.2-3,0.3-4.4c0.1-1.5,0.2-2.9,0.3-4.3c0.2-2.2,0.4-4.4,0.5-6.5c0.1-2.1,0.2-4.2,0.5-6.3c0.1-0.2,0.1-0.3,0.1-0.4
	c-0.1,0-0.1-0.1-0.1-0.2l-0.2-0.1c-1.4-0.5-2.8-0.8-4.1-1c-1.4-0.1-2.7,0-4.1,0.4c-1.7,0.6-3.1,1.6-4.1,3c-1.1,1.5-1.7,3.3-1.7,5.4
	v0.9h-0.2l-0.5-0.5c-1.2-1.3-2.5-2.5-3.8-3.6c-1.4-1.1-2.9-2-4.6-2.6c-1.5-0.7-3.2-1.2-5.1-1.5c-0.7-0.1-1.4-0.2-2.1-0.2
	c-0.7,0-1.4,0-2.1,0c-2.3,0-4.4,0.4-6.2,1.1c-3.3,1.6-6,3.8-8,6.5c-1.1,1.6-2.1,3.2-2.9,4.9c-0.8,1.7-1.5,3.4-2.1,5.2
	c-0.2,0.7-0.4,1.4-0.5,2.1c-0.2,0.7-0.3,1.5-0.5,2.3c-0.3,1.2-0.5,2.4-0.6,3.7c0,0,0,0,0,0.1c-0.2,0.5-0.3,1-0.4,1.5
	c-0.4,1.2-0.8,2.4-1.1,3.5c-0.4,1.2-0.8,2.3-1.3,3.4c-0.4,0.8-0.8,1.6-1.1,2.3c-0.3,0.8-0.7,1.5-1.1,2.3c-0.5,1.1-1,2.2-1.6,3.2
	c-0.6,1-1.2,2-1.9,3c-1.3,2.2-2.7,4-4.2,5.3c-0.4,0.4-0.8,0.8-1.1,1.2c-0.4,0.4-0.7,0.8-1.1,1.1c-0.7,0.5-1.4,1-2,1.4
	c-0.7,0.4-1.4,0.7-2.2,0.9c-1.2,0.5-2.3,0.6-3.3,0.3c-1.2-0.5-2.1-1.2-2.6-2c-0.5-0.7-0.9-1.4-1.1-2.2c-0.2-0.8-0.4-1.5-0.6-2.3
	c-0.3-0.7-0.5-1.5-0.5-2.3l-0.5-3.2c-0.1-0.4-0.2-0.8-0.2-1.2c0-0.4,0-0.9,0-1.4v-4.8c0-0.1,0.1-0.2,0.3-0.5c2-0.8,3.7-1.6,5.1-2.4
	c0.9-0.5,1.8-1,2.6-1.5c0.9-0.5,1.7-1,2.6-1.5c1.2-0.8,2.4-1.7,3.5-2.6c1.1-0.9,2.1-2,2.9-3.2c1.8-2.4,2.9-5.1,3.2-8.1
	c0-0.9,0-1.8-0.1-2.7c-0.1-0.9-0.2-1.8-0.4-2.7c-0.3-1.4-0.8-2.6-1.5-3.5c-1.4-2.5-3.5-4.6-6.2-6.2c-0.8-0.5-1.6-0.9-2.3-1.1
	c-0.7-0.2-1.5-0.4-2.3-0.6c-0.9-0.1-1.8-0.1-2.7-0.1c-0.9,0.1-1.8,0.2-2.6,0.4c-0.7,0.2-1.4,0.4-2,0.6c-0.7,0.2-1.3,0.4-2,0.6
	c-0.5,0.2-1,0.5-1.6,0.8c-0.6,0.3-1.1,0.6-1.6,0.9c-2.5,1.5-4.5,3.5-6,5.9c-1.1,1.4-2,2.9-2.7,4.4c-0.7,1.5-1.3,3.1-1.8,4.8
	c-0.4,1.1-0.8,2.4-1.1,3.9c-0.2,0.8-0.3,1.6-0.5,2.3c-0.1,0.7-0.2,1.5-0.3,2.3c-0.1,0.7-0.2,1.4-0.2,2c0,0.7,0,1.3,0,2
	c0,1.3,0.1,2.6,0.2,3.8c0.1,1.2,0.3,2.4,0.5,3.6c0.1,1.4,0.4,2.9,0.9,4.4c0.2,0.8,0.4,1.6,0.7,2.4c0.3,0.8,0.5,1.6,0.8,2.4
	c0.4,0.9,0.8,1.8,1.1,2.7c0.4,0.9,0.8,1.8,1.3,2.6c0.8,1.1,1.6,2.2,2.4,3.2c0.8,1.1,1.8,2,2.9,2.9c1.6,1.4,3.6,2.4,5.9,2.9
	c0.6,0.1,1.2,0.2,1.9,0.2c0.7,0,1.3,0.1,2,0.1h0.8c0.8,0,1.6,0,2.3,0c0.7,0,1.5-0.1,2.3-0.2c0.5-0.1,1-0.2,1.6-0.2
	c0.6-0.1,1.1-0.2,1.6-0.4c0.5-0.2,1-0.4,1.5-0.7c0.5-0.2,1-0.5,1.5-0.8c1.1-0.6,2.1-1.3,2.9-2.1c0.9-0.8,1.7-1.7,2.5-2.6
	c0.9-0.9,1.7-1.8,2.4-2.8c0.7-1,1.4-1.9,2.1-2.9c0.8-1.3,1.6-2.6,2.3-3.8c0.7-1.3,1.4-2.6,2.1-4c0,0,0,0,0,0c0,0.2,0.1,0.4,0.1,0.6
	c0.4,2,1,4,1.8,6c0.6,1.3,1.3,2.6,2,3.9c0.5,1,1.1,1.9,1.7,2.8c0.7,0.9,1.4,1.7,2.2,2.5c0.8,0.8,1.6,1.5,2.4,2.1
	c0.8,0.6,1.8,1.1,2.9,1.5c0.5,0.2,1.1,0.4,1.7,0.5c0.6,0.1,1.2,0.2,1.7,0.3c1.1,0.1,2.2,0.2,3.4,0.2c1.2,0,2.3-0.2,3.4-0.5
	c2-0.5,4-1.6,5.9-3.2c1.4-1.1,2.6-2.3,3.6-3.7c1-1.4,1.9-2.8,2.7-4.4c0.1-0.2,0.2-0.4,0.3-0.6c0.1-0.2,0.2-0.4,0.3-0.6h0.2
	c0,0.1,0,0.1,0.1,0.1c0,0,0.1,0.1,0.1,0.2c0.1,1.3,0.5,2.8,1.2,4.5c0.5,1.1,1.1,2.1,1.8,3c0.7,0.9,1.6,1.8,2.6,2.6
	c0.6,0.5,1.2,0.9,1.9,1.2c0.7,0.3,1.4,0.5,2.2,0.5c0.5,0,1,0,1.6,0c0.5,0,1.1,0,1.6-0.1c1.8,0,3.4-0.6,4.8-1.8
	c0.6-0.5,1.1-1,1.6-1.6c0.5-0.6,0.9-1.2,1.4-1.9c0.5-0.7,1-1.4,1.4-2.1c0.4-0.7,0.8-1.5,1.2-2.3c0.5-1.1,1-2.2,1.4-3.4
	c0.5-1.2,0.9-2.3,1.4-3.4c0.5-1.2,1-2.4,1.5-3.6c0.5-1.2,1-2.4,1.5-3.6c0.5-1.3,1-2.6,1.4-3.8c0.5-1.3,0.9-2.5,1.4-3.8
	c0.5-1.5,1-2.9,1.5-4.2c0.3-0.6,0.6-1.1,0.8-1.7c0.4-1.2,0.8-2.3,1.1-3.5c0.2-0.5,0.4-1,0.5-1.4c0.1-0.5,0.2-0.9,0.3-1.4l0.3-0.3
	h1.8c0.5,0,1.2-0.1,2-0.3c1-0.2,2-0.5,2.9-0.9c0.9-0.4,1.6-0.1,2.1,0.9c0.1,0.3,0.2,0.6,0.3,0.9c0.1,0.3,0.2,0.6,0.2,0.9
	c0.1,0.5,0.1,1,0.1,1.4c-0.1,0.4-0.1,0.9-0.1,1.4c-0.1,0.8-0.2,1.7-0.2,2.6c-0.1,0.9-0.1,1.8-0.2,2.6c-0.1,0.8-0.2,1.6-0.2,2.3
	c0,0.8-0.1,1.5-0.2,2.3c0,0.3,0,0.6-0.1,0.9c-0.1,0.3-0.1,0.6-0.1,0.8l-0.5,5.4c-0.1,0.8-0.2,1.6-0.2,2.3c0,0.7-0.1,1.5-0.2,2.3
	c0,0.8,0,1.6,0,2.3c0,0.7-0.1,1.5-0.2,2.3c0,0.8,0,1.6,0.1,2.5c0,0.9,0.2,1.7,0.4,2.5c0.2,0.7,0.4,1.4,0.7,2
	c0.2,0.6,0.5,1.2,0.8,1.7c0.8,1.8,1.9,3.3,3.3,4.4c0.8,0.6,1.6,1.1,2.4,1.4c0.8,0.4,1.8,0.5,2.9,0.4h2.1c0.3-0.1,0.6-0.1,0.9-0.1
	c0.3,0,0.6-0.1,0.9-0.2c1.7-0.5,3.1-1.4,4.2-2.6c0.8-0.8,1.5-1.6,2.1-2.5c0.6-0.9,1.2-1.8,1.7-2.9c0.5-0.9,1-1.8,1.4-2.7
	c0.4-0.9,0.8-1.9,1.2-2.9c0.6-1.4,1.2-2.8,1.7-4.2c0.6-1.4,1.1-2.8,1.7-4.2c0.1-0.3,0.2-0.6,0.3-0.9c0,0.3,0,0.7,0,1
	c0,1.2,0,2.4-0.1,3.5c-0.1,1.2-0.1,2.3-0.1,3.5c0,2.7,0.5,5.1,1.5,7.2c0.5,1.1,1.1,2.1,1.7,3c0.6,0.9,1.4,1.7,2.3,2.4
	c0.7,0.5,1.4,0.9,2.2,1.3c0.8,0.4,1.5,0.5,2.3,0.4h2.9c2.2-0.2,4-1,5.3-2.3c1.3-1.2,2.6-2.8,3.8-4.8c0.8-1.4,1.5-2.9,2.1-4.4
	c0.6-1.5,1.3-3,2-4.4c0.8-1.9,1.6-4,2.4-6.2c0.5-1.4,1.1-2.8,1.7-4.3c0.6-1.5,1.2-2.9,1.7-4.3c0.5-1.2,1-2.4,1.4-3.7
	c0.4-1.3,0.8-2.5,1.2-3.7c0.5-1.3,0.6-2.6,0.3-3.8C372.1,247.9,371.8,247.4,371.4,247.1z M201.4,257.9c0-0.4,0.1-0.8,0.2-1.2
	c0-0.9,0.2-1.8,0.5-2.6c0.3-1.7,0.7-3.1,1.1-4.2c0.2-0.6,0.4-1.2,0.6-1.7c0.2-0.5,0.4-1.1,0.6-1.6c0.4-0.9,0.9-1.8,1.4-2.6
	c0.5-0.8,1-1.6,1.5-2.4c0.2-0.2,0.4-0.5,0.6-0.8c0.2-0.3,0.5-0.6,0.8-0.8c1.2-1,2.4-1.5,3.6-1.4c0.9,0,1.6,0.5,2.1,1.5
	c0.4,0.7,0.7,1.4,0.8,2.1c0,0.5,0,0.9,0.2,1.1c0,0.5-0.1,1.3-0.3,2.3c-0.2,0.6-0.4,1.2-0.6,1.7c-0.2,0.6-0.5,1.1-0.8,1.6
	c-0.8,1.6-2,3.2-3.6,4.8c-1.6,1.6-3.4,2.9-5.3,3.9c-0.5,0.2-1,0.4-1.4,0.7c-0.5,0.3-0.9,0.5-1.4,0.7c-0.1,0-0.2,0-0.2,0.1
	c-0.1,0.1-0.2,0.1-0.4,0.1C201.3,258.7,201.3,258.3,201.4,257.9z M266,252.3c0,0.7,0,1.4,0,2.1c-0.1,1.3-0.2,2.6-0.2,3.8
	c-0.1,1.2-0.1,2.4-0.2,3.6v3c0,1.2-0.2,2.3-0.5,3.3c-0.7,2.2-1.7,4.4-3,6.6c-1.7,2.9-3.8,5.4-6.3,7.5c-0.5,0.4-1,0.8-1.4,1.1
	c-0.5,0.4-0.9,0.7-1.4,1c-0.8,0.4-1.6,0.5-2.5,0.4c-0.9-0.2-1.5-0.6-2-1.3c-0.5-0.6-0.9-1.3-1.1-2c-0.3-0.7-0.5-1.5-0.7-2.3
	c-0.2-0.7-0.3-1.4-0.4-2c-0.1-0.6-0.1-1.2-0.2-1.8c-0.1-0.3-0.2-0.6-0.2-1c0-0.4-0.1-0.7-0.2-1c-0.1-1-0.2-2-0.2-2.9
	c0-1-0.1-2-0.2-3.1c0.1-1.1,0.2-2.3,0.2-3.5c0-1.2,0.1-2.4,0.2-3.5c0.1-0.8,0.2-1.7,0.2-2.6c0-0.9,0.1-1.8,0.2-2.6
	c0.2-0.9,0.4-1.8,0.6-2.8c0.2-1,0.4-1.9,0.6-2.8c0.2-0.9,0.4-1.8,0.7-2.8c0.2-1,0.5-1.9,0.8-2.8c0.4-1.1,0.8-2.1,1.2-3.1
	c0.4-1,1-1.9,1.8-2.8c0.5-0.7,1.1-1.2,1.7-1.4c0.4-0.2,0.8-0.3,1.1-0.3c1.2-0.2,2.3-0.1,3.3,0.3c1,0.4,2,1,2.9,1.8
	c1.2,1.2,2.3,2.7,3.3,4.5l1.4,2.7c0.3,0.7,0.5,1.4,0.5,2c0,0.7,0.1,1.3,0.1,2C266,250.9,266,251.6,266,252.3z M296.4,235.5
	c0.3-0.3,0.4-0.5,0.3-0.5c0.6-0.6,1.1-1,1.4-1.1c0.6-0.3,1-0.2,1.2,0.5c0.2,0.5,0.3,1.2,0.3,2.1c0,0.5-0.1,1-0.2,1.6
	c-0.1,0.6-0.3,1.1-0.5,1.6c-0.9,0-1.6-0.4-2.1-1.2c-0.3-0.4-0.5-0.9-0.5-1.5V235.5z M183.2,316.6c0,0.8,0,1.5,0,2.3
	c0,0.5,0,1-0.1,1.5c0,0.5-0.1,1-0.1,1.5c0,0.5-0.1,0.9-0.3,1.3c-0.2,0.4-0.5,0.7-0.8,1c-0.5,0.6-1.1,0.9-1.7,1
	c-0.6,0.1-1.2,0-1.9-0.3c-0.5-0.2-0.9-0.5-1.2-0.9c-0.3-0.4-0.5-0.9-0.7-1.4c-0.1-0.4-0.2-0.7-0.2-1.1c0-0.4-0.1-0.7-0.1-1.1V315
	v-5.6c0-0.5,0.1-0.9,0.2-1.4c0.1-0.4,0.3-0.9,0.6-1.3c0.7-1,1.6-1.6,2.7-1.6c1.6-0.1,2.7,0.7,3.3,2.4c0.2,0.5,0.3,1.1,0.3,1.7
	c0,0.9,0,1.7,0,2.5c0,0.8,0,1.7,0,2.5C183.2,315.1,183.2,315.8,183.2,316.6z M276.4,294.7H172.3c-0.5,0-0.9,0.9-0.9,1.9v8h-2.4
	c-0.5,0-0.9,0.9-0.9,1.9v5.8c-6.5-3.9-21.4-14.9-21.4,2.3c0,17.5,14.7,9,21.4,5.3v4.1c0,1.1,0.4,1.9,0.9,1.9h2.4v8
	c0,1.1,0.4,1.9,0.9,1.9h104.1c0.5,0,0.9-0.9,0.9-1.9v-8h2.6c0.5,0,0.9-0.9,0.9-1.9v-5.8c6.5,3.9,21.4,14.9,21.4-2.3
	c0-17.5-14.7-9-21.4-5.3v-4.1c0-1.1-0.4-1.9-0.9-1.9h-2.6v-8C277.3,295.6,276.9,294.7,276.4,294.7z M187.4,320.5
	c0,0.6-0.1,1.2-0.1,1.8c-0.1,0.6-0.2,1.1-0.3,1.7c-0.4,1.3-1,2.4-1.9,3.1c-0.9,0.8-2,1.4-3.2,1.8c-1.1,0.4-2.2,0.5-3.3,0.2
	c-1.1-0.2-2.1-0.6-3-1.2c-1.7-1-2.7-2.5-3-4.7c-0.3-2.4-0.5-4.8-0.4-7.2c0.1-2.4,0.1-4.8,0.1-7.2c0-1.5,0.3-2.9,1-4.1
	c0.7-1.2,1.8-2.2,3.2-2.8c1.5-0.7,3-1,4.5-0.8c1.5,0.2,2.9,0.9,4.1,2.1c0.9,0.9,1.5,2,1.7,3.2c0.1,0.7,0.3,1.4,0.4,2.1
	c0.1,0.7,0.2,1.4,0.1,2.1v5c0,0.9,0,1.7,0,2.5C187.4,318.8,187.4,319.7,187.4,320.5z M207.2,304.3c-0.2,0.3-0.5,0.6-0.8,0.8
	c-0.4,0.3-1,0.5-1.6,0.5h-7.2h-1.1v7.5c0.5,0,0.9,0.1,1.3,0.1c0.4,0,0.8,0,1.2,0c0.6,0,1.1,0,1.7,0c0.5,0,1.1,0,1.7,0
	c0.5,0,1,0.1,1.6,0.2c0.6,0.2,0.9,0.4,1,0.7s0.2,0.6,0.2,1c0,0.4-0.1,0.8-0.4,1.2c-0.3,0.4-0.6,0.6-1,0.7c-0.6,0.1-1.3,0.3-2,0.3
	c-0.8,0-1.7,0-2.5,0c-0.8,0-1.6,0-2.5,0c0,0-0.1,0-0.3,0.1c0,0.2-0.1,0.4-0.1,0.6c0,0.2-0.1,0.5-0.1,0.7l0.1,7.2c0,0.2,0,0.5,0,0.7
	c0,0.3,0,0.5-0.1,0.7c-0.1,0.6-0.4,1-0.8,1.3c-0.5,0.3-1,0.4-1.5,0.2c-0.6-0.1-1-0.4-1.4-0.6c-0.3-0.3-0.5-0.8-0.4-1.6
	c0-2.4,0-4.7,0-7.1c0-2.3,0-4.7,0-7.1c0-0.7,0-1.3,0.1-2c0-0.6,0.1-1.3,0-1.9c0-0.8,0-1.5,0-2.2c0-0.7-0.1-1.5-0.1-2.2
	c0-1.3,0.4-2.1,1.4-2.5c0.2-0.1,0.5-0.2,0.9-0.2c1.7,0,3.4-0.1,5.1-0.1s3.4,0,5.1,0h0.9c0.5,0.1,0.9,0.2,1.2,0.5
	c0.4,0.3,0.6,0.7,0.6,1.1C207.4,303.6,207.4,304,207.2,304.3z M235.2,304.3c-0.2,0.5-0.6,0.9-1.2,1.2c-0.2,0.1-0.5,0.1-0.8,0.2
	s-0.5,0.1-0.8,0.1c-0.4,0-0.8,0-1.2,0c-0.4,0-0.9,0-1.4,0c0,0.2,0,0.4,0,0.6c0,0.2,0,0.4,0,0.5c0,3.2,0,6.5,0,9.7c0,3.2,0,6.4,0,9.7
	c0,0.3,0,0.7-0.1,1c-0.1,0.3-0.1,0.6-0.2,0.9c-0.3,0.9-1,1.3-2.1,1.2c-1-0.1-1.6-0.7-1.7-1.6c0-0.3,0-0.6,0-0.9c0-0.3,0-0.6,0-0.9
	c0-1.1-0.1-2.2-0.1-3.4c0-1.1-0.1-2.2-0.1-3.4c0-1.8,0-3.5,0-5.3c0-1.7,0-3.5,0-5.2v-2.8c-0.6,0-1.2,0-1.7,0c-0.5,0-1.1,0-1.6,0
	c-0.2,0-0.5-0.1-0.8-0.1c-0.3-0.1-0.5-0.1-0.7-0.3c-0.4-0.2-0.6-0.5-0.8-0.9c-0.1-0.4-0.1-0.8,0-1.2c0.1-0.4,0.4-0.8,0.7-1.1
	c0.3-0.3,0.7-0.4,1.2-0.4c0.6,0,1.1,0,1.7,0c0.5,0,1.1,0,1.6,0h7.9c0.8,0,1.5,0.3,1.9,0.9C235.3,303.2,235.4,303.7,235.2,304.3z
	 M254.5,327.7c-0.2,0.7-0.6,1.2-1.2,1.5c-0.6,0.3-1.3,0.2-1.9-0.2c-0.9-0.5-1.3-1.2-1.3-2.1c0-0.9,0-1.8,0-2.6c0-0.9,0-1.8,0-2.6
	c0-0.2,0-0.5,0-0.7c0-0.2,0-0.5-0.1-0.7c-0.3-0.1-0.5-0.1-0.7-0.2c-0.2,0-0.5-0.1-0.7-0.1c-0.7,0-1.4,0-2.1,0c-0.7,0-1.4,0-2.1,0.1
	c-0.4,0-0.7,0.1-0.8,0.2c-0.1,0.1-0.2,0.4-0.2,0.8c0,0.7,0.1,1.5,0.1,2.2c0,0.7,0.1,1.5,0.1,2.2c0.1,0.7,0,1.4-0.1,2
	c-0.3,1.2-1.1,1.7-2.4,1.6c-0.5-0.1-0.9-0.3-1.3-0.6c-0.4-0.3-0.6-0.8-0.7-1.3c-0.1-0.2-0.1-0.4-0.1-0.6s0-0.4,0-0.6
	c0-1.8,0-3.6,0-5.3c0-1.8,0-3.6,0-5.3c0-1.9,0-3.7,0-5.6c0-1.9,0-3.8,0-5.7c0-0.7,0.1-1.2,0.5-1.7c0.4-0.5,0.8-0.7,1.3-0.8
	c0.7-0.1,1.2,0,1.6,0.3c0.4,0.3,0.7,0.8,0.7,1.5c0,1.6,0,3.2,0,4.8c0,1.6,0,3.2,0,4.8c0,0.4,0.1,0.8,0.1,1.2c0,0.4,0,0.9,0.1,1.3
	c0.2,0,0.4,0,0.6,0c0.1,0,0.3,0,0.4,0c0.8,0,1.5,0,2.3,0c0.8,0,1.6,0,2.3,0c0.5,0,0.8-0.1,1-0.2c0.2-0.2,0.2-0.5,0.2-1
	c0-1.5,0-3,0-4.5c0-1.5,0-3,0-4.5c0-0.4,0-0.8,0.1-1.2c0.1-0.4,0.1-0.8,0.2-1.2c0.1-0.4,0.3-0.8,0.7-1c0.3-0.2,0.7-0.4,1.2-0.4
	c0.4,0,0.9,0.1,1.2,0.4c0.4,0.3,0.6,0.6,0.7,1c0.2,0.7,0.3,1.3,0.2,1.9c-0.1,1.9-0.2,3.8-0.1,5.7s0.1,3.8,0.1,5.7c0,1.7,0,3.4,0,5.1
	c0,1.7,0.1,3.4,0.1,5.1c0,0.2,0,0.4,0,0.6C254.5,327.3,254.5,327.5,254.5,327.7z M273.3,328.1c-0.2,0.5-0.6,0.8-1.2,1
	c-0.4,0.1-0.7,0.1-1,0.1c-1.8,0-3.5,0-5.3,0c-1.7,0-3.5,0-5.3,0.1c-0.7,0-1.3-0.2-1.7-0.5c-0.4-0.4-0.6-0.9-0.6-1.7
	c0-0.9,0.1-1.8,0.1-2.7c0-0.9,0-1.8,0-2.7c0-2.8,0-5.5,0-8.3c0-2.7,0-5.5-0.1-8.2c0-0.3,0-0.5,0-0.8s0-0.5,0-0.8
	c0.1-0.5,0.3-0.9,0.6-1.2s0.8-0.4,1.3-0.4c1.7,0,3.3,0,5,0c1.6,0,3.3,0,5,0c0.3,0,0.5,0,0.8,0c0.3,0,0.5,0,0.8,0
	c0.4,0,0.8,0.2,1.1,0.5c0.3,0.3,0.5,0.7,0.5,1.1c0.1,0.5,0,1-0.2,1.4c-0.2,0.4-0.6,0.6-1,0.7c-0.9,0.2-1.9,0.3-2.9,0.4
	c-0.9,0-1.8,0-2.8,0c-0.9,0-1.9,0-2.8,0c-0.2,0-0.5,0.1-0.6,0.1c-0.2,0-0.4,0.1-0.6,0.1v6.2c0.6,0,1.2,0.1,1.8,0.1
	c0.6,0,1.2,0,1.8,0c0.5,0,1,0,1.5,0c0.5,0,0.9,0,1.4,0c0.1,0,0.3,0,0.4,0c0.1,0,0.3,0,0.4,0c0.4,0.1,0.8,0.2,1.1,0.6
	c0.3,0.3,0.5,0.7,0.6,1c0.1,0.4,0,0.8-0.3,1.2c-0.2,0.4-0.5,0.7-0.9,0.8c-0.6,0.2-1.2,0.3-1.8,0.4c-0.8,0-1.6,0-2.3,0
	c-0.8,0-1.6,0-2.3,0c-0.5,0-0.9,0.1-1,0.2c-0.1,0.1-0.2,0.4-0.3,1c-0.1,1.2-0.2,2.4-0.1,3.5c0,1.2,0.1,2.3,0,3.6
	c0.2,0,0.4,0.1,0.5,0.1c0.1,0,0.3,0,0.4,0.1c1.4,0.1,2.7,0.1,4.1,0.1c1.3,0,2.7,0.1,4.1,0.1c0.9,0,1.6,0.5,1.9,1.4
	C273.5,327.1,273.5,327.6,273.3,328.1z M348.2,416.5c0,1.1-1,1.7-5.6,3.4c-3.6,1.3-5,1.9-7.7,2.9c-3,1.2-3.6,1.4-4.3,1.4
	c-1.1,0-1.8-0.9-1.6-1.9c0.1-0.5,0.1-3.8,0-3.9c0-0.1-0.9-0.1-1.8-0.1s-2.8-0.1-4.1-0.2c-3.4-0.3-8.6-0.4-21.7-0.6
	c-6.4-0.1-14.3-0.3-17.7-0.3c-3.4-0.1-10.5-0.1-15.8-0.1l-9.6,0l-0.8,0.4c-2.3,0.9-5.5,3-9.3,6c-2.6,2.1-2.9,2.3-3.7,2.3
	c-0.5,0-0.6-0.1-1.5-1c-2.1-2.1-5-3.9-9.7-5.9c-3.5-1.5-2.8-1.4-7-1.4c-5.1,0-7.3,0.1-7.4,0.4c-0.6,1.9-2.7,3.9-4.9,4.5
	c-1.1,0.3-2.8,0.2-3.8-0.2c-1.5-0.7-2.5-1.9-2.8-3.3c-0.1-0.4-0.2-0.7-0.2-0.7c-0.1-0.1-8.8,0.1-9.4,0.3c-0.3,0.1-1.3,0.5-2.2,0.9
	c-5.4,2.3-8.3,4-10.4,6.2c-1.1,1.1-1.2,1.1-1.7,1.1c-0.8,0-1.1-0.2-4.9-3.2c-1.9-1.5-5.6-3.9-7-4.6l-1.2-0.6l-31.5,0l-31.5,0l-0.1,3
	c-0.1,3.2-0.1,3.4-0.8,3.7c-0.6,0.3-1,0.2-2.9-0.6c-1-0.5-3-1.3-4.4-1.9c-1.4-0.6-3.3-1.4-4.3-1.8c-0.9-0.4-2.6-1.1-3.7-1.6
	c-1.3-0.5-2.1-0.9-2.3-1.1c-0.2-0.2-0.3-0.5-0.3-0.9c0-1,0.2-1.2,2-2.1c2-1,2.9-1.5,9.4-5c2.7-1.5,5.1-2.8,5.3-2.8
	c0.3-0.1,0.5-0.1,0.8,0.1c0.8,0.3,0.9,0.6,1.1,3.4c0.1,1.4,0.2,3,0.2,3.7l0,1.1l30.3,0c23.2,0,30.3,0,30.5-0.1
	c0.1-0.1,1.1-0.5,2.1-0.9c3-1.2,5.2-2.4,9.7-5.4c1.1-0.8,2.3-1.5,2.7-1.7c0.3-0.2,0.8-0.4,0.9-0.6c0.6-0.5,1.1-0.4,2.3,0.4
	c6.4,4.5,8.4,5.7,11.1,7l2.2,1.1l3.9,0c2.1,0,3.9,0,3.9-0.1c0,0,0.2-0.4,0.3-0.8c0.3-1,0.7-1.7,1.5-2.5c1.9-1.7,4.7-2.1,6.9-1
	c1,0.5,2,1.6,2.6,2.8l0.5,1l4.6,0c5.3,0,4.7,0.1,7.9-1.6c1.9-0.9,5.9-3.6,10.6-6.8c1.2-0.8,1.7-0.9,2.3-0.4c0.2,0.2,0.6,0.4,0.9,0.6
	c0.3,0.2,1.5,0.9,2.7,1.7c4.5,3,6.7,4.3,9.7,5.4l1.8,0.7l13.7,0.1c7.6,0.1,16.1,0.2,18.9,0.3c2.9,0.1,9.1,0.2,13.9,0.3
	c9.6,0.2,13.9,0.3,17.5,0.6c3.1,0.2,5.6,0.3,5.6,0c0-0.1-0.1-0.8-0.1-1.5c-0.2-2.2,0.2-3.4,1.1-3.6c0.5-0.1,15.8,4,17.1,4.6
	C347.8,415,348.2,415.8,348.2,416.5z M74.4,128c-1.7-0.4-3.2-1-4.6-1.6c-1.5-0.7-3-1.7-4.4-3c-1.5-1.2-2.7-2.6-3.8-4.2
	c-1-1.6-1.9-3.2-2.6-5c-0.3-0.7-0.5-1.4-0.8-2.2c-0.3-0.7-0.5-1.5-0.7-2.2c-0.2-1.5-0.3-2.9-0.5-4.4c-0.2-1.4-0.2-2.9,0-4.4
	c0.2-0.7,0.3-1.4,0.3-2.2c0-0.7,0.2-1.5,0.3-2.2c0.5-3,1.4-5.8,2.7-8.6c0.6-1,1.2-2.1,1.8-3.2c0.6-1.1,1.3-2.1,2-3.1
	c2.8-3.7,6-6.5,9.7-8.6c2.4-1.4,4.8-2.4,7.4-3.1c1.2-0.3,2.4-0.4,3.5-0.5c1.1-0.1,2.3,0,3.5,0.1c2.4,0.4,4.5,1.4,6.4,2.7
	c1.3,1,2.5,2,3.5,3.3c1,1.2,1.9,2.6,2.7,4c0.7,1.2,1.3,2.5,1.8,3.9c0.5,1.4,1,2.7,1.4,4.1c0.7,2.4,1.2,4.8,1.6,7.2
	c0.3,1.8,0.6,3.7,0.7,5.5c0.1,1.8,0.2,3.7,0.3,5.5c0,0.9,0,1.7,0.1,2.5c0.1,0.8,0.2,1.7,0.3,2.7c0,0.9,0,1.7,0.1,2.6
	c0,0.9,0.1,1.7,0.1,2.6c0,1.7,0,3.4-0.1,5.1c0,1.7-0.1,3.3-0.1,5v3c0.5-0.2,0.9-0.3,1-0.5c1.6-1.1,3.1-2.3,4.6-3.5
	c1.5-1.2,2.9-2.4,4.3-3.7c1.6-1.5,3.1-3,4.5-4.4c1.4-1.5,2.8-3.1,4.1-4.8c3.8-4.7,7.3-9.9,10.3-15.7c0.8-1.5,1.5-3,2.3-4.6
	c0.7-1.6,1.4-3.2,2-5c0.4-1,0.8-2,1-3.1c0.3-1.1,0.6-2.2,0.9-3.2c0.3-1.4,0.6-2.9,0.8-4.4c0.2-1.3,0.3-2.6,0.3-3.9s0-2.6-0.1-3.9
	c-0.1-0.3-0.2-0.7-0.2-1c0-0.3-0.1-0.7-0.2-1c-0.4-1.6-1.6-2.6-3.4-3.1c-0.4-0.2-0.8-0.3-1.2-0.3c-0.4,0-0.8-0.1-1.2-0.3
	c-0.2,0-0.3-0.1-0.5-0.3c-0.4-0.3-0.6-0.7-0.5-1.2c0.1-0.7,0.5-1.3,1.2-1.7c0.9-0.5,2-0.9,3.3-1c2,0,3.9,0.4,5.6,1.3
	c1,0.4,1.9,1,2.7,1.8c0.7,0.8,1.4,1.7,1.9,2.6c0.5,1,1,2.1,1.3,3.2c0.3,1.1,0.7,2.2,0.9,3.3c0.3,1.2,0.4,2.4,0.5,3.6
	c0.1,1.2,0.1,2.4,0,3.6c0,1,0,2.1-0.1,3.1c-0.1,1-0.2,2-0.4,3c-0.2,0.7-0.3,1.4-0.4,2.1c-0.1,0.7-0.2,1.4-0.4,2.1
	c-0.3,1.3-0.6,2.6-1,3.8c-0.4,1.1-0.8,2.3-1.2,3.4c0.1,0.1,0.1,0.2,0.2,0.3c1.1,2.4,1,4.5-0.3,6.5c-1,1.6-2.4,2.5-4.3,2.8
	c-2,3.5-4.2,6.8-6.8,9.8c-0.9,1-1.8,2.1-2.7,3.1c-1,1-1.9,2-2.9,2.9c-0.9,0.8-1.7,1.5-2.6,2.3c-0.9,0.7-1.8,1.5-2.7,2.3l-5.1,4.3
	c-1.2,1-2.4,1.9-3.6,2.7c-1.2,0.9-2.4,1.8-3.6,2.7c-0.3,0.3-0.4,0.7-0.3,1c0.3,1,0.7,1.9,1,2.7c0.3,0.8,0.7,1.7,1.2,2.7
	c0.4,1.1,0.9,2.2,1.4,3.3c0.5,1,1,2.1,1.5,3.1c0.5,1.1,1,2.2,1.6,3.3c0.5,1,1.1,2.1,1.7,3.1c0.8,1.4,1.6,2.8,2.4,4.2
	c0.8,1.4,1.7,2.7,2.5,4c2.2,3.5,4.7,6.6,7.4,9.3c0.5,0.6,1.1,1.2,1.7,1.6c0.6,0.5,1.2,1,1.8,1.5c0.9,0.7,1.7,1.3,2.5,1.9
	c0.8,0.6,1.6,1.2,2.5,1.8c2.9,2.2,6,4.2,9.5,6c1.4,0.7,3,1.3,5,1.7c1.9,0.3,3.5-0.2,4.7-1.4c0.5-0.7,1.1-0.9,1.8-0.7
	c0.3,0.3,0.3,0.8,0.1,1.4c-0.4,1.5-1,2.9-1.8,4.1c-0.8,1.3-1.9,2.3-3.4,3.1c-1.7,0.8-3.5,1-5.5,0.8c-1.8-0.3-3.6-0.8-5.2-1.4
	c-1.7-0.6-3.3-1.2-5-2c-3.8-2-7.5-4.5-11-7.6c-0.4-0.3-0.9-0.7-1.3-0.9c-0.4-0.3-0.9-0.6-1.3-0.9c-1-0.9-1.9-1.7-2.9-2.5
	c-1-0.8-1.9-1.7-2.9-2.5c-1.1-1-2.2-2.1-3.1-3.3c-0.9-1.1-1.9-2.3-2.8-3.5c-0.5-0.7-1-1.4-1.6-2.2c-0.5-0.8-1-1.5-1.6-2.2
	c-0.3-0.4-0.6-0.9-0.7-1.4c-0.2-0.2-0.3-0.3-0.3-0.4c-1-1.1-1.8-2.4-2.4-3.7c-0.7-1.3-1.3-2.6-2-3.8c-0.6-1-1.2-2.1-1.6-3.2
	c-0.5-1.1-1-2.2-1.5-3.3c-0.1-0.1-0.2-0.2-0.2-0.3c0-0.1-0.2-0.2-0.3-0.3v1.7c-0.2,1.7-0.3,3.5-0.4,5.2c-0.1,1.7-0.2,3.4-0.4,5.2
	c-0.1,0.9-0.2,1.7-0.2,2.6c0,0.9-0.2,1.7-0.3,2.6c-0.2,1-0.3,1.9-0.5,2.8c-0.2,0.9-0.4,1.8-0.8,2.8c-0.3,0.8-0.9,1.2-1.7,1.3
	c-1.9,0.2-3.7-0.1-5.4-0.9c-0.7-0.3-1.4-0.6-2-0.9c-0.7-0.3-1.2-0.8-1.8-1.3c-0.7-0.5-1-1.2-0.9-2.1c0.3-1.1,0.4-2.2,0.5-3.3
	c0.1-1.1,0.2-2.2,0.3-3.3l0.4-7.1c0.1-1.5,0.2-3,0.3-4.5c0.1-1.5,0.1-3,0.1-4.5c0.1-1.2,0.2-2.5,0.2-3.8c0-1.3,0.1-2.6,0.2-3.9v-0.3
	c0-3.3,0-6.5,0.1-9.7c0-3.2,0.1-6.4,0.1-9.6v-10.1c-0.1-1.8-0.2-3.7-0.3-5.5c-0.1-1.9-0.2-3.7-0.4-5.5c-0.1-1.3-0.2-2.6-0.4-4
	c-0.2-1.3-0.3-2.7-0.5-4c-0.2-1.2-0.4-2.4-0.7-3.5c-0.3-1.1-0.7-2.2-1.1-3.3c-0.1-0.2-0.2-0.3-0.2-0.5c0-0.1-0.2-0.2-0.5-0.2
	c-0.1-0.1-0.1-0.2-0.1-0.2c0,0,0-0.1-0.1-0.2c-0.4-0.6-0.9-1-1.5-1.2c-0.6-0.2-1.2-0.4-1.9-0.6c-0.9-0.2-1.7-0.1-2.5,0.1
	c-0.8,0.3-1.5,0.6-2.2,1c-1.1,0.6-2.1,1.3-3,2.1c-0.9,0.8-1.7,1.7-2.6,2.6c-1.1,1.2-2.2,2.5-3.1,3.8c-1,1.3-1.8,2.7-2.5,4.2
	c-0.8,1.5-1.4,3.1-2,5c-0.7,2.3-1.1,4.5-1.2,6.7c-0.1,1.7-0.1,3.3,0,4.8c0.2,0.8,0.3,1.6,0.5,2.3c0.1,0.8,0.3,1.6,0.5,2.4
	c0.5,1.9,1.5,3.7,2.9,5.5c0.3,0.3,0.5,0.6,0.8,0.8c0.3,0.2,0.6,0.4,1,0.6c0.1,0.1,0.4,0.1,1,0.1c1.6-0.6,2.9-1.4,4-2.4
	c1.7-1.7,3.5-1.8,5.5-0.4c0.2,0.2,0.4,0.3,0.6,0.5c0.2,0.2,0.4,0.3,0.6,0.5c0.8,1,1,2,0.5,3.1c-0.9,2.2-2.3,3.9-4.3,5.2
	c-0.8,0.5-1.7,0.8-2.7,0.8C77.6,128.5,76,128.5,74.4,128z M374.9,133.9c-0.2-1-0.7-1.6-1.6-1.7c-0.5-0.2-1-0.2-1.4-0.1
	c-0.4,0.1-0.8,0.5-1.2,1.2c-0.2,0.4-0.4,0.8-0.6,1.2c-0.2,0.4-0.4,0.8-0.6,1.2c-0.3,1-0.7,1.9-0.9,2.7c-0.3,0.9-0.6,1.8-0.9,2.7
	c-0.2,0.6-0.4,1.2-0.6,1.8c-0.2,0.6-0.4,1.1-0.6,1.6c-0.3,1-0.7,1.9-1,2.7c-0.3,0.9-0.6,1.7-1,2.6c-0.3,0.7-0.5,1.3-0.7,1.9
	c-0.2,0.6-0.5,1.2-0.7,1.8l-2.4,5.1c-0.2,0.4-0.4,0.9-0.6,1.3c-0.2,0.4-0.4,0.9-0.6,1.3c-0.3,0.7-0.9,1.3-1.6,1.7
	c-0.8,0.3-1.3,0.2-1.6-0.5c-0.1-0.2-0.1-0.3-0.1-0.5c0-0.1,0-0.3-0.1-0.5c0-0.3,0-0.7,0.1-0.9c0-0.3,0.1-0.6,0.2-0.9
	c0.1-0.5,0.2-1,0.2-1.5c0-0.5,0.1-1,0.2-1.5c0.1-0.4,0.2-0.9,0.2-1.4c0-0.5,0.1-1,0.2-1.6v-1.3c0.1-0.9,0.2-1.7,0.2-2.5
	c0-0.8,0.1-1.6,0.2-2.5c0.1-0.6,0.1-1.2,0.1-1.8c0-0.6,0-1.1,0-1.6c0.1-1,0.1-2.1,0.1-3.2c0-1.1,0-2.2,0-3.2v-2.3
	c0.1-0.8,0.1-1.5,0.1-2.3c0-0.7,0-1.5,0-2.2c0-0.4,0-0.9,0.1-1.4c0-0.5,0.1-0.9,0.1-1.4c0.1-0.4,0.1-0.9,0.1-1.4
	c0-0.5-0.1-0.9-0.2-1.4c-0.2-1.2-0.5-2.2-0.9-3c-1-1.6-2.4-2.7-4.4-3.4c-0.5-0.2-1-0.3-1.6-0.4c-0.5-0.1-1-0.1-1.6-0.1
	c-1.9-0.2-3.8,0-5.6,0.4c-1.5,0.4-2.8,1-4,1.7c-1.5,0.9-2.6,1.9-3.3,3.1c-0.7,1-1.4,2.1-2,3.3c-0.7,1.1-1.3,2.3-1.9,3.4l-2,3.9
	c-0.3,0.6-0.5,1.2-0.8,1.8c-0.3,0.6-0.5,1.2-0.7,1.8c-0.4,0.9-0.8,1.7-1,2.5c-0.3,0.8-0.6,1.7-0.9,2.5c-0.2,0.3-0.3,0.7-0.5,1.2
	c-0.2-0.4-0.2-0.7-0.1-0.9c0-0.3,0-0.5,0-0.8c0-0.3,0-0.6,0.1-0.8c0.1-0.9,0.2-1.7,0.2-2.5c0-0.8,0.1-1.6,0.2-2.5l0.4-4.3
	c0.1-0.8,0.1-1.6,0.1-2.4c0-0.8,0-1.7,0-2.5c0-0.5,0-1.1-0.1-1.6c-0.1-0.6-0.2-1.1-0.3-1.6c0-0.3,0-0.4-0.1-0.5
	c-0.2-0.5-0.4-1-0.6-1.4c-0.2-0.4-0.5-0.9-0.7-1.3c-0.8-1.4-2.1-2.4-4-3.1c-0.5-0.2-1-0.3-1.6-0.4c-0.5-0.1-1-0.1-1.6-0.1
	c-1.7,0-3.1,0.2-4.3,0.7c0,0.2,0,0.3,0.1,0.4c0,0.1,0.1,0.2,0.1,0.4c0,0.9,0,1.7,0.1,2.6c0,0.9,0.1,1.8,0.2,2.7c0,0.7,0,1.4-0.1,2.2
	c0,0.8-0.1,1.5-0.1,2.2v3.3c0,1,0,1.9-0.1,2.9c0,0.4,0,0.7,0,1.1c0,0,0,0.1,0,0.1c-0.3,1-0.7,1.9-1,2.7c-0.3,0.8-0.6,1.7-0.8,2.7
	c-0.3,1-0.7,2.1-1,3.1c-0.3,1-0.7,2-1.1,2.9c-0.3,0.7-0.7,1.4-0.9,2c-0.3,0.7-0.6,1.3-0.9,2c-0.4,1-0.9,1.9-1.4,2.7
	c-0.5,0.9-1,1.7-1.6,2.6c-1.1,1.9-2.4,3.4-3.7,4.6c-0.3,0.3-0.7,0.7-1,1c-0.3,0.3-0.6,0.7-1,0.9c-0.6,0.4-1.2,0.8-1.8,1.2
	c-0.6,0.3-1.2,0.6-1.9,0.8c-1,0.4-2,0.5-2.9,0.3c-1-0.4-1.8-1-2.2-1.7c-0.4-0.6-0.7-1.2-0.9-1.9c-0.2-0.7-0.3-1.3-0.5-2
	c-0.3-0.6-0.4-1.3-0.4-2l-0.4-2.7c-0.1-0.3-0.1-0.7-0.1-1c0-0.3,0-0.7,0-1.2v-4.2c0-0.1,0.1-0.2,0.3-0.4c1.7-0.7,3.2-1.4,4.4-2.1
	c0.8-0.4,1.5-0.9,2.3-1.3c0.7-0.4,1.5-0.9,2.3-1.3c1-0.7,2-1.4,3-2.2c1-0.8,1.8-1.7,2.5-2.7c1.6-2.1,2.5-4.4,2.7-7.1
	c0-0.8,0-1.6-0.1-2.4c0-0.8-0.2-1.6-0.3-2.4c-0.3-1.2-0.7-2.2-1.3-3c-1.2-2.2-3-4-5.4-5.4c-0.7-0.4-1.4-0.7-2-0.9
	c-0.6-0.2-1.3-0.3-2-0.5c-0.8-0.1-1.6-0.1-2.4-0.1c-0.8,0-1.5,0.2-2.2,0.3c-0.6,0.2-1.2,0.3-1.8,0.5c-0.6,0.2-1.2,0.3-1.8,0.5
	c-0.4,0.2-0.9,0.4-1.4,0.7c-0.5,0.3-0.9,0.5-1.4,0.8c-2.2,1.3-3.9,3-5.2,5.1c-1,1.2-1.7,2.5-2.3,3.8c-0.6,1.3-1.1,2.7-1.6,4.2
	c-0.3,1-0.7,2.1-0.9,3.4c-0.2,0.7-0.3,1.4-0.4,2c-0.1,0.6-0.2,1.3-0.3,2c-0.1,0.6-0.1,1.2-0.1,1.8c0,0.6,0,1.2,0,1.8
	c0,1.1,0,2.2,0.1,3.3c0.1,0.6,0.1,1.2,0.2,1.8c-0.1,0.2-0.1,0.4-0.2,0.6c-0.7,1.7-1.4,3.5-2.2,5.3c-0.7,1.8-1.5,3.5-2.3,5.3
	c-0.2,0.3-0.3,0.7-0.5,1c-0.2,0.3-0.4,0.6-0.7,1c-0.1,0.3-0.3,0.6-0.8,1c-0.7,0.7-1.2,0.6-1.6-0.4c-0.2-0.2-0.3-0.4-0.3-0.7
	c-0.1-0.7-0.2-1.3-0.3-2c-0.1-0.6-0.1-1.3-0.1-2c0-1.4,0-2.7,0.1-4c0-1.3,0.1-2.7,0.2-4v-0.1c0-1,0-1.9,0.1-2.7
	c0-0.9,0.1-1.8,0.2-2.7c0-0.4,0-0.9-0.1-1.4c0-0.5-0.1-0.9-0.1-1.4c0-0.5,0-1,0.1-1.6c0-0.5,0.1-1,0.1-1.4c0-0.7,0-1.3-0.1-2
	c0-0.6-0.1-1.2-0.1-1.8c0-2-0.3-3.9-0.8-5.7c-0.2-1-0.5-1.9-0.8-2.7c-0.4-0.9-0.8-1.7-1.2-2.6c-2.1-3.8-5.3-6.1-9.5-6.9
	c-2.3-0.3-4.4-0.2-6.3,0.1c-1.6,0.4-2.9,1.1-4,2c-1.5,1-2.7,2.1-3.7,3.4c-1,1.3-1.9,2.7-2.7,4.3c-0.2,0.2-0.3,0.4-0.4,0.7
	c-0.1,0.3-0.2,0.5-0.4,0.7c-0.2-0.2-0.3-0.5-0.3-0.9c0-0.9,0-1.7,0.1-2.5c0-0.8,0.1-1.6,0.1-2.4c0.1-1.4,0.1-2.8,0.1-4.1
	c0-1.3,0-2.7,0.1-4c0-1.5,0-2.9,0.1-4.2c0-1.3,0.1-2.7,0.2-4.1V100c0-0.7,0-1.4-0.1-2c-0.1-0.7-0.3-1.3-0.7-1.9
	c-0.7-1.4-1.6-2.4-2.7-3c-0.6-0.4-1.2-0.7-1.8-0.8c-0.6-0.1-1.3-0.3-2-0.5c-1-0.2-1.9-0.2-2.7-0.1c-0.9,0.1-1.8,0.3-2.7,0.6
	c0.1,0.2,0.1,0.4,0.1,0.6c0,0.2,0,0.4,0.1,0.6c0,1,0,1.9,0.1,2.7c0,0.9,0.1,1.8,0.1,2.7c0,1.4,0,2.7,0,4s0,2.7-0.1,4v3.9
	c-0.1,1.5-0.1,2.9-0.1,4.2c0,1.4,0,2.7-0.1,4.1c0,0.9,0,1.7,0,2.5c0,0.8,0,1.7-0.1,2.5c0,1.1,0,2.3-0.1,3.4c0,1.1-0.1,2.3-0.2,3.4v5
	l-0.5,1.6l-2,5.5c-0.7,2.3-1.5,4.3-2.3,6.1c-0.5,1.3-1.1,2.6-1.8,3.8c-0.7,1.2-1.4,2.4-2.1,3.7c-1.4,2.1-3,4-4.8,5.6
	c-0.5,0.4-1.1,0.8-1.6,1.2c-0.6,0.3-1.2,0.7-1.8,1c-0.3,0.2-0.7,0.3-1,0.4c-0.3,0.1-0.7,0.2-1.2,0.3c-1.5,0.1-2.7-0.5-3.7-1.7
	c-0.5-0.9-0.9-1.8-1.2-2.7c-0.6-1.9-1-3.6-1-5.1c-0.1-0.6-0.2-1.2-0.2-1.8c0-0.6-0.1-1.2-0.1-1.8v-2.9c0-0.4,0-0.9,0-1.4
	c0-0.5,0-0.9,0.1-1.4c0-1.9,0.2-3.6,0.5-5.1c0.1-0.6,0.2-1.2,0.2-1.8c0-0.6,0.2-1.1,0.3-1.6c0.2-0.7,0.3-1.3,0.5-2
	c0.2-0.6,0.3-1.2,0.5-1.8c0.2-0.7,0.4-1.3,0.7-1.9c0.3-0.6,0.5-1.2,0.8-1.8c0.4-0.8,0.9-1.5,1.3-2.2c0.4-0.7,0.9-1.3,1.4-2
	c0.8-1,1.9-1.6,3.3-1.6c1,0,1.7,0.3,2.1,1c0.2,0.3,0.3,0.9,0.5,1.6c0.3,1,0.3,1.9,0.3,2.7c-0.1,0.3-0.2,1-0.4,1.8
	c-0.1,0.4-0.2,0.9-0.3,1.4c-0.1,0.5-0.2,0.9-0.4,1.4c-0.1,0.3-0.2,0.5-0.3,0.8c-0.1,0.3-0.1,0.5-0.1,0.8c-0.2,0.7,0.1,1.3,0.8,1.7
	c0.8,0.4,1.5,0.4,2.2,0c0.7-0.4,1.3-1.2,1.7-2.2c0.7-1.7,1.2-3.4,1.4-5.2c0.3-1.6,0.3-3,0.3-4.3c-0.2-1-0.4-1.8-0.8-2.6
	c-0.3-0.7-0.7-1.3-1.2-1.8c-0.4-0.5-1-1-1.6-1.4c-1.1-1-2.5-1.8-4.2-2.6c-1.4-0.7-2.9-1-4.4-1c-0.7-0.1-1.4-0.1-2.1,0
	c-0.7,0.1-1.4,0.2-2.1,0.4c-1.3,0.3-2.7,0.9-4,1.6c-1.7,0.8-3.4,2-4.8,3.5c-0.4,0.4-0.8,0.9-1.2,1.4c-0.3,0.5-0.7,1-1.2,1.6
	c-0.8,1.2-1.5,2.5-2.1,3.9c-0.6,1.4-1.1,2.8-1.6,4.2c-0.3,1-0.6,1.9-0.7,2.9c-0.1,1-0.3,2-0.5,2.9c-0.1,0.7-0.2,1.4-0.2,2.1
	c0,0.7-0.1,1.3-0.1,1.8c0,0.6,0,1.1,0.1,1.5c-0.5,1.3-1,2.7-1.5,4.1c-0.5,1.4-1.1,2.9-1.8,4.4c-0.4,1-0.9,2.1-1.3,3.1
	c-0.4,1-0.9,2-1.3,2.9c-0.4,1-0.9,1.9-1.4,2.9c-0.3,0.4-0.7,0.8-1.2,1c-0.7,0.2-1.1,0-1.2-0.7c0-0.2,0-0.3-0.1-0.4
	c0-0.1-0.1-0.2-0.1-0.4c0.1-1,0.1-1.8,0-2.7c-0.1-0.8,0-1.7,0.1-2.7c0.1-0.4,0.1-0.9,0.1-1.4c0-0.5,0-1,0.1-1.5
	c0.1-1.2,0.2-2.4,0.2-3.7c0-1.2,0.1-2.4,0.2-3.7c0.1-1.5,0.1-3,0.1-4.5c0-1.5,0-3,0.1-4.5v-0.4c0-1,0-1.9,0.1-2.9
	c0-1,0.1-1.9,0.2-2.9c0.1-1.1,0.2-2.2,0.2-3.3c0-1.1,0.1-2.2,0.1-3.3c0.1-1.5,0.2-3,0.3-4.6c0.1-1.6,0.2-3.1,0.3-4.6
	c0-0.7,0-1.3,0.1-1.9c0-0.6,0.1-1.2,0.1-1.9c0.1-0.4,0.3-0.7,0.8-0.7h6c1.1,0,1.8-0.6,2-1.7c0.2-0.8,0-1.5-0.4-2.2
	c-0.4-0.9-1.1-1.3-2-1.2h-5.4h-0.8c0-0.2,0-0.3-0.1-0.4c0-0.1-0.1-0.2-0.1-0.4v-4.3c0-0.5,0-1,0-1.6c0-0.5,0-1-0.1-1.6
	c-0.3-1.7-1.2-3-2.6-4.2c-0.7-0.6-1.5-1-2.4-1.2c-0.9-0.2-1.8-0.4-2.7-0.5c-0.6-0.1-1.2-0.1-1.7,0c-0.5,0.1-1.1,0.2-1.7,0.3
	c-0.3,0.1-0.5,0.1-0.7,0.1c-0.2,0-0.4,0.1-0.6,0.3c0.2,2.3,0.2,4.5,0.2,6.7c0,2.2-0.1,4.5-0.1,6.7H162h-4.3
	c-0.6-0.1-1.1,0.1-1.6,0.7c-0.1,0.1-0.1,0.2-0.1,0.2c0,0,0,0.1-0.1,0.2c-0.8,0.8-1,1.7-0.5,2.7c0.3,0.9,1.1,1.3,2.2,1.3h4.6h0.5
	c0.3,0,0.4,0.1,0.4,0.4c-0.1,0.6-0.1,1.2-0.1,1.8c0,0.6,0,1.2-0.1,1.8c-0.1,1-0.2,1.9-0.2,2.9c0,1-0.1,1.9-0.1,2.9
	c-0.1,0.9-0.1,1.7-0.1,2.5c0,0.8,0,1.7,0,2.5c-0.1,1-0.2,2-0.2,3c0,1-0.1,2-0.1,3c-0.1,0.4-0.1,0.9-0.1,1.3c0,0.3,0,0.6,0,0.9
	c-0.1,0.3-0.3,0.5-0.4,0.8c-0.3,0.5-0.5,1-0.7,1.6c-0.2,0.7-0.4,1.4-0.6,2c-0.2,0.6-0.4,1.2-0.6,1.8c-0.5,1.4-1,2.8-1.5,4.2
	c-0.5,1.4-1,2.8-1.5,4.2c-0.3,0.7-0.5,1.4-0.8,2.2c-0.3,0.8-0.6,1.5-0.8,2.2c-0.5,1.2-1,2.4-1.6,3.5c-0.5,1.1-1,2.2-1.6,3.5
	c-0.3,0.7-0.6,1.4-1,2.1c-0.4,0.6-0.9,1-1.3,1.2c-0.6,0.3-1,0-1.2-0.7v-1.6c0.1-0.9,0.1-1.7,0.1-2.6c0-0.9,0-1.7,0.1-2.6
	c0.1-1,0.2-2.1,0.3-3.2c0.1-1.1,0.2-2.2,0.3-3.2c0.1-1,0.2-1.9,0.2-2.9c0-1,0.2-2,0.3-2.9c0-0.3,0-0.7,0-1c0-0.3,0-0.7,0.1-1.2
	c0.1-1.2,0.2-2.4,0.3-3.6c0.1-1.2,0.2-2.4,0.3-3.6c0.1-1.3,0.2-2.6,0.2-3.9c0-1.3,0.1-2.6,0.1-3.9c-0.1-0.8-0.2-1.6-0.3-2.4
	c-0.1-0.8-0.3-1.6-0.8-2.3c-0.5-1.1-1.3-2-2.4-2.6c-0.5-0.4-1.1-0.7-1.7-0.8c-0.6-0.1-1.2-0.3-1.8-0.5c-1-0.2-1.9-0.2-2.7-0.1
	c-0.8,0.1-1.7,0.2-2.5,0.4c-0.1,0-0.3,0.1-0.7,0.3c0,0.3,0,0.4,0.1,0.5c0.1,1,0.2,2.1,0.2,3.1c0,1,0,2-0.1,2.9
	c-0.1,1.7-0.2,3.3-0.2,5c0,1.7-0.1,3.3-0.2,5l-0.4,6.3c-0.1,1-0.1,1.9-0.1,2.9c0,1,0,2-0.1,2.9c-0.1,1.2-0.2,2.4-0.2,3.7
	c0,1.2-0.1,2.4-0.2,3.7v2.2c-0.2,0.8-0.2,1.6-0.2,2.4c0,0.8,0.2,1.6,0.3,2.4c0.2,0.6,0.4,1.2,0.6,1.7c0.2,0.5,0.4,1,0.6,1.6
	c0.8,1.5,1.8,2.8,3.1,4c1.5,1.1,3,1.7,4.6,1.6c0.9,0,1.5,0,2-0.1c1.7,0,3.2-0.6,4.6-1.8c1.5-1.4,2.7-3.1,3.7-5.1
	c0.5-1.1,1.1-2.2,1.6-3.3c0.6-1.1,1.1-2.2,1.5-3.3l2.2-5.6c0,0.3,0,0.5,0,0.8c0,1,0,2.1-0.1,3.1c0,1-0.1,2-0.1,3.1
	c0,2.3,0.4,4.4,1.3,6.3c0.4,1,0.9,1.8,1.4,2.6c0.5,0.8,1.2,1.5,2,2.1c0.6,0.4,1.2,0.8,1.9,1.1c0.7,0.3,1.3,0.4,2,0.3h2.5
	c1.9-0.2,3.4-0.8,4.6-2c1.1-1,2.2-2.4,3.3-4.2c0.7-1.2,1.3-2.5,1.8-3.8c0.5-1.3,1.1-2.6,1.7-3.8c0.2-0.5,0.4-1.1,0.6-1.6
	c0,0,0,0,0,0c0.2,0.9,0.4,1.7,0.7,2.5c0.3,0.8,0.6,1.6,1,2.4c0.3,0.7,0.7,1.3,0.9,1.9c0.3,0.6,0.6,1.2,1,1.8
	c0.5,0.8,1.1,1.5,1.6,2.2c0.6,0.7,1.2,1.3,1.9,2c1.3,1.2,2.6,2,3.9,2.5c0.7,0.2,1.4,0.3,2,0.4c0.7,0.1,1.3,0.2,2,0.3
	c0.4,0,0.9,0,1.4,0.1c0.5,0,1,0,1.5-0.1h2.2c0.4-0.1,0.8-0.2,1.1-0.2c0.3,0,0.6-0.1,1-0.2c1.2-0.2,2.5-0.7,3.8-1.4
	c0.8-0.4,1.5-0.9,2.2-1.5c0.7-0.6,1.3-1.2,1.9-1.8c1.2-1.4,2.4-2.9,3.7-4.4c1.1-1.7,2.2-3.3,3.1-5.1c0.6-1.1,1.1-2.2,1.6-3.3
	c0,1.3,0,2.7-0.1,4c0,1.6-0.2,3.2-0.3,4.8c-0.2,1.3-0.3,2.6-0.3,3.9c0,1.3-0.1,2.7-0.2,4v0.5c0.5,0.2,1.1,0.3,1.8,0.5
	c2,0.5,3.9,0.5,5.7,0c1.7-0.6,3.1-1.9,4.2-3.9c0.6-1.2,0.9-2.6,0.9-4.2v-1.6l0.4-6.3c0.1-1,0.1-1.9,0.1-2.8s0-1.8,0.1-2.8
	c0.1-1.3,0.2-2.6,0.2-3.9c0-1.3,0.2-2.5,0.3-3.7c0.1-0.7,0.1-1.3,0.1-2c0-0.6,0.1-1.3,0.3-2c0.3-0.9,0.6-1.9,1-3
	c0.4-1.1,0.9-2.2,1.5-3.2c0.6-1,1.2-2,1.9-2.9c1.2-1.6,2.7-3.1,4.6-4.7c0.3-0.2,0.5-0.4,0.8-0.6c0.3-0.2,0.6-0.4,1-0.6
	c0.7-0.4,1.4-0.5,2.2-0.3c0.7,0.2,1.3,0.6,1.8,1.2c0.3,0.3,0.5,0.7,0.7,1c0.2,0.3,0.4,0.7,0.6,1.2c0.3,1,0.6,2.1,0.8,3.1
	c0.2,0.6,0.3,1.2,0.3,1.7c0,0.5,0.2,1.1,0.3,1.7c0,0.4,0,0.9,0.1,1.4c0,0.5,0.1,0.9,0.1,1.4l0.4,7.4c0,1.9,0,3.8-0.1,5.7
	c0,1.9,0,3.8,0.2,5.8c0.1,0.6,0.1,1.2,0.1,1.8c0,0.6,0,1.2,0.1,1.8c0.2,1,0.3,1.9,0.5,2.8c0.1,0.9,0.3,1.9,0.6,2.8
	c0.3,1.3,0.7,2.5,1.2,3.5c1.6,2.6,3.8,3.9,6.8,3.8c0.4,0,0.8,0,1.2-0.1c0.4,0,0.8-0.1,1.2-0.2c1.8-0.3,3.3-1.1,4.4-2.5
	c1.5-1.6,2.7-3.4,3.7-5.5c0.5-1.2,1-2.4,1.6-3.7c0.2-0.4,0.4-0.8,0.5-1.2c0.1,0.4,0.2,0.7,0.4,1.1c0.3,0.8,0.7,1.6,1,2.4
	c0.3,0.8,0.7,1.5,1.1,2.2c0.7,1,1.4,1.9,2.1,2.8c0.7,0.9,1.5,1.8,2.5,2.5c1.4,1.2,3.1,2,5.1,2.5c0.5,0.1,1.1,0.2,1.6,0.2
	c0.6,0,1.2,0.1,1.8,0.1h0.7c0.7,0,1.3,0,2,0c0.6,0,1.3,0,2-0.1c0.4-0.1,0.9-0.2,1.4-0.2c0.5,0,0.9-0.2,1.4-0.3
	c0.4-0.2,0.9-0.4,1.3-0.6c0.4-0.2,0.9-0.5,1.3-0.7c1-0.5,1.8-1.1,2.5-1.8c0.7-0.7,1.5-1.4,2.2-2.2c0.8-0.8,1.5-1.6,2.1-2.4
	c0.6-0.8,1.2-1.7,1.8-2.5c0.7-1.1,1.3-2.2,2-3.3c0.6-1.1,1.2-2.2,1.8-3.5c0-0.1,0.1-0.2,0.1-0.4c0,0.2,0,0.4,0,0.6
	c0,0.3,0,0.5,0,0.8c0,0.3,0,0.6-0.1,0.8c0,0.7,0,1.4-0.1,2c-0.1,0.6-0.1,1.3,0,2c0.1,0.6,0.1,1.2,0.1,1.7c0,0.5,0.1,1,0.3,1.6
	c0.1,1.1,0.4,2.4,1,3.7c0.6,1,1.2,1.8,1.8,2.3c1,0.9,2.2,1.4,3.7,1.7c0.6,0.1,1.3,0.1,2,0c0.7-0.1,1.3-0.5,1.7-1.2
	c0.3-0.5,0.6-1,0.8-1.6c0.3-0.7,0.5-1.4,0.8-2.1c0.3-0.7,0.5-1.4,0.7-2.1c0.6-1.7,1.1-3.5,1.6-5.4c0.2-0.6,0.3-1.2,0.5-1.8
	c0.2-0.6,0.3-1.2,0.5-1.8c0.2-0.7,0.3-1.3,0.5-1.8l1.2-3.9c0.2-0.5,0.3-1,0.5-1.6s0.3-1,0.5-1.6c0.2-0.7,0.4-1.4,0.6-2.1
	c0.2-0.7,0.4-1.4,0.6-2.1c0.1-0.4,0.3-1.1,0.7-2c0.3-0.7,0.5-1.4,0.8-2.2c0.3-0.7,0.6-1.5,0.8-2.2c0.3-0.5,0.5-1,0.7-1.6
	c0.2-0.5,0.5-1,0.7-1.4c0.4-0.5,0.8-1.1,1.2-1.6c0.3-0.6,0.7-1.2,1.2-1.8c0.2-0.4,0.4-0.8,0.8-1c1-1,2.1-1.7,3.3-2
	c1-0.3,1.8-0.1,2.6,0.5c0.2,0.2,0.3,0.3,0.3,0.5l0.4,1.6c0.1,1.1,0.1,2.3,0,3.4c-0.1,0.6-0.2,1.2-0.2,1.8c0,0.6-0.1,1.2-0.2,1.8
	c0,0.7,0,1.3-0.1,1.9c0,0.6-0.1,1.2-0.2,1.8c0,0.5,0,1-0.1,1.3c-0.1,0.6-0.2,1.2-0.2,1.8c0,0.6-0.1,1.3-0.1,2
	c-0.1,0.7-0.2,1.4-0.2,2c0,0.7-0.1,1.3-0.1,2c-0.1,0.7-0.1,1.4-0.1,2.2c0,0.7,0,1.5,0,2.3c-0.1,1.2-0.1,2.4-0.1,3.7
	c0,1.2,0.2,2.4,0.3,3.7c0,1,0.1,1.9,0.4,2.7c0.3,1.2,0.8,2.4,1.6,3.5c0.8,1,1.7,2,2.7,2.7c1.2,1,2.5,1.4,3.9,1.4
	c0.4,0,0.8,0,1.2-0.1c0.4,0,0.8-0.1,1.2-0.1c1.4-0.1,2.7-0.6,3.9-1.6c0.3-0.2,0.5-0.4,0.8-0.7c0.3-0.3,0.5-0.6,0.8-0.8
	c1-1.3,2-2.7,2.7-4.3c0.3-0.4,0.5-0.9,0.7-1.4c0.2-0.5,0.5-1,0.7-1.6c0.3-0.8,0.7-1.6,1-2.3c0.3-0.8,0.6-1.5,1-2.2
	c0.2-0.6,0.4-1.2,0.7-1.8c0.3-0.6,0.5-1.2,0.7-1.8c0.4-0.9,0.8-1.7,1.1-2.5c0.3-0.8,0.6-1.7,1-2.7c0.2-0.4,0.4-0.9,0.6-1.4
	c0.2-0.5,0.4-1,0.6-1.6c0.2-0.7,0.4-1.3,0.7-2c0.3-0.6,0.5-1.3,0.7-2c0.2-0.3,0.3-0.7,0.4-1c0.1-0.3,0.2-0.7,0.4-1
	c0.2-0.5,0.3-1,0.4-1.6C375.2,134.9,375.1,134.4,374.9,133.9z M289.6,141.7c0-0.3,0.1-0.7,0.2-1c0-0.8,0.1-1.5,0.4-2.2
	c0.3-1.5,0.6-2.7,0.9-3.7c0.2-0.5,0.3-1,0.5-1.5c0.2-0.5,0.3-0.9,0.5-1.4c0.3-0.8,0.7-1.5,1.2-2.2c0.4-0.7,0.9-1.4,1.3-2.1
	c0.2-0.2,0.3-0.4,0.5-0.7c0.2-0.3,0.4-0.5,0.7-0.7c1-0.9,2.1-1.3,3.1-1.2c0.8,0,1.4,0.4,1.8,1.3c0.3,0.6,0.6,1.2,0.7,1.8
	c0,0.4,0,0.7,0.1,0.9c0,0.4-0.1,1.1-0.3,2c-0.2,0.5-0.3,1-0.5,1.5c-0.2,0.5-0.4,0.9-0.7,1.4c-0.7,1.4-1.7,2.8-3.1,4.2
	c-1.4,1.4-2.9,2.5-4.6,3.4c-0.4,0.2-0.8,0.4-1.2,0.6c-0.4,0.2-0.8,0.4-1.2,0.6c-0.1,0-0.2,0-0.2,0.1c0,0-0.2,0.1-0.3,0.1
	C289.5,142.5,289.6,142.1,289.6,141.7z M346.9,311.2c1.2-1.4,2.1-3.4,2-5.2c-0.1-1.7-0.2-3.3-0.4-5c-0.2-1.4-0.1-4-1.4-4.8
	c-1.1-0.6-2.7-0.8-3.9-0.7c-0.9,0.1-1.7,0.1-2.6,0.2c-2.6,0.2-5.7,1-7.5,3.1c-1.2,1.4-2.1,2.9-2.5,4.7c-1.9-3-4.7-5.6-7.8-6.8
	c-3.4-1.4-6.8-2.2-10.3-0.6c-3.1,1.4-5.4,4-5.5,7.5c-0.2,2.9,1.4,5.6,4,7c2.7,1.4,6.5,1,7.7-2.2c1.1-2.7-0.7-6.3-4-5.6
	c-1,0.2-2.3,2-1.1,2.9c0.7,0.5,1.2-0.2,1.9-0.1c1.9,0.1,1.7,2.1,0.5,3c-1.1,0.8-3.4,0.9-4.5,0.3c-1.5-0.8-2.5-2.7-2.6-4.3
	c-0.1-3.1,2-5.5,4.7-6.8c1.3-0.6,2.8-1,4.3-1c1.8-0.1,2.8,0.3,4.4,1.1c0.8,0.4,1.6,0.6,2.3,1.1c2.5,1.8,4.6,5.2,5.6,8
	c1.1,2.9,1,6.1-0.7,8.7c-0.9,1.3-2.5,2.6-4.1,2.8c-1.7,0.2-3.3-0.9-3.2-2.7c0-0.8,0.4-2.1,1.1-2.6c1.1-0.8,2,0.7,3,1
	c1.2,0.4,1.7-1.1,1.7-2c-0.1-1.3-1.1-2.4-2.3-2.7c-3.4-0.8-5.9,3-5.2,6c0.3,1.3,1,2.5,2,3.4c-1.7,0.9-3.6,3.4-4.1,5.3
	c-0.4,1.7-0.3,3.5-0.2,5.2c0.1,2.2,1.5,2.1,3.4,1.9c2-0.3,4.2-0.2,5.9-1.6c0.3-0.3,3-4.1,2.5-4.5c1,0.7,2.1,1.2,3.3,1.3
	c3.2,0.3,6.5-2.5,5.4-5.8c-0.4-1.4-1.8-2.4-3.3-2.2c-1.2,0.1-2.5,1.6-1.7,2.8c0.4,0.6,1.3,0.5,1.7,1c0.7,0.9-0.8,1.6-1.3,2
	c-0.9,0.7-1.9,0.9-3.1,0.4c-1.3-0.6-1.4-2.5-1.1-3.7c0.9-3.8,4.3-5.8,8.1-5.8c2.3,0,4.8-0.2,7,0.8c2.8,1.3,4.9,3.5,6,6.3
	c1.2,3.1,3.1,5.8,1.7,9.3c-0.4,1.1-1.3,2.4-2.1,3.2c-2,1.8-5.5,1.3-7.5-0.1c-1.4-0.9-2.6-3-2.1-4.7c0.2-0.8,0.9-1.6,1.8-1.7
	c1.4-0.1,1.4,1.2,1.7,2.2c0.3,1.2,1.7,1.9,2.5,0.8c0.6-0.8,0.4-2.6-0.1-3.4c-1.2-2.1-4.2-2-6-0.8c-3.2,2.2-2.2,6.5,0.4,8.7
	c2.5,2.1,6.1,2.4,8.9,0.8c2.6-1.5,3.7-3.9,4.2-6.8c0.3-1.5,0.5-3-0.1-4.4c-0.5-1.3-1.3-2.7-2.1-3.9c-1.9-3.2-5.1-5.8-8.7-7.3
	c0.1,0,0.1-0.1,0.2-0.1C344.7,313.1,346,312.3,346.9,311.2z M326.5,326.3c-1.2,1.4-4.6,4.4-6.7,2.9c-1.6-1.5,0-4.8,1-6.5
	c1.1-1.8,3.3-1.9,4.9-0.7C326.9,323.2,327.3,324.6,326.5,326.3z M342.2,311.6c-1.1,0.4-2.2,0.5-3.3,0.5c-1.4,0.1-4.9,2-5.7,0.3
	c-0.7-1.6-0.2-4.2-0.3-6c-0.2-2.5,1.2-4.7,2.5-6.6c1.3-2,3.6-3,6-2.6c3.2,0.6,6,3.1,6.2,6.5C347.7,307.1,345.3,310.4,342.2,311.6z
	 M323.4,90.4c-1.4-2.4-2.4-5.2-1.8-8c0.6-2.5,2.4-4.3,4.8-5c2.1-0.6,5-0.3,7.1,0.3c1.6,0.4,3.4,0.8,4.7,1.8c0.7,0.5,0.9,1.1,1.3,1.8
	c0.5,0.9,1.3,1.6,1.9,2.4c0.4-1.9,0.8-4.1,2-5.5c1.6-1.9,3.6-3.4,5.7-4.6c1.6-0.9,2.6-0.8,4.5-0.3c2.1,0.5,4.6,1.2,6.2,2.7
	c2,1.9,2.1,4.3,1.8,7c-0.3,1.8-0.8,3.5-1.2,5.3c-0.4,1.6-0.4,3.8-1.2,5.2c-0.7,1.3-0.9,2.9-1.8,4.1c-1.4,1.9-3.3,3.4-4.8,5.3
	c-1.6,2-2,4.7-2.6,7.1c-0.3,1.2-0.6,4.3-2.4,4c-0.2,0-0.5-0.1-0.7-0.2c-1.2-0.6-1.9-2-2.7-2.9c-2.7-3.2-5.8-6.5-9.5-8.6
	c-2.6-1.5-5.3-3.3-7.5-5.5C325.6,94.6,324.6,92.5,323.4,90.4z M276.3,78.1c1.8,0.8,2.8,2.2,3.2,4.1c0.2,1.3,0,2.5,0,3.8
	c0,1.5,1.3,1.8,2.4,1.1c1.5-0.9,2.9-1.9,4.7-1.8c1.9,0,3.7-0.5,5.6-0.4c1.7,0,4,0.5,4.8,2.2c0.9,1.7,0.3,4.9-0.4,6.5
	c-0.7,1.7-1.8,3.3-3,4.6c-1.7,1.9-3.4,3-5.6,4.1c-2.7,1.3-5.2,2.6-8.1,3.3c-1.6,0.4-3.3,0.8-5,0.8c-0.3,0-0.6,0-1-0.1
	c-1.4-0.2-1.7-1.7-2-3c-1-4-1.1-8.1-1.5-12.2c-0.2-2.4-0.1-4.8-0.1-7.2c0-1.5,0.1-3.7,1-5C272.5,77,274.5,77.3,276.3,78.1z
	 M296.7,64.6c-2.1-2.7-4.6-6.5-2.6-10c1.4-2.5,5.2-1.1,6.9,0.3c0.7,0.6,1.2,1.5,1.9,2.1c0.5,0.4,0.9,0.5,1.4,0.4
	c1.9-0.3,3.6-4,5.7-3.9c1.1,0.1,2.8,1.5,3.1,2.6c0.3,1.4-0.2,2-1.1,2.9c-1.6,1.7-2.6,3.9-3.6,6c-0.5,1-1,1.9-1.5,2.8
	c-1.2,2.1-3,4.9-5.5,2.6C299.6,68.8,298.3,66.6,296.7,64.6z M79.7,295.2l3.5-10.8l-9.2-6.7h11.4l3.5-10.8l3.5,10.8h11.4l-9.2,6.7
	l3.5,10.8l-9.2-6.7L79.7,295.2z M116.1,51.5l-9.2-6.7h11.4l3.5-10.8l3.5,10.8h11.4l-9.2,6.7l3.5,10.8l-9.2-6.7l-9.2,6.7L116.1,51.5z
	"/>
</svg>
