<?xml version="1.0" encoding="utf-8"?>
<!-- Generator: Adobe Illustrator 18.0.0, SVG Export Plug-In . SVG Version: 6.00 Build 0)  -->
<!DOCTYPE svg PUBLIC "-//W3C//DTD SVG 1.1//EN" "http://www.w3.org/Graphics/SVG/1.1/DTD/svg11.dtd">
<svg version="1.1" id="Layer_1" xmlns="http://www.w3.org/2000/svg" xmlns:xlink="http://www.w3.org/1999/xlink" x="0px" y="0px"
	 viewBox="0 0 432 432" enable-background="new 0 0 432 432" xml:space="preserve">
<path fill-rule="evenodd" clip-rule="evenodd" fill="#333333" d="M258.4,333.7c-2.6,0-4.6-1.5-5.9-4.6c-0.4-1-0.8-2.1-1-3.3
	c-0.5-2.2-0.8-4.8-0.8-7.8c-0.1-9.6,2.5-14.4,8-14.4c2.5,0,4.4,1.6,5.5,4.7c0.3,0.8,0.5,1.6,0.7,2.5c0.4,1.9,0.7,4.1,0.7,6.6
	c0.1,4.4-0.4,8.1-1.5,11.1C262.9,332,261,333.7,258.4,333.7z M132.6,350.2c-1.9-1.7-3.9-2.5-6.1-2.5c-1.5,0-2.2,0.6-2.2,1.9v39.7
	c0,1.2,0.5,1.8,1.5,1.8c2.5,0,4.7-1,6.6-3c1.7-1.7,3-3.8,4.1-6.4c1.5-3.6,2.3-7.6,2.3-11.9c0-5.7-0.9-10.5-2.7-14.5
	C135.2,353.1,134,351.4,132.6,350.2z M116.5,313.7c0.5,0.3,1.2,0,1.5-0.5c0.3-0.5,0-1.2-0.5-1.5c-0.5-0.3-1.2,0-1.5,0.5
	C115.7,312.8,115.9,313.5,116.5,313.7z M171.7,376.2c0-0.2-0.4-2.7-1.1-7.4c-2-12.6-3.6-19-4.8-19c-0.8,0-2.3,6.3-4.5,18.8
	c-0.9,4.9-1.3,7.5-1.3,7.7c0,0.9,0.5,1.4,1.5,1.4h8.7C171.2,377.7,171.7,377.2,171.7,376.2z M382.2,316.4c-1.3,1.2-3.4,1.2-4.6-0.1
	c-0.9-0.9-1.6-1.7-2.3-2.4c-6.3-6.5-8.5-8.7-8.3-20.7c0.1-9.1,2.7-19.9,5.2-30.3c2.5-10.3,4.9-20.3,4.4-26.8
	c-0.1-1.9-0.8-3.6-1.9-4.7c-0.7-0.8-1.6-1.4-2.7-1.7c-1.2-0.4-2.6-0.6-4.2-0.4c-4.8,0.4-10.9,3.2-17.9,9.5V384
	c0,10.7-4.4,20.4-11.4,27.4c-7,7-16.7,11.4-27.4,11.4H147.6c-12.8,0-24.4-5.2-32.8-13.6c-8.4-8.4-13.6-20-13.6-32.8V239.5
	c-17.8-6.5-25.2-4.3-27.4,1.5c-3,7.7,1.3,21.8,4.5,31.9c1.3,4.2,2.4,7.7,2.8,10.2c1.6,9.9-1.4,16.6-7.1,21.8
	c-5.2,4.8-12.6,8.1-20.5,11.6c-1.7,0.7-3.6,0-4.3-1.7c-0.7-1.7,0-3.6,1.7-4.3c7.4-3.2,14.2-6.3,18.7-10.4c4.1-3.8,6.2-8.6,5-15.9
	c-0.3-2.1-1.4-5.4-2.6-9.4c-3.4-11.1-8.1-26.4-4.3-36.2c3.6-9.4,13.9-13.6,37.4-4.7h0.9c54.4,0,65.3-67,72.6-111.6
	c0.3-1.9,0.6-3.8,0.9-5.7V55.3c0-12.7,5.2-24.2,13.5-32.5c8.3-8.3,19.9-13.5,32.5-13.5h0c12.7,0,24.2,5.2,32.5,13.5
	c8.3,8.3,13.5,19.9,13.5,32.5v61.3c0.5,2.3,1.2,5.9,2,9.6c9.7,46.8,22.2,107.8,71.5,107.8h0.2c8.3-7.5,15.9-10.9,22-11.3
	c2.5-0.2,4.8,0.1,6.8,0.8c2.1,0.7,3.9,1.9,5.4,3.4c2.1,2.3,3.4,5.3,3.7,8.7c0.6,7.5-1.9,18-4.6,28.8c-2.4,10-5,20.5-5.1,28.9
	c-0.1,9.2,1.6,11,6.5,16c0.7,0.8,1.5,1.6,2.3,2.4C383.5,313,383.5,315.1,382.2,316.4z M316,300.6c-3.5-5.6-17.6,10-17.9,10.5
	C298.1,311.1,319.4,306.1,316,300.6z M300.5,316.9c0,0,29.8,7.6,29.2-1.5C329,306.1,301.1,316.5,300.5,316.9z M283.3,237.4
	c0.4,2.6,0.6,4.7,0.6,6.3v30.8c0,2,0.8,3.3,2.3,4h1.7c0.8-3.4,1.1-5.9,1.1-7.4v-20.5h0.6c5.3,8.3,8,12.8,8,13.7v11.4
	c0,2.9,0.7,4.6,2.3,5.1h1.1c0.6,0,1.1-0.8,1.7-2.3l-0.6-1.1c0.4-4.2,0.6-7.8,0.6-10.9v-3.4c0-6.9,0.2-15.7,0.6-26.2
	c-0.3-1.1-1-1.9-2.3-2.3c-1.5,0-2.5,0.8-2.9,2.3l0.6,2.8c-0.4,6.3-0.6,11-0.6,14.3v0.6h-0.6l-1.1-0.6c-5.1-12.6-8.9-18.8-11.4-18.8
	L283.3,237.4z M279.1,299.3c-1.1,0-2,0.3-2.5,0.8c-0.5,0.6-0.8,1.3-0.9,2.1c-0.1,0.9-0.2,1.8-0.2,2.7l0.4,27.7c0,1,0.1,1.9,0.3,2.7
	l0.1,0.4c0.4,1.7,1.5,2.6,3.4,2.6c2.6,0,3.9-1.8,3.9-5.5l-0.2-8.7c-0.1-6.1,0.6-11.1,2.1-14.9c1.5-3.8,3.2-5.7,5.1-5.7
	c0.6,0,1.1,0.2,1.5,0.6c0.5,0.5,1.1,0.8,1.6,0.8c0.7,0,1.3-0.3,1.8-0.9c0.5-0.6,0.7-1.3,0.7-2.1c0-0.2,0-0.3,0-0.5
	c-0.1-0.6-0.6-1.1-1.3-1.5c-0.9-0.5-2-0.7-3.2-0.7c-3.2,0-5.8,1.8-7.9,5.5c-0.2,0.4-0.4,0.7-0.5,0.7c0,0-0.1-0.1-0.1-0.2
	c0-0.1,0-0.3-0.1-0.5c0-0.8-0.1-1.5-0.2-2.2C282.5,300.4,281.2,299.3,279.1,299.3z M265,271.4c0,5.5,3.3,8.6,9.9,9.3
	c0.7,0,2.8-0.4,6.4-1.1v-1.8c0-0.9-1.4-1.6-4.1-2.3c0,0.4-0.2,0.6-0.6,0.6h-3.5c-1.1-0.6-1.7-1.2-1.7-1.7v-9.9h2.9l4.1-1.1v-1.2
	l-0.6-1.1c-3.9-0.4-5.8-1-5.8-1.7v-21c6.2-1.8,9.3-3,9.3-3.5v-0.6c0-0.9-1.4-1.6-4.1-2.3l-9.3,2.3C266,234.1,265,246.6,265,271.4z
	 M268.2,391.2v-44.3c0-0.6,0.3-0.9,1-1c1.1,0,1.9-0.2,2.4-0.4c0.8-0.4,1.3-1.1,1.3-2c0-1.1-1-1.7-2.9-1.7h-12.2
	c-1.9,0-2.9,0.6-2.9,1.7c0,0.9,0.4,1.6,1.3,2c0.4,0.2,1.1,0.3,2.2,0.4c0.8,0,1.1,0.5,1.1,1.3v43.8c0,0.4-0.1,0.7-0.4,0.9
	c-0.3,0.2-0.7,0.3-1.4,0.3c-1.9,0-2.9,0.8-2.9,2.4c0,1.2,0.9,1.9,2.7,1.9h12.1c1.9,0,2.9-0.6,2.9-1.7c0-0.9-0.4-1.6-1.2-2
	c-0.4-0.2-1.1-0.4-2.2-0.4C268.5,392.1,268.2,391.8,268.2,391.2z M247.7,357.4c0,1.9-0.1,3.5-0.3,4.9c-0.2,1.1-0.3,2.1-0.3,3
	c0,1.1,0.2,1.9,0.6,2.4c0.4,0.5,1,0.7,1.8,0.7c1.2,0,2.1-1.1,2.6-3.2c0.3-1.4,0.5-3.6,0.5-6.8c0-4.9-0.8-8.9-2.5-11.9
	c-2-3.6-5.3-5.4-9.9-5.4c-3.1,0-5.7,0.6-7.7,1.9c-6.3,3.8-9.4,12.3-9.4,25.7c0,9.9,1.7,17.3,5,22.3c2.7,4,6.5,6,11.4,6
	c3.8,0,6.8-1.4,9.2-4.3c2.4-2.9,3.6-5.9,3.6-9.1c0-0.7-0.2-1.2-0.6-1.5c-0.4-0.4-0.8-0.5-1.4-0.5c-1.2,0-2,0.7-2.3,2.2
	c-1.2,5.2-3.7,7.8-7.5,7.8c-2.6,0-4.7-2.1-6.1-6.4c-1.5-4.6-2.3-10.7-2.3-18c0-3.6,0.3-6.9,0.8-9.9c1.3-7.3,4.2-11,8.6-11
	c2.2,0,3.9,1.4,5,4.2C247.4,352.3,247.7,354.6,247.7,357.4z M200.6,242.7v13.7c0,4.4-0.2,10.2-0.6,17.2c1,4.8,2.2,7.1,3.6,7.1h1.2
	c1.2-0.3,1.8-1.8,1.8-4.7v-32.1c0-0.9,0.2-1.7,0.6-2.4c5.6-1.7,8.3-3.1,8.3-4.2c-1-1.6-2.9-2.4-5.9-2.4c-12.7,0-19,0.8-19,2.4v1.8
	C197.2,240.9,200.6,242.1,200.6,242.7z M187.9,300.7c-1.5,0.9-2.6,2.2-3.4,3.9c-0.7,1.7-1.1,3.6-1.1,5.8c0,1.1,0.1,2.2,0.4,3.2
	c0.2,0.9,0.5,1.7,0.9,2.5c0.8,1.7,1.8,3.2,2.9,4.5c1.1,1.4,2.3,2.6,3.4,3.7c1.2,1.2,2.2,2.2,2.9,3.2c0.7,0.9,1.2,1.7,1.3,2.5
	c0.1,0.3,0.1,0.6,0.1,0.9c0,0.9-0.2,1.7-0.5,2.2c-0.4,0.5-1,0.8-2,0.8c-0.8,0-1.5-0.3-1.9-0.8c-0.5-0.5-0.7-1-0.8-1.4
	c-0.1-0.4-0.2-0.7-0.2-0.8c-0.1-0.6-0.2-1.2-0.2-1.8c0-0.3,0-0.5-0.1-0.7c-0.1-0.3-0.2-0.6-0.4-0.8c-0.3-0.4-0.7-0.6-1.4-0.6
	c-1.6,0-2.3,0.9-2.3,2.7c0,1,0.1,1.9,0.3,2.7c0.4,1.8,1.3,3.3,2.6,4.3c1.3,1,2.9,1.6,4.9,1.6c3.2,0,5.7-1.1,7.3-3.4
	c1-1.4,1.5-2.9,1.4-4.6c0-0.6-0.1-1.2-0.2-1.8c-0.4-1.7-1.3-3.4-2.7-5.1c-0.9-1-1.8-2-2.7-2.9c-1-1-1.9-2-2.8-3.1
	c-1.5-1.8-2.5-3.6-2.9-5.5c-0.2-0.7-0.2-1.3-0.2-2c0-1,0.1-2.1,0.3-3.1c0.2-1,0.6-1.9,1.3-2.6c0.6-0.7,1.6-1,2.9-1
	c1.2,0,2,0.5,2.5,1.5c0.5,1,0.9,1.9,1.1,2.7c0.2,0.9,0.3,2,0.3,3.2c0,1,0,2-0.2,3c-0.1,1-0.2,1.8-0.2,2.4c0,0.3,0,0.6,0.1,0.9
	c0.2,1,0.9,1.6,1.9,1.6c1.6,0,2.4-2,2.4-6l0-1.2c0-1.7-0.2-3.3-0.5-4.7c-0.3-1.3-0.8-2.5-1.3-3.6c-1.5-2.6-3.9-3.9-7.2-3.9
	C191.3,299.3,189.4,299.8,187.9,300.7z M185,390.7c0,2.5,0.3,4.2,1,5c0.7,0.8,1.7,1.3,3.2,1.3c3,0,4.6-2,4.6-6v-20.4
	c0-1.1,0.1-1.7,0.4-1.7c0.3,0,1.7,2.1,4.1,6.3c4.7,8.1,8.2,14.1,10.7,18c1.1,1.8,2.4,2.7,4,2.7c2.1,0,3.1-1.2,3.1-3.5v-46.7
	c0-3.1-1-4.6-3.1-4.6c-1,0-1.7,0.4-2.1,1.2c-0.4,0.8-0.6,1.9-0.6,3.4v35.7c0,1-0.1,1.5-0.4,1.5c-0.3,0-0.7-0.4-1.2-1.3l-8.6-14.1
	c-4.5-7.4-6.8-14.2-6.8-20.5c0-1.9-0.4-3.4-1.2-4.4c-0.8-1-1.8-1.5-3-1.5c-1.5,0-2.6,0.4-3.2,1.3c-0.7,0.9-1,2.5-1,4.9V390.7z
	 M217.1,213.1c0-0.7,1-1.1,3.1-1.3h4.4c0.3,9.1,1.6,13.7,3.7,13.7h0.6c0.8,0,1.6-1.2,2.5-3.7c-0.8-2.8-1.2-7.1-1.2-13.1
	c0-20.3-1.7-30.4-5-30.4l-2.5,1.3c0.9,4.9,1.3,11.1,1.3,18.6v7.4c-0.6,1.3-1.3,1.9-1.9,1.9H219l-1.3-0.6
	c-0.9-17.8-2.4-26.7-4.3-26.7h-1.9l-1.9,1.3l1.3,21.1c-0.4,6.2-0.6,12.6-0.6,19.3c0,2.3,1,3.8,3.1,4.3
	C215.9,226.2,217.1,221.9,217.1,213.1z M219.9,165.2c-0.2,0.5-1.4-0.3-1.8-0.4c-1.5-0.6-3-1-4.5-1.7c-2.7-1.2-5.3-2.4-8.2-2.9
	c-4.4-0.8-14.7-2.8-16.8,3c-2.1,5.7,3.9,4,6.7,2.9c4.1-1.7,9-1.3,13.3-0.8c2.8,0.4,5.9,0.5,8.6,1.5c1.9,0.7,3.4,2.2,5.5,2.2
	c0.4,0,0.8,0,1.2-0.1c0.4-0.1,0.8-0.4,1.2-0.6c0.9-0.5,1.8-1.1,2.8-1.4c2.7-1,5.7-1.1,8.6-1.5c4.4-0.6,9.2-0.9,13.3,0.8
	c2.8,1.1,8.8,2.8,6.7-2.9c-2.1-5.8-12.4-3.7-16.8-3c-2.9,0.5-5.6,1.7-8.2,2.9c-1.3,0.6-2.8,1-4.2,1.6c-0.4,0.2-1.6,0.9-1.9,0.5
	c-0.3-0.3,0.2-0.8,0.4-1.1c0.5-0.6,1-1.2,1.6-1.8c1.2-1.1,2.6-2,4.1-2.8c1.2-0.6,2.5-1.1,3.7-1.7c1.1-0.5,2-1.2,3.2-1.6
	c1.3-0.5,5.3-2.5,3.1-4.3c-0.7-0.6-2.3-0.6-3.2-0.5c-3.2,0.4-5.2,2.4-7.5,4.6c-2.1,2-4.1,4.1-5.8,6.5c-0.4,0.6-0.8,1.2-1.1,1.8
	c-0.3,0.5-0.4,1.3-1.1,1.4c-0.9,0.2-1.3-1.1-1.6-1.7c-0.6-1-1.2-1.9-1.9-2.8c-0.9-1.1-1.8-2.2-2.8-3.2c-0.9-1-1.6-2.2-2.6-3.2
	c-1-1.1-2.4-2-3.7-2.6c-1.3-0.6-2.8-1.2-4.3-1c-1.4,0.2-2.7,1.4-2,2.9c0.5,1.3,2.6,1.7,3.8,2.2c2.2,0.8,4,2.1,6.1,3.2
	c1.4,0.7,2.8,1.6,4,2.7c0.6,0.5,1.1,1.1,1.6,1.8C219.5,164.3,220.1,164.9,219.9,165.2z M221.1,138.9c-0.4,0.8,0.9,2,1.7,1.6
	c0.5-0.3,0.6-1.4,0.4-1.9c-0.1-0.4-0.4-0.5-0.8-0.5C221.9,138.1,221.3,138.5,221.1,138.9z M221.6,136.3c0.2,0.2,0.3,0.3,0.5,0.3
	c0.9,0.2,1.4-1.3,0.5-1.6C221.8,134.6,220.9,135.6,221.6,136.3z M220.7,143.2c-0.6,1.1-0.1,2.6,1.2,2.8c1.3,0.3,2.4-1.1,2-2.4
	c-0.3-1-1.2-1.4-2.1-1.3C221.4,142.5,221,142.8,220.7,143.2z M219.7,151.5c-0.3,2.9,0.7,5.2,1.4,7.7c0.2,0.7,0.7,3.3,1.2,3.6
	c0,0,0.1,0,0.1,0c1,0.3,1.1-2.8,1.3-3.6c0.5-2.5,1.1-4.3,1-7c-0.1-2.1-0.7-3.8-2.2-4.2C221.1,147.8,220,149.2,219.7,151.5z
	 M253.1,252.8v7.4c-0.6,1.3-1.3,1.9-1.9,1.9h-3.1l-1.3-0.6c-0.9-17.8-2.4-26.7-4.3-26.7h-1.9l-1.9,1.3l1.3,21.1
	c-0.4,6.2-0.6,12.6-0.6,19.3c0,2.3,1,3.8,3.1,4.3c2.5,0,3.7-4.3,3.7-13c0-0.7,1-1.1,3.1-1.3h4.4c0.3,9.1,1.6,13.7,3.7,13.7h0.6
	c0.8,0,1.6-1.2,2.5-3.7c-0.8-2.8-1.2-7.1-1.2-13.1c0-20.3-1.7-30.4-5-30.4l-2.5,1.3C252.7,239.1,253.1,245.3,253.1,252.8z
	 M240.9,226.4c1.6-1.2,2.4-2.4,2.4-3.7c0-27.8-1.4-41.7-4.3-41.7h-1.9c-0.6,0-1.2,0.8-1.8,2.5h0.6c0,6.1,0.2,13.3,0.6,21.4
	C236.6,219.2,238,226.4,240.9,226.4z M216.5,263.1c0,11.8,4.4,17.7,13.4,17.7c3.1,0,5.3-2.7,6.4-8c0-1.9-0.9-3.3-2.7-4.3h-0.6
	c-1.9,5-3.8,7.5-5.9,7.5h-1.6c-1.9,0-3.1-3.9-3.7-11.8c0-16.1,1.6-24.1,4.8-24.1h1.6c0.3,4.6,1.1,7,2.7,7c2.1,0,3.2-1.6,3.2-4.8
	v-0.5c0-2.9-2-4.7-5.9-5.4h-2.1c-6.4,0-9.6,7.7-9.6,23V263.1z M221.5,295l0.5,37.8c0,1,0.1,1.9,0.3,2.7l0.1,0.3
	c0.4,1.8,1.6,2.7,3.6,2.7c1.1,0,1.9-0.3,2.5-0.8c0.6-0.5,1-1.2,1.3-2c0.2-0.8,0.4-1.7,0.3-2.6l-0.1-6.5c0-0.9,0.5-1.4,1.5-1.4
	l6.7,0.1c0.8,0,1.4-0.2,1.8-0.6c0.4-0.4,0.7-0.8,0.6-1.3c0-0.2,0-0.5-0.1-0.7c-0.1-0.6-0.4-1-0.9-1.3c-0.6-0.3-1.4-0.5-2.5-0.5
	c-0.9,0-1.8,0-2.8,0.1c-0.9,0-1.8,0.1-2.8,0.1c-0.6,0-1-0.1-1.3-0.3c-0.2-0.2-0.4-0.5-0.5-0.9c-0.1-0.3-0.1-0.7-0.1-1.1l-0.3-23.2
	c0-1.7,0.7-2.6,2.3-2.6c0.8,0,1.8,0,2.8,0c1.1,0,2,0,2.8,0c1.2,0,2-0.2,2.6-0.7c0.6-0.5,0.8-1,0.8-1.5c0-0.2,0-0.4-0.1-0.6
	c-0.2-1-1.1-1.7-2.7-1.9c-0.7-0.1-1.4-0.1-2-0.1h-9.5c-2.6,0-4.1,1.1-4.7,3.2C221.6,292.3,221.5,293.5,221.5,295z M256.4,338.4
	c5.1,0,8.8-2,11.1-6c2.1-3.5,3.1-8.4,3-14.6c0-2.7-0.3-5.1-0.8-7.2c-0.4-1.8-1-3.4-1.7-4.8c-2.2-4.3-5.5-6.5-10.1-6.5
	c-5.2,0-9.1,2-11.7,6c-2.2,3.5-3.3,8.3-3.2,14.3c0,2.5,0.3,4.8,0.7,6.9c0.5,2.1,1.2,4,2.2,5.7C248.4,336.3,251.8,338.4,256.4,338.4z
	 M266.3,219.9c0-4.6-2.1-10-6.3-16.3c-4.2-4.3-6.3-9.4-6.3-15.3v-2.1c0.9-1.4,1.6-2.1,2.1-2.1h0.6c0.7,0,1,0.3,1,1v4.7
	c0,2.6,0.5,4,1.6,4.2h2.1c1.1,0,2-2.4,2.6-7.4c-1.5-4.9-4.2-7.4-7.9-7.4c-5.3,0-7.9,2.8-7.9,8.4c0,2.5,1,6.5,3.1,12.1
	c6.3,9.1,9.5,14.9,9.5,17.4v1.1c0,1.9-1,3.1-3.1,3.7c-0.6,0-1.6-1-3.1-3.1c-0.7-7.4-1.8-11.1-3.2-11.1h-1.6
	c-0.7,2.3-1.1,3.9-1.1,4.7c0,7.5,3,12.1,9,13.7C263.3,225.6,266.3,223.5,266.3,219.9z M186,113.6h79V55.3c0-10.9-4.4-20.7-11.6-27.9
	c-7.2-7.2-17-11.6-27.9-11.6h0c-10.9,0-20.7,4.4-27.9,11.6c-7.2,7.2-11.6,17-11.6,27.9V113.6z M180.9,178.2c7.7,2,11.6,3.4,11.6,4.1
	v15.8c0,5.1-0.2,11.7-0.7,19.8c1.2,5.5,2.6,8.2,4.1,8.2h1.4c1.4-0.3,2-2.1,2-5.5v-37c0-1,0.2-1.9,0.7-2.7c6.4-2,9.6-3.6,9.6-4.8
	c-1.1-1.8-3.4-2.7-6.9-2.7c-14.6,0-21.9,0.9-21.9,2.7V178.2z M180.3,238h0.6c0,6.1,0.2,13.3,0.6,21.4c0,14.3,1.4,21.5,4.3,21.5
	c1.6-1.2,2.4-2.4,2.4-3.7c0-27.8-1.4-41.7-4.3-41.7h-1.9C181.5,235.5,180.9,236.3,180.3,238z M168.8,288.2c-1.7,0-2.6,0.5-2.6,1.6
	c0,0.2,0,0.3,0,0.5c0.1,0.6,0.5,1.1,1.1,1.4c0.4,0.2,1.1,0.3,2,0.4c0.6,0,0.9,0.3,1,0.8c0,0.1,0,0.2,0,0.4l0.6,39.8
	c0,0.4-0.1,0.7-0.3,0.8c-0.2,0.2-0.6,0.3-1.2,0.3c-1.7,0-2.6,0.7-2.6,2.2c0,0.2,0,0.3,0.1,0.4c0.2,0.8,1,1.3,2.4,1.3h11
	c1.7,0,2.6-0.5,2.6-1.6c0-0.2,0-0.3,0-0.5c-0.1-0.6-0.5-1-1.1-1.4c-0.4-0.2-1-0.3-2-0.4c-0.4,0-0.7-0.2-0.8-0.6c0-0.1,0-0.2,0-0.3
	l-0.6-40.3c0-0.5,0.3-0.8,0.9-0.9c1.1,0,1.8-0.2,2.2-0.4c0.8-0.4,1.1-1,1.1-1.9c0-0.1,0-0.2,0-0.4c-0.2-0.8-1-1.2-2.6-1.2H168.8z
	 M155.4,231.1c0,6.5,0.7,15.6,2,27.3c0,15.1,1.5,22.7,4.5,22.7c1.3-1,2-1.6,2-2v-8.4c0-1.4,0.6-3.8,1.9-7.1h2
	c3.4,10.8,6,16.2,7.8,16.2l2.6-1.3c0-0.9-0.9-4.3-2.6-10.4c-3.9-6.6-5.8-10.3-5.8-11c3.4-9.2,6.3-18.3,8.4-27.3c0-0.7-0.9-1.3-2.6-2
	h-0.6c-1.6,1.4-5,9.9-10.4,25.3c-0.9,0-1.3-1.9-1.3-5.8c-0.6-12.6-2.6-18.8-5.8-18.8c-1.3,0.9-2,1.6-2,1.9V231.1z M161.7,311.1
	c-0.3-0.5-14.4-16.2-17.9-10.5C140.5,306.1,161.7,311.1,161.7,311.1z M130.2,315.4c-0.6,9.2,29.2,1.5,29.2,1.5
	C158.7,316.5,130.9,306.1,130.2,315.4z M115.8,315.2c1.4,0.7,3.1,0.1,3.7-1.3l10.7-22.8c0.4-0.9,0.3-2-0.2-2.7l8.6-18.4l4.7,2.2
	c0.9,0.4,1.9,0,2.3-0.8l8.4-17.8c0.4-0.8,0-1.8-0.8-2.2l-9.6-4.5c-2.3-1.1-5-0.1-6,2.2l-7.2,15.3c-0.4,0.8,0,1.8,0.8,2.2l4.8,2.3
	l-8.6,18.4c-0.9,0.1-1.8,0.7-2.2,1.6l-10.7,22.8C113.8,312.9,114.4,314.5,115.8,315.2z M144.7,370.3c0-12.4-3.5-20.9-10.6-25.6
	c-3.7-2.4-8.1-3.6-13.3-3.6c-3.5,0-5.3,2.1-5.3,6.2v43.4c0,4.2,1.8,6.3,5.3,6.3c5.4,0,10.1-1.4,14.1-4.3c2.9-2.1,5.2-4.8,6.9-8.2
	C143.7,380.5,144.7,375.8,144.7,370.3z M161.7,321.6c0,0-21.3,5-17.9,10.5C147.3,337.8,161.5,322.1,161.7,321.6z M160.6,382.3h10
	c1.3,0,2,0.6,2.1,1.7c0.4,3.3,0.8,6.5,1.1,9.6c0.3,2.2,1.2,3.4,2.9,3.4c1.4,0,2.3-0.6,2.8-1.8c0.3-0.7,0.4-1.8,0.4-3.1
	c0-1.1-0.1-2.5-0.4-4.2c-1.7-13.2-3.9-24.5-6.4-34c-1-3.6-2-6.3-3-8.2c-1.7-3-3.8-4.5-6.4-4.5c-3.2,0-5.7,2.7-7.4,8.2
	c-2.1,6.3-3.9,14.3-5.4,24c-0.9,5.7-1.6,10.2-2,13.5c-0.4,3.3-0.6,5.3-0.6,6c0,2.8,1.3,4.2,4,4.2c3.2,0,4.9-1.8,5.4-5.3
	c0.1-1.2,0.3-2.5,0.5-4c0.2-1.5,0.3-2.7,0.4-3.5C158.9,382.9,159.5,382.3,160.6,382.3z M209.2,413.9c-0.2-2-1.9-3.5-3.7-3.9
	c-2.7-0.5-5.4-0.4-8.1-0.4c-2.9,0-5.8,0-8.6,0c-3.7,0-7.4,0-11.1,0c-3.2,0-6.7,0.4-9.5-1.6c-1-0.7-2.3-1.4-3.1-2.3
	c0.1-0.2,0.3-0.3,0.5-0.3c0.7-0.1,1.4,0.1,2.1,0.1c1.5,0,3,0,4.5,0c3,0,5.9-0.2,8.9-0.2c5.2,0,10.4,0.2,15.6,0.1
	c0.3,0,4-0.2,2.8-1.1c-0.6-0.5-2.1-0.3-2.8-0.4c-2.1-0.1-4.1,0-6.2,0.1c-3.6,0-7.1,0.1-10.7,0.2c-3,0-6-0.1-9-0.2
	c-1.5,0-3,0-4.4,0.1c-1.3,0.1-2.7-0.3-4-0.1c-2.2,0.4,1.3,2.3,1.8,2.6c1.7,1.2,3.4,2.4,5.3,3.3c1.5,0.7,3.3,0.9,5,0.9
	c2.5-0.1,5,0.1,7.5,0.1c2.6,0,5.2-0.1,7.8-0.1c2.8,0,5.7,0,8.5,0c1.3,0,2.6,0,3.9,0c1.3,0,2.7,0,3.9,0.5c0.9,0.4,2.1,1.3,2.3,2.4
	c0.2,1.1,0,2.3-0.8,3.1c-0.5,0.5-1.3,0.8-2.1,0.9c-0.8,0-1.5-0.3-2.2-0.5c-1.1-0.4-2.5-2.4-1.2-3.4c0.8-0.6,1.2,0.3,1.5,0.9
	c0.3,0.6,1.3,0.3,1.2-0.3c-0.1-2.6-3.6-3.1-4.4-0.6c-1,2.7,1.6,5.3,4.3,5.1C207.3,418.7,209.5,416.5,209.2,413.9z M236.9,408.8
	c1.3-0.8,2.5-1.7,3.9-2.4c0.9-0.4,1.8-0.8,2.7-1c0.3-0.1,1.6-0.1,1-0.8c-0.8-1-2.7-0.5-3.8-0.4c-1.7,0.2-3.4,0-5.1,0
	c-2.3,0-5.2-0.5-7.4,0.1c0,0,0,0,0,0c0,0,0,0,0,0c-0.1,0-0.1,0.1-0.1,0.1c-0.5,0.1-1.1,0.3-1.4,0.6c-0.5,0.3-0.9,0.7-1.3,1.1
	c-0.4,0.4-0.8,0.5-1.3,0.6c-0.6-0.2-1-0.4-1.5-0.8c-0.4-0.4-0.9-0.8-1.4-1.1c-0.3-0.2-0.7-0.3-1.1-0.4c0,0-0.1-0.1-0.2-0.1
	c0,0,0,0,0,0c0,0,0,0,0,0c-2.2-0.6-5.1-0.1-7.4-0.1c-1.7,0-3.4,0.1-5-0.1c-1-0.1-3.1-0.5-3.9,0.5c-0.5,0.7,0.8,0.7,1.1,0.8
	c0.7,0.2,1.4,0.5,2.1,0.8c3.1,1.8,6.4,3.6,9,6.1c0.9,0.8,1.4,1.8,2.4,2.5c2.4,1.9,4.4,3.2,7.5,2.6c2.6-0.5,4.7-2.3,6.5-4.1
	c0.3-0.3,0.8-0.5,1.1-0.9c0.2-0.3,0.2-0.6,0.4-0.8C234.2,410.3,235.6,409.5,236.9,408.8z M286.1,404.4c-0.5-0.3-1.2,0-1.6,0
	c-0.8,0-1.6-0.1-2.4-0.2c-1.7-0.1-3.4-0.1-5.1-0.1c-3.4,0-6.7,0.2-10.1,0.2c-3.3,0-6.7-0.1-10-0.1c-1.7,0-3.3,0-5,0
	c-0.5,0-4.1-0.3-3.6,0.9c0.3,0.7,2.3,0.5,2.9,0.5c1.9,0,3.8,0.1,5.6,0c3.8,0,7.5-0.1,11.3-0.2c5.1,0,10.5,0.4,15.7-0.1
	c-1.4,0.8-2.6,1.8-4,2.7c-2,1.2-4.1,1.5-6.4,1.8c-2.5,0.3-4.8-0.3-7.3-0.3c-2.7,0-5.3,0.1-8,0.1c-2.4,0-4.8,0-7.2,0
	c-1.2,0-2.4,0-3.6,0c-1.1,0-2.2-0.1-3.3,0c-1.3,0.2-2.4,0.4-3.5,1.2c-1,0.7-1.6,1.8-1.8,3c-0.2,2.5,1.9,5,4.5,5
	c2.7,0,5.3-2.3,4.3-5.1c-0.9-2.4-4.3-1.9-4.4,0.6c0,0.6,1,0.9,1.2,0.3c0.3-0.6,1.1-1.8,1.7-0.7c0.5,1,0,2.2-0.7,3
	c-0.3,0.3-0.8,0.5-1.2,0.6c-0.8,0.2-1.8,0.2-2.6,0c-1.4-0.4-2.3-2.1-1.9-3.5c0.3-1.2,1-2.3,2.1-2.8c0.6-0.3,1.1-0.5,1.8-0.6
	c0.7,0,1.3,0,2,0c1.5,0,3.1,0,4.6,0c3.1,0,6.2,0,9.2,0c3.5,0,7,0,10.5,0c3.1,0,6.5,0.4,9.2-1.1c1.6-0.9,3.1-1.9,4.6-3
	C283.8,406.6,287,404.9,286.1,404.4z M309.2,345.7c0-3.1-1-4.6-3.1-4.6c-1,0-1.7,0.4-2.1,1.2c-0.4,0.8-0.6,1.9-0.6,3.4v35.7
	c0,1-0.1,1.5-0.4,1.5s-0.7-0.4-1.2-1.3l-8.6-14.1c-4.5-7.4-6.8-14.2-6.8-20.5c0-1.9-0.4-3.4-1.2-4.4c-0.8-1-1.8-1.5-3-1.5
	c-1.5,0-2.6,0.4-3.2,1.3c-0.7,0.9-1,2.5-1,4.9v43.4c0,2.5,0.3,4.2,1,5c0.7,0.8,1.7,1.3,3.2,1.3c3,0,4.6-2,4.6-6v-20.4
	c0-1.1,0.1-1.7,0.4-1.7c0.3,0,1.7,2.1,4.1,6.3c4.7,8.1,8.2,14.1,10.7,18c1.1,1.8,2.4,2.7,4,2.7c2.1,0,3.1-1.2,3.1-3.5V345.7z
	 M316,332.2c3.4-5.5-17.9-10.5-17.9-10.5C298.4,322.1,312.5,337.8,316,332.2z M340.9,357.4c0,1.9-0.1,3.5-0.3,4.9
	c-0.2,1.1-0.3,2.1-0.3,3c0,1.2,0.2,2,0.7,2.5c0.4,0.4,0.9,0.6,1.7,0.6c1,0,1.8-0.9,2.3-2.7c0.5-1.8,0.8-4.2,0.8-7.3
	c0-4.9-0.8-8.9-2.5-11.9c-2-3.6-5.3-5.4-9.9-5.4c-3.1,0-5.7,0.6-7.7,1.9c-6.3,3.8-9.4,12.3-9.4,25.7c0,9.9,1.7,17.3,5,22.3
	c2.7,4,6.5,6,11.4,6c2.4,0,4.5-0.6,6.5-1.9c1.9-1.3,3.5-3,4.6-5c1.1-2,1.7-4.2,1.7-6.5c0-2.7-0.8-4.4-2.4-5.1
	c-1.2-0.6-3.8-0.8-7.7-0.8c-1.2,0-2.2,0.2-2.8,0.6c-0.6,0.4-1,1.1-1,2.1c0,0.6,0.2,1.1,0.7,1.7s1.2,0.8,2,0.8l1.7,0
	c1.1,0,2.2-0.1,3.3-0.1c1.1,0,1.6,0.4,1.6,1.3c0,1.2-0.3,2.4-1,3.6c-0.7,1.1-1.5,2.1-2.6,2.8c-1.1,0.7-2.3,1.1-3.6,1.1
	c-2.6,0-4.7-2.1-6.1-6.4c-1.5-4.6-2.3-10.7-2.3-18c0-7.1,0.9-12.4,2.8-16.1c1.6-3.2,3.8-4.7,6.7-4.7c2.4,0,4.2,1.6,5.2,4.9
	C340.6,352.8,340.9,354.9,340.9,357.4z M340.8,301.1l1.1-0.5c0.3-0.1,0.4-0.4,0.3-0.6l-0.5-1.1l2.1-1.1c0.3-0.1,0.4-0.4,0.3-0.6
	l-22.4-44c-0.1-0.2-0.4-0.3-0.7-0.1l-2.1,1.1l-0.5-1c-0.1-0.2-0.4-0.3-0.7-0.1l-1.5,0.8c-0.4-3.3-0.7-11-5.2-8.8
	c-4.6,2.3,0.8,7.4,3.2,9.8l-1.1,0.5c-0.3,0.1-0.4,0.4-0.3,0.6l0.5,1l-2.1,1.1c-0.3,0.1-0.4,0.4-0.3,0.6l22.4,44
	c0.1,0.2,0.4,0.3,0.7,0.1l2.1-1.1l0.6,1.1c0.1,0.2,0.4,0.3,0.7,0.1l1.5-0.8c0.4,3.3,0.7,11,5.2,8.8
	C348.6,308.5,343.2,303.5,340.8,301.1z"/>
</svg>
