<?xml version="1.0" encoding="utf-8"?>
<!-- Generator: Adobe Illustrator 18.0.0, SVG Export Plug-In . SVG Version: 6.00 Build 0)  -->
<!DOCTYPE svg PUBLIC "-//W3C//DTD SVG 1.1//EN" "http://www.w3.org/Graphics/SVG/1.1/DTD/svg11.dtd">
<svg version="1.1" id="Layer_1" xmlns="http://www.w3.org/2000/svg" xmlns:xlink="http://www.w3.org/1999/xlink" x="0px" y="0px"
	 viewBox="0 0 432 432" enable-background="new 0 0 432 432" xml:space="preserve">
<path fill="#333333" d="M51.8,133.4c-0.2-1.1-0.3-2.2-0.3-3.3V79.7c0-5.8,1.9-8.7,5.8-8.7c3.6,0,6.1,2.2,7.6,6.7
	c2.7,8.2,5,15.1,6.8,20.7c1.2,3.7,2.3,7.2,3.4,10.6c4.2-10.8,8-21.6,11.3-32.5c0.6-2,1.5-3.4,2.5-4.2c1.1-0.8,2.1-1.2,3.2-1.2
	c2.3,0,4,1,5,3.1c0.7,1.5,1,3.4,1,5.6v51.9c0,3.6-1.2,5.4-3.6,5.4c-1.2,0-2-0.5-2.5-1.4c-0.4-0.9-0.7-2.3-0.7-4
	c0-14.8,0.1-25.9,0.4-33.5c0.1-3.8,0.2-6.7,0.2-8.6c0-0.8-0.1-1.3-0.4-1.3c-0.3,0-0.6,0.7-1,2c-3.1,10.5-6.9,20.9-11.4,31.4
	c-0.7,1.6-1.7,2.4-2.9,2.4c-1.4,0-2.4-0.8-3.1-2.5c-3-7.4-6.7-18.4-11.1-33c-0.5-1.5-0.8-2.3-1-2.3c-0.1,0-0.2,0.4-0.2,1.3
	c0,1,0,1.8,0.1,2.5c0.1,0.7,0.1,2.1,0.2,4.3c0.5,10.9,0.7,22.9,0.7,36c0,2.2-0.5,3.8-1.4,5c-0.9,1.1-2.3,1.7-4,1.7
	C53.7,137.1,52.2,135.8,51.8,133.4z M104.5,132.1c0-0.8,0.3-3.2,0.8-7.1c0.5-3.9,1.3-9.3,2.4-16c1.8-11.4,3.9-20.8,6.4-28.3
	c2.1-6.4,5-9.7,8.8-9.7c3.1,0,5.6,1.8,7.5,5.3c1.2,2.3,2.4,5.5,3.5,9.7c3,11.2,5.6,24.6,7.6,40.2c0.3,2,0.4,3.7,0.4,5
	c0,1.6-0.2,2.8-0.5,3.6c-0.6,1.4-1.7,2.2-3.3,2.2c-2,0-3.1-1.3-3.4-4c-0.4-3.7-0.8-7.5-1.4-11.3c-0.2-1.4-1-2-2.5-2H119
	c-1.3,0-2.1,0.7-2.3,2.2c-0.1,0.9-0.3,2.3-0.5,4.1c-0.2,1.8-0.4,3.4-0.6,4.8c-0.5,4.2-2.6,6.3-6.3,6.3
	C106.1,137.1,104.5,135.4,104.5,132.1z M118.2,112.7c0,1.1,0.6,1.6,1.8,1.6h10.2c1.2,0,1.8-0.6,1.8-1.7c0-0.3-0.4-3.2-1.3-8.8
	c-2.3-14.9-4.2-22.4-5.6-22.4c-1,0-2.7,7.4-5.3,22.2C118.7,109.4,118.2,112.4,118.2,112.7z M147,105.6c1.4,3.7,2.9,6.7,4.4,8.9
	c0.9,1.3,1.4,2.9,1.4,4.8v10.3c0,1.2,0.1,2.4,0.3,3.6c0.2,1.1,0.6,2.1,1.3,2.8c0.7,0.7,1.8,1.1,3.4,1.1c3.6,0,5.4-2.4,5.4-7.1v-11
	c0-2,0.5-3.8,1.4-5.6c3.2-6,5.8-12.2,7.6-18.5c2.1-7.2,3.2-13.3,3.2-18.1c0-0.9-0.1-1.8-0.3-2.7c-0.2-0.9-0.5-1.6-1.1-2.2
	c-0.5-0.6-1.4-0.8-2.5-0.8c-1.4,0-2.4,0.7-2.9,2.1c-0.2,0.6-0.4,1.2-0.4,1.9c-0.5,7.8-1.7,15.7-3.9,23.7c-1,3.6-2.1,7-3.5,10
	c-0.3,0.7-0.7,1.1-1.1,1.1c-0.9,0-2.2-2.7-3.8-8.2c-1.3-4.4-2.4-8.8-3.3-13.4c-0.9-4.6-1.5-7.9-1.8-10.1c-0.3-2.9-1-4.9-2.2-6
	c-0.7-0.7-1.8-1-3.2-1c-1.6,0-2.7,0.4-3.4,1.1c-0.7,0.7-1.1,1.6-1.3,2.8c-0.2,1.1-0.3,2.3-0.3,3.5c0,2.6,0.6,6.5,1.8,11.8
	C143.6,95.5,145.2,100.6,147,105.6z M219.3,110.6c-0.8,0.8-1.3,1.5-1.3,2c0,0.5,0.6,0.8,1.7,1.1c2.4,0.7,4.4,1.6,6,2.8
	c2.6,2,3.9,4.4,3.9,7.3c0,3.6-2.1,6.7-6.4,9.3c-4.3,2.6-10,3.9-17.2,3.9c-5.4,0-8.1-2.9-8.1-8.7V78.4c0-4.9,2.6-7.4,7.8-7.4
	c5.4,0,10.2,1.4,14.3,4.3c4.8,3.3,7.3,8.4,7.3,15.2C227.2,98.8,224.6,105.5,219.3,110.6z M210.9,118.2c-1.8,0-2.6,0.7-2.6,2v8
	c0,1.4,0.7,2.1,2.2,2.1c4,0,7.1-0.6,9.1-1.8c2-1.2,3-2.8,3-4.6c0-1.8-1-3.2-3.1-4.2C217.2,118.7,214.4,118.2,210.9,118.2z
	 M220.1,90.9c0-2.4-0.4-4.6-1.1-6.6c-1.1-2.9-2.9-4.9-5.3-5.9c-1.2-0.5-2.5-0.7-4-0.7c-1,0-1.4,0.5-1.4,1.4v32.3
	c0,0.6,0.3,0.8,1,0.8c1,0,2.2-0.8,3.7-2.4c1.5-1.6,3-3.9,4.4-6.8C219.2,99.2,220.1,95.1,220.1,90.9z M235.4,75.9
	c-0.4,1.3-0.6,2.9-0.6,4.7v35.6c0,2.7,0.1,5.4,0.3,7.8c0.5,5.5,2.7,9.3,6.5,11.4c2.1,1.1,5.1,1.7,9,1.7c4.4,0,7.5-0.4,9.3-1.2
	c1.8-0.8,2.7-1.9,2.7-3.2c0-0.7-0.3-1.2-0.8-1.6c-0.6-0.3-1.2-0.5-1.9-0.5c-1.1,0-2.2,0.1-3.3,0.1c-1.1,0.1-2.2,0.1-3.3,0.1
	c-3.5,0-5.8-0.9-7-2.6c-0.8-1.1-1.1-2.7-1.1-4.8v-1.9c0-1.2,0.7-1.8,2-1.8l8.8,0.1c1,0,1.8-0.2,2.4-0.7c0.6-0.5,0.8-1.1,0.8-1.7
	c0-1.2-0.4-2-1.3-2.5c-0.7-0.4-1.8-0.6-3.2-0.6c-1.2,0-2.4,0-3.6,0.1c-1.2,0.1-2.4,0.1-3.6,0.1c-0.8,0-1.4-0.2-1.8-0.6
	c-0.4-0.4-0.6-1.2-0.6-2.5V81.2c0-2.3,1-3.4,3-3.4c1.1,0,2.2,0,3.2,0.1c1.1,0,2.2,0.1,3.2,0.1c1.5,0,2.6-0.3,3.3-0.9
	c0.7-0.6,1.1-1.3,1.1-1.9c0-1.8-1.2-2.9-3.5-3.2c-1-0.1-1.8-0.2-2.6-0.2h-11.4C238.3,71.8,236.2,73.1,235.4,75.9z M279.9,77
	c0.7,0.6,1.8,0.8,3.2,0.8h4.6c0.6,0,1,0.3,1,1v50.8c0,2.1,0.2,3.6,0.5,4.6c0.2,0.7,0.6,1.3,1.1,1.7c0.7,0.7,1.8,1.1,3.4,1.1
	c3.6,0,5.4-2.4,5.4-7.1V78.8c0-0.7,0.3-1,1-1h4.6c1.4,0,2.4-0.3,3.2-0.8c0.7-0.6,1.1-1.2,1.1-1.9c0-1-0.3-1.8-1-2.3
	c-0.7-0.5-1.5-0.8-2.5-0.9c-1-0.1-1.8-0.2-2.6-0.2h-17.7c-0.8,0-1.7,0.1-2.6,0.2c-1,0.1-1.8,0.4-2.5,0.9c-0.7,0.5-1,1.2-1,2.3
	C278.8,75.8,279.1,76.4,279.9,77z M313.5,136c0.7,0.7,1.8,1.1,3.3,1.1c2.1,0,3.6-0.8,4.5-2.5c0.6-1.2,0.9-2.7,0.9-4.5v-8.7
	c0-1,0.6-1.4,1.7-1.4l13.3,0c1.2,0,1.8,0.5,1.8,1.5v10.4c0,1.7,0.2,3.1,0.7,4c0.4,0.9,1.3,1.4,2.5,1.4c2.4,0,3.6-1.8,3.6-5.4V76.5
	c0-3.6-1.2-5.4-3.6-5.4c-1.2,0-2,0.5-2.5,1.4c-0.4,0.9-0.7,2.3-0.7,4v35.8c0,1.2-0.6,1.9-1.8,1.9l-13.3,0c-1.2,0-1.7-0.6-1.7-1.9
	V78.1c0-2.2-0.4-3.9-1.3-5.2c-0.9-1.3-2.2-1.9-4.1-1.9c-2.7,0-4.3,1.3-4.7,3.9c-0.2,1.1-0.3,2.3-0.3,3.5v51.2c0,1.8,0.1,3.3,0.4,4.3
	C312.5,134.7,312.9,135.4,313.5,136z M364.2,135.4c2.1,1.1,5.1,1.7,9,1.7c4.4,0,7.5-0.4,9.3-1.2c1.8-0.8,2.7-1.9,2.7-3.2
	c0-0.7-0.3-1.2-0.8-1.6c-0.6-0.3-1.2-0.5-1.9-0.5c-1.1,0-2.2,0.1-3.3,0.1c-1.1,0.1-2.2,0.1-3.3,0.1c-3.5,0-5.8-0.9-7-2.6
	c-0.8-1.1-1.1-2.7-1.1-4.8v-1.9c0-1.2,0.7-1.8,2-1.8l8.8,0.1c1,0,1.8-0.2,2.4-0.7c0.6-0.5,0.8-1.1,0.8-1.7c0-1.2-0.4-2-1.3-2.5
	c-0.7-0.4-1.8-0.6-3.2-0.6c-1.2,0-2.4,0-3.6,0.1c-1.2,0.1-2.4,0.1-3.6,0.1c-0.8,0-1.4-0.2-1.8-0.6c-0.4-0.4-0.6-1.2-0.6-2.5V81.2
	c0-2.3,1-3.4,3-3.4c1.1,0,2.2,0,3.2,0.1c1.1,0,2.2,0.1,3.2,0.1c1.5,0,2.6-0.3,3.3-0.9c0.7-0.6,1.1-1.3,1.1-1.9
	c0-1.8-1.2-2.9-3.5-3.2c-1-0.1-1.8-0.2-2.6-0.2H364c-3.3,0-5.4,1.4-6.2,4.1c-0.4,1.3-0.6,2.9-0.6,4.7v35.6c0,2.7,0.1,5.4,0.3,7.8
	C358.2,129.5,360.3,133.3,364.2,135.4z M98.3,350.7c0.2,0.7,0.6,1.3,1.1,1.9c0.7,0.8,1.9,1.2,3.6,1.2c3.8,0,5.7-2.5,5.7-7.6v-54.6
	c0-0.7,0.4-1.1,1.1-1.1h4.9c1.5,0,2.6-0.3,3.4-0.9c0.8-0.6,1.2-1.3,1.2-2c0-1.1-0.4-1.9-1.1-2.4c-0.7-0.5-1.6-0.8-2.6-1
	c-1-0.1-2-0.2-2.8-0.2H93.8c-0.8,0-1.8,0.1-2.8,0.2c-1,0.1-1.9,0.4-2.6,1c-0.7,0.5-1.1,1.3-1.1,2.4c0,0.7,0.4,1.4,1.2,2
	c0.8,0.6,1.9,0.9,3.4,0.9h4.9c0.7,0,1,0.4,1,1.1v54.2C97.8,348.1,97.9,349.7,98.3,350.7z M152.2,353.8c-2.1,0-3.3-1.4-3.6-4.3
	c-0.4-3.9-0.9-8-1.4-12.1c-0.2-1.4-1.1-2.2-2.7-2.2h-12.6c-1.4,0-2.2,0.8-2.5,2.4c-0.2,1-0.3,2.5-0.6,4.4c-0.2,1.9-0.4,3.6-0.6,5.1
	c-0.5,4.5-2.8,6.7-6.7,6.7c-3.4,0-5.1-1.8-5.1-5.3c0-0.8,0.3-3.4,0.8-7.6c0.5-4.2,1.4-9.9,2.5-17c1.9-12.1,4.2-22.2,6.8-30.2
	c2.2-6.9,5.4-10.3,9.4-10.3c3.3,0,5.9,1.9,8,5.7c1.3,2.4,2.5,5.9,3.8,10.4c3.2,12,5.9,26.3,8.1,42.9c0.3,2.2,0.5,4,0.5,5.3
	c0,1.7-0.2,3-0.5,3.9C155.1,353,153.9,353.8,152.2,353.8z M145.7,327.6c0-0.3-0.5-3.4-1.4-9.4c-2.5-15.9-4.5-23.9-6-23.9
	c-1,0-2.9,7.9-5.7,23.7c-1.1,6.2-1.6,9.4-1.6,9.7c0,1.1,0.6,1.7,1.9,1.7h10.9C145.1,329.5,145.7,328.9,145.7,327.6z M187.5,347.4
	c-0.6-0.4-1.3-0.5-2-0.5c-1,0-1.9,0.1-2.7,0.2c-0.8,0.1-2.7,0.2-5.5,0.2c-2.2,0-3.3-1.4-3.3-4.3v-52c0-2.3-0.4-4.1-1.3-5.4
	c-1-1.4-2.4-2.1-4.4-2.1c-2.1,0-3.5,0.7-4.3,2.1c-0.6,1.1-1,3-1,5.8v49.3c0,4.4,0.8,7.7,2.5,9.9c1.7,2.2,4.7,3.3,8.9,3.3
	c4,0,7.1-0.3,9.4-0.9c3.1-0.8,4.7-2.1,4.7-3.8C188.4,348.3,188.1,347.7,187.5,347.4z M217.2,309c2.8-5.1,5-9.7,6.6-13.6
	c1.7-3.9,2.5-7.1,2.5-9.4c0-0.8-0.2-1.4-0.7-1.9c-0.5-0.5-1.1-0.8-2-0.8c-1.2,0-2.1,0.3-2.8,0.9c-0.7,0.6-1.4,1.7-2,3.3
	c-3.9,9.9-8.9,21.4-15.1,34.5c-0.5,0.9-0.8,1.4-1,1.4c-0.3,0-0.4-0.6-0.4-1.7v-30.8c0-2.1-0.4-3.8-1.2-5.1c-1-1.6-2.5-2.4-4.6-2.4
	c-1.9,0-3.3,0.6-4.1,1.7c-0.8,1.1-1.2,3.2-1.2,6.2v54.6c0,1.3,0.1,2.6,0.3,3.8c0.4,2.7,2.1,4.1,5,4.1c2.3,0,3.9-1,4.9-2.9
	c0.6-1.2,0.9-2.8,0.9-4.7v-10.4c0-1.1,0.2-1.7,0.6-1.7c0.3,0,0.7,0.3,1.2,1c6.2,8,10.8,13.4,13.7,16.2c1.7,1.7,3.3,2.5,4.8,2.5
	c0.9,0,1.8-0.3,2.6-0.9c0.8-0.6,1.2-1.3,1.2-2.3c0-1.3-0.8-2.9-2.5-4.7c-5.2-5.5-10.4-11.1-15.5-16.7c-0.6-0.7-0.9-1.3-0.9-1.9
	c0-0.5,0.2-1.1,0.6-1.9C211.4,319.7,214.5,314.2,217.2,309z M242,353.8c-5.8,0-8.6-3.1-8.6-9.3v-53.3c0-5.2,2.8-7.9,8.3-7.9
	c5.8,0,10.8,1.5,15.2,4.6c5.2,3.6,7.7,9,7.7,16.2c0,8.8-2.8,16-8.4,21.5c-0.9,0.9-1.4,1.6-1.4,2.1c0,0.5,0.6,0.9,1.8,1.2
	c2.6,0.7,4.7,1.7,6.4,3c2.7,2.1,4.1,4.7,4.1,7.8c0,3.8-2.3,7.1-6.9,9.9C255.8,352.4,249.7,353.8,242,353.8z M244.5,326.5
	c0,0.6,0.4,0.9,1.1,0.9c1,0,2.3-0.9,4-2.6c1.6-1.7,3.2-4.2,4.7-7.3c2-4.1,2.9-8.4,2.9-12.9c0-2.6-0.4-4.9-1.2-7
	c-1.2-3.1-3.1-5.2-5.7-6.2c-1.2-0.5-2.7-0.7-4.3-0.7c-1,0-1.5,0.5-1.5,1.5V326.5z M244.5,344.3c0,1.5,0.8,2.2,2.3,2.2
	c4.3,0,7.5-0.7,9.7-2c2.1-1.3,3.2-3,3.2-5c0-2-1.1-3.4-3.3-4.5c-2.2-1-5.2-1.5-9-1.5c-1.9,0-2.8,0.7-2.8,2.1V344.3z M304.3,283.3
	c-1.3,0-2.1,0.5-2.6,1.5c-0.5,1-0.7,2.4-0.7,4.3v40.3c0,11.4-2.8,17.1-8.5,17.1c-2.3,0-4.1-0.7-5.3-2.1c-1.4-1.5-2.3-3.9-2.7-7.1
	c-0.3-2.3-0.5-5-0.5-8.1v-37.9c0-3-0.8-5.1-2.3-6.4c-0.8-0.7-2-1.1-3.5-1.1c-2.9,0-4.6,1.4-5,4.1c-0.2,1.2-0.3,2.5-0.3,3.8V328
	c0,7.5,1,13.4,3.1,17.6c2.8,5.5,7.5,8.2,14.2,8.2c11.9,0,17.9-8.2,17.9-24.5v-40.2C308.1,285.3,306.8,283.3,304.3,283.3z
	 M316.7,290.6h4.9c0.7,0,1,0.4,1,1.1v54.2c0,2.2,0.2,3.8,0.5,4.9c0.2,0.7,0.6,1.3,1.1,1.9c0.7,0.8,1.9,1.2,3.6,1.2
	c3.8,0,5.7-2.5,5.7-7.6v-54.6c0-0.7,0.4-1.1,1.1-1.1h4.9c1.5,0,2.6-0.3,3.4-0.9c0.8-0.6,1.2-1.3,1.2-2c0-1.1-0.4-1.9-1.1-2.4
	c-0.7-0.5-1.6-0.8-2.6-1c-1-0.1-2-0.2-2.8-0.2h-18.9c-0.8,0-1.8,0.1-2.8,0.2c-1,0.1-1.9,0.4-2.6,1c-0.7,0.5-1.1,1.3-1.1,2.4
	c0,0.7,0.4,1.4,1.2,2C314.1,290.3,315.2,290.6,316.7,290.6z M62.9,365c1.3-0.1,2.2-0.2,2.7-0.4c0.9-0.5,1.4-1.3,1.4-2.3
	c0-1.3-1.1-2-3.3-2H49.9c-2.2,0-3.3,0.7-3.3,2c0,1.1,0.5,1.8,1.4,2.3c0.5,0.2,1.3,0.4,2.5,0.4c0.9,0.1,1.3,0.5,1.3,1.4v49.6
	c0,0.5-0.1,0.8-0.4,1.1c-0.3,0.2-0.8,0.3-1.5,0.3c-2.2,0-3.3,0.9-3.3,2.7c0,1.4,1,2.1,3,2.1h13.7c2.2,0,3.3-0.7,3.3-2
	c0-1-0.5-1.8-1.4-2.3c-0.5-0.3-1.3-0.4-2.4-0.5c-0.7-0.1-1-0.4-1-1.1v-50.3C61.8,365.4,62.2,365.1,62.9,365z M110.1,416.8
	c-0.9,0-1.7,0-2.4,0.1c-0.7,0.1-2.4,0.1-5,0.1c-2,0-3-1.3-3-3.9v-46.8c0-2.1-0.4-3.7-1.2-4.8c-0.9-1.3-2.2-1.9-4-1.9
	c-1.9,0-3.2,0.6-3.9,1.9c-0.6,1-0.9,2.7-0.9,5.2v44.4c0,3.9,0.8,6.9,2.3,8.9c1.5,2,4.2,3,8,3c3.6,0,6.4-0.3,8.5-0.8
	c2.8-0.7,4.2-1.9,4.2-3.4c0-0.7-0.3-1.2-0.8-1.5C111.4,416.9,110.8,416.8,110.1,416.8z M146.3,375.8c0.9,3.9,1.4,8.2,1.4,12.8
	c0,6.6-0.5,12.4-1.5,17.4c-2.3,11.3-8,17-16.9,17c-3.3,0-6-0.7-8.2-2.1c-2.2-1.4-4-3.2-5.4-5.5c-1.4-2.3-2.4-4.8-3.1-7.6
	c-0.7-2.8-1.2-5.7-1.4-8.6c-0.2-2.9-0.3-5.7-0.3-8.3c0-10.2,1.8-18,5.3-23.7c3.1-5,7.8-7.6,13.8-7.6
	C138.2,359.6,143.7,365,146.3,375.8z M141.5,388.1c0-4.1-0.3-7.8-0.9-11.2c-0.7-4.2-2-7.3-3.7-9.3c-1.4-1.7-3.1-2.5-5.2-2.5
	c-3.4,0-6,2.2-7.7,6.5c-1.8,4.5-2.7,10.7-2.7,18.5c0,8.6,0.9,15.3,2.8,20.3c1.6,4.3,3.9,6.5,6.9,6.5c4.6,0,7.6-3.9,9.2-11.8
	C141.1,401,141.5,395.3,141.5,388.1z M184.3,359.6c-1.3,0-2.3,0.7-2.8,2c-0.2,0.6-0.4,1.2-0.4,1.8c-0.8,7.6-2.1,17-3.8,28.1
	c-2.3,14.3-4.1,21.5-5.4,21.5c-1,0-2.7-7.1-5.2-21.4c-2.1-11.6-3.4-20-4-25.2c-0.5-4-2.5-6-6-6c-3.1,0-4.6,1.6-4.6,4.8
	c0,1.7,1,8.8,3.1,21.2c1.2,7.8,2.8,15.1,4.6,21.9c1.1,4.1,2.2,7.3,3.5,9.6c1.7,3.3,3.9,4.9,6.6,4.9c2.9,0,5.3-1.7,7.2-5.1
	c1.2-2.2,2.3-5.2,3.3-9.1c2.5-9.1,4.6-20.2,6.5-33.4c0.2-1.6,0.5-3.4,0.8-5.3c0.3-2,0.4-3.6,0.4-4.9c0-1.8-0.2-3.2-0.7-4
	C186.6,360.1,185.6,359.6,184.3,359.6z M217.9,416.8c-1.1,0-2.1,0-3.2,0.1c-1,0.1-2.1,0.1-3.2,0.1c-3.3,0-5.6-0.8-6.8-2.5
	c-0.7-1.1-1.1-2.6-1.1-4.6V408c0-1.1,0.7-1.7,2-1.7l8.4,0.1c1,0,1.7-0.2,2.3-0.7c0.5-0.5,0.8-1,0.8-1.7c0-1.1-0.4-2-1.2-2.4
	c-0.7-0.4-1.7-0.6-3.1-0.6c-1.1,0-2.3,0-3.4,0.1c-1.2,0.1-2.3,0.1-3.4,0.1c-0.8,0-1.3-0.2-1.7-0.5c-0.4-0.4-0.6-1.2-0.6-2.4v-28.9
	c0-2.2,1-3.3,2.9-3.3c1,0,2.1,0,3.1,0.1c1,0,2.1,0.1,3.1,0.1c1.4,0,2.5-0.3,3.2-0.9c0.7-0.6,1.1-1.2,1.1-1.9c0-1.8-1.1-2.8-3.4-3.1
	c-0.9-0.1-1.8-0.2-2.5-0.2h-11c-3.2,0-5.2,1.3-5.9,3.9c-0.4,1.2-0.5,2.8-0.5,4.5v34.2c0,2.6,0.1,5.1,0.3,7.5
	c0.5,5.3,2.6,8.9,6.3,10.9c2.1,1.1,4.9,1.6,8.6,1.6c4.2,0,7.2-0.4,9-1.1c1.7-0.7,2.6-1.8,2.6-3.1c0-0.7-0.3-1.2-0.8-1.5
	C219.2,416.9,218.6,416.8,217.9,416.8z M276.1,359.6c-1,0-1.8,0.3-2.4,0.8c-0.6,0.5-0.9,1.3-0.9,2.2c0,1.4,0.1,3.2,0.3,5.5
	c0.5,6.2,0.8,12.2,0.8,18.1c0,5-0.1,9.7-0.2,14.2c-0.1,4.5-0.4,8.1-0.8,10.9c-0.4,2.8-1.1,4.2-2.1,4.2c-1.3,0-2.7-3.5-4.2-10.5
	c-0.4-1.9-0.8-3.4-1.3-4.4c-0.7-1.7-1.9-2.6-3.6-2.6c-1.9,0-3.1,1.3-3.7,3.9c-1.6,8.1-3.1,12.1-4.3,12.1c-1.4,0-2.3-4.3-2.9-12.8
	c-0.5-8.5-0.8-20.1-0.8-34.8c0-1.1-0.1-2.2-0.4-3.3c-0.3-1-0.8-1.9-1.6-2.5c-0.8-0.6-1.8-1-3.2-1c-1.5,0-2.6,0.3-3.2,1
	c-0.7,0.7-1.1,1.6-1.3,2.7c-0.2,1.1-0.3,2.2-0.3,3.4c0,12.2,0.3,22.5,0.9,30.9c0.6,8.3,1.6,14.7,3.2,19c1.6,4.3,3.9,6.4,6.9,6.4
	c3.8,0,6.8-3.5,8.8-10.4c0.2-0.5,0.3-0.7,0.4-0.7c0.2,0,0.3,0.2,0.5,0.7c2.7,6.9,5.7,10.4,9.1,10.4c3,0,5.3-1.4,6.8-4.3
	c1.5-2.8,2.5-7,3-12.4c0.5-5.4,0.7-12,0.7-19.6c0-14.6-0.6-23.2-2-25.7C278.1,360,277.3,359.6,276.1,359.6z M302.9,365
	c1.3-0.1,2.2-0.2,2.7-0.4c0.9-0.5,1.4-1.3,1.4-2.3c0-1.3-1.1-2-3.3-2h-13.8c-2.2,0-3.3,0.7-3.3,2c0,1.1,0.5,1.8,1.4,2.3
	c0.5,0.2,1.3,0.4,2.5,0.4c0.9,0.1,1.3,0.5,1.3,1.4v49.6c0,0.5-0.1,0.8-0.4,1.1c-0.3,0.2-0.8,0.3-1.5,0.3c-2.2,0-3.3,0.9-3.3,2.7
	c0,1.4,1,2.1,3,2.1h13.7c2.2,0,3.3-0.7,3.3-2c0-1-0.5-1.8-1.4-2.3c-0.5-0.3-1.3-0.4-2.4-0.5c-0.7-0.1-1-0.4-1-1.1v-50.3
	C301.8,365.4,302.2,365.1,302.9,365z M344.7,359.6c-1.1,0-1.9,0.4-2.3,1.3c-0.4,0.9-0.6,2.2-0.6,3.9v40.4c0,1.2-0.2,1.8-0.5,1.8
	c-0.3,0-0.8-0.5-1.3-1.5l-9.7-16c-5.1-8.4-7.7-16.1-7.7-23.2c0-2.2-0.4-3.9-1.3-5c-0.9-1.2-2-1.7-3.4-1.7c-1.7,0-2.9,0.5-3.6,1.5
	c-0.7,1-1.1,2.9-1.1,5.6v49.2c0,2.8,0.4,4.8,1.2,5.7c0.8,0.9,2,1.4,3.6,1.4c3.4,0,5.2-2.3,5.2-6.8v-23.1c0-1.3,0.2-1.9,0.5-1.9
	c0.3,0,1.9,2.4,4.6,7.1c5.3,9.2,9.3,16,12.2,20.4c1.2,2,2.7,3.1,4.5,3.1c2.3,0,3.5-1.3,3.5-4v-53
	C348.2,361.3,347.1,359.6,344.7,359.6z M384.5,417.2c-0.5-0.3-1.1-0.5-1.9-0.5c-1.1,0-2.1,0-3.2,0.1c-1,0.1-2.1,0.1-3.2,0.1
	c-3.3,0-5.6-0.8-6.8-2.5c-0.7-1.1-1.1-2.6-1.1-4.6V408c0-1.1,0.7-1.7,2-1.7l8.4,0.1c1,0,1.7-0.2,2.3-0.7c0.5-0.5,0.8-1,0.8-1.7
	c0-1.1-0.4-2-1.2-2.4c-0.7-0.4-1.7-0.6-3.1-0.6c-1.1,0-2.3,0-3.4,0.1c-1.2,0.1-2.3,0.1-3.4,0.1c-0.8,0-1.3-0.2-1.7-0.5
	c-0.4-0.4-0.6-1.2-0.6-2.4v-28.9c0-2.2,1-3.3,2.9-3.3c1,0,2.1,0,3.1,0.1c1,0,2.1,0.1,3.1,0.1c1.4,0,2.5-0.3,3.2-0.9
	c0.7-0.6,1.1-1.2,1.1-1.9c0-1.8-1.1-2.8-3.4-3.1c-0.9-0.1-1.8-0.2-2.5-0.2h-11c-3.2,0-5.2,1.3-5.9,3.9c-0.4,1.2-0.5,2.8-0.5,4.5
	v34.2c0,2.6,0.1,5.1,0.3,7.5c0.5,5.3,2.6,8.9,6.3,10.9c2.1,1.1,4.9,1.6,8.6,1.6c4.2,0,7.2-0.4,9-1.1c1.7-0.7,2.6-1.8,2.6-3.1
	C385.3,418.1,385,417.6,384.5,417.2z M185.8,138.8c-1.9-0.3-3.7,0.3-5.3,1.8c-1.6,1.4-2.5,3.1-2.8,5.1c-0.4,2.5,0.5,4.5,2.9,6.2
	c1,0.6,2.1,0.7,3.3,0.4c1.2-0.3,2.2-0.8,2.9-1.4c1.5-1.4,2.4-3,2.7-5c0.3-1.9-0.1-3.6-1.2-5.2C187.7,139.7,186.9,139.1,185.8,138.8z
	 M310.8,222c-3,1.4-6.1,2.1-9.3,2.1c-3.2,0-6.2-0.6-9.2-1.9c-3-1.2-5.5-2.9-7.7-5c-1.8-1.8-3.2-3.7-4.2-5.8
	c-0.4-0.8-0.8-1.7-1.1-2.6c-2.2,4.8-4.7,9.5-7.4,14.1c-1.5,2.5-3.1,4.9-4.6,7.2c-1.6,2.3-3.5,4.5-5.9,6.4c-1.5,1.4-3.2,2.5-5.1,3.5
	c-1.9,1-3.8,1.6-5.9,1.9c-4.5,0.5-8.6-0.4-12.2-2.9c-3.6-2.5-5.6-6-6.2-10.5c-0.4-3.2-0.4-6.3-0.1-9.3c0.3-3,0.9-6.1,1.5-9.3
	c1.5-6.2,3.4-12.2,5.7-18.1c2.3-5.8,4.5-11.7,6.7-17.4c1-2.8,2-5.4,3-8c1-2.6,2-5.3,2.8-8c0.4-1.4,0.7-2.7,0.8-4
	c0.1-1.3-0.1-2.9-0.8-4.6c-1.1,1-2.2,1.8-3.2,2.5c-1,0.7-2,1.4-3,2.3c-3.7,3.3-7.1,7.4-10.1,12.2c-3.7,5.8-6.7,11.8-8.9,18.1
	c-2.2,6.3-3.9,12.8-5,19.7c-0.1,1-0.2,1.9-0.3,2.9c-0.1,1-0.2,1.9-0.3,2.9c-0.6,2.2-0.5,4.7,0.2,7.4c0.5,1.8-0.1,3-1.9,3.5
	c-2.5,0.8-5,0.8-7.6,0c-0.7-0.3-1.3-0.7-1.8-1.1c-0.5-0.5-0.9-1.1-1.1-1.8c-1.1-1.9-2-3.8-2.6-5.8c-0.6-1.9-1.1-3.9-1.5-6
	c-0.3-1.8-0.6-3.6-0.9-5.4c-0.3,0.5-0.6,1-0.9,1.5c-2.4,4.1-5.3,8.2-8.8,12.2c-3.3,3.7-7.2,5.9-11.6,6.6c-4.4,0.7-8.2,0.4-11.3-0.8
	c-3.6-1.5-6.2-3.6-7.7-6.3c-1.6-2.7-2.6-5.8-3-9.4c-0.5-5.5-0.3-10.8,0.8-16c0.4-2,1-4,1.6-6c-1.1,0.1-2,0.1-2.8,0.1
	c-1.8-0.1-4.2-0.7-7.2-1.5c-3-0.9-5.3-2.3-6.8-4.2c1.2,3.7,2.3,7.4,3.3,10.9c0.8,3.2,1.7,6.4,2.5,9.8c0.8,3.4,1.4,6.4,1.7,9.2
	c0.5,4.1,0.4,7.9-0.4,11.3c-1.4,5.1-4.5,8-9.3,8.9c-2.3,0.3-4.4-0.2-6.2-1.4c-2.8-1.5-5.1-4-7-7.4c-1.5-2.3-2.6-4.5-3.3-6.6
	c-0.7-2.1-1.3-4.4-1.9-7c0,0.1-0.2,1.1-0.6,2.9c-0.4,1.8-0.9,3.8-1.5,6.1c-0.6,2.3-1.3,4.5-2.2,6.8c-0.8,2.3-1.7,4-2.5,5.3
	c-1.4,1.9-3,3.7-4.7,5.4c-1.8,1.7-3.9,2.6-6.2,2.9c-1.5,0.3-3,0.3-4.3,0c-2.1-0.1-4-0.7-5.7-1.5c-1.7-0.9-3.1-2.1-4.2-3.6
	c-1.7-2.1-2.7-4.3-3.2-6.7c-0.5-2.4-0.8-4.7-0.9-6.9c-0.3-4.3-0.2-8.7,0.2-13.2c0.4-4.5,1.1-9.4,2.1-14.7c0.3-1.5,0.5-2.9,0.8-4.2
	c0.3-1.3,0.5-2.7,0.8-4.2c0.4-1.9,0.8-3.9,1.1-6c0.3-2.1,0.7-4.1,1.1-6.2c0.4-2.3,0.6-4,0.6-5.1c0-1-0.2-2.2-0.6-3.6l-0.4,0.2
	c-0.6,0.6-1.2,1-2.1,1.4c-0.8,0.3-2.1,0.7-3.7,1.2c-1.7,0.6-2.8,0.3-3.5-0.8c-0.1-0.3-0.2-0.6-0.2-1c0-0.4,0.1-1,0.4-1.7
	c0.3-0.4,0.6-0.9,0.9-1.3c0.3-0.5,0.7-0.9,1.1-1.3c3-2.6,6.5-4.2,10.3-4.7c1.9-0.3,3.8-0.3,5.8,0c2.3,0.3,4.3,1.2,5.8,2.8
	c1.5,1.6,2.4,3.5,2.7,5.9c0.1,1.8,0.2,3.6,0.1,5.4c-0.1,1.8-0.2,3.6-0.5,5.6c-0.3,2.2-0.6,4.4-1,6.6c-0.4,2.2-0.8,4.3-1,6.4
	c-0.4,2.3-0.8,4.7-1.2,7.2c-0.4,2.5-0.8,4.9-1.2,7.2c-0.4,3.2-0.7,6.3-0.9,9.4c-0.2,3.1-0.4,6.2-0.5,9.2c-0.1,4,0.7,7.5,2.5,10.5
	c0.8-0.8,1.5-1.7,2-2.6c0.5-0.9,0.9-1.7,1.3-2.4c1.9-4,3.4-8,4.3-12.2c1-4.1,1.8-8.3,2.5-12.6c0.1-0.7,0.2-1.3,0.3-2
	c0.1-0.6,0.2-1.3,0.3-2c0.3-1.2,0.5-2.4,0.6-3.4c0.1-1,0.9-1.7,2.3-2c0.8-0.1,2,0,3.5,0.4c1.5,0.4,2.5,0.8,3.1,1.2
	c0.5,0.3,0.9,0.8,1.1,1.4c0.2,0.7,0.4,1.3,0.5,1.9c1,6.5,2.6,12.5,5,18c1.9,4.7,4.5,8.3,7.8,10.7c0.5-1.2,0.8-2.8,0.8-4.5
	c0.3-1.9,0.4-3.8,0.3-5.7c-0.1-1.9-0.2-3.7-0.5-5.7c-0.3-1.9-0.6-3.8-0.9-5.7c-0.3-1.9-0.7-3.7-1.1-5.7c-0.3-1.9-0.7-3.7-1.1-5.5
	c-0.5-1.7-0.9-3.5-1.3-5.3c-0.6-1.7-1.1-3.3-1.5-5c-0.5-1.7-1.1-3.3-1.8-5c-0.7-1.9-1.3-3.8-2-5.6c-0.6-1.8-1.3-3.6-2-5.6
	c-0.6-1.1-0.9-2.1-0.9-3c-0.1-0.9,0.5-1.7,1.8-2.4c0.3-0.1,0.8-0.3,1.4-0.5c0.7-0.2,1.2-0.3,1.4-0.3c1.1-0.3,1.9-0.2,2.5,0.3
	c0.5,0.5,1,1.1,1.4,1.8c0.3,0.3,0.5,0.6,0.7,1c0.2,0.4,0.4,0.8,0.7,1.2c0.4,0.7,0.9,1.4,1.3,2.1c0.5,0.7,1,1.4,1.5,2.1
	c1.4,2.1,3.3,4.3,5.8,6.6c2.5,2.3,4.7,4,6.6,5c0.4,0.3,1.8,0.5,4.2,0.7c1.4,0.1,3-0.1,4.8-0.6c0.3-0.7,0.6-1.3,0.9-2
	c0.7-1.5,1.4-2.9,2.3-4.2c0.8-1.3,1.7-2.6,2.5-3.8c1.2-1.9,2.8-3.2,4.6-3.7c1.9-0.5,3.9-0.7,6.1-0.4c2.5,0.4,3.5,1.9,3.1,4.5
	c-0.1,1.1-0.3,2.2-0.6,3.4c-0.3,1.2-0.6,2.3-0.8,3.4c-0.8,2.9-1.6,5.8-2.4,8.8c-0.8,3-1.4,6-2,9c-0.6,3-1,6.1-1.4,9.3
	c-0.4,3.2-0.3,6.3,0.4,9.3c0.5,2.2,1.3,3.9,2.2,5c0.9,1.1,1.5,1.6,1.8,1.4c1-0.3,2.1-1,3.5-2.2c1.4-1.2,2.4-2.2,3.1-3
	c1.4-1.7,2.9-3.7,4.6-6.3c1.7-2.5,3.4-5.3,5.2-8.3c1.4-2.4,2.7-4.9,4-7.4c-0.2-5.6,0.1-11.2,1-16.8c0.3-1.5,0.6-2.9,1-4.2
	c0.4-1.3,0.9-2.6,1.4-3.8c0.8-1.9,2.3-3.3,4.3-4c2.1-0.8,4.1-0.6,6,0.5c1.4,0.6,2.1,1.7,2.1,3.3c-0.1,3.3-0.3,6.6-0.6,9.9
	c-0.3,3.3-0.3,6.6,0,9.9c0.5-1.1,1-2,1.2-2.7c2.9-7.8,6.7-15.1,11.4-21.9c3.3-4.8,7.1-8.6,11.3-11.3c5.6-3.8,11.9-4.8,18.8-2.9
	c5.9,1.7,8.9,5.7,8.9,12.2c0,3.9-0.8,7.6-2.3,11.3l-11.1,26c-2.2,4.8-4.2,9.7-5.9,14.8c-1.7,5-3.1,10.2-4,15.6
	c-0.7,3.4-0.6,6.6,0.4,9.5c0.3,0.7,0.6,1.3,0.9,2c0.3,0.6,0.7,1.3,1.1,2.2c1-0.7,1.9-1.3,2.8-1.8c0.9-0.5,1.7-1,2.4-1.5
	c2.8-2.2,5.2-4.6,7.3-7.3c2.1-2.7,4-5.6,5.7-8.8c1.4-2.6,2.9-5.6,4.5-9c1.7-3.4,3.2-6.9,4.7-10.5c0.3-0.8,0.6-1.5,0.9-2.3
	c-0.2-3.7,0.1-7.3,0.9-10.8c1.4-5.9,3.8-11.8,7.4-17.5c1.1-1.5,2.2-3,3.4-4.5c1.2-1.5,2.5-2.9,4-4.1c4.5-3.8,9.6-5.6,15.3-5.2
	c2.1,0.1,3.6,0.7,4.6,1.5c1,0.9,1.8,2.3,2.2,4.2c1,4.8,0.5,9.8-1.4,15.1c-1.2,3.2-3,5.7-5.4,7.5c-2.3,1.9-5.4,2.9-9.1,3.2h-4.1
	c-0.3,0.8-0.4,1.7-0.5,2.5c-0.1,0.8-0.2,1.7-0.3,2.5c-0.4,3.3-0.5,6.5-0.2,9.6c0.3,3.1,1.1,6.2,2.5,9.4c1.1,2.8,2.8,5,5.2,6.8
	c1.2,1,2.6,1.2,4,0.8c1.4-0.4,2.9-1.1,4.2-2.1c2.6-2.1,5.9-6.1,10-12.2c4.1-6.1,8.3-14.2,12.7-24.6c1.1-2.3,2.5-3.2,4.1-2.7
	c0.7,0.3,1.1,0.7,1.2,1.3c0.1,0.6,0.1,1.3,0,2.2c-0.1,0.8-0.4,1.6-0.7,2.4c-0.3,0.8-0.6,1.4-0.7,2c-0.7,1.5-1.7,3.6-3,6.4
	c-1.3,2.8-2.8,5.6-4.4,8.7c-1.7,3-3.3,6-5.1,8.9c-1.7,2.9-3.3,5.3-4.8,7.2C316.5,218.4,313.9,220.6,310.8,222z M295.6,182.4
	c1.9,0.3,3.4,0.1,4.5-0.6c1.1-0.7,2.1-1.7,2.9-2.9c1.1-1.5,1.9-3.1,2.4-4.8c0.5-1.7,0.9-3.5,1.1-5.3c0.3-2.3-0.1-4.6-1-6.8
	c-2.3,3.3-4.3,6.6-6,9.9C297.8,175.1,296.5,178.6,295.6,182.4z M58.2,216.6c-0.8-1.1-1.6-0.8-4.6,0.6c-3,1.4-3.8,1.8-3.5,3.1
	c1.4,6,5.9,26.3,10.1,29.4c5.5,4.1,8,1.7,10,5.7c7.6,15.2,7.6,15.2,6,16.4c-8,5.8-13.3,9.2,3.4,1.4c16.7-7.7,10.7-5.9,1.1-3.5
	c-2,0.5-2,0.5-8.7-15.1c-1.8-4.1,1.7-4.5,2.1-11.3C74.4,238.1,61.9,221.6,58.2,216.6z M134,257.1c1.5,2.2,3.1,4.2,4.8,6.2
	c1.4,1.7,2.8,3.3,4.3,4.9c0.9,1,1.8,2,2.9,2.8c0.2,0.2,0.4,0.4,0.7,0.5c0.4,0.3,0.8,0.3,1.2,0.1c0.2-0.1,0.5-0.3,0.7-0.4
	c1-0.8,2-1.6,2.9-2.6c1.8-1.8,3.4-3.8,4.9-5.8c0.7-0.9,1.4-1.9,2.1-2.8c1.1-1.5,2.2-2.9,3.1-4.5c0.7-1.2,1.4-2.4,2-3.6
	c0.8-1.9,1.4-3.9,1.5-6c0.1-1.4,0-2.8-0.3-4.2c-0.2-0.9-0.6-1.8-1.1-2.6c-0.9-1.5-2.2-2.4-4-2.7c-1-0.2-1.9-0.1-2.9,0
	c-1.4,0.2-2.6,0.6-3.9,1.2c-1.2,0.6-2.3,1.3-3.3,2.1c-0.6,0.5-1.2,1-1.7,1.6c-0.3,0.4-0.6,0.7-0.8,1.2c0,0,0,0.1-0.1,0.1
	c0-0.1,0-0.1-0.1-0.1c-0.2-0.5-0.5-1-0.8-1.5c-0.5-0.7-1.2-1.3-1.9-1.9c-1.4-1.1-3-1.8-4.8-2.1c-1.2-0.2-2.4-0.2-3.5,0
	c-1.8,0.3-3.8,1.6-4.7,3.3c-0.8,1.5-1.2,3-1.3,4.7c-0.1,1.1,0,2.3,0.2,3.4c0.3,1.7,0.8,3.3,1.6,4.9
	C132.3,254.6,133.1,255.8,134,257.1z M338.8,152.6c-1.7,0.3-3.4,1.5-4.3,3c-0.8,1.3-1.1,2.8-1.2,4.3c-0.1,1,0,2.1,0.2,3.1
	c0.3,1.6,0.8,3,1.5,4.5c0.6,1.2,1.4,2.3,2.1,3.5c1.4,2,2.8,3.8,4.3,5.7c1.3,1.5,2.6,3,3.9,4.5c0.8,0.9,1.7,1.8,2.6,2.6
	c0.2,0.2,0.4,0.3,0.6,0.5c0.3,0.2,0.7,0.3,1.1,0.1c0.2-0.1,0.4-0.3,0.6-0.4c0.9-0.7,1.8-1.5,2.6-2.3c1.6-1.7,3.1-3.5,4.5-5.3
	c0.6-0.9,1.3-1.7,1.9-2.6c1-1.3,2-2.7,2.8-4.1c0.7-1.1,1.3-2.2,1.8-3.3c0.8-1.8,1.3-3.6,1.4-5.5c0.1-1.3,0-2.6-0.3-3.8
	c-0.2-0.8-0.5-1.7-1-2.4c-0.8-1.4-2-2.2-3.6-2.5c-0.9-0.2-1.7-0.1-2.6,0c-1.2,0.2-2.4,0.5-3.5,1.1c-1.1,0.5-2.1,1.2-3,1.9
	c-0.6,0.5-1.1,0.9-1.5,1.5c-0.3,0.3-0.5,0.7-0.7,1.1c0,0,0,0.1-0.1,0.1c0-0.1,0-0.1-0.1-0.1c-0.2-0.5-0.4-0.9-0.7-1.4
	c-0.5-0.7-1.1-1.2-1.7-1.7c-1.3-1-2.8-1.6-4.4-1.9C340.9,152.4,339.9,152.3,338.8,152.6z M357.1,256c1.1-1.4,2.1-2.8,3.1-4.2
	c1.6-2.2,3.2-4.4,4.7-6.7c1.1-1.8,2.1-3.6,2.9-5.5c1.2-2.9,2.1-5.9,2.3-9.1c0.1-2.1,0-4.2-0.5-6.3c-0.3-1.4-0.8-2.7-1.6-4
	c-1.4-2.3-3.4-3.6-6-4.1c-1.4-0.3-2.9-0.2-4.3,0c-2,0.3-4,0.9-5.8,1.8c-1.8,0.8-3.4,1.9-4.9,3.2c-0.9,0.7-1.8,1.5-2.5,2.4
	c-0.5,0.5-0.9,1.1-1.2,1.8c0,0-0.1,0.1-0.1,0.2c0-0.1-0.1-0.1-0.1-0.2c-0.3-0.8-0.7-1.5-1.2-2.2c-0.8-1.1-1.8-2-2.9-2.8
	c-2.2-1.6-4.6-2.7-7.2-3.1c-1.8-0.3-3.5-0.4-5.3,0c-2.7,0.5-5.6,2.4-7.1,5c-1.3,2.2-1.8,4.6-2,7.1c-0.1,1.7,0,3.4,0.4,5.1
	c0.5,2.6,1.3,5,2.4,7.4c1,2,2.2,3.9,3.5,5.7c2.3,3.2,4.7,6.4,7.2,9.4c2.1,2.5,4.2,5,6.5,7.4c1.4,1.5,2.8,3,4.3,4.3
	c0.3,0.3,0.6,0.5,1,0.8c0.6,0.4,1.1,0.4,1.7,0.1c0.4-0.2,0.7-0.4,1-0.7c1.6-1.2,3-2.5,4.4-3.9C352.4,262,354.8,259.1,357.1,256z
	 M49.1,183.6c0.7,1.3,1.5,2.5,2.3,3.8c1.5,2.1,3.1,4.2,4.7,6.2c1.4,1.7,2.8,3.3,4.2,4.9c0.9,1,1.8,1.9,2.8,2.8
	c0.2,0.2,0.4,0.3,0.6,0.5c0.4,0.3,0.8,0.3,1.1,0.1c0.2-0.1,0.5-0.3,0.7-0.4c1-0.8,2-1.6,2.9-2.5c1.8-1.8,3.3-3.8,4.9-5.8
	c0.7-0.9,1.4-1.9,2.1-2.8c1.1-1.4,2.1-2.9,3.1-4.4c0.7-1.2,1.4-2.3,1.9-3.6c0.8-1.9,1.4-3.9,1.5-6c0.1-1.4,0-2.8-0.3-4.2
	c-0.2-0.9-0.5-1.8-1-2.6c-0.9-1.5-2.2-2.4-3.9-2.7c-0.9-0.2-1.9-0.1-2.8,0c-1.3,0.2-2.6,0.6-3.8,1.2c-1.2,0.6-2.2,1.3-3.2,2.1
	c-0.6,0.5-1.2,1-1.7,1.6c-0.3,0.4-0.6,0.7-0.8,1.2c0,0,0,0.1-0.1,0.1c0-0.1,0-0.1-0.1-0.1c-0.2-0.5-0.5-1-0.8-1.5
	c-0.5-0.7-1.2-1.3-1.9-1.8c-1.4-1-3-1.7-4.8-2.1c-1.2-0.2-2.3-0.2-3.5,0c-1.8,0.3-3.7,1.6-4.7,3.3c-0.8,1.4-1.2,3-1.3,4.7
	c-0.1,1.1,0,2.2,0.2,3.3C47.8,180.4,48.3,182.1,49.1,183.6z M103,243.3c-0.6-0.9-1.4-1.5-2.5-1.7c-0.6-0.1-1.2-0.1-1.8,0
	c-0.8,0.1-1.6,0.4-2.4,0.7c-0.7,0.3-1.4,0.8-2,1.3c-0.4,0.3-0.7,0.6-1,1c-0.2,0.2-0.4,0.5-0.5,0.7c0,0,0,0,0,0.1c0,0,0-0.1,0-0.1
	c-0.1-0.3-0.3-0.6-0.5-0.9c-0.3-0.4-0.7-0.8-1.2-1.2c-0.9-0.7-1.9-1.1-3-1.3c-0.7-0.1-1.5-0.1-2.2,0c-1.1,0.2-2.3,1-2.9,2.1
	c-0.5,0.9-0.8,1.9-0.8,2.9c-0.1,0.7,0,1.4,0.1,2.1c0.2,1.1,0.5,2.1,1,3c0.4,0.8,0.9,1.6,1.5,2.4c0.9,1.3,1.9,2.6,3,3.9
	c0.9,1.1,1.7,2.1,2.7,3.1c0.6,0.6,1.1,1.2,1.8,1.8c0.1,0.1,0.3,0.2,0.4,0.3c0.2,0.2,0.5,0.2,0.7,0c0.1-0.1,0.3-0.2,0.4-0.3
	c0.6-0.5,1.2-1,1.8-1.6c1.1-1.1,2.1-2.4,3.1-3.6c0.4-0.6,0.9-1.2,1.3-1.7c0.7-0.9,1.3-1.8,1.9-2.8c0.5-0.7,0.9-1.5,1.2-2.3
	c0.5-1.2,0.9-2.4,0.9-3.7c0.1-0.9,0-1.8-0.2-2.6C103.5,244.3,103.3,243.8,103,243.3z M237.7,262.7c0.9,1.3,1.9,2.6,3,3.9
	c0.9,1.1,1.7,2.1,2.7,3.1c0.6,0.6,1.1,1.2,1.8,1.8c0.1,0.1,0.3,0.2,0.4,0.3c0.2,0.2,0.5,0.2,0.7,0c0.1-0.1,0.3-0.2,0.4-0.3
	c0.6-0.5,1.2-1,1.8-1.6c1.1-1.1,2.1-2.4,3.1-3.6c0.4-0.6,0.9-1.2,1.3-1.7c0.7-0.9,1.3-1.8,1.9-2.8c0.5-0.7,0.9-1.5,1.2-2.3
	c0.5-1.2,0.9-2.4,0.9-3.7c0.1-0.9,0-1.8-0.2-2.6c-0.1-0.6-0.3-1.1-0.7-1.6c-0.6-0.9-1.4-1.5-2.5-1.7c-0.6-0.1-1.2-0.1-1.8,0
	c-0.8,0.1-1.6,0.4-2.4,0.7c-0.7,0.3-1.4,0.8-2,1.3c-0.4,0.3-0.7,0.6-1,1c-0.2,0.2-0.4,0.5-0.5,0.7c0,0,0,0,0,0.1c0,0,0-0.1,0-0.1
	c-0.1-0.3-0.3-0.6-0.5-0.9c-0.3-0.4-0.7-0.8-1.2-1.2c-0.9-0.7-1.9-1.1-3-1.3c-0.7-0.1-1.5-0.1-2.2,0c-1.1,0.2-2.3,1-2.9,2.1
	c-0.5,0.9-0.8,1.9-0.8,2.9c-0.1,0.7,0,1.4,0.1,2.1c0.2,1.1,0.5,2.1,1,3C236.6,261.1,237.1,261.9,237.7,262.7z M339.2,330.3
	c0.4,0.2,0.7,0.3,1.1,0.4c2.2,0.6,4.4,1.3,6.7,1.6c5.1,0.7,10.3,1.4,15.5,1.9c3.9,0.4,7.9,0.3,11.7-0.6c1.8-0.4,3.7-1.1,5.3-2.1
	c3.2-2,3.3-5.9,0.3-8.1c-1.2-0.9-2.6-1.5-4-1.8c-2.5-0.5-5.1-0.7-7.7-1c-6,0.4-11.9,0.8-17.7,2c-3.1,0.7-6.2,1.5-9.2,2.4
	c-0.9,0.3-1.8,0.8-2.5,1.5C337.3,327.8,337.6,329.5,339.2,330.3z M365.3,352.3c1.9-1.3,2.4-3.4,1.1-5.2c-0.7-0.9-1.5-1.8-2.5-2.4
	c-1.5-0.9-3.2-1.7-4.9-2.2c-4-1.2-8-2.3-12-3.3c-2.1-0.5-4.3-0.8-6.2-1.1c-1,0.1-1.6,0.1-2.2,0.2c-1.8,0.4-2.4,2-1.2,3.4
	c0.5,0.7,1.2,1.2,1.9,1.8c4.2,3.3,8.8,6.1,13.8,8.2c2.2,0.9,4.5,1.6,6.8,1.8C361.9,353.6,363.7,353.4,365.3,352.3z M337.4,313.5
	c-1.1,1.4-0.6,3,1.2,3.4c0.6,0.1,1.3,0.1,2.2,0.2c1.9-0.3,4-0.6,6.2-1.1c4-1,8-2.1,12-3.3c1.7-0.5,3.3-1.3,4.9-2.2
	c1-0.6,1.8-1.5,2.5-2.4c1.3-1.9,0.8-4-1.1-5.2c-1.6-1.1-3.4-1.3-5.3-1.1c-2.4,0.2-4.6,0.9-6.8,1.8c-5,2.1-9.6,4.8-13.8,8.2
	C338.6,312.2,338,312.8,337.4,313.5z M51.6,324.7c1.6,1,3.5,1.6,5.3,2.1c3.8,0.9,7.8,1,11.7,0.6c5.2-0.5,10.3-1.2,15.5-1.9
	c2.3-0.3,4.5-1.1,6.7-1.6c0.4-0.1,0.8-0.2,1.1-0.4c1.6-0.8,1.9-2.5,0.6-3.7c-0.7-0.6-1.6-1.2-2.5-1.5c-3-0.9-6.1-1.7-9.2-2.4
	c-5.8-1.3-11.8-1.7-17.7-2c-2.6,0.3-5.2,0.5-7.7,1c-1.4,0.3-2.9,1-4,1.8C48.3,318.8,48.4,322.7,51.6,324.7z M93.7,334.8
	c1.1-1.4,0.6-3-1.2-3.4c-0.6-0.1-1.3-0.1-2.2-0.2c-1.9,0.3-4,0.6-6.2,1.1c-4,1-8,2.1-12,3.3c-1.7,0.5-3.3,1.3-4.9,2.2
	c-1,0.6-1.8,1.5-2.5,2.4c-1.3,1.9-0.8,4,1.1,5.2c1.6,1.1,3.4,1.3,5.3,1.1c2.4-0.2,4.6-0.9,6.8-1.8c5-2.1,9.6-4.8,13.8-8.2
	C92.5,336,93.2,335.5,93.7,334.8z M93.7,306.6c-0.5-0.7-1.2-1.2-1.9-1.8c-4.2-3.3-8.8-6.1-13.8-8.2c-2.2-0.9-4.5-1.6-6.8-1.8
	c-1.9-0.2-3.7,0.1-5.3,1.1c-1.9,1.3-2.4,3.4-1.1,5.2c0.7,0.9,1.5,1.8,2.5,2.4c1.5,0.9,3.2,1.7,4.9,2.2c4,1.2,8,2.3,12,3.3
	c2.1,0.5,4.3,0.8,6.2,1.1c1-0.1,1.6-0.1,2.2-0.2C94.2,309.6,94.8,308,93.7,306.6z M155.6,28.5c0,0.2,0.1,0.3,0.1,0.5
	c0,0.1,0,0.3,0.1,0.5c0.1,0.4,0.2,0.7,0.3,1.1c0.1,0.4,0.2,0.7,0.4,1.1c0.4,0.9,0.8,1.7,1.3,2.5c0.5,0.8,1.2,1.5,1.9,2.1
	c0.4,0.4,0.9,0.7,1.3,1c0.4,0.3,0.9,0.5,1.4,0.8c0.3,0.1,0.6,0.2,0.9,0.3c0.3,0.1,0.6,0.2,0.9,0.3c0.4,0.1,0.7,0.2,1.1,0.2
	c0.4,0,0.7,0,1.1,0c0.6-0.1,1.1-0.2,1.5-0.5c1-0.6,1.7-1.5,2.1-2.5c0.3-0.7,0.2-1.3-0.3-1.7c-0.1-0.1-0.3-0.3-0.4-0.4
	c-0.2-0.1-0.3-0.2-0.5-0.3c-0.2-0.1-0.4-0.2-0.7-0.2c-0.6-0.1-1.1,0-1.5,0.5c-0.5,0.5-1.2,0.9-1.9,1.2c-0.4,0.1-0.7,0.1-1-0.1
	c-0.5-0.4-0.9-0.9-1.1-1.3c-0.2-0.4-0.4-0.8-0.6-1.2c-0.2-0.4-0.3-0.8-0.4-1.3c-0.1-0.4-0.2-0.7-0.2-1c-0.1-0.3-0.1-0.6-0.1-1
	c0-0.4-0.1-0.8-0.1-1.2c0-0.4,0-0.8,0-1.2c0-0.8,0.2-1.5,0.4-2.3c0.1-0.4,0.2-0.9,0.3-1.3c0.1-0.4,0.3-0.8,0.4-1.2
	c0.8-1.8,2-3.4,3.5-4.7c1.4-1.3,2.9-2.1,4.6-2.5c1.1-0.3,2.2-0.5,3.5-0.6c0.8-0.1,1.6-0.2,2.5-0.2c0.6,0,1.2,0.1,1.8,0.1
	c0.6,0,1.2,0.1,1.8,0.3c0.6,0.1,1.3,0.2,1.9,0.4c0.6,0.2,1.3,0.3,1.9,0.6c0.2,0.1,0.5,0.2,0.9,0.4c-0.1,0.2-0.3,0.3-0.4,0.5
	c-0.1,0.1-0.2,0.3-0.3,0.4c-0.5,0.7-0.9,1.4-1.2,2.1c-0.3,0.7-0.5,1.5-0.6,2.2c-0.3,1.6-0.3,3.2-0.2,4.8c0,0.4,0.1,0.8,0.1,1.2
	c0,0.4,0.1,0.8,0.2,1.2c0.1,0.7,0.2,1.3,0.3,2c0.1,0.7,0.2,1.4,0.3,2.1c0.1,0.4,0.1,0.8,0.2,1.2c0,0.4,0.1,0.8,0.2,1.3
	c0.1,0.7,0.2,1.3,0.2,2c0.1,0.6,0.1,1.3,0.2,2c0.1,0.9,0.2,1.8,0.2,2.7c0,0.9,0.1,1.8,0.1,2.7c0,0.9,0.1,1.8,0,2.7
	c0,0.9-0.1,1.8-0.2,2.7c-0.1,0.7-0.2,1.4-0.3,2.1c-0.1,0.7-0.3,1.4-0.5,2.1c-0.2,0.5-0.5,1.1-0.7,1.6c-0.3,0.5-0.6,1-1,1.4
	c-0.8,1-1.9,1.5-3.1,1.7c-0.9,0.1-1.8,0.1-2.7-0.2c-1.3-0.3-2.6-1-3.7-2.1c-1.4-1.4-2.2-3.1-2.4-4.9c-0.2-1.8,0.3-3.3,1.7-4.4
	c0.3-0.3,0.3-0.5,0.1-0.7c-0.2-0.3-0.4-0.4-0.5-0.5c-0.6-0.3-1.2-0.3-1.8-0.1c-1.6,0.5-2.5,1.7-2.9,3.4c-0.2,0.6-0.2,1.3-0.2,1.9
	c0.1,0.7,0.2,1.3,0.4,1.9c0.3,0.9,0.6,1.7,1.1,2.5c0.5,0.8,1,1.6,1.6,2.3c2.5,2.9,5.7,4.6,9.4,5c0.8,0.1,1.7,0.1,2.5,0.1
	c0.8,0,1.6-0.2,2.4-0.5c1.5-0.5,2.8-1.3,3.7-2.3c0.7-0.8,1.2-1.7,1.6-2.5c0.4-0.9,0.7-1.9,1-2.9c0.1-0.4,0.2-0.7,0.2-1
	c0.1-0.3,0.1-0.6,0.2-1c0.1-0.5,0.2-1,0.2-1.4c0-0.4,0.1-0.9,0.1-1.4c0-0.4,0.1-0.9,0.1-1.3c0-0.4,0-0.8,0-1.3c0-0.6,0-1.3,0-1.9
	c0-0.6,0-1.3-0.1-1.9c0-0.5,0-1.1-0.1-1.6c0-0.6-0.1-1.1-0.1-1.6c-0.1-0.8-0.2-1.5-0.2-2.2c0-0.7-0.1-1.4-0.2-2.1
	c-0.1-0.5-0.2-1.1-0.2-1.6c0-0.5-0.1-1-0.2-1.6c0-0.2-0.1-0.4-0.1-0.6c0-0.2,0-0.4,0-0.6l-0.4-3.4c-0.1-1-0.1-2.1-0.2-3.1
	c0-1.1,0-2.1,0-3.1c0.1-1.3,0.3-2.6,0.7-3.7c0.1-0.4,0.3-0.7,0.5-1.1c0.2-0.4,0.4-0.7,0.8-0.9c0.2-0.2,0.4-0.2,0.6-0.1
	c0.5,0.2,1,0.3,1.5,0.5c0.5,0.2,1,0.3,1.5,0.4c0.6,0.2,1.3,0.3,1.9,0.5c0.6,0.1,1.3,0.3,1.9,0.4c0.5,0.1,1,0.2,1.4,0.2
	c0.4,0.1,0.9,0.1,1.4,0.2c0.7,0.1,1.3,0.1,2,0.2c0.7,0,1.4,0,2.1,0c1.3-0.1,2.6-0.4,3.8-0.9c1.4-0.7,2.3-1.9,2.8-3.5
	c0.2-0.7,0.2-1.4,0-2c-0.2-0.6-0.4-1.3-0.7-1.9c-0.1-0.1-0.2-0.2-0.2-0.3c0,0.1-0.1,0.2-0.1,0.2c-0.8,1.7-2,2.8-3.6,3.3
	c-0.2,0.1-0.4,0.1-0.6,0.2c-0.2,0-0.4,0.1-0.6,0.1c-0.3,0.1-0.5,0.2-0.8,0.2c-0.2,0-0.5,0-0.8,0c-0.5,0-1,0-1.4-0.1
	c-0.4,0-0.9-0.1-1.3-0.1l-2.6-0.4c-0.5-0.1-1.1-0.2-1.6-0.3c-0.5-0.1-1-0.2-1.6-0.3c-0.4-0.1-0.7-0.2-1-0.2c-0.3-0.1-0.6-0.1-1-0.2
	l-2.8-0.6c-0.6-0.1-1.2-0.3-1.7-0.4c-0.6-0.1-1.2-0.2-1.8-0.3c-0.6-0.1-1.2-0.3-1.7-0.4c-0.6-0.1-1.1-0.2-1.7-0.3l-3.2-0.4
	c-0.7-0.1-1.3-0.2-2-0.2c-0.6-0.1-1.3-0.1-2-0.2c-0.7,0-1.4,0-2.1,0c-0.7,0-1.4,0-2.1,0.1c-1.5,0-3,0.2-4.6,0.6
	c-0.6,0.1-1.2,0.3-1.7,0.5c-0.6,0.2-1.1,0.4-1.6,0.7c-2.2,1.2-4.1,2.8-5.8,4.8c-0.4,0.5-0.7,1-1,1.5c-0.3,0.5-0.6,1-0.8,1.5
	c-0.2,0.5-0.4,1-0.6,1.4c-0.2,0.5-0.4,1-0.5,1.4c-0.1,0.3-0.2,0.5-0.2,0.8c0,0.3-0.1,0.5-0.1,0.8c-0.1,0.5-0.2,1-0.2,1.4
	c0,0.4-0.1,0.9-0.1,1.3c0,0.4,0,0.9,0,1.3C155.5,27.6,155.5,28,155.6,28.5z M209.2,31.5c2.2,0.4,3.8,1.6,4.9,3.6
	c0.2,0.4,0.4,0.9,0.6,1.3c0.2,0.4,0.3,0.9,0.4,1.4c0.3,0.9,0.4,1.9,0.4,3c0,0.3,0,0.6,0,0.9c0,0.3,0,0.6,0,1c0,0.2,0,0.5,0,0.7
	c0,0.3,0,0.5,0,0.8c0,0.2,0,0.5,0,0.7c0,0.2,0,0.5,0,0.7c0,0.5-0.1,1-0.1,1.4c0,0.4,0,0.9,0,1.4v0.1c0,0.7-0.1,1.4-0.1,2.1
	c0,0.7,0,1.4,0,2.1c0,0.4,0,0.7,0.1,1c0,0.3,0.1,0.6,0.1,1c0,0.1,0,0.2,0.1,0.3c0.2,0.5,0.4,0.6,0.8,0.2c0.2-0.2,0.4-0.4,0.4-0.5
	c0.1-0.2,0.2-0.3,0.3-0.5c0.1-0.2,0.2-0.3,0.3-0.5c0.4-0.9,0.8-1.8,1.2-2.7c0.4-0.9,0.7-1.8,1.1-2.7c0.2-0.7,0.5-1.3,0.7-2
	c0.2-0.6,0.5-1.2,0.7-1.8c0-0.2,0-0.4,0-0.6l0.2-3.2c0-0.8,0.1-1.7,0.1-2.5c0-0.8,0.1-1.7,0.1-2.5c0-0.5,0.1-1,0-1.5
	c0-0.5-0.1-1-0.1-1.6c0,0-0.1-0.1-0.1-0.3c0.2-0.1,0.3-0.1,0.3-0.1c0.4-0.1,0.9-0.2,1.3-0.2c0.4,0,0.9,0,1.4,0.1
	c0.3,0.1,0.6,0.2,0.9,0.2c0.3,0.1,0.6,0.2,0.9,0.4c0.5,0.3,0.9,0.8,1.2,1.3c0.2,0.4,0.4,0.7,0.4,1.2c0,0.4,0.1,0.8,0.1,1.2
	c0,0.7,0,1.3,0,2c0,0.7-0.1,1.3-0.1,2c0,0.6-0.1,1.2-0.1,1.8c0,0.6-0.1,1.2-0.1,1.8c0,0.2-0.1,0.4-0.1,0.6c0,0.2,0,0.4,0,0.5
	c-0.1,0.5-0.1,1-0.2,1.5c0,0.5-0.1,1-0.1,1.5c0,0.5-0.1,1.1-0.1,1.6c0,0.6-0.1,1.1-0.1,1.6c0,0.4-0.1,0.9-0.1,1.3
	c0,0.4,0,0.9-0.1,1.3V55c0.1,0.4,0.3,0.5,0.6,0.3c0.2-0.1,0.4-0.3,0.7-0.6c0.2-0.4,0.4-0.7,0.5-1.1c0.3-0.6,0.5-1.2,0.8-1.8
	c0.3-0.6,0.5-1.2,0.8-1.8c0.1-0.4,0.3-0.7,0.4-1.1c0.2-0.4,0.3-0.8,0.4-1.1c0.3-0.7,0.5-1.4,0.8-2.1c0.2-0.7,0.5-1.4,0.8-2.1
	c0.1-0.3,0.2-0.6,0.3-0.9c0.1-0.3,0.2-0.6,0.3-1c0.1-0.3,0.2-0.5,0.3-0.8c0-0.1,0.1-0.2,0.1-0.3l0,0c0.1-0.4,0.3-0.7,0.4-1
	c0.1-0.3,0.3-0.7,0.4-1l0.4-1.2c0-0.1,0.1-0.2,0.1-0.4c-0.1-0.2-0.2-0.4-0.2-0.6c0-0.2-0.1-0.3-0.2-0.6c-0.1-0.3-0.2-0.5-0.3-0.8
	c-0.1-0.3-0.1-0.6-0.2-0.9c-0.1-0.4-0.2-0.7-0.2-1c0-0.3,0-0.6,0-1c0.1-1.4,0.5-2.6,1.1-3.6c0.6-0.8,1.4-1.4,2.3-1.7
	c0.4-0.2,0.9-0.3,1.4-0.3c1.1,0,2,0.3,2.8,1c0.5,0.5,0.9,1.2,1,1.9c0.1,0.9-0.1,1.7-0.5,2.4c-0.2,0.4-0.5,0.8-0.7,1.2
	c-0.2,0.4-0.5,0.8-0.7,1.2c-0.1,0.1-0.1,0.2-0.1,0.3c0.1,0.2,0.2,0.4,0.3,0.6c0.1,0.2,0.2,0.4,0.3,0.6c0.1,0.2,0.2,0.4,0.3,0.7
	c0.1,0.2,0.2,0.4,0.3,0.7c0.2,0.4,0.3,0.7,0.5,1.1c0.2,0.4,0.3,0.7,0.5,1.1c0.1,0.3,0.3,0.6,0.4,0.9c0.2,0.3,0.3,0.6,0.4,1
	c0.1,0.3,0.3,0.6,0.4,0.9c0.2,0.3,0.3,0.6,0.4,0.9l0.6,1.4c0,0.1,0.1,0.2,0.1,0.3c0,0.1,0.1,0.2,0.1,0.3c0.2-0.2,0.3-0.3,0.5-0.5
	c0.2-0.1,0.3-0.3,0.4-0.4c0.7-0.7,1.3-1.5,1.9-2.4c0.2-0.3,0.4-0.5,0.7-0.8c0.2-0.2,0.4-0.5,0.7-0.7c0.3-0.4,0.6-0.5,0.9-0.4
	c0.3,0.1,0.6,0.3,0.8,0.5c0.1,0.2,0.2,0.5,0.2,0.9c0,0.3-0.1,0.6-0.3,0.9c-0.6,1-1.3,2-2.1,3c-0.4,0.4-0.8,0.9-1.2,1.3
	c-0.4,0.4-0.9,0.8-1.3,1.2c-0.1,0-0.2,0.1-0.1,0.3c0,0.2,0.1,0.4,0.2,0.7c0,0.2,0.1,0.4,0.1,0.6c0,0.2,0.1,0.3,0.1,0.5
	c0,0.2,0.1,0.3,0.1,0.5c0,0.2,0,0.3,0,0.6c0,0.3,0,0.6,0,0.9c0,0.3,0,0.6-0.1,0.9c0,0.5-0.1,1.1-0.3,1.8c-0.2,0.6-0.5,1.2-0.8,1.7
	c-0.3,0.5-0.7,1.1-1.2,1.5c-0.4,0.4-1.1,0.8-1.8,1.1c-1,0.4-1.9,0.5-2.9,0.3c-1.3-0.1-2.4-0.8-3.2-2.1c-0.4-0.7-0.6-1.5-0.5-2.2
	c0-0.2,0-0.4,0-0.5c0-0.2,0-0.4,0.1-0.5c0.2-1.1,0.6-2,1.2-2.9c0.2-0.3,0.5-0.6,0.7-0.9c0.3-0.3,0.5-0.5,0.7-0.8l0.7-0.7
	c0,0,0-0.1,0-0.3c-0.1-0.4-0.3-0.7-0.4-1c-0.1-0.3-0.2-0.7-0.4-1c-0.1-0.4-0.3-0.7-0.4-1.1c-0.2-0.4-0.3-0.7-0.4-1.1l-0.6-1.6
	c-0.1-0.2-0.2-0.5-0.3-0.7c-0.1-0.2-0.2-0.5-0.3-0.7l-0.1-0.3c0,0-0.1,0.2-0.2,0.5c-0.1,0.2-0.3,0.4-0.4,0.6c0,0,0,0.1-0.1,0.1
	c-0.2,0.7-0.4,1.4-0.7,2.1c-0.3,0.8-0.5,1.5-0.8,2.3l-2.2,5.6c-0.2,0.6-0.5,1.2-0.8,1.7c-0.3,0.6-0.6,1.1-0.8,1.7
	c-0.5,1-1.1,1.9-1.9,2.6c-0.7,0.6-1.5,0.9-2.3,0.9c-0.2,0-0.6,0.1-1,0.1c-0.8,0-1.6-0.2-2.3-0.8c-0.7-0.6-1.2-1.3-1.6-2.1
	c-0.1-0.3-0.2-0.5-0.3-0.8c-0.1-0.3-0.2-0.6-0.3-0.9c-0.1-0.4-0.1-0.8-0.2-1.2c0-0.2,0-0.4,0-0.6c-0.1,0.1-0.1,0.3-0.2,0.4
	c-0.3,0.6-0.5,1.3-0.8,1.9c-0.5,1.1-1.1,2-1.9,2.8c-0.6,0.7-1.3,1.1-2.3,1.3c-0.2,0-0.4,0.1-0.6,0.1c-0.2,0-0.4,0-0.6,0
	c-1.5,0-2.7-0.6-3.5-1.9c-0.3-0.5-0.5-1.1-0.6-1.8c-0.1-0.5-0.2-1-0.3-1.4c-0.1-0.5-0.1-0.9-0.2-1.4c0-0.3-0.1-0.6-0.1-0.9
	c0-0.3,0-0.6-0.1-0.9c-0.1-1-0.1-2-0.1-3c0-1,0-1.9,0-2.9l-0.2-3.8c0-0.2,0-0.5,0-0.7c0-0.2,0-0.5,0-0.7c-0.1-0.3-0.1-0.6-0.2-0.9
	c0-0.3-0.1-0.6-0.2-0.9c-0.1-0.5-0.2-1.1-0.4-1.6c-0.1-0.2-0.2-0.4-0.3-0.6c-0.1-0.2-0.2-0.4-0.4-0.5c-0.2-0.3-0.5-0.5-0.9-0.6
	c-0.4-0.1-0.7-0.1-1.1,0.2c-0.2,0.1-0.3,0.2-0.5,0.3c-0.2,0.1-0.3,0.2-0.4,0.3c-0.9,0.8-1.7,1.6-2.3,2.4c-0.4,0.5-0.7,1-1,1.5
	c-0.3,0.5-0.5,1.1-0.8,1.6c-0.2,0.6-0.4,1.1-0.5,1.5c-0.1,0.4-0.1,0.7-0.1,1c0,0.3,0,0.6-0.1,1c-0.1,0.6-0.1,1.3-0.2,1.9
	c0,0.6-0.1,1.3-0.1,2c0,0.5-0.1,1-0.1,1.4c0,0.5,0,1-0.1,1.4l-0.2,3.2v0.8c0,0.8-0.2,1.5-0.5,2.1c-0.5,1-1.3,1.7-2.1,2
	c-0.9,0.3-1.9,0.3-3,0c-0.4-0.1-0.7-0.2-0.9-0.3v-0.3c0-0.7,0.1-1.4,0.1-2.1c0-0.7,0.1-1.3,0.2-2c0.1-0.8,0.1-1.6,0.2-2.4
	c0-0.8,0-1.6,0-2.4c0-0.7,0.1-1.4,0.1-2c0-0.7,0-1.4,0-2c0-0.5,0.1-1,0.1-1.4c0-0.4,0-0.9,0-1.3v-3.8c0-0.6,0.1-1.2,0.1-1.7
	c0-0.6,0-1.2,0-1.7c0-0.4,0.1-0.9,0.1-1.3c0-0.4,0-0.9,0-1.3c0-0.7,0.1-1.4,0.1-2.1c0-0.7,0-1.4,0.1-2.2v-2c0-0.7,0.1-1.4,0.1-2.1
	c0-0.7,0-1.4,0-2.1c0-0.5,0-1,0-1.4c0-0.4,0-0.9,0-1.4c0-0.1-0.1-0.2-0.1-0.3c0-0.1,0-0.2-0.1-0.3c0.5-0.1,1-0.2,1.4-0.3
	c0.4-0.1,0.9-0.1,1.4,0c0.4,0.1,0.7,0.2,1,0.2c0.3,0.1,0.6,0.2,0.9,0.4c0.6,0.3,1.1,0.8,1.4,1.5c0.2,0.3,0.3,0.6,0.3,1
	c0,0.3,0.1,0.7,0.1,1v2.8c0,0.7-0.1,1.4-0.1,2.1c0,0.7,0,1.4,0,2.2c0,0.7-0.1,1.4-0.1,2c0,0.7,0,1.4-0.1,2.1c0,0.4,0,0.8,0,1.2
	c0,0.4,0,0.9,0,1.3c0,0.2,0,0.4,0.1,0.5c0.1-0.1,0.2-0.2,0.2-0.3c0-0.1,0.1-0.2,0.2-0.3c0.4-0.8,0.9-1.5,1.4-2.2
	c0.5-0.7,1.2-1.3,1.9-1.7c0.6-0.4,1.3-0.8,2.1-1C207,31.4,208,31.4,209.2,31.5z M240.5,51.5c-0.1,0.1-0.1,0.1-0.2,0.2
	c-0.2,0.2-0.4,0.4-0.6,0.7c-0.2,0.2-0.3,0.4-0.5,0.7c-0.2,0.4-0.3,0.7-0.3,0.9c-0.1,0.4-0.1,0.7,0,1c0,0.1,0,0.4,0.1,0.7
	c0.1,0.2,0.3,0.3,0.5,0.4c0.3,0.1,0.5,0.1,0.7,0c0.3-0.1,0.5-0.4,0.8-0.7c0.1-0.2,0.2-0.4,0.3-0.6c0-0.2,0.1-0.4,0.1-0.6
	c0-0.4,0-1-0.1-1.5l-0.4-1c0-0.1-0.1-0.2-0.1-0.3c0-0.1-0.1-0.2-0.1-0.3C240.6,51.3,240.6,51.4,240.5,51.5z M237.8,29.3
	c0,0.3,0.1,0.6,0.3,1.1c0.1,0.4,0.3,0.7,0.5,1c0.2,0.3,0.4,0.6,0.6,0.9c0,0,0.1,0.2,0.2,0.3c0.1-0.1,0.2-0.3,0.2-0.4
	c0.1-0.1,0.1-0.2,0.2-0.3c0.2-0.3,0.3-0.5,0.5-0.8c0.1-0.2,0.2-0.5,0.3-0.8c0.1-0.4,0.1-0.7-0.1-1.1c-0.3-0.6-0.9-0.9-1.6-1
	c-0.4,0-0.6,0-0.8,0.2C237.9,28.6,237.8,28.9,237.8,29.3z M223.2,25.2c0.5,0.4,1,0.6,1.6,0.6c1.3,0,2.2-0.5,2.8-1.5
	c0.7-1,0.7-2.1,0.1-3.4c-0.5-0.9-1.2-1.4-2.1-1.6c-1.3-0.2-2.3,0.2-3.1,1.1c-0.8,1-1,2.1-0.5,3.4C222.3,24.4,222.7,24.8,223.2,25.2z
	"/>
</svg>
