<?xml version="1.0" encoding="utf-8"?>
<!-- Generator: Adobe Illustrator 18.0.0, SVG Export Plug-In . SVG Version: 6.00 Build 0)  -->
<!DOCTYPE svg PUBLIC "-//W3C//DTD SVG 1.1//EN" "http://www.w3.org/Graphics/SVG/1.1/DTD/svg11.dtd">
<svg version="1.1" id="Layer_1" xmlns="http://www.w3.org/2000/svg" xmlns:xlink="http://www.w3.org/1999/xlink" x="0px" y="0px"
	 viewBox="0 0 432 432" enable-background="new 0 0 432 432" xml:space="preserve">
<path fill="#333333" d="M101.9,22.2c-0.4-1.2,0.7-2.5,1.9-3.1c1.8-0.9,3.9-1.3,5.9-1.5c5.8-0.7,11.4-0.9,17.2-0.4
	c2.5,0.1,5.2,0.4,7.6,1.3c1.5,0.4,3,1.8,2.4,3.1c-0.3,0.9-1.5,1.2-2.5,1.3c-2.8,0.3-5.6,0.6-8.5,0.7c0,21.5,1,42.8,3.1,64.2
	c0.1,1.6,0.1,3.6-1.3,4.3c-0.4,0.3-1,0.3-1.6,0.3c-4.9-0.1-6.1-4.7-7.1-8.6c-1.3-4.9-2.4-9.6-3.4-14.5c-1.8-9.8-2.7-19.6-2.8-29.5
	c-0.1-5.2,0.1-10.4,0.6-15.4c-3,0.3-5.9,0.1-8.9-0.6C103.4,23.7,102.2,23.2,101.9,22.2z M136.8,55.1c0.6-6.4,1.8-12.7,3.6-19
	c1.3-4.3,3.1-8.6,5.3-12.6c1.9-3.4,4.2-6.5,7.1-9c1.8-1.5,3.6-2.7,5.8-3.6c2.8-1,5.5-1,8.3,0c3.9,1.2,6.5,4.9,6.8,9.3
	c0.1,2.5-0.1,5.2-1,7.6c-2.2,7-6.1,12.5-12.6,15.9c-0.7,0.3-1.2,0.6-1.2,0.6c-1.6,4-4.4,8.4-7.1,11.7c-1.6,2.2-3.4,4.3-5.3,6.4
	c-0.7,0.9-1,1.9-1,3c0,1.9,0,3.9,0.3,5.9c0.3-0.4,0.6-0.9,0.7-1.3c1.5-3.6,3.1-7,5.2-10.2c1.3-2.2,2.8-4.3,4.9-5.9
	c1.8-1.3,3.9-2.2,6.1-1.8c4.6,0.9,6.7,3,7.7,7.6c0.7,3.9,0.6,7.9,0.1,11.7c-0.7,5.8-2.2,11.3-3.6,16.9c-0.6,2.6-1.1,5.3-1.3,8h0.1
	c1.4-2.4,12.5-24.4,19.2-32.3c0.1-0.7,0.2-1.4,0.4-2.1c0.4-3.1,1.2-6.4,2.1-9.5c0.3-1.3,0.9-2.5,1.6-3.6c1.6-2.2,4.9-2.5,6.7-0.7
	c0.6,0.6,1,1.5,1.2,2.2c0.1,1,0.1,2.2,0,3.3c-1.2,8.9-2.5,17.8-3.7,26.8c-0.1,0.9-0.1,1.8-0.3,3c2.8-2.8,13-15.9,15.7-18.5
	c0.2-0.2,0.5-0.4,0.7-0.6c-0.6-1.6-1-3.4-1.1-5.2c-0.7-6.5,3.1-12.6,9.2-14.1c2.5-0.7,5.2-0.6,7.7,0.3c5,1.8,8.7,6.4,8.5,11.9
	c-0.1,1.6-0.6,3.7-1.8,4.9c-0.9,0.9-2.1,1-3.3,0.6c-1.2-0.3-1.3-1.3-1.3-2.4c-0.1-1.5,0-2.8-0.3-4.3c-0.3-2.8-1.2-5.5-4-7.4
	c-1.3,1-1.9,2.5-2.2,4c-0.6,1.9-0.4,4-0.1,5.9c0.7,5,3,9.2,6.1,13.2l0.4,0.3c3.1-1.2,3.1-1.2,6.1-2.4c1.3-0.4,5.8-2.1,7-2.8
	c1.2-0.6,2.4-1.3,3.6-2.1c0.7-0.7,1.5-1.5,2.2-2.1c0.4-0.4,0.9-0.6,1.3-0.7c0.6-0.1,1,0,1.3,0.4c0.3,0.3,0.3,0.7,0.1,1.2
	c-0.1,0.4-0.4,0.9-0.7,1.2c-3.3,3.7-8.3,6.2-12.7,8c-0.4,0.1-6.2,2.4-6.1,2.7c0.3,0.3,0.7,1,1,1.5c1.6,2.5,3.1,5.2,3.7,8.2
	c1.5,6.5-2.7,12.6-9.3,13.6c-1.8,0.1-3.4,0.1-5.2-0.1c-4.4-0.7-6.7-4.3-5.5-8.7c0.9-3.3,2.4-6.1,4.4-8.9c0.4-0.6,1-1.3,1.6-2.1
	c-0.7-0.7-1.3-1.5-1.8-2.1c-2.1-2.5-4.3-5-6.2-7.7c-0.4-0.5-0.7-1-1-1.5c-4.9,5.9-13.1,16.1-15.7,18c-2.8,1.8-5.9,1.8-8-0.9
	c-1.5-1.8-2.2-3.9-2.5-6.1c-0.3-2.8-0.4-5.5-0.2-8.2c-3.2,5.4-6.1,11-8.9,16.7c-1.3,2.5-2.7,5.2-4,7.9c-1.3,2.5-2.4,5.6-4.4,7.7
	c-1.2,1.2-3.1,2.1-4.7,1.6c-1-0.3-1.9-0.9-2.5-1.8c-2.7-3.1-2.7-8-2.7-11.9c0-4,0.6-8,1.2-11.9c0.6-3.6,1.3-7.1,1.8-10.7
	c0.6-3.4,1.2-7.1,0.7-10.5c0-0.4-0.1-0.7-0.3-1.6c-1.2,0.9-2.1,1.5-3,2.2c-2.2,2.1-3.9,4.7-5.2,7.6c-2.5,5-4.3,10.4-5,15.9
	c-0.1,1.9,0,3.9,0,5.8s-0.6,2.5-2.4,2.5c-1.8-0.1-3.3-0.7-4-2.5c-0.6-1.3-1.2-2.8-1.6-4.2C136.5,73.8,135.9,64.6,136.8,55.1z
	 M217.1,90.2c-0.3,1.6,0,3.1,0.9,4.6c0.9,1.3,1.9,1.6,3.4,1c2.5-0.9,4-3.4,3.7-6.2c-0.3-2.8-1.3-5.5-3.4-8
	C219.6,84.4,217.9,87.1,217.1,90.2z M156.5,36.3c-5.3-0.9-5.3,6.7,0.1,6.2C157.7,40.4,158.6,36.7,156.5,36.3z M145.7,58.9
	c1.5-1.5,2.5-2.8,3.4-4c2.4-2.7,6.8-9.9,7-10.4c-6.5,1.8-7.3-6.4-4.7-8.5c1.2-1,2.7-1.6,4.4-1.5c2.8,0,5.8,2.7,4.2,6.4
	c0.3,0,1.6-1,1.9-1.3c4-4,6.8-8.6,8-14.2c0.6-3,0.3-5.9-1-8.7c-2.1-4.6-5.2-5.2-8.9-1.9c-1.8,1.6-3.3,3.7-4.4,5.8
	c-1.9,3.3-3.3,6.7-4.3,10.1c-1.9,6.5-3.4,12.9-4.4,19.6C146.2,52.9,146,55.7,145.7,58.9z M190.6,43.1c1.2,1,2.8,1.3,5,1.3
	c1,0,1.9-0.6,2.1-1.6c0.1-1.5-0.6-2.7-2.1-3c-1.6-0.4-3.1-0.7-4.7,0C189.2,40.6,189.1,41.9,190.6,43.1z M120.7,259.3
	c-2.2-1.3-4.6-3.2-7.2-5.5c-2.6-2.4-5.5-5.3-8.5-9c-3-3.6-6.3-8.1-9.7-13.3c-3-4.6-6.1-9.5-9.4-14.8c-3.3-5.3-6.8-11-10.5-17.1
	c-0.2,9-0.1,18,0.3,27c0.4,9,1.2,18,2.4,26.9c0.2,1.5,0,2.9-0.7,4.3c-0.7,1.4-1.7,2.4-3.1,3c-1.5,0.9-3.2,1.1-5,0.9
	c-1.9-0.3-3.6-1-5-2.2c-0.9-0.5-1.6-1.2-2.1-1.9c-0.5-0.7-0.9-1.6-1-2.6c-0.2-1.9-0.5-4.8-0.8-8.5c-0.3-3.7-0.6-8.3-0.9-13.7
	c-0.3-5.4-0.5-11.5-0.6-18.3c-0.1-6.8-0.1-14.2,0.2-22.2c-2.4,0.4-4.8,0.7-7.5,1c-2.6,0.2-5.4,0.2-8.3,0c-7.7-0.3-14-2-19-5
	c-5-3-8.2-7.5-9.5-13.6c-0.5-3.3-0.4-6.4,0.3-9.1c0.6-2.5,1.9-4.8,3.9-7.1c2-2.2,5.2-3.8,9.5-4.8c3.3-0.7,6.3-0.9,8.9-0.6
	c2.6,0.4,5,1,7.1,1.8c3.1,1.2,5.9,2.9,8.4,5.1c2.5,2.2,4.9,4.9,7.1,7.9c0.7-10.7,1.9-21.9,3.4-33.6C65,122.8,67,110.6,69.6,98
	c0.2-1.5,0.8-2.8,1.8-3.9s2.2-1.8,3.7-2c1.5-0.2,3.1-0.1,4.7,0.3c1.7,0.4,3.2,1.4,4.6,2.9c1.4,1.4,1.9,3,1.6,5
	c-0.4,2.1-1.1,5.6-1.9,10.3c-0.9,4.8-1.8,10.5-2.7,17.2s-1.9,14.3-2.8,22.6c-0.9,8.3-1.7,17.2-2.3,26.5c4.8-2.8,9.1-5.9,12.9-9.4
	c3.8-3.5,7.1-7.2,9.9-11.3c1-1.5,2-3.1,2.9-4.6c-0.3-1.1-0.4-2.2-0.3-3.2c0.2-1.4,0.6-2.8,1.4-4c0.8-1.2,1.9-2.2,3.3-3
	c0.1-0.1,0.2-0.1,0.4-0.2c0.3-0.7,0.5-1.5,0.8-2.2c1.9-5.9,3-11.5,3.4-16.8c0.4-5.3,0.1-10-0.7-14.1c-0.9-4.1-2.1-7.1-3.8-9.1
	c-0.6-0.7-0.8-1.6-0.6-2.6c0.3-1,0.8-1.6,1.7-1.9c1.4-0.4,2.9-0.8,4.4-1.1c1.5-0.3,3.1-0.4,4.6-0.2c1.5,0.2,3,0.7,4.5,1.6
	c1.4,0.9,2.6,2.1,3.6,3.8c0.4,0.6,0.8,1.6,1.2,2.9c0.4,1.3,0.7,2.4,0.9,3.4c0.3,2.1,0.4,5.6,0.3,10.3c-0.1,4.7-1,10.1-2.6,16.1
	c-1.6,5.8-4,12-7.4,18.6c0.9,2.2,2.4,4.2,4.5,5.9c2.1,1.7,5,3.1,8.5,4.2c3.5,1.1,7.9,1.7,13.1,1.7c1.5,0,3.1-0.1,4.9-0.2
	c1.8-0.2,3.6-0.3,5.4-0.6c1-5.5,2-10.6,3.1-15.4c1.1-4.8,2.3-9.1,3.4-12.8c0.5-1.4,1.5-2.1,3-2.1c1.2,0,2.6,0.2,4.4,0.6
	c1.8,0.4,3.4,1.3,5,2.8c0.9,0.6,1.4,1.5,1.7,2.5c0.3,1,0.2,2-0.1,3c-0.5,1.8-1.2,4.3-1.9,7.5c-0.7,3.2-1.6,6.9-2.4,11.2
	c4.6-1,9.3-2.1,14.1-3.3c-0.7-1.4-0.9-2.9-0.8-4.5c0.1-1.7,0.6-3.1,1.5-4.2c0.9-1.1,2-1.8,3.3-2.3c1.3-0.5,2.6-0.7,4.1-0.8
	c1.4-0.1,2.8,0,3.9,0.1c1,0.1,1.8,0.5,2.5,1.3c0.7,0.7,1,1.7,0.9,2.7c-0.1,1-0.1,2.2,0,3.6c1.4-0.4,2.8-0.8,4.2-1.2
	c5.6-1.6,10.9-3.2,16.1-4.6c2.6-0.7,5-1.4,7.3-2.1c0.1-0.3,0.1-0.5,0.1-0.8c3.1-15.9,7.3-29.4,12.5-40.3c5.2-11,11-19.7,17.2-26.1
	c6.2-6.5,12.5-10.8,18.9-13c6.4-2.2,12.3-2.5,17.8-0.9c3.6,1.1,6.7,3,9.3,5.9c2.6,2.9,4.5,6.4,5.9,10.6c1.3,4.2,2.1,8.8,2.3,13.9
	c0.2,5.1-0.2,10.4-1.3,15.8c-1.1,5.4-2.8,10.8-5.1,16.2c-2.4,5.4-5.4,10.5-9.1,15.3c-7.6,9.8-16.5,17.8-26.7,23.9
	c-10.2,6.1-21,9.7-32.5,10.7c-0.5,3.1-1.1,7.5-1.6,13.2c-0.5,5.7-0.9,12.5-1.1,20.4c0.7-3.5,1.7-7.1,2.9-10.7
	c1.2-3.6,2.5-6.9,4.1-9.9c1.5-2.9,3.3-5.4,5.4-7.5c2-2,4.3-3.2,6.7-3.5c1.4-0.2,2.8-0.2,4.2,0c1.2,0.2,2.4,0.7,3.7,1.4
	c1.3,0.7,2.4,1.9,3.4,3.6c1.5,2.7,2.3,5.7,2.5,9c0.2,3.3,0.1,6.6-0.2,9.8c-0.1,1.1-0.2,2.1-0.3,3.2c-0.1,0.9-0.2,1.8-0.4,2.8
	c-0.2,1-0.3,2-0.4,2.8c-0.3,2.4-0.6,4.6-0.8,6.7c-0.2,2.1-0.3,4-0.2,5.6c0.1,1.7,0.3,3,0.6,4c0.3,1,0.9,1.6,1.6,1.7
	c1.4,0.2,2.8-0.7,4.2-2.6c1.4-2,2.8-4.3,4.1-7.1c1.3-2.7,2.4-5.5,3.4-8.3c0-0.1,0.1-0.2,0.1-0.3c0-2,0.2-4.1,0.5-6.5
	c0.7-5.1,2-9.7,3.8-13.8c0.7-1.7,1.7-3.4,2.7-5c1.1-1.6,2.3-3,3.7-4.2c1.4-1.2,3-2.2,4.8-2.9c1.8-0.7,3.8-1,6.1-0.9
	c2.9,0.2,5.1,1.1,6.7,2.7c1.5,1.6,2.5,3.5,2.8,5.8c0.3,2.2,0.1,4.7-0.6,7.4c-0.7,2.7-1.8,5.2-3.4,7.5c-1.6,2.4-3.6,4.4-6,6
	c-2.4,1.7-5,2.6-7.9,2.8c0,1.7,0.1,3.8,0.4,6.2c0.3,2.4,0.8,4.7,1.6,6.8c0.8,2.1,2,3.9,3.5,5.2c1.5,1.3,3.7,1.8,6.3,1.4
	c1.3-0.2,2.7-1.4,4.2-3.4c1.5-2.1,3-4.5,4.4-7.1c1.4-2.7,2.6-5.3,3.8-7.9c0.4-0.9,0.7-1.7,1-2.5c0.1-1.1,0.3-2.2,0.5-3.3
	c0.7-4.2,1.7-8.2,2.7-11.9c1.1-3.7,1.9-6.4,2.6-8.3c0.3-1.2,1.3-1.9,3-2.1c1.5,0,3.3,0.1,5.5,0.2c2.1,0.2,4.1,0.7,5.8,1.5
	c1.8,1.1,2.5,2.5,1.9,4.2c-0.4,1.2-0.9,2.7-1.5,4.6c-0.6,1.9-1.2,4.1-1.8,6.5c-0.6,2.4-1.3,4.9-1.8,7.6c-0.6,2.7-1,5.3-1.4,8
	c1.3-3.6,2.9-7.8,5-12.6c2-4.8,4.4-9.2,7.1-13.5c2.7-4.2,5.6-7.8,8.8-10.7c3.2-2.9,6.6-4.3,10.3-4.2c3.1,0.1,5.5,0.8,7.3,2.2
	c1.8,1.3,3,3,3.8,5c0.8,2,1.3,4.3,1.4,6.8c0.1,2.5,0,5-0.3,7.5c-0.3,2.5-0.7,4.9-1.3,7.3c-0.5,2.4-1,4.4-1.3,6.1
	c-2.1,6.8-3.8,13-5,18.6c-0.5,2.4-1,4.7-1.4,7c-0.4,2.3-0.7,4.4-0.9,6.3c-0.2,1.9-0.1,3.6,0.1,4.9c0.2,1.3,0.6,2.2,1.3,2.5
	c1,0.5,2.3,0.1,3.9-1.2c1.7-1.3,3.5-3.3,5.5-5.9c2-2.6,4.1-5.6,6.2-9.1c2.1-3.4,4.1-6.9,6-10.6c1.6-3,3-6.2,4.3-9.6
	c1.3-3.4,2.2-5.9,2.7-7.5c0.4-1,1.1-1.2,1.9-0.6c0.1,0.1,0.4,0.3,0.8,0.5c1,1,1.3,2,1,3.2c-0.2,0.9-0.5,2-0.9,3.4
	c-0.4,1.4-0.9,3-1.4,4.7c-0.6,1.8-1.3,3.6-2.1,5.5c-0.8,1.9-1.7,3.8-2.6,5.6c-3,6.2-6.2,11.6-9.6,16.4c-1.5,2-3.1,4-4.7,5.9
	c-1.7,1.9-3.4,3.5-5.1,4.8c-1.8,1.3-3.6,2.3-5.4,3c-1.8,0.7-3.6,0.9-5.5,0.6c-3.1-0.5-5.4-2.3-6.9-5.4c-1.5-3-2.5-6.5-3-10.3
	c-0.5-3.8-0.6-7.6-0.4-11.4c0.2-3.8,0.5-6.7,0.8-8.7c0.9-4.7,1.9-9.2,3.1-13.6c1.2-4.4,2.4-8.3,3.4-11.9c1.1-3.5,1.8-6.5,2.2-8.8
	c0.4-2.3,0.3-3.9-0.5-4.6c-0.6-0.5-1.4-0.6-2.2-0.2c-0.8,0.4-1.6,0.8-2.5,1.4c-1,0.6-1.9,1.5-2.7,2.6c-2.2,2.7-4.4,5.9-6.5,9.5
	c-2.1,3.7-4,7.5-5.6,11.3c-1.7,3.8-3.1,7.5-4.4,11.1c-1.3,3.5-2.3,6.5-3,8.8c-0.1,0.2-0.3,0.6-0.6,1.1c-0.3,0.5-0.7,1.1-1.3,1.6
	c-0.5,0.5-1.3,1-2.2,1.4c-0.9,0.4-2,0.6-3.3,0.6c-2.1,0-3.8-0.5-4.9-1.4c-1.1-0.9-2-1.7-2.5-2.3c-1.1-1.7-1.8-3.6-2.3-5.8
	c-0.4,0.9-0.8,1.7-1.2,2.6c-1.7,3.5-3.8,6.5-6.3,9.1c-2.5,2.6-5.4,3.9-8.7,3.9c-4.7,0.1-8.8-1-12.3-3.4c-1.5-1-2.9-2.3-4.2-3.9
	c-1.3-1.7-2.5-3.7-3.4-6.2c-0.4-1-0.7-2.2-1-3.4c-0.6,1.3-1.2,2.7-1.8,4c-1.2,2.4-2.5,4.5-4,6.5c-1.5,2-3.2,3.6-5,4.7
	c-1.8,1.2-3.8,1.7-5.9,1.6c-3.1-0.1-5.7-1.3-7.7-3.7c-2-2.3-3.5-5.5-4.5-9.5c-1-4-1.4-8.7-1.3-14.2c0.1-5.5,0.8-11.4,2.1-17.8
	c0.4-2.8,0.3-4.5-0.3-5.1c-0.5-0.3-1-0.4-1.3-0.3l-0.6,0.3c-1.3,1.1-2.5,2.6-3.6,4.6c-1.1,2-2.1,4.4-3,7.1c-0.9,2.7-1.8,5.5-2.6,8.5
	c-0.8,3-1.5,6-2.2,9c-1.5,7.1-2.7,14.6-3.7,22.8h-0.2c0.2,2.3-0.9,3.9-3.2,4.6c-1.5,0.4-2.9,0.4-4.1-0.2c-1.2-0.5-2.2-1.1-3-1.6
	c-1-0.6-1.5-1.6-1.8-2.9c-0.2-1.5-0.5-4-0.9-7.4c-0.3-2.7-0.5-5.9-0.7-9.8c-0.4,0.8-0.8,1.6-1.2,2.5c-1.7,3.5-3.8,6.5-6.3,9.1
	c-2.5,2.6-5.4,3.9-8.7,3.9c-4.7,0.1-8.8-1-12.3-3.4c-1.5-1-2.9-2.3-4.2-3.9c-1.3-1.7-2.5-3.7-3.4-6.2c-0.3-0.9-0.6-1.9-0.9-2.9
	c-0.8,2.1-1.6,4.2-2.6,6.4c-1.3,2.9-2.7,5.5-4.3,7.9c-1.6,2.3-3.3,4.3-5.2,5.8c-1.9,1.5-3.9,2.2-6,2.1c-2.4-0.2-4.5-1.3-6.4-3.4
	c-1.7-1.8-3.4-4.6-5-8.5c-0.9-2.2-1.6-4.9-2.2-8.1c-0.5,1.3-1.1,2.6-1.7,3.9c-1.2,2.6-2.6,5-4.2,7.1c-1.6,2.1-3.3,3.9-5.1,5.2
	c-1.9,1.3-3.9,1.9-6,1.8c-3.5-0.1-6.4-1.6-8.5-4.3c-2.1-2.8-3.6-6.6-4.2-11.5c-0.7-4.9-0.6-10.7,0.2-17.4c0.8-6.7,2.3-14.1,4.6-22
	c0.3-1.7,1.3-2.5,3-2.2c1.5,0,3.3,0.2,5.4,0.6c2.1,0.4,4,1.2,5.7,2.4c0.6,0.5,1.1,1.2,1.4,2c0.3,0.8,0.4,1.6,0.2,2.5
	c-0.3,1.5-0.8,3.5-1.4,6.1c-0.6,2.6-1.3,5.3-1.8,8.3c-0.6,3-1.1,6-1.7,9.1c-0.5,3-0.9,5.8-1.1,8.3c-0.2,2.5-0.2,4.6,0.2,6.3
	c0.3,1.7,1,2.5,1.9,2.6c1.4,0.2,2.8-0.7,4.2-2.7c1.4-2,2.7-4.5,4-7.5c1.3-3,2.5-6.1,3.5-9.5c0.1-0.3,0.2-0.6,0.3-0.9
	c-0.3-5.6-0.3-11.8,0.1-18.5c0.5-8,1.3-16,2.5-24c-8.5,1.2-15.8,1.4-21.6,0.8c-5.9-0.6-10.7-1.8-14.6-3.4c-2.6-1.1-4.8-2.3-6.6-3.7
	c-2.4,2.9-5,5.8-8,8.6c-1.7,1.6-3.8,3.4-6.3,5.3c-2.1,1.6-4.8,3.4-7.9,5.5c-3.1,2-6.7,4.1-10.9,6.3c7.6,13.1,14.1,23.9,19.6,32.2
	c5.5,8.3,10.6,14.9,15.1,19.6c4.6,4.7,9,7.8,13.3,9.2c4.3,1.4,9,1.8,14.3,1.2c0.7-0.1,1.4,0.1,1.9,0.6c0.5,0.5,0.9,1,1,1.7
	c0.1,0.9,0,1.9-0.2,3.1c-0.3,1.2-0.9,2.4-1.8,3.6c-1.5,2-3.4,3.4-5.8,4.1c-2.4,0.7-4.7,0.7-7.1-0.1
	C124.8,261.6,122.9,260.7,120.7,259.3z M291.6,200.8c1.2-0.5,2.5-1.4,4.1-2.6c1.5-1.2,3-2.8,4.2-5c1.1-1.8,1.7-3.3,1.9-4.5
	c0.2-1.2,0.2-2.1,0-2.9c-0.2-0.7-0.5-1.3-1-1.5c-0.4-0.3-0.8-0.3-1.1-0.2c-0.2,0-0.6,0.1-1.2,0.4c-0.6,0.3-1.3,0.9-2,2
	c-0.7,1.1-1.6,2.7-2.5,5C293.1,193.8,292.3,196.9,291.6,200.8z M245.6,128.5c-1,3.3-1.9,6.8-2.8,10.5c2.2-0.3,4.3-0.4,6.1-0.3
	c4.2,0.2,7.5,0.7,10.1,1.6c3,1.1,5.3,2.5,7.1,4.3c0.7,1,1.3,2,1.8,3.2c0.3,1,0.5,2,0.4,3.1c-0.1,1.1-0.5,2.3-1.4,3.4
	c-0.9,1-2.2,1.8-3.9,2.4c-1.8,0.6-3.7,0.9-5.9,0.8c-1,0-1.8-0.2-2.6-0.5c-0.6-0.2-1.3-0.6-1.9-1.1c-0.6-0.5-1-1.4-1.1-2.6
	c-0.3-2.9-2.6-4.3-6.8-4.3c-1.3,0-2.7,0.1-4.3,0.2c-1.2,5.5-2.3,11.3-3.4,17.4c7.5-1,14.5-3,21-6.1c6.5-3.1,12.4-6.9,17.6-11.3
	c5.2-4.4,9.8-9.3,13.5-14.7c3.8-5.3,6.7-10.7,8.7-16c2.2-5.9,3.6-11.7,4.2-17.5c0.5-5.8,0.4-11-0.4-15.7c-0.8-4.7-2.2-8.7-4.2-11.9
	c-2-3.2-4.4-5.1-7.1-5.8c-1.8-0.4-4.1-0.3-6.7,0.2c-2.7,0.6-5.6,2.1-8.7,4.5c-3.1,2.4-6.3,5.9-9.7,10.4c-3.4,4.5-6.7,10.6-10,18
	C252,108.6,248.8,117.7,245.6,128.5z M201.6,157.6c0.2,0.3,0.5,0.7,0.7,1c1.6,2,4,3.8,7.2,5.4c3.2,1.6,7.6,2.6,13.3,3
	c0.5-3.8,1.1-7.9,1.8-12c0.1-1,0.3-2,0.5-3C218.3,153.5,210.4,155.3,201.6,157.6z M162,221.6c0.3,3.5,0.9,6.3,1.8,8.3
	c0.9,2.1,2.3,3.1,4.1,3.1c1.4,0,2.9-1.3,4.5-4c1.6-2.7,3.2-5.7,4.6-9.2c1.5-3.5,2.8-6.9,3.9-10.3c0.1-0.4,0.3-0.9,0.4-1.3
	c0-2,0.2-4.1,0.5-6.3c0.7-5.1,2-9.7,3.8-13.8c0.7-1.7,1.7-3.4,2.7-5c1.1-1.6,2.3-3,3.7-4.2c1.4-1.2,3-2.2,4.8-2.9
	c1.8-0.7,3.8-1,6.1-0.9c3.5,0.2,6.1,1.4,7.7,3.7c1.6,2.2,2.2,4.9,1.9,7.9c-0.1,1.2-0.7,2.1-1.9,2.7c-1.2,0.6-2.2,0.9-3.2,0.6
	c-1,0-1.6-0.4-1.8-1.3c-0.2-0.4-0.3-0.8-0.2-1.1c0.2-1.4,0-2.3-0.6-2.9c-0.6-0.5-1.1-0.7-1.4-0.6c-0.2,0-0.7,0.2-1.5,0.7
	c-0.8,0.5-1.7,1.4-2.6,2.8c-0.9,1.4-1.8,3.4-2.7,6c-0.9,2.6-1.6,6.1-2,10.5c-0.2,4.7,0.1,8.8,0.8,12.3c0.3,1.5,0.7,2.9,1.3,4.3
	c0.5,1.4,1.2,2.6,2.1,3.6c0.9,1,1.9,1.8,3.1,2.2c1.2,0.5,2.7,0.6,4.4,0.2c1.4-0.2,2.9-1.4,4.4-3.4c1.5-2.1,3-4.5,4.4-7.1
	c1.4-2.7,2.6-5.3,3.7-7.9c0.3-0.7,0.6-1.4,0.8-2.1c0-2.5,0.1-5.2,0.2-8c0.3-7.2,0.9-15.4,2-24.4c-6.1-0.6-12.3-2.2-18.8-4.6
	c-4-1.7-7.4-3.5-10.4-5.5c-1.4-0.9-2.7-2-4-3.1c-6.5,1.5-13.2,2.9-20.4,4.2c-1,4.7-1.9,9.6-2.7,14.8c-0.9,5.2-1.6,10.3-2.2,15.4
	c-0.6,5.1-1.1,9.9-1.4,14.4C161.7,214.1,161.7,218.1,162,221.6z M59.5,178.8c-1.1-1.1-2.4-2.3-4-3.7c-1.6-1.4-3.3-2.8-5.2-4.1
	c-1.9-1.3-3.8-2.6-5.9-3.8c-2.1-1.2-4.2-2-6.3-2.6c-1.9-0.5-3.9-0.7-5.9-0.6c-2,0.2-3.8,0.6-5.4,1.4c-1.6,0.8-2.9,2-3.9,3.4
	c-1,1.5-1.5,3.3-1.5,5.3c0,2.6,0.9,4.7,2.6,6.4c1.8,1.7,4.1,3,6.9,3.9c2.8,0.9,6,1.5,9.5,1.7c3.5,0.2,6.9,0.1,10.2-0.3
	c3.1-0.5,6-1.2,8.8-1.9c0-0.9,0-1.7,0.1-2.6C59.5,180.5,59.5,179.6,59.5,178.8z M135.4,180.6c1.6,0.2,3,0.1,4.3-0.5
	c1.3-0.5,2-1.4,2.2-2.6c0.2-1.1-0.2-2.1-1.4-3c-1.1-0.9-2.5-1.5-4.1-1.7c-1.7-0.2-3.2-0.1-4.5,0.5c-1.3,0.5-2,1.3-2.2,2.4
	c-0.2,1.2,0.2,2.2,1.4,3.1C132.3,179.8,133.7,180.4,135.4,180.6z M49.5,266.3h-2.8c-0.9,0-1.9,1.3-2.9,3.8h1
	c0,9.6,0.3,20.8,0.9,33.5c0,22.3,2.2,33.5,6.7,33.5c2.5-1.9,3.8-3.8,3.8-5.7C56.2,288,54,266.3,49.5,266.3z M86,288.4h3.2
	c1.7,0,3.1-3.7,4-11.2c-2.3-7.4-6.3-11.2-12-11.2c-8,0-12,4.2-12,12.8c0,3.8,1.6,9.9,4.8,18.4c9.6,13.9,14.4,22.6,14.4,26.3v1.6
	c0,2.9-1.6,4.7-4.8,5.6c-0.8,0-2.4-1.6-4.8-4.8c-1-11.2-2.6-16.8-4.8-16.8h-2.4c-1,3.4-1.6,5.8-1.6,7.2c0,11.4,4.5,18.3,13.6,20.8
	c9-0.8,13.6-4,13.6-9.6c0-6.9-3.2-15.2-9.6-24.7c-6.4-6.5-9.6-14.3-9.6-23.1v-3.2c1.3-2.1,2.3-3.2,3.2-3.2H82c1,0,1.6,0.5,1.6,1.6
	v7.2C83.6,286,84.4,288.1,86,288.4z M133.2,330.7c-0.8,0-2.4-1.6-4.8-4.8c-1-11.2-2.6-16.8-4.8-16.8h-2.4c-1,3.4-1.6,5.8-1.6,7.2
	c0,11.4,4.5,18.3,13.6,20.8c9-0.8,13.6-4,13.6-9.6c0-6.9-3.2-15.2-9.6-24.7c-6.4-6.5-9.6-14.3-9.6-23.1v-3.2
	c1.3-2.1,2.3-3.2,3.2-3.2h0.8c1,0,1.6,0.5,1.6,1.6v7.2c0,3.9,0.8,6,2.4,6.4h3.2c1.7,0,3.1-3.7,4-11.2c-2.3-7.4-6.3-11.2-12-11.2
	c-8,0-12,4.2-12,12.8c0,3.8,1.6,9.9,4.8,18.4c9.6,13.9,14.4,22.6,14.4,26.3v1.6C138,328,136.4,329.9,133.2,330.7z M174.8,270.1v-0.8
	c0-1.2-2-2.4-5.9-3.4l-13.6,3.4c-2.8,0-4.2,18.1-4.2,54.3c0,7.9,4.8,12.5,14.4,13.6c1,0,4.1-0.5,9.3-1.7v-2.5c0-1.2-2-2.4-5.9-3.4
	c0,0.5-0.3,0.8-0.8,0.8h-5.1c-1.7-0.9-2.5-1.7-2.5-2.5v-14.4h4.2l5.9-1.7V310l-0.8-1.7c-5.6-0.5-8.5-1.4-8.5-2.5v-30.6
	C170.2,272.5,174.8,270.8,174.8,270.1z M202.3,324.7v-5.3h-0.9c-10.1,0-15.2,2.4-15.2,7.1c-0.7,6.5-2.2,9.8-4.4,9.8
	c-3-0.8-4.5-2.9-4.5-6.2c0-40.5,3-60.7,8.9-60.7c0-1.6,3-2.8,8.9-3.6c10.7,0,16.1,11.6,16.1,34.8c0,4.4,0.3,7.7,0.9,9.8
	c-0.6,18.4-2.4,27.6-5.3,27.6h-0.9C203.5,338.1,202.3,333.7,202.3,324.7z M202.3,309.6c0-5.8-0.3-16.5-0.9-32.1
	c-1.1-2.7-2.3-4.2-3.5-4.5h-3.6c-4.1,0-6.2,13.7-6.2,41.1c0.6,0,0.9,0.3,0.9,0.9C197.9,313.6,202.3,311.8,202.3,309.6z M232.2,330.7
	c-0.8,0-2.4-1.6-4.8-4.8c-1-11.2-2.6-16.8-4.8-16.8h-2.4c-1,3.4-1.6,5.8-1.6,7.2c0,11.4,4.5,18.3,13.6,20.8c9-0.8,13.6-4,13.6-9.6
	c0-6.9-3.2-15.2-9.6-24.7c-6.4-6.5-9.6-14.3-9.6-23.1v-3.2c1.3-2.1,2.3-3.2,3.2-3.2h0.8c1,0,1.6,0.5,1.6,1.6v7.2
	c0,3.9,0.8,6,2.4,6.4h3.2c1.7,0,3.1-3.7,4-11.2c-2.3-7.4-6.3-11.2-12-11.2c-8,0-12,4.2-12,12.8c0,3.8,1.6,9.9,4.8,18.4
	c9.6,13.9,14.4,22.6,14.4,26.3v1.6C237,328,235.4,329.9,232.2,330.7z M279.3,287.3v5.3c0,6.2,0.2,14.6,0.6,25.2
	c-2.4,12.8-6.8,19.3-13.3,19.3c-11.5,0-17.3-7.3-17.3-21.9v-4c0-29.7,3.1-44.5,9.3-44.5c0-0.4,1.1-0.6,3.3-0.6
	C271.8,266.1,277.6,273.1,279.3,287.3z M269.3,283.3c0-5.7-1.3-9.3-4-10.6h-0.6c-4.4,0-6.6,13.7-6.6,41.2c0,9.3,1.3,14,4,14h4
	c1.5,0,2.6-2.4,3.3-7.3V283.3z M317.2,309.8c0-10.7,0.3-24.2,0.8-40.5c-0.4-1.7-1.5-2.9-3.5-3.5c-2.3,0-3.8,1.2-4.4,3.5l0.8,4.4
	c-0.5,9.7-0.8,17.1-0.8,22v0.8h-0.9l-1.7-0.8c-7.9-19.4-13.8-29-17.6-29l-2.6,3.5c0.6,4,0.9,7.2,0.9,9.7v47.5c0,3.1,1.1,5.2,3.5,6.1
	h2.6c1.1-5.2,1.7-9.1,1.7-11.4v-31.7h0.9c8.2,12.8,12.3,19.8,12.3,21.1v17.6c0,4.5,1.2,7.1,3.5,7.9h1.7c0.8,0,1.7-1.2,2.6-3.5
	l-0.9-1.7c0.6-6.4,0.9-12,0.9-16.7V309.8z M349.6,270.1v-0.8c0-1.2-2-2.4-5.9-3.4l-13.6,3.4c-2.8,0-4.2,18.1-4.2,54.3
	c0,7.9,4.8,12.5,14.4,13.6c1,0,4.1-0.5,9.3-1.7v-2.5c0-1.2-2-2.4-5.9-3.4c0,0.5-0.3,0.8-0.8,0.8h-5.1c-1.7-0.9-2.5-1.7-2.5-2.5
	v-14.4h4.2l5.9-1.7V310l-0.8-1.7c-5.6-0.5-8.5-1.4-8.5-2.5v-30.6C345,272.5,349.6,270.8,349.6,270.1z M385.1,280.6
	c1.1,7.9,1.6,12.4,1.6,13.3c0,23-3.6,36.3-10.8,39.9c-2.8,1.4-6.7,2.6-11.6,3.3c-7.7-1.3-11.6-2.9-11.6-5c0.1-1.1,0.7-1.6,1.6-1.6h5
	v-54.8c-2.7-3-4.1-4.7-4.1-5v-0.8c0-2.2,4.4-3.9,13.3-5C377,264.8,382.6,270.1,385.1,280.6z M377.6,297.2c-0.5-17.2-2.2-25.8-5-25.8
	h-2.5c-1.2,0-2.1,1.4-2.5,4.2c0,7.2,0.2,13.9,0.8,19.9c-0.5,9.4-0.8,19.9-0.8,31.6v2.5h1.6C374.8,329.6,377.6,318.8,377.6,297.2z
	 M59.7,62.7l0,0.6c0,0.2,0.1,0.3,0.3,0.3l0.8,0l0,1.2c0,0.2,0.1,0.3,0.3,0.3l34.5,1.1c0.2,0,0.3-0.1,0.3-0.3l0-1.2l0.8,0
	c0.2,0,0.3-0.1,0.3-0.3l0-0.9c2.1,0.7,7,2.5,7.1-0.1c0.1-2.7-4.8-1.5-7.1-1l0-0.6c0-0.2-0.1-0.3-0.3-0.3l-0.8,0l0-1.2
	c0-0.2-0.1-0.3-0.3-0.3l-34.5-1.1c-0.2,0-0.3,0.1-0.3,0.3l0,1.2l-0.8,0c-0.2,0-0.3,0.1-0.3,0.3l0,0.9c-2.1-0.7-7-2.5-7.1,0.1
	C52.6,64.3,57.5,63.2,59.7,62.7z M37.7,301.1c-3.8,0.2-7.5-1.9-10.5-4.1c-2.2-1.6-4.3-3.3-6-5.3c-3.6-4.3-3.9-4.5-5.3-8.7
	c-0.7-2-2.4-2.9-4.5-2.8c-1.6,0-2.6,1.3-3,2.7c-1.2,4.1,2.7,8.2,5.3,10.7c2.7,2.7,5.1,3.6,10.3,6.2c0.8,0.4,2.5,0.7,3,1.5
	c1,1.6-3.2,1.5-3.9,1.6c-10.4,1.5-9.2,2.4-12.3,3.7c-1.5,0.7-3.2,1.6-4.4,2.8c-1.2,1.1-1.3,3.6,0.5,4.5c2,1,3.6,0,4.9-1.5
	c1-1.2,2-2.2,3.4-2.9c7-3.4,6.7-3.6,14.4-4.9c0.5-0.1,1.4-0.5,1.4,0.3c0,0.7-1.2,1.2-1.7,1.6c-2.9,2.1-5.6,3.6-7.2,7
	c-1.4,2.9-1.3,6.5-0.1,9.4c1.1,2.7,2.6,3.5,5.3,4.3c1.7,0.5,3.1,1,4.9,0.3c4.7-1.8,3.6-7.4-1.2-7.5c-1.3,0-2.4,0.5-3.2-0.8
	c-1.2-1.9-0.7-4.7,0.4-6.5c2.1-3.8,6.1-6.7,9.9-9c0.5-0.3,1.1-0.5,1.7-0.8c0.4-0.2,1.2-0.4,1.4-0.8C41.5,301,39,301.1,37.7,301.1z
	 M425.6,309.6c-1.2-1.1-2.9-2.1-4.4-2.8c-3-1.4-1.9-2.2-12.3-3.7c-0.7-0.1-4.9,0-3.9-1.6c0.5-0.8,2.2-1.1,3-1.5
	c5.2-2.6,7.6-3.6,10.3-6.2c2.6-2.6,6.5-6.7,5.3-10.7c-0.4-1.4-1.4-2.7-3-2.7c-2.2-0.1-3.8,0.8-4.5,2.8c-1.5,4.2-1.7,4.4-5.3,8.7
	c-1.7,2.1-3.8,3.8-6,5.3c-3,2.1-6.7,4.2-10.5,4.1c-1.3-0.1-3.8-0.2-3.3,1.1c0.2,0.4,1,0.6,1.4,0.8c0.5,0.3,1.1,0.5,1.7,0.8
	c3.7,2.3,7.8,5.2,9.9,9c1,1.8,1.6,4.6,0.4,6.5c-0.8,1.3-2,0.7-3.2,0.8c-4.8,0.1-5.9,5.7-1.2,7.5c1.8,0.7,3.1,0.2,4.9-0.3
	c2.7-0.8,4.2-1.6,5.3-4.3c1.2-2.9,1.3-6.5-0.1-9.4c-1.7-3.4-4.3-5-7.2-7c-0.5-0.3-1.7-0.9-1.7-1.6c0-0.8,0.9-0.4,1.4-0.3
	c7.7,1.3,7.4,1.5,14.4,4.9c1.4,0.7,2.4,1.7,3.4,2.9c1.3,1.5,2.9,2.5,4.9,1.5C426.9,313.2,426.9,310.7,425.6,309.6z M345.7,253
	c-5.8,1.8-5.4,2.5-12.3,4.5c7.9,2.9,16,2,17.1,2c0,0.6,0,2,0,2.7c-0.5,0-0.9-0.1-2.5-0.3c-5.9-0.5-11.6-1.6-17.1-3.9
	c-4.2,1.1-5.1,0.8-9.1,2.4c-5.2,2.1-10.4,1.9-12.1,1.4c-1.5-0.3-2.8-1.2-4.2-1.7c-1.8-0.9-3.4-1.2-6.6-3c-6.1,2.6-3.4,1.6-5.6,2.6
	c-0.7,0.4-1.5,0.7-2.3,0.9c-1.7,0.5-9,2.7-15,2.1c-3.1-0.2-4.9,0-16-6.1c-6.1,2.5-3.6,2.4-8.6,4.2c-9.6,3.3-14,0.1-20.8-3.4
	c-3.5,1.3-4.5,1.9-6.9,2.6c-5,1.3-11.5,4.5-20,2.3c-3-0.9-7-1.1-13.6-5.7c-0.8,0.4-1.6,0.9-2.4,1.3c-1.3,0.7-2.4,1.6-3.7,2.3
	c-11,4.8-13.3,2.7-21.8-2.2c-0.8-0.5-1.6-0.9-2.4-1.3c-2.8,1.4-10.2,5.4-15.9,5.4c0-0.7,0-1.6,0-2.7c6.7,0,9.1-0.8,14.1-3.7
	c-6.1-3.2-7.2-3-9.1-3.1c-1.1-0.1-2-0.3-2.7-0.3c-0.7-0.1-1.4-0.3-2.3-0.3c0-0.9,0-2.4,0-3c0.8,0,1.8-0.1,2.6,0
	c3.7,0.5,4.3,1.5,6.9,2.4c2,0.7,4.3,1.8,6.8,3c6.2-3.9,10.1-7.4,16.9-7.1c5.4,0.3,8.7,4,12.8,7.3c7.4-3.4,11.1-6.2,18.2-7.3
	c4.2-0.6,6.9,0.1,8,0.3c4.8,1.3,3.7,2.1,6.8,3.6c0.3,0.1,3.9,2.3,7.8,4.3l1.9-0.8c11.1-5,14.1-9.6,25.1-1.9c0.9,0.6,1.8,1.2,2.7,1.8
	c1.4-0.6,2.9-1.1,4.4-1.6c17.2-6,21.9-4.4,34.1,2.1c3.8-1.8,6.9-3.8,7.9-4.4c2.1-1.1,1.9-1.7,5.6-3.3c9.3-3.4,11,5.1,18.5,8.8
	c10.5-2.7,12.2-5.8,16.9-6.9c0.9-0.2,2.5-0.4,2.7-0.4c0,0.7,0,2.3,0,3c-0.6,0-1.6,0-2.2,0.2C347.7,252.5,346.8,252.8,345.7,253z
	 M188.3,255.6c-11.3-7.8-16.5-4.7-25.9,0.1c9.8,5,10.3,6.1,20.4,1.9C184.8,256.8,184.4,257.3,188.3,255.6z M228.6,256.6
	c-8.2-4.2-7.9-3.5-10.1-4.1c-0.4-0.1-0.7-0.2-1-0.4c-1.1-0.3-2.6-1-4.4-1.2c-6.8-1-15.2,1.9-21.3,5c3.2,2.3,4.6,2.5,6.6,3.2
	c6.4,1.4,3.3,0.6,12.7,1c5.9,0.3,12.1-2.2,16.8-3.4C228.2,256.8,228.4,256.7,228.6,256.6z M257.9,255.8c-12.9-6.2-11-4.1-25,1
	c6.1,3.1,8.8,4.6,17.4,1.4C256.4,256.1,252.4,257.9,257.9,255.8z M297.1,256.2c-5.6-3-7.3-2.5-12.7-2.8c-6-0.5-12.9-0.2-19,1.6
	c-1.1,0.3-2.1,0.6-3.1,1c5.6,3.4,6.8,3.2,12.5,3.9c-0.1,0,0,0,0,0c10,0.1,13.6-1.7,18.9-2.5C294.8,257.1,296.3,256.6,297.1,256.2z
	 M328.5,257.1c-8.9-4.5-8-8.3-14.8-6.4c-5.1,2-2.3-0.2-9.9,4c-1,0.5-2,1.1-3,1.6c5.3,2.6,6.3,1.9,9.3,1.8c3,0,4,0.2,7.5-0.1
	C322.8,257.7,321.8,258.6,328.5,257.1z M375.1,404c1.3,2,2.9,4.4,1.9,6.5c-0.5,1.1-1.5,1.8-2.6,1.8c-0.5,0-0.9-0.1-1.2-0.2
	c0,0-0.1,0-0.1,0l-0.2,0l-0.3-0.1c-1.2-0.2-2.3-0.4-3.5-0.6c-2.6-0.5-5.4-1-8-1.4c-5.3-0.7-11-1.1-17.9-1.3
	c-3.3-0.1-6.7-0.3-9.9-0.5c-3.5-0.2-7.1-0.5-10.7-0.5c-4-0.1-8.3-0.2-12.7-0.4c-4.2-0.2-8.7-0.3-13.5-0.3c-8.1,0-16.3,0.3-23.9,0.7
	c-13.2,0.6-28.9,1.5-44.9,3.5l-0.4,0.1c-0.5,0.1-0.9,0.1-1.4,0.2c-1.9,0.1-2.7-0.6-3.1-1.2c-0.9-1.3-0.3-2.8-0.1-3.3
	c0.6-1.6,1.3-3.2,1.9-4.8c2.9-7.3,5.8-14.8,9.4-21.9c1-2,1.1-3.5,0.2-5.6c-0.8-1.9-1.5-3.9-2.3-5.9c-1.7-4.5-3.5-9-5.2-13.4
	c-0.6-1.5-1-2.5-0.4-3.7c0.5-1.1,1.6-1.5,2.6-1.8l0.4-0.1c5.9-1.9,11.9-2.6,17.7-3.2c2.2-0.3,4.3-0.5,6.5-0.8
	c6.3-0.9,12.6-1.1,18.7-1.3c2.4-0.1,4.9-0.2,7.3-0.3c8.5-0.4,16.9-0.4,25,0.1c4.1,0.3,8.4,0.4,12.5,0.6c9.7,0.3,19.8,0.7,29.6,2.5
	c1.3,0.2,2.6,0.5,3.9,0.7c7.4,1.3,15,2.7,22.4,5.2c1.1,0.4,2.6,0.9,3.1,2.3c0.6,1.5-0.2,2.9-0.8,3.9c-2.5,4.5-4.7,9.4-6.7,14.2
	c-1.5,3.4-3,6.8-4.6,10.2c-0.2,0.3-0.2,0.4,0.3,1.3l0.2,0.3c1.4,2.6,2.9,5.1,4.4,7.7l2.4,4.3c1.2,2,2.3,4.1,3.4,6.1
	C374.7,403.4,374.9,403.7,375.1,404z M372.4,407.7c-0.3-0.5-0.7-1.1-0.9-1.4c-0.3-0.4-0.5-0.8-0.7-1.1c-1.1-2-2.3-4.1-3.4-6.1
	l-2.4-4.2c-1.5-2.6-2.9-5.1-4.4-7.7l-0.2-0.3c-0.6-1.1-1.7-2.9-0.5-5.3c1.6-3.3,3.1-6.7,4.6-10c2.1-4.8,4.3-9.9,6.9-14.6
	c0,0,0,0,0-0.1c0,0,0,0,0,0c-7.1-2.3-14.6-3.7-21.8-5c-1.3-0.2-2.6-0.5-3.9-0.7c-9.6-1.8-19.5-2.1-29-2.5c-4.1-0.1-8.4-0.3-12.6-0.6
	c-7.9-0.5-16.2-0.5-24.5-0.1c-2.5,0.1-4.9,0.2-7.4,0.3c-6,0.2-12.2,0.4-18.2,1.3c-2.2,0.3-4.4,0.6-6.6,0.8
	c-5.9,0.7-11.4,1.3-16.9,3.1c1.8,4.5,3.5,9,5.3,13.4c0.8,1.9,1.5,3.9,2.3,5.8c1.2,3.2,1.1,6-0.4,9c-3.5,6.9-6.4,14.4-9.2,21.5
	c-0.4,1.1-0.9,2.3-1.3,3.4c16.2-2,31.9-2.9,45.2-3.5c7.7-0.4,16-0.7,24.1-0.7c4.9,0,9.4,0.1,13.7,0.4c4.3,0.2,8.5,0.4,12.5,0.4
	c3.7,0.1,7.4,0.3,10.9,0.6c3.2,0.2,6.5,0.5,9.7,0.5c7.1,0.2,12.9,0.6,18.4,1.3c2.8,0.4,5.6,0.9,8.2,1.4
	C370.7,407.4,371.6,407.5,372.4,407.7z M111.4,344.6c-1.5,0.3-2.6,1.4-3.2,2.7c-0.5,1.4-0.5,2.8-0.4,4.2c0.5,14.6-0.9,45-1.1,45.2
	c-3.4-14.6-6.1-29.2-9.1-43.8c-0.4-2-0.8-3.9-2-5.5c-1.1-1.8-2.8-2.8-4.9-2.6c-1.9,0.3-3,1.6-3.7,3.4c-0.7,1.5-10.3,48.7-10.4,48.7
	c-1.9-14.6-2.8-29.3-4.2-44.1c-0.1-2-0.4-3.9-1.4-5.7c-0.9-1.8-2.4-3.1-4.6-3c-1.9,0-3.1,1.2-3.9,2.8c-0.8,1.5-1.1,3.2-1.2,5
	c-0.3,2.2-0.4,4.3-0.4,6.5c-0.3,9.2,0.5,18.3,2,27.3c0.8,4.5,1.8,8.8,2.8,13.4c0.8,3.7,1.8,7.6,4.5,10.5c1.9,2,4.6,2.6,7,0.9
	c1.4-0.9,1.8-2.6,2.2-4.2c3.4-11.9,6.1-23.9,8.7-35.8c0.9,5.4,2.3,10.8,3.8,16.1c1.2,4.5,2.6,8.8,4.2,13.3c1.1,3.5,2.4,7.3,5.4,10
	c2,1.9,4.9,2.2,7,0.4c1.4-1.2,1.5-2.8,1.8-4.5c3.5-19.7,2.6-39.4,2.8-59.2c0-0.5,0.1-1.2-0.4-1.6
	C112.3,344.6,111.9,344.4,111.4,344.6z M126.9,363.2c-1.5,0.7-1.6,1.9-0.3,3c1.1,0.9,2.6,1.2,4.6,1.2c0.9,0,1.8-0.5,1.9-1.5
	c0.1-1.4-0.5-2.4-1.9-2.7C129.7,362.8,128.4,362.5,126.9,363.2z M218.2,383.6c0.3,0.3,0.1,0.7,0,1.1c-0.1,0.4-0.4,0.7-0.7,1.1
	c-1.1,1.4-2.2,3-3.1,4.5c-3.1,5.1-5.8,10.4-8.5,15.8c-1.2,2.3-2.4,4.7-3.7,7.2c-1.2,2.3-2.2,5.1-4.1,7c-1.1,1.1-2.8,1.9-4.3,1.5
	c-0.9-0.3-1.8-0.8-2.3-1.6c-2.4-2.8-2.4-7.3-2.4-10.8c0-3.7,0.5-7.3,1.1-10.8c0.5-3.2,1.2-6.5,1.6-9.7c0.5-3.1,1.1-6.5,0.7-9.6
	c0-0.4-0.1-0.7-0.3-1.5c-1.1,0.8-1.9,1.4-2.7,2c-2,1.9-3.5,4.3-4.7,6.9c-2.3,4.6-3.9,9.5-4.6,14.5c-0.1,1.8,0,3.5,0,5.3
	c0,1.8-0.5,2.3-2.2,2.3c-1.6-0.1-3-0.7-3.7-2.3c-0.5-1.2-1.1-2.6-1.5-3.8c-1-3.6-1.7-7.2-2.1-10.8c-3.7,7.1-9,17.2-9.7,18.1
	c-2.2,3.2-5.5,3.8-8.8,1.6c-1.8-1.2-3-2.8-4.1-4.6c-1.9-3.2-3-6.9-3.7-10.5c-0.3-2.2-0.5-4.4-0.7-6.7c-4.5,5.5-11,13.5-13.3,15.1
	c-2.6,1.6-5.4,1.6-7.3-0.8c-1.4-1.6-2-3.5-2.3-5.5c-0.5-5.1-0.3-10.1,0.7-15.1c0.4-2.8,1.1-5.8,1.9-8.7c0.3-1.2,0.8-2.3,1.5-3.2
	c1.5-2,4.5-2.3,6.1-0.7c0.5,0.5,0.9,1.4,1.1,2c0.1,0.9,0.1,2,0,3c-1.1,8.1-2.3,16.2-3.4,24.5c-0.1,0.8-0.1,1.6-0.3,2.7
	c2.6-2.6,11.9-14.5,14.3-16.9c0.3-0.2,0.5-0.5,0.8-0.7c0-2.7,0-5.4,0.2-8.1c0.3-5,0.8-10,2-15c0-0.4,0.4-1.5,0.5-2.2
	c0,0.1-7.8,0.4-8.2,0.1c-1.1-0.7-0.3-1.9,0.5-2.2c0.4-0.1,8.5-1.1,8.5-1.2c0.4-0.8,0.7-1.6,0.9-2.3c1.4-3.1,3-6.1,5.1-8.7
	c1.1-1.1,2.2-2,3.5-2.4c0.7-0.1,1.2-0.3,1.9-0.3c1.6,0,2.2,0.7,1.9,2.3c-0.1,0.7-0.3,1.4-0.5,2c-0.5,2.3-1.2,4.7-1.9,7
	c-0.1,0.7-0.3,1.4-0.4,2.2c2.4,0.3,5-0.8,7.3,0.1c1.2,0.4,1.1,2.2-0.3,2.4c-1.2,0.1-6.4,0.5-7.7,0.5c-0.9,2.4-1.1,4.7-1.4,7
	c-1.6,11.1-2,22.2-1.5,33.4c0.1,3.4,0.7,6.8,2.4,10.1l0.4-0.7c2.6-3.9,4.9-8,7.2-11.9c2.1-3.8,4.1-7.5,6-11.4c-0.1-3,0-6.1,0.3-9.2
	c0.5-5.8,1.6-11.6,3.2-17.3c1.2-3.9,2.8-7.8,4.9-11.5c1.8-3.1,3.8-6,6.5-8.2c1.6-1.4,3.2-2.4,5.3-3.2c2.6-0.9,5-0.9,7.6,0
	c3.5,1.1,6,4.5,6.2,8.5c0.1,2.3-0.1,4.7-0.9,6.9c-2,6.4-5.5,11.4-11.5,14.5c-0.7,0.3-1.1,0.5-1.1,0.5c-1.5,3.7-4.1,7.7-6.5,10.7
	c-1.5,2-3.1,3.9-4.9,5.8c-0.7,0.8-0.9,1.8-0.9,2.7c0,1.8,0,3.5,0.3,5.4c0.3-0.4,0.5-0.8,0.7-1.2c1.4-3.2,2.8-6.4,4.7-9.3
	c1.2-2,2.6-3.9,4.5-5.4c1.6-1.2,3.5-2,5.5-1.6c4.2,0.8,6.1,2.7,7,6.9c0.7,3.5,0.5,7.2,0.1,10.7c-0.7,5.3-2,10.3-3.2,15.4
	c-0.5,2.3-1,4.8-1.2,7.3h0.1c1.4-2.3,12.7-24.9,18.7-30.7c0.3-0.4,0.7-0.5,1.2-0.7C217.4,383.1,217.9,383.2,218.2,383.6z M188.7,360
	c-4.9-0.8-4.9,6.1,0.1,5.7C189.8,363.8,190.6,360.4,188.7,360z M178.8,380.7c1.4-1.4,2.3-2.6,3.1-3.7c2.2-2.4,6.2-9.1,6.4-9.5
	c-6,1.6-6.6-5.8-4.3-7.7c1.1-0.9,2.4-1.5,4.1-1.4c2.6,0,5.3,2.4,3.8,5.8c0.3,0,1.5-0.9,1.8-1.2c3.7-3.7,6.2-7.8,7.3-13
	c0.5-2.7,0.3-5.4-0.9-8c-1.9-4.2-4.7-4.7-8.1-1.8c-1.6,1.5-3,3.4-4.1,5.3c-1.8,3-3,6.1-3.9,9.2c-1.8,6-3.1,11.8-4.1,17.9
	C179.4,375.1,179.1,377.7,178.8,380.7z M258.8,394.6l-1.2-0.6c0.4-11,0.6-17.5,0.6-19.5c0-16.3-1.3-24.5-3.8-24.5h-3.1
	c0,0.5-0.2,1.1-0.6,1.9c0.8,0,1.2,3.2,1.2,9.4v32c0,3.3,1.3,5.6,3.8,6.9h6.3c6.3-0.4,9.4-1.7,9.4-3.8v-0.6l-4.4-1.2H258.8z
	 M292.5,371.8c0,4,0.1,9.4,0.4,16.2c-1.5,8.2-4.4,12.3-8.5,12.3c-7.4,0-11.1-4.7-11.1-14v-2.6c0-19,2-28.5,6-28.5
	c0-0.3,0.7-0.4,2.1-0.4c6.2,0,9.9,4.5,11,13.6V371.8z M286.2,365.9c0-3.7-0.9-6-2.5-6.8h-0.4c-2.8,0-4.3,8.8-4.3,26.3
	c0,5.9,0.9,8.9,2.6,8.9h2.6c1,0,1.7-1.6,2.1-4.7V365.9z M316.3,355.4l-1.7,1.1c-2.9,19.6-5.4,32.3-7.2,38.2h-1.1l-3.3-24.4
	c-0.8-10-2.7-15-5.5-15l-1.7,1.1c1.8,12.6,2.9,18.9,3.3,18.9c1,16.6,3.5,24.9,7.8,24.9l2.8-1.1c2.7-4.4,5.8-18,9.4-41
	C319.1,356.9,318.2,356,316.3,355.4z M334,353.4l-8.9,2.2c-1.9,0-2.8,11.9-2.8,35.7c0,5.2,3.2,8.2,9.5,8.9c0.7,0,2.7-0.4,6.1-1.1
	v-1.7c0-0.8-1.3-1.6-3.9-2.2c0,0.4-0.2,0.6-0.6,0.6H330c-1.1-0.6-1.7-1.1-1.7-1.7v-9.5h2.8l3.9-1.1v-1.1l-0.6-1.1
	c-3.7-0.4-5.6-0.9-5.6-1.7v-20.1c6-1.7,8.9-2.9,8.9-3.3v-0.6C337.9,354.8,336.6,354.1,334,353.4z M358,146.3c2,1.7,4.5,3,6.9,4.1
	c3.4,1.5,6.3,4.1,9,6.6c0.8,0.8,1.5,1.9,2.6,2.3c0.2,0.1,0.4,0.1,0.6,0.1c1.6,0.1,1.6-2.6,1.7-3.7c0.3-2.1,0.5-4.5,1.6-6.3
	c1.1-1.8,2.6-3.2,3.6-5c0.6-1.1,0.7-2.5,1.2-3.7c0.5-1.3,0.3-3.2,0.6-4.6c0.2-1.6,0.5-3.1,0.6-4.7c0.1-2.3-0.2-4.4-2.2-5.9
	c-1.5-1.2-3.7-1.6-5.6-1.8c-1.7-0.2-2.6-0.3-3.9,0.7c-1.7,1.2-3.3,2.7-4.5,4.5c-0.9,1.4-1.1,3.3-1.3,5c-0.6-0.7-1.3-1.2-1.9-1.9
	c-0.4-0.6-0.6-1-1.3-1.4c-1.3-0.7-2.8-0.9-4.3-1.1c-1.9-0.3-4.4-0.3-6.2,0.4c-2,0.8-3.4,2.5-3.7,4.8c-0.3,2.5,0.8,4.8,2.2,6.7
	C355.3,143.2,356.4,144.9,358,146.3z M308,136.1c-0.7,1.2-0.5,3.1-0.4,4.4c0.2,2.1,0.3,4.2,0.7,6.2c0.7,3.5,1.2,7.1,2.4,10.4
	c0.4,1.1,0.7,2.3,2,2.4c0.3,0,0.6,0,0.8,0c1.5-0.1,2.9-0.7,4.3-1.1c2.4-0.9,4.5-2.2,6.7-3.6c1.8-1.1,3.2-2.3,4.5-4
	c0.9-1.2,1.8-2.8,2.2-4.3c0.4-1.5,0.6-4.3-0.2-5.7c-0.9-1.3-2.9-1.6-4.4-1.4c-1.6,0.2-3.2,0.7-4.8,0.9c-1.6,0.1-2.7,1.1-3.9,2
	c-0.9,0.7-2,0.6-2.2-0.8c-0.1-1.1,0-2.2-0.3-3.3c-0.5-1.6-1.5-2.7-3.1-3.2C310.6,134.5,308.9,134.4,308,136.1z M333.3,126.2
	c2.4,1.8,3.7-0.9,4.5-2.7c0.4-0.9,0.7-1.7,1-2.6c0.7-1.9,1.4-3.9,2.6-5.5c0.6-0.9,1.1-1.5,0.7-2.6c-0.3-0.9-2-2-2.9-2
	c-1.8,0.1-2.9,3.4-4.5,3.9c-0.4,0.1-0.8,0-1.2-0.2c-0.7-0.4-1.1-1.2-1.8-1.6c-1.6-1.1-5-1.9-6,0.3c-1.4,3.2,1.1,6.2,3.2,8.4
	C330.2,123.2,331.5,124.9,333.3,126.2z M204.9,114.3c2.5-1.6,0.5-2.6-1.5-3.2c-0.6-0.2-1.2-0.3-1.7-0.4c-3.5-0.6-3.2-1.8-3.8-5
	c-1.6-7.9-3.4,1.6-6.6,1.9c-1.4,0.1-3-0.5-4.4-0.6c-1.2,0-2.4-0.1-3.6,0c-0.8,2.5,5.4,3.9,5.3,6.6c0,1.3-2.1,3.2-2.7,4.4
	c-0.6,1.2-1.2,2.4-1.6,3.7c3.3,2,4.7-3.1,7.7-2.8c2.8,0.3,3.5,4.8,5.7,6c3.6,1.8,0.7-5.2,0.5-6.6
	C197.5,114.8,202.6,115.7,204.9,114.3z"/>
</svg>
