<?xml version="1.0" encoding="utf-8"?>
<!-- Generator: Adobe Illustrator 18.0.0, SVG Export Plug-In . SVG Version: 6.00 Build 0)  -->
<!DOCTYPE svg PUBLIC "-//W3C//DTD SVG 1.1//EN" "http://www.w3.org/Graphics/SVG/1.1/DTD/svg11.dtd">
<svg version="1.1" id="Layer_1" xmlns="http://www.w3.org/2000/svg" xmlns:xlink="http://www.w3.org/1999/xlink" x="0px" y="0px"
	 viewBox="0 0 432 432" enable-background="new 0 0 432 432" xml:space="preserve">
<path fill="#333333" d="M352.1,187.6c-0.3,0-0.6-0.1-0.8-0.3c-0.3-0.2-0.4-0.5-0.4-0.8c0-0.3,0.1-0.6,0.3-0.8
	c0.2-0.2,0.4-0.4,0.7-0.4c0.3,0,0.6,0.1,0.8,0.3c0.2,0.2,0.3,0.4,0.4,0.7c0,0.3-0.1,0.6-0.3,0.8
	C352.6,187.4,352.4,187.6,352.1,187.6z M350.1,196.7c0.7-0.4,1.2-1,1.6-1.8c0.1-0.3,0.2-0.6,0.2-1c0-0.4-0.1-0.7-0.3-0.9
	c-0.2-0.2-0.4-0.5-0.8-0.7c-0.4-0.2-0.7-0.3-1-0.2c-1.1,0.2-2,0.5-2.9,1c-0.9,0.5-1.6,1-2.3,1.7c-0.7,0.7-1.3,1.4-1.9,2.2
	c-0.6,0.8-1.1,1.7-1.6,2.5c1.5-0.4,3.1-0.8,4.6-1.1C347.3,198.2,348.7,197.6,350.1,196.7z M339.8,183.9c0.4-0.4,0.5-0.9,0.5-1.4
	c0-0.5-0.2-1-0.7-1.3c-0.4-0.4-0.9-0.5-1.4-0.5c-0.5,0-1,0.2-1.3,0.7c-0.4,0.4-0.5,0.9-0.5,1.4c0,0.5,0.3,1,0.7,1.3
	c0.4,0.4,0.9,0.5,1.4,0.5C339,184.6,339.4,184.3,339.8,183.9z M345.5,180.3c0.3,0,0.5-0.1,0.7-0.3c0.2-0.2,0.3-0.5,0.3-0.8
	c0-0.3-0.1-0.5-0.4-0.7c-0.2-0.2-0.5-0.3-0.8-0.3c-0.3,0-0.5,0.1-0.7,0.3c-0.2,0.3-0.3,0.5-0.3,0.8c0,0.3,0.1,0.5,0.4,0.7
	C345,180.2,345.2,180.3,345.5,180.3z M335.5,188.1c-0.3-0.2-0.6-0.2-0.8-0.2c-0.2,0-0.4,0.2-0.6,0.4c-0.2,0.3-0.3,0.5-0.4,0.8
	c-0.1,0.2-0.1,0.4-0.1,0.6c0,0.2,0,0.4,0.1,0.6c0.3,1.5,0.9,2.8,1.7,3.9c0.9,1.1,1.8,2.2,2.7,3.3c0.3-2,0.1-3.9-0.5-5.8
	c-0.4-1.1-0.9-2.2-1.5-3.2C336,188.4,335.8,188.2,335.5,188.1z M339.3,199.9C339.3,199.9,339.3,199.9,339.3,199.9
	c0.8,0.6,1.2,1.6,1.2,3c0.1,5.1-0.1,9.8-0.5,13.9c-0.5,4.1-1.3,8.4-2.6,12.9c-0.5,1.6-1.2,3.5-2.3,5.7c-1.1,2.2-2.2,3.9-3.3,5.1
	c-1,1.2-2.5,2-4.3,2.4c-1.8,0.4-3.9,0.5-6,0.2c-2.2-0.3-4.4-1-6.6-2.1c-2.2-1.1-4.3-2.8-6.3-4.9c-1.3-1.4-2.5-3-3.8-4.8
	c-1.2-1.8-2.2-3.5-2.9-5.1c-0.8-1.8-1.6-3.7-2.3-5.5c-0.9,3-2.1,6-3.7,8.9c-1.7,2.9-4.1,4.6-7.4,5.1c-3.3,0.5-6.3,0.3-9-0.6
	c-3.2-1.2-5.7-2.8-7.6-4.9c-1.9-2.1-3.4-4.5-4.6-7.3c-1.5-3.6-2.5-7-3-10.4c-1,0.7-2.1,1.4-3.2,1.8c-1.1,0.5-2.1,1.2-3.1,2
	c-0.4,0.3-0.8,0.6-1.1,0.7c-0.3,0.2-0.3,0.6-0.2,1.4c0.5,2.1,0.8,4.2,1.1,6.2c0.3,2,0.3,4,0.1,6c-0.1,2-0.4,3.9-1,5.6
	c-0.5,1.7-1.4,3.3-2.7,4.7c-2.6,3.1-6.4,4.1-11.6,2.9c-2.3-0.5-4.2-1.6-5.7-3.2c-1.5-1.6-2.2-3.5-2.3-5.8c0-0.7,0-1.5,0.1-2.2
	c0.1-0.7,0.3-1.4,0.5-2c0.6-1.9,1.2-3.5,2-4.8c0.8-1.3,1.8-2.6,3.1-3.9c0.6-0.7,1.3-1.4,1.9-1.8c0.7-0.5,1.4-1,2.1-1.7
	c0.3-0.3,0.5-0.7,0.5-1c0-0.4,0-0.8-0.1-1.4c-0.8-2.8-1.7-5.6-2.6-8.4c-1-2.8-2.4-5.6-4.1-8.4c-1.1-1.9-2.4-3.7-3.9-5.3
	c-1.4-1.5-2.4-2.3-2.9-2.3c-0.5-0.1-1.2,0.3-2.1,1.2c-1.2,1.2-2.3,3-3,5.4c-0.8,2.4-1.4,4.8-1.8,7.1c-0.2,0.8-0.3,1.5-0.4,2.2
	c-0.1,0.8-0.2,1.6-0.2,2.4c0,0.8,0,1.5,0,2.2c-0.1,0.7,0,1.5,0,2.3c0,3.7,0.4,7.5,1.1,11.4c0.7,3.9,1.7,7.8,3,11.7
	c0.5,1.5,1.1,2.9,1.8,4.3c0.8,1.4,1.5,2.8,2.3,4.3c0.9,1.6,1.2,2.7,0.7,3.4c-0.4,0.6-1.5,1-3.1,1c-1.3,0-2.7-0.3-4.2-1
	c-1.5-0.6-2.8-1.6-3.7-2.7c-3.7-4.5-6.8-9.2-9.3-14.1c-2.5-4.9-4.9-9.8-7.1-14.7c-2.1-4.8-3.7-9.3-5-13.3c-1.3-4.1-2.4-8.5-3.5-13.2
	c-0.7-2.9-1.2-5.8-1.7-8.6c-0.4-2.8-0.7-5.6-1-8.4c-0.1-2.8-0.2-5.5-0.4-8.3c-0.1-2.7,0-5.4,0.3-8.1c0.2-2.5,0.5-4.9,1-7.2
	c0.5-2.4,1.1-4.6,2-6.7c0.3-0.6,0.6-1.3,0.9-1.8c0.2-0.6,0.5-1.1,0.9-1.7c1-1.2,2.4-2.2,4.1-3c1.7-0.8,3.5-1.1,5.4-1
	c1.2,0,2.3,0.2,3.4,0.5c3.5,1,6,3.1,7.3,6.4c1.1,2.9,1.8,5.8,1.9,8.7c0.2,2.9,0.1,5.6-0.3,8.2c-0.3,2.5-0.7,4.8-1.2,7.1
	c-0.5,2.3-1.2,4.5-2,6.7c-1.1,2.7-2.3,5.1-3.6,7.4c-0.6,1.2-1.3,2.2-2,3.2c-0.8,1-1.6,2-2.4,3.1c-0.2,0.3-0.4,0.6-0.6,0.9
	c-0.2,0.3-0.2,0.7,0,1.2c0.9,4.6,2,8.9,3.2,12.8c1.2,4,2.8,8.2,4.8,12.8c0.1-0.4,0.1-1,0.1-1.6c-0.2-3.4-0.1-6.7,0.2-10
	c0.4-3.2,1.2-6.2,2.5-9c0.8-1.8,1.8-3.4,2.9-4.7c1.2-1.4,2.7-2.4,4.6-3c1.9-0.6,4-0.7,6.2-0.3c2.2,0.4,4.4,1.2,6.6,2.5
	c2.2,1.3,4.2,3,6,5.1c1.5,1.8,2.9,3.7,4,5.6c1.1,1.9,2.2,4,3,6.1c0.2,0.5,0.4,1.3,0.8,2.2c0.4,0.9,0.7,1.7,1.1,2.3
	c1.4-0.4,3.2-1.5,5.4-3.1c1.4-1.1,2.7-2.4,3.8-3.9c0.1-1.8,0.2-3.5,0.5-5.2c0.2-1.2,0.4-2.3,0.7-3.3c0.3-1,0.7-2,1-3
	c0.5-1.5,1.4-2.5,2.7-2.9c1.3-0.4,2.9-0.5,4.6-0.3c2,0.3,3.2,1.5,3.5,3.5c0.2,0.9,0.3,1.7,0.4,2.7c0.1,0.9,0.1,1.8,0.2,2.6
	c0.1,2.2,0.2,4.5,0.3,6.8c0.1,2.3,0.4,4.6,0.7,7c0.3,2.4,0.7,4.8,1.1,7.2c0.5,2.5,1.3,4.9,2.6,7.2c1,1.7,1.9,3,2.9,3.9
	c1,0.9,1.5,1.2,1.7,1.1c0.7-0.2,1.4-0.8,2.2-1.7c0.8-0.9,1.3-1.7,1.7-2.3c0.7-1.3,1.4-2.9,2.1-4.9c0.7-2,1.4-4.1,2-6.4
	c0.4-1.6,0.8-3.3,1.1-4.9c-2.3-7.8-3.7-15.6-4.2-23.4c-0.1-3.1-0.2-6-0.2-8.8c0-2.7,0-5.7-0.1-8.9c-0.1-2.2,0-4.5,0.3-6.7l-3-1.9
	c-2-1.2-3.8-1.5-5.6-1.1c-1.7,0.4-2.8,1.6-3,3.4c-0.1,0.3-0.1,0.7-0.1,1.2c0,0.5-0.2,0.8-0.8,0.9c-1,0.2-2.1,0.1-3.2-0.5
	c-2.4-0.7-3.4-2.3-3.1-4.7c0.2-2.4,1.6-3.9,4-4.5c2.1-0.5,4.2-0.7,6.5-0.6c2.2,0.1,4.6,0.7,7.1,1.8c0.5,0.2,1.1,0.5,1.9,1
	c0.2-1.4,0.5-2.7,0.7-4c0.3-1.3,0.6-2.6,1-3.9c0.4-1.4,0.9-2.8,1.6-4.2c0.6-1.4,1.3-2.6,1.9-3.7c1.1-1.6,3-2.1,5.6-1.4
	c1.2,0.3,2,0.7,2.4,1.1c0.4,0.4,0.6,1.2,0.6,2.2c0,1.1,0,2.1-0.1,3.1c-0.1,1-0.1,2-0.1,3c-0.2,2.5-0.3,5-0.4,7.5
	c-0.1,2.5-0.1,5.1-0.2,7.6c1,0.5,2,1.1,3,1.7c1,0.6,2,1.2,3,1.7c2,1.1,3.8,1.4,5.4,1c1.5-0.4,2.6-1.4,3.3-3c1.3-2.9,0.1-5.4-3.6-7.4
	c-0.3-0.2-0.7-0.4-1.3-0.6c-0.6-0.2-0.9-0.5-0.8-1c0.1-0.3,0.4-0.6,1-0.7c0.5-0.2,1-0.3,1.2-0.4c2.1-0.2,4.3,0.2,6.7,1.4
	c2.4,1.1,4.3,2.7,5.8,4.6c0.9,1.2,1.4,2.3,1.5,3.5c0.1,1.1-0.1,2.2-0.7,3.1c-1.8,3.2-4.9,4.9-9.5,5.1c-5.1,0.2-10.1-0.9-15-3.4
	c-0.1,1.4-0.1,2.8,0,4.1c0.1,1.3,0.2,2.8,0.2,4.3c0.4,6.1,1.1,12.2,1.9,18.1c0.9,6,2.1,12.1,3.7,18.3c0.9,3.2,1.9,6.4,2.9,9.6
	c1,3.2,2.5,6.3,4.3,9.4c0.2,0.4,0.7,0.9,1.3,1.5c0.6,0.6,1.3,1.1,1.9,1.5c0.7,0.4,1.4,0.7,2.3,0.8c0.8,0.1,1.7-0.1,2.4-0.6
	c0.4-0.3,0.9-0.9,1.4-1.7c0.5-0.8,1-1.7,1.5-2.6c0.5-1,0.9-2,1.3-3c0.4-1,0.7-1.9,1-2.7c0.5-1.6,0.9-3.7,1.4-6.3
	c0.5-2.6,0.9-5.1,1.3-7.6c0.4-2.5,0.7-4.8,0.8-6.8c0.2-2,0.3-3.3,0.3-3.9c0-1.5,0.2-2.5,0.6-2.9c0.5-0.4,1-0.5,1.7-0.3
	C338.5,199.5,338.9,199.7,339.3,199.9c-0.1-0.2-0.1-0.5-0.1-0.7c0-0.2,0-0.4,0-0.6c0-1.8,0.2-3.7,0.6-5.4c0.3-1.8,0.8-3.5,1.5-5.2
	c0.2-0.4,0.4-0.8,0.6-1.1c0.2-0.3,0.5-0.6,0.8-0.9c0.3-0.2,0.6-0.3,1-0.4c0.4-0.1,0.7-0.1,1-0.1c0.2,0.1,0.4,0.3,0.6,0.6
	c0.2,0.3,0.3,0.6,0.4,0.9c0.2,0.9,0.2,1.8,0,2.6c-0.2,0.8-0.5,1.7-1,2.4c-0.4,0.7-0.8,1.4-1.3,2.1c-0.4,0.7-0.9,1.4-1.3,2.1
	c-0.5,0.6-1,1.2-1.4,1.9C340.2,198.7,339.8,199.3,339.3,199.9z M208.3,177.3c0.5-0.7,0.7-1.2,0.8-1.4c0.8-1.9,1.5-3.7,2.1-5.2
	c0.6-1.6,1.2-3.1,1.6-4.7c0.4-1.6,0.7-3.3,1-5.1c0.2-1.8,0.4-3.8,0.4-6c0.1-2.5-0.1-4.9-0.6-7.4c-0.5-2.5-1.4-5-2.7-7.7
	c-1.1,0.9-1.9,2-2.3,3.4c-0.7,1.5-1.2,3.1-1.5,4.7c-0.3,1.6-0.5,3.3-0.6,5c-0.2,3.9-0.3,7.3-0.4,10.4c-0.1,3.1,0.1,6.7,0.5,10.8
	c0,0.8,0.1,1.4,0.3,2.1c0.2,0.6,0.3,1.4,0.4,2.2C207.5,178.4,207.8,178,208.3,177.3z M248.2,226.1c-0.2-1.3-0.3-2.2-0.4-2.7
	c-0.1,0.1-0.7,0.6-1.9,1.4c-1.2,0.9-2.3,2.5-3.2,4.8c-0.4,1-0.7,2.1-0.9,3.5c-0.2,1.4,0,2.6,0.5,3.5c0.1,0.4,0.3,0.8,0.6,1.2
	c0.3,0.4,0.6,0.6,1.1,0.6c0.9,0,1.5-0.5,2-1.4c0.5-0.9,0.8-1.6,1.1-2.2c0.3-0.9,0.5-1.8,0.7-2.7c0.2-1,0.4-1.9,0.4-2.7
	C248.5,228.5,248.4,227.3,248.2,226.1z M65.7,52.1c2.2,0.4,4.6,0.1,7.1-1.1c0.1,0,0.4-0.1,0.7-0.3c0.3-0.2,0.5-0.6,0.7-1.1
	c0.1-0.5,0.1-1.2,0-2.1c-0.1-0.9-0.6-2.1-1.3-3.5c-1.2-2.3-1.7-4.9-1.4-7.5c0.2-2.6,1.1-5.2,2.5-7.7c1.9-3.4,4.6-6.4,8-8.9
	c3.5-2.6,6.6-4.2,9.6-5c1,1.2,1.6,2.5,1.7,4.1c0.1,1.5,0,3.1-0.3,4.5c-0.9,4.7-2.2,9.3-4,13.7c-1.8,4.4-3.6,8.7-5.5,13
	c-3.1,7.1-6.1,14-9.2,20.9c-3,6.9-5.6,14.1-7.6,21.6c-1.5,5.1-2.6,10.3-3.5,15.4c-0.9,5.1-1.2,10.4-0.9,15.7
	c0.4,6.6,2.6,11.7,6.6,15.2c4,3.5,9.3,5.2,16.1,5.1c3.4-0.1,6.4-0.8,9-2c2.6-1.2,5.1-2.8,7.5-4.9c3.2-2.9,6-6.1,8.2-9.5
	c2.2-3.4,4.2-7,6-10.8c0.6-1.3,1.4-3.1,2.3-5.4c1-2.3,1.6-3.9,1.9-4.7c0.1,1.2,0.4,2.5,0.8,3.9c0.4,1.4,0.7,2.5,1,3.2
	c0.9,3.1,2.1,6.1,3.6,8.9c1.5,2.9,3.1,5.3,4.7,7.2c2.1,2.4,4.4,4.5,6.9,6.4c2.6,1.9,5.5,3.1,8.9,3.5c6.6,1,11.8,0.3,15.4-2.3
	c3.7-2.6,6.2-6.3,7.7-11.1c0.3-0.7,0.5-1.5,0.6-2.2c0.1-0.7,0.3-1.5,0.6-2.2c1.2-6,1.7-12,1.7-18c-0.1-6-0.5-12-1.2-18.2
	c-1.2-10.1-3.6-19.7-7.4-28.8s-8.1-18-13.1-26.8c-1.2-2.3-2.7-3.8-4.6-4.3c-1.9-0.5-4.2-0.5-6.8,0.1c-2.4,0.4-3,1.8-2,4.2
	c1.5,3.7,3.2,7.5,5.1,11.5c4.1,8.7,7.5,17.4,10.1,26.2c2.6,8.8,4.3,18,5.1,27.6c0.1,1.6,0.3,3.2,0.3,4.6c0.1,1.5,0.1,2.9,0.1,4.4
	c0,5.9-0.5,11.3-1.5,16.3c-0.3,1-0.6,2.2-0.9,3.4c-0.3,1.3-0.7,2.5-1.1,3.6c-0.4,1.2-1,2.2-1.5,3.1c-0.6,0.9-1.2,1.4-1.8,1.5
	c-0.4,0.1-1.1-0.2-2.1-1.1c-1-0.9-2-2-3.1-3.3c-1.1-1.3-2.2-2.8-3.2-4.4c-1-1.6-1.8-3.2-2.4-4.6c-2.5-5.6-4.3-11.4-5.5-17.5
	c-1.2-6.1-1.8-12.2-2-18.4c-0.1-1.6-0.3-3.2-0.3-4.9c-0.1-1.6-0.2-3.2-0.3-4.9c0-2.1-1-3.3-3.1-3.7c-2.5-0.4-4.8-0.2-6.8,0.7
	c-2.1,0.9-3.5,2.7-4.2,5.5c-3.5,14.6-8.7,28.4-15.7,41.7c-1.6,2.9-3.4,5.7-5.3,8.4c-1.9,2.6-4.2,5-6.8,7.1c-0.6,0.4-1.1,0.8-1.7,1.1
	c-0.5,0.3-1.1,0.7-1.7,1.1c-1.8-2.6-2.7-5.4-2.9-8.4c-0.1-2.9-0.1-5.9,0.2-8.8c1.2-9.1,3.3-17.9,6.3-26.5c3-8.5,6.2-17,9.6-25.4
	c2.1-5.1,4.1-10.3,6.1-15.4c2-5.1,3.8-10.4,5.4-15.7c1.3-4.3,1.8-8.8,1.5-13.7c-0.3-6.5-3.7-10.7-10.4-12.8c-4-1.3-8.2-1.6-12.8-0.9
	c-5.1,0.7-9.5,2.1-13.1,4c-3.6,1.9-6.9,4.8-10,8.6c-2.9,3.7-4.9,8.1-5.8,13.2c-1,5.1-0.7,9.9,0.8,14.1
	C61.9,50.2,63.5,51.6,65.7,52.1z M179,114c-0.6-5.9-0.3-11.6,0.9-17.1s3-10.8,5.5-16c0.7-1.6,1.5-3.1,2.4-4.5
	c0.9-1.4,1.8-2.8,2.6-4.1c1.3-2.1,3-3.4,5-4c2-0.6,4.2-0.7,6.5-0.4c2.6,0.4,3.7,2.1,3.3,4.9c-0.1,1.2-0.4,2.4-0.7,3.6
	c-0.3,1.3-0.6,2.5-0.9,3.6c-0.9,3.1-1.7,6.2-2.5,9.4c-0.8,3.2-1.5,6.4-2.1,9.6c-0.6,3.2-1.1,6.5-1.5,9.9c-0.4,3.4-0.3,6.7,0.4,9.9
	c0.6,2.4,1.4,4.1,2.3,5.3c1,1.2,1.6,1.7,1.9,1.5c1-0.3,2.3-1.1,3.7-2.3c1.5-1.2,2.6-2.3,3.3-3.2c1.5-1.8,3.1-4,5-6.7
	c1.8-2.7,3.7-5.7,5.5-8.8c1.5-2.6,2.9-5.3,4.3-8c-0.2-6,0.1-12,1.1-18c0.3-1.6,0.7-3.1,1.1-4.5c0.4-1.4,1-2.8,1.5-4.1
	c0.9-2.1,2.4-3.5,4.6-4.3c2.2-0.8,4.3-0.6,6.4,0.6c1.5,0.6,2.2,1.8,2.2,3.5c-0.1,3.5-0.4,7.1-0.7,10.6c-0.3,3.5-0.3,7.1,0,10.6
	c0.6-1.2,1-2.1,1.3-2.9c3.1-8.4,7.1-16.2,12.1-23.4c3.5-5.1,7.6-9.2,12.1-12.1c6-4.1,12.7-5.1,20.1-3.1c6.3,1.8,9.5,6.1,9.5,13
	c0,4.1-0.8,8.2-2.4,12.1l-11.9,27.8c-2.4,5.1-4.4,10.4-6.3,15.8c-1.8,5.4-3.3,10.9-4.3,16.6c-0.7,3.7-0.6,7.1,0.4,10.1
	c0.3,0.7,0.6,1.4,1,2.1c0.4,0.7,0.8,1.4,1.2,2.3c1-0.7,2-1.4,3-1.9c1-0.5,1.8-1.1,2.5-1.7c2.9-2.4,5.5-5,7.8-7.8
	c2.3-2.9,4.3-6,6.1-9.4c1.5-2.8,3.1-6,4.9-9.6c1.8-3.6,3.5-7.3,5.1-11.2c0.3-0.8,0.7-1.6,1-2.4c-0.2-4,0.1-7.8,1-11.6
	c1.5-6.3,4.1-12.6,7.9-18.7c1.2-1.6,2.4-3.2,3.6-4.9c1.2-1.6,2.7-3.1,4.3-4.4c4.9-4.1,10.3-6,16.3-5.5c2.2,0.1,3.9,0.7,5,1.7
	c1.1,1,1.9,2.5,2.3,4.5c1,5.1,0.5,10.5-1.5,16.1c-1.3,3.4-3.2,6.1-5.7,8c-2.5,2-5.7,3.1-9.7,3.4h-4.4c-0.3,0.9-0.5,1.8-0.6,2.6
	c-0.1,0.9-0.2,1.8-0.3,2.6c-0.4,3.5-0.5,6.9-0.2,10.3c0.3,3.3,1.2,6.7,2.6,10c1.2,2.9,3,5.4,5.5,7.3c1.3,1,2.8,1.3,4.3,0.9
	c1.5-0.4,3.1-1.2,4.5-2.2c2.8-2.2,6.4-6.5,10.7-13c4.3-6.5,8.9-15.2,13.6-26.2c1.2-2.5,2.6-3.5,4.4-2.9c0.7,0.3,1.2,0.8,1.3,1.4
	c0.1,0.7,0.1,1.4,0,2.3c-0.2,0.9-0.4,1.7-0.8,2.5c-0.4,0.8-0.6,1.5-0.8,2.1c-0.7,1.6-1.8,3.9-3.2,6.8c-1.4,2.9-3,6-4.7,9.3
	c-1.8,3.2-3.6,6.4-5.4,9.5c-1.8,3.1-3.6,5.7-5.2,7.7c-2.5,3.2-5.4,5.6-8.6,7.1c-3.2,1.5-6.5,2.2-9.9,2.2c-3.4,0-6.7-0.7-9.8-2
	c-3.2-1.3-5.9-3.1-8.3-5.3c-1.9-1.9-3.4-4-4.5-6.2c-0.4-0.9-0.8-1.8-1.2-2.7c-2.4,5.1-5,10.1-8,15.1c-1.6,2.6-3.3,5.2-5,7.7
	c-1.7,2.5-3.8,4.8-6.3,6.8c-1.6,1.5-3.4,2.7-5.4,3.7c-2,1-4.1,1.7-6.3,2c-4.9,0.6-9.2-0.4-13-3.1c-3.8-2.6-6-6.4-6.6-11.2
	c-0.4-3.4-0.5-6.7-0.1-9.9c0.4-3.2,0.9-6.5,1.7-9.9c1.6-6.6,3.6-13,6.1-19.3c2.4-6.2,4.8-12.5,7.2-18.6c1-2.9,2.1-5.8,3.2-8.6
	c1.1-2.8,2.1-5.7,3-8.6c0.4-1.5,0.7-2.9,0.9-4.3c0.1-1.4-0.1-3-0.9-5c-1.2,1-2.3,1.9-3.4,2.6c-1.1,0.7-2.2,1.5-3.2,2.4
	c-4,3.5-7.6,7.9-10.8,13c-4,6.2-7.1,12.6-9.5,19.3c-2.4,6.7-4.1,13.7-5.3,21.1c-0.1,1-0.3,2.1-0.3,3.1c-0.1,1-0.2,2.1-0.3,3.1
	c-0.6,2.4-0.5,5,0.2,7.9c0.6,1.9-0.1,3.2-2,3.7c-2.6,0.9-5.4,0.9-8.2,0c-0.7-0.3-1.4-0.7-1.9-1.2c-0.5-0.5-0.9-1.1-1.2-1.9
	c-1.2-2.1-2.1-4.1-2.8-6.2c-0.7-2.1-1.2-4.2-1.7-6.4c-0.4-1.9-0.7-3.9-1-5.8c-0.3,0.5-0.6,1.1-0.9,1.6c-2.6,4.4-5.7,8.7-9.4,13
	c-3.5,4-7.6,6.3-12.3,7.1c-4.7,0.7-8.7,0.4-12.1-0.9c-3.8-1.6-6.6-3.9-8.3-6.7C180.5,121.2,179.5,117.9,179,114z M323.4,90
	c2.1,0.3,3.7,0.1,4.9-0.7c1.2-0.7,2.2-1.8,3.1-3.1c1.2-1.6,2-3.3,2.5-5.2c0.5-1.8,0.9-3.7,1.2-5.6c0.3-2.5-0.1-4.9-1.1-7.3
	c-2.5,3.5-4.6,7.1-6.4,10.6C325.9,82.3,324.5,86,323.4,90z M200.6,57.4c1,0.6,2.2,0.7,3.5,0.4c1.3-0.3,2.3-0.8,3.1-1.5
	c1.6-1.5,2.6-3.2,2.9-5.3c0.3-2.1-0.1-3.9-1.3-5.5c-0.6-1-1.5-1.7-2.6-2c-2.1-0.3-3.9,0.3-5.6,1.9c-1.7,1.5-2.7,3.3-3,5.4
	C197.1,53.4,198.1,55.6,200.6,57.4z M181.8,242.1c0.4-0.9,0.2-2.3-0.6-4.3c-0.5-1-1-1.7-1.6-2.2c-0.5-0.5-1-0.9-1.3-1.3
	c-0.3-0.4-0.5-0.7-0.5-1c0-0.3,0.2-0.6,0.7-1c0.7-0.5,1.6-0.7,2.8-0.6c1.2,0.1,2.3,0.6,3.4,1.4c1.8,1.3,3.1,3.1,3.9,5.5
	c0.8,2.4,1.1,4.2,0.9,5.6c-0.3,1.8-1.1,3.2-2.3,4.1c-1.3,0.9-2.7,1.5-4.4,1.7c-1.9,0.2-3.5,0.2-5,0c-1.5-0.2-2.8-0.6-4.2-1.2
	c-1.3-0.6-2.6-1.4-3.8-2.5c-1.2-1.1-2.7-2.5-4.3-4.2c-2.4-2.7-4.6-5.8-6.5-9.2c-1.9-3.5-3.6-7-5-10.5c-1.4-3.5-2.6-6.9-3.5-10.2
	c-0.9-3.3-1.6-6-2.1-8.3c-3.2,0.5-6.3,0.8-9.4,0.9c-3.1,0.1-6.3-0.3-9.7-1.2c0.1,2.1,0.4,4.9,0.7,8.2c0.3,3.3,0.7,6.7,1.1,10
	c0.4,3.4,0.8,6.5,1.2,9.4c0.4,2.9,0.7,4.9,1,6.1c0.7,2.5-0.4,3.7-3.3,3.7c-2.5,0-4.1-1.4-4.8-4.2c-0.6-2.4-1.2-4.9-1.8-7.6
	c-0.5-2.7-1-5.5-1.4-8.4c-0.4-2.8-0.7-5.6-1-8.3c-0.3-2.7-0.4-5.1-0.5-7.4c-0.2-1.6-0.2-3-0.2-4.2c-1.2-0.6-2.3-1.2-3.3-1.8
	c-1-0.5-2-1.1-3.1-1.6c-0.7-0.4-1.3-0.9-1.9-1.3c-0.6-0.4-1.2-0.9-1.8-1.4c-0.9-0.9-1.3-1.6-1.3-2.3c0-0.7,0.6-1.1,1.6-1.2
	c1,0,1.8,0.1,2.5,0.3c0.7,0.2,1.7,0.5,2.9,1c0.8,0.3,1.6,0.6,2.4,0.9c0.7,0.3,1.5,0.6,2.2,0.9c0.8-5.1,1.8-9.7,2.8-13.8
	c1-4.1,2.2-7.8,3.5-11.2c1.3-3.4,2.8-6.5,4.5-9.4c1.7-2.9,3.7-5.8,5.8-8.8c2.3-3.1,5.9-4.2,10.8-3.4c2.1,0.3,3.8,1,5,1.9
	c1.2,1,2,2.5,2.5,4.5c0.6,3.7,1.3,7.5,2,11.2c0.7,3.7,1.2,7.4,1.7,11.2c0.8,7,1.7,13.9,2.7,20.7c1,6.9,2.7,13.8,5.1,20.9
	c0.5,1.5,1.1,3.4,2,5.7c0.8,2.3,1.8,4.7,2.9,7.1c1.1,2.4,2.3,4.7,3.6,6.9c1.3,2.2,2.7,3.9,4,5.2C180.5,243.3,181.3,243,181.8,242.1z
	 M147,195.6c-0.8-6-1.3-11.9-1.5-17.7c-0.2-5.8-0.8-11.7-1.7-17.8c-3.9,5.5-6.9,11.1-9.2,17c-2.3,5.9-3.8,12.5-4.6,19.8
	c3,0.5,6.1,0.6,9.4,0.2C142.5,196.6,145.1,196.1,147,195.6z M270.1,180.6c0.9,0.4,1.8,0.5,2.7,0.3c0.9-0.2,1.5-0.6,1.9-1.1
	c0.8-1.1,1.1-2.4,0.9-3.9c-0.3-1.5-1-2.8-2.2-4c-0.7-0.7-1.5-1.2-2.4-1.4c-1.6-0.2-2.8,0.2-3.7,1.4c-0.9,1.1-1.2,2.4-0.9,3.9
	C266.6,177.7,267.9,179.3,270.1,180.6z M60.4,381.9c0.6-4.7,1.4-8,2.6-9.8c0.7-1.2,1.8-1.8,3.1-1.8c1.3,0,2.6,0.7,4,2.2
	c0.7,0.7,1.2,1.1,1.5,1.1c0.3,0,0.5-0.3,0.7-0.8c0.2-0.5,0.2-1.1,0.2-1.7c-0.1-1.8-0.6-3.4-1.5-4.8c-0.9-1.4-2.1-2.4-3.5-3.2
	c-1.4-0.8-2.9-1.2-4.5-1.2c-3,0-5.4,0.7-7.1,2.1c-1.7,1.4-3,3.3-3.8,5.7c-0.8,2.4-1.3,5.2-1.4,8.4c-0.1,1.2-0.1,2.5-0.1,3.8
	c-1.2,0.1-2.2,0.1-2.9,0.3c-1.3,0.3-1.9,0.9-1.9,1.8c0,1.2,0.7,1.9,2.1,2.2c0.8,0.2,1.7,0.3,2.7,0.4l0.1,1.7
	c0.4,12.7,1.3,21.9,2.7,27.7c1.3,5.8,3.1,8.7,5.3,8.7c0.9,0,1.3-0.4,1.2-1.2l-0.2-5.9c-0.5-13.1-0.4-23.4,0.2-31.1
	c3.4-0.2,6-0.6,8-1.1c1.6-0.5,2.4-1,2.4-1.7C70.4,382.7,67.1,382.2,60.4,381.9z M103.5,408.2c0,0.7-0.2,1.8-0.6,3.1
	c-1,3.3-3,6-5.9,8.1c-2.3,1.7-5.2,2.6-8.8,2.6c-5,0-8.9-1.5-11.9-4.6c-3.4-3.5-5.2-8.7-5.5-15.4c-0.1-3.4,0.3-6.6,1.4-9.7
	c1-3.1,2.9-5.7,5.5-7.7c3-2.4,6.6-3.6,10.8-3.6c4.5,0,8,1.5,10.4,4.4c1.5,1.9,2.3,4.3,2.4,7.3c0.1,3.2-0.8,6-2.8,8.5
	c-2.3,2.7-5.8,4.1-10.6,4.1c-2.9,0-5.3-0.6-7.3-1.7c0,0.8,0.1,1.6,0.2,2.3c0.3,3.3,1.4,5.9,3.2,7.8c1.6,1.7,3.7,2.5,6.1,2.5
	c4.3,0,8.1-2.8,11.3-8.3c0.3-0.5,0.7-0.8,1.1-0.8C103.1,407.1,103.4,407.4,103.5,408.2z M81,399.8c1.2,1.1,2.7,1.6,4.6,1.6
	c3,0,5.5-0.9,7.4-2.6c1.5-1.4,2.3-3.1,2.2-5.3c-0.1-2.8-1.6-4.2-4.4-4.2c-2.2,0-4.1,0.6-5.5,1.9C83.1,393.2,81.6,396,81,399.8z
	 M140.4,408.2c0,0.7-0.2,1.8-0.6,3.1c-1,3.3-3,6-5.9,8.1c-2.3,1.7-5.2,2.6-8.8,2.6c-5,0-8.9-1.5-11.9-4.6c-3.4-3.5-5.2-8.7-5.5-15.4
	c-0.1-3.4,0.3-6.6,1.4-9.7c1-3.1,2.9-5.7,5.5-7.7c3-2.4,6.6-3.6,10.8-3.6c4.5,0,8,1.5,10.4,4.4c1.5,1.9,2.3,4.3,2.4,7.3
	c0.1,3.2-0.8,6-2.8,8.5c-2.3,2.7-5.8,4.1-10.6,4.1c-2.9,0-5.3-0.6-7.3-1.7c0,0.8,0.1,1.6,0.2,2.3c0.3,3.3,1.4,5.9,3.2,7.8
	c1.6,1.7,3.7,2.5,6.1,2.5c4.3,0,8.1-2.8,11.3-8.3c0.3-0.5,0.7-0.8,1.1-0.8C140.1,407.1,140.4,407.4,140.4,408.2z M118,399.8
	c1.2,1.1,2.7,1.6,4.6,1.6c3,0,5.5-0.9,7.4-2.6c1.5-1.4,2.3-3.1,2.2-5.3c-0.1-2.8-1.6-4.2-4.4-4.2c-2.2,0-4.1,0.6-5.5,1.9
	C120,393.2,118.6,396,118,399.8z M164.9,415.7c-0.3,0-0.6,0.2-1,0.7c-0.8,1-1.9,1.5-3.3,1.5c-2.1,0-3.4-2-4-5.9
	c-0.4-2.2-0.6-5.1-0.7-8.7c-0.2-4.6-0.1-10.5,0.1-17.6c0.2-6.6,0.3-11.7,0.1-15.2c-0.2-5.6-1.9-8.5-5.1-8.5c-4.3,0-6.2,7-5.7,21
	c0.6,16.3,2,27,4.1,32.1c1.9,4.7,5.1,7,9.5,7c2.1,0,3.7-0.5,4.9-1.6c1.2-1.1,1.7-2.5,1.7-4.2C165.4,415.9,165.2,415.7,164.9,415.7z
	 M216.1,390.2c1,2.1,1.5,4.5,1.6,7.1c0.1,2.9-0.3,5.9-1.1,8.8c-0.8,2.9-2,5.6-3.6,8c-1.6,2.4-3.6,4.3-5.9,5.8
	c-2.3,1.5-4.9,2.2-7.8,2.2c-2.9,0-5.4-0.6-7.6-1.9c-0.8-0.5-1.5-1-2.1-1.7l0.1,2.2c0,0.9-0.2,1.4-0.8,1.4c-3.3,0-5.7-6-7.3-18.1
	c-0.8-5.9-1.3-12.6-1.6-20.2c-0.2-7,0-12.1,0.6-15.3c0.9-4.4,2.9-6.6,5.9-6.6c2.9,0,4.4,2.3,4.6,7c0.1,4.1,0,10.9-0.6,20.5
	c-0.1,2.3-0.3,4.7-0.4,7.1c1.2-3.4,2.9-6.2,5.2-8.6c2.9-3.2,6.3-4.8,10.1-4.8c2.5,0,4.6,0.6,6.4,1.9
	C213.7,386.4,215.1,388.1,216.1,390.2z M208.4,396.4c0-0.9-0.2-1.7-0.5-2.6c-0.3-0.9-0.8-1.6-1.4-2.1c-0.6-0.6-1.4-0.8-2.4-0.8
	c-1.8,0-3.4,0.6-4.8,1.9c-3,2.7-5.5,7-7.3,13c-0.7,2.2-1.4,5.1-2.4,8.8c1.5,0.9,3,1.3,4.4,1.3c2.2,0,4.1-0.6,5.9-1.7
	c1.8-1.1,3.3-2.6,4.6-4.5s2.3-3.9,2.9-6.2C208.2,401.2,208.5,398.9,208.4,396.4z M256.3,408.2c0,0.7-0.2,1.8-0.6,3.1
	c-1,3.3-3,6-5.9,8.1c-2.3,1.7-5.2,2.6-8.8,2.6c-5,0-8.9-1.5-11.9-4.6c-3.4-3.5-5.2-8.7-5.5-15.4c-0.1-3.4,0.3-6.6,1.4-9.7
	c1-3.1,2.9-5.7,5.5-7.7c3-2.4,6.6-3.6,10.8-3.6c4.5,0,8,1.5,10.4,4.4c1.5,1.9,2.3,4.3,2.4,7.3c0.1,3.2-0.8,6-2.8,8.5
	c-2.3,2.7-5.8,4.1-10.6,4.1c-2.9,0-5.3-0.6-7.3-1.7c0,0.8,0.1,1.6,0.2,2.3c0.3,3.3,1.4,5.9,3.2,7.8c1.6,1.7,3.7,2.5,6.1,2.5
	c4.3,0,8.1-2.8,11.3-8.3c0.3-0.5,0.7-0.8,1.1-0.8C255.9,407.1,256.2,407.4,256.3,408.2z M233.8,399.8c1.2,1.1,2.7,1.6,4.6,1.6
	c3,0,5.5-0.9,7.4-2.6c1.5-1.4,2.3-3.1,2.2-5.3c-0.1-2.8-1.6-4.2-4.4-4.2c-2.2,0-4.1,0.6-5.5,1.9C235.9,393.2,234.4,396,233.8,399.8z
	 M293.6,382.2c-0.1,9.4-0.1,16.4,0,21c0.1,3.6,0.4,6.5,0.7,8.7c0.6,3.9,2,5.9,4,5.9c1.5,0,2.6-0.5,3.3-1.5c0.4-0.5,0.7-0.7,1-0.7
	c0.3,0,0.5,0.2,0.5,0.6c0,1.7-0.5,3.1-1.7,4.2c-1.2,1.1-2.8,1.6-4.9,1.6c-4.4,0-7.5-2.3-9.5-7c-2.1-5.2-3.6-19.1-4.4-41.8
	c-3.3-0.1-6.8-0.4-10.7-1l-0.1,10c-0.1,9.4-0.1,16.4,0,21c0.1,3.6,0.4,6.5,0.7,8.7c0.6,3.9,2,5.9,4,5.9c1.5,0,2.6-0.5,3.3-1.5
	c0.4-0.5,0.7-0.7,1-0.7s0.5,0.2,0.5,0.6c0,1.7-0.5,3.1-1.7,4.2c-1.2,1.1-2.8,1.6-4.9,1.6c-4.4,0-7.5-2.3-9.5-7
	c-2.1-5.1-3.6-18.8-4.4-41.1c0-1.4-0.1-2.6,0-3.8c-6.6-1.3-12.2-2-16.9-2c-9.4,0-16.2,2.4-20.4,7.1c-0.4,0.4-0.8,0.6-1.4,0.6
	c-0.4,0-0.8-0.2-1.2-0.5c-0.4-0.3-0.6-0.7-0.6-1.3c0-0.5,0.1-0.9,0.4-1.2c5.2-5.6,12.7-8.5,22.6-8.5c5.1,0,11,0.7,17.7,2
	c0.6-5.8,2.5-8.7,5.6-8.7c3.2,0,4.9,2.2,5,6.6c0,1.2,0.1,2.6,0.1,4.2c3.9,0.6,7.5,0.9,10.6,1c0.1-9.9,2-14.8,5.8-14.8
	c3.2,0,4.9,2.2,5,6.6c0.1,1.6,0.1,3.9,0.1,6.8c2.9-1,5.3-2.4,7.1-4.3c3.6-3.8,5.3-9,5.1-15.5c-0.1-3.2-1-6.1-2.6-9
	c-0.6-1-0.9-1.7-0.9-2.4c0-0.5,0.1-0.9,0.4-1.2c-0.9,0.6-1.8,1.1-2.8,1.5c-2.4,0.9-4.8,1.2-7.2,0.9c-2.4-0.3-4.7-1.1-6.9-2.5
	c-2.2-1.4-3.9-3.1-5.2-5.1c-1.1-1.7-1.9-3.3-2.4-5c-0.5-1.7-1-3.5-1.4-5.5c-0.8-3.8-1.2-7.6-1.3-11.4c-0.1-3.8,0-7.6,0.4-11.4
	c0.4-3.8,0.9-7.6,1.5-11.4s1.5-7.5,2.6-11.2c1.2-3.7,2.6-7.2,4.2-10.6c1.6-3.4,3.5-6.7,5.8-9.8c1-1.4,2-2.6,3.1-3.9
	c1.1-1.2,2.2-2.4,3.4-3.6c1.2-1.1,2.6-2,4.4-2.7c1.7-0.7,3.6-1,5.5-0.8c1.7,0.2,2.8,1,3.5,2.6c0.7,1.5,0.9,3.1,0.7,4.9
	c-0.7,6.9-2.3,13.4-4.8,19.5c-2.5,6.1-5.6,11.6-9.2,16.6c-1,1.4-2,2.7-3.1,4c-1.1,1.3-2.4,2.5-3.7,3.6c-0.6,0.4-0.9,1-1,1.9
	c-0.6,5-0.8,9.9-0.7,14.7c0.1,4.9,0.8,9.7,2.1,14.6c0.4,1.4,0.8,2.6,1.4,3.8c0.5,1.2,1.3,2.3,2.3,3.4c0.2,0.2,0.6,0.5,1.2,0.9
	c0.6,0.4,1.1,0.7,1.4,0.7c1.6-0.7,3-1.7,4.3-3.2c1.3-1.5,2.5-3.1,3.6-5c1.1-1.9,2.1-3.9,3.1-6.1c0.9-2.2,1.8-4.3,2.6-6.5
	c-0.2-3.4-0.1-6.8,0.2-10.1c0.3-3.4,0.9-6.7,1.7-10.1c1.3-5.6,2.8-11.2,4.6-16.6c1.8-5.4,4.1-10.7,6.8-15.8c1.1-1.9,2.2-3.8,3.4-5.6
	c1.2-1.8,2.5-3.6,3.9-5.3c0.9-1.2,1.8-2.2,2.9-3.2c1.1-1,2.2-1.9,3.4-2.8c1.3-1.1,2.7-1.8,4.2-2.3c1.6-0.4,3.2-0.5,4.8-0.2
	c1.1,0.2,1.9,0.9,2.4,2c0.5,1.1,0.9,2.3,1.1,3.4c0.2,1,0.1,2.7-0.1,5.1c-0.3,2.4-0.8,5.2-1.5,8.3c-0.7,3.1-1.8,6.3-3.1,9.7
	c-1.3,3.4-2.9,6.4-4.7,9.3c-1.5,2.2-3.4,5.1-5.8,8.6c-2.4,3.5-5.5,7-9.3,10.4c-0.5,3.4-0.9,7.2-1.2,11.3c-0.3,4.1-0.3,7.9-0.1,11.3
	c0.2,2.4,0.5,4.8,0.8,7.2c0.3,2.4,0.9,4.7,1.8,6.9c0.3,0.9,0.6,1.7,1,2.5c0.4,0.8,1,1.6,1.7,2.3c0.9-0.4,1.6-0.9,2.3-1.4
	c0.6-0.5,1.2-1.1,1.8-1.8c1.2-1.4,2.2-2.8,3.1-4.2c0.9-1.5,1.8-3,2.6-4.7c1.7-3.6,3.2-7.4,4.7-11.4c1.5-4,2.8-7.9,3.9-11.7
	c0-0.1,0-0.4,0.1-0.8c0.1-0.4,0.3-0.9,0.6-1.4c0.3-0.5,0.7-0.9,1.1-1.3c0.4-0.4,1-0.5,1.8-0.4c1,0.1,1.4,0.6,1.4,1.6
	c-0.1,1-0.2,2-0.4,3.1c-0.9,4.4-2.1,8.7-3.7,13c-1.6,4.3-3.2,8-4.9,11.2c-0.8,1.7-1.7,3.2-2.6,4.7c-1,1.5-2,2.9-3.2,4.3
	c-1.4,1.7-2.9,2.8-4.7,3.6c-1.8,0.7-3.6,1-5.4,0.9c-1.8-0.1-3.5-0.5-5.3-1.3c-1.7-0.8-3.1-1.9-4.3-3.4c-3.5-4.2-5.7-8.9-6.7-14.3
	c-1.1,2.1-2,3.9-2.8,5.3c-0.8,1.4-1.5,2.5-2.1,3.3c-0.8,1-1.6,1.8-2.6,2.6c0.4-0.2,0.8-0.3,1.2-0.3c0.9,0,1.9,0.8,2.9,2.5
	c2.1,3.3,3.2,6.9,3.3,10.9c0.3,7.5-1.9,13.5-6.4,18c-2.8,2.8-6.4,4.7-11,5.8L293.6,382.2z M325.3,291.7c1.6-1.7,2.8-3.3,3.8-4.6
	c1-1.3,2-2.7,3-4.1c1-1.4,1.8-2.6,2.3-3.6c2.2-4.3,4.1-8.2,5.5-11.7c1.5-3.5,2.6-7.3,3.5-11.4c0.1-0.7,0.2-1.5,0.4-2.6
	c0.2-1,0.3-2,0.4-3c0-1,0-1.9-0.1-2.7c-0.1-0.8-0.3-1.4-0.7-1.8c-0.5,0.5-0.9,0.9-1.3,1.3c-0.4,0.4-0.7,0.8-0.9,1.2
	c-0.8,1.4-1.6,2.7-2.4,3.9c-0.8,1.3-1.6,2.6-2.3,3.9c-2.5,5.2-4.5,9.6-5.9,13.5c-1.4,3.8-2.5,7.1-3.2,9.9c-0.7,2.8-1.2,5.1-1.5,7
	C325.7,289,325.5,290.5,325.3,291.7z M290.2,286.3c1.2-1.4,2.8-3.6,4.9-6.6c2.1-3.1,3.9-6.5,5.3-10.4c0.9-2.3,1.6-4.7,2.3-7
	c0.6-2.3,1.1-4.5,1.5-6.4c0.3-1.9,0.6-3.6,0.7-5c0.1-1.4,0.2-2.2,0.1-2.6c-1.3,0.9-2.7,2.7-4.2,5.6c-1.5,2.9-3,6.2-4.4,9.8
	c-1.5,3.7-2.7,7.6-3.9,11.6C291.3,279.3,290.6,283,290.2,286.3z M337.5,408.2c0,0.7-0.2,1.8-0.6,3.1c-1,3.3-3,6-5.9,8.1
	c-2.3,1.7-5.2,2.6-8.8,2.6c-5,0-8.9-1.5-11.9-4.6c-3.4-3.5-5.2-8.7-5.5-15.4c-0.1-3.4,0.3-6.6,1.4-9.7c1-3.1,2.9-5.7,5.5-7.7
	c3-2.4,6.6-3.6,10.8-3.6c4.5,0,8,1.5,10.4,4.4c1.5,1.9,2.3,4.3,2.4,7.3c0.1,3.2-0.8,6-2.8,8.5c-2.3,2.7-5.8,4.1-10.6,4.1
	c-2.9,0-5.3-0.6-7.3-1.7c0,0.8,0.1,1.6,0.2,2.3c0.3,3.3,1.4,5.9,3.2,7.8c1.6,1.7,3.7,2.5,6.1,2.5c4.3,0,8.1-2.8,11.3-8.3
	c0.3-0.5,0.7-0.8,1.1-0.8C337.2,407.1,337.5,407.4,337.5,408.2z M315,399.8c1.2,1.1,2.7,1.6,4.6,1.6c3,0,5.5-0.9,7.4-2.6
	c1.5-1.4,2.3-3.1,2.2-5.3c-0.1-2.8-1.6-4.2-4.4-4.2c-2.2,0-4.1,0.6-5.5,1.9C317.1,393.2,315.7,396,315,399.8z M366.6,382.3
	c-1-0.8-2.2-1.2-3.6-1.2c-4.8,0-8.1,2.9-10,8.7c-0.3-5.8-1.7-8.8-4.4-8.8c-1.7,0-2.9,0.7-3.7,2c-0.8,1.3-1.4,3.1-1.6,5.4
	c-0.2,2.3-0.3,4.8-0.2,7.6c0.3,8.8,1.3,15.5,3.1,20.3c1.4,3.7,3.2,5.6,5.3,5.6c0.3,0,0.6-0.1,0.7-0.3c0.1-0.2,0.2-0.5,0.2-1
	c-0.1-3-0.1-6.9,0.1-11.7c0.1-3.9,0.5-7.2,1.2-10c1.7-6.5,4.2-9.7,7.7-9.7c2.4,0,4.3,1.5,5.8,4.5c0.2,0.5,0.5,0.7,0.9,0.7
	c0.4,0,0.8-0.4,1.1-1.3c0.4-1,0.5-2.1,0.5-3.3c-0.1-1.7-0.4-3.1-0.9-4.5C368.3,384.2,367.6,383.1,366.6,382.3z M95.4,295.4
	c15.6,59.1,15.6,59.1,9,62.1C72.2,372,51,380.1,115.3,365c64.4-14.9,41.8-12.8,6.5-11.6c-7.3,0.2-7.3,0.2-19.4-59.7
	c-3.2-15.7,9.4-14.5,15.8-38.2c4.9-18.1-27.1-85.5-36.5-105.6c-2.1-4.5-5.1-4.1-16.8-1.3c-11.7,2.6-14.6,3.6-14.5,8.5
	c0.4,22.2,1.5,96.8,13.9,110.9C80.6,286.5,91.3,279.9,95.4,295.4z M134.4,322.9c1.1-2.7,3.3-5.3,6.7-7.6c0.5-0.4,0.9-0.8,1.1-1.2
	c0.2-0.4-0.3-0.8-1.5-1.3c-1.3-0.5-2.5-0.6-3.7-0.2c-1.2,0.3-2.4,0.9-3.4,1.7c-3.7,2.7-6.3,6.2-7.8,10.6c-1.5,4.3-1.7,8.7-0.5,13.2
	c1.6,5.4,5,8.5,10.4,9c1,0.2,2,0.2,3.1,0.1c1.1-0.1,2.1-0.4,3-0.7c3.9-1.2,7.3-3.1,10.1-5.7c2.9-2.6,5.3-5.7,7.3-9.1
	c2-3.5,3.6-7.1,4.9-11c1.3-3.9,2.2-7.7,2.9-11.4c0.7-3.7,1.1-7.3,1.4-10.6c0.2-3.3,0.4-6.1,0.5-8.3c0.2-5.6-0.1-11.3-0.9-16.9
	c-0.8-5.6-1.6-10.5-2.3-14.6c-0.3-1.4-0.6-2.6-0.8-3.9c-0.2-1.2-0.6-2.5-0.9-3.7c-0.4-1.2-1-2.1-1.8-2.8c-0.8-0.7-1.9-1.1-3.1-1.1
	c-1.2,0.1-2,0.4-2.6,0.9c-0.5,0.5-1.1,1.5-1.7,3.1c-1.5,3.7-2.9,7.4-4.3,11c-1.4,3.6-2.9,7.3-4.4,11c-2.7,6.6-6.6,12.7-11.5,18.2
	c-1,1.1-2,2.1-3.1,3c-1.1,0.9-2.5,1.8-4.2,2.6c-0.2-0.7-0.3-1.7-0.3-3c0-1.3,0.1-2.5,0.3-3.4c0.5-4.4,1.3-8.6,2.6-12.6
	c1.2-4,2.6-8.1,4.3-12.2c0.8-1.9,0.9-3.3,0.4-4.2c-0.5-0.8-1.8-1.2-3.9-1.1c-1.1,0.1-2.2,0.4-3.4,0.9c-1.2,0.5-2.5,1.7-4.1,3.6
	c-1.5,1.8-2.6,3.8-3.4,5.8c-0.8,2-1.6,4.1-2.4,6.3c-1.8,4.6-2.8,9.4-2.8,14.6c0,2.6,0.5,4.8,1.6,6.6c1.1,1.7,2.9,3,5.4,3.8
	c2.7,0.7,5.2,0.8,7.4,0.4c2.2-0.4,4.4-1.5,6.6-3.2c1.4-1.1,2.6-2.2,3.9-3.5c1.2-1.3,2.4-2.6,3.4-3.9c2.2-2.9,4.4-6.3,6.4-10.2
	c2-3.9,3.9-7.6,5.5-11.1c0.1,0.3,0.2,1.2,0.2,2.8c0,1.6,0.1,3.5,0.1,5.5c0,2.1-0.1,4.3-0.1,6.5c-0.1,2.2-0.2,4.1-0.3,5.5
	c-0.4,6.3-1.3,12.5-2.6,18.5c-1.4,6-3.2,12-5.4,17.9c-0.6,1.7-1.4,3.4-2.4,5.1c-1,1.7-2,3.3-3.1,4.7c-1,1.4-2,2.5-2.8,3.4
	c-0.9,0.8-1.5,1.1-1.8,0.9c-1.7-1.1-2.7-2.5-3.2-4.2c-0.5-1.7-0.7-3.4-0.6-5.2C132.8,328.7,133.4,325.6,134.4,322.9z M212.3,314.3
	c0.2-1.6,0.4-3.3,0.7-4.9c-2.4,0.6-4.7,0.9-7,0.9c0,0.3-0.1,0.9-0.3,2c-0.2,1-0.4,2.2-0.7,3.5c-0.3,1.3-0.6,2.7-0.9,4
	c-0.3,1.4-0.7,2.5-0.9,3.4c-0.8,2.1-1.9,4.3-3.3,6.4c-1.4,2.1-3.2,3.7-5.5,4.8c-1.7,0.8-3.7,1.2-5.8,1.2c-2.1,0-4.1-0.4-5.8-1.2
	c-1-0.5-2-1.1-3-1.9c-1-0.8-1.8-1.6-2.4-2.5c-1.3-1.9-2.2-4-2.8-6.2c-0.6-2.2-1-4.4-1.2-6.6c-0.2-2.8-0.1-5.6,0.4-8.5
	c0.4-2.8,1.2-5.5,2.4-8.2c0.7-1.5,1.5-3,2.5-4.7c1.1-1.6,2.2-2.9,3.5-4.1c1.3-1.2,2.9-1.8,5-2c0.1-0.7,0.1-1.3,0.1-1.7
	c0-0.5,0-1,0-1.5c0.3-3.8,2.1-6.1,5.4-6.9c4.2-1.1,7.2,0.1,9.2,3.4c1.3,1.9,2.2,4,2.9,6.3c0.7,2.2,1.1,4.5,1.3,6.7
	c0.2,1.6,0.3,3.1,0.3,4.7c0,1.6,0,3.2,0.1,4.8c0.5,0.1,1.6,0.1,3.2,0c1.5-0.1,3-0.4,4.5-1c0.7-2.4,1.5-4.7,2.4-6.9
	c1.2-2.9,2.5-5.7,4.1-8.5c0.4-0.9,0.9-1.7,1.6-2.5c1.4-1.5,3-2.3,5-2.6c3.9-0.3,5.3,1.3,4.4,4.7c-0.8,3-1.6,6-2.5,9
	c-0.9,3-1.7,6-2.6,9c-1.4,5-2.1,10-2.2,15c0,1.3,0.1,2.5,0.2,3.7c0.1,1.2,0.6,2.4,1.4,3.6c1.2-0.5,2.2-1.1,3.1-2
	c0.9-0.8,1.7-1.7,2.3-2.7c1-1.4,1.9-2.7,2.7-4.2c0.8-1.4,1.6-2.9,2.4-4.4c1.1-2.2,2.1-4.5,3-6.9c0.9-2.3,1.8-4.7,2.7-7
	c0.5-1.3,0.9-2.5,1.2-3.8c0.3-1.3,0.6-2.6,1-3.9c0.4-1.3,1.1-2.1,2.1-2.6c1-0.4,2.2-0.4,3.4,0.1c1,0.5,1.5,1.4,1.5,2.6
	c-0.2,1.5-0.3,2.9-0.4,4.4c-0.1,1.5-0.2,2.9-0.3,4.2c-0.2,3.4-0.4,6.8-0.7,10.1c-0.2,3.3-0.1,6.6,0.4,9.9c0.2,1.2,0.4,2.3,0.7,3.4
	c0.3,1.1,0.9,2.3,1.8,3.6c1.8-1.3,3.4-3,4.8-5.3c1-1.5,2-3.3,3-5.5c1-2.2,2-4.4,2.8-6.6s1.6-4.2,2.2-5.9c0.6-1.7,0.9-2.8,1-3.1
	c0.4-1.6,1.4-2.3,2.9-2.2c0.7,0,1.1,0.3,1.4,0.8c0.2,0.5,0.3,1.2,0.1,2c-1.4,5-2.9,9.3-4.5,13.1c-1.7,3.8-3.6,7.4-5.8,10.8
	c-0.9,1.2-1.8,2.3-2.9,3.4c-0.9,0.8-1.9,1.4-3.2,1.7c-1.3,0.4-2.6,0.5-3.9,0.4c-1.4-0.1-2.7-0.6-3.9-1.2c-1.3-0.7-2.3-1.7-3.1-3.1
	c-0.6-1.1-1.1-2.5-1.7-4.4c-0.5-1.8-0.9-3.5-1.1-4.8c-0.2,0.4-0.4,0.7-0.6,1c-0.2,0.3-0.4,0.6-0.7,1c-1.1,1.4-2.1,2.7-3.1,4
	c-1,1.3-2,2.6-3.2,3.7c-1.7,1.7-3.5,2.7-5.5,3.1c-2,0.4-4.1,0.4-6.3-0.1c-5.3-1.2-8.3-4.6-8.9-10.2
	C212.1,319.6,212,316.9,212.3,314.3z M200.2,308.7c-2.8-1-5.1-2.7-6.9-5.1c-1.8-2.4-3.4-4.9-4.7-7.4c-0.3,0.3-0.4,0.5-0.4,0.6
	c-1.7,4.6-2.7,9.1-3.1,13.6c-0.4,4.5-0.1,9.1,1,13.8c0.4,1.5,0.9,2.8,1.5,4.2c0.6,1.3,1.4,2.5,2.5,3.6c1.1-0.4,1.9-0.9,2.6-1.5
	c0.7-0.6,1.4-1.4,2.2-2.5c1.1-1.7,1.9-3.6,2.6-5.5c0.7-1.9,1.3-3.8,1.7-5.8c0.3-1.6,0.5-2.9,0.7-3.9
	C200.1,311.7,200.2,310.4,200.2,308.7z M200.4,297.8c-0.1-1.6-0.4-3.2-0.9-5c-0.4-1.7-1-3.5-1.7-5.2c-0.7-1.8-1.5-3.4-2.5-5
	c-0.8,1.5-1.2,3.2-1.2,5.2c0,2,0.2,3.9,0.7,5.8c0.5,1.9,1.2,3.6,2.2,5.1c1,1.5,2.1,2.6,3.4,3.1C200.6,300.7,200.6,299.3,200.4,297.8
	z M272.4,254.5c0.5-1.2,0.8-2.4,0.9-3.6c0.1-1.3,0.1-2.4-0.2-3.4c-0.3-1-0.8-1.8-1.5-2.4c-0.7-0.6-1.7-0.8-2.8-0.7
	c-1.1,0.1-1.9,0.4-2.4,0.9c-0.5,0.5-0.9,1.1-1.2,1.8c-0.3,0.7-0.4,1.3-0.4,2c0,0.6,0,1.1,0.1,1.4c0.3,0.8,0.6,1.3,1,1.5
	c0.4,0.2,0.8,0.3,1.2,0.3c0.4,0,0.9-0.2,1.6-0.4c0.3,0.3,0,1.2-0.9,2.6c-0.4,0.8-0.7,1.3-0.8,1.5c-0.1,0.2-0.2,0.7-0.1,1.2
	c0.1,0.7,0.4,1.1,0.9,1.4c0.5,0.2,1,0.2,1.5-0.1c0.8-0.5,1.4-1,1.8-1.7C271.5,256.2,271.9,255.4,272.4,254.5z M73.6,340.4l8.3,6.1
	l-3.2-9.8l8.3-6.1H76.8l-3.2-9.8l-3.2,9.8H60.1l8.3,6.1l-3.2,9.8L73.6,340.4z M384.8,349.8c-1-1-2.7-1.5-4-1.8
	c-1.2-0.3-1.9-0.4-3,0.2c-1.4,0.8-2.7,1.8-3.7,3c-0.8,1-1.1,2.4-1.3,3.6c-0.4-0.6-0.9-1-1.2-1.6c-0.3-0.5-0.4-0.8-0.8-1.2
	c-0.9-0.7-2-0.9-3.1-1.2c-1.4-0.4-3.3-0.6-4.7-0.2c-1.6,0.5-2.8,1.6-3.1,3.3c-0.4,1.8,0.3,3.6,1.2,5.2c0.8,1.4,1.5,2.8,2.6,4
	c1.4,1.4,3.2,2.6,4.9,3.6c2.4,1.4,4.4,3.5,6.2,5.6c0.5,0.6,1,1.5,1.8,1.9c0.1,0.1,0.3,0.1,0.4,0.1c1.2,0.2,1.4-1.8,1.6-2.6
	c0.4-1.6,0.7-3.3,1.7-4.6c1-1.2,2.2-2.2,3.1-3.5c0.6-0.8,0.7-1.8,1.2-2.7c0.5-0.9,0.5-2.3,0.8-3.4c0.3-1.2,0.6-2.3,0.8-3.5
	C386.2,352.7,386.1,351.1,384.8,349.8z M344.4,364.6c0.7-0.7,1.3-1.7,1.7-2.6c0.4-0.9,0.7-2.7,0.2-3.7c-0.5-0.9-1.8-1.2-2.7-1.2
	c-1.1,0-2.1,0.3-3.2,0.2c-1,0-1.8,0.5-2.6,1c-0.6,0.4-1.3,0.2-1.4-0.6c0-0.7,0.1-1.4,0-2.1c-0.2-1.1-0.8-1.9-1.8-2.3
	c-1-0.4-2.1-0.6-2.8,0.4c-0.5,0.7-0.6,2-0.6,2.8c0,1.4-0.1,2.7,0,4.1c0.2,2.3,0.3,4.6,0.8,6.9c0.2,0.7,0.3,1.6,1.1,1.7
	c0.2,0,0.4,0,0.5,0c1,0,1.9-0.2,2.8-0.4c1.6-0.4,3.1-1.1,4.6-1.9C342.5,366.3,343.5,365.7,344.4,364.6z M347.9,334.6
	c-1.5,2.7,0.4,5.7,2.1,7.9c1.2,1.6,2.2,3.3,3.7,4.7c2,1.8,3.4-0.4,4.3-2.1c0.4-0.7,0.8-1.5,1.2-2.2c0.8-1.6,1.6-3.4,2.9-4.8
	c0.7-0.7,1.1-1.2,0.8-2.3c-0.2-0.9-1.6-2-2.5-2c-1.6-0.1-2.9,2.8-4.5,3.1c-0.4,0.1-0.7,0-1.1-0.3c-0.6-0.5-0.9-1.2-1.5-1.7
	C352,333.7,349,332.6,347.9,334.6z M248.6,274.2c2,1.8,3.4-0.4,4.3-2.1c0.4-0.7,0.8-1.5,1.2-2.2c0.8-1.6,1.6-3.4,2.9-4.8
	c0.7-0.7,1.1-1.2,0.8-2.3c-0.2-0.9-1.6-2-2.5-2c-1.6-0.1-2.9,2.8-4.5,3.1c-0.4,0.1-0.7,0-1.1-0.3c-0.6-0.5-0.9-1.2-1.5-1.7
	c-1.3-1.1-4.4-2.2-5.5-0.3c-1.5,2.7,0.4,5.7,2.1,7.9C246.1,271.2,247.1,272.9,248.6,274.2z M245.2,139.6c-1.6-0.1-2.9,2.8-4.5,3.1
	c-0.4,0.1-0.7,0-1.1-0.3c-0.6-0.5-0.9-1.2-1.5-1.7c-1.3-1.1-4.4-2.2-5.5-0.3c-1.5,2.7,0.4,5.7,2.1,7.9c1.2,1.6,2.2,3.3,3.7,4.7
	c2,1.8,3.4-0.4,4.3-2.1c0.4-0.7,0.8-1.5,1.2-2.2c0.8-1.6,1.6-3.4,2.9-4.8c0.7-0.7,1.1-1.2,0.8-2.3
	C247.4,140.8,246.1,139.7,245.2,139.6z M226.1,276.7c0.6-1.1,1.1-2.1,1.7-3.2c1.2-2.4,2.3-4.9,4.1-6.8c0.9-1,1.6-1.8,1.2-3.3
	c-0.3-1.3-2.3-2.8-3.5-2.9c-2.3-0.1-4.2,4.1-6.4,4.4c-0.5,0.1-1,0-1.6-0.5c-0.8-0.7-1.3-1.7-2.1-2.4c-1.9-1.6-6.2-3.2-7.8-0.4
	c-2.2,3.9,0.6,8.2,3,11.3c1.7,2.3,3.2,4.7,5.3,6.7C222.8,282.2,224.8,279,226.1,276.7z M229.9,348.8c-9.9-3.9-24.3-0.2-29.5,0.9
	c-1.5,0.4-9.9,2.7-11.8,3.3c-4.5,1.6-3,1-7.2,2.8c-1.5,0.6-5.1,2.9-6.4,3.7c-3.2,2.2-6,3.9-9.4,3.8c-1.6,0-3.6-0.9-4.3-1.4
	c-0.9-0.5-2.1-1.2-2.8-3.1c-1.6-4.3,2.2-11.5,7.4-9.3c0.4,0.2,0.6,0.3,0.6,0.3c0.7,0.3,1,1.1,0.7,1.8c-0.4,0.9-1.5,1-2.1,0.5
	c-0.5-0.4-0.7-0.7-1.4-0.8c-1.3-0.2-3.1,1.1-4.1,3.2c-1.3,3-0.3,5.5,1.4,6.5c6.4,4,10-0.5,15.8-5.2c2.7-2.2-0.5,0.1,6.3-4.8
	c6.4-4.1,12.5-7,20.3-8.1c7.8-1,13-0.3,19,1.3c2.9,0.8,5.8,1.8,8.5,3.3c6.4-7.1,12.4-9,21.7-8.9c1.5,0,3,0,4.4,0.2
	c2.7,0.3,3.2,0.3,4.2,0.5c9.8,1.6,18,2.8,22.6,6.4c3.2,2.6,2.2,7.4-1.4,9c-1.5,0.7-3.4,0.9-4.9,0.3c-4.4-1.5-3.9-8.3,1.7-6.6
	c0.7,0.2,1,0.9,0.8,1.5c-0.2,0.7-0.9,1-1.5,0.8c-0.1,0-0.5-0.2-0.6-0.3c-2-0.9-2.1,2.3,0.1,3.4c1.1,0.6,2.8,0.5,4.1,0.1
	c3.1-1,4.3-5,1.6-7.6c-0.9-0.9-1.6-1.3-2.6-1.8c-6.1-3.4-29.9-2-36.5-0.2c-7.9,2.5-9.9,3.3-11.8,4.5c4.2,3.2,4.6,7.2,3,9.4
	c-1.5,2.2-4.6,3.1-6.8,2c-3.2-1.5-2.8-6.2-0.9-9.2C228.8,350.3,229.3,349.5,229.9,348.8z M228.3,358c1.4,3.9,9.8,1.4,7.3-4.3
	c-0.6-1.6-2.1-3-3.8-4C228.2,352.5,227.6,356.2,228.3,358z M194.8,264.1l-1.4-4.4l-1.4,4.4h-4.6l3.7,2.7l-1.4,4.4l3.7-2.7l3.7,2.7
	l-1.4-4.4l3.7-2.7H194.8z M252.4,168.7l-2.4-7.3l-2.4,7.3h-7.7l6.2,4.5l-2.4,7.3l6.2-4.5l6.2,4.5l-2.4-7.3l6.2-4.5H252.4z"/>
</svg>
