<?xml version="1.0" encoding="utf-8"?>
<!-- Generator: Adobe Illustrator 18.0.0, SVG Export Plug-In . SVG Version: 6.00 Build 0)  -->
<!DOCTYPE svg PUBLIC "-//W3C//DTD SVG 1.1//EN" "http://www.w3.org/Graphics/SVG/1.1/DTD/svg11.dtd">
<svg version="1.1" id="Layer_1" xmlns="http://www.w3.org/2000/svg" xmlns:xlink="http://www.w3.org/1999/xlink" x="0px" y="0px"
	 viewBox="0 0 432 432" enable-background="new 0 0 432 432" xml:space="preserve">
<path fill="#1B1B1C" d="M47.9,166.9c0,1-0.6,2-1.7,2.9c-1.1,0.9-2.8,1.4-5.1,1.4c-1.6,0-3.5,0-5.6-0.1c-2.1-0.1-3.9-0.1-5.6-0.1
	c-3.1,0-4.6,1.7-4.6,5.2V222c0,2,0.3,3.2,0.9,3.8c0.6,0.6,1.5,0.8,2.7,0.8c1.8,0,3.6,0,5.5-0.1c1.8-0.1,3.6-0.1,5.5-0.1
	c2.2,0,3.8,0.3,4.9,1c1.3,0.8,1.9,2.1,1.9,3.9c0,1-0.4,1.9-1.3,2.6c-0.9,0.7-2.1,1.1-3.6,1.1l-13.4-0.2c-2.1,0-3.1,0.9-3.1,2.7v12.9
	c0,1.9-0.2,3.6-0.7,5.2c-0.5,1.6-1.3,3-2.5,4c-1.2,1-2.9,1.5-5,1.5c-4.1,0-6.5-2-7.1-5.9c-0.3-1.7-0.5-3.5-0.5-5.4v-74.7
	c0-2.8,0.3-5.2,0.8-7.2c1.2-4.2,4.3-6.3,9.4-6.3h18.7c1.2,0,2.5,0.1,4,0.3C46.1,162.5,47.9,164.1,47.9,166.9z M88.9,239.1
	c7.3,9.3,11,15,11,17.2c0,1.6-0.5,2.8-1.5,3.7c-1,0.9-2.3,1.3-4,1.3c-2.9,0-6-2.5-9.1-7.4c-3.4-5.2-7.5-11.9-12.4-20.1
	c-0.9-1.1-1.5-1.7-1.7-1.7c-0.4,0-0.6,0.8-0.6,2.3v16.1c0,7.2-2.7,10.8-8.2,10.8c-2.4,0-4.1-0.5-5.2-1.6c-1.1-1.1-1.7-2.5-2-4.2
	c-0.3-1.7-0.4-3.5-0.4-5.4v-78c0-7.5,3.7-11.2,11.2-11.2c8.6,0,16.1,2.2,22.4,6.5c7.4,5.1,11,12.8,11,23.2c0,7.5-1.3,14.4-3.9,20.7
	c-3.1,7.5-7.8,13.2-14.1,17.2c-0.3,0.2-0.5,0.5-0.5,0.8c0,0.4,1.5,2.5,4.6,6.1C86.8,236.4,87.9,237.8,88.9,239.1z M79.6,218.5
	c3-3.4,5.2-7.3,6.6-11.9c1.7-5.1,2.6-10.3,2.6-15.7c0-3.7-0.6-7-1.7-10.1c-2.5-6.6-7.2-9.9-14.2-9.9c-1.5,0-2.3,0.8-2.3,2.1v48.2
	c0,1.5,0.6,2.3,1.9,2.3C74.3,223.6,76.6,221.9,79.6,218.5z M163.6,186.5c1.5,6.2,2.2,13,2.2,20.3c0,10.5-0.8,19.7-2.5,27.6
	c-3.7,17.9-12.6,26.9-26.7,26.9c-5.2,0-9.6-1.1-13-3.3c-3.5-2.2-6.3-5.1-8.5-8.7c-2.2-3.6-3.8-7.6-5-12.1c-1.1-4.5-1.9-9-2.3-13.7
	c-0.4-4.6-0.5-9-0.5-13.2c0-16.1,2.8-28.6,8.4-37.6c5-8,12.3-12,21.9-12C150.9,160.7,159.5,169.3,163.6,186.5z M156,206
	c0-6.5-0.5-12.4-1.5-17.7c-1.2-6.6-3.1-11.5-5.8-14.8c-2.2-2.7-4.9-4-8.2-4c-5.5,0-9.6,3.4-12.3,10.3c-2.8,7.1-4.3,16.9-4.3,29.4
	c0,13.6,1.5,24.3,4.5,32.1c2.6,6.8,6.2,10.3,11,10.3c7.2,0,12.1-6.3,14.7-18.8C155.3,226.3,156,217.4,156,206z M240.6,160.7
	c-1.6,0-3.2,0.6-4.8,1.8c-1.6,1.2-2.9,3.4-3.9,6.4c-5.1,16.6-10.9,33-17.2,49.4c-1.7-5.1-3.4-10.5-5.2-16.1
	c-2.7-8.5-6.2-19-10.3-31.5c-2.2-6.8-6.1-10.1-11.6-10.1c-5.9,0-8.8,4.4-8.8,13.2v76.6c0,1.8,0.1,3.5,0.4,5.1c0.6,3.7,3,5.6,7.2,5.6
	c2.7,0,4.8-0.9,6.2-2.6c1.4-1.7,2.1-4.3,2.1-7.6c0-19.9-0.4-38.1-1.1-54.8c-0.1-3.3-0.2-5.4-0.3-6.5c-0.1-1.1-0.1-2.4-0.1-3.9
	c0-1.3,0.1-1.9,0.3-1.9c0.3,0,0.9,1.2,1.5,3.5c6.6,22.2,12.2,39,16.8,50.3c1.1,2.6,2.7,3.9,4.8,3.9c1.9,0,3.4-1.2,4.5-3.6
	c6.8-16,12.6-31.9,17.3-47.8c0.6-2.1,1.1-3.1,1.5-3.1c0.4,0,0.6,0.6,0.6,1.9c0,2.9-0.1,7.3-0.3,13.1c-0.4,11.4-0.6,28.4-0.6,50.9
	c0,2.6,0.3,4.7,1,6.1c0.7,1.4,1.9,2.2,3.8,2.2c3.7,0,5.5-2.8,5.5-8.3V174c0-3.4-0.5-6.2-1.5-8.5
	C246.7,162.3,244.2,160.7,240.6,160.7z M354.2,160.7c-1.6,0-3.2,0.6-4.8,1.8c-1.6,1.2-2.9,3.4-3.9,6.4c-5.1,16.6-10.9,33-17.2,49.4
	c-1.7-5.1-3.4-10.5-5.2-16.1c-2.7-8.5-6.2-19-10.3-31.5c-2.2-6.8-6.1-10.1-11.6-10.1c-5.9,0-8.8,4.4-8.8,13.2v76.6
	c0,1.8,0.1,3.5,0.4,5.1c0.6,3.7,3,5.6,7.2,5.6c2.7,0,4.8-0.9,6.2-2.6c1.4-1.7,2.1-4.3,2.1-7.6c0-19.9-0.4-38.1-1.1-54.8
	c-0.1-3.3-0.2-5.4-0.3-6.5c-0.1-1.1-0.1-2.4-0.1-3.9c0-1.3,0.1-1.9,0.3-1.9c0.3,0,0.9,1.2,1.5,3.5c6.6,22.2,12.2,39,16.8,50.3
	c1.1,2.6,2.7,3.9,4.8,3.9c1.9,0,3.4-1.2,4.5-3.6c6.8-16,12.6-31.9,17.3-47.8c0.6-2.1,1.1-3.1,1.5-3.1c0.4,0,0.6,0.6,0.6,1.9
	c0,2.9-0.1,7.3-0.3,13.1c-0.4,11.4-0.6,28.4-0.6,50.9c0,2.6,0.3,4.7,1,6.1c0.7,1.4,1.9,2.2,3.8,2.2c3.7,0,5.5-2.8,5.5-8.3V174
	c0-3.4-0.5-6.2-1.5-8.5C360.3,162.3,357.8,160.7,354.2,160.7z M424.2,165.3c-0.3-1.4-0.8-2.5-1.6-3.3c-0.8-0.9-2.1-1.3-3.7-1.3
	c-2.2,0-3.6,1.1-4.5,3.2c-0.3,0.9-0.5,1.9-0.6,2.8c-0.7,11.8-2.6,23.8-5.9,36c-1.5,5.6-3.2,10.6-5.4,15.2c-0.5,1.1-1.1,1.7-1.7,1.7
	c-1.4,0-3.4-4.2-5.8-12.5c-2-6.7-3.7-13.5-5.1-20.4c-1.4-6.9-2.3-12-2.7-15.4c-0.5-4.5-1.6-7.5-3.4-9.2c-1.1-1-2.8-1.5-4.9-1.5
	c-2.4,0-4.1,0.5-5.1,1.6c-1.1,1.1-1.7,2.5-2,4.2c-0.3,1.7-0.4,3.5-0.4,5.4c0,3.9,0.9,9.9,2.8,17.9c1.9,8,4.2,15.8,7,23.5
	c2.1,5.7,4.3,10.2,6.7,13.5c1.4,2,2.1,4.4,2.1,7.4v15.7c0,1.9,0.1,3.7,0.4,5.4c0.3,1.7,0.9,3.1,2,4.2c1.1,1.1,2.8,1.6,5.2,1.6
	c5.5,0,8.2-3.6,8.2-10.8v-16.8c0-3,0.7-5.9,2.2-8.5c4.9-9.2,8.8-18.5,11.6-28.1c3.2-11,4.8-20.2,4.8-27.5
	C424.6,168.1,424.5,166.7,424.2,165.3z"/>
<path fill="#B19A53" d="M85.4,142.6V79c0-1.1-0.6-1.8-1.7-1.8c-1.6-0.1-2.6-0.3-3.2-0.6c-1.2-0.6-1.8-1.6-1.8-3
	c0-1.7,1.4-2.5,4.2-2.5h17.7c2.8,0,4.2,0.8,4.2,2.5c0,1.4-0.6,2.3-1.8,3c-0.6,0.3-1.8,0.5-3.4,0.6c-1,0.1-1.5,0.5-1.5,1.4v64.4
	c0,0.9,0.4,1.3,1.3,1.4c1.5,0.1,2.5,0.3,3.1,0.6c1.2,0.7,1.8,1.7,1.8,3c0,1.7-1.4,2.5-4.2,2.5H82.5c-2.6,0-3.9-0.9-3.9-2.7
	c0-2.3,1.4-3.4,4.2-3.4c0.9,0,1.6-0.1,2-0.4C85.2,143.7,85.4,143.3,85.4,142.6z M154,151.5c3.4,0,6.6-0.9,9.4-2.8
	c2.8-1.9,5.1-4.3,6.7-7.3c1.7-3,2.5-6.1,2.5-9.4c0-3.9-1.1-6.4-3.4-7.4c-1.7-0.8-5.5-1.2-11.2-1.2c-1.8,0-3.2,0.3-4.1,0.9
	c-0.9,0.6-1.4,1.6-1.4,3c0,0.8,0.3,1.6,1,2.4c0.7,0.8,1.7,1.1,3,1.1l2.5-0.1c1.6-0.1,3.2-0.1,4.8-0.1c1.5,0,2.3,0.6,2.3,1.8
	c0,1.8-0.5,3.5-1.4,5.2c-1,1.7-2.2,3-3.8,4.1c-1.6,1.1-3.3,1.6-5.2,1.6c-3.8,0-6.8-3.1-8.8-9.3c-2.2-6.7-3.3-15.5-3.3-26.2
	c0-10.3,1.3-18.1,4-23.4c2.3-4.6,5.5-6.9,9.7-6.9c3.5,0,6,2.4,7.6,7.1c0.8,2.6,1.3,5.7,1.3,9.2c0,2.7-0.2,5.1-0.5,7.1
	c-0.2,1.6-0.4,3.1-0.4,4.4c0,1.7,0.3,2.9,1,3.6c0.5,0.6,1.3,0.9,2.4,0.9c1.5,0,2.6-1.3,3.3-3.9c0.8-2.6,1.1-6.1,1.1-10.6
	c0-7.2-1.2-12.9-3.6-17.3c-2.9-5.2-7.7-7.8-14.3-7.8c-4.5,0-8.2,0.9-11.2,2.7c-9.1,5.5-13.7,17.9-13.7,37.4
	c0,14.4,2.4,25.2,7.3,32.4C141.4,148.6,146.9,151.5,154,151.5z M180.4,121c-0.3-3.8-0.4-7.3-0.4-10.6c0-13,2.3-23.1,6.8-30.4
	c4-6.5,9.9-9.7,17.7-9.7c10.6,0,17.6,6.9,21,20.8c1.2,5,1.8,10.5,1.8,16.4c0,8.5-0.7,15.9-2,22.3c-3,14.5-10.2,21.8-21.6,21.8
	c-4.2,0-7.7-0.9-10.5-2.7c-2.8-1.8-5.1-4.1-6.9-7c-1.8-2.9-3.1-6.2-4-9.8C181.4,128.4,180.7,124.7,180.4,121z M193.4,109.4
	c0,11,1.2,19.7,3.6,26c2.1,5.5,5,8.3,8.9,8.3c5.8,0,9.8-5.1,11.8-15.2c1-5.2,1.6-12.4,1.6-21.7c0-5.2-0.4-10-1.2-14.3
	c-0.9-5.3-2.5-9.3-4.7-11.9c-1.8-2.2-4-3.2-6.6-3.2c-4.4,0-7.7,2.8-9.9,8.3C194.6,91.4,193.4,99.3,193.4,109.4z M227.8,77.6
	c0.9,0.7,2.2,1,3.9,1h5.7c0.8,0,1.2,0.4,1.2,1.3v62.5c0,2.5,0.2,4.4,0.6,5.6c0.3,0.8,0.7,1.5,1.3,2.1c0.8,0.9,2.2,1.4,4.2,1.4
	c4.4,0,6.6-2.9,6.6-8.7V79.9c0-0.8,0.4-1.3,1.3-1.3h5.6c1.7,0,3-0.3,3.9-1c0.9-0.7,1.3-1.5,1.3-2.3c0-1.3-0.4-2.2-1.3-2.8
	c-0.9-0.6-1.9-1-3.1-1.1c-1.2-0.1-2.3-0.2-3.2-0.2H234c-1,0-2.1,0.1-3.2,0.2c-1.2,0.1-2.2,0.5-3.1,1.1c-0.9,0.6-1.3,1.5-1.3,2.8
	C226.4,76.1,226.9,76.9,227.8,77.6z M290.4,144c-0.4,0.3-1,0.4-2,0.4c-2.8,0-4.2,1.1-4.2,3.4c0,1.8,1.3,2.7,3.9,2.7h17.5
	c2.8,0,4.2-0.8,4.2-2.5c0-1.3-0.6-2.3-1.8-3c-0.6-0.3-1.6-0.6-3.1-0.6c-0.9-0.1-1.3-0.5-1.3-1.4V78.6c0-0.9,0.5-1.3,1.5-1.4
	c1.7-0.1,2.8-0.3,3.4-0.6c1.2-0.6,1.8-1.6,1.8-3c0-1.7-1.4-2.5-4.2-2.5h-17.7c-2.8,0-4.2,0.8-4.2,2.5c0,1.4,0.6,2.3,1.8,3
	c0.6,0.3,1.7,0.5,3.2,0.6c1.1,0.1,1.7,0.7,1.7,1.8v63.6C291,143.3,290.8,143.7,290.4,144z M315.6,77.6c0.9,0.7,2.2,1,3.9,1h5.7
	c0.8,0,1.2,0.4,1.2,1.3v62.5c0,2.5,0.2,4.4,0.6,5.6c0.3,0.8,0.7,1.5,1.3,2.1c0.8,0.9,2.2,1.4,4.2,1.4c4.4,0,6.6-2.9,6.6-8.7V79.9
	c0-0.8,0.4-1.3,1.3-1.3h5.6c1.7,0,3-0.3,3.9-1c0.9-0.7,1.3-1.5,1.3-2.3c0-1.3-0.4-2.2-1.3-2.8c-0.9-0.6-1.9-1-3.1-1.1
	c-1.2-0.1-2.3-0.2-3.2-0.2h-21.8c-1,0-2.1,0.1-3.2,0.2c-1.2,0.1-2.2,0.5-3.1,1.1c-0.9,0.6-1.3,1.5-1.3,2.8
	C314.3,76.1,314.7,76.9,315.6,77.6z M65.2,151.3c0.4,0.1,0.7,0,1-0.2c0.2-0.1,0.4-0.4,0.5-0.6l1.2-2.9c5.9-14.2,16.8-40.6,4.8-60.6
	c-3.7-6.2-11.6-5.6-17.3-2.5c-10.8,6-11.8,14.4-11,24.9c-7.1-5.5-14.8-6.8-23.7-3.9c-8.2,2.8-14.1,13.6-7.2,24.8
	c10,16.2,30,18.4,43.2,19.8C60,150.5,62.9,150.8,65.2,151.3z M405.2,105.4c-8.8-2.9-16.6-1.6-23.7,3.9c0.8-10.5-0.2-18.8-11-24.9
	c-5.7-3.1-13.6-3.7-17.3,2.5c-12.1,20-1.1,46.4,4.8,60.6l1.2,2.9c0.1,0.3,0.3,0.5,0.5,0.6c0.3,0.2,0.6,0.2,1,0.2
	c2.3-0.5,5.2-0.8,8.6-1.2c13.2-1.5,33.2-3.7,43.2-19.8C419.3,119,413.4,108.2,405.2,105.4z M412.1,301.4c0.5,1-0.4,1.6-1.1,2.2
	c-3.2,3.1-4.6,4.1-8.6,6.4c-5.7,3.2-9.1,4.2-12.8,3.7c-4.1-0.5-6.3-1.8-7.2-4.4c-0.3-0.8-0.3-2.5-0.1-3.4c0.2-0.9,0.8-2,1.2-2.5
	l0.3-0.4l-2,0c-1.1,0-3,0.1-4.1,0.1c-1.1,0.1-3,0.2-4.1,0.3c-2.4,0.2-9.9,0.4-14.8,0.5c-1.7,0-3.4,0-5.1,0c-2.3,0-4.6,0-6.8,0
	c-0.3,0-0.7,0-1.1,0c-1.2,2.6-2.5,5.2-4,8c-2.5,4.8-5.2,9.3-8,13.4c-2.7,3.8-5,5.8-7,5.8h-0.3c-1.8-0.2-3.3-0.9-4.4-2
	c-1.1-1.1-1.9-2.5-2.4-4.2c-0.5-1.4-0.8-2.9-0.9-4.6c-0.2-1.7-0.2-3.4-0.1-5.2c0.2-3.3,0.5-6.6,1-9.8c0.5-3,0.8-5.5,1.2-7.5
	c-0.2,0.8-0.6,2.1-1,3.7c-0.5,1.8-1.2,3.9-2.1,6.1c-1.3,3.3-2.7,6.5-4.3,9.5c-1.6,3-3.2,4.6-4.6,4.7c-4.1,0.4-7.9-0.4-11.5-2.4
	c-3.3-1.8-5.1-4.7-5.5-8.6c-2.3,4.3-4.7,8.2-7.3,11.7c-2,2.7-4,4.9-5.9,6.6c-1.6,1.3-3.1,2-4.5,2c-0.4,0-0.7,0-1-0.1
	c-3.5-0.8-5.7-3.6-6.6-8.5c-0.9-5-1.2-10.5-0.9-16.6c0.1-2.6,0.2-5.2,0.5-7.8c0.2-2.6,0.5-5.1,0.7-7.5c0.4-4.4,0.6-8.1,0.7-11.1
	c0.1-2.9-0.4-4.4-1.4-4.5c-1.8,0-4.1,1.7-6.8,5.1c-2.6,3.5-4.3,7.2-5,11.2c-0.2,3.2-0.2,6.4-0.1,9.6c0.1,3.2,0,5.5-0.3,7.1
	c-0.5,1.4-2.2,2-5.1,2c-2.8,0-4.7-0.9-5.5-2.7c0-2.2,0-4.7,0.1-7.7c0-3,0-6,0.1-9.1c0-4.6-0.2-8.7-0.5-12.3c-0.3-3.7-1-5.5-2.1-5.5
	c-0.9,0.1-2.1,0.9-3.5,2.4c-1.5,1.5-2.8,3.3-3.9,5.2c-0.8,1.3-1.4,2.5-2,3.7c-0.5,1.2-0.8,2.3-0.8,3.1c0.5,4.6,0.8,9.5,0.8,14.8
	v14.2c-1.7,3.2-3.8,5-6.5,5.3c-2.6,0.4-4.5-0.5-5.8-2.7c-0.5-2.5-0.7-5.3-0.7-8.4c0-0.6,0-1.3,0-1.9c-0.6,1.2-1.3,2.5-1.9,3.8
	c-2.5,4.8-5.2,9.3-8,13.4c-2.7,3.8-5,5.8-7,5.8h-0.3c-1.8-0.2-3.3-0.9-4.4-2c-1.1-1.1-1.9-2.5-2.4-4.2c-0.5-1.4-0.8-2.9-0.9-4.6
	c-0.2-1.7-0.2-3.4-0.1-5.2c0.2-3.3,0.5-6.6,1-9.8c0.5-3,0.8-5.5,1.2-7.5c-0.2,0.8-0.6,2.1-1,3.7c-0.5,1.8-1.2,3.9-2.1,6.1
	c-1.3,3.3-2.7,6.5-4.3,9.5c-1.6,3-3.2,4.6-4.6,4.7c-4.1,0.4-7.9-0.4-11.5-2.4c-3.3-1.8-5.1-4.7-5.5-8.6c-2.3,4.3-4.7,8.2-7.3,11.7
	c-2,2.7-4,4.9-5.9,6.6c-1.6,1.3-3.1,2-4.5,2c-0.4,0-0.7,0-1-0.1c-3.5-0.8-5.7-3.6-6.6-8.5c-0.9-5-1.2-10.5-0.9-16.6
	c0.1-2.6,0.2-5.2,0.5-7.8c0.2-2.6,0.5-5.1,0.7-7.5c0.4-4.4,0.6-8.1,0.7-11.1c0.1-2.9-0.4-4.4-1.4-4.5c-1.8,0-4.1,1.7-6.8,5.1
	c-2.6,3.5-4.3,7.2-5,11.2c-0.2,3.2-0.2,6.4-0.1,9.6c0.1,3.2,0,5.5-0.3,7.1c-0.5,1.4-2.2,2-5.1,2c-2.8,0-4.7-0.9-5.5-2.7
	c0-2.2,0-4.7,0.1-7.7c0-3,0-6,0.1-9.1c0-4.6-0.2-8.7-0.5-12.3c-0.3-3.7-1-5.5-2.1-5.5c-0.9,0.1-2.1,0.9-3.5,2.4
	c-1.5,1.5-2.8,3.3-3.9,5.2c-0.8,1.3-1.4,2.5-2,3.7c-0.5,1.2-0.8,2.3-0.8,3.1c0.5,4.6,0.8,9.5,0.8,14.8v14.2c-1.7,3.2-3.8,5-6.5,5.3
	c-2.6,0.4-4.5-0.5-5.8-2.7c-0.5-2.5-0.7-5.3-0.7-8.4c-0.1-3.2,0-6.5,0.2-9.9c0.3-6.3,0.6-12.3,0.9-17.9c0.3-5.5-0.2-9-1.6-10.4v-0.1
	c0-1.2,0.7-1.7,2.2-1.7c1.5,0,3.1,0.8,5,2.4c0.9,0.9,1.8,2.1,2.8,3.5c0.9,1.5,1.7,3.2,2.4,5.2c1.2-1.8,2.8-4.1,5-7
	c2.2-2.8,4.4-4.2,6.7-4.2h0.1c2.3,0,4.2,0.9,5.8,2.8c1.5,1.8,2.7,3.9,3.6,6.1c0.4,1.2,0.7,2.5,1,3.7c0.2,1.2,0.4,2.2,0.6,3.2
	c0.8-2.7,2.6-5.6,5.5-8.8c2.9-3.2,6-4.7,9.2-4.6c2.8,0.1,4.7,1.7,5.8,4.8c1.1,3.1,1.7,6.9,1.8,11.4c0.1,2.4,0,4.9-0.1,7.6
	c-0.2,2.6-0.3,5.2-0.6,7.8c-0.5,6.1-1,11.5-1.5,16.4c-0.5,4.8-0.2,7.2,0.8,7.4c1.2,0.3,3.2-1.4,5.9-5.1c2.6-3.7,5.3-7.9,8-12.6
	c1.4-2.5,2.7-4.9,4-7.4c0.4-3.3,1.1-6.6,2.2-9.7c1.8-5.2,4.1-9.7,6.8-13.5c1.5-2,3-3.7,4.5-5.2c1.5-1.5,3-2.6,4.5-3.3
	c0.7-0.4,1.5-0.7,2.5-0.9c1.1-0.2,2.2-0.4,3.3-0.5h1.4c1.8,0,3.5,0.2,5.3,0.7c2.3,0.5,4,1.5,5,2.9c0.2,0.3,0.3,0.7,0.2,1
	c-0.1,0.3-0.3,0.5-0.7,0.7c-1.4-1.4-2.8-2.1-4.2-2.2c-1.4-0.1-2.8,0.3-4.2,1.2c-2.4,1.5-4.6,4.3-6.7,8.4c-2,4-3.7,8.3-5,12.8
	c-1.6,5.8-2.5,11.1-2.5,15.9c0,4.8,1.1,7.1,3.3,7.1c1,0,2.2-1.6,3.7-4.8c1.5-3.3,2.9-7.1,4.4-11.3c1.8-5.2,3.5-10.3,4.8-15.2
	c1.4-4.9,2.2-7.6,2.3-8.2c0.5-1.2,2-1.9,4.5-2.3c2.6-0.5,4.5-0.2,5.5,0.8c0.3,0.2,0.5,0.5,0.6,0.9c0.2,0.3,0.2,0.7,0.1,1.2
	c-0.5-0.2-1.3,1.8-2.2,6c-0.9,4.1-1.8,8.8-2.7,14.2c-0.7,4.2-1.3,8.5-1.8,12.8c-0.6,4.2-1,7.7-1.2,10.5c-0.1,1.5-0.1,2.6,0,3.5
	c0.1,0.8,0.2,1.3,0.5,1.4c1.2,0.2,2.8-1.6,5.1-5.2c2.3-3.7,4.6-7.7,6.8-12.1c1.8-3.6,3.5-7,5.1-10.3c0.2-0.4,0.4-0.8,0.5-1.1
	c0.3-5.8,0.6-11.4,0.9-16.6c0.3-5.5-0.2-9-1.6-10.4v-0.1c0-1.2,0.7-1.7,2.2-1.7c1.5,0,3.1,0.8,5,2.4c0.9,0.9,1.8,2.1,2.8,3.5
	c0.9,1.5,1.7,3.2,2.4,5.2c1.2-1.8,2.8-4.1,5-7c2.2-2.8,4.4-4.2,6.7-4.2h0.1c2.3,0,4.2,0.9,5.8,2.8c1.5,1.8,2.7,3.9,3.6,6.1
	c0.4,1.2,0.7,2.5,1,3.7c0.2,1.2,0.4,2.2,0.6,3.2c0.8-2.7,2.6-5.6,5.5-8.8c2.9-3.2,6-4.7,9.2-4.6c2.8,0.1,4.7,1.7,5.8,4.8
	c1.1,3.1,1.7,6.9,1.8,11.4c0.1,2.4,0,4.9-0.1,7.6c-0.2,2.6-0.3,5.2-0.6,7.8c-0.5,6.1-1,11.5-1.5,16.4c-0.5,4.8-0.2,7.2,0.8,7.4
	c1.2,0.3,3.2-1.4,5.9-5.1c2.6-3.7,5.3-7.9,8-12.6c1.4-2.5,2.7-4.9,4-7.4c0.4-3.3,1.1-6.6,2.2-9.7c1.8-5.2,4.1-9.7,6.8-13.5
	c1.5-2,3-3.7,4.5-5.2c1.5-1.5,3-2.6,4.5-3.3c0.7-0.4,1.5-0.7,2.5-0.9c1.1-0.2,2.2-0.4,3.3-0.5h1.4c1.8,0,3.5,0.2,5.3,0.7
	c2.3,0.5,4,1.5,5,2.9c0.2,0.3,0.3,0.7,0.2,1c-0.1,0.3-0.3,0.5-0.7,0.7c-1.4-1.4-2.8-2.1-4.2-2.2c-1.4-0.1-2.8,0.3-4.2,1.2
	c-2.4,1.5-4.6,4.3-6.7,8.4c-2,4-3.7,8.3-5,12.8c-1.6,5.8-2.5,11.1-2.5,15.9c0,4.8,1.1,7.1,3.3,7.1c1,0,2.2-1.6,3.7-4.8
	c1.5-3.3,2.9-7.1,4.4-11.3c1.8-5.2,3.5-10.3,4.8-15.2c1.4-4.9,2.2-7.6,2.3-8.2c0.5-1.2,2-1.9,4.5-2.3c2.6-0.5,4.5-0.2,5.5,0.8
	c0.3,0.2,0.5,0.5,0.6,0.9c0.2,0.3,0.2,0.7,0.1,1.2c-0.5-0.2-1.3,1.8-2.2,6c-0.9,4.1-1.8,8.8-2.7,14.2c-0.7,4.2-1.3,8.5-1.8,12.8
	c-0.6,4.2-1,7.7-1.2,10.5c-0.1,1.5-0.1,2.6,0,3.5c0.1,0.8,0.2,1.3,0.5,1.4c1.2,0.2,2.8-1.6,5.1-5.2c2.3-3.7,4.6-7.7,6.8-12.1
	c1.8-3.6,3.5-7,5.1-10.3c1.5-3.2,2.5-5.3,3.1-6.5c0.5-0.2,1.1-0.2,1.7-0.1c0.6,0.1,1.2,0.3,1.8,0.7c-0.5,1-1.6,3.2-3.1,6.7
	c-0.1,0.2-0.1,0.3-0.2,0.5c0.7,0,1.4,0,2.1,0c8.4,0.1,19.7-0.2,25.8-0.6c1.6-0.1,4.6-0.2,6.6-0.3l3.6-0.1l-0.7-0.8
	c-2.2-2.4-2.9-4-2.9-6.3c0-1.1,0-1.2,0.4-1.9c1.3-2.9,5.5-4.4,9.7-3.5c2.2,0.5,5.5,2,8.7,4c1.4,0.9,5.7,3.8,7,4.8
	c1.1,0.8,2,1.8,3,2.7C410.9,300,411.8,300.6,412.1,301.4z M409.1,301.9c0-0.2-1.2-1.4-2.3-2.2c-2.1-1.8-6.7-4.9-9-6.3
	c-4.4-2.6-7.5-3.5-10.1-3c-1.8,0.4-2.9,1-3.3,1.9c-0.5,0.9-0.4,2.1,0.3,3.4c0.5,0.9,1.2,1.8,1.9,2.5c0.8,0.8,1.9,1.5,2.5,2.5
	c0.1,0.2,0.3,0.4,0.3,0.6c0.2,0.9-0.7,1.4-1.4,1.8c-0.9,0.5-1.9,1-2.5,1.9c-0.4,0.5-0.7,1.5-0.8,2.4c-0.1,1.1,0.6,2.3,1.6,2.9
	c0.9,0.5,3.7,1.1,5.2,1.1c1.6,0,4.5-0.9,7-2.1c3.3-1.6,6.2-3.4,7.9-4.8C407.6,303.4,409.1,302,409.1,301.9z M93.1,302.5
	c0.1,0.3,0,0.6-0.1,0.8c-0.5,1-2.8,0.7-3.7,0.7c-2.3,0-4.6,0-6.8,0c-1.7,0-3.4,0-5.1,0c-4.9-0.1-12.3-0.3-14.8-0.5
	c-1.1-0.1-3-0.2-4.1-0.3c-1.1-0.1-3-0.1-4.1-0.1l-2,0l0.3,0.4c0.4,0.5,0.9,1.6,1.2,2.5c0.2,0.9,0.2,2.6-0.1,3.4
	c-0.9,2.6-3.1,3.9-7.2,4.4c-3.7,0.4-7.2-0.6-12.8-3.7c-4-2.2-5.4-3.2-8.6-6.4c-0.7-0.6-1.5-1.2-1.1-2.2c0.4-0.8,1.2-1.4,1.8-2
	c1-0.9,1.9-1.9,3-2.7c1.3-1,5.5-3.9,7-4.8c3.2-2,6.4-3.5,8.7-4c4.2-0.9,8.4,0.6,9.7,3.5c0.3,0.7,0.4,0.9,0.4,1.9
	c0.1,2.3-0.6,3.9-2.9,6.3l-0.7,0.8l3.6,0.1c2,0.1,4.9,0.2,6.6,0.3c6.1,0.4,17.4,0.7,25.8,0.6c1.3,0,2.6,0,3.8,0
	c0.7,0,1.3-0.1,1.8,0.6C93,302.2,93.1,302.3,93.1,302.5z M51.6,307.4c-0.1-0.8-0.4-1.8-0.8-2.4c-0.6-0.9-1.5-1.4-2.5-1.9
	c-0.6-0.3-1.6-0.9-1.4-1.8c0-0.2,0.2-0.5,0.3-0.6c0.7-0.9,1.7-1.6,2.5-2.5c0.7-0.8,1.5-1.6,1.9-2.5c0.7-1.3,0.8-2.5,0.3-3.4
	c-0.5-0.9-1.5-1.5-3.3-1.9c-2.5-0.6-5.7,0.4-10.1,3c-2.3,1.4-6.9,4.6-9,6.3c-1,0.8-2.3,2.1-2.3,2.2c0,0.1,1.5,1.5,2.6,2.5
	c1.7,1.4,4.7,3.2,7.9,4.8c2.4,1.2,5.4,2.1,7,2.1c1.5,0,4.3-0.5,5.2-1.1C51,309.7,51.7,308.5,51.6,307.4z"/>
</svg>
