<?xml version="1.0" encoding="utf-8"?>
<!-- Generator: Adobe Illustrator 18.0.0, SVG Export Plug-In . SVG Version: 6.00 Build 0)  -->
<!DOCTYPE svg PUBLIC "-//W3C//DTD SVG 1.1//EN" "http://www.w3.org/Graphics/SVG/1.1/DTD/svg11.dtd">
<svg version="1.1" id="Layer_1" xmlns="http://www.w3.org/2000/svg" xmlns:xlink="http://www.w3.org/1999/xlink" x="0px" y="0px"
	 viewBox="0 0 432 432" enable-background="new 0 0 432 432" xml:space="preserve">
<path fill="#141414" d="M408.9,216.6c-1.9,5.7-11.7,32.7-23.7,32.5c-8.5-0.1-11-15.2-11-15.2s17.5-7.8,17.7-17.2
	c0.1-5.1-2.5-10.4-8.1-10.5c-9.7-0.2-21.1,10.1-21.3,23.8c-0.1,3.1,0.3,6.1,1,8.7c-4.6,15.3-10.4,30.4-15,30.4
	c-5-0.1-10.7-46.5-10.3-72.1c0-1,0-1.8,0-2.8c9.5-9.6,31.9-34,32.2-52.6c0.1-8.6-2.8-14.4-8.4-14.5c-21-0.4-39,45.6-39.6,81.5
	c0,2.3,0,4.7,0,7.1c-0.6-0.4-1.4-0.2-1.7,1.2c-2.1,11.7-7.4,20.5-16.7,28c-0.3-36-9.7-43.6-26.3-43.9c-6.9-0.1-13,6.4-16.1,14.5
	c-0.5,0-0.9,0.4-1.1,1.4c-2.1,11.7-7.4,20.5-16.7,28c-0.3-36-9.7-43.6-26.3-43.9c-7.6-0.1-14.1,7.7-16.9,16.9
	c-0.2,0.2-0.3,0.4-0.4,0.8c-1.7,6.8-8.8,39.2-16.6,39c-6.1-0.1,0.8-42.3,0.9-46.2c0.1-4-5.1-7.2-8.4-7.2c-3.3-0.1-1.6,1.5-1.6,4.2
	c0,1.5-8.1,35.8-13.5,35.7c-4-0.1,1.3-21.8,1.4-27.5c0.1-3.7-5.8-8.3-9.3-8.4c-3.6-0.1-3.1,0.7-3.1,1.6c0,1.5-1.4,14.5-1.5,21.3
	c0,2.1,0.1,4.5,0.6,6.8c-4.9,15.4-11.5,33.1-15,33c-6.8-0.1,3.2-43.1,3.5-57.7c0.1-8.4-0.9-17.7-10.7-17.8
	c-7.7-0.1-15.1,18.8-15.1,18.8s1-14.8-12.3-15c-3.1-0.1-4.4,0.5-4.4,2.8c0,2.3,2.1,1.7,2,8.5c0,1.5-0.1,4.1-0.2,7.2
	c-3,8.5-11.1,14.8-23,24.4c-6.1-13.1-17.7-25.1-17.6-32.5c0.1-3.9,6.5-10.8,13.4-10.6c4.6,0.1,5.4,4.4,7.3,4.4
	c1.8,0,2.8-1.3,2.8-2.7c0.1-3-5.9-9.2-15.3-9.3c-9.5-0.2-21.2,7.2-21.4,15.9c-0.2,12.6,16.6,28.4,23,41.3
	c-7.2,6.2-12.5,12-12.6,16.8c-0.1,7.8,3.4,12.7,9,12.8c6.7,0.1,14.7-10.2,14.9-21.5c0.1-4.1-1-8.3-2.6-12.4
	c9.7-8.1,17.6-14.5,21.9-21.3c-0.1,10.7,0.8,23.7,6.3,23.8c4.9,0.1,6.6-2,6.7-4c0.2-14.1,9.4-44.2,15.4-44.1
	c7.2,0.1-12.4,76.2,9.2,76.6c4.5,0.1,11.2-16.9,16.3-32.7c1.4,3.4,3.8,5.9,7.4,6c10,0.2,14.3-21.3,14.3-21.3s-3.6,33.4,9.6,33.7
	c7.9,0.1,13.9-16.2,17.5-28.9c0.7,12.3,4.6,17.2,10.6,17.4c9.7,0.2,18-20.1,21.2-29.1c0.5,7.4-0.3,16.4-0.4,23.4
	c-0.1,3.8-0.2,7.6-0.5,11.4c-17.5,12.6-34.7,24-34.9,38.5c-0.2,13,6.1,22.5,17.1,22.7c19.5,0.3,30.7-24,31.4-65.3c0-1,0-2.2,0.1-3.2
	c7-5.6,12.2-11.6,15.6-19c0.1,14.7,4.2,20.5,10.7,20.6c9.7,0.2,18-20.1,21.2-29.1c0.5,7.4-0.3,16.4-0.4,23.4
	c-0.1,3.8-0.2,7.6-0.5,11.4c-17.5,12.6-34.7,24-34.9,38.5c-0.2,13,6.1,22.5,17.1,22.7c19.5,0.3,30.7-24,31.4-65.3c0-1,0-2.2,0.1-3.2
	c9.6-7.7,15.7-16,18.4-27.7c0.8,27.1,6.3,56.4,23.8,56.7c6.7,0.1,13.6-16.8,18.8-33.9c3.1,6.4,8.7,10.5,16.4,10.6
	c17,0.3,27.6-30.1,29.7-36.8C411.5,215.7,409.5,215.1,408.9,216.6z M362.2,138.8c2.8,0,4.8,3.3,4.8,5c-0.2,14.3-19.4,36.2-28.4,45.6
	C340.6,165.5,350.1,138.6,362.2,138.8z M61.7,271.1c-3.1-0.1-4.3-3.8-4.3-6.9c0.1-3.5,4.1-8.1,9.9-13.3c1,2.4,1.5,4.7,1.5,6.8
	C68.7,261.3,65.7,271.2,61.7,271.1z M212.7,244.8c-5.1-0.1-2.4-38.3,9.6-38.1c4,0.1,6.3,2.5,7.5,6.2
	C226.6,222,217.5,244.9,212.7,244.8z M208.3,310c-6.2-0.1-9.8-8.8-9.7-15.8c0.2-13,15.2-24,31.5-35.9
	C228.1,284.6,221.5,310.3,208.3,310z M272.9,244.8c-5.1-0.1-2.4-38.3,9.6-38.1c4,0.1,6.3,2.5,7.5,6.2
	C286.7,222,277.6,244.9,272.9,244.8z M268.5,310c-6.2-0.1-9.8-8.8-9.7-15.8c0.2-13,15.2-24,31.5-35.9
	C288.2,284.6,281.7,310.3,268.5,310z M385,212.5c2.6,0,3.6,2.4,3.5,4.9C388.4,224.7,374,231,374,231S372.5,212.3,385,212.5z"/>
<path fill="#B19953" d="M336.5,351.2c-2.3,6.6-13.2,37.3-22.3,37.1c-9.4-0.2-2.6-27.2-2.5-29.8c0-2.6-2-9.1-6.3-9.2
	c-1.9,0-3.6,1.8-4.9,4.7c-0.3,0.7-0.6,1.3-0.8,2.1c-1.9,4.7-6.8,15.9-9.4,15.9c-1.7,0-2-3.1-1.9-5.8c0.1-8.4,8.7-25.3,16.9-25.2
	c7,0.1,9.2,6.2,9.2,2.1c0.1-4.1-3.6-9-9.8-9.1c-11.1-0.2-19,7.3-23.1,15c-0.6-0.2-1.3,0-1.6,0.8c-1.9,5.7-11.7,32.7-23.7,32.5
	c-8.5-0.1-11-15.2-11-15.2s17.5-7.8,17.7-17.2c0.1-5.1-2.5-10.4-8.1-10.5c-9.7-0.2-21.1,10.1-21.3,23.8c-0.1,5.5,1.1,10.4,3.3,14.4
	c-3.7,14.6-8,29.4-10.2,29.4c-5.4-0.1,14.1-63.8-5.7-64.1c-5.3-0.1-13,4.2-13,4.2s5.4-23.7-2.6-23.8c-4.3-0.1-7.4,8.3-7.5,14.5
	c-0.1,5,0.9,12.4,5.4,12.5c5.2,0.1,9.1-3.2,11.6-3.1c0,0-3.5,33.8-3.5,38.8c-0.1,7.3-0.6,27.7,13.1,27.9
	c4.9,0.1,10.3-16.7,14.5-33.2c3.3,3.9,7.9,6.2,13.6,6.3c12.1,0.2,20.9-15.1,25.8-26.4c0.1,7.9,5.7,14.9,9.8,15
	c3.9,0.1,7.1-3.1,9.7-7.1c0.1,14.8,5.1,24.5,13.7,24.7c13.5,0.2,25-34.3,27.4-41.7C339.6,349.2,337.1,348.7,336.5,351.2z
	 M205.6,347.4c-4.1,0.9-5.1-3.7-5-9.2c0.1-4.6,2.3-11.6,4.2-11.6C210.4,326.8,205.6,347.4,205.6,347.4z M256,345.7
	c2.6,0,3.6,2.4,3.5,4.9c-0.1,7.3-14.6,13.5-14.6,13.5S243.5,345.5,256,345.7z M140.6,284.1c-28.7,0-52,23.3-52,52
	c0,28.7,23.3,52,52,52c28.7,0,52-23.3,52-52C192.6,307.3,169.3,284.1,140.6,284.1z M182,331.2c0.5-0.3,1-0.5,1.4-0.5
	c0.9,0,1.4,0.4,1.4,1.3c0,0.8-0.6,2.3-1.8,4.6c-2.3,4.4-5.3,8.1-8.9,11c-3.3,2.6-7.7,5.1-13.3,7.6c-0.4,3.3-1.4,6.2-2.9,8.9
	c-3.2,5.5-7.6,8.2-13.2,8.1c-1.7,0-2.9-0.5-3.5-1.3c-0.7-0.8-1-1.8-1-3c0.1-3.1,1.9-6.1,5.6-8.8c1.6-1.1,3.4-2.3,5.6-3.5
	c0-3-1.1-6.6-3.3-10.8c-1.3-2.5-2.1-4.9-2.7-7.2c-0.6,1.4-1.4,3-2.3,4.9c-9.9,21-18.8,31.5-26.6,31.3c-5.3-0.1-7.8-3.7-7.7-10.8
	c0.1-4,1-9.7,2.8-17.1c1.2-5.1,4.5-16,9.7-32.6c0.7-2.1,1-3.8,1-5.1c0-2-0.7-3.1-2.1-3.1c-2,0-4.4,1.7-7.1,5.2
	c-2.3,2.9-4.1,6.3-5.2,10.1c-0.7,2.2-1,4.5-1.1,6.8c-0.1,3.4,0.7,6.4,2.3,9.1c0.2,0.4,0.3,0.8,0.3,1.2c0,1.1-0.5,1.6-1.5,1.6
	c-0.5,0-1.2-0.3-2.1-0.9c-3.8-2.5-5.6-6.7-5.5-12.5c0-2.3,0.4-4.7,1.2-7.2c1.1-3.8,2.9-7.2,5.3-10.4c6.2-8.3,12.8-12.3,19.9-12.2
	c5.2,0.1,7.8,3.1,7.7,8.9c-0.1,6.3-2,15-5.7,26.1l-5.3,16.5c-2.3,7.3-3.5,12.4-3.6,15.4c0,2,0.4,3,1.3,3c1.1,0,2.5-0.8,4.1-2.5
	c1.6-1.7,3.3-3.8,5.1-6.4c1.8-2.6,3.5-5.5,5.2-8.5c1.7-3,3.2-5.9,4.6-8.7c1.4-2.8,2.4-5.1,3.2-7c0.3-0.6,0.6-1.1,1.1-1.4
	c0.1-0.1,0.2-0.1,0.4-0.2c0.1-1.3,0.4-2.7,0.8-4c1-3.5,2.6-6.5,4.7-8.8c2.1-2.4,4.4-4.2,6.9-5.3c2.5-1.2,5-1.7,7.4-1.7
	c2.5,0,4.4,0.7,5.8,1.9c1.8,1.6,2.6,3.8,2.6,6.7c-0.1,3.8-1.6,7.5-4.6,11.1c-1,1.2-2,1.8-3.1,1.8c-0.8,0-1.2-0.4-1.2-1.3
	c0-0.6,0.2-1.3,0.6-2.2c1-2.2,1.5-4.1,1.5-5.9c0-2.4-0.9-3.7-2.7-3.7c-1.1,0-2.3,0.5-3.5,1.7c-1.2,1.2-2.2,3-2.9,5.5
	c-0.3,1.2-0.5,2.4-0.6,3.7c0,2,0.9,5.9,2.9,11.7c1.1,3.3,1.7,6.2,1.7,8.6l2.4-1.1c3.5-1.7,6.4-3.4,8.5-5.1c3.5-2.8,6.4-6.7,8.6-11.8
	C181.1,332,181.5,331.6,182,331.2z M389.9,349.9c-4.3,17-14,52.4-21,52.3c-5-0.1-10.7-46.5-10.3-72.1c0-1,0-1.8,0-2.8
	c9.5-9.6,31.9-34,32.2-52.6c0.1-8.6-2.8-14.4-8.4-14.5c-21-0.4-39,45.6-39.6,81.5c-0.5,29.5,3.9,67.8,23.8,68.2
	c10.5,0.2,21.4-41.4,25.9-60.1C392.7,348.5,390.4,347.3,389.9,349.9z M382.4,272c2.8,0,4.8,3.3,4.8,5c-0.2,14.3-19.4,36.2-28.4,45.6
	C360.9,298.7,370.4,271.8,382.4,272z M209.6,157.5c0,0.3,0,0.7,0,1c-0.1,5.2,0.5,10,1.8,14.3c3.3,10.8,11.1,16.3,23.2,16.5
	c12,0.2,23.7-4.7,35.2-14.7c9.9-8.6,18.9-20.1,26.8-34.4c2.3-4.2,5.2-10.1,8.6-17.5c0.8-1.8,1.2-3.3,1.2-4.4c0-1.6-0.9-2.4-2.7-2.5
	c-2.2,0-3.8,1.2-4.8,3.6c-4.6,11.2-10.1,21.2-16.4,30c-13.9,18.1-27.1,27.1-39.8,26.8c-8.6-0.2-12.8-6.3-12.6-18.4
	c0.1-5,1-10.2,2.7-15.9c3,1.8,6.1,2.7,9.4,2.8c12.3,0.2,22.2-3.8,29.7-12.1c7.5-8.3,11.3-16.3,11.4-24c0.1-6.6-1.5-11.7-4.8-15.3
	c-3.3-3.6-8.3-5.5-14.9-5.6c-11.3-0.2-22.1,5.3-32.5,16.4c-7.9,8.7-13.7,19.1-17.5,31.2c-1.7,3.3-3.6,6.8-5.7,10.4
	c-3,5.2-6.2,10.2-9.5,14.8c-3.4,4.7-6.7,8.4-9.9,11c-3.2,2.7-6,4-8.3,4c-1.9,0-2.8-1.7-2.8-4.9c0.1-4.8,2.7-14.2,7.7-28.3
	s7.6-24,7.7-29.7c0.1-5.5-1.2-9.6-4-12.4c-2.2-2.2-5-3.3-8.3-3.3c-3.9-0.1-8.5,1.5-13.6,4.8c-5.1,3.3-10.4,8.3-15.8,15.1
	c-5.4,6.8-10.5,15.5-15.3,26c2.6-11.4,5.5-22.9,8.8-34.4c6.4-4.5,11.4-8.4,14.9-11.4c4.7-4.1,10.2-10,16.3-17.6
	c11.2-13.9,18.9-28,23.2-42.4c1.4-4.6,2.1-8.8,2.2-12.5c0.2-10.5-4.1-15.9-12.8-16c-16.4-0.3-31.3,13.2-44.8,40.6
	c-7.8,15.9-16.1,38.2-25,66.7c-1.5,0.4-2.6,1.6-3.4,3.5c-1.2,2.9-3,6.7-5.3,11.3c-2.3,4.6-4.9,9.6-7.9,14.8
	c-3,5.2-6.2,10.2-9.5,14.8c-3.4,4.7-6.7,8.4-9.9,11c-3.2,2.7-6,4-8.3,4c-1.9,0-2.8-1.7-2.8-4.9c0.1-7.9,4-22,11.7-42.5
	c1.7-4.7,3.7-9.5,5.8-14.6c2.1-5.1,4.1-9.9,5.8-14.5c4-0.1,7.7-0.4,11-0.9c4.6-0.7,6.9-2.6,6.9-5.6c0-2.7-4.6-4.4-13.8-5
	c3-8.9,4.5-15.9,4.6-21c0.1-5.9-2.2-9-7-9c-6.4-0.1-13,6.7-19.8,20.4c-1.3,2.8-2.7,5.9-4.2,9.2c-2.5,0.1-4.6,0.3-6.3,0.5
	c-3.5,0.5-5.3,2.3-5.4,5.5c-0.1,3.3,2.3,5.1,7.2,5.4c-3,8.5-6.1,18.4-9,29.6c-4.3,16.2-6.6,29.2-6.7,39.1
	c-0.2,13.1,4.6,19.7,14.4,19.9c9,0.2,18.2-5.3,27.4-16.5c5.6-6.7,10.9-14.7,16-24c-2.1,9.3-3.2,16.9-3.3,22.8
	c-0.2,10.3,2.7,15.5,8.6,15.6c3,0.1,5.7-1.3,8-3.9c2.3-2.7,4.3-6.1,6.2-10.4c2.2-5,4.2-9.3,6-12.8c15.4-30.8,26.9-46.1,34.4-46
	c2,0,2.9,1.2,2.9,3.5c-0.1,4.6-2.5,13.3-7.3,26.1c-4.8,12.8-7.3,22.8-7.4,30.1c-0.2,10.5,4.6,15.8,14.5,16c9,0.2,18.2-5.3,27.4-16.5
	C203.3,166.8,206.5,162.4,209.6,157.5z M242.4,121.1c7.2-11.2,14.2-16.7,21-16.6c3.4,0.1,5.1,2.1,5,6.1c-0.1,5.8-2.5,11.7-7.1,17.8
	c-4.6,6-10.2,9-16.6,8.9c-3.4-0.1-6.5-0.8-9.3-2.3C237.6,129.5,239.9,124.9,242.4,121.1z M186.8,22.5c3.3,0.1,4.9,2.2,4.9,6.3
	c0,2.2-0.6,4.9-1.5,8.3c-4.5,15-13.1,29.8-25.7,44.5c-2.7,3.1-8.2,8.4-16.5,15.9C163.1,47.2,176,22.3,186.8,22.5z"/>
</svg>
