  0
SECTION
  2
HEADER
  9
$ACADVER
  1
AC1024
  9
$ACADMAINTVER
 70
     6
  9
$DWGCODEPAGE
  3
ANSI_1252
  9
$INSBASE
 10
0.0
 20
0.0
 30
0.0
  9
$EXTMIN
 10
1.000000000000000E+20
 20
1.000000000000000E+20
 30
1.000000000000000E+20
  9
$EXTMAX
 10
-1.000000000000000E+20
 20
-1.000000000000000E+20
 30
-1.000000000000000E+20
  9
$LIMMIN
 10
0.0
 20
0.0
  9
$LIMMAX
 10
12.0
 20
9.0
  9
$ORTHOMODE
 70
     0
  9
$REGENMODE
 70
     1
  9
$FILLMODE
 70
     1
  9
$QTEXTMODE
 70
     0
  9
$MIRRTEXT
 70
     1
  9
$LTSCALE
 40
1.0
  9
$ATTMODE
 70
     1
  9
$TEXTSIZE
 40
0.2
  9
$TRACEWID
 40
0.05
  9
$TEXTSTYLE
  7
Standard
  9
$CLAYER
  8
0
  9
$CELTYPE
  6
ByLayer
  9
$CECOLOR
 62
   256
  9
$CELTSCALE
 40
1.0
  9
$DISPSILH
 70
     0
  9
$DIMSCALE
 40
1.0
  9
$DIMASZ
 40
0.18
  9
$DIMEXO
 40
0.0625
  9
$DIMDLI
 40
0.38
  9
$DIMRND
 40
0.0
  9
$DIMDLE
 40
0.0
  9
$DIMEXE
 40
0.18
  9
$DIMTP
 40
0.0
  9
$DIMTM
 40
0.0
  9
$DIMTXT
 40
0.18
  9
$DIMCEN
 40
0.09
  9
$DIMTSZ
 40
0.0
  9
$DIMTOL
 70
     0
  9
$DIMLIM
 70
     0
  9
$DIMTIH
 70
     1
  9
$DIMTOH
 70
     1
  9
$DIMSE1
 70
     0
  9
$DIMSE2
 70
     0
  9
$DIMTAD
 70
     0
  9
$DIMZIN
 70
     0
  9
$DIMBLK
  1

  9
$DIMASO
 70
     1
  9
$DIMSHO
 70
     1
  9
$DIMPOST
  1

  9
$DIMAPOST
  1

  9
$DIMALT
 70
     0
  9
$DIMALTD
 70
     2
  9
$DIMALTF
 40
25.4
  9
$DIMLFAC
 40
1.0
  9
$DIMTOFL
 70
     0
  9
$DIMTVP
 40
0.0
  9
$DIMTIX
 70
     0
  9
$DIMSOXD
 70
     0
  9
$DIMSAH
 70
     0
  9
$DIMBLK1
  1

  9
$DIMBLK2
  1

  9
$DIMSTYLE
  2
Standard
  9
$DIMCLRD
 70
     0
  9
$DIMCLRE
 70
     0
  9
$DIMCLRT
 70
     0
  9
$DIMTFAC
 40
1.0
  9
$DIMGAP
 40
0.09
  9
$DIMJUST
 70
     0
  9
$DIMSD1
 70
     0
  9
$DIMSD2
 70
     0
  9
$DIMTOLJ
 70
     1
  9
$DIMTZIN
 70
     0
  9
$DIMALTZ
 70
     0
  9
$DIMALTTZ
 70
     0
  9
$DIMUPT
 70
     0
  9
$DIMDEC
 70
     4
  9
$DIMTDEC
 70
     4
  9
$DIMALTU
 70
     2
  9
$DIMALTTD
 70
     2
  9
$DIMTXSTY
  7
Standard
  9
$DIMAUNIT
 70
     0
  9
$DIMADEC
 70
     0
  9
$DIMALTRND
 40
0.0
  9
$DIMAZIN
 70
     0
  9
$DIMDSEP
 70
    46
  9
$DIMATFIT
 70
     3
  9
$DIMFRAC
 70
     0
  9
$DIMLDRBLK
  1

  9
$DIMLUNIT
 70
     2
  9
$DIMLWD
 70
    -2
  9
$DIMLWE
 70
    -2
  9
$DIMTMOVE
 70
     0
  9
$DIMFXL
 40
1.0
  9
$DIMFXLON
 70
     0
  9
$DIMJOGANG
 40
0.7853981633974483
  9
$DIMTFILL
 70
     0
  9
$DIMTFILLCLR
 70
     0
  9
$DIMARCSYM
 70
     0
  9
$DIMLTYPE
  6

  9
$DIMLTEX1
  6

  9
$DIMLTEX2
  6

  9
$DIMTXTDIRECTION
 70
     0
  9
$LUNITS
 70
     2
  9
$LUPREC
 70
     4
  9
$SKETCHINC
 40
0.1
  9
$FILLETRAD
 40
0.5
  9
$AUNITS
 70
     0
  9
$AUPREC
 70
     0
  9
$MENU
  1
.
  9
$ELEVATION
 40
0.0
  9
$PELEVATION
 40
0.0
  9
$THICKNESS
 40
0.0
  9
$LIMCHECK
 70
     0
  9
$CHAMFERA
 40
0.5
  9
$CHAMFERB
 40
0.5
  9
$CHAMFERC
 40
1.0
  9
$CHAMFERD
 40
0.0
  9
$SKPOLY
 70
     0
  9
$TDCREATE
 40
2458603.75298537
  9
$TDUCREATE
 40
2458603.50298537
  9
$TDUPDATE
 40
2458603.752986493
  9
$TDUUPDATE
 40
2458603.502986493
  9
$TDINDWG
 40
0.0000000116
  9
$TDUSRTIMER
 40
0.0000000116
  9
$USRTIMER
 70
     1
  9
$ANGBASE
 50
0.0
  9
$ANGDIR
 70
     0
  9
$PDMODE
 70
     0
  9
$PDSIZE
 40
0.0
  9
$PLINEWID
 40
0.0
  9
$SPLFRAME
 70
     0
  9
$SPLINETYPE
 70
     6
  9
$SPLINESEGS
 70
     8
  9
$HANDSEED
  5
67
  9
$SURFTAB1
 70
     6
  9
$SURFTAB2
 70
     6
  9
$SURFTYPE
 70
     6
  9
$SURFU
 70
     6
  9
$SURFV
 70
     6
  9
$UCSBASE
  2

  9
$UCSNAME
  2

  9
$UCSORG
 10
0.0
 20
0.0
 30
0.0
  9
$UCSXDIR
 10
1.0
 20
0.0
 30
0.0
  9
$UCSYDIR
 10
0.0
 20
1.0
 30
0.0
  9
$UCSORTHOREF
  2

  9
$UCSORTHOVIEW
 70
     0
  9
$UCSORGTOP
 10
0.0
 20
0.0
 30
0.0
  9
$UCSORGBOTTOM
 10
0.0
 20
0.0
 30
0.0
  9
$UCSORGLEFT
 10
0.0
 20
0.0
 30
0.0
  9
$UCSORGRIGHT
 10
0.0
 20
0.0
 30
0.0
  9
$UCSORGFRONT
 10
0.0
 20
0.0
 30
0.0
  9
$UCSORGBACK
 10
0.0
 20
0.0
 30
0.0
  9
$PUCSBASE
  2

  9
$PUCSNAME
  2

  9
$PUCSORG
 10
0.0
 20
0.0
 30
0.0
  9
$PUCSXDIR
 10
1.0
 20
0.0
 30
0.0
  9
$PUCSYDIR
 10
0.0
 20
1.0
 30
0.0
  9
$PUCSORTHOREF
  2

  9
$PUCSORTHOVIEW
 70
     0
  9
$PUCSORGTOP
 10
0.0
 20
0.0
 30
0.0
  9
$PUCSORGBOTTOM
 10
0.0
 20
0.0
 30
0.0
  9
$PUCSORGLEFT
 10
0.0
 20
0.0
 30
0.0
  9
$PUCSORGRIGHT
 10
0.0
 20
0.0
 30
0.0
  9
$PUCSORGFRONT
 10
0.0
 20
0.0
 30
0.0
  9
$PUCSORGBACK
 10
0.0
 20
0.0
 30
0.0
  9
$USERI1
 70
     0
  9
$USERI2
 70
     0
  9
$USERI3
 70
     0
  9
$USERI4
 70
     0
  9
$USERI5
 70
     0
  9
$USERR1
 40
0.0
  9
$USERR2
 40
0.0
  9
$USERR3
 40
0.0
  9
$USERR4
 40
0.0
  9
$USERR5
 40
0.0
  9
$WORLDVIEW
 70
     1
  9
$SHADEDGE
 70
     3
  9
$SHADEDIF
 70
    70
  9
$TILEMODE
 70
     1
  9
$MAXACTVP
 70
    64
  9
$PINSBASE
 10
0.0
 20
0.0
 30
0.0
  9
$PLIMCHECK
 70
     0
  9
$PEXTMIN
 10
1.000000000000000E+20
 20
1.000000000000000E+20
 30
1.000000000000000E+20
  9
$PEXTMAX
 10
-1.000000000000000E+20
 20
-1.000000000000000E+20
 30
-1.000000000000000E+20
  9
$PLIMMIN
 10
0.0
 20
0.0
  9
$PLIMMAX
 10
12.0
 20
9.0
  9
$UNITMODE
 70
     0
  9
$VISRETAIN
 70
     1
  9
$PLINEGEN
 70
     0
  9
$PSLTSCALE
 70
     1
  9
$TREEDEPTH
 70
  3020
  9
$CMLSTYLE
  2
Standard
  9
$CMLJUST
 70
     0
  9
$CMLSCALE
 40
1.0
  9
$PROXYGRAPHICS
 70
     1
  9
$MEASUREMENT
 70
     0
  9
$CELWEIGHT
370
    -1
  9
$ENDCAPS
280
     0
  9
$JOINSTYLE
280
     0
  9
$LWDISPLAY
290
     1
  9
$INSUNITS
 70
     1
  9
$HYPERLINKBASE
  1

  9
$STYLESHEET
  1

  9
$XEDIT
290
     1
  9
$CEPSNTYPE
380
     0
  9
$PSTYLEMODE
290
     1
  9
$FINGERPRINTGUID
  2
{FC5EC806-9CFC-4AB0-B1E4-E7B1164E4648}
  9
$VERSIONGUID
  2
{FAEB1C32-E019-11D5-929B-00C0DF256EC4}
  9
$EXTNAMES
290
     1
  9
$PSVPSCALE
 40
0.0
  9
$OLESTARTUP
290
     0
  9
$SORTENTS
280
   127
  9
$INDEXCTL
280
     0
  9
$HIDETEXT
280
     1
  9
$XCLIPFRAME
280
     2
  9
$HALOGAP
280
     0
  9
$OBSCOLOR
 70
   257
  9
$OBSLTYPE
280
     0
  9
$INTERSECTIONDISPLAY
280
     0
  9
$INTERSECTIONCOLOR
 70
   257
  9
$DIMASSOC
280
     2
  9
$PROJECTNAME
  1

  9
$CAMERADISPLAY
290
     0
  9
$LENSLENGTH
 40
50.0
  9
$CAMERAHEIGHT
 40
0.0
  9
$STEPSPERSEC
 40
2.0
  9
$STEPSIZE
 40
6.0
  9
$3DDWFPREC
 40
2.0
  9
$PSOLWIDTH
 40
0.25
  9
$PSOLHEIGHT
 40
4.0
  9
$LOFTANG1
 40
1.570796326794897
  9
$LOFTANG2
 40
1.570796326794897
  9
$LOFTMAG1
 40
0.0
  9
$LOFTMAG2
 40
0.0
  9
$LOFTPARAM
 70
     7
  9
$LOFTNORMALS
280
     1
  9
$LATITUDE
 40
37.795
  9
$LONGITUDE
 40
-122.394
  9
$NORTHDIRECTION
 40
0.0
  9
$TIMEZONE
 70
 -8000
  9
$LIGHTGLYPHDISPLAY
280
     1
  9
$TILEMODELIGHTSYNCH
280
     1
  9
$CMATERIAL
347
3C
  9
$SOLIDHIST
280
     1
  9
$SHOWHIST
280
     1
  9
$DWFFRAME
280
     2
  9
$DGNFRAME
280
     2
  9
$REALWORLDSCALE
290
     1
  9
$INTERFERECOLOR
 62
   256
  9
$CSHADOW
280
     0
  9
$SHADOWPLANELOCATION
 40
0.0
  0
ENDSEC
  0
SECTION
  2
CLASSES
  0
CLASS
  1
ACDBDICTIONARYWDFLT
  2
AcDbDictionaryWithDefault
  3
ObjectDBX Classes
 90
        0
 91
        4
280
     0
281
     0
  0
CLASS
  1
VISUALSTYLE
  2
AcDbVisualStyle
  3
ObjectDBX Classes
 90
     4095
 91
        4
280
     0
281
     0
  0
CLASS
  1
MATERIAL
  2
AcDbMaterial
  3
ObjectDBX Classes
 90
     1153
 91
        4
280
     0
281
     0
  0
CLASS
  1
SUN
  2
AcDbSun
  3
SCENEOE
 90
     1024
 91
        4
280
     0
281
     0
  0
ENDSEC
  0
SECTION
  2
TABLES
  0
TABLE
  2
VPORT
  5
8
330
0
100
AcDbSymbolTable
 70
     1
  0
VPORT
  5
29
330
8
100
AcDbSymbolTableRecord
100
AcDbViewportTableRecord
  2
*Active
 70
     0
 10
0.0
 20
0.0
 11
1.0
 21
1.0
 12
0.0
 22
0.0
 13
0.0
 23
0.0
 14
0.5
 24
0.5
 15
0.5
 25
0.5
 16
0.0
 26
0.0
 36
1.0
 17
3.0
 27
-3.0
 37
0.0
 40
6.0
 41
1.0
 42
50.0
 43
0.0
 44
0.0
 50
0.0
 51
0.0
 71
     0
 72
   100
 73
     1
 74
     3
 75
     0
 76
     0
 77
     0
 78
     0
281
     0
 65
     1
110
0.0
120
0.0
130
0.0
111
1.0
121
0.0
131
0.0
112
0.0
122
1.0
132
0.0
 79
     0
146
0.0
 60
     3
 61
     5
292
     1
282
     1
141
0.0
142
0.0
 63
   250
361
3F
  0
ENDTAB
  0
TABLE
  2
LTYPE
  5
5
330
0
100
AcDbSymbolTable
 70
     1
  0
LTYPE
  5
14
330
5
100
AcDbSymbolTableRecord
100
AcDbLinetypeTableRecord
  2
ByBlock
 70
     0
  3

 72
    65
 73
     0
 40
0.0
  0
LTYPE
  5
15
330
5
100
AcDbSymbolTableRecord
100
AcDbLinetypeTableRecord
  2
ByLayer
 70
     0
  3

 72
    65
 73
     0
 40
0.0
  0
LTYPE
  5
16
330
5
100
AcDbSymbolTableRecord
100
AcDbLinetypeTableRecord
  2
Continuous
 70
     0
  3
Solid line
 72
    65
 73
     0
 40
0.0
  0
ENDTAB
  0
TABLE
  2
LAYER
  5
2
330
0
100
AcDbSymbolTable
 70
     2
  0
LAYER
  5
10
330
2
100
AcDbSymbolTableRecord
100
AcDbLayerTableRecord
  2
0
 70
     0
 62
     7
  6
Continuous
370
    -3
390
F
347
3E
  0
LAYER
  5
40
330
2
100
AcDbSymbolTableRecord
100
AcDbLayerTableRecord
  2
Layer 1
 70
     0
 62
     7
  6
Continuous
370
    -3
390
F
347
3E
  0
ENDTAB
  0
TABLE
  2
STYLE
  5
3
330
0
100
AcDbSymbolTable
 70
     1
  0
STYLE
  5
11
330
3
100
AcDbSymbolTableRecord
100
AcDbTextStyleTableRecord
  2
Standard
 70
     0
 40
0.0
 41
1.0
 50
0.0
 71
     0
 42
0.2
  3
txt
  4

  0
ENDTAB
  0
TABLE
  2
VIEW
  5
6
330
0
100
AcDbSymbolTable
 70
     0
  0
ENDTAB
  0
TABLE
  2
UCS
  5
7
330
0
100
AcDbSymbolTable
 70
     0
  0
ENDTAB
  0
TABLE
  2
APPID
  5
9
330
0
100
AcDbSymbolTable
 70
     1
  0
APPID
  5
12
330
9
100
AcDbSymbolTableRecord
100
AcDbRegAppTableRecord
  2
ACAD
 70
     0
  0
ENDTAB
  0
TABLE
  2
DIMSTYLE
  5
A
330
0
100
AcDbSymbolTable
 70
     1
100
AcDbDimStyleTable
  0
DIMSTYLE
105
27
330
A
100
AcDbSymbolTableRecord
100
AcDbDimStyleTableRecord
  2
Standard
 70
     0
178
     0
340
11
  0
ENDTAB
  0
TABLE
  2
BLOCK_RECORD
  5
1
330
0
100
AcDbSymbolTable
 70
     5
  0
BLOCK_RECORD
  5
1F
330
1
100
AcDbSymbolTableRecord
100
AcDbBlockTableRecord
  2
*Model_Space
340
22
 70
     0
280
     1
281
     0
  0
BLOCK_RECORD
  5
1B
330
1
100
AcDbSymbolTableRecord
100
AcDbBlockTableRecord
  2
*Paper_Space
340
1E
 70
     0
280
     1
281
     0
  0
BLOCK_RECORD
  5
23
330
1
100
AcDbSymbolTableRecord
100
AcDbBlockTableRecord
  2
*Paper_Space0
340
26
 70
     0
280
     1
281
     0
  0
BLOCK_RECORD
  5
4A
330
1
100
AcDbSymbolTableRecord
100
AcDbBlockTableRecord
  2
block 2
340
0
102
{BLKREFS
331
4B
102
}
 70
     0
280
     1
281
     0
  0
BLOCK_RECORD
  5
51
330
1
100
AcDbSymbolTableRecord
100
AcDbBlockTableRecord
  2
block 3
340
0
102
{BLKREFS
331
52
102
}
 70
     0
280
     1
281
     0
  0
BLOCK_RECORD
  5
57
330
1
100
AcDbSymbolTableRecord
100
AcDbBlockTableRecord
  2
block 4
340
0
102
{BLKREFS
331
58
102
}
 70
     0
280
     1
281
     0
  0
BLOCK_RECORD
  5
5D
330
1
100
AcDbSymbolTableRecord
100
AcDbBlockTableRecord
  2
block 5
340
0
102
{BLKREFS
331
5E
102
}
 70
     0
280
     1
281
     0
  0
ENDTAB
  0
ENDSEC
  0
SECTION
  2
BLOCKS
  0
BLOCK
  5
20
330
1F
100
AcDbEntity
  8
0
100
AcDbBlockBegin
  2
*Model_Space
 70
     0
 10
0.0
 20
0.0
 30
0.0
  3
*Model_Space
  1

  0
ENDBLK
  5
21
330
1F
100
AcDbEntity
  8
0
100
AcDbBlockEnd
  0
BLOCK
  5
1C
330
1B
100
AcDbEntity
 67
     1
  8
0
100
AcDbBlockBegin
  2
*Paper_Space
 70
     0
 10
0.0
 20
0.0
 30
0.0
  3
*Paper_Space
  1

  0
ENDBLK
  5
1D
330
1B
100
AcDbEntity
 67
     1
  8
0
100
AcDbBlockEnd
  0
BLOCK
  5
24
330
23
100
AcDbEntity
  8
0
100
AcDbBlockBegin
  2
*Paper_Space0
 70
     0
 10
0.0
 20
0.0
 30
0.0
  3
*Paper_Space0
  1

  0
ENDBLK
  5
25
330
23
100
AcDbEntity
  8
0
100
AcDbBlockEnd
  0
BLOCK
  5
4C
330
4A
100
AcDbEntity
  8
0
100
AcDbBlockBegin
  2
block 2
 70
     0
 10
0.0
 20
0.0
 30
0.0
  3
block 2
  1

  0
SPLINE
  5
4E
330
4A
100
AcDbEntity
  8
Layer 1
370
     0
100
AcDbSpline
210
0.0
220
0.0
230
1.0
 70
    11
 71
     3
 72
   110
 73
   106
 74
     0
 42
0.0000000001
 43
0.0000000001
 12
1.0
 22
0.0
 32
0.0
 13
1.0
 23
0.0
 33
0.0
 40
0.0
 40
0.0
 40
0.0
 40
0.0
 40
1.0
 40
1.0
 40
1.0
 40
2.0
 40
2.0
 40
2.0
 40
3.0
 40
3.0
 40
3.0
 40
4.0
 40
4.0
 40
4.0
 40
5.0
 40
5.0
 40
5.0
 40
6.0
 40
6.0
 40
6.0
 40
7.0
 40
7.0
 40
7.0
 40
8.0
 40
8.0
 40
8.0
 40
9.0
 40
9.0
 40
9.0
 40
10.0
 40
10.0
 40
10.0
 40
11.0
 40
11.0
 40
11.0
 40
12.0
 40
12.0
 40
12.0
 40
13.0
 40
13.0
 40
13.0
 40
14.0
 40
14.0
 40
14.0
 40
15.0
 40
15.0
 40
15.0
 40
16.0
 40
16.0
 40
16.0
 40
17.0
 40
17.0
 40
17.0
 40
18.0
 40
18.0
 40
18.0
 40
19.0
 40
19.0
 40
19.0
 40
20.0
 40
20.0
 40
20.0
 40
21.0
 40
21.0
 40
21.0
 40
22.0
 40
22.0
 40
22.0
 40
23.0
 40
23.0
 40
23.0
 40
24.0
 40
24.0
 40
24.0
 40
25.0
 40
25.0
 40
25.0
 40
26.0
 40
26.0
 40
26.0
 40
27.0
 40
27.0
 40
27.0
 40
28.0
 40
28.0
 40
28.0
 40
29.0
 40
29.0
 40
29.0
 40
30.0
 40
30.0
 40
30.0
 40
31.0
 40
31.0
 40
31.0
 40
32.0
 40
32.0
 40
32.0
 40
33.0
 40
33.0
 40
33.0
 40
34.0
 40
34.0
 40
34.0
 40
35.0
 40
35.0
 40
35.0
 40
35.0
 10
4.673228793674045
 20
-4.877266777886285
 30
0.0
 10
4.641140407986111
 20
-4.96950446234809
 30
0.0
 10
4.489253573947482
 20
-5.395064459906684
 30
0.0
 10
4.363355848524305
 20
-5.392873975965712
 30
0.0
 10
4.233480665418837
 20
-5.390623304578993
 30
0.0
 10
4.327502780490451
 20
-5.014433966742621
 30
0.0
 10
4.328120761447482
 20
-4.978657192654079
 30
0.0
 10
4.328746371799045
 20
-4.942872789171006
 30
0.0
 10
4.299822489420572
 20
-4.852226257324219
 30
0.0
 10
4.240189446343316
 20
-4.851186116536458
 30
0.0
 10
4.213684929741754
 20
-4.850729200575087
 30
0.0
 10
4.190691630045572
 20
-4.876844618055555
 30
0.0
 10
4.17277357313368
 20
-4.916300455729166
 30
0.0
 10
4.168636745876736
 20
-4.925513373480903
 30
0.0
 10
4.164499918619791
 20
-4.934717814127604
 30
0.0
 10
4.161666022406684
 20
-4.945275200737847
 30
0.0
 10
4.135339525010851
 20
-5.011100769042969
 30
0.0
 10
4.067686292860243
 20
-5.166354709201388
 30
0.0
 10
4.030573527018229
 20
-5.165711296929254
 30
0.0
 10
4.00671641031901
 20
-5.165296766493055
 30
0.0
 10
4.003476460774739
 20
-5.122820536295572
 30
0.0
 10
4.00412835015191
 20
-5.085716247558594
 30
0.0
 10
4.006150139702691
 20
-4.969089931911892
 30
0.0
 10
4.125567966037326
 20
-4.733865525987413
 30
0.0
 10
4.239538404676649
 20
-4.735844930013021
 30
0.0
 10
4.33628421359592
 20
-4.737520005967881
 30
0.0
 10
4.36663818359375
 20
-4.821567959255642
 30
0.0
 10
4.367627461751302
 20
-4.764583163791232
 30
0.0
 10
4.368617587619357
 20
-4.707589043511285
 30
0.0
 10
4.318104214138454
 20
-4.639107598198785
 30
0.0
 10
4.231966654459635
 20
-4.637610541449653
 30
0.0
 10
4.078069898817274
 20
-4.634937710232204
 30
0.0
 10
3.967918395996094
 20
-4.738682217068142
 30
0.0
 10
3.91052500406901
 20
-4.846349928114149
 30
0.0
 10
3.902765909830729
 20
-4.843716939290364
 30
0.0
 10
3.892306857638889
 20
-4.846159193250868
 30
0.0
 10
3.888448927137587
 20
-4.857801649305555
 30
0.0
 10
3.861885070800781
 20
-4.936882866753472
 30
0.0
 10
3.725454542371962
 20
-5.312336391872829
 30
0.0
 10
3.55979495578342
 20
-5.309460110134548
 30
0.0
 10
3.441840277777778
 20
-5.307412889268663
 30
0.0
 10
3.407020568847656
 20
-5.098676045735677
 30
0.0
 10
3.407020568847656
 20
-5.098676045735677
 30
0.0
 10
3.407020568847656
 20
-5.098676045735677
 30
0.0
 10
3.650179545084635
 20
-4.990214029947916
 30
0.0
 10
3.652430216471354
 20
-4.860338846842447
 30
0.0
 10
3.653648376464844
 20
-4.790097554524739
 30
0.0
 10
3.617829216851128
 20
-4.715237087673611
 30
0.0
 10
3.539635552300347
 20
-4.713883293999566
 30
0.0
 10
3.404465569390191
 20
-4.711531745062934
 30
0.0
 10
3.246877034505208
 20
-4.854620191786024
 30
0.0
 10
3.243585374620225
 20
-5.044136047363281
 30
0.0
 10
3.242256164550781
 20
-5.12066904703776
 30
0.0
 10
3.258680555555555
 20
-5.189153035481771
 30
0.0
 10
3.289865281846788
 20
-5.243683709038629
 30
0.0
 10
3.238282945421007
 20
-5.446892632378472
 30
0.0
 10
3.178432888454861
 20
-5.652431911892361
 30
0.0
 10
3.147821214463975
 20
-5.651903788248697
 30
0.0
 10
3.072283426920573
 20
-5.650592380099826
 30
0.0
 10
3.343495686848958
 20
-4.765767415364583
 30
0.0
 10
3.069162156846788
 20
-4.761004130045572
 30
0.0
 10
2.994944254557292
 20
-4.759719000922309
 30
0.0
 10
2.889188978407118
 20
-4.818861219618055
 30
0.0
 10
2.889188978407118
 20
-4.818861219618055
 30
0.0
 10
2.889188978407118
 20
-4.818861219618055
 30
0.0
 10
2.963829888237847
 20
-4.490063137478298
 30
0.0
 10
2.852507697211371
 20
-4.488134596082899
 30
0.0
 10
2.792874654134114
 20
-4.48710208468967
 30
0.0
 10
2.749763488769531
 20
-4.603009541829427
 30
0.0
 10
2.748265584309896
 20
-4.689155578613281
 30
0.0
 10
2.74707285563151
 20
-4.758069356282552
 30
0.0
 10
2.761183844672309
 20
-4.861718071831597
 30
0.0
 10
2.823465135362413
 20
-4.862800598144531
 30
0.0
 10
2.895034790039062
 20
-4.86403571234809
 30
0.0
 10
2.95017581515842
 20
-4.818598429361979
 30
0.0
 10
2.984631856282552
 20
-4.819199456108941
 30
0.0
 10
2.984631856282552
 20
-4.819199456108941
 30
0.0
 10
2.936707390679253
 20
-5.28897942437066
 30
0.0
 10
2.935514662000868
 20
-5.357892354329427
 30
0.0
 10
2.93373786078559
 20
-5.459942287868923
 30
0.0
 10
2.927519904242621
 20
-5.742202758789062
 30
0.0
 10
3.117035759819878
 20
-5.745485093858506
 30
0.0
 10
3.184946695963542
 20
-5.746665954589844
 30
0.0
 10
3.260361565483941
 20
-5.51290300157335
 30
0.0
 10
3.317853291829427
 20
-5.284033033582899
 30
0.0
 10
3.36302015516493
 20
-5.337941487630208
 30
0.0
 10
3.427213880750868
 20
-5.370790269639756
 30
0.0
 10
3.507006327311198
 20
-5.37217288547092
 30
0.0
 10
3.674786885579427
 20
-5.375084771050347
 30
0.0
 10
3.797959221733941
 20
-5.162688361273871
 30
0.0
 10
3.865263197157118
 20
-5.006058586968316
 30
0.0
 10
3.866336398654514
 20
-5.116135491265191
 30
0.0
 10
3.944672478569878
 20
-5.213274637858072
 30
0.0
 10
4.00189463297526
 20
-5.214262220594618
 30
0.0
 10
4.056232028537326
 20
-5.2152099609375
 30
0.0
 10
4.10074700249566
 20
-5.170906066894531
 30
0.0
 10
4.136168585883246
 20
-5.115841335720486
 30
0.0
 10
4.137902153862847
 20
-5.321354336208767
 30
0.0
 10
4.207145690917969
 20
-5.456448872884114
 30
0.0
 10
4.326420254177517
 20
-5.458521525065104
 30
0.0
 10
4.514607747395833
 20
-5.461786905924479
 30
0.0
 10
4.674066331651475
 20
-4.982007344563802
 30
0.0
 10
4.70634036593967
 20
-4.879162258572048
 30
0.0
 10
4.716119554307725
 20
-4.850170559353298
 30
0.0
 10
4.681781344943576
 20
-4.842945522732204
 30
0.0
 10
4.673228793674045
 20
-4.877266777886285
 30
0.0
  0
SPLINE
  5
4F
330
4A
100
AcDbEntity
  8
Layer 1
370
     0
100
AcDbSpline
210
0.0
220
0.0
230
1.0
 70
    11
 71
     3
 72
    14
 73
    10
 74
     0
 42
0.0000000001
 43
0.0000000001
 12
1.0
 22
0.0
 32
0.0
 13
1.0
 23
0.0
 33
0.0
 40
0.0
 40
0.0
 40
0.0
 40
0.0
 40
1.0
 40
1.0
 40
1.0
 40
2.0
 40
2.0
 40
2.0
 40
3.0
 40
3.0
 40
3.0
 40
3.0
 10
2.855941772460938
 20
-4.824918111165364
 30
0.0
 10
2.79872809516059
 20
-4.837176005045572
 30
0.0
 10
2.785252041286892
 20
-4.773313734266493
 30
0.0
 10
2.786563449435764
 20
-4.69777594672309
 30
0.0
 10
2.787662929958767
 20
-4.634158664279513
 30
0.0
 10
2.818524678548177
 20
-4.536592271592881
 30
0.0
 10
2.845029195149739
 20
-4.537057664659288
 30
0.0
 10
2.92189449734158
 20
-4.538385179307725
 30
0.0
 10
2.855941772460938
 20
-4.824918111165364
 30
0.0
 10
2.855941772460938
 20
-4.824918111165364
 30
0.0
  0
SPLINE
  5
50
330
4A
100
AcDbEntity
  8
Layer 1
370
     0
100
AcDbSpline
210
0.0
220
0.0
230
1.0
 70
    11
 71
     3
 72
    14
 73
    10
 74
     0
 42
0.0000000001
 43
0.0000000001
 12
1.0
 22
0.0
 32
0.0
 13
1.0
 23
0.0
 33
0.0
 40
0.0
 40
0.0
 40
0.0
 40
0.0
 40
1.0
 40
1.0
 40
1.0
 40
2.0
 40
2.0
 40
2.0
 40
3.0
 40
3.0
 40
3.0
 40
3.0
 10
3.555353800455729
 20
-4.801645067003038
 30
0.0
 10
3.591130574544271
 20
-4.802271525065104
 30
0.0
 10
3.605156792534722
 20
-4.834325154622396
 30
0.0
 10
3.604538811577691
 20
-4.870110405815972
 30
0.0
 10
3.602787441677517
 20
-4.970831976996528
 30
0.0
 10
3.402435302734375
 20
-5.057502746582031
 30
0.0
 10
3.402435302734375
 20
-5.057502746582031
 30
0.0
 10
3.402435302734375
 20
-5.057502746582031
 30
0.0
 10
3.381742689344618
 20
-4.798633151584201
 30
0.0
 10
3.555353800455729
 20
-4.801645067003038
 30
0.0
  0
ENDBLK
  5
4D
330
4A
100
AcDbEntity
  8
0
100
AcDbBlockEnd
  0
BLOCK
  5
53
330
51
100
AcDbEntity
  8
0
100
AcDbBlockBegin
  2
block 3
 70
     0
 10
0.0
 20
0.0
 30
0.0
  3
block 3
  1

  0
SPLINE
  5
55
330
51
100
AcDbEntity
  8
Layer 1
370
     0
100
AcDbSpline
210
0.0
220
0.0
230
1.0
 70
    11
 71
     3
 72
    17
 73
    13
 74
     0
 42
0.0000000001
 43
0.0000000001
 12
1.0
 22
0.0
 32
0.0
 13
1.0
 23
0.0
 33
0.0
 40
0.0
 40
0.0
 40
0.0
 40
0.0
 40
1.0
 40
1.0
 40
1.0
 40
2.0
 40
2.0
 40
2.0
 40
3.0
 40
3.0
 40
3.0
 40
4.0
 40
4.0
 40
4.0
 40
4.0
 10
1.952738444010417
 20
-3.945313347710503
 30
0.0
 10
1.554044087727865
 20
-3.945313347710503
 30
0.0
 10
1.230838351779514
 20
-4.268519083658854
 30
0.0
 10
1.230838351779514
 20
-4.667213439941406
 30
0.0
 10
1.230838351779514
 20
-5.065908643934462
 30
0.0
 10
1.554044087727865
 20
-5.389114379882812
 30
0.0
 10
1.952738444010417
 20
-5.389114379882812
 30
0.0
 10
2.351433648003472
 20
-5.389114379882812
 30
0.0
 10
2.674639383951823
 20
-5.065908643934462
 30
0.0
 10
2.674639383951823
 20
-4.667213439941406
 30
0.0
 10
2.674639383951823
 20
-4.268519083658854
 30
0.0
 10
2.351433648003472
 20
-3.945313347710503
 30
0.0
 10
1.952738444010417
 20
-3.945313347710503
 30
0.0
  0
SPLINE
  5
56
330
51
100
AcDbEntity
  8
Layer 1
370
     0
100
AcDbSpline
210
0.0
220
0.0
230
1.0
 70
    11
 71
     3
 72
   197
 73
   193
 74
     0
 42
0.0000000001
 43
0.0000000001
 12
1.0
 22
0.0
 32
0.0
 13
1.0
 23
0.0
 33
0.0
 40
0.0
 40
0.0
 40
0.0
 40
0.0
 40
1.0
 40
1.0
 40
1.0
 40
2.0
 40
2.0
 40
2.0
 40
3.0
 40
3.0
 40
3.0
 40
4.0
 40
4.0
 40
4.0
 40
5.0
 40
5.0
 40
5.0
 40
6.0
 40
6.0
 40
6.0
 40
7.0
 40
7.0
 40
7.0
 40
8.0
 40
8.0
 40
8.0
 40
9.0
 40
9.0
 40
9.0
 40
10.0
 40
10.0
 40
10.0
 40
11.0
 40
11.0
 40
11.0
 40
12.0
 40
12.0
 40
12.0
 40
13.0
 40
13.0
 40
13.0
 40
14.0
 40
14.0
 40
14.0
 40
15.0
 40
15.0
 40
15.0
 40
16.0
 40
16.0
 40
16.0
 40
17.0
 40
17.0
 40
17.0
 40
18.0
 40
18.0
 40
18.0
 40
19.0
 40
19.0
 40
19.0
 40
20.0
 40
20.0
 40
20.0
 40
21.0
 40
21.0
 40
21.0
 40
22.0
 40
22.0
 40
22.0
 40
23.0
 40
23.0
 40
23.0
 40
24.0
 40
24.0
 40
24.0
 40
25.0
 40
25.0
 40
25.0
 40
26.0
 40
26.0
 40
26.0
 40
27.0
 40
27.0
 40
27.0
 40
28.0
 40
28.0
 40
28.0
 40
29.0
 40
29.0
 40
29.0
 40
30.0
 40
30.0
 40
30.0
 40
31.0
 40
31.0
 40
31.0
 40
32.0
 40
32.0
 40
32.0
 40
33.0
 40
33.0
 40
33.0
 40
34.0
 40
34.0
 40
34.0
 40
35.0
 40
35.0
 40
35.0
 40
36.0
 40
36.0
 40
36.0
 40
37.0
 40
37.0
 40
37.0
 40
38.0
 40
38.0
 40
38.0
 40
39.0
 40
39.0
 40
39.0
 40
40.0
 40
40.0
 40
40.0
 40
41.0
 40
41.0
 40
41.0
 40
42.0
 40
42.0
 40
42.0
 40
43.0
 40
43.0
 40
43.0
 40
44.0
 40
44.0
 40
44.0
 40
45.0
 40
45.0
 40
45.0
 40
46.0
 40
46.0
 40
46.0
 40
47.0
 40
47.0
 40
47.0
 40
48.0
 40
48.0
 40
48.0
 40
49.0
 40
49.0
 40
49.0
 40
50.0
 40
50.0
 40
50.0
 40
51.0
 40
51.0
 40
51.0
 40
52.0
 40
52.0
 40
52.0
 40
53.0
 40
53.0
 40
53.0
 40
54.0
 40
54.0
 40
54.0
 40
55.0
 40
55.0
 40
55.0
 40
56.0
 40
56.0
 40
56.0
 40
57.0
 40
57.0
 40
57.0
 40
58.0
 40
58.0
 40
58.0
 40
59.0
 40
59.0
 40
59.0
 40
60.0
 40
60.0
 40
60.0
 40
61.0
 40
61.0
 40
61.0
 40
62.0
 40
62.0
 40
62.0
 40
63.0
 40
63.0
 40
63.0
 40
64.0
 40
64.0
 40
64.0
 40
64.0
 10
2.528285556369358
 20
-4.600285847981771
 30
0.0
 10
2.535391913519965
 20
-4.595658196343316
 30
0.0
 10
2.541990492078993
 20
-4.593399047851562
 30
0.0
 10
2.548072814941406
 20
-4.593500773111979
 30
0.0
 10
2.560991075303819
 20
-4.593729654947916
 30
0.0
 10
2.567360772026909
 20
-4.599735683865017
 30
0.0
 10
2.567149692111545
 20
-4.611512078179254
 30
0.0
 10
2.566954718695746
 20
-4.622543334960938
 30
0.0
 10
2.558597140842014
 20
-4.64406500922309
 30
0.0
 10
2.542074415418837
 20
-4.676094055175781
 30
0.0
 10
2.510197957356771
 20
-4.737892150878906
 30
0.0
 10
2.468999226888021
 20
-4.788870917426215
 30
0.0
 10
2.418494330512153
 20
-4.829054938422309
 30
0.0
 10
2.372997707790799
 20
-4.865525139702691
 30
0.0
 10
2.31135982937283
 20
-4.900565253363715
 30
0.0
 10
2.233597649468316
 20
-4.93418460422092
 30
0.0
 10
2.228251139322917
 20
-4.979342990451388
 30
0.0
 10
2.21478271484375
 20
-5.020736694335938
 30
0.0
 10
2.193218655056424
 20
-5.0583741929796
 30
0.0
 10
2.148914761013455
 20
-5.134774102105035
 30
0.0
 10
2.088005065917969
 20
-5.172310723198785
 30
0.0
 10
2.010470920138889
 20
-5.170956929524739
 30
0.0
 10
1.986910502115885
 20
-5.170542399088541
 30
0.0
 10
1.970473395453559
 20
-5.164645724826388
 30
0.0
 10
1.961167229546441
 20
-5.153267754448785
 30
0.0
 10
1.951861911349826
 20
-5.141888936360677
 30
0.0
 10
1.947352939181858
 20
-5.127837287055121
 30
0.0
 10
1.947640313042535
 20
-5.111120435926649
 30
0.0
 10
1.948401557074653
 20
-5.067789713541666
 30
0.0
 10
1.97420416937934
 20
-5.026988559299045
 30
0.0
 10
2.025055779351129
 20
-4.988716125488281
 30
0.0
 10
2.047000461154514
 20
-4.97312503390842
 30
0.0
 10
2.072752210828993
 20
-4.957043117947048
 30
0.0
 10
2.102318657769097
 20
-4.940444946289062
 30
0.0
 10
2.102276272243924
 20
-4.89900885687934
 30
0.0
 10
2.087091233995225
 20
-4.848842196994357
 30
0.0
 10
2.056754218207465
 20
-4.789944966634114
 30
0.0
 10
2.039169311523438
 20
-4.755816141764322
 30
0.0
 10
2.027009752061632
 20
-4.722402784559462
 30
0.0
 10
2.019938151041667
 20
-4.689664204915364
 30
0.0
 10
2.011338127983941
 20
-4.708706325954861
 30
0.0
 10
2.000958760579427
 20
-4.730955335828993
 30
0.0
 10
1.988348219129774
 20
-4.757231818305121
 30
0.0
 10
1.85056389702691
 20
-5.049101935492621
 30
0.0
 10
1.727508544921875
 20
-5.194085862901475
 30
0.0
 10
1.619189792209201
 20
-5.192198859320746
 30
0.0
 10
1.546207004123264
 20
-5.190922207302517
 30
0.0
 10
1.510582817925347
 20
-5.140873379177517
 30
0.0
 10
1.512308756510417
 20
-5.042054918077256
 30
0.0
 10
1.513281080457899
 20
-4.986567179361979
 30
0.0
 10
1.52606455485026
 20
-4.907333374023438
 30
0.0
 10
1.550673590766059
 20
-4.804344177246094
 30
0.0
 10
1.567508273654514
 20
-4.733163621690538
 30
0.0
 10
1.612523396809896
 20
-4.582435607910156
 30
0.0
 10
1.685742696126302
 20
-4.352168613009982
 30
0.0
 10
1.695005628797743
 20
-4.322678460015191
 30
0.0
 10
1.699794345431858
 20
-4.299007839626736
 30
0.0
 10
1.700098673502604
 20
-4.281132168240017
 30
0.0
 10
1.700597974989149
 20
-4.253011915418837
 30
0.0
 10
1.690767923990885
 20
-4.238765292697482
 30
0.0
 10
1.670624627007378
 20
-4.238418579101562
 30
0.0
 10
1.642876519097222
 20
-4.237936231825087
 30
0.0
 10
1.610137091742621
 20
-4.261886596679688
 30
0.0
 10
1.572415669759115
 20
-4.310276455349392
 30
0.0
 10
1.54014163547092
 20
-4.351153903537326
 30
0.0
 10
1.516141255696615
 20
-4.3980712890625
 30
0.0
 10
1.500389099121094
 20
-4.451020982530381
 30
0.0
 10
1.49109141031901
 20
-4.482035319010416
 30
0.0
 10
1.486176384819878
 20
-4.513699849446614
 30
0.0
 10
1.485609266493056
 20
-4.545999315049913
 30
0.0
 10
1.484788682725694
 20
-4.593137105305989
 30
0.0
 10
1.495262145996094
 20
-4.635140313042535
 30
0.0
 10
1.517054239908854
 20
-4.672015719943576
 30
0.0
 10
1.520006815592448
 20
-4.677015516493055
 30
0.0
 10
1.521436903211806
 20
-4.682743496365017
 30
0.0
 10
1.521318223741319
 20
-4.689197964138454
 30
0.0
 10
1.521056281195746
 20
-4.704408433702256
 30
0.0
 10
1.514085557725694
 20
-4.711886935763888
 30
0.0
 10
1.500397576226128
 20
-4.711641947428385
 30
0.0
 10
1.493933783637153
 20
-4.711531745062934
 30
0.0
 10
1.484120686848958
 20
-4.707182990180121
 30
0.0
 10
1.470974392361111
 20
-4.698588053385416
 30
0.0
 10
1.418735080295139
 20
-4.66345469156901
 30
0.0
 10
1.393321567111545
 20
-4.605606926812066
 30
0.0
 10
1.394726223415798
 20
-4.525027804904513
 30
0.0
 10
1.395293341742621
 20
-4.49271986219618
 30
0.0
 10
1.400631374782986
 20
-4.459353976779513
 30
0.0
 10
1.410731845431858
 20
-4.424931844075521
 30
0.0
 10
1.426475524902344
 20
-4.372743394639757
 30
0.0
 10
1.450881958007812
 20
-4.324505276150173
 30
0.0
 10
1.483976576063368
 20
-4.280209859212239
 30
0.0
 10
1.569614834255642
 20
-4.165368821885851
 30
0.0
 10
1.661666022406684
 20
-4.10880618625217
 30
0.0
 10
1.76011233859592
 20
-4.110523647732204
 30
0.0
 10
1.832706027560764
 20
-4.111792670355903
 30
0.0
 10
1.868296305338542
 20
-4.153101603190104
 30
0.0
 10
1.866874694824219
 20
-4.234425862630208
 30
0.0
 10
1.865343729654948
 20
-4.322230021158854
 30
0.0
 10
1.839084201388889
 20
-4.443060980902778
 30
0.0
 10
1.788122389051649
 20
-4.59690178765191
 30
0.0
 10
1.788122389051649
 20
-4.59690178765191
 30
0.0
 10
1.715115017361111
 20
-4.826034545898438
 30
0.0
 10
1.715115017361111
 20
-4.826034545898438
 30
0.0
 10
1.682925754123264
 20
-4.927365620930989
 30
0.0
 10
1.666479322645399
 20
-4.998554653591579
 30
0.0
 10
1.665760464138455
 20
-5.039601643880208
 30
0.0
 10
1.665278116861979
 20
-5.067341274685329
 30
0.0
 10
1.671496073404948
 20
-5.081333584255642
 30
0.0
 10
1.684422810872396
 20
-5.081562466091579
 30
0.0
 10
1.699996948242188
 20
-5.081832885742188
 30
0.0
 10
1.719022962782118
 20
-5.070471869574653
 30
0.0
 10
1.741475423177083
 20
-5.047477722167969
 30
0.0
 10
1.763919406467014
 20
-5.024492899576822
 30
0.0
 10
1.787352667914496
 20
-4.994672139485677
 30
0.0
 10
1.811759101019965
 20
-4.9580323961046
 30
0.0
 10
1.836157057020399
 20
-4.921385023328993
 30
0.0
 10
1.860225253634983
 20
-4.881987677680121
 30
0.0
 10
1.883963690863715
 20
-4.839815775553385
 30
0.0
 10
1.907701280381944
 20
-4.797652350531684
 30
0.0
 10
1.929037306043837
 20
-4.757341172960069
 30
0.0
 10
1.947953118218316
 20
-4.718883090549045
 30
0.0
 10
1.96687740749783
 20
-4.680433485243055
 30
0.0
 10
1.981893751356337
 20
-4.647821214463975
 30
0.0
 10
1.993009779188368
 20
-4.621012369791666
 30
0.0
 10
1.996580335828993
 20
-4.612332661946614
 30
0.0
 10
2.001825120713975
 20
-4.605683220757379
 30
0.0
 10
2.008753458658854
 20
-4.601038614908854
 30
0.0
 10
2.010527716742621
 20
-4.599851820203993
 30
0.0
 10
2.012196858723958
 20
-4.599263509114583
 30
0.0
 10
2.013916015625
 20
-4.598387824164496
 30
0.0
 10
2.015677558051215
 20
-4.579705980088975
 30
0.0
 10
2.019284566243489
 20
-4.561152988009982
 30
0.0
 10
2.02486080593533
 20
-4.542733934190538
 30
0.0
 10
2.039394802517361
 20
-4.493946499294704
 30
0.0
 10
2.061212327745225
 20
-4.452984280056423
 30
0.0
 10
2.090305752224392
 20
-4.41983879937066
 30
0.0
 10
2.119399176703559
 20
-4.38670179578993
 30
0.0
 10
2.151571485731337
 20
-4.362083435058594
 30
0.0
 10
2.186832004123264
 20
-4.345959133572048
 30
0.0
 10
2.222092522515191
 20
-4.329851786295572
 30
0.0
 10
2.256447686089409
 20
-4.322085910373263
 30
0.0
 10
2.28989749484592
 20
-4.322669982910156
 30
0.0
 10
2.324480692545573
 20
-4.323270161946614
 30
0.0
 10
2.351129319932725
 20
-4.332102457682291
 30
0.0
 10
2.369842529296875
 20
-4.349157545301649
 30
0.0
 10
2.394172668457031
 20
-4.371253967285156
 30
0.0
 10
2.405982123480903
 20
-4.402445475260416
 30
0.0
 10
2.405280219184028
 20
-4.442731221516927
 30
0.0
 10
2.404366387261284
 20
-4.495181613498263
 30
0.0
 10
2.383124457465278
 20
-4.546709696451822
 30
0.0
 10
2.341561211480034
 20
-4.597307840983072
 30
0.0
 10
2.327958001030816
 20
-4.613804287380642
 30
0.0
 10
2.31355963812934
 20
-4.621917724609375
 30
0.0
 10
2.298365275065104
 20
-4.621646457248263
 30
0.0
 10
2.286961873372396
 20
-4.621452331542969
 30
0.0
 10
2.281361050075955
 20
-4.615648905436197
 30
0.0
 10
2.281556023491753
 20
-4.604244656032986
 30
0.0
 10
2.281700134277344
 20
-4.596267700195312
 30
0.0
 10
2.284534030490451
 20
-4.586047702365451
 30
0.0
 10
2.290074666341146
 20
-4.573603312174479
 30
0.0
 10
2.303906758626302
 20
-4.543427361382379
 30
0.0
 10
2.311047024197049
 20
-4.515992058648004
 30
0.0
 10
2.311478508843316
 20
-4.491281297471788
 30
0.0
 10
2.312061733669705
 20
-4.457459343804254
 30
0.0
 10
2.299431694878472
 20
-4.440311008029513
 30
0.0
 10
2.273595174153646
 20
-4.439862569173177
 30
0.0
 10
2.258004082573784
 20
-4.43959214952257
 30
0.0
 10
2.241710238986545
 20
-4.447485182020399
 30
0.0
 10
2.224706013997396
 20
-4.463533189561631
 30
0.0
 10
2.207684834798177
 20
-4.479589674207899
 30
0.0
 10
2.194132486979167
 20
-4.504825168185763
 30
0.0
 10
2.184032016330295
 20
-4.539239671495225
 30
0.0
 10
2.179175482855903
 20
-4.55588870578342
 30
0.0
 10
2.176604376898871
 20
-4.572960747612847
 30
0.0
 10
2.176290724012587
 20
-4.590438842773438
 30
0.0
 10
2.17580074734158
 20
-4.618567572699653
 30
0.0
 10
2.189115736219618
 20
-4.672591315375434
 30
0.0
 10
2.216238233778212
 20
-4.752527872721354
 30
0.0
 10
2.23140631781684
 20
-4.798413594563802
 30
0.0
 10
2.239451938205295
 20
-4.83809831407335
 30
0.0
 10
2.240390353732639
 20
-4.87156507703993
 30
0.0
 10
2.240390353732639
 20
-4.87156507703993
 30
0.0
 10
2.273747762044271
 20
-4.855610317654079
 30
0.0
 10
2.273747762044271
 20
-4.855610317654079
 30
0.0
 10
2.322441948784722
 20
-4.832134670681423
 30
0.0
 10
2.362017313639323
 20
-4.808489481608072
 30
0.0
 10
2.392472161187066
 20
-4.784683227539062
 30
0.0
 10
2.441420661078559
 20
-4.746386210123697
 30
0.0
 10
2.481350368923611
 20
-4.691566467285156
 30
0.0
 10
2.512253655327691
 20
-4.620251125759548
 30
0.0
 10
2.515824211968316
 20
-4.611571417914496
 30
0.0
 10
2.52116224500868
 20
-4.60492197672526
 30
0.0
 10
2.528285556369358
 20
-4.600285847981771
 30
0.0
  0
ENDBLK
  5
54
330
51
100
AcDbEntity
  8
0
100
AcDbBlockEnd
  0
BLOCK
  5
59
330
57
100
AcDbEntity
  8
0
100
AcDbBlockBegin
  2
block 4
 70
     0
 10
0.0
 20
0.0
 30
0.0
  3
block 4
  1

  0
SPLINE
  5
5B
330
57
100
AcDbEntity
  8
Layer 1
370
     0
100
AcDbSpline
210
0.0
220
0.0
230
1.0
 70
    11
 71
     3
 72
    32
 73
    28
 74
     0
 42
0.0000000001
 43
0.0000000001
 12
1.0
 22
0.0
 32
0.0
 13
1.0
 23
0.0
 33
0.0
 40
0.0
 40
0.0
 40
0.0
 40
0.0
 40
1.0
 40
1.0
 40
1.0
 40
2.0
 40
2.0
 40
2.0
 40
3.0
 40
3.0
 40
3.0
 40
4.0
 40
4.0
 40
4.0
 40
5.0
 40
5.0
 40
5.0
 40
6.0
 40
6.0
 40
6.0
 40
7.0
 40
7.0
 40
7.0
 40
8.0
 40
8.0
 40
8.0
 40
9.0
 40
9.0
 40
9.0
 40
9.0
 10
5.41489749484592
 20
-4.860398186577691
 30
0.0
 10
5.355120340983072
 20
-5.096654256184896
 30
0.0
 10
5.220635308159722
 20
-5.588801913791232
 30
0.0
 10
5.12256113688151
 20
-5.587092929416232
 30
0.0
 10
5.053648206922743
 20
-5.585900200737847
 30
0.0
 10
4.973364935980903
 20
-4.9415529039171
 30
0.0
 10
4.979523552788629
 20
-4.586377461751302
 30
0.0
 10
4.979760064019097
 20
-4.573129442003038
 30
0.0
 10
4.97996351453993
 20
-4.56120130750868
 30
0.0
 10
4.980191548665364
 20
-4.547944810655381
 30
0.0
 10
5.112418280707465
 20
-4.415024651421441
 30
0.0
 10
5.423212687174479
 20
-4.075736999511719
 30
0.0
 10
5.427697075737847
 20
-3.817308213975694
 30
0.0
 10
5.429761250813802
 20
-3.698033650716146
 30
0.0
 10
5.388739691840278
 20
-3.617784288194444
 30
0.0
 10
5.310546027289496
 20
-3.616430494520399
 30
0.0
 10
5.018979390462239
 20
-3.611362881130642
 30
0.0
 10
4.769281175401475
 20
-4.24998304578993
 30
0.0
 10
4.760635375976562
 20
-4.748289320203993
 30
0.0
 10
4.75352054172092
 20
-5.157802157931857
 30
0.0
 10
4.814540439181857
 20
-5.6904542711046
 30
0.0
 10
5.091522216796875
 20
-5.695259941948785
 30
0.0
 10
5.237301296657986
 20
-5.697789510091146
 30
0.0
 10
5.389179653591579
 20
-5.119783189561631
 30
0.0
 10
5.450673421223958
 20
-4.861016167534722
 30
0.0
 10
5.453693813747829
 20
-4.839858161078559
 30
0.0
 10
5.422164069281684
 20
-4.823404100206163
 30
0.0
 10
5.41489749484592
 20
-4.860398186577691
 30
0.0
  0
SPLINE
  5
5C
330
57
100
AcDbEntity
  8
Layer 1
370
     0
100
AcDbSpline
210
0.0
220
0.0
230
1.0
 70
    11
 71
     3
 72
    14
 73
    10
 74
     0
 42
0.0000000001
 43
0.0000000001
 12
1.0
 22
0.0
 32
0.0
 13
1.0
 23
0.0
 33
0.0
 40
0.0
 40
0.0
 40
0.0
 40
0.0
 40
1.0
 40
1.0
 40
1.0
 40
2.0
 40
2.0
 40
2.0
 40
3.0
 40
3.0
 40
3.0
 40
3.0
 10
5.311713324652778
 20
-3.77818128797743
 30
0.0
 10
5.350145975748697
 20
-3.77885013156467
 30
0.0
 10
5.378519694010416
 20
-3.824414571126302
 30
0.0
 10
5.378106011284722
 20
-3.848270840115017
 30
0.0
 10
5.374654134114583
 20
-4.047058953179254
 30
0.0
 10
5.108222113715278
 20
-4.351314120822482
 30
0.0
 10
4.983990139431423
 20
-4.481730143229166
 30
0.0
 10
5.012321472167969
 20
-4.148152669270833
 30
0.0
 10
5.144725375705295
 20
-3.775279574924045
 30
0.0
 10
5.311713324652778
 20
-3.77818128797743
 30
0.0
  0
ENDBLK
  5
5A
330
57
100
AcDbEntity
  8
0
100
AcDbBlockEnd
  0
BLOCK
  5
5F
330
5D
100
AcDbEntity
  8
0
100
AcDbBlockBegin
  2
block 5
 70
     0
 10
0.0
 20
0.0
 30
0.0
  3
block 5
  1

  0
SPLINE
  5
61
330
5D
100
AcDbEntity
  8
Layer 1
370
     0
100
AcDbSpline
210
0.0
220
0.0
230
1.0
 70
    11
 71
     3
 72
   236
 73
   232
 74
     0
 42
0.0000000001
 43
0.0000000001
 12
1.0
 22
0.0
 32
0.0
 13
1.0
 23
0.0
 33
0.0
 40
0.0
 40
0.0
 40
0.0
 40
0.0
 40
1.0
 40
1.0
 40
1.0
 40
2.0
 40
2.0
 40
2.0
 40
3.0
 40
3.0
 40
3.0
 40
4.0
 40
4.0
 40
4.0
 40
5.0
 40
5.0
 40
5.0
 40
6.0
 40
6.0
 40
6.0
 40
7.0
 40
7.0
 40
7.0
 40
8.0
 40
8.0
 40
8.0
 40
9.0
 40
9.0
 40
9.0
 40
10.0
 40
10.0
 40
10.0
 40
11.0
 40
11.0
 40
11.0
 40
12.0
 40
12.0
 40
12.0
 40
13.0
 40
13.0
 40
13.0
 40
14.0
 40
14.0
 40
14.0
 40
15.0
 40
15.0
 40
15.0
 40
16.0
 40
16.0
 40
16.0
 40
17.0
 40
17.0
 40
17.0
 40
18.0
 40
18.0
 40
18.0
 40
19.0
 40
19.0
 40
19.0
 40
20.0
 40
20.0
 40
20.0
 40
21.0
 40
21.0
 40
21.0
 40
22.0
 40
22.0
 40
22.0
 40
23.0
 40
23.0
 40
23.0
 40
24.0
 40
24.0
 40
24.0
 40
25.0
 40
25.0
 40
25.0
 40
26.0
 40
26.0
 40
26.0
 40
27.0
 40
27.0
 40
27.0
 40
28.0
 40
28.0
 40
28.0
 40
29.0
 40
29.0
 40
29.0
 40
30.0
 40
30.0
 40
30.0
 40
31.0
 40
31.0
 40
31.0
 40
32.0
 40
32.0
 40
32.0
 40
33.0
 40
33.0
 40
33.0
 40
34.0
 40
34.0
 40
34.0
 40
35.0
 40
35.0
 40
35.0
 40
36.0
 40
36.0
 40
36.0
 40
37.0
 40
37.0
 40
37.0
 40
38.0
 40
38.0
 40
38.0
 40
39.0
 40
39.0
 40
39.0
 40
40.0
 40
40.0
 40
40.0
 40
41.0
 40
41.0
 40
41.0
 40
42.0
 40
42.0
 40
42.0
 40
43.0
 40
43.0
 40
43.0
 40
44.0
 40
44.0
 40
44.0
 40
45.0
 40
45.0
 40
45.0
 40
46.0
 40
46.0
 40
46.0
 40
47.0
 40
47.0
 40
47.0
 40
48.0
 40
48.0
 40
48.0
 40
49.0
 40
49.0
 40
49.0
 40
50.0
 40
50.0
 40
50.0
 40
51.0
 40
51.0
 40
51.0
 40
52.0
 40
52.0
 40
52.0
 40
53.0
 40
53.0
 40
53.0
 40
54.0
 40
54.0
 40
54.0
 40
55.0
 40
55.0
 40
55.0
 40
56.0
 40
56.0
 40
56.0
 40
57.0
 40
57.0
 40
57.0
 40
58.0
 40
58.0
 40
58.0
 40
59.0
 40
59.0
 40
59.0
 40
60.0
 40
60.0
 40
60.0
 40
61.0
 40
61.0
 40
61.0
 40
62.0
 40
62.0
 40
62.0
 40
63.0
 40
63.0
 40
63.0
 40
64.0
 40
64.0
 40
64.0
 40
65.0
 40
65.0
 40
65.0
 40
66.0
 40
66.0
 40
66.0
 40
67.0
 40
67.0
 40
67.0
 40
68.0
 40
68.0
 40
68.0
 40
69.0
 40
69.0
 40
69.0
 40
70.0
 40
70.0
 40
70.0
 40
71.0
 40
71.0
 40
71.0
 40
72.0
 40
72.0
 40
72.0
 40
73.0
 40
73.0
 40
73.0
 40
74.0
 40
74.0
 40
74.0
 40
75.0
 40
75.0
 40
75.0
 40
76.0
 40
76.0
 40
76.0
 40
77.0
 40
77.0
 40
77.0
 40
77.0
 10
2.910914950900608
 20
-2.187886555989583
 30
0.0
 10
2.910758972167969
 20
-2.192459954155816
 30
0.0
 10
2.910468207465278
 20
-2.197116427951389
 30
0.0
 10
2.910389370388455
 20
-2.20164320203993
 30
0.0
 10
2.909128824869792
 20
-2.274152119954427
 30
0.0
 10
2.917664421929253
 20
-2.340358310275608
 30
0.0
 10
2.936005486382378
 20
-2.400278727213542
 30
0.0
 10
2.982229444715712
 20
-2.550431145562066
 30
0.0
 10
3.089676751030816
 20
-2.627000596788194
 30
0.0
 10
3.258365207248264
 20
-2.629944695366753
 30
0.0
 10
3.424895392523871
 20
-2.632854885525174
 30
0.0
 10
3.588016933865017
 20
-2.564965142144097
 30
0.0
 10
3.747703552246094
 20
-2.426292419433594
 30
0.0
 10
3.885504828559028
 20
-2.306628757052951
 30
0.0
 10
4.009635077582465
 20
-2.147230360243055
 30
0.0
 10
4.120111253526476
 20
-1.948087056477865
 30
0.0
 10
4.152732849121094
 20
-1.889062669542101
 30
0.0
 10
4.192569308810763
 20
-1.80790032280816
 30
0.0
 10
4.239614698621962
 20
-1.704597473144531
 30
0.0
 10
4.25083245171441
 20
-1.678938971625434
 30
0.0
 10
4.256576538085938
 20
-1.658576117621528
 30
0.0
 10
4.25683848063151
 20
-1.643501281738281
 30
0.0
 10
4.257227579752604
 20
-1.621260748969184
 30
0.0
 10
4.24485100640191
 20
-1.609898885091146
 30
0.0
 10
4.219734191894531
 20
-1.609458923339844
 30
0.0
 10
4.189583672417535
 20
-1.608934190538194
 30
0.0
 10
4.167376200358072
 20
-1.625778198242188
 30
0.0
 10
4.153147379557291
 20
-1.659997728135851
 30
0.0
 10
4.088657803005642
 20
-1.816131591796875
 30
0.0
 10
4.012638515896267
 20
-1.954828898111979
 30
0.0
 10
3.925071716308594
 20
-2.07609134250217
 30
0.0
 10
3.7325439453125
 20
-2.327660454644097
 30
0.0
 10
3.548340691460503
 20
-2.451891581217448
 30
0.0
 10
3.372470431857639
 20
-2.448829650878906
 30
0.0
 10
3.252578735351562
 20
-2.446731567382812
 30
0.0
 10
3.194112989637587
 20
-2.361693488226996
 30
0.0
 10
3.197048611111111
 20
-2.193716261121962
 30
0.0
 10
3.198249816894531
 20
-2.124803331163194
 30
0.0
 10
3.210651821560329
 20
-2.051422966851129
 30
0.0
 10
3.234280056423611
 20
-1.973559061686198
 30
0.0
 10
3.275478786892361
 20
-1.99870130750868
 30
0.0
 10
3.31905534532335
 20
-2.011661953396267
 30
0.0
 10
3.365008884006076
 20
-2.012465582953559
 30
0.0
 10
3.535845438639323
 20
-2.015443589952257
 30
0.0
 10
3.673266092936198
 20
-1.959507412380642
 30
0.0
 10
3.777245415581597
 20
-1.84462398952908
 30
0.0
 10
3.881199306911892
 20
-1.729756673177083
 30
0.0
 10
3.934140523274739
 20
-1.618476867675781
 30
0.0
 10
3.93601820203993
 20
-1.51080067952474
 30
0.0
 10
3.937625461154514
 20
-1.418919033474392
 30
0.0
 10
3.915520562065972
 20
-1.347984313964844
 30
0.0
 10
3.869718763563368
 20
-1.297987196180556
 30
0.0
 10
3.823909335666233
 20
-1.248014662000868
 30
0.0
 10
3.754716661241319
 20
-1.222195943196615
 30
0.0
 10
3.662107679578993
 20
-1.220580206976996
 30
0.0
 10
3.505610148111979
 20
-1.217847188313802
 30
0.0
 10
3.354932996961805
 20
-1.293850368923611
 30
0.0
 10
3.210051642523871
 20
-1.448579576280382
 30
0.0
 10
3.100146823459201
 20
-1.569758097330729
 30
0.0
 10
3.019405788845486
 20
-1.714228312174479
 30
0.0
 10
2.967277526855469
 20
-1.881535000271267
 30
0.0
 10
2.943248324924045
 20
-1.927929348415798
 30
0.0
 10
2.917017618815104
 20
-1.976127624511719
 30
0.0
 10
2.888258192274305
 20
-2.026407029893663
 30
0.0
 10
2.846771240234375
 20
-2.098924424913194
 30
0.0
 10
2.802670796712239
 20
-2.167634752061632
 30
0.0
 10
2.755947536892361
 20
-2.232521057128906
 30
0.0
 10
2.709207322862413
 20
-2.297408209906684
 30
0.0
 10
2.663447909884983
 20
-2.348496331108941
 30
0.0
 10
2.618628607855903
 20
-2.385770161946614
 30
0.0
 10
2.573816935221354
 20
-2.423052469889323
 30
0.0
 10
2.535257127549913
 20
-2.441402011447483
 30
0.0
 10
2.502957661946614
 20
-2.440834893120659
 30
0.0
 10
2.476393805609809
 20
-2.440369500054253
 30
0.0
 10
2.463510301378038
 20
-2.417527940538194
 30
0.0
 10
2.46429697672526
 20
-2.372302585177951
 30
0.0
 10
2.465455796983507
 20
-2.306265089246962
 30
0.0
 10
2.501130845811632
 20
-2.175291273328993
 30
0.0
 10
2.571329752604167
 20
-1.979404873318142
 30
0.0
 10
2.641528659396701
 20
-1.783518473307292
 30
0.0
 10
2.677322387695312
 20
-1.646106296115451
 30
0.0
 10
2.678701612684462
 20
-1.567125956217448
 30
0.0
 10
2.680029127332899
 20
-1.49104732937283
 30
0.0
 10
2.661638047960069
 20
-1.433639526367188
 30
0.0
 10
2.623543633355034
 20
-1.394902547200521
 30
0.0
 10
2.59318118625217
 20
-1.364937676323785
 30
0.0
 10
2.554672241210938
 20
-1.349540710449219
 30
0.0
 10
2.508016798231337
 20
-1.348728603786892
 30
0.0
 10
2.453451368543837
 20
-1.347772386338976
 30
0.0
 10
2.390595330132378
 20
-1.370022243923611
 30
0.0
 10
2.319431728786892
 20
-1.415451049804688
 30
0.0
 10
2.248259650336371
 20
-1.460888332790798
 30
0.0
 10
2.175242953830295
 20
-1.530876159667969
 30
0.0
 10
2.100348578559028
 20
-1.625430636935764
 30
0.0
 10
2.02545420328776
 20
-1.719985961914062
 30
0.0
 10
1.954417758517795
 20
-1.840292188856337
 30
0.0
 10
1.887238396538628
 20
-1.986316257052951
 30
0.0
 10
1.92303212483724
 20
-1.827526516384548
 30
0.0
 10
1.963884141710069
 20
-1.668118794759115
 30
0.0
 10
2.009761386447483
 20
-1.508060031467014
 30
0.0
 10
2.098462422688802
 20
-1.444983588324653
 30
0.0
 10
2.167604234483507
 20
-1.391975402832031
 30
0.0
 10
2.217186821831597
 20
-1.349032931857639
 30
0.0
 10
2.282808939615885
 20
-1.29201422797309
 30
0.0
 10
2.358185662163628
 20
-1.210766262478298
 30
0.0
 10
2.443333095974392
 20
-1.105247497558594
 30
0.0
 10
2.598916795518663
 20
-0.9126527574327257
 30
0.0
 10
2.706474304199219
 20
-0.7163348727756076
 30
0.0
 10
2.765981038411458
 20
-0.516312493218316
 30
0.0
 10
2.785040961371528
 20
-0.4520178900824652
 30
0.0
 10
2.795039706759983
 20
-0.3940260145399305
 30
0.0
 10
2.795945061577691
 20
-0.3423368665907118
 30
0.0
 10
2.798500061035156
 20
-0.1958982679578993
 30
0.0
 10
2.739104376898871
 20
-0.121612548828125
 30
0.0
 10
2.617799546983507
 20
-0.1194975111219618
 30
0.0
 10
2.390223185221354
 20
-0.1155217488606771
 30
0.0
 10
2.183017306857639
 20
-0.3032777574327257
 30
0.0
 10
1.996166653103298
 20
-0.6827494303385416
 30
0.0
 10
1.887745327419705
 20
-0.9039221869574652
 30
0.0
 10
1.771915011935764
 20
-1.212880452473958
 30
0.0
 10
1.648691813151042
 20
-1.609375
 30
0.0
 10
1.628338283962673
 20
-1.615145365397135
 30
0.0
 10
1.612635294596354
 20
-1.63108401828342
 30
0.0
 10
1.601695590549045
 20
-1.657391866048177
 30
0.0
 10
1.584463331434462
 20
-1.698015848795573
 30
0.0
 10
1.560031467013889
 20
-1.750559488932292
 30
0.0
 10
1.528391520182292
 20
-1.81498040093316
 30
0.0
 10
1.496743943956163
 20
-1.879427591959635
 30
0.0
 10
1.460188971625434
 20
-1.947892083062066
 30
0.0
 10
1.418710496690538
 20
-2.020417955186632
 30
0.0
 10
1.377224392361111
 20
-2.092935350206163
 30
0.0
 10
1.333123101128472
 20
-2.161637200249566
 30
0.0
 10
1.286399841308594
 20
-2.22652350531684
 30
0.0
 10
1.239659627278646
 20
-2.291418287489149
 30
0.0
 10
1.193900214301215
 20
-2.342507256401909
 30
0.0
 10
1.14908938937717
 20
-2.379772610134549
 30
0.0
 10
1.104269239637587
 20
-2.417062547471788
 30
0.0
 10
1.065717909071181
 20
-2.435403611924913
 30
0.0
 10
1.033409966362847
 20
-2.434845818413628
 30
0.0
 10
1.006846957736545
 20
-2.434380425347222
 30
0.0
 10
0.9939626057942708
 20
-2.411530388726128
 30
0.0
 10
0.9947577582465277
 20
-2.366312662760417
 30
0.0
 10
0.9966608683268229
 20
-2.257198757595486
 30
0.0
 10
1.050710890028212
 20
-2.060678270128038
 30
0.0
 10
1.156923082139757
 20
-1.776725769042969
 30
0.0
 10
1.181025187174479
 20
-1.71181403266059
 30
0.0
 10
1.207867940266927
 20
-1.644237094455295
 30
0.0
 10
1.23746829562717
 20
-1.574021233452691
 30
0.0
 10
1.267052544487847
 20
-1.503813001844618
 30
0.0
 10
1.293895297580295
 20
-1.436592102050781
 30
0.0
 10
1.318005879720052
 20
-1.372382269965278
 30
0.0
 10
1.374051411946615
 20
-1.370503743489583
 30
0.0
 10
1.424742804633246
 20
-1.366358439127604
 30
0.0
 10
1.47009531656901
 20
-1.35996331108941
 30
0.0
 10
1.533442179361979
 20
-1.350293477376302
 30
0.0
 10
1.565505133734809
 20
-1.324296739366319
 30
0.0
 10
1.566240946451823
 20
-1.281929863823785
 30
0.0
 10
1.56689198811849
 20
-1.244614495171441
 30
0.0
 10
1.503028869628906
 20
-1.221231248643663
 30
0.0
 10
1.374660915798611
 20
-1.211807250976562
 30
0.0
 10
1.416316562228733
 20
-1.087592230902778
 30
0.0
 10
1.437770419650608
 20
-0.9903132120768229
 30
0.0
 10
1.438997056749132
 20
-0.9199532402886285
 30
0.0
 10
1.440444098578559
 20
-0.8374116685655382
 30
0.0
 10
1.408136155870226
 20
-0.7955440945095485
 30
0.0
 10
1.342098659939236
 20
-0.7943937513563367
 30
0.0
 10
1.253796047634548
 20
-0.7928534613715277
 30
0.0
 10
1.162033081054688
 20
-0.8871129353841145
 30
0.0
 10
1.066801283094618
 20
-1.077178107367621
 30
0.0
 10
1.048164367675781
 20
-1.116355895996094
 30
0.0
 10
1.028749254014757
 20
-1.159102545844184
 30
0.0
 10
1.008555094401042
 20
-1.205419752332899
 30
0.0
 10
0.9733369615342882
 20
-1.206960042317708
 30
0.0
 10
0.944210476345486
 20
-1.20932854546441
 30
0.0
 10
0.9211832682291666
 20
-1.212509155273438
 30
0.0
 10
0.8722178141276041
 20
-1.219564649793837
 30
0.0
 10
0.8473714192708333
 20
-1.244978162977431
 30
0.0
 10
0.8466101752387152
 20
-1.28875732421875
 30
0.0
 10
0.8458065456814235
 20
-1.334710862901476
 30
0.0
 10
0.8791122436523438
 20
-1.359709845648871
 30
0.0
 10
0.9465535481770833
 20
-1.363744947645399
 30
0.0
 10
0.9042544894748263
 20
-1.482215881347656
 30
0.0
 10
0.8623792860243055
 20
-1.619356791178385
 30
0.0
 10
0.8208838568793402
 20
-1.775169372558594
 30
0.0
 10
0.7609549628363715
 20
-1.999606662326389
 30
0.0
 10
0.7297888861762153
 20
-2.180731031629774
 30
0.0
 10
0.727386474609375
 20
-2.318557739257812
 30
0.0
 10
0.7242134941948785
 20
-2.50016360812717
 30
0.0
 10
0.7908342149522569
 20
-2.592171563042534
 30
0.0
 10
0.9272232055664062
 20
-2.594557868109809
 30
0.0
 10
1.052833557128906
 20
-2.596748352050781
 30
0.0
 10
1.179840087890625
 20
-2.520339965820312
 30
0.0
 10
1.308208889431423
 20
-2.36531490749783
 30
0.0
 10
1.386166042751736
 20
-2.271682739257812
 30
0.0
 10
1.460043165418837
 20
-2.160641140407986
 30
0.0
 10
1.529877556694878
 20
-2.032341003417969
 30
0.0
 10
1.500378926595052
 20
-2.161047193739149
 30
0.0
 10
1.484893798828125
 20
-2.266525268554688
 30
0.0
 10
1.48346201578776
 20
-2.348716735839844
 30
0.0
 10
1.480966356065538
 20
-2.491559346516927
 30
0.0
 10
1.521006266276042
 20
-2.563721550835503
 30
0.0
 10
1.603548685709635
 20
-2.565160115559896
 30
0.0
 10
1.645897759331597
 20
-2.565904405381944
 30
0.0
 10
1.682833353678385
 20
-2.547698974609375
 30
0.0
 10
1.714371575249566
 20
-2.510543823242188
 30
0.0
 10
1.745884365505642
 20
-2.473396301269531
 30
0.0
 10
1.774376763237847
 20
-2.425260755750868
 30
0.0
 10
1.799823337131076
 20
-2.366093105740017
 30
0.0
 10
1.830481635199653
 20
-2.296257019042969
 30
0.0
 10
1.858094109429253
 20
-2.236776563856337
 30
0.0
 10
1.882644653320312
 20
-2.187659369574653
 30
0.0
 10
2.096922132703993
 20
-1.759840223524305
 30
0.0
 10
2.256101820203993
 20
-1.546830919053819
 30
0.0
 10
2.36019049750434
 20
-1.548641628689236
 30
0.0
 10
2.387464735243055
 20
-1.549123975965712
 30
0.0
 10
2.400831434461805
 20
-1.56551021999783
 30
0.0
 10
2.400264316134983
 20
-1.597818162706163
 30
0.0
 10
2.399147881401909
 20
-1.661715189615885
 30
0.0
 10
2.365266587999132
 20
-1.782469855414496
 30
0.0
 10
2.298620435926649
 20
-1.960108439127604
 30
0.0
 10
2.231965806749132
 20
-2.137746175130208
 30
0.0
 10
2.197763231065538
 20
-2.277172512478299
 30
0.0
 10
2.195994906955295
 20
-2.378393385145399
 30
0.0
 10
2.193448384602864
 20
-2.524113125271267
 30
0.0
 10
2.260364956325955
 20
-2.598169962565104
 30
0.0
 10
2.396770901150174
 20
-2.60054694281684
 30
0.0
 10
2.522381252712674
 20
-2.60274675157335
 30
0.0
 10
2.649387783474392
 20
-2.526329040527344
 30
0.0
 10
2.777756585015191
 20
-2.371312459309896
 30
0.0
 10
2.823574490017361
 20
-2.316281636555989
 30
0.0
 10
2.86790296766493
 20
-2.254894680447049
 30
0.0
 10
2.910914950900608
 20
-2.187886555989583
 30
0.0
  0
SPLINE
  5
62
330
5D
100
AcDbEntity
  8
Layer 1
370
     0
100
AcDbSpline
210
0.0
220
0.0
230
1.0
 70
    11
 71
     3
 72
    23
 73
    19
 74
     0
 42
0.0000000001
 43
0.0000000001
 12
1.0
 22
0.0
 32
0.0
 13
1.0
 23
0.0
 33
0.0
 40
0.0
 40
0.0
 40
0.0
 40
0.0
 40
1.0
 40
1.0
 40
1.0
 40
2.0
 40
2.0
 40
2.0
 40
3.0
 40
3.0
 40
3.0
 40
4.0
 40
4.0
 40
4.0
 40
5.0
 40
5.0
 40
5.0
 40
6.0
 40
6.0
 40
6.0
 40
6.0
 10
3.366472880045573
 20
-1.681815253363715
 30
0.0
 10
3.466830783420139
 20
-1.526307847764757
 30
0.0
 10
3.564041985405816
 20
-1.449374728732639
 30
0.0
 10
3.658089531792534
 20
-1.451015896267361
 30
0.0
 10
3.705463833279079
 20
-1.451844957139757
 30
0.0
 10
3.728669060601128
 20
-1.480252583821615
 30
0.0
 10
3.727688259548611
 20
-1.536248101128472
 30
0.0
 10
3.726292080349392
 20
-1.616650051540798
 30
0.0
 10
3.693433973524305
 20
-1.698827955457899
 30
0.0
 10
3.629140218098958
 20
-1.782799614800347
 30
0.0
 10
3.564828660753038
 20
-1.866771274142795
 30
0.0
 10
3.487819247775608
 20
-1.907970852322048
 30
0.0
 10
3.398095024956597
 20
-1.906405131022135
 30
0.0
 10
3.350720723470052
 20
-1.90557607014974
 30
0.0
 10
3.307820638020833
 20
-1.894782172309028
 30
0.0
 10
3.269404941134983
 20
-1.873996310763889
 30
0.0
 10
3.299437628851996
 20
-1.798416137695312
 30
0.0
 10
3.331795586480034
 20
-1.734358893500434
 30
0.0
 10
3.366472880045573
 20
-1.681815253363715
 30
0.0
  0
SPLINE
  5
63
330
5D
100
AcDbEntity
  8
Layer 1
370
     0
100
AcDbSpline
210
0.0
220
0.0
230
1.0
 70
    11
 71
     3
 72
    20
 73
    16
 74
     0
 42
0.0000000001
 43
0.0000000001
 12
1.0
 22
0.0
 32
0.0
 13
1.0
 23
0.0
 33
0.0
 40
0.0
 40
0.0
 40
0.0
 40
0.0
 40
1.0
 40
1.0
 40
1.0
 40
2.0
 40
2.0
 40
2.0
 40
3.0
 40
3.0
 40
3.0
 40
4.0
 40
4.0
 40
4.0
 40
5.0
 40
5.0
 40
5.0
 40
5.0
 10
2.59505123562283
 20
-0.3119074503580729
 30
0.0
 10
2.640979342990451
 20
-0.3127026028103299
 30
0.0
 10
2.663464864095052
 20
-0.3418290879991319
 30
0.0
 10
2.66245863172743
 20
-0.3992538452148438
 30
0.0
 10
2.661933898925781
 20
-0.429396735297309
 30
0.0
 10
2.654802110460069
 20
-0.4677022298177083
 30
0.0
 10
2.64107174343533
 20
-0.514129638671875
 30
0.0
 10
2.57855478922526
 20
-0.7219950358072916
 30
0.0
 10
2.459711710611979
 20
-0.9278038872612847
 30
0.0
 10
2.284534878200955
 20
-1.131557888454861
 30
0.0
 10
2.247159322102864
 20
-1.174711439344618
 30
0.0
 10
2.170827229817708
 20
-1.248420715332031
 30
0.0
 10
2.055562337239583
 20
-1.352679782443576
 30
0.0
 10
2.265179104275174
 20
-0.6562118530273438
 30
0.0
 10
2.445008171929253
 20
-0.3092846340603299
 30
0.0
 10
2.59505123562283
 20
-0.3119074503580729
 30
0.0
  0
ENDBLK
  5
60
330
5D
100
AcDbEntity
  8
0
100
AcDbBlockEnd
  0
ENDSEC
  0
SECTION
  2
ENTITIES
  0
SPLINE
  5
41
330
1F
100
AcDbEntity
  8
Layer 1
370
     0
100
AcDbSpline
210
0.0
220
0.0
230
1.0
 70
    11
 71
     3
 72
   260
 73
   256
 74
     0
 42
0.0000000001
 43
0.0000000001
 12
1.0
 22
0.0
 32
0.0
 13
1.0
 23
0.0
 33
0.0
 40
0.0
 40
0.0
 40
0.0
 40
0.0
 40
1.0
 40
1.0
 40
1.0
 40
2.0
 40
2.0
 40
2.0
 40
3.0
 40
3.0
 40
3.0
 40
4.0
 40
4.0
 40
4.0
 40
5.0
 40
5.0
 40
5.0
 40
6.0
 40
6.0
 40
6.0
 40
7.0
 40
7.0
 40
7.0
 40
8.0
 40
8.0
 40
8.0
 40
9.0
 40
9.0
 40
9.0
 40
10.0
 40
10.0
 40
10.0
 40
11.0
 40
11.0
 40
11.0
 40
12.0
 40
12.0
 40
12.0
 40
13.0
 40
13.0
 40
13.0
 40
14.0
 40
14.0
 40
14.0
 40
15.0
 40
15.0
 40
15.0
 40
16.0
 40
16.0
 40
16.0
 40
17.0
 40
17.0
 40
17.0
 40
18.0
 40
18.0
 40
18.0
 40
19.0
 40
19.0
 40
19.0
 40
20.0
 40
20.0
 40
20.0
 40
21.0
 40
21.0
 40
21.0
 40
22.0
 40
22.0
 40
22.0
 40
23.0
 40
23.0
 40
23.0
 40
24.0
 40
24.0
 40
24.0
 40
25.0
 40
25.0
 40
25.0
 40
26.0
 40
26.0
 40
26.0
 40
27.0
 40
27.0
 40
27.0
 40
28.0
 40
28.0
 40
28.0
 40
29.0
 40
29.0
 40
29.0
 40
30.0
 40
30.0
 40
30.0
 40
31.0
 40
31.0
 40
31.0
 40
32.0
 40
32.0
 40
32.0
 40
33.0
 40
33.0
 40
33.0
 40
34.0
 40
34.0
 40
34.0
 40
35.0
 40
35.0
 40
35.0
 40
36.0
 40
36.0
 40
36.0
 40
37.0
 40
37.0
 40
37.0
 40
38.0
 40
38.0
 40
38.0
 40
39.0
 40
39.0
 40
39.0
 40
40.0
 40
40.0
 40
40.0
 40
41.0
 40
41.0
 40
41.0
 40
42.0
 40
42.0
 40
42.0
 40
43.0
 40
43.0
 40
43.0
 40
44.0
 40
44.0
 40
44.0
 40
45.0
 40
45.0
 40
45.0
 40
46.0
 40
46.0
 40
46.0
 40
47.0
 40
47.0
 40
47.0
 40
48.0
 40
48.0
 40
48.0
 40
49.0
 40
49.0
 40
49.0
 40
50.0
 40
50.0
 40
50.0
 40
51.0
 40
51.0
 40
51.0
 40
52.0
 40
52.0
 40
52.0
 40
53.0
 40
53.0
 40
53.0
 40
54.0
 40
54.0
 40
54.0
 40
55.0
 40
55.0
 40
55.0
 40
56.0
 40
56.0
 40
56.0
 40
57.0
 40
57.0
 40
57.0
 40
58.0
 40
58.0
 40
58.0
 40
59.0
 40
59.0
 40
59.0
 40
60.0
 40
60.0
 40
60.0
 40
61.0
 40
61.0
 40
61.0
 40
62.0
 40
62.0
 40
62.0
 40
63.0
 40
63.0
 40
63.0
 40
64.0
 40
64.0
 40
64.0
 40
65.0
 40
65.0
 40
65.0
 40
66.0
 40
66.0
 40
66.0
 40
67.0
 40
67.0
 40
67.0
 40
68.0
 40
68.0
 40
68.0
 40
69.0
 40
69.0
 40
69.0
 40
70.0
 40
70.0
 40
70.0
 40
71.0
 40
71.0
 40
71.0
 40
72.0
 40
72.0
 40
72.0
 40
73.0
 40
73.0
 40
73.0
 40
74.0
 40
74.0
 40
74.0
 40
75.0
 40
75.0
 40
75.0
 40
76.0
 40
76.0
 40
76.0
 40
77.0
 40
77.0
 40
77.0
 40
78.0
 40
78.0
 40
78.0
 40
79.0
 40
79.0
 40
79.0
 40
80.0
 40
80.0
 40
80.0
 40
81.0
 40
81.0
 40
81.0
 40
82.0
 40
82.0
 40
82.0
 40
83.0
 40
83.0
 40
83.0
 40
84.0
 40
84.0
 40
84.0
 40
85.0
 40
85.0
 40
85.0
 40
85.0
 10
5.679823133680555
 20
-3.008071051703559
 30
0.0
 10
5.653277079264322
 20
-3.087153116861979
 30
0.0
 10
5.516837226019965
 20
-3.462606641981337
 30
0.0
 10
5.351178487141927
 20
-3.459730360243055
 30
0.0
 10
5.233232286241319
 20
-3.45768313937717
 30
0.0
 10
5.198411729600694
 20
-3.248946295844184
 30
0.0
 10
5.198411729600694
 20
-3.248946295844184
 30
0.0
 10
5.198411729600694
 20
-3.248946295844184
 30
0.0
 10
5.441562228732638
 20
-3.14048343234592
 30
0.0
 10
5.443812900119357
 20
-3.010609096950955
 30
0.0
 10
5.445031060112847
 20
-2.940367804633246
 30
0.0
 10
5.409211900499131
 20
-2.865507337782118
 30
0.0
 10
5.331026713053385
 20
-2.864153544108073
 30
0.0
 10
5.19583977593316
 20
-2.861801995171441
 30
0.0
 10
5.038251241048177
 20
-3.004890441894531
 30
0.0
 10
5.034968905978732
 20
-3.194406297471788
 30
0.0
 10
5.034217834472656
 20
-3.237751430935329
 30
0.0
 10
5.039296468098958
 20
-3.278438991970486
 30
0.0
 10
5.049320644802517
 20
-3.31561279296875
 30
0.0
 10
4.985059950086805
 20
-3.5276124742296
 30
0.0
 10
4.905185275607638
 20
-3.738477918836805
 30
0.0
 10
4.840935601128472
 20
-3.737363179524739
 30
0.0
 10
4.772021823459201
 20
-3.736170450846354
 30
0.0
 10
4.691721598307291
 20
-3.091823154025608
 30
0.0
 10
4.697897169325087
 20
-2.736647711859809
 30
0.0
 10
4.698117574055989
 20
-2.723399692111545
 30
0.0
 10
4.698320176866319
 20
-2.711471557617188
 30
0.0
 10
4.698557535807291
 20
-2.698215060763889
 30
0.0
 10
4.830783420138888
 20
-2.565294901529948
 30
0.0
 10
5.141578674316406
 20
-2.226007249620225
 30
0.0
 10
5.146062215169271
 20
-1.967578464084201
 30
0.0
 10
5.148126390245225
 20
-1.848303900824653
 30
0.0
 10
5.107096354166666
 20
-1.768054538302951
 30
0.0
 10
5.02891116672092
 20
-1.766700744628906
 30
0.0
 10
4.737353854709201
 20
-1.761633131239149
 30
0.0
 10
4.487637837727864
 20
-2.400253295898438
 30
0.0
 10
4.478992038302951
 20
-2.8985595703125
 30
0.0
 10
4.478431701660156
 20
-2.930853949652778
 30
0.0
 10
4.478353712293837
 20
-2.963966369628906
 30
0.0
 10
4.478713141547309
 20
-2.997472974989149
 30
0.0
 10
4.47043694390191
 20
-2.991569519042969
 30
0.0
 10
4.458875868055555
 20
-2.994933234320746
 30
0.0
 10
4.455474005805121
 20
-3.014077928331163
 30
0.0
 10
4.426135592990451
 20
-3.176623874240451
 30
0.0
 10
4.35243394639757
 20
-3.298630608452691
 30
0.0
 10
4.22337171766493
 20
-3.40244886610243
 30
0.0
 10
4.218786451551649
 20
-2.902586195203993
 30
0.0
 10
4.088049146864149
 20
-2.796915690104167
 30
0.0
 10
3.858772277832031
 20
-2.792939080132378
 30
0.0
 10
3.762415568033854
 20
-2.791264851888021
 30
0.0
 10
3.678124321831597
 20
-2.881837632921007
 30
0.0
 10
3.635074191623264
 20
-2.994891696506076
 30
0.0
 10
3.628676520453559
 20
-2.995184156629774
 30
0.0
 10
3.622381422254774
 20
-3.000805324978299
 30
0.0
 10
3.620020548502604
 20
-3.014077928331163
 30
0.0
 10
3.590690612792969
 20
-3.176623874240451
 30
0.0
 10
3.516988966200087
 20
-3.298630608452691
 30
0.0
 10
3.387918260362413
 20
-3.40244886610243
 30
0.0
 10
3.383332994249132
 20
-2.902586195203993
 30
0.0
 10
3.252604166666667
 20
-2.796915690104167
 30
0.0
 10
3.023327297634549
 20
-2.792939080132378
 30
0.0
 10
2.917939080132378
 20
-2.791108873155382
 30
0.0
 10
2.826980590820312
 20
-2.899612426757812
 30
0.0
 10
2.788644578721788
 20
-3.027210659450955
 30
0.0
 10
2.786220974392361
 20
-3.029880947536892
 30
0.0
 10
2.784065246582031
 20
-3.033175998263889
 30
0.0
 10
2.782798767089844
 20
-3.037891811794705
 30
0.0
 10
2.758611891004774
 20
-3.132921006944444
 30
0.0
 10
2.660673353407118
 20
-3.581949022081163
 30
0.0
 10
2.552007887098524
 20
-3.580070495605469
 30
0.0
 10
2.467190212673611
 20
-3.578598870171441
 30
0.0
 10
2.563521491156684
 20
-2.992996215820312
 30
0.0
 10
2.564460754394531
 20
-2.938658820258246
 30
0.0
 10
2.565424601236979
 20
-2.882993910047743
 30
0.0
 10
2.493271721733941
 20
-2.839324103461371
 30
0.0
 10
2.448214213053385
 20
-2.838537428114149
 30
0.0
 10
2.401830037434896
 20
-2.837733798556858
 30
0.0
 10
2.426642523871528
 20
-2.859374152289496
 30
0.0
 10
2.425999111599392
 20
-2.89648691813151
 30
0.0
 10
2.425626966688368
 20
-2.917687310112847
 30
0.0
 10
2.313958062065972
 20
-3.394319322374132
 30
0.0
 10
2.238411797417534
 20
-3.39300791422526
 30
0.0
 10
2.182755364312066
 20
-3.392043219672309
 30
0.0
 10
2.256930881076389
 20
-3.089750501844618
 30
0.0
 10
2.258292304144965
 20
-3.011556837293837
 30
0.0
 10
2.259189181857639
 20
-2.959867689344618
 30
0.0
 10
2.178102281358507
 20
-2.896157158745659
 30
0.0
 10
2.12906985812717
 20
-2.895302666558159
 30
0.0
 10
2.078708224826389
 20
-2.89443122016059
 30
0.0
 10
2.086474948459201
 20
-2.905175103081597
 30
0.0
 10
2.086263020833333
 20
-2.917103237575955
 30
0.0
 10
2.085899353027344
 20
-2.938303629557292
 30
0.0
 10
2.066864861382379
 20
-3.118268330891927
 30
0.0
 10
2.065232170952691
 20
-3.212358262803819
 30
0.0
 10
2.06473626030816
 20
-3.240959167480469
 30
0.0
 10
2.067156473795573
 20
-3.274257236056858
 30
0.0
 10
2.073551601833767
 20
-3.306813557942708
 30
0.0
 10
2.00523206922743
 20
-3.520991855197483
 30
0.0
 10
1.914324442545573
 20
-3.765981886121962
 30
0.0
 10
1.865759107801649
 20
-3.76513671875
 30
0.0
 10
1.771669175889757
 20
-3.763504028320312
 30
0.0
 10
1.910613165961371
 20
-3.16670905219184
 30
0.0
 10
1.914132012261285
 20
-2.963945176866319
 30
0.0
 10
1.916153801812066
 20
-2.847318861219618
 30
0.0
 10
1.901162889268663
 20
-2.718467712402344
 30
0.0
 10
1.765984429253472
 20
-2.716124640570746
 30
0.0
 10
1.658629523383246
 20
-2.714263068305121
 30
0.0
 10
1.555962456597222
 20
-2.977616204155816
 30
0.0
 10
1.555962456597222
 20
-2.977616204155816
 30
0.0
 10
1.555962456597222
 20
-2.977616204155816
 30
0.0
 10
1.57013193766276
 20
-2.772382100423177
 30
0.0
 10
1.384592692057292
 20
-2.769159105088975
 30
0.0
 10
1.342183430989583
 20
-2.768422444661458
 30
0.0
 10
1.323487175835503
 20
-2.776053534613715
 30
0.0
 10
1.322937859429253
 20
-2.807862175835503
 30
0.0
 10
1.3223876953125
 20
-2.839662339952257
 30
0.0
 10
1.351700676812066
 20
-2.830897861056858
 30
0.0
 10
1.350051032172309
 20
-2.926316155327691
 30
0.0
 10
1.349686516655816
 20
-2.947316487630208
 30
0.0
 10
1.347969902886285
 20
-2.98333740234375
 30
0.0
 10
1.346729702419705
 20
-3.026741875542534
 30
0.0
 10
1.30456797281901
 20
-3.14467536078559
 30
0.0
 10
1.193091498480903
 20
-3.232569376627604
 30
0.0
 10
1.027920193142361
 20
-3.365420871310764
 30
0.0
 10
0.9435840182834201
 20
-3.183662414550781
 30
0.0
 10
0.7820960150824652
 20
-3.016480339898003
 30
0.0
 10
0.7838719685872395
 20
-2.914430406358507
 30
0.0
 10
0.7848112318250867
 20
-2.860093010796441
 30
0.0
 10
0.873960706922743
 20
-2.764869689941406
 30
0.0
 10
0.9693781534830729
 20
-2.766527811686198
 30
0.0
 10
1.032995435926649
 20
-2.767627292209201
 30
0.0
 10
1.043883429633246
 20
-2.827472262912326
 30
0.0
 10
1.070396423339844
 20
-2.827929178873698
 30
0.0
 10
1.095572577582465
 20
-2.828369140625
 30
0.0
 10
1.10915035671658
 20
-2.810045030381944
 30
0.0
 10
1.109488593207465
 20
-2.790164523654514
 30
0.0
 10
1.110208299424913
 20
-2.749083624945746
 30
0.0
 10
1.028182135687934
 20
-2.662819756401909
 30
0.0
 10
0.8969794379340277
 20
-2.660535176595052
 30
0.0
 10
0.7644568549262153
 20
-2.658242967393663
 30
0.0
 10
0.6022830539279513
 20
-2.760148790147569
 30
0.0
 10
0.6001849704318576
 20
-2.880751715766059
 30
0.0
 10
0.5971484714084201
 20
-3.055691189236111
 30
0.0
 10
0.8306460910373263
 20
-3.274503919813368
 30
0.0
 10
0.9203118218315972
 20
-3.455026414659288
 30
0.0
 10
0.8207227918836805
 20
-3.540791829427083
 30
0.0
 10
0.7464124891493055
 20
-3.621693081325954
 30
0.0
 10
0.7452621459960938
 20
-3.687957763671875
 30
0.0
 10
0.7433751424153645
 20
-3.796632554796007
 30
0.0
 10
0.7925855848524305
 20
-3.86376953125
 30
0.0
 10
0.870770772298177
 20
-3.865122477213542
 30
0.0
 10
0.9635408189561632
 20
-3.866729736328125
 30
0.0
 10
1.074744330512153
 20
-3.722837660047743
 30
0.0
 10
1.077460394965278
 20
-3.566458808051215
 30
0.0
 10
1.07844967312283
 20
-3.509474012586805
 30
0.0
 10
1.063560485839844
 20
-3.450881110297309
 30
0.0
 10
1.04066891140408
 20
-3.394810146755642
 30
0.0
 10
1.175538804796007
 20
-3.282925075954861
 30
0.0
 10
1.28576405843099
 20
-3.19401380750868
 30
0.0
 10
1.345457288953993
 20
-3.098845587836371
 30
0.0
 10
1.344662136501736
 20
-3.247264438205295
 30
0.0
 10
1.356854756673177
 20
-3.427538553873698
 30
0.0
 10
1.432796054416233
 20
-3.428852505154079
 30
0.0
 10
1.500389946831597
 20
-3.430028279622396
 30
0.0
 10
1.524745517306858
 20
-3.401290045844184
 30
0.0
 10
1.525227864583333
 20
-3.37345716688368
 30
0.0
 10
1.528637356228298
 20
-3.177317301432292
 30
0.0
 10
1.655203925238715
 20
-2.759269714355469
 30
0.0
 10
1.738693237304688
 20
-2.760724385579427
 30
0.0
 10
1.838087293836805
 20
-2.762450324164496
 30
0.0
 10
1.566536797417535
 20
-3.819600423177083
 30
0.0
 10
1.866054958767361
 20
-3.824795193142361
 30
0.0
 10
1.927995469835069
 20
-3.82586924235026
 30
0.0
 10
2.021143595377604
 20
-3.590468512641059
 30
0.0
 10
2.092419942220052
 20
-3.370040045844184
 30
0.0
 10
2.112403021918403
 20
-3.416940477159288
 30
0.0
 10
2.144879659016927
 20
-3.452366299099392
 30
0.0
 10
2.1949462890625
 20
-3.453233506944444
 30
0.0
 10
2.334100511338975
 20
-3.455652872721354
 30
0.0
 10
2.393631829155816
 20
-3.157081604003906
 30
0.0
 10
2.393631829155816
 20
-3.157081604003906
 30
0.0
 10
2.393631829155816
 20
-3.157081604003906
 30
0.0
 10
2.343152364095052
 20
-3.621515062120225
 30
0.0
 10
2.527364095052083
 20
-3.624712626139323
 30
0.0
 10
2.636975606282552
 20
-3.626613193088108
 30
0.0
 10
2.720951504177517
 20
-3.399492051866319
 30
0.0
 10
2.770547654893663
 20
-3.223548041449653
 30
0.0
 10
2.779886881510417
 20
-3.394332038031684
 30
0.0
 10
2.834775288899739
 20
-3.463107638888889
 30
0.0
 10
2.917554219563802
 20
-3.464543660481771
 30
0.0
 10
3.052733527289496
 20
-3.466887580023871
 30
0.0
 10
3.167650858561198
 20
-3.185184902615017
 30
0.0
 10
3.212242126464844
 20
-3.060022989908854
 30
0.0
 10
3.219746059841579
 20
-3.16223398844401
 30
0.0
 10
3.208291795518663
 20
-3.287971496582031
 30
0.0
 10
3.206608242458767
 20
-3.384717305501302
 30
0.0
 10
3.205685933430989
 20
-3.437726338704427
 30
0.0
 10
3.203444586859809
 20
-3.490718417697483
 30
0.0
 10
3.199874030219184
 20
-3.543685065375434
 30
0.0
 10
2.95689222547743
 20
-3.718430413140191
 30
0.0
 10
2.718165927463108
 20
-3.877347310384114
 30
0.0
 10
2.714672512478299
 20
-4.078791300455729
 30
0.0
 10
2.711541917588975
 20
-4.259026421440972
 30
0.0
 10
2.79937998453776
 20
-4.391794840494791
 30
0.0
 10
2.951791551378038
 20
-4.394433763292101
 30
0.0
 10
3.22214847140842
 20
-4.399129231770833
 30
0.0
 10
3.377816942003038
 20
-4.061127556694879
 30
0.0
 10
3.387774149576823
 20
-3.487283494737413
 30
0.0
 10
3.388027615017361
 20
-3.472707960340712
 30
0.0
 10
3.388298882378472
 20
-3.456803215874566
 30
0.0
 10
3.38855234781901
 20
-3.442226833767361
 30
0.0
 10
3.486292521158854
 20
-3.363907708062066
 30
0.0
 10
3.558530171712239
 20
-3.280771043565538
 30
0.0
 10
3.604704115125868
 20
-3.17785898844401
 30
0.0
 10
3.606341891818576
 20
-3.382049560546875
 30
0.0
 10
3.663227505154079
 20
-3.462986416286892
 30
0.0
 10
3.752991570366753
 20
-3.464543660481771
 30
0.0
 10
3.888178507486979
 20
-3.466887580023871
 30
0.0
 10
4.00309583875868
 20
-3.185184902615017
 30
0.0
 10
4.047695583767361
 20
-3.060022989908854
 30
0.0
 10
4.055191040039062
 20
-3.16223398844401
 30
0.0
 10
4.043736775716146
 20
-3.287971496582031
 30
0.0
 10
4.042061699761285
 20
-3.384717305501302
 30
0.0
 10
4.041130913628472
 20
-3.437726338704427
 30
0.0
 10
4.038881089952257
 20
-3.490718417697483
 30
0.0
 10
4.035310533311632
 20
-3.543685065375434
 30
0.0
 10
3.792345682779948
 20
-3.718430413140191
 30
0.0
 10
3.55361090766059
 20
-3.877347310384114
 30
0.0
 10
3.550117492675781
 20
-4.078791300455729
 30
0.0
 10
3.546986897786458
 20
-4.259026421440972
 30
0.0
 10
3.634824964735243
 20
-4.391794840494791
 30
0.0
 10
3.787236531575521
 20
-4.394433763292101
 30
0.0
 10
4.057593451605903
 20
-4.399129231770833
 30
0.0
 10
4.213253445095486
 20
-4.061127556694879
 30
0.0
 10
4.223219129774305
 20
-3.487283494737413
 30
0.0
 10
4.223473442925347
 20
-3.472707960340712
 30
0.0
 10
4.223743862575954
 20
-3.456803215874566
 30
0.0
 10
4.223997328016493
 20
-3.442226833767361
 30
0.0
 10
4.356969197591146
 20
-3.335668775770399
 30
0.0
 10
4.442738003200954
 20
-3.220180935329861
 30
0.0
 10
4.479860093858506
 20
-3.058099534776475
 30
0.0
 10
4.490723503960504
 20
-3.434051513671875
 30
0.0
 10
4.567836337619357
 20
-3.84133063422309
 30
0.0
 10
4.809888203938802
 20
-3.845530192057292
 30
0.0
 10
4.902878655327691
 20
-3.847143385145399
 30
0.0
 10
4.998316446940104
 20
-3.612531026204427
 30
0.0
 10
5.07122802734375
 20
-3.375244988335503
 30
0.0
 10
5.113928053114149
 20
-3.463772243923611
 30
0.0
 10
5.192578633626302
 20
-3.520608690049913
 30
0.0
 10
5.298389010959201
 20
-3.522442287868923
 30
0.0
 10
5.534281412760416
 20
-3.526536729600694
 30
0.0
 10
5.682124667697482
 20
-3.104884677463108
 30
0.0
 10
5.710261874728732
 20
-3.01125250922309
 30
0.0
 10
5.7158448961046
 20
-2.995441012912326
 30
0.0
 10
5.686827765570746
 20
-2.986980862087674
 30
0.0
 10
5.679823133680555
 20
-3.008071051703559
 30
0.0
  0
SPLINE
  5
42
330
1F
100
AcDbEntity
  8
Layer 1
370
     0
100
AcDbSpline
210
0.0
220
0.0
230
1.0
 70
    11
 71
     3
 72
    14
 73
    10
 74
     0
 42
0.0000000001
 43
0.0000000001
 12
1.0
 22
0.0
 32
0.0
 13
1.0
 23
0.0
 33
0.0
 40
0.0
 40
0.0
 40
0.0
 40
0.0
 40
1.0
 40
1.0
 40
1.0
 40
2.0
 40
2.0
 40
2.0
 40
3.0
 40
3.0
 40
3.0
 40
3.0
 10
5.030078464084201
 20
-1.928451538085938
 30
0.0
 10
5.06852043999566
 20
-1.929120381673177
 30
0.0
 10
5.096894158257379
 20
-1.974683973524305
 30
0.0
 10
5.096471150716146
 20
-1.998541090223524
 30
0.0
 10
5.093019273546006
 20
-2.197328355577257
 30
0.0
 10
4.826587253146701
 20
-2.501584370930989
 30
0.0
 10
4.702363755967881
 20
-2.632000393337674
 30
0.0
 10
4.730687459309896
 20
-2.29842291937934
 30
0.0
 10
4.863099839952256
 20
-1.925549825032552
 30
0.0
 10
5.030078464084201
 20
-1.928451538085938
 30
0.0
  0
SPLINE
  5
43
330
1F
100
AcDbEntity
  8
Layer 1
370
     0
100
AcDbSpline
210
0.0
220
0.0
230
1.0
 70
    11
 71
     3
 72
    17
 73
    13
 74
     0
 42
0.0000000001
 43
0.0000000001
 12
1.0
 22
0.0
 32
0.0
 13
1.0
 23
0.0
 33
0.0
 40
0.0
 40
0.0
 40
0.0
 40
0.0
 40
1.0
 40
1.0
 40
1.0
 40
2.0
 40
2.0
 40
2.0
 40
3.0
 40
3.0
 40
3.0
 40
4.0
 40
4.0
 40
4.0
 40
4.0
 10
0.8565928141276041
 20
-3.765449523925781
 30
0.0
 10
0.8128636678059895
 20
-3.764696756998698
 30
0.0
 10
0.7965282864040798
 20
-3.712711758083767
 30
0.0
 10
0.7972895304361979
 20
-3.668974134657118
 30
0.0
 10
0.7981440226236979
 20
-3.619941711425781
 30
0.0
 10
0.8549262152777777
 20
-3.555968390570746
 30
0.0
 10
0.9343889024522569
 20
-3.484432644314236
 30
0.0
 10
0.9483896891276041
 20
-3.517815483940972
 30
0.0
 10
0.9557918972439235
 20
-3.549758911132812
 30
0.0
 10
0.9552841186523438
 20
-3.578920152452257
 30
0.0
 10
0.9544041951497395
 20
-3.629280938042534
 30
0.0
 10
0.9122577243381076
 20
-3.766414218478733
 30
0.0
 10
0.8565928141276041
 20
-3.765449523925781
 30
0.0
  0
SPLINE
  5
44
330
1F
100
AcDbEntity
  8
Layer 1
370
     0
100
AcDbSpline
210
0.0
220
0.0
230
1.0
 70
    11
 71
     3
 72
    14
 73
    10
 74
     0
 42
0.0000000001
 43
0.0000000001
 12
1.0
 22
0.0
 32
0.0
 13
1.0
 23
0.0
 33
0.0
 40
0.0
 40
0.0
 40
0.0
 40
0.0
 40
1.0
 40
1.0
 40
1.0
 40
2.0
 40
2.0
 40
2.0
 40
3.0
 40
3.0
 40
3.0
 40
3.0
 10
2.954464382595486
 20
-3.400224473741319
 30
0.0
 10
2.884223090277778
 20
-3.399006313747829
 30
0.0
 10
2.921276516384549
 20
-2.868053860134549
 30
0.0
 10
3.088255988226996
 20
-2.870955573187934
 30
0.0
 10
3.1439208984375
 20
-2.871919420030382
 30
0.0
 10
3.175154791937934
 20
-2.90559811062283
 30
0.0
 10
3.19281005859375
 20
-2.957608540852864
 30
0.0
 10
3.146890428331163
 20
-3.082754347059462
 30
0.0
 10
3.020721435546875
 20
-3.401374816894531
 30
0.0
 10
2.954464382595486
 20
-3.400224473741319
 30
0.0
  0
SPLINE
  5
45
330
1F
100
AcDbEntity
  8
Layer 1
370
     0
100
AcDbSpline
210
0.0
220
0.0
230
1.0
 70
    11
 71
     3
 72
    14
 73
    10
 74
     0
 42
0.0000000001
 43
0.0000000001
 12
1.0
 22
0.0
 32
0.0
 13
1.0
 23
0.0
 33
0.0
 40
0.0
 40
0.0
 40
0.0
 40
0.0
 40
1.0
 40
1.0
 40
1.0
 40
2.0
 40
2.0
 40
2.0
 40
3.0
 40
3.0
 40
3.0
 40
3.0
 10
2.893672519259983
 20
-4.305936177571614
 30
0.0
 10
2.807526482476128
 20
-4.304439120822482
 30
0.0
 10
2.757909986707899
 20
-4.18426767985026
 30
0.0
 10
2.759610493977864
 20
-4.086193508572048
 30
0.0
 10
2.762740241156684
 20
-3.905958387586805
 30
0.0
 10
2.970876057942708
 20
-3.753140767415364
 30
0.0
 10
3.196464538574219
 20
-3.587370978461371
 30
0.0
 10
3.16758304172092
 20
-3.952757941351996
 30
0.0
 10
3.076555887858073
 20
-4.309108310275607
 30
0.0
 10
2.893672519259983
 20
-4.305936177571614
 30
0.0
  0
SPLINE
  5
46
330
1F
100
AcDbEntity
  8
Layer 1
370
     0
100
AcDbSpline
210
0.0
220
0.0
230
1.0
 70
    11
 71
     3
 72
    14
 73
    10
 74
     0
 42
0.0000000001
 43
0.0000000001
 12
1.0
 22
0.0
 32
0.0
 13
1.0
 23
0.0
 33
0.0
 40
0.0
 40
0.0
 40
0.0
 40
0.0
 40
1.0
 40
1.0
 40
1.0
 40
2.0
 40
2.0
 40
2.0
 40
3.0
 40
3.0
 40
3.0
 40
3.0
 10
3.789909362792969
 20
-3.400224473741319
 30
0.0
 10
3.71966807047526
 20
-3.399006313747829
 30
0.0
 10
3.7567138671875
 20
-2.868053860134549
 30
0.0
 10
3.923709445529514
 20
-2.870955573187934
 30
0.0
 10
3.979374355740017
 20
-2.871919420030382
 30
0.0
 10
4.010591295030382
 20
-2.90559811062283
 30
0.0
 10
4.028255038791232
 20
-2.957608540852864
 30
0.0
 10
3.982335408528646
 20
-3.082754347059462
 30
0.0
 10
3.856166415744358
 20
-3.401374816894531
 30
0.0
 10
3.789909362792969
 20
-3.400224473741319
 30
0.0
  0
SPLINE
  5
47
330
1F
100
AcDbEntity
  8
Layer 1
370
     0
100
AcDbSpline
210
0.0
220
0.0
230
1.0
 70
    11
 71
     3
 72
    14
 73
    10
 74
     0
 42
0.0000000001
 43
0.0000000001
 12
1.0
 22
0.0
 32
0.0
 13
1.0
 23
0.0
 33
0.0
 40
0.0
 40
0.0
 40
0.0
 40
0.0
 40
1.0
 40
1.0
 40
1.0
 40
2.0
 40
2.0
 40
2.0
 40
3.0
 40
3.0
 40
3.0
 40
3.0
 10
3.729117499457465
 20
-4.305936177571614
 30
0.0
 10
3.642971462673611
 20
-4.304439120822482
 30
0.0
 10
3.593354966905382
 20
-4.18426767985026
 30
0.0
 10
3.595055474175347
 20
-4.086193508572048
 30
0.0
 10
3.59818606906467
 20
-3.905958387586805
 30
0.0
 10
3.806321885850694
 20
-3.753140767415364
 30
0.0
 10
4.031910366482204
 20
-3.587370978461371
 30
0.0
 10
4.003028021918403
 20
-3.952757941351996
 30
0.0
 10
3.912000868055555
 20
-4.309108310275607
 30
0.0
 10
3.729117499457465
 20
-4.305936177571614
 30
0.0
  0
SPLINE
  5
48
330
1F
100
AcDbEntity
  8
Layer 1
370
     0
100
AcDbSpline
210
0.0
220
0.0
230
1.0
 70
    11
 71
     3
 72
    14
 73
    10
 74
     0
 42
0.0000000001
 43
0.0000000001
 12
1.0
 22
0.0
 32
0.0
 13
1.0
 23
0.0
 33
0.0
 40
0.0
 40
0.0
 40
0.0
 40
0.0
 40
1.0
 40
1.0
 40
1.0
 40
2.0
 40
2.0
 40
2.0
 40
3.0
 40
3.0
 40
3.0
 40
3.0
 10
5.346728006998697
 20
-2.951915317111545
 30
0.0
 10
5.382513258192274
 20
-2.952541775173611
 30
0.0
 10
5.396539476182725
 20
-2.984595404730903
 30
0.0
 10
5.39591301812066
 20
-3.020380655924479
 30
0.0
 10
5.394170973036024
 20
-3.121102227105034
 30
0.0
 10
5.193809509277344
 20
-3.207772996690538
 30
0.0
 10
5.193809509277344
 20
-3.207772996690538
 30
0.0
 10
5.193809509277344
 20
-3.207772996690538
 30
0.0
 10
5.173116895887587
 20
-2.948903401692708
 30
0.0
 10
5.346728006998697
 20
-2.951915317111545
 30
0.0
  0
HATCH
  5
49
330
1F
100
AcDbEntity
  8
Layer 1
 62
   250
420
  1250067
100
AcDbHatch
 10
0.0
 20
0.0
 30
0.0
210
0.0
220
0.0
230
1.0
  2
SOLID
 70
     1
 71
     0
 91
        8
 92
        1
 93
        1
 72
     4
 94
        3
 73
     0
 74
     1
 95
      260
 96
      256
 40
0.0
 40
0.0
 40
0.0
 40
0.0
 40
1.0
 40
1.0
 40
1.0
 40
2.0
 40
2.0
 40
2.0
 40
3.0
 40
3.0
 40
3.0
 40
4.0
 40
4.0
 40
4.0
 40
5.0
 40
5.0
 40
5.0
 40
6.0
 40
6.0
 40
6.0
 40
7.0
 40
7.0
 40
7.0
 40
8.0
 40
8.0
 40
8.0
 40
9.0
 40
9.0
 40
9.0
 40
10.0
 40
10.0
 40
10.0
 40
11.0
 40
11.0
 40
11.0
 40
12.0
 40
12.0
 40
12.0
 40
13.0
 40
13.0
 40
13.0
 40
14.0
 40
14.0
 40
14.0
 40
15.0
 40
15.0
 40
15.0
 40
16.0
 40
16.0
 40
16.0
 40
17.0
 40
17.0
 40
17.0
 40
18.0
 40
18.0
 40
18.0
 40
19.0
 40
19.0
 40
19.0
 40
20.0
 40
20.0
 40
20.0
 40
21.0
 40
21.0
 40
21.0
 40
22.0
 40
22.0
 40
22.0
 40
23.0
 40
23.0
 40
23.0
 40
24.0
 40
24.0
 40
24.0
 40
25.0
 40
25.0
 40
25.0
 40
26.0
 40
26.0
 40
26.0
 40
27.0
 40
27.0
 40
27.0
 40
28.0
 40
28.0
 40
28.0
 40
29.0
 40
29.0
 40
29.0
 40
30.0
 40
30.0
 40
30.0
 40
31.0
 40
31.0
 40
31.0
 40
32.0
 40
32.0
 40
32.0
 40
33.0
 40
33.0
 40
33.0
 40
34.0
 40
34.0
 40
34.0
 40
35.0
 40
35.0
 40
35.0
 40
36.0
 40
36.0
 40
36.0
 40
37.0
 40
37.0
 40
37.0
 40
38.0
 40
38.0
 40
38.0
 40
39.0
 40
39.0
 40
39.0
 40
40.0
 40
40.0
 40
40.0
 40
41.0
 40
41.0
 40
41.0
 40
42.0
 40
42.0
 40
42.0
 40
43.0
 40
43.0
 40
43.0
 40
44.0
 40
44.0
 40
44.0
 40
45.0
 40
45.0
 40
45.0
 40
46.0
 40
46.0
 40
46.0
 40
47.0
 40
47.0
 40
47.0
 40
48.0
 40
48.0
 40
48.0
 40
49.0
 40
49.0
 40
49.0
 40
50.0
 40
50.0
 40
50.0
 40
51.0
 40
51.0
 40
51.0
 40
52.0
 40
52.0
 40
52.0
 40
53.0
 40
53.0
 40
53.0
 40
54.0
 40
54.0
 40
54.0
 40
55.0
 40
55.0
 40
55.0
 40
56.0
 40
56.0
 40
56.0
 40
57.0
 40
57.0
 40
57.0
 40
58.0
 40
58.0
 40
58.0
 40
59.0
 40
59.0
 40
59.0
 40
60.0
 40
60.0
 40
60.0
 40
61.0
 40
61.0
 40
61.0
 40
62.0
 40
62.0
 40
62.0
 40
63.0
 40
63.0
 40
63.0
 40
64.0
 40
64.0
 40
64.0
 40
65.0
 40
65.0
 40
65.0
 40
66.0
 40
66.0
 40
66.0
 40
67.0
 40
67.0
 40
67.0
 40
68.0
 40
68.0
 40
68.0
 40
69.0
 40
69.0
 40
69.0
 40
70.0
 40
70.0
 40
70.0
 40
71.0
 40
71.0
 40
71.0
 40
72.0
 40
72.0
 40
72.0
 40
73.0
 40
73.0
 40
73.0
 40
74.0
 40
74.0
 40
74.0
 40
75.0
 40
75.0
 40
75.0
 40
76.0
 40
76.0
 40
76.0
 40
77.0
 40
77.0
 40
77.0
 40
78.0
 40
78.0
 40
78.0
 40
79.0
 40
79.0
 40
79.0
 40
80.0
 40
80.0
 40
80.0
 40
81.0
 40
81.0
 40
81.0
 40
82.0
 40
82.0
 40
82.0
 40
83.0
 40
83.0
 40
83.0
 40
84.0
 40
84.0
 40
84.0
 40
85.0
 40
85.0
 40
85.0
 40
85.0
 10
5.679823133680555
 20
-3.008071051703559
 10
5.653277079264322
 20
-3.087153116861979
 10
5.516837226019965
 20
-3.462606641981337
 10
5.351178487141927
 20
-3.459730360243055
 10
5.233232286241319
 20
-3.45768313937717
 10
5.198411729600694
 20
-3.248946295844184
 10
5.198411729600694
 20
-3.248946295844184
 10
5.198411729600694
 20
-3.248946295844184
 10
5.441562228732638
 20
-3.14048343234592
 10
5.443812900119357
 20
-3.010609096950955
 10
5.445031060112847
 20
-2.940367804633246
 10
5.409211900499131
 20
-2.865507337782118
 10
5.331026713053385
 20
-2.864153544108073
 10
5.19583977593316
 20
-2.861801995171441
 10
5.038251241048177
 20
-3.004890441894531
 10
5.034968905978732
 20
-3.194406297471788
 10
5.034217834472656
 20
-3.237751430935329
 10
5.039296468098958
 20
-3.278438991970486
 10
5.049320644802517
 20
-3.31561279296875
 10
4.985059950086805
 20
-3.5276124742296
 10
4.905185275607638
 20
-3.738477918836805
 10
4.840935601128472
 20
-3.737363179524739
 10
4.772021823459201
 20
-3.736170450846354
 10
4.691721598307291
 20
-3.091823154025608
 10
4.697897169325087
 20
-2.736647711859809
 10
4.698117574055989
 20
-2.723399692111545
 10
4.698320176866319
 20
-2.711471557617188
 10
4.698557535807291
 20
-2.698215060763889
 10
4.830783420138888
 20
-2.565294901529948
 10
5.141578674316406
 20
-2.226007249620225
 10
5.146062215169271
 20
-1.967578464084201
 10
5.148126390245225
 20
-1.848303900824653
 10
5.107096354166666
 20
-1.768054538302951
 10
5.02891116672092
 20
-1.766700744628906
 10
4.737353854709201
 20
-1.761633131239149
 10
4.487637837727864
 20
-2.400253295898438
 10
4.478992038302951
 20
-2.8985595703125
 10
4.478431701660156
 20
-2.930853949652778
 10
4.478353712293837
 20
-2.963966369628906
 10
4.478713141547309
 20
-2.997472974989149
 10
4.47043694390191
 20
-2.991569519042969
 10
4.458875868055555
 20
-2.994933234320746
 10
4.455474005805121
 20
-3.014077928331163
 10
4.426135592990451
 20
-3.176623874240451
 10
4.35243394639757
 20
-3.298630608452691
 10
4.22337171766493
 20
-3.40244886610243
 10
4.218786451551649
 20
-2.902586195203993
 10
4.088049146864149
 20
-2.796915690104167
 10
3.858772277832031
 20
-2.792939080132378
 10
3.762415568033854
 20
-2.791264851888021
 10
3.678124321831597
 20
-2.881837632921007
 10
3.635074191623264
 20
-2.994891696506076
 10
3.628676520453559
 20
-2.995184156629774
 10
3.622381422254774
 20
-3.000805324978299
 10
3.620020548502604
 20
-3.014077928331163
 10
3.590690612792969
 20
-3.176623874240451
 10
3.516988966200087
 20
-3.298630608452691
 10
3.387918260362413
 20
-3.40244886610243
 10
3.383332994249132
 20
-2.902586195203993
 10
3.252604166666667
 20
-2.796915690104167
 10
3.023327297634549
 20
-2.792939080132378
 10
2.917939080132378
 20
-2.791108873155382
 10
2.826980590820312
 20
-2.899612426757812
 10
2.788644578721788
 20
-3.027210659450955
 10
2.786220974392361
 20
-3.029880947536892
 10
2.784065246582031
 20
-3.033175998263889
 10
2.782798767089844
 20
-3.037891811794705
 10
2.758611891004774
 20
-3.132921006944444
 10
2.660673353407118
 20
-3.581949022081163
 10
2.552007887098524
 20
-3.580070495605469
 10
2.467190212673611
 20
-3.578598870171441
 10
2.563521491156684
 20
-2.992996215820312
 10
2.564460754394531
 20
-2.938658820258246
 10
2.565424601236979
 20
-2.882993910047743
 10
2.493271721733941
 20
-2.839324103461371
 10
2.448214213053385
 20
-2.838537428114149
 10
2.401830037434896
 20
-2.837733798556858
 10
2.426642523871528
 20
-2.859374152289496
 10
2.425999111599392
 20
-2.89648691813151
 10
2.425626966688368
 20
-2.917687310112847
 10
2.313958062065972
 20
-3.394319322374132
 10
2.238411797417534
 20
-3.39300791422526
 10
2.182755364312066
 20
-3.392043219672309
 10
2.256930881076389
 20
-3.089750501844618
 10
2.258292304144965
 20
-3.011556837293837
 10
2.259189181857639
 20
-2.959867689344618
 10
2.178102281358507
 20
-2.896157158745659
 10
2.12906985812717
 20
-2.895302666558159
 10
2.078708224826389
 20
-2.89443122016059
 10
2.086474948459201
 20
-2.905175103081597
 10
2.086263020833333
 20
-2.917103237575955
 10
2.085899353027344
 20
-2.938303629557292
 10
2.066864861382379
 20
-3.118268330891927
 10
2.065232170952691
 20
-3.212358262803819
 10
2.06473626030816
 20
-3.240959167480469
 10
2.067156473795573
 20
-3.274257236056858
 10
2.073551601833767
 20
-3.306813557942708
 10
2.00523206922743
 20
-3.520991855197483
 10
1.914324442545573
 20
-3.765981886121962
 10
1.865759107801649
 20
-3.76513671875
 10
1.771669175889757
 20
-3.763504028320312
 10
1.910613165961371
 20
-3.16670905219184
 10
1.914132012261285
 20
-2.963945176866319
 10
1.916153801812066
 20
-2.847318861219618
 10
1.901162889268663
 20
-2.718467712402344
 10
1.765984429253472
 20
-2.716124640570746
 10
1.658629523383246
 20
-2.714263068305121
 10
1.555962456597222
 20
-2.977616204155816
 10
1.555962456597222
 20
-2.977616204155816
 10
1.555962456597222
 20
-2.977616204155816
 10
1.57013193766276
 20
-2.772382100423177
 10
1.384592692057292
 20
-2.769159105088975
 10
1.342183430989583
 20
-2.768422444661458
 10
1.323487175835503
 20
-2.776053534613715
 10
1.322937859429253
 20
-2.807862175835503
 10
1.3223876953125
 20
-2.839662339952257
 10
1.351700676812066
 20
-2.830897861056858
 10
1.350051032172309
 20
-2.926316155327691
 10
1.349686516655816
 20
-2.947316487630208
 10
1.347969902886285
 20
-2.98333740234375
 10
1.346729702419705
 20
-3.026741875542534
 10
1.30456797281901
 20
-3.14467536078559
 10
1.193091498480903
 20
-3.232569376627604
 10
1.027920193142361
 20
-3.365420871310764
 10
0.9435840182834201
 20
-3.183662414550781
 10
0.7820960150824652
 20
-3.016480339898003
 10
0.7838719685872395
 20
-2.914430406358507
 10
0.7848112318250867
 20
-2.860093010796441
 10
0.873960706922743
 20
-2.764869689941406
 10
0.9693781534830729
 20
-2.766527811686198
 10
1.032995435926649
 20
-2.767627292209201
 10
1.043883429633246
 20
-2.827472262912326
 10
1.070396423339844
 20
-2.827929178873698
 10
1.095572577582465
 20
-2.828369140625
 10
1.10915035671658
 20
-2.810045030381944
 10
1.109488593207465
 20
-2.790164523654514
 10
1.110208299424913
 20
-2.749083624945746
 10
1.028182135687934
 20
-2.662819756401909
 10
0.8969794379340277
 20
-2.660535176595052
 10
0.7644568549262153
 20
-2.658242967393663
 10
0.6022830539279513
 20
-2.760148790147569
 10
0.6001849704318576
 20
-2.880751715766059
 10
0.5971484714084201
 20
-3.055691189236111
 10
0.8306460910373263
 20
-3.274503919813368
 10
0.9203118218315972
 20
-3.455026414659288
 10
0.8207227918836805
 20
-3.540791829427083
 10
0.7464124891493055
 20
-3.621693081325954
 10
0.7452621459960938
 20
-3.687957763671875
 10
0.7433751424153645
 20
-3.796632554796007
 10
0.7925855848524305
 20
-3.86376953125
 10
0.870770772298177
 20
-3.865122477213542
 10
0.9635408189561632
 20
-3.866729736328125
 10
1.074744330512153
 20
-3.722837660047743
 10
1.077460394965278
 20
-3.566458808051215
 10
1.07844967312283
 20
-3.509474012586805
 10
1.063560485839844
 20
-3.450881110297309
 10
1.04066891140408
 20
-3.394810146755642
 10
1.175538804796007
 20
-3.282925075954861
 10
1.28576405843099
 20
-3.19401380750868
 10
1.345457288953993
 20
-3.098845587836371
 10
1.344662136501736
 20
-3.247264438205295
 10
1.356854756673177
 20
-3.427538553873698
 10
1.432796054416233
 20
-3.428852505154079
 10
1.500389946831597
 20
-3.430028279622396
 10
1.524745517306858
 20
-3.401290045844184
 10
1.525227864583333
 20
-3.37345716688368
 10
1.528637356228298
 20
-3.177317301432292
 10
1.655203925238715
 20
-2.759269714355469
 10
1.738693237304688
 20
-2.760724385579427
 10
1.838087293836805
 20
-2.762450324164496
 10
1.566536797417535
 20
-3.819600423177083
 10
1.866054958767361
 20
-3.824795193142361
 10
1.927995469835069
 20
-3.82586924235026
 10
2.021143595377604
 20
-3.590468512641059
 10
2.092419942220052
 20
-3.370040045844184
 10
2.112403021918403
 20
-3.416940477159288
 10
2.144879659016927
 20
-3.452366299099392
 10
2.1949462890625
 20
-3.453233506944444
 10
2.334100511338975
 20
-3.455652872721354
 10
2.393631829155816
 20
-3.157081604003906
 10
2.393631829155816
 20
-3.157081604003906
 10
2.393631829155816
 20
-3.157081604003906
 10
2.343152364095052
 20
-3.621515062120225
 10
2.527364095052083
 20
-3.624712626139323
 10
2.636975606282552
 20
-3.626613193088108
 10
2.720951504177517
 20
-3.399492051866319
 10
2.770547654893663
 20
-3.223548041449653
 10
2.779886881510417
 20
-3.394332038031684
 10
2.834775288899739
 20
-3.463107638888889
 10
2.917554219563802
 20
-3.464543660481771
 10
3.052733527289496
 20
-3.466887580023871
 10
3.167650858561198
 20
-3.185184902615017
 10
3.212242126464844
 20
-3.060022989908854
 10
3.219746059841579
 20
-3.16223398844401
 10
3.208291795518663
 20
-3.287971496582031
 10
3.206608242458767
 20
-3.384717305501302
 10
3.205685933430989
 20
-3.437726338704427
 10
3.203444586859809
 20
-3.490718417697483
 10
3.199874030219184
 20
-3.543685065375434
 10
2.95689222547743
 20
-3.718430413140191
 10
2.718165927463108
 20
-3.877347310384114
 10
2.714672512478299
 20
-4.078791300455729
 10
2.711541917588975
 20
-4.259026421440972
 10
2.79937998453776
 20
-4.391794840494791
 10
2.951791551378038
 20
-4.394433763292101
 10
3.22214847140842
 20
-4.399129231770833
 10
3.377816942003038
 20
-4.061127556694879
 10
3.387774149576823
 20
-3.487283494737413
 10
3.388027615017361
 20
-3.472707960340712
 10
3.388298882378472
 20
-3.456803215874566
 10
3.38855234781901
 20
-3.442226833767361
 10
3.486292521158854
 20
-3.363907708062066
 10
3.558530171712239
 20
-3.280771043565538
 10
3.604704115125868
 20
-3.17785898844401
 10
3.606341891818576
 20
-3.382049560546875
 10
3.663227505154079
 20
-3.462986416286892
 10
3.752991570366753
 20
-3.464543660481771
 10
3.888178507486979
 20
-3.466887580023871
 10
4.00309583875868
 20
-3.185184902615017
 10
4.047695583767361
 20
-3.060022989908854
 10
4.055191040039062
 20
-3.16223398844401
 10
4.043736775716146
 20
-3.287971496582031
 10
4.042061699761285
 20
-3.384717305501302
 10
4.041130913628472
 20
-3.437726338704427
 10
4.038881089952257
 20
-3.490718417697483
 10
4.035310533311632
 20
-3.543685065375434
 10
3.792345682779948
 20
-3.718430413140191
 10
3.55361090766059
 20
-3.877347310384114
 10
3.550117492675781
 20
-4.078791300455729
 10
3.546986897786458
 20
-4.259026421440972
 10
3.634824964735243
 20
-4.391794840494791
 10
3.787236531575521
 20
-4.394433763292101
 10
4.057593451605903
 20
-4.399129231770833
 10
4.213253445095486
 20
-4.061127556694879
 10
4.223219129774305
 20
-3.487283494737413
 10
4.223473442925347
 20
-3.472707960340712
 10
4.223743862575954
 20
-3.456803215874566
 10
4.223997328016493
 20
-3.442226833767361
 10
4.356969197591146
 20
-3.335668775770399
 10
4.442738003200954
 20
-3.220180935329861
 10
4.479860093858506
 20
-3.058099534776475
 10
4.490723503960504
 20
-3.434051513671875
 10
4.567836337619357
 20
-3.84133063422309
 10
4.809888203938802
 20
-3.845530192057292
 10
4.902878655327691
 20
-3.847143385145399
 10
4.998316446940104
 20
-3.612531026204427
 10
5.07122802734375
 20
-3.375244988335503
 10
5.113928053114149
 20
-3.463772243923611
 10
5.192578633626302
 20
-3.520608690049913
 10
5.298389010959201
 20
-3.522442287868923
 10
5.534281412760416
 20
-3.526536729600694
 10
5.682124667697482
 20
-3.104884677463108
 10
5.710261874728732
 20
-3.01125250922309
 10
5.7158448961046
 20
-2.995441012912326
 10
5.686827765570746
 20
-2.986980862087674
 10
5.679823133680555
 20
-3.008071051703559
 97
        0
 97
        0
 92
        1
 93
        1
 72
     4
 94
        3
 73
     0
 74
     1
 95
       14
 96
       10
 40
0.0
 40
0.0
 40
0.0
 40
0.0
 40
1.0
 40
1.0
 40
1.0
 40
2.0
 40
2.0
 40
2.0
 40
3.0
 40
3.0
 40
3.0
 40
3.0
 10
5.030078464084201
 20
-1.928451538085938
 10
5.06852043999566
 20
-1.929120381673177
 10
5.096894158257379
 20
-1.974683973524305
 10
5.096471150716146
 20
-1.998541090223524
 10
5.093019273546006
 20
-2.197328355577257
 10
4.826587253146701
 20
-2.501584370930989
 10
4.702363755967881
 20
-2.632000393337674
 10
4.730687459309896
 20
-2.29842291937934
 10
4.863099839952256
 20
-1.925549825032552
 10
5.030078464084201
 20
-1.928451538085938
 97
        0
 97
        0
 92
        1
 93
        1
 72
     4
 94
        3
 73
     0
 74
     1
 95
       17
 96
       13
 40
0.0
 40
0.0
 40
0.0
 40
0.0
 40
1.0
 40
1.0
 40
1.0
 40
2.0
 40
2.0
 40
2.0
 40
3.0
 40
3.0
 40
3.0
 40
4.0
 40
4.0
 40
4.0
 40
4.0
 10
0.8565928141276041
 20
-3.765449523925781
 10
0.8128636678059895
 20
-3.764696756998698
 10
0.7965282864040798
 20
-3.712711758083767
 10
0.7972895304361979
 20
-3.668974134657118
 10
0.7981440226236979
 20
-3.619941711425781
 10
0.8549262152777777
 20
-3.555968390570746
 10
0.9343889024522569
 20
-3.484432644314236
 10
0.9483896891276041
 20
-3.517815483940972
 10
0.9557918972439235
 20
-3.549758911132812
 10
0.9552841186523438
 20
-3.578920152452257
 10
0.9544041951497395
 20
-3.629280938042534
 10
0.9122577243381076
 20
-3.766414218478733
 10
0.8565928141276041
 20
-3.765449523925781
 97
        0
 97
        0
 92
        1
 93
        1
 72
     4
 94
        3
 73
     0
 74
     1
 95
       14
 96
       10
 40
0.0
 40
0.0
 40
0.0
 40
0.0
 40
1.0
 40
1.0
 40
1.0
 40
2.0
 40
2.0
 40
2.0
 40
3.0
 40
3.0
 40
3.0
 40
3.0
 10
2.954464382595486
 20
-3.400224473741319
 10
2.884223090277778
 20
-3.399006313747829
 10
2.921276516384549
 20
-2.868053860134549
 10
3.088255988226996
 20
-2.870955573187934
 10
3.1439208984375
 20
-2.871919420030382
 10
3.175154791937934
 20
-2.90559811062283
 10
3.19281005859375
 20
-2.957608540852864
 10
3.146890428331163
 20
-3.082754347059462
 10
3.020721435546875
 20
-3.401374816894531
 10
2.954464382595486
 20
-3.400224473741319
 97
        0
 97
        0
 92
        1
 93
        1
 72
     4
 94
        3
 73
     0
 74
     1
 95
       14
 96
       10
 40
0.0
 40
0.0
 40
0.0
 40
0.0
 40
1.0
 40
1.0
 40
1.0
 40
2.0
 40
2.0
 40
2.0
 40
3.0
 40
3.0
 40
3.0
 40
3.0
 10
2.893672519259983
 20
-4.305936177571614
 10
2.807526482476128
 20
-4.304439120822482
 10
2.757909986707899
 20
-4.18426767985026
 10
2.759610493977864
 20
-4.086193508572048
 10
2.762740241156684
 20
-3.905958387586805
 10
2.970876057942708
 20
-3.753140767415364
 10
3.196464538574219
 20
-3.587370978461371
 10
3.16758304172092
 20
-3.952757941351996
 10
3.076555887858073
 20
-4.309108310275607
 10
2.893672519259983
 20
-4.305936177571614
 97
        0
 97
        0
 92
        1
 93
        1
 72
     4
 94
        3
 73
     0
 74
     1
 95
       14
 96
       10
 40
0.0
 40
0.0
 40
0.0
 40
0.0
 40
1.0
 40
1.0
 40
1.0
 40
2.0
 40
2.0
 40
2.0
 40
3.0
 40
3.0
 40
3.0
 40
3.0
 10
3.789909362792969
 20
-3.400224473741319
 10
3.71966807047526
 20
-3.399006313747829
 10
3.7567138671875
 20
-2.868053860134549
 10
3.923709445529514
 20
-2.870955573187934
 10
3.979374355740017
 20
-2.871919420030382
 10
4.010591295030382
 20
-2.90559811062283
 10
4.028255038791232
 20
-2.957608540852864
 10
3.982335408528646
 20
-3.082754347059462
 10
3.856166415744358
 20
-3.401374816894531
 10
3.789909362792969
 20
-3.400224473741319
 97
        0
 97
        0
 92
        1
 93
        1
 72
     4
 94
        3
 73
     0
 74
     1
 95
       14
 96
       10
 40
0.0
 40
0.0
 40
0.0
 40
0.0
 40
1.0
 40
1.0
 40
1.0
 40
2.0
 40
2.0
 40
2.0
 40
3.0
 40
3.0
 40
3.0
 40
3.0
 10
3.729117499457465
 20
-4.305936177571614
 10
3.642971462673611
 20
-4.304439120822482
 10
3.593354966905382
 20
-4.18426767985026
 10
3.595055474175347
 20
-4.086193508572048
 10
3.59818606906467
 20
-3.905958387586805
 10
3.806321885850694
 20
-3.753140767415364
 10
4.031910366482204
 20
-3.587370978461371
 10
4.003028021918403
 20
-3.952757941351996
 10
3.912000868055555
 20
-4.309108310275607
 10
3.729117499457465
 20
-4.305936177571614
 97
        0
 97
        0
 92
        1
 93
        1
 72
     4
 94
        3
 73
     0
 74
     1
 95
       14
 96
       10
 40
0.0
 40
0.0
 40
0.0
 40
0.0
 40
1.0
 40
1.0
 40
1.0
 40
2.0
 40
2.0
 40
2.0
 40
3.0
 40
3.0
 40
3.0
 40
3.0
 10
5.346728006998697
 20
-2.951915317111545
 10
5.382513258192274
 20
-2.952541775173611
 10
5.396539476182725
 20
-2.984595404730903
 10
5.39591301812066
 20
-3.020380655924479
 10
5.394170973036024
 20
-3.121102227105034
 10
5.193809509277344
 20
-3.207772996690538
 10
5.193809509277344
 20
-3.207772996690538
 10
5.193809509277344
 20
-3.207772996690538
 10
5.173116895887587
 20
-2.948903401692708
 10
5.346728006998697
 20
-2.951915317111545
 97
        0
 97
        0
 75
     2
 76
     1
 98
        0
  0
INSERT
  5
4B
330
1F
100
AcDbEntity
  8
Layer 1
100
AcDbBlockReference
  2
block 2
 10
0.0
 20
0.0
 30
0.0
  0
INSERT
  5
52
330
1F
100
AcDbEntity
  8
Layer 1
100
AcDbBlockReference
  2
block 3
 10
0.0
 20
0.0
 30
0.0
  0
INSERT
  5
58
330
1F
100
AcDbEntity
  8
Layer 1
100
AcDbBlockReference
  2
block 4
 10
0.0
 20
0.0
 30
0.0
  0
INSERT
  5
5E
330
1F
100
AcDbEntity
  8
Layer 1
100
AcDbBlockReference
  2
block 5
 10
0.0
 20
0.0
 30
0.0
  0
HATCH
  5
64
330
1F
100
AcDbEntity
  8
Layer 1
 62
    55
420
 11639122
100
AcDbHatch
 10
0.0
 20
0.0
 30
0.0
210
0.0
220
0.0
230
1.0
  2
SOLID
 70
     1
 71
     0
 91
       10
 92
        1
 93
        1
 72
     4
 94
        3
 73
     0
 74
     1
 95
      110
 96
      106
 40
0.0
 40
0.0
 40
0.0
 40
0.0
 40
1.0
 40
1.0
 40
1.0
 40
2.0
 40
2.0
 40
2.0
 40
3.0
 40
3.0
 40
3.0
 40
4.0
 40
4.0
 40
4.0
 40
5.0
 40
5.0
 40
5.0
 40
6.0
 40
6.0
 40
6.0
 40
7.0
 40
7.0
 40
7.0
 40
8.0
 40
8.0
 40
8.0
 40
9.0
 40
9.0
 40
9.0
 40
10.0
 40
10.0
 40
10.0
 40
11.0
 40
11.0
 40
11.0
 40
12.0
 40
12.0
 40
12.0
 40
13.0
 40
13.0
 40
13.0
 40
14.0
 40
14.0
 40
14.0
 40
15.0
 40
15.0
 40
15.0
 40
16.0
 40
16.0
 40
16.0
 40
17.0
 40
17.0
 40
17.0
 40
18.0
 40
18.0
 40
18.0
 40
19.0
 40
19.0
 40
19.0
 40
20.0
 40
20.0
 40
20.0
 40
21.0
 40
21.0
 40
21.0
 40
22.0
 40
22.0
 40
22.0
 40
23.0
 40
23.0
 40
23.0
 40
24.0
 40
24.0
 40
24.0
 40
25.0
 40
25.0
 40
25.0
 40
26.0
 40
26.0
 40
26.0
 40
27.0
 40
27.0
 40
27.0
 40
28.0
 40
28.0
 40
28.0
 40
29.0
 40
29.0
 40
29.0
 40
30.0
 40
30.0
 40
30.0
 40
31.0
 40
31.0
 40
31.0
 40
32.0
 40
32.0
 40
32.0
 40
33.0
 40
33.0
 40
33.0
 40
34.0
 40
34.0
 40
34.0
 40
35.0
 40
35.0
 40
35.0
 40
35.0
 10
4.673228793674045
 20
-4.877266777886285
 10
4.641140407986111
 20
-4.96950446234809
 10
4.489253573947482
 20
-5.395064459906684
 10
4.363355848524305
 20
-5.392873975965712
 10
4.233480665418837
 20
-5.390623304578993
 10
4.327502780490451
 20
-5.014433966742621
 10
4.328120761447482
 20
-4.978657192654079
 10
4.328746371799045
 20
-4.942872789171006
 10
4.299822489420572
 20
-4.852226257324219
 10
4.240189446343316
 20
-4.851186116536458
 10
4.213684929741754
 20
-4.850729200575087
 10
4.190691630045572
 20
-4.876844618055555
 10
4.17277357313368
 20
-4.916300455729166
 10
4.168636745876736
 20
-4.925513373480903
 10
4.164499918619791
 20
-4.934717814127604
 10
4.161666022406684
 20
-4.945275200737847
 10
4.135339525010851
 20
-5.011100769042969
 10
4.067686292860243
 20
-5.166354709201388
 10
4.030573527018229
 20
-5.165711296929254
 10
4.00671641031901
 20
-5.165296766493055
 10
4.003476460774739
 20
-5.122820536295572
 10
4.00412835015191
 20
-5.085716247558594
 10
4.006150139702691
 20
-4.969089931911892
 10
4.125567966037326
 20
-4.733865525987413
 10
4.239538404676649
 20
-4.735844930013021
 10
4.33628421359592
 20
-4.737520005967881
 10
4.36663818359375
 20
-4.821567959255642
 10
4.367627461751302
 20
-4.764583163791232
 10
4.368617587619357
 20
-4.707589043511285
 10
4.318104214138454
 20
-4.639107598198785
 10
4.231966654459635
 20
-4.637610541449653
 10
4.078069898817274
 20
-4.634937710232204
 10
3.967918395996094
 20
-4.738682217068142
 10
3.91052500406901
 20
-4.846349928114149
 10
3.902765909830729
 20
-4.843716939290364
 10
3.892306857638889
 20
-4.846159193250868
 10
3.888448927137587
 20
-4.857801649305555
 10
3.861885070800781
 20
-4.936882866753472
 10
3.725454542371962
 20
-5.312336391872829
 10
3.55979495578342
 20
-5.309460110134548
 10
3.441840277777778
 20
-5.307412889268663
 10
3.407020568847656
 20
-5.098676045735677
 10
3.407020568847656
 20
-5.098676045735677
 10
3.407020568847656
 20
-5.098676045735677
 10
3.650179545084635
 20
-4.990214029947916
 10
3.652430216471354
 20
-4.860338846842447
 10
3.653648376464844
 20
-4.790097554524739
 10
3.617829216851128
 20
-4.715237087673611
 10
3.539635552300347
 20
-4.713883293999566
 10
3.404465569390191
 20
-4.711531745062934
 10
3.246877034505208
 20
-4.854620191786024
 10
3.243585374620225
 20
-5.044136047363281
 10
3.242256164550781
 20
-5.12066904703776
 10
3.258680555555555
 20
-5.189153035481771
 10
3.289865281846788
 20
-5.243683709038629
 10
3.238282945421007
 20
-5.446892632378472
 10
3.178432888454861
 20
-5.652431911892361
 10
3.147821214463975
 20
-5.651903788248697
 10
3.072283426920573
 20
-5.650592380099826
 10
3.343495686848958
 20
-4.765767415364583
 10
3.069162156846788
 20
-4.761004130045572
 10
2.994944254557292
 20
-4.759719000922309
 10
2.889188978407118
 20
-4.818861219618055
 10
2.889188978407118
 20
-4.818861219618055
 10
2.889188978407118
 20
-4.818861219618055
 10
2.963829888237847
 20
-4.490063137478298
 10
2.852507697211371
 20
-4.488134596082899
 10
2.792874654134114
 20
-4.48710208468967
 10
2.749763488769531
 20
-4.603009541829427
 10
2.748265584309896
 20
-4.689155578613281
 10
2.74707285563151
 20
-4.758069356282552
 10
2.761183844672309
 20
-4.861718071831597
 10
2.823465135362413
 20
-4.862800598144531
 10
2.895034790039062
 20
-4.86403571234809
 10
2.95017581515842
 20
-4.818598429361979
 10
2.984631856282552
 20
-4.819199456108941
 10
2.984631856282552
 20
-4.819199456108941
 10
2.936707390679253
 20
-5.28897942437066
 10
2.935514662000868
 20
-5.357892354329427
 10
2.93373786078559
 20
-5.459942287868923
 10
2.927519904242621
 20
-5.742202758789062
 10
3.117035759819878
 20
-5.745485093858506
 10
3.184946695963542
 20
-5.746665954589844
 10
3.260361565483941
 20
-5.51290300157335
 10
3.317853291829427
 20
-5.284033033582899
 10
3.36302015516493
 20
-5.337941487630208
 10
3.427213880750868
 20
-5.370790269639756
 10
3.507006327311198
 20
-5.37217288547092
 10
3.674786885579427
 20
-5.375084771050347
 10
3.797959221733941
 20
-5.162688361273871
 10
3.865263197157118
 20
-5.006058586968316
 10
3.866336398654514
 20
-5.116135491265191
 10
3.944672478569878
 20
-5.213274637858072
 10
4.00189463297526
 20
-5.214262220594618
 10
4.056232028537326
 20
-5.2152099609375
 10
4.10074700249566
 20
-5.170906066894531
 10
4.136168585883246
 20
-5.115841335720486
 10
4.137902153862847
 20
-5.321354336208767
 10
4.207145690917969
 20
-5.456448872884114
 10
4.326420254177517
 20
-5.458521525065104
 10
4.514607747395833
 20
-5.461786905924479
 10
4.674066331651475
 20
-4.982007344563802
 10
4.70634036593967
 20
-4.879162258572048
 10
4.716119554307725
 20
-4.850170559353298
 10
4.681781344943576
 20
-4.842945522732204
 10
4.673228793674045
 20
-4.877266777886285
 97
        0
 97
        0
 92
        1
 93
        1
 72
     4
 94
        3
 73
     0
 74
     1
 95
       14
 96
       10
 40
0.0
 40
0.0
 40
0.0
 40
0.0
 40
1.0
 40
1.0
 40
1.0
 40
2.0
 40
2.0
 40
2.0
 40
3.0
 40
3.0
 40
3.0
 40
3.0
 10
2.855941772460938
 20
-4.824918111165364
 10
2.79872809516059
 20
-4.837176005045572
 10
2.785252041286892
 20
-4.773313734266493
 10
2.786563449435764
 20
-4.69777594672309
 10
2.787662929958767
 20
-4.634158664279513
 10
2.818524678548177
 20
-4.536592271592881
 10
2.845029195149739
 20
-4.537057664659288
 10
2.92189449734158
 20
-4.538385179307725
 10
2.855941772460938
 20
-4.824918111165364
 10
2.855941772460938
 20
-4.824918111165364
 97
        0
 97
        0
 92
        1
 93
        1
 72
     4
 94
        3
 73
     0
 74
     1
 95
       14
 96
       10
 40
0.0
 40
0.0
 40
0.0
 40
0.0
 40
1.0
 40
1.0
 40
1.0
 40
2.0
 40
2.0
 40
2.0
 40
3.0
 40
3.0
 40
3.0
 40
3.0
 10
3.555353800455729
 20
-4.801645067003038
 10
3.591130574544271
 20
-4.802271525065104
 10
3.605156792534722
 20
-4.834325154622396
 10
3.604538811577691
 20
-4.870110405815972
 10
3.602787441677517
 20
-4.970831976996528
 10
3.402435302734375
 20
-5.057502746582031
 10
3.402435302734375
 20
-5.057502746582031
 10
3.402435302734375
 20
-5.057502746582031
 10
3.381742689344618
 20
-4.798633151584201
 10
3.555353800455729
 20
-4.801645067003038
 97
        0
 97
        0
 92
        1
 93
        1
 72
     4
 94
        3
 73
     0
 74
     1
 95
       17
 96
       13
 40
0.0
 40
0.0
 40
0.0
 40
0.0
 40
1.0
 40
1.0
 40
1.0
 40
2.0
 40
2.0
 40
2.0
 40
3.0
 40
3.0
 40
3.0
 40
4.0
 40
4.0
 40
4.0
 40
4.0
 10
1.952738444010417
 20
-3.945313347710503
 10
1.554044087727865
 20
-3.945313347710503
 10
1.230838351779514
 20
-4.268519083658854
 10
1.230838351779514
 20
-4.667213439941406
 10
1.230838351779514
 20
-5.065908643934462
 10
1.554044087727865
 20
-5.389114379882812
 10
1.952738444010417
 20
-5.389114379882812
 10
2.351433648003472
 20
-5.389114379882812
 10
2.674639383951823
 20
-5.065908643934462
 10
2.674639383951823
 20
-4.667213439941406
 10
2.674639383951823
 20
-4.268519083658854
 10
2.351433648003472
 20
-3.945313347710503
 10
1.952738444010417
 20
-3.945313347710503
 97
        0
 97
        0
 92
        1
 93
        1
 72
     4
 94
        3
 73
     0
 74
     1
 95
      197
 96
      193
 40
0.0
 40
0.0
 40
0.0
 40
0.0
 40
1.0
 40
1.0
 40
1.0
 40
2.0
 40
2.0
 40
2.0
 40
3.0
 40
3.0
 40
3.0
 40
4.0
 40
4.0
 40
4.0
 40
5.0
 40
5.0
 40
5.0
 40
6.0
 40
6.0
 40
6.0
 40
7.0
 40
7.0
 40
7.0
 40
8.0
 40
8.0
 40
8.0
 40
9.0
 40
9.0
 40
9.0
 40
10.0
 40
10.0
 40
10.0
 40
11.0
 40
11.0
 40
11.0
 40
12.0
 40
12.0
 40
12.0
 40
13.0
 40
13.0
 40
13.0
 40
14.0
 40
14.0
 40
14.0
 40
15.0
 40
15.0
 40
15.0
 40
16.0
 40
16.0
 40
16.0
 40
17.0
 40
17.0
 40
17.0
 40
18.0
 40
18.0
 40
18.0
 40
19.0
 40
19.0
 40
19.0
 40
20.0
 40
20.0
 40
20.0
 40
21.0
 40
21.0
 40
21.0
 40
22.0
 40
22.0
 40
22.0
 40
23.0
 40
23.0
 40
23.0
 40
24.0
 40
24.0
 40
24.0
 40
25.0
 40
25.0
 40
25.0
 40
26.0
 40
26.0
 40
26.0
 40
27.0
 40
27.0
 40
27.0
 40
28.0
 40
28.0
 40
28.0
 40
29.0
 40
29.0
 40
29.0
 40
30.0
 40
30.0
 40
30.0
 40
31.0
 40
31.0
 40
31.0
 40
32.0
 40
32.0
 40
32.0
 40
33.0
 40
33.0
 40
33.0
 40
34.0
 40
34.0
 40
34.0
 40
35.0
 40
35.0
 40
35.0
 40
36.0
 40
36.0
 40
36.0
 40
37.0
 40
37.0
 40
37.0
 40
38.0
 40
38.0
 40
38.0
 40
39.0
 40
39.0
 40
39.0
 40
40.0
 40
40.0
 40
40.0
 40
41.0
 40
41.0
 40
41.0
 40
42.0
 40
42.0
 40
42.0
 40
43.0
 40
43.0
 40
43.0
 40
44.0
 40
44.0
 40
44.0
 40
45.0
 40
45.0
 40
45.0
 40
46.0
 40
46.0
 40
46.0
 40
47.0
 40
47.0
 40
47.0
 40
48.0
 40
48.0
 40
48.0
 40
49.0
 40
49.0
 40
49.0
 40
50.0
 40
50.0
 40
50.0
 40
51.0
 40
51.0
 40
51.0
 40
52.0
 40
52.0
 40
52.0
 40
53.0
 40
53.0
 40
53.0
 40
54.0
 40
54.0
 40
54.0
 40
55.0
 40
55.0
 40
55.0
 40
56.0
 40
56.0
 40
56.0
 40
57.0
 40
57.0
 40
57.0
 40
58.0
 40
58.0
 40
58.0
 40
59.0
 40
59.0
 40
59.0
 40
60.0
 40
60.0
 40
60.0
 40
61.0
 40
61.0
 40
61.0
 40
62.0
 40
62.0
 40
62.0
 40
63.0
 40
63.0
 40
63.0
 40
64.0
 40
64.0
 40
64.0
 40
64.0
 10
2.528285556369358
 20
-4.600285847981771
 10
2.535391913519965
 20
-4.595658196343316
 10
2.541990492078993
 20
-4.593399047851562
 10
2.548072814941406
 20
-4.593500773111979
 10
2.560991075303819
 20
-4.593729654947916
 10
2.567360772026909
 20
-4.599735683865017
 10
2.567149692111545
 20
-4.611512078179254
 10
2.566954718695746
 20
-4.622543334960938
 10
2.558597140842014
 20
-4.64406500922309
 10
2.542074415418837
 20
-4.676094055175781
 10
2.510197957356771
 20
-4.737892150878906
 10
2.468999226888021
 20
-4.788870917426215
 10
2.418494330512153
 20
-4.829054938422309
 10
2.372997707790799
 20
-4.865525139702691
 10
2.31135982937283
 20
-4.900565253363715
 10
2.233597649468316
 20
-4.93418460422092
 10
2.228251139322917
 20
-4.979342990451388
 10
2.21478271484375
 20
-5.020736694335938
 10
2.193218655056424
 20
-5.0583741929796
 10
2.148914761013455
 20
-5.134774102105035
 10
2.088005065917969
 20
-5.172310723198785
 10
2.010470920138889
 20
-5.170956929524739
 10
1.986910502115885
 20
-5.170542399088541
 10
1.970473395453559
 20
-5.164645724826388
 10
1.961167229546441
 20
-5.153267754448785
 10
1.951861911349826
 20
-5.141888936360677
 10
1.947352939181858
 20
-5.127837287055121
 10
1.947640313042535
 20
-5.111120435926649
 10
1.948401557074653
 20
-5.067789713541666
 10
1.97420416937934
 20
-5.026988559299045
 10
2.025055779351129
 20
-4.988716125488281
 10
2.047000461154514
 20
-4.97312503390842
 10
2.072752210828993
 20
-4.957043117947048
 10
2.102318657769097
 20
-4.940444946289062
 10
2.102276272243924
 20
-4.89900885687934
 10
2.087091233995225
 20
-4.848842196994357
 10
2.056754218207465
 20
-4.789944966634114
 10
2.039169311523438
 20
-4.755816141764322
 10
2.027009752061632
 20
-4.722402784559462
 10
2.019938151041667
 20
-4.689664204915364
 10
2.011338127983941
 20
-4.708706325954861
 10
2.000958760579427
 20
-4.730955335828993
 10
1.988348219129774
 20
-4.757231818305121
 10
1.85056389702691
 20
-5.049101935492621
 10
1.727508544921875
 20
-5.194085862901475
 10
1.619189792209201
 20
-5.192198859320746
 10
1.546207004123264
 20
-5.190922207302517
 10
1.510582817925347
 20
-5.140873379177517
 10
1.512308756510417
 20
-5.042054918077256
 10
1.513281080457899
 20
-4.986567179361979
 10
1.52606455485026
 20
-4.907333374023438
 10
1.550673590766059
 20
-4.804344177246094
 10
1.567508273654514
 20
-4.733163621690538
 10
1.612523396809896
 20
-4.582435607910156
 10
1.685742696126302
 20
-4.352168613009982
 10
1.695005628797743
 20
-4.322678460015191
 10
1.699794345431858
 20
-4.299007839626736
 10
1.700098673502604
 20
-4.281132168240017
 10
1.700597974989149
 20
-4.253011915418837
 10
1.690767923990885
 20
-4.238765292697482
 10
1.670624627007378
 20
-4.238418579101562
 10
1.642876519097222
 20
-4.237936231825087
 10
1.610137091742621
 20
-4.261886596679688
 10
1.572415669759115
 20
-4.310276455349392
 10
1.54014163547092
 20
-4.351153903537326
 10
1.516141255696615
 20
-4.3980712890625
 10
1.500389099121094
 20
-4.451020982530381
 10
1.49109141031901
 20
-4.482035319010416
 10
1.486176384819878
 20
-4.513699849446614
 10
1.485609266493056
 20
-4.545999315049913
 10
1.484788682725694
 20
-4.593137105305989
 10
1.495262145996094
 20
-4.635140313042535
 10
1.517054239908854
 20
-4.672015719943576
 10
1.520006815592448
 20
-4.677015516493055
 10
1.521436903211806
 20
-4.682743496365017
 10
1.521318223741319
 20
-4.689197964138454
 10
1.521056281195746
 20
-4.704408433702256
 10
1.514085557725694
 20
-4.711886935763888
 10
1.500397576226128
 20
-4.711641947428385
 10
1.493933783637153
 20
-4.711531745062934
 10
1.484120686848958
 20
-4.707182990180121
 10
1.470974392361111
 20
-4.698588053385416
 10
1.418735080295139
 20
-4.66345469156901
 10
1.393321567111545
 20
-4.605606926812066
 10
1.394726223415798
 20
-4.525027804904513
 10
1.395293341742621
 20
-4.49271986219618
 10
1.400631374782986
 20
-4.459353976779513
 10
1.410731845431858
 20
-4.424931844075521
 10
1.426475524902344
 20
-4.372743394639757
 10
1.450881958007812
 20
-4.324505276150173
 10
1.483976576063368
 20
-4.280209859212239
 10
1.569614834255642
 20
-4.165368821885851
 10
1.661666022406684
 20
-4.10880618625217
 10
1.76011233859592
 20
-4.110523647732204
 10
1.832706027560764
 20
-4.111792670355903
 10
1.868296305338542
 20
-4.153101603190104
 10
1.866874694824219
 20
-4.234425862630208
 10
1.865343729654948
 20
-4.322230021158854
 10
1.839084201388889
 20
-4.443060980902778
 10
1.788122389051649
 20
-4.59690178765191
 10
1.788122389051649
 20
-4.59690178765191
 10
1.715115017361111
 20
-4.826034545898438
 10
1.715115017361111
 20
-4.826034545898438
 10
1.682925754123264
 20
-4.927365620930989
 10
1.666479322645399
 20
-4.998554653591579
 10
1.665760464138455
 20
-5.039601643880208
 10
1.665278116861979
 20
-5.067341274685329
 10
1.671496073404948
 20
-5.081333584255642
 10
1.684422810872396
 20
-5.081562466091579
 10
1.699996948242188
 20
-5.081832885742188
 10
1.719022962782118
 20
-5.070471869574653
 10
1.741475423177083
 20
-5.047477722167969
 10
1.763919406467014
 20
-5.024492899576822
 10
1.787352667914496
 20
-4.994672139485677
 10
1.811759101019965
 20
-4.9580323961046
 10
1.836157057020399
 20
-4.921385023328993
 10
1.860225253634983
 20
-4.881987677680121
 10
1.883963690863715
 20
-4.839815775553385
 10
1.907701280381944
 20
-4.797652350531684
 10
1.929037306043837
 20
-4.757341172960069
 10
1.947953118218316
 20
-4.718883090549045
 10
1.96687740749783
 20
-4.680433485243055
 10
1.981893751356337
 20
-4.647821214463975
 10
1.993009779188368
 20
-4.621012369791666
 10
1.996580335828993
 20
-4.612332661946614
 10
2.001825120713975
 20
-4.605683220757379
 10
2.008753458658854
 20
-4.601038614908854
 10
2.010527716742621
 20
-4.599851820203993
 10
2.012196858723958
 20
-4.599263509114583
 10
2.013916015625
 20
-4.598387824164496
 10
2.015677558051215
 20
-4.579705980088975
 10
2.019284566243489
 20
-4.561152988009982
 10
2.02486080593533
 20
-4.542733934190538
 10
2.039394802517361
 20
-4.493946499294704
 10
2.061212327745225
 20
-4.452984280056423
 10
2.090305752224392
 20
-4.41983879937066
 10
2.119399176703559
 20
-4.38670179578993
 10
2.151571485731337
 20
-4.362083435058594
 10
2.186832004123264
 20
-4.345959133572048
 10
2.222092522515191
 20
-4.329851786295572
 10
2.256447686089409
 20
-4.322085910373263
 10
2.28989749484592
 20
-4.322669982910156
 10
2.324480692545573
 20
-4.323270161946614
 10
2.351129319932725
 20
-4.332102457682291
 10
2.369842529296875
 20
-4.349157545301649
 10
2.394172668457031
 20
-4.371253967285156
 10
2.405982123480903
 20
-4.402445475260416
 10
2.405280219184028
 20
-4.442731221516927
 10
2.404366387261284
 20
-4.495181613498263
 10
2.383124457465278
 20
-4.546709696451822
 10
2.341561211480034
 20
-4.597307840983072
 10
2.327958001030816
 20
-4.613804287380642
 10
2.31355963812934
 20
-4.621917724609375
 10
2.298365275065104
 20
-4.621646457248263
 10
2.286961873372396
 20
-4.621452331542969
 10
2.281361050075955
 20
-4.615648905436197
 10
2.281556023491753
 20
-4.604244656032986
 10
2.281700134277344
 20
-4.596267700195312
 10
2.284534030490451
 20
-4.586047702365451
 10
2.290074666341146
 20
-4.573603312174479
 10
2.303906758626302
 20
-4.543427361382379
 10
2.311047024197049
 20
-4.515992058648004
 10
2.311478508843316
 20
-4.491281297471788
 10
2.312061733669705
 20
-4.457459343804254
 10
2.299431694878472
 20
-4.440311008029513
 10
2.273595174153646
 20
-4.439862569173177
 10
2.258004082573784
 20
-4.43959214952257
 10
2.241710238986545
 20
-4.447485182020399
 10
2.224706013997396
 20
-4.463533189561631
 10
2.207684834798177
 20
-4.479589674207899
 10
2.194132486979167
 20
-4.504825168185763
 10
2.184032016330295
 20
-4.539239671495225
 10
2.179175482855903
 20
-4.55588870578342
 10
2.176604376898871
 20
-4.572960747612847
 10
2.176290724012587
 20
-4.590438842773438
 10
2.17580074734158
 20
-4.618567572699653
 10
2.189115736219618
 20
-4.672591315375434
 10
2.216238233778212
 20
-4.752527872721354
 10
2.23140631781684
 20
-4.798413594563802
 10
2.239451938205295
 20
-4.83809831407335
 10
2.240390353732639
 20
-4.87156507703993
 10
2.240390353732639
 20
-4.87156507703993
 10
2.273747762044271
 20
-4.855610317654079
 10
2.273747762044271
 20
-4.855610317654079
 10
2.322441948784722
 20
-4.832134670681423
 10
2.362017313639323
 20
-4.808489481608072
 10
2.392472161187066
 20
-4.784683227539062
 10
2.441420661078559
 20
-4.746386210123697
 10
2.481350368923611
 20
-4.691566467285156
 10
2.512253655327691
 20
-4.620251125759548
 10
2.515824211968316
 20
-4.611571417914496
 10
2.52116224500868
 20
-4.60492197672526
 10
2.528285556369358
 20
-4.600285847981771
 97
        0
 97
        0
 92
        1
 93
        1
 72
     4
 94
        3
 73
     0
 74
     1
 95
       32
 96
       28
 40
0.0
 40
0.0
 40
0.0
 40
0.0
 40
1.0
 40
1.0
 40
1.0
 40
2.0
 40
2.0
 40
2.0
 40
3.0
 40
3.0
 40
3.0
 40
4.0
 40
4.0
 40
4.0
 40
5.0
 40
5.0
 40
5.0
 40
6.0
 40
6.0
 40
6.0
 40
7.0
 40
7.0
 40
7.0
 40
8.0
 40
8.0
 40
8.0
 40
9.0
 40
9.0
 40
9.0
 40
9.0
 10
5.41489749484592
 20
-4.860398186577691
 10
5.355120340983072
 20
-5.096654256184896
 10
5.220635308159722
 20
-5.588801913791232
 10
5.12256113688151
 20
-5.587092929416232
 10
5.053648206922743
 20
-5.585900200737847
 10
4.973364935980903
 20
-4.9415529039171
 10
4.979523552788629
 20
-4.586377461751302
 10
4.979760064019097
 20
-4.573129442003038
 10
4.97996351453993
 20
-4.56120130750868
 10
4.980191548665364
 20
-4.547944810655381
 10
5.112418280707465
 20
-4.415024651421441
 10
5.423212687174479
 20
-4.075736999511719
 10
5.427697075737847
 20
-3.817308213975694
 10
5.429761250813802
 20
-3.698033650716146
 10
5.388739691840278
 20
-3.617784288194444
 10
5.310546027289496
 20
-3.616430494520399
 10
5.018979390462239
 20
-3.611362881130642
 10
4.769281175401475
 20
-4.24998304578993
 10
4.760635375976562
 20
-4.748289320203993
 10
4.75352054172092
 20
-5.157802157931857
 10
4.814540439181857
 20
-5.6904542711046
 10
5.091522216796875
 20
-5.695259941948785
 10
5.237301296657986
 20
-5.697789510091146
 10
5.389179653591579
 20
-5.119783189561631
 10
5.450673421223958
 20
-4.861016167534722
 10
5.453693813747829
 20
-4.839858161078559
 10
5.422164069281684
 20
-4.823404100206163
 10
5.41489749484592
 20
-4.860398186577691
 97
        0
 97
        0
 92
        1
 93
        1
 72
     4
 94
        3
 73
     0
 74
     1
 95
       14
 96
       10
 40
0.0
 40
0.0
 40
0.0
 40
0.0
 40
1.0
 40
1.0
 40
1.0
 40
2.0
 40
2.0
 40
2.0
 40
3.0
 40
3.0
 40
3.0
 40
3.0
 10
5.311713324652778
 20
-3.77818128797743
 10
5.350145975748697
 20
-3.77885013156467
 10
5.378519694010416
 20
-3.824414571126302
 10
5.378106011284722
 20
-3.848270840115017
 10
5.374654134114583
 20
-4.047058953179254
 10
5.108222113715278
 20
-4.351314120822482
 10
4.983990139431423
 20
-4.481730143229166
 10
5.012321472167969
 20
-4.148152669270833
 10
5.144725375705295
 20
-3.775279574924045
 10
5.311713324652778
 20
-3.77818128797743
 97
        0
 97
        0
 92
        1
 93
        1
 72
     4
 94
        3
 73
     0
 74
     1
 95
      236
 96
      232
 40
0.0
 40
0.0
 40
0.0
 40
0.0
 40
1.0
 40
1.0
 40
1.0
 40
2.0
 40
2.0
 40
2.0
 40
3.0
 40
3.0
 40
3.0
 40
4.0
 40
4.0
 40
4.0
 40
5.0
 40
5.0
 40
5.0
 40
6.0
 40
6.0
 40
6.0
 40
7.0
 40
7.0
 40
7.0
 40
8.0
 40
8.0
 40
8.0
 40
9.0
 40
9.0
 40
9.0
 40
10.0
 40
10.0
 40
10.0
 40
11.0
 40
11.0
 40
11.0
 40
12.0
 40
12.0
 40
12.0
 40
13.0
 40
13.0
 40
13.0
 40
14.0
 40
14.0
 40
14.0
 40
15.0
 40
15.0
 40
15.0
 40
16.0
 40
16.0
 40
16.0
 40
17.0
 40
17.0
 40
17.0
 40
18.0
 40
18.0
 40
18.0
 40
19.0
 40
19.0
 40
19.0
 40
20.0
 40
20.0
 40
20.0
 40
21.0
 40
21.0
 40
21.0
 40
22.0
 40
22.0
 40
22.0
 40
23.0
 40
23.0
 40
23.0
 40
24.0
 40
24.0
 40
24.0
 40
25.0
 40
25.0
 40
25.0
 40
26.0
 40
26.0
 40
26.0
 40
27.0
 40
27.0
 40
27.0
 40
28.0
 40
28.0
 40
28.0
 40
29.0
 40
29.0
 40
29.0
 40
30.0
 40
30.0
 40
30.0
 40
31.0
 40
31.0
 40
31.0
 40
32.0
 40
32.0
 40
32.0
 40
33.0
 40
33.0
 40
33.0
 40
34.0
 40
34.0
 40
34.0
 40
35.0
 40
35.0
 40
35.0
 40
36.0
 40
36.0
 40
36.0
 40
37.0
 40
37.0
 40
37.0
 40
38.0
 40
38.0
 40
38.0
 40
39.0
 40
39.0
 40
39.0
 40
40.0
 40
40.0
 40
40.0
 40
41.0
 40
41.0
 40
41.0
 40
42.0
 40
42.0
 40
42.0
 40
43.0
 40
43.0
 40
43.0
 40
44.0
 40
44.0
 40
44.0
 40
45.0
 40
45.0
 40
45.0
 40
46.0
 40
46.0
 40
46.0
 40
47.0
 40
47.0
 40
47.0
 40
48.0
 40
48.0
 40
48.0
 40
49.0
 40
49.0
 40
49.0
 40
50.0
 40
50.0
 40
50.0
 40
51.0
 40
51.0
 40
51.0
 40
52.0
 40
52.0
 40
52.0
 40
53.0
 40
53.0
 40
53.0
 40
54.0
 40
54.0
 40
54.0
 40
55.0
 40
55.0
 40
55.0
 40
56.0
 40
56.0
 40
56.0
 40
57.0
 40
57.0
 40
57.0
 40
58.0
 40
58.0
 40
58.0
 40
59.0
 40
59.0
 40
59.0
 40
60.0
 40
60.0
 40
60.0
 40
61.0
 40
61.0
 40
61.0
 40
62.0
 40
62.0
 40
62.0
 40
63.0
 40
63.0
 40
63.0
 40
64.0
 40
64.0
 40
64.0
 40
65.0
 40
65.0
 40
65.0
 40
66.0
 40
66.0
 40
66.0
 40
67.0
 40
67.0
 40
67.0
 40
68.0
 40
68.0
 40
68.0
 40
69.0
 40
69.0
 40
69.0
 40
70.0
 40
70.0
 40
70.0
 40
71.0
 40
71.0
 40
71.0
 40
72.0
 40
72.0
 40
72.0
 40
73.0
 40
73.0
 40
73.0
 40
74.0
 40
74.0
 40
74.0
 40
75.0
 40
75.0
 40
75.0
 40
76.0
 40
76.0
 40
76.0
 40
77.0
 40
77.0
 40
77.0
 40
77.0
 10
2.910914950900608
 20
-2.187886555989583
 10
2.910758972167969
 20
-2.192459954155816
 10
2.910468207465278
 20
-2.197116427951389
 10
2.910389370388455
 20
-2.20164320203993
 10
2.909128824869792
 20
-2.274152119954427
 10
2.917664421929253
 20
-2.340358310275608
 10
2.936005486382378
 20
-2.400278727213542
 10
2.982229444715712
 20
-2.550431145562066
 10
3.089676751030816
 20
-2.627000596788194
 10
3.258365207248264
 20
-2.629944695366753
 10
3.424895392523871
 20
-2.632854885525174
 10
3.588016933865017
 20
-2.564965142144097
 10
3.747703552246094
 20
-2.426292419433594
 10
3.885504828559028
 20
-2.306628757052951
 10
4.009635077582465
 20
-2.147230360243055
 10
4.120111253526476
 20
-1.948087056477865
 10
4.152732849121094
 20
-1.889062669542101
 10
4.192569308810763
 20
-1.80790032280816
 10
4.239614698621962
 20
-1.704597473144531
 10
4.25083245171441
 20
-1.678938971625434
 10
4.256576538085938
 20
-1.658576117621528
 10
4.25683848063151
 20
-1.643501281738281
 10
4.257227579752604
 20
-1.621260748969184
 10
4.24485100640191
 20
-1.609898885091146
 10
4.219734191894531
 20
-1.609458923339844
 10
4.189583672417535
 20
-1.608934190538194
 10
4.167376200358072
 20
-1.625778198242188
 10
4.153147379557291
 20
-1.659997728135851
 10
4.088657803005642
 20
-1.816131591796875
 10
4.012638515896267
 20
-1.954828898111979
 10
3.925071716308594
 20
-2.07609134250217
 10
3.7325439453125
 20
-2.327660454644097
 10
3.548340691460503
 20
-2.451891581217448
 10
3.372470431857639
 20
-2.448829650878906
 10
3.252578735351562
 20
-2.446731567382812
 10
3.194112989637587
 20
-2.361693488226996
 10
3.197048611111111
 20
-2.193716261121962
 10
3.198249816894531
 20
-2.124803331163194
 10
3.210651821560329
 20
-2.051422966851129
 10
3.234280056423611
 20
-1.973559061686198
 10
3.275478786892361
 20
-1.99870130750868
 10
3.31905534532335
 20
-2.011661953396267
 10
3.365008884006076
 20
-2.012465582953559
 10
3.535845438639323
 20
-2.015443589952257
 10
3.673266092936198
 20
-1.959507412380642
 10
3.777245415581597
 20
-1.84462398952908
 10
3.881199306911892
 20
-1.729756673177083
 10
3.934140523274739
 20
-1.618476867675781
 10
3.93601820203993
 20
-1.51080067952474
 10
3.937625461154514
 20
-1.418919033474392
 10
3.915520562065972
 20
-1.347984313964844
 10
3.869718763563368
 20
-1.297987196180556
 10
3.823909335666233
 20
-1.248014662000868
 10
3.754716661241319
 20
-1.222195943196615
 10
3.662107679578993
 20
-1.220580206976996
 10
3.505610148111979
 20
-1.217847188313802
 10
3.354932996961805
 20
-1.293850368923611
 10
3.210051642523871
 20
-1.448579576280382
 10
3.100146823459201
 20
-1.569758097330729
 10
3.019405788845486
 20
-1.714228312174479
 10
2.967277526855469
 20
-1.881535000271267
 10
2.943248324924045
 20
-1.927929348415798
 10
2.917017618815104
 20
-1.976127624511719
 10
2.888258192274305
 20
-2.026407029893663
 10
2.846771240234375
 20
-2.098924424913194
 10
2.802670796712239
 20
-2.167634752061632
 10
2.755947536892361
 20
-2.232521057128906
 10
2.709207322862413
 20
-2.297408209906684
 10
2.663447909884983
 20
-2.348496331108941
 10
2.618628607855903
 20
-2.385770161946614
 10
2.573816935221354
 20
-2.423052469889323
 10
2.535257127549913
 20
-2.441402011447483
 10
2.502957661946614
 20
-2.440834893120659
 10
2.476393805609809
 20
-2.440369500054253
 10
2.463510301378038
 20
-2.417527940538194
 10
2.46429697672526
 20
-2.372302585177951
 10
2.465455796983507
 20
-2.306265089246962
 10
2.501130845811632
 20
-2.175291273328993
 10
2.571329752604167
 20
-1.979404873318142
 10
2.641528659396701
 20
-1.783518473307292
 10
2.677322387695312
 20
-1.646106296115451
 10
2.678701612684462
 20
-1.567125956217448
 10
2.680029127332899
 20
-1.49104732937283
 10
2.661638047960069
 20
-1.433639526367188
 10
2.623543633355034
 20
-1.394902547200521
 10
2.59318118625217
 20
-1.364937676323785
 10
2.554672241210938
 20
-1.349540710449219
 10
2.508016798231337
 20
-1.348728603786892
 10
2.453451368543837
 20
-1.347772386338976
 10
2.390595330132378
 20
-1.370022243923611
 10
2.319431728786892
 20
-1.415451049804688
 10
2.248259650336371
 20
-1.460888332790798
 10
2.175242953830295
 20
-1.530876159667969
 10
2.100348578559028
 20
-1.625430636935764
 10
2.02545420328776
 20
-1.719985961914062
 10
1.954417758517795
 20
-1.840292188856337
 10
1.887238396538628
 20
-1.986316257052951
 10
1.92303212483724
 20
-1.827526516384548
 10
1.963884141710069
 20
-1.668118794759115
 10
2.009761386447483
 20
-1.508060031467014
 10
2.098462422688802
 20
-1.444983588324653
 10
2.167604234483507
 20
-1.391975402832031
 10
2.217186821831597
 20
-1.349032931857639
 10
2.282808939615885
 20
-1.29201422797309
 10
2.358185662163628
 20
-1.210766262478298
 10
2.443333095974392
 20
-1.105247497558594
 10
2.598916795518663
 20
-0.9126527574327257
 10
2.706474304199219
 20
-0.7163348727756076
 10
2.765981038411458
 20
-0.516312493218316
 10
2.785040961371528
 20
-0.4520178900824652
 10
2.795039706759983
 20
-0.3940260145399305
 10
2.795945061577691
 20
-0.3423368665907118
 10
2.798500061035156
 20
-0.1958982679578993
 10
2.739104376898871
 20
-0.121612548828125
 10
2.617799546983507
 20
-0.1194975111219618
 10
2.390223185221354
 20
-0.1155217488606771
 10
2.183017306857639
 20
-0.3032777574327257
 10
1.996166653103298
 20
-0.6827494303385416
 10
1.887745327419705
 20
-0.9039221869574652
 10
1.771915011935764
 20
-1.212880452473958
 10
1.648691813151042
 20
-1.609375
 10
1.628338283962673
 20
-1.615145365397135
 10
1.612635294596354
 20
-1.63108401828342
 10
1.601695590549045
 20
-1.657391866048177
 10
1.584463331434462
 20
-1.698015848795573
 10
1.560031467013889
 20
-1.750559488932292
 10
1.528391520182292
 20
-1.81498040093316
 10
1.496743943956163
 20
-1.879427591959635
 10
1.460188971625434
 20
-1.947892083062066
 10
1.418710496690538
 20
-2.020417955186632
 10
1.377224392361111
 20
-2.092935350206163
 10
1.333123101128472
 20
-2.161637200249566
 10
1.286399841308594
 20
-2.22652350531684
 10
1.239659627278646
 20
-2.291418287489149
 10
1.193900214301215
 20
-2.342507256401909
 10
1.14908938937717
 20
-2.379772610134549
 10
1.104269239637587
 20
-2.417062547471788
 10
1.065717909071181
 20
-2.435403611924913
 10
1.033409966362847
 20
-2.434845818413628
 10
1.006846957736545
 20
-2.434380425347222
 10
0.9939626057942708
 20
-2.411530388726128
 10
0.9947577582465277
 20
-2.366312662760417
 10
0.9966608683268229
 20
-2.257198757595486
 10
1.050710890028212
 20
-2.060678270128038
 10
1.156923082139757
 20
-1.776725769042969
 10
1.181025187174479
 20
-1.71181403266059
 10
1.207867940266927
 20
-1.644237094455295
 10
1.23746829562717
 20
-1.574021233452691
 10
1.267052544487847
 20
-1.503813001844618
 10
1.293895297580295
 20
-1.436592102050781
 10
1.318005879720052
 20
-1.372382269965278
 10
1.374051411946615
 20
-1.370503743489583
 10
1.424742804633246
 20
-1.366358439127604
 10
1.47009531656901
 20
-1.35996331108941
 10
1.533442179361979
 20
-1.350293477376302
 10
1.565505133734809
 20
-1.324296739366319
 10
1.566240946451823
 20
-1.281929863823785
 10
1.56689198811849
 20
-1.244614495171441
 10
1.503028869628906
 20
-1.221231248643663
 10
1.374660915798611
 20
-1.211807250976562
 10
1.416316562228733
 20
-1.087592230902778
 10
1.437770419650608
 20
-0.9903132120768229
 10
1.438997056749132
 20
-0.9199532402886285
 10
1.440444098578559
 20
-0.8374116685655382
 10
1.408136155870226
 20
-0.7955440945095485
 10
1.342098659939236
 20
-0.7943937513563367
 10
1.253796047634548
 20
-0.7928534613715277
 10
1.162033081054688
 20
-0.8871129353841145
 10
1.066801283094618
 20
-1.077178107367621
 10
1.048164367675781
 20
-1.116355895996094
 10
1.028749254014757
 20
-1.159102545844184
 10
1.008555094401042
 20
-1.205419752332899
 10
0.9733369615342882
 20
-1.206960042317708
 10
0.944210476345486
 20
-1.20932854546441
 10
0.9211832682291666
 20
-1.212509155273438
 10
0.8722178141276041
 20
-1.219564649793837
 10
0.8473714192708333
 20
-1.244978162977431
 10
0.8466101752387152
 20
-1.28875732421875
 10
0.8458065456814235
 20
-1.334710862901476
 10
0.8791122436523438
 20
-1.359709845648871
 10
0.9465535481770833
 20
-1.363744947645399
 10
0.9042544894748263
 20
-1.482215881347656
 10
0.8623792860243055
 20
-1.619356791178385
 10
0.8208838568793402
 20
-1.775169372558594
 10
0.7609549628363715
 20
-1.999606662326389
 10
0.7297888861762153
 20
-2.180731031629774
 10
0.727386474609375
 20
-2.318557739257812
 10
0.7242134941948785
 20
-2.50016360812717
 10
0.7908342149522569
 20
-2.592171563042534
 10
0.9272232055664062
 20
-2.594557868109809
 10
1.052833557128906
 20
-2.596748352050781
 10
1.179840087890625
 20
-2.520339965820312
 10
1.308208889431423
 20
-2.36531490749783
 10
1.386166042751736
 20
-2.271682739257812
 10
1.460043165418837
 20
-2.160641140407986
 10
1.529877556694878
 20
-2.032341003417969
 10
1.500378926595052
 20
-2.161047193739149
 10
1.484893798828125
 20
-2.266525268554688
 10
1.48346201578776
 20
-2.348716735839844
 10
1.480966356065538
 20
-2.491559346516927
 10
1.521006266276042
 20
-2.563721550835503
 10
1.603548685709635
 20
-2.565160115559896
 10
1.645897759331597
 20
-2.565904405381944
 10
1.682833353678385
 20
-2.547698974609375
 10
1.714371575249566
 20
-2.510543823242188
 10
1.745884365505642
 20
-2.473396301269531
 10
1.774376763237847
 20
-2.425260755750868
 10
1.799823337131076
 20
-2.366093105740017
 10
1.830481635199653
 20
-2.296257019042969
 10
1.858094109429253
 20
-2.236776563856337
 10
1.882644653320312
 20
-2.187659369574653
 10
2.096922132703993
 20
-1.759840223524305
 10
2.256101820203993
 20
-1.546830919053819
 10
2.36019049750434
 20
-1.548641628689236
 10
2.387464735243055
 20
-1.549123975965712
 10
2.400831434461805
 20
-1.56551021999783
 10
2.400264316134983
 20
-1.597818162706163
 10
2.399147881401909
 20
-1.661715189615885
 10
2.365266587999132
 20
-1.782469855414496
 10
2.298620435926649
 20
-1.960108439127604
 10
2.231965806749132
 20
-2.137746175130208
 10
2.197763231065538
 20
-2.277172512478299
 10
2.195994906955295
 20
-2.378393385145399
 10
2.193448384602864
 20
-2.524113125271267
 10
2.260364956325955
 20
-2.598169962565104
 10
2.396770901150174
 20
-2.60054694281684
 10
2.522381252712674
 20
-2.60274675157335
 10
2.649387783474392
 20
-2.526329040527344
 10
2.777756585015191
 20
-2.371312459309896
 10
2.823574490017361
 20
-2.316281636555989
 10
2.86790296766493
 20
-2.254894680447049
 10
2.910914950900608
 20
-2.187886555989583
 97
        0
 97
        0
 92
        1
 93
        1
 72
     4
 94
        3
 73
     0
 74
     1
 95
       23
 96
       19
 40
0.0
 40
0.0
 40
0.0
 40
0.0
 40
1.0
 40
1.0
 40
1.0
 40
2.0
 40
2.0
 40
2.0
 40
3.0
 40
3.0
 40
3.0
 40
4.0
 40
4.0
 40
4.0
 40
5.0
 40
5.0
 40
5.0
 40
6.0
 40
6.0
 40
6.0
 40
6.0
 10
3.366472880045573
 20
-1.681815253363715
 10
3.466830783420139
 20
-1.526307847764757
 10
3.564041985405816
 20
-1.449374728732639
 10
3.658089531792534
 20
-1.451015896267361
 10
3.705463833279079
 20
-1.451844957139757
 10
3.728669060601128
 20
-1.480252583821615
 10
3.727688259548611
 20
-1.536248101128472
 10
3.726292080349392
 20
-1.616650051540798
 10
3.693433973524305
 20
-1.698827955457899
 10
3.629140218098958
 20
-1.782799614800347
 10
3.564828660753038
 20
-1.866771274142795
 10
3.487819247775608
 20
-1.907970852322048
 10
3.398095024956597
 20
-1.906405131022135
 10
3.350720723470052
 20
-1.90557607014974
 10
3.307820638020833
 20
-1.894782172309028
 10
3.269404941134983
 20
-1.873996310763889
 10
3.299437628851996
 20
-1.798416137695312
 10
3.331795586480034
 20
-1.734358893500434
 10
3.366472880045573
 20
-1.681815253363715
 97
        0
 97
        0
 92
        1
 93
        1
 72
     4
 94
        3
 73
     0
 74
     1
 95
       20
 96
       16
 40
0.0
 40
0.0
 40
0.0
 40
0.0
 40
1.0
 40
1.0
 40
1.0
 40
2.0
 40
2.0
 40
2.0
 40
3.0
 40
3.0
 40
3.0
 40
4.0
 40
4.0
 40
4.0
 40
5.0
 40
5.0
 40
5.0
 40
5.0
 10
2.59505123562283
 20
-0.3119074503580729
 10
2.640979342990451
 20
-0.3127026028103299
 10
2.663464864095052
 20
-0.3418290879991319
 10
2.66245863172743
 20
-0.3992538452148438
 10
2.661933898925781
 20
-0.429396735297309
 10
2.654802110460069
 20
-0.4677022298177083
 10
2.64107174343533
 20
-0.514129638671875
 10
2.57855478922526
 20
-0.7219950358072916
 10
2.459711710611979
 20
-0.9278038872612847
 10
2.284534878200955
 20
-1.131557888454861
 10
2.247159322102864
 20
-1.174711439344618
 10
2.170827229817708
 20
-1.248420715332031
 10
2.055562337239583
 20
-1.352679782443576
 10
2.265179104275174
 20
-0.6562118530273438
 10
2.445008171929253
 20
-0.3092846340603299
 10
2.59505123562283
 20
-0.3119074503580729
 97
        0
 97
        0
 75
     2
 76
     1
 98
        0
  0
ENDSEC
  0
SECTION
  2
OBJECTS
  0
DICTIONARY
  5
C
330
0
100
AcDbDictionary
281
     1
  3
ACAD_GROUP
350
D
  3
ACAD_LAYOUT
350
1A
  3
ACAD_MATERIAL
350
3B
  3
ACAD_MLEADERSTYLE
350
66
  3
ACAD_MLINESTYLE
350
17
  3
ACAD_PLOTSETTINGS
350
19
  3
ACAD_PLOTSTYLENAME
350
E
  3
ACAD_TABLESTYLE
350
65
  3
ACAD_VISUALSTYLE
350
2A
  0
SUN
  5
3F
330
29
100
AcDbSun
 90
        1
290
     0
 63
     7
421
 16777215
 40
1.0
291
     1
 91
  2455826
 92
 54000000
292
     0
 70
     2
 71
   256
280
     1
  0
DICTIONARY
  5
D
102
{ACAD_REACTORS
330
C
102
}
330
C
100
AcDbDictionary
281
     1
  0
DICTIONARY
  5
1A
102
{ACAD_REACTORS
330
C
102
}
330
C
100
AcDbDictionary
281
     1
  3
Layout1
350
1E
  3
Layout2
350
26
  3
Model
350
22
  0
DICTIONARY
  5
3B
102
{ACAD_REACTORS
330
C
102
}
330
C
100
AcDbDictionary
281
     1
  3
ByBlock
350
3D
  3
ByLayer
350
3C
  3
Global
350
3E
  0
DICTIONARY
  5
66
102
{ACAD_REACTORS
330
C
102
}
330
C
100
AcDbDictionary
281
     1
  0
DICTIONARY
  5
17
102
{ACAD_REACTORS
330
C
102
}
330
C
100
AcDbDictionary
281
     1
  3
Standard
350
18
  0
DICTIONARY
  5
19
102
{ACAD_REACTORS
330
C
102
}
330
C
100
AcDbDictionary
281
     1
  0
ACDBDICTIONARYWDFLT
  5
E
102
{ACAD_REACTORS
330
C
102
}
330
C
100
AcDbDictionary
281
     1
  3
Normal
350
F
100
AcDbDictionaryWithDefault
340
F
  0
DICTIONARY
  5
65
102
{ACAD_REACTORS
330
C
102
}
330
C
100
AcDbDictionary
281
     1
  0
DICTIONARY
  5
2A
102
{ACAD_REACTORS
330
C
102
}
330
C
100
AcDbDictionary
281
     1
  3
2dWireframe
350
2F
  3
3D Hidden
350
31
  3
3dWireframe
350
30
  3
Basic
350
32
  3
Brighten
350
36
  3
ColorChange
350
3A
  3
Conceptual
350
34
  3
Dim
350
35
  3
Facepattern
350
39
  3
Flat
350
2B
  3
FlatWithEdges
350
2C
  3
Gouraud
350
2D
  3
GouraudWithEdges
350
2E
  3
Linepattern
350
38
  3
Realistic
350
33
  3
Thicken
350
37
  0
LAYOUT
  5
1E
102
{ACAD_REACTORS
330
1A
102
}
330
1A
100
AcDbPlotSettings
  1

  2
none_device
  4

  6

 40
0.0
 41
0.0
 42
0.0
 43
0.0
 44
0.0
 45
0.0
 46
0.0
 47
0.0
 48
0.0
 49
0.0
140
0.0
141
0.0
142
1.0
143
1.0
 70
   688
 72
     0
 73
     0
 74
     5
  7

 75
    16
 76
     0
 77
     2
 78
   300
147
1.0
148
0.0
149
0.0
100
AcDbLayout
  1
Layout1
 70
     1
 71
     1
 10
0.0
 20
0.0
 11
12.0
 21
9.0
 12
0.0
 22
0.0
 32
0.0
 14
1.000000000000000E+20
 24
1.000000000000000E+20
 34
1.000000000000000E+20
 15
-1.000000000000000E+20
 25
-1.000000000000000E+20
 35
-1.000000000000000E+20
146
0.0
 13
0.0
 23
0.0
 33
0.0
 16
1.0
 26
0.0
 36
0.0
 17
0.0
 27
1.0
 37
0.0
 76
     0
330
1B
  0
LAYOUT
  5
26
102
{ACAD_REACTORS
330
1A
102
}
330
1A
100
AcDbPlotSettings
  1

  2
none_device
  4

  6

 40
0.0
 41
0.0
 42
0.0
 43
0.0
 44
0.0
 45
0.0
 46
0.0
 47
0.0
 48
0.0
 49
0.0
140
0.0
141
0.0
142
1.0
143
1.0
 70
   688
 72
     0
 73
     0
 74
     5
  7

 75
    16
 76
     0
 77
     2
 78
   300
147
1.0
148
0.0
149
0.0
100
AcDbLayout
  1
Layout2
 70
     1
 71
     2
 10
0.0
 20
0.0
 11
0.0
 21
0.0
 12
0.0
 22
0.0
 32
0.0
 14
0.0
 24
0.0
 34
0.0
 15
0.0
 25
0.0
 35
0.0
146
0.0
 13
0.0
 23
0.0
 33
0.0
 16
1.0
 26
0.0
 36
0.0
 17
0.0
 27
1.0
 37
0.0
 76
     0
330
23
  0
LAYOUT
  5
22
102
{ACAD_REACTORS
330
1A
102
}
330
1A
100
AcDbPlotSettings
  1

  2
none_device
  4

  6

 40
0.0
 41
0.0
 42
0.0
 43
0.0
 44
0.0
 45
0.0
 46
0.0
 47
0.0
 48
0.0
 49
0.0
140
0.0
141
0.0
142
1.0
143
1.0
 70
  1712
 72
     0
 73
     0
 74
     0
  7

 75
     0
 76
     0
 77
     2
 78
   300
147
1.0
148
0.0
149
0.0
100
AcDbLayout
  1
Model
 70
     1
 71
     0
 10
0.0
 20
0.0
 11
12.0
 21
9.0
 12
0.0
 22
0.0
 32
0.0
 14
1.000000000000000E+20
 24
1.000000000000000E+20
 34
1.000000000000000E+20
 15
-1.000000000000000E+20
 25
-1.000000000000000E+20
 35
-1.000000000000000E+20
146
0.0
 13
0.0
 23
0.0
 33
0.0
 16
1.0
 26
0.0
 36
0.0
 17
0.0
 27
1.0
 37
0.0
 76
     0
330
1F
331
29
  0
MATERIAL
  5
3D
102
{ACAD_REACTORS
330
3B
102
}
330
3B
100
AcDbMaterial
  1
ByBlock
 72
     1
 94
      127
  0
MATERIAL
  5
3C
102
{ACAD_REACTORS
330
3B
102
}
330
3B
100
AcDbMaterial
  1
ByLayer
 72
     1
 94
      127
  0
MATERIAL
  5
3E
102
{ACAD_REACTORS
330
3B
102
}
330
3B
100
AcDbMaterial
  1
Global
 72
     1
 94
      127
  0
MLINESTYLE
  5
18
102
{ACAD_REACTORS
330
17
102
}
330
17
100
AcDbMlineStyle
  2
Standard
 70
     0
  3

 62
   256
 51
90.0
 52
90.0
 71
     2
 49
0.5
 62
   256
  6
BYLAYER
 49
-0.5
 62
   256
  6
BYLAYER
  0
ACDBPLACEHOLDER
  5
F
102
{ACAD_REACTORS
330
E
102
}
330
E
  0
VISUALSTYLE
  5
2F
102
{ACAD_REACTORS
330
2A
102
}
330
2A
100
AcDbVisualStyle
  2
2dWireframe
 70
     4
177
     2
291
     0
 71
     0
176
     1
 72
     2
176
     1
 73
     0
176
     1
 90
        0
176
     1
 40
-0.6
176
     1
 41
-30.0
176
     1
 62
     5
 63
     7
421
 16777215
176
     1
 74
     1
176
     1
 91
        4
176
     1
 64
     7
176
     1
 65
   257
176
     1
 75
     1
176
     1
175
     1
176
     1
 42
1.0
176
     1
 92
        0
176
     1
 66
   257
176
     1
 43
1.0
176
     1
 76
     1
176
     1
 77
     6
176
     1
 78
     2
176
     1
 67
     7
176
     1
 79
     5
176
     1
170
     0
176
     1
171
     0
176
     1
290
     0
176
     1
 93
        1
176
     1
 44
0.0
176
     1
173
     0
176
     1
  0
VISUALSTYLE
  5
31
102
{ACAD_REACTORS
330
2A
102
}
330
2A
100
AcDbVisualStyle
  2
3D Hidden
 70
     6
177
     2
291
     0
 71
     1
176
     1
 72
     2
176
     1
 73
     2
176
     1
 90
        0
176
     1
 40
-0.6
176
     1
 41
-30.0
176
     1
 62
     5
 63
     7
421
 16777215
176
     1
 74
     2
176
     1
 91
        2
176
     1
 64
     7
176
     1
 65
   257
176
     1
 75
     2
176
     1
175
     1
176
     1
 42
40.0
176
     1
 92
        0
176
     1
 66
   257
176
     1
 43
1.0
176
     1
 76
     1
176
     1
 77
     6
176
     1
 78
     2
176
     1
 67
     7
176
     1
 79
     3
176
     1
170
     0
176
     1
171
     0
176
     1
290
     0
176
     1
 93
        1
176
     1
 44
0.0
176
     1
173
     0
176
     1
  0
VISUALSTYLE
  5
30
102
{ACAD_REACTORS
330
2A
102
}
330
2A
100
AcDbVisualStyle
  2
3dWireframe
 70
     5
177
     2
291
     0
 71
     0
176
     1
 72
     2
176
     1
 73
     0
176
     1
 90
        0
176
     1
 40
-0.6
176
     1
 41
-30.0
176
     1
 62
     5
 63
     7
421
 16777215
176
     1
 74
     1
176
     1
 91
        4
176
     1
 64
     7
176
     1
 65
   257
176
     1
 75
     1
176
     1
175
     1
176
     1
 42
1.0
176
     1
 92
        0
176
     1
 66
   257
176
     1
 43
1.0
176
     1
 76
     1
176
     1
 77
     6
176
     1
 78
     2
176
     1
 67
     7
176
     1
 79
     5
176
     1
170
     0
176
     1
171
     0
176
     1
290
     0
176
     1
 93
        1
176
     1
 44
0.0
176
     1
173
     0
176
     1
  0
VISUALSTYLE
  5
32
102
{ACAD_REACTORS
330
2A
102
}
330
2A
100
AcDbVisualStyle
  2
Basic
 70
     7
177
     2
291
     1
 71
     1
176
     1
 72
     0
176
     1
 73
     1
176
     1
 90
        0
176
     1
 40
-0.6
176
     1
 41
-30.0
176
     1
 62
     5
 63
     7
421
 16777215
176
     1
 74
     0
176
     1
 91
        4
176
     1
 64
     7
176
     1
 65
   257
176
     1
 75
     1
176
     1
175
     1
176
     1
 42
1.0
176
     1
 92
        8
176
     1
 66
     7
176
     1
 43
1.0
176
     1
 76
     1
176
     1
 77
     6
176
     1
 78
     2
176
     1
 67
     7
176
     1
 79
     5
176
     1
170
     0
176
     1
171
     0
176
     1
290
     0
176
     1
 93
        1
176
     1
 44
0.0
176
     1
173
     0
176
     1
  0
VISUALSTYLE
  5
36
102
{ACAD_REACTORS
330
2A
102
}
330
2A
100
AcDbVisualStyle
  2
Brighten
 70
    12
177
     2
291
     1
 71
     2
176
     1
 72
     2
176
     1
 73
     0
176
     1
 90
        0
176
     1
 40
-0.6
176
     1
 41
-30.0
176
     1
 62
     5
 63
     7
421
 16777215
176
     1
 74
     1
176
     1
 91
        4
176
     1
 64
     7
176
     1
 65
   257
176
     1
 75
     1
176
     1
175
     1
176
     1
 42
1.0
176
     1
 92
        8
176
     1
 66
     7
176
     1
 43
1.0
176
     1
 76
     1
176
     1
 77
     6
176
     1
 78
     2
176
     1
 67
     7
176
     1
 79
     5
176
     1
170
     0
176
     1
171
     0
176
     1
290
     0
176
     1
 93
        1
176
     1
 44
50.0
176
     1
173
     0
176
     1
  0
VISUALSTYLE
  5
3A
102
{ACAD_REACTORS
330
2A
102
}
330
2A
100
AcDbVisualStyle
  2
ColorChange
 70
    16
177
     2
291
     1
 71
     2
176
     1
 72
     2
176
     1
 73
     3
176
     1
 90
        0
176
     1
 40
-0.6
176
     1
 41
-30.0
176
     1
 62
     5
 63
     8
421
  8421504
176
     1
 74
     1
176
     1
 91
        4
176
     1
 64
     7
176
     1
 65
   257
176
     1
 75
     1
176
     1
175
     1
176
     1
 42
1.0
176
     1
 92
        8
176
     1
 66
     8
424
  8421504
176
     1
 43
1.0
176
     1
 76
     1
176
     1
 77
     6
176
     1
 78
     2
176
     1
 67
     7
176
     1
 79
     5
176
     1
170
     0
176
     1
171
     0
176
     1
290
     0
176
     1
 93
        1
176
     1
 44
0.0
176
     1
173
     0
176
     1
  0
VISUALSTYLE
  5
34
102
{ACAD_REACTORS
330
2A
102
}
330
2A
100
AcDbVisualStyle
  2
Conceptual
 70
     9
177
     2
291
     0
 71
     3
176
     1
 72
     2
176
     1
 73
     0
176
     1
 90
        0
176
     1
 40
-0.6
176
     1
 41
-30.0
176
     1
 62
     5
 63
     7
421
 16777215
176
     1
 74
     2
176
     1
 91
        2
176
     1
 64
     7
176
     1
 65
   257
176
     1
 75
     1
176
     1
175
     1
176
     1
 42
40.0
176
     1
 92
        8
176
     1
 66
     7
176
     1
 43
1.0
176
     1
 76
     1
176
     1
 77
     6
176
     1
 78
     2
176
     1
 67
     7
176
     1
 79
     3
176
     1
170
     0
176
     1
171
     0
176
     1
290
     0
176
     1
 93
        1
176
     1
 44
0.0
176
     1
173
     0
176
     1
  0
VISUALSTYLE
  5
35
102
{ACAD_REACTORS
330
2A
102
}
330
2A
100
AcDbVisualStyle
  2
Dim
 70
    11
177
     2
291
     1
 71
     2
176
     1
 72
     2
176
     1
 73
     0
176
     1
 90
        0
176
     1
 40
-0.6
176
     1
 41
-30.0
176
     1
 62
     5
 63
     7
421
 16777215
176
     1
 74
     1
176
     1
 91
        4
176
     1
 64
     7
176
     1
 65
   257
176
     1
 75
     1
176
     1
175
     1
176
     1
 42
1.0
176
     1
 92
        8
176
     1
 66
     7
176
     1
 43
1.0
176
     1
 76
     1
176
     1
 77
     6
176
     1
 78
     2
176
     1
 67
     7
176
     1
 79
     5
176
     1
170
     0
176
     1
171
     0
176
     1
290
     0
176
     1
 93
        1
176
     1
 44
-50.0
176
     1
173
     0
176
     1
  0
VISUALSTYLE
  5
39
102
{ACAD_REACTORS
330
2A
102
}
330
2A
100
AcDbVisualStyle
  2
Facepattern
 70
    15
177
     2
291
     1
 71
     2
176
     1
 72
     2
176
     1
 73
     0
176
     1
 90
        0
176
     1
 40
-0.6
176
     1
 41
-30.0
176
     1
 62
     5
 63
     7
421
 16777215
176
     1
 74
     1
176
     1
 91
        4
176
     1
 64
     7
176
     1
 65
   257
176
     1
 75
     1
176
     1
175
     1
176
     1
 42
1.0
176
     1
 92
        8
176
     1
 66
     7
176
     1
 43
1.0
176
     1
 76
     1
176
     1
 77
     6
176
     1
 78
     2
176
     1
 67
     7
176
     1
 79
     5
176
     1
170
     0
176
     1
171
     0
176
     1
290
     0
176
     1
 93
        1
176
     1
 44
0.0
176
     1
173
     0
176
     1
  0
VISUALSTYLE
  5
2B
102
{ACAD_REACTORS
330
2A
102
}
330
2A
100
AcDbVisualStyle
  2
Flat
 70
     0
177
     2
291
     1
 71
     2
176
     1
 72
     1
176
     1
 73
     1
176
     1
 90
        2
176
     1
 40
-0.6
176
     1
 41
30.0
176
     1
 62
     5
 63
     7
421
 16777215
176
     1
 74
     0
176
     1
 91
        4
176
     1
 64
     7
176
     1
 65
   257
176
     1
 75
     1
176
     1
175
     1
176
     1
 42
1.0
176
     1
 92
        8
176
     1
 66
     7
176
     1
 43
1.0
176
     1
 76
     1
176
     1
 77
     6
176
     1
 78
     2
176
     1
 67
     7
176
     1
 79
     5
176
     1
170
     0
176
     1
171
     0
176
     1
290
     0
176
     1
 93
       13
176
     1
 44
0.0
176
     1
173
     0
176
     1
  0
VISUALSTYLE
  5
2C
102
{ACAD_REACTORS
330
2A
102
}
330
2A
100
AcDbVisualStyle
  2
FlatWithEdges
 70
     1
177
     2
291
     1
 71
     2
176
     1
 72
     1
176
     1
 73
     1
176
     1
 90
        2
176
     1
 40
-0.6
176
     1
 41
30.0
176
     1
 62
     5
 63
     7
421
 16777215
176
     1
 74
     1
176
     1
 91
        4
176
     1
 64
     7
176
     1
 65
   257
176
     1
 75
     1
176
     1
175
     1
176
     1
 42
1.0
176
     1
 92
        0
176
     1
 66
   257
176
     1
 43
1.0
176
     1
 76
     1
176
     1
 77
     6
176
     1
 78
     2
176
     1
 67
     7
176
     1
 79
     5
176
     1
170
     0
176
     1
171
     0
176
     1
290
     0
176
     1
 93
       13
176
     1
 44
0.0
176
     1
173
     0
176
     1
  0
VISUALSTYLE
  5
2D
102
{ACAD_REACTORS
330
2A
102
}
330
2A
100
AcDbVisualStyle
  2
Gouraud
 70
     2
177
     2
291
     1
 71
     2
176
     1
 72
     2
176
     1
 73
     1
176
     1
 90
        2
176
     1
 40
-0.6
176
     1
 41
30.0
176
     1
 62
     5
 63
     7
421
 16777215
176
     1
 74
     0
176
     1
 91
        4
176
     1
 64
     7
176
     1
 65
   257
176
     1
 75
     1
176
     1
175
     1
176
     1
 42
1.0
176
     1
 92
        0
176
     1
 66
     7
176
     1
 43
1.0
176
     1
 76
     1
176
     1
 77
     6
176
     1
 78
     2
176
     1
 67
     7
176
     1
 79
     5
176
     1
170
     0
176
     1
171
     0
176
     1
290
     0
176
     1
 93
       13
176
     1
 44
0.0
176
     1
173
     0
176
     1
  0
VISUALSTYLE
  5
2E
102
{ACAD_REACTORS
330
2A
102
}
330
2A
100
AcDbVisualStyle
  2
GouraudWithEdges
 70
     3
177
     2
291
     1
 71
     2
176
     1
 72
     2
176
     1
 73
     1
176
     1
 90
        2
176
     1
 40
-0.6
176
     1
 41
30.0
176
     1
 62
     5
 63
     7
421
 16777215
176
     1
 74
     1
176
     1
 91
        4
176
     1
 64
     7
176
     1
 65
   257
176
     1
 75
     1
176
     1
175
     1
176
     1
 42
1.0
176
     1
 92
        0
176
     1
 66
   257
176
     1
 43
1.0
176
     1
 76
     1
176
     1
 77
     6
176
     1
 78
     2
176
     1
 67
     7
176
     1
 79
     5
176
     1
170
     0
176
     1
171
     0
176
     1
290
     0
176
     1
 93
       13
176
     1
 44
0.0
176
     1
173
     0
176
     1
  0
VISUALSTYLE
  5
38
102
{ACAD_REACTORS
330
2A
102
}
330
2A
100
AcDbVisualStyle
  2
Linepattern
 70
    14
177
     2
291
     1
 71
     2
176
     1
 72
     2
176
     1
 73
     0
176
     1
 90
        0
176
     1
 40
-0.6
176
     1
 41
-30.0
176
     1
 62
     5
 63
     7
421
 16777215
176
     1
 74
     1
176
     1
 91
        4
176
     1
 64
     7
176
     1
 65
   257
176
     1
 75
     7
176
     1
175
     7
176
     1
 42
1.0
176
     1
 92
        8
176
     1
 66
     7
176
     1
 43
1.0
176
     1
 76
     1
176
     1
 77
     6
176
     1
 78
     2
176
     1
 67
     7
176
     1
 79
     5
176
     1
170
     0
176
     1
171
     0
176
     1
290
     0
176
     1
 93
        1
176
     1
 44
0.0
176
     1
173
     0
176
     1
  0
VISUALSTYLE
  5
33
102
{ACAD_REACTORS
330
2A
102
}
330
2A
100
AcDbVisualStyle
  2
Realistic
 70
     8
177
     2
291
     0
 71
     2
176
     1
 72
     2
176
     1
 73
     0
176
     1
 90
        0
176
     1
 40
-0.6
176
     1
 41
-30.0
176
     1
 62
     5
 63
     7
421
 16777215
176
     1
 74
     1
176
     1
 91
        0
176
     1
 64
     7
176
     1
 65
   257
176
     1
 75
     1
176
     1
175
     1
176
     1
 42
1.0
176
     1
 92
        8
176
     1
 66
     8
424
  7895160
176
     1
 43
1.0
176
     1
 76
     1
176
     1
 77
     6
176
     1
 78
     2
176
     1
 67
     7
176
     1
 79
     5
176
     1
170
     0
176
     1
171
     0
176
     1
290
     0
176
     1
 93
       13
176
     1
 44
0.0
176
     1
173
     0
176
     1
  0
VISUALSTYLE
  5
37
102
{ACAD_REACTORS
330
2A
102
}
330
2A
100
AcDbVisualStyle
  2
Thicken
 70
    13
177
     2
291
     1
 71
     2
176
     1
 72
     2
176
     1
 73
     0
176
     1
 90
        0
176
     1
 40
-0.6
176
     1
 41
-30.0
176
     1
 62
     5
 63
     7
421
 16777215
176
     1
 74
     1
176
     1
 91
        4
176
     1
 64
     7
176
     1
 65
   257
176
     1
 75
     1
176
     1
175
     1
176
     1
 42
1.0
176
     1
 92
       12
176
     1
 66
     7
176
     1
 43
1.0
176
     1
 76
     1
176
     1
 77
     6
176
     1
 78
     2
176
     1
 67
     7
176
     1
 79
     5
176
     1
170
     0
176
     1
171
     0
176
     1
290
     0
176
     1
 93
        1
176
     1
 44
0.0
176
     1
173
     0
176
     1
  0
ENDSEC
  0
EOF
