<?xml version="1.0" encoding="utf-8"?>
<!-- Generator: Adobe Illustrator 18.0.0, SVG Export Plug-In . SVG Version: 6.00 Build 0)  -->
<!DOCTYPE svg PUBLIC "-//W3C//DTD SVG 1.1//EN" "http://www.w3.org/Graphics/SVG/1.1/DTD/svg11.dtd">
<svg version="1.1" id="Layer_1" xmlns="http://www.w3.org/2000/svg" xmlns:xlink="http://www.w3.org/1999/xlink" x="0px" y="0px"
	 viewBox="0 0 432 432" enable-background="new 0 0 432 432" xml:space="preserve">
<path fill="#B09B54" d="M168.5,280.6c2,1.3,3,2.9,3,4.9c0,0.8-0.3,1.7-0.8,2.8c-0.6,1.1-1.4,2.2-2.5,3.3c-1.1,1.1-2.6,2-4.4,2.7
	c-1.8,0.7-3.8,1.1-6.1,1.1c-2.4,0-4.5-0.4-6.1-1.1c-1.6-0.7-2.9-1.6-3.8-2.6c-0.9-1-1.6-2.2-2-3.3c-0.4-1.2-0.6-2.2-0.6-2.9
	c0-1.6,0.9-3.1,2.8-4.6c1.9-1.5,5.3-2.3,10.2-2.3C163,278.7,166.5,279.3,168.5,280.6z M406.4,325.6c-5.3,9.7-10.5,18.4-15.8,26.1
	c-3,4.6-5.6,8.2-7.8,10.9c-2.2,2.7-4.4,5.2-6.6,7.5c-2.3,2.3-4.5,4.1-6.8,5.6c-2.3,1.4-4.4,2.2-6.5,2.2c-6.6,0-11.9-2.9-16-8.8
	c-4.1-5.9-5.3-15.2-3.8-28c0.6-3.8,1.5-7.9,2.7-12.3c1.2-4.4,2.4-8.5,3.5-12.3c1.1-3.8,2-7,2.7-9.5c0.7-2.5,0.7-3.8,0.1-3.8
	c-1.7-0.1-4,1.3-6.9,4.2c-2.9,2.9-5.9,6.9-9,11.8c-3.1,4.9-6,10.5-8.8,16.7c-2.7,6.2-4.9,12.6-6.4,19.1c0,1.4,0,2.5,0.1,3.3
	c0.1,0.8,0.2,1.5,0.4,2.2c0.2,1-0.3,1.8-1.6,2.4c-1.2,0.5-2.7,0.8-4.4,0.8c-1.5,0-3.1-0.3-4.7-0.9c-1.6-0.6-2.7-1.6-3.2-3
	c-1.5-3.7-2.7-8.4-3.7-14.3c-0.5-3.1-0.9-6.3-1.2-9.6c-1.8,3.1-3.5,5.9-5.3,8.7c-2.1,3.3-3.9,5.9-5.4,7.8c-1.5,2-3.1,3.7-4.8,5.3
	s-3.3,2.9-4.9,3.9c-1.6,1-3.2,1.6-4.7,1.6c-4.5,0-8.3-1.4-11.3-4.2c-3-2.8-5.5-6.6-7.3-11.4c-1.5-3.8-2.7-8.1-3.5-12.9
	c-3.2,5.1-6.3,9.9-9.5,14.2c-2.8,4.1-5.3,7.3-7.3,9.6c-2.1,2.4-4.2,4.5-6.4,6.5c-2.2,2-4.3,3.6-6.5,4.9c-2.2,1.3-4.3,2-6.4,2
	c-6,0-10.8-1.6-14.3-4.8c-3.5-3.2-5.2-7.6-5.2-13.2c0-3.8,0.3-7.7,1-11.9c0.7-4.1,1.3-8.1,2-11.9c0.7-3.8,1.3-7.3,2-10.6
	c0.7-3.3,1-5.9,1-7.8c0-1.2-0.2-2-0.7-2.5c-0.5-0.5-1.1-0.8-1.8-1.1c-0.2,0.7-0.7,2-1.4,4.1c-0.8,2.1-1.6,4.3-2.5,6.6
	c-0.9,2.3-2,4.3-3.1,6.1c-0.2,0.2-0.3,0.5-0.5,0.7c0,0.1,0,0.3-0.1,0.4c-3.6,6.9-7.3,13.1-11,18.6c-2.1,3.3-3.9,5.9-5.4,7.8
	c-1.5,2-3.1,3.7-4.7,5.3c-1.6,1.6-3.2,2.9-4.8,3.9c-1.6,1-3.2,1.6-4.7,1.6c-4.7,0-8.7-0.9-12-2.7c-3.3-1.8-5.9-4.4-7.9-7.6
	c-2-3.3-3.4-7.1-4.2-11.6c-0.4-2.3-0.8-4.8-1-7.4c-0.3,0.1-0.6,0.1-0.9,0.2c-5.8,1.5-11.5,3.1-16.9,4.8c-1.5,4.4-3.7,8.8-6.5,12.9
	c-2.8,4.2-6.1,7.9-9.9,11.1c-3.8,3.2-8,5.8-12.9,7.6c-4.8,1.9-9.9,2.8-15.4,2.8c-4.9,0-8.1-0.9-9.6-2.6c-1.5-1.8-2.3-3.5-2.3-5.2
	c0-4.6,3.2-8.9,9.5-13c6.3-4.1,14-7.8,23-11.1c2.1-6.5,3.1-13,3.1-19.4c0-5.5-0.6-9.5-1.7-12.2c-1.1-2.6-2.1-3.9-2.8-3.9
	c-2.6,0-5.3,1.1-7.9,3.3c-2.6,2.2-5.1,5.3-7.3,9.3c-2.3,4-4.4,8.7-6.5,14c-2.1,5.4-3.9,11.2-5.4,17.5c-0.6,4.3-0.8,6.6-0.8,6.9
	c0,0.7-0.5,1.1-1.6,1.5c-1,0.3-2.3,0.5-3.8,0.5c-2.3,0-4.6-0.3-6.9-0.9c-2.4-0.6-3.6-1.3-3.8-2.1c-1.7-7.1-2.9-14.4-3.5-22.2
	c-0.7-7.7-0.9-15.3-0.8-22.8c0.1-7.5,0.4-14.5,0.8-21.3c0.5-6.7,1.1-12.7,1.8-17.8c0.7-5.2,1.5-9.3,2.3-12.4c0.8-3.1,1.3-4.7,1.7-5
	c1.5-0.7,2.9-1.1,4.2-1.3c1.3-0.2,2.8-0.3,4.5-0.3c2.4,0.1,4.9,0.5,7.3,1c2.4,0.5,3.9,1.3,4.2,2.4c0.2,0.4,0.1,2.8-0.1,7.3
	c-0.3,4.4-0.6,10-1,16.7c-0.4,6.7-0.8,14-1.4,21.9c-0.6,7.9-1.1,15.5-1.7,22.8c1.5-3.5,3.2-6.9,5.2-10c2-3.1,4.1-5.9,6.5-8.2
	c2.4-2.4,4.9-4.2,7.8-5.6c2.8-1.4,5.8-2.1,9-2.1c7.3,0,13.4,2.2,18.2,6.6c4.8,4.4,7.2,10.2,7.2,17.6c0,1.7-0.1,3.4-0.4,5
	c-0.3,1.6-0.6,3.3-1,5c1.1-0.3,3.2-0.8,6.4-1.7c3-0.8,6.3-1.7,9.8-2.6c0-0.7,0-1.5,0-2.2c0-5,0.3-9.1,1-12.4
	c0.7-3.3,1.2-5.3,1.6-6.1c0.4-1.2,1.7-2.1,4-2.6c2.3-0.6,4.4-0.9,6.5-0.9c2.8,0,5.3,0.4,7.3,1.1c2.1,0.7,3.1,1.4,3.1,2.1
	c0,0.4-0.1,1.4-0.4,3c-0.3,1.6-0.6,3.7-1,6.1c-0.4,2.4-0.7,5.1-1,8s-0.4,5.9-0.4,8.9c0,4.1,0.3,7.3,0.8,9.8c0.6,2.5,1.3,4.4,2.1,5.8
	c0.8,1.4,1.7,2.3,2.7,2.8c0.9,0.5,1.7,0.8,2.3,0.8c1.7,0,3.7-1.5,6.1-4.5c2.4-3,4.8-6.3,7.2-10c2.6-4.2,5.4-8.9,8.2-14.3
	c0,0,0,0,0,0c0,0,0,0,0-0.1c0.1-0.2,0.1-0.4,0.3-0.6c2.9-5.8,5-11.1,6.5-16c-3,0-5-0.7-5.9-2c-0.9-1.3-1.2-2.7-0.7-4.3
	c0.5-1.6,1.6-3,3.2-4.3c1.7-1.3,3.7-2,5.9-2c2.4,0,4.2,0.7,5.4,2.1c1.1,1.4,1.1,3.8,0,7.2c3,0,5.9,0.1,8.6,0.3
	c2.7,0.2,5.1,0.7,7.1,1.5c2,0.8,3.6,1.9,4.8,3.3c1.2,1.4,1.8,3.5,1.8,6.1c0,1-0.2,2.9-0.7,5.6c-0.5,2.7-1,5.8-1.6,9.2
	c-0.6,3.5-1.1,7.1-1.7,10.8c-0.6,3.7-1,7.1-1.3,10.2c-0.3,3.1-0.2,5.6,0.1,7.6c0.4,2,1.1,3,2.3,3s2.4-0.6,4-1.7
	c1.5-1.1,3.1-2.5,4.7-4.3c1.6-1.8,3.3-3.8,5.1-6c1.8-2.2,3.5-4.5,5.2-6.9c3.6-5.3,7.4-11.3,11.4-18c-0.4-4.6-0.6-9.5-0.6-14.6
	c0-5.1,0.2-10.2,0.6-15.3c0.4-5.1,0.7-9.9,1.1-14.5c-3.2,0.3-6.3,0.4-9.2,0.4c-2.9,0-5.4,0-7.5,0h-3.7c-1.9,0-3.2-0.3-3.8-1
	c-0.7-0.7-0.9-1.4-0.7-2.2c0.2-0.8,0.8-1.5,1.7-2.2c0.9-0.7,2-1,3.1-1c1.1,0,3.5,0,7.2,0.1c3.7,0.1,8.2,0.1,13.7,0.1
	c0.7-5.6,1.5-10.2,2.3-13.8c0.8-3.6,1.3-5.6,1.7-6c0.9-0.9,2.4-1.5,4.5-1.9c2.1-0.3,4.1-0.5,6.2-0.5c2.4,0,4.9,0.4,7.3,1.1
	c2.4,0.7,3.7,1.9,3.7,3.4c0,0.7-0.2,2.5-0.7,5.5c-0.5,3-1,6.8-1.6,11.4c5.6-0.3,11.3-0.7,16.9-1.2h0.6c1.1,0,1.9,0.3,2.4,0.8
	c0.5,0.5,0.7,1.1,0.6,1.7c-0.1,0.6-0.5,1.1-1.1,1.7c-0.7,0.5-1.6,0.9-2.7,1c-2.8,0.3-5.7,0.5-8.6,0.7c-2.9,0.2-5.8,0.4-8.6,0.7
	c-0.6,5.2-1.1,10.9-1.6,17.1c-0.5,6.1-0.7,12.2-0.7,18.2c0,4.1,0,8.3,0.1,12.7c0.1,4.4,0.3,8.4,0.7,12.1c0.4,3.7,0.8,6.7,1.4,9
	c0.6,2.4,1.3,3.5,2.3,3.5c1.7,0,3.7-1.4,6.1-4.3c2.4-2.9,4.7-6.1,6.9-9.6c2.4-4,5-8.5,7.7-13.6c-0.2-6.4-0.3-13-0.1-19.7
	c0.2-7.3,0.6-14.1,1.1-20.6c0.6-6.5,1.3-12.2,2.1-17.3c0.8-5,1.7-8.7,2.7-11.1c0.9-1.4,2.7-2.3,5.2-2.6c2.5-0.3,4.8-0.5,6.9-0.5
	c4.1,0.3,7.1,0.9,8.9,2c1.8,1,2.6,2.2,2.4,3.5c0,0.4-0.1,1.5-0.4,3.4c-0.3,1.9-0.7,4.2-1.1,7c-0.5,2.7-1,5.8-1.6,9.2
	c-0.6,3.4-1,6.9-1.4,10.6c-1.1,9-2.1,16.8-2.8,23.4c-0.8,6.6-1.3,12.4-1.7,17.4c2.3-4.6,4.8-9,7.5-13.2c2.7-4.2,5.6-8,8.8-11.3
	c3.1-3.3,6.5-5.9,10.2-7.8c3.7-2,7.5-2.9,11.4-2.9c4.3,0,8,1.5,11.2,4.4c3.1,2.9,4.7,6.2,4.7,9.9c0,2.1-0.5,4.7-1.4,7.8
	c-0.9,3.1-2,6.8-3.2,10.9c-1.2,4.1-2.4,8.7-3.7,13.6c-1.2,5-2.2,10.3-3,16.1c-0.4,3.8-0.1,6.2,0.7,7.3c0.8,1,1.9,1.6,3.2,1.6
	c1.1,0,2.4-0.6,4-1.8c1.5-1.2,3.1-2.7,4.8-4.7c1.7-2,3.4-4.2,5.2-6.7c1.8-2.5,3.5-5,5.2-7.6c4-6,8.1-12.9,12.4-20.6
	c0.6-0.9,1.5-1.4,2.8-1.4c0.9,0,1.8,0.3,2.5,0.8C406.6,323.9,406.8,324.6,406.4,325.6z M96.3,347.3c-7,2.9-12.5,5.8-16.5,8.6
	c-4.1,2.9-6.1,5.8-6.1,8.6c0,1.3,0.4,2.2,1.1,2.5c0.8,0.4,1.5,0.6,2.3,0.6c3.4,0,6.8-1.9,10.2-5.8C90.7,358.1,93.7,353.2,96.3,347.3
	z M53.8,174.7c-3.2-1.1-5.7-2.7-7.5-4.4c-1.9-1.9-2.8-4.2-2.8-6.7c0-9,5.1-15.8,15.8-20.8c8.9-4.2,20.5-6.5,31.8-8.7
	c-4.3-3.2-9.2-6.3-14.4-9.6c-9.5-6-19.4-12.3-27-19.7c-0.9-0.7-1.6-1.6-2.3-2.3l-8.1,1.9c-13.3,3.1-23.9,5.5-23.9,14.6
	c0,1-1.3,1.9-2.9,1.9c-1.6,0-2.9-0.8-2.9-1.9c0-5.3,2.9-9.3,8.9-12.3c5.1-2.6,11.7-4.1,18.8-5.7l7.3-1.7c-5.4-6.9-8.1-13.8-8.1-21.1
	c0-3.6,1-6.9,2.9-9.7c2.1-2.8,5-5,8.5-6.5c10.4-4.3,25.7-1.9,28.6,6.6c1.2,3.5,1,8.1-0.3,13.1c-1.8,6.1-5.7,10.9-12.2,14.7
	c6.6,8,17.3,14.3,27.7,20.4c6.9,4.1,13.9,8.2,19.6,12.9c5.3-1.5,9.9-3.4,13.1-5.8c-0.1-1.2-0.1-2.5-0.1-3.8c0-8.1,1.5-14.8,4.2-19.8
	c2.8-4.8,6.6-8.1,11.4-9.2c8.5-2.3,18.3,1.8,24.9,10.4l2.8-10.8c1.2-5.4,21.4-4.5,18.9,7.2c0,0-2.1,8.6-3.8,22.7
	c-3.4,28-1.6,42.4,11,11.1c2.8-6.9,5-13.9,6.7-19.4c-7.4-8.5-13.1-19.6-13.1-35.4c0-4.1,0.9-8.2,2.6-11.6c1.8-3.5,4.4-6.3,7.3-8.2
	c2.6-1.6,5.6-2.5,8.6-2.5c14.9-0.9,18,11.7,16.1,24.6c-1.2,7-3.5,13.9-7,20.4c4.5,5.9,10.5,10.4,16.9,14.9c3.4,2.5,6.9,5,10,7.8
	c4.7-3.7,9.1-7.5,12.4-11.8c-6.7-8.3-11.6-18.9-11.6-33.6c0-4.1,0.9-8.2,2.6-11.6c1.8-3.5,4.4-6.3,7.3-8.2c2.6-1.6,5.6-2.5,8.6-2.5
	c14.9-0.9,18,11.7,16.1,24.6c-1.2,7-3.5,13.9-7,20.4c4.5,5.9,10.6,10.4,16.9,14.9c3.4,2.5,6.9,5,10,7.8c6.9-5.4,13-10.9,16-18
	c0.3-1.8,0.6-3,0.7-3.1c2.2-7.8,20.7-6,19.6,4.4c0,0-1.2,4.5-1.3,12.9c-0.6,24.8,10.3,17.1,17.7,0.1c4.5-11,6.7-22.3,6.7-22.4
	c0-4.8,18.8-7.6,20.4,0.1c0,0.1,1.9,14.8,2.8,33.1c7.5-7.8,14.7-16.7,20.4-28c0.7-1.5,2.5-2.1,4-1.3c1.3,0.7,1.9,2.5,1.2,4
	c-6.9,13.8-16,24.3-25.2,33.4v0.4c0.6,30.2-2.6,51.3-9.7,62.7c-5.3,8.4-11.4,14.4-18.2,17.3c-2.9,1.2-6,1.9-8.9,1.9
	c-3.1,0-6-0.7-8.8-2.2c-4.8-2.6-8.4-7.3-9.7-13.2c-1.5-6.2-0.6-13.2,2.6-20.2c6.7-14.9,19.1-25.5,32.1-36.5v-9.7
	c-0.3-9.2-0.7-18-1.3-25.1l-2.9,7.8c-2.9,6.9-6.2,12.5-9.7,16.4c-4.7,5.4-10,8.2-15.5,8.2c-5.7,0-10.1-2.1-13.3-6.2
	c-3.8-4.8-5.5-12.3-5-22.3c-3,3.4-6.6,6.5-10.3,9.4c5.6,6,9.4,13.3,9.5,23.7c0,6-1.5,11.6-4.4,16.4c-2.5,4.4-6.2,7.9-10.6,10.6
	c-4.4,2.5-9.2,3.8-13.6,3.8c-9.5,0-16.9-6.4-16.9-16.7c0-8.1,2.8-15.4,8.5-22.3c2.2-2.6,4.8-5.1,7.5-7.5c-2.5-2.2-5.4-4.4-8.5-6.9
	c-4.8-3.7-10-7.7-14.8-12.6c-3.4,4.2-7.6,7.9-12.1,11.5c5.6,6,9.4,13.3,9.5,23.7c0,6-1.5,11.6-4.4,16.4c-2.5,4.4-6.2,7.9-10.6,10.6
	c-4.4,2.5-9.2,3.8-13.6,3.8c-9.5,0-16.9-6.4-16.9-16.7c0-8.1,2.8-15.4,8.5-22.3c2.2-2.6,4.8-5.1,7.5-7.5c-2.5-2.2-5.4-4.4-8.5-6.9
	c-4.1-3.1-8.4-6.5-12.6-10.5c-1.6,5-3.6,10.9-5.9,16.8c-3.5,9.1-12.3,30.6-25.1,30.6c-3.5,0-6.6-1.5-8.9-4.8
	c-2.5-3.7-4-9.5-4.2-17.6c-0.1-5.1,0.1-11.1,0.9-17.9c-4.7,8.6-12.6,21.1-25.1,21.1c-3.9-0.4-10-3.2-11.9-16.4
	c-1.8,1-3.9,1.9-6.3,2.7l-3.8,1.2c6.3,5.9,9.4,12.1,9.4,18.7c0.1,4.4-1.9,8.6-5.9,12.4c-3.7,3.3-8.7,6.1-15,8.5
	C90,177.2,68.7,180.3,53.8,174.7z M359.7,155.3c-11,9.5-21.1,18.8-26.7,31.1c-2.6,5.9-3.4,11.6-2.2,16.6c3.7,16,14.5,3.8,20.2-5.6
	C356,189.3,358.9,174.9,359.7,155.3z M285.8,138.4c-8.1,6.9-14.2,14.5-14.2,25.5c0,19.3,19-0.4,19-14.1
	C290.6,145.5,288.9,141.8,285.8,138.4z M263.4,76.6c0,6.7,1.3,12.2,3.5,16.9c2.3-5,4.1-10.3,4.8-15.4c0.9-5.7,0.7-10.7-0.6-13.8
	c-0.9-1.8-2.2-3.2-4.1-1.9C266.2,63.1,263.4,66,263.4,76.6z M230.6,138.4c-8.1,6.9-14.2,14.5-14.2,25.5c0,19.3,19-0.4,19-14.1
	C235.4,145.5,233.6,141.8,230.6,138.4z M208.1,76.6c0,6.7,1.3,12.2,3.5,16.9c2.3-5,4.1-10.3,4.8-15.4c0.9-5.7,0.7-10.7-0.6-13.8
	c-0.9-1.8-2.2-3.2-4.1-1.9C210.9,63.1,208.1,66,208.1,76.6z M145.1,120c0,11.1,1.3,19.2,7.8,7.8c3.8-5.4,7.2-12.2,10-19.6
	c-0.1-0.1-0.3-0.3-0.3-0.4C152.4,91,145.1,102.8,145.1,120z M61.6,92.6c4.3-2.8,7.5-6.5,8.9-11.8c1.3-4.4,1.3-8.6,0.3-11.7
	c-0.6-2.2-3.8-6.3-8.2-4C61,66,57.2,68.8,57.2,78C57.2,83.5,58.8,88.3,61.6,92.6z M56.7,171.5c18.2,6.3,47.2-6.7,47.2-20.3
	c0-4.9-3.4-9.5-8.8-14.1l-1.5,0.3c-11,2.2-22.4,4.4-30.8,8.3c-9.2,4.4-13.5,9.9-13.5,17.8C49.4,167.1,51.9,169.7,56.7,171.5z
	 M419.8,250.4c-2.4-1.4-5.6-0.6-7,1.8c-0.7,1.3-0.9,2.7-0.5,4l-21.8,6.6l6.3-32.3c2,0.3,4.1-0.6,5.2-2.4c1.4-2.4,0.6-5.6-1.8-7
	c-2.4-1.4-5.6-0.6-7,1.8c-1.3,2.2-0.7,5,1.2,6.5l-22.6,22.8l-6.2-23.6c1.3-0.3,2.5-1.1,3.2-2.4c1.4-2.4,0.6-5.5-1.8-7
	c-2.4-1.4-5.6-0.6-7,1.8c-1.4,2.4-0.6,5.6,1.8,7c0.2,0.1,0.3,0.3,0.4,0.3l-18.1,40c0.4,0,0.8,0,1.1,0c17,0,31.9,10.8,38,25.8
	l0.4,0.2l30-35.8c0.3,0.2,0.7,0.3,1,0.4c2.4,1.4,5.6,0.6,7-1.8C423.1,255,422.3,251.8,419.8,250.4z"/>
<path fill="#141414" d="M149.6,186c-0.3-1.5-0.1-2.9,0.6-4.3c0.7-1.3,1.9-2.1,3.5-2.4c1.5-0.4,3-0.1,4.3,0.8
	c1.4,0.9,2.3,2.2,2.8,3.8c0.4,1.6,0.3,3.1-0.5,4.4c-0.7,1.3-1.9,2.1-3.4,2.4c-1.7,0.3-3.2,0-4.6-0.9
	C151.1,188.9,150.2,187.6,149.6,186z M327.6,219c-8.5,17.4-15.9,27-22,28.8c-6.1,1.9-11.8,1.2-17-2.1c-4.7-2.9-7.8-8.2-9.3-15.6
	c-0.7,0.8-1.5,1.7-2.3,2.6c-6.6,7.3-12.7,11.8-18.4,13.5c-5.7,1.8-11.5,2.1-17.4,1c-6.1-1.3-10.5-4.8-13.4-10.5
	c-1-1.9-1.7-4-2.2-6.1c-4.2,9.8-8.3,18.1-12.3,25.1c-5.2,9.2-9.2,12.8-12,10.7c-2.8-2.1-3.8-9.4-3.2-21.8
	c0.6-12.5,0.8-23.6,0.3-33.4c-0.4-9.8-1.9-11.7-4.4-5.6c-2.5,6.1-5.1,14.4-8,24.9l-2.8,21.7c-8.9,2.7-12.5-0.4-11-9.3
	c0.3-4.3,0.5-8,0.6-11.3c-1.9,3.5-3.6,6.7-5.4,9.8c-3.9,7-7.6,11.2-11.2,12.5c-3.5,1.3-6.4-0.1-8.5-4.3s-3.3-10.7-3.6-19.6
	c-0.1-2.1-0.1-4.4-0.1-6.8c-3.3,3.3-7.1,6.3-11.5,9c3.1,2.3,3.6,5.7,1.6,10.3c-2.7,5.9-9.6,11.5-20.6,16.8
	c-11.6,3.4-17.4,1.5-17.6-5.8c0.8-5,6.8-10.2,18-15.6c-19.8-6-28.2-14.4-25.1-25c4.1-8,9.5-13.4,16.3-16c8.5-3.8,14.2-3.8,17-0.3
	c2.9,3.6,2.7,7.5-0.4,11.9c-3.1,4.3-6.5,7.1-10.2,8.3c-3.6,1.2-6.6,0.4-8.9-2.4c8.4-2.1,13.7-5.8,15.9-11.3c2.3-5.4-0.3-5.7-7.7-0.9
	c-7.4,4.8-11.3,9.5-11.7,13.9c5.3,6.2,14.1,10.8,26.4,13.8c7.2-2.7,13.3-7.7,18.5-14.8c0.3-5.7,0.7-12,1.4-19
	c6.3-3.1,11.2-2.9,14.8,0.6c-1.8,11.2-3.2,20.2-4.2,26.9c-1.1,6.7-1.9,13.6-2.6,20.7c-0.7,7.1,0.8,7.5,4.4,1.2
	c3.4-6,8.4-15.8,14.9-29.4c0.1-4.8,0.2-11.2,0.4-19.1c9.1-1.5,12.5,7.3,10.1,26.4c2.9-15,6.1-23.2,9.7-24.8c3.6-1.5,8-1.1,13.3,1.3
	c5.3,2.4,7.9,7.9,7.7,16.6c-0.2,8.7-2,19.5-5.3,32.5c-3.3,13,2.2,1.5,16.6-34.4c0.1,0,0.1,0,0.2,0c1.4-6.5,4.2-12.8,8.5-18.9
	c4.5-5.6,9.9-8.8,16.2-9.8c6.1-0.9,11-0.4,15,1.4c3.9,1.8,5.8,4.1,5.7,6.9c-0.1,2.7-1.4,4.6-3.8,5.4c-2.5,0.9-4.5,0.9-6,0
	c-1.6-0.9-1.7-1.9-0.4-3.2c1.3-1.3,1.7-2.3,1.2-3c-0.5-0.7-1.7-1.1-3.7-1.1c-2,0-4.9,1.6-8.6,4.9c-5.4,6.2-8.7,12-10,17.4
	c-1.3,5.4-1.4,10.8-0.2,16.2c1.1,5.4,3.6,8.8,7.4,10.2c3.8,1.4,8.4,0.6,13.7-2.5c5.3-3.1,9.5-6.6,12.6-10.5c1.8-2.3,3.6-4.5,5.2-6.6
	c-0.1-6.6,1.2-12.7,4-18.3c1.6-3.9,4.7-8.5,9.3-13.8c9-2.5,15.7-0.4,20,6.4c-1.2,7.2-4.2,13.8-8.8,19.7c-4.6,5.9-8.7,9.7-12.1,11.4
	c1.3,9.5,3.2,15.1,5.8,16.9c2.6,1.7,5.7,1.2,9.3-1.6c3.7-2.8,9.1-11.7,16.2-26.7C326.3,214.6,328.1,215.8,327.6,219z M119.8,240
	c-13.5,8.3-19,13.1-16.5,14.3c3.6,2.3,9,0,16.4-6.9C123.2,242.8,123.3,240.4,119.8,240z M290.3,221c3.9-3.3,7.3-7.5,10.3-12.4
	c3-4.9,4.2-8.6,3.4-11.1c-0.7-2.4-2.2-1.9-4.5,1.8c-2.2,3.6-4.1,7.2-5.5,10.7C292.6,213.5,291.4,217.2,290.3,221z M59,214.5
	c0.1-0.2,0.2-0.4,0.2-0.4c0.2,0,0.2-1-0.1-1.5c-0.4-0.8-1-1.1-4.9-2.8c-4.2-1.8-6.9-2.8-8.9-3.2c-1.6-0.3-5.4-0.4-6.9-0.1
	c-2.3,0.5-4.5,1.9-5.4,3.6c-0.6,1.1-0.6,2.7-0.2,3.9c0.5,1.2,0.9,1.8,1.9,2.8c1.8,1.7,4.9,2.9,7.9,3.1c3.1,0.2,7.4-0.6,10.3-1.9
	C55.2,217.2,58.9,215,59,214.5z M76.3,218c-4.6,0.8-7.8,1.9-10.9,3.6c-2.1,1.1-3.2,2-4.6,3.4c-3.2,3.3-4.4,6.6-3.7,9.5
	c0.5,1.9,1.9,3.6,3.8,4.5c3.4,1.6,7,0.4,9.5-3.1c0.8-1.2,2.1-3.8,2.7-5.5c0.8-2.3,1.2-3.1,2.1-4.3c1-1.4,3.1-3.4,4.1-4
	c1.6-0.9,2.3-2.1,2-3.1C80.8,217.5,80,217.3,76.3,218z M80.8,205.3c-4.3-4.9-6.4-7.9-9.1-13.4c-2.1-4.3-2.8-5.2-4.3-6
	c-0.8-0.4-1-0.4-2.2-0.4c-2.7,0.1-4.8,1.7-5.8,4.1c-0.4,1-0.4,1.4-0.4,2.8c0,0.9,0.1,2.1,0.2,2.5c0.4,1.5,1.9,4.3,3,5.8
	c1.9,2.4,4,4,7.9,5.9c3.8,1.9,6.9,2.9,9.5,2.9c1.7,0,1.8,0,2.4-0.9c0.3-0.5,0.4-1.2,0.1-1.8C82,206.7,81.4,206,80.8,205.3z"/>
</svg>
