<?xml version="1.0" encoding="utf-8"?>
<!-- Generator: Adobe Illustrator 22.1.0, SVG Export Plug-In . SVG Version: 6.00 Build 0)  -->
<svg version="1.0" id="Layer_1" xmlns="http://www.w3.org/2000/svg" xmlns:xlink="http://www.w3.org/1999/xlink" x="0px" y="0px"
	 viewBox="0 0 432 432" style="enable-background:new 0 0 432 432;" xml:space="preserve">
<style type="text/css">
	.st0{fill:#B3000C;}
	.st1{fill:#0D5901;}
</style>
<path class="st0" d="M40.8,127.3c-0.1-0.3,0-0.5,0-0.5c2.3,0,11.7,1.6,12,2.2c-0.1-0.3,7.1-8.9,15.8-8.9c15.4,0,17.3,19.1,18,28.7
	c2.6-11,10.2-23.4,22-23.4c29,0,11.5,63.1,4.1,62.6l-8.8-0.5c9.6-10.2,8.5-43.4,1.4-43.4c-11.7,0-15.9,29.8-17,37.9
	c0,0.3-0.1,0.7-0.1,1l-8.8,1.5c0.3-9.9,0.1-15.5-1.9-25.7c-0.8-4.7-5.1-16.8-11.1-16.8c-5.1,0-7.3,10.4-7.3,14.3
	c0,14.1,3.7,29,7.8,36c-22.1,5.9-22.3,6-22.3,6C50.1,163.3,42.7,132.4,40.8,127.3z M129.7,153.4c0-16.1,10.9-36.1,29-36.1
	c17.6,0,24.3,16.6,25.7,31.9l-39.4,8.8c0,8.9,1.6,16.6,6,24.5c6.2,11.3,26.5,9.1,26.8-5.6v-0.5c-1.9,2.3-4.3,2.9-7.1,2.9
	c-5.9,0-9.8-3.2-9.8-9.2c0.5-5.9,5.4-12.1,11.5-12.1h0.8c7.7,0,13.5,4.7,13.5,12.5c0,13.6-8.1,27.5-23.1,27.5h-1.2
	C138.2,197.8,130.5,173.9,129.7,153.4z M145.8,149.5l27.6-3.8c0-6.7-5.5-17-13.2-17C151.1,128.6,145.8,141.8,145.8,149.5z
	 M188.5,116.9l12.1,0.8l0.5,6c6.9-6.6,16.2-11.7,25.4-11.7c14,0,16.8,13.6,16.8,27.5c0,20.2-27.2,19.2-27.2,2.1
	c0-8.1,4.7-12.6,13.5-12.6c2.2,0,3.3,0.1,5.6,0.8v-0.3c-1.5-4.5-7.6-6.6-11.7-6.6c-35.9,0-8.7,77.5-10.6,75.6l-22.4,2.2
	C192.1,200.7,196.5,164.6,188.5,116.9z M235.6,130.5c0.3,0,0.3-0.4,0-0.4C235.5,130.1,235.5,130.5,235.6,130.5z M248.5,116.9
	l12.1,0.8l0.5,6c6.9-6.6,16.2-11.7,25.4-11.7c14,0,16.8,13.6,16.8,27.5c0,20.2-27.2,19.2-27.2,2.1c0-8.1,4.7-12.6,13.5-12.6
	c2.2,0,3.3,0.1,5.6,0.8v-0.3c-1.5-4.5-7.6-6.6-11.7-6.6c-35.9,0-8.7,77.5-10.6,75.6l-22.4,2.2C252.1,200.7,256.5,164.6,248.5,116.9z
	 M295.6,130.5c0.3,0,0.3-0.4,0-0.4C295.5,130.1,295.5,130.5,295.6,130.5z M331.9,176.4c5.1,0,15.8-1.2,15.2-12.8
	c6.6,17.2,0.8,70.7-20.3,54.9c6.5-2.5,11-4.8,11-13.7c0-11.4-25-13.6-25,1.4c0,33.5,39.6,21,45.6-1.1c5.5-19.9,2.6-72.9,2.6-86.4
	v-1.5l-21,5.2c2.9,9.1,12.1,41.4-5.2,41.4c-20.3,0-13.3-29-3.3-36.4l-16.9-1.5C299.6,144.1,309.2,176.4,331.9,176.4z M107.9,349.1
	c0,1.1,0,2.3-0.1,3.4c-1.2,16.6-11.7,33.5-33,33.5c-1,0-5.6-0.1-8.1-0.5c0.5,1.5,2.3,5.2,2.7,6L50,395.6
	c-1.6-87.6-6.9-97.8-9.6-107.2l20.2-2.7c-4.4,7.1-3.7,21.7-3.8,33.5c5.1-4,11.7-6.6,19.5-6.6C98.9,312.7,107.9,331.3,107.9,349.1z
	 M75.4,322.5c-12.4,0-14.8,14.6-15.2,22.7c-0.8,10.7,0.1,31.7,17.2,31.7c11.8,0,13.6-15.4,14.1-22.5
	C92.1,344.7,91.2,322.5,75.4,322.5z M162.3,329.6c0,20.2-27.2,19.2-27.2,2.1c0-8.1,4.7-12.6,13.5-12.6c2.2,0,3.3,0.1,5.6,0.8v-0.3
	c-1.5-4.5-7.6-6.6-11.7-6.6c-35.9,0-8.7,77.5-10.6,75.6l-22.4,2.2c1.5,0,5.9-36.1-2.1-83.8l12.1,0.8l0.5,6
	c6.9-6.6,16.2-11.7,25.4-11.7C159.6,302.1,162.3,315.7,162.3,329.6z M154.6,320.1c-0.1,0-0.1,0.4,0,0.4
	C154.9,320.5,154.9,320.1,154.6,320.1z M186.2,322h-19.4c1,20.7,7.3,36.4,1.9,65.4h19.4C187.2,366.4,180.9,344,186.2,322z
	 M175.5,282.7c-8.8,0-15,6.3-15,13.9s6.2,13.9,15,13.9s14.6-6.3,14.6-13.9S184.3,282.7,175.5,282.7z M268.8,403.6
	c0,8.2-5.6,14.8-12,18.4c-12.5,6.9-64.3,17.2-64.3-12.1c0-10.9,14.6-16.1,22.5-16.1c5.6,0,13.6,2.5,13.6,10.3c0,8.5-8.8,11-14.8,11
	c-3.2,0-5.1-0.5-8.7-1.8c0.1,18.1,43,9.2,42.2-13.1c-0.8-22.4-44.8-11.3-54.7-11.3h-0.8l21-18.8c-14.6-8.4-18-16.1-18-23.9
	c0-18.8,25-28.7,41.2-29.8c-2.7-1.4-5.2-3.7-5.2-7.1c0-7.7,7.6-14.7,14.6-14.7c6,0,12,4.7,12,11.4c0,8.1-12.5,8.1-17.2,5.8
	c0,1.4,0.4,3.4,1.6,3.8c19.1,8.8,23.8,18.3,23.8,25.8c0,29.9-24.7,30.5-46,30.5c-1.2,0-11.4,6.5-12.1,8.1
	C225.8,374.1,268.8,374.5,268.8,403.6z M228.8,361.8c11.7,0,22.9-5.1,22.9-18.8c0-10-10.6-15.7-19.1-15.7
	C208.8,327.4,201.3,361.8,228.8,361.8z M303.3,312.8c-8,0-10.9,2.1-15.8,5.5c0.5-8.8,1.2-22.8,2.1-33l-23.2-8l1,2.3
	c4.7,10.4,12.1,27.1,1.4,107.3l21,0.1c-0.4-15.4-17.2-65.1,13.9-65.1c27.5,0,9.3,43.8,2.2,61.1c-0.4,1.1-0.8,2.2-1.2,3l26.2,2.2V386
	C330.7,356.5,345,312.8,303.3,312.8z M400.5,370.1c-2.5-15.9-25-18.8-25-1.4c0,12.1,13.1,15.1,19.2,5.5c2.7,9.9-4.7,15.2-15.2,15.2
	c-16.8-1.8-18-34.8-18.3-50.1l18.4-0.8l3-11l-21.4,3.6l5.5-44.2l-19.5-1.1c1.4,28.6,2.1,31.6,1.4,45.9l-10.4,0.8l2.2,9.9l7.7-1.9
	c-4.8,29.7,1.5,57.7,31.2,57.7C395,398.1,403.1,386.7,400.5,370.1z"/>
<path class="st1" d="M82.8,269.7c0.3,1.5-1.2,2.9-2.7,2.1c-6.1-3.6-11.5-8.1-16.8-12.7c-8.2,5.5-16.7,10.7-25.4,15.4
	c-1.7,0.9-3.2-1-2.6-2.3c-0.4-0.5-0.5-1.2-0.2-1.9c4.2-8.2,8.4-16.5,12.4-24.8c-5.3-4.6-10.7-9.3-16-13.9c-1-0.8-0.5-2.9,0.8-3.1
	c7.8-1.2,15.8-1.1,23.8-0.9c3.1-6.5,6.1-13,9-19.6c0.6-1.3,2.5-1.1,3.2,0c2.5,4.2,3.4,9,4.4,13.7c0.4,2,0.9,4.1,1.3,6.1
	c8,0.1,16.1,0.1,24.1,0.2c1.5,0,2.5,2,1.3,3.1c-6.8,6-13.8,11.8-21,17.2C79.8,255.5,81.3,262.6,82.8,269.7z M354.3,250.7
	c-7-0.1-14-0.1-20.9-0.2c-0.4-1.8-0.7-3.5-1.1-5.3c-0.9-4.1-1.6-8.3-3.8-11.9c-0.6-0.9-2.2-1.1-2.7,0c-2.6,5.7-5.2,11.3-7.8,17
	c-6.9-0.2-13.9-0.3-20.6,0.8c-1.2,0.2-1.6,1.9-0.7,2.7c4.6,4,9.3,8,13.9,12.1c-3.5,7.2-7.1,14.4-10.8,21.6c-0.3,0.6-0.2,1.2,0.1,1.7
	c-0.5,1.2,0.8,2.8,2.3,2c7.5-4.1,14.9-8.6,22-13.4c4.6,4,9.4,7.9,14.6,11c1.3,0.7,2.6-0.5,2.3-1.8c-1.3-6.2-2.6-12.3-3.9-18.5
	c6.3-4.7,12.4-9.7,18.3-15C356.5,252.4,355.6,250.7,354.3,250.7z M132.7,73.9c-3.4-25.4,24-27.3,24-7.8c0,8-5.1,13.5-12.6,11
	c29.4,64.6,90.9-21,27.1-16.2l0.8,11.5l-11-3.6l-3.3-50.4c-3,0.1-10.2,0-13.3-0.7l1-13.5c0.5-1.2,18.1-1.8,22-1.8
	c18.7,0,42.7,1.1,44.2,25v1.2c0,15.5-20.5,17.9-24.2,20.1C277.5,84.8,145.2,158.4,132.7,73.9z M192.1,28.3v-1.5
	c-0.7-9.8-17.3-9.8-22.5-8.4c-0.1,0.4-0.4,2.3,1.8,28.3C182.8,44.9,192.1,40.4,192.1,28.3z M220.6,63.1c0-16.1,10.9-36.1,29-36.1
	c17.6,0,24.3,16.6,25.7,31.9l-39.4,8.8c0,8.9,1.6,16.6,6,24.5c6.2,11.3,26.5,9.1,26.8-5.6v-0.5c-1.9,2.3-4.3,2.9-7.1,2.9
	c-5.9,0-9.8-3.2-9.8-9.2c0.5-5.9,5.4-12.1,11.5-12.1h0.8c7.7,0,13.5,4.7,13.5,12.5c0,13.6-8.1,27.5-23.1,27.5h-1.2
	C229.1,107.4,221.4,83.5,220.6,63.1z M236.7,59.1l27.6-3.8c0-6.7-5.5-17-13.2-17C242,38.2,236.7,51.4,236.7,59.1z M149.9,211.7
	c0,10.4,2.6,57.7,3.3,63.3v0.7c-4.3,0.5-13.3,2.1-17,1.9v-9.8c-13.1,14.3-40.1,17.2-44.1-2.1c-7.6-29.1,21.6-41.5,45.3-31.9
	c0-11.7-0.8-33.1-18.4-33.1c-6.6,0-13.2,4.4-13.2,11.8c0,3.8,2.9,4.7,5.5,4.7c0-4.3,0.3-8.2,5.6-8.2c3.4,0,6,2.3,6,5.9
	c0,6.7-5.1,9.3-11.4,9.3c-6.7,0-12.8-3.8-12.8-11.4c0-13.1,13.9-20.3,25.3-20.3C134.8,192.6,149.9,198.8,149.9,211.7z M138.4,250.3
	c0-7.4-9.2-12.8-16.6-12.8c-10.3,0-15.9,6.9-15.9,16.6c0,6,2.5,13.6,9.8,13.6C124.5,267.8,138.4,259.9,138.4,250.3z M195.9,204.6
	c-10.2,0-13.6,3.6-19.4,9.5l-1.5,1.6l-0.7-6.9l-14.3,1c3.2,25.1,3.3,35,0,59.9c0,0.1,0.1,0.4,0.1,0.4l21.2,3
	c-2.7-7.7-3.4-15.7-4.5-23.5v-1.8c0-9.3,0.1-28.4,14.3-28.4c25.6,0,10.4,61.4,10.7,60.3l11.7,2.5
	C223.4,257.9,228.6,204.6,195.9,204.6z M295.1,181.1c-10,60.3-8.8,78-4.4,94.5l-18.7,1l0.7-5.1c-4.4,3-9.9,4.8-16.3,4.8
	c-0.8,0-5.2-0.1-6-0.1c-16.5-4.7-24.3-20.2-24.3-35.9c0-1.1,0-2.3,0.1-3.4c1.1-16.9,12.2-34.5,31.6-34.5c8,0,14.2,2.6,18.7,6.9
	c-0.1-9.1-0.5-18.4-1.2-28.2H295.1z M257.1,212.3c-11.8,0-14,14.7-14.4,22.9c-0.8,10.9,0.1,31.9,16.2,31.9c11,0,12.6-15.5,13.2-22.7
	C272.7,234.5,271.8,212.3,257.1,212.3z"/>
</svg>
