  0
SECTION
  2
HEADER
  9
$ACADVER
  1
AC1024
  9
$ACADMAINTVER
 70
     6
  9
$DWGCODEPAGE
  3
ANSI_1252
  9
$INSBASE
 10
0.0
 20
0.0
 30
0.0
  9
$EXTMIN
 10
1.000000000000000E+20
 20
1.000000000000000E+20
 30
1.000000000000000E+20
  9
$EXTMAX
 10
-1.000000000000000E+20
 20
-1.000000000000000E+20
 30
-1.000000000000000E+20
  9
$LIMMIN
 10
0.0
 20
0.0
  9
$LIMMAX
 10
12.0
 20
9.0
  9
$ORTHOMODE
 70
     0
  9
$REGENMODE
 70
     1
  9
$FILLMODE
 70
     1
  9
$QTEXTMODE
 70
     0
  9
$MIRRTEXT
 70
     1
  9
$LTSCALE
 40
1.0
  9
$ATTMODE
 70
     1
  9
$TEXTSIZE
 40
0.2
  9
$TRACEWID
 40
0.05
  9
$TEXTSTYLE
  7
Standard
  9
$CLAYER
  8
0
  9
$CELTYPE
  6
ByLayer
  9
$CECOLOR
 62
   256
  9
$CELTSCALE
 40
1.0
  9
$DISPSILH
 70
     0
  9
$DIMSCALE
 40
1.0
  9
$DIMASZ
 40
0.18
  9
$DIMEXO
 40
0.0625
  9
$DIMDLI
 40
0.38
  9
$DIMRND
 40
0.0
  9
$DIMDLE
 40
0.0
  9
$DIMEXE
 40
0.18
  9
$DIMTP
 40
0.0
  9
$DIMTM
 40
0.0
  9
$DIMTXT
 40
0.18
  9
$DIMCEN
 40
0.09
  9
$DIMTSZ
 40
0.0
  9
$DIMTOL
 70
     0
  9
$DIMLIM
 70
     0
  9
$DIMTIH
 70
     1
  9
$DIMTOH
 70
     1
  9
$DIMSE1
 70
     0
  9
$DIMSE2
 70
     0
  9
$DIMTAD
 70
     0
  9
$DIMZIN
 70
     0
  9
$DIMBLK
  1

  9
$DIMASO
 70
     1
  9
$DIMSHO
 70
     1
  9
$DIMPOST
  1

  9
$DIMAPOST
  1

  9
$DIMALT
 70
     0
  9
$DIMALTD
 70
     2
  9
$DIMALTF
 40
25.4
  9
$DIMLFAC
 40
1.0
  9
$DIMTOFL
 70
     0
  9
$DIMTVP
 40
0.0
  9
$DIMTIX
 70
     0
  9
$DIMSOXD
 70
     0
  9
$DIMSAH
 70
     0
  9
$DIMBLK1
  1

  9
$DIMBLK2
  1

  9
$DIMSTYLE
  2
Standard
  9
$DIMCLRD
 70
     0
  9
$DIMCLRE
 70
     0
  9
$DIMCLRT
 70
     0
  9
$DIMTFAC
 40
1.0
  9
$DIMGAP
 40
0.09
  9
$DIMJUST
 70
     0
  9
$DIMSD1
 70
     0
  9
$DIMSD2
 70
     0
  9
$DIMTOLJ
 70
     1
  9
$DIMTZIN
 70
     0
  9
$DIMALTZ
 70
     0
  9
$DIMALTTZ
 70
     0
  9
$DIMUPT
 70
     0
  9
$DIMDEC
 70
     4
  9
$DIMTDEC
 70
     4
  9
$DIMALTU
 70
     2
  9
$DIMALTTD
 70
     2
  9
$DIMTXSTY
  7
Standard
  9
$DIMAUNIT
 70
     0
  9
$DIMADEC
 70
     0
  9
$DIMALTRND
 40
0.0
  9
$DIMAZIN
 70
     0
  9
$DIMDSEP
 70
    46
  9
$DIMATFIT
 70
     3
  9
$DIMFRAC
 70
     0
  9
$DIMLDRBLK
  1

  9
$DIMLUNIT
 70
     2
  9
$DIMLWD
 70
    -2
  9
$DIMLWE
 70
    -2
  9
$DIMTMOVE
 70
     0
  9
$DIMFXL
 40
1.0
  9
$DIMFXLON
 70
     0
  9
$DIMJOGANG
 40
0.7853981633974483
  9
$DIMTFILL
 70
     0
  9
$DIMTFILLCLR
 70
     0
  9
$DIMARCSYM
 70
     0
  9
$DIMLTYPE
  6

  9
$DIMLTEX1
  6

  9
$DIMLTEX2
  6

  9
$DIMTXTDIRECTION
 70
     0
  9
$LUNITS
 70
     2
  9
$LUPREC
 70
     4
  9
$SKETCHINC
 40
0.1
  9
$FILLETRAD
 40
0.5
  9
$AUNITS
 70
     0
  9
$AUPREC
 70
     0
  9
$MENU
  1
.
  9
$ELEVATION
 40
0.0
  9
$PELEVATION
 40
0.0
  9
$THICKNESS
 40
0.0
  9
$LIMCHECK
 70
     0
  9
$CHAMFERA
 40
0.5
  9
$CHAMFERB
 40
0.5
  9
$CHAMFERC
 40
1.0
  9
$CHAMFERD
 40
0.0
  9
$SKPOLY
 70
     0
  9
$TDCREATE
 40
2458432.75449228
  9
$TDUCREATE
 40
2458432.50449228
  9
$TDUPDATE
 40
2458432.75449228
  9
$TDUUPDATE
 40
2458432.50449228
  9
$TDINDWG
 40
0.0000000116
  9
$TDUSRTIMER
 40
0.0000000116
  9
$USRTIMER
 70
     1
  9
$ANGBASE
 50
0.0
  9
$ANGDIR
 70
     0
  9
$PDMODE
 70
     0
  9
$PDSIZE
 40
0.0
  9
$PLINEWID
 40
0.0
  9
$SPLFRAME
 70
     0
  9
$SPLINETYPE
 70
     6
  9
$SPLINESEGS
 70
     8
  9
$HANDSEED
  5
8A
  9
$SURFTAB1
 70
     6
  9
$SURFTAB2
 70
     6
  9
$SURFTYPE
 70
     6
  9
$SURFU
 70
     6
  9
$SURFV
 70
     6
  9
$UCSBASE
  2

  9
$UCSNAME
  2

  9
$UCSORG
 10
0.0
 20
0.0
 30
0.0
  9
$UCSXDIR
 10
1.0
 20
0.0
 30
0.0
  9
$UCSYDIR
 10
0.0
 20
1.0
 30
0.0
  9
$UCSORTHOREF
  2

  9
$UCSORTHOVIEW
 70
     0
  9
$UCSORGTOP
 10
0.0
 20
0.0
 30
0.0
  9
$UCSORGBOTTOM
 10
0.0
 20
0.0
 30
0.0
  9
$UCSORGLEFT
 10
0.0
 20
0.0
 30
0.0
  9
$UCSORGRIGHT
 10
0.0
 20
0.0
 30
0.0
  9
$UCSORGFRONT
 10
0.0
 20
0.0
 30
0.0
  9
$UCSORGBACK
 10
0.0
 20
0.0
 30
0.0
  9
$PUCSBASE
  2

  9
$PUCSNAME
  2

  9
$PUCSORG
 10
0.0
 20
0.0
 30
0.0
  9
$PUCSXDIR
 10
1.0
 20
0.0
 30
0.0
  9
$PUCSYDIR
 10
0.0
 20
1.0
 30
0.0
  9
$PUCSORTHOREF
  2

  9
$PUCSORTHOVIEW
 70
     0
  9
$PUCSORGTOP
 10
0.0
 20
0.0
 30
0.0
  9
$PUCSORGBOTTOM
 10
0.0
 20
0.0
 30
0.0
  9
$PUCSORGLEFT
 10
0.0
 20
0.0
 30
0.0
  9
$PUCSORGRIGHT
 10
0.0
 20
0.0
 30
0.0
  9
$PUCSORGFRONT
 10
0.0
 20
0.0
 30
0.0
  9
$PUCSORGBACK
 10
0.0
 20
0.0
 30
0.0
  9
$USERI1
 70
     0
  9
$USERI2
 70
     0
  9
$USERI3
 70
     0
  9
$USERI4
 70
     0
  9
$USERI5
 70
     0
  9
$USERR1
 40
0.0
  9
$USERR2
 40
0.0
  9
$USERR3
 40
0.0
  9
$USERR4
 40
0.0
  9
$USERR5
 40
0.0
  9
$WORLDVIEW
 70
     1
  9
$SHADEDGE
 70
     3
  9
$SHADEDIF
 70
    70
  9
$TILEMODE
 70
     1
  9
$MAXACTVP
 70
    64
  9
$PINSBASE
 10
0.0
 20
0.0
 30
0.0
  9
$PLIMCHECK
 70
     0
  9
$PEXTMIN
 10
1.000000000000000E+20
 20
1.000000000000000E+20
 30
1.000000000000000E+20
  9
$PEXTMAX
 10
-1.000000000000000E+20
 20
-1.000000000000000E+20
 30
-1.000000000000000E+20
  9
$PLIMMIN
 10
0.0
 20
0.0
  9
$PLIMMAX
 10
12.0
 20
9.0
  9
$UNITMODE
 70
     0
  9
$VISRETAIN
 70
     1
  9
$PLINEGEN
 70
     0
  9
$PSLTSCALE
 70
     1
  9
$TREEDEPTH
 70
  3020
  9
$CMLSTYLE
  2
Standard
  9
$CMLJUST
 70
     0
  9
$CMLSCALE
 40
1.0
  9
$PROXYGRAPHICS
 70
     1
  9
$MEASUREMENT
 70
     0
  9
$CELWEIGHT
370
    -1
  9
$ENDCAPS
280
     0
  9
$JOINSTYLE
280
     0
  9
$LWDISPLAY
290
     1
  9
$INSUNITS
 70
     1
  9
$HYPERLINKBASE
  1

  9
$STYLESHEET
  1

  9
$XEDIT
290
     1
  9
$CEPSNTYPE
380
     0
  9
$PSTYLEMODE
290
     1
  9
$FINGERPRINTGUID
  2
{D2214D4C-D50E-461A-BEAE-23853E654CC7}
  9
$VERSIONGUID
  2
{FAEB1C32-E019-11D5-929B-00C0DF256EC4}
  9
$EXTNAMES
290
     1
  9
$PSVPSCALE
 40
0.0
  9
$OLESTARTUP
290
     0
  9
$SORTENTS
280
   127
  9
$INDEXCTL
280
     0
  9
$HIDETEXT
280
     1
  9
$XCLIPFRAME
280
     2
  9
$HALOGAP
280
     0
  9
$OBSCOLOR
 70
   257
  9
$OBSLTYPE
280
     0
  9
$INTERSECTIONDISPLAY
280
     0
  9
$INTERSECTIONCOLOR
 70
   257
  9
$DIMASSOC
280
     2
  9
$PROJECTNAME
  1

  9
$CAMERADISPLAY
290
     0
  9
$LENSLENGTH
 40
50.0
  9
$CAMERAHEIGHT
 40
0.0
  9
$STEPSPERSEC
 40
2.0
  9
$STEPSIZE
 40
6.0
  9
$3DDWFPREC
 40
2.0
  9
$PSOLWIDTH
 40
0.25
  9
$PSOLHEIGHT
 40
4.0
  9
$LOFTANG1
 40
1.570796326794897
  9
$LOFTANG2
 40
1.570796326794897
  9
$LOFTMAG1
 40
0.0
  9
$LOFTMAG2
 40
0.0
  9
$LOFTPARAM
 70
     7
  9
$LOFTNORMALS
280
     1
  9
$LATITUDE
 40
37.795
  9
$LONGITUDE
 40
-122.394
  9
$NORTHDIRECTION
 40
0.0
  9
$TIMEZONE
 70
 -8000
  9
$LIGHTGLYPHDISPLAY
280
     1
  9
$TILEMODELIGHTSYNCH
280
     1
  9
$CMATERIAL
347
3C
  9
$SOLIDHIST
280
     1
  9
$SHOWHIST
280
     1
  9
$DWFFRAME
280
     2
  9
$DGNFRAME
280
     2
  9
$REALWORLDSCALE
290
     1
  9
$INTERFERECOLOR
 62
   256
  9
$CSHADOW
280
     0
  9
$SHADOWPLANELOCATION
 40
0.0
  0
ENDSEC
  0
SECTION
  2
CLASSES
  0
CLASS
  1
ACDBDICTIONARYWDFLT
  2
AcDbDictionaryWithDefault
  3
ObjectDBX Classes
 90
        0
 91
        4
280
     0
281
     0
  0
CLASS
  1
VISUALSTYLE
  2
AcDbVisualStyle
  3
ObjectDBX Classes
 90
     4095
 91
        4
280
     0
281
     0
  0
CLASS
  1
MATERIAL
  2
AcDbMaterial
  3
ObjectDBX Classes
 90
     1153
 91
        4
280
     0
281
     0
  0
CLASS
  1
SUN
  2
AcDbSun
  3
SCENEOE
 90
     1024
 91
        4
280
     0
281
     0
  0
ENDSEC
  0
SECTION
  2
TABLES
  0
TABLE
  2
VPORT
  5
8
330
0
100
AcDbSymbolTable
 70
     1
  0
VPORT
  5
29
330
8
100
AcDbSymbolTableRecord
100
AcDbViewportTableRecord
  2
*Active
 70
     0
 10
0.0
 20
0.0
 11
1.0
 21
1.0
 12
0.0
 22
0.0
 13
0.0
 23
0.0
 14
0.5
 24
0.5
 15
0.5
 25
0.5
 16
0.0
 26
0.0
 36
1.0
 17
3.0
 27
-3.0
 37
0.0
 40
6.0
 41
1.0
 42
50.0
 43
0.0
 44
0.0
 50
0.0
 51
0.0
 71
     0
 72
   100
 73
     1
 74
     3
 75
     0
 76
     0
 77
     0
 78
     0
281
     0
 65
     1
110
0.0
120
0.0
130
0.0
111
1.0
121
0.0
131
0.0
112
0.0
122
1.0
132
0.0
 79
     0
146
0.0
 60
     3
 61
     5
292
     1
282
     1
141
0.0
142
0.0
 63
   250
361
3F
  0
ENDTAB
  0
TABLE
  2
LTYPE
  5
5
330
0
100
AcDbSymbolTable
 70
     1
  0
LTYPE
  5
14
330
5
100
AcDbSymbolTableRecord
100
AcDbLinetypeTableRecord
  2
ByBlock
 70
     0
  3

 72
    65
 73
     0
 40
0.0
  0
LTYPE
  5
15
330
5
100
AcDbSymbolTableRecord
100
AcDbLinetypeTableRecord
  2
ByLayer
 70
     0
  3

 72
    65
 73
     0
 40
0.0
  0
LTYPE
  5
16
330
5
100
AcDbSymbolTableRecord
100
AcDbLinetypeTableRecord
  2
Continuous
 70
     0
  3
Solid line
 72
    65
 73
     0
 40
0.0
  0
ENDTAB
  0
TABLE
  2
LAYER
  5
2
330
0
100
AcDbSymbolTable
 70
     2
  0
LAYER
  5
10
330
2
100
AcDbSymbolTableRecord
100
AcDbLayerTableRecord
  2
0
 70
     0
 62
     7
  6
Continuous
370
    -3
390
F
347
3E
  0
LAYER
  5
40
330
2
100
AcDbSymbolTableRecord
100
AcDbLayerTableRecord
  2
Layer 1
 70
     0
 62
     7
  6
Continuous
370
    -3
390
F
347
3E
  0
ENDTAB
  0
TABLE
  2
STYLE
  5
3
330
0
100
AcDbSymbolTable
 70
     1
  0
STYLE
  5
11
330
3
100
AcDbSymbolTableRecord
100
AcDbTextStyleTableRecord
  2
Standard
 70
     0
 40
0.0
 41
1.0
 50
0.0
 71
     0
 42
0.2
  3
txt
  4

  0
ENDTAB
  0
TABLE
  2
VIEW
  5
6
330
0
100
AcDbSymbolTable
 70
     0
  0
ENDTAB
  0
TABLE
  2
UCS
  5
7
330
0
100
AcDbSymbolTable
 70
     0
  0
ENDTAB
  0
TABLE
  2
APPID
  5
9
330
0
100
AcDbSymbolTable
 70
     1
  0
APPID
  5
12
330
9
100
AcDbSymbolTableRecord
100
AcDbRegAppTableRecord
  2
ACAD
 70
     0
  0
ENDTAB
  0
TABLE
  2
DIMSTYLE
  5
A
330
0
100
AcDbSymbolTable
 70
     1
100
AcDbDimStyleTable
  0
DIMSTYLE
105
27
330
A
100
AcDbSymbolTableRecord
100
AcDbDimStyleTableRecord
  2
Standard
 70
     0
178
     0
340
11
  0
ENDTAB
  0
TABLE
  2
BLOCK_RECORD
  5
1
330
0
100
AcDbSymbolTable
 70
    11
  0
BLOCK_RECORD
  5
1F
330
1
100
AcDbSymbolTableRecord
100
AcDbBlockTableRecord
  2
*Model_Space
340
22
 70
     0
280
     1
281
     0
  0
BLOCK_RECORD
  5
1B
330
1
100
AcDbSymbolTableRecord
100
AcDbBlockTableRecord
  2
*Paper_Space
340
1E
 70
     0
280
     1
281
     0
  0
BLOCK_RECORD
  5
23
330
1
100
AcDbSymbolTableRecord
100
AcDbBlockTableRecord
  2
*Paper_Space0
340
26
 70
     0
280
     1
281
     0
  0
BLOCK_RECORD
  5
42
330
1
100
AcDbSymbolTableRecord
100
AcDbBlockTableRecord
  2
block 2
340
0
102
{BLKREFS
331
43
102
}
 70
     0
280
     1
281
     0
  0
BLOCK_RECORD
  5
48
330
1
100
AcDbSymbolTableRecord
100
AcDbBlockTableRecord
  2
block 3
340
0
102
{BLKREFS
331
49
102
}
 70
     0
280
     1
281
     0
  0
BLOCK_RECORD
  5
4E
330
1
100
AcDbSymbolTableRecord
100
AcDbBlockTableRecord
  2
block 4
340
0
102
{BLKREFS
331
4F
102
}
 70
     0
280
     1
281
     0
  0
BLOCK_RECORD
  5
55
330
1
100
AcDbSymbolTableRecord
100
AcDbBlockTableRecord
  2
block 5
340
0
102
{BLKREFS
331
56
102
}
 70
     0
280
     1
281
     0
  0
BLOCK_RECORD
  5
5B
330
1
100
AcDbSymbolTableRecord
100
AcDbBlockTableRecord
  2
block 6
340
0
102
{BLKREFS
331
5C
102
}
 70
     0
280
     1
281
     0
  0
BLOCK_RECORD
  5
63
330
1
100
AcDbSymbolTableRecord
100
AcDbBlockTableRecord
  2
block 7
340
0
102
{BLKREFS
331
64
102
}
 70
     0
280
     1
281
     0
  0
BLOCK_RECORD
  5
6E
330
1
100
AcDbSymbolTableRecord
100
AcDbBlockTableRecord
  2
block 8
340
0
102
{BLKREFS
331
6F
102
}
 70
     0
280
     1
281
     0
  0
BLOCK_RECORD
  5
74
330
1
100
AcDbSymbolTableRecord
100
AcDbBlockTableRecord
  2
block 9
340
0
102
{BLKREFS
331
75
102
}
 70
     0
280
     1
281
     0
  0
BLOCK_RECORD
  5
7A
330
1
100
AcDbSymbolTableRecord
100
AcDbBlockTableRecord
  2
block 10
340
0
102
{BLKREFS
331
7B
102
}
 70
     0
280
     1
281
     0
  0
BLOCK_RECORD
  5
81
330
1
100
AcDbSymbolTableRecord
100
AcDbBlockTableRecord
  2
block 11
340
0
102
{BLKREFS
331
82
102
}
 70
     0
280
     1
281
     0
  0
ENDTAB
  0
ENDSEC
  0
SECTION
  2
BLOCKS
  0
BLOCK
  5
20
330
1F
100
AcDbEntity
  8
0
100
AcDbBlockBegin
  2
*Model_Space
 70
     0
 10
0.0
 20
0.0
 30
0.0
  3
*Model_Space
  1

  0
ENDBLK
  5
21
330
1F
100
AcDbEntity
  8
0
100
AcDbBlockEnd
  0
BLOCK
  5
1C
330
1B
100
AcDbEntity
 67
     1
  8
0
100
AcDbBlockBegin
  2
*Paper_Space
 70
     0
 10
0.0
 20
0.0
 30
0.0
  3
*Paper_Space
  1

  0
ENDBLK
  5
1D
330
1B
100
AcDbEntity
 67
     1
  8
0
100
AcDbBlockEnd
  0
BLOCK
  5
24
330
23
100
AcDbEntity
  8
0
100
AcDbBlockBegin
  2
*Paper_Space0
 70
     0
 10
0.0
 20
0.0
 30
0.0
  3
*Paper_Space0
  1

  0
ENDBLK
  5
25
330
23
100
AcDbEntity
  8
0
100
AcDbBlockEnd
  0
BLOCK
  5
44
330
42
100
AcDbEntity
  8
0
100
AcDbBlockBegin
  2
block 2
 70
     0
 10
0.0
 20
0.0
 30
0.0
  3
block 2
  1

  0
SPLINE
  5
46
330
42
100
AcDbEntity
  8
Layer 1
370
     0
100
AcDbSpline
210
0.0
220
0.0
230
1.0
 70
    11
 71
     3
 72
    47
 73
    43
 74
     0
 42
0.0000000001
 43
0.0000000001
 12
1.0
 22
0.0
 32
0.0
 13
1.0
 23
0.0
 33
0.0
 40
0.0
 40
0.0
 40
0.0
 40
0.0
 40
1.0
 40
1.0
 40
1.0
 40
2.0
 40
2.0
 40
2.0
 40
3.0
 40
3.0
 40
3.0
 40
4.0
 40
4.0
 40
4.0
 40
5.0
 40
5.0
 40
5.0
 40
6.0
 40
6.0
 40
6.0
 40
7.0
 40
7.0
 40
7.0
 40
8.0
 40
8.0
 40
8.0
 40
9.0
 40
9.0
 40
9.0
 40
10.0
 40
10.0
 40
10.0
 40
11.0
 40
11.0
 40
11.0
 40
12.0
 40
12.0
 40
12.0
 40
13.0
 40
13.0
 40
13.0
 40
14.0
 40
14.0
 40
14.0
 40
14.0
 10
1.801233079698351
 20
-2.131134033203125
 30
0.0
 10
1.801233079698351
 20
-1.907901340060764
 30
0.0
 10
1.95196278889974
 20
-1.629330105251736
 30
0.0
 10
2.20382097032335
 20
-1.629330105251736
 30
0.0
 10
2.448042975531684
 20
-1.629330105251736
 30
0.0
 10
2.541535271538628
 20
-1.860198974609375
 30
0.0
 10
2.560612148708767
 20
-2.071984185112847
 30
0.0
 10
2.560612148708767
 20
-2.071984185112847
 30
0.0
 10
2.013018290201823
 20
-2.194095187717014
 30
0.0
 10
2.013018290201823
 20
-2.194095187717014
 30
0.0
 10
2.013018290201823
 20
-2.318118625217014
 30
0.0
 10
2.035920037163629
 20
-2.424964057074653
 30
0.0
 10
2.096975538465712
 20
-2.533715142144097
 30
0.0
 10
2.182831658257379
 20
-2.690175374348958
 30
0.0
 10
2.465214199490017
 20
-2.659644232855903
 30
0.0
 10
2.469032287597656
 20
-2.45548841688368
 30
0.0
 10
2.469032287597656
 20
-2.45548841688368
 30
0.0
 10
2.469032287597656
 20
-2.44785902235243
 30
0.0
 10
2.469032287597656
 20
-2.44785902235243
 30
0.0
 10
2.442319234212239
 20
-2.480295817057292
 30
0.0
 10
2.409882439507378
 20
-2.487925211588542
 30
0.0
 10
2.369816250271267
 20
-2.487925211588542
 30
0.0
 10
2.287771436903212
 20
-2.487925211588542
 30
0.0
 10
2.234345330132378
 20
-2.444040934244792
 30
0.0
 10
2.234345330132378
 20
-2.36009046766493
 30
0.0
 10
2.241981506347656
 20
-2.278045654296875
 30
0.0
 10
2.308760748969184
 20
-2.192189534505208
 30
0.0
 10
2.39461686876085
 20
-2.192189534505208
 30
0.0
 10
2.39461686876085
 20
-2.192189534505208
 30
0.0
 10
2.406064351399739
 20
-2.192189534505208
 30
0.0
 10
2.406064351399739
 20
-2.192189534505208
 30
0.0
 10
2.512916564941406
 20
-2.192189534505208
 30
0.0
 10
2.593048943413628
 20
-2.25706312391493
 30
0.0
 10
2.593048943413628
 20
-2.365814208984375
 30
0.0
 10
2.593048943413628
 20
-2.554704454210069
 30
0.0
 10
2.480479770236545
 20
-2.747412787543403
 30
0.0
 10
2.272505866156684
 20
-2.747412787543403
 30
0.0
 10
2.272505866156684
 20
-2.747412787543403
 30
0.0
 10
2.25533464219835
 20
-2.747412787543403
 30
0.0
 10
2.25533464219835
 20
-2.747412787543403
 30
0.0
 10
1.919532775878906
 20
-2.747412787543403
 30
0.0
 10
1.81268056233724
 20
-2.415422227647569
 30
0.0
 10
1.801233079698351
 20
-2.131134033203125
 30
0.0
  0
SPLINE
  5
47
330
42
100
AcDbEntity
  8
Layer 1
370
     0
100
AcDbSpline
210
0.0
220
0.0
230
1.0
 70
    11
 71
     3
 72
    14
 73
    10
 74
     0
 42
0.0000000001
 43
0.0000000001
 12
1.0
 22
0.0
 32
0.0
 13
1.0
 23
0.0
 33
0.0
 40
0.0
 40
0.0
 40
0.0
 40
0.0
 40
1.0
 40
1.0
 40
1.0
 40
2.0
 40
2.0
 40
2.0
 40
3.0
 40
3.0
 40
3.0
 40
3.0
 10
2.024472554524739
 20
-2.075802273220486
 30
0.0
 10
2.024472554524739
 20
-2.075802273220486
 30
0.0
 10
2.407976786295573
 20
-2.022376166449653
 30
0.0
 10
2.407976786295573
 20
-2.022376166449653
 30
0.0
 10
2.407976786295573
 20
-1.928883870442708
 30
0.0
 10
2.331655714246962
 20
-1.785790337456597
 30
0.0
 10
2.224810282389323
 20
-1.785790337456597
 30
0.0
 10
2.098881191677517
 20
-1.785790337456597
 30
0.0
 10
2.024472554524739
 20
-1.968956841362847
 30
0.0
 10
2.024472554524739
 20
-2.075802273220486
 30
0.0
  0
ENDBLK
  5
45
330
42
100
AcDbEntity
  8
0
100
AcDbBlockEnd
  0
BLOCK
  5
4A
330
48
100
AcDbEntity
  8
0
100
AcDbBlockBegin
  2
block 3
 70
     0
 10
0.0
 20
0.0
 30
0.0
  3
block 3
  1

  0
SPLINE
  5
4C
330
48
100
AcDbEntity
  8
Layer 1
370
     0
100
AcDbSpline
210
0.0
220
0.0
230
1.0
 70
    11
 71
     3
 72
    41
 73
    37
 74
     0
 42
0.0000000001
 43
0.0000000001
 12
1.0
 22
0.0
 32
0.0
 13
1.0
 23
0.0
 33
0.0
 40
0.0
 40
0.0
 40
0.0
 40
0.0
 40
1.0
 40
1.0
 40
1.0
 40
2.0
 40
2.0
 40
2.0
 40
3.0
 40
3.0
 40
3.0
 40
4.0
 40
4.0
 40
4.0
 40
5.0
 40
5.0
 40
5.0
 40
6.0
 40
6.0
 40
6.0
 40
7.0
 40
7.0
 40
7.0
 40
8.0
 40
8.0
 40
8.0
 40
9.0
 40
9.0
 40
9.0
 40
10.0
 40
10.0
 40
10.0
 40
11.0
 40
11.0
 40
11.0
 40
12.0
 40
12.0
 40
12.0
 40
12.0
 10
2.6178224351671
 20
-1.623606363932292
 30
0.0
 10
2.6178224351671
 20
-1.623606363932292
 30
0.0
 10
2.78573015001085
 20
-1.63505384657118
 30
0.0
 10
2.78573015001085
 20
-1.63505384657118
 30
0.0
 10
2.78573015001085
 20
-1.63505384657118
 30
0.0
 10
2.7933595445421
 20
-1.719011094835069
 30
0.0
 10
2.7933595445421
 20
-1.719011094835069
 30
0.0
 10
2.888764275444878
 20
-1.62742445203993
 30
0.0
 10
3.018497890896267
 20
-1.556827121310764
 30
0.0
 10
3.146332634819878
 20
-1.556827121310764
 30
0.0
 10
3.340953403049045
 20
-1.556827121310764
 30
0.0
 10
3.379107157389323
 20
-1.745717366536458
 30
0.0
 10
3.379107157389323
 20
-1.938425699869792
 30
0.0
 10
3.379107157389323
 20
-2.218902587890625
 30
0.0
 10
3.001326666937934
 20
-2.205542670355903
 30
0.0
 10
3.001326666937934
 20
-1.967044406467014
 30
0.0
 10
3.001326666937934
 20
-1.85447523328993
 30
0.0
 10
3.066200256347656
 20
-1.791514078776042
 30
0.0
 10
3.188311258951823
 20
-1.791514078776042
 30
0.0
 10
3.218842400444878
 20
-1.791514078776042
 30
0.0
 10
3.234101189507378
 20
-1.793419731987847
 30
0.0
 10
3.266544765896267
 20
-1.80296156141493
 30
0.0
 10
3.266544765896267
 20
-1.80296156141493
 30
0.0
 10
3.266544765896267
 20
-1.799143473307292
 30
0.0
 10
3.266544765896267
 20
-1.799143473307292
 30
0.0
 10
3.245548672146267
 20
-1.736182318793403
 30
0.0
 10
3.161604987250434
 20
-1.70756361219618
 30
0.0
 10
3.104354010687934
 20
-1.70756361219618
 30
0.0
 10
2.606374952528212
 20
-1.70756361219618
 30
0.0
 10
2.9841554429796
 20
-2.783660888671875
 30
0.0
 10
2.957449171278212
 20
-2.756954616970486
 30
0.0
 10
2.957449171278212
 20
-2.756954616970486
 30
0.0
 10
2.646441141764323
 20
-2.787478976779514
 30
0.0
 10
2.646441141764323
 20
-2.787478976779514
 30
0.0
 10
2.667430453830295
 20
-2.787478976779514
 30
0.0
 10
2.728485955132378
 20
-2.285681830512153
 30
0.0
 10
2.6178224351671
 20
-1.623606363932292
 30
0.0
  0
SPLINE
  5
4D
330
48
100
AcDbEntity
  8
Layer 1
370
     0
100
AcDbSpline
210
0.0
220
0.0
230
1.0
 70
    11
 71
     3
 72
    11
 73
     7
 74
     0
 42
0.0000000001
 43
0.0000000001
 12
1.0
 22
0.0
 32
0.0
 13
1.0
 23
0.0
 33
0.0
 40
0.0
 40
0.0
 40
0.0
 40
0.0
 40
1.0
 40
1.0
 40
1.0
 40
2.0
 40
2.0
 40
2.0
 40
2.0
 10
3.272268507215712
 20
-1.812496609157986
 30
0.0
 10
3.276079813639323
 20
-1.812496609157986
 30
0.0
 10
3.276079813639323
 20
-1.806772867838542
 30
0.0
 10
3.272268507215712
 20
-1.806772867838542
 30
0.0
 10
3.270356072319878
 20
-1.806772867838542
 30
0.0
 10
3.270356072319878
 20
-1.812496609157986
 30
0.0
 10
3.272268507215712
 20
-1.812496609157986
 30
0.0
  0
ENDBLK
  5
4B
330
48
100
AcDbEntity
  8
0
100
AcDbBlockEnd
  0
BLOCK
  5
50
330
4E
100
AcDbEntity
  8
0
100
AcDbBlockBegin
  2
block 4
 70
     0
 10
0.0
 20
0.0
 30
0.0
  3
block 4
  1

  0
SPLINE
  5
52
330
4E
100
AcDbEntity
  8
Layer 1
370
     0
100
AcDbSpline
210
0.0
220
0.0
230
1.0
 70
    11
 71
     3
 72
    41
 73
    37
 74
     0
 42
0.0000000001
 43
0.0000000001
 12
1.0
 22
0.0
 32
0.0
 13
1.0
 23
0.0
 33
0.0
 40
0.0
 40
0.0
 40
0.0
 40
0.0
 40
1.0
 40
1.0
 40
1.0
 40
2.0
 40
2.0
 40
2.0
 40
3.0
 40
3.0
 40
3.0
 40
4.0
 40
4.0
 40
4.0
 40
5.0
 40
5.0
 40
5.0
 40
6.0
 40
6.0
 40
6.0
 40
7.0
 40
7.0
 40
7.0
 40
8.0
 40
8.0
 40
8.0
 40
9.0
 40
9.0
 40
9.0
 40
10.0
 40
10.0
 40
10.0
 40
11.0
 40
11.0
 40
11.0
 40
12.0
 40
12.0
 40
12.0
 40
12.0
 10
3.451616923014323
 20
-1.623606363932292
 30
0.0
 10
3.451616923014323
 20
-1.623606363932292
 30
0.0
 10
3.619517856174045
 20
-1.63505384657118
 30
0.0
 10
3.619517856174045
 20
-1.63505384657118
 30
0.0
 10
3.619517856174045
 20
-1.63505384657118
 30
0.0
 10
3.627154032389323
 20
-1.719011094835069
 30
0.0
 10
3.627154032389323
 20
-1.719011094835069
 30
0.0
 10
3.7225587632921
 20
-1.62742445203993
 30
0.0
 10
3.852292378743489
 20
-1.556827121310764
 30
0.0
 10
3.9801271226671
 20
-1.556827121310764
 30
0.0
 10
4.174747890896267
 20
-1.556827121310764
 30
0.0
 10
4.212901645236545
 20
-1.745717366536458
 30
0.0
 10
4.212901645236545
 20
-1.938425699869792
 30
0.0
 10
4.212901645236545
 20
-2.218902587890625
 30
0.0
 10
3.835121154785156
 20
-2.205542670355903
 30
0.0
 10
3.835121154785156
 20
-1.967044406467014
 30
0.0
 10
3.835121154785156
 20
-1.85447523328993
 30
0.0
 10
3.899994744194878
 20
-1.791514078776042
 30
0.0
 10
4.022105746799045
 20
-1.791514078776042
 30
0.0
 10
4.052636888292101
 20
-1.791514078776042
 30
0.0
 10
4.067895677354601
 20
-1.793419731987847
 30
0.0
 10
4.100339253743489
 20
-1.80296156141493
 30
0.0
 10
4.100339253743489
 20
-1.80296156141493
 30
0.0
 10
4.100339253743489
 20
-1.799143473307292
 30
0.0
 10
4.100339253743489
 20
-1.799143473307292
 30
0.0
 10
4.079343159993489
 20
-1.736182318793403
 30
0.0
 10
3.995399475097656
 20
-1.70756361219618
 30
0.0
 10
3.938148498535156
 20
-1.70756361219618
 30
0.0
 10
3.440169440375434
 20
-1.70756361219618
 30
0.0
 10
3.817949930826823
 20
-2.783660888671875
 30
0.0
 10
3.791243659125434
 20
-2.756954616970486
 30
0.0
 10
3.791243659125434
 20
-2.756954616970486
 30
0.0
 10
3.480235629611545
 20
-2.787478976779514
 30
0.0
 10
3.480235629611545
 20
-2.787478976779514
 30
0.0
 10
3.501231723361545
 20
-2.787478976779514
 30
0.0
 10
3.5622804429796
 20
-2.285681830512153
 30
0.0
 10
3.451616923014323
 20
-1.623606363932292
 30
0.0
  0
SPLINE
  5
53
330
4E
100
AcDbEntity
  8
Layer 1
370
     0
100
AcDbSpline
210
0.0
220
0.0
230
1.0
 70
    11
 71
     3
 72
    11
 73
     7
 74
     0
 42
0.0000000001
 43
0.0000000001
 12
1.0
 22
0.0
 32
0.0
 13
1.0
 23
0.0
 33
0.0
 40
0.0
 40
0.0
 40
0.0
 40
0.0
 40
1.0
 40
1.0
 40
1.0
 40
2.0
 40
2.0
 40
2.0
 40
2.0
 10
4.106062995062934
 20
-1.812496609157986
 30
0.0
 10
4.109874301486545
 20
-1.812496609157986
 30
0.0
 10
4.109874301486545
 20
-1.806772867838542
 30
0.0
 10
4.106062995062934
 20
-1.806772867838542
 30
0.0
 10
4.104150560167101
 20
-1.806772867838542
 30
0.0
 10
4.104150560167101
 20
-1.812496609157986
 30
0.0
 10
4.106062995062934
 20
-1.812496609157986
 30
0.0
  0
ENDBLK
  5
51
330
4E
100
AcDbEntity
  8
0
100
AcDbBlockEnd
  0
BLOCK
  5
57
330
55
100
AcDbEntity
  8
0
100
AcDbBlockBegin
  2
block 5
 70
     0
 10
0.0
 20
0.0
 30
0.0
  3
block 5
  1

  0
SPLINE
  5
59
330
55
100
AcDbEntity
  8
Layer 1
370
     0
100
AcDbSpline
210
0.0
220
0.0
230
1.0
 70
    11
 71
     3
 72
    35
 73
    31
 74
     0
 42
0.0000000001
 43
0.0000000001
 12
1.0
 22
0.0
 32
0.0
 13
1.0
 23
0.0
 33
0.0
 40
0.0
 40
0.0
 40
0.0
 40
0.0
 40
1.0
 40
1.0
 40
1.0
 40
2.0
 40
2.0
 40
2.0
 40
3.0
 40
3.0
 40
3.0
 40
4.0
 40
4.0
 40
4.0
 40
5.0
 40
5.0
 40
5.0
 40
6.0
 40
6.0
 40
6.0
 40
7.0
 40
7.0
 40
7.0
 40
8.0
 40
8.0
 40
8.0
 40
9.0
 40
9.0
 40
9.0
 40
10.0
 40
10.0
 40
10.0
 40
10.0
 10
1.498919169108073
 20
-4.84806654188368
 30
0.0
 10
1.498919169108073
 20
-4.863338894314236
 30
0.0
 10
1.498919169108073
 20
-4.880510118272569
 30
0.0
 10
1.497013515896267
 20
-4.895768907335069
 30
0.0
 10
1.479842291937934
 20
-5.126644558376736
 30
0.0
 10
1.33483632405599
 20
-5.361317952473958
 30
0.0
 10
1.039100646972656
 20
-5.361317952473958
 30
0.0
 10
1.025740729437934
 20
-5.361317952473958
 30
0.0
 10
0.9608739217122395
 20
-5.35941908094618
 30
0.0
 10
0.9265246921115451
 20
-5.353695339626736
 30
0.0
 10
0.9341608683268229
 20
-5.37467787000868
 30
0.0
 10
0.9589614868164062
 20
-5.42619154188368
 30
0.0
 10
0.9646852281358507
 20
-5.437639024522569
 30
0.0
 10
0.9646852281358507
 20
-5.437639024522569
 30
0.0
 10
0.6937501695421007
 20
-5.494876437717013
 30
0.0
 10
0.6937501695421007
 20
-5.494876437717013
 30
0.0
 10
0.6708552042643229
 20
-4.277591281467013
 30
0.0
 10
0.5983522203233507
 20
-4.13639662000868
 30
0.0
 10
0.5601916842990451
 20
-4.006649441189236
 30
0.0
 10
0.5601916842990451
 20
-4.006649441189236
 30
0.0
 10
0.8406685723198785
 20
-3.968495686848958
 30
0.0
 10
0.8406685723198785
 20
-3.968495686848958
 30
0.0
 10
0.7796130710177951
 20
-4.067711724175347
 30
0.0
 10
0.7891549004448785
 20
-4.269955105251736
 30
0.0
 10
0.7872424655490451
 20
-4.434044731987847
 30
0.0
 10
0.8578397962782117
 20
-4.37870619032118
 30
0.0
 10
0.9494196573893229
 20
-4.34245130750868
 30
0.0
 10
1.058177524142795
 20
-4.34245130750868
 30
0.0
 10
1.372996860080295
 20
-4.34245130750868
 30
0.0
 10
1.498919169108073
 20
-4.601945665147569
 30
0.0
 10
1.498919169108073
 20
-4.84806654188368
 30
0.0
  0
SPLINE
  5
5A
330
55
100
AcDbEntity
  8
Layer 1
370
     0
100
AcDbSpline
210
0.0
220
0.0
230
1.0
 70
    11
 71
     3
 72
    17
 73
    13
 74
     0
 42
0.0000000001
 43
0.0000000001
 12
1.0
 22
0.0
 32
0.0
 13
1.0
 23
0.0
 33
0.0
 40
0.0
 40
0.0
 40
0.0
 40
0.0
 40
1.0
 40
1.0
 40
1.0
 40
2.0
 40
2.0
 40
2.0
 40
3.0
 40
3.0
 40
3.0
 40
4.0
 40
4.0
 40
4.0
 40
4.0
 10
1.046730041503906
 20
-4.479834662543403
 30
0.0
 10
0.8750110202365451
 20
-4.479834662543403
 30
0.0
 10
0.8406685723198785
 20
-4.682078043619791
 30
0.0
 10
0.8349448310004339
 20
-4.794653998480903
 30
0.0
 10
0.8234973483615451
 20
-4.943471272786458
 30
0.0
 10
0.8368504842122395
 20
-5.23539564344618
 30
0.0
 10
1.073443094889323
 20
-5.23539564344618
 30
0.0
 10
1.237525939941406
 20
-5.23539564344618
 30
0.0
 10
1.262333340115017
 20
-5.021704779730903
 30
0.0
 10
1.269962734646267
 20
-4.922488742404513
 30
0.0
 10
1.279504564073351
 20
-4.787017822265625
 30
0.0
 10
1.266144646538628
 20
-4.479834662543403
 30
0.0
 10
1.046730041503906
 20
-4.479834662543403
 30
0.0
  0
ENDBLK
  5
58
330
55
100
AcDbEntity
  8
0
100
AcDbBlockEnd
  0
BLOCK
  5
5D
330
5B
100
AcDbEntity
  8
0
100
AcDbBlockBegin
  2
block 6
 70
     0
 10
0.0
 20
0.0
 30
0.0
  3
block 6
  1

  0
SPLINE
  5
5F
330
5B
100
AcDbEntity
  8
Layer 1
370
     0
100
AcDbSpline
210
0.0
220
0.0
230
1.0
 70
    11
 71
     3
 72
    41
 73
    37
 74
     0
 42
0.0000000001
 43
0.0000000001
 12
1.0
 22
0.0
 32
0.0
 13
1.0
 23
0.0
 33
0.0
 40
0.0
 40
0.0
 40
0.0
 40
0.0
 40
1.0
 40
1.0
 40
1.0
 40
2.0
 40
2.0
 40
2.0
 40
3.0
 40
3.0
 40
3.0
 40
4.0
 40
4.0
 40
4.0
 40
5.0
 40
5.0
 40
5.0
 40
6.0
 40
6.0
 40
6.0
 40
7.0
 40
7.0
 40
7.0
 40
8.0
 40
8.0
 40
8.0
 40
9.0
 40
9.0
 40
9.0
 40
10.0
 40
10.0
 40
10.0
 40
11.0
 40
11.0
 40
11.0
 40
12.0
 40
12.0
 40
12.0
 40
12.0
 10
2.254459804958767
 20
-4.577138264973958
 30
0.0
 10
2.254459804958767
 20
-4.857615152994791
 30
0.0
 10
1.876679314507378
 20
-4.844255235460069
 30
0.0
 10
1.876679314507378
 20
-4.60575697157118
 30
0.0
 10
1.876679314507378
 20
-4.493194580078125
 30
0.0
 10
1.941552903917101
 20
-4.43021986219618
 30
0.0
 10
2.063663906521267
 20
-4.43021986219618
 30
0.0
 10
2.094195048014323
 20
-4.43021986219618
 30
0.0
 10
2.109453837076823
 20
-4.432132297092013
 30
0.0
 10
2.141890631781684
 20
-4.44166734483507
 30
0.0
 10
2.141890631781684
 20
-4.44166734483507
 30
0.0
 10
2.141890631781684
 20
-4.437856038411458
 30
0.0
 10
2.141890631781684
 20
-4.437856038411458
 30
0.0
 10
2.120901319715712
 20
-4.37489488389757
 30
0.0
 10
2.03695085313585
 20
-4.346276177300347
 30
0.0
 10
1.979713439941406
 20
-4.346276177300347
 30
0.0
 10
1.481727600097656
 20
-4.346276177300347
 30
0.0
 10
1.859508090549045
 20
-5.422380235460069
 30
0.0
 10
1.832795037163628
 20
-5.395660400390625
 30
0.0
 10
1.832795037163628
 20
-5.395660400390625
 30
0.0
 10
1.521793789333767
 20
-5.42619154188368
 30
0.0
 10
1.521793789333767
 20
-5.42619154188368
 30
0.0
 10
1.54278310139974
 20
-5.42619154188368
 30
0.0
 10
1.603838602701823
 20
-4.924387613932291
 30
0.0
 10
1.493175082736545
 20
-4.262318929036458
 30
0.0
 10
1.493175082736545
 20
-4.262318929036458
 30
0.0
 10
1.661082797580295
 20
-4.273766411675347
 30
0.0
 10
1.661082797580295
 20
-4.273766411675347
 30
0.0
 10
1.661082797580295
 20
-4.273766411675347
 30
0.0
 10
1.668712192111545
 20
-4.357723659939236
 30
0.0
 10
1.668712192111545
 20
-4.357723659939236
 30
0.0
 10
1.764110141330295
 20
-4.266143798828125
 30
0.0
 10
1.89385732014974
 20
-4.195546468098958
 30
0.0
 10
2.02169206407335
 20
-4.195546468098958
 30
0.0
 10
2.216306050618489
 20
-4.195546468098958
 30
0.0
 10
2.254459804958767
 20
-4.384429931640625
 30
0.0
 10
2.254459804958767
 20
-4.577138264973958
 30
0.0
  0
SPLINE
  5
60
330
5B
100
AcDbEntity
  8
Layer 1
370
     0
100
AcDbSpline
210
0.0
220
0.0
230
1.0
 70
    11
 71
     3
 72
    11
 73
     7
 74
     0
 42
0.0000000001
 43
0.0000000001
 12
1.0
 22
0.0
 32
0.0
 13
1.0
 23
0.0
 33
0.0
 40
0.0
 40
0.0
 40
0.0
 40
0.0
 40
1.0
 40
1.0
 40
1.0
 40
2.0
 40
2.0
 40
2.0
 40
2.0
 10
2.147614373101129
 20
-4.445492214626736
 30
0.0
 10
2.145708719889323
 20
-4.445492214626736
 30
0.0
 10
2.145708719889323
 20
-4.45121595594618
 30
0.0
 10
2.147614373101129
 20
-4.45121595594618
 30
0.0
 10
2.151432461208767
 20
-4.45121595594618
 30
0.0
 10
2.151432461208767
 20
-4.445492214626736
 30
0.0
 10
2.147614373101129
 20
-4.445492214626736
 30
0.0
  0
ENDBLK
  5
5E
330
5B
100
AcDbEntity
  8
0
100
AcDbBlockEnd
  0
BLOCK
  5
65
330
63
100
AcDbEntity
  8
0
100
AcDbBlockBegin
  2
block 7
 70
     0
 10
0.0
 20
0.0
 30
0.0
  3
block 7
  1

  0
SPLINE
  5
67
330
63
100
AcDbEntity
  8
Layer 1
370
     0
100
AcDbSpline
210
0.0
220
0.0
230
1.0
 70
    11
 71
     3
 72
    68
 73
    64
 74
     0
 42
0.0000000001
 43
0.0000000001
 12
1.0
 22
0.0
 32
0.0
 13
1.0
 23
0.0
 33
0.0
 40
0.0
 40
0.0
 40
0.0
 40
0.0
 40
1.0
 40
1.0
 40
1.0
 40
2.0
 40
2.0
 40
2.0
 40
3.0
 40
3.0
 40
3.0
 40
4.0
 40
4.0
 40
4.0
 40
5.0
 40
5.0
 40
5.0
 40
6.0
 40
6.0
 40
6.0
 40
7.0
 40
7.0
 40
7.0
 40
8.0
 40
8.0
 40
8.0
 40
9.0
 40
9.0
 40
9.0
 40
10.0
 40
10.0
 40
10.0
 40
11.0
 40
11.0
 40
11.0
 40
12.0
 40
12.0
 40
12.0
 40
13.0
 40
13.0
 40
13.0
 40
14.0
 40
14.0
 40
14.0
 40
15.0
 40
15.0
 40
15.0
 40
16.0
 40
16.0
 40
16.0
 40
17.0
 40
17.0
 40
17.0
 40
18.0
 40
18.0
 40
18.0
 40
19.0
 40
19.0
 40
19.0
 40
20.0
 40
20.0
 40
20.0
 40
21.0
 40
21.0
 40
21.0
 40
21.0
 10
3.733124627007378
 20
-5.605539957682291
 30
0.0
 10
3.733124627007378
 20
-5.720028347439236
 30
0.0
 10
3.654904683430989
 20
-5.811608208550347
 30
0.0
 10
3.567136128743489
 20
-5.861209445529513
 30
0.0
 10
3.393511454264323
 20
-5.956614176432291
 30
0.0
 10
2.674191792805989
 20
-6.099707709418403
 30
0.0
 10
2.674191792805989
 20
-5.693308512369791
 30
0.0
 10
2.674191792805989
 20
-5.542578803168403
 30
0.0
 10
2.876441955566406
 20
-5.470082600911458
 30
0.0
 10
2.987105475531684
 20
-5.470082600911458
 30
0.0
 10
3.0653322007921
 20
-5.470082600911458
 30
0.0
 10
3.175995720757378
 20
-5.504425048828125
 30
0.0
 10
3.175995720757378
 20
-5.613176133897569
 30
0.0
 10
3.175995720757378
 20
-5.731475830078125
 30
0.0
 10
3.053884718153212
 20
-5.765818277994791
 30
0.0
 10
2.96993425157335
 20
-5.765818277994791
 30
0.0
 10
2.926043192545573
 20
-5.765818277994791
 30
0.0
 10
2.899336920844184
 20
-5.758182101779513
 30
0.0
 10
2.849722120496962
 20
-5.74101087782118
 30
0.0
 10
2.851634555392795
 20
-5.992869059244791
 30
0.0
 10
3.446937561035156
 20
-5.868845621744791
 30
0.0
 10
3.435490078396267
 20
-5.559750027126736
 30
0.0
 10
3.424042595757378
 20
-5.248755560980903
 30
0.0
 10
2.813480801052517
 20
-5.403296576605903
 30
0.0
 10
2.676097446017795
 20
-5.403296576605903
 30
0.0
 10
2.676097446017795
 20
-5.403296576605903
 30
0.0
 10
2.664649963378906
 20
-5.403296576605903
 30
0.0
 10
2.664649963378906
 20
-5.403296576605903
 30
0.0
 10
2.664649963378906
 20
-5.403296576605903
 30
0.0
 10
2.956574334038628
 20
-5.141903347439236
 30
0.0
 10
2.956574334038628
 20
-5.141903347439236
 30
0.0
 10
2.754324171278212
 20
-5.025516086154513
 30
0.0
 10
2.70662858751085
 20
-4.918663872612847
 30
0.0
 10
2.70662858751085
 20
-4.809912787543403
 30
0.0
 10
2.70662858751085
 20
-4.548519558376736
 30
0.0
 10
3.053884718153212
 20
-4.41114976671007
 30
0.0
 10
3.279036627875434
 20
-4.395877414279513
 30
0.0
 10
3.2408693101671
 20
-4.376807318793403
 30
0.0
 10
3.206526862250434
 20
-4.344363742404513
 30
0.0
 10
3.206526862250434
 20
-4.296661376953125
 30
0.0
 10
3.206526862250434
 20
-4.189822726779513
 30
0.0
 10
3.311466640896267
 20
-4.092505560980903
 30
0.0
 10
3.408770243326823
 20
-4.092505560980903
 30
0.0
 10
3.492727491590712
 20
-4.092505560980903
 30
0.0
 10
3.574772304958767
 20
-4.157379150390625
 30
0.0
 10
3.574772304958767
 20
-4.25087144639757
 30
0.0
 10
3.574772304958767
 20
-4.36344740125868
 30
0.0
 10
3.401134067111545
 20
-4.36344740125868
 30
0.0
 10
3.336274041069878
 20
-4.331003824869791
 30
0.0
 10
3.336274041069878
 20
-4.350087483723958
 30
0.0
 10
3.341997782389323
 20
-4.37870619032118
 30
0.0
 10
3.359169006347656
 20
-4.384429931640625
 30
0.0
 10
3.624373541937934
 20
-4.506540934244791
 30
0.0
 10
3.689247131347656
 20
-4.638200547960069
 30
0.0
 10
3.689247131347656
 20
-4.743140326605903
 30
0.0
 10
3.689247131347656
 20
-5.159074571397569
 30
0.0
 10
3.345809088812934
 20
-5.166710747612847
 30
0.0
 10
3.0500734117296
 20
-5.166710747612847
 30
0.0
 10
3.032895406087239
 20
-5.166710747612847
 30
0.0
 10
2.891700744628906
 20
-5.256378173828125
 30
0.0
 10
2.88216569688585
 20
-5.279273139105903
 30
0.0
 10
3.135929531521267
 20
-5.195329454210069
 30
0.0
 10
3.733124627007378
 20
-5.201053195529513
 30
0.0
 10
3.733124627007378
 20
-5.605539957682291
 30
0.0
  0
SPLINE
  5
68
330
63
100
AcDbEntity
  8
Layer 1
370
     0
100
AcDbSpline
210
0.0
220
0.0
230
1.0
 70
    11
 71
     3
 72
    14
 73
    10
 74
     0
 42
0.0000000001
 43
0.0000000001
 12
1.0
 22
0.0
 32
0.0
 13
1.0
 23
0.0
 33
0.0
 40
0.0
 40
0.0
 40
0.0
 40
0.0
 40
1.0
 40
1.0
 40
1.0
 40
2.0
 40
2.0
 40
2.0
 40
3.0
 40
3.0
 40
3.0
 40
3.0
 10
3.177908155653212
 20
-5.025516086154513
 30
0.0
 10
3.340085347493489
 20
-5.025516086154513
 30
0.0
 10
3.496538798014323
 20
-4.954918755425347
 30
0.0
 10
3.496538798014323
 20
-4.764122856987847
 30
0.0
 10
3.496538798014323
 20
-4.624840630425347
 30
0.0
 10
3.349620395236545
 20
-4.546607123480903
 30
0.0
 10
3.231334262424045
 20
-4.546607123480903
 30
0.0
 10
2.899336920844184
 20
-4.546607123480903
 30
0.0
 10
2.796309577094184
 20
-5.025516086154513
 30
0.0
 10
3.177908155653212
 20
-5.025516086154513
 30
0.0
  0
ENDBLK
  5
66
330
63
100
AcDbEntity
  8
0
100
AcDbBlockEnd
  0
BLOCK
  5
70
330
6E
100
AcDbEntity
  8
0
100
AcDbBlockBegin
  2
block 8
 70
     0
 10
0.0
 20
0.0
 30
0.0
  3
block 8
  1

  0
SPLINE
  5
72
330
6E
100
AcDbEntity
  8
Layer 1
370
     0
100
AcDbSpline
210
0.0
220
0.0
230
1.0
 70
    11
 71
     3
 72
    44
 73
    40
 74
     0
 42
0.0000000001
 43
0.0000000001
 12
1.0
 22
0.0
 32
0.0
 13
1.0
 23
0.0
 33
0.0
 40
0.0
 40
0.0
 40
0.0
 40
0.0
 40
1.0
 40
1.0
 40
1.0
 40
2.0
 40
2.0
 40
2.0
 40
3.0
 40
3.0
 40
3.0
 40
4.0
 40
4.0
 40
4.0
 40
5.0
 40
5.0
 40
5.0
 40
6.0
 40
6.0
 40
6.0
 40
7.0
 40
7.0
 40
7.0
 40
8.0
 40
8.0
 40
8.0
 40
9.0
 40
9.0
 40
9.0
 40
10.0
 40
10.0
 40
10.0
 40
11.0
 40
11.0
 40
11.0
 40
12.0
 40
12.0
 40
12.0
 40
13.0
 40
13.0
 40
13.0
 40
13.0
 10
1.84252675374349
 20
-1.026601155598958
 30
0.0
 10
1.794831169976128
 20
-0.6736212836371528
 30
0.0
 10
2.176422966851129
 20
-0.6469150119357638
 30
0.0
 10
2.176422966851129
 20
-0.917843288845486
 30
0.0
 10
2.176422966851129
 20
-1.028506808810764
 30
0.0
 10
2.105832417805989
 20
-1.104827880859375
 30
0.0
 10
2.000892639160156
 20
-1.070485432942708
 30
0.0
 10
2.409197489420573
 20
-1.967234293619792
 30
0.0
 10
3.263981289333767
 20
-0.778561062282986
 30
0.0
 10
2.376767476399739
 20
-0.8453403049045138
 30
0.0
 10
2.376767476399739
 20
-0.8453403049045138
 30
0.0
 10
2.388214959038628
 20
-1.005611843532986
 30
0.0
 10
2.388214959038628
 20
-1.005611843532986
 30
0.0
 10
2.388214959038628
 20
-1.005611843532986
 30
0.0
 10
2.235572814941406
 20
-0.9560038248697916
 30
0.0
 10
2.235572814941406
 20
-0.9560038248697916
 30
0.0
 10
2.235572814941406
 20
-0.9560038248697916
 30
0.0
 10
2.18978288438585
 20
-0.2557746039496528
 30
0.0
 10
2.18978288438585
 20
-0.2557746039496528
 30
0.0
 10
2.147804260253906
 20
-0.2576802571614583
 30
0.0
 10
2.048588222927517
 20
-0.2557746039496528
 30
0.0
 10
2.004710727267795
 20
-0.2462327745225694
 30
0.0
 10
2.004710727267795
 20
-0.2462327745225694
 30
0.0
 10
2.018063863118489
 20
-0.0592549641927083
 30
0.0
 10
2.018063863118489
 20
-0.0592549641927083
 30
0.0
 10
2.025693257649739
 20
-0.042083740234375
 30
0.0
 10
2.269915262858073
 20
-0.0344475640190972
 30
0.0
 10
2.323341369628906
 20
-0.0344475640190972
 30
0.0
 10
2.582828945583767
 20
-0.0344475640190972
 30
0.0
 10
2.916725158691406
 20
-0.049713134765625
 30
0.0
 10
2.93770768907335
 20
-0.3817036946614583
 30
0.0
 10
2.93770768907335
 20
-0.3817036946614583
 30
0.0
 10
2.93770768907335
 20
-0.3988749186197916
 30
0.0
 10
2.93770768907335
 20
-0.3988749186197916
 30
0.0
 10
2.93770768907335
 20
-0.6144782172309028
 30
0.0
 10
2.653419494628906
 20
-0.6469150119357638
 30
0.0
 10
2.601905822753906
 20
-0.6774393717447916
 30
0.0
 10
3.853553771972656
 20
-1.177330864800347
 30
0.0
 10
2.016158209906684
 20
-2.200008816189236
 30
0.0
 10
1.84252675374349
 20
-1.026601155598958
 30
0.0
  0
SPLINE
  5
73
330
6E
100
AcDbEntity
  8
Layer 1
370
     0
100
AcDbSpline
210
0.0
220
0.0
230
1.0
 70
    11
 71
     3
 72
    17
 73
    13
 74
     0
 42
0.0000000001
 43
0.0000000001
 12
1.0
 22
0.0
 32
0.0
 13
1.0
 23
0.0
 33
0.0
 40
0.0
 40
0.0
 40
0.0
 40
0.0
 40
1.0
 40
1.0
 40
1.0
 40
2.0
 40
2.0
 40
2.0
 40
3.0
 40
3.0
 40
3.0
 40
4.0
 40
4.0
 40
4.0
 40
4.0
 10
2.668685065375434
 20
-0.3931511773003472
 30
0.0
 10
2.668685065375434
 20
-0.3931511773003472
 30
0.0
 10
2.668685065375434
 20
-0.372161865234375
 30
0.0
 10
2.668685065375434
 20
-0.372161865234375
 30
0.0
 10
2.65914323594835
 20
-0.2366977267795139
 30
0.0
 10
2.428281148274739
 20
-0.2366977267795139
 30
0.0
 10
2.355778164333767
 20
-0.2557746039496528
 30
0.0
 10
2.353865729437934
 20
-0.2614983452690972
 30
0.0
 10
2.350054423014323
 20
-0.2882113986545139
 30
0.0
 10
2.38057878282335
 20
-0.6488206651475694
 30
0.0
 10
2.538944668240017
 20
-0.6240132649739583
 30
0.0
 10
2.668685065375434
 20
-0.5610521104600694
 30
0.0
 10
2.668685065375434
 20
-0.3931511773003472
 30
0.0
  0
ENDBLK
  5
71
330
6E
100
AcDbEntity
  8
0
100
AcDbBlockEnd
  0
BLOCK
  5
76
330
74
100
AcDbEntity
  8
0
100
AcDbBlockBegin
  2
block 9
 70
     0
 10
0.0
 20
0.0
 30
0.0
  3
block 9
  1

  0
SPLINE
  5
78
330
74
100
AcDbEntity
  8
Layer 1
370
     0
100
AcDbSpline
210
0.0
220
0.0
230
1.0
 70
    11
 71
     3
 72
    47
 73
    43
 74
     0
 42
0.0000000001
 43
0.0000000001
 12
1.0
 22
0.0
 32
0.0
 13
1.0
 23
0.0
 33
0.0
 40
0.0
 40
0.0
 40
0.0
 40
0.0
 40
1.0
 40
1.0
 40
1.0
 40
2.0
 40
2.0
 40
2.0
 40
3.0
 40
3.0
 40
3.0
 40
4.0
 40
4.0
 40
4.0
 40
5.0
 40
5.0
 40
5.0
 40
6.0
 40
6.0
 40
6.0
 40
7.0
 40
7.0
 40
7.0
 40
8.0
 40
8.0
 40
8.0
 40
9.0
 40
9.0
 40
9.0
 40
10.0
 40
10.0
 40
10.0
 40
11.0
 40
11.0
 40
11.0
 40
12.0
 40
12.0
 40
12.0
 40
13.0
 40
13.0
 40
13.0
 40
14.0
 40
14.0
 40
14.0
 40
14.0
 10
3.0636232164171
 20
-0.8758714463975694
 30
0.0
 10
3.0636232164171
 20
-0.6526387532552083
 30
0.0
 10
3.214352925618489
 20
-0.3740675184461805
 30
0.0
 10
3.4662111070421
 20
-0.3740675184461805
 30
0.0
 10
3.710433112250434
 20
-0.3740675184461805
 30
0.0
 10
3.803925408257378
 20
-0.6049363878038194
 30
0.0
 10
3.823009067111545
 20
-0.8167215983072916
 30
0.0
 10
3.823009067111545
 20
-0.8167215983072916
 30
0.0
 10
3.2754152086046
 20
-0.9388326009114583
 30
0.0
 10
3.2754152086046
 20
-0.9388326009114583
 30
0.0
 10
3.2754152086046
 20
-1.062856038411458
 30
0.0
 10
3.298310173882378
 20
-1.169701470269097
 30
0.0
 10
3.359358893500434
 20
-1.278452555338542
 30
0.0
 10
3.445228576660156
 20
-1.434912787543403
 30
0.0
 10
3.727604336208767
 20
-1.404381646050347
 30
0.0
 10
3.731415642632378
 20
-1.200225830078125
 30
0.0
 10
3.731415642632378
 20
-1.200225830078125
 30
0.0
 10
3.731415642632378
 20
-1.192596435546875
 30
0.0
 10
3.731415642632378
 20
-1.192596435546875
 30
0.0
 10
3.704709370930989
 20
-1.225033230251736
 30
0.0
 10
3.6722657945421
 20
-1.232662624782986
 30
0.0
 10
3.632199605305989
 20
-1.232662624782986
 30
0.0
 10
3.550154791937934
 20
-1.232662624782986
 30
0.0
 10
3.496742248535156
 20
-1.188778347439236
 30
0.0
 10
3.496742248535156
 20
-1.104827880859375
 30
0.0
 10
3.504364861382378
 20
-1.022783067491319
 30
0.0
 10
3.571150885687934
 20
-0.9369269476996527
 30
0.0
 10
3.6570070054796
 20
-0.9369269476996527
 30
0.0
 10
3.6570070054796
 20
-0.9369269476996527
 30
0.0
 10
3.668454488118489
 20
-0.9369269476996527
 30
0.0
 10
3.668454488118489
 20
-0.9369269476996527
 30
0.0
 10
3.775306701660156
 20
-0.9369269476996527
 30
0.0
 10
3.855439080132378
 20
-1.001800537109375
 30
0.0
 10
3.855439080132378
 20
-1.110551622178819
 30
0.0
 10
3.855439080132378
 20
-1.299441867404514
 30
0.0
 10
3.742863125271267
 20
-1.492150200737847
 30
0.0
 10
3.534896002875434
 20
-1.492150200737847
 30
0.0
 10
3.534896002875434
 20
-1.492150200737847
 30
0.0
 10
3.5177247789171
 20
-1.492150200737847
 30
0.0
 10
3.5177247789171
 20
-1.492150200737847
 30
0.0
 10
3.181922912597656
 20
-1.492150200737847
 30
0.0
 10
3.075070699055989
 20
-1.160159640842014
 30
0.0
 10
3.0636232164171
 20
-0.8758714463975694
 30
0.0
  0
SPLINE
  5
79
330
74
100
AcDbEntity
  8
Layer 1
370
     0
100
AcDbSpline
210
0.0
220
0.0
230
1.0
 70
    11
 71
     3
 72
    14
 73
    10
 74
     0
 42
0.0000000001
 43
0.0000000001
 12
1.0
 22
0.0
 32
0.0
 13
1.0
 23
0.0
 33
0.0
 40
0.0
 40
0.0
 40
0.0
 40
0.0
 40
1.0
 40
1.0
 40
1.0
 40
2.0
 40
2.0
 40
2.0
 40
3.0
 40
3.0
 40
3.0
 40
3.0
 10
3.286862691243489
 20
-0.8205396864149305
 30
0.0
 10
3.286862691243489
 20
-0.8205396864149305
 30
0.0
 10
3.670366923014323
 20
-0.7671135796440972
 30
0.0
 10
3.670366923014323
 20
-0.7671135796440972
 30
0.0
 10
3.670366923014323
 20
-0.6736212836371528
 30
0.0
 10
3.594045850965712
 20
-0.5305277506510416
 30
0.0
 10
3.487193637424045
 20
-0.5305277506510416
 30
0.0
 10
3.361271328396267
 20
-0.5305277506510416
 30
0.0
 10
3.286862691243489
 20
-0.7136942545572916
 30
0.0
 10
3.286862691243489
 20
-0.8205396864149305
 30
0.0
  0
ENDBLK
  5
77
330
74
100
AcDbEntity
  8
0
100
AcDbBlockEnd
  0
BLOCK
  5
7C
330
7A
100
AcDbEntity
  8
0
100
AcDbBlockBegin
  2
block 10
 70
     0
 10
0.0
 20
0.0
 30
0.0
  3
block 10
  1

  0
SPLINE
  5
7E
330
7A
100
AcDbEntity
  8
Layer 1
370
     0
100
AcDbSpline
210
0.0
220
0.0
230
1.0
 70
    11
 71
     3
 72
    50
 73
    46
 74
     0
 42
0.0000000001
 43
0.0000000001
 12
1.0
 22
0.0
 32
0.0
 13
1.0
 23
0.0
 33
0.0
 40
0.0
 40
0.0
 40
0.0
 40
0.0
 40
1.0
 40
1.0
 40
1.0
 40
2.0
 40
2.0
 40
2.0
 40
3.0
 40
3.0
 40
3.0
 40
4.0
 40
4.0
 40
4.0
 40
5.0
 40
5.0
 40
5.0
 40
6.0
 40
6.0
 40
6.0
 40
7.0
 40
7.0
 40
7.0
 40
8.0
 40
8.0
 40
8.0
 40
9.0
 40
9.0
 40
9.0
 40
10.0
 40
10.0
 40
10.0
 40
11.0
 40
11.0
 40
11.0
 40
12.0
 40
12.0
 40
12.0
 40
13.0
 40
13.0
 40
13.0
 40
14.0
 40
14.0
 40
14.0
 40
15.0
 40
15.0
 40
15.0
 40
15.0
 10
2.082035488552517
 20
-2.940697564019097
 30
0.0
 10
2.082035488552517
 20
-3.085710313585069
 30
0.0
 10
2.118290371365017
 20
-3.742055257161458
 30
0.0
 10
2.127825419108073
 20
-3.820275200737847
 30
0.0
 10
2.127825419108073
 20
-3.820275200737847
 30
0.0
 10
2.127825419108073
 20
-3.829823811848958
 30
0.0
 10
2.127825419108073
 20
-3.829823811848958
 30
0.0
 10
2.068682352701823
 20
-3.83744642469618
 30
0.0
 10
1.942753261990017
 20
-3.85844251844618
 30
0.0
 10
1.891239590115017
 20
-3.856530083550347
 30
0.0
 10
1.891239590115017
 20
-3.856530083550347
 30
0.0
 10
1.891239590115017
 20
-3.721059163411458
 30
0.0
 10
1.891239590115017
 20
-3.721059163411458
 30
0.0
 10
1.709978739420573
 20
-3.919491238064236
 30
0.0
 10
1.33410390218099
 20
-3.959557427300347
 30
0.0
 10
1.278772142198351
 20
-3.692440456814236
 30
0.0
 10
1.173839145236545
 20
-3.287953694661458
 30
0.0
 10
1.578325907389323
 20
-3.116227891710069
 30
0.0
 10
1.908410814073351
 20
-3.249786376953125
 30
0.0
 10
1.908410814073351
 20
-3.087609185112847
 30
0.0
 10
1.896963331434462
 20
-2.789967854817708
 30
0.0
 10
1.652741326226128
 20
-2.789967854817708
 30
0.0
 10
1.56115468343099
 20
-2.789967854817708
 30
0.0
 10
1.469574822319878
 20
-2.851023356119792
 30
0.0
 10
1.469574822319878
 20
-2.954050699869792
 30
0.0
 10
1.469574822319878
 20
-3.007476806640625
 30
0.0
 10
1.50964101155599
 20
-3.018924289279514
 30
0.0
 10
1.54589589436849
 20
-3.018924289279514
 30
0.0
 10
1.54589589436849
 20
-2.959774441189236
 30
0.0
 10
1.549707200792101
 20
-2.904442681206597
 30
0.0
 10
1.624122619628906
 20
-2.904442681206597
 30
0.0
 10
1.671818203396267
 20
-2.904442681206597
 30
0.0
 10
1.708073086208767
 20
-2.936879475911458
 30
0.0
 10
1.708073086208767
 20
-2.98649427625868
 30
0.0
 10
1.708073086208767
 20
-3.079986572265625
 30
0.0
 10
1.637475755479601
 20
-3.116227891710069
 30
0.0
 10
1.549707200792101
 20
-3.116227891710069
 30
0.0
 10
1.456214904785156
 20
-3.116227891710069
 30
0.0
 10
1.372264438205295
 20
-3.062801784939236
 30
0.0
 10
1.372264438205295
 20
-2.95786878797743
 30
0.0
 10
1.372264438205295
 20
-2.776607937282986
 30
0.0
 10
1.564972771538628
 20
-2.675486246744792
 30
0.0
 10
1.723331875271267
 20
-2.675486246744792
 30
0.0
 10
1.872155931260851
 20
-2.675486246744792
 30
0.0
 10
2.082035488552517
 20
-2.761349148220486
 30
0.0
 10
2.082035488552517
 20
-2.940697564019097
 30
0.0
  0
SPLINE
  5
7F
330
7A
100
AcDbEntity
  8
Layer 1
370
     0
100
AcDbSpline
210
0.0
220
0.0
230
1.0
 70
    11
 71
     3
 72
    17
 73
    13
 74
     0
 42
0.0000000001
 43
0.0000000001
 12
1.0
 22
0.0
 32
0.0
 13
1.0
 23
0.0
 33
0.0
 40
0.0
 40
0.0
 40
0.0
 40
0.0
 40
1.0
 40
1.0
 40
1.0
 40
2.0
 40
2.0
 40
2.0
 40
3.0
 40
3.0
 40
3.0
 40
4.0
 40
4.0
 40
4.0
 40
4.0
 10
1.921763949924045
 20
-3.476837158203125
 30
0.0
 10
1.921763949924045
 20
-3.373809814453125
 30
0.0
 10
1.793929206000434
 20
-3.299401177300347
 30
0.0
 10
1.690901862250434
 20
-3.299401177300347
 30
0.0
 10
1.547801547580295
 20
-3.299401177300347
 30
0.0
 10
1.469574822319878
 20
-3.394792344835069
 30
0.0
 10
1.469574822319878
 20
-3.530263264973958
 30
0.0
 10
1.469574822319878
 20
-3.614220513237847
 30
0.0
 10
1.503917270236545
 20
-3.71916029188368
 30
0.0
 10
1.60503896077474
 20
-3.71916029188368
 30
0.0
 10
1.72906239827474
 20
-3.71916029188368
 30
0.0
 10
1.921763949924045
 20
-3.61039564344618
 30
0.0
 10
1.921763949924045
 20
-3.476837158203125
 30
0.0
  0
ENDBLK
  5
7D
330
7A
100
AcDbEntity
  8
0
100
AcDbBlockEnd
  0
BLOCK
  5
83
330
81
100
AcDbEntity
  8
0
100
AcDbBlockBegin
  2
block 11
 70
     0
 10
0.0
 20
0.0
 30
0.0
  3
block 11
  1

  0
SPLINE
  5
85
330
81
100
AcDbEntity
  8
Layer 1
370
     0
100
AcDbSpline
210
0.0
220
0.0
230
1.0
 70
    11
 71
     3
 72
    38
 73
    34
 74
     0
 42
0.0000000001
 43
0.0000000001
 12
1.0
 22
0.0
 32
0.0
 13
1.0
 23
0.0
 33
0.0
 40
0.0
 40
0.0
 40
0.0
 40
0.0
 40
1.0
 40
1.0
 40
1.0
 40
2.0
 40
2.0
 40
2.0
 40
3.0
 40
3.0
 40
3.0
 40
4.0
 40
4.0
 40
4.0
 40
5.0
 40
5.0
 40
5.0
 40
6.0
 40
6.0
 40
6.0
 40
7.0
 40
7.0
 40
7.0
 40
8.0
 40
8.0
 40
8.0
 40
9.0
 40
9.0
 40
9.0
 40
10.0
 40
10.0
 40
10.0
 40
11.0
 40
11.0
 40
11.0
 40
11.0
 10
4.098752339680989
 20
-2.515214708116319
 30
0.0
 10
3.959470113118489
 20
-3.35282728407118
 30
0.0
 10
3.976641337076823
 20
-3.598948160807292
 30
0.0
 10
4.037703620062934
 20
-3.827911376953125
 30
0.0
 10
4.037703620062934
 20
-3.827911376953125
 30
0.0
 10
3.778209262424045
 20
-3.841271294487847
 30
0.0
 10
3.778209262424045
 20
-3.841271294487847
 30
0.0
 10
3.778209262424045
 20
-3.841271294487847
 30
0.0
 10
3.787757873535156
 20
-3.77067396375868
 30
0.0
 10
3.787757873535156
 20
-3.77067396375868
 30
0.0
 10
3.726695590549045
 20
-3.812652587890625
 30
0.0
 10
3.650374518500434
 20
-3.83744642469618
 30
0.0
 10
3.560707092285156
 20
-3.83744642469618
 30
0.0
 10
3.549259609646267
 20
-3.83744642469618
 30
0.0
 10
3.488197326660156
 20
-3.835547553168403
 30
0.0
 10
3.476749844021267
 20
-3.835547553168403
 30
0.0
 10
3.247786627875434
 20
-3.77067396375868
 30
0.0
 10
3.139035542805989
 20
-3.555070665147569
 30
0.0
 10
3.139035542805989
 20
-3.337554931640625
 30
0.0
 10
3.139035542805989
 20
-3.322296142578125
 30
0.0
 10
3.139035542805989
 20
-3.305124918619792
 30
0.0
 10
3.140947977701823
 20
-3.289852566189236
 30
0.0
 10
3.156206766764323
 20
-3.055179172092014
 30
0.0
 10
3.310761345757378
 20
-2.81095716688368
 30
0.0
 10
3.579777187771267
 20
-2.81095716688368
 30
0.0
 10
3.690440707736545
 20
-2.81095716688368
 30
0.0
 10
3.776310390896267
 20
-2.847205268012153
 30
0.0
 10
3.839271545410156
 20
-2.90635511610243
 30
0.0
 10
3.837359110514323
 20
-2.780426025390625
 30
0.0
 10
3.831635369194878
 20
-2.650685628255208
 30
0.0
 10
3.822100321451823
 20
-2.515214708116319
 30
0.0
 10
3.822100321451823
 20
-2.515214708116319
 30
0.0
 10
4.098752339680989
 20
-2.515214708116319
 30
0.0
 10
4.098752339680989
 20
-2.515214708116319
 30
0.0
  0
SPLINE
  5
86
330
81
100
AcDbEntity
  8
Layer 1
370
     0
100
AcDbSpline
210
0.0
220
0.0
230
1.0
 70
    11
 71
     3
 72
    17
 73
    13
 74
     0
 42
0.0000000001
 43
0.0000000001
 12
1.0
 22
0.0
 32
0.0
 13
1.0
 23
0.0
 33
0.0
 40
0.0
 40
0.0
 40
0.0
 40
0.0
 40
1.0
 40
1.0
 40
1.0
 40
2.0
 40
2.0
 40
2.0
 40
3.0
 40
3.0
 40
3.0
 40
4.0
 40
4.0
 40
4.0
 40
4.0
 10
3.570242140028212
 20
-2.948326958550347
 30
0.0
 10
3.4061525132921
 20
-2.948326958550347
 30
0.0
 10
3.375621371799045
 20
-3.152482774522569
 30
0.0
 10
3.3698976304796
 20
-3.266957600911458
 30
0.0
 10
3.358450147840712
 20
-3.417687310112847
 30
0.0
 10
3.371810065375434
 20
-3.709611680772569
 30
0.0
 10
3.595049540201823
 20
-3.709611680772569
 30
0.0
 10
3.747678120930989
 20
-3.709611680772569
 30
0.0
 10
3.770586649576823
 20
-3.494008382161458
 30
0.0
 10
3.778209262424045
 20
-3.394792344835069
 30
0.0
 10
3.787757873535156
 20
-3.257422553168403
 30
0.0
 10
3.774397956000434
 20
-2.948326958550347
 30
0.0
 10
3.570242140028212
 20
-2.948326958550347
 30
0.0
  0
ENDBLK
  5
84
330
81
100
AcDbEntity
  8
0
100
AcDbBlockEnd
  0
ENDSEC
  0
SECTION
  2
ENTITIES
  0
SPLINE
  5
41
330
1F
100
AcDbEntity
  8
Layer 1
370
     0
100
AcDbSpline
210
0.0
220
0.0
230
1.0
 70
    11
 71
     3
 72
    56
 73
    52
 74
     0
 42
0.0000000001
 43
0.0000000001
 12
1.0
 22
0.0
 32
0.0
 13
1.0
 23
0.0
 33
0.0
 40
0.0
 40
0.0
 40
0.0
 40
0.0
 40
1.0
 40
1.0
 40
1.0
 40
2.0
 40
2.0
 40
2.0
 40
3.0
 40
3.0
 40
3.0
 40
4.0
 40
4.0
 40
4.0
 40
5.0
 40
5.0
 40
5.0
 40
6.0
 40
6.0
 40
6.0
 40
7.0
 40
7.0
 40
7.0
 40
8.0
 40
8.0
 40
8.0
 40
9.0
 40
9.0
 40
9.0
 40
10.0
 40
10.0
 40
10.0
 40
11.0
 40
11.0
 40
11.0
 40
12.0
 40
12.0
 40
12.0
 40
13.0
 40
13.0
 40
13.0
 40
14.0
 40
14.0
 40
14.0
 40
15.0
 40
15.0
 40
15.0
 40
16.0
 40
16.0
 40
16.0
 40
17.0
 40
17.0
 40
17.0
 40
17.0
 10
0.5667766994900173
 20
-1.768619113498264
 30
0.0
 10
0.564864264594184
 20
-1.764801025390625
 30
0.0
 10
0.5667766994900173
 20
-1.760982937282986
 30
0.0
 10
0.5667766994900173
 20
-1.760982937282986
 30
0.0
 10
0.5992134941948785
 20
-1.760982937282986
 30
0.0
 10
0.7289538913302951
 20
-1.783877902560764
 30
0.0
 10
0.732771979437934
 20
-1.791514078776042
 30
0.0
 10
0.7308595445421007
 20
-1.787695990668403
 30
0.0
 10
0.8319812350802951
 20
-1.667490641276042
 30
0.0
 10
0.9521865844726562
 20
-1.667490641276042
 30
0.0
 10
1.165884229871962
 20
-1.667490641276042
 30
0.0
 10
1.192590501573351
 20
-1.932701958550347
 30
0.0
 10
1.202132331000434
 20
-2.066260443793403
 30
0.0
 10
1.238387213812934
 20
-1.913625081380208
 30
0.0
 10
1.343326992458767
 20
-1.741906060112847
 30
0.0
 10
1.507409837510851
 20
-1.741906060112847
 30
0.0
 10
1.909997728135851
 20
-1.741906060112847
 30
0.0
 10
1.667681376139323
 20
-2.617672390407986
 30
0.0
 10
1.564647250705295
 20
-2.611941867404514
 30
0.0
 10
1.564647250705295
 20
-2.611941867404514
 30
0.0
 10
1.442536248101128
 20
-2.604312472873264
 30
0.0
 10
1.442536248101128
 20
-2.604312472873264
 30
0.0
 10
1.576101515028212
 20
-2.463124593098958
 30
0.0
 10
1.560835944281684
 20
-2.00138685438368
 30
0.0
 10
1.461619906955295
 20
-2.00138685438368
 30
0.0
 10
1.299442715115017
 20
-2.00138685438368
 30
0.0
 10
1.24029286702474
 20
-2.415422227647569
 30
0.0
 10
1.225027296278212
 20
-2.527991400824653
 30
0.0
 10
1.225027296278212
 20
-2.531809488932292
 30
0.0
 10
1.223121643066406
 20
-2.537533230251736
 30
0.0
 10
1.223121643066406
 20
-2.541351318359375
 30
0.0
 10
1.223121643066406
 20
-2.541351318359375
 30
0.0
 10
1.10101064046224
 20
-2.562340630425347
 30
0.0
 10
1.10101064046224
 20
-2.562340630425347
 30
0.0
 10
1.104828728569878
 20
-2.424964057074653
 30
0.0
 10
1.102916293674045
 20
-2.346737331814236
 30
0.0
 10
1.074297587076823
 20
-2.205542670355903
 30
0.0
 10
1.062850104437934
 20
-2.140675862630208
 30
0.0
 10
1.003700256347656
 20
-1.972768147786458
 30
0.0
 10
0.9197497897677951
 20
-1.972768147786458
 30
0.0
 10
0.8491592407226562
 20
-1.972768147786458
 30
0.0
 10
0.8186280992296007
 20
-2.117774115668403
 30
0.0
 10
0.8186280992296007
 20
-2.171200222439236
 30
0.0
 10
0.8186280992296007
 20
-2.36771986219618
 30
0.0
 10
0.8701417711046007
 20
-2.573788113064236
 30
0.0
 10
0.9273859659830729
 20
-2.671091715494792
 30
0.0
 10
0.6201960245768229
 20
-2.753136528862847
 30
0.0
 10
0.6182903713650173
 20
-2.755042182074653
 30
0.0
 10
0.6182903713650173
 20
-2.755042182074653
 30
0.0
 10
0.696517096625434
 20
-2.268510606553819
 30
0.0
 10
0.5934829711914062
 20
-1.839209662543403
 30
0.0
 10
0.5667766994900173
 20
-1.768619113498264
 30
0.0
  0
INSERT
  5
43
330
1F
100
AcDbEntity
  8
Layer 1
100
AcDbBlockReference
  2
block 2
 10
0.0
 20
0.0
 30
0.0
  0
INSERT
  5
49
330
1F
100
AcDbEntity
  8
Layer 1
100
AcDbBlockReference
  2
block 3
 10
0.0
 20
0.0
 30
0.0
  0
INSERT
  5
4F
330
1F
100
AcDbEntity
  8
Layer 1
100
AcDbBlockReference
  2
block 4
 10
0.0
 20
0.0
 30
0.0
  0
SPLINE
  5
54
330
1F
100
AcDbEntity
  8
Layer 1
370
     0
100
AcDbSpline
210
0.0
220
0.0
230
1.0
 70
    11
 71
     3
 72
    41
 73
    37
 74
     0
 42
0.0000000001
 43
0.0000000001
 12
1.0
 22
0.0
 32
0.0
 13
1.0
 23
0.0
 33
0.0
 40
0.0
 40
0.0
 40
0.0
 40
0.0
 40
1.0
 40
1.0
 40
1.0
 40
2.0
 40
2.0
 40
2.0
 40
3.0
 40
3.0
 40
3.0
 40
4.0
 40
4.0
 40
4.0
 40
5.0
 40
5.0
 40
5.0
 40
6.0
 40
6.0
 40
6.0
 40
7.0
 40
7.0
 40
7.0
 40
8.0
 40
8.0
 40
8.0
 40
9.0
 40
9.0
 40
9.0
 40
10.0
 40
10.0
 40
10.0
 40
11.0
 40
11.0
 40
11.0
 40
12.0
 40
12.0
 40
12.0
 40
12.0
 10
4.6097657945421
 20
-2.449764675564236
 30
0.0
 10
4.680363125271267
 20
-2.449764675564236
 30
0.0
 10
4.829193962944879
 20
-2.432593451605903
 30
0.0
 10
4.8215577867296
 20
-2.27232191297743
 30
0.0
 10
4.913137647840712
 20
-2.510820176866319
 30
0.0
 10
4.833005269368489
 20
-3.254940456814236
 30
0.0
 10
4.539182027180989
 20
-3.035512288411458
 30
0.0
 10
4.628849453396267
 20
-3.001169840494792
 30
0.0
 10
4.691810607910156
 20
-2.968739827473958
 30
0.0
 10
4.691810607910156
 20
-2.844716389973958
 30
0.0
 10
4.691810607910156
 20
-2.686357286241319
 30
0.0
 10
4.344561258951822
 20
-2.655826144748264
 30
0.0
 10
4.344561258951822
 20
-2.863800048828125
 30
0.0
 10
4.344561258951822
 20
-3.329349093967014
 30
0.0
 10
4.8940675523546
 20
-3.155724419487847
 30
0.0
 10
4.978011237250434
 20
-2.848534478081597
 30
0.0
 10
5.054332309299045
 20
-2.571875678168403
 30
0.0
 10
5.014266120062934
 20
-1.835398356119792
 30
0.0
 10
5.014266120062934
 20
-1.648413764105903
 30
0.0
 10
5.014266120062934
 20
-1.648413764105903
 30
0.0
 10
5.014266120062934
 20
-1.62742445203993
 30
0.0
 10
5.014266120062934
 20
-1.62742445203993
 30
0.0
 10
5.014266120062934
 20
-1.62742445203993
 30
0.0
 10
4.722341749403212
 20
-1.699927435980903
 30
0.0
 10
4.722341749403212
 20
-1.699927435980903
 30
0.0
 10
4.762407938639322
 20
-1.825856526692708
 30
0.0
 10
4.890242682562934
 20
-2.274234347873264
 30
0.0
 10
4.649845547146267
 20
-2.274234347873264
 30
0.0
 10
4.367456224229601
 20
-2.274234347873264
 30
0.0
 10
4.464759826660156
 20
-1.871646457248264
 30
0.0
 10
4.604042053222656
 20
-1.768619113498264
 30
0.0
 10
4.604042053222656
 20
-1.768619113498264
 30
0.0
 10
4.369368659125434
 20
-1.747629801432292
 30
0.0
 10
4.369368659125434
 20
-1.747629801432292
 30
0.0
 10
4.161401536729601
 20
-2.00138685438368
 30
0.0
 10
4.294960021972656
 20
-2.449764675564236
 30
0.0
 10
4.6097657945421
 20
-2.449764675564236
 30
0.0
  0
INSERT
  5
56
330
1F
100
AcDbEntity
  8
Layer 1
100
AcDbBlockReference
  2
block 5
 10
0.0
 20
0.0
 30
0.0
  0
INSERT
  5
5C
330
1F
100
AcDbEntity
  8
Layer 1
100
AcDbBlockReference
  2
block 6
 10
0.0
 20
0.0
 30
0.0
  0
SPLINE
  5
61
330
1F
100
AcDbEntity
  8
Layer 1
370
     0
100
AcDbSpline
210
0.0
220
0.0
230
1.0
 70
    11
 71
     3
 72
    17
 73
    13
 74
     0
 42
0.0000000001
 43
0.0000000001
 12
1.0
 22
0.0
 32
0.0
 13
1.0
 23
0.0
 33
0.0
 40
0.0
 40
0.0
 40
0.0
 40
0.0
 40
1.0
 40
1.0
 40
1.0
 40
2.0
 40
2.0
 40
2.0
 40
3.0
 40
3.0
 40
3.0
 40
4.0
 40
4.0
 40
4.0
 40
4.0
 10
2.586443583170573
 20
-4.472198486328125
 30
0.0
 10
2.586443583170573
 20
-4.472198486328125
 30
0.0
 10
2.317414177788628
 20
-4.472198486328125
 30
0.0
 10
2.317414177788628
 20
-4.472198486328125
 30
0.0
 10
2.33077409532335
 20
-4.760311550564236
 30
0.0
 10
2.418535868326823
 20
-4.977813720703125
 30
0.0
 10
2.344127231174045
 20
-5.380401611328125
 30
0.0
 10
2.344127231174045
 20
-5.380401611328125
 30
0.0
 10
2.613149854871962
 20
-5.380401611328125
 30
0.0
 10
2.613149854871962
 20
-5.380401611328125
 30
0.0
 10
2.599796719021267
 20
-5.088477240668403
 30
0.0
 10
2.512028164333767
 20
-4.777482774522569
 30
0.0
 10
2.586443583170573
 20
-4.472198486328125
 30
0.0
  0
SPLINE
  5
62
330
1F
100
AcDbEntity
  8
Layer 1
370
     0
100
AcDbSpline
210
0.0
220
0.0
230
1.0
 70
    11
 71
     3
 72
    17
 73
    13
 74
     0
 42
0.0000000001
 43
0.0000000001
 12
1.0
 22
0.0
 32
0.0
 13
1.0
 23
0.0
 33
0.0
 40
0.0
 40
0.0
 40
0.0
 40
0.0
 40
1.0
 40
1.0
 40
1.0
 40
2.0
 40
2.0
 40
2.0
 40
3.0
 40
3.0
 40
3.0
 40
4.0
 40
4.0
 40
4.0
 40
4.0
 10
2.437619527180989
 20
-3.926517062717014
 30
0.0
 10
2.315508524576823
 20
-3.926517062717014
 30
0.0
 10
2.229645623101128
 20
-4.014285617404513
 30
0.0
 10
2.229645623101128
 20
-4.119225396050347
 30
0.0
 10
2.229645623101128
 20
-4.22416517469618
 30
0.0
 10
2.315508524576823
 20
-4.31193372938368
 30
0.0
 10
2.437619527180989
 20
-4.31193372938368
 30
0.0
 10
2.559730529785156
 20
-4.31193372938368
 30
0.0
 10
2.639862908257378
 20
-4.22416517469618
 30
0.0
 10
2.639862908257378
 20
-4.119225396050347
 30
0.0
 10
2.639862908257378
 20
-4.014285617404513
 30
0.0
 10
2.559730529785156
 20
-3.926517062717014
 30
0.0
 10
2.437619527180989
 20
-3.926517062717014
 30
0.0
  0
INSERT
  5
64
330
1F
100
AcDbEntity
  8
Layer 1
100
AcDbBlockReference
  2
block 7
 10
0.0
 20
0.0
 30
0.0
  0
SPLINE
  5
69
330
1F
100
AcDbEntity
  8
Layer 1
370
     0
100
AcDbSpline
210
0.0
220
0.0
230
1.0
 70
    11
 71
     3
 72
    41
 73
    37
 74
     0
 42
0.0000000001
 43
0.0000000001
 12
1.0
 22
0.0
 32
0.0
 13
1.0
 23
0.0
 33
0.0
 40
0.0
 40
0.0
 40
0.0
 40
0.0
 40
1.0
 40
1.0
 40
1.0
 40
2.0
 40
2.0
 40
2.0
 40
3.0
 40
3.0
 40
3.0
 40
4.0
 40
4.0
 40
4.0
 40
5.0
 40
5.0
 40
5.0
 40
6.0
 40
6.0
 40
6.0
 40
7.0
 40
7.0
 40
7.0
 40
8.0
 40
8.0
 40
8.0
 40
9.0
 40
9.0
 40
9.0
 40
10.0
 40
10.0
 40
10.0
 40
11.0
 40
11.0
 40
11.0
 40
12.0
 40
12.0
 40
12.0
 40
12.0
 10
4.212033589680989
 20
-4.344363742404513
 30
0.0
 10
4.101370069715712
 20
-4.344363742404513
 30
0.0
 10
4.061303880479601
 20
-4.372982449001736
 30
0.0
 10
3.992618984646267
 20
-4.420684814453125
 30
0.0
 10
4.000241597493489
 20
-4.298573811848958
 30
0.0
 10
4.009790208604601
 20
-4.103953043619791
 30
0.0
 10
4.021237691243489
 20
-3.962771945529514
 30
0.0
 10
4.021237691243489
 20
-3.962771945529514
 30
0.0
 10
3.698782179090712
 20
-3.852108425564236
 30
0.0
 10
3.698782179090712
 20
-3.852108425564236
 30
0.0
 10
3.698782179090712
 20
-3.852108425564236
 30
0.0
 10
3.712142096625434
 20
-3.884538438585069
 30
0.0
 10
3.712142096625434
 20
-3.884538438585069
 30
0.0
 10
3.777015686035156
 20
-4.029544406467013
 30
0.0
 10
3.880043029785156
 20
-4.26042005750868
 30
0.0
 10
3.7312257554796
 20
-5.37467787000868
 30
0.0
 10
3.7312257554796
 20
-5.37467787000868
 30
0.0
 10
4.023136562771267
 20
-5.376590304904513
 30
0.0
 10
4.023136562771267
 20
-5.376590304904513
 30
0.0
 10
4.017412821451822
 20
-5.16288587782118
 30
0.0
 10
3.784638298882378
 20
-4.472198486328125
 30
0.0
 10
4.215844896104601
 20
-4.472198486328125
 30
0.0
 10
4.597450256347656
 20
-4.472198486328125
 30
0.0
 10
4.345592074924045
 20
-5.080841064453125
 30
0.0
 10
4.246376037597656
 20
-5.321251763237847
 30
0.0
 10
4.240652296278212
 20
-5.336510552300347
 30
0.0
 10
4.234928554958767
 20
-5.351782904730903
 30
0.0
 10
4.229204813639322
 20
-5.363230387369791
 30
0.0
 10
4.229204813639322
 20
-5.363230387369791
 30
0.0
 10
4.593625386555989
 20
-5.393761528862847
 30
0.0
 10
4.593625386555989
 20
-5.393761528862847
 30
0.0
 10
4.593625386555989
 20
-5.393761528862847
 30
0.0
 10
4.593625386555989
 20
-5.361317952473958
 30
0.0
 10
4.593625386555989
 20
-5.361317952473958
 30
0.0
 10
4.593625386555989
 20
-4.951107449001736
 30
0.0
 10
4.792057461208767
 20
-4.344363742404513
 30
0.0
 10
4.212033589680989
 20
-4.344363742404513
 30
0.0
  0
SPLINE
  5
6A
330
1F
100
AcDbEntity
  8
Layer 1
370
     0
100
AcDbSpline
210
0.0
220
0.0
230
1.0
 70
    11
 71
     3
 72
    50
 73
    46
 74
     0
 42
0.0000000001
 43
0.0000000001
 12
1.0
 22
0.0
 32
0.0
 13
1.0
 23
0.0
 33
0.0
 40
0.0
 40
0.0
 40
0.0
 40
0.0
 40
1.0
 40
1.0
 40
1.0
 40
2.0
 40
2.0
 40
2.0
 40
3.0
 40
3.0
 40
3.0
 40
4.0
 40
4.0
 40
4.0
 40
5.0
 40
5.0
 40
5.0
 40
6.0
 40
6.0
 40
6.0
 40
7.0
 40
7.0
 40
7.0
 40
8.0
 40
8.0
 40
8.0
 40
9.0
 40
9.0
 40
9.0
 40
10.0
 40
10.0
 40
10.0
 40
11.0
 40
11.0
 40
11.0
 40
12.0
 40
12.0
 40
12.0
 40
13.0
 40
13.0
 40
13.0
 40
14.0
 40
14.0
 40
14.0
 40
15.0
 40
15.0
 40
15.0
 40
15.0
 10
5.562877231174045
 20
-5.139990912543403
 30
0.0
 10
5.528534783257379
 20
-4.918663872612847
 30
0.0
 10
5.215627882215712
 20
-4.878597683376736
 30
0.0
 10
5.215627882215712
 20
-5.120920817057291
 30
0.0
 10
5.215627882215712
 20
-5.288821750217013
 30
0.0
 10
5.396888732910156
 20
-5.330786810980903
 30
0.0
 10
5.482744852701822
 20
-5.197228325737847
 30
0.0
 10
5.5208986070421
 20
-5.334611680772569
 30
0.0
 10
5.4178712632921
 20
-5.409020317925347
 30
0.0
 10
5.270952860514322
 20
-5.409020317925347
 30
0.0
 10
5.038178337944879
 20
-5.384212917751736
 30
0.0
 10
5.021007113986545
 20
-4.926300048828125
 30
0.0
 10
5.017195807562934
 20
-4.712609185112847
 30
0.0
 10
5.017195807562934
 20
-4.712609185112847
 30
0.0
 10
5.272865295410156
 20
-4.701161702473958
 30
0.0
 10
5.272865295410156
 20
-4.701161702473958
 30
0.0
 10
5.272865295410156
 20
-4.701161702473958
 30
0.0
 10
5.3148439195421
 20
-4.548519558376736
 30
0.0
 10
5.3148439195421
 20
-4.548519558376736
 30
0.0
 10
5.3148439195421
 20
-4.548519558376736
 30
0.0
 10
5.017195807562934
 20
-4.598120795355903
 30
0.0
 10
5.017195807562934
 20
-4.598120795355903
 30
0.0
 10
5.017195807562934
 20
-4.598120795355903
 30
0.0
 10
5.093516879611545
 20
-3.983754475911458
 30
0.0
 10
5.093516879611545
 20
-3.983754475911458
 30
0.0
 10
5.093516879611545
 20
-3.983754475911458
 30
0.0
 10
4.822575039333767
 20
-3.968495686848958
 30
0.0
 10
4.822575039333767
 20
-3.968495686848958
 30
0.0
 10
4.841658698187934
 20
-4.365346272786458
 30
0.0
 10
4.851207309299045
 20
-4.407324896918403
 30
0.0
 10
4.841658698187934
 20
-4.60575697157118
 30
0.0
 10
4.841658698187934
 20
-4.60575697157118
 30
0.0
 10
4.696652730305989
 20
-4.617204454210069
 30
0.0
 10
4.696652730305989
 20
-4.617204454210069
 30
0.0
 10
4.696652730305989
 20
-4.617204454210069
 30
0.0
 10
4.727183871799045
 20
-4.754587809244791
 30
0.0
 10
4.727183871799045
 20
-4.754587809244791
 30
0.0
 10
4.727183871799045
 20
-4.754587809244791
 30
0.0
 10
4.834036085340712
 20
-4.727867974175347
 30
0.0
 10
4.834036085340712
 20
-4.727867974175347
 30
0.0
 10
4.767250061035156
 20
-5.139990912543403
 30
0.0
 10
4.855018615722656
 20
-5.52921888563368
 30
0.0
 10
5.267141554090712
 20
-5.52921888563368
 30
0.0
 10
5.486556159125434
 20
-5.52921888563368
 30
0.0
 10
5.599132113986545
 20
-5.370866563585069
 30
0.0
 10
5.562877231174045
 20
-5.139990912543403
 30
0.0
  0
HATCH
  5
6B
330
1F
100
AcDbEntity
  8
Layer 1
 62
    12
420
 11730956
100
AcDbHatch
 10
0.0
 20
0.0
 30
0.0
210
0.0
220
0.0
230
1.0
  2
SOLID
 70
     1
 71
     0
 91
       18
 92
        1
 93
        1
 72
     4
 94
        3
 73
     0
 74
     1
 95
       56
 96
       52
 40
0.0
 40
0.0
 40
0.0
 40
0.0
 40
1.0
 40
1.0
 40
1.0
 40
2.0
 40
2.0
 40
2.0
 40
3.0
 40
3.0
 40
3.0
 40
4.0
 40
4.0
 40
4.0
 40
5.0
 40
5.0
 40
5.0
 40
6.0
 40
6.0
 40
6.0
 40
7.0
 40
7.0
 40
7.0
 40
8.0
 40
8.0
 40
8.0
 40
9.0
 40
9.0
 40
9.0
 40
10.0
 40
10.0
 40
10.0
 40
11.0
 40
11.0
 40
11.0
 40
12.0
 40
12.0
 40
12.0
 40
13.0
 40
13.0
 40
13.0
 40
14.0
 40
14.0
 40
14.0
 40
15.0
 40
15.0
 40
15.0
 40
16.0
 40
16.0
 40
16.0
 40
17.0
 40
17.0
 40
17.0
 40
17.0
 10
0.5667766994900173
 20
-1.768619113498264
 10
0.564864264594184
 20
-1.764801025390625
 10
0.5667766994900173
 20
-1.760982937282986
 10
0.5667766994900173
 20
-1.760982937282986
 10
0.5992134941948785
 20
-1.760982937282986
 10
0.7289538913302951
 20
-1.783877902560764
 10
0.732771979437934
 20
-1.791514078776042
 10
0.7308595445421007
 20
-1.787695990668403
 10
0.8319812350802951
 20
-1.667490641276042
 10
0.9521865844726562
 20
-1.667490641276042
 10
1.165884229871962
 20
-1.667490641276042
 10
1.192590501573351
 20
-1.932701958550347
 10
1.202132331000434
 20
-2.066260443793403
 10
1.238387213812934
 20
-1.913625081380208
 10
1.343326992458767
 20
-1.741906060112847
 10
1.507409837510851
 20
-1.741906060112847
 10
1.909997728135851
 20
-1.741906060112847
 10
1.667681376139323
 20
-2.617672390407986
 10
1.564647250705295
 20
-2.611941867404514
 10
1.564647250705295
 20
-2.611941867404514
 10
1.442536248101128
 20
-2.604312472873264
 10
1.442536248101128
 20
-2.604312472873264
 10
1.576101515028212
 20
-2.463124593098958
 10
1.560835944281684
 20
-2.00138685438368
 10
1.461619906955295
 20
-2.00138685438368
 10
1.299442715115017
 20
-2.00138685438368
 10
1.24029286702474
 20
-2.415422227647569
 10
1.225027296278212
 20
-2.527991400824653
 10
1.225027296278212
 20
-2.531809488932292
 10
1.223121643066406
 20
-2.537533230251736
 10
1.223121643066406
 20
-2.541351318359375
 10
1.223121643066406
 20
-2.541351318359375
 10
1.10101064046224
 20
-2.562340630425347
 10
1.10101064046224
 20
-2.562340630425347
 10
1.104828728569878
 20
-2.424964057074653
 10
1.102916293674045
 20
-2.346737331814236
 10
1.074297587076823
 20
-2.205542670355903
 10
1.062850104437934
 20
-2.140675862630208
 10
1.003700256347656
 20
-1.972768147786458
 10
0.9197497897677951
 20
-1.972768147786458
 10
0.8491592407226562
 20
-1.972768147786458
 10
0.8186280992296007
 20
-2.117774115668403
 10
0.8186280992296007
 20
-2.171200222439236
 10
0.8186280992296007
 20
-2.36771986219618
 10
0.8701417711046007
 20
-2.573788113064236
 10
0.9273859659830729
 20
-2.671091715494792
 10
0.6201960245768229
 20
-2.753136528862847
 10
0.6182903713650173
 20
-2.755042182074653
 10
0.6182903713650173
 20
-2.755042182074653
 10
0.696517096625434
 20
-2.268510606553819
 10
0.5934829711914062
 20
-1.839209662543403
 10
0.5667766994900173
 20
-1.768619113498264
 97
        0
 97
        0
 92
        1
 93
        1
 72
     4
 94
        3
 73
     0
 74
     1
 95
       47
 96
       43
 40
0.0
 40
0.0
 40
0.0
 40
0.0
 40
1.0
 40
1.0
 40
1.0
 40
2.0
 40
2.0
 40
2.0
 40
3.0
 40
3.0
 40
3.0
 40
4.0
 40
4.0
 40
4.0
 40
5.0
 40
5.0
 40
5.0
 40
6.0
 40
6.0
 40
6.0
 40
7.0
 40
7.0
 40
7.0
 40
8.0
 40
8.0
 40
8.0
 40
9.0
 40
9.0
 40
9.0
 40
10.0
 40
10.0
 40
10.0
 40
11.0
 40
11.0
 40
11.0
 40
12.0
 40
12.0
 40
12.0
 40
13.0
 40
13.0
 40
13.0
 40
14.0
 40
14.0
 40
14.0
 40
14.0
 10
1.801233079698351
 20
-2.131134033203125
 10
1.801233079698351
 20
-1.907901340060764
 10
1.95196278889974
 20
-1.629330105251736
 10
2.20382097032335
 20
-1.629330105251736
 10
2.448042975531684
 20
-1.629330105251736
 10
2.541535271538628
 20
-1.860198974609375
 10
2.560612148708767
 20
-2.071984185112847
 10
2.560612148708767
 20
-2.071984185112847
 10
2.013018290201823
 20
-2.194095187717014
 10
2.013018290201823
 20
-2.194095187717014
 10
2.013018290201823
 20
-2.318118625217014
 10
2.035920037163629
 20
-2.424964057074653
 10
2.096975538465712
 20
-2.533715142144097
 10
2.182831658257379
 20
-2.690175374348958
 10
2.465214199490017
 20
-2.659644232855903
 10
2.469032287597656
 20
-2.45548841688368
 10
2.469032287597656
 20
-2.45548841688368
 10
2.469032287597656
 20
-2.44785902235243
 10
2.469032287597656
 20
-2.44785902235243
 10
2.442319234212239
 20
-2.480295817057292
 10
2.409882439507378
 20
-2.487925211588542
 10
2.369816250271267
 20
-2.487925211588542
 10
2.287771436903212
 20
-2.487925211588542
 10
2.234345330132378
 20
-2.444040934244792
 10
2.234345330132378
 20
-2.36009046766493
 10
2.241981506347656
 20
-2.278045654296875
 10
2.308760748969184
 20
-2.192189534505208
 10
2.39461686876085
 20
-2.192189534505208
 10
2.39461686876085
 20
-2.192189534505208
 10
2.406064351399739
 20
-2.192189534505208
 10
2.406064351399739
 20
-2.192189534505208
 10
2.512916564941406
 20
-2.192189534505208
 10
2.593048943413628
 20
-2.25706312391493
 10
2.593048943413628
 20
-2.365814208984375
 10
2.593048943413628
 20
-2.554704454210069
 10
2.480479770236545
 20
-2.747412787543403
 10
2.272505866156684
 20
-2.747412787543403
 10
2.272505866156684
 20
-2.747412787543403
 10
2.25533464219835
 20
-2.747412787543403
 10
2.25533464219835
 20
-2.747412787543403
 10
1.919532775878906
 20
-2.747412787543403
 10
1.81268056233724
 20
-2.415422227647569
 10
1.801233079698351
 20
-2.131134033203125
 97
        0
 97
        0
 92
        1
 93
        1
 72
     4
 94
        3
 73
     0
 74
     1
 95
       14
 96
       10
 40
0.0
 40
0.0
 40
0.0
 40
0.0
 40
1.0
 40
1.0
 40
1.0
 40
2.0
 40
2.0
 40
2.0
 40
3.0
 40
3.0
 40
3.0
 40
3.0
 10
2.024472554524739
 20
-2.075802273220486
 10
2.024472554524739
 20
-2.075802273220486
 10
2.407976786295573
 20
-2.022376166449653
 10
2.407976786295573
 20
-2.022376166449653
 10
2.407976786295573
 20
-1.928883870442708
 10
2.331655714246962
 20
-1.785790337456597
 10
2.224810282389323
 20
-1.785790337456597
 10
2.098881191677517
 20
-1.785790337456597
 10
2.024472554524739
 20
-1.968956841362847
 10
2.024472554524739
 20
-2.075802273220486
 97
        0
 97
        0
 92
        1
 93
        1
 72
     4
 94
        3
 73
     0
 74
     1
 95
       41
 96
       37
 40
0.0
 40
0.0
 40
0.0
 40
0.0
 40
1.0
 40
1.0
 40
1.0
 40
2.0
 40
2.0
 40
2.0
 40
3.0
 40
3.0
 40
3.0
 40
4.0
 40
4.0
 40
4.0
 40
5.0
 40
5.0
 40
5.0
 40
6.0
 40
6.0
 40
6.0
 40
7.0
 40
7.0
 40
7.0
 40
8.0
 40
8.0
 40
8.0
 40
9.0
 40
9.0
 40
9.0
 40
10.0
 40
10.0
 40
10.0
 40
11.0
 40
11.0
 40
11.0
 40
12.0
 40
12.0
 40
12.0
 40
12.0
 10
2.6178224351671
 20
-1.623606363932292
 10
2.6178224351671
 20
-1.623606363932292
 10
2.78573015001085
 20
-1.63505384657118
 10
2.78573015001085
 20
-1.63505384657118
 10
2.78573015001085
 20
-1.63505384657118
 10
2.7933595445421
 20
-1.719011094835069
 10
2.7933595445421
 20
-1.719011094835069
 10
2.888764275444878
 20
-1.62742445203993
 10
3.018497890896267
 20
-1.556827121310764
 10
3.146332634819878
 20
-1.556827121310764
 10
3.340953403049045
 20
-1.556827121310764
 10
3.379107157389323
 20
-1.745717366536458
 10
3.379107157389323
 20
-1.938425699869792
 10
3.379107157389323
 20
-2.218902587890625
 10
3.001326666937934
 20
-2.205542670355903
 10
3.001326666937934
 20
-1.967044406467014
 10
3.001326666937934
 20
-1.85447523328993
 10
3.066200256347656
 20
-1.791514078776042
 10
3.188311258951823
 20
-1.791514078776042
 10
3.218842400444878
 20
-1.791514078776042
 10
3.234101189507378
 20
-1.793419731987847
 10
3.266544765896267
 20
-1.80296156141493
 10
3.266544765896267
 20
-1.80296156141493
 10
3.266544765896267
 20
-1.799143473307292
 10
3.266544765896267
 20
-1.799143473307292
 10
3.245548672146267
 20
-1.736182318793403
 10
3.161604987250434
 20
-1.70756361219618
 10
3.104354010687934
 20
-1.70756361219618
 10
2.606374952528212
 20
-1.70756361219618
 10
2.9841554429796
 20
-2.783660888671875
 10
2.957449171278212
 20
-2.756954616970486
 10
2.957449171278212
 20
-2.756954616970486
 10
2.646441141764323
 20
-2.787478976779514
 10
2.646441141764323
 20
-2.787478976779514
 10
2.667430453830295
 20
-2.787478976779514
 10
2.728485955132378
 20
-2.285681830512153
 10
2.6178224351671
 20
-1.623606363932292
 97
        0
 97
        0
 92
        1
 93
        1
 72
     4
 94
        3
 73
     0
 74
     1
 95
       11
 96
        7
 40
0.0
 40
0.0
 40
0.0
 40
0.0
 40
1.0
 40
1.0
 40
1.0
 40
2.0
 40
2.0
 40
2.0
 40
2.0
 10
3.272268507215712
 20
-1.812496609157986
 10
3.276079813639323
 20
-1.812496609157986
 10
3.276079813639323
 20
-1.806772867838542
 10
3.272268507215712
 20
-1.806772867838542
 10
3.270356072319878
 20
-1.806772867838542
 10
3.270356072319878
 20
-1.812496609157986
 10
3.272268507215712
 20
-1.812496609157986
 97
        0
 97
        0
 92
        1
 93
        1
 72
     4
 94
        3
 73
     0
 74
     1
 95
       41
 96
       37
 40
0.0
 40
0.0
 40
0.0
 40
0.0
 40
1.0
 40
1.0
 40
1.0
 40
2.0
 40
2.0
 40
2.0
 40
3.0
 40
3.0
 40
3.0
 40
4.0
 40
4.0
 40
4.0
 40
5.0
 40
5.0
 40
5.0
 40
6.0
 40
6.0
 40
6.0
 40
7.0
 40
7.0
 40
7.0
 40
8.0
 40
8.0
 40
8.0
 40
9.0
 40
9.0
 40
9.0
 40
10.0
 40
10.0
 40
10.0
 40
11.0
 40
11.0
 40
11.0
 40
12.0
 40
12.0
 40
12.0
 40
12.0
 10
3.451616923014323
 20
-1.623606363932292
 10
3.451616923014323
 20
-1.623606363932292
 10
3.619517856174045
 20
-1.63505384657118
 10
3.619517856174045
 20
-1.63505384657118
 10
3.619517856174045
 20
-1.63505384657118
 10
3.627154032389323
 20
-1.719011094835069
 10
3.627154032389323
 20
-1.719011094835069
 10
3.7225587632921
 20
-1.62742445203993
 10
3.852292378743489
 20
-1.556827121310764
 10
3.9801271226671
 20
-1.556827121310764
 10
4.174747890896267
 20
-1.556827121310764
 10
4.212901645236545
 20
-1.745717366536458
 10
4.212901645236545
 20
-1.938425699869792
 10
4.212901645236545
 20
-2.218902587890625
 10
3.835121154785156
 20
-2.205542670355903
 10
3.835121154785156
 20
-1.967044406467014
 10
3.835121154785156
 20
-1.85447523328993
 10
3.899994744194878
 20
-1.791514078776042
 10
4.022105746799045
 20
-1.791514078776042
 10
4.052636888292101
 20
-1.791514078776042
 10
4.067895677354601
 20
-1.793419731987847
 10
4.100339253743489
 20
-1.80296156141493
 10
4.100339253743489
 20
-1.80296156141493
 10
4.100339253743489
 20
-1.799143473307292
 10
4.100339253743489
 20
-1.799143473307292
 10
4.079343159993489
 20
-1.736182318793403
 10
3.995399475097656
 20
-1.70756361219618
 10
3.938148498535156
 20
-1.70756361219618
 10
3.440169440375434
 20
-1.70756361219618
 10
3.817949930826823
 20
-2.783660888671875
 10
3.791243659125434
 20
-2.756954616970486
 10
3.791243659125434
 20
-2.756954616970486
 10
3.480235629611545
 20
-2.787478976779514
 10
3.480235629611545
 20
-2.787478976779514
 10
3.501231723361545
 20
-2.787478976779514
 10
3.5622804429796
 20
-2.285681830512153
 10
3.451616923014323
 20
-1.623606363932292
 97
        0
 97
        0
 92
        1
 93
        1
 72
     4
 94
        3
 73
     0
 74
     1
 95
       11
 96
        7
 40
0.0
 40
0.0
 40
0.0
 40
0.0
 40
1.0
 40
1.0
 40
1.0
 40
2.0
 40
2.0
 40
2.0
 40
2.0
 10
4.106062995062934
 20
-1.812496609157986
 10
4.109874301486545
 20
-1.812496609157986
 10
4.109874301486545
 20
-1.806772867838542
 10
4.106062995062934
 20
-1.806772867838542
 10
4.104150560167101
 20
-1.806772867838542
 10
4.104150560167101
 20
-1.812496609157986
 10
4.106062995062934
 20
-1.812496609157986
 97
        0
 97
        0
 92
        1
 93
        1
 72
     4
 94
        3
 73
     0
 74
     1
 95
       41
 96
       37
 40
0.0
 40
0.0
 40
0.0
 40
0.0
 40
1.0
 40
1.0
 40
1.0
 40
2.0
 40
2.0
 40
2.0
 40
3.0
 40
3.0
 40
3.0
 40
4.0
 40
4.0
 40
4.0
 40
5.0
 40
5.0
 40
5.0
 40
6.0
 40
6.0
 40
6.0
 40
7.0
 40
7.0
 40
7.0
 40
8.0
 40
8.0
 40
8.0
 40
9.0
 40
9.0
 40
9.0
 40
10.0
 40
10.0
 40
10.0
 40
11.0
 40
11.0
 40
11.0
 40
12.0
 40
12.0
 40
12.0
 40
12.0
 10
4.6097657945421
 20
-2.449764675564236
 10
4.680363125271267
 20
-2.449764675564236
 10
4.829193962944879
 20
-2.432593451605903
 10
4.8215577867296
 20
-2.27232191297743
 10
4.913137647840712
 20
-2.510820176866319
 10
4.833005269368489
 20
-3.254940456814236
 10
4.539182027180989
 20
-3.035512288411458
 10
4.628849453396267
 20
-3.001169840494792
 10
4.691810607910156
 20
-2.968739827473958
 10
4.691810607910156
 20
-2.844716389973958
 10
4.691810607910156
 20
-2.686357286241319
 10
4.344561258951822
 20
-2.655826144748264
 10
4.344561258951822
 20
-2.863800048828125
 10
4.344561258951822
 20
-3.329349093967014
 10
4.8940675523546
 20
-3.155724419487847
 10
4.978011237250434
 20
-2.848534478081597
 10
5.054332309299045
 20
-2.571875678168403
 10
5.014266120062934
 20
-1.835398356119792
 10
5.014266120062934
 20
-1.648413764105903
 10
5.014266120062934
 20
-1.648413764105903
 10
5.014266120062934
 20
-1.62742445203993
 10
5.014266120062934
 20
-1.62742445203993
 10
5.014266120062934
 20
-1.62742445203993
 10
4.722341749403212
 20
-1.699927435980903
 10
4.722341749403212
 20
-1.699927435980903
 10
4.762407938639322
 20
-1.825856526692708
 10
4.890242682562934
 20
-2.274234347873264
 10
4.649845547146267
 20
-2.274234347873264
 10
4.367456224229601
 20
-2.274234347873264
 10
4.464759826660156
 20
-1.871646457248264
 10
4.604042053222656
 20
-1.768619113498264
 10
4.604042053222656
 20
-1.768619113498264
 10
4.369368659125434
 20
-1.747629801432292
 10
4.369368659125434
 20
-1.747629801432292
 10
4.161401536729601
 20
-2.00138685438368
 10
4.294960021972656
 20
-2.449764675564236
 10
4.6097657945421
 20
-2.449764675564236
 97
        0
 97
        0
 92
        1
 93
        1
 72
     4
 94
        3
 73
     0
 74
     1
 95
       35
 96
       31
 40
0.0
 40
0.0
 40
0.0
 40
0.0
 40
1.0
 40
1.0
 40
1.0
 40
2.0
 40
2.0
 40
2.0
 40
3.0
 40
3.0
 40
3.0
 40
4.0
 40
4.0
 40
4.0
 40
5.0
 40
5.0
 40
5.0
 40
6.0
 40
6.0
 40
6.0
 40
7.0
 40
7.0
 40
7.0
 40
8.0
 40
8.0
 40
8.0
 40
9.0
 40
9.0
 40
9.0
 40
10.0
 40
10.0
 40
10.0
 40
10.0
 10
1.498919169108073
 20
-4.84806654188368
 10
1.498919169108073
 20
-4.863338894314236
 10
1.498919169108073
 20
-4.880510118272569
 10
1.497013515896267
 20
-4.895768907335069
 10
1.479842291937934
 20
-5.126644558376736
 10
1.33483632405599
 20
-5.361317952473958
 10
1.039100646972656
 20
-5.361317952473958
 10
1.025740729437934
 20
-5.361317952473958
 10
0.9608739217122395
 20
-5.35941908094618
 10
0.9265246921115451
 20
-5.353695339626736
 10
0.9341608683268229
 20
-5.37467787000868
 10
0.9589614868164062
 20
-5.42619154188368
 10
0.9646852281358507
 20
-5.437639024522569
 10
0.9646852281358507
 20
-5.437639024522569
 10
0.6937501695421007
 20
-5.494876437717013
 10
0.6937501695421007
 20
-5.494876437717013
 10
0.6708552042643229
 20
-4.277591281467013
 10
0.5983522203233507
 20
-4.13639662000868
 10
0.5601916842990451
 20
-4.006649441189236
 10
0.5601916842990451
 20
-4.006649441189236
 10
0.8406685723198785
 20
-3.968495686848958
 10
0.8406685723198785
 20
-3.968495686848958
 10
0.7796130710177951
 20
-4.067711724175347
 10
0.7891549004448785
 20
-4.269955105251736
 10
0.7872424655490451
 20
-4.434044731987847
 10
0.8578397962782117
 20
-4.37870619032118
 10
0.9494196573893229
 20
-4.34245130750868
 10
1.058177524142795
 20
-4.34245130750868
 10
1.372996860080295
 20
-4.34245130750868
 10
1.498919169108073
 20
-4.601945665147569
 10
1.498919169108073
 20
-4.84806654188368
 97
        0
 97
        0
 92
        1
 93
        1
 72
     4
 94
        3
 73
     0
 74
     1
 95
       17
 96
       13
 40
0.0
 40
0.0
 40
0.0
 40
0.0
 40
1.0
 40
1.0
 40
1.0
 40
2.0
 40
2.0
 40
2.0
 40
3.0
 40
3.0
 40
3.0
 40
4.0
 40
4.0
 40
4.0
 40
4.0
 10
1.046730041503906
 20
-4.479834662543403
 10
0.8750110202365451
 20
-4.479834662543403
 10
0.8406685723198785
 20
-4.682078043619791
 10
0.8349448310004339
 20
-4.794653998480903
 10
0.8234973483615451
 20
-4.943471272786458
 10
0.8368504842122395
 20
-5.23539564344618
 10
1.073443094889323
 20
-5.23539564344618
 10
1.237525939941406
 20
-5.23539564344618
 10
1.262333340115017
 20
-5.021704779730903
 10
1.269962734646267
 20
-4.922488742404513
 10
1.279504564073351
 20
-4.787017822265625
 10
1.266144646538628
 20
-4.479834662543403
 10
1.046730041503906
 20
-4.479834662543403
 97
        0
 97
        0
 92
        1
 93
        1
 72
     4
 94
        3
 73
     0
 74
     1
 95
       41
 96
       37
 40
0.0
 40
0.0
 40
0.0
 40
0.0
 40
1.0
 40
1.0
 40
1.0
 40
2.0
 40
2.0
 40
2.0
 40
3.0
 40
3.0
 40
3.0
 40
4.0
 40
4.0
 40
4.0
 40
5.0
 40
5.0
 40
5.0
 40
6.0
 40
6.0
 40
6.0
 40
7.0
 40
7.0
 40
7.0
 40
8.0
 40
8.0
 40
8.0
 40
9.0
 40
9.0
 40
9.0
 40
10.0
 40
10.0
 40
10.0
 40
11.0
 40
11.0
 40
11.0
 40
12.0
 40
12.0
 40
12.0
 40
12.0
 10
2.254459804958767
 20
-4.577138264973958
 10
2.254459804958767
 20
-4.857615152994791
 10
1.876679314507378
 20
-4.844255235460069
 10
1.876679314507378
 20
-4.60575697157118
 10
1.876679314507378
 20
-4.493194580078125
 10
1.941552903917101
 20
-4.43021986219618
 10
2.063663906521267
 20
-4.43021986219618
 10
2.094195048014323
 20
-4.43021986219618
 10
2.109453837076823
 20
-4.432132297092013
 10
2.141890631781684
 20
-4.44166734483507
 10
2.141890631781684
 20
-4.44166734483507
 10
2.141890631781684
 20
-4.437856038411458
 10
2.141890631781684
 20
-4.437856038411458
 10
2.120901319715712
 20
-4.37489488389757
 10
2.03695085313585
 20
-4.346276177300347
 10
1.979713439941406
 20
-4.346276177300347
 10
1.481727600097656
 20
-4.346276177300347
 10
1.859508090549045
 20
-5.422380235460069
 10
1.832795037163628
 20
-5.395660400390625
 10
1.832795037163628
 20
-5.395660400390625
 10
1.521793789333767
 20
-5.42619154188368
 10
1.521793789333767
 20
-5.42619154188368
 10
1.54278310139974
 20
-5.42619154188368
 10
1.603838602701823
 20
-4.924387613932291
 10
1.493175082736545
 20
-4.262318929036458
 10
1.493175082736545
 20
-4.262318929036458
 10
1.661082797580295
 20
-4.273766411675347
 10
1.661082797580295
 20
-4.273766411675347
 10
1.661082797580295
 20
-4.273766411675347
 10
1.668712192111545
 20
-4.357723659939236
 10
1.668712192111545
 20
-4.357723659939236
 10
1.764110141330295
 20
-4.266143798828125
 10
1.89385732014974
 20
-4.195546468098958
 10
2.02169206407335
 20
-4.195546468098958
 10
2.216306050618489
 20
-4.195546468098958
 10
2.254459804958767
 20
-4.384429931640625
 10
2.254459804958767
 20
-4.577138264973958
 97
        0
 97
        0
 92
        1
 93
        1
 72
     4
 94
        3
 73
     0
 74
     1
 95
       11
 96
        7
 40
0.0
 40
0.0
 40
0.0
 40
0.0
 40
1.0
 40
1.0
 40
1.0
 40
2.0
 40
2.0
 40
2.0
 40
2.0
 10
2.147614373101129
 20
-4.445492214626736
 10
2.145708719889323
 20
-4.445492214626736
 10
2.145708719889323
 20
-4.45121595594618
 10
2.147614373101129
 20
-4.45121595594618
 10
2.151432461208767
 20
-4.45121595594618
 10
2.151432461208767
 20
-4.445492214626736
 10
2.147614373101129
 20
-4.445492214626736
 97
        0
 97
        0
 92
        1
 93
        1
 72
     4
 94
        3
 73
     0
 74
     1
 95
       17
 96
       13
 40
0.0
 40
0.0
 40
0.0
 40
0.0
 40
1.0
 40
1.0
 40
1.0
 40
2.0
 40
2.0
 40
2.0
 40
3.0
 40
3.0
 40
3.0
 40
4.0
 40
4.0
 40
4.0
 40
4.0
 10
2.586443583170573
 20
-4.472198486328125
 10
2.586443583170573
 20
-4.472198486328125
 10
2.317414177788628
 20
-4.472198486328125
 10
2.317414177788628
 20
-4.472198486328125
 10
2.33077409532335
 20
-4.760311550564236
 10
2.418535868326823
 20
-4.977813720703125
 10
2.344127231174045
 20
-5.380401611328125
 10
2.344127231174045
 20
-5.380401611328125
 10
2.613149854871962
 20
-5.380401611328125
 10
2.613149854871962
 20
-5.380401611328125
 10
2.599796719021267
 20
-5.088477240668403
 10
2.512028164333767
 20
-4.777482774522569
 10
2.586443583170573
 20
-4.472198486328125
 97
        0
 97
        0
 92
        1
 93
        1
 72
     4
 94
        3
 73
     0
 74
     1
 95
       17
 96
       13
 40
0.0
 40
0.0
 40
0.0
 40
0.0
 40
1.0
 40
1.0
 40
1.0
 40
2.0
 40
2.0
 40
2.0
 40
3.0
 40
3.0
 40
3.0
 40
4.0
 40
4.0
 40
4.0
 40
4.0
 10
2.437619527180989
 20
-3.926517062717014
 10
2.315508524576823
 20
-3.926517062717014
 10
2.229645623101128
 20
-4.014285617404513
 10
2.229645623101128
 20
-4.119225396050347
 10
2.229645623101128
 20
-4.22416517469618
 10
2.315508524576823
 20
-4.31193372938368
 10
2.437619527180989
 20
-4.31193372938368
 10
2.559730529785156
 20
-4.31193372938368
 10
2.639862908257378
 20
-4.22416517469618
 10
2.639862908257378
 20
-4.119225396050347
 10
2.639862908257378
 20
-4.014285617404513
 10
2.559730529785156
 20
-3.926517062717014
 10
2.437619527180989
 20
-3.926517062717014
 97
        0
 97
        0
 92
        1
 93
        1
 72
     4
 94
        3
 73
     0
 74
     1
 95
       68
 96
       64
 40
0.0
 40
0.0
 40
0.0
 40
0.0
 40
1.0
 40
1.0
 40
1.0
 40
2.0
 40
2.0
 40
2.0
 40
3.0
 40
3.0
 40
3.0
 40
4.0
 40
4.0
 40
4.0
 40
5.0
 40
5.0
 40
5.0
 40
6.0
 40
6.0
 40
6.0
 40
7.0
 40
7.0
 40
7.0
 40
8.0
 40
8.0
 40
8.0
 40
9.0
 40
9.0
 40
9.0
 40
10.0
 40
10.0
 40
10.0
 40
11.0
 40
11.0
 40
11.0
 40
12.0
 40
12.0
 40
12.0
 40
13.0
 40
13.0
 40
13.0
 40
14.0
 40
14.0
 40
14.0
 40
15.0
 40
15.0
 40
15.0
 40
16.0
 40
16.0
 40
16.0
 40
17.0
 40
17.0
 40
17.0
 40
18.0
 40
18.0
 40
18.0
 40
19.0
 40
19.0
 40
19.0
 40
20.0
 40
20.0
 40
20.0
 40
21.0
 40
21.0
 40
21.0
 40
21.0
 10
3.733124627007378
 20
-5.605539957682291
 10
3.733124627007378
 20
-5.720028347439236
 10
3.654904683430989
 20
-5.811608208550347
 10
3.567136128743489
 20
-5.861209445529513
 10
3.393511454264323
 20
-5.956614176432291
 10
2.674191792805989
 20
-6.099707709418403
 10
2.674191792805989
 20
-5.693308512369791
 10
2.674191792805989
 20
-5.542578803168403
 10
2.876441955566406
 20
-5.470082600911458
 10
2.987105475531684
 20
-5.470082600911458
 10
3.0653322007921
 20
-5.470082600911458
 10
3.175995720757378
 20
-5.504425048828125
 10
3.175995720757378
 20
-5.613176133897569
 10
3.175995720757378
 20
-5.731475830078125
 10
3.053884718153212
 20
-5.765818277994791
 10
2.96993425157335
 20
-5.765818277994791
 10
2.926043192545573
 20
-5.765818277994791
 10
2.899336920844184
 20
-5.758182101779513
 10
2.849722120496962
 20
-5.74101087782118
 10
2.851634555392795
 20
-5.992869059244791
 10
3.446937561035156
 20
-5.868845621744791
 10
3.435490078396267
 20
-5.559750027126736
 10
3.424042595757378
 20
-5.248755560980903
 10
2.813480801052517
 20
-5.403296576605903
 10
2.676097446017795
 20
-5.403296576605903
 10
2.676097446017795
 20
-5.403296576605903
 10
2.664649963378906
 20
-5.403296576605903
 10
2.664649963378906
 20
-5.403296576605903
 10
2.664649963378906
 20
-5.403296576605903
 10
2.956574334038628
 20
-5.141903347439236
 10
2.956574334038628
 20
-5.141903347439236
 10
2.754324171278212
 20
-5.025516086154513
 10
2.70662858751085
 20
-4.918663872612847
 10
2.70662858751085
 20
-4.809912787543403
 10
2.70662858751085
 20
-4.548519558376736
 10
3.053884718153212
 20
-4.41114976671007
 10
3.279036627875434
 20
-4.395877414279513
 10
3.2408693101671
 20
-4.376807318793403
 10
3.206526862250434
 20
-4.344363742404513
 10
3.206526862250434
 20
-4.296661376953125
 10
3.206526862250434
 20
-4.189822726779513
 10
3.311466640896267
 20
-4.092505560980903
 10
3.408770243326823
 20
-4.092505560980903
 10
3.492727491590712
 20
-4.092505560980903
 10
3.574772304958767
 20
-4.157379150390625
 10
3.574772304958767
 20
-4.25087144639757
 10
3.574772304958767
 20
-4.36344740125868
 10
3.401134067111545
 20
-4.36344740125868
 10
3.336274041069878
 20
-4.331003824869791
 10
3.336274041069878
 20
-4.350087483723958
 10
3.341997782389323
 20
-4.37870619032118
 10
3.359169006347656
 20
-4.384429931640625
 10
3.624373541937934
 20
-4.506540934244791
 10
3.689247131347656
 20
-4.638200547960069
 10
3.689247131347656
 20
-4.743140326605903
 10
3.689247131347656
 20
-5.159074571397569
 10
3.345809088812934
 20
-5.166710747612847
 10
3.0500734117296
 20
-5.166710747612847
 10
3.032895406087239
 20
-5.166710747612847
 10
2.891700744628906
 20
-5.256378173828125
 10
2.88216569688585
 20
-5.279273139105903
 10
3.135929531521267
 20
-5.195329454210069
 10
3.733124627007378
 20
-5.201053195529513
 10
3.733124627007378
 20
-5.605539957682291
 97
        0
 97
        0
 92
        1
 93
        1
 72
     4
 94
        3
 73
     0
 74
     1
 95
       14
 96
       10
 40
0.0
 40
0.0
 40
0.0
 40
0.0
 40
1.0
 40
1.0
 40
1.0
 40
2.0
 40
2.0
 40
2.0
 40
3.0
 40
3.0
 40
3.0
 40
3.0
 10
3.177908155653212
 20
-5.025516086154513
 10
3.340085347493489
 20
-5.025516086154513
 10
3.496538798014323
 20
-4.954918755425347
 10
3.496538798014323
 20
-4.764122856987847
 10
3.496538798014323
 20
-4.624840630425347
 10
3.349620395236545
 20
-4.546607123480903
 10
3.231334262424045
 20
-4.546607123480903
 10
2.899336920844184
 20
-4.546607123480903
 10
2.796309577094184
 20
-5.025516086154513
 10
3.177908155653212
 20
-5.025516086154513
 97
        0
 97
        0
 92
        1
 93
        1
 72
     4
 94
        3
 73
     0
 74
     1
 95
       41
 96
       37
 40
0.0
 40
0.0
 40
0.0
 40
0.0
 40
1.0
 40
1.0
 40
1.0
 40
2.0
 40
2.0
 40
2.0
 40
3.0
 40
3.0
 40
3.0
 40
4.0
 40
4.0
 40
4.0
 40
5.0
 40
5.0
 40
5.0
 40
6.0
 40
6.0
 40
6.0
 40
7.0
 40
7.0
 40
7.0
 40
8.0
 40
8.0
 40
8.0
 40
9.0
 40
9.0
 40
9.0
 40
10.0
 40
10.0
 40
10.0
 40
11.0
 40
11.0
 40
11.0
 40
12.0
 40
12.0
 40
12.0
 40
12.0
 10
4.212033589680989
 20
-4.344363742404513
 10
4.101370069715712
 20
-4.344363742404513
 10
4.061303880479601
 20
-4.372982449001736
 10
3.992618984646267
 20
-4.420684814453125
 10
4.000241597493489
 20
-4.298573811848958
 10
4.009790208604601
 20
-4.103953043619791
 10
4.021237691243489
 20
-3.962771945529514
 10
4.021237691243489
 20
-3.962771945529514
 10
3.698782179090712
 20
-3.852108425564236
 10
3.698782179090712
 20
-3.852108425564236
 10
3.698782179090712
 20
-3.852108425564236
 10
3.712142096625434
 20
-3.884538438585069
 10
3.712142096625434
 20
-3.884538438585069
 10
3.777015686035156
 20
-4.029544406467013
 10
3.880043029785156
 20
-4.26042005750868
 10
3.7312257554796
 20
-5.37467787000868
 10
3.7312257554796
 20
-5.37467787000868
 10
4.023136562771267
 20
-5.376590304904513
 10
4.023136562771267
 20
-5.376590304904513
 10
4.017412821451822
 20
-5.16288587782118
 10
3.784638298882378
 20
-4.472198486328125
 10
4.215844896104601
 20
-4.472198486328125
 10
4.597450256347656
 20
-4.472198486328125
 10
4.345592074924045
 20
-5.080841064453125
 10
4.246376037597656
 20
-5.321251763237847
 10
4.240652296278212
 20
-5.336510552300347
 10
4.234928554958767
 20
-5.351782904730903
 10
4.229204813639322
 20
-5.363230387369791
 10
4.229204813639322
 20
-5.363230387369791
 10
4.593625386555989
 20
-5.393761528862847
 10
4.593625386555989
 20
-5.393761528862847
 10
4.593625386555989
 20
-5.393761528862847
 10
4.593625386555989
 20
-5.361317952473958
 10
4.593625386555989
 20
-5.361317952473958
 10
4.593625386555989
 20
-4.951107449001736
 10
4.792057461208767
 20
-4.344363742404513
 10
4.212033589680989
 20
-4.344363742404513
 97
        0
 97
        0
 92
        1
 93
        1
 72
     4
 94
        3
 73
     0
 74
     1
 95
       50
 96
       46
 40
0.0
 40
0.0
 40
0.0
 40
0.0
 40
1.0
 40
1.0
 40
1.0
 40
2.0
 40
2.0
 40
2.0
 40
3.0
 40
3.0
 40
3.0
 40
4.0
 40
4.0
 40
4.0
 40
5.0
 40
5.0
 40
5.0
 40
6.0
 40
6.0
 40
6.0
 40
7.0
 40
7.0
 40
7.0
 40
8.0
 40
8.0
 40
8.0
 40
9.0
 40
9.0
 40
9.0
 40
10.0
 40
10.0
 40
10.0
 40
11.0
 40
11.0
 40
11.0
 40
12.0
 40
12.0
 40
12.0
 40
13.0
 40
13.0
 40
13.0
 40
14.0
 40
14.0
 40
14.0
 40
15.0
 40
15.0
 40
15.0
 40
15.0
 10
5.562877231174045
 20
-5.139990912543403
 10
5.528534783257379
 20
-4.918663872612847
 10
5.215627882215712
 20
-4.878597683376736
 10
5.215627882215712
 20
-5.120920817057291
 10
5.215627882215712
 20
-5.288821750217013
 10
5.396888732910156
 20
-5.330786810980903
 10
5.482744852701822
 20
-5.197228325737847
 10
5.5208986070421
 20
-5.334611680772569
 10
5.4178712632921
 20
-5.409020317925347
 10
5.270952860514322
 20
-5.409020317925347
 10
5.038178337944879
 20
-5.384212917751736
 10
5.021007113986545
 20
-4.926300048828125
 10
5.017195807562934
 20
-4.712609185112847
 10
5.017195807562934
 20
-4.712609185112847
 10
5.272865295410156
 20
-4.701161702473958
 10
5.272865295410156
 20
-4.701161702473958
 10
5.272865295410156
 20
-4.701161702473958
 10
5.3148439195421
 20
-4.548519558376736
 10
5.3148439195421
 20
-4.548519558376736
 10
5.3148439195421
 20
-4.548519558376736
 10
5.017195807562934
 20
-4.598120795355903
 10
5.017195807562934
 20
-4.598120795355903
 10
5.017195807562934
 20
-4.598120795355903
 10
5.093516879611545
 20
-3.983754475911458
 10
5.093516879611545
 20
-3.983754475911458
 10
5.093516879611545
 20
-3.983754475911458
 10
4.822575039333767
 20
-3.968495686848958
 10
4.822575039333767
 20
-3.968495686848958
 10
4.841658698187934
 20
-4.365346272786458
 10
4.851207309299045
 20
-4.407324896918403
 10
4.841658698187934
 20
-4.60575697157118
 10
4.841658698187934
 20
-4.60575697157118
 10
4.696652730305989
 20
-4.617204454210069
 10
4.696652730305989
 20
-4.617204454210069
 10
4.696652730305989
 20
-4.617204454210069
 10
4.727183871799045
 20
-4.754587809244791
 10
4.727183871799045
 20
-4.754587809244791
 10
4.727183871799045
 20
-4.754587809244791
 10
4.834036085340712
 20
-4.727867974175347
 10
4.834036085340712
 20
-4.727867974175347
 10
4.767250061035156
 20
-5.139990912543403
 10
4.855018615722656
 20
-5.52921888563368
 10
5.267141554090712
 20
-5.52921888563368
 10
5.486556159125434
 20
-5.52921888563368
 10
5.599132113986545
 20
-5.370866563585069
 10
5.562877231174045
 20
-5.139990912543403
 97
        0
 97
        0
 75
     2
 76
     1
 98
        0
  0
SPLINE
  5
6C
330
1F
100
AcDbEntity
  8
Layer 1
370
     0
100
AcDbSpline
210
0.0
220
0.0
230
1.0
 70
    11
 71
     3
 72
    56
 73
    52
 74
     0
 42
0.0000000001
 43
0.0000000001
 12
1.0
 22
0.0
 32
0.0
 13
1.0
 23
0.0
 33
0.0
 40
0.0
 40
0.0
 40
0.0
 40
0.0
 40
1.0
 40
1.0
 40
1.0
 40
2.0
 40
2.0
 40
2.0
 40
3.0
 40
3.0
 40
3.0
 40
4.0
 40
4.0
 40
4.0
 40
5.0
 40
5.0
 40
5.0
 40
6.0
 40
6.0
 40
6.0
 40
7.0
 40
7.0
 40
7.0
 40
8.0
 40
8.0
 40
8.0
 40
9.0
 40
9.0
 40
9.0
 40
10.0
 40
10.0
 40
10.0
 40
11.0
 40
11.0
 40
11.0
 40
12.0
 40
12.0
 40
12.0
 40
13.0
 40
13.0
 40
13.0
 40
14.0
 40
14.0
 40
14.0
 40
15.0
 40
15.0
 40
15.0
 40
16.0
 40
16.0
 40
16.0
 40
17.0
 40
17.0
 40
17.0
 40
17.0
 10
1.149937947591146
 20
-3.746005588107639
 30
0.0
 10
1.154402838812934
 20
-3.767112731933594
 30
0.0
 10
1.132589552137587
 20
-3.786560906304253
 30
0.0
 10
1.112564934624566
 20
-3.774735344780816
 30
0.0
 10
1.028384738498264
 20
-3.725014580620659
 30
0.0
 10
0.952591790093316
 20
-3.662759568956163
 30
0.0
 10
0.8786680433485242
 20
-3.598623487684462
 30
0.0
 10
0.764542473687066
 20
-3.675209045410156
 30
0.0
 10
0.6470692952473958
 20
-3.746832953559028
 30
0.0
 10
0.5264994303385416
 20
-3.813028123643663
 30
0.0
 10
0.5032721625434028
 20
-3.825780232747396
 30
0.0
 10
0.4820853339301215
 20
-3.799537658691406
 30
0.0
 10
0.4899461534288194
 20
-3.780673556857639
 30
0.0
 10
0.484574211968316
 20
-3.773528205023871
 30
0.0
 10
0.4826244778103299
 20
-3.763804117838542
 30
0.0
 10
0.487821790907118
 20
-3.753669738769531
 30
0.0
 10
0.5465113321940104
 20
-3.639264424641927
 30
0.0
 10
0.603986104329427
 20
-3.524241977267795
 30
0.0
 10
0.660355461968316
 20
-3.408683776855469
 30
0.0
 10
0.5861502753363715
 20
-3.344368828667534
 30
0.0
 10
0.5119433932834201
 20
-3.280052185058594
 30
0.0
 10
0.4377382066514757
 20
-3.215738084581163
 30
0.0
 10
0.4241756863064236
 20
-3.203981187608507
 30
0.0
 10
0.4303563435872396
 20
-3.17610846625434
 30
0.0
 10
0.4489652845594618
 20
-3.173216925726996
 30
0.0
 10
0.5571543375651041
 20
-3.156406826443142
 30
0.0
 10
0.6685290866427951
 20
-3.158357408311632
 30
0.0
 10
0.7789052327473958
 20
-3.161092122395833
 30
0.0
 10
0.821332295735677
 20
-3.070860120985243
 30
0.0
 10
0.8631379869249132
 20
-2.980334811740464
 30
0.0
 10
0.9041510687934027
 20
-2.889446682400186
 30
0.0
 10
0.9123145209418402
 20
-2.871359931098103
 30
0.0
 10
0.9390716552734375
 20
-2.87443118625217
 30
0.0
 10
0.9480853610568576
 20
-2.889446682400186
 30
0.0
 10
0.9830161200629339
 20
-2.947630140516506
 30
0.0
 10
0.99517822265625
 20
-3.014361911349826
 30
0.0
 10
1.00903065999349
 20
-3.079849243164062
 30
0.0
 10
1.015006171332465
 20
-3.108104281955295
 30
0.0
 10
1.020983378092448
 20
-3.136362711588542
 30
0.0
 10
1.026961432562934
 20
-3.164620293511284
 30
0.0
 10
1.138477749294705
 20
-3.165572272406684
 30
0.0
 10
1.249991522894965
 20
-3.16652594672309
 30
0.0
 10
1.361505296495226
 20
-3.167477925618489
 30
0.0
 10
1.382585313585069
 20
-3.167658487955729
 30
0.0
 10
1.396430969238281
 20
-3.195852491590712
 30
0.0
 10
1.37949456108941
 20
-3.210907830132378
 30
0.0
 10
1.285362243652344
 20
-3.294591267903646
 30
0.0
 10
1.187857733832465
 20
-3.374364217122396
 30
0.0
 10
1.087353176540799
 20
-3.450129191080729
 30
0.0
 10
1.108214484320746
 20
-3.548753526475694
 30
0.0
 10
1.129076639811198
 20
-3.64738040500217
 30
0.0
 10
1.149937947591146
 20
-3.746005588107639
 30
0.0
  0
SPLINE
  5
6D
330
1F
100
AcDbEntity
  8
Layer 1
370
     0
100
AcDbSpline
210
0.0
220
0.0
230
1.0
 70
    11
 71
     3
 72
    56
 73
    52
 74
     0
 42
0.0000000001
 43
0.0000000001
 12
1.0
 22
0.0
 32
0.0
 13
1.0
 23
0.0
 33
0.0
 40
0.0
 40
0.0
 40
0.0
 40
0.0
 40
1.0
 40
1.0
 40
1.0
 40
2.0
 40
2.0
 40
2.0
 40
3.0
 40
3.0
 40
3.0
 40
4.0
 40
4.0
 40
4.0
 40
5.0
 40
5.0
 40
5.0
 40
6.0
 40
6.0
 40
6.0
 40
7.0
 40
7.0
 40
7.0
 40
8.0
 40
8.0
 40
8.0
 40
9.0
 40
9.0
 40
9.0
 40
10.0
 40
10.0
 40
10.0
 40
11.0
 40
11.0
 40
11.0
 40
12.0
 40
12.0
 40
12.0
 40
13.0
 40
13.0
 40
13.0
 40
14.0
 40
14.0
 40
14.0
 40
15.0
 40
15.0
 40
15.0
 40
16.0
 40
16.0
 40
16.0
 40
17.0
 40
17.0
 40
17.0
 40
17.0
 10
4.920913696289062
 20
-3.481537712944878
 30
0.0
 10
4.824034796820746
 20
-3.480711195203993
 30
0.0
 10
4.72715589735243
 20
-3.4798829820421
 30
0.0
 10
4.630274454752604
 20
-3.479055616590712
 30
0.0
 10
4.625081380208333
 20
-3.454506768120659
 30
0.0
 10
4.619888305664062
 20
-3.429957071940104
 30
0.0
 10
4.614697774251302
 20
-3.405409918891059
 30
0.0
 10
4.602662828233506
 20
-3.348516676161024
 30
0.0
 10
4.592096964518229
 20
-3.290542602539062
 30
0.0
 10
4.56175062391493
 20
-3.239996168348524
 30
0.0
 10
4.553920321994357
 20
-3.22695075141059
 30
0.0
 10
4.530674404568142
 20
-3.224283006456163
 30
0.0
 10
4.52358161078559
 20
-3.239996168348524
 30
0.0
 10
4.487951490614149
 20
-3.318956163194444
 30
0.0
 10
4.451632181803385
 20
-3.397600809733073
 30
0.0
 10
4.414773729112413
 20
-3.475991143120659
 30
0.0
 10
4.318883260091146
 20
-3.473615010579427
 30
0.0
 10
4.222124735514322
 20
-3.471920437282986
 30
0.0
 10
4.128133985731337
 20
-3.486523946126302
 30
0.0
 10
4.111967298719618
 20
-3.489036560058594
 30
0.0
 10
4.106597900390625
 20
-3.513251410590278
 30
0.0
 10
4.118380228678385
 20
-3.523464626736111
 30
0.0
 10
4.182846917046441
 20
-3.579338921440972
 30
0.0
 10
4.247315300835504
 20
-3.63521491156684
 30
0.0
 10
4.311781989203559
 20
-3.691089206271701
 30
0.0
 10
4.262810601128472
 20
-3.791481865776909
 30
0.0
 10
4.212878757052951
 20
-3.891408284505208
 30
0.0
 10
4.161890665690104
 20
-3.990799797905816
 30
0.0
 10
4.157375759548611
 20
-3.999603271484375
 30
0.0
 10
4.159070332845052
 20
-4.008051554361979
 30
0.0
 10
4.163736131456163
 20
-4.014259338378906
 30
0.0
 10
4.156906975640191
 20
-4.030647277832031
 30
0.0
 10
4.175314161512587
 20
-4.053446451822916
 30
0.0
 10
4.195493062337239
 20
-4.042367723253038
 30
0.0
 10
4.300238715277778
 20
-3.984859890407986
 30
0.0
 10
4.402295430501302
 20
-3.922635396321614
 30
0.0
 10
4.50144280327691
 20
-3.85610114203559
 30
0.0
 10
4.565666198730469
 20
-3.911820305718316
 30
0.0
 10
4.63151126437717
 20
-3.965905083550347
 30
0.0
 10
4.704644097222222
 20
-4.009100172254774
 30
0.0
 10
4.722040812174479
 20
-4.019374423556857
 30
0.0
 10
4.7409913804796
 20
-4.002478705512153
 30
0.0
 10
4.737112257215712
 20
-3.984141031901042
 30
0.0
 10
4.718988206651475
 20
-3.89845954047309
 30
0.0
 10
4.700865003797743
 20
-3.812776353624132
 30
0.0
 10
4.682740953233506
 20
-3.72709486219618
 30
0.0
 10
4.770055982801649
 20
-3.661272684733073
 30
0.0
 10
4.854763454861111
 20
-3.591969807942708
 30
0.0
 10
4.936542934841579
 20
-3.519268459743923
 30
0.0
 10
4.951256646050347
 20
-3.50618913438585
 30
0.0
 10
4.939227634006076
 20
-3.481695387098524
 30
0.0
 10
4.920913696289062
 20
-3.481537712944878
 30
0.0
  0
INSERT
  5
6F
330
1F
100
AcDbEntity
  8
Layer 1
100
AcDbBlockReference
  2
block 8
 10
0.0
 20
0.0
 30
0.0
  0
INSERT
  5
75
330
1F
100
AcDbEntity
  8
Layer 1
100
AcDbBlockReference
  2
block 9
 10
0.0
 20
0.0
 30
0.0
  0
INSERT
  5
7B
330
1F
100
AcDbEntity
  8
Layer 1
100
AcDbBlockReference
  2
block 10
 10
0.0
 20
0.0
 30
0.0
  0
SPLINE
  5
80
330
1F
100
AcDbEntity
  8
Layer 1
370
     0
100
AcDbSpline
210
0.0
220
0.0
230
1.0
 70
    11
 71
     3
 72
    44
 73
    40
 74
     0
 42
0.0000000001
 43
0.0000000001
 12
1.0
 22
0.0
 32
0.0
 13
1.0
 23
0.0
 33
0.0
 40
0.0
 40
0.0
 40
0.0
 40
0.0
 40
1.0
 40
1.0
 40
1.0
 40
2.0
 40
2.0
 40
2.0
 40
3.0
 40
3.0
 40
3.0
 40
4.0
 40
4.0
 40
4.0
 40
5.0
 40
5.0
 40
5.0
 40
6.0
 40
6.0
 40
6.0
 40
7.0
 40
7.0
 40
7.0
 40
8.0
 40
8.0
 40
8.0
 40
9.0
 40
9.0
 40
9.0
 40
10.0
 40
10.0
 40
10.0
 40
11.0
 40
11.0
 40
11.0
 40
12.0
 40
12.0
 40
12.0
 40
13.0
 40
13.0
 40
13.0
 40
13.0
 10
2.721188863118489
 20
-2.841481526692708
 30
0.0
 10
2.580000983344184
 20
-2.841481526692708
 30
0.0
 10
2.532298617892795
 20
-2.891089545355903
 30
0.0
 10
2.452166239420573
 20
-2.973134358723958
 30
0.0
 10
2.452166239420573
 20
-2.973134358723958
 30
0.0
 10
2.4311769273546
 20
-2.996029324001736
 30
0.0
 10
2.4311769273546
 20
-2.996029324001736
 30
0.0
 10
2.4311769273546
 20
-2.996029324001736
 30
0.0
 10
2.421635097927517
 20
-2.900631374782986
 30
0.0
 10
2.421635097927517
 20
-2.900631374782986
 30
0.0
 10
2.421635097927517
 20
-2.900631374782986
 30
0.0
 10
2.223203023274739
 20
-2.91398451063368
 30
0.0
 10
2.223203023274739
 20
-2.91398451063368
 30
0.0
 10
2.267087300618489
 20
-3.263146294487847
 30
0.0
 10
2.268999735514323
 20
-3.400516086154514
 30
0.0
 10
2.223203023274739
 20
-3.745866563585069
 30
0.0
 10
2.223203023274739
 20
-3.747778998480903
 30
0.0
 10
2.225115458170573
 20
-3.751590304904514
 30
0.0
 10
2.225115458170573
 20
-3.751590304904514
 30
0.0
 10
2.225115458170573
 20
-3.751590304904514
 30
0.0
 10
2.5189454820421
 20
-3.793568929036458
 30
0.0
 10
2.5189454820421
 20
-3.793568929036458
 30
0.0
 10
2.480784946017795
 20
-3.686716715494792
 30
0.0
 10
2.471243116590712
 20
-3.576053195529514
 30
0.0
 10
2.455977545844184
 20
-3.467302110460069
 30
0.0
 10
2.455977545844184
 20
-3.467302110460069
 30
0.0
 10
2.455977545844184
 20
-3.442494710286458
 30
0.0
 10
2.455977545844184
 20
-3.442494710286458
 30
0.0
 10
2.455977545844184
 20
-3.312747531467014
 30
0.0
 10
2.457889980740017
 20
-3.047542995876736
 30
0.0
 10
2.654409620496962
 20
-3.047542995876736
 30
0.0
 10
3.009288363986545
 20
-3.047542995876736
 30
0.0
 10
2.799422370062934
 20
-3.900407579210069
 30
0.0
 10
2.803233676486545
 20
-3.885148790147569
 30
0.0
 10
2.803233676486545
 20
-3.885148790147569
 30
0.0
 10
2.965410868326823
 20
-3.919491238064236
 30
0.0
 10
2.965410868326823
 20
-3.919491238064236
 30
0.0
 10
3.102780659993489
 20
-3.581776936848958
 30
0.0
 10
3.175290425618489
 20
-2.841481526692708
 30
0.0
 10
2.721188863118489
 20
-2.841481526692708
 30
0.0
  0
INSERT
  5
82
330
1F
100
AcDbEntity
  8
Layer 1
100
AcDbBlockReference
  2
block 11
 10
0.0
 20
0.0
 30
0.0
  0
HATCH
  5
87
330
1F
100
AcDbEntity
  8
Layer 1
 62
    88
420
   874753
100
AcDbHatch
 10
0.0
 20
0.0
 30
0.0
210
0.0
220
0.0
230
1.0
  2
SOLID
 70
     1
 71
     0
 91
       11
 92
        1
 93
        1
 72
     4
 94
        3
 73
     0
 74
     1
 95
       56
 96
       52
 40
0.0
 40
0.0
 40
0.0
 40
0.0
 40
1.0
 40
1.0
 40
1.0
 40
2.0
 40
2.0
 40
2.0
 40
3.0
 40
3.0
 40
3.0
 40
4.0
 40
4.0
 40
4.0
 40
5.0
 40
5.0
 40
5.0
 40
6.0
 40
6.0
 40
6.0
 40
7.0
 40
7.0
 40
7.0
 40
8.0
 40
8.0
 40
8.0
 40
9.0
 40
9.0
 40
9.0
 40
10.0
 40
10.0
 40
10.0
 40
11.0
 40
11.0
 40
11.0
 40
12.0
 40
12.0
 40
12.0
 40
13.0
 40
13.0
 40
13.0
 40
14.0
 40
14.0
 40
14.0
 40
15.0
 40
15.0
 40
15.0
 40
16.0
 40
16.0
 40
16.0
 40
17.0
 40
17.0
 40
17.0
 40
17.0
 10
1.149937947591146
 20
-3.746005588107639
 10
1.154402838812934
 20
-3.767112731933594
 10
1.132589552137587
 20
-3.786560906304253
 10
1.112564934624566
 20
-3.774735344780816
 10
1.028384738498264
 20
-3.725014580620659
 10
0.952591790093316
 20
-3.662759568956163
 10
0.8786680433485242
 20
-3.598623487684462
 10
0.764542473687066
 20
-3.675209045410156
 10
0.6470692952473958
 20
-3.746832953559028
 10
0.5264994303385416
 20
-3.813028123643663
 10
0.5032721625434028
 20
-3.825780232747396
 10
0.4820853339301215
 20
-3.799537658691406
 10
0.4899461534288194
 20
-3.780673556857639
 10
0.484574211968316
 20
-3.773528205023871
 10
0.4826244778103299
 20
-3.763804117838542
 10
0.487821790907118
 20
-3.753669738769531
 10
0.5465113321940104
 20
-3.639264424641927
 10
0.603986104329427
 20
-3.524241977267795
 10
0.660355461968316
 20
-3.408683776855469
 10
0.5861502753363715
 20
-3.344368828667534
 10
0.5119433932834201
 20
-3.280052185058594
 10
0.4377382066514757
 20
-3.215738084581163
 10
0.4241756863064236
 20
-3.203981187608507
 10
0.4303563435872396
 20
-3.17610846625434
 10
0.4489652845594618
 20
-3.173216925726996
 10
0.5571543375651041
 20
-3.156406826443142
 10
0.6685290866427951
 20
-3.158357408311632
 10
0.7789052327473958
 20
-3.161092122395833
 10
0.821332295735677
 20
-3.070860120985243
 10
0.8631379869249132
 20
-2.980334811740464
 10
0.9041510687934027
 20
-2.889446682400186
 10
0.9123145209418402
 20
-2.871359931098103
 10
0.9390716552734375
 20
-2.87443118625217
 10
0.9480853610568576
 20
-2.889446682400186
 10
0.9830161200629339
 20
-2.947630140516506
 10
0.99517822265625
 20
-3.014361911349826
 10
1.00903065999349
 20
-3.079849243164062
 10
1.015006171332465
 20
-3.108104281955295
 10
1.020983378092448
 20
-3.136362711588542
 10
1.026961432562934
 20
-3.164620293511284
 10
1.138477749294705
 20
-3.165572272406684
 10
1.249991522894965
 20
-3.16652594672309
 10
1.361505296495226
 20
-3.167477925618489
 10
1.382585313585069
 20
-3.167658487955729
 10
1.396430969238281
 20
-3.195852491590712
 10
1.37949456108941
 20
-3.210907830132378
 10
1.285362243652344
 20
-3.294591267903646
 10
1.187857733832465
 20
-3.374364217122396
 10
1.087353176540799
 20
-3.450129191080729
 10
1.108214484320746
 20
-3.548753526475694
 10
1.129076639811198
 20
-3.64738040500217
 10
1.149937947591146
 20
-3.746005588107639
 97
        0
 97
        0
 92
        1
 93
        1
 72
     4
 94
        3
 73
     0
 74
     1
 95
       56
 96
       52
 40
0.0
 40
0.0
 40
0.0
 40
0.0
 40
1.0
 40
1.0
 40
1.0
 40
2.0
 40
2.0
 40
2.0
 40
3.0
 40
3.0
 40
3.0
 40
4.0
 40
4.0
 40
4.0
 40
5.0
 40
5.0
 40
5.0
 40
6.0
 40
6.0
 40
6.0
 40
7.0
 40
7.0
 40
7.0
 40
8.0
 40
8.0
 40
8.0
 40
9.0
 40
9.0
 40
9.0
 40
10.0
 40
10.0
 40
10.0
 40
11.0
 40
11.0
 40
11.0
 40
12.0
 40
12.0
 40
12.0
 40
13.0
 40
13.0
 40
13.0
 40
14.0
 40
14.0
 40
14.0
 40
15.0
 40
15.0
 40
15.0
 40
16.0
 40
16.0
 40
16.0
 40
17.0
 40
17.0
 40
17.0
 40
17.0
 10
4.920913696289062
 20
-3.481537712944878
 10
4.824034796820746
 20
-3.480711195203993
 10
4.72715589735243
 20
-3.4798829820421
 10
4.630274454752604
 20
-3.479055616590712
 10
4.625081380208333
 20
-3.454506768120659
 10
4.619888305664062
 20
-3.429957071940104
 10
4.614697774251302
 20
-3.405409918891059
 10
4.602662828233506
 20
-3.348516676161024
 10
4.592096964518229
 20
-3.290542602539062
 10
4.56175062391493
 20
-3.239996168348524
 10
4.553920321994357
 20
-3.22695075141059
 10
4.530674404568142
 20
-3.224283006456163
 10
4.52358161078559
 20
-3.239996168348524
 10
4.487951490614149
 20
-3.318956163194444
 10
4.451632181803385
 20
-3.397600809733073
 10
4.414773729112413
 20
-3.475991143120659
 10
4.318883260091146
 20
-3.473615010579427
 10
4.222124735514322
 20
-3.471920437282986
 10
4.128133985731337
 20
-3.486523946126302
 10
4.111967298719618
 20
-3.489036560058594
 10
4.106597900390625
 20
-3.513251410590278
 10
4.118380228678385
 20
-3.523464626736111
 10
4.182846917046441
 20
-3.579338921440972
 10
4.247315300835504
 20
-3.63521491156684
 10
4.311781989203559
 20
-3.691089206271701
 10
4.262810601128472
 20
-3.791481865776909
 10
4.212878757052951
 20
-3.891408284505208
 10
4.161890665690104
 20
-3.990799797905816
 10
4.157375759548611
 20
-3.999603271484375
 10
4.159070332845052
 20
-4.008051554361979
 10
4.163736131456163
 20
-4.014259338378906
 10
4.156906975640191
 20
-4.030647277832031
 10
4.175314161512587
 20
-4.053446451822916
 10
4.195493062337239
 20
-4.042367723253038
 10
4.300238715277778
 20
-3.984859890407986
 10
4.402295430501302
 20
-3.922635396321614
 10
4.50144280327691
 20
-3.85610114203559
 10
4.565666198730469
 20
-3.911820305718316
 10
4.63151126437717
 20
-3.965905083550347
 10
4.704644097222222
 20
-4.009100172254774
 10
4.722040812174479
 20
-4.019374423556857
 10
4.7409913804796
 20
-4.002478705512153
 10
4.737112257215712
 20
-3.984141031901042
 10
4.718988206651475
 20
-3.89845954047309
 10
4.700865003797743
 20
-3.812776353624132
 10
4.682740953233506
 20
-3.72709486219618
 10
4.770055982801649
 20
-3.661272684733073
 10
4.854763454861111
 20
-3.591969807942708
 10
4.936542934841579
 20
-3.519268459743923
 10
4.951256646050347
 20
-3.50618913438585
 10
4.939227634006076
 20
-3.481695387098524
 10
4.920913696289062
 20
-3.481537712944878
 97
        0
 97
        0
 92
        1
 93
        1
 72
     4
 94
        3
 73
     0
 74
     1
 95
       44
 96
       40
 40
0.0
 40
0.0
 40
0.0
 40
0.0
 40
1.0
 40
1.0
 40
1.0
 40
2.0
 40
2.0
 40
2.0
 40
3.0
 40
3.0
 40
3.0
 40
4.0
 40
4.0
 40
4.0
 40
5.0
 40
5.0
 40
5.0
 40
6.0
 40
6.0
 40
6.0
 40
7.0
 40
7.0
 40
7.0
 40
8.0
 40
8.0
 40
8.0
 40
9.0
 40
9.0
 40
9.0
 40
10.0
 40
10.0
 40
10.0
 40
11.0
 40
11.0
 40
11.0
 40
12.0
 40
12.0
 40
12.0
 40
13.0
 40
13.0
 40
13.0
 40
13.0
 10
1.84252675374349
 20
-1.026601155598958
 10
1.794831169976128
 20
-0.6736212836371528
 10
2.176422966851129
 20
-0.6469150119357638
 10
2.176422966851129
 20
-0.917843288845486
 10
2.176422966851129
 20
-1.028506808810764
 10
2.105832417805989
 20
-1.104827880859375
 10
2.000892639160156
 20
-1.070485432942708
 10
2.409197489420573
 20
-1.967234293619792
 10
3.263981289333767
 20
-0.778561062282986
 10
2.376767476399739
 20
-0.8453403049045138
 10
2.376767476399739
 20
-0.8453403049045138
 10
2.388214959038628
 20
-1.005611843532986
 10
2.388214959038628
 20
-1.005611843532986
 10
2.388214959038628
 20
-1.005611843532986
 10
2.235572814941406
 20
-0.9560038248697916
 10
2.235572814941406
 20
-0.9560038248697916
 10
2.235572814941406
 20
-0.9560038248697916
 10
2.18978288438585
 20
-0.2557746039496528
 10
2.18978288438585
 20
-0.2557746039496528
 10
2.147804260253906
 20
-0.2576802571614583
 10
2.048588222927517
 20
-0.2557746039496528
 10
2.004710727267795
 20
-0.2462327745225694
 10
2.004710727267795
 20
-0.2462327745225694
 10
2.018063863118489
 20
-0.0592549641927083
 10
2.018063863118489
 20
-0.0592549641927083
 10
2.025693257649739
 20
-0.042083740234375
 10
2.269915262858073
 20
-0.0344475640190972
 10
2.323341369628906
 20
-0.0344475640190972
 10
2.582828945583767
 20
-0.0344475640190972
 10
2.916725158691406
 20
-0.049713134765625
 10
2.93770768907335
 20
-0.3817036946614583
 10
2.93770768907335
 20
-0.3817036946614583
 10
2.93770768907335
 20
-0.3988749186197916
 10
2.93770768907335
 20
-0.3988749186197916
 10
2.93770768907335
 20
-0.6144782172309028
 10
2.653419494628906
 20
-0.6469150119357638
 10
2.601905822753906
 20
-0.6774393717447916
 10
3.853553771972656
 20
-1.177330864800347
 10
2.016158209906684
 20
-2.200008816189236
 10
1.84252675374349
 20
-1.026601155598958
 97
        0
 97
        0
 92
        1
 93
        1
 72
     4
 94
        3
 73
     0
 74
     1
 95
       17
 96
       13
 40
0.0
 40
0.0
 40
0.0
 40
0.0
 40
1.0
 40
1.0
 40
1.0
 40
2.0
 40
2.0
 40
2.0
 40
3.0
 40
3.0
 40
3.0
 40
4.0
 40
4.0
 40
4.0
 40
4.0
 10
2.668685065375434
 20
-0.3931511773003472
 10
2.668685065375434
 20
-0.3931511773003472
 10
2.668685065375434
 20
-0.372161865234375
 10
2.668685065375434
 20
-0.372161865234375
 10
2.65914323594835
 20
-0.2366977267795139
 10
2.428281148274739
 20
-0.2366977267795139
 10
2.355778164333767
 20
-0.2557746039496528
 10
2.353865729437934
 20
-0.2614983452690972
 10
2.350054423014323
 20
-0.2882113986545139
 10
2.38057878282335
 20
-0.6488206651475694
 10
2.538944668240017
 20
-0.6240132649739583
 10
2.668685065375434
 20
-0.5610521104600694
 10
2.668685065375434
 20
-0.3931511773003472
 97
        0
 97
        0
 92
        1
 93
        1
 72
     4
 94
        3
 73
     0
 74
     1
 95
       47
 96
       43
 40
0.0
 40
0.0
 40
0.0
 40
0.0
 40
1.0
 40
1.0
 40
1.0
 40
2.0
 40
2.0
 40
2.0
 40
3.0
 40
3.0
 40
3.0
 40
4.0
 40
4.0
 40
4.0
 40
5.0
 40
5.0
 40
5.0
 40
6.0
 40
6.0
 40
6.0
 40
7.0
 40
7.0
 40
7.0
 40
8.0
 40
8.0
 40
8.0
 40
9.0
 40
9.0
 40
9.0
 40
10.0
 40
10.0
 40
10.0
 40
11.0
 40
11.0
 40
11.0
 40
12.0
 40
12.0
 40
12.0
 40
13.0
 40
13.0
 40
13.0
 40
14.0
 40
14.0
 40
14.0
 40
14.0
 10
3.0636232164171
 20
-0.8758714463975694
 10
3.0636232164171
 20
-0.6526387532552083
 10
3.214352925618489
 20
-0.3740675184461805
 10
3.4662111070421
 20
-0.3740675184461805
 10
3.710433112250434
 20
-0.3740675184461805
 10
3.803925408257378
 20
-0.6049363878038194
 10
3.823009067111545
 20
-0.8167215983072916
 10
3.823009067111545
 20
-0.8167215983072916
 10
3.2754152086046
 20
-0.9388326009114583
 10
3.2754152086046
 20
-0.9388326009114583
 10
3.2754152086046
 20
-1.062856038411458
 10
3.298310173882378
 20
-1.169701470269097
 10
3.359358893500434
 20
-1.278452555338542
 10
3.445228576660156
 20
-1.434912787543403
 10
3.727604336208767
 20
-1.404381646050347
 10
3.731415642632378
 20
-1.200225830078125
 10
3.731415642632378
 20
-1.200225830078125
 10
3.731415642632378
 20
-1.192596435546875
 10
3.731415642632378
 20
-1.192596435546875
 10
3.704709370930989
 20
-1.225033230251736
 10
3.6722657945421
 20
-1.232662624782986
 10
3.632199605305989
 20
-1.232662624782986
 10
3.550154791937934
 20
-1.232662624782986
 10
3.496742248535156
 20
-1.188778347439236
 10
3.496742248535156
 20
-1.104827880859375
 10
3.504364861382378
 20
-1.022783067491319
 10
3.571150885687934
 20
-0.9369269476996527
 10
3.6570070054796
 20
-0.9369269476996527
 10
3.6570070054796
 20
-0.9369269476996527
 10
3.668454488118489
 20
-0.9369269476996527
 10
3.668454488118489
 20
-0.9369269476996527
 10
3.775306701660156
 20
-0.9369269476996527
 10
3.855439080132378
 20
-1.001800537109375
 10
3.855439080132378
 20
-1.110551622178819
 10
3.855439080132378
 20
-1.299441867404514
 10
3.742863125271267
 20
-1.492150200737847
 10
3.534896002875434
 20
-1.492150200737847
 10
3.534896002875434
 20
-1.492150200737847
 10
3.5177247789171
 20
-1.492150200737847
 10
3.5177247789171
 20
-1.492150200737847
 10
3.181922912597656
 20
-1.492150200737847
 10
3.075070699055989
 20
-1.160159640842014
 10
3.0636232164171
 20
-0.8758714463975694
 97
        0
 97
        0
 92
        1
 93
        1
 72
     4
 94
        3
 73
     0
 74
     1
 95
       14
 96
       10
 40
0.0
 40
0.0
 40
0.0
 40
0.0
 40
1.0
 40
1.0
 40
1.0
 40
2.0
 40
2.0
 40
2.0
 40
3.0
 40
3.0
 40
3.0
 40
3.0
 10
3.286862691243489
 20
-0.8205396864149305
 10
3.286862691243489
 20
-0.8205396864149305
 10
3.670366923014323
 20
-0.7671135796440972
 10
3.670366923014323
 20
-0.7671135796440972
 10
3.670366923014323
 20
-0.6736212836371528
 10
3.594045850965712
 20
-0.5305277506510416
 10
3.487193637424045
 20
-0.5305277506510416
 10
3.361271328396267
 20
-0.5305277506510416
 10
3.286862691243489
 20
-0.7136942545572916
 10
3.286862691243489
 20
-0.8205396864149305
 97
        0
 97
        0
 92
        1
 93
        1
 72
     4
 94
        3
 73
     0
 74
     1
 95
       50
 96
       46
 40
0.0
 40
0.0
 40
0.0
 40
0.0
 40
1.0
 40
1.0
 40
1.0
 40
2.0
 40
2.0
 40
2.0
 40
3.0
 40
3.0
 40
3.0
 40
4.0
 40
4.0
 40
4.0
 40
5.0
 40
5.0
 40
5.0
 40
6.0
 40
6.0
 40
6.0
 40
7.0
 40
7.0
 40
7.0
 40
8.0
 40
8.0
 40
8.0
 40
9.0
 40
9.0
 40
9.0
 40
10.0
 40
10.0
 40
10.0
 40
11.0
 40
11.0
 40
11.0
 40
12.0
 40
12.0
 40
12.0
 40
13.0
 40
13.0
 40
13.0
 40
14.0
 40
14.0
 40
14.0
 40
15.0
 40
15.0
 40
15.0
 40
15.0
 10
2.082035488552517
 20
-2.940697564019097
 10
2.082035488552517
 20
-3.085710313585069
 10
2.118290371365017
 20
-3.742055257161458
 10
2.127825419108073
 20
-3.820275200737847
 10
2.127825419108073
 20
-3.820275200737847
 10
2.127825419108073
 20
-3.829823811848958
 10
2.127825419108073
 20
-3.829823811848958
 10
2.068682352701823
 20
-3.83744642469618
 10
1.942753261990017
 20
-3.85844251844618
 10
1.891239590115017
 20
-3.856530083550347
 10
1.891239590115017
 20
-3.856530083550347
 10
1.891239590115017
 20
-3.721059163411458
 10
1.891239590115017
 20
-3.721059163411458
 10
1.709978739420573
 20
-3.919491238064236
 10
1.33410390218099
 20
-3.959557427300347
 10
1.278772142198351
 20
-3.692440456814236
 10
1.173839145236545
 20
-3.287953694661458
 10
1.578325907389323
 20
-3.116227891710069
 10
1.908410814073351
 20
-3.249786376953125
 10
1.908410814073351
 20
-3.087609185112847
 10
1.896963331434462
 20
-2.789967854817708
 10
1.652741326226128
 20
-2.789967854817708
 10
1.56115468343099
 20
-2.789967854817708
 10
1.469574822319878
 20
-2.851023356119792
 10
1.469574822319878
 20
-2.954050699869792
 10
1.469574822319878
 20
-3.007476806640625
 10
1.50964101155599
 20
-3.018924289279514
 10
1.54589589436849
 20
-3.018924289279514
 10
1.54589589436849
 20
-2.959774441189236
 10
1.549707200792101
 20
-2.904442681206597
 10
1.624122619628906
 20
-2.904442681206597
 10
1.671818203396267
 20
-2.904442681206597
 10
1.708073086208767
 20
-2.936879475911458
 10
1.708073086208767
 20
-2.98649427625868
 10
1.708073086208767
 20
-3.079986572265625
 10
1.637475755479601
 20
-3.116227891710069
 10
1.549707200792101
 20
-3.116227891710069
 10
1.456214904785156
 20
-3.116227891710069
 10
1.372264438205295
 20
-3.062801784939236
 10
1.372264438205295
 20
-2.95786878797743
 10
1.372264438205295
 20
-2.776607937282986
 10
1.564972771538628
 20
-2.675486246744792
 10
1.723331875271267
 20
-2.675486246744792
 10
1.872155931260851
 20
-2.675486246744792
 10
2.082035488552517
 20
-2.761349148220486
 10
2.082035488552517
 20
-2.940697564019097
 97
        0
 97
        0
 92
        1
 93
        1
 72
     4
 94
        3
 73
     0
 74
     1
 95
       17
 96
       13
 40
0.0
 40
0.0
 40
0.0
 40
0.0
 40
1.0
 40
1.0
 40
1.0
 40
2.0
 40
2.0
 40
2.0
 40
3.0
 40
3.0
 40
3.0
 40
4.0
 40
4.0
 40
4.0
 40
4.0
 10
1.921763949924045
 20
-3.476837158203125
 10
1.921763949924045
 20
-3.373809814453125
 10
1.793929206000434
 20
-3.299401177300347
 10
1.690901862250434
 20
-3.299401177300347
 10
1.547801547580295
 20
-3.299401177300347
 10
1.469574822319878
 20
-3.394792344835069
 10
1.469574822319878
 20
-3.530263264973958
 10
1.469574822319878
 20
-3.614220513237847
 10
1.503917270236545
 20
-3.71916029188368
 10
1.60503896077474
 20
-3.71916029188368
 10
1.72906239827474
 20
-3.71916029188368
 10
1.921763949924045
 20
-3.61039564344618
 10
1.921763949924045
 20
-3.476837158203125
 97
        0
 97
        0
 92
        1
 93
        1
 72
     4
 94
        3
 73
     0
 74
     1
 95
       44
 96
       40
 40
0.0
 40
0.0
 40
0.0
 40
0.0
 40
1.0
 40
1.0
 40
1.0
 40
2.0
 40
2.0
 40
2.0
 40
3.0
 40
3.0
 40
3.0
 40
4.0
 40
4.0
 40
4.0
 40
5.0
 40
5.0
 40
5.0
 40
6.0
 40
6.0
 40
6.0
 40
7.0
 40
7.0
 40
7.0
 40
8.0
 40
8.0
 40
8.0
 40
9.0
 40
9.0
 40
9.0
 40
10.0
 40
10.0
 40
10.0
 40
11.0
 40
11.0
 40
11.0
 40
12.0
 40
12.0
 40
12.0
 40
13.0
 40
13.0
 40
13.0
 40
13.0
 10
2.721188863118489
 20
-2.841481526692708
 10
2.580000983344184
 20
-2.841481526692708
 10
2.532298617892795
 20
-2.891089545355903
 10
2.452166239420573
 20
-2.973134358723958
 10
2.452166239420573
 20
-2.973134358723958
 10
2.4311769273546
 20
-2.996029324001736
 10
2.4311769273546
 20
-2.996029324001736
 10
2.4311769273546
 20
-2.996029324001736
 10
2.421635097927517
 20
-2.900631374782986
 10
2.421635097927517
 20
-2.900631374782986
 10
2.421635097927517
 20
-2.900631374782986
 10
2.223203023274739
 20
-2.91398451063368
 10
2.223203023274739
 20
-2.91398451063368
 10
2.267087300618489
 20
-3.263146294487847
 10
2.268999735514323
 20
-3.400516086154514
 10
2.223203023274739
 20
-3.745866563585069
 10
2.223203023274739
 20
-3.747778998480903
 10
2.225115458170573
 20
-3.751590304904514
 10
2.225115458170573
 20
-3.751590304904514
 10
2.225115458170573
 20
-3.751590304904514
 10
2.5189454820421
 20
-3.793568929036458
 10
2.5189454820421
 20
-3.793568929036458
 10
2.480784946017795
 20
-3.686716715494792
 10
2.471243116590712
 20
-3.576053195529514
 10
2.455977545844184
 20
-3.467302110460069
 10
2.455977545844184
 20
-3.467302110460069
 10
2.455977545844184
 20
-3.442494710286458
 10
2.455977545844184
 20
-3.442494710286458
 10
2.455977545844184
 20
-3.312747531467014
 10
2.457889980740017
 20
-3.047542995876736
 10
2.654409620496962
 20
-3.047542995876736
 10
3.009288363986545
 20
-3.047542995876736
 10
2.799422370062934
 20
-3.900407579210069
 10
2.803233676486545
 20
-3.885148790147569
 10
2.803233676486545
 20
-3.885148790147569
 10
2.965410868326823
 20
-3.919491238064236
 10
2.965410868326823
 20
-3.919491238064236
 10
3.102780659993489
 20
-3.581776936848958
 10
3.175290425618489
 20
-2.841481526692708
 10
2.721188863118489
 20
-2.841481526692708
 97
        0
 97
        0
 92
        1
 93
        1
 72
     4
 94
        3
 73
     0
 74
     1
 95
       38
 96
       34
 40
0.0
 40
0.0
 40
0.0
 40
0.0
 40
1.0
 40
1.0
 40
1.0
 40
2.0
 40
2.0
 40
2.0
 40
3.0
 40
3.0
 40
3.0
 40
4.0
 40
4.0
 40
4.0
 40
5.0
 40
5.0
 40
5.0
 40
6.0
 40
6.0
 40
6.0
 40
7.0
 40
7.0
 40
7.0
 40
8.0
 40
8.0
 40
8.0
 40
9.0
 40
9.0
 40
9.0
 40
10.0
 40
10.0
 40
10.0
 40
11.0
 40
11.0
 40
11.0
 40
11.0
 10
4.098752339680989
 20
-2.515214708116319
 10
3.959470113118489
 20
-3.35282728407118
 10
3.976641337076823
 20
-3.598948160807292
 10
4.037703620062934
 20
-3.827911376953125
 10
4.037703620062934
 20
-3.827911376953125
 10
3.778209262424045
 20
-3.841271294487847
 10
3.778209262424045
 20
-3.841271294487847
 10
3.778209262424045
 20
-3.841271294487847
 10
3.787757873535156
 20
-3.77067396375868
 10
3.787757873535156
 20
-3.77067396375868
 10
3.726695590549045
 20
-3.812652587890625
 10
3.650374518500434
 20
-3.83744642469618
 10
3.560707092285156
 20
-3.83744642469618
 10
3.549259609646267
 20
-3.83744642469618
 10
3.488197326660156
 20
-3.835547553168403
 10
3.476749844021267
 20
-3.835547553168403
 10
3.247786627875434
 20
-3.77067396375868
 10
3.139035542805989
 20
-3.555070665147569
 10
3.139035542805989
 20
-3.337554931640625
 10
3.139035542805989
 20
-3.322296142578125
 10
3.139035542805989
 20
-3.305124918619792
 10
3.140947977701823
 20
-3.289852566189236
 10
3.156206766764323
 20
-3.055179172092014
 10
3.310761345757378
 20
-2.81095716688368
 10
3.579777187771267
 20
-2.81095716688368
 10
3.690440707736545
 20
-2.81095716688368
 10
3.776310390896267
 20
-2.847205268012153
 10
3.839271545410156
 20
-2.90635511610243
 10
3.837359110514323
 20
-2.780426025390625
 10
3.831635369194878
 20
-2.650685628255208
 10
3.822100321451823
 20
-2.515214708116319
 10
3.822100321451823
 20
-2.515214708116319
 10
4.098752339680989
 20
-2.515214708116319
 10
4.098752339680989
 20
-2.515214708116319
 97
        0
 97
        0
 92
        1
 93
        1
 72
     4
 94
        3
 73
     0
 74
     1
 95
       17
 96
       13
 40
0.0
 40
0.0
 40
0.0
 40
0.0
 40
1.0
 40
1.0
 40
1.0
 40
2.0
 40
2.0
 40
2.0
 40
3.0
 40
3.0
 40
3.0
 40
4.0
 40
4.0
 40
4.0
 40
4.0
 10
3.570242140028212
 20
-2.948326958550347
 10
3.4061525132921
 20
-2.948326958550347
 10
3.375621371799045
 20
-3.152482774522569
 10
3.3698976304796
 20
-3.266957600911458
 10
3.358450147840712
 20
-3.417687310112847
 10
3.371810065375434
 20
-3.709611680772569
 10
3.595049540201823
 20
-3.709611680772569
 10
3.747678120930989
 20
-3.709611680772569
 10
3.770586649576823
 20
-3.494008382161458
 10
3.778209262424045
 20
-3.394792344835069
 10
3.787757873535156
 20
-3.257422553168403
 10
3.774397956000434
 20
-2.948326958550347
 10
3.570242140028212
 20
-2.948326958550347
 97
        0
 97
        0
 75
     2
 76
     1
 98
        0
  0
ENDSEC
  0
SECTION
  2
OBJECTS
  0
DICTIONARY
  5
C
330
0
100
AcDbDictionary
281
     1
  3
ACAD_GROUP
350
D
  3
ACAD_LAYOUT
350
1A
  3
ACAD_MATERIAL
350
3B
  3
ACAD_MLEADERSTYLE
350
89
  3
ACAD_MLINESTYLE
350
17
  3
ACAD_PLOTSETTINGS
350
19
  3
ACAD_PLOTSTYLENAME
350
E
  3
ACAD_TABLESTYLE
350
88
  3
ACAD_VISUALSTYLE
350
2A
  0
SUN
  5
3F
330
29
100
AcDbSun
 90
        1
290
     0
 63
     7
421
 16777215
 40
1.0
291
     1
 91
  2455826
 92
 54000000
292
     0
 70
     2
 71
   256
280
     1
  0
DICTIONARY
  5
D
102
{ACAD_REACTORS
330
C
102
}
330
C
100
AcDbDictionary
281
     1
  0
DICTIONARY
  5
1A
102
{ACAD_REACTORS
330
C
102
}
330
C
100
AcDbDictionary
281
     1
  3
Layout1
350
1E
  3
Layout2
350
26
  3
Model
350
22
  0
DICTIONARY
  5
3B
102
{ACAD_REACTORS
330
C
102
}
330
C
100
AcDbDictionary
281
     1
  3
ByBlock
350
3D
  3
ByLayer
350
3C
  3
Global
350
3E
  0
DICTIONARY
  5
89
102
{ACAD_REACTORS
330
C
102
}
330
C
100
AcDbDictionary
281
     1
  0
DICTIONARY
  5
17
102
{ACAD_REACTORS
330
C
102
}
330
C
100
AcDbDictionary
281
     1
  3
Standard
350
18
  0
DICTIONARY
  5
19
102
{ACAD_REACTORS
330
C
102
}
330
C
100
AcDbDictionary
281
     1
  0
ACDBDICTIONARYWDFLT
  5
E
102
{ACAD_REACTORS
330
C
102
}
330
C
100
AcDbDictionary
281
     1
  3
Normal
350
F
100
AcDbDictionaryWithDefault
340
F
  0
DICTIONARY
  5
88
102
{ACAD_REACTORS
330
C
102
}
330
C
100
AcDbDictionary
281
     1
  0
DICTIONARY
  5
2A
102
{ACAD_REACTORS
330
C
102
}
330
C
100
AcDbDictionary
281
     1
  3
2dWireframe
350
2F
  3
3D Hidden
350
31
  3
3dWireframe
350
30
  3
Basic
350
32
  3
Brighten
350
36
  3
ColorChange
350
3A
  3
Conceptual
350
34
  3
Dim
350
35
  3
Facepattern
350
39
  3
Flat
350
2B
  3
FlatWithEdges
350
2C
  3
Gouraud
350
2D
  3
GouraudWithEdges
350
2E
  3
Linepattern
350
38
  3
Realistic
350
33
  3
Thicken
350
37
  0
LAYOUT
  5
1E
102
{ACAD_REACTORS
330
1A
102
}
330
1A
100
AcDbPlotSettings
  1

  2
none_device
  4

  6

 40
0.0
 41
0.0
 42
0.0
 43
0.0
 44
0.0
 45
0.0
 46
0.0
 47
0.0
 48
0.0
 49
0.0
140
0.0
141
0.0
142
1.0
143
1.0
 70
   688
 72
     0
 73
     0
 74
     5
  7

 75
    16
 76
     0
 77
     2
 78
   300
147
1.0
148
0.0
149
0.0
100
AcDbLayout
  1
Layout1
 70
     1
 71
     1
 10
0.0
 20
0.0
 11
12.0
 21
9.0
 12
0.0
 22
0.0
 32
0.0
 14
1.000000000000000E+20
 24
1.000000000000000E+20
 34
1.000000000000000E+20
 15
-1.000000000000000E+20
 25
-1.000000000000000E+20
 35
-1.000000000000000E+20
146
0.0
 13
0.0
 23
0.0
 33
0.0
 16
1.0
 26
0.0
 36
0.0
 17
0.0
 27
1.0
 37
0.0
 76
     0
330
1B
  0
LAYOUT
  5
26
102
{ACAD_REACTORS
330
1A
102
}
330
1A
100
AcDbPlotSettings
  1

  2
none_device
  4

  6

 40
0.0
 41
0.0
 42
0.0
 43
0.0
 44
0.0
 45
0.0
 46
0.0
 47
0.0
 48
0.0
 49
0.0
140
0.0
141
0.0
142
1.0
143
1.0
 70
   688
 72
     0
 73
     0
 74
     5
  7

 75
    16
 76
     0
 77
     2
 78
   300
147
1.0
148
0.0
149
0.0
100
AcDbLayout
  1
Layout2
 70
     1
 71
     2
 10
0.0
 20
0.0
 11
0.0
 21
0.0
 12
0.0
 22
0.0
 32
0.0
 14
0.0
 24
0.0
 34
0.0
 15
0.0
 25
0.0
 35
0.0
146
0.0
 13
0.0
 23
0.0
 33
0.0
 16
1.0
 26
0.0
 36
0.0
 17
0.0
 27
1.0
 37
0.0
 76
     0
330
23
  0
LAYOUT
  5
22
102
{ACAD_REACTORS
330
1A
102
}
330
1A
100
AcDbPlotSettings
  1

  2
none_device
  4

  6

 40
0.0
 41
0.0
 42
0.0
 43
0.0
 44
0.0
 45
0.0
 46
0.0
 47
0.0
 48
0.0
 49
0.0
140
0.0
141
0.0
142
1.0
143
1.0
 70
  1712
 72
     0
 73
     0
 74
     0
  7

 75
     0
 76
     0
 77
     2
 78
   300
147
1.0
148
0.0
149
0.0
100
AcDbLayout
  1
Model
 70
     1
 71
     0
 10
0.0
 20
0.0
 11
12.0
 21
9.0
 12
0.0
 22
0.0
 32
0.0
 14
1.000000000000000E+20
 24
1.000000000000000E+20
 34
1.000000000000000E+20
 15
-1.000000000000000E+20
 25
-1.000000000000000E+20
 35
-1.000000000000000E+20
146
0.0
 13
0.0
 23
0.0
 33
0.0
 16
1.0
 26
0.0
 36
0.0
 17
0.0
 27
1.0
 37
0.0
 76
     0
330
1F
331
29
  0
MATERIAL
  5
3D
102
{ACAD_REACTORS
330
3B
102
}
330
3B
100
AcDbMaterial
  1
ByBlock
 72
     1
 94
      127
  0
MATERIAL
  5
3C
102
{ACAD_REACTORS
330
3B
102
}
330
3B
100
AcDbMaterial
  1
ByLayer
 72
     1
 94
      127
  0
MATERIAL
  5
3E
102
{ACAD_REACTORS
330
3B
102
}
330
3B
100
AcDbMaterial
  1
Global
 72
     1
 94
      127
  0
MLINESTYLE
  5
18
102
{ACAD_REACTORS
330
17
102
}
330
17
100
AcDbMlineStyle
  2
Standard
 70
     0
  3

 62
   256
 51
90.0
 52
90.0
 71
     2
 49
0.5
 62
   256
  6
BYLAYER
 49
-0.5
 62
   256
  6
BYLAYER
  0
ACDBPLACEHOLDER
  5
F
102
{ACAD_REACTORS
330
E
102
}
330
E
  0
VISUALSTYLE
  5
2F
102
{ACAD_REACTORS
330
2A
102
}
330
2A
100
AcDbVisualStyle
  2
2dWireframe
 70
     4
177
     2
291
     0
 71
     0
176
     1
 72
     2
176
     1
 73
     0
176
     1
 90
        0
176
     1
 40
-0.6
176
     1
 41
-30.0
176
     1
 62
     5
 63
     7
421
 16777215
176
     1
 74
     1
176
     1
 91
        4
176
     1
 64
     7
176
     1
 65
   257
176
     1
 75
     1
176
     1
175
     1
176
     1
 42
1.0
176
     1
 92
        0
176
     1
 66
   257
176
     1
 43
1.0
176
     1
 76
     1
176
     1
 77
     6
176
     1
 78
     2
176
     1
 67
     7
176
     1
 79
     5
176
     1
170
     0
176
     1
171
     0
176
     1
290
     0
176
     1
 93
        1
176
     1
 44
0.0
176
     1
173
     0
176
     1
  0
VISUALSTYLE
  5
31
102
{ACAD_REACTORS
330
2A
102
}
330
2A
100
AcDbVisualStyle
  2
3D Hidden
 70
     6
177
     2
291
     0
 71
     1
176
     1
 72
     2
176
     1
 73
     2
176
     1
 90
        0
176
     1
 40
-0.6
176
     1
 41
-30.0
176
     1
 62
     5
 63
     7
421
 16777215
176
     1
 74
     2
176
     1
 91
        2
176
     1
 64
     7
176
     1
 65
   257
176
     1
 75
     2
176
     1
175
     1
176
     1
 42
40.0
176
     1
 92
        0
176
     1
 66
   257
176
     1
 43
1.0
176
     1
 76
     1
176
     1
 77
     6
176
     1
 78
     2
176
     1
 67
     7
176
     1
 79
     3
176
     1
170
     0
176
     1
171
     0
176
     1
290
     0
176
     1
 93
        1
176
     1
 44
0.0
176
     1
173
     0
176
     1
  0
VISUALSTYLE
  5
30
102
{ACAD_REACTORS
330
2A
102
}
330
2A
100
AcDbVisualStyle
  2
3dWireframe
 70
     5
177
     2
291
     0
 71
     0
176
     1
 72
     2
176
     1
 73
     0
176
     1
 90
        0
176
     1
 40
-0.6
176
     1
 41
-30.0
176
     1
 62
     5
 63
     7
421
 16777215
176
     1
 74
     1
176
     1
 91
        4
176
     1
 64
     7
176
     1
 65
   257
176
     1
 75
     1
176
     1
175
     1
176
     1
 42
1.0
176
     1
 92
        0
176
     1
 66
   257
176
     1
 43
1.0
176
     1
 76
     1
176
     1
 77
     6
176
     1
 78
     2
176
     1
 67
     7
176
     1
 79
     5
176
     1
170
     0
176
     1
171
     0
176
     1
290
     0
176
     1
 93
        1
176
     1
 44
0.0
176
     1
173
     0
176
     1
  0
VISUALSTYLE
  5
32
102
{ACAD_REACTORS
330
2A
102
}
330
2A
100
AcDbVisualStyle
  2
Basic
 70
     7
177
     2
291
     1
 71
     1
176
     1
 72
     0
176
     1
 73
     1
176
     1
 90
        0
176
     1
 40
-0.6
176
     1
 41
-30.0
176
     1
 62
     5
 63
     7
421
 16777215
176
     1
 74
     0
176
     1
 91
        4
176
     1
 64
     7
176
     1
 65
   257
176
     1
 75
     1
176
     1
175
     1
176
     1
 42
1.0
176
     1
 92
        8
176
     1
 66
     7
176
     1
 43
1.0
176
     1
 76
     1
176
     1
 77
     6
176
     1
 78
     2
176
     1
 67
     7
176
     1
 79
     5
176
     1
170
     0
176
     1
171
     0
176
     1
290
     0
176
     1
 93
        1
176
     1
 44
0.0
176
     1
173
     0
176
     1
  0
VISUALSTYLE
  5
36
102
{ACAD_REACTORS
330
2A
102
}
330
2A
100
AcDbVisualStyle
  2
Brighten
 70
    12
177
     2
291
     1
 71
     2
176
     1
 72
     2
176
     1
 73
     0
176
     1
 90
        0
176
     1
 40
-0.6
176
     1
 41
-30.0
176
     1
 62
     5
 63
     7
421
 16777215
176
     1
 74
     1
176
     1
 91
        4
176
     1
 64
     7
176
     1
 65
   257
176
     1
 75
     1
176
     1
175
     1
176
     1
 42
1.0
176
     1
 92
        8
176
     1
 66
     7
176
     1
 43
1.0
176
     1
 76
     1
176
     1
 77
     6
176
     1
 78
     2
176
     1
 67
     7
176
     1
 79
     5
176
     1
170
     0
176
     1
171
     0
176
     1
290
     0
176
     1
 93
        1
176
     1
 44
50.0
176
     1
173
     0
176
     1
  0
VISUALSTYLE
  5
3A
102
{ACAD_REACTORS
330
2A
102
}
330
2A
100
AcDbVisualStyle
  2
ColorChange
 70
    16
177
     2
291
     1
 71
     2
176
     1
 72
     2
176
     1
 73
     3
176
     1
 90
        0
176
     1
 40
-0.6
176
     1
 41
-30.0
176
     1
 62
     5
 63
     8
421
  8421504
176
     1
 74
     1
176
     1
 91
        4
176
     1
 64
     7
176
     1
 65
   257
176
     1
 75
     1
176
     1
175
     1
176
     1
 42
1.0
176
     1
 92
        8
176
     1
 66
     8
424
  8421504
176
     1
 43
1.0
176
     1
 76
     1
176
     1
 77
     6
176
     1
 78
     2
176
     1
 67
     7
176
     1
 79
     5
176
     1
170
     0
176
     1
171
     0
176
     1
290
     0
176
     1
 93
        1
176
     1
 44
0.0
176
     1
173
     0
176
     1
  0
VISUALSTYLE
  5
34
102
{ACAD_REACTORS
330
2A
102
}
330
2A
100
AcDbVisualStyle
  2
Conceptual
 70
     9
177
     2
291
     0
 71
     3
176
     1
 72
     2
176
     1
 73
     0
176
     1
 90
        0
176
     1
 40
-0.6
176
     1
 41
-30.0
176
     1
 62
     5
 63
     7
421
 16777215
176
     1
 74
     2
176
     1
 91
        2
176
     1
 64
     7
176
     1
 65
   257
176
     1
 75
     1
176
     1
175
     1
176
     1
 42
40.0
176
     1
 92
        8
176
     1
 66
     7
176
     1
 43
1.0
176
     1
 76
     1
176
     1
 77
     6
176
     1
 78
     2
176
     1
 67
     7
176
     1
 79
     3
176
     1
170
     0
176
     1
171
     0
176
     1
290
     0
176
     1
 93
        1
176
     1
 44
0.0
176
     1
173
     0
176
     1
  0
VISUALSTYLE
  5
35
102
{ACAD_REACTORS
330
2A
102
}
330
2A
100
AcDbVisualStyle
  2
Dim
 70
    11
177
     2
291
     1
 71
     2
176
     1
 72
     2
176
     1
 73
     0
176
     1
 90
        0
176
     1
 40
-0.6
176
     1
 41
-30.0
176
     1
 62
     5
 63
     7
421
 16777215
176
     1
 74
     1
176
     1
 91
        4
176
     1
 64
     7
176
     1
 65
   257
176
     1
 75
     1
176
     1
175
     1
176
     1
 42
1.0
176
     1
 92
        8
176
     1
 66
     7
176
     1
 43
1.0
176
     1
 76
     1
176
     1
 77
     6
176
     1
 78
     2
176
     1
 67
     7
176
     1
 79
     5
176
     1
170
     0
176
     1
171
     0
176
     1
290
     0
176
     1
 93
        1
176
     1
 44
-50.0
176
     1
173
     0
176
     1
  0
VISUALSTYLE
  5
39
102
{ACAD_REACTORS
330
2A
102
}
330
2A
100
AcDbVisualStyle
  2
Facepattern
 70
    15
177
     2
291
     1
 71
     2
176
     1
 72
     2
176
     1
 73
     0
176
     1
 90
        0
176
     1
 40
-0.6
176
     1
 41
-30.0
176
     1
 62
     5
 63
     7
421
 16777215
176
     1
 74
     1
176
     1
 91
        4
176
     1
 64
     7
176
     1
 65
   257
176
     1
 75
     1
176
     1
175
     1
176
     1
 42
1.0
176
     1
 92
        8
176
     1
 66
     7
176
     1
 43
1.0
176
     1
 76
     1
176
     1
 77
     6
176
     1
 78
     2
176
     1
 67
     7
176
     1
 79
     5
176
     1
170
     0
176
     1
171
     0
176
     1
290
     0
176
     1
 93
        1
176
     1
 44
0.0
176
     1
173
     0
176
     1
  0
VISUALSTYLE
  5
2B
102
{ACAD_REACTORS
330
2A
102
}
330
2A
100
AcDbVisualStyle
  2
Flat
 70
     0
177
     2
291
     1
 71
     2
176
     1
 72
     1
176
     1
 73
     1
176
     1
 90
        2
176
     1
 40
-0.6
176
     1
 41
30.0
176
     1
 62
     5
 63
     7
421
 16777215
176
     1
 74
     0
176
     1
 91
        4
176
     1
 64
     7
176
     1
 65
   257
176
     1
 75
     1
176
     1
175
     1
176
     1
 42
1.0
176
     1
 92
        8
176
     1
 66
     7
176
     1
 43
1.0
176
     1
 76
     1
176
     1
 77
     6
176
     1
 78
     2
176
     1
 67
     7
176
     1
 79
     5
176
     1
170
     0
176
     1
171
     0
176
     1
290
     0
176
     1
 93
       13
176
     1
 44
0.0
176
     1
173
     0
176
     1
  0
VISUALSTYLE
  5
2C
102
{ACAD_REACTORS
330
2A
102
}
330
2A
100
AcDbVisualStyle
  2
FlatWithEdges
 70
     1
177
     2
291
     1
 71
     2
176
     1
 72
     1
176
     1
 73
     1
176
     1
 90
        2
176
     1
 40
-0.6
176
     1
 41
30.0
176
     1
 62
     5
 63
     7
421
 16777215
176
     1
 74
     1
176
     1
 91
        4
176
     1
 64
     7
176
     1
 65
   257
176
     1
 75
     1
176
     1
175
     1
176
     1
 42
1.0
176
     1
 92
        0
176
     1
 66
   257
176
     1
 43
1.0
176
     1
 76
     1
176
     1
 77
     6
176
     1
 78
     2
176
     1
 67
     7
176
     1
 79
     5
176
     1
170
     0
176
     1
171
     0
176
     1
290
     0
176
     1
 93
       13
176
     1
 44
0.0
176
     1
173
     0
176
     1
  0
VISUALSTYLE
  5
2D
102
{ACAD_REACTORS
330
2A
102
}
330
2A
100
AcDbVisualStyle
  2
Gouraud
 70
     2
177
     2
291
     1
 71
     2
176
     1
 72
     2
176
     1
 73
     1
176
     1
 90
        2
176
     1
 40
-0.6
176
     1
 41
30.0
176
     1
 62
     5
 63
     7
421
 16777215
176
     1
 74
     0
176
     1
 91
        4
176
     1
 64
     7
176
     1
 65
   257
176
     1
 75
     1
176
     1
175
     1
176
     1
 42
1.0
176
     1
 92
        0
176
     1
 66
     7
176
     1
 43
1.0
176
     1
 76
     1
176
     1
 77
     6
176
     1
 78
     2
176
     1
 67
     7
176
     1
 79
     5
176
     1
170
     0
176
     1
171
     0
176
     1
290
     0
176
     1
 93
       13
176
     1
 44
0.0
176
     1
173
     0
176
     1
  0
VISUALSTYLE
  5
2E
102
{ACAD_REACTORS
330
2A
102
}
330
2A
100
AcDbVisualStyle
  2
GouraudWithEdges
 70
     3
177
     2
291
     1
 71
     2
176
     1
 72
     2
176
     1
 73
     1
176
     1
 90
        2
176
     1
 40
-0.6
176
     1
 41
30.0
176
     1
 62
     5
 63
     7
421
 16777215
176
     1
 74
     1
176
     1
 91
        4
176
     1
 64
     7
176
     1
 65
   257
176
     1
 75
     1
176
     1
175
     1
176
     1
 42
1.0
176
     1
 92
        0
176
     1
 66
   257
176
     1
 43
1.0
176
     1
 76
     1
176
     1
 77
     6
176
     1
 78
     2
176
     1
 67
     7
176
     1
 79
     5
176
     1
170
     0
176
     1
171
     0
176
     1
290
     0
176
     1
 93
       13
176
     1
 44
0.0
176
     1
173
     0
176
     1
  0
VISUALSTYLE
  5
38
102
{ACAD_REACTORS
330
2A
102
}
330
2A
100
AcDbVisualStyle
  2
Linepattern
 70
    14
177
     2
291
     1
 71
     2
176
     1
 72
     2
176
     1
 73
     0
176
     1
 90
        0
176
     1
 40
-0.6
176
     1
 41
-30.0
176
     1
 62
     5
 63
     7
421
 16777215
176
     1
 74
     1
176
     1
 91
        4
176
     1
 64
     7
176
     1
 65
   257
176
     1
 75
     7
176
     1
175
     7
176
     1
 42
1.0
176
     1
 92
        8
176
     1
 66
     7
176
     1
 43
1.0
176
     1
 76
     1
176
     1
 77
     6
176
     1
 78
     2
176
     1
 67
     7
176
     1
 79
     5
176
     1
170
     0
176
     1
171
     0
176
     1
290
     0
176
     1
 93
        1
176
     1
 44
0.0
176
     1
173
     0
176
     1
  0
VISUALSTYLE
  5
33
102
{ACAD_REACTORS
330
2A
102
}
330
2A
100
AcDbVisualStyle
  2
Realistic
 70
     8
177
     2
291
     0
 71
     2
176
     1
 72
     2
176
     1
 73
     0
176
     1
 90
        0
176
     1
 40
-0.6
176
     1
 41
-30.0
176
     1
 62
     5
 63
     7
421
 16777215
176
     1
 74
     1
176
     1
 91
        0
176
     1
 64
     7
176
     1
 65
   257
176
     1
 75
     1
176
     1
175
     1
176
     1
 42
1.0
176
     1
 92
        8
176
     1
 66
     8
424
  7895160
176
     1
 43
1.0
176
     1
 76
     1
176
     1
 77
     6
176
     1
 78
     2
176
     1
 67
     7
176
     1
 79
     5
176
     1
170
     0
176
     1
171
     0
176
     1
290
     0
176
     1
 93
       13
176
     1
 44
0.0
176
     1
173
     0
176
     1
  0
VISUALSTYLE
  5
37
102
{ACAD_REACTORS
330
2A
102
}
330
2A
100
AcDbVisualStyle
  2
Thicken
 70
    13
177
     2
291
     1
 71
     2
176
     1
 72
     2
176
     1
 73
     0
176
     1
 90
        0
176
     1
 40
-0.6
176
     1
 41
-30.0
176
     1
 62
     5
 63
     7
421
 16777215
176
     1
 74
     1
176
     1
 91
        4
176
     1
 64
     7
176
     1
 65
   257
176
     1
 75
     1
176
     1
175
     1
176
     1
 42
1.0
176
     1
 92
       12
176
     1
 66
     7
176
     1
 43
1.0
176
     1
 76
     1
176
     1
 77
     6
176
     1
 78
     2
176
     1
 67
     7
176
     1
 79
     5
176
     1
170
     0
176
     1
171
     0
176
     1
290
     0
176
     1
 93
        1
176
     1
 44
0.0
176
     1
173
     0
176
     1
  0
ENDSEC
  0
EOF
