<?xml version="1.0" encoding="utf-8"?>
<!-- Generator: Adobe Illustrator 22.1.0, SVG Export Plug-In . SVG Version: 6.00 Build 0)  -->
<svg version="1.1" id="Layer_1" xmlns="http://www.w3.org/2000/svg" xmlns:xlink="http://www.w3.org/1999/xlink" x="0px" y="0px"
	 viewBox="0 0 1080 1296" style="enable-background:new 0 0 1080 1296;" xml:space="preserve">
<path d="M301.2,247.2l1.6-8.2c-7.6-0.6-9.6-9-9.6-14.8c0-18.5,16.4-33.4,30.6-41c8.2-4.7,17.4-7.2,27.1-7.2
	c12.7,0,30.8,4.3,30.8,19.3c0,18-21.5,22.1-35.3,22.1c-5.1,0-10.5-0.2-15.8-0.6l6.8-30.1h-8.4l-16,69.9l8,1.4l7.6-33.2
	c5.9,0.6,11.9,0.8,17.8,0.8c3.9,0,7.6-0.4,11.5-0.6c3.3-0.2,5.9,0.8,9,2.3c9.2,4.9,14.1,15.6,14.1,25c0,10.5-5.5,19.3-11.9,26
	c-16.2-6.4-27.3-11.5-39.4-15.8c-6.8-2.3-13.1-4.3-19.9-4.3c-12.5,0-23.4,8.6-23.4,22.4c0,18.7,22.1,23.4,36.1,23.4
	c18.3-0.6,35.7-5.5,48.6-16.4c6.6,2.3,12.7,3.7,19.3,3.7c14.4,0,23-10.9,26.2-23.6l-7.8-2.5c-3.3,10-7.6,17.8-18.5,17.8
	c-2.3,0-4.7-0.2-12.7-2.1c7.2-8.8,11.5-18.3,11.5-28.7c0-9-3.3-17.8-8.8-24.4c-2.3-2.7-4.9-4.9-8-6.8c2.7-1.4,5.3-3.1,7.8-5.1
	c5.9-5.5,9.6-13.1,9.6-20.7c0-20.5-23.4-27.5-39-27.5c-14.8,0-28.5,5.5-39.8,13.5c-14.4,11.1-26,25.4-26,42.9
	C285,234.9,290.5,245.6,301.2,247.2z M322.5,295.8c-10.5,0-27.9-2.7-27.9-15.2c0.8-9.8,8-14.1,15.2-14.1c6.6,0,12.1,2.1,17.2,3.9
	c8,3.1,16.6,6.6,25.8,10.5c3.1,1.4,5.9,2.5,9,3.5C350.2,292.3,336.3,295.8,322.5,295.8z M450.1,291.1c13.1,0,23.6-6.6,29.1-17
	c1.8-3.9,2.5-6.4,2.7-6.6l-8-2.1c-0.2,1-1.4,4.7-4.5,8.6c-4.1,6.4-11.9,8.8-19.3,8.8c-8.8,0-16.2-3.9-20.1-11.9
	c10.5-5.1,18.3-12.1,23.8-19.3c5.1-7.2,9.2-15,9.2-23.2c0-7.6-5.1-13.9-13.5-13.9c-9.6,0-17.6,7.6-22.6,16c-4.7,8-8,17.8-8,27.5
	c0,9.4,2.9,17.2,8.4,23.6C432.8,287.6,440.4,291.1,450.1,291.1z M436.9,230.6c3.1-3.5,7-7.8,12.5-7.8c3.5,0,5.3,1.8,5.3,5.7
	c0,8.4-5.3,16.4-12.1,23.2c-4.1,4.1-8.8,8-15.2,11.3c-0.2-1.4-0.4-3.1-0.4-4.9C427.1,248.2,431.4,237.8,436.9,230.6z M507.1,291.1
	c14.6,0,20.5-11.3,25-23.6l-8-2.3c-1.6,8.4-6.8,17.6-17,17.6c-9.6,0-14.6-7.4-14.6-17c0-1.8,0.2-4.1,0.6-6.6c1-4.9,3.1-9,5.7-13.7
	c4.1-6.8,9.8-14.6,15-23.4c6.8-11.5,13.5-25.2,13.5-39.4c0-5.9-2.5-13.7-10-13.7c-11.9,0-16.8,17.6-19.1,26.9v0.2l-13.3,61.7
	c-0.4,2.9-0.6,5.5-0.6,8C484.3,279.2,492.3,291.1,507.1,291.1z M506.3,197.8c1-4.9,4.7-18.9,11.1-20.5c1.8,0,1.8,3.9,1.8,5.5
	c0,15-8.2,29.5-19.7,46.8L506.3,197.8z M549.3,191.6c0-3.1,2.1-5.1,5.1-5.1c3.1,0,5.1,2.1,5.1,5.1c0,3.1-2.1,5.1-5.1,5.1
	C551.4,196.8,549.3,194.7,549.3,191.6z M533.5,273.5c0-2.1,0-4.1,12.1-58.9h8.4c-12.1,56-12.3,57.4-12.3,58.9
	c0,6.6,4.1,9.4,10.5,9.4c4.1,0,6.8-1.2,9.8-3.5c2.3-2.3,3.7-5.1,5.1-8.2l2.1-5.9l7.8,2.3l-2.5,7.6c-2.3,5.1-5.9,10.3-11.1,13.3
	c-3.3,1.8-7,2.7-11.3,2.7C541.3,291.1,533.5,284.3,533.5,273.5z M610.4,291.1c13.1,0,23.6-6.6,29.1-17c1.8-3.9,2.5-6.4,2.7-6.6
	l-8-2.1c-0.2,1-1.4,4.7-4.5,8.6c-4.1,6.4-11.9,8.8-19.3,8.8c-8.8,0-16.2-3.9-20.1-11.9c10.5-5.1,18.3-12.1,23.8-19.3
	c5.1-7.2,9.2-15,9.2-23.2c0-7.6-5.1-13.9-13.5-13.9c-9.6,0-17.6,7.6-22.6,16c-4.7,8-8,17.8-8,27.5c0,9.4,2.9,17.2,8.4,23.6
	C593.2,287.6,600.8,291.1,610.4,291.1z M597.3,230.6c3.1-3.5,7-7.8,12.5-7.8c3.5,0,5.3,1.8,5.3,5.7c0,8.4-5.3,16.4-12.1,23.2
	c-4.1,4.1-8.8,8-15.2,11.3c-0.2-1.4-0.4-3.1-0.4-4.9C587.5,248.2,591.8,237.8,597.3,230.6z M644.7,268.1c0-1.4,0.2-2.9,0.2-4.5
	l7-49.8h8.2l-7,50.9c0,1.4-0.2,2.5-0.2,3.5c0,6.6,2.7,14.6,10.9,14.6c2.5,0,4.9-0.8,8.8-3.5c-2.1-3.3-3.1-7-3.1-11.1h8.2
	c0,1.8,0.2,3.3,0.8,4.5c4.3-5.9,7.6-14.1,10.7-22.6c5.5-15.4,8.2-31.6,8.8-36.3h8.4c-0.2,1.4-1,7.2-2.7,14.6
	c-3.9,17.2-8.6,35.3-20.1,51.1c3.1,2.3,6.8,3.5,11.5,3.5c7.4,0,11.9-4.5,15-11.7l2.1-5.9l7.8,2.3l-2.5,7.6c-3.9,9.2-11.1,16-22.4,16
	c-6.8,0-12.3-1.8-17-5.7c-5.7,3.9-9.6,5.5-14.4,5.5C651.2,290.9,644.7,280.2,644.7,268.1z M753.3,291.1c13.1,0,23.6-6.6,29.1-17
	c1.8-3.9,2.5-6.4,2.7-6.6l-8-2.1c-0.2,1-1.4,4.7-4.5,8.6c-4.1,6.4-11.9,8.8-19.3,8.8c-8.8,0-16.2-3.9-20.1-11.9
	c10.5-5.1,18.3-12.1,23.8-19.3c5.1-7.2,9.2-15,9.2-23.2c0-7.6-5.1-13.9-13.5-13.9c-9.6,0-17.6,7.6-22.6,16c-4.7,8-8,17.8-8,27.5
	c0,9.4,2.9,17.2,8.4,23.6C736.1,287.6,743.7,291.1,753.3,291.1z M740.2,230.6c3.1-3.5,7-7.8,12.5-7.8c3.5,0,5.3,1.8,5.3,5.7
	c0,8.4-5.3,16.4-12.1,23.2c-4.1,4.1-8.8,8-15.2,11.3c-0.2-1.4-0.4-3.1-0.4-4.9C730.4,248.2,734.7,237.8,740.2,230.6z M320,372.1
	c-3.2,0-5.3-2.1-5.3-5.3s2.1-5.3,5.3-5.3s5.3,2.1,5.3,5.3S323.2,372.1,320,372.1z M310.9,390.5h8.6c-12.4,57.6-12.7,59.1-12.7,60.5
	c0,6.8,4.2,9.7,10.8,9.7c4.2,0,7-1.3,10.1-3.6c2.3-2.3,3.8-5.3,5.3-8.4l2.1-6.1l8,2.3l-2.5,7.8c-2.3,5.3-6.1,10.5-11.4,13.7
	c-3.4,1.9-7.2,2.7-11.6,2.7c-11.2,0-19.2-7-19.2-18.1C298.5,448.9,298.5,446.8,310.9,390.5z M430.1,469.2c-9.9,0-18.8-7.6-18.8-18.4
	c0-2.3,0.2-4.4,0.8-6.3l6.5-29.3v-0.2c0.2-0.6,0.2-1.7,0.2-3c0-7-5.9-13.1-13.3-13.1c-12.4,0-20,9.9-24.1,21.5l-10.3,48.7h-8.6
	l12.7-59.3c0.4-1.9,0.6-3.6,0.6-5.1c0-2.3-1.3-6.1-4.4-6.1c-4,0-6.5,3.8-7.4,7.4l-10.5,41.1l-8.2-2.1l10.5-40.9
	c1.7-6.8,7.4-13.9,15.6-13.9c5.3,0,9.9,3.2,12.2,9.7c5.3-5.9,13.3-9.5,21.9-9.5c11.2,0,21.7,9.7,21.7,21.5c0,1.7-0.2,3.4-0.4,5.1
	l-6.5,29.3c-0.4,1.7-0.6,3.2-0.6,4.4c0,5.7,4.4,9.9,10.3,9.9c3.6,0,6.8-1.3,9.3-3.8c2.7-2.7,5.3-7.6,7.4-14.3l8,2.3
	c-1.7,5.7-3.8,10.5-6.3,14.3C444.3,464.9,437.9,469.2,430.1,469.2z M559.9,343.2l-7.2,33.3h14.8v8.4H551l-13.3,61.4v0.2
	c-0.2,1.5-0.4,3-0.4,4.4c0,5.9,4,9.7,10.5,9.7c7.8,0,12.4-4.6,15.6-12l2.1-6.1l8,2.3c-0.6,2.3-1.3,4.6-2.7,7.8
	c-4.2,9.9-11.2,16.5-23,16.5c-10.3,0-19-6.5-19-18.1c0-2.1,0.2-4.2,0.6-6.3l12.9-59.7h-14.1v-8.4h15.8l7.2-33.3H559.9z M660.1,459.3
	c-4.2,5.9-10.3,9.7-18.1,9.9h-0.2c-9.9,0-18.8-7.8-18.8-18.6c0-1.9,0.2-4,0.8-6.3l6.5-29.3c1.1-6.5-2.3-16-10.8-16
	c-10.8,0-18.8,9.7-24,19c-6.3,10.8-9.7,22.6-11.4,26.8l-5.3,24.5h-8.6l27.6-125.9h8.4l-13.9,63.9c7.4-11,17.3-16.7,27.2-16.7
	c11.2,0,19.6,9.1,19.6,20.7c0,1.9-0.2,3.8-0.6,5.7l-6.5,29.3c-0.4,1.7-0.6,3.2-0.6,4.4c0.2,5.3,4.4,10.1,10.3,10.1
	c3.6,0,6.8-1.3,9.5-4c3-3,5.3-7.6,7.2-14.1l8,2.3C664.7,450.6,662.8,455.2,660.1,459.3z M700.8,460.7c-9.1,0-16.7-4-20.7-12.2
	c10.8-5.3,18.8-12.4,24.5-19.8c5.3-7.4,9.5-15.4,9.5-23.8c0-7.8-5.3-14.3-13.9-14.3c-9.9,0-18.1,7.8-23.2,16.5
	c-4.9,8.2-8.2,18.4-8.2,28.3c0,9.7,3,17.7,8.6,24.3c5.7,6.1,13.5,9.7,23.4,9.7c13.5,0,24.3-6.8,30-17.5c1.9-4,2.5-6.5,2.7-6.8
	l-8.2-2.1c-0.2,1.1-1.5,4.9-4.6,8.9C716.4,458.2,708.4,460.7,700.8,460.7z M677.6,440.3c-0.2-1.5-0.4-3.2-0.4-5.1
	c0-10.1,4.4-20.9,10.1-28.3c3.2-3.6,7.2-8,12.9-8c3.6,0,5.5,1.9,5.5,5.9c0,8.6-5.5,16.9-12.4,23.8
	C689,432.9,684.1,436.9,677.6,440.3z M99.7,672.8c0-18.7,15.3-35.4,35.1-35.4c3.7,0,7.1,0.6,9.6,1.4l-2.3,11.3
	c-2-0.8-4.2-1.4-7.4-1.4c-12.5,0-23.8,10.5-23.8,24.1c0,13.9,12.5,20.7,25.5,20.7c20.7,0,33.1-13.6,38.5-34l25.8-120.4
	c-6.5,1.4-13.3,2.5-19.8,3.7c-15.6,2.3-46.7,4.5-46.7,27.5c0,12.2,12.2,17,23.5,17.8l-2.3,11.3c-15.3-0.8-33.4-11-32.6-29.2
	c0-30.9,34.8-35.7,60-39.4c8.2-1.4,16.1-2.8,23.2-5.1h9.1l-1.4,6.5c-0.6,3.1-0.8,6.5-0.8,10.2c0,18.1,6.2,35.4,11.9,53.8
	c4.2,12.7,8.8,26.1,12.5,39.4c7.6-22.4,17-41.1,29.7-58.1c15.6-21.2,36.5-38.5,63.4-51.8h11.6l-29.5,138.5
	c-2.3,10.2,2.3,19.3,13.6,19.3c13.6,0,19.3-11,23.5-24.4l10.8,3.1c-4.5,17-14.4,32.6-34.3,32.6c-18.1,0-28.9-12.7-24.6-32.9
	l25.8-121.8c-21.8,12.2-38,26.3-51.3,44.2c-15.6,20.4-25.8,44.8-34.6,75.3l-11-0.8c-2-13.9-6.5-28.9-11.3-43.9
	c-4.8-15-10.2-29.7-13.6-44.2L186.1,662c-5.9,24.1-22.1,42.8-49.6,42.8C118.1,704.8,99.7,694,99.7,672.8z M379.2,589.2h11.6
	c-16.7,77.3-17,79.3-17,81.3c0,9.1,5.7,13,14.4,13c5.7,0,9.3-1.7,13.6-4.8c3.1-3.1,5.1-7.1,7.1-11.3l2.8-8.2l10.8,3.1l-3.4,10.5
	c-3.1,7.1-8.2,14.2-15.3,18.4c-4.5,2.5-9.6,3.7-15.6,3.7c-15,0-25.8-9.3-25.8-24.4C362.5,667.7,362.5,664.8,379.2,589.2z
	 M391.4,564.6c-4.2,0-7.1-2.8-7.1-7.1s2.8-7.1,7.1-7.1s7.1,2.8,7.1,7.1S395.6,564.6,391.4,564.6z M443.2,641.3
	c-2.3,9.1-4.8,17.8-7.4,24.6l-10.5-4c2-5.4,4-12.5,5.9-20.1c4.8-19.3,8.2-38.2,12.5-58.3h11.3l-1.1,6.8c5.4,4.5,11.6,7.4,18.1,9.3
	c7.6,2.3,14.7,2.8,21.2,2.8c5.4,0,8.2,5.4,8.2,10.2c0,3.1-0.6,5.9-3.4,19.8c-3.1,12.2-7.1,25.2-7.1,38.8c0,4.5,0.6,11.9,6.8,11.9
	c12.2,0,21.8-13.9,24.9-24.4l10.8,3.7c-5.4,14.4-17.8,32-35.7,32c-12.5,0-18.1-11-18.1-23.2c0-18.4,7.6-36,9.9-54.7
	c0.3-0.8,0.3-1.7,0.3-2.8c-6.5-0.3-13.3-1.1-21-3.4c-6.5-2-12.2-4.5-17.3-7.9C449.5,614.1,446.3,628,443.2,641.3z M658.8,662.3
	l-10.8-3.1c-3.7,12.2-9.3,24.4-23.8,24.4c-12.2,0-15.6-9.3-13.6-19.3l16.1-75.1h-11.6l-2.3,11.3c-5.4-7.1-14.4-11-23.8-11
	c-34.8,0-52.7,43.1-52.7,71.1c0,21.2,14.7,34.8,34.8,34c12.2-0.3,21.2-5.9,28.9-14.7c4.5,11,13.9,15,24.4,15
	C644.3,694.9,654.2,678.4,658.8,662.3z M600.4,658.3c-0.3,0.3-2.8,6.8-8.2,13.3c-5.7,6.8-12.7,11.6-21,11.6
	c-14.7,0-23.5-8.2-23.5-22.7c0-23.8,14.2-59.8,41.4-59.8c11,0,19.5,8.8,19.5,19L600.4,658.3z M662.2,651.8
	c0-30.6,17.6-62.9,50.1-62.9c13.6,0,22.7,11.6,22.7,24.1c0,9.9-4,17.3-10.5,22.1c-6.5,4.5-14.2,7.4-25.2,7.4v-11.3
	c8.8,0,14.7-2,18.1-5.1c4.2-3.4,6.2-7.6,6.2-13c0-7.1-4.5-12.7-11.3-12.7c-27.2,0-38.8,29.7-38.8,51.5c0,22.7,17.8,32,37.4,32
	c12.2,0,24.1-4.2,30.9-13.3c2.3-3.1,4.2-6.8,5.4-11l11,2.8c-1.4,5.4-4,10.5-7.4,15c-9.1,12.5-25.5,17.8-39.9,17.8
	C683.4,695.1,662.2,679,662.2,651.8z M781.1,632c5.7-9.3,13.6-20.1,20.7-32.3c9.3-15.9,18.7-34.8,18.7-54.4c0-8.2-3.4-19-13.9-19
	c-16.4,0-23.2,24.4-26.3,37.1v0.3L761.9,649c-0.6,4-0.8,7.6-0.8,11c0,18.4,11,34.8,31.4,34.8c20.1,0,28.3-15.6,34.6-32.6l-11-3.1
	c-2.3,11.6-9.3,24.4-23.5,24.4c-13.3,0-20.1-10.2-20.1-23.5c0-2.5,0.3-5.7,0.8-9.1C774.6,644.2,777.4,638.5,781.1,632z M791.3,566
	c1.4-6.8,6.5-26.1,15.3-28.3c2.5,0,2.5,5.4,2.5,7.6c0,20.7-11.3,40.8-27.2,64.6L791.3,566z M841.2,611.3c-6.5,11-11,24.6-11,38
	c0,13,4,23.8,11.6,32.6c7.6,8.2,18.1,13,31.4,13c18.1,0,32.6-9.1,40.2-23.5c2.5-5.4,3.4-8.8,3.7-9.1l-11-2.8
	c-0.3,1.4-2,6.5-6.2,11.9c-5.7,8.8-16.4,12.2-26.6,12.2c-12.2,0-22.4-5.4-27.8-16.4c14.4-7.1,25.2-16.7,32.9-26.6
	c7.1-9.9,12.7-20.7,12.7-32c0-10.5-7.1-19.3-18.7-19.3C859,589.2,847.9,599.7,841.2,611.3z M872.3,600.5c4.8,0,7.4,2.5,7.4,7.9
	c0,11.6-7.4,22.7-16.7,32c-5.7,5.7-12.2,11-21,15.6c-0.3-2-0.6-4.2-0.6-6.8c0-13.6,5.9-28,13.6-38
	C859.3,606.5,864.7,600.5,872.3,600.5z M209.9,1089.7c-7.5,28-28.5,41.7-57.4,41.7c-34.1,0-60.3-25-60.3-58.6c0-48,40.5-96,82.2-96
	c19.5,0.7,33,15.3,30.4,33.9c-3.8,21.9-22.1,41.7-43.5,41.7c-13.9,0-22.8-11.5-22.8-24.2h9.4c0.2,8.2,5.2,14.8,13.4,14.8
	c17.7,0,32.2-17.7,34.1-33.4c2.6-14.1-8.2-23.3-21-23.3c-39.8,0-72.7,46.4-72.7,86.6c0,29.9,23.8,49.2,50.8,49.2
	c25.2,0,42.1-12.9,48.5-34.8L209.9,1089.7z M304.7,1087.1l8.9,2.6c-1.9,6.4-4,11.5-7.1,16c-4.7,6.6-11.5,10.8-20.2,11.1h-0.2
	c-11.1,0-21-8.7-21-20.7c0-2.1,0.2-4.5,0.9-7.1l7.3-32.7c1.2-7.3-2.6-17.9-12-17.9c-12,0-21,10.8-26.8,21.2
	c-7.1,12-10.8,25.2-12.7,29.9l-5.9,27.3h-9.7l30.8-140.5h9.4l-15.5,71.3c8.2-12.2,19.3-18.6,30.4-18.6c12.5,0,21.9,10.1,21.9,23.1
	c0,2.1-0.2,4.2-0.7,6.4l-7.3,32.7c-0.5,1.9-0.7,3.5-0.7,4.9c0.2,5.9,4.9,11.3,11.5,11.3c4,0,7.5-1.4,10.6-4.5
	C300,1099.6,302.6,1094.4,304.7,1087.1z M397,1086.9l8.9,3.1c-4.5,12-14.8,26.6-29.7,26.6c-10.4,0-15.1-9.2-15.1-19.3
	c0-15.3,6.4-29.9,8.2-45.4c0.2-0.7,0.2-1.4,0.2-2.4c-5.4-0.2-11.1-0.9-17.4-2.8c-5.4-1.6-10.1-3.8-14.4-6.6
	c-1.9,9.7-4.5,21.2-7.1,32.2c-1.9,7.5-4,14.8-6.1,20.5l-8.7-3.3c1.6-4.5,3.3-10.4,4.9-16.7c4-16,6.8-31.8,10.4-48.5h9.4l-0.9,5.6
	c4.5,3.8,9.7,6.1,15.1,7.8c6.4,1.9,12.2,2.4,17.7,2.4c4.5,0,6.8,4.5,6.8,8.5c0,2.6-0.5,4.9-2.8,16.5c-2.6,10.1-5.9,21-5.9,32.2
	c0,3.8,0.5,9.9,5.6,9.9C386.4,1107.1,394.4,1095.6,397,1086.9z M437.3,1002.6c0,3.5-2.4,5.9-5.9,5.9c-3.5,0-5.9-2.4-5.9-5.9
	c0-3.5,2.4-5.9,5.9-5.9C434.9,996.7,437.3,999.1,437.3,1002.6z M448.3,1087.1l8.9,2.6l-2.8,8.7c-2.6,5.9-6.8,11.8-12.7,15.3
	c-3.8,2.1-8,3.1-12.9,3.1c-12.5,0-21.4-7.8-21.4-20.2c0-2.4,0-4.7,13.9-67.6h9.7c-13.9,64.3-14.1,65.9-14.1,67.6
	c0,7.5,4.7,10.8,12,10.8c4.7,0,7.8-1.4,11.3-4c2.6-2.6,4.2-5.9,5.9-9.4L448.3,1087.1z M517.3,1098.9c-2.8,2.6-5.9,4.9-11.3,6.6
	c3.1-4.5,4.7-9.2,4.7-14.1c0-7.8-4-14.1-7.5-20c-3.8-6.4-8.2-12.2-11.8-18.6c-3.5-6.4-5.6-12.7-5.6-19.3c0-1.6,0-2.8,0.2-4.5h-9.7
	l-15.5,55.1h-3.1c0.7,16.5,9.7,30.8,25.9,32.7c2.1,0,4.2,0.2,6.8,0.2c2.8,0,5.2-0.2,7.8-0.5c12-1.2,20-5.4,25.4-10.8
	c5.6-5.4,8-11.3,9.7-16l-8.9-2.6C523.2,1090.9,521.1,1095.1,517.3,1098.9z M484.6,1107.4c-8.7-0.9-13.9-7.8-16.5-15.1l11.8-41.7
	c3.1,9.2,9.7,16.5,14.4,24.2c3.5,4.9,7.1,10.6,7.1,16.5C501.3,1100.1,492.6,1107.4,484.6,1107.4z M575.9,1087.1l8.9,2.6
	c-0.7,2.6-1.4,5.2-3.1,8.7c-4.7,11.1-12.5,18.4-25.7,18.4c-11.5,0-21.2-7.3-21.2-20.2c0-2.4,0.2-4.7,0.7-7.1l14.4-66.6h-15.8v-9.4
	h17.7l8-37.2h9.7l-8,37.2H578v9.4h-18.4l-14.8,68.5v0.2c-0.2,1.6-0.5,3.3-0.5,4.9c0,6.6,4.5,10.8,11.8,10.8
	c8.7,0,13.9-5.2,17.4-13.4L575.9,1087.1z M734.6,1087.1l9.2,2.6c-3.8,12.5-11.8,27.1-27.5,27.1c-11.3,0-21-8.7-21-20.7
	c0-2.1,0.2-4.5,0.7-7.1l7.3-32.7c0.2-1.6,0.7-3.1,0.7-4.2c0-6.8-4.9-13.7-12.7-13.7c-4.7,0-10.6,0.9-14.4,4.7
	c-3.1,2.8-4.9,6.6-6.6,11.1c-0.9,2.8-1.6,5.6-2.4,8.2l-11.8,54.4h-9.7l14.1-66.1c0.7-1.6,0.5-2.4,0.5-3.3c0-6.4-7.1-8.9-12.9-8.9
	c-9.2,0-16,4.9-18.6,14.4l-13.7,64h-9.7l14.1-66.1c0.5-2.4,0.7-4.2,0.7-5.6c0-3.1-0.9-6.1-4.7-7.1c-4.5,0-7.3,4.5-8.2,8.5l-7.5,28.7
	c-1.6,5.6-3.1,11.5-4.5,17.4l-8.9-2.8l2.6-9.7l9.2-35.8c1.9-8.2,8.2-15.8,17.4-15.8c4.9,0,9.2,2.8,12.2,7.3
	c8.2-5.4,14.1-6.8,19.5-6.8c7.5,0,15.3,2.8,20,9.7v-0.2c5.9-6.4,13.7-9.4,23.1-9.4c12.2,0,22.1,10.4,22.1,23.1
	c0,2.1-0.2,4.2-0.9,6.4l-7.3,32.7c-0.7,1.9-0.5,3.3-0.5,4.9c0,6.4,4.9,11.3,11.5,11.3C727,1107.4,731.5,1096.3,734.6,1087.1z
	 M819.3,1107.4c-10.1,0-12.9-7.8-11.3-16l13.4-62.4h-9.7l-1.9,9.4c-4.5-5.9-12-9.2-19.8-9.2c-29,0-43.8,35.8-43.8,59.1
	c0,17.7,12.2,29,29,28.2c10.1-0.2,17.7-4.9,24-12.2c3.8,9.2,11.5,12.5,20.2,12.5c16.5,0,24.7-13.7,28.5-27.1l-8.9-2.6
	C836,1097.2,831.3,1107.4,819.3,1107.4z M799.5,1086.4c-0.2,0.2-2.4,5.6-6.8,11.1c-4.7,5.6-10.6,9.7-17.4,9.7
	c-12.2,0-19.5-6.8-19.5-18.8c0-19.8,11.8-49.7,34.4-49.7c9.2,0,16.2,7.3,16.2,15.8L799.5,1086.4z M915.1,1087.1
	c-1.2,3.8-3.3,8-7.1,11.8c-2.8,2.6-5.9,4.9-11.3,6.6c3.1-4.5,4.7-9.2,4.7-14.1c0-7.8-4-14.1-7.5-20c-3.8-6.4-8.2-12.2-11.8-18.6
	c-3.5-6.4-5.6-12.7-5.6-19.3c0-1.6,0-2.8,0.2-4.5h-9.7l-15.5,55.1h-3.1c0.7,16.5,9.7,30.8,25.9,32.7c2.1,0,4.2,0.2,6.8,0.2
	c2.8,0,5.2-0.2,7.8-0.5c12-1.2,20-5.4,25.4-10.8c5.6-5.4,8-11.3,9.7-16L915.1,1087.1z M875.3,1107.4c-8.7-0.9-13.9-7.8-16.5-15.1
	l11.8-41.7c3.1,9.2,9.7,16.5,14.4,24.2c3.5,4.9,7.1,10.6,7.1,16.5C892,1100.1,883.3,1107.4,875.3,1107.4z M792.4,433.7
	c1.8-9.8,5.3-19,9.2-28.1c4.6-10.4,9.6-20.6,16.2-29.9c3.3-4.6,6.9-8.8,11.9-11.7c3.9-2.3,7.9-2.3,11.7,0c3.6,2.2,3.7,6.1,3.4,9.7
	c-1.1,11.8-7.1,21-15.3,29.1c-2,2-3.9,4-5.9,6c-8.7,8.8-18.5,16.4-26.6,25.8c-0.3,0.4-0.7,0.7-1.2,0.9c-1.1,0.7-2,2.4-3.3,1.6
	C791.2,436.5,792.2,434.9,792.4,433.7z M839.6,411c6.6-2.1,13.1-3,20-2.9c5.1,0.1,8.6,2.9,10.2,7.3c1.5,4.1,0.3,8.2-2.9,11.4
	c-4.4,4.4-9.9,7.2-16,8.4c-15.2,3-30.6,2.3-45.9,3.2c-1,0.1-2,0-2.6-1.1c-0.4-0.9,0-1.5,2.2-3.5C815.2,424.6,825.7,415.3,839.6,411z
	 M788.1,365.8c2.8,3.2,3.8,7.3,4.6,11.3c2.6,14,1.6,27.8-1.8,41.5c-0.3,1.4-0.6,3.3-2.2,3.5c-1.8,0.2-2-1.9-2.5-3.2
	c-3-8-7.2-15.5-9.5-23.8c-1.7-6-2.6-11.9-2.6-18c0-4.1,1.6-7.7,4.1-10.9C780.7,363,785.2,362.9,788.1,365.8z M194.1,433.7
	c1.8-9.8,5.3-19,9.2-28.1c4.6-10.4,9.6-20.6,16.2-29.9c3.3-4.6,6.9-8.8,11.9-11.7c3.9-2.3,7.9-2.3,11.7,0c3.6,2.2,3.7,6.1,3.4,9.7
	c-1.1,11.8-7.1,21-15.3,29.1c-2,2-3.9,4-5.9,6c-8.7,8.8-18.5,16.4-26.6,25.8c-0.3,0.4-0.7,0.7-1.2,0.9c-1.1,0.7-2,2.4-3.3,1.6
	C193,436.5,193.9,434.9,194.1,433.7z M241.3,411c6.6-2.1,13.1-3,20-2.9c5.1,0.1,8.6,2.9,10.2,7.3c1.5,4.1,0.3,8.2-2.9,11.4
	c-4.4,4.4-9.9,7.2-16,8.4c-15.2,3-30.6,2.3-45.9,3.2c-1,0.1-2,0-2.6-1.1c-0.4-0.9,0-1.5,2.2-3.5C216.9,424.6,227.5,415.3,241.3,411z
	 M178.5,395.2c-1.7-6-2.6-11.9-2.6-18c0-4.1,1.6-7.7,4.1-10.9c2.5-3.3,7.1-3.4,9.9-0.5c2.8,3.2,3.8,7.3,4.6,11.3
	c2.6,14,1.6,27.8-1.8,41.5c-0.3,1.4-0.6,3.3-2.2,3.5c-1.8,0.2-2-1.9-2.5-3.2C184.9,411,180.8,403.5,178.5,395.2z M922.7,829.9
	c3.2,10.8-1.1,22.2-9.3,29.6c-13.3,11.9-34.1,10.9-50.7,9.6c-17.1-1.3-34.1-5.8-49.2-13.8c-1.2,0.4-2.5,0.8-3.7,1.1
	c-8.8,2.4-18.2,5.1-27.2,6.3c-6.8,0.9-13.7,1.1-20.6,1.4c-13.7,0.5-28.3-0.6-41.4-4.3c-8.7-2.5-18.4-5.9-25.9-11
	c-2-1.4-4.3-2.9-5.8-4.9c-0.7-1-1.7-5.1,0.6-3.1c-0.1-0.1-0.1-0.1,0,0c6.2,5.3,14.7,8.2,22.4,10.6c9.1,2.9,18.4,5,27.8,6.2
	c18.9,2.4,38.1-0.4,56-6.5c2.3-0.8,4.7-1.7,7.1-2.6c-9.4-6.8-17.8-15.1-28-20.9c-10.8-6.2-19-12-31.5-13.9
	c-12.6-1.9-25.5-1.2-37.6,3.1c-5.1,1.8-9.8,4.3-14.4,7.1c-1.3,0.8-2.7,1.7-4,2.6c-1.3,1-2.8-0.2-1.8-1.7c3.4-4.7,11.2-8.3,16.3-10.8
	c6-2.9,11.8-5.2,18.2-7.1c5.2-1.5,9.7-2.7,15.2-2.4c5.4,0.3,11,0.1,16.3,1c7.9,1.3,15.1,4.2,22.4,7.3c4.8,2.1,9.4,4.1,14,6.5
	c4.9,2.5,9.7,5,14.6,7.5c7.4,3.8,14.5,7.6,21.6,11.1c5.6-3.7,10.7-8.1,14.4-13.4c4.4-6.1,5.7-16.3-1.9-20.9c-4.3-2.6-20.4,1-15.9,8
	c1.5,2.4,6.2,2.2,4.6,6.3c-2.3,5.8-11.3,0.5-12.2-3.8c-1.6-7.8,8.7-15,15.1-16.1c10.3-1.9,17.5,6.4,17.8,16
	c0.3,10.6-3.6,21.2-11.1,28.7c4.4,1.7,8.9,3.3,13.7,4.5c12.6,3.2,25.8,6.3,38.8,5.1c10.2-0.9,23.3-2.5,28.3-12.9
	c7.1-14.6-16.9-22.4-20.1-11.1c-0.6,2.2,1.2,3.8,0.5,5.9c-1.1,3.4-4.8,4.2-6.8,1.1c-2.2-3.3,0.8-8.8,3.1-11.4
	C900.9,814.8,919.1,817.8,922.7,829.9z M253.7,827.7c-10.2,5.8-18.5,14.1-28,20.9c2.4,0.9,4.8,1.8,7.1,2.6c18,6.1,37.1,8.9,56,6.5
	c9.4-1.2,18.8-3.3,27.8-6.2c7.7-2.4,16.2-5.2,22.4-10.6c0.1-0.1,0.1,0,0,0c2.3-2,1.4,2.1,0.6,3.1c-1.5,1.9-3.8,3.5-5.8,4.9
	c-7.5,5.1-17.2,8.5-25.9,11c-13.1,3.7-27.7,4.8-41.4,4.3c-6.9-0.3-13.8-0.5-20.6-1.4c-9-1.2-18.4-3.9-27.2-6.3
	c-1.3-0.4-2.5-0.7-3.7-1.1c-15.2,8-32.2,12.5-49.2,13.8c-16.7,1.3-37.4,2.3-50.7-9.6c-8.2-7.3-12.5-18.7-9.3-29.6
	c3.6-12.1,21.8-15.1,30.1-5.8c2.3,2.6,5.3,8.1,3.1,11.4c-2.1,3.1-5.7,2.3-6.8-1.1c-0.7-2.1,1.1-3.8,0.5-5.9
	c-3.2-11.3-27.2-3.5-20.1,11.1c5,10.3,18.2,11.9,28.3,12.9c12.9,1.2,26.2-2,38.8-5.1c4.8-1.2,9.3-2.8,13.7-4.5
	c-7.6-7.5-11.4-18.1-11.1-28.7c0.3-9.6,7.6-17.9,17.8-16c6.4,1.2,16.7,8.4,15.1,16.1c-0.9,4.3-9.9,9.6-12.2,3.8
	c-1.6-4.1,3-3.9,4.6-6.3c4.5-7-11.6-10.6-15.9-8c-7.6,4.5-6.2,14.7-1.9,20.9c3.8,5.3,8.8,9.7,14.4,13.4c7.2-3.5,14.2-7.3,21.6-11.1
	c4.9-2.5,9.7-5,14.6-7.5c4.6-2.3,9.2-4.4,14-6.5c7.2-3.1,14.5-6,22.4-7.3c5.3-0.9,11-0.7,16.3-1c5.6-0.3,10,0.9,15.2,2.4
	c6.4,1.9,12.2,4.1,18.2,7.1c5.1,2.5,12.9,6.1,16.3,10.8c1.1,1.5-0.4,2.6-1.8,1.7c-1.3-0.9-2.6-1.8-4-2.6c-4.6-2.8-9.3-5.3-14.4-7.1
	c-12-4.3-25-5-37.6-3.1C272.7,815.7,264.5,821.5,253.7,827.7z M473.2,872.7c5.5,0,10.7-0.5,19.1-4.7c6.3,3.6,12.9,4.9,19.4,4.9
	c7.7,0,15-1.9,20.2-6c8.5-6.8,11.8-15.9,14.8-25.4l-10.4-3c-3,8.5-6.3,18.3-15,21.9c-2.5,1.1-5.7,1.6-9.6,1.6
	c-4.1,0-7.4-0.5-10.1-1.6c1.4-1.9,3-3.8,4.4-6c9-14,12.6-33.1,12.6-49.2c0-19.4-10.4-34.5-29.8-34.5c-33.6,0-47.6,41-47.6,66.5
	C441.2,857.1,452.7,872.7,473.2,872.7z M478.4,793.1c2.2-4.7,4.9-8.5,8.5-11.2c0.5-0.3,1.1-0.3,1.9-0.3c14.2,0,18.9,11.8,18.9,23.5
	c0,16.7-4.1,36.4-15.3,49.2c-11.8-11.8-17-28.7-17-44.3C475.4,803.7,476.5,798,478.4,793.1z M467.7,790.3c-2.2,6-3.3,12.6-3.3,19.7
	c0,18.6,6.6,37.2,18.3,50.3c-3,0.8-6.3,1.4-9.6,1.4c-14.5,0-21.1-12-21.1-24.6C452.1,820.7,457.1,801.5,467.7,790.3z M593,874.6
	c11.2,0,21.6-7.1,27.9-17c3.3-5.2,4.9-10.7,6.8-16.4l-10.7-2.5c-1.6,6.6-4.4,12-7.9,16.4c-4.1,4.4-9.3,8.5-14.5,8.5
	c-14.5,0-24.3-14.5-30.1-27.4c19.4-15.9,44.3-40.5,44.3-69.2c0-9.6-5.2-18.6-16.1-18.6c-21.6,0-30.1,25.4-33.9,44l-18.3,94.4
	c-0.3,1.1-1.6,8.2-1.6,17c0,14.2,5.2,31.2,22.7,31.2c15.9,0,21.1-17.8,21.1-32.6c0-8.5-1.4-16.4-6.6-33.6c1.9,1.4,3.8,2.5,5.7,3.3
	C585.6,873.8,589.5,874.6,593,874.6z M569.5,794.7c2.2-10.1,8.2-35.3,23.3-35.3c4.1,0,5.2,3.6,5.2,7.7c0,22.2-18.3,39.7-33.6,55
	L569.5,794.7z M561.6,924.1c-9.8,0-11.8-11.2-11.8-20.2c0-5.2,0-9.8,8.8-52.3c1.9,4.7,3.6,10.4,5.7,15.9c3.6,10.9,7.4,22.2,7.4,35
	C571.7,908.8,571.1,924.1,561.6,924.1z"/>
</svg>
