<?xml version="1.0" encoding="utf-8"?>
<!-- Generator: Adobe Illustrator 22.1.0, SVG Export Plug-In . SVG Version: 6.00 Build 0)  -->
<svg version="1.0" id="Layer_1" xmlns="http://www.w3.org/2000/svg" xmlns:xlink="http://www.w3.org/1999/xlink" x="0px" y="0px"
	 viewBox="0 0 432 432" style="enable-background:new 0 0 432 432;" xml:space="preserve">
<style type="text/css">
	.st0{fill:#24582C;}
	.st1{fill:#DC2127;}
</style>
<path class="st0" d="M167.7,287.2c-1.5,4.9-3.6,8.6-6.2,11.2c-2.6,2.6-6.3,4.4-11.1,5.5c-6.4,1.4-13.4,1.9-21,1.3
	c-7.6-0.6-15.4-1.8-23.4-3.7c-8-1.9-15.7-4.1-23.2-6.7c-7.5-2.6-14.3-5.1-20.4-7.7c3.4-6.1,6.5-12.8,9.3-20.4
	c2.8-7.5,5.4-15.4,8-23.5c2.5-8.1,5.2-16,8-23.8c2.8-7.8,6.1-15.2,9.8-22c3.7-6.9,8-12.8,13-17.9c5-5.1,10.9-8.8,17.7-11.3
	c-2.8-0.2-5.4-0.2-7.9,0c-3,0.1-5.8,0-8.5-0.3c-3.1-0.4-6.2-0.8-9.2-1.3c-4.4-0.8-8.9-1.4-13.7-1.7c-4.8-0.3-10.1,0.2-16,1.5
	c-8.4,2-15.5,5.1-21.4,9.2c-5.8,4.2-10.4,8.8-13.7,14c-3.3,5.2-5.4,10.4-6.2,15.6c-0.8,5.2-0.5,9.8,1.1,13.9c1.6,4.1,4.3,7,8.3,8.8
	c4,1.8,9,1.9,15.2,0.4c3.8-1,7.3-2.8,10.4-5.3c3.2-2.5,5.5-5.5,7-9.1c1.5-3.6,1.8-7.4,0.8-11.6c-0.4-0.9-0.9-1.4-1.5-1.5
	c-0.7-0.1-1.3,0.1-1.8,0.6s-0.8,1.1-0.7,2c0.8,3.4,0.7,6.6-0.4,9.6c-1.1,3-2.9,5.5-5.3,7.6c-2.4,2.1-5.1,3.6-8.2,4.4
	c-4.3,1.1-7.6,0.7-9.8-1.4s-3.5-5.1-3.9-9.2c-0.4-4,0-8.4,1-13.2c1.7-7.3,4.7-13.4,8.8-18.4c4.1-5,9.2-8.7,15.2-11.3
	c6-2.6,12.7-3.9,20.2-4c4.9,0,10.5,0.7,16.9,2.2c0.7,0.1,1.6,0.3,2.7,0.6c0.6,0.2,1.1,0.3,1.7,0.5c-0.4,0.2-0.8,0.3-1.2,0.5
	c-5.8,2.5-10.8,6.1-15.2,10.9c-4.3,4.8-8.1,10.4-11.4,16.7c-3.3,6.4-6.2,13.2-8.9,20.4c-2.6,7.2-5.1,14.6-7.5,22
	c-2.4,7.5-4.9,14.7-7.4,21.6c-2.5,6.9-5.3,13.2-8.4,18.9c-2.6-1-5.7-1.9-9.4-2.6c-3.6-0.7-7.4-1.1-11.2-1.1
	c-3.8-0.1-7.4,0.4-10.8,1.3c-3.3,0.9-6.1,2.4-8.2,4.5c-2.1,2.1-3.2,5-3.3,8.6c0.1,3.3,0.9,6,2.7,8.2c2.3,3,5.1,5.1,8.5,6.4
	c3.4,1.3,7,2,10.8,1.9c3.8,0,7.5-0.6,11.1-1.7c3.6-1.1,6.8-2.7,9.5-4.8c3.2-2.4,6.1-5.4,8.7-8.9c1.9,0.9,3.9,2,6.1,3.1
	c4.8,2.5,10.2,5.1,16.1,7.9c5.9,2.8,12.1,5.4,18.6,7.9c6.5,2.5,12.9,4.4,19.4,5.8c6.5,1.4,12.7,1.9,18.6,1.6c5-0.4,9.6-2,13.8-4.7
	c4.2-2.7,7.9-6.3,11.1-10.7c3.3-4.5,6-9.5,8.4-15.2c0.3-1,0.2-1.7-0.4-2.1C169.2,286.7,168.5,286.8,167.7,287.2z M35.5,298.9
	c-3.4,2.2-6.9,3.2-10.5,3s-6.7-1.1-9.4-2.9c-2.6-1.8-4.1-4.1-4.4-6.9c-0.2-2.8,0.6-4.9,2.4-6.2c1.8-1.3,4.2-2.1,7.2-2.3
	c3-0.2,6.2-0.1,9.5,0.4c3.3,0.5,6.4,1.1,9.2,1.8c2.8,0.7,5,1.4,6.5,2C42.9,292.4,39.4,296.1,35.5,298.9z M198.8,262.5
	c3-4.2,5.6-8.4,7.8-12.6c2.2-4.2,3.8-7.6,4.9-10.4c0.6-1.7,0.8-2.7,0.5-3.1c-0.3-0.4-0.7-0.2-1.2,0.6c-0.9,1.4-2,3-3.2,4.9
	c-2.3,3.6-4.8,7.5-7.5,11.7c-2.7,4.2-5.5,7.8-8.2,10.9c-2.7,3.1-5.2,5-7.4,5.5c-1.4,0.3-2.2-0.5-2.4-2.3c-0.2-1.8,0.3-4.3,1.4-7.5
	l14.6-39.8h-14.5l-2.1,5.6c-1.2-1.8-2.8-3.3-4.7-4.3c-2-1-4.5-1.5-7.7-1.5c-2.9,0-5.5,0.7-7.9,2.2c-2.4,1.4-4.5,3.3-6.4,5.7
	c-1.9,2.4-3.6,5.1-5,8c-1,2.2-2,4.4-2.8,6.7c-0.9,1.2-2,2.5-3.3,3.9c-1.7,1.9-3.6,3.3-5.5,4.3c-2,1-3.9,1.7-5.9,2
	c1-3.1,1.7-6.2,2.2-9.2c0.5-3,0.8-5.7,0.8-8.1c0-2-0.3-3.9-0.8-5.8c-0.6-1.8-1.5-3.5-2.7-4.9c-1.2-1.4-2.8-2.6-4.7-3.4
	c-1.9-0.8-4.2-1.2-6.9-1.2c-2.6,0-5.1,0.6-7.4,1.9c-2.3,1.3-4.5,3-6.5,5.2c-2,2.2-3.7,4.7-5.2,7.5c-1.5,2.8-2.8,5.8-3.8,9
	c-1,3.1-1.7,6.3-2,9.4c-0.4,3.1-0.4,6.1,0,8.9c0.4,2.8,1.1,5.3,2.2,7.5c1.1,2.2,2.7,4,4.7,5.2c2,1.3,4.5,1.9,7.5,1.9
	c2.3,0,4.5-0.5,6.4-1.4c2-0.9,3.8-2.2,5.5-3.8c1.7-1.6,3.2-3.5,4.6-5.6c1.4-2.1,2.6-4.4,3.7-6.8c3.6-0.9,7.1-2.6,10.4-4.9
	c1.7-1.2,3.2-2.5,4.6-4c-0.3,1.2-0.5,2.5-0.7,3.7c-0.5,2.9-0.7,5.5-0.7,7.7c0,3.5,0.5,6.4,1.5,8.6c1,2.3,2.4,3.9,4.1,5
	c1.7,1.1,3.7,1.6,5.8,1.6c1.3,0,2.8-0.6,4.5-1.8c1.7-1.2,3.3-2.7,5-4.7c1.6-1.9,3.2-4.1,4.5-6.4c-0.1,2.9,0.3,5.3,1.3,7.2
	c1,1.9,2.4,3.3,4.2,4.2c2.7,1.4,5.3,1.9,7.8,1.3c2.5-0.6,4.8-1.9,7-3.8C192.7,270.3,195.9,266.7,198.8,262.5z M115.6,264.9
	c-1,1.6-2.1,2.9-3.1,3.8c-1,0.9-2,1.4-3,1.4c-1,0-1.7-0.5-2-1.5c-0.4-1-0.6-2.4-0.5-4.1c0.1-1.7,0.3-3.7,0.7-5.9
	c0.4-2.2,1-4.5,1.8-7c2.2,4,5.2,6.5,9,7.7C117.6,261.4,116.6,263.3,115.6,264.9z M125.5,234.8c-0.3,2.4-0.8,5-1.5,7.9
	c-0.7,2.9-1.5,5.8-2.5,8.8c-2.8-1.3-4.9-3.1-6.3-5.3c-1.4-2.2-1.8-4.5-1.1-7c1.1-2.3,2.2-4.4,3.3-6.2c1.1-1.8,2.2-3.3,3.3-4.4
	c1.1-1.1,2.1-1.7,3.1-1.7c0.9,0,1.4,0.7,1.7,2.2C125.8,230.5,125.8,232.5,125.5,234.8z M177.5,236.4c-0.4,1.6-1.3,4.3-2.8,8.3
	c-1,2.2-2.1,4.4-3.4,6.7c-1.3,2.3-2.6,4.6-4,6.7c-1.4,2.1-2.7,4-4.1,5.6c-1.3,1.6-2.5,2.8-3.6,3.5c-1.1,0.7-2,0.9-2.6,0.5
	c-0.7-0.4-1-1.6-1-3.5c0-2.9,0.6-6.4,1.8-10.6c1.2-4.2,2.7-8.4,4.6-12.4c1.9-4.1,3.9-7.5,6-10.2c2.1-2.7,4.1-4.1,6-4.1
	c0.7,0,1.3,0.4,2,1.1c0.7,0.7,1.1,1.9,1.3,3.5S177.9,234.8,177.5,236.4z M279.6,216.2c0-1.7,0.7-3.2,2.1-4.5
	c1.4-1.2,3.1-1.9,5.2-1.9c2,0,3.7,0.6,5.1,1.9c1.4,1.2,2.1,2.7,2.1,4.5c0,1.7-0.7,3.2-2.1,4.5c-1.4,1.2-3.1,1.9-5.1,1.9
	c-2.1,0-3.8-0.6-5.2-1.9C280.3,219.4,279.6,218,279.6,216.2z M424.9,236.4c-0.3-0.4-0.7-0.2-1.3,0.6c-0.9,1.4-2,3-3.2,4.9
	c-2.5,4.2-5.3,8.5-8.5,13.2c-2.2,3.1-5.1,6.3-8.9,9.7c-3.8,3.4-7.6,6.1-11.3,8.4l19.4-52.6H411h-14.2h-0.2l-2.2,5.6
	c-1.2-1.8-2.8-3.3-4.7-4.3c-2-1-4.5-1.5-7.7-1.5c-2.9,0-5.5,0.7-7.9,2.2c-2.4,1.4-4.5,3.3-6.4,5.7c-1.9,2.4-3.6,5.1-5,8
	c-1.4,2.8-2.5,5.7-3.4,8.7c-1.7,2.7-3.6,5.6-5.6,8.6c-2.7,4.2-5.5,7.8-8.2,10.9c-2.7,3.1-5.2,5-7.4,5.5c-1.4,0.3-2.2-0.5-2.4-2.3
	c-0.2-1.8,0.3-4.3,1.4-7.5l3.3-9.1c0.3-0.7,0.5-1.4,0.8-2.2c0.6-1.6,1.3-3.5,2-5.5c0.7-2,1.3-4.1,1.8-6.2s0.8-4.2,0.8-6.2
	s-0.2-3.8-0.9-5.4c-0.6-1.6-1.8-2.9-3.4-3.8c-1.6-0.9-3.9-1.4-6.8-1.4c-1,0-2.2,0.2-3.7,0.7c-1.5,0.5-3.1,1.3-5,2.5
	c-1.8,1.2-3.7,2.9-5.6,5c-1.9,2.2-3.8,4.9-5.6,8.2l6.1-16.4h-14.5l-11.7,31.9c-1,1.4-2.1,2.8-3.3,4.3c-2.8,3.6-5.5,6.8-8.3,9.5
	c-2.7,2.7-5.2,4.3-7.3,4.8c-1.5,0.2-2.3-0.4-2.4-2c-0.1-1.5,0.3-3.7,1.3-6.5l14.6-34.5h-14.4L261.9,259c-0.1,0.3-0.2,0.6-0.3,0.9
	c-0.6,0.6-1.2,1.2-1.9,1.8c-2.8,2.7-5.5,5.1-8.3,7.2c-2.7,2.1-5.2,3.3-7.4,3.6c-1.5,0.2-2.3-0.3-2.4-1.5c-0.1-1.2,0.3-2.8,1.3-4.9
	l27.2-48.4h-14.5l-14.5,25.9c-1.2-1.2-2.8-2.1-4.8-2.8c-2-0.7-4.5-1-7.6-1c-2.9,0-5.6,0.5-8,1.4c-2.4,0.9-4.5,2.2-6.4,3.8
	c-1.9,1.6-3.6,3.3-5,5.2c-1.4,1.9-2.6,3.9-3.5,6c-0.9,2-1.6,4-2.1,5.9c-0.5,1.9-0.7,3.6-0.7,5c0,2.3,0.5,4.2,1.5,5.7
	c1,1.5,2.4,2.6,4.1,3.3c1.7,0.7,3.7,1.1,5.8,1.1c1.3,0,2.8-0.4,4.5-1.2c1.6-0.8,3.3-1.8,4.9-3.1c1.6-1.3,3.2-2.7,4.5-4.2
	c-0.1,1.9,0.4,3.4,1.4,4.7c1,1.2,2.4,2.2,4.2,2.8c2.7,0.9,5.3,1.2,7.8,0.8c2.5-0.4,4.8-1.2,7.1-2.5c3.4-1.9,6.6-4.3,9.5-7
	c0.6-0.6,1.2-1.1,1.8-1.7c-0.1,1.5,0,2.9,0.4,4.1c0.9,2.8,2.6,4.8,5.2,6c2.8,1.2,5.4,1.6,7.9,1.1c2.5-0.5,4.8-1.6,7-3.3
	c3.4-2.5,6.6-5.6,9.6-9.3c0-0.1,0.1-0.1,0.1-0.2l-4.8,12.9h14.4c0.9-1.7,2.1-4.5,3.8-8.3c1.6-3.8,3.5-8,5.7-12.7
	c2.2-4.7,4.5-9.2,6.9-13.5c2.4-4.3,4.9-7.8,7.3-10.5c2.4-2.7,4.8-4,7-4c0.3,0.1,0.5,0.1,0.8,0.3s0.5,0.3,0.7,0.7
	c0.4,1.3,0.3,3-0.3,5.1c-0.6,2.1-1.1,3.8-1.7,5.2c-0.1,0.1-0.1,0.2-0.1,0.2l-6.2,16.5c-1.6,5.2-2,9.4-1.2,12.7
	c0.9,3.3,2.6,5.6,5.2,6.9c2.7,1.4,5.3,1.9,7.8,1.3c2.5-0.6,4.8-1.9,7-3.8c3.4-2.9,6.6-6.5,9.5-10.7c1.6-2.3,3-4.5,4.4-6.7
	c-0.3,2.3-0.5,4.4-0.5,6.2c0,3.5,0.5,6.4,1.5,8.6c1,2.3,2.4,3.9,4.1,5c1.7,1.1,3.7,1.6,5.8,1.6c1.6,0,3.4-0.8,5.4-2.4
	c2-1.6,4-3.7,5.9-6.2l-0.1,0.2l-3.9,10.6c-3.3,1.5-6.6,3.2-9.7,5.1c-3.1,1.9-5.7,4.2-7.9,7c-2.2,2.7-3.6,6.1-4.3,10.1
	c-0.6,4.1,0,7.8,1.8,11c1.8,3.2,4.8,5.3,8.9,6.3c2.8,0.7,5.6,0,8.4-1.9c2.8-1.9,5.2-5.4,7.3-10.4l9.5-25.6c2.5-1.1,5-2.5,7.5-4.2
	c2.5-1.7,4.4-3.1,5.7-4.2c3.4-2.9,6.6-6.5,9.5-10.6c3-4.1,5.6-8.2,7.8-12.3s3.8-7.4,4.9-10.2C425,237.8,425.2,236.8,424.9,236.4z
	 M237.2,250.3c-0.4,0.9-0.6,1.5-0.7,1.7l-2.2,3.8c-1,1.4-2.1,2.9-3.3,4.4c-1.3,1.5-2.6,3-4,4.4c-1.4,1.4-2.8,2.6-4.1,3.7
	c-1.3,1.1-2.5,1.8-3.6,2.3c-1.1,0.5-1.9,0.6-2.6,0.4c-0.6-0.3-1-1-1-2.3c0-1.9,0.6-4.2,1.8-7c1.2-2.8,2.7-5.5,4.6-8.2
	c1.8-2.7,3.8-4.9,5.9-6.7c2.1-1.8,4.1-2.7,6-2.7c0.7,0,1.3,0.2,2,0.7c0.7,0.5,1.1,1.3,1.3,2.3C237.7,248.4,237.6,249.4,237.2,250.3z
	 M367,301.2c-2.2,5.2-4.1,7.4-5.8,6.6c-0.2-0.1-0.5-0.4-0.9-0.8c-0.4-0.4-0.7-1.1-1-2c-0.3-0.9-0.3-2-0.1-3.5
	c0.4-2.3,1.3-4.2,2.7-5.9c1.4-1.6,2.9-3,4.7-4.2c1.8-1.2,3.4-2.1,5-2.9L367,301.2z M390.5,236.2c-0.4,1.4-0.6,2.3-0.7,2.6l-2.2,5.8
	c-1,2.2-2.1,4.4-3.4,6.7c-1.3,2.3-2.6,4.6-4,6.7c-1.4,2.1-2.7,4-4.1,5.6c-1.3,1.6-2.5,2.8-3.6,3.5c-1.1,0.7-1.9,0.9-2.6,0.5
	c-0.6-0.4-1-1.6-1-3.5c0-2.9,0.6-6.4,1.8-10.6c1.2-4.2,2.7-8.4,4.6-12.4s3.9-7.5,6-10.2c2.1-2.7,4.1-4.1,6-4.1c0.7,0,1.3,0.4,2,1.1
	c0.7,0.7,1.1,1.9,1.3,3.5C390.9,233.2,390.8,234.8,390.5,236.2z M182.3,297.4h97.2v14.8h-97.2V297.4z"/>
<path class="st1" d="M261.3,161c0.2-1,0.3-1.9,0.3-2.8c0-0.8-0.2-1.4-0.5-1.7l0.2-0.2c0-0.4,0.7-0.9,2-1.3c1.3-0.5,2.7-0.7,4-0.7
	c1,0,2,0.2,2.8,0.6c0.8,0.4,1.1,1.2,0.9,2.4c-0.1,0.6-0.5,1.6-1.3,2.8c-0.7,1.2-1.6,2.4-2.5,3.7c-0.9,1.3-1.9,2.4-2.8,3.5
	c-0.9,1.1-1.7,1.9-2.2,2.3c-0.4,0.3-0.9,0.6-1.4,0.9c-0.5,0.3-1,0.3-1.3,0.2c-0.4-0.1-0.6-0.4-0.6-0.9c-0.1-0.5,0.2-1.4,0.9-2.7
	c0.3-0.8,0.6-1.8,0.9-2.9C260.9,163,261.1,162,261.3,161z M416.9,178.2c0,0.7-0.3,1.7-1,2.8c-0.7,1.2-1.7,2.3-2.9,3.5
	c-1.3,1.2-2.8,2.2-4.7,3.2c-1.8,0.9-4,1.6-6.5,1.9l-0.2,0.3c0,2.6-0.4,5.2-1.1,7.6c-0.7,2.4-1.8,4.4-3.2,6.1c-1.4,1.6-3.1,2.8-5,3.5
	c-2,0.7-4.2,0.6-6.6-0.2c-2.9-0.9-4.4-3.3-4.3-6.9l-0.6,0.8c-0.5,0.6-0.8,0.8-1.1,0.6c-1.2,1.2-2.5,2.2-3.7,3.1
	c-2.6,1.8-5.2,2.6-7.8,2.3c-1.5-0.1-2.6-0.5-3.3-1.3c-0.7-0.7-1.3-1.5-1.6-2.3s-0.5-1.5-0.5-2c0-0.6-0.1-0.8-0.2-0.7
	c-0.8,1.4-2.1,2.8-3.8,4.2c-1.7,1.4-3.4,2.1-5.2,2.1c-1.5,0-2.8-0.4-3.9-1.1c-1.2-0.7-2-2-2.5-3.8c-0.2-0.8-0.3-1.7-0.4-2.7
	c-1.1,1.5-2.3,2.9-3.6,4.2c-2.1,2.2-4.2,3.3-6.3,3.4c-0.6,0-1.3-0.1-2-0.2s-1.3-0.5-1.8-1c-0.5-0.5-0.9-1.3-1.2-2.4
	c-0.3-1.1-0.2-2.5,0.1-4.3c0.3-2.1,1-4.5,2-7.2c1-2.7,1.9-5.1,2.8-7.3c0.8-2.2,1.3-3.7,1.5-4.7c0.2-0.9-0.4-0.8-1.7,0.5
	c-1.1,1.1-2.4,2.9-4,5.5c-1.6,2.6-3.2,5.3-4.6,8.1c-1.4,2.8-2.6,5.4-3.5,7.7c-0.9,2.4-1.2,3.8-0.8,4.2c0.2,0.3-0.1,0.6-0.9,0.8
	c-0.8,0.2-1.8,0.3-2.8,0.2c-1.1-0.1-2-0.3-2.8-0.7c-0.8-0.4-1-1.2-0.7-2.2l6.6-21.9c0.5-1.7,0.7-2.8,0.6-3.4
	c-0.2-0.6-0.4-0.8-0.9-0.7c-0.4,0.1-0.9,0.4-1.4,0.8c-0.5,0.4-0.9,0.7-1.3,0.9c-1.6,1.5-3.2,3.6-4.8,6.3c-1.6,2.7-3.1,5.5-4.3,8.2
	c-1.3,2.7-2.2,5.2-2.8,7.5c-0.6,2.3-0.7,3.6-0.3,4c0.2,0.3-0.1,0.6-1,0.8c-0.9,0.2-1.9,0.3-3,0.3c-1.1,0-2.1-0.2-3-0.6
	c-0.9-0.4-1.2-1.2-0.9-2.2l1.3-4.6c-0.5,0.6-1,1.2-1.5,1.8c-1.7,1.9-3.4,3.4-5.2,4.6c-1.8,1.2-3.5,1.6-5.2,1.4
	c-1.7-0.2-3-0.7-3.9-1.4c-0.9-0.7-1.3-1.9-1.3-3.6c0-0.9,0.2-2.2,0.7-3.9c0.5-1.6,1.1-3.5,1.8-5.6c0.5-1.5,1.1-3,1.7-4.7
	c-0.1,0-0.1,0.1-0.2,0.1c-1.8,0.9-4,1.6-6.5,1.9l-0.2,0.3c0,2.6-0.4,5.2-1.1,7.6c-0.7,2.4-1.8,4.4-3.2,6.1c-1.4,1.6-3,2.8-5,3.5
	c-2,0.7-4.2,0.6-6.6-0.2c-2.8-0.9-4.3-3.1-4.2-6.6c-0.8,0.9-1.6,1.8-2.4,2.7c-1.9,1.9-3.9,3-5.9,3.5c-0.7,0.2-1.6,0.3-2.6,0.3
	c-1,0-1.9-0.2-2.7-0.6c-0.8-0.4-1.4-1.2-1.8-2.3c-0.2-0.5-0.3-1.1-0.3-1.8c-1.5,1.6-3,2.9-4.6,3.8c-1.7,0.9-3.4,1.2-5.2,0.8
	c-2.8-0.6-4.3-2.4-4.3-5.4c0-2.2,0.3-4.6,0.9-7.3c0.6-2.6,1.4-5,2.2-7.1l2.7-5.7c0.2-0.6,0.3-0.9,0.2-0.9c-0.1,0-0.2,0.1-0.6,0.3
	c-0.5,0.5-1.1,1.1-1.8,1.6c-0.7,0.5-1.4,1-2.2,1.3c-0.7,0.3-1.3,0.5-2,0.6c-0.6,1.1-1.3,2.4-2.1,3.9c-1.5,2.7-3.3,5.5-5.3,8.3
	c-2,2.8-4.1,5.2-6.4,7.3c-2.3,2-4.5,3.1-6.7,3.2c-0.6,0-1.4-0.1-2.4-0.4c-0.9-0.3-1.8-0.8-2.5-1.5c-0.7-0.7-1.3-1.7-1.7-2.8
	c-0.4-1.2-0.3-2.6,0.2-4.3c0.8-2.9,1.8-5.8,2.8-8.6c1-2.8,2.2-5.5,3.5-8.1c0.9-2.1,1.2-3.1,0.7-3.1c-0.5,0.1-1.3,0.6-2.4,1.5
	c-1.6,1.4-3.2,3-4.9,4.9c-1.7,1.9-3.3,3.9-4.7,6.1c-1.5,2.2-2.8,4.5-3.9,6.8c-1.1,2.3-1.9,4.5-2.3,6.6c0.2,0.3,0.4,0.6,0.7,0.9
	c0.3,0.3,0.4,0.6,0.4,0.8c-0.2,0.6-0.8,0.9-1.9,0.9c-0.4,0-1-0.1-1.7-0.3c-0.7-0.2-1.3-0.6-1.9-1c-0.6-0.5-1-1.1-1.3-2
	c-0.3-0.8-0.2-1.9,0.1-3.2c0.2-0.6,0.5-1.5,1-2.9c-0.6,0.7-1.2,1.5-1.8,2.2c-3.9,4.6-8,8.4-12.3,11.6c-4.3,3.2-8.5,5.5-12.8,6.9
	c-4.3,1.5-8.5,1.8-12.5,1.1c-5-0.9-8.6-3-10.7-6.1c-2.1-3.1-3.2-6.7-3.4-10.9c-0.2-4.2,0.4-8.5,1.6-12.9c1.2-4.5,2.7-8.5,4.3-12.1
	c3-6.3,6.6-12.2,10.8-17.8c4.2-5.6,8.5-10.4,13.2-14.5c4.6-4.1,9.3-7.3,14.1-9.5c4.8-2.3,9.4-3.3,13.8-3.2c2.5,0.1,4.5,0.6,6.1,1.5
	c1.5,0.9,2.7,2.1,3.5,3.6c0.8,1.5,1.2,3.2,1.3,5.1c0.1,1.9-0.1,3.8-0.6,5.8c-0.6,3.1-1.7,6.6-3.3,10.3c-1.6,3.7-3.5,7.2-5.9,10.4
	c-2.4,3.2-5,5.8-8,7.9c-3,2-6.2,3-9.5,2.9c-2.4-0.1-4-1.5-4.9-4.3c-0.8-2.8-0.9-6-0.2-9.5c0.1-0.4,0.4-1.2,0.9-2.3
	c0.5-1.1,1-1.7,1.5-1.7c0.5,0,0.8,0.3,0.9,1c0.1,0.7,0.1,1.3-0.2,2c-0.8,3.9-0.9,6.7-0.1,8.4c0.8,1.7,1.9,2.6,3.2,2.6
	c2,0,4.1-0.8,6.4-2.5c2.3-1.7,4.4-3.8,6.5-6.3c2-2.5,3.8-5.3,5.4-8.4c1.5-3.1,2.6-6,3.2-8.7c0.6-3.7,0.6-6.9-0.2-9.5
	c-0.8-2.6-2.7-4-5.8-4c-3.2,0-6.5,1.2-10.2,3.5c-3.6,2.3-7.3,5.4-11.1,9.1c-3.8,3.8-7.5,8.1-11,13.1c-3.6,4.9-6.8,10.1-9.8,15.4
	c-1.4,2.5-2.7,5.8-4.1,9.9c-1.4,4-2.3,8.1-2.7,12.1c-0.4,4-0.1,7.5,0.9,10.6c1,3,3.2,4.9,6.7,5.5c3,0.5,6.4,0.1,10.1-1.2
	c3.7-1.3,7.4-3.5,11.3-6.5c3.8-3,7.6-6.7,11.4-11.2c3.1-3.7,6.1-7.9,8.9-12.6c1.2-3.4,2.6-7.4,4.2-11.9c1.8-4.7,3.5-9.3,5-13.8
	c1.6-4.5,2.8-7.6,3.7-9.4c0.9-1.8,2.5-2.6,4.8-2.5v-0.2c2.5,0,4.2,0.7,5,2c0.8,1.3,1.2,3,1.2,5c0,3.2-0.6,6.5-1.9,10
	c-1.3,3.5-3.4,6.8-6.3,9.9l-4.3,4.4c-0.8,1.6-1.7,3.2-2.5,4.9c0.9-1.3,2-2.4,3.2-3.4c1.2-1,2.3-2,3.5-3.1c0.9-0.8,2.2-1.6,3.7-2.4
	c1.5-0.7,3-1.1,4.3-1.2c1.4-0.1,2.5,0.3,3.4,0.9c0.9,0.7,1.2,2,0.9,4c-0.2,0.8-0.7,2.1-1.4,3.7c-0.7,1.6-1.6,3.5-2.5,5.6
	c-0.6,1.4-1.2,2.8-1.8,4.3c-0.6,1.5-1.2,2.9-1.7,4.3c-0.6,1.4-1.1,2.6-1.4,3.7c-0.4,1.1-0.6,2-0.7,2.8c0,0.9,0.2,1.4,0.5,1.4
	c1.3,0,2.8-0.9,4.5-2.6c1.7-1.7,3.5-3.8,5.4-6.3c1.8-2.5,3.6-5.1,5.2-8c0.5-0.9,1-1.8,1.4-2.6c0,0-0.1,0-0.1-0.1
	c-0.6-0.5-1.1-1.2-1.3-2c-0.3-0.8-0.4-1.7-0.3-2.7s0.2-1.9,0.5-2.8c0.3-0.9,0.6-1.7,0.9-2.3c0.6-1.2,1.4-1.9,2.4-2.3
	c0.9-0.4,1.8-0.4,2.7-0.2c0.8,0.2,1.5,0.6,2.1,1.3c0.6,0.6,0.8,1.4,0.7,2.4c-0.1,0.9-0.4,1.8-0.8,2.7c-0.4,0.8-0.8,1.7-1.1,2.5
	c-0.1,0.2-0.2,0.4-0.3,0.7c-0.1,0.3,0,0.3,0.3,0.1l6.8-6.6c0.8-0.8,1.9-1.4,3.1-1.6c1.2-0.2,2.2-0.1,3.1,0.5
	c0.8,0.6,1.5,1.5,1.9,2.7c0.4,1.2,0.2,2.3-0.6,3.5c-0.8,1.2-1.9,3-3.3,5.5c-1.4,2.5-2.6,5.1-3.8,7.7c-1.2,2.6-2,5-2.4,7.1
	c-0.5,2.1-0.2,3.3,0.7,3.5c0.7-0.1,1.8-0.8,3.1-2.1c1.3-1.3,2.8-3.1,4.3-5.3c0.1-0.1,0.2-0.3,0.3-0.4c0.2-0.7,0.5-1.4,0.7-2.2
	c0.9-2.6,1.8-5.2,2.8-7.8c0.9-2.6,1.8-5,2.7-7.2c0.8-2.2,1.4-3.4,1.6-3.9c0.5-0.8,1.4-1.4,2.6-1.6c1.2-0.2,2.4-0.3,3.5-0.2
	c1.2,0.1,2.1,0.3,2.8,0.7c0.7,0.4,0.9,0.8,0.5,1.2c-0.6,0.6-1.5,2.1-2.5,4.3c-1.1,2.3-2.1,4.7-3.2,7.3c-1.1,2.6-2,5.1-2.9,7.6
	c-0.9,2.5-1.5,4.3-1.8,5.4c-0.6,2.2-0.8,3.6-0.6,4.1c0.2,0.5,0.6,0.6,1.3,0.3c0.6-0.3,1.4-0.9,2.2-1.7c0.8-0.8,1.5-1.6,2-2.2
	c0.8-1,1.7-2.2,2.7-3.6c0.3-0.5,0.5-0.9,0.8-1.4c1.1-1.7,2-3.5,3-5.3l7.1-13.9c0.4-1.9,1.3-3.6,2.5-5.2c1.3-1.6,3.2-2.6,5.8-3.2
	c2-0.4,3.8-0.1,5.4,1.1c1.6,1.2,2.2,2.5,1.7,3.9c-0.4,1.2-0.9,1.9-1.3,2.2c-0.5,0.3-0.7-0.3-0.7-1.7c0-1.2-0.3-1.8-0.9-2
	c-0.6-0.2-1.3,0.2-1.9,1c-0.5,0.8-0.9,2.2-1.3,4.1c-0.3,1.9-0.4,3.9-0.3,6c0.1,0.8,0.2,1.8,0.2,3c0,1.2-0.1,2-0.2,2.5
	c1.9-0.2,3.6-0.7,5.1-1.3c1.3-0.6,2.5-1.2,3.5-2c0.7-1.8,1.4-3.7,2.1-5.5c1.6-4.2,2.9-7.7,4.1-10.6c1.2-2.9,2-5,2.5-6.2
	c-2.7,0-5.4,0.1-7.9,0.3c-2.1,0.2-4.3,0.5-6.6,0.9c-2.3,0.4-4.3,0.9-5.8,1.5c-0.5,0.3-0.9,0.4-1,0.2c-0.2-0.2-0.2-0.5-0.2-0.9
	c0.1-0.4,0.2-0.7,0.4-1.1c0.2-0.4,0.4-0.6,0.5-0.6c1.3-0.7,2.9-1.3,4.8-1.7c1.9-0.4,3.9-0.6,5.9-0.7c2-0.1,3.9-0.2,5.8-0.2
	s3.5-0.1,4.7-0.2l1.4-4.3c-0.6-0.1-1.2-0.4-1.6-0.9c-0.4-0.5-0.7-1.1-0.9-1.7c-0.2-0.6-0.2-1.3,0-2c0.2-0.7,0.5-1.3,1-1.8
	c0.7-0.7,1.6-1.3,2.7-1.6c1-0.3,2-0.5,2.8-0.5c1.8,0,3.1,0.5,3.9,1.6c0.8,1.1,1.3,2.3,1.3,3.8c0,0.8-0.1,1.8-0.2,2.9
	c-0.2,1.1-0.6,2.4-1.3,3.9c2.2,0,5.1-0.1,8.8-0.2c3.6-0.1,7.5-0.2,11.6-0.3c4.1-0.1,8.2-0.1,12.4-0.1c4.2,0.1,7.9,0.2,11.3,0.6
	c3.4,0.3,6.1,0.8,8.2,1.3c2.1,0.6,3.2,1.4,3.2,2.4c0,0.9-0.2,1.7-0.5,2.4c-0.3,0.6-0.8,1-1.4,1.1c-0.2,0-0.3-0.1-0.2-0.2
	c0.1-0.2,0.1-0.4,0.2-0.7c0.1-0.3,0-0.7-0.1-1c-0.1-0.4-0.4-0.8-0.8-1.3c-0.6-0.6-2.2-1.1-4.8-1.3c-2.6-0.3-5.7-0.4-9.3-0.6
	c-3.6-0.1-7.5-0.1-11.7-0.1c-4.2,0.1-8.2,0.1-12,0.2c-3.8,0.1-7.1,0.2-10,0.3c-2.9,0.1-4.9,0.2-5.9,0.2c-0.9,2.5-2.1,5.4-3.4,8.7
	c-1.3,3.3-2.7,6.6-4,10c-1.4,3.4-2.7,6.7-4,9.9c-1.3,3.2-2.4,6-3.4,8.3c-0.7,1.9-1.1,3.2-1,4c0.1,0.8,0.4,1.2,0.9,1.1
	c0.6-0.1,1.3-0.4,2.3-1.2c0.9-0.7,1.9-1.7,2.8-2.8c2.1-2.6,4.3-5.8,6.7-9.6l4.4-15c0.3-0.9,1-1.6,2-1.9c1-0.3,2.1-0.4,3.2-0.4
	c1.1,0.1,2,0.3,2.8,0.6c0.7,0.4,0.9,0.9,0.5,1.5c-0.5,0.7-1,1.6-1.4,2.6c-0.4,1-0.8,2-1.3,3c-0.4,1-0.8,2-1.2,2.9
	c-0.4,0.9-0.7,1.7-1,2.4c0.5-0.9,1.2-2,2-3.1c0.8-1.1,1.7-2.2,2.6-3.2c0.9-1,1.8-2,2.7-2.9c0.9-0.9,1.7-1.5,2.3-2
	c0.9-0.6,2.1-1.1,3.4-1.5c1.3-0.4,2.5-0.4,3.5-0.1c1,0.3,1.8,1.1,2.4,2.3c0.5,1.2,0.4,3.1-0.3,5.6c-0.3,1.5-0.7,2.7-1,3.6
	c-0.4,0.9-0.7,1.7-0.9,2.2c0.6-0.8,1.4-1.9,2.4-3.3c0.9-1.4,2-2.7,3.2-4.1c1.2-1.4,2.3-2.6,3.5-3.7c1.2-1.1,2.3-1.9,3.3-2.3
	c0.7-0.3,1.5-0.4,2.3-0.4c0.8,0.1,1.5,0.2,2.3,0.6c0.7,0.3,1.3,0.8,1.7,1.6c0.4,0.7,0.6,1.6,0.5,2.7c-0.2,0.5-0.6,1.7-1.3,3.4
	c-0.6,1.7-1.4,3.7-2.2,5.8c-0.7,1.8-1.5,3.6-2.4,5.5c-0.8,1.9-1.6,3.6-2.2,5.2c-0.6,1.6-1.1,2.9-1.3,4c-0.2,1.1-0.1,1.7,0.5,1.8
	c0.7,0.2,1.8-0.5,3.2-2.2c1.4-1.7,3-3.8,4.7-6.2c0.1-0.2,0.3-0.4,0.4-0.6c0.1-0.3,0.1-0.6,0.2-0.9c0.8-3.5,2.3-6.9,4.3-10.1
	c2-3.2,4.5-5.8,7.6-7.9c3-2,6.5-2.8,10.2-2.3c1.3,0.2,2.5,0.4,3.7,0.7c1.2,0.3,2.3,0.8,3.2,1.7c1.2,1.1,1.9,2,2.3,2.8
	c0.4,0.8,0.4,1.4,0.2,1.7c1.5,0.3,1.9,1.1,1.3,2.4l-3.2,6.6c-0.8,1.7-1.6,3.3-2.4,5c-0.7,1.6-1.4,3.1-2,4.4c-0.6,1.3-1,2.4-1.2,3.2
	c-0.2,0.8-0.2,1.4,0.2,1.6c0.8,0.6,2.1,0.2,3.8-1.3c1.7-1.5,3.5-3.6,5.5-6.1c1.3-1.7,2.6-3.4,3.8-5.3c0.1-0.3,0.3-0.5,0.4-0.8
	l7.1-13.9c0.4-1.9,1.3-3.6,2.5-5.2c1.3-1.6,3.2-2.6,5.8-3.2c2-0.4,3.8-0.1,5.4,1.1c1.6,1.2,2.2,2.5,1.7,3.9
	c-0.4,1.2-0.9,1.9-1.3,2.2c-0.5,0.3-0.7-0.3-0.7-1.7c0-1.2-0.3-1.8-0.9-2s-1.3,0.2-1.9,1c-0.5,0.8-0.9,2.2-1.3,4.1
	c-0.3,1.9-0.4,3.9-0.3,6c0.1,0.8,0.2,1.8,0.2,3c0,1.2-0.1,2-0.2,2.5c1.9-0.2,3.6-0.7,5.1-1.3c1.5-0.7,2.8-1.4,3.9-2.3
	c1.1-0.8,2-1.7,2.7-2.7c0.7-0.9,1.1-1.8,1.3-2.5c0.2-0.7,0.5-1.4,0.8-2c0.3-0.6,0.6-0.9,0.9-1c0.3-0.1,0.5,0.1,0.6,0.6
	C417,176.1,417,177,416.9,178.2z M301.2,153.2l0.3-0.8c0.6-2.3,0.7-3.4,0.3-3.3c-0.8,0-1.3,0.5-1.3,1.4
	C300.4,151.4,300.7,152.3,301.2,153.2z M205.1,173.5c2.1-1.5,4-3.7,5.7-6.7c1.7-3,3-7.5,3.9-13.5c-0.3-0.9-0.6-1.8-0.9-2.5v0.5
	L205.1,173.5z M273.2,191.3c-2.6,0.2-4.8,1.2-6.5,2.9c-1.7,1.7-2.6,3.5-2.8,5.3c-0.2,1.5,0.1,2.7,0.9,3.7c0.8,1,2.2,1.4,4.3,1.2
	c1-0.1,1.8-0.7,2.4-1.9c0.5-1.2,0.9-2.5,1.2-3.9c0.3-1.5,0.4-2.9,0.5-4.3C273.1,192.8,273.2,191.8,273.2,191.3z M273.3,188.2
	c0-0.4-0.1-1-0.3-1.9c-0.2-0.6-0.4-1.4-0.6-2.2c-0.1-0.7-0.2-1.4-0.3-2.1l-0.5,1.1c-0.8,1.6-1.9,3.6-3.2,6c-0.2,0.4-0.4,0.8-0.6,1.1
	c0.6-0.3,1.3-0.7,2.1-1C271,188.8,272.2,188.5,273.3,188.2z M373.1,179.6c1.4-0.4,2.7-0.5,4.1-0.4c-0.8-0.7-1.8-1.6-2.9-2.6
	c-1.1-1-2.7-1.4-4.8-1.2c-1.7,0.2-3.3,1-4.9,2.4c-1.6,1.4-3,3.2-4.3,5.2c-1.3,2-2.4,4.3-3.4,6.6c-0.9,2.4-1.7,4.5-2.1,6.5
	c-0.5,2-0.7,3.7-0.6,5c0.1,1.3,0.6,2,1.6,2.1c0.9,0.1,2.3-0.9,4.1-3c1.8-2.1,3.5-4.5,5.3-7.2c1.7-2.7,3.2-5.3,4.4-7.8
	c1.2-2.5,1.8-4.1,1.7-4.7C371.1,180.3,371.7,179.9,373.1,179.6z M393.3,191.3c-2.6,0.2-4.8,1.2-6.5,2.9c-1.7,1.7-2.6,3.5-2.8,5.3
	c-0.2,1.5,0.1,2.7,0.9,3.7c0.8,1,2.2,1.4,4.3,1.2c1-0.1,1.8-0.7,2.4-1.9c0.5-1.2,0.9-2.5,1.2-3.9c0.3-1.5,0.4-2.9,0.5-4.3
	C393.2,192.8,393.3,191.8,393.3,191.3z M393.4,188.2c0-0.4-0.1-1-0.3-1.9c-0.2-0.6-0.4-1.4-0.6-2.2c0-0.2-0.1-0.5-0.1-0.7
	c-0.9,1.5-1.9,3.2-3,4.9c-0.3,0.5-0.7,1.1-1,1.6c0.5-0.2,1-0.5,1.6-0.7C391.1,188.8,392.3,188.5,393.4,188.2z M181.2,296.3H346v16.9
	H181.2V296.3z M183.3,311.1h160.6v-12.7H183.3V311.1z M297.5,113.9c0,0-0.4-0.3-0.9-0.6c-0.8-0.5-1-0.6-1.1-0.8
	c-0.1-0.2-0.2-0.3-0.2-0.6s0-0.4,0.2-0.6c0.3-0.5,0.9-0.7,1.4-0.4c0.1,0,0.5,0.3,0.8,0.5s0.6,0.4,0.6,0.3c0,0,0-0.4,0-0.9
	c-0.1-1,0-1.2,0.2-1.5c0.4-0.5,1.1-0.5,1.6-0.2c0.3,0.2,0.4,0.4,0.5,2c0.1,1.9,0.1,2,0.3,2c0.2,0.1,3.1,1.8,3.1,1.8c0,0,0-0.5,0-1.2
	c0-1.3,0-1.4,0.3-1.7c0.5-0.6,1.7-0.4,1.9,0.4c0,0.1,0.1,1,0.1,2c0,1,0.1,1.8,0.1,1.8c0,0,0.5,0.4,1.1,0.7c0.6,0.3,1.6,0.9,2.3,1.4
	l1.3,0.8l0.3-0.2c0.3-0.2,0.9-0.5,1.3-0.6c0.3-0.1,0.3-0.1,0.3-0.3c0-0.1,0-0.9,0-1.8l0-1.6l-0.2-0.1c-0.6-0.3-2.9-1.7-3-1.9
	c-0.3-0.4-0.4-0.8-0.2-1.2c0.2-0.5,0.8-0.7,1.2-0.6c0.1,0,0.6,0.3,1.2,0.6c0.5,0.3,1,0.6,1,0.6c0,0,0-0.7,0-1.7v-1.6l-0.2-0.2
	c-0.1-0.1-0.4-0.3-0.6-0.4c-0.2-0.1-0.5-0.4-0.8-0.6s-0.7-0.5-1-0.7c-0.3-0.2-0.5-0.4-0.6-0.4c-0.6-0.6-0.4-1.5,0.3-1.8
	c0.2-0.1,0.6-0.1,0.8,0c0.2,0.1,1.4,0.9,1.8,1.2c0.1,0.1,0.2,0.2,0.3,0.1c0,0,0-0.9,0-1.9c0-1.3,0-1.9,0.1-2
	c0.1-0.2,0.4-0.5,0.6-0.6c0.2-0.1,0.5-0.1,0.8-0.1c0.3,0.1,0.7,0.5,0.7,0.8c0,0.2,0.1,0.9,0.1,2c0,1.4,0,1.8,0.1,1.8
	c0,0,0.5-0.3,1-0.6c1.3-0.8,1.4-0.8,1.7-0.8c0.6,0,1.1,0.5,1.1,1.1c0,0.3-0.1,0.6-0.3,0.8c-0.1,0.1-0.9,0.6-1.9,1.2l-1.7,1.1l0,0.3
	c0,0.4,0,2.9,0,2.9c0,0,0.4-0.2,0.8-0.5c0.9-0.6,1-0.6,1.3-0.6c0.8,0,1.3,0.8,1,1.6c-0.1,0.3-0.2,0.4-1.5,1.2
	c-1.6,1-1.6,1.1-1.6,1.2c0,0,0,0.9,0,1.9l0,1.8l0.4,0.1c0.5,0.1,0.9,0.3,1.3,0.6c0.2,0.2,0.3,0.2,0.4,0.1c0.1,0,0.7-0.4,1.4-0.8
	s1.8-1.1,2.5-1.5l1.3-0.7l0-0.2c0-0.3,0.3-3.2,0.4-3.8c0.1-0.5,0.6-0.8,1.1-0.8c0.3,0,0.5,0,0.7,0.3c0.2,0.2,0.4,0.5,0.4,0.8
	c0,0.1-0.1,0.6-0.1,1.1c-0.1,0.5-0.1,1-0.1,1.1l0,0.1l1.4-0.8l1.4-0.8l0-0.3c0-0.5,0.4-3.2,0.4-3.5c0.3-0.9,1.5-1,2-0.2
	c0.2,0.3,0.2,0.5,0.1,1.4c-0.1,0.4-0.1,0.8-0.1,1l0,0.2l0.2-0.1c0.1-0.1,0.6-0.3,1-0.6c0.7-0.4,0.8-0.4,1.1-0.5c0.3,0,0.4,0,0.6,0.1
	c0.7,0.3,0.8,1.2,0.2,1.8c-0.1,0.1-0.4,0.3-0.8,0.5c-0.4,0.2-0.7,0.4-0.7,0.4c0,0,0.1,0.1,0.7,0.4c0.9,0.3,0.9,0.4,1.1,0.7
	c0.5,0.7,0,1.7-0.9,1.7c-0.2,0-0.5-0.1-1.2-0.3c-1.1-0.4-2.2-0.8-2.3-0.8c-0.1,0-0.6,0.3-2.5,1.4l-0.4,0.3l0.2,0.1
	c0.9,0.5,2.1,1.3,2.2,1.4c0.5,0.4,0.4,1.3-0.2,1.7c-0.3,0.2-0.6,0.2-0.9,0.2c-0.1,0-0.5-0.2-0.9-0.5c-1.6-1-2.6-1.5-2.8-1.5
	c0,0-0.5,0.2-1,0.5c-0.5,0.3-1.2,0.7-1.5,0.9c-0.3,0.2-1,0.6-1.6,0.9l-1.1,0.6l0.1,0.3c0.2,0.7,0.3,1.5,0.2,2.2c0,0.3,0,0.4,0,0.4
	c0,0,0.9,0.5,1.8,1.1c0.9,0.6,1.8,1,1.8,1.1c0.1,0,0.5-0.2,1.9-0.9c1.7-0.8,1.9-0.9,2.1-0.9c0.3,0,0.6,0.1,0.9,0.4
	c0.4,0.4,0.4,1,0,1.4c-0.2,0.2-0.4,0.3-1.3,0.8l-1.2,0.6l1,0.6c0.6,0.3,1.1,0.6,1.1,0.6c0,0,0.1,0,0.2-0.1c0.2-0.1,1.5-0.6,2-0.7
	c0.2-0.1,0.8-0.2,1.2-0.3l0.8-0.2l0.3,0.1c0.9,0.3,1.1,1.3,0.4,1.9c-0.2,0.2-0.6,0.3-1.6,0.5c-0.3,0.1-0.7,0.2-0.7,0.2
	c0,0,0.3,0.3,0.8,0.5c0.5,0.3,0.9,0.6,1,0.6c0.6,0.5,0.3,1.6-0.5,1.8c-0.4,0.1-0.6,0.1-1.4-0.4c-0.3-0.2-0.6-0.4-0.6-0.3
	c0,0,0,0.4,0.1,0.9l0.1,0.9l-0.1,0.3c-0.2,0.4-0.5,0.6-0.9,0.6c-0.1,0-0.4,0-0.5,0c-0.2-0.1-0.6-0.4-0.7-0.6c-0.1-0.2-0.4-2-0.5-3.2
	l0-0.3l-1-0.6c-0.5-0.3-1-0.6-1-0.5c0,0,0,0.4,0.1,0.9c0.1,1,0.2,1.3,0,1.5c-0.1,0.2-0.4,0.5-0.6,0.6c-0.3,0.1-0.7,0.1-0.9,0
	c-0.3-0.1-0.5-0.4-0.6-0.7c0-0.1-0.1-0.7-0.2-1.3c-0.2-1.3-0.4-2.4-0.4-2.4c0-0.1-3.9-2.3-3.9-2.3c0,0-0.2,0.2-0.4,0.4
	c-0.5,0.7-1.3,1.2-2.2,1.5l-0.3,0.1l0,2.3l0,2.3l0.5,0.2c0.3,0.1,0.7,0.4,0.9,0.5c0.2,0.1,0.8,0.5,1.2,0.8c0.8,0.5,1.1,0.8,1.2,1.1
	c0.3,0.7-0.2,1.5-1,1.5c-0.4,0-0.1,0.1-2.5-1.4l-0.3-0.2l0,1.8c0,1.6,0,1.8,0.1,1.9c1,0.6,2.6,1.7,3.2,2.3c0.5,0.4,0.6,1,0.2,1.5
	c-0.2,0.3-0.5,0.5-0.9,0.5c-0.4,0-0.4,0-1.7-1l-0.9-0.7l0,0.9c0,1,0,1.1-0.4,1.4c-0.4,0.4-1,0.4-1.4,0c-0.3-0.3-0.4-0.5-0.4-1.4
	c0-0.5,0-0.8,0-0.8c0,0-0.5,0.3-1,0.6c-1.3,0.8-1.3,0.9-1.8,0.8c-0.8-0.2-1.1-1.1-0.6-1.7c0.1-0.1,0.7-0.6,1.5-1.1
	c0.8-0.5,1.5-1,1.7-1.1l0.3-0.2V137c0-1.3,0-1.6-0.1-1.5c0,0-0.4,0.3-0.9,0.5c-1.1,0.7-1.3,0.8-1.7,0.8c-0.4,0-0.8-0.2-1-0.5
	c-0.1-0.2-0.2-0.3-0.2-0.6c0-0.3,0-0.4,0.2-0.6c0.2-0.2,0.4-0.4,0.7-0.5c0.1,0,0.5-0.3,0.9-0.5c0.4-0.3,1-0.7,1.4-0.9l0.6-0.4l0-2.4
	l0-2.4l-0.3-0.1c-0.5-0.1-1.2-0.4-1.7-0.6c-0.4-0.2-0.6-0.3-0.9-0.7c-0.3-0.3-0.5-0.4-0.5-0.4c-0.1,0-3.6,2.1-3.7,2.2
	c-0.1,0.1-0.2,1.2-0.3,2.1c-0.1,1.5-0.1,1.8-0.3,2.1c-0.3,0.5-1,0.7-1.5,0.4c-0.2-0.1-0.3-0.2-0.4-0.4l-0.1-0.3l0.1-1.1
	c0-0.6,0.1-1.2,0-1.2c0,0-0.1,0-0.3,0.1c-0.1,0.1-0.6,0.4-1,0.6c-0.4,0.2-0.7,0.4-0.7,0.4c0,0-0.5,3.2-0.6,3.6
	c0,0.1-0.1,0.3-0.2,0.4c-0.5,0.7-1.6,0.5-1.9-0.3c-0.1-0.3-0.1-0.4,0.1-1.4c0.1-0.4,0.1-0.8,0.1-0.8c0,0-0.3,0.1-0.6,0.3l-0.6,0.4
	h-0.4c-0.4,0-0.4,0-0.6-0.2c-0.6-0.4-0.6-1.3-0.1-1.7c0.1-0.1,0.4-0.3,0.8-0.5c0.3-0.2,0.6-0.4,0.6-0.4c0,0-0.4-0.2-0.9-0.4
	c-1.1-0.4-1.3-0.5-1.5-0.9s-0.2-0.6,0-1c0.2-0.4,0.5-0.6,0.9-0.6c0.3,0,0.4,0,3.3,1.2l0.6,0.2l1.1-0.6c0.6-0.3,1.1-0.6,1.1-0.7
	c0.1,0-0.2-0.2-1-0.6c-0.9-0.5-1.1-0.6-1.2-0.8c-0.3-0.4-0.2-1,0.1-1.3c0.2-0.3,0.6-0.4,0.9-0.3c0.3,0,0.4,0.1,1.4,0.6
	c0.6,0.3,1.3,0.7,1.6,0.9l0.5,0.3l1.7-1c0.9-0.6,1.9-1.1,2-1.2c0.3-0.2,0.3-0.2,0.2-0.4c-0.1-0.5,0.2-1.8,0.5-2.5l0.2-0.4l-0.1-0.1
	c-0.1-0.1-0.7-0.4-3.3-2l-1-0.6l-0.8,0.3c-0.4,0.2-1.2,0.5-1.7,0.7c-1,0.4-1.2,0.4-1.6,0.3c-0.4-0.2-0.6-0.5-0.6-1
	c0-0.3,0.1-0.6,0.3-0.8c0.1-0.1,0.5-0.3,1-0.5c0.5-0.2,0.9-0.4,0.9-0.4c0,0-2.4-1.5-2.6-1.5c-0.1,0-0.9,0.3-1.9,0.7
	c-1,0.4-1.8,0.7-2,0.7c-0.3,0-0.6-0.1-0.8-0.3c-0.5-0.4-0.5-1.2,0-1.6c0.1-0.1,0.8-0.4,1.8-0.8C297.3,114,297.5,113.9,297.5,113.9z
	 M310.9,123.3c0,1,0.3,1.6,1,2.1c0.5,0.4,0.8,0.5,1.5,0.5c0.7,0,1.3-0.1,1.6-0.2c0.4-0.2,1.1-0.9,1.3-1.3c0.2-0.5,0.3-0.7,0.3-1.4
	c0-0.6,0-0.7-0.1-1c-0.3-0.7-0.5-1.1-1.1-1.4c-0.4-0.3-0.7-0.4-1.3-0.5c-0.2,0-0.4,0-0.4,0c0,0-0.2,0-0.3,0c-0.4,0-0.8,0.2-1.1,0.4
	c-0.4,0.3-0.9,0.8-1.2,1.3C311,122.3,310.9,122.6,310.9,123.3z M351.5,133.5c0.2,0,0.4-0.1,0.3-0.1c0,0-0.4-0.2-0.8-0.4
	c-0.7-0.3-0.9-0.4-1-0.6c-0.1-0.1-0.1-0.2-0.1-0.4c0-0.2,0-0.3,0.1-0.4c0.2-0.3,0.8-0.5,1.2-0.3c0.1,0,0.4,0.2,0.7,0.3
	c0.3,0.1,0.6,0.3,0.6,0.2s0-0.3,0-0.6c-0.1-0.7,0-0.9,0.2-1.1c0.4-0.3,1-0.4,1.4-0.1c0.3,0.2,0.3,0.3,0.4,1.4
	c0.1,1.4,0.1,1.4,0.3,1.5c0.2,0.1,2.8,1.3,2.8,1.3c0,0,0-0.4,0-0.8c0-0.9,0-1,0.3-1.2c0.5-0.4,1.5-0.3,1.7,0.3
	c0,0.1,0.1,0.7,0.1,1.4c0,0.7,0.1,1.3,0.1,1.3c0,0,0.4,0.3,1,0.5c0.5,0.2,1.5,0.7,2.1,1l1.1,0.5l0.3-0.1c0.3-0.2,0.8-0.4,1.2-0.4
	c0.3-0.1,0.3-0.1,0.3-0.2c0-0.1,0-0.7,0-1.3l0-1.2l-0.2-0.1c-0.5-0.2-2.6-1.2-2.7-1.4c-0.3-0.3-0.3-0.6-0.2-0.9
	c0.2-0.3,0.7-0.5,1.1-0.4c0.1,0,0.6,0.2,1.1,0.5c0.5,0.2,0.9,0.4,0.9,0.4s0-0.5,0-1.2v-1.2l-0.2-0.2c-0.1-0.1-0.3-0.2-0.5-0.3
	c-0.2-0.1-0.5-0.3-0.7-0.4c-0.2-0.1-0.6-0.4-0.9-0.5c-0.2-0.1-0.5-0.3-0.5-0.3c-0.5-0.4-0.4-1.1,0.3-1.3c0.2-0.1,0.5-0.1,0.7,0
	c0.2,0.1,1.3,0.7,1.6,0.9c0.1,0.1,0.2,0.1,0.2,0.1c0,0,0-0.6,0-1.4c0-0.9,0-1.4,0.1-1.4c0.1-0.2,0.3-0.3,0.5-0.4
	c0.2-0.1,0.4-0.1,0.7,0c0.3,0.1,0.6,0.3,0.7,0.6c0,0.1,0.1,0.6,0.1,1.5c0,1,0,1.3,0.1,1.3c0,0,0.5-0.2,0.9-0.5
	c1.2-0.6,1.2-0.6,1.5-0.6c0.6,0,1,0.3,1,0.8c0,0.2-0.1,0.4-0.3,0.6c-0.1,0-0.8,0.4-1.7,0.8l-1.6,0.8l0,0.2c0,0.3,0,2.1,0,2.1
	c0,0,0.3-0.2,0.7-0.4c0.8-0.4,0.9-0.4,1.1-0.4c0.7,0,1.2,0.6,0.9,1.1c-0.1,0.2-0.2,0.3-1.4,0.9c-1.4,0.7-1.4,0.8-1.5,0.8
	c0,0,0,0.7,0,1.4l0,1.3l0.4,0.1c0.5,0.1,0.8,0.2,1.1,0.4c0.2,0.1,0.2,0.1,0.3,0.1c0.1,0,0.6-0.3,1.3-0.6c0.6-0.3,1.6-0.8,2.3-1.1
	l1.1-0.5l0-0.1c0-0.2,0.3-2.3,0.4-2.7c0.1-0.3,0.5-0.6,1-0.6c0.3,0,0.4,0,0.6,0.2c0.2,0.1,0.3,0.4,0.3,0.6c0,0.1-0.1,0.4-0.1,0.8
	c-0.1,0.4-0.1,0.7-0.1,0.8l0,0.1l1.2-0.6l1.2-0.6l0-0.2c0-0.4,0.3-2.3,0.4-2.5c0.3-0.6,1.4-0.7,1.8-0.1c0.2,0.2,0.2,0.4,0.1,1
	c-0.1,0.3-0.1,0.6-0.1,0.7l0,0.1l0.2-0.1c0.1-0.1,0.5-0.2,0.9-0.4c0.6-0.3,0.7-0.3,1-0.3c0.2,0,0.3,0,0.5,0.1
	c0.6,0.2,0.7,0.9,0.2,1.3c-0.1,0.1-0.4,0.2-0.7,0.4c-0.3,0.1-0.6,0.3-0.6,0.3c0,0,0.1,0.1,0.6,0.3c0.8,0.2,0.8,0.3,1,0.5
	c0.4,0.5,0,1.2-0.8,1.2c-0.2,0-0.4,0-1-0.2c-1-0.3-1.9-0.6-2.1-0.6c-0.1,0-0.5,0.2-2.2,1l-0.4,0.2l0.2,0.1c0.8,0.4,1.9,0.9,2,1
	c0.5,0.3,0.4,1-0.1,1.2c-0.3,0.1-0.6,0.2-0.8,0.1c-0.1,0-0.5-0.2-0.8-0.3c-1.5-0.7-2.4-1.1-2.5-1.1c0,0-0.5,0.2-0.9,0.4
	c-0.5,0.2-1.1,0.5-1.3,0.6c-0.3,0.1-0.9,0.4-1.4,0.7l-1,0.4l0.1,0.2c0.2,0.5,0.3,1.1,0.2,1.6c0,0.2,0,0.3,0,0.3c0,0,0.8,0.4,1.6,0.8
	c0.8,0.4,1.6,0.7,1.6,0.8c0.1,0,0.5-0.1,1.7-0.6c1.5-0.6,1.7-0.7,1.9-0.7c0.3,0,0.6,0.1,0.8,0.3c0.3,0.3,0.3,0.7,0,1
	c-0.1,0.1-0.4,0.2-1.2,0.6l-1,0.4l0.9,0.4c0.5,0.2,1,0.4,1,0.5c0,0,0.1,0,0.2,0c0.2-0.1,1.3-0.4,1.8-0.5c0.2,0,0.7-0.1,1.1-0.2
	l0.7-0.1l0.2,0.1c0.8,0.2,1,0.9,0.4,1.4c-0.2,0.1-0.5,0.2-1.4,0.4c-0.3,0-0.6,0.1-0.6,0.1s0.3,0.2,0.7,0.4c0.4,0.2,0.8,0.4,0.9,0.5
	c0.5,0.4,0.3,1.2-0.4,1.3c-0.4,0.1-0.6,0-1.3-0.3c-0.3-0.1-0.5-0.3-0.5-0.2c0,0,0,0.3,0.1,0.6l0.1,0.6l-0.1,0.2
	c-0.2,0.3-0.4,0.4-0.8,0.4c-0.1,0-0.3,0-0.4,0c-0.2-0.1-0.5-0.3-0.6-0.4c-0.1-0.1-0.3-1.5-0.4-2.3l0-0.2l-0.9-0.4
	c-0.5-0.2-0.9-0.4-0.9-0.4c0,0,0,0.3,0.1,0.7c0.1,0.8,0.1,0.9,0,1.1c-0.1,0.2-0.3,0.4-0.5,0.4c-0.2,0.1-0.6,0.1-0.8,0
	c-0.2-0.1-0.5-0.3-0.5-0.5c0-0.1-0.1-0.5-0.2-1c-0.2-0.9-0.3-1.7-0.4-1.8c0,0-3.5-1.7-3.5-1.7c0,0-0.2,0.1-0.3,0.3
	c-0.5,0.5-1.2,0.9-2,1.1l-0.3,0.1l0,1.6l0,1.6l0.4,0.2c0.2,0.1,0.6,0.3,0.8,0.4c0.2,0.1,0.7,0.4,1.1,0.6c0.8,0.4,1,0.5,1.1,0.8
	c0.3,0.5-0.2,1.1-0.9,1.1c-0.3,0-0.1,0.1-2.2-1l-0.2-0.1l0,1.3c0,1.2,0,1.3,0.1,1.3c0.9,0.4,2.3,1.3,2.9,1.6
	c0.4,0.3,0.5,0.7,0.2,1.1c-0.2,0.2-0.5,0.4-0.8,0.3c-0.3,0-0.4,0-1.5-0.7l-0.8-0.5l0,0.6c0,0.7,0,0.8-0.4,1c-0.4,0.3-0.9,0.3-1.3,0
	c-0.3-0.2-0.3-0.3-0.3-1c0-0.4,0-0.6,0-0.6c0,0-0.4,0.2-0.9,0.4c-1.1,0.6-1.2,0.6-1.6,0.6c-0.7-0.1-1-0.8-0.6-1.2
	c0.1-0.1,0.7-0.4,1.4-0.8c0.7-0.4,1.4-0.7,1.5-0.8l0.2-0.1V150c0-0.9,0-1.1-0.1-1.1c0,0-0.4,0.2-0.8,0.4c-0.9,0.5-1.2,0.6-1.5,0.6
	c-0.4,0-0.7-0.1-0.9-0.4c-0.1-0.2-0.1-0.2-0.1-0.4c0-0.2,0-0.3,0.1-0.4c0.2-0.2,0.4-0.3,0.6-0.4c0.1,0,0.5-0.2,0.8-0.4
	c0.4-0.2,0.9-0.5,1.2-0.6l0.6-0.3l0-1.8l0-1.8l-0.2,0c-0.4-0.1-1.1-0.3-1.5-0.4c-0.3-0.1-0.5-0.2-0.8-0.5c-0.2-0.2-0.4-0.3-0.5-0.3
	c-0.1,0-3.3,1.5-3.3,1.6c-0.1,0-0.2,0.9-0.2,1.5c-0.1,1.1-0.1,1.3-0.2,1.5c-0.3,0.4-0.9,0.5-1.4,0.3c-0.2-0.1-0.3-0.2-0.4-0.3
	l-0.1-0.2l0.1-0.8c0-0.4,0.1-0.8,0-0.8s-0.1,0-0.3,0.1c-0.1,0.1-0.5,0.3-0.9,0.4c-0.4,0.2-0.7,0.3-0.7,0.3c0,0-0.5,2.3-0.6,2.6
	c0,0.1-0.1,0.2-0.2,0.3c-0.5,0.5-1.5,0.4-1.7-0.2c-0.1-0.2-0.1-0.3,0.1-1c0.1-0.3,0.1-0.6,0.1-0.6c0,0-0.3,0.1-0.5,0.2l-0.5,0.3
	h-0.4c-0.3,0-0.4,0-0.6-0.1c-0.5-0.3-0.6-0.9-0.1-1.2c0.1,0,0.4-0.2,0.7-0.4c0.3-0.1,0.5-0.3,0.5-0.3c0,0-0.4-0.1-0.8-0.3
	c-1-0.3-1.2-0.4-1.3-0.6c-0.2-0.3-0.2-0.4,0-0.7c0.2-0.3,0.4-0.4,0.8-0.4c0.3,0,0.4,0,3,0.8l0.6,0.2l1-0.4c0.5-0.2,1-0.5,1-0.5
	c0.1,0-0.2-0.1-0.9-0.5c-0.8-0.4-1-0.4-1.1-0.6c-0.3-0.3-0.2-0.7,0.1-1c0.2-0.2,0.5-0.3,0.8-0.2c0.2,0,0.4,0.1,1.3,0.5
	c0.5,0.2,1.2,0.5,1.5,0.6l0.5,0.2l1.5-0.7c0.8-0.4,1.7-0.8,1.8-0.8c0.2-0.1,0.2-0.1,0.2-0.3c-0.1-0.4,0.2-1.3,0.5-1.8l0.2-0.3
	l-0.1,0c-0.1,0-0.6-0.3-3-1.4l-0.9-0.4l-0.7,0.2c-0.4,0.1-1.1,0.3-1.5,0.5c-0.9,0.3-1.1,0.3-1.4,0.2c-0.4-0.1-0.6-0.4-0.6-0.7
	c0-0.2,0.1-0.4,0.3-0.6c0.1-0.1,0.4-0.2,0.9-0.3c0.4-0.1,0.8-0.3,0.8-0.3c0,0-2.2-1.1-2.3-1.1c-0.1,0-0.8,0.2-1.7,0.5
	c-0.9,0.3-1.7,0.5-1.8,0.5c-0.3,0-0.5,0-0.7-0.2c-0.4-0.3-0.5-0.9,0-1.2C350,133.9,350.6,133.7,351.5,133.5z M363.9,140.1
	c0,0.7,0.3,1.1,0.9,1.5c0.5,0.3,0.8,0.4,1.4,0.4c0.6,0,1.1,0,1.5-0.2c0.3-0.1,1-0.7,1.2-0.9c0.2-0.3,0.3-0.5,0.3-1
	c0-0.5,0-0.5-0.1-0.7c-0.2-0.5-0.5-0.8-0.9-1c-0.4-0.2-0.7-0.3-1.1-0.4c-0.2,0-0.4,0-0.4,0c0,0-0.1,0-0.3,0c-0.3,0-0.7,0.1-1,0.3
	c-0.4,0.2-0.8,0.6-1.1,0.9C364,139.4,363.9,139.6,363.9,140.1z M135.4,164.3c-0.2,0.2-0.5,0.4-0.8,0.3c-0.3,0-0.4,0-1.5-0.7
	l-0.8-0.5l0,0.6c0,0.7,0,0.8-0.4,1c-0.4,0.3-0.9,0.3-1.3,0c-0.3-0.2-0.3-0.3-0.3-1c0-0.4,0-0.6,0-0.6c0,0-0.4,0.2-0.9,0.4
	c-1.1,0.6-1.2,0.6-1.6,0.6c-0.7-0.1-1-0.8-0.6-1.2c0.1-0.1,0.7-0.4,1.4-0.8c0.7-0.4,1.4-0.7,1.5-0.8l0.2-0.1v-1.1
	c0-0.9,0-1.1-0.1-1.1c0,0-0.4,0.2-0.8,0.4c-0.9,0.5-1.2,0.6-1.5,0.6c-0.4,0-0.7-0.1-0.9-0.4c-0.1-0.2-0.1-0.2-0.1-0.4
	c0-0.2,0-0.3,0.1-0.4c0.2-0.2,0.4-0.3,0.6-0.4c0.1,0,0.5-0.2,0.8-0.4c0.4-0.2,0.9-0.5,1.2-0.6l0.6-0.3l0-1.8l0-1.8l-0.2,0
	c-0.4-0.1-1.1-0.3-1.5-0.4c-0.3-0.1-0.5-0.2-0.8-0.5c-0.2-0.2-0.4-0.3-0.5-0.3c-0.1,0-3.3,1.5-3.3,1.6c-0.1,0-0.2,0.9-0.2,1.5
	c-0.1,1.1-0.1,1.3-0.2,1.5c-0.3,0.4-0.9,0.5-1.4,0.3c-0.2-0.1-0.3-0.2-0.4-0.3l-0.1-0.2l0.1-0.8c0-0.4,0.1-0.8,0-0.8s-0.1,0-0.3,0.1
	c-0.1,0.1-0.5,0.3-0.9,0.4c-0.4,0.2-0.7,0.3-0.7,0.3c0,0-0.5,2.3-0.6,2.6c0,0.1-0.1,0.2-0.2,0.3c-0.5,0.5-1.5,0.4-1.7-0.2
	c-0.1-0.2-0.1-0.3,0.1-1c0.1-0.3,0.1-0.6,0.1-0.6c0,0-0.3,0.1-0.5,0.2l-0.5,0.3h-0.4c-0.3,0-0.4,0-0.6-0.1c-0.5-0.3-0.6-0.9-0.1-1.2
	c0.1,0,0.4-0.2,0.7-0.4c0.3-0.1,0.5-0.3,0.5-0.3c0,0-0.4-0.1-0.8-0.3c-1-0.3-1.2-0.4-1.3-0.6s-0.2-0.4,0-0.7
	c0.2-0.3,0.4-0.4,0.8-0.4c0.3,0,0.4,0,3,0.8l0.6,0.2l1-0.4c0.5-0.2,1-0.5,1-0.5c0.1,0-0.2-0.1-0.9-0.5c-0.8-0.4-1-0.4-1.1-0.6
	c-0.3-0.3-0.2-0.7,0.1-1c0.2-0.2,0.5-0.3,0.8-0.2c0.2,0,0.4,0.1,1.3,0.5c0.5,0.2,1.2,0.5,1.5,0.6l0.5,0.2l1.5-0.7
	c0.8-0.4,1.7-0.8,1.8-0.8c0.2-0.1,0.2-0.1,0.2-0.3c-0.1-0.4,0.2-1.3,0.5-1.8l0.2-0.3l-0.1,0c-0.1,0-0.6-0.3-3-1.4l-0.9-0.4l-0.7,0.2
	c-0.4,0.1-1.1,0.3-1.5,0.5c-0.9,0.3-1.1,0.3-1.4,0.2c-0.4-0.1-0.6-0.4-0.6-0.7c0-0.2,0.1-0.4,0.3-0.6c0.1-0.1,0.4-0.2,0.9-0.3
	c0.4-0.1,0.8-0.3,0.8-0.3c0,0-2.2-1.1-2.3-1.1c-0.1,0-0.8,0.2-1.7,0.5c-0.9,0.3-1.7,0.5-1.8,0.5c-0.3,0-0.5,0-0.7-0.2
	c-0.4-0.3-0.5-0.9,0-1.2c0.1-0.1,0.7-0.3,1.6-0.6c0.2,0,0.4-0.1,0.3-0.1c0,0-0.4-0.2-0.8-0.4c-0.7-0.3-0.9-0.4-1-0.6
	c-0.1-0.1-0.1-0.2-0.1-0.4c0-0.2,0-0.3,0.1-0.4c0.2-0.3,0.8-0.5,1.2-0.3c0.1,0,0.4,0.2,0.7,0.3c0.3,0.1,0.6,0.3,0.6,0.2s0-0.3,0-0.6
	c-0.1-0.7,0-0.9,0.2-1.1c0.4-0.3,1-0.4,1.4-0.1c0.3,0.2,0.3,0.3,0.4,1.4c0.1,1.4,0.1,1.4,0.3,1.5c0.2,0.1,2.8,1.3,2.8,1.3
	c0,0,0-0.4,0-0.8c0-0.9,0-1,0.3-1.2c0.5-0.4,1.5-0.3,1.7,0.3c0,0.1,0.1,0.7,0.1,1.4c0,0.7,0.1,1.3,0.1,1.3c0,0,0.4,0.3,1,0.5
	c0.5,0.2,1.5,0.7,2.1,1l1.1,0.5l0.3-0.1c0.3-0.2,0.8-0.4,1.2-0.4c0.3-0.1,0.3-0.1,0.3-0.2c0-0.1,0-0.7,0-1.3l0-1.2l-0.2-0.1
	c-0.5-0.2-2.6-1.2-2.7-1.4c-0.3-0.3-0.3-0.6-0.2-0.9c0.2-0.3,0.7-0.5,1.1-0.4c0.1,0,0.6,0.2,1.1,0.5c0.5,0.2,0.9,0.4,0.9,0.4
	c0,0,0-0.5,0-1.2v-1.2l-0.2-0.2c-0.1-0.1-0.3-0.2-0.5-0.3c-0.2-0.1-0.5-0.3-0.7-0.4c-0.2-0.1-0.6-0.4-0.9-0.5
	c-0.2-0.1-0.5-0.3-0.5-0.3c-0.5-0.4-0.4-1.1,0.3-1.3c0.2-0.1,0.5-0.1,0.7,0c0.2,0.1,1.3,0.7,1.6,0.9c0.1,0.1,0.2,0.1,0.2,0.1
	c0,0,0-0.6,0-1.4c0-0.9,0-1.4,0.1-1.4c0.1-0.2,0.3-0.3,0.5-0.4c0.2-0.1,0.4-0.1,0.7,0c0.3,0.1,0.6,0.3,0.7,0.6
	c0,0.1,0.1,0.6,0.1,1.5c0,1,0,1.3,0.1,1.3c0,0,0.5-0.2,0.9-0.5c1.2-0.6,1.2-0.6,1.5-0.6c0.6,0,1,0.3,1,0.8c0,0.2-0.1,0.4-0.3,0.6
	c-0.1,0-0.8,0.4-1.7,0.8l-1.6,0.8l0,0.2c0,0.3,0,2.1,0,2.1c0,0,0.3-0.2,0.7-0.4c0.8-0.4,0.9-0.4,1.1-0.4c0.7,0,1.2,0.6,0.9,1.1
	c-0.1,0.2-0.2,0.3-1.4,0.9c-1.4,0.7-1.4,0.8-1.5,0.8c0,0,0,0.7,0,1.4l0,1.3l0.4,0.1c0.5,0.1,0.8,0.2,1.1,0.4
	c0.2,0.1,0.2,0.1,0.3,0.1c0.1,0,0.6-0.3,1.3-0.6s1.6-0.8,2.3-1.1l1.1-0.5l0-0.1c0-0.2,0.3-2.3,0.4-2.7c0.1-0.3,0.5-0.6,1-0.6
	c0.3,0,0.4,0,0.6,0.2c0.2,0.1,0.3,0.4,0.3,0.6c0,0.1-0.1,0.4-0.1,0.8c-0.1,0.4-0.1,0.7-0.1,0.8l0,0.1l1.2-0.6l1.2-0.6l0-0.2
	c0-0.4,0.3-2.3,0.4-2.5c0.3-0.6,1.4-0.7,1.8-0.1c0.2,0.2,0.2,0.4,0.1,1c-0.1,0.3-0.1,0.6-0.1,0.7l0,0.1l0.2-0.1
	c0.1-0.1,0.5-0.2,0.9-0.4c0.6-0.3,0.7-0.3,1-0.3c0.2,0,0.3,0,0.5,0.1c0.6,0.2,0.7,0.9,0.2,1.3c-0.1,0.1-0.4,0.2-0.7,0.4
	c-0.3,0.1-0.6,0.3-0.6,0.3c0,0,0.1,0.1,0.6,0.3c0.8,0.2,0.8,0.3,1,0.5c0.4,0.5,0,1.2-0.8,1.2c-0.2,0-0.4,0-1-0.2
	c-1-0.3-1.9-0.6-2.1-0.6c-0.1,0-0.5,0.2-2.2,1l-0.4,0.2l0.2,0.1c0.8,0.4,1.9,0.9,2,1c0.5,0.3,0.4,1-0.1,1.2
	c-0.3,0.1-0.6,0.2-0.8,0.1c-0.1,0-0.5-0.2-0.8-0.3c-1.5-0.7-2.4-1.1-2.5-1.1c0,0-0.5,0.2-0.9,0.4c-0.5,0.2-1.1,0.5-1.3,0.6
	c-0.3,0.1-0.9,0.4-1.4,0.7l-1,0.4l0.1,0.2c0.2,0.5,0.3,1.1,0.2,1.6c0,0.2,0,0.3,0,0.3c0,0,0.8,0.4,1.6,0.8c0.8,0.4,1.6,0.7,1.6,0.8
	c0.1,0,0.5-0.1,1.7-0.6c1.5-0.6,1.7-0.7,1.9-0.7c0.3,0,0.6,0.1,0.8,0.3c0.3,0.3,0.3,0.7,0,1c-0.1,0.1-0.4,0.2-1.2,0.6l-1,0.4
	l0.9,0.4c0.5,0.2,1,0.4,1,0.5c0,0,0.1,0,0.2,0c0.2-0.1,1.3-0.4,1.8-0.5c0.2,0,0.7-0.1,1.1-0.2l0.7-0.1l0.2,0.1
	c0.8,0.2,1,0.9,0.4,1.4c-0.2,0.1-0.5,0.2-1.4,0.4c-0.3,0-0.6,0.1-0.6,0.1s0.3,0.2,0.7,0.4c0.4,0.2,0.8,0.4,0.9,0.5
	c0.5,0.4,0.3,1.2-0.4,1.3c-0.4,0.1-0.6,0-1.3-0.3c-0.3-0.1-0.5-0.3-0.5-0.2c0,0,0,0.3,0.1,0.6l0.1,0.6l-0.1,0.2
	c-0.2,0.3-0.4,0.4-0.8,0.4c-0.1,0-0.3,0-0.4,0c-0.2-0.1-0.5-0.3-0.6-0.4c-0.1-0.1-0.3-1.5-0.4-2.3l0-0.2l-0.9-0.4
	c-0.5-0.2-0.9-0.4-0.9-0.4c0,0,0,0.3,0.1,0.7c0.1,0.8,0.1,0.9,0,1.1c-0.1,0.2-0.3,0.4-0.5,0.4c-0.2,0.1-0.6,0.1-0.8,0
	c-0.2-0.1-0.5-0.3-0.5-0.5c0-0.1-0.1-0.5-0.2-1c-0.2-0.9-0.3-1.7-0.4-1.8c0,0-3.5-1.7-3.5-1.7c0,0-0.2,0.1-0.3,0.3
	c-0.5,0.5-1.2,0.9-2,1.1l-0.3,0.1l0,1.6l0,1.6l0.4,0.2c0.2,0.1,0.6,0.3,0.8,0.4c0.2,0.1,0.7,0.4,1.1,0.6c0.8,0.4,1,0.5,1.1,0.8
	c0.3,0.5-0.2,1.1-0.9,1.1c-0.3,0-0.1,0.1-2.2-1l-0.2-0.1l0,1.3c0,1.2,0,1.3,0.1,1.3c0.9,0.4,2.3,1.3,2.9,1.6
	C135.6,163.6,135.7,164,135.4,164.3z M132.2,152.3c0.3-0.1,1-0.7,1.2-0.9c0.2-0.3,0.3-0.5,0.3-1c0-0.5,0-0.5-0.1-0.7
	c-0.2-0.5-0.5-0.8-0.9-1c-0.4-0.2-0.7-0.3-1.1-0.4c-0.2,0-0.4,0-0.4,0c0,0-0.1,0-0.3,0c-0.3,0-0.7,0.1-1,0.3
	c-0.4,0.2-0.8,0.6-1.1,0.9c-0.3,0.5-0.4,0.7-0.3,1.2c0,0.7,0.3,1.1,0.9,1.5c0.5,0.3,0.8,0.4,1.4,0.4
	C131.4,152.4,131.9,152.4,132.2,152.3z M218.5,136.6c-0.8-1-0.1-2.4,1.1-2.4c0.3,0,0.5,0,1.2,0.4c0.4,0.2,1.6,0.8,2.6,1.3
	c1,0.5,2.3,1.1,3,1.5l1.2,0.7l1.6-1c2.7-1.7,3.9-2.5,6-3.7c1.1-0.6,2-1.2,2-1.2c0,0,0-0.3-0.1-0.6c-0.5-1.9-0.5-3.4-0.1-5.1
	c0.1-0.5,0.1-0.5,0-0.6c-0.3-0.3-7.3-4.7-8.3-5.1c-0.2-0.1-0.3-0.1-2.8,0.8c-1.4,0.5-2.9,1-3.4,1.1c-0.5,0.1-1,0.3-1.3,0.3
	c-0.8,0.2-1.5,0-1.9-0.7c-0.4-0.8-0.1-1.7,0.8-2.1c0.2-0.1,0.7-0.2,1.1-0.3c0.9-0.3,3.8-1.2,3.8-1.3c0,0-0.2-0.2-0.5-0.4
	c-0.3-0.2-1-0.6-1.6-1c-0.6-0.4-1.3-0.8-1.5-0.9c-0.6-0.3-0.8-0.5-1-0.9c-0.2-0.4-0.2-0.7,0-1.1c0.2-0.6,0.7-1,1.4-1
	c0.6,0,0.9,0.2,4.8,2.7l0.9,0.6l0.1-0.2c0-0.1,0.1-1.6,0-3.4c0-3.1,0-3.2,0.1-3.5c0.3-0.6,1.1-1,1.7-0.8c0.4,0.1,0.8,0.4,1,0.8
	c0.2,0.3,0.2,0.3,0.2,3.3c0,2.6,0,4.5-0.2,5.3c0,0.2,0,0.2,1.5,1.1c0.8,0.5,2.5,1.5,3.7,2.3c1.2,0.8,2.3,1.5,2.5,1.6l0.3,0.2
	l0.4-0.4c0.9-1.1,2-1.8,3.2-2.4c1.1-0.5,2.5-0.9,3.4-0.9c0.4,0,0.4,0,0.4-0.2c0.1-0.3,0.5-6,0.7-8.5l0.1-0.7l-0.7-0.8
	c-0.4-0.4-1.3-1.5-2.1-2.3c-0.8-0.9-1.6-1.7-1.7-1.8c-0.1-0.1-0.4-0.4-0.6-0.6c-0.7-0.6-0.9-1.3-0.6-2c0.4-0.7,1.3-1,2-0.6
	c0.4,0.2,1.4,1.1,2.8,2.7c0.7,0.8,1.2,1.2,1.2,1.2c0-0.1,0.2-1.5,0.4-3.4c0.1-0.8,0.1-1.1,0.2-1.3c0.2-0.3,0.5-0.6,0.8-0.7
	c0.7-0.2,1.4,0.1,1.8,0.7c0.2,0.4,0.3,1.2,0.2,1.9c-0.1,0.7-0.5,4-0.5,4.1c0,0,0.6-0.3,1.3-0.6c5.6-3.1,6.1-3.4,6.5-3.4
	c0.7,0,1.1,0.3,1.4,0.9c0.2,0.4,0.2,0.6,0.1,1c-0.1,0.5-0.5,0.8-1.6,1.4c-0.6,0.3-1.4,0.7-1.8,1c-0.4,0.2-1.2,0.7-1.8,1
	c-0.6,0.3-1.6,0.9-2.2,1.2s-1.4,0.8-1.7,0.9c-0.3,0.1-0.5,0.3-0.5,0.4c0,0.1-0.1,1.1-0.2,2.2s-0.2,3.1-0.4,4.4
	c-0.1,1.3-0.2,2.4-0.2,2.4c0,0,0.4,0.2,0.9,0.3c1.1,0.4,2,0.8,2.9,1.4c0.4,0.3,0.9,0.6,1.1,0.7c0.2,0.1,0.4,0.3,0.5,0.4l0.2,0.2
	l0.6-0.3c0.3-0.2,0.9-0.5,1.2-0.7c0.4-0.2,1.8-1,3.2-1.9c3.4-2,4-2.4,4.2-2.6c0.1-0.3,0.7-2.4,1.1-4.4c0.6-3.1,0.9-3.8,1.3-4.3
	c0.7-0.7,1.9-0.5,2.4,0.4c0.2,0.4,0.2,0.9,0,1.6c-0.2,0.7-1.1,4.5-1,4.6c0,0,0.5-0.3,1.2-0.6c1.8-1.1,3.3-1.9,3.6-2
	c0.6-0.2,1.4,0.1,1.7,0.7c0.3,0.4,0.2,1.1,0,1.5c-0.3,0.5-0.7,0.8-1.1,0.9c-0.4,0.1-1.1,0.4-2.8,1.4c-0.6,0.3-1.2,0.7-1.3,0.8
	c-0.2,0.1-0.3,0.2-0.3,0.2c0,0,0.6,0.3,1.3,0.6c0.7,0.3,2,0.9,2.8,1.3c0.8,0.4,1.6,0.8,1.8,0.9c0.9,0.5,1.3,0.8,1.4,1.4
	c0.1,0.7-0.4,1.4-1,1.6c-0.2,0.1-0.5,0.1-0.6,0.1c-0.1,0-1.2-0.5-2.3-1c-1.1-0.5-2.7-1.3-3.5-1.6c-0.8-0.3-1.8-0.8-2.2-1
	c-0.7-0.3-0.8-0.4-0.9-0.3c-0.1,0.1-0.5,0.3-1,0.6c-0.4,0.3-1.4,0.9-2.2,1.3c-0.8,0.4-2,1.1-2.7,1.6c-0.7,0.4-1.8,1-2.4,1.3
	c-0.8,0.5-1.1,0.6-1,0.7c0.2,2.1,0.2,3.6,0,4.8c-0.1,0.7-0.5,2-0.7,2.4c-0.1,0.2-0.1,0.3-0.1,0.4c0,0.2,7.9,5,8.3,5
	c0.1,0,2.4-0.6,3.7-1c0.5-0.2,1.5-0.5,2.3-0.7c1.4-0.4,1.4-0.4,1.8-0.4c0.7,0.2,1.1,0.7,1.2,1.5c0,0.6-0.4,1.2-1,1.4
	c-0.3,0.1-1.7,0.5-3.8,1.2c-0.3,0.1-0.5,0.2-0.5,0.2s0.9,0.6,1.9,1.2c2.3,1.4,2.4,1.5,2.6,1.8c0.2,0.3,0.2,0.8,0.1,1.2
	c-0.1,0.4-0.6,0.8-1,0.9c-0.5,0.2-0.8,0.1-1.7-0.4c-2.2-1.4-4.1-2.5-4.2-2.5s-0.1,0.3-0.2,1.6c-0.1,1.8-0.1,2.7,0,3.7
	c0,0.7,0,0.9-0.4,1.3c-0.2,0.2-0.7,0.4-0.9,0.5c-0.6,0-1.2-0.3-1.4-0.8c-0.2-0.4-0.3-1.6-0.2-3.3c0-0.9,0.1-2.4,0.1-3.2l0-1.6
	l-1.7-0.9c-1.7-1-4.7-2.8-5.9-3.6c-0.4-0.2-0.7-0.4-0.7-0.4c0,0-0.3,0.2-0.6,0.5c-0.8,0.7-1.2,1-1.9,1.3c-1,0.4-2.7,0.8-4,0.9
	l-0.4,0l-0.1,0.8c-0.1,0.5-0.1,1.7-0.2,2.7c-0.1,1-0.2,2.4-0.2,3.2s-0.1,1.7-0.1,2.1c0,0.4-0.1,0.9-0.1,1.1l0,0.4l0.4,0.3
	c0.2,0.2,1,0.8,1.8,1.4c2.6,1.9,3.7,2.9,3.8,3.4c0.3,1-0.4,1.9-1.4,1.9c-0.5,0-0.7-0.1-1.7-1c-0.9-0.8-3-2.4-3-2.4
	c0,0-0.1,0.8-0.1,1.8c0,1-0.1,2-0.1,2.2c-0.2,1-1.2,1.5-2.1,1.1c-0.4-0.2-0.6-0.5-0.8-0.9c-0.1-0.3-0.1-0.4,0-1.2
	c0-0.5,0.1-1.3,0.1-1.9c0.1-1,0.1-1.1-0.1-0.9c-0.9,0.6-2.6,1.9-3.3,2.5c-1,0.8-1.2,0.9-1.7,0.9c-0.8,0-1.5-0.7-1.5-1.5
	c0-0.3,0.2-0.7,0.4-1c0.2-0.2,1.6-1.3,2.5-2c0.5-0.4,1.1-0.9,1.4-1c0.6-0.5,2.2-1.8,2.5-2c0.2-0.1,0.2-0.2,0.2-1.1
	c0-0.5,0.1-1.8,0.2-2.8c0.1-1,0.2-2.5,0.2-3.2s0.1-1.8,0.2-2.3c0.1-0.5,0.1-1,0.1-1.1s-0.2-0.1-0.4-0.2c-1-0.3-2.7-1.5-3.7-2.6
	c-0.3-0.3-0.6-0.6-0.6-0.6c-0.1,0-5.4,3.2-6.8,4.1c-0.8,0.5-1.9,1.2-2.3,1.4c-0.8,0.5-0.7,0.2-1.2,2.8c-0.6,2.9-1.2,5.2-1.4,5.5
	c-0.7,0.9-2.3,0.6-2.6-0.5c-0.1-0.4-0.1-0.5,0.5-2.7c0.5-2,0.6-2.3,0.5-2.3c-0.2,0.1-3.4,2-4.4,2.7c-1.3,0.8-2.8-0.6-2.1-1.9
	c0.2-0.4,0.7-0.8,2.2-1.7c2.5-1.5,3.8-2.3,3.8-2.3c0-0.1-1-0.6-2.7-1.4C219.8,137.5,218.7,136.9,218.5,136.6z M239.9,129.8
	c0.2,0.9,0.5,1.9,0.7,2.4c0.4,0.6,1,1.4,1.7,1.9c0.8,0.6,1.4,0.9,2.3,1.2c0.7,0.2,0.8,0.2,1.9,0.2c1.4,0,2.2-0.1,3.1-0.5
	c0.6-0.2,1.2-0.7,2-1.6c1.2-1.4,1.7-3.6,1.5-6.3c-0.1-1.6-0.4-2-2-3.1c-1-0.7-2.6-1.3-3.8-1.5c-0.7-0.1-1.9-0.1-2.4,0
	c-0.6,0.1-1.4,0.5-2.1,0.9c-1,0.6-1.7,1.5-2.3,2.6c-0.4,0.8-0.5,1.2-0.6,2.1C239.7,128.9,239.7,129.1,239.9,129.8z"/>
</svg>
