<?xml version="1.0" encoding="utf-8"?>
<!-- Generator: Adobe Illustrator 22.1.0, SVG Export Plug-In . SVG Version: 6.00 Build 0)  -->
<svg version="1.1" id="Layer_1" xmlns="http://www.w3.org/2000/svg" xmlns:xlink="http://www.w3.org/1999/xlink" x="0px" y="0px"
	 viewBox="0 0 1080 1296" style="enable-background:new 0 0 1080 1296;" xml:space="preserve">
<path d="M339.2,218.5c-3.5-4.2-5.2-9.8-5.2-16.6c0-6.4,1.8-11.6,5.3-15.8c3.5-4.2,8-6.2,13.4-6.2c2.1,0,4,0.3,5.8,0.8v10.2
	c-1.9-0.6-3.6-0.9-5.3-0.9c-2.5,0-4.6,1.2-6.3,3.5c-1.7,2.3-2.5,5.2-2.5,8.8c0,3.8,0.8,6.9,2.5,9.1c1.7,2.2,3.9,3.3,6.7,3.3
	c1.4,0,3-0.3,4.8-1v10.1c-2,0.7-3.9,1-5.5,1C347.2,224.8,342.7,222.7,339.2,218.5z M377.6,206h8.6v17.8h9.7V181h-9.7v15.8h-8.6V181
	h-9.7v42.7h9.7V206z M418.1,223.7h-9.7V181h11.3c4.6,0,8.2,1.2,10.8,3.5c2.6,2.3,4,5.5,4,9.6c0,2.1-0.5,4.1-1.5,6
	c-1,1.9-2.5,3.4-4.4,4.4l7.7,19.3h-10.2l-7.8-19.5h-0.2V223.7z M418.1,199.4c4.3-0.1,6.4-1.6,6.4-4.5c0-2-0.5-3.4-1.5-4.3
	c-1-0.9-2.6-1.3-4.9-1.4V199.4z M455.1,181h-9.7v42.7h9.7V181z M475.8,206.9c1.4,1.1,2.4,2,2.9,2.7c0.6,0.7,0.8,1.5,0.8,2.4
	c0,1.1-0.4,2-1.1,2.7s-1.7,1-2.9,1c-2.1,0-4.7-0.9-7.7-2.7v10c2.7,1.3,5.4,1.9,8.1,1.9c4,0,7.2-1.2,9.8-3.6c2.6-2.4,3.9-5.5,3.9-9.2
	c0-3.2-1-5.9-3-8.3c-2-2.4-3.9-4.3-5.8-5.6c-3.2-2.2-4.8-4.3-4.8-6.1c0-1,0.3-1.8,1-2.4c0.7-0.6,1.6-0.9,2.8-0.9
	c1.8,0,4.1,0.8,7,2.4v-9.6c-2.7-1.2-5.4-1.8-8.1-1.8c-3.7,0-6.7,1.2-9,3.5c-2.3,2.3-3.5,5.3-3.5,9c0,2.7,0.8,5.2,2.3,7.4
	C470,201.9,472.4,204.3,475.8,206.9z M503.3,223.7h9.8v-33h6.7V181h-23.1v9.8h6.6V223.7z M539.3,194.3l6.3,29.5h6.6l6-29.4l2.6,29.4
	h9.6l-4.9-42.7h-12.5l-1.9,9.6c-0.5,2.5-1,5-1.4,7.6l-1.1,6.6c-1-6.6-2.4-14.6-4.1-23.8h-12.3l-4.6,42.7h9.2L539.3,194.3z
	 M587.5,223.7h-9.9l11.3-42.7h10.9l11.3,42.7h-10.1l-1.6-7.1h-10.2L587.5,223.7z M591,208.9h6.6c-1.5-6.4-2.5-12.4-3.3-18.2h-0.1
	C593.4,196.7,592.3,202.7,591,208.9z M627.2,206.9c1.4,1.1,2.4,2,2.9,2.7c0.6,0.7,0.8,1.5,0.8,2.4c0,1.1-0.4,2-1.1,2.7
	c-0.7,0.7-1.7,1-2.9,1c-2.1,0-4.7-0.9-7.7-2.7v10c2.7,1.3,5.4,1.9,8.1,1.9c4,0,7.2-1.2,9.8-3.6c2.6-2.4,3.9-5.5,3.9-9.2
	c0-3.2-1-5.9-3-8.3s-3.9-4.3-5.8-5.6c-3.2-2.2-4.8-4.3-4.8-6.1c0-1,0.3-1.8,1-2.4c0.7-0.6,1.6-0.9,2.8-0.9c1.8,0,4.1,0.8,7,2.4v-9.6
	c-2.7-1.2-5.4-1.8-8.1-1.8c-3.7,0-6.7,1.2-9,3.5c-2.3,2.3-3.5,5.3-3.5,9c0,2.7,0.8,5.2,2.3,7.4C621.5,201.9,623.9,204.3,627.2,206.9
	z M109.6,247.4c0-38.8,62.9-64.3,117.4-64.3c43.3,0,75.1,10.1,75.1,50.7c0,26.9-19.9,58.4-54.9,76.9l0.3,0.3
	c36.7,0,52.8,19.6,52.8,44.4c0,42.3-46.1,99.6-112.9,99.6c-38.4,0-70.6-10.5-70.6-26.6c0-7.7,4.2-15,14-18.2
	c5.2,4.5,10.5,8,16.1,11.2l39.8-188c3.5-16.4,17.1-22.4,30-22.4c6.3,0,12.6,1.7,16.8,4.5l-20.3,94.7c28.7-8.7,50.3-44,50.3-72.3
	c0-26.9-13.6-38.4-42.3-38.4c-34.2,0-75.5,22.4-75.5,57.3c0,9.1,2.8,15.4,7,20.3c-5.2,2.4-10.1,3.5-15,3.5
	C120.1,280.6,109.6,264.9,109.6,247.4z M225.2,326c-4.9,0-10.1,0.7-15.7,2.1l-22.4,104.5h0.3c36,0,68.1-38.1,68.1-75.5
	C255.6,339,245.8,326,225.2,326z M312.9,402.2c-0.3-3.1-0.7-6.3-0.7-9.8c0-45.4,30-118.1,87.7-118.1c31.8,0,39.8,17.8,39.8,33.5
	c0,29.7-15.7,53.5-83.2,90.8c3.5,18.9,16.4,25.9,32.5,25.9c23.1,0,52-15,68.2-32.8c1.9-59.6,40.6-117.4,88-117.4
	c15.7,0,26.9,3.8,35.6,11.5c5.9-7,15.4-10.1,24.1-10.1c6.3,0,12.2,1.7,16.4,4.5l-29.4,138.4c-1,4.9-2.1,9.8-3.1,14.3
	c15.7-7.7,30.9-16.1,42.6-24.6l19.2-92.1c1-5.6-0.3-8.7-3.5-8.7c-1.7,0-3.8,1.4-7,4.2c-4.5-2.8-7-13.6,0-19.2
	c11.9-9.4,24.5-16.8,39.1-16.8c12.6,0,19.6,5.9,16.8,19.2l-21.3,101c-4.2,19.6,1.4,25.9,10.5,25.9c11,0,23.6-6.4,32.4-13.6
	l19.6-91.9c1.4-5.6-0.3-8.7-3.5-8.7c-1.7,0-3.8,1.4-7,4.2c-4.5-2.8-7-13.6,0-19.2c11.9-9.4,24.5-16.8,39.1-16.8
	c12.6,0,19.9,5.9,16.8,19.2l-3.5,15.7c14.7-21,37-34.9,57.3-34.9c18.5,0,31.8,14.7,23.8,51.4l-17.1,80.4
	c-2.1,10.1,2.4,14.3,9.4,14.3c6.4,0,13.3-2.1,19.7-5.4c0-2.5,0.1-5,0.5-7.6c2.4-14.3,12.6-26.9,29.7-26.9c5.6,0,10.1,1.4,14,4.9
	c-4.5,5.2-7.3,13.6-7.3,22c0,16.1,10.8,23.1,22,23.1c13.3,0,27.6-10.8,27.6-28c0-26.6-57.7-23.4-57.7-75.8c0-28,19.2-53.8,59.7-53.8
	c29.7,0,44,11.2,44,33.9c0,19.6-11.5,29.4-24.5,28.7c-4.5-0.3-9.4-1.7-14-4.9c3.5-4.2,5.9-11.9,5.9-18.9c0-12.9-7.3-18.9-15.7-18.9
	c-9.4,0-20.3,9.4-20.3,28.3c0,37,57.3,29,57.3,73.4c0,33.9-20.3,59.1-71.6,59.1c-22.8,0-37.6-8.5-44.7-20.4
	C863.2,446.4,846.1,455,829,455c-17.5,0-36-8.7-27.3-49.6l14.7-69.5c3.1-14.7-1.7-20.6-9.4-20.6c-9.4,0-23.4,8.7-31.1,18.2
	l-21.3,99.6c-3.5,16.1-16.8,22-29.4,22c-6.3,0-12.2-1.7-16.4-4.5l3.8-17.9c-14.9,12.9-32.9,22.5-51,22.5c-14.6,0-31.1-6.8-32.3-27.6
	c-10.7,7.3-27.5,17.4-44.9,25.5c-15.7,65-40.2,133.8-100.6,133.8c-21.3,0-41.2-14-41.2-43c0-43.3,54.5-76.5,101.7-94
	c2.4-8.7,4.9-17.5,7.7-27.3c-14.3,19.2-32.1,32.5-51,32.5c-28,0-38.8-21.6-42.3-41.8c-24.3,26.5-58.1,41.8-87,41.8
	c-23.1,0-43.3-9.4-53.1-30.4c-1.4,0.7-2.8,1.4-4.2,1.7c-13.6,3.5-26.2-6.6-23.8-20.3C298.6,407.1,305.6,405.3,312.9,402.2z
	 M536.9,474.2c-38.4,15.4-70.6,41.6-70.6,65c0,12.2,9.8,16.4,14.3,16.4C504.7,555.6,519.1,531.5,536.9,474.2z M500.6,393.8
	c0,17.5,8,25.2,18.9,25.2c11.2,0,25.9-9.1,35.3-22l19.6-93.6c-5.9-2.1-11.2-2.8-16.4-2.8C515.6,300.5,500.6,355.7,500.6,393.8z
	 M355.6,383.7c33.9-21.3,57-45.8,57-68.5c0-8-4.2-13.6-10.1-13.6C367.8,301.6,356.6,359.2,355.6,383.7z M684,255.1
	c13.6,0,25.2-10.8,27.3-24.5c1.4-13.6-8.7-24.5-22.4-24.5s-25.2,10.8-26.6,24.5C660.2,244.3,670.4,255.1,684,255.1z M705.5,577.3
	l-0.2,0.4c0,0.6,0.1,1.1,0.2,1.7c-0.1,3.2-0.4,6.2-0.6,8.8c0.1,0.2,0.2,0.5,0.2,0.8l-0.4,1.1c0.1,0.3,0.2,0.5,0.2,0.6l-0.4,0.8
	l0.2,0.4c-0.8,3.8-2.2,8.1-4,12.8c-2.1,3.6-3.7,6.1-4.8,7.4c-0.7,1-1.4,1.7-2.1,2.1c-0.9,1.5-3.1,3.3-6.5,5.3
	c-0.7,2.4-1.4,3.7-2.1,4c-2.5,2.2-6.9,3.8-13.3,4.8h-0.4c-9.9,0-17.8-11.1-23.6-33.2l-0.4-0.2c-0.6,0.6-1.9,3.6-4,9l-4.8,9.3
	c-3.1,5.1-6.1,9.5-9,13.2c-6.1,6.8-10.7,10.8-13.7,12.2c-2.7,1.7-6.1,3-10.3,3.8l-0.4-0.2c-1.2,0.4-2.1,0.6-2.7,0.6
	c-2.1,0-4.5-0.4-7.2-1.1c-0.3,0.1-0.5,0.2-0.6,0.2c0-0.2-1.7-0.7-5-1.5c-2.6-1.6-4.7-3.1-6.3-4.6c-7.9-8.1-11.8-16.6-11.8-25.7
	c0-8.9,2.6-20.2,7.8-34.1c1.8-3.9,6.1-10.9,13-21.2c5-8,9.8-14.5,14.3-19.3c3.5-2.7,6.3-4,8.4-4c2,0.2,2.9,0.6,2.9,1.1v0.2H617
	c-6.1,0-14.4,9.4-25,28.2c-4.7,6.9-8.8,14.2-12.2,21.9c-4.3,10.3-6.5,19-6.5,26.1v2.5c0,6,2.2,11.8,6.5,17.5c0.1,0,0.2,0.2,0.2,0.6
	h0.4c0-0.6-0.4-1.3-1.1-2.1c0-0.6-0.1-0.8-0.4-0.8l0.2-0.4v-0.2c-0.7-0.9-1.1-1.6-1.3-2.1h0.2c-0.2-1-0.5-1.5-0.6-1.5l0.2-0.4
	c-0.3-0.6-0.5-1.5-0.6-2.9h0.2l-0.4-0.8c0.1-0.3,0.2-0.5,0.2-0.6c-0.2,0-0.5-2.5-0.8-7.6l0.6-2.9c0-0.1-0.1-0.4-0.2-0.6
	c1.4-6.9,2.2-10.5,2.5-10.7v-0.2l-0.2-0.4c0.5-1,0.9-1.8,1.3-2.3v-0.4L580,592c0.4-0.1,1.3-2.4,2.7-6.7c2.7-5.8,4.9-10.4,6.7-13.9
	c3.8-7.6,9.9-17.3,18.3-29c0.3,0,1.2-0.9,2.5-2.7c4.8-4.6,8.4-6.9,10.7-6.9h0.4c2,0,3.2,1.6,3.6,4.8c-0.4,4.3-1.1,7.3-1.9,8.8
	c0.1,0,0.2,0.1,0.2,0.2c-0.1,0-0.2,0.1-0.2,0.2h0.2c-2,5.2-6.1,13.4-12.2,24.6l-5.9,11.4c0,0.8-0.9,2.9-2.7,6.1
	c0,0.5-0.8,2.4-2.3,5.9v0.2h0.2c-1,1.4-2.1,5.4-3.4,12c-0.1,0-0.3,1.6-0.6,4.8c0.1,0.4,0.3,0.6,0.4,0.6l-0.2,0.4
	c0.1,1.4,0.2,2.6,0.2,3.4c1.2,4.3,3,6.5,5.5,6.5c3.4,0,6.5-1.3,9.5-3.8c5.3-10.4,8.8-18.3,10.7-23.6c3.8-10.2,7.4-23.7,10.7-40.4
	c1.6-4.9,3.4-8.2,5.3-9.9h0.2c-1.2,0.6-2,7.8-2.5,21.5c0,5.8-1.3,12.9-3.8,21.2c-1.4,3.4-2.1,5.9-2.1,7.4h0.2c0.4,0,1.7-3.3,4-9.9
	c2.2-5.7,3.9-11.8,5-18.3l0.8-4.4v-0.2c0-0.1-0.1-0.2-0.2-0.2c0.5-3.6,0.8-5.5,1.1-5.5l-1.5-8c0.9-4.1,1.8-6.1,2.7-6.1
	c0-0.6,1.3-1.4,3.8-2.3c3.5,0,6.3,2,8.4,5.9c0.7,3.3,1.3,6.3,1.7,9.3c0.3,0,0.6,1.2,0.8,3.6c1.1,3,2.9,9.7,5.5,20.2
	c3.9,13.9,7,22.1,9.3,24.6c0,0.5,0.8,1.3,2.3,2.3c1.4-4.5,2.3-8.4,2.7-11.8c0-0.1-0.1-0.2-0.2-0.2l0.2-1.1V592l-0.2-1.3l0.2-0.4
	l-0.4-3.4l0.2-0.4c0-0.6-1.3-7.9-3.8-21.9c-0.4-2.6-0.7-5.7-0.8-9.3c0.1-0.2,0.2-0.6,0.2-1.3h-0.2l0.2-0.4v-2.1
	c0-2.3,0.8-5.8,2.5-10.5h0.2c-0.1,1.6-0.2,2.8-0.2,3.6v1.1c0,5.8,1.9,14.2,5.7,25c2.1,8.2,3.2,14,3.2,17.2v3.2
	c0,0.1,0.1,0.2,0.2,0.2l-0.2,0.4v1.1c0,1-0.1,2.5-0.2,4.6l0.4,0.2c1.3-2.2,2.2-5.3,2.7-9.3l0.4-4c-0.1-0.2-0.2-0.5-0.2-0.8l0.2-1.9
	h-0.2l0.2-0.4v-3.6c0-0.6-0.1-1.4-0.2-2.3c0.1-0.2,0.2-0.7,0.2-1.5l-0.4-0.8l0.2-0.4c-1.9-8.1-3.8-13.7-5.9-17
	c-2.4-3.2-3.7-5.6-3.8-7.2c-0.8-1.3-1.3-2.2-1.3-2.7v-0.6c0-4.5,1.5-7.3,4.6-8.4c0-0.4,1.3-0.8,4-1.1c2.7,0.4,5.2,1.8,7.6,4.2
	c2.3,2.7,3.8,4.8,4.4,6.3c0.3,0.1,1.8,2.7,4.2,8c0.7,2.4,1.6,5.2,2.7,8.4h-0.2c0.4,0.7,0.6,1.4,0.6,2.1c0,0.1-0.1,0.2-0.2,0.2
	c0.4,1.3,0.7,3.1,0.8,5.5h0.2c-0.1,0.3-0.2,0.5-0.2,0.6c0.3,0.5,0.6,1.9,0.8,4.2c-0.1,0-0.2,0.1-0.2,0.2h0.2l-0.4,0.8
	C705.2,576.9,705.4,577.3,705.5,577.3z M675.4,621.6c-2.6,0-6-2.1-10.1-6.3c-3.6-5.4-6.6-11.8-8.8-19.1c-0.3-1.2-0.6-2-0.8-2.3
	l0.2-0.4c-0.9-2.3-2.1-5.9-3.4-10.7h-0.2c-1.4,0.3-2.1,1.2-2.1,2.7c-0.8,2.3-1.6,4.8-2.3,7.6c5.2,12.2,8.7,19.8,10.5,22.7
	c4.4,5.2,8.7,7.8,12.8,7.8c1.5-0.4,2.9-0.8,4.2-1.5V621.6z M723.9,532.7c0-0.2-0.1-0.3-0.4-0.4c-2.5,0-4.9,0.9-7.4,2.7
	c-4,4.7-6.2,8.7-6.5,12v0.2c0,4.1,2.2,6.2,6.5,6.2c1.1,0,2.6-0.8,4.4-2.4c1.2,0.1,1.9,0.2,2.1,0.2c3,0,5.5-0.6,7.4-1.8
	c3.9-1.3,6-2.1,6.1-2.4c2.7-0.9,4.3-1.9,4.8-2.7c1.4,0,2.6-1.9,3.6-5.8c-0.5-1.6-0.8-2.5-1.1-2.7c-1.6-2.8-4.9-4.2-9.9-4.2
	c-3.4,0.7-5.5,1.5-6.3,2.2c-7.4,3.9-11.1,8-11.1,12.4c0,0.5,0.2,1.3,0.6,2.4v0.2h-0.6c-1.7-0.4-2.5-1.2-2.5-2.6
	c0-0.7,0.4-1.9,1.1-3.5C715.7,539.4,718.7,536,723.9,532.7z M844.2,618.5c0.1-0.2,0.2-0.6,0.2-1.3h-0.2c0-0.1,0.1-0.2,0.2-0.2
	c0.1-5.3,0.2-9.3,0.2-12v-4.4c0-0.3-0.1-0.6-0.2-0.8c0-0.1,0.1-0.2,0.2-0.2c-0.1-1.2-0.2-2.1-0.2-2.7c0-5.8,1.8-14.2,5.5-25.2
	c0.4-0.8,0.7-1.3,0.8-1.3h0.2v0.4c0,1.5-1.3,8.3-4,20.4c-1.1,9.7-1.7,15.9-1.7,18.7v1.9c1.1,12.3,2.4,18.5,3.8,18.5
	c0.9,1.1,1.8,1.7,2.7,1.7v-0.6c-1.9-2.5-3.3-7.2-4.2-14.1c0-0.1,0.1-0.2,0.2-0.2c0-0.1-0.1-0.5-0.2-1.3c0-3,0.1-6.5,0.4-10.5h-0.2
	l0.2-0.4c0-10.1,2.9-22.7,8.8-37.9c0.6-1.8,0.8-2.9,0.8-3.2h-0.4c-9,3-13.5,5.2-13.5,6.7c-1.4,0-2.4,3.9-2.9,11.8
	c-1.1,7.1-2.3,14.2-3.5,21.3c-1.2,7.1-4.6,12.3-10.1,15.6c-6.9,5.3-11.7,6.7-14.5,4.3c-2.7-2.4-2.7-10.6,0.2-24.5
	c-10.4,34.7-15.6,52.2-15.6,52.4c-3.8,11.8-5.7,18.2-5.7,19.1c-0.3,0.1-1.4,4.1-3.4,12c-1.2,4.3-2.9,7.7-4.9,10.2
	c0,0.8-1.6,2-4.7,3.6c-0.2-0.2-0.4-0.3-0.6-0.3c-0.3,0-0.4,0.1-0.4,0.3c-3.2,0-6.1-1.9-8.9-5.7c-3.2-1.5-5.6-4.5-7.5-9
	c-3.7-11-5.6-23.8-5.6-38.6c1.1-19.3,2.2-34.7,3.5-46.4c-1.1,2.2-2.5,4.8-4.2,7.8c-1.8,3.3-4.5,8.6-8,15.9l-5.7,9.7
	c-2.5,2.8-5.2,4.2-8,4.2v0.2c-2.2-0.2-3.5-0.4-3.8-0.4c-1.1,0.6-2.4,1.2-3.8,1.6c-7,0-12.7-6.9-17-20.8c-1-5.5-1.5-8.6-1.5-9.3
	c0-0.1,0.1-0.2,0.2-0.2l-0.2-1.3c0-9.7,0.7-19,2.1-28c2.2-7.4,5-12.3,8.4-14.8c2-1.3,3.2-2,3.6-2c-4.6,2.6-8.1,7.8-10.5,15.7
	c-0.4,3.1-0.6,7-0.6,11.7c1,12.1,2.7,22.2,5.3,30.5c1,2.5,2.4,5,4.2,7.5h0.2v-0.4c-1.3-3.9-2.2-8.5-2.7-13.7c0-0.1,0.1-0.2,0.2-0.2
	c-0.8-7-1.3-12.8-1.3-17.4c0-6.7,1.7-16.4,5-28.9c1.8-5.1,5.2-7.7,10.1-7.7c1.9,0.4,3.6,1.8,5.3,4.2l1.3,4l-0.2,0.4l0.2,1.6
	c0,4.4-0.6,9.9-1.9,16.5c-0.4,2-0.8,5.3-1.3,9.9l0.4,1.6l-0.4,0.7c0.3,2.3,0.5,5.5,0.6,9.3h0.2c0,0.1-0.1,0.2-0.2,0.2
	c0.9,10.4,2,15.6,3.2,15.6c0.7,0.1,1.4,0.2,2.1,0.2c0.9,0,2.4-2.3,4.4-6.9c6.6-9.1,11.6-17.3,15.1-24.5c0,0,0,0,0,0c0,0,0-0.1,0-0.1
	c0-4.9,1.1-15.3,3.2-31.1v-0.3l-0.2-2.7c0.7-4,2.1-13.3,4.2-27.8c0-0.4-0.1-1-0.4-1.8c0.2-1.5,0.4-2.5,0.4-3l-0.2-0.6
	c0-1.7,0.6-3.5,1.9-5.4h0.2c0,0.9,0.3,1.5,1,1.8l0.2,1.5c0,2.3-1.2,13.1-3.7,32.3c-0.4,4.2-1.4,12.7-3.2,25.4
	c-0.8,10.6-2.1,25.9-3.9,46.1c0,0.6-0.4,6.1-1.2,16.5c0.1,1.1,0.2,2.1,0.2,3v0.3c0,0.8-0.1,1.9-0.2,3.3l0.2,0.6l-0.2,0.6
	c0,6.7,1.2,16,3.6,27.8c1.4,4.6,2.6,6.9,3.6,6.9l-1-3c0-0.2,0.1-0.3,0.2-0.3l-1.6-6V673c0-0.2,0.1-0.3,0.2-0.3
	c-0.2-1-0.4-1.7-0.4-2.1v-0.9c-0.1,0-0.4-0.4-0.6-1.2l0.2-1.8v-0.3c-0.7,0-1-2.7-1-8.1l-0.8-6.9c0-0.2,0.1-0.5,0.2-0.9
	c-0.2-3.6-0.4-7.6-0.4-12v-3.9l-0.2-1.8c0.1-2.2,0.3-3.3,0.4-3.3c-0.1-0.4-0.2-0.7-0.2-0.9c0-0.7,0.1-2.4,0.2-5.1h-0.2
	c0.1-1.4,0.2-2.1,0.4-2.1l-0.2-0.6c0.3-0.7,0.4-1.3,0.4-1.8v-1.8c0-1.6,0.2-4,0.6-7.2l-0.2-0.6c0.4-1.3,0.6-3.5,0.8-6.6H762
	c3.4-24.3,5.9-41.4,7.5-51.5c-0.1-0.8-0.2-1.6-0.2-2.4h0.2c-0.1-0.4-0.2-0.7-0.2-0.9c0.8-13.1,2-24.2,3.7-33.2
	c0-1.3-3.2-2.4-9.5-3.3c-10.6,3.1-11.8,7.4-3.6,12.8c0.4,0.7,0.6,1.4,0.6,2.1c-0.5,0.6-1.1,0.9-1.7,0.9h-1.6l-2.4,1.5
	c-6.3-0.5-10-2.4-11.3-5.7c-0.4-1.8-0.6-2.9-0.6-3.3c0-4.6,3.3-10.5,9.9-17.7c4.6-3.8,8.4-5.7,11.5-5.7c2-0.7,2.9-1.1,2.9-1.2
	c0.4,0.2,0.6,0.4,0.6,0.6c0.8-0.4,1.6-0.6,2.6-0.6v0.3l1.4-0.6l6.3,0.6l0.4-0.3l1.6,0.6c0-0.2,0.1-0.3,0.2-0.3v0.3
	c0.5-0.2,0.8-0.4,0.8-0.6c1.9,0.3,2.8,0.6,2.8,0.9l0.4-0.3c0.7,0.2,1.3,0.3,1.6,0.3l0.4-0.3c4.2,1,7.3,1.6,9.3,1.8v-0.3
	c0.9,0.4,3.1,1,6.7,1.8v-0.3c0.9,0.7,1.4,1.1,1.4,1.2c0.5-0.2,0.8-0.4,0.8-0.6c2.1,0.5,3.3,0.9,3.8,1.2c0.2-0.2,0.5-0.3,0.8-0.3
	c0,0.2,0.5,0.6,1.6,1.2l0.6-0.6c1.1,0.4,2.7,0.8,4.9,1.2c0.1,0,0.2-0.1,0.2-0.3c2.9,0.4,4.3,0.7,4.3,0.9l1-0.6l1.2,0.3
	c0.3,0,0.8-0.1,1.6-0.3l1,0.3c1.2-0.5,1.7-0.8,1.7-0.9c0.3,0.2,0.5,0.3,0.6,0.3c2,0,3.7-1.1,5.3-3.3v-3.9c0-0.5-0.1-0.9-0.2-1.2
	c1.1-5.6,2.2-8.4,3.2-8.4c0.6-1.4,2.2-2.1,4.8-2.1v0.3l0.4-0.3c2.7,0.9,4.8,2.9,6.3,6c2.1,4.9,0,13.7-6.3,26.4
	c-6.9,7.7-16.7,10.7-29.2,9l-1.8-0.3l-0.4,0.3c-5.7,0-11.1-1.4-16.4-4.2c-1.3-1.4-1.9-2.3-1.9-2.7v-0.6l1-0.3
	c7.9,2.2,13.6,3.3,17.2,3.3c0.2-0.2,0.9-0.4,1.9-0.6v-0.3c-3.9-0.8-6-1.4-6.3-1.8c-1.8,0-7.3-1.3-16.4-3.9c-0.8,2.5-1.4,10-1.9,22.8
	v0.6h0.2c-0.2,0.8-0.4,1.4-0.4,1.8c0,0.2,0.1,0.5,0.2,0.9c-0.7,12.6-1.2,19.6-1.4,20.9c0,0.2,0.1,0.3,0.2,0.3
	c-0.6,6.9-1.1,11-1.4,12.3h0.2c-0.4,1.6-0.6,3.3-0.8,5.1h0.2c-1.3,7.6-2.3,15.4-3,23.3c-0.1,0-0.5,1.8-0.9,5.4
	c0.1,0.4,0.2,0.7,0.2,0.9c-0.2,1.6-0.4,2.4-0.6,2.4l0.2,0.6v0.6l-1,12.9c0,0.2,0.1,0.3,0.2,0.3c-0.1,1.3-0.3,4.3-0.4,9l0.2,1.5
	l-0.4,1.2c0.2,1.6,0.4,2.4,0.6,2.4l-0.2,1.5c0,1.1,0.1,2.8,0.2,5.1h-0.2c0.1,1.4,0.3,2.1,0.4,2.1l-0.2,0.6c0,0.4,0.1,1.4,0.4,3
	l-0.2,0.6l0.4,2.4c-0.1,0-0.2,0.1-0.2,0.3c0.1,0,0.2,0.1,0.2,0.3h-0.2c0.3,0.8,0.6,2.8,0.8,6h0.2l-0.2,0.6v0.6
	c0.5,3,1.1,4.5,1.6,4.5h0.6c1.8-4.9,5.4-12,10.6-21.2c2-4.5,8.7-22.7,20-54.6l1.6-2.4h0.4c0,0,0.1,0,0.1,0.1
	c2.1-10.9,3.9-22.3,5.5-34.3c-0.4-6.7,0.3-10.9,2-12.7c2.6-4.5,5.8-6.7,9.5-6.7c0-0.3,1.1-0.5,3.2-0.6h0.6c2.3,0,4.4,2,6.3,5.9
	c0.7,2.1,1.1,4.5,1.1,7.2v0.6c0,0.1,0.1,0.2,0.2,0.2l-0.2,0.4c0,4.6,0,8.6,0.1,12h0.2c-0.3,1.1-0.5,2.8-0.6,5.3
	c0.1,0,0.2,0.1,0.2,0.2c1.5,0,4-1.7,7.4-5c2.9-2.2,6.2-4.2,9.7-6.1c0.6,0,1.5-5.9,2.9-17.7c0.6-4.1,1.2-6.7,1.9-7.8v-0.4h-0.4
	c-3.8,4.3-5.7,11.7-5.7,22.1c-0.5,1.1-1.1,1.7-1.9,1.7c-0.4,0-0.7-0.7-1.1-2.1V548c0-6,1.9-12.6,5.7-19.8c2.1-3.1,5.6-5.3,10.5-6.5
	c0.7-0.1,1.4-0.2,2.1-0.2c2,0.6,3.4,1.6,4.4,2.9c1.7,2.3,2.5,5.2,2.5,8.4v5.3c0,1.6-0.2,3.3-0.6,5.3l0.2,0.8
	c-1.8,13.9-4.9,26.1-9.5,36.6l-2.9,9.9c-0.6,1.6-1.2,5.5-1.9,11.8c0,0.1,0.1,0.2,0.2,0.2c-0.4,1.8-0.6,6.2-0.6,13.3
	c0.4,2.4,1.2,3.6,2.5,3.6l0.2,0.4c0.6,0,3.8-1.8,9.7-5.5c2.7-0.3,8.6-7.6,17.6-22c1.4-2.5,3.2-3.8,5.5-3.8l0.2,0.4
	c0,3.2-4.2,11-12.5,23.4c-1.6,2.8-3.1,6.2-4.4,10.1c-4.5,8.8-8.9,13.8-13.5,15.1c-1.3,0.6-3.2,1.1-5.7,1.5c-2.5-0.2-5.4-0.9-8.8-2.1
	c0,0.7-1.3,1.1-4,1.3c-1.2,0-2.8-1.3-4.6-4C845.7,628.2,844.4,622.8,844.2,618.5z M749.9,521.6c-1.5-2.8-2.3-4.9-2.4-6.3
	c0.1-1.7,0.2-3,0.2-3.9h-0.2c-0.6,0-1.1,2.3-1.6,6.9c0,1.8,1.3,2.9,3.8,3.6C749.8,521.7,749.8,521.6,749.9,521.6z M828.5,537.9
	l-0.4-0.2c-4.2,3.8-6.3,8.3-6.3,13.5l-0.6,8.5c0.2,6.7-2.6,25.8-8.7,57.5c2.4,1.1,6.6-19.7,12.7-62.4l-0.3-2.4h-0.2
	c1.3-9.5,2.6-14.3,3.8-14.3V537.9z M856.8,552.2c-4.6,2.3-7.5,4-8.6,5c4-1.7,6.9-3.3,8.6-4.6V552.2z M501.8,1017.5
	c-27.5,0-57.8,5.8-90.7,17.5c-20.2,7.5-44.8,18-73.9,31.4c-47.1,23-84.3,34.5-111.9,34.5c-12.9,0-25.9-2.4-39-7.2
	c-48.2-21.2-72.3-58.4-72.3-111.7c0-29.6,8-63.4,23.9-101.4c11.4-26.1,26.6-52.7,45.6-79.9c10.7-15.6,26.9-35,48.5-58
	c19.4-18.9,34.3-32,44.6-39.4c41.2-30.2,77.6-45.4,109-45.4h2.9c15.5,0,29.5,3.9,41.9,11.8c10.7,8.9,16.1,19.1,16.1,30.4
	c0,2.5-0.4,4.7-1.2,6.8c-2.3,2.8-3.5,5.4-3.5,7.8l0.2,1.9c1.7,5.2,4.8,7.8,9.5,7.8c1.2,0,2.1-0.1,2.7-0.4c7.1-2.8,11-10.6,11.6-23.3
	c0-5.3-0.9-10.8-2.7-16.5c-5.6-15.5-14.6-26.8-27.1-33.9c-15.4-7.6-29.6-11.4-42.7-11.4h-12.6c-17.6,0-39.7,6.1-66.3,18.2
	c-10.7,5.3-23.4,12.8-38,22.5c-13.4,8.9-31,23.5-52.5,43.8c-15.9,16.4-28.3,30.1-37.2,41.1c-15,19.1-25.8,34.3-32.4,45.4
	c-12.8,19.9-23.5,39.4-32,58.6c-18.2,42-27.3,78.4-27.3,109.2v9.1c0,25.2,6.5,49,19.6,71.4c7.1,12.1,17.9,23.9,32.4,35.1
	c24.8,17.7,49.6,26.6,74.3,26.6h8.9c16.4,0,37.4-4.5,62.8-13.6c20.2-7.6,46.2-18.9,78.1-33.7c50.4-23.8,94.4-35.7,132.1-35.7
	c4.7,0,7.7-2.8,9.1-8.5v-2.3c0-0.6-0.2-1.3-0.6-1.9C509.8,1019.7,506.5,1017.5,501.8,1017.5z M609,763.1h-0.8c-2.3,0-4.5,1-6.6,3.1
	c-1.9,3.2-6.5,12-13.8,26.4c-5,9.4-7.6,15.1-7.6,17.1c0.9,6.1,3.9,9.1,8.9,9.1h0.2c1.9,0,3.7-0.5,5.4-1.6c1.4-0.8,6-9.2,13.8-25.4
	c6.1-11,9.1-17.5,9.1-19.4c0-0.8-0.1-1.6-0.2-2.3C615.8,765.4,613,763.1,609,763.1z M1027.2,741.2v1.6c0,3.6-2.1,6.3-6.2,8
	c0,0.3-15.4,0.8-46.1,1.7c-13.7,0.6-26.5,1.4-38.4,2.1c-32.4,2.1-58,4.2-76.8,6.4c-14.2,1.6-25.6,3-34.1,4.5
	c-44.2,73.3-75.2,128.6-92.9,166c-9.6,21.5-14.3,36.7-14.3,45.8c0,5.3,1.9,8,5.6,8h1.9c8.9,0,23.1-6.7,42.7-20
	c7.6-5.2,16.9-13.1,27.9-23.7c11.6-11.5,19.8-20.8,24.4-27.9c2.6-3.7,6.1-9.2,10.5-16.3c1.9-1.7,4.1-2.5,6.4-2.5
	c4,0,6.8,2.2,8.3,6.6c0.1,0.9,0.2,1.7,0.2,2.3c-0.1,4.5-7.4,15.8-21.9,33.9c-13.3,14.6-23.1,24.3-29.5,29.1
	c-11.2,9.3-20.9,16.3-28.9,20.9c-16.7,10.1-29.9,15.1-39.8,15.1h-2.9c-10.1,0-17.1-5.3-21.1-15.9c-0.8-3-1.2-5.6-1.2-7.8v-3.9
	c0-5.6,1.4-12.9,4.3-21.9c-13.1,10.5-31.1,15.7-54.2,15.7h-6.4c-16.5,0-28.1-6.1-34.7-18.4c-1.3-3.6-1.9-6.8-1.9-9.5v-1.7
	c0-1.6,0.2-3.1,0.4-4.7c-9.8,11.7-19.2,20.4-28.4,26.2c-8.9,5.4-16.8,8.1-23.7,8.1h-3.5c-8.5,0-15.4-3.6-20.7-10.9
	c-2.7-4.9-4.1-9.8-4.1-14.5v-5c0-0.6,0-1.3,0-1.9c-0.8,0.9-1.7,1.9-2.6,2.9c-19.5,19.7-35.9,29.5-49.1,29.5h-3.9
	c-8.9,0-15.3-4.6-19-13.8c-0.9-3-1.4-6.1-1.4-9.5c0-15.1,9.6-40.9,28.9-77.4c2.1-4.9,3.1-8.9,3.1-12c0-4.9-3.2-10.2-9.5-15.9
	c-8.1,18.4-19.5,41.4-34.1,69c-2,2.3-4,3.7-5.8,4.3c-1.4,1.9-3.5,3.9-6.2,6.1c-33.6,32.8-59.7,49.3-78.3,49.3
	c-8.5,0-14.3-3.6-17.3-10.7c-0.6-2.1-1-4-1-5.8V951c0-8.9,7.8-27.9,23.3-56.8c11.6-22.4,17.5-37.5,17.5-45.4v-0.2
	c0-1.7-0.3-2.5-0.8-2.5h-0.8c-11.6,1.9-29.7,16.3-54.1,43c-34.5,39.8-53,70.9-55.5,93.3c0,2.6,1,5.2,3.1,7.8c0.6,0.9,1,2.2,1,3.9
	c-0.4,5.8-2.8,8.7-7.4,8.7h-2.1c-4.8,0-8.9-4.1-12.2-12.2c-0.8-2.5-1.2-4.7-1.2-6.8v-5c0-16.5,17.5-53.6,52.4-111.3l95-155.3
	c6.2-11,10.2-17.4,12-19.2c1.3-1.3,2.8-1.9,4.7-1.9c6.6,0,9.9,2.9,9.9,8.7v0.2c0,2.3-2.5,7.1-7.4,14.3
	c-16.2,27.1-45.5,75.3-88,144.5v0.2c21.6-20.4,37.9-30.6,49.1-30.6h2.1c7.6,0,13.2,4.2,16.9,12.6c0.8,2.7,1.2,5.2,1.2,7.6
	c0,11.8-7,30.7-20.9,56.8c-10.5,20-16.9,34.2-19.2,42.5c-0.1,0.8-0.2,2-0.2,3.7c12.7,0,33.5-13.5,62.4-40.5c5-5,8.6-8.3,10.7-10
	c0.9-2.5,2.7-6.1,5.4-10.9c8.3-15.3,17.8-34.6,28.5-58.2c1-2.5,1.6-3.8,1.6-4.1c-9.7-9.4-14.5-19.5-14.5-30.2
	c0-12.4,5.6-21.9,16.7-28.5c3.6-1.6,6.9-2.3,9.9-2.3h2.3c6.9,0,12.3,2.8,16.3,8.5c1.6,2.7,2.3,5.8,2.3,9.1v1.9
	c0,7.6-3.2,19.5-9.5,35.5c14.2,10.7,21.3,22.5,21.3,35.3c0,8.5-4.5,20.7-13.6,36.6c-12.2,25.1-18.2,42.7-18.2,52.9
	c0,1.9,0.5,2.9,1.4,2.9c0.4,0,0.7,0.1,1,0.4c13.1,0,31.1-14.5,54.1-43.6c5.2-6.4,8.8-10.3,10.7-11.6c6.6-17,16.2-37.3,28.9-61
	c2.1-3.9,5-5.8,8.7-5.8c3.9,0,6.7,2.2,8.5,6.6c0.3,0.6,0.4,1.7,0.4,3.1c0,1.7-2.7,7.3-8.1,16.9c-20.8,41-31.2,69.8-31.2,86.5
	c0.4,6.1,1.7,9.1,3.9,9.1c1,0.5,2.3,0.8,3.9,0.8h1.6c11.9,0,27.3-12.3,46.2-36.8l5.5-7.6c0.4-2.1,3.3-6.9,8.9-14.5
	c21.3-31,34.1-49.4,38.2-55.1c6.1-6.3,12.9-9.5,20.6-9.5h3.3c9.8,0.5,15.8,3.5,18,8.9c0.4,1,0.5,2,0.4,2.9c-1,5.8-3.9,8.7-8.7,8.7
	c-2.2,0-4.6-0.5-7.1-1.6c-2.5-1.1-5.1-1.2-7.7-0.3c-4.7,1.3-6.9,3.7-6.8,7.2c0,4.7,6.5,15.7,19.4,33.2c7.1,11,10.7,22.4,10.7,34.1
	c0,6.5-1.5,13.3-4.5,20.6c6.5-4.9,13.2-12,20.4-21.1c6.9-8.9,12.1-15.3,15.9-19.2c0,0,0,0,0,0c7.9-15.6,17.5-33.3,28.9-53.1
	c14.7-25.6,30.1-51.7,46-78.3h-0.2c-23.8,4.4-41.6,9-53.5,14l-11.8,5.6c-1,0-1.8,0.1-2.3,0.2c-3.5,0-6.2-2.1-8.1-6.4
	c-0.1-0.9-0.2-1.7-0.2-2.3v-0.6c0-4.1,3.2-7.4,9.7-9.9c10.6-5,24.8-9.6,42.5-13.8c10.2-2.2,22.2-4.5,36.1-7
	c21.5-36.1,32.6-54.7,33.5-55.8c2.1-1.4,3.7-2.1,5-2.1h1.2c4.3,0,7.1,2.3,8.5,6.8v2.3c0,1.9-2,5.9-6,12L837.2,746
	c23.5-3.2,56.5-6.3,98.9-9.1c43.2-2.2,71-3.3,83.6-3.3c2.6,0,4.9,1.8,7,5.4C1027.1,740.1,1027.2,740.8,1027.2,741.2z M472.7,786.2
	c0-0.3-0.1-0.4-0.4-0.4c-5.3,1.4-8,4.5-8,9.2c-0.1,4.7,0.9,8.7,3,11.9h0.2C470.9,796.6,472.7,789.7,472.7,786.2z M678.4,919.4
	c0-10.1-4.8-21-14.3-32.8c-4.9-7-8.5-12.7-10.7-17.1h-0.2L624.3,912h0.2c8.8-5.8,18.4-8.7,28.9-8.7h1.9c4.4,0,7.4,1.7,9.1,5.2
	c0.5,1.2,0.8,2.5,1,3.9c0,4.1-2.6,7-7.8,8.7h-3.9c-11.6,0-20.3,4.3-26,12.8c-1,2.3-1.6,4.3-1.6,5.8v1c0,5.8,5.8,9.2,17.5,10.3h5
	c8.5,0,16.2-3.7,22.9-11.2C676.1,933.9,678.4,927.1,678.4,919.4z"/>
</svg>
