<?xml version="1.0" encoding="utf-8"?>
<!-- Generator: Adobe Illustrator 22.1.0, SVG Export Plug-In . SVG Version: 6.00 Build 0)  -->
<svg version="1.1" id="Layer_1" xmlns="http://www.w3.org/2000/svg" xmlns:xlink="http://www.w3.org/1999/xlink" x="0px" y="0px"
	 viewBox="0 0 1080 1296" style="enable-background:new 0 0 1080 1296;" xml:space="preserve">
<path d="M189.4,448.3c7.5,5.2,15.3,9.4,23.3,12.6c18.6,6.4,36,9.7,52,9.7h9.2c17.7,0,37.9-3.9,60.5-11.6c16.3-5.9,32.3-13.8,48-23.5
	c13.9-8.6,28-19.2,42.4-31.8c3.7-2.9,12.1-11.1,25.3-24.7c9.3-10.3,17.6-20.2,24.8-29.7c11.5-15.9,20.7-30.1,27.6-42.8
	c8.8-16,16.6-33.8,23.3-53.7c6.8-22.9,10.3-41.1,10.3-54.7v-14.9c0-7.2-1.2-16-3.7-26.3c-2.7-9.7-5.4-16.9-8.2-21.7
	c-2.3-5.4-6.7-12.1-13.4-20.2c-6.2-6.7-11.2-11.4-14.9-14.1c-7-5.1-13.8-9.1-20.2-12.2c-22.8-10.4-48.4-15.6-76.7-15.6h-10.3
	c-19.2,0-40.2,2.7-63,8.2c-15.3,4.3-27.7,8.7-37.5,13.2c-10.8,4.8-22.1,11.4-33.9,20.1c-20.6,16.7-30.9,32.8-30.9,48.3
	c0,0.7,0,1.8,0.1,3.3c0.8,7,3.3,10.6,7.6,10.6l1.9-0.1c3.6-1.3,5.4-3.6,5.4-6.8c-0.6-3.8-0.9-5.9-0.9-6.5c0-8.9,5.6-19,16.9-30.2
	c9-7.9,16.6-13.6,22.7-16.9c34-19.3,72.8-29,116.5-29c39.3,0,70.1,8,92.2,24.1c24.2,18.1,36.3,44.6,36.3,79.5
	c0,30.9-9.8,65.5-29.3,103.6c-7.7,14.7-16.4,28.5-25.9,41.5c-5.5,8.5-15.9,21.1-31.2,37.8c-12.9,13-22.4,21.9-28.5,26.6
	c-46.5,37.8-92.6,56.6-138.2,56.6c-13.6,0-26.7-1.7-39.2-5.2c-11.4-2.6-22.8-7.9-34.2-16.1c-4.9-3.5-10.4-8.8-16.5-16.1
	c-12.5-16.8-18.7-34.3-18.7-52.5v-4.6c0-17.5,5.8-35.3,17.5-53.2c2.4-4.1,7.5-10,15.5-17.8c22.3-19.6,47.1-29.4,74.5-29.4
	c4.7,0,8.6,0.2,11.9,0.7c12.3,1.1,23.5,4.9,33.7,11.3c0,0.5-0.2,1-0.6,1.5c-20.1,47.2-30.2,79.7-30.2,97.5v3.1c0,2.5,0.3,5,0.9,7.6
	c2.6,8,7.2,12,14,12c8.6,0,18.7-7.2,30.2-21.7c16.1-22.4,24.1-43.6,24.1-63.5c0-10.6-2.5-20.2-7.6-28.7c-3.7-5.4-8-9.9-12.9-13.2
	c3.5-9,16.3-41.1,38.5-96.3c8-19.5,12-29.8,12-30.8v-1.2c-1.2-4.3-3.5-6.4-7-6.4c-2,0-3.9,1-5.8,3c-1.2,2.5-17.9,43.8-50.1,124.1
	c-14.1-8.8-31-13.2-50.7-13.2c-20.3,0-39.7,4.9-58.1,14.6c-6.9,3.2-15.9,9.6-26.9,19.2c-6.3,6.3-11.1,11.6-14.3,15.8
	c-15.2,21.6-22.7,43.3-22.7,65.1v4.6c0,18.9,5.9,37.5,17.8,55.7C171.2,432.6,179.6,441.1,189.4,448.3z M325.7,281.7
	c8.1,7,12.2,16.5,12.2,28.4c0,12.5-4.1,26.4-12.2,41.8c-10.1,17-19.3,27-27.6,29.7c-0.7-1.3-1-3.2-1-5.6v-2.7
	C297,357.4,306.5,326.8,325.7,281.7z M574.7,338.1h3.6c8.7,0,18.2-3,28.5-9.1c3.8-1.4,10.4-6.5,19.8-15.3
	c10.6-11.9,16.1-19.5,16.5-22.9v-1.6c-1-4-3.2-5.9-6.5-5.9h-0.3c-2.4,0-4.1,0.7-5.1,2.1c-3.1,5.3-7.7,11.3-13.8,18.1
	c-14.1,14.1-27.7,21.1-41,21.1c-3.8,0-7.4-0.8-10.9-2.4c-5.6-2.5-8.5-6.9-8.5-13.2c0.1-2.8,0.8-6.3,2.2-10.7V298
	c3.2,0.6,7.1,1,11.7,1.3c15.3,0,30.2-6.1,44.9-18.3c14.1-13.1,21.1-24.9,21.1-35.5v-0.1c0-3-0.8-5.8-2.4-8.5
	c-3.8-4.9-8.6-7.3-14.4-7.3h-3.9c-7.6,0-17.4,4.2-29.3,12.5c-9.5,6.8-18.4,15.6-26.6,26.2c-11.3,15.7-16.9,28.8-16.9,39.4v3.4
	c0,5.3,1.9,10.6,5.8,15.9C556.5,334.4,565,338.1,574.7,338.1z M580.8,265.3c15.5-14.8,27.9-22.1,37.3-22.1c3.5,0,5.2,0.6,5.2,1.9
	v0.6c0,5-3.7,11.6-11.1,20.1c-13.3,13.3-27,19.9-41.2,19.9l-5.5-0.4C568.6,279.9,573.7,273.2,580.8,265.3z M637.6,314.5
	c0,6.7,3.1,12.6,9.4,17.7c6.1,4,11.9,5.9,17.2,5.9h3.6c1.5,0,3.5-0.2,5.9-0.7c12.5-3.5,24.6-12.5,36.4-27.2h0.1v0.1
	c-0.4,1.5-0.6,3.4-0.6,5.8v1.6c0,2.4,0.3,4.6,1,6.7c2.8,7.8,8.1,11.7,15.9,11.7c6.8,0,15-3.2,24.5-9.5c4-2.2,10.3-7.6,19-16.4
	c9.7-11,14.6-18,14.6-21.1v-1.8c-1.4-4-3.6-5.9-6.7-5.9c-3.3,0-5.7,1.5-7.3,4.5c-2.5,4.7-8.1,11.3-16.9,20.1
	c-12.1,10.4-21.2,15.6-27.2,15.6h-0.4c-1.3,0-1.9-1.1-1.9-3.4v-1.6c0-8.8,5.6-24,16.8-45.6c4.1-7,6.1-11.1,6.1-12.2v-1.6
	c0-0.7-0.4-1.8-1.2-3.3v-0.1c3.3-1.4,4.9-4.3,4.9-8.6c0-3.8-1.2-7.6-3.6-11.4c-4.9-6.4-10.6-9.7-17.2-9.7h-4.6c-1.4,0-3,0.2-4.8,0.6
	c-10.3,2.1-21.7,7.8-34.2,17.2c-11.7,8.8-22.4,19.4-32.3,31.8c-11.1,15.4-16.6,27.6-16.6,36.7V314.5z M666.9,281.2
	c2.2-3.5,8.6-10.3,19.3-20.4c17.7-15,31.6-22.4,41.6-22.4h0.6c5.2,0.5,7.7,2.7,7.7,6.7l-0.1,1.3c0,1.8,0.4,3.3,1.3,4.6v0.1
	c-0.2,0-0.9,0.4-2.2,1.2l-21.9,30.3c-19.4,27.4-35.2,41-47.4,41c-2-0.1-4-0.5-5.9-1.2c-5.3-1.7-7.9-4.9-7.9-9.7
	C652.1,304.7,657,294.2,666.9,281.2z M878.2,280.8h-1.9c-1-0.1-4,3-9.1,9.2c-17.6,22.3-31.5,33.4-41.5,33.4
	c-0.2-0.2-0.4-0.3-0.7-0.3c-0.7,0-1-0.7-1-2.2c0-7.8,4.7-21.4,14-40.6c6.9-12.2,10.4-21.6,10.4-28.1c0-9.8-5.5-18.8-16.3-27.1
	c4.9-12.3,7.3-21.4,7.3-27.2v-1.5c0-2.6-0.6-4.9-1.8-7c-3.1-4.4-7.2-6.5-12.5-6.5h-1.8c-2.3,0-4.8,0.6-7.6,1.8
	c-8.5,5.1-12.8,12.3-12.8,21.9c0,8.2,3.7,16,11.1,23.2c0,0.2-0.4,1.2-1.2,3.1c-8.2,18-15.5,32.9-21.9,44.6
	c-3.2,5.6-4.8,9.2-4.8,10.7v0.6c0,4.2,2.6,6.6,7.9,7.3c1.9,0,3.9-1.2,5.9-3.6c11.2-21.2,19.9-38.8,26.2-52.9
	c4.9,4.4,7.3,8.4,7.3,12.2c0,2.4-0.8,5.5-2.4,9.2c-14.8,27.9-22.1,47.7-22.1,59.3c0,2.6,0.3,5,1,7.3c2.9,7,7.7,10.6,14.6,10.6h3
	c10.1,0,22.6-7.5,37.6-22.6c13.2-14.7,19.8-23.4,19.8-26.2v-2.2C883.5,283.1,881.3,281,878.2,280.8z M820.4,213.9h-0.1
	c-1.6-2.5-2.4-5.5-2.3-9.1c0-3.6,2.1-6,6.2-7.1c0.2,0,0.3,0.1,0.3,0.3C824.4,200.6,823,205.9,820.4,213.9z M466.7,588.5
	c0-14.3,8.8-29.3,24.5-29.3c6.9,0,9.9,3.9,11.1,6.3c0.5,0.5,0.2,0.5,1.9,1.6l-4.1,2.2c-2.7-4.9-4.2-6.1-9.1-6.1
	c-13.8,0-20.1,13.8-20.1,25.9c0,17.3,11,32.3,25.1,32.3c5,0,11.3-2.5,16.9-6.7c7.5-6.3,11.6-16.8,13.5-27.4c0.6-3.6,0.8-6.6,0.8-9.7
	c0-19.3-11-36.7-20.5-52.1c-9.6-14.9-18.5-29.6-18.5-45.8c0-3.3,0.3-6.6,1.1-9.9c6-20.2,21.8-30,40.1-29.2c17.9,0.8,27,10,27.3,27.4
	c-0.6,6.4-1.9,10.5-3.8,13.5c-3.3,4.4-7.7,6.9-11.6,6.9c-4.5,0-9.4-2.4-13.3-6.1l1.9-3.8c3.9,3.6,7.7,6,11.3,6
	c3.3,0,6.1-1.7,8.5-5.2c1.7-3,3-7.2,3-11.1c0-6.6-1.6-16.2-9.9-16.2c-17.9-0.8-29.5,10.4-29.5,25.4c0,5.6,1.9,11.8,4.9,17.9
	c14.1,24.6,35.1,53,35.1,84.4c0,7.7-1.3,15.4-4.2,23.4c-6.3,15.7-19.8,26-42.5,26C481.9,628.9,466.7,613.6,466.7,588.5z
	 M760.9,482.1V482c-0.2,0.2-0.2,0.5-0.2,0.8c-1.3,6-5.2,34-5.2,58.8c0,21.3,3,40.5,13,40.5c2.5,0,5-2.5,7.5-6.1
	c5.5-8,10.7-22.3,13.5-30.4l1.9-5.8h1.2c1.7-17.9,9.4-40.6,29.3-40.6c8.8,0,13.6,6.6,15.7,14.6l-2.7,0.9c-2.2-3.9-2.2-9.6-8.2-9.6
	c-14,0-17.4,30.1-17.4,40.3c0,6-0.3,20.5,8.5,20.5c14.4,0,18.7-55.4,24.8-55.4c5.8,0,10.5,5,10.5,10.8c0,9.6-0.8,19.3-0.8,28.9
	c0,3.3-0.5,27.3,4.5,27.3c3.6,0,11.1-21,13.2-26l4.4-10.5l3.3,0.2c-1.7,5.5-6.3,15.8-9.7,24.8c-4.5,11.6-10.5,22.4-17.1,22.4
	c-11.9,0-14.9-34.3-15.5-43c-2.5,9.1-11.4,29.6-22.6,29.6c-13.8,0-20-13.6-20.5-25.8c-1.5,4.5-3.3,10-5.8,15.6
	c-3.8,8.2-11.4,26.3-22.9,26.3c-18.7,0-25.1-21.5-25.7-44.7c-11.7,24.3-17.9,35.5-21.7,41.3c-2.4,3-4.9,5-6.7,5
	c-10.5,0-12.9-16.5-12.9-33.6c0-11.4,1.7-22.7,1.7-34.7c0-11.8-0.8-20.2-5.6-20.2c-1.9,0-5,9.9-8.6,23.1
	c-3.8,12.9-8.8,30.7-14.1,43.3c-2.4,3.6-6.6,3.9-9.3,3.5c-4.9-1.3-5.6-4.9-5.6-16.5c0-1-0.1-3.9-0.1-7.8c-2,5-4.4,10.8-6.5,16.2
	c-4.5,11.6-10.5,22.4-17.1,22.4c-11.9,0-14.9-34.3-15.5-43c-2.5,9.1-11.4,29.6-22.6,29.6c-14.4,0-20.5-14.9-20.5-27.4
	c0-18.2,6.7-48.5,29.6-48.5c8.8,0,13.6,6.6,15.7,14.6l-2.7,0.9c-2.2-3.9-2.2-9.6-8.2-9.6c-14,0-17.4,30.1-17.4,40.3
	c0,6-0.3,20.5,8.5,20.5c14.4,0,18.7-55.4,24.8-55.4c5.8,0,10.5,5,10.5,10.8c0,9.6-0.8,19.3-0.8,28.9c0,3.3-0.5,27.3,4.5,27.3
	c3.6,0,11.1-21,13.2-26l4.4-10.5l0.2,0c0.4-11.7,1.7-25.3,6.2-25.3c10,0,10.8,3.3,10.8,14l0.2,23.1c4.5-14.6,5.6-19.3,6.9-23.7
	c9.3-31.4,11.6-36.9,22.1-36.9c13.3,0,15.7,13.6,15.7,26.7c0,19.3-2,38.1-1.4,58.7c0.8,4.2,6.3-6.9,20.9-36.4l1.4,0.1
	c0.1-15.3,1.6-31.5,3.3-44.1c1.1-8.3,2.2-14.9,2.2-18.8v-0.3c-3.3-1.3-7.1-2.2-10-2.2c-4.1,0-7.4,1.1-10,3.1c-3,2.4-3.9,6-3.9,12.7
	l-3.1,0.2c-1.1-8.9,2.4-14.3,7.5-16.9c2.7-1.4,6-2.2,9.6-2.2c3.1,0,6.6,0.3,11,1.6c0.3-1.1,0.6-3.1,0.9-5.8
	c1.3-6.7,2.7-15.7,5.5-15.7c5.8,0,12.2,4.4,12.2,10.7c0,3.6-0.6,7.2-1.1,10.5c-0.5,2-0.6,3.3-0.6,4.5l4.5,1.4
	c2.2,0.6,4.4,0.9,6.4,0.9c2.8,0,5.3-0.5,7.4-1.6c2.5-1.7,4.7-4.4,7.1-7.1l1.9-2.5l3.9,0.2c-1.1,1.1-1.4,1.6-2.5,3.5
	c-2.4,3-4.4,5.6-7.4,7.7c-2.7,1.9-6.6,3.1-10.8,3.1C768.6,484,765.1,483.2,760.9,482.1z M368.8,756.2c-0.3-0.9-0.4-1.7-0.2-2.4
	c0.3-1.3,1.1-2.3,2.4-3c1.3-0.7,2.6-0.8,3.9-0.3c0.5,0.2,1,0.5,1.4,1c0.4,0.4,0.9,0.9,1.3,1.2c1.5,1.4,2.9,2.7,4.5,3.9
	c3.2,2.6,6.5,4.5,10.1,5.7c2.1-1.5,4-3.8,5.8-6.7c1.8-2.9,3.5-6.2,5.1-9.8c1.6-3.6,3.2-7.3,4.7-11.2c1.5-3.8,3-7.4,4.5-10.7
	c1.6-3.4,3.1-6.9,4.7-10.4c1.6-3.5,3.4-6.8,5.6-9.9c0.4-0.7,1-1.5,1.8-2.3c0.7-0.8,1.5-1.6,2.4-2.2s1.7-1.2,2.7-1.7
	c0.9-0.5,1.8-0.7,2.7-0.7c0.8,0,1.5,0.2,2,0.7c0.5,0.5,0.6,1.1,0.2,1.9c-0.8,1.6-1.5,3.7-2.2,6.1c-0.7,2.4-1.4,5-2.1,7.7
	c-0.7,2.8-1.5,5.6-2.3,8.5c-0.8,2.9-1.7,5.6-2.6,8.2c-1.9,6-4.2,11.7-6.8,17.1c-2.7,5.4-6.3,10.5-10.8,15.3l-2.2,2.3
	c3.5,0,7.1-0.4,10.5-1.2c3.5-0.8,6.8-2,10.1-3.5c3.3-1.5,6.4-3.4,9.4-5.6c2.9-2.2,5.6-4.6,8-7.3c2.4-2.7,4.4-5.6,6.2-8.8
	c1.8-3.2,3.2-6.5,4.2-10.1c0.5-1.8,0.9-3.7,1.3-5.7c0.3-1.9,0.5-3.9,0.5-5.8c0-1.9-0.2-3.8-0.5-5.7c-0.3-1.9-1-3.7-1.9-5.5
	c-1.6-3.3-3.9-6-6.9-8.1c-2.9-2.1-6.1-3.6-9.5-4.6c-3.9-1.1-7.8-1.4-11.7-1c-4,0.4-7.7,1.4-11.4,3.1c-1.6,0.7-3.1,1.5-4.6,2.5
	c-1.5,1-2.8,2-4.1,3.2c-0.7,0.7-1.3,1.4-1.9,2.1c-0.6,0.7-1.1,1.5-1.5,2.3c-0.3,0.5-0.6,1.1-0.8,1.7c-0.2,0.6-0.5,1.1-0.9,1.6
	c-0.4,0.4-0.9,0.8-1.4,1.2c-0.6,0.3-1.2,0.6-1.9,0.8c-0.7,0.2-1.3,0.3-2,0.2c-0.7,0-1.3-0.2-1.8-0.5c-1.5-0.9-2.3-2.2-2.5-3.7
	c-0.1-1.5,0.1-3.1,0.8-4.7c0.7-1.6,1.5-3.1,2.6-4.5c1.1-1.4,2.1-2.6,2.9-3.5c2.8-2.8,6-5,9.6-6.5c3.6-1.5,7.4-2.5,11.3-3.1
	c3.9-0.5,7.8-0.6,11.9-0.4c4.1,0.3,8,1,11.8,2.1c3.8,1.2,7.4,2.9,10.7,5c3.4,2.2,6.2,4.9,8.6,8.2c2.3,3.2,4.1,6.8,5.2,10.6
	c1.1,3.8,1.7,7.8,1.7,11.8c0,4-0.4,8-1.3,12c-0.9,4-2.1,7.7-3.7,11.2c-1.6,3.5-3.5,6.7-5.8,9.8c-2.3,3-4.9,5.8-7.7,8.3
	c-2.8,2.5-5.9,4.7-9.2,6.6c-3.3,1.9-6.7,3.5-10.4,4.7c-3.9,1.3-7.8,2.2-11.8,2.7c-4,0.5-8,0.5-12,0.2c-4-0.3-7.9-1.1-11.8-2.3
	c-3.9-1.2-7.6-2.8-11.1-4.8c-1.6-1-3.2-2-4.8-3.1c-1.6-1.1-3-2.3-4.3-3.7c-0.5-0.5-1.1-1.1-1.8-1.8c-0.7-0.7-1.3-1.4-1.9-2.2
	C369.6,757.9,369.2,757.1,368.8,756.2z M591.1,709.3c-0.4-1.8-0.4-3.5,0.1-5c0.5-1.5,1.4-2.8,2.5-3.9c1.1-1.1,2.5-1.9,3.9-2.4
	c1.5-0.5,2.9-0.7,4.4-0.6c1.4,0.2,2.7,0.7,3.8,1.5c1.1,0.9,2,2.2,2.5,3.9c0.6,2,0.6,3.8,0,5.4c-0.5,1.6-1.4,2.8-2.5,3.8
	c-1.1,1-2.5,1.8-4,2.2c-1.5,0.5-3,0.6-4.5,0.4c-1.5-0.2-2.8-0.7-4-1.6C592.2,712.3,591.5,711,591.1,709.3z M672.5,749.4
	c0.9,3.2,2.7,5.9,5.4,7.9c2.6,2.1,5.7,3.5,9.1,4.2c3.4,0.7,7,0.8,10.9,0.2c3.8-0.6,7.4-1.9,10.8-3.9c2.2-1.3,4.2-2.7,6.1-4.4
	c1.9-1.7,3.7-3.4,5.2-5.2c1.6-1.8,2.9-3.5,4.1-5.3c1.2-1.7,2.2-3.3,2.8-4.8c0.7-1.4,1-2.6,0.9-3.6c-0.1-1-0.4-1.6-1-1.9
	c-0.6-0.3-1.3-0.1-2.3,0.5s-1.9,1.6-2.9,3.2c-2.4,3.9-5.1,7.3-8.1,10.2c-3,2.9-5.9,4.8-8.6,6c-2.2,1-4.5,1.6-6.8,1.9
	c-2.3,0.3-4.5,0.2-6.5-0.3c-2-0.5-3.6-1.5-4.9-2.9c-1.3-1.4-2-3.3-2.2-5.7c3.7,0.3,7,0.1,10-0.4c3-0.5,5.7-1.3,8-2.3
	c2.3-1,4.3-2.3,6-3.8c1.6-1.5,3-3,4-4.8c1.2-2.1,1.6-4.3,1.2-6.5c-0.4-2.2-1.4-4.3-3.1-6.1c-1.7-1.8-3.9-3.2-6.7-4.2
	c-2.8-1-5.9-1.2-9.4-0.7c-3.7,0.6-7.2,1.9-10.3,4.1c-3.1,2.2-5.7,4.8-7.8,7.9c-1,1.4-1.8,2.9-2.5,4.4c-0.2-0.2-0.3-0.4-0.6-0.5
	c-0.6-0.3-1.3-0.1-2.3,0.5c-1,0.6-1.9,1.6-2.9,3.2c-1.2,2-2.4,3.9-3.6,5.9c-1.2,2-2.4,3.8-3.6,5.5c-1.2,1.6-2.3,3-3.4,4.1
	c-1.1,1.1-2.1,1.7-3.1,1.8c-1.1,0.1-1.8-0.3-1.9-1.3c-0.1-1,0.1-2.3,0.6-3.9c0.5-1.6,1.1-3.5,1.9-5.7c0.8-2.1,1.6-4.3,2.3-6.5
	c0.7-2.2,1.3-4.3,1.7-6.4c0.4-2.1,0.5-3.8,0.1-5.4c-0.4-1.9-1.4-3.4-2.8-4.5c-1.4-1.1-3.2-1.6-5.2-1.6c-2.1,0-4.4,0.6-7,1.7
	c-2.6,1.1-5.3,2.9-8,5.3c-2.5,2.2-4.7,4.6-6.6,7.5c-1.9,2.8-3.6,5.8-5.1,9c0.6-1.9,1.3-3.8,2-5.6c0.7-1.8,1.4-3.5,2-5.1
	c0.7-1.6,1.3-3,1.9-4.2c0.6-1.2,1-2.2,1.4-2.9c0.7-1.5,0.6-2.6-0.3-3.6c-0.9-0.9-2.2-1.5-3.8-1.9c-1.6-0.3-3.2-0.3-4.8,0.1
	c-1.6,0.4-2.9,1.2-3.6,2.4c-1.5,2.3-2.8,5.3-4.1,8.8c-0.3,1-0.7,1.9-1,2.9c-0.1-0.1-0.3-0.3-0.4-0.3c-0.6-0.3-1.3-0.1-2.3,0.5
	s-1.9,1.6-2.9,3.2c-1.2,2-2.4,3.9-3.6,5.9c-1.2,2-2.4,3.8-3.6,5.5c-1.2,1.6-2.3,3-3.4,4.1c-1.1,1.1-2.1,1.7-3.1,1.8
	c-1.3,0.1-2.2-0.6-2.7-2.2c-0.5-1.6-0.5-3.8-0.1-6.6s1.2-5.9,2.3-9.5c1.2-3.6,2.7-7.3,4.6-11.2c0.6-1.2,0.4-2.4-0.6-3.5
	c-0.9-1.1-2.2-2-3.7-2.7c-1.5-0.6-3.1-1-4.7-1c-1.6,0-2.7,0.5-3.2,1.5c-1.7,2.8-3.2,6-4.5,9.6c-0.6,1.6-1.1,3.2-1.5,4.9
	c-0.5-0.2-1.2-0.2-2,0.1c-0.9,0.3-1.7,1-2.6,2.1c-0.8,1-1.8,1.9-3,2.8c-1.2,0.9-2.6,1.7-4,2.3s-2.9,1.2-4.4,1.6
	c-1.5,0.4-2.9,0.5-4.2,0.4c-0.1-0.8-0.2-1.5-0.3-2.2c-0.2-0.7-0.3-1.4-0.5-2.1c-0.8-2.3-2-4-3.6-5.3c-1.6-1.2-3.2-1.9-4.8-1.9
	c2.8-2.7,5.6-5.4,8.2-8.4c2.6-2.9,4.9-5.9,6.9-8.8c2-3,3.5-5.9,4.5-8.8c1-2.9,1.4-5.6,1.2-8.2c-0.2-1.6-0.9-2.9-2.1-3.9
	c-1.2-1-2.7-1.7-4.4-1.9c-1.7-0.3-3.5-0.2-5.4,0.4c-1.9,0.5-3.6,1.5-5.2,3c-2.1,1.9-4.4,4.8-7,8.7c-2.6,3.9-5.1,8.4-7.6,13.4
	c-2.5,5-4.9,10.4-7.1,16.1c-0.1,0.3-0.2,0.6-0.4,1c-0.2-0.2-0.3-0.4-0.6-0.5c-0.6-0.3-1.3-0.1-2.3,0.5c-1,0.6-1.9,1.6-2.9,3.2
	c-2.4,3.9-5.1,7.3-8.1,10.2c-3,2.9-5.9,4.8-8.6,6c-2.2,1-4.5,1.6-6.8,1.9c-2.3,0.3-4.5,0.2-6.5-0.3c-2-0.5-3.6-1.5-4.9-2.9
	c-1.3-1.4-2-3.3-2.2-5.7c3.7,0.3,7,0.1,10-0.4c3-0.5,5.7-1.3,8-2.3c2.3-1,4.3-2.3,6-3.8c1.6-1.5,3-3,4-4.8c1.2-2.1,1.6-4.3,1.2-6.5
	c-0.4-2.2-1.4-4.3-3.1-6.1c-1.7-1.8-3.9-3.2-6.7-4.2c-2.8-1-5.9-1.2-9.4-0.7c-3.7,0.6-7.2,1.9-10.3,4.1c-3.1,2.2-5.7,4.8-7.8,7.9
	c-2.1,3.1-3.5,6.4-4.3,10c-0.8,3.6-0.7,7.1,0.3,10.5c1,3.2,2.7,5.9,5.4,7.9c2.6,2.1,5.7,3.5,9.1,4.2c3.4,0.7,7,0.8,10.9,0.2
	c3.8-0.6,7.4-1.9,10.8-3.9c2.2-1.3,4.2-2.7,6.1-4.4c1.9-1.7,3.7-3.4,5.2-5.2c1.5-1.8,2.9-3.5,4.1-5.3c-0.6,1.9-1.2,3.9-1.7,5.8
	c-1.4,5.3-2.1,10.2-2.3,14.7s0.4,8.1,1.9,10.8c0.8,1.6,1.9,2.8,3.2,3.7c1.3,0.9,2.7,1.4,4.2,1.7c1.5,0.3,3,0.3,4.6,0
	c1.6-0.3,3-0.9,4.4-1.6c2.1-1.2,4-2.9,5.8-4.9s3.4-4.4,4.9-7c1.5-2.6,2.7-5.3,3.7-8.2c1-2.9,1.7-5.7,2-8.5c2.1-0.1,4.2-0.5,6.3-1.3
	c2.1-0.8,4.1-1.7,5.9-2.8c1.9-1.1,3.5-2.2,4.9-3.5c0.7-0.6,1.2-1.2,1.7-1.7c-0.6,3.3-0.8,6.4-0.7,9.3c0.1,3.2,0.8,5.7,2,7.5
	c1,1.6,2.3,2.8,3.9,3.7c1.6,0.9,3.3,1.4,5,1.7c1.7,0.3,3.5,0.2,5.1-0.2c1.7-0.4,3.1-1,4.3-1.9c1.3-1,2.7-2.5,4.1-4.3
	c1.4-1.9,2.8-3.9,4.2-6c1.4-2.1,2.6-4.2,3.8-6.3c0.2-0.4,0.5-0.8,0.7-1.2c-0.7,3.1-1.2,6.1-1.5,8.8c-0.3,3.1-0.3,5.4,0.1,6.9
	c0.6,2,1.5,3.4,2.7,4.2s2.4,1.3,3.7,1.4c1.2,0.1,2.3-0.2,3.2-0.8c0.9-0.6,1.3-1.3,1.2-2.2c0.7-3.2,1.8-6.3,3.4-9.4
	c1.6-3.1,3.2-5.9,4.9-8.4c1.7-2.5,3.4-4.7,4.9-6.5c1.6-1.8,2.7-2.9,3.4-3.5c2.8-2.4,4.9-3.5,6.3-3.1c1.3,0.3,1.7,1.5,1.2,3.5
	c-0.4,1.5-1,3.2-1.8,5.2c-0.8,1.9-1.5,3.9-2.2,5.9s-1.2,4-1.6,5.9c-0.4,2-0.4,3.8,0,5.4c0.4,1.7,1.2,3.1,2.6,4.3
	c1.3,1.1,2.9,1.9,4.7,2.3c1.8,0.4,3.7,0.4,5.7,0s3.9-1.3,5.7-2.6c1.6-1.2,3.1-2.7,4.6-4.6c1.5-1.9,2.9-3.8,4.2-5.8
	c1.3-2,2.5-4,3.6-5.9c0.3-0.5,0.6-1,0.8-1.5C671.5,744.4,671.8,746.9,672.5,749.4z M688.3,733.4c1.6-2.2,3.2-4,5.1-5.6
	c1.8-1.5,3.7-2.6,5.5-3.3c1.8-0.7,3.4-0.6,4.7,0c1,0.6,1.2,1.7,0.6,3.3c-0.6,1.6-1.8,3.4-3.6,5.1c-1.8,1.8-4,3.4-6.7,4.8
	c-2.7,1.4-5.7,2.2-8.9,2.3C685.7,737.9,686.8,735.6,688.3,733.4z M494,733.4c1.6-2.2,3.2-4,5.1-5.6c1.8-1.5,3.7-2.6,5.5-3.3
	c1.8-0.7,3.4-0.6,4.7,0c1,0.6,1.2,1.7,0.6,3.3c-0.6,1.6-1.8,3.4-3.6,5.1c-1.8,1.8-4,3.4-6.7,4.8c-2.7,1.4-5.7,2.2-8.9,2.3
	C491.4,737.9,492.5,735.6,494,733.4z M547.4,754.3c-0.9,3.1-2,6-3.2,8.7s-2.4,4.8-3.7,6.6c-1.2,1.7-2.3,2.5-3.1,2.3
	c-0.8-0.2-1.1-1.3-1.1-3.3c0-2,0.4-4.6,1.1-7.8c0.7-3.2,1.7-6.8,2.9-10.9c1.2-4.1,2.6-8.3,4.2-12.7c-0.1,1.5,0.2,2.9,1,4.4
	c0.8,1.5,2,2.8,3.6,4C548.9,748.3,548.3,751.2,547.4,754.3z M549.3,725.7c1.3-2.9,2.6-5.7,3.9-8.5c1.3-2.7,2.7-5.2,4-7.5
	c1.4-2.3,2.7-4.3,4-6c1.3-1.7,2.6-3.1,3.9-4.2c0.4,1.1,0.2,2.6-0.6,4.7c-0.9,2.1-2.1,4.3-3.7,6.7c-1.6,2.4-3.4,5-5.5,7.6
	C553.3,721.1,551.2,723.5,549.3,725.7z M827.5,1066.9c-25.4,0-30.8-122.6-30.8-144.2c31.5-37.9,49.1-102.9,49.1-151.7
	c0-13.9-3.7-36.6-21.7-36.6c-51.8,0-56.9,126.3-62.3,162.5c-6.4-3-13.5-4.4-20.3-4.4c-46.1,0-75.2,42.3-75.2,85.7c0,0,0,0,0,0.1
	c-8.4,10.3-18.5,18.2-32.8,18.2c1.7-8.5,2.7-15.9,2.7-25.1c0-24-8.8-76.5-41.3-76.5c-23.4,0-24.7,25.4-23,43.3
	c-2-6.8-10.8-22.3-19-22.3c-15.8,0-25.1,43.2-26.8,62l-1,0c-8.5,10.5-18.6,18.6-33.2,18.6c1.7-8.5,2.7-15.9,2.7-25.1
	c0-24-8.8-76.5-41.3-76.5c-23.4,0-24.7,25.4-23,43.3c-2-6.8-10.8-22.3-19-22.3c-15.6,0-24.8,42.1-26.7,61.3h-5.4
	c-3.7,13.5-29.5,22.3-42,25.7c0-19,1.7-36.6,1.7-55.5c0-20.7,0.3-70.8-29.8-70.8c-8.1,0-8.1,8.5-8.1,14.2
	c0,24.7-32.8,122.2-61.6,122.2c-33.5,0-47.7-51.8-47.7-77.9c0-51.8,32.5-155.4,97.2-155.4c13.2,0,20.3,11.9,20.3,23.7
	c0,14.6-7.4,28.4-23,28.4c-6.4,0-15.9-4.4-21-7.4l-4.1,6.4c8.5,5.8,17.6,8.5,27.4,8.5c18.3,0,28.8-21,28.8-36.9
	c0-20.7-14.9-32.5-35.2-32.5c-81.6,0-142.2,93.1-142.2,168c0,48.8,27.4,92.8,80.6,92.8c47.4,0,72.8-74.8,83.6-111.4l0.7,12.5
	c0,29.8-1,58.9-5.4,88.4c-32.2,31.5-71.8,74.5-71.8,122.9c0,18.3,7.4,40.3,29.1,40.3c56.9,0,73.1-129.3,79.9-171
	c19.3-7.1,37-11.4,47.7-27.6c0.1,33.2,2.3,82.5,46.4,82.5c30.8,0,48.8-38.9,58.9-62.6c14.8,0,27-7.9,36.2-17.8
	c0.2,33.1,3.3,80.4,46.4,80.4c30.8,0,48.8-38.9,58.9-62.6c14.3,0,26.2-7.4,35.3-16.8c1,37.3,8.7,84.2,55.1,84.2
	c28.4,0,41.3-20.7,48.8-45.4c4.4,20,19,66.4,44.7,66.4c16.3,0,30.5-23.4,43-49.4c12.2-25.4,22.7-53.5,26.1-65.7l-7.4,0.3
	C872.6,992.8,843.8,1066.9,827.5,1066.9z M246.2,1166.5c-9.5,0-10.5-16.6-10.5-23.4c0-41.3,33.2-84,63-110
	C294.6,1054.7,271.2,1166.5,246.2,1166.5z M442.6,1051.7c-17.6,0-19.3-44.4-19.3-56.2c0-18.6,2.7-35.2,8.1-52.5v-0.3
	c7.4,28.1,24,48.1,50.1,60.6C476.1,1016.8,460.2,1051.7,442.6,1051.7z M484.2,995.5c-26.1-9.8-46.4-38.3-46.4-66.7
	c0-11.9,1-25.7,15.9-25.7c25.7,0,33.2,48.4,33.2,67.4C486.9,978.5,486.9,987.7,484.2,995.5z M584.1,1051.7
	c-17.6,0-19.3-44.4-19.3-56.2c0-18.6,2.7-35.2,8.1-52.5v-0.3c7.5,28.1,24,48.1,50.1,60.6C617.6,1016.8,601.7,1051.7,584.1,1051.7z
	 M625.7,995.5c-26.1-9.8-46.4-38.3-46.4-66.7c0-11.9,1-25.7,15.9-25.7c25.7,0,33.2,48.4,33.2,67.4
	C628.4,978.5,628.4,987.7,625.7,995.5z M739.8,1051c-24.7,0-32.8-51.5-32.8-69.8c0-22,11.2-80.3,40-80.3c14.9,0,14.6,7.4,14.6,19.6
	c0,27.4,4.4,54.5,4.4,81.9C765.9,1017.8,760.2,1051,739.8,1051z M806.9,801.8c1.7-8.8,17.3-54.2,26.1-54.2c5.4,0,5.8,21,5.8,25.1
	c0,39.6-16.9,108.7-42.7,138.8C797.1,874.9,797.7,837,806.9,801.8z M310.1,685.6c18.9,1.9,37.2,6.3,53.2,17.5
	c0.6,0.4,1.2,0.8,1.9,1.1c1.6,0.7,3.4,1.1,4.6-0.3c1.2-1.5-0.3-2.7-1.1-3.8c-1.3-1.8-2-3.9-2.6-6c-3.3-13.1,3.5-31.6,14.7-39.7
	c7.6-5.5,15.7-8.4,25.3-6.5c4.3,0.8,8.9-0.1,10.9-4.5c2.1-4.6,1.7-9.3-1.8-13.4c-4.6-5.3-10-8.9-17.3-9.4
	c-18.8-1.4-34.6,9.7-42.3,25.9c-6.4,13.2-7.4,27.5-2.4,41.8c0.3,0.8,1,1.9,0.1,2.5c-0.5,0.3-1.8-0.2-2.5-0.7
	c-2.6-1.7-5.1-3.5-7.7-5.3c-8.2-5.6-15.8-11.9-22.2-19.6c-14.8-17.7-24.9-37.8-30.7-60.2c-6.1-23.2-5.9-45.9,2.2-68.5
	c6-16.8,16.7-28.4,34.7-32.7c13.9-3.3,31.2,0.6,40.2,15.1c7.7,12.3,4.9,28.3-6.8,35.4c-6.9,4.2-17.3,2.5-22-3.6
	c-2.8-3.6-3.2-8.4-0.4-11.1c2.9-2.8,6.3-4.5,10.1-1.1c0.8,0.7,1.5,1,2.4,0.1c0.7-0.8,0.7-1.7,0.3-2.6c-0.9-1.8-2.6-2.6-4.4-2.9
	c-8.1-1.5-15,5.4-13.4,13.5c1.2,6.3,4.9,10.4,11.2,12.2c17,5.1,30.6-8.7,30.6-23.3c-0.1-20.3-13.7-34.2-34.2-36.2
	c-12.6-1.2-24.4,2.1-34.2,10.6c-2,1.8-4.1,4-5.3-1.2c-2.3-9.9-10.4-16-20.4-16c-10,0-18.6,6.5-21.3,15.9c-1.3,4.8,1,10.6,5.1,12.8
	c5.6,3,12.3,2.4,15.8-1.4c3.9-4.3,2.2-10.7-3.3-12.4c-1.8-0.5-3.4-0.7-4.1,1.4c-0.6,2,1.3,1.8,2.4,2.1c2.1,0.7,3.5,2,3.1,4.5
	c-0.4,2.3-1.9,3.6-4,4c-3.4,0.6-6.9,0.4-9.1-2.4c-2.1-2.6-2.8-5.8-1.5-9.3c2.6-6.8,10.5-12.1,18.2-11.9c12,0.3,19.1,11.8,14.4,22.9
	c-2.6,6-6.2,11.6-8.3,17.9c-11.7,34.3-5.5,67.1,9.3,98.7c9.2,19.6,22.3,36.5,39.8,49.7c0.5,0.4,1.5,0.7,1.1,1.5
	c-0.3,0.8-1.3,0.6-1.9,0.4c-6.4-1.6-12.8-3.1-19.3-4.1c-21-3-40.2,0.9-54.6,17.5c-14.6,16.8-9.2,38.7,8,50
	c9.9,6.5,21.5,6.1,32.3,1.4c6.7-2.9,11.1-8.6,11.4-16.3c0.3-9.9-6.8-22.3-17.6-25.3c-6.3-1.8-12.8,0.2-15.1,5.4
	c-2.6,5.8,0.2,13.9,5.8,16.7c1.9,1,3.9,1.1,5.8,0.4c1.6-0.6,2.4-2,2-3.5c-0.5-2-2-0.9-3-0.4c-2.3,1.1-3.9,0-5.2-1.7
	c-2.5-3.1-3.3-6.7-1.3-10.2c2-3.4,5.5-4.1,9.2-3.1c7.9,2.2,12.3,7.8,15,15.4c3.3,9.3-3.7,17.3-10.2,19.9c-13.3,5.3-28,0.7-35.7-10.3
	c-9.4-13.5-5.1-28.7,3.8-37.8C278.8,689.2,293.6,684,310.1,685.6z M359.6,643.5c9.9-12.5,21-21,37.2-20c7,0.5,12,4.2,16.3,9.1
	c2.2,2.4,2.5,5.9,1,8.8c-1.5,3-4.4,3.5-7.6,2.8c-25.7-5.4-44.6,20-45.4,39.7c-0.1,2.4,0,4.8-0.1,7.1c0,1.1,1.1,2.7-0.6,3.2
	c-1.1,0.3-1.6-1.3-2.1-2.2C350.5,675.4,350.9,658.9,359.6,643.5z M355.5,596.4c2.2,2.8,1.1,8-2.8,13.1c-3.8,5.3-9.1,9-13.6,13.5
	c-4.2,4.2-8.3,8.3-10.3,14.1c-0.3,0.9-0.4,2.5-1.8,2.3c-1.3-0.2-1.2-1.7-1.5-2.7c-1.2-3.7-1.2-7.5-0.8-11.4
	c0.8-8.3,3.4-16.1,6.1-23.9c1.3-3.9,4-7.1,7.7-9C344.7,589.1,351.1,590.7,355.5,596.4z M267.7,647c0-0.1,0.1-0.1,0.1-0.2
	c-4.6-3.2-9.4-6.4-13.9-9.7c-2.8-2-4.2-4.9-2.2-8.1c2.1-3.3,5.2-3.9,8.5-1.7c12.6,8,24,17.3,30.8,31.1c0.3,0.6,0.9,1.7,0.7,1.9
	c-0.8,0.8-1.6,0.1-2.4-0.3C282.1,655.6,274.9,651.3,267.7,647z"/>
</svg>
