<?xml version="1.0" encoding="utf-8"?>
<!-- Generator: Adobe Illustrator 22.1.0, SVG Export Plug-In . SVG Version: 6.00 Build 0)  -->
<svg version="1.1" id="Layer_1" xmlns="http://www.w3.org/2000/svg" xmlns:xlink="http://www.w3.org/1999/xlink" x="0px" y="0px"
	 viewBox="0 0 1080 1296" style="enable-background:new 0 0 1080 1296;" xml:space="preserve">
<style type="text/css">
	.st0{fill-rule:evenodd;clip-rule:evenodd;fill:#05823F;}
	.st1{fill-rule:evenodd;clip-rule:evenodd;fill:#B41316;}
</style>
<path class="st0" d="M536.2,828.1c1.2,0,1.8-0.6,1.8-1.8v-0.4c0-0.9-0.4-1.4-1.3-1.7c-1.7-0.4-3-1.2-3.9-2.6c-0.9-1.3-1.4-2.7-1.4-4
	V708.8c0-1.3,0.5-2.7,1.4-4.1c0.9-1.4,2.2-2.2,3.9-2.5c0.9-0.2,1.3-0.9,1.3-1.8V700c0-1.2-0.6-1.8-1.8-1.8h-30.8
	c-1.2,0-1.8,0.6-1.8,1.8v0.4c0,1,0.4,1.6,1.3,1.8c1.7,0.2,3,1.1,3.9,2.5c0.9,1.4,1.4,2.8,1.4,4.1v31c-3.9-2.1-8-3.1-12.3-3.1
	c-4.6,0-9,1.2-13.1,3.6c-4.1,2.4-7.6,5.7-10.6,9.8c-3,4.2-5.4,9-7.2,14.6c-1.8,5.6-2.7,11.5-2.7,17.9c0,6.4,0.9,12.3,2.7,17.9
	c1.8,5.6,4.2,10.4,7.2,14.5c3,4.1,6.5,7.3,10.6,9.7c4.1,2.4,8.5,3.6,13.1,3.6c4.3,0,8.4-1,12.3-3.1v3.1H536.2z M505.8,818.7
	c-1.7,1.8-3.6,2.7-5.7,2.7c-1.7,0-3.4-1-5.1-3c-1.7-2-3.3-4.8-4.7-8.3c-1.4-3.5-2.5-7.7-3.4-12.4c-0.9-4.7-1.3-9.7-1.3-15.1
	c0-5.4,0.4-10.4,1.3-15.1c0.9-4.7,2-8.8,3.4-12.4c1.4-3.5,3-6.4,4.7-8.4c1.7-2.1,3.4-3.1,5.1-3.1c2.2,0,4.1,0.9,5.8,2.6
	c1.7,1.7,3.1,4,4.3,6.8v58.5C509,814.4,507.5,816.9,505.8,818.7z M596.2,750.6c1.8-1.8,4.1-2.8,6.8-2.8c-0.5-1-1.3-1.8-2.6-2.6
	c-1.2-0.7-3.1-1.1-5.5-1.1c-4.8,0-8.6,1.3-11.6,3.9c-2.9,2.6-5.2,5.6-6.7,9.2c-1.5,3.5-2.6,7.2-3.1,10.8s-0.8,6.7-0.8,9v40.7
	c0,1.3,0.5,2.7,1.4,4c0.9,1.3,2.2,2.2,3.9,2.6c1,0.2,1.5,0.8,1.5,1.7v0.4c0,1.2-0.6,1.8-1.8,1.8h-31c-1.2,0-1.8-0.6-1.8-1.8v-0.4
	c0-0.9,0.5-1.4,1.5-1.7c1.7-0.4,3-1.2,3.9-2.6c0.9-1.3,1.3-2.7,1.3-4v-70.6c0-1.3-0.4-2.7-1.3-4c-0.9-1.3-2.1-2.2-3.9-2.6
	c-1-0.2-1.5-0.8-1.5-1.7v-0.4c0-1.2,0.6-1.8,1.8-1.8h26v7.7c-0.1,0.1,0.3-0.2,1.2-1c0.9-0.8,2.3-1.7,4-2.7c1.8-1,3.9-1.9,6.3-2.8
	c2.4-0.9,5.1-1.3,8.1-1.3c3.8,0,7,0.5,9.5,1.7c2.6,1.1,4.6,2.6,6.2,4.4c1.6,1.8,2.7,3.9,3.4,6.2c0.7,2.3,1,4.6,1,7
	c0,2.7-0.9,5.2-2.8,7.5c-1.8,2.3-4.1,3.5-6.8,3.5c-2.7,0-5-0.9-6.8-2.8c-1.8-1.8-2.8-4.1-2.8-6.8
	C593.4,754.7,594.3,752.4,596.2,750.6z M619.5,817.5v-70.2c0-1.3-0.4-2.7-1.3-4.1c-0.9-1.4-2.1-2.2-3.9-2.5c-1-0.2-1.5-0.9-1.5-1.8
	v-0.4c0-1.2,0.6-1.8,1.8-1.8h31c1.2,0,1.8,0.6,1.8,1.8v0.4c0,1-0.5,1.6-1.5,1.8c-1.7,0.2-3,1.1-3.9,2.5c-0.9,1.4-1.4,2.8-1.4,4.1
	v70.2c0,1.3,0.5,2.7,1.4,4.1c0.9,1.4,2.2,2.2,3.9,2.5c1,0.2,1.5,0.9,1.5,1.8v0.4c0,1.2-0.6,1.8-1.8,1.8h-31c-1.2,0-1.8-0.6-1.8-1.8
	v-0.4c0-1,0.5-1.6,1.5-1.8c1.7-0.2,3-1.1,3.9-2.5C619,820.2,619.5,818.8,619.5,817.5z M630.1,729.1c-2.9,0-5.4-1-7.5-3.1
	c-2.1-2.1-3.1-4.6-3.1-7.5s1-5.4,3.1-7.5c2.1-2.1,4.6-3.1,7.5-3.1s5.4,1,7.5,3.1c2.1,2.1,3.1,4.6,3.1,7.5s-1,5.4-3.1,7.5
	C635.5,728.1,633,729.1,630.1,729.1z M662.2,817.5v-70.4c0-1.3-0.4-2.7-1.3-4c-0.9-1.3-2.1-2.2-3.9-2.6c-1-0.2-1.5-0.9-1.5-1.8v-0.4
	c0-1.2,0.6-1.8,1.8-1.8h26v10.8c1.8-2.7,4.3-5.2,7.4-7.4c3.1-2.3,7.1-3.4,12-3.4c5.3,0,9.4,0.9,12.6,2.6c3.1,1.7,5.5,3.9,7.2,6.5
	c1.7,2.6,2.8,5.5,3.3,8.6c0.5,3.1,0.8,6.1,0.8,8.9v54.5c0,1.3,0.5,2.7,1.4,4c0.9,1.3,2.2,2.2,3.9,2.6c1,0.2,1.5,0.9,1.5,1.8v0.4
	c0,1.2-0.6,1.8-1.8,1.8h-31c-1.2,0-1.8-0.6-1.8-1.8v-0.4c0-1,0.5-1.6,1.5-1.8c1.7-0.4,3-1.2,3.9-2.6c0.9-1.3,1.3-2.7,1.3-4V763
	c0-4.4-0.7-8.1-2.1-11.1c-1.4-3-3.8-4.5-7.2-4.5c-2.4,0-4.5,0.5-6.1,1.6c-1.6,1-2.9,2.3-3.8,3.9c-1,1.5-1.7,3.2-2.1,5
	c-0.4,1.8-0.6,3.5-0.6,5.1v54.5c0,1.3,0.5,2.7,1.4,4c0.9,1.3,2.2,2.2,3.9,2.6c1,0.2,1.5,0.9,1.5,1.8v0.4c0,1.2-0.6,1.8-1.8,1.8h-31
	c-1.2,0-1.8-0.6-1.8-1.8v-0.4c0-1,0.5-1.6,1.5-1.8c1.7-0.4,3-1.2,3.9-2.6C661.7,820.2,662.2,818.8,662.2,817.5z M872.4,846.6
	c-0.7-1.7-1.4-2.6-2.1-2.6c-1.1,2.3-2.5,4.4-4.2,6.2c-1.5,1.6-3.4,3-5.9,4.3c-2.4,1.3-5.4,1.9-9,1.9c-6.8,0-12.9-1.5-18.2-4.6
	c-5.3-3.1-10-7-14.2-11.8c-4.2-4.8-8-10.2-11.3-16.2c-3.3-6-6.3-11.9-9.1-17.9c-2.8-5.9-5.3-11.5-7.8-16.8
	c-2.4-5.3-4.9-9.5-7.3-12.8c3.4-1.5,6.8-3.3,10.2-5.6c3.4-2.3,6.4-4.7,9-7.3c2.6-2.6,4.8-5.3,6.4-8.2c1.6-2.8,2.5-5.6,2.5-8.4
	c0-4.6-1.7-8.4-5.2-11.4c-3.5-2.9-7.5-4.4-12-4.4c-4.9,0-9,1-12.2,3.1c-3.2,2.1-5.8,4.3-7.8,6.8c-2.2,2.9-4,6.2-5.3,9.9v-34.3
	c16.6,0,30.3-1.7,40.9-5.2c10.6-3.5,18.7-7.8,24.1-13c5.4-5.2,8.5-10.8,9.2-16.9c0.7-6.1-0.6-11.7-3.9-16.9
	c-3.2-5.2-8.3-9.5-15.1-12.9c-6.8-3.4-15-5.1-24.6-5.1c-9.8,0-17.9,2-24.3,5.9c-6.4,3.9-11.6,8.8-15.5,14.8
	c-3.9,5.9-6.7,12.5-8.4,19.6c-1.7,7.2-2.8,13.9-3.3,20.3c-6.1-1.6-12.5-3.7-19.3-6.2c-6.7-2.6-13.5-5.2-20.4-8
	c-6.9-2.8-13.9-5.5-20.9-8.3c-7-2.8-13.9-5.3-20.5-7.6c-6.7-2.3-13.1-4.1-19.3-5.5c-6.2-1.4-11.9-2.1-17.1-2.1
	c-10.6,0-19.3,1.2-25.9,3.7c-6.6,2.4-11.7,5.5-15.3,9.1c-3.6,3.6-6,7.5-7.1,11.8c-1.1,4.3-1.4,8.2-0.8,11.8c0.5,3.6,1.6,6.6,3.2,9.1
	c1.6,2.4,3.3,3.7,5.1,3.7c0-1.6,0.6-3.9,1.9-6.9c1.3-3,3.5-6,6.7-8.9c3.2-2.9,7.5-5.5,12.8-7.7c5.4-2.2,12.1-3.3,20.2-3.3
	c7.6,0,15.8,1,24.7,3c8.9,2,18.2,4.3,28.1,7c9.8,2.6,20.1,5.3,30.7,7.9c10.6,2.6,21.6,4.6,32.8,5.8v1.3v101c0,1.3-0.5,2.7-1.4,4
	c-0.9,1.3-2.2,2.2-3.9,2.6c-1,0.2-1.5,0.8-1.5,1.7v0.4c0,1.2,0.6,1.8,1.8,1.8h31c1.2,0,1.8-0.6,1.8-1.8v-0.4c0-0.9-0.4-1.4-1.3-1.7
	c-1.7-0.4-3-1.2-3.9-2.6c-0.9-1.3-1.4-2.7-1.4-4v-37.6c3.3,0,6,1.4,8,4.2c2,2.8,3.8,6.6,5.2,11.3c1.5,4.7,2.8,10,4.1,16
	c1.3,5.9,2.8,12,4.7,18.2c1.8,6.2,4.1,12.2,6.7,18.2c2.6,5.9,6,11.2,10.2,16c4.2,4.7,9.3,8.5,15.4,11.3c6.1,2.8,13.5,4.2,22.2,4.2
	c5.6,0,10.2-0.9,13.8-2.6c3.6-1.7,6.5-3.9,8.6-6.5c2.1-2.6,3.6-5.5,4.4-8.5c0.8-3.1,1.2-5.9,1.2-8.5
	C873.4,850.5,873.1,848.4,872.4,846.6z M768.9,700.5c0.1-4.4,0.5-9.4,1.2-14.9c0.7-5.6,2.1-10.8,4.2-15.7c2.1-4.9,5.2-9,9.3-12.4
	c4-3.4,9.5-5,16.3-5c4.5,0,8.6,1.4,12.4,4.3c3.7,2.9,6.5,6.4,8.3,10.7c1.8,4.3,2.5,8.9,2,13.9c-0.5,5-2.6,9.7-6.4,13.9
	c-3.8,4.3-9.5,7.9-17.1,10.7c-7.6,2.9-17.6,4.3-30,4.3h-0.2V700.5z M779.6,767c-2,1.3-3.9,2.4-5.6,3.2c-2.4,1.1-4.2,1.7-5.1,1.7
	v-4.4c0-4.3,1.2-8.1,3.5-11.5c2.3-3.4,4.9-5.9,7.7-7.7c2.8-1.8,5.4-2.5,7.7-2.2c2.3,0.3,3.5,1.9,3.5,4.9c0,2.2-0.6,4.3-1.7,6.2
	c-1.2,2-2.6,3.8-4.3,5.4C783.5,764.2,781.6,765.7,779.6,767z M773.3,911.2c1.5-5.4,2.5-10.9,2.9-16.4c0.3-3.9,0.4-7.6,0.1-11
	s-0.5-6.4-0.9-8.8c-0.5-2.9-1.1-5.6-1.7-7.8c-1.3-3.3-2.7-5.8-4.3-7.6c-1.6-1.8-3-3.1-4.3-3.9c-1.6-1-3.2-1.6-4.7-1.7
	c-2.9-0.2-5.5,0.2-7.6,1.2c-1.1,0.7-2.1,1.3-2.9,2c-2.9,2.5-5.4,5.1-7.2,7.8c-1.9,2.8-3.4,5.3-4.5,7.6c-1.3,2.8-2.2,5.5-2.7,8.1
	c0-1.3-0.1-2.2-0.2-2.7c-0.3-2.5-0.8-4.2-1.3-5.4c-0.6-1.1-1.3-2-2.1-2.5c-0.8-0.7-1.7-0.9-2.7-0.7c-1.5,0.2-2.8,0.8-3.9,2
	c-1.1,1.1-2,4.1-2.5,8.8c-0.8,6.4-1.4,13.8-1.7,22.2c-0.3,8.4-0.6,16.8-0.7,25.1c-0.2,8.3-0.2,16-0.1,23.2c0.1,7.1,0,12.4-0.1,15.8
	c-0.3,9.5,0.3,16.3,1.8,20.6c1.5,4.2,4,6.4,7.2,6.4c1.1,0,2.1-0.8,2.9-2.5c0.8-1.6,1.4-3.4,1.7-5.4c0.5-2.3,0.8-4.9,1-7.8
	c0.5-4.4,0.9-9.6,1.1-15.7c0.2-6,0.4-12.5,0.6-19.4c1,0.5,2,0.9,3.2,1.2c1,0.3,2.2,0.5,3.6,0.6c1.4,0.1,3,0,4.8-0.4
	c2.4,0.8,4.7,2.1,6.6,3.9c1.8,1.5,3.4,3.4,4.9,5.9c1.5,2.5,2.4,5.6,2.7,9.6c-3.4,1.3-6.3,2.7-8.7,4.2c-2.4,1.5-4.3,2.9-5.8,4.2
	c-1.8,1.6-3.3,3.2-4.4,4.7c-2,2.1-3.3,4.3-4.2,6.6c-0.7,1.1-1.1,2.2-1.2,3.2c-0.7,2.1-1,4.2-1,6.1c0,1.8,0.4,3.6,1.1,5.3
	c0.7,1.7,2.1,3,4,3.8c1.1,0.5,2.5,0.8,4.2,1c1.3,0.2,2.9,0,4.9-0.4c2-0.4,4.2-1.3,6.9-2.8c1.5-1,3-2.2,4.7-3.7
	c1.6-1.5,3.1-3.1,4.4-4.9c2.6-3.3,4.5-6.4,5.6-9.4c1.1-3,1.9-5.8,2.2-8.2c0.5-2.9,0.6-5.6,0.2-8.1c1-0.2,2.1-0.4,3.4-0.7
	c1.1-0.3,2.5-0.6,3.9-0.9c0.6-0.1,1.2-0.2,1.8-0.3c0,4.3,0.2,8.4,0.6,12.2c0.3,3.1,0.9,6.2,1.6,9.2c0.7,3,1.8,5.8,3.1,8.3
	c1.3,2.5,2.9,4.7,4.9,6.5c2,1.8,4.3,3,7.1,3.7c4.9,1.1,9.5,1.1,13.7-0.2c5.6-1.8,10-5.2,13.5-10.3c3.4-5.1,6-10.3,7.8-15.7
	c0.3-0.7,0.6-1.5,0.9-2.6c0.2-1.1,0.5-2.1,0.9-3.1c0.3-1.1,0.7-2.3,1-3.4c1.3-5.1,0.8-7.8-1.5-8.3c-0.5,0-1,0.5-1.6,1.3
	c-0.6,0.9-1,1.9-1.3,3.1c-0.7,1.3-1.1,2.9-1.5,4.7c-0.3,1.1-0.7,2.2-1,3.2c-0.3,0.8-0.6,1.7-0.9,2.6c-0.2,0.9-0.5,1.8-0.9,2.6
	c-0.8,2.1-1.9,4.3-3.2,6.6c-1.3,2.3-2.8,4.4-4.4,6.4c-1.6,2-3.5,3.5-5.6,4.7c-2.1,1.1-4.5,1.6-7.1,1.5c-2.5-0.3-4.3-2-5.5-5
	c-1.2-3-2.1-6.5-2.6-10.4c2.1-0.7,4.1-2.4,6-5.3c1.9-2.9,3.4-6.2,4.7-10c1.2-3.8,2.2-8,2.8-12.4c0.7-4.4,0.8-8.6,0.4-12.6
	c-0.4-4-1.3-7.6-2.7-10.7c-1.4-3.1-3.5-5.2-6.2-6.4c-4.4-1.8-8.1-1.3-11,1.3c-2.9,2.7-5.2,6-6.9,9.9c-2,4.6-3.4,10.1-4.4,16.7
	c-0.2,2.5-0.4,4.8-0.5,7.1c-0.5,0-1,0.1-1.5,0.1c-1.6,0.1-3.1,0.3-4.4,0.6l-3.7,0.7c-0.8-4.2-2.2-7.7-4-10.3
	c-1.9-2.6-3.7-4.7-5.5-6.1c-2.1-1.8-4.5-3.1-7.1-3.9c3.9-3.8,7.1-8.2,9.4-13.2C770.2,920.8,772,915.9,773.3,911.2z M756.5,986.3
	c-3,4.8-6.5,8.5-10.4,11.1c-0.5,0-1.1-0.3-1.7-1c-0.3-0.3-0.7-0.6-1-0.7c-0.3-0.3-0.7-1.1-1-2.2c-0.2-0.8-0.1-1.7,0.1-2.7
	c0.2-1,0.5-1.9,0.9-2.7c0.3-0.8,0.7-1.6,1-2.5c1.1-2.6,3-5.2,5.6-7.8c1-1,2.1-2,3.4-2.9c1.1-0.8,2.4-1.7,3.8-2.6
	c1.4-0.9,3-1.8,4.8-2.6C761.4,975.9,759.5,981.5,756.5,986.3z M801.5,964.6c0-1.3,0.1-2.5,0.2-3.7c0.5-7.3,1-12.9,1.6-16.8
	c0.6-3.8,1.2-6.7,1.8-8.5c0.7-2,1.3-2.9,2-2.9c0.8,0.7,1.4,1.9,1.7,3.7c0.3,1.8,0.6,3.6,0.7,5.4c0.2,2.1,0.2,4.5,0.2,7.1
	c-0.3,7.7-1.3,13.4-3.1,17s-3.4,6.2-5,7.5c-0.2-1.8-0.2-3.4-0.2-4.9S801.5,965.7,801.5,964.6z M761.3,891.2
	c-0.5,6.6-1.5,13.1-3.1,19.5c-1.6,6.4-3.6,12.1-6.1,17.1c-2.5,5.1-5.4,8.2-8.5,9.3h-2c-1,0.2-1.9,0.3-2.7,0.4
	c-0.8,0.1-1.6,0.3-2.2,0.6c0.2-6.9,0.2-13.7,0.2-20.6s-0.2-13.1-0.5-18.9c0.7-3.3,1.4-6.5,2.2-9.8c0.8-2.8,1.8-5.9,3.1-9.4
	c1.2-3.5,2.9-6.9,5-10.2c0.5-0.7,1.3-1.6,2.5-2.8c1.1-1.2,2.5-1.8,4.2-1.8c1.3-0.2,2.6,0.5,3.9,2.1c1.3,1.6,2.4,4.2,3.2,8
	C761.5,879.1,761.8,884.6,761.3,891.2z M391.1,1131.3c2.6,16.8,6.3,31.3,11.3,43.5c-3,1.6-5.8,2.8-8.4,3.6c-2.6,0.8-5.2,1.2-7.7,1.2
	c-2.6,0-4.7-0.6-6.2-1.7c-1.5-1.1-2.6-2.9-3.3-5.4c-0.4-1.5-1.1-12.9-2.1-34.3c-1-21.4-2.4-42.2-4.2-62.5
	c-13.1,24.6-26.8,51.6-41.3,80.9c-2.6,5.4-4.4,9.1-5.4,11.1c-1.2,2.4-2.4,4.1-3.5,5.1c-1.2,1-2.5,1.5-4,1.5c-3,0-6.1-3.4-9.3-10.3
	c-0.8-1.6-1.3-2.8-1.8-3.7c-10.1-20.6-18.7-37.7-25.6-51.4c-7-13.7-12.7-24.6-17.2-32.8c-1.1,15.8-2.1,35.2-3,58.2
	c-1,23-2.1,36.2-3.3,39.8c-0.6,1.9-1.6,3.3-2.8,4.2c-1.3,0.9-2.9,1.3-5.1,1.3c-1.6,0-3.6-0.4-6-1.2c-2.3-0.8-5.1-2-8.2-3.6
	c4.9-12.2,8.6-26.7,11.2-43.5c2.6-16.8,3.8-35.5,3.8-56c0-4.9-0.3-9.5-0.8-13.7c-0.5-4.2-1.3-8.3-2.3-12.2c2.1-1.8,4-3.1,5.7-3.9
	c1.7-0.8,3.5-1.2,5.5-1.2c6.1,0,15.8,13.8,29.2,41.5c5.1,10.4,9.2,18.8,12.3,24.9c7.1,14,11.9,23.3,14.5,27.8
	c2.6,4.5,4.3,6.8,5.1,6.8c1.7,0,10.2-15.6,25.6-46.9c6.4-12.9,11.5-23.2,15.3-30.9c4.1-8.4,7.8-14.3,10.9-17.9
	c3.2-3.6,6.3-5.3,9.4-5.3c1.8,0,3.6,0.4,5.3,1.2c1.7,0.8,3.7,2.1,5.9,3.9c-1.1,4.1-2,8.2-2.5,12.5c-0.5,4.3-0.8,9-0.8,14
	C387.3,1096,388.6,1114.5,391.1,1131.3z M501.6,1051.5c0,1.6-0.3,3.5-1,5.5c-0.7,2-1.7,4.3-3,6.8c-3.3-1.5-7.3-2.6-12.1-3.3
	c-4.7-0.7-10.7-1.1-18-1.1c-3,0-8.6,0.1-16.7,0.3c-2,0.1-3.5,0.1-4.6,0.1l-0.8,41.5c1.7,0.1,3.5,0.2,5.4,0.2c1.9,0,5,0,9.2,0
	c8.3,0,15.2-0.2,20.6-0.6c5.4-0.4,9.4-0.9,11.9-1.7c0.8,1.8,1.3,3.3,1.7,4.6c0.4,1.3,0.6,2.5,0.6,3.6c0,3-1,5.2-2.9,6.5
	c-1.9,1.3-5.1,2-9.6,2c-1.4,0-5-0.1-10.6-0.2c-5.7-0.1-10.6-0.2-14.7-0.2c-3.1,0-5.5,0-7.2,0c-1.7,0-3.3,0.1-4.7,0.1
	c0,7.1-0.1,14.6-0.2,22.6c-0.2,8-0.4,16.7-0.7,26.2c0.6,0,1.6,0,2.8,0.1c8.2,0.2,14,0.3,17.5,0.3c6.7,0,12.4-0.4,17.1-1.2
	c4.7-0.8,8.9-2,12.6-3.8c1.4,2.4,2.4,4.5,3,6.2c0.6,1.8,0.9,3.4,0.9,4.9c0,3.3-1.1,5.6-3.3,7c-2.2,1.3-6.3,2-12.5,2
	c-3,0-7.5-0.1-13.5-0.3s-10.5-0.3-13.4-0.3c-6.6,0-13.3,0.2-19.9,0.5c-1.4,0.1-2.2,0.1-2.5,0.1c-2.2,0-3.7-0.5-4.6-1.5
	c-0.9-1-1.4-2.8-1.4-5.3c0-1.3,0.2-4.7,0.5-10c1-19.4,1.5-37.5,1.5-54.5c0-16.8-0.3-30.3-0.9-40.4c-0.6-10.1-1.5-17.7-2.8-22.8h11.9
	c14.6,0,29.7-0.5,45.1-1.4c3.3-0.2,5.3-0.3,6-0.3c5.1,0,8.5,0.6,10.4,1.7C500.7,1046.6,501.6,1048.6,501.6,1051.5z M597.7,1141.8
	c-0.9-1.1-2.3-2.6-4.1-4.7c-6.8-7.6-12.4-12.2-17-13.8c10-3.9,17.6-9.5,22.7-16.6c5.1-7.2,7.7-15.8,7.7-25.8
	c0-11.4-4-20.5-12.1-27.2c-8.1-6.7-19.2-10-33.2-10c-1,0-5.9,0.3-14.7,0.8c-8.8,0.5-17.3,0.9-25.3,1.2c1.9,4.2,3.3,10.3,4.2,18.2
	c0.9,7.9,1.3,20.2,1.3,36.7c0,12.8-0.3,26.5-0.9,41.1c-0.6,14.6-0.9,22.8-0.9,24.7c0,5.4,0.6,9,1.9,10.8c1.3,1.8,3.6,2.6,7,2.6
	c2.1,0,4.5-0.4,7-1.2c2.5-0.8,5.3-2,8.3-3.6c-1.8-3.6-3.2-8.6-4-15.1c-0.9-6.5-1.5-16.7-1.9-30.6c2.1-0.2,3.9-0.4,5.3-0.5
	c1.4-0.1,2.7-0.1,3.7-0.1c8.8,0,20.5,8.9,35.3,26.8c4.8,5.8,8.6,10.3,11.4,13.5c3.8,4.4,7,7.6,9.8,9.6c2.8,1.9,5.3,2.9,7.6,2.9
	c2.8,0,5.1-1,7.1-3.1c2-2.1,3.9-5.6,5.7-10.5c-3.7-1-8.2-3.6-13.4-7.9C610.9,1155.5,604.8,1149.5,597.7,1141.8z M548,1117.3
	c-0.5,0-1.2,0-2.2-0.1c-1-0.1-1.7-0.1-2.2-0.1c0-8.9,0.1-18.2,0.4-27.8c0.2-9.6,0.6-19.6,1.1-30c2.4-0.5,4.7-0.9,6.8-1.1
	c2.2-0.2,4.3-0.4,6.5-0.4c9.6,0,17.1,2.2,22.4,6.7c5.3,4.4,7.9,10.7,7.9,18.9c0,10.6-3.6,18.9-10.8,24.9
	C570.7,1114.3,560.8,1117.3,548,1117.3z M720.5,1141.8c-0.9-1.1-2.3-2.6-4.1-4.7c-6.8-7.6-12.4-12.2-17-13.8
	c10-3.9,17.6-9.5,22.7-16.6c5.1-7.2,7.7-15.8,7.7-25.8c0-11.4-4-20.5-12.1-27.2c-8.1-6.7-19.2-10-33.2-10c-1,0-5.9,0.3-14.7,0.8
	c-8.8,0.5-17.3,0.9-25.3,1.2c1.9,4.2,3.3,10.3,4.2,18.2c0.9,7.9,1.3,20.2,1.3,36.7c0,12.8-0.3,26.5-0.9,41.1
	c-0.6,14.6-0.9,22.8-0.9,24.7c0,5.4,0.6,9,1.9,10.8c1.3,1.8,3.6,2.6,7,2.6c2.1,0,4.5-0.4,7-1.2c2.5-0.8,5.3-2,8.3-3.6
	c-1.8-3.6-3.2-8.6-4-15.1c-0.9-6.5-1.5-16.7-1.9-30.6c2.1-0.2,3.9-0.4,5.3-0.5c1.4-0.1,2.7-0.1,3.7-0.1c8.8,0,20.5,8.9,35.3,26.8
	c4.8,5.8,8.6,10.3,11.4,13.5c3.8,4.4,7,7.6,9.8,9.6c2.8,1.9,5.3,2.9,7.6,2.9c2.8,0,5.1-1,7.1-3.1c2-2.1,3.9-5.6,5.7-10.5
	c-3.7-1-8.2-3.6-13.4-7.9C733.7,1155.5,727.5,1149.5,720.5,1141.8z M670.8,1117.3c-0.5,0-1.2,0-2.2-0.1c-1-0.1-1.7-0.1-2.2-0.1
	c0-8.9,0.1-18.2,0.4-27.8c0.2-9.6,0.6-19.6,1.1-30c2.4-0.5,4.7-0.9,6.8-1.1c2.2-0.2,4.3-0.4,6.5-0.4c9.6,0,17.1,2.2,22.4,6.7
	c5.3,4.4,7.9,10.7,7.9,18.9c0,10.6-3.6,18.9-10.8,24.9C693.5,1114.3,683.5,1117.3,670.8,1117.3z M849.1,1050.3
	c0,3.3-7.6,15.8-22.8,37.6c-9.3,13.4-16.9,24.3-22.6,32.8c0,1.5,0,3.7-0.1,6.6c-0.1,2.9-0.1,5-0.1,6.3c0,10.9,0.4,19.6,1.3,26.1
	c0.9,6.5,2.3,11.6,4.1,15.1c-3,1.6-5.8,2.7-8.3,3.5c-2.6,0.8-5,1.1-7.4,1.1c-3.2,0-5.4-0.9-6.7-2.6c-1.3-1.7-1.9-4.8-1.9-9.1
	c0-0.9,0.2-6.2,0.7-16.1c0.5-9.8,0.8-19.4,1.1-28.7c-12-21.1-22-37-30-47.7c-8-10.8-13.9-16.3-17.8-16.6c1.5-5.2,3.4-9.1,5.6-11.8
	c2.3-2.7,4.8-4,7.8-4c1.6,0,3.1,0.4,4.4,1.3c1.3,0.9,2.7,2.4,4.2,4.6c0.6,0.9,2.3,3.8,5.2,8.7c10.1,18,20.3,35,30.6,50.8
	c12.7-18.3,21.6-32,26.6-41c5.1-9,7.6-15.5,7.6-19.5c0-0.6,0-1.1-0.1-1.5s-0.2-0.9-0.4-1.3c2.1-0.6,4.1-1,6-1.2
	c1.9-0.2,3.7-0.4,5.3-0.4c2.4,0,4.3,0.6,5.7,1.7C848.4,1046.5,849.1,1048.2,849.1,1050.3z M548.9,229.8l-24.1-7.9l2.6-8l24.1,8.6
	l-5.9-22.7l7-0.1l6.4,25.6l33.5,11.9l-7-34.8l-24.4-10.1l1.1-6.9l21.6,9.1l-5.2-25l8.1-1.4l4.5,24.9l16.7-16.4l3.6,6.3l-18.8,18
	l6.4,35.1l26.7-23.7l-3.7-26l6.7-2.4l2.8,23.1l19.1-16.9l5.4,6.3L636.9,213l22.4,6.1l-3.4,6.3l-25.2-7.3l-27.2,23.1l33.8,11.3
	l20.5-16.1l5.7,4.5L645.1,255l24,8l-2.5,7.9l-24.1-8.6l6,22.7l-7,0.1l-6.5-25.5l-33.5-11.9l7,34.8l24.4,10l-1.1,7l-21.6-9.2
	l5.1,25.1l-8.3,1.5l-4.4-25l-16.7,16.4l-3.7-6.2l18.9-18.1l-6.3-35.1l-26.6,23.7l3.6,26l-6.8,2.5l-2.8-23.1l-19,16.8l-5.4-6.3
	l19.3-16.5l-22.5-6.1l3.4-6.3l25.2,7.3l27.2-23l-33.8-11.3L536,248.6l-5.7-4.5L548.9,229.8z"/>
<path id="red" class="st1" d="M406.9,742c18.2-5.8,34.5-14.7,48.9-26.8c14.4-12.1,26-27.4,35-45.8c8.9-18.4,13.4-40.2,13.4-65.5
	c0-29.5-5.2-53.7-15.5-72.8c-10.3-19.1-23.4-33.5-39.2-43.1c-15.8-9.6-32.7-14.9-50.8-15.8c-18.1-0.9-35,2-50.8,8.7
	c-15.8,6.7-28.8,16.7-39.2,30.2c-10.3,13.5-15.5,29.7-15.5,48.7c0,16.1,4.2,28.7,12.6,37.6c8.4,8.9,17.7,14.1,27.9,15.5
	c10.2,1.4,19.5-1.1,27.9-7.6c8.4-6.5,12.6-17.1,12.6-31.8c-11.9,0-20.8-4.4-26.6-13.1c-5.8-8.8-8.1-18.5-6.8-29.2
	c1.2-10.7,6-20.4,14.5-29.2c8.4-8.8,20.9-13.1,37.3-13.1c12.6,0,23.5,4.6,32.6,13.7c9.1,9.1,16,20.6,20.8,34.5
	c4.7,13.9,6.7,28.8,6,45c-0.7,16.1-4.5,31.1-11.3,45c-6.8,13.8-17.2,25.3-31,34.5c-13.9,9.1-31.8,13.7-53.9,13.7
	c-27,0-49.9-5.6-68.6-16.8c-18.8-11.2-33.8-25.8-45-43.7c-11.2-17.9-18.9-38-22.9-60.2c-4-22.3-4.7-44.4-1.8-66.5
	c2.8-22.1,8.8-42.9,17.9-62.3c9.1-19.5,21.2-35.5,36.3-48.1c18.2,9.1,39.3,13.7,63.1,13.7c20.7,0,35.8-2.7,45.2-8.1
	c9.5-5.4,14.4-11.3,14.7-17.7c0.3-6.4-3.4-12.3-11.3-17.7c-7.9-5.4-18.9-8.1-32.9-8.1c-23.1,0-44.4,4.6-63.6,13.7
	c-11.2-10.9-19.6-25.1-25-42.7c-5.4-17.6-8.2-36.2-8.2-55.9c0-19.7,2.9-39.5,8.7-59.6c5.8-20,14.3-38.1,25.5-54.3
	c11.2-16.2,25.2-29.2,41.8-39.3c16.7-10,36-15,58.1-15c14.4,0,26.1,2.2,35.2,6.6c9.1,4.4,16,9.9,20.5,16.6
	c4.6,6.7,7.1,13.9,7.6,21.6c0.5,7.7-0.5,14.9-3.2,21.6c-2.6,6.7-6.6,12.2-11.8,16.6c-5.3,4.4-11.6,6.6-18.9,6.6
	c-9.1,0-16-1.4-20.8-4.2c-4.7-2.8-8.2-6.1-10.3-10c-2.5-4.2-3.9-9.1-4.2-14.7c-3.9,0-7.2,1.8-10,5.5c-2.8,3.7-4.8,8.3-6,13.9
	c-1.2,5.6-1.4,11.7-0.5,18.1c0.9,6.5,3.3,12.5,7.4,18.1c4,5.6,9.8,10.3,17.4,13.9c7.5,3.7,17.3,5.5,29.2,5.5
	c15.4,0,28.7-3.8,39.7-11.3c11-7.5,19.4-16.9,25-28.1c5.6-11.2,8.2-23.5,7.9-36.8c-0.4-13.3-4.4-25.6-12.1-36.8
	c-7.7-11.2-19.4-20.6-35-28.1c-15.6-7.5-35.7-11.3-60.2-11.3c-33.7,0-62.7,5.8-87.1,17.4c-24.4,11.6-44.3,26.5-59.7,44.7
	c-15.4,18.2-26.5,38.7-33.1,61.3c-6.7,22.6-9.1,45.1-7.4,67.3c1.8,22.3,7.8,43.1,18.1,62.6c10.3,19.5,24.6,35.2,42.9,47.1
	c-21.4,16.1-39.1,36.6-53.1,61.5c-14,24.9-23.9,51.5-29.5,79.7c-5.6,28.2-6.6,56.5-2.9,84.9c3.7,28.4,12.5,54.1,26.6,77.1
	c14,23,33.6,41.6,58.6,56c25.1,14.4,56.4,21.6,93.9,21.6C370.5,750.6,388.7,747.7,406.9,742z M339.1,353c7.7,0,13.3,1.1,16.8,3.4
	c3.5,2.3,5.3,4.7,5.3,7.4s-1.9,5-5.8,7.1c-3.9,2.1-9.3,3.2-16.3,3.2c-15.4,0-29.3-4.2-41.6-12.6C309.8,355.8,323.6,353,339.1,353z
	 M717.3,608.1c-4.9-1.1-8.6-3.5-11-7.4c-2.5-3.9-3.7-7.7-3.7-11.6v-152c0-16.8-3.1-30.4-9.2-40.8c-6.1-10.3-13.9-18.5-23.4-24.5
	c-9.5-6-19.8-10-31-12.1c-11.2-2.1-22.1-3.2-32.6-3.2c-20.7,0-36.4,2.5-47.1,7.6c-10.7,5.1-18.4,10.7-23.1,16.8
	c-4.7,6.1-7.4,11.8-7.9,17.1c-0.5,5.3-0.8,8.1-0.8,8.4c0,7.4,2.6,13.8,7.9,19.2c5.3,5.4,11.7,8.2,19.5,8.2c7.7,0,14.2-2.7,19.5-8.2
	c5.3-5.4,7.9-11.8,7.9-19.2c0-6-1.7-11.3-5-16c-3.3-4.7-7.8-8-13.4-9.7c2.4-3.2,6.7-6,12.6-8.4c6-2.4,13.8-3.7,23.7-3.7
	c10.2,0,18,2.2,23.4,6.6c5.4,4.4,9.6,9.2,12.4,14.4c3.2,6.3,5.1,13.1,5.8,20.5v41.5c-14.4-6.9-29.3-10.4-44.7-10.4
	c-13.3,0-25.9,2.3-37.6,6.9c-11.8,4.6-21.9,10.9-30.5,19c-8.6,8.1-15.4,17.6-20.5,28.5c-5.1,10.9-7.6,22.5-7.6,34.8
	c0,12.3,2.5,23.8,7.6,34.6c5.1,10.7,11.9,20.1,20.5,28.2c8.6,8.1,18.8,14.4,30.5,19c11.7,4.6,24.3,6.9,37.6,6.9
	c15.4,0,30.3-3.5,44.7-10.4v10.4h74.7c3.5,0,5.3-1.8,5.3-5.3v-1.1C721.5,610.4,720.1,608.8,717.3,608.1z M641.5,564.1
	c-2.1,10.5-5.2,18.5-9.2,24.1c-4,5.6-8.2,9.7-12.6,12.3c-4.4,2.6-8.7,4.1-12.9,4.5c-4.2,0.4-7.5,0.5-10,0.5c-4.9,0-9.5-1.9-13.7-5.8
	c-4.2-3.8-7.9-9.2-11-16c-3.2-6.8-5.7-14.8-7.6-23.9c-1.9-9.1-2.9-18.9-2.9-29.4c0-10.5,1-20.3,2.9-29.3c1.9-9.1,4.5-17,7.6-23.9
	c3.2-6.8,6.8-12.2,11-16.2c4.2-4,8.8-6,13.7-6c2.4,0,5.8,0.2,10,0.5c4.2,0.4,8.5,1.8,12.9,4.5c4.4,2.6,8.6,6.7,12.6,12.3
	c4,5.6,7.1,13.6,9.2,24.1V564.1z M888.7,556c0,8.1-1.2,15.9-3.7,23.4c-2.5,7.5-6.1,14.3-11,20.3c-4.9,6-11.1,10.7-18.7,14.2
	c-7.5,3.5-16.2,5.3-26,5.3c-15.8,0-28.7-2.8-38.7-8.4c-10-5.6-18-13.4-23.9-23.4c-6-10-10.1-21.7-12.4-35.2
	c-2.3-13.5-3.4-28-3.4-43.4V376.1H723v-19.5h27.9v-50c0-3.9-1.3-7.7-3.9-11.6c-2.6-3.9-6.4-6.3-11.3-7.4c-2.5-0.7-3.7-2.4-3.7-5.3
	v-1.1c0-3.5,1.8-5.3,5.3-5.3h88.9c3.5,0,5.3,1.8,5.3,5.3v1.1c0,2.8-1.4,4.6-4.2,5.3c-4.9,1.1-8.7,3.5-11.3,7.4
	c-2.6,3.9-3.9,7.7-3.9,11.6v50h49.4v19.5h-49.4v157.3c0,18.6,2.4,33.1,7.1,43.4c4.7,10.3,12.7,15.5,23.9,15.5c6,0,11-1.1,15.3-3.4
	c4.2-2.3,7.7-5,10.5-8.2c-1.4,0.4-2.6,0.6-3.7,0.8c-1.1,0.2-2.3,0.3-3.7,0.3c-7.4,0-13.8-2.6-19.2-7.9c-5.4-5.3-8.2-11.7-8.2-19.5
	c0-7.7,2.7-14.2,8.2-19.5c5.4-5.3,11.8-7.9,19.2-7.9c7.7,0,14.2,2.8,19.5,8.4C886.1,541.1,888.7,548,888.7,556z M531.4,884.4
	c-0.3-2.8-0.9-5.3-1.7-7.4c-0.8-2.1-2-3.7-3.5-4.9c-1.5-1.2-3.4-1.9-5.7-2c-1.6,0-3.1,0.2-4.4,0.5c-1.3,0.4-2.3,1.2-3,2.2
	c-0.7,1-1.2,1.9-1.4,2.7c-0.7,2.3-1.8,5.7-3.3,10.2c-1.5,4.5-3.5,9.7-5.8,15.5c-2.3,5.9-5,12.1-8.1,18.7c-3.1,6.6-6.5,13-10.2,19.4
	c-1.5-0.5-2.9-1-4.2-1.3c-1.3-0.3-2.3-0.6-3.2-0.8c-1.1-0.3-2.1-0.6-3-0.8c-4.4-1-9-1.7-14-2.2c-4.9-0.5-9.9-0.6-15-0.2
	c-5,0.3-10,1.1-14.8,2.3c-4.8,1.2-9.2,2.9-13.2,5.2c-3.9,2.2-7.4,5.1-10.3,8.5c-2.9,3.4-5,7.5-6.2,12.2c-1.1,4.2-1.6,7.9-1.5,11.1
	c0.1,3.2,0.6,6.1,1.4,8.7c0.8,2.6,2,4.8,3.5,6.7c1.5,1.9,3.1,3.5,4.9,4.8c3.9,3.2,8.9,5.4,14.8,6.6c7,1.6,13.7,1.5,20-0.3
	c6.3-1.9,12.2-4.9,17.8-9.2c5.5-4.3,10.7-9.5,15.5-15.7c4.8-6.2,9.3-12.7,13.3-19.7c1.9,0.9,3.6,1.8,5.3,2.8c1.7,1,3.3,2,4.9,3.1
	c-0.9,3.3-1.8,6.6-2.6,9.9c-0.9,3.3-1.6,6.6-2.3,9.9c-1.2,5.8-1.6,11-1.2,15.5c0.2,2,0.6,3.9,1.2,5.7c0.6,1.8,1.5,3.4,2.6,4.9
	c1.2,1.4,2.7,2.6,4.5,3.5c1.9,0.9,4.2,1.3,6.9,1.3c1.5-0.1,3.1-0.4,4.6-0.8c1.2-0.4,2.5-1.1,3.9-2.1c1.4-0.9,2.5-2.3,3.4-4.2
	c0.2-0.5,0.3-1,0.2-1.2c-0.1-0.3-0.2-0.5-0.4-0.7l-1-0.7c-0.5-0.2-1.2-0.7-1.8-1.3c-0.7-0.7-1.2-1.6-1.6-3c-0.4-1.3-0.7-3-0.8-5.1
	c-0.1-2.1,0.1-4.7,0.5-7.9c0.1-0.8,0.2-1.6,0.3-2.4c0.1-0.8,0.3-1.7,0.5-2.7c1.5,2.4,2.7,4.6,3.6,6.5c0.9,1.9,1.5,3.4,2,4.5
	c0.1,0.3,0.3,0.6,0.5,0.8c0.4,0.4,1,0.4,1.6-0.2c1.4-0.9,2.5-2,3.1-3.5c0.7-1.4,1.2-2.8,1.5-4.1c0.3-1.5,0.5-3.1,0.5-4.6
	c-0.2-3.6-1.1-7-2.7-10.1c-1.6-3.1-3.6-6-6.2-8.6c1.3-5.9,2.7-12.1,4-18.5c1.4-6.4,2.5-12.5,3.4-18.3c0.7-3.4,1.2-6.9,1.6-10.4
	c0.4-3,0.8-6.2,1.2-9.6c0.3-3.5,0.4-6.6,0.3-9.5C531.9,890.4,531.7,887.3,531.4,884.4z M467.3,962.9c-3.5,3.8-7.1,7-10.9,9.8
	c-3.8,2.7-7.7,4.9-11.8,6.4c-4.1,1.5-8.4,2.2-12.7,2.1c-4.5,0.1-8.5-0.3-12-1.3c-3-0.8-5.6-2.2-7.8-4.2c-2.2-2-3.1-5.1-2.5-9.1
	c0.8-5.3,4.6-9.6,11.6-13c7-3.4,16.4-5.2,28.2-5.4c2.5-0.1,5.3-0.1,8.2,0c2.5,0.1,5.5,0.3,8.8,0.7c3.3,0.3,6.9,0.9,10.8,1.8
	C474.1,955.1,470.8,959.1,467.3,962.9z M512.8,908.9c-0.3,2.1-0.7,3.9-1,5.6c-0.4,2-0.8,3.7-1,5.3c-0.5,2.7-1.2,5.6-1.9,8.7
	c-0.7,3.1-1.5,6.4-2.4,9.9c-0.4,1.5-0.9,3.1-1.2,4.6c-0.4,1.5-0.8,3.1-1.2,4.6c-1.3-0.7-2.6-1.3-3.9-2c-1.3-0.7-2.6-1.3-3.8-1.8
	c3.8-7.6,7.2-15,10.2-22.4c3-7.3,5.4-13.8,7.2-19.4C513.5,904.5,513.1,906.8,512.8,908.9z M578.2,982.9c-1,4.5-1.4,8.4-1,11.7
	c0.4,3.3,1.2,5.9,2.5,8c1.3,2,2.6,3.4,3.8,4c0.3,0.2,0.6,0.4,0.8,0.7c0.4,0.4,0.5,1,0.2,1.6c-0.6,1-1.5,2-2.7,3.1
	c-1.3,1.1-3,1.8-5.3,2c-1.2,0.1-2.7,0.1-4.5-0.2c-1.8-0.2-3.6-0.9-5.3-1.9c-1.7-1-3.2-2.7-4.5-4.9c-1.3-2.2-2.1-5.2-2.2-9
	c-0.2-3.8,0.4-8.6,1.8-14.3c1.4-5.8,3.9-12.7,7.5-21c1.2-3.1,2.2-5.9,3-8.6c0.7-2.2,1.1-4.4,1.3-6.5c0.2-2.1-0.1-3.6-1-4.5
	c-0.8-0.7-1.9-0.2-3.4,1.2c-1.5,1.5-3.1,3.7-4.9,6.6c-1.8,2.9-3.5,6.3-5.3,10.2c-1.8,3.9-3.3,8-4.6,12.2c-1.3,4.2-2.3,8.4-3,12.7
	c-0.7,4.2-0.9,8-0.6,11.4c0.3,1,0.8,2,1.3,3l0.3,1c0,0.2,0,0.4-0.1,0.7c-0.1,0.2-0.4,0.4-0.9,0.7c-2.1,0.9-4.4,1.3-6.9,1.3
	c-2.3-0.1-4.2-0.7-5.7-1.7c-1.5-1-2.7-2.5-3.5-4.3c-0.9-1.8-1.5-4-1.8-6.5c-0.3-2.5-0.5-5.3-0.5-8.2c0.1-3.1,0.4-6.2,0.7-9.5
	c0.4-3.2,0.8-6.2,1.2-9c0.4-3.2,1-6.3,1.6-9.2c0.4-1.9,0.7-3.3,0.9-4.4c0.2-1,0.2-1.8,0.2-2.4c-0.1-0.5-0.2-1-0.3-1.3
	c-0.2-0.3-0.3-0.7-0.4-1.2c-0.2-0.7-0.2-1.3,0-1.8c0.1-0.2,0.3-0.4,0.5-0.5c0.2-0.1,0.5-0.3,0.8-0.5c0.2-0.2,0.5-0.4,1-0.5
	c0.4-0.1,0.9-0.3,1.5-0.5c1.2-0.5,2.3-0.9,3.2-1.2c0.9-0.2,1.8-0.4,2.5-0.7c0.9-0.2,1.6-0.4,2.3-0.5c3.5-0.5,5.6,0,6.4,1.7
	c0.8,1.7,0.9,4.1,0.3,7.2c-0.1,0.5-0.2,1.1-0.3,1.6c-0.1,0.5-0.2,1.1-0.3,1.7c-0.1,0.6-0.3,1.3-0.5,2.1c1.3-2.6,2.9-5.6,4.9-9
	c1.9-3.3,4-6.4,6.3-9.3c2.2-2.8,4.6-5.2,7.1-7.1c2.5-1.9,5-2.7,7.5-2.6c3.4,0.2,6.3,1.4,8.6,3.5c2.3,2.1,3.8,5,4.5,8.6
	c0.7,3.6,0.4,7.9-0.8,12.8c-1.3,4.9-3.7,10.3-7.3,16C581.5,973.4,579.2,978.4,578.2,982.9z M663.2,964.3c-0.4-0.9-1.2-1.4-2.4-1.6
	c-1.2-0.1-1.9,0.4-2.1,1.6c-0.2,1.2-0.4,2.1-0.7,2.9c-1.5,4.8-3.1,9-4.6,12.7c-0.7,1.5-1.4,3-2.2,4.5c-0.8,1.5-1.6,2.7-2.5,3.8
	c-0.8,1-1.7,1.8-2.5,2.4c-0.9,0.5-1.8,0.7-2.6,0.5c-0.3,0-0.6-0.2-0.8-0.5c-0.2-0.2-0.4-0.6-0.6-1.2c-0.2-0.5-0.2-1.3-0.2-2.3
	c0-1.1,0-2.3,0.1-3.5c0.1-1.3,0.2-2.5,0.4-3.7c0.2-1.3,0.4-2.7,0.7-4.1c0.3-1.9,0.7-4,1.2-6.5c0.4-2.5,1-5.3,1.8-8.5
	c0.5-2.3,1.2-4.8,1.9-7.5c0.7-2.7,1.5-5.6,2.4-8.8c2.1-7.1,4.3-14,6.6-20.7c2.3-6.7,3.9-12.5,4.9-17.4c0.9-4.9,0.7-8.7-0.8-11.3
	c-1.5-2.6-5-3.6-10.4-2.8c-1.2,0.2-2.5,0.5-3.9,1c-1.2,0.3-2.6,0.8-4.2,1.4c-1.6,0.6-3.3,1.4-5.2,2.4c-0.2,0.1-0.4,0.3-0.5,0.7
	c-0.1,0.2-0.2,0.5-0.2,0.9c0,0.4,0.1,0.9,0.3,1.4c0.3,1.1,0.5,2.8,0.7,5c0.1,2.2-0.1,5.5-0.7,9.6c-0.4,3.4-1.2,7.5-2.3,12.2
	c-1.1,4.7-2.2,10-3.5,16c-1.5-3.8-3.6-6.3-6.3-7.3c-2.7-1-5.3-1.5-7.8-1.2c-4.6,0.7-8.8,2.6-12.5,5.8c-1.6,1.3-3.3,3-4.9,5.1
	c-1.6,2.1-3,4.6-4.4,7.6c-1.3,3-2.5,6.4-3.5,10.4c-1,3.9-1.6,8.4-2,13.5c-0.2,4.8,0.2,9.1,1.2,12.8c0.8,3.3,2.2,6.3,4.4,9.1
	c2.1,2.8,5.4,4.4,9.8,4.9c2.1,0.2,4.1-0.1,6.2-1.1c2-0.9,3.9-2.1,5.7-3.6c1.8-1.5,3.3-3,4.8-4.7c1.4-1.6,2.6-3.1,3.5-4.3
	c0.4,3.9,1.5,7.3,3.1,10.1s4.3,4.3,8.1,4.5c3.1,0.1,5.8-0.5,8.3-1.7c2.5-1.3,4.7-2.9,6.6-4.9c1.9-2,3.6-4.3,5-6.8
	c1.4-2.5,2.6-5,3.6-7.5s1.8-4.8,2.4-7c0.6-2.2,1.1-3.9,1.4-5.1c0.3-1.4,0.4-2.7,0.3-3.9C663.8,966.1,663.6,965.2,663.2,964.3z
	 M627.9,955.8c-0.2,3-0.5,5.4-1,7.2c-0.4,1.9-0.7,3-0.8,3.5c-0.8,2.3-1.7,4.9-2.8,7.9c-1.1,3-2.3,5.7-3.7,8.3
	c-1.4,2.6-2.8,4.7-4.4,6.5c-1.5,1.8-3.1,2.6-4.8,2.6c-1.9,0-3-1.1-3.5-3.3c-0.4-2.2-0.5-4.5-0.2-7.1c0.3-3,1-6.4,2.1-10.4
	c0.5-1.6,1.1-3.1,1.6-4.5c0.5-1.4,1-2.6,1.6-3.7c0.5-1.2,1.1-2.4,1.6-3.5c1-2,2.1-3.8,3.2-5.5c1.2-1.7,2.3-3.1,3.5-4.1
	c1.2-1,2.2-1.7,3.2-2.1c1-0.3,1.8-0.1,2.5,0.7c0.3,0.5,0.7,1.2,1,1.8c0.2,0.5,0.4,1.3,0.7,2.3C628,953.5,628,954.6,627.9,955.8z
	 M397.1,888.9l-23.3-8.3l5.8,21.9l-6.8,0.1l-6.3-24.7L334,866.4l6.8,33.7l23.6,9.7l-1.1,6.8l-20.9-8.9l4.9,24.3l-8,1.4l-4.3-24.2
	L319,925l-3.6-6l18.3-17.6l-6.1-34l-25.8,22.9l3.5,25.2l-6.6,2.4l-2.7-22.3l-18.4,16.3l-5.3-6.1l18.7-15.9l-21.7-5.9l3.3-6.1l24.4,7
	l26.4-22.3l-32.7-11l-19.9,15.7l-5.5-4.4l18.1-13.8l-23.3-7.6l2.5-7.7l23.3,8.3l-5.8-21.9l6.8-0.1l6.2,24.8l32.4,11.5l-6.8-33.7
	L295,813l1.1-6.7l20.9,8.8l-5-24.2l7.9-1.3l4.4,24.1l16.1-15.9l3.5,6.1l-18.2,17.4l6.2,34l25.8-22.9l-3.6-25.2l6.5-2.4l2.7,22.3
	l18.5-16.4l5.3,6.1l-18.8,16l21.7,5.9l-3.3,6.1l-24.3-7.1l-26.4,22.3l32.8,10.9l19.9-15.6l5.5,4.4l-18,13.7l23.2,7.7L397.1,888.9z"
	/>
</svg>
