<?xml version="1.0" encoding="utf-8"?>
<!-- Generator: Adobe Illustrator 22.1.0, SVG Export Plug-In . SVG Version: 6.00 Build 0)  -->
<svg version="1.1" id="Layer_1" xmlns="http://www.w3.org/2000/svg" xmlns:xlink="http://www.w3.org/1999/xlink" x="0px" y="0px"
	 viewBox="0 0 1080 1296" style="enable-background:new 0 0 1080 1296;" xml:space="preserve">
<path d="M229.5,352.8c0.7,4.4,1.8,8.7,3.3,12.8c1.5,4.1,3.5,7.6,6,10.4c2.5,2.9,5.7,4.9,9.6,6c3.8,1.1,8.5,1.1,13.9-0.2
	c4.7-1.3,9.2-3.8,13.5-7.5c4.3-3.7,8.2-8.1,11.8-13.4c3.6-5.2,6.9-11,9.9-17.3c3-6.3,5.8-12.7,8.3-19.1c2.5-6.5,4.8-12.8,6.9-19
	c2-6.2,3.9-11.9,5.5-16.9c0.3-1.6,0.7-3.3,1.2-4.9c0.5-1.6,0.9-3.1,1.2-4.4h11c4.7,0,9.8-0.2,15.3-0.5c5.5-0.3,10.8-1,15.8-2.1
	c5.1-1.1,9.7-2.6,14-4.7c4.3-2,7.5-4.8,9.8-8.2c0.3-0.8-0.8-1.9-3.4-3.2c-3.4-1.8-6.6-1-9.6,2.5c-1.1,1.8-3.2,3.2-6.3,4.3
	c-3,1.1-6.5,1.8-10.5,2.3c-4,0.5-8.2,0.8-12.6,1c-4.4,0.2-8.5,0.2-12.3,0.2h-8.1c4.4-12.9,9-25.1,13.6-36.7
	c4.7-11.5,9.8-21.5,15.6-29.8c13.2-1.3,24-5.1,32.1-11.3c1.8-1.6,3.4-3.3,4.8-5c1.4-1.7,2.2-3.2,2.6-4.5c0.5-3.4-1-6.4-4.4-9
	c-3.4-2.5-8.2-3.8-14.2-3.8c-5.7,0-12.1,1.6-19,4.7c-7,3.1-13.6,8.7-20,16.9l-2,2.7l-0.2,0.2c-5.1-1-10.3-2.3-15.7-4
	s-10.7-3.8-15.8-6.1c-5.2-2.4-10.1-5-14.8-8c-4.7-2.9-9-6.1-12.8-9.6c-1.6-1.8-3.2-2.7-4.8-2.6c-1.6,0.1-3.2,1.3-5,3.6l1-0.5
	c-2.6,2.1-2.8,4.1-0.5,5.9H264c3.9,3.6,8.3,7,13.1,10.1c4.8,3.1,10,5.9,15.5,8.5c5.5,2.5,11.2,4.7,17,6.5c5.9,1.8,11.8,3.2,17.7,4.2
	l-1,1.5c-1-1.5-3.2-1.8-6.6-1c-18.6,6.2-33.8,14.3-45.4,24.4c-11.6,10.1-20.6,20.8-27,32.3c-5.2,9.2-9.2,18.2-11.9,27.1
	c-2.7,8.9-4.6,17.5-5.8,25.6c-1,5.7-1.5,11-1.5,15.7c0,3.1,0,6.8,0.1,11C228.4,344.1,228.8,348.4,229.5,352.8z M373.9,182.6
	c3.1-1.3,4.9-2,5.4-2c1.3,0,1.8,0.7,1.5,2.1c-0.3,1.4-1.3,2.8-2.9,4.3v-0.2c-5.4,3.9-11.3,6.6-17.7,8.1
	C364.7,189.1,369.3,185,373.9,182.6z M241.2,328.5c0-2.3,0.1-4.7,0.2-7.4c0.2-2.6,0.4-5.2,0.7-7.6c1.1-7.8,3.1-16,5.8-24.5
	c2.7-8.5,6.3-16.9,10.9-25.3h-0.2c6.2-11,14.3-21,24.4-30.2c10.1-9.2,23-16.3,38.9-21.6c-4.7,8.8-9.1,18.2-13.1,28.1
	c-4,9.9-7.9,20.2-11.7,31c-4.7,0.2-9,0.3-12.8,0.5c-3.8,0.2-7.4,0.6-11,1.2c-0.5,0.2-0.8,0.7-1,1.5c-0.2,0.8-0.2,1.7-0.2,2.7
	c0,1,0,1.9,0.1,2.7c0.1,0.8,0.3,1.3,0.6,1.5c3.4-0.3,6.9-0.7,10.4-1c3.5-0.3,7.2-0.6,10.9-0.7l-2.7,7.8c-2.1,6.4-4.5,13.3-7,20.8
	c-2.5,7.5-5.2,14.9-8.1,22.1c-2.9,7.2-5.8,13.9-9,20.1c-3.1,6.2-6.1,11.1-9.1,14.7c-2.1,2.6-3.8,4.4-4.9,5.4c-1.1,1-2,1.5-2.5,1.5
	c-1,0-2-1.1-3.2-3.3c-1.1-2.2-2.3-4.9-3.4-8.2c-1.1-4.7-2-10.2-2.6-16.3C241.2,338,241,332.8,241.2,328.5z M380,275.1
	c-4.1,2.5-7.9,5.4-11.4,9c-3.5,3.5-6.7,7.5-9.6,11.9c-2.9,4.4-5.3,8.8-7.2,13.2c-1.6,3.3-2.9,6.6-3.9,9.9c-1,3.4-1.7,6.7-2.2,9.9
	c-0.3,2.9-0.4,5.9-0.4,8.8c0.1,2.9,0.4,5.6,0.9,8.1c1,5.2,4,9.1,9.1,11.5c2.6,1.5,5.7,2.2,9.3,2.2c5.2,0,10.3-1.7,15.1-5
	c4.8-3.3,9.3-7.3,13.4-11.9c-1.8,3.8-3.5,7.9-5,12.4c-1.6,4.5-2.7,8.5-3.3,12.1c-0.3,2.8-0.2,5.3,0.2,7.5s1.6,4,3.4,5.5V380
	c2.9,2.9,6.6,4.4,11,4.4c4.3,0,8.3-1.1,12.1-3.2c3.8-2.1,7.6-4.7,11.2-7.6c9.3-7.5,17.3-16.1,24.1-25.6c-0.7,3.2-1.3,6.4-1.8,9.7
	c-0.8,5.6-0.2,10.1,1.7,13.7c2,3.6,6.4,5,13.2,4.2c2.9-0.3,5.6-1.3,7.8-3.1c2.3-1.7,4.3-3.7,6.1-5.9c1.8-2.2,3.4-4.6,4.8-7.1
	c1.4-2.5,2.6-4.8,3.6-6.7c3.1-6.9,5.8-12.8,8-17.9c2.2-5.1,4.5-9.5,7-13.2c-1.5,4.7-3.4,9.7-5.6,14.8c-2.3,5.2-4.3,9.9-6.1,14.3
	c-1.5,3.3-2.8,6.5-4,9.7c-1.2,3.2-1.8,6-1.8,8.5c0.3,4.3,1.7,7.4,4,9.6c2.4,2.1,5.2,3.2,8.5,3.2c3.3,0,6.6-1,9.9-2.9
	c3.3-2,6.3-4.8,8.7-8.6c2.3-3.8,4.6-7.7,7-11.8c2.4-4.1,4.8-8.2,7.2-12.3c4.3-7.5,8.7-15,13.4-22.4c4.7-7.4,9-15.1,13.1-22.9
	c-2.3,6.5-4.6,12.6-7,18.3c-2.4,5.6-4.6,11-6.6,16.2c-2,5.2-3.9,10.2-5.6,15.2c-1.7,5-2.9,10-3.6,15.1c-0.3,2.3-0.2,4.4,0.2,6.3
	c0.5,1.9,1.6,3.6,3.4,5h-0.2c1.5,1.3,3.1,2.2,4.8,2.6c1.7,0.4,3.6,0.6,5.8,0.6c3.6,0,7.2-0.8,10.7-2.5c3.5-1.6,6.8-3.6,9.8-5.8
	c3-2.2,5.8-4.5,8.2-7c2.5-2.5,4.5-4.6,6.1-6.4c3.4-3.6,6.8-7.5,10.1-11.7c0.2-0.2,0.3-0.5,0.5-0.7c-0.6,2.4-1.1,4.3-1.5,5.7
	c-1.5,8.2-1,14.9,1.5,20.1c1.3,3.3,3.2,5.5,5.6,6.7c2.5,1.2,5.3,1.8,8.6,1.8c4.6,0,9.2-1.2,13.9-3.6c4.7-2.4,8.5-4.9,11.7-7.5
	c3.4-2.8,6.9-6.4,10.4-10.8c3.5-4.4,6.9-9,10.2-13.9c0,0.1,0,0.3-0.1,0.4c-0.7,4.1-0.9,8.6-0.7,13.5c0.2,4.9,1,9.4,2.5,13.6
	c1.5,4.2,3.8,7.6,7,10.4c3.2,2.8,7.5,4.2,12.9,4.2c5.4,0,10.5-1.3,15.2-4c4.7-2.7,9.2-6.3,13.5-10.7c4.3-4.4,8.3-9.4,12-14.8
	c3-4.4,5.9-8.9,8.8-13.4c-0.5,4.3-0.3,8.1,0.4,11.6c0.9,4.1,3.2,7.2,7,9.3h-0.2c1.1,0.8,2.5,1.3,3.9,1.6c1.5,0.2,3.1,0.4,4.9,0.4
	c4.7,0,9.2-1.3,13.5-3.8c4.3-2.5,7.8-5.4,10.5-8.5c0-0.2,0-0.2,0.1-0.2c0,0,0.1,0,0.1-0.1c-0.6,2.8-1,4.6-1.2,5.3
	c-0.2,0.7-0.3,1.3-0.5,1.7c-0.2,0.4-0.4,1.1-0.6,2c-0.2,0.9-0.9,2.9-1.8,6c-4.9,3.9-9.8,8.3-14.7,13s-9.4,9.8-13.5,15.1
	c-4.1,5.3-7.6,10.8-10.4,16.6c-2.9,5.7-4.7,11.5-5.5,17.4c-0.3,2-0.5,4-0.5,6.1c0,2.1,0.2,4.4,0.5,6.9c0.7,4.3,2.1,7.6,4.4,10.1
	c2.3,2.5,5.6,3.7,9.8,3.7c1.5,0,3-0.1,4.7-0.4c1.6-0.2,3.2-0.7,4.7-1.3c4.1-1.8,8-4.8,11.7-9.1c3.7-4.3,7.2-9.3,10.5-15.1
	c3.3-5.8,6.4-12.1,9.2-18.8c2.8-6.7,5.4-13.3,7.7-19.9c2.4-6.5,4.4-12.8,6.1-18.6s3.1-10.9,4.3-15c10.3-7.7,19.9-15.4,28.9-23.1
	c9-7.7,16.3-16.4,22.1-26.2c0.5-0.8,0.6-1.7,0.4-2.6c-0.2-0.9-1.2-1.8-2.8-2.8c-3.3-1.8-6.4-1-9.3,2.5c-4.3,7.2-9.4,13.7-15.5,19.6
	c-6.1,5.9-12.6,11.6-19.6,17.2c1-3.9,1.8-7.4,2.6-10.3c0.7-2.9,1.4-5.8,2-8.5c0.6-2.7,1.2-5.5,1.8-8.5c0.7-2.9,1.4-6.4,2.2-10.3
	c0.8-4.4,0.6-7.6-0.6-9.4c-1.2-1.9-2.9-2.9-5.2-3.1c-2.2-0.2-4.5,0.3-6.9,1.3c-2.4,1.1-4.3,2.3-5.8,3.8c-1.3,1.5-2.6,3.3-3.8,5.4
	c-1.2,2.1-2.5,4.4-3.7,6.7c-1.2,2.4-2.4,4.7-3.6,7c-1.1,2.3-2.2,4.3-3.2,6.1c0,0.3-0.2,0.6-0.5,0.7c-0.3,0.5-0.7,1.2-1.1,2.1
	c-0.4,0.9-0.8,1.6-1.1,2.1l0.2-0.2c-2.8,4.4-5.2,8.5-7.4,12.1c-2.1,3.7-3.8,6.3-5.2,8c-2.3,2.5-3.6,4.1-3.9,4.9
	c-0.3,0.8-0.9,1.2-1.7,1.2c0.3-0.2,0.7-1,1.1-2.6c0.4-1.6,0.8-3.6,1.1-6c0.8-4.7,2-10.3,3.7-16.8c1.6-6.5,3.3-12.5,4.9-18.3
	c1.3-4.6,2.4-8.5,3.2-11.8c0.8-3.3,1.3-5.6,1.5-6.9c0-2-1.5-3.8-4.4-5.4c-2.9-1.6-6.2-2.9-9.7-3.8c-3.5-0.9-6.7-1.3-9.6-1.3
	c-2.9,0-4.3,0.7-4.3,2c0,1.1,0,2.3-0.1,3.4c-0.1,1.1-0.2,2.3-0.4,3.4c-0.5,3.6-1.3,7.5-2.3,11.7c-0.7,2.9-1.4,5.8-2.1,8.7
	c-1.9,3-3.9,6.1-6.1,9.4c-2.8,4.2-5.8,8.5-9.1,12.9c-4.1,5.7-8.3,11.2-12.5,16.4c-4.3,5.2-9,10.5-14.2,15.7c-1.8,1.6-3.4,3-4.7,4
	c-1.3,1.1-2.4,1.6-3.2,1.6c-1.1,0-2.3-2-3.4-5.9c-1.5-4.4-2-9.4-1.6-14.8c0.4-5.5,1.3-11.1,2.6-16.9c1.3-5.8,2.9-11.4,4.8-16.9
	c1.9-5.5,3.6-10.3,5-14.6l-0.2,0.1c3-2.3,6.3-5.3,10-9.1c4.4-4.5,8.9-9.6,13.5-15.3c4.6-5.7,9-11.8,13.4-18.3
	c4.3-6.5,8.2-12.8,11.7-19.1c3.4-6.3,6.3-12.3,8.5-18c2.2-5.7,3.5-10.7,3.8-15c0.3-5.2-1.1-9.2-4.4-11.8c-3.3-2.6-7.3-3.9-12-3.9
	c-3.1,0-6.3,0.7-9.7,2c-3.4,1.3-6.4,3.2-9.2,5.6c-3.4,3.6-7,8.3-10.8,14c-3.8,5.7-7.5,12.1-11.3,19.3c-3.8,7.1-7.4,14.7-10.9,22.7
	c-3.5,8-6.8,16.1-9.9,24.3c-3.1,8.2-5.9,16.2-8.3,23.9c-0.7,2.3-1.4,4.6-2.1,6.8l-1.3,2.1c-1.8,3.1-4.2,7-7.1,11.8
	c-2.9,4.7-6.1,9.6-9.3,14.6c-3.3,5-6.7,9.8-10.2,14.3c-3.5,4.6-6.8,8.2-9.9,10.8c-0.3,0.3-0.9,0.7-1.6,1.2c-0.7,0.5-1.4,0.9-2.1,1.2
	c-0.7,0.3-1.3,0.5-1.8,0.5c-0.6,0-0.9-0.2-0.9-0.7c-0.5-1.1-0.8-2.7-0.9-4.8c-0.1-2,0.4-5.3,1.3-9.7c1-5.1,2.2-9.9,3.8-14.6
	c1.6-4.7,3.3-9.4,5.3-14.3c2.3-6.2,4.4-12.3,6.3-18.2c1.9-5.9,3.1-11.2,3.8-15.9c0.3-2.5-0.3-4.6-1.8-6.4c-1.6-1.8-3.6-3.2-6-4.3
	c-2.5-1.1-5-1.8-7.7-2.1c-2.7-0.3-4.9-0.2-6.7,0.5c-2,1-3.1,2.2-3.4,3.6c-0.3,1.4-0.1,2.5,0.7,3.3l-1-0.5c0.3,1.1,0.1,3-0.7,5.6
	c-0.8,2.6-1.9,6.1-3.2,10.5c-0.5,1.8-1.1,3.6-1.7,5.4c-0.7,1.8-1.2,3.6-1.7,5.4c-0.3,0.9-0.6,1.9-0.9,2.9c-1.4,2.3-2.9,4.6-4.5,7.1
	c-2.5,3.8-5.1,7.6-7.8,11.4c-2.8,3.8-5.7,7.6-8.7,11.4c-3,3.8-6,7.3-9,10.5c-0.3,0.3-1.3,1.3-2.9,3.1c-1.6,1.7-3.4,3.4-5.3,5.2
	c-1.9,1.7-3.5,3-4.8,3.8c-1.3,0.8-1.7,0.5-1.2-1c1.3-5.4,2.9-10.5,4.9-15.2c2-4.7,4.1-9.5,6.4-14.2c2.1-4.7,4.1-9.3,6-13.7
	c1.9-4.4,3.5-8.7,4.8-13c2.3-8.2,2.3-14.2,0-18.2c-2.3-3.9-5.8-5.9-10.5-5.9c-3.6,0-7.6,1.3-12,4s-8.3,6.3-11.8,10.7
	c-4.1,5.4-7.9,10.9-11.4,16.6c-3.5,5.6-6.8,11.1-9.9,16.3c1.8-4.3,3.2-8.2,4.3-11.9c1.1-3.7,1.8-6.9,2.1-9.7c0-4.7-1.1-8.2-3.3-10.4
	c-2.2-2.2-5.1-3.3-8.7-3.3c-3.1,0-6.2,0.8-9.3,2.3c-3.1,1.6-6.1,3.7-8.8,6.5h0.2c-3.3,3.3-6.3,7.2-9.2,11.7c-2.9,4.5-5.5,9.1-8,13.9
	c1-2.8,1.8-5.5,2.5-8.2c0.7-2.7,1.1-5.2,1.5-7.5c0.2-1.6-0.5-3.3-2.1-4.9c-1.6-1.6-3.4-3-5.5-4.2c-2.1-1.1-4.4-2-6.7-2.6
	c-2.4-0.6-4.3-0.5-5.8,0.1h0.2c-1.3,0.5-2.5,1.1-3.4,1.7c-1,0.7-1.6,1.4-1.7,2.2c-0.1,0.6-0.2,1.2-0.3,1.8l-0.2,0.2
	c-2.8,4.9-5.7,9.9-8.7,15c-3,5.1-6.3,10.1-9.8,15.1c-3.5,5-7.3,9.9-11.4,14.6c-4.1,4.7-8.6,9.2-13.5,13.2c-1.3,1.1-2.4,2-3.3,2.5
	c-0.9,0.5-1.2,0.3-0.9-0.5c0.3-1.5,0.9-3.3,1.6-5.6c0.7-2.3,1.6-4.7,2.5-7.2c0.9-2.5,1.9-5.1,3.1-7.7c1.1-2.6,2.2-5,3.2-7.1
	c2.6-5.7,5.1-11.5,7.5-17.3c2.4-5.8,3.8-10.8,4.3-15.1c0.7-4.1-0.1-7.4-2.3-9.9c-2.2-2.5-5.2-3.8-9-3.8c-2.3,0-4.5,0.4-6.6,1.2
	c-2.1,0.8-4.1,2.4-5.9,4.7c-2,2.6-4,5.5-6.1,8.6c-2.1,3.1-4,6.1-5.6,8.8c-0.3,0.3-0.7,0.8-1.2,1.5c-0.5,0.7-0.8,1.1-1,1.5v-0.2
	c-1.3,2.1-3.1,4.9-5.4,8.2c-2.3,3.4-4.6,6.5-6.9,9.4c-2.3,2.9-4.4,5.3-6.3,7c-1.9,1.7-3.2,2-3.8,0.9c-0.7-0.8-1.1-2.1-1.3-3.8
	s-0.2-4.2,0.1-7.5c0.5-4.4,1.4-9.3,2.8-14.6c1.4-5.3,3.3-10.5,5.6-15.7c2.4-5.2,5.1-9.8,8.2-14c3.1-4.2,6.5-7.3,10.3-9.4
	c1.3-0.7,2.4-1.2,3.3-1.6c0.9-0.4,1.7-0.6,2.3-0.6c1.3,0,2.2,0.7,2.8,2.1c0.6,1.4,0.2,3.5-1.1,6.3c-0.3,1-0.2,1.9,0.4,2.7
	c0.6,0.8,1.8,1.6,3.8,2.5c4.4,1,7.2-0.1,8.3-3.2l-0.2,0.2c1.6-3.9,1.9-7.3,0.9-10.2c-1.1-2.9-2.9-5.2-5.5-7c-2.6-1.8-5.7-3-9.2-3.6
	c-3.5-0.6-7-0.6-10.4-0.1C388.3,271,384.1,272.6,380,275.1z M743.9,404.8c-2.2,5.7-4.4,11-6.5,15.9c-2,3.9-3.7,7.3-5.2,10.2
	c-1.5,2.9-2.8,5.1-3.9,6.7l-4.9,6.9c-0.5,0-0.8-0.7-0.9-2.1c-0.1-1.4,0-3.1,0.4-5.2c0.3-2,0.7-4.2,1.1-6.4c0.4-2.2,0.9-4,1.3-5.5
	c1.8-7.4,5-14.3,9.6-20.8c4.6-6.5,9.6-12.5,15-17.9C748.1,393,746.1,399.1,743.9,404.8z M704.4,248.1c5.2-11.9,11-22.5,17.5-31.6
	h0.2c1.3-1.8,3-3.9,5-6.3c2-2.4,3.7-3.7,5-4c-0.5,0.2-1,2-1.5,5.4c-0.7,4.7-2.3,10.2-4.9,16.3c-2.6,6.1-5.8,12.5-9.6,19
	c-3.8,6.5-7.8,13-12.3,19.3c-4.4,6.3-8.8,12-13,17C694.8,271.7,699.2,260,704.4,248.1z M611.6,270.1c-2.1-2.6-3-5.3-2.7-8.1
	c0.3-3.4,2-6,5-7.8c3-1.8,6.7-2.3,10.9-1.5c3.8,0.8,6.8,2.5,9.1,5.2c2.3,2.6,3.3,5.3,2.9,8.1c-0.7,3.6-2.5,6.3-5.5,8.1
	c-3,1.8-6.7,2.2-10.9,1.2C616.6,274.5,613.7,272.8,611.6,270.1z M377.4,467.3v37.5h4.5v10.8h-22.3v-10.8h4.4v-37.5h-4.4v-10.8h22.3
	v10.8H377.4z M415.7,476.6V469c0-0.4-0.1-0.8-0.4-1.2c-0.3-0.4-0.7-0.5-1.2-0.5h-10.6c-0.4,0-0.8,0.2-1.1,0.5
	c-0.3,0.3-0.5,0.7-0.5,1.2v4.4c0,0.6,0.2,1,0.6,1.3l23.1,13.9c1.5,0.9,2.5,1.9,3,2.8c0.5,1,0.7,2.2,0.7,3.8v11.4
	c0,1.2-0.2,2.4-0.7,3.5c-0.5,1.1-1.1,2-1.9,2.8c-0.8,0.8-1.8,1.4-2.8,1.9c-1.1,0.5-2.2,0.7-3.4,0.7h-12.5c-0.6,0-1.3,0-2,0
	c-0.7,0-1.4-0.1-2.1-0.3c-0.7-0.2-1.3-0.4-1.9-0.8c-0.6-0.4-1.1-0.9-1.5-1.5c-0.3,0.6-0.7,1.1-1.4,1.4c-0.6,0.4-1.4,0.6-2.2,0.8
	c-0.8,0.2-1.7,0.3-2.7,0.3c-0.9,0.1-1.8,0.1-2.6,0.1h-2.9v-20h13.5v7.5c0,0.4,0.1,0.8,0.4,1.2c0.3,0.4,0.7,0.5,1.1,0.5h9.2
	c0.4,0,0.8-0.2,1.1-0.5c0.3-0.3,0.5-0.7,0.5-1.2v-4.5c0-0.6-0.2-1-0.6-1.3L392,483.7c-1.4-0.9-2.4-1.9-2.9-2.8
	c-0.5-1-0.8-2.2-0.8-3.8v-11.6c0-1.2,0.2-2.3,0.7-3.4c0.5-1.1,1.1-2,1.9-2.8c0.8-0.8,1.7-1.5,2.8-1.9c1.1-0.5,2.3-0.7,3.6-0.7h11.9
	c0.6,0,1.4,0,2.1,0c0.8,0,1.5,0.1,2.3,0.3c0.8,0.2,1.5,0.4,2.2,0.8c0.7,0.4,1.2,0.9,1.7,1.5c0.3-0.6,0.7-1.1,1.4-1.4
	c0.6-0.4,1.4-0.6,2.2-0.8c0.8-0.2,1.7-0.3,2.6-0.3c0.9-0.1,1.8-0.1,2.7-0.1h2.9v20.1H415.7z M492.5,480.7v-13.4h-7v37.5h4.6v10.8
	h-23v-10.8h4.5v-37.5h-6.9v13.4h-12.3v-24.2h52.2v24.2H492.5z M556.5,467.3v37.5h4v10.8h-21.4v-10.8h3.9v-13.2h-14.9v13.2h4v10.8
	h-21.4v-10.8h4v-37.5h-4v-10.8h21.4v10.8h-4v14.2H543v-14.2h-3.9v-10.8h21.4v10.8H556.5z M595.4,476.6v-9.3h-11.9v14.1h15v10h-15
	v13.4h11.9v-9.2h13.1v20h-42.3v-10.8h4v-37.5h-4v-10.8h42.3v20.1H595.4z M309.6,549.6C309.6,549.6,309.6,549.5,309.6,549.6
	c0.2-0.1,0.4-0.2,0.5-0.2L309.6,549.6z M895.4,569.9c-0.1-0.7-0.6-1.4-1.6-2.2c-5.4-2.5-8.8-2.1-10.3,1c-0.5,0.7-1.7,1.1-3.7,1.5
	c-2,0.3-4.4,0.6-7.2,0.9c-2.9,0.2-6,0.4-9.3,0.5c-3.4,0.1-6.7,0.1-9.9,0.1c-2.5,0-4.8,0-7-0.1c-2.2-0.1-4.2-0.1-6-0.1l1-2.2
	c1.8-3.8,3.6-8,5.5-12.6c1.9-4.7,3.2-8.2,4-10.7c1.1-3.4,0.9-6.4-0.9-9c-1.7-2.5-3.9-4.4-6.6-5.6c-2.7-1.2-5.5-1.8-8.3-1.6
	c-2.9,0.2-4.8,1.1-5.8,2.7c-1.1,2.1-3.2,6.7-6,13.6c-2.9,7-6.2,15.5-9.9,25.6c-6.2,0.3-12.1,0.9-17.8,1.7
	c-5.6,0.8-10.8,1.9-15.5,3.3c-4.7,1.4-8.6,3.3-11.9,5.7c-3.3,2.4-5.7,5.3-7.4,8.7c0,0.5,0.5,1,1.6,1.6c1.1,0.6,2.3,1,3.8,1.3
	c1.5,0.3,2.8,0.5,4,0.5s2-0.2,2.3-0.7c2.1-4.9,6.5-8.3,13.1-10.1c6.6-1.8,14.7-3,24.2-3.7l-3.9,10.1c-2,5.4-4.2,11.5-6.6,18.4
	c-2.5,6.9-4.9,14-7.2,21.5c-2,6.3-3.9,12.7-5.6,19c-2.1,2.8-4.7,5.4-7.7,7.7c-3.5,2.7-7.2,5.3-11.2,7.7l-3.4-9.1v0.2l-3.7-9.8
	c-0.8-2.6-1.5-5.4-2-8.2c-0.5-2.9-0.6-5.7-0.2-8.5c0.5-4.3,2.4-8.3,5.6-12l-0.5,0.2c2.8-2.3,4.7-3.4,5.6-3.4c1.6,0,2.4,1.3,2.3,4
	c-0.1,2.7-0.9,5.9-2.3,9.7c0,0.5,0.6,1,1.7,1.5c1.1,0.5,2.4,0.9,3.8,1.2c1.4,0.3,2.7,0.5,4,0.4c1.3-0.1,2.1-0.4,2.5-0.9
	c0.7-1.5,1.2-2.9,1.6-4.3c0.4-1.4,0.7-2.7,0.9-3.8c0.8-5.6-0.5-10.2-3.8-13.9c-3.4-3.7-9-5.1-17-4.3c-6.2,0.8-11.4,2.5-15.6,5
	c-4.2,2.5-7.3,5.7-9.4,9.6c-2.1,3.8-3.3,8.3-3.4,13.2c-0.2,5,0.5,10.3,2,16.1h-0.2c0.1,0.3,0.1,0.6,0.2,1c-2.9,4.7-5.9,9.7-9.1,15.1
	c-3.8,6.3-7.8,12.1-12.3,17.5h0.2c-1.5,1.8-3.2,3.7-5.2,5.8c-2,2-4,3.9-6.1,5.6c-2.1,1.7-4.3,3.2-6.4,4.4c-2.1,1.2-4.2,1.8-6.1,1.8
	c-1,0-2.6-0.6-4.9-1.7c-2.8-2-4.5-5.2-5.3-9.7c-0.7-4.5-0.7-9.2,0.1-14.1c0.3-2.8,0.8-5.4,1.5-8c0.7-2.5,1.4-4.7,2.2-6.5
	c12.8-1.5,22.6-4.5,29.4-9.2c6.9-4.7,11.9-9.8,15.2-15.3c1.1-2.3,2-4.3,2.7-6.1c0.7-1.8,1.1-3.4,1.2-4.9c0.8-5.4-0.5-9.7-3.8-13
	c-3.4-3.3-8.1-4.9-14.3-4.9c-2.1,0-4.3,0.2-6.6,0.6c-2.3,0.4-4.6,1.1-6.9,2.1c-5.7,2.5-11.2,6-16.4,10.7c-5.2,4.7-10,9.9-14.2,15.7
	c-2.3,3.2-4.5,6.5-6.4,9.9c-0.3,0.3-0.5,0.7-0.7,1c-1.5,2.5-3.4,5.4-5.8,9c-2.4,3.5-4.9,7.2-7.7,11.2c-2.8,3.9-5.8,7.8-9,11.8
	c-3.2,3.9-6.4,7.5-9.6,10.8c-3.2,3.3-6.3,6.1-9.2,8.3c-2.9,2.3-5.6,3.8-7.8,4.4c-0.5,0-0.8-0.5-1-1.6c-0.2-1.1-0.4-2.5-0.7-4.3
	c-0.8-5.4-0.6-11.9,0.7-19.6c1-7,2.6-14.7,4.8-22.9c2.2-8.3,4.6-16.5,7.2-24.8c2.6-8.3,5.3-16.2,8.1-23.9c2.8-7.7,5.3-14.5,7.6-20.4
	l1.5-3.7h2.9c2.1,0,4.4,0,6.9,0.1c2.5,0.1,5,0.1,7.6,0.1c4.1,0,8.3-0.1,12.6-0.2c4.3-0.2,8.3-0.5,12-1.1c3.7-0.6,6.9-1.3,9.7-2.3
	c2.8-1,4.7-2.2,5.9-3.8l-0.7,0.2c1.1-1.1,1.7-2,1.6-2.7c-0.1-0.7-0.6-1.4-1.6-2.2c-5.4-2.5-8.8-2.1-10.3,1c-0.5,0.7-1.7,1.1-3.7,1.5
	c-2,0.3-4.4,0.6-7.2,0.9c-2.9,0.2-6,0.4-9.3,0.5c-3.4,0.1-6.7,0.1-9.9,0.1c-2.5,0-4.8,0-7-0.1c-2.2-0.1-4.2-0.1-6-0.1l1-2.2
	c1.8-3.8,3.6-8,5.5-12.6c1.9-4.7,3.2-8.2,4-10.7c1.1-3.4,0.9-6.4-0.9-9c-1.7-2.5-3.9-4.4-6.6-5.6c-2.7-1.2-5.5-1.8-8.3-1.6
	c-2.9,0.2-4.8,1.1-5.8,2.7c-1.1,2.1-3.2,6.7-6,13.6c-2.9,7-6.2,15.5-9.9,25.6c-6.2,0.3-12.1,0.9-17.8,1.7
	c-5.6,0.8-10.8,1.9-15.5,3.3c-4.7,1.4-8.6,3.3-11.9,5.7c-3.3,2.4-5.7,5.3-7.4,8.7c0,0.5,0.5,1,1.6,1.6c1.1,0.6,2.3,1,3.8,1.3
	c1.5,0.3,2.8,0.5,4,0.5s2-0.2,2.3-0.7c2.1-4.9,6.5-8.3,13.1-10.1c6.6-1.8,14.7-3,24.2-3.7l-3.9,10.1c-2,5.4-4.2,11.5-6.6,18.4
	c-2.5,6.9-4.9,14-7.2,21.5c-1.9,5.9-3.6,11.8-5.2,17.8l0,0c-2.8,4.9-5.7,9.9-8.7,15c-3,5.1-6.3,10.1-9.8,15.1
	c-3.5,5-7.3,9.9-11.4,14.6c-4.1,4.7-8.6,9.2-13.5,13.2c-1.3,1.1-2.4,2-3.3,2.5c-0.9,0.5-1.2,0.3-0.9-0.5c0.3-1.5,0.9-3.3,1.6-5.6
	c0.7-2.3,1.6-4.7,2.5-7.2c0.9-2.5,1.9-5.1,3.1-7.7c1.1-2.6,2.2-5,3.2-7.1c2.6-5.7,5.1-11.5,7.5-17.3c2.4-5.8,3.8-10.8,4.3-15.1
	c0.7-4.1-0.1-7.4-2.3-9.9c-2.2-2.5-5.2-3.8-9-3.8c-2.3,0-4.5,0.4-6.6,1.2c-2.1,0.8-4.1,2.4-5.9,4.7c-2,2.6-4,5.5-6.1,8.6
	c-2.1,3.1-4,6.1-5.6,8.8c-0.3,0.3-0.7,0.8-1.2,1.5c-0.5,0.7-0.8,1.1-1,1.5v-0.2c-1.3,2.1-3.1,4.9-5.4,8.2c-2.3,3.4-4.6,6.5-6.9,9.4
	c-2.3,2.9-4.4,5.3-6.3,7c-1.9,1.7-3.2,2-3.8,0.9c-0.7-0.8-1.1-2.1-1.3-3.8s-0.2-4.2,0.1-7.5c0.5-4.4,1.4-9.3,2.8-14.6
	c1.4-5.3,3.3-10.5,5.6-15.7c2.4-5.2,5.1-9.8,8.2-14c3.1-4.2,6.5-7.3,10.3-9.4c1.3-0.7,2.4-1.2,3.3-1.6c0.9-0.4,1.7-0.6,2.3-0.6
	c1.3,0,2.2,0.7,2.8,2.1c0.6,1.4,0.2,3.5-1.1,6.3c-0.3,1-0.2,1.9,0.4,2.7c0.6,0.8,1.8,1.6,3.8,2.5c4.4,1,7.2-0.1,8.3-3.2l-0.2,0.2
	c1.6-3.9,1.9-7.3,0.9-10.2c-1.1-2.9-2.9-5.2-5.5-7c-2.6-1.8-5.7-3-9.2-3.6c-3.5-0.6-7-0.6-10.4-0.1c-4.3,0.8-8.4,2.5-12.5,4.9
	c-4.1,2.5-7.9,5.4-11.4,9c-3.5,3.5-6.7,7.5-9.6,11.9c-2.9,4.4-5.3,8.8-7.2,13.2c-1,2-1.9,4-2.6,6c-2.1,3.4-4.2,7-6.5,10.8
	c-3.8,6.3-7.8,12.1-12.3,17.5h0.2c-1.5,1.8-3.2,3.7-5.2,5.8c-2,2-4,3.9-6.1,5.6c-2.1,1.7-4.3,3.2-6.4,4.4c-2.1,1.2-4.2,1.8-6.1,1.8
	c-1,0-2.6-0.6-4.9-1.7c-2.8-2-4.5-5.2-5.3-9.7c-0.7-4.5-0.7-9.2,0.1-14.1c0.3-2.8,0.8-5.4,1.5-8c0.7-2.5,1.4-4.7,2.2-6.5
	c12.8-1.5,22.6-4.5,29.4-9.2c6.9-4.7,11.9-9.8,15.2-15.3c1.1-2.3,2-4.3,2.7-6.1c0.7-1.8,1.1-3.4,1.2-4.9c0.8-5.4-0.5-9.7-3.8-13
	c-3.4-3.3-8.1-4.9-14.3-4.9c-2.1,0-4.3,0.2-6.6,0.6c-2.3,0.4-4.6,1.1-6.9,2.1c-5.7,2.5-11.2,6-16.4,10.7c-5.2,4.7-10,9.9-14.2,15.7
	c-2.8,3.8-5.3,7.7-7.5,11.8c0,0,0,0,0,0c-0.4,0.6-0.6,0.9-0.6,1.1l0.1-0.2c-0.1,0.3-0.3,0.5-0.4,0.8c-1,1.6-2.6,4-4.7,7.3
	c-2.9,4.3-6.3,9.1-10.2,14.6c-3.9,5.5-8.2,11.3-12.9,17.5c-4.7,6.2-9.3,12-13.9,17.4c-0.8,0.8-1.7,1.8-2.7,2.9c-1,1.1-2,2.2-3.1,3.2
	c-1.1,1-2.1,1.8-3.1,2.6c-1,0.7-1.7,1.1-2.2,1.1c-0.3,0-0.5-1-0.4-2.9c0.1-2,0.5-5.6,1.3-10.8c0.7-4.7,1.6-9.4,2.7-13.9
	c1.1-4.5,2.9-9.6,5.2-15.3l1.2-3.4c2.5-6.9,4.7-13.2,6.6-19.1c2-5.9,3.3-11.2,4.2-15.9c0.7-4.4,0.1-8.1-1.6-11.2
	c-1.7-3-4.1-5.6-7.1-7.6c-3-2-6.5-3.7-10.4-5c-3.9-1.3-7.8-2.5-11.8-3.7h0.2l-6.9-2.5c0.8-7,0.4-12.4-1.2-16.1
	c-1.6-3.7-3.7-6.7-6.1-9c-2.3-1.5-5.4-2.2-9.3-2.2c-3.8,0-7.3,0.9-10.5,2.7c-3.3,1.8-5.3,4.5-6.1,8.1c-0.5,2.3-0.2,4.5,0.9,6.6
	c1.1,2.1,2.6,4.1,4.7,6c2,1.9,4.3,3.6,6.9,5c2.5,1.5,4.9,2.7,7.2,3.7c-0.7,2.9-1.5,6.1-2.6,9.4c-1.1,3.4-2.3,6.7-3.6,10.2
	c-1.3,3.4-2.7,6.7-4.3,9.8c-1.6,3.1-3.1,5.7-4.5,7.8c-0.8,0.8-1,1.8-0.5,2.8c0.1,0.2,0.2,0.4,0.3,0.5c-5,6.8-10.3,12.6-15.9,17.2
	c-6.6,5.6-13.3,10.3-20,14.2l0.7-2c3.3-9.2,6.2-17.5,8.8-25c2.6-7.5,4.6-13.7,5.9-18.6c0.8-3.3,0.3-5.6-1.5-7
	c-1.8-1.4-4.3-2.1-7.4-2.1c-1.8,0-3.7,0.3-5.8,1c-2,0.7-4,1.6-5.9,2.9c-1.9,1.3-3.6,2.9-5,4.9c-1.5,2-2.5,4.3-2.9,6.9l1.2-1.2
	c-5.9,6.1-11.1,11.3-15.7,15.7c-2.3,2.1-5.3,4.5-9.1,7.1c-3.8,2.6-7.7,5.1-11.9,7.5c-4.2,2.4-8.4,4.3-12.8,5.9
	c-4.3,1.6-8.3,2.3-11.9,2.3c-2.3,0-4.4-0.7-6.3-2c-1.9-1.3-3.3-3.3-4.3-6.1c-1-3.3-1.1-7.5-0.2-12.8c0.8-5.7,2.7-11.9,5.6-18.4
	c2.9-6.5,6.6-13.2,11-19.9c4.4-6.7,9.3-13.3,14.6-19.7c5.3-6.5,10.7-12.5,16.2-18.3c5.5-5.7,10.8-10.8,15.8-15.3
	c5.1-4.5,9.6-8.1,13.7-10.9c1.3,0.2,2.5,0.2,3.7,0.2c1.1,0,2.3,0,3.4,0c11.9,0,21.5-1.9,28.8-5.7c3.7-2.1,6.5-4,8.2-5.7
	c1.8-1.7,2.9-3.5,3.2-5.3c0.3-3.1-1.3-5.7-4.9-7.8c-3.6-2.1-8.7-3.2-15.5-3.2c-5.9,0-12.9,1.2-21,3.7s-16.5,6.4-25.1,11.8
	c-5.2-1.6-9.9-3.8-14.1-6.4c-4.2-2.6-7.4-5.6-9.7-9.1l0.5,0.2l-0.5-0.5c0-0.2-0.1-0.4-0.2-0.6l0-0.1c0,0,0,0,0,0.1
	c-0.1-0.1-0.2-0.2-0.3-0.3c0.2,0,0.2-0.1,0.2-0.2c-1.1-2.1-2.5-3.4-3.9-3.9c-1.5-0.5-3.4,0.1-5.9,1.7l0.7-0.2
	c-2.9,1.6-4.3,2.7-4.2,3.2l1.7,3.4c5.1,8.3,13.8,14.7,26.2,19.1c-7.8,5.7-15.2,11.8-22,18.3c-6.8,6.5-13,13-18.6,19.6
	c-5.6,6.6-10.6,13.2-15,19.9c-4.3,6.6-8,12.9-10.9,18.8c-2.1,3.9-4,8.3-5.8,13.1c-1.7,4.8-2.9,9.6-3.6,14.3
	c-0.8,4.9-0.7,9.7,0.5,14.5c1.1,4.7,3.6,8.8,7.4,12c6.2,5.6,14.3,8.3,24.3,8.3c5.2,0,10.6-0.8,16.1-2.3c5.5-1.6,10.8-3.6,16.1-6
	c5.2-2.5,10.1-5.2,14.7-8.2c4.6-3,8.7-6.1,12.3-9.2c-1.5,3.9-3,8-4.5,12.3c-1.6,4.3-3.2,8.6-5,13l-2.9,8.1c-3.4,1.6-7.4,3.6-12,5.9
	c-4.6,2.3-9.2,4.9-13.9,7.8c-4.7,2.9-9.1,6.1-13.2,9.3c-4.2,3.3-7.6,6.7-10.4,10.3c-2.3,2.8-4.1,5.6-5.4,8.3
	c-1.3,2.8-2.1,5.3-2.5,7.6c-0.8,6.2,0.6,11.4,4.3,15.5c3.7,4.1,9,6.1,15.8,6.1c4.1,0,8.3-0.9,12.8-2.7c4.4-1.8,8.9-4.7,13.5-8.6
	c3.4-3.1,7.1-7.1,10.9-11.9c3.8-4.8,7.4-10.1,10.7-15.8c3.3-5.7,6.3-11.6,9.1-17.5c2.8-6,5.3-11.7,7.6-17.3c5.1-2.6,10.1-5.3,15-8.1
	c4.9-2.8,9.7-5.9,14.3-9.3c4.7-3.4,9.2-7.3,13.5-11.7c4.3-4.3,8.5-9.4,12.4-15.1h-0.2c1.1-1.6,1.1-3,0-4.2c2.3-3.7,4.4-8,6.4-12.7
	c2.8-6.9,4.9-13.2,6.4-18.9c4.1,1.8,7.6,4.1,10.4,6.9c2.9,2.8,3.9,7.2,3.1,13.2c-0.8,5.2-2.3,11.1-4.4,17.5
	c-2.1,6.5-4.3,12.8-6.6,19c-2.8,7.5-5,14.1-6.6,19.7c-1.6,5.6-2.8,11.6-3.4,17.8c-0.5,6.2,0.9,11.2,4.3,15c3.3,3.8,7.8,5.6,13.4,5.6
	c2.9,0,6-0.6,9.2-1.7c3.2-1.1,6.3-2.9,9.4-5.4c2.3-2,4.3-3.8,6-5.6c1.7-1.8,3.3-3.6,4.8-5.4c5.1-5.9,10.1-12.1,15.1-18.6
	c3-4,5.9-7.8,8.6-11.4c0,0,0,0,0,0c0.1,2.5,0.4,5.1,0.9,7.7c1,6.7,3.8,12.4,8.5,17c4.7,4.7,10.8,7,18.5,7c2,0,4-0.2,6.3-0.5
	c2.2-0.3,4.2-0.9,6-1.7c6.4-2.5,12.2-5.8,17.5-10.2c5.3-4.3,9.6-8.6,12.9-12.9c1.7-2,3.4-4.1,5.1-6.3c0.1,1.3,0.3,2.6,0.6,3.9
	c1,5.2,4,9.1,9.1,11.5c2.6,1.5,5.7,2.2,9.3,2.2c5.2,0,10.3-1.7,15.1-5c4.8-3.3,9.3-7.3,13.4-11.9c-1.8,3.8-3.5,7.9-5,12.4
	c-1.6,4.5-2.7,8.5-3.3,12.1c-0.3,2.8-0.2,5.3,0.2,7.5c0.5,2.2,1.6,4,3.4,5.5v-0.2c2.9,2.9,6.6,4.4,11,4.4c4.3,0,8.3-1.1,12.1-3.2
	c3.8-2.1,7.6-4.7,11.2-7.6c10.3-8.3,19.1-17.9,26.4-28.8c0.6-0.9,1.2-1.9,1.9-2.8c-0.2,5.2,0,10,0.7,14.3c1,5.9,3.3,10.4,6.9,13.5
	c3.4,2.5,7.4,3.7,12,3.7c3.3,0,6.6-0.6,9.9-1.7c3.3-1.1,6.5-2.6,9.6-4.3c3-1.7,5.8-3.6,8.3-5.6c2.5-2,4.8-4,6.7-6
	c3.6-3.6,7.2-7.5,10.8-11.8c0.8-0.9,1.6-1.9,2.3-2.8c0,0.2,0,0.5,0,0.7c0.1,2.5,0.4,5.1,0.9,7.7c1,6.7,3.8,12.4,8.5,17
	c4.7,4.7,10.8,7,18.5,7c2,0,4-0.2,6.3-0.5c2.2-0.3,4.2-0.9,6-1.7c6.4-2.5,12.2-5.8,17.5-10.2c5.3-4.3,9.6-8.6,12.9-12.9
	c4.7-5.6,9.2-11.7,13.4-18.5c1.1-1.8,2.2-3.6,3.2-5.3c0.9,2.3,1.9,5,3,7.9c1.1,3.1,2,6.1,2.5,8.8l-2,1.5c-2.8,2.3-5.8,4.8-9.1,7.5
	c-3.3,2.7-6.3,5.6-9,8.6c-2.7,3-4.9,6.1-6.7,9.2c-1.8,3.1-2.6,6.1-2.5,9.1c0.3,4.3,2,7.3,5,9.1c3,1.8,6.4,2.7,10.2,2.7
	c1.8,0,3.4-0.1,4.8-0.4c1.4-0.2,2.8-0.5,4.3-0.9c9-2.9,15.7-7.4,20-13.5c4.3-6,7-12.7,8-19.9c0.7-5.9,0.7-11.9,0-18.2
	c3.9-2.3,8.1-5,12.4-8.1c-0.5,2.7-1,5.3-1.4,7.8c-0.8,7.7-0.7,14.5,0.2,20.4c1,5.9,3.3,10.4,6.9,13.5c3.4,2.5,7.4,3.7,12,3.7
	c3.3,0,6.6-0.6,9.9-1.7c3.3-1.1,6.5-2.6,9.6-4.3c3-1.7,5.8-3.6,8.3-5.6c2.5-2,4.8-4,6.7-6c3.6-3.6,7.2-7.5,10.8-11.8
	c3.6-4.3,7-8.5,10.2-12.8c3.2-4.3,6-8.3,8.5-12c2.5-3.8,4.4-7,5.9-9.8c0.3-1.3-0.5-2.5-2.5-3.4c-1.5-1.8-3.3-2.4-5.4-1.8
	c-2.1,0.6-3.7,1.8-4.7,3.6c-1.5,2.5-3.4,5.4-5.8,9c-2.4,3.5-4.9,7.2-7.7,11.2c-2.8,3.9-5.8,7.8-9,11.8c-3.2,3.9-6.4,7.5-9.6,10.8
	c-3.2,3.3-6.3,6.1-9.2,8.3c-2.9,2.3-5.6,3.8-7.8,4.4c-0.5,0-0.8-0.5-1-1.6c-0.2-1.1-0.4-2.5-0.7-4.3c-0.8-5.4-0.6-11.9,0.7-19.6
	c1-7,2.6-14.7,4.8-22.9c2.2-8.3,4.6-16.5,7.2-24.8c2.6-8.3,5.3-16.2,8.1-23.9c2.8-7.7,5.3-14.5,7.6-20.4l1.5-3.7h2.9
	c2.1,0,4.4,0,6.9,0.1c2.5,0.1,5,0.1,7.6,0.1c4.1,0,8.3-0.1,12.6-0.2c4.3-0.2,8.3-0.5,12-1.1c3.7-0.6,6.9-1.3,9.7-2.3
	c2.8-1,4.7-2.2,5.9-3.8l-0.7,0.2C894.9,571.5,895.5,570.6,895.4,569.9z M695.1,639.8c2.3-3.6,4.7-7,7.2-10.2c2.5-3.2,5.2-6,7.8-8.6
	c2.7-2.5,5.3-4.2,7.7-5c1,0.2,1.7,1,2.2,2.5c0.5,1.5,0.6,3.1,0.2,4.9c-0.2,1.3-0.5,2.6-0.9,3.8c-0.4,1.2-0.9,2.4-1.6,3.6
	c-2.1,3.9-5.6,7.7-10.3,11.3c-4.7,3.6-10.9,6.1-18.4,7.6C690.9,646.7,692.8,643.4,695.1,639.8z M446.9,639.8c2.3-3.6,4.7-7,7.2-10.2
	c2.5-3.2,5.2-6,7.8-8.6c2.7-2.5,5.3-4.2,7.7-5c1,0.2,1.7,1,2.2,2.5c0.5,1.5,0.6,3.1,0.2,4.9c-0.2,1.3-0.5,2.6-0.9,3.8
	c-0.4,1.2-0.9,2.4-1.6,3.6c-2.1,3.9-5.6,7.7-10.3,11.3c-4.7,3.6-10.9,6.1-18.4,7.6C442.7,646.7,444.6,643.4,446.9,639.8z M296.1,543
	c2.8-1.1,5.6-2.1,8.3-2.9c1.1-0.3,1.8-0.6,2-0.7c-0.3,1-1.1,2-2.5,3.2c-2.3,1-4.7,1.8-7.4,2.6c-2.6,0.7-5.6,1.3-9.1,1.6
	C290.4,545.3,293.3,544.1,296.1,543z M238.7,715.8c-1.3,2.5-2.9,5.4-4.7,8.7c-2.9,5.2-5.6,9.6-8.1,13c-2.5,3.4-4.7,6.3-6.9,8.6
	c-3.4,3.4-6.2,5.9-8.3,7.4c-2.1,1.5-3.8,2.2-4.9,2.2c-1,0-1.6-1-1.8-2.9c-0.2-2-0.2-4.3,0.1-7.1c0.5-3.4,1.6-6.5,3.2-9.3
	c1.8-2.8,4.1-5.5,6.9-8.2c2.8-2.7,5.8-5.3,9-7.7c3.2-2.5,6.5-4.7,9.9-6.9c3.4-2.1,6.6-4,9.6-5.6C241.3,710.6,240,713.2,238.7,715.8z
	 M332.9,597.9c-2.3-1.3-4.3-2.9-6-4.9c-1.7-2-2.3-4-1.8-6.1c0.3-1.3,1-2.4,2-3.2c1-0.8,1.8-1,2.5-0.5
	C331.9,585.1,333,590.1,332.9,597.9z M742.1,705.2c-2.5,4.5-5.9,7.8-10.2,9.9h0.2c-0.7,0.2-1,0.1-1-0.2c-0.8-1.5-0.9-3.2-0.1-5.2
	c0.7-2,1.9-4,3.6-6.1c1.6-2.1,3.6-4.3,5.8-6.4c2.2-2.1,4.5-4.1,6.7-5.9C746.3,696.1,744.6,700.7,742.1,705.2z M333.4,794
	c-0.9-0.4-1.6-0.9-2.3-1.5s-1.2-1.4-1.5-2.3c-0.4-0.9-0.6-1.8-0.6-2.8v-32.9c0-1,0.2-1.9,0.6-2.7c0.4-0.9,0.9-1.6,1.5-2.3
	s1.4-1.2,2.3-1.6c0.9-0.4,1.8-0.6,2.8-0.6h9.7c1,0,2.1,0.1,3.3,0.3c1.2,0.2,2.1,0.8,2.8,1.8c0.2-0.5,0.6-0.9,1.1-1.1
	c0.5-0.3,1.1-0.5,1.8-0.6c0.7-0.1,1.4-0.2,2.1-0.3c0.7,0,1.4-0.1,2.1-0.1h2.3v16h-10.8v-6c0-0.3-0.1-0.7-0.4-0.9
	c-0.2-0.3-0.6-0.4-0.9-0.4h-8c-0.4,0-0.7,0.1-1,0.4c-0.3,0.3-0.4,0.6-0.4,1v27.2c0,0.4,0.1,0.7,0.4,1c0.3,0.3,0.6,0.4,1,0.4h8
	c0.4,0,0.7-0.1,0.9-0.4c0.2-0.3,0.4-0.6,0.4-0.9v-6h10.8v16h-2.3c-0.7,0-1.4,0-2.1-0.1c-0.7,0-1.4-0.1-2.1-0.3
	c-0.7-0.1-1.3-0.3-1.8-0.6c-0.5-0.3-0.9-0.7-1.1-1.1c-0.7,1-1.6,1.6-2.8,1.8c-1.2,0.2-2.3,0.3-3.3,0.3h-9.7
	C335.2,794.5,334.3,794.3,333.4,794z M373.4,785.9V756h-3.2v-8.6h17.1v8.6h-3.2v11.3h11.9V756h-3.1v-8.6h17.1v8.6h-3.2v29.9h3.2v8.6
	h-17.1v-8.6h3.1v-10.6h-11.9v10.6h3.2v8.6h-17.1v-8.6H373.4z M417.7,785.9v8.6h17.1v-8.6h-3.1v-8.7h3.5l8.2,17.3h11.8v-8.6h-3.7
	l-4.7-8.8c0.8-0.2,1.6-0.5,2.3-0.9c0.8-0.4,1.5-1,2.1-1.6c0.6-0.6,1.1-1.3,1.5-2.1s0.6-1.6,0.6-2.5v-15.6c0-1-0.2-1.9-0.6-2.7
	c-0.4-0.9-0.9-1.6-1.5-2.3s-1.4-1.2-2.3-1.6c-0.9-0.4-1.8-0.6-2.7-0.6h-28.3v8.6h3.2v29.9H417.7z M431.6,756h9.5
	c0.4,0,0.7,0.1,1,0.4c0.3,0.3,0.4,0.6,0.4,1v10.2c0,0.3-0.1,0.6-0.4,0.9c-0.3,0.3-0.6,0.4-1,0.4h-9.5V756z M466.2,785.9V756h-3.5
	v-8.6h17.8v8.6h-3.6v29.9h3.6v8.6h-17.8v-8.6H466.2z M499.7,778.6v6c0,0.3,0.1,0.7,0.4,0.9c0.2,0.3,0.5,0.4,0.9,0.4h7.3
	c0.3,0,0.6-0.1,0.9-0.4c0.3-0.3,0.4-0.6,0.4-1v-3.6c0-0.5-0.2-0.8-0.5-1l-17.2-10.8c-1.1-0.7-1.9-1.5-2.3-2.3
	c-0.4-0.8-0.6-1.8-0.6-3v-9.3c0-1,0.2-1.9,0.6-2.7c0.4-0.9,0.9-1.6,1.5-2.3c0.6-0.6,1.4-1.2,2.2-1.6c0.9-0.4,1.8-0.6,2.9-0.6h9.5
	c0.5,0,1.1,0,1.7,0c0.6,0,1.2,0.1,1.8,0.2c0.6,0.1,1.2,0.3,1.7,0.6c0.5,0.3,1,0.7,1.3,1.2c0.2-0.5,0.6-0.9,1.1-1.1
	c0.5-0.3,1.1-0.5,1.8-0.6c0.7-0.1,1.4-0.2,2.1-0.3c0.7,0,1.4-0.1,2.1-0.1h2.3v16h-10.8v-6c0-0.3-0.1-0.7-0.4-0.9
	c-0.2-0.3-0.6-0.4-0.9-0.4H501c-0.3,0-0.6,0.1-0.9,0.4c-0.3,0.3-0.4,0.6-0.4,1v3.5c0,0.5,0.2,0.8,0.5,1l18.4,11.1
	c1.2,0.7,2,1.5,2.4,2.3c0.4,0.8,0.6,1.8,0.6,3v9.1c0,1-0.2,1.9-0.6,2.8c-0.4,0.9-0.9,1.6-1.6,2.3s-1.4,1.2-2.3,1.5s-1.8,0.6-2.7,0.6
	h-10c-0.5,0-1.1,0-1.6,0c-0.6,0-1.1-0.1-1.7-0.2c-0.5-0.1-1-0.3-1.5-0.6c-0.5-0.3-0.9-0.7-1.2-1.2c-0.2,0.5-0.6,0.9-1.1,1.1
	c-0.5,0.3-1.1,0.5-1.8,0.6c-0.7,0.1-1.4,0.2-2.1,0.3c-0.8,0-1.5,0.1-2.1,0.1h-2.3v-16H499.7z M562.3,766.7V756h-5.6v29.9h3.7v8.6
	h-18.4v-8.6h3.6V756h-5.5v10.7h-9.8v-19.3h41.6v19.3H562.3z M583.4,785.9V756h-3.2v-8.6h14.7l9.6,20.6l9.7-20.6h14.6v8.6h-3.2v29.9
	h3.2v8.6h-16.7v-8.6h3.2v-19.2l-10.4,21.4h-0.7l-10.4-21.4v19.2h3.2v8.6h-16.7v-8.6H583.4z M635.9,785.9v8.6h17.1v-8.6h-3l1-4.7
	h11.9l1,4.7h-3v8.6H678v-8.6h-3.5l-7.1-29.9h3.9v-8.6h-28.5v8.6h3.9l-7.3,29.9H635.9z M656.4,756h1l3.8,17.8h-8.7L656.4,756z
	 M696.5,778.6v6c0,0.3,0.1,0.7,0.4,0.9c0.2,0.3,0.5,0.4,0.9,0.4h7.3c0.3,0,0.6-0.1,0.9-0.4c0.3-0.3,0.4-0.6,0.4-1v-3.6
	c0-0.5-0.2-0.8-0.5-1l-17.2-10.8c-1.1-0.7-1.9-1.5-2.3-2.3c-0.4-0.8-0.6-1.8-0.6-3v-9.3c0-1,0.2-1.9,0.6-2.7
	c0.4-0.9,0.9-1.6,1.5-2.3c0.6-0.6,1.4-1.2,2.2-1.6c0.9-0.4,1.8-0.6,2.9-0.6h9.5c0.5,0,1.1,0,1.7,0c0.6,0,1.2,0.1,1.8,0.2
	c0.6,0.1,1.2,0.3,1.7,0.6c0.5,0.3,1,0.7,1.3,1.2c0.2-0.5,0.6-0.9,1.1-1.1c0.5-0.3,1.1-0.5,1.8-0.6c0.7-0.1,1.4-0.2,2.1-0.3
	c0.7,0,1.4-0.1,2.1-0.1h2.3v16h-10.8v-6c0-0.3-0.1-0.7-0.4-0.9c-0.2-0.3-0.6-0.4-0.9-0.4h-8.5c-0.3,0-0.6,0.1-0.9,0.4
	c-0.3,0.3-0.4,0.6-0.4,1v3.5c0,0.5,0.2,0.8,0.5,1l18.4,11.1c1.2,0.7,2,1.5,2.4,2.3c0.4,0.8,0.6,1.8,0.6,3v9.1c0,1-0.2,1.9-0.6,2.8
	c-0.4,0.9-0.9,1.6-1.6,2.3s-1.4,1.2-2.3,1.5s-1.8,0.6-2.7,0.6h-10c-0.5,0-1.1,0-1.6,0c-0.6,0-1.1-0.1-1.7-0.2
	c-0.5-0.1-1-0.3-1.5-0.6c-0.5-0.3-0.9-0.7-1.2-1.2c-0.2,0.5-0.6,0.9-1.1,1.1c-0.5,0.3-1.1,0.5-1.8,0.6c-0.7,0.1-1.4,0.2-2.1,0.3
	c-0.8,0-1.5,0.1-2.1,0.1h-2.3v-16H696.5z M472.8,838.1C472.8,838,472.9,838,472.8,838.1c0.2-0.1,0.4-0.2,0.5-0.2L472.8,838.1z
	 M515.2,883.9c2.3,2.6,3.3,5.3,2.9,8.1c-0.7,3.6-2.5,6.3-5.5,8.1c-3,1.8-6.7,2.2-10.9,1.2c-3.8-0.8-6.7-2.5-8.8-5.2
	c-2.1-2.6-3-5.3-2.7-8.1c0.3-3.4,2-6,5-7.8c3-1.8,6.7-2.3,10.9-1.5C509.9,879.6,512.9,881.3,515.2,883.9z M732.2,858.4
	c-0.1-0.7-0.6-1.4-1.6-2.2c-5.4-2.5-8.8-2.1-10.3,1c-0.5,0.7-1.7,1.1-3.7,1.5c-2,0.3-4.4,0.6-7.2,0.9c-2.9,0.2-6,0.4-9.3,0.5
	c-3.4,0.1-6.7,0.1-9.9,0.1c-2.5,0-4.8,0-7-0.1c-2.2-0.1-4.2-0.1-6-0.1l1-2.2c1.8-3.8,3.6-8,5.5-12.6c1.9-4.7,3.2-8.2,4-10.7
	c1.1-3.4,0.9-6.4-0.9-9c-1.7-2.5-3.9-4.4-6.6-5.6c-2.7-1.2-5.5-1.8-8.3-1.6c-2.9,0.2-4.8,1.1-5.8,2.7c-1.1,2.1-3.2,6.7-6,13.6
	c-2.9,7-6.2,15.5-9.9,25.6c-6.2,0.3-12.1,0.9-17.8,1.7c-0.1,0-0.1,0-0.2,0c0.2-0.3,0.5-0.7,0.7-1c2.7-4.2,4.9-8.2,6.7-11.9
	c1.8-3.7,3-6.9,3.7-9.7c2-8,1.3-13.8-2-17.5c-3.3-3.7-8-5.5-14.2-5.5c-4.6,0-9.5,1.1-14.7,3.3c-5.2,2.2-10.2,5.5-15,9.9
	c-10.3,9.6-19.7,21.7-28.1,36.3c-8.4,14.6-16,30-22.7,46.5c-3.5,8.6-6.8,17.3-9.8,25.9l-0.7,1.2c-1.8,3.1-4.2,7-7.1,11.8
	c-2.9,4.7-6.1,9.6-9.3,14.6c-3.3,5-6.7,9.8-10.2,14.3c-3.5,4.6-6.8,8.2-9.9,10.8c-0.3,0.3-0.9,0.7-1.6,1.2c-0.7,0.5-1.4,0.9-2.1,1.2
	c-0.7,0.3-1.3,0.5-1.8,0.5c-0.6,0-0.9-0.2-0.9-0.7c-0.5-1.1-0.8-2.7-0.9-4.8c-0.1-2,0.4-5.3,1.3-9.7c1-5.1,2.2-9.9,3.8-14.6
	c1.6-4.7,3.3-9.4,5.3-14.3c2.3-6.2,4.4-12.3,6.3-18.2c1.9-5.9,3.1-11.2,3.8-15.9c0.3-2.5-0.3-4.6-1.8-6.4c-1.6-1.8-3.6-3.2-6-4.3
	c-2.5-1.1-5-1.8-7.7-2.1c-2.7-0.3-4.9-0.2-6.7,0.5c-2,1-3.1,2.2-3.4,3.6c-0.3,1.4-0.1,2.5,0.7,3.3l-1-0.5c0.3,1.1,0.1,3-0.7,5.6
	c-0.8,2.6-1.9,6.1-3.2,10.5c-0.5,1.8-1.1,3.6-1.7,5.4c-0.7,1.8-1.2,3.6-1.7,5.4c-0.1,0.4-0.3,0.9-0.4,1.3
	c-4.8,6.4-9.9,11.9-15.2,16.4c-6.6,5.6-13.3,10.3-20,14.2l0.7-2c3.3-9.2,6.2-17.5,8.8-25c2.6-7.5,4.6-13.7,5.9-18.6
	c0.8-3.3,0.3-5.6-1.5-7c-1.8-1.4-4.3-2.1-7.4-2.1c-1.8,0-3.7,0.3-5.8,1c-2,0.7-4,1.6-5.9,2.9c-1.9,1.3-3.6,2.9-5,4.9
	c-1.5,2-2.5,4.3-2.9,6.9l1.2-1.2c-5.9,6.1-11.1,11.3-15.7,15.7c-2.3,2.1-5.3,4.5-9.1,7.1c-3.8,2.6-7.7,5.1-11.9,7.5
	c-4.2,2.4-8.4,4.3-12.8,5.9c-4.3,1.6-8.3,2.3-11.9,2.3c-2.3,0-4.4-0.7-6.3-2c-1.9-1.3-3.3-3.3-4.3-6.1c-1-3.3-1.1-7.5-0.2-12.8
	c0.8-5.7,2.7-11.9,5.6-18.4c2.9-6.5,6.6-13.2,11-19.9c4.4-6.7,9.3-13.3,14.6-19.7c5.3-6.5,10.7-12.5,16.2-18.3
	c5.5-5.7,10.8-10.8,15.8-15.3c5.1-4.5,9.6-8.1,13.7-10.9c1.3,0.2,2.5,0.2,3.7,0.2c1.1,0,2.3,0,3.4,0c11.9,0,21.5-1.9,28.8-5.7
	c3.7-2.1,6.5-4,8.2-5.7c1.8-1.7,2.9-3.5,3.2-5.3c0.3-3.1-1.3-5.7-4.9-7.8c-3.6-2.1-8.7-3.2-15.5-3.2c-5.9,0-12.9,1.2-21,3.7
	s-16.5,6.4-25.1,11.8c-5.2-1.6-9.9-3.8-14.1-6.4c-4.2-2.6-7.4-5.6-9.7-9.1l0.5,0.2l-0.5-0.5c0-0.2-0.1-0.4-0.2-0.6l0-0.1
	c0,0,0,0,0,0.1c-0.1-0.1-0.2-0.2-0.3-0.3c0.2,0,0.2-0.1,0.2-0.2c-1.1-2.1-2.5-3.4-3.9-3.9s-3.4,0.1-5.9,1.7l0.7-0.2
	c-2.9,1.6-4.3,2.7-4.2,3.2l1.7,3.4c5.1,8.3,13.8,14.7,26.2,19.1c-7.8,5.7-15.2,11.8-22,18.3c-6.8,6.5-13,13-18.6,19.6
	c-5.6,6.6-10.6,13.2-15,19.9c-4.3,6.6-8,12.9-10.9,18.8c-2.1,3.9-4,8.3-5.8,13.1c-1.7,4.8-2.9,9.6-3.6,14.3
	c-0.8,4.9-0.7,9.7,0.5,14.5c1.1,4.7,3.6,8.8,7.4,12c6.2,5.6,14.3,8.3,24.3,8.3c5.2,0,10.6-0.8,16.1-2.3c5.5-1.6,10.8-3.6,16.1-6
	c5.2-2.5,10.1-5.2,14.7-8.2c4.6-3,8.7-6.1,12.3-9.2c-1.5,3.9-3,8-4.5,12.3c-1.6,4.3-3.2,8.6-5,13l-2.9,8.1c-3.4,1.6-7.4,3.6-12,5.9
	c-4.6,2.3-9.2,4.9-13.9,7.8c-4.7,2.9-9.1,6.1-13.2,9.3c-4.2,3.3-7.6,6.7-10.4,10.3c-2.3,2.8-4.1,5.6-5.4,8.3
	c-1.3,2.8-2.1,5.3-2.5,7.6c-0.8,6.2,0.6,11.4,4.3,15.5c3.7,4.1,9,6.1,15.8,6.1c4.1,0,8.3-0.9,12.8-2.7c4.4-1.8,8.9-4.7,13.5-8.6
	c3.4-3.1,7.1-7.1,10.9-11.9c3.8-4.8,7.4-10.1,10.7-15.8c3.3-5.7,6.3-11.6,9.1-17.5c2.8-6,5.3-11.7,7.6-17.3c5.1-2.6,10.1-5.3,15-8.1
	c4.9-2.8,9.7-5.9,14.3-9.3c1.5-1.1,3-2.3,4.5-3.6c-0.9,3.4-1.8,6.6-2.6,9.6c-0.9,3.5-1.6,6.2-2.1,8c-1.5,8.2-1,14.9,1.5,20.1
	c1.3,3.3,3.2,5.5,5.6,6.7c2.5,1.2,5.3,1.8,8.6,1.8c4.6,0,9.2-1.2,13.9-3.6c4.7-2.4,8.5-4.9,11.7-7.5c3.4-2.8,6.9-6.4,10.4-10.8
	c1.7-2.1,3.3-4.3,5-6.5c-2.9,10.3-5.4,20-7.5,29c-0.7,3.4-1.3,6.9-2,10.3c-0.7,3.4-1.1,6.7-1.5,9.8c-0.8,5.2-1.2,9.9-1.2,14
	c0,4.1,0.7,7.6,2,10.5c2.5,6.5,7.9,9.8,16.4,9.8c3.9,0,7.9-0.9,12-2.6c4.1-1.7,7.8-4.1,11-7c3.3-2.9,6-5.9,8.2-8.8
	c2.2-2.9,4-5.6,5.3-8.1c2.8-5.2,5.3-10.8,7.5-16.8c2.2-6,3.8-12.5,4.8-19.5c0.8-6.2,1.1-12.7,0.7-19.4c-0.3-6.7-1.6-13.8-3.7-21.4
	c2.8,1.3,5.5,2.3,8.2,2.9c2.7,0.6,5.7,0.9,9,0.9c7.4,0,14.5-2,21.5-5.9c1.5-0.8,2.9-1.8,4.4-2.8c-0.6,3-1.1,5.9-1.5,8.7
	c-0.8,7.7-0.7,14.5,0.2,20.4c1,5.9,3.3,10.4,6.9,13.5c3.4,2.5,7.4,3.7,12,3.7c3.3,0,6.6-0.6,9.9-1.7c3.3-1.1,6.5-2.6,9.6-4.3
	c3-1.7,5.8-3.6,8.3-5.6c2.5-2,4.8-4,6.7-6c3.6-3.6,7.2-7.5,10.8-11.8c3.6-4.3,7-8.5,10.2-12.8c3.2-4.3,6-8.3,8.5-12
	c2.5-3.8,4.4-7,5.9-9.8c0.3-1.3-0.5-2.5-2.5-3.4c-1.5-1.8-3.3-2.4-5.4-1.8c-2.1,0.6-3.7,1.8-4.7,3.6c-1.5,2.5-3.4,5.4-5.8,9
	c-2.4,3.5-4.9,7.2-7.7,11.2c-2.8,3.9-5.8,7.8-9,11.8c-3.2,3.9-6.4,7.5-9.6,10.8c-3.2,3.3-6.3,6.1-9.2,8.3c-2.9,2.3-5.6,3.8-7.8,4.4
	c-0.5,0-0.8-0.5-1-1.6c-0.2-1.1-0.4-2.5-0.7-4.3c-0.8-5.4-0.6-11.9,0.7-19.6c1-7,2.6-14.7,4.8-22.9c2.2-8.3,4.6-16.5,7.2-24.8
	c2.6-8.3,5.3-16.2,8.1-23.9c2.8-7.7,5.3-14.5,7.6-20.4l1.5-3.7h2.9c2.1,0,4.4,0,6.9,0.1c2.5,0.1,5,0.1,7.6,0.1
	c4.1,0,8.3-0.1,12.6-0.2c4.3-0.2,8.3-0.5,12-1.1c3.7-0.6,6.9-1.3,9.7-2.3c2.8-1,4.7-2.2,5.9-3.8l-0.7,0.2
	C731.7,860,732.2,859.1,732.2,858.4z M459.3,831.4c2.8-1.1,5.6-2.1,8.3-2.9c1.1-0.3,1.8-0.6,2-0.7c-0.3,1-1.1,2-2.5,3.2
	c-2.3,1-4.7,1.8-7.4,2.6c-2.6,0.7-5.6,1.3-9.1,1.6C453.7,833.8,456.5,832.6,459.3,831.4z M401.9,1004.2c-1.3,2.5-2.9,5.4-4.7,8.7
	c-2.9,5.2-5.6,9.6-8.1,13c-2.5,3.4-4.7,6.3-6.9,8.6c-3.4,3.4-6.2,5.9-8.3,7.4c-2.1,1.5-3.8,2.2-4.9,2.2c-1,0-1.6-1-1.8-2.9
	c-0.2-2-0.2-4.3,0.1-7.1c0.5-3.4,1.6-6.5,3.2-9.3c1.8-2.8,4.1-5.5,6.9-8.2c2.8-2.7,5.8-5.3,9-7.7c3.2-2.5,6.5-4.7,9.9-6.9
	c3.4-2.1,6.6-4,9.6-5.6C404.5,999.1,403.2,1001.7,401.9,1004.2z M577.8,900.7c3.3-7.3,6.8-14.5,10.7-21.6c3.8-7.1,7.8-14,12-20.6
	c4.2-6.6,8.5-12.5,12.9-17.8c2.3-2.3,4.3-4.2,5.9-5.8c1.6-1.6,3.1-2.8,4.4-3.8l-0.2,0.2c3.8-2.8,6-4.2,6.9-4.2c0.8,0,1.1,1.2,1,3.6
	c-0.2,2.4-0.5,5.1-1,8.2c-0.7,2.5-1.8,5.4-3.4,8.8c-1.6,3.4-3.6,7.1-6,10.9c-1.3,2.1-2.7,4.2-4.1,6.4c-4.6,1.4-8.5,3.3-11.7,5.6
	c-3.3,2.4-5.7,5.3-7.4,8.7c0,0.5,0.5,1,1.6,1.6c1.1,0.6,2.3,1,3.8,1.3c0.4,0.1,0.8,0.2,1.1,0.2c-0.1,0.2-0.3,0.3-0.4,0.5
	c-5.9,7.4-11.8,14.4-17.8,21.1c-6,6.7-11.6,12.4-16.8,17.2C571.6,914.9,574.5,908,577.8,900.7z M566.2,1000.2
	c-1,6.2-2.5,12.1-4.5,17.5c-2,5.5-4.2,10.4-6.5,14.8c-1.1,2.3-2.5,4.5-4,6.6c-1.6,2.1-3.1,4-4.7,5.6c-1.6,1.6-3.1,3-4.5,4
	c-1.5,1.1-2.7,1.6-3.7,1.6c-1.3,0-1.6-3-1-9.1c0.3-2.3,0.6-4.7,0.9-7.4c0.2-2.6,0.5-5.2,0.9-7.8c1.5-10.8,4-22.7,7.5-35.7
	c3.5-13,7.6-26.4,12.4-40.3c4.1,9.2,6.6,17.9,7.5,26.4C567.3,985,567.2,992.8,566.2,1000.2z M642.8,878.5c-2,5.4-4.2,11.5-6.6,18.4
	c-2.5,6.9-4.9,14-7.2,21.5c-1.8,5.5-3.4,11.1-4.9,16.7c-5.3,6.9-10.3,11.7-15,14.4c-4.9,2.8-9.5,4.2-13.7,4.2c-2.3,0-4.6-0.4-7-1.3
	c-2.4-0.9-4.7-2-7-3.3c-2.9-1.8-5.7-4-8.2-6.6c-2.5-2.6-4.5-4.8-6-6.6c3.1-2.4,6.6-5.5,10.4-9.2c3.8-3.7,7.8-7.7,11.9-12
	c4.1-4.3,8.2-8.9,12.4-13.6c4.2-4.7,8.1-9.3,11.9-13.7c3.6-4.4,7-8.9,10.3-13.3c0.6-0.8,1.2-1.7,1.8-2.5c6-1.4,13-2.3,21-2.9
	L642.8,878.5z"/>
</svg>
