<?xml version="1.0" encoding="utf-8"?>
<!-- Generator: Adobe Illustrator 22.1.0, SVG Export Plug-In . SVG Version: 6.00 Build 0)  -->
<svg version="1.0" id="Layer_1" xmlns="http://www.w3.org/2000/svg" xmlns:xlink="http://www.w3.org/1999/xlink" x="0px" y="0px"
	 viewBox="0 0 432 432" style="enable-background:new 0 0 432 432;" xml:space="preserve">
<style type="text/css">
	.st0{fill:#265A2D;}
	.st1{fill:#DC2127;}
</style>
<path class="st0" d="M172.3,224.3c0-0.8,0-1.6,0-2.2c-0.1-0.6-0.2-1.1-0.3-1.5c-0.3-0.5-0.2-0.8,0.3-0.8c0.5,0,1.1,0.1,2,0.5
	c0.8,0.3,1.8,0.8,2.8,1.4c1.1,0.6,2,1.3,2.9,2c0.9,0.7,1.6,1.5,2.1,2.4c0.5,0.8,0.7,1.6,0.5,2.3c-0.5,2.6-1.2,5.2-1.8,7.9
	c-0.7,2.6-1.3,5.2-1.9,7.8c-0.6,2.6-1.1,5-1.6,7.4c-0.5,2.3-0.8,4.5-1,6.5c-0.2,2-0.2,3.8,0,5.3c0.2,1.5,0.6,2.7,1.4,3.6
	c-0.3,0.2-0.8,0.2-1.6,0c-0.7-0.2-1.6-0.7-2.5-1.3c-0.9-0.6-1.8-1.4-2.7-2.4c-0.9-1-1.7-2.1-2.3-3.3c-0.3-0.6-0.5-1.8-0.4-3.4
	c0-1.7,0.2-3.6,0.4-5.9c0.3-2.2,0.6-4.7,1.1-7.2c0.5-2.6,0.9-5.1,1.3-7.5c0.4-2.4,0.8-4.6,1.1-6.6
	C172.2,227.1,172.4,225.5,172.3,224.3z M137.5,245.3c1.1,1.5,2.3,2.9,3.4,4s2.1,1.9,3.1,2.5c0.9,0.5,1.4,0.5,1.4,0.1
	c-0.8-3-1.2-6.1-1-9.3c0.1-3.2,0.7-6.3,1.6-9.3c0.9-3,2.3-5.8,4-8.5c1.7-2.7,3.7-5,6-7.1c2.3-2.1,4.8-3.7,7.7-4.9
	c2.8-1.2,5.8-1.9,9-2c1.7-0.1,3.7,0,5.9,0.2c2.3,0.2,4.5,0.7,6.7,1.5s4.3,1.8,6.1,3.2c1.9,1.4,3.3,3.2,4.2,5.4
	c0.8,1.7,1.1,3.5,0.8,5.4c-0.3,1.9-0.9,3.9-1.8,5.9c-0.9,2-2.1,3.9-3.6,5.9c-1.5,1.9-3,3.7-4.5,5.4c-1.5,1.7-3,3.2-4.5,4.6
	c-1.5,1.4-2.8,2.5-3.8,3.3c-0.3,0.2-0.3,0.5-0.1,0.7c0.2,0.3,0.6,0.3,1.2,0.3h0.1h0.1c0.5-0.1,1.3,0,2.5,0.2
	c1.2,0.2,2.3,0.6,3.5,1.1c1.2,0.5,2.3,1.3,3.3,2.2c1,0.9,1.7,2.1,2,3.5c0.4,1.8,0.4,3.6,0,5.5c-0.4,1.9-1.2,3.6-2.5,5.1
	c-1.3,1.6-3.1,2.8-5.4,3.8c-2.3,1-5.3,1.5-8.8,1.6c-2.3,0-4.7-0.3-7.1-1c-2.4-0.7-4.7-1.7-6.8-3c-2.1-1.3-3.9-3-5.3-5
	c-1.5-2-2.4-4.3-2.8-7c-0.2-1.3-0.5-2.1-0.8-2.1c-0.3-0.1-0.8,0.3-1.2,1.2c-0.5,1-0.6,2.2-0.4,3.6c0.2,1.4,0.7,2.9,1.5,4.6
	c0.9,1.9,2.1,3.6,3.8,5.1c1.6,1.5,3.5,2.8,5.6,3.9c2.1,1.1,4.3,1.9,6.6,2.5c2.3,0.6,4.6,1,7,1.2c3.7,0.3,7.1,0,10.3-0.9
	c3.2-0.8,6.2-2.1,8.7-3.7c2.6-1.7,4.6-3.6,6.1-6c1.5-2.3,2.4-4.8,2.5-7.5c0.2-2.3-0.2-4.1-1.2-5.6c-1-1.5-2.3-2.6-3.9-3.5
	c-1.6-0.9-3.4-1.4-5.4-1.7c-2-0.3-4-0.3-5.9,0c1.7-0.9,3.6-2,5.6-3.2c2-1.2,4-2.5,5.9-4c1.9-1.5,3.7-3,5.4-4.7
	c1.6-1.7,2.9-3.5,3.8-5.4c0.9-1.9,1.5-3.9,1.6-6.1c0.1-2.1-0.4-4.3-1.5-6.6c-0.9-1.8-2.1-3.4-3.7-4.8s-3.3-2.6-5.3-3.6
	c-1.9-1-4-1.9-6.3-2.5c-2.3-0.7-4.5-1.2-6.8-1.6c-2.3-0.4-4.5-0.7-6.6-0.8c-2.1-0.1-4.1-0.2-5.9-0.1c-3.1,0-6.2,0.4-9.3,1.1
	c-3.1,0.7-6.1,1.7-9,3c-2.9,1.3-5.5,3-7.9,4.9c-2.4,1.9-4.4,4.1-6,6.6c-1.6,2.5-2.8,5.2-3.5,8.2c-0.7,3-0.8,6.3-0.3,9.8
	C135.7,242.2,136.4,243.8,137.5,245.3z M278.2,241.6c1.8,0.8,3.2,0.9,4.1,0.3c0.9-0.6,1.6-1.5,2.1-2.9c0.8-2.3,2.2-4.2,4.1-5.7
	c0-0.5-0.4-1-1.2-1.6c-0.8-0.6-1.7-1.1-2.7-1.5c-1-0.4-2.1-0.8-3.1-1c-1-0.2-1.7-0.2-2,0.1c-0.6,0.3-1,0.8-1.4,1.6
	c-0.3,0.8-0.6,1.7-0.8,2.7c-0.2,1-0.4,2-0.5,3c-0.1,1-0.1,1.8-0.1,2.5c-0.1,0.7,0,1.1,0.2,1.4C277,240.9,277.5,241.2,278.2,241.6z
	 M360.5,256.1c-0.8,2.5-1.8,4.8-2.9,6.8c-1.1,2-2.4,3.8-3.7,5.3c-1.4,1.6-2.9,2.9-4.5,4.2c-1.6,1.2-3.4,2.4-5.2,3.4l-0.9,3.1
	c-1.2,4.1-2.2,7.9-3.1,11.5c-0.8,3.6-1.8,6.6-2.9,9.3c-1.1,2.6-2.6,4.6-4.5,6c-1.9,1.4-4.4,1.9-7.6,1.6c-1.8-0.2-3.5-0.6-5.1-1.3
	c-1.6-0.7-3-1.6-4.2-2.6c-1.2-1.1-2.3-2.2-3.1-3.5c-0.8-1.3-1.4-2.7-1.8-4.1c-0.8-3.3-0.6-6,0.5-8s2.8-3.6,5.2-4.9
	c2.4-1.3,5.3-2.5,8.6-3.6s6.9-2.5,10.8-4.1l0.7-4.4c-0.6,0.8-1.3,1.4-2,1.9c-0.7,0.5-1.5,0.7-2.5,0.8c-1.6,0-3.1-0.4-4.4-1.3
	c-1.4-0.9-2.5-2.2-3.3-3.9c-0.5-1-0.8-2.1-1.1-3.4c-0.5,0.8-1,1.7-1.5,2.5c-1.2,1.7-2.4,3.2-3.7,4.4c-1.3,1.2-2.8,1.8-4.4,1.9
	c-2.2,0.1-4.2-0.5-5.8-1.8c-1.6-1.3-2.6-2.9-3.1-4.9c-0.2-0.8-0.2-1.8-0.1-3c0.2-1.2,0.4-2.5,0.8-3.9c0.3-1.4,0.7-2.8,1-4.3
	c0.3-1.4,0.6-2.8,0.7-4c0.1-1.2,0.2-2.1,0.1-2.9c-0.1-0.7-0.5-1.1-1.1-1.1c-0.7,0-1.5,0.4-2.5,1.4c-1,0.9-2,2-3,3.4
	c-1,1.4-1.9,2.9-2.8,4.5c-0.8,1.6-1.5,3.2-1.9,4.6l-2.4,8.3c-0.2,0.7-0.4,1.3-0.5,1.8c-0.1,0.5-0.2,0.8-0.3,1
	c-0.1,0.2-0.2,0.4-0.3,0.4c-0.1,0.1-0.2,0.1-0.4,0.1c-0.9,0-1.7-0.3-2.5-0.9c-0.8-0.6-1.5-1.2-2-2c-0.5-0.6-0.8-1.3-1-1.9
	c-0.5,0.6-1,1.2-1.5,1.8c-0.9,0.9-1.8,1.6-2.8,2.2c-1,0.6-2,0.9-3,1c-1.4,0.1-2.6-0.2-3.5-0.7c-1-0.5-1.8-1.2-2.4-2
	c-0.7-0.8-1.2-1.6-1.5-2.5c-0.2-0.5-0.4-1-0.5-1.4c-0.4,0.6-0.8,1.2-1.2,1.8c-0.8,1.1-1.7,2-2.7,2.8c-1,0.8-2.2,1.4-3.5,1.8
	c-1.3,0.4-2.8,0.6-4.5,0.5c-1.8-0.2-3.3-0.6-4.5-1.3s-2.2-1.6-3.1-2.6c-0.8-1-1.5-2.1-1.9-3.3c-0.4-1.2-0.7-2.4-0.9-3.5
	c1.2,0,2.2-0.3,3.2-1c1-0.7,1.9-1.7,2.7-2.8c0.8-1.1,1.5-2.3,2-3.7c0.6-1.3,1-2.6,1.3-3.7c0.3-1.1,0.4-2.1,0.4-2.9
	c0-0.8-0.3-1.2-0.6-1.2c-0.7,0-1.5,0.4-2.4,1.3c-0.9,0.9-1.8,2-2.7,3.3c-0.9,1.3-1.8,2.8-2.7,4.4s-1.7,3-2.3,4.4
	c-0.2,1.3-0.4,2.6-0.7,4.1c-0.2,1.5-0.5,3.1-0.9,4.9c-0.1,0.8-0.2,1.5-0.2,1.9c-0.1,0.5-0.1,0.8-0.2,1.1c-0.1,0.2-0.1,0.4-0.3,0.5
	c-0.1,0.1-0.3,0.1-0.5,0.1c-0.9,0-1.8-0.3-2.7-0.9c-0.8-0.6-1.6-1.3-2.1-2.1c-0.6-0.8-1-1.6-1.4-2.5c-0.1-0.3-0.2-0.6-0.3-0.8
	c-1.1,1.6-2.3,3-3.6,4.1c-1.4,1.2-2.8,1.8-4.4,1.9c-1,0-1.9-0.1-2.8-0.5c-0.9-0.3-1.6-0.8-2.3-1.3c-0.7-0.5-1.2-1.1-1.7-1.8
	c-0.4-0.7-0.8-1.3-1-1.9c-0.7,1.4-1.5,2.6-2.5,3.6c-0.9,1-2.1,1.5-3.5,1.6c-1.5,0-3-0.4-4.3-1.3c-1.3-0.9-2.4-2.2-3.3-3.9
	s-1.4-3.7-1.5-6s0.3-4.9,1.2-7.8c0.4-1.5,1-2.9,1.7-4.3c0.7-1.3,1.6-2.5,2.6-3.5c1.1-1,2.3-1.8,3.6-2.3c1.4-0.6,2.9-0.8,4.7-0.7
	c1.6,0.1,2.8,0.8,3.8,2c-0.1-0.8-0.2-1.4-0.3-1.8c-0.3-0.4-0.3-0.7,0.1-0.7c0.3-0.1,0.9,0,1.6,0.1c0.7,0.1,1.5,0.4,2.5,0.8
	c0.9,0.4,1.7,0.9,2.5,1.4c0.8,0.5,1.4,1.1,1.9,1.8c0.5,0.7,0.7,1.4,0.7,2.1c0,0.4-0.2,1.1-0.6,2.3c-0.4,1.1-0.8,2.5-1.3,4
	c-0.5,1.5-1,3.1-1.4,4.7c-0.5,1.6-0.8,3.2-1.1,4.6c-0.3,1.4-0.4,2.6-0.3,3.5c0,1,0.4,1.5,1,1.6c0.7,0.2,1.4-0.3,2.3-1.2
	c0.9-1,1.8-2.2,2.7-3.8c0.9-1.5,1.9-3.2,2.9-5c0.4-0.7,0.7-1.3,1-1.9c0.5-3.1,1.1-6.3,1.8-9.7c0.7-3.5,1.7-7,2.7-10.5
	c1.1-3.5,2.3-6.7,3.6-9.7c1.3-3,2.8-5.5,4.5-7.6c1.7-2.1,3.5-3.5,5.6-4.1c0.7-0.2,1.5-0.1,2.5,0.2c1,0.3,1.9,0.8,2.8,1.5
	c0.9,0.7,1.6,1.5,2.2,2.4c0.6,0.9,0.8,1.8,0.7,2.7c-0.6,4.7-2.1,8.7-4.7,12.1c-2.6,3.4-5.9,6.7-10,9.9c-0.4,1.5-0.7,2.8-1.1,4
	c-0.3,1.2-0.6,2.5-1,4c0.7-1.4,1.5-2.7,2.2-3.9c0.8-1.2,1.6-2.3,2.6-3.2c0.9-0.9,2-1.6,3.1-2.1c1.1-0.5,2.3-0.7,3.7-0.5
	c2.9,0.3,4.9,1.8,6.2,4.4c0.3,0.7,0.5,1.5,0.3,2.5c-0.1,1-0.4,2.2-0.7,3.4c-0.4,1.2-0.9,2.4-1.6,3.7c-0.7,1.3-1.4,2.4-2.2,3.4
	c-0.8,1-1.8,1.9-2.8,2.6c-1,0.7-2.1,1.1-3.2,1.2c0.1,2.3,0.5,3.9,1.3,4.6s1.8,1,2.9,0.6c1.2-0.3,2.4-1.1,3.8-2.3
	c1.3-1.2,2.6-2.6,3.7-4.2c1-1.2,1.9-2.5,2.6-4c0.3-0.6,0.6-1.2,0.9-1.8c0.3-1.3,0.5-2.5,0.8-3.8c0.5-2.2,0.8-4.3,1-6.1
	c0.2-1.8,0.1-3.1-0.4-3.8c-0.4-0.6-0.1-0.9,0.7-0.8c0.9,0.1,1.9,0.4,3.1,0.9c1.2,0.5,2.3,1.3,3.5,2.2c1.1,1,1.7,2,1.8,3.2
	c0,0.4-0.1,1.2-0.4,2.3c-0.3,1.1-0.6,2.4-1,3.8c-0.4,1.4-0.8,2.9-1.2,4.5c-0.4,1.6-0.7,3-1,4.4c-0.2,1.3-0.3,2.4-0.3,3.3
	c0,0.9,0.3,1.4,0.8,1.5c0.7,0.2,1.5-0.2,2.4-1.1c0.9-0.9,1.8-2.1,2.6-3.5c0.9-1.4,1.7-3,2.6-4.7c0.1-0.2,0.2-0.5,0.3-0.7
	c0.4-1.7,0.8-3.4,1.2-5.2c0.5-2.3,0.9-4.4,1.1-6.4c0.2-2,0.2-3.5-0.1-4.5c-0.1-0.4,0-0.6,0.5-0.7c0.4,0,1,0.1,1.6,0.3
	c0.7,0.2,1.4,0.5,2.3,1c0.8,0.4,1.6,0.9,2.4,1.5c0.8,0.6,1.4,1.1,1.8,1.8c0.5,0.6,0.7,1.2,0.6,1.8c0,0.3-0.1,0.9-0.3,1.7
	c-0.2,0.8-0.4,1.7-0.7,2.9c0.7-1.4,1.4-2.7,2.1-4s1.6-2.4,2.4-3.3c0.9-0.9,1.9-1.6,2.9-2.1c1.1-0.5,2.3-0.7,3.6-0.6
	c2.8,0.2,4.8,1.7,6.1,4.4c0.5,1.2,0.7,2.6,0.6,4.4c-0.2,1.7-0.4,3.5-0.9,5.2c-0.4,1.8-0.9,3.5-1.4,5.1c-0.5,1.7-0.8,3-1,4
	c-0.2,1-0.2,1.7,0,2.2c0.2,0.5,0.6,0.8,0.9,0.9c0.4,0.1,0.8,0,1.3-0.3c0.5-0.3,1-0.7,1.4-1.2c0.5-0.7,1-1.5,1.7-2.6
	c0.7-1.1,1.4-2.2,2.2-3.4c0.8-1.2,1.5-2.4,2.2-3.7c0.4-0.7,0.7-1.4,1.1-2c0.2-0.6,0.3-1.3,0.5-2c0.5-1.5,1-2.9,1.7-4.3
	c0.7-1.3,1.6-2.5,2.6-3.5c1.1-1,2.3-1.8,3.6-2.3c1.3-0.6,2.9-0.8,4.7-0.7c1.4,0,2.6,0.6,3.6,1.7l-0.3-1.5c-0.3-0.5,0.1-0.8,1.1-0.7
	c1,0.1,2.1,0.4,3.5,1c1.3,0.6,2.5,1.3,3.5,2.2c1.1,0.9,1.5,1.9,1.2,2.9c-0.3,1.6-0.6,3.3-0.9,5.1c-0.3,1.8-0.7,3.6-1,5.5
	c-0.4,1.9-0.7,3.7-1.1,5.6c-0.3,1.9-0.7,3.6-1.1,5.3c1.5-1,2.8-2,3.9-3.1c1.1-1.1,2.2-2.3,3.2-3.5c1-1.3,2-2.7,2.8-4.3
	c0.9-1.6,1.7-3.3,2.6-5.3c0.5-0.4,1.1-0.4,1.7-0.1C360.2,254.8,360.5,255.4,360.5,256.1z M253,241.1c1.2-1.3,2.4-2.7,3.5-4.2
	c1.1-1.6,2.1-3.1,3-4.7c0.9-1.6,1.7-3,2.4-4.5c0.7-1.4,1.2-2.7,1.5-3.8c0.3-1.1,0.5-1.9,0.4-2.5c-0.1-0.6-0.3-0.8-0.8-0.7
	c-1.8,0.4-3.6,2.2-5.3,5.4C256,229.4,254.4,234.4,253,241.1z M225.2,249.2c0-0.6,0-1.1-0.1-1.5c-0.1-0.5-0.3-0.8-0.5-1.2
	c-0.2-0.3-0.6-0.5-1.2-0.5c-0.6,0-1.3,0.3-1.9,0.9c-0.7,0.6-1.4,1.4-2.1,2.4c-0.7,1-1.4,2.1-2.1,3.3c-0.7,1.3-1.2,2.5-1.7,3.8
	c-0.6,1.6-1,3.2-1.2,4.8c-0.2,1.6-0.2,3.1-0.1,4.4s0.4,2.4,0.8,3.2c0.4,0.8,0.9,1.2,1.4,1.2c0.8,0,1.5-0.4,2.1-1.1
	c0.6-0.7,1.2-1.5,1.7-2.6c0.6-1.1,1.1-2.3,1.6-3.6c0.5-1.3,1-2.8,1.6-4.3c0.3-1.3,0.5-2.6,0.8-3.9c0.3-1.3,0.5-2.6,0.8-3.8
	C225.2,250.3,225.2,249.8,225.2,249.2z M335.4,279.7c-2.8,1.3-5.6,2.3-8.3,3s-5.1,1.5-7.3,2.4c-2.2,0.9-3.9,2-5.1,3.4
	c-1.2,1.4-1.7,3.4-1.5,6c0.1,1,0.4,2.2,1.1,3.4c0.7,1.2,1.5,2.3,2.4,3.3c1,1,2.1,1.9,3.4,2.6c1.3,0.7,2.6,1.2,3.8,1.3
	c1.2,0,2.3-0.1,3.1-0.4c0.8-0.3,1.6-0.7,2.2-1.4c0.6-0.7,1.2-1.6,1.7-2.8c0.5-1.2,1-2.7,1.4-4.6c0.5-1.9,0.9-4.2,1.4-6.9
	C334.2,286.5,334.8,283.3,335.4,279.7z M340.3,249.2c0-0.6,0-1.1-0.1-1.5c-0.1-0.5-0.3-0.8-0.5-1.2c-0.3-0.3-0.7-0.5-1.2-0.5
	s-1.2,0.3-1.8,0.9c-0.7,0.6-1.4,1.4-2.1,2.4c-0.7,1-1.4,2.1-2.1,3.3c-0.7,1.3-1.2,2.5-1.7,3.8c-0.6,1.6-1,3.2-1.2,4.8
	c-0.2,1.6-0.2,3.1-0.1,4.4c0.1,1.3,0.4,2.4,0.8,3.2c0.4,0.8,0.9,1.2,1.4,1.2c0.8,0,1.5-0.4,2.1-1.1c0.6-0.7,1.2-1.5,1.7-2.6
	c0.5-1.1,1.1-2.3,1.6-3.6c0.5-1.3,1.1-2.8,1.7-4.3c0.2-1.3,0.5-2.6,0.7-3.9c0.3-1.3,0.5-2.6,0.8-3.8
	C340.3,250.3,340.3,249.8,340.3,249.2z M305.8,294.1c0.4,0.2,0.7,0.4,1,0.6c-1.5,3.5-2.9,6.9-4.2,10.1c-1.3,3.2-2.7,6.3-4.1,9.4
	c-1.4,3.1-2.9,6.1-4.6,9.1c-1.7,3-3.6,6.1-5.8,9.2c-2.8,3.4-5.2,5.4-7.1,5.9c-1.9,0.5-3.5-0.1-4.7-1.8c-1.2-1.7-2.2-4.1-2.9-7.4
	c-0.7-3.3-1.2-7-1.5-10.9c-0.4-4-0.6-8.1-0.7-12.3s-0.3-8.1-0.4-11.7c-0.1-3.5-0.2-6.5-0.4-8.9c-0.2-2.4-0.5-3.8-1.1-4.1
	s-1.3,0.6-2.2,2.8c-1,2.2-2.2,6.2-3.9,11.9c-0.3,1.2-0.8,3-1.5,5.5c-0.7,2.5-1.4,5.1-2.2,7.7c-0.8,2.6-1.5,5-2.3,7.1
	c-0.7,2.1-1.3,3.4-1.5,3.8c-0.6,0.4-1.2,0.6-2,0.7c-0.8,0.1-1.5,0.1-2.1-0.1c-1.1-0.4-1.9-1.1-2.6-2.1c-0.7-1-1.3-2.1-1.7-3.2
	c-0.4-1.2-0.7-2.4-0.9-3.6c-0.2-1.2-0.2-2.3-0.2-3.3c0.7-6,1.1-10.7,1.3-13.8c0.2-3.2,0.1-5.2-0.1-6.2c-0.2-1-0.7-0.9-1.2,0.1
	c-0.6,1-1.2,2.6-2,4.8c-0.8,2.2-1.6,4.9-2.5,8.1c-0.9,3.2-1.8,6.5-2.7,9.9c-0.9,3.4-1.8,6.8-2.6,10.2s-1.6,6.4-2.3,9.1
	c-0.1,1-0.2,1.7-0.2,2.2c0,0.5-0.1,0.9-0.2,1.2c-0.1,0.3-0.4,0.5-0.7,0.6c-0.4,0.1-1,0.4-2,0.6c-2,0.6-3.6,0.2-4.9-1.1
	c-1.3-1.3-2.3-3.2-3-5.6c-0.7-2.4-1.2-5.3-1.4-8.5c-0.2-3.3-0.3-6.6-0.3-10.1c0-0.7,0-1.4,0-2.1c-1.4,3.3-3,6.8-4.7,10.5
	c-1.8,3.9-3.6,7.6-5.3,11c-1.7,3.4-3.4,6.2-4.9,8.4c-1.5,2.2-2.8,3.4-3.8,3.4c-2.1,0.1-3.8-0.8-5-2.5c-1.2-1.7-2.1-3.8-2.9-6.3
	c-0.7-2.5-1.3-5.1-1.6-7.9c-0.4-2.7-0.8-5.1-1.3-7.2c-0.6,0.7-1.1,1.6-1.6,2.8c-0.5,1.2-1.2,2.2-2.1,3.2c-0.9,1-2,1.7-3.4,2.2
	c-1.4,0.5-3.2,0.3-5.5-0.4c-2.9-1.1-5.1-3-6.5-5.9c-1.3-2.6-2.1-5.5-2.4-8.7c-0.7,1.3-1.3,2.7-2.1,4.1c-1.5,2.9-3,5.5-4.6,8
	c-1.6,2.5-3.2,4.7-4.7,6.6c-1.5,1.9-3,3.2-4.3,3.8c-3.5,1.8-6.7,2.4-9.7,2c-3-0.4-5.7-1.6-8-3.5s-4.3-4.4-5.9-7.5
	c-1.6-3.1-2.7-6.4-3.4-10c-0.2-0.9-0.3-1.7-0.4-2.6c-1.3,3.3-2.7,6.3-3.9,9c-3.3,7-6.4,12.4-9.3,16.2c-2.9,3.8-5.5,6.1-7.9,6.9
	c-2.4,0.8-4.5,0.5-6.3-0.9c-1.8-1.4-3.4-3.8-4.8-7.1c-1.4-3.3-2.5-7.2-3.3-11.7c-0.8-4.5-1.4-9.4-1.7-14.7
	c-0.3-5.4-0.4-10.8-0.2-16.2c0.2-5.5,0.6-10.8,1.4-16c0.7-5.2,1.7-10,3-14.4c-3.9-1.2-7.3-1.6-10.3-1.2c-3,0.4-5.7,1.1-8,2.1
	c-2.3,1-4.3,2.1-6,3.3c-1.7,1.2-3,1.9-4.2,2.2c-0.8-0.7-1.1-1.6-0.8-2.7c0.3-1.1,1.1-2.2,2.4-3.4c1.3-1.1,2.9-2.2,4.9-3.2
	c2-1,4.3-1.8,6.8-2.4c2.5-0.6,5.2-0.8,8.1-0.8c2.9,0,5.8,0.5,8.9,1.5c0.3-0.7,0.7-1.7,1.2-3.1c0.5-1.4,1.1-2.8,1.7-4.3
	s1.4-3,2.2-4.5c0.8-1.5,1.7-2.7,2.6-3.6c0.9-1,1.9-1.5,3-1.7c1.1-0.2,2.2,0.3,3.4,1.3c0.8,0.8,1.2,2.2,1.1,4.1
	c-0.1,1.9-0.4,3.9-0.8,6.1c-0.5,2.2-1,4.3-1.6,6.3c-0.6,2-1.1,3.5-1.3,4.4c3.9,1.8,7.1,3,9.4,3.6c2.4,0.6,4.3,0.7,6,0.5
	c1.6-0.2,3.1-0.8,4.3-1.6c1.3-0.8,2.7-1.8,4.4-2.9c0.7-0.5,1.3-0.9,1.9-1.3c0.6-0.4,1.1-0.6,1.6-0.8c1,0.8,1.4,1.6,1.4,2.4
	c-0.1,0.8-0.5,1.7-1.2,2.5c-0.7,0.8-1.6,1.6-2.8,2.4c-1.2,0.8-2.3,1.5-3.5,2.1c-1.2,0.6-2.2,1.1-3.2,1.5c-1,0.4-1.7,0.7-2,0.7
	c-3,0.7-5.9,0.6-8.9-0.2c-3-0.8-6-2-8.9-3.4c-1.1,5.4-2.1,11.2-3.1,17.2c-0.9,6.1-1.6,11.9-2.1,17.6c-0.5,5.7-0.8,10.9-0.8,15.8
	c0,4.9,0.3,8.9,0.9,12.1c0.6,3.2,1.6,5.2,3,6.1s3.3,0.3,5.7-1.9c1.8-1.9,3.6-4.2,5.2-6.8c1.6-2.6,3.1-5.3,4.5-8.2
	c1.4-2.9,2.6-5.8,3.8-8.8c1.2-3,2.2-5.7,3.1-8.2c0.9-2.5,1.7-4.8,2.5-6.7c0.2-0.4,0.3-0.8,0.5-1.2c0.3-0.9,0.7-1.7,1.1-2.5
	c1.6-3.2,3.8-5.9,6.6-8.2c2.9-2.3,6.5-3.8,10.8-4.6c2.1-0.4,4,0,5.6,0.9c1.6,1,2.5,2.7,2.6,5c0.1,2.4-0.7,5.5-2.6,9.3
	c-1.9,3.8-5.3,8.5-10.2,13.9c-0.6,0.6-1,1.1-1.2,1.5c-0.2,0.4-0.4,0.7-0.5,1.2c-0.1,0.4-0.1,0.9-0.1,1.5c0,0.6,0.1,1.3,0.2,2.3
	c0,1.1,0.1,2.3,0.3,3.6c0.2,1.3,0.5,2.7,1,4c0.4,1.3,1,2.6,1.6,3.8c0.6,1.2,1.4,2.1,2.2,2.8c1.5,1.4,3.2,1.7,5,0.7
	c1.8-0.9,3.6-2.5,5.4-4.9c1.8-2.3,3.6-5.1,5.3-8.3s3.3-6.3,4.8-9.4c1.4-3.1,2.7-5.8,3.8-8.3c1-2.4,1.8-4,2.3-4.8
	c1-2.3,2.2-4.5,3.8-6.4c2.3-2.9,5-4.9,8.4-6.2c3.3-1.3,7.2-1.3,11.6-0.1c1.1,0.4,1.8,0.8,2.4,1.3c0.5,0.5,0.7,1.3,0.6,2.4
	c0,0.4-0.1,1-0.3,1.7c-0.2,0.7-0.5,1.4-0.8,2c-0.4,0.6-0.8,1-1.3,1.2c-0.5,0.2-1.1,0-1.7-0.5c0.1-0.2,0.3-0.7,0.7-1.4
	c0.4-0.7,0.7-1.5,0.9-2.2c0.2-0.7,0.2-1.3,0-1.7c-0.2-0.4-0.9-0.3-2,0.2c-2.7,1.5-5.2,3.7-7.3,6.5c-2.1,2.8-3.8,5.9-5,9.3
	c-1.2,3.4-2,6.9-2.2,10.6c-0.2,3.6,0.2,7.1,1.2,10.3c0.8,1.1,1.7,1.4,2.5,0.9c0.8-0.5,1.7-1.4,2.5-2.7c0.8-1.3,1.7-3,2.4-4.9
	c0.8-1.9,1.5-3.8,2.1-5.7c0.6-1.9,1.2-3.6,1.6-5.1c0.4-1.5,0.7-2.6,1-3.3c0.2-1,0.6-2,1.1-3c0.5-1,1.1-1.7,1.8-2.3
	c0.7-0.5,1.5-0.7,2.4-0.6c0.9,0.1,1.9,0.8,3,2c1.3,1.7,2.3,3.7,2.8,6c0.5,2.3,0.8,4.8,0.8,7.3c0,2.6-0.2,5.2-0.5,7.8
	c-0.3,2.6-0.6,5-1,7.2c-0.3,2.2-0.6,4-0.7,5.5c-0.2,1.5-0.1,2.5,0.3,2.9c0.5,0.6,2.2-2.3,5.1-8.9c2.8-6.2,7.1-16.1,12.9-29.7
	c0.1-1.6,0.3-3.2,0.4-4.6c0.3-1.5,0.6-2.9,1-3.9c0.4-1.1,0.8-2.2,1.4-3.4c0.5-1.2,1.2-2.2,2-3s1.7-1.4,2.7-1.6c1-0.3,2.1,0,3.4,0.7
	c1.1,0.8,1.8,2.3,1.9,4.7c0.1,2.4,0.1,5-0.2,7.9c-0.3,2.9-0.6,5.8-1,8.7c-0.4,2.9-0.5,5.3-0.5,7.2c0.5-0.8,0.9-1.9,1.3-3.3
	c0.4-1.4,0.7-2.9,1.2-4.6c0.4-1.7,0.9-3.4,1.4-5.1c0.5-1.8,1.1-3.4,2-4.8c0.8-1.4,1.8-2.7,3-3.6c1.2-1,2.6-1.5,4.3-1.7
	c2.1-0.1,3.8,0.4,5.2,1.7c1.3,1.3,2.4,2.8,3.3,4.7c0.8,1.9,1.4,3.8,1.8,5.9c0.4,2.1,0.6,3.9,0.6,5.3c0.9-0.9,1.6-2.5,2.2-4.8
	c0.5-2.3,1.1-4.7,1.8-7.3c0.7-2.6,1.7-5,2.9-7.2c1.2-2.3,3-3.9,5.4-4.9c3.2-0.3,5.7,0.5,7.5,2.2c1.8,1.8,3.2,4.1,4.2,7.1
	s1.5,6.4,1.7,10.2c0.2,3.8,0.3,7.6,0.2,11.5c-0.1,3.8-0.3,7.5-0.6,10.9c-0.3,3.4-0.4,6.2-0.5,8.4c0,2.2,0.1,3.6,0.5,4.2
	c0.4,0.6,1.2-0.1,2.4-1.9c2-3.3,3.8-6.6,5.4-9.9c1.6-3.3,3.1-6.6,4.5-9.8c1.4-3.2,2.7-6.3,4-9.3c1.3-3,2.6-5.9,3.9-8.7
	c0.1-0.1,0.3-0.1,0.6,0c0.3,0.1,0.7,0.2,1.1,0.3C305,293.7,305.4,293.9,305.8,294.1z M142.4,306.1c0.8-1.1,2-2.7,3.6-4.7
	c1.5-2,2.9-4.1,4.2-6.2c1.2-2.1,2.1-4.2,2.6-6.2s0.1-3.5-1.2-4.6c-1.1-1-2-1.2-2.9-0.6c-0.8,0.6-1.6,1.7-2.3,3.2
	c-0.7,1.5-1.3,3.3-1.7,5.3c-0.5,2-0.9,4-1.3,6c-0.4,1.9-0.6,3.6-0.8,5.1C142.5,304.9,142.4,305.8,142.4,306.1z M65.5,251.4l0.1,0.3
	c0.3,0.6,0.8,0.8,1.8,0.7c0.4-0.1,1.3-0.1,2.7-0.1c2.5,0,2.5,0,2.9-0.4c0.4-0.4,0.4-0.4,0.4-2.6c0-1.9,0-2.2-0.3-5
	c-0.1-0.7-0.2-2.3-0.2-3.1l0-0.5l3.6,0c2,0,5,0,6.7,0.1s3.2,0.1,3.4,0.1c0.4,0,0.7-0.1,1-0.4c0.3-0.3,0.4-0.5,0.4-0.9
	c0-0.3,0-0.4-0.3-1c-0.2-0.3-0.4-0.7-0.6-0.9c-0.1-0.2-0.5-0.8-0.9-1.5c-0.4-0.6-0.8-1.4-1-1.7c-1-1.6-3.1-5.6-3.9-7.2
	c-0.5-1.2-1.7-3.9-1.7-3.9c0,0,0.9-0.1,2.1-0.1c2.2-0.1,2.5-0.1,2.9-0.4c0.1-0.1,0.3-0.3,0.3-0.4c0.1-0.2,0.2-0.3,0.2-0.6
	c0-0.4-0.1-0.6-0.6-1.2c-0.2-0.2-0.7-1-1.2-1.6c-0.5-0.6-1.3-1.7-1.8-2.4c-1.2-1.5-1.9-2.6-3.6-5.2c-0.7-1.1-1.6-2.3-1.8-2.7
	c-0.3-0.4-0.6-0.9-0.7-1l-0.2-0.3l0.4,0c0.2,0,0.8-0.1,1.4-0.1c0.6,0,1.2-0.1,1.3-0.1c0.8-0.2,1.2-0.8,1.1-1.6
	c0-0.1-0.2-0.5-0.5-0.9s-0.8-1.2-1.1-1.8c-0.6-1.1-1.1-1.7-2.5-3.4c-0.4-0.5-1-1.3-1.4-2s-1-1.5-1.4-2c-0.3-0.5-0.8-1.2-1.1-1.7
	c-0.9-1.4-1.1-1.7-1.5-2.1c-0.5-0.5-1-0.7-1.5-0.5c-0.1,0-0.3,0.1-0.4,0.2c-0.4,0.2-0.4,0.4-1.7,2.7c-0.5,1-1.2,2.1-2,3.4
	c-0.3,0.5-0.7,1.2-0.9,1.6c-0.9,1.7-1.7,2.9-3.9,6.1c-0.4,0.5-0.7,1.1-0.8,1.3c-0.2,0.4-0.2,0.8,0,1.1c0.1,0.3,0.5,0.6,0.8,0.7
	c0.3,0.1,1,0.1,2,0c0.5,0,0.9-0.1,0.9-0.1c0,0-0.2,0.4-2.5,3.8c-2.5,3.8-3.3,4.9-5.2,7.3c-0.3,0.4-0.6,0.8-0.6,0.9
	c-0.1,0.3-0.1,0.8,0,1c0.1,0.3,0.5,0.6,0.8,0.7c0.3,0.1,1.9,0.4,3,0.5c0.7,0.1,1.3,0.2,1.4,0.2c0,0-1,2.3-2,4.3
	c-0.9,1.8-2.5,4.7-3.6,6.5c-0.2,0.4-0.7,1.3-1.1,2c-0.4,0.7-0.9,1.6-1.2,2.1c-0.5,0.8-0.5,0.9-0.6,1.2c0,0.4,0.1,0.8,0.4,1.1
	c0.1,0.1,0.3,0.3,0.4,0.4c0.3,0.4,0.2,0.4,3.7,0.4c1.7,0,3.7,0.1,4.4,0.1c0.7,0,2.1,0.1,3.1,0.1c1,0,2,0,2.3,0.1l0.5,0v0.6
	c0,0.3,0,1,0.1,1.5c0.1,1.7,0.2,3.6,0.2,6.2L65.5,251.4z M95.6,232c0.2,0.2,0.1,0.2,2.1,0.2c1,0,2.1,0,2.5,0c0.4,0,1.2,0,1.8,0
	s1.2,0,1.3,0l0.3,0v0.3c0,0.2,0,0.6,0,0.9c0.1,0.9,0.1,2,0.1,3.6l0,1.5l0.1,0.2c0.2,0.3,0.5,0.5,1,0.4c0.2,0,0.7,0,1.6,0
	c1.4,0,1.4,0,1.6-0.2c0.2-0.2,0.2-0.2,0.2-1.5c0-1.1,0-1.3-0.1-2.9c0-0.4-0.1-1.3-0.1-1.8l0-0.3l2,0c1.1,0,2.8,0,3.8,0s1.9,0,2,0
	c0.2,0,0.4-0.1,0.5-0.2s0.2-0.3,0.2-0.5c0-0.2,0-0.2-0.2-0.6c-0.1-0.2-0.2-0.4-0.3-0.5c-0.1-0.1-0.3-0.5-0.5-0.8
	c-0.2-0.4-0.5-0.8-0.6-1c-0.6-0.9-1.8-3.2-2.2-4.1c-0.3-0.7-1-2.2-1-2.2c0,0,0.5,0,1.2-0.1c1.2,0,1.4-0.1,1.6-0.2
	c0.1,0,0.1-0.1,0.2-0.2c0.1-0.1,0.1-0.2,0.1-0.4c0-0.2,0-0.3-0.3-0.7c-0.1-0.1-0.4-0.6-0.7-0.9c-0.3-0.4-0.7-1-1-1.4
	c-0.7-0.9-1.1-1.5-2.1-3c-0.4-0.6-0.9-1.3-1.1-1.6c-0.2-0.2-0.3-0.5-0.4-0.6l-0.1-0.2l0.2,0c0.1,0,0.5,0,0.8,0s0.7,0,0.8-0.1
	c0.5-0.1,0.7-0.5,0.6-0.9c0-0.1-0.1-0.3-0.3-0.5c-0.1-0.2-0.4-0.7-0.6-1c-0.4-0.6-0.6-1-1.4-1.9c-0.2-0.3-0.6-0.8-0.8-1.1
	c-0.2-0.4-0.6-0.9-0.8-1.1c-0.2-0.3-0.5-0.7-0.6-0.9c-0.5-0.8-0.7-1-0.8-1.2c-0.3-0.3-0.5-0.4-0.9-0.3c-0.1,0-0.2,0.1-0.2,0.1
	c-0.2,0.1-0.2,0.2-1,1.6c-0.3,0.6-0.7,1.2-1.1,1.9c-0.2,0.3-0.4,0.7-0.5,0.9c-0.5,1-1,1.6-2.3,3.5c-0.2,0.3-0.4,0.6-0.5,0.7
	c-0.1,0.2-0.1,0.5,0,0.6c0.1,0.2,0.3,0.4,0.5,0.4c0.2,0,0.5,0,1.1,0c0.3,0,0.5,0,0.5,0c0,0-0.1,0.3-1.4,2.1c-1.4,2.1-1.9,2.8-3,4.2
	c-0.2,0.2-0.3,0.4-0.4,0.5c-0.1,0.1-0.1,0.4,0,0.6c0.1,0.2,0.3,0.3,0.5,0.4c0.2,0.1,1.1,0.2,1.7,0.3c0.4,0,0.8,0.1,0.8,0.1
	c0,0-0.6,1.3-1.1,2.4c-0.5,1-1.4,2.7-2,3.7c-0.1,0.2-0.4,0.7-0.7,1.1c-0.2,0.4-0.5,0.9-0.7,1.2c-0.3,0.5-0.3,0.5-0.3,0.7
	c0,0.3,0,0.4,0.2,0.6C95.5,231.8,95.6,232,95.6,232z"/>
<path class="st1" d="M140.6,165c0.2,0.6,0.1,0.9-0.3,1.1c-0.4,0.2-1,0.1-1.7-0.3c-1.8-0.9-3.1-1.5-4-1.9c-0.9-0.4-1.7-0.7-2.5-1
	l-2.9,13.4c-0.2,1.1-0.5,2.1-0.7,3.2c-0.2,1.1-0.5,2.2-0.8,3.3c-0.2,1.3-0.4,2.6-0.7,3.8c-0.3,1.2-0.5,2.5-0.5,3.8
	c-0.6,5.3-0.3,10.4,0.8,15.3c1.1,4.9,3.7,9.6,7.6,14.2c-0.6,0.4-1.5,0.4-2.6,0c-1.1-0.4-2.4-1.1-3.9-2.2c-1.5-1.1-3.1-2.4-4.7-4
	s-3.3-3.4-4.7-5.3c-3-4.2-5-8.7-5.8-13.5c-0.8-4.9-0.9-10.1-0.2-15.7l0.4-2.6l3.4-17.1c-5-0.6-9.8-0.7-14.5-0.5
	c-4.7,0.2-9.2,0.7-13.5,1.3c-1.3,4.3-2.3,8.5-3.1,12.8c-0.7,4.3-1,8.5-0.8,12.6c0.2,4.1,1.1,8.1,2.6,12.1c1.5,3.9,3.8,7.7,6.9,11.2
	c-0.5,0.4-1.3,0.4-2.5,0c-1.2-0.4-2.5-1.1-4-2.2c-1.5-1.1-3-2.4-4.6-4c-1.6-1.6-3.2-3.4-4.8-5.3c-3.5-4.5-5.6-9.6-6.5-15.4
	c-0.9-5.8-0.7-11.7,0.4-17.7c-3.1,0.9-6.5,2-10.3,3.2c-3.8,1.2-7.7,2.2-11.7,3c-4.1,0.8-8.2,1.3-12.3,1.4c-4.2,0.2-8.2-0.3-12.1-1.3
	c-3.9-1-7.7-2.8-11.2-5.4c-3.5-2.6-6.7-6.3-9.5-11c-0.2-0.7-0.5-1.4-0.8-2.2c-0.3-0.8-0.5-1.5-0.5-2.1s0.1-1,0.4-1.2
	c0.3-0.2,0.7,0,1.3,0.5c3.6,4.6,7.6,8.1,11.9,10.4c4.4,2.3,9,3.6,13.9,3.9c3,0.1,6.1,0,9.3-0.3c3.2-0.3,6.6-0.8,10.2-1.4
	c3.6-0.6,7.3-1.3,11.1-2c3.8-0.7,7.7-1.5,11.8-2.2c2-8,4.3-16.3,6.8-24.8c2.6-8.5,5-17.3,7.2-26.3c0.2-1.4,0.4-2.9,0.6-4.3
	c0.2-1.5,0.2-2.8,0.2-4s-0.2-2.2-0.5-3.1c-0.3-0.9-0.9-1.4-1.8-1.6c-0.6-0.2-1.6-0.4-3.1-0.4c-1.5,0-3.2,0.2-5.1,0.5
	c-1.9,0.3-3.8,0.8-5.8,1.4c-2,0.6-3.8,1.4-5.4,2.4c-2,1.3-4.1,2.9-6.3,4.9c-2.2,2-4.4,4.3-6.7,6.8c-2.3,2.6-4.4,5.3-6.5,8.3
	c-2.1,3-4,6.1-5.5,9.4c-1.6,3.3-2.8,6.6-3.7,10c-0.9,3.4-1.4,6.8-1.6,10c0.1,0.9,0.1,1.7,0.3,2.4c0.1,0.7,0.2,1,0.1,1.2
	c0.2,0.4,0.4,0.9,0.5,1.3s-0.4,0.3-1.5-0.5c-1.4-0.9-2.9-2.2-4.6-4.1c-1.7-1.9-3.2-4-4.4-6.4c-1.2-2.4-2.1-5-2.6-7.9
	c-0.6-2.8-0.4-5.7,0.6-8.6c0.7-2.6,2-5.3,3.9-8.2c1.9-2.8,4.1-5.6,6.8-8.4s5.7-5.3,9-7.7c3.3-2.4,6.8-4.5,10.4-6.4
	c3.6-1.8,7.3-3.2,11.1-4.2c3.8-1,7.6-1.4,11.3-1.3c5.9,0.2,10.7,1.7,14.5,4.4c3.8,2.7,6.6,6.2,8.5,10.7c0.6,1.4,0.8,3.6,0.5,6.6
	c-0.3,3-0.9,6.8-1.8,11.3c-0.9,4.5-2.1,9.6-3.7,15.3c-1.5,5.7-3.1,11.9-4.7,18.6c4.6-0.5,9.1-0.8,13.6-0.8c4.5,0,9.1,0.4,14,1.3
	c1.1-4.6,2.2-9.5,3.4-14.8c1.1-5.3,2.3-10.4,3.4-15.4c1.1-5,2.1-9.6,2.8-13.9c0.8-4.2,1.3-7.5,1.5-9.8c0.4-2.8,0.4-4.7,0-5.7
	c-0.4-0.9-0.3-1.2,0.3-0.9c0.6,0.3,1.4,1,2.4,2c1,1,2.1,2.3,3.5,3.9c1.3,1.6,2.5,3.3,3.6,5c1,1.7,1.9,3.4,2.6,5.1
	c0.7,1.6,0.9,3.1,0.7,4.2l-9.3,44.1c0.1,0.1,0.6,0.3,1.4,0.7c0.8,0.3,1.5,0.6,2.1,0.9c1.2,0.6,2.1,1.2,2.7,1.9
	C139.9,163.8,140.4,164.4,140.6,165z M235.7,149.4c3,1.2,5.2,1.4,6.6,0.5c1.5-0.9,2.6-2.5,3.4-4.7c1.4-3.8,3.6-6.8,6.6-9.2
	c-0.1-0.7-0.7-1.6-2-2.5c-1.3-0.9-2.7-1.8-4.4-2.5c-1.7-0.7-3.3-1.3-4.9-1.6c-1.6-0.4-2.7-0.3-3.3,0.1c-0.9,0.4-1.7,1.3-2.2,2.6
	c-0.6,1.3-1,2.8-1.3,4.4c-0.3,1.6-0.6,3.2-0.7,4.8c-0.2,1.6-0.2,3-0.2,4.1c-0.1,1.1,0,1.8,0.3,2.3
	C233.8,148.2,234.5,148.8,235.7,149.4z M428.1,172.7c-1.3,4.1-2.9,7.7-4.6,10.9c-1.8,3.2-3.8,6-6,8.5c-2.2,2.5-4.6,4.7-7.3,6.7
	c-2.6,2-5.4,3.8-8.4,5.5l-1.4,4.9c-2,6.6-3.6,12.8-4.9,18.5c-1.3,5.7-2.8,10.7-4.7,14.9c-1.9,4.2-4.3,7.4-7.3,9.6
	c-3,2.2-7.1,3.1-12.3,2.6c-2.9-0.2-5.7-0.9-8.2-2c-2.6-1.1-4.8-2.5-6.8-4.2s-3.6-3.6-5-5.7c-1.4-2.1-2.4-4.3-3-6.7
	c-1.2-5.4-1-9.7,0.7-12.8c1.7-3.2,4.5-5.8,8.4-7.9c3.9-2.1,8.5-4,13.8-5.8c5.3-1.8,11.1-4,17.3-6.6c0.4-3,0.9-5.9,1.3-8.7
	c0.5-2.8,1-5.6,1.5-8.2c-0.9,1.9-1.9,3.8-3,5.5c-1.1,1.7-2.2,3.2-3.4,4.5c-1.2,1.3-2.5,2.3-3.8,3.1c-1.3,0.8-2.7,1.3-4.2,1.4
	c-2.2,0.1-4-0.2-5.5-1.1c-1.5-0.8-2.8-1.9-3.9-3.2s-2-2.6-2.6-4c-0.4-0.9-0.6-1.6-0.8-2.3c-0.1,0.1-0.2,0.3-0.3,0.4
	c-1.9,2.8-3.9,5.1-6.1,7.1c-2.2,1.9-4.6,2.9-7.1,3.1c-1.6,0.1-3.1-0.2-4.5-0.7c-1.4-0.6-2.6-1.3-3.7-2.1c-1.1-0.9-2-1.8-2.7-2.9
	c-0.7-1.1-1.2-2.1-1.5-3c-1.1,2.3-2.4,4.2-4,5.9c-1.5,1.6-3.4,2.5-5.6,2.6c-2.5,0.1-4.8-0.6-7-2.1c-2.2-1.5-4-3.5-5.3-6.2
	c-0.8-1.5-1.3-3.1-1.7-4.8c-0.8,1.3-1.7,2.5-2.6,3.7c-2.2,2.8-4.5,5.2-7.1,7.1c-2.5,1.9-5.3,2.8-8.2,2.7c-2.5-0.1-4.8-0.7-6.7-1.7
	c-1.9-1-3.6-2.3-5-3.8c-1.4-1.5-2.6-3.3-3.4-5.2s-1.6-3.8-2.3-5.7c-0.6,2-1.3,4-2.1,5.9c-0.8,1.9-1.6,3.6-2.6,5.1
	c-0.9,1.5-2,2.7-3.3,3.6c-1.3,0.9-2.8,1.4-4.5,1.4c-2.5,0.1-4.9-0.6-7.1-2.1c-2.2-1.5-3.9-3.5-5.2-6.2c-0.7-1.5-1.2-3.2-1.6-5
	c-0.7,1.2-1.3,2.4-2.1,3.6c-1.2,1.9-2.5,3.5-3.9,5c-1.4,1.4-2.9,2.6-4.5,3.5c-1.5,0.9-3.2,1.5-4.8,1.6c-2.2,0.1-4.1-0.2-5.7-1.1
	c-1.5-0.9-2.9-2-4-3.3c-1.1-1.3-1.9-2.6-2.5-4c-0.5-1.2-0.8-2.3-0.9-3.1c-0.4,0.5-0.7,1-1.1,1.5c-2.1,2.8-4.5,5.2-7.1,7.1
	c-2.6,1.9-5.3,2.8-8.2,2.8c-2.6,0-4.9-0.5-6.8-1.6c-2-1.1-3.7-2.5-5.1-4.2s-2.6-3.6-3.5-5.6c-0.9-2-1.5-4-2-5.9
	c0-0.2-0.1-0.3-0.1-0.5c-1.1,1.9-2.4,3.5-4,4.9c-1.8,1.6-4,2.9-6.6,3.9c-2.6,0.9-5.7,1.4-9.2,1.4c-1.7,2.4-3.4,4.2-5.1,5.5
	c-1.7,1.2-3.5,1.9-5.5,2c-4,0.1-7.3-0.7-9.9-2.3c-2.6-1.7-4.7-3.8-6.2-6.2c-1.5-2.5-2.5-5.2-3-8.1c-0.5-2.9-0.6-5.6-0.2-8
	c0.4-1.9,0.8-3.5,1.2-5.1c0.4-1.5,1.1-3,2.2-4.3c0.9-0.2,2.3-0.2,4.3,0.1l0.1-1.7c-0.1-1.9,0.3-3.8,1-5.6c0.7-1.8,1.8-3.3,3.2-4.6
	c1.4-1.3,3.2-2.3,5.3-3.1c2.2-0.8,4.7-1.1,7.6-1c2.8,0.2,5.1,0.9,7,2.1c1.9,1.2,3.4,2.9,4.4,4.9c1.1,2,1.7,4.3,2,6.8
	c0.3,2.5,0.2,5.2-0.1,7.9c-0.4,2.8-1,5.5-1.8,8.2c-0.8,2.7-1.9,5.3-3.3,7.6c2-0.3,3.8-1,5.5-2s3.2-2.3,4.6-3.8
	c1.4-1.5,2.5-3.1,3.5-5c0.7-1.2,1.2-2.4,1.8-3.7l0.3-5.6c0.1-6.9,0.9-13.6,2.2-20.3c1.4-6.6,3.2-12.7,5.6-18.1
	c2.4-5.5,5.2-10,8.5-13.8c3.3-3.7,6.9-6.2,10.9-7.4c1.1-0.3,2.4-0.2,4,0.3c1.6,0.5,3.1,1.3,4.5,2.4c1.4,1.1,2.5,2.4,3.5,3.8
	c1,1.5,1.3,2.9,1.1,4.3c-0.3,3.7-1.2,7.7-2.7,11.8c-1.5,4.2-3.4,8.3-5.6,12.4c-2.2,4.1-4.7,7.9-7.6,11.5s-5.9,6.6-9.2,9.1l-2.6,12.5
	h-0.1c0,1.9,0,3.8,0,5.7c0,2,0.3,3.8,0.8,5.4c0.5,1.6,1.2,3,2,4.1c0.9,1.1,2.1,1.7,3.8,1.9c2,0.1,3.9-0.6,5.9-2
	c1.9-1.4,3.7-3.3,5.4-5.5c1.7-2.2,3.2-4.7,4.6-7.5c0.5-0.9,0.9-1.7,1.3-2.6c0.5-2.5,1-5,1.6-7.5c0.8-3.6,1.4-6.9,1.7-9.8
	c0.3-2.9,0.1-5-0.7-6.1c-0.6-1-0.2-1.4,1.2-1.3c1.4,0.1,3.1,0.6,5,1.4c1.9,0.8,3.8,2,5.6,3.6c1.8,1.5,2.8,3.2,3,5.1
	c0.1,0.7-0.1,1.9-0.6,3.7c-0.5,1.8-1,3.8-1.6,6.1s-1.2,4.7-1.9,7.2c-0.7,2.5-1.2,4.9-1.6,7c-0.4,2.1-0.5,3.9-0.5,5.3
	c0,1.4,0.4,2.2,1.3,2.4c1.1,0.2,2.4-0.4,3.8-1.8c1.4-1.5,2.8-3.3,4.2-5.6c1.4-2.3,2.8-4.8,4.2-7.5c0.7-1.3,1.3-2.6,2-3.9
	c0.3-1.6,0.7-3.2,1.2-4.9c0.7-2.4,1.7-4.7,2.8-6.9c1.1-2.2,2.5-4.1,4.3-5.7c1.7-1.6,3.7-2.9,5.9-3.8c2.2-0.9,4.7-1.3,7.5-1.1
	c1.9,0.1,3.5,0.7,4.8,1.8c0.9-5.5,2.1-10.8,3.8-15.8c1.6-5,3.6-9.6,5.8-13.7c2.2-4.1,4.7-7.5,7.5-10.3c2.8-2.8,5.7-4.8,8.9-5.8
	c1.1-0.3,2.5-0.2,4,0.3c1.6,0.5,3.1,1.3,4.5,2.4c1.4,1.1,2.6,2.4,3.6,3.8c1,1.5,1.4,2.9,1.1,4.3c-0.4,3.7-1.3,7.7-2.8,11.8
	c-1.5,4.2-3.4,8.3-5.6,12.3c-2.2,4-4.8,7.9-7.7,11.5c-2.9,3.6-6,6.7-9.3,9.2l-1.5,9.7h-0.1c-0.1,1.8-0.1,3.9-0.2,6.3
	c-0.1,2.4,0,4.7,0.2,6.9c0.2,2.2,0.7,4,1.3,5.5c0.7,1.5,1.8,2.2,3.4,2.2c1.9,0,3.8-0.8,5.7-2.3s3.7-3.5,5.5-6c1.8-2.4,3.5-5,5.1-7.9
	c0.6-1.2,1.3-2.3,1.9-3.3c0.3-1.8,0.8-3.6,1.4-5.5c0.7-2.4,1.6-4.7,2.7-6.9c1.1-2.2,2.6-4.1,4.3-5.7c1.7-1.6,3.7-2.9,5.9-3.8
	c2.2-0.9,4.7-1.3,7.6-1.1c2.5,0.2,4.6,1.3,6.1,3.3c-0.1-1.4-0.3-2.3-0.6-2.9c-0.5-0.7-0.5-1.1,0.1-1.2s1.4,0,2.6,0.2
	c1.2,0.2,2.5,0.7,4,1.3c1.5,0.7,2.8,1.4,4,2.2c1.2,0.8,2.3,1.8,3.1,2.9c0.8,1.1,1.2,2.2,1.2,3.3c-0.1,0.6-0.4,1.8-1,3.7
	c-0.6,1.8-1.3,3.9-2,6.4c-0.8,2.4-1.5,4.9-2.3,7.6c-0.7,2.6-1.3,5.1-1.7,7.3c-0.4,2.3-0.6,4.2-0.5,5.7s0.6,2.4,1.7,2.5
	c1.1,0.2,2.3-0.4,3.7-2c1.4-1.6,2.9-3.6,4.4-6c1.5-2.4,3.1-5.1,4.6-8c0.8-1.4,1.5-2.8,2.2-4.1c0.4-2,0.8-4,1.1-6
	c0.5-2.4,0.8-4.7,1.1-6.8c0.3-2.1,0.4-4,0.5-5.5c0-1.6-0.2-2.8-0.6-3.6c-0.6-1-0.1-1.4,1.3-1.3c1.4,0.1,3.1,0.6,5,1.5
	c1.9,0.9,3.8,2.1,5.6,3.6c1.8,1.5,2.8,3.2,3.1,5c0.1,0.7-0.1,1.9-0.4,3.8c-0.3,1.8-0.8,3.9-1.5,6.3c-0.7,2.4-1.3,4.9-2,7.4
	c-0.7,2.6-1.2,4.9-1.6,7.1c-0.4,2.2-0.5,4-0.5,5.5c0.1,1.5,0.6,2.3,1.5,2.5c0.9,0.2,2.1-0.4,3.7-1.8c1.6-1.5,3.2-3.4,4.8-6
	c1.6-2.5,3.2-5.4,4.7-8.6c1.5-3.2,2.6-6.5,3.1-9.9c0.2-0.9,0.4-1.8,0.5-2.7c0.2-0.9,0.2-1.7,0.2-2.5c0.2-2.2,0.3-4.1,0.3-5.8
	s-0.2-3.1-0.7-4.2c-0.4-0.9,0.2-1.2,1.8-1.1s3.5,0.7,5.5,1.6c2.1,0.9,4,2.1,5.7,3.5c1.7,1.4,2.4,3,2,4.7c-0.5,2.5-1,5.3-1.5,8.2
	s-1,5.9-1.6,8.9c-0.6,3-1.2,6-1.7,9s-1.1,5.8-1.7,8.5c2.4-1.5,4.4-3.2,6.3-4.9c1.8-1.7,3.6-3.6,5.2-5.7c1.6-2,3.2-4.3,4.6-6.9
	c1.4-2.5,2.8-5.4,4.3-8.5c0.8-0.6,1.7-0.7,2.7-0.1S428.2,171.6,428.1,172.7z M294.6,158.1c2-2.1,4-4.6,6-7.6c1.9-2.9,3.7-6,5.2-9.2
	c1.6-3.2,3-6.4,4.3-9.5c1.3-3.1,2.2-5.9,2.9-8.3c0.7-2.4,1-4.4,1.1-5.8s-0.3-2-1.1-1.9c-1.5,0.4-3.1,1.8-4.7,4.1
	c-1.6,2.4-3.3,5.5-4.9,9.3s-3.2,8.2-4.7,13.2C297.1,147.4,295.7,152.6,294.6,158.1z M206.4,158.1c2-2.1,3.9-4.6,5.8-7.6
	c1.9-3,3.7-6.1,5.3-9.2c1.6-3.2,3.1-6.3,4.3-9.4c1.2-3.1,2.2-5.9,2.9-8.3c0.7-2.4,1.1-4.4,1.2-5.8s-0.3-2-1.1-1.9
	c-1.5,0.4-3.1,1.8-4.7,4.1c-1.6,2.4-3.3,5.5-5,9.3s-3.3,8.2-4.7,13.2C208.8,147.4,207.5,152.6,206.4,158.1z M165.4,191.3
	c-2-0.8-3.9-1.9-5.7-3.4c-1.7-1.5-3.3-3.1-4.6-4.9c-0.3,1.4-0.5,2.8-0.7,4.2c-0.2,1.4-0.1,2.6,0.2,3.8c0.3,1.1,0.7,2,1.4,2.7
	c0.7,0.7,1.6,1.2,2.9,1.3c1.2,0.1,2.3-0.2,3.3-0.8C163.4,193.6,164.4,192.6,165.4,191.3z M172.5,158.8c-0.7-2.5-2.2-4-4.4-4.5
	c-1.6-0.3-3.1,0.1-4.4,1.3c-1.3,1.2-2.4,2.9-3.3,5c-0.9,2.1-1.4,4.6-1.7,7.3c-0.2,2.7-0.1,5.3,0.4,7.9c0.5,2.6,1.4,5,2.7,7.2
	c1.3,2.2,3.2,3.9,5.7,4.9c1.5-2.9,2.8-6.1,3.8-9.8c1-3.7,1.6-7.2,1.9-10.6C173.5,164.2,173.3,161.3,172.5,158.8z M279,161.7
	c0-0.9,0-1.7-0.2-2.5c-0.2-0.7-0.4-1.4-0.8-1.9c-0.4-0.5-1-0.7-1.9-0.7c-1,0-2,0.5-3.1,1.4c-1.1,1-2.2,2.2-3.4,3.8
	c-1.2,1.6-2.3,3.4-3.4,5.4c-1.1,2-2,4-2.7,6.1c-0.9,2.5-1.6,5.1-1.9,7.8c-0.3,2.6-0.4,5-0.1,7.2c0.2,2.1,0.7,3.9,1.3,5.2
	c0.6,1.3,1.4,1.9,2.3,1.9c1.3-0.1,2.4-0.6,3.4-1.7c1-1.1,1.9-2.5,2.8-4.2c0.9-1.7,1.8-3.7,2.6-5.9c0.8-2.2,1.7-4.5,2.6-6.9
	c0.4-2.1,0.9-4.2,1.3-6.4c0.5-2.1,0.9-4.2,1.3-6.1C279,163.4,279,162.6,279,161.7z M341.6,161.7c0-0.9,0-1.7-0.2-2.5
	c-0.2-0.7-0.4-1.4-0.8-1.9c-0.4-0.5-1-0.7-1.9-0.7c-1,0-2,0.5-3.1,1.4c-1.1,1-2.2,2.2-3.4,3.8c-1.2,1.6-2.3,3.4-3.4,5.4
	c-1.1,2-2,4-2.7,6.1c-0.9,2.5-1.6,5.1-1.9,7.8c-0.3,2.6-0.4,5-0.1,7.2c0.2,2.1,0.7,3.9,1.3,5.2c0.6,1.3,1.4,1.9,2.3,1.9
	c1.3-0.1,2.4-0.6,3.4-1.7c1-1.1,1.9-2.5,2.8-4.2c0.9-1.7,1.8-3.7,2.6-5.9c0.8-2.2,1.7-4.5,2.6-6.9c0.4-2.1,0.9-4.2,1.3-6.4
	c0.5-2.1,0.9-4.2,1.3-6.1C341.6,163.4,341.6,162.6,341.6,161.7z M387.7,210.8c-4.5,2-9,3.7-13.3,4.8c-4.4,1.2-8.3,2.5-11.8,3.9
	s-6.2,3.3-8.2,5.5c-2,2.2-2.8,5.5-2.4,9.7c0.1,1.7,0.7,3.5,1.8,5.4c1.1,2,2.4,3.7,3.9,5.4c1.5,1.6,3.4,3.1,5.4,4.2
	c2.1,1.2,4.1,1.9,6.2,2.1c1.9,0,3.5-0.2,4.9-0.6s2.5-1.2,3.6-2.3c1-1.1,2-2.6,2.7-4.5c0.8-1.9,1.5-4.4,2.3-7.4
	c0.7-3,1.5-6.7,2.2-11.1C385.8,221.7,386.6,216.6,387.7,210.8z M307.5,225.7c0.4,1.1,0.6,1.6,0.6,1.7c0,0.2-0.1,0.4-0.2,0.5
	c-0.2,0.1-0.3,0.2-0.6,0.2c-0.4,0-0.8-0.1-2-0.6c-0.6-0.2-2.1-0.8-2.4-0.9c0,0-0.1,0,0,1.3l0,1.3l1.1,1c0.6,0.6,1.1,1.1,1.2,1.1
	c0.2,0.1,0.2,0.2,0.3,0.3c0.2,0.4-0.2,0.9-0.6,0.8c-0.3,0-0.5-0.2-1.1-0.8c-0.3-0.3-0.5-0.5-0.6-0.6l-0.1-0.1l0,0.8
	c0,0.8,0,0.9-0.2,1c-0.3,0.3-0.8,0.2-1-0.2c-0.1-0.1-0.1-0.2-0.1-0.5c0-0.5,0-1.2-0.1-1.2c0,0-1.3,1-1.4,1.2
	c-0.2,0.2-0.3,0.3-0.5,0.2c-0.2,0-0.4-0.1-0.5-0.3c-0.1-0.2-0.1-0.5,0.1-0.7c0.1-0.1,1.7-1.4,2.1-1.7l0.2-0.2l0-1.3
	c0-0.7,0-1.3,0-1.3c0,0,0,0-0.8,0.5c-0.3,0.2-0.9,0.7-1.4,1c-0.4,0.3-0.8,0.6-0.8,0.6c-0.2,0.1-0.5,0-0.7-0.1
	c-0.3-0.2-0.3-0.3-0.4-2.1c0-0.4-0.1-1-0.1-1.3c0-0.3,0-0.6,0-0.8c0-0.2,0-0.3,0-0.3c0,0-0.3,0.2-0.7,0.3c-0.3,0.2-0.9,0.5-1.2,0.6
	c-0.8,0.4-1.1,0.6-1.2,0.6c0,0-0.1,0.3-0.1,0.5c-0.1,0.3-0.2,0.9-0.3,1.3c-0.1,0.4-0.2,0.9-0.2,1c0,0.1-0.1,0.3-0.1,0.3
	c-0.2,0.6-1.1,0.4-1.1-0.2c0-0.2,0-0.2,0.2-1.3c0.1-0.5,0.2-0.8,0.2-0.8c0,0-0.2,0.1-0.7,0.3c-0.6,0.3-0.7,0.4-0.9,0.4
	c-0.2,0-0.3,0-0.4-0.2c-0.1-0.1-0.2-0.3-0.2-0.5c0-0.2,0.1-0.4,0.4-0.5c0.6-0.3,1.1-0.6,1.1-0.6c0,0-0.2-0.1-0.4-0.1
	c-0.4-0.1-1.5-0.6-1.7-0.7c-0.5-0.2-0.5-0.9,0-1.1c0.2-0.1,0.3-0.1,1,0.2c0.3,0.1,1,0.4,1.6,0.6l1,0.4l0.3-0.2
	c0.5-0.3,1.1-0.6,1.7-0.9c0.8-0.4,0.8-0.4,0.7-0.4c-0.3-0.1-2.4-0.7-2.9-0.9c-0.4-0.1-0.5-0.3-0.5-0.7c0-0.3,0.2-0.5,0.6-0.8
	c0.5-0.3,0.8-0.5,2.3-1.3c0.2-0.1,0.5-0.2,0.5-0.3c0.1,0,0.1,0,0-0.1c0,0-0.4-0.2-0.9-0.4c-0.4-0.2-1-0.4-1.2-0.5
	c-0.4-0.2-0.4-0.2-0.5-0.1c0,0-0.3,0.2-0.6,0.3c-0.3,0.1-0.7,0.3-1,0.4c-0.8,0.4-1.2,0.5-1.5,0.5c-0.6,0-0.8-0.7-0.4-1.1
	c0.1-0.1,0.2-0.1,0.4-0.2c0.5-0.2,1.6-0.7,1.5-0.7c0,0-0.2-0.1-0.4-0.2c-0.7-0.3-1.1-0.5-1.2-0.6c-0.2-0.2-0.2-0.5,0-0.8
	c0.2-0.3,0.5-0.3,0.8-0.2c0.3,0.2,1.2,0.5,1.2,0.5c0,0-0.3-1.2-0.5-2c-0.1-0.2-0.1-0.5-0.1-0.5c0-0.2,0.2-0.5,0.4-0.6
	c0.2-0.1,0.6,0,0.7,0.2c0.1,0.1,0.5,1.9,0.8,3.2l0.1,0.3l0.3,0.1c0.2,0.1,0.6,0.2,1,0.4c1.6,0.7,2.1,0.9,2.1,0.9c0.1,0,0.1,0,0-0.1
	c0-0.2-0.4-1.6-0.4-1.8c0-0.1-0.1-0.3-0.1-0.5c-0.1-0.4-0.2-0.8-0.3-1.1c-0.1-0.1-0.1-0.3-0.1-0.4c0-0.2,0.1-0.5,0.4-0.6
	c0.2-0.1,0.4-0.1,1,0.2c0.3,0.1,1,0.5,1.6,0.8c0.6,0.3,1.2,0.6,1.4,0.7c0.2,0.1,0.4,0.2,0.5,0.2l0.2,0.1l0-1.3c0-1.2,0-1.3-0.1-1.3
	c0,0-0.4-0.4-0.7-0.8c-1.2-1.2-1.4-1.5-1.3-1.8c0.1-0.3,0.3-0.5,0.6-0.5c0.2,0,0.4,0.1,0.6,0.3c0.2,0.3,0.4,0.5,0.7,0.8l0.3,0.3
	l0-0.7c0-0.5,0-0.7,0.1-0.7c0.1-0.1,0.2-0.3,0.4-0.3c0.3-0.1,0.6,0,0.7,0.3l0.1,0.2l0,0.8c0,0.4,0,0.8,0,0.8c0,0,0.1,0,0.1-0.1
	c0.3-0.2,1.6-1,1.8-1.1c0.2-0.1,0.3-0.1,0.5,0c0.3,0.2,0.4,0.5,0.2,0.8c-0.1,0.1-0.1,0.2-0.6,0.5c-0.3,0.2-0.9,0.6-1.3,0.9l-0.8,0.5
	l0,0.7c0,0.4,0,0.8,0,1v0.4l0.2-0.2c0.1-0.1,0.4-0.3,0.6-0.5c0.5-0.4,0.8-0.6,1.4-1c0.6-0.4,0.6-0.4,0.9-0.4c0.2,0,0.3,0,0.4,0.2
	c0.2,0.2,0.3,0.5,0.3,1.5c0,1.1,0,1.9,0,2.4c0,0.2,0,0.4,0,0.4c0,0,0.1,0,0.4-0.2c0.2-0.1,0.9-0.4,1.4-0.7l1-0.5l0.1-0.3
	c0.1-0.2,0.2-0.6,0.3-0.9c0.3-1,0.5-1.8,0.7-2c0.2-0.3,0.7-0.2,0.9,0.1c0.1,0.2,0.1,0.4,0,0.7c-0.2,0.4-0.5,1.6-0.5,1.6
	c0,0,0.2-0.1,0.5-0.2c0.5-0.3,0.7-0.3,0.9-0.3c0.2,0,0.4,0.2,0.4,0.4c0,0.2,0,0.4-0.2,0.6c-0.1,0.1-0.3,0.2-0.4,0.2
	c-0.1,0-0.9,0.5-0.9,0.5c0,0,0.2,0.1,1.4,0.8c0.5,0.2,0.9,0.5,0.9,0.5c0.2,0.2,0.2,0.7-0.1,0.9c-0.2,0.2-0.4,0.2-0.8,0
	c-0.6-0.3-2.1-1.1-2.5-1.4l-0.2-0.1l-1.1,0.5c-1.4,0.7-1.4,0.7-1.3,0.7c0.1,0,2.1,0.7,2.4,0.8c0.4,0.1,0.5,0.2,0.7,0.4
	c0.1,0.2,0.1,0.3,0.1,0.5c0,0.1-0.1,0.2-0.2,0.4c-0.3,0.3-2,1.6-2.6,1.9c-0.1,0.1-0.2,0.1-0.2,0.2c0,0,0.1,0,0.2,0.1
	c0.1,0,0.6,0.3,1,0.5c0.4,0.2,1,0.5,1.3,0.6l0.5,0.2l0.5-0.2c0.3-0.1,0.7-0.3,0.9-0.4c0.4-0.2,1.1-0.4,1.3-0.4
	c0.2,0,0.5,0.1,0.6,0.3c0.2,0.4,0,0.7-0.4,0.9c-0.5,0.1-1.4,0.5-1.4,0.5c0,0,0.1,0.1,0.3,0.1c0.7,0.3,0.9,0.4,1,0.5
	c0.2,0.3,0.1,0.6-0.1,0.8c-0.2,0.2-0.5,0.2-0.7,0.1c-0.1-0.1-1-0.5-1-0.5c0,0,0,0.2,0.1,0.4c0.2,0.6,0.4,1.8,0.4,1.9
	c0,0.5-0.6,0.8-1,0.4c-0.1-0.1-0.1-0.1-0.2-0.2s-0.1-0.4-0.2-0.7c-0.1-0.4-0.2-0.9-0.3-1.2c-0.1-0.3-0.2-0.7-0.2-0.9
	c0-0.2-0.1-0.3-0.1-0.3c0,0-0.1,0-0.2-0.1c-0.3-0.1-1.2-0.6-1.7-0.8c-0.6-0.3-1.7-0.8-1.7-0.8c0,0,0,0,0,0
	C307,224.2,307.3,225.1,307.5,225.7z M299.1,222.3l0.9-0.5l0-0.2c0-0.1,0-0.3,0-0.3l0-0.1l-1-0.4c-0.6-0.2-1.1-0.4-1.1-0.4
	c0,0-0.3,0.1-0.5,0.3c-0.3,0.2-0.7,0.4-0.9,0.5c-0.9,0.5-1.5,0.8-1.5,0.8c0,0,0.4,0.1,0.8,0.2c0.9,0.3,1.3,0.4,1.8,0.6
	c0.2,0.1,0.4,0.1,0.5,0.1C298.2,222.8,298.6,222.6,299.1,222.3z M301.8,224.7c0-0.4,0-0.7,0-0.8l0-0.2l-0.2,0
	c-0.1,0-0.3-0.1-0.4-0.2c-0.2-0.1-0.3-0.2-0.5-0.3c-0.1-0.1-0.2-0.2-0.2-0.2c0,0-0.6,0.4-1.2,0.6l-0.5,0.3l0,0.6
	c0,0.3,0,0.9,0.1,1.3c0,0.4,0.1,0.9,0.1,1.2c0,0.2,0,0.5,0,0.5c0,0,0.2-0.1,0.4-0.2c0.5-0.4,1.3-1,1.8-1.3c0.2-0.2,0.5-0.3,0.5-0.4
	l0.1-0.1V224.7z M301.8,217.5c0,0-1.3-0.7-2.2-1c-0.3-0.1-0.8-0.4-1-0.4l-0.4-0.2l0.1,0.3c0,0.2,0.1,0.4,0.1,0.4
	c0,0.1,0.6,2.4,0.6,2.7c0,0.1,0,0.1,1.3,0.6l0.4,0.2l0.1-0.1c0.1-0.1,0.2-0.2,0.3-0.2c0.2-0.1,0.5-0.2,0.6-0.2c0,0,0.1,0,0.1,0
	C301.8,219.4,301.9,217.5,301.8,217.5z M303.1,219.6c0,0,0.1,0,0.1,0.1c0.1,0,0.2,0.1,0.3,0.1l0.2,0.1l0.1-0.1c0.1,0,0.5-0.3,1-0.5
	l0.9-0.5l0-0.2c0-0.1,0-0.5,0-0.8c0-0.3,0-0.9,0-1.4c0-0.4,0-0.9,0-1.1l0-0.3l-0.3,0.2c-0.2,0.1-0.4,0.3-0.5,0.4s-0.5,0.4-0.8,0.7
	c-0.3,0.3-0.7,0.6-0.8,0.7l-0.2,0.1l0,1.1C303.1,219.1,303,219.6,303.1,219.6z M306.6,226.7c0,0-0.1-0.3-0.3-0.7
	c-0.2-0.6-0.7-1.9-0.8-2.3c0-0.1-0.1-0.2-0.1-0.2c0,0-0.3-0.1-0.6-0.3c-0.3-0.1-0.6-0.3-0.7-0.3c-0.1,0-0.2-0.1-0.2-0.1
	c0,0-0.1,0.1-0.2,0.2c-0.2,0.2-0.3,0.4-0.6,0.5l-0.2,0.1l0,0.3c0,0.2,0,0.6,0,0.9v0.6l0.4,0.1c0.2,0.1,0.6,0.2,1,0.4
	c0.3,0.1,1,0.4,1.4,0.5C306.2,226.6,306.6,226.7,306.6,226.7z M306.8,222.5c0.1,0,0.3-0.2,0.5-0.3c0.5-0.3,0.8-0.5,1.5-1l0.5-0.4
	l-1-0.3c-0.6-0.2-1.2-0.4-1.3-0.5c-0.2-0.1-0.3-0.1-0.4-0.2l-0.1-0.1l-0.6,0.3c-1.7,0.9-1.6,0.9-1.6,0.9c0,0,0,0.2,0,0.3l0,0.2
	l0.4,0.2c0.2,0.1,0.7,0.3,1.2,0.5l0.7,0.3L306.8,222.5z M239.1,224c0.2,0.4,0,0.7-0.4,0.9c-0.5,0.1-1.4,0.5-1.4,0.5
	c0,0,0.1,0.1,0.3,0.1c0.7,0.3,0.9,0.4,1,0.5c0.2,0.3,0.1,0.6-0.1,0.8c-0.2,0.2-0.5,0.2-0.7,0.1c-0.1-0.1-1-0.5-1-0.5
	c0,0,0,0.2,0.1,0.4c0.2,0.6,0.4,1.8,0.4,1.9c0,0.5-0.6,0.8-1,0.4c-0.1-0.1-0.1-0.1-0.2-0.2s-0.1-0.4-0.2-0.7
	c-0.1-0.4-0.2-0.9-0.3-1.2c-0.1-0.3-0.2-0.7-0.2-0.9c0-0.2-0.1-0.3-0.1-0.3c0,0-0.1,0-0.2-0.1c-0.3-0.1-1.2-0.6-1.7-0.8
	c-0.6-0.3-1.7-0.8-1.7-0.8c0,0,0,0,0,0c0,0.1,0.3,1,0.6,1.6c0.4,1.1,0.6,1.6,0.6,1.7c0,0.2-0.1,0.4-0.2,0.5
	c-0.2,0.1-0.3,0.2-0.6,0.2c-0.4,0-0.8-0.1-2-0.6c-0.6-0.2-2.1-0.8-2.4-0.9c0,0-0.1,0,0,1.3l0,1.3l1.1,1c0.6,0.6,1.1,1.1,1.2,1.1
	c0.2,0.1,0.2,0.2,0.3,0.3c0.2,0.4-0.2,0.9-0.6,0.8c-0.3,0-0.5-0.2-1.1-0.8c-0.3-0.3-0.5-0.5-0.6-0.6l-0.1-0.1l0,0.8
	c0,0.8,0,0.9-0.2,1c-0.3,0.3-0.8,0.2-1-0.2c-0.1-0.1-0.1-0.2-0.1-0.5c0-0.5,0-1.2-0.1-1.2c0,0-1.3,1-1.4,1.2
	c-0.2,0.2-0.3,0.3-0.5,0.2c-0.2,0-0.4-0.1-0.5-0.3c-0.1-0.2-0.1-0.5,0.1-0.7c0.1-0.1,1.7-1.4,2.1-1.7l0.2-0.2l0-1.3
	c0-0.7,0-1.3,0-1.3c0,0,0,0-0.8,0.5c-0.3,0.2-0.9,0.7-1.4,1c-0.4,0.3-0.8,0.6-0.8,0.6c-0.2,0.1-0.5,0-0.7-0.1
	c-0.3-0.2-0.3-0.3-0.4-2.1c0-0.4-0.1-1-0.1-1.3c0-0.3,0-0.6,0-0.8c0-0.2,0-0.3,0-0.3c0,0-0.3,0.2-0.7,0.3c-0.3,0.2-0.9,0.5-1.2,0.6
	c-0.8,0.4-1.1,0.6-1.2,0.6c0,0-0.1,0.3-0.1,0.5c-0.1,0.3-0.2,0.9-0.3,1.3c-0.1,0.4-0.2,0.9-0.2,1c0,0.1-0.1,0.3-0.1,0.3
	c-0.2,0.6-1.1,0.4-1.1-0.2c0-0.2,0-0.2,0.2-1.3c0.1-0.5,0.2-0.8,0.2-0.8c0,0-0.2,0.1-0.7,0.3c-0.6,0.3-0.7,0.4-0.9,0.4
	c-0.2,0-0.3,0-0.4-0.2c-0.1-0.1-0.2-0.3-0.2-0.5c0-0.2,0.1-0.4,0.4-0.5c0.6-0.3,1.1-0.6,1.1-0.6c0,0-0.2-0.1-0.4-0.1
	c-0.4-0.1-1.5-0.6-1.7-0.7c-0.5-0.2-0.5-0.9,0-1.1c0.2-0.1,0.3-0.1,1,0.2c0.3,0.1,1,0.4,1.6,0.6l1,0.4l0.3-0.2
	c0.5-0.3,1.1-0.6,1.7-0.9c0.8-0.4,0.8-0.4,0.7-0.4c-0.3-0.1-2.4-0.7-2.9-0.9c-0.4-0.1-0.5-0.3-0.5-0.7c0-0.3,0.2-0.5,0.6-0.8
	c0.5-0.3,0.8-0.5,2.3-1.3c0.2-0.1,0.5-0.2,0.5-0.3c0.1,0,0.1,0,0-0.1c0,0-0.4-0.2-0.9-0.4c-0.4-0.2-1-0.4-1.2-0.5
	c-0.4-0.2-0.4-0.2-0.5-0.1c0,0-0.3,0.2-0.6,0.3c-0.3,0.1-0.7,0.3-1,0.4c-0.8,0.4-1.2,0.5-1.5,0.5c-0.6,0-0.8-0.7-0.4-1.1
	c0.1-0.1,0.2-0.1,0.4-0.2c0.5-0.2,1.6-0.7,1.5-0.7c0,0-0.2-0.1-0.4-0.2c-0.7-0.3-1.1-0.5-1.2-0.6c-0.2-0.2-0.2-0.5,0-0.8
	c0.2-0.3,0.5-0.3,0.8-0.2c0.3,0.2,1.2,0.5,1.2,0.5c0,0-0.3-1.2-0.5-2c-0.1-0.2-0.1-0.5-0.1-0.5c0-0.2,0.2-0.5,0.4-0.6
	c0.2-0.1,0.6,0,0.7,0.2c0.1,0.1,0.5,1.9,0.8,3.2l0.1,0.3l0.3,0.1c0.2,0.1,0.6,0.2,1,0.4c1.6,0.7,2.1,0.9,2.1,0.9c0.1,0,0.1,0,0-0.1
	c0-0.2-0.4-1.6-0.4-1.8c0-0.1-0.1-0.3-0.1-0.5c-0.1-0.4-0.2-0.8-0.3-1.1c-0.1-0.1-0.1-0.3-0.1-0.4c0-0.2,0.1-0.5,0.4-0.6
	c0.2-0.1,0.4-0.1,1,0.2c0.3,0.1,1,0.5,1.6,0.8s1.2,0.6,1.4,0.7c0.2,0.1,0.4,0.2,0.5,0.2l0.2,0.1l0-1.3c0-1.2,0-1.3-0.1-1.3
	c0,0-0.4-0.4-0.7-0.8c-1.2-1.2-1.4-1.5-1.3-1.8c0.1-0.3,0.3-0.5,0.6-0.5c0.2,0,0.4,0.1,0.6,0.3c0.2,0.3,0.4,0.5,0.7,0.8l0.3,0.3
	l0-0.7c0-0.5,0-0.7,0.1-0.7c0.1-0.1,0.2-0.3,0.4-0.3c0.3-0.1,0.6,0,0.7,0.3l0.1,0.2l0,0.8c0,0.4,0,0.8,0,0.8c0,0,0.1,0,0.1-0.1
	c0.3-0.2,1.6-1,1.8-1.1c0.2-0.1,0.3-0.1,0.5,0c0.3,0.2,0.4,0.5,0.2,0.8c-0.1,0.1-0.1,0.2-0.6,0.5c-0.3,0.2-0.9,0.6-1.3,0.9l-0.8,0.5
	l0,0.7c0,0.4,0,0.8,0,1v0.4l0.2-0.2c0.1-0.1,0.4-0.3,0.6-0.5c0.5-0.4,0.8-0.6,1.4-1c0.6-0.4,0.6-0.4,0.9-0.4c0.2,0,0.3,0,0.4,0.2
	c0.2,0.2,0.3,0.5,0.3,1.5c0,1.1,0,1.9,0,2.4c0,0.2,0,0.4,0,0.4c0,0,0.1,0,0.4-0.2c0.2-0.1,0.9-0.4,1.4-0.7l1-0.5l0.1-0.3
	c0.1-0.2,0.2-0.6,0.3-0.9c0.3-1,0.5-1.8,0.7-2c0.2-0.3,0.7-0.2,0.9,0.1c0.1,0.2,0.1,0.4,0,0.7c-0.2,0.4-0.5,1.6-0.5,1.6
	c0,0,0.2-0.1,0.5-0.2c0.5-0.3,0.7-0.3,0.9-0.3c0.2,0,0.4,0.2,0.4,0.4c0,0.2,0,0.4-0.2,0.6c-0.1,0.1-0.3,0.2-0.4,0.2
	c-0.1,0-0.9,0.5-0.9,0.5c0,0,0.2,0.1,1.4,0.8c0.5,0.2,0.9,0.5,0.9,0.5c0.2,0.2,0.2,0.7-0.1,0.9c-0.2,0.2-0.4,0.2-0.8,0
	c-0.6-0.3-2.1-1.1-2.5-1.4l-0.2-0.1l-1.1,0.5c-1.4,0.7-1.4,0.7-1.3,0.7c0.1,0,2.1,0.7,2.4,0.8c0.4,0.1,0.5,0.2,0.7,0.4
	c0.1,0.2,0.1,0.3,0.1,0.5c0,0.1-0.1,0.2-0.2,0.4c-0.3,0.3-2,1.6-2.6,1.9c-0.1,0.1-0.2,0.1-0.2,0.2c0,0,0.1,0,0.2,0.1
	c0.1,0,0.6,0.3,1,0.5c0.4,0.2,1,0.5,1.3,0.6l0.5,0.2l0.5-0.2c0.3-0.1,0.7-0.3,0.9-0.4c0.4-0.2,1.1-0.4,1.3-0.4
	C238.7,223.6,239,223.8,239.1,224z M223.8,222.3l0.9-0.5l0-0.2c0-0.1,0-0.3,0-0.3l0-0.1l-1-0.4c-0.6-0.2-1.1-0.4-1.1-0.4
	c0,0-0.3,0.1-0.5,0.3c-0.3,0.2-0.7,0.4-0.9,0.5c-0.9,0.5-1.5,0.8-1.5,0.8c0,0,0.4,0.1,0.8,0.2c0.9,0.3,1.3,0.4,1.8,0.6
	c0.2,0.1,0.4,0.1,0.5,0.1C222.8,222.8,223.3,222.6,223.8,222.3z M226.5,224.7c0-0.4,0-0.7,0-0.8l0-0.2l-0.2,0
	c-0.1,0-0.3-0.1-0.4-0.2c-0.2-0.1-0.3-0.2-0.5-0.3c-0.1-0.1-0.2-0.2-0.2-0.2c0,0-0.6,0.4-1.2,0.6l-0.5,0.3l0,0.6
	c0,0.3,0,0.9,0.1,1.3c0,0.4,0.1,0.9,0.1,1.2c0,0.2,0,0.5,0,0.5c0,0,0.2-0.1,0.4-0.2c0.5-0.4,1.3-1,1.8-1.3c0.2-0.2,0.5-0.3,0.5-0.4
	l0.1-0.1V224.7z M226.5,217.5c0,0-1.3-0.7-2.2-1c-0.3-0.1-0.8-0.4-1-0.4l-0.4-0.2l0.1,0.3c0,0.2,0.1,0.4,0.1,0.4
	c0,0.1,0.6,2.4,0.6,2.7c0,0.1,0,0.1,1.3,0.6l0.4,0.2l0.1-0.1c0.1-0.1,0.2-0.2,0.3-0.2c0.2-0.1,0.5-0.2,0.6-0.2c0,0,0.1,0,0.1,0
	C226.5,219.4,226.5,217.5,226.5,217.5z M227.7,219.6c0,0,0.1,0,0.1,0.1c0.1,0,0.2,0.1,0.3,0.1l0.2,0.1l0.1-0.1c0.1,0,0.5-0.3,1-0.5
	l0.9-0.5l0-0.2c0-0.1,0-0.5,0-0.8c0-0.3,0-0.9,0-1.4c0-0.4,0-0.9,0-1.1l0-0.3l-0.3,0.2c-0.2,0.1-0.4,0.3-0.5,0.4s-0.5,0.4-0.8,0.7
	c-0.3,0.3-0.7,0.6-0.8,0.7l-0.2,0.1l0,1.1C227.7,219.1,227.7,219.6,227.7,219.6z M231.3,226.7c0,0-0.1-0.3-0.3-0.7
	c-0.2-0.6-0.7-1.9-0.8-2.3c0-0.1-0.1-0.2-0.1-0.2c0,0-0.3-0.1-0.6-0.3c-0.3-0.1-0.6-0.3-0.7-0.3c-0.1,0-0.2-0.1-0.2-0.1
	c0,0-0.1,0.1-0.2,0.2c-0.2,0.2-0.3,0.4-0.6,0.5l-0.2,0.1l0,0.3c0,0.2,0,0.6,0,0.9v0.6l0.4,0.1c0.2,0.1,0.6,0.2,1,0.4
	c0.3,0.1,1,0.4,1.4,0.5C230.9,226.6,231.3,226.7,231.3,226.7z M232,222.2c0.5-0.3,0.8-0.5,1.5-1l0.5-0.4l-1-0.3
	c-0.6-0.2-1.2-0.4-1.3-0.5c-0.2-0.1-0.3-0.1-0.4-0.2l-0.1-0.1l-0.6,0.3c-1.7,0.9-1.6,0.9-1.6,0.9c0,0,0,0.2,0,0.3l0,0.2l0.4,0.2
	c0.2,0.1,0.7,0.3,1.2,0.5l0.7,0.3l0.1-0.1C231.5,222.5,231.8,222.3,232,222.2z M328.6,217.5c-0.3-0.1-2.4-0.7-2.9-0.9
	c-0.4-0.1-0.5-0.3-0.5-0.7c0-0.3,0.2-0.5,0.6-0.8c0.5-0.3,0.8-0.5,2.3-1.3c0.2-0.1,0.5-0.2,0.5-0.3c0.1,0,0.1,0,0-0.1
	c0,0-0.4-0.2-0.9-0.4s-1-0.4-1.2-0.5c-0.4-0.2-0.4-0.2-0.5-0.1c0,0-0.3,0.2-0.6,0.3c-0.3,0.1-0.7,0.3-1,0.4
	c-0.8,0.4-1.2,0.5-1.5,0.5c-0.6,0-0.8-0.7-0.4-1.1c0.1-0.1,0.2-0.1,0.4-0.2c0.5-0.2,1.6-0.7,1.5-0.7c0,0-0.2-0.1-0.4-0.2
	c-0.7-0.3-1.1-0.5-1.2-0.6c-0.2-0.2-0.2-0.5,0-0.8c0.2-0.3,0.5-0.3,0.8-0.2c0.3,0.2,1.2,0.5,1.2,0.5c0,0-0.3-1.2-0.5-2
	c-0.1-0.2-0.1-0.5-0.1-0.5c0-0.2,0.2-0.5,0.4-0.6c0.2-0.1,0.6,0,0.7,0.2c0.1,0.1,0.5,1.9,0.8,3.2l0.1,0.3l0.3,0.1
	c0.2,0.1,0.6,0.2,1,0.4c1.6,0.7,2.1,0.9,2.1,0.9c0.1,0,0.1,0,0-0.1c0-0.2-0.4-1.6-0.4-1.8c0-0.1-0.1-0.3-0.1-0.5
	c-0.1-0.4-0.2-0.8-0.3-1.1c-0.1-0.1-0.1-0.3-0.1-0.4c0-0.2,0.1-0.5,0.4-0.6c0.2-0.1,0.4-0.1,1,0.2c0.3,0.1,1,0.5,1.6,0.8
	c0.6,0.3,1.2,0.6,1.4,0.7c0.2,0.1,0.4,0.2,0.5,0.2l0.2,0.1l0-1.3c0-1.2,0-1.3-0.1-1.3c0,0-0.4-0.4-0.7-0.8c-1.2-1.2-1.4-1.5-1.3-1.8
	c0.1-0.3,0.3-0.5,0.6-0.5c0.2,0,0.4,0.1,0.6,0.3c0.2,0.3,0.4,0.5,0.7,0.8l0.3,0.3l0-0.7c0-0.5,0-0.7,0.1-0.7
	c0.1-0.1,0.2-0.3,0.4-0.3c0.3-0.1,0.6,0,0.7,0.3l0.1,0.2l0,0.8c0,0.4,0,0.8,0,0.8s0.1,0,0.1-0.1c0.3-0.2,1.6-1,1.8-1.1
	c0.2-0.1,0.3-0.1,0.5,0c0.3,0.2,0.4,0.5,0.2,0.8c-0.1,0.1-0.1,0.2-0.6,0.5c-0.3,0.2-0.9,0.6-1.3,0.9l-0.8,0.5l0,0.7c0,0.4,0,0.8,0,1
	v0.4l0.2-0.2c0.1-0.1,0.4-0.3,0.6-0.5c0.5-0.4,0.8-0.6,1.4-1c0.6-0.4,0.6-0.4,0.9-0.4c0.2,0,0.3,0,0.4,0.2c0.2,0.2,0.3,0.5,0.3,1.5
	c0,1.1,0,1.9,0,2.4c0,0.2,0,0.4,0,0.4c0,0,0.1,0,0.4-0.2c0.2-0.1,0.9-0.4,1.4-0.7l1-0.5l0.1-0.3c0.1-0.2,0.2-0.6,0.3-0.9
	c0.3-1,0.5-1.8,0.7-2c0.2-0.3,0.7-0.2,0.9,0.1c0.1,0.2,0.1,0.4,0,0.7c-0.2,0.4-0.5,1.6-0.5,1.6c0,0,0.2-0.1,0.5-0.2
	c0.5-0.3,0.7-0.3,0.9-0.3c0.2,0,0.4,0.2,0.4,0.4c0,0.2,0,0.4-0.2,0.6c-0.1,0.1-0.3,0.2-0.4,0.2c-0.1,0-0.9,0.5-0.9,0.5
	c0,0,0.2,0.1,1.4,0.8c0.5,0.2,0.9,0.5,0.9,0.5c0.2,0.2,0.2,0.7-0.1,0.9c-0.2,0.2-0.4,0.2-0.8,0c-0.6-0.3-2.1-1.1-2.5-1.4l-0.2-0.1
	l-1.1,0.5c-1.4,0.7-1.4,0.7-1.3,0.7c0.1,0,2.1,0.7,2.4,0.8c0.4,0.1,0.5,0.2,0.7,0.4c0.1,0.2,0.1,0.3,0.1,0.5c0,0.1-0.1,0.2-0.2,0.4
	c-0.3,0.3-2,1.6-2.6,1.9c-0.1,0.1-0.2,0.1-0.2,0.2c0,0,0.1,0,0.2,0.1c0.1,0,0.6,0.3,1,0.5c0.4,0.2,1,0.5,1.3,0.6l0.5,0.2l0.5-0.2
	c0.3-0.1,0.7-0.3,0.9-0.4c0.4-0.2,1.1-0.4,1.3-0.4c0.2,0,0.5,0.1,0.6,0.3c0.2,0.4,0,0.7-0.4,0.9c-0.5,0.1-1.4,0.5-1.4,0.5
	c0,0,0.1,0.1,0.3,0.1c0.7,0.3,0.9,0.4,1,0.5c0.2,0.3,0.1,0.6-0.1,0.8c-0.2,0.2-0.5,0.2-0.7,0.1c-0.1-0.1-1-0.5-1-0.5
	c0,0,0,0.2,0.1,0.4c0.2,0.6,0.4,1.8,0.4,1.9c0,0.5-0.6,0.8-1,0.4c-0.1-0.1-0.1-0.1-0.2-0.2c0-0.1-0.1-0.4-0.2-0.7
	c-0.1-0.4-0.2-0.9-0.3-1.2c-0.1-0.3-0.2-0.7-0.2-0.9c0-0.2-0.1-0.3-0.1-0.3c0,0-0.1,0-0.2-0.1c-0.3-0.1-1.2-0.6-1.7-0.8
	c-0.6-0.3-1.7-0.8-1.7-0.8c0,0,0,0,0,0c0,0.1,0.3,1,0.6,1.6c0.4,1.1,0.6,1.6,0.6,1.7c0,0.2-0.1,0.4-0.2,0.5
	c-0.2,0.1-0.3,0.2-0.6,0.2c-0.4,0-0.8-0.1-2-0.6c-0.6-0.2-2.1-0.8-2.4-0.9c0,0-0.1,0,0,1.3l0,1.3l1.1,1c0.6,0.6,1.1,1.1,1.2,1.1
	c0.2,0.1,0.2,0.2,0.3,0.3c0.2,0.4-0.2,0.9-0.6,0.8c-0.3,0-0.5-0.2-1.1-0.8c-0.3-0.3-0.5-0.5-0.6-0.6l-0.1-0.1l0,0.8
	c0,0.8,0,0.9-0.2,1c-0.3,0.3-0.8,0.2-1-0.2c-0.1-0.1-0.1-0.2-0.1-0.5c0-0.5,0-1.2-0.1-1.2c0,0-1.3,1-1.4,1.2
	c-0.2,0.2-0.3,0.3-0.5,0.2c-0.2,0-0.4-0.1-0.5-0.3c-0.1-0.2-0.1-0.5,0.1-0.7c0.1-0.1,1.7-1.4,2.1-1.7l0.2-0.2l0-1.3
	c0-0.7,0-1.3,0-1.3c0,0,0,0-0.8,0.5c-0.3,0.2-0.9,0.7-1.4,1c-0.4,0.3-0.8,0.6-0.8,0.6c-0.2,0.1-0.5,0-0.7-0.1
	c-0.3-0.2-0.3-0.3-0.4-2.1c0-0.4-0.1-1-0.1-1.3c0-0.3,0-0.6,0-0.8c0-0.2,0-0.3,0-0.3s-0.3,0.2-0.7,0.3c-0.3,0.2-0.9,0.5-1.2,0.6
	c-0.8,0.4-1.1,0.6-1.2,0.6c0,0-0.1,0.3-0.1,0.5c-0.1,0.3-0.2,0.9-0.3,1.3c-0.1,0.4-0.2,0.9-0.2,1c0,0.1-0.1,0.3-0.1,0.3
	c-0.2,0.6-1.1,0.4-1.1-0.2c0-0.2,0-0.2,0.2-1.3c0.1-0.5,0.2-0.8,0.2-0.8c0,0-0.2,0.1-0.7,0.3c-0.6,0.3-0.7,0.4-0.9,0.4
	c-0.2,0-0.3,0-0.4-0.2c-0.1-0.1-0.2-0.3-0.2-0.5c0-0.2,0.1-0.4,0.4-0.5c0.6-0.3,1.1-0.6,1.1-0.6c0,0-0.2-0.1-0.4-0.1
	c-0.4-0.1-1.5-0.6-1.7-0.7c-0.5-0.2-0.5-0.9,0-1.1c0.2-0.1,0.3-0.1,1,0.2c0.3,0.1,1,0.4,1.6,0.6l1,0.4l0.3-0.2
	c0.5-0.3,1.1-0.6,1.7-0.9C328.8,217.5,328.8,217.5,328.6,217.5z M338,214c-1.7,0.9-1.6,0.9-1.6,0.9c0,0,0,0.2,0,0.3l0,0.2l0.4,0.2
	c0.2,0.1,0.7,0.3,1.2,0.5l0.7,0.3l0.1-0.1c0.1,0,0.3-0.2,0.5-0.3c0.5-0.3,0.8-0.5,1.5-1l0.5-0.4l-1-0.3c-0.6-0.2-1.2-0.4-1.3-0.5
	c-0.2-0.1-0.3-0.1-0.4-0.2l-0.1-0.1L338,214z M335.1,213.6c0,0,0.1,0,0.1,0.1c0.1,0,0.2,0.1,0.3,0.1l0.2,0.1l0.1-0.1
	c0.1,0,0.5-0.3,1-0.5l0.9-0.5l0-0.2c0-0.1,0-0.5,0-0.8c0-0.3,0-0.9,0-1.4c0-0.4,0-0.9,0-1.1l0-0.3l-0.3,0.2
	c-0.2,0.1-0.4,0.3-0.5,0.4s-0.5,0.4-0.8,0.7c-0.3,0.3-0.7,0.6-0.8,0.7l-0.2,0.1l0,1.1C335.1,213,335.1,213.5,335.1,213.6z
	 M335.1,217.5l0,0.3c0,0.2,0,0.6,0,0.9v0.6l0.4,0.1c0.2,0.1,0.6,0.2,1,0.4c0.3,0.1,1,0.4,1.4,0.5c0.4,0.2,0.8,0.3,0.8,0.3
	s-0.1-0.3-0.3-0.7c-0.2-0.6-0.7-1.9-0.8-2.3c0-0.1-0.1-0.2-0.1-0.2c0,0-0.3-0.1-0.6-0.3c-0.3-0.1-0.6-0.3-0.7-0.3
	c-0.1,0-0.2-0.1-0.2-0.1s-0.1,0.1-0.2,0.2c-0.2,0.2-0.3,0.4-0.6,0.5L335.1,217.5z M333.9,218.7c0-0.4,0-0.7,0-0.8l0-0.2l-0.2,0
	c-0.1,0-0.3-0.1-0.4-0.2c-0.2-0.1-0.3-0.2-0.5-0.3c-0.1-0.1-0.2-0.2-0.2-0.2c0,0-0.6,0.4-1.2,0.6l-0.5,0.3l0,0.6
	c0,0.3,0,0.9,0.1,1.3c0,0.4,0.1,0.9,0.1,1.2c0,0.2,0,0.5,0,0.5c0,0,0.2-0.1,0.4-0.2c0.5-0.4,1.3-1,1.8-1.3c0.2-0.2,0.5-0.3,0.5-0.4
	l0.1-0.1V218.7z M330.4,209.7l0.1,0.3c0,0.2,0.1,0.4,0.1,0.4c0,0.1,0.6,2.4,0.6,2.7c0,0.1,0,0.1,1.3,0.6l0.4,0.2l0.1-0.1
	c0.1-0.1,0.2-0.2,0.3-0.2c0.2-0.1,0.5-0.2,0.6-0.2c0,0,0.1,0,0.1,0c0,0,0.1-2,0-2c0,0-1.3-0.7-2.2-1c-0.3-0.1-0.8-0.4-1-0.4
	L330.4,209.7z M329.8,216.6c0.2,0.1,0.4,0.1,0.5,0.1c0,0,0.5-0.2,1-0.5l0.9-0.5l0-0.2c0-0.1,0-0.3,0-0.3l0-0.1l-1-0.4
	c-0.6-0.2-1.1-0.4-1.1-0.4c0,0-0.3,0.1-0.5,0.3c-0.3,0.2-0.7,0.4-0.9,0.5c-0.9,0.5-1.5,0.8-1.5,0.8c0,0,0.4,0.1,0.8,0.2
	C328.9,216.3,329.2,216.4,329.8,216.6z M375.3,275.4c0.8,2.5,1.4,6.1,1.3,8.4c-0.1,4.7-1.4,9.5-3.4,13.5c-1.2,2.2-2.2,3.8-4,6
	c-1.4,1.8-1.9,2.2-3.2,3.3c-1.5,1.2-2.6,2-4.3,2.7c-2.3,1-4.4,1.6-6.4,1.8c-1.9,0.2-3.5,0.2-5.1-0.1c-0.4-0.1-0.7-0.1-0.7-0.1
	s-0.3,0.5-0.6,1.1c-0.8,1.5-1.4,2.4-2.5,3.8c-1.1,1.4-2.4,2.9-3.4,3.8c-1.4,1.3-3.6,2.8-5.5,3.8c-3,1.6-4.4,2.1-6.6,2.7
	c-3.3,0.9-4.6,1-8.3,1c-2.1,0-2.9-0.1-4.7-0.5c-2.6-0.6-3.6-0.9-5.5-1.7c-1.1-0.5-1.6-0.8-2.5-1.5c-0.6-0.5-0.7-0.6-0.8-0.8
	c-0.2-0.6-0.3-1,0-1.4c0.2-0.5,0.6-0.7,1.1-0.7c0.5-0.1,0.9,0.1,1.2,0.5c0.3,0.4,1.1,0.9,2,1.3c1.6,0.7,2.4,1,4.8,1.5
	c1.9,0.4,2.6,0.5,5.5,0.5c2.4,0,3.6-0.1,6-0.8c2.1-0.5,3-0.9,5.2-2c3.5-1.7,5.5-3.1,7.5-5.3c1-1.1,2.7-3.2,3.3-4.2
	c0.4-0.7,1.2-2,1.2-2c0,0-0.3-0.2-0.7-0.3c-2-0.9-3.4-1.8-4.4-2.7c-0.6-0.6-1.5-1.7-1.8-2.3c-1.1-1.8-0.9-5.3,0.4-7.2
	c0.5-0.7,1.7-1.8,2.5-2.1c0.6-0.3,1.6-0.4,2.3-0.2c1.3,0.3,2.2,1,3.7,2.7c1.6,2,2.3,3.7,2.4,6.5c0.1,1.3,0,2.1-0.2,3.1l-0.2,0.8
	l0.7,0.1c1.3,0.2,3.3,0.2,4.4,0c2.2-0.4,5-1.4,6.7-2.4c1.9-1.2,3.5-2.7,5.2-4.9c3.2-4.1,4.9-7.8,5.8-12.6c0.4-1.9,0.6-4.5,0.5-6
	c-0.1-1-0.4-3-0.6-4.4c-0.5-2.4-2.4-7-3.6-9c-0.7-1.1-3.1-4.6-3.3-4.7c-0.6-0.4-0.8-0.7-0.8-1.3c0-0.5,0.3-0.9,0.7-1.2
	c0.4-0.3,0.9-0.4,1.3-0.3c0.5,0.1,0.7,0.4,1.6,1.7c0.5,0.7,1.2,1.8,1.7,2.5c1.2,1.7,1.5,2.2,2.2,3.6
	C373.8,271.4,374.6,273.3,375.3,275.4z M347.8,302.5c-0.2-0.9-0.7-1.8-1.5-2.7c-1-1.2-1.6-1.7-2.2-1.9c-0.4-0.1-0.6,0-1.2,0.5
	c-0.5,0.5-0.7,0.7-0.9,1.1c-0.3,0.8-0.4,2-0.3,2.9c0.1,0.6,0.2,0.8,0.7,1.5c0.6,0.8,1.1,1.3,1.7,1.8c0.5,0.4,2.2,1.2,3,1.6l0.5,0.2
	l0.2-0.7c0.1-0.4,0.2-1,0.2-1.3C348.1,304.7,347.9,303.1,347.8,302.5z"/>
</svg>
