<?xml version="1.0" encoding="utf-8"?>
<!-- Generator: Adobe Illustrator 18.0.0, SVG Export Plug-In . SVG Version: 6.00 Build 0)  -->
<!DOCTYPE svg PUBLIC "-//W3C//DTD SVG 1.1//EN" "http://www.w3.org/Graphics/SVG/1.1/DTD/svg11.dtd">
<svg version="1.1" id="Layer_1" xmlns="http://www.w3.org/2000/svg" xmlns:xlink="http://www.w3.org/1999/xlink" x="0px" y="0px"
	 viewBox="0 0 432 432" enable-background="new 0 0 432 432" xml:space="preserve">
<g>
	<g>
		<path fill="#DD1E3A" d="M98.1,304.3c0.2,1.7,0.4,4.3,0.6,7.6c0.2,3.4,0.3,7.2,0.4,11.4c0,4.2,0.1,8.7,0.1,13.5c0,4.8,0,9.4-0.1,14
			c-0.1,4.6-0.2,8.9-0.4,12.9c-0.2,4.1-0.4,7.4-0.7,10.1c-0.1,1.9-0.3,3.6-0.7,5.1c-0.3,1.3-0.7,2.5-1.2,3.5c-0.5,1-1.2,1.5-1.9,1.5
			c-2.4,0-3.8-1.4-4.4-4.2c-0.5-2.8-0.7-7.3-0.5-13.5c0.1-0.6,0.1-1.2,0.1-1.9c0-0.7,0-1.4,0-2.3c-1-0.8-2.2-1.3-3.4-1.6
			c-1.2-0.3-2.2-0.5-3.1-0.6c-2.2-0.2-4.1-0.2-5.6-0.1c-1.5,0.1-2.7,0.3-3.6,0.5c-0.2,3.2-0.4,6.3-0.5,9.1c-0.1,2.9-0.4,5.4-0.6,7.6
			c-0.3,2.2-0.6,3.9-0.9,5.2c-0.3,1.3-0.7,2-1.2,2.1c-0.4,0.1-0.8-0.1-1.1-0.7c-0.3-0.5-0.6-1.3-0.9-2.6c-0.3-1.2-0.6-3.1-0.8-5.7
			c0-0.5,0-1-0.1-1.7c0-0.7-0.1-1.4-0.1-2.1c-1.1,0-2.1-0.5-2.7-1.4c-0.7-0.9-1.1-1.6-1.3-2.1c-0.7-1.3-0.9-2.5-0.7-3.6
			c0.2-1.1,0.5-2,1-2.8c0.6-0.9,1.3-1.6,2.3-2.3c0.1,0,0.2,0,0.3-0.1l0.9-0.6c0-4.3,0-8.9,0.1-13.7c0-4.9,0.1-9.6,0.2-14.4
			c0.1-4.7,0.2-9.1,0.4-13.2c0.1-4.1,0.3-7.5,0.5-10.2c0-1.8,0.1-3.4,0.4-4.9c0.2-1.2,0.5-2.4,0.8-3.4c0.3-1,0.7-1.5,1.2-1.5
			c1.3,0,2.3,1.3,3,3.9c0.7,2.6,0.9,6.9,0.7,12.9c0,1.6,0,3.9-0.1,6.9c0,3-0.1,6.4-0.1,10.3c0,3.9-0.1,8-0.1,12.4
			c0,4.4-0.1,8.7-0.2,12.9c2.4-0.4,5.4-0.5,9.1-0.4c1.6,0.2,2.9,0.4,3.7,0.5c0.9,0.1,1.8,0.3,2.7,0.5c0-3.2,0-6.9,0.1-11.1
			c0.1-4.1,0.2-8.4,0.3-12.7c0.1-4.3,0.2-8.5,0.4-12.7c0.2-4.2,0.4-8,0.7-11.3c0.3-3.3,0.6-6.1,0.9-8.3c0.3-2.2,0.7-3.5,1.2-3.9
			c0.7-0.6,1.3-0.7,2-0.4c0.5,0.2,1,0.8,1.6,1.9C97.2,299.9,97.7,301.7,98.1,304.3z M65.9,364.3c-0.3,0.7-0.3,1.2,0.1,1.6
			c0.3,0.4,0.7,0.9,1.2,1.4v-4.6C66.6,363.2,66.1,363.7,65.9,364.3z"/>
		<path fill="#DD1E3A" d="M122.4,309.9c-1,2.5-1.9,5.4-2.5,8.8c-0.6,3.4-1.1,6.6-1.4,9.6c-0.4,3.6-0.6,7.3-0.7,11.2
			c-0.1,5,0,9.7,0.3,14.3c0.2,3.9,0.6,7.9,1.2,11.9c0.6,4,1.5,7.2,2.9,9.7c0.7,1.2,1.5,2.2,2.4,2.8c0.9,0.6,1.8,1.2,2.5,1.6
			c0.8,0.5,1.5,0.5,2.2,0.2c0.7-0.3,1.4-0.8,1.9-1.4c0.8-1,1.4-2,1.9-3c0.3-0.6,0.5-1.1,0.6-1.7c0.2-0.7,0.4-1.4,0.5-2.2
			c0.1-0.8,0.3-1.7,0.5-2.8c0.2-1.1,0.4-2.4,0.6-3.7c0.2-1.3,0.4-2.8,0.6-4.3c0.2-2.4,0.4-5,0.5-7.7c0.1-2.8,0.3-5.3,0.4-7.7
			c0.1-2.8,0.1-5.5,0.1-8.3c-1.3,0.3-2.6,0.3-3.7,0.1c-1.1-0.2-2.1-0.6-3-1.1c-1-0.5-2-1.1-2.9-2c-1.1-1-2-2.3-2.6-3.9
			c-0.6-1.5-1.1-3-1.4-4.3c-0.4-1.6-0.6-3.3-0.6-5c0-1.6,0.1-3.2,0.4-4.7c0.2-1.3,0.5-2.7,1.1-4c0.5-1.3,1.3-2.4,2.4-3.3
			c0.4-0.4,0.9-0.8,1.6-1.1c0.5-0.3,1.1-0.5,2-0.6c0.9-0.1,1.8-0.1,2.9,0.1c0.5,0.1,1,0.3,1.4,0.5c0.5,0.2,0.9,0.5,1.3,0.8
			c0.7,0.5,1.3,1.2,2,2.1c0.5,0.8,1,1.8,1.6,3.1c0.6,1.3,1,3,1.4,4.9c0.1,0.9,0.2,1.8,0.4,2.9c0.2,1,0.3,2.1,0.4,3.4
			c0.1,1.3,0.2,2.7,0.3,4.4c0.5-0.6,1-1.2,1.5-1.9c0.5-0.7,1-1.4,1.4-1.9c0.4-0.7,0.8-1.3,1.1-2c0.7-1.5,1.1-2.2,1.4-2
			c0.1,0,0.3,0.2,0.7,0.6c0,0.2,0,0.5,0.1,0.9c0,0.3,0,0.6,0.1,1c0,0.4,0,0.9-0.2,1.4c-0.3,1.2-0.7,2.4-1.1,3.4
			c-0.5,1-1.1,2.1-1.9,3.1c-0.8,1-1.8,2.1-3.1,3.1c0,2.3,0,4.7-0.1,7.1c-0.1,2.2-0.2,4.7-0.4,7.4c-0.1,2.8-0.4,5.5-0.6,8.3
			c-0.3,2.5-0.6,5-1,7.4c-0.4,2.1-0.8,4.3-1.4,6.5c-0.5,2.2-1.2,4.2-2.1,5.8c-1,1.8-1.9,3.1-2.9,4c-1,0.9-1.9,1.5-2.8,1.9
			c-1,0.4-2,0.6-2.9,0.6c-1.4,0.2-2.7,0.1-3.9-0.1c-1.2-0.3-2.3-0.7-3.2-1.1c-1-0.5-2-1.1-2.9-1.9c-1.4-1.3-2.6-2.9-3.6-4.6
			c-1-1.7-1.8-3.4-2.4-5c-0.8-1.8-1.3-3.8-1.7-5.9c-0.5-2.2-0.8-4.6-1-7.4c-0.2-2.7-0.3-5.3-0.4-7.8c-0.1-2.9-0.1-5.7-0.1-8.6
			c0-2.1,0-4.2,0.1-6.2c0.1-2,0.2-4.2,0.4-6.4c0.3-4.2,0.8-8.3,1.7-12.3c0.8-4,2.1-7.6,3.8-10.9c0.4-0.8,0.8-1.5,1.3-2.2
			c0.5-0.7,0.9-1.3,1.4-1.8c0.5-0.6,0.9-1.1,1.4-1.6c0.8-0.7,2-1.5,3.7-2.4c1.7-0.9,4-1.2,6.7-0.9c1,0.2,2.1,0.5,3.1,0.9
			c1,0.4,1.6,1.2,1.6,2.2c-0.1,0.9-0.7,1.4-1.8,1.7c-1.1,0.3-2.5,0.9-4.1,1.9c-0.7,0.4-1.3,0.9-2,1.4
			C124.5,306.5,123.4,308,122.4,309.9z M128.3,326.2c0.5,1.2,1.1,2.4,1.9,3.4c0.7,0.9,1.5,1.6,2.6,2.2c1,0.6,2.4,0.8,4,0.6
			c0-2.2-0.1-4.2-0.2-5.9c-0.1-1.8-0.3-3.3-0.5-4.6c-0.3-1.5-0.6-2.9-0.9-4.1c-0.5-1.4-0.9-2.5-1.3-3.2c-0.4-0.7-0.8-1.3-1.3-1.6
			c-0.5-0.4-1-0.6-1.4-0.6c-1,0.1-1.8,0.7-2.3,1.7c-0.3,0.5-0.5,1-0.6,1.7c-0.2,1-0.3,2.1-0.4,3.1c-0.1,1-0.1,2.2-0.1,3.4
			C127.7,323.6,127.9,324.8,128.3,326.2z"/>
		<path fill="#DD1E3A" d="M160.7,385.2c-1.3,0-2.5-0.1-3.4-0.3c-0.9-0.2-1.7-0.4-2.4-0.6c-0.8-0.3-1.4-0.5-1.9-0.7
			c-1.3-0.8-2.2-2.5-2.5-5.4c-0.3-2.8-0.4-6.8-0.2-11.9c0.1-2.1,0.2-5.2,0.2-9.2c0-4,0.1-8.6,0.2-13.5c0.1-5,0.2-10.1,0.4-15.4
			c0.1-5.3,0.4-10.1,0.6-14.5c0.3-4.4,0.6-8.1,1-11.1c0.4-3,0.9-4.7,1.4-5.2c0.7-0.6,1.3-0.7,2-0.4c0.5,0.2,1,0.8,1.6,1.9
			c0.6,1,1,2.9,1.4,5.4c0.2,1.7,0.4,4.3,0.6,7.6c0.2,3.4,0.3,7.2,0.4,11.4c0,4.2,0.1,8.7,0.1,13.5c0,4.8,0,9.4-0.1,14
			c-0.1,4.6-0.2,8.9-0.4,12.9c-0.2,4.1-0.4,7.4-0.7,10.1c0,0.7,0,1.3-0.1,2c-0.1,0.6-0.2,1.2-0.4,1.9c-0.1,0.7-0.3,1.5-0.5,2.2
			c0.5,0.1,1.1,0.1,2,0.1s1.8,0,2.9,0c1.9,0.1,3.7,0.1,5.3-0.1c1.6-0.1,3-0.3,4-0.5c1.2-0.2,2.4-0.4,3.4-0.7
			c0.2-0.1,0.5-0.2,0.9-0.3c0.6-0.2,1.2-0.2,1.9,0c0.1,0,0.2,0,0.4,0.1c0.3,0.3,0.4,0.6,0.4,0.9v0.4c0,0.3,0,0.5-0.1,0.7
			c-0.5,0.5-1,0.9-1.4,1.3c-1,0.9-2.4,1.6-4,2.1c-1,0.3-2,0.5-3.1,0.6c-1.1,0.1-2.2,0.3-3.4,0.4
			C164.9,385.4,162.7,385.4,160.7,385.2z"/>
		<path fill="#DD1E3A" d="M200,381.8c0.3,1,0.1,1.9-0.4,2.4c-0.6,0.6-1.6,1-3.1,1.1c-0.5,0-1,0-1.7,0.1c-0.7,0-1.4,0.1-2.3,0.1
			c-2,0-3.9-0.1-5.7-0.4c-2.3-0.3-4-0.7-5.1-1.1c-0.6-0.3-1-0.6-1.4-0.9c-0.4-0.3-0.6-0.7-0.6-1.1v-0.7l0.7-0.7
			c0.1-0.1,0.3-0.2,0.6-0.3c0.6-0.2,1.3-0.3,2.3-0.3c0.6,0.1,1.1,0.1,1.6,0.1h2.1c-0.6-2.9-0.7-7.4-0.4-13.7c0-1.8,0-4.4,0.1-7.7
			c0-3.3,0.1-7.1,0.2-11.2c0.1-4.1,0.2-8.5,0.3-13.1c0.1-4.6,0.2-9,0.4-13.2c0.2-4.2,0.4-8.1,0.7-11.7c0.3-3.5,0.6-6.3,1-8.4
			c-0.3,0-0.6,0-1.1-0.1c-0.4,0-0.9-0.1-1.4-0.1c-0.5,0-1,0-1.7-0.1c-0.8,0-1.2,0-1.4-0.1c-0.2-0.1-0.3-0.2-0.4-0.3
			c-0.4-0.2-0.6-0.4-0.6-0.7c-0.3-1.1-0.2-2,0.3-2.4c0.6-0.8,1.6-1.1,3.1-1.1c0.4,0,0.9,0,1.6-0.1c0.7,0,1.4-0.1,2.3-0.1
			c1.7,0,3.5,0.1,5.4,0.4c0.9,0.1,1.7,0.2,2.4,0.4c0.7,0.2,1.3,0.4,2,0.6c0.7,0.2,1.2,0.5,1.7,1c0.2,0.2,0.3,0.4,0.4,0.6
			c0.2,0.4,0.2,0.8,0.1,1.3c-0.1,0.2-0.3,0.4-0.6,0.6c-0.2,0.2-0.5,0.4-0.9,0.5c-0.4,0.1-0.8,0.2-1.3,0.2h-0.7c-0.4,0-0.8,0-1.2-0.1
			c-0.4,0-0.8-0.1-1.2-0.1h-1.4c0.2,0.7,0.4,1.7,0.6,3c0.2,1.7,0.4,4.3,0.6,7.6c0.2,3.4,0.3,7.2,0.4,11.4c0,4.2,0.1,8.7,0.1,13.5
			c0,4.8,0,9.4-0.1,14c-0.1,4.6-0.2,8.9-0.4,12.9c-0.2,4.1-0.4,7.4-0.7,10.1c-0.1,0.7-0.2,1.4-0.3,2.1c-0.2,1.5-0.5,3-0.9,4.3h1.6
			c0.5,0,1,0,1.6,0.1c0.6,0,1.1,0.1,1.6,0.2c0.2,0,0.4,0,0.6,0.1C199.5,381,199.8,381.3,200,381.8z"/>
		<path fill="#DD1E3A" d="M245.5,352.9c-0.1,0.6-0.2,1.1-0.3,1.7c-0.1,0.5-0.2,1-0.4,1.6c-0.1,0.6-0.3,1.1-0.5,1.7
			c0.8-0.1,1.5-0.2,2.3-0.2c0.8,0,1.5-0.1,2.1-0.1c1.9-0.1,3.4,0,4.5,0.2c1.1,0.2,1.6,0.5,1.6,0.6v0.1c0,0.2-0.1,0.3-0.4,0.4
			c-0.2,0.1-0.7,0.3-1.6,0.6c-0.5,0.2-1,0.3-1.5,0.4c-0.5,0-1,0.1-1.5,0.2c-0.6,0.1-1.1,0.1-1.7,0.1c-1,0.2-1.8,0.3-2.4,0.4
			c-0.5,0.1-1,0.2-1.4,0.3c-0.4,0.1-0.7,0.1-0.8,0.1c-0.6,2.2-1.3,4.3-2.1,6.4c-0.8,1.8-1.7,3.7-2.7,5.6c-1.1,2-2.3,3.7-3.8,5.4
			c-1,1-2,1.8-3,2.6c-1,0.7-2,1.3-3.2,1.9c-1.2,0.6-2.5,0.8-3.8,0.7c-1.1,0-2.1-0.2-2.9-0.5c-0.8-0.3-1.4-0.7-1.9-1.1
			c-0.5-0.4-0.9-0.9-1.1-1.6c-0.7-1.3-0.9-2.7-0.6-4.1c0.2-1.4,0.6-2.7,1.2-3.9c0.7-1.4,1.5-2.8,2.6-4.1c1.4-1.9,3.3-3.6,5.7-5.1
			c0.9-0.5,1.8-1,2.7-1.4c0.8-0.4,1.6-0.8,2.5-1.1c0.9-0.4,1.8-0.7,2.6-0.9c0.5-2.8,0.8-5.5,1-8.1c0.2-2.6,0.4-5,0.6-7.1
			c0.2-2.5,0.3-4.8,0.3-7c0-1.1,0-2.8-0.1-4.9c-0.1-2.1-0.3-4.5-0.6-7c-0.3-2.5-0.6-5.1-1-7.8c-0.4-2.7-0.9-5.1-1.5-7.4
			c-0.6-2.2-1.3-4-2.1-5.4c-0.8-1.4-1.7-2.1-2.7-2.2c-0.9-0.1-1.7,0.1-2.4,0.5c-0.8,0.4-1.5,1-2.1,1.7c-0.6,0.7-1.2,1.5-1.6,2.2
			c-0.5,0.8-0.9,1.5-1.1,2.1c-0.3,0.6-0.5,1.2-0.8,1.8c-0.2,0.6-0.5,1.3-0.6,1.9c-0.4,1-0.7,2.1-1,3c-0.3,1-0.6,1.9-0.9,2.9
			c-0.2,0.7-0.3,1.3-0.4,1.9c-0.1,0.6-0.2,1.2-0.4,1.8c0.1,3.5,0.1,7.4,0.1,11.7c0,4.2,0,8.5-0.1,12.7c0,4.2-0.2,8.3-0.4,12.2
			c-0.2,3.9-0.4,7.1-0.7,9.8c-0.1,1.7-0.3,3.2-0.6,4.6c-0.2,1.1-0.5,2.2-1,3.1c-0.5,1-1,1.4-1.7,1.4c-1.9,0-3.3-1.2-4.2-3.7
			c-0.9-2.5-1.3-6.5-1.1-12c0.1-2,0.1-5.1,0.1-9.2c0-4.1,0-8.6,0.1-13.5c0.1-4.9,0.2-9.7,0.4-14.7c0.2-4.9,0.5-9.2,1-12.9
			c0.4-2.8,0.9-4.5,1.5-5.1c0.6-0.7,1.4-1,2.2-1.1c0.6-0.1,1.1,0,1.6,0.4c0.5,0.3,0.9,0.8,1.2,1.4c0.3,0.7,0.6,1.7,0.8,3.1
			c0.1,0.3,0.1,0.8,0.1,1.6c0.3-1.9,0.9-3.7,1.7-5.4c0.8-1.5,1.7-3.1,2.9-4.7c1.2-1.6,2.8-3,4.8-4.1c1-0.7,2.2-1.1,3.4-1.3
			c1-0.2,2.3,0,3.6,0.4c1.4,0.5,2.8,1.5,4.2,3c1,1.5,2,3.2,3,5c0.8,1.6,1.5,3.5,2.4,5.7c0.8,2.2,1.5,4.6,2,7.3
			c0.5,3.1,0.8,6.6,1.1,10.3c0.2,3.1,0.2,6.8,0.1,10.9C246.8,343.8,246.4,348.2,245.5,352.9z M222.9,373.9c-0.4,1-0.7,1.9-0.9,2.7
			c-0.2,0.8-0.2,1.5-0.1,2.2c0.1,0.7,0.5,1.3,1.3,1.6c0.2,0.1,0.5,0.2,0.9,0.3c0.4,0.1,0.9,0,1.4-0.1c2.5-0.6,4.5-2.5,6.1-5.7
			c1.6-3.2,2.8-7,3.6-11.2c-0.7,0.3-1.3,0.6-2,0.9c-0.7,0.3-1.3,0.7-2,1.1c-1.6,0.9-3,1.8-4,2.8c-1,1-1.9,1.9-2.6,2.6
			C223.8,372.2,223.3,373.1,222.9,373.9z"/>
		<path fill="#DD1E3A" d="M295.7,301.3c0.1,0.6,0.2,1.4,0.3,2.4c0.1,0.9,0.2,2,0.3,3.4c0.1,1.4,0.2,3.2,0.3,5.3
			c0.2,4.4,0.3,9.4,0.4,15.2c0.1,5.7,0.1,11.5,0,17.2c-0.1,5.8-0.2,11.2-0.4,16.4c-0.2,5.2-0.5,9.4-0.9,12.7
			c-0.1,1.9-0.3,3.6-0.7,5.1c-0.3,1.3-0.7,2.5-1.2,3.5c-0.5,1-1.2,1.5-1.9,1.5c-2.4,0-3.8-1.4-4.4-4.2c-0.5-2.8-0.7-7.3-0.5-13.5
			c0.1-0.5,0.1-1,0.1-1.6c0-0.6,0-1.3,0-2.1c-1.3-1-2.9-1.7-4.8-2c-1.9-0.3-3.3-0.5-4.4-0.6c-0.5-0.1-1-0.1-1.5-0.1
			c-0.5,0-1,0-1.5,0c-0.7,2.2-1.5,4.3-2.4,6.4c-0.8,1.8-1.7,3.7-2.7,5.8c-1,2.1-2.1,3.9-3.3,5.6c-0.6,0.8-1.1,1.5-1.7,2.3
			c-1.1,1.4-2.5,2.6-4,3.6c-0.7,0.4-1.4,0.6-2.1,0.6c-0.8,0.2-1.3,0.1-1.6-0.3c-0.1,0-0.2-0.1-0.4-0.3v-0.3c0.1-0.3,0.2-0.5,0.4-0.6
			c0.2-0.1,0.4-0.4,0.6-0.6c0.7-0.7,1.3-1.4,1.8-2.1c0.5-0.7,1-1.4,1.5-1.9c0.5-0.7,0.9-1.3,1.3-2c0.6-1,1.2-2.1,1.8-3.3
			c0.6-1.1,1.3-2.5,1.9-4c0.4-0.8,0.8-1.7,1.3-2.7c0.5-1,1-2.3,1.4-3.7c0.3-0.6,0.6-1.3,0.9-2.1c-0.8,0.2-1.4,0.3-1.9,0.4
			c-0.5,0-1,0.1-1.5,0.2c-0.5,0.1-0.9,0.2-1.3,0.3c-1,0.2-1.9,0.5-2.7,0.9c-0.8,0.3-1.5,0.6-2.1,1.1c-0.6,0.4-1,0.9-1.2,1.5
			c-0.3,0.9-0.1,1.6,0.5,2.2c0.6,0.6,1.3,1.2,2,1.6c0.7,0.5,1.2,0.9,1.6,1.4c0.3,0.4,0.1,0.9-0.8,1.5c-0.9,0.5-1.6,0.7-2.2,0.6
			c-0.6-0.1-1.2-0.4-1.7-0.8c-0.5-0.4-1-0.9-1.3-1.4c-0.3-0.5-0.5-0.9-0.6-1.2c-0.7-1.3-0.9-2.5-0.6-3.6c0.2-1.1,0.6-2,1.1-2.8
			c0.6-0.9,1.3-1.6,2.3-2.3c0.8-0.6,1.7-1,2.7-1.4c1-0.4,2.2-0.7,3.7-1.1c1.5-0.3,3.4-0.6,5.6-0.8c0.2-0.6,0.4-1.2,0.6-1.8
			c0.2-0.6,0.5-1.3,0.6-1.9c1.2-3.7,2.5-7.7,3.7-12c1.2-4.3,2.5-8.6,3.7-12.9c1.2-4.3,2.4-8.4,3.4-12.4c1-4,2-7.5,3-10.5
			c0.5-1.4,0.9-2.7,1.2-3.9c0.3-1.2,0.7-2.2,1.1-3.1c0.3-0.5,0.8-0.8,1.4-0.9h-0.1c1-0.2,2.2-0.1,3.4,0.4
			C294.2,297.8,295.1,299.1,295.7,301.3z M279.9,356.3c0.9,0.1,1.8,0.2,2.7,0.3c1.6,0.2,3.1,0.4,4.6,0.7c0-3,0-6.3,0.1-10
			c0.1-3.7,0.2-7.6,0.3-11.6c0.1-4,0.2-8,0.4-12c0.1-4,0.3-7.8,0.5-11.3c-0.8,3.5-1.7,7.7-2.9,12.4c-1.2,4.8-2.5,9.7-3.9,14.9
			c-0.9,2.8-1.7,5.5-2.6,8.3c-0.9,2.8-1.8,5.5-2.7,8.1c0.6,0,1.1,0,1.7,0.1C278.6,356.3,279.3,356.3,279.9,356.3z"/>
		<path fill="#DD1E3A" d="M322,345.5c0.1,0.5,0.1,1,0.1,1.5c0,0.5,0,1.2,0,1.9c-0.1,0.8-0.1,1.8-0.1,3.1c0,1.3,0,2.9,0,4.7v5.6
			c0,1,0,2.1-0.1,3c0,1-0.1,2-0.1,3c-0.1,2-0.2,3.9-0.4,5.8c-0.2,1.9-0.5,3.5-0.9,4.9c-0.4,1.4-0.8,2.6-1.4,3.4
			c-0.5,0.9-1.1,1.3-1.8,1.3c-0.6,0.1-1.1,0-1.6-0.3c-0.5-0.2-0.9-0.6-1.4-1.2c-0.4-0.6-0.8-1.6-1.1-2.9c-0.4-1.2-0.6-3.3-0.8-6.3
			c-0.1-3-0.2-6.1-0.2-9.6s0.1-6.8,0.3-10.2c0.2-3.3,0.5-6,0.9-7.9c-1-1.6-2-3.5-2.7-5.8c-0.8-2.2-1.4-4.4-1.9-6.5
			c-0.6-2.5-1.1-5-1.6-7.6c-0.5-2.1-0.8-4.2-1.1-6.4c-0.2-2.1-0.5-4.2-0.6-6.1c-0.2-2.2-0.3-4.1-0.4-5.6c-0.1-1.6-0.1-2.9-0.1-3.9
			v-3c0.1-0.8,0.2-1.5,0.4-2.1c0.2-0.6,0.5-0.9,0.9-0.9c1-0.2,1.9,0.5,2.4,2.1c0.6,1.5,1,4.1,1.3,7.6c0.1,1.6,0.3,3.3,0.6,5
			c0.3,3.1,0.8,6.8,1.6,11c0.6,2.9,1.1,5.5,1.6,8c0.5,2.2,0.9,4.3,1.3,6.3c0.4,2,0.8,3.5,1.1,4.4c0.2-1.2,0.4-2.4,0.7-3.4
			c0.2-1,0.4-1.9,0.6-2.8c0.2-0.9,0.5-1.6,0.6-2.2c0.6-2.5,1.2-5.1,1.9-7.9c0.7-2.8,1.4-5.4,2.1-7.8c0.8-2.8,1.5-5.5,2.3-8.3
			c0.2-1.1,0.5-2.2,0.9-3.3c0.3-1,0.6-2,0.9-3.1c0.3-1.1,0.6-2.2,1-3.2c0.1-0.1,0.2-0.3,0.3-0.6c0.1-0.2,0.2-0.4,0.3-0.6
			c0.1-0.2,0.2-0.5,0.4-0.8c0.4-0.5,0.8-0.9,1.2-1.2c0.4-0.3,1-0.5,1.8-0.4c1.9,0.3,3.2,1,3.9,2.1c0.3,0.8,0.4,1.7,0.4,2.9
			c-0.1,0.8-0.2,1.6-0.4,2.4c-0.2,0.8-0.4,1.6-0.5,2.6c-0.1,1-0.4,2.2-0.6,3.5c-0.6,2.9-1.2,5.7-1.9,8.4c-0.6,2.5-1.2,5.1-2,7.8
			c-0.8,2.7-1.7,5.3-2.7,7.8l-1.4,3.6c-0.5,1-1,2.3-1.7,3.6C323.6,342.6,322.8,344,322,345.5z"/>
		<path fill="#DD1E3A" d="M350.6,379.6c2.3-0.2,4.3-1.5,6.2-3.9c1.8-2.4,2.8-5.9,2.9-10.6c-0.1-2.7-0.4-5.1-1-7.1
			c-0.6-2.1-1.3-4.1-2.3-6c-1-1.9-2.1-3.8-3.6-5.6c-1.4-1.9-3.1-3.9-4.9-6.1c-3.1-3.6-5.1-6.6-6.3-9.1s-1.8-4-2-4.8
			c-1-3.2-1.4-6.2-1.4-8.9c0-2.7,0.3-5,0.8-7c0.5-2.3,1.2-4.4,2.1-6.3c0.8-1.4,1.7-2.7,2.9-3.9c1-1,2.3-2,3.9-2.7
			c1.5-0.8,3.4-1.2,5.6-1.3c1.2,0,2.5,0.2,3.7,0.6c1,0.3,2.2,0.7,3.3,1.4c1.2,0.6,2.2,1.6,3.2,2.8c0.6,0.7,1.1,1.5,1.5,2.6
			c0.4,0.9,0.7,1.9,1.1,3.1c0.3,1.2,0.6,2.6,0.8,4.1c0,0.3,0,0.6,0,1c0,0.4,0,0.8-0.1,1.3c0,1.1-0.2,2.3-0.7,3.5
			c-0.4,1.2-1.3,1.6-2.7,1.4c-1-0.4-1.6-1-1.9-1.7c-0.3-1-0.3-2.2,0.1-3.7c0.3-1.5,0.4-3.2,0.1-5c-0.2-1.2-0.6-2.3-1.1-3.1
			c-0.5-0.8-1.1-1.5-1.7-1.9c-0.7-0.6-1.4-1-2.1-1.3c-1-0.4-1.9-0.5-2.6-0.4c-0.7,0.1-1.3,0.2-1.8,0.4c-0.9,0.3-1.8,1-2.8,2.2
			c-1,1.2-1.7,3.3-2.1,6.2c-0.1,0.6-0.2,1.5-0.4,2.6c-0.1,1.2-0.2,2.5-0.1,3.9c0,1.4,0.2,2.9,0.5,4.5c0.3,1.6,0.8,3.1,1.6,4.5
			c0.6,1.3,1.5,3.1,2.9,5.2c1.3,2.1,3.2,4.7,5.7,7.8c2.5,3.1,4.5,5.6,5.9,7.7c0.4,0.7,0.9,1.6,1.6,2.9c0.7,1.2,1.3,2.7,1.9,4.4
			c0.6,1.7,1,3.7,1.4,5.9c0.3,2.2,0.4,4.6,0.2,7.1c-0.1,2-0.5,4-1.1,5.9c-0.6,1.6-1.4,3.3-2.6,5.1c-1.1,1.8-2.7,3.4-4.6,4.7
			c-1.2,0.8-2.6,1.3-4.1,1.7c-1.3,0.4-2.9,0.6-4.6,0.7c-1.8,0.1-3.7-0.2-5.9-0.9c-1.7-0.5-3.2-1.2-4.5-2.1c-1.3-1-2.4-2-3.2-3
			c-1-1.1-1.9-2.4-2.4-3.9c-1-1.6-1.5-3.4-1.8-5.3c-0.2-1.9-0.4-3.7-0.4-5.3c0-1.8,0.1-3.6,0.4-5.4c0.4-2.1,0.9-3.9,1.6-5.4
			c0.7-1.5,1.4-2.8,2.2-3.9c0.9-1.1,1.8-2.2,2.7-3.1c0.7-0.5,1.3-0.8,2-0.9c0.7-0.1,1.2,0.2,1.7,1c0.4,0.9,0.5,1.6,0.3,2.2
			c-0.2,0.6-0.6,1.2-1.1,1.8c-0.6,0.6-1.2,1.2-2,1.9c-0.8,0.7-1.5,1.5-2.1,2.4c-0.4,0.6-0.7,1.3-1,2.1c-0.3,0.8-0.5,1.6-0.7,2.6
			c-0.2,1-0.3,2.1-0.3,3.3c0,1.1,0.1,2.3,0.3,3.6c0.2,1,0.5,2.2,0.8,3.5s0.9,2.5,1.6,3.6c0.8,1.1,1.7,2.2,2.7,3.1
			c0.9,0.8,1.9,1.5,3.3,2.1C347.2,379.5,348.8,379.7,350.6,379.6z"/>
	</g>
	<g>
		<path fill="#DC202C" d="M66.7,85.6c-0.6-9.5-1.5-19.4-2-29.4c-0.2-3.1-0.1-6.4,0.2-9.9c0.2-2.5,0.6-2.9,3.4-3.5
			c0.6-0.2,1.4-0.3,2.1-0.4c3.4-0.2,4.2,0.5,4.2,3.5c0.1,3.8,0.2,7.2,0.4,10.8c1,14,1.8,28.1,3.8,42.2c0.2,1.6,0.5,3.1,1,4.5
			c0.4,1.6,0.4,1.6,1.9,1.1c5.4-1.8,10.4-3.5,15.8-5.3c4-1.3,8.1-2.3,12.1-3.4c1.1-0.3,1.4-0.8,1.4-1.8c-0.2-5.7-0.2-11.7-0.2-17.2
			c0-6.9,0-13.8,0.2-20.9c0-4.1,0.2-8.2,0.3-12.5c0.1-2,0.4-3.8,1-5.5c0.6-2.2,4.9-3.4,6.8-2c0.5,0.4,0.8,1.4,0.9,2
			c0.1,2.6,0.3,5.4,0.4,8c0.3,9.5,0.4,19,0.7,28.5c0.4,16.1,1.4,31.7,3.1,47.3c1.1,10.7,2.3,21.3,3.6,31.7c0.2,1.6,0.6,3.4,0.8,5
			c0.2,1.6-0.2,2.2-2,2.5c-0.2,0-0.3,0-0.6,0.1c-3.5,0.7-4.2,0.3-4.9-2.7c-1.4-6.6-2.7-13-4.3-19.4c-2.3-10.8-3.7-21.8-4.8-32.7
			c-0.2-1.9-0.3-3.7-0.5-5.5c-0.2-1.6-0.4-1.6-2-1.3c-5.4,1.9-10.7,3.7-15.9,5.7c-3.5,1.2-7.5,2.2-11.1,3.4
			c-1.7,0.5-1.7,0.5-1.4,2.1c1.2,7.1,2.5,14.2,3.8,21.4c0.8,4,1.6,8.2,2.4,12.2c0.1,1.1,0.7,1.9,1.3,3c1.2,1.8,1.1,4,0.7,6.2
			c0,0.2-0.1,0.3-0.3,0.5c-1.3,1.3-3,1.2-4.6,1.4c-1.3,0-2.5-0.5-2.9-2c-0.8-2.5-1.6-5.2-2.4-7.9C73.7,124.6,68.6,107.8,66.7,85.6z"
			/>
		<path fill="#DC202C" d="M134.4,106.4c-1-9.9,0-23.4,2.9-36.7c1.5-6.9,3.5-13.7,6.9-20c1.5-2.8,3.2-5.3,5.4-7.1
			c2.5-2.1,5.6-3.1,8.7-1.4c0.7,0.4,1.7,0.3,2.5,0.2c5-0.9,10.1-1,15.1-0.3c2.9,0.5,5.3,1.7,7.3,3.7c3.9,3.7,6.2,8.3,7.7,13.4
			c3.9,13.4,4.1,26.8,2.3,40.4c-1,6.7-2,13.4-3.7,20c-1.7,7.9-4.6,15.5-9.4,22.3c-1.7,2.3-3.4,4.4-5.5,6.2c-5.7,4.9-15.5,5.1-22,0.6
			c-4.7-3.2-7.9-7.5-10.5-12.6c-3.9-7.9-6.2-16.4-7.7-28.7L134.4,106.4z M148.9,120.4c1.4,5.9,3.5,11.6,6.6,16.8
			c1.9,3.2,4.2,6.1,7.5,8.2c1.8,0.9,3.2,0.9,5.1-0.3c3.8-2.9,6.5-6.5,8.6-10.6c4.1-7.4,6.4-15.6,7.7-23.8
			c2.6-15.3,3.3-30.3,0.1-45.6c-1-4.3-2.2-8.8-4.6-12.6c-3.3-5.9-8.2-9.2-15.2-8.7c-1.5,0.2-2.9,0.2-4.1,1.1
			c-0.8,0.3-1.9,0.4-2.8,0.3c-1.2-0.2-1.6,0.2-2,1.2c-1.8,5.3-3.7,10.3-5.2,15.6c-1.9,7.3-3,14.8-3.6,22.5
			c-0.6,6.2-0.8,12.4-0.6,18.7C146.7,108.9,147.4,114.8,148.9,120.4z"/>
		<path fill="#DC202C" d="M200.7,82.4c-0.7-7.3-1.2-15.8-1.4-24.3c0-4.4,0.3-8.9,0.6-13.4c0.3-3.3,1-3.9,4.1-4.3
			c0.3,0,0.6-0.1,1-0.1c2.5-0.1,3.7,0.7,4,3.3c0.4,3.1,0.6,6.3,0.8,9.4c0.4,4.9,0.7,9.8,0.9,14.9c0,0.3,0.3,0.8,0.5,1.3
			c0.1-0.3,0.4-0.7,0.5-1c1.6-4.5,3.2-8.9,5-13.3c2.1-4.8,4.8-9.1,8.5-12.8c2.5-2.6,5.4-3.4,8.5-3.3c2.3,0.1,3.9,1.3,5.2,3.3
			c2.3,4,3.3,8.2,3.9,12.4c1.5,9.7,2.8,19.2,4,28.8c0.1,1,0.4,1.9,0.5,2.9c0.2-0.8,0.6-1.7,0.8-2.6c1.6-8.7,3.4-17.3,6.5-25.6
			c1.7-3.8,3.5-7.7,5.6-11.5c0.8-1.6,2.3-3.1,3.6-4.7c1.8-2.7,4.4-3.5,7.6-3.7c2.6,0,4.6,1.3,5.5,3.6c1.1,2,2,4.2,2.4,6.5
			c1.2,6.3,1.5,12.8,1.8,19.4c0.3,8,0.4,15.9,0.8,23.9c0.4,10.8,0.9,21.6,1.3,32.4c0,1.6,0.1,3.3,0.1,4.8c-0.1,2-0.5,2.7-2.4,3.1
			c-0.3,0-0.6,0.1-1,0.1c-4.4,0.5-4.9,0.1-5.4-4.3c-1.4-12.2-2.9-24.3-4-36.5c-0.5-7.3-0.3-14.9-0.3-22.5c0-7.1-0.2-14-1.2-21.1
			c-0.1-0.6-0.2-1.3-0.4-1.9c-0.6,0.4-1.4,0.8-1.8,1.4c-1.5,2.6-3.3,5.2-4.8,8c-4.6,8.8-7.2,18.4-8.9,28.2
			c-1.7,8.9-2.8,17.9-3.3,26.9c-0.1,2.1,0.3,4.2,0.4,6.2c0.1,2.5,0.1,4.8,0,7.2c0.1,0.6,0.2,1.5-0.1,1.8c-1.6,1.5-3.6,1.4-5.6,1.3
			c-1.7-0.1-2.4-1.2-2.8-2.6c-0.4-1.9-0.9-3.7-1.2-5.6c-1.2-11.7-2.4-23.4-3.6-35.1c-1-9.6-1.9-19.2-3.1-28.9
			c-0.3-2.4-1.1-5-1.9-7.3c-0.5-1.7-1-1.9-2.2-0.6c-3.2,3.7-5.6,7.9-7.6,12.2c-4.4,9.9-7.1,20.4-8.3,31.4c-0.2,1-0.2,2.2-0.1,3.3
			c1,6.8,1.9,13.6,3,20.2c1,5.8,2,11.6,3,17.4c0.7,3.5,0.8,7.1,2.5,10.4c0.5,1.1-0.1,1.8-1,2.4c-2.9,1.7-6.5,0.8-7.8-2.4
			c-1.7-4.4-3.2-8.8-4.7-13.3C204.4,114.5,203.3,98,200.7,82.4z"/>
		<path fill="#DC202C" d="M294.4,69.4c1-12.1,3.4-24.1,6.3-36.1c0.1-0.5,0.2-0.8,0.3-1.4c0.8-3.2,2.4-5,5.8-5.6
			c2.7-0.6,5.2-1.9,7.8-2.6c4-1.3,7.8-2.2,11.8-3c0.9-0.4,2.1-0.2,3.1,0c0.5,0.1,1.2,0.7,1.5,1.3c0.4,0.9-0.5,1.5-1.4,2
			c-0.2,0-0.3,0-0.5,0.1c-5.8,1.2-10.9,3.8-16.3,5.7c-1.4,0.5-2,1.4-2.1,2.7c-1.3,11.5-2.9,22.9-4.3,34.4c-0.6,3.7-0.6,7.3-0.8,11
			c-0.1,0.7,0.2,1.5,0.2,2.1c0.6-0.2,1.4-0.5,2.1-0.7c2.3-1.3,4.5-2.5,6.7-3.6c1.6-0.5,3.5-0.7,5.2-0.8c1.3,0,1.8,1.4,0.8,2.7
			c-0.8,0.6-1.3,1.3-1.9,1.7c-4,2.3-8,4.6-12,6.7c-1.1,0.5-1.3,1.1-1.2,2c0.1,3.6-0.3,7.4,0.1,11c0.8,6.7,1.9,13.3,3.2,19.9
			c0.5,2.6,1.4,4.9,2.5,7.3c1.2,3,3.2,3.6,6.4,2.7c5.7-1.8,10.5-4.7,13.7-9.7c1.3-1.8,2.8-2.8,5.3-2.8c2,0.1,2.9,1,2.3,2.9
			c-0.4,1.9-1.4,3.8-2.7,5.2c-3.9,4.6-9,7.5-14.9,9c-3.3,1-6.7,1.6-10.2,1.4c-6.8-0.2-10.4-2.9-12.4-9.2
			C292.4,107.3,292.3,88.4,294.4,69.4z"/>
	</g>
	<g>
		<g>
			<path fill="#768A38" d="M148.8,209.3c0.5-1.2,1.1-2.2,2-3.2c0.6-0.8,1.5-1.5,2.5-2.2c1.1-0.7,2.3-1,3.7-1
				c1.2-0.1,2.1,0.1,2.9,0.4c0.8,0.4,1.4,0.7,1.9,1.1c0.9,0.9,0.9,1.8,0,2.7c-2.7,2.7-4.8,6-6.1,9.8c-1.4,3.8-1.7,8.8-1,15
				c0.2,0.9-0.2,1.6-1.1,2c-0.9,0.4-1.6,0.3-2.2-0.3c-0.7-0.7-1.4-1.6-2-2.7c-0.7-1.1-1.2-2.6-1.5-4.3c-0.4-2.3-0.6-4.2-0.8-6
				c-0.1-1.7-0.1-3.2,0.1-4.6c-2.3,2-4.5,4.7-6.7,7.9c-2.2,3.3-3.8,7.4-4.8,12.4c-0.9,8.5-1.4,17.2-1.6,26.1
				c-0.2,8.9,0,17.7,0.7,26.5c0.1,1.1-0.2,2.1-0.7,3.2c-0.5,1-1.3,1.8-2.3,2.3c-1.2,0.5-2.4,0.7-3.8,0.6c-1.4-0.2-2.6-0.7-3.7-1.5
				c-0.5-0.4-1-0.9-1.3-1.4c-0.4-0.5-0.6-1.2-0.6-1.9c-0.2-2.1-0.3-5.7-0.3-10.9c0-5.2,0.1-11.6,0.5-19.1c0.4-7.6,1.1-16.1,2.1-25.7
				c1-9.6,2.5-19.9,4.6-30.9c-4.1,4.1-9.2,7.9-15.3,11.5c-2.2,1.3-4.6,2.5-7.4,3.6c-2.3,0.9-5.2,1.8-8.5,2.7
				c-3.4,0.9-7.1,1.4-11.3,1.5c-2.5,0.2-4.9,0-7.2-0.5c-2.3-0.5-4.4-1.3-6.3-2.3c-1.9-1.1-3.4-2.4-4.7-4c-1.3-1.6-2.2-3.5-2.6-5.7
				c-0.7-4-0.3-7.9,1.3-11.7c0.7-1.6,1.7-3.3,2.9-5c1.2-1.7,2.8-3.4,4.9-5.1c2.1-1.7,4.6-3.3,7.5-4.9c2.9-1.6,6.4-3,10.5-4.2
				c2.8-0.8,6-1.6,9.7-2.5c3.1-0.7,6.8-1.4,11.2-2.2c4.3-0.8,9.2-1.5,14.5-2.1c1.4-0.2,3.1-0.3,5-0.5c1.9-0.2,3.8-0.3,5.6-0.5
				c2-0.2,4.1-0.3,6.3-0.4c6.7-0.4,12.5-0.9,17.4-1.6s9.1-1.7,12.6-2.9c3.5-1.2,6.3-2.8,8.5-4.6c2.2-1.8,3.9-4.1,5.1-6.8
				c0.2-0.5,0.6-0.8,1.1-1c0.5-0.2,1-0.2,1.5,0.1c0.6,0.3,1.2,0.7,1.8,1.3c0.6,0.5,1.1,1.4,1.5,2.5c0.6,1.7,0.7,3.4,0.2,5.1
				c-0.5,1.7-1.5,3.2-2.9,4.4c-1,0.9-2.4,1.8-4.1,2.7c-1.7,1-3.8,1.9-6.3,2.7c-2.5,0.9-5.5,1.6-8.9,2.2c-3.5,0.6-7.5,1.1-12,1.3
				c-2.5,0.2-5,0.3-7.4,0.4c-2.5,0.1-5,0.2-7.5,0.2c-0.3,1.4-0.8,3.4-1.3,6.1c-0.6,2.6-1.2,5.8-2,9.6c-0.7,3.7-1.5,7.9-2.3,12.6
				c-0.8,4.6-1.6,9.6-2.3,14.9c1.5-2.2,3.2-4.3,5.1-6.3C144.4,212.3,146.5,210.7,148.8,209.3z M91.6,217.4c3.7-0.7,7.3-1.8,10.8-3.2
				c3.5-1.4,6.7-3.2,9.8-5.3c3.1-2.1,5.9-4.3,8.4-6.8c2.5-2.5,4.7-5.1,6.5-7.9c1.8-2.6,3.3-5.3,4.4-8c1.2-2.7,2.1-5.4,2.8-8.1
				c-2.7,0.2-5.4,0.5-8.1,0.7c-2.7,0.2-5.4,0.5-8,0.8c-5.9,0.8-11.2,1.7-15.8,2.6c-4.6,1-8.2,1.9-10.9,2.7
				c-4.7,1.3-8.7,3.2-12.2,5.5c-1.5,1-2.9,2.2-4.2,3.4c-1.3,1.3-2.4,2.7-3.3,4.3c-0.9,1.6-1.5,3.4-1.8,5.3c-0.4,1.9-0.3,4.1,0.3,6.4
				c0.5,2,1.4,3.6,2.7,4.8c1.4,1.2,3,2.1,5,2.6c1.9,0.5,4.1,0.8,6.4,0.8C86.9,218.1,89.3,217.9,91.6,217.4z"/>
			<path fill="#768A38" d="M195.5,243.6c0.2,0.4,0.2,0.8,0.2,1.2c0,0.9-0.4,1.7-1.3,2.5c-1.4,1.3-2.8,2.4-4.2,3.3
				c-1.4,0.9-2.8,1.6-4.1,2.1c-0.2,4.4-0.8,7.9-2,10.3c-1.2,2.5-2.4,4.3-3.7,5.7c-1.6,1.5-3.3,2.5-5.3,2.9c-3.3,0.5-6.1,0.1-8.4-1
				c-2.3-1.1-4.2-2.7-5.7-4.7c-1.5-2-2.5-4.2-3.1-6.5c-0.6-2.4-0.8-4.6-0.5-6.7c0.4-3.3,1.3-5.9,2.7-7.9c1.4-2,2.5-3.3,3.3-4
				c-0.2-1.8-0.2-3.5,0.2-5.1c0.4-1.6,0.9-3,1.7-4.2c0.8-1.2,1.7-2.2,2.8-2.9c1.1-0.7,2.2-1.1,3.3-1.1c1.5,0,3.1,0.4,4.7,1.2
				c1.7,0.8,3.2,2,4.7,3.7c1.4,1.7,2.7,3.9,3.7,6.5c1,2.7,1.6,5.9,1.8,9.6c1.6-0.6,3.1-1.4,4.3-2.3c1.2-0.9,2.2-1.8,3-2.7
				c0.2-0.2,0.4-0.4,0.7-0.5C194.7,242.8,195.1,243,195.5,243.6z M173.9,266.6c1-0.2,1.9-0.8,2.6-1.8c0.7-1,1.3-2.1,1.8-3.3
				c0.5-1.2,0.8-2.6,1.1-3.9c0.2-1.4,0.4-2.6,0.5-3.7c-2.3,0.1-4.4-0.2-6.1-0.9c-1.7-0.7-3-1.3-3.7-1.8c-0.2,0.5-0.3,1.1-0.4,1.8
				c-0.1,0.6-0.2,1.3-0.2,2c-0.4,2.7-0.4,4.9,0.1,6.4c0.5,1.6,1,2.7,1.6,3.5C172,265.7,172.9,266.3,173.9,266.6z M171.6,237.7
				c-0.5,0.2-0.8,0.6-1.1,1c-0.3,0.4-0.5,0.9-0.6,1.3c0.5,0.2,1.1,0.3,1.5,0.5c0.5,0.2,0.9,0.4,1.3,0.6c0.4,0.2,0.7,0.6,0.8,1.2
				c0.2,0.5,0,1-0.4,1.4c-0.5,0.6-0.9,1.5-1.4,2.6c0.5,0.5,1,0.9,1.5,1.2c0.5,0.3,1.1,0.5,1.5,0.7c0.5,0.2,1.1,0.4,1.5,0.6
				c0.7,0.2,1.4,0.4,2,0.5c0.6,0.1,1.2,0.2,1.9,0.2c-0.2-2.5-0.6-4.6-1.2-6.4c-0.7-1.8-1.5-3.1-2.5-4c-0.5-0.5-1.1-0.9-1.6-1.2
				c-0.5-0.2-1-0.4-1.5-0.5C172.6,237.3,172.1,237.4,171.6,237.7z"/>
			<path fill="#768A38" d="M196.2,223.9c0.4,0.7,1.1,1.6,2,2.6c0.9,1.1,2.5,2,4.8,2.9c0.2,0.1,0.6,0.3,1.4,0.6
				c0.8,0.4,1.7,0.8,2.8,1.5c0.7,0.4,1.4,0.8,2.2,1.3c0.7,0.5,1.4,1,1.9,1.7c0.5,0.7,0.9,1.5,1.1,2.4c0.2,0.9,0.1,2-0.2,3.3
				c-1.6,4.8-2.1,8.8-1.8,11.9c0.4,3.1,1.4,4.8,2.9,5c1,0.2,2-0.3,3-1.3c1-1,1.9-2.2,2.8-3.7c0.9-1.4,1.7-2.9,2.3-4.5
				c0.7-1.6,1.1-2.8,1.5-3.7c0.3-0.7,0.8-0.9,1.4-0.5c0.1,0.1,0.3,0.2,0.6,0.4c0.7,0.7,0.9,1.5,0.7,2.3c-0.2,1.1-0.7,2.6-1.4,4.6
				c-0.7,2-1.7,4-2.9,5.9c-1.2,1.9-2.7,3.6-4.5,5.1c-1.8,1.4-3.8,2.1-6.1,2c-2.7-0.1-4.9-0.9-6.7-2.6c-1.7-1.6-2.9-3.8-3.6-6.6
				c-0.7-2.8-0.9-6-0.6-9.7c0.3-3.7,1-7.7,2.3-12c-0.6,0-1.3,0-1.9-0.1c-0.7,0-1.3-0.1-1.9-0.2c0,2.8-0.3,5.4-0.9,7.8
				c-0.6,2.4-1.1,4.1-1.6,5.3c-0.4,0.9-1.1,1.4-2,1.5h-0.7c-0.3,0-0.6-0.1-0.8-0.4c-0.2-0.2-0.2-0.5-0.1-0.8
				c0.5-1.6,0.9-3.6,1.3-6.3c0.4-2.6,0.5-5.2,0.4-7.7c-2.1-0.3-3.6-1.1-4.4-2.2c-0.8-1.2-1.2-2.5-1.2-3.9s0.3-2.7,0.8-3.9
				c0.5-1.2,1-2,1.6-2.4l0.7-0.4c0.2-0.1,0.5-0.2,0.9-0.2c0.4-0.1,0.7-0.1,1.1,0c0.6,0.2,1.1,0.4,1.5,0.9c0.4,0.4,0.6,0.9,0.8,1.4
				c0.2,0.5,0.3,1,0.4,1.4C195.9,223.4,196.1,223.7,196.2,223.9z"/>
		</g>
		<g>
			<path fill="#768A38" d="M272.5,169.4c0.2,0.2,0.3,0.5,0.5,0.8c0.2,0.5,0.3,1.2,0.1,2.2c-0.5,2.4-1.1,5.7-1.8,10
				c-0.7,4.2-1.4,9.2-2,14.7c-0.7,5.6-1.3,11.7-1.9,18.4c-0.6,6.7-1,13.7-1.2,21c-0.2,7.3-0.2,14.7,0.1,22.3
				c0.3,7.6,0.9,15.1,1.9,22.5c0.2,1.1,0,2.1-0.5,3.1c-0.5,1-1.3,1.7-2.3,2.3c-1.1,0.6-2.3,0.8-3.7,0.6c-1.4-0.2-2.6-0.7-3.7-1.6
				c-0.5-0.4-1-0.9-1.4-1.4c-0.4-0.5-0.7-1.2-0.8-1.9c-0.2-1.7-0.4-4.4-0.7-8c-0.3-3.6-0.6-8-0.8-13.3c-0.2-5.2-0.3-11.2-0.3-17.9
				c0-6.7,0.2-14,0.7-21.8c0.5-7.8,1.2-16.2,2.3-25c1.1-8.8,2.6-18,4.4-27.5h-6.8c-0.9,3-2.2,6.2-3.8,9.4c-1.6,3.2-3.6,6.4-6.1,9.6
				c-2.5,3.2-5.5,6.2-8.9,9.2c-3.5,3-7.6,5.7-12.3,8.2c-2.2,1.2-4.6,2.3-7.4,3.3c-2.3,0.9-5.2,1.6-8.5,2.3c-3.4,0.7-7.1,1-11.3,1
				c-2.5,0-4.9-0.3-7.2-0.9c-2.3-0.6-4.4-1.5-6.3-2.6c-1.9-1.2-3.4-2.6-4.7-4.3c-1.3-1.7-2.2-3.6-2.6-5.8c-0.8-4-0.4-7.9,1.2-11.7
				c0.6-1.6,1.6-3.2,2.8-4.8c1.2-1.7,2.9-3.3,4.8-4.9c2-1.6,4.4-3.1,7.4-4.6c2.9-1.4,6.4-2.7,10.5-3.8c2.8-0.9,6.3-1.7,10.5-2.4
				c3.5-0.6,7.9-1.2,13.3-1.7c5.4-0.5,11.7-0.9,19-1c0.7-4.7,0.8-8.8,0.2-12.5c-0.6-3.7-1.6-6.3-3.1-7.9c-0.5-0.5-0.6-1.1-0.4-1.8
				c0.2-0.7,0.6-1.1,1.2-1.5c1-0.3,2.1-0.6,3.2-0.8c1.1-0.2,2.3-0.3,3.4-0.1c1.1,0.2,2.2,0.6,3.3,1.2c1.1,0.6,1.9,1.6,2.6,2.8
				c0.3,0.5,0.6,1.2,0.9,2c0.3,0.9,0.5,1.7,0.6,2.4c0.2,1.3,0.2,3.4,0.2,6.2c0,2.8-0.4,6.1-1.2,9.8c3.1,0.1,6.3,0.2,9.6,0.3
				c3.3,0.1,6.8,0.3,10.5,0.5c10,0.6,18.5,1,25.5,1.1c6.9,0.1,12.7-0.2,17.4-1.1c4.7-0.8,8.4-2.3,11.2-4.3c2.8-2,5-4.8,6.8-8.4
				c0.2-0.5,0.6-0.8,1.1-0.9c0.5-0.2,0.9-0.1,1.4,0.2c0.6,0.3,1.2,0.8,1.8,1.4c0.6,0.6,1.1,1.5,1.5,2.6c0.6,1.7,0.7,3.4,0.1,5.1
				c-0.5,1.7-1.5,3.1-2.9,4.2c-1.1,0.9-2.5,1.7-4.1,2.6c-1.7,0.8-3.8,1.6-6.3,2.3c-2.5,0.7-5.5,1.2-8.9,1.5
				c-3.4,0.4-7.4,0.4-11.9,0.3c-5.5-0.2-11.3-0.4-17.5-0.7C284.9,169.9,278.7,169.6,272.5,169.4z M236.7,184.9
				c1.7-2.6,3.2-5.2,4.3-7.9c1.2-2.7,2.1-5.4,2.8-8c-2.7,0.1-5.4,0.2-8.1,0.2c-2.6,0.1-5.3,0.2-7.9,0.4c-5.8,0.4-11.1,1-15.7,1.9
				c-4.6,0.9-8.2,1.6-10.9,2.3c-4.7,1.2-8.7,3-12.2,5.1c-1.5,0.9-2.9,2-4.2,3.3c-1.3,1.2-2.4,2.7-3.3,4.3c-0.9,1.6-1.5,3.4-1.8,5.3
				c-0.4,1.9-0.3,4.1,0.3,6.4c0.5,2,1.4,3.7,2.7,4.9c1.4,1.2,3,2.2,5,2.8c1.9,0.6,4.1,1,6.4,1.1c2.3,0.1,4.7,0,7.1-0.4
				c3.7-0.5,7.2-1.5,10.7-2.8c3.5-1.3,6.7-2.9,9.8-4.8c3-1.9,5.8-4,8.4-6.4C232.8,190.2,234.9,187.6,236.7,184.9z"/>
			<path fill="#768A38" d="M307.1,224c-0.4-0.2-0.7-0.3-0.9-0.2l-0.5,0.2c-0.9,0.8-1.8,1.9-2.6,3.4c-0.8,1.5-1.6,3.2-2.2,5.1
				c-0.7,1.9-1.3,4-1.9,6.2c-0.6,2.2-1.1,4.4-1.6,6.5c-1.1,5.1-2,10.7-2.7,16.6h-0.1c0.2,1.7-0.6,2.8-2.3,3.4
				c-1.1,0.3-2.1,0.3-3-0.1c-0.9-0.4-1.6-0.8-2.2-1.2c-0.7-0.5-1.1-1.2-1.3-2.1c-0.2-1.1-0.4-2.9-0.6-5.4c-0.3-2.5-0.5-5.7-0.6-9.6
				c-0.1-3.9-0.1-8.5,0.1-13.7c0.2-5.3,0.7-11.2,1.5-17.8c-4.4-0.5-9-1.6-13.7-3.4c-2.9-1.2-5.4-2.6-7.6-4c-1.9-1.2-3.6-2.7-5.1-4.4
				c-1.5-1.7-2.2-3.5-2-5.4c0.1-1.2,0.4-2.3,1.1-3c0.7-0.8,1.5-1.3,2.4-1.7c0.9-0.4,1.9-0.5,3-0.6c1.1,0,2,0,2.9,0.1
				c0.7,0.1,1.3,0.4,1.8,0.9c0.5,0.5,0.7,1.2,0.6,2c-0.2,1.1-0.1,2.4,0.2,3.9c0.3,1.5,1,3,2.2,4.4c1.2,1.4,2.9,2.7,5.3,3.9
				c2.3,1.2,5.6,1.9,9.7,2.2c0.4-2.8,0.8-5.7,1.3-8.8s1-6.2,1.6-9.5c2.3-11.6,5.3-21.4,9.1-29.4c3.8-8,8-14.3,12.5-19
				c4.5-4.7,9.1-7.9,13.8-9.5c4.7-1.6,9-1.8,13-0.6c2.6,0.8,4.9,2.2,6.8,4.3c1.9,2.1,3.3,4.7,4.3,7.7c1,3,1.5,6.4,1.7,10.2
				c0.2,3.7-0.2,7.6-0.9,11.5c-0.8,3.9-2,7.9-3.7,11.8c-1.7,3.9-3.9,7.7-6.7,11.2c-5.5,7.2-12,13-19.5,17.4
				c-7.4,4.4-15.3,7.1-23.7,7.8c-0.4,2.3-0.8,5.5-1.2,9.6c-0.4,4.2-0.7,9.1-0.8,14.9c0.5-2.6,1.2-5.2,2.1-7.8c0.9-2.6,1.8-5,3-7.2
				c1.1-2.1,2.4-4,3.9-5.4c1.5-1.5,3.1-2.3,4.9-2.6c1-0.2,2-0.2,3,0c0.9,0.2,1.8,0.5,2.7,1c0.9,0.5,1.8,1.4,2.5,2.6
				c1.1,1.9,1.7,4.1,1.8,6.5c0.1,2.4,0.1,4.8-0.2,7.1c-0.1,0.8-0.2,1.6-0.2,2.3c-0.1,0.6-0.2,1.3-0.3,2c-0.1,0.7-0.2,1.4-0.3,2
				c-0.2,1.7-0.4,3.3-0.6,4.8c-0.2,1.5-0.2,2.9-0.1,4.1c0.1,1.2,0.2,2.2,0.5,2.9c0.2,0.7,0.6,1.1,1.2,1.2c1,0.2,2-0.5,3.1-1.9
				c1.1-1.4,2-3.2,3-5.1c0.9-2,1.8-4,2.5-6c0.7-2,1.3-3.5,1.6-4.4c0.1-0.3,0.3-0.5,0.5-0.6c0.3-0.1,0.5,0,0.8,0.1
				c0.3,0.2,0.5,0.3,0.6,0.4c0.7,0.6,0.9,1.4,0.7,2.3c-0.2,0.7-0.4,1.8-0.8,3.2c-0.4,1.4-0.9,2.9-1.5,4.6c-0.6,1.7-1.4,3.4-2.2,5.1
				c-0.9,1.7-1.8,3.3-2.9,4.7c-1.1,1.4-2.3,2.6-3.6,3.4c-1.3,0.9-2.8,1.2-4.3,1.2c-2.3-0.1-4.1-1-5.6-2.7c-1.5-1.7-2.6-4-3.3-7
				c-0.7-2.9-1-6.4-0.9-10.3c0.1-4,0.6-8.3,1.5-13C307.6,225.8,307.5,224.5,307.1,224z M297.3,210.3c5.5-0.7,10.6-2.2,15.3-4.4
				c4.8-2.3,9-5,12.9-8.2c3.8-3.2,7.1-6.8,9.9-10.7c2.8-3.9,4.9-7.8,6.4-11.7c1.6-4.3,2.6-8.5,3-12.7c0.4-4.2,0.3-8-0.3-11.5
				c-0.6-3.4-1.6-6.3-3-8.6c-1.4-2.3-3.2-3.7-5.2-4.2c-1.3-0.3-3-0.3-4.9,0.2c-1.9,0.4-4.1,1.5-6.3,3.3c-2.3,1.8-4.6,4.3-7.1,7.6
				c-2.5,3.3-4.9,7.7-7.3,13.1c-2.4,5.5-4.8,12.1-7.1,20C301.2,190.2,299.1,199.5,297.3,210.3z"/>
			<path fill="#768A38" d="M357.8,236.2c0.7,0.5,1,1.3,0.8,2.3c-0.2,1.1-0.7,2.8-1.5,5.3c-0.7,2.4-1.7,4.9-3,7.4
				c-1.2,2.5-2.8,4.8-4.6,6.7c-1.8,1.9-4,2.9-6.4,2.9c-3.4,0.1-6.4-0.7-9-2.5c-1.1-0.7-2.1-1.7-3.1-2.9c-1-1.2-1.8-2.7-2.5-4.5
				c-0.7-1.8-1.2-3.9-1.5-6.4c-0.3-2.5-0.2-5.4,0.2-8.7c0.5-3.7,1.5-7.1,2.8-10c0.5-1.2,1.2-2.5,2-3.6c0.8-1.2,1.7-2.2,2.7-3.1
				c1-0.9,2.2-1.6,3.5-2.1c1.3-0.5,2.8-0.7,4.4-0.6c2.1,0.2,3.7,0.8,4.8,2c1.1,1.2,1.8,2.6,2,4.2c0.2,1.6,0.1,3.4-0.4,5.4
				c-0.5,1.9-1.3,3.8-2.5,5.5c-1.2,1.7-2.6,3.2-4.4,4.4c-1.8,1.2-3.7,1.9-5.8,2c0,1.2,0.1,2.7,0.3,4.5c0.2,1.8,0.6,3.4,1.2,5
				c0.6,1.6,1.4,2.8,2.6,3.8c1.1,1,2.7,1.3,4.6,1c0.9-0.2,2-1,3.1-2.5c1.1-1.5,2.2-3.3,3.2-5.2c1-1.9,1.9-3.9,2.7-5.8
				c0.8-1.9,1.4-3.3,1.7-4.3c0.1-0.3,0.3-0.5,0.5-0.6c0.3-0.1,0.5,0,0.8,0.1C357.5,236,357.7,236.1,357.8,236.2z M342.9,222.9
				c-0.2,0-0.4,0.1-0.9,0.3c-0.4,0.2-0.9,0.7-1.5,1.5c-0.5,0.8-1.1,2-1.8,3.6c-0.7,1.6-1.3,3.9-1.8,6.8c0.9-0.4,1.8-1,3-1.9
				c1.1-0.9,2.2-2.1,3.1-3.6c0.8-1.3,1.2-2.4,1.4-3.3c0.2-0.9,0.2-1.6,0-2.1c-0.2-0.5-0.4-0.9-0.7-1.1
				C343.5,222.9,343.2,222.8,342.9,222.9z"/>
		</g>
	</g>
	<g>
		<path fill="#768A38" d="M207.3,384.3c-1.4,0.3-3.4,1.6-4,2.7c-0.7,1.2-0.9,3-0.5,4.6c0.4,1.5,1.4,2.9,2.8,3.6
			c1,0.5,1.3,0.6,2.4,0.7c3.2,0.3,5.8-1.1,6.6-3.7c0.5-1.6,0.5-3.1,0-4.3c-0.3-0.7-1.2-1.8-1.8-2.2c-0.3-0.2-0.7-0.5-0.9-0.7
			c-0.6-0.5-1.7-0.8-2.9-0.8C208.4,384.2,207.6,384.2,207.3,384.3z"/>
		<path fill="#768A38" d="M106.1,386.2c-1.1,0.4-1.7,1.2-1.7,2.7c0,1.4,0.3,2.4,1.2,4.1l0.8,1.6l-2.2-0.1c-1.2,0-3.1-0.1-4.3-0.1
			l-2-0.1l-0.2-0.5c-0.1-0.3-0.4-0.8-0.7-1.2c-0.3-0.4-1-1.6-1.7-2.5c-1.3-2-2.3-3.1-3.3-3.6c-1.4-0.7-3-0.3-3.6,1
			c-0.3,0.6-0.4,1.9-0.2,2.7c0.2,0.7,0.9,2.3,1.5,3.2l0.4,0.7l-3.6,0l-3.6,0l-1.4-0.6c-1.7-0.8-2.9-1.2-4.6-1.7
			c-1.2-0.3-1.4-0.3-3.2-0.3c-1.7,0-2,0-2.7,0.2c-1.9,0.6-3.2,1.6-3.8,2.9c-0.3,0.7-0.3,0.8-0.3,1.8c0,1.4,0.3,2.1,1.1,3
			c0.8,0.8,1.7,1.3,3,1.6c1.6,0.3,4.8,0.1,6.8-0.6c0.8-0.3,2.6-1.1,3.2-1.4l0.5-0.3l3.5,0l3.5,0l-0.4,0.8c-0.9,1.5-1.1,2.1-1.1,3.2
			c0,0.8,0,1.1,0.2,1.5c0.8,1.8,2.5,2.3,4.4,1.3c0.7-0.3,1.2-0.7,2.8-2.3c1.1-1,2.6-2.5,3.2-3.1l1.2-1.2l2.7,0.1
			c1.5,0,3,0.1,3.4,0.1l0.7,0.1l-0.6,1.1c-1.1,2-1.2,2.3-1.2,3.5c0,1.2,0.2,1.7,0.8,2.4c0.5,0.6,1,0.8,2,0.8c0.8,0,1,0,1.5-0.3
			c1.3-0.7,2.3-1.8,4.7-5.3c0.8-1.1,1.4-2,1.5-2c0.1-0.1,5.4-0.1,5.4,0c0,0-0.1,0.5-0.4,1c-0.6,1.3-0.8,2-0.7,2.8
			c0.1,1.1,0.8,2.1,1.8,2.6c0.5,0.3,0.7,0.3,1.6,0.3c0.9,0,1,0,1.8-0.4c1.1-0.6,1.7-1.2,3.6-3.9l1.7-2.4h2.6c1.4,0,2.6,0,2.6,0.1
			c0,0-0.1,0.3-0.3,0.6c-0.7,1-0.9,1.8-0.9,2.9c0,0.9,0,1.1,0.3,1.6c0.6,1.2,2,2,3.2,1.9c1.6-0.2,2.4-1.1,4.8-5.5
			c0.7-1.4,0.8-1.4,1.2-1.5c0.2,0,2.1-0.1,4.1-0.1h3.7l-0.7,1.5c-0.4,0.9-0.8,1.8-0.9,2.1c-0.6,2.4,1.7,4.3,3.9,3.2
			c1-0.5,1.8-1.4,5.5-6.4l0.4-0.6l2.2-0.1c1.2,0,2.2-0.1,2.2,0c0,0-0.2,0.4-0.6,0.8c-0.8,1-1,1.6-1,2.3c0,1.5,1.1,2.6,2.7,2.6
			c1.2,0,2.8-0.8,6.2-3.1c1.9-1.3,2.3-1.7,2.6-2.3l0.2-0.5h2.7c1.5,0,2.7,0,2.7,0.1s-0.2,0.4-0.5,0.8c-0.9,1.3-1.7,2.8-1.8,3.3
			c-0.2,0.9,0.1,2,0.8,2.6c0.5,0.4,1,0.6,1.8,0.6c1.6,0,3.3-1.2,6.4-4.6c0.9-0.9,1.8-1.9,1.9-2.2c0.3-0.4,0.3-0.4,1-0.5
			c1-0.1,1.5-0.4,2-1.3c0.3-0.5,0.3-0.7,0.2-1.2c-0.1-0.8-0.5-1.5-1.1-1.8c-0.5-0.3-0.6-0.3-2.2-0.3l-1.7-0.1l-1.9-2
			c-3.4-3.7-4-4.2-5.4-4.2c-1.1,0-2.8,0.9-3.1,2.1c-0.3,1.4,1.2,2.9,1.9,4h-0.5c-0.3,0-1.5,0-2.8,0.1l-2.2,0.1l-0.3-0.4
			c-1-1.5-4.3-5-5.1-5.4c-0.5-0.3-0.7-0.3-1.4-0.3c-0.9,0-1.3,0.1-1.9,0.8c-0.9,1-0.8,2.1,0.3,4.6l0.3,0.8l-0.7,0.1
			c-0.4,0-1.4,0.1-2.2,0.1c-1.8,0-1.5,0.2-2.6-1.6c-0.9-1.4-2.3-3.3-3-4.1c-0.6-0.6-1.8-1.5-2.6-1.7c-0.8-0.3-1.8-0.2-2.4,0.2
			c-1.8,1-2,3.6-0.7,6.6c0.2,0.4,0.3,0.7,0.3,0.7c0,0-1.5,0.1-3.2,0.1l-3.1,0.1v-0.5c0-0.7-0.4-1.7-1.2-3.2
			c-1.7-3.1-2.7-4.2-4.3-4.5c-1-0.2-2.2,0.5-2.8,1.5c-0.3,0.6-0.3,0.6-0.3,1.9c0,1.5,0.2,2.1,1,3.8l0.4,0.8h-2.9h-2.9l-0.4-0.9
			c-0.9-2-2.3-4.7-2.9-5.4c-1.3-1.7-2-2.2-3-2.3c-0.9-0.1-1.5,0.1-2.2,0.8c-0.7,0.7-1,1.4-1,2.7c-0.1,1.3,0.3,3,1,4.7
			c0.1,0.2-0.1,0.2-2.9,0.2h-3l-0.3-0.3c-0.6-0.8-1.2-1.6-2.2-2.9c-1.7-2.4-3.8-4.8-4.6-5.1C107.4,386,106.7,386,106.1,386.2z"/>
		<path fill="#768A38" d="M224.9,390.9c-2.5,0.6-4.5,3-4.8,5.8c-0.2,1.9,0.9,4,2.6,4.9c2,1.1,4.1,0.9,6-0.3c1.1-0.7,1.9-1.6,2.4-2.7
			c0.4-0.8,0.4-1,0.5-2c0-0.9,0-1.3-0.1-1.8C230.7,391.9,227.7,390.2,224.9,390.9z"/>
		<path fill="#768A38" d="M211,399.3c-1.5,0.3-2.6,0.7-3.5,1.4c-1,0.9-2,2.5-2.4,3.9c-0.4,1.7,0,3.6,1.2,4.9
			c0.8,0.9,2.2,1.7,3.5,1.9c1,0.2,1.6,0.2,2.6,0c2.6-0.5,4.7-2.5,5.2-4.9c0.2-0.8,0.1-2.7-0.2-3.5c-0.5-1.8-1.6-2.8-3.5-3.4
			C213.3,399.3,211.7,399.2,211,399.3z"/>
		<path fill="#768A38" d="M328.3,388c-0.7,0.4-2.9,2.8-4.6,5.1c-0.9,1.3-1.5,2.1-2.2,2.9l-0.3,0.3h-3c-2.8,0-3,0-2.9-0.2
			c0.7-1.7,1.1-3.4,1-4.7c-0.1-1.4-0.3-2-1-2.7c-0.7-0.7-1.3-0.9-2.2-0.8c-1,0.1-1.7,0.6-3,2.3c-0.6,0.7-2,3.4-2.9,5.4l-0.4,0.9
			h-2.9h-2.9l0.4-0.8c0.8-1.7,1-2.4,1-3.8c0-1.3,0-1.4-0.3-1.9c-0.6-1-1.7-1.6-2.8-1.5c-1.6,0.2-2.6,1.3-4.3,4.5
			c-0.8,1.5-1.2,2.5-1.2,3.2v0.5l-3.1-0.1c-1.7,0-3.1-0.1-3.2-0.1c0,0,0.1-0.3,0.3-0.7c1.3-3,1.1-5.6-0.7-6.6
			c-0.7-0.4-1.6-0.5-2.4-0.2c-0.7,0.2-2,1.1-2.6,1.7c-0.7,0.8-2.1,2.7-3,4.1c-1.1,1.8-0.9,1.6-2.6,1.6c-0.8,0-1.8,0-2.2-0.1
			l-0.7-0.1l0.3-0.8c1.1-2.5,1.2-3.6,0.3-4.6c-0.6-0.6-0.9-0.8-1.9-0.8c-0.7,0-0.9,0-1.4,0.3c-0.9,0.5-4.2,4-5.1,5.4l-0.3,0.4
			l-2.2-0.1c-1.2,0-2.5-0.1-2.8-0.1h-0.5c0.6-1.2,2.2-2.6,1.9-4c-0.3-1.2-2-2.1-3.1-2.1c-1.3,0-2,0.5-5.4,4.2l-1.9,2l-1.7,0.1
			c-1.6,0.1-1.7,0.1-2.2,0.3c-0.6,0.4-1,1-1.1,1.8c-0.1,0.5,0,0.7,0.2,1.2c0.4,0.9,1,1.2,2,1.3c0.7,0,0.8,0.1,1,0.5
			c0.2,0.2,1,1.2,1.9,2.2c3.1,3.3,4.9,4.6,6.4,4.6c0.8,0,1.3-0.1,1.8-0.6c0.7-0.6,1.1-1.6,0.8-2.6c-0.1-0.5-1-2-1.8-3.3
			c-0.3-0.4-0.5-0.8-0.5-0.8c0,0,1.2-0.1,2.7-0.1h2.7l0.2,0.5c0.3,0.6,0.7,0.9,2.6,2.3c3.4,2.4,4.9,3.1,6.2,3.1
			c1.5,0,2.7-1.1,2.7-2.6c0-0.8-0.2-1.3-1-2.3c-0.3-0.4-0.6-0.8-0.6-0.8c0,0,1,0,2.2,0l2.2,0.1l0.4,0.6c3.6,4.9,4.4,5.9,5.5,6.4
			c2.2,1,4.5-0.8,3.9-3.2c-0.1-0.3-0.5-1.2-0.9-2.1l-0.7-1.5h3.7c2,0,3.9,0,4.1,0.1c0.4,0.1,0.4,0.1,1.2,1.5
			c2.4,4.4,3.2,5.3,4.8,5.5c1.2,0.2,2.6-0.6,3.2-1.9c0.3-0.5,0.3-0.7,0.3-1.6c0-1.1-0.2-1.8-0.9-2.9c-0.2-0.3-0.3-0.5-0.3-0.6
			c0,0,1.2-0.1,2.6-0.1h2.6l1.7,2.4c1.9,2.7,2.5,3.3,3.6,3.9c0.7,0.4,0.9,0.4,1.8,0.4c0.9,0,1,0,1.6-0.3c1-0.5,1.7-1.5,1.8-2.6
			c0.1-0.8-0.1-1.4-0.7-2.8c-0.2-0.5-0.4-1-0.4-1c0.1-0.1,5.3-0.1,5.4,0c0.1,0,0.7,0.9,1.5,2c2.5,3.5,3.5,4.7,4.7,5.3
			c0.5,0.3,0.7,0.3,1.5,0.3c1,0,1.5-0.2,2-0.8c0.6-0.7,0.8-1.2,0.8-2.4c0-1.2-0.1-1.6-1.2-3.5l-0.6-1.1l0.7-0.1
			c0.4,0,1.9-0.1,3.4-0.1l2.7-0.1l1.2,1.2c0.7,0.7,2.1,2.1,3.2,3.1c1.7,1.6,2.1,2,2.8,2.3c1.9,0.9,3.6,0.4,4.4-1.3
			c0.2-0.4,0.2-0.7,0.2-1.5c0-1.1-0.2-1.7-1.1-3.2l-0.4-0.8l3.5,0l3.5,0l0.5,0.3c0.6,0.4,2.4,1.2,3.2,1.4c2,0.7,5.2,0.9,6.8,0.6
			c1.3-0.3,2.2-0.8,3-1.6c0.9-1,1.1-1.6,1.1-3c0-1,0-1.1-0.3-1.8c-0.6-1.3-1.9-2.3-3.8-2.9c-0.7-0.2-1-0.2-2.7-0.2
			c-1.8,0-2,0-3.2,0.3c-1.7,0.4-2.9,0.9-4.6,1.7l-1.4,0.6l-3.6,0l-3.6,0l0.4-0.7c0.6-0.9,1.3-2.4,1.5-3.2c0.2-0.9,0.1-2.2-0.2-2.7
			c-0.7-1.3-2.2-1.7-3.6-1c-1,0.5-2,1.5-3.3,3.6c-0.6,1-1.4,2.1-1.7,2.5c-0.3,0.4-0.6,1-0.7,1.2l-0.2,0.5l-2,0.1
			c-1.1,0-3,0.1-4.3,0.1l-2.2,0.1l0.8-1.6c0.9-1.8,1.2-2.8,1.2-4.1c0-1.5-0.5-2.3-1.7-2.7C329.5,387.7,328.9,387.7,328.3,388z"/>
	</g>
	<g>
		<g>
			<path fill="#768A38" d="M108.1,242.9c-2.4,4.1-3.8,7-6.5,11.8c-1.2,2.7-7.2,10.1-15.5,11.7c-8.4,1.7-14.6-3.7-14.3-3.7
				c-0.1,0.6-6-6-1.8-13.8c1.7-3.7,6.3-5,9.4-3.5c3.2,1.5,5.2,3.8,5.6,5c2.2,3.9-4.6,9.2-5.9,4.2c0.4,6.1,10.3,1.4,7.4-4.9
				c-0.6-1.6-2.9-4.2-6.5-5.8c-3.7-1.9-9.5,0-11.4,4.2c-4.8,8.7,2.1,16.5,2.1,15.7c-0.3,0,6.6,6,15.7,4.1
				c8.9-1.7,15.3-9.7,16.5-12.4C105.8,250.6,106.6,247.5,108.1,242.9z"/>
		</g>
		<g>
			<path fill="#768A38" d="M107.1,244.7c-5.5,2.3-9.1,4.7-14.1,10c-2.1,2.6-11.6,12.8-8.5,24.4c3.8,11.6,16.4,12.8,15.9,12.3
				c-1,0.2,13.1,1.1,15.9-11.5c1.4-5.9-3.7-11.9-9.1-11.9c-5.1-0.1-8.9,2.3-10,4.4c-2.1,3.8-0.3,7.2,1.5,9.1c1.7,2.6,6.5,2,6.3-1.7
				c-0.7,3.5-4,3.1-5.4,0.9c-1.5-1.9-2.6-4.8-1-7.5c0.7-1.5,4.2-3.7,8.5-3.6c4.5,0,8.7,4.9,7.6,10c-2.4,11.1-15.1,10.5-14.2,10.2
				c0.5,0.5-11-0.8-14.4-11.2c-2.9-10.4,6-20.4,8.1-22.9C99,250.6,102,247.9,107.1,244.7z"/>
		</g>
	</g>
	<g>
		<path fill="#DC202C" d="M344.6,31.3c-0.4,0.2-1.2,0.8-1.5,1.2c-0.7,1-1.7,3.7-2.5,7.3c-0.1,0.6-0.3,1.1-0.3,1.2
			c0,0.1-0.1,0.2-0.3,0.2c-0.2,0-0.6,0.1-1,0.1c-0.4,0.1-1.5,0.2-2.5,0.3c-1.8,0.2-2.7,0.3-3.3,0.5c-1.5,0.4-2.2,1.5-2.1,3.1
			c0.1,1,0.4,1.6,1.4,2.5c0.9,0.8,3.1,2.2,5,3.1c0.7,0.3,1.2,0.6,1.2,0.7c0,0-0.1,0.3-0.2,0.7c-0.4,1.1-1.5,4.2-1.6,4.8
			c-0.4,1.8-0.2,2.8,0.7,3.8c0.3,0.3,0.5,0.5,0.9,0.7c0.4,0.2,0.6,0.2,1,0.2c0.6,0,1.2-0.2,2.1-0.6c1.4-0.7,2.2-1.3,4-3.1
			c0.7-0.6,1.2-1.2,1.3-1.2c0.1,0,0.6,0.3,1.1,0.7c1.5,1,2.7,1.7,4.6,2.7c2.1,1.1,2.5,1.2,3.6,1.2c0.7,0,0.8,0,1.2-0.2
			c1.8-0.9,2.2-2.5,1.3-4.9c-0.4-1-0.7-1.6-2.1-3.7c-1.1-1.7-1.6-2.5-1.7-2.9c0-0.1,0.2-0.4,1.2-1.4c2.5-2.6,3.7-4.1,4.1-5.4
			c0.2-0.7,0.2-1.2-0.1-1.7c-0.4-0.9-1.8-1.7-3.2-1.8c-0.6,0-3.3,0.1-5.5,0.3c-0.6,0-1.1,0.1-1.1,0.1s-0.2-0.6-0.5-1.3
			c-1.4-4-2.1-5.5-3-6.4C346.3,31.2,345.3,31,344.6,31.3z M345.6,35.1c0.3,0.7,0.8,1.9,1.6,4.3c0.6,1.8,0.7,2,1,2.4
			c0.3,0.3,0.9,0.6,1.4,0.6c0.1,0,0.9,0,1.7-0.1c2.8-0.2,5.3-0.3,5.7-0.2c0.2,0,0.3,0.1,0.3,0.1c0,0.1-0.8,1.2-1.3,1.8
			c-0.5,0.6-1.8,1.9-2.9,3c-0.5,0.4-0.9,1.1-1,1.5c-0.1,0.2-0.1,0.5-0.1,0.8c0,1.1,0.5,2.1,2.2,4.7c1.3,2,1.7,2.6,2,3.4
			c0.2,0.7,0.3,1,0.2,1c-0.2,0.1-1-0.2-2.3-0.9c-1.8-0.9-2.6-1.4-4.3-2.5c-0.8-0.5-1.5-1-1.6-1s-0.3-0.2-0.5-0.3
			c-0.2-0.1-0.5-0.3-0.6-0.3c-0.6-0.2-1.2,0.1-1.5,0.6c-0.2,0.3-2.8,2.9-3.5,3.4c-0.6,0.5-1.1,0.8-1.8,1.1l-0.5,0.3l-0.1-0.2
			c-0.1-0.2,0.1-1.3,0.4-2.2c0.2-0.4,0.4-1.3,0.7-1.9c0.4-1.2,0.9-2.4,1.2-3.1c0.3-0.7,0.3-1.4-0.2-1.8c-0.1-0.1-1-0.5-1.9-1
			c-1-0.5-2.1-1-2.5-1.3c-1.9-1.1-3.3-2.1-3.3-2.5c0-0.2,0.4-0.3,3.4-0.6c0.9-0.1,1.9-0.2,2.1-0.2c0.3,0,0.8-0.1,1.2-0.1
			c0.6,0,1.6-0.1,2-0.6c0.2-0.2,0.2-0.5,0.3-0.8c0.2-1.6,0.6-3.2,1.1-4.7c0.5-1.7,1.1-3.3,1.2-3.3C345.3,34.5,345.5,34.8,345.6,35.1
			z"/>
	</g>
</g>
</svg>
