<?xml version="1.0" encoding="utf-8"?>
<!-- Generator: Adobe Illustrator 18.0.0, SVG Export Plug-In . SVG Version: 6.00 Build 0)  -->
<!DOCTYPE svg PUBLIC "-//W3C//DTD SVG 1.1//EN" "http://www.w3.org/Graphics/SVG/1.1/DTD/svg11.dtd">
<svg version="1.1" id="Layer_1" xmlns="http://www.w3.org/2000/svg" xmlns:xlink="http://www.w3.org/1999/xlink" x="0px" y="0px"
	 viewBox="0 0 432 432" enable-background="new 0 0 432 432" xml:space="preserve">
<g>
	<g>
		<path fill="#D42228" d="M82.9,320.8l-0.3-2.2l-1-2.5l-0.8-2l-2.5-4l-1-1.2l-1-1l-0.8-1.2l-1-1.2l-0.8-1.2l-1-1.2l-1-1l-1.2-1l-1-1
			l-2-2.4l-0.8-1l-1.2-1.3l-0.8-0.7l-1.2-1.2l-3-3.5l-1.2-1.5l-3.5-5l-1-1.8l-0.7-1.5l-0.5-1.3l-0.5-1.5l-1-2.7l-0.3-1.5l-0.2-1.3
			v-1.5l-0.2-1.7v-2.2l0.2-2l0.2-1.7l0.2-1.5l0.7-3l0.7-1.5l0.5-1.5l0.7-1.3l0.8-1.5l0.8-1.2l1-1.3l1-1.2l2.2-2.2l1.2-1l1.3-0.8
			l2.7-1.3l1.5-0.7l4-1.5l1.8-0.5l3-0.7h3.4l2.7-0.2h1.7l2.2,0.2l1.8,0.2l3.4,0.7l1.5,0.5l1.3,0.7l1.5,0.7l3.5,2.2l1.3,1l1.2,1
			l0.8,1l1,1.2l1,1.3l1.2,1.7l1,1.8l0.5,1.5l0.3,1.5l0.2,1.7l0.3,2v5.2l-0.2,1.5l-0.3,1.5l-0.7,1.3l-1.2,0.8l-1.3,0.7l-1.5,0.2
			l-1.3,0.2l-1.5-0.3l-1.3-0.8L97,269l-0.5-1.8l-0.2-1.7v-3.2l-0.2-1.5l-0.5-1.3l-0.5-1.5l-0.7-1.3l-0.8-1.3l-1-1.2l-1.2-1l-1.2-0.8
			l-1.3-0.8l-1.3-0.5l-1.5-0.5l-1.3-0.2l-4.7-0.5h-1.5l-1.7,0.2l-3,1l-2.7,1.7l-1.2,1l-1.2,1.2l-0.8,1.2l-0.8,1.5l-0.5,1.3l-0.7,1.5
			l-0.5,1.5l-0.3,1.7l-0.2,1.5v3.2l0.2,1.5l0.3,1.5l0.3,1.3l0.7,1.5l0.5,1.3l0.8,1.5l1,2l1,1.8l1.7,2.7l4,4.7l0.8,1.2l3.4,3.4l4,4.7
			l2.2,2.2l0.8,1.2l1.8,2.4l1,1.2l1,1.3l0.8,1.2l0.7,1.3l0.8,1.3l1.3,2.7l0.7,1.5l0.7,1.3l0.5,1.5l0.5,1.3l0.3,1.5l0.2,1.5l0.3,1.5
			l0.2,1.5l-0.2,1.7l-0.3,3l-0.7,3l-0.2,1.5l-0.2,1.3l-0.3,1.5l-0.5,1.5l-0.7,1.3l-0.7,1.5l-2,3.7l-1,1.5l-1,1.2l-1.2,1.2l-0.8,0.7
			l-1.3,1.2l-0.8,0.8l-2.7,2l-2.7,1.3l-1.3,0.8l-1.7,0.7l-1.3,0.5l-1.2,0.3l-1.5,0.5l-1.7,0.3l-1.5,0.2l-1.2,0.3l-5,0.5h-4.2
			l-4.5-0.5H54l-1.7-0.3l-2.4-0.5l-3.5-1.2l-1.3-0.7l-1.2-0.8l-1.7-1l-2.7-2l-2.7-2.7l-1-1.2l-1.7-2.4l-0.8-1.3l-0.8-1.2l-1-3
			l-0.3-1.5l-0.5-2l-0.5-2.2l-0.3-1.5l-0.2-1.5v-3.2l0.2-1.3v-3l0.2-1.5l1-4.5l0.5-2l0.5-2.2l0.5-1.5l1.3-1.5l2.4-1h2.5l2.2,0.5
			l1.3,1l0.8,1.5v2l-0.2,1.7l-0.3,1.5l-0.5,1.5l-0.2,1.5l-0.3,1.5v4.7l0.5,4.5l0.3,1.5l1.5,4.5l0.8,1.3l1,1.5l0.5,0.8l1.2,1.3l1,1
			l1.2,1l1.3,0.8l1.2,0.8l1.3,0.8l1.5,0.7l1.3,0.5L58,348l1.5,0.2h2l4.7-0.3l2-0.2l1.5-0.5l2.7-1l1.3-0.7l1.3-0.8l1.3-1.5l1.5-1.5
			l1-1.3l1-1.7l1-1.8l0.7-1.7l0.7-2l0.7-2.5l0.3-2.2l0.2-1.7l-0.2-2.2l-0.2-2L82.9,320.8z"/>
		<path fill="#D42228" d="M196.8,324.8l-0.3,0.8l-0.8,1.7l-0.8,1.2l-0.7,1.3l-0.7,1.5l-0.7,1.3l-1.7,2.7l-0.8,1.2l-0.8,1.3l-0.7,1.3
			l-0.8,1.3l-1,1.2l-1,1.3l-1,1.2l-1.8,2.4l-1,1.2l-1,1l-4.7,4l-1.3,0.8l-1.5,0.8l-1.8,0.8l-2,0.8l-1.5,0.5l-1.5,0.3h-1.7l-2-0.2
			l-2-0.5l-1.5-0.5l-1.2-0.8l-1.2-1l-1.2-1.7l-1.2-1.8L154,349l-0.5-2l-0.2-2.2v-1.7l0.2-2.2l0.2-2l-0.5-0.3l-0.8,1.2l-1.7,2.7
			l-1.7,2.4l-1,1.2l-0.8,1.2l-1,1.2l-0.8,1.2l-1.2,1l-1,1l-1.2,1l-1.2,0.8l-1.3,0.8l-1.8,1.2l-2.5,1.2l-2.7,0.8l-2.2,0.5l-3,0.3
			l-1.7-0.2l-2-0.3l-2-0.5l-1.5-0.5l-1.3-0.5l-1.2-0.8l-2.4-2l-0.8-1.2l-0.8-1.3l-1-1.8l-1-2.5l-0.5-2.2l-0.2-1.7l-0.3-2.2l-0.2-2.7
			v-2.2l0.2-1.7l0.2-2.2l0.3-2l0.5-1.7l0.5-2l0.5-2.2l0.5-1.5l0.7-1.3l0.5-1.5l4-8.1l0.8-1.3l0.8-1.2l0.8-1.3l1.7-2.4l1-1.2l2.2-2.5
			l0.7-0.7l1.2-1.3l2.4-2l1.5-1.5l1.8-1.3l2.4-1.8l1.3-0.8l1.2-0.8l1.5-0.7l2-0.8l1.8-1l1.7-0.8l2-0.7l2-0.5l1.7-0.5l4.2-0.3
			l1.5-0.2h2l3.4,0.2l3.9,0.3l3.7,0.7l1.5,0.3l1.8,0.5l6.7,3l1.2,1l1.2,0.8l1.2,1l1,1.2l0.3,1.8l-0.7,2.4l-1.8,2l-1.8,1.2l-1.3,0.2
			l-1.3-0.5l-1.3-1l-1.5-0.8l-1.3-0.8l-1.2-0.5l-1.3-0.7l-1.5-0.7l-1.3-0.3l-2.9-0.7l-1.7-0.5l-1.7-0.3h-3.4l-1.2,0.2l-1.7,0.2
			l-2.2,0.5l-4.2,1.5l-1.7,0.8l-1.7,1l-1.2,0.8l-1.3,0.8l-1.2,0.8l-1.2,1l-1.3,1.2l-0.7,0.7l-1.2,1.3l-1,1.2l-0.8,1.2l-2,2.4
			l-0.8,1.2l-0.8,1.3l-2,4l-0.8,1.3l-1,3l-0.7,1.5l-0.7,1.3l-1,4.5l-0.5,1.7l-0.5,4.5v4.7l0.2,1.7l0.5,1.5l0.7,1.3l0.8,1.3l1,1
			l1.5,0.7l2,0.3l2.2-0.2l1.5-0.5l2.7-1.3l2.4-2l1-1l1.2-1l1-1.2l0.8-1.2l1-1.2l0.8-1.2l1.8-2.5l0.8-1.2l2.5-4l1-1.8l1.2-2.2l0.7-1
			l2-4.4l0.7-1.5l0.3-1.2l0.7-1.5l0.5-1.3l0.5-1.5l0.7-1.8l1-3.4l0.7-1.8l0.5-1.7l1-1.5l1.7-0.8l1.5-0.3l1.5,0.2l1.5,0.3l2.7,1.3
			l1.3,0.8l0.7,1l0.2,1.5l-0.5,1.3l-0.3,1.5l-0.5,1.5l-0.7,3l-0.5,1.5l-0.3,1.3l-1,3l-0.3,1.7l-0.2,1l-0.5,2l-0.3,1.5l-0.7,2.9
			l-0.5,2l-0.3,1.7l-0.3,1.8l-0.5,2.5l-0.5,2.9l-0.2,2.5l0.2,2.2l0.8,1.3l1.7,0.8l2.5,0.2l2-0.7l1.5-0.8l2.4-1.7l1.2-1.2l2-2.2
			l2-2.4l1.7-2.4l0.8-1.3l1-1.3l0.3-1l2.7-4l0.7-1.3l0.8-1.3l3.4-6.7l1.5-0.8l2,0.3l1.3,1.7l0.2,1.7l-0.7,1.5L196.8,324.8z"/>
		<path fill="#D42228" d="M230.2,297.1l-1.3,0.7l-1.2,0.7l-1.2,0.8l-1.3,1l-1.2,1l-2.7,1.8l-1.2,0.8l-1.2,1l-1.2,1.2l-2,2.4
			l-1.2,1.2l-2,2.4l-1.7,2.7l-1,1.3l-2,4l-1.8,5.5l-0.5,2.2l-0.7,2.5l-0.7,2.2l-1,4.5l-0.7,2.2l-0.7,2.5l-0.5,2.2l-0.5,1.5l-0.5,2.2
			l-0.3,1.8l-0.5,1.7l-0.2,1.5l-0.3,1.3l-0.5,1.3l-1,0.8l-1.5,0.5l-1.5,0.2l-2.2,0.2l-2.5-0.2l-2.2-0.3l-1.3-0.7l-1-1.5l-0.2-1.8
			l0.3-1.7l0.5-2.2l0.5-2l0.3-1.5l0.5-1.5l0.3-1.5l0.5-1.3l0.5-1.5l0.3-1.5l0.3-1.3l0.3-1.5l0.5-1.5l0.5-1.3l0.7-3l0.3-1.3l0.2-1.5
			l0.5-1.5l0.3-1.5l0.5-1.5l0.5-2l0.7-2.2l0.8-3l0.3-1.3l0.3-1.5l0.5-1.5l0.3-1.5l0.5-1.3l0.3-1.5l0.5-1.5l0.5-2.2l0.5-2l0.3-1.5
			l1-3l0.3-1.3l0.5-1.5l0.7-3l1.2-1.7l2.2-1.2l2.7-0.3l2.7,0.3l2.5,0.8l1.7,1.7l0.3,2l-0.3,1.7l-0.3,1.2l-0.5,1.5l-0.3,1.5l-0.5,1.3
			l-0.3,1.5l-0.5,1.5l-0.3,1.5l-0.2,1l0.2,0.2l0.7-0.8l1-1.2l0.8-1.2l2-2.4l1.2-1l2.2-1.8l1.2-1l2.2-2.2l3.4-2.7l1.3-0.8l1.3-0.7
			l1.3-0.8l1.3-0.5l1.5-0.5l2.2-0.5l2-0.3h3.9l2.7,0.3l1.9,0.3l1.5,0.7l1.5,0.8l1.2,1.2l0.8,1.2l0.8,1.3l0.7,1.3l0.5,1.5l0.5,2
			l0.3,2v3.2l-0.2,1.5v1.5l-0.2,1.3l-0.3,1.5l-0.3,1.7l-0.3,1l-0.5,1.7l-0.5,2.2l-0.7,2.5l-0.7,2.2l-0.5,1.5l-0.5,2.2l-0.7,2.9
			l-0.7,2.7l-0.7,2.4l-0.3,1.5l-0.3,1.2l-0.3,1.5l-0.5,1.5l-0.3,1.3l-1,4.5l-0.2,1.5v3l0.7,1.3l1.2,0.8l1.5,0.2l1.5-0.5l1.5-0.7
			l1.3-0.8l1.2-0.8l1.3-1l2.2-2.2l0.8-1.2l1-1.3l0.8-1.2l1.2-1.3l0.8-1.2l1-1.5l1.5-2.5l1-1.5l0.5-0.8l1-1.5l0.8-1.5l1.3-2.7
			l0.7-1.5l0.5-1.3l0.5-1.5l0.8-1.3l1.5-1l2.2,0.5l1.3,1.7v1.7l-0.5,1.5l-0.7,1.3l-0.7,1.5l-0.7,1.3l-0.8,1.3l-0.7,1.3l-1,1.5
			l-0.5,1l-1.7,3l-0.3,1l-0.8,1.5l-1.7,2.7l-1,1.5l-0.7,0.8l-1,1.3l-1.2,1.5l-1,1.2l-1.8,2l-1,1.2l-2.4,2l-1,1l-1.3,1l-1.3,0.8
			l-2.7,1.3l-1.3,0.5l-1.5,0.5l-1.5,0.3l-1.3,0.2l-1.7,0.2h-1.5l-1.5-0.2l-1.3-0.3l-1.5-0.5l-1.3-0.5l-1.3-0.8l-1-0.8l-1-1.2
			l-0.7-1.5l-0.5-1.3l-0.3-1.5l-0.3-1.3v-3.7l0.3-2.2l0.2-1.7l0.5-2.2l1.5-5.5l0.5-2.9l0.7-2.9l0.7-2.7l0.7-2.2l0.5-1.5l0.7-2.2
			l0.7-2.7l0.5-2.7l0.7-2.2l0.7-3l0.2-1.5l0.7-3.2l0.2-1.5l-0.3-1.7l-1-1.7l-1.5-1.5l-1.5-0.5l-1.5-0.2l-1.5,0.2L230.2,297.1z"/>
		<path fill="#D42228" d="M324,320v1.8l-0.7,1.7l-2,3.7l-0.7,1.5L320,330l-1.7,2.7l-0.7,1.2l-0.8,1.3l-1.3,2.5l-0.7,1.2l-1,1.5
			l-2,2.4l-0.8,1.3l-0.8,1.2l-1,1.2l-3.2,3.2l-2.4,1.8l-2.4,2l-1.3,1l-1.8,1l-2,0.8l-1.5,0.7l-1.5,0.5l-1.3,0.3l-1.5,0.2h-4.7
			l-1.5-0.2l-1.5-0.3l-2-0.7l-1.8-0.8l-1.3-0.8l-2.4-2l-0.8-1.2l-0.8-1.3l-1.3-2.7l-0.5-1.3l-0.5-1.5l-0.3-1.5l-0.3-1.3v-1.5
			l-0.2-1.5v-1.5l-0.2-1.7v-1.5l0.5-4.5v-1.5l0.8-7.6l0.3-1.5l0.2-1.5l0.7-3l0.5-2.2l0.5-2l0.3-1.5l0.5-1.5l0.3-1.5l0.5-1.5l0.3-1.5
			l0.3-2l0.7-2.2l1-3v-1.3l-0.5-0.8l-1.2-0.3l-1.3-0.2l-1.7-0.3l-1.7-0.7l-1.2-1.5l-0.3-1.5l-0.2-1.7l0.3-1.3l0.7-1.2l1.2-0.8
			l2.2-0.2l2.5,0.2h2.5l1.7-0.5l0.7-1.2l0.3-1.7l0.3-1.3l0.5-1.5l0.7-1.3l0.7-1.5l0.5-1.3l1-3l0.7-3l0.5-1.5l0.7-1.3l1-3l0.5-1.3
			l0.7-1.5l0.5-1.5l0.5-1.3l0.5-1.5l0.7-1.3l0.7-1.5l0.3-1.3l0.5-1.5l0.7-1.5l0.8-1.2l1.3-0.8l1.5-0.3l1.7,0.2l2,0.3l2.2,0.5
			l1.5,0.8l1.3,1.2l0.5,1.8l-0.3,1.5l-0.8,2.2l-1,2.4l-0.8,2.2l-0.5,1.7l-0.3,1l-0.5,1.7l-1.8,5.5l-0.5,1.3l-0.5,1.5l-0.7,2.2
			l-1,2.5l-1.2,3.5l-0.3,1.5l-0.7,1.3l-0.5,1.3v1.2l1,0.8l1.8,0.3h1.7l2.9-0.2l2.4-0.2h5.2l2.2,0.2l1.2,1l0.3,1.8v2.2l-0.5,1.5
			l-0.8,1.2l-1.2,0.8l-1.5,0.5l-1.5,0.3l-1.7,0.2l-4.5,0.2h-1.8l-1.5-0.2h-6.2l-1,0.7l-0.5,1.3l-0.7,2l-0.7,2.7l-0.7,2.9l-0.8,2.7
			l-0.7,2.9l-0.7,2.7l-0.5,2.4l-0.2,1l-0.5,2.4l-0.5,1.8l-0.5,1.7l-0.7,3l-0.2,2l-0.3,2.2l-0.3,3v4.7l0.3,2.2l0.3,2l0.5,1.5l0.7,1.5
			l0.8,1.2l1.8,1.2l2.4,1l1.8,0.3h1.7l1.8-0.3l4-2l4.7-4l1.2-1.2l0.8-1l1.7-2.2l2.2-2.7l0.8-1.2l0.7-1.3l0.8-1.3l1-1.3l0.8-1.2
			l0.8-1.3l0.7-1.3l0.5-1.5l0.8-1.7l0.8-1.3l1-1.7l2-1.3l2.2,0.3L324,320z"/>
		<path fill="#D42228" d="M400.9,324.8l-0.3,0.8l-0.8,1.7l-0.8,1.2l-0.7,1.3l-0.7,1.5l-0.7,1.3l-1.7,2.7l-0.8,1.2l-0.8,1.3l-0.7,1.3
			l-0.8,1.3l-1,1.2l-1,1.3l-1,1.2l-1.8,2.4l-1,1.2l-1,1l-4.7,4l-1.3,0.8l-1.5,0.8l-1.8,0.8l-2,0.8l-1.5,0.5l-1.5,0.3h-1.7l-2-0.2
			l-2-0.5l-1.5-0.5l-1.2-0.8l-1.2-1l-1.2-1.7l-1.2-1.8l-0.5-1.5l-0.5-2l-0.2-2.2v-1.7l0.2-2.2l0.2-2l-0.5-0.3l-0.8,1.2l-1.7,2.7
			l-1.7,2.4l-1,1.2l-0.8,1.2l-1,1.2l-0.8,1.2l-1.2,1l-1,1l-1.2,1l-1.2,0.8l-1.3,0.8l-1.8,1.2l-2.5,1.2l-2.7,0.8l-2.2,0.5l-3,0.3
			l-1.7-0.2l-2-0.3l-2-0.5l-1.5-0.5l-1.3-0.5l-1.2-0.8l-2.4-2l-0.8-1.2l-0.8-1.3l-1-1.8l-1-2.5l-0.5-2.2l-0.2-1.7l-0.3-2.2l-0.2-2.7
			v-2.2l0.2-1.7l0.2-2.2l0.3-2l0.5-1.7l0.5-2l0.5-2.2l0.5-1.5l0.7-1.3l0.5-1.5l4-8.1l0.8-1.3l0.8-1.2l0.8-1.3l1.7-2.4l1-1.2l2.2-2.5
			l0.7-0.7l1.2-1.3l2.4-2l1.5-1.5l1.8-1.3l2.4-1.8l1.3-0.8l1.2-0.8l1.5-0.7l2-0.8l1.8-1l1.7-0.8l2-0.7l2-0.5l1.7-0.5l4.2-0.3
			l1.5-0.2h2l3.4,0.2l3.9,0.3l3.7,0.7l1.5,0.3l1.8,0.5l6.7,3l1.2,1l1.2,0.8l1.2,1l1,1.2l0.3,1.8l-0.7,2.4l-1.8,2L384,302l-1.3,0.2
			l-1.3-0.5l-1.3-1l-1.5-0.8l-1.3-0.8l-1.2-0.5l-1.3-0.7l-1.5-0.7l-1.3-0.3l-2.9-0.7l-1.7-0.5l-1.7-0.3h-3.4l-1.2,0.2l-1.7,0.2
			l-2.2,0.5l-4.2,1.5l-1.7,0.8l-1.7,1l-1.2,0.8l-1.3,0.8l-1.2,0.8l-1.2,1l-1.3,1.2l-0.7,0.7l-1.2,1.3l-1,1.2l-0.8,1.2l-2,2.4
			l-0.8,1.2l-0.8,1.3l-2,4l-0.8,1.3l-1,3l-0.7,1.5l-0.7,1.3l-1,4.5l-0.5,1.7l-0.5,4.5v4.7l0.2,1.7l0.5,1.5l0.7,1.3l0.8,1.3l1,1
			l1.5,0.7l2,0.3l2.2-0.2l1.5-0.5l2.7-1.3l2.4-2l1-1l1.2-1l1-1.2l0.8-1.2l1-1.2l0.8-1.2l1.8-2.5l0.8-1.2l2.5-4l1-1.8l1.2-2.2l0.7-1
			l2-4.4l0.7-1.5l0.3-1.2l0.7-1.5l0.5-1.3l0.5-1.5l0.7-1.8l1-3.4l0.7-1.8l0.5-1.7l1-1.5l1.7-0.8l1.5-0.3l1.5,0.2l1.5,0.3l2.7,1.3
			l1.3,0.8l0.7,1l0.2,1.5l-0.5,1.3l-0.3,1.5l-0.5,1.5l-0.7,3l-0.5,1.5l-0.3,1.3l-1,3l-0.3,1.7l-0.2,1l-0.5,2l-0.3,1.5l-0.7,2.9
			l-0.5,2l-0.3,1.7l-0.3,1.8l-0.5,2.5l-0.5,2.9l-0.2,2.5l0.2,2.2l0.8,1.3l1.7,0.8l2.5,0.2l2-0.7l1.5-0.8l2.4-1.7l1.2-1.2l2-2.2
			l2-2.4l1.7-2.4l0.8-1.3l1-1.3l0.3-1l2.7-4l0.7-1.3l0.8-1.3l3.4-6.7l1.5-0.8l2,0.3l1.3,1.7l0.2,1.7l-0.7,1.5L400.9,324.8z"/>
	</g>
	<defs>
		<filter id="Adobe_OpacityMaskFilter" filterUnits="userSpaceOnUse" x="77.5" y="152.2" width="284.3" height="115">
			
				<feColorMatrix  type="matrix" values="-1 0 0 0 1  0 -1 0 0 1  0 0 -1 0 1  0 0 0 1 0" color-interpolation-filters="sRGB" result="source"/>
			<feFlood  style="flood-color:white;flood-opacity:1" result="back"/>
			<feBlend  in="source" in2="back" mode="normal"/>
		</filter>
	</defs>
	<mask maskUnits="userSpaceOnUse" x="77.5" y="152.2" width="284.3" height="115" id="SVGID_1_">
		<g filter="url(#Adobe_OpacityMaskFilter)">
			<g>
				<g>
					<path fill="#FFFFFF" d="M82.9,320.8l-0.3-2.2l-1-2.5l-0.8-2l-2.5-4l-1-1.2l-1-1l-0.8-1.2l-1-1.2l-0.8-1.2l-1-1.2l-1-1l-1.2-1
						l-1-1l-2-2.4l-0.8-1l-1.2-1.3l-0.8-0.7l-1.2-1.2l-3-3.5l-1.2-1.5l-3.5-5l-1-1.8l-0.7-1.5l-0.5-1.3l-0.5-1.5l-1-2.7l-0.3-1.5
						l-0.2-1.3v-1.5l-0.2-1.7v-2.2l0.2-2l0.2-1.7l0.2-1.5l0.7-3l0.7-1.5l0.5-1.5l0.7-1.3l0.8-1.5l0.8-1.2l1-1.3l1-1.2l2.2-2.2l1.2-1
						l1.3-0.8l2.7-1.3l1.5-0.7l4-1.5l1.8-0.5l3-0.7h3.4l2.7-0.2h1.7l2.2,0.2l1.8,0.2l3.4,0.7l1.5,0.5l1.3,0.7l1.5,0.7l3.5,2.2l1.3,1
						l1.2,1l0.8,1l1,1.2l1,1.3l1.2,1.7l1,1.8l0.5,1.5l0.3,1.5l0.2,1.7l0.3,2v5.2l-0.2,1.5l-0.3,1.5l-0.7,1.3l-1.2,0.8l-1.3,0.7
						l-1.5,0.2l-1.3,0.2l-1.5-0.3l-1.3-0.8L97,269l-0.5-1.8l-0.2-1.7v-3.2l-0.2-1.5l-0.5-1.3l-0.5-1.5l-0.7-1.3l-0.8-1.3l-1-1.2
						l-1.2-1l-1.2-0.8l-1.3-0.8l-1.3-0.5l-1.5-0.5l-1.3-0.2l-4.7-0.5h-1.5l-1.7,0.2l-3,1l-2.7,1.7l-1.2,1l-1.2,1.2l-0.8,1.2
						l-0.8,1.5l-0.5,1.3l-0.7,1.5l-0.5,1.5l-0.3,1.7l-0.2,1.5v3.2l0.2,1.5l0.3,1.5l0.3,1.3l0.7,1.5l0.5,1.3l0.8,1.5l1,2l1,1.8
						l1.7,2.7l4,4.7l0.8,1.2l3.4,3.4l4,4.7l2.2,2.2l0.8,1.2l1.8,2.4l1,1.2l1,1.3l0.8,1.2l0.7,1.3l0.8,1.3l1.3,2.7l0.7,1.5l0.7,1.3
						l0.5,1.5l0.5,1.3l0.3,1.5l0.2,1.5l0.3,1.5l0.2,1.5l-0.2,1.7l-0.3,3l-0.7,3l-0.2,1.5l-0.2,1.3l-0.3,1.5l-0.5,1.5l-0.7,1.3
						l-0.7,1.5l-2,3.7l-1,1.5l-1,1.2l-1.2,1.2l-0.8,0.7l-1.3,1.2l-0.8,0.8l-2.7,2l-2.7,1.3l-1.3,0.8l-1.7,0.7l-1.3,0.5l-1.2,0.3
						l-1.5,0.5l-1.7,0.3l-1.5,0.2l-1.2,0.3l-5,0.5h-4.2l-4.5-0.5H54l-1.7-0.3l-2.4-0.5l-3.5-1.2l-1.3-0.7l-1.2-0.8l-1.7-1l-2.7-2
						l-2.7-2.7l-1-1.2l-1.7-2.4l-0.8-1.3l-0.8-1.2l-1-3l-0.3-1.5l-0.5-2l-0.5-2.2l-0.3-1.5l-0.2-1.5v-3.2l0.2-1.3v-3l0.2-1.5l1-4.5
						l0.5-2l0.5-2.2l0.5-1.5l1.3-1.5l2.4-1h2.5l2.2,0.5l1.3,1l0.8,1.5v2l-0.2,1.7l-0.3,1.5l-0.5,1.5l-0.2,1.5l-0.3,1.5v4.7l0.5,4.5
						l0.3,1.5l1.5,4.5l0.8,1.3l1,1.5l0.5,0.8l1.2,1.3l1,1l1.2,1l1.3,0.8l1.2,0.8l1.3,0.8l1.5,0.7l1.3,0.5L58,348l1.5,0.2h2l4.7-0.3
						l2-0.2l1.5-0.5l2.7-1l1.3-0.7l1.3-0.8l1.3-1.5l1.5-1.5l1-1.3l1-1.7l1-1.8l0.7-1.7l0.7-2l0.7-2.5l0.3-2.2l0.2-1.7l-0.2-2.2
						l-0.2-2L82.9,320.8z"/>
					<path fill="#FFFFFF" d="M64.1,361.6l-4.7,0l-4.4-0.5h-1.3l-4.8-1l-4-1.4l-1.8-0.9l-1.1-0.8l-1.9-1.1l-3-2.3l-2.9-2.9l-1.2-1.4
						l-1.8-2.5l-0.8-1.3l-1.1-1.5l-1.3-3.8l-1.7-7.6l-0.2-1.9l0-3.6l0.1-1.1l0-3.2l0.2-1.9l1-4.5l1.1-4.5l0.7-2.2l2.3-2.6l3.7-1.6
						h3.6l3.2,0.7l2.5,1.9l1.6,2.9l0,3.2l-0.2,2.1l-0.4,1.8l-0.4,1.2l-0.2,1.5l-0.3,1.2v4.2l0.5,4.2l0.3,1.2l1.3,4l2,3.2l0.9,1
						l0.8,0.8l0.9,0.8l1.3,0.8l1.1,0.8l1.1,0.7l1.2,0.5l1,0.4l1.3,0.3l1.2,0.1h1.7l6.2-0.5l1.1-0.4l2.5-0.9l1-0.5l0.8-0.5l1.2-1.3
						l1.3-1.3l0.8-1l0.9-1.5l0.9-1.6l0.6-1.4l0.6-1.8l0.6-2.3l0.3-1.9l0.1-1.3l-0.3-3.7l-0.3-1.6l-0.3-1.8l-1.6-3.9l-2.2-3.6
						l-0.8-0.9l-1.3-1.3l-0.8-1.1l-1.1-1.3l-0.8-1.1l-0.8-1l-0.8-0.8l-1.3-1.1l-1.2-1.2l-3.8-4.5l-0.9-0.7l-1.4-1.4l-3.1-3.7
						l-1.3-1.6l-3.7-5.4l-1.1-2.1l-0.7-1.7l-0.5-1.5l-0.5-1.5l-1.1-3.1l-0.4-1.8l-0.2-1.8v-1.3l-0.2-1.8l0-2.5l0.6-5.7l0.7-3.4
						l0.7-1.7l0.6-1.8l0.7-1.5l1-1.8l2-2.8l1.2-1.4l2.4-2.4l1.6-1.3l1.6-1l2.8-1.4l1.7-0.7l4.3-1.6l2-0.5l3.4-0.8H79l2.8-0.2l1.9,0
						l4.4,0.4l3.8,0.8l1.9,0.7l1.3,0.6l1.8,0.9l3.8,2.4l1.5,1.1l1.6,1.4l2,2.3l1,1.3l1.4,2.1l1.2,2.4l0.6,1.8l0.4,1.9l0.2,1.6
						l0.4,2.5l0,5.6l-0.2,1.9l-0.4,1.9l-1.2,2.4l-2.3,1.6l-1.9,0.9l-4,0.5l-2.6-0.6l-2.4-1.5l-1.9-2.7l-0.8-3l-0.2-2v-3l-0.1-0.9
						l-0.8-2.4l-0.5-1l-0.6-1l-0.7-0.8l-0.9-0.7l-1-0.7l-1-0.6l-2.1-0.7l-1-0.1l-4.5-0.5h-1.2l-1.1,0.1l-2.3,0.8l-2.1,1.3l-0.9,0.8
						l-0.9,0.9l-0.6,0.8l-0.6,1.1l-0.5,1.3l-0.6,1.4l-0.4,1.2l-0.3,1.3l-0.1,1.2v2.8l0.1,1.2l0.5,2.3l0.6,1.4L70,274l0.8,1.4l1,2
						l0.9,1.7l1.5,2.4l4.1,4.7l0.7,1l3.3,3.4l4,4.6l2.5,2.5l0.8,1.1l1.8,2.2l1.1,1.3l2.2,3l0.6,1.2L96,308l1.4,2.8l0.6,1.4l0.8,1.7
						l1.1,3.2l0.4,1.9l0.1,1.3l0.4,1.7l0.2,1.9l-0.6,5.4l-0.6,2.9l-0.4,3l-0.4,1.8l-0.7,1.9l-0.6,1.3l-0.8,1.7l-2.2,4l-1.3,1.8
						l-1.2,1.4l-1.5,1.4l-0.8,0.6l-1.2,1.1l-1.1,1.1l-3.2,2.3L82,357l-1.7,1l-3.3,1.3l-1.1,0.3l-1.8,0.6l-2,0.4l-1.2,0.1l-1.5,0.4
						L64.1,361.6z M59.9,355h3.9l4.6-0.5l1.4-0.4l1.4-0.2l1.3-0.3l3.7-1.2l1.3-0.5l1.4-0.8l2.4-1.2l2.3-1.7l0.8-0.8l2.2-1.8l1-1
						l0.8-0.9l0.8-1.2L91,339l0.7-1.5l0.6-1.1l0.4-1.1l0.3-1.2l0.4-3l0.6-2.9l0.4-4.1l-0.1-1l-0.4-1.7l-0.1-1.3l-0.2-1.1l-0.9-2.5
						l-0.6-1.3l-0.6-1.4l-1.2-2.5l-0.9-1.5l-0.6-1.1l-1.6-2.2l-1-1.2l-2.6-3.4l-2.2-2.2l-4-4.6l-3.6-3.7l-0.8-1.1l-4.2-5l-1.8-2.9
						l-1.1-2l-1-2l-1-1.9l-0.5-1.3l-0.8-2l-0.8-3.3l-0.2-1.9l0-3.6l0.2-1.8l0.4-2.1l0.6-1.8l0.6-1.4l0.7-1.7l1-1.8l1.2-1.6l1.4-1.4
						l1.6-1.3l3-1.9l3.8-1.3l2.4-0.2l1.9,0l6.4,0.7l1.9,0.6l1.7,0.6l1.8,1.1l1.4,1l1.5,1.4l1.3,1.6l1,1.6l0.9,1.8l1.1,3.1l0.2,2.3v3
						l0.1,1.2l0.3,1l0.5,0.7l0.3,0.2l0.4,0.1l1.7-0.2l0.6-0.3l0.3-0.2l0.1-0.2l0.2-0.9l0.1-1.2v-4.8l-0.3-2l-0.1-1.5l-0.3-1.2
						l-0.4-1.1l-0.8-1.4l-1.9-2.7l-1.6-1.9l-0.9-0.8l-1.1-0.9l-3.2-2l-1.4-0.6l-1.1-0.6l-1.1-0.4l-3-0.6l-3.7-0.3h-1.5l-2.8,0.2h-3
						l-2.6,0.6l-1.6,0.4l-3.8,1.4l-1.4,0.6l-2.5,1.2l-1,0.6l-0.9,0.8l-2,2l-0.9,1l-1.6,2.2l-1.2,2.4l-0.5,1.6l-0.5,1.2l-0.6,2.5
						l-0.5,4.8v1.9l0.2,1.8v1.3l0.1,1l0.3,1.1l1,2.6l0.9,2.7l0.6,1.3l0.9,1.6l3.4,4.8l1.1,1.4l2.9,3.4l1,1l1.1,1l4,4.6l0.8,0.8
						l1.3,1.1L75,301l1.2,1.4l0.8,1.1l1.1,1.3l0.7,1l1,1l1.3,1.6l2.8,4.5l2,4.9l0.4,2.5l0.4,2l0.4,4.5l-0.2,2.1l-0.4,2.5l-0.7,2.7
						l-0.7,2.2l-0.8,2l-1.1,2l-1.2,2l-1.3,1.7l-1.4,1.4l-1.6,1.8l-2,1.2l-1.7,0.8l-2.8,1.1L69,351l-7.4,0.5l-2.4,0l-1.8-0.2
						l-2.2-0.5l-1.5-0.6l-1.9-0.9l-1.5-1l-1.1-0.8l-1.7-1.1l-1.4-1.2l-1.2-1.2l-1.5-1.8l-0.5-0.8l-2.1-3.2l-1.7-5.2l-0.4-1.9
						l-0.5-4.9v-5.1l0.4-1.7l0.2-1.7l0.6-1.7l0.3-1.2l0.1-1.3v-1l-0.1-0.1l-0.2-0.2l-1.1-0.3h-1.5l-1,0.4l-0.4,0.4l-0.2,0.7
						l-1.9,8.4l-0.1,1.2l0,3.3l-0.1,1.1v2.8l0.1,1.2l1.6,6.9l0.8,2.4l0.7,0.9l0.8,1.3l1.5,2.2l0.8,1l2.4,2.4l2.4,1.8l1.8,1.1l1,0.7
						l0.9,0.5l3.1,1l3.5,0.7l1.2,0L59.9,355z"/>
				</g>
				<g>
					<path fill="#FFFFFF" d="M196.8,324.8l-0.3,0.8l-0.8,1.7l-0.8,1.2l-0.7,1.3l-0.7,1.5l-0.7,1.3l-1.7,2.7l-0.8,1.2l-0.8,1.3
						l-0.7,1.3l-0.8,1.3l-1,1.2l-1,1.3l-1,1.2l-1.8,2.4l-1,1.2l-1,1l-4.7,4l-1.3,0.8l-1.5,0.8l-1.8,0.8l-2,0.8l-1.5,0.5l-1.5,0.3
						h-1.7l-2-0.2l-2-0.5l-1.5-0.5l-1.2-0.8l-1.2-1l-1.2-1.7l-1.2-1.8L154,349l-0.5-2l-0.2-2.2v-1.7l0.2-2.2l0.2-2l-0.5-0.3
						l-0.8,1.2l-1.7,2.7l-1.7,2.4l-1,1.2l-0.8,1.2l-1,1.2l-0.8,1.2l-1.2,1l-1,1l-1.2,1l-1.2,0.8l-1.3,0.8l-1.8,1.2l-2.5,1.2
						l-2.7,0.8l-2.2,0.5l-3,0.3l-1.7-0.2l-2-0.3l-2-0.5l-1.5-0.5l-1.3-0.5l-1.2-0.8l-2.4-2l-0.8-1.2l-0.8-1.3l-1-1.8l-1-2.5
						l-0.5-2.2l-0.2-1.7l-0.3-2.2l-0.2-2.7v-2.2l0.2-1.7l0.2-2.2l0.3-2l0.5-1.7l0.5-2l0.5-2.2l0.5-1.5l0.7-1.3l0.5-1.5l4-8.1
						l0.8-1.3l0.8-1.2l0.8-1.3l1.7-2.4l1-1.2l2.2-2.5l0.7-0.7l1.2-1.3l2.4-2l1.5-1.5l1.8-1.3l2.4-1.8l1.3-0.8l1.2-0.8l1.5-0.7l2-0.8
						l1.8-1l1.7-0.8l2-0.7l2-0.5l1.7-0.5l4.2-0.3l1.5-0.2h2l3.4,0.2l3.9,0.3l3.7,0.7l1.5,0.3l1.8,0.5l6.7,3l1.2,1l1.2,0.8l1.2,1
						l1,1.2l0.3,1.8l-0.7,2.4l-1.8,2l-1.8,1.2l-1.3,0.2l-1.3-0.5l-1.3-1l-1.5-0.8l-1.3-0.8l-1.2-0.5l-1.3-0.7l-1.5-0.7l-1.3-0.3
						l-2.9-0.7l-1.7-0.5l-1.7-0.3h-3.4l-1.2,0.2l-1.7,0.2l-2.2,0.5l-4.2,1.5l-1.7,0.8l-1.7,1l-1.2,0.8l-1.3,0.8l-1.2,0.8l-1.2,1
						l-1.3,1.2l-0.7,0.7l-1.2,1.3l-1,1.2l-0.8,1.2l-2,2.4l-0.8,1.2l-0.8,1.3l-2,4l-0.8,1.3l-1,3l-0.7,1.5l-0.7,1.3l-1,4.5l-0.5,1.7
						l-0.5,4.5v4.7l0.2,1.7l0.5,1.5l0.7,1.3l0.8,1.3l1,1l1.5,0.7l2,0.3l2.2-0.2l1.5-0.5l2.7-1.3l2.4-2l1-1l1.2-1l1-1.2l0.8-1.2
						l1-1.2l0.8-1.2l1.8-2.5l0.8-1.2l2.5-4l1-1.8l1.2-2.2l0.7-1l2-4.4l0.7-1.5l0.3-1.2l0.7-1.5l0.5-1.3l0.5-1.5l0.7-1.8l1-3.4
						l0.7-1.8l0.5-1.7l1-1.5l1.7-0.8l1.5-0.3l1.5,0.2l1.5,0.3l2.7,1.3l1.3,0.8l0.7,1l0.2,1.5l-0.5,1.3l-0.3,1.5l-0.5,1.5l-0.7,3
						l-0.5,1.5l-0.3,1.3l-1,3l-0.3,1.7l-0.2,1l-0.5,2l-0.3,1.5l-0.7,2.9l-0.5,2l-0.3,1.7l-0.3,1.8l-0.5,2.5l-0.5,2.9l-0.2,2.5
						l0.2,2.2l0.8,1.3l1.7,0.8l2.5,0.2l2-0.7l1.5-0.8l2.4-1.7l1.2-1.2l2-2.2l2-2.4l1.7-2.4l0.8-1.3l1-1.3l0.3-1l2.7-4l0.7-1.3
						l0.8-1.3l3.4-6.7l1.5-0.8l2,0.3l1.3,1.7l0.2,1.7l-0.7,1.5L196.8,324.8z"/>
					<path fill="#FFFFFF" d="M127.2,361.6l-2.2-0.2l-2.3-0.4l-2.3-0.6l-3.4-1.2l-1.8-1.3l-2.7-2.3l-1.2-1.7l-0.9-1.5l-1.2-2.2
						l-1.2-3l-0.6-2.6l-0.2-1.6l-0.4-2.4l-0.2-2.9l0-2.5l0.4-4.1l0.4-2.4l0.5-1.6l1.1-4.4l0.7-2l0.6-1.1l0.6-1.7l4.2-8.3l1-1.5
						l0.8-1.1l0.9-1.4l1.9-2.6l3.4-3.9l0.6-0.6l1.4-1.6l2.3-1.9l1.8-1.8l1.8-1.3l2.6-2l1.3-0.8l1.4-1l3.7-1.6l1.8-1l2.1-1l2.3-0.7
						l1.9-0.5l1.9-0.6l6.3-0.5l2.2,0l3.5,0.2l4.2,0.4l3.8,0.7l1.7,0.4l2.3,0.7l7.2,3.2l1.4,1.2l1.3,0.9l1.5,1.4l1.6,1.9l0.6,3.5
						l-1.1,3.9l-2.7,2.9l-2.8,1.8l-2.9,0.4l-1.3-0.5l0.2,2.2l-0.7,1.9l-0.4,1.6l-0.5,1.4l-0.7,3.2l-0.5,1.4l-0.4,1.5l-0.9,2.8
						l-0.5,2.6l-2,8.3l-1.2,6l-0.5,2.6l-0.1,2.1l0.1,1l0.2,0.1l1.2,0.1l1.1-0.4l1.1-0.6l2-1.4l0.9-0.9l1.9-2.1l1.9-2.2l1.5-2.2
						l0.9-1.5l0.7-0.9l0.3-0.9l2.8-4.2l0.7-1.4l0.8-1.2l3.8-7.5l3.4-1.9l4.4,0.7l2.8,3.4l0.4,3.5l-1.1,2.5l-0.8,1.6l-0.4,1l-1.1,2.1
						l-0.7,1l-0.5,1l-0.7,1.6l-0.8,1.6l-1.8,2.9l-0.8,1.1l-0.7,1.1l-0.8,1.5l-1.1,1.7l-0.9,1.1l-1.1,1.4l-1,1.1l-1.9,2.4l-1.2,1.4
						l-1.2,1.2l-5.1,4.3l-1.5,0.9l-1.8,1l-1.8,0.8l-2.3,1l-1.8,0.6l-1.9,0.4l-2.3,0l-2.5-0.3l-2.3-0.6l-2-0.7l-1.8-1.3l-1.5-1.3
						l-1.5-2.1l-1.4-2.2l-0.7-2.1l-0.4-1.5l-0.8,1l-0.9,1.1l-1,1.4l-1.4,1.2l-1.1,1.1l-1.4,1.2l-1.3,1l-3.6,2.2l-2.9,1.3l-2.9,0.9
						l-2.6,0.6L127.2,361.6z M125.9,354.8l1.2,0.1l2.5-0.3l1.9-0.4l2.4-0.7l2.1-1l2.9-1.9l1-0.7l1-0.8l1.1-1.1l0.9-0.7l0.8-1.1
						l0.9-1.1l0.9-1.3l0.9-1.1l1.5-2.2l1.9-3l-2.1,2.9l-0.9,1.1l-0.9,1.3l-1.4,1.5l-1.1,0.9l-1.1,1.1l-2.7,2.3l-3.5,1.7l-1.9,0.6
						l-3,0.2l-2.8-0.5l-2.5-1.1l-1.7-1.7l-1.2-1.9l-0.9-1.8l-0.6-1.9l-0.2-2.4l0-5.1l0.6-5.1l0.5-1.6l1.1-4.8l0.8-1.6l0.6-1.3
						l1.1-3.3l1-1.5l2.1-4.2l1-1.5l1-1.4l1.9-2.2l0.9-1.3l2.4-2.7l0.8-0.8l2.8-2.4l1.3-1l1.3-0.8l1.3-0.9l1.9-1.1l2-1l4.6-1.6
						l2.6-0.6l3.2-0.4h3.7l2.3,0.5l1.6,0.5l4.7,1.2l1.7,0.7l1.3,0.6l1.5,0.7l1.3,0.8l1.8,1l1,0.7l0.7-0.5l1-1.1l0.2-0.9l0-0.2
						l-0.3-0.3l-0.9-0.7l-1.3-0.9l-0.8-0.7l-6.1-2.7l-1.5-0.4l-1.4-0.3l-3.5-0.6l-3.7-0.3l-3.2-0.2h-1.8l-1.3,0.1l-4,0.3l-1.5,0.4
						l-1.9,0.5l-1.7,0.6l-1.4,0.7l-2.1,1.1l-3.2,1.3l-1.1,0.8l-1.2,0.7l-2.3,1.8l-1.6,1.2l-1.5,1.5l-2.2,1.9l-1.2,1.3l-0.6,0.6
						l-3,3.5l-1.5,2.2l-0.9,1.4l-0.8,1.1L121,313l-3.9,7.7l-0.6,1.7l-0.6,1.1l-0.4,1.1l-1,4.3l-0.4,1.5l-0.3,1.7l-0.3,3.6v1.9
						l0.2,2.4l0.3,2.2l0.1,1.5l0.4,1.7l0.8,2.1l0.9,1.6l0.7,1.2l0.5,0.8l1.9,1.7l0.7,0.5l2.2,0.8l1.8,0.4L125.9,354.8z M164.9,353.8
						h1.2l1-0.2l1.2-0.4l1.9-0.8l1.6-0.7l1.3-0.7l1.1-0.7l3.5-3l-1.9,1.3l-1.8,1l-2.9,1l-3.8-0.3l-3.1-1.6l-1.8-2.8l-0.2-3.2
						l0.2-3.1l0.5-2.9l1.2-6.3l2-8.3l0.1-0.9l0.5-2.2l1-2.9l0.4-1.5l0.5-1.4l0.7-3.2l0.5-1.4l0.4-1.8l0.2-0.4l-0.4-0.2l-2.2-1.1
						l-0.9-0.2L166,305l-0.6,0.1l-0.5,0.3l-0.2,0.4l-0.4,1.4l-0.6,1.8l-1,3.5l-1.8,4.9l-0.6,1.3l-0.4,1.4l-0.7,1.5l-2.3,4.9
						l-0.6,0.9l-2.2,4.1l-2.4,3.9l0.8-1.1l4.8,3.2l-0.5,6v1.4l0.1,1.8l0.4,1.6l0.3,1l0.9,1.4l0.9,1.3l0.7,0.6l0.7,0.5l0.9,0.3
						l1.6,0.4L164.9,353.8z M130.3,344.5l1.2,0.2l1.4-0.1l0.9-0.3l2.1-1.1l1.9-1.7l1.1-1.1l1-0.8l0.7-0.9l0.9-1.3l0.9-1.1l3.4-4.7
						l2.4-3.9l2.3-4.2l0.5-0.8l2.5-5.4l0.4-1.4l0.6-1.4l0.4-1.2l1.2-3.3l1-3.5l0.6-1.8l0.6-2.1l1.8-2.7l2.5-1.3l-0.6-0.2l-1.2-0.2
						h-2.8l-1.1,0.2l-1.5,0.1l-1.8,0.4l-3.8,1.4l-1.4,0.7l-1.5,0.9l-1.2,0.9l-1.3,0.8l-1,0.7l-2.3,2l-0.5,0.5l-2,2.3l-0.9,1.3
						l-1.9,2.2l-0.7,1l-0.7,1.1l-2.1,4.2l-0.6,1l-1,3l-1.2,2.6l-1,4.4l-0.4,1.4l-0.5,4.1v4.4l0.1,1.1l0.3,0.9l0.5,1l0.6,0.9l0.3,0.3
						L130.3,344.5z"/>
				</g>
				<g>
					<path fill="#FFFFFF" d="M230.2,297.1l-1.3,0.7l-1.2,0.7l-1.2,0.8l-1.3,1l-1.2,1l-2.7,1.8l-1.2,0.8l-1.2,1l-1.2,1.2l-2,2.4
						l-1.2,1.2l-2,2.4l-1.7,2.7l-1,1.3l-2,4l-1.8,5.5l-0.5,2.2l-0.7,2.5l-0.7,2.2l-1,4.5l-0.7,2.2l-0.7,2.5l-0.5,2.2l-0.5,1.5
						l-0.5,2.2l-0.3,1.8l-0.5,1.7l-0.2,1.5l-0.3,1.3l-0.5,1.3l-1,0.8l-1.5,0.5l-1.5,0.2l-2.2,0.2l-2.5-0.2l-2.2-0.3l-1.3-0.7l-1-1.5
						l-0.2-1.8l0.3-1.7l0.5-2.2l0.5-2l0.3-1.5l0.5-1.5l0.3-1.5l0.5-1.3l0.5-1.5l0.3-1.5l0.3-1.3l0.3-1.5l0.5-1.5l0.5-1.3l0.7-3
						l0.3-1.3l0.2-1.5l0.5-1.5l0.3-1.5l0.5-1.5l0.5-2l0.7-2.2l0.8-3l0.3-1.3l0.3-1.5l0.5-1.5l0.3-1.5l0.5-1.3l0.3-1.5l0.5-1.5
						l0.5-2.2l0.5-2l0.3-1.5l1-3l0.3-1.3l0.5-1.5l0.7-3l1.2-1.7l2.2-1.2l2.7-0.3l2.7,0.3l2.5,0.8l1.7,1.7l0.3,2l-0.3,1.7l-0.3,1.2
						l-0.5,1.5l-0.3,1.5l-0.5,1.3l-0.3,1.5l-0.5,1.5l-0.3,1.5l-0.2,1l0.2,0.2l0.7-0.8l1-1.2l0.8-1.2l2-2.4l1.2-1l2.2-1.8l1.2-1
						l2.2-2.2l3.4-2.7l1.3-0.8l1.3-0.7l1.3-0.8l1.3-0.5l1.5-0.5l2.2-0.5l2-0.3h3.9l2.7,0.3l1.9,0.3l1.5,0.7l1.5,0.8l1.2,1.2l0.8,1.2
						l0.8,1.3l0.7,1.3l0.5,1.5l0.5,2l0.3,2v3.2l-0.2,1.5v1.5l-0.2,1.3l-0.3,1.5l-0.3,1.7l-0.3,1l-0.5,1.7l-0.5,2.2l-0.7,2.5
						l-0.7,2.2l-0.5,1.5l-0.5,2.2l-0.7,2.9l-0.7,2.7l-0.7,2.4l-0.3,1.5l-0.3,1.2l-0.3,1.5l-0.5,1.5l-0.3,1.3l-1,4.5l-0.2,1.5v3
						l0.7,1.3l1.2,0.8l1.5,0.2l1.5-0.5l1.5-0.7l1.3-0.8l1.2-0.8l1.3-1l2.2-2.2l0.8-1.2l1-1.3l0.8-1.2l1.2-1.3l0.8-1.2l1-1.5l1.5-2.5
						l1-1.5l0.5-0.8l1-1.5l0.8-1.5l1.3-2.7l0.7-1.5l0.5-1.3l0.5-1.5l0.8-1.3l1.5-1l2.2,0.5l1.3,1.7v1.7l-0.5,1.5l-0.7,1.3l-0.7,1.5
						l-0.7,1.3l-0.8,1.3l-0.7,1.3l-1,1.5l-0.5,1l-1.7,3l-0.3,1l-0.8,1.5l-1.7,2.7l-1,1.5l-0.7,0.8l-1,1.3l-1.2,1.5l-1,1.2l-1.8,2
						l-1,1.2l-2.4,2l-1,1l-1.3,1l-1.3,0.8l-2.7,1.3l-1.3,0.5l-1.5,0.5l-1.5,0.3l-1.3,0.2l-1.7,0.2h-1.5l-1.5-0.2l-1.3-0.3l-1.5-0.5
						l-1.3-0.5l-1.3-0.8l-1-0.8l-1-1.2l-0.7-1.5l-0.5-1.3l-0.3-1.5l-0.3-1.3v-3.7l0.3-2.2l0.2-1.7l0.5-2.2l1.5-5.5l0.5-2.9l0.7-2.9
						l0.7-2.7l0.7-2.2l0.5-1.5l0.7-2.2l0.7-2.7l0.5-2.7l0.7-2.2l0.7-3l0.2-1.5l0.7-3.2l0.2-1.5l-0.3-1.7l-1-1.7l-1.5-1.5l-1.5-0.5
						l-1.5-0.2l-1.5,0.2L230.2,297.1z"/>
					<path fill="#FFFFFF" d="M242.3,361.6l-2,0l-2-0.2l-1.6-0.4l-3.3-1.2l-2-1.3l-1.4-1.2l-1.3-1.5l-0.9-2.1l-0.6-1.8l-0.8-3.2
						l0-4.6l0.3-2.1l0.2-2l0.5-2.3l1.5-5.4l0.5-2.9l1.4-5.8l1.8-5.8l0.6-2.5l0.6-3l0.6-2.1l0.6-2.7l0.2-1.7l0.6-3l0.1-0.8l-0.1-0.6
						l-0.5-0.8l-0.7-0.7l-0.4-0.1l-0.8-0.1l-0.8,0.1l-1.3,0.5l-1.1,0.5l-1,0.5l-2.2,1.6l-1.4,1.2l-3.7,2.6l-1,0.8l-1,1l-2.1,2.4
						L217,312l-1.8,2.1l-1.7,2.7l-0.8,1.1l-1.8,3.6l-1.7,5.2l-0.5,2.1l-0.7,2.6l-0.6,2.1l-1,4.7l-0.7,2.1l-0.6,2.4l-0.6,2.4
						l-0.5,1.4l-0.5,2l-0.4,2.1l-0.4,1.4l-0.2,1.7l-0.4,1.7l-0.8,2.2l-2.2,1.8l-2.4,0.8l-2,0.2l-2.4,0.2l-3-0.2l-2.7-0.4l-2.6-1.3
						l-2-2.9l-0.3-3.2l0.4-2.2l1.5-6.1l0.5-1.4l0.4-1.8l0.9-2.6l1.1-4.5l1-2.8l0.9-4l0.2-1.6l0.6-1.7l0.4-1.7l0.5-1.4l0.5-2.1
						l0.7-2.2l1.1-4.2l0.4-1.8l0.5-1.4l0.4-1.8l0.4-1.1l0.4-1.6l0.5-1.4l1.4-5.9l1-2.9l0.4-1.5l0.5-1.4l0.8-3.5l2-2.9l3.4-1.8
						l3.7-0.5l3.4,0.4l3.6,1.2l3,3l0.6,3.7l-0.3,1.5l0.6-0.5l2.4-2.3l3.7-2.9l1.6-1l1.2-0.6l1.5-0.9l1.8-0.7l1.8-0.6l2.4-0.5
						l2.6-0.4l4.3,0l2.9,0.4l2.2,0.4l2.1,1l1.9,1.1l1.9,1.9l1,1.3l1,1.6l0.9,1.8l0.6,1.8l0.6,2.3l0.4,2.6l0,3.6l-0.1,1.3l0,1.7
						l-0.2,1.7l-0.8,3.5l-0.8,2.5l-0.5,2.2l-0.7,2.6l-1.1,3.6l-1.9,7.7l-0.6,2.3l-0.4,1.6l-0.3,1.1l-0.4,1.7l-0.5,1.4l-0.3,1.2
						l-0.9,4.3l-0.1,1.2v1.7l0.4-0.1l1.2-0.5l1.1-0.7l2.2-1.6l1.8-1.8l2.7-3.7l1.1-1.2l1.6-2.4l1.6-2.6l2.4-3.8l0.7-1.3l1.3-2.6
						l0.6-1.4l0.4-1.2l0.6-1.8l1.4-2.3l3.3-2.2l4.7,1.1l2.8,3.5v3.4l-0.9,2.5l-0.6,1.3l-0.7,1.6l-0.8,1.6l-0.8,1.2l-0.8,1.6
						l-0.9,1.3l-0.5,1l-1.5,2.8l-0.3,1l-1.1,1.9l-2.9,4.5l-4,5l-3.1,3.5l-2.3,1.9l-1.3,1.2l-1.6,1.2l-1.6,1l-3,1.5l-1.5,0.5
						l-1.8,0.6l-1.8,0.4L242.3,361.6z M240.8,355h1.2l2.6-0.3l1.2-0.3l2.4-0.9l2.4-1.2l1.1-0.7l1-0.8l1-1l2.2-1.9l-2.3,1.7l-1.8,1.1
						l-1.8,0.8l-2.2,0.7l-3.1-0.3l-2.6-1.8l-1.4-2.8l0-4.2l0.2-1.9l1.4-6.2l0.5-1.4l0.3-1.5l0.3-1.1l0.4-1.6l0.7-2.3l1.9-7.9
						l1.1-3.6l0.6-2.4l0.5-2.3l0.8-2.6l0.6-2.9l0.1-1l0-1.7l0.1-1.3v-2.7l-0.3-1.6l-0.4-1.8l-0.4-1.2l-0.5-1l-0.7-1.1l-0.6-0.9
						l-0.7-0.7l-1-0.5l-1-0.5l-1.4-0.2l-2.4-0.3h-3.4l-1.6,0.3l-1.9,0.4l-2.3,0.8l-1.3,0.8l-1.2,0.6l-1,0.7l-3.1,2.5l-2.2,2.2
						l-3.7,3.1l2.5-1.7l1.2-1l2.9-2.1l1.3-0.8l1.7-0.8l2.2-0.8l2.3-0.3l2.2,0.2l2.6,0.9l2.4,2.4l1.5,2.5l0.6,2.7l-0.3,2.3l-0.6,3
						l-0.2,1.7l-0.7,3.3l-0.6,2l-0.5,2.7l-0.7,2.9l-1.8,5.8l-1.3,5.3l-0.6,3.1l-1.5,5.5l-0.4,1.9l-0.2,1.6l-0.3,1.9v3l0.5,2.3l0.4,1
						l0.4,1l0.5,0.6l0.6,0.5l0.9,0.5l2.3,0.8l1,0.3L240.8,355z M190.1,353.6l2.1,0.1l3-0.3l0.5-0.2l0.1-0.3l0.2-0.9l0.3-1.9l0.5-1.5
						l0.3-1.8l0.6-2.5l0.5-1.4l0.5-2.1l0.7-2.6l0.6-2.1l1-4.7l0.7-2.1l0.6-2.4l0.6-2.4l2-6l2.3-4.5l0.9-1.2l1.9-3l1.3-1.6l-3.2-3.2
						l0.5-2.9l0.4-1.8l0.5-1.4l0.4-1.8l0.4-1.1l0.4-1.6l0.8-2.4l0.2-1l-0.1-0.4l-0.4-0.4l-1.5-0.5l-2-0.2l-1.7,0.2l-0.9,0.5
						l-0.3,0.5l-0.6,2.7l-0.5,1.4l-0.4,1.5l-1,2.9l-0.3,1.3l-1.1,4.5l-0.5,1.4l-0.4,1.8l-0.4,1.1l-0.4,1.6l-0.5,1.4l-0.7,2.8
						l-0.9,3.1l-0.7,2.2l-0.6,2.2l-0.5,1.4l-0.4,1.7l-0.4,1.2l-0.2,1.6l-0.3,1.3l-0.8,3.4l-0.9,2.6l-1.1,4.5l-1,2.8l-0.4,1.6
						l-0.5,1.4l-0.3,1.3l-1.2,5.3l0.1,0.6l0.1,0L190.1,353.6z"/>
				</g>
				<g>
					<path fill="#FFFFFF" d="M324,320v1.8l-0.7,1.7l-2,3.7l-0.7,1.5L320,330l-1.7,2.7l-0.7,1.2l-0.8,1.3l-1.3,2.5l-0.7,1.2l-1,1.5
						l-2,2.4l-0.8,1.3l-0.8,1.2l-1,1.2l-3.2,3.2l-2.4,1.8l-2.4,2l-1.3,1l-1.8,1l-2,0.8l-1.5,0.7l-1.5,0.5l-1.3,0.3l-1.5,0.2h-4.7
						l-1.5-0.2l-1.5-0.3l-2-0.7l-1.8-0.8l-1.3-0.8l-2.4-2l-0.8-1.2l-0.8-1.3l-1.3-2.7l-0.5-1.3l-0.5-1.5l-0.3-1.5l-0.3-1.3v-1.5
						l-0.2-1.5v-1.5l-0.2-1.7v-1.5l0.5-4.5v-1.5l0.8-7.6l0.3-1.5l0.2-1.5l0.7-3l0.5-2.2l0.5-2l0.3-1.5l0.5-1.5l0.3-1.5l0.5-1.5
						l0.3-1.5l0.3-2l0.7-2.2l1-3v-1.3l-0.5-0.8l-1.2-0.3l-1.3-0.2l-1.7-0.3l-1.7-0.7l-1.2-1.5l-0.3-1.5l-0.2-1.7l0.3-1.3l0.7-1.2
						l1.2-0.8l2.2-0.2l2.5,0.2h2.5l1.7-0.5l0.7-1.2l0.3-1.7l0.3-1.3l0.5-1.5l0.7-1.3l0.7-1.5l0.5-1.3l1-3l0.7-3l0.5-1.5l0.7-1.3l1-3
						l0.5-1.3l0.7-1.5l0.5-1.5l0.5-1.3l0.5-1.5l0.7-1.3l0.7-1.5l0.3-1.3l0.5-1.5l0.7-1.5l0.8-1.2l1.3-0.8l1.5-0.3l1.7,0.2l2,0.3
						l2.2,0.5l1.5,0.8l1.3,1.2l0.5,1.8l-0.3,1.5l-0.8,2.2l-1,2.4l-0.8,2.2l-0.5,1.7l-0.3,1l-0.5,1.7l-1.8,5.5l-0.5,1.3l-0.5,1.5
						l-0.7,2.2l-1,2.5l-1.2,3.5l-0.3,1.5l-0.7,1.3l-0.5,1.3v1.2l1,0.8l1.8,0.3h1.7l2.9-0.2l2.4-0.2h5.2l2.2,0.2l1.2,1l0.3,1.8v2.2
						l-0.5,1.5l-0.8,1.2l-1.2,0.8l-1.5,0.5l-1.5,0.3l-1.7,0.2l-4.5,0.2h-1.8l-1.5-0.2h-6.2l-1,0.7l-0.5,1.3l-0.7,2l-0.7,2.7
						l-0.7,2.9l-0.8,2.7l-0.7,2.9l-0.7,2.7l-0.5,2.4l-0.2,1l-0.5,2.4l-0.5,1.8l-0.5,1.7l-0.7,3l-0.2,2l-0.3,2.2l-0.3,3v4.7l0.3,2.2
						l0.3,2l0.5,1.5l0.7,1.5l0.8,1.2l1.8,1.2l2.4,1l1.8,0.3h1.7l1.8-0.3l4-2l4.7-4l1.2-1.2l0.8-1l1.7-2.2l2.2-2.7l0.8-1.2l0.7-1.3
						l0.8-1.3l1-1.3l0.8-1.2l0.8-1.3l0.7-1.3l0.5-1.5l0.8-1.7l0.8-1.3l1-1.7l2-1.3l2.2,0.3L324,320z"/>
					<path fill="#FFFFFF" d="M290.2,361.4l-5.3,0l-1.9-0.2l-1.8-0.4l-2.3-0.8l-2.2-1l-1.7-1.1l-2.7-2.3l-1.2-1.7l-1-1.6l-1.5-3
						l-0.5-1.5l-0.6-1.8l-0.8-3.2V341l-0.2-1.7v-1.3l-0.2-1.8l0-1.9l0.5-4.4l0-1.7l0.9-7.9l0.3-1.3l0.2-1.7l2.1-9.1l0.5-1.4l0.4-1.7
						l0.5-1.4l0.3-1.3l0.4-2.4l1.2-3.7l-2-0.4l-2.8-1.1l-2.2-2.8l-0.6-2.6l-0.2-2.3l0.6-2.4l1.3-2.2l2.5-1.8l3.3-0.3l2.7,0.2h1.7
						l0.2-0.8l0.4-1.6l0.7-1.9l0.6-1.3l0.6-1.4l0.4-1.2l0.9-2.8l0.7-3.2l0.7-2l0.6-1.1l1.6-4.4l0.6-1.4l1.6-4.7l0.6-1.3l0.5-1.2
						l0.3-1.3l0.6-1.8l0.8-1.8l1.4-2l2.4-1.5l2.6-0.6l2.4,0.3l2.2,0.4l2.6,0.6l2.2,1.2l2.4,2.1l1,3.6l-0.7,2.8l-0.9,2.3l-1,2.3
						l-0.8,2l-1.3,4.3l-3.6,10.9l-1,2.4l-1.1,3.3l-0.4,1.7l-0.3,0.6h0.4l5.3-0.3l5.5,0l3.3,0.3l2.9,2.5l0.6,3.6v2.7l-0.8,2.5l-1.5,2
						l-2,1.5l-2.3,0.8l-1.9,0.4l-1.9,0.2l-4.7,0.2l-2.2,0l-1.3-0.1h-4.5l-0.5,1.6l-1.4,5.6l-0.8,2.6l-1.8,7.6l-0.2,1.1l-0.5,2.5
						l-1,3.5l-0.6,2.7l-0.2,2l-0.3,2.1l-0.3,2.8v4.3l0.6,3.7l0.4,1.1l0.5,1.1l0.3,0.4l1.1,0.7l1.8,0.8l1.2,0.2h1.1l1.1-0.2l3.2-1.6
						l4.3-3.7l1-1l0.7-0.8l1.6-2.1l2.2-2.7l0.6-0.9l0.7-1.4l1-1.6l1.7-2.4l0.7-1.1l0.5-1l0.6-1.7l1-2l2.2-3.6l3.7-2.5l4.7,0.7
						l2.9,3.6v3.7l-1.1,2.6l-2,3.6l-0.7,1.5l-0.8,1.6l-3.1,5.1l-2.1,3.9l-1.2,1.8l-1.9,2.2l-0.8,1.3l-1,1.4l-1.2,1.4l-3.5,3.5
						l-2.3,1.8l-2.5,2.1l-1.7,1.3l-2.2,1.2l-3.8,1.6l-1.8,0.6l-1.8,0.4L290.2,361.4z M285.5,354.8h4.3l1.1-0.1l1-0.3l1.2-0.4
						l3.3-1.4l1.5-0.8l1.1-0.8l2.4-2l2.2-1.7l3-3l0.8-1l0.7-1l1.1-1.7l1.9-2.2l0.8-1.3l0.7-1.2l-0.5,0.7l-2.2,2.7l-2.8,3.4l-1.4,1.4
						l-5,4.3l-4.8,2.4l-2.9,0.5l-2.3-0.1l-2.2-0.4l-3.2-1.4L283,348l-1.4-2l-0.9-2.1l-0.6-2l-0.7-4.7l0-5.1l0.4-3.2l0.3-2.1l0.2-2.3
						l0.7-3.3l1-3.4l1.2-5.7l1.4-5.7l0.8-2.6l1.4-5.7l1.6-4.5l2.7-1.8l7.6,0l1.3,0.1h1.6l4.4-0.2l1.4-0.1l1.2-0.3l0.9-0.3l0.3-0.2
						l0.2-0.3l0.2-0.5v-1.3l-0.5,0h-5l-5.3,0.3l-2.3-0.1l-2.7-0.5l-2.9-2.4v-3.3l0.9-2.2l0.5-1l0.3-1.4l1.2-3.7l1-2.4l1.2-3.8
						l0.5-1.3l3.2-10l0.9-2.3l1-2.3l0.7-1.9l0.1-0.5l0-0.1l-0.3-0.3l-0.8-0.4l-1.6-0.4l-1.8-0.3l-1-0.1l-0.4,0.1l-0.3,0.2l-0.3,0.4
						l-0.5,1.1l-0.4,1.2l-0.5,1.8l-0.7,1.7l-0.6,1.1l-1.6,4.4l-0.6,1.4l-0.4,1.2l-1.2,3.4l-0.6,1.1l-0.4,1.1l-0.7,3.2l-1.6,4.7
						l-0.7,1.6l-0.6,1.1l-0.4,1.2l-0.3,1.1l-0.4,2.1l-1.6,2.8l-3.4,1l-3.2,0l-2.3-0.2l-0.9,0.1l-0.1,0.3l0.1,0.9l0.1,0.6l0.2,0.2
						l0.6,0.2l1.3,0.3l1.7,0.3l2.4,0.7l1.7,2.8v2.8l-1.8,5.4l-0.3,2l-0.4,1.8l-0.5,1.4l-0.4,1.7l-0.5,1.4l-0.3,1.3l-1,4.2l-0.6,2.8
						l-0.2,1.7l-0.3,1.3l-0.8,7.2l0,1.7l-0.5,4.4v1.2l0.2,1.8v1.3l0.2,1.7v1.1l0.6,2.4l0.9,2.4l1.2,2.4l0.7,1.1l0.5,0.8l1.9,1.6
						l0.9,0.6l1.5,0.7l1.7,0.6l1.2,0.3L285.5,354.8z"/>
				</g>
				<g>
					<path fill="#FFFFFF" d="M400.9,324.8l-0.3,0.8l-0.8,1.7l-0.8,1.2l-0.7,1.3l-0.7,1.5l-0.7,1.3l-1.7,2.7l-0.8,1.2l-0.8,1.3
						l-0.7,1.3l-0.8,1.3l-1,1.2l-1,1.3l-1,1.2l-1.8,2.4l-1,1.2l-1,1l-4.7,4l-1.3,0.8l-1.5,0.8l-1.8,0.8l-2,0.8l-1.5,0.5l-1.5,0.3
						h-1.7l-2-0.2l-2-0.5l-1.5-0.5l-1.2-0.8l-1.2-1l-1.2-1.7l-1.2-1.8l-0.5-1.5l-0.5-2l-0.2-2.2v-1.7l0.2-2.2l0.2-2l-0.5-0.3
						l-0.8,1.2l-1.7,2.7l-1.7,2.4l-1,1.2l-0.8,1.2l-1,1.2l-0.8,1.2l-1.2,1l-1,1l-1.2,1l-1.2,0.8l-1.3,0.8l-1.8,1.2l-2.5,1.2
						l-2.7,0.8l-2.2,0.5l-3,0.3l-1.7-0.2l-2-0.3l-2-0.5l-1.5-0.5l-1.3-0.5l-1.2-0.8l-2.4-2l-0.8-1.2l-0.8-1.3l-1-1.8l-1-2.5
						l-0.5-2.2l-0.2-1.7l-0.3-2.2l-0.2-2.7v-2.2l0.2-1.7l0.2-2.2l0.3-2l0.5-1.7l0.5-2l0.5-2.2l0.5-1.5l0.7-1.3l0.5-1.5l4-8.1
						l0.8-1.3l0.8-1.2l0.8-1.3l1.7-2.4l1-1.2l2.2-2.5l0.7-0.7l1.2-1.3l2.4-2l1.5-1.5l1.8-1.3l2.4-1.8l1.3-0.8l1.2-0.8l1.5-0.7l2-0.8
						l1.8-1l1.7-0.8l2-0.7l2-0.5l1.7-0.5l4.2-0.3l1.5-0.2h2l3.4,0.2l3.9,0.3l3.7,0.7l1.5,0.3l1.8,0.5l6.7,3l1.2,1l1.2,0.8l1.2,1
						l1,1.2l0.3,1.8l-0.7,2.4l-1.8,2L384,302l-1.3,0.2l-1.3-0.5l-1.3-1l-1.5-0.8l-1.3-0.8l-1.2-0.5l-1.3-0.7l-1.5-0.7l-1.3-0.3
						l-2.9-0.7l-1.7-0.5l-1.7-0.3h-3.4l-1.2,0.2l-1.7,0.2l-2.2,0.5l-4.2,1.5l-1.7,0.8l-1.7,1l-1.2,0.8l-1.3,0.8l-1.2,0.8l-1.2,1
						l-1.3,1.2l-0.7,0.7l-1.2,1.3l-1,1.2l-0.8,1.2l-2,2.4l-0.8,1.2l-0.8,1.3l-2,4l-0.8,1.3l-1,3l-0.7,1.5l-0.7,1.3l-1,4.5l-0.5,1.7
						l-0.5,4.5v4.7l0.2,1.7l0.5,1.5l0.7,1.3l0.8,1.3l1,1l1.5,0.7l2,0.3l2.2-0.2l1.5-0.5l2.7-1.3l2.4-2l1-1l1.2-1l1-1.2l0.8-1.2
						l1-1.2l0.8-1.2l1.8-2.5l0.8-1.2l2.5-4l1-1.8l1.2-2.2l0.7-1l2-4.4l0.7-1.5l0.3-1.2l0.7-1.5l0.5-1.3l0.5-1.5l0.7-1.8l1-3.4
						l0.7-1.8l0.5-1.7l1-1.5l1.7-0.8l1.5-0.3l1.5,0.2l1.5,0.3l2.7,1.3l1.3,0.8l0.7,1l0.2,1.5l-0.5,1.3l-0.3,1.5l-0.5,1.5l-0.7,3
						l-0.5,1.5l-0.3,1.3l-1,3l-0.3,1.7l-0.2,1l-0.5,2l-0.3,1.5l-0.7,2.9l-0.5,2l-0.3,1.7l-0.3,1.8l-0.5,2.5l-0.5,2.9l-0.2,2.5
						l0.2,2.2l0.8,1.3l1.7,0.8l2.5,0.2l2-0.7l1.5-0.8l2.4-1.7l1.2-1.2l2-2.2l2-2.4l1.7-2.4l0.8-1.3l1-1.3l0.3-1l2.7-4l0.7-1.3
						l0.8-1.3l3.4-6.7l1.5-0.8l2,0.3l1.3,1.7l0.2,1.7l-0.7,1.5L400.9,324.8z"/>
					<path fill="#FFFFFF" d="M331.3,361.6l-2.2-0.2l-2.3-0.4l-2.3-0.6l-3.4-1.2l-1.8-1.3l-2.7-2.3l-1.2-1.7l-0.9-1.5l-1.2-2.2
						l-1.2-3l-0.6-2.6l-0.2-1.6l-0.4-2.4l-0.2-2.9l0-2.5l0.4-4.1l0.4-2.4l0.5-1.6l1.1-4.4l0.7-1.9l0.6-1.1l0.6-1.7l4.2-8.3l1-1.5
						l0.8-1.1l0.9-1.4l1.9-2.6l3.4-3.9l0.6-0.6l1.4-1.6l2.3-1.9l1.8-1.8l1.8-1.3l2.6-2l1.3-0.8l1.4-1l3.7-1.6l1.8-1l2.1-1l2.3-0.7
						l1.9-0.5l1.9-0.6l6.3-0.5l2.2,0l3.5,0.2l4.2,0.4l3.8,0.7l1.7,0.4l2.3,0.7l7.2,3.2l1.4,1.2l1.3,0.9l1.5,1.4l1.6,1.9l0.6,3.5
						l-1.1,3.9l-2.7,2.9l-2.8,1.8l-2.9,0.4L381,305l0.2,2.2l-0.7,1.9l-0.4,1.6l-0.5,1.4l-0.7,3.2l-0.5,1.4l-0.4,1.5l-0.9,2.8
						l-0.5,2.6l-2,8.3l-1.2,6l-0.5,2.6l-0.1,2.1l0.1,1l0.2,0.1l1.2,0.1l1.1-0.4l1.1-0.6l2-1.4l0.9-0.9l1.9-2.1l1.9-2.2l1.5-2.2
						l0.9-1.5l0.7-0.9l0.3-0.9l2.8-4.2l0.7-1.4l0.8-1.2l3.8-7.5l3.4-1.9l4.4,0.7l2.8,3.4l0.4,3.5l-1.1,2.5l-0.8,1.6l-0.4,1l-1.1,2.1
						l-0.7,1l-0.5,1l-0.7,1.6l-0.8,1.6l-1.8,2.9l-0.8,1.1l-0.7,1.1l-0.8,1.5l-1.1,1.7l-0.9,1.1l-1.1,1.4l-1,1.1l-1.9,2.4l-1.2,1.4
						l-1.2,1.2l-5.1,4.3l-1.5,0.9l-1.8,1l-1.8,0.8l-2.3,1l-1.8,0.6l-1.9,0.4l-2.3,0l-2.5-0.3l-2.3-0.6l-2-0.7l-1.8-1.3l-1.5-1.3
						l-1.5-2.1l-1.4-2.2l-0.7-2.1l-0.4-1.5l-0.8,1l-0.9,1.1l-1,1.4l-1.4,1.2l-1.1,1.1l-1.4,1.2l-1.3,1l-3.6,2.2l-2.9,1.3l-2.9,0.9
						l-2.6,0.6L331.3,361.6z M330,354.8l1.2,0.1l2.5-0.3l1.9-0.4l2.4-0.7l2.1-1l2.9-1.9l1-0.7l1-0.8l1.1-1.1l0.9-0.7l0.8-1.1
						l0.9-1.1l0.9-1.3l0.9-1.1l1.5-2.2l1.9-3l-2.2,3l-0.9,1.1l-0.9,1.3l-1.4,1.5l-1.1,0.9l-1.1,1.1l-2.7,2.3l-3.5,1.7l-1.9,0.6
						l-3,0.2l-2.8-0.5l-2.5-1.1l-1.7-1.7l-1.2-1.9l-0.9-1.8l-0.6-1.9l-0.2-2.4l0-5.1l0.6-5.1l0.5-1.6l1.1-4.8l0.8-1.6l0.6-1.3
						l1.1-3.3l1-1.5l2.1-4.2l1-1.5l1-1.4l1.9-2.2l0.9-1.3l2.4-2.7l0.8-0.8l2.8-2.4l1.3-1l1.3-0.8l1.3-0.9l1.9-1.1l2-1l4.6-1.6
						l2.6-0.6l3.2-0.4h3.7l2.3,0.5l1.6,0.5l4.7,1.2l1.6,0.7l1.3,0.6l1.5,0.7l1.3,0.8l1.8,1l1,0.7l0.7-0.5l1-1.1l0.2-0.9l0-0.2
						l-0.3-0.3l-0.9-0.7l-1.3-0.9l-0.8-0.7l-6.1-2.7l-1.5-0.4l-1.4-0.3l-3.5-0.6l-3.7-0.3l-3.2-0.2h-1.8l-1.3,0.1l-4,0.3l-1.5,0.4
						l-1.9,0.5l-1.7,0.6l-1.4,0.7l-2.1,1.1l-3.2,1.3l-1.1,0.8l-1.2,0.7l-2.3,1.8l-1.6,1.2l-1.5,1.5l-2.2,1.9l-4.8,5.4l-1.5,2.2
						l-0.9,1.4l-0.8,1.1l-0.7,1.1l-3.9,7.7l-0.6,1.7l-0.6,1.1l-0.4,1.1l-1,4.3l-0.4,1.5l-0.3,1.7l-0.3,3.6v1.9l0.2,2.4l0.3,2.2
						l0.1,1.5l0.4,1.7l0.8,2.1l0.9,1.6l0.7,1.2l0.5,0.8l1.9,1.7l0.7,0.5l2.2,0.8l1.8,0.4L330,354.8z M369.1,353.8h1.2l1-0.2l1.2-0.4
						l1.9-0.8l1.6-0.7l1.3-0.7l1.1-0.7l3.5-3l-1.9,1.3l-1.8,1l-2.9,1l-3.8-0.3l-3.1-1.6l-1.8-2.8l-0.2-3.2l0.2-3.1l0.5-2.9l1.2-6.3
						l2-8.3l0.1-0.9l0.5-2.2l1-2.9l0.4-1.5l0.5-1.4l0.7-3.2l0.5-1.4l0.4-1.8l0.2-0.4l-0.4-0.2l-2.2-1.1l-0.9-0.2l-0.8-0.1l-0.6,0.1
						l-0.5,0.3l-0.2,0.4l-0.4,1.4l-0.6,1.8l-1,3.5l-1.8,4.9l-0.6,1.3l-0.4,1.4l-0.7,1.5l-2.3,4.9l-0.6,0.9l-2.2,4.1l-2.4,3.9
						l0.8-1.1l4.8,3.2l-0.5,6v1.4l0.1,1.8l0.4,1.6l0.3,1l0.9,1.4l0.9,1.3l0.7,0.6l0.7,0.5l0.9,0.3l1.6,0.4L369.1,353.8z
						 M334.4,344.5l1.2,0.2l1.4-0.1l0.9-0.3l2.1-1.1l1.9-1.7l1.1-1.1l1-0.8l0.7-0.9l0.9-1.3l0.9-1.1l3.4-4.7l2.4-3.9l2.3-4.2
						l0.5-0.8l2.5-5.4l0.4-1.4l0.6-1.4l0.4-1.2l1.2-3.3l1-3.5l0.6-1.8l0.6-2.1l1.8-2.7l2.5-1.3l-0.6-0.2l-1.2-0.2h-2.8l-1.1,0.2
						l-1.5,0.1l-1.8,0.4l-3.8,1.4l-1.4,0.7l-1.5,0.9l-1.2,0.9l-1.3,0.8l-1,0.7l-2.3,2l-0.5,0.5l-2,2.3l-0.9,1.3l-1.9,2.2l-0.7,1
						l-0.7,1.1l-2.1,4.2l-0.6,1l-1,2.9l-1.2,2.6l-1,4.4l-0.4,1.4l-0.5,4.1v4.4l0.1,1.1l0.3,0.9l0.5,1l0.6,0.9l0.3,0.3L334.4,344.5z"
						/>
				</g>
			</g>
		</g>
	</mask>
	<g mask="url(#SVGID_1_)">
		<path fill="#C5963D" d="M78.6,161.5c-0.3-0.6-0.5-1.3-0.7-2.1c-0.2-0.8-0.4-1.6-0.4-2.2c-0.1-0.6,0-1,0.3-1.2
			c0.3-0.2,0.6,0,1.1,0.6c3.1,4.5,6.4,7.8,10.2,9.8c3.7,2,7.7,3.4,12,4.1c4.3,0.8,8.9,0.9,13.7,0.5c4.8-0.4,9.7-1.1,14.7-2.1
			c5-0.9,10.1-1.9,15.2-2.9c5.1-1,10.1-1.6,15-2c4.2-3.8,9.3-6.7,15.4-8.8c6.1-2.1,13.6-3.1,22.6-3c4.7,0.1,8.8,0.8,12.2,1.9
			c3.4,1.1,6.3,2.6,8.6,4.4c2.4,1.8,4.1,3.8,5.3,6c1.1,2.2,1.8,4.4,1.8,6.5c0.3,3.6-0.6,7-2.4,10.1c-1.9,3.1-4.4,5.7-7.5,7.9
			c-3.1,2.2-6.6,3.7-10.6,4.7c-3.9,1-8.1,1.2-12.3,0.5c-4.5-0.8-7.7-2-9.6-3.8c-1.9-1.8-2.9-3.7-3.1-5.7c-0.1-2.1,0.5-4.1,1.9-6
			c1.4-1.9,3.1-3.5,5.1-4.5c-2.7-1.5-5.6-2.5-8.5-3.1c-2.9-0.5-5.9-0.6-9-0.3c-2.4,3.2-4.4,6.9-6,11c-1.6,4.1-2.9,8.5-4.2,13
			c-1.2,4.6-2.4,9.3-3.5,14.1c-1.1,4.8-2.4,9.6-3.7,14.3c-1.3,4.7-2.8,9.3-4.5,13.7c-1.7,4.4-3.8,8.5-6.4,12.2
			c4.9,0.9,9.6,1.8,14.1,2.6c4.5,0.8,8.7,1.5,12.7,2.1c4,0.5,7.8,0.9,11.4,1.1c3.6,0.2,7,0,10.2-0.3c2-0.3,4.6-0.7,7.9-1.4
			c3.3-0.7,6.6-1.8,10.1-3.4c3.4-1.6,6.7-3.8,9.7-6.6c3.1-2.8,5.4-6.4,7.1-10.9c0.1-0.5,0.4-0.8,1.1-1c0.7-0.1,1.3-0.1,1.9,0.1
			c0.6,0.2,1.1,0.6,1.4,1.2c0.4,0.6,0.4,1.4,0.1,2.3c-0.4,1.1-0.8,2.5-1.4,4c-0.5,1.5-1,2.6-1.4,3.4c-2.2,4.3-4.8,7.9-7.9,11
			c-3.1,3.1-6.3,5.6-9.7,7.6c-3.4,2-6.8,3.5-10.2,4.5c-3.4,1-6.8,1.6-9.9,1.6c-4.8,0.1-9.3-0.1-13.6-0.7c-4.3-0.6-8.6-1.4-12.8-2.5
			c-4.2-1.1-8.5-2.3-12.9-3.7c-4.4-1.4-9.1-2.7-14.1-4.1c-3.6,3.2-8,5.8-13,7.7c-5,1.9-11.1,2.7-18.3,2.5c-4.1-0.1-7.4-0.7-10-1.9
			c-2.6-1.2-4.6-2.7-5.8-4.5c-1.3-1.8-2-3.7-2.1-5.8c-0.2-2,0.3-3.9,1.2-5.7c1-1.7,2.6-3.1,4.8-4.2c2.2-1.1,4.9-1.6,8.2-1.5
			c3.8,0.2,8.2,0.7,13.2,1.4c5.1,0.7,10.6,1.6,16.5,2.7c2.7-4.5,4.7-9.7,6.2-15.7c1.4-6,2.8-12.2,4-18.7c1.2-6.5,2.6-12.9,4.2-19.4
			c1.6-6.5,3.9-12.5,7-17.9c-2.9,0.9-5.9,1.8-9,2.8c-3.1,1-6.2,1.9-9.3,2.7c-3.1,0.8-6.2,1.4-9.4,2c-3.2,0.5-6.4,0.7-9.7,0.5
			c-3.6-0.1-7.1-0.5-10.5-1.3c-3.4-0.8-6.7-2-9.6-3.7c-3-1.7-5.8-3.9-8.4-6.6C82.6,168.8,80.4,165.5,78.6,161.5z M102.5,260.5
			c5.2,0.3,9.5-0.2,13.1-1.5c3.6-1.3,6.7-3.1,9.3-5.5c-4.8-1.3-9.2-2.3-13.3-3.1c-4.1-0.8-7.5-1.2-10.2-1.2c-2.8,0-5.1,0.5-7,1.6
			c-1.9,1.1-2.9,2.3-3.2,3.6c-0.2,1.4,0.5,2.6,2.3,3.9C95.2,259.5,98.2,260.2,102.5,260.5z M195.9,176.8c0,0.1-0.1,0.1-0.2,0.2
			c0.1,0.4,0,0.9-0.2,1.2c-0.3,0.2-0.6,0.3-1.1,0.3c-0.5,0-1,0-1.5-0.1c-0.6,0-1.2,0.2-1.7,0.5c-0.5,0.3-0.9,0.6-1.3,1
			c-2,1.8-3.1,3.2-3.2,4.3c-0.2,1.1,0,2,0.7,2.6c0.7,0.6,1.6,1.1,2.8,1.4c1.2,0.3,2.2,0.5,3,0.6c2.4,0.3,4.8-0.2,7-1.2
			c2.3-1.1,4.3-2.5,6.1-4.3c1.8-1.8,3.2-3.9,4.3-6.2c1.1-2.3,1.7-4.5,1.8-6.5c0.4-4.6-1-7.8-4.3-9.8c-3.3-1.9-7.8-2.9-13.4-2.8
			c-4.3,0.1-8,0.8-11.2,2c-3.2,1.2-6,2.8-8.4,4.8c2.5,0.4,5,1.1,7.5,2.1c2.4,0.9,4.8,2.1,7.3,3.5c1.8,1.1,3.2,2.2,4.2,3.2
			c0.6,0.6,1.1,1.1,1.2,1.6c0.2,0.3,0.3,0.6,0.4,0.9c0,0.2,0,0.3,0,0.4C195.7,176.5,195.8,176.6,195.9,176.8z"/>
		<path fill="#C5963D" d="M226.5,227.7c0.9-0.2,2.4-0.2,4.4,0.1l0.1-1.7c-0.1-2,0.3-3.9,1.1-5.7c0.8-1.8,1.9-3.4,3.3-4.8
			c1.4-1.3,3.3-2.4,5.5-3.2c2.2-0.8,4.8-1.1,7.8-1c2.9,0.2,5.3,0.9,7.2,2.2c1.9,1.3,3.5,2.9,4.5,5c1.1,2.1,1.8,4.4,2.1,7
			c0.3,2.6,0.2,5.3-0.1,8.2c-0.4,2.8-1,5.7-1.8,8.5c-0.8,2.8-1.9,5.4-3.3,7.8c2-0.3,3.9-1,5.7-2.1c1.8-1.1,3.3-2.4,4.7-3.9
			c1.4-1.5,2.6-3.2,3.6-5.1c1-1.9,1.9-3.8,2.7-5.7c1-0.8,2.1-0.9,3.2-0.1c1.1,0.8,1.4,1.8,1,3c-0.9,2.7-2,5.2-3.2,7.5
			c-1.3,2.3-2.8,4.3-4.7,6c-1.8,1.7-4.1,3-6.8,4c-2.7,1-5.9,1.4-9.5,1.4c-1.7,2.5-3.5,4.4-5.2,5.6c-1.8,1.3-3.6,1.9-5.7,2
			c-4.1,0.1-7.5-0.7-10.2-2.4c-2.7-1.7-4.8-3.9-6.4-6.4c-1.6-2.5-2.6-5.3-3.1-8.3c-0.5-3-0.6-5.7-0.2-8.2c0.4-1.9,0.8-3.6,1.2-5.2
			C224.7,230.6,225.4,229.1,226.5,227.7z M248.1,253.1c-2.1-0.8-4-2-5.8-3.5c-1.8-1.5-3.3-3.2-4.7-5c-0.3,1.5-0.6,2.9-0.7,4.3
			c-0.2,1.4-0.1,2.7,0.2,3.9c0.3,1.1,0.8,2.1,1.4,2.8c0.7,0.7,1.7,1.2,3,1.4c1.2,0.1,2.4-0.2,3.4-0.9
			C246,255.5,247.1,254.5,248.1,253.1z M251,215.1c-1.7-0.3-3.2,0.1-4.5,1.4c-1.4,1.2-2.5,3-3.4,5.2c-0.9,2.2-1.5,4.7-1.7,7.5
			c-0.3,2.8-0.1,5.5,0.4,8.1c0.5,2.6,1.4,5.1,2.8,7.4c1.4,2.3,3.3,4,5.9,5.1c1.6-2.9,2.9-6.3,3.9-10.1c1-3.8,1.7-7.4,1.9-10.9
			c0.3-3.5,0-6.5-0.8-9C254.7,217.2,253.2,215.6,251,215.1z"/>
		<path fill="#C5963D" d="M275,213.9c-0.4-1,0.3-1.3,2-0.8c1.7,0.5,3.6,1.3,5.7,2.6c2.1,1.2,4,2.7,5.7,4.3c1.8,1.6,2.5,2.9,2.2,3.9
			c-0.3,1.7-0.6,3.6-1.1,5.9c-0.5,2.3-1.1,4.7-1.6,7.1c-0.6,2.5-1.1,4.8-1.6,7.1c-0.5,2.3-0.8,4.4-1,6.3c-0.2,1.9-0.3,3.4-0.2,4.5
			c0.1,1.1,0.4,1.7,1,1.7c1.8-0.1,3.7-1.3,5.6-3.8c2-2.5,3.8-5.6,5.4-9.3c1.6-3.8,3-7.9,4.1-12.4c1.1-4.5,1.8-8.9,2-13.1
			c0.2-4.2-0.2-8-1.2-11.4c-1.1-3.3-2.9-5.7-5.4-7.2c-1.1-0.6-1.7-1.1-1.8-1.6c-0.1-0.5,0.1-1,0.6-1.3c0.5-0.4,1.2-0.7,2.1-0.9
			c0.9-0.2,1.8-0.3,2.8-0.2c2.5,0.2,5,1.1,7.4,2.8c2.4,1.7,4.2,3.6,5.4,5.8c1.1,2.2,1.5,5.1,1.3,8.9c-0.2,3.8-0.9,7.8-2.1,12.2
			c-1.1,4.4-2.7,8.8-4.6,13.3c-1.9,4.5-4,8.6-6.3,12.3c-2.3,3.7-4.7,6.7-7.2,9c-2.5,2.3-5,3.4-7.3,3.4c-3.3,0-6.3-1.1-8.9-3.4
			c-2.6-2.3-4.3-5-5.1-8c-1.1-3.7-1.5-7.1-1.1-10.2c0.4-3.1,1.1-6.1,1.8-9.1c0.8-2.9,1.4-5.9,1.8-8.8
			C276,220.3,275.8,217.2,275,213.9z"/>
		<path fill="#C5963D" d="M336.3,256.9c2.7-0.1,5.2-1,7.3-2.7c2.1-1.7,4-3.7,5.6-6.1c1.6-2.4,3.1-5,4.3-7.7c1.3-2.7,2.5-5.3,3.5-7.5
			c0.3-0.5,0.7-0.7,1.3-0.7c0.6,0.1,1.2,0.3,1.8,0.6c0.6,0.3,1.1,0.7,1.4,1.2c0.3,0.5,0.4,1,0.2,1.4c-0.4,1-0.9,2.4-1.7,4.1
			c-0.7,1.7-1.6,3.6-2.6,5.6c-1,2-2.2,4.1-3.7,6.2c-1.4,2.1-3,4-4.8,5.8c-1.8,1.8-3.7,3.2-5.8,4.3c-2.1,1.1-4.4,1.7-6.8,1.7
			c-3.7,0.1-6.8-0.5-9.5-1.8c-2.6-1.3-4.7-3-6.3-5.2c-1.6-2.2-2.7-4.6-3.3-7.5c-0.7-2.8-1-5.7-0.9-8.7c0.1-3,0.5-6,1.3-8.9
			c0.8-2.9,1.9-5.6,3.3-8.1l0.1-0.1c2-3.4,4.2-5.9,6.7-7.5c2.5-1.6,5-2.4,7.6-2.5c2.5-0.1,4.9,0.4,7.1,1.7c2.2,1.2,3.9,3,5.3,5.2
			c1.3,1.8,1.9,3.7,2,5.7c0,2-0.2,4-0.8,6c-0.6,2-1.5,3.9-2.9,5.8c-1.4,1.8-3,3.5-4.8,4.8c-1.8,1.4-3.9,2.5-6.1,3.3
			c-2.2,0.8-4.5,1.2-6.9,1.1c-0.1,1.5,0,3,0.2,4.3c0.2,1.3,0.7,2.5,1.3,3.4c0.6,1,1.5,1.7,2.5,2.2
			C333.4,256.8,334.7,257,336.3,256.9z M329.5,241.1c3.2,0.1,5.9-0.6,8.1-2.1c2.2-1.5,3.9-3.3,5-5.4c1.1-2.1,1.8-4.3,2.1-6.6
			c0.3-2.3,0.1-4.2-0.5-5.8c-0.6-1.6-1.5-2.5-2.7-2.8c-1.2-0.3-2.8,0.4-4.8,2.3c-1.1,1-2,2.3-2.8,4c-0.8,1.7-1.4,3.5-2,5.4
			c-0.6,1.9-1.1,3.8-1.5,5.7C330.1,237.7,329.7,239.5,329.5,241.1z"/>
	</g>
	<g>
		<path fill="#D42228" d="M229.7,126.2l1.3,0.7l0.7,0.8l0.6,0.8l0.1,0.9l-0.5,0.9l-1.1,1.8l-0.5,0.9l-0.7,2.1l-0.2,1l-0.3,0.9
			l-0.1,1v1.1l0.2,2.1l0.7,2.1l0.6,0.9l0.6,0.8l0.8,0.7l0.9,0.6l0.9,0.5l1,0.3l1,0.2h2.1l1-0.2l1-0.3l0.9-0.5l0.9-0.6l1.6-1.4
			l0.7-0.7l0.6-0.8l1-1.9l0.9-1.8l0.5-1l0.3-0.9l0.5-1l0.5-0.9l0.7-2.1l0.2-0.9l1-3.1l0.5-2.1l0.2-0.9l0.7-2.1l0.3-0.9l0.3-1.1
			l0.7-2.7l0.2-1.1l0.3-1.4l0.3-1.5l0.3-1l0.3-1.5l0.3-1.4l0.2-1.1l0.3-1.4l0.3-1.5l0.3-1l0.2-0.9l1.3-3.8l0.2-1.1l0.3-1.4l0.3-1.5
			l0.2-1l0.9-3l0.2-0.8l0.5-1.5l0.3-1.5l0.2-1l0.3-0.9l0.3-1l0.2-1l-0.5-0.2l-0.8,0.6l-1.8,1.6l-0.6,0.3l-2.5,2.2l-0.9,0.6l-0.8,0.6
			l-1.9,0.9l-1.8,1.1l-0.8,0.5l-0.9,0.6l-1,0.3l-1,0.6l-0.7,0.5l-2.1,0.9l-0.9,0.3l-1,0.5l-0.9,0.6l-0.8,0.6l-0.9,0.6l-1.6,1.4
			l-0.7,0.7l-1.4,1.6l-0.5,0.9l-0.5,1l-0.2,1l-0.2,1.1v1.1l0.2,1l0.2,1.1l0.5,0.9l0.7,0.8l0.9,0.7l1,0.5l1,0.3l1.1,0.8l0.6,1.6
			l-0.5,1.6l-1.3,1.1l-1.3,0.5l-2.1-0.2l-3-0.7l-1-0.3l-0.9-0.6l-1.6-1.1l-0.8-0.7l-0.8-0.8l-0.7-0.8l-0.5-0.8l-0.5-1l-0.2-0.9
			l-0.3-1l-0.2-1l-0.1-1l0.1-1v-1l0.2-2.1l0.3-1l0.3-0.9l0.5-1l0.6-0.9l0.6-0.8l0.6-0.9l0.7-0.8l0.7-0.6l0.8-0.7l1-0.7l0.9-0.6
			l1.7-1l0.9-0.6l1-0.3l0.9-0.5l1.7-0.9l1-0.5l1.1-0.5l0.7-0.2l1.1-0.5l1-0.5l0.9-0.5l1-0.5l1.4-0.6l2.4-1l1.9-0.8l0.9-0.5l1.8-1
			l0.9-0.5l0.9-0.6l0.8-0.6l0.7-0.6l1.6-1.1l1.1-0.8l0.8-0.7l0.8-0.8l0.8-0.9l0.5-0.5l1.4-1.6l0.7-0.9l0.7-0.8l0.8-0.6l1-0.3l1-0.1
			h2.1l0.9,0.2l1,0.3l0.9,0.6l0.8,1l0.1,1.3l-0.2,1l-0.3,0.9l-0.7,2.1l-0.2,0.9l-0.7,2.1l-0.5,1.5l-1.5,4.5l-0.3,1.4l-0.5,1.4
			l-0.3,1.1l-0.2,1l-0.1,1l-0.3,1l-0.2,0.9l-0.7,2.1l-0.2,1l-0.2,0.9l-0.2,1l-0.3,1l-0.2,1l-0.3,0.9l-0.2,1l-0.3,1l-0.2,1l-0.2,0.9
			l-0.2,1l-0.7,2.1l-0.2,0.9l-0.2,1l-0.3,1l-0.2,1l-1.8,6.4l-0.3,1.4l-0.2,1.1l-0.9,2.7l-0.2,1l-1.1,3.4l-0.3,1.4l-0.3,1l-0.3,0.9
			l-0.5,1l-0.7,1.4l-0.7,1.6l-0.6,1.4l-0.6,1.1l-0.7,1.3l-0.7,1.1l-0.7,0.9l-0.6,0.8l-0.8,0.9l-0.5,0.5l-0.8,0.9l-0.7,0.7l-0.8,0.7
			L246,152l-0.9,0.5l-1,0.3l-0.9,0.5l-1,0.3l-1.4,0.3l-1.6,0.3l-2.4,0.2h-2.5l-1.5-0.2l-1.8-0.2l-1.4-0.5l-1.3-0.5l-0.6-0.3l-1-0.6
			l-0.8-0.6l-0.8-0.7l-0.8-0.6l-0.8-0.7l-0.9-1.1l-0.8-1.1l-0.5-1l-0.6-1.4l-0.3-1.3l-0.3-1.1l-0.2-1.5l-0.1-1.4v-1.1l0.2-1.5
			l0.3-1.4l0.5-1l0.6-1.5l0.9-1.6l1-1.6l0.9-1.3l1.8-1.8l1.1-0.8l1.1-0.2L229.7,126.2z"/>
	</g>
	<g>
		<path fill="#D42228" d="M241.1,202.6c-0.2-0.1-0.3-0.2-0.4-0.4c-0.4-0.5-0.4-1.2,0-1.7c-0.1-0.3-0.2-0.6-0.1-0.9
			c0.5-2.8,0.4-7.1,0.3-11.7c-0.3-11.7-0.6-26.3,8.9-30.5c2.5-1.1,4.2-0.5,5.2,0.2c2.8,2.1,3,7.6,2.5,14c1.9-2.2,4.2-4,6.7-5.2
			c3.4-1.6,6.7-1.7,9.6-0.3c2.2,1,2.8,2.6,3,3.7c0.6,3.8-3.3,8.1-7.3,11.9l-0.2,0.2c-3.9,3.8-19.6,15.5-26.3,20.5l-0.2,0.1
			C242.2,202.9,241.6,202.9,241.1,202.6z M253.1,159.9c-0.3-0.2-0.8-0.4-2.1,0.2c-7.8,3.4-7.4,16.9-7.2,27.8
			c0.1,3.9,0.2,7.5-0.1,10.3c7.2-5.4,20.2-15.2,23.5-18.4l0.2-0.2c1.7-1.6,6.9-6.6,6.4-9.4c-0.1-0.4-0.3-1-1.4-1.5
			c-2.6-1.2-5.3-0.5-7.1,0.3c-4,1.9-7.8,6.2-8.8,10c-0.2,0.7-0.9,1.2-1.7,1.1c-0.8-0.1-1.3-0.8-1.2-1.6c0-0.4,0.1-1,0.2-1.6
			c0.5-3.7,2-14.9-0.7-16.9C253.1,159.9,253.1,159.9,253.1,159.9z"/>
	</g>
	<path fill="#C5963D" d="M177.8,109.7c0,0-0.1,0-0.1,0.1c-1.2-4.7-3.1-7.7-5.4-8.2c-0.2-0.1-0.5-0.1-0.7-0.1H95
		c-2.5,0-5.3,2.8-7.2,7.2c-6.5-2.7-21.6-8.9-21.8-9l-0.6-0.2l-0.4,0.4c-0.7,0.7-1.1,1.7-1.1,3c0,0.9,0.2,1.9,0.4,2.9
		c0.2,1,0.4,2.1,0.4,3c0,0.7-0.1,1.3-0.3,1.8c-0.4,1-1.6,2-2.8,3c-2,1.6-4.3,3.5-4.3,6.4c0,2.9,2.3,4.8,4.3,6.4c1.2,1,2.4,2,2.8,3
		c0.2,0.5,0.3,1.1,0.3,1.8c0,1-0.2,2-0.4,3c-0.2,1-0.4,2-0.4,2.9c0,1.3,0.4,2.2,1.1,3l0.4,0.4l0.6-0.2c0.2-0.1,15.3-6.3,21.8-9
		c1.9,4.3,4.7,7.2,7.2,7.2h76.6c0.6,0,1.2-0.2,1.8-0.5c1.4-0.8,2.6-2.6,3.6-5.2c0.3-0.8,0.5-1.6,0.8-2.6c0,0,0.1,0,0.1,0.1
		c2.7,1.1,24.2,10,24.4,10.1l0.6,0.2l0.4-0.4c0.7-0.7,1.1-1.7,1.1-3c0-0.9-0.2-1.9-0.4-2.9c-0.2-1-0.4-2.1-0.4-3
		c0-0.7,0.1-1.3,0.3-1.8c0.4-1,1.6-2,2.8-3c2-1.6,4.3-3.5,4.3-6.4c0-2.9-2.3-4.8-4.3-6.4c-1.2-1-2.4-2-2.8-3
		c-0.2-0.5-0.3-1.1-0.3-1.8c0-1,0.2-2,0.4-3c0.2-1,0.4-2,0.4-2.9c0-1.3-0.4-2.2-1.1-3l-0.4-0.4l-0.6,0.2
		C202,99.7,180.5,108.6,177.8,109.7z M171.6,103.2c0.1,0,0.2,0,0.3,0c1.5,0.3,3,2.9,4,6.6C173.2,106.8,171.6,104.4,171.6,103.2
		L171.6,103.2z M171.6,136.6h-14.4c-5.2-2.3-14.6-8.9-23.5-16.7c-8.9-7.8-14.6-14.4-14.7-16.7h14.5c0.1,2.3,5.8,8.9,14.7,16.7
		c8.9,7.8,18.3,14.4,23.5,16.7C171.6,136.6,171.6,136.6,171.6,136.6z M104.6,136.6c-1.3-0.6-3-1.5-4.8-2.6c0.4-0.9,0.8-1.9,1.1-3
		c0-0.1,0.1-0.2,0.1-0.3c0-0.2,0.1-0.3,0.1-0.5c0.4-1.5,0.7-3.2,0.9-4.9c6.8,5.4,13.1,9.6,17.1,11.4H104.6z M130.9,136.6
		c-5.2-2.3-14.6-8.9-23.5-16.7c-1.9-1.7-3.7-3.3-5.4-4.9c0-0.4-0.1-0.7-0.1-1l0-0.1c-0.4-3.4-1.2-6.3-2.2-8.4c0-0.1-0.1-0.2-0.1-0.3
		c0-0.1-0.1-0.1-0.1-0.2c-0.4-0.7-0.8-1.3-1.2-1.8h8.9c0.1,2.3,5.8,8.9,14.7,16.7c8.9,7.8,18.3,14.4,23.5,16.7H130.9z M65.9,138.3
		c-0.2-0.3-0.2-0.7-0.2-1.2c0-0.7,0.2-1.6,0.3-2.6c0.2-1.1,0.4-2.2,0.4-3.4c0-0.9-0.1-1.7-0.4-2.4c-0.5-1.5-1.9-2.6-3.3-3.7
		c-1.8-1.5-3.6-3-3.6-5.1c0-2.1,1.8-3.6,3.6-5.1c1.4-1.2,2.8-2.3,3.3-3.7c0.3-0.7,0.4-1.5,0.4-2.4c0-1.2-0.2-2.3-0.4-3.4
		c-0.2-0.9-0.3-1.8-0.3-2.6c0-0.5,0.1-0.9,0.2-1.2c3.6,1.5,21.4,8.8,23.8,9.8c0.4,0.2,0.8,0.5,1.1,0.9c-2.4,0.6-16.2-2.6-19.2-3.2
		c4.8,2,23.2,8.3,19.7,8.2c-1.7,0.2-26.1,2-26.7,2.7c0.6,0.6,25,2.5,26.7,2.7c3.5-0.2-14.9,6.1-19.7,8.2c2.9-0.6,16.8-3.8,19.2-3.2
		c-0.3,0.4-0.7,0.7-1.1,0.9C87.3,129.5,69.5,136.8,65.9,138.3z M89.4,130.6c0.4-0.2,0.7-0.3,0.9-0.4c3.3-1.4,4.4-8,4.4-10.3
		c0-2.3-1-8.9-4.4-10.3c-0.2-0.1-0.5-0.2-0.9-0.4c1.7-3.8,4-6.1,5.6-6.1c0.1,0,0.2,0,0.3,0c0,0,0,0,0,0c1.2,0.3,2.6,2.2,3.6,5.4
		c0,0,0,0,0,0c0.1,0.3,0.2,0.6,0.3,0.9c0,0,0,0,0,0c0.3,1.3,0.6,2.8,0.9,4.4l0,0.1c0.1,0.9,0.2,1.9,0.3,2.8c0,0,0,0,0,0
		c0,0.5,0,0.9,0.1,1.4c0,0.1,0,0.1,0,0.2c0,0.5,0,0.9,0,1.4c0,0.4,0,0.7,0,1.1c0,0.1,0,0.2,0,0.3c0,0.3,0,0.6,0,0.9
		c0,0.1,0,0.1,0,0.2c0,0.3,0,0.7-0.1,1c0,0,0,0.1,0,0.1c0,0.3-0.1,0.7-0.1,1c-0.3,3.4-1.1,6.5-2.1,8.7c-0.8,1.9-1.8,3.1-2.8,3.4
		c-0.1,0-0.1,0-0.2,0.1c-0.1,0-0.2,0-0.3,0C93.4,136.6,91.1,134.3,89.4,130.6z M175.3,131.8c-4.6-3.1-10.1-7.3-15.4-11.9
		c-8.9-7.8-14.6-14.4-14.7-16.7h14.5c0.1,2.3,5.8,8.9,14.7,16.7c0.9,0.7,1.7,1.5,2.6,2.2c0,0.2,0,0.5,0,0.7
		C176.8,126.2,176.2,129.4,175.3,131.8z M202.5,102.8c0,0.7-0.2,1.6-0.3,2.6c-0.2,1.1-0.4,2.2-0.4,3.4c0,0.9,0.1,1.7,0.4,2.4
		c0.5,1.5,1.9,2.6,3.3,3.7c1.8,1.5,3.6,3,3.6,5.1c0,2.1-1.8,3.6-3.6,5.1c-1.4,1.2-2.8,2.3-3.3,3.7c-0.3,0.7-0.4,1.5-0.4,2.4
		c0,1.2,0.2,2.3,0.4,3.4c0.2,0.9,0.3,1.8,0.3,2.6c0,0.5-0.1,0.9-0.2,1.2c-3.6-1.5-21.4-8.8-23.8-9.8c-0.1-0.1-0.3-0.1-0.4-0.2
		c0-0.3,0.1-0.5,0.1-0.8c3.8,0,15.7,2.7,18.3,3.2c-3.3-1.4-13.4-5-17.9-6.9c0-0.3,0.1-0.7,0.1-1c0-0.2,0-0.3,0-0.5
		c6.1-0.5,24.3-2,24.8-2.5c-0.5-0.5-18.7-2-24.8-2.5c0-0.5-0.1-1-0.1-1.5c4.5-1.9,14.6-5.4,17.9-6.9c-2.7,0.5-14.6,3.3-18.3,3.2
		c0-0.3-0.1-0.5-0.1-0.8c0.1-0.1,0.3-0.2,0.4-0.2c2.4-1,20.2-8.3,23.8-9.8C202.5,101.9,202.5,102.2,202.5,102.8z"/>
	<g>
		<g>
			<path fill="#D42228" d="M67.8,236.5c0.3-1,2.7-41.2-9.5-38.3C46.2,201,67.8,236.5,67.8,236.5z"/>
		</g>
		<g>
			<path fill="#D42228" d="M76.2,237.3c0.5-0.5,15.2-25,6.6-27.2C74.3,207.8,76.2,237.3,76.2,237.3z"/>
		</g>
		<g>
			<path fill="#D42228" d="M62.6,241.4c-0.7-0.2-26.6-12.2-20.7-18.9C47.8,215.9,62.6,241.4,62.6,241.4z"/>
		</g>
	</g>
	<g>
		<path fill="#C5963D" d="M367.5,137.8c-0.2-0.4-0.8-0.9-1.2-1.1c-0.2-0.1-1.4-0.1-2.6-0.2l-2.3-0.1l-0.1-1.4c0-0.8-0.1-2-0.1-2.6
			c0-1.5-0.1-1.8-0.5-2.3c-0.9-1.1-2.6-0.8-3.2,0.4c-0.2,0.5-0.2,0.5-0.3,3.2c0,1.5-0.1,2.9-0.1,3.2l-0.1,0.5l-4.5,4.5
			c-2.5,2.5-4.5,4.4-4.5,4.4c0,0-0.3-0.6-0.7-1.3c-0.8-1.5-2.1-3.5-3-4.6c-1.4-1.7-4-4-5.4-4.8l-0.5-0.3l0.7-0.7
			c1.3-1.3,2.8-3.5,3.7-5.5c1.5-3.3,2.2-8,1.8-11.4c-0.6-4.4-2.1-8.8-4-11.5l-0.5-0.7l0.5-0.2c0.5-0.2,0.9-0.4,1.4-0.9l0.3-0.3
			l0.5,0.5c0.3,0.3,0.8,0.9,1.2,1.4l0.7,0.9v1.3c0,1.2,0,1.3,0.3,2c0.9,2.3,2.3,3.9,4.5,4.9c1.5,0.7,2.6,1,3.9,1
			c2.6,0,4.6-1.1,6.3-3.3c1.2-1.6,1.6-2.8,1.7-4.4c0.1-1.4-0.1-2.2-0.9-3.8c-0.5-1-0.6-1.2-1.3-1.9c-1.1-1.1-2.6-1.9-3.9-2.1
			l-0.6-0.1l-0.9-1.8c-1.1-2.1-1.2-2.2-3-5.2c-2.7-4.5-4-6.1-6.6-8.5c-2.5-2.3-3.8-3.3-5.4-4.1c-2.9-1.5-6.1-2.1-9.5-1.9
			c-3.5,0.3-5.7,0.9-8.4,2.2c-2,1-3,1.7-5.4,3.8c-1.4,1.2-2.4,2.2-4.2,4.1c-2.2,2.5-3.2,4-4.2,6.4c-0.4,0.9-0.8,2-1.1,2.3
			c-0.6,1-0.8,1.7-0.8,2.7c0,1.1,0.2,1.7,0.7,2.5c0.4,0.6,1.1,1.1,1.7,1.3c0.5,0.1,0.6,0.3,0.3,0.6c-0.9,1-2.2,3-3.2,4.9
			c-2.3,4.7-3.1,8.1-2.8,12.4c0.3,4.7,1.3,7.8,3.4,11.3c0.9,1.5,1.7,2.6,2.1,3.1l0.4,0.5l-0.8,0.5c-1.2,0.9-2.5,1.8-3.5,2.7
			c-1.3,1.2-3.7,3.6-4.6,4.7l-0.7,0.9l-0.2-0.2c-0.1-0.1-0.5-0.7-0.9-1.2c-0.4-0.5-1-1.4-1.4-1.9c-1.8-2.3-4.3-5.9-4.3-6
			c0-0.1,0.1-0.5,0.1-0.9c0-0.4,0.2-1.6,0.4-2.7c0.4-2,0.4-2.7,0.3-3.2c-0.4-1.1-1.7-1.6-2.8-1c-0.6,0.3-0.9,0.7-1.4,2.1
			c-0.4,1.1-0.9,3.1-0.9,3.5c0,0.4-0.1,0.4-1.7,0.2c-0.9-0.1-2-0.2-2.5-0.3c-1.1-0.2-1.4-0.2-2,0.2c-1.1,0.7-1.2,2.4-0.2,3.2
			c0.4,0.4,0.6,0.4,1.7,0.6c0.5,0.1,1,0.2,1.1,0.2c0.1,0,1.1,0.1,2.3,0.2c1.2,0.1,2.2,0.2,2.2,0.2c0,0,0.5,0.7,1.2,1.6
			c0.6,0.9,1.5,2.1,1.9,2.6c2.5,3.3,3.4,4.6,3.9,5.2c1,1.2,1,0.9,0,3c-2.3,4.6-3.2,7.8-3.5,12.9c-0.3,3.7,0.2,7.9,1.4,11.6
			c1,3.1,2.8,6.7,5.1,9.8c1.5,2,4.1,4.7,6,6.1c2.6,2,4.2,2.8,6.7,3.7c3.7,1.2,7.1,1.5,12.9,1c4.7-0.4,7.3-0.8,9.8-1.6
			c2.5-0.7,5.3-2.1,7.5-3.8c2-1.5,3.4-2.9,5.2-5.2c1.8-2.3,3.2-4.9,4-7.4c0.6-2,1.2-4.7,1.5-6.8c0.5-3.7,0.6-8.5,0.1-12.1
			c-0.3-2.3-1.1-5.8-1.8-8l-0.4-1.2l0.2-0.3c0.1-0.2,2.4-2.5,5-5.1l4.7-4.7l0.4,0c0.2,0,1.6,0.1,3.2,0.1l2.8,0.1l0.5-0.3
			c0.7-0.4,1.1-0.9,1.1-1.7C367.7,138.3,367.6,138,367.5,137.8z M348.8,108.1c0.1-0.7,0.4-1.7,0.7-2c0.6-0.6,1.9-1.5,2.7-1.7
			c0.5-0.2,1.5-0.1,2.4,0.1c0.8,0.2,1,0.4,1.7,1c0.2,0.2,0.5,0.5,0.5,0.5c0,0,0.2,0.3,0.4,0.7c0.6,1.2,0.5,2.2-0.3,3.4
			c-1.1,1.7-2.5,2.4-4.1,2.1c-1.7-0.4-3-1.4-3.8-2.8C348.8,108.7,348.8,108.6,348.8,108.1z M309.5,99.8c0.1-0.3,0.7-0.7,1.1-0.8
			c0.6-0.1,3.8-0.1,7,0c1.6,0,5.8,0.1,9.4,0.1c8.3,0,9.8,0.1,11.4,0.9c1,0.5,1.1,0.7,1.1,1.3c0,0.5,0,0.5-0.2,0.7
			c-0.2,0.1-0.4,0.2-1.3,0.1c-0.6,0-1.5-0.1-2-0.1c-3.5-0.3-5.9-0.5-9.2-0.5c-1.6,0-3.6-0.1-4.3-0.1c-3.1-0.2-7.4-0.4-9.8-0.4
			c-2.3,0-2.6,0-2.8-0.2C309.6,100.7,309.3,100.2,309.5,99.8z M308,129.7c-0.8-1.5-1.4-3.6-1.6-5.7c-0.2-1.8-0.2-4.9,0-6
			c0.5-2.3,1.5-4.9,2.9-7.4c0.9-1.7,3.7-5,4.4-5.4c0.3-0.2,0.6-0.2,3.7-0.1c1.9,0,4.8,0.1,6.4,0.1c1.7,0,3.6,0.1,4.3,0.2
			c2.2,0.2,4.1,0.3,5.1,0.3c1.3,0,1.6,0.1,2.4,0.8c0.8,0.6,1.5,1.4,2.1,2.5c1.3,2,2.6,6,3,9.4c0.3,2.5-0.3,6.4-1.4,8.9
			c-0.8,2-2.3,4.1-3.7,5.3c-2.1,1.7-5.4,3.9-7.1,4.6c-1.9,0.7-3.7,1.1-6.5,1.1c-3.9,0.1-6.5-0.4-8.4-1.5c-0.8-0.5-2-1.4-2.5-2.1
			C310.4,133.8,308.8,131.4,308,129.7z M311,140.2l0.4-0.2l0.6,0.4c0.7,0.4,2.3,1.1,3.2,1.3c1.9,0.5,2.9,0.6,5.9,0.6
			c3.7,0,5.3-0.2,8-1.1c1.4-0.5,3.9-1.7,5.6-2.8c0.2-0.1,0.4-0.2,0.4-0.2c0,0,0.3,0.1,0.6,0.3c0.9,0.4,2.2,1.3,3.1,2
			c0.9,0.8,2,1.8,1.9,1.9c-0.1,0.1-3,1.6-3.8,1.9c-1.5,0.7-4.4,1.6-6.9,2.2c-1.5,0.4-2.7,0.6-4.4,0.8c-1.5,0.2-2.1,0.2-4.2,0.1
			c-2.5,0-3.9-0.2-6.3-0.7c-2.7-0.5-8.8-2.7-8.7-3C306.5,143.4,309.9,140.8,311,140.2z M334,151.5l0-2l1.3-0.4
			c0.7-0.2,1.6-0.6,2.1-0.7c0.4-0.2,0.8-0.3,0.9-0.3c0,0,0.1,0.7,0.1,1.5c0,0.9,0,2.5,0.1,3.7c0.2,6.1,0.3,10.1,0.2,14.2
			c-0.1,2.3-0.1,4.4-0.1,4.6c-0.1,0.4-0.1,0.4-0.5,0.5c-0.6,0.2-3.1,0.1-3.9,0l-0.6-0.1l0-0.6c0-0.8,0.1-8.3,0.3-10.1
			C333.8,158.2,334,153.3,334,151.5z M348.1,169.9c-0.3,2.6-1,5.7-1.7,7.9c-0.4,1.2-1.3,3.1-2.1,4.3c-0.6,0.9-2,2.7-2.9,3.6
			c-0.7,0.8-2.6,2.3-3.7,3.1c-3.3,2.2-6.6,3.1-12.9,3.7c-4.7,0.4-7.1,0.5-9.3,0.1c-1.9-0.3-4.2-1-5.8-1.8c-0.9-0.4-2.7-1.7-3.9-2.7
			c-1.1-0.9-3.1-2.9-4-4c-0.8-1-2-2.8-2.7-4c-1.6-2.8-2.4-5-3-7.9c-0.5-2.6-0.6-3.2-0.6-5.6c0-4.3,0.5-7.3,2-10.8
			c1.3-3.2,2.8-5.7,4.9-8.4c0.4-0.5,0.7-0.9,0.8-0.9s0.2,0.1,0.5,0.3c1.6,1.1,7.4,3.1,10.7,3.8c3.1,0.6,5.3,0.8,8.2,0.7
			c2.4,0,4.4-0.2,6.3-0.6c0.5-0.1,0.9-0.2,0.9-0.2c0.1,0,0,5.8-0.3,11.2c-0.1,2.8-0.3,9.4-0.2,10.5c0.1,1.5,0.3,2.2,1,2.9
			c0.3,0.3,0.7,0.6,1,0.8c0.4,0.2,0.6,0.3,0.6,0.5c0,0.1-0.1,1.2-0.3,2.3c-0.3,1.9-0.3,2.2-0.2,2.6c0.3,1.2,1.6,1.8,2.7,1.3
			c0.6-0.2,0.7-0.4,1-0.9c0.2-0.4,0.2-0.5,0.6-3.2c0.1-1,0.3-1.8,0.3-1.8c0.1-0.1,0.3,0.1,0.4,0.3c0.1,0.5,1.5,4.1,1.7,4.5
			c0.8,1.3,2.8,1.1,3.4-0.3c0.3-0.6,0.2-1.1-0.5-3c-0.9-2.4-0.8-2.2-0.4-2.5c0.5-0.3,0.9-0.7,1.2-1.4c0.6-1.3,0.7-2.5,0.7-10.2
			c0-3.6,0-7.1-0.1-8.1c-0.1-1-0.1-3.7-0.2-6l-0.1-4.1l0.4-0.2c0.4-0.2,0.5-0.3,0.7-0.1c0.2,0.3,1.5,2.7,1.9,3.7
			c1.3,3,2.5,7.6,3,11.2C348.3,162.5,348.4,167.9,348.1,169.9z"/>
		<path fill="#C5963D" d="M314.2,117.9c1.8,0.9,3.5-0.3,3.5-2.5c0-1.1-0.6-2-1.6-2.3c-0.5-0.2-0.8-0.2-1.4,0
			c-0.6,0.2-1.1,0.7-1.5,1.4c-0.4,0.8-0.5,1.3-0.3,2C313.1,117.1,313.5,117.5,314.2,117.9z"/>
		<path fill="#C5963D" d="M332.2,117c0.8-1.1,0.7-2.5-0.1-3.2c-0.7-0.7-1.7-1-2.5-0.7c-0.2,0.1-0.5,0.2-0.7,0.3
			c-0.9,0.7-1.2,2.3-0.6,3.5C329,118.3,331.2,118.4,332.2,117z"/>
		<path fill="#C5963D" d="M319.6,131.1c0.5,1.4,1.3,2.5,2.1,2.7c0.9,0.2,1.5,0,2.1-1c1.1-1.7,3.1-7.1,3.1-8.5c0-1.3-0.9-2.6-2-2.9
			c-0.6-0.2-2.8-0.1-4.1,0.1c-0.6,0.1-1.2,0.3-1.3,0.3c-0.4,0.3-0.8,1.1-0.9,1.7c-0.1,0.7-0.2,2.5,0,3.5
			C318.7,128,319.3,130.2,319.6,131.1z M321,124c0.1-0.1,1.6-0.4,2.4-0.4c0.6,0,0.8,0,0.9,0.2c0.2,0.2,0.2,0.8,0,1.5
			c-0.4,1.2-1.3,3.8-1.9,5.1l-0.3,0.7l-0.1-0.3c-0.2-0.4-0.7-2-0.9-3.2C320.9,126.6,320.8,124.1,321,124z"/>
		<path fill="#C5963D" d="M318.9,156.6c-0.2,0-0.8,0.2-1.3,0.4c-0.7,0.3-1,0.4-1.3,0.8c-0.5,0.5-0.8,1.1-1,1.8
			c-0.1,0.3-0.2,0.8-0.3,1.2c-0.4,1.6-0.3,1.9,1.5,3.8c0.8,0.8,2.1,1.1,3.6,0.8c1.5-0.3,2.6-1,3.1-2.2c0.3-0.6,0.3-0.6,0.3-1.9
			c0-1.3-0.1-1.9-0.6-2.8C322.2,157.2,320.5,156.4,318.9,156.6z"/>
		<path fill="#C5963D" d="M320.7,171.9c-0.6-0.2-1.9-0.3-2.6,0c-1.1,0.3-2.2,1.1-2.6,2c-0.3,0.6-0.8,2.1-0.9,2.6
			c-0.2,1.3,0.5,3.1,1.8,3.9c1.3,0.9,3.4,1,4.8,0.3c0.7-0.4,1.3-1,1.7-2c0.7-1.5,0.7-2.7,0.1-4.2
			C322.3,172.9,321.8,172.3,320.7,171.9z"/>
	</g>
</g>
</svg>
