<?xml version="1.0" encoding="utf-8"?>
<!-- Generator: Adobe Illustrator 18.0.0, SVG Export Plug-In . SVG Version: 6.00 Build 0)  -->
<!DOCTYPE svg PUBLIC "-//W3C//DTD SVG 1.1//EN" "http://www.w3.org/Graphics/SVG/1.1/DTD/svg11.dtd">
<svg version="1.1" id="Layer_1" xmlns="http://www.w3.org/2000/svg" xmlns:xlink="http://www.w3.org/1999/xlink" x="0px" y="0px"
	 viewBox="0 0 432 432" enable-background="new 0 0 432 432" xml:space="preserve">
<g>
	<g>
		<path fill="#CC963B" d="M91.3,350.5l-0.3-2.1l-1-2.4l-0.8-2l-2.4-3.9l-1-1.1l-1-1l-0.8-1.1l-1-1.1l-0.8-1.1l-1-1.1l-1-1l-1.1-1
			l-1-1l-2-2.3l-0.8-1l-1.1-1.3l-0.8-0.7l-1.1-1.1l-2.9-3.4l-1.1-1.5l-3.4-4.9l-1-1.8l-0.7-1.5l-0.5-1.3l-0.5-1.5l-1-2.6l-0.3-1.5
			l-0.2-1.3v-1.5l-0.2-1.6v-2.1l0.2-2l0.2-1.6l0.2-1.5l0.7-2.9l0.7-1.5l0.5-1.5l0.7-1.3l0.8-1.5l0.8-1.1l1-1.3l1-1.1l2.1-2.1l1.1-1
			l1.3-0.8l2.6-1.3l1.5-0.7l3.9-1.5l1.8-0.5l2.9-0.7h3.3l2.6-0.2h1.6l2.1,0.2l1.8,0.2l3.3,0.7l1.5,0.5l1.3,0.7l1.5,0.7l3.4,2.1
			l1.3,1l1.1,1l0.8,1l1,1.1l1,1.3l1.1,1.6l1,1.8l0.5,1.5l0.3,1.5l0.2,1.6l0.3,2v5l-0.2,1.5l-0.3,1.5l-0.7,1.3l-1.1,0.8l-1.3,0.7
			l-1.5,0.2l-1.3,0.2l-1.5-0.3l-1.3-0.8l-1.1-1.6l-0.5-1.8l-0.2-1.6v-3.1l-0.2-1.5l-0.5-1.3l-0.5-1.5l-0.7-1.3l-0.8-1.3l-1-1.1
			l-1.1-1l-1.1-0.8l-1.3-0.8l-1.3-0.5l-1.5-0.5l-1.3-0.2l-4.6-0.5h-1.5l-1.6,0.2l-2.9,1l-2.6,1.6l-1.1,1l-1.1,1.1l-0.8,1.1l-0.8,1.5
			l-0.5,1.3l-0.7,1.5l-0.5,1.5L74,295l-0.2,1.5v3.1L74,301l0.3,1.5l0.3,1.3l0.7,1.5l0.5,1.3l0.8,1.5l1,2l1,1.8l1.6,2.6l3.9,4.6
			L85,320l3.3,3.3l3.9,4.6l2.1,2.1l0.8,1.1l1.8,2.3l1,1.1l1,1.3l0.8,1.1l0.7,1.3l0.8,1.3l1.3,2.6l0.7,1.5l0.7,1.3l0.5,1.5l0.5,1.3
			l0.3,1.5l0.2,1.5l0.3,1.5l0.2,1.5l-0.2,1.6l-0.3,2.9l-0.7,2.9l-0.2,1.5l-0.2,1.3l-0.3,1.5l-0.5,1.5l-0.7,1.3l-0.7,1.5l-2,3.6
			l-1,1.5l-1,1.1l-1.1,1.1l-0.8,0.7l-1.3,1.1l-0.8,0.8l-2.6,2l-2.6,1.3l-1.3,0.8l-1.6,0.7l-1.3,0.5l-1.1,0.3l-1.5,0.5l-1.6,0.3
			l-1.5,0.2l-1.1,0.3l-4.9,0.5h-4.1l-4.4-0.5h-1.1l-1.6-0.3l-2.3-0.5l-3.4-1.1l-1.3-0.7l-1.1-0.8l-1.6-1l-2.6-2l-2.6-2.6l-1-1.1
			l-1.6-2.3l-0.8-1.3l-0.8-1.1l-1-2.9l-0.3-1.5l-0.5-2l-0.5-2.1l-0.3-1.5l-0.2-1.5V357l0.2-1.3v-2.9l0.2-1.5l1-4.4l0.5-2l0.5-2.1
			l0.5-1.5l1.3-1.5l2.3-1h2.4l2.1,0.5l1.3,1l0.8,1.5v2l-0.2,1.6l-0.3,1.5l-0.5,1.5l-0.2,1.5l-0.3,1.5v4.6l0.5,4.4l0.3,1.5l1.5,4.4
			l0.8,1.3l1,1.5l0.5,0.8l1.1,1.3l1,1l1.1,1l1.3,0.8l1.1,0.8l1.3,0.8l1.5,0.7l1.3,0.5l1.6,0.3l1.5,0.2h2l4.6-0.3l2-0.2l1.5-0.5
			l2.6-1l1.3-0.7l1.3-0.8l1.3-1.5l1.5-1.5l1-1.3l1-1.6l1-1.8l0.7-1.6l0.7-2l0.7-2.4l0.3-2.1l0.2-1.6l-0.2-2.1l-0.2-2L91.3,350.5z"/>
		<path fill="#CC963B" d="M201.6,354.4l-0.3,0.8l-0.8,1.6l-0.8,1.1l-0.7,1.3l-0.7,1.5l-0.7,1.3l-1.6,2.6l-0.8,1.1l-0.8,1.3l-0.7,1.3
			l-0.8,1.3l-1,1.1l-1,1.3l-1,1.1l-1.8,2.3l-1,1.1l-1,1l-4.6,3.9l-1.3,0.8l-1.5,0.8l-1.8,0.8l-2,0.8l-1.5,0.5l-1.5,0.3h-1.6l-2-0.2
			l-2-0.5l-1.5-0.5l-1.1-0.8l-1.1-1l-1.1-1.6l-1.1-1.8l-0.5-1.5l-0.5-2l-0.2-2.1v-1.6l0.2-2.1l0.2-2l-0.5-0.3l-0.8,1.1l-1.6,2.6
			l-1.6,2.3l-1,1.1l-0.8,1.1l-1,1.1l-0.8,1.1l-1.1,1l-1,1l-1.1,1l-1.1,0.8l-1.3,0.8l-1.8,1.1l-2.4,1.1l-2.6,0.8l-2.1,0.5l-2.9,0.3
			l-1.6-0.2l-2-0.3l-2-0.5l-1.5-0.5l-1.3-0.5l-1.1-0.8l-2.3-2l-0.8-1.1l-0.8-1.3l-1-1.8l-1-2.4l-0.5-2.1l-0.2-1.6l-0.3-2.1l-0.2-2.6
			v-2.1l0.2-1.6l0.2-2.1l0.3-2l0.5-1.6l0.5-2l0.5-2.1l0.5-1.5l0.7-1.3l0.5-1.5l3.9-7.8l0.8-1.3l0.8-1.1l0.8-1.3l1.6-2.3l1-1.1
			l2.1-2.4l0.7-0.7l1.1-1.3l2.3-2l1.5-1.5l1.8-1.3l2.3-1.8l1.3-0.8l1.1-0.8l1.5-0.7l2-0.8l1.8-1l1.6-0.8l2-0.7l2-0.5l1.6-0.5
			l4.1-0.3l1.5-0.2h2l3.3,0.2l3.7,0.3l3.6,0.7l1.5,0.3l1.8,0.5l6.5,2.9l1.1,1l1.1,0.8l1.1,1l1,1.1l0.3,1.8l-0.7,2.3l-1.8,2l-1.8,1.1
			l-1.3,0.2l-1.3-0.5l-1.3-1l-1.5-0.8l-1.3-0.8l-1.1-0.5l-1.3-0.7l-1.5-0.7l-1.3-0.3l-2.8-0.7l-1.6-0.5l-1.6-0.3h-3.3l-1.1,0.2
			l-1.6,0.2l-2.1,0.5l-4.1,1.5l-1.6,0.8l-1.6,1l-1.1,0.8l-1.3,0.8l-1.1,0.8l-1.1,1l-1.3,1.1l-0.7,0.7l-1.1,1.3l-1,1.1l-0.8,1.1
			l-2,2.3l-0.8,1.1l-0.8,1.3l-2,3.9l-0.8,1.3l-1,2.9l-0.7,1.5l-0.7,1.3l-1,4.4l-0.5,1.6l-0.5,4.4v4.6l0.2,1.6l0.5,1.5l0.7,1.3
			l0.8,1.3l1,1l1.5,0.7l2,0.3l2.1-0.2l1.5-0.5l2.6-1.3l2.3-2l1-1l1.1-1l1-1.1l0.8-1.1l1-1.1l0.8-1.1l1.8-2.4l0.8-1.1l2.4-3.9l1-1.8
			l1.1-2.1l0.7-1l2-4.2l0.7-1.5l0.3-1.1l0.7-1.5l0.5-1.3l0.5-1.5l0.7-1.8l1-3.3l0.7-1.8l0.5-1.6l1-1.5l1.6-0.8l1.5-0.3l1.5,0.2
			l1.5,0.3l2.6,1.3l1.3,0.8l0.7,1l0.2,1.5l-0.5,1.3l-0.3,1.5l-0.5,1.5l-0.7,2.9l-0.5,1.5l-0.3,1.3l-1,2.9l-0.3,1.6l-0.2,1l-0.5,2
			l-0.3,1.5l-0.7,2.8l-0.5,2l-0.3,1.6l-0.3,1.8l-0.5,2.4l-0.5,2.8l-0.2,2.4l0.2,2.1l0.8,1.3l1.6,0.8l2.4,0.2l2-0.7l1.5-0.8l2.3-1.6
			l1.1-1.1l2-2.1l2-2.3l1.6-2.3l0.8-1.3l1-1.3l0.3-1l2.6-3.9l0.7-1.3l0.8-1.3l3.3-6.5l1.5-0.8l2,0.3l1.3,1.6l0.2,1.6l-0.7,1.5
			L201.6,354.4z"/>
		<path fill="#CC963B" d="M234,327.5l-1.3,0.7l-1.1,0.7l-1.1,0.8l-1.3,1l-1.1,1l-2.6,1.8l-1.1,0.8l-1.1,1l-1.1,1.1l-2,2.3l-1.1,1.1
			l-2,2.3l-1.6,2.6l-1,1.3l-2,3.9l-1.8,5.4l-0.5,2.1l-0.7,2.4l-0.7,2.1l-1,4.4l-0.7,2.1l-0.7,2.4L206,373l-0.5,1.5l-0.5,2.1
			l-0.3,1.8l-0.5,1.6l-0.2,1.5l-0.3,1.3l-0.5,1.3l-1,0.8l-1.5,0.5l-1.5,0.2l-2.1,0.2l-2.4-0.2l-2.1-0.3l-1.3-0.7l-1-1.5l-0.2-1.8
			l0.3-1.6l0.5-2.1l0.5-2l0.3-1.5l0.5-1.5l0.3-1.5l0.5-1.3l0.5-1.5l0.3-1.5l0.3-1.3l0.3-1.5l0.5-1.5l0.5-1.3l0.7-2.9l0.3-1.3
			l0.2-1.5l0.5-1.5l0.3-1.5l0.5-1.5l0.5-2l0.7-2.1l0.8-2.9l0.3-1.3l0.3-1.5l0.5-1.5l0.3-1.5l0.5-1.3l0.3-1.5l0.5-1.5l0.5-2.1l0.5-2
			l0.3-1.5l1-2.9l0.3-1.3l0.5-1.5l0.7-2.9l1.1-1.6l2.1-1.1l2.6-0.3l2.6,0.3l2.4,0.8l1.6,1.6l0.3,2l-0.3,1.6l-0.3,1.1l-0.5,1.5
			l-0.3,1.5l-0.5,1.3l-0.3,1.5l-0.5,1.5l-0.3,1.5l-0.2,1l0.2,0.2l0.7-0.8l1-1.1l0.8-1.1l2-2.3l1.1-1l2.1-1.8l1.1-1l2.1-2.1l3.3-2.6
			l1.3-0.8l1.3-0.7l1.3-0.8l1.3-0.5l1.5-0.5l2.1-0.5l2-0.3h3.7l2.6,0.3l1.8,0.3l1.5,0.7l1.5,0.8l1.1,1.1l0.8,1.1l0.8,1.3l0.7,1.3
			l0.5,1.5l0.5,2l0.3,2v3.1l-0.2,1.5v1.5l-0.2,1.3l-0.3,1.5l-0.3,1.6l-0.3,1l-0.5,1.6l-0.5,2.1l-0.7,2.4l-0.7,2.1l-0.5,1.5l-0.5,2.1
			l-0.7,2.8l-0.7,2.6l-0.7,2.3l-0.3,1.5l-0.3,1.1l-0.3,1.5l-0.5,1.5l-0.3,1.3l-1,4.4l-0.2,1.5v2.9l0.7,1.3l1.1,0.8l1.5,0.2l1.5-0.5
			l1.5-0.7l1.3-0.8l1.1-0.8l1.3-1l2.1-2.1l0.8-1.1l1-1.3l0.8-1.1l1.1-1.3l0.8-1.1l1-1.5l1.5-2.4l1-1.5l0.5-0.8l1-1.5l0.8-1.5
			l1.3-2.6l0.7-1.5l0.5-1.3l0.5-1.5l0.8-1.3l1.5-1l2.1,0.5l1.3,1.6v1.6l-0.5,1.5l-0.7,1.3l-0.7,1.5l-0.7,1.3l-0.8,1.3l-0.7,1.3
			l-1,1.5l-0.5,1l-1.6,2.9l-0.3,1l-0.8,1.5l-1.6,2.6l-1,1.5l-0.7,0.8l-1,1.3l-1.1,1.5l-1,1.1l-1.8,2l-1,1.1l-2.3,2l-1,1l-1.3,1
			l-1.3,0.8l-2.6,1.3l-1.3,0.5l-1.5,0.5l-1.5,0.3l-1.3,0.2l-1.6,0.2h-1.5l-1.5-0.2l-1.3-0.3l-1.5-0.5l-1.3-0.5l-1.3-0.8l-1-0.8
			l-1-1.1l-0.7-1.5l-0.5-1.3l-0.3-1.5l-0.3-1.3v-3.6l0.3-2.1l0.2-1.6l0.5-2.1l1.5-5.4l0.5-2.8l0.7-2.8l0.7-2.6l0.7-2.1l0.5-1.5
			l0.7-2.1l0.7-2.6l0.5-2.6l0.7-2.1l0.7-2.9l0.2-1.5l0.7-3.1l0.2-1.5l-0.3-1.6l-1-1.6l-1.5-1.5l-1.5-0.5l-1.5-0.2l-1.5,0.2
			L234,327.5z"/>
		<path fill="#CC963B" d="M324.9,349.7v1.8l-0.7,1.6l-2,3.6l-0.7,1.5l-0.7,1.3l-1.6,2.6l-0.7,1.1l-0.8,1.3l-1.3,2.4l-0.7,1.1l-1,1.5
			l-2,2.3l-0.8,1.3l-0.8,1.1l-1,1.1l-3.1,3.1l-2.3,1.8l-2.3,2l-1.3,1l-1.8,1l-2,0.8l-1.5,0.7l-1.5,0.5l-1.3,0.3l-1.5,0.2h-4.6
			l-1.5-0.2l-1.5-0.3l-2-0.7l-1.8-0.8l-1.3-0.8l-2.3-2l-0.8-1.1l-0.8-1.3l-1.3-2.6l-0.5-1.3l-0.5-1.5l-0.3-1.5l-0.3-1.3v-1.5
			l-0.2-1.5v-1.5l-0.2-1.6v-1.5l0.5-4.4V358l0.8-7.3l0.3-1.5l0.2-1.5l0.7-2.9l0.5-2.1l0.5-2l0.3-1.5l0.5-1.5l0.3-1.5l0.5-1.5
			l0.3-1.5l0.3-2l0.7-2.1l1-2.9v-1.3l-0.5-0.8l-1.1-0.3l-1.3-0.2l-1.6-0.3l-1.6-0.7l-1.1-1.5l-0.3-1.5l-0.2-1.6l0.3-1.3l0.7-1.1
			l1.1-0.8l2.1-0.2l2.4,0.2h2.4l1.6-0.5l0.7-1.1l0.3-1.6l0.3-1.3l0.5-1.5l0.7-1.3l0.7-1.5l0.5-1.3l1-2.9l0.7-2.9l0.5-1.5l0.7-1.3
			l1-2.9l0.5-1.3l0.7-1.5l0.5-1.5l0.5-1.3l0.5-1.5l0.7-1.3l0.7-1.5l0.3-1.3l0.5-1.5l0.7-1.5l0.8-1.1l1.3-0.8l1.5-0.3l1.6,0.2l2,0.3
			l2.1,0.5l1.5,0.8l1.3,1.1l0.5,1.8l-0.3,1.5l-0.8,2.1l-1,2.3l-0.8,2.1l-0.5,1.6l-0.3,1l-0.5,1.6l-1.8,5.4l-0.5,1.3l-0.5,1.5
			l-0.7,2.1l-1,2.4l-1.1,3.4l-0.3,1.5l-0.7,1.3l-0.5,1.3v1.1l1,0.8l1.8,0.3h1.6l2.8-0.2l2.3-0.2h5l2.1,0.2l1.1,1l0.3,1.8v2.1
			l-0.5,1.5l-0.8,1.1l-1.1,0.8l-1.5,0.5l-1.5,0.3l-1.6,0.2l-4.4,0.2h-1.8l-1.5-0.2h-6l-1,0.7l-0.5,1.3l-0.7,2l-0.7,2.6l-0.7,2.8
			l-0.8,2.6l-0.7,2.8l-0.7,2.6l-0.5,2.3l-0.2,1l-0.5,2.3l-0.5,1.8l-0.5,1.6l-0.7,2.9l-0.2,2l-0.3,2.1l-0.3,2.9v4.6l0.3,2.1l0.3,2
			l0.5,1.5l0.7,1.5l0.8,1.1l1.8,1.1l2.3,1l1.8,0.3h1.6l1.8-0.3l3.9-2l4.6-3.9l1.1-1.1l0.8-1l1.6-2.1l2.1-2.6l0.8-1.1l0.7-1.3
			l0.8-1.3l1-1.3l0.8-1.1l0.8-1.3l0.7-1.3l0.5-1.5l0.8-1.6l0.8-1.3l1-1.6l2-1.3l2.1,0.3L324.9,349.7z"/>
		<path fill="#CC963B" d="M399.3,354.4l-0.3,0.8l-0.8,1.6l-0.8,1.1l-0.7,1.3l-0.7,1.5l-0.7,1.3l-1.6,2.6l-0.8,1.1l-0.8,1.3l-0.7,1.3
			l-0.8,1.3l-1,1.1l-1,1.3l-1,1.1l-1.8,2.3l-1,1.1l-1,1l-4.6,3.9l-1.3,0.8l-1.5,0.8l-1.8,0.8l-2,0.8l-1.5,0.5l-1.5,0.3h-1.6l-2-0.2
			l-2-0.5l-1.5-0.5l-1.1-0.8l-1.1-1l-1.1-1.6l-1.1-1.8l-0.5-1.5l-0.5-2l-0.2-2.1v-1.6l0.2-2.1l0.2-2l-0.5-0.3l-0.8,1.1l-1.6,2.6
			l-1.6,2.3l-1,1.1l-0.8,1.1l-1,1.1l-0.8,1.1l-1.1,1l-1,1l-1.1,1l-1.1,0.8l-1.3,0.8L342,384l-2.4,1.1l-2.6,0.8l-2.1,0.5l-2.9,0.3
			l-1.6-0.2l-2-0.3l-2-0.5l-1.5-0.5l-1.3-0.5l-1.1-0.8l-2.3-2l-0.8-1.1l-0.8-1.3l-1-1.8l-1-2.4l-0.5-2.1l-0.2-1.6l-0.3-2.1l-0.2-2.6
			v-2.1l0.2-1.6l0.2-2.1l0.3-2l0.5-1.6l0.5-2l0.5-2.1l0.5-1.5l0.7-1.3l0.5-1.5l3.9-7.8l0.8-1.3l0.8-1.1l0.8-1.3l1.6-2.3l1-1.1
			l2.1-2.4l0.7-0.7l1.1-1.3l2.3-2l1.5-1.5l1.8-1.3l2.3-1.8l1.3-0.8l1.1-0.8l1.5-0.7l2-0.8l1.8-1l1.6-0.8l2-0.7l2-0.5l1.6-0.5
			l4.1-0.3l1.5-0.2h2l3.3,0.2l3.7,0.3l3.6,0.7l1.5,0.3l1.8,0.5l6.5,2.9l1.1,1l1.1,0.8l1.1,1l1,1.1l0.3,1.8l-0.7,2.3l-1.8,2l-1.8,1.1
			l-1.3,0.2l-1.3-0.5l-1.3-1l-1.5-0.8l-1.3-0.8l-1.1-0.5l-1.3-0.7l-1.5-0.7l-1.3-0.3l-2.8-0.7l-1.6-0.5l-1.6-0.3h-3.3l-1.1,0.2
			l-1.6,0.2l-2.1,0.5l-4.1,1.5l-1.6,0.8l-1.6,1l-1.1,0.8l-1.3,0.8l-1.1,0.8l-1.1,1l-1.3,1.1l-0.7,0.7l-1.1,1.3l-1,1.1l-0.8,1.1
			l-2,2.3l-0.8,1.1l-0.8,1.3l-2,3.9l-0.8,1.3l-1,2.9l-0.7,1.5l-0.7,1.3l-1,4.4l-0.5,1.6l-0.5,4.4v4.6l0.2,1.6l0.5,1.5l0.7,1.3
			l0.8,1.3l1,1l1.5,0.7l2,0.3l2.1-0.2l1.5-0.5l2.6-1.3l2.3-2l1-1l1.1-1l1-1.1l0.8-1.1l1-1.1l0.8-1.1l1.8-2.4l0.8-1.1l2.4-3.9l1-1.8
			l1.1-2.1l0.7-1l2-4.2l0.7-1.5l0.3-1.1l0.7-1.5l0.5-1.3l0.5-1.5l0.7-1.8l1-3.3l0.7-1.8l0.5-1.6l1-1.5l1.6-0.8l1.5-0.3l1.5,0.2
			l1.5,0.3l2.6,1.3l1.3,0.8l0.7,1l0.2,1.5l-0.5,1.3l-0.3,1.5l-0.5,1.5l-0.7,2.9l-0.5,1.5l-0.3,1.3l-1,2.9l-0.3,1.6l-0.2,1l-0.5,2
			l-0.3,1.5l-0.7,2.8l-0.5,2l-0.3,1.6l-0.3,1.8l-0.5,2.4l-0.5,2.8l-0.2,2.4l0.2,2.1l0.8,1.3l1.6,0.8l2.4,0.2l2-0.7l1.5-0.8l2.3-1.6
			l1.1-1.1l2-2.1l2-2.3l1.6-2.3l0.8-1.3l1-1.3l0.3-1l2.6-3.9l0.7-1.3l0.8-1.3l3.3-6.5l1.5-0.8l2,0.3l1.3,1.6l0.2,1.6l-0.7,1.5
			L399.3,354.4z"/>
	</g>
	<g>
		<path fill="#D52128" d="M164.3,95.9l1.1,0.6l0.6,0.7l0.5,0.7l0.1,0.8l-0.4,0.8l-1,1.6l-0.4,0.8l-0.6,1.9l-0.2,0.9l-0.3,0.8
			l-0.1,0.9v1l0.2,1.9l0.6,1.9l0.5,0.8l0.5,0.7l0.7,0.6l0.8,0.5l0.8,0.4l0.9,0.3l0.9,0.2h1.9l0.9-0.2l0.9-0.3l0.8-0.4l0.8-0.5
			l1.4-1.2l0.6-0.6l0.5-0.7l0.9-1.8l0.8-1.6l0.4-0.9l0.3-0.8l0.4-0.9l0.4-0.8l0.6-1.9l0.2-0.8l0.9-2.8l0.4-1.9l0.2-0.8l0.6-1.9
			l0.3-0.8l0.3-1l0.6-2.5l0.2-1l0.3-1.2l0.3-1.3l0.3-0.9l0.3-1.3l0.3-1.2l0.2-1l0.3-1.2l0.3-1.3l0.3-0.9l0.2-0.8l1.1-3.4l0.2-1
			l0.3-1.2l0.3-1.3l0.2-0.9l0.8-2.7l0.2-0.7l0.4-1.3l0.3-1.3l0.2-0.9l0.3-0.8l0.3-0.9l0.2-0.9l-0.4-0.2l-0.7,0.5l-1.6,1.4l-0.5,0.3
			l-2.3,2l-0.8,0.5l-0.7,0.5l-1.8,0.8l-1.6,1l-0.7,0.4l-0.8,0.5l-0.9,0.3l-0.9,0.5l-0.6,0.4l-1.9,0.8l-0.8,0.3l-0.9,0.4l-0.8,0.5
			l-0.7,0.5l-0.8,0.5l-1.4,1.2l-0.6,0.6l-1.2,1.4l-0.4,0.8l-0.4,0.9l-0.2,0.9l-0.2,1v1l0.2,0.9l0.2,1l0.4,0.8l0.6,0.7l0.8,0.6
			l0.9,0.4l0.9,0.3l1,0.7l0.5,1.4l-0.4,1.4l-1.1,1l-1.1,0.4l-1.9-0.2l-2.7-0.6l-0.9-0.3l-0.8-0.5l-1.4-1l-0.7-0.6l-0.7-0.7l-0.6-0.7
			l-0.4-0.7l-0.4-0.9l-0.2-0.8l-0.3-0.9l-0.2-0.9l-0.1-0.9l0.1-0.9v-0.9L160,76l0.3-0.9l0.3-0.8l0.4-0.9l0.5-0.8l0.5-0.7l0.5-0.8
			l0.6-0.7l0.6-0.5l0.7-0.6l0.9-0.6l0.8-0.5l1.5-0.9l0.8-0.5l0.9-0.3l0.8-0.4l1.5-0.8l0.9-0.4l1-0.4l0.6-0.2l1-0.4l0.9-0.4l0.8-0.4
			l0.9-0.4l1.2-0.5l2.2-0.9l1.8-0.7l0.8-0.4l1.6-0.9l0.8-0.4l0.8-0.5l0.7-0.5l0.6-0.5l1.4-1l1-0.7l0.7-0.6l0.7-0.7l0.7-0.8l0.4-0.4
			l1.2-1.4l0.6-0.8l0.6-0.7l0.7-0.5l0.9-0.3l0.9-0.1h1.9l0.8,0.2l0.9,0.3l0.8,0.5l0.7,0.9l0.1,1.1l-0.2,0.9l-0.3,0.8l-0.6,1.9
			l-0.2,0.8l-0.6,1.9l-0.4,1.3l-1.3,4l-0.3,1.2l-0.4,1.2l-0.3,1l-0.2,0.9l-0.1,0.9l-0.3,0.9l-0.2,0.8l-0.6,1.9l-0.2,0.9l-0.2,0.8
			l-0.2,0.9l-0.3,0.9l-0.2,0.9l-0.3,0.8l-0.2,0.9l-0.3,0.9l-0.2,0.9l-0.2,0.8l-0.2,0.9l-0.6,1.9l-0.2,0.8l-0.2,0.9l-0.3,0.9
			l-0.2,0.9l-1.6,5.8l-0.3,1.2l-0.2,1l-0.8,2.5l-0.2,0.9l-1,3.1l-0.3,1.2l-0.3,0.9l-0.3,0.8l-0.4,0.9l-0.6,1.2l-0.6,1.4l-0.5,1.2
			l-0.5,1l-0.6,1.1l-0.6,1l-0.6,0.8l-0.5,0.7l-0.7,0.8l-0.4,0.4l-0.7,0.8l-0.6,0.6l-0.7,0.6l-1.4,1l-0.8,0.4l-0.9,0.3l-0.8,0.4
			l-0.9,0.3l-1.2,0.3l-1.4,0.3l-2.2,0.2h-2.3l-1.3-0.2l-1.6-0.2l-1.2-0.4l-1.1-0.4l-0.5-0.3l-0.9-0.5l-0.7-0.5l-0.7-0.6l-0.7-0.5
			l-0.7-0.6l-0.8-1l-0.7-1l-0.4-0.9l-0.5-1.2l-0.3-1.1l-0.3-1l-0.2-1.3l-0.1-1.2v-1l0.2-1.3l0.3-1.2l0.4-0.9l0.5-1.3l0.8-1.4
			l0.9-1.4l0.8-1.1l1.6-1.6l1-0.7l1-0.2L164.3,95.9z"/>
		<path fill="#D52128" d="M262.1,98.3l-0.2-1.3l-0.6-1.5l-0.5-1.2l-1.5-2.5l-0.6-0.7l-0.6-0.6l-0.5-0.7l-0.6-0.7l-0.5-0.7l-0.6-0.7
			l-0.6-0.6l-0.7-0.6l-0.6-0.6l-1.2-1.4l-0.5-0.6l-0.7-0.8l-0.5-0.4l-0.7-0.7l-1.9-2.2l-0.7-0.9l-2.2-3.1l-0.6-1.1l-0.4-0.9
			l-0.3-0.8l-0.3-0.9l-0.6-1.6l-0.2-0.9l-0.1-0.8v-0.9l-0.1-1v-1.3l0.1-1.2l0.1-1l0.1-0.9l0.4-1.9l0.4-0.9l0.3-0.9l0.4-0.8l0.5-0.9
			l0.5-0.7l0.6-0.8l0.6-0.7l1.3-1.3l0.7-0.6l0.8-0.5l1.6-0.8l0.9-0.4l2.5-0.9l1.1-0.3l1.9-0.4h2.1l1.6-0.1h1l1.3,0.1l1.1,0.1
			l2.1,0.4l0.9,0.3l0.8,0.4l0.9,0.4l2.2,1.3l0.8,0.6l0.7,0.6l0.5,0.6l0.6,0.7l0.6,0.8l0.7,1l0.6,1.1l0.3,0.9l0.2,0.9l0.1,1l0.2,1.2
			v3.2l-0.1,0.9l-0.2,0.9l-0.4,0.8l-0.7,0.5l-0.8,0.4l-0.9,0.1l-0.8,0.1l-0.9-0.2l-0.8-0.5l-0.7-1l-0.3-1.1l-0.1-1v-2l-0.1-0.9
			l-0.3-0.8l-0.3-0.9l-0.4-0.8l-0.5-0.8l-0.6-0.7l-0.7-0.6l-0.7-0.5l-0.8-0.5l-0.8-0.3l-0.9-0.3l-0.8-0.1l-2.9-0.3h-0.9l-1,0.1
			l-1.9,0.6l-1.6,1l-0.7,0.6l-0.7,0.7l-0.5,0.7l-0.5,0.9l-0.3,0.8l-0.4,0.9l-0.3,0.9l-0.2,1l-0.1,0.9v2l0.1,0.9l0.2,0.9l0.2,0.8
			l0.4,0.9l0.3,0.8l0.5,0.9l0.6,1.2l0.6,1.1l1,1.6l2.5,2.9l0.5,0.7l2.1,2.1l2.5,2.9l1.3,1.3l0.5,0.7l1.1,1.4l0.6,0.7l0.6,0.8
			l0.5,0.7l0.4,0.8l0.5,0.8l0.8,1.6l0.4,0.9l0.4,0.8l0.3,0.9l0.3,0.8l0.2,0.9l0.1,0.9l0.2,0.9l0.1,0.9l-0.1,1l-0.2,1.9l-0.4,1.9
			l-0.1,0.9l-0.1,0.8l-0.2,0.9l-0.3,0.9l-0.4,0.8l-0.4,0.9l-1.2,2.3l-0.6,0.9l-0.6,0.7l-0.7,0.7l-0.5,0.4l-0.8,0.7l-0.5,0.5
			l-1.6,1.2l-1.6,0.8l-0.8,0.5l-1,0.4l-0.8,0.3l-0.7,0.2l-0.9,0.3l-1,0.2l-0.9,0.1l-0.7,0.2l-3.1,0.3h-2.6l-2.8-0.3h-0.7l-1-0.2
			l-1.4-0.3l-2.2-0.7l-0.8-0.4l-0.7-0.5l-1-0.6l-1.6-1.2l-1.6-1.6l-0.6-0.7l-1-1.4l-0.5-0.8l-0.5-0.7l-0.6-1.9l-0.2-0.9l-0.3-1.2
			l-0.3-1.3l-0.2-0.9l-0.1-0.9v-2l0.1-0.8v-1.9l0.1-0.9l0.6-2.8l0.3-1.2l0.3-1.3l0.3-0.9l0.8-0.9l1.4-0.6h1.5l1.3,0.3l0.8,0.6
			l0.5,0.9V94l-0.1,1l-0.2,0.9l-0.3,0.9l-0.1,0.9l-0.2,0.9v2.9l0.3,2.8l0.2,0.9l0.9,2.8l0.5,0.8l0.6,0.9l0.3,0.5l0.7,0.8l0.6,0.6
			l0.7,0.6l0.8,0.5l0.7,0.5l0.8,0.5l0.9,0.4l0.8,0.3l1,0.2l0.9,0.1h1.2l2.9-0.2l1.2-0.1l0.9-0.3l1.6-0.6l0.8-0.4l0.8-0.5l0.8-0.9
			l0.9-0.9l0.6-0.8l0.6-1l0.6-1.1l0.4-1l0.4-1.2l0.4-1.5l0.2-1.3l0.1-1l-0.1-1.3l-0.1-1.2L262.1,98.3z"/>
		<path fill="#D52128" d="M313.5,97.7v1.1l-0.4,1l-1.2,2.3l-0.4,0.9l-0.4,0.8l-1,1.6l-0.4,0.7l-0.5,0.8l-0.8,1.5l-0.4,0.7l-0.6,0.9
			l-1.2,1.4l-0.5,0.8l-0.5,0.7l-0.6,0.7l-2,2l-1.4,1.1l-1.4,1.2l-0.8,0.6l-1.1,0.6l-1.2,0.5l-0.9,0.4l-0.9,0.3l-0.8,0.2l-0.9,0.1
			h-2.9l-0.9-0.1l-0.9-0.2l-1.2-0.4l-1.1-0.5l-0.8-0.5l-1.4-1.2l-0.5-0.7l-0.5-0.8l-0.8-1.6l-0.3-0.8l-0.3-0.9l-0.2-0.9l-0.2-0.8
			v-0.9l-0.1-0.9v-0.9l-0.1-1v-0.9l0.3-2.8V103l0.5-4.6l0.2-0.9l0.1-0.9l0.4-1.9l0.3-1.3l0.3-1.2l0.2-0.9l0.3-0.9l0.2-0.9l0.3-0.9
			l0.2-0.9l0.2-1.2l0.4-1.3l0.6-1.9v-0.8l-0.3-0.5l-0.7-0.2l-0.8-0.1l-1-0.2l-1-0.4l-0.7-0.9l-0.2-0.9l-0.1-1l0.2-0.8l0.4-0.7
			l0.7-0.5l1.3-0.1l1.5,0.1h1.5l1-0.3l0.4-0.7l0.2-1l0.2-0.8l0.3-0.9l0.4-0.8l0.4-0.9l0.3-0.8l0.6-1.9l0.4-1.9l0.3-0.9l0.4-0.8
			l0.6-1.9l0.3-0.8l0.4-0.9l0.3-0.9l0.3-0.8l0.3-0.9l0.4-0.8l0.4-0.9l0.2-0.8l0.3-0.9l0.4-0.9l0.5-0.7l0.8-0.5l0.9-0.2l1,0.1
			l1.2,0.2l1.3,0.3l0.9,0.5l0.8,0.7l0.3,1.1l-0.2,0.9L302,57l-0.6,1.4l-0.5,1.3l-0.3,1l-0.2,0.6l-0.3,1l-1.1,3.4l-0.3,0.8l-0.3,0.9
			l-0.4,1.3l-0.6,1.5l-0.7,2.2l-0.2,0.9l-0.4,0.8l-0.3,0.8V76l0.6,0.5l1.1,0.2h1l1.8-0.1l1.4-0.1h3.2l1.3,0.1l0.7,0.6l0.2,1.1v1.3
			l-0.3,0.9l-0.5,0.7l-0.7,0.5l-0.9,0.3l-0.9,0.2l-1,0.1l-2.8,0.1h-1.1l-0.9-0.1h-3.8l-0.6,0.4l-0.3,0.8l-0.4,1.2l-0.4,1.6l-0.4,1.8
			l-0.5,1.6l-0.4,1.8l-0.4,1.6l-0.3,1.4l-0.1,0.6l-0.3,1.4l-0.3,1.1l-0.3,1l-0.4,1.9l-0.1,1.2l-0.2,1.3l-0.2,1.9v2.9l0.2,1.3
			l0.2,1.2l0.3,0.9l0.4,0.9l0.5,0.7l1.1,0.7l1.4,0.6l1.1,0.2h1l1.1-0.2l2.5-1.2l2.9-2.5l0.7-0.7l0.5-0.6l1-1.3l1.3-1.6l0.5-0.7
			l0.4-0.8l0.5-0.8l0.6-0.8l0.5-0.7l0.5-0.8l0.4-0.8l0.3-0.9l0.5-1l0.5-0.8l0.6-1l1.2-0.8l1.3,0.2L313.5,97.7z"/>
		<path fill="#D52128" d="M333.8,98v1.1l-0.3,0.9l-0.8,1.6l-0.9,1.5l-0.5,0.9l-0.4,0.8l-0.6,0.9l-0.3,0.6l-0.5,0.9l-0.5,0.8
			l-0.5,0.7l-0.6,0.8l-0.5,0.7l-1,1.6l-1.9,2.2l-1.2,1.3l-0.7,0.7l-0.6,0.7l-0.7,0.6l-2.3,1.8l-0.7,0.5l-0.9,0.4l-0.9,0.3l-0.8,0.2
			l-1.9,0.4h-1.8l-1.1-0.1l-0.8-0.3l-0.9-0.3l-0.8-0.5l-0.7-0.6l-0.5-0.7l-0.5-0.8l-0.4-0.9l-0.2-0.8l-0.2-0.9l-0.1-0.9v-0.9
			l0.2-1.9l0.2-0.9l0.3-0.9l0.4-1.9l0.3-0.8l0.2-0.9l0.3-0.9l0.3-0.8l0.9-2.8l0.1-0.8l0.2-0.9l0.3-0.9l0.2-0.9l0.2-0.8l0.6-1.9
			l0.3-1.2l0.3-1.3l0.6-1.9l0.2-0.9l0.2-0.7l0.2-0.9l0.4-1l0.3-0.8l0.6-2.8l0.3-0.9l0.3-1.2l0.4-1.3l0.3-0.9l0.4-0.8l0.6-0.5
			l0.9-0.4l0.8-0.1l1,0.1l1.9,0.2l1.6,0.6l0.5,0.7v0.9l-0.2,0.9l-0.3,1.2l-0.3,1.3l-0.6,1.9l-0.2,0.8l-0.2,0.9l-0.3,1l-0.3,1.2
			l-1,3.1l-0.2,0.9l-0.4,1.3l-0.7,2.2l-0.2,0.9l-0.2,0.8l-0.2,0.9l-0.7,1.8l-0.2,0.9l-0.7,2.6l-0.6,1.9l-0.2,0.9l-0.3,1.3l-0.3,1.6
			l-0.2,1.8l0.2,1.5l0.8,1.1l1.1,0.3l0.9-0.1l0.9-0.4l0.7-0.5l0.8-0.6l3.4-3.4l0.6-0.7l0.5-0.7l0.6-0.8l1-1.6l0.6-0.7l0.4-0.6
			l0.5-0.8l0.6-0.9l0.4-0.9l0.8-1.8l1.2-2.5l0.5-0.8l0.9-0.5l1.3,0.2L333.8,98z M317.2,66.3l0.5-0.8l0.8-0.7l0.8-0.5l1-0.3l0.9-0.2
			h1l0.9,0.2l0.8,0.5l0.7,0.6l0.7,0.7l0.5,0.8l0.3,0.9l0.1,0.9v1l-0.3,0.9l-0.5,0.8l-0.6,0.8l-0.7,0.6l-0.8,0.6l-0.9,0.4l-1,0.2
			l-0.9-0.1l-1-0.2l-1.6-1l-0.6-0.7l-0.5-0.8l-0.2-0.9l-0.1-0.9l0.1-0.9l0.2-1L317.2,66.3z"/>
		<path fill="#D52128" d="M360.8,70.6l-0.5,0.9l-0.8,1.6l-0.5,1.1l-0.7,1.1l-0.5,0.7l-0.5,0.8l-0.5,0.7l-0.5,0.9l-0.4,0.6l-0.5,0.8
			l-0.7,0.9l-0.9,1l-0.9,0.9l-0.4,0.5l-0.7,0.8l-1.3,1.3l-0.6,0.7l-1.1,1.2l-0.7,0.6l-0.8,0.8l-1.1,0.8l-1.5,1.3l-0.8,0.5l-2.3,1.4
			l-0.7,0.3l-0.8,0.5l-1.1,0.9l-0.7,0.9l-0.4,0.8l-0.2,1.1l-0.3,1.9v0.6l-0.2,1l-0.2,0.9l-0.1,1v2.2l-0.1,1.3v2.1l0.2,1.1l0.1,0.6
			l0.2,1l0.4,0.9l0.4,0.8l0.6,0.7l0.8,0.5l0.8,0.3l1,0.2h1.8l0.8-0.1l0.9-0.3l1.2-0.5l1.1-0.6l0.8-0.6l1-0.8l0.9-0.9l1.2-1.1
			l0.8-0.7l0.6-0.8l0.4-0.5l0.6-0.8l0.4-0.7l0.6-0.9l0.4-0.5l0.6-0.9l0.8-1.5l0.5-0.8l0.6-0.9l0.5-0.9l0.5-1l0.9-1.3l1-0.8l1.3,0.2
			l0.8,1v1l-0.3,0.9l-0.4,0.8l-0.5,0.8l-0.4,0.9l-0.4,0.8l-0.3,0.8l-0.5,0.8l-0.4,0.7l-0.5,0.8l-0.6,0.9l-0.2,0.5l-0.5,0.9l-0.6,0.8
			l-1,1.4l-0.7,0.9l-0.4,0.4l-0.7,0.9l-0.6,0.7l-0.8,1l-0.9,0.8l-0.7,0.7l-0.6,0.5l-0.7,0.6l-0.9,0.5l-0.8,0.4l-0.9,0.4l-0.8,0.4
			l-0.8,0.3l-0.9,0.4l-1.2,0.4l-2.1,0.4l-1.2,0.1l-1.1-0.1h-0.6l-1-0.1l-0.9-0.2l-0.8-0.3l-0.9-0.3l-0.8-0.4l-0.8-0.5l-0.7-0.6
			l-0.6-0.6l-0.6-0.7l-0.4-0.8l-0.4-0.9l-0.3-0.8l-0.2-0.9l-0.3-0.9l-0.1-0.9l-0.2-1v-0.6l-0.2-1.1l-0.1-0.9v-0.9l0.1-0.9l0.1-1
			v-0.6l0.1-1.3l0.3-2.3l0.1-1.2V99l0.2-0.9l0.2-1l0.7-3.4l0.3-1.2l0.3-1.9l0.2-0.5l0.3-1.2l0.2-0.6l0.4-1.5l0.3-1.3l0.2-0.9
			l0.3-1.2l0.4-1.4l0.1-0.7l0.4-1.4l0.4-1.3l0.3-0.7l0.4-1.3l0.4-1.2l0.4-0.9l1-2.7l0.2-0.6l0.6-1.4l0.7-1.6l0.5-1.2l0.4-0.9
			l0.3-0.6l0.5-0.9l0.7-1.8l0.5-1l0.5-0.9l0.6-0.9l0.8-1.3l1.3-1.9l0.6-0.8l1.3-1.3l0.4-0.5l0.7-0.7l0.7-0.5l1.6-1.1l1.1-0.7
			l1.1-0.5l0.9-0.3l0.9-0.2h1.9l1,0.2l0.6,0.1l1,0.3l0.8,0.4l1.4,1.2l0.5,0.8l0.7,1l0.5,1.2l0.4,0.9l0.4,1.2l0.2,1.3v1.9l-0.2,2.8
			l-0.4,1.9l-0.3,0.8l-0.2,1l-0.8,2.5l-0.4,0.8L360.8,70.6z M343.7,73.5l-1.4,4.3l-0.2,0.9l-0.3,0.9l-0.4,1.3l-0.7,2.2l-0.3,1
			l-0.1,0.6l-0.3,1l-0.3,0.9l-0.2,1l0.2,0.6l0.6-0.4l1-0.8l4.2-4.2l0.5-0.7l0.5-0.8l0.6-0.9l0.4-0.4l0.6-0.9l0.7-0.9l0.7-1l0.7-1.1
			l0.5-0.8l0.4-0.7l0.5-0.7l0.8-1.6l0.4-1l0.3-0.6l0.4-1l0.4-0.9l0.2-0.9l0.3-0.9l0.3-1.1l0.4-1.1l0.3-1.1l0.4-1.1l0.1-1l0.1-0.9v-2
			l-0.2-0.8l-0.3-0.8l-0.7-0.5l-0.8-0.2l-0.9,0.2l-0.9,0.7l-0.7,0.6l-0.5,0.6l-0.5,0.7l-0.5,0.8l-1,1.5l-0.5,0.9l-0.4,0.9l-0.4,0.8
			l-0.4,0.9l-0.4,0.8l-0.4,0.9l-0.3,0.8l-0.4,1.1l-0.6,1.5l-0.4,0.9L343.7,73.5z"/>
		<path fill="#D52128" d="M391.1,70.6l-0.5,0.9l-0.8,1.6l-0.5,1.1l-0.7,1.1l-0.5,0.7l-0.5,0.8l-0.5,0.7l-0.5,0.9l-0.4,0.6l-0.5,0.8
			l-0.7,0.9l-0.9,1L383,83l-0.4,0.5l-0.7,0.8l-1.3,1.3l-0.6,0.7l-1.1,1.2l-0.7,0.6l-0.8,0.8l-1.1,0.8l-1.5,1.3l-0.8,0.5l-2.3,1.4
			l-0.7,0.3l-0.8,0.5l-1.1,0.9l-0.7,0.9l-0.4,0.8l-0.2,1.1l-0.3,1.9v0.6l-0.2,1l-0.2,0.9l-0.1,1v2.2l-0.1,1.3v2.1l0.2,1.1l0.1,0.6
			l0.2,1l0.4,0.9l0.4,0.8l0.6,0.7l0.8,0.5l0.8,0.3l1,0.2h1.8l0.8-0.1l0.9-0.3l1.2-0.5l1.1-0.6l0.8-0.6l1-0.8l0.9-0.9l1.2-1.1
			l0.8-0.7l0.6-0.8l0.4-0.5l0.6-0.8l0.4-0.7l0.6-0.9l0.4-0.5l0.6-0.9l0.8-1.5l0.5-0.8l0.6-0.9l0.5-0.9l0.5-1l0.9-1.3l1-0.8l1.3,0.2
			l0.8,1v1l-0.3,0.9l-0.4,0.8l-0.5,0.8l-0.4,0.9l-0.4,0.8l-0.3,0.8l-0.5,0.8l-0.4,0.7l-0.5,0.8l-0.6,0.9L388,108l-0.5,0.9l-0.6,0.8
			l-1,1.4l-0.7,0.9l-0.4,0.4l-0.7,0.9l-0.6,0.7l-0.8,1l-0.9,0.8l-0.7,0.7l-0.6,0.5l-0.7,0.6l-0.9,0.5l-0.8,0.4l-0.9,0.4l-0.8,0.4
			l-0.8,0.3l-0.9,0.4l-1.2,0.4l-2.1,0.4l-1.2,0.1l-1.1-0.1H368l-1-0.1l-0.9-0.2l-0.8-0.3l-0.9-0.3l-0.8-0.4l-0.8-0.5l-0.7-0.6
			l-0.6-0.6l-0.6-0.7l-0.4-0.8l-0.4-0.9l-0.3-0.8l-0.2-0.9l-0.3-0.9L359,112l-0.2-1v-0.6l-0.2-1.1l-0.1-0.9v-0.9l0.1-0.9l0.1-1v-0.6
			l0.1-1.3l0.3-2.3l0.1-1.2V99l0.2-0.9l0.2-1l0.7-3.4l0.3-1.2l0.3-1.9l0.2-0.5l0.3-1.2l0.2-0.6l0.4-1.5l0.3-1.3l0.2-0.9l0.3-1.2
			l0.4-1.4l0.1-0.7l0.4-1.4l0.4-1.3l0.3-0.7l0.4-1.3l0.4-1.2l0.4-0.9l1-2.7l0.2-0.6l0.6-1.4l0.7-1.6l0.5-1.2l0.4-0.9l0.3-0.6
			l0.5-0.9l0.7-1.8l0.5-1l0.5-0.9l0.6-0.9l0.8-1.3l1.3-1.9l0.6-0.8l1.3-1.3l0.4-0.5l0.7-0.7l0.7-0.5l1.6-1.1l1.1-0.7l1.1-0.5
			l0.9-0.3l0.9-0.2h1.9l1,0.2l0.6,0.1l1,0.3l0.8,0.4l1.4,1.2l0.5,0.8l0.7,1l0.5,1.2l0.4,0.9l0.4,1.2l0.2,1.3v1.9l-0.2,2.8l-0.4,1.9
			l-0.3,0.8l-0.2,1l-0.8,2.5l-0.4,0.8L391.1,70.6z M374,73.5l-1.4,4.3l-0.2,0.9l-0.3,0.9l-0.4,1.3l-0.7,2.2l-0.3,1l-0.1,0.6l-0.3,1
			l-0.3,0.9l-0.2,1l0.2,0.6l0.6-0.4l1-0.8l4.2-4.2l0.5-0.7l0.5-0.8l0.6-0.9l0.4-0.4l0.6-0.9l0.7-0.9l0.7-1l0.7-1.1l0.5-0.8l0.4-0.7
			l0.5-0.7l0.8-1.6l0.4-1l0.3-0.6l0.4-1l0.4-0.9l0.2-0.9l0.3-0.9l0.3-1.1l0.4-1.1l0.3-1.1l0.4-1.1l0.1-1l0.1-0.9v-2l-0.2-0.8
			l-0.3-0.8l-0.7-0.5l-0.8-0.2l-0.9,0.2l-0.9,0.7l-0.7,0.6l-0.5,0.6l-0.5,0.7l-0.5,0.8l-1,1.5l-0.5,0.9l-0.4,0.9l-0.4,0.8l-0.4,0.9
			l-0.4,0.8l-0.4,0.9l-0.3,0.8l-0.4,1.1l-0.6,1.5L375,71L374,73.5z"/>
	</g>
	<g>
		<path fill="#CA963F" d="M64,164.2c3.5-0.2,6.5,0.4,9.2,1.6c2.6,1.2,4.9,2.9,6.6,5.1c1.8,2.2,3.1,4.7,4,7.5
			c0.9,2.8,1.4,5.6,1.5,8.5c0.1,2.8-0.3,5.6-1,8.2c-0.8,2.6-1.9,4.9-3.4,6.8c-2.2,2.5-4.8,4.6-7.8,6.1c-3,1.5-6.1,2.4-9.2,2.6
			c-3.1,0.2-6.1-0.4-9.1-1.7c-2.9-1.3-5.4-3.5-7.4-6.6c-0.4-0.6-0.6-0.7-0.7-0.3c0,0.4,0,0.9,0,1.7c0,0.8,0,1.7-0.1,2.7
			c-0.1,1-0.3,1.9-0.7,2.7c-0.4,0.8-1,1.4-1.9,1.7c-0.9,0.4-2.2,0.3-3.7-0.3c-2.3-0.6-4-1.8-5.2-3.4c-1.1-1.6-2-3.4-2.5-5.3
			c-0.6-1.9-0.9-3.8-1.1-5.6c-0.2-1.8-0.3-3.2-0.5-4.3c-0.1-3.6,0-6.9,0.1-10c0.2-3.1,0.4-6.1,0.8-9.1c0.4-3,0.9-6,1.5-9
			c0.7-3,1.5-6.3,2.4-9.7c0.7-2.6,1.5-5.1,2.4-7.4c0.9-2.3,2-4.5,3.3-6.6c1.3-2.1,2.7-4.1,4.4-6c1.7-1.9,3.7-3.7,6.1-5.3
			c2.5-1.7,5.3-2.4,8.2-2.4c3,0.1,5.7,0.8,8.2,2.2c2.5,1.4,4.4,3.3,5.9,5.8c1.4,2.5,1.9,5.2,1.3,8.3c-0.5,2.3-1.1,4.4-2,6.5
			c-0.9,2-1.8,3.9-2.9,5.7c-1.1,1.8-2.2,3.4-3.4,4.9C66.4,161.6,65.2,163,64,164.2z M73.7,192.5c1-2.7,1.5-5.4,1.3-8.1
			c-0.2-2.7-0.7-5.1-1.7-7.3c-0.9-2.2-2.2-4-3.8-5.4c-1.6-1.4-3.2-2.2-4.9-2.4c-2-0.3-3.8-0.3-5.5-0.1c-1.7,0.3-3.1,0.7-4.4,1.2
			c-1.3,0.6-2.4,1.2-3.3,1.9c-0.9,0.7-1.5,1.4-1.8,2c-0.6,1.3-1.1,2.9-1.5,4.7c-0.4,1.8-0.5,3.7-0.3,5.7c0.9-0.8,2.1-1.4,3.4-1.9
			c1.3-0.5,2.5-0.8,3.7-1.1c1.2-0.2,2.3-0.3,3.2-0.2c0.9,0.1,1.6,0.4,1.9,0.8c0.6,0.5,0.5,0.9-0.1,1.2c-0.6,0.3-1.4,0.8-2.5,1.4
			c-1.1,0.6-2.2,1.4-3.4,2.4c-1.2,1-2.1,2.5-2.8,4.5c-0.5,1.6-0.5,3-0.2,4.3c0.4,1.3,1.4,2.4,3.1,3.3c1.6,0.8,3.4,1.2,5.4,1.1
			c2,0,4-0.4,5.8-1.1c1.9-0.7,3.5-1.6,5-2.8C72.2,195.6,73.2,194.1,73.7,192.5z M65.9,138.5c-1.2-0.6-2.4-0.3-3.7,0.7
			c-1.3,1-2.6,2.4-3.9,4.3c-1.3,1.9-2.5,4-3.7,6.3c-1.1,2.3-2.1,4.5-2.8,6.5c-0.7,2-1.2,3.7-1.4,5c-0.2,1.3,0,2,0.5,1.9
			c2.4-0.2,4.7-1,6.6-2.3c2-1.3,3.7-2.8,5-4.6c1.4-1.8,2.5-3.7,3.3-5.6c0.8-2,1.4-3.8,1.7-5.6c0.3-1.7,0.3-3.2,0-4.4
			C67.4,139.5,66.8,138.7,65.9,138.5z"/>
		<path fill="#CA963F" d="M140.1,193.9c0.8,0.6,1,1.5,0.7,2.8c-0.4,1.3-1.1,2.7-2.3,4.2c-1.1,1.5-2.6,2.9-4.4,4.3
			c-1.8,1.4-3.8,2.5-6,3.3c-1.9,0.7-3.9,1.3-5.9,1.8c-2.1,0.5-4.2,0.8-6.3,0.9c-2.2,0.1-4.4-0.1-6.8-0.6c-2.4-0.5-4.8-1.4-7.2-2.7
			c-5.1-2.7-8.5-5.9-10.2-9.6c-1.7-3.7-2.2-7.5-1.5-11.5c0.7-4,2.2-7.8,4.6-11.4c2.4-3.7,5-6.8,7.9-9.3c-4.3-1.9-7.2-4.3-8.9-7.2
			c-1.7-2.9-2.4-5.9-2.3-9.1c0.2-3.2,1-6.4,2.7-9.6c1.6-3.2,3.6-6.1,6-8.7c2.4-2.6,5-4.6,7.8-6.2c2.8-1.5,5.5-2.2,8-2.1
			c2.4,0.2,4.8,0.7,7.3,1.7c2.5,1,4.7,2.1,6.6,3.4c1.9,1.3,3.3,2.5,4.1,3.9c0.9,1.3,0.9,2.4,0.1,3.1c-0.5,0.5-1.2,0.5-2.3,0.1
			c-1.1-0.4-2.4-1-4.1-1.6c-1.7-0.6-3.6-1.2-5.9-1.8c-2.3-0.6-4.8-0.8-7.5-0.6c-4.3,0.2-7.3,1.7-9.1,4.4c-1.8,2.7-2.8,6.2-3.1,10.5
			c-0.2,2.6,0.1,4.8,0.9,6.6c0.8,1.8,1.6,3.3,2.6,4.4c1,1.1,1.9,1.9,2.8,2.3c0.9,0.4,1.5,0.6,1.7,0.4c2.8-2.4,5.9-4.3,9.1-5.8
			c3.2-1.5,6.2-2.4,9.1-2.8c2.8-0.4,5.3-0.1,7.3,0.8c2.1,0.9,3.3,2.6,3.8,5.2c-0.1,1.3-0.7,2.6-1.9,3.7c-1.2,1.1-2.7,2.1-4.5,3
			c-1.8,0.9-3.8,1.7-5.9,2.4c-2.1,0.7-4.1,1.3-5.9,1.8c-1.8,0.5-3.4,0.8-4.6,1.1c-1.3,0.3-1.9,0.5-2,0.5c-2.1,1.5-4.1,3.2-6.1,5.1
			c-2,1.9-3.5,4.3-4.4,7.2c-0.9,2.7-0.9,5.1-0.1,7.2c0.8,2.1,2.3,3.9,4.3,5.2c2,1.3,4.5,2.2,7.4,2.6c2.9,0.4,6.1,0.3,9.5-0.4
			c1.2-0.2,2.5-0.5,3.9-1.1c1.4-0.6,2.8-1,4.3-1.5c1.4-0.4,2.7-0.8,4-0.9C138.4,193.1,139.4,193.3,140.1,193.9z M130.8,158
			c-1.8-1.1-3.6-1.1-5.5-0.1c-1.8,1-3.8,2.6-6,4.6c1-0.1,2.3-0.3,3.8-0.7c1.5-0.4,2.9-0.8,4.2-1.2c1.3-0.5,2.3-1,3.1-1.5
			C131.1,158.6,131.2,158.2,130.8,158z"/>
		<path fill="#CA963F" d="M141.7,212.3c-1-2.6-1.2-5.1-0.4-7.4c0.8-2.3,2-4.2,3.9-5.7c1.8-1.5,4-2.4,6.6-2.8c2.6-0.4,5.3,0,8.1,1.2
			c0.2,0.1,0.4-0.3,0.6-1.2c0.2-0.9,0.4-2,0.6-3.4c0.2-1.4,0.2-3,0.2-4.8c0-1.8-0.1-3.5-0.4-5.3c-1,0.6-2.3,1.1-3.7,1.7
			c-1.5,0.6-2.9,0.9-4.3,1.2c-1.4,0.2-2.6,0.3-3.7,0.2c-1.1-0.1-1.6-0.6-1.7-1.4c-0.2-0.7,0.2-1.4,0.9-2.1c0.8-0.7,1.8-1.5,3.1-2.4
			c1.3-0.9,2.7-1.9,4.3-3.1c1.6-1.2,3.1-2.6,4.5-4.4c0.1-0.1,0.1-1.1,0.2-3.1c0-2,0.1-4.6,0.2-7.6c0.1-3.1,0.3-6.5,0.5-10.1
			c0.2-3.7,0.5-7.2,0.9-10.5c0.4-3.3,1-6.2,1.7-8.8c0.7-2.5,1.6-4.2,2.7-5.1c2-1.7,4.3-2.4,6.9-2.1c2.6,0.4,5,1.5,7.3,3.3
			c2.3,1.9,4.1,4.3,5.6,7.4c1.5,3.1,2.2,6.5,2.1,10.2c-0.2,5-1,9.3-2.5,12.9c-1.5,3.6-3.1,6.7-4.9,9.2c-1.7,2.5-3.3,4.4-4.7,5.7
			c-1.4,1.3-2.1,2.2-2.1,2.6c-0.2,2.2-0.2,4.5-0.2,6.8c0,2.3,0,4.6-0.1,6.8c0,2.2-0.1,4.2-0.3,6c-0.2,1.8-0.5,3.3-0.9,4.5
			c2.8,1.7,5.3,3.3,7.6,5c2.3,1.7,4.7,3.1,7.3,4.3c2.6,1.2,5.5,2,8.7,2.4c3.2,0.4,7.2,0.3,12-0.5c1.2-0.2,1.8,0.1,1.9,0.9
			c0.1,0.9-0.5,1.9-1.7,3.1s-3,2.3-5.5,3.4c-2.5,1.1-5.6,1.7-9.5,2c-3.8,0.2-7.3-0.1-10.6-1.1c-3.2-1-6.1-2.2-8.5-3.5
			c-2.8-1.5-5.5-3.3-7.9-5.3c-0.5,0.7-1.1,1.5-1.9,2.4c-0.6,0.7-1.4,1.5-2.4,2.3c-0.9,0.8-2.1,1.6-3.4,2.2c-1.3,0.7-2.8,1.2-4.4,1.4
			c-1.6,0.2-3.1,0.1-4.7-0.3c-1.5-0.4-3-1.1-4.4-2.3C143.9,215.9,142.7,214.3,141.7,212.3z M148,208.6c0.3,1.1,0.8,2,1.5,2.6
			s1.5,0.9,2.5,0.9c0.9,0,1.9-0.4,3-1.3c1-0.9,2.1-2.3,3.2-4.1c-0.9-0.6-2-1.2-3.3-1.7c-1.3-0.5-2.6-0.7-3.8-0.8
			c-1.2,0-2.1,0.3-2.8,0.9C147.5,205.8,147.4,206.9,148,208.6z M173.2,161.7c2.5-2.6,4.4-5.3,5.7-8.2c1.1-2.4,1.6-5.2,1.5-8.3
			c-0.1-3.1-1.5-6.3-4.3-9.6c-0.2-0.2-0.5,0-0.7,0.6c-0.2,0.6-0.4,1.5-0.6,2.7c-0.2,1.2-0.4,2.6-0.5,4.1c-0.2,1.6-0.3,3.2-0.4,4.9
			C173.7,151.9,173.4,156.5,173.2,161.7z"/>
		<path fill="#CA963F" d="M218.1,165.2c0.2,1.9,0.1,4.2-0.1,6.8c-0.2,2.6-0.6,5.4-1.1,8.3c-0.5,2.9-1.1,5.7-1.8,8.5
			c-0.7,2.8-1.5,5.3-2.3,7.4c-0.8,2.1-1.7,3.8-2.5,5.1c-0.9,1.3-1.7,1.8-2.5,1.5c-1-0.2-1.9-1.2-2.5-3c-0.6-1.8-1.2-3.9-1.6-6.5
			c-0.4-2.5-0.8-5.3-0.9-8.3c-0.2-3-0.4-5.9-0.5-8.6c-0.1-2.7-0.2-5.2-0.3-7.3c-0.1-2.2-0.2-3.7-0.2-4.6c-0.2-1.7-0.4-3.8-0.6-6.3
			c-0.2-2.4-0.3-5-0.3-7.6c0-2.6,0-5.3,0-7.9c0-2.6,0.1-5,0.2-7.1c0.1-2.1,0.3-3.8,0.4-5c0.2-1.3,0.4-1.9,0.6-1.8
			c3.7,0.2,6.6,1.7,8.7,4.3c2.1,2.6,3.7,5.8,4.7,9.5c1,3.7,1.7,7.5,2,11.6C217.8,158.3,218,161.9,218.1,165.2z"/>
		<path fill="#CA963F" d="M280.3,193.9c0.8,0.6,1,1.5,0.7,2.8c-0.4,1.3-1.1,2.7-2.3,4.2c-1.1,1.5-2.6,2.9-4.4,4.3
			c-1.8,1.4-3.8,2.5-6,3.3c-1.9,0.7-3.9,1.3-5.9,1.8c-2.1,0.5-4.2,0.8-6.3,0.9c-2.2,0.1-4.4-0.1-6.8-0.6c-2.4-0.5-4.8-1.4-7.2-2.7
			c-5.1-2.7-8.5-5.9-10.2-9.6c-1.7-3.7-2.2-7.5-1.5-11.5c0.7-4,2.2-7.8,4.6-11.4c2.4-3.7,5-6.8,7.9-9.3c-4.3-1.9-7.2-4.3-8.9-7.2
			c-1.7-2.9-2.4-5.9-2.3-9.1c0.2-3.2,1-6.4,2.7-9.6c1.6-3.2,3.6-6.1,6-8.7c2.4-2.6,5-4.6,7.8-6.2c2.8-1.5,5.5-2.2,8-2.1
			c2.4,0.2,4.8,0.7,7.3,1.7c2.5,1,4.7,2.1,6.6,3.4c1.9,1.3,3.3,2.5,4.1,3.9c0.9,1.3,0.9,2.4,0.1,3.1c-0.5,0.5-1.2,0.5-2.3,0.1
			c-1.1-0.4-2.4-1-4.1-1.6c-1.7-0.6-3.6-1.2-5.9-1.8c-2.3-0.6-4.8-0.8-7.5-0.6c-4.3,0.2-7.3,1.7-9.1,4.4c-1.8,2.7-2.8,6.2-3.1,10.5
			c-0.2,2.6,0.1,4.8,0.9,6.6c0.8,1.8,1.6,3.3,2.6,4.4c1,1.1,1.9,1.9,2.8,2.3c0.9,0.4,1.5,0.6,1.7,0.4c2.8-2.4,5.9-4.3,9.1-5.8
			c3.2-1.5,6.2-2.4,9.1-2.8c2.8-0.4,5.3-0.1,7.3,0.8c2.1,0.9,3.3,2.6,3.8,5.2c-0.1,1.3-0.7,2.6-1.9,3.7c-1.2,1.1-2.7,2.1-4.5,3
			c-1.8,0.9-3.8,1.7-5.9,2.4c-2.1,0.7-4.1,1.3-5.9,1.8c-1.8,0.5-3.4,0.8-4.6,1.1c-1.3,0.3-1.9,0.5-2,0.5c-2.1,1.5-4.1,3.2-6.1,5.1
			c-2,1.9-3.5,4.3-4.4,7.2c-0.9,2.7-0.9,5.1-0.1,7.2c0.8,2.1,2.3,3.9,4.3,5.2c2,1.3,4.5,2.2,7.4,2.6c2.9,0.4,6.1,0.3,9.5-0.4
			c1.2-0.2,2.5-0.5,3.9-1.1c1.4-0.6,2.8-1,4.3-1.5c1.4-0.4,2.7-0.8,4-0.9C278.6,193.1,279.5,193.3,280.3,193.9z M270.9,158
			c-1.8-1.1-3.6-1.1-5.5-0.1c-1.8,1-3.8,2.6-6,4.6c1-0.1,2.3-0.3,3.8-0.7c1.5-0.4,2.9-0.8,4.2-1.2c1.3-0.5,2.3-1,3.1-1.5
			C271.2,158.6,271.4,158.2,270.9,158z"/>
		<path fill="#CA963F" d="M302.8,190.2c-1.5-3.5-2.8-7.2-4-11c-1.2-3.9-2.3-7.8-3.3-11.7c-1-3.9-1.9-7.7-2.6-11.5
			c-0.8-3.8-1.4-7.2-2-10.4c-0.6-3.2-1-6-1.4-8.4c-0.4-2.4-0.7-4.3-0.9-5.6c-0.5-2.4-0.2-4,0.8-4.8c1-0.8,2.3-1,3.9-0.7
			c1.5,0.3,3.1,1,4.6,2.1c1.5,1.1,2.5,2.4,3,3.8c1.7,4,2.8,8.2,3.5,12.4c0.7,4.2,1.3,8.7,1.8,13.3c0.5,4.6,1.2,9.5,2.1,14.5
			c0.9,5.1,2.4,10.4,4.5,16.1c0.3-1,0.8-3.2,1.5-6.6c0.7-3.4,1.5-7.3,2.4-11.8c0.9-4.5,2-9.2,3.1-14.1c1.2-4.9,2.4-9.4,3.7-13.5
			c1.3-4.1,2.7-7.5,4.1-10.1c1.5-2.6,2.9-3.8,4.4-3.7c0.2,0.1,0.2,0.7,0.1,1.8c-0.1,1.1-0.3,2.6-0.5,4.5c-0.2,1.9-0.5,3.9-0.8,6.2
			c-0.3,2.3-0.5,4.6-0.7,7c-0.2,2.4-0.3,4.7-0.3,6.9c0,2.2,0.2,4.1,0.6,5.7c0.6,2.5,0.8,5.4,0.6,8.7c-0.2,3.3-0.6,6.7-1.2,10.2
			c-0.7,3.5-1.5,7-2.6,10.5c-1.1,3.5-2.2,6.6-3.3,9.5c-1.1,2.8-2.3,5.2-3.4,7.1c-1.1,1.9-2.1,3-2.8,3.4c-1.2,0.6-2.5,0.3-3.8-0.8
			c-1.3-1.1-2.7-2.6-4-4.6c-1.3-2-2.5-4.3-3.7-6.9C304.9,195.3,303.8,192.7,302.8,190.2z"/>
		<path fill="#CA963F" d="M387.7,193.9c0.8,0.6,1,1.5,0.7,2.8c-0.4,1.3-1.1,2.7-2.3,4.2c-1.1,1.5-2.6,2.9-4.4,4.3
			c-1.8,1.4-3.8,2.5-6,3.3c-1.9,0.7-3.9,1.3-5.9,1.8c-2.1,0.5-4.2,0.8-6.3,0.9c-2.2,0.1-4.4-0.1-6.8-0.6c-2.4-0.5-4.8-1.4-7.2-2.7
			c-5.1-2.7-8.5-5.9-10.2-9.6c-1.7-3.7-2.2-7.5-1.5-11.5c0.7-4,2.2-7.8,4.6-11.4c2.4-3.7,5-6.8,7.9-9.3c-4.3-1.9-7.2-4.3-8.9-7.2
			c-1.7-2.9-2.4-5.9-2.3-9.1c0.2-3.2,1-6.4,2.7-9.6c1.6-3.2,3.6-6.1,6-8.7c2.4-2.6,5-4.6,7.8-6.2c2.8-1.5,5.5-2.2,8-2.1
			c2.4,0.2,4.8,0.7,7.3,1.7c2.5,1,4.7,2.1,6.6,3.4c1.9,1.3,3.3,2.5,4.1,3.9c0.9,1.3,0.9,2.4,0.1,3.1c-0.5,0.5-1.2,0.5-2.3,0.1
			c-1.1-0.4-2.4-1-4.1-1.6c-1.7-0.6-3.6-1.2-5.9-1.8c-2.3-0.6-4.8-0.8-7.5-0.6c-4.3,0.2-7.3,1.7-9.1,4.4c-1.8,2.7-2.8,6.2-3.1,10.5
			c-0.2,2.6,0.1,4.8,0.9,6.6c0.8,1.8,1.6,3.3,2.6,4.4c1,1.1,1.9,1.9,2.8,2.3c0.9,0.4,1.5,0.6,1.7,0.4c2.8-2.4,5.9-4.3,9.1-5.8
			c3.2-1.5,6.2-2.4,9.1-2.8c2.8-0.4,5.3-0.1,7.3,0.8c2.1,0.9,3.3,2.6,3.8,5.2c-0.1,1.3-0.7,2.6-1.9,3.7c-1.2,1.1-2.7,2.1-4.5,3
			c-1.8,0.9-3.8,1.7-5.9,2.4c-2.1,0.7-4.1,1.3-5.9,1.8c-1.8,0.5-3.4,0.8-4.6,1.1c-1.3,0.3-1.9,0.5-2,0.5c-2.1,1.5-4.1,3.2-6.1,5.1
			c-2,1.9-3.5,4.3-4.4,7.2c-0.9,2.7-0.9,5.1-0.1,7.2c0.8,2.1,2.3,3.9,4.3,5.2c2,1.3,4.5,2.2,7.4,2.6c2.9,0.4,6.1,0.3,9.5-0.4
			c1.2-0.2,2.5-0.5,3.9-1.1c1.4-0.6,2.8-1,4.3-1.5c1.4-0.4,2.7-0.8,4-0.9C386,193.1,386.9,193.3,387.7,193.9z M378.3,158
			c-1.8-1.1-3.6-1.1-5.5-0.1c-1.8,1-3.8,2.6-6,4.6c1-0.1,2.3-0.3,3.8-0.7c1.5-0.4,2.9-0.8,4.2-1.2c1.3-0.5,2.3-1,3.1-1.5
			C378.6,158.6,378.8,158.2,378.3,158z"/>
	</g>
	<g>
		<path fill="#D52128" d="M111.3,45.2c-1.6,0.2-3.2,0.5-4.2,0.9c-2.8,1-5.9,3.1-8.5,5.9c-0.6,0.7-2.7,3.5-2.7,3.7
			c0,0.1,0,0.1-0.1,0.1c-0.1,0-0.1,0-0.1-0.1c0-0.2-1.1-2.1-1.9-3.2c-1.4-2-2.6-3.2-4.5-4.4c-3.1-2.1-6.5-3-10-2.6
			c-2.3,0.3-3.9,0.9-5.5,2c-2,1.4-2.5,3.5-1.4,5.9c0.9,2.1,3.1,4.2,6.5,5.9c0.5,0.3,0.9,0.5,0.9,0.5c0,0-0.2,0.1-0.5,0.1
			c-0.3,0-1.4,0.1-2.5,0.1c-1.1,0.1-3.4,0.2-5.1,0.2c-4,0.2-7,0.4-7.7,0.5c-2.3,0.4-4.4,1.5-5.3,2.7c-1,1.4-1.4,3.3-1.4,6.1
			c0,2.9,0.4,4.7,1.4,5.6c1,1,3.3,1.8,5.7,2c0.5,0,0.9,0.1,1,0.1c0.4,0.2,0.8,20.2,0.6,29.4c0,2.5-0.1,4.6,0,4.7
			c0.1,0.3,0.3,0.5,0.8,0.9c0.3,0.2,0.6,0.4,0.9,0.5c0.5,0.2,3.3,0.6,4.8,0.7c1.8,0.2,4.7,0.2,11.3,0.3c3.4,0,7.4,0.1,8.9,0.1
			c3.8,0.1,10.7,0.1,13.6,0c3.1-0.1,4.9-0.2,8.8-0.6c1.7-0.2,4.1-0.4,5.4-0.5c5.9-0.4,8-0.7,9.8-1.4c1-0.4,1.5-0.7,1.9-1.3
			c0.4-0.7,0.6-1.3,0.4-2c-0.2-0.6-0.3-2.3-0.5-8.2c-0.1-3.9-0.3-24.2-0.2-24.3c0,0,0.4-0.1,1-0.2c3.7-0.7,4.7-2.1,4.7-6.3
			c0-0.8-0.1-2-0.1-2.7c-0.1-0.6-0.1-1.8-0.2-2.6c-0.2-2.4-0.5-3.3-1.4-3.9c-0.6-0.4-1.1-0.6-1.9-0.8c-1.6-0.3-5.6-0.4-11.2-0.2
			c-1.8,0.1-4.9,0.1-6.7,0.1h-3.4l1.1-1c2.9-2.6,4.9-5.3,5.2-7.2c0.1-0.7,0.1-1.7-0.1-2.3c-0.5-1.3-1.8-2.5-3.4-3.1
			C114.3,45.3,112.5,45.1,111.3,45.2z M113.3,48.2c0.6,0.1,1.1,0.5,1.4,1c0.2,0.3,0.3,0.5,0.2,1c0,0.8-0.3,1.5-1.1,2.6
			c-1.5,2.1-4.7,5.1-7,6.5l-0.5,0.3l-1.5,0.1c-0.8,0.1-1.9,0.2-2.5,0.2c-1,0.1-4.2,0.2-4.2,0.1c0-0.1,0.9-2,1.4-2.8
			c1.1-1.9,2.1-3.3,3.6-4.6c2.2-2,4.5-3.5,6.3-4.1c0.8-0.2,2.5-0.5,3-0.5C112.6,48.1,113,48.1,113.3,48.2z M82.7,48.5
			c2,0.4,4.5,1.8,6.1,3.5c1.3,1.4,2.9,4,3.5,5.6c0.3,1,0.7,2.3,0.7,2.3c-0.1,0.1-2.3,0-4-0.1c-1.4-0.1-1.5-0.1-3.7-1
			c-4.6-1.9-7.2-3.6-8.5-5.5c-0.6-0.8-0.8-1.5-0.8-2.2c0-0.8,0.2-1.2,0.9-1.7c0.9-0.6,1.8-1,3.3-1.2C80.7,48.3,82.2,48.4,82.7,48.5z
			 M132.4,62c0.5,0.1,0.6,0.1,0.7,1.3c0.5,5.3,0.5,7.7,0,8.7c-0.1,0.3-0.2,0.4-0.6,0.5c-1.4,0.5-6.8,0.9-14.2,1.2
			c-1.6,0.1-3.9,0.2-5.1,0.2c-1.2,0.1-3.4,0.1-5,0.1c-2.5,0-2.9,0-2.9-0.1c0-0.2-0.3-4.8-0.4-5.9c-0.1-0.7-0.1-2.2-0.1-3.3v-2.1
			l0.2,0c0.1,0,1-0.1,2-0.1c1-0.1,2.4-0.2,3.2-0.2c0.9-0.1,3.5-0.1,8-0.2c3.6,0,6.7-0.1,6.7-0.1C125,61.9,131.9,61.9,132.4,62z
			 M87.4,62.9l0.3,0l0.1,4c0,2.2,0.1,4.7,0.2,5.6c0.1,0.9,0.1,1.7,0.1,1.7c-0.2,0.1-6.4,0.2-12.8,0.2c-9.7,0-10.9-0.1-12.5-0.6
			c-0.9-0.3-0.9-0.3-1.2-1.5c-0.2-0.9-0.2-4.2-0.1-5.2c0.3-1.5,0.7-2.3,1.3-2.7c0.4-0.3,1.7-0.7,2.4-0.8c0.8-0.1,3.3-0.3,6.9-0.4
			c1.8-0.1,3.8-0.2,4.5-0.2C79.4,62.9,86.5,62.8,87.4,62.9z M100.8,65c0,1.2,0.1,2.7,0.2,3.4c0.1,1.3,0.4,5.6,0.3,5.6
			c0,0-1.9,0.1-4.3,0.1c-2.4,0-4.4,0.1-4.5,0.1c-0.1,0-0.2,0-0.3,0c-0.1-0.2-0.3-4-0.4-7.6L91.8,63h1.1c1.6,0,4.7-0.1,4.7-0.1
			c0,0,0.7,0,1.6,0h1.5L100.8,65z M127.8,77.2c0,0.6,0.1,5.5,0.1,10.9s0.1,10.7,0.1,11.8c0.1,1.1,0.1,3,0.2,4.2
			c0.1,1.3,0.1,2.9,0.2,3.6l0.1,1.4l-0.8,0.2c-1.2,0.3-3.1,0.5-7.1,0.8c-1.5,0.1-4,0.3-5.5,0.5c-1.5,0.2-3.4,0.3-4.1,0.4
			c-1.3,0.1-4.5,0.3-4.6,0.2c0,0-0.1-1.1-0.2-2.5c-0.2-2.5-0.3-6.2-0.4-11.1c-0.1-3.2-0.2-6.5-0.4-9.2c-0.3-4.7-0.4-10.8-0.2-11.1
			c0.1-0.1,0.8-0.1,3.3-0.1c1.8,0,4.1,0,5.3-0.1c1.2-0.1,3.1-0.1,4.2-0.2c3-0.1,6.2-0.3,8-0.4c0.8-0.1,1.6-0.1,1.6-0.1
			C127.7,76.1,127.7,76.5,127.8,77.2z M101,77c0.1,0,0.1,0.4,0.1,2.2c0,2.2,0.1,6,0.3,8.6s0.3,5,0.4,8.9c0.1,6.2,0.3,9.6,0.4,11.6
			c0.1,1,0.1,2.1,0.1,2.4v0.5l-4.4,0c-2.4,0-4.4-0.1-4.4-0.1c-0.1-0.1-0.2-3.9-0.3-8.7c-0.1-2.7-0.1-6.9-0.2-9.3
			c-0.1-5.3-0.2-14.6-0.1-15.3c0.1-0.4,0.1-0.5,0.3-0.5c0.1,0,1.8-0.1,3.8-0.1c2,0,3.7-0.1,3.8-0.1C100.8,76.9,100.9,76.9,101,77z
			 M88.7,83.9c0,3.7,0.1,8.3,0.1,10.2c0.1,3.9,0.3,13.3,0.3,15.4c0,1.3,0,1.3-0.2,1.3c-0.1,0-2.6,0-5.5-0.1
			c-8.5-0.1-10.6-0.2-13.2-0.6l-0.2,0l0-6.7c0.1-10.2-0.1-20.5-0.4-24c-0.1-0.6-0.1-1.4-0.1-1.7l0-0.5l7.2,0c4,0,7.8,0,8.5-0.1
			c0.7,0,1.8-0.1,2.4-0.1l1,0L88.7,83.9z"/>
	</g>
	<g>
		<g>
			<path fill="#D42228" d="M183.1,254.5c0.1,1.6,0.1,3.4-0.1,5.6c-0.2,2.2-0.5,4.4-0.9,6.8c-0.4,2.4-0.9,4.7-1.5,7
				c-0.6,2.3-1.2,4.3-1.9,6.1c-0.7,1.7-1.4,3.1-2.1,4.2c-0.7,1-1.4,1.5-2,1.3c-0.8-0.2-1.5-1-2-2.5c-0.5-1.5-1-3.2-1.3-5.3
				c-0.4-2.1-0.6-4.3-0.8-6.8c-0.2-2.5-0.3-4.8-0.4-7c-0.1-2.2-0.2-4.2-0.2-6c-0.1-1.8-0.1-3-0.2-3.7c-0.2-1.4-0.4-3.1-0.5-5.1
				c-0.1-2-0.2-4.1-0.2-6.3c0-2.2,0-4.3,0-6.5c0-2.2,0.1-4.1,0.2-5.8c0.1-1.7,0.2-3.1,0.3-4.1c0.1-1,0.3-1.5,0.5-1.5
				c3,0.2,5.4,1.4,7.1,3.5c1.7,2.2,3,4.8,3.8,7.8c0.8,3,1.4,6.2,1.6,9.5C182.8,248.9,183,251.9,183.1,254.5z"/>
			<path fill="#D42228" d="M206.6,279.1c0.1,1,0,2.3-0.1,4.1c-0.1,1.7-0.5,3.3-1,4.7c-0.6,1.4-1.4,2.3-2.5,2.7
				c-1.1,0.4-2.6-0.2-4.5-1.9c-1.2-0.9-2.1-2.4-2.7-4.4c-0.6-2-1-4.4-1.3-7.1c-0.2-2.8-0.3-5.8-0.2-9.1c0.1-3.3,0.3-6.7,0.7-10.2
				c0.4-3.5,0.8-7,1.3-10.5c0.5-3.5,1-6.9,1.6-10c0.2-1.2,0.5-2.5,1-3.9c0.5-1.5,1-2.8,1.6-4.1c0.6-1.3,1.2-2.4,2-3.4
				c0.7-0.9,1.5-1.5,2.4-1.6c0.8-0.1,1.7,0.2,2.6,1.1c0.9,0.8,1.8,2.4,2.8,4.6c1.2,2.8,2,5.7,2.6,8.7c0.6,3,1.1,6.1,1.5,9.2
				c0.4,3.1,0.8,6.1,1.2,9.1c0.4,3,1,5.9,1.7,8.6c0.7,2.7,1.8,5.2,3.2,7.6c1.4,2.3,3.2,4.4,5.4,6.1c1-0.6,1.7-1.5,2.3-2.9
				c0.5-1.3,1-2.9,1.3-4.6c0.3-1.7,0.5-3.6,0.5-5.5c0.1-1.9,0.1-3.8,0-5.6c-0.1-1.8-0.1-3.5-0.2-5c-0.1-1.5-0.1-2.7-0.1-3.5
				c-0.1-1.8,0-3.8,0-6c0.1-2.2,0.2-4.4,0.4-6.7c0.2-2.2,0.4-4.4,0.7-6.4c0.3-2,0.5-3.8,0.9-5.2c0.3-1.5,0.6-2.5,0.9-3.2
				c0.3-0.7,0.5-0.8,0.8-0.2c0.1,0.3,0.3,1.1,0.4,2.4c0.1,1.3,0.3,3,0.5,5c0.2,2,0.4,4.2,0.7,6.6s0.5,4.9,0.9,7.4
				c0.3,2.5,0.7,4.9,1.1,7.2c0.4,2.3,0.8,4.4,1.3,6.1c0.8,1.9,1.5,4.2,1.8,6.9c0.4,2.7,0.5,5.5,0.4,8.4c-0.1,2.8-0.5,5.6-1.1,8.2
				c-0.6,2.6-1.4,4.7-2.4,6.2c-1.2,1.8-2.4,2.9-3.8,3.3c-1.4,0.4-2.8,0.2-4.2-0.4c-1.4-0.6-2.9-1.7-4.3-3.2c-1.5-1.5-2.8-3.1-4.1-5
				c-1.3-1.8-2.4-3.8-3.5-5.8c-1.1-2-2-3.9-2.7-5.5c-0.6-1.4-1.2-3-1.8-4.8c-0.6-1.8-1.2-3.6-1.8-5.5c-0.6-1.9-1.1-3.8-1.7-5.7
				c-0.5-1.9-1-3.8-1.5-5.6c-1.1-4.1-2.1-8.4-3.1-12.8c-0.1,0.6-0.3,1.5-0.4,2.6c-0.1,0.9-0.2,2.2-0.2,3.7c0,1.6,0,3.5,0,5.8
				c0.1,2.8,0.2,5.7,0.5,8.6c0.3,3,0.5,5.8,0.8,8.4c0.3,2.7,0.6,5.1,0.9,7.2C206.3,276.1,206.5,277.8,206.6,279.1z"/>
		</g>
		<g>
			<g>
				<g>
					<path fill="#D42228" d="M150.2,255.6c-1.4-0.9-60-22.7-61.3-3.2C87.5,271.7,150.2,255.6,150.2,255.6z"/>
				</g>
				<g>
					<path fill="#D42228" d="M155.1,243.5c-0.6-1-30.2-34-37.5-22.1C110.4,233,155.1,243.5,155.1,243.5z"/>
				</g>
				<g>
					<path fill="#D42228" d="M155.1,265.6c-0.6,1-30.2,34-37.5,22.1C110.4,276,155.1,265.6,155.1,265.6z"/>
				</g>
			</g>
			<g>
				<g>
					<path fill="#D42228" d="M255.9,255.6c1.4-0.9,60-22.7,61.3-3.2C318.6,271.7,255.9,255.6,255.9,255.6z"/>
				</g>
				<g>
					<path fill="#D42228" d="M251,243.5c0.6-1,30.2-34,37.5-22.1C295.7,233,251,243.5,251,243.5z"/>
				</g>
				<g>
					<path fill="#D42228" d="M251,265.6c0.6,1,30.2,34,37.5,22.1C295.7,276,251,265.6,251,265.6z"/>
				</g>
			</g>
		</g>
	</g>
	<path fill="#D42228" d="M359.3,218.8c-0.7,0.1-1.7,0.6-2.5,1.2c-2.2,1.7-3.8,5.2-4.3,9.8c-0.2,1.6-0.1,5.7,0.2,7.9
		c0.3,2.2,0.5,3.4,1.1,5.5l0.5,1.7l-1,0.2c-4.1,1-7.6,3-10.9,6.3c-3.8,3.9-5.7,7.8-7.1,15c-0.5,2.5-0.8,4.2-1.2,7.9
		c-0.3,2.8-0.4,4.4-0.8,8.9c-0.1,0.9-0.2,2.1-0.3,2.8c-0.3,2.4-1.5,7.9-2.2,9.6c-0.3,0.9-1.2,2.4-1.8,3.3c-0.5,0.7-1.2,2.2-1.4,3.2
		c-0.1,0.6-0.1,0.8,0,1.7c0.1,0.6,0.3,1.3,0.4,1.6c0.9,2,3.4,3.5,7.8,4.7c1.9,0.5,3.5,0.8,6.9,1.3c1.6,0.2,4.6,0.7,6.6,1.1
		c9.8,1.7,14.5,1.9,23.1,1c4.5-0.5,6.2-0.8,9.6-1.8c2.7-0.8,4.1-1.4,5.3-2.3c0.9-0.7,1.4-1.3,1.8-2.3c0.5-1.3,0.5-1.4-0.8-4.5
		c-0.7-1.7-1.2-3.2-1.5-4.2c-0.2-0.9-0.7-2.5-1-3.6c-0.9-3.2-1.1-4.6-1.7-9.8c-0.8-6.6-1.7-12.6-2.8-16.8
		c-1.4-5.6-3.8-12.3-5.6-15.2c-1.2-1.9-3.1-4-4.5-5c-1.9-1.3-4-2.4-6.1-2.9c-0.7-0.2-1.3-0.3-1.3-0.4c0,0,0.2-1.1,0.5-2.5
		c0.6-2.7,0.8-4.1,1.2-6.8c0.2-1.5,0.2-2.2,0.2-4.7c0-4.4-0.4-6.8-1.4-8.9c-0.9-1.8-2.1-2.9-3.7-3.1
		C360.1,218.7,360.1,218.7,359.3,218.8z M360.7,224.7c1,3.1,1,8.1,0,13.5c-0.3,1.9-1.3,6-1.4,6.1s-0.2-0.1-0.8-2.2
		c-0.9-3.3-1.3-5.8-1.3-9.5c0-2.6,0.1-3.2,0.6-5.2c0.3-1.1,1-2.8,1.5-3.3c0.1-0.2,0.4-0.4,0.6-0.5l0.3-0.2l0.2,0.3
		C360.4,223.9,360.6,224.3,360.7,224.7z M362.1,249.4c2.5,0.5,4.1,1.1,5.9,2.2c2.6,1.6,4.2,3.8,5.9,8.2c1.7,4.2,3.2,9.3,4.1,14.2
		c0.5,2.7,1.3,8.5,1.8,12.7c0.5,4.3,0.8,6.2,1.7,9.4c0.3,1.1,0.5,2,0.5,2c0,0-1-0.4-2.2-1c-6.4-3-8.9-3.9-13.5-4.8
		c-4.9-0.9-6.4-1.1-11.4-1c-8.1,0.1-13,0.9-17.4,2.8c-0.7,0.3-1.3,0.5-1.3,0.5c0,0,0.1-0.8,0.3-1.6c0.9-3.7,1.3-6.2,1.5-9.1
		c0.1-0.8,0.2-2.5,0.3-3.7c0.2-2.9,0.8-7.9,1-9.7c0.7-4.7,1.9-8.7,3.1-11.1c1.6-3,4.8-6.3,7.9-8c1.5-0.8,4-1.6,6.1-1.9
		c0.5-0.1,0.9-0.1,1.1-0.2C358.3,249,361,249.1,362.1,249.4z M355.3,295.9c0,0-0.1,0.6-0.3,1.3c-0.3,1.1-0.3,1.5-0.3,3.1
		c0,1.7,0,2,0.2,2.7c1.1,3.4,3.1,4.9,5.2,3.8c1.2-0.6,1.8-1.5,2.2-3.1c0.3-1.4,0.3-2.8-0.1-5.4c-0.2-1.2-0.3-2.2-0.3-2.2
		c0.1-0.1,2.5,0.4,4.8,0.9c2.8,0.6,6,1.8,11.2,4.3c2.9,1.4,3.9,2,4.9,3.1c0.8,0.8,1.4,1.7,1.3,1.9c-0.3,0.3-4.3,1.6-6.5,2
		c-1.3,0.3-3.6,0.6-6.2,0.9c-7.7,0.8-12.2,0.6-20.3-0.9c-1.7-0.3-4.9-0.8-7.2-1.2c-2.3-0.3-4.7-0.8-5.4-1c-2.5-0.6-4.7-1.4-5.6-2.1
		l-0.5-0.3l0.2-0.3c0.1-0.2,0.2-0.5,0.2-0.8c0-0.5,0.1-0.5,0.9-1.2c1.2-0.9,2.5-1.7,4.1-2.5c3.4-1.7,6-2.4,10.7-2.9
		C351.6,295.9,355.3,295.7,355.3,295.9z"/>
</g>
</svg>
