<?xml version="1.0" encoding="utf-8"?>
<!-- Generator: Adobe Illustrator 22.1.0, SVG Export Plug-In . SVG Version: 6.00 Build 0)  -->
<svg version="1.1" id="Layer_1" xmlns="http://www.w3.org/2000/svg" xmlns:xlink="http://www.w3.org/1999/xlink" x="0px" y="0px"
	 viewBox="0 0 1080 1296" style="enable-background:new 0 0 1080 1296;" xml:space="preserve">
<path d="M380.2,339.5v-1.8l1.8-1.8c0.2-0.2,0.7-0.5,1.4-0.7c1.4-0.5,3.3-0.7,5.7-0.7c1.4,0.2,2.7,0.4,3.9,0.4h5.3
	c-1.4-7.1-1.8-18.4-1.1-34c0-4.5,0.1-10.9,0.2-19.1c0.1-8.3,0.3-17.5,0.5-27.8c0.2-10.3,0.5-21.1,0.7-32.4
	c0.2-11.3,0.6-22.3,1.1-32.8c0.5-10.5,1.1-20.1,1.8-28.9c0.7-8.7,1.5-15.7,2.5-20.9c-0.7,0-1.6-0.1-2.7-0.2
	c-1.1-0.1-2.2-0.2-3.4-0.2c-1.2,0-2.6-0.1-4.3-0.4c-1.9,0-3.1-0.1-3.5-0.4c-0.5-0.2-0.8-0.5-1.1-0.7c-0.9-0.5-1.4-1.1-1.4-1.8
	c-0.7-2.8-0.5-4.8,0.7-6c1.4-1.9,4-2.8,7.8-2.8c0.9,0,2.2-0.1,3.9-0.2c1.6-0.1,3.5-0.2,5.7-0.2c4.3,0,8.7,0.4,13.5,1.1
	c2.1,0.2,4.1,0.6,6,1.1c1.6,0.5,3.3,0.9,5,1.4c1.6,0.5,3.1,1.3,4.3,2.5c0.5,0.5,0.8,0.9,1.1,1.4c0.5,0.9,0.6,2,0.4,3.2
	c-0.2,0.5-0.7,0.9-1.4,1.4c-0.5,0.5-1.2,0.9-2.1,1.2c-0.9,0.4-2,0.5-3.2,0.5h-1.8c-0.9,0-1.9-0.1-3-0.2c-1.1-0.1-2.1-0.2-3-0.2h-3.5
	c0.5,1.7,0.9,4.1,1.4,7.4c0.5,4.3,0.9,10.6,1.4,19c0.5,8.4,0.8,17.8,0.9,28.3c0.1,10.5,0.2,21.7,0.2,33.5c0,11.8-0.1,23.4-0.4,34.7
	c-0.2,11.3-0.6,22-1.1,32.1c-0.5,10-1.1,18.4-1.8,25c-0.2,1.7-0.5,3.4-0.7,5.3c-0.5,3.8-1.2,7.3-2.1,10.6h3.9c1.2,0,2.5,0.1,3.9,0.2
	c1.4,0.1,2.7,0.3,3.9,0.5c0.5,0,0.9,0.1,1.4,0.4c0.9,0.5,1.6,1.3,2.1,2.5c0.7,2.6,0.4,4.6-1.1,6c-1.4,1.4-4,2.4-7.8,2.8
	c-1.2,0-2.6,0.1-4.3,0.2c-1.7,0.1-3.5,0.2-5.7,0.2c-5,0-9.7-0.4-14.2-1.1c-5.7-0.7-9.9-1.7-12.8-2.8c-1.4-0.7-2.6-1.4-3.5-2.1
	C380.6,341.6,380.2,340.6,380.2,339.5z M502.4,102.4l-32.2,3.2c-3.9,25.5-13.1,62.4-20.9,83.3l19.8-2.5
	C479,170.1,494.3,132.2,502.4,102.4z M513,333.4c0.2,1.9,0.8,3.7,1.8,5.3c0.7,1.4,1.7,2.7,3,3.9c1.3,1.2,3.1,2,5.5,2.5
	c2.1,0.5,4,0.3,5.5-0.5c1.5-0.8,2.8-1.8,3.7-3c0.9-1.2,1.8-2.7,2.5-4.6c2.1-13.5,4.3-26.5,6.4-39c2.1-12.5,4.2-23.7,6.2-33.5
	c2-9.8,4.1-17.7,6.2-23.6c2.1-5.9,4.3-9,6.4-9.2c0.9,0,1.7,1.1,2.3,3.4c0.6,2.2,1.1,5.1,1.4,8.7c0.4,3.5,0.6,7.4,0.7,11.7
	c0.1,4.3,0.2,8.5,0.2,12.8v5.7v0.4c-0.2,16.5,0.5,29.5,2.1,39c0.2,1.2,0.9,3.2,2.1,6c1.2,2.8,3.3,4.4,6.4,4.6
	c6.8,0.5,10.7-4.8,11.7-15.9c0.2-3.1,0.5-5.8,0.9-8.3c0.3-2.5,0.6-4.7,0.9-6.6c2.8-14.2,5.5-25.3,8-33.3c2.6-8,5.4-12.3,8.4-12.8
	c1.9-0.2,3.5,1.2,5.1,4.3c1.5,3.1,2.3,8.7,2.3,17v6v0.4c0,22.4,1.5,38.4,4.4,47.8c3,9.5,8.9,14.4,17.9,14.9
	c5.4,0.2,10.2-1.5,14.3-5.3c4.1-3.8,7.6-8.3,10.5-13.5c2.8-5.2,5.1-10.2,6.7-15.1c1.6-4.8,2.7-8.2,3.2-10.1c2.6-7.3,1.9-11.3-2.1-12
	c-0.7,0-1.5,0.7-2.3,1.9c-0.8,1.3-1.5,2.8-1.9,4.4c-0.7,1.9-1.3,4.1-1.8,6.7c-3.8,11.1-7.3,19-10.5,23.7c-3.2,4.7-6,7.4-8.3,8.1
	c-2.4,0.7-4.3,0.1-5.7-1.8c-1.4-1.9-2.2-3.8-2.5-5.7c0-1.4,0-4.4,0-8.9c0-4.5,0.1-9.8,0.4-15.9c0-1.9,0-4.1,0-6.7
	c0-2.6,0.1-5.3,0.4-8.1c0.5-13.5-0.7-23.6-3.5-30.3c-2.8-6.7-6-11.5-9.5-14.4c-4.2-3.1-9-4.5-14.4-4.3c-4.5,0.2-8.3,3.1-11.6,8.5
	c-3.3,5.4-6.1,12.2-8.4,20.2c-0.5-12.3-2.1-21.4-4.8-27.5c-2.7-6-5.6-10.3-8.7-12.9c-3.5-2.8-7.4-4-11.7-3.5
	c-3.5,0.2-6.7,2.7-9.6,7.3c-2.8,4.6-5.5,10.5-8,17.5s-4.6,15.1-6.4,23.9s-3.4,17.5-4.8,26c0.2-9.9,0.2-19.1,0-27.6
	c-0.2-8.5-0.2-14.6,0-18.4c0.5-8.5-0.3-14.5-2.3-18.1c-2-3.5-5.4-5.3-10.1-5.3c-1.9,0-3.4,0.7-4.4,2.1c-1.1,1.4-1.9,3-2.7,4.6
	c-0.9,2.1-1.5,4.4-1.8,6.7c-0.7,5.4-1.2,12.8-1.6,22c-0.4,9.2-0.5,18.8-0.5,28.7c0,9.9,0.2,19.4,0.7,28.3
	C511.7,321.9,512.3,328.7,513,333.4z M146.9,484.5H95.2v-5.8c17.8-1.3,19.6-2.5,19.6-19.9v-80.6c0-17.5-1.8-18.3-17.8-19.6v-6.3
	h61.4c26.5,0,46.8,5.4,59.7,17.4c10.3,9.9,17.8,24.7,17.8,43.8c0,24-9.9,42.2-26.1,54.2C193.9,479.2,172.6,484.5,146.9,484.5z
	 M156.6,476.8c38.8,0,57.4-28.2,57.4-60.2c0-21-8.2-38.2-23.5-47.8c-9.6-6.4-22.1-9.4-37-9.4c-9.3,0-14.4,1.4-16.7,2.8
	c-1.9,1.4-2.6,3.9-2.6,11.8V457C134.3,473.1,141.4,476.8,156.6,476.8z M301.3,479.1c-16.1-1.3-17.1-2.5-17.1-15.8V427
	c4.4-10.8,10.7-16.8,16-16.8c3.5,0,5.8,1.3,9,4.2c1.3,1.1,3.1,1.5,5.6,0.6c4.4-2.1,7.2-6.3,7.2-11c0-5-5-10.4-12.5-10.4
	c-9.6,0-18.1,10.8-24.9,21.9h-0.4v-22.6c-10.6,4.3-20.3,6.7-30.6,8.3v4.6c11.5,1.7,12.6,2.5,12.6,15.4v42.1
	c0,13.3-1.8,14.6-14.3,15.8v5.4h49.3V479.1z M328.6,443.8c0-13.5,4.9-25.7,13.2-34.7c8.9-9.7,20.1-15.6,31.1-15.6h0.1
	c17.6,0,31.7,15.1,31.7,31.3c0,3.9-1.1,5.7-4.9,6.5c-3.8,0.6-29.6,2.6-53.5,3.5c0.4,26.3,15.8,37.4,30.1,37.4
	c8.5,0,16.4-3.2,23.9-10.1l3.5,4.4c-13.3,16.8-28.2,20.4-34.9,20.4C343.6,486.8,328.6,466.4,328.6,443.8z M347.4,426
	c11,0,21.9,0,33.5-0.4c3.6-0.1,4.9-1.3,4.9-3.9c0-10.7-6.7-20.6-17.5-20.6h-0.1C359.2,401.1,350.3,409,347.4,426z M467.3,428.8v-3.6
	c0-14.6-6.7-22.4-16.5-22.4c-3.6,0-6.7,1.4-8.8,3.6c-2.6,2.6-4.4,7.2-6.3,13.8c-1.3,3.6-3.5,5-6.7,5c-4,0-9.4-4.2-9.4-9
	c0-3.1,2.6-5.6,6.7-8.3c6-4.3,20-12.1,31.5-14.3c6.5,0,12.5,1.5,17.2,5.1c7.6,6.4,9.9,14.9,9.9,25.7v36.5c0,9,3.6,12.1,7.4,12.1
	c2.4,0,5.1-1,7.4-2.2l2.1,5.4l-18.2,10.7c-3.9,0-8.3-1.8-10.6-4c-2.8-2.6-4-5.4-5-8.6c-8.3,5.3-18.1,12.6-23.9,12.6
	c-15.4,0-25.6-12.2-25.6-25c0-10.1,5.6-16.3,16.8-19.9C448.5,437.8,462.8,432.5,467.3,428.8z M467.3,435.9c-4.2,2.1-12.5,6-16.8,7.9
	c-8.1,3.5-12.5,7.5-12.5,15c0,10.7,8.1,15.4,14.2,15.4c4.9,0,11.5-3.1,15.1-6.7V435.9z M551.2,479.1c-9.4-1.3-11.3-2.5-11.3-15.6
	v-47.4c6.3-4.9,13.9-10,21.7-10c11.8,0,17.5,7.8,17.5,23.1v34.3c0,13.3-1.8,14.3-14.2,15.6v5.4h45.4v-5.4
	c-11.3-1.3-13.2-2.5-13.2-15.3v-39c0-3.6-0.3-6-0.6-8.5c7.8-6.3,15.3-10.1,21.9-10.1c11.9,0,17.8,8.2,17.8,23.5v32.8
	c0,14.4-2.4,15.4-13.9,16.7v5.4h45.3v-5.4c-11.9-1.5-13.3-2.1-13.3-15.6v-38.3c0-20.4-10.6-31.7-26.9-31.7c-5.8,0-11.1,2.4-15.6,5.1
	c-5,3.3-10.8,7.1-16.9,11.5c-4.3-10.4-13.2-16.7-23.1-16.7c-6.5,0-11.5,2.2-17.1,5.6c-6.3,3.8-10.7,7.5-15.1,10.4v-16.7
	c-9.7,4-21.3,6.7-30.1,8.1v5.1c11.8,1.8,12.5,3.1,12.5,16v41.3c0,13.3-1.9,14.6-15.3,15.8v5.4h44.5V479.1z M725.2,479.1
	c-13.2-1.5-14.6-2.6-14.6-16.7v-69.3c-9.3,3.6-19.7,6-30.8,7.8v4.9c12.2,2.1,12.9,3.1,12.9,15.8v40.8c0,14.2-1.5,15.4-14.4,16.7v5.4
	h47V479.1z M700.2,376.3c6.4,0,11.1-5.1,11.1-11c0-6.5-4.7-11.4-10.8-11.4s-11.4,4.9-11.4,11.4C689.1,371.1,694.4,376.3,700.2,376.3
	z M780.4,479.1c-11.9-1.3-13.1-2.1-13.1-16v-47c6.3-5.1,13.9-10,21.7-10c12.6,0,18.3,8.5,18.3,22.6v33.1c0,14.3-1.4,16-13.2,17.2
	v5.4h44.2v-5.4c-11.9-1.5-13.2-2.1-13.2-16v-37.9c0-20.1-10.4-31.7-26.8-31.7c-6.1,0-11.3,2.2-17.1,6c-5.3,3.5-9.7,6.7-13.9,9.7
	v-16.4c-9.6,3.9-20.3,6.5-30.1,8.1v5.1c10.8,1.9,12.2,2.8,12.2,16v40.8c0,13.6-1.1,14.6-14.9,16.3v5.4h45.8V479.1z M852.9,500.3
	c4.6-4.3,11.8-9.6,16.7-13.5c-7.6-2.2-12.8-6.7-15.4-11.1c-1.9-2.9-2.8-6.8-2.4-9c8.5-3.1,15.1-8.3,18.3-12.2
	c-9.7-4-18.2-13.8-18.2-27.2c0-23.3,21.3-33.8,37.6-33.8h0.3c6.8,0,13.5,1.8,20,5.1c10.6-0.6,21.3-1.8,28.9-2.8l1,1.7
	c-1.5,3.2-5.8,8.6-9.3,10.4l-11.7-0.6c3.5,4.3,5.8,10.6,5.8,17.8c0,21.7-18.8,32.4-37,32.4c-3.9,0-7.5-0.6-10.8-1
	c-2.6,1.8-5.3,5-5.3,7.6c0,3.9,3.8,7.9,13.1,7.9c7.2,0,14.3-0.4,21.4-0.4c12.5,0,30.1,3.9,30.1,24.3c0,21.1-24.7,40.8-52.4,40.8
	c-23.5,0-36-13.3-36.3-24.9C847.5,507.1,849.5,503.2,852.9,500.3z M871.2,423.9c0,15.7,7.4,26.9,18.6,26.9c8.9-0.1,16.5-8.1,16.5-24
	c0-15.4-7.1-27-18.6-27h-0.1C879.3,399.9,871.2,407.9,871.2,423.9z M864.8,506.7c0,10.7,11.4,19.7,27.4,19.7
	c18.6,0,28.8-9.7,28.8-22.1c0-7.1-3.6-12.2-9.6-14.4c-5.4-1.9-11.3-2.4-19.7-2.4h-0.3c-9.4,0-14.2,1.3-17.8,4.2
	C868.6,496,864.8,501.3,864.8,506.7z M248.7,632.6c0,1.2-0.7,3.4-2.1,6.6c-6.1,13.7-15.2,25.2-27.3,34.5c-3.6,2.7-7.3,5-11,7
	l-5.5,2.9c5.3,7.5,8,15.5,8,24c0,6.6-1,13.6-3,21c-1.6,5.8-3.8,11.1-6.6,16.1s-6.1,9-9.9,12c-3.8,3.1-8.7,4.6-14.6,4.6
	c-9.1,0-14.4-6.1-15.7-18.2c-0.3-2.5-0.4-5.1-0.4-7.9c0-8.7,1.3-19.3,3.9-31.6c2.6-12.5,6.5-28.1,11.5-46.6c-1.3,1.3-2.6,2.5-4,3.7
	c-6.1,4.9-13.1,7.6-20.9,7.9c-12.7,27-28.8,40.5-48.4,40.5c-13.2,0-21.8-5.5-25.7-16.6c-1.7-4.7-2.5-9.8-2.5-15.5
	c0-16.3,7.5-34.3,22.6-54.1c11.3-14.8,24.6-22.2,40-22.2c8.5,0,14.8,2.3,19,6.9c4.2,4.6,6.3,10.7,6.3,18.5c0,9-2.7,20.2-8.1,33.4
	c5.9-0.4,11-2.6,15.3-6.5c5.3-4.8,9.6-11.1,12.8-18.7c0.6-2,1.2-4.1,1.8-6.2c11.3-39,23-68.1,35.2-87.2
	c11.3-17.8,23.9-26.8,37.9-26.8c9.5,0,14.3,5.7,14.3,17.2c0,4-0.7,8.6-2.1,13.6c-4.4,15.7-12.5,31.2-24.5,46.4
	c-2.9,3.7-5.5,6.9-7.8,9.7c-5.9,6.8-14.6,15.1-26.1,24.6l-11.5,32.6c-2,5.6-4,11.7-6.1,18.3c3-0.2,6.2-1,9.7-2.4
	c4.5-1.9,8.9-4.5,13.1-7.7c11.1-8.5,19.3-19.3,24.5-32.4c1.1-2.7,2.8-4,5.1-4C247.7,630,248.7,630.8,248.7,632.6z M214.9,610.8
	c8.2-7.5,13.2-12.2,14.8-14c14.9-17.2,24.8-34.5,29.7-51.9c1-3.6,1.5-6.6,1.5-9c0-4.5-1.8-6.7-5.4-6.7
	C243.9,529.1,230.4,556.3,214.9,610.8z M148.3,631.7c0-4.1-1-7.6-3.1-10.4c-2.1-2.8-5.2-4.2-9.4-4.2c-7.9,0-15.1,4.3-21.6,12.8
	c-6.8,8.9-11.9,19-15.1,30.5c-1.7,6-2.5,11.3-2.5,15.8c0,11.8,4.3,17.7,12.8,17.7c12,0,22.1-8.9,30.4-26.6c-3.3-1-4.9-3.6-4.9-7.9
	c0-4,1.2-7.4,3.7-10.3c2.5-2.9,5.3-4.3,8.4-4.3C147.8,640.1,148.3,635.7,148.3,631.7z M199.4,711.4c0-7.9-2.9-16.5-8.7-25.8
	c-1.5,4.9-2.9,10-4.5,15.3c-5.3,18.9-7.9,31.9-7.9,38.9c0,4.8,1.3,7.2,3.8,7.2c6.3,0,11.4-6.7,15.1-20
	C198.6,721.7,199.4,716.6,199.4,711.4z M324.1,686.8c0-5.2,0.7-11.4,2.2-18.6c-6.1,9.2-12.3,16.9-18.8,23
	c-8.6,8.2-17.3,12.3-26.1,12.3c-10.7,0-16-6.3-16-19c0-5,0.8-10.4,2.4-16.2c2.6-9.3,6.1-18,10.5-26.3c4.4-8.3,9.5-15.6,15.2-22
	c5.7-6.4,11.8-11.4,18.3-15.1c6.4-3.7,13-5.5,19.5-5.5c8.1,0,13.2,5.4,15.2,16.2c4.4-6.2,9-9.3,13.8-9.3c4.5,0,6.7,2.6,6.7,7.7
	c0,2.5-0.5,5.6-1.6,9.3c-0.6,2-2.5,7.1-5.7,15.4c-3.2,8.2-6.5,17.7-10,28.4c-3.3,10.1-4.9,17.8-4.9,23c0,3.5,1,5.3,3.1,5.3
	c2.5,0,5.5-1.5,9-4.5c3.4-3,7-7,10.5-12.2c3.6-5.1,6.9-10.6,10.1-16.3c3.1-5.7,5.9-11.1,8.3-16.2c2.4-5.1,4.2-9.2,5.5-12.4
	c1.1-2.7,2.8-4,5.1-4c2,0,2.9,0.9,2.9,2.6c0,1.9-2.6,8.5-7.8,19.9c-6.8,14.9-14.2,27.3-22.2,37.3c-9.8,12.3-19.6,18.4-29.4,18.4
	C329.4,708.1,324.1,701,324.1,686.8z M341.4,624.7c-2-3.8-4.7-5.6-8.2-5.6c-8.4,0-18.1,7.3-29.2,21.8c-7.2,9.4-12.2,19.3-15.1,29.9
	c-1,3.5-1.4,6.3-1.4,8.6c0,5.4,1.7,8.2,5.2,8.2c6.4,0,15.1-7.7,26.2-23.1C326.5,653.4,334,640.1,341.4,624.7z M424.8,923.1
	c-8.9,0.4-16.2-2.1-21.7-7.5c-5.5-5.4-10.1-14.5-13.7-27.3c-4.6,12.5-10.8,23.1-18.5,31.9c-7.7,8.7-17.8,12.8-30.3,12
	c-9.3-0.7-17.1-3.9-23.3-9.6c-6.3-5.7-11.2-12.9-14.7-21.7c-3.6-8.7-6.1-18.4-7.5-28.9c-1.4-10.5-2.2-20.6-2.4-30.3
	c-0.2-9.6,0.1-18.2,0.8-25.7s1.4-12.9,2.1-16.1c1.4-8.9,3.2-16.8,5.4-23.6c1.8-6.1,4.3-11.4,7.5-16.1c3.2-4.6,7.3-6.8,12.3-6.4
	c3.9,0.4,6.9,2.1,8.8,5.1c2,3,3.2,7.1,3.7,12c0.5,5,0.5,10.5,0,16.6c-0.5,6.1-1.3,12.1-2.4,18.2c-1.1,6.8-1.9,16.3-2.4,28.4
	c-0.5,12.1-0.5,24.3,0.3,36.4c0.7,12.1,2.1,22.7,4,31.6c2,8.9,4.9,13.6,8.8,13.9c5,0.4,9.5-2,13.4-7.2c3.9-5.2,7.2-12.8,9.9-22.8
	c2.7-10,4.9-22,6.7-36.2c1.8-14.1,3-30.1,3.7-47.9c0.4-2.1,0.8-4.6,1.3-7.2c0.5-2.7,1.4-5.1,2.7-7.2c1.2-2.1,2.9-3.8,5.1-5.1
	c2.1-1.2,4.8-1.5,8-0.8c7.1,1.8,12.1,5.9,15,12.3c2.9,6.4,4.6,12.7,5.4,18.7c0.7,8.9,1.5,17.9,2.4,26.8c0.9,8.9,1.7,17.2,2.4,24.9
	c0.7,7.7,1.3,14.3,1.9,19.8c0.5,5.5,1,9.2,1.3,11c0.7,2.1,1.7,4.2,2.9,6.2c1.2,2,2.8,3.3,4.6,4c4.3,1.4,8-0.5,11.2-5.9
	c3.2-5.4,6-12.6,8.3-21.7c2.3-9.1,4.2-19.4,5.6-30.8c1.4-11.4,2.5-22.7,3.2-33.7c-5.4-3.9-10.5-9.1-15.5-15.5
	c-5-6.4-8.8-15.3-11.2-26.8c-2.9-12.5-3.7-22.1-2.4-28.9c1.2-6.8,3.1-12,5.6-15.5c2.9-3.9,6.6-6.4,11.2-7.5c7.5,0,13.9,3.2,19.3,9.6
	c4.6,5.4,8.4,14.1,11.2,26.2c2.9,12.1,3.2,29.8,1.1,53c3.9,2.5,7.2,4.4,9.9,5.6c2.7,1.3,4,2.8,4,4.6c0.4,2.9-0.4,4.6-2.1,5.4
	c-1.1,0.4-2.1,0.4-3.2,0h-2.7c-2.5,0-5-0.5-7.5-1.6c-0.7,5.4-1.6,11.1-2.7,17.1c-1.1,6.1-2.5,12.7-4.3,19.8
	c-1.1,5-2.5,11.1-4.3,18.2c-1.8,7.1-4.4,14-7.8,20.6c-3.4,6.6-7.6,12.4-12.6,17.4C438,920.1,431.9,922.8,424.8,923.1z M458,791.4
	c0-11.1-0.5-19.6-1.6-25.7c-1.1-6.4-2.7-11.3-4.8-14.7c-2.1-3.4-4-4.9-5.6-4.6c-1.6,0.4-2.4,2.6-2.4,6.7c0,4.1,1.6,10.6,4.8,19.5
	C451.2,780.5,454.4,786.7,458,791.4z M663.7,726.6c0.7,1.4,1.2,2.3,1.6,2.7c1.8,2.9,3,4.5,3.7,4.8c0.7,0.4,1.2,0.5,1.6,0.5
	c2.5,0.7,4.3-0.5,5.4-3.7c1.4-3.2,2.2-7.7,2.4-13.4c0.2-5.7-0.2-11.2-1.1-16.6c-0.9-5.4-2.5-9.6-4.8-12.9c-2.3-3.2-5.1-3.9-8.3-2.1
	c-3.2,1.8-5.3,4.3-6.2,7.5c-0.9,3.2-1.2,6.9-0.8,11c0.4,4.1,1.2,8.1,2.7,12C661.3,720.3,662.6,723.7,663.7,726.6z M791.7,901.4
	c-4.6,11.6-10.2,22-16.6,31.1s-13.7,13.5-21.9,13.1c-5.6-0.4-10.6-2.3-15-5.9c-4.4-3.6-7.9-10.1-10.5-19.5
	c-2.6-9.5-4.6-22.6-5.8-39.4c0-0.2,0-0.4,0-0.7c-0.9,1.8-1.9,3.6-2.9,5.5c-4.3,7.9-9.5,14.6-15.5,20.4c-6.1,5.7-13.4,8.4-22,8
	c-8.2-0.4-14.7-3.3-19.5-8.8c-4.8-5.5-8.4-14.1-10.7-25.7c-0.1-0.3-0.1-0.7-0.2-1c-2.2,7.5-4.8,15.1-7.8,23
	c-4.5,11.6-9.9,22-16.3,31.1c-6.4,9.1-13.9,13.5-22.5,13.1c-4.6-0.4-8.7-1.6-12.4-3.7c-3.7-2.1-6.9-6.2-9.8-12.1
	c-2.8-5.9-5.1-13.9-6.9-24.1s-2.8-23.3-3.2-39.4V831c0-3.6-0.1-8.2-0.3-13.9c-0.2-5.7-0.5-11.4-1.1-17.1c-0.5-5.7-1.3-10.8-2.4-15.3
	c-1.1-4.5-2.5-7.4-4.3-8.8c-1.4-1.1-3.2,0.2-5.4,3.7c-2.1,3.6-4.4,8.6-6.7,15c-2.3,6.4-4.6,13.7-7,22c-2.3,8.2-4.6,16.6-7,25.2
	c-2.3,8.6-4.3,16.8-5.9,24.6c-1.6,7.9-2.9,14.5-4,19.8c-0.4,2.5-1.3,4.6-2.7,6.4c-1.1,1.8-2.7,3.3-4.8,4.6c-2.1,1.3-4.6,1.7-7.5,1.3
	c-0.7,0-1.7-0.3-2.9-0.8c-1.3-0.5-2.5-1.9-3.7-4c-1.3-2.1-2.6-5.3-4-9.4c-1.4-4.1-2.5-9.7-3.2-16.9c-0.7-5.7-1.3-14.2-1.9-25.4
	c-0.5-11.2-1-24.1-1.3-38.6c-0.4-14.5-0.5-29.8-0.5-46.1c0-16.2,0.2-32,0.5-47.4c0.4-15.3,0.8-29.8,1.3-43.4
	c0.5-13.6,1.3-24.8,2.4-33.7c0.4-6.1,1.1-11.6,2.1-16.6c0.7-4.3,1.9-8.2,3.5-11.8c1.6-3.6,3.8-5.4,6.7-5.4c7.1,0,12.4,4.6,15.8,13.7
	c3.4,9.1,4.7,23.8,4,44.2c0,5.7,0,14.1,0,25.2c0,11.1-0.1,23.7-0.3,38c-0.2,14.3-0.4,29.3-0.5,45c-0.2,15.7-0.6,31.1-1.3,46.1
	c2.1-7.1,4.4-14,6.7-20.6c2.3-6.6,4.8-12.6,7.5-17.9c2.7-5.4,5.6-9.7,8.8-13.1c3.2-3.4,6.4-5.3,9.6-5.6c1.8,0,3.5-0.1,5.1-0.3
	c1.6-0.2,3.3-0.1,5.1,0.3c4.9,0.4,9.5,1.8,13.7,4.3c4.2,2.5,7.8,6.7,10.8,12.6c3,5.9,5.3,13.8,6.9,23.8c1.6,10,2.4,22.5,2.4,37.5
	c0,2.5-0.1,5.1-0.3,7.8c-0.2,2.7-0.3,5.4-0.3,8.3c0,7.9-0.1,15.7-0.3,23.6c-0.2,7.9-0.3,15.2-0.3,22c0,6.8,0,12.6,0,17.4
	c0,4.8,0.2,8,0.5,9.4c0.4,2.9,1.7,4.6,4,5.1c2.3,0.5,5.4-1.5,9.1-6.2c3.7-4.6,7.9-12.4,12.6-23.3c4.6-10.9,9.6-26.5,15-46.9
	c0.3-1.7,0.7-3.3,1-4.7c-0.1-3.4-0.2-6.9-0.2-10.5c-0.2-18.7,0.3-41.9,1.3-69.4c0-4.6,0.5-8.9,1.6-12.9c0.7-3.2,1.9-6.2,3.5-8.8
	s4.2-3.8,7.8-3.5c0.7,0.4,1.4,0.5,2.1,0.5c0.7,0.4,1.3,0.5,1.9,0.5s1.2,0.4,1.9,1.1c2.9,1.8,6.2,6,10.2,12.6
	c3.9,6.6,5.7,17.8,5.4,33.5c-0.4,9.6-0.6,19.7-0.8,30.3c-0.2,10.5-0.5,20.5-0.8,30c-0.4,9.5-0.5,17.7-0.5,24.6
	c0,7,0.2,11.5,0.5,13.7c0,2.9,1.1,5.7,3.2,8.6c2.1,2.9,5,3.7,8.6,2.7c3.6-1.1,7.8-5.2,12.6-12.3c4.6-6.8,9.5-17.9,14.9-33.3
	c-0.1-11.1,0-23.6,0.3-37.4l0.5-54.1c0-16.8,0-32.2,0-46.3c0-14.1,0.4-27,1.1-38.8c-12.5,0.4-25.1,0.5-37.8,0.5
	c-12.7,0-25.4,0-38.3,0h-6.4c-1.4,0-2.5-0.2-3.2-0.5c-2.5-0.7-4.7-1.9-6.7-3.5c-2-1.6-1.9-4.6,0.3-8.8c1.4-3.2,3.4-4.9,5.9-5.1
	c2.5-0.2,5.4,0.3,8.8,1.3c3.4,1.1,7.2,2.4,11.5,4c4.3,1.6,9.1,2.6,14.5,2.9h52c0.4-6.8,0.9-13.4,1.6-19.8c0.4-4.3,1.1-8.4,2.1-12.3
	c0.7-2.9,1.8-5.6,3.4-8.3c1.6-2.7,3.8-4.2,6.6-4.6c7-0.7,12.1,1.9,15.3,7.8c3.2,5.9,4.6,18.1,4.2,36.7c10.7-0.4,21.4-0.5,32.1-0.5
	c10.7,0,21.4,0,32.1,0c17.1,0.4,34.4,0.8,51.7,1.3c17.3,0.5,34.5-0.3,51.7-2.4c5.7-0.7,9.5,0.1,11.5,2.4c2,2.3,2.8,4.8,2.4,7.5
	c-0.4,2.7-1.3,5.1-2.9,7.2c-1.6,2.1-3.3,2.5-5.1,1.1c-1.8-1.1-4.6-2-8.3-2.9c-3.7-0.9-7.8-1.5-12-1.9c-4.3-0.4-8.4-0.7-12.3-1.1
	c-3.9-0.4-6.6-0.5-8-0.5c-11.4,0.4-22.9,0.4-34.3,0c-11.4-0.4-22.9-0.7-34.3-1.1c-10.7,0-21.4,0-32.1,0c-10.7,0-21.4,0.2-32.1,0.5
	c-0.4,12.1-0.4,29.7,0,52.8c0.4,23,0,47.9-1.1,74.7c0,4.3-0.1,9.8-0.3,16.6c-0.2,6.8-0.4,14.3-0.5,22.5c-0.2,8.2-0.4,16.6-0.5,25.2
	c-0.2,8.6-0.3,16.5-0.3,23.8c0,7.3,0.1,13.7,0.3,19c0.2,5.4,0.4,8.9,0.8,10.7c0.4,2.9,1.7,4.6,4,5.1c2.3,0.5,5.3-1.5,8.8-6.2
	c3.6-4.6,7.7-12.4,12.3-23.3c4.6-10.9,9.6-26.5,15-46.9c0.5-1.7,0.9-3.3,1.4-4.8c-0.2-10.4,0.2-21.4,1.3-33.2
	c2.1-14.3,5.4-26.4,9.6-36.4c3.6-8.6,8.6-15.8,15-21.7s14.5-6.9,24.1-2.9c6.1,2.5,10.6,7.1,13.7,13.9c3,6.8,5,14.6,5.9,23.3
	c0.9,8.8,0.6,17.9-0.8,27.6c-1.4,9.6-3.5,18.7-6.2,27c-2.7,8.4-6.1,15.7-10.2,22c-4.1,6.3-8.5,10.1-13.1,11.5
	c1.1,8.6,2.9,16.2,5.6,22.8c2.7,6.6,6.7,10.3,12,11c5.7,0.4,10.9-0.7,15.5-3.2c4.6-2.5,8.7-5.9,12.3-10.2c3.6-4.3,6.8-8.9,9.6-13.9
	c2.9-5,5.2-9.8,7-14.5c0.7-1.8,1.3-3.7,1.9-5.6c0.5-2,1.2-3.8,1.9-5.6c0.7-2.1,1.4-4.5,2.1-7c0.7-3.9,1.8-7.3,3.2-10.2
	c0.7-2.5,1.7-4.7,2.9-6.7c1.2-2,2.4-2.9,3.5-2.9c5,1.1,6.1,7.1,3.2,18.2c-0.7,2.5-1.4,5-2.1,7.5c-0.7,2.1-1.3,4.4-1.9,6.7
	c-0.5,2.3-1.2,4.2-1.9,5.6c-3.9,11.8-9.6,23.2-17.1,34.3c-7.5,11.1-17.3,18.6-29.5,22.5c-9.3,2.9-19.3,3-30,0.5
	c-6.1-1.4-11.2-4.1-15.5-8c-4.3-3.9-7.9-8.7-10.7-14.2c-2.9-5.5-5.1-11.6-6.7-18.2c-0.5-2-0.9-4.1-1.3-6.1
	C797.5,885.7,794.8,893.5,791.7,901.4z M833.4,849.7c0,3.2,0.2,6.8,0.5,10.7c3.6-2.9,7.2-8.3,11-16.3s6-20.4,6.7-37.2
	c0-5.7-0.2-10.9-0.5-15.5c-0.4-3.9-0.9-7.8-1.6-11.8c-0.7-3.9-2-6.6-3.7-8c-1.4,0-2.9,2.1-4.3,6.4c-1.4,3.9-2.8,10.1-4,18.5
	c-1.3,8.4-2.4,20.6-3.5,36.7c-0.4,2.5-0.5,5.2-0.5,8C833.4,843.7,833.4,846.5,833.4,849.7z M127.2,1009.1c0,0.2-0.9,0.4-2.6,0.5
	l-1.3-0.5c-3.2-4.1-5.3-6.3-6.2-6.6c-0.6-1.6-1.9-2.6-3.7-3.2c-2.7-1.5-5.7-2.7-8.9-3.6l0.1,0.2l-2.8-0.2c-6.7,0-11.3,1.5-13.8,4.6
	c-1.6,0.6-2.6,1-2.8,1.3c-3.9,4.2-6.8,8.6-8.8,13.2c-2.3,3-3.6,5.1-3.7,6.4c-1.8,2.9-3,5.7-3.7,8.1c-2,3.7-3,6.2-3,7.3
	c-1.6,2.4-2.3,4-2.3,4.8c-1.3,2.7-2.4,5.9-3.3,9.6c-0.9,4.3-1.3,7-1.3,8.1c0,0.4,0.2,0.9,0.7,1.5c-0.7,0.7-1.2,2-1.6,3.9
	c0.3,0.4,0.4,0.7,0.4,1.1c0,0.6-0.2,0.9-0.7,1.1c-0.2,9.6-0.9,15.6-1.9,17.9l0.4,1.2c-0.2,0.5-0.5,0.7-0.8,0.7
	c-0.7,1.8-1.5,5-2.4,9.4c0,0.9,0.3,1.7,0.9,2.4c-0.5,1.1-0.7,1.8-0.7,1.9l0.4,0.5l-0.9,5.2c0.3,1,0.5,2,0.7,3
	c-0.5,2.5-0.7,4.5-0.7,6.1l0.7,0.3c0.1,1.5,0.1,2.8,0.1,3.7l-0.1,1.4l0.7,0.5c1.7,5.2,3.2,8.9,4.6,11l0.1,0.3l-0.2,0.5
	c1.9,2.5,3.7,5.2,5.3,8.3c3.2,3.5,7.1,7,11.7,10.3c0.2,0,0.3-0.1,0.3-0.2c3.3,0.7,5.1,1.2,5.6,1.5c0.2,0,0.4-0.1,0.8-0.3
	c0.5,0,1.9,0.2,4.3,0.5c2.7-0.4,4.3-0.7,4.9-1l1.3,0.3c2.6-0.9,4.7-1.8,6.2-2.8c5.4-3,8.7-5.5,9.8-7.6c2.3-1.6,3.9-3.4,4.7-5.2
	c1.5-1.9,2.4-3.5,2.7-4.7c2.1-3.2,4.4-7.1,6.9-11.8c1.7,0,3.5,0.1,5.4,0.3c1.3,0,2.2-0.7,2.7-2.2c-0.4-1.3-1.4-3.4-3.2-6.3
	c-2.6-2.3-4.5-3.5-5.9-3.5h-1.8c-2.6,0-4.3,1.2-5.2,3.5l0.4,2.7c-3.8,7.2-6.7,12.1-8.7,14.5c-3.6,4.9-7.3,7.3-11.1,7.3
	c-0.7,0-1.4-0.1-2.2-0.3c-1,0-2.2-0.2-3.7-0.7c-2.3,0-4.6-3.4-6.8-10.3c-1.6-3.7-2.9-7.1-3.7-10.1l-0.3-4.6l0.2-0.5
	c-0.2,0-0.4-0.3-0.7-0.8c0-0.4,0.1-0.7,0.2-1c-0.1-0.1-0.2-0.5-0.4-1.2c0-0.2,0.1-0.8,0.4-2l-0.4-3.7c0-0.6,0.1-1.5,0.2-2.7
	c-0.1-0.6-0.3-1.3-0.6-2.2c0.2-0.5,0.3-1.3,0.3-2.5c0-1.5-0.2-3.5-0.5-6.1c0-1,0.2-2.3,0.7-3.9c-0.3,0-0.5-0.4-0.5-1.3
	c0-2.1,1.5-9.1,4.5-21.3c0.9-1.1,1.5-3.3,1.9-6.6c1.1-3.8,1.6-6.6,1.6-8.2c1.7-4.6,2.6-7.3,2.6-8c3.3-9,5-13.9,5-14.7
	c1.8-2.7,3.2-5.3,4.4-7.9c4-5.6,6.6-8.4,7.8-8.4c1.3-0.4,2.5-0.6,3.7-0.6c3.3,0,5.8,1.6,7.6,4.8l0.2,0.9c-0.5,0.5-0.7,1-0.7,1.5
	l0.2,1.5c1.9,2.6,3.8,4.2,5.7,4.9c0.7-0.3,1.4-0.5,2.3-0.5h1.5l0.7,0.3c5-3.8,7.7-6.1,8.1-6.9c0-0.4-0.2-1.2-0.6-2.4
	C134.6,1010.5,132.1,1009.8,127.2,1009.1z M246.7,996.4v1.5c-0.1,0.7-1.6,1.7-4.3,3c-3.3,2.2-4.9,4-4.9,5.3c0,1.4,0.2,3.5,0.6,6.4
	c-0.6,2.9-1,5.6-1.3,7.9v0.4c1.3,0.9,1.9,1.8,1.9,2.6c-1.7,1-2.6,3.6-2.6,7.9c-0.3,2.4-0.4,3.8-0.4,4.3c0.3,4.7,0.4,7.2,0.4,7.4
	c-0.1,1.7-0.2,3-0.2,3.8h0.2l-0.2,0.4v3.4c0,0.1,0.1,0.2,0.2,0.2c-0.1,0.7-0.3,1.1-0.4,1.1c0.1,1.4,0.2,2.5,0.2,3.2v4.5
	c0,0.3,0.1,0.6,0.2,0.9l-0.6,5.5c0,0.1,0.1,0.4,0.2,0.9c-0.5,0.8-1,4.4-1.7,10.6l0.2,1.3c-0.1,1.2-0.2,2.3-0.2,3.2v0.6
	c0,0.7,0.1,1.4,0.2,2.1c-0.2,1.8-0.5,3.2-1.1,4.3c0,0.1,0.1,0.2,0.2,0.2l-0.4,2.3l0.2,1.1l-0.4,3l0.2,1.1c-0.3,0.5-0.4,0.9-0.4,1.3
	c0,0.3,0.2,0.4,0.4,0.4c-0.4,0.5-1,3.3-1.7,8.3c0.1,0.2,0.2,0.5,0.2,0.9c-0.3,0.1-0.5,0.2-0.6,0.2v0.4c0.6,0.7,0.9,1.2,0.9,1.7
	c-0.3,0-0.4,0.2-0.4,0.4v0.9c-0.3,3.7-0.6,6.5-1.1,8.3l0.2,1.5c-0.6,3.2-0.9,5.1-0.9,5.7h0.2l-0.2,0.4v4.3c1.6,3.3,3.2,4.9,4.7,4.9
	c1.7,0.3,2.8,1,3.2,2.1c0,3-2.2,4.5-6.6,4.5c0-0.3-2.1-0.7-6.4-1.3h-0.9c-2.5,0.7-5.6,1.9-9.1,3.6c-0.3-0.1-0.5-0.2-0.6-0.2
	l-1.1,0.2c-1.2,0-2.6-1.1-4.3-3.2c0-1.2,1.7-2.3,5.1-3.2c1.4-2.1,2.1-4.7,2.1-7.9c0.7-2.3,1.2-7.1,1.5-14.5l-0.2-1.3
	c0-0.1,0.1-0.5,0.2-1.3c-0.6-2.2-0.9-3.8-1.1-4.9c0.1-0.3,0.2-0.5,0.2-0.6c-0.7-2.6-1.7-8.5-3-17.7h-0.2l0.2-0.4v-0.4
	c-0.6-2.7-1.1-6-1.7-10l0.2-0.4v-0.2c0-0.3-0.7-0.6-2.1-0.9v0.2l-0.4-0.2h-4l-1.3-0.2c-0.4,0.3-0.9,0.4-1.5,0.4l-2.6-0.2l-6.4,1.3
	c-4.1,0.7-8.7,1.9-13.6,3.6c-3.5,0.7-5.3,1.7-5.3,3.2c0,0.1,0.1,0.4,0.2,0.6l-0.2,1.1c0,0.6,0.1,1.4,0.2,2.3l-0.4,4.5l0.2,0.9
	c-0.4,4.6-0.9,8.2-1.3,10.9l0.2,0.4l-0.2,1.3c0,0.1,0.1,0.4,0.2,0.6l-0.2,1.1c0,0.1,0.1,0.4,0.2,0.9c-0.3,0.5-0.4,0.9-0.4,1.3v2.1
	c0,0.6,0.1,1.1,0.2,1.7l-0.2,1.1c0.1,2.3,0.4,3.8,0.6,4.5c0,0.4-0.1,1.3-0.4,2.8c0.3,0.5,0.4,1.1,0.4,1.7v2.8c1.3,4,2.1,7,2.3,8.9
	c1.3,4.7,2.4,7,3.2,7l3.4,1.7c0.3,0.5,0.4,0.9,0.4,1.3v0.4c0,1-0.9,1.7-2.8,2.1c0,0.2-0.2,0.4-0.6,0.6c-0.8,0-2.6-0.2-5.3-0.6
	c-1.1,0.6-2.3,0.9-3.6,1.1c-0.1,0-0.2-0.1-0.2-0.2c-6,0.6-9.3,0.9-9.8,0.9l-0.4-0.2c-0.7,0-2.6,0.4-5.5,1.3c-1-0.4-1.5-0.7-1.5-0.9
	l-0.4,0.2h-0.4c-1.6-0.9-2.3-1.8-2.3-2.8v-0.2l3.8-4.7c0.5-3.3,1.5-5.8,3-7.4c0.4,0,0.8-1.1,1.1-3.2c0-1.4-0.1-2.1-0.4-2.1
	c0.3-0.4,0.5-1.4,0.6-3c0-0.1-0.1-0.5-0.2-1.3l1.1-4.9v-0.2c0-0.6-0.1-1.4-0.2-2.3c0.3-0.7,0.5-1.1,0.6-1.1l-0.2-1.5l1.1-7.2
	c0-0.7-0.1-1.1-0.4-1.1c0.3-2.1,0.4-3.4,0.4-3.8l-0.2-2.1c0.1-1,0.2-1.7,0.2-2.3c-0.3,0-0.4-0.1-0.4-0.4v-1.7
	c-1-8.4-1.5-14.2-1.5-17.4h-0.2l0.2-0.4c0-1.9-0.1-3.5-0.4-4.7c0.1-0.8,0.2-1.3,0.2-1.7c0-0.1-0.1-0.5-0.2-1.3
	c0.1-0.5,0.2-0.8,0.2-0.9c-0.1-1.3-0.3-1.9-0.4-1.9l0.2-0.4v-0.9c0-0.7-0.1-1.4-0.2-1.9c0.1-1,0.3-2.9,0.4-5.7l-0.2-0.4
	c0.1-0.3,0.2-0.5,0.2-0.6c-0.1-0.5-0.2-0.8-0.2-0.9c0.3-1.2,0.4-2.3,0.4-3.4c0-0.1-0.1-0.4-0.2-0.6c0.1-0.3,0.2-0.5,0.2-0.6
	c0-0.2-0.1-1.2-0.2-3l2.3-12.6c0-0.3-0.1-0.6-0.2-0.9c0-4.2,0.4-7.4,1.1-9.6l-0.2-3.4c0.1-3,0.2-4.8,0.2-5.3h-0.2l0.2-0.4v-0.6
	c0-1-0.1-1.6-0.2-1.7c0.1-1,0.2-1.7,0.2-2.3v-1.5c0-1.3-0.2-2.5-0.6-3.4c0.1-0.7,0.2-1.2,0.2-1.3c0-0.9-0.4-2.2-1.3-4
	c-0.7-1.7-1.7-3.7-3.2-6V999c0-1.8,1.4-2.8,4.3-2.8c1,0,5.2-0.6,12.8-1.9c1.2,0.3,2.3,0.4,3.2,0.4c0.1,0,0.7-0.1,1.7-0.2
	c0.6,0.3,1.3,0.4,2.3,0.4h1.1c0.5,0.4,1.7,0.7,3.6,1.1c2,0.9,3,2,3,3.2c0,0.9-0.9,1.7-2.6,2.3c-2.5,3.8-4,6.4-4.7,7.9
	c-0.2,0-0.7,1.2-1.3,3.6c-0.1,0-0.2,0.1-0.2,0.2c0.1,1.8,0.2,3.3,0.2,4.5v0.6l-0.4,1.5c0.3,0.9,0.4,1.5,0.4,1.7
	c-0.3,0-0.5,0.4-0.6,1.3c0.3,0.5,0.4,1.1,0.4,1.7v3l0.2,1.3c-0.1,0.3-0.2,0.5-0.2,0.6l0.2,1.5c-0.3,2.2-0.6,3.7-0.9,4.5
	c0.1,0.8,0.2,1.3,0.2,1.7c0,1-0.1,2.5-0.4,4.5c0,0.1,0.1,0.2,0.2,0.2c-0.3,4-0.7,7.2-1.3,9.6l0.2,0.4c-1.4,6.3-2.1,10.9-2.1,13.8
	v1.5c0,1-0.1,1.5-0.4,1.5l0.2,1.5c0,1-0.1,2-0.4,2.8l0.2,1.1c-0.3,1.5-0.4,2.3-0.4,2.3c0.1,1,0.2,1.5,0.4,1.5l-0.2,0.4v0.6
	c0,0.2,0.3,0.4,0.9,0.6c6.2-2.3,10.5-3.5,12.8-3.6l6-1.7l0.4,0.2c1,0,2.6-0.2,4.9-0.6l0.4,0.2l0.9-0.4c0.3,0.1,0.5,0.2,0.6,0.2
	c1.6-0.4,2.9-0.6,3.8-0.6l2.1,0.2l1.1-0.2c0.5,0.3,0.9,0.4,1.3,0.4c0.2,0,0.4-0.2,0.6-0.6v-1.5c0-0.7,0.1-1.4,0.2-2.1l-0.4-2.6
	c0.3-0.7,0.4-1.3,0.4-1.7c-0.1-1.9-0.2-3.3-0.2-4H211c0.2-0.5,0.5-1.5,0.6-3c-0.1-1.6-0.2-2.3-0.4-2.3l0.2-1.5v-1.7
	c0-0.8,0.1-1.8,0.2-3l-0.2-0.4l0.2-1.3v-0.4c0-0.3-0.1-0.6-0.2-0.9c0-0.1,0.1-0.2,0.2-0.2l-0.2-1.1c0.1-2.7,0.2-4.5,0.2-5.5
	c0-0.1-0.1-0.4-0.2-0.6l0.2-1.3v-1.7c0-0.1-0.1-0.2-0.2-0.2l0.2-0.4v-1.7c0-0.6,0.1-1.2,0.2-1.7c-0.1-0.6-0.2-1.1-0.2-1.7v-0.4
	c0-0.5,0.1-0.8,0.2-1.1c-0.2-1.6-0.3-2.6-0.4-3l0.2-1.1c0-0.6-0.1-2.3-0.2-4.9c0.1-2.3,0.3-3.5,0.4-3.6c-0.1-1-0.2-1.7-0.2-2.3v-4.5
	c0-1.2,0.1-2.1,0.4-2.8c0-3.4-1-5.1-3-5.1h-0.2c-0.2,0.1-0.5,0.2-0.9,0.2v-0.2l-0.4,0.2h-0.2c-2.6-1-4-2.2-4.5-3.8
	c-0.4-0.8-0.6-1.5-0.6-2.1c0-1.1,1.2-2,3.6-2.6c0.6,0,0.9,0.2,0.9,0.4l0.4-0.2h0.2c1,0.6,1.9,0.9,2.8,0.9h0.4c1.2,0,2.1-0.1,2.8-0.4
	l1.3,0.2h1.1c0.1,0,0.2-0.1,0.2-0.2c0.1,0,0.2,0.1,0.2,0.2c3.1-0.1,5.2-0.4,6.4-0.6l1.1,0.2c1.1-0.1,1.7-0.2,1.7-0.4
	c0,0.1,1.1,0.3,3.4,0.4c3.3-1,6.2-1.6,8.7-1.9c0.5,0.3,2.4,0.7,5.5,1.3C245.5,994.4,246.7,995.6,246.7,996.4z M228,1091.5
	c-0.1-0.3-0.2-0.5-0.2-0.6h-0.2l-0.2,1.1l0.4,0.2C227.9,1091.9,228,1091.7,228,1091.5z M228,1087.5h-0.4c-0.3,0-0.4,0.2-0.4,0.4
	c0,0.1,0.1,0.5,0.2,1.3c-0.1,0.2-0.2,0.5-0.2,0.9l0.6,0.4l0.2-2.1V1087.5z M228.6,1083.5l-0.4-0.2c-0.4,1.2-0.6,2.1-0.6,2.6v0.2h0.4
	C228.4,1084.7,228.6,1083.9,228.6,1083.5z M355,1133.2l-0.1,1.5c0,0.1,0.1,0.2,0.2,0.2c-0.1,1.1-1.5,2.8-4.4,5.1
	c-1.1,1.6-2.7,2.6-4.7,3c-0.7,0.5-1.4,1.3-2.3,2.3c-1.3,0-3.3-0.6-6-1.7c-2.6-0.9-4.3-2.3-5.3-4.3c-5-5.6-7.6-9.7-7.9-12.3l-1.2-4.5
	c-1.3-3.6-2.2-8.1-2.7-13.6c-0.4-1.4-0.7-2.4-1.1-3c0.1-0.2,0.2-0.5,0.3-0.9c-0.4-0.5-0.7-2.2-1.1-4.9l-2.7-13
	c-0.3,0-0.4-0.2-0.4-0.6l0.3-0.9l-0.9-2.6c0-0.3,0.1-0.6,0.3-0.9c-2.5-9-4.8-14.4-7-16h-1.9c-0.6,0.4-1.1,0.6-1.5,0.6v-0.2
	c-3.6,1.1-5.9,2.3-6.8,3.6c0,2.4,0.1,3.6,0.4,3.6c-0.5,0.7-0.7,1.3-0.7,1.7l0.4,2.8l-0.3,1.1c-0.1,1-0.3,2.8-0.6,5.5l0.4,1.1
	c-0.2,0.7-0.3,1.2-0.3,1.3l0.2,1.1c0,0.1-0.1,0.4-0.3,0.6c0,2.2,0.1,3.5,0.4,3.8c-0.3,0.6-0.5,1.1-0.5,1.5l0.1,1.7
	c0,0.1-0.1,0.5-0.3,1.3l0.1,1.3c0,0.1-0.1,0.4-0.2,0.6c0.1,3.9,0.4,7.2,0.8,10c-0.3,0.5-0.5,0.9-0.5,1.3c0,0.1,0.1,0.2,0.2,0.2
	c-0.2,1.3-0.6,2.3-1.1,3v0.1c0,0.3,0.2,1.9,0.7,4.8c-0.4,5.3-0.7,8.8-0.9,10.4l0.2,0.4c-0.5,0.7-0.7,1.4-0.8,2.1l1.5,6.6
	c1.2,2.9,1.9,4.4,2.2,4.5c0.2-0.1,0.5-0.2,0.9-0.2c0,0.2,1.1,1.2,3.2,3c0.7,1.4,1.1,2.3,1.1,2.7l-0.1,2c-0.1,2-2.6,3.3-7.3,4
	c-1,0.3-1.6,0.4-2,0.4c-0.9-0.3-1.4-0.4-1.4-0.4l-1.5,0.2l-2.5-0.9c-0.5,0.3-0.9,0.4-1.3,0.4c-0.1,0-0.6-0.3-1.2-0.9h-0.2l-0.7,0.4
	h-0.9c-0.5-0.4-0.9-0.6-1.2-0.6l-1.5,0.2c-3.1-1-4.6-1.5-4.8-1.5c-0.3,0.1-0.5,0.2-0.6,0.2c0-0.2-1-0.5-2.9-0.9
	c-0.4-1-2.2-1.8-5.6-2.6c-0.6-0.9-1-1.4-1-1.7c0.2-2.9,1.3-4.8,3.2-5.5c0.9-1.6,1.5-2.3,1.9-2.3v-0.6c0-0.2-0.1-0.4-0.2-0.6l1.8-3.4
	c-0.2-0.5-0.4-0.9-0.4-1.3c0.3,0,0.4-0.1,0.5-0.4l0.2-3.2c0.3-0.4,0.5-0.6,0.5-0.9c0-0.4,0.1-2.3,0.2-5.7h-0.2
	c0.1-0.3,0.2-0.6,0.2-1l-0.1-1.4l0.7-1.5c0-0.2-0.1-0.7-0.3-1.3l0.2-0.4l-0.1-1.3c0.4-2.3,0.5-4,0.5-4.9c0-0.1-0.1-0.2-0.2-0.2
	c0.3-0.5,0.5-1.4,0.6-2.6c0-0.1-0.1-0.2-0.2-0.2c0.4-0.7,0.6-1.5,0.6-2.4c0-0.1-0.1-0.2-0.2-0.2c0.1-0.3,0.2-0.7,0.2-1.2
	c0-0.8-0.1-2.2-0.3-4.1l0.5-1.1l-0.3-2.1c0.1-0.3,0.2-0.5,0.3-0.6c-0.2-0.5-0.3-1-0.3-1.5v-0.2c0.3-0.5,0.5-0.8,0.5-1.1l-0.1-2.3
	c0.3-0.5,0.5-1.1,0.5-1.7l-0.3-0.9c0.2-1,0.4-1.6,0.5-1.9l-0.2-0.4l0.3-1.3c-0.2-0.4-0.3-0.7-0.3-1v-0.1c0.3-2.5,0.5-4,0.5-4.7h-0.2
	c0.4-0.5,0.5-1,0.5-1.5c-0.2-0.4-0.4-0.6-0.4-0.6c0.4-0.9,0.5-1.6,0.5-1.9h-0.2l0.3-0.4c0.1-1.2,0.2-2.3,0.2-3.1l-0.1-1.3
	c0.2-1.2,0.4-2.2,0.4-3l-0.1-1.9c0-0.1,0.1-0.5,0.3-1.3l-0.1-5.5c0.2-1.1,0.4-2.3,0.5-3.6h-0.2c0.1-0.3,0.2-0.6,0.3-0.9
	c-0.4-0.5-0.6-1.5-0.6-3l0.1-1.6c0.2-1,0.3-1.6,0.3-1.7c-0.1-0.6-0.1-1.8-0.1-3.5l0.1-4.6c0.2-0.7,0.3-1.4,0.3-2.3l-0.1-1.8l0.3-0.4
	c-0.1-2.4-0.3-3.6-0.4-3.6l0.3-0.4v-0.4c0-0.3-0.1-0.4-0.2-0.4c0-0.1,0.1-0.4,0.3-0.6c0.5-5.5,0.9-9.6,1.1-12.3
	c0-0.1-0.1-0.4-0.2-0.6c0.2-0.2,0.3-0.5,0.3-0.9l0.1-1.5c0-0.1-0.1-0.2-0.2-0.2c0.3-0.5,0.5-0.9,0.5-1.3c-0.2-1-0.3-1.6-0.3-2
	l0.1-0.8c0.2-2.5,0.3-5.6,0.4-9.1c-0.2,0-0.7-2.1-1.5-6.4c-1.6-1.6-2.4-3.3-2.4-5.1v-0.4c-0.1,0-0.2-0.1-0.2-0.2V989
	c-2,0.3-3.1,0.6-3.5,1.1c-0.1,0-0.2-0.1-0.2-0.2v-0.1c-1.5,0.1-2.5,0.2-3.2,0.2c-0.6,0.4-1.2,0.6-2,0.6c-0.6,0-1.9-0.6-3.9-1.7
	c-1.6,0-2.4-0.8-2.4-2.4v-0.3l3.1-1.9c0.7,0.1,1.3,0.2,1.6,0.2c0-0.1,0.4-0.4,1-1.1l0.8,0.4c6.9-1.3,11.6-2.4,14.1-3.4l0.4,0.2
	c0.6-0.3,1.1-0.4,1.5-0.4l1.3,0.2l1.1-0.4c0.7,0.1,1.4,0.2,2.1,0.2l1.5-0.9c0.6,0.1,1.1,0.2,1.5,0.2c0.5-0.3,0.9-0.4,1.3-0.4
	l1.3,0.2c1.3-0.3,2.3-0.4,3-0.4l-0.1,0.2l0.5-0.2c0.4,0,1,0.1,1.9,0.4l1.7-0.2l1.3,0.2l1.1-0.2c1.3,0.3,2.9,0.8,4.8,1.5
	c0.2,0,0.9-0.1,1.9-0.4c0,0.7,1.5,1.1,4.4,1.3c0,0.2,1,0.6,2.9,1.3l4.9,2.6c0,0.2,1,1,3,2.6v0.1c0,0.3,0.6,1.2,1.7,2.7v0.1
	c0,1,0.9,3.3,2.7,6.9c0,4.1,0.2,6.8,0.5,8.1c-0.3,0.5-0.5,1.1-0.6,1.6c-0.1,0.6-0.1,1.1-0.1,1.6c-0.8,0.6-1.3,1.8-1.7,3.4
	c0.2,0.4,0.3,0.8,0.3,1.1c0,1.3-0.8,3.2-2.3,5.5l-0.1,1.6l0.1,1.4c-1.2,2.5-2.7,6.3-4.6,11.3c-0.4,0-0.7,0.3-1,0.9
	c0.1,0.3,0.2,0.5,0.2,0.6c-2,2.3-3.1,4.3-3.2,6c-0.5,0-1.4,1.3-2.6,3.8c-0.5,0.2-1.8,2.5-4.1,7c0.2,0.9,0.3,1.4,0.3,1.6v0.3
	l-0.3,0.4c0.2,0,0.4,0.2,0.6,0.6c0,0.3-0.2,0.9-0.6,1.9c1.8,1,3.1,2.8,3.9,5.3c1.7,2.1,3,3.7,3.7,4.9c2,4.9,3.4,8.7,4.1,11.5
	c1.2,7.2,2,11.7,2.4,13.4l-0.2,1.9c0.3,0.3,0.6,1,1,2.1c-0.2,0.2-0.3,0.5-0.3,0.9l1.1,5.3l-0.1,1.5c0,0.3,0.5,1.4,1.6,3.2
	c-0.3,0.5-0.5,0.9-0.5,1.3c0.6,1.4,0.9,3,0.9,4.7l-0.1,1.1c1.3,3.8,2.3,7.6,2.8,11.3c1.6,3.7,2.7,5.5,3.5,5.5v0.1
	c0,0.5,0.7,1.5,2.1,3.1v0.1c0,1.1,1.8,2.4,5.5,3.8h0.6c0.5,0,1.3-1.4,2.2-4.3c1.4-1.8,3.3-2.8,5.5-2.8c1.4,0,2.4,0.9,3,2.6
	L355,1133.2z M313,1029.2c2-4.1,3.8-8.7,5.4-13.8h-0.2c1.1-3.9,2.1-6.8,2.9-8.7c0-0.9-0.1-1.3-0.3-1.3c0.2-0.9,0.3-1.5,0.3-1.8
	c0-1.1-0.2-2.4-0.5-3.9c0.1-0.3,0.2-0.6,0.3-0.9c-0.9-4-1.7-6-2.6-6v-0.1c0-1.1-1-2.1-3-3.1c0-0.4-0.8-0.8-2.3-1.3v-0.1
	c0-0.1-0.6-0.2-1.9-0.2c-1.3-0.6-3.1-1-5.5-1.1c-1.7,0.1-2.6,0.3-2.6,0.4c0,0.4-0.6,0.9-1.6,1.7l-0.1,1.2c0,1,0.2,2,0.6,3l-0.3,1.5
	c0.1,0.4,0.2,0.6,0.4,0.6c-0.2,0.3-0.4,1.3-0.6,3.2c0,1.8,0.1,3.2,0.3,4.3l-0.1,1.7c-0.2,0.2-0.7,1.3-1.3,3.2c0,1.6,0.2,2.3,0.5,2.3
	l-0.3,1.5l0.6,3.8l-0.5,3.6h0.2c-0.3,0.6-0.5,1.3-0.6,1.9c0,0.1,0.1,0.4,0.2,0.6c0,0.1-0.1,0.4-0.3,0.6l-0.1,3.2
	c0,1.8,0.1,3.1,0.2,3.8l-0.3,1.5c0.2,1.1,0.3,1.7,0.3,1.9l-0.5,0.9l0.1,2.6l-0.6,5.1l0.3,1.7l-0.3,0.9l0.1,1.4c0,0.4,0,0.7-0.1,0.9
	h1.3c2.4-0.6,4.5-2.5,6.2-5.7c0-0.3,0.7-1.1,1.9-2.6C310.4,1034.1,311.8,1031.1,313,1029.2z M383,1010.4c2.1,1.4,3.9,2.1,5.5,2.1
	c3,0,5.3-1,7-3c1-0.6,1.8-3,2.3-7.4c0-1.3-0.5-2.5-1.5-3.6c-3.2-1.8-4.9-2.8-5.1-2.8c-0.2,0.1-0.5,0.2-0.9,0.2H390l-1.5-0.2
	c0,0.1-0.3,0.4-0.9,0.6h-0.2c-0.3,0-0.6-0.1-0.9-0.2c-0.4,0-1.6,0.6-3.4,1.7c-1.7,1.9-2.6,3.5-2.6,4.9l0.2,0.4
	c0,0.2-0.1,1.1-0.2,2.6C381.2,1007.3,382,1008.8,383,1010.4z M398.2,1141.5c-0.5,0.2-0.8,0.3-0.9,0.3c-0.9-0.7-1.4-2.5-1.7-5.4
	c0-0.3,0.1-0.4,0.4-0.5c0-0.2-0.1-0.5-0.2-0.8c0-1.1,0.2-2.1,0.6-3l-0.2-0.5l0.4-7.4c-0.1-0.3-0.2-0.6-0.2-0.8
	c0.1-2,0.2-3.4,0.2-4.3c0-0.4-0.1-1.1-0.2-2c0.1-0.2,0.2-0.9,0.2-1.8c0-0.7-0.1-1.4-0.4-2h0.2c0-0.7-0.1-1.4-0.2-2.1l0.2-2.6
	c0-0.9-0.1-2.8-0.4-5.9l0.2-1c-0.3,0-0.5-2-0.6-5.9c0-0.2,0.1-0.4,0.2-0.7h-0.2l0.2-3.1v-0.2l-0.2-1.3c0.4-1.9,0.6-3.5,0.6-4.9v-3
	l0.2-1.8c-0.2,0-0.4-0.4-0.4-1.3v-1.8l0.2-1.3c-0.1,0-0.2-0.3-0.2-0.8v-0.7l0.2-0.5c-0.1,0-0.3-0.5-0.4-1.5l0.2-1.8
	c0-0.5-0.1-1.1-0.2-1.8c0.3-0.6,0.4-1.6,0.4-2.8v-1.8c0-1.2-0.1-2.8-0.4-4.8c0.1-2.1,0.3-3.2,0.4-3.3l-0.2-1.8
	c0-2.4,0.2-4.6,0.6-6.4l-0.2-0.5c0.1-3.1,0.4-4.8,0.6-5.1l-0.2-0.5c0.3-1.1,0.4-1.9,0.4-2.3v-0.5l-0.2-1.8c0.4,0,0.7-2.6,0.9-7.9
	c-0.9-1.4-1.9-2.2-3-2.6c-0.2,0.2-0.5,0.3-0.9,0.3h-0.9c-1.9,0-3.5-0.2-4.7-0.5c0,0.4-1.2,0.6-3.6,0.7l-1.7-0.5
	c-2.8,0.7-4.3,1.6-4.3,2.8c0,0.7,0.1,1.8,0.2,3.3c-0.1,1.2-0.2,1.9-0.2,2c0.3,1.1,0.4,1.9,0.4,2.3v0.5c-0.3,1.5-0.5,3.6-0.6,6.4
	l0.2,1l-0.4,5.6c0,0.1,0.1,0.4,0.2,1l-0.2,1.8c0,0.4,0.1,1.1,0.2,2l-0.4,1.3c0.2,0,0.3,0.3,0.4,1c-0.1,3.5-0.3,5.3-0.4,5.4
	c0.1,0.3,0.2,0.6,0.2,1v1.8c0,1.1-0.1,2.3-0.4,3.6l0.2,0.5l-0.2,1.3l0.2,0.5c-0.3,2.4-0.6,7.6-1.1,15.6l0.2,1l-0.9,7.7
	c0.1,0,0.2,0.1,0.2,0.3v7.4l-0.2,1.8c0.1,0,0.2,0.3,0.2,1v2.3l-0.2,0.5c0.2,0,0.3,0.3,0.4,1c-0.1,0.4-0.2,0.6-0.2,0.8
	c0,0.7,0.1,1.6,0.2,2.8l-0.2,1.3l0.2,1c-0.3,3.5-0.6,6.5-1.1,8.9c0,0.1,0.1,0.4,0.2,1c-0.1,1.7-0.3,2.7-0.4,3
	c0.1,0.3,0.2,0.7,0.2,1.1v0.5c-1,5.9-2,10-3,12.2c-3.1,0.7-4.7,2.2-4.7,4.4c0.3,1.5,0.6,2.3,1.1,2.3c0.9,1.9,2.9,2.8,6,2.8
	c3.2-0.7,6.3-1.4,9.1-2.3c0.8,0.2,1.4,0.3,1.9,0.3c0.1,0,0.3-0.2,0.6-0.5h1.1l1.5,0.3c0-0.2,0.4-0.4,1.3-0.8v0.3
	c1-0.2,1.6-0.3,1.7-0.3c0.7,0,1.6,0.1,2.6,0.3l1.3-0.3c3.2-0.6,5.4-2,6.6-4v-0.8C401.7,1142.7,400.1,1141.5,398.2,1141.5z
	 M493.8,1003.9c0.1,0,0.4,1.3,0.6,3.8v2.3c-1.3,3.3-2.2,6.2-2.6,8.5c-1.2,2.2-2.6,4.1-4.3,6c-0.7,2.8-2.1,4.3-4,4.3H483
	c-2.1,0-3.6-0.8-4.5-2.3c-3-1.7-4.5-3.5-4.5-5.3v-0.6c0-1.7,0.9-2.6,2.6-2.6h0.9c0.7,0,1.4,0.4,2.1,1.1c1.6,0,3.1-2.2,4.7-6.6
	c0-1,0.4-3.3,1.1-7c-1.2-7.7-2.2-11.5-2.8-11.5c0-0.2-0.2-0.4-0.6-0.6h-0.2l-2.1,0.2v-0.2c-3.2,0.7-5.4,1.5-6.6,2.6
	c-3.3,2.1-6.2,5.1-8.7,9.1c-4.1,6-6.2,9.7-6.2,11.3l-1.7,4.5l0.2,1.1c-0.4,0-1,1.7-1.7,5.1c-0.1,0-0.2,0.1-0.2,0.4
	c0.1,0.3,0.2,0.5,0.2,0.6c-0.4,0-0.6,0.3-0.6,0.9c0,0.1,0.1,0.4,0.2,0.6l-1.5,11.3c0,0.1,0.1,0.2,0.2,0.2l-0.2,2.1v2.6
	c0,1.8,0.1,3.7,0.4,5.5l-0.2,1.1c0.5,5.5,0.9,8.7,1.3,9.8v2.3c1.5,6.1,2.7,9.7,3.6,10.9c0,0.6,1.4,3.8,4.3,9.6c0,1.4,1,3.4,3,6.2
	c2,2.6,3.5,5.4,4.5,8.5c3.1,5.5,4.7,9.6,4.7,12.3c0.3,0,0.4,0.2,0.4,0.4v0.9c0,0.6-0.1,1.4-0.2,2.3c0,0.1,0.1,0.2,0.2,0.2
	c-0.5,4.3-1,6.4-1.5,6.4v0.2c0,0.7,0.2,1.1,0.4,1.1c-0.4,4-0.7,6-1.1,6l0.2,1.5c-0.7,4.5-1.3,6.8-1.9,6.8c-2.3,6-5.5,9.7-9.6,11.3
	c0,0.4-3,1.4-8.9,3l-0.4-0.2h-0.6c-1.8,0.4-2.8,0.6-3,0.6H447c-0.2,0.3-1.6,0.6-4,0.9c-3.7-0.7-7.6-2.8-11.7-6.4
	c-3.7-3.4-5.5-7.4-5.5-11.9c0.4,0,0.6-0.3,0.6-0.9c-1-3-1.5-4.9-1.5-5.5c0.1-1.8,0.2-2.7,0.2-2.8c0-0.2-0.1-0.8-0.4-1.7
	c0-1.5,1.5-2.6,4.5-3.2h1.9c0.5,0,1.1,0.1,1.9,0.2c0.1,0,0.2-0.1,0.2-0.2l1.1,0.2h1.1l0.6-0.4h0.2c0,1,1.1,1.6,3.2,1.9l1.9,2.1v0.2
	c0,1.3-1.3,2.6-3.8,3.8l-0.4,0.2l-1.1-0.2c-0.4,0.1-0.6,0.3-0.6,0.4l-0.4-0.2h-0.2c-1.6,0-2.3,1.6-2.3,4.7c-0.3,0-0.5,0.6-0.6,1.9
	v2.6c0,1,1,2.7,3,5.3c3.5,2.4,5.7,3.6,6.8,3.6c0.5-1.2,2.2-2.3,4.9-3.2c2.3-2.1,4-6.6,5.3-13.4c0.9-3.7,1.3-6.3,1.3-7.9
	c0-6.8-0.9-12.2-2.8-16.2c0-1.9-0.9-5-2.6-9.4c-1.1-2.5-2.1-4.8-2.8-6.8l-3.8-7.7c0-0.4-1.1-2.1-3.2-5.1c-2.3-3.7-4.5-10.5-6.8-20.4
	c0.1-0.3,0.2-0.5,0.2-0.6c-0.4-0.9-0.6-1.9-0.6-3v-1.5l-1.1-3.6l0.2-0.4c-0.1-1.2-0.3-1.9-0.4-2.1l0.2-0.4l-0.2-2.1l0.2-1.1
	c0-0.1-0.1-0.4-0.2-0.6c0.7-8.8,1.5-13.2,2.3-13.2c1.2-4.8,2.9-9.3,5.3-13.6c1.2-1.8,2.3-3.9,3.2-6.2c3.9-5.4,6.2-8.1,6.8-8.1
	c0.5-1.5,3.4-4.4,8.9-8.5c1.8-1.7,4.6-3.2,8.3-4.3c0.2-0.4,1.9-0.8,5.1-1.3v0.2l0.4-0.2c0.5,0,1.6,0.1,3.4,0.4
	c0.2-0.1,0.5-0.2,0.9-0.2l1.1,0.2l1.5-0.2c4.4,0.5,7.3,1.2,8.7,2.1c0.1,0.4,2,2.6,5.7,6.6C492.9,998.2,493.8,1001.1,493.8,1003.9z
	 M442.1,1072.8l0.2-0.4v-0.4c0-0.2-0.2-0.4-0.6-0.6h-0.4C441.5,1072.3,441.8,1072.8,442.1,1072.8z M442.7,1073.7
	c0-0.3-0.1-0.4-0.4-0.4h-0.2v0.4c0,0.2,0.2,0.4,0.6,0.6V1073.7z M628.4,1006c-0.4-0.6-0.7-0.9-0.9-0.9l0.2-1.1
	c-0.6-2.1-1-4.1-1.1-6.2l-1.4-2.1c-1.3-0.3-2.8-0.9-4.6-1.8c-0.2,0.1-0.4,0.1-0.7,0.1c-0.1,0-0.3,0-0.5,0c-0.2,0-0.3-0.2-0.3-0.7
	H619c-1.5,0.8-3.4,1.4-5.6,1.7l-0.4-0.2c-2.2,0-4.2,0.2-6,0.6c-5-0.2-8.6-0.3-10.9-0.3c-1.6,0-2.5,0-2.8,0.1l-1.5-0.4l-2.6-0.1
	c0-0.3-0.9-0.7-2.8-1.4c-0.4,0-1.2-0.1-2.3-0.1c-2.1,0-5.5,0.1-10.1,0.3l-0.4-0.3c-0.8,0.2-1.6,0.4-2.4,0.4c-0.8,0-1.5-0.2-1.9-0.4
	v0.2l-0.9-0.5c-0.3,0-0.6,0.1-1.1,0.3c-0.3,0-0.6-0.1-0.9-0.3c-5.6-0.1-10.9-0.2-16.1-0.2c-0.2-0.2-0.4-0.3-0.6-0.3
	c-2.4,0.2-4.6,0.4-6.7,0.4c-0.2-0.2-0.5-0.3-0.6-0.3c-3.2,0.1-5.1,0.3-5.8,0.5c-9.8,0.7-15.6,1.3-17.4,1.8c-0.1,0-0.3-0.1-0.6-0.3
	c-4,0.6-6.2,1.1-6.7,1.4c-3.8,0-6.1,0.2-6.9,0.5c-1,0-1.7,0.5-2.2,1.5l-1,3.7l0.2,0.9c-0.3,0.2-0.5,1.2-0.7,2.9
	c0.1,0,0.3,0.2,0.4,0.7l-0.3,1.2c0.3,2.3,2.1,3.9,5.4,4.6c0.3,0,1.1-0.3,2.4-1c0-1.7,1.7-3.6,4.9-5.9c5.3-1.8,8.2-3.2,8.5-4.2
	c0-1,8.6-1.7,25.6-2.2l1.3,0.1c1.5,0.2,2.3,1.3,2.4,3.5c-0.1,0-0.2,0.1-0.2,0.4l0.8,6.9l-0.2,1.2c0.4,0.4,0.6,1.3,0.7,2.6l-0.2,0.4
	l0.6,2.6c-0.1,1.2-0.1,2.2-0.1,3l0.1,2.3c-0.2,0.7-0.3,1.4-0.3,2.1c0.2,1.3,0.4,2.1,0.4,2.3c0,0.2-0.1,0.4-0.3,0.6
	c0.1,0,0.3,0.4,0.6,1.3c0,0.2-0.1,0.5-0.4,0.8l-0.1,0.4c0,0.4,0.1,0.8,0.4,1.3c-0.2,0.6-0.3,1-0.3,1.3c0,0.7,0.1,1.7,0.3,2.9
	c-0.2,1.1-0.3,2.1-0.3,2.9c0,0.3,0.2,0.7,0.4,1.1c-0.1,0-0.2,0.2-0.2,0.5c-0.1,2-0.3,3.4-0.6,4l0.3,5.2l-0.6,2.7l0.2,1.5l-0.4,0.8
	l0.3,5.5c-0.1,0-0.2,0.1-0.2,0.2l0.1,1.4c0,0.7-0.1,1.5-0.3,2.2l0.4,0.3c-0.2,0.7-0.3,1.6-0.3,2.4c0,0.9,0,1.5,0.1,2l-0.3,1.9
	l0.2,3.6c-0.2,1.2-0.3,2-0.3,2.3l0.4,1.1l-0.2,0.9l0.2,6c0,0.2-0.1,0.6-0.4,1c0.2,6.4,0.3,10,0.3,10.8c-0.2,0.8-0.3,1.6-0.3,2.3
	l0.2,1.5c-0.2,0.2-0.3,0.4-0.3,0.6l0.4,2.2c0,0.1-0.1,0.4-0.3,0.9c0,0.4,0.1,0.9,0.4,1.5c0,0.1-0.1,0.5-0.3,1.2l0.2,1.8
	c0,0.1-0.1,0.3-0.3,0.6c0.2,0.3,0.3,1,0.4,2c-0.2,0.7-0.3,1.3-0.3,2c0,0.8,0,1.6,0.1,2.4c-0.1,0-0.2,0.1-0.3,0.2l0.2,1
	c0,0.4-0.1,1.4-0.3,3c0,0.5,0.2,1,0.4,1.7c-0.2,0.9-0.3,1.9-0.3,3c0,0.6,0,1.2,0.1,1.8c-0.1,0.2-0.2,0.5-0.3,0.8
	c0,0.2,0.1,0.4,0.3,0.7c-0.1,0.2-0.3,1.4-0.6,3.5l0.3,2c-0.1,0-0.4,0.3-0.6,1c0,0.1,0.1,0.4,0.2,0.6c0,2.8-0.7,5.2-2.1,7
	c-3.2,1.8-4.9,3.5-4.9,5c1,4,2.6,6,4.9,6c0.5,0,0.7-0.1,0.7-0.3c3.1,0,4.9-0.1,5.6-0.3l0.4,0.3l5.5-0.1c1.4,0,2.4,0,2.9,0.1
	c0.4,0,0.8,0.2,1.2,0.5v-0.2c2.1,0.4,3.5,0.8,4.1,1.2c0.2,0,0.4,0,0.8-0.1c2.1-0.8,4.3-1.5,6.8-2.1c1.1,0,1.9-0.9,2.4-2.7
	c0-1.2-1.3-2.3-3.9-3.4c-2.2-1.6-3.4-3.3-3.5-5.2c0-0.2,0.1-0.8,0.3-1.8c-0.2-1-0.5-1.8-0.8-2.4c0-0.7,0.1-1.4,0.3-1.9
	c-0.1-4.1-0.4-7.7-0.9-10.7c0-0.1,0.1-0.3,0.3-0.6c-0.1-0.6-0.2-1.1-0.2-1.5l0.1-2.7c-0.2-1.2-0.4-4-0.5-8.3
	c0.1-2.3,0.2-4.3,0.2-6.1c0-2.7-0.1-4.7-0.4-6l0.2-0.4l-0.1-2.1c0-0.3,0.1-0.6,0.2-0.8l-0.2-6.2c0.2-1,0.3-1.7,0.3-2.3l-0.2-2.4
	c0.1,0,0.2-0.1,0.2-0.2c-0.1,0-0.2-0.1-0.2-0.2l0.1-3.4c0-0.4-0.1-0.8-0.4-1.2l0.6-5.2c-0.1,0-0.2-0.1-0.2-0.3
	c0-0.2,0.2-1.3,0.5-3.3c0.1-1.7,0.1-3,0.1-4c0-1.2-0.1-2.6-0.2-4.1l0.3-1.4l-0.2-0.9c0.3-0.7,0.6-1.7,0.7-3.1
	c-0.1,0-0.2-0.1-0.2-0.2c0-0.3,0.1-0.6,0.3-0.9c0-0.2-0.1-0.4-0.2-0.6c0.2-1.6,0.4-2.8,0.4-3.5c0-0.2-0.1-0.4-0.2-0.7
	c0.2,0,0.3-0.3,0.4-0.8c-0.1,0-0.2-0.1-0.2-0.2c0.1-1.2,0.2-2.1,0.3-2.5c-0.2-1.2-0.3-2-0.3-2.3c0.3-1,0.5-1.8,0.5-2.3
	c0-0.7-0.1-1.6-0.4-2.8c0.2-1.6,0.4-2.9,0.4-3.9c0-0.7-0.1-1.3-0.3-1.8c0.2-0.4,0.4-1.3,0.5-2.7c-0.4-0.4-0.6-1.3-0.8-2.9
	c0.2-1.4,0.3-2.3,0.3-2.5c0-0.4-0.1-0.9-0.2-1.3c0.2-0.7,0.3-2.2,0.4-4.4l0.2-0.4h-0.2c0-0.9,0.2-2.2,0.6-3.8
	c-0.1-0.2-0.2-0.4-0.2-0.5c0-0.5,0.1-0.7,0.2-0.7c0.1-3.6,1.8-7.7,4.9-12.4c0.8-0.9,2.6-1.4,5.4-1.5l1.5,0.4l0.6-0.4
	c0.9,0.1,1.5,0.2,1.7,0.4c0.4,0,1.5-0.1,3.5-0.1l0.4,0.3c0.2,0,2.9,0.1,8.1,0.2c0.7,0.2,1.2,0.4,1.6,0.4c0.2,0,0.4-0.1,0.4-0.4
	c0.7,0.1,1.4,0.2,2.1,0.4c1.2-0.1,2.2-0.1,3-0.1c5.6,1,8.6,2.1,8.9,3.2c1.5,0.7,2.9,1.7,4.4,3c1.4,2.8,2.7,4.3,3.9,4.4
	c0-0.2,0.3-0.3,0.9-0.3c0,0.1,0.2,0.3,0.6,0.5c2.4-0.7,3.7-1.3,3.7-2c0-0.7-0.3-2-0.9-3.8L628.4,1006z M769.2,1136.2
	c-1-0.4-2.8-2.1-5.3-4.9c0-0.9,0.1-1.8,0.2-2.8c-0.1-0.5-0.2-0.8-0.2-0.9c0.1-3,0.4-5.2,0.6-6.8c-0.1-0.6-0.2-1.1-0.2-1.7v-0.4
	c0.4-1.5,0.6-2.3,0.6-2.3l-0.2-1.1c0.3-1.7,0.5-2.7,0.6-3c-0.1,0-0.2-0.1-0.2-0.2v-0.6c0-0.4,0.2-1,0.6-1.7l-0.2-0.4l0.4-4.5
	c-0.1-1-0.2-1.7-0.2-2.3l0.2-1.5c-0.1-0.6-0.2-1.1-0.2-1.5c0-0.4,0.1-0.9,0.2-1.5l-0.2-1.1l0.2-3.4l-0.2-1.9
	c0.4-1.2,0.6-3.3,0.6-6.4v-0.4c0-0.8-0.1-2-0.2-3.4c0.1-0.2,0.3-1.1,0.4-2.8l-0.4-0.9c0-0.4,0.1-0.9,0.4-1.5
	c-0.1-7.2-0.4-11.1-0.6-11.7c0.2,0,0.3-0.3,0.4-0.9l-0.2-0.4c0-0.4,0.1-1.8,0.2-4.3c0-0.2-0.1-0.6-0.4-1.1c0.1-1.5,0.2-2.6,0.2-3.4
	c0-1.5-0.2-4.2-0.6-8.1c0.1-0.3,0.2-0.5,0.2-0.6l-0.6-3.4c0-0.4,0.1-0.8,0.4-1.3c0-0.5-0.1-1.1-0.2-1.9c0.1-1,0.3-1.6,0.4-1.9
	c-0.2-0.9-0.5-2.6-0.9-5.1c0.1-0.7,0.2-1.2,0.2-1.3c0-0.2-0.1-0.9-0.4-1.9c0-0.1,0.1-0.4,0.2-0.6c-0.4-3.9-0.6-7.4-0.6-10.6
	c0-0.4-0.1-0.9-0.2-1.7c0.1-0.6,0.4-3,0.9-7.2c-0.3-2.7-0.4-4.8-0.4-6.2c0-0.5,0.6-1.1,1.9-1.9c1.1,0,1.9-1,2.6-3v-0.9
	c0-0.6-0.3-1.3-0.9-1.9c0-1.7-2.5-3.1-7.4-4c-1.7,0.9-2.7,1.3-3.2,1.3c-1.3,0-3.5-0.1-6.6-0.2c-0.3,0.1-0.5,0.2-0.6,0.2
	c0-0.1-0.1-0.2-0.2-0.2c-4,1.4-6.5,2.1-7.2,2.1h-1.3c-0.6,0.7-1.2,1.1-1.7,1.3c-0.5-0.1-0.8-0.2-0.9-0.2c-1.8,0.6-3.6,1.2-5.3,1.9
	h-0.2l-1.1-0.2c-0.2,0.4-0.4,0.6-0.6,0.6c-1.6,5-2.3,7.7-2.3,8.1l-1.3,3.8c0,0.8-0.8,3.8-2.3,9.1c-0.9,1.7-2.5,7.1-4.9,16.2
	c-1.1,3.3-1.7,5.5-1.7,6.6c-3.1,9.4-4.7,14.6-4.7,15.7c0.1,0,0.2,0.2,0.2,0.6v0.2c-0.5,0.9-0.7,1.3-0.9,1.3c-0.6,3-1.3,5.9-2.3,8.5
	l-3,10l-5.7,20.2h-0.2c-0.6-5.2-1.6-11.6-3.2-19.2c-0.4-3.4-1-10.2-1.7-20.6l0.2-1.1c-0.9-7.7-1.5-12.6-1.9-14.9v-2.3
	c-1.3-10.3-2.4-18.3-3.4-23.8v-1.1l0.2-1.1c-0.6-3.6-1-5.4-1.1-5.5c-0.5-2.5-1.6-5-3.2-7.4c-0.3-0.8-2.1-1.6-5.5-2.3l-3.6,0.4
	c0-0.1-0.1-0.2-0.4-0.2c-1.9,0.4-3.9,1-6,1.7c0-0.2-0.3-0.3-0.9-0.4c-2.3,0.1-4.5,0.4-6.6,0.9l-0.6-0.6c-0.1,0-0.7,0.1-1.7,0.2
	c-0.7,0-1.4-0.1-1.9-0.4c0,0.1-0.1,0.2-0.2,0.2h-1.5l-1.5,0.2c0-0.2-0.3-0.3-0.9-0.4c0-0.7-1.8-1.2-5.3-1.5
	c-1.7,0.1-2.6,0.4-2.6,0.6c-1.6,0-2.9,1.2-3.8,3.6c0,1.1,0.4,2.3,1.3,3.6c0,0.5,1.1,1.3,3.4,2.6c0-0.2,0.4-0.4,1.1-0.4h0.6
	c1.7,0.7,2.9,1.4,3.6,1.9c0,0.4-0.1,1.3-0.4,2.8c0.1,0,0.2,0.1,0.2,0.2c0,0.4-0.1,1-0.4,1.7c0.1,0,0.2,0.1,0.2,0.2v1.5
	c0,1.2-0.1,3.3-0.4,6.4l0.2,1.5c-0.1,0-0.3,0.2-0.4,0.6c0,0.1,0.1,0.4,0.2,0.6c-0.1,5.5-0.4,8.7-0.9,9.6h0.2
	c-1,9.5-1.5,14.7-1.5,15.7c0.1,0.7,0.2,1.2,0.2,1.3l-0.4,0.2c0,0.1,0.1,0.4,0.2,0.6c-0.1,1-0.2,1.7-0.2,2.3c0,0.6,0.1,1.1,0.2,1.7
	l-0.4,4.5l0.2,1.1l-0.2,0.9l0.2,1.5c0,0.3-0.1,1.1-0.2,2.3l0.2,1.9l-0.4,0.9c0,0.4,0.1,0.8,0.4,1.3c-0.4,1.7-0.6,5-0.6,9.8l-0.2,1.5
	c0.1,0,0.2,0.1,0.2,0.2c-0.2,0-0.4,0.5-0.4,1.5v0.6c0,0.4,0.1,0.8,0.4,1.3c-0.4,1-0.6,1.7-0.6,1.9v4.9l-0.2,0.4h0.2
	c0,0.6-0.1,1.6-0.2,2.8c0,0.4,0.1,0.9,0.2,1.5c-0.1,1.2-0.2,2.3-0.2,3.2v1.7c0,0.4,0.2,1,0.6,1.7c0,0.1-0.1,0.7-0.4,1.7v0.2l0.6,3
	l-0.6,0.9v1.7l0.2,0.4h-0.2l0.2,0.4v1.9c0,0.5-0.1,1.1-0.2,1.9c0.1,0.2,0.2,0.5,0.2,0.9c0,0.5-0.1,0.8-0.2,1.1
	c0.1,0.8,0.2,1.4,0.2,1.9v2.8c0,0.6,0.1,1.4,0.2,2.3c-0.2,1.2-0.4,4.5-0.6,10c0.1,0,0.2,0.1,0.2,0.4c-0.2,1.1-0.4,1.7-0.6,1.7
	c-1.4,3.9-3.2,6.3-5.5,7.2c-2.6,2.6-3.8,4.7-3.8,6.4l2.3,1.3h1.1c2.9-0.5,4.7-1.1,5.5-1.7c0.2,0.1,0.5,0.2,0.9,0.2
	c3.7-1.6,7.8-2.8,12.6-3.8h1.3l1.5,0.2c0-0.1,0.1-0.2,0.2-0.2l1.1,0.2l0.9-0.2c0.1,0,0.4,0.1,0.6,0.2c2.6-0.5,3.8-1.5,3.8-3
	c0-0.5-0.1-1.1-0.2-1.9c-1.8-1.8-2.8-4-2.8-6.4l0.2-2.1c-0.4-3.9-0.6-5.9-0.6-6.2c0.1-1.3,0.2-2.7,0.2-4v-4.9l0.2-1.1
	c-0.2,0-0.3-0.4-0.4-1.3l0.4-3c-0.2-1.1-0.5-2.7-0.6-4.9l0.2-0.4c-0.1-1-0.2-1.7-0.2-2.3v-4.3c0-0.8-0.1-1.8-0.2-3
	c0.1-0.6,0.4-3.3,0.9-8.1l-0.2-1.5c0.1-0.5,0.2-1.2,0.2-1.9v-0.9l0.2-0.4c-0.1,0-0.2-0.1-0.2-0.2v-0.4c0-1.3,0.1-2.7,0.2-4
	c-0.1-0.8-0.2-1.3-0.2-1.7l0.2-1.1c-0.1-0.7-0.2-1.5-0.2-2.1v-0.9l0.2-1.1c-0.1,0-0.2-0.1-0.2-0.2c0.4-2.2,0.6-4,0.6-5.3
	c0.7-3.7,1.3-8.4,1.9-14.3v-1.5c0.3-1,0.4-1.6,0.4-1.7v-1.5c0-0.6-0.1-1.4-0.2-2.3l0.4-1.7c-0.1,0-0.2-0.1-0.2-0.2
	c0.3-1.8,0.6-3.2,1.1-4.3c-0.2,0-0.3-0.5-0.4-1.5c0.1-0.5,0.2-0.8,0.2-0.9c-0.1-0.8-0.2-1.3-0.2-1.7c0-0.1,0.1-0.4,0.2-0.6
	c-0.1,0-0.2-0.1-0.2-0.2v-0.2l0.2-1.1c-0.2,0-0.4-0.4-0.4-1.1c0-0.3,0.1-0.6,0.2-0.9c-0.3-0.7-0.4-1.2-0.4-1.5l0.4-2.8l-0.2-1.3
	c0-0.9,0.1-1.3,0.4-1.3c0.1-3.9,1.2-8,3.2-12.3c2.4-5.2,4.9-7.9,7.4-7.9c0.4,0.4,0.6,0.9,0.9,1.7c0,0.1-0.1,0.4-0.2,0.9
	c0,0.7,0.2,1.1,0.4,1.1c0.5,4.5,0.9,7.2,1.3,8.1c0,0.1-0.1,0.4-0.2,0.9l0.2,0.4c1.1,8,1.9,12.7,2.3,14v1.3l-0.2,0.4
	c0.2,1,0.4,1.7,0.6,2.1c0,0.1-0.1,0.4-0.2,0.9c0,0.3,0.1,0.4,0.2,0.4l1.3,9.6l-0.2,1.3c0.3,1,0.5,2.3,0.6,4l-0.2,1.1
	c0.3,1.3,0.5,2.9,0.6,4.7c-0.1,0-0.2,0.1-0.2,0.2c0.1,0,0.2,0.1,0.2,0.2v2.8c0,0.4,0.1,0.8,0.4,1.3l-0.2,1.5
	c0,6.4,1.1,14.9,3.4,25.5c0,0.1-0.1,0.4-0.2,0.6h0.2c0.9,10.8,1.8,18.1,2.8,21.9c0.7,2,1.3,4,1.7,6.2c2.3,7.6,3.4,11.7,3.4,12.1
	c-0.1,0.3-0.2,0.5-0.2,0.6c1.1,2.2,1.7,4.3,1.7,6.4c0,0.2,1,0.9,3,2.1h1.5c1.3,0,2.3-1.3,3.2-3.8c0-0.3-0.1-1.1-0.2-2.3
	c1.3-3.9,2.5-7.9,3.6-12.1c0.1-3.8,1.5-9.5,4.3-17.2c3.3-7.8,4.9-13.3,4.9-16.6v-0.2l-0.2-1.1l0.6-0.4c0-1.3,0.5-3,1.5-5.1
	c0.7-6,1.4-9.1,1.9-9.6c0.4-2.9,1-5.5,1.7-7.7l-0.2-1.3v-1.3c0-0.1,0.1-0.2,0.2-0.2c1-4.3,2.2-8,3.4-11.3l6.2-20
	c1.4-3.1,2.4-5.8,3.2-8.1c4.3-10.1,7.2-15.4,8.7-15.7h0.4c0.9,5.8,1.9,11.4,3.2,16.8c0,0.6-0.1,1.2-0.4,1.7c0.2,0,0.5,1.2,0.6,3.6
	l-0.2,1.1l0.4,1.3c-0.1,0.8-0.2,1.4-0.2,1.9v0.4c0,0.3,0.1,0.6,0.2,0.9c-0.1,0.2-0.2,0.5-0.2,0.9v5.7c0,0.6,0.1,0.9,0.2,0.9
	c1.3,16.4,2.2,25,2.6,25.7h-0.2l0.4,13l-0.4,3.4l0.2,1.1c0,0.6-0.1,0.9-0.2,0.9c-0.5,4.6-0.9,7.7-1.3,9.4l0.2,1.1
	c-0.3,2.5-0.6,7.3-0.9,14.3c0.1,0,0.2,0.1,0.2,0.4c-0.1,0.7-0.2,1.5-0.2,2.1v0.4l0.2,1.1c-0.1,0-0.3,0.2-0.4,0.6l0.2,1.5l-1.3,10.9
	c0.2,0,0.4,0.6,0.6,1.9c-0.3,2.3-0.9,4.2-1.7,5.7c-2.6,1.7-3.8,2.9-3.8,3.6c0.4,2.3,0.9,3.4,1.5,3.4c0.7,1.7,2.2,2.6,4.5,2.6h0.6
	c0.4,0.2,0.6,0.4,0.6,0.6c0.3,0,0.4-0.1,0.4-0.2c3.7-0.7,5.5-1.2,5.5-1.7c4.7-1.7,7-3.7,7-6C770.3,1137.3,769.9,1136.8,769.2,1136.2
	z M895.2,1145.6c-0.4,2.3-0.9,3.4-1.3,3.4c-0.3,0-0.4,0.1-0.4,0.2l-1.1-0.2h-0.6c-0.3,0.3-1.3,0.6-3,1.1c-2.9-0.6-4.5-0.9-4.7-0.9
	c-2.9,0.6-5.2,1.9-6.8,3.8l-1.5-0.2h-0.4c-0.3,0-0.6,0.1-0.9,0.2c-3-1.1-4.5-2.5-4.5-4l-2.3-6.4c0.3-0.3,0.6-1.7,0.9-4.3
	c-0.4-2.7-0.9-4-1.5-4l0.2-1.1l-1.7-9.4c-0.5-1-1-3.7-1.5-7.9c-1.8-6.7-3.2-12.9-4-18.5c-0.7-4.5-1.5-6.8-2.3-6.8
	c-1.9-0.6-3-0.9-3.4-0.9l-0.4,0.2c-0.1,0-0.4-0.1-0.6-0.2c-0.8,0.1-1.4,0.2-1.9,0.2h-1.1c-0.6-0.4-1.3-0.6-1.9-0.6
	c-1.5,0.1-2.3,0.3-2.6,0.4c-1.7-0.3-3.2-0.4-4.5-0.4c-0.2,0-1.5,0.1-3.8,0.2c-0.3,0-0.8-0.1-1.5-0.4c-0.8,0.1-1.4,0.2-1.9,0.2h-1.3
	c-0.6,0.1-2.8,5-6.6,14.7c0,0.4-0.4,3.1-1.1,7.9c0,1.6-0.5,3.5-1.5,5.5c0,0.3-0.5,1.6-1.5,4c0,0.1,0.1,0.5,0.2,1.3l-1.7,6.4v0.6
	c0,0.6,0.1,1.4,0.2,2.3c-1,2.9-1.5,4.5-1.5,4.7v0.2c0,1.7,1.8,3.1,5.5,4c1,1.3,1.7,1.9,2.1,1.9v0.6c0,2-3.1,3.3-9.4,4
	c0,0.2-0.8,0.3-2.3,0.4l-6.4-1.1c-0.1,0-0.4,0.1-0.6,0.2c-0.6-0.1-0.9-0.2-0.9-0.4c-1.5,0.2-2.4,0.3-2.8,0.4
	c-0.2-0.1-0.5-0.2-0.9-0.2c-4,0.6-6.5,0.9-7.4,0.9h-0.9c-0.7,1-2.2,1.6-4.5,1.9H791c-1-0.5-2.9-0.9-5.5-1.1
	c-0.2,0.1-0.6,0.2-1.1,0.2l-0.9-0.4l-1.5,0.2l-1.5-0.2c-0.5,0.1-1.1,0.2-1.7,0.2c-1.3-0.3-1.9-1.1-1.9-2.3c0.7-2.1,1.8-3.2,3.4-3.2
	l1.7-0.9c1.5,0.3,2.5,0.4,3,0.4l1.5-4.7v-2.8c0.6-3.4,2.3-9.4,5.3-18.1c3.8-10.1,5.7-16.3,5.7-18.7c1.1-4.3,1.7-6.8,1.7-7.4
	c0.7-0.7,1.1-1.5,1.1-2.6c0-0.5-1-0.8-3-1.1c0-0.1-0.1-0.2-0.2-0.2h-1.5c-0.5,0-1.6-0.6-3.2-1.7c0-0.5-0.6-0.9-1.7-1.3
	c0-0.4-0.3-0.9-0.9-1.5c0-1.5,1.6-2.5,4.7-3l1.1,0.2l1.5-0.2c1.4,0.2,2.1,0.4,2.1,0.6c0.4-0.1,0.6-0.3,0.6-0.4l1.1,0.2h0.9
	c1.2-1.1,2-2.3,2.3-3.6v-0.2c0-0.1-0.1-0.2-0.2-0.2c3.1-6.3,4.9-10.9,5.5-13.8c1.8-3.8,3.8-9.6,5.7-17.2c0.2-0.2,0.9-2,1.9-5.5
	c2.7-7.3,4.6-13,5.7-17.2c1.7-5.2,2.6-9.6,2.6-13.2v-0.2c0-1.4-1.1-2.3-3.2-2.6c0-0.7-0.7-1.9-2.1-3.4c-0.7-1.3-1.5-2-2.1-2.1
	c0-0.1,0.1-0.7,0.2-1.7c-0.4-0.1-0.6-0.6-0.6-1.3v-0.2c0-0.6,1.6-1.5,4.9-2.6l4.3,1.3c0.3-0.1,0.5-0.2,0.6-0.2
	c0.6,1.4,1.9,2.1,3.8,2.1c3.8-0.1,5.7-0.3,5.7-0.6l0.4,0.2h1.1l1.3-0.2c0.5,0.3,0.9,0.4,1.3,0.4v-0.2l0.4,0.2h1.9
	c1.7,0.1,2.5,0.3,2.6,0.6c0.9-0.6,1.6-0.9,1.9-0.9l1.5,0.9h1.1c3.4,0.7,6.1,1.1,8.1,1.1c0.3-0.4,2.4-0.9,6.4-1.5c3,0.6,5,1.6,6,3
	l1.1,1.7c-0.2,2.4-1,3.6-2.3,3.6c-0.4,0.3-0.6,0.4-0.9,0.4l-1.1-0.2c-0.1,0-0.4,0.1-0.6,0.2c-4.3-0.2-6.4-0.4-6.4-0.6
	c-2,0-3,0.5-3,1.5c0,0.5-0.3,1.6-0.9,3.2c0.6,5.1,1.4,11.2,2.6,18.3c-0.1,0.2-0.2,0.5-0.2,0.9v0.2c0,0.4,0.1,0.8,0.4,1.3l-0.2,1.1
	c0.3,0.5,0.4,1.1,0.4,1.7v2.3c0.6,1.4,0.9,2.2,0.9,2.3v2.8l-0.2,1.5c0.2,0,0.5,1.1,0.9,3.2c0,0.1-0.1,0.4-0.2,0.9
	c0,0.5,0.1,1.6,0.4,3.2c-0.1,0.8-0.2,1.6-0.2,2.3c0.1,1.6,0.4,2.3,0.9,2.3c-0.1,0.8-0.2,1.3-0.2,1.7l1.1,4l-0.2,1.5
	c0.6,3.8,0.9,5.9,0.9,6.4c-0.1,0.2-0.2,0.6-0.2,1.1h0.2l-0.2,0.4v0.2c0,0.5,0.4,1.4,1.1,2.8l-0.2,0.4l1.3,10.2l-0.2,0.4l1.5,8.9
	l-0.2,1.1c1,2.5,1.5,4.1,1.5,4.7l-0.2,1.3c0.9,3.5,1.3,6.4,1.5,8.7c1.3,3.2,2.3,6.3,3,9.6c0.2,0.2,0.7,1.7,1.5,4.7
	c-0.1,0.2-0.2,0.5-0.2,0.9c1.8,4.9,2.8,8.4,2.8,10.4c3.1,3.5,4.7,5.6,4.7,6.4l-0.2,1.3c0,0.5,0.7,1,2.1,1.3c0-0.2,0.2-0.4,0.6-0.6
	h1.5c1,0,1.8,0.1,2.3,0.4l1.1-0.2l1.1,0.2c0.4-0.2,1.5-0.5,3.4-0.6C893.4,1142.8,894.2,1143.7,895.2,1145.6z M857.3,1079.8l-1.1-7
	c0-0.7,0.1-1.8,0.2-3.2c-0.4-0.1-0.6-0.6-0.6-1.3v-2.1c-0.2,0-0.6-2.5-1.1-7.4c-0.5-0.8-0.9-4-1.1-9.8h-0.2c0.1-0.3,0.2-0.5,0.2-0.6
	c0-0.5-0.1-1.1-0.2-1.9l0.2-1.5c-1-10.2-1.5-16.5-1.5-18.9l-0.4-0.2c-0.5,0-1,1.2-1.3,3.6c-0.6,1.6-1.2,2.8-1.9,3.6v0.9
	c0,0.1,0.1,0.2,0.2,0.2c-3.3,8.1-4.9,13.4-4.9,15.7c-0.3,0-0.7,1.6-1.3,4.7c-2.4,7.7-3.6,11.7-3.6,11.9c-0.8,1.5-1.7,3.9-2.6,7
	l-1.5,4.5c-0.6,2-0.9,3.2-0.9,3.6l1.3,1.1h0.2c0.4,0,0.6-0.1,0.6-0.2l1.1,0.2c1.2-0.1,2-0.2,2.3-0.2c0,0.3,0.2,0.4,0.6,0.4
	c0.7-0.4,1.1-0.6,1.3-0.6l1.5,0.2c0.1,0,0.4-0.1,0.6-0.2c0.8,0.1,1.4,0.2,1.9,0.2c2.6-0.3,3.8-0.7,3.8-1.3c2.5,0.6,4.3,0.9,5.3,0.9
	c0-0.1,0.7-0.4,2.1-0.9C857.2,1080.7,857.3,1080.2,857.3,1079.8z M978.1,1007.7v2.3c-1.3,3.3-2.2,6.2-2.6,8.5
	c-1.2,2.2-2.6,4.1-4.3,6c-0.7,2.8-2.1,4.3-4,4.3h-0.6c-2.1,0-3.6-0.8-4.5-2.3c-3-1.7-4.5-3.5-4.5-5.3v-0.6c0-1.7,0.9-2.6,2.6-2.6
	h0.9c0.7,0,1.4,0.4,2.1,1.1c1.6,0,3.1-2.2,4.7-6.6c0-1,0.4-3.3,1.1-7c-1.2-7.7-2.2-11.5-2.8-11.5c0-0.2-0.2-0.4-0.6-0.6h-0.2
	l-2.1,0.2v-0.2c-3.2,0.7-5.4,1.5-6.6,2.6c-3.3,2.1-6.2,5.1-8.7,9.1c-4.1,6-6.2,9.7-6.2,11.3l-1.7,4.5l0.2,1.1c-0.4,0-1,1.7-1.7,5.1
	c-0.1,0-0.2,0.1-0.2,0.4c0.1,0.3,0.2,0.5,0.2,0.6c-0.4,0-0.6,0.3-0.6,0.9c0,0.1,0.1,0.4,0.2,0.6l-1.5,11.3c0,0.1,0.1,0.2,0.2,0.2
	l-0.2,2.1v2.6c0,1.8,0.1,3.7,0.4,5.5l-0.2,1.1c0.5,5.5,0.9,8.7,1.3,9.8v2.3c1.5,6.1,2.7,9.7,3.6,10.9c0,0.6,1.4,3.8,4.3,9.6
	c0,1.4,1,3.4,3,6.2c2,2.6,3.5,5.4,4.5,8.5c3.1,5.5,4.7,9.6,4.7,12.3c0.3,0,0.4,0.2,0.4,0.4v0.9c0,0.6-0.1,1.4-0.2,2.3
	c0,0.1,0.1,0.2,0.2,0.2c-0.5,4.3-1,6.4-1.5,6.4v0.2c0,0.7,0.2,1.1,0.4,1.1c-0.4,4-0.7,6-1.1,6l0.2,1.5c-0.7,4.5-1.3,6.8-1.9,6.8
	c-2.3,6-5.5,9.7-9.6,11.3c0,0.4-3,1.4-8.9,3l-0.4-0.2h-0.6c-1.8,0.4-2.8,0.6-3,0.6h-1.5c-0.2,0.3-1.6,0.6-4,0.9
	c-3.7-0.7-7.6-2.8-11.7-6.4c-3.7-3.4-5.5-7.4-5.5-11.9c0.4,0,0.6-0.3,0.6-0.9c-1-3-1.5-4.9-1.5-5.5c0.1-1.8,0.2-2.7,0.2-2.8
	c0-0.2-0.1-0.8-0.4-1.7c0-1.5,1.5-2.6,4.5-3.2h1.9c0.5,0,1.1,0.1,1.9,0.2c0.1,0,0.2-0.1,0.2-0.2l1.1,0.2h1.1l0.6-0.4h0.2
	c0,1,1.1,1.6,3.2,1.9l1.9,2.1v0.2c0,1.3-1.3,2.6-3.8,3.8l-0.4,0.2l-1.1-0.2c-0.4,0.1-0.6,0.3-0.6,0.4l-0.4-0.2h-0.2
	c-1.6,0-2.3,1.6-2.3,4.7c-0.3,0-0.5,0.6-0.6,1.9v2.6c0,1,1,2.7,3,5.3c3.5,2.4,5.7,3.6,6.8,3.6c0.5-1.2,2.2-2.3,4.9-3.2
	c2.3-2.1,4-6.6,5.3-13.4c0.9-3.7,1.3-6.3,1.3-7.9c0-6.8-0.9-12.2-2.8-16.2c0-1.9-0.9-5-2.6-9.4c-1.1-2.5-2.1-4.8-2.8-6.8l-3.8-7.7
	c0-0.4-1.1-2.1-3.2-5.1c-2.3-3.7-4.5-10.5-6.8-20.4c0.1-0.3,0.2-0.5,0.2-0.6c-0.4-0.9-0.6-1.9-0.6-3v-1.5l-1.1-3.6l0.2-0.4
	c-0.1-1.2-0.3-1.9-0.4-2.1l0.2-0.4l-0.2-2.1l0.2-1.1c0-0.1-0.1-0.4-0.2-0.6c0.7-8.8,1.5-13.2,2.3-13.2c1.2-4.8,2.9-9.3,5.3-13.6
	c1.2-1.8,2.3-3.9,3.2-6.2c3.9-5.4,6.2-8.1,6.8-8.1c0.5-1.5,3.4-4.4,8.9-8.5c1.8-1.7,4.6-3.2,8.3-4.3c0.2-0.4,1.9-0.8,5.1-1.3v0.2
	l0.4-0.2c0.5,0,1.6,0.1,3.4,0.4c0.2-0.1,0.5-0.2,0.9-0.2l1.1,0.2l1.5-0.2c4.4,0.5,7.3,1.2,8.7,2.1c0.1,0.4,2,2.6,5.7,6.6
	c1.8,3,2.8,6,2.8,8.7C977.6,1003.9,977.8,1005.2,978.1,1007.7z M925.7,1072.8l0.2-0.4v-0.4c0-0.2-0.2-0.4-0.6-0.6h-0.4
	C925.1,1072.3,925.4,1072.8,925.7,1072.8z M926.4,1073.7c0-0.3-0.1-0.4-0.4-0.4h-0.2v0.4c0,0.2,0.2,0.4,0.6,0.6V1073.7z
	 M176.3,873.6C176.3,873.6,176.4,873.6,176.3,873.6C176.4,873.6,176.4,873.6,176.3,873.6C176.4,873.6,176.4,873.6,176.3,873.6
	C176.4,873.6,176.3,873.6,176.3,873.6z M153.3,889.2c-3.8,13.5-6,19.5-13.3,35.7c-2.9,6.4-2,1.6-6.9,14.4c-1.1,3.3-6,2.5-6-1
	c-0.1-6.9,0.5-13.3-0.1-17.8c-1.3-10.9,0.7-10.3,1.4-17.5c2.5-18.8,1-22.3,1.4-30c-15.8-1.2-12.5-4.4-26.4-6.3
	c-6.2-1.3-8.9-2.7-15.4-4.1c-0.6-0.1-14.2-4.5-15.3-4.8c-1.5-0.4-1.9-2.4-0.6-3.4c2.6-2.3,5.8-4,7.6-4.5c1.4-0.4,2.8-1,4.1-1.2
	c3.3-0.6,7.2-2,12.4-1.9c19,0.1,19.3,0.3,26.7-1.6c1.2-0.3,2-1,3.1-1.4c1-0.5,1.7-1.3,2.6-1.9c0.7-0.8,1.3-1.6,2-2.4
	c0.1-0.2,0.5-0.9,0.4-1.1c-0.2-3.3,0.6,3.9-0.6-9.7c-0.4-3.7-4.2-24.6-1.1-40c0.4-2.2,3.2-2.9,4.6-1.1c7.3,9.6,4.3,5.5,9.3,13.4
	c0.8,1.1,1.3,2.4,2,3.5c0.7,1.2,1.5,2.2,2.3,3.4c8.4,10.9,9.2,27.7,16.7,31.1c0.4,0.1,0.7,0.3,1.2,0.3c1.6,0.2,4.3-0.5,7-1
	c3.3-0.6,1.7-0.3,8.1-1.1c30.8-3.5,21.6-1.5,31.9-2.1c6.4-0.2,2.1-0.5,15.9-0.4c2,0,2.5,2.6,0.9,3.4c-8.3,4.2-22.9,13.5-26.1,15.8
	c-2.1,1.5-4.1,3.1-5.9,5.1c-4.2,4.7-16.1,8.6-20.7,14.1c0,0.1-0.1,0.1-0.1,0.1l-0.1,0.2c0,0,0,0,0,0.1c0,0,0,0,0,0
	c0,0.1-0.1,0.3-0.1,0.3c0,0,0.1-0.1,0.1-0.1c0,0,0-0.1,0-0.1c0,0,0,0,0,0c0,0.1,0,0.2,0,0.3c0.2,2,2.1,7.5,4,9.9
	c1.4,1.9,3.5,3.5,5.2,5.2c1.8,1.7,3.2,3.8,4.7,5.9c2.5,3.9,10.9,12.1,14.8,18.5c2,3.1-1.6,6.2-4.3,4.3c-5.9-4.2-17.4-10.9-20.7-12.5
	c-2.5-1.2-5.1-2.2-7.5-3.5C161.9,896,156.6,891.3,153.3,889.2z M149.6,870.3c3-0.1,4.3,1.5,6.4,3.5c1.7,1.6,2.7,3.7,3.7,6.1
	c0.6,1.1,1.1,2.3,1.9,3.3c4.2,5.2,9,8.6,14.7,12.7c3.6,2.6,4.5,3.6,8.2,5.8c-7.7-5.9-7.3-7.8-11-12.5c-2.4-3.3-10.4-9.4-8.1-18.9
	c1.6-5.9,7.9-9.9,13.2-12.7c2.8-1.5,10.2-4.9,14.1-5.9c5.9-1.5,9.2-3.9,14.1-6.5c2.6-1.4,5.8-2.8,12.7-6.1c-2.3,0.1-4.6,0.1-6.8,0.2
	c-4.7,0.2-10,1.4-15.7,1.5c-7.1,0.2-7,0.3-20.6,2.2c-4.2,0.6-7.3,2-11.4,1.8c-0.9,0-1.8-0.4-2.7-0.6c-7.5-3-10.3-12.6-12.9-19.6
	c-2.9-7.6-4.1-7.9-6.4-14.1c-0.9-2.4-2.1-4.8-3.6-7c-2.2-3.3-3.3-5.2-5.2-7.4c0.2,7.6,0.6,10.6,1.5,19c1.2,9.2,5.1,20,0.6,27.8
	c-1,1.2-1.9,2.5-3,3.7c-1.2,1-2.4,2.1-3.8,2.8c-1.4,0.6-2.7,1.5-4.2,1.9c-15.1,4.5-31.2,1.4-40.4,2.2c-1.3,0.1-2.4,0.5-3.6,0.8
	c-1.1,0.2-2.1,0.8-3.1,1.2c9,3.2,10.6,4.1,18.5,5.4c6.3,1,9.8,2.5,15.4,2.5c4.6,0,12.1-1.4,23.3,0.4c3.3,0.5,4.8,3.1,4.4,5.7
	c-0.7,4.3-2.2,1.3-2.8,18.7c-1.2,17.5-0.8,19.4-0.8,22.7c10.8-27.5,7.8-29.1,7.6-34.2C143.7,873.3,146.3,870.5,149.6,870.3z"/>
</svg>
