<?xml version="1.0" encoding="utf-8"?>
<!-- Generator: Adobe Illustrator 22.1.0, SVG Export Plug-In . SVG Version: 6.00 Build 0)  -->
<svg version="1.1" id="Layer_1" xmlns="http://www.w3.org/2000/svg" xmlns:xlink="http://www.w3.org/1999/xlink" x="0px" y="0px"
	 viewBox="0 0 1080 1296" style="enable-background:new 0 0 1080 1296;" xml:space="preserve">
<path d="M447.6,251.7h-52.5v-21.6h13.6V94.7h-13.6V73.1h52.5v21.6h-13.6v135.5h13.6V251.7z M476.9,92h15.2v138.2H478v21.6h53.5
	v-21.6h-14.1V92h15.2v46.5h18.8V73.1h-93.3v65.3h18.8V92z M582.1,129.8c4.5-7,6.8-16.2,6.8-27.4V73.1h-24.4v29.4h9.7
	c0,16.1-4,25.4-12,27.9v12.1C570.9,141,577.6,136.8,582.1,129.8z M630.4,164.6c9.2,11.7,15,19.3,17.2,22.8c2.3,3.5,4.2,7.9,5.8,13.2
	c1.6,5.3,2.4,10.2,2.4,14.7c0,5.3-1.2,9.5-3.5,12.7c-2.3,3.2-5.4,4.7-9.2,4.7c-4.9,0-8.4-1.9-10.4-5.8c-2-3.9-3-10.6-3-20.1v-16.5
	h-21.6v61.4h21.6v-5.6c5.4,5.7,11.8,8.5,19.1,8.5c9,0,16.6-4.1,22.6-12.2c6.1-8.1,9.1-18.4,9.1-30.8c0-19-8.4-38.9-25.2-59.8
	l-11.1-13.8c-5.1-6.3-8.7-12.2-10.8-17.5c-2.1-5.3-3.1-10.5-3.1-15.6c0-8.8,3.5-13.1,10.4-13.1c4.1,0,7.1,1.6,9,4.9
	c1.9,3.3,2.8,8.6,2.8,16.1v13.5h21.6V73.1h-21.6v5.3c-5.1-5.5-11.1-8.3-18-8.3c-8.2,0-15,3.7-20.2,11.1c-5.3,7.4-7.9,17-7.9,28.7
	c0,9.8,1.6,18.4,4.7,25.7C614.5,142.9,620.9,152.6,630.4,164.6z M185.5,296.9c-4.7,4-10.2,7.7-16.6,11.1c-2.9,1.8-6.2,3.3-9.9,4.6
	c-3.1,1.2-7,2.2-11.5,3.1c-4.5,0.9-9.6,1.3-15.3,1.3c-6.8,0-12.9-1.5-18.1-4.6c-5.3-3.1-8.6-7.6-10.1-13.6c-0.9-8.1,1.6-15.4,7.7-22
	c2.6-2.8,6.1-5.6,10.5-8.4c4.4-2.8,10-5.3,16.8-7.6c6.9-2.3,15.1-4.2,24.7-5.9c9.6-1.7,21-2.8,34.1-3.3c0.8-6.3,0.9-11.9,0.1-16.8
	c-0.8-4.9-2.2-8.5-4.2-10.7c-0.6-0.7-0.8-1.5-0.6-2.4c0.3-0.9,0.9-1.5,1.8-1.8c1.3-0.4,2.7-0.8,4.3-1.1s3.1-0.4,4.6-0.2
	c1.5,0.2,2.9,0.7,4.3,1.6c1.4,0.8,2.6,2.1,3.5,3.8c0.4,0.6,0.8,1.6,1.2,2.8c0.4,1.2,0.7,2.3,0.9,3.2c0.3,1.9,0.5,4.7,0.5,8.5
	s-0.5,8.2-1.6,13.2c2.7,0.1,6.1,0.4,10.2,1c4.1,0.5,8.4,1.3,13,2.4c4.6,1.1,9.1,2.5,13.7,4.4c4.6,1.9,8.7,4.2,12.4,7.1
	c3.7,2.9,6.7,6.4,9.1,10.4c2.4,4,3.6,8.8,3.7,14.3c0.1,6.3-1.2,11.9-3.9,16.9c-2.7,5-6.1,9.3-10.2,13.1c-4.1,3.7-8.8,6.9-13.9,9.4
	c-5.1,2.5-10.1,4.5-15,5.8c4.3,0.9,8.7,2.4,13.2,4.3c4.5,1.9,8.6,4.5,12.1,7.8c3.6,3.3,6.4,7.3,8.4,12.2c2,4.9,2.8,10.8,2.1,17.7
	c-0.7,7.7-2.5,14-5.4,19.1s-6.3,9.1-10.3,12.2c-4,3.1-8.4,5.4-13.1,6.8c-4.7,1.4-9.3,2.3-13.8,2.6c-4.5,0.3-8.6,0.3-12.4-0.2
	c-3.8-0.4-6.7-0.9-8.8-1.6c-4.4-1.2-8.3-2.9-11.8-5.4c-2.9-2.1-5.5-4.9-7.8-8.4c-2.3-3.5-3.1-8.1-2.6-13.8c0.3-4.1,1.2-7.5,2.8-10.2
	c1.5-2.7,3.3-5,5.4-6.7c2.1-1.7,4.3-3,6.7-3.9c2.4-0.9,4.6-1.5,6.7-2c-0.4-11.1-0.1-24.5,1.1-40.2c1.2-15.6,3.9-33.5,8.2-53.7
	c0.2-1.3,0.8-2.3,1.7-3.2c0.9-0.9,2-1.4,3.3-1.7c1.5-0.2,2.9-0.3,4.3-0.2c1.4,0.1,2.8,0.6,4.2,1.6c2.1,1.6,2.8,3.5,2.2,5.8
	c-0.8,3.7-2.1,10.4-3.8,20.1c-1.7,9.7-2.9,21.7-3.8,35.8c4.2-1,8.6-2.7,13.2-5c4.6-2.3,8.8-5.2,12.4-8.7c3.7-3.5,6.6-7.6,8.8-12.3
	s2.9-10,2.2-15.9c-0.5-4.1-1.8-7.7-3.7-10.8c-1.9-3.1-4.3-5.7-7.1-8c-2.8-2.2-5.9-4-9.2-5.5c-3.4-1.5-6.7-2.6-9.9-3.5
	c-3.3-0.9-6.3-1.5-9.2-2c-2.9-0.4-5.3-0.7-7.3-0.9c-1.3,4.1-3,8.3-5.1,12.8c-2.2,4.4-4.9,8.8-8.3,13.1
	C194.2,288.6,190.2,292.8,185.5,296.9z M231,345.3c-3.9-1.3-7.5-2.2-10.8-2.7c-0.1,3.7-0.2,7.4-0.2,11.3c0,3.8,0.1,7.7,0.3,11.7
	c2.5,0.5,4.9,1.4,7.2,2.6c2.3,1.2,4.5,2.8,6.5,4.6c1.6,1.6,2.7,3.5,3.4,5.9c0.7,2.4,0.1,4.5-1.7,6.5c-1.3,1.5-3,2.5-5.4,3
	c-1.5,0.2-2.4-0.4-2.8-1.7c-1.3-3.8-3.5-6.8-6.6-9.1c0.2,3.6,0.5,7.2,0.9,10.9c0.4,3.7,0.8,7.3,1.3,11c0.2,1.5-0.1,2.9-1,4.2
	c-0.9,1.3-2.1,2.2-3.5,2.6c-1.4,0.3-2.8,0.5-4.4,0.5s-3-0.4-4.3-1.1c-0.8-0.4-1.5-1-2-1.8c-0.5-0.8-0.9-1.6-1.1-2.4
	c-0.4-2.1-1-5.4-1.7-9.8c-0.7-4.4-1.2-10.1-1.7-17c-1.5,0.3-3,0.8-4.6,1.3c-1.6,0.6-3.1,1.4-4.6,2.4c-1.4,1-2.6,2.4-3.6,4
	c-1,1.6-1.7,3.6-2,5.9c-0.5,4-0.2,7.3,1.1,9.9c1.3,2.6,2.8,4.8,4.7,6.5c1.9,1.7,3.9,2.9,5.9,3.8c2,0.8,3.6,1.4,4.6,1.7
	c1.4,0.4,3.4,0.7,6.2,0.9c2.8,0.2,5.9,0.2,9.4-0.2s7-1.1,10.7-2.3c3.7-1.2,7.1-3.1,10.2-5.6c3.1-2.5,5.7-5.8,7.9-9.9
	c2.2-4.1,3.4-9.2,3.7-15.4c0.3-6.5-0.6-11.9-2.8-16.1c-2.2-4.3-4.9-7.7-8.3-10.3C238.6,348.5,235,346.5,231,345.3z M186.7,280.2
	c2.4-3.5,4.4-7,6-10.7c1.6-3.7,2.8-7.3,3.8-10.9c-12.2,0.5-22.7,1.5-31.6,2.8c-8.9,1.4-16.5,3-22.8,4.9c-6.3,1.9-11.5,4-15.5,6.4
	c-4,2.4-7.2,4.7-9.5,7c-5.6,5.6-7.8,11.7-6.6,18.4c0.6,2.7,1.9,4.9,3.8,6.6c1.9,1.7,4.1,3,6.8,3.9c2.6,0.9,5.5,1.4,8.7,1.5
	c3.1,0.1,6.3-0.1,9.4-0.6c4.9-0.7,9.7-2,14.4-3.8c4.7-1.8,9.1-4,13.1-6.5c4.1-2.6,7.8-5.5,11.3-8.7
	C181.4,287.4,184.3,283.9,186.7,280.2z M273.8,348.6c0.7-5,2-9.6,3.8-13.5c0.7-1.7,1.6-3.3,2.7-4.9c1-1.6,2.3-3,3.6-4.2
	c1.4-1.2,2.9-2.2,4.7-2.8c1.8-0.7,3.8-1,6-0.9c2.8,0.2,5,1.1,6.5,2.7c1.5,1.6,2.4,3.5,2.8,5.7s0.1,4.6-0.6,7.2
	c-0.7,2.6-1.8,5.1-3.4,7.4c-1.6,2.3-3.5,4.3-5.9,5.9c-2.4,1.6-5,2.5-7.8,2.8c0,1.7,0.1,3.7,0.4,6.1c0.3,2.4,0.8,4.6,1.6,6.7
	c0.8,2.1,1.9,3.8,3.5,5.1c1.5,1.3,3.6,1.8,6.2,1.3c1.3-0.2,2.6-1.3,4.2-3.4c1.1-1.4,2.1-3,3.1-4.8c0.3-2.7,1.3-5.9,2.8-9.5
	c2.2-5,5.5-9,9.8-11.9c4.4-2.9,8.8-4.6,13.4-5.1c4.6-0.5,8.7,0.1,12.4,1.8c3.7,1.7,6,4.6,6.9,8.7c1.4-2.2,2.7-4.6,3.9-7.2
	c1.3-2.6,2.5-5.4,3.6-8.4c0.4-1.5,0.8-2.9,1.2-4.3c0.4-1.4,0.8-2.7,1.2-3.9c0.2-0.7,0.7-1.3,1.3-1.8c0.7-0.5,1.4-0.6,2.3-0.4
	c1.4,0.2,2.9,0.6,4.6,1.2c1.7,0.6,3.2,1.6,4.5,2.9c1.3,1.4,1.6,2.8,1.1,4.3c-0.8,2.7-2.3,8.2-4.3,16.3c-2,8.1-4.1,19.3-6.1,33.5
	c-0.1,0.7-0.2,1.5-0.2,2.2c-0.1,0.7-0.2,1.5-0.4,2.4c1.7,0.1,3.8,0.3,6.4,0.6c2.6,0.3,5.1,0.9,7.7,1.8c2.6,0.9,5,2.1,7.2,3.7
	c2.3,1.6,3.9,3.6,4.8,6.1c0.1,0.5,0.3,1.1,0.5,1.7c0.2,0.5,0.4,1.1,0.5,1.8c0.1,0.7,0.2,1.4,0.2,2.1c0,1.6-0.4,3.1-1.3,4.5
	c-0.8,1.4-2.4,2.2-4.6,2.4c-1.3,0-2.4-0.2-3.5-0.6c-0.8-0.4-1.6-1-2.3-1.8c-0.7-0.8-0.9-2.1-0.7-3.9c0.1-1.4,0-2.8-0.3-4.4
	s-1.1-3-2.3-4.3c-1.2-1.3-2.9-2.4-5-3.3c-2.1-0.9-4.8-1.4-8.2-1.7c-1.1,6.8-2.5,14-4.3,21.7c-1.8,7.6-4.2,14.8-7.2,21.5
	c-3,6.7-6.9,12.5-11.4,17.4c-4.6,4.9-10.2,8-16.8,9.4c-2.1,0.4-4.3,0.6-6.5,0.6c-2.3-0.1-4.8-0.5-7.5-1.3c-3.5-1.3-6.4-3.2-8.7-5.8
	c-0.9-1.1-1.8-2.3-2.7-3.9c-0.8-1.5-1.5-3.3-2-5.3c-0.5-2-0.7-4.2-0.6-6.7c0.1-2.5,0.5-5.3,1.3-8.4c1.3-4.5,3.5-9.1,6.7-13.6
	c3.2-4.6,7.1-8.8,11.7-12.7c4.6-3.9,9.8-7.3,15.5-10.2c5.7-2.9,11.8-5,18.2-6.2c0.8-5.4,1.7-10.8,2.7-16.5c0.9-5.6,1.9-11.1,3-16.5
	c-2.4,4-5.3,8.2-8.5,12.5c-3.3,4.4-6.8,8.1-10.7,11.1c-3.4,2.5-6.9,4.3-10.5,5.2c-3.6,0.9-7.2,0.7-10.8-0.8
	c-2.6-1.4-4.7-3.3-6.1-5.7c-0.3-0.5-0.5-1-0.8-1.5c-0.9,1.2-1.8,2.3-2.8,3.3c-2.5,2.6-5.3,3.9-8.6,3.9c-4.6,0.1-8.7-1-12.1-3.3
	c-1.5-0.9-2.9-2.2-4.2-3.9c-1.3-1.6-2.4-3.6-3.4-6.1c-0.9-2.4-1.6-5.3-2-8.6S273.3,353.1,273.8,348.6z M347.3,392.7
	c-3.7,1-7.4,2.5-11.2,4.3c-3.8,1.8-7.5,4-11,6.5c-3.6,2.5-6.9,5.3-9.9,8.4c-3,3.1-5.7,6.5-7.9,10.2c-0.9,1.5-1.7,3-2.4,4.6
	c-0.6,1.4-1.2,2.9-1.7,4.6c-0.5,1.7-0.8,3.5-1,5.4c-0.2,2.7,0.1,5.4,0.8,7.9c0.7,2.5,2.5,4.4,5.2,5.5c4.1,1.8,8.1,1.7,11.9-0.2
	c3.8-1.9,7.3-4.8,10.5-8.7c3.1-3.9,5.9-8.5,8.1-13.5c2.3-5.1,3.9-9.8,4.8-14.3c0.5-2.8,1.1-6,1.8-9.5
	C346,400.4,346.7,396.7,347.3,392.7z M319.5,371.2c0.4,0.8,1,1.2,2,1.3c1,0.2,2.5,0.1,4.3-0.5c1.8-0.5,3.8-1.5,5.9-2.8
	c2.2-1.4,4.5-3.1,6.9-5.4c2.5-2.2,4.9-4.9,7.3-8c0-0.5-0.1-1.4-0.3-2.5c-0.2-1.2-0.6-2.3-1.3-3.5c-0.6-1.2-1.5-2.1-2.5-2.9
	c-1.1-0.8-2.5-1.1-4.3-1c-1.1,0.1-2.3,0.4-3.7,0.9c-1.4,0.5-2.9,1.4-4.5,2.5c-1.6,1.2-3.1,2.6-4.5,4.4c-1.4,1.8-2.7,4-3.7,6.6
	c-0.5,1.4-1,2.7-1.4,4.1c-0.4,1.4-0.7,2.6-0.7,3.8C319,369.4,319.2,370.4,319.5,371.2z M286.9,347.5c1.2-0.5,2.5-1.4,4-2.5
	c1.5-1.2,2.9-2.8,4.2-4.9c1-1.8,1.7-3.3,1.9-4.4c0.2-1.2,0.2-2.1,0-2.8c-0.2-0.7-0.5-1.2-0.9-1.5c-0.4-0.3-0.8-0.3-1.1-0.2
	c-0.2,0-0.6,0.1-1.2,0.4c-0.6,0.3-1.2,0.9-2,2c-0.7,1.1-1.5,2.7-2.4,4.9C288.4,340.6,287.6,343.6,286.9,347.5z M388.5,326
	c1.1,0.9,2.5,1.4,4.2,1.7c1.6,0.2,3,0.1,4.3-0.5c1.3-0.5,2-1.4,2.2-2.5c0.2-1-0.2-2-1.3-2.9c-1.1-0.9-2.4-1.4-4-1.7
	c-1.7-0.2-3.1-0.1-4.4,0.5c-1.3,0.5-2,1.3-2.2,2.4C386.9,324.1,387.4,325.1,388.5,326z M378.6,370.4c-0.7-4.8-0.6-10.5,0.2-17.1
	c0.8-6.6,2.3-13.8,4.5-21.6c0.3-1.7,1.3-2.4,3-2.2c1.5,0,3.2,0.2,5.3,0.6c2,0.4,3.9,1.2,5.6,2.4c0.6,0.5,1.1,1.2,1.4,2
	c0.3,0.8,0.4,1.6,0.2,2.4c-0.3,1.5-0.8,3.5-1.4,6c-0.6,2.5-1.2,5.3-1.8,8.2c-0.6,2.9-1.1,5.9-1.7,8.9c-0.5,3-0.9,5.7-1.1,8.2
	c-0.2,2.5-0.2,4.5,0.2,6.1c0.3,1.6,0.9,2.5,1.9,2.6c1.4,0.2,2.7-0.7,4.1-2.7c1.4-2,2.7-4.5,3.9-7.4c1.1-2.5,2.1-5.1,3-7.9
	c0.1-3.2,0.4-6.5,0.9-9.7c0.7-4.1,1.6-8,2.7-11.7c1-3.6,1.9-6.3,2.5-8.1c0.3-1.2,1.3-1.8,3-2c1.5,0,3.3,0.1,5.4,0.2
	c2.1,0.2,4,0.7,5.7,1.5c1.8,1.1,2.4,2.4,1.9,4.1c-0.4,1.2-0.9,2.7-1.5,4.6c-0.6,1.9-1.2,4-1.8,6.4c-0.6,2.4-1.2,4.9-1.8,7.5
	c-0.6,2.6-1,5.3-1.3,7.9c1.3-3.6,2.9-7.7,4.9-12.4c2-4.7,4.3-9.1,6.9-13.2c2.6-4.1,5.5-7.6,8.7-10.5c3.1-2.8,6.5-4.2,10.1-4.1
	c3,0.1,5.4,0.8,7.2,2.1c1.7,1.3,3,3,3.8,5c0.8,2,1.2,4.2,1.3,6.7c0.1,2.5,0,4.9-0.3,7.4c-0.3,2.5-0.7,4.9-1.3,7.2
	c-0.5,2.3-0.9,4.3-1.3,6c-2.1,6.7-3.7,12.8-4.9,18.3c-0.5,2.3-1,4.6-1.4,6.9c-0.4,2.3-0.7,4.3-0.9,6.2c-0.2,1.9-0.1,3.5,0.1,4.8
	c0.2,1.3,0.6,2.1,1.3,2.4c0.9,0.5,2.2,0.1,3.9-1.2c1.6-1.3,3.4-3.3,5.4-5.8c2-2.6,4-5.5,6.1-8.9c2-3.4,4-6.8,5.9-10.4
	c1.1-2,2.1-4.1,3-6.3c0-3.5,0.3-7,0.9-10.5c0.7-4.1,1.6-8,2.7-11.7c1-3.6,1.9-6.3,2.5-8.1c0.3-1.2,1.3-1.8,3-2
	c1.5,0,3.3,0.1,5.4,0.2c2.1,0.2,4,0.7,5.7,1.5c1.8,1.1,2.4,2.4,1.9,4.1c-0.4,1.2-0.9,2.7-1.5,4.6c-0.6,1.9-1.2,4-1.8,6.4
	c-0.6,2.4-1.2,4.9-1.8,7.5c-0.6,2.6-1,5.3-1.3,7.9c1.3-3.6,2.9-7.7,4.9-12.4c2-4.7,4.3-9.1,6.9-13.2c2.6-4.1,5.5-7.6,8.7-10.5
	c3.1-2.8,6.5-4.2,10.1-4.1c3,0.1,5.4,0.8,7.2,2.1c1.7,1.3,3,3,3.8,5c0.8,2,1.2,4.2,1.3,6.7c0.1,2.5,0,4.9-0.3,7.4
	c-0.3,2.5-0.7,4.9-1.3,7.2c-0.5,2.3-0.9,4.3-1.3,6c-2.1,6.7-3.7,12.8-4.9,18.3c-0.5,2.3-1,4.6-1.4,6.9c-0.4,2.3-0.7,4.3-0.9,6.2
	c-0.2,1.9-0.1,3.5,0.1,4.8c0.2,1.3,0.6,2.1,1.3,2.4c0.9,0.5,2.2,0.1,3.9-1.2c1.6-1.3,3.4-3.3,5.4-5.8c2-2.6,4-5.5,6.1-8.9
	c2-3.4,4-6.8,5.9-10.4c1.4-2.5,2.6-5.3,3.7-8.1c0.1-1.5,0.2-3,0.4-4.6c0.8-6.6,2.3-13.8,4.5-21.6c0.3-1.7,1.3-2.4,3-2.2
	c1.5,0,3.2,0.2,5.3,0.6c2,0.4,3.9,1.2,5.6,2.4c0.6,0.5,1.1,1.2,1.4,2c0.3,0.8,0.4,1.6,0.2,2.4c-0.3,1.5-0.8,3.5-1.4,6
	c-0.6,2.5-1.2,5.3-1.8,8.2c-0.6,2.9-1.1,5.9-1.7,8.9c-0.5,3-0.9,5.7-1.1,8.2c-0.2,2.5-0.2,4.5,0.2,6.1c0.3,1.6,0.9,2.5,1.9,2.6
	c1.4,0.2,2.7-0.7,4.1-2.7c1.4-2,2.7-4.5,3.9-7.4c1.1-2.5,2.1-5.1,3-7.9c0.1-3.2,0.4-6.5,0.9-9.7c0.7-4.1,1.6-8,2.7-11.7
	c1-3.6,1.9-6.3,2.5-8.1c0.3-1.2,1.3-1.8,3-2c1.5,0,3.3,0.1,5.4,0.2c2.1,0.2,4,0.7,5.7,1.5c1.8,1.1,2.4,2.4,1.9,4.1
	c-0.4,1.2-0.9,2.7-1.5,4.6c-0.6,1.9-1.2,4-1.8,6.4c-0.6,2.4-1.2,4.9-1.8,7.5c-0.6,2.6-1,5.3-1.3,7.9c1.3-3.6,2.9-7.7,4.9-12.4
	c2-4.7,4.3-9.1,6.9-13.2c2.6-4.1,5.5-7.6,8.7-10.5c3.1-2.8,6.5-4.2,10.1-4.1c3,0.1,5.4,0.8,7.2,2.1c1.7,1.3,3,3,3.8,5
	c0.8,2,1.2,4.2,1.3,6.7c0.1,2.5,0,4.9-0.3,7.4c-0.3,2.5-0.7,4.9-1.3,7.2c-0.5,2.3-0.9,4.3-1.3,6c-2.1,6.7-3.7,12.8-4.9,18.3
	c-0.5,2.3-1,4.6-1.4,6.9c-0.4,2.3-0.7,4.3-0.9,6.2c-0.2,1.9-0.1,3.5,0.1,4.8c0.2,1.3,0.6,2.1,1.3,2.4c0.9,0.5,2.2,0.1,3.9-1.2
	c1.6-1.3,3.4-3.3,5.4-5.8c2-2.6,4-5.5,6.1-8.9c1.2-2,2.4-4,3.6-6.1c-0.1-0.7-0.2-1.4-0.2-2.1c-0.3-3.4,0.7-7.6,2.9-12.8
	c2.2-5,5.5-9,9.8-11.9c4.4-2.9,8.8-4.6,13.4-5.1c4.6-0.5,8.7,0.1,12.4,1.8c3.7,1.7,6,4.6,6.9,8.7c1.4-2.2,2.7-4.6,3.9-7.2
	c1.3-2.6,2.5-5.4,3.6-8.4c0.4-1.5,0.8-2.9,1.2-4.3c0.4-1.4,0.8-2.7,1.2-3.9c0.2-0.7,0.7-1.3,1.3-1.8c0.7-0.5,1.4-0.6,2.3-0.4
	c1.4,0.2,2.9,0.6,4.6,1.2c1.7,0.6,3.2,1.6,4.5,2.9c1.3,1.4,1.6,2.8,1.1,4.3c-0.8,2.7-2.3,8.2-4.3,16.3c-2,8.1-4.1,19.3-6.1,33.5
	c-0.1,0.7-0.2,1.5-0.2,2.2c-0.1,0.7-0.2,1.5-0.4,2.4c1.7,0.1,3.8,0.3,6.4,0.6c2.6,0.3,5.1,0.9,7.7,1.8c2.6,0.9,5,2.1,7.2,3.7
	c2.3,1.6,3.9,3.6,4.8,6.1c0.1,0.5,0.3,1.1,0.5,1.7c0.2,0.5,0.4,1.1,0.5,1.8c0.1,0.7,0.2,1.4,0.2,2.1c0,1.6-0.4,3.1-1.3,4.5
	c-0.8,1.4-2.4,2.2-4.6,2.4c-1.3,0-2.4-0.2-3.5-0.6c-0.8-0.4-1.6-1-2.3-1.8c-0.7-0.8-0.9-2.1-0.7-3.9c0.1-1.4,0-2.8-0.3-4.4
	c-0.3-1.6-1.1-3-2.3-4.3c-1.2-1.3-2.9-2.4-5-3.3c-2.1-0.9-4.8-1.4-8.2-1.7c-1.1,6.8-2.5,14-4.3,21.7c-1.8,7.6-4.2,14.8-7.2,21.5
	c-3,6.7-6.9,12.5-11.4,17.4c-4.6,4.9-10.2,8-16.8,9.4c-2.1,0.4-4.3,0.6-6.5,0.6c-2.3-0.1-4.8-0.5-7.5-1.3c-3.5-1.3-6.4-3.2-8.7-5.8
	c-0.9-1.1-1.8-2.3-2.7-3.9c-0.8-1.5-1.5-3.3-2-5.3c-0.5-2-0.7-4.2-0.6-6.7c0.1-2.5,0.5-5.3,1.3-8.4c1.3-4.5,3.5-9.1,6.7-13.6
	c3.2-4.6,7.1-8.8,11.7-12.7c4.6-3.9,9.8-7.3,15.5-10.2c5.7-2.9,11.8-5,18.2-6.2c0.8-5.4,1.7-10.8,2.7-16.5c0.9-5.6,1.9-11.1,3-16.5
	c-2.4,4-5.3,8.2-8.5,12.5c-3.3,4.4-6.8,8.1-10.7,11.1c-3.4,2.5-6.8,4.3-10.5,5.2c-3.6,0.9-7.2,0.7-10.8-0.8
	c-2.3-1.2-4.1-2.8-5.5-4.7c-2,3.6-4,6.8-6.2,9.8c-1.5,2-3,3.9-4.6,5.7c-1.6,1.8-3.3,3.4-5,4.7c-1.7,1.3-3.5,2.3-5.3,3
	c-1.8,0.7-3.6,0.9-5.4,0.6c-3-0.5-5.3-2.3-6.8-5.3c-1.5-3-2.4-6.4-2.9-10.1c-0.5-3.7-0.6-7.5-0.4-11.2c0.2-3.7,0.5-6.6,0.8-8.6
	c0.8-4.6,1.9-9.1,3.1-13.4c1.2-4.3,2.3-8.2,3.4-11.7c1-3.5,1.8-6.4,2.2-8.7c0.4-2.3,0.3-3.8-0.5-4.6c-0.6-0.5-1.3-0.6-2.1-0.2
	c-0.8,0.4-1.6,0.8-2.4,1.3c-0.9,0.6-1.8,1.5-2.7,2.5c-2.2,2.6-4.3,5.7-6.4,9.4c-2,3.6-3.9,7.3-5.5,11.1c-1.6,3.8-3.1,7.4-4.3,10.9
	s-2.3,6.4-3,8.7c-0.1,0.2-0.3,0.6-0.6,1.1c-0.3,0.5-0.7,1.1-1.3,1.6c-0.5,0.5-1.2,1-2.1,1.3c-0.9,0.4-2,0.6-3.2,0.6
	c-2.1,0-3.7-0.4-4.8-1.3c-1.1-0.9-1.9-1.7-2.4-2.3c-0.5-0.9-1-1.8-1.4-2.8c-0.3,0.8-0.7,1.6-1.1,2.4c-1.2,2.6-2.6,4.9-4.1,7
	c-1.5,2.1-3.2,3.8-5,5.1c-1.8,1.3-3.8,1.9-5.9,1.8c-3.5-0.1-6.2-1.5-8.3-4.3c-2.1-2.7-3.5-6.5-4.2-11.3c0,0,0,0,0-0.1
	c-0.1,0.3-0.3,0.5-0.4,0.8c-2.9,6.1-6.1,11.4-9.4,16.1c-1.5,2-3,3.9-4.6,5.7c-1.6,1.8-3.3,3.4-5,4.7c-1.7,1.3-3.5,2.3-5.3,3
	c-1.8,0.7-3.6,0.9-5.4,0.6c-3-0.5-5.3-2.3-6.8-5.3c-1.5-3-2.4-6.4-2.9-10.1c-0.5-3.7-0.6-7.5-0.4-11.2c0.2-3.7,0.5-6.6,0.8-8.6
	c0.8-4.6,1.9-9.1,3.1-13.4c1.2-4.3,2.3-8.2,3.4-11.7c1-3.5,1.8-6.4,2.2-8.7c0.4-2.3,0.3-3.8-0.5-4.6c-0.6-0.5-1.3-0.6-2.1-0.2
	c-0.8,0.4-1.6,0.8-2.4,1.3c-0.9,0.6-1.8,1.5-2.7,2.5c-2.2,2.6-4.3,5.7-6.4,9.4c-2,3.6-3.9,7.3-5.5,11.1c-1.6,3.8-3.1,7.4-4.3,10.9
	s-2.3,6.4-3,8.7c-0.1,0.2-0.3,0.6-0.6,1.1c-0.3,0.5-0.7,1.1-1.3,1.6c-0.5,0.5-1.2,1-2.1,1.3c-0.9,0.4-2,0.6-3.2,0.6
	c-2.1,0-3.7-0.4-4.8-1.3c-1.1-0.9-1.9-1.7-2.4-2.3c-0.6-0.9-1-1.8-1.4-2.8c-0.3,0.5-0.5,1.1-0.8,1.6c-2.9,6.1-6.1,11.4-9.4,16.1
	c-1.5,2-3,3.9-4.6,5.7c-1.6,1.8-3.3,3.4-5,4.7c-1.7,1.3-3.5,2.3-5.3,3c-1.8,0.7-3.6,0.9-5.4,0.6c-3-0.5-5.3-2.3-6.8-5.3
	c-1.5-3-2.4-6.4-2.9-10.1c-0.5-3.7-0.6-7.5-0.4-11.2c0.2-3.7,0.5-6.6,0.8-8.6c0.8-4.6,1.9-9.1,3.1-13.4c1.2-4.3,2.3-8.2,3.4-11.7
	c1-3.5,1.8-6.4,2.2-8.7c0.4-2.3,0.3-3.8-0.5-4.6c-0.6-0.5-1.3-0.6-2.1-0.2c-0.8,0.4-1.6,0.8-2.4,1.3c-0.9,0.6-1.8,1.5-2.7,2.5
	c-2.2,2.6-4.3,5.7-6.4,9.4c-2,3.6-3.9,7.3-5.5,11.1c-1.6,3.8-3.1,7.4-4.3,10.9s-2.3,6.4-3,8.7c-0.1,0.2-0.3,0.6-0.6,1.1
	c-0.3,0.5-0.7,1.1-1.3,1.6c-0.5,0.5-1.2,1-2.1,1.3c-0.9,0.4-2,0.6-3.2,0.6c-2.1,0-3.7-0.4-4.8-1.3c-1.1-0.9-1.9-1.7-2.4-2.3
	c-0.5-0.9-1-1.8-1.4-2.8c-0.3,0.8-0.7,1.6-1.1,2.4c-1.2,2.6-2.6,4.9-4.1,7c-1.5,2.1-3.2,3.8-5,5.1c-1.8,1.3-3.8,1.9-5.9,1.8
	c-3.5-0.1-6.2-1.5-8.3-4.3C380.6,378.9,379.3,375.2,378.6,370.4z M692.6,392.7c-3.7,1-7.4,2.5-11.2,4.3c-3.8,1.8-7.5,4-11,6.5
	c-3.6,2.5-6.9,5.3-9.9,8.4c-3,3.1-5.7,6.5-7.9,10.2c-0.9,1.5-1.7,3-2.4,4.6c-0.6,1.4-1.2,2.9-1.7,4.6c-0.5,1.7-0.8,3.5-1,5.4
	c-0.2,2.7,0.1,5.4,0.8,7.9c0.7,2.5,2.5,4.4,5.2,5.5c4.1,1.8,8.1,1.7,11.9-0.2c3.8-1.9,7.3-4.8,10.5-8.7c3.1-3.9,5.9-8.5,8.1-13.5
	c2.3-5.1,3.9-9.8,4.8-14.3c0.5-2.8,1.1-6,1.8-9.5C691.4,400.4,692,396.7,692.6,392.7z M664.8,371.2c0.4,0.8,1,1.2,2,1.3
	c1,0.2,2.5,0.1,4.3-0.5c1.8-0.5,3.8-1.5,5.9-2.8c2.2-1.4,4.5-3.1,6.9-5.4s4.9-4.9,7.3-8c0-0.5-0.1-1.4-0.3-2.5
	c-0.2-1.2-0.6-2.3-1.3-3.5c-0.6-1.2-1.5-2.1-2.5-2.9c-1.1-0.8-2.5-1.1-4.3-1c-1.1,0.1-2.3,0.4-3.7,0.9c-1.4,0.5-2.9,1.4-4.5,2.5
	c-1.6,1.2-3.1,2.6-4.5,4.4c-1.4,1.8-2.7,4-3.7,6.6c-0.5,1.4-1,2.7-1.4,4.1c-0.4,1.4-0.7,2.6-0.7,3.8
	C664.3,369.4,664.5,370.4,664.8,371.2z M570,320.1c-1.7-0.2-3.2-0.1-4.4,0.5c-1.3,0.5-2,1.3-2.2,2.4c-0.2,1.2,0.2,2.2,1.3,3.1
	c1.1,0.9,2.5,1.4,4.2,1.7c1.6,0.2,3,0.1,4.3-0.5c1.3-0.5,2-1.4,2.2-2.5c0.2-1-0.2-2-1.3-2.9C572.9,320.8,571.6,320.3,570,320.1z
	 M761,298.2c-1.1-5.5-0.5-10.7,1.6-15.7c0.8-2.1,2.1-4.3,3.8-6.5c1.7-2.3,3.9-4.5,6.5-6.6c2.7-2.2,6-4.2,9.9-6.1
	c3.9-1.9,8.6-3.7,14.1-5.1c3.8-1.2,8.5-2.3,14.2-3.2c4.7-0.9,10.7-1.6,18-2.3c7.2-0.7,15.8-1.2,25.7-1.4c0.9-6.3,1-11.9,0.2-16.8
	c-0.8-4.9-2.2-8.5-4.2-10.7c-0.6-0.7-0.8-1.5-0.6-2.4c0.3-0.9,0.8-1.5,1.7-2c1.4-0.4,2.8-0.8,4.3-1.1c1.5-0.3,3-0.3,4.6-0.1
	c1.5,0.3,3,0.8,4.4,1.7c1.4,0.8,2.6,2.1,3.5,3.8c0.4,0.6,0.8,1.6,1.2,2.8c0.4,1.2,0.7,2.3,0.9,3.2c0.2,1.8,0.3,4.6,0.3,8.3
	s-0.5,8.2-1.6,13.2c4.2,0.1,8.5,0.2,13,0.4c4.5,0.2,9.2,0.4,14.1,0.7c13.5,0.9,25,1.4,34.3,1.5c9.3,0.2,17.2-0.3,23.5-1.4
	c6.3-1.1,11.3-3,15-5.8c3.7-2.7,6.8-6.5,9.2-11.3c0.3-0.6,0.8-1,1.4-1.3c0.6-0.2,1.3-0.1,1.9,0.3c0.8,0.4,1.7,1.1,2.4,1.9
	c0.8,0.8,1.4,2,2,3.5c0.8,2.3,0.9,4.6,0.2,6.9c-0.7,2.3-2,4.2-3.9,5.7c-1.5,1.2-3.3,2.3-5.6,3.5c-2.3,1.1-5.1,2.1-8.4,3.1
	c-3.4,0.9-7.3,1.6-12,2.1c-4.6,0.5-10,0.6-16.1,0.4c-7.3-0.2-15.2-0.5-23.5-0.9c-8.3-0.4-16.7-0.8-25.1-1.1c0.2,0.3,0.4,0.7,0.6,1.1
	c0.3,0.6,0.4,1.6,0.2,3c-0.6,3.3-1.4,7.7-2.4,13.5c-0.9,5.7-1.9,12.3-2.8,19.8c-0.9,7.5-1.7,15.8-2.5,24.8c-0.8,9-1.3,18.5-1.7,28.3
	c-0.3,9.8-0.3,19.8,0.1,30.1c0.4,10.2,1.2,20.3,2.6,30.3c0.2,1.5,0,2.9-0.7,4.2c-0.7,1.3-1.7,2.3-3.1,3.1c-1.5,0.8-3.1,1.1-5,0.9
	c-1.9-0.3-3.6-1-5-2.1c-0.7-0.5-1.4-1.2-1.9-1.9c-0.5-0.7-0.9-1.6-1.1-2.5c-0.2-2.3-0.5-5.9-0.9-10.8c-0.4-4.9-0.8-10.8-1-17.9
	c-0.3-7-0.4-15.1-0.4-24.1c0-9,0.3-18.8,0.9-29.4c0.6-10.6,1.7-21.8,3.1-33.7c1.5-11.9,3.5-24.3,6-37.1h-9.1
	c-1.3,4.1-3,8.3-5.1,12.7c-2.2,4.4-4.9,8.7-8.3,12.9s-7.4,8.4-12,12.4c-4.7,4-10.2,7.7-16.6,11.1c-2.9,1.7-6.2,3.1-9.9,4.4
	c-3.1,1.2-7,2.2-11.5,3.1c-4.5,0.9-9.6,1.3-15.3,1.3c-3.4,0-6.6-0.4-9.7-1.2c-3.1-0.8-5.9-2-8.4-3.5s-4.6-3.5-6.4-5.7
	C762.8,303.7,761.6,301.1,761,298.2z M767.4,297.9c0.6,2.7,1.9,4.9,3.7,6.6c1.8,1.7,4.1,2.9,6.7,3.8c2.6,0.8,5.5,1.3,8.7,1.4
	c3.1,0.1,6.3-0.1,9.6-0.5c4.9-0.7,9.7-2,14.4-3.8c4.7-1.8,9.1-4,13.1-6.5c4.1-2.6,7.8-5.5,11.3-8.7c3.4-3.2,6.3-6.6,8.7-10.3
	c2.3-3.5,4.3-7,5.8-10.6c1.6-3.6,2.8-7.2,3.8-10.8c-3.7,0.1-7.3,0.2-10.9,0.3c-3.6,0.1-7.1,0.3-10.7,0.5c-7.9,0.5-14.9,1.4-21.1,2.5
	c-6.2,1.2-11.1,2.2-14.6,3.1c-6.3,1.7-11.8,4-16.4,6.9c-2,1.3-3.9,2.7-5.7,4.4c-1.8,1.7-3.3,3.6-4.4,5.7c-1.2,2.2-2,4.5-2.4,7.2
	C766.6,291.8,766.7,294.7,767.4,297.9z M924,382.4c-2.1,2-4.5,3.3-7.1,3.9c-4.4,0.6-8.2,0.2-11.3-1.3c-3.1-1.5-5.7-3.6-7.7-6.3
	c-2-2.7-3.4-5.6-4.2-8.8c-0.8-3.2-1-6.2-0.7-9.1c0.5-4.4,1.7-8,3.6-10.6c1.9-2.7,3.4-4.5,4.4-5.4c-0.3-2.4-0.2-4.7,0.2-6.9
	c0.5-2.2,1.2-4,2.3-5.7c1-1.6,2.3-2.9,3.8-3.9c1.5-0.9,2.9-1.4,4.4-1.4c2,0,4.1,0.5,6.4,1.6c2.3,1.1,4.4,2.7,6.3,5
	c1.9,2.3,3.6,5.2,5,8.8c1.4,3.6,2.2,8,2.4,13c2.2-0.8,4.1-1.9,5.7-3.1c1.6-1.3,3-2.5,4-3.6c0.2-0.3,0.5-0.5,0.9-0.6
	c0.7-0.2,1.4,0.1,1.9,0.8c0.2,0.5,0.3,1.1,0.3,1.6c0,1.2-0.6,2.3-1.7,3.3c-1.9,1.8-3.8,3.3-5.7,4.4c-1.9,1.2-3.7,2.1-5.5,2.8
	c-0.2,6-1.1,10.6-2.7,13.9C927.4,378.1,925.8,380.7,924,382.4z M923.2,362.6c-3.1,0.1-5.9-0.3-8.2-1.3c-2.3-0.9-4-1.7-5-2.4
	c-0.2,0.7-0.4,1.5-0.5,2.4c-0.1,0.8-0.2,1.7-0.3,2.7c-0.5,3.7-0.5,6.6,0.2,8.7c0.6,2.1,1.4,3.7,2.2,4.7c1,1.2,2.3,1.9,3.6,2.4
	c1.4-0.3,2.5-1.1,3.5-2.4s1.8-2.8,2.4-4.5c0.6-1.7,1.1-3.4,1.4-5.3C922.9,365.7,923.1,364.1,923.2,362.6z M923.5,356.8
	c-0.2-3.4-0.8-6.2-1.7-8.6c-0.9-2.4-2-4.2-3.4-5.4c-0.7-0.6-1.5-1.2-2.2-1.6c-0.6-0.3-1.3-0.6-2-0.7c-0.7-0.2-1.5,0-2.2,0.4
	c-0.6,0.3-1.1,0.8-1.5,1.3c-0.4,0.6-0.7,1.2-0.9,1.8c0.7,0.2,1.4,0.4,2,0.7c0.6,0.3,1.2,0.6,1.7,0.9s0.9,0.8,1.1,1.6
	c0.2,0.7,0.1,1.4-0.5,1.9c-0.6,0.8-1.3,2-1.9,3.5c0.6,0.6,1.3,1.2,2,1.6c0.7,0.4,1.4,0.7,2,0.9c0.7,0.3,1.4,0.6,2,0.8
	c0.9,0.3,1.8,0.5,2.7,0.6C921.8,356.6,922.7,356.7,923.5,356.8z M608.2,624.7c-1.2,3.1-2.2,5.7-3,7.8c0.2,2.3,0.3,4.3,0.4,6.1
	c0.1,1.8,0.3,3.4,0.6,4.9c0,1.5-0.2,2.7-0.7,3.6c-0.3,0.8-1,1.6-1.9,2.4c-1,0.8-2.3,1.2-4.1,1.2c-1.9,0.2-3.7-0.1-5.3-0.7
	c-1.5-0.6-2.8-1.7-4.1-3c-1.3-1.4-2.3-3.7-2.9-6.9c-1.5-7.9-2.5-15.7-3.1-23.7c-1.6,1.2-3.1,2.3-4.7,3.3c-2.9,1.8-5.7,3.2-8.5,4.4
	c-0.3,9.2-1.7,16.4-4.1,21.5c-2.4,5.1-5,9-7.8,11.8c-3.2,3.1-6.9,5.1-10.9,6.1c-6.8,1-12.6,0.3-17.5-2.1c-4.9-2.3-8.8-5.6-11.9-9.7
	c-3.1-4.1-5.2-8.7-6.4-13.6c-1.2-4.9-1.6-9.6-1.1-14c0.2-1.7,0.5-3.4,0.8-4.9c-0.3,0.2-0.5,0.4-0.8,0.5c-2.9,1.8-5.7,3.2-8.5,4.4
	c-0.3,9.2-1.7,16.4-4.1,21.5c-2.4,5.1-5,9-7.8,11.8c-3.2,3.1-6.9,5.1-10.9,6.1c-6.8,1-12.6,0.3-17.5-2.1c-4.9-2.3-8.8-5.6-11.9-9.7
	c-2.2-3-4-6.2-5.2-9.6c-1.9,4.3-4,8.2-6.3,11.7c-2.3,3.6-5,6.5-7.9,8.7c-2.9,2.3-6,3.3-9.2,3.2c-3.6-0.3-6.8-2-9.7-5.1
	c-2.6-2.8-5.1-7-7.4-12.9c-2.3-5.8-4-14.3-5-25.5c-0.8-8.9-1-18.7-0.5-29.5c0.5-10.8,1.5-21.5,2.9-32.3c1.5-10.8,3.3-21.1,5.5-31.1
	s4.5-18.6,6.9-26.1c2.9-8.9,6.2-16.7,10-23.3c1.6-2.7,3.4-5.4,5.2-8c1.9-2.6,3.8-4.8,5.9-6.7c2.1-1.9,4.4-3.2,6.8-4.1
	c2.4-0.9,4.9-1,7.5-0.4c3.1,0.8,5.3,3.6,6.7,8.4c1.4,4.8,1.9,10.8,1.7,18.2c-0.2,7.4-1.3,15.7-3,24.9c-1.8,9.2-4.3,18.7-7.6,28.3
	c-3.3,9.6-7.3,19.1-11.9,28.4c-4.6,9.3-9.9,17.8-15.9,25.4c-1,7.8-1.7,15.1-2.1,22.1c-0.4,7-0.4,13.1,0.1,18.4s1.5,9.6,2.9,12.7
	c1.5,3.2,3.6,4.7,6.3,4.7c2.1,0,4.4-2,6.8-6.1c2.4-4,4.7-8.7,6.9-14c0.6-1.5,1.3-3.1,1.9-4.6c0-1.2,0.1-2.4,0.2-3.5
	c0.8-6.8,2.7-12.3,5.6-16.4c2.9-4.1,5.2-6.9,6.8-8.4c-0.5-3.7-0.4-7.2,0.4-10.6c0.7-3.3,1.9-6.2,3.5-8.7c1.6-2.5,3.6-4.5,5.8-5.9
	c2.3-1.5,4.5-2.2,6.8-2.2c3.1,0,6.3,0.8,9.8,2.4c3.5,1.6,6.7,4.2,9.7,7.6c3,3.5,5.5,8,7.6,13.6c2.1,5.6,3.3,12.3,3.6,20
	c3.4-1.3,6.3-2.9,8.9-4.9c2.5-1.9,4.6-3.8,6.2-5.6c0.3-0.5,0.8-0.8,1.5-1c0.1,0,0.1,0,0.2,0c1.7-2.2,3.1-3.8,4.2-4.8
	c-0.5-3.7-0.4-7.2,0.4-10.6c0.7-3.3,1.9-6.2,3.5-8.7c1.6-2.5,3.6-4.5,5.8-5.9c2.3-1.5,4.5-2.2,6.8-2.2c3.1,0,6.3,0.8,9.8,2.4
	c3.5,1.6,6.7,4.2,9.7,7.6c3,3.5,5.5,8,7.6,13.6c2.1,5.6,3.3,12.3,3.6,20c3.4-1.3,6.3-2.9,8.9-4.9c1.4-1.1,2.7-2.2,3.8-3.2
	c0-0.5,0-1.1-0.1-1.6c-0.3-11.5,0-22.7,0.8-33.5c0.9-10.8,2.2-21.2,3.9-31.2s3.5-19,5.5-27.1c1.9-8.1,3.8-15.1,5.6-21
	c1.8-5.9,3.2-10.3,4.1-13.2c0.8-2.6,2.7-4,5.6-4.4c1.9-0.3,4.3-0.3,7,0c1.9,0.2,3.7,0.8,5.2,1.8c1.5,1.1,2.8,2.3,3.8,3.8
	c1,1.5,1.6,3.1,1.8,5c0.2,1.9,0.1,3.7-0.4,5.5c-7.9,26.1-13.3,49.3-16.3,69.7c-2.9,20.4-4.6,37.5-5.1,51.5c1.5-3.7,3.4-8,5.8-13
	c2.4-4.9,5.3-10,8.7-15.2c3.7-5.5,7.8-10,12.4-13.6c4.5-3.6,8.9-6,13.2-7.3c4.3-1.3,8.3-1.3,11.9,0c3.6,1.3,6.5,4.1,8.6,8.5
	c1.9,3.9,2.4,8.5,1.5,13.7c-1,5.3-3,10.3-6.2,15.2c-3.2,4.9-7.2,9-12.3,12.4c-5,3.4-10.8,5.2-17.2,5.3c1.5,5.3,3.2,10,5.1,13.8
	c1.8,3.4,3.9,6.3,6.4,8.7c2.5,2.4,5.5,3.2,9.1,2.2c1.9-0.5,4.2-2.3,6.7-5.6c2.5-3.2,4.9-6.9,7.2-10.9c2.3-4,4.2-8,5.9-12
	c1.7-4,2.9-6.9,3.5-8.9c0.6-1.6,1.6-1.9,2.9-1c0.3,0.2,0.5,0.3,0.6,0.4c0.1,0.1,0.3,0.2,0.6,0.4c1.5,1.3,1.9,2.9,1.5,4.9
	c-0.3,1.5-0.9,3.6-1.7,6.4c-0.8,2.8-1.9,5.9-3.2,9.2c-1.3,3.3-2.8,6.8-4.6,10.3c-1.8,3.6-3.8,6.8-6.1,9.7c-2.3,2.9-4.8,5.3-7.5,7.3
	c-2.8,1.9-5.7,3-9,3.2c-7.1,0.3-12.9-1-17.5-3.9c-4.5-2.9-8.1-6.6-10.8-10.9c-2.7-4.4-4.6-9-5.8-14c-1.2-4.9-2-9.3-2.3-13
	C610.9,618.4,609.5,621.6,608.2,624.7z M616.6,606.2c3.2-0.8,6.4-2.4,9.5-4.7c3.1-2.3,5.8-4.9,8.3-7.5c2.4-2.7,4.3-5.1,5.6-7.3
	c1.3-2.2,1.9-3.5,1.7-4c-0.3-0.5-0.8-1-1.5-1.5c-0.6-0.5-1.6-0.6-2.8-0.2c-1.2,0.3-2.8,1.2-4.6,2.5c-1.9,1.4-4.1,3.8-6.7,7.2
	C622.9,594.7,619.7,599.9,616.6,606.2z M422.2,576.4c6.5-11.8,11.4-23.5,14.8-35.2c3.4-11.7,5.9-22.2,7.5-31.6
	c1.8-11,2.8-21.4,2.9-31.3c-1.3,2.9-2.6,6.2-3.9,10c-1.3,3.7-2.5,7.2-3.6,10.4c-1.3,3.9-2.5,7.8-3.6,11.7c-0.8,2.9-1.8,6.7-3,11.3
	c-1.2,4.6-2.4,9.8-3.6,15.7c-1.2,5.8-2.5,12.1-3.8,18.8C424.6,562.8,423.3,569.6,422.2,576.4z M489.4,626.6
	c-4.9,0.2-9.1-0.5-12.6-1.9c-3.6-1.5-6.2-2.7-7.8-3.6c-0.3,1.1-0.6,2.3-0.7,3.6c-0.2,1.3-0.3,2.7-0.5,4.1
	c-0.8,5.7-0.7,10.1,0.2,13.4c1,3.2,2.1,5.7,3.4,7.3c1.6,1.8,3.5,3,5.6,3.6c2.1-0.5,3.9-1.7,5.5-3.8c1.5-2,2.8-4.3,3.8-6.9
	c1-2.6,1.7-5.3,2.2-8.1C489,631.4,489.3,628.9,489.4,626.6z M489.9,617.6c-0.3-5.2-1.2-9.6-2.5-13.2c-1.4-3.6-3.1-6.4-5.2-8.4
	c-1.1-1-2.3-1.8-3.4-2.4c-1-0.5-2-0.8-3.2-1.1c-1.1-0.2-2.3,0-3.4,0.6c-1,0.5-1.7,1.2-2.3,2.1c-0.6,0.9-1,1.8-1.3,2.8
	c1.1,0.3,2.2,0.7,3.2,1.1c1,0.4,1.9,0.8,2.7,1.3c0.8,0.5,1.4,1.3,1.7,2.4c0.3,1.1,0.1,2.1-0.7,2.9c-1,1.3-1.9,3.1-2.9,5.3
	c1,1,2,1.8,3.2,2.4c1.1,0.6,2.2,1.1,3.2,1.5c1.1,0.5,2.2,0.9,3.2,1.2c1.5,0.5,2.8,0.8,4.1,1C487.3,617.3,488.6,617.5,489.9,617.6z
	 M557.6,626.6c-4.9,0.2-9.1-0.5-12.6-1.9c-3.6-1.5-6.2-2.7-7.8-3.6c-0.3,1.1-0.6,2.3-0.7,3.6c-0.2,1.3-0.3,2.7-0.5,4.1
	c-0.8,5.7-0.7,10.1,0.2,13.4c1,3.2,2.1,5.7,3.4,7.3c1.6,1.8,3.5,3,5.6,3.6c2.1-0.5,3.9-1.7,5.5-3.8c1.5-2,2.8-4.3,3.8-6.9
	c1-2.6,1.7-5.3,2.2-8.1C557.2,631.4,557.5,628.9,557.6,626.6z M558.1,617.6c-0.3-5.2-1.2-9.6-2.5-13.2c-1.4-3.6-3.1-6.4-5.2-8.4
	c-1.1-1-2.3-1.8-3.4-2.4c-1-0.5-2-0.8-3.2-1.1c-1.1-0.2-2.3,0-3.4,0.6c-1,0.5-1.7,1.2-2.3,2.1c-0.6,0.9-1,1.8-1.3,2.8
	c1.1,0.3,2.2,0.7,3.2,1.1c1,0.4,1.9,0.8,2.7,1.3c0.8,0.5,1.4,1.3,1.7,2.4c0.3,1.1,0.1,2.1-0.7,2.9c-1,1.3-1.9,3.1-2.9,5.3
	c1,1,2,1.8,3.2,2.4c1.1,0.6,2.2,1.1,3.2,1.5c1.1,0.5,2.2,0.9,3.2,1.2c1.5,0.5,2.8,0.8,4.1,1C555.5,617.3,556.8,617.5,558.1,617.6z
	 M292.5,867.7c-2.1,4-4.7,8.3-7.6,12.9c-3,4.5-6.3,8.7-10,12.5c-3.6,3.8-7.6,6.9-11.8,9.2c-4.2,2.3-8.6,3.3-13.1,2.8
	c-4.5-0.5-8.1-2-10.7-4.5c-2.6-2.5-4.4-5.6-5.3-9.2c-1-3.6-1.2-7.6-0.6-12c0.6-4.4,1.6-8.8,3.2-13.2c1.5-4.4,3.6-8.7,6.1-12.6
	c2.5-4,5.3-7.3,8.4-10.1c3.4-3.1,7.2-5.7,11.4-8c4.2-2.3,8.4-3.8,12.5-4.6c4.1-0.8,8.1-0.8,11.9,0c3.8,0.8,7.2,2.7,10.1,5.6
	c0.3-2.1,0.8-4.1,1.3-6.1c0.6-1.9,1.1-4,1.6-6.1c0.8-2.4,2.4-3.6,4.9-3.6c2.3,0.2,5,0.6,8.1,1.2c3.2,0.6,6,1.9,8.6,3.6
	c1,0.8,1.7,1.8,2.2,3c0.5,1.2,0.6,2.5,0.2,3.8c-0.5,2.3-1.2,5.5-2.1,9.6c-0.9,4.1-1.8,8.6-2.8,13.3c-1,4.8-1.8,9.6-2.5,14.6
	c-0.7,4.9-1.2,9.5-1.5,13.6c-0.2,4.1-0.1,7.5,0.4,10.2s1.5,4.1,2.9,4.2c2.1,0.3,4.2-1,6.4-4c2.2-3,4.2-6.6,6.2-10.7
	c1.9-4.1,3.7-8.3,5.2-12.5c1.5-4.2,2.6-7.3,3.3-9.2c0.2-0.6,0.5-1.1,1.1-1.2c0.6-0.2,1.1-0.1,1.6,0.2c0.6,0.3,1.1,0.6,1.2,0.7
	c1.5,1.3,1.9,2.9,1.5,4.9c-0.3,1.5-0.9,3.6-1.7,6.6c-0.8,2.9-1.9,6.1-3.2,9.6c-1.3,3.5-2.8,7-4.6,10.6c-1.8,3.6-3.8,6.8-6.1,9.8
	c-2.3,3-4.8,5.4-7.5,7.2c-2.8,1.8-5.7,2.6-9,2.4c-7.3-0.3-12.6-4.5-16-12.6C293.2,891.5,291.8,880.9,292.5,867.7z M294.2,845.9
	c-1-1.8-2.7-2.8-5.1-3.2c-2.4-0.3-5.2,0.2-8.3,1.6c-3.1,1.4-6.3,3.6-9.6,6.8c-3.3,3.2-6.4,7.4-9.1,12.7c-3.6,6.6-5.8,11.8-6.7,15.4
	c-0.9,3.6-1.2,6.4-0.8,8.1c0.3,2.1,1.3,3.4,2.9,3.9c1.1,0.2,2.7-0.7,4.9-2.7c2.1-1.9,4.4-4.4,7-7.5c2.6-3.1,5.2-6.5,7.9-10.3
	c2.7-3.8,5.2-7.4,7.5-10.8c2.3-3.4,4.4-6.4,6.1-9C292.6,848.4,293.7,846.7,294.2,845.9z M678.5,819.1c-1.7-1.4-3.8-2.2-6.2-2.5
	c-2.6-0.3-4.9-0.1-6.8,0.7c-1.9,0.8-3.1,2-3.4,3.6c-0.3,1.8,0.4,3.4,2.1,4.7c1.7,1.4,3.8,2.2,6.4,2.5c2.4,0.3,4.6,0.1,6.6-0.7
	c1.9-0.8,3.1-2.1,3.4-3.9C680.9,822,680.2,820.5,678.5,819.1z M814.8,912.2c-7.1,0.2-13.4-1.5-18.7-5.1c-2.3-1.5-4.4-3.4-6.4-5.9
	c-2-2.5-3.8-5.6-5.2-9.3c-0.7-1.9-1.4-3.9-1.9-6.2c-0.9,2.1-1.9,4.2-3,6.4c-1.8,3.6-3.8,6.8-6.1,9.7c-2.3,2.9-4.8,5.3-7.5,7.3
	c-2.8,1.9-5.7,3-9,3.2c-7.1,0.3-12.9-1-17.5-3.9c-4.5-2.9-8.1-6.6-10.8-10.9s-4.6-9-5.8-14c-1.2-4.9-2-9.3-2.3-13
	c-1.6,3.4-3,6.6-4.2,9.7c-1.2,3.1-2.2,5.7-3,7.8c0.2,2.3,0.3,4.3,0.4,6.1c0.1,1.8,0.3,3.4,0.6,4.9c0,1.5-0.2,2.7-0.7,3.6
	c-0.3,0.8-1,1.6-1.9,2.4c-1,0.8-2.3,1.2-4.1,1.2c-1.9,0.2-3.7-0.1-5.3-0.7c-1.5-0.6-2.8-1.7-4.1-3c-1.3-1.4-2.3-3.7-2.9-6.9
	c-0.3-1.8-0.6-3.6-0.9-5.5c-0.9,2.2-1.8,4.4-2.8,6.6c-1.9,4-4,7.6-6.3,10.8c-2.3,3.2-4.9,5.9-7.8,7.9c-2.8,2-5.9,3-9.1,2.8
	c-5.3-0.2-9.6-2.3-12.9-6.6c-3.2-4.2-5.4-10-6.4-17.4c-0.2-1.4-0.3-2.8-0.5-4.3c-0.9,2.4-2,4.8-3.1,7.3c-1.9,4.4-4.1,8.3-6.4,11.9
	c-2.3,3.6-5,6.5-7.9,8.7c-2.9,2.3-6,3.3-9.2,3.2c-3.6-0.3-6.8-2-9.7-5.1c-2.6-2.8-5.1-7-7.4-12.9c-2.3-5.8-4-14.3-5-25.5
	c-0.8-8.9-1-18.7-0.5-29.5c0.5-10.8,1.5-21.5,2.9-32.3c1.3-9.9,3-19.5,5-28.7c-8,1.8-16.9,4-26.6,6.5c-15.2,3.9-31.8,7.5-49.8,10.9
	c-1.5,7.1-2.8,14.6-4.1,22.5c-1.3,7.9-2.4,15.6-3.4,23.3c-1,7.7-1.7,15-2.1,21.8c-0.4,6.9-0.4,12.9,0,18.2c0.4,5.3,1.3,9.5,2.7,12.6
	c1.4,3.2,3.4,4.7,6.2,4.7c2.1,0,4.4-2,6.8-6.1c2.4-4,4.8-8.7,7-14c2.3-5.3,4.2-10.4,5.9-15.5c1.7-5.1,2.9-8.6,3.5-10.6
	c0.6-1.5,1.6-1.8,2.9-1c0.2,0.2,0.6,0.4,1.2,0.7c1.5,1.5,1.9,3.1,1.5,4.9c-0.3,1.5-0.9,3.8-1.8,7.2c-0.9,3.3-2.1,7-3.5,11.2
	c-1.5,4.1-3.2,8.4-5.1,12.7s-4.1,8.3-6.6,11.9c-2.4,3.6-5.1,6.5-7.9,8.7c-2.8,2.3-5.9,3.3-9.1,3.2c-3.6-0.3-6.8-2-9.7-5.1
	c-2.6-2.8-5.1-7-7.5-12.9c-2.4-5.8-4.1-14.3-5.1-25.5c-0.2-1.8-0.3-3.7-0.4-5.6c-1.5,1.2-3,2.2-4.5,3.1c-2.9,1.8-5.7,3.2-8.5,4.4
	c-0.3,9.2-1.7,16.4-4.1,21.5c-2.4,5.1-5,9-7.8,11.8c-3.2,3.1-6.9,5.1-10.9,6.1c-6.8,1-12.6,0.3-17.5-2.1c-4.9-2.3-8.8-5.6-11.9-9.7
	c-2.2-3-4-6.2-5.2-9.6c-1.9,4.3-4,8.2-6.3,11.7c-2.3,3.6-5,6.5-7.9,8.7c-2.9,2.3-6,3.3-9.2,3.2c-3.6-0.3-6.8-2-9.7-5.1
	c-2.6-2.8-5.1-7-7.4-12.9c-2.3-5.8-4-14.3-5-25.5c-0.8-8.9-1-18.7-0.5-29.5c0.5-10.8,1.5-21.5,2.9-32.3c1.5-10.8,3.3-21.1,5.5-31.1
	c2.2-10,4.5-18.6,6.9-26.1c2.9-8.9,6.2-16.7,10-23.3c1.6-2.7,3.4-5.4,5.2-8c1.9-2.6,3.8-4.8,5.9-6.7c2.1-1.9,4.4-3.2,6.8-4.1
	c2.4-0.9,4.9-1,7.5-0.4c3.1,0.8,5.3,3.6,6.7,8.4c1.4,4.8,1.9,10.8,1.7,18.2c-0.2,7.2-1.2,15.4-2.9,24.4c0.7-0.1,1.4-0.2,2.1-0.2h2.4
	c1.5,0,2.7,0.4,3.6,1.3c1,0.9,1.4,2,1.2,3.3c-0.3,3.4,0.2,6.8,1.5,10.2c1.3,3.4,3.6,6.4,6.8,9c3.2,2.6,7.5,4.7,12.9,6.4
	c5.3,1.7,12,2.5,19.9,2.5c2.3,0,4.7-0.1,7.4-0.4c2.7-0.2,5.4-0.5,8.1-0.8c1.5-8.3,3-16,4.7-23.3s3.4-13.8,5.2-19.4
	c0.8-2.1,2.3-3.2,4.6-3.2c1.8,0,4,0.3,6.7,0.8c2.7,0.6,5.2,2,7.6,4.2c1.3,1,2.1,2.2,2.5,3.8c0.4,1.5,0.4,3-0.1,4.5
	c-0.8,2.8-1.8,6.6-2.9,11.4c-1.1,4.9-2.3,10.5-3.6,17c8.3-1.8,16.7-3.8,25.4-6.1c8.7-2.3,17.2-4.6,25.6-7c8.4-2.4,16.5-4.8,24.4-7
	c0.7-0.2,1.4-0.4,2.2-0.6c1.4-5.4,2.8-10.4,4.3-14.9c2.9-8.9,6.2-16.7,10-23.3c1.6-2.7,3.4-5.4,5.2-8c1.9-2.6,3.8-4.8,5.9-6.7
	c2.1-1.9,4.4-3.2,6.8-4.1c2.4-0.9,4.9-1,7.5-0.4c3.1,0.8,5.3,3.6,6.7,8.4c1.4,4.8,1.9,10.8,1.7,18.2c-0.2,6.7-1.1,14.2-2.6,22.4
	c5,0.4,9.1,1.1,12.4,2.2c4.5,1.6,8.1,3.8,10.7,6.6c1.1,1.5,2,3.1,2.7,4.9c0.5,1.5,0.7,3,0.6,4.7c-0.1,1.7-0.8,3.4-2.1,5.2
	c-1.3,1.5-3.3,2.7-5.9,3.6s-5.6,1.4-8.9,1.2c-1.5,0-2.8-0.2-3.9-0.7c-1-0.3-1.9-0.9-2.9-1.7c-1-0.8-1.5-2.1-1.7-3.9
	c-0.3-2.8-1.9-4.7-4.7-5.7c-1.3,4.7-2.8,9.5-4.4,14.4c-3.3,9.6-7.3,19.1-11.9,28.4c-4.6,9.3-9.9,17.8-15.9,25.4
	c-1,7.8-1.7,15.1-2.1,22.1c-0.4,7-0.4,13.1,0.1,18.4s1.5,9.6,2.9,12.7c1.5,3.2,3.6,4.7,6.3,4.7c2.1,0,4.4-2,6.8-6.1
	c2.4-4,4.7-8.7,6.9-14c2.2-5.3,4.1-10.4,5.8-15.5c1.4-4.2,2.4-7.3,3.1-9.4c1.3-8.8,3.4-18.1,6.2-28.1c0.5-2.6,2-3.7,4.6-3.4
	c2.3,0,5,0.3,8.1,1c3.2,0.6,6,1.9,8.6,3.6c1,0.8,1.7,1.8,2.2,3c0.5,1.2,0.6,2.5,0.2,3.8c-0.5,2.3-1.2,5.3-2.2,9.2s-1.9,8.1-2.8,12.6
	c-0.9,4.5-1.7,9.1-2.5,13.7c-0.8,4.6-1.4,8.8-1.7,12.6c-0.3,3.8-0.2,7,0.2,9.5c0.5,2.5,1.5,3.8,2.9,4c2.1,0.3,4.2-1.1,6.3-4.1
	c2.1-3.1,4.1-6.9,6.1-11.4c1.9-4.5,3.7-9.3,5.3-14.3c0.2-0.6,0.4-1.3,0.6-1.9c-0.3-3.7-0.5-7.5-0.6-11.2c-0.3-11.5,0-22.7,0.8-33.5
	c0.9-10.8,2.2-21.2,3.9-31.2c1.7-10,3.5-19,5.5-27.1c1.9-8.1,3.8-15.1,5.6-21c1.8-5.9,3.2-10.3,4.1-13.2c0.8-2.6,2.7-4,5.6-4.4
	c1.9-0.3,4.3-0.3,7,0c1.9,0.2,3.7,0.8,5.2,1.8c1.5,1.1,2.8,2.3,3.8,3.8c1,1.5,1.6,3.1,1.8,5c0.2,1.9,0.1,3.7-0.4,5.5
	c-7.9,26.1-13.3,49.3-16.3,69.7c-2.9,20.4-4.6,37.5-5.1,51.5c1.5-3.7,3.4-8,5.8-13c2.4-4.9,5.3-10,8.7-15.2
	c3.7-5.5,7.8-10,12.4-13.6c4.5-3.6,8.9-6,13.2-7.3c4.3-1.3,8.3-1.3,11.9,0c3.6,1.3,6.5,4.1,8.6,8.5c1.9,3.9,2.4,8.5,1.5,13.7
	c-1,5.3-3,10.3-6.2,15.2s-7.2,9-12.3,12.4c-5,3.4-10.8,5.2-17.2,5.3c1.5,5.3,3.2,10,5.1,13.8c1.8,3.4,3.9,6.3,6.4,8.7
	c2.5,2.4,5.5,3.2,9.1,2.2c1.9-0.5,4.2-2.3,6.7-5.6c2.5-3.2,4.9-6.9,7.2-10.9c2.3-4,4.2-8,5.9-12c0.4-1,0.9-2,1.2-2.9
	c0.1-2.2,0.3-4.5,0.6-6.9c1.1-7.8,3.1-14.7,5.8-20.9c1.1-2.6,2.5-5.1,4.1-7.5c1.6-2.4,3.5-4.6,5.6-6.4c2.1-1.9,4.5-3.3,7.3-4.4
	c2.7-1.1,5.8-1.5,9.2-1.3c4.4,0.3,7.7,1.7,10.1,4.1c2.3,2.4,3.8,5.3,4.2,8.7c0.5,3.4,0.2,7.1-0.8,11.2c-1.1,4-2.8,7.9-5.2,11.4
	c-2.4,3.6-5.5,6.6-9.1,9.1c-3.6,2.5-7.6,3.9-12,4.2c0,2.6,0.2,5.7,0.6,9.3c0.4,3.6,1.2,7.1,2.4,10.3c1.2,3.2,3,5.9,5.3,7.9
	c2.3,2,5.5,2.7,9.6,2.1c1.9-0.3,4.1-2.1,6.4-5.2c2.3-3.2,4.6-6.8,6.7-10.8c2.1-4,4-8,5.7-12c1.7-4,2.9-6.9,3.5-8.9
	c0.2-0.6,0.5-1.1,1.1-1.2c0.6-0.2,1.1-0.1,1.6,0.2c0.6,0.3,1.1,0.6,1.2,0.7c1.5,1.1,2,2.8,1.7,4.9c-0.5,2.3-1.5,5.9-3,10.9
	c-1.5,5-3.6,10.2-6.2,15.4c-2.6,5.3-5.8,9.9-9.6,13.8C824.2,910.2,819.8,912.2,814.8,912.2z M801.9,858.8c1.8-0.8,3.8-2.1,6.2-3.9
	c2.3-1.8,4.5-4.3,6.4-7.5c1.6-2.8,2.6-5,2.9-6.8c0.3-1.8,0.3-3.2,0-4.4c-0.3-1.1-0.8-1.9-1.5-2.3c-0.6-0.4-1.2-0.5-1.7-0.4
	c-0.3,0-0.9,0.2-1.8,0.6c-0.9,0.4-1.9,1.4-3,3c-1.1,1.6-2.4,4.1-3.8,7.5C804.3,848.1,803.1,852.8,801.9,858.8z M409,831.8
	c6.5-11.8,11.4-23.5,14.8-35.2c3.4-11.7,5.9-22.2,7.5-31.6c1.8-11,2.7-21.4,2.9-31.3c-1.3,2.9-2.6,6.2-3.9,10
	c-1.3,3.7-2.5,7.2-3.6,10.4c-1.3,3.9-2.5,7.8-3.6,11.7c-0.8,2.9-1.8,6.7-3,11.3c-1.2,4.6-2.4,9.8-3.6,15.7s-2.5,12.1-3.8,18.8
	C411.3,818.3,410.1,825,409,831.8z M476.2,882.1c-4.9,0.2-9.1-0.5-12.6-1.9c-3.6-1.5-6.2-2.7-7.8-3.6c-0.3,1.1-0.6,2.3-0.7,3.6
	c-0.2,1.3-0.3,2.7-0.5,4.1c-0.8,5.7-0.7,10.1,0.2,13.3c1,3.2,2.1,5.7,3.4,7.3c1.6,1.8,3.5,3,5.6,3.6c2.1-0.5,3.9-1.7,5.5-3.8
	c1.5-2,2.8-4.3,3.8-6.9c1-2.6,1.7-5.3,2.2-8.1C475.7,886.9,476.1,884.3,476.2,882.1z M476.7,873.1c-0.3-5.2-1.2-9.6-2.5-13.2
	c-1.4-3.6-3.1-6.4-5.2-8.4c-1.1-1-2.3-1.8-3.4-2.4c-1-0.5-2-0.8-3.2-1.1c-1.1-0.2-2.3,0-3.4,0.6c-1,0.5-1.7,1.2-2.3,2.1
	c-0.6,0.9-1,1.8-1.3,2.8c1.1,0.3,2.2,0.7,3.2,1.1c1,0.4,1.9,0.8,2.7,1.3c0.8,0.5,1.4,1.3,1.7,2.4c0.3,1.1,0.1,2.1-0.7,2.9
	c-1,1.3-1.9,3.1-2.9,5.3c1,1,2,1.8,3.2,2.4c1.1,0.6,2.2,1.1,3.2,1.5c1.1,0.5,2.2,0.9,3.2,1.2c1.5,0.5,2.8,0.8,4.1,1
	C474.1,872.8,475.4,872.9,476.7,873.1z M502,862.8c0-5.7,0.1-11.7,0.5-18c0.7-12.1,2-24.2,3.8-36.3c-12.9,1.8-23.9,2.2-32.8,1.2
	c-8.9-1-16.3-2.7-22.1-5.1c-5.8-2.4-10.4-5.3-13.6-8.7c-0.9-1-1.8-2-2.6-2.9c-0.3,0.9-0.6,1.9-0.9,2.8c-3.3,9.6-7.3,19.1-11.9,28.4
	c-4.6,9.3-9.9,17.8-15.9,25.4c-1,7.8-1.7,15.1-2.1,22.1c-0.4,7-0.4,13.1,0.1,18.4c0.5,5.3,1.5,9.6,2.9,12.7s3.6,4.7,6.3,4.7
	c2.1,0,4.4-2,6.8-6.1c2.4-4,4.7-8.7,6.9-14c0.6-1.5,1.3-3.1,1.9-4.6c0-1.2,0.1-2.4,0.2-3.5c0.8-6.8,2.7-12.3,5.6-16.4
	c2.9-4.1,5.2-6.9,6.8-8.4c-0.5-3.7-0.4-7.2,0.4-10.6c0.7-3.3,1.9-6.2,3.5-8.7c1.6-2.5,3.6-4.5,5.8-5.9c2.3-1.5,4.5-2.2,6.8-2.2
	c3.1,0,6.3,0.8,9.8,2.4c3.5,1.6,6.7,4.2,9.7,7.6c3,3.5,5.5,8,7.6,13.6c2.1,5.6,3.3,12.3,3.6,20c3.4-1.3,6.3-2.9,8.9-4.9
	C499.6,864.9,500.9,863.8,502,862.8z M637.1,796.6c1.6-5.5,3-10.8,4.2-15.8c-2.8,0.2-5.8,0.6-9.2,1.1c-0.8,3.3-1.6,6.9-2.4,10.8
	c-1.2,5.8-2.5,12.1-3.8,18.8c-1.3,6.7-2.5,13.5-3.6,20.3C628.8,820,633.7,808.3,637.1,796.6z M636.4,765.8c-0.1,0.2-0.1,0.4-0.2,0.6
	c3-0.6,5.8-1,8.4-1.3c0,0,0,0,0,0c1.8-11,2.7-21.4,2.9-31.3c-1.3,2.9-2.6,6.2-3.9,10c-1.3,3.7-2.5,7.2-3.6,10.4
	C638.8,758,637.5,761.9,636.4,765.8z M742.5,849.4c2.4-2.7,4.3-5.1,5.6-7.3c1.3-2.2,1.9-3.5,1.7-4c-0.3-0.5-0.8-1-1.5-1.5
	c-0.6-0.5-1.6-0.6-2.8-0.2c-1.2,0.3-2.8,1.2-4.6,2.5c-1.9,1.4-4.1,3.8-6.7,7.2c-3.2,4-6.4,9.2-9.5,15.5c3.2-0.8,6.4-2.4,9.5-4.7
	C737.3,854.6,740,852.1,742.5,849.4z M137.9,1119.4c-2.4,6.6-6.1,10-11.3,10c-6,0-10-4.6-11.9-13.7c-1.9-9.2-2.9-27.9-2.9-56.2
	c0-20.5,0.3-35.4,0.9-44.5c0.6-9.1,1.8-15.2,3.5-18.3c1.7-3.1,4.4-4.6,8.2-4.6c5.1,0,9.1,3.2,11.9,9.6c2.8,6.4,4.1,15.6,4.1,27.7
	h21.6v-58h-21.6v8.7h-0.5c-4.4-7.7-10.9-11.6-19.4-11.6c-24.3,0-36.4,31.4-36.4,94.2c0,30.4,3.4,53.1,10.3,68
	c6.9,14.9,17.4,22.3,31.6,22.3c11.5,0,20.6-5.4,27.3-16.2s10-25.5,10.2-44.3l-22.2-6.2C141.5,1101.7,140.3,1112.7,137.9,1119.4z
	 M234.5,992.9h8.4v51.2h-25v-51.2h8.4v-21.6h-47.3v21.6h13.6v135.5h-13.6v21.6h47.3v-21.6h-8.4v-62.7h25v62.7h-8.4v21.6h47.3v-21.6
	h-13.6V992.9h13.6v-21.6h-47.3V992.9z M383,1128.4h10.7v21.6h-30.2l-22-81.8c-2.6,0.5-5.9,0.7-10,0.7v59.5h13.3v21.6h-53.6v-21.6
	h15.1V992.9h-15.1v-21.6H336c15.1,0,27,4.4,35.8,13.3c8.8,8.8,13.2,20.6,13.2,35.2c0,18.9-7.1,32.9-21.3,42.1L383,1128.4z
	 M358.5,1019.8c0-10.1-2.1-17.1-6.3-21c-4.2-3.9-11.1-5.9-20.6-5.9v54.4c9.6,0,16.4-2.2,20.6-6.6
	C356.4,1036.4,358.5,1029.4,358.5,1019.8z M401.5,992.9h13.6v135.5h-13.6v21.6H454v-21.6h-13.6V992.9H454v-21.6h-52.5V992.9z
	 M506.7,1036.4c-5.1-6.3-8.7-12.2-10.8-17.5c-2.1-5.3-3.1-10.5-3.1-15.6c0-8.8,3.5-13.1,10.4-13.1c4.1,0,7.1,1.6,9,4.9
	c1.9,3.3,2.8,8.6,2.8,16.1v13.5h21.6v-53.3h-21.6v5.3c-5.1-5.5-11.1-8.3-18-8.3c-8.2,0-15,3.7-20.2,11.1c-5.3,7.4-7.9,17-7.9,28.7
	c0,9.8,1.6,18.4,4.7,25.7c3.2,7.3,9.5,17,19,29c9.2,11.7,15,19.3,17.2,22.8c2.3,3.5,4.2,7.9,5.8,13.2c1.6,5.3,2.4,10.2,2.4,14.7
	c0,5.3-1.2,9.5-3.5,12.7c-2.3,3.2-5.4,4.7-9.2,4.7c-4.9,0-8.4-1.9-10.4-5.8c-2-3.9-3-10.6-3-20.1v-16.5h-21.6v61.4h21.6v-5.6
	c5.4,5.7,11.8,8.5,19.1,8.5c9,0,16.6-4.1,22.6-12.2c6.1-8.1,9.1-18.4,9.1-30.8c0-19-8.4-38.9-25.2-59.8L506.7,1036.4z M558,1036.6
	h18.8v-46.5H592v138.2h-14.1v21.6h53.5v-21.6h-14.1V990.2h15.2v46.5h18.8v-65.3H558V1036.6z M781.5,992.9h13.4v-21.6h-53.4l-5.6,34
	c-1.3,7.9-2.7,17.6-4.1,29.2l-3.7,29.3h-0.7l-3.1-33.3c-0.9-9-1.8-16.2-2.8-21.5l-6.9-37.7h-53.1v21.6h13.4v135.5h-13.4v21.6h48.4
	v-21.6h-13.4v-90.8l-1.4-47.9h2.4l9,68.5l16.5,91.7h7.6l16.9-99.1l8.1-61.2h2.4l-1.9,48.1v90.5h-13.4v21.6h52.5v-21.6h-13.6V992.9z
	 M896.3,1128.4h11.1v21.6h-47.8v-21.6h11.4l-4.4-40.5h-21.3l-4.4,40.5h11.4v21.6h-47.8v-21.6h11.1l19.7-135.5H823v-21.6h66.1v21.6
	h-12.4L896.3,1128.4z M865.1,1066.3l-7.6-79.6h-2.8l-7.6,79.6H865.1z M970.2,1050.1l-11.1-13.8c-5.1-6.3-8.7-12.2-10.8-17.5
	c-2.1-5.3-3.1-10.5-3.1-15.6c0-8.8,3.5-13.1,10.4-13.1c4.1,0,7.1,1.6,9,4.9c1.9,3.3,2.8,8.6,2.8,16.1v13.5H989v-53.3h-21.6v5.3
	c-5.1-5.5-11.1-8.3-18-8.3c-8.2,0-15,3.7-20.2,11.1c-5.3,7.4-7.9,17-7.9,28.7c0,9.8,1.6,18.4,4.7,25.7c3.2,7.3,9.5,17,19,29
	c9.2,11.7,15,19.3,17.2,22.8c2.3,3.5,4.2,7.9,5.8,13.2c1.6,5.3,2.4,10.2,2.4,14.7c0,5.3-1.2,9.5-3.5,12.7c-2.3,3.2-5.4,4.7-9.2,4.7
	c-4.9,0-8.4-1.9-10.4-5.8c-2-3.9-3-10.6-3-20.1v-16.5H923v61.4h21.6v-5.6c5.4,5.7,11.8,8.5,19.1,8.5c9,0,16.6-4.1,22.6-12.2
	c6.1-8.1,9.1-18.4,9.1-30.8C995.4,1090.9,987,1071,970.2,1050.1z M734.1,618.9c3.5,14.2,19.7,12.1,29.1,4.4
	c6.2-5.1,7.9-12.2,6.2-20.1c-2.2-9.9-9.3-17.3-19.8-16.3c-0.6,0.1-1.2,0.1-1.7,0.2C733.3,589.7,731,606.4,734.1,618.9z M786.6,556.9
	c6.8-8.4,14.2-16.3,20.2-25.4c7.2-10.8,35.9-57.5,19.6-63.1c-17.2-6-28.1,34.2-31,44.6c-3.7,13.3-10.8,25.3-16.8,37.6
	c-0.9,1.9-5.6,9.2-7.6,15c-1.3,3.8-1.5,6.8,1.3,7.1C778.6,573.4,783.5,560.7,786.6,556.9z M794.9,695.9
	c22.6,8.9,22.8-26.2,17.4-36.7c-4.2-8.1-11.5-14-18.3-19.9c-3.2-2.8-11.6-12.6-16.7-12.1c-0.2,0-0.5,0.1-0.7,0.1
	c-8.1,2.5,7.2,17.3,8,20.5C787.9,661.2,780.1,690.1,794.9,695.9z M863.1,570.2c14.3-22.1-12.9-22.6-26-16.7
	c-12.9,5.9-23,16.6-34,25.1c-4.6,3.5-8.9,3.5-13.8,6.1c-1.5,0.8-3.7,2.1-5.3,3.7c-1.9,1.8-3.3,4-2.7,6.4c11.8,1.3,22.2-5.6,33.8-6.5
	C828.2,587.4,852.8,586.1,863.1,570.2z M316.9,623.3c9.4,7.8,25.6,9.8,29.1-4.4c3-12.5,0.8-29.2-13.7-31.8c-0.5-0.1-1.1-0.2-1.7-0.2
	c-10.5-1-17.7,6.4-19.8,16.3C308.9,611,310.6,618.1,316.9,623.3z M307.9,572.7c2.8-0.3,2.6-3.4,1.3-7.1c-2-5.7-6.7-13.1-7.6-15
	c-6.1-12.3-13.1-24.3-16.8-37.6c-2.9-10.4-13.8-50.6-31-44.6c-16.3,5.7,12.4,52.3,19.6,63.1c6,9,13.4,17,20.2,25.4
	C296.5,560.7,301.4,573.4,307.9,572.7z M303.4,627.4c-0.2-0.1-0.5-0.1-0.7-0.1c-5.1-0.5-13.5,9.3-16.7,12.1
	c-6.8,5.9-14.1,11.8-18.3,19.9c-5.4,10.5-5.2,45.6,17.4,36.7c14.8-5.8,7-34.8,10.3-48C296.2,644.7,311.5,630,303.4,627.4z
	 M298.9,594.9c0.6-2.4-0.8-4.6-2.7-6.4c-1.7-1.6-3.8-2.9-5.3-3.7c-4.9-2.7-9.3-2.6-13.8-6.1c-11-8.6-21.1-19.2-34-25.1
	c-13.1-6-40.4-5.4-26,16.7c10.3,15.8,34.8,17.1,48.2,18.2C276.6,589.3,287.1,596.2,298.9,594.9z"/>
</svg>
