<?xml version="1.0" encoding="utf-8"?>
<!-- Generator: Adobe Illustrator 22.1.0, SVG Export Plug-In . SVG Version: 6.00 Build 0)  -->
<svg version="1.1" id="Layer_1" xmlns="http://www.w3.org/2000/svg" xmlns:xlink="http://www.w3.org/1999/xlink" x="0px" y="0px"
	 viewBox="0 0 1080 1296" style="enable-background:new 0 0 1080 1296;" xml:space="preserve">
<path d="M329.1,188.2h-13.8V94.4h26.4l19.6,60.4l19.3-60.4h26.6v93.7H390v-82.1l-26,82.1h-8.9l-26.1-82.1V188.2z M500.1,173.6h-44
	v-26.2h34.9v-13.6H456v-25.4h43.4V94.4h-60.3v93.7h60.9V173.6z M542.8,188.2h-16.9V94.4h40.7c11.3,0,19.6,2.6,24.9,7.7
	c5.3,5.1,8,11.7,8,19.8c0,12-5.6,20.3-16.9,24.9l16.4,41.4h-17.9l-14.6-38.5h-23.8V188.2z M542.8,136.1h21c6.1,0,10.6-1.3,13.6-3.8
	c3-2.6,4.5-6.1,4.5-10.6c0-4.1-1.5-7.5-4.4-10s-7-3.8-12.3-3.8h-22.4V136.1z M644.4,188.2h-16.9V94.4h40.7c11.3,0,19.6,2.6,24.9,7.7
	c5.3,5.1,8,11.7,8,19.8c0,12-5.6,20.3-16.9,24.9l16.4,41.4h-17.9l-14.6-38.5h-23.8V188.2z M644.4,136.1h21c6.1,0,10.6-1.3,13.6-3.8
	c3-2.6,4.5-6.1,4.5-10.6c0-4.1-1.5-7.5-4.4-10c-2.9-2.5-7-3.8-12.3-3.8h-22.4V136.1z M746.5,188.2h17.9v-39.6l30.4-54.2h-16.2
	l-21.3,38.7L735,94.4h-20.5l31.9,54.2V188.2z M236.4,428.8c6.1-4.4,11.8-9.8,17.1-16.1c5.3-6.3,8.8-13.2,10.7-20.8
	c1.1-4.4,0.3-8.6-2.4-12.5c-2.7-3.9-6.3-6-11-6.4c-4.3-0.6-8.1,0.5-11.7,3.1c-0.9,0.9-1.9,1.9-2.9,3.1c-1,1.1-2,2.1-2.9,3.1
	c-6.3,6.5-13.6,11.8-21.9,16.1c-8.3,4.3-16.9,7.3-25.8,9.2c-4.4,0.9-9,1.4-13.6,1.4c-4.6,0-9.3-0.7-13.9-2.2
	c-2.2-0.9-4.5-1.9-6.9-2.9c-2.4-1-4.6-2.3-6.7-3.7c-7.8-4.6-14.1-10.5-19-17.5c-4.9-7-8.2-15-9.9-23.9c-2-9.4-2.3-18.8-0.8-28.2
	c1.5-9.3,4-18.5,7.5-27.4c7-17,17.4-31.4,31.1-43c7-5.9,14.9-10.9,23.5-15c8.6-4.1,17.6-6,27.1-5.8c3.1,0.2,6.4,0.6,9.7,1.1
	c3.3,0.6,6.3,1.9,8.9,3.9c3.3,2.6,5.9,5.9,7.6,9.9c1.8,4,2.8,8.1,3.2,12.4c0.4,4.6,0,9.1-1.1,13.5c-1.1,4.4-2.6,8.6-4.6,12.8
	s-4.2,8.1-6.8,11.9c-2.6,3.8-5.3,7.4-8.1,10.7c-1.1,1.3-2.5,2.6-4,4c-1.6,1.4-3,2.9-4.2,4.4c-1.2,1.6-2,3.2-2.5,5
	c-0.5,1.8-0.1,3.6,1,5.4c0.9,1.5,2.3,2.6,4,3.3c1.8,0.7,3.5,0.9,5.1,0.6c1.8-0.4,3.3-1.2,4.4-2.6c1.1-1.4,2.3-2.7,3.6-4
	c5.9-6.7,11.3-13.9,16.1-21.7c4.8-7.8,8.3-16.1,10.6-25c2-8.9,2-18,0-27.2c-2-9.3-6.6-16.9-13.6-23c-3.2-2.8-6.7-4.9-10.7-6.4
	c-4-1.5-8.1-2.5-12.4-2.9c-4.3-0.5-8.6-0.5-12.9-0.1c-4.4,0.4-8.5,1-12.4,1.9c-8.9,2.2-17.3,5.7-25.1,10.6
	c-7.9,4.8-15.1,10.4-21.8,16.8c-6.7,6.4-12.7,13.4-18.2,21.1c-5.5,7.7-10.2,15.4-14.3,23.2c-4.3,8.1-7.8,16.7-10.6,25.7
	c-2.8,9-4.5,18-5.1,27.2c-0.7,9.2,0,18.3,1.8,27.4c1.8,9.1,5.2,17.8,10,26.1c4.3,6.8,9.3,13,15,18.5c5.7,5.5,12,10.3,18.9,14.6
	c7.2,4.3,15.1,7.1,23.7,8.6c8.6,1.5,17.1,1.8,25.4,1.1c9.3-0.7,18.3-2.7,27.1-5.8C220.6,438.7,228.8,434.4,236.4,428.8z M495.8,269
	c0.4,2.1,1.5,3.9,3.3,5.4c1.7,1.3,3.3,1.9,5,1.9c2.6,0,4.8-1.1,6.7-3.3l3.9-5.3c1.5-1.8,2.1-3.9,1.8-6.1c-0.3-2.2-1.4-4.1-3.5-5.6
	c-1.7-1.5-3.6-2-5.8-1.7c-2.2,0.4-4.1,1.5-5.6,3.3l-4.2,5C495.9,264.8,495.4,266.9,495.8,269z M986.7,331.9
	c-3.9,8.7-10.2,13.9-18.9,15.6c-1.7,0.6-3.5,0.8-5.6,0.8c0,8.1-1.7,15.3-5,21.4c-3,5.6-6.5,9.8-10.6,12.8c-4.8,3.1-10,4.7-15.6,4.7
	h-0.8c-7.8,0-13.9-3.1-18.3-9.2c-3.7-4.6-5.6-10.5-5.6-17.5c0-3.9,0.7-7.6,2.1-11.2c1.4-3.6,3.3-6.8,5.7-9.6
	c2.6-3.1,5.8-5.6,9.7-7.5c3.9-1.8,8.1-2.8,12.5-2.8h3.1c-5.2-6.7-8.6-13.6-10.3-20.8c-2.2,3.3-4.5,7-6.8,11c-2.3,4-4.6,8.2-6.8,12.6
	c-0.9,2-2.5,3.4-4.7,4c-2.2,0.7-4.4,0.5-6.4-0.4c-1-0.5-1.9-1.1-2.6-1.9c-0.4,0.8-0.9,1.8-1.6,3c-1.7,3.1-3.8,6.9-6.4,11.1
	c-8,12.2-15.8,19.7-23.6,22.5c-2.6,1.1-5.1,1.7-7.5,1.7c-3.2,0-5.9-0.7-8.3-1.9c-5-2-8.5-6.1-10.6-12.2c-0.4-0.7-0.6-1.4-0.6-1.9
	l-0.8,0.8c-6.3,6.1-12.3,10.1-18,11.9c-2.2,0.7-4.6,1.1-7.2,1.1c-3.7,0-7.4-1-11.1-3.1c-6.1-3.7-9.7-9.2-10.8-16.4
	c-0.5-2.4-0.6-4.9-0.5-7.6c-3.7,5.8-7.7,10.8-12,15.2c-6.9,6.9-13.7,11.2-20.5,12.9c-0.9,0.4-1.8,0.6-2.5,0.6c-0.7,0-1.6,0-2.5,0
	c-2.4,0-4.4-0.3-6.1-1c-1.7-0.7-3-1.4-3.9-2.4c-3.9-3.1-6-7.2-6.4-12.2c-0.2-3.1,0.6-7,2.2-11.7c1.3-3.7,3-7.4,5.1-11.2
	c2.1-3.8,4.4-7.6,6.8-11.5c1.7-3,3.4-6,5.1-9c1.8-3.1,3.3-5.9,4.6-8.5c1.5-3.3,2.3-5.7,2.4-7.1c0.1-1.4,0.1-2.3,0.1-2.6l-0.6-0.6
	c-0.4-0.2-1.1-0.4-2.1-0.6c-1-0.2-2.7,0.5-5.1,1.9c-3.9,2-8.7,6.4-14.4,13.1c-2.8,3.2-5.5,6.6-8.2,10.3c-2.7,3.7-5.3,7.5-7.8,11.4
	s-4.9,7.7-7.2,11.4c-2.3,3.7-4.4,7.2-6.2,10.6c-1.9,2.8-3.5,5.4-4.9,7.8c-1.4,2.4-2.7,4.4-4,6.1l-0.8,1.1c-0.7,1.1-1.5,1.8-2.2,1.9
	c-0.4,0.4-0.7,0.6-1.1,0.6c-1.5,0.6-3.2,0.6-5.3,0.3c-0.4,0-0.9-0.2-1.7-0.6h-0.3c-2-1.1-3.3-2.8-3.9-5c-0.7-2.2-0.4-4.5,1.1-6.9
	c0.9-2,2.2-4.3,3.7-6.8c1.6-2.5,3.3-5.2,5.1-8.2c2.8-4.4,5.6-9.1,8.6-13.9c3-4.8,5.6-9.6,7.8-14.4c3.1-6.3,5-10.8,5.4-13.6
	c0.5-2.8,0.5-4.6,0.1-5.6c0-0.2-0.2-0.5-0.6-0.8c-0.6-0.4-1.3-0.6-2.2-0.7c-0.9-0.1-2.1,0.1-3.6,0.7c-1.5,0.4-3.3,1.3-5.6,2.8
	c-2.2,1.5-5,3.8-8.3,6.9c-4.8,5.2-10,11.8-15.6,19.7l-5.8,8.9l-17.5,33.3c-1.5,3-3.9,4.4-7.2,4.4c-1.3,0-2.5-0.3-3.6-0.8
	c-2-0.9-3.5-2.4-4.3-4.4c-0.5-1.1-0.6-2.3-0.6-3.4c-3,3-6,5.3-9,7c-5.2,3.1-10.4,4.7-15.6,4.7c-2.4,0-5.2-0.5-8.3-1.4
	c-7-2-11.9-6.6-14.7-13.6c-2-5.3-2.6-11.7-1.7-19.1c-3.7,4.6-8.6,7.4-14.7,8.6c-1.7,0.6-3.5,0.8-5.6,0.8c0,8.1-1.7,15.3-5,21.4
	c-3,5.6-6.5,9.8-10.6,12.8c-4.8,3.1-10,4.7-15.6,4.7h-0.8c-7.8,0-13.9-3.1-18.3-9.2c-3.7-4.6-5.6-10.5-5.6-17.5
	c0-3.9,0.7-7.6,2.1-11.2s3.3-6.8,5.7-9.6c2.6-3.1,5.8-5.6,9.7-7.5c3.9-1.8,8.1-2.8,12.5-2.8h3.1c-5.2-6.7-8.6-13.6-10.3-20.8
	c-2.2,3.3-4.5,7-6.8,11c-2.3,4-4.6,8.2-6.8,12.6c-0.9,2-2.5,3.4-4.7,4c-2.2,0.7-4.4,0.5-6.4-0.4c-1.5-0.7-2.7-1.7-3.5-3.1
	c-0.1,0.3-0.3,0.7-0.5,1.1c-0.7,1.3-1.5,2.9-2.5,4.9c-1,1.9-2.3,4.1-3.9,6.5c-1.6,2.4-3.3,4.8-5.1,7.2c-5.7,7.4-11.2,12.4-16.2,15
	c-5.1,2.6-9.7,3.9-13.7,3.9c-2.6,0-4.7-0.4-6.4-1.1c-5.7-1.5-10-3.7-12.6-6.7c-2.7-3-4.5-5.8-5.4-8.6c-1.5-4.3-1.9-9.2-1.2-14.7
	c-2.6,3.9-5,7.5-7.2,10.7c-3.1,4.4-6.2,8.1-9.3,11.2c-3.5,3.5-7.2,6-11.1,7.5c-2,0.7-4.3,1.1-6.7,1.1c-2.8,0-5.4-0.6-7.8-1.7
	c-5.9-2.4-9.7-7.1-11.4-14.2c-1.5-5.9-1.2-12.9,0.7-21c1.9-8.1,5-16,9.3-23.7c-0.6,0-1.1,0-1.7-0.1c-0.6-0.1-1.1-0.1-1.7-0.1
	c-3.9-0.6-7.2-1.7-10-3.3l-12.8,27.5c-0.9,2-2.5,3.4-4.7,4.2c-2.2,0.7-4.4,0.7-6.4-0.3c-1.6-0.7-2.7-1.8-3.5-3.2
	c-4.7,9.2-10.3,17-16.6,23.4c-6.9,6.9-13.8,11.2-20.7,12.9c-0.9,0.4-1.7,0.6-2.4,0.6c-0.7,0-1.4,0-2.4,0c-2.4,0-4.4-0.3-6.1-1
	c-1.7-0.7-3.1-1.4-4.2-2.4c-3.7-2.8-5.8-6.8-6.4-11.9c-0.2-3.1,0.5-7.1,1.9-11.9c1.3-3.5,3-7.2,5-11.1c2-3.9,4.1-7.7,6.1-11.4
	c2.2-3.9,4.3-7.7,6.4-11.5c2-3.8,3.5-7.2,4.4-10.1c0.4-1.7,0.6-2.9,0.7-3.7c0.1-0.8,0.1-1.4,0.1-1.8c0-0.2-0.3-0.5-0.8-0.8
	c-0.4-0.2-1.1-0.4-2.1-0.7c-1-0.3-2.6,0-4.9,0.7c-4.4,1.5-9.6,4.9-15.6,10.1c-5.9,5.3-12.1,12-18.6,20.1c-5.9,7.6-11,14.9-15.3,21.9
	c-4.3,7-7.4,12.9-9.4,17.5l-0.8,1.7c-0.9,2-2.5,3.5-4.6,4.3c-2.1,0.8-4.2,0.8-6.2-0.1c-2-0.9-3.5-2.5-4.4-4.6
	c-0.9-2.1-0.9-4.2,0-6.2l0.8-1.9c8.9-20.4,17.2-37.9,24.9-52.8c7.7-14.8,14.1-26.8,19.3-36.1c5.9-10,10.6-17.5,13.9-22.5
	c3.3-5,5-7.6,5-7.8c1.5-2,3.3-3.2,5.6-3.6c2.2-0.4,4.3,0.2,6.1,1.7c2,1.3,3.2,3.1,3.6,5.3c0.4,2.2-0.2,4.3-1.7,6.1
	c0,0.2-1.6,2.7-4.9,7.5c-3.2,4.8-7.7,12.1-13.5,21.9l-6.4,11.7c5.7-4.6,11.4-7.9,16.9-9.7c4.8-1.7,8.9-2.2,12.4-1.7
	c3.4,0.6,6.2,1.5,8.2,2.8c5,3,7.9,7,8.6,12.2c0.9,3.9,0.6,8.3-1.1,13.3c-1.3,3.9-3,8-5.1,12.4c-2.1,4.4-4.5,8.7-7.1,12.9
	c-1.7,3.1-3.3,6.1-4.9,8.9c-1.6,2.8-2.8,5.5-3.7,8.1c-1.1,2.6-1.8,4.4-1.9,5.6c-0.2,1.1-0.3,1.9-0.3,2.2c0.6,0,1.7-0.3,3.5-1
	c1.8-0.6,4.1-2.2,7.1-4.6c6.8-6.1,12.9-14.3,18-24.4c0.9-2,2.5-3.4,4.7-4.2c2.2-0.7,4.3-0.6,6.4,0.3c1.4,0.7,2.5,1.6,3.3,2.9
	l21.1-44.6c0.2-0.4,0.3-0.6,0.3-0.8c0-0.2,0.1-0.4,0.3-0.6c0-0.2,0.1-0.4,0.3-0.6c1.1-2,2.7-3.4,4.9-4c2.1-0.6,4.2-0.5,6.2,0.4
	c2,0.9,3.4,2.5,4,4.6c0.6,2.1,0.5,4.2-0.4,6.2l-0.3,1.4c-0.6,0.9-0.9,2-1.1,3.3c-0.6,2-0.6,3.1,0,3.1c0.2,0,0.5,0.1,0.8,0.4
	c0.4,0.3,1.2,0.5,2.5,0.7c1.5,0.2,3.6,0.2,6.2,0c2.7-0.2,6.2-0.7,10.7-1.7c1.7-0.4,3.3-0.2,5,0.4c1.7,0.7,3,1.8,3.9,3.5
	c1.8,3.5,1.5,6.8-1.1,9.7c-3.2,3.5-6,7.4-8.5,11.5c-2.5,4.2-4.5,8.7-6,13.5c-1.5,4.1-2.5,7.9-3.1,11.5c-0.6,3.6-0.6,6.6,0,9
	c0.4,1.5,0.8,2.4,1.4,2.8c0.7,0.4,1.7,0.5,2.8,0.4c1.1-0.1,2.8-1.4,5-4c2.6-2.4,5.3-5.7,8.1-9.9s5.9-8.7,9.4-13.7
	c0.7-1.1,1.3-2.1,1.7-3.1c1.3-1.8,3.1-3,5.3-3.5c2.2-0.5,4.3,0,6.4,1.2c0.9,0.6,1.6,1.4,2.2,2.2c0,0,0,0,0,0
	c2.4-6.1,5.3-11.9,8.7-17.5c3.4-5.6,6.6-10.3,9.6-14.2c1.3-2,3.1-3.2,5.3-3.6c2.2-0.4,4.3,0.2,6.1,1.7c1.8,1.3,3,3.1,3.5,5.3
	c0.5,2.2,0,4.4-1.5,6.4c-3.7,5-6.9,9.9-9.6,14.6c-2.7,4.7-5,9.2-6.8,13.5c-2.4,5.9-3.6,10.4-3.6,13.3c0,3,0.2,5.1,0.6,6.4
	c0.4,0.9,1,1.8,1.8,2.6c0.8,0.8,2.4,1.6,4.6,2.4c0.6,0.2,1.3,0.3,2.2,0.3c3.1,0,6.2-1.4,9.3-4.3c3.1-2.9,5.5-5.5,7.4-7.9
	c1.5-2,2.9-4.1,4.3-6.2c1.4-2.1,2.5-4,3.5-5.7c1.1-2,2.1-3.9,3.1-5.6c0.9-2,2.5-3.5,4.6-4.3c2.1-0.8,4.2-0.8,6.2,0.1
	c1.7,0.8,3,2,3.9,3.7c3.8-7.6,7.6-14.5,11.4-20.6c3.9-6.3,7.5-11.8,11-16.5c3.4-4.7,6.4-8.6,9-11.5c2.6-3,4.4-5,5.6-6.1l0.8-0.8
	c1.7-1.7,3.6-2.5,5.8-2.5s4.2,0.8,5.8,2.5c1.7,1.7,2.5,3.6,2.5,5.8s-0.8,4.2-2.5,5.8l-0.3,0.3c0,0.2,0,0.3-0.1,0.3
	c-0.1,0-0.1,0.1-0.1,0.3c-2.6,2.8-4.3,5.8-5.1,9.2c-0.8,3.3-1,6.8-0.4,10.3c0.6,3.5,1.6,6.9,3.2,10.3c1.6,3.3,3.4,6.4,5.4,9.2
	c1.5,1.7,2.7,3.5,3.6,5.4c0.9,1.9,1.8,3.9,2.8,6c0.9,0.2,1.8,0.2,2.5,0.1c0.7-0.1,1.6-0.2,2.5-0.4c1.1-0.4,2.3-0.9,3.6-1.7
	c1.3-0.7,2.5-2.3,3.6-4.7c0.9-2,2.5-3.5,4.6-4.3c2.1-0.8,4.2-0.8,6.2,0.1c1.3,0.5,2.3,1.3,3.1,2.3c1.4-5.2,3.2-10.8,5.5-17
	c2.2-5.7,4.8-11.8,7.8-18.1c3-6.3,6.3-12.9,10-19.7l-26.4,0.3c-2.4,0-4.4-0.8-6-2.5c-1.6-1.7-2.4-3.7-2.4-6.1c0-2.2,0.7-4.2,2.2-5.8
	c1.5-1.7,3.4-2.5,5.8-2.5l36.1-0.3c1.5-2.4,2.9-4.8,4.3-7.1c1.4-2.3,2.8-4.7,4.3-7.1c1.1-2,2.8-3.3,5-3.9c2.2-0.6,4.3-0.2,6.4,1.1
	c2,1.1,3.3,2.8,3.7,5c0.5,2.2,0.1,4.4-1,6.4l-3.3,5.6l35-0.6h0.3c2.2,0,4.2,0.8,5.8,2.4c1.7,1.6,2.5,3.5,2.5,5.7
	c0,2.4-0.8,4.4-2.4,6c-1.6,1.6-3.6,2.4-6,2.4l-45,0.8c-9.1,16.1-16.2,30.8-21.4,44.2c-2.6,6.7-4.4,12.3-5.6,16.9
	c-1.1,4.6-1.8,8.5-2.1,11.7c-0.3,3.1-0.3,5.6-0.1,7.5c0.2,1.9,0.5,3.2,0.8,3.9c0.7,1.9,2,3.1,3.9,3.6c6.8,2,13.9-1.8,21.1-11.7
	c3.3-4.4,5.9-8.7,7.8-12.6c1.8-4,2.8-6.1,2.8-6.2c0.9-2,2.5-3.5,4.6-4.4c2.1-0.9,4.3-1,6.5-0.3c1.9,0.9,3.3,2.2,4.2,4
	c0.1-0.1,0.2-0.3,0.2-0.4c5.2-10,9.5-18.2,12.9-24.7c3.4-6.5,5.1-9.8,5.1-10c1.1-2,2.8-3.4,5-4c2.2-0.6,4.3-0.4,6.4,0.7
	c0.2,0,0.4,0.1,0.6,0.3c5-4.1,9.7-6.8,14.2-8.3c3.5-1.3,6.9-1.8,10.1-1.4c3.2,0.4,6.3,1.3,9.3,2.8c4.1,2.6,6.8,6.2,8.1,10.8
	c4.1-4.1,8.1-7.2,11.9-9.4c5.4-3.1,10-4.5,14-4.2c4,0.4,7.2,1.3,9.6,2.8c4.4,2.6,7.2,6.1,8.3,10.6c0.7,3,0.8,6,0.3,9.2
	c-0.6,3.1-1.5,6.4-2.9,9.9c-1.4,3.4-3.1,6.9-5,10.4c-1.9,3.5-4,7.1-6.2,10.8c-2,3.1-3.8,6.1-5.3,8.9c-1.5,2.8-2.9,5.5-4.2,8.1
	c-1.1,2.4-1.8,4.2-1.9,5.4c-0.2,1.2-0.3,2-0.3,2.4c0.6,0,1.7-0.3,3.5-1c1.8-0.6,4.1-2.2,7.1-4.6c3.1-3,6.2-6.5,9.3-10.7
	c3.1-4.2,5.9-8.7,8.5-13.7c0.9-2,2.5-3.4,4.7-4.2c2.2-0.7,4.3-0.6,6.4,0.3c1.1,0.5,2,1.2,2.8,2.1c1.6-3.7,3.5-7.5,5.7-11.4
	c3.8-6.6,8.1-12.5,12.9-17.9c5.2-5.7,10.3-10.2,15.3-13.3c6.1-3.7,12.1-5.6,18-5.6c9.6,0.6,17.6,3.9,23.9,10c2.2,2.2,3.7,4,4.4,5.4
	c0.7,1.4,1.6,2.8,2.5,4.3c1.1,2.4,1.2,4.6,0.3,6.5c-0.9,1.9-2.3,3.4-4.2,4.3c-1.9,0.9-3.9,1.1-6.1,0.6c-2.2-0.6-4-2.2-5.3-5
	l-0.6-0.6h-0.3c-0.4-0.7-1.4-2.1-3.1-4.2c-2.8-2.8-6.9-4.3-12.2-4.7c-2.6,0-5.7,1.2-9.4,3.6c-3.7,2.4-7.4,5.7-11.1,9.9
	c-3.7,4.2-7.2,8.9-10.4,14.2c-3.2,5.3-5.7,10.7-7.4,16.2c-0.4,1.1-0.7,2.5-1,4c-0.3,1.6-0.4,3.2-0.4,5c0,1.8,0.2,3.4,0.7,4.9
	c0.5,1.5,1.3,2.6,2.6,3.3c0.4,0.4,1,0.6,1.8,0.7c0.8,0.1,1.8,0,2.9-0.4c2-0.6,5-2.3,8.7-5.3c3.8-3,8.7-8.7,14.6-17.2
	c1.5-2.4,2.9-4.7,4.3-6.8c1.4-2.1,2.5-4.1,3.5-6c0.7-1.5,1.4-2.9,2.1-4.2c0.6-1.3,1.4-2.6,2.4-3.9c1.3-2.4,3.5-3.8,6.7-4.2h1.1
	c0.4,0.2,0.8,0.3,1.4,0.3s1,0.2,1.4,0.6h0.3c0,0.2,0.2,0.3,0.6,0.3c1.8,1.3,3.1,2.9,3.6,4.7c0.7,1.7,0.6,3.8-0.3,6.4l-4.7,8.3
	c-2.4,5.4-4.1,10.6-5,15.6c-0.9,5-0.9,8.9,0,11.7c0.2,0.7,0.4,1.2,0.6,1.4c0.2,0.2,0.4,0.4,0.6,0.6c0.4,0.2,0.8,0.3,1.3,0.4
	c0.5,0.1,1.2,0,2.1-0.4c2-0.9,4.4-2.8,7.1-5.6c2.7-2.8,5.4-6.3,8.2-10.6c2.4-4.1,4.3-7.3,5.6-9.7c0.7-1.5,1.5-3,2.2-4.4
	c0.9-2,2.5-3.5,4.7-4.3s4.3-0.8,6.4,0.1c1.3,0.6,2.3,1.4,3.1,2.5c3.6-7.1,7.2-13.6,10.8-19.4c3.9-6.3,7.5-11.8,11-16.5
	c3.4-4.7,6.4-8.6,9-11.5c2.6-3,4.4-5,5.6-6.1l0.8-0.8c1.7-1.7,3.6-2.5,5.8-2.5s4.2,0.8,5.8,2.5c1.7,1.7,2.5,3.6,2.5,5.8
	s-0.8,4.2-2.5,5.8l-0.3,0.3c0,0.2,0,0.3-0.1,0.3c-0.1,0-0.1,0.1-0.1,0.3c-2.6,2.8-4.3,5.8-5.1,9.2c-0.8,3.3-1,6.8-0.4,10.3
	c0.6,3.5,1.6,6.9,3.2,10.3c1.6,3.3,3.4,6.4,5.4,9.2c1.5,1.7,2.7,3.5,3.6,5.4c0.9,1.9,1.8,3.9,2.8,6c0.9,0.2,1.8,0.2,2.5,0.1
	c0.7-0.1,1.6-0.2,2.5-0.4c1.1-0.4,2.3-0.9,3.6-1.7c1.3-0.7,2.5-2.3,3.6-4.7c0.9-2,2.5-3.5,4.6-4.3c2.1-0.8,4.2-0.8,6.2,0.1
	c2.2,0.9,3.7,2.5,4.4,4.6C987.7,327.5,987.6,329.7,986.7,331.9z M562.4,346.9c-3.1-0.6-6.2-0.8-9.2-0.8c-4.8,0-8.2,1.7-10.1,5
	c-1.9,3.3-3,6.5-3.2,9.4c0,0.7,0,1.7,0.1,2.8c0.1,1.1,0.4,2.2,1,3.3c0.6,1.1,1.3,2.1,2.4,2.9c1,0.8,2.5,1.2,4.3,1.2h0.3
	c3.1,0,5.6-1.1,7.4-3.2c1.8-2.1,3.1-3.9,4-5.4c1.1-2,2-4.3,2.6-6.9C562.6,352.6,562.8,349.9,562.4,346.9z M945.6,346.9
	c-3.1-0.6-6.2-0.8-9.2-0.8c-4.8,0-8.2,1.7-10.1,5c-1.9,3.3-3,6.5-3.2,9.4c0,0.7,0,1.7,0.1,2.8c0.1,1.1,0.4,2.2,1,3.3
	c0.6,1.1,1.3,2.1,2.4,2.9c1,0.8,2.5,1.2,4.3,1.2h0.3c3.1,0,5.6-1.1,7.4-3.2c1.8-2.1,3.1-3.9,4-5.4c1.1-2,2-4.3,2.6-6.9
	C945.8,352.6,946,349.9,945.6,346.9z M379.3,436.6v-9.4h-51v85.5h10.4v-39.1h36v-9.4h-36v-27.6H379.3z M433.9,475.9v0.3l25.3,36.5
	h-10.4l-26.3-35.4h-12.6v35.4h-10.4v-85.5h22.1c3.7,0,6.9,0.1,9.5,0.4c2.6,0.3,5,0.7,7.2,1.3c6,1.6,10.5,4.4,13.7,8.3
	s4.7,8.8,4.7,14.6c0,3.4-0.6,6.5-1.7,9.3c-1.1,2.7-2.7,5.1-4.7,7.1c-2,2-4.4,3.6-7.2,4.9C440.5,474.4,437.4,475.3,433.9,475.9z
	 M434.5,466.5c3.6-1.1,6.4-2.9,8.4-5.3c2-2.4,2.9-5.6,2.9-9.5c0-3.7-1-6.6-2.8-8.8c-1.8-2.2-4.4-3.8-7.6-4.8c-1.5-0.5-3.4-0.8-5.5-1
	c-2.1-0.2-4.8-0.3-8.1-0.3h-11.8v31.3h10.3c3.2,0,5.9-0.1,8.2-0.3C430.6,467.4,432.7,467,434.5,466.5z M481.7,487.9
	c-1.8-5.4-2.7-11.3-2.7-17.8c0-6.5,0.9-12.5,2.8-17.9c1.9-5.4,4.5-10.1,8-14c3.4-3.9,7.6-7,12.5-9.2c4.9-2.2,10.4-3.3,16.5-3.3
	c6.2,0,11.8,1.1,16.7,3.3c4.9,2.2,9.1,5.2,12.5,9.2c3.4,3.9,6,8.6,7.9,14c1.8,5.4,2.7,11.4,2.7,17.9c0,6.5-0.9,12.4-2.8,17.8
	c-1.9,5.4-4.5,10.1-8,14c-3.5,3.9-7.6,7-12.5,9.2c-4.9,2.2-10.3,3.3-16.4,3.3c-6.3,0-11.9-1.1-16.8-3.3c-4.9-2.2-9.1-5.2-12.5-9.2
	C486.1,497.9,483.5,493.3,481.7,487.9z M489.3,470c0,5.8,0.8,10.8,2.3,15.2c1.5,4.4,3.6,8,6.3,11c2.6,2.9,5.8,5.2,9.4,6.6
	c3.6,1.5,7.5,2.2,11.7,2.2c4.1,0,8-0.7,11.5-2.2c3.6-1.5,6.7-3.7,9.3-6.6c2.6-2.9,4.7-6.6,6.2-11c1.5-4.4,2.3-9.4,2.3-15.2
	c0-5.7-0.8-10.8-2.3-15.2c-1.5-4.4-3.6-8-6.2-11c-2.6-2.9-5.8-5.2-9.4-6.7c-3.6-1.5-7.5-2.3-11.6-2.3c-4.1,0-8,0.8-11.6,2.3
	c-3.6,1.5-6.7,3.7-9.4,6.7c-2.6,2.9-4.7,6.6-6.2,11C490.1,459.2,489.3,464.3,489.3,470z M658.4,512.7h10.4v-85.5h-15l-20.1,48.4
	c-2,4.7-4.5,11.4-7.6,20h-0.3c-2.8-7.8-5.3-14.5-7.6-20L598,427.2h-15v85.5h10.4v-41.3c0-9.9-0.3-20.8-0.9-32.6h0.5
	c3,8.3,6,15.9,8.9,22.9l21.5,51h4.8l21.5-51c2.8-6.6,5.8-14.2,8.9-22.9h0.5c-0.6,12.1-0.9,23-0.9,32.6V512.7z M721.6,487.9
	c-1.8-5.4-2.7-11.3-2.7-17.8c0-6.5,0.9-12.5,2.8-17.9s4.5-10.1,8-14c3.4-3.9,7.6-7,12.5-9.2c4.9-2.2,10.4-3.3,16.5-3.3
	c6.2,0,11.8,1.1,16.7,3.3c4.9,2.2,9.1,5.2,12.5,9.2c3.4,3.9,6,8.6,7.9,14c1.8,5.4,2.7,11.4,2.7,17.9c0,6.5-0.9,12.4-2.8,17.8
	c-1.9,5.4-4.5,10.1-8,14c-3.5,3.9-7.6,7-12.5,9.2c-4.9,2.2-10.3,3.3-16.4,3.3c-6.3,0-11.9-1.1-16.8-3.3c-4.9-2.2-9.1-5.2-12.5-9.2
	C726,497.9,723.4,493.3,721.6,487.9z M729.2,470c0,5.8,0.8,10.8,2.3,15.2c1.5,4.4,3.6,8,6.3,11c2.6,2.9,5.8,5.2,9.4,6.6
	c3.6,1.5,7.5,2.2,11.7,2.2c4.1,0,8-0.7,11.5-2.2c3.6-1.5,6.7-3.7,9.3-6.6c2.6-2.9,4.7-6.6,6.2-11c1.5-4.4,2.3-9.4,2.3-15.2
	c0-5.7-0.8-10.8-2.3-15.2c-1.5-4.4-3.6-8-6.2-11c-2.6-2.9-5.8-5.2-9.4-6.7c-3.6-1.5-7.5-2.3-11.6-2.3c-4.1,0-8,0.8-11.6,2.3
	c-3.6,1.5-6.7,3.7-9.4,6.7c-2.6,2.9-4.7,6.6-6.2,11C730,459.2,729.2,464.3,729.2,470z M878.8,480.3c0,1.6-0.1,3.3-0.3,5
	c-0.2,1.7-0.5,3.3-0.9,4.7c-0.6,2.3-1.6,4.3-2.7,6.2c-1.2,1.9-2.7,3.4-4.5,4.8c-1.8,1.3-3.9,2.3-6.3,3.1c-2.4,0.7-5.2,1.1-8.3,1.1
	c-5.7,0-10.3-1.2-13.8-3.6c-3.5-2.4-6-5.6-7.4-9.8c-0.6-1.7-1-3.5-1.3-5.5c-0.3-2-0.4-4-0.4-5.9v-53h-10.4V480
	c0,2.3,0.1,4.7,0.4,7.1c0.3,2.4,0.7,4.7,1.4,6.8c0.9,2.9,2.1,5.7,3.8,8.1c1.6,2.5,3.7,4.6,6.2,6.5c2.5,1.8,5.6,3.2,9.1,4.2
	c3.5,1,7.6,1.5,12.3,1.5c4.9,0,9.2-0.6,12.8-1.7s6.8-2.6,9.4-4.6c2.6-2,4.7-4.3,6.3-7c1.6-2.7,2.8-5.6,3.6-8.8
	c0.5-1.9,0.8-3.9,1-6.1c0.2-2.2,0.3-4.3,0.3-6.3v-52.8h-10.4V480.3z M950.3,476.2l25.3,36.5h-10.4l-26.3-35.4h-12.6v35.4h-10.4
	v-85.5H938c3.7,0,6.9,0.1,9.5,0.4c2.6,0.3,5,0.7,7.2,1.3c6,1.6,10.5,4.4,13.7,8.3s4.7,8.8,4.7,14.6c0,3.4-0.6,6.5-1.7,9.3
	c-1.1,2.7-2.7,5.1-4.7,7.1c-2,2-4.4,3.6-7.2,4.9c-2.8,1.3-5.9,2.2-9.3,2.8V476.2z M944.7,467.6c2.3-0.2,4.3-0.6,6.1-1.2
	c3.6-1.1,6.4-2.9,8.4-5.3c2-2.4,2.9-5.6,2.9-9.5c0-3.7-1-6.6-2.8-8.8c-1.8-2.2-4.4-3.8-7.6-4.8c-1.5-0.5-3.4-0.8-5.5-1
	c-2.1-0.2-4.8-0.3-8.1-0.3h-11.8v31.3h10.3C939.8,467.9,942.5,467.8,944.7,467.6z M473.8,820.4c-7.9,5.5-16.5,8.7-25.9,9.6
	c-8.8,0.8-17.3-0.3-25.6-3.4c-8.3-3-15.7-7.4-22.4-13c-5.7-4.7-10.6-9.9-14.9-15.8c-4.3-5.8-7.4-12.2-9.4-19
	c-2.7-9.4-4-18.9-3.9-28.7c0.1-9.8,0.7-19.3,1.9-28.7c1.2-9.9,2.9-19.6,5.1-28.9c2.2-9.4,4.9-18.7,8-28.1c-4.1,0.2-9.4,0.7-15.9,1.6
	c-6.5,0.9-13.2,1.9-20,3.1c-6.8,1.2-13.4,2.4-19.7,3.7c-6.3,1.3-11.4,2.5-15.1,3.7c-1,0.4-1.6,0.7-1.8,1c-0.2,0.3-0.5,0.9-0.9,1.9
	c-3.9,10.9-7.8,21.7-11.8,32.5c-4,10.7-8.5,21.3-13.6,31.6c-2,3.9-4.1,8.2-6.6,12.9c-2.4,4.7-5.3,9-8.6,13c-3.3,4-7,7.3-11.1,9.9
	c-4.1,2.6-8.7,3.9-13.7,3.9c-4.3,0-8.3-1-12-3.1c-3.7-2-6.7-4.8-9.1-8.3c-2.3-3.9-3.8-8-4.4-12.4c-0.6-4.4-0.6-8.8,0-13.3
	c1.6-9.4,4.7-18.2,9.5-26.5c4.8-8.3,10.4-15.8,16.8-22.7c6.6-6.8,13.8-12.8,21.5-17.8c7.7-5.1,15.8-9.5,24.4-13.5
	c1-0.4,2.1-0.8,3.4-1.2c1.3-0.4,2.1-1.1,2.5-2c0.4-1.2,0.8-2.3,1.2-3.4c0.4-1.1,0.8-2.1,1.2-3.1l5.3-14.9c1.6-4.9,3.2-9.6,5-14.2
	c1.8-4.6,3.5-9.2,5.3-13.9c2.7-7.4,5.7-14.8,8.8-22.2c3.1-7.4,6.4-14.7,9.9-21.9c1.6-2.5,3.1-5.5,4.7-8.9c1.6-3.4,3.9-5.6,7-6.6
	c1.8-0.4,3.4-0.3,4.8,0.1c1.5,0.5,2.7,1.3,3.8,2.5c1.1,1.2,1.8,2.5,2.2,4.1c0.4,1.6,0.3,3.1-0.3,4.7c-0.4,1.6-1.1,3.1-2,4.5
	c-1,1.5-1.9,2.9-2.6,4.2c-1,1.6-1.9,3.2-2.6,4.8c-0.8,1.7-1.6,3.3-2.3,4.8c-1.8,3.7-3.4,7.4-5,11.1c-1.6,3.7-3.1,7.4-4.7,11.1
	c-3.3,8.6-6.5,17.1-9.6,25.6c-3.1,8.5-6.1,17.1-9.1,25.9c8.8-2.5,17.5-4.5,26.2-5.8c8.7-1.4,17.5-2.4,26.5-3.2
	c3.1-0.2,6.3-0.3,9.5-0.4c3.2-0.1,6.5-0.3,9.8-0.7c4.3-11.3,9.1-22.7,14.3-34.2c3.9-8.8,8-17.3,12.3-25.4
	c4.3-8.2,8.8-16.4,13.5-24.6c1.2-2.3,2.5-4.9,4.1-7.7c1.6-2.8,3.9-4.5,7-5.1c3.5-0.4,6.3,0.9,8.3,3.9c2,3,2.2,6.1,0.4,9.2
	c-9.2,15-17.5,30.4-25,46.1c-7.5,15.7-14.4,31.6-20.6,47.8c0,0.4-0.2,1-0.6,1.8c-0.6,1.6-1.2,3-1.8,4.2c-0.6,1.3-1.1,2.7-1.5,4.2
	c-3.7,9.4-7.1,18.8-10.1,28.4c-3,9.6-5.3,19.3-6.9,29.2c-1.4,9-1.8,18.2-1.2,27.8c0.6,9.5,3.2,18.4,7.9,26.6
	c1.6,2.5,3.1,4.9,4.7,7.2c1.6,2.2,3.5,4.1,5.8,5.7c3.9,2.7,8.2,4.3,12.9,4.8c4.7,0.5,9.3,0,13.7-1.3c4.1-1.2,8-2.9,11.8-5.1
	c3.8-2.2,7.1-5,9.8-8.3c1.9-2.3,3.3-5.1,3.9-8.2c0.7-3.1,1.3-6.2,1.9-9.4c0.6-3.1,1.4-5.9,2.3-8.5c1-2.5,2.9-4.6,5.8-6.1
	c3.7-1.8,7.2-2,10.4-0.6c3.2,1.4,6,3.4,8.3,6.1c4.9,6.2,7.7,13.3,8.6,21.1c0.9,7.8-0.1,15.3-2.8,22.5
	C487.4,807.7,481.7,814.9,473.8,820.4z M292.1,686.7c-8.2,4.1-15.8,9.1-22.8,14.9c-7,5.8-13.1,12.6-18.1,20.2
	c-2.3,3.5-4.4,7.2-6.3,11c-1.9,3.8-3.3,7.8-4.2,12.1c-0.4,1.4-0.7,3-0.9,4.8c-0.2,1.9-0.2,3.8-0.1,5.7c0.1,1.9,0.4,3.8,1,5.6
	c0.6,1.8,1.7,3,3.2,3.8c1.9,1.2,3.9,1.4,6,0.7c2-0.7,3.9-1.8,5.6-3.4c1.7-1.6,3.2-3.3,4.5-5.3c1.4-2,2.5-3.6,3.5-5
	c4.9-7.4,9-15.2,12.4-23.4c3.4-8.2,6.8-16.5,10.1-24.9L292.1,686.7z M823.6,692.4c1.1,2.2,1.1,4.4,0.1,6.6
	c-3.1,7.2-7.2,13.8-12.1,19.7c-5,5.9-10.6,10.8-16.8,14.5c-7.2,4.3-14.7,6.9-22.5,7.9c-1,0.2-2,0.3-3.1,0.3c-1.1,0-2.1,0-3.1,0
	c-6.4,0-13-1.2-19.6-3.5c-7.8-2.9-13.4-8.1-16.7-15.5c-2.2-4.9-3.2-10.5-3.1-16.8c-4,5.6-9.5,9.1-16.5,10.4
	c-1.8,0.6-3.7,0.9-5.8,0.9c0,8.6-1.8,16.1-5.3,22.5c-3.1,5.8-6.8,10.3-11.1,13.5c-5.1,3.3-10.5,5-16.4,5h-0.9
	c-8.2,0-14.6-3.2-19.3-9.7c-3.9-4.9-5.8-11-5.8-18.4c0-4.1,0.7-8,2.2-11.8c1.5-3.8,3.5-7.2,6-10.1c2.7-3.3,6.1-5.9,10.2-7.9
	c4.1-1.9,8.5-2.9,13.2-2.9h3.2c-5.5-7-9.1-14.3-10.8-21.9c-2.3,3.5-4.7,7.4-7.2,11.6c-2.4,4.2-4.8,8.6-7.2,13.3
	c-1,2.1-2.6,3.6-5,4.2c-2.3,0.7-4.6,0.5-6.7-0.4c-1.3-0.6-2.3-1.4-3.1-2.5c-0.6,1.1-1.6,2.8-2.9,5.2c-2.2,4.2-5.2,8.7-8.9,13.6
	c-2.3,2.9-4.6,5.5-6.9,7.7c-2.2,2.2-4.4,4.1-6.6,5.7c-4.5,3.1-8.5,4.7-12,4.8c-3.5,0.1-6.3-0.3-8.5-1.3c-5.7-2.1-9.6-5.8-11.7-11.1
	v-0.6l-1.8,1.5c-2.1,2.3-4.3,4.3-6.6,6c-2.2,1.7-4.4,3-6.6,3.9c-3.9,1.8-7.5,2.6-10.8,2.6c-1,0-2-0.1-3.1-0.3
	c-1.1-0.2-2.1-0.5-3.1-0.9c-7.2-2.1-12.1-6.7-14.6-13.7c-1.7-4.2-2.3-9.3-1.9-15.1c-1.6,2.3-3.3,4.2-5.1,5.8
	c-3.7,3.1-7.1,5.3-10.2,6.4c-4.9,2-10.2,2.6-16.1,2c-1.6,1.8-3.1,3.5-4.7,5.1c-1.6,1.7-3.2,3.2-5,4.5c-4.7,4.1-10,6.7-16.1,7.9
	c-2.3,0.6-4.9,0.9-7.6,0.9c-3.9,0-7.9-0.7-12-2c-4.7-1.6-8.9-4.3-12.6-8.2c-1.6-1.8-2.9-3.7-4.1-5.7c-1.2-2-2.1-4.3-2.9-6.9
	c-1-4.1-1.5-8.6-1.5-13.5c0-4.9,0.8-10,2.3-15.5c1.9-6.8,4.8-13.4,8.5-19.7c3.7-6.3,8.1-11.8,13.2-16.5c6-5.7,12.5-9.5,19.4-11.7
	c6.9-2.1,13.9-2.4,20.9-0.9c2.3,0.4,4.1,1.7,5.4,3.8c1.3,2.1,1.7,4.4,1.3,6.7c-0.6,2.3-1.9,4.1-3.9,5.4c-2,1.3-4.2,1.6-6.6,1
	c-5.3-1.2-10-0.7-14.3,1.3c-4.3,2-7.8,4.4-10.5,7.2c-3.7,3.5-7,7.7-9.9,12.7c-2.9,5-5.1,10.1-6.4,15.4c-0.4,1-0.8,2.8-1.3,5.6
	c-0.5,2.7-0.6,5.6-0.4,8.6c0.2,3,0.9,5.9,2.2,8.6c1.3,2.7,3.6,4.7,6.9,5.8c6.6,2,13.1,0.6,19.3-4.1l3.8-3.2
	c-4.3-3.1-7.7-7-10.2-11.7c-4.7-8.6-5.4-17.5-2-26.9c2.1-5.8,5.7-10.3,10.5-13.5c2.1-1.4,4.5-2.3,7.2-2.9c2.6-0.6,5.2-0.7,7.7-0.3
	c5.1,0.6,9.2,2.7,12.3,6.4c3.3,3.5,5.3,8.1,5.8,13.7c0.4,7.4-1.1,15.4-4.4,24c1.8-0.8,3.5-2,5.1-3.8c1.7-1.8,3.3-4.3,4.8-7.6
	c1-2.1,2.6-3.7,5-4.5c2.3-0.9,4.6-0.8,6.7,0.1c1.3,0.6,2.4,1.5,3.2,2.6c1.8-5.7,4.2-11.8,7.3-18.4c3.5-8,6.9-14.8,10.1-20.3
	s5-8.5,5.4-8.9c1.2-2.1,2.9-3.5,5.3-3.9c2.3-0.5,4.6,0,6.7,1.3c2.1,1.4,3.5,3.2,3.9,5.6c0.5,2.3,0,4.6-1.3,6.7
	c-0.2,0-1.8,2.6-4.8,7.9c-3,5.3-6.2,11.6-9.5,19c-2.7,6.2-4.8,11.5-6.1,15.9c-1.4,4.4-2.3,8-2.8,11c-0.5,2.9-0.6,5.2-0.4,6.9
	c0.2,1.7,0.5,2.9,0.9,3.7c0.4,1.6,1.6,2.6,3.5,3.2c1.4,0.4,3.1,0,5.3-1.2c2.1-1.2,4.6-3.1,7.3-5.8c6-6,12.5-14.9,19.3-26.6l8.2-14.9
	c0.4-1,0.8-1.8,1.2-2.6c0.4-0.8,0.9-1.7,1.5-2.6c1.8-3.9,3.6-7.7,5.4-11.6c1.9-3.8,3.6-7.6,5.1-11.5c1-2.1,2.6-3.7,4.8-4.7
	c2.2-1,4.4-1,6.6,0c2.1,1,3.7,2.6,4.7,4.8c1,2.2,1,4.4,0,6.6c-0.2,0.4-1.5,3.4-3.9,9.1c-2.4,5.7-5.7,12.5-9.8,20.5
	c-2,4.3-3.8,8.4-5.6,12.3c-1.8,3.9-3.2,7.5-4.4,10.8c-2,5.3-3,9-3.1,11.3c-0.1,2.2,0,3.7,0.4,4.2c0,0.6,0.5,1,1.5,1.2
	c1,0.4,2.6-0.2,5-1.8c2.3-1.6,5.3-4.7,8.8-9.4c3.3-4.1,5.9-8,7.9-11.7c1.9-3.7,2.9-5.7,2.9-5.8c1.2-2.1,2.9-3.6,5.1-4.4
	c2.2-0.8,4.4-0.6,6.6,0.6c1.4,0.6,2.6,1.5,3.4,2.6c3.8-7.6,7.7-14.5,11.5-20.7c4.1-6.6,7.9-12.4,11.5-17.4c3.6-5,6.8-9,9.5-12.1
	c2.7-3.1,4.7-5.3,5.8-6.4l0.9-0.9c1.8-1.8,3.8-2.6,6.1-2.6c2.3,0,4.4,0.9,6.1,2.6c1.8,1.8,2.6,3.8,2.6,6.1s-0.9,4.4-2.6,6.1
	l-0.3,0.3c0,0.2,0,0.3-0.1,0.3c-0.1,0-0.1,0.1-0.1,0.3c-2.7,2.9-4.5,6.1-5.4,9.6c-0.9,3.5-1,7.1-0.4,10.8c0.6,3.7,1.7,7.3,3.4,10.8
	c1.7,3.5,3.6,6.7,5.7,9.6c1.6,1.8,2.8,3.7,3.8,5.7c1,2,1.9,4.1,2.9,6.3c1,0.2,1.9,0.2,2.6,0.1c0.8-0.1,1.7-0.2,2.6-0.4
	c1.2-0.4,2.4-1,3.8-1.8c1.4-0.8,2.6-2.4,3.8-5c1-2.1,2.6-3.7,4.8-4.5c2.2-0.9,4.4-0.8,6.6,0.1c1.3,0.6,2.4,1.3,3.2,2.3
	c1.2-4.6,2.8-9.2,5-13.8c2.9-6.3,6.6-12.2,11.1-17.7c9.9-12.7,20.9-19,32.8-19c5.1,0,9.2,0.8,12.3,2.3c3.1,1.6,5.5,3.2,7,5
	c4.3,4.7,6.4,10.4,6.4,17.3c0,4.9-1,9.8-3.1,14.9c-2,5.1-4.9,9.8-8.6,14.3c-4.1,4.7-8.5,8.3-13.2,10.8c-5.3,2.9-10.9,4.4-17,4.4
	c-3.7,0.4-7.8-0.6-12.3-2.9l-5-3.2c-0.4,2.1-0.4,4.2-0.1,6.1c0.3,2,0.6,3.7,1,5.3c1.4,3.7,3.8,6.2,7.3,7.6c6.8,2.5,13.2,3.3,19,2.2
	c5.8-1.1,11.1-3.2,15.8-6.4c4.7-3.2,8.7-7.1,12.1-11.6c3.4-4.5,6-8.9,7.7-13.2c1-2.1,2.5-3.8,4.7-4.8c2.1-1.1,4.4-1.1,6.7-0.1
	C820.9,688.6,822.5,690.2,823.6,692.4z M752.1,682.9c0.2,1.4,0.5,2.4,0.9,3.2c1.2,1.8,2.6,3.1,4.4,3.9c1.8,0.9,3,1.3,3.8,1.3h0.3
	c4.1,0,7.6-1.1,10.4-3.4c2.8-2.2,5-4.2,6.6-6c2.3-2.7,4.2-5.7,5.6-8.9c1.4-3.2,2-6.2,2-8.9c0-1-0.1-1.9-0.3-2.9
	c-0.2-1-0.6-1.8-1.2-2.3c-1-0.8-2.1-1.3-3.4-1.6c-1.3-0.3-2.4-0.4-3.4-0.4c-6,0-12.5,4.3-19.3,12.9c-1.6,2-3.1,4.1-4.7,6.4
	c0,0.2-0.2,0.7-0.6,1.5C752.3,679.8,751.9,681.6,752.1,682.9z M500.3,682.6c0-2.5-0.9-4-2.6-4.4h-0.6c-1,0-2.1,0.3-3.4,1
	c-1.3,0.7-2.2,2.1-2.8,4.2c-1.6,3.5-1.8,6.9-0.6,10.1c1.2,3.2,3.1,5.9,5.8,8v-0.6c1.6-3.3,2.7-6.6,3.4-9.9
	C500.3,687.8,500.5,685,500.3,682.6z M686.9,715.4c-3.3-0.6-6.5-0.9-9.6-0.9c-5.1,0-8.6,1.8-10.7,5.3s-3.2,6.8-3.4,9.9
	c0,0.8,0,1.8,0.1,2.9c0.1,1.2,0.4,2.3,1,3.5s1.4,2.2,2.5,3.1c1.1,0.9,2.6,1.3,4.5,1.3h0.3c3.3,0,5.9-1.1,7.7-3.4
	c1.9-2.2,3.3-4.1,4.2-5.7c1.2-2.1,2.1-4.6,2.8-7.3C687.1,721.4,687.3,718.5,686.9,715.4z M637.8,917.2V814.4h38.6v-12.7h-91.2v12.7
	h38.6v102.8H637.8z M730,919.3c-6.1,0-11.6-1-16.4-3.1c-4.8-2.1-8.9-5-12.3-8.8c-3.4-3.8-5.9-8.3-7.7-13.6
	c-1.8-5.3-2.7-11.2-2.7-17.6c0-6.5,0.9-12.4,2.8-17.7c1.8-5.3,4.4-9.8,7.8-13.6s7.5-6.7,12.3-8.8c4.8-2.1,10.2-3.1,16.1-3.1
	c6,0,11.5,1,16.3,3.1c4.8,2.1,8.9,5,12.3,8.8c3.3,3.8,5.9,8.3,7.7,13.6c1.8,5.3,2.7,11.2,2.7,17.7c0,6.4-0.9,12.3-2.8,17.6
	c-1.8,5.3-4.4,9.8-7.8,13.6c-3.4,3.8-7.4,6.7-12.2,8.8C741.3,918.3,735.9,919.3,730,919.3z M720,905.8c3,1.4,6.4,2.1,10,2.1
	c3.6,0,6.9-0.7,10-2.1c3-1.4,5.6-3.5,7.9-6.2c2.2-2.7,3.9-6,5.2-10c1.2-3.9,1.9-8.4,1.9-13.4c0-5.1-0.6-9.6-1.9-13.5
	c-1.2-3.9-3-7.3-5.2-10c-2.2-2.7-4.8-4.8-7.9-6.2c-3.1-1.4-6.4-2.1-10-2.1s-7,0.7-10,2.1c-3,1.4-5.7,3.5-7.9,6.2
	c-2.2,2.7-3.9,6.1-5.2,10c-1.2,3.9-1.9,8.4-1.9,13.5c0,5,0.6,9.5,1.9,13.4c1.2,3.9,3,7.3,5.2,10C714.3,902.4,717,904.4,720,905.8z
	 M344.3,867.5v-9c0-2.5-1.7-3.8-5-3.8h-43.3c-2.7,0-4,1.3-4,4v9.2c0,2.1,1.5,3.8,4.5,5c5.2,2.3,7.8,5.7,7.8,10.1
	c0,2.7-0.4,5.5-1.2,8.4l-22.8,77.4l-25.5-84.5c-0.5-1.4-0.7-2.7-0.7-3.8c0-3.5,2.5-6.1,7.6-8c3.2-1.2,4.9-2.8,4.9-4.9v-8.3
	c0-3-1.6-4.5-4.9-4.5h-56.2c-2.2,0-3.3,1.3-3.3,3.8v8.7c0,2.8,1.3,4.8,4,5.9c4.8,2.2,8.2,6.8,10.4,13.7l34.8,117.7v88.2
	c0,5.9-2.2,10.4-6.6,13.6c-3,2.1-4.5,4.4-4.5,7v8.2c0,2.4,1.3,3.7,3.8,3.7h54.3c3,0,4.5-1.3,4.5-4v-7.8c0-2.7-1.5-5-4.3-7
	c-4.5-3-6.8-7.5-6.8-13.6v-88.2l34.6-116.4c2-6.5,6.3-11.4,12.9-14.6C342.6,872.1,344.3,870.1,344.3,867.5z M444,1043.9
	c0,27.1-4.5,48.1-13.6,62.8c-9,14.7-22.1,22.1-39.1,22.1c-17.3,0-30.6-7.2-39.9-21.7c-9.3-14.4-14-35.9-14-64.3
	c0-29.7,4.9-51.3,14.6-65c9.7-13.6,22.1-20.4,37.1-20.4C425.7,957.5,444,986.3,444,1043.9z M405.9,1026.5c0-19.8-1.2-33.4-3.7-40.8
	c-2.4-7.4-6.4-11-11.8-11c-10.1,0-15.1,14-15.1,42.1v39.3c0,20.9,1.1,35.3,3.4,43.4c2.3,8.1,6.4,12.1,12.4,12.1
	c5.1,0,8.8-3.1,11.2-9.3c2.4-6.2,3.6-17.7,3.6-34.4V1026.5z M581.9,1109.5c-3.1-2.8-4.7-5.6-4.7-8.3v-140l-38.4,0.7
	c-2.2,0-3.3,1-3.3,3.1v8.5c0,0.9,0.9,2.2,2.6,3.8c3.1,2.8,4.7,5.5,4.7,8.2v107.7c-5.3,7-10.8,10.4-16.4,10.4
	c-6.4,0-9.6-4.2-9.6-12.5V961.1l-38.4,0.7c-2.3,0-3.5,1-3.5,3.1v8.5c0,0.9,0.9,2.2,2.8,3.8c3.1,2.8,4.7,5.5,4.7,8.2v110.1
	c0,9.5,2.5,17.2,7.4,23c4.9,5.9,11.9,8.8,20.8,8.8c8.9,0,19.7-5,32.2-15.1v13.6l38.4-0.7c2.3-0.1,3.5-1.2,3.5-3.3v-8.4
	C584.6,1112.4,583.7,1111.1,581.9,1109.5z M682.3,958.8c-13.8,0-24.5,12.5-32.2,37.4v-35.1l-31,0.5c-3.2,0.1-4.9,1.3-4.9,3.7v8.5
	c0,0.9,0.8,2.2,2.3,3.8c3.8,3.9,5.7,9,5.7,15.1v107.3c0,4.9-1.9,8.2-5.6,9.9c-1.6,0.7-2.4,1.6-2.4,2.6v10.8c0,1.2,0.7,1.7,2.1,1.7
	h47.5c1.5,0,2.3-0.9,2.3-2.6v-8.7c0-0.8-0.9-2-2.8-3.7c-4.4-4.2-6.6-8.9-6.6-14.1v-59.2c0-18.6,4.2-34.5,12.5-47.9
	c4.4,5.2,9.3,7.9,14.6,7.9c4.9,0,8.8-1.8,11.8-5.5c3-3.7,4.5-8.1,4.5-13.3s-1.6-9.7-4.8-13.6C692.2,960.8,687.9,958.8,682.3,958.8z
	 M786,1027.2c-13.3-9.6-21.6-16.6-24.7-21s-4.7-9-4.7-13.8c0-5.7,1.7-10.1,5.1-13.3c3.4-3.2,7.3-4.8,11.8-4.8c6.2,0,9.2,2,9.2,6.1
	c0,0.8-0.4,2-1.1,3.7c-1.1,2.4-1.6,4.6-1.6,6.6c0,4.9,1.7,8.6,5.1,11.2c3.4,2.6,7.3,3.9,11.7,3.9c5.4,0,9.9-1.8,13.3-5.4
	c3.4-3.6,5.1-7.9,5.1-12.9c0-8.7-3.7-15.9-11-21.6c-7.4-5.7-16.7-8.5-28.1-8.5c-12.5,0-23.7,4.3-33.4,12.9
	c-9.7,8.6-14.6,19.8-14.6,33.6c0,10.8,2.8,20,8.5,27.7c5.7,7.7,15.5,16.9,29.4,27.6c10.3,7.9,17.2,14.1,20.8,18.7
	c3.5,4.6,5.3,9.6,5.3,15c0,5-2,9.4-6.1,13.3c-4.1,3.9-9.2,5.8-15.3,5.8c-8.1,0-12.2-2.8-12.2-8.5c0-1,0.4-2.8,1.1-5.4
	c0.7-2.8,1.1-5,1.1-6.8c0-10.6-5.6-15.8-16.7-15.8c-6.1,0-10.8,1.9-14.1,5.8c-3.2,3.9-4.9,8.5-4.9,13.8c0,9.7,4.1,17.8,12.3,24.1
	c8.2,6.3,18.9,9.5,32.1,9.5c13.9,0,25.9-4.3,36-13c10.1-8.6,15.1-20.8,15.1-36.4c0-9.9-2.6-18.7-7.7-26.5
	C807.9,1045,798.9,1036.5,786,1027.2z"/>
</svg>
