<?xml version="1.0" encoding="utf-8"?>
<!-- Generator: Adobe Illustrator 18.0.0, SVG Export Plug-In . SVG Version: 6.00 Build 0)  -->
<!DOCTYPE svg PUBLIC "-//W3C//DTD SVG 1.1//EN" "http://www.w3.org/Graphics/SVG/1.1/DTD/svg11.dtd">
<svg version="1.1" id="Layer_1" xmlns="http://www.w3.org/2000/svg" xmlns:xlink="http://www.w3.org/1999/xlink" x="0px" y="0px"
	 viewBox="0 0 432 432" enable-background="new 0 0 432 432" xml:space="preserve">
<g id="HATCH_851_">
	<path d="M226,191.3c0-0.5-0.7-4.9-0.9-5.7c-0.1-0.4-0.8-1.2-1.2-1.3c-0.6-0.2-1.1-0.1-2.6,0.5c-3.2,1.2-7.4,3.4-10,5.4
		c-1.7,1.3-4.3,3.6-5.3,4.8c-2.8,3.3-4.3,7.8-3.9,11.3c0.2,1.7,0.3,2,1.1,3.8l0.7,1.4l-5,7.5c-2.8,4.2-5.6,8.6-6.4,10
		c-0.8,1.4-1.4,2.4-1.5,2.3c0-0.1-0.4-1.4-0.8-2.9c-1.2-4.2-2.4-7.4-4.4-12.4c-1-2.5-1.9-4.7-2-4.8c-0.1-0.1,0.2-0.5,0.7-1.1
		c1.4-1.4,2.3-3.6,2.7-6.5c0.4-3.2-1-8.1-3.5-12c-2.5-4-7-7.9-11.3-10.1c-1.9-1-5.1-2.2-6-2.3c-0.9-0.1-1.7,0.3-2,1
		c-0.4,0.7-0.4,13.6,0,16.3c0.9,7.1,2.8,10.8,7,13.5c2.1,1.4,4.7,2,7.3,1.9l1.4-0.1l0.5,1.2c3.3,8.1,4.7,12,6.4,17.9
		c3.2,11.3,4.5,18.7,4.8,28.6c0,1.3,0.1,2.6,0.2,2.9c0.1,0.4,0.8,1.3,1.1,1.3c0.1,0,0.3,0,0.5,0.1c0.7,0.1,1.3-0.2,1.6-0.9
		c0.3-0.6,0.3-0.7,0.3-3.8c-0.2-6.3-0.9-12.6-2.2-18.3c-0.4-1.8-0.7-3.5-0.7-3.6c0-0.5,1.6-4,2.8-6.2c0.7-1.2,3.4-5.4,6-9.5
		c4.1-6.1,4.9-7.3,5.1-7.2c0.2,0,0.8,0.2,1.4,0.3c2.7,0.6,6.6-0.3,9.4-2.3c5.1-3.5,7.7-8.4,8.4-15.6
		C226,195.4,226.1,192.6,226,191.3z M222.3,195l-0.1,0.9l-1.6,0.1c-0.9,0.1-1.7,0.1-1.7,0c0,0,0.7-1.2,1.6-2.6l1.7-2.5l0.1,0.6
		C222.4,192.4,222.4,194,222.3,195z M221.2,201.5c-0.5,1.7-1.3,3.4-1.7,3.3c-0.4-0.1-4.2-0.8-5.1-0.9c-0.7-0.1-0.8-0.2-0.8-0.3
		c0.1-0.3,2-3.1,2.2-3.2c0.1-0.1,3.1-0.5,4.7-0.7C221.8,199.6,221.8,199.6,221.2,201.5z M215.1,194.6c0,0-0.3-0.4-0.5-1
		c-0.5-1.1-0.6-0.9,1.3-2c2.5-1.5,2.4-1.6,0.8,0.8C215.8,193.6,215.1,194.6,215.1,194.6z M215.1,209.5c-1.2,0.8-2.3,1.2-3.8,1.5
		c-1,0.2-2.6,0.2-2.6,0c0-0.1,2.3-3.5,2.5-3.7c0-0.1,5.2,0.7,5.5,0.8C217,208.2,216.6,208.5,215.1,209.5z M211.5,199.9
		c-0.5,0.7-0.9,1.3-1,1.4c-0.1,0.1-1.8-2.7-2-3.3c-0.1-0.1,0.3-0.7,1.2-1.6c0.7-0.8,1.3-1.4,1.4-1.4c0.2,0,1.2,2.7,1.3,3.5
		C212.4,198.6,212,199.2,211.5,199.9z M207,206.7l-0.8,1.2l-0.2-0.5c-0.3-0.8-0.4-3.3-0.1-4.6l0.3-1.1l0.8,1.6
		c0.6,1.1,0.8,1.7,0.8,1.9C207.8,205.4,207.4,206,207,206.7z M183.1,205.1c-0.4,1-0.8,1.9-0.9,1.9c0,0-0.4-0.8-0.9-1.8l-0.8-1.8
		l1.3-1.9l1.3-1.9l0.1,0.7C183.6,201.4,183.4,204.2,183.1,205.1z M180.3,197.3c-0.6,0.9-1.2,1.8-1.4,2c-0.2,0.3-0.3,0.3-0.8-1
		l-0.6-1.3l0.2-0.9c0.2-0.9,1.4-4.5,1.5-4.5c0,0,0.4,0.4,0.7,0.9c0.8,1.1,1.7,2.7,1.7,3C181.5,195.5,180.9,196.4,180.3,197.3z
		 M177.2,208.2c-2.2-0.1-3.6-0.8-5.6-2.7c-1-0.9-1.6-1.9-1.2-1.7c0.1,0,1,0.2,1.9,0.4c4,0.7,4.8,0.9,4.8,0.9c0,0,1.4,3,1.4,3.1
		C178.6,208.3,178,208.2,177.2,208.2z M175.4,190.6l-0.5,1.6l-0.5-0.9c-0.4-0.7-2.8-4.9-3.7-6.4c-0.2-0.4,2.6,1.5,4.2,2.7
		c0.8,0.7,1.1,1,1.1,1.2C176,188.9,175.7,189.7,175.4,190.6z M174.8,200.9c-1.2-0.2-2.2-0.4-3.5-0.7c-0.8-0.2-1.7-0.3-2-0.3
		c-0.6,0-0.6,0-0.9-1.5c-0.2-1.2-0.4-1.2,2.2-0.6c1,0.2,2.2,0.5,2.6,0.6l0.8,0.2l0.6,1.1c0.3,0.6,0.6,1.1,0.6,1.2
		C175.2,200.9,175,200.9,174.8,200.9z M169.9,193.9l-1.9-0.4v-3v-3l0.5,0.7c0.6,1,3.4,5.8,3.4,5.9
		C171.8,194.2,170.9,194.1,169.9,193.9z"/>
</g>
<g>
	<g>
		<path fill="#000100" d="M111.1,324.4c-0.3-2.4-0.7-5.2-1.1-8.5c-0.4-3.3-0.8-6.5-1.1-9.7c-0.5-3.5-0.8-7.2-1-11
			c-0.8-6.1-1.8-11.7-2.9-17.1c-1.1-5.3-2.2-10.1-3.1-14.2c-1.1-4.8-2.3-9.2-3.6-13.4c-1.3-4.5-2.7-8.6-4.2-12.5
			c-1.5-3.9-2.9-7.3-4.2-10.2c-1.6-3.3-3-6.5-4.3-9.3l0.7,10c0.5,6.7,0.7,16.4,0.7,29.2c0,6.5-0.1,13.3-0.2,20.3
			c-0.2,7-0.3,13.9-0.5,20.6c-0.2,6.7-0.4,12.9-0.7,18.8c-0.3,5.8-0.6,10.6-1,14.5c-0.2,2.9-0.5,5.4-1,7.6c-0.3,1.9-0.7,3.6-1.2,5.1
			c-0.5,1.5-1.1,2.3-1.9,2.3c-2.4,0-4.1-2.1-5-6.2c-1-4.1-1.3-10.8-1-19.8c0-3,0-7.8,0.1-14.3c0.1-6.5,0.2-13.8,0.4-21.9
			c0.2-8,0.4-16.3,0.7-24.7c0.3-8.4,0.7-16.2,1.2-23.3c0.5-7.1,1.1-12.9,1.9-17.6c0.8-4.6,1.8-7,3.1-7.2h0.2c0.3,0,0.6,0.1,0.7,0.2
			c0.5,0,1,0.1,1.7,0.2c0.5,0.2,1.1,0.4,1.8,0.7c0.7,0.3,1.5,0.8,2.3,1.4c1.3,1.3,2.5,2.9,3.8,4.8c1.1,1.8,2.3,4,3.7,6.7
			c1.4,2.7,2.7,6.1,4.2,10c1,2.4,1.8,4.9,2.6,7.4c0.8,2.2,1.6,4.7,2.5,7.5c0.9,2.8,1.7,5.5,2.5,8.2c0.6,2.4,1.3,5,1.9,7.9
			c0.5,2.4,1,5.1,1.6,8c0.6,3,1,5.8,1.3,8.5c0.2-8.4,0.4-17.3,0.7-26.6c0.3-9.3,0.7-18,1.2-25.9c0.5-8,1-14.7,1.7-20.2
			c0.6-5.5,1.4-8.6,2.4-9.4c1.1-1,2.2-1.2,3.3-0.7c0.8,0.3,1.7,1.4,2.6,3.1c1,1.8,1.8,4.8,2.4,9.1c0.5,2.9,0.8,7.1,1.1,12.8
			c0.2,5.7,0.4,12,0.5,19.1c0.1,7.1,0.1,14.6,0.1,22.6c0,8-0.1,15.8-0.2,23.4c-0.2,7.6-0.4,14.9-0.7,21.6
			c-0.3,6.8-0.7,12.4-1.2,16.8c-0.2,3.2-0.6,6.1-1.2,8.6c-0.5,2.2-1.2,4.2-2,5.9c-0.9,1.7-2,2.5-3.2,2.5c-2.7,0-4.6-1-5.7-3.1
			c-1.1-2.1-1.8-5.4-2.2-10c-0.3-1.1-0.6-2.3-0.7-3.7C111.6,327.9,111.4,326.3,111.1,324.4z"/>
		<path fill="#000100" d="M146.7,264.2c1.3,0.8,2.8,2.7,4.5,5.6c1.8,3,2.5,7.9,2.4,14.9c-0.2,4.3-0.3,8.8-0.4,13.5
			c-0.1,4.7-0.2,9.2-0.4,13.4c-0.2,4.2-0.2,7.9-0.2,11c0,3.1,0.1,5.1,0.2,6.1c0,1.3,0.5,2.5,1.4,3.8c1,1.3,2.2,1.7,3.8,1.2
			c1.6-0.5,3.5-2.3,5.6-5.5c2.2-3.2,4.5-8.5,7.1-16c0.3-1.8,0.7-3.3,1.2-4.5c0.3-1.1,0.8-2.1,1.3-3c0.6-0.9,1.1-1.3,1.6-1.3
			c2.7,0.5,3.2,3.2,1.4,8.1c-0.3,1.3-1,3.5-2.2,6.8c-1.1,3.3-2.6,6.7-4.5,10.2c-1.9,3.5-4.2,6.5-6.9,9.1c-2.7,2.6-6,3.7-9.8,3.6
			c-3.7-0.2-6.6-1.5-8.7-3.9c-2.2-2.5-3.7-6.3-4.8-11.5c-1-5.2-1.6-11.9-1.7-20.3c-0.1-8.4,0.1-18.7,0.6-30.9c0-2.1,0.2-4,0.7-5.7
			c0.3-1.4,0.8-2.7,1.6-3.9c0.7-1.2,1.9-1.7,3.5-1.6c0.3,0.2,0.6,0.2,1,0.2c0.3,0.2,0.6,0.2,0.8,0.2
			C146.1,263.7,146.4,263.8,146.7,264.2z M148.1,261c-0.2,0-0.4-0.1-0.7-0.2c-0.3-0.2-0.9-0.9-1.7-2.2c-0.2-0.2-0.4-0.6-0.7-1.2
			c-0.5-1.3-1-2.8-1.7-4.5c-0.6-1.8-1-3.5-1.2-5.4c-0.2-1.8,0-3.5,0.4-4.9c0.4-1.4,1.3-2.5,2.7-3.3c1.4-0.8,2.7-0.5,3.7,1
			c1,1.4,1.8,3.3,2.2,5.7c0.4,2.4,0.6,4.9,0.5,7.4c-0.1,2.5-0.4,4.5-1.1,6C150,260.8,149.2,261.4,148.1,261z"/>
		<path fill="#000100" d="M227,295.7c-0.2,4.9-0.2,9.6-0.2,14.1c0,3.8,0,7.8-0.1,11.9c-0.1,4.1,0,7.6,0.1,10.3
			c0.2,5.3,0.2,10.5,0.1,15.8c-0.1,5.3-0.4,10.4-0.8,15.5c4.5-0.3,8.8-1,13.1-2c4.3-1,8.4-2.8,12.2-5.4c0.6-0.5,1.3-0.6,2-0.4
			c0.7,0.2,1.2,0.7,1.6,1.3c0.3,0.6,0.4,1.3,0.4,2c-0.1,0.7-0.5,1.3-1.3,1.8c-1.3,0.8-2.7,1.6-4.2,2.4c-1.5,0.8-3,1.4-4.4,1.9
			c-3.2,1.3-6.5,2.2-9.8,2.6c-3.3,0.5-6.7,0.9-10,1.2c-0.2,1.1-0.3,2.2-0.4,3.3c-0.1,1.1-0.3,2.2-0.6,3.3c-0.6,3.7-1.4,7.3-2.3,11
			c-0.9,3.7-2.2,7.2-3.9,10.5c-1.3,2.7-2.9,5.3-4.9,7.8c-2,2.5-4.4,4.3-7.3,5.6c-3,1.1-6.2,1.6-9.6,1.4c-5.6-0.5-10-2.8-13.4-6.9
			c-1.8-2.1-3.3-4.3-4.7-6.8c-1.4-2.5-2.3-5.1-2.7-7.8c-0.3-2.7-0.1-5.5,0.7-8.2c0.8-2.8,2.2-5.3,4.1-7.5c1.8-2.1,3.9-3.7,6.3-4.8
			c2.5-1.1,5.1-2.1,7.8-2.9c3.2-1,6.3-1.6,9.4-1.9c3.1-0.3,6.3-0.6,9.4-1c0-6.7-0.2-12.9-0.6-18.8c-0.4-5.8-0.8-10.1-1.1-12.8
			c-1.3,3.7-3.2,6.7-5.7,9.2c-2.6,2.5-6.6,3.6-12.2,3.5c-4.6-0.2-8.5-1.8-11.6-4.8c-3.1-3-5.6-6.7-7.4-10.9
			c-1.8-4.2-3.1-8.6-3.8-13.1c-0.7-4.5-1-8.4-0.8-11.6c0-7.6,0.9-14.5,2.6-20.6c0.6-2.5,1.6-5.1,2.7-7.5c1.2-2.5,2.7-4.7,4.5-6.7
			c1.8-2,4-3.6,6.5-4.9c2.5-1.3,5.4-2,8.7-2.2c3.2,0,6.1,0.7,8.8,2.2c2.2,1.3,4.4,3.3,6.6,6.2c2.2,2.9,3.5,7.2,3.9,12.9
			c1.1-0.8,2.3-1.1,3.6-1C224.1,284.1,227,288.2,227,295.7z M187.1,401.1c2.2,2.7,4.9,4.5,8.1,5.3c3.3,0.3,6.1-0.5,8.2-2.4
			c2.2-1.9,3.9-4.5,5.4-7.9s2.5-7.3,3.1-11.7c0.6-4.5,1.1-9.1,1.4-13.9c-3.5,0.6-7.3,1.6-11.5,2.9c-4.1,1.3-7.8,3-11.1,5.1
			c-3.3,2.2-5.6,4.7-7,7.8c-1.4,3-1.2,6.7,0.7,11c0.2,0.3,0.4,0.8,0.8,1.6C185.7,399.5,186.3,400.3,187.1,401.1z M207.2,330.1
			c1.6-3.5,2.7-7.3,3.3-11.4c0.6-4.1,1-7.8,1.2-11.4c0.2-4.1,0.1-8.2-0.2-12.2c0-0.6-0.2-2.2-0.5-4.7c-0.3-2.5-0.8-5.1-1.6-7.9
			c-0.7-2.8-1.6-5.4-2.7-7.9c-1.1-2.5-2.6-4.2-4.5-5.1c-3.8-1.8-7.1,0.1-9.8,5.6c-2.7,5.5-4.5,15.2-5.3,29
			c-0.3,8.3-0.1,14.7,0.6,19.4c0.7,4.6,1.6,8,2.7,10.3c1.3,2.7,2.7,4.3,4.3,4.8c2.7,0.8,5.1,0.3,7.3-1.6
			C204.2,335.3,205.9,333,207.2,330.1z"/>
		<path fill="#000100" d="M305.9,303.3c2.4,0.5,2.9,3.2,1.4,8.1c-0.3,1.3-1.1,4.3-2.3,9.1c-1.2,4.8-2.8,9.8-4.8,14.9
			c-2,5.2-4.4,9.8-7.3,13.9s-6.2,6-10,5.9c-2-0.2-3.9-0.7-5.5-1.7s-3.1-2.7-4.4-5.4c-1.3-2.6-2.3-6.2-3.1-10.8s-1.3-10.4-1.4-17.6
			v-15.8c0-1.6,0-3.7-0.1-6.2c-0.1-2.5-0.2-5.1-0.5-7.6c-0.2-2.5-0.6-4.8-1.1-6.8c-0.5-2-1.1-3.3-1.9-3.9c-0.6-0.5-1.4,0.1-2.4,1.7
			c-1,1.6-2,3.8-3,6.7c-1,2.9-2.1,6.1-3.1,9.8c-1,3.7-2.1,7.4-3.1,11.2c-1,3.8-1.9,7.5-2.6,11c-0.7,3.5-1.3,6.5-1.8,8.8
			c-0.2,1.1-0.6,2.1-1.2,2.9c-0.5,0.8-1.2,1.5-2.2,2c-1,0.6-2.1,0.8-3.3,0.6c-0.3,0-0.8-0.1-1.3-0.4c-0.6-0.2-1.1-0.8-1.7-1.8
			c-0.6-1-1.2-2.3-1.8-4.2c-0.6-1.8-1.1-4.3-1.4-7.5c-0.3-2.5-0.6-6.3-0.8-11.4s-0.4-10.8-0.6-17.2c-0.2-6.5-0.2-13.3-0.2-20.6
			c0-7.2,0.1-14.3,0.2-21.2c0.2-6.8,0.4-13.3,0.6-19.4c0.2-6.1,0.6-11.1,1.1-15.1c0.2-2.7,0.5-5.2,1-7.4c0.3-1.9,0.8-3.7,1.6-5.3
			c0.7-1.6,1.7-2.4,3-2.4c3.2,0,5.5,2,7,6.1c1.5,4.1,2.1,10.6,1.8,19.7c0,2.6,0,6.3,0,11.2c0,4.9,0,10.6-0.1,17
			c-0.1,6.4-0.2,13.1-0.2,20.1c-0.1,7-0.3,13.9-0.6,20.6c1-3.2,1.9-6.3,3-9.2c1-2.9,2.2-5.6,3.3-8c1.2-2.4,2.5-4.3,3.9-5.9
			c1.4-1.5,2.9-2.3,4.3-2.5c0.8,0,1.6,0,2.3-0.1c0.7-0.1,1.5,0,2.3,0.1c2.2,0.2,4.2,0.8,6.1,1.9c1.9,1.1,3.5,3,4.8,5.6
			s2.4,6.2,3.1,10.6c0.7,4.5,1.1,10,1.1,16.7c0,1.1,0,2.3-0.1,3.5c-0.1,1.2-0.1,2.4-0.1,3.7c0,3.5,0,7-0.1,10.5
			c-0.1,3.5-0.1,6.8-0.1,9.8c0,3,0,5.6,0,7.8c0,2.2,0.1,3.5,0.2,4.2c0.2,1.3,0.8,2,1.8,2.3c1,0.2,2.4-0.7,4.1-2.7
			c1.7-2.1,3.5-5.5,5.6-10.4c2.1-4.9,4.3-11.8,6.7-20.9c0.3-1.8,0.7-3.3,1.2-4.5c0.3-1.1,0.8-2.1,1.3-3
			C304.9,303.8,305.4,303.3,305.9,303.3z"/>
		<path fill="#000100" d="M266.4,234.8c-0.6,0-1.1-0.1-1.4-0.2c-1.1-0.3-2.1-0.8-3-1.6c-0.9-0.7-0.8-2,0.1-3.9
			c0.6-1.4,1.5-2.2,2.6-2.3c1.1-0.1,2.4,0.1,3.9,0.6c1.5,0.5,3.2,1.1,5.1,1.8c1.9,0.7,4.1,1.2,6.5,1.3h23.2c0.2-3,0.4-6,0.7-8.8
			c0.2-1.9,0.5-3.7,0.9-5.5c0.3-1.3,0.8-2.5,1.5-3.7c0.7-1.2,1.7-1.9,2.9-2c3.1-0.3,5.4,0.8,6.8,3.5c1.4,2.6,2,8.1,1.9,16.4
			c4.8-0.2,9.6-0.2,14.3-0.2c4.8,0,9.6,0,14.3,0c7.6,0.2,15.3,0.4,23.1,0.6c7.7,0.2,15.4-0.1,23.1-1.1c2.5-0.3,4.3,0,5.1,1.1
			c0.9,1,1.2,2.2,1.1,3.3c-0.2,1.2-0.6,2.3-1.3,3.2c-0.7,1-1.5,1.1-2.3,0.5c-0.8-0.5-2-0.9-3.7-1.3c-1.7-0.4-3.5-0.7-5.4-0.8
			c-1.9-0.2-3.7-0.3-5.5-0.5c-1.8-0.2-3-0.2-3.6-0.2c-5.1,0.2-10.2,0.2-15.3,0c-5.1-0.2-10.2-0.3-15.3-0.5c-4.8,0-9.6,0-14.3,0
			c-4.8,0-9.6,0.1-14.3,0.2c-0.2,5.4-0.2,13.3,0,23.5c0.2,10.3,0,21.4-0.5,33.3c0,1.9,0,4.4-0.1,7.4c-0.1,3-0.2,6.4-0.2,10
			c-0.1,3.7-0.2,7.4-0.2,11.2c-0.1,3.8-0.1,7.4-0.1,10.6c0,3.3,0,6.1,0.1,8.5c0.1,2.4,0.2,4,0.4,4.8c0.2,1.3,0.8,2,1.8,2.3
			c1,0.2,2.3-0.7,3.9-2.7c1.6-2.1,3.4-5.5,5.5-10.4c2.1-4.9,4.3-11.8,6.7-20.9c0.5-1.8,1-3.3,1.4-4.5c0.3-1.1,0.7-2.1,1.2-3
			c0.5-0.9,1-1.3,1.7-1.3c2.4,0.5,2.8,3.2,1.2,8.1c-0.3,1.3-1,4.3-2.2,9.1c-1.1,4.8-2.7,9.8-4.8,14.9c-2.1,5.2-4.5,9.8-7.4,13.9
			c-2.9,4.1-6.1,6-9.8,5.9c-2.5-0.2-4.7-1-6.7-2.6c-2-1.6-3.5-4.5-4.7-8.7c-1.2-4.2-2-10.1-2.6-17.6c-0.6-7.5-0.7-17.4-0.3-29.6
			l0.2-24.1c0-7.5,0-14.4,0-20.7c0-6.3,0.2-12.1,0.5-17.3c-5.6,0.2-11.2,0.2-16.8,0.2c-5.7,0-11.4,0-17.1,0H266.4z"/>
	</g>
</g>
<g>
	<g>
		<path fill="#F37778" d="M75,62.1c-6.6,18.5-11.3,34.6-14,48.2c-0.8,3.9-1.4,7.8-1.9,11.5c-0.5,3.7-0.7,7.2-0.7,10.5
			c0,3.3,0.3,6.2,0.9,8.9c0.6,2.6,1.6,4.7,2.9,6.4c1.3,1.6,3.1,2.7,5.2,3.2c2.1,0.5,4.8,0.3,8-0.6c4.8-1.4,9-3.6,12.5-6.7
			c3.5-3.1,6.6-6.7,9-10.8c2.5-4.1,4.5-8.6,6-13.5c1.5-4.8,2.6-9.7,3.3-14.7c0.7-5,1-9.8,1-14.5c0-4.7-0.4-9-1-12.9
			c-0.6-3.9-1.6-7.2-2.8-9.9c-1.2-2.7-2.6-4.6-4.1-5.5c-1.8-1.7-3.4-2-4.7-0.9c-1.3,1.1-2.5,3-3.4,5.6c-0.9,2.6-1.6,5.6-2.1,9.1
			c-0.4,3.5-0.6,6.7-0.6,9.7c0,3,0.2,5.4,0.7,7.3c0.5,1.8,1.2,2.5,2.1,1.9c1.3-1.2,2.3-1.6,3-1.3c0.7,0.3,1.2,1.1,1.3,2.2
			c0.2,1.2,0.1,2.5-0.3,4.1c-0.4,1.6-1,3-2,4.2c-0.9,1.2-2.1,2.2-3.6,2.8c-1.5,0.6-3.2,0.5-5.1-0.3c-1.9-0.4-3.3-1.9-4.3-4.5
			c-1-2.6-1.5-5.7-1.6-9.3c-0.1-3.6,0.3-7.6,1.2-11.9c0.9-4.3,2.3-8.4,4.1-12.3c1.8-3.9,4.2-7.4,7-10.5c2.8-3.1,6.2-5.3,10-6.5
			c2.7-0.9,4.9-0.1,6.7,2.4c1.8,2.5,3.3,6.2,4.2,11c1,4.8,1.6,10.5,1.7,17.1c0.2,6.6-0.1,13.5-0.9,20.7c-0.8,7.2-2,14.5-3.7,21.8
			c-1.7,7.3-3.9,14.1-6.5,20.3c-2.7,6.3-5.8,11.8-9.6,16.4c-3.7,4.7-8,7.9-12.8,9.8c-7.4,3-13.8,3.4-19.4,1.3
			c-5.6-2.1-9.9-6.1-13.1-11.7c-3.2-5.7-5-12.7-5.5-21.1c-0.5-8.4,0.6-17.4,3.5-26.9c2.4-8.8,5-16.7,7.8-23.7
			c2.8-7,5.5-12.9,8.1-17.6c2.7-4.7,5.1-8.3,7.3-10.7c2.2-2.4,4-3.4,5.3-3c1.1,0.4,1.8,0.9,2,1.5c0.2,0.6,0.2,1.1,0.1,1.6
			C76.1,60.8,75.6,61.4,75,62.1z"/>
		<path fill="#F37778" d="M252.4,176.3c-4.1,0.3-7.8-0.8-11-3.1c-3.3-2.4-5.9-5.9-7.9-10.6c-2-4.7-3.3-10.5-3.8-17.5
			c-0.6-6.9-0.2-14.9,1-23.9c-3.8,3-8,5.5-12.4,7.6c-4.4,2.1-8.8,3.7-13.2,4.7l-1.8,12.3c-3.8,12.5-6.2,19.4-7.1,20.8
			c-0.4,0.7-0.8,1.3-1.2,1.8c-0.4,0.5-0.8,1-1.1,1.4c-2.1,2.1-4.2,3.8-6.4,4.9c-2.2,1.2-4.6,1.7-7.1,1.7l8.2-41.8
			c-1.7-0.3-3.4-0.6-4.9-1c-1.6-0.4-3.1-0.9-4.7-1.6c-2.2,2.5-4.9,4.3-8.1,5.5c-3.2,1.2-6.5,1.3-10.1,0.4c-3.6-0.9-6.7-2.8-9.3-5.5
			c-2.6-2.7-4.7-6.1-6.3-9.9c-1.6-3.9-2.6-8.2-3.1-12.9c-0.5-4.7-0.4-9.5,0.3-14.4c0.5-3.4,1.3-6.7,2.4-9.9c1.1-3.2,2.2-6.1,3.4-8.7
			c1.2-2.6,2.3-4.7,3.4-6.5c1.1-1.8,1.8-2.9,2.2-3.4c2.1-2.6,4.5-4.8,7.1-6.8c2.6-2,5.4-3.5,8.3-4.7c3-1.2,6-1.9,9.2-2.2
			c3.2-0.3,6.4-0.1,9.7,0.7c3.8,0.9,7,2.3,9.6,4.4c2.7,2.1,4.8,4.5,6.5,7.4c1.7,2.9,3,6,3.9,9.4c0.9,3.4,1.5,7,1.7,10.7
			c-0.3,2.1-0.5,4.8-0.8,7.9c-0.3,3.1-0.6,6.5-1,10.2c-0.4,3.7-0.8,7.5-1.2,11.4c-0.4,3.9-0.8,7.8-1.2,11.5c4.6-0.5,9.2-1.9,13.7-4
			c4.5-2.2,8.6-5.2,12.3-9.2c0.6-3.1,1.4-6.7,2.5-10.9c1.1-4.2,2.4-8.5,4-12.9c1.6-4.4,3.4-8.7,5.5-13c2.1-4.2,4.4-8,7-11.2
			c2.6-3.2,5.5-5.7,8.5-7.5c3.1-1.8,6.5-2.5,10.1-2.1h0.5c-2.6,1.7-5,4.7-7.2,9c-2.2,4.3-4.3,9.4-6.2,15.3
			c-1.9,5.9-3.5,12.4-4.9,19.4c-1.4,7-2.6,14.1-3.5,21.1c-0.9,7.1-1.5,13.9-1.9,20.5c-0.3,6.6-0.4,12.5-0.1,17.6
			c0.3,5.1,0.9,9.3,1.9,12.4C249.2,174.5,250.6,176.1,252.4,176.3z M196.6,84.4c0.1-6.2-0.8-11.4-2.7-15.5
			c-1.9-4.1-5.4-6.8-10.7-8.3c-3.1-0.7-6-0.6-8.7,0.1c-2.7,0.8-5.3,2.1-7.6,3.8c-2.3,1.8-4.4,4-6.4,6.5c-1.9,2.5-3.6,5.2-5,8
			c-1.4,2.8-2.6,5.5-3.5,8.3c-0.9,2.7-1.5,5.2-1.7,7.3c-0.6,3.9-0.7,7.9-0.4,11.8c0.3,3.9,1.1,7.5,2.4,10.8c1.3,3.3,3,6.1,5.3,8.4
			c2.2,2.4,5,3.9,8.2,4.7c1.5,0.4,2.9,0.5,4.2,0.2c1.4-0.3,2.6-0.8,3.7-1.6c-1.9-1.6-3.3-3.6-4.4-5.9c-1-2.3-0.9-5,0.5-8
			c0.8-1.9,1.9-3.5,3.5-4.9c1.5-1.4,3.3-2.1,5.3-2.1c1,0,1.8,0.3,2.2,0.9c0.9,0.3,1.7,0.8,2.2,1.7c0.6,0.9,1,1.9,1.2,3
			c0.3,1.2,0.4,2.4,0.3,3.6c0,1.2-0.2,2.3-0.3,3.3l-0.3,1.3c0.6,0.6,1.5,1.2,2.7,1.8c0.6,0.3,1.2,0.7,1.8,1c0.6,0.3,1.2,0.5,1.9,0.7
			l4.1-20.7l1-5.6c0-0.3,0-1.2,0.1-2.6c0.1-1.4,0.2-3,0.3-4.6c0.1-1.7,0.3-3.2,0.4-4.6C196.5,85.7,196.6,84.8,196.6,84.4z"/>
		<path fill="#F37778" d="M290.4,113.3c0,0.5,0.2,1.5,0.6,2.9c0.4,1.4,1,2.7,1.9,3.8c0.8,1.1,1.9,1.8,3.1,2.2
			c1.3,0.3,2.8-0.3,4.5-1.9c1-0.9,2-1.9,2.8-3c0.9-1.1,1.7-2.1,2.4-3c0.8-0.9,1.5-1.7,2.3-2.4c0.8-0.6,1.5-1,2.3-1.2
			c0.9-0.2,1.3,0.1,1.3,0.9c0,0.8-0.3,1.8-1,3.1c-0.7,1.3-1.7,2.8-3,4.4c-1.3,1.7-2.7,3.3-4.2,4.8c-1.7,1.7-3.4,3.1-5.1,4.1
			c-1.7,1-3.1,1.9-4.3,2.6c-1.5,0.8-2.9,1.3-4.1,1.7c-0.9,4.2-2.3,7.8-4.1,10.9c-0.8,1.3-1.7,2.5-2.7,3.7c-1,1.2-2.2,2.2-3.5,3
			c-1.3,0.8-2.7,1.4-4.4,1.7c-1.6,0.3-3.4,0.2-5.4-0.3c-1.6-0.4-3.1-1.2-4.6-2.4c-1.4-1.2-2.6-2.8-3.6-4.9c-1-2.1-1.7-4.8-2.2-8
			c-0.5-3.2-0.5-7-0.1-11.5c0.4-5.8,1.7-10.4,3.7-13.6c2.1-3.3,4.3-5.7,6.7-7.3c2.8-1.9,5.9-3.1,9.2-3.6c2.1,0,3.9,0.5,5.5,1.4
			c1.5,0.8,2.8,2.1,3.9,3.9C289.8,107,290.4,109.7,290.4,113.3z M284.5,112.5c-0.2-1.3-0.5-2.4-0.9-3.3c-0.4-0.8-1-1.3-1.9-1.7
			c-0.8-0.4-1.9-0.2-3.3,0.4c-1.4,0.7-2.6,2.1-3.8,4.1c-1.2,2.1-2.1,4.3-2.8,6.7c-0.7,2.4-1,4.7-1,7c0,2.3,0.6,4,1.6,5.1
			c1,1.2,2.1,1.7,3.1,1.5c1.1-0.2,2-0.6,2.9-1.3c0.9-0.8,1.9-1.8,3-3.2c-0.4-0.9-0.8-1.9-1-2.8c-0.2-0.9-0.3-1.8-0.4-2.8
			c-0.1-1,0.1-1.9,0.5-2.9c0.3-0.9,0.7-1.8,1.2-2.6c0.4-0.8,0.9-1.6,1.3-2.2C283.5,113.8,283.9,113.1,284.5,112.5z"/>
		<path fill="#F37778" d="M330.5,58.8c-0.2,1.1-0.4,2.5-0.8,4.2c-0.3,1.5-0.8,3.5-1.3,6s-1.2,5.5-2.2,9.2c-0.5,1.8-1,4.1-1.5,6.9
			c-0.5,2.8-1,5.8-1.6,9.2c-0.6,3.3-1.1,6.8-1.7,10.5c-0.6,3.7-1,7.3-1.5,10.8c-0.4,3.6-0.9,7.4-1.4,11.3c-0.5,3.9-0.9,7.6-1.3,10.9
			c-0.3,3.3-0.6,6.1-0.8,8.3c-0.2,2.2-0.2,3.3,0,3.3c0.3,0.2,1.1-0.5,2.2-2.1c1.1-1.6,2.4-3.6,3.8-6c1.4-2.4,2.9-4.9,4.4-7.6
			c1.5-2.7,2.8-5,3.8-7.1c2.1-4,3.5-7.1,4.5-9.1c0.9-2.1,1.6-3.8,1.9-5.3c0.2-0.7,0.5-1.2,1-1.5c0.5-0.3,0.9-0.6,1.3-0.6
			c0.5-0.1,1.1,0,1.7,0.1c0.6-0.2,0.9,0.2,1,1c0.1,0.7-0.1,1.9-0.6,3.8c-0.5,1.8-1.5,4.7-3.1,8.5c-3.3,7.8-6.4,14.3-9.3,19.5
			c-2.9,5.2-5.5,9.4-7.8,12.6c-2.4,3.2-4.5,5.4-6.4,6.8c-1.9,1.4-3.5,2.1-4.7,2.1c-1.3,0.1-2.4-0.8-3.3-2.5c-0.9-1.8-1.6-4-2.2-6.7
			c-0.6-2.7-0.9-5.7-1.2-9c-0.2-3.3-0.3-6.4-0.2-9.4c0-2.4,0.2-5.5,0.6-9.2s0.9-7.8,1.5-12.3c0.4-3.4,0.9-6.9,1.5-10.6
			c0.6-3.6,1.1-7.2,1.7-10.7c0.6-3.5,1.1-6.8,1.7-9.9c0.6-3.1,1-5.9,1.5-8.4c0.8-4.1,1.6-7.4,2.6-9.9c1-2.5,2-4.5,3-5.8
			c1-1.4,2.1-2.3,3.2-2.8c1.1-0.5,2.2-0.8,3.2-0.8c1.1-0.2,2.1-0.1,3,0.1c0.9,0.2,1.6,0.5,2.2,0.8C329.5,57.8,330.1,58.3,330.5,58.8
			z"/>
		<path fill="#F37778" d="M373.5,102.4c2.7-0.1,4.5,0.8,5.6,2.7c1.1,1.9,1.6,4.4,1.6,7.5c0,3.1-0.4,6.7-1.1,10.6
			c-0.7,3.9-1.5,7.9-2.4,11.8c-0.9,3.9-1.7,7.7-2.5,11.4c-0.8,3.6-1.2,6.7-1.3,9.2c1.4-2.7,3-5.8,4.7-9.2c1.8-3.4,3.5-6.9,5.3-10.6
			c1.7-3.6,3.3-7.3,4.7-11c1.4-3.7,2.5-7.1,3.1-10.4c0.1-0.9,0.4-1.6,0.8-2.1c0.5-0.4,1-0.6,1.5-0.5c0.5,0.1,1,0.4,1.4,0.9
			c0.4,0.5,0.6,1.2,0.6,2.2c-0.4,4.6-1.3,9.1-2.6,13.4c-1.3,4.3-2.9,8.6-4.7,12.7c-1.8,4.2-3.8,8.2-5.8,12.3c-2,4-3.9,8-5.7,12.1
			c-1.5,3.3-3,6.5-4.6,9.7c-1.6,3.2-2.8,6.5-3.7,9.9c-0.2,0.9-0.7,1.9-1.5,3c-0.8,1.1-1.6,1.9-2.2,2.5c-1.7,1.2-3.3,1.4-4.7,0.6
			c-1.4-0.8-2.2-2.4-2.4-4.9c1.2-2.8,2.1-5.7,2.8-8.7c0.6-3,1.2-6.4,1.7-10.2c0.5-3.8,1-8.2,1.5-13.2c0.5-5,1.2-10.8,2.2-17.6
			c-3.3,4.5-6.4,7.8-9.3,9.8c-3,2-5.7,3-8.1,2.9c-2.5-0.1-4.7-1.1-6.6-3s-3.5-4.6-4.6-7.9c-1.2-3.3-1.9-7.3-2.1-11.7s0-9.3,0.9-14.6
			c0.5-3.2,1.6-5.7,3.3-7.7c1.7-2,3.5-3.2,5.3-3.7c1.8-0.5,3.5-0.1,4.9,1c1.5,1.2,2.2,3.3,2.2,6.5c-1.2,3.1-2.2,6.4-2.9,10.1
			c-0.7,3.6-1,7-0.8,10.2c0.2,3.2,1,5.8,2.4,8c1.4,2.2,3.5,3.3,6.5,3.4c1.1,0.1,2.1-0.8,3-2.6c0.9-1.8,1.6-4.1,2.4-6.9
			c0.7-2.7,1.4-5.7,2.1-9c0.7-3.3,1.4-6.3,2.2-9c0.8-2.8,1.8-5.1,2.8-7C370.7,103.5,372,102.5,373.5,102.4z"/>
	</g>
</g>
<g>
	<g id="SPLINE_909_">
		<path fill="none" stroke="#000000" stroke-width="0" stroke-linecap="round" stroke-linejoin="round" stroke-miterlimit="10" d="
			M344.7,283.2c1,0.3,1.3,0.2,2.3-0.6c4.9-4.2,8.9-13.3,8.5-19.2c-0.2-2.5-1.1-5.5-2.6-7.9c-0.9-1.6-1.6-2.3-3.1-3.3
			c-1.9-1.2-4.8-1.6-6.7-0.8c-1.5,0.6-2.7,1.8-3,3.1c-0.5,2-0.3,3.4,1.4,7.7c2.2,5.4,2.4,6.6,2.4,10.4c0,1.7-0.4,6.1-0.6,7.7
			C342.9,282.3,343.2,282.8,344.7,283.2z"/>
	</g>
	<g id="HATCH_550_">
		<path d="M344.7,283.2c1,0.3,1.3,0.2,2.3-0.6c4.9-4.2,8.9-13.3,8.5-19.2c-0.2-2.5-1.1-5.5-2.6-7.9c-0.9-1.6-1.6-2.3-3.1-3.3
			c-1.9-1.2-4.8-1.6-6.7-0.8c-1.5,0.6-2.7,1.8-3,3.1c-0.5,2-0.3,3.4,1.4,7.7c2.2,5.4,2.4,6.6,2.4,10.4c0,1.7-0.4,6.1-0.6,7.7
			C342.9,282.3,343.2,282.8,344.7,283.2z"/>
	</g>
	<g id="SPLINE_910_">
		<path fill="none" stroke="#000000" stroke-width="0" stroke-linecap="round" stroke-linejoin="round" stroke-miterlimit="10" d="
			M365.1,284c6-0.4,12.8-2.4,17.5-5.3c4.5-2.7,6.6-7,5.4-10.8c-0.5-1.5-1-2.1-2-2.8c-1.9-1.2-4.8-1.3-7.4-0.4c-1.5,0.5-4,2-5.5,3.3
			c-2.5,2.1-5.7,5.6-8.7,9.5c-0.9,1.1-1.9,2.5-2.4,3c-0.9,1-1,1.2-1,1.9c0,0.6,0.4,1.2,1,1.5C362.5,284.2,362.8,284.2,365.1,284z"/>
	</g>
	<g id="HATCH_551_">
		<path d="M365.1,284c6-0.4,12.8-2.4,17.5-5.3c4.5-2.7,6.6-7,5.4-10.8c-0.5-1.5-1-2.1-2-2.8c-1.9-1.2-4.8-1.3-7.4-0.4
			c-1.5,0.5-4,2-5.5,3.3c-2.5,2.1-5.7,5.6-8.7,9.5c-0.9,1.1-1.9,2.5-2.4,3c-0.9,1-1,1.2-1,1.9c0,0.6,0.4,1.2,1,1.5
			C362.5,284.2,362.8,284.2,365.1,284z"/>
	</g>
	<g id="SPLINE_911_">
		<path fill="none" stroke="#000000" stroke-width="0" stroke-linecap="round" stroke-linejoin="round" stroke-miterlimit="10" d="
			M356.6,300c0.2,0.3,0.3,0.4,0.4,0.4c0.1,0,0.2,0,0.2,0.1c0.1,0.1,0.4,0.2,0.7,0.3c2.8,0.9,8.6,3.6,11.3,5.4c1.5,0.9,4.7,3.7,6,5
			c3.3,3.4,4.7,4.2,7.4,3.9c1.3-0.1,2.2-0.5,3.1-1.3c2.5-2.2,2.8-6.3,0.7-10.1c-1.3-2.3-2.7-3.8-5.3-5.4c-1.4-0.8-5.2-2.5-7.1-3
			c-2.4-0.6-6.2-0.8-9.2-0.4c-1.4,0.2-4.2,0.8-5.4,1.1c-1,0.3-2.4,1.2-2.7,1.7c-0.2,0.5-0.3,1.3-0.2,1.5c0,0.1,0,0.2,0,0.2
			C356.4,299.5,356.4,299.7,356.6,300z"/>
	</g>
	<g id="HATCH_552_">
		<path d="M356.6,300c0.2,0.3,0.3,0.4,0.4,0.4c0.1,0,0.2,0,0.2,0.1c0.1,0.1,0.4,0.2,0.7,0.3c2.8,0.9,8.6,3.6,11.3,5.4
			c1.5,0.9,4.7,3.7,6,5c3.3,3.4,4.7,4.2,7.4,3.9c1.3-0.1,2.2-0.5,3.1-1.3c2.5-2.2,2.8-6.3,0.7-10.1c-1.3-2.3-2.7-3.8-5.3-5.4
			c-1.4-0.8-5.2-2.5-7.1-3c-2.4-0.6-6.2-0.8-9.2-0.4c-1.4,0.2-4.2,0.8-5.4,1.1c-1,0.3-2.4,1.2-2.7,1.7c-0.2,0.5-0.3,1.3-0.2,1.5
			c0,0.1,0,0.2,0,0.2C356.4,299.5,356.4,299.7,356.6,300z"/>
	</g>
</g>
</svg>
