<?xml version="1.0" encoding="utf-8"?>
<!-- Generator: Adobe Illustrator 22.1.0, SVG Export Plug-In . SVG Version: 6.00 Build 0)  -->
<svg version="1.0" id="Layer_1" xmlns="http://www.w3.org/2000/svg" xmlns:xlink="http://www.w3.org/1999/xlink" x="0px" y="0px"
	 viewBox="0 0 432 432" style="enable-background:new 0 0 432 432;" xml:space="preserve">
<style type="text/css">
	.st0{fill:#DC2127;}
	.st1{fill:#25582C;}
</style>
<path class="st0" d="M67.9,115.7c0.8,1.5,1.5,2.8,2.1,3.7c0.7,1.1,1.6,2,2.7,2.9c1.1,0.8,2.3,1.5,3.6,2c1.3,0.5,2.6,0.7,4,0.8
	c1.4,0,2.8-0.3,4.2-0.9c0.4-0.2,0.6-0.5,0.6-0.9s-0.2-0.8-0.6-0.9c-0.7-0.3-1.5-0.7-2.3-1.3c-0.8-0.5-1.7-1.3-2.5-2.2
	c-0.8-0.9-1.6-2-2.3-3.4c-0.7-1.3-1.3-2.9-1.7-4.7c-1-4.4-0.7-9,1-13.8c1.7-4.8,4.9-9.1,9.6-13.1c0.8-0.6,1.6-1.3,2.5-2
	c0.8-0.6,1.8-1.2,2.9-1.9c1.1-0.6,2.3-1.2,3.6-1.9c-0.5,2.8-0.8,5.6-0.8,8.6c0,3,0.6,5.7,1.7,8.3c1.2,2.5,3.1,4.7,5.7,6.4
	c2.7,1.7,6.4,2.8,11.2,3.1c5,0.3,9.6-0.6,13.7-2.7c4.1-2.1,7.7-4.9,10.8-8.4c3-3.5,5.6-7.6,7.6-12c2-4.5,3.5-8.9,4.4-13.3
	c0.9-4.4,1.3-8.5,1-12.4c-0.3-3.9-1.1-7-2.6-9.3c0.4-1.2,0.7-2.6,0.8-4c0.2-1.5,0-3-0.5-4.5c-0.5-1.3-1.3-2.4-2.2-3.4
	c-0.8-0.8-2-1.5-3.5-2.1c-1.5-0.5-3.3-0.7-5.5-0.3c-2.3,0.4-5,1.1-8.1,2.2c-3.1,1.1-6.3,2.9-9.7,5.3c-3.4,2.5-6.8,5.8-10.2,9.9
	c-3.4,4.2-6.6,9.5-9.7,16.1c-0.4,0.8-0.8,1.8-1.2,2.8c-0.8,1.9-1.5,4.3-2.2,7.1c-5.4,2.2-10.3,4.7-14.6,7.5
	c-4.4,2.8-7.9,6.3-10.6,10.5c-2.2,3.4-3.5,6.5-4.1,9.2c-0.6,2.7-0.7,5.2-0.5,7.4C66.6,112.3,67.1,114.2,67.9,115.7z M111.2,65
	c0.7-1.7,1.5-3.5,2.5-5.4c1-1.9,2.1-3.7,3.2-5.4c2.8-4.1,5.8-7.5,8.8-10.2c3-2.7,5.8-4.8,8.4-6.2c2.6-1.4,4.8-2.3,6.7-2.5
	c1.9-0.3,3.2,0,3.9,0.9c0.2,0.5,0.3,1.1,0.5,1.8c0.1,0.6,0.1,1.4,0.1,2.3c0,0.9-0.2,2-0.5,3.2c-1.3-0.7-2.7-1-4.3-0.9
	c-1.6,0.1-2.9,0.4-3.8,1.1c-0.9,0.7-1.6,1.3-2.1,2c-0.2,0.3-0.3,0.6-0.1,0.9c0.2,0.3,0.4,0.5,0.8,0.7c2.5,0.3,4.7,1.3,6.4,2.9
	c-0.5,0.8-1.4,1.9-2.5,3.3c-1.2,1.4-2.7,3-4.7,4.6c-2,1.7-4.4,3.3-7.2,5c-2.8,1.7-6.1,3.2-9.9,4.6c-1.5,0.5-2.9,1.1-4.3,1.6
	c-1.4,0.5-2.8,1-4.2,1.6C109.6,68.9,110.4,67,111.2,65z M105.4,83.5c0.3-2.1,0.8-4.1,1.3-6c0.5-1.9,1-3.4,1.4-4.7
	c2.5-0.9,4.6-1.7,6.4-2.3c1.8-0.6,3.4-1.2,4.9-1.8c1.2-0.5,2.8-1.1,4.8-1.8c2-0.7,4.2-1.7,6.6-2.9c2.4-1.2,4.7-2.7,7.2-4.4
	c2.4-1.7,4.6-3.8,6.4-6.3c1.5,2.7,2.2,6,2.1,9.8c0,3.9-0.7,7.9-1.9,12.3c-0.4,1.4-1,3.1-1.9,5c-0.9,2-2,4-3.3,6.1
	c-1.3,2.1-2.9,4.2-4.7,6.3c-1.8,2.1-3.8,3.9-6,5.4c-2.2,1.5-4.6,2.7-7.3,3.5c-2.7,0.8-5.5,1-8.5,0.5c-2.2-0.3-3.8-1.1-5-2.3
	c-1.2-1.2-2-2.7-2.5-4.5c-0.5-1.7-0.7-3.7-0.7-5.8C104.8,87.8,105,85.6,105.4,83.5z M148.9,80.6c0,0.6,0.3,0.9,0.9,0.9h1.2
	c-0.6,1.9-1.3,4.3-2.1,7c-0.8,2.7-1.5,5.6-2.1,8.6c-0.7,3-1.2,5.9-1.6,8.8c-0.4,2.9-0.6,5.5-0.5,7.9c0.1,2.4,0.6,4.4,1.4,5.9
	c0.8,1.5,2.1,2.4,3.8,2.5c2.1,0.2,3.9-0.3,5.6-1.6c1.7-1.3,3.1-3,4.3-5.3c1.2-2.2,2.3-4.8,3.1-7.7c0.8-2.9,1.4-5.9,1.7-9
	c0.3-3.1,0.5-6.1,0.4-9.1c-0.1-3-0.3-5.7-0.8-8h2.5c0.7,0,1-0.3,1-0.9c0-0.7-0.3-1-1-1H165c2.8-3.2,5.4-6.6,8-10.1
	c2.5-3.5,4.7-6.9,6.5-10.1c0.7-1.2,1.4-2.7,2-4.3c0.7-1.7,1.2-3.5,1.6-5.4c0.4-1.9,0.5-3.9,0.5-6c-0.1-2-0.6-4.1-1.5-6.1
	c-0.5-1.3-1.4-1.8-2.7-1.5c-1.3,0.3-2.8,1.2-4.5,2.7c-1.7,1.5-3.5,3.6-5.5,6.2s-4,5.6-6,9c-2,3.4-3.9,7-5.8,10.8
	c-1.9,3.9-3.5,7.8-4.9,11.9c-0.1,0.2-0.2,0.5-0.3,0.8c-0.2,0.5-0.5,1.2-0.7,2.1h-1.8C149.2,79.5,148.9,79.9,148.9,80.6z M164.8,72.5
	c0.7-1.7,1.4-3.5,2.3-5.4c2-4.2,3.8-7.7,5.5-10.4c1.7-2.7,3.1-4.8,4.3-6.2c1.2-1.4,2.2-2.3,2.9-2.5c0.7-0.3,1.1-0.1,1.3,0.4
	c0.2,0.6-0.1,1.9-0.7,3.8c-0.6,1.9-1.7,4.2-3.1,6.9c-1.5,2.7-3.4,5.7-5.7,9.1c-2.3,3.4-5.1,6.8-8.3,10.3c-0.1-0.2-0.1-0.3-0.2-0.6
	c0-0.2-0.1-0.4-0.2-0.6C163.5,75.8,164.2,74.2,164.8,72.5z M152.4,114.3c0.3-2.1,0.8-4.8,1.6-7.9c0.8-3.2,1.7-6.7,2.8-10.5
	c1.1-3.9,2.2-7.6,3.4-11.1l2.2-2.2c0.4,2,0.7,4.5,0.9,7.4c0.2,2.9,0,6.2-0.6,9.9c-0.5,3.5-1.3,6.5-2.2,8.8c-0.9,2.4-1.9,4.2-2.8,5.6
	c-1,1.4-1.9,2.3-2.9,2.8s-1.8,0.6-2.4,0.4C152,117.5,152.1,116.4,152.4,114.3z M176,76.6c-0.1,0.2-0.2,0.5-0.3,0.8
	c-0.2,0.5-0.5,1.2-0.7,2.1h-1.8c-0.6,0-0.9,0.3-0.9,1c0,0.6,0.3,0.9,0.9,0.9h1.2c-0.6,1.9-1.3,4.3-2.1,7c-0.8,2.7-1.5,5.6-2.1,8.6
	c-0.7,3-1.2,5.9-1.6,8.8c-0.4,2.9-0.6,5.5-0.5,7.9c0.1,2.4,0.6,4.4,1.4,5.9c0.8,1.5,2.1,2.4,3.8,2.5c2.1,0.2,3.9-0.3,5.6-1.6
	c1.7-1.3,3.1-3,4.3-5.3c1.2-2.2,2.3-4.8,3.1-7.7c0.8-2.9,1.4-5.9,1.7-9c0.3-3.1,0.5-6.1,0.4-9.1c-0.1-3-0.3-5.7-0.8-8h2.5
	c0.7,0,1-0.3,1-0.9c0-0.7-0.3-1-1-1h-1.7c2.8-3.2,5.4-6.6,8-10.1c2.5-3.5,4.7-6.9,6.5-10.1c0.7-1.2,1.4-2.7,2-4.3
	c0.7-1.7,1.2-3.5,1.6-5.4c0.4-1.9,0.5-3.9,0.5-6c-0.1-2-0.6-4.1-1.5-6.1c-0.5-1.3-1.4-1.8-2.7-1.5c-1.3,0.3-2.8,1.2-4.5,2.7
	c-1.7,1.5-3.5,3.6-5.5,6.2c-2,2.6-4,5.6-6,9c-2,3.4-3.9,7-5.8,10.8C179,68.6,177.4,72.6,176,76.6z M188,72.5
	c0.7-1.7,1.4-3.5,2.3-5.4c2-4.2,3.8-7.7,5.5-10.4c1.7-2.7,3.1-4.8,4.3-6.2c1.2-1.4,2.2-2.3,2.9-2.5c0.7-0.3,1.1-0.1,1.3,0.4
	c0.2,0.6-0.1,1.9-0.7,3.8c-0.6,1.9-1.7,4.2-3.1,6.9c-1.5,2.7-3.4,5.7-5.7,9.1c-2.3,3.4-5.1,6.8-8.3,10.3c-0.1-0.2-0.1-0.3-0.2-0.6
	c0-0.2-0.1-0.4-0.2-0.6C186.8,75.8,187.4,74.2,188,72.5z M185.6,82.5c0.4,2,0.7,4.5,0.9,7.4c0.2,2.9,0,6.2-0.6,9.9
	c-0.5,3.5-1.3,6.5-2.2,8.8c-0.9,2.4-1.9,4.2-2.8,5.6c-1,1.4-1.9,2.3-2.9,2.8s-1.8,0.6-2.4,0.4c-0.2-0.1-0.2-1.2,0.1-3.3
	c0.3-2.1,0.8-4.8,1.6-7.9c0.8-3.2,1.7-6.7,2.8-10.5c1.1-3.9,2.2-7.6,3.4-11.1L185.6,82.5z M206.1,60.5c-0.1,0.2-0.1,0.3-0.1,0.5
	c-0.2,3.4-0.8,6.3-1.8,8.7c-1,2.4-2,4.7-3.2,6.9c-1.2,2.2-2.5,4.3-3.8,6.4c-1.3,2.1-2.6,4.4-3.6,6.9c-0.9,2.3-1.5,4.3-1.6,6.1
	c-0.2,1.7-0.1,3.2,0.3,4.4c0.3,1.2,0.8,2.2,1.5,2.9s1.3,1.2,2,1.4c0.6,0.4,1.3,0.6,2.1,0.6c0.2,0,0.5,0,0.7-0.1
	c0.2,0,0.5-0.1,0.8-0.2c3.7-1.1,8.1-5.7,13.3-13.9c0.5-0.8,1-1.7,1.5-2.5c0,0.3-0.1,0.7-0.1,1c-0.1,2.6,0.2,4.9,1,6.9
	c0.8,2,1.7,3.6,2.9,4.9c1.1,1.2,2.2,2.1,3.3,2.6c1.1,0.5,2.1,0.8,2.9,1c1,0.2,1.9,0.2,2.8,0c2.9-0.8,6.2-3.8,9.9-8.9
	c-0.1,1.7,0,3.1,0.3,4.2c0.3,1.2,0.8,2.2,1.5,2.9s1.3,1.2,2,1.4c0.6,0.4,1.3,0.6,2.1,0.6c0.2,0,0.5,0,0.7-0.1c0.2,0,0.5-0.1,0.8-0.2
	c3.6-1,7.8-5.4,12.7-13c-0.1,0.6-0.2,1.2-0.2,1.8c-0.2,2.5,0,4.4,0.5,5.7c0.5,1.3,1,2.4,1.6,3.1c0.8,0.8,1.7,1.4,2.7,1.5
	c0.2,0.1,0.5,0.1,0.8,0.1c0.5,0.2,1,0.2,1.6,0c1.5-0.4,3.2-1.3,5-2.8c1.8-1.5,3.8-3.6,6-6.4c-0.5,2.9-0.3,5.2,0.6,6.7
	c0.9,1.5,1.9,2.5,2.9,2.9c0.5,0.2,0.9,0.3,1.3,0.3c0.4,0.1,0.8,0.1,1.2,0.2c0.4,0,0.8,0,1.2-0.2c3.7-1.1,8.1-5.7,13.3-13.9
	c0.9-1.4,1.8-2.9,2.6-4.2c-0.1,1.1-0.2,2.1-0.3,3.1c-0.1,1.7,0,3.4,0.1,5c0.2,1.7,0.6,3.2,1.2,4.6c0.7,1.4,1.6,2.5,2.8,3.4
	c1.2,0.9,2.8,1.4,4.7,1.7c0.7,0.1,1.4,0,2.1-0.3c0.7-0.3,1.3-0.6,1.9-1c0.6-0.4,1.2-0.8,1.9-1.4c2.5-2.4,5.4-6,8.4-10.9
	c0.9-1.5,1.8-2.9,2.7-4.3c0.8-1.4,1.6-2.7,2.1-3.8c0.6-1.1,1.2-2.4,1.9-3.8c0.3-0.6,0.2-1-0.5-1.3c-0.5-0.3-1-0.2-1.3,0.5
	c-0.6,1.1-1.3,2.3-2,3.6c-0.6,1.1-1.3,2.3-2.1,3.8c-0.8,1.4-1.6,2.9-2.5,4.3c-1.5,2.5-2.9,4.5-4.2,6c-1.2,1.5-2.4,2.8-3.5,3.8
	c-0.5,0.5-1.1,0.7-1.6,0.8c-0.5,0.2-0.9,0.1-1.4-0.2c-0.5-0.3-0.8-0.9-1-1.9c-0.6-1.8-0.8-4.1-0.4-6.9c0.3-2.7,0.8-5.3,1.4-7.7
	c3.5-3.6,7-7.6,10.3-12.1c3.4-4.4,6.1-8.7,8.3-12.7c0.7-1.2,1.4-2.7,2-4.3c0.7-1.7,1.2-3.5,1.6-5.4c0.4-1.9,0.5-3.9,0.5-6
	c-0.1-2-0.6-4.1-1.5-6.1c-0.5-1.3-1.4-1.8-2.7-1.5c-1.3,0.3-2.8,1.2-4.4,2.7c-1.7,1.5-3.5,3.6-5.5,6.2c-2,2.6-4,5.6-6,9
	c-2,3.4-3.9,7-5.8,10.8c-1.9,3.9-3.5,7.8-4.9,11.9c-0.4,1.2-0.7,2.4-1,3.6c-0.3,0.5-0.6,1.1-0.9,1.7c-0.6,1.1-1.3,2.3-2.1,3.8
	c-0.8,1.4-1.6,2.9-2.5,4.3c-2.6,4.1-4.8,7-6.6,8.8c-1.8,1.8-3.3,3-4.3,3.6c-0.5-0.9-0.3-2.5,0.4-4.7c0.7-2.2,1.7-4.7,3-7.4
	c1.3-2.7,2.6-5.5,4-8.2c1.4-2.7,2.6-5.1,3.5-7c1.3-2.7,1.9-5,1.6-7.1c-0.2-2-0.8-3.7-1.6-5c-0.9-1.5-2.2-2.7-3.9-3.8
	c-2-1.2-4.2-1.5-6.6-0.9s-4.8,1.9-7.2,3.7c-2.4,1.9-4.8,4.1-7.1,6.9c-2.3,2.7-4.3,5.6-6.1,8.5c-0.8,1.3-1.5,2.7-2.2,4
	c-0.1,0.1-0.1,0.3-0.2,0.4c-0.6,1.1-1.3,2.3-2.1,3.8c-0.8,1.4-1.6,2.9-2.5,4.3c-2.6,4.1-4.8,7-6.6,8.8c-1.8,1.8-3.3,3-4.3,3.6
	c-0.5-0.9-0.3-2.5,0.5-4.7c0.8-2.2,1.8-4.6,3.1-7.3c1.3-2.7,2.6-5.4,4-8.2c1.4-2.7,2.6-5.1,3.4-7.1c0.9-2.1,1.4-4,1.3-5.7
	c0-1.7-0.3-3.2-0.8-4.4c-0.5-1.3-1.1-2.3-1.9-3.2c-0.7-0.8-1.3-1.5-1.7-1.9c-0.5-0.4-0.9-0.5-1.3-0.3c-0.2,0.2-0.4,0.4-0.6,0.7
	c-0.1,0.2-0.1,0.3-0.1,0.5c-0.2,3.4-0.8,6.3-1.8,8.7c-1,2.4-2,4.7-3.2,6.9c-1.2,2.2-2.5,4.3-3.8,6.4c-1.3,2.1-2.6,4.4-3.6,6.9
	c-0.1,0.3-0.2,0.6-0.4,0.9c-2.4,3.7-4.5,6.4-6.1,8.1c-1.8,1.8-3.2,3-4.4,3.6c-0.4,0.2-1,0.2-1.7-0.1c-0.8-0.3-1.5-1-2.1-2.2
	c-0.6-1.2-1-3-1-5.4c-0.1-2.4,0.5-5.6,1.6-9.7c1.1-4.1,2.4-7.5,3.9-10.2c1.5-2.7,2.9-4.9,4.2-6.6c1.5-2,3.1-3.6,4.7-4.7
	c0.2,0.6,0.3,1.3,0.2,1.9c-0.1,0.7-0.2,1.3-0.3,1.8c-0.2,0.3-0.1,0.6,0.1,0.8c0.2,0.2,0.5,0.3,0.8,0.3c0.8-0.2,1.6-0.4,2.2-0.6
	c0.6-0.3,1.1-0.6,1.4-0.9c0.8-0.8,1.2-1.5,1.4-2.3c0.2-0.7,0.2-1.4,0.1-2c-0.2-0.7-0.4-1.3-0.7-2c-0.6-0.8-1.5-1.2-2.5-1.4
	c-1.1-0.2-2.4,0.2-4,0.9c-1.6,0.8-3.6,2.1-5.8,3.9c-2.3,1.9-4.8,4.4-7.7,7.6c-2.5,2.9-4.4,5.7-5.7,8.4c-0.3,0.6-0.6,1.2-1,1.8
	c-0.6,1.1-1.3,2.3-2.1,3.8c-0.8,1.4-1.6,2.9-2.5,4.3c-2.6,4.1-4.8,7-6.6,8.8c-1.8,1.8-3.3,3-4.3,3.6c-0.5-0.9-0.3-2.5,0.5-4.7
	c0.8-2.2,1.8-4.6,3.1-7.3c1.3-2.7,2.6-5.4,4-8.2c1.4-2.7,2.6-5.1,3.4-7.1c0.9-2.1,1.4-4,1.3-5.7c0-1.7-0.3-3.2-0.8-4.4
	c-0.5-1.3-1.1-2.3-1.9-3.2c-0.7-0.8-1.3-1.5-1.7-1.9c-0.5-0.4-0.9-0.5-1.3-0.3C206.5,59.9,206.3,60.2,206.1,60.5z M311.4,75.5
	c0.6-1.5,1.1-2.9,1.7-4.2c0.6-1.5,1.2-2.9,1.7-4.3c2-4.2,3.8-7.7,5.5-10.4c1.7-2.7,3.1-4.8,4.3-6.2c1.2-1.4,2.2-2.3,2.9-2.5
	c0.7-0.3,1.1-0.1,1.3,0.4c0.2,0.7-0.1,2-0.8,4c-0.7,2-1.8,4.4-3.4,7.3c-1.6,2.9-3.6,6-6.1,9.5c-2.5,3.5-5.4,7.1-8.9,10.7
	C310.3,78.5,310.8,77.1,311.4,75.5z M272.5,79.2c1.8-3.1,3.6-5.9,5.4-8.4c1.7-2.5,3.3-4.7,4.7-6.4c1.4-1.7,2.4-2.8,3.1-3.3
	c0.8-0.5,1.5-0.6,2.2-0.5c0.4,0.2,0.6,0.4,0.7,0.9c0.1,0.4,0.1,0.7,0.1,0.9c-0.3,3-0.9,5.6-1.8,7.9c-0.9,2.3-1.9,4.4-3.1,6.4
	c-1.2,2-2.4,3.9-3.6,5.9c-1.3,2-2.4,4.1-3.4,6.4c-0.8,1.2-1.7,2.4-2.7,3.8c-1,1.4-2.1,2.7-3.2,4c-1.1,1.3-2.3,2.4-3.4,3.4
	c-1.2,1-2.2,1.7-3.2,2c-0.4-0.1-0.7-0.3-0.9-0.7c-0.2-0.4-0.2-1.1-0.1-2c0.1-1,0.5-2.3,1.1-4c0.6-1.7,1.6-4,3-6.8
	C269,85.4,270.7,82.3,272.5,79.2z M209.3,56.8c-0.4-0.5-0.6-1.2-0.4-2.2c0.1-0.8,0.2-1.8,0.5-3.2c0.3-1.3,0.6-2.6,1-3.9
	c0.4-1.2,0.8-2.3,1.3-3.1c0.5-0.8,1.1-1.1,1.7-0.8c0.5,0.2,1.2,0.7,2.1,1.3c0.8,0.6,1.6,1.3,2.2,2.1c0.6,0.8,1,1.7,1.2,2.7
	c0.2,1-0.2,2-0.9,3c-1.2,1.5-2.2,2.5-3.1,3.2c-0.9,0.7-1.6,1.2-2.1,1.6c-0.6,0.3-1.3,0.3-2.1,0.1C210.2,57.5,209.7,57.2,209.3,56.8z
	 M254.3,56.8c-0.4-0.5-0.6-1.2-0.4-2.2c0.1-0.8,0.2-1.8,0.5-3.2c0.3-1.3,0.6-2.6,1-3.9c0.4-1.2,0.8-2.3,1.3-3.1
	c0.5-0.8,1.1-1.1,1.7-0.8c0.5,0.2,1.2,0.7,2.1,1.3c0.8,0.6,1.6,1.3,2.2,2.1c0.6,0.8,1,1.7,1.2,2.7c0.2,1-0.2,2-0.9,3
	c-1.2,1.5-2.2,2.5-3.1,3.2c-0.9,0.7-1.6,1.2-2.1,1.6c-0.6,0.3-1.3,0.3-2.1,0.1C255.2,57.5,254.7,57.2,254.3,56.8z M195.9,220.5
	c-0.3-1.9-1-3.7-1.8-5.4c-0.9-1.7-2.2-2.9-3.8-3.8c-1.3-0.7-2.6-1.1-4.1-1.1c-5.7,0-10.8,2.7-15.4,8.1c-3.6,4.3-6.6,9.6-8.9,15.7
	c-2.5,6.6-4.4,13.4-5.6,20.4c-1.1-29.7-5.5-44.5-13.3-44.5c-2.7,0-5.3,1.6-7.7,4.9c-1.7,2.4-3.2,5.3-4.5,8.6
	c-2.2,6-3.6,12.5-4.3,19.6c-4.9-2.2-10.1-3.3-15.8-3.3c-9.4,0-16.8,3.5-22.2,10.4c-3.1,4-5.2,8.7-6.5,14c-6.6,1.2-12.3,3.6-17.1,7.1
	c-4.8,3.5-8.2,7.9-10.1,13.1c-2.4-1.4-5.1-2.9-8.2-4.3c-5.8-2.8-10.8-5.7-14.9-8.6c-7.3-5.2-11-11.8-11-19.6c0-4.3,1.3-7.7,4-10.2
	c2.6-2.5,6.1-3.7,10.3-3.7c1.7,0,3.3,0.3,4.9,1c3.6,1.5,6.5,3.9,8.7,7.4c2.1,3.5,3.5,7.1,4.1,10.8c0.1,0.7,0.5,1.1,1.3,1.1
	c0.7,0,1.1-0.3,1.2-1c0.6-3.3,2.1-6.1,4.6-8.4c2-1.8,4.2-2.8,6.7-2.8c0.8,0,1.5,0.1,2.2,0.3c2.4,0.7,4.1,2.1,5.1,4.1
	c1,2,1.5,4.2,1.5,6.4c0,0.4,0.1,0.7,0.4,0.9c0.2,0.2,0.6,0.4,0.9,0.4c0.3,0,0.6-0.1,0.9-0.4c0.2-0.2,0.4-0.6,0.4-0.9
	c0-2.9-0.7-5.5-2-8c-1.4-2.5-3.5-4.2-6.4-5.1c-0.9-0.3-1.9-0.4-2.9-0.4c-3.1,0-5.9,1.1-8.4,3.3c-1.7,1.5-3.1,3.3-4,5.4
	c-1.1-3.4-2.7-6.6-4.9-9.4c-2.2-2.9-5-5-8.4-6.3c-1.8-0.7-3.8-1.1-5.8-1.1c-5,0-9,1.5-12.2,4.5c-3.2,3-4.8,7.1-4.8,12.2
	c0,8.4,4.1,15.5,12.3,21.3c4.4,3.2,9.3,6,14.7,8.5c3.4,1.6,6.5,3.2,9.1,4.7c-0.6,2.4-1,5.1-1,8c0,4,1,7.2,2.9,9.7
	c1.7,2.3,3.8,3.5,6.3,3.5c2.2,0,4-0.6,5.2-1.9c1.3-1.3,1.9-3,1.9-5.2c0-4-2.6-8-7.7-11.9c-1.3-1-2.8-2-4.5-3c1.7-5,4.9-9.2,9.7-12.6
	c4.1-2.9,9-5,14.5-6.2c-0.4,2.3-0.6,4.6-0.6,7.1c0,3.4,0.4,6.9,1.1,10.5c0.7,3.6,1.8,7,3.2,10.4c1.4,3.3,3.3,6.3,5.5,8.9
	c2.2,2.6,4.9,4.7,8,6.3c3.1,1.6,6.6,2.3,10.5,2.3c3.6,0,6.7-0.9,9.3-2.6c2.6-1.7,4.6-4,5.9-6.9c1.4-2.9,2.1-6,2.1-9.5
	c0-7.6-2.9-14.3-8.7-20.2c-6.7-6.7-15.7-10.1-27-10.1c-2,0-3.9,0.1-5.8,0.3c1.1-4.3,2.9-8.2,5.5-11.6c4.9-6.4,11.7-9.7,20.3-9.7
	c5.8,0,11,1.1,15.6,3.4c-0.2,2.5-0.3,5-0.3,7.7c0,6.3,0.9,11.4,2.6,15.3c1.6,3.6,3.9,5.4,7.1,5.4c1.7,0,2.9-0.5,3.9-1.4
	c0.9-0.9,1.6-2.1,1.9-3.5c0.4-1.4,0.6-2.8,0.6-4.1c0-9-4.2-15.9-12.5-20.7c0.9-10,3.2-18.5,6.9-25.5c1.2-2.2,2.5-3.3,3.9-3.3
	c1.3,0,2.4,1.1,3.3,3.4c3.4,8.8,5.1,26.4,5.1,52.8c0,3.8-0.1,8-0.2,12.5c-0.1,3.5-0.2,7.2-0.2,11.2c0,1.5,1.4,2.2,4.2,2.2
	c2.5,0,3.7-0.6,3.8-1.8l0.3-15.3c0.1-2.4,0.2-4.9,0.4-7.3c11.5-0.8,20.9-5.9,28.1-15.3c3.4-4.5,6.2-9.7,8.3-15.4
	c2.1-5.8,3.1-11.5,3.1-17C196.4,224.3,196.3,222.5,195.9,220.5z M59.6,290.4c4.8,3.4,7.2,6.9,7.2,10.6c0,2.9-1.4,4.4-4.3,4.4
	c-1.6,0-3-0.8-4.1-2.4c-1.5-2.1-2.3-4.8-2.3-8.1c0-2.3,0.2-4.5,0.7-6.5C57.7,289.1,58.7,289.8,59.6,290.4z M90.8,266.3
	c10.5,0,18.9,3.1,25,9.3c5.3,5.3,7.9,11.3,7.9,18.2c0,2.9-0.6,5.6-1.7,8.1c-1.1,2.5-2.8,4.4-4.9,5.9c-2.1,1.5-4.8,2.2-7.9,2.2
	c-3.6,0-6.8-0.7-9.6-2.2c-2.8-1.5-5.2-3.4-7.2-5.9c-2-2.5-3.7-5.3-4.9-8.4c-1.3-3.1-2.2-6.3-2.9-9.6c-0.6-3.3-0.9-6.5-0.9-9.6
	c0-2.6,0.2-5.2,0.6-7.6C86.5,266.5,88.6,266.3,90.8,266.3z M138.9,265.4c0,0.7-0.1,1.5-0.2,2.4c-0.2,0.9-0.4,1.7-0.9,2.4
	c-0.4,0.7-1.1,1.1-2.1,1.1c-1.4,0-2.6-0.8-3.6-2.5c-2-3.3-2.9-8.3-2.9-15c0-2,0.1-4,0.2-5.9C135.7,252.1,138.9,258,138.9,265.4z
	 M185.2,243.1c-2,6.2-4.8,11.8-8.6,16.7c-5.1,6.6-11.5,10.1-19.3,10.6c0.3-3,0.7-6,1.1-9c1.2-9,3.4-17.7,6.6-26.3
	c2.6-7,6-12.6,10.2-16.8c1.5-1.5,3.2-2.7,5-3.6c0.8-0.4,1.7-0.6,2.6-0.6c1.6,0,2.8,0.9,3.6,2.6c1.1,2.5,1.7,5.6,1.7,9.5
	C188.1,231.3,187.2,236.9,185.2,243.1z M406.3,234.9c-3.2-3-7.2-4.5-12.2-4.5c-2,0-3.9,0.4-5.8,1.1c-3.4,1.3-6.2,3.4-8.4,6.3
	c-2.2,2.9-3.8,6-4.9,9.4c-0.9-2.1-2.3-3.9-4-5.4c-2.5-2.2-5.3-3.3-8.5-3.3c-1,0-1.9,0.1-2.9,0.4c-2.9,0.9-5.1,2.6-6.4,5.1
	c-1.4,2.5-2,5.2-2,8c0,0.3,0.1,0.6,0.4,0.9c0.3,0.2,0.6,0.4,0.9,0.4c0.3,0,0.6-0.1,0.9-0.4c0.3-0.2,0.4-0.5,0.4-0.9
	c0-2.3,0.5-4.4,1.5-6.5c1-2.1,2.7-3.4,5-4.1c0.8-0.2,1.5-0.3,2.2-0.3c2.5,0,4.8,0.9,6.8,2.7c2.5,2.3,4,5,4.6,8.4
	c0.1,0.7,0.5,1,1.2,1c0.7,0,1.1-0.3,1.2-1c0.7-3.8,2.1-7.4,4.2-10.9s5-5.9,8.6-7.4c1.6-0.6,3.2-1,4.9-1c4.3,0,7.7,1.2,10.3,3.7
	c2.6,2.5,4,5.9,4,10.2c0,7.9-3.7,14.4-11,19.6c-4.1,2.9-9.1,5.8-14.9,8.6c-3.2,1.5-5.9,3-8.2,4.3c-2.1-5.3-5.5-9.7-10.1-13.1
	c-4.9-3.6-10.6-5.9-17.1-7.1c-1.2-5.4-3.4-10.1-6.4-14c-5.4-6.9-12.9-10.4-22.3-10.4c-7.3,0-13.7,2.7-19,8
	c-6.4,6.4-11.3,15.9-14.5,28.3c-0.8,3.5-2.2,7.6-4.2,12.4c-1.6,3.7-3.4,6.5-5.5,8.5c-1.3,1.2-2.7,1.8-4.2,1.8
	c-3.1,0-5.4-2.1-6.9-6.3c-1.2-3.4-1.9-7.4-1.9-12v-2.5c2.5,0,5-0.7,7.6-2.1c2.5-1.4,4.6-3.4,6.3-5.9c1.7-2.6,2.5-5.6,2.5-9.1
	c0-1.8-0.3-3.6-0.9-5.3s-1.5-3.1-2.8-4.2c-1.3-1.1-3-1.7-5.2-1.7c-2.4,0-4.4,0.8-6.1,2.3c-1.7,1.5-3.1,3.5-4.3,5.9
	c-1.1,2.4-2,5-2.7,7.8c-0.7,2.8-1.1,5.4-1.4,8c-0.1,1-0.2,2-0.2,2.9c-1.8,7.3-4.4,13.7-7.8,19.1c-0.7,1.1-1.4,1.7-2.1,1.7
	c-0.7,0-1.3-0.6-1.8-1.7c-0.9-2.1-1.5-4.7-2-7.8c-0.8-5-1.2-10.2-1.4-15.4c3.9-8.8,7.1-18.4,9.7-28.7c2.1-8.6,3.1-16.3,3.1-23
	c0-6-1.4-9.7-4.1-11.1c-0.6-0.3-1.2-0.4-1.9-0.4c-2.6,0-4.9,2.2-6.9,6.7c-1.3,2.9-2.4,6.3-3.2,10c-2.8,12-4.2,25.4-4.2,40.4
	c0,3.6,0.1,6.9,0.2,9.9c0,0,0,0,0,0c-0.8,3.1-1.8,5.8-3.2,8.1c-1.9,3-4.2,4.6-6.9,4.6c-0.7,0-1.3-0.1-2-0.2
	c0.8-4.2,1.2-8.4,1.2-12.5c0-6.2-0.9-11.9-2.7-17.1c-1.8-5.3-4.5-8.5-8.1-9.4c-0.4-0.1-0.8-0.1-1.2-0.1c-1.7,0-3.1,0.5-4,1.5
	c-1,1-1.7,2.3-2.1,3.7c-0.5,1.5-0.7,2.9-0.8,4.4c-2,0-3.2,0.6-3.6,1.9c-1.9,5.8-2.8,12.1-2.8,19c0,2.3,0.2,4.8,0.6,7.5
	c0.4,2.8,1.2,5.4,2.4,7.8c1.2,2.4,2.8,4.2,5,5.5c1.5,0.9,3.2,1.3,4.9,1.3c4.9,0,8.4-3.6,10.6-10.8c0.9,0.2,1.7,0.3,2.6,0.3
	c4.6,0,8.1-2.8,10.7-8.5c0.7,6.8,2,11.9,3.7,15.2c1.5,2.9,3.4,4.3,5.7,4.3c2.7,0,5.6-2.8,8.6-8.4c1.6-3,2.9-6.1,4.1-9.2
	c0.1,0.7,0.2,1.5,0.3,2.3c0.4,2.6,1.2,5.1,2.3,7.3c1.1,2.3,2.7,4.1,4.7,5.4c2,1.3,4.3,2,6.7,2c5.6,0,10.4-4.2,14.2-12.6
	c1.4-3.3,2.7-6.6,3.7-9.9c0.3-1.2,0.5-2.1,0.7-2.7c0,0,0,0,0-0.1c1.8-7,4.3-13.2,7.3-18.6c6-10.5,13.9-15.7,23.5-15.7
	c8.6,0,15.4,3.2,20.3,9.7c2.6,3.4,4.4,7.2,5.5,11.5c-2-0.2-3.9-0.3-5.9-0.3c-11.3,0-20.3,3.4-26.9,10.1c-5.8,5.8-8.8,12.6-8.8,20.2
	c0,3.5,0.7,6.6,2.1,9.5c1.4,2.9,3.4,5.2,6,6.9c2.6,1.7,5.7,2.6,9.3,2.6c4.4,0,8.4-1.2,12.2-3.5c6.6-4,11.1-10.5,13.8-19.3
	c1.5-5.1,2.3-10.3,2.3-15.6c0-2.4-0.2-4.8-0.6-7.1c5.5,1.1,10.4,3.1,14.6,6.2c4.6,3.3,7.7,7.5,9.5,12.5c-8.2,5-12.3,10-12.3,15
	c0,2.2,0.6,3.9,1.9,5.2c1.3,1.3,3,1.9,5.2,1.9c2.5,0,4.6-1.2,6.4-3.5c1.9-2.5,2.9-5.8,2.9-9.8c0-2.8-0.3-5.5-1-7.9
	c2.3-1.4,5.1-2.8,8.2-4.2c6.1-2.9,11.3-5.9,15.6-9c3.4-2.4,6.2-5.4,8.5-8.8c2.5-3.8,3.7-8,3.7-12.6C411,242,409.5,238,406.3,234.9z
	 M263.6,259.5c0.7-3.3,1.7-6,2.9-8c1.2-2.1,2.7-3.1,4.5-3.1c1.2,0,2.1,0.4,2.8,1.3c0.7,0.8,1.2,1.9,1.4,3c0.3,1.2,0.4,2.2,0.4,3.1
	c0,4.2-1.5,7.7-4.6,10.6c-2.8,2.6-5.7,3.8-8.8,3.8C262.4,266.3,262.9,262.8,263.6,259.5z M211.1,293c-1.9,0-3.5-1.3-4.7-3.8
	c-1.9-3.8-2.8-8.5-2.8-14.2c0-2.8,0.2-5.7,0.6-8.7c1.1,4,2.7,7.8,4.9,11.3c2.1,3.5,4.8,6.1,8,7.7C215.5,290.5,213.6,293,211.1,293z
	 M217.6,282.5c-2.5-1.5-4.6-3.6-6.2-6.3c-3.1-5-5.1-10.6-5.8-16.5c0.4-1,0.6-1.8,0.6-2.5c0-1.1-0.3-1.8-0.8-2.1
	c0-1.2,0.1-2.3,0.3-3.3c0.2-1,0.6-1.8,1.2-2.4c0.6-0.6,1.2-0.9,1.7-0.9c1.8,0,3.3,1.1,4.7,3.2c2.1,3.2,3.5,7.4,4.3,12.5
	c0.5,2.9,0.7,6.6,0.7,10.9C218.2,277.5,218,280,217.6,282.5z M242.9,224.8c0.9-5.1,2.1-9.3,3.6-12.5c0.6-1.4,1.2-2,1.7-2
	c0.9,0,1.4,2.2,1.4,6.7c0,1.8-0.1,3.6-0.3,5.4c-1.4,12-4.6,24.7-9.7,37.8C239.6,248,240.7,236.3,242.9,224.8z M343.9,281.4
	c-1,4.2-2.6,8.2-4.7,11.8c-2.1,3.6-5,6.5-8.5,8.6c-3.3,2-6.9,3-10.7,3c-3.1,0-5.8-0.7-7.9-2.2c-2.2-1.5-3.8-3.5-4.9-5.9
	c-1.1-2.4-1.7-5.1-1.7-8.1c0-6.8,2.6-12.9,7.9-18.2c6.1-6.2,14.4-9.3,25-9.3c2.2,0,4.3,0.2,6.5,0.5c0.4,2.4,0.6,4.9,0.6,7.6
	C345.4,273.1,344.9,277.2,343.9,281.4z M370.9,297.8c-1.2,1.6-2.6,2.4-4.2,2.4c-2.9,0-4.3-1.5-4.3-4.4c0-3.6,2.4-7.1,7.2-10.6
	c0.9-0.6,1.8-1.2,2.9-1.9c0.5,2,0.7,4.2,0.7,6.4C373.2,293.1,372.4,295.8,370.9,297.8z"/>
<path class="st1" d="M147.7,124.8c1,3.5,1.5,7.5,1.5,12c0,9.2-1.6,19.4-4.7,30.5c-2.7,9.6-4,17.1-4,22.5c0,4.1,0.8,8.2,2.3,12.3
	c0.1,0.3,0.2,0.5,0.2,0.8c0,0.8-0.4,1.5-1.3,2.2c-1.2,0.9-2.7,1.4-4.5,1.4c-1.7,0-3.4-0.6-5.1-1.9c-1.7-1.3-3-3.3-3.8-6.2
	c-0.9-2.8-1.3-6.2-1.3-10.1c0-6.3,1.2-14.1,3.6-23.5c0.3-1,0.7-2.6,1.4-4.6c2.3-7.4,3.9-12.9,4.7-16.3c1.5-6.1,2.2-11.1,2.2-15.1
	c0-3.5-0.5-6.1-1.6-7.7c-1-1.4-2.5-2.1-4.5-2.1c-2.6,0-5.3,1.9-8.2,5.7c-2.9,3.8-5.4,8.5-7.4,14.1c-1.2,3.2-1.9,6.5-2.3,9.9
	c-0.4,3.4-0.7,7.1-1.1,11.2c-0.4,5.2-1.6,17.1-3.6,35.8c-0.3,3.1-0.8,5.5-1.4,7.2c-0.9,2.5-2.3,3.8-4.2,3.8c-2,0-4-1.5-6.2-4.5
	c-1.5-2.1-2.4-4.5-2.7-7.2c-0.3-2.7-0.5-5.2-0.5-7.4c0-1.6,0.1-3.3,0.2-5c0.3-4.7,1.8-15.5,4.3-32.1c3.8-24.7,7.3-37,10.6-37
	c2.6,0,4.2,5.2,4.6,15.8c5.3-10.5,11.5-15.8,18.7-15.8c3.8,0,6.8,1.1,9.1,3.2C145,118.4,146.7,121.3,147.7,124.8z M252.7,198.1
	c-3.8,0-6.7-1.9-8.8-5.6c-1.3-2.3-2.2-6.1-2.7-11.3c-3,5.6-6.3,10.8-9.8,15.6c-5.5,7.4-11,11.1-16.3,11.1c-5.6,0-8.4-3.5-8.4-10.6
	c0-5,1.5-11.8,4.5-20.4c3-8.5,4.5-14.1,4.5-16.5c0-5.4-1.7-8.6-5.1-9.7l-1.5-0.5c-2,9.5-3.9,16.4-5.9,20.9c-3.3,6.9-8,10.4-14,10.4
	c-2.7,0-5.4-0.8-8.1-2.4c-3.4,6.5-8.1,9.8-14.2,9.8c-2.1,0-4.2-0.6-6.3-1.7c-2.1-1.2-3.8-2.9-5.1-5.2c-1.4-2.3-2-5.2-2-8.6
	c0-11.3,4.4-19.5,13.2-24.5c-0.1-1.2-0.2-2.3-0.2-3.4c0-1.5,0.2-3.3,0.5-5.4c0.3-2.1,1.2-4,2.7-5.7c1.5-1.7,3.6-2.6,6.5-2.6
	c3.3,0,5.9,1.7,7.7,5.1c1.8,3.4,2.7,8.4,2.7,15c0,7.9-1,15.2-3.1,21.8c2.1,1.4,4,2,5.9,2c3.6,0,6.5-2.3,8.8-7c2.3-5.2,3.9-12.2,5-21
	c-4.8-2.4-7.2-5.1-7.2-8.1c0-2,0.7-3.4,2-4.3c1.3-0.9,2.8-1.4,4.5-1.4c1.5,0,2.9,0.4,4.2,1.2c1.4,0.8,2.4,2,3.1,3.6
	c0.5,1,0.7,2.2,0.7,3.4c0,0.8-0.1,1.5-0.2,2.4c10,3.1,15,9.4,15,18.8c0,3.2-0.6,7.1-1.7,11.6c-1.1,4.5-1.7,8.6-1.7,12.2
	c0,2.5,0.6,3.7,1.9,3.7c2.3,0,4.9-2.1,7.8-6.2l2.2-3.2c3.7-5.7,6-9.9,6.9-12.4c0-0.1,0-0.1,0.1-0.2c0.1-3.1,0.4-7,1.1-11.9
	c1.2-9.1,2.6-17.5,4.2-25.2c-2.5,0.4-4.9,1.1-7.3,1.9c-0.4,0.1-0.7,0.2-1.1,0.2c-1.2,0-2.1-0.6-2.6-1.9c-0.1-0.3-0.2-0.7-0.2-1
	c0-1.2,0.6-2.1,1.9-2.7c3.5-1.3,7-2.1,10.6-2.5c2.1-8.5,4.1-12.8,6-12.8c1.6,0,2.8,1.3,3.5,3.9c0.6,2.3,1,5.4,1.2,9.3
	c2.3,0.4,4.6,1.1,6.9,1.9c1.2,0.5,1.9,1.4,1.9,2.7c0,0.3-0.1,0.6-0.2,1c-0.5,1.2-1.4,1.8-2.7,1.8c-0.3,0-0.7-0.1-1-0.2
	c-1.7-0.6-3.3-1.1-4.9-1.5c0,5.8-0.4,13.6-1.1,23.4c-0.6,8.5-0.8,14.3-0.8,17.4c0,7.6,0.8,11.3,2.5,11.3c2.1,0,5.7-3.7,10.8-11.1
	c1.3-1.7,2.1-3.1,2.7-4.2c0.1-3.1,0.4-7,1.1-11.9c1.3-10,2.9-19.2,4.7-27.6c2.4-10.9,4.6-16.4,6.8-16.4c3.2,0,4.8,7.6,4.8,22.9
	c0,5.9-0.3,13.1-1,21.6c2.8-4.3,6.2-6.5,10.2-6.5c2.3,0,4.2,0.8,5.7,2.4c2.4,2.4,3.6,6.6,3.6,12.5c0,2.9-0.3,6.6-0.8,11.1
	c-0.4,3.3-0.6,6.2-0.6,8.6c0,4,1,6,3,6c3.6,0,8-7.6,13.3-22.8c0.5-1.2,1.3-1.9,2.7-1.9c0.3,0,0.6,0.1,1,0.2c1.2,0.5,1.9,1.4,1.9,2.7
	c0,0.3-0.2,1.1-0.6,2.4c-6.3,18.7-13.3,28.1-20.9,28.1c-1.9,0-3.9-0.8-5.9-2.4c-2.1-1.6-3.7-4.2-5-7.7c-0.8-2.2-1.1-4.8-1.1-7.9
	c0-4,0.6-8.6,1.9-13.7c0.9-3.5,1.3-5.9,1.3-7.2c0-1.9-0.5-2.8-1.5-2.8c-1.7,0-3.4,1.6-5.3,4.9c-1.5,2.7-2.7,6.5-3.4,11.6
	c-0.7,5.1-1.4,8.4-2,10.1c-0.9,2.5-2.3,3.8-4.2,3.8c-2,0-4-1.5-6.2-4.5c-1-1.4-1.8-3.3-2.3-5.6C264.9,191.7,258.1,198.1,252.7,198.1
	z M176.3,175.1c-2.8-3-5.2-8.1-7.3-15c-0.4-1.2-0.7-2.4-1-3.6c-0.6,0.8-0.9,2.9-1,6.2c0,1.6,0,3.2,0.1,4.9c0.1,1.6,0.5,3.8,1.3,6.5
	c1,3.5,2.2,5.2,3.5,5.2C173.7,179.2,175.1,177.9,176.3,175.1z M180.6,151.8c0-2.6-0.2-5-0.5-7.2c-0.3-2.2-0.8-3.9-1.4-5.2
	c-0.6-1.3-1.5-1.9-2.5-1.9c-2.6,0-4,2.3-4,6.9c0,4.1,0.8,8.9,2.5,14.6c1.5,5,2.7,8.3,3.7,9.8C179.9,163.1,180.6,157.4,180.6,151.8z
	 M60.6,394.6c0-0.2,0-0.3-0.1-0.5c-0.2-0.5-0.5-1-0.9-1.4s-1-0.8-1.6-1c-0.6-0.2-1.3-0.4-1.9-0.5c-0.7-0.1-1.2-0.2-1.7-0.2
	c-1.1,0-2.1,0.1-3,0.4c-0.9,0.3-1.8,0.6-2.7,1c-0.9,0.4-1.8,0.9-2.6,1.4c-0.8,0.5-1.8,1-2.8,1.4c-1.5,0.6-2.9,1.1-4.3,1.5
	c-1.4,0.4-2.9,0.7-4.5,1c0-5.3,0-10.6,0-15.8c0-5.2,0.1-10.5,0.2-15.8c3.5-0.1,7-0.3,10.6-0.7c1.7-0.2,3.4-0.3,5.1-0.4
	c1.7-0.1,3.4-0.6,4.9-1.4c1.1-0.5,1.5-1,1.3-1.6c-0.2-0.6-0.8-1.2-1.6-1.8c-0.8-0.6-1.7-1.1-2.7-1.5c-1-0.4-1.6-0.6-2-0.6
	c-2.5-0.3-5.1-0.4-7.7-0.2c-2.6,0.2-5.2,0.4-7.9,0.8c0.2-4.7,0.3-9.4,0.3-14c0.1-4.7,0-9.4-0.2-14.1c2.7-0.2,5.4-0.3,8-0.3
	c2.7-0.1,5.3-0.2,8-0.2c1.1-0.1,2-0.4,2.9-0.9c0.8-0.5,1-1.4,0.3-2.7c-0.3-0.5-0.8-1-1.4-1.4c-0.7-0.4-1.3-0.8-2.1-1
	c-0.7-0.3-1.5-0.5-2.3-0.6c-0.8-0.1-1.5-0.2-2.1-0.2c-5.2,0-10.3,0.2-15.5,0.7c-1.3-0.4-2.6-0.5-3.8-0.4c-1.2,0.1-1.8,0.6-1.9,1.4
	c-0.7,6.6-1,13.1-1,19.7c0,6.6,0,13.2-0.1,19.7c-0.1,6.2,0,12.4,0.2,18.6c0.2,6.2,1.3,12.3,3.2,18.3c0.2,0.7,1,1.3,2.3,1.8
	c1.3,0.5,2.4,0.7,3.3,0.5c1,0.3,2.1,0.5,3.4,0.5c4.1-0.1,8.1-0.7,12-2c3.9-1.2,7.6-2.9,11-5.1c0.9-0.5,1.3-1.2,1.2-2.1
	C60.7,394.9,60.6,394.7,60.6,394.6z M99.5,390.1c-1-0.3-2.1-0.5-3.3-0.5c-1.2,0-2,0.2-2.5,0.7c-1.3,1.2-2.6,2.3-3.9,3.3
	c-1.3,1-2.7,1.9-4.3,2.7c-0.5,0.2-1.2,0.5-2,0.8c-0.8,0.3-1.6,0.5-2.4,0.7c-0.8,0.2-1.7,0.3-2.5,0.3c-0.8,0-1.5-0.2-2-0.6
	c-0.7-0.5-1.2-1.1-1.6-2c-0.3-0.8-0.6-1.8-0.7-2.8c-0.1-1-0.2-2-0.1-3c0-1,0.1-1.8,0.1-2.5c-0.1-2-0.1-4-0.2-5.8
	c0-1.9-0.1-3.8-0.1-5.8c-0.1-4.2-0.1-8.3-0.1-12.5c0-4.2,0.1-8.4,0.3-12.6c0.1-3.9,0.2-7.9,0.5-12c0.2-4,0.2-8-0.2-12
	c-0.1-0.7-0.6-1.3-1.4-1.9c-0.9-0.6-1.9-1-3-1.2c-1.1-0.2-2.1-0.3-3.1-0.1c-1,0.2-1.5,0.6-1.7,1.4c-0.6,2.7-1,5.4-1.3,8.2
	c-0.3,2.8-0.4,5.6-0.5,8.4c-0.1,2.9-0.1,5.7-0.1,8.6c0,2.9,0,5.7-0.1,8.4c-0.2,5.3-0.3,10.7-0.5,16.1c-0.2,5.4,0,10.8,0.5,16.1
	c0.3,3.1,1.3,5.6,2.9,7.5c1.6,1.9,3.7,3.4,6.1,4.3c2.4,0.9,5.1,1.4,8,1.4c2.9,0,5.7-0.4,8.5-1.2c2.8-0.8,5.3-1.9,7.7-3.4
	c2.4-1.5,4.2-3.2,5.6-5.2c0.5-0.8,0.5-1.5-0.1-2.1C101.4,391,100.6,390.5,99.5,390.1z M145.7,325.7c-0.5-0.4-1.1-0.8-1.7-1.1
	c-0.7-0.3-1.3-0.6-2-0.8c-0.7-0.2-1.2-0.3-1.7-0.4c-5.2-0.8-10.5-1.3-15.7-1.3c-5.2,0-10.5,0.3-15.7,1c-0.5,0-0.9,0.1-1.2,0.3
	c-1.5,0-2.2,0.5-2.3,1.5c-0.7,6.6-1,13.1-1,19.8c0,6.6,0,13.2-0.1,19.8c-0.1,6.2,0,12.4,0.2,18.7c0.2,6.3,1.3,12.4,3.2,18.3
	c0.2,0.5,0.6,0.9,1.3,1.3c0.7,0.4,1.5,0.7,2.3,0.9c0.8,0.2,1.5,0.2,2.2,0c0.7-0.2,1-0.7,1-1.4c0-12.6,0.1-25.1,0.3-37.6
	c0-0.9,0-1.9,0-2.8c0-1,0-1.9,0.1-2.8c1.5,0.1,3.1,0.1,4.7-0.1c1.6-0.1,3.2-0.2,4.7-0.3c1-0.1,2.1-0.1,3.4,0c1.2,0.1,2.4,0.1,3.6,0
	c1.2-0.1,2.4-0.2,3.5-0.5c1.1-0.3,2.1-0.8,2.9-1.4c0.5-0.5,0.6-0.9,0.3-1.3c-0.2-0.4-0.6-0.8-1.1-1.2c-0.5-0.4-1.1-0.7-1.7-1
	c-0.6-0.3-1-0.4-1.3-0.5c-2.5-0.8-5-1.1-7.7-0.9c-2.7,0.3-5.4,0.5-8,0.6h-3.4c0.2-3.9,0.2-7.8,0.2-11.7c0-3.9-0.1-7.8-0.3-11.7
	c4.5-0.4,9-0.5,13.4-0.5c4.4,0.1,8.8,0.4,13.4,1c0.4,0,0.9,0,1.4,0c0.6,0,1.1-0.1,1.7-0.2c0.5-0.2,1-0.4,1.3-0.8
	c0.3-0.3,0.4-0.8,0.3-1.4C146.4,326.7,146.2,326.2,145.7,325.7z M243,322.7c-0.7-0.4-1.4-0.8-2.1-1c-0.8-0.3-1.6-0.5-2.4-0.6
	c-0.8-0.1-1.5-0.2-2.1-0.2c-17.2,0.5-34.6,1.3-52,2.4c-1.1,0.2-2,0.5-2.9,1c-0.8,0.5-1,1.4-0.3,2.6c0.3,0.6,0.8,1.1,1.4,1.5
	c0.7,0.4,1.4,0.7,2.1,1c0.8,0.3,1.5,0.5,2.3,0.6c0.8,0.1,1.5,0.2,2.1,0.2c3.1-0.2,6.1-0.3,9.2-0.5c3-0.2,6.1-0.3,9.1-0.5
	c-0.4,5.8-0.6,11.6-0.5,17.5c0,5.9,0.1,11.7,0.1,17.5c0,3.2,0,6.3-0.1,9.5c0,3.2,0,6.3,0.2,9.5c0.2,3.2,0.5,6.3,1.1,9.4
	c0.5,3.1,1.3,6.2,2.3,9.2c0.2,0.5,0.6,0.9,1.4,1.3c0.8,0.4,1.6,0.7,2.4,0.9c0.8,0.2,1.6,0.2,2.2,0c0.7-0.2,1-0.7,1-1.4
	c-0.1-6.4-0.1-12.8-0.1-19.1c0-6.3,0.1-12.7,0.3-19.2c0.2-5.9,0.3-11.9,0.5-17.7c0.2-5.9,0.1-11.8-0.2-17.7
	c3.9-0.2,7.8-0.3,11.6-0.4c3.8-0.1,7.7-0.3,11.6-0.4c1.1-0.1,2.1-0.4,3-0.9c0.9-0.5,1-1.5,0.3-2.8
	C244.1,323.7,243.7,323.1,243,322.7z M282.3,394.6c0-0.2,0-0.3-0.1-0.5c-0.2-0.5-0.5-1-0.9-1.4s-1-0.8-1.6-1
	c-0.6-0.2-1.3-0.4-1.9-0.5c-0.7-0.1-1.2-0.2-1.7-0.2c-1.1,0-2.1,0.1-3,0.4c-0.9,0.3-1.8,0.6-2.7,1c-0.9,0.4-1.8,0.9-2.6,1.4
	c-0.8,0.5-1.8,1-2.8,1.4c-1.5,0.6-2.9,1.1-4.3,1.5c-1.4,0.4-2.9,0.7-4.5,1c0-5.3,0-10.6,0-15.8c0-5.2,0.1-10.5,0.2-15.8
	c3.5-0.1,7-0.3,10.6-0.7c1.7-0.2,3.4-0.3,5.1-0.4c1.7-0.1,3.4-0.6,4.9-1.4c1.1-0.5,1.5-1,1.3-1.6c-0.2-0.6-0.8-1.2-1.6-1.8
	c-0.8-0.6-1.7-1.1-2.7-1.5c-1-0.4-1.6-0.6-2-0.6c-2.5-0.3-5.1-0.4-7.7-0.2c-2.6,0.2-5.2,0.4-7.9,0.8c0.2-4.7,0.3-9.4,0.3-14
	c0.1-4.7,0-9.4-0.2-14.1c2.7-0.2,5.4-0.3,8-0.3c2.7-0.1,5.3-0.2,8-0.2c1.1-0.1,2-0.4,2.9-0.9c0.8-0.5,1-1.4,0.3-2.7
	c-0.3-0.5-0.8-1-1.4-1.4c-0.7-0.4-1.3-0.8-2.1-1c-0.7-0.3-1.5-0.5-2.3-0.6c-0.8-0.1-1.5-0.2-2.1-0.2c-5.2,0-10.3,0.2-15.5,0.7
	c-1.3-0.4-2.6-0.5-3.8-0.4c-1.2,0.1-1.8,0.6-1.9,1.4c-0.7,6.6-1,13.1-1,19.7c0,6.6,0,13.2-0.1,19.7c-0.1,6.2,0,12.4,0.2,18.6
	c0.2,6.2,1.3,12.3,3.2,18.3c0.2,0.7,1,1.3,2.3,1.8c1.3,0.5,2.4,0.7,3.3,0.5c1,0.3,2.1,0.5,3.4,0.5c4.1-0.1,8.1-0.7,12-2
	c3.9-1.2,7.6-2.9,11-5.1c0.9-0.5,1.3-1.2,1.2-2.1C282.3,394.9,282.3,394.7,282.3,394.6z M323.1,396.1c0.3,2.3,0.2,4.6-0.2,6.8
	c-0.1,0.6-0.4,1-1,1c-0.6,0.1-1.3,0-2-0.2c-0.7-0.2-1.4-0.5-2.1-0.9c-0.7-0.4-1-0.8-1.1-1.2c-1.2-3.3-1.9-6.8-2.3-10.6
	c-0.3-3.7-0.7-7.3-1.1-10.8l-0.2-2.4c-0.7-0.3-1.3-0.7-2-1.3c-0.8-0.7-1.6-1.3-2.3-1.7c-0.7-0.4-1.6-0.7-2.7-0.8h-0.5
	c-0.7,0-1.5,0.1-2.3,0.2c-0.8,0.1-1.6,0.3-2.3,0.4c-0.8,0.2-1.5,0.4-2,0.6c-0.5,0.3-0.9,0.6-1.3,1c-0.5,4.7-1,9.4-1.3,14.1
	c-0.3,4.7-0.8,9.3-1.4,14c-0.1,0.8-0.6,1.2-1.6,1.4c-1,0.2-2,0.1-3.1-0.1c-1.1-0.2-2.2-0.6-3.1-1.2c-1-0.6-1.5-1.2-1.6-1.9
	c-0.7-6.5-0.8-13-0.2-19.7c0.5-6.6,1.3-13.1,2.4-19.5c0.5-3.2,1.1-6.5,1.8-9.7c0.7-3.2,1.4-6.4,2.1-9.5c0.7-2.8,1.5-5.6,2.4-8.4
	c0.9-2.9,2.1-5.5,3.5-8.1c0.2-0.5,0.6-1.1,1-1.7l0.3-0.3c1.5-1.5,3.4-2.4,5.7-2.7c2.3-0.2,4.5,0.2,6.7,1.3c1.6,0.8,2.9,2.1,4,3.7
	c1,1.6,1.9,3.4,2.5,5.3c0.6,1.9,1.1,3.8,1.4,5.8c0.3,2,0.5,3.8,0.7,5.4c0.5,5,0.9,10,1,14.9c0.1,4.9,0.3,9.9,0.6,14.9
	c0.2,2.5,0.3,5,0.4,7.5c0.1,2.5,0.3,5,0.4,7.6C322.7,391.5,322.9,393.8,323.1,396.1z M312.6,370.1c-0.2-1.8-0.3-3.7-0.3-5.6
	c-0.1-1.9-0.2-3.8-0.2-5.6c-0.2-3.2-0.3-6.5-0.5-9.8c-0.2-3.3-0.5-6.5-0.9-9.8c-0.2-1.5-0.5-3.1-0.8-4.6c-0.3-1.5-0.7-3.1-1.3-4.6
	l-0.6-1.4c-0.5-1.9-0.8-1.9-1-0.2c-0.1,0-0.2,0-0.2,0.1c-0.2,3.2-0.7,6.5-1.6,9.7c-0.9,3.2-1.7,6.4-2.5,9.6
	c-1.4,6.2-2.5,12.3-3.5,18.5l-0.3,1.9c2.4-0.2,4.6-0.2,6.7,0C308.1,368.6,310.4,369.2,312.6,370.1z M384.9,381.6
	c0.1-5.9-0.1-11.8-0.5-17.7c-0.5-6-0.9-12-1.2-18c-0.3-6-1.1-11.9-2.4-17.8c-0.2-0.5-0.5-1-1.1-1.5c-0.6-0.5-1.3-0.9-2.1-1.3
	c-0.8-0.4-1.7-0.7-2.6-0.9c-0.9-0.2-1.8-0.2-2.5-0.2c-1.6-0.2-2.9-0.1-3.8,0.3c-1.3,0.7-2.4,1.7-3.2,3.1c-0.8,1.3-1.6,2.6-2.5,3.9
	c-0.9,1.4-1.8,2.8-2.7,4.2c-0.8,1.4-1.7,2.9-2.5,4.3c-0.8,1.3-1.5,2.5-2.1,3.7c-0.7,1.2-1.3,2.3-1.9,3.4l-3.5-6.2
	c-0.8-1.4-1.6-2.9-2.4-4.5c-0.8-1.6-1.7-3.2-2.6-4.9c-0.9-1.6-1.9-3.1-3.1-4.6s-2.3-2.6-3.6-3.5c-0.3-0.2-0.8-0.5-1.4-0.7
	c-0.7-0.2-1.4-0.4-2.1-0.5c-0.8-0.1-1.5-0.1-2.1,0c-0.7,0.1-1.1,0.4-1.4,0.9c-0.5,0.3-0.8,0.7-0.8,1.2c-0.7,6.6-1,13.3-1,19.9
	c0,6.7,0,13.4-0.1,20.1c0,3.1,0,6.2,0,9.4c0,3.2,0.1,6.3,0.3,9.5c0.2,3.2,0.5,6.3,1,9.4c0.5,3.1,1.3,6.1,2.3,9.1
	c0.2,0.5,0.6,0.9,1.3,1.3c0.7,0.4,1.5,0.7,2.3,0.9c0.8,0.2,1.5,0.2,2.2,0c0.7-0.2,1-0.7,1-1.4c0-12.6,0.1-25.3,0.3-38
	c0.1-3.2,0.2-6.4,0.2-9.5c0.1-3.1,0.1-6.3,0.1-9.5c1.1,2.2,2.1,4.5,3.2,6.6c1,2.2,2.3,4.2,3.6,6.1c0.9,1.2,2.2,2.1,3.8,2.7
	c1.6,0.6,3.2,0.8,4.7,0.8c0.7,0,1.3-0.1,2-0.3c0.6-0.2,1.1-0.5,1.5-0.9c0.5-0.3,0.7-0.6,0.8-0.9c1.5-2.7,3.1-5.3,5-7.7
	c1.8-2.5,3.5-5,5.1-7.7v-0.1c0.2,2.9,0.5,5.9,0.8,8.9c0.3,3,0.6,6,0.8,8.9c0.5,6.2,1.2,12.4,2.2,18.5c1,6.1,1.9,12.2,2.5,18.4
	c0.1,0.7,0.6,1.3,1.4,1.9c0.9,0.5,1.9,0.9,2.9,1c1,0.2,2,0.1,2.8-0.2c0.8-0.3,1.2-0.8,1.2-1.7C384.8,393.4,384.8,387.5,384.9,381.6z
	 M412.9,157.8c-0.5-0.9-1.2-2.1-1.5-2.6c-0.4-0.5-1.5-2.3-2.5-4c-1-1.7-2.3-3.8-2.9-4.8c-2.7-4.3-8.6-15.3-10.8-20
	c-1.5-3.3-4.8-10.8-4.7-10.9c0,0,2.6-0.1,5.7-0.3c6-0.2,6.9-0.3,7.9-1.1c0.3-0.2,0.7-0.7,1-1.1c0.4-0.6,0.5-0.9,0.5-1.8
	c0-1.2-0.2-1.6-1.6-3.4c-0.5-0.7-2.1-2.7-3.4-4.5c-1.3-1.8-3.6-4.7-5-6.6c-3.2-4.2-5.2-7.1-10-14.4c-2-3.1-4.3-6.5-5.1-7.6
	c-0.8-1.1-1.6-2.4-1.9-2.9l-0.5-0.9l1-0.1c0.5-0.1,2.3-0.1,3.8-0.2c1.6-0.1,3.2-0.2,3.7-0.4c2.2-0.6,3.3-2.3,2.9-4.4
	c-0.1-0.3-0.7-1.4-1.4-2.5c-0.7-1.1-2.1-3.3-3-5c-1.8-3.1-3-4.8-6.8-9.3c-1-1.3-2.8-3.7-4-5.4c-1.1-1.7-2.8-4.2-3.8-5.5
	c-0.9-1.3-2.3-3.4-3.1-4.6c-2.4-3.7-3.1-4.8-4.1-5.8c-1.3-1.4-2.6-1.9-4.1-1.5c-0.4,0.1-0.9,0.4-1.2,0.5c-1,0.7-1.2,1-4.7,7.6
	c-1.5,2.8-3.3,5.9-5.5,9.4c-0.9,1.4-2,3.4-2.5,4.3c-2.6,4.8-4.6,7.9-10.9,16.8c-1,1.5-2,3.1-2.3,3.5c-0.4,1-0.4,2.2-0.1,3
	c0.4,0.8,1.4,1.7,2.2,1.9c0.8,0.2,2.6,0.2,5.4-0.1c1.3-0.1,2.4-0.2,2.4-0.2c0.1,0.1-0.7,1.2-6.8,10.4c-6.9,10.4-9.1,13.4-14.4,20.2
	c-0.8,1-1.6,2.1-1.8,2.5c-0.4,0.7-0.4,2.1-0.1,2.9c0.3,0.8,1.3,1.6,2.2,2c0.9,0.3,5.4,1,8.4,1.3c1.9,0.2,3.7,0.4,3.8,0.5
	c0.1,0.1-2.8,6.3-5.5,11.8c-2.5,5-6.9,13.1-9.8,18.1c-0.7,1.1-2.1,3.6-3.1,5.4c-1,1.9-2.6,4.5-3.4,5.8c-1.4,2.2-1.5,2.5-1.6,3.3
	c-0.1,1.2,0.2,2.1,1.1,2.9c0.4,0.4,0.8,0.9,1.1,1.2c0.9,1.1,0.6,1.1,10.2,1.2c4.7,0,10.2,0.2,12.2,0.2c2,0.1,5.8,0.2,8.6,0.2
	c2.7,0,5.6,0.1,6.4,0.1l1.4,0.1v1.6c0,0.9,0.1,2.7,0.1,4.1c0.3,4.6,0.5,9.8,0.6,17.2l0.2,7.3l0.4,0.8c0.8,1.7,2.3,2.3,4.9,1.9
	c1-0.2,3.6-0.2,7.6-0.2c6.8,0,7-0.1,7.9-1.1c1-1.1,1-1.1,1-7.1c0-5.2-0.1-6.2-0.7-13.9c-0.2-2.1-0.5-6.5-0.5-8.6l-0.1-1.5l9.8,0
	c5.4,0,13.7,0.1,18.4,0.2s9,0.2,9.4,0.2c1,0,1.8-0.4,2.6-1.2c0.8-0.8,1-1.3,1-2.5C413.9,159.5,413.8,159.3,412.9,157.8z
	 M286.1,241.3c-0.4,0-0.6-0.2-1.5-1.1c-0.3-0.4-0.7-0.7-0.8-0.8l-0.2-0.1l0,1c0,1.1,0,1.1-0.2,1.3c-0.4,0.4-1,0.3-1.3-0.2
	c-0.1-0.2-0.1-0.2-0.1-0.7c0-0.6,0-1.6-0.1-1.6c0,0-1.6,1.3-1.8,1.5c-0.2,0.2-0.4,0.3-0.7,0.3c-0.3,0-0.5-0.2-0.6-0.4
	c-0.2-0.3-0.1-0.6,0.1-0.9c0.1-0.1,2.1-1.8,2.7-2.2l0.3-0.2l0-1.7c0-0.9,0-1.7,0-1.7c0,0,0,0-1,0.7c-0.4,0.3-1.2,0.9-1.7,1.3
	c-0.5,0.4-1,0.7-1,0.8c-0.2,0.1-0.6,0.1-0.9-0.1c-0.3-0.3-0.4-0.4-0.5-2.7c0-0.6-0.1-1.3-0.1-1.6c0-0.3-0.1-0.8-0.1-1
	c0-0.2,0-0.4,0-0.4c0,0-0.4,0.2-0.8,0.4c-0.4,0.2-1.1,0.6-1.6,0.8c-1,0.5-1.4,0.8-1.5,0.8c0,0-0.1,0.3-0.2,0.7
	c-0.1,0.4-0.2,1.1-0.3,1.6c-0.1,0.6-0.2,1.1-0.3,1.3c0,0.2-0.1,0.3-0.1,0.4c-0.3,0.7-1.4,0.5-1.5-0.2c0-0.2,0-0.3,0.3-1.7
	c0.1-0.6,0.2-1.1,0.2-1.1c0,0-0.2,0.1-0.9,0.4c-0.8,0.4-1,0.5-1.2,0.5c-0.2,0-0.3,0-0.5-0.2c-0.2-0.2-0.3-0.4-0.3-0.7
	c0-0.3,0.2-0.5,0.6-0.7c0.8-0.4,1.4-0.8,1.4-0.8c0,0-0.2-0.1-0.5-0.2c-0.5-0.2-1.9-0.8-2.1-0.9c-0.6-0.3-0.6-1.1-0.1-1.4
	c0.3-0.2,0.4-0.1,1.3,0.2c0.4,0.2,1.3,0.5,2,0.8l1.2,0.5l0.4-0.2c0.6-0.3,1.5-0.8,2.1-1.1c1-0.5,1-0.5,0.9-0.6
	c-0.4-0.1-3-0.9-3.7-1.2c-0.5-0.2-0.7-0.4-0.7-0.8c0-0.4,0.2-0.7,0.8-1c0.6-0.4,1-0.7,3-1.7c0.3-0.2,0.6-0.3,0.6-0.3
	c0.1,0,0.1-0.1,0-0.1c-0.1,0-0.6-0.2-1.1-0.5c-0.6-0.2-1.3-0.6-1.6-0.7c-0.6-0.2-0.6-0.2-0.7-0.2c-0.1,0-0.4,0.2-0.8,0.4
	c-0.4,0.2-0.9,0.4-1.2,0.6c-1,0.5-1.6,0.7-1.9,0.7c-0.7,0-1.1-0.9-0.5-1.4c0.1-0.1,0.3-0.2,0.5-0.3c0.7-0.2,2-0.9,2-0.9
	c0,0-0.3-0.1-0.5-0.2c-0.9-0.4-1.4-0.6-1.5-0.7c-0.2-0.3-0.2-0.7,0-1c0.2-0.3,0.6-0.4,1.1-0.2c0.4,0.2,1.5,0.7,1.5,0.6
	c0,0-0.4-1.6-0.6-2.5c-0.1-0.3-0.1-0.6-0.1-0.7c0-0.3,0.2-0.6,0.5-0.7c0.3-0.1,0.7,0,0.9,0.3c0.1,0.2,0.7,2.4,1.1,4.1l0.1,0.3
	l0.4,0.2c0.2,0.1,0.8,0.3,1.2,0.5c2.1,0.9,2.7,1.1,2.8,1.2c0.1,0,0.1,0,0.1-0.1c0-0.2-0.5-2.1-0.5-2.3c0-0.1-0.1-0.4-0.2-0.7
	c-0.1-0.5-0.2-1-0.4-1.4c-0.1-0.2-0.1-0.4-0.1-0.5c0-0.3,0.2-0.7,0.5-0.8c0.3-0.1,0.5-0.1,1.3,0.3c0.4,0.2,1.3,0.6,2.1,1
	c0.8,0.3,1.6,0.7,1.8,0.8c0.2,0.1,0.5,0.3,0.6,0.3l0.2,0.1l0-1.6c0-1.5,0-1.6-0.1-1.7c0-0.1-0.5-0.5-0.9-1c-1.5-1.5-1.8-1.9-1.6-2.4
	c0.1-0.4,0.3-0.6,0.7-0.6c0.3,0,0.5,0.1,0.7,0.4c0.3,0.4,0.5,0.6,0.9,1l0.4,0.4l0-0.8c0-0.6,0.1-0.9,0.1-1c0.1-0.2,0.3-0.3,0.5-0.4
	c0.4-0.1,0.8,0,0.9,0.4l0.1,0.2l0,1c0,0.5,0,1,0,1c0,0,0.1,0,0.2-0.1c0.4-0.3,2.1-1.3,2.3-1.4c0.2-0.1,0.4-0.1,0.7,0.1
	c0.4,0.2,0.5,0.7,0.3,1.1c-0.1,0.2-0.2,0.2-0.8,0.6c-0.4,0.2-1.1,0.7-1.7,1.1l-1,0.7l0,0.8c0,0.5,0,1.1,0,1.3v0.5l0.3-0.3
	c0.2-0.1,0.5-0.4,0.8-0.6c0.6-0.5,1-0.8,1.7-1.3c0.8-0.5,0.8-0.5,1.1-0.5c0.3,0,0.4,0.1,0.6,0.2c0.3,0.3,0.4,0.6,0.4,2
	c0,1.4,0,2.5,0,3.1c0,0.3,0,0.5,0,0.6c0,0,0.1,0,0.5-0.2c0.3-0.2,1.1-0.6,1.8-0.9l1.3-0.7l0.1-0.4c0.1-0.2,0.2-0.8,0.3-1.2
	c0.3-1.3,0.7-2.3,0.9-2.5c0.3-0.3,0.9-0.3,1.2,0.1c0.2,0.2,0.2,0.5,0,0.9c-0.2,0.5-0.7,2-0.7,2.1c0,0,0.3-0.1,0.6-0.3
	c0.7-0.4,0.8-0.4,1.1-0.3c0.2,0.1,0.5,0.3,0.5,0.6c0.1,0.3,0,0.5-0.2,0.8c-0.2,0.2-0.4,0.3-0.5,0.3c-0.1,0-1.1,0.6-1.2,0.6
	c0,0,0.2,0.2,1.8,1c0.6,0.3,1.1,0.6,1.2,0.7c0.3,0.3,0.3,0.9-0.1,1.2c-0.3,0.2-0.5,0.2-1,0c-0.8-0.4-2.7-1.4-3.2-1.8l-0.3-0.2
	l-1.4,0.7c-1.8,0.9-1.7,0.9-1.6,0.9c0.2,0.1,2.7,0.9,3.1,1c0.5,0.2,0.7,0.2,0.8,0.5c0.2,0.2,0.2,0.4,0.1,0.7c0,0.2-0.1,0.3-0.3,0.5
	c-0.4,0.4-2.6,2-3.4,2.5c-0.2,0.1-0.3,0.2-0.3,0.2c0,0,0.1,0.1,0.3,0.1c0.1,0.1,0.7,0.3,1.3,0.6c0.6,0.3,1.3,0.6,1.7,0.8l0.7,0.3
	l0.6-0.2c0.4-0.1,0.9-0.3,1.2-0.5c0.5-0.2,1.4-0.5,1.7-0.6c0.3-0.1,0.7,0.1,0.8,0.4c0.2,0.5,0,1-0.5,1.1c-0.7,0.2-1.8,0.6-1.8,0.6
	c0,0,0.2,0.1,0.3,0.2c0.8,0.4,1.1,0.5,1.2,0.7c0.2,0.4,0.2,0.8-0.1,1.1c-0.2,0.2-0.7,0.2-0.9,0.1c-0.1-0.1-1.3-0.6-1.3-0.6
	c0,0,0,0.2,0.1,0.5c0.2,0.8,0.5,2.3,0.5,2.4c0,0.6-0.8,1-1.3,0.6c-0.1-0.1-0.2-0.2-0.2-0.3c0-0.1-0.1-0.5-0.2-1
	c-0.1-0.5-0.3-1.1-0.3-1.6c-0.1-0.4-0.2-0.9-0.3-1.1c0-0.2-0.1-0.4-0.1-0.4c0,0-0.1-0.1-0.3-0.1c-0.3-0.1-1.6-0.7-2.2-1
	c-0.7-0.3-2.1-1-2.2-1c0,0,0,0,0,0c0,0.1,0.4,1.2,0.7,2c0.6,1.4,0.8,2,0.8,2.2c0,0.3-0.1,0.5-0.3,0.7c-0.2,0.2-0.4,0.2-0.7,0.2
	c-0.5,0-1-0.2-2.5-0.7c-0.7-0.3-2.6-1-3.1-1.1c-0.1,0-0.1,0.1-0.1,1.7l0,1.7l1.4,1.3c0.8,0.7,1.4,1.4,1.5,1.5
	c0.2,0.1,0.3,0.2,0.4,0.4C287,240.8,286.6,241.4,286.1,241.3z M287.3,225.2c-2.2,1.2-2.1,1.1-2.1,1.2c0,0.1,0,0.2,0,0.4l0,0.3
	l0.5,0.2c0.3,0.1,1,0.4,1.5,0.6l0.9,0.4l0.2-0.1c0.1-0.1,0.4-0.2,0.7-0.4c0.7-0.4,1-0.6,1.9-1.3l0.7-0.5l-1.3-0.4
	c-0.7-0.2-1.5-0.5-1.7-0.6c-0.2-0.1-0.4-0.2-0.5-0.2l-0.1-0.1L287.3,225.2z M283.6,224.6c0,0,0.1,0.1,0.2,0.1c0.1,0,0.3,0.1,0.4,0.2
	l0.2,0.1l0.2-0.1c0.1,0,0.6-0.3,1.3-0.7l1.1-0.6l0-0.3c0-0.2,0-0.6,0.1-1c0-0.4,0.1-1.1,0-1.7c0-0.6,0-1.2,0-1.4l0-0.3l-0.4,0.3
	c-0.2,0.2-0.5,0.4-0.6,0.5c-0.1,0.1-0.6,0.5-1,0.9c-0.4,0.4-0.9,0.8-1,0.8l-0.2,0.2l0,1.4C283.6,223.9,283.6,224.5,283.6,224.6z
	 M283.5,229.7l0,0.4c0,0.2,0,0.7,0,1.1v0.7l0.5,0.2c0.3,0.1,0.8,0.3,1.3,0.5c0.4,0.1,1.3,0.5,1.8,0.7c0.6,0.2,1,0.4,1,0.4
	s-0.1-0.4-0.3-0.9c-0.3-0.8-0.9-2.4-1-3c0-0.1-0.1-0.3-0.1-0.3c0,0-0.4-0.2-0.8-0.4c-0.4-0.2-0.8-0.4-0.9-0.4
	c-0.1,0-0.2-0.1-0.2-0.1c0,0-0.1,0.1-0.2,0.2c-0.2,0.3-0.4,0.5-0.8,0.7L283.5,229.7z M278.6,228l1.2-0.7l0-0.3c0-0.2,0-0.4,0-0.4
	l0-0.1l-1.3-0.6c-0.7-0.3-1.4-0.6-1.4-0.6c0,0-0.4,0.2-0.7,0.4s-0.9,0.5-1.2,0.7c-1.2,0.6-1.9,1-1.9,1.1c0,0,0.5,0.2,1,0.3
	c1.2,0.4,1.6,0.5,2.3,0.7c0.3,0.1,0.6,0.2,0.6,0.2C277.4,228.6,277.9,228.3,278.6,228z M282,231.1c0-0.5,0-0.9,0-1.1l0-0.2l-0.2-0.1
	c-0.1,0-0.4-0.1-0.6-0.2c-0.3-0.1-0.4-0.2-0.6-0.4c-0.1-0.1-0.3-0.3-0.3-0.3c0,0-0.8,0.5-1.5,0.8l-0.6,0.3l0,0.8
	c0,0.4,0,1.2,0.1,1.7c0,0.5,0.1,1.2,0.1,1.5c0,0.3,0,0.6,0.1,0.6c0,0,0.2-0.1,0.5-0.3c0.7-0.5,1.7-1.2,2.3-1.7
	c0.3-0.2,0.6-0.4,0.7-0.5l0.1-0.1V231.1z M282.1,221.8c0,0-1.7-0.8-2.8-1.3c-0.4-0.2-1-0.5-1.2-0.6l-0.5-0.2l0.1,0.4
	c0,0.2,0.1,0.5,0.1,0.5c0,0.2,0.7,3.1,0.8,3.5c0,0.1,0,0.1,1.7,0.8l0.5,0.2l0.2-0.2c0.1-0.1,0.2-0.2,0.3-0.2
	c0.2-0.1,0.6-0.3,0.7-0.3c0,0,0.1,0,0.1,0C282.1,224.3,282.1,221.8,282.1,221.8z M328.8,219.8c0.4,0.9,0.5,1.3,0.5,1.5
	c0,0.2-0.1,0.3-0.2,0.4c-0.1,0.1-0.2,0.2-0.5,0.2c-0.4,0-0.7-0.1-1.7-0.5c-0.5-0.2-1.8-0.7-2-0.7c0,0,0,0,0,1.1l0,1.1l0.9,0.9
	c0.5,0.5,1,0.9,1,1c0.2,0.1,0.2,0.1,0.2,0.3c0.1,0.3-0.1,0.7-0.5,0.7c-0.2,0-0.4-0.1-1-0.7c-0.2-0.2-0.5-0.5-0.5-0.5l-0.1-0.1l0,0.7
	c0,0.7,0,0.7-0.1,0.9c-0.2,0.3-0.7,0.2-0.8-0.1c0-0.1-0.1-0.1-0.1-0.4c0-0.4,0-1-0.1-1c0,0-1.1,0.9-1.2,1c-0.1,0.2-0.3,0.2-0.5,0.2
	c-0.2,0-0.3-0.1-0.4-0.3c-0.1-0.2-0.1-0.4,0.1-0.6c0.1-0.1,1.4-1.2,1.8-1.5l0.2-0.2l0-1.1c0-0.6,0-1.1,0-1.1c0,0,0,0-0.7,0.5
	c-0.3,0.2-0.8,0.6-1.2,0.8c-0.4,0.3-0.7,0.5-0.7,0.5c-0.2,0.1-0.4,0-0.6-0.1c-0.2-0.2-0.2-0.3-0.3-1.8c0-0.4-0.1-0.8-0.1-1.1
	c0-0.2,0-0.5,0-0.7c0-0.1,0-0.3,0-0.3c0,0-0.3,0.1-0.6,0.3s-0.8,0.4-1,0.5c-0.7,0.3-1,0.5-1,0.5c0,0-0.1,0.2-0.1,0.5
	c0,0.2-0.2,0.7-0.2,1.1c-0.1,0.4-0.2,0.8-0.2,0.9c0,0.1-0.1,0.2-0.1,0.3c-0.2,0.5-0.9,0.4-1-0.2c0-0.2,0-0.2,0.2-1.1
	c0.1-0.4,0.2-0.7,0.2-0.7c0,0-0.2,0.1-0.6,0.3c-0.5,0.3-0.6,0.3-0.8,0.3c-0.2,0-0.2,0-0.3-0.1c-0.1-0.1-0.2-0.3-0.2-0.4
	c0-0.2,0.1-0.3,0.4-0.5c0.5-0.3,1-0.5,1-0.5c0,0-0.1-0.1-0.3-0.1c-0.3-0.1-1.3-0.5-1.4-0.6c-0.4-0.2-0.4-0.7,0-0.9
	c0.2-0.1,0.3-0.1,0.8,0.2c0.3,0.1,0.9,0.4,1.3,0.5l0.8,0.3l0.2-0.1c0.4-0.2,1-0.5,1.4-0.7c0.7-0.4,0.7-0.4,0.6-0.4
	c-0.3-0.1-2-0.6-2.4-0.8c-0.3-0.1-0.5-0.3-0.4-0.6c0-0.3,0.1-0.4,0.5-0.7c0.4-0.3,0.7-0.4,2-1.1c0.2-0.1,0.4-0.2,0.4-0.2
	c0,0,0,0,0-0.1c0,0-0.4-0.2-0.7-0.3c-0.4-0.2-0.8-0.4-1.1-0.5c-0.4-0.2-0.4-0.2-0.4-0.1c0,0-0.3,0.1-0.5,0.2s-0.6,0.3-0.8,0.4
	c-0.7,0.3-1.1,0.5-1.3,0.5c-0.5,0-0.7-0.6-0.3-0.9c0.1,0,0.2-0.1,0.3-0.2c0.4-0.2,1.3-0.6,1.3-0.6c0,0-0.2-0.1-0.4-0.2
	c-0.6-0.3-0.9-0.4-1-0.5c-0.1-0.2-0.2-0.5,0-0.6c0.2-0.2,0.4-0.3,0.7-0.1c0.3,0.1,1,0.4,1,0.4s-0.2-1-0.4-1.7
	c-0.1-0.2-0.1-0.4-0.1-0.5c0-0.2,0.2-0.4,0.4-0.5c0.2-0.1,0.5,0,0.6,0.2c0.1,0.1,0.5,1.6,0.7,2.7l0.1,0.2l0.3,0.1
	c0.1,0.1,0.5,0.2,0.8,0.3c1.4,0.6,1.8,0.8,1.8,0.8c0.1,0,0.1,0,0-0.1c0-0.1-0.3-1.4-0.4-1.6c0-0.1-0.1-0.3-0.1-0.4
	c-0.1-0.3-0.1-0.6-0.3-0.9c0-0.1-0.1-0.3-0.1-0.3c0-0.2,0.1-0.5,0.3-0.5c0.2-0.1,0.3-0.1,0.9,0.2c0.3,0.1,0.9,0.4,1.4,0.6
	s1.1,0.5,1.2,0.6c0.2,0.1,0.3,0.2,0.4,0.2l0.1,0.1l0-1.1c0-1,0-1.1-0.1-1.1c0,0-0.3-0.3-0.6-0.6c-1-1-1.2-1.3-1.1-1.6
	c0.1-0.2,0.2-0.4,0.5-0.4c0.2,0,0.3,0.1,0.5,0.2c0.2,0.3,0.3,0.4,0.6,0.7l0.2,0.3l0-0.6c0-0.4,0-0.6,0.1-0.6
	c0.1-0.1,0.2-0.2,0.3-0.3c0.2-0.1,0.5,0,0.6,0.3l0.1,0.1l0,0.7c0,0.4,0,0.7,0,0.7s0.1,0,0.1-0.1c0.3-0.2,1.4-0.9,1.5-0.9
	c0.1-0.1,0.3,0,0.4,0c0.2,0.1,0.3,0.5,0.2,0.7c-0.1,0.1-0.1,0.2-0.5,0.4c-0.3,0.2-0.8,0.5-1.1,0.7l-0.7,0.4l0,0.6c0,0.3,0,0.7,0,0.9
	v0.3l0.2-0.2c0.1-0.1,0.3-0.3,0.5-0.4c0.4-0.3,0.7-0.5,1.2-0.9c0.5-0.4,0.6-0.4,0.7-0.4c0.2,0,0.3,0,0.4,0.2
	c0.2,0.2,0.2,0.4,0.3,1.3c0,0.9,0,1.7,0,2.1c0,0.2,0,0.4,0,0.4c0,0,0.1,0,0.4-0.1c0.2-0.1,0.7-0.4,1.2-0.6l0.9-0.4l0.1-0.3
	c0.1-0.2,0.1-0.5,0.2-0.8c0.2-0.8,0.5-1.5,0.6-1.7c0.2-0.2,0.6-0.2,0.8,0.1c0.1,0.2,0.1,0.4,0,0.6c-0.1,0.3-0.5,1.4-0.4,1.4
	c0,0,0.2-0.1,0.4-0.2c0.4-0.2,0.6-0.3,0.8-0.2c0.2,0,0.3,0.2,0.4,0.4c0,0.2,0,0.4-0.2,0.5c-0.1,0.1-0.2,0.2-0.3,0.2
	c-0.1,0-0.8,0.4-0.8,0.4c0,0,0.2,0.1,1.2,0.7c0.4,0.2,0.7,0.4,0.8,0.4c0.2,0.2,0.2,0.6,0,0.8c-0.2,0.1-0.4,0.1-0.7,0
	c-0.5-0.2-1.8-1-2.2-1.2l-0.2-0.1l-0.9,0.5c-1.2,0.6-1.2,0.6-1.1,0.6c0.1,0,1.8,0.6,2.1,0.7c0.4,0.1,0.4,0.2,0.6,0.3
	c0.1,0.1,0.1,0.3,0.1,0.5c0,0.1-0.1,0.2-0.2,0.3c-0.3,0.3-1.7,1.4-2.3,1.7c-0.1,0.1-0.2,0.1-0.2,0.1c0,0,0.1,0,0.2,0.1
	c0.1,0,0.5,0.2,0.9,0.4c0.4,0.2,0.9,0.4,1.1,0.5l0.4,0.2l0.4-0.2c0.2-0.1,0.6-0.2,0.8-0.3c0.4-0.1,1-0.3,1.1-0.4
	c0.2,0,0.5,0.1,0.6,0.3c0.1,0.3,0,0.6-0.4,0.7c-0.4,0.1-1.2,0.4-1.2,0.4c0,0,0.1,0.1,0.2,0.1c0.6,0.2,0.8,0.3,0.8,0.4
	c0.2,0.2,0.1,0.5-0.1,0.7c-0.2,0.1-0.4,0.2-0.6,0.1c-0.1,0-0.9-0.4-0.9-0.4c0,0,0,0.1,0.1,0.3c0.1,0.5,0.3,1.5,0.3,1.6
	c0,0.4-0.5,0.7-0.8,0.4c-0.1,0-0.1-0.1-0.1-0.2c0-0.1-0.1-0.3-0.2-0.6c-0.1-0.3-0.2-0.8-0.2-1c-0.1-0.3-0.1-0.6-0.2-0.8
	c0-0.1-0.1-0.3-0.1-0.3c0,0-0.1,0-0.2-0.1c-0.2-0.1-1-0.5-1.5-0.7c-0.5-0.2-1.4-0.7-1.5-0.7c0,0,0,0,0,0
	C328.3,218.5,328.6,219.3,328.8,219.8z M321.6,216.9l0.8-0.4l0-0.2c0-0.1,0-0.3,0-0.3l0-0.1l-0.9-0.4c-0.5-0.2-0.9-0.4-0.9-0.4
	c0,0-0.2,0.1-0.5,0.2c-0.2,0.1-0.6,0.3-0.8,0.4c-0.8,0.4-1.3,0.7-1.3,0.7c0,0,0.3,0.1,0.7,0.2c0.8,0.2,1.1,0.3,1.6,0.5
	c0.2,0.1,0.4,0.1,0.4,0.1C320.7,217.3,321.1,217.1,321.6,216.9z M323.9,219c0-0.3,0-0.6,0-0.7l0-0.2l-0.1,0c-0.1,0-0.2-0.1-0.4-0.2
	c-0.2-0.1-0.3-0.2-0.4-0.3c-0.1-0.1-0.2-0.2-0.2-0.2c0,0-0.6,0.3-1,0.5l-0.4,0.2l0,0.5c0,0.3,0,0.8,0.1,1.1c0,0.3,0.1,0.8,0.1,1
	c0,0.2,0,0.4,0,0.4c0,0,0.2-0.1,0.3-0.2c0.4-0.3,1.1-0.8,1.6-1.1c0.2-0.1,0.4-0.3,0.4-0.3l0.1-0.1V219z M323.9,212.8
	c0,0-1.1-0.6-1.8-0.9c-0.3-0.1-0.7-0.3-0.8-0.4l-0.3-0.2l0.1,0.3c0,0.1,0.1,0.3,0.1,0.3c0,0.1,0.5,2.1,0.5,2.3c0,0,0,0,1.1,0.5
	l0.3,0.1l0.1-0.1c0.1-0.1,0.2-0.1,0.2-0.2c0.1-0.1,0.4-0.2,0.5-0.2c0,0,0.1,0,0.1,0C323.9,214.5,323.9,212.8,323.9,212.8z
	 M324.9,214.6c0,0,0.1,0,0.1,0.1c0.1,0,0.2,0.1,0.3,0.1l0.1,0.1l0.1-0.1c0.1,0,0.4-0.2,0.8-0.4l0.7-0.4l0-0.2c0-0.1,0-0.4,0-0.7
	c0-0.3,0-0.8,0-1.2c0-0.4,0-0.8,0-0.9l0-0.2l-0.3,0.2c-0.2,0.1-0.3,0.3-0.4,0.3s-0.4,0.3-0.7,0.6s-0.6,0.5-0.7,0.6l-0.1,0.1l0,1
	C324.9,214.2,324.9,214.6,324.9,214.6z M328,220.7c0,0-0.1-0.3-0.2-0.6c-0.2-0.5-0.6-1.6-0.7-2c0-0.1-0.1-0.2-0.1-0.2
	c0,0-0.3-0.1-0.5-0.2c-0.3-0.1-0.6-0.2-0.6-0.3c-0.1,0-0.1-0.1-0.1-0.1s-0.1,0.1-0.1,0.1c-0.1,0.2-0.3,0.3-0.5,0.5l-0.2,0.1l0,0.3
	c0,0.1,0,0.5,0,0.8v0.5l0.3,0.1c0.2,0.1,0.6,0.2,0.8,0.3c0.3,0.1,0.8,0.3,1.2,0.4C327.6,220.6,328,220.7,328,220.7z M328.1,217.1
	c0.1,0,0.3-0.2,0.5-0.3c0.4-0.3,0.7-0.4,1.3-0.8l0.5-0.3l-0.9-0.3c-0.5-0.2-1-0.3-1.1-0.4c-0.1-0.1-0.3-0.1-0.3-0.2l-0.1,0l-0.5,0.3
	c-1.5,0.8-1.4,0.7-1.4,0.8c0,0,0,0.2,0,0.3l0,0.2l0.4,0.2c0.2,0.1,0.6,0.3,1,0.4l0.6,0.3L328.1,217.1z M353.2,218.8
	c-0.4-0.1-3-0.9-3.7-1.2c-0.5-0.2-0.7-0.4-0.7-0.8c0-0.4,0.2-0.7,0.8-1c0.6-0.4,1-0.7,3-1.7c0.3-0.2,0.6-0.3,0.6-0.3
	c0.1,0,0.1-0.1,0-0.1c-0.1,0-0.6-0.2-1.1-0.5c-0.6-0.2-1.3-0.6-1.6-0.7c-0.6-0.2-0.6-0.2-0.7-0.2c-0.1,0-0.4,0.2-0.8,0.4
	c-0.4,0.2-0.9,0.4-1.2,0.6c-1,0.5-1.6,0.7-1.9,0.7c-0.7,0-1.1-0.9-0.5-1.4c0.1-0.1,0.3-0.2,0.5-0.3c0.7-0.2,2-0.9,2-0.9
	c0,0-0.3-0.1-0.5-0.2c-0.9-0.4-1.4-0.6-1.5-0.7c-0.2-0.3-0.2-0.7,0-1c0.2-0.3,0.6-0.4,1.1-0.2c0.4,0.2,1.5,0.7,1.5,0.6
	c0,0-0.4-1.6-0.6-2.5c-0.1-0.3-0.1-0.6-0.1-0.7c0-0.3,0.2-0.6,0.5-0.7c0.3-0.1,0.7,0,0.9,0.3c0.1,0.2,0.7,2.4,1.1,4.1l0.1,0.3
	l0.4,0.2c0.2,0.1,0.8,0.3,1.2,0.5c2.1,0.9,2.7,1.1,2.8,1.2c0.1,0,0.1,0,0.1-0.1c0-0.2-0.5-2.1-0.5-2.3c0-0.1-0.1-0.4-0.2-0.7
	c-0.1-0.5-0.2-1-0.4-1.4c-0.1-0.2-0.1-0.4-0.1-0.5c0-0.3,0.2-0.7,0.5-0.8c0.3-0.1,0.5-0.1,1.3,0.3c0.4,0.2,1.3,0.6,2.1,1
	c0.8,0.3,1.6,0.7,1.8,0.8c0.2,0.1,0.5,0.3,0.6,0.3l0.2,0.1l0-1.6c0-1.5,0-1.6-0.1-1.7c0-0.1-0.5-0.5-0.9-1c-1.5-1.5-1.8-1.9-1.6-2.4
	c0.1-0.4,0.3-0.6,0.7-0.6c0.3,0,0.5,0.1,0.7,0.4c0.3,0.4,0.5,0.6,0.9,1l0.4,0.4l0-0.8c0-0.6,0.1-0.9,0.1-1c0.1-0.2,0.3-0.3,0.5-0.4
	c0.4-0.1,0.8,0,0.9,0.4l0.1,0.2l0,1c0,0.5,0,1,0,1c0,0,0.1,0,0.2-0.1c0.4-0.3,2.1-1.3,2.3-1.4c0.2-0.1,0.4-0.1,0.7,0.1
	c0.4,0.2,0.5,0.7,0.3,1.1c-0.1,0.2-0.2,0.2-0.8,0.6c-0.4,0.2-1.1,0.7-1.7,1.1l-1,0.7l0,0.8c0,0.5,0,1.1,0,1.3v0.5l0.3-0.3
	c0.2-0.1,0.5-0.4,0.8-0.6c0.6-0.5,1-0.8,1.7-1.3c0.8-0.5,0.8-0.5,1.1-0.5c0.3,0,0.4,0.1,0.6,0.2c0.3,0.3,0.4,0.6,0.4,2
	c0,1.4,0,2.5,0,3.1c0,0.3,0,0.5,0,0.6c0,0,0.1,0,0.5-0.2c0.3-0.2,1.1-0.6,1.8-0.9l1.3-0.7l0.1-0.4c0.1-0.2,0.2-0.8,0.3-1.2
	c0.3-1.3,0.7-2.3,0.9-2.5c0.3-0.3,0.9-0.3,1.2,0.1c0.2,0.2,0.2,0.5,0,0.9c-0.2,0.5-0.7,2-0.7,2.1c0,0,0.3-0.1,0.6-0.3
	c0.7-0.4,0.8-0.4,1.1-0.3c0.2,0.1,0.5,0.3,0.5,0.6c0.1,0.3,0,0.5-0.2,0.8c-0.2,0.2-0.4,0.3-0.5,0.3c-0.1,0-1.1,0.6-1.2,0.6
	c0,0,0.2,0.2,1.8,1c0.6,0.3,1.1,0.6,1.2,0.7c0.3,0.3,0.3,0.9-0.1,1.2c-0.3,0.2-0.5,0.2-1,0c-0.8-0.4-2.7-1.4-3.2-1.8l-0.3-0.2
	l-1.4,0.7c-1.8,0.9-1.7,0.9-1.6,0.9c0.2,0.1,2.7,0.9,3.1,1c0.5,0.2,0.7,0.2,0.8,0.5c0.2,0.2,0.2,0.4,0.1,0.7c0,0.2-0.1,0.3-0.3,0.5
	c-0.4,0.4-2.6,2-3.4,2.5c-0.2,0.1-0.3,0.2-0.3,0.2c0,0,0.1,0.1,0.3,0.1c0.1,0.1,0.7,0.3,1.3,0.6c0.6,0.3,1.3,0.6,1.7,0.8l0.7,0.3
	l0.6-0.2c0.4-0.1,0.9-0.3,1.2-0.5c0.5-0.2,1.4-0.5,1.7-0.6c0.3-0.1,0.7,0.1,0.8,0.4c0.2,0.5,0,1-0.5,1.1c-0.7,0.2-1.8,0.6-1.8,0.6
	c0,0,0.2,0.1,0.3,0.2c0.8,0.4,1.1,0.5,1.2,0.7c0.2,0.4,0.2,0.8-0.1,1.1c-0.2,0.2-0.7,0.2-0.9,0.1c-0.1-0.1-1.3-0.6-1.3-0.6
	c0,0,0,0.2,0.1,0.5c0.2,0.8,0.5,2.3,0.5,2.4c0,0.6-0.8,1-1.3,0.6c-0.1-0.1-0.2-0.2-0.2-0.3c0-0.1-0.1-0.5-0.2-1
	c-0.1-0.5-0.3-1.1-0.3-1.6c-0.1-0.4-0.2-0.9-0.3-1.1c0-0.2-0.1-0.4-0.1-0.4c0,0-0.1-0.1-0.3-0.1c-0.3-0.1-1.6-0.7-2.2-1
	c-0.7-0.3-2.1-1-2.2-1c0,0,0,0,0,0c0,0.1,0.4,1.2,0.7,2c0.6,1.4,0.8,2,0.8,2.2c0,0.3-0.1,0.5-0.3,0.7c-0.2,0.2-0.4,0.2-0.7,0.2
	c-0.5,0-1-0.2-2.5-0.7c-0.7-0.3-2.6-1-3.1-1.1c-0.1,0-0.1,0.1-0.1,1.7l0,1.7l1.4,1.3c0.8,0.7,1.4,1.4,1.5,1.5
	c0.2,0.1,0.3,0.2,0.4,0.4c0.2,0.5-0.2,1.1-0.8,1.1c-0.4,0-0.6-0.2-1.5-1.1c-0.3-0.4-0.7-0.7-0.8-0.8l-0.2-0.1l0,1
	c0,1.1,0,1.1-0.2,1.3c-0.4,0.4-1,0.3-1.3-0.2c-0.1-0.2-0.1-0.2-0.1-0.7c0-0.6,0-1.6-0.1-1.6c0,0-1.6,1.3-1.8,1.5
	c-0.2,0.2-0.4,0.3-0.7,0.3c-0.3,0-0.5-0.2-0.6-0.4c-0.2-0.3-0.1-0.6,0.1-0.9c0.1-0.1,2.1-1.8,2.7-2.2l0.3-0.2l0-1.7
	c0-0.9,0-1.7,0-1.7c0,0,0,0-1,0.7c-0.4,0.3-1.2,0.9-1.7,1.3c-0.5,0.4-1,0.7-1,0.8c-0.2,0.1-0.6,0.1-0.9-0.1
	c-0.3-0.3-0.4-0.4-0.5-2.7c0-0.6-0.1-1.3-0.1-1.6c0-0.3-0.1-0.8-0.1-1c0-0.2,0-0.4,0-0.4c0,0-0.4,0.2-0.8,0.4
	c-0.4,0.2-1.1,0.6-1.6,0.8c-1,0.5-1.4,0.8-1.5,0.8c0,0-0.1,0.3-0.2,0.7c-0.1,0.4-0.2,1.1-0.3,1.6c-0.1,0.6-0.2,1.1-0.3,1.3
	c0,0.2-0.1,0.3-0.1,0.4c-0.3,0.7-1.4,0.5-1.5-0.2c0-0.2,0-0.3,0.3-1.7c0.1-0.6,0.2-1.1,0.2-1.1c0,0-0.2,0.1-0.9,0.4
	c-0.8,0.4-1,0.5-1.2,0.5c-0.2,0-0.3,0-0.5-0.2c-0.2-0.2-0.3-0.4-0.3-0.7c0-0.3,0.2-0.5,0.6-0.7c0.8-0.4,1.4-0.8,1.4-0.8
	c0,0-0.2-0.1-0.5-0.2c-0.5-0.2-1.9-0.8-2.1-0.9c-0.6-0.3-0.6-1.1-0.1-1.4c0.3-0.2,0.4-0.1,1.3,0.2c0.4,0.2,1.3,0.5,2,0.8l1.2,0.5
	l0.4-0.2c0.6-0.3,1.5-0.8,2.1-1.1C353.4,218.9,353.4,218.9,353.2,218.8z M365.2,214.4c-2.2,1.2-2.1,1.1-2.1,1.2c0,0.1,0,0.2,0,0.4
	l0,0.3l0.5,0.2c0.3,0.1,1,0.4,1.5,0.6l0.9,0.4l0.2-0.1c0.1-0.1,0.4-0.2,0.7-0.4c0.7-0.4,1-0.6,1.9-1.3l0.7-0.5l-1.3-0.4
	c-0.7-0.2-1.5-0.5-1.7-0.6c-0.2-0.1-0.4-0.2-0.5-0.2L366,214L365.2,214.4z M361.6,213.8c0,0,0.1,0.1,0.2,0.1c0.1,0,0.3,0.1,0.4,0.2
	l0.2,0.1l0.2-0.1c0.1,0,0.6-0.3,1.3-0.7l1.1-0.6l0-0.3c0-0.2,0-0.6,0.1-1c0-0.4,0.1-1.1,0-1.7c0-0.6,0-1.2,0-1.4l0-0.3l-0.4,0.3
	c-0.2,0.2-0.5,0.4-0.6,0.5c-0.1,0.1-0.6,0.5-1,0.9c-0.4,0.4-0.9,0.8-1,0.8l-0.2,0.2l0,1.4C361.6,213.1,361.5,213.7,361.6,213.8z
	 M361.5,218.9l0,0.4c0,0.2,0,0.7,0,1.1v0.7l0.5,0.2c0.3,0.1,0.8,0.3,1.3,0.5c0.4,0.1,1.3,0.5,1.8,0.7c0.6,0.2,1,0.4,1,0.4
	s-0.1-0.4-0.3-0.9c-0.3-0.8-0.9-2.4-1-3c0-0.1-0.1-0.3-0.1-0.3c0,0-0.4-0.2-0.8-0.4c-0.4-0.2-0.8-0.4-0.9-0.4
	c-0.1,0-0.2-0.1-0.2-0.1c0,0-0.1,0.1-0.2,0.2c-0.2,0.3-0.4,0.5-0.8,0.7L361.5,218.9z M359.9,220.3c0-0.5,0-0.9,0-1.1l0-0.2l-0.2-0.1
	c-0.1,0-0.4-0.1-0.6-0.2c-0.3-0.1-0.4-0.2-0.6-0.4c-0.1-0.1-0.3-0.3-0.3-0.3c0,0-0.8,0.5-1.5,0.8l-0.6,0.3l0,0.8
	c0,0.4,0,1.2,0.1,1.7c0,0.5,0.1,1.2,0.1,1.5c0,0.3,0,0.6,0.1,0.6c0,0,0.2-0.1,0.5-0.3c0.7-0.5,1.7-1.2,2.3-1.7
	c0.3-0.2,0.6-0.4,0.7-0.5l0.1-0.1V220.3z M355.5,208.9l0.1,0.4c0,0.2,0.1,0.5,0.1,0.5c0,0.2,0.7,3.1,0.8,3.5c0,0.1,0,0.1,1.7,0.8
	l0.5,0.2l0.2-0.2c0.1-0.1,0.2-0.2,0.3-0.2c0.2-0.1,0.6-0.3,0.7-0.3c0,0,0.1,0,0.1,0c0.1,0,0.1-2.5,0.1-2.6c0,0-1.7-0.8-2.8-1.3
	c-0.4-0.2-1-0.5-1.2-0.6L355.5,208.9z M354.7,217.7c0.3,0.1,0.6,0.2,0.6,0.2s0.6-0.3,1.3-0.7l1.2-0.7l0-0.3c0-0.2,0-0.4,0-0.4l0-0.1
	l-1.3-0.6c-0.7-0.3-1.4-0.6-1.4-0.6c0,0-0.4,0.2-0.7,0.4s-0.9,0.5-1.2,0.7c-1.2,0.6-1.9,1-1.9,1.1c0,0,0.5,0.2,1,0.3
	C353.5,217.3,354,217.4,354.7,217.7z M185.5,377.4c0.2,0.5,0,1-0.5,1.1c-0.7,0.2-1.8,0.6-1.8,0.6c0,0,0.2,0.1,0.3,0.2
	c0.8,0.4,1.1,0.5,1.2,0.7c0.2,0.4,0.2,0.8-0.1,1.1c-0.2,0.2-0.7,0.2-0.9,0.1c-0.1-0.1-1.3-0.6-1.3-0.6c0,0,0,0.2,0.1,0.5
	c0.2,0.8,0.5,2.3,0.5,2.4c0,0.6-0.8,1-1.3,0.6c-0.1-0.1-0.2-0.2-0.2-0.3c0-0.1-0.1-0.5-0.2-1c-0.1-0.5-0.3-1.1-0.3-1.6
	c-0.1-0.4-0.2-0.9-0.3-1.1c0-0.2-0.1-0.4-0.1-0.4c0,0-0.1-0.1-0.3-0.1c-0.3-0.1-1.6-0.7-2.2-1c-0.7-0.3-2.1-1-2.2-1c0,0,0,0,0,0
	c0,0.1,0.4,1.2,0.7,2c0.6,1.4,0.8,2,0.8,2.2c0,0.3-0.1,0.5-0.3,0.7c-0.2,0.2-0.4,0.2-0.7,0.2c-0.5,0-1-0.2-2.5-0.7
	c-0.7-0.3-2.6-1-3.1-1.1c-0.1,0-0.1,0.1-0.1,1.7l0,1.7l1.4,1.3c0.8,0.7,1.4,1.4,1.5,1.5c0.2,0.1,0.3,0.2,0.4,0.4
	c0.2,0.5-0.2,1.1-0.8,1.1c-0.4,0-0.6-0.2-1.5-1.1c-0.3-0.4-0.7-0.7-0.8-0.8l-0.2-0.1l0,1c0,1.1,0,1.1-0.2,1.3
	c-0.4,0.4-1,0.3-1.3-0.2c-0.1-0.2-0.1-0.2-0.1-0.7c0-0.6,0-1.6-0.1-1.6c0,0-1.6,1.3-1.8,1.5c-0.2,0.2-0.4,0.3-0.7,0.3
	c-0.3,0-0.5-0.2-0.6-0.4c-0.2-0.3-0.1-0.6,0.1-0.9c0.1-0.1,2.1-1.8,2.7-2.2l0.3-0.2l0-1.7c0-0.9,0-1.7,0-1.7c0,0,0,0-1,0.7
	c-0.4,0.3-1.2,0.9-1.7,1.3c-0.5,0.4-1,0.7-1,0.8c-0.2,0.1-0.6,0.1-0.9-0.1c-0.3-0.3-0.4-0.4-0.5-2.7c0-0.6-0.1-1.3-0.1-1.6
	c0-0.3-0.1-0.8-0.1-1c0-0.2,0-0.4,0-0.4c0,0-0.4,0.2-0.8,0.4c-0.4,0.2-1.1,0.6-1.6,0.8c-1,0.5-1.4,0.8-1.5,0.8c0,0-0.1,0.3-0.2,0.7
	c-0.1,0.4-0.2,1.1-0.3,1.6c-0.1,0.6-0.2,1.1-0.3,1.3c0,0.2-0.1,0.3-0.1,0.4c-0.3,0.7-1.4,0.5-1.5-0.2c0-0.2,0-0.3,0.3-1.7
	c0.1-0.6,0.2-1.1,0.2-1.1c0,0-0.2,0.1-0.9,0.4c-0.8,0.4-1,0.5-1.2,0.5c-0.2,0-0.3,0-0.5-0.2c-0.2-0.2-0.3-0.4-0.3-0.7
	c0-0.3,0.2-0.5,0.6-0.7c0.8-0.4,1.4-0.8,1.4-0.8c0,0-0.2-0.1-0.5-0.2c-0.5-0.2-1.9-0.8-2.1-0.9c-0.6-0.3-0.6-1.1-0.1-1.4
	c0.3-0.2,0.4-0.1,1.3,0.2c0.4,0.2,1.3,0.5,2,0.8l1.2,0.5l0.4-0.2c0.6-0.3,1.5-0.8,2.1-1.1c1-0.5,1-0.5,0.9-0.6
	c-0.4-0.1-3-0.9-3.7-1.2c-0.5-0.2-0.7-0.4-0.7-0.8c0-0.4,0.2-0.7,0.8-1c0.6-0.4,1-0.7,3-1.7c0.3-0.2,0.6-0.3,0.6-0.3
	c0.1,0,0.1-0.1,0-0.1c-0.1,0-0.6-0.2-1.1-0.5s-1.3-0.6-1.6-0.7c-0.6-0.2-0.6-0.2-0.7-0.2c-0.1,0-0.4,0.2-0.8,0.4
	c-0.4,0.2-0.9,0.4-1.2,0.6c-1,0.5-1.6,0.7-1.9,0.7c-0.7,0-1.1-0.9-0.5-1.4c0.1-0.1,0.3-0.2,0.5-0.3c0.7-0.2,2-0.9,2-0.9
	c0,0-0.3-0.1-0.5-0.2c-0.9-0.4-1.4-0.6-1.5-0.7c-0.2-0.3-0.2-0.7,0-1c0.2-0.3,0.6-0.4,1.1-0.2c0.4,0.2,1.5,0.7,1.5,0.6
	c0,0-0.4-1.6-0.6-2.5c-0.1-0.3-0.1-0.6-0.1-0.7c0-0.3,0.2-0.6,0.5-0.7c0.3-0.1,0.7,0,0.9,0.3c0.1,0.2,0.7,2.4,1.1,4.1l0.1,0.3
	l0.4,0.2c0.2,0.1,0.8,0.3,1.2,0.5c2.1,0.9,2.7,1.1,2.8,1.2c0.1,0,0.1,0,0.1-0.1c0-0.2-0.5-2.1-0.5-2.3c0-0.1-0.1-0.4-0.2-0.7
	c-0.1-0.5-0.2-1-0.4-1.4c-0.1-0.2-0.1-0.4-0.1-0.5c0-0.3,0.2-0.7,0.5-0.8c0.3-0.1,0.5-0.1,1.3,0.3c0.4,0.2,1.3,0.6,2.1,1
	c0.8,0.3,1.6,0.7,1.8,0.8c0.2,0.1,0.5,0.3,0.6,0.3l0.2,0.1l0-1.6c0-1.5,0-1.6-0.1-1.7c0-0.1-0.5-0.5-0.9-1c-1.5-1.5-1.8-1.9-1.6-2.4
	c0.1-0.4,0.3-0.6,0.7-0.6c0.3,0,0.5,0.1,0.7,0.4c0.3,0.4,0.5,0.6,0.9,1l0.4,0.4l0-0.8c0-0.6,0.1-0.9,0.1-1c0.1-0.2,0.3-0.3,0.5-0.4
	c0.4-0.1,0.8,0,0.9,0.4l0.1,0.2l0,1c0,0.5,0,1,0,1c0,0,0.1,0,0.2-0.1c0.4-0.3,2.1-1.3,2.3-1.4c0.2-0.1,0.4-0.1,0.7,0.1
	c0.4,0.2,0.5,0.7,0.3,1.1c-0.1,0.2-0.2,0.2-0.8,0.6c-0.4,0.2-1.1,0.7-1.7,1.1l-1,0.7l0,0.8c0,0.5,0,1.1,0,1.3v0.5l0.3-0.3
	c0.2-0.1,0.5-0.4,0.8-0.6c0.6-0.5,1-0.8,1.7-1.3c0.8-0.5,0.8-0.5,1.1-0.5c0.3,0,0.4,0.1,0.6,0.2c0.3,0.3,0.4,0.6,0.4,2
	c0,1.4,0,2.5,0,3.1c0,0.3,0,0.5,0,0.6c0,0,0.1,0,0.5-0.2c0.3-0.2,1.1-0.6,1.8-0.9l1.3-0.7l0.1-0.4c0.1-0.2,0.2-0.8,0.3-1.2
	c0.3-1.3,0.7-2.3,0.9-2.5c0.3-0.3,0.9-0.3,1.2,0.1c0.2,0.2,0.2,0.5,0,0.9c-0.2,0.5-0.7,2-0.7,2.1c0,0,0.3-0.1,0.6-0.3
	c0.7-0.4,0.8-0.4,1.1-0.3c0.2,0.1,0.5,0.3,0.5,0.6c0.1,0.3,0,0.5-0.2,0.8c-0.2,0.2-0.4,0.3-0.5,0.3c-0.1,0-1.1,0.6-1.2,0.6
	c0,0,0.2,0.2,1.8,1c0.6,0.3,1.1,0.6,1.2,0.7c0.3,0.3,0.3,0.9-0.1,1.2c-0.3,0.2-0.5,0.2-1,0c-0.8-0.4-2.7-1.4-3.2-1.8l-0.3-0.2
	l-1.4,0.7c-1.8,0.9-1.7,0.9-1.6,0.9c0.2,0.1,2.7,0.9,3.1,1c0.5,0.2,0.7,0.2,0.8,0.5c0.2,0.2,0.2,0.4,0.1,0.7c0,0.2-0.1,0.3-0.3,0.5
	c-0.4,0.4-2.6,2-3.4,2.5c-0.2,0.1-0.3,0.2-0.3,0.2c0,0,0.1,0.1,0.3,0.1c0.1,0.1,0.7,0.3,1.3,0.6c0.6,0.3,1.3,0.6,1.7,0.8l0.7,0.3
	l0.6-0.2c0.4-0.1,0.9-0.3,1.2-0.5c0.5-0.2,1.4-0.5,1.7-0.6C185,376.9,185.3,377.1,185.5,377.4z M165.8,375.2l1.2-0.7l0-0.3
	c0-0.2,0-0.4,0-0.4l0-0.1l-1.3-0.6c-0.7-0.3-1.4-0.6-1.4-0.6c0,0-0.4,0.2-0.7,0.4c-0.3,0.2-0.9,0.5-1.2,0.7c-1.2,0.6-1.9,1-1.9,1.1
	c0,0,0.5,0.2,1,0.3c1.2,0.4,1.6,0.5,2.3,0.7c0.3,0.1,0.6,0.2,0.6,0.2S165.1,375.5,165.8,375.2z M169.2,378.3c0-0.5,0-0.9,0-1.1
	l0-0.2L169,377c-0.1,0-0.4-0.1-0.6-0.2c-0.3-0.1-0.4-0.2-0.6-0.4c-0.1-0.1-0.3-0.3-0.3-0.3c0,0-0.8,0.5-1.5,0.8l-0.6,0.3l0,0.8
	c0,0.4,0,1.2,0.1,1.7c0,0.5,0.1,1.2,0.1,1.5c0,0.3,0,0.6,0.1,0.6c0,0,0.2-0.1,0.5-0.3c0.7-0.5,1.7-1.2,2.3-1.7
	c0.3-0.2,0.6-0.4,0.7-0.5l0.1-0.1V378.3z M169.3,369c0,0-1.7-0.8-2.8-1.3c-0.4-0.2-1-0.5-1.2-0.6l-0.5-0.2l0.1,0.4
	c0,0.2,0.1,0.5,0.1,0.5c0,0.2,0.7,3.1,0.8,3.5c0,0.1,0,0.1,1.7,0.8l0.5,0.2l0.2-0.2c0.1-0.1,0.2-0.2,0.3-0.2
	c0.2-0.1,0.6-0.3,0.7-0.3c0,0,0.1,0,0.1,0C169.3,371.5,169.3,369,169.3,369z M170.8,371.8c0,0,0.1,0.1,0.2,0.1
	c0.1,0,0.3,0.1,0.4,0.2l0.2,0.1l0.2-0.1c0.1,0,0.6-0.3,1.3-0.7l1.1-0.6l0-0.3c0-0.2,0-0.6,0.1-1c0-0.4,0.1-1.1,0-1.7
	c0-0.6,0-1.2,0-1.4l0-0.3l-0.4,0.3c-0.2,0.2-0.5,0.4-0.6,0.5c-0.1,0.1-0.6,0.5-1,0.9c-0.4,0.4-0.9,0.8-1,0.9l-0.2,0.2l0,1.4
	C170.8,371.1,170.8,371.7,170.8,371.8z M175.4,380.8c0,0-0.1-0.4-0.3-0.9c-0.3-0.8-0.9-2.4-1-3c0-0.1-0.1-0.3-0.1-0.3
	c0,0-0.4-0.2-0.8-0.4c-0.4-0.2-0.8-0.4-0.9-0.4c-0.1,0-0.2-0.1-0.2-0.1c0,0-0.1,0.1-0.2,0.2c-0.2,0.3-0.4,0.5-0.8,0.7l-0.3,0.2
	l0,0.4c0,0.2,0,0.7,0,1.1v0.7l0.5,0.2c0.3,0.1,0.8,0.3,1.3,0.5c0.4,0.1,1.3,0.5,1.8,0.7C174.9,380.7,175.4,380.8,175.4,380.8z
	 M176.3,375.1c0.7-0.4,1-0.6,1.9-1.3l0.7-0.5l-1.3-0.4c-0.7-0.2-1.5-0.5-1.7-0.6c-0.2-0.1-0.4-0.2-0.5-0.2l-0.1-0.1l-0.8,0.4
	c-2.2,1.2-2.1,1.1-2.1,1.2c0,0.1,0,0.2,0,0.4l0,0.3l0.5,0.2c0.3,0.1,1,0.4,1.5,0.6l0.9,0.4l0.2-0.1
	C175.7,375.4,176,375.2,176.3,375.1z M203,396.2c0.1,0.2,0,0.5-0.3,0.6c-0.3,0.1-0.9,0.3-0.9,0.3c0,0,0.1,0,0.2,0.1
	c0.4,0.2,0.6,0.3,0.7,0.4c0.1,0.2,0.1,0.4-0.1,0.6c-0.1,0.1-0.3,0.1-0.5,0c-0.1,0-0.7-0.3-0.7-0.3c0,0,0,0.1,0,0.3
	c0.1,0.4,0.3,1.2,0.3,1.3c0,0.3-0.4,0.5-0.7,0.3c0,0-0.1-0.1-0.1-0.1c0,0-0.1-0.3-0.1-0.5c0-0.2-0.1-0.6-0.2-0.8s-0.1-0.5-0.1-0.6
	c0-0.1,0-0.2,0-0.2c0,0-0.1,0-0.2-0.1c-0.2-0.1-0.8-0.4-1.2-0.5c-0.4-0.2-1.1-0.5-1.2-0.5c0,0,0,0,0,0c0,0,0.2,0.7,0.4,1.1
	c0.3,0.8,0.4,1.1,0.4,1.2c0,0.1,0,0.3-0.1,0.4c-0.1,0.1-0.2,0.1-0.4,0.1c-0.3,0-0.6-0.1-1.3-0.4c-0.4-0.2-1.4-0.5-1.6-0.6
	c0,0,0,0,0,0.9l0,0.9l0.7,0.7c0.4,0.4,0.8,0.7,0.8,0.8c0.1,0.1,0.2,0.1,0.2,0.2c0.1,0.3-0.1,0.6-0.4,0.6c-0.2,0-0.3-0.1-0.8-0.6
	c-0.2-0.2-0.4-0.4-0.4-0.4l-0.1-0.1l0,0.5c0,0.6,0,0.6-0.1,0.7c-0.2,0.2-0.6,0.1-0.7-0.1c0-0.1,0-0.1,0-0.3c0-0.3,0-0.8,0-0.8
	c0,0-0.9,0.7-1,0.8c-0.1,0.1-0.2,0.2-0.4,0.2c-0.1,0-0.3-0.1-0.3-0.2c-0.1-0.2-0.1-0.3,0-0.5c0.1-0.1,1.1-1,1.4-1.2l0.2-0.1l0-0.9
	c0-0.5,0-0.9,0-0.9c0,0,0,0-0.6,0.4c-0.2,0.2-0.6,0.5-0.9,0.7c-0.3,0.2-0.5,0.4-0.5,0.4c-0.1,0.1-0.3,0-0.5-0.1
	c-0.2-0.2-0.2-0.2-0.3-1.5c0-0.3,0-0.7-0.1-0.9c0-0.2,0-0.4,0-0.5c0-0.1,0-0.2,0-0.2c0,0-0.2,0.1-0.4,0.2c-0.2,0.1-0.6,0.3-0.8,0.4
	c-0.5,0.3-0.8,0.4-0.8,0.4c0,0-0.1,0.2-0.1,0.4c0,0.2-0.1,0.6-0.2,0.9c-0.1,0.3-0.1,0.6-0.1,0.7c0,0.1,0,0.2-0.1,0.2
	c-0.2,0.4-0.7,0.3-0.8-0.1c0-0.1,0-0.2,0.2-0.9c0.1-0.3,0.1-0.6,0.1-0.6c0,0-0.1,0.1-0.5,0.2c-0.4,0.2-0.5,0.3-0.6,0.3
	c-0.1,0-0.2,0-0.3-0.1c-0.1-0.1-0.1-0.2-0.1-0.4c0-0.2,0.1-0.2,0.3-0.4c0.4-0.2,0.8-0.4,0.8-0.4c0,0-0.1,0-0.3-0.1
	c-0.3-0.1-1-0.4-1.1-0.5c-0.3-0.2-0.3-0.6,0-0.8c0.2-0.1,0.2-0.1,0.7,0.1c0.2,0.1,0.7,0.3,1.1,0.4l0.7,0.3l0.2-0.1
	c0.3-0.2,0.8-0.4,1.1-0.6c0.6-0.3,0.5-0.3,0.5-0.3c-0.2-0.1-1.6-0.5-2-0.6c-0.3-0.1-0.4-0.2-0.4-0.4c0-0.2,0.1-0.3,0.4-0.6
	c0.3-0.2,0.5-0.3,1.6-0.9c0.2-0.1,0.3-0.2,0.3-0.2c0,0,0,0,0,0c0,0-0.3-0.1-0.6-0.3s-0.7-0.3-0.8-0.4c-0.3-0.1-0.3-0.1-0.4-0.1
	c0,0-0.2,0.1-0.4,0.2c-0.2,0.1-0.5,0.2-0.7,0.3c-0.5,0.3-0.9,0.4-1,0.4c-0.4,0-0.6-0.5-0.3-0.7c0,0,0.2-0.1,0.3-0.1
	c0.4-0.1,1.1-0.5,1-0.5c0,0-0.1-0.1-0.3-0.1c-0.5-0.2-0.7-0.3-0.8-0.4c-0.1-0.1-0.1-0.4,0-0.5c0.1-0.2,0.3-0.2,0.6-0.1
	c0.2,0.1,0.8,0.3,0.8,0.3c0,0-0.2-0.8-0.3-1.3c0-0.2-0.1-0.3-0.1-0.4c0-0.2,0.1-0.3,0.3-0.4c0.2-0.1,0.4,0,0.5,0.2
	c0.1,0.1,0.4,1.3,0.6,2.2l0,0.2l0.2,0.1c0.1,0,0.4,0.2,0.7,0.3c1.1,0.5,1.4,0.6,1.5,0.6c0,0,0,0,0-0.1c0-0.1-0.2-1.1-0.3-1.2
	c0-0.1-0.1-0.2-0.1-0.4c-0.1-0.3-0.1-0.5-0.2-0.7c0-0.1-0.1-0.2-0.1-0.2c0-0.2,0.1-0.4,0.3-0.4c0.2-0.1,0.3,0,0.7,0.2
	c0.2,0.1,0.7,0.3,1.1,0.5c0.4,0.2,0.8,0.4,1,0.4c0.1,0.1,0.3,0.1,0.3,0.2l0.1,0l0-0.9c0-0.8,0-0.9-0.1-0.9c0,0-0.2-0.3-0.5-0.5
	c-0.8-0.8-0.9-1-0.9-1.3c0.1-0.2,0.2-0.3,0.4-0.3c0.2,0,0.3,0,0.4,0.2c0.2,0.2,0.3,0.3,0.5,0.5l0.2,0.2l0-0.4c0-0.3,0-0.5,0.1-0.5
	c0-0.1,0.2-0.2,0.2-0.2c0.2-0.1,0.4,0,0.5,0.2l0.1,0.1l0,0.5c0,0.3,0,0.5,0,0.5c0,0,0.1,0,0.1-0.1c0.2-0.1,1.1-0.7,1.2-0.7
	c0.1,0,0.2,0,0.4,0c0.2,0.1,0.3,0.4,0.1,0.6c0,0.1-0.1,0.1-0.4,0.3c-0.2,0.1-0.6,0.4-0.9,0.6l-0.5,0.4l0,0.4c0,0.2,0,0.6,0,0.7v0.3
	l0.2-0.1c0.1-0.1,0.3-0.2,0.4-0.3c0.3-0.3,0.5-0.4,0.9-0.7c0.4-0.3,0.4-0.3,0.6-0.3c0.1,0,0.2,0,0.3,0.1c0.2,0.2,0.2,0.3,0.2,1
	c0,0.7,0,1.3,0,1.7c0,0.1,0,0.3,0,0.3c0,0,0.1,0,0.3-0.1c0.2-0.1,0.6-0.3,1-0.5l0.7-0.4l0.1-0.2c0-0.1,0.1-0.4,0.2-0.6
	c0.2-0.7,0.4-1.2,0.5-1.3c0.2-0.2,0.5-0.2,0.6,0.1c0.1,0.1,0.1,0.3,0,0.5c-0.1,0.3-0.4,1.1-0.3,1.1c0,0,0.2-0.1,0.3-0.2
	c0.4-0.2,0.4-0.2,0.6-0.2c0.1,0,0.3,0.2,0.3,0.3c0,0.1,0,0.3-0.1,0.4c-0.1,0.1-0.2,0.1-0.3,0.1c0,0-0.6,0.3-0.6,0.3
	c0,0,0.1,0.1,0.9,0.5c0.3,0.2,0.6,0.3,0.6,0.4c0.2,0.2,0.2,0.5,0,0.6c-0.2,0.1-0.3,0.1-0.5,0c-0.4-0.2-1.4-0.8-1.7-0.9l-0.1-0.1
	l-0.7,0.4c-1,0.5-0.9,0.5-0.9,0.5c0.1,0,1.4,0.5,1.6,0.5c0.3,0.1,0.4,0.1,0.4,0.3c0.1,0.1,0.1,0.2,0.1,0.4c0,0.1-0.1,0.1-0.2,0.2
	c-0.2,0.2-1.4,1.1-1.8,1.3c-0.1,0.1-0.2,0.1-0.2,0.1c0,0,0.1,0,0.1,0.1c0.1,0,0.4,0.2,0.7,0.3c0.3,0.1,0.7,0.3,0.9,0.4l0.4,0.2
	l0.3-0.1c0.2-0.1,0.5-0.2,0.6-0.2c0.3-0.1,0.8-0.3,0.9-0.3C202.7,395.9,202.9,396,203,396.2z M192.5,395l0.6-0.3l0-0.2
	c0-0.1,0-0.2,0-0.2l0-0.1l-0.7-0.3c-0.4-0.2-0.7-0.3-0.7-0.3c0,0-0.2,0.1-0.4,0.2s-0.5,0.3-0.6,0.4c-0.6,0.3-1,0.6-1,0.6
	c0,0,0.2,0.1,0.5,0.2c0.6,0.2,0.9,0.3,1.2,0.4c0.2,0.1,0.3,0.1,0.3,0.1C191.8,395.4,192.1,395.2,192.5,395z M194.3,396.7
	c0-0.2,0-0.5,0-0.6l0-0.1l-0.1,0c-0.1,0-0.2-0.1-0.3-0.1c-0.2-0.1-0.2-0.1-0.3-0.2c-0.1-0.1-0.1-0.1-0.1-0.1c0,0-0.4,0.2-0.8,0.4
	l-0.3,0.2l0,0.4c0,0.2,0,0.6,0,0.9c0,0.3,0,0.6,0.1,0.8c0,0.2,0,0.3,0,0.3c0,0,0.1-0.1,0.2-0.2c0.4-0.3,0.9-0.7,1.2-0.9
	c0.2-0.1,0.3-0.2,0.4-0.3l0.1-0.1V396.7z M194.3,391.7c0,0-0.9-0.4-1.5-0.7c-0.2-0.1-0.5-0.2-0.7-0.3l-0.3-0.1l0,0.2
	c0,0.1,0.1,0.2,0.1,0.3c0,0.1,0.4,1.7,0.4,1.9c0,0,0,0,0.9,0.4l0.3,0.1l0.1-0.1c0,0,0.1-0.1,0.2-0.1c0.1-0.1,0.3-0.1,0.4-0.1
	c0,0,0.1,0,0.1,0C194.3,393.1,194.4,391.7,194.3,391.7z M195.2,393.2C195.2,393.2,195.2,393.2,195.2,393.2c0.1,0.1,0.2,0.1,0.3,0.1
	l0.1,0.1l0.1,0c0,0,0.3-0.2,0.7-0.4l0.6-0.3l0-0.1c0-0.1,0-0.3,0-0.5c0-0.2,0-0.6,0-0.9c0-0.3,0-0.6,0-0.7l0-0.2l-0.2,0.2
	c-0.1,0.1-0.3,0.2-0.3,0.3c-0.1,0.1-0.3,0.3-0.5,0.5s-0.5,0.4-0.5,0.5l-0.1,0.1l0,0.8C195.2,392.8,195.2,393.2,195.2,393.2z
	 M197.6,398c0,0-0.1-0.2-0.2-0.5c-0.2-0.4-0.5-1.3-0.6-1.6c0-0.1,0-0.1-0.1-0.1c0,0-0.2-0.1-0.4-0.2c-0.2-0.1-0.4-0.2-0.5-0.2
	c-0.1,0-0.1,0-0.1,0c0,0-0.1,0.1-0.1,0.1c-0.1,0.1-0.2,0.2-0.4,0.4l-0.1,0.1l0,0.2c0,0.1,0,0.4,0,0.6v0.4l0.3,0.1
	c0.1,0.1,0.4,0.2,0.7,0.2c0.2,0.1,0.7,0.2,1,0.4C197.3,397.9,197.6,398,197.6,398z M198.1,394.9c0.3-0.2,0.5-0.3,1-0.7l0.4-0.3
	l-0.7-0.2c-0.4-0.1-0.8-0.3-0.9-0.3c-0.1,0-0.2-0.1-0.3-0.1l-0.1,0l-0.4,0.2c-1.2,0.6-1.1,0.6-1.1,0.6c0,0,0,0.1,0,0.2l0,0.2
	l0.3,0.1c0.2,0.1,0.5,0.2,0.8,0.3l0.5,0.2l0.1-0.1C197.8,395.1,197.9,395,198.1,394.9z M142.3,396.2c0.1,0.2,0,0.5-0.3,0.6
	c-0.3,0.1-0.9,0.3-0.9,0.3c0,0,0.1,0,0.2,0.1c0.4,0.2,0.6,0.3,0.7,0.4c0.1,0.2,0.1,0.4-0.1,0.6c-0.1,0.1-0.3,0.1-0.5,0
	c-0.1,0-0.7-0.3-0.7-0.3c0,0,0,0.1,0,0.3c0.1,0.4,0.3,1.2,0.3,1.3c0,0.3-0.4,0.5-0.7,0.3c0,0-0.1-0.1-0.1-0.1c0,0-0.1-0.3-0.1-0.5
	s-0.1-0.6-0.2-0.8c-0.1-0.2-0.1-0.5-0.1-0.6c0-0.1,0-0.2,0-0.2c0,0-0.1,0-0.2-0.1c-0.2-0.1-0.8-0.4-1.2-0.5
	c-0.4-0.2-1.1-0.5-1.2-0.5c0,0,0,0,0,0c0,0,0.2,0.7,0.4,1.1c0.3,0.8,0.4,1.1,0.4,1.2c0,0.1,0,0.3-0.1,0.4c-0.1,0.1-0.2,0.1-0.4,0.1
	c-0.3,0-0.6-0.1-1.3-0.4c-0.4-0.2-1.4-0.5-1.6-0.6c0,0,0,0,0,0.9l0,0.9l0.7,0.7c0.4,0.4,0.8,0.7,0.8,0.8c0.1,0.1,0.2,0.1,0.2,0.2
	c0.1,0.3-0.1,0.6-0.4,0.6c-0.2,0-0.3-0.1-0.8-0.6c-0.2-0.2-0.4-0.4-0.4-0.4l-0.1-0.1l0,0.5c0,0.6,0,0.6-0.1,0.7
	c-0.2,0.2-0.6,0.1-0.7-0.1c0-0.1,0-0.1,0-0.3c0-0.3,0-0.8,0-0.8c0,0-0.9,0.7-1,0.8c-0.1,0.1-0.2,0.2-0.4,0.2c-0.1,0-0.3-0.1-0.3-0.2
	c-0.1-0.2-0.1-0.3,0-0.5c0.1-0.1,1.1-1,1.4-1.2l0.2-0.1l0-0.9c0-0.5,0-0.9,0-0.9c0,0,0,0-0.6,0.4c-0.2,0.2-0.6,0.5-0.9,0.7
	c-0.3,0.2-0.5,0.4-0.5,0.4c-0.1,0.1-0.3,0-0.5-0.1c-0.2-0.2-0.2-0.2-0.3-1.5c0-0.3,0-0.7-0.1-0.9c0-0.2,0-0.4,0-0.5
	c0-0.1,0-0.2,0-0.2s-0.2,0.1-0.4,0.2c-0.2,0.1-0.6,0.3-0.8,0.4c-0.5,0.3-0.8,0.4-0.8,0.4c0,0-0.1,0.2-0.1,0.4c0,0.2-0.1,0.6-0.2,0.9
	c-0.1,0.3-0.1,0.6-0.1,0.7c0,0.1,0,0.2-0.1,0.2c-0.2,0.4-0.7,0.3-0.8-0.1c0-0.1,0-0.2,0.2-0.9c0.1-0.3,0.1-0.6,0.1-0.6
	c0,0-0.1,0.1-0.5,0.2c-0.4,0.2-0.5,0.3-0.6,0.3c-0.1,0-0.2,0-0.3-0.1c-0.1-0.1-0.1-0.2-0.1-0.4c0-0.2,0.1-0.2,0.3-0.4
	c0.4-0.2,0.8-0.4,0.8-0.4c0,0-0.1,0-0.3-0.1c-0.3-0.1-1-0.4-1.1-0.5c-0.3-0.2-0.3-0.6,0-0.8c0.2-0.1,0.2-0.1,0.7,0.1
	c0.2,0.1,0.7,0.3,1.1,0.4l0.7,0.3l0.2-0.1c0.3-0.2,0.8-0.4,1.1-0.6c0.6-0.3,0.5-0.3,0.5-0.3c-0.2-0.1-1.6-0.5-2-0.6
	c-0.3-0.1-0.4-0.2-0.4-0.4c0-0.2,0.1-0.3,0.4-0.6c0.3-0.2,0.5-0.3,1.6-0.9c0.2-0.1,0.3-0.2,0.3-0.2c0,0,0,0,0,0c0,0-0.3-0.1-0.6-0.3
	s-0.7-0.3-0.8-0.4c-0.3-0.1-0.3-0.1-0.4-0.1c0,0-0.2,0.1-0.4,0.2s-0.5,0.2-0.7,0.3c-0.5,0.3-0.9,0.4-1,0.4c-0.4,0-0.6-0.5-0.3-0.7
	c0,0,0.2-0.1,0.3-0.1c0.4-0.1,1.1-0.5,1-0.5c0,0-0.1-0.1-0.3-0.1c-0.5-0.2-0.7-0.3-0.8-0.4c-0.1-0.1-0.1-0.4,0-0.5
	c0.1-0.2,0.3-0.2,0.6-0.1c0.2,0.1,0.8,0.3,0.8,0.3c0,0-0.2-0.8-0.3-1.3c0-0.2-0.1-0.3-0.1-0.4c0-0.2,0.1-0.3,0.3-0.4
	c0.2-0.1,0.4,0,0.5,0.2c0.1,0.1,0.4,1.3,0.6,2.2l0,0.2l0.2,0.1c0.1,0,0.4,0.2,0.7,0.3c1.1,0.5,1.4,0.6,1.5,0.6c0,0,0,0,0-0.1
	c0-0.1-0.2-1.1-0.3-1.2c0-0.1-0.1-0.2-0.1-0.4c-0.1-0.3-0.1-0.5-0.2-0.7c0-0.1-0.1-0.2-0.1-0.2c0-0.2,0.1-0.4,0.3-0.4
	c0.2-0.1,0.3,0,0.7,0.2c0.2,0.1,0.7,0.3,1.1,0.5c0.4,0.2,0.8,0.4,1,0.4c0.1,0.1,0.3,0.1,0.3,0.2l0.1,0l0-0.9c0-0.8,0-0.9-0.1-0.9
	c0,0-0.2-0.3-0.5-0.5c-0.8-0.8-0.9-1-0.9-1.3c0.1-0.2,0.2-0.3,0.4-0.3c0.2,0,0.3,0,0.4,0.2c0.2,0.2,0.3,0.3,0.5,0.5l0.2,0.2l0-0.4
	c0-0.3,0-0.5,0.1-0.5c0-0.1,0.2-0.2,0.2-0.2c0.2-0.1,0.4,0,0.5,0.2l0.1,0.1l0,0.5c0,0.3,0,0.5,0,0.5c0,0,0.1,0,0.1-0.1
	c0.2-0.1,1.1-0.7,1.2-0.7c0.1,0,0.2,0,0.4,0c0.2,0.1,0.3,0.4,0.1,0.6c0,0.1-0.1,0.1-0.4,0.3c-0.2,0.1-0.6,0.4-0.9,0.6l-0.5,0.4
	l0,0.4c0,0.2,0,0.6,0,0.7v0.3l0.2-0.1c0.1-0.1,0.3-0.2,0.4-0.3c0.3-0.3,0.5-0.4,0.9-0.7c0.4-0.3,0.4-0.3,0.6-0.3
	c0.1,0,0.2,0,0.3,0.1c0.2,0.2,0.2,0.3,0.2,1c0,0.7,0,1.3,0,1.7c0,0.1,0,0.3,0,0.3c0,0,0.1,0,0.3-0.1c0.2-0.1,0.6-0.3,1-0.5l0.7-0.4
	l0.1-0.2c0-0.1,0.1-0.4,0.2-0.6c0.2-0.7,0.4-1.2,0.5-1.3c0.2-0.2,0.5-0.2,0.6,0.1c0.1,0.1,0.1,0.3,0,0.5c-0.1,0.3-0.4,1.1-0.3,1.1
	c0,0,0.2-0.1,0.3-0.2c0.4-0.2,0.4-0.2,0.6-0.2c0.1,0,0.3,0.2,0.3,0.3c0,0.1,0,0.3-0.1,0.4c-0.1,0.1-0.2,0.1-0.3,0.1
	c0,0-0.6,0.3-0.6,0.3c0,0,0.1,0.1,0.9,0.5c0.3,0.2,0.6,0.3,0.6,0.4c0.2,0.2,0.2,0.5,0,0.6c-0.2,0.1-0.3,0.1-0.5,0
	c-0.4-0.2-1.4-0.8-1.7-0.9l-0.1-0.1l-0.7,0.4c-1,0.5-0.9,0.5-0.9,0.5c0.1,0,1.4,0.5,1.6,0.5c0.3,0.1,0.4,0.1,0.4,0.3
	c0.1,0.1,0.1,0.2,0.1,0.4c0,0.1-0.1,0.1-0.2,0.2c-0.2,0.2-1.4,1.1-1.8,1.3c-0.1,0.1-0.2,0.1-0.2,0.1c0,0,0.1,0,0.1,0.1
	c0.1,0,0.4,0.2,0.7,0.3c0.3,0.1,0.7,0.3,0.9,0.4l0.4,0.2l0.3-0.1c0.2-0.1,0.5-0.2,0.6-0.2c0.3-0.1,0.8-0.3,0.9-0.3
	C142,395.9,142.2,396,142.3,396.2z M131.8,395l0.6-0.3l0-0.2c0-0.1,0-0.2,0-0.2l0-0.1l-0.7-0.3c-0.4-0.2-0.7-0.3-0.7-0.3
	c0,0-0.2,0.1-0.4,0.2s-0.5,0.3-0.6,0.4c-0.6,0.3-1,0.6-1,0.6c0,0,0.2,0.1,0.5,0.2c0.6,0.2,0.9,0.3,1.2,0.4c0.2,0.1,0.3,0.1,0.3,0.1
	S131.5,395.2,131.8,395z M133.6,396.7c0-0.2,0-0.5,0-0.6l0-0.1l-0.1,0c-0.1,0-0.2-0.1-0.3-0.1c-0.2-0.1-0.2-0.1-0.3-0.2
	c-0.1-0.1-0.1-0.1-0.1-0.1c0,0-0.4,0.2-0.8,0.4l-0.3,0.2l0,0.4c0,0.2,0,0.6,0,0.9c0,0.3,0,0.6,0.1,0.8c0,0.2,0,0.3,0,0.3
	c0,0,0.1-0.1,0.2-0.2c0.4-0.3,0.9-0.7,1.2-0.9c0.2-0.1,0.3-0.2,0.4-0.3l0.1-0.1V396.7z M133.7,391.7c0,0-0.9-0.4-1.5-0.7
	c-0.2-0.1-0.5-0.2-0.7-0.3l-0.3-0.1l0,0.2c0,0.1,0.1,0.2,0.1,0.3c0,0.1,0.4,1.7,0.4,1.9c0,0,0,0,0.9,0.4l0.3,0.1l0.1-0.1
	c0,0,0.1-0.1,0.2-0.1c0.1-0.1,0.3-0.1,0.4-0.1c0,0,0.1,0,0.1,0C133.7,393.1,133.7,391.7,133.7,391.7z M134.5,393.2
	C134.5,393.2,134.5,393.2,134.5,393.2c0.1,0.1,0.2,0.1,0.3,0.1l0.1,0.1l0.1,0c0,0,0.3-0.2,0.7-0.4l0.6-0.3l0-0.1c0-0.1,0-0.3,0-0.5
	c0-0.2,0-0.6,0-0.9c0-0.3,0-0.6,0-0.7l0-0.2l-0.2,0.2c-0.1,0.1-0.3,0.2-0.3,0.3s-0.3,0.3-0.5,0.5s-0.5,0.4-0.5,0.5l-0.1,0.1l0,0.8
	C134.5,392.8,134.5,393.2,134.5,393.2z M136.9,398c0,0-0.1-0.2-0.2-0.5c-0.2-0.4-0.5-1.3-0.6-1.6c0-0.1,0-0.1-0.1-0.1
	c0,0-0.2-0.1-0.4-0.2c-0.2-0.1-0.4-0.2-0.5-0.2c-0.1,0-0.1,0-0.1,0s-0.1,0.1-0.1,0.1c-0.1,0.1-0.2,0.2-0.4,0.4l-0.1,0.1l0,0.2
	c0,0.1,0,0.4,0,0.6v0.4l0.3,0.1c0.1,0.1,0.4,0.2,0.7,0.2c0.2,0.1,0.7,0.2,1,0.4S136.9,398,136.9,398z M137.4,394.9
	c0.3-0.2,0.5-0.3,1-0.7l0.4-0.3l-0.7-0.2c-0.4-0.1-0.8-0.3-0.9-0.3c-0.1,0-0.2-0.1-0.3-0.1l-0.1,0l-0.4,0.2
	c-1.2,0.6-1.1,0.6-1.1,0.6c0,0,0,0.1,0,0.2l0,0.2l0.3,0.1c0.2,0.1,0.5,0.2,0.8,0.3l0.5,0.2l0.1-0.1
	C137.1,395.1,137.3,395,137.4,394.9z M23.8,196.3c-1.5-1.5-3.5-4-4.8-6.1c-0.7-1.1-0.3-2.7,0.8-3.5c0.5-0.3,0.6-0.3,2.5-0.4
	c1.9-0.1,2.1-0.1,3.3-0.5c2.3-0.8,3.4-1.4,5.3-3.2c1.3-1.2,2.3-2.5,2.9-3.7c1-2.2,0.9-4.6-0.6-8.2c-0.8-1.8-0.8-2.3-0.3-3.2
	c0.5-1,1.8-1.7,2.8-1.4c0.2,0.1,0.8,0.3,1.1,0.4c1.2,0.5,2.3,0.7,4.2,0.7c2.8,0,5.1-0.5,8.4-2c3-1.3,4.5-2.3,6.4-4.1
	c1.9-1.8,2.9-3.3,3.3-4.8c0.2-0.9,0.3-4,0.1-5.8c-0.1-1.4,0-2,0.5-2.6c0.4-0.5,0.9-0.7,2.2-1.2c0.5-0.2,1.3-0.5,1.7-0.8
	c1-0.6,3-2.5,4.5-4.1c0.8-0.8,1.4-1.4,1.7-1.5c0.6-0.3,1.6-0.3,2.1-0.1c0.2,0.1,0.6,0.4,0.9,0.7s1,1,1.8,1.6c2.4,2,5.4,5.3,7.3,8.1
	c4.2,5.9,6.5,11.4,7.5,17.8c0.3,2,0.4,7.4,0.2,10.1c-0.5,6.3-2,11.5-4.6,16.1c-2.7,4.7-7.1,8.8-13.1,12.2c-4,2.3-7.5,3.5-12.3,4.1
	c-2.1,0.3-8,0.3-10.2,0c-3.9-0.5-7.6-1.8-11.8-3.9C32.2,204.1,29.2,201.8,23.8,196.3z M26,191.2l0.5,0.6c0.9,1,5.5,5.4,7,6.5
	c2.4,1.8,6.4,4.1,9.6,5.4c1.5,0.6,3.9,1.3,5.5,1.6c1.7,0.3,5.8,0.5,8.2,0.4c5.6-0.4,9.7-1.8,14.8-5.2c5.4-3.6,8.3-7.1,10.4-12.4
	c1.8-4.4,2.5-8.9,2.3-15.1c-0.1-3.4-0.3-5.2-1.1-8.1c-1-3.6-3-7.7-5.7-11.5c-1.4-2-2.4-3.1-4.6-5.3c-1.1-1-2-1.9-2.1-1.9
	c0,0-0.7,0.6-1.5,1.3c-1.6,1.6-3.1,2.7-4.3,3.3l-0.9,0.4l0,2.3c0,2.4-0.1,3.2-0.6,4.8c-0.7,2.1-2,4-4.2,6.2c-2.1,2-3.5,3-6,4.4
	c-2.8,1.5-5.6,2.5-8.2,3c-1.6,0.3-4.5,0.6-5.5,0.5c-0.4,0-0.7,0-0.7,0c0,0,0.1,0.6,0.2,1.2c0.7,4.9-0.8,8.8-4.9,12.7
	c-2.3,2.2-4.3,3.4-7.1,4.4L26,191.2z M70.7,168.1c0.2,0.1,0.7,0.2,1.2,0.3c1.1,0.1,1.8-0.3,2.8-1.3c1-1,1.2-1.5,1.3-2.7
	c0-0.8,0-1-0.3-1.6c-0.6-1.4-1.5-2-3-2c-0.8,0-1,0-1.6,0.3c-0.8,0.4-1.9,1.5-2.3,2.3c-0.4,0.9-0.4,2.1,0,2.9
	C69.2,166.8,70.1,167.8,70.7,168.1z M59.2,184.4c0.6,0.3,0.8,0.4,2,0.4c1.5,0,2.3-0.2,3.1-0.8c1.5-1.1,2.1-3.3,1.5-5.3
	c-0.8-2.6-2.8-3.7-5.1-2.8c-1.1,0.4-1.4,0.6-2.4,1.6c-1.2,1.1-1.5,1.8-1.4,3.2C56.8,182.2,57.8,183.7,59.2,184.4z M73.2,185.2
	c-0.8,0.3-1.3,0.7-1.7,1.5c-1,2,0.6,4.5,2.7,4.5c0.9,0,1.9-0.5,2.3-1.1c0.4-0.6,0.7-1.9,0.6-2.6c-0.2-1.1-1.1-2.1-2.4-2.4
	C74.1,184.9,74,184.9,73.2,185.2z M42,193.7c1.2,0,1.8-0.3,2.7-1.3c0.8-0.9,1.2-1.8,1.2-2.9c0-0.7,0-0.9-0.4-1.5
	c-0.2-0.4-0.6-0.8-0.9-1c-0.9-0.6-2.4-0.9-3.3-0.5c-1,0.4-2.1,1.4-2.3,2.3c0,0.1-0.2,0.4-0.3,0.7c-0.1,0.3-0.2,0.7-0.2,1.3
	c0,0.7,0,0.9,0.3,1.4C39.5,193.2,40.5,193.7,42,193.7z M57.4,202.3c0.8-0.2,2.5-1.7,2.8-2.4c0.3-0.6,0.3-1.7,0-2.3
	c-0.3-0.5-0.9-1.3-1.5-1.6c-0.5-0.3-1.5-0.4-2-0.3c-1.4,0.4-2.4,1.8-2.5,3.6c-0.1,0.7,0,0.9,0.3,1.5C55,202,56.1,202.6,57.4,202.3z"
	/>
</svg>
