<?xml version="1.0" encoding="utf-8"?>
<!-- Generator: Adobe Illustrator 22.1.0, SVG Export Plug-In . SVG Version: 6.00 Build 0)  -->
<svg version="1.0" id="Layer_1" xmlns="http://www.w3.org/2000/svg" xmlns:xlink="http://www.w3.org/1999/xlink" x="0px" y="0px"
	 viewBox="0 0 432 432" style="enable-background:new 0 0 432 432;" xml:space="preserve">
<style type="text/css">
	.st0{fill:#DC2127;}
	.st1{fill:#25582C;}
</style>
<path class="st0" d="M315.5,76.3c-0.9-1.6-2-2.7-3.5-3.5c-1.5-0.8-3.1-1.2-4.8-1.2c-2.4,0-4.4,0.7-5.9,2.1c-1.4,1.3-2.1,3-2.1,4.9
	c0,0.7,0.1,1.3,0.2,1.8c0.4,1.6,1.3,2.8,2.5,3.5c1.3,0.8,2.7,1.1,4.2,1.1c1.3,0,2-0.5,2-1.5c0-1-0.7-1.5-2-1.5
	c-0.9,0-1.8,0.1-2.6,0.4c-1.6-0.7-2.3-2-2.3-3.9c0-1.4,0.5-2.6,1.5-3.5c1.2-1.1,2.7-1.6,4.5-1.6c1.4,0,2.7,0.3,3.8,0.9
	c1.2,0.6,2.1,1.5,2.8,2.7c0.7,1.3,1.1,2.7,1.1,4.2c0,2.3-0.7,4.2-2.2,5.9c-1.6,1.8-3.8,2.7-6.6,2.7c-1.9,0-3.7-0.3-5.4-1
	c-1.7-0.7-3.4-1.5-5-2.5s-3.1-2-4.7-3.1c-1.9-1.4-3.8-2.6-5.6-3.7c-1.6-0.9-3.2-1.7-4.8-2.4c-2.2-0.8-4.4-1.3-6.8-1.3
	c-0.8,0-1.6,0.1-2.3,0.2c-2.3-5.1-6.8-7.7-13.4-7.7c-6.4,0-11.4,3.3-14.9,10c-1.8-2.4-4.5-3.1-6.4-3.1c-1.7,0-3.2,0.5-4.5,1.3
	c-1.4,0.8-2.5,1.9-3.2,3.1H229V64.6h-4.4v35.7h4.4V85.6c0-0.9,0-1.5,0.3-2.1c0.8-2.4,3.1-4.4,5.9-4.4c4.2,0,5.6,3.3,5.6,7.2v14h4.4
	V85.8c0-2.2-0.4-4-1-5.4c0.3-0.6,0.6-1.3,1-1.9c3.1-5.3,7.3-8,12.9-8c5.7,0,9.5,2.1,11.5,6.4c-0.7,0.3-1.3,0.6-1.9,1
	c-2.6,1.7-4.4,4.8-5.6,9.3c-1.4-2.9-3.8-4.3-7-4.3c-1.3,0-2.3,0.3-3.1,1c-0.8,0.7-1.5,1.5-1.9,2.5c-0.4,1-0.6,2.1-0.6,3.3
	c0,2.6,0.9,5.1,2.8,7.3c1,1.3,2.3,2.2,3.7,2.8c1.4,0.6,2.9,0.9,4.5,0.9c1.1,0,2.2-0.2,3.2-0.6c1.8-0.7,3.3-1.8,4.5-3.3
	c1.2-1.5,2.2-3.2,2.9-5c1.1-2.9,1.7-5.8,1.7-8.7c0-1.7-0.2-3.3-0.7-4.8c0.5-0.1,1.1-0.1,1.6-0.1c2,0,3.9,0.3,5.7,1
	c1.8,0.7,3.5,1.5,5.2,2.6c1.7,1,3.3,2.2,5,3.3c1.6,1.2,3.3,2.3,5,3.4c1.7,1.1,3.5,1.9,5.3,2.6c1.8,0.7,3.8,1,5.9,1
	c3.4,0,6-1.1,8-3.4c1.8-2,2.7-4.4,2.7-7.1C316.9,79.6,316.4,77.9,315.5,76.3z M268.1,93.6c-1.3,2.3-3,3.8-5,4.6
	c-0.8,0.3-1.6,0.5-2.5,0.5c-2.8,0-5-1-6.7-3c-1.5-1.8-2.3-3.8-2.3-6c0-0.8,0.1-1.5,0.4-2.3c0.2-0.7,0.6-1.4,1.2-1.8
	c0.5-0.5,1.2-0.7,2.1-0.7c1.8,0,3.3,0.7,4.4,1.9c1.1,1.3,1.7,2.7,1.7,4.2c0,1.8,0.3,2.7,0.8,2.7c0.5,0,1-0.8,1.3-2.5
	c1.3-7,3.6-11.1,7-12.3c0.4,1.3,0.6,2.7,0.6,4.2C271,86.8,270,90.4,268.1,93.6z M203.8,65.8c-7.3,0-13,4.6-15,12
	c-3.5-6.1-8.4-9.2-14.5-9.2c-6.6,0-11.1,2.6-13.4,7.7c-0.7-0.2-1.5-0.2-2.3-0.2c-2.3,0-4.6,0.4-6.8,1.3c-1.7,0.6-3.3,1.4-4.8,2.4
	c-1.8,1.1-3.6,2.3-5.6,3.7c-1.5,1.1-3.1,2.1-4.7,3.1s-3.3,1.8-5,2.5c-1.7,0.7-3.5,1-5.4,1c-2.7,0-4.9-0.9-6.6-2.7
	c-1.5-1.6-2.2-3.6-2.2-5.9c0-1.5,0.4-2.9,1.1-4.2c0.7-1.2,1.6-2.2,2.8-2.7c1.2-0.6,2.4-0.9,3.8-0.9c1.9,0,3.4,0.5,4.5,1.6
	c1,0.9,1.5,2.1,1.5,3.5c0,1.9-0.8,3.2-2.3,3.9c-0.8-0.3-1.7-0.4-2.6-0.4c-1.3,0-2,0.5-2,1.5c0,1,0.7,1.5,2,1.5
	c1.5,0,2.9-0.4,4.2-1.1c1.3-0.8,2.1-1.9,2.5-3.5c0.1-0.5,0.2-1.1,0.2-1.8c0-2-0.7-3.6-2.1-4.9c-1.5-1.4-3.5-2.1-5.9-2.1
	c-1.8,0-3.4,0.4-4.8,1.2c-1.5,0.8-2.6,1.9-3.5,3.5c-0.9,1.6-1.4,3.4-1.4,5.2c0,2.7,0.9,5.1,2.7,7.1c2,2.2,4.7,3.4,8,3.4
	c2.1,0,4.1-0.3,5.9-1c1.8-0.7,3.6-1.6,5.3-2.6c1.7-1.1,3.4-2.2,5-3.4c1.6-1.2,3.3-2.3,5-3.3c1.7-1,3.4-1.9,5.2-2.6
	c1.8-0.7,3.7-1,5.7-1c0.6,0,1.1,0,1.6,0.1c-0.4,1.5-0.7,3.1-0.7,4.8c0,2.9,0.6,5.8,1.7,8.7c0.7,1.9,1.7,3.6,2.9,5
	c1.2,1.5,2.7,2.6,4.5,3.3c1,0.4,2.1,0.6,3.2,0.6c1.6,0,3.1-0.3,4.5-0.9c1.4-0.6,2.7-1.5,3.7-2.8c1.9-2.2,2.8-4.6,2.8-7.3
	c0-1.2-0.2-2.2-0.6-3.3c-0.4-1-1-1.9-1.9-2.5c-0.8-0.7-1.9-1-3.1-1c-3.2,0-5.5,1.4-7,4.3c-1.1-4.4-3-7.5-5.6-9.3
	c-0.6-0.4-1.2-0.7-1.9-1c2-4.2,5.8-6.4,11.5-6.4c5.5,0,9.8,2.7,12.9,8c0.4,0.7,0.8,1.4,1.1,2.2c-0.1,0.9-0.2,1.9-0.2,2.9
	c0,10.3,6.3,17.2,15.3,17.2c8.7,0,15.8-6.2,15.8-17.9C219,72.9,213,65.8,203.8,65.8z M169,91.1c0.3,1.7,0.7,2.5,1.3,2.5
	c0.5,0,0.8-0.9,0.8-2.7c0-1.5,0.6-2.9,1.7-4.2c1.1-1.3,2.6-1.9,4.4-1.9c0.9,0,1.6,0.2,2.1,0.7c0.5,0.5,0.9,1.1,1.2,1.8
	c0.2,0.7,0.4,1.5,0.4,2.3c0,2.2-0.8,4.2-2.3,6c-1.7,2-4,3-6.7,3c-0.9,0-1.7-0.2-2.5-0.5c-2-0.8-3.6-2.3-5-4.6
	c-1.9-3.2-2.8-6.8-2.9-10.6c0-1.5,0.2-2.9,0.6-4.2C165.4,80,167.7,84.1,169,91.1z M203.5,97.3c-6.9,0-10.8-6.5-10.8-13.7
	c0-7.4,3.6-14.1,10.9-14.1c7.3,0,10.8,7,10.8,13.8C214.4,90.9,210.5,97.3,203.5,97.3z M178.4,129.7c0.1,3,0.2,5.9,0.3,8.9v0.5
	c0,2.9-0.3,6.4-0.8,10.5c-0.5,4.3-1.4,8.4-2.7,12.3c-0.7,2.1-1.6,4.1-2.6,5.9c-1,1.8-2.1,3.4-3.4,4.7c-1.6,1.6-3.4,2.8-5.4,3.4
	c-2,0.7-4.3,0.6-6.9-0.2c-1.1-0.3-1.8-1.1-2.1-2.5c-0.3-1.2-0.2-2.3,0.2-3.2c0.3-0.1,0.5-0.1,0.8,0c0.2,0.1,0.4,0.2,0.7,0.4
	c-0.1,0.5,0,1.1,0.4,1.8c0.4,0.7,0.9,1.1,1.4,1.2c2.6,0.6,4.6-1,6-4.6c1.4-3.6,2.4-7.8,3-12.5c0.4-3.1,0.7-6.1,0.9-9.1
	c0.1-3,0.1-5.4,0-7.3c-0.2-2.2-0.4-4.6-0.6-7.4c-0.2-2.7-0.4-5.4-0.7-8.2c-0.4-5.1-0.9-9.8-1.6-13.9c-0.7-4.1-1.4-6.2-2.3-6.3
	c-1.1-0.1-2.4,1.1-3.9,3.7c-1.5,2.6-3.1,5.7-4.6,9.3c-2,4.3-3.7,8.7-5.2,13.2c-1.5,4.5-2.3,7.6-2.4,9.2c0.9,7.6,1.6,14.6,2.3,20.9
	c0.6,6.4,0.8,12.9,0.7,19.4c-0.3,0.9-1.3,1.4-3.1,1.4c-0.4,0-0.8,0-1.2-0.1c-2.5-0.2-4.5-1-6.1-2.3l-1-1c-0.3-0.4-0.4-0.8-0.5-1.3
	c-0.8-6.2-1.3-12.1-1.6-17.5c-0.3-5.5-0.5-10.6-0.6-15.3v-4.8c0-6.8,0.2-12.9,0.5-18.3c0.3-6.6,0.4-12.5,0.1-17.7
	c0.5-0.8,1.1-1.2,1.9-1.2c0.5,0,1.1,0.2,1.7,0.5c1.6,0.9,2.5,1.8,2.7,2.8c0.3,1.1,0.6,2.7,0.9,4.8c0.3,2.2,0.5,4.5,0.8,7.1
	c0.4,3.7,0.8,7.3,1.2,10.7c0.3,3.4,0.6,5.1,0.7,5.1c0.3-0.9,0.9-3.1,1.9-6.6c1-3.6,2.3-7.2,3.9-11.1c0.9-2,1.8-3.9,2.9-5.7
	c1-1.8,2.1-3.4,3.3-4.5c0.9-0.9,1.7-1.5,2.7-2c0.9-0.5,1.8-0.7,2.8-0.6c4.1,0.4,7.2,2.4,9.3,5.9c2.1,3.6,3.6,7.9,4.6,12.9
	C177.8,123.9,178.2,126.7,178.4,129.7z M215.7,115.9v0.2c0,0.2-0.1,0.3-0.2,0.5c-2.5,0.9-5.2,1.4-8.2,1.6c-3,0.1-5.1,0.3-6.3,0.6
	c-0.1,0.2-0.3,0.8-0.5,1.7c-0.2,0.8-0.4,1.9-0.6,3.2c-0.3,2.4-0.7,5.4-1.1,9s-0.7,7.2-1,10.9c-0.4,4.5-0.7,8.6-0.9,12.3
	c-0.1,3.6-0.1,5.7,0.2,6.3c0.5,0.4,2.2,0.3,4.9-0.1c2.8-0.5,5.1-1.2,7-2.1c0.7,0,1.1,0.3,1.2,0.9c0.1,0.6-0.1,1.1-0.6,1.5
	c-2.1,1.1-4.4,1.8-6.8,2c-2.5,0.3-4.2,0.5-5,0.6c-0.3,0.3-0.3,1-0.1,2.1c0.3,1.2,0.6,2.4,1.1,3.6c0.3,1,0.8,1.9,1.3,2.6
	c0.5,0.8,0.9,1.2,1.4,1.3c0.9,0.1,2.7-0.3,5.4-1.1c2.8-0.8,5.1-1.6,7.1-2.3c0.1,0.2,0.2,0.4,0.3,0.6c0.1,0.3,0,0.6-0.3,0.9
	c-2.1,1-4.6,2-7.4,2.9c-2.8,1-4.6,1.5-5.6,1.7c-0.8,0.1-1.6,0.2-2.5,0.2c-1.5,0-3.2-0.2-4.9-0.5c-2.9-0.5-4.8-1.4-5.7-2.7
	c-1.2-3.2-2.1-6.6-2.7-10.2c-0.6-3.5-0.9-7.1-1-10.7v-1.6c0-6.2,0.7-12.3,2.1-18.5c1.6-6.7,3.8-12.8,6.7-18.4
	c0.9-0.5,1.7-0.8,2.6-0.8c0.4,0,0.8,0.1,1.1,0.2c1.2,0.3,2.3,0.7,3.2,1.3c1.1,0.4,3.3,0.5,6.4,0.5c3.2-0.1,6-0.2,8.6-0.5
	C215.2,115.5,215.5,115.7,215.7,115.9z M251.6,117.6v0.2c0,0.2-0.1,0.3-0.2,0.5c-2.5,0.9-5.2,1.4-8.2,1.5c-3,0.1-5.1,0.3-6.3,0.5
	c-0.1,0.2-0.3,0.7-0.5,1.6c-0.2,0.8-0.4,1.9-0.6,3.1c-0.3,2.4-0.7,5.3-1.1,8.8c-0.4,3.5-0.7,7-1,10.6c-0.4,4.4-0.7,8.4-0.9,12
	c-0.1,3.6-0.1,5.6,0.2,6.1c0.5,0.4,2.2,0.3,4.9-0.1c2.8-0.5,5.1-1.1,7-2c0.7,0,1.1,0.3,1.2,0.8c0.1,0.6-0.1,1.1-0.6,1.5
	c-2.1,1.1-4.4,1.7-6.8,1.9c-2.5,0.3-4.2,0.5-5,0.6c-0.3,0.3-0.3,1-0.1,2.1c0.3,1.1,0.6,2.3,1.1,3.6c0.3,1,0.8,1.8,1.3,2.5
	c0.5,0.8,0.9,1.2,1.4,1.2c0.9,0.1,2.7-0.3,5.4-1.1c2.8-0.8,5.1-1.5,7.1-2.2c0.1,0.2,0.2,0.4,0.3,0.6c0.1,0.3,0,0.5-0.3,0.8
	c-2.1,1-4.6,1.9-7.4,2.8c-2.8,0.9-4.6,1.5-5.6,1.6c-0.8,0.1-1.6,0.2-2.5,0.2c-1.5,0-3.2-0.2-4.9-0.5c-2.9-0.5-4.8-1.4-5.7-2.6
	c-1.2-3.1-2.1-6.4-2.7-9.9c-0.6-3.4-0.9-6.9-1-10.4v-1.5c0-6,0.7-12,2.1-18c1.6-6.5,3.8-12.5,6.7-17.9c0.9-0.5,1.7-0.8,2.6-0.8
	c0.4,0,0.8,0.1,1.1,0.2c1.2,0.3,2.3,0.7,3.2,1.2c1.1,0.4,3.3,0.5,6.4,0.5c3.2,0,6-0.2,8.6-0.5C251.2,117.2,251.5,117.3,251.6,117.6z
	 M302.9,175.2c-1.8,0.9-3.4,1-4.8,0.5c-1.5-0.5-2.9-1.5-4.2-3c-1.1-1.1-2.1-2.5-3.1-4c-1.1-1.6-2-3.2-3-4.9
	c-1.8-3.2-3.8-6.4-5.7-9.5c-1.6-2.4-3.3-4.3-5.2-5.5c2.1-1.2,4.2-2.6,6.4-4.2c1.7-1.2,3.4-2.6,5-4.1c1.7-1.4,3.3-3,4.6-4.6
	c1.7-2,3.1-4.2,4.2-6.4c1.1-2.2,1.8-4.4,2-6.6v-0.7c0-1.1-0.2-2.1-0.5-3.2c-0.5-1.3-1.1-2.6-1.9-3.7c-1.4-2.2-3.4-4-5.7-5.3
	c-2.4-1.2-4.6-1.6-6.8-1c-1.8,0.6-3.4,1.9-4.9,3.9c-1.6,2-3,4.3-4.2,6.9c-1.9,3.9-3.5,7.7-4.7,11.3c-1.2,3.7-1.9,5.7-2.3,6
	c-0.2-0.2-0.3-0.8-0.3-1.8c-0.1-0.9-0.1-2.2,0-3.7c0.1-2.9,0.1-6.5,0-10.9c-0.1-4.3-0.8-8.7-2.1-13.1c-0.5-1-1.5-1.8-3-2.4
	c-0.4-0.1-0.7-0.2-1-0.2c-0.9,0-1.4,0.8-1.7,2.3c0.3,2-0.2,6.3-1.3,13c-1.1,6.7-1.9,14.7-2.5,24c-0.2,3.4-0.3,6.9-0.3,10.6
	c0,1.6,0,3.3,0.1,5c0.1,5.5,0.6,11,1.4,16.6c0.1,1.1,0.6,2,1.7,3c1,1,2.1,1.8,3.5,2.4c1.6,0.8,3.1,1.2,4.5,1.2s2.2-0.6,2.3-1.9
	c0.7-3.9,0.7-8.5-0.2-13.6c-0.9-5.2-1.3-10.3-1.2-15.2c0.3,0.1,0.7,0,1.2-0.1c0.9,0.4,1.7,0.9,2.5,1.6c1.1,1,2.2,2.1,3.4,3.5
	c2,2.6,3.9,5.4,5.9,8.6c2,3.2,4.1,6.1,6.5,8.6c1.9,2.1,4,3.7,6.3,4.8c1.5,0.8,3.2,1.2,4.9,1.2c0.9,0,1.9-0.1,2.9-0.3
	c2.4-0.4,3.6-1.4,3.6-3.2v-0.1C305.3,175.2,304.5,174.7,302.9,175.2z M274.1,147.3c-0.5,0.5-1.4,0.9-2.6,1.4
	c-0.9,0.3-1.7,0.5-2.5,0.5h-0.8c0.7-6.8,2.3-13.3,4.8-19.2c2.5-5.9,4.9-10.6,7.3-14.1c1.3-1.8,2.5-3.3,3.6-4.2
	c0.9-0.8,1.5-1.2,2.1-1.2c0.1,0,0.2,0,0.3,0.1c1.5,0.6,2.3,2.2,2.4,4.7c0,0.9-0.1,1.8-0.3,2.9c-0.7,4.3-2,8.8-4.1,13.5
	c-1.4,3.2-3,6.2-4.7,9.1C277.7,143.5,275.9,145.7,274.1,147.3z"/>
<path class="st1" d="M385.4,129c-3.7,4.8-6.3,10.3-10.6,14.6c-5.6,5.6-5.8,5.6-9.5-0.8c-3.4,4.3-6.5,8.9-11.2,11.8
	c-1.9,1.2-4.1,3.3-6.3,1.3c-2-1.8-0.9-4.4-0.1-6.5c2.7-6.4,5.7-12.7,8.2-19.2c4.1-10.7,6.1-22.4,14.2-31.4c1.9-2.1,3.6-5.2,0.4-10.3
	c-1.3,2.8-2.2,4.7-3.1,6.7c-0.6-0.3-1.1-0.7-1.7-1c1.3-10.3,1.2-20.5-0.5-30.6c-1.6-10-3.9-19.9-8-29.2
	c-5.4-12.4-12.7-21.2-19.2-22.9c2,3.5,3.9,6.7,5.6,10c1.8,3.5,2.3,6.3-3.4,5.3c-2-0.4-4.5-1.1-6.6,1.7c8.7,3.4,15.7,8.5,19.5,16.7
	c9.5,20.7,5.6,41.6,0.7,64.2c-1.4-6.7-2.2-11.8-3.5-16.6c-4.9-17.6-14.2-32.3-29.5-42.9c-2.6-1.8-5.3-3.7-9.8-2.7
	c11.7,9.3,21.5,18.9,27.8,32.8c-6.7-2.7-11.5-8.1-18.5-5.8c0,1.5,0.7,1.9,1.5,2.3c20.3,10.8,26.8,23.4,21.9,45.6
	c-7.7,35.1-29.9,58.7-61.2,74.5c-2.1,1.1-4.8,3.1-7,1.1c-2.1-1.8-0.8-4.8-0.6-7.2c0.3-3.4,1.5-6.8-2.4-11
	c-4.8,16.9-17.9,24.6-31.3,31.4c-1.1-2.5-2.5-3.2-5.9,0.6c-8,9.2-30.9,9.1-38.7-0.2c-3.5-4.2-5-3.1-6.9,2.7
	c-0.8-5.5-3.8-6.5-6.8-7.8c-8-3.4-14.2-8.8-18.9-16.3c-1.9-3-2.4-9.5-5.8-8.2c-3.7,1.3-1.1,7.2-0.8,11c0.4,6-0.9,7-6.4,4.6
	c-10.8-4.6-20.4-11.1-29-19c-17.4-15.9-30.1-34.6-34.2-58.3c-3.5-20.2,3.2-33.9,21.5-43.1c1.1-0.5,2.6-0.6,2.5-2.7
	c-6.6-2.2-11.5,2.9-18.1,5.2c6.4-13.7,16.2-23.1,27.5-32.2c-18.1,1.2-34.6,25.2-43,61.7c-3.6-14.9-6-29-4.7-43.3
	c1.5-15.7,6.8-29.2,22.7-36c0.8-0.4,1.2-1.1,0.8-2.1c-1.3-1-2.8-0.7-4.2-0.7c-6.1,0.2-6.7-0.6-3.9-6.1c1.7-3.4,3.9-6.6,5.9-9.9
	c-0.6-0.3-1.3-0.5-1.9-0.8c-24.9,22.7-27.9,52.8-26.8,85c-2-1.9-3.6-3.4-5.8-5.4c-1.1,4.1-0.1,7.2,1.9,9.5
	c7.7,8.5,9.7,19.4,13.5,29.6c2.5,6.7,5.7,13.2,8.4,19.8c1,2.5,2.7,5.6,0.1,7.6c-2.5,1.9-5.2-0.6-7.3-2.2c-3.2-2.4-5.9-5.4-8-8.8
	c-1-1.7-3-4-3.5-0.1c-0.7,5.2-2.9,2.9-4.8,1.4c-4.4-3.4-7.7-7.7-10.2-12.7c-0.9-1.7-0.9-4.2-3.9-4.8c-0.1,1.1-0.4,2.2-0.3,3.2
	c0.1,1.5,0.4,2.9,0.7,4.4c2.7,13.3,12.6,20.4,24,24.8c18.3,7.2,33.5,18.5,47.1,32.3c1.4,1.4,4,2.4,3.1,5c-0.8,2.1-3.2,1.6-5.1,1.8
	c-14,2-27.2-1.3-40-6.6c-2.3-1-4.5-3-7.6-2c0.8,3.1,3,4.4,5,5.8c8.1,5.6,17,9.2,26.7,10.9c10.3,1.7,20.6,1.1,30.9,1.2
	c16,0.1,29.5,6.9,43.6,15.2c-3.9,2.3-7.1,2.2-10.4,1.5c-7.9-1.6-15.9-1.8-23.9-2c-9.4-0.2-18.4,2.1-27.7,2.6
	c-3.4,0.2-8.4-2.1-9.9,1.3c-1.7,3.9,1.7,7.9,4.1,11.3c1.2,1.7,2.6,3.3,4.1,4.8c11.6,10.8,25.5,17.1,41.1,19.5
	c5.2,0.8,10.1-1,14.4-3.7c6.4-4.1,6.3-14.6-0.4-18.1c-10.6-5.4-22-7.1-33.8-5.7c-3.4,0.4-8.1-0.3-9.4,3.7c-1.3,3.8,3.4,5.3,5.2,7.9
	c0.1,0.2-0.2,0.7-0.3,1.3c-5.5-2.6-10.2-6-14.2-10.4c-2-2.2-2-3.8,1.5-3.8c10.8,0,21.4-2.6,32.2-1.6c7.9,0.7,15.4,2.8,21.9,7.3
	c3.5,2.4,6.6,5,4,10.4c-1.6,3.2-0.9,6,4.2,5.4c7.4-0.8,9.8,1.5,11.1,9.4c-3.3-0.3-6.7,1-9.5-2c-1.6-1.8-3.2-5.2-5.7-3.8
	c-3.1,1.7-1.1,5.4-0.6,8.1c0.4,2,1.6,3.9,2.6,5.7c2,3.7,4.2,7.3,6.1,11.1c0.3,0.6,1.4,2.7,0,2.2c-5.5-1.9-2.4,1.9-1.9,2.9
	c4,8.1,4.9,17.3,8.3,25.7c-7.5-5-4.7-15.2-11.2-23c0.1,10.3-0.9,18.8-2,27.2c-2,14.7-7.2,28.6-10,43.1c-4.3,22.6,2.7,36.2,23.2,46.4
	c8.5,4.2,18,6.3,25.9,11.6c1.3,0.9,2.8,1.2,4.1,0.3c7.9-5.5,17.4-7.4,25.9-11.6c20-9.9,26-20.2,24.2-42.4c-0.3-3.5-1.1-7.1-2-10.5
	c-4.4-15.9-8.4-31.8-9.9-48.2c-0.4-4.7-0.7-9.4-1.1-15.4c-6.3,7.9-3.1,18.9-12.1,23.7c5.5-8.4,5.2-18.9,9.9-27.6
	c2.2-4.1-1.6-1.9-3-2.1c2.1-6.5,7.1-11.5,9.3-17.9c1-2.8,2.7-6.9-0.1-8.9c-2.9-2-4.2,2.3-6.2,3.8c-0.2,0.1-0.3,0.3-0.5,0.4
	c-2.8,1.9-6.8,3.1-8.5,0.7c-1.6-2.1,1.3-5.3,3.6-7.3c1.9-1.6,4.2-1.6,6.6-1.5c5.3,0.2,6.7-2.1,4.3-7.1c-1-2.2-3.2-3.2-4.7-5.4
	c2.8,1.6,4.8,0.7,6.9-1.2c6.4-5.7,14.2-7.8,22.5-9.2c11.5-1.8,22.6,1.7,34,1.5c3.6-0.1,3.3,1.7,1.4,3.9c-4.7,5.2-10.4,8.8-16.9,11.2
	c2-2.2,4.3-4,6.3-6.1c2.7-2.9,2.4-5.6-1.7-6.5c-14.5-3.2-28.5-2.1-41.6,5.3c-3.6,2-4.7,4.7-3.2,9c3,8.8,10,13.4,19.7,11.9
	c13.9-2.2,26.2-8,37.1-16.6c4.5-3.6,8.2-8,10.5-13.3c2.3-5.3,1.4-6.7-4.4-7c-4-0.2-8.1,0-12-0.6c-14.7-2.5-29.4-2.7-44,0.1
	c-3.5,0.7-6.8,0.5-10.5-1.3c15.4-10.6,29.8-15.2,46.9-15.3c5.9,0,11.8,0,17.7-0.2c12.7-0.4,24.4-4.3,35.2-11.1
	c2.6-1.6,5.3-3.3,6.5-7c-3.6-0.3-6,1.7-8.7,2.7c-13.1,5.3-26.5,8.5-40.7,6.1c-1.4-0.2-3.2-0.2-3.7-1.9c-0.5-1.7,0.9-2.7,2-3.7
	c14-13.5,28.6-26.2,47.4-32.9c5.6-2,10.7-5.2,15.1-9.1C382.7,146.5,386.3,138.6,385.4,129z M194.2,308.5c2.6-8.1,3.1-18,14.9-20.2
	c-2.2,3.8-6,5.2-7.8,8.8c-1.3,2.8-1.5,5.2-0.4,7.8c1.1,2.5,2.1,5.2,6,2.7c1.4-0.9,1.7,1.6,1.3,2.5c-1.8,4.2-6.3,5.7-9.8,7
	C196.8,317.6,193.1,311.9,194.2,308.5z M225,327.7c-2.6,1.9-5.6,2.8-8.9,2.4c-2.7-0.1-5.5-0.3-7.9-1.7c-2.7-1.6-4.3-4-4.4-7.2
	c-0.1-3.5,2.7-4.3,5.2-5.4c4.9-2.3,9.6-2.3,14.5,0c2.3,1.1,5,1.7,5.5,4.6C229.4,323.6,227.5,325.9,225,327.7z M235.7,315.9
	c-0.8,1.3-1.5,2.5-3.4,0.9c-2.2-1.9-4.9-3.3-7.2-5.1c-1.1-0.8-1.2-2.2-0.7-3.5c0.1-0.4,0.8-0.8,1.3-0.8c6.6-0.7,8.1-4.1,5.6-10.3
	c-1.5-3.9-5.8-4.9-7.8-8.8c11.6,2.2,12,12.2,14.9,20.2C239.4,311.1,237.2,313.6,235.7,315.9z"/>
</svg>
