<?xml version="1.0" encoding="utf-8"?>
<!-- Generator: Adobe Illustrator 18.0.0, SVG Export Plug-In . SVG Version: 6.00 Build 0)  -->
<!DOCTYPE svg PUBLIC "-//W3C//DTD SVG 1.1//EN" "http://www.w3.org/Graphics/SVG/1.1/DTD/svg11.dtd">
<svg version="1.1" id="Layer_1" xmlns="http://www.w3.org/2000/svg" xmlns:xlink="http://www.w3.org/1999/xlink" x="0px" y="0px"
	 viewBox="0 0 432 432" enable-background="new 0 0 432 432" xml:space="preserve">
<g>
	<g id="HATCH_854_">
		<path d="M195.4,158.5c0.8-1.5,0.5-3.6-0.6-5.3c-0.5-0.8-1.9-2.1-3.2-3c-1.2-0.9-5.3-2.8-7.2-3.5c-0.9-0.3-1.6-0.6-1.5-0.6
			c0,0,1-0.6,2.3-1.2c2.7-1.4,4.2-2.3,7-4.1c2.7-1.8,7.8-5.7,9.4-7.3c2.8-2.7,8.4-8.8,11.4-12.5l2-2.4l0.8,0.3
			c0.5,0.2,1.6,0.5,2.4,0.7c0.9,0.2,2.6,0.7,3.8,1.1c5.3,1.5,7.8,1.4,9.2-0.4c0.9-1.2,1-2.7,0.2-4.2c-0.6-1.1-1.2-1.7-2.4-2.2
			c-1.8-0.9-5.1-1-8.5-0.3c-0.7,0.1-1.3,0.2-1.3,0.2c-0.1-0.2,4.2-4.2,4.7-4.3c0.1,0,0.5-0.3,0.8-0.7c1.7-1.6,5.2-3.9,9.2-6.2
			c3.2-1.8,4.8-2.5,8.1-3.7c3.3-1.2,6.8-2,7.4-1.7c0.9,0.4,2.2,1.8,4.4,4.9c2.5,3.4,4.1,4.9,6.2,5.8c1.1,0.5,1.9,0.6,2.8,0.4
			c1.2-0.3,1.9-1.1,2.2-2.4c0.6-2.7-1.3-6.1-4.8-8.4l-0.7-0.5l2,0.3c6.4,0.9,12.4,2.4,16.4,4.1c1.8,0.8,7.1,3.4,9.6,4.8l1.4,0.8
			l0,0.6c0,0.4-0.1,1.3-0.1,2.2c-0.4,4.2,0.2,7.8,1.7,10.1c1,1.5,1.9,2.3,3.3,2.9c1.6,0.8,2.5,0.7,3.8-0.2c0.7-0.5,1.2-1.6,1.4-2.6
			c0.2-1.4-0.1-3.3-0.8-5.1c-1-2.7-2.3-4.9-4.9-7.9c-0.9-1.1-1.6-1.7-2.4-2.2c-2.3-1.5-10.7-5.7-13.4-6.7l-1.4-0.5l1.5-0.6
			c4.4-1.8,8.4-4.8,10.4-7.6c1.7-2.4,1.7-4.4,0.1-6.1c-1.3-1.3-2.8-1.7-4.4-1.1c-1.5,0.5-2.1,1.1-4.5,4.4c-2.6,3.5-4,5.1-5.7,6.6
			c-1.7,1.4-2.6,2-3.5,2.4l-0.9,0.3L266,95c-8-1.4-11.9-1.8-15.7-1.2c-3.8,0.5-6,1.1-9.5,2.3c-1.8,0.6-3.9,1.5-4.7,1.8
			c-2,1-6.4,3.4-8.2,4.6c-0.8,0.5-1.6,1-1.6,1c-0.1,0,0-0.7,0.2-1.5c0.6-3.3,0.4-6.1-0.4-8.8c-0.6-1.9-1.1-2.8-2.1-3.7
			c-1.4-1.4-3.6-1.6-5.1-0.5c-0.9,0.7-1.3,1.4-1.5,2.7l-0.1,1l1.4,3.8c1.1,2.9,1.4,4.1,1.6,5.1c0.3,1.8,0.2,5.4-0.2,6.4
			c-0.1,0.2-0.7,0.9-1.4,1.6c-1.8,1.7-3.4,3.6-8.2,9.4c-2.5,3-5,5.8-8.5,9.4c-2.4,2.5-3.5,3.5-3.6,3.6c0,0,0.1-0.5,0.3-1
			c1.1-3.2,1.4-6.6,1-9.5c-0.4-2.2-1.3-3.7-2.8-4.4c-1.1-0.6-2-0.6-3.2-0.3c-1.3,0.4-2.2,1.1-2.8,2.3c-0.8,1.6-0.8,2.9,0.1,8.9
			c0.3,1.8,0.5,3.9,0.5,4.6c0,1.7-0.3,3.9-0.7,4.8c-0.3,0.6-0.4,0.8-1.6,1.6c-6,3.9-13,6.9-22,9.3c-3,0.8-6.4,1.6-6.9,1.6
			c-0.2,0,0.1-0.3,1-1.1c1.6-1.4,3.5-3.3,4.3-4.4c1.5-2.1,2.1-4.3,1.5-5.8c-0.5-1.3-1.4-2-3.1-2.1c-0.8-0.1-1,0-2.2,0.4
			c-1.2,0.4-1.5,0.6-2.2,1.2c-1.3,1.1-2.1,2.3-3.3,5c-2,4.5-2.7,5.8-3.5,6.8c-0.7,0.9-0.9,1.1-1.2,1.1c-0.9,0.1-5.8,0.2-10,0.2
			c-10.5-0.1-15-0.6-22.2-2.6c-3.2-0.9-3.9-0.9-4.5-0.5c-0.5,0.4-0.7,1.3-0.4,1.8c0.3,0.5,0.5,0.6,2.4,1.1c0.9,0.2,2.4,0.6,3.4,0.9
			c1,0.3,2.5,0.6,3.4,0.8c2.1,0.4,7.3,1.1,9.5,1.2l1.8,0.1l1,2.2c1.3,3,3.2,6.2,4.8,8c2.3,2.5,4.8,3.7,6.8,3.1
			c2.5-0.7,3.1-4.1,1.3-6.4c-0.7-0.9-2.1-2-4.2-3.3c-1.4-0.8-4.5-3.3-4.4-3.5c0,0,0.6-0.1,1.3,0c7.1,0.1,13.3-0.3,17.9-1
			c4.2-0.7,9.4-2.1,15.1-3.9l3.4-1.1l1,0.7c1.6,1.1,3.3,2.8,5.4,5.5c3,3.8,3.9,4.7,5.4,5.5c1,0.5,1.7,0.7,2.6,0.6
			C193.6,160.3,194.9,159.4,195.4,158.5z M190.4,156.5c-0.5-0.4-2-2.2-3.7-4.3l-1.5-1.9l1.7,0.8c4.1,1.9,6.3,4,5.9,5.6
			C192.7,157.6,191.7,157.6,190.4,156.5z M295.8,120.3c-0.6,0.2-2.2-1.2-3-2.5c-0.9-1.6-1.3-4.3-1-7.1l0.1-0.9l0.9,1.2
			c2.2,2.9,3.4,6.1,3.2,8.6C296,119.9,295.9,120.2,295.8,120.3z M146.3,164.5c-1.5-0.3-3.3-2-5.2-5c-0.4-0.7-0.8-1.3-0.7-1.2
			c0,0,0.4,0.3,0.9,0.7c0.4,0.3,1.5,1,2.4,1.6c2.6,1.5,3.7,2.7,3.4,3.7C147,164.7,147,164.7,146.3,164.5z M159,147.1l-1.6,1.4
			l0.5-1.2c0.9-2.1,2.3-5,2.8-5.7c0.5-0.7,1.7-1.7,2.4-1.9c0.6-0.2,1.5-0.2,1.6,0.1c0.1,0.4-0.3,1.7-0.9,2.6
			c-0.3,0.5-1.2,1.5-1.8,2.1C161.2,145.1,159.9,146.3,159,147.1z M194.7,132.9c0-1-0.2-3.1-0.5-5.1c-0.5-3.3-0.8-5.8-0.7-6.5
			c0.1-0.9,0.5-1.4,1.1-1.6c1.1-0.4,1.9,0.5,2.3,2.3c0.5,2.5,0.1,5.6-1.1,8.6C195.3,132.2,194.7,133.4,194.7,132.9z M227.2,118.7
			c-1.2-0.1-1.8-0.2-4.9-1.1c-3.1-0.9-3-0.8-2.2-1c4.1-0.8,7-0.7,8.2,0.2c0.5,0.4,0.9,1.4,0.6,1.6
			C228.5,118.7,228.2,118.7,227.2,118.7z M262,105.4c0,0-0.5-0.2-1-0.4c-1-0.5-2-1.2-2.9-2.2c-0.7-0.8-3.3-4.3-3.2-4.4
			c0.1-0.1,1.4,0.4,2.5,0.9c2.7,1.3,5,4,4.8,5.6C262.1,105.2,262.1,105.4,262,105.4z M277.4,93.7l-0.5,0.3l0.4-0.5
			c1.1-1.2,2.8-3.3,4.3-5.3c2.1-2.8,2.4-3.2,3.2-3.4c0.5-0.1,0.6-0.1,1,0.2c0.7,0.5,0.7,0.8,0.2,1.8c-1,1.9-3.6,4.2-7,6
			C278.4,93.2,277.7,93.6,277.4,93.7z M223.5,101.2c0-0.3-0.7-2.4-1.5-4.7c-0.8-2.3-1.5-4.3-1.5-4.5c0-0.5,0.4-0.8,0.9-0.8
			c0.6,0,1.2,0.7,1.8,2.1c0.7,1.8,1,4.1,0.7,6.9C223.7,101.6,223.5,102.1,223.5,101.2z"/>
	</g>
	<g>
		<g id="SPLINE_1612_">
			<path fill="none" stroke="#000000" stroke-width="0" stroke-linecap="round" stroke-linejoin="round" stroke-miterlimit="10" d="
				M220.7,303.7c-2.5,0.4-5.1,2.8-6.4,5.9c-2.1,5-2.3,10.7-0.7,19.1c1.2,6.4,2.7,12.9,3.4,14.2c0.4,0.8,1.2,1.7,1.5,1.7
				c0.1,0,0.4,0.1,0.5,0.3c0.3,0.3,1.8,0.4,1.9,0.1c0-0.1,0.1-0.2,0.2-0.2c0.4,0,1.4-2.1,3.1-7.2c4.1-11.4,4.9-15.1,5.1-20.7
				c0.1-4.7-0.4-7.8-1.8-9.9c-1.1-1.7-2.5-2.8-4.2-3.2C222.4,303.5,221.9,303.5,220.7,303.7z"/>
		</g>
		<g id="SPLINE_1611_">
			<path fill="none" stroke="#000000" stroke-width="0" stroke-linecap="round" stroke-linejoin="round" stroke-miterlimit="10" d="
				M223.1,307.6c0.9,0.5,1.7,1.8,2.3,3.6c0.4,1.4,0.4,7,0,9.5c-0.5,3.1-1.5,6.8-2.9,10.7c-0.5,1.5-1.3,3.8-1.8,5.2
				c-0.5,1.4-0.9,2.5-1,2.5c-0.3,0-2.8-11.8-3.2-15.3c-0.3-2.5-0.2-6.8,0.2-8.9c0.7-3.8,2.2-6.5,4.2-7.4
				C221.4,307.2,222.5,307.3,223.1,307.6z"/>
		</g>
		<g id="HATCH_860_">
			<path d="M220.7,303.7c-2.5,0.4-5.1,2.8-6.4,5.9c-2.1,5-2.3,10.7-0.7,19.1c1.2,6.4,2.7,12.9,3.4,14.2c0.4,0.8,1.2,1.7,1.5,1.7
				c0.1,0,0.4,0.1,0.5,0.3c0.3,0.3,1.8,0.4,1.9,0.1c0-0.1,0.1-0.2,0.2-0.2c0.4,0,1.4-2.1,3.1-7.2c4.1-11.4,4.9-15.1,5.1-20.7
				c0.1-4.7-0.4-7.8-1.8-9.9c-1.1-1.7-2.5-2.8-4.2-3.2C222.4,303.5,221.9,303.5,220.7,303.7z M223.1,307.6c0.9,0.5,1.7,1.8,2.3,3.6
				c0.4,1.4,0.4,7,0,9.5c-0.5,3.1-1.5,6.8-2.9,10.7c-0.5,1.5-1.3,3.8-1.8,5.2c-0.5,1.4-0.9,2.5-1,2.5c-0.3,0-2.8-11.8-3.2-15.3
				c-0.3-2.5-0.2-6.8,0.2-8.9c0.7-3.8,2.2-6.5,4.2-7.4C221.4,307.2,222.5,307.3,223.1,307.6z"/>
		</g>
		<g id="SPLINE_1610_">
			<path fill="none" stroke="#000000" stroke-width="0" stroke-linecap="round" stroke-linejoin="round" stroke-miterlimit="10" d="
				M189.1,316.9c-2.4,0.5-4.6,2.5-5.4,5c-0.4,1.4-0.5,3.9-0.2,5.4c0.6,2.9,3.2,5.4,8.3,8.2c3.2,1.7,4.2,2.4,6.4,3.9
				c4.5,3.1,6.3,4.9,8.5,8.2c0.8,1.3,1.6,2.1,1.8,2c0.1,0,0.1,0,0.2,0.1c0.1,0.1,0.4,0.1,0.7,0.1c0.7-0.1,1.5-0.9,1.7-1.7
				c0.5-1.5-0.4-6.7-2-11.7c-2.3-7.1-6-13.2-9.9-16.4c-1.5-1.2-4.1-2.5-5.8-3C191.9,316.6,190.7,316.6,189.1,316.9z"/>
		</g>
		<g id="SPLINE_1609_">
			<path fill="none" stroke="#000000" stroke-width="0" stroke-linecap="round" stroke-linejoin="round" stroke-miterlimit="10" d="
				M192.2,320.5c0.4,0.1,1.5,0.5,2.4,0.9c1.5,0.7,1.7,0.9,3.4,2.6c2.7,2.7,4.8,6.1,6.6,10.7c0.7,1.8,2,6,2,6.4c0,0.1-0.4-0.3-1-0.8
				c-2.6-2.5-6.8-5.4-11.3-7.9c-4.3-2.4-6.1-3.7-6.9-5.4c-0.4-0.8-0.4-1-0.3-2.3c0-0.8,0.2-1.6,0.3-2c0.3-1.2,2.1-2.6,3.4-2.6
				C191.1,320.3,191.7,320.4,192.2,320.5z"/>
		</g>
		<g id="HATCH_859_">
			<path d="M189.1,316.9c-2.4,0.5-4.6,2.5-5.4,5c-0.4,1.4-0.5,3.9-0.2,5.4c0.6,2.9,3.2,5.4,8.3,8.2c3.2,1.7,4.2,2.4,6.4,3.9
				c4.5,3.1,6.3,4.9,8.5,8.2c0.8,1.3,1.6,2.1,1.8,2c0.1,0,0.1,0,0.2,0.1c0.1,0.1,0.4,0.1,0.7,0.1c0.7-0.1,1.5-0.9,1.7-1.7
				c0.5-1.5-0.4-6.7-2-11.7c-2.3-7.1-6-13.2-9.9-16.4c-1.5-1.2-4.1-2.5-5.8-3C191.9,316.6,190.7,316.6,189.1,316.9z M192.2,320.5
				c0.4,0.1,1.5,0.5,2.4,0.9c1.5,0.7,1.7,0.9,3.4,2.6c2.7,2.7,4.8,6.1,6.6,10.7c0.7,1.8,2,6,2,6.4c0,0.1-0.4-0.3-1-0.8
				c-2.6-2.5-6.8-5.4-11.3-7.9c-4.3-2.4-6.1-3.7-6.9-5.4c-0.4-0.8-0.4-1-0.3-2.3c0-0.8,0.2-1.6,0.3-2c0.3-1.2,2.1-2.6,3.4-2.6
				C191.1,320.3,191.7,320.4,192.2,320.5z"/>
		</g>
		<g id="SPLINE_1608_">
			<path fill="none" stroke="#000000" stroke-width="0" stroke-linecap="round" stroke-linejoin="round" stroke-miterlimit="10" d="
				M251.1,317.1c-5.1,1.3-8.8,4.5-12,10.3c-1.5,2.7-3.5,7.5-4.8,11.4c-0.8,2.4-2,7-2.3,8.8c-0.2,1.1-0.1,2.5,0.2,2.5
				c0.1,0,0.1,0.2,0.1,0.4s0.1,0.4,0.2,0.4c0.1,0,0.2,0.1,0.2,0.2c0,0.1,0.1,0.3,0.3,0.3c0.2,0,0.3,0.2,0.3,0.3
				c0,0.1,0.1,0.1,0.2,0.1c0.1,0,0.2,0,0.2,0.1c0,0.2,1.1,0,1.2-0.2c0-0.1,0.1-0.1,0.2-0.1c0.2,0,0.5-0.4,1.3-1.9
				c1-1.9,2.4-4.3,3.2-5.4c3.1-4.1,7.9-8.3,13-11.3c5.5-3.2,6.9-4.5,7.8-7.1c0.3-0.8,0.3-1.2,0.2-2.3c-0.2-3-1.9-5.2-4.8-6.3
				C254.6,316.7,252.8,316.7,251.1,317.1z"/>
		</g>
		<g id="SPLINE_1607_">
			<path fill="none" stroke="#000000" stroke-width="0" stroke-linecap="round" stroke-linejoin="round" stroke-miterlimit="10" d="
				M254.8,320.7c1.3,0.5,2.3,1.8,2.3,3.1c0,1-0.6,2.1-1.8,3c-0.5,0.4-2.2,1.5-3.7,2.4c-3.2,1.9-6.4,4.2-8.5,6
				c-1.6,1.4-3.9,3.7-4.8,4.9c-0.3,0.4-0.6,0.6-0.6,0.6c-0.1-0.1,1.4-4.3,2.5-6.6c1.4-3.2,2.9-6,3.9-7.5c1.4-1.9,3.4-3.7,5-4.5
				C251.8,320.5,253.4,320.2,254.8,320.7z"/>
		</g>
		<g id="HATCH_858_">
			<path d="M251.1,317.1c-5.1,1.3-8.8,4.5-12,10.3c-1.5,2.7-3.5,7.5-4.8,11.4c-0.8,2.4-2,7-2.3,8.8c-0.2,1.1-0.1,2.5,0.2,2.5
				c0.1,0,0.1,0.2,0.1,0.4s0.1,0.4,0.2,0.4c0.1,0,0.2,0.1,0.2,0.2c0,0.1,0.1,0.3,0.3,0.3c0.2,0,0.3,0.2,0.3,0.3
				c0,0.1,0.1,0.1,0.2,0.1c0.1,0,0.2,0,0.2,0.1c0,0.2,1.1,0,1.2-0.2c0-0.1,0.1-0.1,0.2-0.1c0.2,0,0.5-0.4,1.3-1.9
				c1-1.9,2.4-4.3,3.2-5.4c3.1-4.1,7.9-8.3,13-11.3c5.5-3.2,6.9-4.5,7.8-7.1c0.3-0.8,0.3-1.2,0.2-2.3c-0.2-3-1.9-5.2-4.8-6.3
				C254.6,316.7,252.8,316.7,251.1,317.1z M254.8,320.7c1.3,0.5,2.3,1.8,2.3,3.1c0,1-0.6,2.1-1.8,3c-0.5,0.4-2.2,1.5-3.7,2.4
				c-3.2,1.9-6.4,4.2-8.5,6c-1.6,1.4-3.9,3.7-4.8,4.9c-0.3,0.4-0.6,0.6-0.6,0.6c-0.1-0.1,1.4-4.3,2.5-6.6c1.4-3.2,2.9-6,3.9-7.5
				c1.4-1.9,3.4-3.7,5-4.5C251.8,320.5,253.4,320.2,254.8,320.7z"/>
		</g>
		<g id="SPLINE_1606_">
			<path fill="none" stroke="#000000" stroke-width="0" stroke-linecap="round" stroke-linejoin="round" stroke-miterlimit="10" d="
				M206,354.3c-1.3,0.4-2.3,1.3-2.8,2.6c-0.3,0.8,0,3.2,0.5,3.9c0.5,0.8,1.1,1.3,1.9,1.6c1.6,0.5,3.6-0.3,4.7-1.8
				c0.6-0.9,0.8-1.5,0.8-2.7c0-1.2-0.4-2.1-1.3-2.8C208.7,354.1,207.5,353.9,206,354.3z"/>
		</g>
		<g id="HATCH_857_">
			<path d="M206,354.3c-1.3,0.4-2.3,1.3-2.8,2.6c-0.3,0.8,0,3.2,0.5,3.9c0.5,0.8,1.1,1.3,1.9,1.6c1.6,0.5,3.6-0.3,4.7-1.8
				c0.6-0.9,0.8-1.5,0.8-2.7c0-1.2-0.4-2.1-1.3-2.8C208.7,354.1,207.5,353.9,206,354.3z"/>
		</g>
		<g id="SPLINE_1605_">
			<path fill="none" stroke="#000000" stroke-width="0" stroke-linecap="round" stroke-linejoin="round" stroke-miterlimit="10" d="
				M218.1,354.4c-1.4,0.7-2.8,2.9-2.6,4c0,0.2,0,0.6-0.1,0.8c-0.4,1.2,0.6,2.7,2.2,3.2c0.7,0.2,1,0.2,1.9,0.1
				c1.3-0.2,2.2-0.7,2.9-1.6c0.8-1.1,1-2.1,0.9-3.4c-0.2-1.2-0.7-2-1.6-2.7c-0.6-0.4-0.8-0.5-1.8-0.5
				C219,354.1,218.6,354.2,218.1,354.4z"/>
		</g>
		<g id="HATCH_856_">
			<path d="M218.1,354.4c-1.4,0.7-2.8,2.9-2.6,4c0,0.2,0,0.6-0.1,0.8c-0.4,1.2,0.6,2.7,2.2,3.2c0.7,0.2,1,0.2,1.9,0.1
				c1.3-0.2,2.2-0.7,2.9-1.6c0.8-1.1,1-2.1,0.9-3.4c-0.2-1.2-0.7-2-1.6-2.7c-0.6-0.4-0.8-0.5-1.8-0.5
				C219,354.1,218.6,354.2,218.1,354.4z"/>
		</g>
		<g id="SPLINE_1604_">
			<path fill="none" stroke="#000000" stroke-width="0" stroke-linecap="round" stroke-linejoin="round" stroke-miterlimit="10" d="
				M230.8,355.6c-1.2,0.7-2.1,2.7-1.8,4.5c0.2,1.6,2.3,2.9,4.1,2.7c1.4-0.2,2.6-1.3,3.1-3c0.5-1.6-0.2-3.2-1.7-4
				C233.6,355.3,231.6,355.2,230.8,355.6z"/>
		</g>
		<g id="HATCH_855_">
			<path d="M230.8,355.6c-1.2,0.7-2.1,2.7-1.8,4.5c0.2,1.6,2.3,2.9,4.1,2.7c1.4-0.2,2.6-1.3,3.1-3c0.5-1.6-0.2-3.2-1.7-4
				C233.6,355.3,231.6,355.2,230.8,355.6z"/>
		</g>
	</g>
	<g id="HATCH_853_">
		<path d="M340.8,115.7c-0.3,0.1-0.6,0.4-0.8,0.7c-0.1,0.2-0.2,0.5-0.2,1.3c-0.2,1.9-0.3,3.2-0.4,3.3c0,0.1-0.5-0.4-1.1-1.1
			c-1.4-1.5-2.3-2.4-2.7-2.6c-0.7-0.4-1.6-0.1-1.9,0.6c-0.3,0.7-0.1,1.4,0.5,1.9c0.2,0.2,0.5,0.4,0.6,0.5c0.1,0.1,0.8,0.9,1.6,1.7
			c0.8,0.8,1.7,1.8,2,2.2l0.7,0.7l-0.1,0.6c-0.2,2.3-0.6,7.8-0.7,8.1c0,0.1-0.1,0.2-0.4,0.2c-0.9,0-2.2,0.3-3.3,0.8
			c-1.2,0.6-2.2,1.3-3.1,2.3l-0.3,0.4l-0.3-0.2c-0.2-0.1-1.2-0.8-2.4-1.5c-1.1-0.7-2.7-1.7-3.5-2.2c-1.4-0.9-1.5-0.9-1.4-1.1
			c0.1-0.8,0.2-2.6,0.2-5c0-2.8,0-2.8-0.2-3.1c-0.2-0.4-0.6-0.7-1-0.8c-0.6-0.2-1.3,0.2-1.6,0.8c-0.1,0.3-0.1,0.3-0.1,3.3
			c0,1.7,0,3.1,0,3.2l-0.1,0.2l-0.9-0.6c-3.7-2.4-4-2.6-4.6-2.6c-0.7,0-1.2,0.3-1.4,0.9c-0.1,0.4-0.1,0.7,0,1
			c0.2,0.4,0.4,0.6,0.9,0.9c0.2,0.1,0.9,0.5,1.4,0.9c0.6,0.4,1.2,0.8,1.5,1c0.3,0.2,0.5,0.3,0.5,0.4c0,0.1-2.7,1-3.6,1.2
			c-0.4,0.1-0.9,0.2-1,0.3c-0.8,0.4-1.1,1.2-0.7,2c0.3,0.7,1,0.9,1.8,0.7c0.2-0.1,0.8-0.2,1.2-0.3s1.9-0.6,3.2-1
			c2.4-0.8,2.5-0.8,2.6-0.7c0.9,0.5,7.6,4.6,7.9,4.9c0.1,0.1,0.1,0.1,0,0.6c-0.4,1.6-0.4,3.1,0.1,4.9c0.1,0.3,0.1,0.5,0.1,0.5
			c0,0-0.9,0.5-1.9,1.1c-2,1.2-3.2,1.9-5.8,3.5l-1.6,1l-1.1-0.7c-0.6-0.4-1.9-1-2.9-1.4c-1-0.4-2.1-1-2.5-1.2
			c-0.7-0.4-0.8-0.4-1.1-0.4c-1.2,0-1.8,1.4-1.1,2.3c0.2,0.3,1.3,0.9,3.3,1.8c1.6,0.7,2.6,1.2,2.6,1.3c0,0.1-1.2,0.8-3.6,2.2
			c-1.4,0.8-1.9,1.2-2.1,1.6c-0.6,1.3,0.8,2.6,2,1.8c1-0.6,4-2.5,4.2-2.6c0.1,0,0,0.2-0.5,2.2c-0.5,2.1-0.5,2.2-0.4,2.6
			c0.3,1.1,1.8,1.4,2.5,0.5c0.2-0.3,0.8-2.5,1.4-5.2c0.5-2.5,0.4-2.2,1.2-2.7c0.4-0.2,1.4-0.8,2.2-1.4c1.4-0.9,6.4-3.9,6.5-3.9
			c0,0,0.3,0.3,0.6,0.6c1,1,2.6,2.1,3.6,2.4c0.2,0.1,0.4,0.1,0.4,0.2c0,0,0,0.5-0.1,1c-0.1,0.5-0.1,1.5-0.2,2.2
			c0,0.7-0.1,2.1-0.2,3.1c-0.1,1-0.2,2.2-0.2,2.7c-0.1,0.9-0.1,0.9-0.2,1c-0.2,0.2-1.7,1.4-2.4,1.9c-0.2,0.2-0.8,0.6-1.3,1
			c-0.9,0.7-2.2,1.7-2.4,1.9c-0.2,0.2-0.3,0.7-0.3,0.9c0,0.8,0.6,1.4,1.4,1.4c0.5,0,0.7-0.1,1.6-0.9c0.7-0.6,2.3-1.8,3.2-2.4
			c0.1-0.1,0.1-0.1,0.1,0.9c0,0.5-0.1,1.4-0.1,1.8c-0.1,0.7-0.1,0.8,0,1.1c0.2,0.4,0.4,0.7,0.8,0.9c0.9,0.4,1.8-0.1,2-1
			c0-0.2,0.1-1.1,0.1-2.1c0-0.9,0.1-1.7,0.1-1.7c0,0,2.1,1.5,2.9,2.3c1,0.9,1.2,1,1.6,1c1,0,1.6-0.9,1.4-1.9
			c-0.1-0.5-1.2-1.4-3.7-3.3c-0.7-0.6-1.5-1.1-1.7-1.3L338,162l0-0.4c0-0.2,0.1-0.7,0.1-1.1s0.1-1.3,0.1-2c0.1-0.7,0.2-2.1,0.2-3
			c0.1-1,0.1-2.1,0.2-2.6l0.1-0.8l0.4,0c1.2-0.1,2.9-0.4,3.8-0.8c0.7-0.3,1.1-0.5,1.8-1.2c0.3-0.3,0.6-0.5,0.6-0.5
			c0,0,0.3,0.2,0.7,0.4c1.2,0.8,4,2.5,5.6,3.4l1.6,0.9l0,1.5c0,0.8-0.1,2.2-0.1,3.1c-0.1,1.7,0,2.8,0.2,3.2c0.2,0.4,0.8,0.8,1.4,0.8
			c0.3,0,0.7-0.2,0.9-0.4c0.4-0.4,0.4-0.6,0.4-1.2c-0.1-1,0-1.8,0-3.5c0.1-1.3,0.1-1.6,0.2-1.6c0.1,0,1.9,1.1,4,2.4
			c0.8,0.5,1.1,0.6,1.6,0.4c0.4-0.1,0.9-0.5,1-0.9c0.1-0.3,0.1-0.8-0.1-1.1c-0.2-0.4-0.3-0.4-2.5-1.8c-1-0.6-1.8-1.1-1.8-1.1
			c0,0,0.2-0.1,0.5-0.2c2.1-0.6,3.4-1,3.7-1.2c0.6-0.2,1-0.7,1-1.4c0-0.7-0.4-1.3-1.1-1.4c-0.3-0.1-0.4-0.1-1.7,0.3
			c-0.8,0.2-1.7,0.5-2.2,0.7c-1.3,0.4-3.4,1-3.5,1c-0.3,0-7.9-4.5-7.9-4.7c0,0,0.1-0.2,0.1-0.4c0.2-0.4,0.5-1.6,0.6-2.3
			c0.2-1.1,0.2-2.5,0-4.6c0-0.1,0.2-0.2,1-0.7c0.6-0.3,1.6-0.9,2.3-1.3s1.9-1.1,2.6-1.5c0.7-0.4,1.7-1,2.1-1.2
			c0.4-0.3,0.8-0.5,0.9-0.6c0.1-0.1,0.2,0,0.9,0.3c0.4,0.2,1.3,0.6,2.1,1s2.3,1,3.3,1.5c1.1,0.5,2.1,1,2.2,1c0.2,0,0.4,0,0.6-0.1
			c0.6-0.2,1.1-0.9,1-1.6c-0.1-0.6-0.4-0.9-1.3-1.3c-0.2-0.1-0.9-0.4-1.7-0.8c-0.8-0.4-2-0.9-2.7-1.3c-0.7-0.3-1.3-0.6-1.3-0.6
			c0,0,0.1-0.1,0.3-0.2c0.2-0.1,0.7-0.4,1.3-0.8c1.6-1,2.3-1.3,2.7-1.4c0.4-0.1,0.8-0.4,1-0.9c0.2-0.4,0.3-1,0-1.5
			c-0.3-0.5-1-0.8-1.6-0.7c-0.3,0.1-1.7,0.8-3.5,1.9c-0.6,0.3-1.1,0.6-1.1,0.6c-0.1-0.1,0.7-3.7,1-4.4c0.2-0.7,0.2-1.1,0-1.5
			c-0.4-0.9-1.6-1.1-2.3-0.4c-0.4,0.4-0.6,1.1-1.3,4.1c-0.4,1.9-0.9,4-1,4.2c-0.2,0.3-0.7,0.6-4,2.5c-1.4,0.8-2.7,1.6-3.1,1.8
			c-0.3,0.2-0.9,0.5-1.1,0.6l-0.6,0.3l-0.2-0.2c-0.1-0.1-0.3-0.3-0.5-0.4c-0.2-0.1-0.6-0.4-1-0.6c-0.9-0.6-1.6-1-2.7-1.4
			c-0.4-0.2-0.8-0.3-0.9-0.3c0,0,0-1.1,0.2-2.3c0.1-1.2,0.3-3.1,0.3-4.2c0.1-1.1,0.2-2,0.2-2.1c0-0.1,0.2-0.2,0.5-0.4
			c0.3-0.1,1-0.5,1.6-0.9c0.6-0.3,1.6-0.9,2.1-1.2c0.5-0.3,1.3-0.7,1.7-1c0.4-0.2,1.2-0.7,1.7-0.9c1.1-0.6,1.4-0.8,1.5-1.3
			c0.1-0.4,0.1-0.6-0.1-1c-0.3-0.6-0.7-0.8-1.3-0.8c-0.4,0-0.9,0.2-6.2,3.2c-0.6,0.4-1.2,0.6-1.2,0.6c0-0.1,0.3-3.3,0.4-4
			c0.1-0.7,0-1.4-0.2-1.8C342.1,115.7,341.4,115.4,340.8,115.7z M339.5,136.8c1.2,0.2,2.7,0.8,3.6,1.4c1.5,1,1.8,1.4,1.9,2.9
			c0.2,2.6-0.3,4.7-1.4,6c-0.7,0.8-1.3,1.3-1.9,1.5c-0.9,0.4-1.6,0.5-3,0.5c-1.1,0-1.2,0-1.8-0.2c-0.9-0.2-1.4-0.5-2.2-1.1
			c-0.6-0.5-1.3-1.2-1.6-1.8c-0.3-0.5-0.6-1.4-0.7-2.3c-0.1-0.8-0.1-0.9-0.1-1.5c0.1-0.9,0.2-1.3,0.6-2c0.5-1.1,1.3-1.9,2.2-2.5
			c0.7-0.4,1.4-0.8,2-0.9C337.7,136.7,338.8,136.7,339.5,136.8z"/>
	</g>
	<g>
		<g id="HATCH_852_">
			<path d="M36.8,206.7c-0.3-1.2-0.4-2.5,0.1-3.6c3-0.7,5.7,1.6,7.8,3.9c3.4,3.9,6.5,8,9.2,12.5c2.3,3.9,3.8,7.8,7.1,10.9
				c1.7,1.6,10.7-18.3,11.5-19.7c0.5-1,1.1-2,2-2.6c0.9-0.6,2.3-0.6,3,0.3c0.4,0.6,0.4,1.4,0.3,2.1c-1.1,11.3-8.1,22.2-12.3,32.7
				c-3.3,8.3-5.5,16.8-4.6,25.9c1.3,12.7,7.2,22.1,19.6,26.8c0.1,0,0.2,0.1,0.3,0.1c4.4,1.5,5.1-3.2,4.6-6.5
				c-1-6.3-3.1-12.4-3.9-18.8c-0.2-1.6-0.1-3.6,1.3-4.2c0.9-0.4,1.9,0,2.6,0.7c0.7,0.7,1,1.6,1.3,2.5c0.9,2.5,1.4,5.2,2,7.8
				c1.6,6.8,3.7,14,7.8,19.8c4.7,6.6,11.4,11.6,18.8,14.8c7.4,3.3,14.9,6.4,22.4,9.4c10.6,4.4,17.5,12.3,21.7,22.7
				c1.5,3.5,0.5,5.8-3.2,6.6c-4.2,0.9-8.6,1.5-12.9,1.7c-3.8,0.2-4.9-1.2-4.2-4.9c0.7-3.4-0.4-5.9-2.9-8.1
				c-4.9-4.2-10.7-7.1-16.7-9.4c-10.8-4.2-21.4-9-31.9-14.1c-12.2-6-24-12.5-35-20.5c-15.4-11.3-28.1-24.9-35.8-42.6
				c-3.7-8.5-6.1-17.2-7.7-26.4c-1.6-9.1-1.4-18.3-2.3-27.5c-1.3-13.2-2.5-26.2-3.9-39.3c-0.2-2-0.1-4.6,1.8-5.2
				c4.4-1.5,6.7,12.5,7.6,15.3c-0.7-2.1,5.8-12.3,6.8-14.5c2.6-5.6,5.6-11.1,8.9-16.3c1.8-2.9,4.2-6.1,7.6-6.2
				c3.9-0.2-5.9,17.6-6.4,18.6c-4,8.8-7,18-8.8,27.5c-1.9,10-2.2,20.2-1.5,30.4c0.5,6.5,1,13,2.6,19.4c3.8,14.8,10.7,28,22,38.6
				c0.8,0.8,1.8,1.4,3.3,2.6c0.4-2.7,0.8-4.7,1-6.7c0.7-5.6,1.5-11.3,1.8-16.9c0.4-6.6-0.7-13.2-3-19.4c-2.3-6.3-6.5-11.4-9.1-17.7
				C37.3,208.4,37,207.6,36.8,206.7z"/>
		</g>
		<g id="HATCH_851_">
			<path d="M350.4,282.1c0,1.7-0.1,3.3-0.2,5c-0.2,3.6-1.8,6.8-2,10.3c-0.1,2,0.6,2.8,2.5,2.5c2-0.3,4.1-0.8,5.8-1.8
				c9.3-5.3,14.9-13.2,15.9-24.1c0.8-9.2-0.6-18.2-3.8-26.7c-1.9-5.1-4.4-10-6.5-15c-2.1-4.8-3.9-9.7-5.3-14.8
				c-0.4-1.5-0.8-3.1-0.7-4.7c0.1-1,0.5-2.1,1.5-2.2c1-0.1,1.6,0.9,2,1.8c2.9,6.1,5.7,11.9,9.2,17.6c1,1.5,2.2,2.8,3.6,4.7
				c1.3-1.9,2.3-3.3,3.3-4.8c4.1-6.3,7.6-12.9,12.7-18.4c1.8-2,4-3.9,6.6-4.1c0.5,0,1.1,0.1,1.4,0.5c0.3,0.5,0,1.2-0.3,1.7
				c-5.5,8.8-11.8,18.7-11.8,29.6c-0.4,5.3-0.7,10.7-0.4,16c0.4,5.3,1.6,10.5,2.4,15.6c2.5,0.8,3.7-0.4,5-1.5
				c4.6-3.7,8.3-8.2,11.2-13.2c5.3-9.1,8.8-18.9,10.7-29.2c1.9-10.7,2.7-21.4,1.7-32.2c-1-10.9-3.4-21.5-7.3-31.7
				c-3.2-8.6-8.4-16.6-10.4-25.6c-0.3-1.4-0.3-3.3,1.1-3.8c1-0.3,2,0.5,2.7,1.3c3.6,4.1,6,9.1,8.4,13.9c2.5,5,5.4,9.4,7.3,14.7
				c0.9,2.6,1.9,5.2,2.9,7.8c0.4,1,0.8,1.9,1.5,3.4c0.8-1,1.5-1.6,1.7-2.3c1.3-4.7,1.8-10.2,3.7-14.7c0.2-0.6,0.5-1.1,1.1-1.4
				c0.7-0.3,1.6,0,2.1,0.6c0.5,0.6,0.7,1.4,0.8,2.2c1.4,7.1,0.3,14.4-1.5,21.2c-2.1,8-2.3,16.4-2.5,24.6c-0.2,6.7-0.4,13.3-1.2,19.9
				c-1.6,13.8-5.7,26.9-12.5,39.2c-9.3,16.8-22.7,29.4-38.7,39.6c-18.1,11.6-37.3,21-57.3,29c-5.5,2.2-10.7,5.1-15.9,7.9
				c-1.4,0.7-2.5,1.9-3.7,2.9c-2.1,2.1-3,4.5-2.5,7.6c0.6,3.3-0.7,4.9-3.9,5c-4.1,0.1-8.2,0.4-12.2-1.1c-4.7-1.6-6.1-4.6-3.8-8.9
				c4.9-9.6,11.5-17.2,21.8-21.4c7.2-2.9,14.3-6,21.5-8.9c8.2-3.2,15.1-8.8,20-16.2c6.1-9.1,4.1-18.8,7.4-28.7
				c0.2-0.5,0.4-1,0.8-1.3c0.8-0.7,2.2-0.3,2.9,0.6s0.8,2,0.9,3.1C350.2,276.2,350.4,279.2,350.4,282.1z"/>
		</g>
	</g>
	<g>
		<g>
			<path fill="#F27778" d="M163.2,252.8c-0.1,0.8-0.3,1.6-0.4,2.4c-0.1,0.7-0.3,1.4-0.5,2.2c-0.2,0.8-0.4,1.6-0.7,2.4
				c1.1-0.1,2.2-0.2,3.2-0.3c1.1-0.1,2.1-0.1,3-0.1c2.7-0.1,4.8,0,6.4,0.3c1.5,0.3,2.3,0.6,2.3,0.9v0.2c0,0.3-0.2,0.5-0.6,0.6
				c-0.3,0.1-1,0.4-2.2,0.8c-0.7,0.3-1.4,0.4-2.1,0.5c-0.7,0.1-1.4,0.2-2.1,0.3c-0.8,0.1-1.6,0.2-2.4,0.2c-1.5,0.3-2.6,0.5-3.3,0.6
				c-0.7,0.1-1.4,0.3-1.9,0.4c-0.5,0.1-0.9,0.2-1.2,0.2c-0.8,3.1-1.8,6.1-3,9.1c-1.1,2.6-2.4,5.2-3.9,8c-1.5,2.8-3.3,5.3-5.3,7.6
				c-1.3,1.3-2.8,2.6-4.2,3.6c-1.3,0.9-2.9,1.8-4.5,2.6c-1.7,0.8-3.5,1.1-5.4,1c-1.6,0-3-0.2-4-0.7c-1.1-0.5-2-1-2.6-1.5
				c-0.7-0.5-1.2-1.3-1.6-2.2c-0.9-1.9-1.2-3.8-0.9-5.8c0.3-2,0.9-3.8,1.7-5.6c0.9-2,2.2-4,3.6-5.9c2-2.7,4.7-5.1,8.1-7.3
				c1.2-0.7,2.5-1.3,3.8-2c1.1-0.5,2.3-1.1,3.5-1.6c1.3-0.5,2.5-0.9,3.7-1.2c0.7-3.9,1.1-7.7,1.4-11.4c0.3-3.7,0.5-7,0.8-10
				c0.3-3.5,0.4-6.8,0.4-9.9c0-1.6-0.1-3.9-0.2-7c-0.1-3-0.4-6.3-0.8-9.9c-0.4-3.6-0.9-7.2-1.4-11c-0.5-3.8-1.2-7.2-2.1-10.4
				c-0.9-3.2-1.9-5.7-2.9-7.7c-1.1-2-2.4-3-3.8-3.1c-1.2-0.1-2.4,0.1-3.4,0.7c-1.1,0.6-2.1,1.4-2.9,2.4c-0.9,1-1.7,2.1-2.3,3.1
				c-0.7,1.1-1.2,2.1-1.6,3c-0.4,0.8-0.8,1.7-1.1,2.5c-0.3,0.9-0.6,1.8-0.9,2.7c-0.5,1.5-1,2.9-1.4,4.2c-0.4,1.3-0.8,2.7-1.2,4
				c-0.3,0.9-0.5,1.9-0.6,2.7c-0.1,0.9-0.3,1.7-0.6,2.5c0.1,5,0.2,10.5,0.2,16.5c0,6,0,12-0.1,18c-0.1,6-0.2,11.7-0.5,17.2
				c-0.3,5.5-0.6,10.1-1,13.8c-0.1,2.4-0.4,4.6-0.8,6.5c-0.3,1.6-0.7,3.1-1.4,4.4c-0.7,1.3-1.5,2-2.4,2c-2.7,0-4.7-1.7-6-5.3
				c-1.3-3.5-1.8-9.2-1.5-17c0.1-2.8,0.2-7.2,0.1-13c-0.1-5.9,0-12.2,0.1-19.1c0.1-6.9,0.3-13.8,0.6-20.7c0.3-6.9,0.7-13,1.4-18.3
				c0.5-3.9,1.2-6.3,2.1-7.3c0.9-0.9,1.9-1.5,3.1-1.6c0.8-0.1,1.5,0.1,2.2,0.6c0.7,0.4,1.2,1.1,1.7,2c0.5,0.9,0.8,2.4,1.1,4.4
				c0.1,0.4,0.2,1.1,0.2,2.2c0.4-2.7,1.2-5.3,2.4-7.7c1.1-2.2,2.5-4.4,4.1-6.7c1.7-2.3,3.9-4.2,6.8-5.9c1.5-0.9,3.1-1.5,4.9-1.8
				c1.5-0.3,3.2-0.1,5.2,0.6c2,0.7,3.9,2.1,5.9,4.2c1.5,2.2,2.9,4.5,4.2,7.1c1.1,2.3,2.2,5,3.4,8.1c1.2,3.1,2.1,6.5,2.8,10.3
				c0.7,4.4,1.2,9.3,1.6,14.6c0.3,4.4,0.3,9.6,0.1,15.5C165,239.9,164.3,246.2,163.2,252.8z M131.2,282.5c-0.5,1.3-0.9,2.6-1.2,3.8
				c-0.3,1.1-0.3,2.1-0.2,3.1c0.1,1,0.7,1.8,1.8,2.3c0.3,0.1,0.7,0.3,1.2,0.4c0.5,0.1,1.2,0.1,2-0.2c3.5-0.8,6.4-3.5,8.6-8.1
				c2.2-4.6,3.9-9.8,5.2-15.8c-0.9,0.4-1.9,0.8-2.8,1.2c-0.9,0.4-1.9,0.9-2.8,1.6c-2.3,1.2-4.2,2.5-5.7,3.9
				c-1.5,1.4-2.7,2.7-3.6,3.7C132.5,280,131.7,281.3,131.2,282.5z"/>
			<path fill="#F27778" d="M192.9,174.3c6.3-0.8,11.5-1.1,15.6-1c4.1,0.1,7.5,0.4,10.2,0.8c3,0.5,5.4,1.3,7.3,2.2
				c1.5,0.8,2.6,1.8,3.4,3c0.7,1.1,1.2,2.4,1.5,3.8c0.3,1.5,0.2,3.2-0.5,5.3c-0.1,0.4-0.4,1-0.8,1.7c-0.4,0.7-0.9,1.4-1.5,2
				c-0.6,0.6-1.4,1-2.3,1.3c-0.9,0.3-2,0.1-3.2-0.6c-1.3-0.7-1.8-1.3-1.3-2c0.5-0.7,1.2-1.4,2.1-2.1c0.9-0.7,1.8-1.5,2.6-2.4
				c0.8-0.9,0.9-1.9,0.4-3.1c-0.3-0.8-0.9-1.5-1.8-2.1c-0.9-0.6-2-1-3-1.3c-1.2-0.4-2.5-0.7-3.8-1c-3.1-0.3-6-0.3-8.7,0
				c-2.4,0.3-4.9,0.7-7.4,1.4c-2.5,0.7-4.5,1.8-6.2,3.2c0.1,0.5,0.2,1.1,0.2,1.6c0,0.5,0,1.1,0,1.8c0.1,2.3,0.2,5.5,0.3,9.7
				c0.1,4.2,0.2,8.9,0.3,14.1c1.5,0,3.4,0,5.8-0.1c2.4-0.1,4.7,0,7,0.1c3.2,0.3,5.9,0.7,8.1,1.2c0.7,0.3,1.5,0.7,2.6,1.2
				c0.1,0.1,0.3,0.3,0.4,0.6c0.3,0.5,0.1,1.3-0.4,2.2c-0.3,0.8-1.2,1.3-2.8,1.4c-1.1,0.3-2.6,0.4-4.4,0.4c-1.1,0.1-2.2,0.2-3.3,0.2
				c-1.1,0-2.4,0-3.7,0c-1.5,0-3,0-4.5-0.1c-1.6-0.1-3-0.2-4.3-0.3c0.1,4.7,0.2,10.3,0.2,16.7c0,6.4-0.1,12.5-0.2,18.3
				c-0.1,6.9-0.3,13.8-0.4,20.8v2c0,0.7,0,1.4,0,2.2s0.1,1.7,0.2,2.6c0.3,2.6,1.1,5.1,2.6,7.6c1.5,2.5,4,3.9,7.7,4.1
				c2.3,0,4.6,0.1,7.1,0.2c2.4,0.1,4.6,0.3,6.6,0.5c2,0.2,3.6,0.4,5,0.7c1.3,0.3,2,0.7,2,1.2c0.1,0.3,0.1,0.5-0.2,0.8
				c-0.3,0.3-0.7,0.5-1.2,0.7c-0.5,0.2-1.3,0.4-2.4,0.5c-0.9,0.1-2.4,0.2-4.3,0.3c-2,0.1-4.2,0.1-6.7,0.1c-2.5,0-5,0-7.6-0.1
				c-2.6-0.1-4.9-0.2-7.1-0.3c-3.2-0.4-5.8-1.4-7.7-3.1c-1.9-1.7-3.4-3.6-4.4-5.7c-1-2.1-1.6-4.1-1.9-6.2s-0.4-3.5-0.4-4.4v-5.5
				c0-2.6,0-6.4,0.1-11.4c0.1-5.1,0.2-10.6,0.3-16.8c0.1-6.1,0.3-12.6,0.4-19.4c0.1-6.8,0.3-13.2,0.6-19.2c0.3-6,0.6-11.4,1-16.2
				c0.4-4.8,0.9-8.3,1.6-10.4c0-0.7,0.3-1.3,0.8-1.8c0.4-0.5,0.9-1,1.6-1.3C190.4,174.9,191.4,174.6,192.9,174.3z"/>
			<path fill="#F27778" d="M243.4,174.3c6.3-0.8,11.5-1.1,15.6-1c4.1,0.1,7.5,0.4,10.2,0.8c3,0.5,5.4,1.3,7.3,2.2
				c1.5,0.8,2.6,1.8,3.4,3c0.7,1.1,1.2,2.4,1.5,3.8c0.3,1.5,0.2,3.2-0.5,5.3c-0.1,0.4-0.4,1-0.8,1.7c-0.4,0.7-0.9,1.4-1.5,2
				s-1.4,1-2.3,1.3c-0.9,0.3-2,0.1-3.2-0.6c-1.3-0.7-1.8-1.3-1.3-2c0.5-0.7,1.2-1.4,2.1-2.1c0.9-0.7,1.8-1.5,2.6-2.4
				c0.8-0.9,0.9-1.9,0.4-3.1c-0.3-0.8-0.9-1.5-1.8-2.1c-0.9-0.6-2-1-3-1.3c-1.2-0.4-2.5-0.7-3.8-1c-3.1-0.3-6-0.3-8.7,0
				c-2.4,0.3-4.9,0.7-7.4,1.4c-2.5,0.7-4.5,1.8-6.2,3.2c0.1,0.5,0.2,1.1,0.2,1.6c0,0.5,0,1.1,0,1.8c0.1,2.3,0.2,5.5,0.3,9.7
				c0.1,4.2,0.2,8.9,0.3,14.1c1.5,0,3.4,0,5.8-0.1c2.4-0.1,4.7,0,7,0.1c3.2,0.3,5.9,0.7,8.1,1.2c0.7,0.3,1.5,0.7,2.6,1.2
				c0.1,0.1,0.3,0.3,0.4,0.6c0.3,0.5,0.1,1.3-0.4,2.2c-0.3,0.8-1.2,1.3-2.8,1.4c-1.1,0.3-2.6,0.4-4.4,0.4c-1.1,0.1-2.2,0.2-3.3,0.2
				c-1.1,0-2.4,0-3.7,0c-1.5,0-3,0-4.5-0.1c-1.6-0.1-3-0.2-4.3-0.3c0.1,4.7,0.2,10.3,0.2,16.7c0,6.4-0.1,12.5-0.2,18.3
				c-0.1,6.9-0.3,13.8-0.4,20.8v2c0,0.7,0,1.4,0,2.2s0.1,1.7,0.2,2.6c0.3,2.6,1.1,5.1,2.6,7.6c1.5,2.5,4,3.9,7.7,4.1
				c2.3,0,4.6,0.1,7.1,0.2c2.4,0.1,4.6,0.3,6.6,0.5c2,0.2,3.6,0.4,5,0.7c1.3,0.3,2,0.7,2,1.2c0.1,0.3,0.1,0.5-0.2,0.8
				c-0.3,0.3-0.7,0.5-1.2,0.7c-0.5,0.2-1.3,0.4-2.4,0.5c-0.9,0.1-2.4,0.2-4.3,0.3c-2,0.1-4.2,0.1-6.7,0.1c-2.5,0-5,0-7.6-0.1
				c-2.6-0.1-4.9-0.2-7.1-0.3c-3.2-0.4-5.8-1.4-7.7-3.1c-1.9-1.7-3.4-3.6-4.4-5.7c-1-2.1-1.6-4.1-1.9-6.2s-0.4-3.5-0.4-4.4v-5.5
				c0-2.6,0-6.4,0.1-11.4s0.2-10.6,0.3-16.8c0.1-6.1,0.3-12.6,0.4-19.4c0.1-6.8,0.3-13.2,0.6-19.2c0.3-6,0.6-11.4,1-16.2
				c0.4-4.8,0.9-8.3,1.6-10.4c0-0.7,0.3-1.3,0.8-1.8c0.4-0.5,0.9-1,1.6-1.3C240.9,174.9,242,174.6,243.4,174.3z"/>
			<path fill="#F27778" d="M315.1,247.1c0.4,0.5,0.9,1.3,1.4,2.2c0.4,0.8,0.9,1.9,1.4,3.1c0.5,1.3,1,2.9,1.4,4.8
				c0.3,1.5,0.5,2.9,0.6,4.2c0.1,1.3,0.3,2.8,0.4,4.2c0.1,1.5,0.2,2.9,0.3,4.2c0.1,1.3,0.1,2.7,0.1,4c0.1,2.3,0.3,4.5,0.6,6.7
				c0.3,1.9,0.5,3.7,0.8,5.6c0.3,1.8,0.7,3.3,1.2,4.5c0.3,0.8,0.7,1.6,1.2,2.2c0.4,0.7,0.8,1.3,1.3,2c0.5,0.7,1,1.3,1.7,2l0.4,0.4
				c0.1,0.1,0.2,0.5,0.2,1.2c-0.1,0.8-0.6,1.3-1.4,1.4c-0.9,0.4-2,0.3-3-0.2c-1.5-0.5-2.7-1.3-3.5-2.4c-0.9-1.1-1.7-2.2-2.3-3.2
				c-0.7-1.2-1.3-2.5-1.8-3.8c-0.3-0.7-0.5-1.4-0.7-2.3c-0.2-0.9-0.4-1.9-0.7-3.1c-0.3-1.1-0.4-2.3-0.5-3.6
				c-0.1-1.3-0.2-2.8-0.5-4.2c-0.1-1.5-0.2-3-0.3-4.5c-0.1-1.5-0.1-3.1-0.1-4.5c-0.1-1.6-0.3-3.2-0.4-4.8c-0.1-1.5-0.3-3.1-0.6-4.5
				c-0.3-1.9-0.6-3.4-1-4.5c-0.4-1.1-0.9-2.1-1.4-2.7c-0.5-0.8-1.1-1.4-1.8-1.8c-0.7-0.4-1.4-0.7-2.2-0.8c-0.8-0.1-1.6-0.2-2.2-0.2
				h-2.2c-0.1,6.7-0.3,13-0.6,18.9c-0.3,5.9-0.5,11-0.8,15.3c-0.1,2.8-0.4,5.3-0.8,7.5c-0.3,1.9-0.7,3.6-1.4,5.2
				c-0.7,1.6-1.5,2.3-2.4,2.3c-2.7,0-4.7-2-6-6c-1.3-4-1.8-10.5-1.5-19.7c0-3.2,0-8.2,0-15c0-6.7,0-14.1,0.1-22
				c0.1-8,0.2-16,0.5-24.1c0.3-8.1,0.7-15.2,1.4-21.2c0.3-2.3,0.6-4.1,0.9-5.5c0.3-1.3,0.7-2.4,1.2-3.1c0.5-0.7,1-1.2,1.5-1.4
				c0.5-0.2,1.1-0.3,1.6-0.3c0.8-0.1,1.5,0.1,2.2,0.6c0.7,0.5,1.3,1.4,1.8,2.5c0.5,1.1,0.9,2.9,1.2,5.2c0.1,0.9,0.2,2,0.3,3.2
				c0.1,1.2,0.1,2.6,0.1,4c0.4-1.5,0.9-3,1.6-4.6c0.7-1.5,1.5-3.1,2.4-4.9c0.9-1.8,2.2-3.6,3.6-5.5c0.9-1.2,2.1-2.3,3.4-3.2
				c1.1-0.8,2.4-1.5,3.9-2.2c1.5-0.7,3.3-0.9,5.4-0.8c1.2,0,2.5,0.4,3.8,1.2c1.1,0.7,2.2,1.8,3.4,3.3c1.2,1.6,2.4,3.7,3.4,6.4
				c0.5,2,1.1,4.2,1.6,6.7c0.3,2,0.5,4.4,0.7,7.2c0.2,2.8,0.2,5.8-0.1,9c-0.5,4.9-1.5,9.5-2.8,13.9c-1.1,3.9-2.6,8-4.6,12.1
				c-2,4.2-4.7,7.8-8.1,10.9c-0.7,0.7-1.3,1.2-1.8,1.6C316.2,246.5,315.7,246.8,315.1,247.1z M308.3,189.5c-1.1,2.3-2,4.7-2.8,7.2
				c-0.8,2.5-1.6,4.8-2.2,6.8c-0.7,2.4-1.3,4.8-1.8,7.1c0.3,9.7,0.3,20.3,0,31.7c0.7,0.3,1.3,0.4,1.8,0.5c0.5,0.1,1,0.1,1.4,0.1
				c0.5,0,1-0.1,1.4-0.2c2.8-0.4,5.3-2.6,7.5-6.7c2.2-4,3.9-8.8,5.4-14.1c1.4-5.4,2.3-10.9,2.7-16.7c0.4-5.7,0.2-10.5-0.6-14.3
				c-0.7-3.1-1.5-5.3-2.5-6.5s-2.1-1.8-3.1-1.8c-1.1,0-2.1,0.3-2.9,1c-0.9,0.7-1.7,1.5-2.3,2.4C309.4,187.1,308.8,188.3,308.3,189.5
				z"/>
		</g>
	</g>
	<g>
		<g>
			<path fill="#000100" d="M67.5,109.6c7.4,0,13.6,5.1,13.6,10.5c0,5.4-1.2,11.3-3.5,16.7c5.2-4.6,9.7-10.5,12.3-17.2
				c0.8-1.9,3.8-0.7,3.1,1.3c-3.8,9.3-10.3,16.9-18.6,22.2c-4.4,7.3-10.7,12.5-17.8,12.5c-8.6,0-13.7-8.6-13.7-14.8
				c0-11.8,6.1-27.3,16.1-32.5C61.7,106.9,65.1,107.9,67.5,109.6z M55.5,147c2.6-0.2,4.3-0.7,6.9-1.5c4.3-6.2,7.6-17.8,7.6-25.4
				c0-7.9-4.3-8.3-8.6-3.7c-6.8,7.5-10.1,24.4-7.2,30.9C54.6,147.1,55,147,55.5,147z"/>
			<path fill="#000100" d="M110.3,115c-8.3,8.9-15.9,23.7-18.1,34.7c-0.2,1.4-0.5,3-0.5,4.4c0,1-0.4,1.4-1.4,1.4
				c-2.9,0-7.9-2.6-7.9-5.2c0-21,12-71.6,17-71.6c2.4,0,10.4,3.1,10.4,4.9c0,0.2-0.1,0.5-0.2,0.6c-0.6,0.7-1.1,1.2-1.4,2
				c-4.6,8.2-10.1,29.7-13.5,46.7c4.4-9.4,10.8-18.7,17.3-24.1c0.7-0.6,1.4-0.8,2.3-0.8c1.8,0,8.1,2.1,8.1,4.4
				c0,0.5-0.2,0.8-0.4,1.3c-0.5,1-1,1.9-1.3,3c-3.8,10.3-6.9,23.1-8.5,31.5c-0.2,1.8,0.5,2,1.8,0.8c7.2-7.3,12.6-21.2,15.9-29.3
				c0.7-2,3.8-0.8,3,1.2c-3.1,8-13.5,34.7-23.7,34.7c-4.1,0-6.9-4.3-6.4-8.1C103.7,137.2,106.6,125,110.3,115z"/>
		</g>
	</g>
</g>
</svg>
