<?xml version="1.0" encoding="utf-8"?>
<!-- Generator: Adobe Illustrator 22.1.0, SVG Export Plug-In . SVG Version: 6.00 Build 0)  -->
<svg version="1.1" id="Layer_1" xmlns="http://www.w3.org/2000/svg" xmlns:xlink="http://www.w3.org/1999/xlink" x="0px" y="0px"
	 viewBox="0 0 1080 1296" style="enable-background:new 0 0 1080 1296;" xml:space="preserve">
<path d="M395.2,228.6c1.2,0,2.3-1,3.2-3c0.9-2,1.5-4.3,1.8-6.7c0.5-2.8,0.9-6.1,1.1-9.7c0.3-5.6,0.7-12.2,1.1-19.9
	c0.3-7.6,0.6-15.8,0.8-24.6h2.9c0.9,0,1.8,0.1,2.9,0.3c1.1,0.2,2,0.5,2.9,1.1c0.9,0.5,1.7,1.3,2.4,2.4c0.7,0.9,1.3,2.1,1.8,3.6
	c0.5,1.5,1,3.5,1.3,5.9c0.4,1.9,0.6,3.9,0.8,5.9c0.2,2,0.4,4.1,0.5,6.2c0,1.9,0,3.9,0.1,5.9c0.1,2,0.2,4,0.4,5.9
	c0.3,1.9,0.6,3.8,0.7,5.5c0.1,1.8,0.3,3.3,0.7,4.7c0.4,1.6,0.7,2.9,0.9,4.1c0.3,1.1,0.6,2.2,0.9,3c0.7,1.8,1.5,3.4,2.4,5
	c0.9,1.4,1.9,2.8,3,4.2c1.1,1.4,2.7,2.5,4.6,3.2c1.4,0.7,2.7,0.8,4,0.3c1.1-0.2,1.7-0.8,1.8-1.8c0-0.9-0.1-1.4-0.3-1.6l-0.5-0.5
	c-0.9-0.9-1.6-1.8-2.2-2.6c-0.6-0.9-1.2-1.8-1.7-2.6c-0.7-0.9-1.2-1.8-1.6-2.9c-0.7-1.6-1.2-3.6-1.6-5.9c-0.4-2.4-0.7-4.8-1.1-7.2
	c-0.4-2.8-0.6-5.7-0.8-8.7c0-1.8,0-3.5-0.1-5.3c-0.1-1.8-0.2-3.6-0.4-5.5c-0.2-1.9-0.4-3.8-0.5-5.5c-0.2-1.8-0.4-3.6-0.8-5.5
	c-0.5-2.5-1.1-4.5-1.8-6.2c-0.7-1.7-1.3-3-1.8-4.1c-0.7-1.2-1.3-2.2-1.8-2.9c0.7-0.4,1.4-0.8,2.1-1.3c0.7-0.5,1.5-1.2,2.4-2.1
	c4.4-4,7.9-8.8,10.5-14.2c2.6-5.4,4.6-10.7,6.1-15.8c1.8-5.8,3-11.9,3.7-18.2c0.3-4.2,0.4-8.1,0.1-11.7c-0.3-3.6-0.6-6.7-0.9-9.3
	c-0.7-3.2-1.4-6.1-2.1-8.7c-1.4-3.5-2.9-6.3-4.5-8.3c-1.6-2-3.1-3.5-4.5-4.3c-1.8-1.1-3.4-1.6-5-1.6c-2.6-0.2-5,0.2-7,1.1
	c-2,0.9-3.7,1.8-5.1,2.9c-1.8,1.2-3.3,2.6-4.5,4.2c-1.9,2.5-3.5,4.8-4.7,7.1c-1.2,2.3-2.3,4.4-3.2,6.3c-0.9,2.1-1.6,4.1-2.1,6.1
	c0-1.9,0-3.7-0.1-5.3c-0.1-1.6-0.2-3-0.4-4.2c-0.4-3-0.9-5.2-1.6-6.7c-0.7-1.5-1.5-2.6-2.4-3.3c-0.9-0.7-1.8-1-2.9-0.8
	c-0.7,0-1.4,0.1-2.1,0.4c-0.7,0.3-1.4,0.9-2,1.8c-0.6,1-1.1,2.3-1.6,4.1c-0.4,1.8-0.8,4.1-1.2,7.1c-0.9,7.9-1.5,17.1-1.8,27.7
	c-0.4,10.5-0.6,21-0.7,31.3c-0.1,10.4-0.1,19.9-0.1,28.7c0,8.8,0,15.3,0,19.5c-0.4,11.9,0.3,20.5,2,25.7
	C389.1,226,391.7,228.6,395.2,228.6z M403.1,115.1c0.7-3,1.5-6.1,2.4-9.2c0.9-2.6,1.8-5.6,2.9-8.8c1.1-3.2,2.3-6.4,3.7-9.3
	c0.7-1.6,1.5-3.1,2.4-4.5c0.9-1.2,1.9-2.3,3-3.2c1.1-0.9,2.4-1.3,3.8-1.3c1.4,0,2.8,0.8,4.1,2.4c1.3,1.6,2.4,4.4,3.3,8.4
	c1.1,4.9,1.3,11.1,0.8,18.6c-0.5,7.5-1.7,14.7-3.6,21.7c-1.8,7-4.2,13.2-7,18.4c-2.8,5.3-6.1,8.2-9.7,8.7c-0.5,0.2-1.1,0.3-1.8,0.3
	c-0.5,0-1.1,0-1.8-0.1c-0.7-0.1-1.5-0.3-2.4-0.7C403.4,141.5,403.4,127.7,403.1,115.1z M463.9,183c0.9-6.1,1.3-11,1.3-14.5
	c0-3.5-2-5.4-6.1-5.8c-2.5-0.2-4.5,0.6-6.2,2.4c-1.7,1.8-2.9,3.8-3.8,6.1c-1.1,2.6-1.9,5.6-2.6,9c-0.4,1.6-0.7,3.9-1.1,6.8
	c-0.3,3-0.4,6.3-0.1,10c0.3,3.7,0.8,7.5,1.6,11.5c0.8,3.9,2.1,7.6,4,10.8c1.8,3.3,4.3,6,7.5,8.2s7,3.4,11.6,3.6
	c6.5,0.3,11.7-1.9,15.7-6.7s7-10.7,9.1-17.5c2.1-6.8,3.6-13.9,4.3-21.2c0.8-7.3,1.3-13.3,1.4-18c3.9-0.6,7.7-1.6,11.4-2.8
	c-0.3,2.1-0.6,4.4-0.9,6.8c-0.9,9.7-0.9,18.3,0,26.1c0.3,3.3,0.9,6.6,1.7,9.9c0.8,3.3,1.9,6.2,3.3,9c1.4,2.7,3.2,5,5.3,7
	c2.1,1.9,4.6,3.3,7.6,4c5.4,1.2,10.4,1.1,14.7-0.3c6-1.9,10.8-5.6,14.5-11.1c3.2-4.7,5.8-9.5,7.8-14.4c0.4,2.4,0.9,4.4,1.3,5.9
	c0.6,2,1.2,3.6,1.8,4.6c0.6,1.1,1.2,1.7,1.8,2c0.6,0.3,1.1,0.4,1.4,0.4c1.4,0.2,2.6,0,3.7-0.7c1.1-0.6,1.8-1.4,2.4-2.2
	c0.7-0.9,1.1-1.9,1.3-3.2c0.5-2.6,1.2-5.9,2-9.7c0.8-3.9,1.8-7.9,2.9-12.1c1.1-4.2,2.3-8.3,3.4-12.4c1.1-4,2.3-7.6,3.4-10.8
	c1.1-3.2,2.2-5.6,3.3-7.4c1.1-1.8,1.9-2.4,2.6-1.8c0.3,0.4,0.8,1,1.3,1.8c0.4,0.9,0.7,2,1.1,3.3c0.3,1.3,0.6,3.1,0.8,5.4
	c0.2,3.7-0.2,6.8-1.1,9.2c-0.9,2.5-2,4.5-3.4,6.1c-1.4,1.6-2.9,2.9-4.6,3.8c-1.7,1-3.2,1.9-4.6,2.8c-1.1,0.5-1.7,1.9-2,4.1
	c-0.3,2.2-0.3,4.9,0,8c0.3,3.2,0.9,6.7,1.8,10.5c1,3.9,2.2,7.7,3.8,11.6c0.9,2.6,2.3,4.9,4.2,6.8c1.6,1.8,3.6,3.2,6.2,4.5
	c2.5,1.2,5.7,1.5,9.3,0.8c3.7-0.7,6.9-3.1,9.6-7.2c2.7-4.1,5-8.6,7-13.6c0.5-1.3,1-2.5,1.4-3.8c1.1,4.1,2.6,7.3,4.5,9.4
	c2.4,2.7,5.6,4.2,9.6,4.3c4.2,0.2,7.8-1.1,10.8-4c3-2.8,5.5-6.1,7.6-10c0.5-0.8,0.9-1.7,1.3-2.5c0,0.1,0,0.3,0,0.4
	c0.3,7.6,0.8,12.6,1.3,15.3c0.3,1.9,1,3.3,1.8,4.2c0.9,0.9,1.8,1.5,2.6,1.8c0.9,0.4,1.8,0.4,2.9,0.3c1.9,0,3.4-2.1,4.5-6.3
	c0.5-1.6,1-3.4,1.3-5.5c0.3-2.1,0.7-4.4,1.1-6.8c0.2-1.8,0.4-3.4,0.5-5c0.2-1.6,0.3-2.6,0.5-3.2c2.5-14,4.9-25.1,7.2-33.2
	c2.4-8.1,4.8-12.3,7.2-12.6c1.6-0.2,2.9,0.9,3.8,3.2c1,2.3,1.5,6.5,1.7,12.6v4.7c0,1.4,0,2.9-0.1,4.6c-0.1,1.7,0,3.4,0.1,5.1
	c0.2,13,1.5,22.3,4,27.9c2.5,5.6,6.8,8.6,12.8,9c4.2,0.2,7.8-1.1,10.8-4c3-2.8,5.5-6.1,7.6-10c2.1-3.9,3.8-7.6,5-11.2
	c1.2-3.6,2-6.1,2.4-7.5c1.9-5.4,1.4-8.4-1.6-9c-0.5,0-1.1,0.5-1.7,1.4c-0.6,1-1.1,2.1-1.4,3.3c-0.5,1.4-1,3.1-1.3,5
	c-2.8,8.3-5.4,14.1-7.8,17.6c-2.4,3.5-4.4,5.5-6.2,6.1c-1.8,0.5-3.2,0.1-4.2-1.3c-1.1-1.4-1.6-2.8-1.6-4.2c-0.2-1.1-0.3-3.2-0.3-6.6
	c0-3.3,0.1-7.3,0.3-11.9c0-1.4,0-3.1,0-5c0-1.9,0.1-4,0.3-6.1c0.4-10-0.5-17.5-2.5-22.5c-2-5-4.4-8.6-7-10.7
	c-3.2-2.3-6.8-3.3-10.9-3.2c-3.7,0.2-6.9,2.6-9.5,7.4c-2.7,4.7-5,10.4-6.9,17.1v-22.6c0.3-6.5-0.2-11-1.7-13.6
	c-1.5-2.5-4-3.8-7.5-3.8c-1.4,0-2.5,0.5-3.3,1.6c-0.8,1.1-1.4,2.2-2,3.4c-0.7,1.4-1.1,3-1.3,4.7c-0.7,4.2-1.2,10.5-1.4,18.8
	c-0.3,8.3-0.3,16.9-0.3,25.8c0,3.5,0.1,6.9,0.2,10.2c-2.6,7.5-5,12.9-7.3,16.2c-2.4,3.5-4.4,5.5-6.2,6.1c-1.8,0.5-3.2,0.1-4.2-1.3
	c-1.1-1.4-1.6-2.8-1.6-4.2c-0.2-1.1-0.3-3.3-0.3-6.7s0.1-7.5,0.3-12.1c0.2-4.6,0.3-9.6,0.4-14.7c0.1-5.2,0.2-10.1,0.4-14.9
	c0.2-7.7-0.7-13.2-2.6-16.5c-1.9-3.2-3.6-5.3-5-6.2c-0.4-0.3-0.7-0.5-0.9-0.5c-0.3,0-0.6-0.1-0.9-0.3c-0.4,0-0.7-0.1-1.1-0.3
	c-1.8-0.2-3,0.4-3.8,1.7c-0.8,1.3-1.4,2.8-1.7,4.3c-0.5,1.9-0.8,4-0.8,6.3c-0.5,13.5-0.7,24.9-0.7,34.1c0,4.4,0.2,8.4,0.5,12
	c-1.3,4.7-2.6,8.8-3.8,12.2c-1.6,4.5-3.1,8-4.5,10.7c-0.4,0.7-0.9,1.4-1.6,2.1c-0.5,0.5-1.1,1-1.7,1.4c-0.6,0.4-1.3,0.7-2,0.7
	c-1.2,0-2.6-0.4-4.1-1.2c-1.5-0.8-3.2-2.9-5.1-6.2c-1.9-3-3.5-5.9-4.7-8.8c-1.2-2.9-2.3-5.6-3.2-8c-0.9-2.8-1.7-5.5-2.4-8.2
	c3.2-0.4,5.9-1,8.2-1.8c2.3-0.9,4.3-1.9,6.1-3.2c2.5-1.8,4.4-3.7,5.8-5.8c1.4-2.1,2.4-4.3,2.9-6.6c0.5-2.3,0.7-4.5,0.7-6.6
	c-0.1-2.1-0.3-4-0.7-5.8c-0.9-4.7-2.3-8.3-4.2-10.8c-1.9-2.5-3.9-4.1-5.8-5c-2.3-1.1-4.7-1.5-7.1-1.3c-2.3,0.2-4,0.8-5.3,1.8
	c-0.7,0.5-1.3,1.1-1.8,1.8c-2.3,2.5-4.3,6-6.2,10.5c-1.8,4.6-3.5,9.5-4.9,14.7c0.2-7.4,0.4-14.9,0.5-22.6c0.2-7.7,0.3-15.1,0.3-22.1
	c0-7,0-13.3,0-18.7c0-5.4,0-9.6,0-12.4c0.4-10-0.3-17.2-2-21.7c-1.7-4.5-4.3-6.7-7.8-6.7c-1.4,0-2.5,0.9-3.3,2.6
	c-0.8,1.8-1.4,3.7-1.7,5.8c-0.5,2.5-0.9,5.2-1.1,8.2c-0.5,4.4-0.9,9.9-1.2,16.6c-0.3,6.7-0.5,13.8-0.7,21.3
	c-0.2,7.6-0.3,15.3-0.3,23.3c0,8,0.1,15.5,0.3,22.6c0.2,6.7,0.4,12.7,0.6,18c-0.4,1.3-0.8,2.8-1.1,4.5c-0.4,1.2-0.7,2.4-1.1,3.4
	c-0.4,0.9-0.7,1.8-0.9,2.8c-0.3,1-0.6,1.9-0.9,2.8c-1.1,2.3-2.2,4.7-3.6,7.1c-1.3,2.5-2.9,4.7-4.7,6.8c-1.8,2.1-3.9,3.8-6.1,5
	c-2.2,1.2-4.7,1.8-7.5,1.6c-3-0.3-5.1-2.5-6.5-6.3c-1.3-3.9-2.2-8.1-2.8-12.6c-0.7-5.4-0.9-11.6-0.5-18.4c0-9.5,0.6-17.2,1.8-23
	c1.2-5.9,2.5-10.3,4-13.3c1.4-3,2.7-4.7,4-5.3c1.2-0.5,1.9-0.3,2.1,0.5c0.2,1.8-0.3,3.4-1.4,4.9c-1.1,1.5-2.1,2.9-2.8,4.3
	c-0.4,1.1,0,1.9,1.1,2.6c0.5,0.4,1.1,0.5,1.8,0.5c1.4,0.2,2.6-0.2,3.6-1.1c1-0.9,1.7-1.9,2.2-3.2c0.7-1.4,1.1-3,1.3-4.7
	c0.3-2.6,0.2-4.6-0.4-5.9c-0.6-1.3-1.4-2.5-2.5-3.6c-0.9-0.7-1.7-1.2-2.5-1.4c-0.8-0.3-1.6-0.5-2.5-0.7c-0.9-0.2-1.8-0.2-2.6,0
	c-4,0.7-7.7,2.5-11.1,5.5c-3,2.5-5.8,6.2-8.6,11.3c-1.1,2-2,4.4-2.8,7.1c-0.2,0-0.4,0.1-0.6,0.1c-4,0.8-8,1.4-12.2,1.7
	c0-1.6-0.3-4.7-0.8-9.3c-0.5-4.6-1.7-9.5-3.4-14.5c-1.8-5-4.4-9.6-7.9-13.7c-3.5-4.1-8.3-6.5-14.5-7c-7.7-0.7-13.7,0.6-17.9,3.8
	c-4.2,3.3-7,7.3-8.3,12.2c-1.3,4.9-1.3,10,0,15.3c1.3,5.3,3.7,9.4,7.2,12.4c3.5,3,8,5.4,13.6,7.2c5.5,1.8,11.5,2.9,18,3.3
	c-0.4,8.4-1,16.1-1.8,22.9c-0.9,6.8-2,12.6-3.3,17.4c-1.3,4.7-2.9,8.3-4.9,10.8c-1.9,2.5-4,3.6-6.3,3.4c-1.9-0.2-3.5-1.7-4.6-4.6
	c-1.1-2.9-1.9-6.5-2.4-10.7c-0.4-4.2-0.6-8.6-0.5-13C463.1,190.3,463.4,186.4,463.9,183z M475.9,157.2c-3.4-0.7-6.1-1.6-8-2.6
	c-4-2.1-6.9-5.3-8.7-9.6c-1.8-4.3-2.5-8.5-2.1-12.5c0.4-4,1.8-7.4,4.5-10s6.5-3.3,11.6-2.1c3.7,0.9,6.5,3.1,8.4,6.7
	c1.9,3.6,3.3,7.6,4.1,11.9c0.8,4.3,1.2,8.4,1.3,12.2c0.1,3.9,0.1,6.4,0.1,7.6C483.1,158.5,479.3,157.9,475.9,157.2z M630.6,118.9
	c-0.2-2,0-3.8,0.4-5.4c0.4-1.6,1.4-2.8,3-3.7c1.6-0.9,2.9-0.5,4.1,1.1c1.1,1.6,1.9,3.7,2.4,6.3c0.4,2.6,0.6,5.4,0.5,8.2
	c-0.1,2.8-0.5,5-1.2,6.6c-0.5,1.6-1.4,2.2-2.6,1.8c-0.2,0-0.4-0.1-0.8-0.3c-0.4-0.2-1-1-1.8-2.4c-0.2-0.2-0.4-0.6-0.8-1.3
	c-0.5-1.4-1.1-3.1-1.8-5C631.2,122.9,630.8,120.9,630.6,118.9z M187,402.2c-1.4,3.2-2.7,5.9-3.9,8.2c-2,4.6-4,8.7-5.9,12.1
	c-1.9,3.5-3.7,6.8-5.4,10c-1.2,2-2.5,4-3.9,6.1c-1.4,1.7-3,3.7-4.5,5.9c-1.6,2.2-3.4,4.3-5.4,6.3c-0.6,0.9-1.2,1.5-1.7,2
	c-0.6,0.4-1,1.1-1.3,1.9v0.9c0.6,0.6,1,0.9,1.3,0.9c0.9,1.2,2.5,1.4,4.8,0.9c2.3,0,4.5-0.6,6.5-1.7c4.6-2.9,8.7-6.5,12.1-10.8
	c1.7-2.3,3.5-4.6,5.2-6.9c3.5-5.2,6.8-10.9,10-17.1c3.2-6.2,5.9-12.1,8.2-17.6c2.9-6.4,5.3-12.9,7.4-19.5c1.4,0,3,0,4.5,0
	c1.6,0,3.1,0.1,4.6,0.4c3.2,0.3,7.6,0.9,13.2,1.7s10.5,2.9,14.5,6.1c0,2.3,0,4.4,0,6.3c0,1.9-0.1,3.5-0.4,5
	c-0.6,18.8-0.1,32.4,1.5,40.9c1.6,8.5,6,12.8,13.2,12.8c2.3,0,4.3-1.5,5.9-4.6c1.6-3,2.8-6.6,3.7-10.6c1.2-4.6,1.9-9.8,2.2-15.6
	c1.2-9.8,2-22.6,2.6-38.3c0.6-15.7,1-32.4,1.3-49.8c0.3-17.5,0.3-34.9,0-52.2c-0.3-17.3-0.7-32.6-1.3-45.9c-0.3-6.4-0.6-11.7-0.9-16
	c-0.3-4.3-0.6-7.8-0.9-10.4c-0.3-3.2-0.6-5.6-0.9-7.4c-1.7-6.6-4.4-10.6-8-11.9c-3.6-1.3-7-1.7-10.2-1.1h0.4c-2,0.3-3.5,1.2-4.3,2.6
	c-1.2,2.6-2.2,5.7-3.3,9.3c-1,3.6-2.2,7.6-3.7,11.9c-2.9,9.2-5.9,19.9-9.1,31.8c-3.2,12-6.6,24.5-10.4,37.5c-3.8,13-7.5,26-11.3,39
	c-3.8,13-7.5,25.1-11.3,36.4c-0.6,2-1.2,4-1.9,5.9c-0.7,1.9-1.4,3.7-2,5.4c-6.6,0.6-12.3,1.4-16.9,2.4c-4.6,1-8.4,2.1-11.3,3.3
	c-3.2,1.2-5.9,2.6-8.2,4.3c-2.9,2-5.2,4.3-6.9,6.9c-1.4,2.3-2.5,5.1-3.3,8.5c-0.7,3.3-0.1,7,2,11c0.3,0.9,0.9,2.1,1.9,3.7
	c1,1.6,2.3,3,3.9,4.3c1.6,1.3,3.3,2.1,5.2,2.4c1.9,0.3,4.1-0.3,6.7-1.7c2.6-1.7,3.4-3.3,2.4-4.5c-1-1.3-2.6-2.7-4.8-4.1
	c-2.2-1.4-4.2-3.1-6.1-5c-1.9-1.9-2.4-4.1-1.5-6.7c0.6-1.7,1.8-3.2,3.7-4.5c1.9-1.3,4-2.4,6.3-3.3c2.6-1.2,5.3-2,8.2-2.6
	c1.2-0.3,2.5-0.6,3.9-0.9c1.4-0.3,3-0.5,4.6-0.7c1.6-0.1,3.5-0.5,5.8-1.1c-0.9,2.6-1.7,4.8-2.6,6.5C189.9,395.3,188.5,399,187,402.2
	z M223,347.6c2.6-8.4,5.2-16.8,7.8-25.1c4.3-15.6,8.3-30.6,11.9-45.1c3.6-14.4,6.6-27,8.9-37.7c-0.6,10.7-1.1,22.1-1.5,34.2
	c-0.4,12.1-0.8,24.3-1.1,36.4c-0.3,12.1-0.6,23.8-0.9,35.1c-0.3,11.3-0.4,21.4-0.4,30.3c-4.3-0.9-9-1.6-13.9-2.2
	c-2.9-0.3-5.6-0.6-8.2-0.9c-2,0-3.9-0.1-5.6-0.2c-1.7-0.1-3.5-0.2-5.2-0.2C217.7,364.2,220.4,356,223,347.6z M880.8,379.2
	c-0.9,0-1.8,0.8-2.8,2.4c-1,1.6-1.8,3.4-2.4,5.4c-0.9,2.3-1.6,5.1-2.2,8.2c-4.3,16.5-8.4,28.9-12.1,37.3c-3.8,8.4-7.1,14.1-10,17.1
	c-2.9,3-5.3,4-7.2,3c-1.9-1-3-2.7-3.3-5c-0.3-1.7-0.5-5.3-0.7-10.6c-0.1-5.3-0.1-11.5,0-18.4c0.1-6.9,0.3-14.3,0.4-22.1
	c0.1-7.8,0.2-15,0.2-21.7c0.6-11.6,0.9-23.8,1.1-36.8c0.1-13,0.2-25.3,0.2-37c0-11.7,0-22.2,0-31.6c0-9.4,0.1-16.5,0.4-21.4
	c0.3-8.1,0.4-14.9,0.4-20.4c0-5.5-0.4-10-1.3-13.4c-0.9-3.5-2.4-6.1-4.6-8c-2.2-1.9-5.2-3.3-9-4.1c-2.6-0.6-4.7,0.5-6.2,3.3
	c-1.5,2.7-2.6,5.9-3.5,9.3c-1.2,4-1.9,8.7-2.2,13.9c-1.2,9.5-1.9,21.6-2.4,36.2c-0.4,14.6-0.7,29.8-0.7,45.7
	c-2.6-4.3-5.6-7.7-8.9-10c-3.3-2.3-6.6-3.9-9.8-4.8c-3.5-1.2-7.1-1.6-10.8-1.3c-6.1,0.3-11.3,1.6-15.8,3.9
	c-4.5,2.3-8.3,5.3-11.5,8.9c-3.2,3.6-5.9,7.7-8.2,12.1c-2.3,4.5-4,9-5.2,13.6c-3.2,11-4.8,23.4-4.8,37.3c0,5.8,0.7,12.8,2,21
	c0.1,0.6,0.2,1.1,0.3,1.7c-0.2,0.8-0.3,1.6-0.5,2.5c-4.6,13.6-8.9,23.3-12.8,29c-3.9,5.8-7.3,9.1-10.2,10c-2.9,0.9-5.2,0.1-6.9-2.2
	c-1.7-2.3-2.6-4.6-2.6-6.9c-0.3-1.7-0.4-5.3-0.4-10.8c0-5.5,0.1-12,0.4-19.5c0-2.3,0-5.1,0-8.2c0-3.2,0.1-6.5,0.4-10
	c0.6-16.5-0.8-28.8-4.2-37c-3.3-8.2-7.2-14.1-11.6-17.6c-5.2-3.8-11.2-5.5-17.9-5.2c-6.1,0.3-11.4,4.3-15.7,12.1
	c-4.4,7.8-8.2,17.2-11.3,28.2v-37.3c0.6-10.7-0.4-18.1-2.8-22.3c-2.5-4.2-6.6-6.3-12.3-6.3c-2.3,0-4.1,0.9-5.4,2.6
	c-1.3,1.7-2.4,3.6-3.3,5.6c-1.2,2.3-1.9,4.9-2.2,7.8c-1.2,6.9-1.9,17.3-2.4,31c-0.4,13.7-0.6,27.9-0.4,42.5
	c0.1,8.6,0.2,16.8,0.5,24.6c-3.3,11.5-6.4,20.6-9.4,27.2c-3.8,8.4-7.1,14.1-10,17.1c-2.9,3-5.3,4-7.1,3c-1.9-1-3-2.7-3.3-5
	c-0.3-1.7-0.4-7.7-0.4-17.8c0-10.1,0.1-21.5,0.2-34.2c0.1-12.7,0.4-25.6,0.6-38.6c0.3-13,0.6-23.4,0.9-31.2
	c0.3-12.1-1-20.9-3.9-26.2c-2.9-5.3-5.7-8.9-8.3-10.6c-0.3-0.3-1.2-0.9-2.6-1.7c-1.5-0.9-3.3-0.9-5.5-0.2c-2.2,0.7-4.5,2.7-7,6.1
	c-2.5,3.3-4.6,9-6.3,17.1c-1.2,5.2-2.7,11.6-4.6,19.3c-1.9,7.7-4,15.7-6.3,24.3c-2.3,8.5-4.7,17.1-7.2,25.8
	c-2.5,8.7-4.8,16.4-7,23.2c-2.2,6.8-4.2,12.3-6.1,16.7c-1.9,4.3-3.4,6.4-4.6,6.1c-0.9,0-1.3-1-1.3-3c0.3-8.1,0.4-16.3,0.4-24.5
	c0-8.2,0-15.9,0-23c0-7.1,0-13.4,0-18.8c0-5.5,0-9.5,0-12.1c0.1-2.2,0.2-4.3,0.2-6.2c0.1-0.4,0.1-0.8,0-1.1
	c-0.1-6.6-1.1-11.5-2.9-14.7c-2.4-4.3-6.5-6.5-12.1-6.5c-2.3,0-4,0.9-5.1,2.6c-1.1,1.7-2.1,3.6-3,5.6c-1.1,2.6-1.8,5.3-2.1,8.2
	c-0.5,2.6-1,5.7-1.4,9.3c-5.7,1.1-11.6,1.9-17.6,2.4c0-2.6-0.4-7.7-1.3-15.4c-0.9-7.7-2.7-15.6-5.6-23.8c-2.9-8.2-7.2-15.7-13-22.5
	c-5.8-6.8-13.7-10.6-23.8-11.5c-12.7-1.2-22.5,0.9-29.5,6.3c-6.9,5.3-11.5,12.1-13.6,20.1c-2.2,8.1-2.2,16.5,0,25.1
	c2.2,8.7,6.1,15.5,11.9,20.4c5.8,4.9,13.2,8.9,22.3,11.9c9.1,3,19,4.8,29.7,5.4c-0.6,13.9-1.6,26.4-3,37.7
	c-1.4,11.3-3.3,20.8-5.4,28.6c-2.2,7.8-4.8,13.7-8,17.8c-3.2,4-6.6,5.9-10.4,5.6c-3.2-0.3-5.7-2.8-7.6-7.6
	c-1.9-4.8-3.2-10.6-3.9-17.5c-0.7-6.9-1-14.1-0.9-21.4c0.1-7.4,0.6-13.8,1.5-19.3c1.4-10.1,2.2-18.1,2.2-23.8c0-5.8-3.3-9-10-9.5
	c-4-0.3-7.4,1-10.2,3.9c-2.7,2.9-4.8,6.2-6.3,10c-1.7,4.3-3.2,9.2-4.3,14.7c-0.6,2.6-1.2,6.4-1.7,11.3c-0.2,1.6-0.3,3.3-0.4,5
	c0,0.1,0,0.1,0,0.2c-4.3,16.5-8.2,28.8-11.7,37c-3.5,8.2-6.6,13.9-9.3,16.9c-2.7,3-5.1,4-6.9,3c-1.9-1-3.3-2.5-4.1-4.5
	c-1.4-3.5-2.5-10.3-3-20.4c-0.6-10.1-0.7-21.7-0.4-34.7c0.3-13,0.9-26.4,2-40.1c1-13.7,2.4-25.8,4.1-36.2c1.4-8.4,1.6-15.2,0.4-20.4
	c-1.2-5.2-2.6-9.4-4.3-12.6c-2.6-3.2-5.9-5.3-10-6.5c-2.3-0.6-3.9-0.9-4.8-0.9c-7.2-0.3-13.2-1.1-18-2.4c-4.8-1.3-8.4-2.7-11-4.1
	c-2-2.6-4-4.2-6.1-4.8c-1.2-0.3-2.3-0.4-3.5-0.4c-0.9,0-1.9,0.2-3,0.6c-1.2,0.4-2,1.4-2.6,2.8c-0.3,0.9-0.4,2-0.4,3.5
	c0,1.4,0.3,3.1,0.9,5c0.6,1.9,1.9,4.1,3.9,6.7c0.9,1.4,1.7,4.8,2.6,10c0.9,5.2,1.4,12,1.5,20.4c0.1,8.4-0.2,18.3-1.1,29.7
	c-0.9,11.4-2.7,24-5.6,37.9c-0.9,3.2-1.4,6.1-1.7,8.7c-0.6,2.3-0.8,4.3-0.6,6.1c0.1,1.7,0.6,2.7,1.5,3c4.3,1.2,7.4-2.9,9.1-12.1
	c0.3-1.7,1.2-6.3,2.6-13.6c1.4-7.4,2.9-16,4.3-25.8c1.4-9.8,2.5-20.1,3.3-31c0.7-10.8,0.6-20.4-0.2-28.8c2.9,0.6,6,0.8,9.3,0.6
	c3.3-0.1,6.4-0.4,9.3-0.6c-0.6,1.2-0.9,2.2-0.9,3.3c0,1-0.1,1.8-0.4,2.4c-0.3,1.2-0.4,2-0.4,2.6c-7.2,53.4-9,94.8-5.2,123.9
	c3.8,29.2,13.3,44.2,28.6,45.1c6.6,0.3,12.5-2.8,17.5-9.3c5.1-6.5,9.3-13.9,12.8-22.1c1.5-3.6,2.8-7.1,4-10.5
	c0.2,0.9,0.3,1.8,0.5,2.7c1.3,6.5,3.5,12.4,6.5,17.8c3,5.3,7.1,9.8,12.4,13.4c5.2,3.6,11.6,5.6,19.1,5.9
	c10.7,0.6,19.3-3.1,25.8-11.1c6.5-7.9,11.5-17.5,14.9-28.8s5.9-22.9,7.1-34.9c1.3-12,2.1-21.9,2.4-29.7c5.8-0.9,11.5-2.3,17.1-4.1
	c-0.2,2.9-0.3,6-0.4,9.3c-0.4,13.9-0.5,28.2-0.2,42.9c-0.3,2.6-0.3,5.3,0,8.2c0.3,2.3,0.6,4.8,0.9,7.6c0.3,2.7,0.9,5.3,1.7,7.6
	c2.3,7.5,4.9,12.6,7.9,15.4c3,2.7,6,4.4,9.2,5c3.4,0.9,7,0.4,10.7-1.3c4.4-2,8.5-6.9,12.3-14.7c3.8-7.8,7.3-17,10.5-27.5
	c3.2-10.5,6.1-21.7,8.8-33.6c2.6-11.8,5.1-22.8,7.5-32.9c-1.2,42.5,0.2,73.7,4.1,93.8c3.9,20.1,11.8,30.4,23.6,31
	c4.6,0.3,8.8-1,12.6-3.9c3.8-2.9,7.1-6.7,10-11.5c2.9-4.8,5.5-10,7.8-15.8c0.2-0.5,0.4-1,0.6-1.5c0.5,6.7,1,11.6,1.6,14.5
	c0.6,3.2,1.6,5.5,3,6.9c1.4,1.4,2.9,2.5,4.3,3c1.4,0.6,3,0.7,4.8,0.4c3.2,0,5.6-3.5,7.4-10.4c0.9-2.6,1.6-5.6,2.2-9.1
	c0.6-3.5,1.2-7.2,1.7-11.3c0.3-2.9,0.6-5.6,0.9-8.2c0.3-2.6,0.6-4.3,0.9-5.2c4-23.1,8-41.3,11.9-54.6c3.9-13.3,7.9-20.2,11.9-20.8
	c2.6-0.3,4.7,1.4,6.3,5.2c1.6,3.8,2.5,10.7,2.8,20.8v7.8c0,2.3-0.1,4.8-0.2,7.6c-0.1,2.7-0.1,5.6,0.2,8.4
	c0.3,21.4,2.5,36.7,6.6,45.9c4.1,9.2,11.2,14.2,21.1,14.7c6.9,0.3,12.9-1.9,17.8-6.5c4.9-4.6,9.1-10.1,12.6-16.5
	c2.8-5.2,5.2-10.2,7-15.1c0.6,1.8,1.3,3.6,2.1,5.4c3.2,7.7,7.6,14.2,13.2,19.7c5.6,5.5,12.6,8.4,21,8.7c10.1,0.3,17.5-1.7,22.1-6.1
	c4.6-4.3,8.1-9.8,10.4-16.5c0.9,9.5,2.3,17.1,4.2,22.8s4,10,6.4,13c2.3,3,4.9,5.1,7.7,6.1c2.8,1,5.8,1.7,9,2
	c6.6,0.9,12.5-2,17.5-8.5c5.1-6.5,9.3-13.9,12.8-22.3c3.5-8.4,6.2-16.5,8.2-24.5c2-7.9,3.3-13.1,3.9-15.4
	C886,385,885.1,380.1,880.8,379.2z M435.1,341.1c-5.6-1.2-10-2.6-13.2-4.3c-6.6-3.5-11.4-8.7-14.3-15.8c-2.9-7.1-4-13.9-3.5-20.6
	c0.6-6.6,3-12.1,7.4-16.5s10.7-5.5,19.1-3.5c6.1,1.4,10.7,5.1,13.9,11c3.2,5.9,5.4,12.4,6.7,19.5c1.3,7.1,2,13.8,2.2,20.1
	c0.1,6.4,0.2,10.5,0.2,12.6C446.9,343.1,440.8,342.3,435.1,341.1z M813.2,378.8c-0.3,4.9-0.7,9.8-1.3,14.7c-0.3,2.6-0.7,5.2-1.3,7.8
	c-0.6,2.3-1.3,4.8-2.2,7.4c-0.9,2.6-1.9,5.1-3.1,7.4c-2.6,5.2-5.9,9.5-9.9,12.8c-3.9,3.3-8.4,4.3-13.4,2.8c-2.9-0.9-5.6-3.8-7.9-8.7
	c-2-4-3.7-10.3-5-18.6c-1.3-8.4-1.5-20.1-0.7-35.1c1.2-25.1,4.2-42.7,9.2-52.6c5-10,11.1-13.4,18.4-10.2c3.2,1.7,5.9,4.8,8.1,9.3
	c2.2,4.5,3.9,9.2,5,14.3c1.2,5.1,2,9.8,2.6,14.3c0.6,4.5,0.9,7.3,0.9,8.4c0.6,3.8,0.9,7.9,0.9,12.6
	C813.6,369.4,813.5,373.9,813.2,378.8z M465.2,490.9c-1.6-3-4.2-4.3-7.8-4c-1.4,0.2-2.6,1-3.4,2.3c-0.8,1.4-1.4,2.8-1.7,4.2
	c-0.5,2-0.9,4.1-1.1,6.3c-0.4,3.3-0.6,6.6-0.8,10.1H424c-2.7-0.2-5.2-0.7-7.4-1.5s-4.1-1.5-5.9-2c-1.7-0.5-3.2-0.8-4.5-0.7
	c-1.3,0.1-2.3,1-3,2.6c-1.1,2.2-1.1,3.7-0.1,4.5c1,0.8,2.1,1.4,3.4,1.8c0.4,0.2,0.9,0.3,1.6,0.3h3.3c6.6,0,13.1,0,19.5,0
	c6.5,0,12.9-0.1,19.2-0.3c-0.4,6-0.5,12.6-0.5,19.8c0,7.2,0,15.1,0,23.6l-0.3,27.6c-0.4,14-0.2,25.3,0.4,33.8
	c0.6,8.6,1.6,15.2,3,20.1c1.3,4.8,3.1,8.1,5.4,10c2.2,1.8,4.8,2.8,7.7,3c4.2,0.2,7.9-2,11.2-6.7c3.3-4.6,6.1-9.9,8.5-15.8
	c1.9-4.7,3.4-9.2,4.6-13.6c0.3,1.9,0.7,3.5,1.2,4.9c0.7,2.1,1.4,3.7,2,4.8c0.6,1.1,1.3,1.8,1.9,2c0.6,0.3,1.1,0.4,1.5,0.4
	c1.5,0.2,2.7,0,3.8-0.7c1.1-0.6,1.9-1.4,2.5-2.3c0.7-0.9,1.2-2,1.4-3.3c0.5-2.7,1.2-6.1,2-10.1c0.8-4,1.8-8.2,3-12.6
	c1.2-4.4,2.4-8.6,3.5-12.8c1.2-4.2,2.4-7.9,3.5-11.2c1.2-3.3,2.3-5.8,3.4-7.6c1.1-1.8,2-2.5,2.7-1.9c0.9,0.7,1.6,2.2,2.2,4.5
	c0.5,2.3,1,4.9,1.2,7.8c0.3,2.9,0.5,5.8,0.5,8.7c0.1,2.9,0.1,5.3,0.1,7.1v18c0.2,8.2,0.7,14.9,1.6,20.1s2.1,9.3,3.5,12.3
	c1.4,3,3.1,5,5,6.1s4,1.7,6.3,1.9c4.4,0.2,8.2-2,11.5-6.7c3.3-4.6,6-9.9,8.3-15.8c1.5-4,2.9-7.9,4-11.7c0.2,1,0.4,2,0.7,3
	c0.8,3.4,2,6.5,3.4,9.3c1.5,2.8,3.3,5.2,5.5,7.2c2.2,2,4.8,3.4,7.9,4.1c5.5,1.3,10.6,1.2,15.3-0.3c6.2-2,11.2-5.8,15-11.5
	c3.8-5.6,6.7-11.5,8.7-17.5c0.4-0.7,0.7-1.7,1-2.9c0.3-1.2,0.6-2.3,1-3.4c0.4-1.3,0.7-2.5,1.1-3.8c1.5-5.6,0.9-8.7-1.6-9.3
	c-0.5,0-1.1,0.5-1.8,1.5c-0.6,1-1.1,2.1-1.5,3.4c-0.7,1.5-1.3,3.2-1.6,5.2c-0.4,1.3-0.7,2.5-1.1,3.5c-0.4,0.9-0.7,1.9-1,2.9
	c-0.3,1-0.6,2-1,2.9c-0.9,2.4-2.1,4.8-3.5,7.4c-1.5,2.6-3.1,4.9-4.9,7.1c-1.8,2.2-3.9,3.9-6.3,5.2c-2.4,1.3-5,1.8-7.9,1.6
	c-2.7-0.4-4.8-2.2-6.1-5.6c-1.4-3.4-2.3-7.2-2.9-11.6c2.4-0.7,4.6-2.7,6.7-5.9c2.1-3.2,3.8-6.9,5.2-11.2c1.4-4.3,2.4-8.9,3.1-13.8
	c0.7-4.9,0.9-9.6,0.4-14.1c-0.5-4.5-1.5-8.4-3-11.9c-1.5-3.5-3.9-5.8-7-7.1c-4.9-2-9-1.5-12.3,1.5s-5.8,6.7-7.6,11.1
	c-2.2,5.1-3.8,11.3-4.9,18.6c-0.6,6.1-0.8,11.9-0.6,17.3c-0.2,0.7-0.3,1.4-0.4,2.1c-2.7,10.4-5.3,18.3-7.6,23.9
	c-2.4,5.6-4.5,9.5-6.4,11.9c-1.9,2.4-3.5,3.4-4.6,3.1c-1.2-0.3-1.9-1.1-2-2.6c-0.2-0.7-0.3-2.3-0.3-4.8s0-5.4,0-8.9
	c0-3.5,0-7.2,0.1-11.2c0.1-4,0.1-8,0.1-12c0-1.5,0-2.9,0.1-4.2c0.1-1.4,0.1-2.7,0.1-4c0-7.6-0.4-14-1.2-19.1
	c-0.8-5.1-2-9.1-3.5-12.1s-3.4-5.1-5.5-6.4c-2.1-1.3-4.5-2-7-2.2c-0.9-0.2-1.8-0.2-2.6-0.1c-0.8,0.1-1.7,0.1-2.6,0.1
	c-1.6,0.2-3.3,1.1-4.9,2.9c-1.6,1.7-3.1,4-4.5,6.7c-1.4,2.7-2.6,5.8-3.8,9.1c-1.2,3.4-2.3,6.9-3.4,10.5c0.4-7.6,0.6-15.5,0.7-23.5
	c0.1-8,0.2-15.6,0.3-22.9c0.1-7.3,0.1-13.7,0.1-19.4c0-1.3,0-2.5,0-3.6c3.8,0.1,7.6,0.2,11.5,0.4c5.8,0.2,11.6,0.2,17.5,0
	c0.7,0,2.1,0.1,4.1,0.3c2,0.2,4.1,0.4,6.3,0.5c2.2,0.2,4.2,0.5,6.1,1c1.9,0.5,3.3,1,4.2,1.5c0.9,0.7,1.8,0.5,2.6-0.5
	c0.8-1.1,1.3-2.3,1.5-3.7c0.2-1.4-0.2-2.6-1.2-3.8c-1-1.2-3-1.6-5.9-1.2c-8.7,1.1-17.5,1.5-26.3,1.2c-6.8-0.2-13.6-0.4-20.3-0.5
	c0-1.6,0-3.1,0-4.2c0.4-10.4-0.3-17.9-2-22.5c-1.7-4.6-4.4-7-8.1-7c-1.5,0-2.6,0.9-3.4,2.7c-0.8,1.8-1.4,3.8-1.8,6
	c-0.5,2.6-0.9,5.4-1.1,8.5c-0.5,4.4-0.9,9.8-1.2,16.4c-1.6,0-3.2,0-4.8,0c-5.5,0-10.9,0.1-16.4,0.3
	C467.6,500.2,466.9,493.9,465.2,490.9z M583.9,599.2c0-1.5,0.1-2.8,0.3-4.1c0.5-8.2,1.1-14.4,1.8-18.7c0.6-4.3,1.3-7.4,2-9.4
	c0.7-2.2,1.5-3.3,2.2-3.3c0.9,0.7,1.5,2.1,1.9,4.1c0.4,2,0.6,4,0.8,6c0.2,2.4,0.3,5,0.3,7.9c-0.4,8.6-1.5,14.9-3.4,19
	c-1.9,4.1-3.8,6.9-5.6,8.3c-0.2-2-0.3-3.8-0.3-5.5S583.9,600.4,583.9,599.2z M483.8,514.3c1.5,0,3.1,0,4.6,0
	c-0.2,5.7-0.4,11.7-0.5,18c-0.2,7.8-0.3,15.9-0.3,24.2c0,8.3,0.1,16.1,0.3,23.5c0.2,7,0.4,13.2,0.6,18.7c-0.5,1.3-1,2.9-1.5,4.7
	c-2.7,10.4-5.3,18.3-7.6,23.9c-2.4,5.6-4.5,9.5-6.3,11.9c-1.8,2.4-3.3,3.4-4.5,3.1c-1.2-0.3-1.9-1.1-2-2.6c-0.2-0.9-0.3-2.7-0.4-5.5
	c-0.1-2.7-0.1-6-0.1-9.7c0-3.7,0-7.8,0.1-12.1c0.1-4.4,0.2-8.6,0.3-12.8c0.1-4.2,0.2-8,0.3-11.5c0.1-3.5,0.1-6.3,0.1-8.5
	c0.5-13.6,0.7-26.3,0.5-38.1c-0.2-11.7-0.2-20.7,0-26.9C472.9,514.4,478.3,514.3,483.8,514.3z M437.4,765.5c1.4,2,2.4,4.6,2.9,7.8
	c0.5,3.3,0.8,6.6,0.7,10.1c-0.1,3.5-0.6,6.2-1.5,8.2c-0.7,2-1.7,2.7-3.3,2.3c-0.2,0-0.5-0.1-1-0.3c-0.4-0.2-1.2-1.2-2.3-2.9
	c-0.2-0.2-0.5-0.8-1-1.6c-0.7-1.7-1.4-3.8-2.3-6.2c-0.9-2.4-1.4-4.8-1.6-7.3c-0.2-2.5-0.1-4.7,0.5-6.7c0.5-2,1.8-3.5,3.8-4.6
	C434.3,763.1,436,763.6,437.4,765.5z M878.4,859.5c-6.7,1.1-13.3,2.8-19.6,5.2c-6.3,2.4-12.4,5.2-18.3,8.5c-1.3-2.4-2.6-4.9-3.9-7.5
	c-1.3-2.6-2.8-5.3-4.6-8.2c-2.2-3.7-4-7.5-5.5-11.4c-1.5-3.5-2.8-7.2-3.9-11.3c-1.1-4-1.6-8.1-1.6-12.2c0-9.1,1-16.5,2.9-22
	c2-5.5,5.1-8.4,9.5-8.6c0.4,0,1,0.1,1.6,0.3c0.9,0.4,2,1.2,3.3,2.3c0.9,1.1,1.7,2.6,2.6,4.4c0.9,1.9,1.5,4.4,2,7.7
	c0,2.2,0.2,4.2,0.7,6.2c0.4,1.7,0.9,3.3,1.5,4.7c0.5,1.4,1.4,2.2,2.4,2.4c1.7,0.2,3-0.1,3.9-1c0.2-0.4,0.3-0.9,0.3-1.5
	c0-0.5,0.1-1,0.3-1.5c0-0.7,0.1-1.3,0.3-2c0.2-3.3-0.2-6.5-1.3-9.8c-1.1-3.3-2.6-6.3-4.6-9c-2-2.7-4.4-4.9-7.3-6.5
	c-2.9-1.6-6.1-2.3-9.6-2.1c-3,0.2-5.8,1.1-8.2,2.8c-2.4,1.6-4.5,3.6-6.4,6c-1.9,2.4-3.3,5.1-4.4,8c-1.1,2.9-2,5.8-2.6,8.6
	c-0.7,2.4-1.1,5.7-1.3,9.8c-0.2,4.1,0.1,9.2,1,15.2c0.7,4.6,1.9,9.7,3.6,15.2c-0.3,0.3-0.6,0.6-0.8,1.1c-0.8,1.2-1.4,2.6-1.8,4.1
	c-0.7,1.7-1.2,3.8-1.6,6.2c-3.3,12.4-6.3,21.8-9.1,28.1c-2.8,6.3-5.3,10.6-7.5,12.9c-2.2,2.3-4,3-5.4,2.3c-1.4-0.8-2.2-2-2.4-3.8
	c-0.2-1.1-0.4-3.8-0.5-8.2c-0.1-4.3-0.2-9.5-0.2-15.3c0-5.9,0.1-12.2,0.2-18.9c0.1-6.7,0.2-13.2,0.3-19.3c0.1-6.1,0.2-11.5,0.3-16.3
	c0.1-4.8,0.2-8,0.2-9.8c0-5.2-0.9-10.1-2.8-14.7c-1.9-4.6-4.7-7.2-8.6-7.8c-2-0.2-3.6,0.4-4.9,2c-1.3,1.5-2.3,3.4-2.9,5.7
	c-0.7,2.3-1.1,4.6-1.5,6.9s-0.5,3.9-0.5,4.7c-1.7-2-3.8-3.3-6-4.1c-2.3-0.8-4.3-1.4-6-1.8c-2.4-0.4-4.6-0.5-6.5-0.3
	c-9.4,1.1-16.5,4.5-21.4,10.3c-4.9,5.8-8.4,12.1-10.6,19.1c-2.4,8.1-3.7,17-3.9,26.8c0,1.6,0.1,3.4,0.3,5.4
	c-3,8.3-5.8,14.3-8.3,18.1c-2.9,4.4-5.5,6.9-7.7,7.5c-2.2,0.7-3.9,0.1-5.2-1.6c-1.3-1.7-2.1-3.5-2.3-5.2c0-1.3,0-4,0-8.2
	c0-4.1,0.1-9,0.3-14.7c0-1.7,0-3.8,0-6.2c0-2.4,0.1-4.9,0.3-7.5c0.4-12.4-0.6-21.7-3.2-27.9c-2.6-6.2-5.5-10.6-8.7-13.2
	c-3.9-2.8-8.3-4.1-13.3-3.9c-4.1,0.2-7.7,2.8-10.7,7.8c-3,5-5.6,11.2-7.8,18.6c-0.4-11.3-1.9-19.7-4.4-25.3c-2.5-5.5-5.2-9.5-8-11.9
	c-3.3-2.6-6.9-3.7-10.8-3.3c-3.3,0.2-6.2,2.4-8.8,6.7s-5.1,9.6-7.3,16.2c-2.3,6.5-4.2,13.9-5.9,22c-1.6,8.2-3.1,16.2-4.4,24
	c0.2-9.1,0.2-17.6,0-25.5c-0.2-7.8-0.2-13.5,0-17c0.4-7.8-0.3-13.4-2.1-16.6c-1.9-3.3-5-4.9-9.3-4.9c-1.7,0-3.1,0.7-4.1,2
	c-1,1.3-1.8,2.7-2.4,4.2c-0.9,2-1.4,4-1.6,6.2c-0.7,5-1.1,11.7-1.5,20.2c-0.3,8.5-0.5,17.3-0.5,26.4c0,1.9,0,3.8,0,5.7
	c-0.3,1.1-0.7,2.2-1,3.4c-3.3,12.4-6.3,21.9-9.1,28.6c-2.8,6.6-5.3,11.4-7.5,14.2c-2.2,2.8-4,4.1-5.4,3.8c-1.4-0.3-2.2-1.4-2.4-3.1
	c-0.2-1.1-0.4-3.3-0.5-6.5c-0.1-3.3-0.2-7.1-0.2-11.6c0-4.5,0.1-9.3,0.2-14.5c0.1-5.2,0.2-10.3,0.3-15.3c0.1-5,0.2-9.6,0.3-13.7
	c0.1-4.1,0.2-7.5,0.2-10.1c0.7-16.3,0.9-31.5,0.7-45.5c-0.2-14-0.2-24.7,0-32.1c6.5-0.2,13.1-0.3,19.6-0.3c6.5,0,13.1,0,19.6,0
	c7,0.2,13.9,0.4,20.9,0.7c7,0.2,13.9,0.2,20.9,0c0.9,0,2.5,0.1,4.9,0.3c2.4,0.2,4.9,0.4,7.5,0.7c2.6,0.2,5.1,0.6,7.3,1.1
	c2.3,0.5,4,1.1,5.1,1.8c1.1,0.9,2.1,0.7,3.1-0.7c1-1.3,1.6-2.8,1.8-4.4c0.2-1.6-0.3-3.2-1.5-4.6c-1.2-1.4-3.5-1.9-7-1.5
	c-10.4,1.3-20.9,1.8-31.5,1.5c-10.6-0.3-21-0.6-31.5-0.8c-6.5,0-13.1,0-19.6,0c-6.5,0-13.1,0.1-19.6,0.3c0.2-11.3-0.6-18.8-2.6-22.4
	c-1.9-3.6-5-5.2-9.3-4.7c-1.7,0.2-3,1.1-4,2.8c-1,1.6-1.7,3.3-2.1,5.1c-0.6,2.4-1.1,4.9-1.3,7.5c-0.4,3.9-0.8,7.9-1,12.1h-31.7
	c-3.3-0.2-6.2-0.8-8.8-1.8c-2.6-1-4.9-1.8-7-2.4c-2.1-0.7-3.9-0.9-5.4-0.8c-1.5,0.1-2.7,1.1-3.6,3.1c-1.3,2.6-1.4,4.4-0.2,5.4
	c1.2,1,2.6,1.7,4.1,2.1c0.4,0.2,1.1,0.3,2,0.3h3.9c7.8,0,15.6,0,23.3,0c7.7,0,15.4-0.1,23-0.3c-0.4,7.2-0.7,15.1-0.7,23.7
	c0,8.6,0,18,0,28.2l-0.3,33c-0.2,7.4-0.3,14.1-0.2,20.2c-1.9,0.6-3.8,1.2-5.6,1.9c-6.3,2.4-12.4,5.2-18.3,8.5
	c-1.3-2.4-2.6-4.9-3.9-7.5s-2.8-5.3-4.6-8.2c-2.2-3.7-4-7.5-5.5-11.4c-1.5-3.5-2.8-7.2-3.9-11.3c-1.1-4-1.6-8.1-1.6-12.2
	c0-9.1,1-16.5,2.9-22c2-5.5,5.1-8.4,9.5-8.6c0.4,0,1,0.1,1.6,0.3c0.9,0.4,2,1.2,3.3,2.3c0.9,1.1,1.7,2.6,2.6,4.4
	c0.9,1.9,1.5,4.4,2,7.7c0,2.2,0.2,4.2,0.7,6.2c0.4,1.7,0.9,3.3,1.5,4.7c0.5,1.4,1.4,2.2,2.4,2.4c1.7,0.2,3-0.1,3.9-1
	c0.2-0.4,0.3-0.9,0.3-1.5c0-0.5,0.1-1,0.3-1.5c0-0.7,0.1-1.3,0.3-2c0.2-3.3-0.2-6.5-1.3-9.8c-1.1-3.3-2.6-6.3-4.6-9
	c-2-2.7-4.4-4.9-7.3-6.5c-2.9-1.6-6.1-2.3-9.6-2.1c-3,0.2-5.8,1.1-8.2,2.8c-2.4,1.6-4.5,3.6-6.4,6c-1.9,2.4-3.3,5.1-4.4,8
	c-1.1,2.9-2,5.8-2.6,8.6c-0.7,2.4-1.1,5.7-1.3,9.8c-0.2,4.1,0.1,9.2,1,15.2c0.7,4.9,2.1,10.4,4,16.5c-0.7,1.2-1.3,2.5-1.7,3.9
	c-0.7,1.7-1.2,3.8-1.6,6.2c-3.5,10.2-6.7,17.5-9.6,21.9c-2.9,4.4-5.5,6.9-7.7,7.5c-2.2,0.7-3.9,0.1-5.2-1.6c-1.3-1.7-2-3.5-2-5.2
	c-0.2-1.3-0.3-4.1-0.3-8.3s0.1-9.2,0.3-15c0.2-5.8,0.4-11.9,0.5-18.3c0.1-6.4,0.3-12.6,0.5-18.4c0.2-9.6-0.9-16.4-3.3-20.4
	c-2.4-4-4.5-6.6-6.2-7.7c-0.4-0.4-0.8-0.7-1.1-0.7c-0.3,0-0.7-0.1-1.1-0.3c-0.4,0-0.9-0.1-1.3-0.3c-2.2-0.2-3.8,0.5-4.7,2.1
	c-1,1.6-1.7,3.4-2.1,5.4c-0.7,2.4-1,5-1,7.8c-0.7,16.8-0.9,30.8-0.8,42.3c0,2.8,0.1,5.5,0.2,8c-0.1,0.4-0.2,0.8-0.4,1.3
	c-3.3,12.4-6.2,21.7-8.8,27.9c-2.6,6.2-5,10.4-7,12.7c-2.1,2.3-3.8,3-5.2,2.3c-1.4-0.8-2.4-1.9-3.1-3.4c-1.1-2.6-1.9-7.7-2.3-15.3
	c-0.4-7.6-0.5-16.3-0.3-26.1c0.2-9.8,0.7-19.8,1.5-30.2c0.8-10.3,1.8-19.4,3.1-27.2c1.1-6.3,1.2-11.4,0.3-15.3
	c-0.9-3.9-2-7.1-3.3-9.5c-2-2.4-4.5-4-7.5-4.9c-1.7-0.4-2.9-0.7-3.6-0.7c-5.4-0.2-10-0.8-13.5-1.8s-6.4-2-8.3-3.1
	c-1.5-2-3-3.2-4.6-3.6c-0.9-0.2-1.7-0.3-2.6-0.3c-0.7,0-1.4,0.2-2.3,0.5c-0.9,0.3-1.5,1-2,2.1c-0.2,0.7-0.3,1.5-0.3,2.6
	c0,1.1,0.2,2.3,0.7,3.8c0.4,1.4,1.4,3.1,2.9,5.1c0.7,1.1,1.3,3.6,2,7.5c0.7,3.9,1,9,1.1,15.3c0.1,6.3-0.2,13.8-0.8,22.4
	c-0.7,8.6-2.1,18.1-4.2,28.6c-0.3,1-0.5,1.9-0.7,2.8c-0.2,0.6-0.4,1.2-0.6,1.8c-0.7,1.7-1.2,3.8-1.6,6.2
	c-3.3,12.4-6.3,21.9-9.1,28.6c-2.8,6.6-5.4,11.4-7.7,14.2c-2.3,2.8-4.1,4.1-5.5,3.8c-1.4-0.3-2.2-1.4-2.4-3.1
	c-0.2-0.9-0.3-2.8-0.3-5.7c0-2.9,0-6.5,0-10.6c0-4.1,0.1-8.6,0.2-13.4c0.1-4.8,0.2-9.6,0.2-14.4c0-1.7,0.1-3.4,0.2-5.1
	c0.1-1.6,0.2-3.2,0.2-4.7c0-9.1-0.5-16.7-1.4-22.8c-1-6.1-2.4-10.9-4.2-14.5c-1.8-3.6-4-6.1-6.6-7.7c-2.6-1.5-5.4-2.4-8.4-2.6
	c-1.1-0.2-2.1-0.3-3.1-0.2c-1,0.1-2,0.2-3.1,0.2c-2,0.2-3.9,1.4-5.9,3.4c-2,2.1-3.8,4.7-5.4,8c-1.6,3.3-3.2,6.9-4.6,10.9
	c-1.4,4-2.8,8.2-4.1,12.6c0.4-9.1,0.7-18.5,0.8-28.1c0.1-9.6,0.2-18.7,0.3-27.4c0.1-8.7,0.2-16.4,0.2-23.2c0-6.7,0-11.9,0-15.3
	c0.4-12.4-0.4-21.4-2.4-26.9c-2.1-5.5-5.3-8.3-9.6-8.3c-1.7,0-3.1,1.1-4.1,3.3c-1,2.2-1.7,4.6-2.1,7.2c-0.7,3-1.1,6.4-1.3,10.1
	c-0.7,5.4-1.1,12.3-1.5,20.6c-0.3,8.3-0.6,17.1-0.8,26.4c-0.2,9.4-0.3,19-0.3,28.9c0,9.9,0.1,19.3,0.3,28.1c0.2,8,0.4,15.1,0.7,21.5
	c0,0.1,0,0.1-0.1,0.2c-0.7,1.7-1.2,3.8-1.6,6.2c-0.4,1.5-0.9,2.9-1.3,4.2c-0.4,1.1-0.8,2.2-1.1,3.4c-0.3,1.2-0.7,2.3-1.1,3.4
	c-1.1,2.6-2.4,5.4-4.1,8.3c-1.6,2.9-3.5,5.7-5.5,8.3c-2.1,2.6-4.4,4.7-7,6.4c-2.6,1.6-5.5,2.4-8.8,2.4c-4.6,0-8.5-1.4-11.9-4.1
	c-3.4-2.7-6.2-6.3-8.5-10.6c-2.3-4.3-4.1-9.4-5.5-15.2c-1.4-5.8-2.4-11.6-3.1-17.5c-1.7-13.9-2.2-29.8-1.3-47.6
	c0.2-10.2,0.9-19.5,2-27.7c5.2-0.4,9.8-1.5,13.9-3.3c4-1.7,7.6-3.6,10.6-5.5c3.5-2.4,6.5-5,9.1-7.8c4.3-5.9,7.4-11.5,9.1-17
	c0.9-2.8,1.6-5.7,2.3-8.5c0.7-3.7,0.8-6.9,0.5-9.5s-0.8-4.8-1.5-6.5c-0.9-2-2-3.6-3.3-4.9c-2.4-2.4-5-3.9-7.8-4.6
	c-2.8-0.7-5.5-0.8-8.2-0.3c-3,0.4-6.1,1.3-9.1,2.6c-2.8,1.3-5.4,2.9-7.8,4.9c-2.2,1.7-4.5,3.7-6.9,5.9c-2.4,2.2-4.5,4.6-6.2,7.2
	c-2.4,3.3-4.6,7.1-6.5,11.4c-1.7,3.7-3.4,8.3-5.1,13.7c-1.6,5.4-3,11.7-4.1,18.9c-1.5,0-2.8-0.1-3.8-0.3c-1-0.2-1.9-0.5-2.8-1
	c-0.9-0.4-1.6-0.8-2.3-1c-2-0.9-3.6-2-4.9-3.4c-1.3-1.4-2.5-2.5-3.6-3.3c-1.1-0.8-2.1-1.1-3.1-1.1s-1.9,0.8-2.8,2.3
	c-1.3,2.2-1.7,4-1.1,5.4c0.5,1.4,1.5,2.6,2.8,3.4c1.3,0.9,2.9,1.5,4.7,1.8c1.8,0.3,3.4,0.6,4.7,0.8c5.4,0.7,9.1,1,11.1,1
	c-0.9,6.5-1.6,13.6-2.3,21.2c-0.4,6.5-0.7,14.3-0.7,23.3c0,9,0.5,18.8,1.6,29.2c0.9,7.8,2.5,15.3,4.9,22.5c2,6.1,4.8,12.2,8.5,18.4
	c3.7,6.2,8.7,10.8,15,13.9c1.5,0.4,3.3,1,5.2,1.6c1.7,0.4,3.6,0.9,5.7,1.3c2.1,0.4,4.5,0.5,7.3,0.3c3.7,0,6.9-0.4,9.5-1.3
	c7.4-2.4,13.4-7,17.9-13.7c4-5.9,7.3-12,9.8-18.3c0.4,3.1,1,5.7,1.7,7.7c0.9,2.5,1.7,4.4,2.4,5.7c0.8,1.3,1.5,2.1,2.3,2.4
	c0.8,0.3,1.4,0.5,1.8,0.5c1.7,0.2,3.3-0.1,4.6-0.8c1.3-0.8,2.3-1.7,2.9-2.8c0.9-1.1,1.4-2.4,1.6-3.9c0.7-3.3,1.5-7.3,2.4-12.1
	c1-4.8,2.2-9.8,3.6-15c1.4-5.2,2.8-10.3,4.2-15.3c1.4-5,2.8-9.5,4.2-13.4c1.4-3.9,2.8-7,4.1-9.1c1.3-2.2,2.4-2.9,3.3-2.3
	c1.1,0.9,2,2.7,2.6,5.4c0.7,2.7,1.1,5.8,1.5,9.3c0.3,3.5,0.5,7,0.7,10.4c0.1,3.5,0.2,6.3,0.2,8.5v21.5c0.2,9.8,0.9,17.8,1.9,24
	c1.1,6.2,2.5,11.1,4.2,14.7c1.7,3.6,3.7,6,5.9,7.3c2.2,1.3,4.8,2.1,7.6,2.3c5.2,0.2,9.8-2.4,13.7-8c3.9-5.5,7.2-11.9,10-18.9
	c2.7-7.1,4.9-13.9,6.5-20.4c1.6-6.3,2.6-10.4,3.1-12.2c0.7-1.5,1.2-3.4,1.7-5.7c0.2-1.3,0.9-4.7,2-10.3c1.1-5.5,2.2-12,3.3-19.4
	c1.1-7.4,1.9-15.2,2.4-23.3c0.5-8.2,0.5-15.4-0.2-21.7c2.2,0.4,4.5,0.6,7,0.5c2.5-0.1,4.8-0.3,7-0.5c-0.4,0.9-0.7,1.7-0.7,2.4
	c0,0.8-0.1,1.4-0.3,1.8c-0.2,0.9-0.3,1.5-0.3,2c-5.4,40.2-6.7,71.4-3.9,93.3c2.8,22,10,33.3,21.5,33.9c5,0.2,9.4-2.1,13.2-7
	c3.8-4.9,7-10.4,9.6-16.6c1.4-3.4,2.7-6.8,3.8-10.1c1.4,7.1,3.6,12.3,6.5,15.6c2.9,3.4,6.9,5.2,11.9,5.4c5.2,0.2,9.7-1.4,13.4-4.9
	c3.7-3.5,6.9-7.6,9.5-12.4c2.6-4.8,4.7-9.4,6.2-13.9c1.2-3.5,2.1-6.2,2.6-8c2.5,6,5.6,12.6,9.5,19.6c-2.6,2.2-5.1,4.5-7.5,6.9
	c-2.4,2.4-4.7,4.8-6.9,7.2c-3.5,4.1-6.4,8.2-8.8,12.1c-3.9,6.1-7,13.2-9.1,21.2c-2,8.3-2.9,16.5-2.9,24.8c0.2,7.2,1.6,14.1,4.2,20.9
	c2.6,6.7,7.1,12.3,13.4,16.6c3.3,2.4,6.9,4,10.9,4.7c4,0.8,8,0.9,11.9,0.5c1.5-0.2,3.7-0.7,6.5-1.3c2.8-0.7,5.8-1.9,8.8-3.8
	c3-1.9,6-4.5,9-7.8c2.9-3.4,5.4-7.8,7.3-13.4c2-5.5,3-12.3,3.3-20.4c0.2-8-0.8-17.6-2.9-28.7c-0.7-2.8-1.7-6.2-3.3-10.1
	c-1.3-3.5-3.2-7.9-5.5-13.4c-2.4-5.4-5.5-12.1-9.5-19.9c1.3-0.9,3.2-2,5.5-3.3c1.1-0.7,2.3-1.2,3.6-1.6c3.7-1.6,7.6-3.1,11.6-4.3
	c0.1,4.6,0.3,8.7,0.6,12.5c0.8,10.2,1.9,18.2,3.5,24c1.6,5.8,3.7,9.7,6.4,11.9c2.7,2.2,5.7,3.4,9.2,3.6c5,0.2,9.4-2.4,13.4-8
	c3.9-5.5,7.3-11.9,10.1-18.9c1.4-3.6,2.7-7.2,3.8-10.7c0.4,6.2,0.9,11.2,1.4,14.7c0.2,1.7,0.8,3.4,1.6,4.9c0.7,1.3,1.6,2.5,2.8,3.6
	c1.2,1.1,2.9,1.9,5.1,2.3c2,0.4,3.6,0.3,5.1-0.5c1.4-0.8,2.6-1.7,3.4-2.8c0.9-1.1,1.6-2.5,2.3-4.2c2-12.4,3.9-24.4,5.9-35.9
	c2-11.5,3.9-21.8,5.7-30.8c1.8-9,3.8-16.3,5.7-21.7c2-5.4,3.9-8.3,5.9-8.5c0.9,0,1.6,1,2.1,3.1c0.5,2.1,1,4.7,1.3,8
	c0.3,3.3,0.5,6.9,0.7,10.8c0.1,3.9,0.2,7.8,0.2,11.7v5.2v0.3c-0.2,15.2,0.4,27.2,2,35.9c0.2,1.1,0.9,2.9,2,5.5c1.1,2.6,3,4,5.9,4.2
	c6.3,0.4,9.9-4.5,10.8-14.7c0.2-2.8,0.5-5.4,0.8-7.7s0.6-4.3,0.8-6c2.6-13.1,5-23.3,7.4-30.7c2.4-7.4,4.9-11.3,7.7-11.7
	c1.7-0.2,3.3,1.1,4.7,3.9c1.4,2.8,2.1,8,2.1,15.7v5.5v0.3c0,20.7,1.4,35.4,4.1,44.1c2.7,8.7,8.2,13.3,16.5,13.7
	c5,0.2,9.4-1.4,13.2-4.9c3.8-3.5,7-7.6,9.6-12.4c1.1-2,2-3.9,2.9-5.8c1,3,2.2,6,3.8,8.9c2.5,4.7,5.8,8.6,10,11.9
	c4.1,3.3,9.4,5,15.7,5.2c6.3,0.2,11.3-1,14.8-3.8c3.6-2.7,6.4-6,8.3-10c1.7,8.5,4.2,14.4,7.3,17.8c3.2,3.4,7.3,5.3,12.6,5.7
	c3.3,0.2,6.3-0.8,9.1-2.9c2.8-2.2,5.4-5.1,7.7-8.6c2.3-3.6,4.3-7.6,6-11.9c1.7-4.3,3.2-8.5,4.4-12.6c1.2-4,2.2-7.6,2.9-10.8
	c0.8-3.2,1.4-5.3,1.8-6.4c0.1-0.2,0.1-0.4,0.2-0.7c2.6,6.6,6,13.7,10.3,21.5c-2.6,2.2-5.1,4.5-7.5,6.9c-2.4,2.4-4.7,4.8-6.9,7.2
	c-3.5,4.1-6.4,8.2-8.8,12.1c-3.9,6.1-7,13.2-9.1,21.2c-2,8.3-2.9,16.5-2.9,24.8c0.2,7.2,1.6,14.1,4.2,20.9
	c2.6,6.7,7.1,12.3,13.4,16.6c3.3,2.4,6.9,4,10.9,4.7c4,0.8,8,0.9,11.9,0.5c1.5-0.2,3.7-0.7,6.5-1.3c2.8-0.7,5.8-1.9,8.8-3.8
	c3-1.9,6-4.5,9-7.8c2.9-3.4,5.4-7.8,7.3-13.4c2-5.5,3-12.3,3.3-20.4c0.2-8-0.8-17.6-2.9-28.7c-0.7-2.8-1.7-6.2-3.3-10.1
	c-1.3-3.5-3.2-7.9-5.5-13.4c-2.4-5.4-5.5-12.1-9.5-19.9c1.3-0.9,3.2-2,5.5-3.3c1.1-0.7,2.3-1.2,3.6-1.6c8.5-3.7,17.6-6.4,27.4-8.2
	c1.1-0.2,1.9-0.8,2.4-1.8c0.5-1,0.6-1.9,0.2-2.8C882.3,859.9,880.8,859.1,878.4,859.5z M206.4,749c1.8-6.2,3.8-11.3,5.7-15.3
	c2-4,3.9-7.2,5.9-9.5c2-2.3,3.8-4,5.5-5.1c0.9-0.4,1.7-0.9,2.6-1.3c2-0.9,3.9-1,5.9-0.3c1.3,0.2,2.4,0.8,3.3,1.6
	c0.9,0.7,1.6,1.6,2.3,2.9c0.7,1.3,1.1,2.8,1.3,4.6c0.2,2.2,0.1,4.5-0.3,6.9c-0.4,2.4-1.1,5.1-2,8.2c-0.9,3-2.4,6.5-4.6,10.4
	c-2,3.3-4.4,6.1-7.2,8.5c-2.4,2.4-5.5,4.6-9.5,6.5c-3.9,2-8.5,3.4-13.7,4.2C203,762.7,204.6,755.2,206.4,749z M505.6,933.1
	c1.4,5.8,2,11.3,1.8,16.5c-0.4,13.9-2.6,24.5-6.5,31.7s-10.6,10.5-19.9,10.1c-2.4-0.4-4.5-1-6.4-1.8c-1.9-0.8-3.4-1.6-4.7-2.4
	c-1.5-0.9-2.8-2-3.9-3.3c-5.2-5.2-8.3-11.7-9.3-19.6c-1-7.8-0.9-15.2,0.2-22.2c1.7-11.3,5.7-21.6,11.7-31c1.7-3,3.8-5.8,6-8.2
	c2.3-2.4,4.4-4.6,6.4-6.5c2.4-2.2,4.7-4.2,6.9-6.2c1.5,2.8,3.5,6.5,5.9,11.1c2.4,4.6,4.6,9.6,6.7,15
	C502.5,921.7,504.2,927.3,505.6,933.1z M764.5,855.6c-0.2,3.5-0.6,7.3-1.1,11.4c-0.5,4.1-1.5,8.4-2.8,12.7c-0.9,2.4-1.9,4.8-3.1,7.3
	c-1.2,2.5-2.6,4.7-4.2,6.7c-1.6,2-3.5,3.5-5.7,4.7c-2.2,1.2-4.6,1.8-7.2,1.8c-2.6-0.7-4.8-2.4-6.5-5.2c-1.5-2.4-2.8-6.2-3.8-11.4
	c-1-5.2-0.9-12.6,0.2-22.2c0.9-7.4,2-14.3,3.4-20.7c1.4-6.4,3-11.8,4.9-16.2c1.8-4.3,4-7.6,6.4-9.6c2.4-2.1,4.9-2.6,7.5-1.5
	c2.2,0.9,3.9,2.4,5.2,4.6c1.3,2.2,2.4,4.6,3.3,7.2c0.9,2.6,1.6,5.5,2.3,8.8c0.4,2.8,0.8,6,1.1,9.6
	C764.7,847.3,764.8,851.2,764.5,855.6z M846.6,933.1c1.4,5.8,2,11.3,1.8,16.5c-0.4,13.9-2.6,24.5-6.5,31.7
	c-3.9,7.2-10.6,10.5-19.9,10.1c-2.4-0.4-4.5-1-6.4-1.8c-1.9-0.8-3.4-1.6-4.7-2.4c-1.5-0.9-2.8-2-3.9-3.3c-5.2-5.2-8.3-11.7-9.3-19.6
	c-1-7.8-0.9-15.2,0.2-22.2c1.7-11.3,5.7-21.6,11.7-31c1.7-3,3.8-5.8,6-8.2c2.3-2.4,4.4-4.6,6.4-6.5c2.4-2.2,4.7-4.2,6.9-6.2
	c1.5,2.8,3.5,6.5,5.9,11.1c2.4,4.6,4.6,9.6,6.7,15C843.5,921.7,845.2,927.3,846.6,933.1z M878.2,1083.3c-0.7,0-1.5,0.6-2.3,1.9
	c-0.8,1.3-1.5,2.7-1.9,4.3c-0.9,1.9-1.6,4.1-2.1,6.6c-0.5,1.6-0.9,3.1-1.4,4.5c-0.5,1.2-0.9,2.4-1.2,3.7c-0.3,1.3-0.8,2.5-1.2,3.7
	c-1.2,3-2.7,6.1-4.5,9.4c-1.9,3.2-3.9,6.3-6.3,9c-2.3,2.8-5,5-8,6.6c-3,1.6-6.4,2.3-10.1,2.1c-3.5-0.5-6.1-2.8-7.8-7.1
	c-1.7-4.3-3-9.2-3.6-14.8c3-0.9,5.8-3.4,8.5-7.5c2.7-4.1,4.9-8.8,6.6-14.3c1.7-5.4,3.1-11.3,4-17.6c0.9-6.3,1.1-12.2,0.5-17.9
	c-0.6-5.7-1.9-10.7-3.8-15.1c-2-4.4-4.9-7.4-8.9-9c-6.3-2.5-11.5-1.9-15.6,1.9s-7.4,8.5-9.7,14.1c-2.8,6.5-4.9,14.4-6.3,23.6
	c-0.8,8.4-1,16.2-0.8,23.4c-0.1,0.4-0.2,0.8-0.3,1.3c-0.5,1.6-0.9,3.1-1.4,4.5c-0.5,1.2-0.9,2.4-1.2,3.7c-0.3,1.3-0.8,2.5-1.2,3.7
	c-1.2,3-2.7,6.1-4.5,9.4c-1.9,3.2-3.9,6.3-6.3,9c-2.3,2.8-5,5-8,6.6c-3,1.6-6.4,2.3-10.1,2.1c-3.5-0.5-6.1-2.8-7.8-7.1
	c-1.7-4.3-3-9.2-3.6-14.8c3-0.9,5.8-3.4,8.5-7.5c2.7-4.1,4.9-8.8,6.6-14.3c1.7-5.4,3.1-11.3,4-17.6c0.9-6.3,1.1-12.2,0.5-17.9
	c-0.6-5.7-1.9-10.7-3.8-15.1c-2-4.4-4.9-7.4-8.9-9c-6.3-2.5-11.5-1.9-15.6,1.9s-7.4,8.5-9.7,14.1c-2.8,6.5-4.9,14.4-6.3,23.6
	c-0.8,8.5-1,16.4-0.8,23.7c-0.1,0.3-0.2,0.6-0.3,1c-3.5,13.2-6.6,23.1-9.4,29.7c-2.8,6.6-5.3,11.1-7.5,13.6
	c-2.2,2.4-4.1,3.2-5.6,2.4c-1.5-0.8-2.6-2-3.3-3.7c-1.2-2.8-2-8.2-2.4-16.3c-0.5-8.1-0.6-17.4-0.3-27.8c0.2-10.4,0.7-21.1,1.6-32.2
	c0.8-11,1.9-20.7,3.3-29c1.2-6.7,1.3-12.2,0.3-16.3c-0.9-4.2-2.1-7.5-3.5-10.1c-2.1-2.5-4.8-4.3-8-5.2c-1.9-0.5-3.1-0.7-3.8-0.7
	c-5.8-0.2-10.6-0.9-14.4-1.9s-6.8-2.1-8.9-3.3c-1.6-2.1-3.2-3.4-4.9-3.8c-0.9-0.2-1.9-0.3-2.8-0.3c-0.7,0-1.5,0.2-2.4,0.5
	c-0.9,0.3-1.6,1.1-2.1,2.3c-0.2,0.7-0.3,1.6-0.3,2.8c0,1.2,0.2,2.5,0.7,4c0.5,1.5,1.5,3.3,3.1,5.4c0.7,1.2,1.4,3.8,2.1,8
	s1.1,9.6,1.2,16.3c0.1,6.7-0.2,14.7-0.9,23.8c-0.7,9.2-2.2,19.3-4.5,30.4c-0.5,1.8-0.9,3.5-1.1,5.1c-0.7,1.8-1.3,3.9-2,6.3
	c-3.5,13.2-6.7,23.4-9.7,30.4c-3,7.1-5.7,12.1-8,15.1c-2.3,3-4.2,4.3-5.7,4c-1.5-0.3-2.4-1.4-2.6-3.3c-0.2-1.2-0.4-3.5-0.5-7
	c-0.1-3.5-0.2-7.6-0.2-12.3c0-4.7,0.1-9.9,0.2-15.5c0.1-5.6,0.2-11,0.3-16.3c0.1-5.3,0.2-10.2,0.3-14.6c0.1-4.4,0.2-8,0.2-10.8
	c0.7-17.4,0.9-33.5,0.7-48.5c-0.2-14.9-0.2-26.4,0-34.2c7-0.2,13.9-0.3,20.9-0.3c7,0,13.9,0,20.9,0c7.4,0.2,14.8,0.5,22.2,0.7
	c7.4,0.2,14.8,0.2,22.2,0c0.9,0,2.7,0.1,5.2,0.3c2.5,0.2,5.2,0.5,8,0.7c2.8,0.2,5.4,0.6,7.8,1.2c2.4,0.6,4.2,1.2,5.4,1.9
	c1.2,0.9,2.3,0.7,3.3-0.7s1.7-3,1.9-4.7c0.2-1.7-0.3-3.4-1.6-4.9c-1.3-1.5-3.8-2-7.5-1.6c-11.1,1.4-22.3,1.9-33.5,1.6
	c-11.2-0.3-22.4-0.6-33.5-0.9c-7,0-13.9,0-20.9,0c-7,0-13.9,0.1-20.9,0.3c0.2-12-0.7-20-2.7-23.8s-5.4-5.5-9.9-5
	c-1.8,0.2-3.2,1.2-4.3,3c-1,1.7-1.8,3.5-2.2,5.4c-0.7,2.6-1.1,5.2-1.4,8c-0.5,4.2-0.8,8.5-1,12.9h-33.7c-3.5-0.2-6.6-0.9-9.4-1.9
	s-5.3-1.9-7.5-2.6c-2.2-0.7-4.1-1-5.7-0.9c-1.6,0.1-2.9,1.2-3.8,3.3c-1.4,2.8-1.4,4.7-0.2,5.7c1.3,1,2.7,1.8,4.3,2.3
	c0.5,0.2,1.2,0.3,2.1,0.3h4.2c8.3,0,16.6,0,24.9,0c8.2,0,16.4-0.1,24.5-0.3c-0.5,7.6-0.7,16.1-0.7,25.2c0,9.2,0,19.2,0,30.1
	l-0.3,35.1c-0.5,17.8-0.3,32.2,0.5,43.1c0.8,10.9,2.1,19.4,3.8,25.6c1.7,6.1,4,10.4,6.8,12.7c2.9,2.3,6.1,3.6,9.8,3.8
	c5.3,0.2,10.1-2.6,14.2-8.5c4.2-5.9,7.8-12.6,10.8-20.2c3-7.5,5.3-14.8,7-21.7c1.6-6.7,2.6-11,3.1-13c0.7-1.6,1.3-3.6,1.8-6.1
	c0.2-1.4,0.9-5,2.1-11c1.2-5.9,2.3-12.8,3.5-20.7c1.2-7.9,2-16.2,2.6-24.9c0.6-8.7,0.5-16.4-0.2-23.1c2.3,0.5,4.8,0.6,7.5,0.5
	c2.7-0.1,5.2-0.3,7.5-0.5c-0.5,0.9-0.7,1.8-0.7,2.6c0,0.8-0.1,1.5-0.3,1.9c-0.2,0.9-0.3,1.6-0.3,2.1c-5.8,42.9-7.2,76-4.2,99.4
	c3,23.4,10.7,35.5,22.9,36.2c5.3,0.2,10-2.3,14.1-7.5c4.1-5.2,7.5-11.1,10.3-17.7c1.5-3.6,2.9-7.2,4-10.7c0.2,1,0.4,2.1,0.7,3.1
	c1,4.3,2.5,8.2,4.3,11.8c1.9,3.6,4.2,6.7,7,9.2c2.8,2.6,6.1,4.3,10.1,5.2c7,1.6,13.4,1.5,19.5-0.3c7.9-2.5,14.3-7.4,19.1-14.6
	c3.6-5.3,6.5-10.7,8.9-16.2c0.3,1.7,0.7,3.3,1.1,4.9c1,4.3,2.5,8.2,4.3,11.8c1.9,3.6,4.2,6.7,7,9.2c2.8,2.6,6.1,4.3,10.1,5.2
	c7,1.6,13.4,1.5,19.5-0.3c7.9-2.5,14.3-7.4,19.1-14.6c4.9-7.2,8.6-14.6,11.1-22.2c0.5-0.9,0.9-2.1,1.2-3.7c0.3-1.5,0.8-3,1.2-4.3
	c0.5-1.6,0.9-3.2,1.4-4.9C882.1,1088,881.5,1084,878.2,1083.3z M756.9,1103.5c-0.2-2.5-0.3-4.9-0.3-7c0-2.1,0-3.9,0-5.6
	c0-1.9,0.1-3.6,0.3-5.2c0.7-10.4,1.4-18.4,2.3-23.8c0.8-5.4,1.7-9.4,2.6-12c0.9-2.8,1.9-4.2,2.8-4.2c1.2,0.9,2,2.7,2.4,5.2
	c0.5,2.6,0.8,5.1,1,7.6c0.2,3,0.3,6.4,0.3,10.1c-0.5,10.9-1.9,18.9-4.3,24.2S759.2,1101.7,756.9,1103.5z M826.8,1103.5
	c-0.2-2.5-0.3-4.9-0.3-7c0-2.1,0-3.9,0-5.6c0-1.9,0.1-3.6,0.3-5.2c0.7-10.4,1.4-18.4,2.3-23.8c0.8-5.4,1.7-9.4,2.6-12
	c0.9-2.8,1.9-4.2,2.8-4.2c1.2,0.9,2,2.7,2.4,5.2c0.5,2.6,0.8,5.1,1,7.6c0.2,3,0.3,6.4,0.3,10.1c-0.5,10.9-1.9,18.9-4.3,24.2
	S829.1,1101.7,826.8,1103.5z M667.1,499.7l7.5,10.2l-7,4.7L667.1,499.7z M690.6,531.6l7.5,10.2l-28.8,19.4l-0.8-21.1L690.6,531.6z
	 M678.5,515.1l6.7,9l-16.9,8.5l-0.4-10.4L678.5,515.1z M702.8,548.2l11.9,16.2l-44.7,18.1l-0.5-13.9L702.8,548.2z M720.5,572.2
	l16.4,22.3l-66.2,5.1l-0.4-10.3L720.5,572.2z M742.2,601.6l2.1,3.2l-72.5,27l-0.9-23.9L742.2,601.6z M750.2,612.5l5,6.8L673,664.6
	l-0.8-21.6L750.2,612.5z M759.6,625.4l16,21.7l-102.1,30.1l-0.3-4.5L759.6,625.4z M780,653.1l-105.8,44.8l-0.5-13.6l103.1-35.4
	L780,653.1z M722.6,680.4l17.3-7.1l14.5,42.8l-15.8,6L722.6,680.4z M279.3,508.8l-0.5-14.9l7.5,10.2L279.3,508.8z M302.3,525.8
	l7.5,10.2L281,555.4l-0.8-21.1L302.3,525.8z M290.1,509.3l6.7,9l-16.9,8.5l-0.4-10.4L290.1,509.3z M314.5,542.4l11.9,16.2
	l-44.7,18.1l-0.5-13.9L314.5,542.4z M332.1,566.4l16.4,22.3l-66.2,5.1l-0.4-10.3L332.1,566.4z M353.9,595.8l2.1,3.2l-72.5,27
	l-0.9-23.9L353.9,595.8z M361.9,606.8l5,6.8l-82.2,45.3l-0.8-21.6L361.9,606.8z M371.3,619.6l16,21.7l-102.1,30.1l-0.3-4.5
	L371.3,619.6z M391.7,647.3l-105.8,44.8l-0.5-13.6l103.1-35.4L391.7,647.3z M334.3,674.7l17.3-7.1l14.5,42.8l-15.8,6L334.3,674.7z
	 M426.6,1031.1c-3.1-0.8-4.7-0.9-9.7-1.5c-4.1-0.7-3.4-0.6-9-1.7c-13.6-2.4-19.9-2-32.1,0.9c-1.2,0.3-7.5,1.6-7.7,0
	c-0.2-1.5,3.1-2.7,4.1-3.3c3.7-2.5,7.4-5,10.9-7.7c11.1-8.9,17.3-20.6,16.9-36c-0.1-3.1-2.9-5.3-6-4.7
	c-13.9,3.2-24.9,10.2-34.3,20.7c-3.3,3.7-6.9,8.4-8.8,11.2c-0.8,1.1-1.1,2.7-2.8,2.6c-1.4-0.1-1-1-1-2.1c0.4-7.9-0.1-15-1.2-21.4
	c-1.5-8.6-4-16-7.3-23.6c-0.5-1.1-1-2.2-1.5-3.4c-0.3-0.7-1.5-2.5-1.4-3.2c0-0.3-0.3-1.1-3.7-2.2c-3.3,1-3.6,1.8-3.6,2.1
	c-7.4,13.2-7.6,13.5-8.4,17.3c-2.3,12.2,0.3,20.9,0.7,32c0,2.6,0.6,5.2,1,7.8c0.5,2.5,1.9,6.1,0.7,8.6c-1,1.9-1.8-1.2-2.3-1.9
	c-2.3-4.2-4.3-8.8-8.1-13.3c-6.2-7.3-24.2-23-38.6-21.3c-1.8,0.1-3.7,0.6-5.5,1.2c-1.1,0.4-2,1.5-2,2.7c-0.1,4.6,0.7,8.8,3.5,14.2
	c5.9,11.1,11.4,14.1,21.9,21c1.5,1,6.9,3.6,5.7,4.9c-0.8,0.8-3.3-0.4-4.1-0.6c-6.4-1.5-12.8-2.8-19.3-3.9
	c-21.3-3.5-35.2,6.8-35.4,12.6c-0.1,3.8,3.2,5.8,6.5,7.7c5.2,3,10.4,6.3,15.9,8.5c2.8,1.2,5.8,2,8.8,2.3c1.7,0.2,3.7-0.1,5.4,0.2
	c0.4,0.1,1,0.6,1.2,1c0.3,0.9-0.1,0.7-0.6,1c-4.3,2.4-7.4,6.7-10.6,11.3c-3.9,5.6-8.6,12.6-6.9,18.5c3.8,10.5,20.2,6.8,29.5,2.4
	c1.5-0.7,2.8-1.8,4.5-2.3c1.9-0.5,1.5,0.2,0.8,1.5c-3.4,5.8-2,16.8-1.6,23.3c0.4,5.2-0.2,8.3,2,11.3c0,0.6,0.7,1.2,1.4,1.1
	c16.4-2.9,21-12.7,24.6-22.3c0.1-0.4,0.6-2.4,1-2.5c1.6-0.5,1.4,5.5,1.5,6.2c0.3,3.4,2.4,16.5,7.4,22.3c0.4,0.8,1.3,1,1.9,0.6
	c12.1-7.3,17.1-22,15.2-36.6c2,4.5,6.8,13.1,10,16.8c3.5,4.4,11.8,9.4,24.6,10.6c0,0,0.1,0,0.9,0c1,0,2.5-1.2,2.8-2.4
	c0.3-1.3,0.2-0.9,0.2-1c0-2-3.8-20.3-5.3-24.1c-2.4-6.1-9.3-15.3-13.3-20.5c1.8,1.3,3.1,2.1,4.8,3.1c17.5,10.5,19.2,12.9,35,10.5
	c6.5-0.9,13.3-1.4,16-5.8c0.2-0.4,0.5-1,0.5-1c4.3-11.5-10.1-17.9-13.5-21.4c-1.4-1.3-3-4.8-7.2-7.6c-1.6-1.1-4.7-1.5-5.8-2.8
	c1.1-1.5,4.5-0.9,6.2-1.1c6.1-1,9-2.3,13.1-3.5c6-1.8,13.2-4.3,13.4-10.6C428.5,1032.5,427.7,1031.4,426.6,1031.1z M413.6,1038.7
	c-6.6,1.6-4.4,1.4-9.4,2.4c-8.8,1.3-12.9,0.7-19.2,1.5c-16.5,2.1-20.5,1-29.8,1.6c-4.2,0.6-4.1,0.4-4.1,0.4c-2.6-1-3.5,2.4-1.4,3.1
	c3,1.5,6.7,2.3,10,2.9c37.5,6.8,36.4,13.1,42.4,17.1c2.7,1.7,10.2,5.7,11.2,8.7c-2.4,0.8-9.5,1.2-10.6,1c-3.9-0.8-5.9-2.3-9.4-3.4
	c-2.7-0.9-5.6-2-8.7-3.1c-13.7-5.1-6.3-0.4-27.2-10.8c-3.4-1.7-6.1-2.9-9.4-4.3c-1.8-0.8-3.3,1.7-1.7,2.9c4.1,3.9,7.8,8.3,11.1,13.1
	c4.7,6.9,10.2,13.5,14.1,20.9c1.5,2.9,7.4,20.6,2.9,20.6c-1.4,0-3.3-1-4.6-1.5c-3-1.2-6.1-2.8-8.2-5.3c-7.3-8.3-13.9-27.4-21.4-37.6
	c-0.4-0.6-1.2-0.8-1.9-0.6c-1,0.3-1.4,1.5-1,2.1c1.1,15.7,1.3,18.2,0.2,30.6c-0.5,7.1-1.1,13.5-4,19.9c-0.4,0.9-1.9,4.8-3.4,2.9
	c-1.1-1.5-1.3-11.7-1.3-13.5c0-3.9-0.4-5.6-0.7-11.6c-0.6-11.3-0.5-23-1.2-31.6c-0.1-0.8-0.4-1.5-1.2-1.7c-5-1.6-3.9,18.6-14.9,41.8
	c-1.2,2.5-2.6,4.8-4.6,6.7c-1.1,1-2.7,1.8-3.6,3c-0.4,0.5-0.4,1.1-1,1.4c-0.6,0.2-1.5,0-2-0.4c-1-0.9-0.3-2.1-0.1-3.2
	c0.7-3.5,0.9-7.1,0.9-10.7c0-8.6,0.5-8.8,3-13.9c3.5-6.9,7.3-15.7,12.5-21.4c0.7-0.8,2.2-2.2,3.2-3.3c1.5-1.6-0.9-3.8-2.4-2.4
	c-30.7,20.6-19.4,12.5-29.6,18.7c0,0-0.6,0.4-0.6,0.3c-3.8,1.7-8.8,3.8-13,3.7c-3.6-0.1-6.1,0.5-3.3-4.5
	c6.7-11.8,12.6-12.8,19.6-17.7c3.3-2.3,5.9-4.5,20.6-13c1.6-0.9,0.8-3.4-1-3.2c-5.1,0-24.9,1.7-28.3,2.2c-7,1-9.1,0.7-12.7,0.1
	c-8.6-2.1-12.4-5.3-20.3-9c-1.2-0.6-2.4-1.3-2.9-1.8c-0.3,0.2,0.2-0.2,0.5-0.5c6.4-6.1,14.1-6.9,22.8-6.5c3.4,0.1,35.5,3.3,43.9,9.9
	c0.9,0.7,1.8,0.6,2.4,0c0.7-0.7,0.7-1.7,0-2.4c-8-9.3-13.4-10.5-31.2-29.1c-4.5-4.6-9.9-9.2-10.8-17c13.5-3.5,34.8,14.8,39.1,21.1
	c4.4,6.6,9.1,17.5,14.4,20c1.2,0.6,2.4-0.1,2.4-1.8c0,0-1.9-10.8-2.6-19.3c-1.1-15.2,4.6-35.5,5.1-39c-0.1,0.4,0.7-2.2,1.7-5.1
	c9.9,19.7,11.8,39.1,8.3,60.6c-0.2,0.9-0.3,1.9-0.4,2.8c-0.3,0.6,0.2,1.8,1.3,2c0.9,0.2,1.8-0.3,2.1-1.4c4.5-19,20.1-28.4,36.8-38.6
	c2.9-1.8,5.9-3.5,8.9-5c-0.6,3.4-9.1,23.1-33.7,42c-1,0.7-3.8,2-2.5,3.5c0.7,0.8,2.4,0.8,3.4,0.8c2.6,0,5.4-0.5,7.9-1.3
	c3.7-1.2,11.6-2.1,14.9-2.1c10.7,0,21.4,3.4,32.2,2.9c4.7-0.2,6.2-0.4,10.1,0.2C420,1037.1,416,1038.1,413.6,1038.7z M300.5,1098.1
	C300.5,1098.1,300.5,1098,300.5,1098.1L300.5,1098.1C300.5,1098,300.5,1098.1,300.5,1098.1z M338.5,1055.9
	c-3.2,2.3-7.7,1.8-11.5,0.3c-1.4-0.5-2.8-1.2-3.9-1.8c-2.2-1.3-2.3-3.4-2-5.8c0.3-2.7,1.1-3.7,3-5.5c1.3-1.2,2.7-2.4,4.6-2.7
	c2.3-0.3,4.7,0.5,6.7,1.5c1.7,0.9,3.8,1.2,5.4,2.4C344.6,1047.5,341.8,1053.6,338.5,1055.9z"/>
</svg>
