<?xml version="1.0" encoding="utf-8"?>
<!-- Generator: Adobe Illustrator 22.1.0, SVG Export Plug-In . SVG Version: 6.00 Build 0)  -->
<svg version="1.0" id="Layer_1" xmlns="http://www.w3.org/2000/svg" xmlns:xlink="http://www.w3.org/1999/xlink" x="0px" y="0px"
	 viewBox="0 0 432 432" style="enable-background:new 0 0 432 432;" xml:space="preserve">
<style type="text/css">
	.st0{fill:#DC2127;}
	.st1{fill:#26582C;}
</style>
<path class="st0" d="M417.3,251.2c-3.7-4.4-8.5-6.6-14.6-6.6c-3.8,0-7.4,0.7-10.8,2c-3.4,1.4-6.6,3.1-9.7,5.2
	c-3.1,2.1-6.2,4.3-9.2,6.7c-3,2.3-6,4.5-9.1,6.6c-3.1,2.1-6.2,3.7-9.5,5.1c-3.3,1.3-6.8,2-10.4,2c-1,0-2-0.1-3-0.3
	c0.8-3,1.2-6.1,1.2-9.5c0-5.8-1-11.5-3-17.2c-1.3-3.7-3.1-7-5.3-10c-2.2-3-5-5.1-8.2-6.5c-1.9-0.8-3.8-1.2-5.8-1.2
	c-2.9,0-5.7,0.6-8.3,1.8c-2.6,1.2-4.8,3-6.7,5.5c-3.4,4.4-5.1,9.2-5.1,14.4c0,2.3,0.4,4.4,1.1,6.5c0.7,2,1.9,3.7,3.4,5
	c1.5,1.3,3.4,1.9,5.7,1.9c5.9,0,10.1-2.8,12.7-8.5c2,8.8,5.4,14.9,10.1,18.3c1.1,0.8,2.3,1.4,3.5,2c-3.6,8.4-10.6,12.5-21,12.5
	c-10.1,0-17.9-5.3-23.4-15.8c-1.3-2.6-2.5-5.3-3.5-8.1c-0.3-1-0.7-1.6-1.2-2c0.5-1.5,0.9-3.1,1.1-4.7c0.3-2.5,0.2-4.9-0.3-7.1
	c-0.5-2.2-1.5-4.1-2.8-5.7c-1.3-1.6-3.2-2.5-5.5-2.6c-1.4-0.1-2.6,0.2-3.8,0.8c-1.2,0.6-2.2,1.3-2.9,2.1c0.2-1.8,0.3-3.3,0.4-4.7
	c0.1-1.4,0.2-2.5,0.4-3.3c0.2-1-0.2-1.6-1.1-1.9c-0.9-0.3-1.9-0.2-3,0.1c-1.1,0.3-2.2,1-3.2,1.9c-1,0.9-1.5,2.1-1.5,3.5
	c0,0.7,0,2-0.1,3.9c0,1.9-0.1,4.3-0.1,6.9c0,2.7-0.1,5.6-0.2,8.7c-0.1,3.1-0.2,6.2-0.3,9.1c-0.1,3-0.3,5.7-0.4,8.2
	c-0.2,2.5-0.3,4.5-0.5,6.1c-0.2,0.9,0.2,1.6,1,2c0.8,0.4,1.8,0.6,2.7,0.6c1,0,1.9-0.3,2.8-0.7c0.9-0.5,1.3-1.1,1.3-1.9
	c0-1.5,0-3.6,0.1-6.1c0-2.6,0.1-5.3,0.3-8.3c0.2,0.2,0.5,0.4,0.7,0.6c0.2,0.2,0.5,0.3,0.7,0.5c1.4,0.9,2.7,1.4,4.1,1.4
	c2.1,0.2,3.9-0.4,5.4-1.8c1.1-1,2.1-2.2,3-3.6c6.5,17.3,16.5,26,29.9,26c12,0,20.2-5.1,24.4-15.2c1.3,0.3,2.8,0.4,4.2,0.4
	c4.3,0,8.4-0.8,12.3-2.5c3.1-1.3,6-2.8,8.8-4.7c3.2-2.1,6.6-4.6,10.1-7.3c2.8-2.1,5.6-4.2,8.5-6.1c2.9-2,5.9-3.6,9.1-4.9
	c3.1-1.3,6.4-2,9.9-2c5,0,9,1.8,11.9,5.3c2.7,3.3,4,7.1,4,11.6c0,3-0.7,5.7-2,8.3c-1.3,2.4-3,4.2-5.1,5.4c-2.1,1.2-4.4,1.8-7,1.8
	c-3.4,0-6.2-1.1-8.3-3.1c-1.8-1.8-2.7-4.1-2.7-6.9c0-3.8,1.4-6.3,4.2-7.7c1.5,0.6,3.1,0.9,4.8,0.9c2.5,0,3.7-1,3.7-2.9
	c0-2-1.2-2.9-3.7-2.9c-2.8,0-5.4,0.8-7.7,2.3c-2.3,1.5-3.9,3.8-4.6,7c-0.2,0.9-0.3,2.1-0.3,3.5c0,3.9,1.3,7.2,3.8,9.8
	c2.8,2.8,6.3,4.2,10.7,4.2c3.2,0,6.1-0.8,8.8-2.3c2.7-1.5,4.8-3.8,6.4-6.9c1.7-3.2,2.6-6.6,2.6-10.3
	C422.3,259.9,420.6,255.2,417.3,251.2z M280.5,255.9c-0.2,1.7-0.6,3.3-1,4.7s-1,2.6-1.6,3.5c-0.6,0.9-1.4,1.3-2.1,1.1
	c-0.9-0.2-1.7-0.8-2.3-1.9c-0.6-1.1-1-2.5-1.1-4.1c-0.2-1.6-0.1-3.3,0.2-5.1c0.3-1.8,0.7-3.5,1.4-5.1c0.5-0.9,1-1.7,1.7-2.4
	c0.7-0.7,1.4-1,2.3-0.9c0.8,0.1,1.5,0.6,1.9,1.7c0.4,1,0.7,2.3,0.8,3.8C280.8,252.5,280.7,254.2,280.5,255.9z M337.6,270.6
	c-6.2-2.5-10.4-10.6-12.7-24.4c-0.6-3.3-1.3-5-2.3-5c-1,0-1.5,1.7-1.5,5.2c0,2.9-1,5.7-3.1,8.2c-2.1,2.6-4.7,3.8-8,3.8
	c-1.6,0-2.9-0.5-3.9-1.4c-1-1-1.7-2.2-2.1-3.6c-0.4-1.5-0.6-3-0.6-4.5c0-4.3,1.4-8.2,4.2-11.8c3.1-4,7.2-6,12.3-6
	c1.6,0,3.1,0.3,4.5,0.9c3.6,1.6,6.6,4.6,9,9c3.5,6.4,5.2,13.4,5.2,21C338.6,265.3,338.3,268,337.6,270.6z M209.3,254.2
	c-2.2-1.7-4.6-3.2-7.1-4.6c-2.6-1.3-4.9-2.5-7.1-3.4c-2.3-0.9-5.1-1.9-8.6-2.9c-3.4-1-7.1-2.1-10.9-3.1c-3.8-1-7.6-2.1-11.4-3.2
	c-3.8-1.1-7.1-2.2-10.1-3.4c-3-1.2-5.4-2.4-7.2-3.7c-1.8-1.3-2.7-2.5-2.5-3.8c0.2-2.2,1.2-4.2,3.2-5.9c2-1.8,4.5-3.3,7.5-4.6
	c3-1.3,6.4-2.5,10.2-3.4c3.7-0.9,7.4-1.7,11-2.3c3.6-0.6,7-1,10.1-1.3c3.1-0.3,5.6-0.4,7.6-0.4c2,0,4.4,0.1,7.3,0.4
	c2.9,0.3,5.7,0.7,8.3,1.3c2.6,0.6,4.9,1.3,6.7,2.2c1.9,0.9,2.8,2,2.8,3.3c0,0.7-0.4,1.2-1.3,1.7c-0.9,0.4-1.8,0.8-2.9,1.1
	c-1,0.3-2,0.8-2.9,1.3c-0.9,0.5-1.3,1.1-1.3,1.9c0,0.4,0.2,0.7,0.6,1c0.4,0.3,0.9,0.5,1.5,0.7c0.6,0.2,1.1,0.3,1.7,0.5
	c0.5,0.1,0.9,0.2,1,0.2c3,0,5.6-0.8,7.8-2.5c2.2-1.6,3.3-3.9,3.3-6.8c0-2.1-0.6-4-1.9-5.6c-1.3-1.6-2.9-3-4.9-4.1
	c-2-1.1-4.2-2.1-6.7-2.8c-2.5-0.7-5-1.3-7.4-1.7c-2.4-0.4-4.7-0.7-6.9-0.9c-2.2-0.2-3.9-0.2-5.3-0.2c-2.7,0-5.9,0.2-9.8,0.5
	c-3.8,0.3-7.9,0.9-12.1,1.7s-8.4,1.9-12.6,3.2c-4.2,1.3-8,3-11.4,5c-3.4,2-6.2,4.3-8.4,7.1c-2.2,2.7-3.4,5.9-3.6,9.5
	c-0.2,2.5,0.6,4.7,2.1,6.5s4.1,3.6,7.5,5.3c3.5,1.7,8,3.5,13.6,5.2c5.6,1.8,12.4,3.8,20.3,6.1c2.7,0.8,5.9,1.8,9.5,3
	c3.6,1.1,7,2.5,10.1,4.1c3.2,1.6,5.8,3.3,8,5.1c2.2,1.9,3.3,3.9,3.3,6.2c0,1.8-0.6,3.1-1.9,4c-1.3,0.9-2.9,1.6-4.7,2.1
	c-1.8,0.5-3.7,0.7-5.5,0.8c-1.9,0.1-3.4,0.1-4.5,0.1c-6.4,0-12.8-0.7-19.1-2.2c-6.3-1.5-12.2-3.6-17.7-6.5c-0.8-0.4-1.8-0.9-2.9-1.6
	c-1.1-0.7-2.2-1.5-3.3-2.4c-1.1-0.9-2-1.9-2.7-3c-0.7-1.1-1.1-2.2-1.1-3.3c0-0.8,0.2-1.4,0.5-2c0.3-0.6,0.9-1.1,1.6-1.7
	c0.7-0.5,1.6-1.1,2.6-1.6c1-0.5,2.2-1.2,3.5-1.9c0.8-0.5,1.1-0.8,1.1-1.1s-0.2-0.6-0.6-0.8c-0.4-0.2-0.8-0.4-1.4-0.5
	c-0.5-0.1-1-0.1-1.4-0.1c-1.8,0-3.4,0.3-4.8,0.9c-1.4,0.6-2.5,1.3-3.5,2.2c-1,0.9-1.7,1.9-2.2,3.1c-0.5,1.1-0.7,2.3-0.7,3.4
	c0,2.3,0.6,4.4,1.8,6.2c0.1,0.2,0.3,0.4,0.4,0.6c-0.1,0.2-0.2,0.4-0.3,0.7c-1,2.9-2.2,5.6-3.5,8.1c-5.5,10.5-13.4,15.8-23.4,15.8
	c-10.4,0-17.4-4.2-21-12.5c1.3-0.6,2.5-1.3,3.5-2c4.7-3.5,8-9.6,10.1-18.3c2.6,5.7,6.8,8.5,12.7,8.5c2.3,0,4.2-0.6,5.7-1.9
	c1.5-1.3,2.6-3,3.4-5c0.7-2.1,1.1-4.2,1.1-6.5c0-5.2-1.7-10-5.1-14.4c-1.9-2.5-4.1-4.3-6.7-5.5c-2.6-1.2-5.4-1.8-8.3-1.8
	c-2,0-3.9,0.4-5.8,1.2c-3.2,1.4-6,3.6-8.2,6.5c-2.2,3-4,6.3-5.3,10c-2,5.7-3,11.4-3,17.2c0,3.4,0.4,6.5,1.2,9.5
	c-0.9,0.2-1.9,0.3-3,0.3c-3.7,0-7.2-0.7-10.4-2c-3.3-1.3-6.4-3-9.5-5.1c-3.1-2.1-6.1-4.3-9.1-6.6c-3-2.3-6-4.5-9.2-6.7
	c-3.1-2.1-6.4-3.8-9.7-5.2c-3.4-1.4-7-2-10.8-2c-6.1,0-11,2.2-14.6,6.6c-3.3,4-4.9,8.7-4.9,14.1c0,3.7,0.9,7.1,2.6,10.3
	c1.6,3.1,3.7,5.4,6.4,6.9c2.6,1.5,5.6,2.3,8.8,2.3c4.4,0,7.9-1.4,10.7-4.2c2.6-2.6,3.8-5.9,3.8-9.8c0-1.4-0.1-2.5-0.3-3.5
	c-0.8-3.1-2.3-5.5-4.6-7c-2.3-1.5-4.9-2.3-7.7-2.3c-2.5,0-3.7,1-3.7,2.9c0,2,1.2,2.9,3.7,2.9c1.7,0,3.3-0.3,4.8-0.9
	c2.8,1.4,4.2,3.9,4.2,7.7c0,2.8-0.9,5.1-2.7,6.9c-2.1,2.1-4.9,3.1-8.3,3.1c-2.6,0-4.9-0.6-7-1.8c-2.1-1.2-3.8-3-5.1-5.4
	c-1.4-2.6-2-5.3-2-8.3c0-4.5,1.3-8.4,4-11.6c3-3.6,6.9-5.3,11.9-5.3c3.5,0,6.8,0.6,9.9,2c3.1,1.3,6.2,2.9,9.1,4.9
	c2.9,2,5.7,4,8.5,6.1c3.6,2.8,6.9,5.2,10.1,7.3c2.8,1.9,5.8,3.4,8.8,4.7c4,1.7,8.1,2.5,12.3,2.5c1.4,0,2.9-0.2,4.2-0.4
	c4.3,10.1,12.4,15.2,24.4,15.2c13.3,0,23.2-8.5,29.7-25.6c0.5,0.5,1,1,1.6,1.5c1.8,1.6,3.8,2.9,6.1,4.1c2.2,1.2,4.3,2.2,6.3,2.9
	c5.5,2.2,11.1,3.9,17,5.1c5.8,1.2,11.8,1.8,18,1.8c2.7,0,5.4-0.3,8-0.7c2.6-0.5,4.9-1.3,6.9-2.4c2-1.1,3.6-2.5,4.9-4.2
	c1.2-1.7,1.8-3.8,1.8-6.2c0-2.6-0.7-5-2.2-7.1C213.4,257.8,211.5,255.9,209.3,254.2z M93.4,262.3c0-7.6,1.7-14.6,5.2-21
	c2.4-4.5,5.4-7.5,9-9c1.5-0.6,3-0.9,4.5-0.9c5.1,0,9.1,2,12.3,6c2.8,3.6,4.2,7.5,4.2,11.8c0,1.5-0.2,3-0.6,4.5
	c-0.4,1.5-1.1,2.7-2.1,3.6c-1,0.9-2.3,1.4-3.9,1.4c-3.3,0-6-1.3-8-3.8c-2.1-2.6-3.1-5.3-3.1-8.2c0-3.5-0.5-5.2-1.5-5.2
	c-1,0-1.8,1.7-2.3,5c-2.3,13.8-6.5,21.9-12.7,24.4C93.7,268,93.4,265.3,93.4,262.3z M257.1,243.3c-1.7-1.4-3.8-2.2-6.5-2.4
	c-2.3-0.2-4.3,0.5-5.9,1.8s-3,3.1-4.1,5.2c-0.7,1.4-1.2,2.8-1.5,4.4c-0.2,0.6-0.7,1.7-1.3,3.3c-0.7,1.7-1.4,3.5-2.3,5.3
	c-0.8,1.8-1.7,3.4-2.5,4.7c-0.8,1.4-1.4,2.1-1.9,2.1c-0.5,0-0.9-1-1-2.9c-0.2-1.9-0.2-4.4-0.1-7.3c0.1-2.9,0.2-6.1,0.5-9.4
	c0.2-3.3,0.5-6.3,0.8-9.1h3.4c1.2,0,2.2-0.2,2.9-0.7c0.7-0.5,1-1,1-1.5c0-0.6-0.3-1.1-1-1.6c-0.6-0.5-1.7-0.7-3.1-0.7h-2.7l0.6-3
	c0.2-1.2-0.1-2.2-1-3c-0.9-0.8-1.9-1.2-3-1.3c-1.1-0.1-2.2,0.2-3.2,1c-1,0.7-1.5,2-1.5,3.8c0,0.4,0,0.8-0.1,1.3c0,0.5-0.1,1-0.1,1.5
	h-3.1c-1.4,0-2.4,0.2-3,0.7c-0.6,0.5-0.9,1-0.9,1.5c0,0.5,0.4,1,1,1.5c0.6,0.5,1.6,0.7,2.8,0.7h2.7c-0.2,2.2-0.3,4.6-0.6,7.3
	c-0.2,2.6-0.4,5.2-0.5,7.8c-0.1,2.6-0.1,5.1,0.1,7.5c0.1,2.4,0.4,4.6,0.9,6.5c0.5,1.9,1.1,3.4,2.1,4.5c0.9,1.1,2.1,1.7,3.5,1.7
	c2.2,0,4.1-0.8,5.7-2.5c1.6-1.7,3-3.7,4.1-5.9c0.5-0.9,0.9-1.9,1.3-2.8c0.7,1.5,1.7,2.8,2.9,4c1.7,1.4,3.9,2.2,6.7,2.2
	c2.5,0,4.7-0.7,6.5-2.1c1.8-1.4,3.2-3.1,4.2-5.1c1-2.1,1.5-4.3,1.7-6.7c0.1-2.4-0.2-4.7-1-6.8C260,246.6,258.8,244.8,257.1,243.3z
	 M254.2,259.6c-0.2,1.4-0.6,2.6-1.1,3.4c-0.5,0.9-1.2,1.3-2.1,1.2c-1-0.1-1.8-0.6-2.4-1.6c-0.6-1-1.1-2.2-1.4-3.6
	c-0.3-1.4-0.5-2.9-0.5-4.6c0-1.6,0.1-3.1,0.4-4.5c0.3-1.4,0.7-2.5,1.2-3.4c0.5-0.9,1.2-1.4,1.9-1.4c0.8,0,1.6,0.5,2.2,1.5
	c0.6,1,1.1,2.2,1.4,3.7c0.3,1.4,0.5,3,0.6,4.7C254.5,256.7,254.4,258.2,254.2,259.6z M347.6,228.6c-1,0.5-2.2,1.1-3.1,1.6l-0.5,0.3
	l-1.8-0.7c-1-0.4-2.3-0.9-2.9-1.2c-1.3-0.5-1.4-0.6-1.8-0.3c-0.8,0.5-0.8,1.6,0.1,2c0.3,0.1,2.4,1,3.1,1.3c0.4,0.1,0.7,0.3,0.7,0.3
	c0,0-0.9,0.5-2.1,1.2c-0.6,0.3-0.8,0.6-0.8,1c0,0.4,0.1,0.7,0.4,1c0.3,0.2,0.4,0.3,0.8,0.3c0.3,0,0.6-0.1,1.7-0.8
	c0.9-0.5,1.2-0.7,1.2-0.6c0,0-0.2,0.7-0.3,1.6c-0.5,2.1-0.5,2.2-0.4,2.5c0.1,1.1,1.7,1.4,2.1,0.3c0-0.1,0.1-0.4,0.2-0.6
	c0-0.2,0.2-1.1,0.4-1.9c0.2-0.8,0.4-1.9,0.5-2.4c0.1-0.5,0.2-1,0.3-1c0.1-0.1,0.7-0.4,2.2-1.2c0.6-0.3,1.6-0.8,2.3-1.2
	s1.2-0.6,1.2-0.6c0,0,0,0.3,0,0.6c0,0.3,0,1,0.1,1.4c0,0.5,0.1,1.5,0.2,2.3c0.2,3.4,0.2,3.6,0.7,4c0.3,0.3,0.9,0.4,1.2,0.2
	c0.1,0,0.7-0.5,1.5-1.1c0.8-0.6,1.9-1.4,2.5-1.8c1.5-1,1.5-1,1.5-1c0,0,0,1.1,0,2.4l0,2.4l-0.5,0.3c-0.7,0.6-3.7,3-3.9,3.2
	c-0.3,0.4-0.4,0.9-0.1,1.3c0.2,0.4,0.5,0.6,0.9,0.6c0.4,0,0.7-0.1,1-0.4c0.3-0.3,2.5-2.2,2.6-2.2c0.1,0,0.1,1.3,0.1,2.3
	c0,0.6,0,0.7,0.1,0.9c0.3,0.7,1.3,0.8,1.8,0.3c0.3-0.3,0.3-0.4,0.3-1.9l0-1.4l0.2,0.2c0.1,0.1,0.6,0.6,1.1,1.1
	c1.2,1.2,1.6,1.5,2.1,1.5c0.8,0,1.4-0.8,1.1-1.6c-0.1-0.3-0.2-0.4-0.5-0.6c-0.1-0.1-1.2-1-2.2-2.1l-2-1.9l0-2.5c0-2.4,0-2.5,0.1-2.5
	c0.6,0.2,3.4,1.2,4.5,1.6c2.1,0.8,2.9,1.1,3.6,1.1c0.5,0,0.7-0.1,1-0.3c0.3-0.2,0.4-0.6,0.4-1c0-0.3-0.3-1.2-1.1-3.2
	c-0.5-1.1-1.1-2.8-1.1-2.9c0,0,0,0,0.1,0c0.1,0,2.1,0.9,3.2,1.4c0.9,0.4,2.7,1.3,3.2,1.5c0.2,0.1,0.4,0.2,0.4,0.2
	c0,0,0.1,0.3,0.1,0.6c0.1,0.3,0.2,1,0.4,1.6c0.1,0.6,0.4,1.6,0.5,2.3c0.1,0.7,0.3,1.3,0.3,1.4s0.2,0.3,0.3,0.4
	c0.7,0.6,1.8,0.1,1.8-0.8c0-0.3-0.4-2.4-0.7-3.5c-0.1-0.4-0.2-0.7-0.1-0.7c0.1,0,1.8,0.7,1.9,0.8c0.4,0.2,1,0.2,1.3-0.1
	c0.5-0.4,0.6-1,0.2-1.5c-0.1-0.2-0.6-0.4-1.8-1c-0.3-0.1-0.5-0.2-0.5-0.2c0-0.1,1.6-0.7,2.6-0.9c0.7-0.2,1.1-0.9,0.8-1.6
	c-0.2-0.4-0.7-0.7-1.2-0.6c-0.4,0.1-1.7,0.5-2.5,0.8c-0.4,0.2-1.2,0.5-1.7,0.7l-0.9,0.4l-1-0.4c-0.5-0.2-1.7-0.8-2.5-1.2
	c-0.8-0.4-1.7-0.8-1.9-0.9c-0.2-0.1-0.4-0.2-0.4-0.2c0,0,0.2-0.2,0.5-0.3c1.2-0.7,4.3-3,4.9-3.6c0.3-0.3,0.4-0.4,0.4-0.7
	c0.1-0.4,0.1-0.7-0.2-1c-0.3-0.3-0.5-0.4-1.2-0.7c-0.6-0.2-4.2-1.4-4.5-1.5c-0.2-0.1-0.2,0,2.4-1.3l2-1l0.4,0.3
	c0.8,0.5,3.6,2.1,4.7,2.6c0.6,0.3,1,0.3,1.4,0c0.5-0.3,0.6-1.3,0.1-1.7c-0.1-0.1-0.8-0.5-1.7-1c-2.2-1.2-2.6-1.4-2.6-1.4
	c0-0.1,1.6-0.9,1.7-0.9c0.2,0,0.5-0.2,0.7-0.4c0.3-0.3,0.4-0.7,0.3-1.1c-0.1-0.4-0.4-0.7-0.8-0.8c-0.4-0.1-0.7,0-1.7,0.5
	c-0.5,0.3-0.9,0.5-0.9,0.5c-0.1-0.1,0.6-2.3,0.9-3c0.2-0.5,0.2-0.9,0-1.3c-0.4-0.6-1.3-0.6-1.8-0.1c-0.3,0.3-0.8,1.8-1.3,3.6
	c-0.2,0.6-0.4,1.4-0.5,1.7l-0.2,0.6l-1.9,1c-1,0.5-2.2,1.1-2.7,1.4c-0.6,0.3-0.8,0.4-0.8,0.3c0,0,0-0.4,0-0.8c0.1-0.9,0.1-2.5,0-4.5
	c-0.1-1.9-0.2-2.4-0.6-2.8c-0.3-0.3-0.5-0.4-0.8-0.4c-0.4,0-0.4,0-1.6,0.8c-1.1,0.7-1.7,1.2-2.5,1.9c-0.4,0.3-0.9,0.7-1.1,0.9
	l-0.4,0.4v-0.7c0-0.4,0-1.2,0-1.9l0-1.2l1.4-1c0.8-0.5,1.9-1.2,2.4-1.6c0.9-0.5,1-0.7,1.1-0.9c0.3-0.5,0.1-1.2-0.4-1.5
	c-0.3-0.2-0.7-0.2-1-0.1c-0.2,0.1-2.7,1.6-3.3,2c-0.1,0.1-0.2,0.2-0.3,0.2s0-0.7,0-1.4l0-1.5l-0.2-0.3c-0.2-0.5-0.8-0.7-1.3-0.5
	c-0.3,0.1-0.5,0.3-0.7,0.6c-0.1,0.1-0.1,0.4-0.1,1.4l-0.1,1.2l-0.5-0.6c-0.5-0.6-0.8-0.9-1.3-1.5c-0.3-0.4-0.6-0.5-1-0.5
	c-0.5,0-0.9,0.3-1,0.9c-0.2,0.6,0.2,1.2,2.4,3.4c0.7,0.7,1.3,1.3,1.3,1.4c0.1,0.1,0.1,0.2,0.1,2.5l0,2.3l-0.3-0.1
	c-0.2-0.1-0.6-0.3-0.9-0.4c-0.4-0.2-1.5-0.7-2.7-1.2c-1.1-0.5-2.5-1.1-3.1-1.4c-1.2-0.6-1.5-0.6-1.9-0.4c-0.5,0.2-0.8,0.7-0.7,1.2
	c0,0.1,0.1,0.4,0.2,0.7c0.2,0.6,0.4,1.3,0.6,2c0.1,0.3,0.2,0.8,0.2,1c0.1,0.4,0.7,3.1,0.8,3.4c0,0.2,0,0.2-0.1,0.1
	c-0.1,0-1-0.4-4-1.7c-0.7-0.3-1.5-0.6-1.8-0.8l-0.6-0.2l-0.1-0.5c-0.5-2.3-1.4-5.6-1.5-5.9c-0.2-0.4-0.8-0.6-1.3-0.4
	c-0.4,0.1-0.8,0.6-0.8,1.1c0,0.1,0.1,0.6,0.2,1c0.4,1.4,0.9,3.6,0.9,3.6c0,0-1.6-0.6-2.2-0.9c-0.6-0.3-1.2-0.2-1.6,0.3
	c-0.3,0.4-0.3,1,0.1,1.4c0.2,0.2,0.9,0.5,2.2,1.1c0.4,0.2,0.8,0.3,0.8,0.4c0.1,0.1-1.9,1-2.8,1.3c-0.3,0.1-0.6,0.3-0.8,0.4
	c-0.8,0.7-0.3,2,0.7,2c0.4,0,1.3-0.3,2.7-1c0.4-0.2,1.2-0.6,1.8-0.8c0.6-0.2,1.1-0.5,1.2-0.5c0.2-0.1,0.2-0.1,1,0.3
	c0.5,0.2,1.5,0.6,2.3,1c0.8,0.4,1.5,0.7,1.6,0.7c0.1,0.1,0.1,0.1,0,0.1c-0.1,0-0.5,0.3-0.9,0.5c-2.8,1.5-3.4,1.8-4.3,2.4
	c-0.8,0.6-1.1,0.9-1.1,1.5c0,0.6,0.3,0.9,1,1.2c0.9,0.4,4.7,1.5,5.3,1.7C349.1,227.9,349.1,227.9,347.6,228.6z M367.4,220.8l0.2,0.1
	c0.1,0.1,0.5,0.2,0.8,0.3c0.3,0.1,1.4,0.5,2.5,0.9l1.9,0.6l-1,0.7c-1.3,0.9-1.8,1.3-2.7,1.8c-0.4,0.2-0.9,0.5-1,0.6l-0.3,0.2
	l-1.4-0.6c-0.7-0.3-1.7-0.7-2.1-0.9l-0.8-0.3l0-0.5c0-0.3-0.1-0.5-0.1-0.6c0-0.2-0.2-0.1,3-1.7L367.4,220.8z M361,218.3l0.1-2.1
	l0.3-0.3c0.2-0.1,0.8-0.7,1.5-1.2s1.3-1.1,1.5-1.3c0.2-0.2,0.6-0.5,0.9-0.7l0.6-0.5l0,0.5c0,0.3,0,1.2,0.1,2c0,0.9,0,1.9-0.1,2.5
	c0,0.6-0.1,1.2-0.1,1.4l0,0.4l-1.6,0.8c-0.9,0.5-1.7,0.9-1.8,1l-0.2,0.1l-0.3-0.2c-0.2-0.1-0.4-0.2-0.5-0.2c-0.1,0-0.2-0.1-0.3-0.1
	C361,220.4,361,219.5,361,218.3z M361.3,227.6c0.5-0.3,0.8-0.6,1.1-1c0.1-0.2,0.3-0.3,0.3-0.3s0.2,0.1,0.3,0.1
	c0.2,0.1,0.8,0.3,1.4,0.6c0.6,0.3,1.1,0.5,1.1,0.5c0,0,0.1,0.2,0.2,0.4c0.2,0.8,1,3.2,1.5,4.4c0.3,0.7,0.5,1.3,0.5,1.3
	c0,0-0.7-0.2-1.5-0.6c-0.8-0.3-2-0.8-2.6-1c-0.6-0.2-1.5-0.5-1.8-0.7l-0.7-0.3v-1c0-0.6,0-1.3,0-1.6l0-0.6L361.3,227.6z
	 M358.7,231.2l-0.1,0.1c-0.1,0.1-0.5,0.4-1,0.7c-0.9,0.6-2.4,1.7-3.4,2.4c-0.3,0.3-0.7,0.5-0.7,0.4c0,0-0.1-0.4-0.1-0.9
	c0-0.5-0.1-1.4-0.1-2.2c-0.1-0.7-0.1-1.8-0.1-2.4l0-1.1l0.9-0.5c1-0.5,2.1-1.2,2.2-1.2c0,0,0.2,0.2,0.4,0.4c0.3,0.3,0.5,0.4,0.9,0.6
	c0.3,0.2,0.7,0.3,0.8,0.4l0.3,0.1l0,0.4c0,0.2,0,0.9,0,1.6V231.2z M352.9,213.7c0.4,0.2,1.2,0.5,1.8,0.8c1.5,0.7,3.9,1.8,4,1.9
	c0.1,0.1,0,3.7-0.1,3.8c0,0-0.1,0-0.2,0c-0.2,0-0.8,0.2-1,0.4c-0.1,0.1-0.3,0.2-0.5,0.4l-0.2,0.2l-0.7-0.3c-2.4-1-2.4-1-2.4-1.1
	c-0.1-0.6-1.1-4.8-1.1-5.1c0-0.1-0.1-0.4-0.2-0.7l-0.1-0.6L352.9,213.7z M347.6,225.1c-0.8-0.2-1.5-0.5-1.5-0.5c0,0,1.1-0.6,2.8-1.5
	c0.4-0.2,1.2-0.7,1.7-1c0.5-0.3,0.9-0.5,1-0.5c0.1,0,1,0.4,2,0.8l1.9,0.8l0,0.2c0,0.1,0,0.4-0.1,0.6l0,0.5l-1.8,0.9
	c-1,0.5-1.8,0.9-1.8,1c-0.1,0-0.4-0.1-0.8-0.3C350,225.8,349.3,225.6,347.6,225.1z"/>
<path class="st1" d="M53.9,209.1c3.8,3,8.1,5.2,12.9,6.6c4.8,1.4,9.9,2.1,15,2.1c4,0,8.1-0.6,12.3-1.7c4.3-1.1,8.4-2.7,12.5-4.8
	c4.1-2.1,8-4.5,11.7-7.4c3.7-2.9,6.9-6,9.7-9.4c2.8-3.4,5-7,6.6-10.9c1.6-3.8,2.5-7.8,2.5-11.8c0-8.5-1.3-16.8-3.8-24.6
	c-2.6-7.9-5.8-15.5-9.7-22.8c-3.9-7.3-8.1-14.2-12.5-20.8c-4.5-6.6-8.6-12.8-12.5-18.6c-3.9-5.9-7.1-11.4-9.7-16.5
	c-2.6-5.1-3.8-9.9-3.8-14.2c0-2.1,0.4-4.3,1.3-6.6c0.9-2.3,2-4.4,3.5-6.3c1.4-1.9,3.1-3.5,4.9-4.8c1.8-1.3,3.7-1.9,5.6-1.9
	c2.9,0,5.5,0.6,7.7,1.7c2.3,1.1,4.3,2.7,6,4.7c-2.7,2-4.8,4.5-6.3,7.6c-1.5,3.1-2.3,6.5-2.3,10.4c0,2,0.2,3.9,0.7,5.8
	c0.5,1.9,1.2,3.5,2,4.9c0.8,1.4,1.8,2.5,2.9,3.4c1.1,0.8,2.3,1.3,3.6,1.3c1.2,0,2.4-0.3,3.7-1c1.2-0.7,2.3-1.7,3.3-3.1
	c1-1.4,1.8-3.2,2.5-5.5c0.6-2.2,1-4.9,1-8.1c0-3-0.5-5.8-1.5-8.4c-1-2.6-2.5-5-4.3-7.2c3.2-1.8,7-2.6,11.3-2.6c2.7,0,5.1,0.5,7,1.6
	c1.9,1.1,3.4,2.4,4.6,3.9c1.2,1.6,2.1,3.2,2.6,5c0.6,1.8,0.9,3.4,1.1,4.7c0.1,0.6,0.3,1,0.7,1.3c0.4,0.3,0.7,0.4,1.1,0.4
	c0.3,0,0.6-0.2,0.9-0.5c0.3-0.3,0.4-0.8,0.3-1.4c-0.2-1.8-0.8-3.8-1.6-5.8s-2-3.9-3.5-5.7c-1.5-1.7-3.3-3.1-5.5-4.3
	c-2.2-1.1-4.7-1.7-7.7-1.7c-2.4,0-4.8,0.2-7,0.7c-2.3,0.5-4.3,1.2-6.1,2.3c-2.4-2.4-5.2-4.2-8.3-5.6c-3.1-1.4-6.2-2.1-9.4-2.1
	c-2.4,0-5.1,0.6-8.3,1.9c-3.2,1.3-6.2,3.1-9,5.4c-2.9,2.3-5.3,5.1-7.3,8.4c-2,3.3-3,6.9-3,10.9c0,5.1,0.6,10,1.8,14.6
	c1.2,4.6,2.8,9.1,4.9,13.5c2,4.4,4.3,8.7,6.9,12.8c2.6,4.2,5.3,8.3,8,12.5c2.7,4.2,5.5,8.4,8.2,12.6c2.7,4.3,5.2,8.7,7.4,13.2
	c-4.1,2.7-8,5.5-11.6,8.6c-3.6,3.1-7,6.3-10.1,9.6c-2.4-3.4-5.3-6.2-8.6-8.3s-7-3.1-11-3.1c-2.8,0-5.8,0.6-8.9,1.9
	c-3.1,1.3-6,3.3-8.6,6.2c-2.6,2.9-4.8,6.7-6.6,11.3c-1.8,4.7-2.6,10.3-2.6,17c0,6.7,1.1,12.4,3.4,17.2
	C47.1,202.2,50.1,206.1,53.9,209.1z M119,50.2c0.7,2.4,1,4.9,1,7.3c0,2.7-0.2,4.9-0.5,6.7c-0.3,1.8-0.7,3.3-1.2,4.4
	c-0.5,1.1-1,1.9-1.7,2.3c-0.6,0.5-1.2,0.7-1.8,0.7c-0.5,0-1.1-0.2-1.6-0.5c-0.5-0.3-1-1-1.5-2c-0.5-1-0.8-2.3-1.1-4
	c-0.3-1.7-0.5-3.8-0.5-6.5c0-3.3,0.5-6.2,1.6-8.7c1.1-2.6,2.5-4.7,4.3-6.5C117.4,45.5,118.3,47.8,119,50.2z M88.4,169.9
	c0.6,2.6,0.9,4.9,0.9,6.9c0,2.5-0.3,4.9-1,7.3c-0.6,2.3-1.5,4.4-2.6,6.1c-1.1,1.8-2.3,3.2-3.5,4.2c-1.3,1.1-2.6,1.6-3.9,1.6
	c-1.3,0-2.3-0.3-2.9-1c-0.6-0.7-1.1-1.5-1.4-2.5c-0.3-1-0.5-2-0.5-3.1s0-2.1,0-3c0-3.5,1.1-7.4,3.3-11.6c2.2-4.2,5.1-8.5,8.9-12.8
	C86.8,164.6,87.8,167.3,88.4,169.9z M47.1,167c1.1-4.1,2.6-7.6,4.6-10.6c2-3,4.3-5.4,7-7.2c2.7-1.8,5.7-2.7,8.9-2.7
	c3.8,0,7.1,1.2,9.8,3.7c2.7,2.4,5,5.4,6.9,8.9c-4.8,5.3-8.6,10.4-11.3,15.5c-2.7,5.1-4.1,9.6-4.1,13.4c0,3.3,0.8,6.1,2.4,8.4
	c1.6,2.3,3.8,3.5,6.7,3.5c1.8,0,3.7-0.5,5.5-1.5c1.9-1,3.6-2.5,5.1-4.5c1.5-2,2.8-4.6,3.8-7.6c1-3.1,1.5-6.6,1.5-10.8
	c0-3.2-0.4-6.3-1.3-9.3c-0.8-3-1.9-5.8-3.2-8.3c6-6.4,13.1-12.4,21.3-18c2.1,4.9,3.9,9.9,5.2,15c1.3,5.1,2,10.7,2,16.5
	c0,3.5-0.6,7-1.9,10.3c-1.3,3.4-3,6.6-5.3,9.6c-2.2,3-4.8,5.8-7.7,8.3s-6.1,4.7-9.4,6.5c-3.3,1.8-6.7,3.3-10.2,4.3
	c-3.5,1-6.9,1.5-10.2,1.5c-3.5,0-6.9-0.7-10.3-2c-3.4-1.3-6.3-3.4-8.9-6.1c-2.6-2.7-4.7-6.1-6.3-10.1c-1.6-4-2.4-8.7-2.4-14
	C45.5,175.4,46,171.1,47.1,167z M213.3,128.9c1.6-4.3,3.4-8.1,5.4-11.4c0.8-1.4,1.7-2.9,2.7-4.2c1-1.4,1.9-2.6,3-3.7
	c1-1.1,2.1-1.9,3.3-2.6c1.1-0.6,2.3-1,3.4-1c2.9,0,5.2,0.6,7,1.9c1.8,1.3,3.1,2.9,4,4.9c0.9,2,1.5,4.3,1.8,6.8
	c0.3,2.5,0.4,5,0.4,7.6c0,2.9-0.3,6.6-0.8,11.2c-0.5,4.6-1.1,9.4-1.8,14.5c-0.6,5.1-1.3,10.3-1.9,15.5c-0.6,5.2-1.1,9.9-1.3,14
	c-0.2,4.2-0.2,7.5,0.2,10.1c0.4,2.6,1.3,3.9,2.6,3.9c1.1,0,2.4-1.3,3.9-4c1.5-2.7,3.1-6.1,4.7-10.2c1.6-4.2,3.3-8.8,4.9-13.8
	c1.6-5.1,3.2-10,4.6-14.8c1.4-4.8,2.6-9.2,3.7-13.2c0.2-0.7,0.4-1.4,0.5-2c-0.1-2.1-0.1-4.1-0.1-6.2c0-4.1,0.3-8.8,0.9-14
	c0.6-5.2,1.3-10.5,2.2-16c-1.4,0-2.7,0.1-4.1,0.2c-1.3,0.2-2.7,0.3-4.2,0.5c-1.5,0.2-3.1,0.4-4.7,0.7c-0.5,0.2-0.9,0.1-1.3-0.2
	c-0.3-0.3-0.5-0.6-0.5-0.9c0-0.3,0.1-0.7,0.3-1c0.3-0.3,0.7-0.6,1.4-0.7c1.5-0.4,3.4-0.7,5.5-1.1c2.2-0.3,4.9-0.6,8.1-0.9
	c0.8-5,1.8-9.9,2.8-14.5c1-4.7,2-8.8,3-12.3c1-3.6,1.9-6.4,2.8-8.6c0.9-2.1,1.6-3.2,2.1-3.2c0.8,0,1.9,0.2,3.3,0.6
	c1.3,0.4,2.6,1.2,3.9,2.2s2.3,2.5,3.2,4.2c0.9,1.8,1.3,3.9,1.3,6.5c0,2.7-0.4,6.3-1.3,10.7c-0.8,4.4-1.8,9.3-2.9,14.7
	c2.7,0.2,5.3,0.5,7.6,0.7c2.3,0.2,4.3,0.5,6.2,0.8c0.5,0.1,0.9,0.3,1.1,0.6c0.2,0.3,0.3,0.7,0.3,1.1c0,0.4-0.2,0.7-0.6,1
	c-0.3,0.3-0.8,0.4-1.3,0.3c-1.7-0.2-3.3-0.4-5-0.6c-1.6-0.2-3.1-0.3-4.4-0.5c-1.5-0.2-3-0.3-4.5-0.3c-1.1,5.5-2,11.1-2.8,17
	c-0.8,5.8-1.2,11.6-1.2,17.3c0,2.7,0.1,6.2,0.2,10.2c0.1,4.1,0.3,8.4,0.6,13c0.3,4.6,0.7,9.1,1.3,13.7c0.5,4.6,1.2,8.7,2.1,12.4
	c0.8,3.7,1.8,6.6,3,8.9c1.1,2.2,2.5,3.4,4.1,3.4c1.6,0,3.3-1,5-3.1c1.8-2.1,3.5-4.8,5.1-8.1c1.6-3.3,3.2-6.9,4.6-10.9
	c1.1-3,2.1-5.9,2.9-8.7c-0.4-0.4-0.7-0.9-1-1.4c-1.2-1.7-2.2-3.6-3-5.8c-0.8-2.2-1.2-4.5-1.2-7c0-2.7,0.7-5.9,2.1-9.6
	c1.4-3.7,3.4-7.1,6-10.4c2.6-3.3,5.9-6.1,9.7-8.3c3.8-2.3,8.3-3.4,13.3-3.4c1.8,0,3.5,0.3,5,1c1.5,0.6,2.7,1.5,3.8,2.5
	c1,1,1.8,2.2,2.3,3.5c0.5,1.3,0.8,2.6,0.8,3.8s-0.2,1.8-0.6,1.7c-0.4-0.1-1-0.4-1.8-1c-0.8-0.6-2-1.3-3.4-1.9c-1.4-0.7-3.2-1-5.3-1
	c-2.4,0-4.8,1.1-7.2,3.4c-2.4,2.2-4.5,4.9-6.4,8.1c-1.9,3.2-3.4,6.5-4.5,10c-1.1,3.5-1.7,6.5-1.7,9c0,1.6,0.1,3.1,0.4,4.6
	c0.3,1.5,0.9,2.2,2,2.2c0.8,0,1.7-0.7,2.7-2.2c1.1-1.4,2.1-3.2,3.1-5.3c1-2.1,2-4.2,2.9-6.3c0.9-2.2,1.6-4,2.2-5.4
	c0.1-0.5,0.3-0.9,0.5-1.3c0.2-0.4,0.3-0.8,0.5-1.2c0.8-1.8,1.6-3.1,2.6-4.2c1-1,2-1.5,3.1-1.5c1.3,0,2.4,0.4,3.4,1.3
	c1,0.8,1.8,1.9,2.4,3c0.6,1.2,1.1,2.4,1.5,3.6c0.3,1.2,0.5,2.2,0.5,3c0,0.5-0.2,1.8-0.5,3.7c-0.3,1.9-0.7,4.3-1,6.9
	c-0.3,2.7-0.6,5.5-0.8,8.4c-0.2,2.9-0.2,5.7,0.1,8.2c0.3,2.5,0.8,4.5,1.7,6.2c0.9,1.6,2.3,2.4,4.2,2.4c1.8,0,3.7-0.9,5.5-2.8
	c1.9-1.9,3.7-4.2,5.4-7.1c1.8-2.9,3.5-6,5.1-9.5c1.6-3.5,3.1-6.9,4.4-10.3c1.3-3.4,2.4-6.4,3.4-9.1c1-2.7,1.7-4.7,2.1-6.1
	c0.2-0.8,0.4-1.3,0.9-1.6s0.8-0.4,1.1-0.4c0.3,0,0.6,0.3,0.9,0.6c0.2,0.4,0.2,0.9,0,1.5c-0.5,1.4-1.2,3.7-2.2,6.8
	c-1,3.1-2.2,6.5-3.7,10.2c-1.4,3.7-3.1,7.6-5,11.6c-1.9,4-4,7.6-6.2,10.8c-2.2,3.2-4.6,5.9-7.1,8c-2.5,2.1-5.1,3.1-7.8,3.1
	c-2.6,0-4.9-0.7-6.9-2.1c-2-1.4-3.8-3.3-5.2-5.9c-1.4-2.6-2.6-5.6-3.4-9.3c-0.8-3.6-1.3-7.6-1.4-12.1c-1.5,2.4-3.2,4.5-5.1,6.2
	c-1.9,1.7-4,2.5-6.3,2.5c-1.3,0-2.6-0.5-4-1.4c-0.9,3-2,6.1-3.1,9.2c-1.7,4.5-3.6,8.7-5.8,12.4c-2.2,3.7-4.6,6.7-7.2,9.1
	c-2.6,2.4-5.4,3.6-8.4,3.6c-2.1,0-4.1-0.9-6.1-2.8c-2-1.9-3.9-4.4-5.8-7.7c-1.8-3.3-3.5-7.2-5.1-11.7c-1.6-4.5-2.9-9.5-4.1-14.8
	c-1.1-5.3-2-11-2.7-16.9c-0.1-0.7-0.1-1.5-0.2-2.2c0,0,0,0,0,0.1c-1,3.6-2,7.4-3.2,11.4c-1.2,4-2.4,8-3.8,12
	c-1.3,4-2.7,7.8-4.1,11.4c-1.4,3.6-2.8,6.8-4.1,9.6c-1.3,2.8-2.6,5-3.9,6.6c-1.3,1.6-2.5,2.4-3.7,2.4c-3.2,0-5.7-1.3-7.6-3.9
	c-1.9-2.6-3.2-6.1-4.1-10.4c-0.8-4.3-1.3-9.1-1.4-14.6c-0.1-5.5,0-11.1,0.3-16.9c0.3-5.8,0.6-11.4,1.1-16.9c0.5-5.5,0.8-10.4,1-14.6
	c0.2-4.3,0.2-7.7,0-10.3c-0.2-2.6-0.9-3.9-1.9-3.9c-1.2,0-2.5,0.9-3.8,2.7c-1.3,1.8-2.6,4.3-3.9,7.3c-1.3,3-2.5,6.4-3.7,10.2
	c-1.2,3.8-2.2,7.7-3.1,11.6c-0.9,3.9-1.6,7.8-2.1,11.5c-0.5,3.7-0.8,7-0.8,9.8c0,1.2-0.6,2.3-1.8,3.4c-1.2,1-3.2,1.5-6.1,1.5
	c-1.6,0-2.9-0.9-3.9-2.6c-1-1.8-1.8-4-2.5-6.7c-0.4-1.6-0.7-3.4-0.9-5.3c-1.8,3.5-3.6,6.8-5.6,9.7c-2.2,3.2-4.6,5.9-7.1,8
	c-2.5,2.1-5.1,3.1-7.8,3.1c-2.6,0-4.9-0.7-6.9-2.1c-2-1.4-3.8-3.3-5.2-5.9c-1.4-2.6-2.6-5.6-3.4-9.3c-0.8-3.6-1.3-7.6-1.4-12.1
	c-1.5,2.4-3.2,4.5-5.1,6.2c-1.9,1.7-4,2.5-6.3,2.5c-1.3,0-2.7-0.5-4.1-1.5c-1.4-1-2.7-2.3-3.9-4c-1.2-1.7-2.2-3.6-3-5.8
	c-0.8-2.2-1.2-4.5-1.2-7c0-2.7,0.7-5.9,2.1-9.6c1.4-3.7,3.4-7.1,6-10.4c2.6-3.3,5.9-6.1,9.7-8.3c3.8-2.3,8.3-3.4,13.3-3.4
	c1.8,0,3.5,0.3,5,1c1.5,0.6,2.7,1.5,3.8,2.5c1,1,1.8,2.2,2.3,3.5c0.5,1.3,0.8,2.6,0.8,3.8c0,1.2-0.2,1.8-0.6,1.7
	c-0.4-0.1-1-0.4-1.8-1c-0.8-0.6-2-1.3-3.4-1.9c-1.4-0.7-3.2-1-5.3-1c-2.4,0-4.8,1.1-7.2,3.4c-2.4,2.2-4.5,4.9-6.4,8.1
	c-1.9,3.2-3.4,6.5-4.5,10c-1.1,3.5-1.7,6.5-1.7,9c0,1.6,0.1,3.1,0.4,4.6c0.3,1.5,0.9,2.2,2,2.2c0.8,0,1.7-0.7,2.7-2.2
	c1.1-1.4,2.1-3.2,3.1-5.3c1-2.1,2-4.2,2.9-6.3c0.9-2.2,1.6-4,2.2-5.4c0.1-0.5,0.3-0.9,0.5-1.3c0.2-0.4,0.3-0.8,0.5-1.2
	c0.8-1.8,1.6-3.1,2.6-4.2c1-1,2-1.5,3.1-1.5c1.3,0,2.4,0.4,3.4,1.3c1,0.8,1.8,1.9,2.4,3c0.6,1.2,1.1,2.4,1.5,3.6
	c0.3,1.2,0.5,2.2,0.5,3c0,0.5-0.2,1.8-0.5,3.7c-0.3,1.9-0.7,4.3-1,6.9c-0.3,2.7-0.6,5.5-0.8,8.4c-0.2,2.9-0.2,5.7,0.1,8.2
	c0.3,2.5,0.8,4.5,1.7,6.2c0.9,1.6,2.3,2.4,4.2,2.4c1.8,0,3.7-0.9,5.5-2.8c1.9-1.9,3.7-4.2,5.4-7.1c1.8-2.9,3.5-6,5.1-9.5
	c0.3-0.6,0.6-1.2,0.8-1.9c-0.1-2.6-0.2-5.1-0.3-7.6c0-3.2,0-6.1,0.1-8.8c0.1-2.7,0.1-4.7,0.1-6.1c0-2.1-0.1-3.6-0.4-4.7
	c-0.3-1.1-0.6-1.9-0.9-2.5c-0.3-0.6-0.6-1-0.9-1.4c-0.3-0.4-0.4-0.9-0.4-1.6c0-1.4,0.4-2.3,1.3-2.7c0.8-0.5,2.2-0.7,4-0.7
	c2,0,3.7,0.3,5.2,0.7c1.5,0.5,2.8,1.2,3.8,2c1.1,0.8,2,1.8,2.7,2.9c0.7,1.1,1.3,2.2,1.8,3.3C212.7,122.7,213.2,125.7,213.3,128.9z
	 M132.2,84.1c-1.5,2-3.3,5.6-4.2,8.3c-0.7,2.3-1.3,4.5-1.6,6.8c-0.3,1.7-0.3,2.3-0.3,4.6c0,1,0,2.4,0,3.3c0,1.7,0,2.1,0.4,2.5
	c0.3,0.3,0.8,0.6,1.3,0.6c0.5,0,1-0.2,1.3-0.7c0.4-0.5,0.4-0.9,0.1-1.7c-0.1-0.2-0.1-4.9,0-6.3c0.2-2.6,1.4-7.8,2.5-10.3
	c0.6-1.4,1.6-3.4,2.2-4.3c0.9-1.4,2.7-3.5,4.2-5c3.8-3.6,7.7-5.8,13.1-7.5c2.9-0.9,5.3-1.2,7.8-1.1c2.2,0.1,5.3,1,7.5,2.1
	c1.1,0.6,2.9,1.8,3.9,2.8l0.6,0.5l-0.7,0.6c-0.8,0.7-1.4,1.4-2.1,2.6c-1.6,2.5-2.2,4.5-1.9,7.3c0.2,2.5,0.6,3.7,1.6,4.8
	c0.5,0.6,1.4,1.1,2.1,1.2c0.9,0.2,2.6,0,3.5-0.3c2.3-0.9,4.6-3.8,4.8-6.1c0.1-0.8,0-2.3-0.2-3.2c-0.3-1.4-1-3.1-2.2-5.2
	c-0.2-0.4-0.4-0.7-0.4-0.8c0,0,1.5-0.7,2.3-1.1c1.2-0.5,4-1.3,5.6-1.7c3.2-0.7,5.9-0.7,10,0c2.6,0.4,3.6,0.7,5.8,1.5
	c2.6,1,3.7,1.6,5.8,3.1c2.6,1.9,3.2,2.4,4.6,4c1.8,2.1,2.3,2.8,3.3,4.4c0.5,0.9,0.9,1.9,0.9,2.4c0,0.5,0.3,0.9,0.8,1.2
	c0.5,0.3,1,0.3,1.5,0c0.5-0.3,0.7-0.6,0.8-1.3c0-0.2,0-0.4-0.2-1.2c-0.3-1.2-0.6-1.7-1.3-2.9c-1.1-1.9-1.8-2.8-3.8-5
	c-1.3-1.5-2-2.1-3.8-3.4c-3.3-2.4-4.5-3.1-8-4.4c-2.3-0.9-3.9-1.2-7.6-1.7c-2.3-0.3-5.3-0.3-7.3-0.1c-1.4,0.2-3.6,0.7-5.5,1.3
	c-1.9,0.6-3,1-4.7,1.8c-0.7,0.3-1.2,0.6-1.2,0.6s-0.3-0.3-0.6-0.6c-1.3-1.3-2.6-2.3-4.5-3.4c-2-1.1-4.1-1.9-6.9-2.4
	c-2-0.4-3.4-0.5-5.6-0.3c-1.9,0.1-2.6,0.3-5,0.9c-3,0.8-5,1.6-7.4,2.8C139.4,76.5,135.3,80,132.2,84.1z M172.3,81.8l0.6-0.5l0.3,0.5
	c0.5,0.9,1.4,2.7,1.6,3.3c0.3,0.7,0.4,1.6,0.4,2.7c0,0.9,0,1.2-0.3,1.8c-0.4,0.9-1.3,1.8-2.1,2.3c-0.4,0.3-0.7,0.3-1.5,0.4
	c-0.8,0.1-1.1,0-1.4-0.3c-0.4-0.5-0.6-1.3-0.8-3.1c-0.1-1.3,0-2.4,0.4-3.3c0.2-0.6,1.1-2.2,1.7-2.9
	C171.5,82.5,171.9,82.1,172.3,81.8z M364.1,347.7c-0.7-0.4-1.4-0.6-2.2-0.7c-0.7-0.1-1.2,0.2-1.5,0.8c-1.3,2.7-2.7,5.8-4.2,9
	c-1.5,3.3-3.3,6.4-5.2,9.3c-1.9,2.9-4.2,5.3-6.7,7.3c-2.5,2-5.4,3.1-8.7,3.2c-1.9,0.2-3.5-0.1-4.7-0.7c-1.3-0.6-2.3-1.5-3-2.6
	c-0.8-1.1-1.3-2.5-1.5-4.1c-0.3-1.6-0.4-3.3-0.3-5.1c2.9,0.1,5.7-0.4,8.3-1.4c2.6-1,5.1-2.3,7.3-3.9c2.2-1.6,4.1-3.6,5.8-5.8
	c1.6-2.2,2.8-4.5,3.5-6.9c0.7-2.4,1-4.8,1-7.2c0-2.4-0.8-4.7-2.3-6.8c-1.7-2.7-3.8-4.7-6.4-6.2c-2.6-1.5-5.4-2.2-8.5-2
	c-3,0.2-6.1,1.2-9.1,3c-3,1.9-5.7,4.9-8.1,9l-0.1,0.1c-1.7,3-3,6.2-3.9,9.7c-0.3,1.1-0.5,2.2-0.8,3.4c-1.2,2.4-2.6,4.9-4,7.4
	c-1.9,3.2-3.7,6.1-5.5,8.8c-1.8,2.7-3.5,4.9-5.1,6.6c-1.6,1.8-2.7,2.7-3.4,2.7c-1.6,0.2-2.6-0.2-3-1.4c-0.4-1.1-0.5-2.7-0.1-4.6
	c0.3-1.9,0.8-4.1,1.4-6.5c0.6-2.4,1.2-4.8,1.7-7.1c0.5-2.3,0.8-4.5,0.8-6.5c0-2-0.4-3.5-1.4-4.7c-1.8-1.8-3.4-3.3-4.9-4.6
	c-1.5-1.3-2.9-2.6-4-3.7c-1.1-1.1-2.1-2.2-2.9-3.1c-0.8-1-1.1-1.9-1.1-2.9c-0.2-5.6,1.2-10.5,4.1-14.6c2.9-4.1,6.6-7,11-8.7
	c0.2-0.8-0.4-1.8-1.7-3.1c-1.3-1.3-3-2.5-5-3.7c-2-1.2-4-2.2-5.9-2.9c-1.9-0.8-3.5-1-4.5-0.7c-1.6,0.5-3.2,1.7-4.8,3.6
	c-1.6,1.9-3,4.1-4.2,6.7c-1.2,2.6-2,5.5-2.6,8.5c-0.5,3-0.5,5.9,0.1,8.5l0.1,1.3c0.4,1.8,0.8,3.4,1.1,4.7c0.4,1.3,0.5,2.6,0.2,3.7
	c-1.2,2.8-2.3,5.6-3.3,8.4c-0.7,2.1-1.4,4.2-2,6.2c-0.1,0.1-0.2,0.2-0.3,0.4c-1.3,2.7-2.7,5.8-4.2,9c-1.5,3.3-3.3,6.4-5.2,9.3
	c-1.9,2.9-4.2,5.3-6.7,7.3c-2.5,2-5.4,3.1-8.7,3.2c-1.9,0.2-3.5-0.1-4.7-0.7c-1.3-0.6-2.3-1.5-3-2.6s-1.3-2.5-1.5-4.1
	c-0.3-1.6-0.4-3.3-0.3-5.1c2.9,0.1,5.7-0.4,8.3-1.4c2.6-1,5.1-2.3,7.3-3.9c2.2-1.6,4.1-3.6,5.8-5.8c1.6-2.2,2.8-4.5,3.5-6.9
	c0.7-2.4,1-4.8,1-7.2c0-2.4-0.8-4.7-2.3-6.8c-1.7-2.7-3.8-4.7-6.4-6.2c-2.6-1.5-5.4-2.2-8.5-2c-3,0.2-6.1,1.2-9.1,3
	c-3,1.9-5.7,4.9-8.1,9l-0.1,0.1c-1.7,3-3,6.2-3.9,9.7c-0.5,1.8-0.9,3.6-1.1,5.4c-0.1-0.2-0.3-0.4-0.4-0.6c-0.6-0.7-1.4-1.2-2.4-1.7
	c-0.5-0.3-1.1-0.5-1.8-0.8c-0.7-0.3-1.2-0.5-1.3-0.6l8.2-38.9c0.2-1,0-2.3-0.6-3.7c-0.6-1.4-1.4-2.9-2.3-4.5c-0.9-1.5-2-3-3.1-4.4
	c-1.2-1.4-2.2-2.6-3.1-3.4c-0.9-0.9-1.6-1.5-2.1-1.8c-0.5-0.3-0.6,0-0.3,0.8c0.3,0.9,0.3,2.5,0,5c-0.2,2-0.7,4.9-1.3,8.6
	c-0.7,3.7-1.5,7.8-2.5,12.2c-1,4.4-2,8.9-3,13.6c-1,4.6-2,9-3,13c-4.3-0.8-8.4-1.1-12.4-1.1c-3.9,0-7.9,0.3-11.9,0.7
	c1.4-5.9,2.8-11.3,4.2-16.4c1.4-5,2.4-9.5,3.2-13.5c0.8-4,1.3-7.3,1.6-9.9c0.3-2.7,0.1-4.6-0.4-5.8c-1.6-3.9-4.1-7.1-7.4-9.4
	c-3.3-2.3-7.6-3.6-12.8-3.8c-3.3-0.1-6.7,0.3-10,1.1c-3.3,0.9-6.6,2.1-9.8,3.7c-3.2,1.6-6.2,3.5-9.2,5.6c-2.9,2.1-5.6,4.4-7.9,6.8
	c-2.3,2.4-4.3,4.9-6,7.4c-1.6,2.5-2.8,4.9-3.4,7.2c-0.8,2.6-1,5.1-0.5,7.6c0.5,2.5,1.3,4.8,2.3,7c1.1,2.1,2.3,4,3.8,5.6
	c1.5,1.6,2.8,2.8,4.1,3.6c1,0.7,1.5,0.9,1.3,0.5c-0.1-0.4-0.3-0.8-0.4-1.2c0.1-0.1,0-0.4-0.1-1c-0.1-0.6-0.2-1.3-0.2-2.1
	c0.2-2.9,0.6-5.8,1.4-8.8c0.8-3,1.8-5.9,3.2-8.8c1.4-2.9,3-5.6,4.9-8.3c1.9-2.6,3.8-5.1,5.8-7.3c2-2.3,4-4.3,5.9-6
	c1.9-1.7,3.8-3.2,5.5-4.3c1.4-0.9,3-1.6,4.7-2.1c1.7-0.5,3.5-1,5.1-1.2c1.7-0.3,3.2-0.4,4.5-0.4c1.3,0,2.3,0.1,2.7,0.3
	c0.8,0.2,1.3,0.6,1.6,1.4c0.3,0.8,0.4,1.7,0.4,2.7c0,1.1-0.1,2.2-0.2,3.5c-0.1,1.3-0.3,2.5-0.5,3.8c-2,8-4.1,15.7-6.3,23.2
	c-2.3,7.5-4.3,14.8-6,21.8c-3.5,0.7-7,1.3-10.4,2c-3.4,0.7-6.6,1.3-9.8,1.8c-3.2,0.5-6.2,1-9,1.3c-2.8,0.3-5.6,0.4-8.2,0.3
	c-4.3-0.3-8.4-1.4-12.2-3.4c-3.8-2-7.4-5.1-10.5-9.2c-0.5-0.5-0.9-0.6-1.1-0.5c-0.2,0.2-0.4,0.5-0.3,1.1c0,0.5,0.2,1.1,0.4,1.8
	s0.5,1.4,0.7,2c2.5,4.2,5.3,7.4,8.4,9.7c3.1,2.3,6.4,3.9,9.8,4.8c3.5,0.9,7,1.3,10.7,1.1c3.7-0.1,7.3-0.6,10.8-1.3
	c3.6-0.7,7-1.6,10.3-2.7c3.3-1.1,6.3-2,9-2.8c-1,5.3-1.1,10.5-0.3,15.6c0.8,5.1,2.7,9.6,5.7,13.5c1.4,1.7,2.8,3.2,4.3,4.7
	s2.8,2.6,4.1,3.5c1.3,0.9,2.5,1.6,3.5,1.9c1,0.4,1.8,0.3,2.2,0c-2.7-3.1-4.8-6.4-6.1-9.9c-1.3-3.5-2.1-7-2.3-10.6
	c-0.2-3.6,0-7.3,0.7-11.1c0.7-3.8,1.6-7.5,2.7-11.3c3.8-0.5,7.7-0.9,11.9-1.1c4.1-0.2,8.4-0.1,12.8,0.4l-3,15.1l-0.3,2.3
	c-0.6,4.9-0.5,9.5,0.2,13.8c0.7,4.3,2.4,8.2,5.1,11.9c1.3,1.7,2.7,3.2,4.2,4.7c1.5,1.4,2.9,2.6,4.2,3.5c1.3,0.9,2.5,1.6,3.4,1.9
	c1,0.4,1.7,0.3,2.3,0c-3.5-4-5.7-8.2-6.7-12.5c-1-4.3-1.2-8.8-0.7-13.5c0-1.1,0.1-2.3,0.4-3.3s0.5-2.2,0.7-3.3c0.3-1,0.6-2,0.7-2.9
	c0.2-1,0.4-1.9,0.6-2.8l2.5-11.8c0.7,0.2,1.4,0.5,2.2,0.9c0.8,0.4,2,0.9,3.6,1.7c0.3,0.2,0.6,0.3,0.9,0.3c-0.1,1-0.2,2-0.2,3
	c-0.1,3.6,0.2,7,1,10.4c0.8,3.4,2.1,6.3,4,8.9c1.9,2.6,4.4,4.7,7.5,6.2c3.1,1.5,6.9,2.2,11.3,2.2c2.9,0,5.6-0.7,8.2-2
	c2.6-1.3,4.9-3,7-5.1c2.1-2.1,4-4.4,5.7-6.9s3.2-5,4.4-7.4c1.2-2.4,2.3-4.7,3.1-6.7c0.4-1,0.8-1.8,1.1-2.6c0.1-0.1,0.2-0.2,0.3-0.3
	l6.7-18.4c0.8,0.7,1.5,1.3,2.2,1.9c0.7,0.6,1.4,1.3,2.1,1.9c0.6,0.9,0.9,2.5,1,4.9c0,2.3-0.1,4.9-0.3,7.6c-0.3,2.7-0.6,5.4-0.9,8.1
	c-0.3,2.6-0.7,4.7-1.1,6.2c-0.3,2-0.1,4.1,0.6,6.5c0.7,2.3,1.8,4.4,3.3,6.3c1.5,1.9,3.4,3.4,5.6,4.5c2.3,1.1,4.7,1.6,7.5,1.3
	c2.1-0.3,4.3-1.6,6.7-3.8c2.4-2.3,4.7-5,6.8-8.4c1.4-2.2,2.7-4.5,4-6.9c0.1,0.7,0.3,1.4,0.4,2.1c0.8,3.4,2.1,6.3,4,8.9
	c1.9,2.6,4.4,4.7,7.5,6.2c3.1,1.5,6.9,2.2,11.3,2.2c2.9,0,5.6-0.7,8.2-2c2.6-1.3,4.9-3,7-5.1c2.1-2.1,4-4.4,5.7-6.9
	c1.7-2.5,3.2-5,4.4-7.4c1.2-2.4,2.3-4.7,3.1-6.7c0.9-2,1.5-3.6,2-4.9c0.2-0.5,0.2-1.1-0.2-1.7C365.4,348.5,364.8,348.1,364.1,347.7z
	 M328.6,351.4c0.5-2.3,1.1-4.6,1.8-6.9c0.7-2.2,1.5-4.4,2.4-6.5c0.9-2.1,2-3.7,3.3-4.8c2.4-2.2,4.3-3.1,5.7-2.7
	c1.4,0.4,2.5,1.5,3.2,3.4c0.7,1.9,0.9,4.2,0.6,6.9c-0.3,2.7-1.1,5.4-2.5,7.9c-1.4,2.6-3.4,4.7-6,6.5c-2.6,1.8-5.9,2.6-9.7,2.5
	C327.8,355.8,328.2,353.7,328.6,351.4z M231.6,351.4c0.5-2.3,1.1-4.6,1.8-6.9c0.7-2.2,1.5-4.4,2.4-6.5c0.9-2.1,2-3.7,3.3-4.8
	c2.4-2.2,4.3-3.1,5.7-2.7c1.4,0.4,2.5,1.5,3.2,3.4c0.7,1.9,0.9,4.2,0.6,6.9c-0.3,2.7-1.1,5.4-2.5,7.9c-1.4,2.6-3.4,4.7-6,6.5
	c-2.6,1.8-5.9,2.6-9.7,2.5C230.7,355.8,231.1,353.7,231.6,351.4z M93.1,322.3c0.1,0,2.1,0.9,2.3,1c0.4,0.3,1.2,0.2,1.6-0.1
	c0.6-0.5,0.7-1.2,0.3-1.8c-0.2-0.3-0.7-0.5-2.1-1.2c-0.3-0.1-0.6-0.3-0.6-0.3c0-0.1,1.9-0.8,3-1.1c0.9-0.3,1.3-1.1,0.9-1.9
	c-0.3-0.5-0.9-0.8-1.4-0.7c-0.5,0.1-2,0.6-3,1c-0.5,0.2-1.4,0.6-2.1,0.8l-1.1,0.4l-1.2-0.5c-0.6-0.3-2-0.9-3-1.4c-1-0.5-2-0.9-2.2-1
	c-0.2-0.1-0.4-0.2-0.4-0.2c0,0,0.2-0.2,0.6-0.3c1.4-0.8,5.1-3.6,5.8-4.3c0.3-0.4,0.4-0.5,0.5-0.8c0.1-0.5,0.1-0.8-0.2-1.2
	c-0.3-0.4-0.5-0.5-1.5-0.8c-0.7-0.2-5.1-1.6-5.3-1.7c-0.2-0.1-0.3,0,2.8-1.6l2.4-1.2l0.5,0.3c0.9,0.6,4.3,2.4,5.6,3.1
	c0.8,0.4,1.1,0.4,1.7,0c0.6-0.4,0.7-1.5,0.1-2c-0.1-0.1-1-0.6-2-1.1c-2.6-1.4-3.1-1.6-3-1.7c0-0.1,1.9-1.1,2-1.1
	c0.2,0,0.6-0.2,0.8-0.5c0.4-0.4,0.5-0.8,0.4-1.3c-0.1-0.4-0.5-0.9-0.9-1c-0.5-0.1-0.8,0-2,0.6c-0.6,0.3-1.1,0.6-1.1,0.6
	c-0.1-0.1,0.7-2.7,1.1-3.6c0.3-0.6,0.2-1.1,0-1.5c-0.5-0.7-1.5-0.8-2.1-0.2c-0.3,0.4-1,2.1-1.6,4.3c-0.2,0.7-0.4,1.6-0.6,2.1
	l-0.2,0.8l-2.2,1.1c-1.2,0.6-2.7,1.3-3.2,1.6c-0.7,0.3-0.9,0.4-0.9,0.4c0,0,0-0.5,0-1c0.1-1.1,0.1-3,0-5.4c-0.1-2.3-0.2-2.8-0.7-3.4
	c-0.3-0.3-0.5-0.4-1-0.4c-0.5,0-0.5,0-1.9,0.9c-1.3,0.9-2,1.4-3,2.3c-0.4,0.4-1,0.9-1.3,1.1l-0.5,0.4v-0.8c0-0.4,0-1.5,0-2.3l0-1.5
	l1.7-1.1c0.9-0.6,2.2-1.5,2.9-1.9c1-0.6,1.2-0.8,1.3-1c0.4-0.6,0.2-1.5-0.5-1.8c-0.4-0.2-0.8-0.3-1.2-0.1c-0.2,0.1-3.2,1.9-3.9,2.4
	c-0.1,0.1-0.3,0.2-0.3,0.2s0-0.8,0-1.7l0-1.7l-0.2-0.3c-0.3-0.6-0.9-0.8-1.6-0.6c-0.3,0.1-0.6,0.4-0.8,0.7c-0.1,0.2-0.1,0.5-0.2,1.6
	l-0.1,1.4l-0.6-0.7c-0.6-0.7-0.9-1-1.5-1.7c-0.4-0.5-0.7-0.6-1.2-0.6c-0.6,0-1.1,0.4-1.2,1c-0.2,0.7,0.3,1.4,2.8,4.1
	c0.8,0.8,1.5,1.6,1.6,1.7c0.1,0.2,0.1,0.3,0.2,2.9l0,2.8l-0.3-0.2c-0.2-0.1-0.7-0.3-1.1-0.5c-0.4-0.2-1.8-0.9-3.2-1.5
	c-1.3-0.6-3-1.3-3.6-1.7c-1.5-0.7-1.8-0.7-2.3-0.5c-0.6,0.2-1,0.9-0.9,1.4c0,0.1,0.1,0.5,0.3,0.8c0.3,0.7,0.5,1.5,0.7,2.4
	c0.1,0.4,0.2,0.9,0.3,1.2c0.1,0.5,0.9,3.7,0.9,4c0,0.2,0,0.2-0.1,0.2c-0.1,0-1.2-0.5-4.8-2c-0.8-0.3-1.8-0.8-2.1-0.9l-0.7-0.3
	l-0.1-0.6c-0.6-2.8-1.7-6.7-1.8-7c-0.3-0.5-1-0.7-1.5-0.5c-0.5,0.2-0.9,0.7-0.9,1.3c0,0.2,0.1,0.7,0.2,1.2c0.4,1.6,1.1,4.3,1.1,4.3
	c0,0-1.9-0.7-2.6-1.1c-0.7-0.3-1.5-0.2-1.8,0.4c-0.3,0.5-0.3,1.2,0.1,1.7c0.2,0.2,1,0.6,2.6,1.3c0.5,0.2,0.9,0.4,0.9,0.4
	c0.1,0.1-2.2,1.2-3.4,1.6c-0.4,0.1-0.8,0.3-0.9,0.4c-1,0.8-0.4,2.3,0.9,2.3c0.5,0,1.5-0.4,3.2-1.2c0.5-0.2,1.5-0.7,2.1-1
	c0.7-0.3,1.3-0.6,1.4-0.6c0.2-0.1,0.2-0.1,1.2,0.3c0.5,0.2,1.8,0.8,2.7,1.2c1,0.4,1.8,0.8,1.9,0.8c0.2,0.1,0.2,0.1,0,0.2
	c-0.1,0-0.6,0.3-1.1,0.6c-3.3,1.8-4,2.2-5.1,2.9c-1,0.7-1.3,1.1-1.3,1.8c0,0.7,0.3,1.1,1.2,1.4c1.1,0.4,5.6,1.8,6.3,2
	c0.3,0.1,0.3,0-1.5,1c-1.1,0.6-2.6,1.4-3.7,1.9l-0.6,0.3l-2.1-0.8c-1.2-0.5-2.7-1.1-3.4-1.4c-1.5-0.6-1.7-0.7-2.2-0.4
	c-1,0.5-0.9,1.9,0.1,2.4c0.3,0.2,2.8,1.2,3.7,1.5c0.4,0.2,0.8,0.3,0.8,0.3c0,0-1.1,0.6-2.5,1.4c-0.7,0.4-0.9,0.7-1,1.2
	c0,0.5,0.1,0.8,0.4,1.1c0.3,0.3,0.5,0.3,0.9,0.3c0.4,0,0.7-0.1,2-0.9c1.1-0.6,1.5-0.8,1.5-0.8c0,0-0.2,0.9-0.4,1.9
	c-0.5,2.5-0.6,2.6-0.5,3c0.1,1.3,2,1.6,2.5,0.4c0-0.1,0.1-0.4,0.2-0.7c0-0.3,0.3-1.3,0.5-2.2c0.2-0.9,0.5-2.2,0.6-2.8
	c0.1-0.6,0.3-1.2,0.3-1.2c0.1-0.1,0.9-0.5,2.6-1.4c0.7-0.4,1.9-1,2.7-1.4c0.8-0.4,1.4-0.7,1.4-0.7s0,0.3,0,0.7c0,0.4,0,1.2,0.1,1.7
	c0,0.6,0.1,1.8,0.2,2.8c0.2,4,0.3,4.2,0.8,4.7c0.4,0.3,1.1,0.5,1.5,0.2c0.1,0,0.9-0.6,1.8-1.3c0.9-0.7,2.3-1.7,3-2.2
	c1.8-1.2,1.8-1.2,1.8-1.2c0,0,0,1.3,0,2.9l0,2.9l-0.5,0.4c-0.9,0.7-4.4,3.6-4.6,3.8c-0.4,0.5-0.4,1-0.2,1.6c0.2,0.5,0.6,0.7,1.1,0.7
	c0.5,0,0.8-0.1,1.2-0.5c0.3-0.3,3-2.6,3.1-2.6c0.1,0,0.1,1.6,0.1,2.7c0,0.7,0,0.9,0.1,1.1c0.4,0.8,1.6,1,2.2,0.3
	c0.4-0.4,0.4-0.4,0.4-2.3l0-1.7l0.3,0.2c0.1,0.1,0.7,0.7,1.3,1.3c1.4,1.5,1.9,1.8,2.5,1.8c1,0,1.7-1,1.3-1.9
	c-0.1-0.3-0.2-0.4-0.6-0.7c-0.2-0.1-1.4-1.2-2.7-2.5l-2.3-2.3l0-3c0-2.8,0-3,0.1-2.9c0.7,0.2,4.1,1.4,5.3,1.9c2.5,1,3.4,1.3,4.3,1.3
	c0.6,0,0.9-0.1,1.2-0.4c0.3-0.3,0.5-0.7,0.5-1.1c0-0.4-0.3-1.4-1.3-3.8c-0.6-1.4-1.3-3.3-1.3-3.5c0,0,0,0,0.1,0
	c0.1,0,2.5,1.1,3.8,1.7c1.1,0.5,3.2,1.5,3.8,1.8c0.3,0.1,0.5,0.2,0.5,0.2c0,0,0.1,0.3,0.1,0.7c0.1,0.4,0.3,1.2,0.4,1.9
	c0.2,0.7,0.4,1.9,0.6,2.7c0.2,0.8,0.3,1.5,0.4,1.7s0.2,0.3,0.3,0.5c0.8,0.7,2.2,0.1,2.2-1c0-0.3-0.5-2.8-0.9-4.2
	C93.2,322.7,93.1,322.3,93.1,322.3z M62.3,314.3c-0.1,0-0.5-0.1-1-0.3c-1.2-0.4-2-0.7-4-1.3c-1-0.3-1.8-0.5-1.8-0.6
	c0,0,1.3-0.7,3.3-1.8c0.5-0.3,1.4-0.8,2-1.1c0.6-0.3,1.1-0.6,1.2-0.6c0.1,0,1.2,0.4,2.4,1l2.3,1l0,0.2c0,0.1,0,0.5-0.1,0.8l0,0.6
	l-2.1,1.1C63.4,313.8,62.4,314.3,62.3,314.3z M70.4,320l-0.2,0.2c-0.1,0.1-0.6,0.5-1.2,0.8c-1.1,0.7-2.9,2-4,2.8
	c-0.4,0.3-0.8,0.5-0.8,0.5c0,0-0.1-0.5-0.1-1c0-0.6-0.1-1.7-0.2-2.6c-0.1-0.9-0.1-2.2-0.1-2.9l0-1.3l1.1-0.6
	c1.1-0.6,2.5-1.4,2.6-1.4c0,0,0.2,0.2,0.5,0.4c0.3,0.3,0.6,0.5,1.1,0.8c0.4,0.2,0.8,0.4,1,0.4l0.3,0.1l0,0.4c0,0.2,0,1.1,0,1.8V320z
	 M70.4,306.9c0,0-0.1,0-0.2,0c-0.2,0-0.9,0.3-1.2,0.5c-0.2,0.1-0.4,0.3-0.6,0.4l-0.3,0.3l-0.8-0.4c-2.8-1.2-2.8-1.2-2.9-1.3
	c-0.1-0.7-1.3-5.8-1.4-6c0-0.1-0.1-0.5-0.2-0.9l-0.1-0.7l0.9,0.4c0.5,0.2,1.4,0.6,2.1,1c1.8,0.8,4.7,2.2,4.8,2.3
	C70.6,302.6,70.5,306.9,70.4,306.9z M73.3,304.7l0.1-2.5l0.3-0.3c0.2-0.2,1-0.8,1.7-1.5c0.8-0.6,1.6-1.3,1.8-1.5s0.7-0.6,1.1-0.9
	l0.7-0.6l0,0.6c0,0.3,0,1.4,0.1,2.3c0,1,0,2.3-0.1,3c0,0.7-0.1,1.5-0.1,1.7l0,0.5l-1.9,1c-1,0.6-2,1.1-2.2,1.1l-0.3,0.1l-0.4-0.2
	c-0.2-0.1-0.5-0.2-0.6-0.3c-0.1,0-0.3-0.1-0.3-0.2C73.2,307.2,73.2,306.1,73.3,304.7z M79.3,322.2c-1-0.4-2.4-0.9-3.1-1.2
	c-0.8-0.3-1.7-0.6-2.2-0.8l-0.8-0.3v-1.2c0-0.7,0-1.6,0-1.9l0-0.7l0.5-0.3c0.6-0.4,1-0.7,1.3-1.2c0.2-0.2,0.3-0.4,0.3-0.4
	s0.2,0.1,0.4,0.2c0.2,0.1,0.9,0.4,1.6,0.7c0.7,0.3,1.3,0.6,1.4,0.6c0,0,0.1,0.3,0.2,0.5c0.3,1,1.2,3.8,1.8,5.2
	c0.3,0.8,0.6,1.5,0.6,1.5C81.1,322.9,80.3,322.6,79.3,322.2z M81.5,313.7l-0.3,0.2l-1.6-0.7c-0.9-0.4-2-0.9-2.5-1.1l-0.9-0.4l0-0.6
	c0-0.3-0.1-0.6-0.1-0.7c0-0.2-0.2-0.1,3.6-2.1l1.3-0.7l0.2,0.1c0.1,0.1,0.6,0.3,0.9,0.4c0.4,0.1,1.7,0.6,2.9,1l2.3,0.8l-1.2,0.9
	c-1.5,1.1-2.1,1.5-3.3,2.2C82.2,313.2,81.6,313.6,81.5,313.7z M395.5,319.2c-0.2-0.4-0.7-0.7-1.2-0.6c-0.4,0.1-1.7,0.5-2.5,0.8
	c-0.4,0.2-1.2,0.5-1.7,0.7l-0.9,0.4l-1-0.4c-0.5-0.2-1.7-0.8-2.5-1.2c-0.8-0.4-1.7-0.8-1.9-0.9c-0.2-0.1-0.4-0.2-0.4-0.2
	c0,0,0.2-0.2,0.5-0.3c1.2-0.7,4.3-3,4.9-3.6c0.3-0.3,0.4-0.4,0.4-0.7c0.1-0.4,0.1-0.7-0.2-1c-0.3-0.3-0.5-0.4-1.2-0.7
	c-0.6-0.2-4.2-1.4-4.5-1.5c-0.2-0.1-0.2,0,2.4-1.3l2-1l0.4,0.3c0.8,0.5,3.6,2.1,4.7,2.6c0.6,0.3,1,0.3,1.4,0
	c0.5-0.3,0.6-1.3,0.1-1.7c-0.1-0.1-0.8-0.5-1.7-1c-2.2-1.2-2.6-1.4-2.6-1.4c0-0.1,1.6-0.9,1.7-0.9c0.2,0,0.5-0.2,0.7-0.4
	c0.3-0.3,0.4-0.7,0.3-1.1c-0.1-0.4-0.4-0.7-0.8-0.8c-0.4-0.1-0.7,0-1.7,0.5c-0.5,0.3-0.9,0.5-0.9,0.5c-0.1-0.1,0.6-2.3,0.9-3
	c0.2-0.5,0.2-0.9,0-1.3c-0.4-0.6-1.3-0.6-1.8-0.1c-0.3,0.3-0.8,1.8-1.3,3.6c-0.2,0.6-0.4,1.4-0.5,1.7l-0.2,0.6l-1.9,1
	c-1,0.5-2.2,1.1-2.7,1.4c-0.6,0.3-0.8,0.4-0.8,0.3c0,0,0-0.4,0-0.8c0.1-0.9,0.1-2.5,0-4.5c-0.1-1.9-0.2-2.4-0.6-2.8
	c-0.3-0.3-0.5-0.4-0.8-0.4c-0.4,0-0.4,0-1.6,0.8c-1.1,0.7-1.7,1.2-2.5,1.9c-0.4,0.3-0.9,0.7-1.1,0.9l-0.4,0.4v-0.7
	c0-0.4,0-1.2,0-1.9l0-1.2l1.4-1c0.8-0.5,1.9-1.2,2.4-1.6c0.9-0.5,1-0.7,1.1-0.9c0.3-0.5,0.1-1.2-0.4-1.5c-0.3-0.2-0.7-0.2-1-0.1
	c-0.2,0.1-2.7,1.6-3.3,2c-0.1,0.1-0.2,0.2-0.3,0.2c0,0,0-0.7,0-1.4l0-1.5l-0.2-0.3c-0.2-0.5-0.8-0.7-1.3-0.5
	c-0.3,0.1-0.5,0.3-0.7,0.6c-0.1,0.1-0.1,0.4-0.1,1.4l-0.1,1.2l-0.5-0.6c-0.5-0.6-0.8-0.9-1.3-1.5c-0.3-0.4-0.6-0.5-1-0.5
	c-0.5,0-0.9,0.3-1,0.9c-0.2,0.6,0.2,1.2,2.4,3.4c0.7,0.7,1.3,1.3,1.3,1.4c0.1,0.1,0.1,0.2,0.1,2.5l0,2.3l-0.3-0.1
	c-0.2-0.1-0.6-0.3-0.9-0.4c-0.4-0.2-1.5-0.7-2.7-1.2c-1.1-0.5-2.5-1.1-3.1-1.4c-1.2-0.6-1.5-0.6-1.9-0.4c-0.5,0.2-0.8,0.7-0.7,1.2
	c0,0.1,0.1,0.4,0.2,0.7c0.2,0.6,0.4,1.3,0.6,2c0.1,0.3,0.2,0.8,0.2,1c0.1,0.4,0.7,3.1,0.8,3.4c0,0.2,0,0.2-0.1,0.1
	c-0.1,0-1-0.4-4-1.7c-0.7-0.3-1.5-0.6-1.8-0.8l-0.6-0.2l-0.1-0.5c-0.5-2.3-1.4-5.6-1.5-5.9c-0.2-0.4-0.8-0.6-1.3-0.4
	c-0.4,0.1-0.8,0.6-0.8,1.1c0,0.1,0.1,0.6,0.2,1c0.4,1.4,0.9,3.6,0.9,3.6c0,0-1.6-0.6-2.2-0.9c-0.6-0.3-1.2-0.2-1.6,0.3
	c-0.3,0.4-0.3,1,0.1,1.4c0.2,0.2,0.9,0.5,2.2,1.1c0.4,0.2,0.8,0.3,0.8,0.4c0.1,0.1-1.9,1-2.8,1.3c-0.3,0.1-0.6,0.3-0.8,0.4
	c-0.8,0.7-0.3,2,0.7,2c0.4,0,1.3-0.3,2.7-1c0.4-0.2,1.2-0.6,1.8-0.8c0.6-0.2,1.1-0.5,1.2-0.5c0.2-0.1,0.2-0.1,1,0.3
	c0.5,0.2,1.5,0.6,2.3,1c0.8,0.4,1.5,0.7,1.6,0.7c0.1,0.1,0.1,0.1,0,0.1c-0.1,0-0.5,0.3-0.9,0.5c-2.8,1.5-3.4,1.8-4.3,2.4
	c-0.8,0.6-1.1,0.9-1.1,1.5c0,0.6,0.3,0.9,1,1.2c0.9,0.4,4.7,1.5,5.3,1.7c0.2,0.1,0.3,0-1.3,0.8c-1,0.5-2.2,1.1-3.1,1.6l-0.5,0.3
	l-1.8-0.7c-1-0.4-2.3-0.9-2.9-1.2c-1.3-0.5-1.4-0.6-1.8-0.3c-0.8,0.5-0.8,1.6,0.1,2c0.3,0.1,2.4,1,3.1,1.3c0.4,0.1,0.7,0.3,0.7,0.3
	c0,0-0.9,0.5-2.1,1.2c-0.6,0.3-0.8,0.6-0.8,1c0,0.4,0.1,0.7,0.4,1c0.3,0.2,0.4,0.3,0.8,0.3c0.3,0,0.6-0.1,1.7-0.8
	c0.9-0.5,1.2-0.7,1.2-0.6c0,0-0.2,0.7-0.3,1.6c-0.5,2.1-0.5,2.2-0.4,2.5c0.1,1.1,1.7,1.4,2.1,0.3c0-0.1,0.1-0.4,0.2-0.6
	c0-0.2,0.2-1.1,0.4-1.9c0.2-0.8,0.4-1.9,0.5-2.4c0.1-0.5,0.2-1,0.3-1c0.1-0.1,0.7-0.4,2.2-1.2c0.6-0.3,1.6-0.8,2.3-1.2
	s1.2-0.6,1.2-0.6c0,0,0,0.3,0,0.6c0,0.3,0,1,0.1,1.4c0,0.5,0.1,1.5,0.2,2.3c0.2,3.4,0.2,3.6,0.7,4c0.3,0.3,0.9,0.4,1.2,0.2
	c0.1,0,0.7-0.5,1.5-1.1c0.8-0.6,1.9-1.4,2.5-1.8c1.5-1,1.5-1,1.5-1c0,0,0,1.1,0,2.4l0,2.4l-0.5,0.3c-0.7,0.6-3.7,3-3.9,3.2
	c-0.3,0.4-0.4,0.9-0.1,1.3c0.2,0.4,0.5,0.6,0.9,0.6c0.4,0,0.7-0.1,1-0.4c0.3-0.3,2.5-2.2,2.6-2.2c0.1,0,0.1,1.3,0.1,2.3
	c0,0.6,0,0.7,0.1,0.9c0.3,0.7,1.3,0.8,1.8,0.3c0.3-0.3,0.3-0.4,0.3-1.9l0-1.4l0.2,0.2c0.1,0.1,0.6,0.6,1.1,1.1
	c1.2,1.2,1.6,1.5,2.1,1.5c0.8,0,1.4-0.8,1.1-1.6c-0.1-0.3-0.2-0.4-0.5-0.6c-0.1-0.1-1.2-1-2.2-2.1l-2-1.9l0-2.5c0-2.4,0-2.5,0.1-2.5
	c0.6,0.2,3.4,1.2,4.5,1.6c2.1,0.8,2.9,1.1,3.6,1.1c0.5,0,0.7-0.1,1-0.3c0.3-0.2,0.4-0.6,0.4-1c0-0.3-0.3-1.2-1.1-3.2
	c-0.5-1.1-1.1-2.8-1.1-2.9c0,0,0,0,0.1,0c0.1,0,2.1,0.9,3.2,1.4c0.9,0.4,2.7,1.3,3.2,1.5c0.2,0.1,0.4,0.2,0.4,0.2
	c0,0,0.1,0.3,0.1,0.6c0.1,0.3,0.2,1,0.4,1.6c0.1,0.6,0.4,1.6,0.5,2.3c0.1,0.7,0.3,1.3,0.3,1.4s0.2,0.3,0.3,0.4
	c0.7,0.6,1.8,0.1,1.8-0.8c0-0.3-0.4-2.4-0.7-3.5c-0.1-0.4-0.2-0.7-0.1-0.7c0.1,0,1.8,0.7,1.9,0.8c0.4,0.2,1,0.2,1.3-0.1
	c0.5-0.4,0.6-1,0.2-1.5c-0.1-0.2-0.6-0.4-1.8-1c-0.3-0.1-0.5-0.2-0.5-0.2c0-0.1,1.6-0.7,2.6-0.9
	C395.5,320.6,395.9,319.9,395.5,319.2z M365.1,317c-0.1,0-0.4-0.1-0.8-0.3c-1-0.4-1.6-0.6-3.4-1.1c-0.8-0.2-1.5-0.5-1.5-0.5
	c0,0,1.1-0.6,2.8-1.5c0.4-0.2,1.2-0.7,1.7-1c0.5-0.3,0.9-0.5,1-0.5c0.1,0,1,0.4,2,0.8l1.9,0.8l0,0.2c0,0.1,0,0.4-0.1,0.6l0,0.5
	L367,316C366,316.6,365.2,317,365.1,317z M372,321.8l-0.1,0.1c-0.1,0.1-0.5,0.4-1,0.7c-0.9,0.6-2.4,1.7-3.4,2.4
	c-0.3,0.3-0.7,0.5-0.7,0.4c0,0-0.1-0.4-0.1-0.9c0-0.5-0.1-1.4-0.1-2.2c-0.1-0.7-0.1-1.8-0.1-2.4l0-1.1l0.9-0.5
	c1-0.5,2.1-1.2,2.2-1.2c0,0,0.2,0.2,0.4,0.4c0.3,0.3,0.5,0.4,0.9,0.6c0.3,0.2,0.7,0.3,0.8,0.4l0.3,0.1l0,0.4c0,0.2,0,0.9,0,1.6
	V321.8z M371.9,310.8c0,0-0.1,0-0.2,0c-0.2,0-0.8,0.2-1,0.4c-0.1,0.1-0.3,0.2-0.5,0.4l-0.2,0.2l-0.7-0.3c-2.4-1-2.4-1-2.4-1.1
	c-0.1-0.6-1.1-4.8-1.1-5.1c0-0.1-0.1-0.4-0.2-0.7l-0.1-0.6l0.7,0.3c0.4,0.2,1.2,0.5,1.8,0.8c1.5,0.7,3.9,1.8,4,1.9
	C372.1,307.1,372,310.8,371.9,310.8z M374.3,308.9l0.1-2.1l0.3-0.3c0.2-0.1,0.8-0.7,1.5-1.2c0.6-0.5,1.3-1.1,1.5-1.3
	c0.2-0.2,0.6-0.5,0.9-0.7l0.6-0.5l0,0.5c0,0.3,0,1.2,0.1,2c0,0.9,0,1.9-0.1,2.5c0,0.6-0.1,1.2-0.1,1.4l0,0.4l-1.6,0.8
	c-0.9,0.5-1.7,0.9-1.8,1l-0.2,0.1l-0.3-0.2c-0.2-0.1-0.4-0.2-0.5-0.2c-0.1,0-0.2-0.1-0.3-0.1C374.3,311,374.3,310.1,374.3,308.9z
	 M379.4,323.7c-0.8-0.3-2-0.8-2.6-1c-0.6-0.2-1.5-0.5-1.8-0.7l-0.7-0.3v-1c0-0.6,0-1.3,0-1.6l0-0.6l0.4-0.3c0.5-0.3,0.8-0.6,1.1-1
	c0.1-0.2,0.3-0.3,0.3-0.3c0,0,0.2,0.1,0.3,0.1c0.2,0.1,0.8,0.3,1.4,0.6c0.6,0.3,1.1,0.5,1.1,0.5s0.1,0.2,0.2,0.4
	c0.2,0.8,1,3.2,1.5,4.4c0.3,0.7,0.5,1.3,0.5,1.3C380.9,324.2,380.2,324,379.4,323.7z M381.2,316.5l-0.3,0.2l-1.4-0.6
	c-0.7-0.3-1.7-0.7-2.1-0.9l-0.8-0.3l0-0.5c0-0.3-0.1-0.5-0.1-0.6c0-0.2-0.2-0.1,3-1.7l1.1-0.6l0.2,0.1c0.1,0.1,0.5,0.2,0.8,0.3
	c0.3,0.1,1.4,0.5,2.5,0.9l1.9,0.6l-1,0.7c-1.3,0.9-1.8,1.3-2.7,1.8C381.8,316.1,381.4,316.4,381.2,316.5z M306.3,108.4
	c0.2,0.1,1.3,0.5,1.7,0.7c0.2,0.1,0.4,0.1,0.4,0.1c0,0-0.5,0.3-1.1,0.6c-0.3,0.2-0.4,0.3-0.4,0.5c0,0.2,0,0.4,0.2,0.5
	c0.1,0.1,0.2,0.2,0.4,0.2c0.2,0,0.3-0.1,0.9-0.4c0.5-0.3,0.7-0.4,0.7-0.3c0,0-0.1,0.4-0.2,0.8c-0.2,1.1-0.3,1.2-0.2,1.3
	c0,0.6,0.9,0.7,1.1,0.2c0-0.1,0.1-0.2,0.1-0.3c0-0.1,0.1-0.6,0.2-1c0.1-0.4,0.2-1,0.3-1.3c0.1-0.3,0.1-0.5,0.1-0.5
	c0,0,0.4-0.2,1.2-0.6c0.3-0.2,0.9-0.5,1.2-0.6c0.3-0.2,0.6-0.3,0.6-0.3s0,0.1,0,0.3c0,0.2,0,0.5,0,0.8c0,0.3,0.1,0.8,0.1,1.2
	c0.1,1.8,0.1,1.9,0.4,2.1c0.2,0.2,0.5,0.2,0.7,0.1c0,0,0.4-0.3,0.8-0.6c0.4-0.3,1-0.8,1.4-1c0.8-0.6,0.8-0.6,0.8-0.5
	c0,0,0,0.6,0,1.3l0,1.3l-0.2,0.2c-0.4,0.3-2,1.6-2.1,1.7c-0.2,0.2-0.2,0.5-0.1,0.7c0.1,0.2,0.3,0.3,0.5,0.3c0.2,0,0.4,0,0.5-0.2
	c0.1-0.2,1.4-1.2,1.4-1.2c0,0,0.1,0.7,0.1,1.2c0,0.3,0,0.4,0.1,0.5c0.2,0.4,0.7,0.5,1,0.2c0.2-0.2,0.2-0.2,0.2-1l0-0.8l0.1,0.1
	c0.1,0.1,0.3,0.3,0.6,0.6c0.6,0.7,0.9,0.8,1.1,0.8c0.4,0,0.8-0.4,0.6-0.8c-0.1-0.1-0.1-0.2-0.3-0.3c-0.1,0-0.6-0.6-1.2-1.1l-1.1-1
	l0-1.3c0-1.3,0-1.3,0-1.3c0.3,0.1,1.8,0.6,2.4,0.9c1.1,0.5,1.5,0.6,1.9,0.6c0.3,0,0.4,0,0.6-0.2c0.1-0.1,0.2-0.3,0.2-0.5
	c0-0.2-0.2-0.6-0.6-1.7c-0.2-0.6-0.6-1.5-0.6-1.6c0,0,0,0,0,0c0,0,1.1,0.5,1.7,0.8c0.5,0.2,1.5,0.7,1.7,0.8c0.1,0,0.2,0.1,0.2,0.1
	c0,0,0,0.1,0.1,0.3c0,0.2,0.1,0.6,0.2,0.9s0.2,0.9,0.3,1.2c0.1,0.4,0.2,0.7,0.2,0.7c0,0.1,0.1,0.2,0.2,0.2c0.4,0.3,1,0.1,1-0.4
	c0-0.1-0.2-1.3-0.4-1.9c0-0.2-0.1-0.4-0.1-0.4c0,0,0.9,0.4,1,0.5c0.2,0.1,0.5,0.1,0.7-0.1c0.3-0.2,0.3-0.5,0.1-0.8
	c-0.1-0.1-0.3-0.2-1-0.5c-0.1-0.1-0.3-0.1-0.3-0.1c0,0,0.9-0.4,1.4-0.5c0.4-0.1,0.6-0.5,0.4-0.9c-0.1-0.2-0.4-0.4-0.6-0.3
	c-0.2,0-0.9,0.3-1.3,0.4c-0.2,0.1-0.6,0.3-0.9,0.4l-0.5,0.2l-0.5-0.2c-0.3-0.1-0.9-0.4-1.3-0.6c-0.4-0.2-0.9-0.4-1-0.5
	c-0.1,0-0.2-0.1-0.2-0.1c0,0,0.1-0.1,0.2-0.2c0.6-0.4,2.3-1.6,2.6-1.9c0.2-0.2,0.2-0.2,0.2-0.4c0.1-0.2,0-0.4-0.1-0.5
	c-0.1-0.2-0.2-0.2-0.7-0.4c-0.3-0.1-2.3-0.7-2.4-0.8c-0.1,0-0.1,0,1.3-0.7l1.1-0.5l0.2,0.1c0.4,0.3,1.9,1.1,2.5,1.4
	c0.3,0.2,0.5,0.2,0.8,0c0.3-0.2,0.3-0.7,0.1-0.9c0,0-0.4-0.3-0.9-0.5c-1.2-0.6-1.4-0.7-1.4-0.8c0,0,0.8-0.5,0.9-0.5
	c0.1,0,0.3-0.1,0.4-0.2c0.2-0.2,0.2-0.4,0.2-0.6c0-0.2-0.2-0.4-0.4-0.4c-0.2-0.1-0.4,0-0.9,0.3c-0.3,0.1-0.5,0.3-0.5,0.2
	c0,0,0.3-1.2,0.5-1.6c0.1-0.3,0.1-0.5,0-0.7c-0.2-0.3-0.7-0.3-0.9-0.1c-0.2,0.2-0.4,1-0.7,2c-0.1,0.3-0.2,0.7-0.3,0.9l-0.1,0.3
	l-1,0.5c-0.6,0.3-1.2,0.6-1.4,0.7c-0.3,0.2-0.4,0.2-0.4,0.2c0,0,0-0.2,0-0.4c0-0.5,0-1.3,0-2.4c0-1-0.1-1.3-0.3-1.5
	c-0.1-0.1-0.2-0.2-0.4-0.2c-0.2,0-0.2,0-0.8,0.4c-0.6,0.4-0.9,0.6-1.4,1c-0.2,0.2-0.5,0.4-0.6,0.5l-0.2,0.2v-0.4c0-0.2,0-0.7,0-1
	l0-0.7l0.8-0.5c0.4-0.3,1-0.7,1.3-0.8c0.5-0.3,0.5-0.4,0.6-0.5c0.2-0.3,0.1-0.7-0.2-0.8c-0.2-0.1-0.4-0.1-0.5,0
	c-0.1,0-1.4,0.9-1.8,1.1c-0.1,0-0.1,0.1-0.1,0.1c0,0,0-0.4,0-0.8l0-0.8l-0.1-0.2c-0.1-0.3-0.4-0.4-0.7-0.3c-0.1,0-0.3,0.2-0.4,0.3
	c0,0.1,0,0.2-0.1,0.7l0,0.6l-0.3-0.3c-0.3-0.3-0.4-0.5-0.7-0.8c-0.2-0.2-0.3-0.3-0.6-0.3c-0.3,0-0.5,0.2-0.6,0.5
	c-0.1,0.3,0.1,0.6,1.3,1.8c0.4,0.4,0.7,0.7,0.7,0.8c0.1,0.1,0.1,0.1,0.1,1.3l0,1.3l-0.2-0.1c-0.1,0-0.3-0.1-0.5-0.2
	c-0.2-0.1-0.8-0.4-1.4-0.7c-0.6-0.3-1.3-0.6-1.6-0.8c-0.7-0.3-0.8-0.3-1-0.2c-0.3,0.1-0.4,0.4-0.4,0.6c0,0.1,0.1,0.2,0.1,0.4
	c0.1,0.3,0.2,0.7,0.3,1.1c0,0.2,0.1,0.4,0.1,0.5c0.1,0.2,0.4,1.7,0.4,1.8c0,0.1,0,0.1,0,0.1c-0.1,0-0.5-0.2-2.1-0.9
	c-0.4-0.2-0.8-0.3-1-0.4l-0.3-0.1l-0.1-0.3c-0.3-1.3-0.7-3-0.8-3.1c-0.1-0.2-0.5-0.3-0.7-0.2c-0.2,0.1-0.4,0.3-0.4,0.6
	c0,0.1,0,0.3,0.1,0.5c0.2,0.7,0.5,1.9,0.5,1.9c0,0-0.8-0.3-1.2-0.5c-0.3-0.2-0.7-0.1-0.8,0.2c-0.2,0.2-0.1,0.6,0,0.8
	c0.1,0.1,0.5,0.3,1.2,0.6c0.2,0.1,0.4,0.2,0.4,0.2c0,0-1,0.5-1.5,0.7c-0.2,0.1-0.3,0.1-0.4,0.2c-0.4,0.4-0.2,1,0.4,1
	c0.2,0,0.7-0.2,1.5-0.5c0.2-0.1,0.7-0.3,1-0.4c0.3-0.1,0.6-0.3,0.6-0.3c0.1,0,0.1,0,0.5,0.1c0.2,0.1,0.8,0.3,1.2,0.5
	c0.4,0.2,0.8,0.4,0.9,0.4c0.1,0,0.1,0,0,0.1c0,0-0.3,0.1-0.5,0.3c-1.5,0.8-1.8,1-2.3,1.3c-0.4,0.3-0.6,0.5-0.6,0.8
	c0,0.3,0.2,0.5,0.5,0.6c0.5,0.2,2.5,0.8,2.9,0.9c0.1,0,0.1,0-0.7,0.4c-0.5,0.3-1.2,0.6-1.7,0.9l-0.3,0.2l-1-0.4
	c-0.5-0.2-1.2-0.5-1.6-0.6c-0.7-0.3-0.8-0.3-1-0.2C305.8,107.6,305.8,108.2,306.3,108.4z M322.2,103.3l0.1,0.1
	c0.1,0,0.2,0.1,0.4,0.2c0.2,0.1,0.8,0.3,1.3,0.5l1,0.3l-0.5,0.4c-0.7,0.5-1,0.7-1.5,1c-0.2,0.1-0.5,0.3-0.5,0.3l-0.1,0.1l-0.7-0.3
	c-0.4-0.2-0.9-0.4-1.1-0.5l-0.4-0.2l0-0.2c0-0.1,0-0.3,0-0.3c0-0.1-0.1,0,1.6-0.9L322.2,103.3z M318.8,102l0-1.1l0.2-0.1
	c0.1-0.1,0.4-0.4,0.8-0.7s0.7-0.6,0.8-0.7c0.1-0.1,0.3-0.3,0.5-0.4l0.3-0.2l0,0.3c0,0.1,0,0.6,0,1.1c0,0.5,0,1,0,1.4
	c0,0.3,0,0.7,0,0.8l0,0.2l-0.9,0.4c-0.5,0.2-0.9,0.5-1,0.5l-0.1,0.1l-0.2-0.1c-0.1,0-0.2-0.1-0.3-0.1c-0.1,0-0.1,0-0.1-0.1
	C318.8,103.1,318.8,102.6,318.8,102z M318.9,107c0.3-0.2,0.4-0.3,0.6-0.5c0.1-0.1,0.1-0.2,0.2-0.2s0.1,0,0.2,0.1
	c0.1,0,0.4,0.2,0.7,0.3c0.3,0.1,0.6,0.3,0.6,0.3s0.1,0.1,0.1,0.2c0.1,0.5,0.6,1.7,0.8,2.3c0.2,0.4,0.3,0.7,0.3,0.7
	c0,0-0.4-0.1-0.8-0.3c-0.4-0.2-1.1-0.4-1.4-0.5c-0.3-0.1-0.8-0.3-1-0.4l-0.4-0.1v-0.6c0-0.3,0-0.7,0-0.9l0-0.3L318.9,107z
	 M317.6,108.9L317.6,108.9c-0.1,0.1-0.4,0.3-0.6,0.4c-0.5,0.3-1.3,0.9-1.8,1.3c-0.2,0.1-0.4,0.2-0.4,0.2c0,0,0-0.2,0-0.5
	c0-0.2,0-0.8-0.1-1.2c0-0.4-0.1-1-0.1-1.3l0-0.6l0.5-0.3c0.5-0.3,1.1-0.6,1.2-0.6c0,0,0.1,0.1,0.2,0.2c0.2,0.2,0.3,0.2,0.5,0.3
	c0.2,0.1,0.4,0.2,0.4,0.2l0.2,0l0,0.2c0,0.1,0,0.5,0,0.8V108.9z M314.5,99.5c0.2,0.1,0.6,0.3,1,0.4c0.8,0.4,2.1,1,2.1,1c0,0,0,2,0,2
	c0,0-0.1,0-0.1,0c-0.1,0-0.4,0.1-0.6,0.2c-0.1,0-0.2,0.1-0.3,0.2l-0.1,0.1l-0.4-0.2c-1.3-0.5-1.3-0.5-1.3-0.6
	c-0.1-0.3-0.6-2.6-0.6-2.7c0,0-0.1-0.2-0.1-0.4l-0.1-0.3L314.5,99.5z M311.6,105.6c-0.4-0.1-0.8-0.2-0.8-0.2c0,0,0.6-0.3,1.5-0.8
	c0.2-0.1,0.6-0.4,0.9-0.5c0.3-0.2,0.5-0.3,0.5-0.3c0,0,0.5,0.2,1.1,0.4l1,0.4l0,0.1c0,0.1,0,0.2,0,0.3l0,0.2l-0.9,0.5
	c-0.5,0.3-1,0.5-1,0.5c0,0-0.2-0.1-0.5-0.1C312.9,106,312.6,105.9,311.6,105.6z"/>
</svg>
