<?xml version="1.0" encoding="utf-8"?>
<!-- Generator: Adobe Illustrator 22.1.0, SVG Export Plug-In . SVG Version: 6.00 Build 0)  -->
<svg version="1.1" id="Layer_1" xmlns="http://www.w3.org/2000/svg" xmlns:xlink="http://www.w3.org/1999/xlink" x="0px" y="0px"
	 viewBox="0 0 1080 1296" style="enable-background:new 0 0 1080 1296;" xml:space="preserve">
<path d="M161.3,288.3c-9.2-2.9-13.8-7.2-13.8-13c0-2.6,1.6-6.6,4.7-12.1c3.1-5.5,6.8-9.2,11-11.1c3.7-1.5,7.3-2.3,10.8-2.5
	c3.5-0.2,5.2,0.2,5.2,1.2c0,0.3-0.1,0.5-0.4,0.8s-0.6,0.5-0.9,0.6c-0.3,0.2-0.7,0.3-1,0.5c-1.7,0.7-3.1,1.2-4.2,1.6
	c-1.1,0.4-1.9,0.8-2.6,1.2c-0.6,0.4-1,0.9-1,1.6c0,1.8,8.9,2.7,26.8,2.7c15.6,0,28.3-0.6,38.2-1.7c9.9-1.1,18.7-3.2,26.3-6.1
	c7.6-2.9,14.5-7,20.7-12.2c-2.2-4-5.4-7.6-9.7-10.8c-4.3-3.2-9.2-5.8-14.6-7.7c-5.4-1.9-11-3.4-16.9-4.3c-17.5-2.6-33.7-8.3-48.9-17
	c-1.3-0.7-2.7-2.2-4.1-4.4c-1.5-2.2-2.2-4.4-2.2-6.5c0-7.6,1.3-15.2,3.8-22.9c2.5-7.6,5.8-13.6,9.8-18c6.4-7.2,17.9-13.4,34.5-18.8
	c16.6-5.4,35.4-8,56.2-8c12.4,0,22.1,1,28.8,2.9c6.8,1.9,10.2,4.8,10.2,8.8c0,6.5-0.9,11.5-2.7,15c-1.8,3.5-3.7,5.9-5.7,7.1
	c-2,1.2-5.6,2.7-10.7,4.7c-5.4,1.9-10.2,3.9-14.2,6c-4,2.1-7.5,4.1-10.3,6c-2.9,1.9-4.6,2.9-5.3,2.9c-0.9,0-1.3-0.3-1.3-1
	c0-1.5,1.5-3.7,4.6-6.7c3.1-3,6.8-5.6,11.3-7.8c4.8-2.5,7.1-4.1,7.1-4.8c0-1.1-2.6-1.7-7.9-1.7c-16,0-30.8,1.4-44.3,4.3
	c-13.6,2.9-24.3,6.6-32.1,11.3c-7.8,4.7-11.7,9.4-11.7,14.3c0,3,1.6,5.2,4.9,6.4c3.2,1.3,10.4,3.4,21.5,6.3
	c11.1,2.9,21,6.3,29.7,10.1c12.5,5.4,21.8,10.9,27.9,16.7c6,5.8,9.1,12.3,9.1,19.4c0,4.9-1.2,9.9-3.6,14.8c-2.4,5-5.9,9.5-10.4,13.7
	c-4.6,4.1-9.9,7.6-15.8,10.2c-5.1,2.2-11.5,4.2-19.2,6.1c-7.7,1.9-16.1,3.4-25.1,4.5c-9,1.1-17.7,1.6-25.9,1.6
	C182.7,292.6,170.5,291.2,161.3,288.3z M373.6,259.5c-2.2-5.2-3.3-10.6-3.3-16.3c0-4.1,0.4-7.5,1.2-10.2s2.3-5.5,4.5-8.4
	c2.2-2.9,5.8-6.6,10.8-11.3c13.1-11.9,25.9-20.8,38.2-26.6c12.4-5.8,21.9-8.7,28.6-8.7c1.8,0,3.5,0.8,5.1,2.3
	c1.6,1.5,2.8,3.3,3.7,5.3c0.9,2,1.4,3.5,1.4,4.4c0,1.6-0.6,2.7-1.8,3.4c-1.2,0.7-3.3,1.6-6.4,2.7c0.6,1.4,1.4,3.2,2.3,5.3
	c0.9,2.2,1.7,3.9,2.2,5.3c0.5,1.3,0.8,2.5,0.8,3.6c0,2.1-2.1,5.9-6.3,11.6c-4.2,5.7-7.1,9.8-8.8,12.5c-1.7,2.7-2.5,6-2.5,9.9
	c0,6.4,2.9,9.6,8.8,9.6c6,0,15.5-5.7,28.4-17v7.9c-21.9,24.3-37.5,36.4-46.9,36.4c-3.4,0-5.8-1.1-7.2-3.3s-2.1-5.5-2.1-9.8
	c0-6.8,2.5-16.7,7.4-29.7c-12.6,14-22,24-28.1,29.9c-6.1,5.9-11.2,8.9-15.2,8.9c-1.9,0-4.3-1.6-7.1-4.9
	C378.3,269,375.8,264.7,373.6,259.5z M386.5,247.5c0,2.8,0.5,5,1.4,6.8c0.9,1.8,2.2,2.7,3.9,2.7c0.9,0,2.6-0.6,5.1-1.8
	c9.1-5.4,17.4-12.3,24.9-20.9c7.5-8.6,16.5-20.3,27.1-35.1c-22.5,10.3-38.5,19-48,26.2C391.3,232.5,386.5,239.9,386.5,247.5z
	 M542.3,273.2c1.8,0,3.6-0.9,5.4-2.7c1.8-1.8,4.6-5.2,8.4-10.4c3.8-5.1,7.5-9.8,10.8-14c3.4-4.2,7.5-8.6,12.3-13.3
	c7.4-7.4,13.6-12.4,18.5-14.9c-4.1,6.8-7.6,12.9-10.8,18.3c-3.1,5.4-5.4,9.5-6.9,12.4c-1.5,2.9-2.7,5.7-3.6,8.4
	c-0.9,2.7-1.3,5.4-1.3,8.2c0,9.3,3.5,14,10.6,14c4.1,0,9.5-2.7,16.1-8c6.6-5.4,16-14.1,28.3-26.2v-8.9c-8.6,6.7-14.8,11.4-18.9,14.1
	c-4,2.6-7.3,4-9.8,4c-3,0-4.5-1.9-4.5-5.6c0-6.7,7.6-18.4,22.8-35.4c3.7-3.9,5.6-6.8,5.6-8.7c0-3.9-0.7-7.7-2-11.5
	c-1.3-3.8-2.7-5.7-4.1-5.7c-3,0-6.8,1.6-11.4,4.8c-8.2,5.4-15.5,11.1-22,17c-6.4,5.9-12,11.5-16.7,16.9c-4.7,5.4-8.6,9.8-11.5,13.1
	c-3,3.3-5,5-6,5c-1.6,0-2.5-1.3-2.5-3.8c0-4.5,6.8-14.3,20.5-29.4c2.1-2.2,3.4-3.8,4.1-4.5c0.6-0.8,1.2-1.6,1.8-2.6
	c0.5-0.9,0.8-1.9,0.8-2.7c0-2-0.8-3.5-2.5-4.4c-1.7-0.9-3.9-1.4-6.7-1.4c-4,0-8.1,2.1-12.4,6.4c-4.3,4.3-9.5,11-15.4,20.2
	c-3.2,4.9-5.3,8.7-6.4,11.4c-1.1,2.7-1.6,6.4-1.6,11.1c0,7.7,1.2,14.4,3.5,20.2C536.9,270.3,539.5,273.2,542.3,273.2z M687.2,241.2
	c0.9-0.8,1.9-1.7,3-2.7c1.1-1,2.2-2,3.4-3c-3.5,8.9-5.9,15.6-7.2,20c-1.3,4.4-2,8.2-2,11.4c0,4.8,1.2,8.6,3.6,11.7
	c2.4,3,5.5,4.5,9.4,4.5c11.1,0,28.4-12.7,51.7-38v-8.7c-8.9,7.3-16,12.6-21.3,16.1c-5.3,3.5-9.6,5.3-12.9,5.3c-4.8,0-7.1-3-7.1-8.9
	c0-4.4,0.8-9.1,2.5-14c1.7-4.9,4.1-10.3,7.3-16.3c3.2-5.9,7.1-12.6,11.7-20.2c2.4,0.2,4.5,0.3,6.2,0.5c1.7,0.1,3.3,0.3,5,0.4
	c1.6,0.1,3.7,0.3,6.1,0.5c7.4-9.6,13.6-19,18.5-28.1c-1.3-0.2-3.1-0.4-5.4-0.6c-2.3-0.3-4.9-0.6-7.8-0.9c1.9-3.1,4.7-7,8.4-11.5
	c3.7-4.6,5.6-7.4,5.6-8.4c0-2.2-2.4-3.2-7.1-3.2c-4.8,0-9,1.7-12.7,5.1c-3.7,3.4-7.9,9.2-12.4,17.4H728c-6.7,0-11.8,0.4-15.5,1.2
	c-3.7,0.8-6.8,2.4-9.3,4.7c-2.5,2.3-5.3,5.9-8.1,10.8c-3.5,5.7-5.3,10-5.3,12.8c0,0.5,0.2,0.8,0.5,0.8c0.3,0,1-0.1,1.9-0.5
	c0.9-0.3,1.9-0.6,2.9-0.8c2.5-0.7,6.3-1,11.4-1c1.6,0,2.9,0,4,0.1c1.1,0,2.3,0.1,3.6,0.2c-12.9,19.1-23.9,32.5-32.9,40.1v8.9
	c1-0.9,2.1-1.9,3.1-2.8S686.3,242,687.2,241.2z M803.9,259.5c-2.2-5.2-3.3-10.6-3.3-16.3c0-4.1,0.4-7.5,1.2-10.2s2.3-5.5,4.5-8.4
	c2.2-2.9,5.8-6.6,10.8-11.3c13.1-11.9,25.9-20.8,38.2-26.6c12.4-5.8,21.9-8.7,28.6-8.7c1.8,0,3.5,0.8,5.1,2.3
	c1.6,1.5,2.8,3.3,3.7,5.3c0.9,2,1.4,3.5,1.4,4.4c0,1.6-0.6,2.7-1.8,3.4c-1.2,0.7-3.3,1.6-6.4,2.7c0.6,1.4,1.4,3.2,2.3,5.3
	c1,2.2,1.7,3.9,2.2,5.3c0.5,1.3,0.8,2.5,0.8,3.6c0,2.1-2.1,5.9-6.3,11.6c-4.2,5.7-7.1,9.8-8.8,12.5c-1.7,2.7-2.5,6-2.5,9.9
	c0,6.4,2.9,9.6,8.8,9.6c6,0,15.5-5.7,28.4-17v7.9c-21.9,24.3-37.5,36.4-46.9,36.4c-3.4,0-5.8-1.1-7.2-3.3s-2.1-5.5-2.1-9.8
	c0-6.8,2.5-16.7,7.4-29.7c-12.6,14-22,24-28.1,29.9c-6.1,5.9-11.2,8.9-15.2,8.9c-1.9,0-4.3-1.6-7.1-4.9
	C808.7,269,806.1,264.7,803.9,259.5z M816.8,247.5c0,2.8,0.5,5,1.4,6.8c1,1.8,2.2,2.7,3.9,2.7c1,0,2.6-0.6,5.1-1.8
	c9.1-5.4,17.4-12.3,24.9-20.9c7.5-8.6,16.5-20.3,27.1-35.1c-22.5,10.3-38.5,19-48,26.2C821.6,232.5,816.8,239.9,816.8,247.5z
	 M335.7,448.4c2.9,8.7,6.7,16.4,11.5,23c4.8,6.6,10.4,11.9,16.9,15.9c6.4,4,13.5,5.9,21.1,5.8c6,0,11.4-0.8,16.4-2.4
	c5-1.6,9.4-3.6,13.4-6.1c4-2.4,7.4-5.1,10.4-8c3-2.9,5.5-5.6,7.5-8.3c2-2.6,3.6-4.9,4.7-6.8c1.1-1.9,1.8-3.1,2.1-3.7
	c0.1-0.2-0.2-0.7-0.7-1.5c-0.6-0.8-1.2-1.7-2-2.6c-0.8-0.9-1.5-1.6-2.2-2.2c-0.7-0.6-1.1-0.7-1.2-0.3c-2.7,6.9-5.8,12.8-9.4,17.5
	c-3.6,4.7-7.5,8.5-11.8,11.3c-4.3,2.8-8.8,4.9-13.5,6.1c-4.8,1.2-9.6,1.7-14.6,1.5c-6.8-0.2-12.8-2.2-17.9-6.1
	c-5.1-3.9-9.4-8.9-12.9-15.1c-3.5-6.2-6.1-13.3-7.8-21.2c-1.7-7.9-2.6-16.1-2.7-24.4c-0.1-7,0.4-14.1,1.4-21.3
	c1-7.2,2.6-14.1,4.7-20.7c2.1-6.7,4.7-12.9,7.9-18.7c3.2-5.8,6.8-10.9,11.1-15.3c4.2-4.4,9-7.8,14.3-10.3c5.3-2.5,11.1-3.7,17.4-3.7
	c5.1,0,9.6,1,13.5,2.9c3.9,2,7.2,4.7,9.9,8.3c2.7,3.6,4.8,8,6.2,13.2c1.4,5.2,2.2,11,2.3,17.4c0.1,5.1-0.9,10.2-3,15.4
	c-2.1,5.2-5,9.9-8.7,14c-3.7,4.1-8.2,7.4-13.3,9.9c-5.1,2.5-10.6,3.6-16.6,3.3c-1-0.1-1.2,0.5-0.7,1.7c0.5,1.2,1.3,2.6,2.4,4.1
	c1.1,1.5,2.1,2.9,3.2,4.2c1.1,1.3,1.7,1.9,2,1.9c2.3,0.4,5,0.2,8.2-0.5c3.2-0.7,6.4-2,9.8-3.8c3.4-1.8,6.7-4.2,9.9-7.1
	c3.2-2.9,6.1-6.5,8.6-10.6c2.5-4.1,4.5-8.9,6-14.2c1.5-5.3,2.2-11.2,2.1-17.7c-0.1-5.1-0.9-10.4-2.3-16c-1.5-5.6-3.8-10.8-7-15.6
	c-3.2-4.8-7.4-8.8-12.6-12.1c-5.2-3.2-11.6-5-19.1-5.1c-8.4-0.2-15.9,1-22.7,3.5c-6.8,2.5-12.8,6.1-18.1,10.7
	c-5.3,4.6-9.9,10.1-13.7,16.3c-3.8,6.3-6.9,13-9.3,20.3c-2.4,7.2-4.1,14.8-5.1,22.6c-1,7.8-1.2,15.6-0.8,23.3
	C331.1,430.7,332.9,439.7,335.7,448.4z M476.2,380.5c1.2-5.5,2.7-10.5,4.5-15.1c1.7-4.6,3.7-8.5,5.9-11.7c2.2-3.2,4.8-5.1,7.6-5.7
	c3.3-0.7,5.9-0.4,7.9,0.9c2,1.3,3.5,3.2,4.4,5.9c0.9,2.6,1.5,5.7,1.7,9.3c0.2,3.6,0.1,7.3-0.3,11c-0.4,3.7-0.8,7.4-1.5,11
	c-0.6,3.6-1.2,6.7-1.9,9.3c-1.5,6.6-3.3,12.2-5.3,16.9c-2,4.7-4,8.7-6.1,12c-2,3.3-4,5.9-5.9,7.8c-1.9,1.9-3.6,3.4-5,4.3
	c-0.2,3.9-0.2,8-0.2,12.2c0,4.2,0.4,8.1,0.9,11.7c0.6,3.6,1.5,6.6,2.7,9c1.2,2.4,2.8,3.7,4.9,3.9c3,0.4,5.6-0.5,7.6-2.5
	c2-2,3.8-4.6,5.2-7.8c1.4-3.2,2.7-6.7,3.7-10.4s2.1-7.2,3.2-10.4c0.3-0.7,0.7-1.2,1.3-1.3c0.6-0.2,1.2-0.2,1.9,0.1
	c0.6,0.2,1.1,0.6,1.5,1.1c0.4,0.5,0.5,1,0.3,1.5c-1.7,5.2-3.3,10.2-4.9,14.9c-1.6,4.7-3.4,8.8-5.4,12.3c-2,3.5-4.4,6.3-7.1,8.3
	c-2.7,2-6.1,2.9-10.1,2.7c-2.8-0.2-5.5-1.4-7.9-3.6c-2.4-2.2-4.5-5.7-6.2-10.5c-1.7-4.8-2.9-11.1-3.6-18.8
	c-0.7-7.7-0.7-17.2,0.1-28.3c0.2-2.3,0.5-5.6,0.9-9.9c0.4-4.3,1.1-9,1.9-14.2C473.9,391.3,474.9,386,476.2,380.5z M482.7,429.8
	c1.2-1.1,2.4-2.5,3.8-4.3c1.4-1.8,2.8-4.1,4.3-6.8c1.5-2.7,2.9-6,4.3-9.7c1.4-3.8,2.8-8.2,4-13.1c1.3-5.2,2.3-10.3,2.9-15.3
	c0.6-5.1,0.9-9.5,0.9-13.4c0-3.9-0.3-6.9-0.9-9.1c-0.6-2.2-1.6-3.1-2.9-2.7c-1.2,0.4-2.3,2-3.3,4.5c-1.1,2.6-2.1,5.8-3.1,9.6
	c-1,3.8-1.9,8.1-2.7,12.7c-0.8,4.7-1.6,9.3-2.3,14c-0.7,4.7-1.4,9.1-2.1,13.2s-1.3,7.6-1.8,10.5c-0.2,0.8-0.4,2.1-0.6,3.9
	C483.1,425.4,482.9,427.5,482.7,429.8z M578.8,457.7c-0.1,4.1-0.1,7.6,0,10.4c0.1,2.8,0.3,4.2,0.7,4.2c1,0.1,2-0.6,3-2
	c1-1.4,2-3.2,3-5.3c1-2.1,1.9-4.4,2.8-6.9c0.9-2.5,1.7-4.8,2.3-6.9c0.7-2.1,1.2-3.9,1.6-5.3c0.4-1.4,0.6-2.1,0.7-2.1
	c0.1,0,0.3,0,0.7,0.1c0.4,0,0.8,0.1,1.3,0.1c0.4,0,0.8,0.1,1.2,0.3c0.4,0.1,0.5,0.3,0.5,0.6c0,0.2-0.2,1.2-0.7,3.1
	c-0.5,1.9-1.2,4.2-2,6.9c-0.8,2.7-1.9,5.6-3.2,8.8c-1.3,3.2-2.7,6-4.3,8.7c-1.6,2.6-3.4,4.8-5.3,6.5s-4,2.6-6.1,2.5
	c-1.2,0-2.1-0.2-2.9-0.7c-0.8-0.5-1.5-1.1-2.1-1.9c-0.6-0.8-1.1-1.7-1.5-2.7c-0.4-1-0.7-2-0.9-2.9c-1.2,2.1-2.6,3.8-4.1,4.9
	c-1.5,1.2-3,2-4.5,2.5s-2.8,0.8-3.9,0.9c-1.2,0-2,0-2.5-0.1c-1.2-0.1-2.9-0.5-4.9-1.3c-2-0.8-4-2.3-6-4.7c-2-2.4-3.6-5.8-5-10.3
	c-1.4-4.5-2-10.7-1.9-18.4c0.1-6.7,0.7-12.3,1.8-16.9c1.1-4.6,2.5-8.3,4.1-11.3c1.6-2.9,3.4-5.2,5.3-6.9c2-1.6,3.8-2.8,5.7-3.5
	c1.8-0.7,3.4-1.1,4.8-1.3c1.4-0.1,2.4-0.2,3-0.2c1.3,0,2.5,0.3,3.5,0.9c1,0.6,2,1.3,2.8,2.1c0.8,0.8,1.6,1.8,2.1,2.7
	c0.6,1,1,1.9,1.4,2.8c0.2-2.2,0.4-4,0.5-5.3c0.2-1.3,0.4-2,0.5-2.1c0.5-0.1,1.4-0.1,2.7,0.1c1.2,0.1,2.5,0.4,3.7,0.9
	c1.2,0.4,2.3,1.1,3.2,2.1c0.9,0.9,1.2,2.2,1.1,3.8c-0.1,0.4-0.2,2-0.4,5c-0.2,3-0.4,6.6-0.6,10.9c-0.2,4.3-0.4,8.9-0.6,13.8
	C579.1,449.1,578.9,453.6,578.8,457.7z M568.6,423.6c-0.2,0.2-0.3-0.1-0.3-0.8c0.1-1.2-0.1-2.4-0.6-3.7c-0.5-1.3-1.1-2.5-1.9-3.5
	c-0.8-1.1-1.7-2-2.7-2.7c-1-0.7-1.9-1.1-2.8-1.1c-1.7,0-3.2,0.6-4.5,1.9c-1.3,1.3-2.4,3-3.4,5.1c-1,2.1-1.8,4.4-2.5,6.9
	c-0.7,2.5-1.2,5-1.6,7.5c-0.4,2.5-0.7,4.8-0.9,6.9c-0.2,2.1-0.4,3.8-0.5,5.1c-0.2,1.8-0.2,4.3-0.1,7.6c0.1,3.3,0.5,6.6,1.1,9.9
	c0.6,3.3,1.6,6.1,2.9,8.5c1.3,2.4,3.2,3.5,5.6,3.4c1.7,0,3.1-0.4,4.3-1.3c1.2-0.8,2.1-1.9,2.9-3.1c0.8-1.2,1.4-2.5,1.9-3.9
	c0.5-1.4,0.9-2.7,1.3-3.9c0-2.3,0.1-5,0.2-8.2c0.1-3.2,0.3-6.5,0.4-10c0.1-3.5,0.3-7,0.5-10.6C568.2,430.2,568.4,426.8,568.6,423.6z
	 M625.4,407.6c-1.6-0.1-3.2-0.1-4.6,0.2c-1.4,0.3-2.1,0.7-2,1.2c0.2,1.7,0.4,3.6,0.5,5.7c0.2,2.1,0.3,4.4,0.4,7
	c-0.1,3-0.3,6.6-0.7,10.7c-0.4,4.1-0.7,8.4-1,12.9c-0.3,4.4-0.3,8.8-0.2,13.2c0.1,4.4,0.7,8.3,1.6,11.8c0.9,3.5,2.4,6.4,4.3,8.5
	c2,2.2,4.7,3.3,8.1,3.4c2.2,0,4.3-0.4,6.1-1.1c1.9-0.8,3.5-1.8,5-3.1s2.8-2.9,3.9-4.6c1.2-1.7,2.2-3.5,3.1-5.4c0,0.3,0,0.6,0.1,0.9
	c0,0.3,0.1,0.5,0.1,0.6c0.1,0.8,0.3,1.9,0.6,3.2c0.3,1.3,0.8,2.6,1.3,3.9c0.6,1.2,1.4,2.3,2.4,3.3c1,0.9,2.3,1.4,3.8,1.4
	c2.1,0.1,4.2-0.7,6.1-2.5c2-1.7,3.7-3.9,5.3-6.5c1.6-2.6,3-5.5,4.3-8.7c1.3-3.2,2.4-6.1,3.2-8.8c0.8-2.7,1.5-5,2-6.9
	c0.5-1.9,0.7-2.9,0.7-3.1c0-0.3-0.2-0.5-0.5-0.6c-0.4-0.1-0.8-0.2-1.2-0.3c-0.4,0-0.9-0.1-1.3-0.1c-0.4,0-0.6-0.1-0.7-0.1
	c-0.1,0-0.3,0.7-0.7,2.1c-0.4,1.4-0.9,3.2-1.6,5.3c-0.7,2.1-1.4,4.4-2.3,6.9c-0.9,2.5-1.8,4.8-2.8,6.9c-1,2.1-2,3.9-3,5.3
	c-1,1.4-2,2.1-3,2c-0.4,0-0.6-1.4-0.7-4.2c-0.1-2.8-0.1-6.3,0-10.4c0.1-4.1,0.2-8.6,0.4-13.5c0.2-4.9,0.4-9.5,0.6-13.8
	c0.2-4.3,0.4-8,0.6-10.9c0.2-3,0.3-4.6,0.4-5c0.2-1.6-0.2-2.9-1.1-3.8c-0.9-0.9-2-1.6-3.2-2.1c-1.2-0.4-2.5-0.7-3.7-0.9
	c-1.2-0.1-2.1-0.2-2.7-0.1c-0.3,0.1-0.5,1.7-0.8,4.7c-0.3,3.1-0.5,6.9-0.8,11.5c-0.3,4.6-0.5,9.5-0.8,14.9
	c-0.3,5.3-0.5,10.3-0.7,14.8c-0.4,2-1,4.2-1.7,6.5c-0.7,2.3-1.4,4.4-2.3,6.3c-0.9,1.9-1.9,3.6-3.1,4.9c-1.2,1.4-2.4,2.2-3.9,2.3
	c-2.8,0.4-4.8-0.4-6.2-2.5c-1.4-2.1-2.3-5-2.7-8.7c-0.4-3.7-0.6-7.8-0.3-12.5c0.2-4.6,0.5-9.3,0.9-13.9c0.4-4.7,0.6-9.1,0.9-13.3
	c0.2-4.2,0.2-7.6-0.2-10.1c0.2-1.6-0.4-2.8-1.8-3.6C628.6,408.2,627.1,407.7,625.4,407.6z M710.9,444.3c0.6-1.3,0.4-2.4-0.7-3.1
	c-1.1-0.7-2.4-1-4.1-0.7c-1.6,0.2-3.3,1-4.9,2.3s-2.7,3.3-3.3,6c-0.4,1.8-0.6,3.8-0.7,6.2c-0.1,2.4-0.1,4.8,0.2,7.3
	c0.3,2.5,0.8,5,1.7,7.5c0.8,2.4,2.1,4.6,3.8,6.5c1.7,1.9,3.9,3.4,6.5,4.5c2.7,1.1,5.9,1.6,9.7,1.4c4.7-0.2,8.5-1.2,11.3-3.2
	c2.8-2,5-4.3,6.4-6.9c1.4-2.7,2.2-5.4,2.5-8.1c0.2-2.7,0.1-4.9-0.3-6.6c-0.8-3.5-2.2-6.6-4.1-9.4c-2-2.8-4-5.5-6.3-8.1
	c-2.2-2.6-4.3-5.2-6.3-7.7c-2-2.5-3.3-5.2-4.1-8c-0.4-1.1-0.6-2.4-0.7-4.1c-0.1-1.6,0-3.2,0.1-4.8c0.2-1.6,0.6-2.9,1.2-4.1
	c0.6-1.2,1.5-1.8,2.7-2c2-0.3,3.6,0,4.8,0.9c1.2,0.8,2,2,2.5,3.4c0.5,1.4,0.8,3.1,0.9,4.9c0,1.9,0,3.7-0.1,5.5
	c-0.1,1.8-0.3,3.4-0.4,4.9c-0.1,1.5-0.1,2.6,0.1,3.3c0.3,1.1,0.9,1.4,1.8,1c0.9-0.4,1.9-1.2,3-2.4s2-2.6,2.9-4.2
	c0.9-1.6,1.4-3,1.6-4.3c0.1-0.6,0-1.5-0.1-2.7c-0.2-1.2-0.5-2.5-1-3.9c-0.5-1.4-1.2-2.8-2.1-4.3c-0.9-1.4-2.1-2.7-3.5-3.8
	c-1.4-1.1-3.1-2-5.1-2.6c-2-0.6-4.3-0.8-6.9-0.5c-3.2,0.4-5.9,1.4-8,3c-2.1,1.6-3.8,3.6-4.9,5.9c-1.1,2.3-1.7,4.8-1.7,7.6
	c0,2.8,0.4,5.4,1.4,7.9c1,2.6,2.6,5.3,5,8.1c2.4,2.8,4.8,5.8,7.2,8.7c2.4,3,4.7,6,6.7,9c2,3,3.2,6,3.6,8.8c0.2,1.5,0,3.1-0.4,4.7
	c-0.4,1.6-1.1,3.1-2.1,4.4c-0.9,1.3-2.1,2.3-3.5,3c-1.4,0.7-2.9,0.9-4.6,0.7c-2.4-0.4-4.4-1.7-6.1-3.9c-1.7-2.3-2.9-5-3.6-8.2
	c-0.7-3.2-0.9-6.6-0.7-10.1C708.5,450.6,709.4,447.3,710.9,444.3z M481,672.5c3.4-6.6,6-11.9,7.8-15.7c0.9-1.6,1-3,0.2-4.4
	c-0.8-1.3-1.9-2.2-3.2-2.7c-1.3-0.4-2.8-0.4-4.4,0c-1.6,0.5-2.7,1.6-3.4,3.4c-1.3,3.8-3.6,8.7-6.7,14.5c-3.2,5.9-6.7,12-10.8,18.6
	c-4,6.5-8.3,13-12.8,19.6c-4.5,6.5-8.9,12.4-13.2,17.7c-4.3,5.3-8.2,9.6-11.6,13c-3.5,3.4-6.4,5.2-8.6,5.4c-5.2,0.5-7.5-1.6-6.9-6.2
	c0.6-4.6,2.7-10.8,6.4-18.6s8.3-16.6,13.8-26.5c5.5-9.9,10.7-19.9,15.5-30c4.8-10.1,8.6-19.8,11.3-29.2c2.7-9.3,3-17.3,1-23.8
	c-2-6.7-5.5-11.2-10.3-13.5c-4.8-2.2-9.5-3.3-14-3c-4.5,0.2-8.3,1.2-11.3,3c-3,1.8-3.8,3.4-2.2,4.7c1.6,1.6,1.9,4.5,0.8,8.8
	c-1,4.3-2.8,9.6-5.4,15.9c-2.6,6.3-5.6,13.3-9.1,21.1c-3.5,7.8-6.9,15.8-10.3,24.1c-3.4,8.3-6.4,16.6-8.9,25
	c-2.6,8.3-4.3,16.2-5.2,23.6c-0.7,6.1-0.7,11.8,0,17c0.7,5.3,2,9.8,4,13.5c2,3.7,4.7,6.6,7.9,8.6c3.3,2,7.1,2.9,11.6,2.7
	c5.4,0,11-2,16.9-6.1c5.8-4,11.6-9.2,17.4-15.5c5.7-6.3,11.3-13.3,16.7-20.9c5.4-7.6,10.4-15.2,15-22.8
	C473.7,686.2,477.7,679.2,481,672.5z M459.9,523.9c-4.2-1.8-7.9-2.7-11.3-2.7s-5.1,0.8-5.1,2.4c0,1.3-0.7,3.3-2,5.7
	c-1.3,2.5-2.9,5.2-4.6,8.1c-1.7,2.9-3.2,5.7-4.6,8.3c-1.3,2.6-2,4.7-2,6.2c0,5.6,1.8,10.3,5.4,14c3.6,3.7,7.5,6.4,11.6,8.1
	c4.2,1.7,8,2.5,11.6,2.5c3.6,0,5.4-0.9,5.4-2.7c0-1.6,0.6-3.7,1.9-6.4c1.2-2.7,2.6-5.4,4-8.1c1.5-2.7,2.8-5.3,4-7.8
	c1.2-2.5,1.9-4.4,1.9-5.7c0-5.6-1.7-10.2-5.1-13.8C467.9,528.4,464.1,525.7,459.9,523.9z M585.3,752.3l0.3-0.3h0.3
	c8.3-3.6,15.8-8.1,22.4-13.5c6.6-5.4,13-11.5,19.1-18.2c8.5-9.7,16.4-19.3,23.4-29c7.1-9.7,13.3-20,18.7-31c0.7-1.3,0.8-2.8,0.5-4.4
	c-0.3-1.6-1.3-2.8-2.9-3.7c-2-1.1-3.7-1.4-5.1-0.8c-1.3,0.6-2.4,1.6-3,3.2c-3.8,7.4-8.7,15.3-14.5,23.6
	c-5.8,8.3-12.5,16.8-19.9,25.3c1.6-6.3,2.2-13,1.9-20.2c-0.3-7.2-1.9-15-4.6-23.3c-2.7-8.3-6.7-17.1-12-26.3
	c-5.3-9.2-12.3-18.9-21.1-29l1-2c2.9-4.5,5.3-9.1,7.1-13.7c1.8-4.6,2.6-8.8,2.4-12.7c-0.2-3.8-1.6-7-4.2-9.4
	c-2.6-2.5-6.7-3.7-12.3-3.7c-5.4,0-9.8,1.1-13.2,3.2c-3.4,2.1-6,4.7-7.9,7.8c-1.9,3-3.3,6.1-4,9.1c-0.8,3-1.2,5.6-1.2,7.6
	c0,4.7,0.7,9.2,2,13.5c1.3,4.3,3.3,8.2,5.7,11.8c-1.6,3.2-3,6.1-4.4,8.9c-1.3,2.8-2.8,5.6-4.4,8.3c-1.6,2.7-3.2,5.6-4.7,8.6
	c-1.6,3-3.3,6.5-5.1,10.3c-0.9,1.6-1.1,3-0.5,4.2c0.6,1.2,1.5,2.1,2.9,2.7c1.3,0.6,2.8,0.7,4.4,0.5c1.6-0.2,2.9-1.1,4-2.7
	c2.2-4.5,4.8-9.3,7.6-14.3c2.8-5.1,5.3-9.7,7.6-14c7,14.6,11.7,27.8,14.2,39.5c2.5,11.7,3.4,21.9,2.9,30.7
	c-0.6,8.8-2.2,16.3-4.9,22.4c-2.7,6.2-5.8,11.2-9.3,15.2c-3.5,3.9-6.9,6.7-10.3,8.4c-3.4,1.7-6,2.5-7.8,2.5c-5-0.2-8.8-1.9-11.6-4.9
	c-2.8-3-4.6-6.7-5.2-11c-0.7-4.3-0.4-8.8,0.7-13.5c1.1-4.7,3.2-8.8,6.1-12.1c0.7,2,1.9,3.7,3.7,4.9c1.8,1.2,3.7,1.9,5.7,1.9
	c2.7,0,5.1-1,7.3-3c2.1-2,3.2-4.5,3.2-7.4c0-2.7-1.1-4.9-3.2-6.7c-2.1-1.8-4.4-2.8-6.9-3c-2.5-0.4-5.5,0.1-9.1,1.7
	c-3.6,1.6-7.6,4.7-12.1,9.4c-3.1,3.4-5.3,8.2-6.4,14.5c-1.1,6.3-0.9,12.6,0.7,18.9c1.6,6.3,4.8,11.8,9.6,16.4
	c4.8,4.6,11.7,6.9,20.7,6.9c3.1,0,7-0.7,11.5-2C575.6,756.7,580.3,754.8,585.3,752.3z M305.6,816.8c3,0,5.3,4.3,6.9,12.8
	c0.6,3.4,1.3,5.5,1.9,6.4c0.7,0.9,1.9,1.4,3.6,1.4c1.4,0,2.4-0.3,2.8-0.8c0.5-0.5,0.7-1.5,0.7-2.9c0-0.4,0-0.7-0.1-1.1l-1.4-19
	c-0.2-2.3-0.4-3.7-0.8-4.3c-0.4-0.5-0.9-0.8-1.6-0.8h-3.1c-0.6,0-1.3,0.5-2.1,1.5c-0.9,1.1-1.5,1.7-2,1.7c-0.4,0-1-0.3-1.8-0.8
	c-2.1-1.5-4.5-2.3-7.4-2.3c-4.7,0-8.8,1.8-12.3,5.5c-3.5,3.7-6.4,8.8-8.7,15.5c-2.3,6.7-3.4,15.6-3.4,26.8c0,11.9,1.3,21.6,4,29.2
	c2.7,7.6,5.9,13,9.6,16.1c3.7,3.1,8,4.7,12.8,4.7c5,0,9.2-1.9,12.6-5.6c3.4-3.7,5.1-8.4,5.1-14c0-1.8-0.3-3-1-3.6s-1.8-0.9-3.4-0.9
	c-2.2,0-3.7,0.4-4.4,1.2c-0.7,0.8-1.1,2.3-1.2,4.4c-0.4,7.3-2.2,11-5.5,11c-2.6,0-3.9-2.2-3.9-6.6v-66.3
	C301.9,819.9,303.2,816.8,305.6,816.8z M417.1,830.9c2.7,7.2,4,16.3,4,27.5c0,13.4-2.6,24.8-7.8,34c-5.2,9.3-12.5,13.9-22,13.9
	c-9,0-16.1-4.5-21.3-13.6c-5.2-9-7.8-20.7-7.8-35c0-14.7,2.7-26.5,8-35.6c5.3-9.1,12.5-13.6,21.5-13.6c5.8,0,10.8,1.9,15,5.8
	C411,818.2,414.5,823.7,417.1,830.9z M396.4,822.5c0-4.9-1.6-7.4-4.8-7.4c-1.3,0-2.5,0.6-3.4,1.8c-0.9,1.2-1.4,2.7-1.4,4.5v71.1
	c0,2.4,0.5,4.2,1.4,5.5c0.9,1.2,2.1,1.9,3.4,1.9c1.5,0,2.6-0.7,3.5-2.1c0.9-1.4,1.3-2.9,1.3-4.6V822.5z M525.5,820.4
	c0.3-0.5,0.9-1.1,1.9-1.5c1.1-0.5,1.9-1.1,2.2-1.7c0.3-0.6,0.4-1.7,0.4-3.2c0-1.7-0.2-2.7-0.6-3.2c-0.4-0.4-1.4-0.6-2.8-0.6h-20.9
	l-9.6,36.4l-9.4-36.4h-21.8c-0.8,0-1.3,0.2-1.6,0.7c-0.2,0.5-0.3,1.6-0.4,3.4l-0.1,2.5c0,0.7,0.6,1.3,1.8,1.9
	c1.1,0.6,1.8,1.4,2.2,2.4c0.3,1,0.5,2.4,0.5,4.3v68.1c0,1.1-0.1,1.9-0.4,2.4c-0.2,0.5-0.8,1.1-1.7,1.8c-1.2,0.9-1.8,2.2-1.8,3.9
	c0,2.4,0.7,3.6,2.2,3.6h12.8c1.7,0,2.6-1.3,2.6-3.8c0-2.2-0.9-3.7-2.6-4.6c-1.4-0.7-2.1-1.9-2.1-3.5v-48.2l10.4,38.8h6.5l10.6-40.1
	v49.6c0,1.5-0.7,2.5-2.2,3.1c-1.3,0.5-2.1,1.2-2.2,2c-0.1,0.8-0.2,2-0.2,3.7c0,1.9,0.6,2.9,1.7,2.9h26.3c1.2,0,1.9-0.2,2.1-0.5
	c0.2-0.3,0.3-2,0.3-5.1c0-1.2-0.7-2.2-2.2-2.9c-1.1-0.5-1.7-1-1.9-1.5c-0.2-0.5-0.4-1.2-0.4-2.2v-70
	C525.1,821.9,525.2,821,525.5,820.4z M600,817.9c0.7-0.1,1.2-0.4,1.4-0.9c0.2-0.5,0.3-1.8,0.3-3.9c0-1.4-0.2-2.2-0.5-2.5
	c-0.3-0.3-1-0.4-2.1-0.4H571c-1.3,0-1.9,0.6-1.9,1.8v3.1c0,0.9,0.1,1.6,0.3,1.9c0.2,0.3,0.8,0.7,1.8,1.1c1.3,0.6,2.2,1.2,2.6,2.1
	c0.4,0.8,0.6,2.1,0.6,3.7v70c0,1.7-1.1,2.8-3.2,3.4c-1.2,0.4-1.9,0.8-2.1,1.5c-0.2,0.6-0.3,2.4-0.3,5.2c0,0.9,0.5,1.3,1.7,1.3h28.8
	c1,0,1.6-0.1,1.8-0.2s0.4-0.9,0.4-2.1v-2.3c0-1.1-0.1-1.8-0.4-2.2c-0.2-0.4-0.9-0.9-2.1-1.5c-1.8-0.9-2.7-2-2.7-3.5v-70.8
	C596.3,819.9,597.5,818.3,600,817.9z M678.2,905.3h10v-83.8c0-0.9,0.2-1.6,0.5-2.1c0.4-0.5,1.2-1,2.6-1.6c0.6-0.3,1-0.6,1.2-1
	c0.2-0.4,0.3-1.3,0.3-2.8c0-2.5-0.5-3.8-1.4-3.9h-16.3c-0.7,0-1.1,0.1-1.4,0.4c-0.2,0.3-0.4,1-0.4,2.2c0,1.9,0.2,3.2,0.5,3.8
	c0.3,0.6,1.1,1.2,2.2,1.7c1.9,0.8,2.9,2.1,2.9,4v33.9l-19.8-46h-16.3c-1.4,0-2.2,1.4-2.2,4.1c0,1.5,0.2,2.6,0.5,3.1
	c0.3,0.6,1,1.1,2,1.5c1.1,0.6,1.8,1.2,2.1,2.1c0.3,0.8,0.5,2.1,0.5,3.8v69.7c0,1.1-1,2.2-3,3.1c-1,0.4-1.6,1.2-1.6,2.3
	c0,2.4,0.1,3.9,0.3,4.5c0.2,0.6,0.7,0.9,1.5,0.9h15.6c1,0,1.6-0.2,1.7-0.5c0.1-0.3,0.2-1.9,0.2-4.8c0-1.4-0.8-2.4-2.5-3.2
	c-2-0.9-2.9-2.2-2.9-3.9v-41.6L678.2,905.3z M791.1,849.4h-24.9c-1.3,0-2.1,0.2-2.5,0.6c-0.4,0.4-0.6,1.7-0.6,3.8
	c0,1.9,0.7,3.2,2.2,3.9c1.4,0.6,2.1,1.9,2.1,3.9v30.8c0,4.6-1.6,6.9-4.8,6.9c-2.9,0-4.4-2.3-4.4-7V829c0-8.6,2.7-12.8,8.1-12.8
	c2,0,4,0.9,5.7,2.8c1.8,1.9,3.9,5.2,6.2,10c1.8,3.5,2.9,5.6,3.5,6.2c0.6,0.6,1.9,0.9,3.9,0.9c2.1,0,3.1-0.7,3.1-2.1
	c0-0.7-0.2-2-0.6-3.9l-3.8-18.7c-0.3-1.6-1.1-2.5-2.4-2.7l-1.9-0.1h-0.7c-1.2,0-2,0.6-2.5,1.8c-0.5,1.3-1.1,2-1.8,2
	c-0.5,0-1.2-0.3-2.2-0.9c-2.9-2-6.3-2.9-10.1-2.9c-7.9,0-14.8,4.6-20.6,13.8c-5.8,9.2-8.7,21.2-8.7,35.9c0,13,2.6,24.3,7.7,33.8
	c5.1,9.5,11.8,14.3,19.9,14.3c5.2,0,9.5-2.3,13.1-6.8c2.6,0.7,5.3,2.4,7.9,4.9c0.9,0.9,1.7,1.4,2.2,1.6c0.5,0.2,1.4,0.3,2.6,0.3
	c1.3,0,2.2-0.3,2.5-0.9c0.3-0.6,0.5-2.1,0.5-4.5v-40c0-1.6,0.7-2.7,2.1-3.2c1-0.4,1.6-0.8,1.9-1.4c0.3-0.6,0.4-1.6,0.4-3.3
	c0-1.5-0.2-2.5-0.6-3C793.2,849.6,792.4,849.4,791.1,849.4z M226.6,956.9c-0.2-2.9-0.5-4.5-0.9-5c-0.4-0.5-1.5-0.7-3.4-0.7h-63
	c-2.8,0-4.5,0.4-5.2,1.1c-0.7,0.7-1.1,2.2-1.2,4.6l-1,20c-0.1,1-0.1,2.1-0.1,3.1c0,1.8,0.4,3,1.1,3.6c0.7,0.6,2.3,0.9,4.8,0.9
	c2.6,0,4.3-0.4,5.1-1.2c0.9-0.8,1.5-2.9,1.9-6.1c0.9-7.4,1.7-12,2.5-13.7c0.8-1.7,1.8-2.5,3.1-2.5h3.9v112c0,1.6-0.2,2.7-0.7,3.4
	c-0.5,0.7-1.6,1.3-3.3,2c-1.8,0.7-2.7,2.6-2.7,5.8c0,2.7,0.2,4.3,0.6,4.9c0.4,0.6,1.4,0.9,2.9,0.9h37.9c1.8,0,3-0.2,3.5-0.7
	c0.5-0.5,0.8-2.2,0.8-5.1c0-2.3-0.2-3.8-0.6-4.5c-0.4-0.7-1.1-1.3-2.3-1.8c-2.7-1.2-4.1-3.4-4.1-6.5V960.9h2.6c1.6,0,2.9,1.6,4,4.8
	c1.1,3.2,2.1,7.3,3,12.2c0.5,3,1.2,4.8,2,5.4c0.8,0.6,2.7,0.9,5.6,0.9c2.3,0,3.7-0.5,4.1-1.4c0.4-0.9,0.6-2.2,0.6-4
	c0-1.4-0.1-2.8-0.2-4.2L226.6,956.9z M324.8,985.8c7.2,9.6,10.8,24,10.8,43c0,20.5-3.7,36-11,46.5c-7.3,10.5-16.5,15.8-27.4,15.8
	c-7.6,0-14.1-2.4-19.7-7.2c-5.6-4.8-9.8-11.2-12.8-19.2c-3-8-4.5-19-4.5-32.9c0-19.9,3.4-34.9,10.4-45.1c6.9-10.2,16-15.3,27.3-15.3
	C308.6,971.3,317.6,976.2,324.8,985.8z M304,992.9c0-7.1-2.1-10.7-6.2-10.7c-4.5,0-6.7,4.4-6.7,13.1v71.4c0,8.6,2,13,6.1,13
	c4.5,0,6.8-4.3,6.8-13V992.9z M531.3,956.9c-0.2-2.9-0.5-4.5-0.9-5c-0.4-0.5-1.5-0.7-3.4-0.7h-63c-2.8,0-4.5,0.4-5.2,1.1
	c-0.7,0.7-1.1,2.2-1.2,4.6l-1,20c-0.1,1-0.1,2.1-0.1,3.1c0,1.8,0.4,3,1.1,3.6c0.7,0.6,2.3,0.9,4.8,0.9c2.6,0,4.3-0.4,5.1-1.2
	c0.9-0.8,1.5-2.9,1.9-6.1c0.9-7.4,1.7-12,2.5-13.7c0.8-1.7,1.8-2.5,3.1-2.5h3.9v112c0,1.6-0.2,2.7-0.7,3.4c-0.5,0.7-1.6,1.3-3.3,2
	c-1.8,0.7-2.7,2.6-2.7,5.8c0,2.7,0.2,4.3,0.6,4.9c0.4,0.6,1.4,0.9,2.9,0.9h37.9c1.8,0,3-0.2,3.5-0.7c0.5-0.5,0.8-2.2,0.8-5.1
	c0-2.3-0.2-3.8-0.6-4.5c-0.4-0.7-1.1-1.3-2.3-1.8c-2.7-1.2-4.1-3.4-4.1-6.5V960.9h2.6c1.6,0,2.9,1.6,4,4.8c1.1,3.2,2.1,7.3,3,12.2
	c0.5,3,1.2,4.8,2,5.4c0.8,0.6,2.7,0.9,5.6,0.9c2.3,0,3.7-0.5,4.1-1.4c0.4-0.9,0.6-2.2,0.6-4c0-1.4-0.1-2.8-0.2-4.2L531.3,956.9z
	 M629.6,985.8c7.2,9.6,10.8,24,10.8,43c0,20.5-3.7,36-11,46.5c-7.3,10.5-16.5,15.8-27.4,15.8c-7.6,0-14.1-2.4-19.7-7.2
	c-5.6-4.8-9.8-11.2-12.8-19.2c-3-8-4.5-19-4.5-32.9c0-19.9,3.4-34.9,10.3-45.1c6.9-10.2,16-15.3,27.3-15.3
	C613.4,971.3,622.3,976.2,629.6,985.8z M608.8,992.9c0-7.1-2.1-10.7-6.2-10.7c-4.5,0-6.7,4.4-6.7,13.1v71.4c0,8.6,2,13,6.1,13
	c4.5,0,6.8-4.3,6.8-13V992.9z M787.1,972.5h-15.6c-1.6,0-2.5,0.1-2.7,0.4c-0.2,0.3-0.3,1.8-0.3,4.8c0,2.5,0.9,4.3,2.7,5.6
	c1.7,1.2,2.6,2.7,2.6,4.5c0,0.5-0.1,1-0.2,1.5l-9,49.8l-9.7-50.5c-0.2-1.3-0.3-2-0.3-2.3c0-1.1,0.9-2,2.7-2.6
	c1.8-0.6,2.6-1.7,2.6-3.4v-4.6c0-1-0.2-1.7-0.5-2.3c-0.3-0.5-1.5-0.8-3.3-0.8h-31.4c-2,0-3,1-3,3.1v4.6c0,1.2,0.7,2.3,2.1,3.3
	c1.5,1,2.4,2.5,2.8,4.6l4,19.6l-6.1,32.6l-9.8-50.7c-0.3-1.7-0.5-2.9-0.5-3.5c0-1,0.6-1.9,1.7-2.7c1.3-0.9,1.9-1.9,1.9-3v-4.2
	c0-1.4-0.2-2.4-0.7-2.9c-0.5-0.5-1.5-0.7-3.1-0.7h-28.8c-1.4,0-2.3,0.2-2.7,0.7c-0.4,0.5-0.6,1.4-0.6,2.9v4c0,1.1,0.4,2.1,1.3,2.8
	c1.7,1.5,2.7,3.2,3.1,5.1l17,87.8c1.6,8.9,2.5,13.6,2.8,14.3c0.3,0.6,1.3,0.9,3,0.9H722c1.8,0,2.9-0.1,3.3-0.4c0.3-0.3,0.7-1.6,1-4
	c0.2-1.1,0.3-1.7,0.3-1.7l9.4-48.7l9.4,49.7c0.5,2.5,0.9,3.9,1.4,4.4c0.5,0.5,1.5,0.7,3.3,0.7h13.4c1.4,0,2.2-0.2,2.5-0.6
	c0.3-0.4,0.8-2.2,1.4-5.5l17.7-96.9c0.4-1.9,1.6-3.6,3.5-5c1.3-0.9,2-2.2,2-3.8v-3.7c0-1.3-0.2-2.2-0.6-2.5
	C789.5,972.7,788.6,972.5,787.1,972.5z M909.8,1078.2c-1.4-1-2.1-2.4-2.1-4.2v-82.3c0-5.8-1.6-10.7-4.7-14.6
	c-3.2-3.9-7.7-5.8-13.7-5.8c-8.8,0-16.5,4.3-23.4,12.9v-9c0-1.1-0.1-1.8-0.4-2.1c-0.3-0.3-1-0.5-2.2-0.5h-28c-1.6,0-2.4,0.9-2.4,2.7
	v4.6c0,1.3,0.5,2.2,1.6,2.7c1.9,0.9,2.9,2.4,2.9,4.4v84c0,2.9-0.2,4.8-0.6,5.7c-0.4,0.9-1.3,1.8-2.7,2.7c-1,0.7-1.5,1.9-1.5,3.5v3.2
	c0,1.7,0.2,2.8,0.6,3.2c0.4,0.4,1.3,0.6,2.8,0.6h30.5c2.8,0,4.2-1,4.2-2.9v-4.4c0-1.8-0.6-3.1-1.8-3.8c-2-1.1-3-2.7-3-4.8v-80.1
	c2.8-2.5,5.4-3.8,7.8-3.8c3.7,0,5.5,2.2,5.5,6.7v81.7c0,4.7,1.7,8.5,5.2,11.4h24.1c1.4,0,2.3-0.3,2.7-0.8c0.4-0.5,0.6-2.1,0.6-4.7
	C911.7,1081.1,911.1,1079,909.8,1078.2z M835.9,441.9c0.7-0.9-0.7-3.6-1-4.4c-0.8-2.2-1.3-4.4-1.9-6.7c-1-3.7-2-7.5-3-11.3
	c-0.5-1.8-1.5-4.4,0.2-5.8c1.3-1.1,3.5-1.5,5.1-2c2.5-0.9,4.9-1.7,7.3-2.7c2.9-1.2,5.8-2.3,9-2.9c2.8-0.6,5.7-0.6,8.5-1.2
	c1-0.2,4.2-0.8,3.2-1.9c-1-1.1-4.2-1.2-5.6-1.5c-4.5-0.9-8.8-2-13.4-2.5c-4.2-0.5-8.5-1.4-12.4-2.9c-2.4-0.9-2.7-2.1-3.1-4.5
	c-0.7-4-1.3-8.1-2.1-12.1c-0.6-3-0.4-6.3-1.4-9.3c-1.4-0.3-3.1,4.9-3.6,5.9c-1.9,3.9-3.2,8.1-5.4,11.9c-0.8,1.3-1.9,3.6-3.4,4.1
	c-1.9,0.7-4.4-0.4-6.3-0.7c-1.3-0.2-2.6-0.5-3.9-0.6c-1,0-1.9,0.2-3,0.1c-2.4-0.2-4.7-1-6.9-1.7c-1.3-0.4-7.9-3-8.3-0.6
	c-0.3,1.8,2.5,3.7,3.6,4.5c3.2,2.4,6.4,4.7,9.5,7.1c2.5,2,5.7,5.6,6.2,8.9c0.3,2.1-0.7,4.1-1.7,6c-1.5,2.9-3.1,5.9-4.4,8.9
	c-0.1,0.3-0.3,0.6-0.4,0.9c-1,2.3-2.2,4.4-3.4,6.6c-0.7,1.4-2.6,3-2.6,4.6c1.6,0.1,3.4-1.1,4.7-1.8c2.6-1.3,4.8-2.6,7.1-4.3
	c1.9-1.4,3.9-2.8,5.6-4.4c1.4-1.4,2.9-2.7,4.4-4c0.9-0.7,1.9-2,2.9-2.4c4.4,3.6,8,8.2,10.2,13.5c0.7,1.7,1.7,3.5,2.7,5.2
	c0.6,1.1,1.5,2.8,2.5,3.5C832.2,441.7,835.2,442.7,835.9,441.9z M269.6,371.4c1.4-1.4,2.9-2.7,4.4-4c0.9-0.7,1.9-2,2.9-2.4
	c4.4,3.6,8,8.2,10.2,13.5c0.7,1.7,1.7,3.5,2.7,5.2c0.6,1.1,1.5,2.8,2.5,3.5c0.6,0.4,3.7,1.4,4.4,0.6c0.7-0.9-0.7-3.6-1-4.4
	c-0.8-2.2-1.3-4.4-1.9-6.7c-1-3.7-2-7.5-3-11.3c-0.5-1.8-1.5-4.4,0.2-5.8c1.3-1.1,3.5-1.5,5.1-2c2.5-0.9,4.9-1.7,7.3-2.7
	c2.9-1.2,5.8-2.3,9-2.9c2.8-0.6,5.7-0.6,8.5-1.2c1-0.2,4.2-0.8,3.2-1.9c-1-1.1-4.2-1.2-5.6-1.5c-4.5-0.9-8.8-2-13.4-2.5
	c-4.2-0.5-8.5-1.4-12.4-2.9c-2.4-0.9-2.7-2.1-3.1-4.5c-0.7-4-1.3-8.1-2.1-12.1c-0.6-3-0.4-6.3-1.4-9.3c-1.4-0.3-3.1,4.9-3.6,5.9
	c-1.9,3.9-3.2,8.1-5.4,11.9c-0.8,1.3-1.9,3.6-3.4,4.1c-1.9,0.7-4.4-0.4-6.3-0.7c-1.3-0.2-2.6-0.5-3.9-0.6c-1,0-1.9,0.2-3,0.1
	c-2.4-0.2-4.7-1-6.9-1.7c-1.3-0.4-7.9-3-8.3-0.6c-0.3,1.8,2.5,3.7,3.6,4.5c3.2,2.4,6.4,4.7,9.5,7.1c2.5,2,5.7,5.6,6.2,8.9
	c0.3,2.1-0.7,4.1-1.7,6c-1.5,2.9-3.1,5.9-4.4,8.9c-0.1,0.3-0.3,0.6-0.4,0.9c-1,2.3-2.2,4.4-3.4,6.6c-0.7,1.4-2.6,3-2.6,4.6
	c1.6,0.1,3.4-1.1,4.7-1.8c2.6-1.3,4.8-2.6,7.1-4.3C265.9,374.4,267.9,373.1,269.6,371.4z M363.5,564.5c-1-1.1-4.2-1.2-5.6-1.5
	c-4.5-0.9-8.8-2-13.4-2.5c-4.2-0.5-8.5-1.4-12.4-2.9c-2.4-0.9-2.7-2.1-3.1-4.5c-0.7-4-1.3-8.1-2.1-12.1c-0.6-3-0.4-6.3-1.4-9.3
	c-1.4-0.3-3.1,4.9-3.6,5.9c-1.9,3.9-3.2,8.1-5.4,11.9c-0.8,1.3-1.9,3.6-3.4,4.1c-1.9,0.7-4.4-0.4-6.3-0.7c-1.3-0.2-2.6-0.5-3.9-0.6
	c-1,0-1.9,0.2-3,0.1c-2.4-0.2-4.7-1-6.9-1.7c-1.3-0.4-7.9-3-8.3-0.6c-0.3,1.8,2.5,3.7,3.6,4.5c3.2,2.4,6.4,4.7,9.5,7.1
	c2.5,2,5.7,5.6,6.2,8.9c0.3,2.1-0.7,4.1-1.7,6c-1.5,2.9-3.1,5.9-4.4,8.9c-0.1,0.3-0.3,0.6-0.4,0.9c-1,2.3-2.2,4.4-3.4,6.6
	c-0.7,1.4-2.6,3-2.6,4.6c1.6,0.1,3.4-1.1,4.7-1.8c2.6-1.3,4.8-2.6,7.1-4.3c1.9-1.4,3.9-2.8,5.6-4.4c1.4-1.4,2.9-2.7,4.4-4
	c0.9-0.7,1.9-2,2.9-2.4c4.4,3.6,8,8.2,10.2,13.5c0.7,1.7,1.7,3.5,2.7,5.2c0.6,1.1,1.5,2.8,2.5,3.5c0.6,0.4,3.7,1.4,4.4,0.6
	c0.7-0.9-0.7-3.6-1-4.4c-0.8-2.2-1.3-4.4-1.9-6.7c-1-3.7-2-7.5-3-11.3c-0.5-1.8-1.5-4.4,0.2-5.8c1.3-1.1,3.5-1.5,5.1-2
	c2.5-0.9,4.9-1.7,7.3-2.7c2.9-1.2,5.8-2.3,9-2.9c2.8-0.6,5.7-0.6,8.5-1.2C361.3,566.3,364.5,565.6,363.5,564.5z M752.8,712.5
	c-2.4-0.9-2.7-2.1-3.1-4.5c-0.7-4-1.3-8.1-2.1-12.1c-0.6-3-0.4-6.3-1.4-9.3c-1.4-0.3-3.1,4.9-3.6,5.9c-1.9,3.9-3.2,8.1-5.4,11.9
	c-0.8,1.3-1.9,3.6-3.4,4.1c-1.9,0.7-4.4-0.4-6.3-0.7c-1.3-0.2-2.6-0.5-3.9-0.6c-1,0-1.9,0.2-3,0.1c-2.4-0.2-4.7-1-6.9-1.7
	c-1.3-0.4-7.9-3-8.3-0.6c-0.3,1.8,2.5,3.7,3.6,4.5c3.2,2.4,6.4,4.7,9.5,7.1c2.5,2,5.7,5.6,6.2,8.9c0.3,2.1-0.7,4.1-1.7,6
	c-1.5,2.9-3.1,5.9-4.4,8.9c-0.1,0.3-0.3,0.6-0.4,0.9c-1,2.3-2.2,4.4-3.4,6.6c-0.7,1.4-2.6,3-2.6,4.6c1.6,0.1,3.4-1.1,4.7-1.8
	c2.6-1.3,4.8-2.6,7.1-4.3c1.9-1.4,3.9-2.8,5.6-4.4c1.4-1.4,2.9-2.7,4.4-4c0.9-0.7,1.9-2,2.9-2.4c4.4,3.6,8,8.2,10.2,13.5
	c0.7,1.7,1.7,3.5,2.7,5.2c0.6,1.1,1.5,2.8,2.5,3.5c0.6,0.4,3.7,1.4,4.4,0.6c0.7-0.9-0.7-3.6-1-4.4c-0.8-2.2-1.3-4.4-1.9-6.7
	c-1-3.7-2-7.5-3-11.3c-0.5-1.8-1.5-4.4,0.2-5.8c1.3-1.1,3.5-1.5,5.1-2c2.5-0.9,4.9-1.7,7.3-2.7c2.9-1.2,5.8-2.3,9-2.9
	c2.8-0.6,5.7-0.6,8.5-1.2c1-0.2,4.2-0.8,3.2-1.9c-1-1.1-4.2-1.2-5.6-1.5c-4.5-0.9-8.8-2-13.4-2.5C761,715,756.7,714.1,752.8,712.5z"
	/>
</svg>
