<?xml version="1.0" encoding="utf-8"?>
<!-- Generator: Adobe Illustrator 22.1.0, SVG Export Plug-In . SVG Version: 6.00 Build 0)  -->
<svg version="1.1" id="Layer_1" xmlns="http://www.w3.org/2000/svg" xmlns:xlink="http://www.w3.org/1999/xlink" x="0px" y="0px"
	 viewBox="0 0 432 432" enable-background="new 0 0 432 432" xml:space="preserve">
<path fill="#ED2024" d="M307,114.3c-1-19.6-9.6-32.8-25.6-39.4c-19.2-7.9-37.1-5.9-52.5,5.7c-2.4,1.8-4.1,4.2-5.7,6.5
	c-0.5,0.8-1.1,1.5-1.6,2.2c-5.3-7.4-11.1-10.8-19.9-12.1c-19.8-2.8-36.7,3.5-49.7,18.4c-1.8,2.1-3.3,3.1-4.4,3.1
	c-0.8,0-1.7-0.4-2.9-1.3l0,0c1.1-1.2,2.2-2.5,3.3-3.7c6.4-7.4,12.7-15.8,15.3-26.6c3.7-15.7-0.4-28.3-11.4-35.5
	c-5.3-3.4-11.9-5.3-18.7-5.3c-7.3,0-14.2,2.1-19.5,6c-10.8,7.8-14.7,23.8-8.5,34.9c4,7.1,12.8,11.9,22,11.9c3.3,0,6.5-0.6,9.4-1.8
	c7.6-3.2,12.9-12.5,10.8-19.1c-1.3-4.3-3.9-4.9-5.4-4.9c-0.7,0-1.5,0.2-2.3,0.5c-1.6,0.6-2.7,1.8-3.1,3.3c-0.4,1.6,0.1,3.5,1.3,5
	c1.1,1.3,1.6,2.5,1.5,3.4c-0.2,1.6-2.2,3.1-4.1,4.4c-2.4,1.7-5.3,2.6-8.2,2.6c-5.6,0-10.8-3.2-13.2-8.1c-3.3-6.7-2.9-14.7,1.1-21.2
	c3.9-6.4,10.6-10.2,17.9-10.3l0.2,0c12.2,0,21.6,9.8,22,22.9c0.4,12.4-4.1,23.6-13.5,34.2c-2.3,2.5-3.5,3.1-4.7,3.1
	c-1,0-2.3-0.4-3.8-1.3c-16.6-8.9-30.2-12.9-44-12.9l-0.7,0c-13.3,0.1-21.8,4.9-26,14.7c-4.3,9.9-2.6,19.2,4.7,26.5
	c-15.7,8.1-20.6,19.6-15.3,35.8c2.6,8,7.3,14.7,11.1,19.7c2.4,3.1,4.9,6.2,7.4,9.1c4.6,5.6,9.5,11.4,13.3,17.6
	c4.9,7.9,7.4,15.2,7.6,22.7c-0.7-0.3-1.4-0.7-2.2-1.2c-0.6-0.4-1.2-0.7-1.8-1C77,217.7,63,211.8,47.3,212.5
	c-9,0.3-17.1,4.3-22.9,11.1c-5.7,6.8-8.3,15.8-7.2,24.7c2.7,20.7,20.8,30,37.5,30c2.4,0,4.8-0.2,7.2-0.5c18.7-2.9,32.2-14.2,39-32.7
	c1-2.7,1.6-3.1,1.7-3.2c0.6-0.3,1.1-0.9,1.2-1.5c0.2-0.9,0.3-1.8,0.5-2.6c0-0.1,0-0.2,0-0.3l0-0.3c0.3-2.4,0.4-4.2,0.5-6
	c0-0.2,0-0.4-0.1-0.6c-0.4-1.4-0.4-2.9-0.1-4.7c0.5-3.3-0.3-6.7-1.2-9.9c-0.2-0.9-0.5-1.8-0.7-2.6c-3.4-15.2-13.1-26.7-22.4-37.8
	l-0.8-1c-4.7-5.6-9.5-11.3-12.8-18.1c-4.5-9.4-4.3-17.6,0.8-25.2c2.2-3.3,6.4-5.3,11-5.3c2.8,0,5.5,0.8,7.7,2.2
	c2.2,1.4,3.7,3.8,4.2,6.8c0.6,3.3,0,6.7-1.9,9.4c-2.3,3.3-5.3,4-9.1,2.3c-1.5-0.7-2.4-1.5-2.5-2.2c-0.2-0.8,0.4-2.1,1.7-3.4
	c0.9-1,1.4-2.3,1.2-3.6c-0.1-1.4-0.9-2.7-2.2-3.6c-0.9-0.7-1.9-1-2.8-1c-2.2,0-3.6,1.7-4.4,2.8c-2,2.5-1.7,5.3-1.3,7.5
	c1.3,6.3,5.5,10.2,11.7,10.9c7.2,0.9,12.7-2.1,15.7-8.6c2.9-6.2,2.4-12.4-1.5-19c5.7-1,11.6-2.4,17.2-4.9c8.9-4,16.1-8.8,22.3-14.5
	c1.2-1.1,1.9-1.1,2.2-1.1c0.9,0,1.9,0.7,3,1.4c0.8,0.5,1.6,1.1,2.5,1.5c0.3,0.1,0.5,0.2,0.6,0.3c-0.2,0.3-0.5,0.7-0.7,1
	c-0.4,0.5-0.8,1.1-1.1,1.7c-3.3,7-5.9,14.5-8,22.9c-4.5,17.5-4.3,35.5-4,53l0.1,5.4c0.1,6.4-3.1,11.4-6.4,16.7l-0.3,0.4
	c-0.5,0.7-1.5,1.6-2.9,1.2c-0.6-0.2-1-0.4-1.2-2.3l-0.1-0.9c-0.3-3.1-0.7-6.4-0.8-9.6c-0.3-7.1,0.1-14.6,1.2-23.5
	c0.1-0.7-0.2-1.4-0.7-1.8c-0.5-0.5-1.2-0.6-1.9-0.5c-2.9,0.7-10.6,2.5-10.8,9.5c-0.1,1.6-0.1,3.3-0.2,4.9c-0.3,8.3-0.7,17,0.8,25.5
	c0.8,5,3.3,8.1,7.2,9.2c4.7,1.4,9.2-0.1,12.4-4c1.6-2,3-4,4.5-6c1.2,4.4,3.1,9.2,9.3,10.2c0.9,0.1,1.7,0.2,2.5,0.2
	c7.5,0,10.9-5.7,14.1-11.2c0.1-0.2,0.2-0.4,0.4-0.6c3.3,7.8,9.2,11.8,17.7,11.8c7.9,0,12.5-5,16.7-10c0,0.7,0.1,1.5,0.3,2.2
	c0,0.2-0.2,0.9-0.4,1.3c-0.4,1.2-1,2.8-0.2,4.4c0.5,1,1.5,1.7,3,2c0.4,0.1,0.9,0.1,1.3,0.1c3.6,0,6.4-3,7.8-5.9
	c1-2.2,1.3-4.5,1.5-6.8c0.1-0.5,0.1-1.1,0.2-1.6c1-7.5,3.6-14.4,7.7-20.7l0.5-0.8c1.8-2.7,2.9-4.3,4.9-4c1.7,0.3,2,1.4,2.1,4.8
	c0,0.5,0,1.1,0.1,1.5c0.2,3.1,0.3,6.3,0.4,9.4c0.1,4.8,0.2,9.8,0.9,14.7c0.8,5.9,4.3,9.6,9.3,9.6c2.7,0,5.6-1.2,8.3-3.3
	c2.6-2.1,4.1-4.8,5.6-7.4c0.4,1.3,0.9,2.6,1.5,3.9c2.1,4.3,5.8,6.9,10.1,6.9c2.4,0,4.8-0.9,7-2.5c7.2-5.6,9.8-13.5,12.2-22.5
	c0.2-0.9-0.1-1.8-0.9-2.3c-0.7-0.5-1.7-0.5-2.4,0.1c-3,2.3-4.4,5.4-5.7,8.3c-0.7,1.5-1.4,3-2.2,4.3l-0.2,0.3
	c-1.7,2.6-2.5,3.5-4.3,3.1c-1.6-0.4-2-1.4-2.5-4.5c-1.2-7-1.1-14.2-0.9-21.1c0.1-3.9,0.1-7.9,0-11.9c0-0.6,0.1-0.8,0.1-0.8
	c0.3-0.2,1.3-0.2,1.9-0.2c14.2-0.7,27.6-6.9,36.7-16.9C303.3,145.1,307.9,130.8,307,114.3z M90.1,234.9c-2.5,9.4-10.9,31.2-35,31.2
	c-0.3,0-0.7,0-1,0c0,0,0,0-0.1,0c0,0,0,0,0,0l-0.6,0c-3.8,0-8-0.9-12.1-2.5c-12.2-4.9-17.7-14.8-14.6-26.6
	c2.9-11,11.9-17.8,23.5-17.8c1.4,0,2.9,0.1,4.3,0.3c13.2,1.9,24.7,7.9,34.2,13.5C90.4,234,90.3,234.2,90.1,234.9z M88.9,119.8
	c-3.6,0.2-7.8-0.6-12.7-2.5c-5.2-2-8.1-6.3-8.2-12.2c-0.1-5.9,2.6-10.3,8.1-13.1c3.6-1.9,7.7-2.7,12.7-2.7c3,0,6.1,0.3,8.4,0.6
	c11.8,1.4,22.5,6.4,32.4,11.9C116.5,113.1,103.2,119,88.9,119.8z M158.2,104c0.3-0.3,0.6-0.6,0.8-0.9c9.4-12.8,21-19,35.3-19V82h0
	l0.1,2.1c3.2,0.1,6.7,0.3,10,1.3c6.5,2,14.1,6.5,13.1,16.3c-0.8,8.5-7,13.9-16.6,14.5c-15.8,1-29.8-5.2-42.7-11.7
	c-0.1-0.1-0.2-0.1-0.3-0.2C158,104.2,158.1,104.1,158.2,104z M288.8,149.7c-7.8,8.4-17.9,13.6-30.8,15.7c-1.6,0.3-2.7,0.1-2.8-0.1
	c0,0-0.4-0.5-0.2-2.3c0.4-3.3,0.6-6.7,0.8-10c0.1-1.1,0.1-2.2,0.2-3.4c0-0.2,0-0.4,0.1-0.7c0.2-1.2,0.3-2.7-0.6-3.9
	c-0.7-0.9-1.7-1.3-2.8-1.3c-1.2,0-2.2,0.6-3,1l-0.4,0.2c-4.6,2.4-6.8,5.8-6.7,10.2c0,0.7,0,1.4,0,2.1c0,1.1,0,2.2,0,3.3l0,0.3
	c0.2,2.1,0.3,4-0.5,5c-0.8,0.9-2.5,1.1-3.9,1.2c-1.1,0-2,0.9-2,2c0,1.1,0.8,2,1.8,2.2c4.9,0.6,4.8,2.6,4.6,6.7l0,0.6
	c-0.1,2.6-0.1,5.3,0,7.8c0.2,6.8,0.4,13.2-3.5,19c-0.4,0.6-0.8,1.2-1.2,1.8c-0.7,1-1.4,2.1-2.1,3.1c-0.8,1.1-1.6,1.1-1.9,1.1
	c-0.2,0-0.4,0-0.6-0.1c-0.4-0.1-0.9-0.2-1-2.2c-0.1-3.2-0.2-6.5-0.2-9.7c0-2.1,0-4.2-0.1-6.3l0-1.6c0-2.4-0.1-4.9-0.5-7.4
	c-1.1-6.9-5.4-11.2-11-11.2c-3.1,0-6.3,1.3-9.3,3.7c-2.9,2.3-4.8,5.2-6.3,7.8l-0.5,0.8c-0.2,0.4-0.4,0.8-0.7,1.1
	c0.1-2.6,0.2-5.3,0.4-7.9c0-0.1,0.1-0.3,0.2-0.4c0.3-0.8,1-2.7-0.6-4.3c-1-0.9-2-1.1-2.6-1.1c-1.2,0-2.1,0.6-2.7,1
	c-0.2,0.1-0.4,0.2-0.5,0.3c-3.8,1.6-8.1,5.4-7.1,13.7c1,8.6-1.3,15.6-7,21.5c-3.2,3.2-6,4.3-9.4,3.5c-2.8-0.7-4.6-2.6-5.9-6.5
	c-0.3-1-0.3-1.4-0.3-1.4c0,0,0,0,0,0c0,0,0.2-0.3,1.4-0.6c7-1.9,12.5-6.4,15.8-13c2.4-4.9,2.4-9.5,0-13.5c-1.9-3-4.8-4.4-8.9-4.4
	c-1.2,0-2.3,0.1-3.3,0.2c-10,1.1-16.9,8.6-18.4,20c-0.7,5.2-3,9.5-5.5,14.1l-0.6,1.1c-1.4,2.5-2.6,2.8-3.4,2.8c-0.2,0-0.5,0-0.8-0.1
	c-1.2-0.3-1.6-1-2.2-3.4l-0.2-0.6c-1-3.7-0.9-7.4-0.8-11.4c0-1.4,0.1-2.7,0-4.1c-0.2-19.1-0.5-40.7,5.1-61c0.7-2.7,1.7-5.4,2.7-8
	c0.8-2.1,1.5-4.2,2.2-6.4c0.7-2.2,1.2-2.2,1.4-2.2c0.4,0,1,0.1,2.4,0.8c13,6.6,25.5,10.1,38.4,10.8c10.1,0.5,18.5-2.4,25.5-9
	c5.7,13.2,16.8,20.9,30.1,20.9c3.1,0,6.3-0.4,9.5-1.3c11.3-3,19.3-13.6,18.9-25.4c-0.1-3.1-0.9-5.8-2.5-8.1
	c-2.3-3.1-5.5-3.8-8.1-1.7c-1,0.8-3.1,3.2-0.8,7.5c2.4,4.4,3,8.3,1.9,11.6c-1.1,3.4-4,6.2-8.6,8.3c-3,1.4-6.4,2.1-9.8,2.1
	c-6,0-11.8-2.2-15.8-6c-7.1-6.8-9.1-18.9-4.9-29.4c4.3-10.7,12.7-16.5,25.7-17.8c1.8-0.2,3.6-0.3,5.3-0.3c16.5,0,30.2,8,36.5,21.5
	C303.9,114.7,300.5,137,288.8,149.7z M168.1,197.3c0.2-6,1.4-10.3,3.8-14.1c1.2-1.9,2.8-3,4.5-3c0.7,0,1.3,0.2,2,0.5
	c0.9,0.4,3.2,1.6,0.8,6.6C176.8,192.3,173.2,195.5,168.1,197.3z"/>
<path fill="#0F9848" d="M393.6,346.2c-5.5-1.4-11.3-2.1-17.2-2.1c-8.6,0-17.7,1.4-28,4.4c-1.3,0.4-2.3,0.6-3.1,0.6c0,0,0,0,0,0
	c-1.1,0-1.6,0-2.5-4.3c-2.9-14.2-2.8-28.9-2.7-43.1c0.1-5.9,0.1-11.9-0.1-17.9c0-1.4,0-1.4,2.3-1.5l0.5,0c0.6,0,1.3,0,2,0.1
	c0.8,0.1,1.6,0.1,2.4,0.1c1.7,0,4.1-0.2,6.5-2c0.4-0.3,0.7-0.9,0.8-1.4c0.1-0.6-0.1-1.1-0.5-1.6c-1.4-1.8-3.4-2.6-6-2.6
	c-1.1,0-2.1,0.1-3.2,0.3c-0.9,0.1-1.7,0.2-2.3,0.2c-1.1,0-1.7-0.1-2.1-1.9c-0.7-3.4-0.5-7.1-0.2-11c0.1-1.9,0.3-4,0.3-5.8
	c0-0.1,0.2-0.4,0.3-0.5c0.5-0.8,1.8-3.1-0.5-5.2c-0.5-0.4-1.1-0.6-1.8-0.5c-9.3,1.7-11.8,4.7-12.2,14.6c0,1.2,0.1,2.4,0.2,3.6
	c0.2,2.3,0.4,4.5-0.6,5.7c-0.8,1-2.6,1.5-5.3,1.6c-1,0-1.8,0.7-2,1.7c-0.2,0.9,0.3,1.9,1.2,2.3c3.4,1.6,5.3,2.4,6,3.4
	c0.6,0.9,0.6,2.8,0.6,6.2c0,1.6,0,3.2-0.1,4.8c-0.1,3.5-0.1,7,0.1,10.6c0.5,7.7-3.4,13.8-7.2,19.7c-1.5,2.3-2.8,2.3-3.2,2.3
	c-0.3,0-0.6,0-0.9-0.1c-0.9-0.2-1.1-0.6-1.2-2.9c0-0.3,0-0.6,0-0.9c-0.3-4.8-0.4-9.6-0.5-14.3c-0.1-3.6-0.2-7.1-0.3-10.7
	c-0.2-4.2-0.5-11.4-7.6-13.8c-5.8-2-11.5-0.4-16.6,4.6c-3.1,3-5.4,6.5-7.7,10.6c0-1.6,0-3.2-0.1-4.8c-0.1-8.8-0.2-17.1,0.2-25.2
	c1.1-18.5,4.3-34.2,9.7-48.2c0.6-1.7,1.5-3.7,2.5-4.6c0.5-0.4,0.7-1.1,0.7-1.7c-0.1-0.7-0.4-1.2-0.9-1.6c-1.4-0.9-3-1.5-4.6-2
	c-1.2-0.4-2.3-0.8-3.2-1.3c-1-0.5-2.2-0.2-2.8,0.7c-0.2,0.3-0.4,0.5-0.5,0.8c-0.5,0.7-1,1.5-1.3,2.4c-0.8,2.5-1.9,4.9-2.9,7.3
	c-0.9,2.2-1.9,4.4-2.7,6.7c-8.5,23.6-8.5,48-7.7,75.1c0.3,9.4-3.6,16.1-9.6,23.6c-0.8-13.6-1.4-27.5,2.1-41.7c0.2-0.7,0-1.5-0.6-2
	c-0.5-0.5-1.3-0.7-2-0.5c-4.1,1.1-6.9,2.2-9.3,4.6c-0.2,0.2-0.4,0.4-0.6,0.6c0,0,0,0.1-0.1,0.1c0,0-0.1,0-0.1-0.1
	c-3.7-2.9-8.1-4.5-12.6-4.5c-11.3,0-21.9,9.6-23.8,21.5c-0.8,5.1-2.4,9.9-5,14.2c-0.5,0.8-0.9,1.7-1.4,2.7c-1.8,3.9-3,5.8-6.1,5
	c-2.3-0.7-2.5-2.7-2.3-6.9c0-0.8,0.1-1.7,0-2.4l0-1.9c-0.2-9.9-0.4-20.1,1-30.5c0.1-0.7-0.2-1.4-0.7-1.9c-0.6-0.5-1.3-0.6-2-0.4
	c-4.7,1.6-11.9,3.9-12,11.4c0,2.2-0.1,4.4-0.2,6.6c-0.3,8.6-0.5,17.6,0.7,26.4c0.6,4.2,2.2,9.9,8.8,11.4c5.5,1.2,10.5-0.8,14.1-5.6
	c1.7-2.2,3.2-4.5,4.7-7c1.5,5.5,4.3,11.5,12,12.6c0.8,0.1,1.5,0.2,2.3,0.2c6.7,0,10.9-4.7,14.6-9.5c1.3-1.6,2.1-3.4,2.8-5.2
	c0.3-0.6,0.6-1.3,0.9-1.9c2.4,13.5-2.4,24.2-14.8,32.6c-3.4,2.3-6.1,5.7-8.6,8.9c-0.9,1.1-1.7,2.1-2.6,3.2
	c-3.7,4.4-6.1,9.8-7.2,16.1c-1.1,6.4,0.3,12.3,4,16.6c3.5,4.2,8.8,6.4,14.9,6.4c0.9,0,1.9-0.1,2.8-0.2c11.9-1.3,16.9-10,19.9-17.5
	c1.8-4.3,2.5-8.7,3.2-13.4c0.3-1.9,0.6-3.9,1-5.9c7.3,7.3,16.3,8.3,23.6,8.3c0.5,0,1,0,1.4,0c14.8-0.3,30.1-4.2,48.2-12.2
	c1.4-0.6,3.1-1.3,4.2-1.3c0.7,0,2,0,4,3.7c10.4,19.3,26.6,29.1,48,29.1c0.5,0,1,0,1.5,0c15-0.3,26.2-9.4,27.9-22.7
	C416.5,359.7,409.2,350.2,393.6,346.2z M242.9,300.9c-2.1,8.8-4.4,16-8.6,22.3l-0.6,0.9c-1.8,2.8-3.1,4.4-5.3,3.9
	c-1.7-0.3-2-1.5-2.6-4.4c-0.1-0.7-0.3-1.4-0.4-2c-0.3-1.4-0.5-2.9-0.6-4.3c-0.1-0.6-0.1-1.1-0.2-1.6l0.2-2.1
	c0.5-6.4,1-12.4,3.9-17.6c2.7-4.9,5.3-5.5,7-5.5c0.9,0,1.8,0.2,2.8,0.5C240,291.6,244.8,293.4,242.9,300.9z M238.9,386.3
	c-3.3,9.4-8.4,12.7-15.3,9.8c-2.6-1.1-4.5-3.1-5.4-5.8c-1.4-3.7-0.8-8.4,1.4-12.9c4.5-8.8,11.6-15.4,19.2-22.4
	c1.4-1.3,2.8-2.6,4.3-4C243.4,363.3,242.9,375.2,238.9,386.3z M330.3,354.5c-0.5,1-3,2-6.8,3.4l-0.3,0.1
	c-14.3,5.3-28.1,8.4-42.2,9.3c-1.3,0.1-2.6,0.1-3.9,0.1c-5.8,0-10.3-1-14-3.2c-0.5-0.3-0.9-0.6-1.4-0.9c-0.7-0.4-1.2-0.9-1.7-1.3
	c-0.1-0.1-0.3-0.2-0.5-0.4c-0.1-0.1-0.2-0.2-0.3-0.3c-0.6-0.7-0.8-1.3-0.9-2c0-0.1,0-0.3-0.1-0.4c-1-4.1-0.9-10.2-0.7-13.5
	c0-0.5-0.1-1-0.4-1.4c-0.6-0.8-0.7-1.9,0.7-4.3c0.3-0.5,0.7-1.1,1-1.6c2.4-3.7,5-7.2,8-11.3l-0.9,9.5c-0.1,0.6,0.2,1.3,0.6,1.7
	c0.5,0.4,1.1,0.6,1.7,0.6c8-1.2,12-5.2,12.5-12.8c0.7-10.2,4.2-20,10.6-29.2c1.5-2.1,3-4.1,5.1-3.6c2.1,0.6,2.6,2.3,2.8,6.1
	c0.2,3.1,0.1,6.4,0.1,9.5c0,5.9,0,12,1,18.1l0.1,0.5c0.7,3.9,1.6,9.3,7.4,10.9c5.6,1.5,10.9-0.6,14.8-5.8c1.3-1.7,2.4-3.4,3.7-5.4
	c0.6,5.1,1.2,9.7,1.8,14.4c0.2,1.7,0.5,3.5,0.9,5.4C330.2,350.7,330.8,353.5,330.3,354.5z M407.5,373c-1.4,8.5-9.5,13.7-20.9,13.7
	l-0.8,0c-15.9-0.4-33.6-13.3-38.7-28.3c-0.3-1-0.3-1.4-0.4-1.4c0.1,0,0.3-0.2,0.9-0.4c8.7-2.6,19-5.3,29.4-5.3c5,0,9.6,0.6,14.1,1.8
	C399.8,355.4,409.6,360.7,407.5,373z M179.5,239.3C179.5,239.3,179.5,239.3,179.5,239.3c-0.4,0-0.8-0.1-1.2-0.2
	c-1.8-0.6-3.1-0.5-3.2-0.4c-0.4,0.4-0.3,2.3-0.2,3.4c0,0.7,0.1,1.4,0.1,2c-0.1,11.8-0.1,23.8-0.1,35.5l0,22.6c0,9,0,18.1,0,27.1
	c0,0.4,0,0.9,0,1.3c0.1,2.3,0.3,6.2-3.4,7.3c-0.5,0.2-1,0.2-1.5,0.2c-3,0-4.4-2.8-5.3-4.6c-0.2-0.4-0.4-0.8-0.6-1.2
	c-10.1-16.7-20.2-33.4-30.2-50.1l-14.4-23.9c-0.2-0.4-0.5-0.8-0.7-1.2l0,31c0,10.8,0,21.7,0,32.5c0,3.8,0,8.1-2.3,12.1
	c-2.2,4-5.9,5.5-10.7,4.2c-1.5-0.4-5-1.9-4-7.2c0.8-4,3.2-4.8,5.1-4.8c1.1,0,2.3,0.3,3.4,0.6l0.4,0.1c0,0,0,0,0,0
	c0.1-0.5,0.1-1.3,0.1-2.6c0.1-5.8,0.1-11.7,0.1-17.4c0-2.3,0-4.6,0-6.9l0-16.1c0-15.4,0-30.9,0-46.3c0-0.5,0-1-0.1-1.6
	c-0.2-2.4-0.5-6.5,3.6-7.8c0.6-0.2,1.2-0.3,1.7-0.3c3.3,0,4.6,2.9,5.5,4.9c0.2,0.5,0.5,1,0.7,1.4c11.4,18.9,22.7,37.8,34,56.8
	l10.7,18l0-11.8c0-17.7,0-34.5,0-51.3c0-4.2,0.1-8.7,2.1-12.8c2.3-4.7,6.6-6.6,11.4-4.8c3.2,1.2,4.7,4,4,7.3
	C183.9,236.7,182.1,239.3,179.5,239.3z M184.1,268c0.4-5.7,3.3-9.2,7.9-9.5c1.9-0.1,3.4,0.4,4.6,1.6c1.5,1.5,2.1,4,2,7.5
	c-0.4,5-3.3,8-7.8,8.2c-0.1,0-0.3,0-0.4,0c-2.4,0-3.8-1-4.6-1.9C184.5,272.6,183.9,270.5,184.1,268z"/>
</svg>
