<?xml version="1.0" encoding="utf-8"?>
<!-- Generator: Adobe Illustrator 22.1.0, SVG Export Plug-In . SVG Version: 6.00 Build 0)  -->
<svg version="1.1" id="Layer_1" xmlns="http://www.w3.org/2000/svg" xmlns:xlink="http://www.w3.org/1999/xlink" x="0px" y="0px"
	 viewBox="0 0 1080 1296" enable-background="new 0 0 1080 1296" xml:space="preserve">
<path fill="#C1272D" d="M548.5,540c0.4-2.6-0.3-4.7-2.1-6.1c-0.2-0.2-0.7-0.5-1.5-0.9c-0.6-0.4-1.3-0.5-2-0.3
	c-0.7,0.2-1.2,0.7-1.4,1.5c-0.8,2.4-2.3,6.1-4.4,11.1c-2.1,5-4.5,10-7.1,15c-2.6,5.1-5.4,9.6-8.3,13.5c-2.9,3.9-5.6,6.1-8,6.5
	c-5.1,0.8-9.1,0-12-2.6c-2.9-2.5-5.2-5.8-6.7-9.9c-1.5-4-2.5-8.3-3-12.9c-0.5-4.6-0.8-8.4-0.8-11.7c5.5-0.4,10.5-2.2,15-5.3
	c4.6-3.1,8.3-6.9,11.4-11.4c3-4.4,5.2-9.2,6.5-14.3c1.3-5.1,1.7-9.7,1.1-14c-0.6-4.2-2.4-7.9-5.3-10.9c-2.9-3-7.1-4.8-12.6-5.2
	c-4.2-0.2-8.1,0.4-11.5,1.7c-3.4,1.3-6.5,3.1-9.1,5.5c-2.6,2.3-5,5-7,8c-2,3-3.7,6.2-5.2,9.4c-3.4,7.7-5.9,16.4-7.3,26.1
	c-0.4,3-0.6,5.9-0.7,8.7c-0.3,0.7-0.6,1.4-0.9,2.2c-1.7,4-3.7,7.9-6.1,11.7c-2.3,3.7-4.8,6.9-7.3,9.6c-2.5,2.6-5.1,3.7-7.7,3.3
	c-4-0.6-6.6-5-7.6-13c-1-8.1,0.5-18.4,4.6-30.9c0.8-3.2,1-6.1,0.5-8.5c-0.5-2.4-1.4-4.5-2.7-6.2c-1.3-1.7-2.9-3.2-4.9-4.4
	c-1.9-1.2-3.8-2.3-5.6-3.3c-2.8-1.6-5.3-2.9-7.3-3.8c-2-0.9-3.2-1.5-3.6-1.7c-5.9-2.2-10-4.7-12.4-7.4c-2.4-2.7-4.1-5-5.2-6.8
	c-0.4-0.6-0.7-1.5-0.9-2.6c-0.2-1.1-0.6-2.3-1.1-3.6c-0.5-1.3-1.2-2.5-2.1-3.6c-0.9-1.1-2.2-1.9-3.8-2.3c-1-0.2-2-0.2-2.9,0
	c-0.9,0.2-1.7,0.4-2.3,0.6l-1.8,0.9c-1.4,1-2.8,3.1-4.1,6.2c-1.3,3.1-2,6.5-2,10.2c0,3.6,1.1,7,3.2,10c2.1,3,5.9,5,11.4,5.8
	c0.4,6.5,0.1,13.1-0.9,19.9c-1,6.8-2.1,12.2-3.3,16.2c-0.2,0.4-0.3,0.7-0.3,1c-0.5,1.4-1.1,3-1.7,4.7c-1.9,5.3-4.1,10.5-6.5,15.6
	c-2.4,5.2-5,9.6-7.7,13.4c-2.7,3.7-5.4,5.4-8,5c-1.8-0.2-3-2-3.6-5.3s-0.8-7.6-0.5-12.7c0.3-5.2,0.9-10.8,1.8-17
	c0.9-6.2,2-12.2,3.2-18.2c1.2-6,2.4-11.5,3.5-16.7c1.1-5.2,2-9.1,2.6-12c0.4-1.6,0.3-3.2-0.3-4.7s-1.5-2.8-2.7-3.8
	c-3.2-2.2-6.8-3.7-10.8-4.6c-3.9-0.8-7.3-1.3-10.2-1.5c-3,0-5.1,1.5-6.1,4.6c-0.6,2.6-1.3,5.2-2,7.6c-0.7,2.4-1.3,5-1.7,7.6
	c-3.6-3.6-7.8-6-12.6-7c-4.8-1-9.7-1-14.9,0c-5.2,1-10.4,2.9-15.6,5.8c-5.3,2.8-10,6.2-14.3,10c-3.8,3.4-7.3,7.6-10.5,12.6
	c-3.1,5-5.7,10.2-7.6,15.8c-1.9,5.6-3.2,11.1-3.9,16.5c-0.7,5.5-0.5,10.5,0.8,15s3.4,8.4,6.7,11.5c3.2,3.1,7.7,5,13.4,5.6
	c5.7,0.6,11.1-0.6,16.4-3.5c5.3-2.9,10.2-6.8,14.7-11.5c4.6-4.8,8.7-10,12.4-15.6c3.7-5.7,6.9-11,9.6-16.1
	c-0.8,16.4,0.9,29.6,5.2,39.7c4.2,10.1,10.9,15.4,20,15.8c4,0.2,7.8-0.8,11.2-3c3.4-2.2,6.6-5.2,9.4-9c2.8-3.7,5.4-7.8,7.6-12.3
	c2.2-4.4,4.1-8.8,5.8-13.2c1.6-4.3,2.9-8.3,3.9-12c1-3.6,1.7-6.4,2.1-8.2c0-0.2,0.1-0.4,0.1-0.5c0.1-0.1,0.1-0.2,0.2-0.4
	c1.2-3,2.6-7.6,4.1-13.8c1.5-6.2,2.3-12.9,2.3-20.2c1.6,0.2,3.3,0.4,5,0.5c1.7,0.1,3.4,0.2,5,0.2c-3.2,11.1-5.2,21.5-5.9,31.1
	c-0.7,9.6-0.2,18,1.7,25.2c1.8,7.2,5,12.9,9.4,17.1c4.4,4.2,10.2,6.5,17.3,6.7c6.1,0.2,11.4-1.6,15.9-5.3c4.6-3.7,8.4-8.1,11.7-13.2
	c1-1.5,1.9-3.1,2.7-4.6c0.7,3.5,1.6,6.6,2.7,9.5c1.8,4.7,4,8.5,6.5,11.7c2.5,3.1,5.2,5.6,8,7.4c6.7,4.4,14.5,6.6,23.4,6.4
	c6.3,0,11.8-2.5,16.5-7.4c4.8-5,8.7-10.7,12-17.3c3.2-6.6,5.8-13,7.7-19.3C546.6,547.4,547.9,542.9,548.5,540z M497,513.3
	c1.7-4.2,3.3-7.4,4.7-9.4c1.4-2,2.7-3.3,3.8-3.8c1.1-0.5,1.9-0.8,2.3-0.8c0.6-0.2,1.3,0,2.1,0.5c0.8,0.5,1.4,1.5,1.8,2.9
	c0.4,1.4,0.4,3.2,0,5.5c-0.4,2.2-1.6,5.1-3.6,8.5c-2.4,4-5.1,7.2-8,9.4c-2.9,2.2-5.5,3.8-7.7,4.9C493.8,523.4,495.3,517.6,497,513.3
	z M331.1,521.2c-2.1,3.2-4.7,7-7.6,11.2c-2.9,4.2-6.1,8.8-9.4,13.5c-3.3,4.8-6.6,9.1-9.9,12.9c-3.2,3.8-6.2,7-8.8,9.4
	c-2.6,2.4-4.7,3.5-6.1,3.3c-2-0.6-3.2-2.2-3.6-4.9c-0.4-2.2-0.1-5.6,1.1-10.2c1.1-4.6,3.9-11,8.3-19.3c3.4-6.7,7.2-12,11.4-15.9
	c4.1-3.9,8.1-6.8,12-8.5c3.8-1.7,7.3-2.4,10.3-2c3,0.4,5.2,1.7,6.4,3.9C334.6,515.9,333.2,518,331.1,521.2z M393.2,658.3
	c-0.3,2.2-0.7,7-1.2,14.3c-0.4,7.3-1.3,15.8-2.7,25.3c-1.3,9.6-3.2,19.7-5.6,30.3c-2.4,10.7-5.6,20.4-9.5,29.3
	c-3.9,8.9-8.8,16.4-14.5,22.5c-5.8,6.1-12.7,9.4-20.8,9.9c-7.7,0.8-14.4-0.6-20.1-4.4c-5.7-3.8-10.7-9.1-14.8-16
	c-5,10.3-10.7,18.9-17.3,25.5c-6.5,6.7-14,10.5-22.4,11.3c-10.3,0.5-18.6-4-24.9-13.4c-6.4-9.4-11.1-21.3-14.2-35.6
	c-3.1-14.3-5-29.9-5.6-47c-0.6-17-0.1-32.7,1.6-47.1c0.6-6.2,3.5-11.1,8.6-14.4c5.1-3.4,10.4-5.5,15.9-6.3
	c5.5-0.8,10.4-0.5,14.6,0.9c4.2,1.4,5.8,3.8,4.8,7.1c-2.4,9.9-3.9,22.1-4.5,36.4c-0.5,14.3-0.3,28.1,0.8,41.3
	c1.1,13.2,2.8,24.4,5.1,33.8c2.3,9.3,5.1,14,8.4,13.9c2.9,0,5.8-3.7,8.7-11.1c2.8-7.4,5.6-16.2,8.4-26.5
	c-4.3-20.1-5.2-41.9-2.6-65.4c0.6-6.2,3.4-11.1,8.3-14.4c4.9-3.4,10.1-5.5,15.6-6.3c5.5-0.8,10.4-0.6,14.6,0.6
	c4.2,1.2,6,3.5,5.3,6.8c-2.8,10.3-4,21.3-3.7,33.1c0.3,11.7,1.4,22.5,3.2,32.4c1.8,9.9,4.2,18.1,7.2,24.7c3,6.6,6.2,9.8,9.5,9.8
	c3.3,0,6.2-4.6,8.6-13.6c2.4-9,4.4-19.4,5.9-31.2c1.5-11.8,2.7-23.1,3.7-33.9c1-10.8,1.4-18.3,1.3-22.3c-0.1-3.7,1.3-6.5,4-8.6
	c2.7-2,5.5-3.1,8.5-3.1c2.9,0,5.7,0.9,8.3,2.9C392.4,651.8,393.5,654.6,393.2,658.3z M506.5,651.2c-8.2-6.9-18.7-10.6-31.5-11.1
	c-11-0.6-20.5,2.5-28.5,9.2c-8,6.7-14.4,15.1-19.2,25.3c-4.8,10.2-7.8,21.3-8.9,33.4c-1.1,12.1,0,23.3,3.2,33.5
	c3.3,10.2,9,18.8,17.1,25.6c8.2,6.9,19,10.2,32.6,10c12.1-0.2,22.4-3.6,30.9-10.3c8.5-6.7,15.1-15.1,19.7-25
	c4.6-10,7.1-20.7,7.5-32.3c0.4-11.6-1.3-22.4-5.1-32.7C520.6,666.6,514.6,658.1,506.5,651.2z M493.2,729.8c-1,6.8-2.8,12.3-5.3,16.6
	c-2.5,4.3-5.8,6.2-9.8,5.9c-4.8-0.3-8.7-2.8-11.7-7.5c-3-4.7-5.3-10.5-6.8-17.2c-1.6-6.8-2.4-14.1-2.5-22
	c-0.1-7.9,0.4-15.1,1.6-21.8c1.2-6.6,3-12.1,5.5-16.6c2.5-4.4,5.6-6.7,9.3-6.7c4-0.1,7.5,2.3,10.6,7c3,4.7,5.4,10.6,7.1,17.5
	c1.7,6.9,2.8,14.5,3.1,22.5C494.6,715.6,494.2,723,493.2,729.8z M876.8,692.9c-1,5.2-3.3,12.4-6.9,21.8c-3.5,9.4-7.9,19-13.1,28.8
	c-5.2,9.8-11.1,18.5-17.8,26.1c-6.7,7.6-13.5,12.2-20.4,13.8c-7.7,1.6-13.9,0.9-18.7-1.9c-4.8-2.9-8.5-7-11.2-12.5
	c-2.6-5.5-4.5-11.9-5.5-19.2c-1-7.3-1.5-14.5-1.4-21.4c0.1-7,0.5-13.4,1.4-19.3c0.8-5.9,1.8-10.3,2.8-13.2
	c-1.8,0.8-4.3,4.9-7.5,12.5c-3.2,7.6-6.5,16-9.8,25.4c-3.4,9.4-6.4,18.7-9.2,27.9c-2.8,9.2-4.4,16-4.7,20.4c0,1.1-0.2,1.8-0.5,2.2
	l0.1,5.5c0.1,5.1-2,9.1-6.2,11.9c-4.2,2.8-8.7,4.3-13.7,4.6c-4.9,0.2-9.4-0.8-13.2-3.1c-3.9-2.3-5.5-6.3-4.8-11.8
	c0.5-7.9,1.2-17.7,1.9-29.5c-4.9,9.4-10.7,17.6-17.4,24.8c-7.6,8.2-16.7,12.3-27.3,12.5c-7,0.1-12.7-2.6-17.2-8
	c-4.5-5.4-7.9-12.6-10.2-21.6c-1.3-5-2.3-10.5-3.1-16.4c-3.3,7.2-7.2,14-11.6,20.2c-5,7-10.6,12.7-16.8,17
	c-6.2,4.3-13.1,6.3-20.8,6.1c-8.8-0.2-15.3-4.1-19.4-11.6c-4.1-7.5-6.8-16.4-8.1-26.8c-1.2-10.4-1.1-21.5,0.4-33.3
	c1.5-11.8,3.6-22.1,6.5-30.9c-1.8,0.4-3.7,0.6-5.5,0.6c-1.8,0-3.7,0-5.5,0.1c-1.1,1.9-1.8,3.9-2.1,6.1c-0.7,3-2.2,5.1-4.6,6.4
	c-2.4,1.3-4.8,1.7-7.4,1.2c-2.6-0.5-4.6-1.8-6.1-3.8c-1.5-2-1.5-4.7-0.1-8l3.2-9.4c-3.3-3.3-5.2-7.1-5.7-11.5
	c-0.4-4.4,0.3-8.5,2-12.4c1.8-3.9,4.4-7.2,7.8-10c3.4-2.8,7.4-4.2,11.8-4.3c7.7-0.1,12,2.7,12.8,8.4c0.8,5.7-0.2,12-3,19
	c2.2,1.1,5.8,1.2,10.7,0.4c4.9-0.8,9.6-1.3,14-1.6c4.4-0.2,8.1,0.5,11,2.3c3,1.8,3.7,6,2.4,12.6c-1.4,6.6-2.8,14.5-4.4,23.7
	c-1.5,9.2-2.6,17.9-3.2,26.2c-0.6,8.3-0.5,15.3,0.3,21.2c0.8,5.9,2.9,8.8,6.2,8.7c2.2,0,5-3.3,8.4-9.7c3.4-6.5,6.9-13.9,10.4-22.4
	c3.5-8.5,6.7-17.1,9.5-25.7c2.6-7.9,4.2-14,5-18.3c0.3-9.6,0.8-19.3,1.5-29.1c0.9-12.7,1.7-24.3,2.3-35l-13.2,0.2
	c-5.9,0.1-10.4-1-13.5-3.1c-3.1-2.2-4.8-4.5-5-7.1c-0.2-2.6,1.1-5,4-7.2c2.9-2.2,7.7-3.4,14.3-3.5l14.9-0.2c0-2.6,0-5,0.2-7.4
	c0.1-2.4,0.2-4.5,0.2-6.3c-0.1-8.8,2.2-15,6.9-18.5c4.7-3.5,9.8-5.2,15.3-4.9c5.5,0.3,10.4,2.2,14.7,5.9c4.3,3.6,5.9,8.4,4.9,14.2
	l-2.6,14.3l13.2-0.2c7-0.1,12,1,15.2,3.4c3.1,2.3,4.7,4.9,4.8,7.6c0,2.8-1.6,5.2-4.9,7.5c-3.3,2.2-7.8,3.4-13.7,3.5l-16.5,0.2
	c-1.3,13.2-2.4,27.8-3.3,43.8c-0.9,16-1.4,31-1.6,45.1c-0.2,14.1,0.2,25.9,1,35.2c0.9,9.3,2.6,14,5.1,14c2.2,0,5.2-3.4,8.9-10
	c3.8-6.7,7.6-14.3,11.5-23c3.9-8.7,7.5-17.2,10.7-25.5c2.8-7.2,4.7-12.3,5.9-15.5c0.6-10.9,1.1-21.9,1.7-33
	c0.9-17.1,1.6-32.9,2.1-47.6c0.5-14.7,1-27.4,1.4-38.3c0.4-10.8,0.6-18.3,0.5-22.3c-0.1-8.8,2.2-15,6.9-18.5
	c4.7-3.5,9.8-5.2,15.3-4.9c5.5,0.3,10.4,2.2,14.7,5.9c4.3,3.6,5.9,8.4,4.9,14.2c-0.7,2.6-1.4,9-2.2,19.3
	c-0.8,10.3-1.8,22.8-3.1,37.5c-1.3,14.7-2.4,30.8-3.5,48.5c-1,17.6-2,35.1-2.9,52.3c4.3-9.6,9-18.9,14.2-28
	c5.2-9.1,9.2-15.6,12.1-19.7c2.9-3.7,7.1-6.6,12.5-8.7c5.5-2.1,10.8-3.1,15.9-3c5.1,0.1,9.3,1.3,12.4,3.7c3.1,2.3,3.8,6.1,2.1,11.3
	c-1.1,3.3-2.2,10.2-3.6,20.7c-1.3,10.5-2.4,21.2-3.1,32.2c-0.8,11-1,20.9-0.7,29.7c0.3,8.8,1.4,13.2,3.2,13.2c2.2,0,5-2.6,8.4-7.8
	c3.4-5.2,6.9-11.4,10.5-18.6c3.6-7.2,6.8-14.6,9.6-22.1c2.8-7.6,4.9-13.7,6.3-18.5c1.1-3.3,2.8-5.5,5.1-6.7c2.4-1.1,4.7-1.5,6.9-1.2
	c2.2,0.3,4.1,1.5,5.6,3.5C877,686.9,877.4,689.6,876.8,692.9z"/>
<path d="M230.2,374.3l-1,3.4c1.3,9.3,1.8,17.8,1.5,25.5c-0.1,0.9-0.4,1.6-0.9,2.2c0,11.9,0.5,18,1.5,18.2c0.1,8.3,0.6,14,1.6,17
	c-0.3,1.4-0.8,3.1-1.5,5.2c0.8,6.8,1.4,10.7,1.9,11.6c-0.3,9.2,0.9,14,3.7,14.4c3.7-0.1,7.5-1.7,11.6-4.7c4.3,0.6,7.2-3.6,8.4-12.6
	c0-8.8-0.5-13.2-1.5-13.3l1-3.6l-0.7-2.5c0-0.4,0.3-0.9,0.9-1.6c-1.2-5.8-2-22.9-2.5-51.3c1-0.9,1.7-2.8,2.1-5.8
	c17-4.3,28.7-8.9,35.1-13.8c21.4-18,33.2-34,35.4-48c0.7-4.6-0.5-11.6-3.6-20.9c-3.8-7-8.3-10.9-13.8-11.7
	c-6.1-0.9-14.3,3.1-24.6,11.9c-12,15.9-18.9,26-20.7,30.4c-1.5,4.7-4.7,11.5-9.6,20.1c-0.6-0.1-1.2-1.4-1.8-3.9l1-2.8
	c0.2-9.1,0.1-15.1-0.3-18.1l0.3-1.8l0.7-1c-0.4,0-0.5-0.2-0.4-0.6l0.1-1.2c9.9-10.9,16.2-21.1,19-30.8h-0.6c0.1-0.5,0.6-2.4,1.5-5.8
	c0.3-11.2-2.8-17.2-9.2-18.2l-2.4-0.3c-11.9,4.1-18.6,11.6-20.3,22.7l-0.1,1.8l-0.9,1c0.4,0.1,0.6,0.3,0.6,0.7
	c-0.2,1-1.1,3.3-2.8,6.8l-0.3,1.6l0.4,1.3c-0.7-0.1-1.2,0.8-1.6,2.8c-0.1,0.8-0.1,1.6,0.1,2.4c-0.5,0.7-0.7,1.2-0.7,1.6
	c-0.3,1.9-0.4,3.9-0.3,5.9c-0.7,2-1.2,4.3-1.6,7l-0.1,4.3l-1.3,8.7c0.5,0.1,1.1,0.4,1.8,0.9c-0.2,1-0.6,2.5-1.3,4.6
	c-0.1,0.4,0,1,0.3,1.8c-0.7,2-1,3.1-1,3.4c-0.5,2.9-1.1,9.4-1.8,19.6l-1,2.2h-0.6c-2.2-0.4-4.6-2.8-7.3-7.1l-0.6-0.1
	c-1.5,0.5-2.6,1.5-3.4,3.1c-0.2,1.2,0.3,3.1,1.5,5.6C227.2,367.9,230.6,371.8,230.2,374.3z M274.8,321.1c3.3-8,6.2-12.7,8.7-14.2
	c5.6-8.8,10.1-12.9,13.3-12.4l2.2,0.3c2.7,0.4,4.6,5.9,5.9,16.6c-0.1,0.9-0.4,1.6-0.9,2.2c0.3,0.7,0.4,1.5,0.3,2.4l-1.3,8.3
	c-9.8,18.5-16.1,27.5-19.1,27c-0.8,2.8-9,7-24.6,12.6l-1.2-0.3l-0.1-2.4C266.4,334,271.9,320.7,274.8,321.1z M254.4,289.8
	c2.8-14.8,5.8-21.9,9.2-21.3l1.8,0.1c2,0.3,2.7,3.4,2.2,9.3H267v4.1l-0.1,1.2l-1.5,1.6l-0.9,5.8c-2.7,4.3-5.7,8.7-9.2,13l-1.8-0.3
	c0.1-0.7,0.6-1.6,1.6-2.7L254.4,289.8z M583.9,344.4c-0.6-0.1-1.2-1.4-1.8-3.9l1-2.8c0.2-9.1,0.1-15.1-0.3-18.1l0.3-1.8l0.7-1
	c-0.4,0-0.5-0.2-0.4-0.6l0.1-1.2c9.9-10.9,16.2-21.1,19-30.8h-0.6c0.1-0.5,0.6-2.4,1.5-5.8c0.3-11.2-2.8-17.2-9.2-18.2l-2.4-0.3
	c-11.9,4.1-18.6,11.6-20.3,22.7l-0.1,1.8l-0.9,1c0.4,0.1,0.6,0.3,0.6,0.7c-0.2,1-1.1,3.3-2.8,6.8l-0.3,1.6l0.4,1.3
	c-0.7-0.1-1.2,0.8-1.6,2.8c-0.1,0.8-0.1,1.6,0.1,2.4c-0.5,0.7-0.7,1.2-0.7,1.6c-0.3,1.9-0.4,3.9-0.3,5.9c-0.7,2-1.2,4.3-1.6,7
	l-0.1,4.3l-0.5,3.2l-0.1,0c-4.5,3-6.9,4.4-7.1,4.3c-11.6,7.3-21.4,10.3-29.6,8.9l-0.6-0.3c-2.8-11.2-5.5-19.6-8.3-25.2
	c-12.9-17.6-22.6-27.6-29-30.1c-2.2-0.8-4.1-1.1-5.9-1c-13.4-0.1-20.1,5.4-20.1,16.6c0,15.5,8.3,27.8,24.9,36.7
	c4.3,0.9,9.3,2.4,14.8,4.6l2.4,0.9l1.2,1c0-0.5,3,0.2,8.9,2.2c0.6,0.2,1.2,1.2,1.8,3c0,0.4-0.2,0.5-0.6,0.4
	c0,14.3-2.4,26.4-7.1,36.3c-4.1,3.4-8.3,6.9-12.4,10.7c0,2.7-8.9,1.6-26.7-3.1c-4.1-4.3-6.5-6.6-7.1-6.8V381c0-1.4-1-4.9-3-10.7
	v-1.8c0-1.1,0.4-2.1,1.2-3.1l-0.6-0.3c0-3.6,2.8-9.8,8.3-18.7c3.6-4.2,5.3-7.7,5.3-10.4l-3.6-9.6c-5.5-6.7-8.3-11.8-8.3-15.1V309
	l0.6-0.9c-1.2-2-1.8-3.4-1.8-4.3l-1.2-0.4c-1.5,0.6-2.9,0.6-4.1,0.1l-2.4-0.9c0,0.9,0.2,1.8,0.6,2.7c-0.5,2.5-1.3,3.5-2.4,3.1
	c-3.1,4.6-5.8,10.1-8.1,16.3c-2.7,3.4-6.7,9.5-12.2,18.3c-8.7,14-16.2,23.7-22.5,29.3c-6.3,5.5-14.3,6.8-24,3.9l-3.6-1
	c-0.4-0.1-0.6-0.3-0.6-0.7c-4.7-2.7-7.1-4.2-7.1-4.7c-8.1-6.8-12-20.6-11.7-41.5c0-1.1-0.2-2.9-0.7-5.5
	c16.9-14.4,27.6-25.2,32.1-32.3c4.5-7.1,3.8-13.7-2-19.7l-6.4-1.3c-5.4-1.2-11.8,0-19,3.6c-5.6,2.9-11.8,8.3-18.6,16.2
	c-6.8,8-10.6,21.7-11.6,41.1c-0.4-0.1-0.6,0.1-0.6,0.4c3.2,29.9,14,49.9,32.4,60c15.1,3.7,28,1.4,38.7-6.9c8.6-6.6,19.6-21,33-43.1
	c-0.2,0.9-0.4,1.7-0.5,2.6l0.6,1.3l-0.6-0.1c0,0.4,0.2,0.6,0.6,0.7c-0.8,1.4-1.2,2.4-1.2,3.1c0,1.8,0.2,3.1,0.6,3.9l-0.6,3.3v7.1
	c1.6,6.3,2.4,10,2.4,11c5,14.2,15.7,24.4,32,30.7c0.9,0,3.5,0.6,7.7,1.8c15.1,1.6,27-3.8,35.6-16l7.1-9.6l-0.6-1.5l2.4-12.1
	l-0.6-3.1c1.2-2.1,1.8-3.7,1.8-4.7l-0.6-3.1l1.2-6.7c-0.4-2.3-0.6-4.3-0.6-6.2c12.5,1.9,25.5-2.6,38.9-13.2c0,0,0.1,0,0.1,0.1
	c-0.2,1-0.6,2.5-1.3,4.6c-0.1,0.4,0,1,0.3,1.8c-0.7,2-1,3.1-1,3.4c-0.5,2.9-1.1,9.4-1.8,19.6l-1,2.2h-0.6c-2.2-0.4-4.6-2.8-7.3-7.1
	l-0.6-0.1c-1.5,0.5-2.6,1.5-3.4,3.1c-0.2,1.2,0.3,3.1,1.5,5.6c7.2,5.3,10.6,9.2,10.2,11.7l-1,3.4c1.3,9.3,1.8,17.8,1.5,25.5
	c-0.1,0.9-0.4,1.6-0.9,2.2c0,11.9,0.5,18,1.5,18.2c0.1,8.3,0.6,14,1.6,17c-0.3,1.4-0.8,3.1-1.5,5.2c0.8,6.8,1.4,10.7,1.9,11.6
	c-0.3,9.2,0.9,14,3.7,14.4c3.7-0.1,7.5-1.7,11.6-4.7c4.3,0.6,7.2-3.6,8.4-12.6c0-8.8-0.5-13.2-1.5-13.3l1-3.6l-0.7-2.5
	c0-0.4,0.3-0.9,0.9-1.6c-1.2-5.8-2-22.9-2.5-51.3c1-0.9,1.7-2.8,2.1-5.8c17-4.3,28.7-8.9,35.1-13.8c21.4-18,33.2-34,35.4-48
	c0.7-4.6-0.5-11.6-3.6-20.9c-3.8-7-8.3-10.9-13.8-11.7c-6.1-0.9-14.3,3.1-24.6,11.9c-12,15.9-18.9,26-20.7,30.4
	C592,329,588.8,335.7,583.9,344.4z M583.7,289.8c2.8-14.8,5.8-21.9,9.2-21.3l1.8,0.1c2,0.3,2.7,3.4,2.2,9.3h-0.6v4.1l-0.1,1.2
	l-1.5,1.6l-0.9,5.8c-2.7,4.3-5.7,8.7-9.2,13l-1.8-0.3c0.1-0.7,0.6-1.6,1.6-2.7L583.7,289.8z M509.6,333.7v-0.6
	c-3.6-0.6-5.5-0.9-5.9-1c-0.8-0.3-1.2-0.6-1.2-1c-6.8-3.4-10.8-6.1-11.9-8.1l-1.8,0.4c-6.7-6.4-10.1-13.2-10.1-20.4
	c3.4-7.4,9.1-9.5,17.2-6.4c6.3,5.5,9.5,8.5,9.5,8.9c4.5,1.8,7.9,11.4,10.1,28.7L509.6,333.7z M360.6,313.8
	c6.3-27,13.6-40.2,21.9-39.9c8.2,0.4,11.6,3.3,10.1,8.6s-7,12.1-16.6,20.4C365.8,312.5,360.7,316.1,360.6,313.8z M604.2,321.1
	c3.3-8,6.2-12.7,8.7-14.2c5.6-8.8,10.1-12.9,13.3-12.4l2.2,0.3c2.7,0.4,4.6,5.9,5.9,16.6c-0.1,0.9-0.4,1.6-0.9,2.2
	c0.3,0.7,0.4,1.5,0.3,2.4l-1.3,8.3c-9.8,18.5-16.1,27.5-19.1,27c-0.8,2.8-9,7-24.6,12.6l-1.2-0.3l-0.1-2.4
	C595.7,334,601.3,320.7,604.2,321.1z M660.7,307.8c1,4.8,3.6,12.1,7.7,21.9l-0.6,1.2c2.6,4.9,3.8,8.3,3.6,10.1
	c3.9,9.4,7.2,18.5,9.6,27.3c1.2,3.1,8.8,13.5,22.8,31.4c2.8,7.1,5.1,10.9,7.1,11.3h1.2c4.3-3.7,6.5-5.6,6.5-5.9l0.3-2.4l-0.4-1.2
	c2.1-1.4,3.2-2.8,3.4-4.1c0.2-2.2-0.8-3.9-3.1-5.3c-7.4-15-12.3-22.5-14.8-22.5c-2.7-8.1-6.1-16.6-10.4-25.5
	c-2.9-8.4-4.8-18.1-5.8-29c0.1-1.3,2.5-5.6,7.3-13c8.6-11.3,18.2-25.7,28.9-43.3c4.7-12.6,7.6-19.4,8.6-20.1
	c5-14.3,8.2-22.4,9.6-24.3c2.2-8.6,3.9-13.9,5.2-16c-0.3-0.8-0.4-1.4-0.3-1.8c0-0.4,0.5-2,1.6-4.7l0.6-5.9c0.2-1.7,0.8-3.3,1.8-4.7
	l-0.6-1.2c1-4,1.6-6.4,1.9-7.1c-0.4,0-0.6-1.4-0.7-4.1l2.4-10.1c-0.6,0-0.9-1.4-0.9-4.1l0.7-1.2c-2.3-14-6.2-23.7-11.7-29
	c-1.9-4.7-3.8-7.1-5.8-7.1c-11,0-20.3,6.7-28.1,20.1c-3.8,4.6-8.9,12.1-15.4,22.5c-4,11.3-8.5,22.5-13.6,33.8h0.6l-2.2,4.1l0.4,1.2
	c-3.1,6.2-4.6,9.6-4.6,10.1c-6.5,24.9-10.7,42.1-12.6,51.6c0.4,0.7,0.6,2.5,0.7,5.3c-0.1,0.2-0.6,2.8-1.5,7.7
	c-0.1,9.2,0.3,20.1,1.3,32.6C661.5,306.4,661.2,307,660.7,307.8z M689,297.1l0.1-0.6c0.3-2.6,0.7-5.1,1.3-7.7
	c0.1-0.7-0.1-2.3-0.6-4.7c0.4,0,1-2.4,1.9-7.1c-0.4-0.7-0.5-1.7-0.3-3l0.7-1.2c-0.8,0-1.1-2.8-0.9-8.3l0.6-1.2l-1.3-4.1l1-3.6
	l-0.1-4.1c0.4,0,0.6-0.2,0.6-0.6c-0.4,0-0.5-0.2-0.4-0.6l0.1-1.8l0.7-1.2c-0.4,0-0.6-0.2-0.6-0.6l0.1-1.8c0.3-2.2,0.8-4.9,1.5-8.3
	l-0.4-1.2c2.2-12,3.9-18.8,5-20.1l-0.4-1.2c1-9.3,4.3-19.9,9.9-32c0.6-5.5,5.6-17.8,15.1-36.7c3.3-9.1,8.6-13.6,16.1-13.6h0.6
	c3.9,3.2,6.8,10.7,8.9,22.5c-0.4,0.7-0.6,1.5-0.7,2.4l-0.1,1.8c-0.1,0.8,0.2,1.2,1,1.2c-1.5,5.8-2.4,10.6-2.7,14.2
	c-0.1,0.7,0.2,1.7,0.9,3c-0.6,1.2-1.1,1.8-1.5,1.8c-1.4,13.4-7.4,32.8-17.9,58.1c-4.9,14.1-17.4,35.3-37.5,63.4
	c-0.6,0-0.9-0.4-1-1.2l0.7-1.2C689.2,297.7,689,297.5,689,297.1z M737.8,330.1c-0.4-0.1-0.6,0.1-0.6,0.4c3.2,29.9,14,49.9,32.4,60
	c15.1,3.7,28,1.4,38.7-6.9c10.7-8.2,25-28.4,43.1-60.5l-2.5-1.6c-1.6,0.3-6.7,7.4-15.4,21.4c-8.7,14-16.2,23.7-22.5,29.3
	c-6.3,5.5-14.3,6.8-24,3.9l-3.6-1c-0.4-0.1-0.6-0.3-0.6-0.7c-4.7-2.7-7.1-4.2-7.1-4.7c-8.1-6.8-12-20.6-11.7-41.5
	c0-1.1-0.2-2.9-0.7-5.5c16.9-14.4,27.6-25.2,32.1-32.3c4.5-7.1,3.8-13.7-2-19.7l-6.4-1.3c-5.4-1.2-11.8,0-19,3.6
	c-5.6,2.9-11.8,8.3-18.6,16.2C742.6,297,738.8,310.7,737.8,330.1z M784.7,274c8.2,0.4,11.6,3.3,10.1,8.6s-7,12.1-16.6,20.4
	c-10.2,9.5-15.3,13.1-15.4,10.8C769.1,286.9,776.4,273.6,784.7,274z M714.1,487.6c-9.8,8-21.5,10.4-33.8,10.2c-3,0-6,0-9,0
	c-13.3-0.1-26.5-1.8-39.8-1c-0.5,0-1.1-0.1-1.6-0.2c-1.3-0.3-3.3,0.3-3.8-1.3c-0.5-1.7,1.4-2.2,2.5-2.9c8.8-6,18.6-10.3,28.5-14
	c11.4-4.3,23-8.1,35.1-10c6-0.9,11.9-1.3,17.9,0.4c4.7,1.3,7.7,4.4,8.8,9C720,482.2,717.2,485.2,714.1,487.6z M607.1,885.9
	c2,1.6,2.8,3.4,2.4,5.3c-0.4,2.1-1.7,3.6-4,4.6c-2.3,1-4.9,1.2-7.8,0.9c-3.1-0.4-5.6-1.4-7.6-3c-2-1.6-2.8-3.5-2.4-5.6
	c0.4-1.9,1.7-3.3,4-4.3c2.3-1,5-1.2,8-0.9C602.6,883.3,605.1,884.3,607.1,885.9z M698.8,524.7c3.7,4,4.2,8.8,2.1,13.3
	c-2,4.2-6.1,6.4-10.9,6.3c-6.7-0.1-12.9-2.2-18.4-6c-13.7-9.4-24.8-21.7-36.9-32.8c-0.8-0.7-1.5-1.5-1.1-2.8c0.4-1,1.1-1.2,4.3-1
	c15,1.2,30,2.3,43.8,9.7C688.1,515,693.8,519.3,698.8,524.7z M241.1,152.4c0.7,0.7,1.4,1.3,2.1,1.7c0.6,0.4,1.1,0.5,1.7,0.3
	c0.6-0.2,1-0.6,1.2-1.1c2.1-4.2,5.1-7.6,8.8-10c3.7-2.4,8.9-4.2,15.4-5.2c6.5-1,14.7-1.5,24.6-1.3c9.9,0.2,22.1,0.7,36.6,1.6
	c12.9,0.8,24,1.2,33.1,1.2c9.2,0,16.8-0.3,22.9-0.8c-0.8,5.1-1.2,10.1-1.1,15.2c0.1,5,0.8,9.7,2.1,14.1c1.3,4.4,3.4,8.3,6.2,11.8
	c2.8,3.5,6.6,6.2,11.3,8.1c5.2,2.1,9.7,4.4,13.6,6.8c1.7,1,3.3,2.1,4.8,3.3c1.6,1.2,3,2.4,4.2,3.7c1.2,1.3,2.1,2.6,2.8,3.9
	c0.6,1.3,0.9,2.7,0.8,4.1c-0.2,2.5-1,4.7-2.5,6.6c-1.3,1.7-3.2,3.2-5.8,4.5c-2.6,1.3-6.2,2-10.9,2c-5.5,0-9.9-0.6-13.1-1.7
	c-3.2-1.2-5.5-2.6-7.1-4.4c-1.5-1.8-2.4-3.7-2.6-5.8c-0.2-2.1-0.1-4.2,0.3-6.2c0.4-2,1-3.8,1.7-5.4c0.7-1.6,1.3-2.7,1.8-3.4
	c0.2-0.5,0.3-0.9,0.3-1.2c0-0.3,0-0.6,0-0.8c-0.3-1.6-1-2.8-2.1-3.8s-2.4-1.6-3.7-1.9s-2.8-0.2-4.2,0.3c-1.4,0.5-2.5,1.4-3.5,2.8
	c-1,1.6-1.9,3.6-2.6,6c-0.7,2.4-0.8,5.5-0.3,9.3c0.4,2.8,1.1,5.2,2.3,7.3c1.2,2.1,2.6,3.9,4.3,5.5c1.7,1.6,3.6,2.9,5.6,3.9
	c2,1.1,4.1,1.9,6.2,2.6c4.9,1.7,10.3,2.6,16.3,2.8c5.7,0.2,10.4-0.4,14.1-1.9c3.7-1.4,6.6-3,8.7-4.8c2.4-2,4.2-4.4,5.5-7
	c0.9-2.1,1.4-4.2,1.4-6.3c0-2.1-0.2-3.9-0.7-5.6c-0.7-2.8-2.1-5.2-4.2-7.4c-2-2.2-4.5-4.2-7.3-6.2c-2.9-2-6-4-9.5-6.1
	c-3.5-2.1-7-4.4-10.6-6.8c-2.7-1.9-4.8-4.3-6.2-7.1c-1.5-2.8-2.5-5.9-3-9.4c-0.6-3.5-0.7-7.1-0.3-11.1c0.3-3.9,0.9-7.9,1.9-12
	c3-0.5,5.7-1.1,8.2-1.9c2.5-0.8,4.7-1.6,6.5-2.3c2.1-0.9,4-1.8,5.5-2.6c5.5-3,9.6-6.2,12.2-9.8c2.6-3.6,4.4-7,5.5-10.1
	c1.1-3.7,1.5-7.4,1.1-11.1c-0.4-2.9-1.1-5.5-2.2-7.9c-1-2-2.5-3.9-4.4-5.7c-1.9-1.8-4.5-2.9-7.7-3.4c-3.6-0.4-6.9,0.3-10,2
	c-3.1,1.7-5.8,3.7-8.1,6c-2.7,2.7-5.1,5.8-7.3,9.3c-2.4,3.8-4.8,8.5-7.1,14.3c-2.4,5.7-4.3,11.9-5.9,18.4c-9.3,0.5-19,0.7-29.1,0.7
	c-10.1,0-19.9,0-29.6-0.3c-9.7-0.2-18.9-0.5-27.6-0.8s-16.4-0.6-22.9-0.9c-5.4-0.2-10.1-0.1-14.1,0.3c-4.1,0.4-7.6,1-10.5,1.8
	c-3,0.8-5.4,1.7-7.5,2.6c-2,1-3.6,1.9-4.8,2.8c-1.7,1.3-2.8,3-3.5,5c-0.6,2-0.6,4.1,0.1,6.1C239.8,150.7,240.4,151.7,241.1,152.4z
	 M408,118.4c1.4-3.8,2.9-7.4,4.4-10.9c1.4-3.2,2.9-6.1,4.6-8.6c1.4-2.1,3-4.1,4.9-6c1.9-1.8,3.9-2.8,6-2.9c1.6,0,2.8,0.5,3.8,1.5
	c1,1,1.7,2.1,2.1,3.3c0.6,1.4,0.9,3,1.1,4.7c0.3,3,0,5.8-0.8,8.4c-0.8,2.5-1.9,4.8-3.5,6.8c-1.5,2-3.2,3.8-5.1,5.4
	c-1.9,1.6-3.8,2.9-5.7,4c-1.5,0.8-3,1.6-4.7,2.4c-1.5,0.6-3.1,1.3-5,1.9c-1.8,0.6-3.8,1.2-5.8,1.7C405.3,126,406.6,122.2,408,118.4z
	 M440,185.8c0.7,2.8,1.9,5.4,3.7,7.7s4,4.2,6.8,5.5c2.8,1.3,6.1,1.7,10,1.2c2.3-0.6,4.4-1.7,6.2-3.5c1.6-1.6,3-3.8,4.4-6.7
	s2.2-7,2.4-12.2c1.6-0.6,3.2-1.5,4.8-2.5c0.6-0.4,1.3-0.8,1.9-1.3c0,1.6,0,3.2,0.2,4.7c0.3,2.9,1,5.5,2.1,7.8
	c1.1,2.3,2.8,4.1,5.1,5.3c0.4,0.1,0.7,0.2,1.1,0.4c0.9,0.4,1.8,0.5,2.5,0.4c0.6-0.1,1-0.3,1.5-0.5c0.4-0.2,0.8-0.5,1-0.8
	c0.4-0.4,0.6-0.7,0.7-1.1c0.4-1.1,1.1-3,2.1-5.7c1.1-2.7,2.3-5.5,3.8-8.4c1.5-2.9,3.1-5.6,4.9-8.2c1.8-2.6,3.6-4.3,5.5-5.3
	c0.2-0.1,0.4,0,0.6,0.1c0.3,0.3,0.2,1.3-0.3,3.2c-0.3,0.9-0.6,2.7-0.9,5.3c-0.3,2.6-0.3,5.3,0.1,8c0.4,2.8,1.3,5.2,2.7,7.2
	c1.4,2,3.8,3,7,2.8c1.1,0,2.3-0.3,3.6-1c1.1-0.6,2.3-1.4,3.7-2.6c1.3-1.2,2.8-2.9,4.4-5.2c0.9-1.5,2.1-3.3,3.7-5.4
	c1.5-2.1,3.1-4.3,4.8-6.6c1.7-2.3,3.5-4.6,5.3-6.9c1.8-2.3,3.5-4.4,5.1-6.2c1.6-1.8,3-3.2,4.2-4.2c1.2-1,2.1-1.5,2.8-1.4
	c-4.2,9.4-7.5,18-9.7,25.7c-0.9,3.3-1.7,6.6-2.3,9.8c-0.6,3.2-0.8,6.2-0.7,8.8c0.1,2.6,0.7,4.9,1.7,6.7c1,1.8,2.5,3,4.6,3.6
	c2.1,0.6,4.2,0.5,6.2-0.1c2-0.6,3.8-1.6,5.5-2.9c1.7-1.3,3.2-2.8,4.6-4.4c1.4-1.7,2.6-3.2,3.5-4.7s1.7-2.7,2.3-3.8
	c0.6-1.1,0.9-1.6,1-1.7c0.8-1.6,1.6-3.2,2.3-4.8c0.1-0.2,0.2-0.4,0.2-0.6c0.3,1.3,0.6,2.5,1.1,3.5c0.8,2.1,1.8,3.9,3,5.3
	c1.2,1.4,2.4,2.6,3.7,3.4c3,2,6.6,3,10.7,2.9c2.9,0,5.4-1.1,7.5-3.4c2.2-2.3,4-4.9,5.5-7.9c1.5-3,2.7-5.9,3.5-8.8
	c0.9-2.9,1.5-4.9,1.7-6.2c0.2-1.2-0.1-2.1-1-2.8c-0.1-0.1-0.3-0.2-0.7-0.4c-0.3-0.2-0.6-0.2-0.9-0.1c-0.3,0.1-0.5,0.3-0.6,0.7
	c-0.4,1.1-1,2.8-2,5.1c-1,2.3-2.1,4.5-3.3,6.8c-1.2,2.3-2.5,4.4-3.8,6.2c-1.3,1.8-2.6,2.8-3.7,3c-2.3,0.4-4.1,0-5.5-1.2
	c-1.3-1.2-2.4-2.7-3-4.5c-0.7-1.8-1.2-3.8-1.4-5.9c-0.2-2.1-0.3-3.9-0.3-5.3c2.5-0.2,4.8-1,6.9-2.4c2.1-1.4,3.8-3.2,5.2-5.2
	c1.4-2,2.4-4.2,3-6.5c0.6-2.3,0.8-4.4,0.5-6.4c-0.3-1.9-1.1-3.6-2.4-5c-1.3-1.4-3.3-2.2-5.7-2.4c-1.9-0.1-3.7,0.2-5.3,0.8
	c-1.6,0.6-3,1.4-4.2,2.5c-1.2,1.1-2.3,2.3-3.2,3.7c-0.9,1.4-1.7,2.8-2.4,4.3c-1.6,3.5-2.7,7.5-3.3,11.9c-0.2,1.5-0.3,2.9-0.3,4.3
	c-0.3,0.9-0.6,1.8-1,2.8c-0.6,1.4-1.2,2.8-1.8,4.2c-0.6,1.4-1.3,2.8-1.9,4.1c-0.8,1.5-1.7,2.9-2.6,4.3c-0.7,1.2-1.6,2.4-2.5,3.7
	c-0.9,1.2-1.9,2.4-2.9,3.4c-0.9,0.9-1.8,1.7-2.6,2.2c-0.8,0.6-1.5,0.7-2.3,0.6c-0.6-0.1-0.8-0.7-0.8-1.9c0-1.2,0.2-2.8,0.6-4.7
	c0.4-1.9,0.9-4.1,1.6-6.5c0.7-2.4,1.5-4.8,2.3-7.3c1.8-5.8,4.2-12.5,7.1-19.9c0.8-3,1.1-5.4,0.8-7.3c-0.3-1.9-0.8-3.4-1.5-4.6
	c-0.8-1.4-1.8-2.4-3-3.2c-1.9-1.1-4.2-1.1-6.7,0.1c-2.5,1.2-5.2,3-7.9,5.5c-2.7,2.4-5.4,5.3-8.1,8.5c-2.7,3.2-5.1,6.4-7.3,9.4
	c-2.2,3-4.1,5.7-5.7,8c-1.6,2.3-2.7,3.8-3.3,4.4c-0.8,1-1.4,1.2-1.6,0.7c-0.2-0.6-0.3-1.5-0.2-2.8c0.1-1.3,0.3-2.9,0.6-4.8
	c0.3-1.8,0.6-3.6,0.8-5.3c0.2-1.7,0.3-3.4,0.2-5.2c0-1.8-0.4-3.4-1-4.9c-0.6-1.5-1.7-2.7-3.1-3.7c-1.4-1-3.4-1.5-5.9-1.5
	c-1.9,0-3.9,0.9-6,2.7s-4.1,4-6,6.6c-1.9,2.6-3.7,5.3-5.3,8.2c-1.6,2.9-3,5.3-4.1,7.3c0.6-5.3,1.5-10.1,2.6-14.2
	c1.1-4.1,2-7.3,2.8-9.6c0.3-0.8,0.3-1.6,0-2.4c-0.3-0.8-0.8-1.4-1.5-1.9c-1.5-0.9-3.1-1.5-4.9-1.7c-1.8-0.2-3.3-0.3-4.6-0.3
	c-1.4,0-2.3,0.7-2.8,2.1c-0.5,1.4-1.1,3.3-1.8,5.8c-0.7,2.5-1.4,5.2-2,8.2c-0.5,2.6-1,5.3-1.3,8.1c-0.6,0.6-1.4,1.2-2.2,1.8
	c-1.4,1.1-3.1,2-5.1,2.8c-0.2-4.4-0.9-8.2-2.1-11.4c-1.2-3.2-2.7-5.8-4.4-7.7c-1.7-2-3.6-3.4-5.5-4.4c-2-0.9-3.9-1.4-5.6-1.4
	c-1.3,0-2.6,0.4-3.9,1.2c-1.3,0.8-2.4,2-3.3,3.4c-0.9,1.4-1.6,3.1-2,5c-0.4,1.9-0.5,3.9-0.2,6c-0.9,0.8-2.2,2.4-3.9,4.8
	c-1.7,2.4-2.7,5.5-3.2,9.3C439.1,180.4,439.3,183,440,185.8z M589.5,158.1c0.8-1.9,1.5-3.4,2.1-4.3c0.6-0.9,1.2-1.5,1.7-1.7
	c0.5-0.2,0.9-0.3,1-0.3c0.3-0.1,0.6,0,1,0.2c0.4,0.2,0.6,0.7,0.8,1.3c0.2,0.6,0.2,1.5,0,2.5c-0.2,1-0.7,2.3-1.7,3.9
	c-1.1,1.8-2.3,3.3-3.7,4.3c-1.3,1-2.5,1.8-3.5,2.2C588,162.7,588.8,160,589.5,158.1z M454.8,161.5c0.3-0.5,0.8-0.9,1.3-1.2
	c0.6-0.4,1.3-0.5,1.9-0.3c0.6,0.1,1.2,0.3,1.8,0.6c0.6,0.4,1.3,0.8,1.9,1.4c1.2,1.1,2.2,2.7,3,4.8c0.8,2.1,1.3,4.6,1.5,7.5
	c-0.7-0.1-1.5-0.2-2.2-0.3c-0.7-0.1-1.5-0.3-2.4-0.6c-0.6-0.2-1.2-0.4-1.8-0.7c-0.6-0.2-1.2-0.5-1.8-0.8c-0.6-0.4-1.2-0.8-1.8-1.4
	c0.6-1.3,1.1-2.3,1.7-3c0.5-0.5,0.6-1,0.4-1.7c-0.2-0.6-0.5-1.1-1-1.4c-0.5-0.3-1-0.5-1.5-0.8c-0.6-0.2-1.2-0.4-1.8-0.6
	C454.2,162.5,454.4,162,454.8,161.5z M453.6,180.7c0.1-0.8,0.2-1.6,0.3-2.4c0.1-0.7,0.2-1.4,0.4-2.1c0.9,0.6,2.4,1.2,4.4,2.1
	c2,0.8,4.4,1.2,7.2,1.1c-0.1,1.3-0.3,2.7-0.6,4.4c-0.3,1.6-0.7,3.2-1.2,4.6c-0.6,1.5-1.3,2.8-2.1,3.9c-0.9,1.2-1.9,1.9-3.1,2.1
	c-1.2-0.4-2.3-1.1-3.2-2.1c-0.7-0.9-1.4-2.3-1.9-4.2C453.2,186.4,453.1,183.9,453.6,180.7z M576.4,1067.6c0.5-5.8-0.9-10.4-4.2-13.6
	c-3.3-3.3-8.1-5.3-14.3-6.2c-6.2-0.8-13-0.5-20.4,1.1c-7.4,1.5-14.5,4.4-21.3,8.7c-6.8,4.3-12.6,9.2-17.4,14.8
	c-4.8,5.6-8.2,11.4-10.2,17.3c-2,6-1.9,11.4,0.4,16.4c1.3,2.9,3.5,5.3,6.8,7.2c3.2,1.9,7,3.1,11.4,3.7c4.4,0.6,9.2,0.5,14.4-0.2
	c5.2-0.7,10.5-2.2,15.8-4.4c5.3-2.2,10.4-5.3,15.5-9.2c5-3.9,9.6-8.6,13.7-14.3C572.6,1080.5,575.9,1073.4,576.4,1067.6z
	 M549.6,1070.6c-1.1,3.3-2.7,6.8-5,10.6c-2.3,3.8-4.9,7.3-7.8,10.5c-2.9,3.2-6,5.8-9.2,7.7c-3.2,2-6.3,2.8-9.2,2.3
	c-2.9-0.4-4.5-1.7-4.7-4c-0.2-2.3,0.5-5,2-8.2c1.5-3.2,3.6-6.5,6.3-10.1c2.7-3.6,5.5-6.9,8.5-9.9c3-3,5.9-5.6,8.6-7.6
	c2.8-2,4.9-3,6.4-3c2.7,0,4.3,1.1,4.8,3.3C550.9,1064.6,550.6,1067.4,549.6,1070.6z M485.7,1073.1c-1.2-0.6-3.2-1-6.2-1.3
	c-2.9-0.3-6.3-0.4-10-0.4c-4.3,6.6-8.5,13.2-12.6,19.9c-4,6.7-7.7,12.8-11,18.4c-3.3,5.6-6.1,10.3-8.4,14.2
	c-2.3,3.9-3.9,6.3-4.8,7.2c-1.4,1.6-3.3,2.6-5.7,2.9c-2.4,0.3-4.8,0.2-7-0.3c-2.3-0.5-4.3-1.1-6.1-2s-2.7-1.7-2.8-2.4
	c-0.4-1.4,0.3-4,2-7.8c1.7-3.8,4.1-8.4,7.2-13.6c3.1-5.3,6.7-11.1,10.7-17.3c4-6.3,8.3-12.5,12.8-18.7c-0.5,0-1,0-1.5,0
	c-0.5,0-0.9-0.1-1.1-0.2c-0.9-0.2-1.4-0.8-1.5-1.8c-0.1-1,0.2-2.1,0.7-3.3c0.5-1.2,1.2-2.4,2-3.4c0.8-1.1,1.7-1.8,2.6-2.1
	c0.4-0.2,1.2-0.5,2.6-0.7c1.4-0.2,3.1-0.5,5.1-0.7c5.5-7.3,10.7-13.7,15.7-19.3c4.9-5.6,9.1-9.5,12.5-11.7c4.1-2.6,8.6-4.4,13.4-5.4
	c4.8-1,9.5-1.3,14-1.1c4.5,0.3,8.5,1.1,12.1,2.4c3.5,1.3,6.1,3,7.7,5.1c1.1,1.4,1.3,3.2,0.7,5.3c-0.6,2.1-1.6,4-3.2,5.6
	c-1.5,1.6-3.3,2.8-5.3,3.6c-2,0.8-3.8,0.6-5.5-0.6c-1.6-1.2-2.9-2.6-3.7-4.4c-0.8-1.8-1.6-3.3-2.4-4.7c-0.8-1.3-1.6-2.3-2.6-2.8
	c-0.9-0.5-2.2-0.2-3.9,1c-3.5,2.3-7.2,5.7-11.1,10c-3.9,4.3-7.8,9.2-11.8,14.6c4,0,7.4,0.2,10.4,0.6c2.9,0.4,4.8,1.3,5.6,2.6
	c1.1,1.8,1.4,3.6,1.1,5.5c-0.4,1.9-1.1,3.5-2.3,4.9c-1.2,1.4-2.6,2.4-4.1,3C488.6,1074.2,487.1,1074,485.7,1073.1z M646.5,451.5
	c3.3-5.7,7.1-10.9,11.8-15.5c3.1-3.1,7.2-4.6,11.4-5.1c4.5-0.5,7.9,2.9,7.8,7.3c-0.4,4.6-2.7,8.5-5.2,12
	c-8.7,12.5-20.1,22.1-33.2,29.8c-1.3,0.8-3.1,2-4.3,1c-1.5-1.2-0.1-3,0.6-4.3C639.2,468.3,641.8,459.5,646.5,451.5z M668.9,1058.7
	c0.5,2.1-0.1,4-1.8,5.6c-1.6,1.6-3.8,3.1-6.4,4.2c-2.6,1.2-5.4,2.1-8.3,2.6c-2.9,0.6-5.3,0.8-7.1,0.5c-1.9-0.1-3.5-0.7-4.9-1.8
	c-1.4-1.1-2.8-2.2-4.1-3.3c-1.3-1.1-2.8-1.8-4.4-2.4c-1.6-0.5-3.5-0.4-5.7,0.4c-2.5,0.9-5.8,3.2-9.9,6.7c-4.2,3.5-9.2,9-15.2,16.4
	c-2,2.9-4,5.8-5.9,8.6s-3.7,5.4-5.3,7.7c-1.6,2.3-3,4.3-4.1,6c-1.2,1.6-2,2.8-2.5,3.5c-1.1,1.4-2.6,2.3-4.6,2.7c-2,0.4-4,0.4-6.1,0
	c-2.1-0.4-3.9-1.1-5.5-2.2c-1.6-1.1-2.6-2.3-2.9-3.9c-0.2-1.1,0.5-3.2,2.1-6.4c1.6-3.2,3.8-7,6.3-11.4c2.6-4.3,5.4-8.9,8.5-13.6
	c3.1-4.8,6.1-9.2,9-13.2c2.9-4,5.4-7.4,7.7-10.1c2.2-2.7,3.7-4.2,4.4-4.4c3.9-1.3,7.3-1.7,10.3-1.3c3,0.4,5.1,1.3,6.4,2.6
	c2.8-2.7,5.5-4.9,8.1-6.7c2.6-1.8,4.9-2.8,6.9-3c2.9-0.4,5.5,0.1,7.7,1.5c2.2,1.4,4.1,2.9,5.7,4.8c1.6,1.8,2.9,3.6,4,5.5
	c1.1,1.8,2.1,3,3.1,3.6c0.8,0.6,2,0.7,3.5,0.4c1.5-0.4,3-0.8,4.5-1.2c1.5-0.5,2.8-0.7,4-0.6C667.7,1056.5,668.5,1057.3,668.9,1058.7
	z M901.9,1031.5c-0.2-1.2-0.5-2.3-0.9-3.3c-0.4-1.1-0.7-2.2-0.9-3.2c-1.7-4.6-4.6-8.3-8.8-11.2c-4.1-2.9-8.5-5.1-13.2-6.7
	c-4.7-1.6-9.4-2.7-14.1-3.3c-4.7-0.6-8.6-1-11.6-1.1c0.4-1.5,0.6-3,0.7-4.3c0.1-1.3,0.2-2.7,0.4-4c3.6-25.8,7.3-46.2,11.1-61
	c3.7-14.8,6.4-24.7,7.9-29.7c1-2.7,0.3-5.3-2-7.8c-2.3-2.5-5-4.3-8.2-5.3c-3.2-1-6-1.8-8.5-2.2c-1.5-0.4-2.9-0.1-4.2,0.7
	c-1.2,0.9-2.1,2-2.4,3.3c-0.8,2.1-1.5,4.5-2.2,7c-0.7,2.6-1.4,5.2-2.2,7.9c-2.1,5.6-4.3,10.7-6.6,15.4c-2.3,4.7-4.7,9-7.2,13.1
	c-1.7-7.5-5.9-12.8-12.6-15.9c-6.7-3.2-14.2-4.3-22.5-3.3c-8.3,1-16.5,4.1-24.4,9.3c-7.9,5.3-13.9,12.5-17.9,21.7
	c-4,9.4-5.8,17.1-5.3,23.3c0.1,1.3,0.3,2.6,0.5,3.8c-2.1,3.8-4.3,7.5-6.5,11.1c-3.7,6.1-7.4,11.5-11.1,16.2
	c-3.6,4.7-6.9,8.2-9.9,10.6c-3,2.4-5.3,3.1-7,2.2c-1.1-0.6-1.9-2.1-2.3-4.5c-0.4-2.4-0.4-5.3-0.1-8.8s0.8-7.2,1.6-11.3
	c0.8-4.1,1.6-8.3,2.6-12.5c2.1-10,5.1-21.1,8.9-33.3c0.6-3.1,1.3-6.7,2.3-10.9c1-4.2,1.7-8.6,2.3-13.1c0.6-4.5,0.8-9,0.6-13.5
	c-0.2-4.5-1-8.6-2.4-12.2c-1.4-3.6-3.7-6.7-6.9-9c-3.2-2.4-7.5-3.7-13.1-3.9c-6.5-0.2-12.6,2.3-18.4,7.5c-5.7,5.2-11,11.5-15.8,19.1
	c-4.8,7.6-9,15.6-12.6,24.1c-3.6,8.5-6.6,16-8.9,22.5c0.6-4.8,1.4-9.6,2.4-14.4c1-4.8,2.2-9.3,3.3-13.6s2.2-8.2,3.3-11.6
	c1-3.4,2-6.2,2.7-8.3c1-3.1-0.2-5.6-3.4-7.5c-3.1-1.5-6.5-2.4-10.3-2.7c-3.8-0.3-7.1-0.4-9.8-0.4c-3.1,0.4-4.9,1.6-5.5,3.7
	c-1.1,3.3-2.7,8.2-4.6,14.8c-1.9,6.6-3.5,13.7-4.9,21.3c-1,5.9-1.6,11.8-1.7,17.7c-1.7,5-3.5,9.8-5.4,14.3
	c-2.3,5.4-4.7,9.9-7.2,13.5c-2.5,3.6-5,5.3-7.5,4.9c-1.7-0.2-2.9-1.8-3.4-4.7c-0.6-3-0.7-6.7-0.3-11.2c0.4-4.5,1-9.5,2-14.9
	c1-5.5,2-10.9,3-16.2c1.1-5.4,2.2-10.3,3.3-14.9c1.1-4.6,2-8.2,2.6-10.9c0.4-1.5,0.3-3-0.3-4.5c-0.6-1.4-1.4-2.6-2.6-3.6
	c-3.1-2.1-6.5-3.5-10.2-4.3c-3.7-0.8-6.9-1.1-9.6-1.1c-3.1-0.4-4.9,1-5.5,4c-3.7,13-6.3,25.1-7.8,36.3c-0.7,2.2-1.6,4.8-2.7,8.1
	c-2,6-4.4,12.2-7,18.4c-2.7,6.2-5.5,11.7-8.3,16.5c-2.9,4.8-5.6,7.2-8,7.2c-3.3,0-5.7-1.9-7.3-5.6c-1.6-3.7-2.7-8.7-3.2-14.9
	c-0.5-6.2-0.5-13.4,0-21.5c0.5-8.1,1.3-16.8,2.4-25.8c1.1-9.1,2.5-18.3,4-27.6c1.5-9.3,3.2-18.1,4.9-26.6c21.3-4,40.9-8.3,58.9-12.9
	c18-4.6,33.6-8.3,46.8-11.1c13.2-2.8,23.6-4.2,31.2-4.2c7.6,0,11.6,2.6,12.2,7.8c0.2,2.1,0.9,3.6,2,4.6c1.1,1,2.3,1.6,3.4,2
	c1.3,0.6,2.9,0.9,4.6,0.9c3.8,0.2,7.3-0.3,10.5-1.4c3.2-1.1,5.5-2.6,7-4.3c1.5-2.1,2.3-4.2,2.4-6.2c0.1-2-0.1-3.9-0.7-5.6
	c-0.8-2.1-1.8-4-3.2-5.7c-3.1-3.3-7.3-5.8-12.6-7.8c-4.6-1.5-10.6-2.5-18.1-2.9c-7.5-0.4-16.8,0.9-27.9,3.7
	c-7.5,2.1-15.8,4.5-25.1,7.2c-9.3,2.7-18.9,5.5-28.9,8.3c-10,2.9-20.1,5.6-30.3,8.3c-10.2,2.7-20.2,5.1-30,7.2
	c1.5-7.7,3-14.4,4.3-20.1c1.3-5.7,2.5-10.2,3.4-13.5c0.6-1.7,0.6-3.5,0.1-5.3c-0.5-1.8-1.5-3.3-3-4.5c-2.9-2.7-5.9-4.4-9-5
	c-3.2-0.7-5.8-1-7.9-1c-2.7,0-4.5,1.2-5.5,3.7c-2.1,6.7-4.2,14.4-6.2,23c-2,8.6-3.9,17.8-5.6,27.6c-3.3,0.4-6.5,0.7-9.6,1
	c-3.2,0.3-6.1,0.4-8.8,0.4c-9.4,0-17.2-1-23.5-3c-6.3-2-11.4-4.5-15.2-7.6c-3.8-3.1-6.5-6.6-8-10.6c-1.5-4-2.1-8-1.7-12.1
	c0.2-1.5-0.3-2.8-1.4-3.9c-1.1-1-2.6-1.6-4.3-1.6H445c-3.3,0.2-6.1,1-8.6,2.3c-2.5,1.3-4.5,3.1-5.9,5.3c-1.4,2.2-2.3,4.6-2.6,7.2
	c-0.3,2.6,0.1,5.2,1.3,7.9c1.7,3.8,4.5,7.8,8.3,11.8c3.8,4,9.2,7.5,16.1,10.3c6.9,2.9,15.6,4.9,26.1,6c10.5,1.1,23.5,0.7,38.8-1.4
	c-2.1,14.4-3.6,28.7-4.5,42.9c-0.5,9-0.7,17.4-0.5,25.3c-0.6,1.4-1.3,3.1-2,4.9c-2,4.7-4.3,9.4-6.7,14.2c-2.5,4.8-5.1,9-7.9,12.8
	c-2.8,3.7-5.3,5.8-7.6,6.2c-4.8,0.8-8.6,0-11.3-2.4c-2.8-2.4-4.9-5.5-6.3-9.3c-1.4-3.8-2.4-7.9-2.9-12.2c-0.5-4.3-0.7-8-0.7-11.1
	c5.2-0.4,9.9-2.1,14.2-5c4.3-3,7.9-6.6,10.8-10.8c2.9-4.2,4.9-8.7,6.2-13.5c1.2-4.8,1.6-9.2,1-13.2c-0.6-4-2.3-7.5-5-10.3
	c-2.8-2.9-6.7-4.5-11.9-4.9c-4-0.2-7.7,0.3-10.9,1.6c-3.3,1.2-6.1,3-8.6,5.2c-2.5,2.2-4.7,4.7-6.6,7.6c-1.9,2.9-3.5,5.8-4.9,8.9
	c-3.3,7.3-5.6,15.5-6.9,24.7c-0.3,2.6-0.5,5-0.6,7.4c-0.5,1.3-1.1,2.7-1.8,4.3c-2,4.7-4.3,9.4-6.7,14.2c-2.5,4.8-5.1,9-7.9,12.8
	c-2.8,3.7-5.3,5.8-7.6,6.2c-4.8,0.8-8.6,0-11.3-2.4c-2.8-2.4-4.9-5.5-6.3-9.3c-1.4-3.8-2.4-7.9-2.9-12.2c-0.5-4.3-0.7-8-0.7-11.1
	c5.2-0.4,9.9-2.1,14.2-5c4.3-3,7.9-6.6,10.8-10.8c2.9-4.2,4.9-8.7,6.2-13.5c1.2-4.8,1.6-9.2,1-13.2c-0.6-4-2.3-7.5-5-10.3
	c-2.8-2.9-6.7-4.5-11.9-4.9c-4-0.2-7.7,0.3-10.9,1.6c-3.3,1.2-6.1,3-8.6,5.2c-2.5,2.2-4.7,4.7-6.6,7.6c-1.9,2.9-3.5,5.8-4.9,8.9
	c-3.3,7.3-5.6,15.5-6.9,24.7c-0.4,3.2-0.6,6.2-0.7,9c-0.6,1.7-1.3,3.6-2.1,5.6c-1.1,2.9-2.4,5.8-3.7,8.8c-1.3,3-2.7,5.8-4,8.5
	c-1.7,3.1-3.5,6-5.5,8.9c-1.5,2.5-3.3,5-5.2,7.6c-1.9,2.6-3.9,4.9-6,7c-1.9,1.9-3.7,3.4-5.3,4.6c-1.6,1.1-3.2,1.5-4.7,1.1
	c-1.1-0.2-1.7-1.5-1.7-4c0-2.5,0.4-5.7,1.1-9.8c0.8-4,1.9-8.5,3.3-13.5c1.4-5,3-10.1,4.7-15.2c3.8-12.1,8.7-25.8,14.6-41.4
	c1.7-6.1,2.3-11.2,1.7-15.1c-0.6-3.9-1.6-7.1-3.2-9.6c-1.7-2.9-3.8-5.1-6.3-6.6c-4-2.3-8.7-2.2-13.9,0.3
	c-5.3,2.5-10.7,6.3-16.4,11.3c-5.6,5.1-11.2,11-16.8,17.7c-5.6,6.7-10.6,13.2-15.2,19.5c-4.6,6.3-8.6,11.9-11.9,16.7
	c-3.4,4.8-5.6,7.9-6.7,9.2c-1.7,2.1-2.8,2.6-3.3,1.4c-0.5-1.1-0.6-3.1-0.4-5.9c0.2-2.8,0.6-6.1,1.1-9.9c0.6-3.8,1.1-7.5,1.7-10.9
	c0.4-3.4,0.5-7,0.4-10.8c-0.1-3.7-0.8-7.1-2.2-10.2c-1.3-3.1-3.5-5.6-6.5-7.6c-3-2-7-3-12.2-3c-4,0-8.2,1.9-12.5,5.6
	c-4.3,3.7-8.5,8.3-12.5,13.6c-4,5.4-7.7,11-11.1,16.9c-3.4,5.9-6.2,11-8.5,15.2c1.3-11.1,3.2-20.9,5.5-29.4c2.3-8.5,4.2-15.2,5.7-20
	c0.6-1.7,0.6-3.4,0-5c-0.6-1.6-1.6-2.9-3.2-3.9c-3.1-1.9-6.5-3.1-10.2-3.6c-3.7-0.5-6.9-0.7-9.6-0.7c-2.9,0-4.8,1.4-5.7,4.3
	c-1,2.9-2.2,6.9-3.7,12.1c-1.5,5.2-2.9,10.8-4.2,16.9c-1.2,6.1-2.3,12.5-3,19.2c-0.8,6.7-0.9,13.1-0.3,19.1c0.6,6,2,11.4,4.3,16.2
	c2.3,4.8,5.8,8.4,10.6,10.9c0.8,0.2,1.5,0.5,2.3,0.9c1.9,0.8,3.6,1.1,5.2,0.9c1.1-0.2,2.2-0.5,3-1c0.9-0.5,1.6-1,2.2-1.6
	c0.8-0.8,1.2-1.5,1.4-2.3c0.8-2.3,2.2-6.2,4.5-11.8c2.2-5.6,4.8-11.3,7.9-17.4c3.1-6,6.5-11.7,10.2-17.1c3.7-5.4,7.5-9,11.3-10.9
	c0.4-0.2,0.8-0.1,1.1,0.3c0.6,0.6,0.4,2.8-0.6,6.6c-0.6,1.9-1.2,5.6-1.9,10.9c-0.7,5.4-0.6,10.9,0.1,16.7c0.8,5.7,2.6,10.7,5.6,14.9
	c3,4.2,7.8,6.1,14.5,5.7c2.3,0,4.8-0.7,7.5-2c2.3-1.1,4.8-2.9,7.6-5.3c2.8-2.4,5.8-6,9-10.8c1.9-3.1,4.5-6.8,7.6-11.2
	c3.2-4.4,6.5-9,10.1-13.8c3.5-4.8,7.2-9.6,10.9-14.4c3.7-4.8,7.3-9,10.6-12.8c3.3-3.7,6.3-6.7,8.8-8.8c2.5-2.1,4.4-3.1,5.7-2.9
	c-8.8,19.5-15.5,37.3-20.1,53.4c-1.9,6.9-3.5,13.7-4.7,20.4c-1.2,6.7-1.7,12.8-1.4,18.2c0.3,5.5,1.4,10.1,3.4,13.9
	c2,3.8,5.2,6.3,9.6,7.5c4.4,1.1,8.7,1,12.8-0.3c4.1-1.3,7.9-3.4,11.3-6c3.4-2.7,6.6-5.7,9.5-9.2c2.9-3.4,5.3-6.7,7.3-9.8
	c2-3.1,3.6-5.7,4.7-7.9c1.1-2.2,1.8-3.4,2-3.6c1.7-3.3,3.3-6.6,4.7-10.1c0.2-0.4,0.3-0.8,0.5-1.3c0.6,2.6,1.3,5.1,2.2,7.3
	c1.7,4.4,3.8,8.1,6.2,11.1c2.4,3,4.9,5.3,7.6,7c6.3,4.2,13.7,6.2,22.1,6c5.9,0,11.2-2.3,15.7-7c4.5-4.7,8.3-10.1,11.3-16.4
	c1.3-2.6,2.5-5.3,3.6-7.9c0.6,2.6,1.3,5,2.2,7.2c1.7,4.4,3.8,8.1,6.2,11.1c2.4,3,4.9,5.3,7.6,7c6.3,4.2,13.7,6.2,22.1,6
	c5.9,0,11.2-2.3,15.7-7c4.5-4.7,8.3-10.1,11.3-16.4c1.4-2.9,2.7-5.8,3.9-8.6c1.2,8.8,2.9,15.9,5,21.1c2.9,6.9,5.8,12,8.9,15.2
	c3.4,3.6,7.3,5.6,11.5,6c3.8,0.2,7.4-1.1,10.8-3.7c3.3-2.7,6.5-6.1,9.3-10.3c2.9-4.2,5.5-8.9,7.8-14.1c1.1-2.5,2.2-5,3.1-7.4
	c0.1,1.3,0.3,2.6,0.4,3.8c1.2,8.7,3.8,15.6,7.6,20.5c3.8,5,8.9,7.6,15.2,7.8c3.8,0.2,7.4-0.9,10.8-3.3c3.3-2.4,6.4-5.5,9.2-9.3
	c2.8-3.8,5.3-8.1,7.5-12.8c0.7-1.4,1.3-2.9,1.9-4.3c0.7,1.8,1.5,3.5,2.5,5c1,1.1,2.4,2.5,4.5,4.2c2,1.6,4.9,2.4,8.8,2.4
	c2.3,0,4.3-0.3,5.9-1c1.6-0.7,2.9-1.5,3.9-2.4c1-1,1.7-1.9,2.3-2.9c0.6-1,1-1.6,1.1-2c1.3-4.2,3.2-9.5,5.5-15.8
	c2.3-6.3,4.9-12.9,7.9-19.8c3-6.9,6.3-13.6,10.1-20.2c3.7-6.6,7.6-12.3,11.6-17.1c1.5-1.9,3.2-3.4,4.9-4.6c1.5-1,3-1.8,4.5-2.4
	c1.4-0.7,2.7-0.5,3.9,0.4c1.3,1.3,1.6,4.1,0.9,8.3c-0.8,4.2-2.1,9.5-4,15.8c-1.9,6.3-4,13.4-6.2,21.3c-2.2,7.9-4.1,16-5.6,24.4
	c-0.6,3.6-1.1,8.9-1.4,15.7c-0.4,6.8-0.1,13.6,0.7,20.4c0.9,6.8,2.6,12.9,5.3,18.4c2.7,5.5,6.8,8.7,12.3,9.6c3.3,0.6,6.5,0.2,9.8-1
	c3.3-1.2,6.5-3.1,9.6-5.5c3.2-2.4,6.2-5.3,9.2-8.6c3-3.4,5.8-6.8,8.5-10.5c3.9-5.4,7.6-11.3,11.2-17.7c2.6,3.6,5.9,6.4,10,8.6
	c6.5,2.7,13.1,3.2,19.7,1.4c6.6-1.7,13-4.9,19.1-9.5c7.1-5.6,13.6-12.3,19.5-20.2c5.9-7.9,11.1-15.6,15.5-22.8
	c-1.9,9.8-3.7,19.8-5.5,30c-1.7,10.2-3.4,20.2-4.9,30c-11.7,2.3-22.7,6.1-33.2,11.3c-10.4,5.3-19.9,11.4-28.3,18.5
	c-8.4,7.1-15.6,14.8-21.4,23.1c-5.8,8.3-9.9,16.6-12.2,24.8c-1.5,5.7-2.3,10.9-2.4,15.4c-0.1,4.5,0.3,8.6,1.1,12.2
	c0.9,3.6,2.1,6.8,3.6,9.6c1.5,2.8,3.2,5.1,4.9,7c4.2,4.8,9.5,8.3,15.8,10.6c5,1.5,9.5,2.3,13.6,2.4c4.1,0.1,8.1-0.2,11.9-1
	c12.1-2.5,22.3-8.2,30.6-17.1c8.3-8.9,15.3-19.5,20.8-31.7c5.6-12.3,10-25.3,13.2-39.2c3.3-13.9,5.8-27,7.8-39.5
	c6.1,0.4,11.1,1.4,14.9,3c3.8,1.6,6.8,3.6,9,6c2.2,2.4,3.6,5,4.2,7.9c0.6,2.9,0.8,5.6,0.6,8c-0.4,3.3,0,5.6,1.3,7
	c1.2,1.4,2.6,2.5,4.2,3.3c1.9,0.8,4,1.1,6.3,1.1c4-0.4,6.8-1.9,8.3-4.5c1.5-2.6,2.3-5.3,2.3-8.2
	C902.2,1034,902.1,1032.7,901.9,1031.5z M473.6,916.2c1.6-4,3.1-7,4.5-8.9c1.3-1.9,2.5-3.1,3.6-3.6c1-0.5,1.8-0.7,2.2-0.7
	c0.6-0.2,1.2,0,2,0.4c0.8,0.5,1.3,1.4,1.7,2.7c0.4,1.3,0.4,3.1,0,5.2c-0.4,2.1-1.5,4.8-3.4,8c-2.3,3.8-4.8,6.8-7.6,8.9
	c-2.8,2.1-5.2,3.6-7.3,4.6C470.4,925.8,471.9,920.2,473.6,916.2z M404.9,916.2c1.6-4,3.1-7,4.5-8.9c1.3-1.9,2.5-3.1,3.6-3.6
	c1-0.5,1.8-0.7,2.2-0.7c0.6-0.2,1.2,0,2,0.4c0.8,0.5,1.3,1.4,1.7,2.7c0.4,1.3,0.4,3.1,0,5.2c-0.4,2.1-1.5,4.8-3.4,8
	c-2.3,3.8-4.8,6.8-7.6,8.9c-2.8,2.1-5.2,3.6-7.3,4.6C401.8,925.8,403.3,920.2,404.9,916.2z M807.5,962.7c-4.5,4-8.7,7.3-12.6,9.8
	c-3.9,2.5-7.5,4.2-10.8,5.2c-3.3,1-5.8,1.2-7.8,0.9c-1.7-0.2-2.9-1-3.6-2.4c-0.7-1.4-1-3.2-0.9-5.3c0.1-2.1,0.5-4.4,1.3-6.9
	c0.8-2.5,1.6-5,2.6-7.5c1.9-4.8,4.2-8.8,6.7-12.1c2.6-3.3,5.3-5.9,8.2-8c2.9-2.1,5.6-3.6,8.2-4.6c2.6-1,4.8-1.5,6.7-1.7
	c3.3-0.2,5.8,0.4,7.8,1.9c1.9,1.4,3.4,3.2,4.6,5.3c1.1,2.1,1.9,4.2,2.3,6.3c0.4,2.1,0.6,3.6,0.6,4.6
	C816.5,953.8,812,958.7,807.5,962.7z M819.9,1035.8c-1.2,6.4-2.3,12.2-3.3,17.4c-1.7,8-4.6,16.7-8.8,26c-4.1,9.3-9,17.5-14.8,24.7
	c-5.7,7.2-12.1,12.5-19.1,15.9c-7,3.4-14.2,3.5-21.7,0.3c-5-2.1-8.1-5.5-9.5-10.1c-1.3-4.6-1.8-9.4-1.4-14.4c0.4-3.4,1-6.7,1.9-9.9
	s1.9-6,3-8.5c1.1-2.9,2.6-5.6,4.3-8.3c4-6.7,8.8-12.9,14.4-18.5c5.6-5.6,11.6-10.8,18.1-15.4c6.5-4.6,13.2-8.6,20.1-11.9
	c6.9-3.4,13.7-6,20.4-7.9C822.3,1022.5,821.1,1029.4,819.9,1035.8z"/>
</svg>
