<?xml version="1.0" encoding="utf-8"?>
<!-- Generator: Adobe Illustrator 22.1.0, SVG Export Plug-In . SVG Version: 6.00 Build 0)  -->
<svg version="1.1" id="Layer_1" xmlns="http://www.w3.org/2000/svg" xmlns:xlink="http://www.w3.org/1999/xlink" x="0px" y="0px"
	 viewBox="0 0 432 432" enable-background="new 0 0 432 432" xml:space="preserve">
<path fill="#318540" d="M179.3,392.8c-0.4,0-0.9-0.2-1.3-0.2c-13.6-2-32.8-21.4-37.2-45.2c-7.7-41.5-0.4-83.3,2.5-104.5
	c-9.3,14.7-51.7,105.2-46,134.8c1.6,2.7,1.6,4.7-0.5,5.2c-0.4,0.2-0.9,0.2-1.3,0.2c-7.4,0-14-14.5-15.4-23.2
	c-3.6-26.2,9.3-118.3-11.7-121.2c-30.7-0.9-44.3,92.6-25,94.6c7.4,0,16.5-32.3,14.5-52.6c-0.4-2.7,0.2-4.1,1.1-4.1
	c0.7,0,1.8,0.9,2.7,3.1c5,10.8,10.2,45.4-3.4,55.5c-4.5,3.2-9.3,4.7-13.8,4.7c-8.3,0-15.8-4.8-20.6-12.7
	c-10.8-16.7-4.7-78.8,24.4-90.8c5.7-2.5,11.1-3.6,16.3-3.6c14.2,0,25.1,9,29.4,22.6c3.4,18.5,5.2,49.9,3.2,71.8
	c11.5-44.3,40.2-98.2,51-100.3c5.4,0.5,14.9,11.5,14.9,16.5c-8.6,47.6-15.3,144.1,16,145.6C182.9,388.9,182.9,392.8,179.3,392.8z
	 M182,268.4c0.9,0,2-0.2,2.9-0.4c4.7-1.8,12.2-8.3,12.2-18.1c-0.4-4.3-7.2-7.7-13.5-7.7c-4.1,0-7.9,1.4-9.9,4.8
	c-2.2,3.9,6.1,16.9,6.1,20.3C179.9,268.2,180.8,268.4,182,268.4z M256,302c-1.1,0-1.8,0.7-2,2.2c0,0.5,0,0.9,0.2,1.1
	c-0.4,9-6.6,60.9-17.2,60.9c-19.4-5-7.2-73.2,14.7-77.5c4.1,0,8.4,0.5,10.1,5.2c0.4,1.4,1.3,2,2.2,2c1.4,0,2.7-1.4,1.4-4.1
	c-3.8-9.5-17.6-11.8-23.5-11.8c-0.9,0-1.4,0.2-2,0.2c-13.8,2-27.3,24.3-29.7,48.5c-4.2,11.6-10.3,33.9-17.7,37.1
	c-10.9,1.4-2.2-62.6-2.2-77.4c-1.8-5.6-9-9-13.5-9c-1.3,0-2.3,0.4-2.9,1.1c-2.2,12.7-4.7,61.6-2.5,71.6c2.5,13.6,13.1,19.6,21,19.6
	c2.3,0,4.5-0.5,6.1-1.4c5.9-4,10.3-11.1,13-18.9c0.9,3.7,2.2,7.3,3.8,10.7c4.1,7.2,13.6,11.7,20.8,11.7c1.4,0,2.7-0.2,3.8-0.5
	c9.3-1.8,14.5-22.6,16.3-41.8c2,43.1-5.4,79.9-22.6,81.9c-5.9,0-8.3-2.7-9.7-8.3c-0.4-1.4-0.9-2-1.4-2c-1.6,0-3.1,6.8-1.3,9.7
	c2.3,3.4,8.8,4.8,14,4.8c1.3,0,2.5-0.2,3.6-0.4c26.2-3.6,37.2-57.4,31.4-97.7C267.6,309.3,259.9,302,256,302z M411.4,262.8
	c-7.9-6.6-19-7.4-28.9-7.4c0.5-3.4,0.5-6.3,0.7-9c-0.9-6.3-8.1-12.6-14.4-12.6c-1.3,3.8-2.3,11.8-3.6,22.6
	c-13.8,1.3-26,3.1-30.7,3.1h-0.5c-6.3,0,4.8,10.6,10.6,11.5c0.7,0.2,1.8,0.2,3.1,0.2c3.8,0,9.5-0.5,16.3-1.4
	c-1.4,18.4-2.2,40.3-1.9,57.8c-4.2,11.2-10.5,34.8-18,38.1h-0.5c-6.5,0-2-40.4-1.3-58c-0.9-13.1-9-24.4-17.1-24.4
	c-3.6,0-7.2,2.3-10.2,7.9c-5.7,11.1-14.2,33.2-17.1,56.4c1.4-34.5,2.5-83.8,3.4-101.1c-2.5-7.5-12-11-15.6-11
	c-0.7,0-1.1,0.2-1.3,0.4c-1.4,15.1-5.2,99.6-0.9,122.4c2.3,8.1,13.3,13.1,18.7,13.1c2.3,0,3.8-0.9,2.7-3.1
	c-4.5-14.9,13.3-77.9,19.6-77.2c0.7,1.3-4.7,45.1-1.1,61.9c3.6,14.7,12.2,18.7,19.2,18.7c3.1,0,5.7-0.7,7.5-1.6
	c6.1-4.1,10.6-11.7,13.3-20c0.2,1.1,0.3,2,0.5,2.9c3.6,14.7,10.4,18.7,16.3,18.7c2.5,0,5-0.7,6.8-1.6c13.3-9,18.8-34.3,16-47.9
	c-0.2-0.4-0.5-0.5-0.7-0.5c-1.4,0-3.2,6.5-5.7,14.4c-3.8,11.5-7.9,25.5-13.8,28h-0.4c-6.6,0-3.6-58.7-0.7-96.4
	c10.1-1.3,19.9-2,27.6-2.5c1.3,0.2,2.2,0.4,2.9,0.4C413.9,265.5,413.9,264.8,411.4,262.8z M36.2,116.4c16.5,0,20.1-38.4,21-50.3
	c0-0.8-0.4-1.4-0.8-1.4c-0.3,0-0.5,0.1-0.6,0.5c-9.3,21-19,44.6-24.6,44.6c-0.3,0-0.4-0.1-0.6-0.1c-12-7,21.2-68.8,35.9-68.8
	c1.4,0,2.6,0.5,3.6,1.7c6.7,9.3-9.8,61.9-1.9,88c3.4,7.1,10.4,13.8,18.3,13.8c1.8,0,3.6-0.4,5.4-1.2c4-3,7.7-8.5,10.4-13.8
	c4.1,8,9.9,13,16,13c2.2,0,4.4-0.6,6.6-2.1c12.1-8.9,20.8-61.9,16.1-89c-4.4-16.6-15.6-22.2-19.5-22.2c-1.7,0-1.9,1,0.3,2.6
	c16.3,15.6,6.8,102.6-5.8,102.6c-3.7-0.4-8.5-7.2-9.2-12.5c3.7-12.3,5.3-27.7,4.3-31.1c-1.3-4.6-5.9-11.7-11.5-11.7
	c-6.6,1.7-7.5,20.1-2.3,43.7c-2.8,7.4-10.7,16.4-14.7,16c-10.6-4-2.5-53.8,0.6-73.9c1.4-13-8.8-30.4-23.7-31.1
	c-23.1,2.6-45,49.8-39.3,70.8C21.1,110.4,29.1,116.4,36.2,116.4z M288.5,120.4c-2.1,10.8-5,20-10.6,21c-0.8,0.3-1.7,0.4-2.7,0.4
	c-5.2,0-12-3.2-15-8.4c-1.2-2.5-2.1-5.1-2.8-7.8c-1.7,3.8-4.3,7.2-7.8,9.6c-1.3,0.6-3.4,1.2-5.4,1.2c-5,0-11.1-2.7-13.8-13.4
	c-2.8-15.7,1.3-42.7,0.6-43.7c-4.4-0.5-20.9,42.4-16.8,57.8c1,2.2,0.5,3.1-0.8,3.1c-3.2,0-11.7-5.9-13.9-10.8
	c-0.8-3.9-1.3-8.9-1.6-14.3c-2.6,2.2-5.4,3.9-8.3,5.1c-2.1,9.9-6.4,18.3-13.5,21.3c-1.2,0.4-3,0.6-4.9,0.6c-5.9,0-14.1-2.2-18.4-9.5
	c-4.1-6.6-5.7-20.8-3-32.1c-0.3-2.5-0.1-5.2,0.4-8c1.7-11,9.9-19.3,20.5-19.3c2.2,0,4.5,0.4,6.8,1.2c9.8,4.3,14.2,21.2,13.2,37.4
	c2.6-2.2,4.9-4.8,7-7.7c0.1-10.3,1.1-20.9,3.3-28.5c0.3-0.8,0.9-1.2,1.7-1.2c3.7,0,12,8.4,8.3,20.3c-1.4,8.4-1.8,15.9-1.4,25.8
	c1-11.7,6.2-27,12.8-39.5c2.2-4,4.1-6.8,7.1-7.2c7.9,0,13.2,13.2,13.2,19.7c-1,17-2.5,38.8,2.2,38.8c0.1,0,0.3,0,0.5-0.1
	c5-2.1,8.6-15.1,11.1-22.4c1.6-17.5,11.4-33.8,21.4-35.2c0.4-0.1,1-0.1,1.7-0.1c2.3,0,5.9,0.5,9.4,2.1c1-15.9,2.3-30.3,4-35
	c4.5,0,9.7,4.5,10.3,9c-1.5,21.5-6.5,84.5-0.5,84.5h0.3c4.9-2.1,8.6-15.9,11.2-24.2c-0.5-17.7,7.7-36.1,19.8-36.5
	c9.7,0,16.3,4.9,17.7,14.7c0.9,10.4-3.4,28.1-18.6,28.1c-2.1,0-4.4-0.4-7-1.2c0.6,7.9,6.1,20,16.1,20c1,0,2.2-0.1,3.4-0.4
	c9.4-2.8,13.6-18.2,16.3-27c2-9.1,3.7-17,4.6-23.4c-1.4-1.4-2.6-3-4-5c-2.5-3.7,4-12.1,7.4-12.1c0.9,0,1.5,0.6,1.8,2.2
	c0.6,4,0.1,7.5,0.1,9.7c0.9,0.3,1.8,0.5,2.7,0.5c3.7,0,8-2.2,11.2-4.5c0.3-0.3,0.6-0.3,0.9-0.3c3.7,0,8.9,11.7,8.5,16.9v0.5
	c-7.1,22.2-8.5,43.1-3.1,43.1c0.3,0,0.5,0,0.8-0.1c7-3,13-31.6,15.5-31.6c0.1,0,0.3,0.1,0.4,0.4c2.1,9.9-1.8,27.9-11.5,34.4
	c-0.9,0.4-2.1,0.6-3.6,0.6c-6.2,0-16.5-4-16.8-16.4c0-11.1,1.5-19.7,4.6-31.2l1-3.5c-1.7,0.3-3.5,0.6-5.4,0.6
	c-2.1,0-4.3-0.4-6.3-1.4c-0.7,4.9-3.6,27.4-6.6,34.3c-1.6,5.8-4.5,11.1-8.9,14c-3.4,2.3-9.4,4.3-15.9,4.3c-8.1,0-16.8-3.1-21.4-12.5
	c-0.7-1.5-1.3-3.1-1.8-4.7c-1.9,6.6-5.3,12.7-10.1,15.9c-1.3,0.6-3.1,1.2-4.9,1.2C292,140.7,288.9,128.1,288.5,120.4z M325.9,113.3
	c0.5,0,0.9,0.1,1.4,0.1c15,0,19.1-32.5,12.3-33.5C334,79.5,325.2,98.6,325.9,113.3z M179.5,122.5c-7.9,0-13.8-0.4-20.5-5.4
	c0,6.2,1.9,20.5,10.4,20.5C174.3,137.6,177.8,131,179.5,122.5z M172,78c-0.4-0.1-0.8-0.1-1.2-0.1c-3.4,0-6.6,3.4-8.8,8.1
	c3.5,0,7.5,1,8,2.6c0.5,1.3,0.1,1.7-0.5,1.7c-0.8,0-1.9-0.5-2.3-0.4c-3.2,1.9-5.7,7.7-7.1,14.6c2.8,9.8,10.6,11.9,19.9,11.9h0.4
	C182.4,99.8,179.2,79.7,172,78z M288.2,91.5c0.1-3.6,0-7.1,0.4-10.7c-0.4-0.1-0.9-0.1-1.3-0.1c-0.4,0-0.6,0-1,0.1
	c-15.7,3.1-24.5,52.1-10.6,55.7C283.4,136.6,288,98.3,288.2,91.5z"/>
<path fill="#000100" d="M274.8,251.7c0,1.2,0,1.2-0.4,2.1c-0.9,2-2.6,3-8.2,4.9c-1.9,0.7-3.8,1.6-5.1,2.5c-1.5,1-3.8,3.2-6.4,6.2
	c-2.5,2.9-3.1,3.7-4.1,5.7c-0.8,1.6-1.1,1.9-1.8,1.9c-0.3,0-0.8-0.2-1.1-0.5c-0.5-0.5-0.1-5.6,0.7-8.9c0.7-2.8,1.5-4.9,3.1-8.1
	c1.4-2.9,2.7-4.7,4.6-6.6c0.7-0.7,1.7-1.6,2.3-2c1.3-0.9,4.3-2.4,5.8-2.9c2-0.7,4.4-0.9,5.9-0.5c2.1,0.5,4.1,2.4,4.6,4.4
	C274.7,250.3,274.8,251.1,274.8,251.7z M248.8,236c-0.1-0.7-0.4-2.2-0.6-2.8c-0.6-2-1.9-3.6-3.5-4.4c-0.8-0.4-1-0.4-2-0.5
	c-3.6-0.1-6.3,2.1-7.3,6c-0.6,2.5-0.6,4.8-0.1,7.5c0.8,4,2.1,7.3,4,10.2c1.4,2.3,2.2,4.1,2.2,5.3c0,0.5,0.2,0.9,0.5,1.3
	c0.3,0.3,1.4,0.3,1.7,0c0.1-0.1,0.3-0.3,0.3-0.4s0.1-0.1,0.1-0.1c0.1,0,0.1-0.1,0.1-0.2c0-0.1,0-0.3,0.1-0.3c0.1-0.1,0.9-3,1.4-5.3
	c0.2-1,0.7-2.8,1-4C248.4,242.4,249,238.7,248.8,236z M237.9,271c-0.9-6.6-1.9-10.2-4.5-15.5c-1.8-3.7-3.3-6.1-4.8-7.6
	c-2.1-2.2-4.6-3.2-7.1-3c-2.1,0.1-3.5,0.7-4.8,1.9c-1.7,1.6-2.2,3.3-1.7,6.1c0.3,1.9,0.9,3.2,2,4.7c1.8,2.3,3.4,3.4,9.4,6.7
	c3.8,2.1,6.6,4.4,7.7,6.4c0.2,0.4,0.8,1.9,1.3,3.4c0.2,0.7,0.7,1.3,0.9,1.3c0.1,0,0.1,0.1,0.1,0.1c0,0.1,0.2,0.1,0.5,0.1
	c0.3,0,0.5,0,0.5-0.1c0-0.1,0.1-0.1,0.3-0.2c0.3-0.1,0.6-0.7,0.6-1.2c0-0.2,0-0.5-0.1-0.5C238.3,273.6,238.1,272.4,237.9,271z
	 M127.9,187.7c-0.8-0.4-0.9-0.4-5-0.3c-8.3,0.3-16.4,1.2-23.9,2.9c-2.4,0.5-4.5,0.9-4.7,0.9c-0.6,0-5.2-2.1-8.1-3.7
	c-1.6-0.9-7.1-4.4-12.4-7.9c-8-5.3-9.5-6.4-9.5-6.7c0-0.2,0.2-1,0.4-1.8c0.8-3.5-0.4-8.6-3-12.2c-4.6-6.6-11-10.1-20.3-11
	c-1.9-0.2-5.5-0.2-7.3-0.1c-0.7,0.1-6.4,0.9-7.4,1.1c-0.6,0.1-1.5,1-1.7,1.6c-0.2,0.8-0.1,1.5,0.6,3.4c1.6,4.1,4.5,9.6,7,13
	c1.6,2.2,4.7,5.7,6.3,7c4.4,3.6,10.2,5.7,14.8,5.1c2.2-0.3,2.7-0.4,5-1.5l1.8-0.9l9.8,6.5c5.5,3.7,11.2,7.3,13.1,8.3
	c1.8,1,3.2,1.9,3,1.9c-0.2,0-1.9,0.5-3.8,1.1c-5.4,1.6-9.7,3.1-16.3,5.7c-3.3,1.3-6.1,2.5-6.3,2.6c-0.2,0.1-0.7-0.3-1.4-0.9
	c-1.9-1.8-4.7-2.9-8.4-3.5c-4.1-0.6-10.6,1.3-15.7,4.6c-5.2,3.3-10.3,9.1-13.2,14.7c-1.3,2.5-2.9,6.7-3,7.8
	c-0.1,1.2,0.4,2.2,1.4,2.6c1,0.5,17.8,0.5,21.4,0.1c9.3-1.2,14.1-3.7,17.7-9.2c1.8-2.8,2.7-6.1,2.5-9.5l-0.1-1.9l1.5-0.6
	c10.6-4.4,15.6-6.2,23.3-8.4c14.8-4.2,24.5-5.8,37.4-6.3c1.8-0.1,3.4-0.2,3.8-0.2c0.6-0.1,1.6-1,1.7-1.5c0-0.1,0.1-0.4,0.1-0.7
	C129.1,188.9,128.8,188.2,127.9,187.7z M413.5,225.4c-0.1-1.1-1.7-5.3-3-7.8c-2.8-5.6-8-11.4-13.2-14.7c-5-3.2-11.6-5.1-15.7-4.6
	c-3.8,0.5-6.6,1.7-8.4,3.5c-0.7,0.7-1.2,1-1.4,0.9c-0.1-0.1-2.9-1.2-6.3-2.6c-6.6-2.6-10.8-4.1-16.3-5.7c-1.9-0.6-3.6-1.1-3.8-1.1
	c-0.2-0.1,1.2-0.9,3-1.9c1.9-1,7.6-4.7,13.1-8.3l9.8-6.5l1.8,0.9c2.3,1.1,2.8,1.2,5,1.5c4.6,0.6,10.4-1.5,14.8-5.1
	c1.6-1.3,4.7-4.7,6.3-7c2.5-3.4,5.4-8.9,7-13c0.7-1.9,0.8-2.6,0.6-3.4c-0.2-0.6-1.2-1.5-1.7-1.6c-1-0.2-6.7-1.1-7.4-1.1
	c-1.7-0.2-5.4-0.1-7.3,0.1c-9.4,0.9-15.8,4.4-20.3,11c-2.6,3.7-3.8,8.7-3,12.2c0.2,0.8,0.4,1.6,0.4,1.8c0.1,0.3-1.4,1.4-9.5,6.7
	c-5.3,3.5-10.8,7-12.4,7.9c-2.9,1.6-7.5,3.7-8.1,3.7c-0.2,0-2.3-0.4-4.7-0.9c-7.4-1.6-15.6-2.6-23.9-2.9c-4.1-0.1-4.2-0.1-5,0.3
	c-0.9,0.5-1.2,1.2-1.1,2.1c0,0.3,0.1,0.6,0.1,0.7c0,0.4,1.1,1.4,1.7,1.5c0.3,0.1,2,0.2,3.8,0.2c12.9,0.5,22.6,2.1,37.4,6.3
	c7.7,2.2,12.7,4,23.3,8.4l1.5,0.6l-0.1,1.9c-0.2,3.4,0.6,6.7,2.5,9.5c3.6,5.5,8.4,8,17.7,9.2c3.6,0.4,20.4,0.4,21.4-0.1
	C413.1,227.6,413.6,226.6,413.5,225.4z M153.2,59.1c1.1,0.7,2.8,1.1,4.7,1.1c6.8,0,17-4.2,20.3-12.2c0.8-1.8,0.1-10.4-7-11.7
	c-0.6-0.1-1.3-0.1-2.1-0.1c-2.6,0-6.4,0.4-9.4,0.4c-3,0-5.3-0.4-5.6-1.9c-1.2-4.7,10.7-15.9,18.3-15.9c1.4,0,2.6,0.3,3.6,1.2
	c1.7,1.4-1.6,4.4-5.5,6.1c-2.4,0.1-4.9,0.1-7.4,0.1c-1.7,0,1.2,2.6,2.7,3.2c0.7,0.3,1.6,0.5,2.4,0.5c1,0,2-0.2,3.1-0.5
	c2.8,0,6.4,0,10.1-0.1c-0.6,8.1-0.7,18.3,0,22.1c1,4,2.8,5.1,4.4,5.1c0.7,0,1.4-0.2,1.8-0.4c1.6-1.1,2.8-3,3.5-5.2
	c0.2,1,0.6,2,1,2.9c1.1,1.9,3.7,3.2,5.6,3.2c0.4,0,0.7,0,1-0.1c1.8-0.3,2.9-3,3.7-6.3v0.2c0.4,4.2,3.2,5.7,5.5,5.7
	c0.7,0,1.4-0.1,1.8-0.4c2.1-1.4,3.4-4.2,4.1-7.1c1-3.2,2-10.6,2.2-12.3c0.8,0.4,1.6,0.5,2.4,0.5c0.7,0,1.4-0.1,2-0.2l-0.4,1.3
	c-1.2,4.3-1.8,7.6-1.8,11.8c0.1,4.7,4,6.2,6.3,6.2c0.6,0,1-0.1,1.4-0.2c3.7-2.5,5.1-9.3,4.3-13c0-0.1-0.1-0.1-0.1-0.1
	c-0.9,0-3.2,10.8-5.8,11.9c-0.1,0-0.2,0-0.3,0c-2,0-1.5-7.9,1.2-16.3v-0.2c0.1-1.9-1.8-6.4-3.2-6.4c-0.1,0-0.2,0-0.3,0.1
	c-1.2,0.9-2.8,1.7-4.2,1.7c-0.3,0-0.7-0.1-1-0.2c0-0.8,0.2-2.1,0-3.7c-0.1-0.6-0.3-0.8-0.7-0.8c-1.3,0-3.7,3.2-2.8,4.6
	c0.5,0.8,1,1.4,1.5,1.9c-0.4,2.9-1.2,6.6-2.2,10.9c-1.1,3.2-2.5,7.6-4.2,8.3h-0.1c-2.8,0-0.9-10.8-0.9-14.8c-0.6-1.7-3-3.7-4-3.7
	c-0.1,0-0.3,0-0.4,0.1l0,2.2c-0.1,2.4-1.8,16.2-4.7,16.2c-5.3-1.4-1.9-19.9,4-21c1.1,0,2.3,0.1,2.7,1.4c0.1,0.4,0.3,0.5,0.6,0.5
	c0.4,0,0.7-0.4,0.4-1.1c-1-2.6-4.8-3.2-6.4-3.2c-0.2,0-0.4,0-0.5,0c-3.8,0.5-7.6,6.8-8.1,13.5c-1,3.1-2.4,8.5-4.3,9.3h-0.1
	c-1.8,0-1.1-14.8-0.3-25.2c7.1-0.1,13.8-0.2,16.1-0.4c6.8,0-1.5-3.1-4.6-3.1h-2.2c-2.2,0-5.5,0-9,0l0.2-3.3
	c-0.2-1.7-2.2-3.4-3.9-3.4c-0.4,1.1-0.7,3.6-1,6.8c-1.5,0-2.8,0-4.3,0c0.4-0.4,0.6-0.8,0.7-1.2c1.1-3.9-0.5-7.8-4.8-9.7
	c-0.6-0.2-1.3-0.3-2-0.3c-6.4,0-16.2,7.2-18.6,13.9c-1.9,4.9,1.2,9.9,3.1,10.5c2.2,0.8,5.1,0.9,8,0.9c1.9,0,3.7,0,5.5,0
	c3.7,0,6.7,0.3,6.8,2.3c0.2,7.4-11.7,13.1-19.2,13.1c-3,0-5.4-0.9-6-3c-0.5-2,3-4.8,6.2-6.4c0.6-0.3,0.8-0.5-0.1-0.8
	c-1-0.3-1.8-0.4-2.6-0.4C146.9,45,148.2,56.7,153.2,59.1z M246.5,54.1c-3.9-4.5-5.7-15.1-3.1-23.8c1-1.9,1.8-2.8,2.5-3.4
	c0.8-5.6,4.5-10.2,10.3-10.2c3,0,6.1,1.1,8.1,2.9c6.4,5,7.1,27.2-0.6,35.7c-2.3,2.3-5.1,3.3-7.8,3.3
	C252.3,58.6,248.8,56.8,246.5,54.1z M254.8,56.8c12.8,0.8,12.9-38.9,2.2-38.5c-9.3,0.2-8.6,21.6-1.4,24.1c0.9,0.3,0.5,0.7-0.5,0.7
	c-1.8,0-5.5-1.2-7.7-5.9c0,0,0,0,0-0.1C245.8,48.2,249.4,56.5,254.8,56.8z M269.1,44.2c0.7-1.6,1.6-2.3,2.5-2.7
	c0.1-6.5,0.4-13.1,1-21.6c2.9,1.2,4.8,2.9,4.8,5.8c-0.1,1.4-0.4,7.8-0.9,15c2.9-0.1,6.6-0.1,11.4-0.3c0.5,2.3-3.7,3.9-9.5,4.3
	c5.3,6.7,6.9,20.9,4.9,24.2c-1.4,1.7-2.7,2.4-3.8,2.4c-3.7,0-6.4-6.7-7.1-12.5c-0.5-5.3-0.7-9.7-0.7-14.4L269.1,44.2z M279.5,69.7
	L279.5,69.7c2.6,0,0.8-19.4-3.2-24.7C275.7,51.4,276,69.5,279.5,69.7z M217.4,182.8c0.9,0,1.7-0.2,2.4-0.3l-0.5,1.5
	c-1.4,5.1-2,8.9-2,13.8c0.1,5.5,4.7,7.2,7.4,7.2c0.7,0,1.2-0.1,1.6-0.3c4.3-2.9,6-10.8,5.1-15.2c-0.1-0.1-0.1-0.2-0.2-0.2
	c-1.1,0-3.8,12.6-6.8,13.9c-0.1,0.1-0.2,0.1-0.3,0.1c-2.4,0-1.8-9.2,1.4-19v-0.2c0.2-2.3-2.1-7.5-3.8-7.5c-0.1,0-0.3,0-0.4,0.1
	c-1.4,1-3.3,2-5,2c-0.4,0-0.8-0.1-1.2-0.2c0-1,0.2-2.5-0.1-4.3c-0.1-0.7-0.4-1-0.8-1c-1.5,0-4.3,3.7-3.2,5.3
	c0.6,0.9,1.1,1.6,1.8,2.2c-0.5,3.4-1.4,7.7-2.6,12.7c-1.3,3.8-3,8.9-4.9,9.7h-0.2c-3.3,0-1.1-12.6-1.1-17.2c-0.7-2-3.5-4.3-4.7-4.3
	c-0.2,0-0.3,0.1-0.5,0.2l-0.1,2.6c-0.1,2.8-2.1,18.9-5.5,18.9c-6.1-1.6-2.3-23.2,4.7-24.6c1.3,0,2.7,0.2,3.2,1.7
	c0.1,0.5,0.4,0.6,0.7,0.6c0.5,0,0.9-0.5,0.5-1.3c-1.2-3-5.6-3.8-7.5-3.8c-0.3,0-0.5,0.1-0.6,0.1c-4.5,0.6-8.8,8-9.4,15.8
	c-1.2,3.6-2.8,9.9-5,10.9h-0.1c-2,0-1.3-17.4-0.3-29.4c8.3-0.2,16.1-0.3,18.8-0.5c8,0-1.8-3.6-5.3-3.6h-2.6c-2.6,0-6.4,0-10.5,0.1
	l0.3-3.8c-0.3-2-2.6-4-4.6-4c-0.5,1.3-0.8,4.2-1.2,7.9c-1.8,0-3.3,0.1-5.1,0.1c0.5-0.5,0.7-1,0.9-1.4c1.3-4.6-0.6-9.1-5.6-11.3
	c-0.7-0.2-1.5-0.3-2.3-0.3c-7.5,0-18.9,8.4-21.8,16.3c-2.3,5.7,1.4,11.6,3.6,12.3c2.6,0.9,5.9,1.1,9.3,1.1c2.2,0,4.4-0.1,6.4-0.1
	c4.4,0,7.8,0.3,7.9,2.7c0.2,8.6-13.7,15.4-22.5,15.4c-3.5,0-6.3-1.1-7.1-3.5c-0.6-2.4,3.5-5.6,7.3-7.5c0.7-0.4,1-0.6-0.1-0.9
	c-1.1-0.3-2.1-0.5-3-0.5c-8.6,0-7.1,13.7-1.3,16.6c1.3,0.9,3.2,1.3,5.5,1.3c7.9,0,19.9-4.9,23.7-14.2c1-2.2,0.2-12.1-8.1-13.7
	c-0.7-0.1-1.5-0.2-2.4-0.2c-3.1,0-7.5,0.5-11,0.5c-3.5,0-6.2-0.5-6.6-2.2c-1.4-5.5,12.5-18.6,21.4-18.6c1.6,0,3.1,0.4,4.2,1.4
	c1.9,1.7-1.9,5.2-6.4,7.2c-2.8,0.1-5.7,0.2-8.6,0.2c-1.9,0,1.4,3,3.2,3.8c0.9,0.4,1.8,0.6,2.8,0.6c1.1,0,2.4-0.2,3.6-0.6
	c3.2,0,7.5,0,11.8-0.2c-0.7,9.4-0.9,21.4,0.1,25.8c1.1,4.7,3.3,5.9,5.2,5.9c0.8,0,1.6-0.2,2.2-0.5c1.9-1.3,3.3-3.5,4.1-6.1
	c0.3,1.2,0.7,2.3,1.2,3.4c1.3,2.3,4.3,3.7,6.6,3.7c0.5,0,0.9-0.1,1.2-0.2c2-0.4,3.4-3.5,4.3-7.4v0.3c0.5,4.9,3.8,6.7,6.4,6.7
	c0.8,0,1.6-0.2,2.2-0.5c2.4-1.6,4-4.9,4.8-8.2c1.2-3.7,2.4-12.4,2.6-14.4C215.5,182.6,216.5,182.8,217.4,182.8z M269.9,203.9
	c-2.7,2.7-6,3.8-9.1,3.8c-4.2,0-8.3-2-11-5.3c-4.6-5.2-6.7-17.6-3.6-27.8c1.1-2.2,2.1-3.3,3-3.9c0.9-6.5,5.2-12,12.1-12
	c3.5,0,7.2,1.3,9.4,3.4C278.1,168.1,278.9,194,269.9,203.9z M262.1,160.7c-10.9,0.2-10.1,25.3-1.7,28.2c1,0.4,0.6,0.9-0.6,0.9
	c-2,0-6.4-1.4-9-6.9c-0.1,0-0.1-0.1-0.1-0.1c-1.8,12.9,2.4,22.5,8.8,23C274.5,206.6,274.7,160.3,262.1,160.7z M298.2,186.6
	c0.6,2.7-4.3,4.6-11.1,5.1c6.2,7.8,8,24.4,5.7,28.3c-1.6,1.9-3.1,2.8-4.5,2.8c-4.3,0-7.5-7.8-8.3-14.6c-0.6-6.1-0.8-11.4-0.9-16.8
	l-3-0.5c0.9-1.9,1.9-2.7,3-3.1c0.2-7.6,0.5-15.4,1.1-25.2c3.4,1.4,5.6,3.4,5.6,6.8c-0.2,1.6-0.5,9.2-1.1,17.6
	C288.3,186.9,292.6,186.9,298.2,186.6z M284.6,191.8c-0.7,7.6-0.3,28.7,3.8,28.9h0.1C291.4,220.7,289.4,198.1,284.6,191.8z"/>
</svg>
