<?xml version="1.0" encoding="utf-8"?>
<!-- Generator: Adobe Illustrator 22.1.0, SVG Export Plug-In . SVG Version: 6.00 Build 0)  -->
<svg version="1.1" id="Layer_1" xmlns="http://www.w3.org/2000/svg" xmlns:xlink="http://www.w3.org/1999/xlink" x="0px" y="0px"
	 viewBox="0 0 432 432" enable-background="new 0 0 432 432" xml:space="preserve">
<path fill="#E52028" d="M161.3,238.1c-3.6,7.6-7.7,15.3-12.3,22.7c-4.6,7.4-9.5,14.1-14.5,19.9c-5,5.8-10.1,10.6-15.2,14.1
	c-5.1,3.7-10,5.5-14.4,5.5c-1.5,0-3.1-0.2-4.8-0.7c-1.7-0.5-3.2-1.2-4.6-2.2c-1.4-1-2.5-2.3-3.4-3.8c-0.9-1.6-1.4-3.5-1.4-5.7
	c0-1.6,0.3-3.7,0.9-6.1c0.2-1,0.5-2.1,0.8-3.3c-1.7,2.2-3.4,4.3-5.1,6.3c-2.7,3.2-5.5,5.9-8.2,8.2c-2.8,2.2-5.6,4.1-8.3,5.4
	c-2.8,1.3-5.5,2-8.1,2c-1.2,0-2.6-0.2-4.1-0.5c-1.6-0.3-3.2-1-4.6-2c-1.5-1-2.8-2.4-3.8-4.1c-1.1-1.7-1.6-4-1.6-6.7
	c0-3.9,1-9.2,3.1-15.8c2-6.5,4.3-13.8,6.7-21.7c2.5-7.9,4.7-16.2,6.7-24.7c2-8.4,3-16.6,3-24.2c0-2.8-0.1-5.6-0.2-8.2
	c-0.1-2.5-0.5-4.7-1-6.7c-0.6-1.9-1.4-3.3-2.5-4.4c-1.1-1-2.6-1.5-4.6-1.5c-2.7,0-4.9,0.8-6.8,2.4c-1.9,1.7-3.5,3.8-4.7,6.3
	c-1.3,2.5-2.2,5.3-2.7,8.2c-0.6,2.9-0.8,5.7-0.8,8.2c0,3.3,0.4,6,1.3,8l0.5,1.3h-1.4c-4.3,0-7.4-1.2-9.2-3.7
	c-1.8-2.4-2.7-5.2-2.7-8.3c0-3.3,0.8-6.7,2.4-10.1c1.6-3.3,3.7-6.4,6.4-9.1c2.6-2.7,5.7-4.9,9.2-6.7c3.5-1.8,7.3-2.6,11.2-2.6
	c6.8,0,11.9,2.7,15.2,7.9c3.2,5.1,4.8,12,4.8,20.5c0,7.6-1,15.6-3.1,23.9c-2.1,8.2-4.4,16.4-6.9,24.2c-2.5,7.7-4.8,15.1-6.9,21.9
	c-2,6.6-3.1,12.2-3.1,16.5c0,1.8,0.3,3.1,0.8,4c0.4,0.7,1.4,1.1,2.9,1.1c2.4,0,5.1-1.2,8-3.5c3.1-2.4,6.3-5.7,9.4-9.6
	c3.2-4,6.4-8.5,9.4-13.6c3-5.1,5.8-10.2,8.3-15.3c2.5-5.1,4.6-10.1,6.3-14.8c1.7-4.7,2.7-8.8,3.1-12.1l0.1-0.8h0.8
	c3.7,0,6.3,1,7.9,3c1.5,1.9,2.3,3.8,2.3,5.5c0,2.2-0.9,5.4-2.8,9.6c-1.8,4.1-3.8,8.8-5.9,14c-2.1,5.2-4.1,10.6-5.9,16.3
	c-1.8,5.6-2.7,10.9-2.7,15.8c0,1.8,0.2,3.3,0.7,4.4c0.1,0.3,0.5,1.2,2.7,1.2c2.7,0,5.9-1.4,9.5-4.3c3.8-2.9,7.7-6.9,11.7-11.8
	c4-4.9,8-10.7,11.8-17.1c3.8-6.4,7.3-13.1,10.4-19.9c3.1-6.8,5.5-13.7,7.4-20.4c1.8-6.6,2.8-12.8,2.8-18.4c0-5-0.7-8.6-2.2-10.8
	c-1.4-2.2-3.3-3.7-5.7-4.4l-1.1-0.3l0.6-1c1.5-2.6,3.1-4.5,4.8-5.7c4.6-3.2,8.4-2.2,12,2.7c2.2,2.9,3.3,7.5,3.3,13.5
	c0,5.7-1.1,12.4-3.3,19.7C167.8,222.9,164.9,230.5,161.3,238.1z M389.5,260.6c-1.2,2.6-2.6,5.4-4.1,8.2c-1.5,2.8-3.1,5.4-4.8,7.8
	c-1.7,2.3-3.5,4.3-5.4,5.8c-1.8,1.4-3.7,2.1-5.6,2.1c-1.4,0-2.4-0.4-2.9-1.1c-0.6-0.9-0.9-1.9-0.9-3.2c0-1.6,0.3-3.4,0.9-5.4
	c0.6-2,1.2-4.1,1.8-6.3l0.1-0.3c0.7-2.3,1.3-4.7,1.9-7c0.6-2.4,1-4.7,1-6.8c0-2.8-0.7-5.4-2.1-7.5c-1.5-2.2-4-3.3-7.6-3.3
	c-2.8,0-5.5,0.7-8,2.2c-2.4,1.4-4.8,3.3-7,5.6c-2.2,2.3-4.3,4.9-6.1,7.8c-0.4,0.6-0.7,1.1-1.1,1.7c0.2-0.6,0.3-1.2,0.4-1.8
	c0.5-2,0.9-4.1,1.2-6.2c0.4-2.2,0.6-4.3,0.6-6.3c0-3.3-0.6-6.2-1.9-8.7c-1.3-2.6-3.8-4-7.4-4c-2.9,0-6,1-9.1,2.8
	c-3,1.8-6,4.2-8.9,7.2c-2.8,2.9-5.6,6.1-8.3,9.6c-1.4,1.8-2.7,3.6-3.9,5.4c0.5-1.8,0.9-3.5,1.3-5.2c0.8-3.3,1.2-5.6,1.2-7.2
	c0-3.2-1.8-4.9-5.1-4.9c-1.6,0-3.1,0.4-4.6,1.2c-1.4,0.8-2.5,1.6-3.2,2.4l-0.2,0.3v0.3c0,3.3-0.6,7.2-1.7,11.6
	c-0.6,2.2-1.2,4.4-1.8,6.6c-0.8,1.4-1.7,2.9-2.9,4.5c-1.9,2.6-4.1,5.1-6.5,7.4c-2.4,2.3-4.9,4.2-7.5,5.7c-2.5,1.5-5,2.2-7.3,2.2
	c-1.1,0-2-0.3-2.7-0.8c-0.7-0.4-1-1.4-1-3c0-1.5,0.4-3.3,1.2-5.1l2.6-6.4c0.9-2.3,1.8-4.6,2.6-7.1c0.9-2.5,1.3-5,1.3-7.5
	c0-3.5-0.9-6.4-2.7-8.7c-1.7-2.2-3.6-4-5.6-5.6c-2-1.5-3.8-2.8-5.4-4c-1.4-1-2.1-2.1-2.1-3.1c0-0.1,0.1-0.4,0.2-0.7
	c0.1-0.5,0.3-1,0.6-1.6c0.3-0.7,0.5-1.3,0.7-1.9c0.2-0.6,0.3-1.2,0.3-1.6c0-0.6-0.1-1.3-0.2-2.4c-0.2-1.4-1.3-2.2-2.8-2.2
	c-0.6,0-1.3,0.3-2.2,0.9c-0.8,0.6-1.6,1.4-2.4,2.3c-0.8,1-1.4,2.2-2,3.5c-0.6,1.4-0.8,2.9-0.8,4.6c0,1.5,0.5,2.8,1.4,3.9
	c-2.2,6.4-4.4,12.1-6.7,17c-1.2,2.7-2.3,5-3.2,7c-4.4,7.8-8.9,13.6-13.2,17.4c-4.3,3.9-7.8,5.8-10.4,5.8c-1.5,0-2.6-0.6-3.2-1.8
	c-0.7-1.3-1.1-2.7-1.1-4.1c0-1.7,0.4-3.6,1.3-5.6c0.9-2.1,1.9-4.1,3.1-6.1l3.1-5.5c1-1.8,1.5-3.2,1.5-4.3c0-0.9-0.3-1.6-1-2.2
	c-0.5-0.5-1.2-0.9-1.9-1.2c-0.7-0.3-1.4-0.6-2.2-0.8c-0.7-0.2-1.3-0.4-1.7-0.5l-0.6-0.2l-0.4,0.5c-1.8,2.7-4.1,6-6.9,10
	c-2.7,3.8-5.6,7.5-8.5,11c-2.9,3.5-5.9,6.4-8.9,8.9c-2.8,2.3-5.3,3.5-7.5,3.5c-0.9,0-3.3,0-3.3-5.1c0-2.4,0.4-5.1,1.3-8.2
	c0.9-3.1,2.1-6.2,3.7-9.4c1.6-3.2,3.4-6.4,5.4-9.4c2-3,4.2-5.8,6.5-8.1c2.3-2.4,4.7-4.3,7.1-5.7c2.3-1.4,4.7-2,7-2
	c2.5,0,4.2,0.7,5.1,2.2c1,1.5,1.6,3.4,1.6,5.6c0,1.7-0.2,3.4-0.7,5.2l-0.3,1.1h1.2c2.4,0,4.5-0.5,6-1.5c1.7-1.1,2.5-3.1,2.5-6
	c0-3.8-1.5-6.9-4.4-9.1c-2.8-2.2-6.4-3.4-10.6-3.4c-3.5,0-7.1,0.8-10.6,2.3c-3.5,1.5-6.8,3.6-10,6.1c-3.2,2.5-6.2,5.4-9,8.7
	c-2.8,3.3-5.3,6.8-7.4,10.3c-2.1,3.6-3.7,7.2-4.9,10.8c-1.2,3.6-1.8,7-1.8,10.2c0,4.6,1.2,8,3.5,10.3c2.3,2.3,5.3,3.4,8.8,3.4
	c4,0,8-1.6,11.7-4.7c3.1-2.6,6.6-6.3,10.3-11c0,0.5-0.1,0.9-0.1,1.3c0,2.9,1,5.6,2.9,8c2,2.5,5,3.7,9.1,3.7c2.9,0,5.9-0.7,8.9-2.1
	c3-1.4,5.9-3.4,8.7-5.9c2.8-2.5,5.4-5.6,7.8-9.1c0.9-1.3,1.7-2.7,2.5-4.1l0.6-1c0.8-1.4,1.8-3.1,2.9-5.3c1.1-2.2,2.2-4.5,3.5-7.1
	c1.2-2.5,2.5-5.3,3.7-8.3c1.1-2.6,2.2-5.3,3.3-8c0.7,0.5,1.3,1,2.1,1.4c1,0.6,1.9,1.4,2.7,2.2c0.8,0.8,1.4,1.7,1.9,2.8
	c0.5,1.1,0.7,2.4,0.7,3.9c0,1.9-0.4,4.1-1.3,6.4c-0.9,2.4-1.8,4.9-2.9,7.4c-1.1,2.6-2.1,5.1-3,7.6c-0.9,2.6-1.4,5.1-1.4,7.5
	c0,3.2,1.1,5.9,3.3,7.9c2.2,2,5.2,3,8.9,3c3.4,0,6.8-0.8,10.1-2.5c3.3-1.6,6.4-3.8,9.3-6.3c1.5-1.3,2.9-2.7,4.2-4.1
	c-0.4,1.1-0.7,2.1-1.1,3.1c-1.5,4.2-1.7,5.4-1.7,5.9c0,0.8,0.5,1.4,1.4,1.9c0.7,0.4,1.4,0.7,2.3,1.1c0.9,0.3,1.8,0.6,2.8,0.8
	c1.1,0.2,1.9,0.3,2.7,0.3h0.6l0.2-0.6c1.8-5.2,4.3-10.5,7.4-15.8c3.1-5.3,6.3-10.2,9.6-14.4c3.3-4.3,6.6-7.8,9.7-10.5
	c3-2.6,5.6-4,7.6-4c1.5,0,2,0.7,2.2,1.1c0.5,1,0.7,2.2,0.7,3.8c0,2.6-0.5,5.8-1.5,9.5c-1,3.8-2.1,7.5-3.3,11
	c-1.2,3.5-2.3,6.7-3.3,9.5c-1.4,3.9-1.6,5-1.6,5.6c0,0.6,0.2,1.4,1.2,2.1c0.7,0.5,1.5,0.9,2.4,1.1c0.9,0.3,1.9,0.5,2.8,0.6
	c0.9,0.1,1.7,0.2,2.3,0.2h0.6l0.2-0.5c1-2.1,2.1-4.4,3.3-6.9c1.1-2.5,2.5-4.9,4.1-7.4c4.8-7.4,8.8-13.1,11.8-17
	c4-5.2,7.5-7,10.2-4.6c0.7,0.6,1.1,1.9,1.1,3.7c0,1.5-0.2,3-0.7,4.7c-0.5,1.7-1,3.6-1.6,5.4c-0.6,1.9-1.2,3.9-1.6,5.9
	c-0.5,2-0.7,4-0.7,5.9c0,3.3,0.9,6.1,2.7,8.5c1.8,2.4,4.7,3.7,8.6,3.7c3.2,0,6.3-0.9,9.2-2.6c2.8-1.7,5.4-3.9,7.7-6.7
	c2.2-2.7,4.3-5.7,6.1-9c1.8-3.3,3.4-6.6,4.6-9.9l0.2-0.5l-3.1-3.6L389.5,260.6z M390.2,202.6c-10.7-7.4-23.1,34.6-23.1,34.6
	C368.1,236.7,401.1,210.1,390.2,202.6z M398.4,230.1c-4.3-8.2-25.9,14.2-25.9,14.2C373.3,244.2,402.7,238.4,398.4,230.1z
	 M359.7,207.1c-9.4,0.1-0.5,28.8-0.1,29.5C359.6,236.6,369,206.9,359.7,207.1z"/>
<path fill="#0F9848" d="M99.7,152.2l0.5-1.4l1.2-1.4l2.2-0.9h2.3l2,0.5l1.2,0.9l0.8,1.4v1.9l-0.2,1.5l-0.3,1.4l-0.5,1.4l-0.2,1.4
	l-0.3,1.4v4.3l0.5,4.2l0.3,1.4l1.4,4.2l0.8,1.2l0.9,1.4l0.5,0.8l1.1,1.2l0.9,0.9l1.1,0.9l1.2,0.8l1.1,0.8l1.2,0.8l1.4,0.6l1.2,0.5
	l1.5,0.3l1.4,0.2h1.9l4.3-0.3l1.9-0.2l1.4-0.5l2.5-0.9l1.2-0.6l1.2-0.8l1.2-1.4l1.4-1.4l0.9-1.2l0.9-1.5l0.9-1.7l0.6-1.5l0.6-1.9
	l0.6-2.3l0.3-2l0.2-1.5l-0.2-2l-0.2-1.9l-0.3-1.5l-0.3-2l-0.9-2.3l-0.8-1.9l-2.3-3.7l-0.9-1.1l-0.9-0.9l-0.8-1.1l-0.9-1.1l-0.8-1.1
	l-0.9-1.1l-0.9-0.9l-1.1-0.9l-0.9-0.9l-1.9-2.2l-0.8-0.9l-1.1-1.2l-0.8-0.6l-1.1-1.1l-2.8-3.2l-1.1-1.4l-3.2-4.6l-0.9-1.7l-0.6-1.4
	l-0.5-1.2l-0.5-1.4l-0.9-2.5l-0.3-1.4l-0.2-1.2v-1.4l-0.2-1.5v-2l0.2-1.9l0.2-1.5l0.2-1.4l0.6-2.8l0.6-1.4l0.5-1.4l0.6-1.2l0.8-1.4
	l0.8-1.1l0.9-1.2l0.9-1.1l2-2l1.1-0.9l1.2-0.8l2.5-1.2l1.4-0.6l3.7-1.4l1.7-0.5l2.8-0.6h3.1l2.5-0.2h1.5l2,0.2l1.7,0.2l3.1,0.6
	l1.4,0.5l1.2,0.6l1.4,0.6l3.2,2l1.2,0.9l1.1,0.9l0.8,0.9l0.9,1.1l0.9,1.2l1.1,1.5l0.9,1.7l0.5,1.4l0.3,1.4l0.2,1.5l0.3,1.9v4.8
	l-0.2,1.4l-0.3,1.4l-0.6,1.2l-1.1,0.8l-1.2,0.6l-1.4,0.2l-1.2,0.2l-1.4-0.3l-1.2-0.8l-1.1-1.5l-0.5-1.7l-0.2-1.5v-2.9l-0.2-1.4
	l-0.5-1.2l-0.5-1.4l-0.6-1.2l-0.8-1.2l-0.9-1.1l-1.1-0.9l-1.1-0.8l-1.2-0.8l-1.2-0.5l-1.4-0.5l-1.2-0.2l-4.3-0.5h-1.4l-1.5,0.2
	l-2.8,0.9l-2.5,1.5l-1.1,0.9l-1.1,1.1l-0.8,1.1l-0.8,1.4l-0.5,1.2l-0.6,1.4l-0.5,1.4l-0.3,1.5l-0.2,1.4v2.9l0.2,1.4l0.3,1.4l0.3,1.2
	l0.6,1.4l0.5,1.2l0.8,1.4l0.9,1.9l0.9,1.7l1.5,2.5l3.7,4.3l0.8,1.1l3.1,3.1l3.7,4.3l2,2l0.8,1.1l1.7,2.2l0.9,1.1l0.9,1.2l0.8,1.1
	l0.6,1.2l0.8,1.2l1.2,2.5l0.6,1.4l0.6,1.2l0.5,1.4l0.5,1.2l0.3,1.4l0.2,1.4l0.3,1.4l0.2,1.4L160,164l-0.3,2.8l-0.6,2.8l-0.2,1.4
	l-0.2,1.2l-0.3,1.4l-0.5,1.4l-0.6,1.2l-0.6,1.4l-1.9,3.4l-0.9,1.4l-0.9,1.1l-1.1,1.1l-0.8,0.6l-1.2,1.1l-0.8,0.8l-2.5,1.9l-2.5,1.2
	l-1.2,0.8l-1.5,0.6l-1.2,0.5l-1.1,0.3l-1.4,0.5l-1.5,0.3l-1.4,0.2l-1.1,0.3l-4.6,0.5h-3.9l-4.2-0.5H120l-1.5-0.3l-2.2-0.5l-3.2-1.1
	l-1.2-0.6l-1.1-0.8l-1.5-0.9l-2.5-1.9l-2.5-2.5l-0.9-1.1l-1.5-2.2l-0.8-1.2l-0.8-1.1l-0.9-2.8l-0.3-1.4l-0.5-1.9l-0.5-2l-0.3-1.4
	l-0.2-1.4v-2.9l0.2-1.2v-2.8l0.2-1.4l0.9-4.2l0.5-1.9L99.7,152.2z M367.8,160.4l-0.6,1.2l-0.6,1.5l-1.4,2.8l-0.9,1.7l-0.9,1.4
	l-0.9,1.7l-0.8,1.7l-0.6,1.4l-1.5,2.5l-0.6,0.8l-0.8,1.4l-0.8,1.2l-0.9,1.2l-1.1,1.4l-1.2,1.5l-0.9,1.2l-1.1,0.9l-2,2l-0.8,0.9
	l-1.1,1.1l-2,1.7l-1.1,0.9l-1.2,1.1l-2.6,1.7l-0.9,0.6l-3.4,2.2l-2.8,1.4l-1.7,0.8l-1.1,0.9l-0.9,0.9l-0.9,2.8l-0.3,1.4l-1.4,4.2
	l-0.5,1.5l-0.5,1.4l-0.3,1.5l-0.6,1.9l-0.8,1.9l-0.6,1.4l-0.5,1.2l-0.8,1.4l-0.3,0.9l-0.8,1.4l-1.2,2.5l-0.8,1.1l-1.9,2.2l-0.9,0.9
	l-1.1,0.9l-1.2,0.9l-1.5,1.1l-1.7,0.9l-1.4,0.8l-1.9,0.6l-2.2,0.5l-1.9,0.3h-4.2l-2.5-0.5l-1.9-0.6l-1.5-0.6l-1.5-1.2l-1.7-1.7
	l-1.2-1.5l-0.8-1.5l-0.5-1.9l-0.3-1.9v-1.4l0.2-1.4l0.3-1.4l0.3-1.2l0.3-1.4l0.5-1.2l0.6-1.4l0.9-1.7l1.1-1.7l1.1-1.2l2.8-2.8
	l1.2-0.8l1.4-0.9l4.2-2.9l1.2-0.8l1.5-0.8l0.8-0.5l4-1.9l0.9-0.3l2-0.9l1.9-0.8l1.4-0.8l1.7-0.8l1.4-1.2l0.8-1.2l0.5-1.4l0.3-1.2
	l0.3-1.4l0.5-1.4l0.5-1.2l0.5-1.4l0.8-2.6l0.5-1.4l0.3-1.4l1.2-3.7l0.3-1.5l0.3-1.4h-0.2l-0.8,1.1l-0.9,1.1l-0.8,1.1l-0.9,1.1
	l-1.5,2.2l-0.9,1.1l-1.1,1.2l-1.9,1.9l-1.5,1.2l-1.4,1.4l-1.2,0.9l-1.1,0.8l-1.4,0.6l-1.5,0.9l-1.9,0.9l-1.4,0.5l-2.8,0.6l-1.9,0.2
	l-2,0.3l-1.4-0.2l-1.7-0.3l-1.4-0.3l-1.5-0.6l-1.7-0.8l-1.2-0.9l-1.1-0.9l-0.8-1.2l-0.8-1.7l-0.6-1.9l-0.2-1.5v-1.9l-0.2-2v-1.5
	l0.2-1.9l0.1-0.7l-0.4,0.8l-0.8,1.2l-0.9,1.1l-0.9,1.2l-0.9,1.1l-1.7,2.2l-0.9,1.1l-0.9,0.9l-4.3,3.7l-1.2,0.8l-1.4,0.8l-1.7,0.8
	l-1.9,0.8l-1.4,0.5l-1.4,0.3h-1.5l-1.9-0.2l-1.9-0.5l-1.4-0.5l-1.1-0.8l-1.1-0.9l-1.1-1.5l-1.1-1.7l-0.5-1.4l-0.5-1.9l-0.2-2v-1.5
	l0.2-2l0.2-1.9l-0.5-0.3l-0.8,1.1l-1.5,2.5l-1.5,2.2l-0.9,1.1l-0.8,1.1l-0.9,1.1l-0.8,1.1l-1.1,0.9l-0.9,0.9l-1.1,0.9l-1.1,0.8
	l-1.2,0.8l-1.7,1.1l-2.3,1.1l-2.5,0.8l-2,0.5l-2.8,0.3l-0.4,0l-3.9,15.5l1-0.8l-0.5,1.1l13.6-8.5l-12.3,10.3l1.3-0.1l-1.1,0.7
	l16,1.1l-16,1.1l1.1,0.7l-1.3-0.1l12.3,10.3l-13.6-8.5l0.5,1.1l-1-0.8l3.9,15.6l-6-14.9l-0.3,1.2l-0.3-1.2l-6,14.9l3.9-15.6l-1,0.8
	l0.5-1.1l-13.6,8.5l12.3-10.3l-1.3,0.1l1.1-0.7l-16-1.1l16-1.1l-1.1-0.7l1.3,0.1l-12.3-10.3l13.6,8.5l-0.5-1.1l1,0.8l-3.9-15.6
	l6,14.9l0.3-1.2l0.3,1.2l6-14.8l-1.2-0.1l-1.9-0.3l-1.9-0.5l-1.4-0.5l-1.2-0.5l-1.1-0.8l-2.2-1.9l-0.8-1.1l-0.8-1.2l-0.9-1.7
	l-0.9-2.3l-0.5-2l-0.2-1.5l-0.3-2l-0.1-0.8l-0.6,0.8l-1.9,2.2l-0.8,1.2l-0.8,1.1l-0.9,1.1l-2.9,2.9l-2.2,1.7l-2.2,1.9l-1.2,0.9
	l-1.7,0.9l-1.9,0.8l-1.4,0.6l-1.4,0.5l-1.2,0.3l-1.4,0.2h-4.3l-1.4-0.2l-1.4-0.3l-1.9-0.6l-1.7-0.8l-1.2-0.8l-2.2-1.9l-0.8-1.1
	l-0.8-1.2l-1.2-2.5l-0.5-1.2l-0.5-1.4l-0.3-1.4l-0.3-1.2v-1.4l-0.2-1.4v-1.4l-0.2-1.5v-1.4l0.5-4.2v-1.4l0.8-7l0.3-1.4l0.2-1.4
	l0.6-2.8l0.5-2l0.5-1.9l0.3-1.4l0.5-1.4l0.3-1.4l0.5-1.4l0.3-1.4l0.3-1.9l0.6-2l0.9-2.8v-1.2l-0.5-0.8l-1.1-0.3l-1.2-0.2l-1.5-0.3
	l-1.5-0.6l-1.1-1.4l-0.3-1.4l-0.2-1.5l0.3-1.2l0.6-1.1l1.1-0.8l2-0.2l2.3,0.2h2.3l1.5-0.5l0.6-1.1l0.3-1.5l0.3-1.2l0.5-1.4l0.6-1.2
	l0.6-1.4l0.5-1.2l0.9-2.8l0.6-2.8l0.5-1.4l0.6-1.2l0.9-2.8l0.5-1.2l0.6-1.4l0.5-1.4l0.5-1.2l0.5-1.4l0.6-1.2l0.6-1.4l0.3-1.2
	l0.5-1.4l0.6-1.4l0.8-1.1l1.2-0.8l1.4-0.3l1.5,0.2l1.9,0.3l2,0.5l1.4,0.8l1.2,1.1l0.5,1.7l-0.3,1.4l-0.8,2l-0.9,2.2l-0.8,2l-0.5,1.5
	l-0.3,0.9l-0.5,1.5l-1.7,5.1l-0.5,1.2l-0.5,1.4l-0.6,2l-0.9,2.3l-1.1,3.2l-0.3,1.4l-0.6,1.2l-0.5,1.2v1.1l0.9,0.8l1.7,0.3h1.5
	l2.6-0.2l2.2-0.2h4.8l2,0.2l1.1,0.9l0.3,1.7v2l-0.5,1.4l-0.8,1.1l-1.1,0.8l-1.4,0.5l-1.4,0.3l-1.5,0.2l-4.2,0.2h-1.7l-1.4-0.2h-5.7
	l-0.9,0.6l-0.5,1.2l-0.6,1.9l-0.6,2.5l-0.6,2.6l-0.8,2.5l-0.6,2.6l-0.6,2.5l-0.5,2.2l-0.2,0.9l-0.5,2.2l-0.5,1.7l-0.5,1.5l-0.6,2.8
	l-0.2,1.9l-0.3,2l-0.3,2.8v4.3l0.3,2l0.3,1.9l0.5,1.4l0.6,1.4l0.8,1.1l1.7,1.1l2.2,0.9l1.7,0.3h1.5l1.7-0.3l3.7-1.9l4.3-3.7l1.1-1.1
	l0.8-0.9l1.5-2l2-2.5l0.8-1.1l0.6-1.2l0.8-1.2l0.9-1.2l0.8-1.1l0.8-1.2l0.6-1.2l0.5-1.4l0.8-1.5l0.8-1.2l0.3-0.6l0.3-0.8l3.7-7.4
	l0.8-1.2l0.8-1.1l0.8-1.2l1.5-2.2l0.9-1.1l2-2.3l0.6-0.6l1.1-1.2l2.2-1.9l1.4-1.4l1.7-1.2l2.2-1.7l1.2-0.8l1.1-0.8l1.4-0.6l1.9-0.8
	l1.7-0.9l1.5-0.8l1.9-0.6l1.9-0.5l1.5-0.5l3.9-0.3l1.4-0.2h1.9l3.1,0.2l3.6,0.3l3.4,0.6l1.4,0.3l1.7,0.5l6.2,2.8l1.1,0.9l1.1,0.8
	l1.1,0.9l0.9,1.1l0.3,1.7l-0.6,2.2l-1.7,1.9l-1.7,1.1l-1.2,0.2l-1.2-0.5l-1.2-0.9l-1.4-0.8l-1.2-0.8l-1.1-0.5l-1.2-0.6l-1.4-0.6
	l-1.2-0.3l-2.6-0.6l-1.5-0.5L262,136h-3.1l-1.1,0.2l-1.5,0.2l-2,0.5l-3.9,1.4l-1.5,0.8l-1.5,0.9l-1.1,0.8l-1.2,0.8l-1.1,0.8
	l-1.1,0.9l-1.2,1.1l-0.6,0.6l-1.1,1.2l-0.9,1.1l-0.8,1.1l-1.9,2.2l-0.8,1.1l-0.8,1.2l-1.9,3.7l-0.8,1.2l-0.9,2.8l-0.6,1.4l-0.6,1.2
	l-0.9,4.2l-0.5,1.5l-0.5,4.2v4.3l0.2,1.5l0.5,1.4l0.6,1.2l0.8,1.2l0.9,0.9l1.4,0.6l1.9,0.3l2-0.2l1.4-0.5l2.5-1.2l2.2-1.9l0.9-0.9
	l1.1-0.9l0.9-1.1l0.8-1.1l0.9-1.1l0.8-1.1l1.7-2.3l0.8-1.1l2.3-3.7l0.9-1.7l1.1-2l0.6-0.9l1.9-4l0.6-1.4l0.3-1.1l0.6-1.4l0.5-1.2
	l0.5-1.4l0.6-1.7l0.9-3.1l0.6-1.7l0.5-1.5l0.9-1.4l1.5-0.8l1.4-0.3l1.4,0.2l1.4,0.3l2.5,1.2l1.2,0.8l0.6,0.9l0.2,1.4l-0.5,1.2
	l-0.3,1.4l-0.5,1.4l-0.6,2.8l-0.5,1.4l-0.3,1.2l-0.9,2.8l-0.3,1.5l-0.2,0.9l-0.5,1.9l-0.3,1.4l-0.6,2.6l-0.5,1.9l-0.3,1.5l-0.3,1.7
	l-0.5,2.3l-0.5,2.6l-0.2,2.3l0.2,2l0.8,1.2l1.5,0.8l2.3,0.2l1.9-0.6l1.4-0.8l2.2-1.5l1.1-1.1l1.9-2l1.9-2.2l1.5-2.2l0.8-1.2l0.9-1.2
	l0.3-0.9l2.5-3.7l0.6-1.2l0.8-1.2l3.1-6.2l0.1-0.1l0-0.1l0.5-1.2l0.9-2.8l0.6-1.5l0.5-1.4l0.3-1.1l0.9-2.8l0.5-1.2l0.5-1.5l0.2-1.4
	l0.5-1.2l0.9-2.8l0.3-1.4l0.5-1.4l0.9-4.2l0.5-1.2l0.8-0.9l1.4-0.6l1.4-0.2l1.5-0.2h1.4l1.5,0.2l1.2,0.3l1.2,0.8l0.6,1.1v1.2
	l-0.2,1.4l-0.3,1.4l-0.5,1.4l-0.9,4.2l-0.3,1.2l-0.3,1.4l-0.5,1.4l-0.9,4.2l-0.3,1.2l-0.3,1.4l-0.6,1.4l-0.5,2l-0.5,1.9l-0.6,2.8
	l-0.9,2.8l-0.2,1.4l-0.3,1.4l-0.3,1.2l-0.5,1.4l-0.3,1.4l-0.3,1.5l-0.2,0.9l-0.5,1.7l-0.3,1.4l-0.3,1.5l-0.2,1.4v2.9l0.2,1.4
	l0.6,1.4l0.9,0.9l1.4,0.5l1.4,0.3l1.4,0.2l1.4-0.3l1.4-0.5l1.2-0.8l1.1-0.9l1.2-0.9l1.2-1.1l0.6-0.6l1.5-1.2l1.9-1.9l0.9-1.1
	l0.8-1.1l1.1-1.4l0.5-0.8l0.9-1.4l0.9-1.2l0.8-1.1l0.8-1.4l0.6-1.2l0.5-1.4l0.8-1.4l0.6-0.8l1.2-2.8l0.5-1.2l0.5-1.4l0.9-2l0.9-2.2
	l0.6-2l0.3-1.4l0.5-1.4l0.3-1.4l0.5-1.2l0.6-1.4l0.6-1.7l0.5-1.9l0.5-1.5l0.6-2.8l0.5-1.7l0.5-1.9l0.5-1.5l0.6-1.2l0.9-0.9l1.4-0.5
	l1.4-0.2h2.9l1.5,0.3l1.4,0.5l1.2,0.8l0.5,1.1v1.4l-0.2,1.4l-0.5,1.4l-0.9,2.5l-0.5,1.4l-0.3,2l-0.5,1.9l-0.5,1.5l-0.5,1.9l-0.6,1.7
	l-0.5,1.5l-0.5,1.9l-0.6,2l-0.6,2.8l-0.5,1.4l-0.5,1.9l-0.6,1.9l-0.3,1.4l-0.5,1.4l-0.3,1.4l-0.5,1.9l-0.5,2l-0.5,1.4l-0.3,1.2
	l-0.5,1.4l-0.5,1.9l-0.6,1.9l-0.3,1.5l-0.5,2l-0.3,1.9l-0.6,2.8l-0.5,1.5l-0.3,0.9l-0.5,1.5v1.5l0.9,0.5l2-0.6l1.7-0.9l1.4-0.8
	l1.1-0.8l1.2-0.9l1.1-1.1l0.8-0.6l1.2-1.2l1.1-0.9l0.9-0.9l1.1-0.9l0.9-1.1l0.8-1.1l1.9-2.2l0.9-0.9l0.8-1.1l0.9-1.2l0.8-1.2
	l1.4-2.5l1.5-2.5l1.7-3.4l0.8-1.4l0.8-1.2l1.9-3.7l1.4-0.9l1.9,0.2l1.2,1.5L367.8,160.4z M317.3,207.7l-0.8-0.5l-1.5,0.6l-1.2,0.8
	l-1.2,0.9l-1.1,0.8l-3.2,1.9l-1.1,0.9l-1.2,0.9l-2.5,2.5l-1.5,2l-1.4,2.2l-0.8,2.3l-0.2,1.9l0.3,1.4l1.4,1.4l2,0.9h2l1.5-0.5
	l2.5-1.5l1.1-1.2l0.8-1.2l0.9-1.1l0.8-1.2l0.8-1.5l0.6-1.4l0.5-1.1l0.5-1.5l0.6-1.9l0.6-2.3l0.6-2.5L317.3,207.7z M81.2,147
	l18.9-13.8H76.7L69.5,111l-7.2,22.3H38.9L57.8,147l-7.2,22.3l18.9-13.8l18.9,13.8L81.2,147z M353.4,310.5c1.6,2.1-1.3,3.3-3,2.8
	c-2.7-0.8-5.3-1.9-7.9-2.8c-16.8-6.3-21.8-7.9-31-9.7c-7.8-1.6-12.8-2-19.3-1.9c-5.5,0.1-7.8,0.4-13.4,1.6
	c-12.2,2.7-21.8,7.3-29.3,13.9l-0.8,0.7l0.6,1c2.8,5,4.7,10,5.6,14.8c0.5,2.7,0.5,8.3,0.1,9.7c-1.2,3.4-3.2,5.5-6.3,6.4
	c-0.7,0.2-1.4,0.3-2.7,0.2c-1.6,0-1.9-0.1-3-0.6c-1.5-0.7-3.4-2.5-4.4-3.9c-1.5-2.2-2.9-5.8-3.3-8.3c-0.6-4.2,0.4-8.4,3-12.9
	c1.1-1.8,1.9-3.1,3.7-5.2c0.9-1,1.4-1.8,1.3-1.9c-0.5-0.8-2.8-3.4-4.2-4.8c-5.8-5.5-14.1-9.5-24.4-11.7c-4.3-0.9-5.9-1.1-10.3-1.1
	c-4.2,0-5.5,0.1-9.3,0.9c-10,1.9-19.6,5.9-26.1,10.8c-1.1,0.8-2.2,1.7-2.5,2l-0.6,0.5l1.5,1.5c1.9,1.9,3,3.2,4.2,5.1
	c3.1,4.8,4.7,10.6,4.1,15.5c-0.5,4.3-2.4,7.3-5.7,8.9c-1.8,0.9-3.1,1.2-4.8,1.2c-2.5,0-4.5-0.8-6.7-2.7c-2.6-2.3-4.6-5.8-5.2-9.2
	c-0.3-1.8-0.2-5.1,0.2-7.1c0.9-3.9,3-8.5,5.5-11.8c0.9-1.2,1-1-1.8-2.4c-4-2-8.8-3.2-15.6-4.1c-3-0.4-11.5-0.5-14.4-0.2
	c-5.9,0.5-14.6,2.5-22.4,5.1c-10.3,3.4-20,8.7-26.8,14.5c-0.8,0.7-1.7,1.4-2,1.6c-1.4,0.7-3-0.2-3.2-1.7c-0.1-0.4,0.1-0.7,0.3-1.1
	c0.1-0.2,0.3-0.3,0.4-0.5c4.6-3.9,7-5.7,11-8.1c3.7-2.2,10-5.4,13.8-6.8c8.4-3.3,19-6.1,26.9-7c2.9-0.3,13.1-0.3,16.6,0.1
	c8.6,0.9,14.8,2.8,19.8,5.8l1.1,0.7l0.4-0.4c1.6-1.7,6.1-5,9.3-6.7c9.9-5.3,20.6-8.4,30.4-8.7c6.9-0.2,14.1,1,21.5,3.5
	c3.8,1.3,8.6,3.6,11.3,5.3c3.5,2.3,7.5,5.8,9.8,8.7c0.6,0.7,1.1,1.3,1.1,1.3c0.1,0,1-0.8,2.1-1.7c6.9-5.7,15.9-10.1,26.4-12.7
	c7.1-1.8,11.9-2.4,18.6-2.4c11.7,0,25.5,2.8,39.7,7.9c1.7,0.6,6.8,2.5,11.4,4.2C352.6,309.8,353,309.9,353.4,310.5z M163.5,314.5
	l-0.5-0.3l-1.2,1.6c-2,2.8-3.8,6.8-4.4,10c-0.3,1.7-0.3,3.7,0,5c0.5,2.4,1.6,4.5,3.3,6.2c1.6,1.6,2.7,2.1,4.4,2.1
	c4.1,0,6.4-3,6.4-8.2c0-3.8-1.4-7.9-3.9-11.5C166.7,317.8,164.2,314.9,163.5,314.5z M246,318.7l-0.3-0.5l-1.2,1.5
	c-3,3.8-4.5,6.8-5.2,10.4c-0.2,1.3,0,3.8,0.4,5.4c1.2,4.1,3.5,7.2,5.9,7.7c0.6,0.1,1,0.1,1.8-0.1c3.9-1,4.8-5.2,3-13.1
	C249.5,326.2,247.6,321.5,246,318.7z"/>
</svg>
