<?xml version="1.0" encoding="utf-8"?>
<!-- Generator: Adobe Illustrator 22.1.0, SVG Export Plug-In . SVG Version: 6.00 Build 0)  -->
<svg version="1.1" id="Layer_1" xmlns="http://www.w3.org/2000/svg" xmlns:xlink="http://www.w3.org/1999/xlink" x="0px" y="0px"
	 viewBox="0 0 432 432" enable-background="new 0 0 432 432" xml:space="preserve">
<path fill="#0F9848" d="M119.3,325.1c-0.3-0.4-0.4-1.1-0.2-2c0-1,0.1-2.2,0.2-3.6c0.1-1.4,0.4-2.8,0.6-4.2c0.3-1.4,0.7-2.7,1.2-3.8
	c0.5-1.2,1.1-1.9,1.9-2.3c0.5-0.4,1.4-0.4,2.8-0.1c1.4,0.3,2.8,0.8,4.3,1.4c1.5,0.6,2.7,1.3,3.9,2.2c1.1,0.8,1.7,1.5,1.7,2.2
	c-2.7,2.1-4.6,4.7-5.8,8c-0.7,1.9-1.7,3.3-3,4.1c-1.3,0.8-3.2,0.6-5.8-0.4C120.3,326,119.6,325.5,119.3,325.1z M153,322.6
	c-1.8,3-2.9,6.4-3.3,10.2c0,0.9,0.3,1.6,0.8,2.3c0.5,0.6,1.3,1.4,2.2,2.1c0.9,0.8,1.9,1.6,3,2.5c1.1,0.9,2.2,2,3.2,3.3
	c0.9,1.3,1.3,3.1,1.2,5.5c-0.1,2.4-0.5,5-1.2,8c-0.7,2.9-1.5,6.1-2.5,9.4c-1,3.3-1.9,6.5-2.7,9.7c-0.8,3.1-1.4,6.1-1.7,8.9
	c-0.4,2.8-0.3,5.1,0.2,6.9c0.3,0.8,0.6,1.3,0.9,1.5c0.3,0.2,0.5,0.4,0.8,0.8c0.6,0.5,1,0.9,1.1,1.3c0.1,0.4,0,0.6-0.3,0.8
	c-0.3,0.1-0.7,0.2-1.3,0.1c-0.6-0.1-1.2-0.3-1.8-0.7c-2.3-1.4-4.2-3.2-5.5-5.4c-1.4-2.2-2.2-4.6-2.6-7.1c-0.4-2.5-0.5-4.9-0.3-7.4
	c0.1-2.4,0.5-4.7,1-6.9c0.5-2.1,1-3.9,1.5-5.4c0.3-1.4,0.7-3.2,1.3-5.6c0.6-2.4,1.1-4.8,1.5-7.3c0.4-2.5,0.6-4.8,0.6-6.9
	c0.1-2.1-0.1-3.4-0.6-4.1c-0.5-0.5-1-0.9-1.5-1.4c-0.5-0.4-0.9-0.9-1.4-1.4c-1,2.1-1.9,4.2-2.6,6.3c-0.5,1.3-1,2.7-1.4,4.1
	c0,0.1,0,0.2-0.1,0.4c-0.5,1.5-1.1,3.2-1.7,4.9c-0.7,1.8-1.5,3.5-2.4,5.4c-0.9,1.8-1.9,3.5-2.9,5.2c-1,1.7-2.2,3.1-3.4,4.3
	c-1.2,1.2-2.5,2.3-3.9,3.1c-1.4,0.8-2.8,1.3-4.2,1.4c-1.9,0.1-3.6-0.2-4.9-1c-1.4-0.8-2.5-1.7-3.4-2.8c-0.9-1.1-1.7-2.3-2.2-3.4
	c-0.3-0.8-0.5-1.4-0.7-2c-0.1,0.1-0.2,0.3-0.3,0.4c-1.7,2.4-3.4,4.5-5.3,6.2c-1.9,1.7-3.9,2.6-6.2,2.7c-3,0.1-5.7-0.7-8-2.5
	c-2.3-1.8-3.7-4.1-4.3-6.9c-0.3-1.1-0.3-2.5,0-4.2c0.3-1.7,0.7-3.5,1.1-5.5c0.4-2,0.9-4,1.3-6c0.4-2,0.8-3.9,1-5.6
	c0.2-1.7,0.2-3,0.1-4c-0.2-1-0.6-1.5-1.4-1.5c-1,0-2.1,0.7-3.5,2.1c-1.4,1.4-2.7,3.1-4,5.2c-1.3,2.1-2.6,4.3-3.9,6.7
	c-1.2,2.4-2.3,4.5-3.1,6.5l-0.1,0.1l-1.9,11c-0.1,1.1-0.2,2-0.3,2.7c-0.1,0.7-0.2,1.2-0.3,1.5c-0.1,0.4-0.2,0.6-0.4,0.7
	c-0.2,0.1-0.4,0.2-0.7,0.2c-1.3,0-2.5-0.4-3.7-1.3c-1.2-0.8-2.2-1.8-3-3c-0.8-1.2-1.5-2.3-1.9-3.4c-0.3-0.6-0.4-1.2-0.5-1.6
	c-1.1,1.5-2.3,2.8-3.6,4.1c-1.5,1.4-3.2,2.6-5,3.5c-1.8,0.9-3.7,1.4-5.8,1.5c-3.4,0.1-6.3-0.5-8.6-1.7c-2.4-1.2-4.2-2.8-5.5-4.8
	c-1.3-2-2.3-4.3-2.9-6.9c-0.6-2.6-0.8-5.2-0.5-8s0.8-5.4,1.7-8c0.9-2.6,2.1-5,3.6-7.1c1.5-2.1,3.3-3.8,5.5-5.1c2.2-1.3,4.5-2,7-2
	c2.6-0.1,4.8,0.6,6.6,1.8c1.7,1.3,3.1,2.8,4,4.7c0.9,1.8,1.3,3.8,1.3,5.8c-0.1,2-0.6,3.7-1.4,5.2c-0.6,0.8-1.4,1.4-2.4,1.9
	c-1,0.4-2,0.7-2.9,0.8c-0.9,0.1-1.7,0-2.3-0.2c-0.6-0.2-0.9-0.7-0.7-1.3c1.8-2.2,2.9-4.4,3.4-6.7c0.5-2.3,0.6-4.2,0.2-5.6
	c-0.4-1.5-1.1-2.3-2.1-2.5c-1.1-0.2-2.3,0.6-3.8,2.6c-1.1,1.4-2.1,3.2-3,5.4c-0.9,2.2-1.7,4.6-2.4,7c-0.7,2.5-1.2,4.9-1.5,7.4
	c-0.3,2.5-0.3,4.7,0,6.6c0.3,1.9,1,3.5,2.1,4.7c1.1,1.2,2.6,1.7,4.5,1.5c2.2-0.1,4.2-0.9,6-2.4c1.8-1.5,3.4-3.3,4.8-5.4
	c1.4-2.1,2.7-4.3,3.9-6.7c0.5-1,0.9-1.9,1.4-2.8c0.7-4.4,1.6-9.1,2.6-14c1.1-4.9,2.3-9.8,3.9-14.8c1.5-4.9,3.2-9.5,5.1-13.6
	c1.9-4.2,4-7.7,6.3-10.7c2.3-2.9,4.9-4.9,7.9-5.8c1-0.3,2.2-0.2,3.5,0.3c1.4,0.5,2.7,1.2,3.9,2.1c1.2,0.9,2.3,2.1,3.1,3.3
	c0.8,1.3,1.2,2.5,1,3.8c-0.8,6.5-3,12.2-6.6,17.1c-3.6,4.8-8.3,9.5-14.1,13.9c-0.5,2.1-1,3.9-1.5,5.6c-0.5,1.7-0.9,3.5-1.3,5.6
	c1-1.9,2.1-3.8,3.2-5.5c1.1-1.7,2.3-3.2,3.6-4.5c1.3-1.3,2.8-2.2,4.3-2.9c1.5-0.7,3.3-0.9,5.2-0.8c4.1,0.4,7,2.5,8.7,6.2
	c0.7,1.7,0.9,3.7,0.7,6c-0.2,2.4-0.7,4.8-1.3,7.2c-0.6,2.5-1.4,4.8-2.2,7.1c-0.8,2.3-1.3,4.2-1.6,5.6c-0.2,1.4-0.1,2.4,0.2,3
	c0.3,0.6,0.7,1,1.2,1.1c0.5,0.1,1.1,0,1.9-0.4c0.8-0.4,1.4-0.9,1.9-1.7c0.8-0.9,1.6-2.1,2.6-3.6c1-1.5,2-3.1,3.1-4.7
	c1.1-1.6,2.1-3.3,3.2-5c0.3-0.4,0.5-0.9,0.7-1.3c0.4-1.8,0.7-3.5,1.1-5.3c0.7-3.1,1.2-6,1.5-8.6c0.3-2.6,0.1-4.3-0.6-5.3
	c-0.5-0.9-0.2-1.2,1.1-1.1c1.2,0.1,2.7,0.5,4.4,1.3c1.7,0.7,3.3,1.8,4.9,3.1c1.6,1.4,2.4,2.8,2.6,4.5c0.1,0.6-0.1,1.7-0.5,3.2
	c-0.4,1.6-0.9,3.4-1.4,5.4c-0.5,2-1.1,4.1-1.7,6.3c-0.6,2.2-1.1,4.3-1.4,6.1c-0.3,1.9-0.5,3.4-0.4,4.7c0,1.2,0.4,1.9,1.1,2.1
	c1,0.2,2.1-0.3,3.3-1.6c1.2-1.3,2.5-2.9,3.7-4.9c1.2-2,2.4-4.2,3.7-6.6c0.8-1.5,1.5-3,2.2-4.4c0-0.3,0-0.5,0.2-0.8l2.8-8
	c0.3-0.8,0.5-1.5,0.8-2.2c0.2-0.6,0.5-1.2,0.7-1.7c0.3-0.7,0.2-1.6-0.1-2.6c-0.3-1.1-0.7-2.5-1.1-4.3c-0.5-1.9-0.6-3.9-0.2-6
	c0.4-2.1,1-4.1,1.8-6s1.9-3.5,3-4.8c1.2-1.3,2.3-2.2,3.4-2.6c0.8-0.2,1.8-0.1,3.2,0.5c1.4,0.5,2.8,1.2,4.2,2.1
	c1.4,0.8,2.6,1.7,3.5,2.6c0.9,0.9,1.3,1.7,1.2,2.2C157.3,317.5,154.8,319.7,153,322.6z M82.4,325.9c1.7-1.8,3.4-3.8,4.9-6
	c1.5-2.2,3-4.4,4.3-6.6c1.3-2.2,2.4-4.3,3.4-6.3c0.9-2,1.6-3.8,2.1-5.3c0.5-1.5,0.6-2.7,0.6-3.5c-0.1-0.8-0.5-1.2-1.2-1
	c-2.6,0.5-5.1,3.1-7.4,7.6C86.7,309.3,84.5,316.4,82.4,325.9z M389.2,346c0.3,0.4,0.3,0.8,0.2,1.3c-0.8,1.8-1.5,3.5-2.1,5.2
	c-0.6,1.7-1.4,3.3-2.4,4.9c-0.9,1.6-2,3.2-3.2,4.7c-1.2,1.5-2.6,2.9-4.3,4.2c-2.1,1.7-4.2,3-6.6,3.9c-2.3,0.9-4.5,1.5-6.7,1.6
	c-2.2,0.2-4.3-0.1-6.5-0.9c-2.2-0.8-4.3-2.3-6.2-4.5c-0.4-0.4-0.5-0.7-0.3-0.8c0.2-0.1,0.4-0.1,0.7-0.1c4,0.2,6.8-0.5,8.4-2.2
	c1.7-1.7,2.6-3.8,2.7-6.5c0.1-2.7-0.2-5.5-1.1-8.7c-0.9-3.1-1.8-6-2.8-8.7c-0.6,1.7-1.3,3.4-1.9,5.1c-0.6,1.7-1.1,3.3-1.6,4.8
	c-0.1,0.1-0.3,0.3-0.4,0.4c-0.6,1.6-1.2,3.2-2,5c-1.1,2.8-2.5,5.4-4.1,7.8s-3.4,4.5-5.3,6.2c-1.9,1.7-4,2.6-6.2,2.7
	c-1.4,0.1-2.7-0.2-3.9-0.6c-1.2-0.5-2.3-1.1-3.2-1.9c-0.9-0.8-1.7-1.6-2.4-2.6c-0.6-0.9-1.1-1.8-1.3-2.6c-1,2-2.1,3.7-3.4,5.1
	c-1.3,1.4-3,2.2-4.9,2.3c-2.2,0.1-4.2-0.6-6.1-1.8c-1.9-1.3-3.4-3.1-4.7-5.4c-0.6-1.1-1-2.4-1.4-3.7c-0.5,0.8-1,1.7-1.5,2.5
	c-1.6,2.4-3.3,4.5-5.2,6.2c-1.9,1.7-3.9,2.6-6.2,2.7c-3,0.1-5.7-0.7-8-2.5c-2.3-1.8-3.7-4.1-4.3-6.9c-0.4-1.1-0.4-2.5-0.1-4.2
	c0.3-1.7,0.6-3.5,1.1-5.5c0.4-2,0.8-4,1.3-6c0.5-2,0.8-3.9,1.1-5.6c0.2-1.7,0.3-3,0.1-4c-0.2-1-0.6-1.5-1.5-1.5
	c-1,0-2.1,0.6-3.4,1.9c-1.3,1.3-2.7,2.9-4.1,4.9c-1.4,2-2.7,4.1-3.9,6.4c-1.2,2.3-2.2,4.4-3.1,6.5c-0.6,2.2-1.3,4.3-1.8,6.4
	c-0.6,2-1.1,3.7-1.5,5.2c-0.5,2.1-0.9,3.4-1.1,4c-0.2,0.5-0.4,0.8-0.8,0.8c-1.5,0-2.7-0.4-3.9-1.2c-1.1-0.8-2.1-1.8-2.8-2.8
	c-0.8-1.1-1.3-2.2-1.6-3.2c-0.3-1.1-0.4-1.9-0.3-2.5c0.6-3.4,1.3-6.7,2.2-10.1c0.9-3.4,1.5-6.9,1.9-10.5c0.2-1.6,0.2-2.9,0-4
	c-0.1-1-0.6-1.5-1.5-1.5c-1,0-2.1,0.7-3.4,2c-1.3,1.3-2.6,3-4,5c-1.4,2-2.8,4.2-4.1,6.5c-1.3,2.3-2.4,4.5-3.3,6.5l-3,11.3
	c-0.3,1-0.5,1.9-0.6,2.5c-0.2,0.6-0.3,1.1-0.5,1.4c-0.2,0.3-0.3,0.5-0.4,0.6c-0.1,0.1-0.3,0.2-0.5,0.2c-1.4,0-2.6-0.4-3.7-1.2
	c-1.1-0.8-2-1.8-2.8-2.8c-0.8-1.1-1.4-2.2-1.6-3.2c-0.1-0.5-0.2-0.9-0.3-1.3c-1.6,2.3-3.4,4.2-5.3,5.8c-2,1.7-4.1,2.6-6.2,2.7
	c-3.1,0.2-5.7-0.3-7.9-1.4c-2.2-1.2-4-2.6-5.3-4.3c-1.4-1.7-2.3-3.5-2.8-5.3c-0.2-0.6-0.3-1.1-0.4-1.7c-0.8,1.2-1.6,2.4-2.5,3.6
	c-1.2,1.5-2.6,2.9-4.3,4.2c-2.1,1.7-4.2,3-6.6,3.9c-2.3,0.9-4.5,1.5-6.7,1.6c-2.2,0.2-4.3-0.1-6.5-0.9c-2.2-0.8-4.3-2.3-6.2-4.5
	c-0.4-0.4-0.5-0.7-0.3-0.8c0.2-0.1,0.4-0.1,0.7-0.1c3.9,0.2,6.8-0.5,8.4-2.2c1.7-1.7,2.6-3.8,2.7-6.5c0.1-2.7-0.2-5.5-1.1-8.7
	c-0.9-3.1-1.8-6-2.8-8.7c-0.6,1.7-1.3,3.4-1.9,5.1c-0.6,1.7-1.1,3.3-1.6,4.8c-0.4,0.4-0.8,0.6-1.2,0.6c-0.4,0-0.8-0.1-1.3-0.4
	c-0.5-0.3-0.8-0.7-1.1-1.2c-0.2-0.5-0.3-1,0-1.5c0.9-2.2,1.8-4.6,2.6-7.2c0.8-2.6,1.7-5,2.6-7.3c-0.2-1.9-0.2-3.9,0-6.2
	c0.2-2.2,0.6-4.3,1.2-6.3c0.6-2,1.4-3.7,2.5-5.1c1-1.4,2.2-2.3,3.7-2.6c0.7-0.2,1.7,0.1,3.1,0.6c1.4,0.6,2.7,1.3,4.1,2.2
	c1.3,0.8,2.5,1.7,3.5,2.6c1,0.9,1.4,1.6,1.3,2.1c-2.8,1.9-5.1,4-6.9,6.3c-1.9,2.3-3.2,5.2-3.9,8.8c-0.2,1.3,0.2,2.9,1,4.8
	c0.8,1.9,1.8,4,3,6.3c1.2,2.3,2.4,4.7,3.6,7.1c1.2,2.4,2.1,4.7,2.7,6.9c2.1-1.6,3.8-3.6,5.2-6c1.3-2.1,2.6-4.8,3.8-8
	c0.5-2.8,1.1-5.8,1.8-9.1c0.9-4.2,1.8-8.7,2.8-13.3c1-4.7,1.8-9,2.6-13c-1.9,0.4-3.8,0.7-5.6,1c-1.9,0.3-3.7,0.6-5.5,1.1
	c-0.7,0.2-1.3,0.3-1.7,0.2c-0.4-0.1-0.6-0.4-0.4-0.7c0.1-0.4,0.6-0.9,1.4-1.5c0.8-0.6,2.1-1.3,3.8-2.2c1.5-0.7,2.9-1.3,4.4-1.9
	c1.5-0.6,3-1.1,4.7-1.7c0.3-2.5,0.6-4.5,0.7-6.2c0.1-1.6,0-2.7-0.3-3.2c-0.5-0.8-0.3-1.1,0.8-1.1c1.1,0,2.4,0.4,4,1
	c1.6,0.6,3.1,1.5,4.7,2.6c1.6,1.1,2.7,2.4,3.2,3.9c2.2-0.4,4.5-0.6,7.1-0.8c2.6-0.1,5.4-0.3,8.5-0.4c1.1,0,2.6,0,4.3,0.1
	c1.7,0.1,3.5,0.3,5.4,0.6c1.9,0.4,3.7,0.8,5.6,1.4c1.8,0.6,3.5,1.4,4.9,2.4c1.4,1,2.4,2,3.2,3c0.8,1,1.4,1.8,1.7,2.6
	c0.3,0.7,0.4,1.3,0.3,1.7c-0.1,0.4-0.4,0.4-1,0.1c-2.2-1.1-4.8-2-7.8-2.8c-3-0.8-6-1.3-9-1.7c-3-0.4-5.9-0.6-8.5-0.7
	c-2.6-0.1-4.7,0-6.2,0.2c-0.6,0.2-1.7,0.3-3.3,0.4c-1.6,0.1-3.5,0.3-5.6,0.5c-0.3,2.1-0.7,4.7-1.3,7.8c-0.6,3.1-1.3,6.4-2,9.8
	c-0.7,3.5-1.4,7-2.2,10.6c-0.8,3.6-1.4,6.9-2.1,10c-0.6,3.1-1.2,5.8-1.7,8.1c-0.5,2.3-0.9,3.8-1.1,4.7c-0.3,1.4-0.3,2.4,0,3.2
	c0.2,0.8,0.6,1.4,1.2,1.8c0.5,0.4,1.2,0.6,2.1,0.7c0.9,0.1,1.6,0,2.4-0.1c1-0.2,2.1-1,3.4-2.3c1.3-1.3,2.7-2.9,4.1-4.9
	c1.4-2,2.7-4.1,4.1-6.4c1-1.6,1.8-3.2,2.6-4.8c0.2-1.1,0.5-2.2,0.7-3.3c0.6-3.2,1.1-6.3,1.5-9c0.4-2.8,0.4-4.9,0-6.3
	c-0.1-0.6,0.1-0.9,0.7-0.9c0.6,0,1.4,0.1,2.3,0.4c0.9,0.3,2,0.8,3.2,1.4c1.2,0.6,2.4,1.3,3.4,2.1c1.1,0.8,1.9,1.6,2.5,2.5
	c0.6,0.9,0.9,1.7,0.9,2.6c-0.1,0.3-0.2,0.9-0.3,1.7c-0.1,0.8-0.3,1.7-0.6,2.6c1.8-3.5,4-6.4,6.4-8.8c2.4-2.3,5.4-3.4,8.9-3.1
	c4.1,0.4,7,2.5,8.6,6.2c0.4,0.9,0.7,2,0.7,3.3c0.1,1.3,0,2.8-0.2,4.4c1-2.1,2.1-4,3.2-5.7c1.1-1.8,2.3-3.3,3.6-4.5
	c1.3-1.3,2.8-2.3,4.3-3c1.6-0.7,3.3-1,5.3-0.8c4.1,0.4,7,2.5,8.7,6.2c0.6,1.6,0.9,3.6,0.7,6c-0.2,2.4-0.6,4.9-1.3,7.4
	c-0.6,2.5-1.4,5-2.2,7.3c-0.8,2.3-1.3,4.2-1.5,5.7c-0.2,1.4-0.2,2.4,0.2,3c0.3,0.6,0.8,1.1,1.3,1.2c0.5,0.2,1.2,0,1.9-0.4
	c0.7-0.4,1.4-1,1.9-1.7c0.6-0.9,1.5-2.1,2.5-3.7c1-1.5,2.1-3.1,3.2-4.8c1.1-1.5,2-3.1,2.9-4.7c0.3-2,0.7-4,1.4-6.2
	c0.6-2.1,1.4-4.1,2.4-6c1-1.9,2.2-3.5,3.7-4.9c1.5-1.4,3.2-2.5,5.1-3.3c1.9-0.8,4.1-1.1,6.6-0.9c2.2,0.2,4,1.1,5.4,2.8
	c-0.1-1.2-0.3-2-0.5-2.5c-0.4-0.6-0.4-0.9,0.1-1c0.5-0.1,1.2,0,2.3,0.2c1,0.2,2.2,0.6,3.4,1.1c1.3,0.6,2.4,1.2,3.5,1.9
	c1.1,0.7,2,1.6,2.7,2.6c0.7,1,1.1,1.9,1.1,2.9c-0.1,0.5-0.3,1.6-0.9,3.2c-0.5,1.6-1.1,3.4-1.8,5.6c-0.7,2.1-1.3,4.3-2,6.6
	c-0.6,2.3-1.1,4.4-1.5,6.4c-0.4,2-0.5,3.6-0.4,5c0.1,1.4,0.5,2.1,1.5,2.2c0.9,0.2,2-0.4,3.2-1.7c1.2-1.4,2.5-3.1,3.9-5.3
	c1.3-2.1,2.7-4.5,4-7c1.4-2.5,2.5-4.8,3.6-6.9c0.1-0.3,0.3-0.5,0.4-0.7c0.6-1.5,1.2-3.2,1.7-4.9c0.8-2.6,1.7-5,2.6-7.3
	c-0.2-1.9-0.2-3.9,0-6.2c0.2-2.2,0.6-4.3,1.2-6.3c0.6-2,1.4-3.7,2.5-5.1c1-1.4,2.2-2.3,3.7-2.6c0.7-0.2,1.7,0.1,3.1,0.6
	c1.4,0.6,2.7,1.3,4.1,2.2c1.3,0.8,2.5,1.7,3.5,2.6c1,0.9,1.4,1.6,1.3,2.1c-2.8,1.9-5.1,4-6.9,6.3c-1.9,2.3-3.2,5.2-3.9,8.8
	c-0.2,1.3,0.2,2.9,1,4.8c0.8,1.9,1.8,4,3,6.3c1.2,2.3,2.4,4.7,3.6,7.1c1.2,2.4,2.1,4.7,2.7,6.9c2.1-1.6,3.8-3.6,5.2-6
	c1.4-2.4,2.9-5.5,4.3-9.3c0.3-0.3,0.7-0.4,1.3-0.4c0.5,0,1,0.2,1.4,0.5C388.6,345.3,389,345.6,389.2,346z M329.6,337.3
	c0-0.8,0-1.5-0.2-2.2c-0.1-0.6-0.4-1.2-0.7-1.6c-0.4-0.4-0.9-0.6-1.7-0.6c-0.9,0-1.8,0.4-2.7,1.3c-0.9,0.8-1.9,1.9-3,3.3
	c-1,1.4-2,2.9-3,4.7c-0.9,1.8-1.7,3.5-2.4,5.3c-0.8,2.2-1.4,4.5-1.7,6.8c-0.3,2.3-0.3,4.4-0.1,6.2c0.2,1.9,0.6,3.4,1.1,4.5
	c0.5,1.1,1.2,1.7,2,1.6c1.1-0.1,2.1-0.6,3-1.5c0.8-0.9,1.6-2.2,2.4-3.7c0.8-1.5,1.5-3.2,2.2-5.1c0.7-1.9,1.5-3.9,2.3-6
	c0.4-1.8,0.8-3.7,1.2-5.6c0.4-1.9,0.8-3.6,1.1-5.3C329.6,338.8,329.6,338.1,329.6,337.3z M333.8,162.1c3.2,1.3,5.6,1.5,7.2,0.6
	c1.6-1,2.8-2.7,3.7-5.1c1.5-4.1,3.8-7.4,7.1-9.9c-0.1-0.8-0.8-1.7-2.2-2.7c-1.4-1-3-1.9-4.8-2.7c-1.8-0.8-3.6-1.4-5.3-1.8
	s-2.9-0.4-3.5,0.1c-1,0.5-1.8,1.4-2.4,2.9c-0.6,1.4-1.1,3-1.5,4.7c-0.4,1.7-0.6,3.4-0.8,5.2c-0.2,1.7-0.3,3.2-0.3,4.4
	c-0.1,1.1,0,2,0.3,2.5C331.7,160.9,332.5,161.5,333.8,162.1z M401.5,188.7c-0.5,1.1-1.1,2.6-1.9,4.5c-0.8,1.9-1.7,3.9-2.8,6
	c-1.1,2.1-2.4,4.3-3.9,6.5c-1.5,2.2-3.2,4.1-5.1,5.9c-1.9,1.7-3.9,3.2-6.1,4.3c-2.2,1.1-4.6,1.7-7.1,1.8c-4.2,0.1-7.8-0.6-10.7-2.1
	c-2.9-1.5-5.2-3.4-6.8-5.9c-1.6-2.5-2.8-5.3-3.6-8.5c0-0.1,0-0.3-0.1-0.4c-1,2.1-2.1,4.1-3.3,6c-1.3,2-2.7,3.8-4.2,5.4
	c-1.5,1.5-3.1,2.8-4.8,3.8c-1.7,1-3.4,1.6-5.2,1.7c-2.4,0.1-4.4-0.3-6.1-1.2c-1.7-0.9-3.1-2.1-4.3-3.5c-1.2-1.4-2.1-2.8-2.7-4.3
	c-0.6-1.4-0.9-2.6-1-3.6c0,0,0,0,0-0.1c-0.9,1.2-1.7,2.3-2.7,3.3c-2.4,2.7-5,5.1-7.8,7.2c-2.8,2.1-5.8,4.1-9,6l-1.5,5.3
	c-0.7,4.5-1.6,9.6-2.5,15.1c-0.9,5.5-2.1,11.1-3.5,16.7c-1.4,5.6-3.2,11-5.3,16.3c-2.1,5.3-4.8,9.9-7.9,13.9c-3.1,4-6.8,7.1-11,9.4
	c-4.2,2.3-9.3,3.3-15.1,3.1c-3.3-0.1-6.5-0.9-9.6-2.2c-3-1.3-5.8-3.1-8.2-5.3c-2.4-2.2-4.5-4.8-6.3-7.7c-1.8-2.9-3.2-6-4.4-9.3
	c-1.7-5.5-2-10.4-0.9-14.9c1.1-4.4,3.2-8.4,6.2-12c3-3.5,6.8-6.7,11.4-9.6c4.6-2.8,9.4-5.4,14.5-7.8c5-2.3,10.2-4.5,15.4-6.5
	c5.2-2,10-3.9,14.4-5.8l1.2-7.7c-1.1,1.4-2.2,2.5-3.4,3.3c-1.2,0.8-2.7,1.3-4.4,1.4c-2.7,0.1-5.3-0.7-7.7-2.3
	c-2.4-1.6-4.2-3.8-5.6-6.7c-0.8-1.7-1.4-3.7-1.8-5.8c-0.8,1.4-1.6,2.9-2.5,4.2c-2,3-4.2,5.6-6.6,7.6c-2.4,2.1-4.9,3.2-7.7,3.3
	c-1.7,0.1-3.4-0.2-4.9-0.8s-2.8-1.4-4-2.3c-1.2-0.9-2.1-2-2.9-3.2c-0.8-1.2-1.3-2.3-1.7-3.3c-1.2,2.5-2.6,4.6-4.3,6.3
	c-1.6,1.7-3.7,2.7-6.1,2.8c-2.7,0.1-5.2-0.7-7.5-2.3c-2.3-1.6-4.3-3.8-5.8-6.7c-0.7-1.4-1.3-2.9-1.7-4.6c-0.6,1-1.2,2.1-1.8,3
	c-1.9,3-4.1,5.6-6.4,7.6c-2.3,2.1-4.9,3.2-7.6,3.3c-3.7,0.1-7-0.9-9.9-3.1c-2.8-2.2-4.6-5-5.3-8.5c-0.5-1.3-0.5-3.1-0.2-5.2
	c0.4-2.1,0.8-4.4,1.3-6.8c0.5-2.4,1-4.9,1.6-7.4c0.6-2.5,1-4.8,1.3-6.9c0.3-2.1,0.4-3.7,0.2-5c-0.2-1.2-0.8-1.9-1.8-1.9
	c-1.2,0-2.6,0.8-4.2,2.4c-1.6,1.6-3.3,3.6-5.1,6.1c-1.8,2.4-3.4,5.1-4.9,7.9c-1.5,2.8-2.7,5.5-3.8,8c-0.8,2.7-1.6,5.4-2.3,7.9
	c-0.7,2.5-1.3,4.6-1.9,6.4c-0.7,2.6-1.1,4.2-1.3,4.9c-0.2,0.7-0.5,1-1,1c-1.8,0-3.4-0.5-4.8-1.5c-1.4-1-2.5-2.2-3.5-3.5
	c-1-1.3-1.6-2.7-2-4c-0.4-1.3-0.5-2.4-0.4-3.1c0.7-4.1,1.6-8.3,2.7-12.5c1.1-4.2,1.9-8.5,2.4-12.9c0.2-2,0.2-3.6,0.1-4.9
	c-0.2-1.3-0.8-1.9-1.9-1.9c-1.2,0-2.6,0.8-4.2,2.5c-1.6,1.6-3.2,3.7-5,6.2c-1.7,2.5-3.4,5.2-5.1,8c-1.6,2.8-3,5.5-4.1,8l-3.7,13.9
	c-0.3,1.3-0.6,2.3-0.8,3.1c-0.2,0.8-0.4,1.4-0.6,1.8c-0.2,0.4-0.4,0.6-0.6,0.8c-0.2,0.1-0.4,0.2-0.7,0.2c-1.7,0-3.2-0.5-4.5-1.5
	c-1.3-1-2.5-2.2-3.5-3.5c-1-1.3-1.7-2.7-2-4c-0.3-1.3-0.5-2.4-0.4-3.1c0.5-2.6,1.2-5.9,2.1-9.8c0.9-3.9,1.8-7.9,2.6-11.9
	c0.8-4,1.4-7.7,1.9-11.2c0.5-3.4,0.5-6,0-7.8c-0.1-0.7,0.2-1.1,0.9-1.2c0.7,0,1.7,0.1,2.8,0.5c1.1,0.4,2.5,0.9,4,1.7
	c1.5,0.8,2.9,1.6,4.2,2.6c1.3,1,2.3,2,3.1,3.1c0.8,1.1,1.2,2.1,1.2,3.2c-0.1,0.4-0.3,1.1-0.4,2.1c-0.1,1-0.4,2.1-0.8,3.3
	c2.3-4.3,4.9-8,7.9-10.8c3-2.9,6.7-4.1,11-3.8c5.1,0.5,8.6,3,10.6,7.7c0.5,1.1,0.8,2.5,0.9,4.1c0.1,1.6,0,3.4-0.2,5.4
	c1.3-2.5,2.6-4.9,3.9-7.1c1.3-2.2,2.8-4,4.5-5.6c1.6-1.6,3.4-2.8,5.4-3.7c1.9-0.9,4.1-1.2,6.5-1c5,0.5,8.6,3,10.7,7.7
	c0.8,2,1.1,4.5,0.9,7.5c-0.2,3-0.8,6-1.6,9.2c-0.8,3.1-1.7,6.2-2.7,9c-1,2.9-1.6,5.2-1.9,7c-0.3,1.7-0.2,2.9,0.2,3.7
	c0.4,0.8,0.9,1.3,1.6,1.5c0.7,0.2,1.4,0,2.3-0.5c0.9-0.5,1.7-1.2,2.4-2.2c0.8-1.1,1.8-2.6,3.1-4.5c1.2-1.9,2.6-3.8,4-5.9
	c1.3-1.9,2.5-3.8,3.6-5.8c0.3-2.4,0.9-5,1.8-7.7c0.7-2.6,1.7-5.1,3-7.4c1.2-2.3,2.8-4.4,4.6-6.1c1.8-1.7,3.9-3.1,6.3-4.1
	c2.4-1,5.1-1.4,8.2-1.2c2.7,0.2,4.9,1.4,6.6,3.5c-0.1-1.5-0.3-2.5-0.6-3.1c-0.5-0.7-0.5-1.2,0.1-1.3c0.6-0.1,1.5,0,2.8,0.2
	c1.3,0.2,2.7,0.7,4.3,1.4c1.6,0.7,3,1.5,4.4,2.4c1.3,0.9,2.4,2,3.3,3.2c0.9,1.2,1.3,2.4,1.3,3.6c-0.1,0.7-0.4,2-1.1,4
	c-0.6,2-1.4,4.3-2.2,6.9c-0.8,2.6-1.7,5.3-2.5,8.2c-0.8,2.8-1.4,5.5-1.9,7.9c-0.4,2.4-0.6,4.5-0.6,6.2c0.1,1.7,0.7,2.6,1.8,2.7
	c1.1,0.3,2.5-0.5,4-2.2c1.5-1.7,3.1-3.9,4.8-6.5c1.6-2.6,3.3-5.5,5-8.6c1.1-2,2-3.8,2.9-5.6c0.3-1.3,0.6-2.7,1.1-4.1
	c0.8-2.6,1.8-5.1,3-7.4c1.2-2.3,2.7-4.4,4.6-6.1c1.9-1.7,4-3.1,6.3-4.1c2.3-1,5-1.4,8.1-1.2c2.5,0.1,4.5,1.1,6.2,3l-0.6-2.6
	c-0.5-0.9,0.2-1.3,1.9-1.2c1.7,0.2,3.7,0.8,6,1.8c2.3,1,4.3,2.3,6.2,3.8c1.8,1.5,2.5,3.2,2.1,5.1c-0.5,2.7-1.1,5.7-1.6,8.8
	c-0.5,3.1-1.1,6.3-1.8,9.6c-0.6,3.2-1.3,6.5-1.9,9.7c-0.6,3.2-1.2,6.3-1.9,9.2c2.5-1.7,4.8-3.4,6.8-5.3c2-1.9,3.8-3.9,5.6-6.1
	c1.8-2.2,3.4-4.7,4.9-7.4c0.7-1.2,1.3-2.5,2-3.8c0.5-2.4,1-4.7,1.5-7.1c0.9-3.9,1.5-7.4,1.8-10.6c0.3-3.2,0.1-5.4-0.7-6.6
	c-0.7-1.1-0.2-1.5,1.3-1.4c1.5,0.1,3.3,0.7,5.4,1.6c2.1,0.9,4.1,2.2,6,3.9c1.9,1.7,3,3.5,3.2,5.5c0.1,0.7-0.2,2.1-0.7,4
	c-0.5,1.9-1.1,4.1-1.7,6.6c-0.6,2.5-1.3,5.1-2.1,7.8c-0.7,2.7-1.3,5.3-1.7,7.6c-0.4,2.3-0.6,4.2-0.6,5.8c0,1.5,0.5,2.4,1.4,2.6
	c1.2,0.3,2.6-0.4,4.1-2c1.5-1.6,3.1-3.6,4.6-6c1.5-2.4,3-5.1,4.5-8.1c1.2-2.4,2.4-4.6,3.5-6.8c0.4-1.9,0.9-3.7,1.5-5.6
	c1.1-3.3,2.6-6.2,4.5-8.8c1.8-2.6,4.1-4.7,6.8-6.3c2.7-1.6,5.5-2.4,8.6-2.5c3.3-0.1,6,0.7,8.1,2.3c2.1,1.6,3.8,3.5,4.9,5.8
	c1.1,2.3,1.7,4.7,1.6,7.2c-0.1,2.5-0.7,4.6-1.8,6.4c-0.7,1-1.7,1.8-3,2.3c-1.2,0.5-2.4,0.9-3.6,1c-1.1,0.1-2.1,0-2.9-0.3
	c-0.8-0.3-1.1-0.8-0.9-1.6c2.2-2.7,3.6-5.4,4.3-8.3c0.6-2.8,0.7-5.2,0.3-7c-0.4-1.8-1.3-2.8-2.6-3.1c-1.3-0.3-2.9,0.8-4.7,3.2
	c-1.3,1.7-2.6,4-3.7,6.7c-1.1,2.7-2.1,5.6-3,8.7c-0.8,3-1.4,6.1-1.8,9.1c-0.4,3-0.4,5.8,0,8.2c0.4,2.4,1.3,4.3,2.6,5.8
	c1.3,1.5,3.2,2.1,5.6,1.9c2.7-0.1,5.2-1.1,7.4-3c2.2-1.8,4.1-4,5.9-6.6c1.8-2.6,3.4-5.3,4.8-8.2c1.4-2.9,2.7-5.6,3.9-8
	c0.3-0.5,0.7-0.8,1.4-0.8c0.6,0,1.2,0.2,1.8,0.5c0.5,0.3,1,0.7,1.4,1.2C401.4,187.7,401.6,188.2,401.5,188.7z M239.9,175.4
	c0-1,0-1.9-0.2-2.7c-0.2-0.8-0.5-1.5-0.9-2c-0.4-0.5-1.1-0.8-2.1-0.8c-1.1,0-2.2,0.5-3.4,1.6c-1.2,1-2.4,2.4-3.7,4.1
	c-1.3,1.7-2.5,3.6-3.7,5.8c-1.2,2.2-2.2,4.4-3,6.6c-1,2.7-1.7,5.5-2.1,8.4c-0.4,2.8-0.4,5.4-0.2,7.7c0.3,2.3,0.7,4.2,1.4,5.6
	c0.7,1.4,1.5,2.1,2.5,2c1.4-0.1,2.6-0.7,3.7-1.9c1-1.2,2-2.7,3-4.6c1-1.9,1.9-4,2.8-6.3c0.9-2.3,1.8-4.8,2.8-7.4
	c0.5-2.3,1-4.6,1.5-6.9c0.5-2.3,1-4.5,1.4-6.6C239.8,177.3,239.8,176.4,239.9,175.4z M287.3,228.4c-3.3,1.5-6.9,3.1-10.9,4.8
	c-4,1.7-8.1,3.6-12.2,5.7c-4.2,2-8.3,4.3-12.3,6.7c-4,2.4-7.6,5.1-10.7,8.1c-3.1,2.9-5.5,6.2-7.2,9.6c-1.7,3.5-2.5,7.3-2.3,11.3
	c0.1,2.3,0.8,4.7,2.1,7.2c1.3,2.5,2.9,4.8,4.9,7c2,2.1,4.3,3.9,6.9,5.4c2.6,1.5,5.1,2.3,7.7,2.6c4.6,0.5,8.7-1.1,12.3-4.7
	c3.6-3.6,6.7-8.6,9.3-14.9s5-13.7,7-22.2C283.7,246.6,285.6,237.7,287.3,228.4z M295.8,175.4c0-1-0.1-1.9-0.2-2.7
	c-0.1-0.8-0.5-1.5-1-2c-0.5-0.5-1.2-0.8-2.2-0.8c-0.9,0-2,0.5-3.2,1.6c-1.2,1-2.4,2.4-3.7,4.1c-1.3,1.7-2.5,3.6-3.7,5.8
	c-1.2,2.2-2.2,4.4-3,6.6c-1,2.7-1.7,5.5-2,8.4c-0.3,2.8-0.4,5.4-0.2,7.7c0.2,2.3,0.7,4.2,1.4,5.6c0.7,1.4,1.5,2.1,2.5,2
	c1.3-0.1,2.5-0.7,3.6-1.9c1.1-1.2,2.1-2.7,3-4.6c0.9-1.9,1.9-4,2.8-6.3c0.9-2.3,1.9-4.8,2.9-7.4c0.4-2.3,0.8-4.6,1.3-6.9
	c0.5-2.3,0.9-4.5,1.4-6.6C295.7,177.3,295.8,176.4,295.8,175.4z"/>
<path fill="#E52028" d="M140.8,91.4c-2.2,5.6-4.8,11.2-7.6,16.9c-2.8,5.7-5.7,11.4-8.5,17.1c-2.8,5.7-5.1,11.3-6.8,16.9
	c-1.7,5.6-2.5,11-2.4,16.3c0.1,5.3,1.7,10.3,4.7,15c-0.6,0.4-1.5,0.4-2.6,0c-1.1-0.4-2.3-1.2-3.7-2.3c-1.4-1.1-2.8-2.5-4.2-4.2
	c-1.4-1.7-2.7-3.5-3.8-5.5c-1.7-3.1-2.6-6.5-2.7-10.3c-0.1-3.7,0.3-7.7,1.2-11.8c0.9-4.1,2.1-8.3,3.8-12.7c1.7-4.4,3.5-8.7,5.5-13.1
	c2-4.4,4-8.7,6-13c2-4.3,3.8-8.3,5.3-12.3c1.6-3.9,2.7-7.6,3.6-11c0.8-3.5,1.1-6.6,0.9-9.4c-0.1-0.3-0.3-0.9-0.5-1.6
	c-0.2-0.7-0.4-1.6-0.6-2.5c-0.2-0.9-0.4-1.9-0.7-2.9c-0.3-1-0.5-1.8-0.7-2.5c-6.4-0.6-12.5-0.8-18.3-0.8c-5.8,0-11.1,0.9-15.9,2.5
	c-5.9,1.9-10.5,4.7-13.6,8.5c-3.1,3.8-5.1,8.2-6,13.3c-0.8,5.1-0.6,10.7,0.7,16.7c1.3,6,3.5,12.1,6.5,18.4c0.2,0.5,0.4,1,0.7,1.4
	c0.3,0.4,0.4,0.8,0.4,1c0,0.3-0.1,0.4-0.4,0.4s-0.8-0.2-1.6-0.7c-1.8-0.8-3.8-1.8-5.9-3c-2.1-1.1-4.2-2.5-6.2-4
	c-2-1.5-3.9-3.3-5.5-5.2c-1.6-2-2.8-4.2-3.6-6.7c-2-6.6-2.3-12.5-0.9-17.8c1.4-5.3,3.9-9.9,7.4-14c3.5-4,7.7-7.3,12.6-10
	c4.9-2.7,10.1-4.7,15.5-6.1c3.9-1,7.9-1.7,12.1-2.1c4.2-0.4,7.7-0.5,10.5-0.5c7.5-0.1,15.4,0.1,23.8,0.8c8.4,0.6,16.6,1.3,24.6,1.9
	c8,0.6,15.6,1,22.7,1.3c7.1,0.2,13-0.1,17.7-1c2.3-0.5,4.6-1.2,6.8-1.9c2.2-0.8,4.2-1.8,5.9-3.1c1.7-1.3,3-2.8,3.8-4.5
	c0.8-1.7,1-3.8,0.5-6.3c0.3-0.6,0.7-0.8,1.2-0.6c0.5,0.2,1.1,0.6,1.6,1.3c0.5,0.6,1.1,1.4,1.6,2.3c0.5,0.9,0.9,1.6,1.1,2.2
	c1.6,4.2,1.9,7.8,1,10.7c-0.9,2.9-2.6,5.4-5,7.3c-2.5,1.9-5.6,3.4-9.3,4.3c-3.7,1-7.7,1.6-11.9,1.9c-5,0.3-10.4,0.2-16.2-0.2
	c-5.8-0.5-11.7-1.1-17.8-2c-6.1-0.8-12.4-1.7-18.7-2.7c-6.3-1-12.5-1.8-18.7-2.6c1.6,1,3.2,2.2,4.8,3.6c1.7,1.4,3.2,2.8,4.6,4.4
	c1.4,1.5,2.5,3,3.4,4.5c0.9,1.5,1.3,2.9,1.3,4.2C144.3,80.5,143,85.8,140.8,91.4z M248.3,137.7c-0.4,1-1,2.4-1.7,4.1
	c-0.7,1.7-1.6,3.6-2.7,5.7c-1,2.1-2.3,4.2-3.7,6.3c-1.5,2.1-3.1,4.1-4.8,5.9c-1.8,1.8-3.7,3.2-5.9,4.4c-2.2,1.1-4.5,1.7-6.9,1.7
	c-3.7,0.1-6.9-0.5-9.6-1.8c-2.6-1.3-4.8-3-6.3-5.2c-1.6-2.2-2.7-4.7-3.4-7.6c-0.1-0.5-0.2-1-0.3-1.5c-1,1.9-2,3.7-3.2,5.4
	c-2,2.9-4.1,5.4-6.3,7.4c-2.3,2-4.7,3.1-7.4,3.2c-3.6,0.1-6.8-0.9-9.5-3c-2.7-2.1-4.4-4.9-5.1-8.2c-0.4-1.3-0.4-3,0-5
	c0.4-2,0.8-4.2,1.3-6.6c0.5-2.4,1-4.7,1.6-7.2c0.5-2.4,0.9-4.6,1.2-6.6c0.3-2,0.3-3.6,0.1-4.8c-0.2-1.2-0.7-1.8-1.6-1.8
	c-1.2,0-2.6,0.8-4.2,2.5c-1.6,1.7-3.2,3.7-4.8,6.2c-1.6,2.5-3.1,5.1-4.6,7.9c-1.5,2.8-2.7,5.4-3.7,7.8l-0.1,0.1l-2.3,13.1
	c-0.1,1.4-0.3,2.4-0.4,3.2c-0.1,0.8-0.2,1.4-0.3,1.8c-0.1,0.4-0.2,0.7-0.4,0.8c-0.2,0.1-0.5,0.2-0.9,0.2c-1.6,0-3-0.5-4.5-1.5
	c-1.4-1-2.6-2.2-3.6-3.6c-1-1.4-1.7-2.8-2.3-4.1c-0.6-1.4-0.8-2.4-0.8-3.2c0.5-3.8,1.2-8.4,2-13.7c0.8-5.3,1.9-10.9,3.1-16.8
	c1.3-5.9,2.8-11.8,4.6-17.6c1.8-5.9,3.8-11.3,6.1-16.3c2.2-5,4.7-9.2,7.5-12.7c2.8-3.5,5.9-5.8,9.4-6.9c1.2-0.3,2.6-0.2,4.2,0.3
	c1.6,0.5,3.2,1.4,4.7,2.5c1.5,1.1,2.7,2.5,3.7,4c1,1.5,1.4,3,1.2,4.5c-1,7.8-3.6,14.6-7.9,20.4c-4.3,5.8-9.9,11.3-16.8,16.6
	c-0.6,2.5-1.2,4.7-1.8,6.7c-0.5,2-1.1,4.2-1.6,6.7c1.2-2.3,2.5-4.5,3.8-6.6c1.3-2.1,2.7-3.9,4.3-5.4c1.6-1.5,3.3-2.7,5.1-3.5
	c1.8-0.8,3.9-1.1,6.2-0.9c4.8,0.5,8.3,2.9,10.4,7.5c0.8,2,1.1,4.4,0.8,7.2c-0.3,2.8-0.8,5.7-1.6,8.6c-0.8,2.9-1.6,5.8-2.6,8.5
	c-0.9,2.7-1.6,5-1.9,6.7c-0.2,1.6-0.1,2.8,0.2,3.6c0.3,0.8,0.8,1.2,1.4,1.4c0.6,0.1,1.4,0,2.3-0.4c0.9-0.4,1.7-1.1,2.3-2
	c0.9-1.1,2-2.5,3.1-4.3c1.2-1.8,2.4-3.6,3.7-5.6c1.3-2,2.6-4,3.8-6c0.8-1.4,1.6-2.7,2.2-3.9c0.2-1,0.4-1.9,0.7-2.9
	c0.8-3,1.9-5.7,3.3-8.2l0.1-0.1c2-3.5,4.3-6,6.8-7.6c2.6-1.6,5.1-2.4,7.7-2.6c2.6-0.1,5,0.4,7.2,1.7c2.2,1.3,4,3,5.4,5.3
	c1.3,1.8,2,3.7,2,5.8c0,2-0.2,4.1-0.8,6.1c-0.6,2-1.6,4-3,5.9c-1.4,1.9-3,3.5-4.9,4.9c-1.9,1.4-3.9,2.5-6.2,3.3
	c-2.2,0.8-4.6,1.2-7,1.2c-0.1,1.6,0,3,0.2,4.4c0.2,1.4,0.7,2.5,1.3,3.5c0.6,1,1.5,1.7,2.6,2.2c1.1,0.5,2.4,0.7,4,0.6
	c2.8-0.1,5.2-1,7.4-2.7c2.1-1.7,4-3.7,5.7-6.2c1.6-2.5,3.1-5.1,4.4-7.8c1.3-2.8,2.5-5.3,3.6-7.7c0.3-0.5,0.7-0.7,1.3-0.7
	c0.6,0.1,1.2,0.3,1.8,0.6c0.6,0.3,1.1,0.7,1.4,1.3C248.4,136.7,248.5,137.2,248.3,137.7z M215.7,143.5c3.2,0.1,6-0.6,8.2-2.1
	c2.2-1.5,3.9-3.3,5.1-5.5c1.2-2.2,1.9-4.4,2.1-6.7c0.3-2.3,0.1-4.3-0.5-5.9c-0.6-1.6-1.5-2.5-2.7-2.9c-1.2-0.3-2.8,0.5-4.8,2.3
	c-1.1,1-2,2.3-2.8,4.1c-0.8,1.7-1.5,3.6-2,5.5c-0.6,1.9-1.1,3.8-1.5,5.8C216.3,140.1,215.9,141.9,215.7,143.5z M164.9,111.2
	c2.1-2.1,4-4.5,5.9-7.1c1.8-2.6,3.5-5.2,5.1-7.8c1.6-2.6,2.9-5.1,4-7.5c1.1-2.4,2-4.5,2.5-6.3c0.5-1.8,0.8-3.2,0.7-4.2
	c-0.1-1-0.6-1.4-1.4-1.2c-3.1,0.6-6.1,3.7-8.9,9.1C170,91.5,167.3,99.8,164.9,111.2z M178.3,250.2c0.7,2.8,1.1,5.8,1.1,9.2
	c0,5.1-0.6,10-1.9,14.8c-1.3,4.8-3.2,8.9-5.6,12.5c-1.9,2.9-4.3,5.1-7,6.7c-2.8,1.6-5.7,2.4-8.9,2.4c-3.6,0-6.8-0.9-9.5-2.6
	c-2.7-1.8-4.8-4.3-6.1-7.4c-1.4-3.3-2.1-7.2-2.1-11.6c0-2.8,0.2-5.7,0.7-8.7c0.5-3,1.2-6.1,2.1-9.1c0.9-3,1.9-5.8,3.1-8.5
	c3.2-7,6.5-10.5,9.9-10.5c1.5,0,2.9,0.6,4,1.9c1.7-1.3,3.7-2,6-2c2.3,0,4.4,0.5,6.3,1.5c1.8,1,3.3,2.5,4.7,4.4
	C176.5,245.1,177.5,247.4,178.3,250.2z M167.7,258.3c0-3.3-0.5-5.8-1.4-7.5c-0.9-1.7-2.2-2.6-4-2.6c-1.1,0-2.2,0.4-3.2,1.1
	c-1,0.8-1.8,1.7-2.3,2.9l-0.8,1.7c-0.4,1-0.9,1.4-1.6,1.4c-0.3,0-0.6-0.1-0.8-0.2c-1.4,3.9-2.4,7.6-3.1,11c-0.7,3.5-1,6.7-1,9.7
	c0,3.1,0.5,5.4,1.5,7c1,1.7,2.4,2.5,4.2,2.5c1.6,0,3.1-0.7,4.6-2.2c1.6-1.5,2.9-3.5,4.1-6c1.2-2.7,2.1-5.6,2.7-8.7
	C167.3,264.9,167.7,261.6,167.7,258.3z M219,239.1c-1.6-1.1-4.3-1.6-8.1-1.6c-2.2,0-3.7,0-4.4,0.1l-1.5,0.1c0.3-2.4,1-4.4,2.3-5.9
	c1.2-1.5,2.5-2.3,4-2.3c0.4,0,0.9,0.1,1.5,0.3l1.2,0.5c0.3,0.1,0.8,0.2,1.3,0.2c1.6,0,3-0.6,4.2-1.9c1.1-1.3,1.7-2.7,1.7-4.3
	c0-1.8-0.7-3.3-2.2-4.4c-1.5-1.1-3.4-1.7-5.9-1.7c-2.8,0-5.5,0.7-8.1,2c-2.7,1.4-4.9,3.3-6.8,5.6c-1.4,1.7-2.5,3.5-3.2,5.4
	c-0.8,1.9-1.4,4.5-2,7.7l-1.3,0.3c-2.4,0.5-4.3,1.2-5.6,2c-1,0.6-1.7,1.4-2.2,2.4c-0.6,1.1-0.8,2.2-0.8,3.4c0,1.2,0.3,2.2,1,3
	c0.6,0.9,1.4,1.3,2.3,1.3c0.2,0,1.5-0.2,3.9-0.7c0.3,0,0.8-0.1,1.5-0.2c-0.6,5.1-1,9.8-1.2,14.1c-0.3,4.3-0.4,8.6-0.4,12.9
	c0,5.3,0.2,9.1,0.6,11.5c0.4,2.5,1,4.2,2.1,5.1c1,1,2.5,1.4,4.5,1.4c1.8,0,3.3-0.4,4.4-1.1c1.1-0.6,1.7-1.6,1.7-2.8
	c0-0.5-0.1-1-0.3-1.5l-0.7-1.7c-0.6-1.4-0.9-4.3-0.9-8.6c0,0.2,0-1.3,0.1-4.6c0.2-4.9,0.4-9.6,0.7-14c0.3-4.6,0.8-8.8,1.4-12.4
	c5.1-0.7,9.2-1,12.5-1c0.5,0,1.2,0,2.1,0.1c0.2,0,0.4,0,0.6,0.1c0.2,0,0.3,0.1,0.3,0.1c0.7,0,1.2-0.3,1.7-1c0.4-0.6,0.6-1.5,0.6-2.5
	C221.4,242,220.6,240.2,219,239.1z"/>
<path fill="#FCBE14" d="M117.5,281.4c-3-5.8-7.6-14.4-11.8-22.1c-3.9-7.2-7.8-14.6-7.7-14.7c0,0,2.2,0.2,4.8,0.5
	c5.7,0.8,6.9,0.8,9,0.3c1.3-0.3,1.7-0.4,2.2-0.8c2-1.4,2.9-3.7,2.9-7.4c0-1.2,0-1.4-0.7-3.7c-0.7-2.6-1.3-4-2.8-7.2
	c-4.9-10.2-9.2-15.7-13.2-16.8c-2-0.5-4.2,0.2-6,1.8c-1.3,1.2-3.1,4.3-5.6,9.7c-0.9,1.8-1.6,3.3-1.7,3.3c-0.2-0.2-1.3-2.4-1.4-3
	c-0.1-0.3-0.4-0.8-0.6-1.2c-0.4-0.6-3-5.4-5.8-10.8c-0.6-1.3-1.7-3.3-2.4-4.6c-2.2-4.3-3.7-7.2-4.9-9.6c-0.6-1.3-3.1-6.2-5.4-10.8
	c-6-11.9-7.3-14.9-8.7-20c-1.2-4.4-1.6-7.8-1.2-10.7c0.2-1.7,1.4-5.3,2.1-6.7c0.7-1.3,1.8-2.4,3.1-3.3c1.7-1.1,3-1.3,6-0.8
	c2.7,0.4,4.6,1,6.5,2c2,1.1,4.9,3.5,7.3,6c1.2,1.3,3.5,4.1,3.6,4.5c0.1,0.3,3.4,5,3.9,5.7c1.2,1.5,2.6,2.1,4.5,2.1
	c2,0,3.3-0.4,4.9-1.7c1.3-1,1.9-1.7,2.6-3.3c0.6-1.2,0.7-1.7,0.8-2.8c0.2-1.9,0-3.3-0.7-5.8c-0.7-2.5-1-3.2-2.8-6.2
	c-2.7-4.5-4.8-7.3-7.9-10.5c-2.4-2.3-7-6-10-7.8c-3.3-2-5-2.8-7.6-3.6c-1.3-0.4-2.9-0.8-3.6-0.9c-2.7-0.5-6.3-0.6-8.6-0.2
	c-1.6,0.3-4.8,1.2-6.2,2c-2.2,1-3.7,2.2-6.2,4.9c-3.8,4.1-5.1,6-7.5,11.4c-1.7,3.9-2.4,6.1-2.9,10.4c-0.4,3.3-0.3,6.3,0.3,10.6
	c0.3,1.7,2.2,8.9,3,10.8c1.1,2.9,3.7,8.3,6.7,13.9c1.9,3.5,4.3,8.3,8.1,15.9c1,2.1,2.1,4.3,2.5,4.9c0.3,0.7,0.8,1.6,1.1,2.1
	c0.7,1.4,2.8,5.3,4.1,7.7c0.6,1.1,1.7,3,2.3,4.3c2.1,3.8,5.8,11.1,5.8,11.2c0,0.1-2.2-0.3-4.8-0.7c-8.3-1.4-11-1.6-13.4-1.1
	c-2.8,0.6-4.5,2.3-4.7,4.8c-0.2,1.8-0.1,2.5,1.3,7.5c1.2,4.6,1.7,5.8,3.3,10.2c1.5,4,3.2,7.9,4.5,10.2c1.9,3.4,3.8,5.1,6.1,5.3
	c0.8,0.1,1.1,0,2.2-0.4c1.1-0.4,1.5-0.6,2.5-1.3c1.4-1,2.3-2,4-3.9c3-3.5,4.7-5.9,7.2-9.9c0.6-1,1.2-2,1.4-2.2l0.3-0.4l0.7,1.4
	c0.4,0.8,1.2,2.3,1.8,3.5c3.2,6.2,8.7,17.1,10.2,20.3c2.6,5.4,6.2,12.4,9.2,17.6c0.4,0.7,1.6,2.8,2.6,4.6c5.1,9,7.1,11.5,10.5,12.5
	c0.9,0.2,2.3,0.4,3.1,0.3c1.9-0.2,4.2-2.6,4.9-5c1.2-3.7,0.1-7.6-5.1-17.5C119,284.4,117.9,282.3,117.5,281.4z M91.9,150.1
	c0.7-0.8,1.8-2,2.5-2.8c0.7-0.8,1.3-1.5,1.3-1.5s0.3,0.4,0.6,0.9c0.3,0.5,0.6,1.1,0.6,1.2c0.6,1.1,1.3,3.9,1.4,5.5
	c0,0.7-0.1,1.1-0.5,2c-0.4,1-0.6,1.2-1.4,1.8c-1,0.8-1.8,1-3.1,1c-1,0-1.2-0.1-1.9-1.2c-0.3-0.4-0.9-1.4-1.4-2.1
	c-0.5-0.7-0.9-1.4-0.9-1.4C88.9,153.5,89.6,152.7,91.9,150.1z M78.3,141.7c0-0.5,0.2-1.4,2-7.8c0.5-1.8,0.9-3.4,0.9-3.5
	c0.1-0.3,6.5,4.8,6.6,5.2c0,0.1-0.1,0.4-0.2,0.6c-0.1,0.2-1,1.6-1.8,3c-0.9,1.5-1.9,3.4-2.4,4.5l-0.8,2l-1.1-1
	c-0.6-0.6-1.6-1.4-2.1-1.8C78.2,142.2,78.2,142.2,78.3,141.7z M64.3,124.6c2,0,5.8,0.4,5.9,0.6c0,0.1,0,1.3-0.1,2.8
	c-0.2,3.5-0.4,8.8-0.3,9.7l0.1,0.7l-0.5-0.1c-0.3-0.1-1.2-0.2-2-0.3l-1.4-0.2l-0.6-2.6c-0.7-3-2.1-8.4-2.4-9.7
	C62.5,124.6,62.4,124.7,64.3,124.6z M48.8,133.5c1.5-1.9,2.6-3,2.8-2.8c0.5,0.4,7.5,8.9,7.4,9c-0.1,0.1-0.3,0.3-0.6,0.5
	c-0.3,0.2-0.9,0.8-1.4,1.4l-0.9,1l-4.6-2.8c-2.5-1.5-4.7-2.8-4.7-2.8C46.3,137.1,47.3,135.3,48.8,133.5z M42.5,159.9l-0.2-1.1
	c-0.6-2.9-0.7-6.2-0.3-9.2c0.2-1.3,0.3-2.4,0.4-2.5c0-0.1,0.1-0.2,0.2-0.2c0.2,0,10,4.7,10.1,4.8c0,0,0,0.5,0,1
	c-0.1,0.5-0.1,1.4-0.1,2c0,1.5,0.4,5.2,0.7,6.8c0.2,0.8,0.2,1.3,0.2,1.4c-0.1,0.1-5.5-1.3-8.8-2.4L42.5,159.9z M57.8,185.7l-5.3-1.5
	l-2-3.8c-1.1-2.1-2.4-4.6-2.8-5.6c-0.5-1-0.9-1.9-0.9-2c0-0.1,1.5,0.3,4.6,1.2c3,0.9,5,1.4,5.5,1.4l0.8,0l0.3,0.7
	c0.2,0.4,1.5,3,2.9,5.9c1.4,2.8,2.5,5.2,2.6,5.2C63.6,187.4,63,187.2,57.8,185.7z M66.1,208.6l-1.5-0.5l-0.8-1.5
	c-0.4-0.8-1.6-3.1-2.5-5c-1-2-1.8-3.7-1.9-3.8c-0.1-0.1-0.1-0.2,0-0.2c0,0,2.1,0.6,4.6,1.4c2.5,0.8,4.9,1.5,5.4,1.5l0.9,0.1l0.7,1.3
	c0.4,0.7,1.7,3.3,2.9,5.7c1.2,2.4,2.3,4.3,2.2,4.4C76,212,69.1,209.7,66.1,208.6z M53.5,237.6c-0.6-2.7-0.6-3.5,0-4
	c1-0.7,3.2-0.9,6.3-0.6c2.3,0.3,12.5,2,12.5,2.1c0.1,0.2-2.7,1.3-6.2,2.4c-4,1.2-6.5,1.6-10.2,1.5C53.6,239,53.8,239.1,53.5,237.6z
	 M77.3,247.1c-3,4.9-5.4,8.2-8.4,11.4c-2.2,2.3-3.9,3.4-5,3c-1.1-0.3-2.2-2.1-4.1-6.3c-1.3-3-3.9-9.6-4.3-11.1
	c-0.1-0.4,0-0.4,1.3-0.4c1.6,0.1,4.2-0.1,6.3-0.5c3.7-0.7,10-2.9,12.6-4.4c0.4-0.2,0.8-0.4,0.8-0.4c0.1,0.1,2.6,4.7,2.7,5.1
	C79.2,243.8,78.8,244.6,77.3,247.1z M83.2,226.9c-1.8,0.1-3.6,1.1-5.2,3.2c-0.9,1.2-1,1.2-1.9-0.4c-0.3-0.6-1.5-2.9-2.7-5.2
	c-1.2-2.3-2.2-4.2-2.2-4.3c0-0.1,0.5,0,1.1,0.3c0.6,0.2,3,1,5.3,1.8c2.3,0.8,4.3,1.5,4.4,1.5c0.2,0.1,0.5,0.5,1,1.5
	c0.4,0.8,0.7,1.4,0.7,1.4S83.5,226.9,83.2,226.9z M105.9,222.3c0.3-0.4,0.5-0.8,0.5-0.8c0.2-0.1,3.5,6.5,4.7,9.1
	c0.5,1.2,0.9,2.2,1.3,3.7c0.5,1.9,0.6,2.1,0.5,3.1c-0.1,2.1-0.6,2.9-2,3.3c-0.5,0.1-1.4,0.2-2.1,0.2c-1.6,0-13.3-1.5-13.7-1.7
	c-0.4-0.3-2.1-3.4-2.4-4.3c-0.1-0.5-0.5-1.3-0.8-2c-0.3-0.6-0.5-1.1-0.5-1.2c0,0,0.8-0.3,1.9-0.7c2.5-1,3.9-1.6,6.2-2.9
	C103.1,225.9,104.6,224.6,105.9,222.3z M90.7,226.6c0-0.1,0.7-1.5,1.5-3.1c2.6-5.7,3.9-7.8,5.2-8.7c0.5-0.4,1.6-0.7,2.1-0.7
	c0.7,0,1.9,0.8,3.1,2.1c0.7,0.8,0.8,0.8,0.7,1.3c-0.1,0.6-0.8,2-1.4,2.8c-0.8,1-1.6,1.6-3.4,2.8c-2.2,1.4-3.7,2.2-5.9,3
	C90.9,226.8,90.5,226.8,90.7,226.6z M92.7,254.4c-4.1-1.2-4-1.2-4.3-1.7c-0.5-1-3-5.8-3.3-6.4c-0.4-0.8-0.3-0.8,0.6-0.7
	c0.9,0.1,2-0.1,2.8-0.6l0.8-0.4l1.9,0.5c1,0.3,2.1,0.6,2.4,0.6c0.6,0,0.4-0.2,3.2,5.2c0.9,1.8,2,3.9,2.3,4.5
	c0.3,0.7,0.6,1.2,0.5,1.2c-0.1,0-0.9-0.2-1.9-0.5C96.6,255.6,94.4,255,92.7,254.4z M102.1,278.2l-1.2-0.4l-1.1-2.2
	c-0.6-1.2-1.6-3.2-2.1-4.3c-1-2-2.5-5.2-2.8-5.7c-0.1-0.1-0.1-0.2,0-0.3c0.2,0,2.5,0.7,5.6,1.9c1.2,0.5,3.1,1.1,4,1.4
	c1.1,0.4,1.9,0.7,2,0.8c0.2,0.3,3.6,6.5,4.8,9c0.4,0.7,1,1.8,1.3,2.5c0.3,0.6,0.6,1.1,0.6,1.2c0,0-1.2-0.4-2.7-0.9
	C108.2,280.3,105.8,279.4,102.1,278.2z M120.9,301.8c-0.7,1.3-1.7,2-2.8,1.8c-1.6-0.2-2.4-0.8-3.7-2.4c-1.5-2-2.5-3.5-6.2-10.1
	c-0.6-1.1-1.1-1.9-1-1.9c0,0,0.7,0.2,1.4,0.4c2.3,0.8,3.3,1.1,6.9,2.2l3.4,1.1l0.5,1.2C121.4,298.5,121.7,300.3,120.9,301.8z
	 M371.9,254c-1.4-1.5-3.1-2.2-6.4-2.6c-0.6-0.1-2.3-0.3-3.8-0.4s-3.4-0.3-4.3-0.4c-1.3-0.1-2.1-0.2-4.5-0.2c-1.6,0-3,0-3,0
	c0,0,0.2-0.2,0.4-0.5c1.2-1.4,2-2.6,2.9-4.4c0.9-1.8,1.3-3,1.5-4.8c0.5-3.6-0.1-7.3-1.7-10.5c-0.4-0.8-1.4-2.3-2.2-3.3
	c-0.7-0.8-2.1-2.3-2.9-3c-0.9-0.7-1.8-1.3-2.7-1.8c-2.5-1.4-5.7-2-8.7-1.6c-4.6,0.5-7,1.7-10,4.7c-1.5,1.5-2.4,2.8-3.7,5
	c-1.6,2.9-2.2,4.9-2.5,8.6c-0.2,2.4,0.3,5.5,1.1,7.8c0.4,1.1,1.5,3.3,2.1,4.2c0.3,0.4,0.5,0.8,0.5,0.8s-2.5,0-5.6,0
	c-5.9,0-7.1,0-8.9,0.3c-1.6,0.3-2.5,0.6-3.6,1.4c-0.8,0.5-1.9,1.6-2.3,2.2c-0.6,0.9-1.1,2.4-1.2,3.8c-0.2,2,0.5,4.2,2,5.6
	c1.3,1.3,3.6,2.3,6.1,2.7c2.3,0.3,6.8,0.4,9.7,0.2c1.7-0.1,4.2-0.2,4.2-0.2c0,0.1-1.1,3.1-1.8,4.9c-0.8,2.2-1.7,4.5-3.1,8
	c-2.5,6.1-4.1,10.8-4.7,14c-0.4,1.8-0.6,4.4-0.4,5.7c0.3,2.1,1.2,3.8,2.8,5c1,0.7,2.2,1.2,3.2,1.2c0.6,0,1.7-0.2,2.4-0.5
	c2.1-0.8,3.8-2.2,7.6-6.4c2.7-3,3.7-4,5.2-5.6c0.9-1,2.7-2.9,3.8-4.2c0.9-1.1,0.9-1.1,1.1-0.9c0.1,0.1,0.5,0.4,0.9,0.7
	c1.3,1.1,2.4,2.1,4,3.6c1.5,1.5,5.4,5,7.9,7.2c0.8,0.7,1.5,1.3,1.7,1.5c0.5,0.5,1.7,1.4,2.2,1.7c0.7,0.5,2.1,1.2,2.8,1.4
	c1.6,0.5,2.9,0.4,4.6-0.4c1.8-0.9,2.8-2.2,3.4-4.6c0.2-0.7,0.2-0.9,0.2-1.8c0-3.5-2-6.6-3.7-9.6c-1.9-3.4-4.1-6.7-6.3-9.9
	c-0.9-1.4-2.3-3.3-3-4.4s-2.1-3-3-4.4c-0.9-1.3-1.7-2.5-1.6-2.5c0,0,0.9,0,2,0c3,0.1,8.1,0,10.2-0.2c2.3-0.3,4.2-0.9,6.5-2
	c3.7-1.9,5.2-4.4,4.5-7.5C373.6,256.3,372.8,255,371.9,254z M313.3,262.3c-0.5,1.3-1.5,2.5-2.9,2.5c-2.1,0-4.6-2.4-4.8-4.4
	c-0.1-0.6,0.1-1.7,0.5-2.6c0.2-0.5,0.3-0.6,0.7-1.1c0.6-0.6,1.4-1.2,2.1-1.4c1.2-0.4,2.5-0.8,3.5,0.1c0,0,0,0,0,0
	c0.7,0.6,1,1.4,1.2,2.3C314.1,259.2,313.9,260.8,313.3,262.3z M324.6,301.1c-1.4,1.3-2.5,1.9-3.6,2.1c-0.6,0.1-1,0.1-1.5-0.2
	c-0.9-0.5-1.6-1.4-1.9-2.6c-0.7-2.7-0.1-7.9,3.9-6.4C325.3,295.4,328.1,297.9,324.6,301.1z M365,296.6c0.2,0.8,0.2,2,0,2.8
	c-0.3,1.2-0.8,1.8-1.5,2.2c-0.4,0.3-1.2,0.5-1.5,0.5c-0.4,0-1.1-0.2-1.9-0.6c-2-1-3.6-2.1-3-4.6c0.4-1.4,1.4-2.5,2.6-3.1
	c1.6-0.8,2.7-0.8,3.6-0.1C364.1,294.2,364.6,295.2,365,296.6z M358.3,264.3c-2.5,0.1-4.2,0.1-7.9-0.1c-2.8-0.1-2.8-0.1-3.1,0.1
	c-0.6,0.3-1.1,1.1-0.9,1.8c0.1,0.6,0.7,1.7,2.2,3.8c0.8,1.2,2,3,2.8,4.1c0.8,1.1,2,3,2.8,4.2c4.1,6,7.9,11.7,7.9,11.9
	c0,0-0.1,0-0.2,0c-0.4,0-1.5,0.2-2.2,0.5c-1.4,0.5-2.6,1.2-3.7,2.4c-1,1.1-1.6,2-1.8,3.2c-0.1,0.3-0.1,0.6-0.1,0.6
	c0,0-4.8-4.3-6.4-5.8c-1.8-1.7-3.7-3.7-5.8-5.1c-2.1-1.4-3.1-0.1-4.5,1.6c-0.9,1.2-2.9,3.4-4.1,4.6c-0.7,0.7-1.8,1.9-2.6,2.8
	s-1.4,1.5-1.4,1.5c0,0-0.2-0.3-0.5-0.6c-0.6-0.9-2.2-2.4-3-3c-0.9-0.6-2.1-1.2-2.9-1.5c-0.9-0.3-1.7-0.4-2.7-0.4
	c-0.4,0-0.8,0-0.8-0.1c0-0.1,1.1-3.4,1.8-5.1c0.4-1,1.2-2.9,1.7-4.3c1.3-3.1,2.5-6.2,3.4-8.7c1-2.7,1.7-4.6,2-5.5
	c0.4-0.9,0.4-1.6,0.1-2.1c-0.3-0.6-0.9-0.9-1.6-0.9c-0.2,0-0.8,0.1-1.4,0.1c-0.6,0.1-1.9,0.1-2.8,0.2c-1,0-2.2,0.1-2.6,0.1
	c-1.4,0.1-4.3,0.2-4.3,0.1c0,0,0.1-0.2,0.2-0.4c0.4-0.7,0.9-1.9,1.1-3c0.2-0.7,0.1-2.5-0.1-3.6c-0.2-0.8-0.6-2.3-0.9-2.9
	c-0.1-0.1,0.1-0.1,5.4-0.1c3.6,0,10.7,0.9,5.8-4.4c-1.1-1.2-1.8-2.7-2.4-4.1c-1-2.3-1.4-5.1-1.2-7.6c0.3-3.6,0.9-5.4,3.2-8.8
	c1.1-1.7,1.9-2.6,3.3-3.7c1.9-1.5,3.4-2.1,6.6-2.6c1.1-0.2,3.2-0.1,4.2,0.1c0.9,0.2,2.3,0.7,3,1c2.7,1.4,5.5,4.4,6.9,7.4
	c0.6,1.3,1,3,1.2,4.4c0.2,1.9,0,4.2-0.7,6c-0.3,0.9-1.2,2.6-1.8,3.6c-1,1.5-2.7,3.3-3.9,4.3c0,0,0,0,0,0c-0.9,0.7-1.6,1.6-0.8,2.7
	c0.4,0.5,1.1,0.8,1.8,0.8c1.1-0.1,2.1-0.3,3.2-0.4c1.4-0.1,4.5-0.1,5.9,0c1.1,0.1,4.3,0.4,4.3,0.4c0,0-0.1,0.2-0.2,0.4
	c-0.3,0.6-0.7,1.8-0.8,2.7c-0.4,2.1,0.3,4.8,1.6,6.6c0.2,0.2,0.3,0.5,0.3,0.5C360.9,264.2,359.7,264.2,358.3,264.3z M370.9,259.5
	c-0.2,0.8-0.7,1.5-1.8,2.2c-1.4,0.9-3.5,2.2-5.2,1.2c-2-1.2-2.8-5.9-1.3-7.7c0.6-0.8,1.6-1,2.6-0.9c1.4,0.1,2.9,0.7,3.8,1.2
	c0.9,0.5,1.7,1.8,2,3C371,259,371,259.1,370.9,259.5z M341.2,235.9c-0.2-0.4-0.2-0.5-0.2-1.1c0-0.5,0-0.6,0.2-1
	c0.2-0.5,0.8-1.1,1.3-1.2c1.1-0.4,2.4,0.1,3,1.2c0.2,0.4,0.2,0.5,0.2,1.1c0,0.7-0.1,1.1-0.6,1.6C343.9,237.8,342,237.4,341.2,235.9z
	 M329.3,236.6c-0.5-0.5-0.7-1-0.7-1.7c0-0.5,0-0.7,0.2-1c0.3-0.6,0.9-1.1,1.5-1.4c0.1,0,0.4-0.1,0.8-0.1c0.5,0,0.7,0.1,1,0.2
	c1.5,0.8,1.7,2.7,0.6,3.8c-0.5,0.5-1,0.7-1.8,0.7C330.2,237.3,329.7,237.1,329.3,236.6z M346.2,243.8c-0.6,1.1-1.6,2.3-2.5,3.2
	c-1.3,1.2-2.4,1.9-3.7,2.4c-2.2,0.7-4.9,0.5-7-0.5c-1.8-0.9-3.5-2.8-4.5-4.8c-0.4-0.8-0.4-0.8-0.4-1.4c0-0.5,0-0.6,0.2-0.9
	c0.3-0.5,0.7-0.7,1.3-0.6c0.7,0,1,0.2,1.5,1.3c0.5,0.9,1.2,2,1.8,2.6c0.9,0.8,1.8,1.3,3,1.5c0.9,0.2,1.4,0.2,2.2,0
	c1.7-0.3,3.2-1.4,4.6-3.2c0.4-0.6,0.6-0.8,1-1.7c0.2-0.3,0.5-0.7,0.9-0.8c0.6-0.2,1.4,0.1,1.8,0.8c0.2,0.4,0.2,0.4,0.2,0.9
	C346.5,243.1,346.5,243.2,346.2,243.8z M334.9,260.8c-0.2-0.4-0.2-0.5-0.2-1c0-0.5,0-0.7,0.1-1c0.3-0.6,0.8-1.1,1.5-1.3
	c0.1-0.1,0.5-0.1,0.8-0.1c0.4,0,0.6,0,1,0.2c1.9,0.9,1.9,3.5,0,4.3C336.9,262.5,335.5,262,334.9,260.8z M334.7,268.3
	c0.2-0.9,0.9-1.5,1.7-1.8c0.4-0.1,1.1-0.1,1.5,0.1c0.5,0.2,1.1,0.7,1.3,1.2c0.2,0.4,0.2,0.5,0.2,1s0,0.7-0.2,1
	c-0.2,0.5-0.8,1-1.3,1.2c-0.5,0.2-1.4,0.2-1.9-0.1C335,270.5,334.4,269.3,334.7,268.3z M339.2,275.3c0.5,0.4,0.7,1,0.8,1.7
	c0,0.7-0.1,1.2-0.6,1.7c-0.5,0.5-1,0.8-1.7,0.8c-0.6,0-1-0.1-1.5-0.4c-1.2-0.9-1.3-2.7-0.2-3.7c0.2-0.2,0.6-0.4,0.8-0.5
	C337.6,274.5,338.5,274.7,339.2,275.3z M394.1,101.7c-0.4-0.3-0.7-0.4-1.4-0.4c-1.5-0.1-1.5-0.1-6.1,5.8c-3.5,4.4-4.7,5.9-7.5,8.8
	c-5.7,6.1-9.5,9.2-14.2,11.7c-4.1,2.2-6.5,2.8-11.8,3.1c-7.7,0.4-12.7-0.9-19.5-5.2c-3.2-2.1-7.9-5.3-9.8-6.9
	c-1.1-0.9-3.4-2.9-5.3-4.5c-8.1-7.1-12.4-10-16.9-11.4c-2.2-0.7-3.2-0.8-5.5-0.9c-4.7-0.2-8.3,0.6-12.5,2.7l-1.7,0.8l-1.3-0.4
	c-5-1.6-12.6-3.1-20.1-3.7c-4.1-0.4-4.7-0.4-9-0.6c-8.2-0.3-13.3-1.3-19.4-3.6c-4.3-1.7-8.4-3.8-11.2-6c-3.3-2.5-6.5-6.1-7.8-8.9
	c-1-2.1-1.5-4-2.4-8c-0.3-1.6-0.7-3.2-0.8-3.4c-0.2-0.5-0.7-1.1-1.2-1.4c-0.5-0.3-1.6-0.4-2.2-0.2c-1,0.4-1.8,1.5-1.8,2.7
	c0,0.9,1.2,6.9,1.8,8.7c1.4,4.3,2.8,6.9,5.5,10c4.8,5.5,11.1,9.5,20,12.6c3.3,1.2,5.8,1.8,8.6,2.3c3.9,0.7,4.9,0.8,13.9,1.2
	c5.2,0.2,10.7,0.9,15,1.7c2.3,0.4,6.5,1.3,6.6,1.4c0,0-0.3,0.5-0.8,1.1c-1.7,2-3.1,4.5-3.9,7.1c-0.7,2.3-0.9,3.4-0.9,5.6
	c0,1.7,0,2.2,0.3,3.4c0.4,1.8,1.9,4.9,2.9,6.4c2.9,4.1,7.1,6.2,11.5,5.7c1.8-0.2,2.8-0.5,4.5-1.4c1.9-1.1,3.1-1.9,4.4-3.3
	c3.5-3.6,4.7-7.6,3.7-13.1c-0.2-1.4-0.8-2.9-1.7-4.6c-1.7-3.1-3.6-5.2-6.8-7.3c-1.1-0.7-1.1-0.6,1-1.2c1.9-0.5,5.6-0.6,7.5-0.2
	c4.5,0.9,8.6,3.5,16.7,10.6c4.9,4.3,6.6,5.7,10.8,8.6c8.4,5.7,12.2,7.7,17.6,8.9c2.3,0.5,3.9,0.6,7.4,0.6c7.4,0,11.3-0.9,16.7-3.7
	c4.6-2.4,8.5-5.5,13.5-10.5c3.1-3.1,5.3-5.6,8.6-9.7c1.6-2,3.4-4.3,4.1-5.2c1.5-1.9,1.7-2.3,1.7-3.3
	C395.3,103.2,394.9,102.3,394.1,101.7z M289.7,116.8c1.8,1.9,2.9,4.1,3.1,6.4c0.5,4.1-1.1,6.8-5.4,9.2c-2,1.1-4,1.1-6.2,0
	c-0.6-0.3-1.2-0.8-1.9-1.6c-0.9-1-1.2-1.4-1.9-3c-1-2.1-1.2-3.2-1.1-4.8c0.2-2.8,1.2-5.3,3-7.6c1-1.3,3-3.2,3.4-3.2
	c0.1,0,1,0.4,1.9,0.9C287.2,114.6,288.5,115.5,289.7,116.8z"/>
</svg>
