<?xml version="1.0" encoding="utf-8"?>
<!-- Generator: Adobe Illustrator 22.1.0, SVG Export Plug-In . SVG Version: 6.00 Build 0)  -->
<svg version="1.1" id="Layer_1" xmlns="http://www.w3.org/2000/svg" xmlns:xlink="http://www.w3.org/1999/xlink" x="0px" y="0px"
	 viewBox="0 0 432 432" enable-background="new 0 0 432 432" xml:space="preserve">
<path fill="#EC2526" d="M416.1,269.4c0.9,2.9,1.1,6.2,0.5,8.1c-0.6,2.2-2.2,4-3.6,4.4c-1,0.3-1.9,0.2-2.8-0.3
	c-2.4-1.3-3.7-3.4-6.5-10.3c-1.5-3.9-3.6-8.2-5.1-10.7c-0.7-1.3-2.6-4-4.1-6.2c-1.5-2.2-2.8-4.1-2.9-4.4c-0.3-0.8-0.3-1.4-0.2-1.7
	c0.1-0.1,0.1-0.3,0.1-0.4c0-0.3,0.5-1,0.7-1c0.1,0,0.2-0.1,0.2-0.2c0.2-0.5,2-0.3,3.2,0.5c5.8,3.4,9.1,6,13.5,10.8
	C412.7,261.9,414.9,265.4,416.1,269.4z M427.9,240.1c-0.2-3.5-3.7-6.2-8.6-7c-2.6-0.4-11.5-0.8-13.4-0.6c-2.7,0.2-6.8,0.9-6.8,1.1
	c0,0.1-0.1,0.2-0.2,0.2s-0.2,0.1-0.2,0.2c0,0.1-0.1,0.2-0.2,0.2c-0.4,0-1,1.2-1,2.2c0,1.5,1.7,2.9,5.7,4.7c1.3,0.6,3.3,1.5,4.5,2.1
	c3.1,1.4,7.1,2.9,9.2,3.3c1.9,0.4,5,0.5,6.4,0.3c0.9-0.2,2.6-1.1,3.1-1.7C427.4,243.7,428,241.9,427.9,240.1z M400.6,214.1
	c-2.6,2.8-3.1,3.3-5.1,4.3c-1.8,1-2.4,1.4-2.6,2.1c-0.2,0.8-0.3,2-0.1,2c0.1,0,0.2,0.1,0.1,0.2c0,0.3,0.4,0.8,0.5,0.7
	c0-0.1,0.1,0,0.1,0.1c0,0.3,1,0.7,1.5,0.7c0.2,0,0.9-0.1,1.5-0.2c1.8-0.2,6.9-1.9,9.7-3.1c3.2-1.4,7-3.7,9.6-5.9
	c2.8-2.3,5.3-5.5,6.3-8c0.8-2.1,1-3.1,0.8-4.9c-0.2-2.3-1-4-2.5-5.3c-1.1-1-2.2-1.4-3.5-1.4c-2.1,0.1-3.6,1.4-7,6.2
	C405.8,207.9,402.9,211.6,400.6,214.1z M95.4,155.4l-23,60.5v-60.5c-2.3-0.7-4.8-1.1-7.2-1.1c-16.4,0-34.1,14.1-34.1,26.9
	c0,7.6,4,10.2,11.2,10.2c-0.1-0.9-1.5-1.8-1.5-7.1c0-12.1,6.4-20.4,16.9-23.7l-23.5,72.2h8.4l13.9-44.9v44.9h14.4l20-49.7
	l-10.5,49.7h15.1l16.5-77.3H95.4z M231.4,174.6c4.6,0,8.4-3.7,8.4-8.3s-3.8-8.4-8.4-8.4c-4.6,0-8.3,3.8-8.3,8.4
	S226.8,174.6,231.4,174.6z M279.8,187.1c0,1.2-0.1,2.1-0.5,3.5h-6c0.3-1.2,0.5-2.1,0.5-2.9c0-2.5-1.6-3.6-3.9-3.6
	c-8.8,0-14.5,17.1-14.5,28.5c0,5.1,1.2,11.2,7.6,11.2c5.7,0,10.6-2.6,14.7-6.2c0,9.1-7.8,15.1-21,15.1c-6.7,0-12.3-2.9-14.4-9.9
	c-5.2,5-11.4,9.9-16.2,9.9c-6.8,0-11.5-2.6-12.8-8.1c-3.2,3.6-8.4,6-14.1,8.1l-1.8,8.4c-3.2,15-12,17.9-18.9,17.9
	c-6.4,0-11.8-3.4-11.8-10.2c0-8.6,7.7-12.1,17.1-15.5l1.1-4.7c-3.2,2.8-7.2,5-12.1,5c-6.6,0-10.2-3.7-11.8-8
	c-4.5,3.9-9.2,7.1-13.2,7.1c-6.8,0-11.4-2.5-12.8-8c-3.2,4.3-7.9,8.6-14.3,8.6c-10.1,0-13-7.1-13-13.3c0-18.1,6.5-39.7,27.5-39.7
	c2.5,0,5.1,1.1,7,2.6l0.6-2.7H158l-7.6,35.7c-0.2,1.2-0.4,2.3-0.4,3.3c0,2.3,1.1,4,5.3,4c1.4,0,3-0.7,4.7-1.8
	c-0.1-0.9-0.2-1.7-0.2-2.6c0-14.5,5.6-38.6,25.9-38.6c3.8,0,6.8,2.1,8.3,4.9l1.2-5h15.1l-9.9,46.5c5-2.6,9.6-5.9,13.1-10.7
	c0,0,0-0.1,0-0.1l7.6-35.7h15.1l-7.6,35.7c-0.2,1.2-0.4,2.3-0.4,3.3c0,2.3,1,4,5.3,4c2.4,0,5.2-1.9,8-4.2c-0.1-1.1-0.2-2.2-0.2-3.5
	c0-15.3,6.6-35.6,27-35.6C274,179.9,279.8,181.4,279.8,187.1z M141.2,188.1c-1.7-1.5-3.7-1.9-5.1-1.9c-7.9,0-14.2,16.7-14.2,31
	c0,6.3,3.5,7.5,6.1,7.5c2.4,0,4.7-2.3,6.7-5.3c0.1-1.1,0.3-2.2,0.6-3.5L141.2,188.1z M182.8,238.3c-6,2.3-10.3,4.9-10.3,9
	c0,1.5,1.3,3.5,3.6,3.5c2.1,0,4.8-3.2,6.1-9.3L182.8,238.3z M192.9,190.7c-1.7-3.2-4.2-4.5-6-4.5c-10.2,0-14.2,21.6-14.2,30.7
	c0,5,3,6.6,7.7,6.6c2.1,0,4.3-1.6,6.3-3.7L192.9,190.7z M315.1,191.5c-0.1-0.9-1.5-1.8-1.5-7.1c0-16,11.3-25.5,28.4-25.5
	c13.2,0,15.3,9.9,15.3,21.4c0,19.6-10.2,44.6-19.2,44.6c-5.8,0-8.3-8-8.3-17c0-17.2,5.6-32.7,14.2-44c-1.8-0.5-3.4-0.8-4.9-0.8
	c-15.5,0-22.5,27.3-22.5,47c0,17.4,8.1,23.7,21.5,23.7c18.8,0,31.4-30.8,31.4-51.3c0-18.3-8-28.5-28.8-28.5
	c-17.5,0-36.9,13.3-36.9,27.3C303.9,188.8,307.9,191.5,315.1,191.5z M394.4,184.4l-12.1,56.7c-3.3,15-12,17.9-18.8,17.9
	c-6.4,0-12.4-4.5-12.4-11.3c0-9.7,8.1-12.7,18.1-15.8l12.7-60c3.2-15,12.2-17.9,19.1-17.9c6.4,0,12.4,4.5,12.4,11.3
	c0,1.7-0.1,3-0.3,4.3h-4.9c0.1-1.1,0.2-1.9,0.2-2.8c0-2.4-1.9-3.6-4-3.6c-2.3,0-5.9,1.6-7.4,8.6l-1.8,8.3h7.7l-0.7,4.2H394.4z
	 M368.5,235.4c-6.6,2.2-11.6,5.1-11.6,10.8c0,1.5,1.9,3.5,4.2,3.5c2.2,0,4.6-2,6-8.2L368.5,235.4z M348.6,343.2
	c-0.1,0.9-0.2,1.2-1.1,2.5c-0.5,0.8-2.2,3.2-3.6,5.3c-4.4,6.3-8.4,13.4-10.7,18.5c-0.5,1.2-1.6,4.1-2.3,6.4
	c-1.6,4.8-2.2,6.1-3.1,7.4c-1.6,2.1-4.7,2.4-6.3,0.6c-0.8-0.8-1-1.5-2.1-5.2c-1.8-6.3-3.9-11.8-6.1-16.4c-1.7-3.3-2.5-4.6-4.9-7.7
	c-2.7-3.5-5.3-7-5.8-8.1c-0.6-1.2-1.2-3.4-1.2-4.3c0-0.8,0.5-1.9,1.2-2.6c0.3-0.3,1.6-1.1,2.8-1.9c6.4-3.8,10.8-10.7,13.5-21.4
	c0.8-3.2,1-4.3,1.2-6.9c0.2-2.4,0.3-2.7,1.5-4.4c0.8-1,1.4-1.6,2.2-1.8c2.4-0.7,4.9,1.1,5.5,4.1c0.3,1.4,0.6,2.2,3,7.4
	c1.1,2.5,2.6,5.7,3.3,7.3c1.3,3,2.8,6.1,4,8c1.9,3,5.7,7.9,7.4,9.4C348.2,340.5,348.7,341.8,348.6,343.2z M338.6,341.6
	c-1.6-2-4.9-6.5-5.8-8.2c-1.2-2.2-3-5.7-4.5-9.3c-0.8-1.9-1.7-3.7-1.8-4.1l-0.4-0.7l-0.5,1.7c-1.7,5.8-4.4,11.3-7.4,15.3
	c-1.8,2.3-5,5.4-6.7,6.6c-0.9,0.6-1.5,1-1.4,1.2c0.1,0.2,1,1.5,6.1,8.1c1.4,1.8,2,2.8,3.8,6.6c1.9,3.7,3.2,7,4.6,11.1
	c0,0.2,0.5-0.8,1-2c1.6-4,5.5-11.3,8.7-16.4c0.9-1.4,2.9-4.3,5.4-7.9C339.9,343.3,339.7,343,338.6,341.6z M216.1,340.7
	c2.2,2.5,2.6,3.6,2.1,5.4c-0.3,1.1-0.5,1.4-4.5,5c-4.6,4.2-9,10.1-11.7,15.6c-1.3,2.5-1.7,3.6-2.5,6.2c-0.4,1.2-0.9,2.7-1.1,3.2
	c-0.5,1-1.5,1.9-2.4,2.3c-1.5,0.6-3.7,0-4.6-1.4c-0.2-0.4-1-2.3-1.8-4.3c-1.5-3.9-2.6-6.2-4.9-10.3c-2.7-4.8-5.3-8.6-8.4-12.5
	c-2.3-2.9-3.2-5-2.8-6.5c0.3-1.2,0.6-1.6,3.4-4.1c3-2.7,4.5-4.2,6.3-6.3c2.8-3.3,4.8-6.3,6.3-9.2c1.4-2.7,1.8-3.8,2.3-6.7
	c0.2-1.3,0.7-3.2,1-4.2c0.4-1.5,0.7-1.9,1.3-2.5c0.4-0.4,1-0.8,1.4-0.9c0.9-0.3,1.6-0.3,2.9,0.1c1.3,0.3,2.5,1,2.9,1.7
	c0.2,0.2,0.7,1.6,1.3,2.9c4.1,9.7,5.3,12.3,9,19.1C214,337.8,214.8,339.2,216.1,340.7z M209.4,344.6l-1-1.6
	c-2-2.9-7.7-13.6-9.5-17.8c-0.7-1.7-1-2.2-1.1-1.5c0,0.5-2.8,5.7-4.3,8c-2.4,3.7-4.9,6.6-8.3,10.1c-2.9,2.9-3.2,3.2-2.9,3.5
	c0.1,0.2,0.8,1.1,1.6,2.1c3.2,4.1,7.5,11,10.2,16.5l0.4,0.9l0.9-1.8c2.7-5.5,7.4-11.8,12-16.3L209.4,344.6z M80.2,333
	c0.6,1.5,0.7,2.9,0.1,4.6c-1.1,3.4-4.2,7.4-11,14.5c-2.7,2.8-3.3,3.5-3.2,3.8c0.4,1.2,1.6,3.2,4.7,7.8c3.7,5.6,4.6,7.1,5.7,9.9
	c2.6,6.6,1.6,10.9-3.4,13.2c-1.1,0.5-1.3,0.6-3.2,0.5c-2.9,0-4.1-0.4-9.7-3.2c-5.3-2.6-8.4-4.4-12.5-7.2c-1.5-1-2.9-1.9-3-1.9
	c-0.1,0-1.7,1.5-3.4,3.2c-5,4.9-7.1,6.5-10.9,8.5c-2.5,1.3-4.1,1.7-5.8,1.7c-1.2,0-1.5-0.1-2.7-0.6c-0.9-0.5-1.6-0.9-2.3-1.8
	c-2.4-2.6-2.9-5.5-1.9-10.2c0.4-1.7,3.2-10.1,4.3-12.9c0.4-0.9,0.6-1.7,0.6-1.8c0-0.1-1.5-0.9-3.3-1.8c-5.1-2.5-10.8-6-13.3-8.3
	c-2.7-2.4-3.7-4.2-3.9-6.9c-0.2-4.4,1.7-7.3,5.6-8.4c1.6-0.5,3.9-0.8,8.8-1.3c2.5-0.2,5.5-0.6,6.7-0.7c1.1-0.1,2.3-0.3,2.8-0.3
	c0.6,0,0.7,0,0.8-0.4c0-0.2,0.4-1.7,0.7-3.2c2.2-9.7,4.6-17,6.6-19.6c0.8-1,2.8-2.7,4-3.2c2-0.9,4.5-0.4,6.2,1.3
	c2.3,2.4,4.3,6.5,8,17.3c0.6,1.9,1.2,3.4,1.2,3.4s1.4,0,3-0.1c5.8-0.4,13.4-0.8,14.9-0.7C75.3,328.5,79.2,330.6,80.2,333z
	 M72.6,336.3c0,0-0.4-0.2-0.8-0.3c-0.9-0.2-7.7,0-15.3,0.6c-2.1,0.2-4.1,0.3-4.5,0.2c-1.3-0.2-3.1-1-3.8-1.7c-0.8-0.9-1-1.5-2.7-6.4
	c-2.3-6.6-3.5-9.8-4.4-11.6c-0.5-0.9-0.9-1.7-0.9-1.8c-0.4,0-2.1,4.5-3.3,9c-1.1,4.2-2.2,8.5-2.9,12.8c-0.1,0.8-0.3,1.6-0.7,2.2
	c-1.1,1.5-3.6,1.7-5.3,1.7c-1.1,0-2.6,0.1-3.3,0.2c-0.6,0.1-3.2,0.4-5.7,0.6c-8,0.8-9.1,1-9.1,1.6c0,0.9,3.7,3.7,8.8,6.7
	c1,0.6,4.1,2.1,6.7,3.4c2.6,1.2,5,2.5,5.2,2.7c1.3,1.2,1.5,3.1,0.6,4.9c-0.9,1.8-2.1,5-3.2,8.2c-0.6,1.7-1.4,3.9-1.8,5.1
	c-0.8,2.3-1.4,5.2-1.1,5.8l0.2,0.4l1.5-0.7c1.9-0.9,3.2-1.7,4.8-3.1c1.8-1.4,8.8-8.4,9.4-9.2c0.9-1.4,2.7-2,4.2-1.6
	c0.4,0.1,1.1,0.5,1.6,0.9c0.5,0.3,1.1,0.7,1.3,0.9c0.2,0.1,2.2,1.4,4.3,2.8c4.7,3.1,6.8,4.3,11.6,6.7c3.5,1.8,5.6,2.6,6.2,2.3
	c0.3-0.1,0.2-0.9-0.4-2.7c-0.8-2.2-1.7-3.8-5.3-9.1c-4.8-7.1-6-9.7-6-12.8c0-0.7,0.1-1.7,0.2-2.1c0.3-1,1.5-2.8,2.7-4
	c3.1-2.9,6.5-6.3,7.8-8C70.4,339.5,72.6,336.5,72.6,336.3z"/>
<path fill="#5EBB47" d="M425.8,118.1c-0.3-2.5-1.1-4.8-2.6-6.8c-1.4-2-3.1-3.3-5.1-4.2c-2-0.8-4.2-1.1-6.5-0.9
	c-3.2,0.3-5.6,1.6-7.4,3.7c-1.7,2-2.3,4.3-2.1,6.9c0.1,0.9,0.3,1.7,0.5,2.3c0.8,2.1,2,3.5,3.8,4.4c1.8,0.8,3.7,1.2,5.7,0.9
	c1.8-0.2,2.6-0.9,2.4-2.3s-1.1-1.9-2.9-1.7c-1.2,0.1-2.4,0.4-3.4,0.9c-2.1-0.7-3.3-2.3-3.6-4.9c-0.2-1.9,0.3-3.5,1.4-4.9
	c1.4-1.6,3.3-2.5,5.7-2.8c1.8-0.2,3.6,0,5.2,0.6c1.6,0.6,3,1.7,4.1,3.3c1.2,1.6,1.8,3.4,2.1,5.4c0.3,3.1-0.4,5.8-2.1,8.2
	c-1.9,2.6-4.6,4.1-8.2,4.5c-2.5,0.3-4.9,0.1-7.3-0.6c-2.4-0.6-4.7-1.5-6.9-2.6c-2.2-1.1-4.4-2.3-6.6-3.5c-2.8-1.6-5.4-3-7.8-4.2
	c-2.2-1-4.4-1.9-6.7-2.5c-3-0.8-6-1.1-9.1-0.7c-1,0.1-2,0.3-3,0.6c-3.8-6.5-10.1-9.3-18.7-8.4c-9.9,1.1-16.6,8-20,20.8
	c-0.1,0.3-0.1,0.6-0.1,0.9c0,0,0,0,0,0c0,0-0.1,0-0.1,0c-0.7-0.1-1.2,0.1-1.5,0.6c-1.3,2.1-2.7,4.3-4.2,6.8c-1.5,2.5-3.2,4.8-5.2,7
	c-1.9,2.2-4.1,4-6.6,5.5c-2.5,1.5-5.4,2.3-8.6,2.4c-1.9,0.1-3.5-0.1-4.7-0.5c-1.2-0.5-2.3-1.1-3-2c-0.8-0.9-1.3-1.9-1.5-3.1
	c-0.3-1.2-0.4-2.5-0.3-3.9c2.9,0.1,5.6-0.3,8.2-1c2.6-0.7,5-1.7,7.2-3c2.2-1.2,4.1-2.7,5.7-4.3c1.6-1.7,2.8-3.4,3.5-5.2
	c0.7-1.8,1-3.6,1-5.4c0-1.8-0.8-3.5-2.3-5.1c-1.7-2-3.8-3.6-6.4-4.7c-2.6-1.1-5.4-1.6-8.4-1.5c-3,0.1-6,0.9-9,2.3
	c-3,1.4-5.7,3.7-8,6.8l-0.1,0.1c-1.7,2.2-3,4.7-3.9,7.3c-0.3,0.9-0.6,1.7-0.8,2.6c-0.7,1.1-1.6,2.3-2.6,3.5
	c-1.4,1.8-2.9,3.6-4.4,5.3c-1.5,1.8-3,3.4-4.4,5c-1.4,1.6-2.6,2.9-3.7,3.8c-0.8,0.8-1.7,1.4-2.7,1.8c-1.1,0.4-2,0.5-2.7,0.4
	c-0.7-0.1-1.3-0.5-1.6-1.2c-0.4-0.7-0.5-1.7-0.2-3.2c0.4-1.5,1.1-3.5,2.2-6c1.1-2.4,2.1-5,3-7.6c0.9-2.6,1.5-5.2,1.9-7.7
	c0.3-2.5,0-4.6-1-6.4c-2.4-4-6.5-6.2-12.2-6.6c-2.7-0.2-5.1,0.1-7.2,0.8c-2.2,0.7-4.2,1.8-6,3.1c-1.9,1.3-3.5,2.9-5.1,4.8
	c-1.5,1.8-3,3.8-4.4,5.9c0.6-2.2,1.2-4.2,1.9-5.9c0.6-1.8,1.3-3.8,2.1-5.9c8.1-4.7,14.7-9.6,19.7-14.8c5-5.1,8.1-11.2,9.3-18.1
	c0.2-1.3-0.2-2.7-1.4-4c-1.2-1.3-2.6-2.5-4.4-3.5c-1.7-1-3.6-1.7-5.5-2.2c-1.9-0.5-3.6-0.6-4.9-0.3c-4.1,1-7.8,3-11,6.2
	c-3.3,3.1-6.2,6.9-8.8,11.3c-2.6,4.4-5,9.2-7.1,14.5c-2.1,5.2-3.9,10.4-5.4,15.7c-1.5,5.2-2.7,10.2-3.7,14.9
	c-1,4.7-1.8,8.8-2.4,12.2c-0.1,0.7,0.2,1.6,0.9,2.8c0.7,1.2,1.6,2.4,2.7,3.7c1.1,1.2,2.5,2.3,4.2,3.2c1.7,0.9,3.4,1.3,5.2,1.3
	c0.5,0,0.8-0.1,1-0.2c0.2-0.1,0.4-0.4,0.5-0.7c0.1-0.4,0.2-0.9,0.4-1.6c0.2-0.7,0.3-1.7,0.5-2.9l2.7-11.6l0.1-0.1
	c1.1-2.1,2.6-4.4,4.3-6.9c1.7-2.5,3.5-4.9,5.4-7.1c1.9-2.2,3.7-4,5.6-5.5c1.9-1.5,3.5-2.2,4.9-2.2c1.1,0,1.7,0.5,1.9,1.6
	c0.2,1.1,0.2,2.5-0.1,4.3c-0.3,1.8-0.8,3.7-1.4,5.9c-0.6,2.2-1.2,4.3-1.8,6.4c-0.6,2.1-1.1,4-1.5,5.8c-0.4,1.8-0.4,3.3,0.1,4.4
	c0.8,3,2.8,5.4,6,7.3c3.2,1.9,6.9,2.8,11.1,2.7c3.1-0.1,6-1.1,8.6-2.8c2.6-1.8,5.1-4,7.4-6.5c1.4-1.5,2.6-3.2,3.7-4.8
	c0.1,0.4,0.2,0.9,0.3,1.3c0.8,2.5,2.1,4.8,4,6.7c1.9,2,4.3,3.5,7.4,4.6c3.1,1.1,6.9,1.7,11.2,1.6c2.9,0,5.6-0.5,8.1-1.5
	c2.5-1,4.8-2.3,6.9-3.9c2.1-1.6,4-3.3,5.7-5.2s3.2-3.8,4.4-5.6c1.2-1.8,2.3-3.5,3.1-5c0.9-1.5,1.5-2.7,2-3.7
	c0.2-0.4,0.2-0.8-0.2-1.3c-0.4-0.5-0.9-0.8-1.6-1.1c0,0,0,0,0,0c0.2-0.3,0.4-0.7,0.6-1.3c0.5-2,1.2-4,2-5.8
	c3.3-7.6,8.5-11.7,15.8-12.5c7.5-0.8,12.9,1.5,16.1,6.9c-0.9,0.5-1.7,1.1-2.4,1.6c-3.1,2.7-5.1,7.1-6,13.2c-2.3-3.7-5.6-5.3-9.8-4.8
	c-1.7,0.2-3,0.8-4,1.8c-1,1-1.7,2.2-2.1,3.6c-0.4,1.4-0.5,2.9-0.3,4.5c0.4,3.5,1.9,6.6,4.7,9.3c1.6,1.5,3.3,2.6,5.3,3.2
	c2,0.6,4,0.8,6.1,0.6c1.4-0.2,2.8-0.6,4.1-1.3c2.2-1.2,4-2.9,5.5-5c1.4-2.2,2.4-4.6,3.1-7.2c1-4,1.3-7.9,0.9-11.9
	c-0.2-2.3-0.8-4.4-1.6-6.3c0.7-0.2,1.4-0.3,2.1-0.4c2.7-0.3,5.2-0.1,7.7,0.5c2.5,0.6,4.9,1.5,7.2,2.7c2.4,1.2,4.7,2.4,7,3.8
	c2.3,1.3,4.7,2.6,7.1,3.8c2.4,1.2,4.9,2.1,7.4,2.8c2.5,0.7,5.2,0.8,7.9,0.5c4.4-0.5,7.8-2.3,10.1-5.6
	C425.4,125,426.2,121.7,425.8,118.1z M293.6,134.1c0.5-1.7,1.1-3.5,1.8-5.2c0.7-1.7,1.5-3.3,2.4-4.9c0.9-1.5,2-2.8,3.3-3.6
	c2.3-1.7,4.2-2.4,5.7-2.1c1.4,0.3,2.5,1.1,3.2,2.5c0.7,1.4,0.9,3.1,0.6,5.2c-0.3,2.1-1.1,4.1-2.5,6c-1.4,1.9-3.3,3.5-6,4.9
	c-2.6,1.3-5.8,2-9.6,1.9C292.7,137.4,293.1,135.8,293.6,134.1z M242.1,87.9c3.3-4.8,6.8-7.5,10.4-8c1-0.2,1.5,0.2,1.6,1.1
	c0.1,0.9-0.2,2.1-0.8,3.7c-0.6,1.6-1.6,3.5-3,5.6c-1.3,2.1-2.9,4.3-4.7,6.7c-1.8,2.3-3.8,4.6-6,7c-2.2,2.3-4.4,4.4-6.9,6.3
	C235.8,100.1,238.8,92.7,242.1,87.9z M363.4,141.2c-1.4,3.2-3.4,5.5-5.9,6.8c-1,0.5-2.1,0.9-3.2,1c-3.7,0.4-6.8-0.6-9.3-3.1
	c-2.3-2.2-3.6-4.7-3.9-7.6c-0.1-1-0.1-2.1,0.1-3.1s0.6-1.9,1.3-2.6c0.6-0.7,1.5-1.1,2.7-1.3c2.4-0.3,4.4,0.4,6.1,2
	c1.7,1.6,2.6,3.4,2.8,5.3c0.3,2.4,0.7,3.5,1.4,3.4c0.7-0.1,1.2-1.3,1.3-3.5c0.6-9.5,3.1-15.3,7.4-17.5c0.7,1.7,1.1,3.5,1.3,5.5
	C366.2,131.7,365.4,136.6,363.4,141.2z M180.5,165.6c-3.6-4.2-5.4-8.6-5.5-13.3c-0.1-4.7,0.8-9.5,2.8-14.5c2-5,4.6-10,7.9-15
	c3.3-5,6.7-10.1,10-15.2c3.3-5.1,6.3-10.1,8.9-15c2.6-4.9,4.1-9.7,4.5-14.2c0.1-1.1-0.4-2.4-1.5-3.7c-1.1-1.3-2.4-2.7-4-4
	c-1.6-1.3-3.4-2.6-5.4-3.9c-2-1.2-3.9-2.3-5.7-3.2c7.2,0.6,14.5,1.4,21.9,2.3c7.4,0.9,14.7,1.7,21.9,2.4c7.2,0.7,14.2,1.3,20.9,1.8
	c6.7,0.4,13.1,0.5,19,0.2c4.9-0.3,9.6-0.9,14-1.7c4.4-0.9,8-2.1,10.9-3.8c2.9-1.7,4.8-3.9,5.9-6.5c1.1-2.6,0.7-5.8-1.1-9.5
	c-0.2-0.5-0.7-1.2-1.3-1.9c-0.6-0.8-1.3-1.4-1.9-2c-0.6-0.6-1.3-0.9-1.9-1.1c-0.6-0.2-1.1,0-1.4,0.5c0.5,2.2,0.3,4-0.6,5.6
	c-0.9,1.5-2.4,2.9-4.4,4c-2,1.1-4.3,2-6.9,2.7c-2.6,0.7-5.3,1.3-8,1.7c-5.5,0.8-12.5,1.1-20.8,0.9c-8.3-0.2-17.2-0.6-26.6-1.1
	c-9.4-0.5-19-1.1-28.8-1.7c-9.8-0.6-19.2-0.8-27.9-0.7c-3.3,0-7.3,0.2-12.3,0.5c-4.9,0.3-9.7,0.9-14.2,1.8
	c-6.4,1.3-12.4,3.1-18.2,5.4c-5.8,2.4-10.7,5.3-14.8,8.9c-4.1,3.6-7,7.7-8.7,12.4c-1.7,4.7-1.3,10,1,15.8c0.9,2.2,2.3,4.2,4.2,6
	c1.9,1.8,4,3.3,6.4,4.6c2.4,1.3,4.8,2.5,7.3,3.5c2.4,1,4.6,1.8,6.6,2.5c-5.1,1.8-8.9,5.9-11.4,12.4c-1.1-0.2-2.3-0.3-3.5-0.3
	c-3.5,0-6.9,0.6-10.2,1.9c-2.5,1-5,2.2-7.3,3.6c-2.7,1.6-5.5,3.5-8.4,5.6c-2.3,1.6-4.6,3.2-7,4.7c-2.4,1.5-4.9,2.8-7.5,3.7
	c-2.6,1-5.3,1.5-8.2,1.5c-4.1,0-7.4-1.4-9.9-4.1c-2.2-2.5-3.4-5.5-3.4-8.9c0-2.3,0.6-4.4,1.7-6.3c1.1-1.9,2.5-3.2,4.2-4.1
	c1.7-0.9,3.7-1.3,5.8-1.3c2.8,0,5.1,0.8,6.8,2.4c1.5,1.4,2.2,3.1,2.2,5.3c0,2.9-1.2,4.8-3.5,5.9c-1.2-0.4-2.6-0.7-4-0.7
	c-2,0-3,0.7-3,2.2c0,1.5,1,2.2,3,2.2c2.3,0,4.4-0.6,6.4-1.7c1.9-1.2,3.2-2.9,3.8-5.3c0.2-0.7,0.3-1.6,0.3-2.6c0-3-1.1-5.5-3.2-7.5
	c-2.3-2.1-5.2-3.2-8.9-3.2c-2.7,0-5.1,0.6-7.3,1.7c-2.2,1.2-4,2.9-5.3,5.3c-1.4,2.4-2.1,5.1-2.1,7.9c0,4.1,1.4,7.7,4.1,10.8
	c3,3.4,7.1,5.1,12.1,5.1c3.2,0,6.2-0.5,8.9-1.6c2.8-1,5.5-2.4,8.1-4s5.1-3.3,7.6-5.1c2.5-1.8,5-3.5,7.5-5c2.5-1.6,5.1-2.9,7.9-3.9
	c2.7-1,5.6-1.5,8.6-1.5c0.9,0,1.7,0.1,2.5,0.2c-0.7,2.3-1,4.7-1,7.2c0,4.4,0.8,8.8,2.5,13.1c1.1,2.8,2.5,5.4,4.4,7.6
	c1.9,2.3,4.1,3.9,6.8,5c1.6,0.6,3.2,0.9,4.8,0.9c2.4,0,4.7-0.5,6.9-1.4c2.1-0.9,4-2.3,5.6-4.2c2.8-3.3,4.2-7,4.2-11
	c0-1.7-0.3-3.4-0.9-5c-0.6-1.6-1.5-2.8-2.8-3.8c-1.3-1-2.8-1.5-4.7-1.5c-3.6,0-6.9,1.5-10.1,4.5c-2.3-5.6-5.2-9.6-8.8-11.9
	c-0.9-0.6-1.9-1.1-2.9-1.6c3-7.6,8-11.4,14.9-11.4c2.8,0,5.1,0.8,6.8,2.4c1.5,1.4,2.2,3.1,2.2,5.3c0,2.9-1.2,4.8-3.5,5.9
	c-1.2-0.4-2.6-0.7-4-0.7c-2.4,0-3.7,0.7-3.7,2.2c0,1.5,1.2,2.2,3.7,2.2c2.3,0,4.4-0.6,6.4-1.7c1.9-1.2,3.2-2.9,3.8-5.3
	c0.2-0.7,0.3-1.6,0.3-2.6c0-3-1.1-5.5-3.2-7.5c-2.3-2.1-5.2-3.2-8.9-3.2c-1.5,0-2.9,0.2-4.3,0.4c-0.3-0.4-0.6-0.8-0.8-1.2
	c-3.6-5.6-6.1-11-7.6-16.3c-1.5-5.3-1.8-10.3-0.8-14.8c1-4.5,3.3-8.5,7-11.8c3.7-3.4,9-5.9,16-7.5c5.6-1.4,11.8-2.2,18.6-2.2
	c6.8,0,14,0.2,21.5,0.7c0.2,0.6,0.5,1.4,0.8,2.2c0.3,0.9,0.6,1.7,0.8,2.5c0.2,0.8,0.5,1.6,0.7,2.2c0.3,0.7,0.5,1.1,0.6,1.4
	c0.3,2.5,0,5.2-1,8.3c-1,3.1-2.4,6.3-4.2,9.8c-1.8,3.5-3.9,7.1-6.2,10.9c-2.3,3.8-4.7,7.6-7,11.5c-2.3,3.9-4.4,7.8-6.4,11.7
	c-2,3.9-3.5,7.6-4.5,11.3c-1,3.6-1.5,7.1-1.4,10.5c0.1,3.3,1.2,6.4,3.1,9.1c1.3,1.8,2.8,3.4,4.4,4.9c1.7,1.5,3.3,2.7,4.9,3.7
	c1.6,1,3.1,1.6,4.4,2C178.8,165.9,179.8,165.9,180.5,165.6z M133.7,147.3c0.2,0.7,0.7,1.1,1.3,1.1c0.5,0,0.8-0.2,1.2-0.6
	c1.2-1.4,2.6-2.6,4.2-3.7c1.6-1,3.4-1.5,5.3-1.5c1.3,0,2.4,0.4,3.2,1.1c0.8,0.7,1.4,1.6,1.7,2.8c0.4,1.1,0.5,2.3,0.5,3.4
	c0,3.3-1.2,6.3-3.5,9c-2.6,3-6,4.6-10.2,4.6c-1.3,0-2.5-0.2-3.8-0.7c-3-1.2-5.5-3.5-7.5-6.9c-2.9-4.9-4.3-10.2-4.3-16
	c0-2.3,0.3-4.4,0.8-6.3C127.6,135.3,131.2,139.9,133.7,147.3z M21.9,244.5l0.8,0v4.7c-1.4,0.2-2.4,0.9-3.1,2c-0.7,1.1-1,2.7-1,4.8
	v32.4v1.7c0,0.6,0.1,1.2,0.3,1.9c0.2,0.7,0.5,1.2,0.9,1.7c0.4,0.5,0.8,0.9,1.2,1.1c0.4,0.2,1,0.4,1.7,0.5v4.8c-4.6,0-8.5-1.3-11.9-4
	c-3-2.3-5.2-5.5-6.7-9.4c-1.5-3.9-2.3-8.6-2.3-14c0-3.9,0.5-7.6,1.5-11c1-3.4,2.4-6.4,4.2-8.9c1.9-2.5,4.1-4.6,6.7-6.1
	C17,245.3,19.5,244.5,21.9,244.5z M39.7,284.3c0.4,0.5,0.6,1.1,0.6,1.8c0,1.2-0.4,2.6-1.2,4.3c-0.8,1.7-1.8,3.2-3.1,4.6
	c-1.5,1.7-3.1,3-4.8,3.8c-1.6,0.8-3.5,1.3-5.5,1.4v-4.8c1.8-0.2,3.8-0.9,5.8-2.3c1.1-0.8,2-1.8,2.9-3c0.8-1.3,1.5-2.7,1.9-4.2
	c0.2-0.8,0.5-1.4,0.8-1.8c0.3-0.4,0.7-0.5,1.3-0.5C38.8,283.6,39.3,283.8,39.7,284.3z M28.4,250.4c-0.9-0.6-1.8-0.9-2.9-1.1v-4.7
	c1.1,0.2,2.1,0.4,2.8,0.7c0.7,0.2,2,0.7,3.9,1.5c1.2,0.5,2,0.7,2.4,0.7c0.7,0,1.2-0.3,1.5-1l0.5-0.9c0.3-0.6,0.8-0.9,1.6-0.9
	c0.6,0,1.1,0.2,1.5,0.6s0.5,1,0.5,1.8v16.3c0,1-0.2,1.8-0.6,2.3s-0.9,0.7-1.4,0.7c-0.6,0-1-0.2-1.4-0.6c-0.3-0.4-0.6-1.1-0.8-2
	c-0.5-2.1-1-3.7-1.4-4.9c-1-2.5-2.2-4.5-3.5-6C30.2,251.8,29.3,251,28.4,250.4z M69,297.1c0,1.4-0.8,2-2.5,2h-0.9H49.8h-0.9
	c-0.8,0-1.5-0.2-2-0.5c-0.5-0.4-0.7-0.9-0.7-1.5c0-1.1,0.5-1.8,1.4-2.1c0.8-0.3,1.2-0.5,1.4-0.5c0.1-0.1,0.3-0.2,0.4-0.5
	c0.3-0.4,0.4-1.1,0.4-2v-39.3c0-0.9-0.1-1.6-0.4-2c-0.1-0.2-0.3-0.4-0.4-0.5c-0.1-0.1-0.6-0.2-1.4-0.5c-0.9-0.3-1.4-1-1.4-2.1
	c0-0.7,0.2-1.2,0.7-1.5c0.5-0.4,1.1-0.5,2-0.5h0.9h15.7h0.9c1.7,0,2.5,0.7,2.5,2c0,1.1-0.4,1.8-1.3,2.1l-1.1,0.4
	c-0.7,0.3-1,1.1-1,2.6V292c0,1.5,0.3,2.3,1,2.6l1.1,0.4C68.5,295.3,69,296,69,297.1z M90.8,299.1h-1H74.2h-1c-1.6,0-2.5-0.7-2.5-2.1
	c0-1.1,0.4-1.8,1.3-2.2l1.1-0.4c0.7-0.2,1-1.1,1-2.6v-18.1h-5.7v-3.9h5.7v-17.1c0-1.5-0.3-2.3-1-2.6l-1.1-0.4
	c-0.9-0.3-1.3-1-1.3-2.1c0-1.4,0.8-2,2.5-2h0.9h15.7h1c1.8,0,2.6,0.7,2.6,2c0,1.1-0.5,1.8-1.4,2.1c-0.8,0.3-1.2,0.5-1.4,0.5
	c-0.1,0.1-0.3,0.2-0.4,0.5c-0.3,0.4-0.4,1.1-0.4,2v39.1c0,1.4,0.4,2.3,1.1,2.6l1.1,0.4c0.9,0.3,1.4,1.1,1.4,2.2
	C93.5,298.5,92.6,299.1,90.8,299.1z M135.3,270.8c-1.2,0.6-2.9,1.3-5.3,2.1c2.2,0.4,3.8,0.8,5,1.2c1.2,0.4,2.2,1,3.2,1.8
	c1,0.8,1.7,1.8,2.3,2.9c0.5,1.1,0.8,2.3,0.8,3.6v8.1c0,0.8,0.2,1.3,0.7,1.3c0.2,0,0.3-0.1,0.5-0.2c0.1-0.1,0.3-0.3,0.5-0.7
	c0.6-0.9,1.2-1.3,1.8-1.3c0.4,0,0.8,0.2,1.2,0.7c0.4,0.5,0.6,0.9,0.6,1.4c0,0.8-0.3,1.8-1,3s-1.6,2.2-2.6,3.1c-1,0.9-2,1.5-3.1,1.9
	c-1.1,0.4-2.5,0.6-4,0.6c-3.1,0-5.5-1-7.3-3c-1.7-2-2.6-4.7-2.6-8.3v-6.6c0-1.5,0-2.3,0-2.5c-0.1-1-0.4-1.9-1-2.7
	c-0.7-0.9-1.7-1.5-2.9-1.6v-4.2c1.3-0.2,2.2-0.6,2.7-1.1c0.5-0.5,0.8-1,1-1.6c0.2-0.6,0.3-1.5,0.3-2.7v-10.4c0-1.6-0.3-2.9-0.9-3.7
	s-1.6-1.5-3.1-1.9v-4.4h0.9c2.6,0,4.8,0.1,6.7,0.3c2.7,0.3,5.2,1.3,7.3,3c3.1,2.4,4.6,5.9,4.6,10.4c0,3.7-1,6.7-3.1,9.1
	C137.5,269.4,136.5,270.2,135.3,270.8z M103.6,292v-39.3c0-0.9-0.1-1.6-0.4-2c-0.1-0.2-0.3-0.4-0.4-0.5c-0.1-0.1-0.6-0.2-1.4-0.5
	c-0.9-0.3-1.4-1-1.4-2.1c0-0.7,0.2-1.2,0.7-1.5c0.5-0.4,1.1-0.5,2-0.5h0.9h15.7v46.1c0,1,0.2,1.8,0.5,2.2c0.2,0.3,0.4,0.4,0.5,0.5
	c0.2,0.1,0.7,0.2,1.6,0.5c1.1,0.3,1.7,1,1.7,2.2c0,0.7-0.3,1.2-0.9,1.6c-0.4,0.3-1.2,0.5-2.2,0.5h-1.2h-15.7h-0.9
	c-0.8,0-1.5-0.2-2-0.5c-0.5-0.4-0.7-0.9-0.7-1.5c0-1.1,0.5-1.8,1.4-2.1c0.8-0.3,1.2-0.5,1.4-0.5c0.1-0.1,0.3-0.2,0.4-0.5
	C103.4,293.6,103.6,292.9,103.6,292z M169.6,265.4V294c0,0.7,0.1,1.2,0.4,1.5c0.1,0.2,0.3,0.3,0.4,0.3c0.1,0,0.6,0.2,1.4,0.4
	c0.9,0.2,1.4,0.8,1.4,1.5c0,0.5-0.2,0.8-0.7,1.1c-0.5,0.3-1.1,0.4-2,0.4h-0.9h-15.7H153c-0.8,0-1.5-0.1-2-0.4
	c-0.5-0.3-0.7-0.6-0.7-1.1c0-0.8,0.5-1.3,1.4-1.5c0.8-0.2,1.2-0.3,1.4-0.4c0.1,0,0.3-0.2,0.4-0.3c0.3-0.3,0.4-0.8,0.4-1.5v-28.6
	c0-0.7-0.1-1.2-0.4-1.5c-0.1-0.2-0.3-0.3-0.4-0.3c-0.1,0-0.6-0.2-1.4-0.4c-0.9-0.2-1.4-0.8-1.4-1.5c0-0.5,0.2-0.8,0.7-1.1
	c0.5-0.3,1.1-0.4,2-0.4h0.9h15.7h0.9c0.8,0,1.5,0.1,2,0.4c0.5,0.3,0.7,0.6,0.7,1.1c0,0.8-0.5,1.3-1.4,1.5c-0.8,0.2-1.2,0.3-1.4,0.4
	c-0.1,0-0.3,0.2-0.4,0.3C169.8,264.2,169.6,264.7,169.6,265.4z M198,257.6c1.4,0.1,2.6,0.2,3.7,0.5c1,0.2,2.5,0.7,4.4,1.4
	c0.5,0.2,0.9,0.2,1.2,0.2c0.4,0,0.8-0.1,1-0.4l0.8-0.9c0.4-0.4,0.8-0.7,1.4-0.7c0.6,0,1.1,0.2,1.4,0.6c0.3,0.4,0.4,1,0.4,1.8v9.9
	c0,0.6-0.2,1.1-0.6,1.4c-0.4,0.4-0.9,0.6-1.5,0.6c-0.5,0-0.9-0.1-1.3-0.4c-0.2-0.2-0.4-0.4-0.5-0.6c-0.1-0.2-0.3-0.6-0.4-1.2
	c-0.3-1-0.7-2-1.3-3c-0.6-1-1.4-2-2.2-2.8c-1.7-1.6-3.8-2.7-6.4-3.2V257.6z M213.8,285.8c0,2.6-0.8,4.9-2.3,7.1
	c-1.5,2.1-3.6,3.8-6.2,5c-1.4,0.6-3,1.1-4.6,1.5c-1.7,0.4-3.2,0.6-4.7,0.6v-3.4c2-0.4,3.5-1,4.4-1.8c0.9-0.7,1.4-1.8,1.4-3
	c0-1.3-0.7-2.5-2.1-3.5c-0.9-0.7-2.7-1.5-5.4-2.5c-2.9-1.1-4.9-1.8-5.9-2.3c-1.1-0.5-2.1-1-3.1-1.6c-4.4-2.7-6.6-6.2-6.6-10.7
	c0-2.3,0.6-4.4,1.7-6.3c1.1-1.9,2.6-3.5,4.6-4.7c2.7-1.6,6.1-2.5,10.2-2.7v3.4c-1.5,0.3-2.6,0.9-3.3,1.6c-0.8,0.7-1.1,1.6-1.1,2.6
	c0,1,0.3,1.9,1,2.6s1.7,1.5,3.1,2.1c1,0.5,3.2,1.3,6.7,2.6c2.1,0.8,3.8,1.5,4.9,2.1c1.2,0.6,2.3,1.4,3.3,2.4
	C212.5,279.4,213.8,282.4,213.8,285.8z M188.6,294.5c1.4,1.1,3,1.8,4.8,2.1v3.4c-1.9,0-4-0.5-6.4-1.4c-0.9-0.3-1.5-0.6-1.8-0.7
	c-0.3-0.1-0.6-0.1-1-0.1c-0.5,0-0.8,0.1-1.1,0.2c-0.2,0.1-0.6,0.5-1.1,1c-0.4,0.4-0.9,0.7-1.4,0.7c-1.3,0-2-0.9-2-2.6v-10.9
	c0-0.6,0.2-1,0.6-1.4s0.8-0.6,1.4-0.6c0.5,0,0.9,0.1,1.2,0.4s0.5,0.7,0.8,1.4c0.5,1.7,1.3,3.3,2.3,4.8S187.2,293.4,188.6,294.5z
	 M248.6,250.4v-4.7h9.3v16c0,0.8-0.2,1.4-0.6,1.8c-0.4,0.5-0.9,0.7-1.5,0.7c-0.6,0-1.1-0.2-1.5-0.6c-0.4-0.4-0.6-1-0.8-1.8l-0.4-2.4
	c-0.4-2.4-1-4.5-2-6.3C250.5,252,249.7,251.1,248.6,250.4z M245.7,299.1H230h-1.2c-1,0-1.8-0.2-2.3-0.5c-0.5-0.4-0.8-0.9-0.8-1.6
	c0-1.2,0.6-1.9,1.7-2.2c0.9-0.3,1.5-0.4,1.6-0.5c0.2-0.1,0.3-0.2,0.5-0.5c0.4-0.4,0.5-1.2,0.5-2.2v-46.1h15.6v46.1
	c0,1,0.2,1.8,0.5,2.2c0.2,0.3,0.4,0.4,0.5,0.5c0.2,0.1,0.7,0.2,1.6,0.5c1.1,0.3,1.7,1,1.7,2.2c0,0.7-0.3,1.2-0.9,1.6
	c-0.4,0.3-1.2,0.5-2.3,0.5H245.7z M224.6,253.1c-1,1.8-1.7,3.9-2,6.3l-0.4,2.4c-0.1,0.8-0.4,1.4-0.8,1.8c-0.4,0.4-0.9,0.6-1.5,0.6
	c-0.6,0-1.1-0.2-1.5-0.7c-0.4-0.5-0.6-1.1-0.6-1.8v-16h9.3v4.7C226.1,251.1,225.2,252,224.6,253.1z M270.8,275.5v11.8
	c0,1.2,0,2.1,0.1,2.6c0.1,0.5,0.3,1.1,0.5,1.7c0.5,1.2,1.2,2,2,2.6l1.3,0.9c0.9,0.6,1.3,1.3,1.3,2c0,1.3-0.9,2-2.6,2h-8.8
	c-1.8,0-2.6-0.7-2.6-2c0-0.4,0.1-0.7,0.2-1c0.2-0.2,0.5-0.5,0.9-0.8c2.6-1.6,3.9-4.3,3.9-8.2v-23.6L270.8,275.5z M290.7,268.7
	l-8.1,30.4h-1.9L267,254c-0.5-1.5-1-2.5-1.5-3.1c-0.3-0.3-0.8-0.6-1.6-0.7c-1.5-0.4-2.3-1.2-2.3-2.4c0-0.7,0.2-1.2,0.7-1.6
	c0.4-0.4,1.1-0.6,1.9-0.6h16.5l6.9,22l3.1-11.9V268.7z M309.3,252.7V292c0,0.9,0.1,1.6,0.4,2c0.1,0.2,0.3,0.4,0.4,0.5
	s0.6,0.2,1.4,0.5c0.9,0.3,1.4,1,1.4,2.1c0,1.4-0.9,2-2.6,2h-1h-15.7h-1.2c-1,0-1.8-0.2-2.3-0.5c-0.5-0.4-0.8-0.9-0.8-1.6
	c0-1.2,0.6-1.9,1.7-2.2c0.9-0.3,1.5-0.4,1.6-0.5c0.2-0.1,0.3-0.2,0.5-0.5c0.4-0.5,0.5-1.2,0.5-2.2v-46.1h15.6h1c1.8,0,2.6,0.7,2.6,2
	c0,1.1-0.5,1.8-1.4,2.1c-0.8,0.3-1.2,0.5-1.4,0.5s-0.3,0.2-0.4,0.5C309.4,251.2,309.3,251.8,309.3,252.7z M360.1,295.9
	c0.2,0.3,0.4,0.7,0.4,1.2c0,1.4-0.9,2-2.7,2h-17.6c-0.7,0-1.3-0.2-1.7-0.6c-0.4-0.4-0.6-0.9-0.6-1.5c0-0.5,0.1-0.9,0.3-1.2
	c0.2-0.3,0.6-0.6,1.3-1c0.5-0.3,0.8-0.5,1-0.9c0.2-0.3,0.3-0.7,0.3-1.2c0-0.4,0-0.8-0.1-1.2l-1.1-5.7h-9.8l1-4.7h7.9l-6.5-31.9
	l0.9-3.8H347l9.8,46.1c0.2,0.8,0.4,1.5,0.6,2.2c0.2,0.5,0.7,0.9,1.4,1.2C359.4,295.4,359.8,295.6,360.1,295.9z M330.1,297.2
	c0,1.3-0.9,2-2.6,2h-8.9c-0.9,0-1.6-0.2-2.1-0.6s-0.8-1-0.8-1.7c0-0.8,0.5-1.4,1.5-1.9c1-0.5,1.7-0.9,2.1-1.3s0.9-0.9,1.3-1.5
	c0.7-1.1,1.2-2.5,1.6-4.3l8-32.3l1.8,8.1l-6.2,25.3c-0.2,0.7-0.3,1.4-0.3,2c0,1.6,0.7,2.8,2.1,3.5l1.2,0.6
	C329.7,295.6,330.1,296.3,330.1,297.2z M365,299.5c-1.3,0-2-0.7-2-2.2v-9.4c0-0.5,0.2-0.9,0.6-1.2c0.4-0.3,0.8-0.5,1.4-0.5
	c0.5,0,0.9,0.1,1.2,0.3c0.3,0.2,0.5,0.6,0.8,1.2c0.5,1.5,1.3,2.9,2.3,4.2c1,1.3,2.2,2.4,3.6,3.3c1.4,0.9,3,1.5,4.8,1.8v2.9
	c-1.9,0-4-0.4-6.4-1.2c-0.9-0.3-1.5-0.5-1.8-0.6c-0.3-0.1-0.6-0.1-1-0.1c-0.5,0-0.8,0.1-1.1,0.2s-0.6,0.4-1.1,0.8
	C366,299.3,365.5,299.5,365,299.5z M388.7,268.9c-1.7-1.4-3.8-2.3-6.4-2.8v-2.8c1.4,0.1,2.6,0.2,3.7,0.4s2.5,0.6,4.4,1.2
	c0.5,0.1,0.9,0.2,1.2,0.2c0.4,0,0.8-0.1,1-0.3l0.8-0.8c0.4-0.4,0.8-0.6,1.4-0.6c0.6,0,1.1,0.2,1.4,0.5c0.3,0.3,0.4,0.9,0.4,1.6v8.5
	c0,0.5-0.2,0.9-0.6,1.2c-0.4,0.3-0.9,0.5-1.5,0.5c-0.5,0-0.9-0.1-1.3-0.3c-0.2-0.1-0.4-0.3-0.5-0.5c-0.1-0.2-0.3-0.5-0.4-1
	c-0.3-0.8-0.7-1.7-1.3-2.6C390.3,270.4,389.5,269.6,388.7,268.9z M375.1,269.8c0,0.9,0.3,1.6,1,2.3c0.6,0.6,1.7,1.3,3.1,1.8
	c1,0.4,3.2,1.2,6.7,2.3c2.1,0.7,3.8,1.3,4.9,1.8s2.3,1.2,3.3,2c2.8,2.1,4.2,4.7,4.2,7.6c0,2.2-0.8,4.3-2.3,6.1
	c-1.5,1.8-3.6,3.3-6.2,4.3c-1.4,0.6-3,1-4.6,1.3c-1.7,0.3-3.2,0.5-4.7,0.5v-2.9c2-0.4,3.5-0.9,4.4-1.5c0.9-0.6,1.4-1.5,1.4-2.6
	c0-1.2-0.7-2.2-2.1-3c-0.9-0.6-2.7-1.3-5.4-2.1c-2.9-0.9-4.9-1.6-5.9-2s-2.1-0.9-3.1-1.4c-4.4-2.3-6.6-5.4-6.6-9.2
	c0-2,0.6-3.8,1.7-5.4c1.1-1.7,2.6-3,4.6-4c2.7-1.4,6.1-2.2,10.2-2.4v3c-1.5,0.3-2.6,0.7-3.3,1.4
	C375.5,268.1,375.1,268.9,375.1,269.8z M408.5,339.9c2,2.6,2.4,3.6,2.3,5.1c-0.1,1.8-0.6,2.3-5.6,6.7c-2.7,2.4-4.7,4.6-6.9,7.5
	c-5,6.6-7.1,10.4-10.5,19.4c-0.9,2.2-1.7,4.2-1.8,4.4c-0.7,1.5-1.9,2.2-3.4,2.4c-0.8,0.1-1.1,0-2-0.4c-1.4-0.7-1.9-1.6-2.3-3.7
	c-0.5-2.9-1.7-7.8-2.5-10.6c-2-6.8-4.6-12.5-8.5-18.4c-2.2-3.2-2.9-4.9-2.9-6.9c0-1.7,0.5-2.5,2.6-4.8c2.1-2.2,3.5-4.2,7.9-11.3
	c4.3-7.1,7.8-14.1,10.8-21.8c0.3-0.7,0.6-1.4,1-2.1c0.2-0.3,0.4-0.6,0.7-0.9c0.8-0.8,2.1-1.2,3.1-0.7c0.9,0.5,1.3,1.6,1.7,2.6
	c2.7,8.7,6.8,17,11.2,24.9C406.1,336.6,406.5,337.3,408.5,339.9z M280.6,341.3c1.4,1.5,1.8,2.5,1.8,3.7c0,1.6-0.5,2.3-3.2,4.8
	c-4.6,4.2-7.9,8.2-11.1,13.3c-2.2,3.6-3.7,7-4.7,10.5c-0.9,3.5-2.5,5.1-4.9,5.1c-1,0-2.5-0.8-3-1.6c-0.2-0.4-1-2.3-1.8-4.3
	c-1.6-4-2.7-6.5-5.3-10.9c-2.6-4.6-4.6-7.6-7.8-11.6c-2.7-3.4-3.5-5.2-3.1-6.9c0.3-1.2,0.6-1.6,3.4-4.1c3-2.7,4.5-4.2,6.3-6.3
	c3.5-4.2,6.1-8.3,7.7-12.2c0.3-0.6,0.7-2.3,0.9-3.6c0.2-1.4,0.7-3.3,1-4.2c0.4-1.5,0.6-1.9,1.3-2.5c0.5-0.4,1-0.8,1.5-0.9
	c1-0.2,1.5-0.2,2.8,0.2c1.3,0.3,2.5,1,2.9,1.7c0.2,0.2,0.7,1.6,1.3,2.9c4.1,9.7,5.2,12,8.9,18.9C278,337.8,279,339.5,280.6,341.3z
	 M168.5,330.2c0.6,1.5,0.7,2.9,0.1,4.6c-1.1,3.4-4.2,7.4-11,14.5c-2.7,2.8-3.3,3.5-3.2,3.8c0.4,1.2,1.6,3.2,4.7,7.8
	c3.7,5.6,4.6,7.1,5.7,9.9c2.6,6.6,1.6,10.9-3.4,13.2c-1.1,0.5-1.3,0.6-3.2,0.5c-2.9,0-4.1-0.4-9.7-3.2c-5.3-2.6-8.4-4.4-12.5-7.2
	c-1.5-1-2.9-1.9-3-1.9c-0.1,0-1.7,1.5-3.4,3.2c-5,4.9-7.1,6.5-10.9,8.5c-2.5,1.3-4.1,1.7-5.8,1.7c-1.2,0-1.5-0.1-2.7-0.6
	c-0.9-0.5-1.6-0.9-2.3-1.8c-2.4-2.6-2.9-5.5-1.9-10.2c0.4-1.7,3.2-10.1,4.3-12.9c0.4-0.9,0.6-1.7,0.6-1.8c0-0.1-1.5-0.9-3.3-1.8
	c-5.1-2.5-10.8-6-13.3-8.3c-2.7-2.4-3.7-4.2-3.9-6.9c-0.2-4.4,1.7-7.3,5.6-8.4c1.6-0.5,3.9-0.8,8.8-1.3c2.5-0.2,5.5-0.6,6.7-0.7
	s2.3-0.3,2.8-0.3c0.6,0,0.7,0,0.8-0.4c0-0.2,0.4-1.7,0.7-3.2c2.2-9.7,4.6-17,6.6-19.6c0.8-1,2.8-2.7,4-3.2c2-0.9,4.5-0.4,6.2,1.3
	c2.3,2.4,4.3,6.5,8,17.3c0.6,1.9,1.2,3.4,1.2,3.4c0,0,1.4,0,3-0.1c5.8-0.4,13.4-0.8,14.9-0.7C163.6,325.7,167.5,327.8,168.5,330.2z"
	/>
</svg>
