<?xml version="1.0" encoding="utf-8"?>
<!-- Generator: Adobe Illustrator 22.1.0, SVG Export Plug-In . SVG Version: 6.00 Build 0)  -->
<svg version="1.1" id="Layer_1" xmlns="http://www.w3.org/2000/svg" xmlns:xlink="http://www.w3.org/1999/xlink" x="0px" y="0px"
	 viewBox="0 0 432 432" enable-background="new 0 0 432 432" xml:space="preserve">
<path fill="#5EBB47" d="M111,153.9c-0.6-1.7-0.7-3.2-0.2-5c0.6-2.3,2-3.9,4.1-5c1.7-0.8,2.7-0.9,5.1-0.6c2.8,0.4,6.9,2.6,10.3,5.4
	c3.2,2.7,7.1,6.8,9.8,10.5c2.4,3.2,6.2,9.3,7.1,11.5c0.4,0.8,0.7,1.6,0.8,1.9c0.2,0.7,0.3,2.1,0,2.2c-0.1,0-0.2,0.1-0.1,0.2
	c0.2,0.1-0.1,0.8-0.4,0.9c-0.1,0-0.2,0.2-0.2,0.3c0.1,0.3-1.1,0.6-2,0.6c-0.8,0-1.4-0.6-3.1-2.6c-1.8-2.3-2.5-2.8-6.3-5.2
	c-3.4-2.1-8.1-4.6-16-8.2C113.9,158,112,156.6,111,153.9z M398.7,241.8c-0.5-0.4-1.8-1-2.6-1.1c-1.2-0.2-3.8-0.2-5.4,0.1
	c-1.7,0.2-5.1,1.1-7.7,1.9c-1,0.3-2.7,0.9-3.8,1.2c-3.4,1.1-4.9,1.9-4.9,2.8c0,0.6,0.4,1.4,0.8,1.4c0.1,0,0.1,0.1,0.1,0.1
	c0,0.1,0.1,0.1,0.2,0.1s0.2,0.1,0.2,0.1c0,0.1,3.4,0.6,5.7,0.8c1.6,0.1,9,0.1,11.2-0.1c4.1-0.4,7.1-2.1,7.4-4.2
	C400.1,243.8,399.6,242.7,398.7,241.8z M370,239.2c0,0.2,0.4,0.7,0.5,0.7c0.1,0,0.2,0.1,0.2,0.2c0.1,0.3,1.6,0.2,2.7-0.2
	c4.9-2,7.7-3.6,11.5-6.5c2.9-2.2,4.8-4.4,5.9-6.9c0.8-1.8,1.1-3.8,0.7-5.1c-0.5-1.4-1.7-2.6-2.9-2.8c-0.8-0.2-1.6-0.2-2.3,0.1
	c-2,0.8-3.2,2.1-5.6,6.3c-1.4,2.4-3.2,5.1-4.5,6.6c-0.7,0.8-2.3,2.5-3.6,3.8c-1.3,1.3-2.4,2.5-2.5,2.7c-0.2,0.5-0.3,0.9-0.2,1
	C370,239.1,370,239.2,370,239.2z M198.7,296.3c-4.2,5.6-22.7,9.2-33.3,9.2c-18.5,0-37.5-5.9-52.6-16.8c-8.7,3.9-18.8,5.3-28.6,5.3
	c-19.9,0-52.1-10.4-52.1-35c0-14,14.3-21.3,27.7-21.3c14,0,23,7,30.8,13.7c7.8,6.4,12.9,14.3,18.8,20.7c7.6-4.5,12.6-10.4,12.6-16.2
	c0-12.6-12.3-21-21.8-28.3c-10.1-7.6-26-19.3-26-34.2c0-17.1,16.5-24.1,32.5-24.1c17.6,0,37.2,12.3,37.2,32.2
	c0,5-2.2,17.4-11.2,13.4c-5.6-1.7-3.9-9.2-5.9-16.5c-1.7-8.4-12.3-15.7-21-14.6c-7.6,0.8-13.2,6.2-13.2,10.9c0,1.7,0.6,3.4,2,4.8
	c4.8,5.9,13.4,12,28.8,24.6c10.4,7.3,15.4,19.3,15.4,33c-0.8,11.8-7.8,20.4-16.2,26c13.2,9.5,30,15.1,47.6,15.1
	c12.9,0,22.7-3.1,26.9-4.8C198.4,293.7,200.6,293.5,198.7,296.3z M99,276.7c-6.7-6.7-12-14-21.3-20.2c-5.3-3.6-11.5-6.2-16.5-6.2
	c-4.5,0-13.4,3.9-13.4,9.8c0,12,26.6,18.8,36.7,18.8C88.6,278.9,92.8,278.6,99,276.7z M373.4,274.4c-8.7,14.6-16.2,17.4-22.7,16.8
	c-12.9-0.8-9.8-18.2-7-27.2c1.1-3.6-0.6-3.6-1.7-1.4c-4.8,11.2-5.6,21.6-6.2,23.5c-1.4,5.3-5.6,6.4-8.1,6.4c-5,0-7-5.3-7-5.3
	c-1.7-3.3-2.9-8-3.2-13.6c-2.9,2.5-6.5,4.6-11.4,4.6c-7.3,10.4-14.6,13.2-19.9,13.2c-7.9,0-11.8-5.5-13.1-12.5c-1.5,1-3,1.8-4.6,2.4
	c-4.5,7.8-16.2,14.3-24.1,6.7c-2.5-2.3-4.8-6.6-6.4-11.2c-7.3,12.7-12.6,14.3-18.8,14.3c-3.9,0-6.2-2.2-8.7-5
	c-7,3.6-15.1,6.7-22.7,4.5c-7.1-2.2-9.6-7.7-9.3-14.1c-7.2,7.9-18,13.8-28.3,14.6c-12.6,1.1-14.3-10.6-14.3-10.6
	c-3.4-20.2,14.6-34.2,23.5-36.4c5.6-1.4,12.9-0.6,16.2,5.6c2.2,4.2,1.7,9.8-1.4,14.3c-7.6,10.6-16.2,10.4-22.1,8.1
	c-2.9,21.3,19.7,7.2,27.6-2.2c3.6-11.4,13.8-23.4,23.1-25.8c6.2-1.4,12.6-0.3,16.2,5.6c3.1,5-4.8,8.7-6.7,5.3c-5-9-11.5,2.2-14,7.6
	c-7,18.5-0.3,20.7,3.9,20.7c2,0,4.5-1.1,5.9-2.5c-0.3-1.1-0.6-2.2-0.6-3.4c-0.6-3.9,0-9,2.8-13.2c2.2-3.4,8.1-10.9,15.4-5.9
	c3.6,2.5,2,8.4,0.8,11.5c-2,5-5.9,9.5-9,11.8c1.7,5.3,3.6,4.8,7,4.2c5-0.8,9.7-8.6,12-13.1c-1.8-7.9-0.9-15,6-12.6
	c1.1,0.3,2,0.8,2.8,1.4l4.5-6.2c-4.5-7-2.8-13.4-1.4-16.2c3.6-7.3,13.2-5.6,13.2,3.4c0.3,1.7-1.1,4.2-2.5,5.9
	c2.8,2.2,5.9,5.3,8.1,10.6c3.1,8.1,3.4,14,2.5,18.8c0.9-0.7,1.8-1.4,2.7-2.1c-0.4-5.7,0.6-11.9,2.3-16.7c5.9-15.1,23.8-20.4,16.5,0
	c-5.3,14.6-3.4,21,0.8,21c2.8,0,4.5-1.7,6.7-3.6c-7.6-5.6-7.6-26.3-0.6-33c9.5-9.5,21.6,0.6,15.1,21c-1.4,3.9-3.1,7.8-5.6,10.9
	c4-0.2,6.8-3.2,9.4-6c0.2-4.5,1.1-9.5,2.9-14.7c4.5-12.3,19.6-15.4,17.4-6.4c-3.9,15.7-5.9,29.7-4.5,24.9c1.7-5,3.6-10.9,3.6-10.9
	c5-16.2,17.1-17.1,20.7-16.5c3.6,0.6,5.6,5,2.5,14.3c-8.7,24.6-6.2,26.9-1.7,25.8c5.9-1.4,14-16.2,14-16.2c1.1-2,2.2-3.1,3.4-2.5
	C377.9,268,373.4,274.4,373.4,274.4z M153,269.7c3.4,0.8,6.4,0.6,8.7-0.3c14-4.8,9.2-22.1,0.8-17.1C156.9,255.7,155,263.5,153,269.7
	z M219.7,264.6c-1.1,1.4-2.5,4.5-3.1,6.2c-0.6,2-0.6,3.4-0.3,4.8C219.7,272.5,222.2,261.3,219.7,264.6z M241.1,267l2.1-2.6
	c0-0.3-2.1,0.3-2.2,2.6C241,267,241,267,241.1,267z M255.5,278.6c-2.8-3.9-6.4-8-10-11.9c0,0,0,0.1-0.1,0.2
	c-1.5,2.5-2.7,4.2-3.6,5.1c0.5,1.4,0.9,2.5,1.1,2.7c2.8,6.2,4.5,8.1,7.6,8.4C252.1,283.4,254.1,281.7,255.5,278.6z M252.1,258.2
	l-3.9,5.3c3.1,3.1,5.3,6.7,8.7,10.4C257.5,269.4,256.3,263.8,252.1,258.2z M257.5,241.1c-1.4-5.3-5.9-3.1-4.5,1.1
	c0.6,2,1.4,2.8,3.4,3.9C257.2,244.5,258,242.8,257.5,241.1z M306.2,251.5c-3.6-5.6-6.7,2.2-7,5.6c-0.3,5-0.8,11.5,2.5,16
	C306.5,265.5,309.3,256.5,306.2,251.5z M389.5,260.3c-2.1-1.4-5.3-2.9-7.9-3.8c-2.3-0.8-6.6-1.9-8-2.1c-0.5-0.1-1.1-0.1-1.3-0.1
	c-0.5,0-1.3,0.2-1.3,0.4c0,0.1,0,0.1-0.1,0.1c-0.1-0.1-0.4,0.2-0.4,0.4c0,0.1-0.1,0.1-0.1,0.1c-0.2,0-0.2,0.8,0,1.3
	c0.2,0.4,0.6,0.7,2.1,1.4c1.7,0.7,2.1,1,4.2,2.8c1.9,1.6,4.1,3.9,7.7,7.9c2.7,3.1,3.9,3.9,5.7,4c1.1,0.1,2-0.2,3-0.8
	c1.2-0.8,2-1.9,2.2-3.3c0.2-1.1,0.1-1.8-0.6-3.1C393.8,263.8,391.8,261.8,389.5,260.3z"/>
<path fill="#EC2526" d="M144.1,139.5c0.6,0.7,0.9,1.5,0.9,2.3c0,1.1-0.4,1.9-1.1,2.6c-0.7,0.7-1.6,1-2.7,1c-1.1,0-1.9-0.4-2.5-1.1
	c-0.6-0.7-1-1.6-1.1-2.5c-0.2-1.4,0.1-2.7,0.8-4.1c0.7-1.4,1.8-2.3,3.1-2.8c1-0.4,1.7-0.1,2.1,0.7c0.4,0.9,0.2,1.5-0.7,2l-0.9,0.4
	C142.8,138.4,143.5,138.9,144.1,139.5z M208.3,173.3c0,1.1,0.4,2,1.2,2.8c0.8,0.8,1.7,1.2,2.8,1.2c1.1,0,2-0.4,2.8-1.2
	c0.8-0.8,1.2-1.7,1.2-2.8c0-1.1-0.4-2-1.2-2.8c-0.8-0.8-1.7-1.2-2.8-1.2c-1.1,0-2,0.4-2.8,1.2C208.7,171.4,208.3,172.3,208.3,173.3z
	 M340.1,167c-0.4-0.6-0.1-1.3,0.6-1.3c0.2,0,0.3,0,0.7,0.2c0.2,0.1,0.9,0.4,1.4,0.7c0.6,0.3,1.3,0.6,1.6,0.8l0.6,0.4l0.9-0.6
	c1.5-0.9,2.2-1.3,3.3-2c0.6-0.4,1.1-0.7,1.1-0.7c0,0,0-0.1-0.1-0.3c-0.3-1-0.3-1.9-0.1-2.8c0.1-0.2,0.1-0.3,0-0.3
	c-0.2-0.2-4-2.5-4.5-2.8c-0.1-0.1-0.2,0-1.5,0.4c-0.8,0.3-1.6,0.5-1.9,0.6c-0.2,0.1-0.6,0.1-0.7,0.2c-0.4,0.1-0.8,0-1-0.4
	c-0.2-0.4-0.1-0.9,0.4-1.1c0.1-0.1,0.4-0.1,0.6-0.2c0.5-0.1,2.1-0.7,2.1-0.7c0,0-0.1-0.1-0.3-0.2c-0.2-0.1-0.5-0.3-0.9-0.5
	c-0.3-0.2-0.7-0.4-0.8-0.5c-0.3-0.2-0.4-0.3-0.5-0.5c-0.1-0.2-0.1-0.4,0-0.6c0.1-0.3,0.4-0.5,0.8-0.5c0.3,0,0.5,0.1,2.6,1.5l0.5,0.3
	l0-0.1c0-0.1,0-0.9,0-1.9c0-1.7,0-1.7,0.1-1.9c0.2-0.3,0.6-0.5,0.9-0.4c0.2,0.1,0.5,0.2,0.6,0.5c0.1,0.2,0.1,0.2,0.1,1.8
	c0,1.4,0,2.5-0.1,2.9c0,0.1,0,0.1,0.8,0.6c0.5,0.3,1.4,0.8,2,1.3c0.7,0.4,1.3,0.8,1.4,0.8l0.2,0.1l0.2-0.2c0.5-0.6,1.1-1,1.8-1.3
	c0.6-0.3,1.4-0.5,1.9-0.5c0.2,0,0.2,0,0.2-0.1c0-0.2,0.3-3.3,0.4-4.6l0-0.4l-0.4-0.4c-0.2-0.2-0.7-0.8-1.2-1.3
	c-0.4-0.5-0.8-0.9-0.9-1c-0.1-0.1-0.2-0.2-0.3-0.3c-0.4-0.3-0.5-0.7-0.3-1.1c0.2-0.4,0.7-0.6,1.1-0.4c0.2,0.1,0.7,0.6,1.5,1.5
	c0.4,0.4,0.6,0.7,0.7,0.6c0,0,0.1-0.8,0.2-1.9c0-0.4,0.1-0.6,0.1-0.7c0.1-0.2,0.3-0.3,0.4-0.4c0.4-0.1,0.8,0,1,0.4
	c0.1,0.2,0.2,0.6,0.1,1c-0.1,0.4-0.3,2.2-0.2,2.3c0,0,0.3-0.1,0.7-0.3c3.1-1.7,3.3-1.9,3.6-1.9c0.4,0,0.6,0.2,0.8,0.5
	c0.1,0.2,0.1,0.4,0.1,0.6c-0.1,0.3-0.3,0.4-0.9,0.7c-0.3,0.2-0.8,0.4-1,0.5c-0.2,0.1-0.7,0.4-1,0.5c-0.3,0.2-0.8,0.5-1.2,0.7
	s-0.8,0.4-0.9,0.5c-0.2,0.1-0.3,0.2-0.3,0.2c0,0-0.1,0.6-0.1,1.2c0,0.6-0.1,1.7-0.2,2.4c-0.1,0.7-0.1,1.3-0.1,1.3
	c0,0,0.2,0.1,0.5,0.2c0.6,0.2,1.1,0.4,1.6,0.8c0.2,0.2,0.5,0.3,0.6,0.4c0.1,0.1,0.2,0.1,0.3,0.2l0.1,0.1l0.3-0.2
	c0.2-0.1,0.5-0.2,0.7-0.4c0.2-0.1,1-0.6,1.8-1c1.9-1.1,2.2-1.3,2.3-1.4c0.1-0.1,0.4-1.3,0.6-2.4c0.4-1.7,0.5-2.1,0.7-2.3
	c0.4-0.4,1-0.3,1.3,0.2c0.1,0.2,0.1,0.5,0,0.9c-0.1,0.4-0.6,2.5-0.5,2.5c0,0,0.3-0.2,0.6-0.4c1-0.6,1.8-1,2-1.1
	c0.4-0.1,0.7,0.1,0.9,0.4c0.1,0.2,0.1,0.6,0,0.8c-0.2,0.3-0.4,0.4-0.6,0.5c-0.2,0-0.6,0.2-1.5,0.8c-0.3,0.2-0.6,0.4-0.7,0.4
	c-0.1,0.1-0.2,0.1-0.2,0.1c0,0,0.3,0.2,0.7,0.3c0.4,0.2,1.1,0.5,1.5,0.7c0.4,0.2,0.9,0.4,1,0.5c0.5,0.2,0.7,0.4,0.7,0.8
	c0.1,0.4-0.2,0.8-0.6,0.9c-0.1,0-0.3,0.1-0.4,0c-0.1,0-0.6-0.3-1.3-0.6c-0.6-0.3-1.5-0.7-1.9-0.9c-0.4-0.2-1-0.4-1.2-0.6
	c-0.4-0.2-0.4-0.2-0.5-0.2c-0.1,0-0.3,0.2-0.5,0.3c-0.2,0.1-0.8,0.5-1.2,0.7c-0.4,0.2-1.1,0.6-1.5,0.9c-0.4,0.2-1,0.6-1.3,0.7
	c-0.5,0.2-0.6,0.3-0.6,0.4c0.1,1.2,0.1,2,0,2.6c-0.1,0.4-0.3,1.1-0.4,1.3c0,0.1-0.1,0.2-0.1,0.2c0,0.1,4.3,2.7,4.5,2.7
	c0.1,0,1.3-0.3,2-0.6c0.3-0.1,0.8-0.3,1.3-0.4c0.8-0.2,0.8-0.2,1-0.2c0.4,0.1,0.6,0.4,0.6,0.8c0,0.4-0.2,0.6-0.6,0.8
	c-0.2,0.1-0.9,0.3-2.1,0.7c-0.1,0-0.3,0.1-0.3,0.1c0,0,0.5,0.3,1,0.7c1.3,0.8,1.3,0.8,1.4,1c0.1,0.2,0.1,0.5,0.1,0.7
	c-0.1,0.2-0.3,0.4-0.6,0.5c-0.3,0.1-0.5,0-0.9-0.2c-1.2-0.7-2.2-1.4-2.3-1.4c0,0-0.1,0.1-0.1,0.9c0,1,0,1.5,0,2c0,0.4,0,0.5-0.2,0.7
	c-0.1,0.1-0.4,0.2-0.5,0.2c-0.3,0-0.7-0.2-0.8-0.4c-0.1-0.2-0.2-0.9-0.1-1.8c0-0.5,0-1.3,0.1-1.8l0-0.8l-0.9-0.5
	c-0.9-0.5-2.6-1.5-3.2-1.9c-0.2-0.1-0.4-0.2-0.4-0.2c0,0-0.2,0.1-0.4,0.3c-0.4,0.4-0.7,0.5-1,0.7c-0.5,0.2-1.5,0.4-2.2,0.5l-0.2,0
	l0,0.5c0,0.3-0.1,0.9-0.1,1.5c0,0.5-0.1,1.3-0.1,1.7c0,0.4-0.1,0.9-0.1,1.1c0,0.2,0,0.5,0,0.6l0,0.2l0.2,0.2c0.1,0.1,0.6,0.4,1,0.8
	c1.4,1.1,2,1.6,2.1,1.9c0.2,0.6-0.2,1.1-0.8,1.1c-0.3,0-0.4-0.1-0.9-0.5c-0.5-0.4-1.6-1.3-1.7-1.3c0,0,0,0.4-0.1,1
	c0,0.5-0.1,1.1-0.1,1.2c-0.1,0.5-0.7,0.8-1.2,0.6c-0.2-0.1-0.3-0.2-0.4-0.5c-0.1-0.2-0.1-0.2,0-0.6c0-0.3,0.1-0.7,0.1-1
	c0-0.6,0-0.6-0.1-0.5c-0.5,0.4-1.4,1.1-1.8,1.4c-0.6,0.4-0.7,0.5-0.9,0.5c-0.4,0-0.8-0.4-0.8-0.8c0-0.2,0.1-0.4,0.2-0.5
	c0.1-0.1,0.9-0.7,1.4-1.1c0.3-0.2,0.6-0.5,0.8-0.6c0.4-0.3,1.2-1,1.3-1.1c0.1-0.1,0.1-0.1,0.1-0.6c0-0.3,0.1-1,0.1-1.5
	c0-0.6,0.1-1.3,0.1-1.7c0-0.4,0.1-1,0.1-1.3c0-0.3,0-0.6,0-0.6c0,0-0.1-0.1-0.2-0.1c-0.6-0.2-1.5-0.8-2-1.4
	c-0.2-0.2-0.3-0.4-0.4-0.4c0,0-3,1.8-3.7,2.3c-0.5,0.3-1,0.6-1.2,0.8c-0.5,0.3-0.4,0.1-0.7,1.5c-0.3,1.6-0.7,2.8-0.8,3
	c-0.4,0.5-1.3,0.3-1.4-0.3c-0.1-0.2,0-0.3,0.2-1.5c0.3-1.1,0.3-1.3,0.3-1.2c-0.1,0.1-1.8,1.1-2.4,1.5c-0.7,0.5-1.5-0.3-1.2-1
	c0.1-0.2,0.4-0.4,1.2-0.9c1.4-0.8,2.1-1.2,2.1-1.3c0-0.1-0.6-0.3-1.5-0.8C340.9,167.5,340.3,167.2,340.1,167z M351.9,163.3
	c0.1,0.5,0.2,1.1,0.4,1.3c0.2,0.3,0.6,0.8,0.9,1c0.5,0.4,0.8,0.5,1.3,0.7c0.4,0.1,0.4,0.1,1.1,0.1c0.8,0,1.2-0.1,1.7-0.3
	c0.3-0.1,0.7-0.4,1.1-0.9c0.7-0.8,0.9-2,0.8-3.5c-0.1-0.9-0.2-1.1-1.1-1.7c-0.6-0.4-1.4-0.7-2.1-0.8c-0.4-0.1-1-0.1-1.3,0
	c-0.3,0.1-0.8,0.3-1.2,0.5c-0.5,0.3-1,0.8-1.3,1.4c-0.2,0.4-0.3,0.7-0.3,1.2C351.8,162.8,351.8,162.9,351.9,163.3z M310,169.1v6.6
	c0,29.3-10.7,51.2-27.7,52.5c-8.6,0-15.6-5.7-15.6-16c0-11.6,7.2-20.5,15.2-20.5c5.7,0,10.2,1.7,12.2,10.4c0.3,1.4-3.8-3.1-5.2-4.4
	c-0.6-0.6,0.6,8.2,0.3,7.2c-3.3-12.2-18.4-4.7-18.4,6.9c0,6.5,3.9,11.4,10.7,11.4c15.7,0,21.4-30.1,21.5-54.6
	c-8.7-1.1-13.8-5.5-19.4-10.6c-6.6-5-14.2-10.5-23-10.5c-6.9,0-17.5,7.1-18.2,16.6c-0.2,2.5-2.1-4.5-1.6-8c0.2-1.5-5.1,7.2-5.1,5.9
	c0-11.7,13.6-19.5,24.7-19.5c9.8,0,19.8,6.1,26.6,12.4c5.5,4.2,8.2,7.2,15.8,8.7c0-9.4,2.1-28.7,15.1-28.7c3,0,5.7,2.1,7.2,5.2
	c0.8,1.9,1.3,4.2,1.3,6.7C326.7,159.5,318.4,167.7,310,169.1z M321.7,152c0.5-1.9,0.8-3.6,0.8-5.1c0-4.1-2-7-4.6-7
	c-7.9,0-8,15.2-8,24.2C315.7,162.3,319.6,159.2,321.7,152z M395.1,200.3c0,0.3-0.1,0.6-0.2,0.9c-7.6,16.4-17.2,26.7-25.6,26.7
	c-9.8,0-13.7-6.7-13.9-15.2c-0.2,0.4-0.5,0.8-0.7,1.3c-5.6,9.8-9,14-12,14c-16.4,0,4.3-46.1-2-46.1c-1,0-5.8,1.7-13.9,23.8
	c-8,21.6-5.7,22.3-8.6,22.3c-7.4,0,4.7-72,11.9-72c1.2,0,2.1,0.9,2.1,2v0.4l-7,40.3c5.8-14.3,10.8-20.9,15.5-20.9
	c18.2,0-1.4,46,1.8,46c0.1,0,0.7,0.2,3.7-3.8c3.3-4.6,9.8-17.2,11.3-20.2c3.7-11.3,11.6-21.8,19.8-21.8c2.9,0,6.4,2.8,6.4,7.5
	c0,11-11.5,23.4-20.1,24.3c-0.2,1.3-0.2,2.6-0.2,3.7c0,6.3,2.1,10.4,5.8,10.4c6.6,0,15.2-9.8,21.9-24.3c0.4-0.7,1.1-1.2,2-1.2
	C394.3,198.2,395.1,199.3,395.1,200.3z M364.5,205.4c5.2-1.2,9.1-6.3,10.8-8.8c3.1-4.7,4.3-9.2,4.3-11.5c0-2.7-2.1-3-2.2-3
	C374.2,182.1,367.2,191.5,364.5,205.4z M257.5,184.5c0.2,0.4,0.2,0.8,0,1.3c-2.7,7.4-7.3,12-13.8,13.9c0.3,1.1,0.4,2.2,0.4,3.3
	c0,1.2-0.1,2.2-0.3,3.2c-0.7,2.6-2.1,4.7-4.1,6.2c-2.1,1.5-4.5,2.3-7.3,2.3c-1.6,0-3-0.3-4.1-0.9c-1.1-0.6-1.9-1.4-2.5-2.4
	c-0.5-1-0.8-2-0.9-3.2c0-1.2,0.2-2.3,0.8-3.3c1-1.8,2.4-3.2,4.4-4.2c1.9-1,3.7-1.7,5.2-2.2c-0.5-1.3-1.1-2.4-1.8-3.6
	c-0.7-1.1-1.4-2.2-2-3.3c-0.3-0.5-0.5-0.9-0.8-1.4c-1.1,2.7-2.1,5.3-3.2,7.9c-1.5,3.6-3.1,7.2-4.9,10.8c-1.1,2.1-2.2,3.6-3.5,4.5
	c-1.3,0.9-2.5,1.3-3.6,1.3c-1.2,0-2.2-0.3-3.2-0.9c-1-0.6-1.7-1.4-2.2-2.2c-1-1.7-1.7-3.9-2.1-6.6c0-0.1,0-0.3-0.1-0.4
	c-3.6,6.3-5.9,9-7.8,9c-10.9,0,2.9-30.8-1.3-30.8c-0.7,0-3.9,1.1-9.3,15.9c-5.3,14.4-3.8,14.9-5.7,14.9c-4.9,0,3.1-48,7.9-48
	c0.8,0,1.4,0.6,1.4,1.3v0.3l-4.7,26.9c3.9-9.5,7.2-14,10.4-14c12.2,0-1,30.7,1.2,30.7c0.1,0,0.5,0.1,2.5-2.6
	c1.3-1.8,3.3-5.4,4.9-8.4c-0.1-1-0.1-2.1-0.2-3.1c-0.1-2.9-0.1-5.7,0-8.4c0.1-2.7,0.2-5,0.4-7c0.1-0.7,0.6-1.2,1.5-1.6
	c0.9-0.4,1.8-0.6,2.8-0.6c1,0,1.9,0.2,2.8,0.5c0.8,0.3,1.2,0.9,1.2,1.8c0,1.2,0,2.9-0.1,5.2c-0.1,2.3-0.2,4.7-0.3,7.3
	c-0.1,2.6-0.1,5.2-0.1,7.8c0,2.6,0.1,4.7,0.3,6.5c0.6,4.2,1.9,4.2,3.9,0.1c1.7-3.5,3.4-7.2,5.1-11.2c1.5-3.7,3-7.3,4.4-10.8
	c-0.6-2-0.6-4,0.1-6c0.4-1.2,1.1-2.1,2-2.8c1-0.7,2.1-1.1,3.3-1.3c1.4-0.2,2.6,0,3.8,0.6c1.2,0.6,2.1,1.5,2.5,2.9
	c0.3,0.9,0,1.5-1,1.7c-1,0.3-1.6,0-1.9-0.7c-0.2-0.8-0.7-1.1-1.4-1.1c-0.7,0-1.2,0.4-1.5,1.1c-0.6,1.5-0.4,3,0.5,4.6
	c0.9,1.6,1.8,2.9,2.5,4c0.9,1.2,1.7,2.4,2.5,3.6c0.8,1.3,1.5,2.5,2.2,3.8c5.5-1.7,9.5-5.8,11.9-12c0.2-0.5,0.5-0.8,0.9-0.9
	c0.4-0.1,0.7-0.1,1.1,0C257,183.9,257.3,184.2,257.5,184.5z M236.4,204.3c0-1-0.2-1.9-0.4-2.7c-1.8,0.6-3.4,1.2-4.6,1.8
	c-1.3,0.6-2.2,1.5-2.8,2.7c-0.8,1.4-0.8,2.7-0.1,4s1.8,1.8,3.5,1.5c1.3-0.3,2.2-0.8,2.9-1.6c0.7-0.8,1.1-1.7,1.3-2.7
	C236.4,206.4,236.4,205.4,236.4,204.3z M182.1,140.4c0-0.9-0.4-1.5-1.2-2c-0.8-0.5-1.8-0.7-2.8-0.8c-1.1,0-2,0.1-2.9,0.5
	c-0.9,0.4-1.4,1-1.5,1.7c-0.8,8.8-1,17.4-0.8,25.9c0.2,8.5,0.2,17.1-0.1,25.9c-0.1,2.4-0.3,5.1-0.6,8.1c-0.3,3-0.9,5.7-2,8.3
	c-1,2.6-2.5,4.8-4.4,6.6c-1.9,1.8-4.4,2.7-7.6,2.7c-2.6,0-4.8-0.8-6.6-2.3c-1.8-1.5-2.8-3.6-3-6.2c-0.1-1.2,0-2.3,0.2-3.4
	c0.2-1.1,0.6-2.1,1.2-3c0.5-0.9,1.3-1.7,2.2-2.2c0.9-0.6,2-0.9,3.3-1c0.5,0,0.8-0.2,1.1-0.5c0.2-0.3,0.4-0.7,0.4-1s-0.1-0.6-0.4-0.9
	c-0.3-0.3-0.7-0.4-1.2-0.4c-3.1,0.2-5.6,1.5-7.4,4.1c-1.8,2.5-2.7,5.4-2.5,8.6c0.3,3.5,1.6,6.2,4,8.3c2.4,2,5.2,3.1,8.6,3.2
	c2.6,0.1,5-0.3,7.1-1.1c2.1-0.8,4-1.9,5.7-3.2c1.6-1.3,3.1-2.9,4.3-4.7c1.2-1.8,2.2-3.8,3.1-5.9c1-2.3,1.7-5,2.2-8
	c0.5-3,0.9-6.1,1.2-9.3c0.3-3.2,0.5-6.3,0.5-9.4c0-3.1,0.1-5.9,0.1-8.4c0-5.2-0.1-10.2-0.3-14.9
	C181.9,150.6,181.9,145.6,182.1,140.4z M146.2,147.6c0.4,0.1,0.8,0.1,1.1-0.1c0.3-0.2,0.6-0.5,0.8-1c1.1-3.8,2.7-6.6,4.9-8.3
	c2.2-1.8,4.7-2.9,7.5-3.4c2.9-0.5,5.9-0.6,9.1-0.2c3.2,0.3,6.3,0.7,9.4,1.1c2.5,0.3,5.2,0.6,8.2,0.9c2.9,0.3,5.8,0.4,8.6,0.1
	c2.8-0.2,5.4-0.9,7.9-2.1c2.5-1.2,4.5-3.1,6-5.8c0.5-0.9,0.3-1.5-0.6-2c-0.9-0.5-1.5-0.3-2,0.4c-1,1.6-2.5,2.8-4.5,3.3
	c-2,0.6-4.2,0.9-6.6,0.9c-2.4,0-4.7-0.1-7-0.4c-2.3-0.3-4.2-0.5-5.7-0.7c-3.9-0.4-7.8-0.7-11.8-0.9c-4-0.2-7.7,0.1-11.1,1
	c-3.4,0.9-6.5,2.5-9.2,4.8c-2.7,2.3-4.7,5.8-6.1,10.4c-0.2,0.5-0.2,0.9,0.1,1.2C145.5,147.2,145.9,147.5,146.2,147.6z"/>
</svg>
