<?xml version="1.0" encoding="utf-8"?>
<!-- Generator: Adobe Illustrator 22.1.0, SVG Export Plug-In . SVG Version: 6.00 Build 0)  -->
<svg version="1.1" id="Layer_1" xmlns="http://www.w3.org/2000/svg" xmlns:xlink="http://www.w3.org/1999/xlink" x="0px" y="0px"
	 viewBox="0 0 1080 1296" enable-background="new 0 0 1080 1296" xml:space="preserve">
<path fill="#EE4546" d="M314.3,305.4c5.1-2.6,10-7.7,14.5-15.6c4.5-7.8,8.9-17.1,12.9-27.7c4.1-10.7,7.8-22.1,11.3-34.4
	c3.5-12.3,6.8-24.1,9.9-35.5c2.6-9.4,4.9-17.9,7.1-25.7c2.2-7.7,4.1-13.9,5.7-18.4h2.1c1.6,0,3.2,0,4.8,0.1c1.6,0.1,3.4,0.1,5.4,0.1
	c2.3,0,4.5-0.1,6.8-0.2c2.3-0.1,4.4-0.4,6.4-0.6c6.4-1.1,11.1-2.9,14-5.2c2.9-2.3,4.6-5,5-8c0.4-2.8-0.2-5.8-1.8-8.7
	c-1.6-3-4-5.6-7-7.9c-3.1-2.3-6.7-4-10.9-5.1c-4.2-1.1-8.6-1.3-13.3-0.4c-8.8,1.4-15.5,4.6-20.2,9.6c-4.6,5-8.3,10.9-11,17.7
	c-6-0.6-12.8-1.3-20.5-2.2c-7.7-0.9-15.4-2.1-23.2-3.4c-7.8-1.3-15.2-3-22.2-5c-7-2-12.7-4.3-17.3-7l0.2,0.2c-1.6-1.3-3-1.7-4.4-1.2
	c-1.4,0.5-2.8,1.6-4.4,3.3c-0.3,0.7-0.3,1.4,0,2c0.3,0.6,1.1,1.4,2.3,2.2h0.2c4.4,2.6,10.2,4.8,17.4,6.7c7.2,1.9,14.8,3.6,22.9,5.1
	c8.1,1.5,16.2,2.8,24.3,3.8c8.1,1.1,15.3,1.9,21.5,2.5c-0.6,1.6-1.2,3.6-1.8,6c-0.6,2.4-1.4,5.3-2.2,8.5c-1-1.1-2.1-1.8-3.3-1.9
	c-1.2-0.1-2.5,0.1-3.7,0.9h0.2c-8.2,3-16.1,7.4-23.7,13.2c-7.5,5.8-14.3,12.6-20.3,20.3c-6,7.7-11,15.9-14.9,24.7
	c-4,8.8-6.6,17.7-7.9,26.7c-1.4,9.8-0.7,19.6,2.1,29.3c2.8,9.7,7.9,18.4,15.1,26.1C299.3,307.1,306.5,308.9,314.3,305.4z
	 M383.4,130.7c1.7-2.6,3.5-4.6,5.3-6.2c2.6-2.1,5-3.2,7.3-3.2c1.7,0,3.4,0.4,5,1.2c1.6,0.8,3.1,1.8,4.3,3c1.2,1.2,2.1,2.5,2.7,3.9
	c0.6,1.4,0.8,2.8,0.6,4.3c-0.1,1.4-0.9,2.7-2.2,3.8c-1.4,1.1-3.4,2-6.3,2.6h0.2c-2,0.3-3.9,0.5-5.9,0.6c-1.9,0.1-3.8,0.2-5.7,0.2
	c-1.8,0-3.6,0-5.2-0.1c-1.6-0.1-3.2-0.1-4.6-0.1h-0.6C380,136.6,381.7,133.2,383.4,130.7z M286.8,245.4c1.1-8.5,3.5-17,7.1-25.4
	c3.6-8.4,8.1-16.2,13.5-23.4c5.4-7.2,11.5-13.5,18.3-19c6.8-5.5,14-9.5,21.5-12h0.2l-1.3,4.9c-2.1,7.8-4.6,16.5-7.4,26.1
	c-2.8,9.6-5.6,19.2-8.5,28.9c-2.9,9.7-5.9,19-8.9,27.9s-5.8,16.8-8.4,23.5c-2.6,6.7-5,11.8-7.1,15.2c-2.1,3.5-3.8,4.6-5.1,3.3
	c-6.7-6.4-11.1-14-13.1-22.7C285.7,264.1,285.3,255,286.8,245.4z M481.5,205.3c-1.8-2.3-2.6-4.6-2.3-7c0.3-3,1.7-5.3,4.4-6.8
	c2.6-1.6,5.8-2,9.5-1.3c3.3,0.7,5.9,2.2,7.9,4.5c2,2.3,2.8,4.6,2.6,7c-0.6,3.1-2.2,5.5-4.8,7c-2.6,1.6-5.8,1.9-9.5,1.1
	C485.9,209.1,483.3,207.6,481.5,205.3z M543,295.8c3.8-5.3,6.1-11,6.9-17.3c0.6-5.1,0.6-10.4,0-15.8c4.4-2.6,9.1-5.7,14.2-9.5
	c5-3.8,9.3-8.1,12.9-13.1c0-0.4-0.5-0.8-1.5-1.2c-1-0.4-2.2-0.6-3.5-0.7c-1.4-0.1-2.7-0.1-4.1,0.1c-1.4,0.2-2.3,0.7-2.9,1.6
	c-2,3-4.5,5.7-7.6,8c-3.1,2.3-6.3,4.6-9.7,6.7l-3-7.9v0.2l-3.2-8.5c-0.7-2.3-1.3-4.7-1.7-7.1c-0.4-2.5-0.5-4.9-0.2-7.4
	c0.4-3.7,2.1-7.2,4.9-10.5l-0.4,0.2c2.4-2,4.1-3,4.9-3c1.4,0,2.1,1.2,2,3.5c-0.1,2.3-0.7,5.2-2,8.4c0,0.4,0.5,0.9,1.5,1.3
	c1,0.4,2.1,0.8,3.3,1.1c1.2,0.3,2.4,0.4,3.5,0.3c1.1-0.1,1.8-0.3,2.1-0.7c0.6-1.3,1-2.5,1.4-3.7c0.4-1.2,0.6-2.3,0.7-3.3
	c0.7-4.8-0.4-8.9-3.3-12.1c-2.9-3.2-7.9-4.4-14.8-3.7c-5.4,0.7-9.9,2.2-13.5,4.4c-3.6,2.2-6.4,5-8.2,8.3c-1.8,3.3-2.8,7.2-3,11.5
	c-0.1,4.3,0.4,9,1.7,14h-0.2c0,0.2,0.1,0.4,0.2,0.7l-1.5,2.3c-1.6,2.7-3.6,6.1-6.2,10.2c-2.6,4.1-5.3,8.4-8.1,12.7
	c-2.8,4.3-5.8,8.5-8.9,12.5c-3.1,4-5.9,7.1-8.6,9.4c-0.3,0.3-0.7,0.6-1.4,1.1c-0.6,0.4-1.2,0.8-1.8,1.1c-0.6,0.3-1.1,0.4-1.6,0.4
	c-0.5,0-0.7-0.2-0.7-0.6c-0.4-1-0.7-2.4-0.7-4.2c-0.1-1.8,0.3-4.6,1.2-8.4c0.9-4.4,2-8.6,3.3-12.7c1.4-4.1,2.9-8.2,4.6-12.5
	c2-5.4,3.8-10.7,5.4-15.8c1.6-5.1,2.7-9.7,3.3-13.9c0.3-2.1-0.3-4-1.6-5.5c-1.4-1.6-3.1-2.8-5.2-3.7c-2.1-0.9-4.4-1.5-6.7-1.8
	c-2.3-0.3-4.3-0.1-5.9,0.4c-1.7,0.9-2.7,1.9-3,3.1c-0.3,1.2-0.1,2.2,0.6,2.9l-0.9-0.4c0.3,1,0.1,2.6-0.6,4.9
	c-0.7,2.3-1.6,5.3-2.8,9.2c-0.4,1.6-0.9,3.1-1.5,4.7c-0.4,1.1-0.7,2.2-1.1,3.3c-0.6,0.9-1.7,2.7-3.5,5.5c-2.5,3.8-5.6,8.4-9.3,13.8
	c-3.7,5.3-7.7,11-12,17c-4.3,6-8.4,11.2-12.3,15.6l-6.8,7.5c0.1-0.3,0.3-0.7,0.4-1.3c0.1-0.6,0.3-1.2,0.4-1.9
	c0.1-0.7,0.3-1.5,0.4-2.3c0.1-0.9,0.4-1.9,0.9-3.2c0.3-1.6,0.6-3,1.1-4.4c0.4-1.3,0.9-2.8,1.5-4.4l1.5-4.5l1.3-3.4
	c1.1-3.3,2.4-7,3.7-11.2c1.3-4.2,2.3-8.4,2.9-12.5c0.4-2.8,0.5-5.5,0.2-8c-0.3-2.5-1-4.9-2.1-7.1l0.2,0.2c-1.4-2.8-3.4-4.8-6.1-5.9
	c-2.6-1.1-5.4-1.6-8.4-1.6c-4.3,0-8.4,1-12.4,3.1c-4,2.1-7.2,4.7-9.6,8h0.2c-1.6,2.3-3,4.5-4.2,6.6c-1.2,2.1-2.3,4.2-3.3,6.2
	c0.7-2.8,1.5-5.7,2.3-8.6c0.9-2.9,1.8-5.8,2.8-8.6l-1.9,1.1c3-2.1,6.4-5.2,10.2-9.1c3.8-3.9,7.7-8.4,11.6-13.3
	c3.9-5,7.7-10.3,11.5-15.9c3.8-5.6,7.2-11.2,10.2-16.6c3.1-5.5,5.5-10.7,7.4-15.7c1.8-5,2.9-9.3,3.2-13c0.4-4.5-0.8-8-3.6-10.2
	c-2.8-2.3-6.4-3.4-10.7-3.4c-2.8,0-5.7,0.5-8.5,1.5c-2.8,1-5.5,2.7-7.9,5.1c-3.6,3.4-7.2,8.1-11,14c-3.8,5.9-7.5,12.5-11.1,19.9
	c-3.6,7.4-7.1,15.2-10.5,23.6c-3.3,8.3-6.4,16.6-9.1,24.7c-2.7,8.2-5,15.9-6.8,23.2c-1.8,7.3-3.1,13.7-3.6,19.1
	c-0.3,5,0.4,9.1,2,12.4c1.6,3.3,4.1,4.9,7.4,4.9c2.4,0,4.7-0.6,6.9-1.7c2.2-1.1,4.4-3.1,6.5-6c2.4-3.1,4.4-6.3,6.1-9.6
	c1.6-3.3,3.2-6.5,4.6-9.8c1.1-3,2.4-6,3.8-9c1.4-3,2.9-5.5,4.5-7.7c1.1-1.6,2.2-2.8,3.1-3.7c0.9-0.9,1.6-1.4,2-1.4
	c0.9,0,1.4,1,1.7,2.9c0.3,1.9,0.3,4.3,0,7.1c-0.7,4.1-1.7,8.2-3,12.4c-1.3,4.1-2.6,8.4-4.1,12.8c-0.9,2.8-1.8,5.7-2.8,8.4
	c-1,2.8-1.8,5.6-2.6,8.4c-0.3,1-0.5,2-0.7,3c-0.2,1-0.4,2.1-0.5,3.2c-0.7,5.5,0,9.6,2.1,12.2c2.1,2.6,5,3.8,8.7,3.8
	c3.8,0,8.1-1.4,12.7-4.2c4.6-2.8,9.1-6.7,13.5-11.8c4.1-4.8,8.4-10.3,12.9-16.5c2.5-3.5,5-6.9,7.3-10.2c-0.1,0.3-0.2,0.7-0.3,1
	c-0.8,3.1-1.4,5.4-1.8,6.9c-1.3,7.1-0.9,12.9,1.3,17.5c1.1,2.8,2.8,4.8,4.9,5.9s4.6,1.6,7.5,1.6c4,0,8-1,12-3.1
	c4.1-2.1,7.4-4.2,10.1-6.5c3-2.4,6-5.5,9.1-9.4c3.1-3.8,6-7.9,9-12.2c2.9-4.3,5.7-8.5,8.2-12.6c1.2-1.9,2.2-3.6,3.2-5.2
	c0.8,2.1,1.8,4.5,2.7,7.2c1,2.7,1.7,5.3,2.1,7.7l-1.7,1.3c-2.4,2-5,4.2-7.9,6.5c-2.8,2.3-5.4,4.8-7.8,7.5c-2.3,2.6-4.3,5.3-5.9,8
	c-1.6,2.7-2.3,5.3-2.1,7.9c0.3,3.7,1.7,6.3,4.4,7.9c2.6,1.6,5.6,2.3,8.9,2.3c1.6,0,3-0.1,4.2-0.3c1.2-0.2,2.5-0.5,3.7-0.7
	C533.4,304.9,539.2,301,543,295.8z M417.2,185.5c4.5-10.4,9.6-19.5,15.5-27.5h0.2c0.4-0.9,1-1.8,1.8-2.8c0.8-1,1.6-1.9,2.5-2.8
	s1.7-1.6,2.5-2.2c0.8-0.6,1.4-1,1.8-1.2c-0.3,0.1-0.6,1.7-1.1,4.7c-0.6,4.1-2,8.9-4.3,14.2c-2.3,5.3-5,10.8-8.3,16.5
	c-3.3,5.7-6.8,11.3-10.7,16.7c-3.8,5.5-7.7,10.4-11.5,14.8C408.8,206,412.7,195.9,417.2,185.5z M525.5,290.1
	c-2.2,3.9-5.2,6.8-8.9,8.6h0.2c-0.6,0.1-0.9,0.1-0.9-0.2c-0.7-1.3-0.7-2.8-0.1-4.5c0.6-1.7,1.7-3.5,3.1-5.3c1.4-1.8,3.1-3.7,5-5.5
	c1.9-1.8,3.9-3.6,5.9-5.1C529.2,282.2,527.7,286.2,525.5,290.1z M835.5,236.5c-2-0.4-3.8-0.5-5.3-0.1c-1.6,0.4-2.7,1.1-3.4,2.2
	c-2.8,4.7-5.9,9.8-9.2,15.2c-3.3,5.5-6.8,10.6-10.7,15.2h0.2c-1.3,1.6-2.8,3.2-4.5,5c-1.7,1.8-3.5,3.4-5.3,4.9
	c-1.8,1.5-3.7,2.8-5.5,3.8c-1.8,1.1-3.6,1.6-5.3,1.6c-0.9,0-2.3-0.5-4.3-1.5c-2.4-1.7-3.9-4.5-4.6-8.4c-0.6-3.9-0.6-8,0.1-12.3
	c0.3-2.4,0.7-4.7,1.3-6.9c0.6-2.2,1.2-4.1,1.9-5.7c11.1-1.3,19.6-3.9,25.6-8s10.4-8.5,13.2-13.3c1-2,1.8-3.8,2.3-5.3
	c0.6-1.6,0.9-3,1.1-4.3c0.7-4.7-0.4-8.5-3.3-11.3c-2.9-2.8-7.1-4.3-12.5-4.3c-1.8,0-3.8,0.2-5.8,0.5c-2,0.4-4,1-6,1.8
	c-5,2.1-9.7,5.2-14.3,9.3c-4.6,4.1-8.7,8.6-12.4,13.6c-2.3,3.1-4.3,6.3-6.2,9.7c-0.1,0.1-0.2,0.2-0.2,0.2c-0.1,0.3-1.5,2.3-3.9,6.2
	c-2.5,3.8-5.6,8.4-9.3,13.8c-3.7,5.3-7.7,11-12,17c-4.3,6-8.4,11.2-12.3,15.6l-6.8,7.5c0.1-0.3,0.3-0.7,0.4-1.3
	c0.1-0.6,0.3-1.2,0.4-1.9c0.1-0.7,0.3-1.5,0.4-2.3c0.1-0.9,0.4-1.9,0.9-3.2c0.3-1.6,0.6-3,1.1-4.4c0.4-1.3,0.9-2.8,1.5-4.4l1.5-4.5
	l1.3-3.4c1.1-3.3,2.4-7,3.7-11.2c1.3-4.2,2.3-8.4,2.9-12.5c0.4-2.8,0.5-5.5,0.2-8c-0.3-2.5-1-4.9-2.1-7.1l0.2,0.2
	c-1.4-2.8-3.4-4.8-6.1-5.9c-2.6-1.1-5.4-1.6-8.4-1.6c-4.3,0-8.4,1-12.4,3.1c-4,2.1-7.2,4.7-9.6,8h0.2c-1.6,2.3-3,4.5-4.2,6.6
	c-1.2,2.1-2.3,4.2-3.3,6.2c0.7-2.8,1.5-5.7,2.3-8.6c0.9-2.9,1.8-5.8,2.8-8.6l-1.9,1.1c3-2.1,6.4-5.2,10.2-9.1
	c3.8-3.9,7.7-8.4,11.6-13.3c3.9-5,7.7-10.3,11.5-15.9c3.8-5.6,7.2-11.2,10.2-16.6c3.1-5.5,5.5-10.7,7.4-15.7c1.8-5,2.9-9.3,3.2-13
	c0.4-4.5-0.8-8-3.6-10.2c-2.8-2.3-6.4-3.4-10.7-3.4c-2.8,0-5.7,0.5-8.5,1.5c-2.8,1-5.5,2.7-7.9,5.1c-3.6,3.4-7.2,8.1-11,14
	c-2.2,3.5-4.5,7.3-6.7,11.4c-2.3-0.3-3.9,0.4-4.7,2.2c-0.4,0.6-1.5,1-3.2,1.3c-1.7,0.3-3.8,0.5-6.3,0.7c-2.5,0.2-5.2,0.4-8.1,0.4
	c-2.9,0.1-5.8,0.1-8.6,0.1c-2.1,0-4.2,0-6.1-0.1c-1.9-0.1-3.7-0.1-5.2-0.1l0.9-1.9c1.6-3.3,3.2-6.9,4.8-11c1.6-4.1,2.8-7.1,3.5-9.3
	c1-3,0.7-5.6-0.7-7.8c-1.5-2.2-3.4-3.8-5.8-4.9c-2.3-1.1-4.8-1.5-7.3-1.4c-2.5,0.1-4.2,0.9-5,2.3c-1,1.8-2.7,5.8-5.2,11.8
	c-2.5,6-5.4,13.5-8.6,22.3c-5.4,0.3-10.6,0.8-15.5,1.4c-4.9,0.7-9.4,1.7-13.4,2.9c-4.1,1.2-7.5,2.9-10.3,4.9c-2.8,2.1-5,4.6-6.4,7.6
	c0,0.4,0.5,0.9,1.4,1.4c0.9,0.5,2,0.9,3.3,1.2c1.3,0.3,2.5,0.4,3.5,0.4s1.7-0.2,2-0.6c1.8-4.3,5.7-7.2,11.4-8.7
	c5.8-1.6,12.8-2.6,21-3.2l-3.4,8.7c-1.7,4.7-3.6,10-5.8,16s-4.2,12.2-6.3,18.7c-2.1,6.5-3.9,13-5.7,19.5c-1.7,6.5-3,12.7-3.8,18.3
	c-0.7,6.7-0.6,12.6,0.2,17.7c0.9,5.1,2.8,9,6,11.7c3,2.1,6.5,3.2,10.5,3.2c2.8,0,5.7-0.5,8.6-1.5c2.9-1,5.7-2.2,8.3-3.7
	c2.6-1.5,5-3.1,7.3-4.9c2.2-1.8,4.2-3.5,5.9-5.2c3.1-3.1,6.3-6.5,9.4-10.2c1.2-1.5,2.4-2.9,3.6-4.4c-0.2,1.1-0.3,2.2-0.4,3.3
	c-0.3,5,0.4,9.1,2,12.4c1.6,3.3,4.1,4.9,7.4,4.9c2.4,0,4.7-0.6,6.9-1.7c2.2-1.1,4.4-3.1,6.5-6c2.4-3.1,4.4-6.3,6.1-9.6
	c1.6-3.3,3.2-6.5,4.6-9.8c1.1-3,2.4-6,3.8-9c1.4-3,2.9-5.5,4.5-7.7c1.1-1.6,2.2-2.8,3.1-3.7c0.9-0.9,1.6-1.4,2-1.4
	c0.9,0,1.4,1,1.7,2.9c0.3,1.9,0.3,4.3,0,7.1c-0.7,4.1-1.7,8.2-3,12.4c-1.3,4.1-2.6,8.4-4.1,12.8c-0.9,2.8-1.8,5.7-2.8,8.4
	c-1,2.8-1.8,5.6-2.6,8.4c-0.3,1-0.5,2-0.7,3c-0.2,1-0.4,2.1-0.5,3.2c-0.7,5.5,0,9.6,2.1,12.2c2.1,2.6,5,3.8,8.7,3.8
	c3.8,0,8.1-1.4,12.7-4.2c4.6-2.8,9.1-6.7,13.5-11.8c4.1-4.8,8.4-10.3,12.9-16.5c2.8-3.8,5.4-7.5,7.9-11c0,0,0,0.1,0,0.1
	c0.1,2.2,0.3,4.4,0.7,6.7c0.9,5.8,3.3,10.8,7.4,14.8c4.1,4.1,9.4,6.1,16.1,6.1c1.7,0,3.5-0.1,5.4-0.4c1.9-0.3,3.7-0.8,5.2-1.5
	c5.5-2.1,10.6-5.1,15.2-8.9c4.6-3.8,8.4-7.5,11.2-11.2c4.1-4.8,8-10.2,11.6-16.1c3.6-5.9,6.9-11.5,9.9-16.7
	C837.6,239.5,837.1,238.2,835.5,236.5z M789.7,233.3c2-3.1,4.1-6.1,6.3-8.9c2.2-2.8,4.5-5.3,6.8-7.5c2.3-2.2,4.6-3.7,6.7-4.4
	c0.9,0.1,1.5,0.9,1.9,2.1c0.4,1.3,0.5,2.7,0.2,4.3c-0.1,1.1-0.4,2.2-0.7,3.3c-0.4,1.1-0.8,2.1-1.4,3.1c-1.8,3.4-4.8,6.7-9,9.8
	c-4.1,3.1-9.5,5.3-16,6.6C786,239.2,787.7,236.4,789.7,233.3z M709.1,185.5c4.5-10.4,9.6-19.5,15.5-27.5h0.2c0.4-0.9,1-1.8,1.8-2.8
	c0.8-1,1.6-1.9,2.5-2.8c0.9-0.9,1.7-1.6,2.5-2.2c0.8-0.6,1.4-1,1.8-1.2c-0.3,0.1-0.6,1.7-1.1,4.7c-0.6,4.1-2,8.9-4.3,14.2
	c-2.3,5.3-5,10.8-8.3,16.5c-3.3,5.7-6.8,11.3-10.7,16.7c-3.8,5.5-7.7,10.4-11.5,14.8C700.8,206,704.7,195.9,709.1,185.5z M681,201.4
	c-3.3,8.3-6.4,16.6-9.1,24.7c-1.5,4.6-2.9,9-4.1,13.4c-1.1,1.8-2.5,3.9-4.1,6.2c-2.1,3.1-4.3,6.3-6.7,9.7c-2.4,3.4-5,6.8-7.8,10.2
	c-2.8,3.4-5.5,6.5-8.3,9.4c-2.8,2.8-5.4,5.3-8,7.3c-2.6,2-4.8,3.3-6.8,3.8c-0.4,0-0.7-0.5-0.9-1.4c-0.1-0.9-0.4-2.2-0.6-3.7
	c-0.7-4.7-0.5-10.4,0.6-17.1c0.9-6.1,2.2-12.8,4.2-19.9c1.9-7.2,4-14.4,6.3-21.5c2.3-7.2,4.6-14.1,7-20.8c2.4-6.7,4.6-12.6,6.6-17.7
	l1.3-3.2h2.6c1.8,0,3.8,0,6,0.1c2.1,0.1,4.3,0.1,6.6,0.1c3.6,0,7.2-0.1,11-0.2c3.8-0.1,7.3-0.4,10.5-0.9c1.3-0.2,2.4-0.4,3.6-0.7
	C687.4,186.2,684.1,193.6,681,201.4z M523.2,577.2c-1.9-1.4-4.2-2.2-7-2.2c-2.8-0.1-5.6,0.5-8.5,1.6c-2.9,1.1-4.7,2.7-5.5,4.8
	c-1.8,4.7-3.5,9-5.2,12.9c-1.6,3.9-3.7,7.3-6.3,10.1c-2.6,2.8-6,5.1-10.3,6.8c-4.2,1.8-9.9,2.8-16.9,3.2c-6.6,0.4-13.7,0.4-21.2,0
	c-7.5-0.4-15.1-1.1-22.8-2.1c-7.7-1-15.5-2.1-23.2-3.5c-7.7-1.4-15.3-2.7-22.7-4c0.1-3.9,0.3-7.7,0.4-11.3c0.1-3.6,0.1-6.8-0.2-9.4
	c-0.3-3.5-1.8-6.1-4.6-7.8c-2.8-1.7-5.9-2.7-9.2-2.9c-3.3-0.3-6.3,0.2-9.1,1.3c-2.7,1.1-4.1,2.7-4.1,4.8c0,1.2,0,2.6,0,4.3
	c0,1.7,0,3.5-0.1,5.5c-0.1,2-0.1,3.9-0.2,5.9c-0.1,2-0.2,3.8-0.3,5.5c-4.8-0.6-9.4-1.2-13.9-1.7c-4.4-0.5-8.6-0.7-12.5-0.7
	c-8.6-0.1-15.4,0.8-20.5,2.9c-6.2,2.3-10.2,6.5-11.7,12.5c-0.4,1.3,0.1,2.3,1.6,3.1c1.4,0.8,3.1,1.3,5.1,1.5c2,0.2,3.8,0.1,5.6-0.3
	s2.8-1.2,3-2.3c0.7-2.9,2.5-4.9,5.6-6.2c3.1-1.3,6.7-2.1,10.8-2.4c4.2-0.3,8.6-0.3,13.4,0.1c4.8,0.4,9.1,0.8,13.2,1.4l-1.6,27.3
	c-0.4,8.3-0.8,17.1-1.4,26.2c-0.5,9.1-1,18.4-1.4,27.8c-0.4,9.4-0.7,18.8-0.9,28.1c-0.2,9.3-0.3,18.3-0.3,27
	c0.1,21.2,1.3,37.9,3.4,50.2c2.1,12.2,5.4,20.6,9.7,25c2.7,2.7,5.9,4.1,9.4,4.1h0.2c8.1-0.1,16.3-7.2,24.8-21.3
	c3-5.2,6.1-11.4,9.3-18.5c3.2-7.2,6.4-15.2,9.7-24.2c2.7-7.5,5.2-15,7.4-22.4c0.3-0.9,0.5-1.8,0.8-2.7c0.8,1.2,1.7,2.3,2.7,3.4
	c3,3.1,6.5,5.5,10.4,7.2c4,1.7,8.4,2.5,13.4,2.5c4.2,0,8-0.9,11.6-2.8c3.6-1.9,6.7-4.5,9.3-7.9c4.4-6.2,6.6-13.7,6.6-22.3
	c0-3.6-0.4-7-1.2-10.2c1.2,0.8,2.4,1.5,3.6,2c1.2,0.6,2.4,1.1,3.6,1.7c1.3,0.4,2.5,0.7,3.6,1c1.1,0.3,2.2,0.4,3.4,0.4
	c4,0,7.9-1.6,11.5-4.9c0.8-0.7,1.2-1.5,1.3-2.6c0.1-1.1-0.3-2-1.1-2.8c-0.7-0.8-1.5-1.2-2.6-1.3c-1.1-0.1-2.1,0.3-2.8,1.1
	c-1.6,1.4-3.2,2.3-5,2.5c-1.8,0.3-3.6,0.1-5.6-0.6c-2-0.7-4-1.7-6.2-3.2c-2.1-1.5-4.5-3.2-6.9-5.2c-3.6-2.6-7.2-4.7-10.5-6.3
	c-3.4-1.6-7.2-2.4-11.5-2.4c-10.3,0-18.5,3.5-24.6,10.3c-2.6,3-4.6,6.4-6.1,10.3c-1.4,3.9-2.1,7.9-2.1,12.1c0,2.1,0.2,4.1,0.5,6.1
	c-1.1,3.8-2.3,7.8-3.6,12.2c-2.2,7.2-4.7,14.5-7.4,22c-3.1,8.9-6.2,16.7-9.3,23.6c-3.1,6.9-6.1,12.9-9.1,18
	c-2.1,3.5-3.8,5.2-5.3,5.1c-1.4-0.1-2.6-1.5-3.6-4.2c-1-2.7-1.8-6.4-2.3-11.1c-0.6-4.8-1-9.9-1.4-15.4c-0.3-5.5-0.5-11.3-0.6-17.3
	c-0.1-6-0.1-11.5-0.1-16.6c0-8.2,0.1-16.7,0.4-25.4c0.3-8.7,0.6-17.4,1-26.1c0.4-8.7,0.8-17.2,1.3-25.6c0.5-8.4,0.9-16.4,1.3-24.1
	l1.6-25.4c0.5,0.1,1,0.2,1.5,0.3c0.5,0.1,1,0.1,1.7,0.1c12.6,2.2,25.6,4.3,39.1,6.3c13.4,2,26.2,3,38.5,3c1.8,0,3.5,0,5.2-0.1
	c1.6-0.1,3.4-0.2,5.2-0.3c6.9-0.4,13.5-1.4,19.8-3c6.3-1.6,12.1-3.9,17.4-6.9c5.3-3,9.9-6.8,13.9-11.4c4-4.6,7.1-10.2,9.3-16.7
	C525.5,580.9,525.1,578.7,523.2,577.2z M438,712c0.4-2.5,1.1-4.8,2.2-7c1.1-2.2,2.6-4.3,4.4-6.2c1.8-1.9,4-3.4,6.6-4.6
	c2,1.2,3.7,2.7,5.3,4.7c1.6,2.1,2.7,4.5,3.5,7.3c0.8,2.8,1.2,5.8,1.2,8.9c0,5.6-1.1,10-3.3,13.3c-2.2,3.3-4.7,5.1-7.5,5.7
	c-2.8,0.5-5.5-0.4-8-2.7s-4.1-6.4-4.6-12.1C437.5,716.8,437.6,714.4,438,712z M735.8,694.8c-1-0.5-2.1-0.6-3-0.3
	c-1,0.3-1.7,1-2.2,2.1c-3.8,7.2-7.6,14.2-11.6,21.2c-4,7-8,13.2-12,18.6c-3.4,4.3-6.2,6.7-8.5,7.3c-2.3,0.6-4.2,0-5.8-1.8
	c-1.6-1.8-2.8-4.5-3.7-8.1c-0.9-3.6-1.6-7.6-2.1-11.9c-0.5-4.3-0.8-8.6-1.1-13c-0.3-4.4-0.5-8.1-0.6-11.2
	c14.2-6.2,21.3-13.1,21.3-20.7c0-3-0.8-5.6-2.2-7.9c-1.5-2.3-3.5-4.1-6.2-5.4c-3.4-1.7-7.4-2.2-12.1-1.6c-4.7,0.8-9,2.7-12.9,5.9
	c-2.1,1.6-3.9,3.5-5.5,5.8c-1.6,2.3-3,4.9-4.3,7.9c-3.5,9.1-5.1,18.6-4.9,28.5c0.1,2.8,0.3,5.5,0.6,8.2c-2.4,2.1-4.9,4-7.5,5.6
	c-3.1,1.9-6.2,3.5-9.3,5c-0.1-6.2-0.7-12.1-1.7-17.5c-1-5.4-2.4-10.2-4.2-14.4c-2.2-4.8-4.8-8.5-7.6-10.9c-3.6-3-7.6-4.5-11.9-4.5
	c-14.3,0-28.1,12.2-41.4,36.7c-2.1,3.8-4,7.5-5.7,11.1c-1.7,3.6-3.2,7-4.5,10.2c-1.3-8.3-2.5-17.7-3.5-28.1
	c-1-10.4-1.8-21.2-2.3-32.2c1.3-1.4,2.6-2.9,3.8-4.3c1.2-1.4,2.4-2.9,3.4-4.3c6.8-8.5,11.8-17.3,15.2-26.6c3-7.8,4.7-15.5,5.1-23.1
	c0.4-7.6-0.5-14.7-2.7-21.4c-2.2-6.5-5.5-11.6-9.9-15.4c-4.4-3.8-9-5.6-14-5.5c-5.9,0-10.9,2.7-15.2,8c-5.5,6.9-9.3,18.4-11.5,34.6
	c-0.9,6.6-1.5,14-1.9,22.1c-0.3,8.1-0.4,16.9-0.1,26.4c0.5,14.6,1.5,29,2.9,43.3c1.4,14.3,3.4,28.5,6.1,42.7
	c0.3,1.4,1.7,2.6,4.3,3.4c2.6,0.8,5.5,1.3,8.6,1.4c3.1,0.1,6.1-0.4,8.9-1.3c2.8-0.9,4.6-2.5,5.4-4.7c0.9-2.5,2.6-6.7,5.1-12.8
	c2.5-6.1,5.6-12.6,9.4-19.6c1.6-2.7,3.3-5.7,5.1-8.9c1.8-3.2,3.7-6.1,5.7-8.6c2-2.5,3.9-4.7,5.9-6.3c2-1.7,3.8-2.4,5.6-2.2
	s3.4,1.5,4.9,3.9c1.5,2.4,2.8,6.3,3.8,11.8c0.9,4.2,1.5,8.6,1.7,13.3c0.2,4.7,0,9.4-0.5,14.3c-3.8,1.6-7.4,3.3-10.8,5.2
	c-3.4,1.9-6.7,4.2-9.7,6.9c-6.3,5.7-10.6,12.1-13.1,19.1c-2.3,6.6-2.5,12.8-0.4,18.5c1.4,3.6,3.6,6.4,6.4,8.2l0.2,0.2h0.2
	c2.9,2,6.3,2.9,10.2,2.9c7.5,0,14.4-2.3,20.5-6.8c5.6-4.2,10.2-9.9,13.9-17.2c2.9-5.5,5.1-11.5,6.8-18.1c1.7-6.6,2.8-13.5,3.3-20.8
	c3.8-1.6,7.5-3.4,11.3-5.6c2.5-1.4,4.9-3,7.2-4.8c0.8,3.7,1.7,7.4,3,10.9c2.5,7,5.5,12.4,9.2,16.1c3.6,3.7,7.7,5.6,12.3,5.6
	c3.1,0,6-0.6,8.7-1.8c2.7-1.2,5.2-2.6,7.5-4.4c2.3-1.8,4.5-3.7,6.4-6c2-2.2,3.8-4.4,5.7-6.6c4.2-5.6,8.3-12,12.4-19.1
	c4.1-7.2,8-14.4,11.8-21.9c0.5-1,0.7-2,0.4-3C737.5,696,736.8,695.3,735.8,694.8z M696.5,674.7c1-0.4,1.7-0.5,1.9-0.3
	c0.2,0.2,0.3,1.1,0.3,2.6c0,0.4-0.1,0.9-0.4,1.7c-0.3,0.7-0.8,1.6-1.6,2.5s-2,2.1-3.5,3.3c-1.6,1.2-3.6,2.5-6.2,3.8
	C689,681,692.2,676.5,696.5,674.7z M558.9,665.9c0-3.8,0-7.8,0.1-12.1c0.1-4.3,0.3-8.6,0.6-13c0.3-4.4,0.7-8.7,1.2-12.9
	c0.5-4.2,1-8.2,1.7-12c0.8-4.4,1.7-8.3,2.8-11.7c1.1-3.4,2.3-5.8,3.5-7.3c1.2-1.5,2.5-1.9,3.9-1.2c1.4,0.7,2.8,2.9,4.2,6.5
	c0.5,1.7,1.1,3.8,1.7,6.3c0.6,2.5,0.9,5.5,0.9,8.8s-0.3,7-1,11c-0.7,4-1.9,8.4-3.7,13.1c-3.4,8.9-8.6,17.7-15.6,26.6
	C559.1,667.1,559,666.4,558.9,665.9z M605.1,773.3c-0.8,1.6-2,3.5-3.6,5.8c-1.6,2.3-3.3,4.3-5.1,6.1c-1.8,1.8-3.4,2.9-5.1,3.4
	c-1.6,0.5-2.9-0.3-3.8-2.3c-0.7-1.7-0.9-3.6-0.9-5.9c0.1-2.2,0.5-4.6,1.4-7.1c0.8-2.5,2.2-5.2,4-7.9c1.8-2.7,4.2-5.4,7-8
	c2.1-1.8,4.3-3.4,6.6-4.9c2.3-1.4,4.8-2.8,7.4-4.1C611.6,757.8,608.9,766.1,605.1,773.3z"/>
<path fill="#318540" d="M158.4,428.1c1.3,0,2.4-0.5,3.3-1.4c0.9-0.9,1.4-2,1.4-3.3c0-5.8,1-10.6,2.9-14.5c2-3.8,4.7-7.1,8.1-9.8
	c3.4-2.7,7.5-5,12.2-6.9c4.7-2,9.7-3.9,15-5.8l12.9-4.9c0.6,0.9,1.2,1.9,1.8,2.9c0.5,1,1.2,2,2,2.9c6.1,9.4,12.9,18.2,20.5,26.3
	c7.5,8.2,15.1,16.1,22.8,23.7c4.1,4.2,8.1,8.3,12,12.3c3.9,4,7.6,8,11,12.1c-9.1,2.8-18.1,5.9-26.9,9.2c-8.9,3.3-16.9,7.6-24.1,12.9
	c-16.9,12.5-25.4,30.1-25.4,52.7c0,6.4,1.5,12.1,4.5,16.9c3,4.9,7,8.6,12,11.3c6,3.6,12.5,5.9,19.5,6.8s14.1,1,21.3,0.1
	c7.1-0.9,14.1-2.5,20.8-4.9c6.7-2.4,12.8-5.2,18.3-8.3c10.3-6.3,18.3-13.5,24-21.6c6.4-9.9,9.6-20.4,9.4-31.5c0-16.8-5-32.6-15-47.5
	l6.1-3.1c5.3-3,9.8-6.4,13.5-10.1c0.8,9.4,2.6,18.4,5.5,26.8c3,8.5,6.7,14.9,11,19.4c4.4,4.5,9.3,6.7,14.8,6.7
	c3.8,0,7.2-0.7,10.5-2.1c3.2-1.4,6.2-3.2,9.1-5.3c2.8-2.1,5.4-4.5,7.8-7.2c2.4-2.7,4.6-5.3,6.8-8c4-5.3,7.9-11.3,11.9-17.8
	c0.2,5.9,0.9,10.8,2,14.8c1.4,5.2,3.1,9.2,5.1,12.2c2,3,4.1,5,6.5,6.1c2.4,1.1,4.5,1.7,6.3,1.9c5,0,9.6-1.1,13.6-3.3
	c4.1-2.2,7.8-5,11-8.3c3.3-3.4,6.2-7.1,8.8-11s4.8-7.7,6.7-11.2c-1.3,10.8-1.7,20.4-1.4,28.7c0.5,12.8,2.7,22.3,6.8,28.2
	c3.6,5.2,8.4,7.8,14.3,7.8c5.2,0,9.9-1.9,14.1-5.6c4.2-3.8,8.1-8.3,11.5-13.5c3.4-5.3,6.4-10.7,8.8-16.2c2.4-5.6,4.3-10.1,5.8-13.8
	c2.5-6.1,4.7-12.1,6.7-18.1c1-3.1,1.9-5.9,2.8-8.6c1.1,1,2.2,2,3.3,3c5.7,4.9,11.3,9.4,16.8,13.6c2.5,2,4.9,4,7.2,5.8
	c2.3,1.8,4.4,3.6,6.5,5.3c-2.2,1.9-4.3,3.8-6.3,5.8c-2,2-3.9,4-5.6,6.2c-9.1,11-13.6,22.9-13.6,35.7c0,8.3,2.6,14.8,7.8,19.6
	c5.2,4.8,11.6,7.2,19.3,7.2c7.4,0,14.7-2,21.9-6.1c7.4-4.4,13-10,16.9-16.9c4.7-7.7,7.1-16.5,7.1-26.3c-0.2-8.5-1.6-15.7-4.3-21.7
	c-2.7-6-6.4-11.5-10.9-16.3c4-3.2,7.8-6.5,11.4-9.9c0.4,2.9,1,5.7,2,8.3c1.6,4.4,3.9,8.2,7.1,11.5c3.6,3.8,7.8,6.7,12.6,8.7
	c4.8,2,10.1,3.1,16.1,3.1c5,0,9.7-1.1,14-3.4c4.3-2.3,8-5.4,11.2-9.5c5.3-7.5,8-16.5,8-26.8c0-4.4-0.5-8.5-1.4-12.2
	c1.4,0.9,2.9,1.8,4.3,2.5c1.5,0.7,2.9,1.4,4.3,2c1.6,0.5,3,0.9,4.3,1.2c1.3,0.3,2.7,0.5,4.1,0.5c1.7,0,3.4-0.3,5-0.7
	c-0.1,2.2-0.2,4.4-0.3,6.5c-0.3,6.3-0.5,13.7-0.7,22.1c-0.2,8.4-0.1,17.1,0.2,26.2c0,2.5,1.8,4.3,5.3,5.5c3.5,1.2,7.4,1.6,11.6,1.2
	c4.2-0.4,8.2-1.5,11.9-3.4c3.7-1.9,5.8-4.6,6.2-8.2c5-17.1,9.7-31.2,14-42.4c4.3-11.2,8.3-20.1,11.9-26.7c3.6-6.6,6.9-11.2,10-13.8
	c3.1-2.6,5.8-3.9,8.3-3.9c0.9,0,1.6,0.1,2.1,0.4c0.5,0.2,0.9,0.5,1.2,0.8c0.8,0.8,1.4,2.4,1.8,4.9c0.4,2.5,0.4,6.5-0.1,12
	c-0.5,4.5-1.2,9.4-2.2,14.7c-1,5.3-2.2,10.8-3.4,16.6c-1.4,6.7-2.7,13.3-3.9,19.7c-1.2,6.4-2,12.4-2.4,18
	c-0.4,5.6-0.2,10.6,0.5,15.2c0.7,4.5,2.2,8.2,4.6,11c3.3,4.1,7.8,6.1,13.6,6.1c9.1,0,18.1-5.3,27-16c6.4-7.8,13-18.7,19.7-32.7
	c2.7-5.8,5.1-11.4,7.3-16.9c2.2-5.5,4.1-10.4,5.6-14.8c1.6-4.4,2.8-7.9,3.6-10.6c0.9-2.7,1.3-4.2,1.3-4.5c0.3-1.3,0.2-2.5-0.4-3.6
	c-0.6-1.2-1.5-1.9-2.7-2.2c-1.3-0.3-2.5-0.2-3.6,0.4c-1.2,0.6-1.9,1.5-2.2,2.7c-1.6,5.3-3.1,10.1-4.7,14.3
	c-1.6,4.2-3.4,9.1-5.5,14.5c-2.1,5.4-4.5,10.9-7.2,16.6c-5.6,11.8-10.2,20.1-13.8,24.9c-3.5,4.9-6,6.7-7.5,5.5
	c-1.5-1.2-2-5.1-1.5-11.9c0.5-6.7,2-15.8,4.5-27c1.7-6.9,3.2-13.7,4.5-20.5c1.3-6.7,1.9-12.9,1.9-18.6s-1-10.7-3.1-15.3
	c-2-4.5-4.9-8.1-8.7-10.8c-3.6-2.4-7.5-3.8-11.8-4.3c-4.2-0.5-8.4-0.3-12.5,0.7c-4.1,1-8,2.6-11.6,4.8c-3.7,2.2-6.7,4.8-9.1,7.8
	c-2.5,3-4.9,6.5-7.3,10.7c-2.4,4.2-4.8,9-7.3,14.5c-2.4,5.2-4.6,10.7-6.7,16.5c-2.1,5.8-4.1,11.5-6,17.2c0.3-11,0.5-19.2,0.7-24.7
	c0.2-5.5,0.2-8.3,0.2-8.5c0.2-3.9-1.5-7.1-4.8-9.4c-3.4-2.4-7.1-3.8-11.2-4.3c-4.1-0.5-7.8-0.1-11.3,1.3c-3.4,1.4-5.3,3.8-5.4,7.3
	c-0.1,1.4-0.2,2.7-0.2,4c-1.3,0.8-2.7,1.4-4.1,1.6c-2.1,0.3-4.3,0.1-6.7-0.7c-2.4-0.8-4.8-2.1-7.4-3.9c-2.6-1.8-5.4-3.9-8.3-6.2
	c-4.4-3.1-8.6-5.7-12.7-7.6c-4.1-2-8.7-2.9-13.9-2.9c-12.4,0-22.3,4.2-29.6,12.5c-3.1,3.6-5.6,7.8-7.3,12.5
	c-0.8,2.2-1.4,4.3-1.8,6.6c-0.5,0.6-1,1.1-1.5,1.7c-5,5.3-10.7,10.5-17.2,15.5c-2.5-2.2-5.1-4.3-7.9-6.3c-2.7-2-5.4-4.1-8.1-6.1
	c-5-3.6-9.9-7.3-14.6-11.2c-4.7-3.8-8.9-8.1-12.5-12.8c5.6-10.3,9.4-21.2,11.3-32.7c0.8-5.2,1-10.2,0.6-15
	c-0.4-4.9-1.5-9.2-3.4-12.9c-1.9-3.8-4.7-6.7-8.5-8.8c-3.8-2.1-8.6-3-14.6-2.7c-4.9,0-9.5,1.3-13.9,4c-2.4,1.6-4.5,3.4-6.6,5.6
	c-2,2.2-3.8,4.7-5.2,7.5c-2.8,5.5-4.2,11.7-4.2,18.6c0,11,1.5,20.6,4.6,28.8s6.9,15.6,11.6,22c1.6,2.1,3.2,4.2,4.8,6.1
	c-1.2,4-2.6,8.4-4.2,13.3c-2,5.9-4.1,11.8-6.5,17.7c-5,12.5-9,20.8-12,24.7c-3,3.9-5.1,4.6-6.5,2c-1.3-2.6-1.9-7.8-1.6-15.8
	c0.2-7.9,1.1-17.5,2.5-28.8c0.8-5.6,1.5-10.7,2.1-15.2c0.6-4.5,1.3-8.3,1.9-11.4c0.6-3.8,1.3-7.1,2.1-9.9c0.9-4.7,0-8.3-2.8-10.9
	c-2.8-2.6-6.2-4.3-10.1-5.2c-3.9-0.9-7.7-0.9-11.3,0c-3.6,0.9-5.6,2.4-6.1,4.6l-4.5,17.4c-5.3-7.1-11.6-12.1-18.8-15
	c-7.2-3-14.3-3.5-21.2-1.6c-7.5,1.9-13.6,6.8-18.3,14.8c-2.5,4.5-4.4,9.9-5.5,15.9c-2,3.7-4.1,7.4-6.1,11
	c-4.8,8.4-9.6,15.9-14.5,22.5c-4.1,5.2-7.5,8.1-10.2,8.8c-2.7,0.7-5.1,0-6.9-2.1s-3.4-5.4-4.5-9.8c-1.1-4.4-1.9-9.2-2.5-14.3
	c-0.6-5.2-1-10.4-1.3-15.6c-0.3-5.2-0.6-9.8-0.7-13.5c17.1-7.5,25.6-15.8,25.6-24.9c0-3.6-0.9-6.8-2.7-9.5c-1.8-2.7-4.3-4.9-7.4-6.5
	c-4.1-2-8.9-2.7-14.6-1.9c-5.6,0.9-10.8,3.3-15.5,7.1c-2.5,1.9-4.7,4.2-6.6,6.9c-1.9,2.7-3.6,5.9-5.2,9.5
	c-3.3,8.5-5.2,17.3-5.7,26.3c-1.8,3.4-4.2,6.4-7.1,8.9c-4.9,4.4-10.9,8.2-18,11.3c-4.5-6-9.6-11.6-15-16.9
	c-5.5-5.3-11-10.6-16.5-15.8c-8.5-7.8-16.7-15.9-24.6-24.1c-7.9-8.2-14.5-17.4-19.9-27.6c10.2-9.6,16.7-22,19.5-37.4
	c1.1-6.4,1.7-12.4,1.8-18c0.1-5.6-0.4-10.6-1.3-15.2c-1.3-5.3-3.5-9.7-6.8-13.2c-3.3-3.4-7.1-5.9-11.5-7.3c-4.4-1.4-9-1.8-13.9-1.2
	c-4.9,0.6-9.4,2.3-13.6,4.9c-5.8,3.9-10.3,9.4-13.6,16.5c-3.1,7.5-4.7,15.8-4.7,24.7c0,18.5,4.3,36.4,12.9,53.6l-11.8,4.2
	c-5.6,2.2-11,4.3-16.2,6.5c-5.2,2.1-9.8,4.8-13.9,8.1c-9.6,7.7-14.3,18.1-14.3,31.3c0,1.3,0.5,2.4,1.4,3.3
	C156.1,427.6,157.2,428.1,158.4,428.1z M659.9,440.1c0.5-3,1.4-5.8,2.7-8.5c1.3-2.7,3.1-5.1,5.3-7.4c2.2-2.3,4.9-4.1,8-5.5
	c2.4,1.4,4.5,3.3,6.3,5.6c1.9,2.5,3.3,5.4,4.2,8.8c0.9,3.4,1.4,6.9,1.4,10.7c0,6.7-1.3,12.1-4,16c-2.7,3.9-5.7,6.2-9.1,6.8
	c-3.4,0.6-6.6-0.5-9.6-3.3c-3.1-2.8-4.9-7.7-5.5-14.6C659.3,446,659.4,443.1,659.9,440.1z M589.6,481.7c2.5,2.7,4.4,5.5,5.8,8.5
	c1.3,3,2,6.3,2,9.9c0,3.6-0.7,7.4-2.2,11.4c-1.5,4-3.4,7.7-5.6,11c-2.3,3.4-4.7,6.3-7.4,8.7c-2.7,2.4-5.1,3.8-7.4,4.2
	c-2.3,0.4-4.2-0.4-5.6-2.2c-1.5-1.9-2.2-5.4-2.2-10.6c0-8.8,2.2-16.4,6.6-22.9C577.7,493.2,583.2,487.2,589.6,481.7z M554.3,371.9
	c0.5-2.8,1-5.1,1.6-6.8c0.6-1.7,1.3-3,2-3.8c0.7-0.8,1.2-1.3,1.5-1.6c1.6-1.1,2.9-1.2,3.9-0.4c1,0.9,1.9,2,2.7,3.4
	c1.1,2.5,1.7,5.7,1.9,9.5c0.2,3.8-0.2,8-0.9,12.6c-0.6,4.1-1.6,8.2-2.9,12.3c-1.3,4.2-2.9,8.3-4.8,12.3c-1.7-3.8-3.1-7.8-4.1-12.2
	c-1-4.4-1.5-9.3-1.5-14.8C553.6,378.3,553.9,374.8,554.3,371.9z M454.6,433.6c1.4-5.4,3.3-9.3,5.8-11.8c2.4-2.4,5.4-3,8.8-1.6
	c3.4,1.3,7.2,5.4,11.3,12.1c0,0.2,0.2,0.4,0.5,0.7c-2.2,6-4.6,11.6-7.3,16.9c-2.7,5.3-5.6,10.2-8.7,14.6c-2.7,4.5-4.8,7.3-6.3,8.2
	c-1.6,0.9-2.8,0.6-3.8-0.9c-0.9-1.6-1.6-4.1-1.9-7.6c-0.3-3.5-0.5-7.6-0.5-12.1C452.5,445.2,453.2,439.1,454.6,433.6z M387.9,395.2
	c1.3-0.5,2-0.6,2.2-0.4c0.2,0.2,0.4,1.3,0.4,3.2c0,0.5-0.2,1.1-0.5,2c-0.3,0.9-0.9,1.9-1.9,3.1s-2.4,2.5-4.2,4
	c-1.9,1.5-4.4,3-7.5,4.6C378.9,402.9,382.7,397.4,387.9,395.2z M288.4,470.4l2.4-0.7c4.4,5.8,7.8,11.6,10.3,17.5
	c2.5,5.9,3.8,11.9,3.8,18.2c0,5.8-1.2,11.4-3.5,16.9c-2.4,5.5-5.5,10.6-9.5,15.3s-8.6,8.9-13.9,12.5c-5.3,3.6-10.7,6.3-16.2,8.2
	c-5.6,1.9-11.2,2.8-16.8,2.7c-5.6-0.1-10.9-1.5-15.8-4.1c-7.8-4.7-11.8-11.4-11.8-20.2c0-10,1.7-18.7,5.2-26
	c3.4-7.3,8.9-13.7,16.5-19.2c6.7-5,14.4-9.1,23-12.2C270.7,476.2,279.5,473.3,288.4,470.4z M230.8,305.2c0.6-3.9,1.4-7.1,2.4-9.6
	c0.9-2.5,1.9-4.4,2.9-5.8c1-1.3,1.8-2.2,2.5-2.7c1.7-1.4,3.3-2,4.8-1.6c1.5,0.3,2.8,1.1,4,2.4c1.2,1.3,2.1,2.8,2.8,4.6
	c0.7,1.8,1.2,3.4,1.5,4.8c0.8,3.9,1.2,8.4,1.2,13.5c0,5.1-0.6,10.5-1.6,16.1c-1.3,6.7-3.1,12.5-5.5,17.3c-2.4,4.8-5.4,9-8.8,12.6
	c-2.2-5.5-3.9-11.2-5.2-17.3c-1.3-6-1.9-12.6-1.9-19.6C229.9,313.9,230.2,309.1,230.8,305.2z M262.7,912.4c3.5,0,6.5,1.2,8.8,3.5
	c2.3,2.3,3.5,5.2,3.5,8.7c0,3.3-1.2,6.1-3.5,8.5c-2.3,2.3-5.3,3.5-8.8,3.5c-3.2,0-6-1.2-8.4-3.5c-2.3-2.3-3.5-5.1-3.5-8.5
	c0-3.5,1.2-6.4,3.5-8.7C256.7,913.6,259.5,912.4,262.7,912.4z M816.6,967.4c-1.3-0.7-2.5-0.8-3.8-0.4c-1.2,0.4-2.1,1.3-2.8,2.6
	c-4.7,9.6-9.9,18.3-15.7,26c-5.8,7.7-11.8,14.9-17.9,21.5c-0.3-7.8-0.8-15.1-1.3-21.9c-0.6-6.8-1.1-12.7-1.6-17.8
	c-0.5-5.1-1-10.6-1.7-16.5c-0.6-3.3-2.8-5.6-6.4-6.7c-3.6-1.2-7.4-1.6-11.4-1.4c-4,0.2-7.6,1.1-10.8,2.6c-3.2,1.5-4.8,3.2-4.8,5.2
	c-1,4.5-1.9,8.5-2.8,12.1c-0.9,3.6-2,7.6-3.4,12.2c-1.4,4.6-3,9.2-4.9,13.8c-3,7.3-6.3,13.4-9.9,18.2c-3.5,4.8-6.7,7.6-9.6,8.3
	c-2.9,0.7-5.3-0.9-7.2-5c-1.9-4.1-2.7-11.3-2.4-21.8c0-3.5,0.1-6.6,0.4-9.3c0.2-2.7,0.5-5,0.8-6.8c0.3-2.2,0.6-4.1,1-5.7
	c0.5-4.5-0.8-8-3.8-10.6c-3-2.6-6.5-4.1-10.5-4.7c-4-0.6-7.8-0.2-11.5,1c-3.7,1.2-6,3.5-6.9,6.8c-0.2,0.3-0.7,2.8-1.6,7.5
	c-0.1,0.5-0.2,0.9-0.3,1.4c-1.4,5.6-2.7,10.9-4,15.8c-1.9,7.3-4.3,15.6-7,24.8c-2.7,9.2-5.8,18.6-9.2,28.2
	c-8.1,22.6-16.1,40.1-24,52.7c-4.2,6.8-8.1,10.7-11.6,11.8c-3.6,1.1-6.7,0.2-9.6-2.7c-2.8-2.9-5.4-7.4-7.6-13.6
	c-2.3-6.1-4.2-13.1-5.9-20.9c-1.7-7.8-3.1-16-4.2-24.8c-1.1-8.7-2-17.1-2.7-25.3c-1.5-20.6-1.7-41.9-0.7-63.9
	c1.5-1.3,2.9-2.6,4.4-3.9c1.5-1.2,2.8-2.5,4.1-3.9c4.7-4.6,9-9.6,12.8-14.9c3.9-5.3,7.3-11.1,10.4-17.4c5.6-11.4,9.5-23.2,11.6-35.2
	c2.1-12,2.3-23.2,0.5-33.5c-0.8-4.1-2-8.2-3.6-12.1c-1.6-3.9-3.7-7.3-6.2-10.3c-2.5-3-5.5-5.3-9-7.1c-3.5-1.7-7.4-2.6-11.7-2.6
	c-8.4,0-15.7,5.6-22,16.7c-5.5,9.3-10.2,22.1-14,38.3c-3.7,15.4-6.6,32.8-8.6,52.1c-1.6,15.5-2.6,31.4-2.9,47.5
	c-1.7,7.2-3.4,13.8-5,19.8c-1.9,7.3-4.3,15.6-7,24.8c-2.7,9.2-5.8,18.6-9.2,28.2c-8.1,22.6-16.1,40.1-24,52.7
	c-4.2,6.8-8.1,10.7-11.6,11.8c-3.6,1.1-6.7,0.2-9.6-2.7c-2.8-2.9-5.4-7.4-7.6-13.6c-2.3-6.1-4.2-13.1-5.9-20.9
	c-1.7-7.8-3.1-16-4.2-24.8c-1.1-8.7-2-17.1-2.7-25.3c-1.5-20.6-1.7-41.9-0.7-63.9c1.5-1.3,2.9-2.6,4.4-3.9c1.5-1.2,2.8-2.5,4.1-3.9
	c4.7-4.6,9-9.6,12.8-14.9c3.9-5.3,7.3-11.1,10.4-17.4c5.6-11.4,9.5-23.2,11.6-35.2c2.1-12,2.3-23.2,0.5-33.5
	c-0.8-4.1-2-8.2-3.6-12.1c-1.6-3.9-3.7-7.3-6.2-10.3c-2.5-3-5.5-5.3-9-7.1c-3.5-1.7-7.4-2.6-11.7-2.6c-8.4,0-15.7,5.6-22,16.7
	c-5.5,9.3-10.2,22.1-14,38.3c-3.7,15.4-6.6,32.8-8.6,52.1c-1.6,15.6-2.6,31.5-2.9,47.7c-1.5,1-3,1.7-4.6,1.9
	c-2.2,0.3-4.5,0.1-6.9-0.7c-2.4-0.8-5-2.2-7.6-4.1c-2.7-1.9-5.5-4.1-8.6-6.6c-4.5-3.3-8.9-6-13.1-8.1c-4.2-2.1-9-3.1-14.3-3.1
	c-12.8,0-22.9,4.4-30.5,13.2c-3.2,3.8-5.7,8.2-7.5,13.2c-1,2.9-1.8,5.9-2.2,9c-5.6,10.3-10.9,19.3-15.8,26.8
	c-7.8,11.9-15.3,21.9-22.4,29.9v-7c0-9-0.2-17.5-0.5-25.6c-0.3-8.1-0.7-15.3-1.1-21.4c-0.4-6.1-1-12.9-1.8-20.2
	c-0.3-3.5-1.4-6.1-3.3-7.7c-1.9-1.7-4.1-2.7-6.7-3.1c-2.6-0.4-5.3-0.3-8.1,0.4c-2.8,0.7-5.4,1.6-7.9,2.9s-4.4,2.7-5.8,4.2
	c-1.5,1.6-2.1,3-1.9,4.4c0.6,7.1,1.2,13.7,1.6,19.8c0.4,6.1,0.8,13.1,1.1,21c0.3,8,0.5,16.4,0.5,25.4c0,7.3-0.2,14.2-0.5,20.8
	c-0.3,6.6-0.8,12.8-1.5,18.8c-5.6,4.5-11.3,9.4-17.1,14.7c-5.7,5.3-11.7,11.9-17.8,19.7c-5.8,7.3-9.8,15.1-11.9,23.4
	c-1.8,7.6-1.4,14.5,1.2,20.7c2.3,5.8,5.1,9.9,8.6,12.2c3.5,2.3,7.2,3.4,11.1,3.4c4-0.1,8-1.2,12.1-3.2c4.1-2.1,8.1-4.6,11.9-7.7
	c3.8-3.1,7.3-6.3,10.4-9.8s5.7-6.7,7.6-9.7c7.1-10.6,12.3-26.3,15.7-47c0.8-5.1,1.5-10.5,2.1-16.2c0.6-5.6,1-11.6,1.3-17.9
	l11.6-12.9c7.7-9.1,15.3-19.7,22.8-31.8c1.7-2.9,3.5-5.8,5.3-8.9c0.3,1.1,0.6,2.3,1,3.4c1.6,4.6,4,8.7,7.3,12.2c3.7,4,8,7.1,13,9.2
	c4.9,2.2,10.4,3.2,16.6,3.2c5.2,0,10-1.2,14.4-3.6c4.4-2.4,8.3-5.8,11.5-10.1c5.5-8,8.2-17.4,8.2-28.4c0-4.6-0.5-9-1.5-12.9
	c1.5,1,2.9,1.9,4.5,2.6c1.5,0.7,3,1.5,4.5,2.1c1.6,0.5,3.1,0.9,4.5,1.2c1.4,0.3,2.8,0.5,4.2,0.5c2.1,0,4.1-0.4,6.1-1.1
	c0,0.2,0,0.4,0,0.6c0,19.4,0.9,37.6,2.8,54.5c1.9,16.9,4.6,31.7,8.1,44.3c4.2,14.3,9.3,25.4,15.3,33.3c7.1,9.1,15.3,13.7,24.5,13.7
	c3.9,0,7.5-0.8,10.9-2.5c3.4-1.7,6.5-3.8,9.3-6.5c2.8-2.7,5.4-5.6,7.7-8.7c2.3-3.2,4.4-6.1,6.2-9c8.6-13.4,16.9-31.7,25.2-54.7
	c3.4-9.8,6.5-19.4,9.3-28.7c1.1-3.7,2.1-7.2,3.1-10.5c0.5,10.1,1.2,19.9,2.2,29.3c1.9,16.9,4.6,31.7,8.1,44.3
	c4.2,14.3,9.3,25.4,15.3,33.3c7.1,9.1,15.3,13.7,24.5,13.7c3.9,0,7.5-0.8,10.9-2.5c3.4-1.7,6.5-3.8,9.3-6.5c2.8-2.7,5.4-5.6,7.7-8.7
	c2.3-3.2,4.4-6.1,6.2-9c8.6-13.4,16.9-31.7,25.2-54.7c3.4-9.8,6.5-19.4,9.3-28.7c0.4-1.4,0.8-2.8,1.2-4.1c1.4,6.7,3.7,12.1,7.1,16.4
	c5.3,7,12.6,10.5,22,10.5c9.3,0,17.9-4.6,25.6-13.9c5.6-6.6,11-15.9,15.9-27.9l4.8-13.2c0.5,6,1,12.6,1.3,19.8
	c0.3,7.2,0.7,14.8,1,22.8v16.4c-5.3,4.6-10.6,9.3-15.7,13.9c-5.2,4.6-10,9.5-14.6,14.4s-8.8,10.2-12.7,15.8
	c-3.9,5.6-7.2,11.5-9.9,17.8c-5.3,12.1-6.8,23.6-4.4,34.3c2.3,10.3,7.6,17.7,16,22.4c4.5,2.5,9.4,3.7,14.5,3.7
	c2.4,0,4.9-0.3,7.4-0.9c2.5-0.6,5-1.4,7.4-2.4c5.6-2.5,11-6.2,15.9-11.2c5-5,9.6-11,14-18.2c11.5-19.4,16.8-54.9,15.9-106.5v-0.7
	c7.7-7.8,15.2-16.3,22.4-25.4c7.2-9.1,13.6-19.6,19.2-31.3c0.6-1.3,0.8-2.6,0.4-3.9C818.5,969,817.7,968.1,816.6,967.4z
	 M581.9,926.2c0.7-6.5,1.6-13,2.5-19.3c0.8-5.1,1.9-11,3.4-17.5c1.5-6.6,3.1-13,4.8-19.3c1.8-6.3,3.7-12,5.7-17.2
	c2-5.1,4-8.8,5.9-11.1s3.7-2.7,5.3-1.2c1.6,1.4,2.9,5.6,3.9,12.6c1.6,9.1,1.5,19.2-0.5,30.4c-1.9,11.1-5.5,21.8-10.7,32.1
	c-6,11.9-13.4,22.1-22.3,30.6C580.6,939.4,581.2,932.8,581.9,926.2z M460.2,926.2c0.7-6.5,1.6-13,2.5-19.3c0.8-5.1,1.9-11,3.4-17.5
	c1.5-6.6,3.1-13,4.8-19.3c1.8-6.3,3.7-12,5.7-17.2c2-5.1,4-8.8,5.9-11.1s3.7-2.7,5.3-1.2c1.6,1.4,2.9,5.6,3.9,12.6
	c1.6,9.1,1.5,19.2-0.5,30.4c-1.9,11.1-5.5,21.8-10.7,32.1c-6,11.9-13.4,22.1-22.3,30.6C458.8,939.4,459.4,932.8,460.2,926.2z
	 M246.4,1117.7c-2.3,7.3-5.1,13.3-8.4,18.2c-1.1,1.7-2.7,3.9-4.7,6.6c-2,2.7-4.1,5.2-6.2,7.3c-2.1,2.2-4.1,3.7-5.9,4.6
	c-1.9,0.9-3.1,0.4-3.8-1.6c-1.5-3.7-1.7-8.5-0.7-14.4c1-6,4.3-12.5,9.9-19.7c4.5-5.6,8.8-10.5,13-14.7c4.1-4.1,8.3-8,12.5-11.4
	C250.6,1102,248.7,1110.4,246.4,1117.7z M387.2,1009.7c-2.7,4.1-5.9,6.6-9.3,7.2c-3.5,0.7-6.8-0.5-9.9-3.5c-3.1-3-5-8.1-5.7-15.4
	c-0.3-3-0.2-6.1,0.2-9.2c0.5-3.1,1.4-6.1,2.8-9c1.4-2.8,3.2-5.4,5.4-7.8c2.3-2.4,5-4.4,8.2-5.8c2.4,1.5,4.6,3.5,6.5,6
	c1.9,2.7,3.4,5.8,4.4,9.3c1,3.6,1.5,7.3,1.5,11.3C391.3,999.9,389.9,1005.5,387.2,1009.7z M738.6,1104.5
	c-2.3,11.9-5.6,21.4-9.7,28.4c-2.4,4-5.2,8-8.3,12.1c-3.1,4.1-6.3,7-9.5,8.8c-3.2,1.8-6.2,2.1-9,0.7c-2.8-1.3-4.9-5.4-6.4-12.2
	c-1.9-8.6-0.7-18,3.6-28.1c4.7-10.4,10.8-19.8,18.5-28.1c7.7-8.3,16.1-16.5,25.3-24.6C742.4,1078.2,740.9,1092.5,738.6,1104.5z
	 M892.2,670.8c-14.7,12-32.1,15.5-50.6,15.3c-4.5-0.1-9,0-13.5,0c-19.9-0.1-39.7-2.7-59.5-1.4c-0.8,0-1.6-0.1-2.4-0.3
	c-2-0.5-4.9,0.4-5.6-2c-0.8-2.5,2.1-3.3,3.8-4.4c13.2-9,27.8-15.4,42.6-21c17.1-6.5,34.5-12.2,52.6-15c8.9-1.4,17.9-1.9,26.8,0.6
	c7.1,2,11.6,6.5,13.1,13.5C901,662.6,896.7,667.1,892.2,670.8z M869.2,726.3c5.6,6,6.3,13.1,3.1,20c-3,6.4-9.1,9.6-16.3,9.5
	c-10.1-0.1-19.3-3.2-27.6-8.9c-20.5-14-37.1-32.4-55.2-49.1c-1.2-1.1-2.3-2.3-1.7-4.1c0.5-1.5,1.7-1.8,6.5-1.5
	c22.5,1.8,44.9,3.5,65.5,14.5C853.2,711.8,861.7,718.3,869.2,726.3z M837.4,596.7c-0.5,6.9-4.1,12.7-7.8,18
	c-13,18.7-30.1,33.1-49.7,44.6c-2,1.2-4.6,3-6.5,1.4c-2.2-1.8-0.1-4.4,0.9-6.5c5.8-12.4,9.7-25.6,16.7-37.6
	c5-8.6,10.7-16.3,17.7-23.2c4.7-4.7,10.7-6.8,17.1-7.6C832.3,585,837.5,590.1,837.4,596.7z M156.4,670.8c-4.5-3.7-8.8-8.2-7.3-14.8
	c1.6-7,6.1-11.5,13.1-13.5c8.9-2.5,17.9-2,26.8-0.6c18.1,2.9,35.5,8.5,52.6,15c14.9,5.7,29.4,12,42.6,21c1.7,1.1,4.6,1.9,3.8,4.4
	c-0.7,2.4-3.7,1.5-5.6,2c-0.8,0.2-1.6,0.3-2.4,0.3c-19.9-1.3-39.7,1.3-59.5,1.4c-4.5,0-9-0.1-13.5,0
	C188.5,686.3,171.1,682.8,156.4,670.8z M220.2,746.8c-8.3,5.7-17.5,8.8-27.6,8.9c-7.2,0.1-13.3-3.1-16.3-9.5c-3.2-6.8-2.5-14,3.1-20
	c7.5-8,16-14.4,25.7-19.7c20.6-11,43-12.7,65.5-14.5c4.8-0.3,5.9-0.1,6.5,1.5c0.6,1.8-0.5,3.1-1.7,4.1
	C257.2,714.3,240.6,732.7,220.2,746.8z M257.7,616.7c7,12,10.8,25.2,16.7,37.6c1,2,3.1,4.6,0.9,6.5c-1.9,1.6-4.5-0.3-6.5-1.4
	c-19.6-11.5-36.7-25.9-49.7-44.6c-3.7-5.4-7.3-11.1-7.8-18c-0.1-6.6,5.1-11.7,11.7-10.9c6.4,0.8,12.4,3,17.1,7.6
	C247,600.4,252.7,608.1,257.7,616.7z"/>
</svg>
