<?xml version="1.0" encoding="utf-8"?>
<!-- Generator: Adobe Illustrator 22.1.0, SVG Export Plug-In . SVG Version: 6.00 Build 0)  -->
<svg version="1.0" id="Layer_1" xmlns="http://www.w3.org/2000/svg" xmlns:xlink="http://www.w3.org/1999/xlink" x="0px" y="0px"
	 viewBox="0 0 432 432" style="enable-background:new 0 0 432 432;" xml:space="preserve">
<style type="text/css">
	.st0{fill:#EE4546;}
	.st1{fill:#185F30;}
</style>
<path class="st0" d="M425.6,260.5c-0.7-2-3.6-2.6-5.3-3.3c-1.8-0.6-6.2-2.3-9.9-3.8s-9.4-3.6-12.7-4.9c-9.6-3.5-20.7-7.8-24.8-9.5
	c-2.1-0.9-10.4-5.7-11.5-0.9c-0.2,0.9,0.3,1.9,0.9,2.7c1.2,1.7,13.6,15.4,13.2,15.7c-0.2,0.1-21-0.7-30.5-1.2
	c-18.9-1-20.6-1-33.8-1.2c-7.2-0.1-15.9-0.3-19.3-0.4c-20-0.8-33.5-1.1-57.1-1.2c-13.9,0-32.1-0.2-40.5-0.3
	c-9.4-0.1-19.2-0.1-25.7,0.1c-5.8,0.2-17.5,0.4-25.9,0.6c-8.5,0.1-17.9,0.3-20.8,0.4l-5.4,0.2l-0.5-0.8c-0.3-0.4-1.4-2-2.5-3.5
	c-1.1-1.5-3.4-4.7-5.1-7.3c-3-4.5-6.7-9.4-8.3-10.8c-1.2-1.1-2.4-1.3-8.9-1.3c-5.5,0-19.6,0.6-20.9,0.9c-0.9,0.2-9.8,0.9-19.2,1.4
	c-8.4,0.5-14.9,1-29.2,2.1c-3.7,0.3-7.7,0.5-8.8,0.5c-1.9,0-4.2,0.3-5.7,1.5c-1.4,1.1-1.5,2.4-1,3.6c0.3,0.9,0.8,1.7,1.4,2.5
	c0.7,1,2.7,4.2,4.5,7c3.8,6.1,5,7.8,7.6,10.9c1.1,1.3,2.1,2.5,2.1,2.8c0.1,0.4-5,10.7-9.4,18.7c-1.5,2.8-2.7,5.3-2.8,5.6
	c0,0.4,0.1,1.2,0.2,2c0.4,3.1,1.5,3.6,7.3,3.6c4.1,0,6-0.2,14.4-1c5.3-0.5,12.8-1.1,15.9-1.3c1.4-0.1,3.1-0.2,3.9-0.3
	c2.5-0.2,5.4-0.4,12.7-0.8c5.9-0.3,19.3-1.2,28.8-1.8c1.3-0.1,3.2-0.2,4.3-0.3c1.2-0.1,2.3-0.3,2.7-0.6c0.8-0.4,2.9-3.8,5.3-8.3
	c0.7-1.3,2.1-3.7,3.1-5.5c1-1.7,3-5.4,4.4-8.2l2.6-5.1l2.8,0c1.5,0,3-0.1,3.2-0.1c0.2-0.1,5.9-0.2,12.6-0.3
	c11.7-0.2,15.4-0.2,33.2-0.7c4.5-0.1,14.4-0.2,22-0.1c7.6,0.1,25.9,0.2,40.6,0.2c25.7,0.1,34.4,0.2,56.6,1c5.6,0.2,16,0.4,23.1,0.5
	c7,0.1,15.2,0.3,18.1,0.4c7.4,0.4,20.4,1,25.9,1.3c2.6,0.1,7.5,0.3,11,0.4c6.4,0.2,9.4,0.3,11.8,0.6c1.3,0.2,1.4,0.2,1.1,0.7
	c-1.2,2.4-8.2,12-10.4,14.5c-1.4,1.5-2.3,4-0.5,5.6c1.7,1.5,4.4,0.1,6.1-0.6c1.3-0.5,4.7-2,7.6-3.2c2.9-1.2,8.4-3.4,12.3-4.9
	c8.3-3.1,26.7-9.3,28.6-9.6C423.8,265.6,426.5,263.3,425.6,260.5z M60.7,238.3c2.7-0.2,5.4-0.4,6.1-0.5l1.2-0.1l4.7,6.1
	c8.1,10.6,8.5,11.1,8.4,11.2c-0.1,0.1-2.8,0.3-6.1,0.5c-4.8,0.3-6,0.3-6.3,0.1c-1.8-2-12.9-16.4-13-16.7
	C55.9,238.7,58.1,238.5,60.7,238.3z M39.7,239.7c2.1-0.2,4.7-0.4,6-0.4l2.2-0.1l4.2,5.6c2.3,3.1,5.2,6.9,6.5,8.5
	c1.3,1.6,2.2,3,2.1,3.1c-0.4,0.3-11.7,1.2-11.8,0.9c-0.2-0.3-8.3-11.1-11.2-15l-1.7-2.2L39.7,239.7z M18.5,247
	c-1.8-2.8-3.3-5.2-3.3-5.3c0-0.1,2.1-0.3,4.6-0.5c2.6-0.2,5.5-0.4,6.4-0.5l1.7-0.2l2.6,3.4c1.4,1.9,4,5.2,5.6,7.4
	c1.6,2.2,3.4,4.6,4,5.4l1,1.3l-3.8,0.2c-2,0.1-5.2,0.3-6.9,0.4l-3.1,0.2l-1-1.1C24.5,255.8,21.8,252,18.5,247z M33.7,282.3l-1.7,3.2
	l-1.1,0.1c-4.1,0.6-13,1.2-13,0.9c0-0.1,0.9-1.8,2-3.9c1.1-2.1,3.6-6.8,5.5-10.5l3.4-6.7l2.6-0.2c1.4-0.1,4.5-0.3,6.8-0.4
	c2.3-0.1,4.2-0.2,4.2-0.2c0.2,0.1-4.2,9.3-5.7,12C36,277.9,34.6,280.5,33.7,282.3z M55.2,280.6c-0.8,1.7-1.5,3.2-1.7,3.2
	c-0.5,0.1-12.1,0.9-12.9,0.9h-0.7l0.7-1.1c0.3-0.6,1.4-2.5,2.3-4.2c0.9-1.7,1.8-3.4,2-3.8c4.8-10.5,5.3-11.4,6-11.6
	c1.3-0.3,12.1-1.1,12.3-0.9c0.2,0.2-2.4,6.2-4.8,11.1C57.3,276,55.9,278.9,55.2,280.6z M69.6,282.9c-2.3,0.1-5.1,0.3-6.2,0.4
	c-1.1,0.1-2,0.1-2-0.1c0-0.1,0.9-2,2-4.2c1.1-2.2,3-6.4,4.3-9.2s2.6-5.7,2.9-6.3l0.6-1.2l6.2-0.3c3.4-0.2,6.2-0.3,6.2-0.2
	c0.1,0.1-0.5,1.8-1.3,3.8c-1.2,3.2-7.1,15.5-8.1,16.7C73.9,282.6,73.2,282.7,69.6,282.9z M106.5,263.4c-0.9,1.7-2.2,4.2-2.9,5.5
	c-0.8,1.3-2.4,4.2-3.6,6.4c-2.7,4.9-3.2,5.7-4.2,5.9c-0.4,0.1-2.9,0.3-5.6,0.4c-2.7,0.1-5.7,0.3-6.6,0.4l-1.8,0.2l2.7-5.5
	c1.5-3,3.5-7.6,4.5-10.2c1-2.6,1.8-4.9,1.8-5c0-0.2,5.4-0.6,13.7-1l3.6-0.2L106.5,263.4z M105.2,253.8c-7,0.4-13.4,0.8-14.7,0.9
	l-1.3,0.1l-1.8-2.6c-2-2.9-10.4-13.8-11.2-14.6c-0.5-0.5-0.5-0.5,2.7-0.7c1.8-0.1,6.4-0.3,10.2-0.3l7-0.1l1.5,1.9
	c1.8,2.3,4.8,6.4,6.4,9c0.6,1,1.9,2.8,2.8,4.1l1.7,2.2L105.2,253.8z M406.1,263.7c-6.2,2.1-18.8,6.7-24.2,8.9l-2.5,1l2.1-3.1
	c2.8-4.1,3.9-6.5,3.9-8.4c0-3.1-1.2-5.6-5.5-11c-1.3-1.6-2.3-3-2.3-3c0,0,0.9,0.3,2,0.7c1.1,0.4,3,1.1,4.1,1.6
	c1.2,0.5,5.4,2.1,9.5,3.6c6.1,2.2,14.8,5.6,18.6,7.2C412.6,261.5,412.5,261.6,406.1,263.7z M105.1,88c-0.3-0.3-0.4-0.7-0.4-1.1
	c0-0.4,0.2-0.8,0.6-1.2c0.4-0.4,0.8-0.6,1.4-0.6c0.5-0.1,1.4-0.2,2.7-0.3c1.3-0.1,2.9-0.2,4.6-0.2c1.7-0.1,3.6-0.2,5.5-0.2
	c1.9-0.1,3.7-0.1,5.3-0.2c1.6-0.1,3-0.1,4.1-0.1c1.1,0,1.7,0,1.8,0c0.8,0,1.3,0.2,1.4,0.5c0.1,0.3,0.2,0.6,0.4,0.8
	c0.1,0.2,0,0.4-0.1,0.8c-0.1,0.4-0.3,0.6-0.4,0.8c-0.4,0.3-0.8,0.5-1.3,0.7c-0.4,0.2-0.8,0.3-1.3,0.4c-1.2,0.2-2.4,0.4-3.6,0.5
	c-1.2,0.1-2.4,0.2-3.6,0.4c-0.2,0.1-0.3,0.2-0.6,0.4c-0.2,0.2-0.3,0.5-0.3,0.7c0.2,7.7,0.5,15.5,0.9,23.3c0.1,2.4,0.2,4.9,0.4,7.4
	c0.2,2.5,0.3,5,0.4,7.4c0,0.5-0.1,1.1-0.2,1.7c-0.2,0.7-0.4,1.3-0.8,1.9c-0.4,0.6-0.9,1.1-1.5,1.6c-0.6,0.4-1.4,0.7-2.3,0.7
	c-0.9,0-1.8-0.5-2.6-1.5c-0.8-1-1.4-2.2-1.7-3.6c-0.1-1-0.2-1.8-0.2-2.3c0-0.5,0-1,0-1.4c0-0.4,0-0.9,0-1.4c0-0.5,0-1.3,0-2.3
	c-0.1-3.5-0.1-7,0-10.4c0.1-3.5,0.1-7,0.2-10.4c0.1-1.5,0.1-3,0.2-4.5c0.1-1.4,0.2-2.9,0.3-4.4c0.2-1.1,0.1-1.9-0.3-2.4
	c-0.3-0.5-1.1-0.7-2.3-0.6c-0.4,0.1-0.8,0.1-1.1,0c-0.4-0.1-0.8-0.1-1.3-0.2h-2.8C105.9,88.5,105.3,88.4,105.1,88z M131.4,106.2
	c-0.3,1.7-0.5,3-0.8,4c-0.3,1.6-0.5,3.2-0.7,4.7c-0.2,1.6-0.3,3.2-0.4,4.7c-0.1,1.1,0,2.1,0.4,3.1c0.3,1,0.9,2,1.6,2.8
	c1.2,1.4,2.7,1.8,4.6,1.3c0.7-0.2,1.2-0.6,1.3-1.2c0.1-0.6,0.3-1.2,0.4-1.8c0.3-1.2,0.6-2.4,1-3.5c0.3-1.1,0.6-2.3,0.9-3.5
	c0.1-0.3,0.2-0.9,0.5-1.8c0.3-0.9,0.6-2,1-3.3c0.4-1.2,0.8-2.5,1.3-3.9c0.4-1.4,0.9-2.6,1.3-3.8c0.4-1.2,0.8-2.2,1.2-3
	c0.3-0.8,0.6-1.2,0.8-1.3c0.3-0.1,0.4,0.2,0.3,0.9c-0.1,0.7-0.2,1.5-0.3,2.4c-0.2,1.1-0.5,2.3-0.8,3.6c-0.6,2.8-1.2,5.6-1.7,8.3
	c-0.4,2.4-0.8,4.8-1.1,7.3c-0.3,2.5-0.4,4.7-0.3,6.6c0.1,1.6,0.2,3.1,0.4,4.5c0.1,1.4,0.7,2.8,1.6,4.1c0.5,0.7,1.2,1.2,2.2,1.5
	c1,0.3,1.9,0.4,2.8,0.2c0.7-0.1,1.4-0.3,2.1-0.7c0.7-0.4,1.1-0.9,1.4-1.7c0.3-0.9,0.6-1.8,0.7-2.8c0.2-0.9,0.4-1.9,0.6-2.8
	c0.3-0.9,0.6-2.1,0.9-3.6c0.1-0.5,0.3-1,0.4-1.6c0,0.1,0,0.1,0,0.2c0.2,0.8,0.4,1.5,0.8,2c0.7,0.9,1.5,1.6,2.4,1.9
	c0.9,0.3,1.9,0.4,3,0.3c1.1-0.1,1.8-0.5,2.2-1.1c0.4-0.7,0.8-1.4,1-2.3c0.1-0.4,0.3-1.1,0.5-2.2c0.2-1.1,0.4-2.3,0.7-3.7
	c0.3-1.4,0.5-2.9,0.8-4.4c0.3-1.6,0.6-3,0.8-4.3c0.2-1.2,0.4-2.2,0.5-3c0,0,0,0,0,0c0.4,1.2,1,2.4,1.5,3.6c0.3,0.7,0.6,1.4,0.9,2
	c0.3,0.7,0.6,1.3,0.9,1.9c0.6,1.5,0.9,2.7,0.7,3.4c-0.2,0.8-0.7,1.7-1.6,2.9c-0.5,0.7-1.1,1.5-1.7,2.4c-0.6,0.8-1.2,1.7-1.7,2.7
	c-0.6,0.9-1,1.9-1.4,2.9c-0.4,1-0.6,1.9-0.6,2.8c0,1.8,0.4,3.2,1.1,4.2c0.7,0.9,1.5,1.6,2.3,2.1c1.1,0.6,2.1,0.9,3.1,0.8
	c1-0.1,1.9-0.4,2.7-0.9c0.8-0.4,1.4-0.9,2-1.4c0.5-0.5,0.8-0.8,0.9-0.9c1.5-1.8,2.5-3.8,3-5.8c0.5-2,0.4-4.3-0.3-6.8
	c-0.2-0.8-0.5-1.7-0.8-2.4c-0.3-0.8-0.6-1.6-0.9-2.3c-0.3-0.7-0.4-1.4-0.4-1.9c0-0.5,0.1-1,0.2-1.4c0.2-0.4,0.4-0.8,0.6-1.2
	c1.2-1.7,2.2-3.3,3.2-4.8c0.9-1.3,1.8-2.5,2.7-3.7c0.9-1.2,1.6-2,2.1-2.4c0.2-0.1,0.3-0.3,0.4-0.6c0.1-0.3,0.2-0.5,0.4-0.7l-0.2-0.2
	c-0.2,0.1-0.4,0.2-0.6,0.2c-0.2,0.1-0.4,0.2-0.6,0.3c-0.9,0.7-2,1.7-3.2,3c-1.2,1.3-2.3,2.7-3.3,4c-1,1.3-1.9,2.5-2.6,3.5
	c-0.7,1-1.1,1.4-1.1,1.4c-0.4-0.7-0.8-1.3-1.1-1.9c-0.3-0.6-0.6-1.2-0.9-1.7c-0.3-0.6-0.6-1.1-0.8-1.7c-0.3-0.6-0.6-1.3-0.9-2
	c-0.5-1.5-0.7-2.8-0.4-4c0.2-1.2,0.7-2.2,1.3-3c0.6-0.8,1.3-1.4,2.1-1.8c0.8-0.4,1.4-0.5,2-0.4c0.6,0.1,1.1,0.4,1.4,0.8
	c0.4,0.4,0.3,1-0.2,1.8c-0.4,0.7-0.8,1.2-1.1,1.5c-0.3,0.3-0.8,0.8-1.4,1.4c-0.4,0.3-0.7,0.7-0.8,1.1c-0.1,0.4-0.1,0.8,0,1.1
	c0.1,0.3,0.3,0.5,0.6,0.6c0.3,0.1,0.7,0,1.1-0.4c0.9-0.7,1.7-1.7,2.5-2.9c0.8-1.2,1.2-2.4,1.2-3.5c0.1-0.6,0-1.1-0.2-1.7
	c-0.2-0.5-0.4-1-0.7-1.4c-0.3-0.5-0.7-0.9-1.1-1.3c-0.4-0.5-0.8-0.8-1.3-1.1c-0.4-0.3-1-0.5-1.7-0.6c-0.7-0.1-1.5-0.1-2.4,0.1
	c-0.7,0.2-1.4,0.5-2.1,0.9c-0.7,0.5-1.4,1.1-1.9,2c-0.6,0.8-1,1.9-1.3,3.1c-0.3,1.2-0.4,2.7-0.2,4.4c0,0.6,0.1,1.1,0.2,1.7
	c0,0.1,0,0.1-0.1,0.2c-0.3,1.1-0.6,2.2-0.8,3.4c-0.4,1.4-0.7,2.9-1.1,4.5l-1.4,5.8c-0.4,1.5-0.8,2.8-1.1,4c-0.3,1.2-0.6,1.8-0.8,1.8
	c-0.2,0-0.3-0.1-0.4-0.4c-0.1-0.2-0.2-0.5-0.3-0.9c-0.1-0.3-0.1-0.7-0.2-1.1c-0.1-0.4-0.1-0.7-0.1-1c0-0.5,0-1.1,0-2
	c0-0.8-0.1-1.7-0.1-2.6c0-0.9,0-1.8,0-2.7c0-0.9,0-1.5,0-2c0.1-0.5,0.1-1.4,0.2-2.5c0.1-1.1,0.1-2.3,0.1-3.6s0-2.5-0.1-3.7
	c-0.1-1.2-0.2-2.1-0.4-2.9c-0.4-1.2-1.3-1.5-2.8-1.1c-0.5,0.2-0.9,0.4-1,0.7c-0.2,0.3-0.2,0.8-0.2,1.4c0,0.3-0.1,0.9-0.4,1.7
	c-0.2,0.8-0.5,1.9-0.8,3.2c-0.3,1.3-0.5,2.9-0.8,4.8c-0.2,1.9-0.4,4-0.4,6.5c0,0.4,0,1,0.1,1.8c-0.5,2-1,3.9-1.4,5.7
	c-0.6,2.1-1,3.9-1.4,5.3c-0.4,1.4-0.6,2.1-0.7,2.1c-0.1,0-0.2-0.1-0.3-0.2c-0.1-0.2-0.2-0.4-0.3-0.6c-0.1-0.3-0.1-0.5-0.2-0.8
	c-0.1-0.3-0.1-0.5-0.1-0.8c-0.1-1.6-0.2-3.1-0.4-4.7c-0.1-1.6-0.1-3.1,0-4.7c0.1-2.6,0.3-5.1,0.5-7.7c0.2-2.6,0.4-5.1,0.6-7.7
	c0.1-0.9,0.1-1.8,0-2.6c-0.1-0.8-0.2-1.7-0.3-2.5c-0.3-1.6-1.3-2.6-3.1-3c-1.6-0.4-2.8,0.1-3.8,1.5c-0.9,1.2-1.7,2.4-2.2,3.6
	c-0.6,1.6-1.1,3.2-1.7,4.7c-0.5,1.6-1.1,3.2-1.7,4.7l-1.5,4.2c-0.1-0.2,0-1,0.2-2.5c0.2-1.4,0.4-3.2,0.7-5.2c0.3-2,0.5-4.2,0.8-6.4
	c0.3-2.3,0.5-4.3,0.8-6.2c0.4-3.7,0.5-6.6,0.5-8.7c-0.1-2.1-0.2-3.9-0.4-5.4c-0.2-1.5-0.8-2.6-1.7-3.2c-0.9-0.6-1.7-0.8-2.3-0.4
	c0.3,0.8,0.4,1.5,0.3,2.1c-0.1,0.6-0.2,1.2-0.3,1.8c-0.1,0.3-0.2,1-0.4,2.1c-0.2,1.2-0.4,2.6-0.6,4.2c-0.2,1.7-0.5,3.5-0.9,5.5
	c-0.3,2-0.7,4-0.9,5.9C131.9,102.8,131.7,104.5,131.4,106.2z M172.9,125.5c0.1,0.6,0.1,1.3,0,2c0,0.7-0.1,1.5-0.4,2.3
	c-0.2,0.8-0.6,1.6-1.1,2.4c-0.1,0.3-0.3,0.5-0.7,0.8c-0.3,0.2-0.6,0.3-0.7,0.2c-0.5-0.4-0.7-0.9-0.7-1.5c0-0.6,0.1-1.2,0.3-1.8
	c0.2-0.6,0.4-1.2,0.8-1.7c0.3-0.5,0.6-0.9,0.7-1.3l1.7-3C172.8,124.3,172.8,124.9,172.9,125.5z M156.9,96c-0.5-0.5-0.7-1.1-0.7-1.7
	c0.1-0.6,0.3-1.1,0.7-1.5c0.4-0.4,1-0.6,1.7-0.6c0.6,0,1.2,0.2,1.8,0.7c0.6,0.4,0.9,0.9,0.9,1.4c0,0.2-0.1,0.5-0.3,0.8
	c-0.2,0.3-0.5,0.6-0.8,0.8c-0.3,0.2-0.6,0.4-0.9,0.6c-0.3,0.2-0.6,0.3-0.9,0.3C157.9,96.8,157.4,96.5,156.9,96z M205.7,125
	c-0.3-3.8-0.5-7.9-0.5-12.1c0-4.2,0.1-8.2,0.3-11.9c0.2-3.7,0.5-7,0.8-9.8c0.4-2.8,0.8-4.7,1.3-5.7c0.2-0.4,0.3-0.7,0.6-0.9
	c0.2-0.2,0.5-0.4,0.8-0.4c0.3-0.1,0.8,0,1.4,0.3c0.6,0.3,1,0.8,1.4,1.6c0.3,0.8,0.6,1.6,0.8,2.6c0.2,0.9,0.4,1.8,0.5,2.7
	c0.1,0.9,0.2,1.6,0.2,2c0.1,0.6,0.2,1.6,0.4,2.8c0.1,1.3,0.3,2.7,0.4,4.3c0.2,1.6,0.3,3.3,0.4,5.1c0.1,1.8,0.2,3.5,0.3,5.1
	c0.1,1.6,0.1,3.1,0.1,4.5c0,1.4,0,2.4-0.1,3.2c-0.3,2.2-0.5,4.4-0.6,6.5c-0.1,2.1-0.4,4.3-0.8,6.4c-0.1,0.6-0.4,1.2-0.8,1.8
	c-0.4,0.6-1.3,0.9-2.4,0.9c-1.2,0-2.1-0.6-2.7-1.9C206.8,130.7,206.3,128.4,205.7,125z M221,140.5c1.1,0.6,2.1,0.9,3.1,0.8
	c1-0.1,1.9-0.4,2.7-0.9c0.8-0.4,1.4-0.9,2-1.4c0.5-0.5,0.8-0.8,0.9-0.9c1.5-1.8,2.5-3.8,3-5.8c0.5-2,0.4-4.3-0.3-6.8
	c-0.2-0.8-0.5-1.7-0.8-2.4c-0.3-0.8-0.6-1.6-0.9-2.3c-0.3-0.7-0.4-1.4-0.4-1.9c0-0.5,0.1-1,0.2-1.4c0.2-0.4,0.4-0.8,0.6-1.2
	c1.2-1.7,2.2-3.3,3.2-4.8c0.9-1.3,1.8-2.5,2.7-3.7c0.9-1.2,1.6-2,2.1-2.4c0.2-0.1,0.3-0.3,0.4-0.6c0.1-0.3,0.2-0.5,0.4-0.7l-0.2-0.2
	c-0.2,0.1-0.4,0.2-0.6,0.2c-0.2,0.1-0.4,0.2-0.6,0.3c-0.9,0.7-2,1.7-3.2,3c-1.2,1.3-2.3,2.7-3.3,4c-1,1.3-1.9,2.5-2.6,3.5
	c-0.7,1-1.1,1.4-1.1,1.4c-0.4-0.7-0.8-1.3-1.1-1.9c-0.3-0.6-0.6-1.2-0.9-1.7c-0.3-0.6-0.6-1.1-0.8-1.7c-0.3-0.6-0.6-1.3-0.9-2
	c-0.5-1.5-0.7-2.8-0.4-4c0.2-1.2,0.7-2.2,1.3-3c0.6-0.8,1.3-1.4,2.1-1.8c0.8-0.4,1.4-0.5,2-0.4c0.6,0.1,1.1,0.4,1.4,0.8
	c0.4,0.4,0.3,1-0.2,1.8c-0.4,0.7-0.8,1.2-1.1,1.5c-0.3,0.3-0.8,0.8-1.4,1.4c-0.4,0.3-0.7,0.7-0.8,1.1c-0.1,0.4-0.1,0.8,0,1.1
	c0.1,0.3,0.3,0.5,0.6,0.6c0.3,0.1,0.7,0,1.1-0.4c0.9-0.7,1.7-1.7,2.5-2.9c0.8-1.2,1.2-2.4,1.2-3.5c0.1-0.6,0-1.1-0.2-1.7
	c-0.2-0.5-0.4-1-0.7-1.4c-0.3-0.5-0.7-0.9-1.1-1.3c-0.4-0.5-0.8-0.8-1.3-1.1c-0.4-0.3-1-0.5-1.7-0.6c-0.7-0.1-1.5-0.1-2.4,0.1
	c-0.7,0.2-1.4,0.5-2.1,0.9c-0.7,0.5-1.4,1.1-1.9,2c-0.6,0.8-1,1.9-1.3,3.1c-0.3,1.2-0.4,2.7-0.2,4.4c0.1,1.4,0.3,2.7,0.8,3.9
	c0.4,1.2,1,2.4,1.5,3.6c0.3,0.7,0.6,1.4,0.9,2c0.3,0.7,0.6,1.3,0.9,1.9c0.6,1.5,0.9,2.7,0.7,3.4c-0.2,0.8-0.7,1.7-1.6,2.9
	c-0.5,0.7-1.1,1.5-1.7,2.4c-0.6,0.8-1.2,1.7-1.7,2.7s-1,1.9-1.4,2.9c-0.4,1-0.6,1.9-0.6,2.8c0,1.8,0.4,3.2,1.1,4.2
	C219.4,139.4,220.2,140.1,221,140.5z M222.3,129.8c0.2-0.6,0.4-1.2,0.8-1.7c0.3-0.5,0.6-0.9,0.7-1.3l1.7-3c-0.1,0.5-0.1,1,0,1.6
	c0.1,0.6,0.1,1.3,0,2c0,0.7-0.1,1.5-0.4,2.3c-0.2,0.8-0.6,1.6-1.1,2.4c-0.1,0.3-0.3,0.5-0.7,0.8c-0.3,0.2-0.6,0.3-0.7,0.2
	c-0.5-0.4-0.7-0.9-0.7-1.5C222,131,222.1,130.4,222.3,129.8z M255.2,133.5c0.2,0.3,0.5,0.4,0.9,0.4c0.9,0,1.6-0.2,2-0.7
	c0.4-0.4,0.8-1.2,1.3-2.3c0.1-0.1,0.2-0.2,0.2-0.4c0.2-0.7,0.4-1.6,0.6-2.8c0.2-1.2,0.5-2.4,0.7-3.6c0.2-1.2,0.4-2.3,0.6-3.3
	c0.2-1,0.3-1.6,0.4-1.9c0.1-0.3,0.3-0.6,0.8-0.8c0.5-0.2,1-0.3,1.6-0.5c0.6-0.1,1.2-0.2,1.8-0.3c0.6-0.1,1-0.2,1.3-0.3
	c0.2-0.1,0.4-0.1,0.7,0c0.3,0.1,0.5,0.3,0.6,0.6c0.1,0.2,0.2,0.7,0.4,1.6c0.2,0.9,0.5,1.9,0.8,2.9c0.3,1.2,0.7,2.5,1,3.9
	c0.4,1.4,0.8,2.7,1.3,3.9c0.4,1,0.9,1.9,1.5,2.7c0.6,0.8,1.2,1.2,2,1.1c0.6,0.2,1.3,0.2,1.9,0c0.7-0.2,1.3-0.4,1.8-0.8
	c0.5-0.4,0.9-0.8,1.3-1.3c0.3-0.5,0.4-1,0.4-1.6c-0.1-0.7-0.3-1.9-0.7-3.4c-0.3-1.5-0.7-3.1-1.1-4.8c-0.4-1.7-0.8-3.3-1.1-4.8
	c-0.4-1.5-0.6-2.7-0.8-3.5c-0.4-2-0.8-4-1.2-6.1c-0.4-2.1-0.8-4.1-1.2-6.2c-0.3-1.2-0.5-2.4-0.6-3.7c-0.1-1.2-0.3-2.5-0.6-3.7
	c-0.2-1.2-0.6-2.4-0.9-3.6c-0.4-1.2-1-2.3-1.8-3.4c-0.5-0.7-1-1.3-1.4-1.8c-0.4-0.5-1-1-1.7-1.4c-0.6-0.3-1.2-0.3-1.9,0
	c-0.7,0.3-1.2,1-1.5,2.3c-0.4,1.2-0.6,2.1-0.6,2.7c-0.1,0.6-0.2,1.3-0.3,2.1c-0.6,2.5-1.2,5.4-2,8.8c-0.7,3.4-1.5,7-2.3,10.6
	c-0.8,3.6-1.6,7.2-2.3,10.6c-0.7,3.4-1.4,6.4-1.9,8.9c-0.1,0.3-0.1,0.7-0.2,1.1c-0.1,0.4-0.1,0.9,0,1.3
	C254.9,132.8,255,133.2,255.2,133.5z M262.8,113.4c0.1-0.5,0.2-1.3,0.4-2.4c0.2-1.1,0.5-2.3,0.7-3.4c0.2-1.2,0.5-2.3,0.7-3.4
	c0.2-1.1,0.4-1.9,0.5-2.3c0.1-0.3,0.1-0.5,0.3-0.6c0.1-0.1,0.2,0,0.4,0.5c0.1,0.2,0.2,0.8,0.4,1.9c0.2,1,0.4,2.2,0.7,3.4
	c0.3,1.3,0.5,2.5,0.7,3.7c0.2,1.2,0.3,2,0.4,2.5c0,0.1-0.3,0.3-0.9,0.7c-0.6,0.3-1.3,0.6-1.9,0.8c-0.7,0.2-1.3,0.2-1.8,0.1
	C262.8,114.7,262.6,114.2,262.8,113.4z M285.9,140.5c1.1,0.6,2.1,0.9,3.1,0.8c1-0.1,1.9-0.4,2.7-0.9c0.8-0.4,1.4-0.9,2-1.4
	c0.5-0.5,0.8-0.8,0.9-0.9c1.5-1.8,2.5-3.8,3-5.8c0.5-2,0.4-4.3-0.3-6.8c-0.2-0.8-0.5-1.7-0.8-2.4c-0.3-0.8-0.6-1.6-0.9-2.3
	c-0.3-0.7-0.4-1.4-0.4-1.9c0-0.5,0.1-1,0.2-1.4c0.2-0.4,0.4-0.8,0.6-1.2c1.2-1.7,2.2-3.3,3.2-4.8c0.9-1.3,1.8-2.5,2.7-3.7
	c0.9-1.2,1.6-2,2.1-2.4c0.2-0.1,0.3-0.3,0.4-0.6c0.1-0.3,0.2-0.5,0.4-0.7l-0.2-0.2c-0.2,0.1-0.4,0.2-0.6,0.2
	c-0.2,0.1-0.4,0.2-0.6,0.3c-0.9,0.7-2,1.7-3.2,3c-1.2,1.3-2.3,2.7-3.3,4c-1,1.3-1.9,2.5-2.6,3.5c-0.7,1-1.1,1.4-1.1,1.4
	c-0.4-0.7-0.8-1.3-1.1-1.9c-0.3-0.6-0.6-1.2-0.9-1.7c-0.3-0.6-0.6-1.1-0.8-1.7c-0.3-0.6-0.6-1.3-0.9-2c-0.5-1.5-0.7-2.8-0.4-4
	c0.2-1.2,0.7-2.2,1.3-3c0.6-0.8,1.3-1.4,2.1-1.8c0.8-0.4,1.4-0.5,2-0.4c0.6,0.1,1.1,0.4,1.4,0.8c0.4,0.4,0.3,1-0.2,1.8
	c-0.4,0.7-0.8,1.2-1.1,1.5c-0.3,0.3-0.8,0.8-1.4,1.4c-0.4,0.3-0.7,0.7-0.8,1.1c-0.1,0.4-0.1,0.8,0,1.1c0.1,0.3,0.3,0.5,0.6,0.6
	c0.3,0.1,0.7,0,1.1-0.4c0.9-0.7,1.7-1.7,2.5-2.9c0.8-1.2,1.2-2.4,1.2-3.5c0.1-0.6,0-1.1-0.2-1.7c-0.2-0.5-0.4-1-0.7-1.4
	c-0.3-0.5-0.7-0.9-1.1-1.3c-0.4-0.5-0.8-0.8-1.3-1.1c-0.4-0.3-1-0.5-1.7-0.6c-0.7-0.1-1.5-0.1-2.4,0.1c-0.7,0.2-1.4,0.5-2.1,0.9
	c-0.7,0.5-1.4,1.1-1.9,2c-0.6,0.8-1,1.9-1.3,3.1c-0.3,1.2-0.4,2.7-0.2,4.4c0.1,1.4,0.3,2.7,0.8,3.9c0.4,1.2,1,2.4,1.5,3.6
	c0.3,0.7,0.6,1.4,0.9,2c0.3,0.7,0.6,1.3,0.9,1.9c0.6,1.5,0.9,2.7,0.7,3.4c-0.2,0.8-0.7,1.7-1.6,2.9c-0.5,0.7-1.1,1.5-1.7,2.4
	c-0.6,0.8-1.2,1.7-1.7,2.7s-1,1.9-1.4,2.9c-0.4,1-0.6,1.9-0.6,2.8c0,1.8,0.4,3.2,1.1,4.2C284.4,139.4,285.1,140.1,285.9,140.5z
	 M287.2,129.8c0.2-0.6,0.4-1.2,0.8-1.7c0.3-0.5,0.6-0.9,0.7-1.3l1.7-3c-0.1,0.5-0.1,1,0,1.6c0.1,0.6,0.1,1.3,0,2
	c0,0.7-0.1,1.5-0.4,2.3c-0.2,0.8-0.6,1.6-1.1,2.4c-0.1,0.3-0.3,0.5-0.7,0.8c-0.3,0.2-0.6,0.3-0.7,0.2c-0.5-0.4-0.7-0.9-0.7-1.5
	C286.9,131,287,130.4,287.2,129.8z"/>
<path class="st1" d="M153.9,335.1c-0.4-1.9-0.9-3.8-1.4-5.9c-0.5-2.1-1-4-1.4-5.9c-0.5-1.9-0.8-3.3-1-4.3c-0.5-2.5-1-4.9-1.5-7.5
	c-0.5-2.5-1-5-1.5-7.6c-0.3-1.5-0.6-3-0.7-4.5c-0.2-1.5-0.4-3-0.7-4.5c-0.3-1.5-0.7-3-1.2-4.4c-0.5-1.5-1.2-2.8-2.2-4.1
	c-0.6-0.8-1.2-1.6-1.7-2.2c-0.5-0.6-1.2-1.2-2.1-1.7c-0.7-0.4-1.5-0.4-2.4,0c-0.9,0.4-1.5,1.3-1.9,2.8c-0.5,1.5-0.7,2.6-0.8,3.3
	c-0.1,0.7-0.2,1.6-0.4,2.6c-0.7,3-1.5,6.7-2.4,10.9c-0.9,4.2-1.8,8.5-2.8,13c-1,4.5-1.9,8.8-2.8,13.1c-0.9,4.2-1.7,7.9-2.3,10.9
	c-0.1,0.4-0.1,0.9-0.2,1.4c-0.1,0.5-0.1,1.1,0,1.6c0.1,0.5,0.2,1,0.4,1.3c0.2,0.4,0.6,0.5,1.1,0.5c1.1,0,1.9-0.3,2.4-0.8
	c0.5-0.6,1-1.5,1.6-2.8c0.1-0.1,0.2-0.3,0.2-0.5c0.2-0.8,0.4-2,0.7-3.4c0.3-1.5,0.6-2.9,0.9-4.4c0.3-1.5,0.5-2.8,0.8-4
	c0.2-1.2,0.4-2,0.5-2.4c0.1-0.4,0.4-0.7,1-0.9c0.6-0.2,1.2-0.4,2-0.6c0.7-0.2,1.5-0.3,2.2-0.4c0.7-0.1,1.2-0.2,1.6-0.3
	c0.2-0.1,0.5-0.1,0.9,0c0.4,0.1,0.6,0.4,0.8,0.7c0.1,0.2,0.2,0.8,0.5,1.9c0.3,1.1,0.6,2.3,0.9,3.6c0.4,1.5,0.8,3.1,1.3,4.9
	c0.5,1.7,1,3.3,1.6,4.8c0.5,1.2,1.1,2.3,1.8,3.3c0.7,1,1.5,1.5,2.4,1.4c0.8,0.2,1.6,0.2,2.4,0c0.8-0.2,1.5-0.5,2.2-1
	c0.6-0.5,1.2-1,1.6-1.6c0.4-0.6,0.5-1.3,0.5-2C154.6,338.4,154.3,337,153.9,335.1z M137.5,319.4c-0.7,0.4-1.5,0.7-2.4,1
	c-0.8,0.2-1.6,0.3-2.2,0.1c-0.6-0.2-0.9-0.7-0.7-1.7c0.1-0.6,0.2-1.6,0.5-2.9c0.3-1.4,0.6-2.8,0.9-4.2c0.3-1.5,0.6-2.8,0.9-4.2
	c0.3-1.3,0.5-2.3,0.6-2.9c0.1-0.3,0.2-0.6,0.3-0.7c0.2-0.2,0.3,0,0.4,0.6c0.1,0.3,0.2,1,0.5,2.3c0.3,1.3,0.5,2.7,0.9,4.2
	c0.3,1.6,0.6,3.1,0.9,4.5c0.3,1.5,0.4,2.5,0.5,3.1C138.6,318.7,138.2,318.9,137.5,319.4z M182.9,307.4c-0.2,0.1-0.5,0.2-0.7,0.4
	c-1.2,0.8-2.5,2.1-3.9,3.7c-1.4,1.6-2.8,3.3-4,4.9c-1.3,1.6-2.3,3.1-3.2,4.3c-0.9,1.2-1.3,1.8-1.4,1.7c-0.5-0.8-1-1.6-1.3-2.4
	c-0.4-0.7-0.7-1.5-1.1-2.1c-0.4-0.7-0.7-1.4-1-2.1c-0.3-0.7-0.7-1.6-1.2-2.5c-0.6-1.8-0.8-3.4-0.5-4.9c0.3-1.5,0.8-2.7,1.6-3.6
	c0.7-1,1.6-1.7,2.6-2.2c1-0.5,1.8-0.7,2.4-0.5c0.7,0.1,1.3,0.5,1.7,1c0.5,0.6,0.4,1.3-0.3,2.2c-0.5,0.8-1,1.5-1.4,1.9
	c-0.4,0.4-1,1-1.7,1.7c-0.5,0.4-0.8,0.8-1,1.4c-0.1,0.5-0.1,1,0,1.3c0.1,0.4,0.4,0.6,0.8,0.7c0.4,0.1,0.8,0,1.4-0.4
	c1.1-0.9,2.1-2.1,3.1-3.6c1-1.5,1.5-2.9,1.5-4.3c0.1-0.7,0-1.4-0.2-2c-0.2-0.6-0.5-1.2-0.8-1.7c-0.4-0.6-0.8-1.1-1.4-1.6
	c-0.5-0.6-1-1-1.6-1.4c-0.5-0.3-1.2-0.6-2-0.7c-0.8-0.2-1.8-0.1-3,0.1c-0.8,0.2-1.7,0.6-2.6,1.2c-0.9,0.6-1.7,1.4-2.4,2.4
	c-0.7,1-1.3,2.3-1.6,3.8c-0.4,1.5-0.5,3.3-0.3,5.4c0.1,1.7,0.4,3.3,0.9,4.8c0.5,1.4,1.2,2.9,1.9,4.5c0.3,0.8,0.7,1.7,1.1,2.5
	c0.4,0.8,0.8,1.6,1.2,2.4c0.8,1.9,1.1,3.3,0.9,4.2c-0.2,0.9-0.8,2.1-1.9,3.5c-0.6,0.9-1.3,1.9-2.1,2.9c-0.7,1-1.5,2.1-2.1,3.3
	c-0.7,1.2-1.2,2.3-1.7,3.5c-0.5,1.2-0.7,2.3-0.7,3.4c0,2.3,0.4,4,1.3,5.1c0.9,1.2,1.8,2,2.8,2.5c1.3,0.8,2.6,1.1,3.8,0.9
	c1.2-0.2,2.3-0.5,3.3-1.1c1-0.6,1.8-1.1,2.4-1.7c0.6-0.6,1-1,1.1-1.1c1.9-2.3,3.1-4.6,3.7-7.1c0.6-2.5,0.5-5.2-0.4-8.3
	c-0.3-1-0.6-2-0.9-3c-0.4-1-0.7-1.9-1.1-2.8c-0.3-0.9-0.5-1.7-0.4-2.3c0-0.6,0.1-1.2,0.2-1.7c0.2-0.5,0.5-1,0.8-1.5
	c1.4-2.1,2.7-4.1,4-5.9c1.1-1.6,2.2-3.1,3.3-4.5c1.1-1.5,2-2.4,2.6-3c0.2-0.1,0.4-0.4,0.5-0.7c0.2-0.3,0.3-0.6,0.4-0.9l-0.3-0.3
	C183.4,307.2,183.1,307.3,182.9,307.4z M166.2,336c0,0.9-0.2,1.8-0.4,2.8c-0.3,1-0.7,2-1.4,3c-0.1,0.3-0.4,0.6-0.8,0.9
	c-0.4,0.3-0.7,0.4-0.8,0.2c-0.6-0.5-0.9-1.1-0.9-1.8c0-0.7,0.1-1.4,0.3-2.2c0.2-0.7,0.5-1.4,0.9-2.1c0.4-0.6,0.7-1.2,0.9-1.6
	l2.1-3.7c-0.1,0.6-0.1,1.2,0,2C166.2,334.3,166.2,335.1,166.2,336z M217.8,320.8c0,1.7,0,3-0.1,3.9c-0.3,2.7-0.6,5.4-0.7,8
	c-0.2,2.6-0.5,5.3-0.9,7.9c-0.1,0.7-0.5,1.4-1,2.2c-0.6,0.7-1.5,1.1-3,1.1c-1.4,0-2.5-0.8-3.3-2.3c-0.8-1.6-1.5-4.4-2.2-8.5
	c-0.4-4.7-0.6-9.7-0.6-14.9c0-5.2,0.1-10.1,0.3-14.7c0.2-4.6,0.6-8.6,1-12c0.5-3.5,1-5.8,1.6-7c0.2-0.5,0.4-0.9,0.7-1.2
	c0.3-0.3,0.6-0.4,1-0.5c0.4-0.1,1,0,1.7,0.3c0.7,0.3,1.3,1,1.7,1.9c0.4,1,0.8,2,1,3.2c0.3,1.1,0.5,2.2,0.6,3.3
	c0.1,1.1,0.2,1.9,0.3,2.4c0.1,0.8,0.3,1.9,0.4,3.5c0.2,1.6,0.3,3.3,0.5,5.3c0.2,2,0.4,4.1,0.5,6.3c0.2,2.2,0.3,4.3,0.3,6.3
	C217.7,317.2,217.8,319.1,217.8,320.8z M280.1,319.6c1,3.1,1.4,6.1,1.1,9.1c-0.3,2.9-1.1,5.5-2.4,7.8c-1.3,2.2-2.8,4-4.8,5.4
	c-1.9,1.4-4,2-6.2,2c-1.6,0.1-3.4-0.2-5.3-0.7c-1.9-0.6-3.6-1.4-4.9-2.5c-1-0.9-1.9-2-2.9-3.3c-0.9-1.3-1.7-3-2.4-4.9
	c-0.7-1.9-1.2-4.3-1.6-7c-0.4-2.7-0.6-6-0.6-9.7c0-4.9,0.7-9.4,2-13.5c1.3-4.1,3-7.6,5.1-10.6c2.1-2.9,4.4-5.2,6.9-6.8
	c2.5-1.6,5-2.4,7.5-2.4c1.3,0,2.6,0.1,3.8,0.3c1.3,0.2,2.3,0.8,3.1,1.8c0.5,0.5,0.8,1.2,1,2.2c0.2,0.9,0.3,1.8,0.3,2.6
	c0,1.4-0.3,2.6-0.9,3.8c-0.6,1.2-1.3,2.2-2,3c-0.8,0.8-1.6,1.4-2.3,1.6c-0.8,0.3-1.3,0.2-1.6-0.2c-0.3-0.4-0.4-0.7-0.2-1
	c0.2-0.3,0.5-0.5,0.9-0.9c0.5-0.3,1-0.7,1.5-1.3c0.5-0.5,1.1-1.2,1.5-2.1c0.5-0.9,0.5-1.8,0.3-2.7c-0.3-0.9-0.7-1.6-1.3-2.2
	c-0.6-0.6-1.2-1-2-1.1c-0.7-0.2-1.3,0-1.8,0.4c-0.5,0.5-1.3,1.2-2.2,2.2c-1,1-2,2.6-3,4.7c-1,2.1-1.9,4.8-2.7,8.2
	c-0.7,3.4-1.1,7.7-1.1,12.8c0,1.9,0,3.9,0.1,5.8c0.1,1.9,0.2,3.7,0.3,5.4c0.1,1.7,0.3,3.3,0.4,4.7c0.2,1.4,0.3,2.6,0.4,3.5
	c0.1,0.6,0.2,1.2,0.5,1.9c0.3,0.7,0.6,1.4,1,1.9c0.4,0.6,0.9,1,1.5,1.3c0.5,0.3,1.1,0.3,1.8,0.1c0.5-0.1,0.9-0.4,1.3-0.9
	c0.4-0.5,0.8-1.1,1.1-1.7c0.3-0.6,0.6-1.3,0.9-2c0.3-0.7,0.5-1.3,0.6-1.8c0.4-1.4,0.7-2.8,0.8-4.2c0.2-1.4,0.3-2.8,0.3-4.3
	c0-0.2,0-0.5,0-0.9c0-0.4,0-0.8-0.1-1.1c-0.1-0.4-0.4-0.6-0.8-0.8c-0.4-0.2-1-0.1-1.7,0.2c-1.6,1-2.8,1.5-3.8,1.5
	c-1,0-1.6-0.9-1.7-2.7c-0.1-0.7,0.2-1.3,0.9-1.7c0.7-0.5,1.3-0.7,1.9-0.9c1.2-0.3,2.5-0.4,3.7-0.5c1.2-0.1,2.5,0,3.8,0.1
	c0.2,0,0.5,0,0.9,0c0.4,0,0.9,0.1,1.3,0.2c0.5,0.1,0.9,0.3,1.2,0.6C279.8,318.7,280,319.1,280.1,319.6z M332.6,288.5
	c-0.5,0-0.7,0-0.9,0c-1.8,0.2-3.5,0.4-5,0.6c-1.3,0.1-2.6,0.3-3.8,0.4c-1.3,0.1-2.1,0.2-2.5,0.3c-0.4,0-0.5-0.2-0.4-0.7
	c0.1-0.5,0.4-1.1,0.8-1.7c0.4-0.7,0.9-1.4,1.4-2.1c0.5-0.7,0.9-1.4,1.1-1.9c0.3-0.5,0.7-1.3,1.3-2.2c0.6-1,1.2-2.1,1.7-3.3
	c0.6-1.2,1.1-2.5,1.6-3.9c0.5-1.4,0.7-2.7,0.8-4c0-0.3-0.1-0.7-0.4-1.4c-0.1-0.3-0.3-0.5-0.4-0.9c-0.3-0.3-0.5-0.5-0.8-0.7
	c-0.3-0.1-0.7-0.1-1.1,0c-0.4,0.1-0.9,0.4-1.5,0.8c-0.8,0.6-1.7,1.5-2.7,2.9c-1,1.3-2,2.8-3,4.3c-1,1.6-1.8,3.1-2.6,4.6
	c-0.8,1.5-1.4,2.7-1.7,3.6c-0.5,1.2-1,2.4-1.6,3.5c-0.5,1.1-1,2.3-1.6,3.6c-0.1,0.3-0.3,0.5-0.4,0.8c-0.2,0.3-0.3,0.4-0.5,0.4
	c-1.7,0.6-3.4,1-4.9,1c-1.5,0-2.9,0-4.2,0c-0.7,0-1.2,0.1-1.5,0.3c-0.3,0.2-0.4,0.5-0.3,0.7c0.1,0.2,0.4,0.5,0.8,0.7
	c0.4,0.2,1,0.3,1.6,0.3c0.5,0,0.7,0,0.8,0c0.1,0,0.2,0,0.4,0c0.2,0,0.7,0,1.3,0c0.6,0,1.7,0,3.3,0c0.3,0,0.7,0,1.3,0
	c0.5,0,0.7,0.2,0.6,0.5c0,0.1-0.2,1-0.7,2.6c-0.5,1.6-1,3.7-1.6,6.3c-0.6,2.6-1.1,5.4-1.6,8.6s-0.9,6.4-1.2,9.7
	c-0.1,1.2-0.1,2.3-0.2,3.4c-0.4,0.8-0.9,1.6-1.4,2.3c-1.1,1.7-2.4,3.4-4,4.9c-0.7,0.7-1.4,1.1-2,1.1c-0.6,0-1.2-0.4-1.7-1.1
	c-0.5-0.7-1-1.4-1.4-2.1c-0.4-0.7-0.8-1.4-1-2.1c-0.6-1.9-0.8-3.7-0.8-5.4c0.1-1.7,0.3-3.2,0.6-4.3c0.3-0.7,0.5-1.4,0.8-2.2
	c0.3-0.7,0.9-1.1,1.8-1.1c0.6,0.1,1.3,0.1,2-0.1c0.7-0.2,1.3-0.5,1.9-0.9c0.6-0.4,1.1-0.7,1.5-1.2c0.4-0.4,0.7-0.8,0.9-1
	c1-1.5,1.5-2.9,1.7-4.4c0.2-1.4,0.1-2.9,0-4.4c-0.1-0.5-0.3-1.1-0.6-1.6c-0.3-0.5-0.6-1-0.9-1.4c-0.3-0.4-0.8-0.8-1.6-1.2
	c-0.7-0.4-1.5-0.7-2.5-0.8c-0.9-0.1-2,0-3.1,0.4c-1.1,0.4-2.2,1.1-3.2,2.3c-2.2,2.7-3.9,5.4-5,8.1c-1.1,2.7-1.9,5.8-2.2,9.4
	c-0.3,3-0.1,5.8,0.6,8.4c0.6,2.6,2.1,5,4.4,7.1c1.5,1.4,3.3,2.1,5.4,2.1c2.1,0,3.9-0.7,5.3-2.1c1.7-1.6,3.1-3.4,4.2-5.3
	c0.1-0.1,0.2-0.3,0.2-0.4c0,1,0,2.1,0.1,3.1c0.2,3.1,0.8,5.7,1.7,8c1,1.7,2.1,2.9,3.3,3.7c1.3,0.8,2.9,1.1,4.9,0.9
	c0.8-0.1,1.5-0.4,2.1-0.9c0.6-0.6,1.1-1.1,1.6-1.8c0.5-0.6,0.8-1.2,1.1-1.8c0.3-0.6,0.4-0.9,0.5-1l5.8-12c0.5-0.9,0.9-1.8,1.3-2.8
	c0.4-0.9,0.8-1.9,1.2-2.9c0.3-0.7,0.6-1.5,0.9-2.2c0.3-0.8,0.5-1.6,0.8-2.3c0.1-0.1,0.1-0.5,0.2-1c0.1-0.5,0-0.8-0.3-0.8
	c-0.3-0.1-0.6,0.1-0.8,0.5c-0.2,0.4-0.4,0.6-0.5,0.8c-0.8,1.5-1.5,3-2.3,4.5c-0.7,1.5-1.6,3-2.5,4.5c-1.2,2.1-2.4,4.2-3.8,6.4
	c-1.4,2.2-2.5,4-3.4,5.5c-0.6,0.9-1.1,1.4-1.5,1.5c-0.4,0.1-0.7,0-1-0.3c-0.2-0.3-0.4-0.6-0.5-1c-0.1-0.4-0.1-0.6,0-0.6
	c0.1-5.2,0.3-10.1,0.6-14.6c0.3-4.5,0.6-8.4,0.9-11.8c0.3-3.4,0.6-6,0.9-8.1c0.3-2,0.4-3.2,0.5-3.5c0.3-1.3,0.5-2.3,0.8-3.2
	c0.3-0.8,0.6-1.4,0.9-1.9c0.3-0.5,0.5-0.8,0.8-0.9c0.2-0.2,0.4-0.2,0.4-0.2c0.9-0.3,2-0.5,3.2-0.8c1.2-0.3,2.3-0.5,3.4-0.8
	c1.3-0.3,2.7-0.5,4.1-0.8c0.3-0.1,0.6-0.1,0.9-0.2c0.3-0.1,0.5-0.1,0.8-0.1c0.3,0,0.5-0.1,0.7-0.1c0.1-0.1,0.4-0.2,0.7-0.4
	c0.4-0.2,0.5-0.4,0.5-0.7C333.2,288.6,333,288.5,332.6,288.5z M293.8,312.5c0.7-1.5,1.4-2.9,2.1-4.4c0.7-1.4,1.5-2.8,2.3-4.3
	c0.3-0.4,0.6-0.9,1.2-1.6c0.5-0.6,1.1-0.8,1.8-0.6c0.3,0.3,0.4,1,0.3,2.1c-0.1,1.1-0.5,2.7-1.2,4.7c-0.5,1.1-1.1,2-1.6,2.7
	c-0.6,0.7-1.1,1.2-1.7,1.6c-0.6,0.4-1,0.6-1.4,0.8c-0.4,0.1-0.6,0.2-0.8,0.2c-0.5,0.1-0.8,0.1-1.1-0.1
	C293.6,313.4,293.6,313,293.8,312.5z M320.3,282.7c0.5-1.5,1.1-2.9,1.8-4.4c0.7-1.5,1.6-2.8,2.4-4.1c0.9-1.2,1.6-2,2.3-2.2l-7.1,14
	C319.6,285.2,319.8,284.1,320.3,282.7z M56.9,119.2c-1.1,0.3-3.1,0.5-4.3,0.3c-2.3-0.3-6.7-2.2-9.8-4.2c-2.9-2-6.7-5.1-7-5.9
	c-0.1-0.2-0.1-0.7-0.1-1.1c0.1-1.1,0.6-1.5,4.1-3c4.2-1.8,6.6-2.3,10.5-2.4c3.1-0.1,4.2,0.1,6,0.8c3.4,1.5,5.8,3.7,6.5,6.3l0.2,0.7
	l0.8,0.1c0.5,0,3,0.3,5.7,0.5c4.3,0.4,6.2,0.6,10.8,0.8c0.7,0,1.4,0.1,1.6,0.1l0.4,0.1l-0.4-0.8c-0.8-1.7-4.1-6.5-4.4-6.5
	c-0.1,0-0.5,0.2-0.9,0.4c-1.1,0.6-1.7,0.7-3.2,0.7c-1.6,0-2.3-0.2-3.8-1c-2.7-1.4-4.7-4.2-5.7-7.9c-0.6-2.3-0.7-2.7-2.6-6.5
	c-1.8-3.6-1.9-4.1-1.4-4.7c0.3-0.5,0.5-0.6,0.9-0.8c0.2-0.1,0.5-0.1,0.7-0.1c0.7,0.1,2.5,0.3,3.6,0.4c2,0.1,4.8,0.6,5.9,0.9
	c1.3,0.4,3.6,1.6,4.7,2.4c2,1.4,3.7,3.4,4.5,5.1c0.8,1.6,0.9,2.6,0.9,4.8c0,1.8,0,2-0.4,3.1l-0.4,1.2l0.8,1c1.7,2.3,3.1,4.5,4.5,7.3
	l0.6,1.1l6.1-0.1c6-0.1,9.9-0.3,10.3-0.5c0.3-0.2,1.2-0.2,1.2,0c0,0.1,0.1,0.1,0.3,0.2c0.4,0.1,0.8,0.9,0.8,1.4
	c0,0.6-0.4,1.2-0.9,1.5c-0.7,0.4-4.7,0.6-11.2,0.7l-5.9,0.1l-0.6,1c-0.8,1.4-1.8,2.9-2.8,4.2c-0.5,0.6-0.9,1.2-0.9,1.3
	c0,0.1-0.1,0.1-0.1,0.1c-0.1,0-0.1,0.1-0.1,0.2c0,0.2-0.5,0.8-0.6,0.8c-0.1,0-0.3,0.2-0.6,0.5c-0.5,0.5-0.5,0.5-0.3,1.1
	c0.3,0.8,0.4,2.3,0.2,3.3c-0.2,1.1-0.8,3.1-1.4,4.1c-0.5,1.1-2.5,3.2-4,4c-1.9,1.2-4.6,2.1-7.6,2.5c-3.5,0.5-4.1,0.6-5.6,1.1
	c-2.2,0.7-2.9,0.7-3.4-0.1c-0.6-1-0.6-1.1,0.5-3.2c0.5-1.1,1.6-3.3,2.4-5c1.8-3.7,2.7-5.1,4.5-6.9c1.3-1.3,1.5-1.5,3-2.2
	c1.9-0.9,3-1.2,4.9-1.3c1.2,0,1.5,0,2.5,0.4l1.2,0.4l0.4-0.5c1.4-1.6,4.5-5.8,4.4-6c0,0-2.3-0.2-5.1-0.4c-4.2-0.3-8.7-0.7-14.3-1.2
	l-0.8-0.1l-0.5,0.5c-0.3,0.3-0.8,1-1.2,1.5C59.9,117.7,58.4,118.7,56.9,119.2z M373.5,108.3c0,0.4,0,0.9-0.1,1.1
	c-0.3,0.8-4,3.9-7,5.9c-3,2-7.5,3.9-9.8,4.2c-1.2,0.2-3.2,0-4.3-0.3c-1.5-0.4-2.9-1.5-4.1-3c-0.4-0.5-1-1.2-1.2-1.5l-0.5-0.5
	l-0.8,0.1c-5.6,0.6-10.1,0.9-14.3,1.2c-2.8,0.2-5.1,0.3-5.1,0.4c-0.1,0.1,3,4.3,4.4,6l0.4,0.5l1.2-0.4c1.1-0.4,1.4-0.4,2.5-0.4
	c1.8,0,3,0.3,4.9,1.3c1.5,0.8,1.7,0.9,3,2.2c1.8,1.8,2.7,3.2,4.5,6.9c0.8,1.6,1.9,3.9,2.4,5c1.1,2.2,1.1,2.3,0.5,3.2
	c-0.5,0.8-1.1,0.9-3.4,0.1c-1.5-0.5-2.1-0.6-5.6-1.1c-3.1-0.5-5.7-1.3-7.6-2.5c-1.4-0.9-3.4-2.9-4-4c-0.5-1.1-1.2-3-1.4-4.1
	c-0.2-0.9-0.1-2.5,0.2-3.3c0.2-0.5,0.2-0.5-0.3-1.1c-0.3-0.3-0.5-0.5-0.6-0.5c-0.2,0-0.6-0.5-0.6-0.8c0-0.1-0.1-0.2-0.1-0.2
	c-0.1,0-0.1-0.1-0.1-0.1c0-0.1-0.4-0.7-0.9-1.3c-1-1.3-1.9-2.8-2.8-4.2l-0.6-1l-5.9-0.1c-6.5-0.1-10.4-0.3-11.2-0.7
	c-0.5-0.3-0.9-0.9-0.9-1.5c0-0.6,0.4-1.3,0.8-1.4c0.1,0,0.3-0.1,0.3-0.2c0-0.2,0.9-0.2,1.2,0c0.5,0.3,4.3,0.4,10.3,0.5l6.1,0.1
	l0.6-1.1c1.5-2.8,2.8-5,4.5-7.3l0.8-1l-0.4-1.2c-0.4-1.1-0.4-1.3-0.4-3.1c0-2.2,0.2-3.1,0.9-4.8c0.8-1.8,2.5-3.7,4.5-5.1
	c1.1-0.8,3.4-2,4.7-2.4c1.1-0.3,3.9-0.8,5.9-0.9c1.1-0.1,2.9-0.3,3.6-0.4c0.2,0,0.5,0,0.7,0.1c0.4,0.2,0.6,0.3,0.9,0.8
	c0.5,0.7,0.3,1.1-1.4,4.7c-1.8,3.8-2,4.2-2.6,6.5c-0.9,3.7-3,6.5-5.7,7.9c-1.5,0.8-2.2,1-3.8,1c-1.5,0-2-0.1-3.2-0.7
	c-0.4-0.2-0.8-0.4-0.9-0.4c-0.3,0-3.5,4.8-4.4,6.5l-0.4,0.8l0.4-0.1c0.2,0,0.9-0.1,1.6-0.1c4.6-0.3,6.4-0.4,10.8-0.8
	c2.7-0.3,5.2-0.5,5.7-0.5l0.8-0.1l0.2-0.7c0.7-2.6,3.1-4.9,6.5-6.3c1.8-0.8,2.9-0.9,6-0.8c3.9,0.1,6.2,0.7,10.5,2.4
	C372.9,106.8,373.4,107.2,373.5,108.3z M30.1,152.6h20.5v10.2h-5.1v47.7h5.1v10.2H30.1v-10.2h5.1v-18.8H21.6v18.8h5.1v10.2H6.2
	v-10.2h5.1v-47.7H6.2v-10.2h20.5v10.2h-5.1v18.8h13.6v-18.8h-5.1V152.6z M60.8,173.1l-6.8,6.8V214l6.8,6.8h27.3l6.8-6.8v-34.1
	l-6.8-6.8H60.8z M84.7,207.2l-3.4,3.4H67.6l-3.4-3.4v-20.5l3.4-3.4h13.6l3.4,3.4V207.2z M113.7,210.6h5.1v10.2H98.3v-10.2h5.1v-47.7
	h-5.1v-10.2h15.3V210.6z M142.6,220.8h-20.5v-10.2h5.1v-47.7h-5.1v-10.2h15.3v58h5.1V220.8z M173.3,173.1h20.5v10.2h-5.1l-22.2,54.6
	h-15.7l-4.8-6.8v-10.2h10.2v6.8h3.5l4.2-9.7l-12.8-34.6h-5.1v-10.2h20.5v10.2h-5.1l8.5,22.8l8.5-22.8h-5.1V173.1z M267.1,220.8
	h-23.9l-6.8-10.2v-8.5h-5.1v-10.2h20.5v10.2h-5.1v8.5h17.1v-47.7h-5.1v-10.2H279v10.2h-5.1v47.7L267.1,220.8z M316.5,220.8l6.8-6.8
	v-34.1l-6.8-6.8h-27.3l-6.8,6.8V214l6.8,6.8H316.5z M292.7,186.7l3.4-3.4h13.6l3.4,3.4v20.5l-3.4,3.4h-13.6l-3.4-3.4V186.7z
	 M342.1,210.6h5.1v10.2h-20.5v-10.2h5.1v-47.7h-5.1v-10.2h15.3V210.6z M366,210.6h5.1v10.2h-20.5v-10.2h5.1v-47.7h-5.1v-10.2H366
	V210.6z M422.3,173.1v10.2h-5.1L395,237.9h-15.7l-4.8-6.8v-10.2h10.2v6.8h3.5l4.2-9.7l-12.8-34.6h-5.1v-10.2H395v10.2h-5.1l8.5,22.8
	l8.5-22.8h-5.1v-10.2H422.3z"/>
</svg>
