<?xml version="1.0" encoding="utf-8"?>
<!-- Generator: Adobe Illustrator 22.1.0, SVG Export Plug-In . SVG Version: 6.00 Build 0)  -->
<svg version="1.1" id="Layer_1" xmlns="http://www.w3.org/2000/svg" xmlns:xlink="http://www.w3.org/1999/xlink" x="0px" y="0px"
	 viewBox="0 0 1080 1296" style="enable-background:new 0 0 1080 1296;" xml:space="preserve">
<path d="M168.7,258.4c-4.6-3.2-19.7-10-46.7-18c-2.8-0.8-5.6-0.2-8.6,1.8c-1.4,1-2.3,1.3-2.7,1c-0.8-0.8-0.6-1.7,0.5-2.7
	c4.2-3.6,8.8-8.5,14.1-14.8c0.9-1.1,1.5-1.6,1.9-1.8c0.3-0.1,0.8,0,1.3,0.5c0.5,0.3,0.3,1.3-0.6,3.2c-1,2.2-1.2,3.7-0.4,4.5
	c0.3,0.4,0.8,0.7,1.5,0.9c7.5,2.9,19.4,7.7,35.2,14.8c0.5,0.2,0.9,0.2,1.2,0c0.3-0.2,0.3-0.6,0.1-1.2c-3.3-10.6-6.4-21.2-9.2-32
	c-1-0.3-2.4-0.8-4.2-1.5c-2.3-0.8-5-0.6-8.1,0.6c-1.6,0.6-2.5,0.7-2.8,0.2c-0.7-1-0.4-2,0.7-2.7c5.2-3.4,10.5-7.8,16-13
	c1-1,1.7-1.5,2-1.6c0.4-0.1,0.7,0.1,1.2,0.7c0.4,0.5,0.1,1.5-1,3c-2.1,2.8-2.8,4.5-2.2,5.3c0.2,0.3,0.7,0.6,1.4,0.9
	c11.6,5.5,22.9,11.2,34,17.2c0.5,0.3,0.9,0.3,1.3,0.1c0.3-0.2,0.4-0.6,0.2-1.2c-2.8-11.6-5.4-23.3-7.8-35.1
	c-0.2-0.7-0.4-1.2-0.7-1.7c-1.1-1.5-3.6-1.6-7.5,0c-1.5,0.6-2.4,0.5-2.9-0.2c-0.3-0.5-0.4-0.9-0.2-1.2c0.2-0.3,1-0.9,2.3-1.7
	c5.5-3.3,10.4-6.7,14.7-10.3c1.1-0.9,2-1,2.5-0.2c0.5,0.8,0,2-1.4,3.6c-1.6,1.8-2.1,4.5-1.6,8c2.6,16.8,5.8,32.5,9.4,47.2
	c0.3,1.2-0.1,2.6-1.3,4c0,0.1-0.1,0.2-0.2,0.3c-0.7,0.5-1.7,0.3-3-0.8c-4.8-3.8-16.2-10-35-17.6c2.3,9.3,5.7,22,10.7,37.7
	c0.4,1.2,0.1,2.5-1,4c-0.1,0.1-0.2,0.2-0.2,0.3C171.1,259.6,170.1,259.4,168.7,258.4z M212.1,161.9c3.5-1.6,5.8-1.4,7,0.5
	c7.1,11.4,14.3,22.8,21.4,34.2c0.9,1.4,1.1,2.7,0.5,3.7c-0.2,0.4-1.3,1.5-3.2,3.4c-1,1-1.4,1.7-1.1,2.2c0.2,0.3,0.4,0.5,0.5,0.7
	c0.4,0.3,1.1,0.1,2-0.6c3.6-2.7,8.9-6,16.1-9.9c1.1-0.6,1.8-1.1,2-1.4c0.2-0.3,0.1-0.7-0.3-1.3c-0.4-0.7-1.4-0.7-3-0.1
	c-3.2,1.3-5.5,0.8-6.8-1.4c-6.9-11.4-13.8-22.8-20.7-34.2c-0.8-1.4,0.2-3.5,3.2-6.5c1.3-1.3,1.8-2.2,1.5-2.8c-0.4-0.7-0.9-1-1.4-0.9
	c-0.2,0.1-0.9,0.5-1.9,1.3c-5.7,4.2-11.5,7.8-17.4,10.9c-0.8,0.4-1.3,0.8-1.4,1.1c-0.1,0.3,0,0.8,0.5,1.4
	C209.7,162.7,210.6,162.6,212.1,161.9z M262.9,154.4c3,0.6,8.7,0.7,16.9,0.4c6.5-0.2,10.9,0.1,13.2,0.7c2.4,0.7,4.2,2.1,5.2,4.3
	c2.6,5.5,0,10-7.6,13.8c-3,1.5-6,2.2-8.9,2.2c-3-0.1-6.5-1-10.5-2.8c-1.1-0.5-2-0.2-2.9,0.8c-0.7,0.8-0.6,1.7,0.4,2.6
	c2.2,2,4.1,3.6,5.8,4.7c2.8,1.9,8.1,0.7,16.2-3.3c6.1-3,10.3-6.6,12.7-10.9c2.3-4.1,2.5-8.3,0.6-12.5c-1.5-3.3-4.4-5.5-8.8-6.6
	c-3.5-0.9-9.4-1.2-17.6-0.7c-5.4,0.3-9.2,0.2-11.6-0.3c-2.5-0.6-4.3-1.9-5.4-3.9c-1.1-2.2-1.1-4.3,0.1-6.5c1.2-2.1,3.4-4,6.5-5.6
	c3.5-1.8,6.7-2.6,9.4-2.5c3,0.1,6.1,1.3,9.4,3.6c0.9,0.6,1.8,0.6,2.9-0.1c0.9-0.5,1-1.3,0.5-2.4c-1.6-2.9-3.2-5.1-4.9-6.8
	c-0.8-0.8-2.8-0.9-5.9-0.2c-4,0.9-8,2.4-11.8,4.3c-5.4,2.7-9.3,6.2-11.5,10.4c-2.2,4.2-2.3,8-0.5,11.3
	C256.4,151.7,259.1,153.7,262.9,154.4z M306.6,112.7c0.3,0,1.1-0.1,2.4-0.4c3.7-0.8,5.9,0,6.9,2.4c4.9,12.2,9.7,24.5,14.6,36.7
	c1,2.5,0.1,4.4-2.5,5.8c-1.2,0.6-1.6,1.2-1.3,1.9c0.3,0.7,0.5,1,0.8,1.1c0.2,0.1,0.8-0.1,1.6-0.5c5.3-2.7,10.9-4.9,16.6-6.8
	c1.2-0.4,1.9-0.7,2.1-0.9c0.2-0.2,0.2-0.7-0.1-1.3c-0.2-0.6-1.2-0.8-2.9-0.6c-3.9,0.5-6.1,0-6.7-1.5c-1.9-5.1-3.9-10.2-5.8-15.3
	c-0.4-1.2-0.6-2-0.4-2.4c0.2-0.4,1-0.8,2.3-1.3c10.5-3.9,21-7.5,31.7-10.8c1.1-0.3,1.9-0.4,2.3-0.1c0.4,0.3,0.8,1,1.1,2.1
	c1.6,5.2,3.1,10.3,4.7,15.5c0.6,2.1-0.2,3.6-2.6,4.7c-1.5,0.7-2.1,1.4-1.8,2.2c0.2,0.6,0.5,1,0.8,1.1c0.4,0.1,1.1-0.1,2.2-0.5
	c5.6-2,11.4-3.6,17.2-4.7c0.9-0.2,1.4-0.3,1.6-0.6c0.1-0.2,0.1-0.7-0.1-1.3c-0.2-0.6-0.9-0.8-2.2-0.7c-2.3,0.2-4,0.1-4.9-0.1
	c-1.2-0.3-2-1.1-2.3-2.4c-3.7-13-7.5-25.9-11.2-38.9c-0.7-2.4,0.6-4.3,4-5.6c1.3-0.5,1.9-1.1,1.7-1.8c-0.2-0.7-0.4-1.1-0.7-1.2
	c-0.3-0.1-0.9,0-1.7,0.3c-2.6,0.9-5.3,1.7-7.9,2.6c-3.7,1.2-7.3,2.3-10.9,3.1c-1.4,0.3-2.2,0.6-2.4,0.9c-0.3,0.3-0.3,0.8,0,1.5
	c0.2,0.6,1.2,0.8,3.1,0.5c2.2-0.3,3.7-0.4,4.2-0.3c1,0.2,1.8,1,2.2,2.4c1.4,4.5,2.7,9,4.1,13.5c0.4,1.4,0.5,2.3,0.1,2.8
	c-0.2,0.3-1,0.7-2.2,1.1c-10.6,3.3-21,6.8-31.4,10.7c-2,0.8-3.4,0.2-4.1-1.5c-1.6-4.3-3.3-8.7-4.9-13c-0.6-1.6-0.5-2.8,0.3-3.7
	c0.4-0.4,1.7-1.3,4.1-2.7c1.3-0.8,1.9-1.4,1.7-1.9c-0.2-0.6-0.5-1-0.8-1.1c-0.3-0.1-0.9,0.1-1.8,0.5c-4.7,2.1-11,4.5-19,7.3
	c-1.7,0.6-2.5,1.2-2.5,1.7c0,0.2,0.1,0.4,0.2,0.8C306.1,112.4,306.4,112.6,306.6,112.7z M397.6,83.4c3.7-0.3,5.8,0.6,6.3,2.9
	c3,13.1,5.9,26.2,8.9,39.3c0.4,1.7,0.2,2.9-0.7,3.6c-0.3,0.3-1.7,1-4,2.1c-1.3,0.6-1.8,1.1-1.7,1.7c0.1,0.4,0.2,0.6,0.3,0.8
	c0.3,0.4,1,0.4,2,0.1c4.1-1.3,10.1-2.7,17.9-3.9c1.2-0.2,2-0.4,2.2-0.6c0.2-0.2,0.3-0.7,0.2-1.3c-0.2-0.8-1.1-1.1-2.7-1.1
	c-3.4,0.1-5.3-1.1-5.9-3.6c-2.8-13-5.5-26.1-8.3-39.1c-0.3-1.6,1.3-3.2,5-5c1.6-0.8,2.4-1.5,2.3-2.2c-0.2-0.8-0.5-1.3-1.1-1.3
	c-0.2,0-1,0.2-2.2,0.6c-6.6,2-13,3.5-19.4,4.4c-0.9,0.1-1.5,0.3-1.7,0.5c-0.2,0.2-0.2,0.7,0,1.5C395.2,83.4,396,83.6,397.6,83.4z
	 M440,75.3c2.3,0.5,3.8,1,4.7,1.7c0.9,0.7,1.5,1.9,1.7,3.4c1.8,12,3.6,24,5.5,36c0.3,2,0.1,3.5-0.5,4.4c-0.6,1-2.1,1.9-4.3,2.7
	c-1.2,0.5-1.8,1-1.7,1.5c0.2,1,0.9,1.4,2.1,1.1c3.9-0.9,9.3-1.7,16.4-2.4c1.8-0.2,2.7-0.7,2.6-1.8c-0.1-0.8-1-1.2-2.7-1.3
	c-4-0.2-6.3-2-6.8-5.6c-1.6-11.1-3.2-22.2-4.7-33.4c-0.1-0.5,0-0.8,0.3-1c0.3-0.1,0.6-0.1,0.9,0.1c9.6,6.1,19.3,13,28.9,20.7
	c11.5,9.2,17.7,15.3,19.3,17.8c1,1.5,2.2,2.1,3.5,1.7c0.8-0.2,1.1-1.1,1-2.5c-0.4-3.8-0.7-8.8-1.1-15c-0.5-9.8-1.1-19.7-1.6-29.5
	c-0.2-2.9,1.7-4.9,5.6-6c1.7-0.5,2.6-1.1,2.6-1.8c0-0.8-0.3-1.2-0.9-1.4c-0.3-0.1-1.1,0-2.2,0.1c-6.6,0.9-12.6,1.3-18,1.2
	c-1.4,0-2.1,0.5-2,1.7c0,0.5,0.8,0.9,2.4,1c4.4,0.3,6.7,2.2,6.9,5.7c0.6,9.9,1.3,19.8,1.9,29.7c0,0.7-0.1,1.1-0.3,1.1
	c-0.2,0-0.6-0.2-1.1-0.7c-13.6-11.4-28.1-22.2-43.3-32.5c-1.4-1-2.9-1.3-4.5-0.9c-3,0.7-6.7,1.1-11,1.3c-1.4,0.1-2.1,0.5-2,1.2
	C437.5,74.4,438.3,74.9,440,75.3z M537.6,112.5c6.3,5.1,14,7.8,23.3,8.3c6.4,0.3,12.3-0.4,17.6-2c4.7-1.5,7.2-3,7.4-4.6
	c0.4-4.3,0.8-8.5,1.2-12.8c0.1-1.2,0.7-1.9,1.9-2.2c0.4-0.1,1.6-0.2,3.6-0.2c1.5,0,2.3-0.5,2.3-1.4c0.1-1-0.3-1.6-1.1-1.7
	c-0.2,0-0.5,0-0.8,0c-6.3,0-12.7-0.6-19.3-1.8c-1.2-0.2-2-0.2-2.3-0.1c-0.3,0.1-0.5,0.6-0.7,1.3c-0.1,0.7,0.7,1.3,2.4,1.8
	c2.3,0.8,3.9,1.6,4.6,2.5c0.9,1,1.2,2.5,1.1,4.5c-0.2,2.8-0.4,5.7-0.7,8.5c-0.1,1.2-1.7,2.3-4.9,3.2c-3.3,1-6.8,1.4-10.6,1.2
	c-7.3-0.4-13.2-2.7-17.8-7.3c-4.8-4.7-7.2-10.7-7.2-18.3c0-7.8,2.2-13.8,6.8-17.9c4.4-4,10.6-5.8,18.4-5.5
	c5.7,0.3,10.1,1.4,13.2,3.4c3.1,2,5.4,5.1,6.8,9.3c0.3,0.8,1.2,1.3,2.7,1.3c1.3,0.1,2-0.4,2.1-1.3c0.4-4.1,0.5-7.2,0.3-9.3
	c-0.1-1.1-2-2.4-5.7-3.8c-5.1-1.9-11.4-3.1-19-3.4c-9.8-0.4-18.3,2.1-25.1,7.4c-7.1,5.5-10.5,12.5-10.4,20.8
	C527.9,100.7,531.2,107.3,537.6,112.5z M641.1,77.1c2.6,0.9,5,2.9,7,6c8.1,11.9,13.1,22,15.6,30c-0.8,3.6-1.7,7.3-2.5,10.9
	c-0.5,2.2-1.2,3.6-2.1,4.3c-0.9,0.7-2.6,1-5.2,1.1c-1.3,0-1.9,0.5-1.9,1.4c0,1,0.9,1.5,2.7,1.6c5.7,0.8,11.4,2.2,17.1,4.2
	c1.1,0.4,1.7,0.6,1.8,0.6c0.6,0.1,1-0.1,1.3-0.7c0.5-0.9-0.1-1.8-1.8-2.5c-2.2-1.1-3.6-2-4.1-2.7c-0.6-0.9-0.7-2.3-0.2-4.2
	c1.2-4.7,2.3-9.4,3.5-14.1c3.1-2.8,6.7-5.6,10.8-8.4c1.7-1.2,6.1-4.1,13.2-8.6c3.6-2.3,6.7-3.3,9.2-3.2c2.2,0.1,3.4-0.3,3.7-1.2
	c0.3-0.9-0.3-1.6-1.7-1.8c-5-0.9-10.6-2.6-16.7-4.9c-2-0.7-3.1-0.7-3.5,0.2c-0.3,0.8,0.2,1.6,1.7,2.4c2.7,1.6,3.8,3,3.4,4.4
	c-0.2,0.7-0.8,1.5-1.9,2.3c-2.2,1.7-5.5,4-9.8,7.2c-4.3,3.1-7.3,5.5-9.1,6.9c-0.5,0.4-0.8,0.6-1.1,0.5c-0.2-0.1-0.4-0.4-0.7-0.9
	c-4.3-10-8.1-17.6-11.1-23c-0.5-0.9-0.7-1.6-0.6-2.1c0.2-1,1.8-1.7,4.8-2c1.7-0.2,2.7-0.5,2.8-1.1c0.2-0.8,0-1.3-0.5-1.5
	c-0.3-0.1-1-0.2-2.2-0.3c-8.6-0.7-15.8-1.8-21.5-3.5c-1.4-0.4-2.2,0.1-2.4,1.3C638.9,76,639.6,76.5,641.1,77.1z M717.3,143
	c-4.3-7.1-5.4-14.5-2.8-22.4c2.5-7.7,7.8-13.1,16.2-16c8.3-2.8,17.2-2.5,26.6,1.2c9.5,3.8,16.4,9.6,20.4,17.1
	c4.1,7.6,4.2,15.2,0.8,22.6c-3.3,7.2-9.2,11.8-17.5,14.2c-8.1,2.3-16.2,1.9-24.4-1.4C727.9,154.8,721.5,149.8,717.3,143z
	 M724.7,142.4c2.8,5.8,7.9,10,15.2,13c5.9,2.3,11.5,2.4,16.9,0.1c5.4-2.3,9.6-6.5,12.4-12.8c3.2-7.3,3.5-14.1,0.5-20.4
	c-2.9-6.1-8.2-10.7-16-13.7c-6.4-2.5-12.5-2.5-18,0c-5.5,2.5-9.3,7-11.5,13.4C721.5,129.6,721.8,136.4,724.7,142.4z M810.3,193.8
	c7.4,4.3,14,5.9,20.2,4.8c5.9-1.1,11-4.7,15.1-11c4.3-6.6,8.5-13.2,12.8-19.8c1-1.6,2.1-2.4,3.3-2.4c0.9,0,2.5,0.5,5,1.5
	c1.4,0.6,2.3,0.7,2.6,0.2c0.2-0.3,0.4-0.6,0.4-0.7c0.2-0.5-0.3-1.1-1.5-1.8c-3.2-1.7-8.6-5.3-16.4-10.5c-1.2-0.8-1.9-1.2-2.1-1.2
	c-0.5-0.2-1,0.1-1.5,0.8c-0.4,0.6,0.1,1.5,1.6,2.8c1.8,1.5,3,2.8,3.4,3.9c0.5,1.3,0.3,2.8-0.7,4.4c-4.2,6.7-8.4,13.4-12.6,20
	c-6.8,10.8-15.5,12.7-26.2,6.4c-6.3-3.7-10.1-7.6-11.4-12.1c-1.3-4.4-0.4-9.7,2.9-15.9c3.7-7,7.5-14,11.2-21c0.8-1.5,1.8-2.2,3-2.2
	c0.5,0,2.1,0.5,4.8,1.4c1.4,0.5,2.2,0.4,2.5-0.1c0.4-0.7,0.5-1.1,0.4-1.4c-0.1-0.2-0.6-0.6-1.6-1c-4.4-2-10.4-5.2-18.3-9.6
	c-1.2-0.7-1.9-1-2.1-1c-0.5-0.1-1,0.2-1.3,1c-0.2,0.4-0.2,0.8-0.1,1.1c0.2,0.3,0.8,0.8,1.8,1.5c3.1,2.2,4,4.4,2.8,6.7
	c-3.8,7.3-7.5,14.6-11.3,21.9C790.1,174.2,794.7,184.8,810.3,193.8z M873.4,234.1c0.3-0.6,1.6-0.6,3.8,0.1c2.4,0.8,5.1,0.5,8.3-0.9
	c12.1-5.1,20.3-8.2,24.1-9.8c9.2-3.7,16.4-6.9,21.5-9.8c0.8-0.5,2.3-0.2,4.7,0.9c0.6,0.3,0.6,1.4,0.1,3.3
	c-3.8,15.7-8.1,32.4-13.2,50.1c-0.8,2.8-0.3,5.7,1.4,8.6c0.8,1.3,0.9,2.1,0.3,2.5c-0.7,0.4-1.1,0.5-1.4,0.5c-0.2-0.1-0.5-0.4-0.9-1
	c-2.8-3.7-7.5-8.5-14.3-14.1c-1.3-1-1.8-1.9-1.5-2.5c0.4-0.7,1.2-0.8,2.4-0.2c3.4,1.5,5.4,1.8,6.1,1.1c0.3-0.3,0.5-0.9,0.8-1.7
	c1.6-5.2,2.7-9.4,3.5-12.7c-1.8-1.5-4.9-4.2-9.3-8.1c-3.7-3.2-6.7-6-9.2-8.3c-2.4,1.1-5.7,2.6-10,4.5c-1,0.5-1.7,1-2.2,1.6
	c-1,1.2-0.9,2.7,0.1,4.5c1.6,2.8,2.2,4.3,1.7,4.7c-0.7,0.7-1.6,0.3-3-1.1c-4.2-4.2-8.6-7.6-13.1-10
	C873.2,235.9,872.8,235.1,873.4,234.1z M904.2,230.9c2.5,2.4,5.5,5.1,8.8,8c2,1.8,4.4,3.9,7.2,6.2c1.1-4.5,2.9-11.5,5-21.2
	c0.1-0.5,0-0.9-0.2-1.1c-0.3-0.2-0.6-0.2-1.1,0C917.2,225.4,910.6,228.1,904.2,230.9z M285.8,398.5v62.9h7.6v30.2h-49.7v-30.2h7.6
	v-21.2l-17.5,36h-7.6l-17.6-36v21.2h7.6v30.2h-49.5v-30.2h7.6v-62.9h-7.6v-30.2h43.1l20.2,43.4l20.5-43.4h42.9v30.2H285.8z M281,466
	V394h7.6v-20.9h-35.3L230,422.8l-23.2-49.7h-35.4V394h7.8V466h-7.8v20.9h40.4V466h-7.8v-46.3l25.3,51.7h1.7l25.3-51.7V466h-7.6v20.9
	h40.2V466H281z M285.6,390.7v-14.6h-30.4L230,430.1l-25.3-53.9h-30.2v14.6h7.6v78.5h-7.6v14.6h33.9v-14.6h-7.6v-63.1L230,466
	l29.3-59.9v63.1h-7.8v14.6h34.1v-14.6H278v-78.5H285.6z M355.5,469.3v14.6h75.3V454h-19v15.3h-29v-33.4h30.5v-11.7h-30.5v-33.4h29
	v14.9h19v-29.5h-75.3v14.6h7.6v78.5H355.5z M355.3,461.3v-62.8h-7.6v-30.2h90.9v45.3H404v-15.1h-13.4v17.6h30.7v27.5h-30.7v17.6H404
	v-15.1h34.6v45.5h-90.9v-30.4H355.3z M360.1,393.8V466h-7.8v20.9H434v-36h-25.3V466h-22.9v-27h30.7v-18.1h-30.7v-27.1h22.9v15.1H434
	v-35.8h-81.7v20.7H360.1z M557.5,394.9c0.7,0.6,1,1.4,1,2.3v24.8c0,0.9-0.3,1.6-1,2.2c-0.7,0.6-1.5,0.8-2.4,0.8h-22.9v-31h22.9
	C556,394,556.8,394.3,557.5,394.9z M553.7,398.5h-17v21.9h17V398.5z M578,469.3h7.8v14.6h-23.4L542.7,442H529v27.3h7.6v14.6h-34.9
	v-14.6h7.6v-78.5h-7.6v-14.6H567c3.8,0,7.1,1.4,9.8,4.2c2.7,2.8,4.1,6.1,4.1,9.9v37.7c0,1.7-0.5,3.3-1.5,4.9c-1,1.6-2.3,3-4,4.3
	c-1.6,1.3-3.5,2.4-5.5,3.3c-2,0.9-4.1,1.6-6.3,2L578,469.3z M561.5,397.2c0-1.8-0.6-3.3-1.9-4.6c-1.2-1.2-2.8-1.9-4.6-1.9H529v37.5
	h26.1c1.8,0,3.3-0.6,4.6-1.9c1.2-1.2,1.9-2.7,1.9-4.4V397.2z M593.6,491.6h-36.3L544.4,464v27.6h-50.7v-30.2h7.8v-62.9h-7.8v-30.2
	H567c3.1,0,5.9,0.6,8.5,1.8c2.6,1.2,4.9,2.8,6.9,4.7c2,2,3.5,4.3,4.7,7c1.1,2.7,1.7,5.5,1.7,8.4v37.7c0,4.1-1.4,7.9-4.1,11.4
	c-2.7,3.5-5.8,6.2-9.3,8.1l7.5,14.1h10.9V491.6z M588.8,466h-9l-11.4-21.2c1.9-0.3,3.8-1,5.7-2.1c1.9-1.1,3.5-2.3,4.9-3.8
	c1.4-1.5,2.6-3.2,3.5-5.1c0.9-1.9,1.4-3.9,1.4-5.9v-37.7c0-2.4-0.5-4.6-1.4-6.6c-0.9-2-2.1-3.8-3.6-5.4c-1.5-1.6-3.3-2.8-5.3-3.7
	c-2-0.9-4.2-1.4-6.6-1.4h-68.5V394h7.6V466h-7.6v20.9h41.2V466h-7.5v-20.9h8.5l19.7,41.7h28.5V466z M537.6,449.8h-0.8v11.7h6.3
	L537.6,449.8z M661.1,469.3v-78.5h-7.6v-14.6h65.3c3.8,0,7.1,1.4,9.8,4.2c2.7,2.8,4.1,6.1,4.1,9.9v37.7c0,1.7-0.5,3.3-1.5,4.9
	c-1,1.6-2.3,3-4,4.3c-1.6,1.3-3.5,2.4-5.5,3.3c-2,0.9-4.1,1.6-6.3,2l14.4,26.8h7.8v14.6h-23.4L694.5,442h-13.7v27.3h7.6v14.6h-34.9
	v-14.6H661.1z M680.8,428.2h26.1c1.8,0,3.3-0.6,4.6-1.9c1.2-1.2,1.9-2.7,1.9-4.4v-24.8c0-1.8-0.6-3.3-1.9-4.6
	c-1.2-1.2-2.8-1.9-4.6-1.9h-26.1V428.2z M706.9,425H684v-31h22.9c0.9,0,1.7,0.3,2.4,0.9c0.7,0.6,1,1.4,1,2.3v24.8
	c0,0.9-0.3,1.6-1,2.2C708.6,424.7,707.8,425,706.9,425z M705.5,398.5h-17v21.9h17V398.5z M653.3,461.5v-62.9h-7.8v-30.2h73.3
	c3.1,0,5.9,0.6,8.5,1.8c2.6,1.2,4.9,2.8,6.9,4.7c2,2,3.5,4.3,4.7,7c1.1,2.7,1.7,5.5,1.7,8.4v37.7c0,4.1-1.4,7.9-4.1,11.4
	c-2.7,3.5-5.8,6.2-9.3,8.1l7.5,14.1h10.9v30.2h-36.3L696.2,464v27.6h-50.7v-30.2H653.3z M657.9,394V466h-7.6v20.9h41.2V466H684
	v-20.9h8.5l19.7,41.7h28.5V466h-9l-11.4-21.2c1.9-0.3,3.8-1,5.7-2.1c1.9-1.1,3.5-2.3,4.9-3.8c1.4-1.5,2.6-3.2,3.5-5.1
	c0.9-1.9,1.4-3.9,1.4-5.9v-37.7c0-2.4-0.5-4.6-1.4-6.6c-0.9-2-2.1-3.8-3.6-5.4c-1.5-1.6-3.3-2.8-5.3-3.7c-2-0.9-4.2-1.4-6.6-1.4
	h-68.5V394H657.9z M689.4,449.8h-0.8v11.7h6.3L689.4,449.8z M837,449.1v20.2h-8.7v14.6h38.3v-14.6H858v-20.2l29.2-58.3h7.3v-14.6
	h-35.1v14.6h8.1l-20,45.8l-20-45.8h8.1v-14.6h-35.1v14.6h7.3L837,449.1z M802.7,398.5h-10.2v-30.2h51v30.2h-4.1l8,18.8l8-18.8h-4.1
	v-30.2h51v30.2h-10.2l-26.5,52.2v10.7h8.6v30.2h-53.9v-30.2h8.7v-10.7L802.7,398.5z M797.3,394h8.5l28,55.8V466h-8.5v20.9h44.4V466
	h-8.5v-16.3l28-55.8h8.5v-20.9h-41.6V394h6.6l-15.3,34.8L832.2,394h6.6v-20.9h-41.6V394z M148.2,700.9c5.2,1.6,10.6,2.2,16.1,1.8
	c5.5-0.3,10.9-1.4,16.4-3.3c5.4-1.9,10.5-4.2,15.2-7c7.2-4.3,13.7-9.2,19.5-14.9c5.8-5.7,11.4-11.8,16.6-18.6c0.7-0.8,1.3-1.7,2-2.6
	c0.7-0.9,1.2-1.8,1.7-2.6c0.8-1.1,1.1-2.4,0.7-3.8c-0.3-1.4-1-2.7-2-3.9c-1-1.2-2.1-2.3-3.3-3.2c-1.2-0.9-2.4-1.6-3.6-2.1
	c-1.3-0.5-2.9-0.9-4.8-1.1c-1.9-0.2-3.4,0.2-4.5,1.4c-1.1,1.3-2.2,2.7-3.1,4.1c-0.9,1.4-1.8,2.7-2.8,4.1c-3.4,4.6-7.2,9-11.2,13.3
	c-4,4.3-8.6,8.3-13.6,12c-2.8,2.1-6,4.2-9.7,6.3c-3.7,2.1-7.5,3.6-11.4,4.7c-3.9,1.1-7.8,1.3-11.7,0.7c-3.9-0.6-7.3-2.3-10.5-5.3
	c-5.2-5.7-7.7-12.5-7.3-20.2c0.4-7.7,2.5-15.7,6.3-23.9c2.3-5.2,4.9-10.3,7.9-15.1c3-4.8,6.2-9.5,9.8-14.1
	c5.1-6.4,10.9-12.6,17.3-18.6c6.5-6,13.5-11.3,21-15.9c7.5-4.6,15.5-8.3,23.9-11.2c8.4-2.9,17-4.4,26.1-4.5c5.6,0,11.1,0.5,16.6,1.5
	c5.5,1,10.8,2.6,15.9,4.9c1.6,0.8,3.7,2,6.3,3.4c2.5,1.5,4.7,2.2,6.5,2.2c1.8,0,3.6-0.7,5.4-2.2c1.8-1.5,3.1-3,3.9-4.4
	c1-1.8,1.6-3.9,2-6.4c0.3-2.5-0.4-4.4-2.2-5.9c-1-0.8-2.3-1.6-4.1-2.3s-4.7-2.2-9-4.3c-10.5-4.3-21.4-6.8-32.6-7.7
	c-11.2-0.9-22.3,0-33.3,2.8c-11.2,3-21.6,7.5-31.4,13.6c-9.8,6.1-18.8,13.2-27.2,21c-8.4,7.9-15.9,16.6-22.6,26.2
	c-6.7,9.6-12,19.8-16,30.6c-1.8,4.9-3.2,10.1-4.2,15.6c-1,5.5-1.4,10.9-1.1,16.4c0.2,5.4,1.3,10.7,3.2,15.7
	c1.9,5.1,4.8,9.7,8.7,13.8C138.3,696.4,143,699.4,148.2,700.9z M516.3,582.9c2.1-2.2,3.2-4.7,3.2-7.5c0-3-1.1-5.5-3.3-7.6
	c-2.2-2.1-4.7-3.2-7.5-3.2c-3,0-5.5,1.1-7.6,3.2c-2.1,2.1-3.2,4.7-3.2,7.6c0,2.8,1.1,5.3,3.2,7.5c2.1,2.2,4.7,3.3,7.6,3.3
	C511.7,586.2,514.2,585.1,516.3,582.9z M569.8,585.7c-0.6,1-1.4,1.8-2.3,2.6c-1,0.7-2.1,1.4-3.2,1.8c-1.2,0.5-2.2,1.1-3.2,1.7
	c-2.8,1.8-5,4-6.5,6.6c-1.6,2.6-2.7,5.3-3.3,8.1c-1.6,6.9-2.5,13.9-2.7,21c-0.2,7.1-0.7,14.2-1.5,21.3c-0.5,5.6-1.8,10.8-4.1,15.6
	c-2.2,4.8-5,9.1-8.5,12.7c-3.4,3.6-7.5,6.4-12,8.5c-4.6,2.1-9.7,2.9-15.2,2.6c-4.8-0.2-9.1-1.3-13-3.3c-3.9-2-7.2-4.7-9.7-7.9
	c-1.6-2-2.9-4.2-3.7-6.7c-1.1,1-2.2,2.1-3.3,3.1c-4.9,4.8-9.4,8.4-13.4,10.8c-4,2.5-8.2,3.8-12.7,3.9c-3.1,0.2-6.1-0.4-8.9-1.6
	c-2.8-1.2-4.9-3.2-6.4-6c-1.8-3-2.6-6.1-2.3-9.6c0.2-3.4,0.9-6.7,2.1-9.8c0.2-0.7,0.5-1.4,0.7-2.1c-0.3,0.3-0.7,0.7-1,1
	c-2.1,2.2-4,4.1-5.7,5.7c-1.6,1.6-3.1,3-4.3,4.2s-2.4,2.4-3.6,3.6c-1.8,1.6-3.7,3.3-5.7,5s-4.1,3.3-6.3,4.8c-2.2,1.5-4.5,2.7-7,3.6
	c-2.5,0.9-5,1.4-7.6,1.4c-3.4,0-6.4-0.7-8.9-2.1c-2.5-1.4-4.3-3.2-5.7-5.4c-1.3-2.2-2.1-4.8-2.3-7.7c-0.2-3,0-5.9,0.9-8.9
	c1.6-6.4,4.4-12.3,8.2-17.7c3.9-5.4,7.8-10.7,11.9-15.7c1.1-1.5,2.3-3,3.3-4.4c1.1-1.5,2.3-3,3.6-4.4c-1-0.3-2.2-0.8-3.6-1.5
	c-1.4-0.7-2.5-1.3-3.3-2c-1.1,1.5-2.4,3-3.7,4.5c-1.3,1.6-2.8,3.3-4.5,5.3c-1.7,2-3.8,4.3-6.1,6.9c-2.4,2.6-5.3,5.7-8.7,9.3
	c-1,1-2,2.1-3,3.2c-1,1.1-2.1,2.1-3.4,2.7c-1.8,1-3.5,1.2-5.2,0.6c-1.6-0.6-3-1.5-3.9-2.8c-0.1-0.2-0.2-0.4-0.4-0.6
	c-0.4,0.6-0.8,1.2-1.4,1.7c-1.1,1.1-2.2,2.2-3.2,3.3c-3,3-5.5,5.5-7.7,7.7c-2.2,2.2-4.1,4.1-5.8,5.7c-1.6,1.6-3.1,3-4.4,4.2
	c-1.3,1.2-2.5,2.3-3.7,3.3c-4.1,3.6-8.6,6.9-13.5,9.8c-4.9,3-10.2,4.6-15.7,4.9c-2.8,0.2-5.4-0.2-7.7-1.2c-2.4-1-4.3-2.6-5.8-4.9
	c-1.8-3-2.5-6.2-2.2-9.7c0.3-3.5,1.2-6.8,2.7-10c2.8-6.4,6.6-12.1,11.4-17.2c4.8-5.1,9.6-10.1,14.4-15c0.5-0.5,1.6-1.6,3.2-3.3
	c1.6-1.7,3.2-3.4,4.7-5.2c1.5-1.7,2.5-3.1,3-4.2c0.5-1.1-0.2-1.3-2.2-0.6c-3.8,1.3-7.5,3-11.1,5c-3.6,2.1-7.1,4.2-10.3,6.5
	c-9.3,6.2-17.3,13-24,20.4c-6.6,7.4-12.8,15.1-18.6,23.1c-3.3,4.6-5.4,7.7-6.5,9.3c-1.1,1.6-2.3,2.6-3.6,3c-2,0.7-4,0.7-6,0.2
	c-2-0.5-3.7-1.6-5-3.2c-1-1.3-1.6-2.6-1.7-3.8c-0.2-1.2,0-2.4,0.5-3.6c0.5-1.1,1.1-2.3,2-3.4c0.8-1.1,1.6-2.3,2.5-3.4
	c1.8-2.6,3.7-5.2,5.5-7.7c1.9-2.5,3.8-5.1,5.8-7.7c13.3-18,26.5-34.9,39.7-50.7c13.2-15.7,26.9-30.9,41.2-45.5
	c2.3-2.3,4.5-4.5,6.6-6.6c2.1-2.1,4.3-4.2,6.6-6.1c1-0.8,1.9-1.5,2.8-2.1c0.9-0.6,2-0.7,3.3-0.4c2.6,0.8,4.7,2.2,6.3,4.1
	c1.6,1.9,2.3,4.1,2.3,6.5c0,1.3-0.5,2.4-1.5,3.2c-1,0.8-1.9,1.6-2.7,2.5c-8.9,7.9-17,16.1-24.3,24.8c-7.4,8.7-14.6,17.3-21.6,25.8
	c2.8-1.3,5.7-2.5,8.7-3.7c3-1.1,6-1.9,8.9-2.2c2.9-0.3,5.6-0.1,8.1,0.6c2.5,0.7,4.7,2.3,6.5,4.5c1.3,2,2,4,2.1,6
	c0.1,2.1-0.2,4.1-0.9,6.1c-0.7,2.1-1.6,4-2.8,5.9c-1.2,1.9-2.4,3.7-3.6,5.3c-4.6,6.2-9.6,11.8-14.9,16.7c-5.3,4.9-10.2,10.2-14.6,16
	c-2.3,3-3.8,5.2-4.4,6.6c-0.7,1.5-0.9,2.5-0.6,3.1c0.2,0.6,0.7,0.9,1.4,0.9c0.7,0,1.1-0.1,1.5-0.2c2.3-1,4.5-2.2,6.6-3.7
	c2.1-1.5,4.2-3,6.1-4.7c2.5-2.1,5.4-4.8,8.9-8c3.4-3.2,7.9-7.7,13.3-13.4c1-1.1,2-2.3,3.2-3.4c1.1-1.1,2.4-2,3.7-2.5
	c2.8-1,5.2-0.5,7.4,1.4c0.5,0.5,1,1,1.3,1.5c0.2-0.4,0.5-0.8,0.9-1.1c4.9-4.8,9.5-9.6,13.9-14.5c4.3-4.9,8.6-9.9,12.9-15
	c0.3-0.7,0.8-1.3,1.4-1.8c0.6-0.6,1-1.2,1.4-1.8c-0.3-1.6-0.4-3.4-0.1-5.4c0.2-2,0.7-3.8,1.5-5.4c0.7-1.6,1.8-3,3.2-4.1
	c1.4-1.1,3.1-1.7,5-1.8c2.5-0.2,4.6,0.6,6.4,2.2c1.8,1.6,2.9,3.7,3.2,6.1c0.2,1.6,0,3.2-0.5,4.8c-0.5,1.6-1.1,3.1-2,4.5l2.7,1.2
	c2.5,1.1,4.9,1.8,7.3,1.8c2.4,0.1,4.7,0.8,7,2.1c2.1,1.3,3.7,3.1,4.8,5.4c1.1,2.3,0.8,4.3-0.9,6.1c-5.1,5.7-9.7,11.2-13.9,16.4
	c-4.2,5.2-8.2,10.4-11.9,15.6c-0.7,1-1.6,2.7-3,5c-1.3,2.4-2.4,4.7-3.3,6.9c-0.9,2.2-1.2,4-1,5.3c0.2,1.3,1.6,1.3,4.1,0
	c4.9-2.6,9.7-6.3,14.3-11.1c4.6-4.8,10.5-10.7,17.7-18c1-1.1,2-2.3,3.2-3.6c1.1-1.2,2.4-2.2,3.7-2.8c2.6-1,5-0.6,7.3,1.1
	c0.7,0.6,1.3,1.2,1.7,1.9c4.3-5.4,8.6-10.7,12.9-15.8c2.3-2.8,4.6-5.5,7-8.2c2.4-2.7,4.9-5.3,7.5-7.7c1.1-1.1,2.3-2.3,3.6-3.4
	c1.2-1.1,2.7-1.8,4.3-2c2.8,0,5,1.1,6.6,3.2c1.6,2.1,2.6,4.3,3,6.6c0,1.3-0.2,2.3-0.6,3.1c-0.4,0.7-1,1.6-1.8,2.6
	c-5.4,5.7-10.7,11.4-15.7,17c-5.1,5.6-9.8,11.5-14.3,17.7c-3.1,4.3-5.3,8-6.6,11.1c-1.3,3.1-1.7,5.3-1.2,6.6
	c0.5,1.3,1.9,1.5,4.3,0.5c2.4-1,5.7-3.4,10-7.4c2.3-2.1,4.9-4.6,7.7-7.5c2.9-2.9,7.2-7.2,12.9-12.9c1.1-1.1,2.3-2.3,3.3-3.6
	c1.1-1.2,2.3-2.2,3.8-2.8c2.6-1,5-0.6,7.3,1.1c0.6,0.5,1.1,1,1.5,1.6c0.2-0.3,0.5-0.6,0.8-1c2.8-2.8,5.4-5.5,8-8.2
	c2.5-2.7,5-5.5,7.5-8.5c2.3-2.8,4.6-5.7,6.9-8.7c2.3-3,4.8-6.5,7.6-10.5c1.3-5.2,3.3-10,5.9-14.3c2.5-3.8,5.6-6.9,9.5-9.5
	c3.8-2.5,8.2-3.8,12.9-3.8c2.3,0,4.3,0.6,5.9,1.7c1.6,1.1,2.5,2.8,2.7,4.9C570.7,583.5,570.4,584.7,569.8,585.7z M530.3,631.2
	c-3,3.6-5.9,7-8.7,10.1c-2.9,3.1-5.7,5.9-8.5,8.4c-1.6,1.5-3.3,2-5,1.6c-1.7-0.4-3.2-1.3-4.3-2.6c-0.3-0.3-0.5-0.7-0.8-1
	c-0.3,0.5-0.7,1-1.1,1.4c-1.1,1.1-2.2,2.2-3.3,3.3l-3.2,3.3c-0.1,0.3-0.1,0.6-0.2,0.9c-1.6,5.2-1,9.4,1.8,12.5
	c2.9,3.1,6.7,4.7,11.4,4.7c3.8,0,7.4-1.4,10.8-4.3c3.4-2.9,5.9-6,7.4-9.5c0.7-1.3,1.1-2.7,1.5-4.3c0.3-1.6,0.6-3.4,0.9-5.5
	c0.2-2.1,0.4-4.7,0.6-7.7C529.8,639.4,530,635.6,530.3,631.2z M941.5,582c0,1.5-0.3,2.7-0.9,3.7c-0.6,1-1.4,1.8-2.3,2.6
	c-1,0.7-2.1,1.4-3.2,1.8c-1.1,0.5-2.2,1.1-3.2,1.7c-2.8,1.8-5,4-6.5,6.6c-1.6,2.6-2.7,5.3-3.3,8.1c-1.6,6.9-2.5,13.9-2.7,21
	c-0.2,7.1-0.7,14.2-1.5,21.3c-0.5,5.6-1.8,10.8-4.1,15.6c-2.2,4.8-5,9.1-8.5,12.7c-3.4,3.6-7.5,6.4-12,8.5
	c-4.6,2.1-9.7,2.9-15.2,2.6c-4.8-0.2-9.1-1.3-13-3.3c-3.9-2-7.2-4.7-9.7-7.9c-1.6-2-2.8-4.1-3.7-6.4c-0.8,0.8-1.6,1.6-2.4,2.4
	c-3.4,3.3-7.3,6.5-11.4,9.7c-4.2,3.2-9,5-14.4,5.5c-3.9,0.3-7.4-0.2-10.3-1.5c-3-1.3-5.2-3.4-6.9-6.1c-1-1.6-1.6-3.8-2-6.4
	c-2.3,2-4.6,3.8-6.9,5.4c-2.3,1.6-4.7,3.2-7.1,4.7c-3.9,2.1-8,3.4-12.2,3.9c-4.2,0.5-8.2-0.2-11.9-2.2c-3.4-1.8-5.7-4.3-6.8-7.6
	c-1.1-3.3-1.4-6.8-1.1-10.5c0.3-2.9,0.9-5.7,1.8-8.4c-0.2,0.2-0.5,0.5-0.7,0.7c-2.2,2.1-4.1,4-5.8,5.7c-1.6,1.6-3.1,3-4.4,4.2
	c-1.3,1.1-2.5,2.2-3.7,3.2c-4.4,3.9-8.9,7.1-13.3,9.6c-4.4,2.5-8.5,4.1-12.3,4.8c-3.8,0.7-7.2,0.7-10.3-0.2
	c-3.1-0.9-5.5-2.7-7.1-5.5c-1.8-3.1-2.5-6.4-2.1-10c0.4-3.5,1.3-6.8,2.6-9.7c3-6.4,7.4-12.7,13.3-19.1c5.9-6.3,12.9-13.6,21.1-22
	c1.5-1.5,2.5-2.8,3.2-4.1c0.7-1.2-0.4-1.4-3.2-0.6c-3.9,1.3-7.7,3.2-11.2,5.7c-3.5,2.5-6.8,5-10,7.6c-8,6.7-15.2,13.7-21.6,21
	c-6.4,7.3-12.5,15-18.4,23l-3,3.9c-1.1,1.3-2.5,2.1-4.2,2.5c-1.6,0.3-3.3,0.2-4.9-0.2c-1.6-0.5-3.1-1.3-4.4-2.5
	c-1.3-1.1-2.1-2.5-2.2-3.9c-0.3-1.3-0.2-2.6,0.5-3.8c0.7-1.2,1.3-2.4,2-3.6c4.1-6.9,8.6-13.2,13.5-18.8s9.9-11.4,15-17.1
	c0.2-0.2,1-1.1,2.6-2.7c1.6-1.6,3.1-3.4,4.5-5.2c1.5-1.8,2.5-3.3,3.2-4.5c0.7-1.2,0.2-1.6-1.5-1.1c-4.1,1.3-8,3.2-11.6,5.5
	c-3.6,2.4-7.1,4.9-10.3,7.5c-3.6,2.8-7.1,5.8-10.3,9c-3.3,3.2-6.5,6.4-9.6,9.7c-4.6,4.8-8.6,9.6-12.2,14.5c-3.5,4.9-6.8,10-9.7,15.2
	c-0.8,1.1-1.6,2.3-2.2,3.6c-0.7,1.2-1.6,2.1-3,2.6c-2.5,0.8-5,0.6-7.6-0.7c-2.6-1.3-4.3-3.2-5.2-5.7c-0.5-1.3-0.5-2.5,0-3.7
	c0.5-1.1,1.1-2.2,1.7-3.2c1.1-1.7,2.1-3.4,3.1-5c-0.5,0.5-0.9,1-1.4,1.5c-1.1,1.2-2.3,2.4-3.4,3.6c-3.9,4.1-8.3,7.9-13.2,11.4
	c-4.8,3.5-10.4,5.5-16.6,5.8c-5.2,0.3-9.6-1.2-13-4.7c-3.4-3.4-5-7.5-4.7-12.3c0.3-4.8,1.6-9.5,3.8-14.3c2.2-4.8,4.8-9.2,7.9-13.4
	c3-4.2,5.5-7.5,7.5-10c6.1-7.4,12.3-14.6,18.6-21.8c6.3-7.1,12.7-14.1,19.3-21l-14,1.2c-1.3,0.2-2.6,0.4-3.9,0.6
	c-1.3,0.2-2.5-0.3-3.4-1.6c-2.5-3-3.1-6.1-2-9.6c0.5-1.8,1.4-2.8,2.8-3.1c1.4-0.2,2.9-0.5,4.5-0.9c1-0.2,2.1-0.3,3.3-0.5
	c1.2-0.2,3-0.4,5.3-0.7c2.3-0.3,5.4-0.8,9.2-1.4c3.8-0.6,8.9-1.3,15.1-2.1c4.4-4.6,8.9-9.1,13.4-13.6c4.5-4.5,9.1-8.8,13.9-12.9
	c1.1-1,2.2-2,3.2-3c1-1,2-1.9,3.2-2.7c1.1-0.8,2.3-1.1,3.4-1c1.1,0.2,2.2,0.6,3.2,1.2c1.8,1,3.3,2.5,4.5,4.4s1.7,4,1.4,6.1
	c-0.3,1.3-1,2.4-2.1,3.3c-1.1,0.9-2,1.8-2.8,2.6l-13,12.3c6.4-0.8,12-1.4,17-1.8c4.9-0.4,9.7-0.8,14.3-1.1c0.8,0,1.8-0.1,3-0.2
	c1.1-0.2,2.1-0.1,3,0.2c1.5,0.5,2.5,1.4,3.1,2.7c0.6,1.3,0.9,2.8,0.9,4.4c0,1.6-0.2,3.2-0.5,4.8c-0.3,1.6-0.7,2.7-1.2,3.6
	c-0.8,1.3-2.2,2-4.2,2c-2,0-3.6,0-4.9,0c-8.5,0.5-16.9,1.1-25.1,1.7c-8.2,0.7-16.3,1.5-24.3,2.5c-6.4,6.9-11.8,12.8-16.2,17.7
	c-4.4,4.9-8.3,9.2-11.7,12.8c-3.4,3.6-6.3,6.8-8.7,9.6c-2.5,2.8-4.8,5.5-6.9,8.1c-4.1,4.8-8.2,9.7-12.4,14.9
	c-4.2,5.2-7.3,10.7-9.5,16.6c-1,3.3-0.8,5,0.5,5.3c1.3,0.2,3-0.2,5-1.4c2-1.1,4.1-2.5,6-4.1c2-1.6,3.2-2.6,3.7-3.1
	c2.3-2.1,4.8-4.6,7.5-7.4c2.7-2.8,6.7-7,11.9-12.8c1-1.1,2-2.4,3.2-3.7c1.1-1.3,2.4-2.4,3.7-3.2c2.3-1.5,4.6-1.6,7-0.5
	c1.3,0.6,2.3,1.5,2.9,2.5c3.1-4.4,6.4-8.7,10-13.1c3.8-4.6,8.2-9.6,13.3-15c2.8-3,4.8-5,5.9-6c1.1-1.1,2.1-1.8,3-2.1
	c2.3-0.8,4.5-0.5,6.6,1c2.1,1.5,3.6,3.4,4.4,5.7c3.6-2.5,7.3-4.5,10.9-6.1c3.7-1.6,7.4-2.6,11.2-3c3.3-0.3,6.4,0.1,9.2,1.2
	c2.9,1.1,4.9,3.4,6,6.6c0.2,0.5,0.3,0.9,0.4,1.4c0.1,0.4,0.1,0.9,0.1,1.4c4.4-3.3,9.2-6.1,14.3-8.5c5.1-2.4,10.3-3.1,15.7-2.1
	c4.8,0.8,8,3.4,9.8,7.6c0.8,2.1,1.1,4.3,0.9,6.4c-0.2,2.1-0.8,4.2-1.7,6.3c-0.9,2.1-2,4-3.3,5.9c-1.3,1.9-2.6,3.7-3.9,5.3
	c-4.3,5.2-8.6,10.1-13.2,14.6c-4.5,4.5-8.8,9.2-12.9,14.1c-3,3.6-4.9,6.3-5.8,8c-0.9,1.7-1.2,2.9-0.9,3.4c0.3,0.6,1.1,0.6,2.5,0.1
	c1.3-0.5,2.8-1.2,4.4-2.1c1.6-0.9,3.3-1.9,4.9-3.1c1.6-1.1,3-2.2,3.9-3.2c4.3-3.3,8.1-6.8,11.6-10.5s7-7.3,10.8-10.7
	c1-1,2-2.1,3.2-3.4c1.1-1.3,2.4-2.3,3.7-3c2.6-1,5-0.6,7.3,1.1c0.7,0.5,1.2,1.1,1.7,1.7c3.7-4.9,7.8-9.6,12.1-14.2
	c6.8-7,14.4-12.9,22.7-17.7c3.8-2,7.7-3.6,11.7-5c4-1.4,8.2-1.9,12.4-1.6c6.6,0.5,11.4,3,14.5,7.4c1-1.3,2.3-2.6,3.8-3.8
	c1.6-1.2,3-1.9,4.3-2.1c2.5,0,4.7,1,6.6,3c1.8,1.8,2.8,3.9,3,6.3c0.2,2.4-0.6,4.5-2.2,6.3c-2.3,2.5-4.7,4.9-7.1,7.3
	c-2.5,2.4-4.8,5-7.1,7.7c-5.4,6.4-9.9,11.8-13.4,16.4c-3.5,4.5-6.5,9.1-9,13.9c-0.8,1.3-1.4,2.7-1.8,4.2c-0.4,1.5-0.6,2.7-0.5,3.7
	c0.1,1,0.5,1.7,1.4,2.1c0.8,0.4,2.1,0.1,3.9-0.9c2.1-1.1,4.1-2.5,5.9-4.1c1.8-1.6,3.6-3.2,5.4-5l20.4-20.4c1-1,2-2.1,3.1-3.3
	c1.1-1.2,2.3-2.2,3.6-2.8c2.6-1,5-0.7,7.3,1c0.6,0.5,1.2,1,1.6,1.6c0.2-0.3,0.5-0.6,0.7-0.9c2.8-2.8,5.4-5.5,8-8.2
	c2.5-2.7,5-5.5,7.5-8.5c2.3-2.8,4.6-5.7,6.9-8.7c2.3-3,4.8-6.5,7.6-10.5c1.3-5.2,3.3-10,5.9-14.3c2.5-3.8,5.6-6.9,9.5-9.5
	c3.8-2.5,8.2-3.8,12.9-3.8c2.3,0,4.3,0.6,5.9,1.7C940.4,578.3,941.3,579.9,941.5,582z M833.5,621.1c0.3-3.3-0.6-4.9-2.8-4.9
	c-2.2,0-4.8,0.7-7.7,2c-3,1.3-5.8,3-8.6,4.9c-2.8,2-4.6,3.3-5.4,3.9c-5.9,4.8-11.8,10.3-17.7,16.7c-5.9,6.4-10.4,12.7-13.5,18.9
	c-0.3,0.5-0.8,1.4-1.4,2.6c-0.6,1.2-1,2.5-1.4,3.7c-0.3,1.2-0.4,2.3-0.2,3.3c0.2,1,0.9,1.5,2.2,1.5c3.8-0.3,7.3-1.8,10.7-4.5
	c3.4-2.7,6.3-5.1,8.7-7.3c7-6.4,13.5-13.1,19.4-20C821.7,634.9,827.6,628,833.5,621.1z M901.2,631.2c-3,3.6-5.9,7-8.7,10.1
	c-2.9,3.1-5.7,5.9-8.5,8.4c-1.6,1.5-3.3,2-5,1.6c-1.7-0.4-3.2-1.3-4.3-2.6c-0.3-0.3-0.5-0.6-0.7-1c-0.2,0.3-0.5,0.7-0.8,1
	c-1,1-2,2.1-3,3.2c-1.4,1.5-2.8,2.8-4,4.1c0,0.2-0.1,0.4-0.2,0.5c-1.6,5.2-1,9.4,1.8,12.5c2.9,3.1,6.7,4.7,11.4,4.7
	c3.8,0,7.4-1.4,10.8-4.3c3.4-2.9,5.9-6,7.4-9.5c0.7-1.3,1.1-2.7,1.5-4.3c0.3-1.6,0.6-3.4,0.9-5.5c0.2-2.1,0.5-4.7,0.6-7.7
	C900.6,639.4,900.8,635.6,901.2,631.2z M351.2,790.4c0-0.4-0.2-1.1-0.5-1.9c-2.2-5.2-4-9.4-5.4-12.6c-2.1,0.1-5.8,0.2-11,0.2
	c-4.4,0-8.1-0.1-11.1-0.4c-1,2.5-2.5,6.1-4.3,10.6c-0.4,1-0.6,2-0.6,2.8c0,1.6,0.9,2.9,2.7,3.6c2.8,1.2,4.1,2.1,4.1,2.7
	c-0.1,1-1,1.4-2.8,1.2c-5.5-0.6-10.7-0.4-15.4,0.5c-1.2,0.3-1.9-0.2-2.1-1.3c-0.1-0.8,0.8-1.6,2.9-2.5c2.2-0.9,4-3,5.5-6.3
	c5.7-12.5,9.5-20.6,11.1-24.6c4.1-9.4,6.9-17.1,8.6-23c0.2-0.9,1.4-1.8,3.5-2.6c0.5-0.2,1.1,0.7,1.9,2.6
	c6.4,15.3,13.5,31.7,21.4,49.1c1.3,2.8,3.4,4.6,6.4,5.5c1.4,0.4,2,0.9,1.8,1.6c-0.2,0.8-0.4,1.3-0.6,1.4c-0.2,0.1-0.6,0.1-1.2-0.1
	c-4.2-0.8-10.4-0.9-18.5-0.3c-1.5,0.1-2.4-0.2-2.5-0.9c-0.1-0.8,0.3-1.5,1.5-1.9C349.7,792.7,351.2,791.5,351.2,790.4z M343.8,772.5
	c-1.9-4.4-5-11.3-9.1-20.5c-0.2-0.5-0.5-0.8-0.8-0.8c-0.3,0-0.5,0.3-0.8,0.8l-8.4,20.4c3.1,0.2,6.7,0.4,10.6,0.4
	C337.8,772.7,340.6,772.6,343.8,772.5z M386.9,791.7c-0.8,0.9-2.3,1.6-4.5,2.2c-1.3,0.3-1.9,0.7-1.9,1.3c0,1.1,0.6,1.6,1.9,1.5
	c3.9-0.3,9.3-0.3,16.3,0c1.8,0.1,2.7-0.4,2.7-1.5c0-0.8-0.8-1.4-2.4-1.7c-3.9-0.7-5.9-3-5.9-6.9v-36.2c0-0.5,0.1-0.9,0.4-1
	c0.3-0.1,0.5,0,0.8,0.2c7.9,8,16,16.5,24.5,25.7c10.1,11,15.8,17.9,17.3,20.7c0.9,1.7,2,2.4,3.4,2.1c0.8-0.2,1.2-1.1,1.1-2.7
	c-0.2-4.1-0.3-9.5-0.3-16.2v-31.8c0-3.1,1.8-5.1,5.3-6.1c1.6-0.5,2.4-1.1,2.4-1.8c0-0.9-0.3-1.4-0.8-1.5c-0.3-0.1-1-0.1-2,0
	c-5.9,0.6-11.3,0.7-16.2,0.2c-1.3-0.1-1.9,0.4-1.9,1.6c0,0.6,0.7,1,2.1,1.2c3.9,0.7,5.9,2.9,5.9,6.6v31.9c0,0.8-0.1,1.2-0.4,1.2
	c-0.2,0-0.5-0.3-1-0.8l-37-39.4c-1.1-1.2-2.4-1.8-3.9-1.6c-2.8,0.3-6.1,0.2-9.9-0.4c-1.2-0.2-1.9,0.1-2,0.9
	c-0.1,0.7,0.6,1.4,2.1,2.1c1.9,0.9,3.3,1.7,3.9,2.6c0.7,0.9,1.1,2.2,1.1,3.9v39.1C388.1,789.2,387.7,790.8,386.9,791.7z M481,796.9
	c-3.3-0.2-5.9-0.3-7.7-0.3c-2.4,0-5.1,0.1-8,0.4c-1.3,0.1-1.9-0.4-1.9-1.5c0-0.8,0.6-1.2,1.9-1.3c2.9-0.3,4.3-1.9,4.3-4.7v-42.3
	c0-1.6-0.3-2.7-1-3.2c-0.5-0.4-1.7-0.9-3.5-1.2c-1.5-0.3-2.4-0.5-2.7-0.8c-0.3-0.2-0.5-0.6-0.6-1.3c-0.1-0.7,0.2-1.2,0.9-1.4
	c0.1,0,0.8-0.1,1.9-0.2c6.3-0.4,14.7-0.6,25.2-0.6c10.2,0,18.3,2.4,24.5,7.3c6.4,5.1,9.6,12,9.6,20.8c0,10.2-3.4,18-10.2,23.3
	c-6.3,4.9-15.1,7.3-26.4,7.3C486.5,797.2,484.3,797.1,481,796.9z M479.7,791.6c1.5,1,4.6,1.5,9.2,1.5c17.3,0,25.9-8.4,25.9-25.3
	c0-17.1-8.8-25.6-26.3-25.6h-6.2c-3.2,0.3-4.9,1.2-4.9,2.7v41C477.4,788.7,478.1,790.6,479.7,791.6z M618.9,738.2
	c-4.3,0.6-13.8,0.9-28.4,0.9c-7.7,0-14.8-0.2-21.1-0.6c-1.8-0.1-2.7,0.2-2.7,0.8c0,5.8-0.5,10.3-1.5,13.5c-0.3,0.9,0.1,1.4,1.1,1.6
	c0.9,0.4,1.6,0,2.1-1.2c1.6-3.9,3.3-6.5,5.3-8c2.7-1.9,6.8-2.9,12.4-2.9c1.6,0,2.5,0,2.6,0c1.1,0.1,1.6,0.6,1.6,1.5v42.8
	c0,2.3-0.5,4-1.5,5c-0.9,0.9-2.6,1.7-5.1,2.3c-1.3,0.3-1.8,1-1.5,1.9c0.1,0.6,0.3,0.9,0.6,1.1c0.4,0.1,1.1,0.1,2.3,0
	c5.1-0.6,11.5-0.6,19.3,0.1c1.1,0.1,1.8,0.2,1.8,0.1c0.6-0.1,0.9-0.4,1-1.1c0.1-0.9,0-1.4-0.4-1.7c-0.1-0.1-0.8-0.3-1.9-0.5
	c-2.6-0.6-4.4-1.3-5.3-2.1c-0.9-0.8-1.3-2.1-1.3-4v-44c0-0.3,0-0.6,0.1-0.8c0.2-0.5,1.6-0.8,4-0.8c6,0,10.3,0.9,12.7,2.7
	c1.7,1.3,3.2,3.9,4.5,7.8c0.4,1.1,1.1,1.5,2.2,1.2c0.5-0.1,0.8-0.2,0.9-0.4s0.2-0.6,0.2-1.1c0.1-5.2-0.3-9.7-1.1-13.6
	C621.4,738.2,620.5,738,618.9,738.2z M656.9,796.6c1.2,0.1,1.9,0,2.2-0.2c0.3-0.2,0.4-0.6,0.4-1.4c0-0.7-0.8-1.3-2.4-1.7
	c-3.7-1-5.5-2.3-5.5-4v-17.5c0-1.4,0.2-2.2,0.5-2.5c0.3-0.3,1.1-0.5,2.4-0.5h31.2c1.1,0,1.8,0.2,2.1,0.6c0.3,0.4,0.4,1.3,0.4,2.5
	v17.4c0,2.3-1.2,3.7-3.7,4c-1.6,0.2-2.3,0.8-2.3,1.7c0,0.7,0.2,1.2,0.5,1.3c0.3,0.2,1,0.3,2.2,0.2c5.9-0.3,11.7-0.1,17.4,0.4
	c0.9,0.1,1.4,0,1.6-0.1c0.2-0.2,0.3-0.6,0.3-1.4c0-0.6-0.6-1.1-1.9-1.3c-2.2-0.5-3.8-1-4.6-1.5c-1-0.7-1.5-1.7-1.5-3.2v-43.5
	c0-2.7,1.6-4.2,4.9-4.6c1.3-0.1,1.9-0.6,1.9-1.4c0-0.8-0.1-1.3-0.3-1.4s-0.7-0.2-1.6-0.2c-2.5,0.1-4.9,0.3-7.4,0.4
	c-3.4,0.2-6.8,0.1-10.1-0.2c-1.2-0.1-2-0.1-2.3,0.1c-0.3,0.2-0.4,0.7-0.4,1.5c0,0.7,0.8,1.2,2.5,1.5c2,0.4,3.2,0.7,3.7,1.1
	c0.8,0.5,1.2,1.6,1.2,3.2v15.2c0,1.5-0.2,2.5-0.6,2.9c-0.3,0.3-1,0.4-2.3,0.4h-30.7c-2,0-3-1-3-3.1v-14.9c0-1.8,0.5-3,1.4-3.6
	c0.5-0.3,1.9-0.7,4.2-1.2c1.3-0.3,2-0.7,2-1.3c0-0.7-0.1-1.2-0.4-1.4s-0.8-0.2-1.6-0.2c-4.6,0.4-10.6,0.4-18,0
	c-1.6-0.1-2.4,0.1-2.6,0.7c-0.1,0.2-0.1,0.5-0.1,0.8c0,0.5,0.1,0.8,0.3,0.9c0.2,0.1,0.9,0.3,2.1,0.6c3.3,0.7,4.9,2.4,4.9,5.2v42.4
	c0,2.9-1.4,4.4-4.3,4.7c-1.3,0.1-1.9,0.6-1.9,1.3s0.1,1.2,0.3,1.4s0.7,0.2,1.6,0.1C645.2,796.5,651,796.4,656.9,796.6z M762.3,796.2
	c0.3-3.6,0.8-7.1,1.6-10.6c0.2-0.9-0.2-1.4-1.1-1.6c-1-0.4-1.7,0-2.2,1.2c-1.8,5.1-6.4,7.7-13.7,7.7c-4.7,0-7.5-0.1-8.3-0.2
	c-3.2-0.6-4.8-2.3-4.8-5v-19.3c0-0.4,0.3-0.6,0.8-0.6c4.9,0,8.5,0.1,11,0.4c1.3,0.1,2.1,0.6,2.6,1.3c0.5,0.7,0.8,2.2,1.1,4.5
	c0.1,1.1,0.7,1.6,1.5,1.5c1-0.1,1.5-0.6,1.5-1.3c-0.3-6.4,0-11.6,0.8-15.6c0.1-0.7-0.3-1.2-1.3-1.4c-1.1-0.4-1.8,0.1-2.1,1.4
	c-0.4,1.9-0.7,3.1-1,3.7c-0.4,0.8-1.1,1.2-1.9,1.3c-5.1,0.3-9,0.5-11.7,0.6c-0.9,0-1.3-0.4-1.3-1.1v-18.5c0-0.7,0.1-1.1,0.2-1.3
	c0.3-0.3,0.9-0.5,1.9-0.5c8.5,0,13.5,0.1,14.9,0.4c1.8,0.3,3.1,1,4.1,2.1c0.6,0.7,1.3,2.1,2.2,4.2c0.3,0.8,0.9,1.2,1.7,1.2
	c0.9,0,1.3-0.5,1.3-1.4c-0.1-3.7,0.2-7.1,0.8-9.9c0.1-0.1,0.1-0.3,0.1-0.4c0-0.4-1-0.5-2.9-0.4c-5.7,0.4-12.5,0.5-20.4,0.5
	c-7.9,0-12.9-0.1-14.8-0.4c-1.3-0.2-2-0.3-2.3-0.2c-0.3,0.1-0.6,0.4-0.7,0.9c-0.3,1.1,0.1,1.8,1.3,2.2c2.3,0.7,3.7,1.4,4.2,2.1
	c0.5,0.7,0.8,2.5,0.8,5.2v40.7c0,1.9-0.3,3.1-0.9,3.7c-0.5,0.5-1.6,0.8-3.4,1c-1.3,0.1-1.9,0.6-1.9,1.3c0,1.1,0.6,1.6,1.9,1.5
	c5.7-0.3,12.4-0.4,20.2-0.4c7.1,0,13,0.1,17.6,0.4C761.4,797,762.3,796.8,762.3,796.2z M224.9,1017.5c-3-2.1-4.5-5.1-4.5-9.2V868.1
	c0-3.9,1.5-7,4.5-9.1c1.9-1.4,2.9-3,2.9-4.9v-5.4c0-1.7-0.9-2.5-2.6-2.5h-36.8c-2,0-3.1,0.9-3.1,2.7v5.2c0,1.9,1,3.5,3.1,4.9
	c3.1,2.1,4.6,5.1,4.6,9.1v55.8h-27.3v-55.8c0-3.9,1.5-7,4.5-9.1c2.1-1.4,3.1-3,3.1-4.9v-5.4c0-1.7-0.9-2.5-2.6-2.5h-36.9
	c-2.1,0-3.1,0.9-3.1,2.7v5.2c0,1.9,1,3.5,3.1,4.9c3,2.1,4.5,5.1,4.5,9.1v140.2c0,4-1.5,7.1-4.5,9.2c-2.1,1.4-3.1,3-3.1,4.7v5.6
	c0,1.7,0.9,2.5,2.6,2.5h36.9c2.1,0,3.1-0.9,3.1-2.7v-5.3c0-1.8-1-3.4-3.1-4.7c-3-2.1-4.5-5.1-4.5-9.2v-67.8H193v67.8
	c0,4-1.5,7.1-4.6,9.2c-2,1.4-3,3-3,4.7v5.6c0,1.7,0.9,2.5,2.6,2.5h36.8c2,0,3.1-0.9,3.1-2.7v-5.3
	C227.9,1020.4,226.9,1018.9,224.9,1017.5z M347.6,1022.3v5.2c0,1.9-0.8,2.8-2.2,2.8h-39.5c-2.1,0-3.2-0.9-3.2-2.8v-5.2
	c0-1.8,1.3-3.4,3.8-4.6c3.1-1.7,4.6-3.9,4.6-6.8c0-0.8-0.1-1.7-0.2-2.7l-4.9-24.7H275l-5,23.8c-0.2,1-0.4,1.8-0.4,2.2
	c0,2.4,1.8,5,5.3,7.8c2.3,1.9,3.4,3.6,3.4,5v5.2c0,1.9-1.1,2.8-3.4,2.8h-24.7c-2.8,0-4.1-0.9-4.1-2.8v-6.2c0-1.7,0.9-3,2.6-4
	c3.2-2,5.4-5.3,6.4-10.1l27.5-137.7l-1.1-8c-0.4-2.6-0.6-4.1-0.6-4.4c0-0.8,0.6-1.5,1.8-2l20.1-9.3c0.3-0.2,0.7-0.2,1.1-0.2
	c1.1,0,1.8,0.7,2.1,2.1l32.1,160.5c0.6,2.9,1.2,5,2.1,6.3c0.8,1.3,2.4,2.6,4.8,4C346.7,1019.6,347.6,1020.8,347.6,1022.3z
	 M302.9,968.3l-12.1-60.7l-12.4,60.7H302.9z M400.7,945.7v62.6c0,4.1,1.5,7.2,4.5,9.2c2.1,1.3,3.1,2.9,3.1,4.7v5.3
	c0,1.8-1,2.7-3.1,2.7h-36.9c-1.7,0-2.6-0.8-2.6-2.5v-5.6c0-1.7,1-3.3,3.1-4.7c3-2.1,4.5-5.2,4.5-9.2V868.1c0-4-1.5-7.1-4.5-9.1
	c-2.1-1.3-3.1-3-3.1-4.9v-5.2c0-1.8,1-2.7,3.1-2.7h32c17.4,0,30.8,4.5,40.3,13.6c9.5,9,14.3,21.1,14.3,36
	C455.3,929,437.1,945.7,400.7,945.7z M400.7,931.7c7.1,0,12.3-0.8,15.6-2.4c3.3-1.6,5.9-4.9,7.9-9.7c2-4.9,3-12.4,3-22.6
	c0-10.1-0.9-17.7-2.7-22.7c-1.8-5-4.5-8.5-8.2-10.6c-3.6-2.1-8.8-3.2-15.5-3.4V931.7z M518.6,1022.3v5.3c0,1.8-1,2.7-3.1,2.7h-36.9
	c-1.7,0-2.6-0.8-2.6-2.5v-5.6c0-1.7,1-3.3,3.1-4.7c3-2.1,4.5-5.2,4.5-9.2V868.1c0-4-1.5-7.1-4.5-9.1c-2.1-1.3-3.1-3-3.1-4.9v-5.2
	c0-1.8,1-2.7,3.1-2.7h32c17.4,0,30.8,4.5,40.3,13.6c9.5,9,14.3,21.1,14.3,36c0,33.2-18.2,49.8-54.6,49.8v62.6c0,4.1,1.5,7.2,4.5,9.2
	C517.5,1018.9,518.6,1020.4,518.6,1022.3z M511,931.7c7.1,0,12.3-0.8,15.6-2.4c3.3-1.6,5.9-4.9,7.9-9.7c2-4.9,3-12.4,3-22.6
	c0-10.1-0.9-17.7-2.7-22.7c-1.8-5-4.5-8.5-8.2-10.6c-3.6-2.1-8.8-3.2-15.5-3.4V931.7z M625.7,859c2.1-1.4,3.1-3,3.1-4.9v-5.4
	c0-1.7-0.9-2.5-2.6-2.5h-36.9c-2.1,0-3.1,0.9-3.1,2.7v5.2c0,1.9,1,3.5,3.1,4.9c3,2.1,4.5,5.1,4.5,9.1v140.2c0,4-1.5,7.1-4.5,9.2
	c-2.1,1.4-3.1,3-3.1,4.7v5.6c0,1.7,0.9,2.5,2.6,2.5h36.9c2.1,0,3.1-0.9,3.1-2.7v-5.3c0-1.8-1-3.4-3.1-4.7c-3-2.1-4.5-5.1-4.5-9.2
	V868.1C621.3,864.2,622.7,861.1,625.7,859z M729.9,984.7h-5.1c-2.1,0-3.5,1.4-4.3,4.3c-3.4,12.5-6.2,20.2-8.5,23
	c-2.3,2.8-6.4,4.2-12.3,4.2h-16v-74.9h4.7c2.9,0,5.2,0.6,6.9,1.8c1.7,1.2,3.2,4.6,4.6,10.2c0.8,3.1,1.4,4.9,1.9,5.5s1.3,0.9,2.5,0.9
	h5.4c1.9,0,2.8-0.9,2.8-2.8v-44.6c0-2-1-3-3.1-3h-5.2c-1.2,0-1.9,0.1-2.1,0.4c-0.2,0.2-0.7,1.5-1.3,3.7c-1.9,6.9-3.5,11-4.7,12.3
	c-1.3,1.3-3.6,2-7,2h-5.4v-67h14.9c6.8,0,11.3,2.2,13.6,6.6c2.2,4.4,3.8,9.6,4.7,15.8c0.2,2.2,1.3,3.3,3.2,3.3h4.4
	c1.7,0,2.7-0.2,3-0.5s0.5-1.4,0.5-3.3v-34.8c0-1.4-1.3-2.1-3.9-2.1c-0.7,0-2.4,0.1-5.2,0.4c-3.1,0.2-5.2,0.4-6.3,0.4h-60.9
	c-1.9,0-2.8,0.8-2.8,2.2v5.7c0,1.8,1,3.4,3,4.7c2.9,2.1,4.4,5.1,4.4,9.2v140.2c0,3.9-1.1,6.7-3.4,8.5c-2.6,2-3.9,3.8-3.9,5.4v5.2
	c0,1.9,0.9,2.8,2.8,2.8h81.1v-42.6C732.8,985.7,731.8,984.7,729.9,984.7z M764.4,925.4c3.4,4.7,9.2,11.3,17.3,19.8
	c10.5,11.1,17.6,20,21.3,26.5c3.7,6.6,5.5,13.7,5.5,21.3c0,7.4-1.7,13.7-5.1,18.9s-8.2,7.8-14.1,7.8c-11.5,0-18.9-10.3-22.1-31
	c-0.8-5.4-1.4-8.5-1.8-9.4c-0.4-0.9-1.3-1.4-2.7-1.4h-5.1c-2.1,0-3.2,1.5-3.2,4.5v44.6c0,2.1,1,3.2,3,3.2h5.9c0.6,0,1.3-0.3,2.3-0.8
	c1.3-0.8,2.3-1.2,3.1-1.2c0.9,0,2.3,0.4,4.4,1.3c6.5,2.5,12.1,3.8,16.9,3.8c10.8,0,20.1-4.7,28-14.1c7.9-9.4,11.8-21.6,11.8-36.6
	c0-11.1-2.3-21.4-7-31c-4.7-9.5-13.2-20.5-25.4-33.1c-9.6-9.8-15.9-17.7-19.1-23.7s-4.8-11.9-4.8-17.7c0-5,1.4-9.4,4.1-13.1
	c2.7-3.8,6.3-5.7,10.8-5.7c8.4,0,14.4,8.6,18.1,25.7c1.1,5,1.9,7.8,2.3,8.6c0.4,0.8,1.4,1.1,2.8,1.1h5.4c1.7,0,2.6-1,2.6-3v-39.2
	c0-2.1-1.1-3.2-3.4-3.2h-4.4c-1.4,0-2.6,0.3-3.6,0.8c-0.9,0.6-1.8,1-2.6,1c-0.8,0-2.3-0.6-4.5-1.7c-5-2.5-9.6-3.7-14-3.7
	c-9.5,0-17.5,4.2-24.1,12.7c-6.6,8.4-9.9,19.2-9.9,32.3c0,7.1,1,13.6,3.1,19.5C758.2,915.4,761,920.7,764.4,925.4z M931.8,843.8
	c-0.5,0-3.1,0.4-7.8,1.1c-3.1,0.6-5.7,1-7.8,1.3h-41.9c-3.3,0-8.2-0.5-14.7-1.5c-4-0.6-6.8-0.9-8.4-0.9c-2.5,0-3.8,1.3-3.8,4v34.5
	c0,2.3,1.3,3.4,4,3.4h4.6c1.5,0,2.3-0.7,2.5-2c1.5-9.9,3.2-16.4,5-19.3c1.9-2.9,4.7-4.4,8.6-4.4h5.2v148.3c0,4-1.5,7.1-4.5,9.2
	c-2.1,1.4-3.1,3-3.1,4.7v5.6c0,1.7,0.9,2.5,2.6,2.5h36.9c2.1,0,3.1-0.9,3.1-2.7v-5.3c0-1.8-1-3.4-3.1-4.7c-3-2.1-4.5-5.1-4.5-9.2
	V859.9h5.3c3.8,0,6.4,1,7.9,3.1c1.5,2.1,3,6.5,4.4,13.3c0.8,4.1,1.4,6.7,1.7,7.7c0.4,1,1.4,1.5,3.3,1.5h4.5c2.1,0,3.1-1.1,3.1-3.4
	v-35.4C935,844.8,933.9,843.8,931.8,843.8z M226.9,1072.6c-0.4-0.1-1.2-0.1-2.5,0.1c-7.4,0.8-14.2,0.9-20.2,0.2
	c-1.6-0.2-2.4,0.5-2.4,2c0,0.7,0.9,1.3,2.6,1.5c4.9,0.8,7.3,3.6,7.3,8.3v39.9c0,1-0.1,1.5-0.4,1.5c-0.2,0-0.6-0.3-1.3-1l-46.3-49.3
	c-1.4-1.5-3.1-2.2-4.9-2c-3.5,0.4-7.6,0.2-12.4-0.4c-1.5-0.2-2.4,0.2-2.5,1.2c-0.1,0.9,0.8,1.7,2.6,2.6c2.4,1.1,4.1,2.2,4.9,3.2
	c0.9,1.1,1.3,2.8,1.3,4.9v48.9c0,2.7-0.5,4.7-1.4,5.8c-1,1.1-2.9,2-5.7,2.7c-1.6,0.3-2.4,0.9-2.4,1.7c0,1.4,0.8,2,2.4,1.9
	c4.9-0.4,11.7-0.4,20.4,0c2.3,0.1,3.4-0.5,3.4-1.9c0-1-1-1.7-3-2.2c-4.9-0.9-7.3-3.8-7.3-8.7v-45.3c0-0.7,0.2-1.1,0.6-1.3
	c0.3-0.1,0.7-0.1,1,0.3c9.9,9.9,20.1,20.6,30.6,32.1c12.6,13.7,19.8,22.3,21.6,25.8c1.1,2.1,2.5,3,4.2,2.6c1-0.3,1.5-1.4,1.4-3.3
	c-0.2-5.1-0.3-11.9-0.3-20.2v-39.7c0-3.9,2.2-6.4,6.6-7.7c2-0.6,3-1.3,3-2.3C227.8,1073.4,227.5,1072.8,226.9,1072.6z M317.6,1130.2
	c-1.3-0.5-2.2,0-2.7,1.5c-2.3,6.4-8,9.6-17.2,9.6c-5.9,0-9.3-0.1-10.3-0.3c-4-0.8-6-2.9-6-6.3v-24.1c0-0.5,0.3-0.8,1-0.8
	c6.1,0,10.7,0.2,13.7,0.6c1.6,0.2,2.7,0.7,3.2,1.6c0.6,0.9,1,2.8,1.4,5.6c0.2,1.4,0.8,2,1.9,1.8c1.3-0.2,1.9-0.7,1.8-1.6
	c-0.4-8,0-14.5,1-19.5c0.2-0.9-0.4-1.5-1.6-1.7c-1.4-0.4-2.3,0.1-2.6,1.7c-0.4,2.3-0.9,3.8-1.3,4.6c-0.5,1-1.3,1.5-2.4,1.6
	c-6.3,0.4-11.2,0.6-14.6,0.7c-1.1,0-1.6-0.5-1.6-1.4v-23.1c0-0.9,0.1-1.4,0.3-1.7c0.3-0.4,1.1-0.6,2.3-0.6c10.7,0,16.9,0.2,18.7,0.5
	c2.2,0.4,3.9,1.3,5.1,2.7c0.8,0.9,1.7,2.7,2.7,5.2c0.4,1,1.1,1.5,2.2,1.5c1.1,0,1.6-0.6,1.6-1.7c-0.1-4.7,0.2-8.8,1-12.4
	c0.1-0.2,0.1-0.4,0.1-0.6c0-0.5-1.2-0.6-3.6-0.5c-7.1,0.4-15.7,0.7-25.6,0.7c-9.9,0-16.1-0.2-18.4-0.6c-1.6-0.3-2.6-0.3-2.9-0.2
	c-0.4,0.1-0.7,0.5-0.9,1.2c-0.4,1.3,0.1,2.2,1.7,2.7c2.8,0.9,4.6,1.8,5.2,2.7c0.6,0.9,0.9,3.1,0.9,6.5v50.8c0,2.4-0.4,3.9-1.2,4.6
	c-0.6,0.6-2,1-4.3,1.3c-1.6,0.1-2.4,0.7-2.4,1.7c0,1.4,0.8,2,2.4,1.9c7.1-0.4,15.5-0.6,25.3-0.6c8.9,0,16.2,0.1,22,0.4
	c2.2,0.1,3.3-0.2,3.4-0.9c0.3-4.5,1-8.9,2-13.3C319.2,1131.2,318.7,1130.5,317.6,1130.2z M467.9,1074c-6,0.7-12.5,0.6-19.3-0.2
	c-1.6-0.2-2.6-0.2-3,0c-0.3,0.2-0.5,0.7-0.6,1.5c-0.1,1.1,0.7,1.9,2.4,2.5c4.4,1.5,6.6,3.5,6.6,6c0,0.7-0.1,1.5-0.4,2.4l-16.5,44.1
	c-0.3,0.7-0.6,1.1-1,1.1c-0.5,0-0.8-0.4-1.1-1.1l-17.8-46.5c-0.4-1-0.6-1.7-0.6-2.2c0-1.3,1.8-2.4,5.4-3.6c1.9-0.6,2.8-1.3,2.8-2.3
	c0-1-0.2-1.5-0.5-1.7c-0.4-0.2-1.3-0.2-2.7-0.1c-8.1,0.8-15.4,0.7-21.9-0.3c-1.5-0.2-2.3,0.5-2.5,2.2c-0.1,0.7,0.7,1.5,2.4,2.3
	c3.3,1.5,5.7,3.7,7,6.5c1.1,2.2,1.9,4,2.5,5.2l-15.3,40.7c-0.3,0.7-0.6,1-1,1c-0.4,0-0.8-0.3-1-1c-8.1-21.3-13.9-36.8-17.6-46.5
	c-0.3-0.9-0.5-1.7-0.5-2.3c0-1.5,1.2-2.9,3.5-4c2-1,2.9-1.9,2.7-2.6c-0.1-0.9-0.3-1.5-0.7-1.7c-0.4-0.2-1.3-0.2-2.7,0.1
	c-8.5,1.3-15.7,1.7-21.4,1.2c-1.6-0.1-2.4,0.6-2.4,2.1c0,0.7,0.9,1.2,2.7,1.6c3.7,0.8,6.3,3,7.8,6.3c14.8,32.9,22.8,53.1,24.2,60.5
	c0.4,2.2,1.1,3.3,2.2,3.3c0.1,0,0.3-0.1,0.4-0.1c2.1-0.6,3.4-1.7,3.9-3.2c7.6-20.4,13.7-36.4,18.3-47.9
	c10.6,23.9,16.7,39.9,18.4,47.9c0.4,2.2,1.2,3.3,2.2,3.3c0.1,0,0.3,0,0.4-0.1c2.1-0.6,3.5-1.7,4.1-3.2c7.1-18.6,14.8-38.1,23.1-58.5
	c1.7-4.3,3.9-6.8,6.4-7.6c2.4-0.7,3.5-1.7,3.5-2.9C470.2,1074.4,469.4,1073.8,467.9,1074z M629.4,1073.1c-5.7,0.7-12.1,0.7-19.4-0.2
	c-2.3-0.3-3.6,0.2-3.7,1.5c-0.1,1.1,0.7,2,2.5,2.6c3.3,1.1,5,2.6,5,4.6c0,1-0.5,2.2-1.4,3.6c-1.9,2.9-4.8,7.1-8.8,12.6
	c-3.9,5.5-6.7,9.5-8.3,11.9c-0.4,0.7-0.8,1-1.1,1c-0.3,0-0.6-0.3-1-1c-7.5-11.7-13.7-20.7-18.3-26.9c-0.8-1.1-1.2-2-1.2-2.6
	c0-1.4,1.6-2.7,4.8-3.9c1.9-0.7,2.8-1.5,2.8-2.3c0-1.1-0.3-1.7-0.9-1.9c-0.3-0.1-1.2,0-2.5,0.2c-9.6,1.5-17.7,1.8-24.3,1
	c-1.6-0.2-2.4,0.6-2.4,2.3c0,0.7,0.9,1.2,2.7,1.6c3.1,0.6,6.1,2.7,9.1,6.2c11.6,13.7,19.9,25.4,24.9,35.2v15.1c0,3-0.5,5.1-1.4,6.2
	c-0.9,1.2-2.9,2.1-5.9,3c-1.5,0.4-2.2,1.2-1.9,2.4c0.2,1.3,1.4,1.7,3.6,1.3c7.1-0.6,14.3-0.5,21.6,0.1c1.4,0.1,2.2,0.2,2.3,0.2
	c0.7-0.1,1.2-0.5,1.3-1.4c0.3-1.3-0.7-2.2-2.9-2.7c-2.9-0.7-4.8-1.4-5.6-2.2c-1-1-1.5-2.7-1.5-5.4v-19.5c2.8-4.6,6.1-9.4,9.8-14.5
	c1.6-2.1,5.6-7.4,12-15.8c3.3-4.2,6.3-6.8,8.9-7.6c2.4-0.7,3.5-1.7,3.5-2.9C631.7,1073.5,630.9,1072.9,629.4,1073.1z M719.5,1130.2
	c-1.3-0.5-2.2,0-2.7,1.5c-2.3,6.4-8,9.6-17.2,9.6c-5.9,0-9.3-0.1-10.3-0.3c-4-0.8-6-2.9-6-6.3v-24.1c0-0.5,0.3-0.8,1-0.8
	c6.1,0,10.7,0.2,13.7,0.6c1.6,0.2,2.7,0.7,3.2,1.6c0.6,0.9,1,2.8,1.4,5.6c0.2,1.4,0.8,2,1.9,1.8c1.3-0.2,1.9-0.7,1.8-1.6
	c-0.4-8,0-14.5,1-19.5c0.2-0.9-0.4-1.5-1.6-1.7c-1.4-0.4-2.3,0.1-2.6,1.7c-0.4,2.3-0.9,3.8-1.3,4.6c-0.5,1-1.3,1.5-2.4,1.6
	c-6.3,0.4-11.2,0.6-14.6,0.7c-1.1,0-1.6-0.5-1.6-1.4v-23.1c0-0.9,0.1-1.4,0.3-1.7c0.3-0.4,1.1-0.6,2.3-0.6c10.7,0,16.9,0.2,18.7,0.5
	c2.2,0.4,3.9,1.3,5.1,2.7c0.8,0.9,1.7,2.7,2.7,5.2c0.4,1,1.1,1.5,2.2,1.5c1.1,0,1.6-0.6,1.6-1.7c-0.1-4.7,0.2-8.8,1-12.4
	c0.1-0.2,0.1-0.4,0.1-0.6c0-0.5-1.2-0.6-3.6-0.5c-7.1,0.4-15.7,0.7-25.6,0.7c-9.9,0-16.1-0.2-18.4-0.6c-1.6-0.3-2.6-0.3-2.9-0.2
	c-0.4,0.1-0.7,0.5-0.9,1.2c-0.4,1.3,0.1,2.2,1.7,2.7c2.8,0.9,4.6,1.8,5.2,2.7c0.6,0.9,0.9,3.1,0.9,6.5v50.8c0,2.4-0.4,3.9-1.2,4.6
	c-0.6,0.6-2,1-4.3,1.3c-1.6,0.1-2.4,0.7-2.4,1.7c0,1.4,0.8,2,2.4,1.9c7.1-0.4,15.5-0.6,25.3-0.6c8.9,0,16.2,0.1,22,0.4
	c2.2,0.1,3.3-0.2,3.4-0.9c0.3-4.5,1-8.9,2-13.3C721.2,1131.2,720.7,1130.5,719.5,1130.2z M833,1144.9c-0.2,1-0.5,1.6-0.7,1.8
	c-0.2,0.1-0.7,0.1-1.5-0.1c-5.3-1-13-1.1-23.1-0.3c-1.9,0.1-3-0.2-3.1-1.1c-0.2-1,0.4-1.8,1.8-2.4c4-1.6,6-3.1,6-4.5
	c0-0.6-0.2-1.3-0.7-2.4c-2.7-6.5-5-11.8-6.8-15.7c-2.6,0.1-7.2,0.2-13.8,0.2c-5.4,0-10.1-0.1-13.9-0.4c-1.3,3.2-3.1,7.6-5.4,13.3
	c-0.5,1.3-0.8,2.4-0.8,3.5c0,2.1,1.1,3.6,3.4,4.5c3.5,1.5,5.2,2.6,5.1,3.4c-0.1,1.3-1.2,1.7-3.5,1.5c-6.9-0.7-13.3-0.5-19.2,0.7
	c-1.5,0.3-2.4-0.2-2.6-1.7c-0.1-1,1-2,3.6-3.1c2.7-1.1,5-3.8,6.9-7.9c7.2-15.6,11.8-25.8,13.9-30.7c5.1-11.7,8.7-21.3,10.8-28.8
	c0.3-1.1,1.7-2.2,4.4-3.2c0.6-0.2,1.4,0.8,2.4,3.2c8,19.1,16.9,39.6,26.7,61.4c1.6,3.5,4.3,5.8,8,6.9
	C832.4,1143.4,833.2,1144.1,833,1144.9z M803,1115.8c-2.4-5.5-6.2-14.1-11.4-25.7c-0.3-0.6-0.6-0.9-1-0.9c-0.4,0-0.7,0.3-0.9,0.9
	l-10.5,25.5c3.9,0.3,8.4,0.4,13.3,0.4C795.4,1116.1,799,1116,803,1115.8z M931.8,1146.2c0,0.8-0.7,1.3-2.2,1.3
	c-13.2,0-25.7-11.3-37.4-34c-4.5,0.2-6.9,0.3-7.2,0.3v23.2c0,1.7,0.4,2.9,1.3,3.5c0.8,0.6,2.7,1.1,5.6,1.5c2,0.3,3,1,3,2.2
	c0,0.9-0.2,1.5-0.5,1.7c-0.3,0.2-1.3,0.3-2.8,0.2c-6.7-0.3-13.9-0.1-21.8,0.4c-1.6,0.1-2.4-0.5-2.4-1.9c0-1,0.8-1.5,2.4-1.7
	c3.6-0.4,5.4-2.3,5.4-5.9v-52.9c0-3.5-2-5.6-6.1-6.5c-2-0.4-3-1-3-1.9c0-1.4,0.7-2,2-2c0.4,0,0.8,0,1.3,0.1c1.5,0.2,3.8,0.3,6.9,0.3
	c1,0,3.6-0.1,7.8-0.2s8-0.2,11.6-0.2c7.4,0,13.2,1.4,17.4,4.1c4.8,3.1,7.2,7.6,7.2,13.5c0,10.2-5.9,16.9-17.7,20.2
	c3.8,8.5,8.2,15.9,13.3,22c5.2,6.3,9.9,9.7,14,10.4C931.2,1144.2,931.8,1144.9,931.8,1146.2z M904.2,1105c3.6-2.6,5.4-6.7,5.4-12.2
	c0-5.4-1.4-9.3-4.2-11.6c-2.8-2.3-7.3-3.5-13.4-3.5c-2.8,0-4.6,0.4-5.6,1.1c-1,0.8-1.4,2.4-1.4,4.9v26
	C893.9,1109.4,900.3,1107.8,904.2,1105z M509.6,232.3c8,1.4,14.6,6.4,20,12.3c0.2,0.2,0.4,0.4,0.6,0.7c4.1,4.8,6.7,12.1,7.7,19
	c1-6.9,3.6-14.2,7.7-19c0.2-0.2,0.4-0.5,0.6-0.7c5.5-5.9,12-10.8,20-12.3c11.2-2,22.3-1.1,33.4,0.1c8.9,1,16.5,6.4,24.5,9.9
	c0.4,0.2,0.8,0.4,1.2,0.6c8.6-5.7,19.8-7.9,29.6-6.6c7.2,1,13.3,5.7,17.2,11.6c2.7,4.1,3.3,11,2.2,15.7c-0.9,3.6-2.8,6.8-5.4,9.4
	c1,0.9,2.1,1.8,3.1,2.6c11.9,9.9,23.7,20.2,38.4,25.6c16.3,6,41,9.3,53.6-6.2c3.8-4.7,6.4-13.4,3.8-19.1c-2.7-5.9-8.9-10.6-15.1-12
	c-7.1-1.6-19-0.9-19.7,8.5c5.6-2.2,12.7-1.6,18.1,1.1c4.7,2.4,7.3,8,4.2,12.8c-2.9,4.4-9.1,4.9-13.6,3.1c-5.2-2-9-6.6-10.9-11.7
	c-10.4,6.4-26.7,16.5-38.4,7.3c-3.1-2.4-6.1-8.4-2.4-11.5c3.1-2.6,10.2-2.3,12.2,1.6c1.1,2.2,0.3,5.1-2.1,5.9
	c-1.4,0.4-3.1,0-4.2-0.9c-0.4-0.3-2-2-0.9-2.3c1.5-0.5,3,1.9,4.6,1.3c2.3-0.9-0.2-4.3-1.8-4.5c-2-0.3-4.6,0.4-5.9,1.9
	c-2.2,2.5,0.1,5.9,2.4,7.4c6,3.8,14,2.1,20.1-0.5c3.2-1.4,6.3-3.1,9.4-4.8c1.5-0.8,3-1.6,4.4-2.6c0.7-0.5,1.4-1,2-1.6
	c-0.1-0.9-0.1-1.9,0-2.8c1-13.7,14.6-17.3,26.2-16.6c5.3,0.3,10.4,2.5,13.8,6.7c3.6,4.4,5.1,8.9,5.6,14.5c0.2,1.7,0.4,3.4,0.3,5.2
	c-0.5,8.4-7.4,17.4-14.3,21.8c-11.9,7.6-27.1,7.2-40.3,4c-7.7-1.9-15.4-4.3-22.4-8c-6.8-3.6-13-8.4-19.1-13.1
	c-4.7-3.5-9.2-7.1-13.8-10.7c-0.3,0.2-0.6,0.4-0.8,0.6c-9.9,6-32.4,7.2-31.5-9.5c0.1-2.5,2.1-6.7,5.1-4.2c1.9,1.6,1,5.2,0.9,7.3
	c-0.4,5.7,5.7,7.3,10.3,7.2c4-0.1,9.2-1.1,13.3-3.4c-7.1-5.4-14.4-10.5-22.4-14.7c-4.2-2.2-8.6-3.1-13-4.8c-2.3-0.9-4.7-1.9-7-2.8
	c-4.9,5.6-8.1,12.8-7.5,20.2c0.7,8.9,6.2,16.5,14,20.5c3.8,2,8,2.6,12.3,3.2c3.6,0.4,8.4,0.7,11.5-1.4c2.8-1.9,2.5-3.6,3.2-6.4
	c1.3-4.8,8.1-3.1,10.3-0.1c2.3,3.2,0.9,7.7-1.8,10.2c-4.2,3.9-10.3,5.6-15.9,5.6c-11,0-21.8-6.1-28.8-14.4
	c-7.9-9.3-9.7-21.3-3.9-32.2c1-2.3,2.3-4.5,3.8-6.4c-1.6-0.6-3.3-1-4.9-1.4c-8.3-1.6-16.7-3.2-25.1-4.1c-8.3-0.9-16.8,0.1-24.9,1.3
	c-7.6,1.2-14.3,6.6-18.5,12.8c-2.1,3.1-3.3,6.8-4.1,10.4c-0.7,2.9-0.6,5.8,0.2,8.7c0.7,2.6,2.3,4.6,3.2,7c1.2,3.1,3.4,5,5.8,7.3
	c1,1,2.1,1.8,3.3,2.6c4.5,2.9,10.8,3.7,16.1,3.4c9.1-0.4,18.3-4.9,23.4-12.6c4.5-6.6,0.5-12.9-5.9-16.4c-4.3-2.4-9.5-4.3-14.4-2.9
	c-2.3,0.7-8.6,5.2-3.6,7c2.1,0.7,4.8-0.2,6.7,1.2c1.8,1.2,1.6,3.5-0.2,4.6c-3.5,2.2-8.9,1-11.3-2.3c-3.4-4.7,1.5-10.3,5.3-12.9
	c5.7-3.8,12.9-4.9,19.3-2.5c5.9,2.2,10.4,7.3,10.5,13.8c0.1,5.8-1.7,10.3-5.5,14.7c-2.8,3.3-5.7,5.1-9.7,6.7c-3,1.2-6,2.3-9.1,3.3
	c-3.3,1-7.3,0.7-10.7,0.7c-3.6,0-7.5-1.4-10.7-3c-4.5-2.2-8.1-5-10.8-9.2c-2.3-3.6-3.8-7.9-4.5-12.2c-0.7,4.3-2.2,8.6-4.5,12.2
	c-2.7,4.2-6.3,7-10.8,9.2c-3.2,1.6-7.1,3-10.7,3c-3.4,0-7.4,0.3-10.7-0.7c-3.1-0.9-6.1-2.1-9.1-3.3c-4-1.7-6.9-3.4-9.7-6.7
	c-3.7-4.4-5.6-8.9-5.5-14.7c0.1-6.5,4.6-11.6,10.5-13.8c6.4-2.4,13.7-1.3,19.3,2.5c3.8,2.5,8.8,8.1,5.3,12.9
	c-2.4,3.3-7.8,4.6-11.3,2.3c-1.8-1.1-2-3.4-0.2-4.6c2-1.3,4.6-0.4,6.7-1.2c5.1-1.7-1.3-6.3-3.6-7c-4.9-1.4-10.1,0.5-14.4,2.9
	c-6.4,3.6-10.4,9.8-5.9,16.4c5.2,7.7,14.3,12.2,23.4,12.6c5.3,0.3,11.5-0.6,16-3.4c1.2-0.8,2.3-1.6,3.3-2.6c2.4-2.3,4.6-4.2,5.8-7.3
	c1-2.4,2.5-4.4,3.2-7c0.7-2.8,0.8-5.8,0.2-8.7c-0.8-3.6-2-7.3-4.1-10.4c-4.2-6.2-11-11.6-18.5-12.8c-8.2-1.3-16.7-2.3-24.9-1.3
	c-8.4,0.9-16.8,2.4-25.1,4.1c-1.7,0.3-3.3,0.8-4.9,1.4c1.5,1.9,2.8,4.1,3.8,6.4c5.8,10.9,3.9,22.9-3.9,32.2
	c-7,8.3-17.8,14.4-28.8,14.4c-5.6,0-11.7-1.8-15.9-5.6c-2.7-2.5-4.2-7-1.8-10.2c2.2-3,9-4.7,10.3,0.1c0.7,2.7,0.4,4.5,3.2,6.4
	c3.1,2.1,7.9,1.8,11.5,1.4c4.2-0.5,8.5-1.2,12.3-3.2c7.8-4,13.3-11.6,14-20.5c0.6-7.5-2.6-14.7-7.5-20.2c-2.3,0.9-4.7,1.9-7,2.8
	c-4.4,1.7-8.8,2.6-13.1,4.8c-8,4.2-15.3,9.3-22.4,14.7c4.1,2.3,9.3,3.3,13.3,3.4c4.6,0.2,10.7-1.5,10.3-7.2c-0.2-2.1-1-5.7,0.9-7.3
	c3-2.5,5,1.7,5.1,4.2c0.9,16.8-21.6,15.5-31.5,9.5c-0.3-0.2-0.6-0.4-0.8-0.6c-4.6,3.5-9.2,7.2-13.8,10.7
	c-6.1,4.6-12.3,9.4-19.1,13.1c-7,3.7-14.7,6.1-22.4,8c-13.2,3.2-28.4,3.5-40.3-4c-6.9-4.4-13.8-13.4-14.3-21.8
	c-0.1-1.7,0.2-3.5,0.3-5.2c0.5-5.6,2-10.1,5.6-14.5c3.4-4.2,8.5-6.3,13.8-6.7c11.7-0.7,25.2,2.8,26.2,16.6c0.1,0.9,0.1,1.9,0,2.8
	c0.6,0.6,1.3,1.1,2,1.6c1.4,1,2.9,1.8,4.3,2.6c3.1,1.7,6.2,3.3,9.4,4.8c6.1,2.7,14.1,4.3,20.1,0.5c2.3-1.5,4.7-4.8,2.4-7.4
	c-1.3-1.5-4-2.2-5.9-1.9c-1.6,0.3-4,3.6-1.8,4.5c1.6,0.6,3.1-1.8,4.6-1.3c1.1,0.4-0.5,2-0.9,2.3c-1.1,1-2.8,1.4-4.2,0.9
	c-2.5-0.8-3.3-3.7-2.1-5.9c2-3.9,9.1-4.2,12.2-1.6c3.7,3.2,0.7,9.1-2.4,11.5c-11.8,9.2-28.1-0.9-38.4-7.3
	c-1.9,5.1-5.8,9.7-10.9,11.7c-4.5,1.8-10.7,1.3-13.6-3.1c-3.1-4.7-0.5-10.4,4.2-12.8c5.4-2.8,12.5-3.4,18.1-1.1
	c-0.7-9.4-12.6-10.1-19.7-8.5c-6.2,1.4-12.5,6-15.1,12c-2.6,5.7,0,14.4,3.8,19.1c12.7,15.5,37.3,12.2,53.6,6.2
	c14.7-5.4,26.5-15.7,38.4-25.6c1-0.9,2.1-1.7,3.1-2.6c-2.6-2.5-4.5-5.7-5.4-9.4c-1.1-4.7-0.6-11.6,2.2-15.7
	c3.9-5.9,10-10.7,17.2-11.6c9.8-1.3,21,0.9,29.6,6.6c0.4-0.2,0.8-0.4,1.2-0.6c8-3.5,15.6-8.9,24.5-9.9
	C487.3,231.2,498.4,230.2,509.6,232.3z M341,275.6c-1.3-1.2-3.7-1-5.2-1c2,0-1.5,0.1-1.9,0.1c-1.2,0.1-2.3,0.3-3.4,0.7
	c-1.8,0.5-3.6,1.3-5.1,2.5c-2.9,2.3-3.8,6-0.2,8.1c5.1,3.1,12.5-2.3,15-6.6c0.4-0.7-0.3,0.5-0.7,1.3c0,0.1-0.1,0.1-0.1,0.2
	C340,279.6,342.4,276.9,341,275.6z M447.5,244.4c-5.2-2.8-12.6-3.3-18.1-2c-3.3,0.7-6.4,1.9-9.4,3.4c-4,1.9-7.8,4.6-10.2,8.4
	c-1.9,3-4.5,8.3-3.4,11.9c0.6,1.9,1.6,3.4,3,4.7c4.4-3.8,8.8-7.7,13.6-10.8c5.1-3.4,10-6.6,15.2-9.8
	C441.4,248.3,444.4,246.2,447.5,244.4z M736.6,280.8c0,0-0.1-0.1-0.1-0.2c-0.4-0.7-1.1-2-0.7-1.3c2.5,4.3,9.9,9.7,15,6.6
	c3.6-2.2,2.7-5.8-0.2-8.1c-1.5-1.2-3.3-2-5.1-2.5c-1.1-0.3-2.3-0.5-3.4-0.7c-0.4,0-3.8-0.1-1.9-0.1c-1.5,0-4-0.2-5.2,1
	C733.5,276.9,735.9,279.6,736.6,280.8z M628.4,244.4c3.2,1.8,6.1,3.9,9.3,5.9c5.2,3.2,10.1,6.4,15.2,9.8c4.8,3.2,9.2,7,13.6,10.8
	c1.4-1.3,2.4-2.9,3-4.7c1.1-3.6-1.6-8.9-3.4-11.9c-2.3-3.9-6.2-6.5-10.2-8.4c-3-1.5-6.1-2.7-9.4-3.4
	C641,241.2,633.6,241.6,628.4,244.4z M875.7,777.7c1.9,0.6,3.9,0.5,5.8,1.1c5.3,1.7,12.5,5.6,18.1,3c5-2.2,1.8-6.7-1.1-9.3
	c-1.6-1.5-3.5-2.6-5.3-3.8c-1.1-0.7-2-1.6-3.4-1.9c-1.6-0.4-3.3-0.3-5-0.6c-4.9-0.8-6.3-0.8-14.7-0.5c-3.7,0.1-7.2,1.9-10.6,3.1
	c-4.1,1.5-8,3.5-11.7,5.9c-1.6,1.1-2.6,1.4-3.9-0.4c-1.3-1.9-2.2-4.2-3.6-6.1c-3.1-4.3-6.5-8.2-10.5-11.7c-7.9-7-19.9-12.2-30.1-7.1
	c1.9-0.9,7.7,1,9.7,1.5c2.7,0.7,5.2,1.9,7.8,3.1c2.3,1.1,3.6,2.4,5.6,4.1c2.2,1.9,6.3,4,13.3,13c2,2.6,4.3,5.1,5.8,8.1
	c0.6,1.2,0.8,2.7,2.3,2.6c1.6-0.1,3.6-1.8,5.1-2.4C857.6,776.1,869.8,775.8,875.7,777.7z M846.9,752.3c-2.9-2-6.2-3.2-9.7-3.6
	c-0.9-0.1-3.8-0.8-4.4,0.2c-0.6,0.9,0.9,1.7,1.7,2.3c3.1,2.5,7.7,6.3,10.1,9.5c1,1.3,1.8,3.4,3.1,4.4c1.2,0.9,2.6-0.5,3.7-1.2
	c4.5-2.6,8.6-4.1,14-4.6c0.7-0.1,1.8,0.2,2.4-0.1c1.7-0.8-0.9-2.5-1.6-3.1c-3.7-2.7-7.3-4.1-11.8-2.6c-1.3,0.4-3.1,2-4.5,1.3
	C848.7,754.3,847.9,753,846.9,752.3z M848,742.9c-0.3,2.3,1.3,3.9,3.4,4.5c3.5,1,4.8-2.5,4.7-4c0-0.8-0.4-1.6-1.2-2.4
	C852.5,738.5,848.5,739.1,848,742.9z M855,731.8c-0.6-2-4.3-2.2-4.4,0c0,0.1,0,0.2,0,0.4C851.1,735.4,856,735.4,855,731.8z
	 M257.8,758.1c1.9-1.7,3.3-3,5.6-4.1c2.6-1.2,5-2.3,7.8-3.1c2-0.5,7.8-2.4,9.7-1.5c-10.3-5.2-22.3,0.1-30.1,7.1
	c-4,3.5-7.4,7.4-10.5,11.7c-1.4,1.9-2.3,4.2-3.6,6.1c-1.3,1.8-2.2,1.5-3.9,0.4c-3.6-2.4-7.6-4.4-11.7-5.9c-3.4-1.3-6.9-3-10.6-3.1
	c-8.4-0.2-9.7-0.3-14.7,0.5c-1.7,0.3-3.4,0.1-5,0.6c-1.3,0.4-2.3,1.2-3.4,1.9c-1.8,1.2-3.7,2.3-5.3,3.8c-2.8,2.6-6.1,7.1-1.1,9.3
	c5.6,2.5,12.8-1.3,18.1-3c1.9-0.6,3.9-0.5,5.8-1.1c5.9-1.9,18.1-1.6,26.4,1.7c1.5,0.6,3.5,2.3,5.1,2.4c1.6,0.1,1.8-1.4,2.3-2.6
	c1.4-3,3.8-5.5,5.8-8.1C251.5,762.1,255.6,759.9,257.8,758.1z M214.5,756.2c-0.7,0.5-3.3,2.3-1.6,3.1c0.6,0.3,1.7,0,2.4,0.1
	c5.4,0.5,9.5,2,14,4.6c1.1,0.6,2.5,2.1,3.7,1.2c1.3-1,2.1-3.1,3.1-4.4c2.4-3.2,7-7,10.1-9.5c0.8-0.6,2.3-1.4,1.7-2.3
	c-0.6-0.9-3.5-0.3-4.4-0.2c-3.5,0.4-6.8,1.6-9.7,3.6c-1,0.7-1.9,2-2.9,2.6c-1.4,0.7-3.2-0.8-4.5-1.3
	C221.8,752.2,218.1,753.5,214.5,756.2z M229.2,747.3c2.1-0.6,3.7-2.2,3.4-4.5c-0.5-3.7-4.5-4.4-7-1.9c-0.7,0.7-1.1,1.5-1.2,2.4
	C224.4,744.9,225.7,748.3,229.2,747.3z M230,732.2c0-0.1,0-0.2,0-0.4c0-2.3-3.8-2.1-4.4,0C224.6,735.4,229.5,735.4,230,732.2z"/>
</svg>
