<?xml version="1.0" encoding="utf-8"?>
<!-- Generator: Adobe Illustrator 22.1.0, SVG Export Plug-In . SVG Version: 6.00 Build 0)  -->
<svg version="1.1" id="Layer_1" xmlns="http://www.w3.org/2000/svg" xmlns:xlink="http://www.w3.org/1999/xlink" x="0px" y="0px"
	 viewBox="0 0 432 432" enable-background="new 0 0 432 432" xml:space="preserve">
<path fill="#E52028" d="M115.7,130.5c1.2,0,2.4-0.7,3.6-2.1c1.2-1.4,2.4-3.4,3.6-5.9c1.2-2.5,2.2-5.5,3.2-9c1-3.5,1.9-7.3,2.6-11.5
	l1.1,0.3c0,2.1,0,4.2,0,6.4c0,2.2,0.1,4.3,0.1,6.4c0.1,2.1,0.2,4,0.3,5.9c0.1,1.9,0.3,3.5,0.4,4.9c0.2,1.4,0.4,2.5,0.7,3.3
	c0.3,0.8,0.6,1.2,0.9,1.2c1,0,2-0.5,3.1-1.6c1-1,2-2.5,3-4.3c1-1.8,2-4,2.9-6.6c0.9-2.6,1.9-5.4,2.7-8.4c0,2.3,0.3,4.2,0.8,5.8
	c0.5,1.6,1.2,2.9,2.1,3.9c0.9,1,1.9,1.7,3.1,2.2c1.2,0.5,2.4,0.7,3.7,0.7c1.7,0,3.4-0.5,5.2-1.4c0.6-0.3,1.2-0.7,1.8-1.1
	c0,1.4,0.1,2.8,0.3,4c0.2,1.4,0.6,2.7,1.2,3.7c0.6,1,1.3,1.8,2.2,2.3c0.9,0.6,2,0.8,3.4,0.8c1.5,0,3.1-0.4,4.7-1.2
	c1.6-0.8,3.3-1.8,4.9-3s3.1-2.5,4.4-4c0.3-0.4,0.7-0.7,1-1c0.2,1.4,0.5,2.6,0.9,3.6c0.6,1.5,1.4,2.6,2.4,3.5c1,0.9,2.1,1.6,3.4,2
	c1.3,0.4,2.7,0.6,4.2,0.6c2.1,0,4.3-0.4,6.7-1.1s4.7-1.7,6.9-2.9c2.3-1.2,4.5-2.6,6.6-4.3c0.5-0.4,1-0.8,1.4-1.2c0,0.3,0,0.5,0,0.8
	c0.1,1.5,0.2,2.9,0.5,4.1c0.3,1.2,0.6,2.2,1.1,2.9c0.5,0.7,1.2,1.1,2,1.1c0.6,0,1.2-0.2,1.6-0.6c0.4-0.4,0.8-1,1.1-1.9
	c0.3-0.8,0.7-1.9,1.1-3.2c0.4-1.3,0.8-2.8,1.4-4.5c1.1-3.5,2.4-6.9,3.8-10.2c1.4-3.3,2.7-6.2,4-8.9c1.3-2.6,2.5-4.8,3.5-6.5
	c1-1.7,1.8-2.8,2.2-3.2l0.8,0.2c-0.1,0.1-0.2,0.5-0.5,1.3c-0.3,0.7-0.6,1.7-0.9,2.8s-0.7,2.5-1.1,3.9c-0.4,1.5-0.8,3-1.1,4.5
	c-0.3,1.5-0.6,3.1-0.8,4.6c-0.2,1.5-0.3,2.9-0.3,4.1c0,1.8,0.2,3.8,0.5,5.9c0.3,2.1,0.8,4,1.5,5.7c0.7,1.7,1.5,3.2,2.6,4.3
	c1,1.1,2.3,1.7,3.7,1.7c0.9,0,1.9-0.2,2.9-0.7c1-0.5,2-1,3-1.8c1-0.7,2-1.5,3-2.4c1-0.9,1.9-1.8,2.8-2.7c0.8-0.8,1.5-1.6,2.2-2.4
	c0.4,1,0.8,1.9,1.3,2.8c1.2,2.2,2.7,4,4.5,5.3c1.8,1.3,3.9,2,6.3,2c1.5,0,3.1-0.3,4.5-0.8s2.9-1.2,4.3-2.1c1.4-0.9,2.7-1.9,4-3
	c1.3-1.1,2.4-2.2,3.5-3.4c0.3-0.3,0.6-0.7,0.9-1.1c0.2,1.8,0.5,3.3,1,4.6c0.6,1.5,1.4,2.6,2.4,3.5c1,0.9,2.1,1.6,3.4,2
	c1.3,0.4,2.7,0.6,4.2,0.6c2.1,0,4.3-0.4,6.7-1.1s4.7-1.7,6.9-2.9c2.3-1.2,4.5-2.6,6.6-4.3c2.1-1.6,3.9-3.3,5.5-5.2l0-12.9
	c-1.2,1.4-2.4,2.6-3.7,3.5s-2.4,1.9-3.5,2.7s-2.3,1.6-3.3,2.3c-1.1,0.7-2.1,1.6-3,2.5c0-2.5-0.1-4.6-0.2-6.4
	c-0.1-1.8-0.3-3.4-0.5-4.8c-0.2-1.4-0.4-2.6-0.6-3.7c-0.2-1.1-0.4-2.1-0.6-3c-0.2-0.9-0.3-1.9-0.5-2.9s-0.2-2.1-0.2-3.3
	c0.1-0.4,0.4-1.1,0.9-1.9s1.1-1.8,1.7-2.8c0.6-1,1.1-2.1,1.6-3.2c0.5-1.1,0.7-2.1,0.7-3.1c0-0.5,0-1-0.1-1.6
	c-0.1-0.6-0.2-1.2-0.5-1.8c-0.3-0.6-0.8-1.1-1.5-1.5c-0.7-0.4-1.6-0.6-2.8-0.6c-0.7,0-1.4,0.2-2,0.5c-0.6,0.3-1.2,0.7-1.7,1.3
	s-1,1.1-1.4,1.8c-0.4,0.7-0.8,1.3-1.1,2c-1.6,3.1-3,5.6-4,7.7c-1,2.1-1.9,3.8-2.6,5.2c-0.7,1.4-1.3,2.6-1.9,3.7
	c-0.5,1-1.1,2.1-1.7,3.1c-0.6,1-1.4,2.1-2.3,3.4c-0.2,0.3-0.4,0.6-0.6,0.9l-0.2-0.3c-1,1.5-2.2,3-3.6,4.6c-1.4,1.6-3,3.1-4.6,4.5
	s-3.3,2.5-5,3.5s-3.3,1.4-4.9,1.4c-0.5,0-0.9-0.1-1.4-0.2c-0.4-0.2-0.8-0.4-1.2-0.8c-0.4-0.4-0.8-0.9-1.1-1.6
	c-0.4-0.7-0.7-1.6-1.1-2.6c2.2-0.9,4.3-2.2,6.2-3.9c1.9-1.6,3.5-3.5,4.9-5.6c1.4-2.1,2.5-4.4,3.2-6.7c0.8-2.4,1.2-4.8,1.2-7.1
	c0-2.2-0.3-4.2-0.8-5.9c-0.5-1.8-1.2-3.3-2.1-4.5c-0.9-1.2-2-2.2-3.2-2.9c-1.2-0.7-2.6-1-4-1c-1.8,0-3.4,0.5-4.8,1.4
	c-1.4,0.9-2.8,2.2-3.9,3.8c-1.2,1.6-2.2,3.4-3.1,5.5c-0.9,2.1-1.6,4.3-2.2,6.6c-0.6,2.3-1,4.7-1.3,7c-0.3,2.4-0.4,4.7-0.4,6.8
	c0,0.8,0,1.5,0.1,2.3c-0.2,0.3-0.4,0.6-0.6,0.9c-0.6,0.8-1.2,1.7-1.9,2.4c-0.7,0.8-1.3,1.5-2,2.1c-0.7,0.6-1.4,1.1-2.1,1.5
	c-0.7,0.4-1.3,0.6-2,0.6c-0.5,0-0.9-0.5-1.2-1.4c-0.3-0.9-0.5-2.1-0.5-3.7c0-2.8,0.2-5.5,0.7-8.1c0.5-2.6,1-5.1,1.6-7.6
	c0.6-2.5,1.1-4.9,1.6-7.4c0.5-2.5,0.7-5,0.7-7.6c0-1.3-0.1-2.4-0.3-3.2c-0.2-0.8-0.5-1.5-0.9-1.9s-0.7-0.8-1.1-0.9s-0.7-0.3-1-0.3
	c-1.2,0-2.5,0.7-3.9,2c-1.4,1.4-2.8,3.1-4.2,5.1c-1.4,2.1-2.8,4.3-4.1,6.6c-1.3,2.4-2.5,4.6-3.5,6.7l-0.8-0.8c0.9-2.4,1.9-5.2,3-8.4
	c1.1-3.2,2.3-6.6,3.5-10.2c1.2-3.6,2.3-7.3,3.5-11.1c1.1-3.8,2.1-7.6,3-11.3c0.9-3.7,1.6-7.3,2.1-10.8c0.5-3.5,0.8-6.6,0.8-9.4
	c0-1.9-0.1-3.7-0.3-5.2c-0.2-1.6-0.6-2.9-1.1-4c-0.5-1.1-1.2-2-2.1-2.6c-0.9-0.6-2-0.9-3.4-0.9c-2.7,0-5,1.1-7.1,3.3
	c-2,2.2-3.8,5.2-5.4,9c-1.5,3.8-2.8,8.2-3.9,13.1c-1.1,5-1.9,10.2-2.6,15.7c-0.7,5.5-1.2,11-1.6,16.6c-0.4,5.6-0.7,10.9-0.9,16
	c-0.2,5.1-0.3,9.7-0.4,13.8c0,0.3,0,0.7,0,1c-1.1,0.9-2.1,1.7-3.2,2.4c-1.2,0.8-2.3,1.6-3.3,2.3c-1.1,0.7-2.1,1.6-3,2.5
	c0-2.5-0.1-4.6-0.2-6.4c-0.1-1.8-0.3-3.4-0.5-4.8c-0.2-1.4-0.4-2.6-0.6-3.7c-0.2-1.1-0.4-2.1-0.6-3c-0.2-0.9-0.3-1.9-0.5-2.9
	s-0.2-2.1-0.2-3.3c0.1-0.4,0.4-1.1,0.9-1.9c0.5-0.9,1.1-1.8,1.7-2.8c0.6-1,1.1-2.1,1.6-3.2c0.5-1.1,0.7-2.1,0.7-3.1
	c0-0.5,0-1-0.1-1.6c-0.1-0.6-0.2-1.2-0.5-1.8c-0.3-0.6-0.8-1.1-1.5-1.5c-0.7-0.4-1.6-0.6-2.8-0.6c-0.7,0-1.4,0.2-2,0.5
	c-0.6,0.3-1.2,0.7-1.6,1.3c-0.5,0.5-1,1.1-1.4,1.8c-0.4,0.7-0.8,1.3-1.1,2c-1.6,3.1-3,5.6-4,7.7c-1,2.1-1.9,3.8-2.6,5.2
	c-0.7,1.4-1.3,2.6-1.9,3.7c-0.5,1-1.1,2.1-1.7,3.1c-0.6,1-1.4,2.1-2.3,3.4c-0.9,1.2-2.1,2.8-3.5,4.6c-0.2,0.3-0.5,0.6-0.9,1.1
	c-0.4,0.5-0.8,1-1.2,1.6c-0.4,0.6-0.8,1.3-1.1,2.1c-0.3,0.8-0.5,1.6-0.5,2.6c0,0.1,0,0.2,0,0.3c-0.7,0.7-1.4,1.4-2.1,2
	c-1.1,1-2.1,1.4-3.1,1.4c-0.8,0-1.3-0.5-1.6-1.5c-0.3-1-0.4-2.4-0.4-4.1c0-1.8,0.1-3.8,0.4-6c0.3-2.2,0.6-4.5,1-6.8
	c0.4-2.3,0.8-4.6,1.2-7c0.4-2.3,0.8-4.5,1.2-6.5c0.4-2,0.7-3.8,1-5.4c0.3-1.6,0.4-2.8,0.4-3.7c0-1-0.2-1.8-0.6-2.4
	c-0.4-0.6-1.1-0.9-2.2-0.9c-0.6,0-1.2,0.1-2,0.3c-0.7,0.2-1.4,0.5-2.1,1c-0.7,0.4-1.3,1-1.8,1.7c-0.5,0.7-0.9,1.6-1.1,2.6
	c-0.5,2.9-1,6-1.6,9.4c-0.6,3.4-1.2,6.8-1.7,10.3c-0.3,1.7-0.5,3.4-0.7,5c-0.4,0.4-0.8,0.7-1.2,1.1c-1,0.8-2,1.6-3.1,2.3
	c-1.1,0.7-2.1,1-2.9,1c-1,0-1.9-0.4-2.6-1.3c-0.7-0.8-1.3-1.8-1.8-2.8c-0.6-1.2-1-2.5-1.4-4c0.3-1,0.7-2.1,1.2-3.2
	c0.4-1,0.8-2.1,1.2-3.5c0.5-1.3,1-2.7,1.6-4.3c0-0.1,0.2-0.5,0.4-1.2c0.3-0.7,0.5-1.6,0.8-2.7c0.3-1.1,0.5-2.2,0.8-3.4
	c0.2-1.2,0.4-2.4,0.4-3.5c0-1.4-0.4-2.6-1.3-3.5c-0.9-0.9-2.1-1.4-3.5-1.4c-1.4,0-2.6,0.4-3.6,1.2c-1,0.8-1.7,1.8-2,2.8l-9.2,30.7
	l-0.5,0.1l3.1-31.1c0-1.1-0.3-2-0.9-2.7c-0.6-0.7-1.5-1-2.6-1c-1.3,0-2.5,0.3-3.4,0.9c-1,0.6-1.8,1.6-2.6,2.8
	c-0.8,1.3-1.5,2.9-2.1,4.8c-0.7,1.9-1.3,4.2-2,6.7c-0.7,2.6-1.5,5.5-2.3,8.7c-0.8,3.2-1.8,6.8-2.9,10.7l-0.5,0.1l2.7-31.1
	c0-1.1-0.3-2-0.9-2.7c-0.6-0.7-1.5-1-2.6-1l-0.9-0.1c-0.9,0-1.8,0.3-2.4,1c-0.7,0.7-1.3,1.6-1.8,2.6c-0.5,1.1-0.9,2.2-1.2,3.5
	c-0.3,1.3-0.6,2.5-0.8,3.7c-0.2,1.2-0.3,2.3-0.4,3.2c-0.1,0.9-0.1,1.6-0.2,2c-0.1,1.5-0.1,2.8-0.2,3.9c-0.1,1.1-0.1,2.1-0.1,3
	c0,0.9,0,1.9,0,2.8c0,0.9,0,2,0,3.3c0,8.6,0.5,15.2,1.4,19.6C112.2,128.3,113.7,130.5,115.7,130.5z M298.8,101
	c0.1,0.6,0.3,1.4,0.4,2.2c0.2,0.9,0.3,1.8,0.5,2.8c0.1,1,0.3,2,0.3,3.1c0.1,1.1,0.1,2.1,0.1,3.2c0,1.2-0.1,2.3-0.2,3.4
	c-0.2,1.1-0.4,2.1-0.8,2.9c-0.4,0.8-0.9,1.5-1.6,2c-0.7,0.5-1.5,0.7-2.5,0.7c-0.8,0-1.5-0.3-2.2-0.9c-0.6-0.6-1.2-1.2-1.7-1.9
	c-0.5-0.7-0.9-1.3-1.3-1.9c-0.3-0.5-0.7-0.8-0.9-0.8c0.9-1.2,1.8-2.4,2.6-3.8l-0.1-0.1L298.8,101z M263,100.4
	c0.1-1.2,0.2-2.4,0.3-3.7c0.2-1.3,0.4-2.5,0.7-3.8c0.3-1.2,0.7-2.4,1.3-3.3c0.5-1,1.2-1.8,2-2.4c0.8-0.6,1.7-0.9,2.8-0.9
	c0.6,0,1.1,0.6,1.6,1.7c0.4,1.1,0.6,2.5,0.6,4.3c0,1.2-0.3,2.5-1,3.8c-0.6,1.3-1.4,2.5-2.4,3.6c-0.9,1.1-1.9,2-3,2.7
	c-1.1,0.7-2.1,1.1-3,1.1C263,102.6,263,101.6,263,100.4z M224.7,76.2c0.2-2,0.4-4,0.6-6.2c0.2-2.2,0.5-4.4,0.8-6.6
	c0.3-2.2,0.6-4.5,1-6.8c0.4-2.3,0.8-4.5,1.2-6.6c1.8-6.2,3.3-11,4.6-14.2c1.3-3.3,2.3-4.9,3-4.9c0.5,0,0.8,1.5,0.8,4.4
	c0,1.9-0.3,4.9-1,8.9c-0.7,4-1.8,9-3.3,14.8c-0.5,1.7-1,3.8-1.7,6.3s-1.5,5.1-2.2,7.9c-0.8,2.8-1.6,5.6-2.4,8.4
	c-0.8,2.8-1.6,5.5-2.3,7.9C224,85.3,224.3,80.8,224.7,76.2z M196.1,101c0.1,0.6,0.3,1.4,0.4,2.2c0.2,0.9,0.3,1.8,0.5,2.8
	c0.1,1,0.3,2,0.3,3.1c0.1,1.1,0.1,2.1,0.1,3.2c0,1.2-0.1,2.3-0.2,3.4c-0.2,1.1-0.4,2.1-0.8,2.9c-0.4,0.8-0.9,1.5-1.6,2
	c-0.7,0.5-1.5,0.7-2.5,0.7c-0.8,0-1.5-0.3-2.2-0.9c-0.6-0.6-1.2-1.2-1.7-1.9c-0.5-0.7-0.9-1.3-1.3-1.9c-0.4-0.6-0.7-0.9-1-0.9
	L196.1,101z M169.8,65.4c-1.1-1.6-1.6-3.7-1.6-6.4c0-0.9,0.1-1.9,0.4-3c0.3-1.1,0.7-2.2,1.2-3.1c0.6-1,1.3-1.8,2.3-2.5
	c1-0.7,2.2-1,3.6-1c0.9,0,1.7,0.2,2.5,0.5c0.8,0.3,1.5,0.8,2.1,1.4c0.6,0.6,1.1,1.5,1.4,2.5c0.3,1,0.5,2.3,0.5,3.7
	c0,1.3-0.1,2.6-0.4,3.8c-0.3,1.2-0.7,2.3-1.3,3.3c-0.6,1-1.4,1.7-2.3,2.3c-0.9,0.6-2.1,0.9-3.4,0.9C172.5,67.8,170.8,67,169.8,65.4z
	 M354.2,238.1l-0.8-1.2l-1.2-0.1l-0.9,0.7l-1.2,2.8l-0.5,0.9l-0.5,1l-1.1,2.5l-1,1.8l-0.9,1.8l-0.5,0.9l-0.6,0.9l-0.5,0.8l-0.6,0.7
	l-1.2,1.6l-0.5,0.8l-0.6,0.8l-0.7,0.7l-0.6,0.7l-0.7,0.7l-0.8,0.9l-0.5,0.5l-0.7,0.8l-0.8,0.7l-0.7,0.6l-0.9,0.6l-1.1,0.7l-1.3,0.5
	l-0.6-0.3v-1.2l0.3-1.2l0.2-0.7l0.3-1.2l0.4-2.1l0.2-1.4l0.3-1.5l0.2-1.2l0.4-1.4l0.3-1.4l0.3-1l0.2-0.9l0.3-1l0.3-1.5l0.3-1.4
	l0.2-1l0.3-1l0.2-1l0.4-1.4l0.3-1.4l0.3-1l0.4-2.1l0.4-1.5l0.3-1.4l0.3-1.2l0.4-1.3l0.3-1.4l0.3-1.2l0.3-1.4l0.2-1.5l0.3-1l0.6-1.8
	l0.3-1l0.1-1v-1l-0.3-0.8l-0.8-0.6l-0.9-0.3l-1-0.2h-1.8l-0.9,0.1l-0.9,0.3l-0.6,0.7l-0.4,0.9l-0.3,1.2l-0.3,1.4l-0.3,1.3l-0.4,2.1
	l-0.3,1.2l-0.3,1.4l-0.4,1.3l-0.4,1l-0.3,0.9l-0.2,1l-0.3,1l-0.2,1l-0.4,1.5l-0.6,1.6l-0.6,1.5l-0.3,1l-0.3,0.9l-0.8,2.1l-0.4,0.6
	l-0.5,1l-0.3,1l-0.4,0.9l-0.5,1l-0.5,0.8l-0.6,0.9l-0.6,1l-0.3,0.6l-0.7,1l-0.5,0.8l-0.6,0.8l-1.2,1.4l-1,0.9l-0.4,0.5l-0.8,0.8
	l-0.8,0.7l-0.7,0.7l-0.8,0.6l-0.9,0.3l-0.9,0.2l-0.9-0.1l-0.9-0.2l-0.9-0.3l-0.6-0.7l-0.4-1l-0.1-1v-2.2l0.1-1l0.2-1.2l0.2-1
	l0.3-1.3l0.1-0.7l0.2-1.2l0.2-1l0.3-1l0.2-0.9l0.2-1l0.1-1l0.6-2.1l0.4-2.1l0.3-1.4l0.3-1.5l0.4-1l0.2-1l0.2-0.9l0.6-3.1l0.3-1
	l0.2-1l0.2-0.9l0.6-3.1l0.3-1l0.2-1l0.1-1v-0.9l-0.4-0.8l-0.8-0.6l-0.8-0.2l-1-0.1h-0.9l-1,0.1l-0.9,0.1l-0.9,0.5l-0.5,0.7l-0.3,0.9
	l-0.6,3.1l-0.3,1l-0.2,1l-0.6,2.1l-0.3,0.9l-0.1,1l-0.3,1.2l-0.3,0.9l-0.6,2.1l-0.2,0.8l-0.3,1l-0.4,1.2l-0.6,2.1l-0.3,0.9l-0.3,1.5
	l-0.2,0.5l-0.4,1l-0.4,0.9l-0.6,1l-0.9,1.7l-0.5,0.9l-0.6,0.9l-0.5,0.8l-0.7,0.7l-0.6,0.8l-1.3,1.4l-1.6,1l-0.8,0.5l-1,0.5l-0.9,0.2
	H295l-1,0.1l-0.9,0.1l-0.7-0.2l-0.2-0.5l1.1-2.5l1.1-2.8l0.4-1l0.3-1l0.2-0.9l0.2-1l0.3-1l0.5-2l0.2-1l0.2-0.9l0.1-1l0.1-1.2l0.1-1
	v-1l0.1-1l-0.1-1v-3.1l-0.4-2.1l-0.2-0.9l-0.2-1l-0.3-1l-0.3-0.9l-0.4-0.9l-0.6-1l-1.2-1.4l-0.6-0.8l-0.7-0.6l-0.8-0.5l-1-0.5
	l-0.8-0.3l-0.8-0.2l-0.8-0.3l-0.9-0.2l-1-0.1h-1.3l-1.2,0.1l-1,0.1l-1.3,0.5l-1.3,0.6l-1.2,0.6l-0.9,0.5l-1.1,0.8l-1,0.7l-0.8,0.8
	l-1,0.8l-0.9,0.9l-0.5,0.5l-0.2-0.1l0.2-0.7l0.3-1.5v-1.7l-0.9-1.3l-1.4-0.7l-1.5-0.1l-1.5,0.1l-1.2,0.5l-0.7,0.7l-0.8,2.8l-0.2,1
	l-0.3,0.9l-0.3,1l-0.3,1.2l-0.4,1.8l-0.1,0.9l-0.2,1l-0.3,1l-0.3,0.9l-0.2,1l-0.3,1l-0.2,0.9l-0.3,1L262,234l-0.3,1l-0.2,1l-0.3,1.4
	L261,239l-0.4,2.1l-0.2,0.6l-0.2,0.4l-0.9,1.7l-0.5,0.9l-0.6,0.9l-0.5,0.8l-0.7,0.7l-0.6,0.8l-1.3,1.4l-1.6,1l-0.8,0.5l-1,0.5
	l-0.9,0.2h-0.7l-1,0.1l-0.9,0.1l-0.7-0.2l-0.2-0.5l1.1-2.5l1.1-2.8l0.4-1l0.3-1l0.2-0.9l0.2-1l0.3-1l0.5-2l0.2-1l0.2-0.9l0.1-1
	l0.1-1.2l0.1-1v-1l0.1-1l-0.1-1v-3.1l-0.4-2.1l-0.2-0.9l-0.2-1l-0.3-1l-0.3-0.9l-0.4-0.9l-0.6-1l-1.2-1.4l-0.6-0.8l-0.7-0.6
	l-0.8-0.5l-1-0.5l-0.8-0.3l-0.8-0.2l-0.8-0.3l-0.9-0.2l-1-0.1h-1.3l-1.2,0.1l-1,0.1l-1.3,0.5l-1.3,0.6l-1.2,0.6l-0.9,0.5l-1.1,0.8
	l-1,0.7l-0.8,0.8l-1,0.8l-0.9,0.9l-0.5,0.5l-0.2-0.1l0.2-0.7l0.3-1.5v-1.7l-0.9-1.3l-1.4-0.7l-1.5-0.1l-1.5,0.1l-1.2,0.5l-0.7,0.7
	l-0.8,2.8l-0.2,1l-0.3,0.9l-0.3,1l-0.3,1.2l-0.4,1.8l-0.1,0.9l-0.2,1l-0.3,1l-0.3,0.9l-0.2,1l-0.3,1l-0.2,0.9l-0.3,1l-0.3,0.9
	l-0.3,1l-0.2,1l-0.3,1.4l-0.3,1.5l-0.4,2.1l-0.2,0.8l-0.5,0.9l-0.4,0.9l-1.5,2.8l-0.2,0.7l-0.6,0.9l-0.5,0.9l-1,1.6l-1.2,1.6
	l-1.2,1.5l-0.7,0.8l-1.3,1.2l-0.9,0.6l-1.2,0.5l-1.4-0.1l-1-0.6l-0.5-0.9l-0.1-1.5l0.1-1.7l0.3-2l0.3-1.7l0.2-1.3l0.2-1.2l0.3-1.4
	l0.4-2l0.2-1l0.3-1.4l0.1-0.7l0.2-1.2l0.6-2.1l0.2-0.9l0.3-1l0.4-2.1l0.3-1l0.2-1l0.3-0.9l-0.1-1l-0.4-0.7l-0.8-0.6l-1.5-0.9
	l-0.9-0.2l-0.9-0.1l-0.9,0.2l-1,0.6l-0.6,1l-0.3,1.2l-0.4,1.3l-0.6,2.3l-0.4,1.3l-0.3,1l-0.3,0.9l-0.4,1l-0.2,0.8l-0.4,1l-1.2,3
	l-0.4,0.7l-0.7,1.5l-0.6,1.3l-1.4,2.8l-0.5,0.8l-1.1,1.7l-0.5,0.8l-0.6,0.8l-0.5,0.8l-0.6,0.8l-0.7,0.7l-0.6,0.7l-1.3,1.4l-1.5,0.9
	l-0.9,0.3l-1.3,0.1l-1.2-0.2l-0.9-0.5l-0.6-0.7l-0.5-0.9l-0.4-0.9l-0.3-1l-0.1-1.2v-3.2l0.3-3.1l0.3-1.2l0.6-3.1l0.4-0.9l0.4-1
	l0.6-2.1l0.5-0.9l1.2-2.8l0.5-0.9l0.5-0.8l1.2-1.6l0.5-0.8l0.6-0.8l0.7-0.9l0.4-0.5l0.8-0.8l0.7-0.7l0.7-0.6l0.8-0.6l0.7-0.6l1-0.7
	l1-0.6l2.4-1l1.3-0.3l1-0.1l0.7-0.1h1.9l1,0.2l1,0.3l1.6,0.5l0.8,0.2l0.9,0.5l0.8,0.5l0.7,0.3l0.8,0.6l0.9,0.6l0.8,0.7l0.8,0.3
	l0.8-0.1l1.1-0.8l1.1-1.4l0.4-1.6l-0.2-1.3l-0.6-0.8l-0.7-0.7l-0.7-0.6l-0.7-0.7l-3.9-2.1l-1.1-0.3l-0.9-0.2l-2.1-0.5l-2.2-0.2
	l-1.9-0.1h-1.2l-0.9,0.1l-2.4,0.2l-1,0.3l-1.2,0.3l-1.2,0.5l-1,0.6l-1.1,0.7l-1.2,0.6l-0.9,0.5l-0.7,0.6l-0.8,0.6l-1.3,1.3l-1.1,0.9
	l-0.9,1l-1.3,1.4l-0.7,0.9l-0.4,0.5l-1.3,1.7l-0.6,0.8l-1,1.6l-0.5,0.9l-0.5,0.8l-0.5,0.9l-2.3,5.5l-0.2,0.7l-0.4,0.9l-0.2,0.7
	l-0.5,1.2l-0.6,1.2l-1.5,3.2l-0.6,1.3l-0.4,0.7l-0.5,1l-0.6,0.8l-1,1.7l-0.6,0.9l-1.2,1.6l-0.9,0.9l-1,1.2l-0.9,0.8l-0.8,0.7
	l-0.9,0.5L159,258l-0.9-0.1l-0.8-0.3l-0.4-0.9l-0.1-1.2l0.1-0.7l0.1-1.3l0.1-0.9l0.3-1.3l0.4-1.5l0.3-1.4l0.2-0.7l0.4-1.7l0.3-1.6
	l0.1-0.7l0.3-1.2l0.4-2.1l0.3-1l0.3-1.5l1-3.5l0.4-2.1l0.1-1l0.2-0.9l0.2-1.2l0.2-1.4l0.2-1.5v-2.1l0.1-1v-0.9l-0.2-1l-0.3-1
	l-0.3-0.9l-0.4-1l-0.5-0.8l-0.7-0.7l-0.7-0.6l-2.1-1.3l-1-0.3l-0.9-0.1h-2.2l-1.2,0.1l-1,0.3l-1.2,0.6l-1.1,0.7l-0.7,0.6l-1.5,1.2
	l-1,0.9l-1.3,1.2l-0.9,1l-0.6,0.9l-0.7,0.9l-0.5,0.5l-0.9,1.2l-0.8,1.2l-0.7,0.9l-0.6,0.8l-0.2-0.2l0.1-1l0.3-1l0.3-0.9l0.4-1.2
	l0.4-1.4l0.3-1.4l0.3-1.2l0.3-1.3l0.6-2.3l0.4-1.3l0.3-1l0.3-1.2l0.1-0.7l0.3-1.2l0.3-1l0.3-1.2l0.3-0.6l0.4-1.4l0.1-0.6l0.4-1.4
	l0.2-0.6l0.4-1.3l0.7-2.4l0.3-1.4l0.3-1.2l0.4-1.3l0.8-2.3l0.5-1.5l0.1-0.6l0.4-1.2l0.3-1l0.4-0.9l0.3-0.9l0.2-1l-0.3-0.9l-0.7-0.7
	l-0.8-0.3l-1-0.2l-1.7-0.2l-1-0.1l-0.9,0.1l-0.8,0.6l-0.7,1.2l-0.5,1.4l-0.4,1l-0.3,0.9l-0.6,2.1l-0.4,0.9l-0.3,0.9l-0.3,1l-0.4,1.2
	l-0.3,0.6l-0.4,1.4l-0.1,0.7l-0.4,1.4l-0.1,0.6l-0.4,1.4l-0.3,0.6l-0.4,1.4l-0.1,0.6l-0.4,1.4l-0.6,1.7l-0.3,1l-0.3,1.2l-0.2,0.7
	l-0.3,1.2l-0.3,1l-0.4,1.2l-0.1,0.6l-0.3,1.2l-0.3,1l-0.3,1.3l-0.2,0.6l-0.4,2.3l-0.3,1.5l-0.7,2.4l-0.3,0.9l-0.2,1l-0.3,1.3
	l-0.6,1.7l-0.3,1.2l-0.3,1.5l-0.3,1.4l-0.6,3.1l-0.3,1.2l-0.1,0.7l-0.3,1.4l-0.2,0.7l-0.3,1.2l-0.1,1l-0.2,1l-0.3,1.2l-0.2,0.7
	l-0.6,2.3l-0.1,0.7l-0.3,1.4l-0.2,0.7l-0.3,1.4l-0.3,2.1l-0.2,0.6l-0.3,1.2l-0.1,1.2l-0.6,3.8l0.1,1.6l0.9,1l1.2,0.6l1,0.2l1.3-0.2
	l1.4-0.3l1.3-0.5l0.7-0.6l0.4-0.8l0.4-2.1l0.2-1.3l0.4-3l0.2-0.7l0.2-1.3l0.2-1l0.3-1.2l0.2-0.6l0.3-1.4l0.1-0.7l0.2-1.3l0.2-1
	l0.3-1.5l0.3-1.4l0.6-2.3l0.2-0.6l0.3-1.3l0.3-0.9l0.4-1l0.5-0.8l0.6-1l0.3-0.7l0.6-1l0.5-0.8l0.7-1l0.4-0.6l0.7-1l0.8-0.8l0.4-0.6
	l0.9-0.9l0.5-0.6l0.8-0.8l0.6-0.6l0.7-0.7l1.7-1.4l0.6-0.3l0.9-0.6l0.9-0.3l0.9-0.2l0.9-0.1l0.9,0.2l0.7,0.7l0.5,0.8l0.3,1l0.2,1
	l0.1,1.2v1L154,230l-0.5,2l-0.3,1.2l-0.2,0.7l-0.3,1.2l-0.2,1l-0.6,2.8l-0.3,1.2l-0.2,1.4l-0.3,1.5l-0.4,2.1l-0.3,1l-0.3,1.5
	l-0.3,1.4l-0.3,1l-0.2,0.9l-0.2,1.2l-0.2,1.5l-0.2,1.7v2.2l0.1,1.4l0.4,1l0.5,1.4l0.9,1.4l1,1l0.9,0.5l1.3,0.2l1.5,0.2l1.3-0.1
	l1-0.1l0.9-0.2l1.7-0.7l1.5-0.9l0.7-0.6l0.8-0.7l0.6-0.8l1.3-1.4l0.7-0.9l0.4-0.6l1.3-1.7l0.6-0.8l1.1-1.8l0.4-0.6l0.6-1l0.1-0.1
	l0,0.8l0.2,1.5l0.1,1.2l0.3,1.5l0.6,1.7l0.6,1.3l0.5,0.9l0.5,0.8l1.3,1.4l0.7,0.6l0.8,0.3l0.9,0.3l1.2,0.3l1.2,0.2l1,0.1l1.7-0.2
	l1.3-0.3l1.5-0.6l1.4-0.8l1.1-0.8l0.8-0.6l0.7-0.6l0.7-0.7l0.6-0.7l0.7-0.7l0.5-0.8l0.6-0.8l0.5-0.8l0.6-0.8l1-1.6l1-1.8l0.5-0.8
	l0.3,0.2l-0.1,1.4l-0.1,1.5v1.2l0.1,1.5l0.3,1.4l0.3,1l0.7,1.3l0.7,1.2l0.7,0.7l0.7,0.6l0.9,0.3l1.2,0.3l1.2,0.1h1l0.9-0.2l0.9-0.3
	l1.2-0.6l1.1-0.6l0.9-0.6l0.8-0.6l2.7-2.8l0.6-0.7l0.6-0.8l1.1-1.6l0.1-0.2l-0.1,0.4l-0.3,0.9l-0.6,3.1l-0.2,0.9l-0.2,1l-0.3,1
	l-0.3,1.5l-0.2,1.4l-0.2,1.2l-0.6,2.8l-0.3,1.2l-0.2,1l-0.1,0.9l-0.1,1l-1,5.2l-0.2,1.4l-0.2,1.5l-0.2,1.2l-0.2,1.5l-0.3,1.4l-0.2,1
	l-0.1,1l-0.8,4.2l-0.1,0.9l-0.2,1l-0.1,1l0.1,0.9l0.5,0.8l0.9,0.5l1.1,0.2l0.6,0.1h1.1l1.1-0.1l0.9-0.1l0.7-0.3l0.7-0.6l0.3-0.9
	l0.2-1l0.2-1.4l0.2-1.5l0.2-1.2l0.1-1l0.3-0.9l0.1-1l0.2-1.2l0.2-1.4l0.2-1.5l0.3-1.2l0.2-1.4l0.2-1.5l0.1-1l0.8-4.2l0.3-1l0.1-1
	l0.2-1l0.1-1l0.6-2.8l0.3-1.2l0.2-1l0.1-0.9l0.4-2.1l0.3-0.9l0.3-0.7l0.5-0.1l0.6,0.3l0.6,0.8l0.7,0.7l0.7,0.6l0.9,0.5l0.8,0.5
	l0.9,0.5l0.8,0.3l0.9,0.2l0.9,0.1l1.1,0.1h3.4l1.7-0.5l1-0.3l0.6-0.2l1-0.3l0.9-0.5l0.8-0.5l0.9-0.6l0.5-0.3l0.9-0.7l0.8-0.7
	l0.7-0.6l0.7-0.7l0.7-0.8l0.6-0.8l0.7-0.6l0.8-0.2h0.8l0.9,0.3l0.9,0.2l0.9,0.1h1l0.9-0.1l1-0.3l1.3-0.3l1.1-0.5l0.9-0.3l0.8-0.6
	l0.7-0.5l0.9-0.8l0.9-0.7l0.7-0.7l-0.1,0.2l-0.4,2l-0.3,1l-0.3,0.9l-0.6,3.1l-0.2,0.9l-0.2,1l-0.3,1l-0.3,1.5l-0.2,1.4l-0.2,1.2
	l-0.6,2.8l-0.3,1.2l-0.2,1l-0.1,0.9l-0.1,1l-1,5.2l-0.2,1.4l-0.2,1.5l-0.2,1.2l-0.2,1.5l-0.3,1.4l-0.2,1l-0.1,1l-0.8,4.2l-0.1,0.9
	l-0.2,1l-0.1,1l0.1,0.9l0.5,0.8l0.9,0.5l1.1,0.2l0.6,0.1h1.1l1.1-0.1l0.9-0.1l0.7-0.3l0.7-0.6l0.3-0.9l0.2-1l0.2-1.4l0.2-1.5
	l0.2-1.2l0.1-1l0.3-0.9l0.1-1l0.2-1.2l0.2-1.4l0.2-1.5l0.3-1.2l0.2-1.4l0.2-1.5l0.1-1l0.8-4.2l0.3-1l0.1-1l0.2-1l0.1-1l0.6-2.8
	l0.3-1.2l0.2-1l0.1-0.9l0.4-2.1l0.3-0.9l0.3-0.7l0.5-0.1l0.6,0.3l0.6,0.8l0.7,0.7l0.7,0.6l0.9,0.5l0.8,0.5l0.9,0.5l0.8,0.3l0.9,0.2
	l0.9,0.1l1.1,0.1h3.4l1.7-0.5l1-0.3l0.6-0.2l1-0.3l0.9-0.5l0.8-0.5l0.9-0.6l0.5-0.3l0.9-0.7l0.8-0.7l0.7-0.6l0.7-0.7l0.7-0.8
	l0.6-0.8l0.7-0.6l0.8-0.2h0.8l0.9,0.3l0.9,0.2l0.9,0.1h1l0.9-0.1l1-0.3l1.3-0.3l1.1-0.5l0.9-0.3l0.8-0.6l0.7-0.5l0.9-0.8l0.9-0.7
	l0.8-0.7l1.4-1.7l-0.1,1.1l-0.1,1.4v1.2l0.1,1.5v1.4l0.1,1.2l0.4,1.4l0.5,1.3l0.5,0.9l0.7,0.7l0.8,0.7l1.1,0.6l1,0.5l0.9,0.2
	l1.1,0.2l0.9,0.1l1.3-0.2l1.2-0.1l1.7-0.5l0.9-0.3l1.2-0.7l1-0.7l0.9-0.5l0.7-0.6l0.8-0.7l0.9-1l1-0.9l1.2-1.4l0.7-0.9l0.6-0.8
	l1-1.6l0.6-0.8l0.5-0.8l0.6-0.8l0.5-0.8h0.1l-0.2,1l-0.2,1.2l-0.8,2.8l-0.2,1l-0.3,1l-0.5,2l-0.3,1l-0.3,0.9l-0.3,1l-0.2,1l-0.2,0.9
	l-0.3,1l-0.5,0.9l-0.9,0.9l-1.1,0.6l-0.9,0.6l-1.2,0.6l-1.3,0.7l-0.6,0.2l-2.5,1.4l-0.5,0.3l-1,0.6l-0.8,0.6l-2.6,2.2l-0.9,0.7
	l-0.8,0.6l-1.7,2.1l-0.7,0.9l-0.7,1.3l-0.6,1.3l-0.4,1l-0.3,0.9l-0.2,1l-0.2,0.9l-0.2,1l-0.1,1v1l0.2,1.4l0.3,1.4l0.5,1.2l0.8,1.2
	l1.1,1.3l1,0.9l1,0.5l1.2,0.5l1.5,0.3h2.6l1.2-0.2l1.3-0.3l1.2-0.5l0.9-0.6l1.1-0.7l1-0.8l0.8-0.7l0.7-0.7l0.6-0.7l1.2-1.6l0.5-0.8
	l0.8-1.8l0.5-1l0.2-0.7l0.5-1l0.3-0.9l0.4-1l0.5-1.4l0.4-1.4l0.2-1.2l0.3-1l0.3-1.2l0.9-3.1l0.2-1l0.6-2.1l0.6-0.7l0.7-0.7l1.1-0.6
	l1.7-1l2.1-1.6l0.6-0.5l1.6-1.3l0.8-0.8l0.7-0.7l1.3-1.3l0.7-0.8l0.5-0.7l1.3-1.5l0.7-0.7l0.6-0.9l0.8-1.2l0.7-1l0.6-0.9l0.5-0.9
	l0.5-1l0.4-0.6l1-1.8l0.4-1l0.5-1.3l0.6-1.3l0.6-1l0.6-1.3l0.9-2.1l0.4-1.2l0.4-0.9L354.2,238.1z M244.1,234.9l-0.2,1l-0.2,0.9
	l-0.3,1l-0.2,1l-0.2,0.9l-0.6,2.1l-0.3,0.9l-0.4,1l-0.6,1l-1,0.5l-1.3,0.3l-1.2,0.5l-0.7,0.8l-0.4,0.8l-0.2,1l0.1,0.9l0.3,1l0.5,1.2
	l0.2,1.2l-0.4,0.8l-0.7,0.7l-0.8,0.6l-1.4,1.2l-0.8,0.5l-0.9,0.2l-0.8,0.2l-0.9,0.2l-0.9,0.1l-1,0.1l-1.7-0.2l-1.2-0.3l-1.3-0.5
	l-0.9-0.5l-0.7-0.6l-0.7-0.7l-0.7-0.8l-0.5-0.7l-0.2-0.9l0.1-1l0.3-1.5l0.5-1.8l0.4-1.8l0.2-1.5l0.3-1l0.3-1.5l0.4-1.7l0.3-1.5
	l0.2-1.2l0.3-1.4l0.7-2.4l0.4-1.5l0.5-1.7l0.5-1.3l0.6-0.9l1.3-1.6l0.7-0.7l0.8-0.6l0.7-0.7l0.9-0.6l1.7-1l0.6-0.2l1.9-0.9l1-0.2
	l0.7-0.2l0.9-0.1h1l0.8,0.1l0.9,0.2l0.9,0.5l0.9,0.9l0.8,1l0.5,1l0.2,1l0.2,0.9l0.1,1v1l0.1,1.2L244.1,234.9z M288.9,234.9l-0.2,1
	l-0.2,0.9l-0.3,1l-0.2,1l-0.2,0.9l-0.6,2.1l-0.3,0.9l-0.4,1l-0.6,1l-1,0.5l-1.3,0.3l-1.2,0.5l-0.7,0.8l-0.4,0.8l-0.2,1l0.1,0.9
	l0.3,1l0.5,1.2l0.2,1.2l-0.4,0.8l-0.7,0.7l-0.8,0.6l-1.4,1.2l-0.8,0.5l-0.9,0.2l-0.8,0.2l-0.9,0.2l-0.9,0.1l-1,0.1l-1.7-0.2
	l-1.2-0.3l-1.3-0.5l-0.9-0.5l-0.7-0.6l-0.7-0.7l-0.7-0.8l-0.5-0.7l-0.2-0.9l0.1-1l0.3-1.5l0.5-1.8l0.4-1.8l0.2-1.5l0.3-1l0.3-1.5
	l0.4-1.7l0.3-1.5l0.2-1.2l0.3-1.4l0.7-2.4l0.4-1.5l0.5-1.7l0.5-1.3l0.6-0.9l1.3-1.6l0.7-0.7l0.8-0.6l0.7-0.7l0.9-0.6l1.7-1l0.6-0.2
	l1.9-0.9l1-0.2l0.7-0.2l0.9-0.1h1l0.8,0.1l0.9,0.2l0.9,0.5l0.9,0.9l0.8,1l0.5,1l0.2,1l0.2,0.9l0.1,1v1l0.1,1.2L288.9,234.9z
	 M322.8,276.1l-0.4,1.8l-0.4,1.7l-0.4,1.4l-0.3,1.2L321,283l-0.4,1l-0.5,1.2l-0.5,0.9l-0.6,0.8l-0.5,0.9l-0.7,0.9l-1.5,1.2l-1,0.3
	h-1.3l-1.3-0.7l-0.9-1l-0.2-1l0.1-1.4l0.5-1.7l0.9-1.6l1-1.5l1.5-1.8l0.8-0.7l0.7-0.7l2-1.4l0.7-0.6l0.8-0.7l0.8-0.6l1-0.5l0.5,0.3
	L322.8,276.1z M144.1,360.6l0.1,0.9v1l-0.3,2.6l-0.2,1l-0.3,1.6l-0.4,1.7l-0.3,0.9l-0.2,0.8l-0.6,1.7l-0.4,0.8l-0.5,0.7l-0.5,0.9
	l-0.3,0.8l-0.4,0.7l-0.8,1.5l-0.5,0.9l-1.5,2.5l-1.1,1.8l-0.5,0.7l-0.6,0.8l-0.5,0.7l-0.6,0.8l-0.7,1l-0.8,0.9l-0.7,0.7l-2.3,2.7
	l-0.7,0.7l-0.5,0.4l-0.7,0.8l-0.5,0.7l-0.6,0.7L126,395l-0.8,0.7l-0.4,0.3l-0.8,0.7l-2,1.7l-0.7,0.5l-0.7,0.6l-0.7,0.5l-0.8,0.5
	l-0.8,0.6l-2,1.4l-0.8,0.7l-0.2,0.4l0.5,0.2h1.8l1-0.1l0.7-0.1l1.1-0.1h3.7l0.7-0.1h1.1l0.9,0.1h1.6l1.1-0.1h2.7l0.9,0.1l1.8-0.1
	h1.7l2.8,0.3l1.1,0.3l0.8,0.8l0.2,0.8l-0.1,0.9l-0.3,0.9l-0.8,1l-1.2,0.8l-1.2,0.4h-0.9l-0.9-0.1h-1l-3.1,0.1h-1.9l-0.9-0.1
	l-1.2,0.1l-2,0.2H125l-1.7-0.1l-2.5,0.1l-0.7-0.1l-1.1,0.1h-0.8l-0.9,0.1h-1l-2.4-0.1h-1.8l-0.9-0.1l-2.6-0.2l-0.9-0.2l-0.8-0.4
	l-0.7-0.6l-0.4-0.8l-0.2-0.9l0.1-0.9l0.2-1l0.3-0.8l0.4-0.9l0.6-0.7l0.7-0.6l0.8-0.5l0.8-0.4l0.7-0.5l0.8-0.5l0.7-0.6l0.8-0.6
	l0.4-0.4l0.8-0.7l0.7-0.5l0.8-0.5l0.7-0.5l0.7-0.6l0.6-0.6l0.6-0.7l0.6-0.6l0.7-0.6l0.6-0.6l1.2-1.3l0.7-0.6l0.6-0.7l0.5-0.6
	l0.6-0.7l0.6-0.6l0.6-0.7l1-1.3l1.2-1.3l0.5-0.8l1-1.3l0.6-0.8l1-1.3l0.6-0.8l0.7-1.1l0.8-1.3l0.6-1.1l0.5-1l1.2-2.1l0.5-0.8
	l0.4-0.8l0.3-0.9l0.3-0.8l0.3-1l0.2-0.6l0.3-1l0.4-1.7l0.2-1.3l0.2-1.2l0.1-1v-1.7l-0.2-1.2l-0.3-1.3l-0.3-0.9l-0.4-0.8l-0.4-0.9
	l-0.5-0.7l-0.6-0.6l-0.8-0.6l-0.7-0.4l-0.8-0.4l-0.9-0.3l-0.9-0.2h-0.9l-1.3,0.1l-1.5,0.3l-1.5,0.6l-1.4,0.8l-1.3,1l-0.9,0.9
	l-0.6,0.8l-0.6,1.2l-0.7,1.4l-0.5,1.6l-0.2,1.5l-0.1,1.6l-0.1,1.3l-0.5,0.8l-0.7,0.6l-0.8,0.4l-0.9,0.3l-0.9,0.1l-1-0.1l-0.8-0.3
	l-0.8-0.6l-0.3-0.9l-0.1-1.3l0.1-1.3l0.1-1l0.1-1.2l0.1-1.3l0.3-0.9l0.3-0.8l0.4-0.8l0.3-0.8l0.3-0.9l0.3-0.8l0.5-0.7l0.6-0.8
	l0.6-0.7l0.8-1l1.1-1.1l1-0.8l0.9-0.6l2.8-1.6l0.8-0.4l1-0.3l1.2-0.2l1.2-0.3l1-0.1l2.4-0.2h1.8l1,0.2l0.9,0.1l0.9,0.2l0.8,0.3
	l0.9,0.3l0.8,0.4l1.5,1l0.7,0.5l0.8,0.6l1.3,1.3l0.5,0.7l0.6,0.8l0.5,0.8l0.3,0.8l0.9,2.6l0.2,0.9l0.2,1.7L144.1,360.6z
	 M188.6,360.9l-0.1-0.9v-0.8l-0.4-1.7l-0.2-0.8l-0.6-1.7l-0.8-1.5l-0.5-0.8l-0.4-0.8l-0.5-0.8l-1.2-1.3l-0.7-0.6l-0.8-0.5l-0.7-0.5
	l-0.8-0.5l-0.9-0.4l-0.8-0.2l-0.9-0.2l-0.9-0.1l-0.9-0.2l-0.8-0.1h-2.9l-0.8,0.1l-1,0.1l-0.6,0.1l-1.1,0.2l-0.8,0.3l-2.3,1l-1,0.5
	l-1.5,1l-0.7,0.5l-0.7,0.6l-0.7,0.7l-0.7,0.6l-0.6,0.6l-0.8,0.7l-0.6,0.7l-1,1.3l-0.6,0.7l-0.5,0.7l-0.6,0.8l-0.5,0.7l-0.5,0.8
	l-0.5,0.7l-0.5,0.8l-0.4,0.9l-0.4,0.8l-0.5,0.7l-0.4,0.8l-0.4,0.9l-0.3,0.9l-0.3,0.8l-0.3,0.9l-0.8,1.5l-0.6,1.7l-0.4,1.7l-0.3,0.8
	l-0.6,1.7l-0.2,0.9l-0.1,0.9l-0.2,0.9l-0.3,0.8l-0.4,1.7l-0.1,0.9l-0.2,1.1v0.6l-0.1,1.1l-0.2,1.3l-0.1,1.2l-0.2,0.9l-0.1,0.9
	l-0.1,1v2.4l-0.1,0.9v0.9l0.1,1v1.3l0.1,1.2l0.1,1l0.1,0.9l0.1,0.8l0.2,0.9l0.3,0.9l0.5,1.2l0.4,1.1l0.4,0.9l0.8,1.5l0.5,0.8
	l0.5,0.7l1.3,1.3l0.9,0.8l1,0.7l0.9,0.3l1.7,0.7l1.2,0.3l1.2,0.2l1.3-0.1l2.9-0.2l1.2-0.2l1-0.3l1.5-0.5l0.8-0.3l0.9-0.3l0.7-0.3
	l0.8-0.5l2.3-1.5l1.3-1.2l1.2-1.3l1.2-1.3l0.8-1l1.4-1.8l0.5-0.7l0.6-0.7l0.5-0.8l0.4-0.8l0.5-0.8l0.4-0.8l0.3-0.9l1.2-2.3l0.3-0.9
	l0.3-0.8l0.3-0.9l0.4-0.8l0.3-0.9l0.4-0.8l0.3-0.9l0.3-0.8l0.3-0.9l0.2-0.9l0.2-0.8l0.6-1.7l0.4-1.7l0.3-1l0.1-0.6l0.3-1l0.2-1.7
	l0.1-1l0.1-0.9l0.2-0.8l0.2-0.9l0.1-0.9l0.2-0.9v-1l0.1-0.9v-0.9l0.1-0.9v-0.9l0.1-0.9v-1.8l-0.1-0.9L188.6,360.9z M181.3,364.4v0.9
	l-0.3,2.6l-0.2,0.9l-0.1,0.9l-0.1,0.8l-0.1,0.9l-0.4,1.7l-0.1,0.9l-0.2,1.2l-0.2,1.3l-0.2,1l-0.4,1.2l-0.2,1.2l-0.4,1.7l-0.3,1
	l-1,2.9l-0.4,1.3l-0.5,1.3l-0.4,0.9l-0.5,1.2l-0.4,1.2l-0.4,0.9l-0.6,1.2l-1.9,3.4l-0.4,0.5l-0.5,0.9l-0.5,0.7l-0.7,0.8l-0.4,0.4
	l-0.7,0.8l-0.6,0.6l-0.7,0.6l-1.3,1l-1.5,0.8l-1.2,0.5l-1.2,0.4l-0.9,0.1h-1l-0.8-0.1l-0.9-0.2l-0.7-0.4l-1.3-1.2l-0.5-0.7l-0.4-0.9
	l-0.8-2.3l-0.2-0.9l-0.2-1.3l-0.1-1.2v-1l-0.1-1.3l-0.1-1.2v-1l0.1-1.3l0.1-1.2v-1l0.2-1.2l0.1-1.3l0.2-1l0.1-0.9l0.2-1l0.2-0.6
	l0.2-1.1l0.4-1.7l0.1-0.9l0.2-0.8l0.2-0.9l0.6-1.7l0.2-0.8l0.3-0.9l0.2-0.9l0.7-1.6l0.6-1.7l0.3-0.8l0.3-0.9l0.3-0.8l0.4-0.9
	l0.3-0.8l0.3-0.9l0.4-0.8l1-1.5l1.3-2.3l0.5-0.7l0.5-0.8l0.6-0.7l0.7-0.6l1.7-2l0.7-0.5l1.5-1l0.9-0.3l0.8-0.3l0.9-0.2l1-0.1
	l1.7,0.2l1.2,0.4l1.1,0.5l0.8,0.6l0.6,0.7l0.5,0.8l0.6,1.1l0.7,2l0.2,0.9l0.2,1.7v0.8l0.1,0.9l0.1,1L181.3,364.4z M222.6,347.3
	l0.2,0.8l-0.2,0.9l-0.3,0.9l-0.2,0.9l-0.2,0.8l-0.3,0.9l-0.3,0.8l-0.2,0.9l-0.4,1.5l-0.3,0.8l-0.3,1l-0.7,2l-0.3,1l-0.2,1l-0.3,1.1
	l-0.2,0.8l-0.4,1.7l-0.3,1.2l-0.4,1.2l-0.3,1l-0.4,1.7l-0.3,1.2l-0.3,1.3l-0.2,0.9l-0.3,0.8l-0.3,1l-0.6,2.3l-0.1,1l-0.2,0.9
	l-0.2,0.8l-0.4,1.7l-0.2,0.8l-0.3,0.9l-0.2,0.8l-0.3,0.9l-0.2,0.9l-0.2,0.8l-0.2,1.1l-0.1,0.6l-0.4,1.3l-0.3,1.2l-0.2,1l-0.3,1.2
	l-0.4,1.7l-0.3,1.2l-0.2,1l-0.2,1.2l-0.3,1.2l-0.3,1l-0.3,0.8l-0.3,0.9l-0.4,1.7l-0.3,1.2l-0.4,1.3l-0.4,1.7l-0.6,1.5l-0.7,0.6
	l-1.7,0.4l-1.7-0.2l-0.9-0.2l-0.9-0.3l-0.7-0.6l-0.3-0.7l0.1-0.9l0.1-0.8l0.2-0.9l0.3-0.9l0.2-0.9l0.1-1l0.3-1.2l0.3-1.3l0.2-0.9
	l0.3-0.9l0.4-1.7l0.1-0.9l0.2-0.9l0.3-0.8l0.3-0.9l0.4-1.7l0.2-0.8l0.4-1.7l0.3-0.9l0.1-0.9l0.2-0.9l0.3-0.9l0.2-0.9l0.2-0.8
	l0.2-0.9l0.3-0.9l0.2-0.9l0.2-0.8l0.8-3.5l0.3-0.9l0.2-0.8l0.2-0.9l0.6-1.7l0.2-0.8l0.2-0.9l0.3-0.9l0.3-0.8l0.3-0.9l0.2-0.9
	l0.1-0.8l0.2-0.9l0.4-0.9l0.6-2.6l0.3-0.9l0.5-1.3l0.3-1.2l-0.2-0.2l-0.6,0.6l-0.7,0.8l-0.8,0.9l-0.8,1l-1.6,1.4l-0.9,0.9l-0.7,0.8
	l-0.9,0.8l-1,0.9l-0.6,0.3l-1,0.8l-1.3,0.9l-0.8,0.6l-1,0.6l-1.1,0.7l-0.8,0.5l-0.9,0.3h-0.9l-0.9-0.4l-0.7-0.7l-0.6-0.8l-0.4-0.9
	l-0.1-1l0.2-0.8l0.6-0.6l0.8-0.5l0.9-0.6l0.8-0.5l0.6-0.5l0.7-0.5l0.6-0.5l0.8-0.5l0.9-0.6l0.8-0.5l0.7-0.5l0.8-0.5l0.7-0.6l0.7-0.7
	l0.7-0.5l0.7-0.6l0.6-0.6l0.6-0.7l1.3-1.3l1.3-1.2l0.7-0.7l1.2-1.3l0.7-0.6l0.6-0.7l0.7-0.6l0.6-0.7l0.5-0.8l0.5-0.7l1-1.5l0.6-0.7
	l0.7-0.5l0.8-0.4l0.8-0.3l0.9-0.2l0.8,0.1l0.9,0.2l0.8,0.3l0.8,0.4L222.6,347.3z M266.6,362.4l-0.1-0.9l-0.1-1l-0.2-1.3l-0.3-1.2
	l-0.4-1.7l-0.3-0.9l-0.3-0.8l-0.3-0.9l-1-1.5l-1.5-1.9l-0.8-0.7l-0.5-0.4l-0.8-0.6l-0.6-0.5l-1.5-0.8l-0.8-0.3l-1.1-0.4l-0.8-0.2
	l-0.9-0.2l-1.7-0.2h-1l-2.4,0.2l-1,0.2l-1.2,0.2l-1.3,0.3l-0.9,0.3l-1,0.4l-0.6,0.3l-1.2,0.5l-1.3,0.7l-0.9,0.5l-2.3,1.7l-0.8,0.8
	l-0.5,0.7l-0.6,0.7l-0.6,0.6l-0.5,0.7l-0.6,0.7l-0.7,1.1l-0.8,1.3l-0.6,1.2l-0.4,1l-0.5,1.1l-0.4,1.2l-0.4,0.9l-0.6,1.5l-0.3,0.9
	l-0.1,0.8l-0.6,2.6v0.9l-0.2,1.7v1.8l0.2,1.7l0.2,0.9l0.1,1l0.4,1.7l0.2,0.8l0.4,0.9l0.3,0.8l0.4,0.9l0.5,0.7l0.6,0.8l0.6,0.7
	l0.5,0.7l1.3,1.2l0.8,0.6l0.7,0.5l0.8,0.4l0.9,0.4l1.7,0.6l0.9,0.2l1.7,0.2h1.8l0.9-0.1l1-0.1l0.9-0.2l0.9-0.3l1.7-0.5l0.9-0.3
	l0.9-0.4l0.8-0.4l0.9-0.6l0.8-0.6l0.6-0.5l0.7-0.6l1.2-1.3l0.6-0.8l0.5-0.5h0.1l-0.1,0.6l-0.2,0.9l-0.3,0.9l-0.2,0.8l-0.3,0.9
	l-0.2,0.8l-0.3,0.9l-0.3,1.2l-0.4,1.2l-0.4,1l-0.6,1.1l-0.5,1.1l-0.4,0.9l-0.8,1.5l-0.3,0.8l-0.4,0.9l-0.4,0.7l-0.5,0.7l-0.6,0.8
	l-0.5,0.7l-0.6,0.6l-0.6,0.7l-0.6,0.6l-0.7,0.6l-1.3,1l-0.8,0.5l-0.9,0.4l-1.2,0.4l-1.2,0.3h-1.8l-0.9-0.1h-0.7l-1-0.2l-1-0.3
	l-1.5-1l-0.6-0.7l-0.6-0.8l-0.4-0.9l-0.3-0.9l-0.2-0.9l-0.1-0.9l-0.2-1l-0.2-0.9l-0.1-0.9l-0.3-0.9l-0.6-0.6l-0.9-0.4l-0.9-0.1
	l-1,0.1l-0.9,0.2l-0.9,0.4l-0.6,0.8l-0.2,1.1v2.1l0.1,0.9l0.1,1l0.3,1.2l0.4,1.2l0.4,0.9l0.6,1.1l0.7,1.1l0.6,0.8l0.8,0.9l1,0.8
	l0.7,0.6l0.7,0.4l0.9,0.4l1.3,0.4l1.4,0.5l1.3,0.3l1,0.2l1.2,0.1h1.3l1.7-0.2l1-0.2l1.3-0.2l2-0.7l1.2-0.5l1.2-0.6l1.2-0.8l1-0.7
	l1.3-1.2l0.7-0.5l1.2-1.3l0.5-0.7l1.1-1.3l1.2-1.3l0.5-0.7l0.5-0.8l1.2-2.1l0.5-1l0.6-1.1l0.5-1.1l0.4-0.9l0.3-0.8l0.3-0.9l0.6-1.6
	l0.3-0.8l0.3-1l0.2-0.6l0.3-1l0.6-1.5l0.3-0.9l0.1-0.8l0.2-0.9l0.3-0.9l0.4-1.7l0.3-1.2l0.2-1.3l0.2-1.7l0.4-1.7l0.2-0.8l0.3-2.6
	v-1.6l0.1-1l0.2-1.7v-1l-0.2-1.7L266.6,362.4z M259.7,365.8l-0.1,1.3l-0.1,1l-0.1,0.9l-0.3,0.8l-0.6,1.7l-0.8,1.5l-0.3,0.8l-0.4,0.9
	l-1.2,2.1l-0.6,0.9l-0.5,0.7l-0.6,0.7l-0.7,0.6l-0.7,0.5l-0.7,0.6l-0.9,0.5l-1.1,0.5l-1.2,0.5l-0.9,0.3l-0.9,0.2l-0.8,0.2l-0.9,0.1
	l-1,0.1h-1.2l-1.3-0.1l-0.9-0.3l-1.1-0.6l-1.1-0.7l-0.6-0.6l-0.6-0.7l-0.5-1.2l-0.5-1.3l-0.3-1.2l-0.2-1.2l-0.1-1v-3.4l0.1-1.2
	l0.2-1.3l0.3-0.9l0.2-0.8l0.3-0.9l0.4-1.7l0.4-1.2l0.7-1.5l0.7-1.4l0.7-1.2l0.5-0.8l0.8-1l0.7-1l0.7-0.7l0.7-0.6l0.7-0.5l1-0.6
	l1.1-0.5l1-0.5l0.9-0.3l0.9-0.1l1.2-0.1h1.3l1,0.1l1.2,0.3l1.2,0.4l0.9,0.5l0.9,0.9l0.8,0.9l0.5,0.8l0.4,0.8l0.4,0.9l0.4,1.2
	l0.2,1.2l0.4,3.5V365.8z"/>
<path fill="#FCBE14" d="M325.1,401.8C325.1,401.7,325.1,401.7,325.1,401.8c-0.1-0.2-0.1-0.3-0.4-0.5c-0.1-0.1-0.4-0.1-2-0.2
	c-0.9,0-1.6,0-1.7,0c-0.1,0-1,0-2,0c-2.4,0-5.5-0.1-6.3-0.2l-0.7,0l0-4.2c0.1-5,0.1-16.4,0-19l0-1.9l0.2-0.1c0.6-0.2,1-0.4,1.4-0.8
	c0.5-0.5,0.7-0.8,0.9-1.4c0.4-1.2,0.3-1.1,0.3-5.2c0-4.5-0.1-6.6-0.4-8.1c-0.1-0.9-0.4-1.5-0.9-2.1c-0.7-0.8-1.6-1.2-3-1.4
	c-0.7-0.1-2.6,0-4.3,0.1c-0.5,0-1.5,0.1-2.2,0.1c-1.1,0-2.2,0.1-2.6,0.2l-0.2,0v-0.7c0-0.4,0-1,0-1.3l0-0.6l0.4-0.1
	c1-0.3,1.6-0.6,2.3-1.3c0.7-0.8,1-1.4,1.1-2.4c0.1-1.4-0.2-2.2-1.4-4.8c-0.7-1.4-1-2.2-1.2-3.3c-0.1-0.4-0.2-0.8-0.3-1
	c-0.1-0.3-0.5-0.6-0.6-0.6c0,0-0.1,0-0.1,0c0,0-0.2,0-0.4,0c-0.3,0-0.4,0.1-0.5,0.1c0,0-0.1,0-0.1,0c-0.2,0-0.5,0.4-1,1.3
	c-0.4,0.8-0.8,1.5-2.3,3.6c-0.2,0.3-0.6,1-0.8,1.5c-0.5,1-0.7,1.5-0.7,2.4c-0.2,1.6,0.3,2.8,1.4,3.7c0.4,0.3,1.2,0.7,1.5,0.8l0.2,0
	l0,1.2c0,0.7,0,1.3-0.1,1.4l0,0.2l-1.8,0c-2.4,0-3.8,0-4.7,0c-1.5-0.1-2.6-0.2-3-0.1c-1.4,0.3-2.6,1.2-3.1,2.6
	c-0.3,0.7-0.3,0.8-0.3,3.5c0,1.4-0.1,3.3-0.1,4.3c0,1.8,0,3.8,0.1,4.5c0.2,1,0.7,1.8,1.5,2.2c0.3,0.1,0.4,0.2,0.8,0.2l0.5,0v2.5
	c0,5.1-0.1,18.7-0.2,20.7l-0.1,2.1l-2,0c-1.1,0-2.6-0.1-3.5-0.1c-1.5,0-5.7-0.1-6.6,0c-0.3,0-0.5,0-0.5,0.1c0,0,0,0.1-0.1,0.1
	c-0.1,0-0.2,0.1-0.4,0.4c-0.2,0.2-0.2,0.6-0.2,2.5c0,1.8,0,2.4,0.1,2.5c0,0,0,0.1,0,0.1c0,0.1,0.2,0.3,0.4,0.4
	c0.2,0.1,0.3,0.1,1.5,0.1c0.8,0,1.4,0,1.5,0l0.1,0v1.2c0,1.5,0.1,2.5,0.2,2.7c0.1,0.2,0.4,0.5,0.6,0.6c0.1,0,0.1,0.1,0.2,0.1
	c0,0.1,1.7,0.1,20.9,0.8c10.4,0.4,19,0.7,19,0.7c0.1,0.1,0.8,0,1-0.2c0.2-0.1,0.3-0.3,0.3-0.4c0,0,0-0.1,0.1-0.1
	c0.1-0.1,0.1-0.2,0.1-2v-1.9l1.1,0c1.6,0.1,1.7,0.1,1.9-0.1c0.3-0.2,0.5-0.4,0.7-0.7c0.1-0.1,0.1-0.3,0.1-1.9
	C325.4,403,325.3,401.8,325.1,401.8z M298.9,351.9c-0.4-0.2-0.6-0.5-0.7-1c-0.1-0.3-0.1-0.4,0-0.7c0.2-1,0.5-1.8,1.4-3.1
	c0.3-0.5,0.7-1.1,0.9-1.3c0.2-0.3,0.3-0.4,0.3-0.4c0,0,0.1,0.2,0.2,0.5c0.3,0.6,0.3,0.7,0.8,1.8c0.7,1.5,1,2.3,1,2.9
	c0,0.4-0.1,0.7-0.5,1c-0.2,0.2-0.7,0.5-0.9,0.5c0,0,0-0.3,0-0.8c0.1-1,0.1-1.3,0-1.6c-0.1-0.2-0.4-0.5-0.6-0.6c-0.1,0-0.6-0.1-0.9,0
	c-0.2,0-0.7,0.5-0.7,0.6c0,0,0,0.1,0,0.1c0,0-0.1,0.4-0.1,0.9C299,352,299,352,298.9,351.9z M288.3,371.9c-0.2-0.7-0.3-2.1-0.2-7.2
	c0-2.9,0.1-3.2,0.2-3.6c0.1-0.6,0.4-0.9,0.7-1.2c0.4-0.2,0.7-0.3,1.2-0.4c0.2,0,0.5-0.1,0.7-0.1c0.1,0,0.3,0,0.3,0c0,0,0.3,0,0.5,0
	c0.9,0.1,1.2,0.1,2.4,0.2c1,0.1,1.3,0.1,2,0.1c0.4,0,1.6,0,2.6-0.1c1.1,0,2.4-0.1,3.3-0.2c0.8-0.1,2.1-0.2,2.9-0.2
	c0.8,0,1.7-0.1,2.1-0.1c1.3-0.1,2.9,0,3.4,0c1.3,0.2,1.6,0.7,1.8,3.4c0.2,1.9,0.2,8.3,0.1,9.1c-0.1,0.7-0.3,1.3-0.4,1.5
	c-0.2,0.3-0.3,0.3-0.4-0.1c-0.2-0.6-0.2-1.7-0.3-4c-0.1-4-0.3-5.1-1-5.9c-0.5-0.6-1.2-0.8-2.1-0.8c-1.1,0-1.9,0.5-2.5,1.5
	c-0.6,1-0.7,1.6-0.8,5c0,2.3-0.1,3-0.4,3.2c-0.2,0.1-0.3-0.7-0.4-2.3c-0.1-2.3-0.3-4-0.5-4.7c-0.2-0.9-1-1.8-1.8-2.2
	c-0.4-0.2-0.5-0.2-0.9-0.2c-0.4,0-0.6,0-0.8,0.1c-0.7,0.2-1.5,0.8-1.9,1.4c-0.2,0.3-0.6,1.2-0.7,1.6c-0.1,0.5-0.3,1.4-0.3,2.2
	c-0.2,2.9-0.4,4.7-0.6,5.5c-0.1,0.3-0.2,0.5-0.2,0.5c-0.1-0.1-0.2-0.6-0.3-1.1c-0.1-0.7-0.2-2.3-0.3-4.1c-0.1-2.9-0.3-4-0.7-4.7
	c-0.2-0.3-0.7-0.8-1.1-1c-0.4-0.2-0.4-0.2-1-0.2h-0.6l-0.4,0.2c-0.5,0.3-1,0.7-1.3,1.1c-0.3,0.4-0.5,1.1-0.7,1.6
	c0,0.2-0.2,1.1-0.2,2c-0.2,2.8-0.3,3.4-0.6,3.9C288.7,372.2,288.4,372.2,288.3,371.9z M309.7,395.7l0,5.1l-1,0
	c-0.6,0-2.1-0.1-3.5-0.2c-3-0.2-4.1-0.3-5.8-0.3c-1.8,0-3.5-0.1-5.5-0.2c-0.9,0-1.9-0.1-2.3-0.1c-0.3,0-0.6,0-0.7-0.1c0,0,0-0.4,0-1
	c0-0.5,0.1-4.9,0.1-9.6c0-4.8,0.1-10.4,0.1-12.5l0-3.8l0.1-0.2c0.4-0.6,0.5-1.4,0.7-3c0.2-2.4,0.2-2.8,0.3-3.2
	c0.2-1,0.7-1.7,0.9-1.2c0.2,0.5,0.3,1.7,0.4,4.3c0.1,1.7,0.2,3.2,0.3,3.9c0.2,1.5,0.7,2.4,1.6,2.8c0.3,0.1,0.4,0.2,1,0.2
	c0.7,0,0.7,0,1.1-0.2c0.8-0.4,1.3-1.1,1.6-2.6c0.1-0.7,0.3-2.7,0.4-4.2c0.1-1.7,0.2-2.6,0.5-3.3c0.2-0.6,0.4-0.9,0.7-1
	c0.2-0.1,0.3-0.1,0.4-0.1c0.5,0.3,0.6,1.3,0.9,5.2c0.1,1.9,0.2,2.3,0.5,3c0.2,0.5,0.7,1,1.1,1.2c0.3,0.1,0.4,0.2,0.8,0.2
	c0.9,0,1.4-0.2,2-0.9c0.4-0.4,0.7-1,0.8-1.5c0.1-0.4,0.2-1.5,0.2-3c0-2.2,0.1-3.4,0.4-3.9c0.2-0.3,0.2-0.4,0.4-0.5
	c0.2-0.1,0.1-0.1,0.4,0c0.2,0,0.2,0.1,0.3,0.3c0.2,0.7,0.3,2.3,0.4,4.9c0.1,2.8,0.2,3.7,0.5,4.4c0.1,0.2,0.1,0.4,0.2,3.3
	C309.8,381.7,309.8,389.4,309.7,395.7z M319,408.5v1.1l-0.3,0c-0.2,0-8.6-0.3-18.7-0.7c-10.1-0.4-18.4-0.7-18.5-0.7l-0.1,0l0-1.1
	l0-1.1l0.4,0c0.2,0,6.7,0.3,14.4,0.6c7.7,0.3,15.9,0.6,18,0.7s4.2,0.2,4.4,0.2l0.4,0V408.5z M323,404.4v0.9l-0.4,0
	c-0.2,0-10.3-0.4-22.4-0.9c-12.1-0.5-22.1-0.9-22.3-0.9l-0.3,0v-0.7V402l0.6,0c0.3,0,0.7,0,0.9,0c0.2,0,1,0,1.8,0c0.8,0,1.9,0,2.5,0
	c0.6,0,2.5,0.1,4.2,0.1c1.7,0,3.7,0.1,4.3,0.1c2.8,0.2,4.9,0.3,6.7,0.3c2.6,0.1,3.7,0.1,6.6,0.3c2.9,0.2,2.6,0.2,14.4,0.5
	c1.2,0,2.4,0,2.8,0h0.6V404.4z M99.7,401.7c0-0.1-0.1-0.2-0.4-0.4c-0.1-0.1-0.4-0.1-2-0.2c-0.9,0-1.6,0-1.7,0c-0.1,0-1,0-2,0
	c-2.4,0-5.5-0.1-6.3-0.2l-0.7,0l0-4.2c0.1-5,0.1-16.4,0-19l0-1.9l0.2-0.1c0.6-0.2,1-0.4,1.4-0.8c0.5-0.5,0.7-0.8,0.9-1.4
	c0.4-1.2,0.3-1.1,0.3-5.2c0-4.5-0.1-6.6-0.4-8.1c-0.1-0.9-0.4-1.5-0.9-2.1c-0.7-0.8-1.6-1.2-3-1.4c-0.7-0.1-2.6,0-4.3,0.1
	c-0.5,0-1.5,0.1-2.2,0.1c-1.1,0-2.2,0.1-2.6,0.2l-0.2,0v-0.7c0-0.4,0-1,0-1.3l0-0.6l0.4-0.1c1-0.3,1.6-0.6,2.3-1.3
	c0.7-0.8,1-1.4,1.1-2.4c0.1-1.4-0.2-2.2-1.4-4.8c-0.7-1.4-1-2.2-1.2-3.3c-0.1-0.4-0.2-0.8-0.3-1c-0.1-0.3-0.5-0.6-0.6-0.6
	c0,0-0.1,0-0.1,0c0,0-0.2,0-0.4,0c-0.3,0-0.4,0.1-0.5,0.1s-0.1,0-0.1,0c-0.2,0-0.5,0.4-1,1.3c-0.4,0.8-0.8,1.5-2.3,3.6
	c-0.2,0.3-0.6,1-0.8,1.5c-0.5,1-0.7,1.5-0.7,2.4c-0.2,1.6,0.3,2.8,1.4,3.7c0.4,0.3,1.2,0.7,1.5,0.8l0.2,0l0,1.2c0,0.7,0,1.3-0.1,1.4
	l0,0.2l-1.8,0c-2.4,0-3.8,0-4.7,0c-1.5-0.1-2.6-0.2-3-0.1c-1.4,0.3-2.6,1.2-3.1,2.6c-0.3,0.7-0.3,0.8-0.3,3.5c0,1.4-0.1,3.3-0.1,4.3
	c0,1.8,0,3.8,0.1,4.5c0.2,1,0.7,1.8,1.5,2.2c0.3,0.1,0.4,0.2,0.8,0.2l0.5,0v2.5c0,5.1-0.1,18.7-0.2,20.7l-0.1,2.1l-2,0
	c-1.1,0-2.6-0.1-3.5-0.1c-1.5,0-5.7-0.1-6.6,0c-0.3,0-0.5,0-0.5,0.1c0,0,0,0.1-0.1,0.1c-0.1,0-0.2,0.1-0.4,0.4
	c-0.2,0.2-0.2,0.6-0.2,2.5c0,1.8,0,2.4,0.1,2.5c0,0,0,0.1,0,0.1c0,0.1,0.2,0.3,0.4,0.4c0.2,0.1,0.3,0.1,1.5,0.1c0.8,0,1.4,0,1.5,0
	l0.1,0v1.2c0,1.5,0.1,2.5,0.2,2.7c0.1,0.2,0.4,0.5,0.6,0.6c0.1,0,0.1,0.1,0.2,0.1c0,0.1,1.7,0.1,20.9,0.8c10.4,0.4,19,0.7,19,0.7
	c0.1,0.1,0.8,0,1-0.2c0.2-0.1,0.3-0.3,0.3-0.4c0,0,0-0.1,0.1-0.1c0.1-0.1,0.1-0.2,0.1-2v-1.9l1.1,0c1.6,0.1,1.7,0.1,1.9-0.1
	c0.3-0.2,0.5-0.4,0.7-0.7c0.1-0.1,0.1-0.3,0.1-1.9C100,403,99.9,401.8,99.7,401.7C99.7,401.7,99.7,401.7,99.7,401.7z M73.5,351.9
	c-0.4-0.2-0.6-0.5-0.7-1c-0.1-0.3-0.1-0.4,0-0.7c0.2-1,0.5-1.8,1.4-3.1c0.3-0.5,0.7-1.1,0.9-1.3c0.2-0.3,0.3-0.4,0.3-0.4
	c0,0,0.1,0.2,0.2,0.5c0.3,0.6,0.3,0.7,0.8,1.8c0.7,1.5,1,2.3,1,2.9c0,0.4-0.1,0.7-0.5,1c-0.2,0.2-0.7,0.5-0.9,0.5c0,0,0-0.3,0-0.8
	c0.1-1,0.1-1.3,0-1.6c-0.1-0.2-0.4-0.5-0.6-0.6c-0.1,0-0.6-0.1-0.9,0c-0.2,0-0.7,0.5-0.7,0.6c0,0,0,0.1,0,0.1c0,0-0.1,0.4-0.1,0.9
	C73.7,352,73.7,352,73.5,351.9z M62.9,371.9c-0.2-0.7-0.3-2.1-0.2-7.2c0-2.9,0.1-3.2,0.2-3.6c0.1-0.6,0.4-0.9,0.7-1.2
	c0.4-0.2,0.7-0.3,1.2-0.4c0.2,0,0.5-0.1,0.7-0.1c0.1,0,0.3,0,0.3,0c0,0,0.3,0,0.5,0c0.9,0.1,1.2,0.1,2.4,0.2c1,0.1,1.3,0.1,2,0.1
	c0.4,0,1.6,0,2.6-0.1c1.1,0,2.4-0.1,3.3-0.2c0.8-0.1,2.1-0.2,2.9-0.2c0.8,0,1.7-0.1,2.1-0.1c1.3-0.1,2.9,0,3.4,0
	c1.3,0.2,1.6,0.7,1.8,3.4c0.2,1.9,0.2,8.3,0.1,9.1c-0.1,0.7-0.3,1.3-0.4,1.5c-0.2,0.3-0.3,0.3-0.4-0.1c-0.2-0.6-0.2-1.7-0.3-4
	c-0.1-4-0.3-5.1-1-5.9c-0.5-0.6-1.2-0.8-2.1-0.8c-1.1,0-1.9,0.5-2.5,1.5c-0.6,1-0.7,1.6-0.8,5c0,2.3-0.1,3-0.4,3.2
	c-0.2,0.1-0.3-0.7-0.4-2.3c-0.1-2.3-0.3-4-0.5-4.7c-0.2-0.9-1-1.8-1.8-2.2c-0.4-0.2-0.5-0.2-0.9-0.2c-0.4,0-0.6,0-0.8,0.1
	c-0.7,0.2-1.5,0.8-1.9,1.4c-0.2,0.3-0.6,1.2-0.7,1.6c-0.1,0.5-0.3,1.4-0.3,2.2c-0.2,2.9-0.4,4.7-0.6,5.5c-0.1,0.3-0.2,0.5-0.2,0.5
	c-0.1-0.1-0.2-0.6-0.3-1.1c-0.1-0.7-0.2-2.3-0.3-4.1c-0.1-2.9-0.3-4-0.7-4.7c-0.2-0.3-0.7-0.8-1.1-1c-0.4-0.2-0.4-0.2-1-0.2h-0.6
	l-0.4,0.2c-0.5,0.3-1,0.7-1.3,1.1c-0.3,0.4-0.5,1.1-0.7,1.6c0,0.2-0.2,1.1-0.2,2c-0.2,2.8-0.3,3.4-0.6,3.9
	C63.3,372.2,63.1,372.2,62.9,371.9z M84.4,395.7l0,5.1l-1,0c-0.6,0-2.1-0.1-3.5-0.2c-3-0.2-4.1-0.3-5.8-0.3c-1.8,0-3.5-0.1-5.5-0.2
	c-0.9,0-1.9-0.1-2.3-0.1c-0.3,0-0.6,0-0.7-0.1c0,0,0-0.4,0-1c0-0.5,0.1-4.9,0.1-9.6c0-4.8,0.1-10.4,0.1-12.5l0-3.8l0.1-0.2
	c0.4-0.6,0.5-1.4,0.7-3c0.2-2.4,0.2-2.8,0.3-3.2c0.2-1,0.7-1.7,0.9-1.2c0.2,0.5,0.3,1.7,0.4,4.3c0.1,1.7,0.2,3.2,0.3,3.9
	c0.2,1.5,0.7,2.4,1.6,2.8c0.3,0.1,0.4,0.2,1,0.2c0.7,0,0.7,0,1.1-0.2c0.8-0.4,1.3-1.1,1.6-2.6c0.1-0.7,0.3-2.7,0.4-4.2
	c0.1-1.7,0.2-2.6,0.5-3.3c0.2-0.6,0.4-0.9,0.7-1c0.2-0.1,0.3-0.1,0.4-0.1c0.5,0.3,0.6,1.3,0.9,5.2c0.1,1.9,0.2,2.3,0.5,3
	c0.2,0.5,0.7,1,1.1,1.2c0.3,0.1,0.4,0.2,0.8,0.2c0.9,0,1.4-0.2,2-0.9c0.4-0.4,0.7-1,0.8-1.5c0.1-0.4,0.2-1.5,0.2-3
	c0-2.2,0.1-3.4,0.4-3.9c0.2-0.3,0.2-0.4,0.4-0.5c0.2-0.1,0.1-0.1,0.4,0c0.2,0,0.2,0.1,0.3,0.3c0.2,0.7,0.3,2.3,0.4,4.9
	c0.1,2.8,0.2,3.7,0.5,4.4c0.1,0.2,0.1,0.4,0.2,3.3C84.4,381.7,84.4,389.4,84.4,395.7z M93.7,408.5v1.1l-0.3,0
	c-0.2,0-8.6-0.3-18.7-0.7c-10.1-0.4-18.4-0.7-18.5-0.7l-0.1,0l0-1.1l0-1.1l0.4,0c0.2,0,6.7,0.3,14.4,0.6c7.7,0.3,15.9,0.6,18,0.7
	c2.2,0.1,4.2,0.2,4.4,0.2l0.4,0V408.5z M97.6,404.4v0.9l-0.4,0c-0.2,0-10.3-0.4-22.4-0.9c-12.1-0.5-22.1-0.9-22.3-0.9l-0.3,0v-0.7
	V402l0.6,0c0.3,0,0.7,0,0.9,0c0.2,0,1,0,1.8,0c0.8,0,1.9,0,2.5,0c0.6,0,2.5,0.1,4.2,0.1c1.7,0,3.7,0.1,4.3,0.1
	c2.8,0.2,4.9,0.3,6.7,0.3c2.6,0.1,3.7,0.1,6.6,0.3c2.9,0.2,2.6,0.2,14.4,0.5c1.2,0,2.4,0,2.8,0h0.6V404.4z"/>
<path fill="#0F9848" d="M195.5,178.8c0.1,0.9,0.4,2.1,1.1,3.6c0.7,1.5,1.6,2.9,2.7,4.3c1.1,1.4,2.5,2.5,4.2,3.5s3.7,1.3,6.1,1.2
	c1.6-0.1,3.1-0.6,4.6-1.5c1.4-0.9,2.8-2,4.2-3.5c1.3-1.5,2.6-3.2,3.8-5.1c1.2-1.9,2.3-4,3.2-6.2l0.1,3.7c0,0.9,0.2,2,0.7,3.5
	c0.5,1.5,1.2,2.9,2.3,4.2c1,1.3,2.4,2.5,4.2,3.5c1.7,1,3.7,1.4,5.9,1.3c2.7-0.1,5.2-1.2,7.4-3.3c2.2-2.1,4.1-4.6,5.8-7.6
	c1.7-3,3.2-6.2,4.4-9.6c1.2-3.4,2.3-6.6,3.3-9.4c0.1-0.8,0-1.5-0.4-2.1c-0.4-0.6-0.9-1-1.4-1.3c-0.5-0.3-1.1-0.3-1.6-0.2
	c-0.5,0.1-0.9,0.6-1.3,1.3c-1.3,2.6-2.6,5.4-4,8.4c-1.4,3-2.7,5.8-4.1,8.3c-1.3,2.6-2.7,4.7-4.1,6.3s-2.7,2.3-4,2
	c-0.9-0.1-1.3-1-1.3-2.7c0-1.6,0.3-3.6,0.8-6c0.5-2.3,1.3-4.9,2.3-7.6c1-2.7,1.9-5.4,2.8-7.9c0.8-2.5,1.5-4.8,2.1-6.7
	c0.6-2,0.8-3.3,0.8-4.1c-0.1-1.3-0.7-2.6-1.7-3.8c-1-1.2-2.2-2.2-3.5-3.2c-1.3-0.9-2.7-1.7-4.2-2.4c-1.5-0.7-2.8-1.1-4-1.4
	c-1.2-0.3-2-0.3-2.6-0.2c-0.6,0.2-0.7,0.6-0.3,1.4c0.7,0.9,1,2.3,0.9,4.2c-0.1,1.9-0.4,4-0.9,6.3l-0.1,0.8l-0.2,0.8l-2,9.1
	c-0.6,3.2-1.7,6.2-3.3,9c-1.6,2.8-3.3,5.3-5.1,7.4c-1.8,2.1-3.5,3.7-5.2,4.9c-1.6,1.1-2.9,1.6-3.9,1.4c-0.9-0.2-1.3-1.1-1.4-2.6
	c-0.1-1.5,0.2-3.5,0.7-5.8s1.1-4.8,1.9-7.6c0.7-2.7,1.5-5.4,2.2-7.8c0.7-2.5,1.4-4.7,1.9-6.6c0.5-1.9,0.7-3.3,0.7-4
	c-0.3-2-1.4-3.8-3.3-5.4c-1.9-1.6-3.9-2.9-6-3.9c-2-1-3.8-1.5-5.3-1.7c-1.5-0.1-2,0.3-1.4,1.4c0.5,0.9,0.7,2.2,0.7,3.9
	c0,1.7-0.2,3.7-0.5,5.9c-0.3,2.2-0.8,4.7-1.4,7.3c-0.6,2.6-1.2,5.3-1.7,7.9c-0.1,0.3-0.1,0.6-0.2,0.9c-0.1,0.2-0.2,0.4-0.3,0.7
	c-1.1,2-2.3,3.8-3.8,5.4c-1.5,1.6-3.1,3-5,4.1c-1.8,1.1-3.8,1.9-6,2.2c1.5-2.5,2.6-5.3,3.5-8.2c0.9-2.9,1.5-5.9,1.9-8.9
	c0.4-3,0.5-5.8,0.2-8.6c-0.3-2.7-1-5.2-2.2-7.4c-1.1-2.2-2.7-3.9-4.8-5.3c-2-1.3-4.6-2.1-7.6-2.3c-3.1-0.1-5.9,0.2-8.2,1.1
	c-2.3,0.8-4.3,2-5.8,3.4c-1.5,1.4-2.7,3.1-3.5,5c-0.8,1.9-1.2,4-1.1,6l-0.1,1.8c-2.1-0.3-3.7-0.3-4.6-0.1c-1.1,1.5-1.9,3-2.4,4.7
	c-0.3,1.2-0.7,2.6-1,4.1c-0.8,1.6-1.6,3.1-2.4,4.5c-1.5,2.7-3.1,5.2-4.9,7.4c-1.8,2.2-3.7,4.3-5.6,6.1c-2,1.9-4.2,3.7-6.8,5.3
	c0.7-2.9,1.3-5.9,1.9-9.2c0.6-3.2,1.2-6.5,1.9-9.7c0.6-3.2,1.2-6.4,1.8-9.6c0.5-3.1,1.1-6.1,1.6-8.8c0.4-1.9-0.3-3.6-2.2-5.1
	c-1.8-1.5-3.9-2.8-6.1-3.8c-2.2-1-4.2-1.6-6-1.8c-1.7-0.2-2.4,0.2-1.9,1.2c0.5,1.2,0.8,2.7,0.8,4.6c0,1.8-0.2,3.9-0.4,6.3
	c0,0.9-0.1,1.8-0.3,2.7c-0.2,0.9-0.4,1.9-0.6,2.9c-0.6,3.6-1.7,7.2-3.4,10.7c-1.6,3.5-3.4,6.6-5.1,9.3c-1.8,2.7-3.5,4.9-5.2,6.4
	c-1.7,1.6-3,2.2-4,2c-1-0.2-1.5-1.1-1.6-2.7c-0.1-1.6,0.1-3.6,0.5-5.9c0.4-2.3,1-4.9,1.7-7.7c0.7-2.8,1.5-5.5,2.2-8
	c0.7-2.6,1.2-4.9,1.6-6.8c0.4-2,0.5-3.3,0.5-4.1c-0.3-2-1.4-3.8-3.3-5.4c-1.9-1.6-4-2.9-6-3.9c-2.1-1-3.9-1.5-5.4-1.7
	c-1.5-0.1-2,0.3-1.4,1.4c0.5,0.9,0.7,2.2,0.7,3.9c0,1.7-0.2,3.7-0.5,6c-0.3,2.3-0.7,4.7-1.2,7.3c-0.5,2.6-1,5.3-1.5,7.9
	c-0.5,2.7-0.9,5.2-1.3,7.7c-0.4,2.4-0.5,4.6-0.5,6.4c0.1,0.9,0.4,2.1,1.1,3.6c0.6,1.5,1.6,2.9,2.8,4.3c1.2,1.4,2.6,2.6,4.2,3.5
	c1.6,0.9,3.6,1.3,5.9,1.2c1.6-0.1,3.1-0.6,4.5-1.5c1.4-0.9,2.8-2,4.1-3.4c1.3-1.4,2.6-3,3.7-4.9c1.1-1.9,2.2-3.9,3.2-5.9
	c-0.6,2.9-1.2,5.8-1.7,8.9c-0.5,3-1,6.2-1.5,9.4c-4.4,1.9-9.2,3.8-14.5,5.8c-5.2,2-10.4,4.2-15.5,6.5c-5.1,2.3-9.9,4.9-14.5,7.8
	c-4.6,2.8-8.4,6-11.4,9.6c-3,3.6-5.1,7.6-6.2,12c-1.1,4.5-0.8,9.4,0.9,14.9c1.1,3.3,2.5,6.4,4.3,9.3c1.8,2.9,3.9,5.5,6.3,7.7
	c2.4,2.2,5.2,4,8.2,5.3c3.1,1.3,6.3,2,9.7,2.2c5.8,0.3,10.8-0.8,15-3.1s7.9-5.5,11.1-9.4c3.1-4,5.8-8.6,7.9-13.9
	c2.1-5.3,3.9-10.7,5.3-16.3c1.4-5.6,2.5-11.2,3.5-16.7c1-5.5,1.8-10.6,2.5-15.1l1.6-5.3c3.1-1.9,6.1-3.9,8.9-6
	c2.8-2.1,5.4-4.5,7.9-7.2c1.9-2.1,3.6-4.4,5.2-6.9c0.6,2.4,1.5,4.7,2.8,6.8c1.6,2.7,3.9,4.9,6.7,6.7c2.8,1.8,6.4,2.6,10.7,2.5
	c2.1-0.1,4.1-0.8,6-2.1c1.8-1.3,3.7-3.3,5.5-5.9c3.8,0,7.2-0.5,10-1.5c2.8-1,5.2-2.4,7.2-4.2C195.5,177.9,195.5,178.4,195.5,178.8z
	 M103.7,228.9c-2,8.5-4.4,15.9-7,22.2c-2.7,6.3-5.8,11.3-9.3,14.9c-3.6,3.6-7.6,5.2-12.2,4.7c-2.7-0.3-5.3-1.1-7.8-2.6
	c-2.5-1.5-4.8-3.3-6.8-5.4c-2-2.1-3.7-4.5-4.9-7c-1.3-2.5-2-4.9-2.1-7.2c-0.2-4.1,0.6-7.9,2.3-11.4c1.7-3.5,4.2-6.7,7.2-9.6
	c3.1-2.9,6.7-5.6,10.7-8.1c4.1-2.4,8.2-4.7,12.3-6.7c4.2-2,8.2-3.9,12.3-5.7c4-1.7,7.7-3.4,11-4.8
	C107.6,211.5,105.8,220.4,103.7,228.9z M169,184.3c-1.1,0.7-2.3,1-3.6,0.9c-1.4-0.2-2.5-0.7-3.2-1.5c-0.7-0.8-1.2-1.8-1.5-3
	c-0.3-1.2-0.4-2.6-0.2-4.1c0.2-1.5,0.4-3,0.8-4.6c1.4,1.9,3,3.7,4.9,5.3c1.9,1.6,3.9,2.8,6.1,3.7C171.2,182.5,170.1,183.6,169,184.3
	z M180.8,155.4c-0.3,3.7-0.9,7.5-2,11.5c-1.1,4-2.4,7.5-4.1,10.6c-2.7-1.1-4.7-2.9-6.2-5.3c-1.4-2.4-2.4-5-3-7.8
	c-0.5-2.8-0.7-5.6-0.4-8.5c0.3-2.9,0.9-5.5,1.8-7.8c0.9-2.3,2.1-4.1,3.6-5.4c1.4-1.3,3-1.8,4.8-1.5c2.3,0.5,3.9,2.1,4.7,4.8
	C180.8,148.6,181.1,151.8,180.8,155.4z M348.9,158c-0.6-0.3-1.1-0.3-1.6-0.2c-0.5,0.1-0.9,0.6-1.2,1.3c-1.3,2.6-2.7,5.5-4.4,8.6
	c-1.7,3.1-3.3,6-5,8.6c-1.6,2.6-3.2,4.8-4.8,6.5c-1.5,1.7-2.9,2.4-4,2.2c-1.1-0.1-1.7-1-1.8-2.7c-0.1-1.7,0.1-3.7,0.6-6.2
	c0.4-2.4,1.1-5.1,1.9-7.9c0.8-2.8,1.6-5.6,2.5-8.2c0.8-2.6,1.6-4.9,2.2-6.9c0.6-2,1-3.3,1.1-4c0-1.2-0.4-2.4-1.3-3.6
	c-0.9-1.2-2-2.3-3.3-3.2c-1.3-0.9-2.8-1.7-4.4-2.4s-3-1.2-4.3-1.4c-1.3-0.2-2.2-0.3-2.8-0.2c-0.6,0.1-0.6,0.5-0.1,1.3
	c0.3,0.6,0.5,1.6,0.6,3.1c-1.7-2.1-3.9-3.3-6.6-3.5c-3.1-0.2-5.8,0.2-8.2,1.2c-2.4,1-4.5,2.3-6.3,4.1c-1.8,1.7-3.4,3.8-4.6,6.1
	c-1.2,2.3-2.2,4.8-3,7.4c-1.6,5-2.3,9.5-2.1,13.5c0.2,4.1,1.1,7.5,2.6,10.5s3.4,5.2,5.8,6.7c2.3,1.6,4.9,2.3,7.5,2.3
	c2.4-0.1,4.4-1.1,6.1-2.8c1.6-1.7,3.1-3.9,4.3-6.3c0.3,1,0.9,2.1,1.7,3.3c0.8,1.2,1.7,2.2,2.9,3.2c1.2,0.9,2.5,1.7,4,2.3
	c1.5,0.6,3.1,0.9,4.9,0.8c2.7-0.1,5.3-1.2,7.7-3.3c2.4-2.1,4.6-4.6,6.6-7.6s3.7-6.2,5.1-9.6c1.4-3.4,2.6-6.6,3.6-9.4
	c0.1-0.8,0-1.5-0.4-2.1C350,158.7,349.5,158.3,348.9,158z M317.7,151.8c-0.4,2.1-0.9,4.3-1.4,6.6s-1,4.6-1.5,6.9
	c-1,2.6-1.9,5.1-2.8,7.4c-0.9,2.3-1.8,4.5-2.8,6.3c-1,1.9-2,3.4-3,4.6c-1,1.2-2.3,1.8-3.7,1.9c-1,0.1-1.8-0.6-2.5-2
	c-0.7-1.4-1.1-3.3-1.4-5.6c-0.3-2.3-0.2-4.9,0.2-7.7c0.4-2.8,1.1-5.6,2.1-8.4c0.8-2.2,1.8-4.4,3-6.6c1.2-2.2,2.4-4.1,3.7-5.8
	c1.3-1.7,2.5-3.1,3.7-4.1c1.2-1,2.3-1.6,3.4-1.6c0.9,0,1.6,0.3,2.1,0.8c0.4,0.5,0.7,1.2,0.9,2c0.2,0.8,0.2,1.7,0.2,2.7
	C317.7,150.1,317.7,151,317.7,151.8z M179.4,327.4c-1,0.4-2,0.6-2.8,0.6c-0.9,0-1.8-0.3-2.4-0.8c-0.7-0.5-1.2-1.1-1.7-1.7
	c-0.5-0.7-1-1.6-1.3-2.5c0.3-0.6,0.7-1.3,1.1-2c0.3-0.6,0.7-1.4,1.2-2.2c0.4-0.8,0.9-1.7,1.5-2.7c0,0,0.2-0.3,0.4-0.8
	c0.2-0.5,0.5-1,0.8-1.7c0.3-0.7,0.5-1.4,0.7-2.2c0.2-0.8,0.3-1.5,0.3-2.2c0-0.9-0.4-1.6-1.3-2.2c-0.8-0.6-2-0.9-3.3-0.9
	c-1.3,0-2.5,0.3-3.4,0.8c-1,0.5-1.6,1.1-1.9,1.8l-8.7,19.4l-0.5,0l3-19.6c0-0.7-0.3-1.3-0.9-1.7c-0.6-0.4-1.4-0.6-2.4-0.6
	c-1.3,0-2.3,0.2-3.2,0.6c-0.9,0.4-1.7,1-2.4,1.8s-1.4,1.8-2,3c-0.6,1.2-1.3,2.6-1.9,4.2c-0.7,1.6-1.4,3.5-2.2,5.5
	c-0.8,2-1.7,4.3-2.8,6.8l-0.5,0l2.5-19.6c0-0.7-0.3-1.3-0.9-1.7c-0.6-0.4-1.4-0.6-2.4-0.6l-0.9-0.1c-0.9,0-1.7,0.2-2.3,0.7
	c-0.6,0.4-1.2,1-1.7,1.6c-0.5,0.7-0.9,1.4-1.2,2.2c-0.3,0.8-0.5,1.6-0.7,2.3c-0.2,0.8-0.3,1.4-0.4,2c-0.1,0.6-0.1,1-0.2,1.3
	c-0.1,1-0.1,1.8-0.2,2.5c0,0.7-0.1,1.3-0.1,1.9c0,0.6,0,1.2,0,1.8c0,0.6,0,1.3,0,2c0,1,0,1.9,0,2.8c0,0-0.1,0.1-0.1,0.1
	c-1.4,1-2.8,2-4.3,2.8c-1.5,0.9-3.1,1.6-4.7,2.2c-1.6,0.6-3.1,0.9-4.6,0.9c-0.5,0-0.9,0-1.3-0.1c-0.4-0.1-0.8-0.3-1.1-0.5
	c-0.4-0.2-0.7-0.6-1.1-1c-0.4-0.4-0.7-1-1.1-1.6c2.1-0.6,4.1-1.4,5.9-2.4c1.8-1,3.4-2.2,4.7-3.6s2.3-2.7,3.1-4.2
	c0.7-1.5,1.1-3,1.1-4.5c0-1.4-0.2-2.6-0.7-3.7c-0.5-1.1-1.2-2.1-2-2.8c-0.9-0.8-1.9-1.4-3-1.8c-1.2-0.4-2.4-0.7-3.8-0.7
	c-1.7,0-3.2,0.3-4.6,0.9c-1.4,0.6-2.6,1.4-3.7,2.4c-1.1,1-2.1,2.2-2.9,3.5s-1.5,2.7-2,4.2c-0.5,1.5-0.9,2.9-1.2,4.4
	c-0.3,1.5-0.4,2.9-0.4,4.3c0,0.8,0.1,1.7,0.2,2.5c-1,0.9-2.1,1.8-3.3,2.6c-1.2,0.9-2.5,1.6-3.8,2.2c-1.3,0.6-2.5,0.9-3.7,0.9
	c-0.8,0-1.5-0.2-2.1-0.5c-0.6-0.3-1.1-0.8-1.5-1.3c-0.4-0.6-0.7-1.2-0.9-1.9c-0.2-0.7-0.4-1.4-0.5-2.2c-0.1-0.7-0.2-1.5-0.2-2.2
	s-0.1-1.4-0.1-1.9c0-1.8,0.1-3.7,0.3-5.7c0.2-2,0.5-4.1,0.9-6.2c0.3-2.1,0.7-4.2,1.1-6.3c0.4-2.1,0.8-4.2,1.1-6.1s0.6-3.9,0.9-5.6
	c0.2-1.8,0.3-3.4,0.3-4.8c0-1.2-0.1-2.5-0.4-3.8s-0.8-2.5-1.4-3.5c-0.6-1.1-1.5-1.9-2.4-2.6c-1-0.7-2.2-1-3.6-1
	c-1.2,0-2.5,0.2-3.8,0.5c-1.3,0.4-2.6,1-4,2c-1.4,0.9-2.8,2.2-4.3,3.9c-1.5,1.7-3,3.8-4.5,6.4c-1.6,2.6-3.1,5.7-4.8,9.4
	c-1.6,3.7-3.3,8-4.9,12.9l-0.6-0.2c0.6-2,1.2-4.1,1.8-6.1s1.1-4.1,1.6-6c0.5-2,0.8-3.9,1.1-5.7c0.3-1.8,0.4-3.6,0.4-5.1
	s-0.2-3-0.5-4.4c-0.3-1.3-0.8-2.4-1.6-3.4c-0.7-0.9-1.7-1.7-2.8-2.2c-1.2-0.5-2.6-0.8-4.3-0.8c-1.1,0-2.3,0.3-3.5,0.8
	c-1.2,0.5-2.4,1.4-3.5,2.6c-1.1,1.2-2.2,2.7-3.3,4.6c-1,1.9-1.9,4.2-2.7,6.9c-0.1,0.1-0.1,0.2-0.1,0.4c0,0.3,0.1,0.6,0.3,0.9
	s0.4,0.6,0.7,0.9s0.6,0.5,0.9,0.7c0.3,0.2,0.7,0.3,1,0.3c0.4,0,0.7-0.1,1.1-0.2c0.3-0.2,0.5-0.4,0.7-0.8c0.6-1.3,1.3-2.4,2.1-3.5
	s1.5-2,2.2-2.8s1.5-1.4,2.1-1.9s1.3-0.7,1.8-0.7c0.4,0,0.6,0.1,0.8,0.3c0.2,0.2,0.3,0.5,0.4,0.8c0.1,0.3,0.1,0.6,0.1,1
	c0,0.3,0,0.6,0,0.8c-0.2,2.4-0.4,4.7-0.6,6.8c-0.2,2.1-0.5,4.2-0.8,6.2c-0.3,2-0.6,4-1,6c-0.4,2-0.7,4.1-1.2,6.2s-0.9,4.4-1.4,6.7
	c-0.5,2.3-1.1,4.9-1.7,7.6c-0.2,0.8-0.3,1.7-0.4,2.5c-0.1,0.8-0.1,1.7-0.1,2.8c0,1,0.1,1.8,0.4,2.6c0.3,0.8,0.6,1.4,1.1,1.9
	c0.5,0.5,1,0.9,1.6,1.2c0.6,0.3,1.2,0.4,1.8,0.4c1.1,0,2.1-0.3,3-0.8c0.9-0.5,1.7-1.5,2.3-2.8c0.8-2.4,1.7-5,2.6-7.7
	c0.9-2.7,1.9-5.5,2.8-8.3c1-2.8,2-5.6,3-8.4c1.1-2.8,2.1-5.5,3.2-8c1.1-2.5,2.2-4.9,3.2-7.1c1.1-2.2,2.2-4.1,3.2-5.7
	c1.1-1.6,2.1-2.8,3.2-3.8c1-0.9,2-1.4,3-1.4c0.6,0,1,0.2,1.4,0.6c0.3,0.4,0.6,0.9,0.7,1.5c0.2,0.6,0.3,1.1,0.3,1.7
	c0,0.6,0.1,1.1,0.1,1.5c0,1.4-0.2,2.8-0.5,4.3c-0.3,1.5-0.7,3-1.1,4.6c-0.4,1.6-0.9,3.2-1.5,4.9c-0.5,1.7-1,3.4-1.5,5.1
	c-0.4,1.8-0.8,3.5-1.1,5.3c-0.3,1.8-0.5,3.7-0.5,5.5c0,1.4,0.1,2.9,0.2,4.4c0.2,1.5,0.4,3,0.8,4.5c0.4,1.5,0.9,2.9,1.5,4.2
	c0.6,1.3,1.4,2.5,2.3,3.5c0.9,1,2,1.8,3.3,2.4c1.3,0.6,2.8,0.9,4.5,0.9c1.3,0,2.6-0.2,4-0.5c1.3-0.3,2.7-0.8,4-1.4
	c1.3-0.6,2.6-1.3,3.9-2c1.3-0.8,2.5-1.6,3.6-2.6c0.1-0.1,0.2-0.2,0.4-0.3c0.2,0.2,0.3,0.5,0.5,0.7c1.1,1.4,2.6,2.5,4.3,3.3
	s3.7,1.2,6,1.2c1.5,0,2.9-0.2,4.3-0.5s2.8-0.8,4.1-1.3c1.3-0.5,2.6-1.2,3.8-1.9c1.1-0.6,2.1-1.3,3-1.9c0.1,0.5,0.2,1,0.4,1.4
	c0.9,2.8,2.3,4.2,4.2,4.2c1.1,0,2.2-0.4,3.4-1.3c1.2-0.9,2.3-2.1,3.4-3.7c1.1-1.6,2.1-3.5,3.1-5.7c1-2.2,1.8-4.6,2.5-7.2l1.1,0.2
	c0,1.3,0,2.6,0,4c0,1.4,0.1,2.7,0.1,4c0.1,1.3,0.1,2.5,0.3,3.7c0.1,1.2,0.2,2.2,0.4,3.1c0.2,0.9,0.4,1.6,0.6,2.1s0.5,0.8,0.9,0.8
	c1,0,1.9-0.3,2.9-1c1-0.7,1.9-1.6,2.9-2.7c0.9-1.2,1.9-2.5,2.8-4.2s1.8-3.4,2.6-5.3c0,1.4,0.3,2.6,0.8,3.6c0.5,1,1.2,1.8,2,2.4
	c0.8,0.6,1.8,1.1,2.9,1.4c1.1,0.3,2.3,0.4,3.5,0.4c1.6,0,3.2-0.3,4.9-0.9c1.7-0.6,3.4-1.4,4.9-2.4v-8.5c-1.1,0.8-2.2,1.5-3.3,2.1
	C181.4,326.5,180.4,327,179.4,327.4z M115.3,322c0-0.7,0.2-1.5,0.3-2.3s0.4-1.6,0.7-2.4c0.3-0.8,0.7-1.5,1.2-2.1
	c0.5-0.6,1.1-1.1,1.8-1.5c0.7-0.4,1.6-0.6,2.7-0.6c0.6,0,1.1,0.4,1.5,1.1c0.4,0.7,0.6,1.6,0.6,2.7c0,0.8-0.3,1.6-0.9,2.4
	c-0.6,0.8-1.3,1.6-2.2,2.3c-0.9,0.7-1.8,1.3-2.9,1.7c-1,0.4-2,0.7-2.8,0.7C115.2,323.4,115.3,322.8,115.3,322z M242.5,290.7
	c-0.6,1.3-1.3,2.9-2.3,5s-2.2,4.3-3.6,6.8s-2.9,5.2-4.5,8c-1.7,2.8-3.4,5.7-5.3,8.6l-2.2,3.6c-2,2.7-3.8,5.1-5.4,7.1
	c-1.6,2-3.1,3.8-4.4,5.2c-1.3,1.5-2.5,2.7-3.6,3.6c-1.1,1-2.2,1.7-3.2,2.2s-2,0.9-3,1.1c-1,0.2-2,0.3-3,0.3c-1,0-1.9-0.2-2.9-0.7
	c-1-0.4-1.9-0.9-2.7-1.5s-1.5-1.2-2.1-1.7c-0.6-0.6-0.9-1-1-1.3c-0.1-0.2-0.3-0.5-0.4-0.8c-0.1-0.4-0.2-0.7-0.2-1.1
	c0-0.4,0.1-0.7,0.3-1c0.2-0.3,0.5-0.4,0.9-0.4c0.1,0,0.3,0,0.5,0.1c0.7,0.5,1.5,0.8,2.2,1.1s1.4,0.3,2,0.3c1.8,0,3.4-0.3,4.9-1
	c1.5-0.6,2.8-1.5,3.9-2.5c1.2-1,2.2-2.2,3.1-3.5s1.7-2.6,2.5-3.9c0.7-1.3,1.4-2.6,1.9-3.8c0.6-1.2,1.1-2.2,1.6-3.1
	c-0.8-2.1-1.7-4.2-2.6-6.3c-0.9-2.1-1.8-4.1-2.8-6s-2-3.7-3-5.3c-1-1.6-2-3.1-3.1-4.3c-1.1-1.2-2.1-2.2-3.2-2.9
	c-1.1-0.7-2.2-1-3.3-1c-0.6,0-1,0.1-1.4,0.2c-0.4,0.1-0.6,0.3-0.8,0.6c-0.2,0.2-0.3,0.5-0.4,0.8c-0.1,0.3-0.1,0.6-0.1,0.9
	c0,0.4,0,0.7,0.1,1.1c0,0.4,0.1,0.7,0.1,0.9c0,0.4-0.1,0.7-0.3,0.8c-0.2,0.1-0.4,0.1-0.7,0.1c-0.5,0-0.9-0.3-1.3-0.9
	c-0.4-0.6-0.7-1.4-1-2.3c-0.3-1-0.5-2.1-0.6-3.3c-0.1-1.2-0.2-2.5-0.2-3.9c0-0.4,0.1-0.8,0.3-1.3c0.2-0.4,0.6-0.8,1-1.2
	s1.1-0.7,1.8-0.9s1.6-0.3,2.6-0.3c2.8,0,5.3,0.7,7.6,2.1c2.3,1.4,4.4,3.3,6.4,5.7c2,2.4,3.8,5.2,5.5,8.4c1.7,3.2,3.3,6.7,4.9,10.3
	c1.4-2.6,2.8-5.1,4.1-7.6c1.3-2.5,2.5-4.8,3.6-7c1.1-2.2,2.1-4.1,3-5.9c0.9-1.8,1.6-3.2,2.2-4.3c0.3-0.6,0.9-1.1,1.7-1.4
	c0.8-0.4,1.7-0.5,2.7-0.5c0.5,0,1,0.1,1.5,0.2c0.5,0.1,0.9,0.4,1.3,0.7c0.4,0.3,0.7,0.7,0.9,1.3c0.2,0.5,0.4,1.1,0.4,1.9
	C243.4,288,243.1,289.2,242.5,290.7z M333.5,321.7c-1.2,0.5-2.3,0.7-3.4,0.7c-0.4,0-0.8-0.1-1.1-0.2c-0.4-0.1-0.7-0.4-0.9-0.7
	c-0.3-0.4-0.5-0.8-0.7-1.4s-0.3-1.3-0.3-2.2c0-0.5,0.1-1.1,0.2-1.9s0.3-1.5,0.4-2.4c0.1-0.8,0.3-1.6,0.4-2.3
	c0.1-0.7,0.2-1.3,0.2-1.7c0-0.5-0.1-1-0.3-1.4s-0.5-0.8-0.8-1.1s-0.7-0.5-1.1-0.7c-0.4-0.2-0.9-0.2-1.3-0.2c-1.3,0-2.5,0.4-3.5,1.1
	c-1,0.7-1.9,1.6-2.7,2.6c-0.8,1-1.5,2.2-2.1,3.4c-0.6,1.2-1.1,2.3-1.6,3.2h-0.4c0-1.2-0.1-2.5-0.1-3.8c0-1.3,0-2.4,0-3.2
	c0-0.7,0-1.3-0.1-1.8c0-0.4-0.1-0.8-0.3-1c-0.2-0.2-0.4-0.4-0.8-0.4c-0.4-0.1-0.8-0.1-1.5-0.1c-0.6,0-1,0-1.4,0.1s-0.7,0.2-0.9,0.4
	s-0.5,0.4-0.7,0.7c-0.2,0.3-0.4,0.7-0.6,1.3c-0.3,0.8-0.6,1.8-0.9,3c-0.3,1.2-0.6,2.6-0.9,4.1c-0.3,1.5-0.6,3-0.9,4.7
	c-0.3,1.6-0.5,3.2-0.7,4.8c-0.1,0.5-0.1,1-0.2,1.5c-0.5,0.6-1,1.2-1.5,1.8c-0.5,0.6-1,1.1-1.6,1.6c-0.6,0.5-1.1,1-1.7,1.4
	c-0.6,0.4-1.1,0.7-1.7,1c-0.6,0.3-1.1,0.4-1.6,0.4c-0.7,0-1.1-0.3-1.3-1c-0.2-0.6-0.3-1.5-0.3-2.7c0-1.3,0.1-2.7,0.4-4.2
	c0.2-1.5,0.5-3,0.8-4.5c0.3-1.5,0.6-2.9,0.8-4.4c0.2-1.4,0.4-2.7,0.4-3.9c0-0.7-0.1-1.3-0.2-1.8c-0.1-0.4-0.3-0.8-0.6-1
	c-0.2-0.2-0.5-0.4-0.8-0.5c-0.3-0.1-0.7-0.1-1-0.1c-0.3,0-0.5,0-0.8,0c-0.3,0-0.5,0-0.8,0c-0.3,0-0.6,0-0.9-0.1
	c-0.3,0-0.6-0.1-0.9-0.2s-0.5-0.3-0.7-0.6c-0.2-0.3-0.4-0.5-0.6-0.8c-0.2-0.3-0.5-0.5-0.8-0.7s-0.7-0.3-1.3-0.3
	c-1.7,0-3.3,0.4-4.9,1.1c-1.6,0.7-3.1,1.7-4.6,2.9c-1.5,1.2-2.8,2.6-4,4.2c-1.2,1.6-2.3,3.3-3.2,5.2c-0.9,1.8-1.6,3.7-2.1,5.6
	c-0.2,0.7-0.3,1.4-0.5,2.1c0,0-0.1,0-0.1,0.1c-1.4,1-2.8,2-4.3,2.8c-1.5,0.9-3.1,1.6-4.7,2.2s-3.1,0.9-4.6,0.9c-0.5,0-0.9,0-1.3-0.1
	c-0.4-0.1-0.8-0.3-1.1-0.5c-0.4-0.2-0.7-0.6-1.1-1c-0.4-0.4-0.7-1-1.1-1.6c2.1-0.6,4.1-1.4,5.9-2.4c1.8-1,3.4-2.2,4.7-3.6
	c1.3-1.3,2.3-2.7,3.1-4.2c0.7-1.5,1.1-3,1.1-4.5c0-1.4-0.2-2.6-0.7-3.7c-0.5-1.1-1.2-2.1-2-2.8c-0.9-0.8-1.9-1.4-3-1.8
	c-1.2-0.4-2.4-0.7-3.8-0.7c-1.7,0-3.2,0.3-4.5,0.9c-1.4,0.6-2.6,1.4-3.7,2.4s-2.1,2.2-2.9,3.5c-0.8,1.3-1.5,2.7-2,4.2
	s-0.9,2.9-1.2,4.4c-0.3,1.5-0.4,2.9-0.4,4.3c0,2,0.3,3.9,0.9,5.7c0.6,1.8,1.4,3.4,2.6,4.8c1.1,1.4,2.6,2.5,4.3,3.3s3.7,1.2,6,1.2
	c1.5,0,2.9-0.2,4.3-0.5s2.8-0.8,4.1-1.3s2.6-1.2,3.8-1.9c1-0.6,1.9-1.2,2.8-1.8c0.5,1.1,1.1,2,1.8,2.7c0.8,0.9,1.8,1.6,2.9,2
	c1.1,0.5,2.2,0.7,3.4,0.7c1.1,0,2.2-0.2,3.3-0.5c1.1-0.4,2.1-0.8,3.1-1.4c1-0.6,1.9-1.2,2.8-1.9c0.8-0.7,1.6-1.4,2.1-2.1
	c0.8,2,1.7,3.5,2.8,4.5s2.4,1.5,4,1.5c1.3,0,2.7-0.3,4-1c1.3-0.7,2.6-1.5,3.7-2.4c0.5-0.4,0.9-0.8,1.3-1.2c0.1,0.7,0.3,1.4,0.6,2
	c0.3,0.7,0.8,1.3,1.4,1.7c0.6,0.4,1.4,0.6,2.4,0.6c0.4,0,0.8-0.1,1.2-0.2s0.7-0.4,1-0.8c0.3-0.4,0.6-0.9,0.9-1.5
	c0.3-0.6,0.6-1.4,1-2.3l6.5-18.1h0.6c0.2,1.5,0.4,3,0.8,4.5c0.3,1.5,0.8,2.8,1.5,4c0.7,1.2,1.5,2.2,2.6,2.9c1.1,0.7,2.6,1.1,4.4,1.1
	c1,0,2-0.2,3-0.5c1-0.3,1.9-0.7,2.8-1.1c0.9-0.4,1.8-0.9,2.6-1.4s1.5-1,2.1-1.4l0.5-8.5c-1.1,0.9-2.2,1.7-3.3,2.4
	C335.7,320.7,334.7,321.2,333.5,321.7z M249.3,322c0-0.7,0.2-1.5,0.3-2.3s0.4-1.6,0.7-2.4c0.3-0.8,0.7-1.5,1.2-2.1
	c0.5-0.6,1.1-1.1,1.8-1.5s1.6-0.6,2.7-0.6c0.6,0,1.1,0.4,1.5,1.1c0.4,0.7,0.6,1.6,0.6,2.7c0,0.8-0.3,1.6-0.9,2.4
	c-0.6,0.8-1.3,1.6-2.2,2.3c-0.9,0.7-1.8,1.3-2.9,1.7c-1,0.4-2,0.7-2.8,0.7C249.2,323.4,249.2,322.8,249.3,322z M286.3,323.8
	c-0.1,0.8-0.3,1.7-0.6,2.9s-0.8,2.3-1.3,3.4c-0.5,1.1-1.2,2-1.9,2.8c-0.7,0.8-1.5,1.2-2.4,1.2c-0.6,0-1-0.1-1.4-0.4
	c-0.4-0.3-0.7-0.6-0.9-1.1c-0.2-0.4-0.4-1-0.5-1.5c-0.1-0.6-0.1-1.2-0.1-1.8c0-1.1,0.1-2.2,0.4-3.4c0.3-1.2,0.7-2.4,1.2-3.6
	s1.1-2.3,1.8-3.4s1.5-2.1,2.3-2.9c0.8-0.8,1.7-1.5,2.7-2c0.9-0.5,1.9-0.7,2.9-0.7L286.3,323.8z M46.1,123.8c3.7,0.3,5.7,0.8,8.7,1.9
	c1.9,0.7,2.9,1.2,4.1,2.2c0.4,0.3,0.8,0.6,0.9,0.6c0.4,0.2,1.1,0,1.4-0.4c0.1-0.1,0.3-0.5,0.4-1c0.5-1.2,1.2-2.3,2-3.1
	c0.5-0.5,1.3-0.9,1.9-1c0.6-0.1,1.2-0.1,1.8,0c1.2,0.2,1.8,0.4,2.5,1c0.5,0.4,0.7,0.5,1,0.5c0.3,0,0.7-0.2,0.9-0.4
	c0.1-0.1,0.3-0.5,0.4-0.9c0.8-2,1.8-3.8,2.5-4.7c0.4-0.4,1.1-1.1,1.3-1.2l0.1,0l0.4,0.8c0.5,1,0.9,1.5,1.7,2.2
	c1,0.8,2.1,1.2,3.2,1.3c0.9,0,1.9-0.2,2.7-0.5c0.4-0.2,1.1-0.6,1.3-0.8c0.1-0.1,0.1-0.1,0.2-0.1c0,0,0.2,0.3,0.4,0.7
	c0.7,1.3,1.2,3,1.6,4.9c0.2,1.4,0.3,1.6,0.2,1.6c-0.1,0-0.2,0.5-0.2,0.7c0,0.3,0.2,0.7,0.4,0.9c0.3,0.2,0.5,0.3,1.2,0.3
	c1.6,0,2.1,0,2.7,0.4c1,0.5,1.8,1.5,2.5,3.3c0.5,1.1,0.6,1.5,0.8,2.9c0.1,0.6,0.2,1.2,0.2,1.4c0,0.2,0.1,0.5,0.1,0.6
	c0,0.3,0.1,0.6,0.4,0.9c0.3,0.2,0.5,0.3,1.5,0.2c2.3-0.2,5.2,0,7.3,0.5c1.3,0.3,3.8,1,4.3,1.2c0.6,0.3,1,0.3,1.4,0.1
	c0.5-0.2,0.8-0.7,0.7-1.3c0-0.1-0.1-0.7-0.3-1.3c-0.4-1.5-1-3.7-1.1-4.4c-0.3-1.5-0.4-2.2-0.3-4.3c0-0.9,0-2.2,0-3
	c0-1.1,0-1.4,0.1-1.6c0.2-0.5,0-1-0.5-1.3c-0.3-0.2-0.5-0.2-1.4-0.2c-0.6,0-0.7,0-1.3-0.2c-1.6-0.5-3.4-1.6-4.1-2.6
	c-0.3-0.3-0.3-0.5-0.6-1c-0.4-1-0.7-2.1-0.8-2.8c0-0.4,0-1.1,0-1.3c0.1-0.3,0.1-0.6,0-0.9c-0.1-0.2-0.1-0.3-0.4-0.5
	c-0.3-0.2-0.6-0.3-1-0.2c-1.8,0.3-3.6,0.2-5-0.2c-0.6-0.2-1.7-0.7-2.3-1.2c-0.2-0.2-0.4-0.3-0.5-0.3s0.1-0.1,0.2-0.2
	c0.9-0.8,1.9-2.2,2.3-3.4c0.5-1.3,0.4-2.5-0.3-3.5c-0.3-0.5-0.4-0.6-0.7-1c-0.8-0.8-1.8-1.4-2.7-1.7c-0.4-0.1-0.5-0.1-0.5-0.2
	c0.1-0.3,1.7-1.5,2.6-2.1c0.2-0.2,0.8-0.5,1.3-0.8c1.1-0.6,2.4-1.5,2.7-1.8c0.5-0.5,0.7-1,0.6-1.6c-0.1-0.4-0.2-0.7-0.6-1.3
	c-0.3-0.5-0.4-0.7-0.7-1.3c-0.6-1.4-0.7-2.2-0.3-3.2c0.4-1.2,1.3-2.4,3-4c1-1,1.3-1.4,1.3-2c0-0.3,0-0.4-0.1-0.8
	c-0.2-0.4-0.2-0.4-0.8-1c-1.1-1.2-1.5-1.8-2.6-4.1c-0.8-1.7-1-2.3-1.6-4.1c-0.4-1.2-0.6-2.1-0.7-3c-0.1-0.9-0.3-1.3-0.7-1.5
	c-0.4-0.2-0.7-0.2-1.1-0.1c-0.4,0.1-0.4,0.1-0.9,0.8c-1.6,2-3.4,3.6-5.7,5c-0.9,0.6-4.5,2.2-5.5,2.5c-1.6,0.5-1.9,0.7-2.1,1.3
	c-0.1,0.4-0.1,0.6,0.3,1.3c0.7,1.2,0.7,1.3,0.9,1.7c0.3,1,0.5,2.2,0.4,3.2c-0.2,2-0.8,3.5-2.3,5.4c-0.4,0.6-0.7,0.9-1.4,1.3
	c-0.2,0.2-0.5,0.4-0.6,0.5c-0.3,0.4-0.4,1-0.1,1.4c0.1,0.1,0.3,0.4,0.6,0.7c0.6,0.7,0.9,1,1.4,1.9c0.7,1.2,1.4,2.8,1.9,4.4
	c0.1,0.3,0.2,0.6,0.2,0.6c0,0-0.2,0-0.4,0c-2.1-0.3-3.4,0.3-4.8,2c-1.1,1.3-1.5,2.7-1.3,4.2c0,0.2,0,0.4,0,0.4c-0.1,0.1-1.2,0-2.2,0
	c-2-0.1-2.9-0.3-4.7-0.8c-1.3-0.3-2.3-0.7-3.4-1.2c-1.7-0.8-2.2-0.9-3-0.6c-0.3,0.1-0.4,0.2-0.5,0.3c-0.1,0.1-0.2,0.5-0.4,0.9
	c-0.3,0.8-0.6,1.3-1,1.7c-0.8,0.8-1.9,1.4-3,1.5c-0.6,0.1-1.2,0-2.8-0.3c-1.6-0.3-2-0.3-2.5-0.1c-0.4,0.2-0.7,0.4-0.8,0.8
	c-0.1,0.1-0.2,0.8-0.3,1.4c-0.2,1.5-0.4,2.4-0.9,3.8c-0.5,1.4-0.9,2.1-1.9,3.9c-1.2,1.9-1.2,2-1.4,3c-0.1,0.5-0.1,0.7,0.1,1
	C44.5,123.7,44.6,123.7,46.1,123.8z M84.3,118c-0.6,0.7-1.2,1.1-2.1,1.3c-1,0.2-1.8,0-2.5-0.6c-0.8-0.6-1.2-1.2-1.4-2
	c-0.3-1.3-0.1-2.8,0.9-3.8c0.4-0.4,0.9-0.6,1.5-0.7c0.6-0.1,1.3,0,1.9,0.2c0.7,0.2,1,0.5,1.5,1.2c0.5,0.6,0.8,1.3,0.8,1.9
	C85.1,116.3,84.9,117.4,84.3,118z M93.6,115.6c1.2,0.4,2.7,0.6,4.1,0.5c0.3,0,0.5,0,0.5,0s0,0.2,0.1,0.4c0.1,1,0.3,1.5,0.7,2.7
	c0.3,0.9,0.7,1.8,1,2.3c0.8,1.1,1.9,2,3.5,2.8c0.7,0.3,2.3,1,3,1.1c0.2,0.1,0.4,0.1,0.4,0.1s0,0.5,0,1c0,0.5,0,1.6,0,2.5
	c0,2.9,0.1,3.8,0.9,7.1l0.4,1.7l-1.4-0.4c-0.8-0.2-1.8-0.5-2.4-0.6c-1.8-0.4-4.7-0.6-6.8-0.5c-0.1,0-0.1,0-0.1-0.1
	c0-0.2-0.3-1.8-0.3-2c-0.2-1-0.7-2.2-1.3-3.4c-1.4-2.7-3.2-3.9-5.7-4c-0.2,0-0.3,0-0.3-0.1c0-0.1-0.3-2.2-0.5-2.8
	c-0.4-1.6-0.9-3-1.7-4.5c-0.3-0.5-0.6-1-0.7-1.2l-0.2-0.4l0.1-0.5c0.1-0.4,0.2-1.2,0.2-1.5c0-0.1,0-0.1,0-0.1c0,0,1,1,2.1,2.2
	c10.6,11.3,13.9,14.8,14.1,14.9c0.3,0.2,0.7,0.2,1,0c0.6-0.3,0.8-0.9,0.6-1.5c-0.1-0.2-1.3-1.5-5.5-6c-5.7-6.1-10.9-11.6-11-11.8
	c-0.1-0.1-0.1-0.1,0-0.1c0.1,0,0.3-0.1,0.6-0.1l0.4-0.2l0.5,0.4C91,114.5,92.4,115.2,93.6,115.6z M90.9,105.4
	c0.4,0.5,0.7,1.2,0.8,1.8c0.1,0.7,0,0.9-0.4,1.4c-0.7,1-1.7,2-2.8,2.6c-0.4,0.2-0.5,0.2-0.8,0.2c-0.5,0-1.6-0.4-2.1-0.8
	c-2.4-1.6-2.1-5.2,0.5-6.4c0.4-0.2,0.8-0.3,1.2-0.4c0.4-0.1,0.8-0.1,1.3,0C89.5,104.1,90.3,104.6,90.9,105.4z M78.3,93.8
	c-0.2-0.2-0.4-0.4-0.4-0.5s0.2-0.2,0.4-0.4c0.8-0.8,2-2.5,2.6-3.8c0.4-0.9,0.6-1.6,0.8-2.8c0.3-1.7,0.2-2.8-0.2-4.4
	c-0.1-0.4-0.2-0.7-0.5-1.3l-0.3-0.7l0.4-0.1c1.8-0.6,4.1-1.8,5.6-2.7c1.6-1,3.6-2.6,4.7-3.7C92,72.8,92,72.8,92,73
	c0,0.2,0.4,1.4,0.6,2c0.4,1.3,0.7,2.1,1.3,3.5c1.1,2.4,1.9,3.8,3,4.9c0.2,0.2,0.3,0.4,0.3,0.4c0,0-0.3,0.3-0.7,0.7
	c-1.6,1.6-2.7,3-3.2,4.4c-0.4,1-0.5,1.8-0.4,2.8c0.2,1.4,0.7,2.7,1.5,3.9c0.1,0.2,0.1,0.2,0,0.3c-0.3,0.2-1.2,0.8-2,1.3
	c-0.5,0.3-1.1,0.7-1.4,0.9c-0.6,0.4-1.8,1.3-2.3,1.8c-0.5,0.5-1.7,1.8-1.8,2.1c-0.1,0.2-0.1,0.2-0.3,0.3c-0.5,0.1-0.8,0.2-1.3,0.4
	c-0.4,0.2-0.5,0.2-0.4,0.1c0-0.1,0.2-1,0.5-2c0.5-2.1,2-7.8,3.2-12.7c2.1-8.1,1.9-7.5,1.9-7.8c-0.1-0.6-0.5-0.9-1.1-0.9
	c-0.3,0-0.4,0-0.6,0.1c-0.4,0.2-0.5,0.4-0.7,1.3c-0.1,0.4-0.4,1.7-0.8,3c-0.5,1.8-2.1,8.3-4.6,18l-0.3,1.3l-0.4-0.3l-0.4-0.3l0-0.4
	c0-0.8-0.5-2.5-1.2-4.3C80,96.3,79.1,94.7,78.3,93.8z M76.1,104.6c0.5-0.6,1.2-0.9,1.9-1c0.3,0,0.6,0,1,0.2c0.7,0.2,1.3,0.5,1.8,1
	c0.3,0.3,0.5,0.8,0.7,1.2c0.6,1.3-0.1,2.5-1,3.4c-0.3,0.2-0.4,0.3-0.7,0.5c-0.9,0.4-2.1,0.5-2.8,0.3c-0.9-0.3-1.6-1.3-1.8-2.5
	C74.9,106.4,75.2,105.6,76.1,104.6z M47.5,120.4c0.4-0.6,0.8-1.4,1-1.7c1-1.9,1.8-4.3,2.1-6.3c0.1-0.4,0.1-0.8,0.1-0.8
	c0,0,0.5,0.1,1,0.2c1.4,0.3,1.9,0.3,2.6,0.3c1.1,0,2.1-0.2,3.2-0.8c0.7-0.4,1.1-0.7,1.6-1.2c0.7-0.6,1.2-1.4,1.5-2.2l0.1-0.3
	l0.8,0.4c1.4,0.7,3.3,1.3,5.3,1.7c1.7,0.4,4.8,0.6,6.2,0.5c0.3,0,0.6,0,0.6,0s0.2,0.2,0.3,0.4c0.2,0.2,0.4,0.5,0.6,0.7
	c0.2,0.2,0.3,0.3,0.3,0.3c0,0-3.9,1.2-17.1,5.2c-2,0.6-3.8,1.2-3.9,1.2c-0.8,0.4-0.8,1.6,0,2c0.2,0.1,0.3,0.1,0.4,0.1
	c0.2,0,2.3-0.6,17.1-5.1c2.7-0.8,4.8-1.5,4.9-1.5s0,0.2-0.1,0.4c-0.1,0.2-0.1,0.5-0.1,0.7l0,0.3l-0.2,0c-0.2,0-0.4,0.1-0.7,0.2
	c-0.7,0.3-1.7,1.3-2.5,2.4c-0.5,0.7-1.4,2.5-2,3.6l-0.2,0.4l-0.2-0.1c-1.3-0.6-3.2-1-4.7-0.8c-0.7,0.1-1.1,0.2-1.8,0.5
	c-1,0.5-1.7,1-2.5,1.9c-0.5,0.6-0.9,1.3-1.3,1.9l-0.3,0.5l-0.4-0.2c-1-0.7-2.1-1.2-4.2-2c-1.9-0.7-2.8-1-4.1-1.2
	c-1-0.2-2.7-0.5-3.5-0.5c-0.3,0-0.7-0.1-0.7-0.1C46.8,121.6,46.9,121.3,47.5,120.4z M389.2,119.2c-0.2-1-0.2-1.1-1.4-3
	c-1-1.7-1.4-2.4-1.9-3.9c-0.5-1.4-0.7-2.2-0.9-3.8c-0.1-0.6-0.2-1.3-0.3-1.4c-0.2-0.4-0.4-0.6-0.8-0.8c-0.5-0.2-0.8-0.2-2.5,0.1
	c-1.6,0.3-2.2,0.4-2.8,0.3c-1.1-0.1-2.2-0.6-3-1.5c-0.4-0.4-0.7-0.9-1-1.7c-0.2-0.4-0.3-0.8-0.4-0.9c-0.1-0.1-0.2-0.2-0.5-0.3
	c-0.7-0.3-1.3-0.2-3,0.6c-1.2,0.5-2.1,0.9-3.4,1.2c-1.8,0.5-2.7,0.6-4.7,0.8c-1,0.1-2.1,0.1-2.2,0c0,0,0-0.2,0-0.4
	c0.2-1.5-0.2-2.9-1.3-4.2c-1.4-1.7-2.7-2.2-4.8-2c-0.2,0-0.4,0.1-0.4,0c0,0,0.1-0.3,0.2-0.6c0.5-1.6,1.1-3.2,1.9-4.4
	c0.5-0.9,0.8-1.2,1.4-1.9c0.3-0.3,0.6-0.6,0.6-0.7c0.2-0.4,0.2-1-0.1-1.4c-0.1-0.1-0.3-0.3-0.6-0.5c-0.6-0.5-0.9-0.8-1.4-1.3
	c-1.5-1.9-2.1-3.4-2.3-5.4c-0.1-1,0-2.2,0.4-3.2c0.1-0.4,0.2-0.6,0.9-1.7c0.4-0.7,0.5-0.9,0.3-1.3c-0.2-0.6-0.5-0.8-2.1-1.3
	c-1-0.3-4.6-2-5.5-2.5c-2.2-1.4-4.1-3.1-5.7-5c-0.6-0.7-0.6-0.7-0.9-0.8c-0.4-0.2-0.7-0.1-1.1,0.1c-0.4,0.2-0.5,0.6-0.7,1.5
	c-0.1,0.9-0.3,1.8-0.7,3c-0.5,1.7-0.8,2.4-1.6,4.1c-1,2.2-1.5,2.9-2.6,4.1c-0.6,0.6-0.6,0.6-0.8,1c-0.1,0.3-0.2,0.5-0.1,0.8
	c0,0.6,0.3,1,1.3,2c1.7,1.6,2.6,2.8,3,4c0.3,1,0.3,1.8-0.3,3.2c-0.3,0.7-0.4,0.9-0.7,1.3c-0.5,0.7-0.6,0.9-0.6,1.3
	c-0.1,0.7,0.1,1.1,0.6,1.6c0.3,0.3,1.6,1.1,2.7,1.8c0.5,0.3,1.1,0.6,1.3,0.8c0.9,0.6,2.4,1.9,2.6,2.1c0.1,0.1,0,0.1-0.5,0.2
	c-1,0.3-2,0.9-2.7,1.7c-0.4,0.4-0.4,0.5-0.7,1c-0.7,1.1-0.8,2.2-0.3,3.5c0.4,1.1,1.4,2.5,2.3,3.4c0.1,0.1,0.2,0.2,0.2,0.2
	s-0.2,0.2-0.5,0.3c-0.7,0.5-1.7,1-2.3,1.2c-1.3,0.4-3.2,0.5-5,0.2c-0.4-0.1-0.7,0-1,0.2c-0.2,0.2-0.3,0.2-0.4,0.5
	c-0.1,0.3-0.1,0.6,0,0.9c0.1,0.2,0.1,0.9,0,1.3c-0.1,0.8-0.4,1.8-0.8,2.8c-0.2,0.6-0.3,0.7-0.6,1c-0.8,1-2.5,2.1-4.1,2.6
	c-0.6,0.2-0.7,0.2-1.3,0.2c-0.9,0-1.1,0-1.4,0.2c-0.5,0.3-0.6,0.8-0.5,1.3c0.1,0.2,0.1,0.6,0.1,1.6c0,0.7,0,2.1,0,3
	c0,2.1,0,2.8-0.3,4.3c-0.2,0.7-0.7,2.9-1.1,4.4c-0.1,0.6-0.3,1.1-0.3,1.3c-0.1,0.6,0.2,1.1,0.7,1.3c0.4,0.2,0.8,0.2,1.4-0.1
	c0.5-0.2,3-0.9,4.3-1.2c2.1-0.5,5-0.7,7.3-0.5c0.9,0.1,1.1,0,1.5-0.2c0.3-0.2,0.4-0.5,0.4-0.9c0-0.1,0-0.4,0.1-0.6
	c0-0.2,0.2-0.8,0.2-1.4c0.2-1.4,0.3-1.8,0.8-2.9c0.8-1.8,1.5-2.7,2.5-3.3c0.6-0.3,1.1-0.4,2.7-0.4c0.7,0,0.9,0,1.2-0.3
	c0.2-0.2,0.4-0.6,0.4-0.9c0-0.2-0.1-0.6-0.2-0.7c0,0,0-0.2,0.2-1.6c0.3-2,0.8-3.6,1.6-4.9c0.2-0.4,0.4-0.7,0.4-0.7
	c0,0,0.1,0,0.2,0.1c0.2,0.2,0.9,0.7,1.3,0.8c0.8,0.4,1.8,0.6,2.7,0.5c1.2,0,2.2-0.5,3.2-1.3c0.8-0.7,1.2-1.2,1.7-2.2l0.4-0.8l0.1,0
	c0.2,0.1,0.9,0.7,1.3,1.2c0.7,0.9,1.7,2.7,2.5,4.7c0.2,0.4,0.4,0.8,0.4,0.9c0.2,0.2,0.6,0.4,0.9,0.4c0.3,0,0.6-0.1,1-0.5
	c0.8-0.6,1.3-0.8,2.5-1c0.6-0.1,1.3-0.1,1.8,0c0.6,0.1,1.4,0.5,1.9,1c0.8,0.8,1.5,1.9,2,3.1c0.2,0.4,0.4,0.9,0.4,1
	c0.3,0.4,1,0.6,1.4,0.4c0.1,0,0.5-0.3,0.9-0.6c1.2-0.9,2.1-1.4,4.1-2.2c3-1.1,5-1.6,8.7-1.9c1.4-0.1,1.6-0.2,1.9-0.7
	C389.2,119.9,389.2,119.6,389.2,119.2z M342.2,94.9c-0.3-0.2-0.9-0.6-1.4-0.9c-0.8-0.5-1.8-1-2-1.3c-0.1-0.1-0.1-0.1,0-0.3
	c0.8-1.3,1.3-2.6,1.5-3.9c0.1-1,0-1.7-0.4-2.8c-0.5-1.3-1.6-2.8-3.2-4.4c-0.4-0.4-0.7-0.7-0.7-0.7c0,0,0.1-0.2,0.3-0.4
	c1.1-1.1,1.9-2.5,3-4.9c0.6-1.4,0.9-2.2,1.3-3.5c0.2-0.6,0.5-1.8,0.6-2c0-0.2,0.1-0.1,0.6,0.4c1.1,1.2,3.1,2.8,4.7,3.7
	c1.4,0.9,3.8,2,5.6,2.7l0.4,0.1l-0.3,0.7c-0.3,0.6-0.4,0.9-0.5,1.3c-0.4,1.6-0.4,2.7-0.2,4.4c0.2,1.2,0.4,1.9,0.8,2.8
	c0.6,1.3,1.8,3,2.6,3.8c0.2,0.2,0.4,0.4,0.4,0.4s-0.2,0.2-0.4,0.5c-0.7,0.9-1.6,2.5-2.2,3.9c-0.7,1.8-1.2,3.4-1.2,4.3l0,0.4
	l-0.4,0.3l-0.4,0.3l-0.3-1.3c-2.5-9.7-4.1-16.2-4.6-18c-0.3-1.2-0.7-2.6-0.8-3c-0.2-0.9-0.3-1.1-0.7-1.3c-0.2-0.1-0.3-0.2-0.6-0.1
	c-0.6,0-1,0.4-1.1,0.9c-0.1,0.3-0.2-0.3,1.9,7.8c1.2,4.9,2.7,10.5,3.2,12.7c0.3,1,0.5,1.9,0.5,2c0,0.1,0,0.1-0.4-0.1
	c-0.5-0.2-0.8-0.3-1.3-0.4c-0.2,0-0.3-0.1-0.3-0.3c-0.1-0.2-1.3-1.6-1.8-2.1C343.9,96.3,342.8,95.3,342.2,94.9z M346.1,115.3
	c-0.1,0.2-0.4,0.8-0.7,1.2c-0.8,1.4-1.3,2.8-1.7,4.5c-0.1,0.6-0.5,2.7-0.5,2.8c0,0-0.1,0-0.3,0.1c-2.6,0.1-4.3,1.3-5.7,4
	c-0.6,1.2-1.1,2.4-1.3,3.4c0,0.3-0.3,1.8-0.3,2c0,0-0.1,0.1-0.1,0.1c-2.1-0.1-5,0.1-6.8,0.5c-0.5,0.1-1.6,0.4-2.4,0.6l-1.4,0.4
	l0.4-1.7c0.8-3.3,0.9-4.2,0.9-7.1c0-0.9,0-2,0-2.5c0-0.5,0-0.9,0-1c0,0,0.2-0.1,0.4-0.1c0.7-0.1,2.3-0.8,3-1.1
	c1.6-0.8,2.8-1.8,3.5-2.8c0.3-0.4,0.7-1.3,1-2.3c0.4-1.2,0.5-1.7,0.7-2.7c0-0.2,0.1-0.4,0.1-0.4c0,0,0.3,0,0.5,0
	c1.4,0.1,3-0.1,4.1-0.5c1.2-0.4,2.5-1.1,3.5-1.9l0.5-0.4l0.4,0.2c0.2,0.1,0.5,0.2,0.6,0.1c0.1,0,0.1,0,0,0.1
	c-0.1,0.1-5.3,5.7-11,11.8c-4.3,4.6-5.5,5.9-5.5,6c-0.3,0.6,0,1.2,0.6,1.5c0.3,0.1,0.8,0.1,1,0c0.2-0.1,3.5-3.6,14.1-14.9
	c1.2-1.2,2.1-2.2,2.1-2.2c0,0,0,0.1,0,0.1c0,0.2,0.1,1.1,0.2,1.5l0.1,0.5L346.1,115.3z M347.6,107.7c-0.5,0.3-1.7,0.7-2.1,0.8
	c-0.3,0-0.4,0-0.8-0.2c-1.1-0.5-2.1-1.5-2.8-2.6c-0.4-0.5-0.5-0.8-0.4-1.4c0.1-0.7,0.4-1.3,0.8-1.8c0.6-0.8,1.4-1.3,2.4-1.5
	c0.4-0.1,0.8-0.1,1.3,0c0.4,0.1,0.8,0.2,1.2,0.4C349.7,102.4,350,106.1,347.6,107.7z M354.9,113.6c-0.2,0.8-0.6,1.4-1.4,2
	c-0.8,0.6-1.6,0.8-2.5,0.6c-0.8-0.2-1.5-0.5-2.1-1.3c-0.5-0.6-0.8-1.7-0.6-2.6c0.1-0.6,0.4-1.2,0.8-1.9c0.5-0.7,0.8-1,1.5-1.2
	c0.6-0.2,1.3-0.3,1.9-0.2c0.5,0.1,1,0.3,1.5,0.7C354.9,110.8,355.1,112.4,354.9,113.6z M356.2,107.2c-0.6,0.2-1.9,0.1-2.8-0.3
	c-0.3-0.2-0.5-0.3-0.7-0.5c-1-0.9-1.6-2.2-1-3.4c0.2-0.4,0.4-0.8,0.7-1.2c0.5-0.5,1.2-0.8,1.8-1c0.3-0.1,0.7-0.2,1-0.2
	c0.7,0,1.4,0.4,1.9,1c0.9,1,1.2,1.8,0.9,3C357.8,105.8,357.1,106.8,356.2,107.2z M386.4,118.6c0,0-0.4,0.1-0.7,0.1
	c-0.9,0.1-2.5,0.3-3.5,0.5c-1.3,0.3-2.2,0.5-4.1,1.2c-2.1,0.7-3.2,1.3-4.2,2l-0.4,0.2l-0.3-0.5c-0.3-0.6-0.8-1.3-1.3-1.9
	c-0.8-0.9-1.5-1.5-2.5-1.9c-0.7-0.3-1.1-0.4-1.8-0.5c-1.5-0.2-3.4,0.1-4.7,0.8l-0.2,0.1l-0.2-0.4c-0.5-1.1-1.4-2.9-2-3.6
	c-0.7-1.1-1.8-2-2.5-2.4c-0.3-0.1-0.5-0.2-0.7-0.2l-0.2,0l0-0.3c0-0.2-0.1-0.5-0.1-0.7c-0.1-0.2-0.1-0.4-0.1-0.4s2.2,0.6,4.9,1.5
	c14.8,4.5,16.9,5.1,17.1,5.1c0.1,0,0.3-0.1,0.4-0.1c0.9-0.4,0.9-1.6,0-2c-0.1-0.1-1.9-0.6-3.9-1.2c-13.3-4-17.1-5.2-17.1-5.2
	c0,0,0.1-0.2,0.3-0.3c0.2-0.2,0.4-0.5,0.6-0.7c0.2-0.2,0.3-0.4,0.3-0.4c0,0,0.3,0,0.6,0c1.4,0.1,4.5-0.1,6.2-0.5
	c1.9-0.4,3.9-1.1,5.3-1.7l0.8-0.4l0.1,0.3c0.3,0.8,0.9,1.6,1.5,2.2c0.5,0.5,0.9,0.8,1.6,1.2c1.1,0.6,2,0.8,3.2,0.8
	c0.7,0,1.2-0.1,2.6-0.3c0.6-0.1,1.1-0.2,1-0.2c0,0,0.1,0.4,0.1,0.8c0.3,2,1.1,4.4,2.1,6.3c0.2,0.3,0.6,1.1,1,1.7
	C386.3,118.3,386.4,118.6,386.4,118.6z M128.3,287c-0.9,0.5-2,1-2.8,1.5l-0.5,0.3l-1.6-0.6c-0.9-0.4-2.1-0.8-2.6-1.1
	c-1.2-0.5-1.3-0.5-1.7-0.3c-0.8,0.4-0.7,1.5,0.1,1.9c0.3,0.1,2.2,0.9,2.8,1.2c0.3,0.1,0.6,0.2,0.6,0.2c0,0-0.8,0.5-1.9,1.1
	c-0.5,0.3-0.7,0.5-0.7,0.9c0,0.4,0.1,0.6,0.3,0.9c0.2,0.2,0.4,0.3,0.7,0.3c0.3,0,0.5-0.1,1.6-0.7c0.8-0.5,1.1-0.6,1.1-0.6
	c0,0-0.1,0.7-0.3,1.4c-0.4,1.9-0.4,2-0.4,2.3c0.1,1,1.5,1.3,1.9,0.3c0-0.1,0.1-0.3,0.1-0.6c0-0.2,0.2-1,0.4-1.7
	c0.2-0.7,0.4-1.7,0.5-2.2c0.1-0.5,0.2-0.9,0.2-0.9c0.1-0.1,0.7-0.4,2-1.1c0.5-0.3,1.5-0.8,2.1-1.1c0.6-0.3,1.1-0.6,1.1-0.6
	s0,0.2,0,0.5c0,0.3,0,0.9,0.1,1.3c0,0.4,0.1,1.4,0.1,2.1c0.2,3.1,0.2,3.3,0.6,3.6c0.3,0.3,0.8,0.4,1.1,0.2c0,0,0.7-0.5,1.4-1
	c0.7-0.5,1.7-1.3,2.3-1.7c1.3-0.9,1.4-1,1.4-0.9c0,0,0,1,0,2.2l0,2.2l-0.4,0.3c-0.7,0.5-3.4,2.8-3.5,3c-0.3,0.4-0.3,0.8-0.1,1.2
	c0.2,0.4,0.4,0.5,0.8,0.6c0.4,0,0.6-0.1,0.9-0.4c0.2-0.3,2.3-2,2.4-2c0,0,0.1,1.2,0.1,2.1c0,0.6,0,0.7,0.1,0.9
	c0.3,0.6,1.2,0.8,1.7,0.3c0.3-0.3,0.3-0.3,0.3-1.8l0-1.3l0.2,0.2c0.1,0.1,0.6,0.6,1,1c1.1,1.1,1.5,1.4,1.9,1.4c0.7,0,1.3-0.8,1-1.4
	c-0.1-0.2-0.2-0.3-0.5-0.5c-0.1-0.1-1.1-1-2-1.9l-1.8-1.8l0-2.3c0-2.2,0-2.3,0.1-2.2c0.6,0.2,3.1,1.1,4.1,1.5c1.9,0.8,2.6,1,3.3,1
	c0.5,0,0.7-0.1,0.9-0.3c0.2-0.2,0.4-0.5,0.4-0.9c0-0.3-0.3-1.1-1-2.9c-0.4-1-1-2.6-1-2.7c0,0,0,0,0,0c0.1,0,1.9,0.9,2.9,1.3
	c0.8,0.4,2.5,1.2,2.9,1.4c0.2,0.1,0.4,0.2,0.4,0.2c0,0,0.1,0.2,0.1,0.5c0.1,0.3,0.2,1,0.3,1.5c0.1,0.5,0.3,1.5,0.5,2.1
	c0.1,0.6,0.3,1.2,0.3,1.3c0,0.1,0.2,0.3,0.3,0.4c0.6,0.6,1.7,0.1,1.7-0.8c0-0.2-0.4-2.2-0.7-3.2c-0.1-0.4-0.1-0.6-0.1-0.6
	c0.1,0,1.6,0.7,1.8,0.8c0.3,0.2,0.9,0.2,1.2-0.1c0.4-0.4,0.5-0.9,0.2-1.4c-0.1-0.2-0.5-0.4-1.7-0.9c-0.2-0.1-0.5-0.2-0.5-0.2
	c0-0.1,1.5-0.6,2.3-0.8c0.7-0.2,1-0.9,0.7-1.5c-0.2-0.4-0.7-0.6-1.1-0.6c-0.4,0.1-1.5,0.5-2.3,0.7c-0.4,0.2-1.1,0.4-1.6,0.6
	l-0.9,0.3l-0.9-0.4c-0.5-0.2-1.5-0.7-2.3-1.1c-0.8-0.4-1.5-0.7-1.7-0.8c-0.2-0.1-0.3-0.2-0.3-0.2c0,0,0.2-0.1,0.4-0.3
	c1.1-0.6,4-2.7,4.5-3.3c0.3-0.3,0.3-0.4,0.4-0.6c0.1-0.4,0.1-0.6-0.1-0.9c-0.2-0.3-0.4-0.4-1.1-0.6c-0.5-0.2-3.9-1.3-4.1-1.3
	c-0.2-0.1-0.2,0,2.2-1.2l1.8-0.9l0.4,0.2c0.7,0.5,3.3,1.9,4.3,2.4c0.6,0.3,0.9,0.3,1.3,0c0.5-0.3,0.5-1.1,0.1-1.5
	c-0.1-0.1-0.8-0.5-1.5-0.9c-2-1.1-2.4-1.3-2.3-1.3c0-0.1,1.4-0.8,1.5-0.8c0.2,0,0.4-0.2,0.6-0.4c0.3-0.3,0.4-0.6,0.3-1
	c-0.1-0.3-0.4-0.7-0.7-0.8c-0.4-0.1-0.6,0-1.5,0.4c-0.5,0.2-0.8,0.4-0.8,0.4c-0.1-0.1,0.6-2.1,0.9-2.8c0.2-0.4,0.2-0.8,0-1.2
	c-0.4-0.5-1.2-0.6-1.6-0.1c-0.3,0.3-0.7,1.6-1.2,3.3c-0.1,0.5-0.3,1.3-0.4,1.6l-0.2,0.6l-1.7,0.9c-0.9,0.5-2,1-2.4,1.2
	c-0.5,0.3-0.7,0.3-0.7,0.3c0,0,0-0.4,0-0.8c0.1-0.8,0.1-2.3,0-4.1c-0.1-1.7-0.1-2.2-0.5-2.6c-0.2-0.2-0.4-0.3-0.7-0.3
	c-0.4,0-0.4,0-1.4,0.7c-1,0.7-1.5,1.1-2.3,1.7c-0.3,0.3-0.8,0.7-1,0.8l-0.4,0.3v-0.6c0-0.3,0-1.1,0-1.7l0-1.1l1.3-0.9
	c0.7-0.5,1.7-1.1,2.2-1.4c0.8-0.5,0.9-0.6,1-0.8c0.3-0.5,0.1-1.1-0.4-1.4c-0.3-0.2-0.6-0.2-0.9-0.1c-0.2,0.1-2.4,1.5-3,1.9
	c-0.1,0.1-0.2,0.1-0.2,0.1c0,0,0-0.6,0-1.3l0-1.3l-0.1-0.3c-0.2-0.4-0.7-0.6-1.2-0.5c-0.2,0.1-0.5,0.3-0.6,0.5
	c-0.1,0.1-0.1,0.4-0.1,1.3l-0.1,1.1l-0.5-0.5c-0.5-0.5-0.7-0.8-1.1-1.3c-0.3-0.4-0.6-0.5-0.9-0.5c-0.5,0-0.8,0.3-0.9,0.8
	c-0.2,0.6,0.2,1.1,2.2,3.1c0.6,0.6,1.2,1.2,1.2,1.3c0.1,0.1,0.1,0.2,0.1,2.3l0,2.1l-0.3-0.1c-0.1-0.1-0.5-0.2-0.8-0.4
	c-0.3-0.1-1.4-0.7-2.4-1.1s-2.3-1-2.8-1.3c-1.1-0.5-1.4-0.6-1.8-0.4c-0.4,0.2-0.7,0.7-0.7,1.1c0,0.1,0.1,0.4,0.2,0.6
	c0.2,0.6,0.4,1.2,0.5,1.9c0.1,0.3,0.1,0.7,0.2,0.9c0.1,0.4,0.7,2.8,0.7,3.1c0,0.2,0,0.2-0.1,0.1c-0.1,0-0.9-0.4-3.7-1.6
	c-0.6-0.3-1.3-0.6-1.6-0.7l-0.5-0.2l-0.1-0.5c-0.5-2.1-1.3-5.1-1.4-5.4c-0.2-0.4-0.8-0.5-1.2-0.4c-0.4,0.1-0.7,0.5-0.7,1
	c0,0.1,0.1,0.5,0.2,0.9c0.3,1.2,0.8,3.3,0.8,3.3s-1.4-0.6-2-0.8c-0.6-0.3-1.1-0.2-1.4,0.3c-0.3,0.4-0.2,0.9,0.1,1.3
	c0.1,0.2,0.8,0.5,2,1c0.4,0.2,0.7,0.3,0.7,0.3c0.1,0.1-1.7,0.9-2.6,1.2c-0.3,0.1-0.6,0.2-0.7,0.3c-0.7,0.6-0.3,1.8,0.7,1.8
	c0.4,0,1.2-0.3,2.5-0.9c0.4-0.2,1.1-0.5,1.6-0.7s1-0.4,1.1-0.5c0.1-0.1,0.1-0.1,0.9,0.2c0.4,0.2,1.4,0.6,2.1,0.9
	c0.7,0.3,1.4,0.6,1.5,0.6c0.1,0,0.1,0.1,0,0.1c0,0-0.4,0.2-0.8,0.5c-2.5,1.4-3.1,1.7-3.9,2.2c-0.8,0.5-1,0.9-1,1.4
	c0,0.5,0.3,0.9,0.9,1.1c0.8,0.3,4.3,1.4,4.9,1.5C129.7,286.3,129.7,286.3,128.3,287z M146.4,279.8l0.2,0.1c0.1,0.1,0.4,0.2,0.7,0.3
	c0.3,0.1,1.3,0.5,2.2,0.8l1.7,0.6l-0.9,0.7c-1.2,0.9-1.6,1.2-2.5,1.7c-0.4,0.2-0.8,0.5-0.9,0.5l-0.2,0.1l-1.3-0.5
	c-0.7-0.3-1.6-0.7-2-0.9l-0.7-0.3l0-0.4c0-0.2,0-0.5-0.1-0.5c0-0.1-0.2-0.1,2.8-1.6L146.4,279.8z M140.5,277.6l0-1.9l0.3-0.2
	c0.1-0.1,0.7-0.6,1.3-1.1c0.6-0.5,1.2-1,1.4-1.1s0.5-0.4,0.8-0.7l0.6-0.4l0,0.5c0,0.2,0,1.1,0,1.8c0,0.8,0,1.7-0.1,2.3
	c0,0.5-0.1,1.1-0.1,1.3l0,0.4l-1.5,0.8c-0.8,0.4-1.5,0.8-1.7,0.9l-0.2,0.1l-0.3-0.1c-0.2-0.1-0.4-0.2-0.5-0.2
	c-0.1,0-0.2-0.1-0.2-0.1C140.5,279.5,140.5,278.7,140.5,277.6z M140.8,286.1c0.5-0.3,0.7-0.5,1-0.9c0.1-0.2,0.2-0.3,0.3-0.3
	c0,0,0.2,0.1,0.3,0.1c0.1,0.1,0.7,0.3,1.2,0.5c0.5,0.2,1,0.5,1,0.5c0,0,0.1,0.2,0.1,0.4c0.2,0.8,1,2.9,1.4,4
	c0.3,0.6,0.5,1.2,0.4,1.2s-0.6-0.2-1.4-0.5s-1.8-0.7-2.4-0.9c-0.6-0.2-1.3-0.5-1.7-0.6l-0.6-0.2v-0.9c0-0.5,0-1.2,0-1.5l0-0.5
	L140.8,286.1z M138.4,289.4l-0.1,0.1c-0.1,0.1-0.5,0.4-0.9,0.6c-0.8,0.6-2.2,1.5-3.1,2.2c-0.3,0.2-0.6,0.4-0.6,0.4
	c0,0-0.1-0.4-0.1-0.8c0-0.4-0.1-1.3-0.1-2c-0.1-0.7-0.1-1.7-0.1-2.2l0-1l0.8-0.5c0.9-0.5,2-1.1,2-1.1c0,0,0.2,0.2,0.4,0.3
	c0.3,0.3,0.4,0.4,0.8,0.6c0.3,0.1,0.6,0.3,0.7,0.3l0.3,0.1l0,0.3c0,0.2,0,0.8,0,1.4V289.4z M133.1,273.4c0.4,0.1,1.1,0.5,1.7,0.7
	c1.4,0.6,3.6,1.7,3.7,1.7c0.1,0.1,0,3.4-0.1,3.4c0,0-0.1,0-0.2,0c-0.1,0-0.7,0.2-1,0.4c-0.1,0.1-0.3,0.2-0.4,0.3l-0.2,0.2L136,280
	c-2.2-0.9-2.2-0.9-2.2-1c-0.1-0.5-1-4.4-1-4.6c0-0.1-0.1-0.4-0.2-0.7l-0.1-0.5L133.1,273.4z M128.3,283.8c-0.7-0.2-1.3-0.4-1.3-0.4
	c0,0,1-0.6,2.5-1.4c0.4-0.2,1.1-0.6,1.5-0.9c0.5-0.3,0.9-0.5,0.9-0.5c0.1,0,0.9,0.3,1.8,0.7l1.7,0.7l0,0.2c0,0.1,0,0.4,0,0.6l0,0.4
	l-1.6,0.9c-0.9,0.5-1.6,0.9-1.7,0.9c0,0-0.4-0.1-0.8-0.2C130.4,284.4,129.9,284.2,128.3,283.8z M260.5,185c-0.6-0.2-1.2-0.5-1.5-0.6
	l-0.5-0.2l-0.1-0.4c-0.5-2-1.2-4.7-1.3-5c-0.2-0.3-0.7-0.5-1.1-0.4c-0.4,0.1-0.6,0.5-0.7,0.9c0,0.1,0.1,0.5,0.2,0.9
	c0.3,1.1,0.8,3,0.7,3.1c0,0-1.3-0.5-1.9-0.8c-0.5-0.2-1-0.2-1.3,0.3c-0.2,0.3-0.2,0.9,0.1,1.2c0.1,0.2,0.7,0.5,1.8,0.9
	c0.3,0.1,0.6,0.3,0.7,0.3c0.1,0.1-1.6,0.8-2.4,1.1c-0.3,0.1-0.5,0.2-0.6,0.3c-0.7,0.6-0.3,1.7,0.6,1.7c0.3,0,1.1-0.3,2.3-0.9
	c0.4-0.2,1-0.5,1.5-0.7s0.9-0.4,1-0.5c0.1-0.1,0.1-0.1,0.8,0.2c0.4,0.2,1.3,0.5,1.9,0.8c0.7,0.3,1.3,0.6,1.4,0.6
	c0.1,0,0.1,0.1,0,0.1c0,0-0.4,0.2-0.8,0.4c-2.3,1.3-2.9,1.5-3.6,2.1c-0.7,0.5-0.9,0.8-1,1.3c0,0.5,0.2,0.8,0.8,1
	c0.8,0.3,4,1.3,4.5,1.4c0.2,0,0.2,0-1.1,0.7c-0.8,0.4-1.8,1-2.6,1.4l-0.4,0.2l-1.5-0.6c-0.8-0.3-1.9-0.8-2.4-1
	c-1.1-0.5-1.2-0.5-1.6-0.3c-0.7,0.4-0.7,1.4,0.1,1.7c0.2,0.1,2,0.8,2.6,1.1c0.3,0.1,0.6,0.2,0.6,0.2c0,0-0.8,0.5-1.8,1
	c-0.5,0.3-0.7,0.5-0.7,0.8c0,0.3,0.1,0.6,0.3,0.8c0.2,0.2,0.3,0.2,0.6,0.2c0.3,0,0.5-0.1,1.4-0.6c0.8-0.4,1-0.6,1-0.5
	c0,0-0.1,0.6-0.3,1.3c-0.4,1.8-0.4,1.8-0.4,2.1c0.1,0.9,1.4,1.2,1.8,0.3c0-0.1,0.1-0.3,0.1-0.5c0-0.2,0.2-0.9,0.3-1.6
	c0.1-0.7,0.3-1.6,0.4-2c0.1-0.4,0.2-0.8,0.2-0.9c0.1-0.1,0.6-0.4,1.8-1c0.5-0.3,1.4-0.7,1.9-1c0.5-0.3,1-0.5,1-0.5c0,0,0,0.2,0,0.5
	c0,0.3,0,0.8,0.1,1.2c0,0.4,0.1,1.3,0.1,2c0.2,2.8,0.2,3,0.6,3.4c0.3,0.2,0.7,0.3,1,0.2c0,0,0.6-0.4,1.3-0.9
	c0.6-0.5,1.6-1.2,2.1-1.6c1.2-0.9,1.3-0.9,1.3-0.9c0,0,0,0.9,0,2.1l0,2.1l-0.4,0.3c-0.6,0.5-3.1,2.5-3.3,2.7
	c-0.3,0.3-0.3,0.7-0.1,1.1c0.2,0.3,0.4,0.5,0.7,0.5c0.4,0,0.6-0.1,0.9-0.4c0.2-0.2,2.1-1.9,2.2-1.9c0,0,0.1,1.1,0.1,1.9
	c0,0.5,0,0.6,0.1,0.8c0.3,0.6,1.1,0.7,1.5,0.2c0.3-0.3,0.3-0.3,0.3-1.6l0-1.2l0.2,0.2c0.1,0.1,0.5,0.5,0.9,0.9c1,1,1.3,1.3,1.8,1.3
	c0.7,0,1.2-0.7,0.9-1.3c-0.1-0.2-0.2-0.3-0.5-0.5c-0.1-0.1-1-0.9-1.9-1.8l-1.7-1.6l0-2.1c0-2,0-2.1,0.1-2.1c0.5,0.2,2.9,1,3.8,1.4
	c1.8,0.7,2.4,0.9,3.1,0.9c0.4,0,0.6-0.1,0.9-0.3c0.2-0.2,0.3-0.5,0.3-0.8c0-0.3-0.2-1-0.9-2.7c-0.4-1-0.9-2.4-0.9-2.5c0,0,0,0,0,0
	c0.1,0,1.8,0.8,2.7,1.2c0.8,0.4,2.3,1.1,2.7,1.3c0.2,0.1,0.3,0.2,0.3,0.2c0,0,0.1,0.2,0.1,0.5c0.1,0.3,0.2,0.9,0.3,1.4
	c0.1,0.5,0.3,1.3,0.4,1.9c0.1,0.6,0.2,1.1,0.3,1.2c0,0.1,0.1,0.2,0.2,0.3c0.6,0.5,1.6,0.1,1.6-0.7c0-0.2-0.4-2-0.6-3
	c-0.1-0.3-0.1-0.6-0.1-0.6c0.1,0,1.5,0.6,1.6,0.7c0.3,0.2,0.8,0.1,1.1-0.1c0.4-0.3,0.5-0.9,0.2-1.3c-0.1-0.2-0.5-0.4-1.5-0.8
	c-0.2-0.1-0.4-0.2-0.4-0.2c0-0.1,1.4-0.6,2.2-0.8c0.6-0.2,0.9-0.8,0.7-1.4c-0.2-0.4-0.6-0.6-1-0.5c-0.3,0.1-1.4,0.4-2.1,0.7
	c-0.4,0.1-1,0.4-1.5,0.6l-0.8,0.3l-0.8-0.4c-0.5-0.2-1.4-0.6-2.1-1c-0.7-0.3-1.4-0.7-1.6-0.7c-0.2-0.1-0.3-0.1-0.3-0.2
	c0,0,0.2-0.1,0.4-0.2c1-0.6,3.7-2.5,4.1-3.1c0.2-0.3,0.3-0.4,0.4-0.6c0.1-0.3,0.1-0.6-0.1-0.8c-0.2-0.3-0.4-0.4-1-0.6
	c-0.5-0.1-3.6-1.2-3.8-1.2c-0.1-0.1-0.2,0,2-1.1l1.7-0.8l0.3,0.2c0.7,0.4,3,1.7,4,2.2c0.5,0.3,0.8,0.3,1.2,0
	c0.4-0.3,0.5-1.1,0.1-1.4c-0.1-0.1-0.7-0.4-1.4-0.8c-1.9-1-2.2-1.2-2.2-1.2c0-0.1,1.3-0.8,1.4-0.8c0.2,0,0.4-0.1,0.6-0.3
	c0.3-0.3,0.4-0.6,0.3-0.9c-0.1-0.3-0.4-0.6-0.7-0.7c-0.4-0.1-0.6,0-1.4,0.4c-0.4,0.2-0.8,0.4-0.8,0.4c-0.1-0.1,0.5-1.9,0.8-2.6
	c0.2-0.4,0.2-0.8,0-1.1c-0.3-0.5-1.1-0.5-1.5-0.1c-0.2,0.3-0.7,1.5-1.1,3.1c-0.1,0.5-0.3,1.2-0.4,1.5l-0.2,0.5l-1.6,0.8
	c-0.9,0.4-1.9,1-2.2,1.1c-0.5,0.2-0.6,0.3-0.7,0.3c0,0,0-0.4,0-0.7c0.1-0.8,0.1-2.1,0-3.8c-0.1-1.6-0.1-2-0.5-2.4
	c-0.2-0.2-0.4-0.3-0.7-0.3c-0.3,0-0.3,0-1.3,0.7c-0.9,0.6-1.4,1-2.1,1.6c-0.3,0.3-0.7,0.6-0.9,0.8l-0.4,0.3v-0.6c0-0.3,0-1,0-1.6
	l0-1l1.2-0.8c0.7-0.4,1.6-1,2-1.3c0.7-0.5,0.9-0.6,1-0.7c0.3-0.5,0.1-1-0.3-1.3c-0.3-0.2-0.6-0.2-0.8-0.1c-0.2,0.1-2.3,1.4-2.8,1.7
	c-0.1,0.1-0.2,0.1-0.2,0.1c0,0,0-0.6,0-1.2l0-1.2l-0.1-0.2c-0.2-0.4-0.7-0.6-1.1-0.5c-0.2,0.1-0.5,0.3-0.6,0.5
	c-0.1,0.1-0.1,0.4-0.1,1.2l-0.1,1l-0.5-0.5c-0.5-0.5-0.7-0.7-1.1-1.2c-0.3-0.3-0.5-0.5-0.9-0.4c-0.5,0-0.7,0.3-0.9,0.7
	c-0.1,0.5,0.2,1,2,2.9c0.6,0.6,1.1,1.1,1.1,1.2c0.1,0.1,0.1,0.2,0.1,2.1l0,2l-0.2-0.1c-0.1-0.1-0.5-0.2-0.8-0.4
	c-0.3-0.1-1.3-0.6-2.2-1c-0.9-0.4-2.1-1-2.6-1.2c-1-0.5-1.3-0.5-1.6-0.4c-0.4,0.2-0.7,0.6-0.6,1c0,0.1,0.1,0.3,0.2,0.6
	c0.2,0.5,0.4,1.1,0.5,1.7c0.1,0.3,0.1,0.6,0.2,0.8c0.1,0.3,0.6,2.6,0.7,2.9c0,0.1,0,0.1-0.1,0.1C263.8,186.4,263.1,186.1,260.5,185z
	 M277.8,188.2l0.2,0.1c0.1,0.1,0.4,0.2,0.6,0.3c0.3,0.1,1.2,0.4,2.1,0.7l1.6,0.5l-0.9,0.6c-1.1,0.8-1.5,1.1-2.3,1.5
	c-0.4,0.2-0.7,0.4-0.9,0.5l-0.2,0.1l-1.2-0.5c-0.6-0.3-1.4-0.6-1.8-0.8l-0.7-0.3l0-0.4c0-0.2,0-0.4-0.1-0.5c0-0.1-0.2-0.1,2.5-1.5
	L277.8,188.2z M272.4,186.1l0-1.8l0.2-0.2c0.1-0.1,0.7-0.6,1.2-1c0.5-0.5,1.1-0.9,1.3-1.1s0.5-0.4,0.8-0.6l0.5-0.4l0,0.4
	c0,0.2,0,1,0,1.7c0,0.7,0,1.6-0.1,2.1c0,0.5-0.1,1-0.1,1.2l0,0.3l-1.3,0.7c-0.7,0.4-1.4,0.7-1.5,0.8l-0.2,0.1l-0.3-0.1
	c-0.1-0.1-0.3-0.2-0.5-0.2c-0.1,0-0.2-0.1-0.2-0.1C272.4,187.9,272.4,187.1,272.4,186.1z M272.6,194c0.4-0.3,0.7-0.5,0.9-0.8
	c0.1-0.1,0.2-0.3,0.2-0.3c0,0,0.2,0.1,0.3,0.1c0.1,0.1,0.6,0.3,1.1,0.5c0.5,0.2,0.9,0.4,1,0.4c0,0,0.1,0.2,0.1,0.3
	c0.2,0.7,0.9,2.7,1.3,3.7c0.2,0.6,0.4,1.1,0.4,1.1c0,0-0.6-0.2-1.3-0.5c-0.7-0.3-1.7-0.6-2.2-0.8c-0.5-0.2-1.2-0.4-1.5-0.6l-0.6-0.2
	v-0.9c0-0.5,0-1.1,0-1.4l0-0.5L272.6,194z M270.4,197l-0.1,0.1c-0.1,0.1-0.4,0.3-0.8,0.6c-0.8,0.5-2.1,1.4-2.9,2
	c-0.3,0.2-0.6,0.4-0.6,0.4c0,0-0.1-0.3-0.1-0.7c0-0.4-0.1-1.2-0.1-1.8c-0.1-0.6-0.1-1.5-0.1-2l0-0.9l0.8-0.4c0.8-0.4,1.8-1,1.8-1
	c0,0,0.2,0.1,0.3,0.3c0.2,0.2,0.4,0.4,0.8,0.5c0.3,0.1,0.6,0.3,0.7,0.3l0.2,0.1l0,0.3c0,0.2,0,0.8,0,1.3V197z M265.6,182.3
	c0.3,0.1,1,0.5,1.5,0.7c1.3,0.6,3.3,1.5,3.4,1.6c0.1,0.1,0,3.1-0.1,3.2c0,0-0.1,0-0.2,0c-0.1,0-0.6,0.2-0.9,0.3
	c-0.1,0.1-0.3,0.2-0.4,0.3l-0.2,0.2l-0.6-0.3c-2-0.9-2-0.9-2-0.9c-0.1-0.5-0.9-4.1-1-4.3c0-0.1-0.1-0.4-0.1-0.6L265,182L265.6,182.3
	z M264.5,188.9c0.1,0,0.8,0.3,1.7,0.7l1.6,0.7l0,0.1c0,0.1,0,0.3,0,0.5l0,0.4l-1.5,0.8c-0.8,0.4-1.5,0.8-1.6,0.8s-0.4-0.1-0.7-0.2
	c-0.9-0.3-1.4-0.5-2.9-0.9c-0.7-0.2-1.2-0.4-1.2-0.4c0,0,0.9-0.5,2.3-1.3c0.4-0.2,1-0.6,1.4-0.8S264.5,188.9,264.5,188.9z"/>
</svg>
