  0
SECTION
  2
HEADER
  9
$ACADVER
  1
AC1024
  9
$ACADMAINTVER
 70
     6
  9
$DWGCODEPAGE
  3
ANSI_1252
  9
$INSBASE
 10
0.0
 20
0.0
 30
0.0
  9
$EXTMIN
 10
1.000000000000000E+20
 20
1.000000000000000E+20
 30
1.000000000000000E+20
  9
$EXTMAX
 10
-1.000000000000000E+20
 20
-1.000000000000000E+20
 30
-1.000000000000000E+20
  9
$LIMMIN
 10
0.0
 20
0.0
  9
$LIMMAX
 10
12.0
 20
9.0
  9
$ORTHOMODE
 70
     0
  9
$REGENMODE
 70
     1
  9
$FILLMODE
 70
     1
  9
$QTEXTMODE
 70
     0
  9
$MIRRTEXT
 70
     1
  9
$LTSCALE
 40
1.0
  9
$ATTMODE
 70
     1
  9
$TEXTSIZE
 40
0.2
  9
$TRACEWID
 40
0.05
  9
$TEXTSTYLE
  7
Standard
  9
$CLAYER
  8
0
  9
$CELTYPE
  6
ByLayer
  9
$CECOLOR
 62
   256
  9
$CELTSCALE
 40
1.0
  9
$DISPSILH
 70
     0
  9
$DIMSCALE
 40
1.0
  9
$DIMASZ
 40
0.18
  9
$DIMEXO
 40
0.0625
  9
$DIMDLI
 40
0.38
  9
$DIMRND
 40
0.0
  9
$DIMDLE
 40
0.0
  9
$DIMEXE
 40
0.18
  9
$DIMTP
 40
0.0
  9
$DIMTM
 40
0.0
  9
$DIMTXT
 40
0.18
  9
$DIMCEN
 40
0.09
  9
$DIMTSZ
 40
0.0
  9
$DIMTOL
 70
     0
  9
$DIMLIM
 70
     0
  9
$DIMTIH
 70
     1
  9
$DIMTOH
 70
     1
  9
$DIMSE1
 70
     0
  9
$DIMSE2
 70
     0
  9
$DIMTAD
 70
     0
  9
$DIMZIN
 70
     0
  9
$DIMBLK
  1

  9
$DIMASO
 70
     1
  9
$DIMSHO
 70
     1
  9
$DIMPOST
  1

  9
$DIMAPOST
  1

  9
$DIMALT
 70
     0
  9
$DIMALTD
 70
     2
  9
$DIMALTF
 40
25.4
  9
$DIMLFAC
 40
1.0
  9
$DIMTOFL
 70
     0
  9
$DIMTVP
 40
0.0
  9
$DIMTIX
 70
     0
  9
$DIMSOXD
 70
     0
  9
$DIMSAH
 70
     0
  9
$DIMBLK1
  1

  9
$DIMBLK2
  1

  9
$DIMSTYLE
  2
Standard
  9
$DIMCLRD
 70
     0
  9
$DIMCLRE
 70
     0
  9
$DIMCLRT
 70
     0
  9
$DIMTFAC
 40
1.0
  9
$DIMGAP
 40
0.09
  9
$DIMJUST
 70
     0
  9
$DIMSD1
 70
     0
  9
$DIMSD2
 70
     0
  9
$DIMTOLJ
 70
     1
  9
$DIMTZIN
 70
     0
  9
$DIMALTZ
 70
     0
  9
$DIMALTTZ
 70
     0
  9
$DIMUPT
 70
     0
  9
$DIMDEC
 70
     4
  9
$DIMTDEC
 70
     4
  9
$DIMALTU
 70
     2
  9
$DIMALTTD
 70
     2
  9
$DIMTXSTY
  7
Standard
  9
$DIMAUNIT
 70
     0
  9
$DIMADEC
 70
     0
  9
$DIMALTRND
 40
0.0
  9
$DIMAZIN
 70
     0
  9
$DIMDSEP
 70
    46
  9
$DIMATFIT
 70
     3
  9
$DIMFRAC
 70
     0
  9
$DIMLDRBLK
  1

  9
$DIMLUNIT
 70
     2
  9
$DIMLWD
 70
    -2
  9
$DIMLWE
 70
    -2
  9
$DIMTMOVE
 70
     0
  9
$DIMFXL
 40
1.0
  9
$DIMFXLON
 70
     0
  9
$DIMJOGANG
 40
0.7853981633974483
  9
$DIMTFILL
 70
     0
  9
$DIMTFILLCLR
 70
     0
  9
$DIMARCSYM
 70
     0
  9
$DIMLTYPE
  6

  9
$DIMLTEX1
  6

  9
$DIMLTEX2
  6

  9
$DIMTXTDIRECTION
 70
     0
  9
$LUNITS
 70
     2
  9
$LUPREC
 70
     4
  9
$SKETCHINC
 40
0.1
  9
$FILLETRAD
 40
0.5
  9
$AUNITS
 70
     0
  9
$AUPREC
 70
     0
  9
$MENU
  1
.
  9
$ELEVATION
 40
0.0
  9
$PELEVATION
 40
0.0
  9
$THICKNESS
 40
0.0
  9
$LIMCHECK
 70
     0
  9
$CHAMFERA
 40
0.5
  9
$CHAMFERB
 40
0.5
  9
$CHAMFERC
 40
1.0
  9
$CHAMFERD
 40
0.0
  9
$SKPOLY
 70
     0
  9
$TDCREATE
 40
2458603.75776956
  9
$TDUCREATE
 40
2458603.50776956
  9
$TDUPDATE
 40
2458603.757769595
  9
$TDUUPDATE
 40
2458603.507769595
  9
$TDINDWG
 40
0.0000000116
  9
$TDUSRTIMER
 40
0.0000000116
  9
$USRTIMER
 70
     1
  9
$ANGBASE
 50
0.0
  9
$ANGDIR
 70
     0
  9
$PDMODE
 70
     0
  9
$PDSIZE
 40
0.0
  9
$PLINEWID
 40
0.0
  9
$SPLFRAME
 70
     0
  9
$SPLINETYPE
 70
     6
  9
$SPLINESEGS
 70
     8
  9
$HANDSEED
  5
54
  9
$SURFTAB1
 70
     6
  9
$SURFTAB2
 70
     6
  9
$SURFTYPE
 70
     6
  9
$SURFU
 70
     6
  9
$SURFV
 70
     6
  9
$UCSBASE
  2

  9
$UCSNAME
  2

  9
$UCSORG
 10
0.0
 20
0.0
 30
0.0
  9
$UCSXDIR
 10
1.0
 20
0.0
 30
0.0
  9
$UCSYDIR
 10
0.0
 20
1.0
 30
0.0
  9
$UCSORTHOREF
  2

  9
$UCSORTHOVIEW
 70
     0
  9
$UCSORGTOP
 10
0.0
 20
0.0
 30
0.0
  9
$UCSORGBOTTOM
 10
0.0
 20
0.0
 30
0.0
  9
$UCSORGLEFT
 10
0.0
 20
0.0
 30
0.0
  9
$UCSORGRIGHT
 10
0.0
 20
0.0
 30
0.0
  9
$UCSORGFRONT
 10
0.0
 20
0.0
 30
0.0
  9
$UCSORGBACK
 10
0.0
 20
0.0
 30
0.0
  9
$PUCSBASE
  2

  9
$PUCSNAME
  2

  9
$PUCSORG
 10
0.0
 20
0.0
 30
0.0
  9
$PUCSXDIR
 10
1.0
 20
0.0
 30
0.0
  9
$PUCSYDIR
 10
0.0
 20
1.0
 30
0.0
  9
$PUCSORTHOREF
  2

  9
$PUCSORTHOVIEW
 70
     0
  9
$PUCSORGTOP
 10
0.0
 20
0.0
 30
0.0
  9
$PUCSORGBOTTOM
 10
0.0
 20
0.0
 30
0.0
  9
$PUCSORGLEFT
 10
0.0
 20
0.0
 30
0.0
  9
$PUCSORGRIGHT
 10
0.0
 20
0.0
 30
0.0
  9
$PUCSORGFRONT
 10
0.0
 20
0.0
 30
0.0
  9
$PUCSORGBACK
 10
0.0
 20
0.0
 30
0.0
  9
$USERI1
 70
     0
  9
$USERI2
 70
     0
  9
$USERI3
 70
     0
  9
$USERI4
 70
     0
  9
$USERI5
 70
     0
  9
$USERR1
 40
0.0
  9
$USERR2
 40
0.0
  9
$USERR3
 40
0.0
  9
$USERR4
 40
0.0
  9
$USERR5
 40
0.0
  9
$WORLDVIEW
 70
     1
  9
$SHADEDGE
 70
     3
  9
$SHADEDIF
 70
    70
  9
$TILEMODE
 70
     1
  9
$MAXACTVP
 70
    64
  9
$PINSBASE
 10
0.0
 20
0.0
 30
0.0
  9
$PLIMCHECK
 70
     0
  9
$PEXTMIN
 10
1.000000000000000E+20
 20
1.000000000000000E+20
 30
1.000000000000000E+20
  9
$PEXTMAX
 10
-1.000000000000000E+20
 20
-1.000000000000000E+20
 30
-1.000000000000000E+20
  9
$PLIMMIN
 10
0.0
 20
0.0
  9
$PLIMMAX
 10
12.0
 20
9.0
  9
$UNITMODE
 70
     0
  9
$VISRETAIN
 70
     1
  9
$PLINEGEN
 70
     0
  9
$PSLTSCALE
 70
     1
  9
$TREEDEPTH
 70
  3020
  9
$CMLSTYLE
  2
Standard
  9
$CMLJUST
 70
     0
  9
$CMLSCALE
 40
1.0
  9
$PROXYGRAPHICS
 70
     1
  9
$MEASUREMENT
 70
     0
  9
$CELWEIGHT
370
    -1
  9
$ENDCAPS
280
     0
  9
$JOINSTYLE
280
     0
  9
$LWDISPLAY
290
     1
  9
$INSUNITS
 70
     1
  9
$HYPERLINKBASE
  1

  9
$STYLESHEET
  1

  9
$XEDIT
290
     1
  9
$CEPSNTYPE
380
     0
  9
$PSTYLEMODE
290
     1
  9
$FINGERPRINTGUID
  2
{472B3D2A-63E7-4617-9EEF-23AE9CB85044}
  9
$VERSIONGUID
  2
{FAEB1C32-E019-11D5-929B-00C0DF256EC4}
  9
$EXTNAMES
290
     1
  9
$PSVPSCALE
 40
0.0
  9
$OLESTARTUP
290
     0
  9
$SORTENTS
280
   127
  9
$INDEXCTL
280
     0
  9
$HIDETEXT
280
     1
  9
$XCLIPFRAME
280
     2
  9
$HALOGAP
280
     0
  9
$OBSCOLOR
 70
   257
  9
$OBSLTYPE
280
     0
  9
$INTERSECTIONDISPLAY
280
     0
  9
$INTERSECTIONCOLOR
 70
   257
  9
$DIMASSOC
280
     2
  9
$PROJECTNAME
  1

  9
$CAMERADISPLAY
290
     0
  9
$LENSLENGTH
 40
50.0
  9
$CAMERAHEIGHT
 40
0.0
  9
$STEPSPERSEC
 40
2.0
  9
$STEPSIZE
 40
6.0
  9
$3DDWFPREC
 40
2.0
  9
$PSOLWIDTH
 40
0.25
  9
$PSOLHEIGHT
 40
4.0
  9
$LOFTANG1
 40
1.570796326794897
  9
$LOFTANG2
 40
1.570796326794897
  9
$LOFTMAG1
 40
0.0
  9
$LOFTMAG2
 40
0.0
  9
$LOFTPARAM
 70
     7
  9
$LOFTNORMALS
280
     1
  9
$LATITUDE
 40
37.795
  9
$LONGITUDE
 40
-122.394
  9
$NORTHDIRECTION
 40
0.0
  9
$TIMEZONE
 70
 -8000
  9
$LIGHTGLYPHDISPLAY
280
     1
  9
$TILEMODELIGHTSYNCH
280
     1
  9
$CMATERIAL
347
3C
  9
$SOLIDHIST
280
     1
  9
$SHOWHIST
280
     1
  9
$DWFFRAME
280
     2
  9
$DGNFRAME
280
     2
  9
$REALWORLDSCALE
290
     1
  9
$INTERFERECOLOR
 62
   256
  9
$CSHADOW
280
     0
  9
$SHADOWPLANELOCATION
 40
0.0
  0
ENDSEC
  0
SECTION
  2
CLASSES
  0
CLASS
  1
ACDBDICTIONARYWDFLT
  2
AcDbDictionaryWithDefault
  3
ObjectDBX Classes
 90
        0
 91
        4
280
     0
281
     0
  0
CLASS
  1
VISUALSTYLE
  2
AcDbVisualStyle
  3
ObjectDBX Classes
 90
     4095
 91
        4
280
     0
281
     0
  0
CLASS
  1
MATERIAL
  2
AcDbMaterial
  3
ObjectDBX Classes
 90
     1153
 91
        4
280
     0
281
     0
  0
CLASS
  1
SUN
  2
AcDbSun
  3
SCENEOE
 90
     1024
 91
        4
280
     0
281
     0
  0
ENDSEC
  0
SECTION
  2
TABLES
  0
TABLE
  2
VPORT
  5
8
330
0
100
AcDbSymbolTable
 70
     1
  0
VPORT
  5
29
330
8
100
AcDbSymbolTableRecord
100
AcDbViewportTableRecord
  2
*Active
 70
     0
 10
0.0
 20
0.0
 11
1.0
 21
1.0
 12
0.0
 22
0.0
 13
0.0
 23
0.0
 14
0.5
 24
0.5
 15
0.5
 25
0.5
 16
0.0
 26
0.0
 36
1.0
 17
3.0
 27
-3.0
 37
0.0
 40
6.0
 41
1.0
 42
50.0
 43
0.0
 44
0.0
 50
0.0
 51
0.0
 71
     0
 72
   100
 73
     1
 74
     3
 75
     0
 76
     0
 77
     0
 78
     0
281
     0
 65
     1
110
0.0
120
0.0
130
0.0
111
1.0
121
0.0
131
0.0
112
0.0
122
1.0
132
0.0
 79
     0
146
0.0
 60
     3
 61
     5
292
     1
282
     1
141
0.0
142
0.0
 63
   250
361
3F
  0
ENDTAB
  0
TABLE
  2
LTYPE
  5
5
330
0
100
AcDbSymbolTable
 70
     1
  0
LTYPE
  5
14
330
5
100
AcDbSymbolTableRecord
100
AcDbLinetypeTableRecord
  2
ByBlock
 70
     0
  3

 72
    65
 73
     0
 40
0.0
  0
LTYPE
  5
15
330
5
100
AcDbSymbolTableRecord
100
AcDbLinetypeTableRecord
  2
ByLayer
 70
     0
  3

 72
    65
 73
     0
 40
0.0
  0
LTYPE
  5
16
330
5
100
AcDbSymbolTableRecord
100
AcDbLinetypeTableRecord
  2
Continuous
 70
     0
  3
Solid line
 72
    65
 73
     0
 40
0.0
  0
ENDTAB
  0
TABLE
  2
LAYER
  5
2
330
0
100
AcDbSymbolTable
 70
     2
  0
LAYER
  5
10
330
2
100
AcDbSymbolTableRecord
100
AcDbLayerTableRecord
  2
0
 70
     0
 62
     7
  6
Continuous
370
    -3
390
F
347
3E
  0
LAYER
  5
40
330
2
100
AcDbSymbolTableRecord
100
AcDbLayerTableRecord
  2
Layer 1
 70
     0
 62
     7
  6
Continuous
370
    -3
390
F
347
3E
  0
ENDTAB
  0
TABLE
  2
STYLE
  5
3
330
0
100
AcDbSymbolTable
 70
     1
  0
STYLE
  5
11
330
3
100
AcDbSymbolTableRecord
100
AcDbTextStyleTableRecord
  2
Standard
 70
     0
 40
0.0
 41
1.0
 50
0.0
 71
     0
 42
0.2
  3
txt
  4

  0
ENDTAB
  0
TABLE
  2
VIEW
  5
6
330
0
100
AcDbSymbolTable
 70
     0
  0
ENDTAB
  0
TABLE
  2
UCS
  5
7
330
0
100
AcDbSymbolTable
 70
     0
  0
ENDTAB
  0
TABLE
  2
APPID
  5
9
330
0
100
AcDbSymbolTable
 70
     1
  0
APPID
  5
12
330
9
100
AcDbSymbolTableRecord
100
AcDbRegAppTableRecord
  2
ACAD
 70
     0
  0
ENDTAB
  0
TABLE
  2
DIMSTYLE
  5
A
330
0
100
AcDbSymbolTable
 70
     1
100
AcDbDimStyleTable
  0
DIMSTYLE
105
27
330
A
100
AcDbSymbolTableRecord
100
AcDbDimStyleTableRecord
  2
Standard
 70
     0
178
     0
340
11
  0
ENDTAB
  0
TABLE
  2
BLOCK_RECORD
  5
1
330
0
100
AcDbSymbolTable
 70
     1
  0
BLOCK_RECORD
  5
1F
330
1
100
AcDbSymbolTableRecord
100
AcDbBlockTableRecord
  2
*Model_Space
340
22
 70
     0
280
     1
281
     0
  0
BLOCK_RECORD
  5
1B
330
1
100
AcDbSymbolTableRecord
100
AcDbBlockTableRecord
  2
*Paper_Space
340
1E
 70
     0
280
     1
281
     0
  0
BLOCK_RECORD
  5
23
330
1
100
AcDbSymbolTableRecord
100
AcDbBlockTableRecord
  2
*Paper_Space0
340
26
 70
     0
280
     1
281
     0
  0
ENDTAB
  0
ENDSEC
  0
SECTION
  2
BLOCKS
  0
BLOCK
  5
20
330
1F
100
AcDbEntity
  8
0
100
AcDbBlockBegin
  2
*Model_Space
 70
     0
 10
0.0
 20
0.0
 30
0.0
  3
*Model_Space
  1

  0
ENDBLK
  5
21
330
1F
100
AcDbEntity
  8
0
100
AcDbBlockEnd
  0
BLOCK
  5
1C
330
1B
100
AcDbEntity
 67
     1
  8
0
100
AcDbBlockBegin
  2
*Paper_Space
 70
     0
 10
0.0
 20
0.0
 30
0.0
  3
*Paper_Space
  1

  0
ENDBLK
  5
1D
330
1B
100
AcDbEntity
 67
     1
  8
0
100
AcDbBlockEnd
  0
BLOCK
  5
24
330
23
100
AcDbEntity
  8
0
100
AcDbBlockBegin
  2
*Paper_Space0
 70
     0
 10
0.0
 20
0.0
 30
0.0
  3
*Paper_Space0
  1

  0
ENDBLK
  5
25
330
23
100
AcDbEntity
  8
0
100
AcDbBlockEnd
  0
ENDSEC
  0
SECTION
  2
ENTITIES
  0
SPLINE
  5
41
330
1F
100
AcDbEntity
  8
Layer 1
370
     0
100
AcDbSpline
210
0.0
220
0.0
230
1.0
 70
    11
 71
     3
 72
    98
 73
    94
 74
     0
 42
0.0000000001
 43
0.0000000001
 12
1.0
 22
0.0
 32
0.0
 13
1.0
 23
0.0
 33
0.0
 40
0.0
 40
0.0
 40
0.0
 40
0.0
 40
1.0
 40
1.0
 40
1.0
 40
2.0
 40
2.0
 40
2.0
 40
3.0
 40
3.0
 40
3.0
 40
4.0
 40
4.0
 40
4.0
 40
5.0
 40
5.0
 40
5.0
 40
6.0
 40
6.0
 40
6.0
 40
7.0
 40
7.0
 40
7.0
 40
8.0
 40
8.0
 40
8.0
 40
9.0
 40
9.0
 40
9.0
 40
10.0
 40
10.0
 40
10.0
 40
11.0
 40
11.0
 40
11.0
 40
12.0
 40
12.0
 40
12.0
 40
13.0
 40
13.0
 40
13.0
 40
14.0
 40
14.0
 40
14.0
 40
15.0
 40
15.0
 40
15.0
 40
16.0
 40
16.0
 40
16.0
 40
17.0
 40
17.0
 40
17.0
 40
18.0
 40
18.0
 40
18.0
 40
19.0
 40
19.0
 40
19.0
 40
20.0
 40
20.0
 40
20.0
 40
21.0
 40
21.0
 40
21.0
 40
22.0
 40
22.0
 40
22.0
 40
23.0
 40
23.0
 40
23.0
 40
24.0
 40
24.0
 40
24.0
 40
25.0
 40
25.0
 40
25.0
 40
26.0
 40
26.0
 40
26.0
 40
27.0
 40
27.0
 40
27.0
 40
28.0
 40
28.0
 40
28.0
 40
29.0
 40
29.0
 40
29.0
 40
30.0
 40
30.0
 40
30.0
 40
31.0
 40
31.0
 40
31.0
 40
31.0
 10
1.127519372811359
 20
-3.70804544428918
 30
0.0
 10
1.127519372811359
 20
-3.807609894847297
 30
0.0
 10
1.119134453870275
 20
-3.893051288348058
 30
0.0
 10
1.102405971938487
 20
-3.964410980741857
 30
0.0
 10
1.07948443643617
 20
-4.063086278366654
 30
0.0
 10
1.041168148402069
 20
-4.112423927179053
 30
0.0
 10
0.9874364298609887
 20
-4.112423927179053
 30
0.0
 10
0.9389775949943239
 20
-4.112423927179053
 30
0.0
 10
0.9147533470547967
 20
-4.08775510277284
 30
0.0
 10
0.9147533470547967
 20
-4.038417453960442
 30
0.0
 10
0.9147533470547967
 20
-4.025204227811602
 30
0.0
 10
0.9160767374671902
 20
-4.011970323687592
 30
0.0
 10
0.9187235182920024
 20
-3.998757097538752
 30
0.0
 10
0.9389775949943239
 20
-3.903617733672086
 30
0.0
 10
0.9491201418268752
 20
-3.806720741913978
 30
0.0
 10
0.9491201418268752
 20
-3.70804544428918
 30
0.0
 10
0.9491201418268752
 20
-3.63403897107057
 30
0.0
 10
0.9411901383400618
 20
-3.56576029698067
 30
0.0
 10
0.9253301313664224
 20
-3.503209422019431
 30
0.0
 10
0.888326894757117
 20
-3.364005293014795
 30
0.0
 10
0.8125524546594534
 20
-3.294403228512465
 30
0.0
 10
0.6980274890486144
 20
-3.294403228512465
 30
0.0
 10
0.6143230454641248
 20
-3.294403228512465
 30
0.0
 10
0.5504591190780906
 20
-3.333629347455093
 30
0.0
 10
0.5064150319153037
 20
-3.412019551414788
 30
0.0
 10
0.469411795306011
 20
-3.47723788517601
 30
0.0
 10
0.4509153464951572
 20
-3.563134194131054
 30
0.0
 10
0.4509153464951572
 20
-3.669708478279871
 30
0.0
 10
0.4509153464951572
 20
-3.7719197096628
 30
0.0
 10
0.4777760362718987
 20
-3.868382463941872
 30
0.0
 10
0.5315284327881752
 20
-3.959117419092232
 30
0.0
 10
0.5808557426129634
 20
-4.041932709743403
 30
0.0
 10
0.6649944236765274
 20
-4.141931397780581
 30
0.0
 10
0.7839341369912441
 20
-4.259092805228647
 30
0.0
 10
0.8332614468160449
 20
-4.308451132016241
 30
0.0
 10
0.8786185854036274
 20
-4.358657255786763
 30
0.0
 10
0.9200469087044085
 20
-4.40975253249063
 30
0.0
 10
1.009903049909048
 20
-4.523398684155735
 30
0.0
 10
1.054836290005167
 20
-4.639691616645652
 30
0.0
 10
1.054836290005167
 20
-4.758631329960356
 30
0.0
 10
1.054836290005167
 20
-4.867873072909181
 30
0.0
 10
1.024439666470281
 20
-4.957739553101419
 30
0.0
 10
0.9636567583881211
 20
-5.028210092561898
 30
0.0
 10
0.8834779095741775
 20
-5.120723353578922
 30
0.0
 10
0.7676192145633346
 20
-5.166959306112251
 30
0.0
 10
0.6161013513308009
 20
-5.166959306112251
 30
0.0
 10
0.4830592589339125
 20
-5.166959306112251
 30
0.0
 10
0.3813029430052413
 20
-5.121178269033205
 30
0.0
 10
0.3108324035447873
 20
-5.029533482974279
 30
0.0
 10
0.2544435651912964
 20
-4.954658534797545
 30
0.0
 10
0.2262594850021615
 20
-4.852447303414616
 30
0.0
 10
0.2262594850021615
 20
-4.722941144775884
 30
0.0
 10
0.2262594850021615
 20
-4.686837400087496
 30
0.0
 10
0.234851183695178
 20
-4.656440776552623
 30
0.0
 10
0.2520242420936256
 20
-4.631751274171241
 30
0.0
 10
0.2692076394796711
 20
-4.607103127740225
 30
0.0
 10
0.2923359547339335
 20
-4.594758376549533
 30
0.0
 10
0.3214091878564128
 20
-4.594758376549533
 30
0.0
 10
0.3742620924517471
 20
-4.594758376549533
 30
0.0
 10
0.4006988837370247
 20
-4.627801780909218
 30
0.0
 10
0.4006988837370247
 20
-4.693867911653393
 30
0.0
 10
0.4006988837370247
 20
-4.733507590099912
 30
0.0
 10
0.4064163438781002
 20
-4.774057099454946
 30
0.0
 10
0.4178719421354723
 20
-4.815454405792909
 30
0.0
 10
0.4434195804874055
 20
-4.914129703417706
 30
0.0
 10
0.503313335636234
 20
-4.963446674254909
 30
0.0
 10
0.5975945635323493
 20
-4.963446674254909
 30
0.0
 10
0.7024318977648943
 20
-4.963446674254909
 30
0.0
 10
0.7548609038687648
 20
-4.905755123464233
 30
0.0
 10
0.7548609038687648
 20
-4.790330665932465
 30
0.0
 10
0.7548609038687648
 20
-4.71634487068905
 30
0.0
 10
0.716534276847066
 20
-4.636610598341778
 30
0.0
 10
0.6398913617912537
 20
-4.551148526865821
 30
0.0
 10
0.6046354140858309
 20
-4.51328715428599
 30
0.0
 10
0.5663191260517301
 20
-4.473626797864275
 30
0.0
 10
0.5249114807261573
 20
-4.432208813551092
 30
0.0
 10
0.4103761761277206
 20
-4.319451814819331
 30
0.0
 10
0.3240456296936145
 20
-4.217695498890659
 30
0.0
 10
0.2658991634486685
 20
-4.126960543740274
 30
0.0
 10
0.180437091972711
 20
-3.995696757210074
 30
0.0
 10
0.1377163952223175
 20
-3.849896354118603
 30
0.0
 10
0.1377163952223175
 20
-3.689538656490716
 30
0.0
 10
0.1377163952223175
 20
-3.579428438583768
 30
0.0
 10
0.1557682675665117
 20
-3.480732462983774
 30
0.0
 10
0.1919030292176684
 20
-3.393512763616349
 30
0.0
 10
0.2174403285820037
 20
-3.331871719563626
 30
0.0
 10
0.2535544122579646
 20
-3.279432374472157
 30
0.0
 10
0.3002659582207596
 20
-3.236256762267506
 30
0.0
 10
0.3901220994253991
 20
-3.151683843724893
 30
0.0
 10
0.5099302876982519
 20
-3.109397384453587
 30
0.0
 10
0.6597112010145135
 20
-3.109397384453587
 30
0.0
 10
0.9715764228873492
 20
-3.109397384453587
 30
0.0
 10
1.127519372811359
 20
-3.308939845073711
 30
0.0
 10
1.127519372811359
 20
-3.70804544428918
 30
0.0
  0
SPLINE
  5
42
330
1F
100
AcDbEntity
  8
Layer 1
370
     0
100
AcDbSpline
210
0.0
220
0.0
230
1.0
 70
    11
 71
     3
 72
    65
 73
    61
 74
     0
 42
0.0000000001
 43
0.0000000001
 12
1.0
 22
0.0
 32
0.0
 13
1.0
 23
0.0
 33
0.0
 40
0.0
 40
0.0
 40
0.0
 40
0.0
 40
1.0
 40
1.0
 40
1.0
 40
2.0
 40
2.0
 40
2.0
 40
3.0
 40
3.0
 40
3.0
 40
4.0
 40
4.0
 40
4.0
 40
5.0
 40
5.0
 40
5.0
 40
6.0
 40
6.0
 40
6.0
 40
7.0
 40
7.0
 40
7.0
 40
8.0
 40
8.0
 40
8.0
 40
9.0
 40
9.0
 40
9.0
 40
10.0
 40
10.0
 40
10.0
 40
11.0
 40
11.0
 40
11.0
 40
12.0
 40
12.0
 40
12.0
 40
13.0
 40
13.0
 40
13.0
 40
14.0
 40
14.0
 40
14.0
 40
15.0
 40
15.0
 40
15.0
 40
16.0
 40
16.0
 40
16.0
 40
17.0
 40
17.0
 40
17.0
 40
18.0
 40
18.0
 40
18.0
 40
19.0
 40
19.0
 40
19.0
 40
20.0
 40
20.0
 40
20.0
 40
20.0
 10
1.73407675815857
 20
-3.285160173600843
 30
0.0
 10
1.776363217429889
 20
-3.283402545709375
 30
0.0
 10
1.805436450552368
 20
-3.278543221538838
 30
0.0
 10
1.821296457526008
 20
-3.270623557039597
 30
0.0
 10
1.852127318539955
 20
-3.25476355006597
 30
0.0
 10
1.867553088034533
 20
-3.229660488180697
 30
0.0
 10
1.867553088034533
 20
-3.195293693408606
 30
0.0
 10
1.867553088034533
 20
-3.153007234137299
 30
0.0
 10
1.832307479316708
 20
-3.131874343489244
 30
0.0
 10
1.761826600868643
 20
-3.131874343489244
 30
0.0
 10
1.761826600868643
 20
-3.131874343489244
 30
0.0
 10
1.312525216870249
 20
-3.131874343489244
 30
0.0
 10
1.312525216870249
 20
-3.131874343489244
 30
0.0
 10
1.2420339994346
 20
-3.131874343489244
 30
0.0
 10
1.206798729704373
 20
-3.153007234137299
 30
0.0
 10
1.206798729704373
 20
-3.195293693408606
 30
0.0
 10
1.206798729704373
 20
-3.229660488180697
 30
0.0
 10
1.222203821223754
 20
-3.25476355006597
 30
0.0
 10
1.253055360212898
 20
-3.270623557039597
 30
0.0
 10
1.268026214253205
 20
-3.278543221538838
 30
0.0
 10
1.295341819484204
 20
-3.283402545709375
 30
0.0
 10
1.334991836918309
 20
-3.285160173600843
 30
0.0
 10
1.363175917107456
 20
-3.286938479467507
 30
0.0
 10
1.377278296189628
 20
-3.302343570986901
 30
0.0
 10
1.377278296189628
 20
-3.331416804109368
 30
0.0
 10
1.377278296189628
 20
-3.331416804109368
 30
0.0
 10
1.377278296189628
 20
-4.942313783606854
 30
0.0
 10
1.377278296189628
 20
-4.942313783606854
 30
0.0
 10
1.377278296189628
 20
-4.958173790580505
 30
0.0
 10
1.372418972019078
 20
-4.969629388837853
 30
0.0
 10
1.362741679628382
 20
-4.976680578378945
 30
0.0
 10
1.353033370274892
 20
-4.983731767920037
 30
0.0
 10
1.336304888343117
 20
-4.987247023702972
 30
0.0
 10
1.312525216870249
 20
-4.987247023702972
 30
0.0
 10
1.2420339994346
 20
-4.987247023702972
 30
0.0
 10
1.206798729704373
 20
-5.016320256825464
 30
0.0
 10
1.206798729704373
 20
-5.074466723070397
 30
0.0
 10
1.206798729704373
 20
-5.120289116099861
 30
0.0
 10
1.2393872186098
 20
-5.143179634639384
 30
0.0
 10
1.304595213383436
 20
-5.143179634639384
 30
0.0
 10
1.304595213383436
 20
-5.143179634639384
 30
0.0
 10
1.748613374719816
 20
-5.143179634639384
 30
0.0
 10
1.748613374719816
 20
-5.143179634639384
 30
0.0
 10
1.81908391418027
 20
-5.143179634639384
 30
0.0
 10
1.854339861885693
 20
-5.122026066016133
 30
0.0
 10
1.854339861885693
 20
-5.079739606744826
 30
0.0
 10
1.854339861885693
 20
-5.046282642881275
 30
0.0
 10
1.839348329870189
 20
-5.021158903020805
 30
0.0
 10
1.809406621789574
 20
-5.00443042108903
 30
0.0
 10
1.79441508977407
 20
-4.99562160365647
 30
0.0
 10
1.767988637476403
 20
-4.990348719982042
 30
0.0
 10
1.730116925908962
 20
-4.988570414115379
 30
0.0
 10
1.708084543339977
 20
-4.98681278622391
 30
0.0
 10
1.697073521549277
 20
-4.974922950487477
 30
0.0
 10
1.697073521549277
 20
-4.952880228930881
 30
0.0
 10
1.697073521549277
 20
-4.952880228930881
 30
0.0
 10
1.697073521549277
 20
-3.320829680810145
 30
0.0
 10
1.697073521549277
 20
-3.320829680810145
 30
0.0
 10
1.697073521549277
 20
-3.298828315203941
 30
0.0
 10
1.70940793375237
 20
-3.286938479467507
 30
0.0
 10
1.73407675815857
 20
-3.285160173600843
 30
0.0
  0
SPLINE
  5
43
330
1F
100
AcDbEntity
  8
Layer 1
370
     0
100
AcDbSpline
210
0.0
220
0.0
230
1.0
 70
    11
 71
     3
 72
    98
 73
    94
 74
     0
 42
0.0000000001
 43
0.0000000001
 12
1.0
 22
0.0
 32
0.0
 13
1.0
 23
0.0
 33
0.0
 40
0.0
 40
0.0
 40
0.0
 40
0.0
 40
1.0
 40
1.0
 40
1.0
 40
2.0
 40
2.0
 40
2.0
 40
3.0
 40
3.0
 40
3.0
 40
4.0
 40
4.0
 40
4.0
 40
5.0
 40
5.0
 40
5.0
 40
6.0
 40
6.0
 40
6.0
 40
7.0
 40
7.0
 40
7.0
 40
8.0
 40
8.0
 40
8.0
 40
9.0
 40
9.0
 40
9.0
 40
10.0
 40
10.0
 40
10.0
 40
11.0
 40
11.0
 40
11.0
 40
12.0
 40
12.0
 40
12.0
 40
13.0
 40
13.0
 40
13.0
 40
14.0
 40
14.0
 40
14.0
 40
15.0
 40
15.0
 40
15.0
 40
16.0
 40
16.0
 40
16.0
 40
17.0
 40
17.0
 40
17.0
 40
18.0
 40
18.0
 40
18.0
 40
19.0
 40
19.0
 40
19.0
 40
20.0
 40
20.0
 40
20.0
 40
21.0
 40
21.0
 40
21.0
 40
22.0
 40
22.0
 40
22.0
 40
23.0
 40
23.0
 40
23.0
 40
24.0
 40
24.0
 40
24.0
 40
25.0
 40
25.0
 40
25.0
 40
26.0
 40
26.0
 40
26.0
 40
27.0
 40
27.0
 40
27.0
 40
28.0
 40
28.0
 40
28.0
 40
29.0
 40
29.0
 40
29.0
 40
30.0
 40
30.0
 40
30.0
 40
31.0
 40
31.0
 40
31.0
 40
31.0
 10
2.449017750484081
 20
-3.109397384453587
 30
0.0
 10
2.299236837167806
 20
-3.109397384453587
 30
0.0
 10
2.179428648894953
 20
-3.151683843724893
 30
0.0
 10
2.089572507690314
 20
-3.236256762267506
 30
0.0
 10
2.042860961727532
 20
-3.279432374472157
 30
0.0
 10
2.006746878051571
 20
-3.331871719563626
 30
0.0
 10
1.981209578687235
 20
-3.393512763616349
 30
0.0
 10
1.945074817036066
 20
-3.480732462983774
 30
0.0
 10
1.927022944691885
 20
-3.579428438583768
 30
0.0
 10
1.927022944691885
 20
-3.689538656490716
 30
0.0
 10
1.927022944691885
 20
-3.849896354118603
 30
0.0
 10
1.969743641442266
 20
-3.995696757210074
 30
0.0
 10
2.055205712918223
 20
-4.126960543740274
 30
0.0
 10
2.113352179163182
 20
-4.217695498890659
 30
0.0
 10
2.199682725597288
 20
-4.319451814819331
 30
0.0
 10
2.314218030195712
 20
-4.432208813551092
 30
0.0
 10
2.355625675521297
 20
-4.473626797864275
 30
0.0
 10
2.393941963555398
 20
-4.51328715428599
 30
0.0
 10
2.429197911260821
 20
-4.551148526865821
 30
0.0
 10
2.505840826316621
 20
-4.636610598341778
 30
0.0
 10
2.544167453338332
 20
-4.71634487068905
 30
0.0
 10
2.544167453338332
 20
-4.790330665932465
 30
0.0
 10
2.544167453338332
 20
-4.905755123464233
 30
0.0
 10
2.491738447234461
 20
-4.963446674254909
 30
0.0
 10
2.386901113001916
 20
-4.963446674254909
 30
0.0
 10
2.292619885105801
 20
-4.963446674254909
 30
0.0
 10
2.232726129956973
 20
-4.914129703417706
 30
0.0
 10
2.207178491605039
 20
-4.815454405792909
 30
0.0
 10
2.195722893347667
 20
-4.774057099454946
 30
0.0
 10
2.190005433206579
 20
-4.733507590099912
 30
0.0
 10
2.190005433206579
 20
-4.693867911653393
 30
0.0
 10
2.190005433206579
 20
-4.627801780909218
 30
0.0
 10
2.163568641921314
 20
-4.594758376549533
 30
0.0
 10
2.110715737325967
 20
-4.594758376549533
 30
0.0
 10
2.081642504203501
 20
-4.594758376549533
 30
0.0
 10
2.058514188949238
 20
-4.607103127740225
 30
0.0
 10
2.041330791563193
 20
-4.631751274171241
 30
0.0
 10
2.024157733164745
 20
-4.656440776552623
 30
0.0
 10
2.015566034471716
 20
-4.686837400087496
 30
0.0
 10
2.015566034471716
 20
-4.722941144775884
 30
0.0
 10
2.015566034471716
 20
-4.852447303414616
 30
0.0
 10
2.043750114660864
 20
-4.954658534797545
 30
0.0
 10
2.100138953014342
 20
-5.029533482974279
 30
0.0
 10
2.170609492474808
 20
-5.121178269033205
 30
0.0
 10
2.272365808403479
 20
-5.166959306112251
 30
0.0
 10
2.405407900800355
 20
-5.166959306112251
 30
0.0
 10
2.556925764032902
 20
-5.166959306112251
 30
0.0
 10
2.672784459043744
 20
-5.120723353578922
 30
0.0
 10
2.752963307857676
 20
-5.028210092561898
 30
0.0
 10
2.813746215939848
 20
-4.957739553101419
 30
0.0
 10
2.844142839474721
 20
-4.867873072909181
 30
0.0
 10
2.844142839474721
 20
-4.758631329960356
 30
0.0
 10
2.844142839474721
 20
-4.639691616645652
 30
0.0
 10
2.799209599378603
 20
-4.523398684155735
 30
0.0
 10
2.709353458173963
 20
-4.40975253249063
 30
0.0
 10
2.667925134873194
 20
-4.358657255786763
 30
0.0
 10
2.622567996285599
 20
-4.308451132016241
 30
0.0
 10
2.573240686460799
 20
-4.259092805228647
 30
0.0
 10
2.454300973146094
 20
-4.141931397780581
 30
0.0
 10
2.37016229208253
 20
-4.041932709743403
 30
0.0
 10
2.320834982257729
 20
-3.959117419092232
 30
0.0
 10
2.267082585741466
 20
-3.868382463941872
 30
0.0
 10
2.240221895964724
 20
-3.7719197096628
 30
0.0
 10
2.240221895964724
 20
-3.669708478279871
 30
0.0
 10
2.240221895964724
 20
-3.563134194131054
 30
0.0
 10
2.258718344775565
 20
-3.47723788517601
 30
0.0
 10
2.295721581384871
 20
-3.412019551414788
 30
0.0
 10
2.339765668547658
 20
-3.333629347455093
 30
0.0
 10
2.403629594933692
 20
-3.294403228512465
 30
0.0
 10
2.487334038518182
 20
-3.294403228512465
 30
0.0
 10
2.60185900412902
 20
-3.294403228512465
 30
0.0
 10
2.677633444226684
 20
-3.364005293014795
 30
0.0
 10
2.714636680835989
 20
-3.503209422019431
 30
0.0
 10
2.730496687809629
 20
-3.56576029698067
 30
0.0
 10
2.738426691296455
 20
-3.63403897107057
 30
0.0
 10
2.738426691296455
 20
-3.70804544428918
 30
0.0
 10
2.738426691296455
 20
-3.806720741913978
 30
0.0
 10
2.728284144463891
 20
-3.903617733672086
 30
0.0
 10
2.70803006776157
 20
-3.998757097538752
 30
0.0
 10
2.705383286936757
 20
-4.011970323687592
 30
0.0
 10
2.704059896524351
 20
-4.025204227811602
 30
0.0
 10
2.704059896524351
 20
-4.038417453960442
 30
0.0
 10
2.704059896524351
 20
-4.08775510277284
 30
0.0
 10
2.728284144463891
 20
-4.112423927179053
 30
0.0
 10
2.776742979330543
 20
-4.112423927179053
 30
0.0
 10
2.830474697871624
 20
-4.112423927179053
 30
0.0
 10
2.868790985905737
 20
-4.063086278366654
 30
0.0
 10
2.891712521408054
 20
-3.964410980741857
 30
0.0
 10
2.90844100333983
 20
-3.893051288348058
 30
0.0
 10
2.916825922280926
 20
-3.807609894847297
 30
0.0
 10
2.916825922280926
 20
-3.70804544428918
 30
0.0
 10
2.916825922280926
 20
-3.308939845073711
 30
0.0
 10
2.760882972356916
 20
-3.109397384453587
 30
0.0
 10
2.449017750484081
 20
-3.109397384453587
 30
0.0
  0
SPLINE
  5
44
330
1F
100
AcDbEntity
  8
Layer 1
370
     0
100
AcDbSpline
210
0.0
220
0.0
230
1.0
 70
    11
 71
     3
 72
    68
 73
    64
 74
     0
 42
0.0000000001
 43
0.0000000001
 12
1.0
 22
0.0
 32
0.0
 13
1.0
 23
0.0
 33
0.0
 40
0.0
 40
0.0
 40
0.0
 40
0.0
 40
1.0
 40
1.0
 40
1.0
 40
2.0
 40
2.0
 40
2.0
 40
3.0
 40
3.0
 40
3.0
 40
4.0
 40
4.0
 40
4.0
 40
5.0
 40
5.0
 40
5.0
 40
6.0
 40
6.0
 40
6.0
 40
7.0
 40
7.0
 40
7.0
 40
8.0
 40
8.0
 40
8.0
 40
9.0
 40
9.0
 40
9.0
 40
10.0
 40
10.0
 40
10.0
 40
11.0
 40
11.0
 40
11.0
 40
12.0
 40
12.0
 40
12.0
 40
13.0
 40
13.0
 40
13.0
 40
14.0
 40
14.0
 40
14.0
 40
15.0
 40
15.0
 40
15.0
 40
16.0
 40
16.0
 40
16.0
 40
17.0
 40
17.0
 40
17.0
 40
18.0
 40
18.0
 40
18.0
 40
19.0
 40
19.0
 40
19.0
 40
20.0
 40
20.0
 40
20.0
 40
21.0
 40
21.0
 40
21.0
 40
21.0
 10
3.834597173282368
 20
-3.164897069873733
 30
0.0
 10
3.812999028192457
 20
-3.149926215833425
 30
0.0
 10
3.787234271100967
 20
-3.140683160921804
 30
0.0
 10
3.757292563020352
 20
-3.137147227163647
 30
0.0
 10
3.727330176964541
 20
-3.133631971380712
 30
0.0
 10
3.700014571733542
 20
-3.131874343489244
 30
0.0
 10
3.675366425302551
 20
-3.131874343489244
 30
0.0
 10
3.675366425302551
 20
-3.131874343489244
 30
0.0
 10
3.122974995975483
 20
-3.131874343489244
 30
0.0
 10
3.122974995975483
 20
-3.131874343489244
 30
0.0
 10
3.09830617156927
 20
-3.131874343489244
 30
0.0
 10
3.070980227350674
 20
-3.133631971380712
 30
0.0
 10
3.041048858257656
 20
-3.137147227163647
 30
0.0
 10
3.011086472201845
 20
-3.140683160921804
 30
0.0
 10
2.985311376122783
 20
-3.149926215833425
 30
0.0
 10
2.963733909008043
 20
-3.164897069873733
 30
0.0
 10
2.942156441893328
 20
-3.179888601889236
 30
0.0
 10
2.931362538842172
 20
-3.2036889513373
 30
0.0
 10
2.931362538842172
 20
-3.236256762267506
 30
0.0
 10
2.931362538842172
 20
-3.257410330890782
 30
0.0
 10
2.94259067937239
 20
-3.276806271622541
 30
0.0
 10
2.965057299420449
 20
-3.294403228512465
 30
0.0
 10
2.987523919468508
 20
-3.31204154135278
 30
0.0
 10
3.020329527113467
 20
-3.320829680810145
 30
0.0
 10
3.063505139318118
 20
-3.320829680810145
 30
0.0
 10
3.063505139318118
 20
-3.320829680810145
 30
0.0
 10
3.207558253505693
 20
-3.320829680810145
 30
0.0
 10
3.207558253505693
 20
-3.320829680810145
 30
0.0
 10
3.227812330208028
 20
-3.320829680810145
 30
0.0
 10
3.237944538052968
 20
-3.331416804109368
 30
0.0
 10
3.237944538052968
 20
-3.352549694757423
 30
0.0
 10
3.237944538052968
 20
-3.352549694757423
 30
0.0
 10
3.237944538052968
 20
-4.935696831544848
 30
0.0
 10
3.237944538052968
 20
-4.935696831544848
 30
0.0
 10
3.237944538052968
 20
-5.000026012372751
 30
0.0
 10
3.243238099702593
 20
-5.047606033293656
 30
0.0
 10
3.25380454502662
 20
-5.07841621633242
 30
0.0
 10
3.260845395580115
 20
-5.099569784955671
 30
0.0
 10
3.271856417370802
 20
-5.117642335275049
 30
0.0
 10
3.286837610398707
 20
-5.132613189315356
 30
0.0
 10
3.307991179021958
 20
-5.155503707854905
 30
0.0
 10
3.3432161097646
 20
-5.166959306112251
 30
0.0
 10
3.392564097564597
 20
-5.166959306112251
 30
0.0
 10
3.504431943363013
 20
-5.166959306112251
 30
0.0
 10
3.56039688322504
 20
-5.093407748347923
 30
0.0
 10
3.56039688322504
 20
-4.946283954844072
 30
0.0
 10
3.56039688322504
 20
-4.946283954844072
 30
0.0
 10
3.56039688322504
 20
-3.352549694757423
 30
0.0
 10
3.56039688322504
 20
-3.352549694757423
 30
0.0
 10
3.56039688322504
 20
-3.331416804109368
 30
0.0
 10
3.570963328549068
 20
-3.320829680810145
 30
0.0
 10
3.592106558184721
 20
-3.320829680810145
 30
0.0
 10
3.592106558184721
 20
-3.320829680810145
 30
0.0
 10
3.734825942972293
 20
-3.320829680810145
 30
0.0
 10
3.734825942972293
 20
-3.320829680810145
 30
0.0
 10
3.777980877201748
 20
-3.320829680810145
 30
0.0
 10
3.8108175018095
 20
-3.31204154135278
 30
0.0
 10
3.83328412185756
 20
-3.294403228512465
 30
0.0
 10
3.855750741905619
 20
-3.276806271622541
 30
0.0
 10
3.866978882435862
 20
-3.257410330890782
 30
0.0
 10
3.866978882435862
 20
-3.236256762267506
 30
0.0
 10
3.866978882435862
 20
-3.2036889513373
 30
0.0
 10
3.856174640397082
 20
-3.179888601889236
 30
0.0
 10
3.834597173282368
 20
-3.164897069873733
 30
0.0
  0
SPLINE
  5
45
330
1F
100
AcDbEntity
  8
Layer 1
370
     0
100
AcDbSpline
210
0.0
220
0.0
230
1.0
 70
    11
 71
     3
 72
   107
 73
   103
 74
     0
 42
0.0000000001
 43
0.0000000001
 12
1.0
 22
0.0
 32
0.0
 13
1.0
 23
0.0
 33
0.0
 40
0.0
 40
0.0
 40
0.0
 40
0.0
 40
1.0
 40
1.0
 40
1.0
 40
2.0
 40
2.0
 40
2.0
 40
3.0
 40
3.0
 40
3.0
 40
4.0
 40
4.0
 40
4.0
 40
5.0
 40
5.0
 40
5.0
 40
6.0
 40
6.0
 40
6.0
 40
7.0
 40
7.0
 40
7.0
 40
8.0
 40
8.0
 40
8.0
 40
9.0
 40
9.0
 40
9.0
 40
10.0
 40
10.0
 40
10.0
 40
11.0
 40
11.0
 40
11.0
 40
12.0
 40
12.0
 40
12.0
 40
13.0
 40
13.0
 40
13.0
 40
14.0
 40
14.0
 40
14.0
 40
15.0
 40
15.0
 40
15.0
 40
16.0
 40
16.0
 40
16.0
 40
17.0
 40
17.0
 40
17.0
 40
18.0
 40
18.0
 40
18.0
 40
19.0
 40
19.0
 40
19.0
 40
20.0
 40
20.0
 40
20.0
 40
21.0
 40
21.0
 40
21.0
 40
22.0
 40
22.0
 40
22.0
 40
23.0
 40
23.0
 40
23.0
 40
24.0
 40
24.0
 40
24.0
 40
25.0
 40
25.0
 40
25.0
 40
26.0
 40
26.0
 40
26.0
 40
27.0
 40
27.0
 40
27.0
 40
28.0
 40
28.0
 40
28.0
 40
29.0
 40
29.0
 40
29.0
 40
30.0
 40
30.0
 40
30.0
 40
31.0
 40
31.0
 40
31.0
 40
32.0
 40
32.0
 40
32.0
 40
33.0
 40
33.0
 40
33.0
 40
34.0
 40
34.0
 40
34.0
 40
34.0
 10
4.792690475911715
 20
-4.980630071640967
 30
0.0
 10
4.775507078525682
 20
-4.970063626316939
 30
0.0
 10
4.755459781575281
 20
-4.964770064667315
 30
0.0
 10
4.73255892404816
 20
-4.964770064667315
 30
0.0
 10
4.698202468263667
 20
-4.964770064667315
 30
0.0
 10
4.664052792231106
 20
-4.96632091280685
 30
0.0
 10
4.630140912913273
 20
-4.969401931110724
 30
0.0
 10
4.596218694607867
 20
-4.972503627389793
 30
0.0
 10
4.562089696550502
 20
-4.974033797554132
 30
0.0
 10
4.527722901778412
 20
-4.974033797554132
 30
0.0
 10
4.419359972775333
 20
-4.974033797554132
 30
0.0
 10
4.346232313502469
 20
-4.947173107777391
 30
0.0
 10
4.308360601935015
 20
-4.893410372273542
 30
0.0
 10
4.284570591474575
 20
-4.858195780518498
 30
0.0
 10
4.272680755738141
 20
-4.807968978772755
 30
0.0
 10
4.272680755738141
 20
-4.742771322986729
 30
0.0
 10
4.272680755738141
 20
-4.742771322986729
 30
0.0
 10
4.272680755738141
 20
-4.681978075916959
 30
0.0
 10
4.272680755738141
 20
-4.681978075916959
 30
0.0
 10
4.272680755738141
 20
-4.644985178295276
 30
0.0
 10
4.293823985373794
 20
-4.626478390496812
 30
0.0
 10
4.336110444645101
 20
-4.626478390496812
 30
0.0
 10
4.336110444645101
 20
-4.626478390496812
 30
0.0
 10
4.609659378483835
 20
-4.63044856173403
 30
0.0
 10
4.609659378483835
 20
-4.63044856173403
 30
0.0
 10
4.641379392431114
 20
-4.63044856173403
 30
0.0
 10
4.666027538862105
 20
-4.622963134713877
 30
0.0
 10
4.683665851702421
 20
-4.607971602698373
 30
0.0
 10
4.701273147579943
 20
-4.593000748658065
 30
0.0
 10
4.7100923040001
 20
-4.574928198338688
 30
0.0
 10
4.7100923040001
 20
-4.553795307690633
 30
0.0
 10
4.7100923040001
 20
-4.51678173209373
 30
0.0
 10
4.696879077851261
 20
-4.49035527979605
 30
0.0
 10
4.670452625553581
 20
-4.474495272822423
 30
0.0
 10
4.648420242984608
 20
-4.461282046673583
 30
0.0
 10
4.614942601145836
 20
-4.454685772586749
 30
0.0
 10
4.570019700037316
 20
-4.454685772586749
 30
0.0
 10
4.533016463428035
 20
-4.454685772586749
 30
0.0
 10
4.495785769091602
 20
-4.455574925520093
 30
0.0
 10
4.458348295003234
 20
-4.457332553411561
 30
0.0
 10
4.420890142939672
 20
-4.459090181303028
 30
0.0
 10
4.383680126578434
 20
-4.459958656261177
 30
0.0
 10
4.346687228956727
 20
-4.459958656261177
 30
0.0
 10
4.322008065562942
 20
-4.459958656261177
 30
0.0
 10
4.303511616752075
 20
-4.454251535107687
 30
0.0
 10
4.291177204548982
 20
-4.442795936850315
 30
0.0
 10
4.278832453358291
 20
-4.431340338592968
 30
0.0
 10
4.272680755738141
 20
-4.40534812377435
 30
0.0
 10
4.272680755738141
 20
-4.364819292394511
 30
0.0
 10
4.272680755738141
 20
-4.364819292394511
 30
0.0
 10
4.272680755738141
 20
-3.426556167976034
 30
0.0
 10
4.272680755738141
 20
-3.426556167976034
 30
0.0
 10
4.272680755738141
 20
-3.356085628515554
 30
0.0
 10
4.303935515243564
 20
-3.320829680810145
 30
0.0
 10
4.366507068179973
 20
-3.320829680810145
 30
0.0
 10
4.399974371031147
 20
-3.320829680810145
 30
0.0
 10
4.433669131609425
 20
-3.321491376016335
 30
0.0
 10
4.467601688902454
 20
-3.322814766428741
 30
0.0
 10
4.50150322923269
 20
-3.324138156841147
 30
0.0
 10
4.535197989810968
 20
-3.324799852047363
 30
0.0
 10
4.56869630962491
 20
-3.324799852047363
 30
0.0
 10
4.615376838624924
 20
-3.324799852047363
 30
0.0
 10
4.650167531888479
 20
-3.315350017383783
 30
0.0
 10
4.673089067390795
 20
-3.296388314131086
 30
0.0
 10
4.695989924917916
 20
-3.277447288853561
 30
0.0
 10
4.707445523175289
 20
-3.257410330890782
 30
0.0
 10
4.707445523175289
 20
-3.236256762267506
 30
0.0
 10
4.707445523175289
 20
-3.178999448955892
 30
0.0
 10
4.670886863032668
 20
-3.145976722571403
 30
0.0
 10
4.597769542747401
 20
-3.137147227163647
 30
0.0
 10
4.567807156691591
 20
-3.133631971380712
 30
0.0
 10
4.540491551460591
 20
-3.131874343489244
 30
0.0
 10
4.515833066041978
 20
-3.131874343489244
 30
0.0
 10
4.515833066041978
 20
-3.131874343489244
 30
0.0
 10
4.159034604073036
 20
-3.131874343489244
 30
0.0
 10
4.159034604073036
 20
-3.131874343489244
 30
0.0
 10
4.055065744798614
 20
-3.131874343489244
 30
0.0
 10
3.99074690295831
 20
-3.174615718214808
 30
0.0
 10
3.966088417539721
 20
-3.260057111715569
 30
0.0
 10
3.954632819282349
 20
-3.300585943095408
 30
0.0
 10
3.948915359141261
 20
-3.34946867645355
 30
0.0
 10
3.948915359141261
 20
-3.406725989765164
 30
0.0
 10
3.948915359141261
 20
-3.406725989765164
 30
0.0
 10
3.948915359141261
 20
-4.515479019656519
 30
0.0
 10
3.948915359141261
 20
-4.515479019656519
 30
0.0
 10
3.948915359141261
 20
-4.600941091132477
 30
0.0
 10
3.952420275936624
 20
-4.682432991371241
 30
0.0
 10
3.959481804465288
 20
-4.759954720372762
 30
0.0
 10
3.975341811438941
 20
-4.931747338282826
 30
0.0
 10
4.04317590906218
 20
-5.04979789866421
 30
0.0
 10
4.162994436322631
 20
-5.114106401516917
 30
0.0
 10
4.229939381012551
 20
-5.149341671247157
 30
0.0
 10
4.323331455975323
 20
-5.166959306112251
 30
0.0
 10
4.443149983235799
 20
-5.166959306112251
 30
0.0
 10
4.580586145361344
 20
-5.166959306112251
 30
0.0
 10
4.677493476107075
 20
-5.154842012648689
 30
0.0
 10
4.733882314460566
 20
-5.130628103696759
 30
0.0
 10
4.790250474838836
 20
-5.10641419474483
 30
0.0
 10
4.818455233003179
 20
-5.07270909517893
 30
0.0
 10
4.818455233003179
 20
-5.029533482974279
 30
0.0
 10
4.818455233003179
 20
-5.007511439392904
 30
0.0
 10
4.80986353431015
 20
-4.991217194940191
 30
0.0
 10
4.792690475911715
 20
-4.980630071640967
 30
0.0
  0
SPLINE
  5
46
330
1F
100
AcDbEntity
  8
Layer 1
370
     0
100
AcDbSpline
210
0.0
220
0.0
230
1.0
 70
    11
 71
     3
 72
    68
 73
    64
 74
     0
 42
0.0000000001
 43
0.0000000001
 12
1.0
 22
0.0
 32
0.0
 13
1.0
 23
0.0
 33
0.0
 40
0.0
 40
0.0
 40
0.0
 40
0.0
 40
1.0
 40
1.0
 40
1.0
 40
2.0
 40
2.0
 40
2.0
 40
3.0
 40
3.0
 40
3.0
 40
4.0
 40
4.0
 40
4.0
 40
5.0
 40
5.0
 40
5.0
 40
6.0
 40
6.0
 40
6.0
 40
7.0
 40
7.0
 40
7.0
 40
8.0
 40
8.0
 40
8.0
 40
9.0
 40
9.0
 40
9.0
 40
10.0
 40
10.0
 40
10.0
 40
11.0
 40
11.0
 40
11.0
 40
12.0
 40
12.0
 40
12.0
 40
13.0
 40
13.0
 40
13.0
 40
14.0
 40
14.0
 40
14.0
 40
15.0
 40
15.0
 40
15.0
 40
16.0
 40
16.0
 40
16.0
 40
17.0
 40
17.0
 40
17.0
 40
18.0
 40
18.0
 40
18.0
 40
19.0
 40
19.0
 40
19.0
 40
20.0
 40
20.0
 40
20.0
 40
21.0
 40
21.0
 40
21.0
 40
21.0
 10
5.861111115187567
 20
-5.06520299018358
 30
0.0
 10
5.861111115187567
 20
-5.097812157064204
 30
0.0
 10
5.851196026082132
 20
-5.122915218949477
 30
0.0
 10
5.831376186858884
 20
-5.140532853814597
 30
0.0
 10
5.811556347635638
 20
-5.158150488679691
 30
0.0
 10
5.78445786114417
 20
-5.166959306112251
 30
0.0
 10
5.750101405359676
 20
-5.166959306112251
 30
0.0
 10
5.690176633248054
 20
-5.166959306112251
 30
0.0
 10
5.628070334753475
 20
-5.116318944862642
 30
0.0
 10
5.563772170888367
 20
-5.014996866413058
 30
0.0
 10
5.494170106386061
 20
-4.909270379247169
 30
0.0
 10
5.409586848855825
 20
-4.772299471563479
 30
0.0
 10
5.310043076272905
 20
-4.604001431461155
 30
0.0
 10
5.291546627462038
 20
-4.581110912921631
 30
0.0
 10
5.280080690217093
 20
-4.56965531466426
 30
0.0
 10
5.275686620488411
 20
-4.56965531466426
 30
0.0
 10
5.267756617001573
 20
-4.56965531466426
 30
0.0
 10
5.263796784751977
 20
-4.585515321637912
 30
0.0
 10
5.263796784751977
 20
-4.617214657609995
 30
0.0
 10
5.263796784751977
 20
-4.617214657609995
 30
0.0
 10
5.263796784751977
 20
-4.946283954844072
 30
0.0
 10
5.263796784751977
 20
-4.946283954844072
 30
0.0
 10
5.263796784751977
 20
-5.093407748347923
 30
0.0
 10
5.207831844889951
 20
-5.166959306112251
 30
0.0
 10
5.095963999091534
 20
-5.166959306112251
 30
0.0
 10
5.046616011291538
 20
-5.166959306112251
 30
0.0
 10
5.011163622821767
 20
-5.155731165582034
 30
0.0
 10
4.989586155707053
 20
-5.133274884521572
 30
0.0
 10
4.967988010617116
 20
-5.110797925485914
 30
0.0
 10
4.954557665728745
 20
-5.081952150090577
 30
0.0
 10
4.949274443066744
 20
-5.046716880360337
 30
0.0
 10
4.943991220404718
 20
-5.011481610630097
 30
0.0
 10
4.941344439579906
 20
-4.974488713008415
 30
0.0
 10
4.941344439579906
 20
-4.935696831544848
 30
0.0
 10
4.941344439579906
 20
-4.935696831544848
 30
0.0
 10
4.941344439579906
 20
-3.339336468608583
 30
0.0
 10
4.941344439579906
 20
-3.339336468608583
 30
0.0
 10
4.941344439579906
 20
-3.186050638496984
 30
0.0
 10
5.017997693623329
 20
-3.109397384453587
 30
0.0
 10
5.171283523734928
 20
-3.109397384453587
 30
0.0
 10
5.347480550361271
 20
-3.109397384453587
 30
0.0
 10
5.500342481981407
 20
-3.153462149591557
 30
0.0
 10
5.629848640620139
 20
-3.241550323917131
 30
0.0
 10
5.78049802889455
 20
-3.345519183191527
 30
0.0
 10
5.855817553537943
 20
-3.503664337473689
 30
0.0
 10
5.855817553537943
 20
-3.715965108788396
 30
0.0
 10
5.855817553537943
 20
-3.870140091833339
 30
0.0
 10
5.829391101240288
 20
-4.011122526704639
 30
0.0
 10
5.776527857657331
 20
-4.138850379476708
 30
0.0
 10
5.713098168750371
 20
-4.292136209588332
 30
0.0
 10
5.616635414471299
 20
-4.40975253249063
 30
0.0
 10
5.487129255832567
 20
-4.491678670208456
 30
0.0
 10
5.480067727303877
 20
-4.496103756899932
 30
0.0
 10
5.476552471520941
 20
-4.501397318549556
 30
0.0
 10
5.476552471520941
 20
-4.507538677182108
 30
0.0
 10
5.476552471520941
 20
-4.516347494614668
 30
0.0
 10
5.507817570013963
 20
-4.557765478927826
 30
0.0
 10
5.570378783962799
 20
-4.631751274171241
 30
0.0
 10
5.59416879442324
 20
-4.65997671031078
 30
0.0
 10
5.616180499017042
 20
-4.687271637566583
 30
0.0
 10
5.636455253694572
 20
-4.713698089864238
 30
0.0
 10
5.786215489035637
 20
-4.903997495572765
 30
0.0
 10
5.861111115187567
 20
-5.021158903020805
 30
0.0
 10
5.861111115187567
 20
-5.06520299018358
 30
0.0
  0
SPLINE
  5
47
330
1F
100
AcDbEntity
  8
Layer 1
370
     0
100
AcDbSpline
210
0.0
220
0.0
230
1.0
 70
    11
 71
     3
 72
    29
 73
    25
 74
     0
 42
0.0000000001
 43
0.0000000001
 12
1.0
 22
0.0
 32
0.0
 13
1.0
 23
0.0
 33
0.0
 40
0.0
 40
0.0
 40
0.0
 40
0.0
 40
1.0
 40
1.0
 40
1.0
 40
2.0
 40
2.0
 40
2.0
 40
3.0
 40
3.0
 40
3.0
 40
4.0
 40
4.0
 40
4.0
 40
5.0
 40
5.0
 40
5.0
 40
6.0
 40
6.0
 40
6.0
 40
7.0
 40
7.0
 40
7.0
 40
8.0
 40
8.0
 40
8.0
 40
8.0
 10
5.446155847986069
 20
-4.293459600000738
 30
0.0
 10
5.506949095055814
 20
-4.224746688431752
 30
0.0
 10
5.552306233643422
 20
-4.143689025672074
 30
0.0
 10
5.582268619699233
 20
-4.050307289696876
 30
0.0
 10
5.61749355044185
 20
-3.945469955464331
 30
0.0
 10
5.635131863282165
 20
-3.838440755861257
 30
0.0
 10
5.635131863282165
 20
-3.729178334937235
 30
0.0
 10
5.635131863282165
 20
-3.654303386760501
 30
0.0
 10
5.623676265024793
 20
-3.585590475191515
 30
0.0
 10
5.600775407497673
 20
-3.523018922255081
 30
0.0
 10
5.549669791806208
 20
-3.388239879941921
 30
0.0
 10
5.452762461060476
 20
-3.320829680810145
 30
0.0
 10
5.310043076272905
 20
-3.320829680810145
 30
0.0
 10
5.279191537283749
 20
-3.321718833743489
 30
0.0
 10
5.263796784751977
 20
-3.336255450304709
 30
0.0
 10
5.263796784751977
 20
-3.364439530493857
 30
0.0
 10
5.263796784751977
 20
-3.364439530493857
 30
0.0
 10
5.263796784751977
 20
-4.350282675833291
 30
0.0
 10
5.263796784751977
 20
-4.350282675833291
 30
0.0
 10
5.263796784751977
 20
-4.381134214822421
 30
0.0
 10
5.276555095446534
 20
-4.396539306341816
 30
0.0
 10
5.302113072786065
 20
-4.396539306341816
 30
0.0
 10
5.337338003528708
 20
-4.396539306341816
 30
0.0
 10
5.385372939903896
 20
-4.362172511569725
 30
0.0
 10
5.446155847986069
 20
-4.293459600000738
 30
0.0
  0
SPLINE
  5
48
330
1F
100
AcDbEntity
  8
Layer 1
370
     0
100
AcDbSpline
210
0.0
220
0.0
230
1.0
 70
    11
 71
     3
 72
    50
 73
    46
 74
     0
 42
0.0000000001
 43
0.0000000001
 12
1.0
 22
0.0
 32
0.0
 13
1.0
 23
0.0
 33
0.0
 40
0.0
 40
0.0
 40
0.0
 40
0.0
 40
1.0
 40
1.0
 40
1.0
 40
2.0
 40
2.0
 40
2.0
 40
3.0
 40
3.0
 40
3.0
 40
4.0
 40
4.0
 40
4.0
 40
5.0
 40
5.0
 40
5.0
 40
6.0
 40
6.0
 40
6.0
 40
7.0
 40
7.0
 40
7.0
 40
8.0
 40
8.0
 40
8.0
 40
9.0
 40
9.0
 40
9.0
 40
10.0
 40
10.0
 40
10.0
 40
11.0
 40
11.0
 40
11.0
 40
12.0
 40
12.0
 40
12.0
 40
13.0
 40
13.0
 40
13.0
 40
14.0
 40
14.0
 40
14.0
 40
15.0
 40
15.0
 40
15.0
 40
15.0
 10
1.4933644489276
 20
-2.13687085513896
 30
0.0
 10
1.576551943132232
 20
-2.13687085513896
 30
0.0
 10
1.642080446521378
 20
-2.130564072704854
 30
0.0
 10
1.689980976057806
 20
-2.117971185811838
 30
0.0
 10
1.754889140191128
 20
-2.100953212227334
 30
0.0
 10
1.787353561245393
 20
-2.074485403979275
 30
0.0
 10
1.787353561245393
 20
-2.038547083092466
 30
0.0
 10
1.787353561245393
 20
-2.022811143969976
 30
0.0
 10
1.781356948439187
 20
-2.011148765960684
 30
0.0
 10
1.76939473978958
 20
-2.003580627039747
 30
0.0
 10
1.757411853164778
 20
-1.996012488118822
 30
0.0
 10
1.743237101169421
 20
-1.992228418658353
 30
0.0
 10
1.726849805828339
 20
-1.992228418658353
 30
0.0
 10
1.7066784410268
 20
-1.992228418658353
 30
0.0
 10
1.687933856513622
 20
-1.993345029318827
 30
0.0
 10
1.670605713301218
 20
-1.995536894689369
 30
0.0
 10
1.653267231101217
 20
-1.99777011601029
 30
0.0
 10
1.614671790401998
 20
-1.998845370720371
 30
0.0
 10
1.554809052215963
 20
-1.998845370720371
 30
0.0
 10
1.508159540178756
 20
-1.998845370720371
 30
0.0
 10
1.484855462135354
 20
-1.968924340614952
 30
0.0
 10
1.484855462135354
 20
-1.909040924453721
 30
0.0
 10
1.484855462135354
 20
-1.909040924453721
 30
0.0
 10
1.484855462135354
 20
-0.8219377345902785
 30
0.0
 10
1.484855462135354
 20
-0.8219377345902785
 30
0.0
 10
1.484855462135354
 20
-0.7740475440414482
 30
0.0
 10
1.475705458112088
 20
-0.7365583750150916
 30
0.0
 10
1.457436467028376
 20
-0.7094495495360257
 30
0.0
 10
1.437265102226825
 20
-0.6798386890585056
 30
0.0
 10
1.406392885262486
 20
-0.6650125808445561
 30
0.0
 10
1.364799138160164
 20
-0.6650125808445561
 30
0.0
 10
1.321313356327614
 20
-0.6650125808445561
 30
0.0
 10
1.291061478619086
 20
-0.6795285194306062
 30
0.0
 10
1.274043505034595
 20
-0.7084983626771064
 30
0.0
 10
1.260809600910572
 20
-0.7318231186957038
 30
0.0
 10
1.254192648848554
 20
-0.7721658482988055
 30
0.0
 10
1.254192648848554
 20
-0.829505873511203
 30
0.0
 10
1.254192648848554
 20
-0.829505873511203
 30
0.0
 10
1.254192648848554
 20
-1.85988937741806
 30
0.0
 10
1.254192648848554
 20
-1.85988937741806
 30
0.0
 10
1.254192648848554
 20
-1.951286027774636
 30
0.0
 10
1.271830961688857
 20
-2.020288430996339
 30
0.0
 10
1.307138604332269
 20
-2.06691726505835
 30
0.0
 10
1.342425569000486
 20
-2.113566777095558
 30
0.0
 10
1.404500850532258
 20
-2.13687085513896
 30
0.0
 10
1.4933644489276
 20
-2.13687085513896
 30
0.0
  0
SPLINE
  5
49
330
1F
100
AcDbEntity
  8
Layer 1
370
     0
100
AcDbSpline
210
0.0
220
0.0
230
1.0
 70
    11
 71
     3
 72
    65
 73
    61
 74
     0
 42
0.0000000001
 43
0.0000000001
 12
1.0
 22
0.0
 32
0.0
 13
1.0
 23
0.0
 33
0.0
 40
0.0
 40
0.0
 40
0.0
 40
0.0
 40
1.0
 40
1.0
 40
1.0
 40
2.0
 40
2.0
 40
2.0
 40
3.0
 40
3.0
 40
3.0
 40
4.0
 40
4.0
 40
4.0
 40
5.0
 40
5.0
 40
5.0
 40
6.0
 40
6.0
 40
6.0
 40
7.0
 40
7.0
 40
7.0
 40
8.0
 40
8.0
 40
8.0
 40
9.0
 40
9.0
 40
9.0
 40
10.0
 40
10.0
 40
10.0
 40
11.0
 40
11.0
 40
11.0
 40
12.0
 40
12.0
 40
12.0
 40
13.0
 40
13.0
 40
13.0
 40
14.0
 40
14.0
 40
14.0
 40
15.0
 40
15.0
 40
15.0
 40
16.0
 40
16.0
 40
16.0
 40
17.0
 40
17.0
 40
17.0
 40
18.0
 40
18.0
 40
18.0
 40
19.0
 40
19.0
 40
19.0
 40
20.0
 40
20.0
 40
20.0
 40
20.0
 10
1.974520253712032
 20
-2.000747744438197
 30
0.0
 10
1.967582793034517
 20
-2.005793170385485
 30
0.0
 10
1.955620584384911
 20
-2.008315883359134
 30
0.0
 10
1.938602610800406
 20
-2.008315883359134
 30
0.0
 10
1.888179368290341
 20
-2.008315883359134
 30
0.0
 10
1.862983255516699
 20
-2.029097248428898
 30
0.0
 10
1.862983255516699
 20
-2.070701334518819
 30
0.0
 10
1.862983255516699
 20
-2.103475925200983
 30
0.0
 10
1.886287333560113
 20
-2.119852881554468
 30
0.0
 10
1.93292650660971
 20
-2.119852881554468
 30
0.0
 10
1.93292650660971
 20
-2.119852881554468
 30
0.0
 10
2.250560883561623
 20
-2.119852881554468
 30
0.0
 10
2.250560883561623
 20
-2.119852881554468
 30
0.0
 10
2.300963448096493
 20
-2.119852881554468
 30
0.0
 10
2.326180238845331
 20
-2.104737281687802
 30
0.0
 10
2.326180238845331
 20
-2.074485403979275
 30
0.0
 10
2.326180238845331
 20
-2.050540308704866
 30
0.0
 10
2.315458708707347
 20
-2.032571148261455
 30
0.0
 10
2.294036326406576
 20
-2.020598600624251
 30
0.0
 10
2.283314796268592
 20
-2.014312496165328
 30
0.0
 10
2.264415126941458
 20
-2.010528426704872
 30
0.0
 10
2.23731664044999
 20
-2.009246392242858
 30
0.0
 10
2.221560023352317
 20
-2.008005713731222
 30
0.0
 10
2.213692053791078
 20
-1.999486387951379
 30
0.0
 10
2.213692053791078
 20
-1.983729770853706
 30
0.0
 10
2.213692053791078
 20
-1.983729770853706
 30
0.0
 10
2.213692053791078
 20
-0.8162719693871673
 30
0.0
 10
2.213692053791078
 20
-0.8162719693871673
 30
0.0
 10
2.213692053791078
 20
-0.8005153522894943
 30
0.0
 10
2.222511210211236
 20
-0.7920167044848464
 30
0.0
 10
2.240159862039137
 20
-0.7907553479980277
 30
0.0
 10
2.270411739747664
 20
-0.7894939915112091
 30
0.0
 10
2.291203443805026
 20
-0.7860200916786526
 30
0.0
 10
2.302545313198821
 20
-0.780354326475554
 30
0.0
 10
2.324598373743002
 20
-0.769002118094161
 30
0.0
 10
2.335630073508898
 20
-0.7510329576507502
 30
0.0
 10
2.335630073508898
 20
-0.7264675231205172
 30
0.0
 10
2.335630073508898
 20
-0.69621564541199
 30
0.0
 10
2.310423621747658
 20
-0.6810793675701411
 30
0.0
 10
2.260010718225178
 20
-0.6810793675701411
 30
0.0
 10
2.260010718225178
 20
-0.6810793675701411
 30
0.0
 10
1.938602610800406
 20
-0.6810793675701411
 30
0.0
 10
1.938602610800406
 20
-0.6810793675701411
 30
0.0
 10
1.888179368290341
 20
-0.6810793675701411
 30
0.0
 10
1.862983255516699
 20
-0.69621564541199
 30
0.0
 10
1.862983255516699
 20
-0.7264675231205172
 30
0.0
 10
1.862983255516699
 20
-0.7510329576507502
 30
0.0
 10
1.873994277307399
 20
-0.769002118094161
 30
0.0
 10
1.896068015826775
 20
-0.780354326475554
 30
0.0
 10
1.906768867989563
 20
-0.7860200916786526
 30
0.0
 10
1.926309554547705
 20
-0.7894939915112091
 30
0.0
 10
1.954669397525991
 20
-0.7907553479980277
 30
0.0
 10
1.974830423339944
 20
-0.7920167044848464
 30
0.0
 10
1.984921275234519
 20
-0.8030380652631441
 30
0.0
 10
1.984921275234519
 20
-0.8238401083081044
 30
0.0
 10
1.984921275234519
 20
-0.8238401083081044
 30
0.0
 10
1.984921275234519
 20
-1.976161631932781
 30
0.0
 10
1.984921275234519
 20
-1.976161631932781
 30
0.0
 10
1.984921275234519
 20
-1.987513840314174
 30
0.0
 10
1.98145771438956
 20
-1.99570231849091
 30
0.0
 10
1.974520253712032
 20
-2.000747744438197
 30
0.0
  0
SPLINE
  5
4A
330
1F
100
AcDbEntity
  8
Layer 1
370
     0
100
AcDbSpline
210
0.0
220
0.0
230
1.0
 70
    11
 71
     3
 72
    68
 73
    64
 74
     0
 42
0.0000000001
 43
0.0000000001
 12
1.0
 22
0.0
 32
0.0
 13
1.0
 23
0.0
 33
0.0
 40
0.0
 40
0.0
 40
0.0
 40
0.0
 40
1.0
 40
1.0
 40
1.0
 40
2.0
 40
2.0
 40
2.0
 40
3.0
 40
3.0
 40
3.0
 40
4.0
 40
4.0
 40
4.0
 40
5.0
 40
5.0
 40
5.0
 40
6.0
 40
6.0
 40
6.0
 40
7.0
 40
7.0
 40
7.0
 40
8.0
 40
8.0
 40
8.0
 40
9.0
 40
9.0
 40
9.0
 40
10.0
 40
10.0
 40
10.0
 40
11.0
 40
11.0
 40
11.0
 40
12.0
 40
12.0
 40
12.0
 40
13.0
 40
13.0
 40
13.0
 40
14.0
 40
14.0
 40
14.0
 40
15.0
 40
15.0
 40
15.0
 40
16.0
 40
16.0
 40
16.0
 40
17.0
 40
17.0
 40
17.0
 40
18.0
 40
18.0
 40
18.0
 40
19.0
 40
19.0
 40
19.0
 40
20.0
 40
20.0
 40
20.0
 40
21.0
 40
21.0
 40
21.0
 40
21.0
 10
2.430635030536791
 20
-0.7973723000600456
 30
0.0
 10
2.446712156249962
 20
-0.8099858649282572
 30
0.0
 10
2.47018165809493
 20
-0.8162719693871673
 30
0.0
 10
2.501064214046866
 20
-0.8162719693871673
 30
0.0
 10
2.501064214046866
 20
-0.8162719693871673
 30
0.0
 10
2.604102564437552
 20
-0.8162719693871673
 30
0.0
 10
2.604102564437552
 20
-0.8162719693871673
 30
0.0
 10
2.618587486060796
 20
-0.8162719693871673
 30
0.0
 10
2.625845455353821
 20
-0.8238401083081044
 30
0.0
 10
2.625845455353821
 20
-0.83895570817477
 30
0.0
 10
2.625845455353821
 20
-0.83895570817477
 30
0.0
 10
2.625845455353821
 20
-1.971447053588589
 30
0.0
 10
2.625845455353821
 20
-1.971447053588589
 30
0.0
 10
2.625845455353821
 20
-2.01745554839479
 30
0.0
 10
2.629629524814289
 20
-2.051470817588577
 30
0.0
 10
2.637187324747616
 20
-2.073534217120368
 30
0.0
 10
2.642222411707305
 20
-2.088649816987034
 30
0.0
 10
2.650100720256142
 20
-2.101573551483145
 30
0.0
 10
2.660822250394125
 20
-2.112284742633543
 30
0.0
 10
2.675948189248389
 20
-2.128661698987028
 30
0.0
 10
2.701144302022031
 20
-2.13687085513896
 30
0.0
 10
2.736441605677833
 20
-2.13687085513896
 30
0.0
 10
2.816475708665419
 20
-2.13687085513896
 30
0.0
 10
2.85649792965301
 20
-2.084266086245937
 30
0.0
 10
2.85649792965301
 20
-1.97899451453433
 30
0.0
 10
2.85649792965301
 20
-1.97899451453433
 30
0.0
 10
2.85649792965301
 20
-0.83895570817477
 30
0.0
 10
2.85649792965301
 20
-0.83895570817477
 30
0.0
 10
2.85649792965301
 20
-0.8238401083081044
 30
0.0
 10
2.864066068573948
 20
-0.8162719693871673
 30
0.0
 10
2.879192007428224
 20
-0.8162719693871673
 30
0.0
 10
2.879192007428224
 20
-0.8162719693871673
 30
0.0
 10
2.981279170959978
 20
-0.8162719693871673
 30
0.0
 10
2.981279170959978
 20
-0.8162719693871673
 30
0.0
 10
3.012151387924329
 20
-0.8162719693871673
 30
0.0
 10
3.035631228756882
 20
-0.8099858649282572
 30
0.0
 10
3.051708354470065
 20
-0.7973723000600456
 30
0.0
 10
3.067775141195625
 20
-0.7847587351918339
 30
0.0
 10
3.075808534558417
 20
-0.770883813836791
 30
0.0
 10
3.075808534558417
 20
-0.7557682139701253
 30
0.0
 10
3.075808534558417
 20
-0.7324641359267237
 30
0.0
 10
3.068085310823537
 20
-0.7154461623422195
 30
0.0
 10
3.052649202341374
 20
-0.7047142932166378
 30
0.0
 10
3.037202754871613
 20
-0.6940237800414479
 30
0.0
 10
3.018768339986334
 20
-0.6873861500042469
 30
0.0
 10
2.997345957685563
 20
-0.6848634370305969
 30
0.0
 10
2.975923575384791
 20
-0.6823614020321555
 30
0.0
 10
2.956382888826662
 20
-0.6810793675701411
 30
0.0
 10
2.938744575986346
 20
-0.6810793675701411
 30
0.0
 10
2.938744575986346
 20
-0.6810793675701411
 30
0.0
 10
2.543598809020498
 20
-0.6810793675701411
 30
0.0
 10
2.543598809020498
 20
-0.6810793675701411
 30
0.0
 10
2.525950157192597
 20
-0.6810793675701411
 30
0.0
 10
2.506409470634455
 20
-0.6823614020321555
 30
0.0
 10
2.484997427321281
 20
-0.6848634370305969
 30
0.0
 10
2.463564706032912
 20
-0.6873861500042469
 30
0.0
 10
2.445130291147646
 20
-0.6940237800414479
 30
0.0
 10
2.42969418266547
 20
-0.7047142932166378
 30
0.0
 10
2.414258074183307
 20
-0.7154461623422195
 30
0.0
 10
2.406534850448427
 20
-0.7324641359267237
 30
0.0
 10
2.406534850448427
 20
-0.7557682139701253
 30
0.0
 10
2.406534850448427
 20
-0.770883813836791
 30
0.0
 10
2.414568243811206
 20
-0.7847587351918339
 30
0.0
 10
2.430635030536791
 20
-0.7973723000600456
 30
0.0
  0
SPLINE
  5
4B
330
1F
100
AcDbEntity
  8
Layer 1
370
     0
100
AcDbSpline
210
0.0
220
0.0
230
1.0
 70
    11
 71
     3
 72
    68
 73
    64
 74
     0
 42
0.0000000001
 43
0.0000000001
 12
1.0
 22
0.0
 32
0.0
 13
1.0
 23
0.0
 33
0.0
 40
0.0
 40
0.0
 40
0.0
 40
0.0
 40
1.0
 40
1.0
 40
1.0
 40
2.0
 40
2.0
 40
2.0
 40
3.0
 40
3.0
 40
3.0
 40
4.0
 40
4.0
 40
4.0
 40
5.0
 40
5.0
 40
5.0
 40
6.0
 40
6.0
 40
6.0
 40
7.0
 40
7.0
 40
7.0
 40
8.0
 40
8.0
 40
8.0
 40
9.0
 40
9.0
 40
9.0
 40
10.0
 40
10.0
 40
10.0
 40
11.0
 40
11.0
 40
11.0
 40
12.0
 40
12.0
 40
12.0
 40
13.0
 40
13.0
 40
13.0
 40
14.0
 40
14.0
 40
14.0
 40
15.0
 40
15.0
 40
15.0
 40
16.0
 40
16.0
 40
16.0
 40
17.0
 40
17.0
 40
17.0
 40
18.0
 40
18.0
 40
18.0
 40
19.0
 40
19.0
 40
19.0
 40
20.0
 40
20.0
 40
20.0
 40
21.0
 40
21.0
 40
21.0
 40
21.0
 10
3.185939430440587
 20
-0.7973723000600456
 30
0.0
 10
3.202016556153744
 20
-0.8099858649282572
 30
0.0
 10
3.225486057998725
 20
-0.8162719693871673
 30
0.0
 10
3.256368613950649
 20
-0.8162719693871673
 30
0.0
 10
3.256368613950649
 20
-0.8162719693871673
 30
0.0
 10
3.359406964341335
 20
-0.8162719693871673
 30
0.0
 10
3.359406964341335
 20
-0.8162719693871673
 30
0.0
 10
3.373891885964591
 20
-0.8162719693871673
 30
0.0
 10
3.381149855257616
 20
-0.8238401083081044
 30
0.0
 10
3.381149855257616
 20
-0.83895570817477
 30
0.0
 10
3.381149855257616
 20
-0.83895570817477
 30
0.0
 10
3.381149855257616
 20
-1.971447053588589
 30
0.0
 10
3.381149855257616
 20
-1.971447053588589
 30
0.0
 10
3.381149855257616
 20
-2.01745554839479
 30
0.0
 10
3.384933924718073
 20
-2.051470817588577
 30
0.0
 10
3.392491724651411
 20
-2.073534217120368
 30
0.0
 10
3.397526811611088
 20
-2.088649816987034
 30
0.0
 10
3.405405120159937
 20
-2.101573551483145
 30
0.0
 10
3.416126650297908
 20
-2.112284742633543
 30
0.0
 10
3.431252589152185
 20
-2.128661698987028
 30
0.0
 10
3.456448701925814
 20
-2.13687085513896
 30
0.0
 10
3.491746005581641
 20
-2.13687085513896
 30
0.0
 10
3.571780108569227
 20
-2.13687085513896
 30
0.0
 10
3.611802329556819
 20
-2.084266086245937
 30
0.0
 10
3.611802329556819
 20
-1.97899451453433
 30
0.0
 10
3.611802329556819
 20
-1.97899451453433
 30
0.0
 10
3.611802329556819
 20
-0.83895570817477
 30
0.0
 10
3.611802329556819
 20
-0.83895570817477
 30
0.0
 10
3.611802329556819
 20
-0.8238401083081044
 30
0.0
 10
3.61937046847773
 20
-0.8162719693871673
 30
0.0
 10
3.634496407332007
 20
-0.8162719693871673
 30
0.0
 10
3.634496407332007
 20
-0.8162719693871673
 30
0.0
 10
3.736583570863786
 20
-0.8162719693871673
 30
0.0
 10
3.736583570863786
 20
-0.8162719693871673
 30
0.0
 10
3.767455787828112
 20
-0.8162719693871673
 30
0.0
 10
3.790935628660665
 20
-0.8099858649282572
 30
0.0
 10
3.807012754373848
 20
-0.7973723000600456
 30
0.0
 10
3.823079541099433
 20
-0.7847587351918339
 30
0.0
 10
3.831112934462201
 20
-0.770883813836791
 30
0.0
 10
3.831112934462201
 20
-0.7557682139701253
 30
0.0
 10
3.831112934462201
 20
-0.7324641359267237
 30
0.0
 10
3.82338971072732
 20
-0.7154461623422195
 30
0.0
 10
3.807953602245157
 20
-0.7047142932166378
 30
0.0
 10
3.792507154775396
 20
-0.6940237800414479
 30
0.0
 10
3.774072739890117
 20
-0.6873861500042469
 30
0.0
 10
3.752650357589346
 20
-0.6848634370305969
 30
0.0
 10
3.731227975288574
 20
-0.6823614020321555
 30
0.0
 10
3.711687288730445
 20
-0.6810793675701411
 30
0.0
 10
3.69404897589013
 20
-0.6810793675701411
 30
0.0
 10
3.69404897589013
 20
-0.6810793675701411
 30
0.0
 10
3.29890320892428
 20
-0.6810793675701411
 30
0.0
 10
3.29890320892428
 20
-0.6810793675701411
 30
0.0
 10
3.281254557096392
 20
-0.6810793675701411
 30
0.0
 10
3.261713870538238
 20
-0.6823614020321555
 30
0.0
 10
3.240301827225064
 20
-0.6848634370305969
 30
0.0
 10
3.218869105936695
 20
-0.6873861500042469
 30
0.0
 10
3.200434691051441
 20
-0.6940237800414479
 30
0.0
 10
3.184998582569253
 20
-0.7047142932166378
 30
0.0
 10
3.16956247408709
 20
-0.7154461623422195
 30
0.0
 10
3.161839250352209
 20
-0.7324641359267237
 30
0.0
 10
3.161839250352209
 20
-0.7557682139701253
 30
0.0
 10
3.161839250352209
 20
-0.770883813836791
 30
0.0
 10
3.169872643715002
 20
-0.7847587351918339
 30
0.0
 10
3.185939430440587
 20
-0.7973723000600456
 30
0.0
  0
SPLINE
  5
4C
330
1F
100
AcDbEntity
  8
Layer 1
370
     0
100
AcDbSpline
210
0.0
220
0.0
230
1.0
 70
    11
 71
     3
 72
    50
 73
    46
 74
     0
 42
0.0000000001
 43
0.0000000001
 12
1.0
 22
0.0
 32
0.0
 13
1.0
 23
0.0
 33
0.0
 40
0.0
 40
0.0
 40
0.0
 40
0.0
 40
1.0
 40
1.0
 40
1.0
 40
2.0
 40
2.0
 40
2.0
 40
3.0
 40
3.0
 40
3.0
 40
4.0
 40
4.0
 40
4.0
 40
5.0
 40
5.0
 40
5.0
 40
6.0
 40
6.0
 40
6.0
 40
7.0
 40
7.0
 40
7.0
 40
8.0
 40
8.0
 40
8.0
 40
9.0
 40
9.0
 40
9.0
 40
10.0
 40
10.0
 40
10.0
 40
11.0
 40
11.0
 40
11.0
 40
12.0
 40
12.0
 40
12.0
 40
13.0
 40
13.0
 40
13.0
 40
14.0
 40
14.0
 40
14.0
 40
15.0
 40
15.0
 40
15.0
 40
15.0
 10
4.142130359352096
 20
-2.13687085513896
 30
0.0
 10
4.22531785355674
 20
-2.13687085513896
 30
0.0
 10
4.290846356945874
 20
-2.130564072704854
 30
0.0
 10
4.338746886482315
 20
-2.117971185811838
 30
0.0
 10
4.403655050615624
 20
-2.100953212227334
 30
0.0
 10
4.436119471669902
 20
-2.074485403979275
 30
0.0
 10
4.436119471669902
 20
-2.038547083092466
 30
0.0
 10
4.436119471669902
 20
-2.022811143969976
 30
0.0
 10
4.430122858863696
 20
-2.011148765960684
 30
0.0
 10
4.418160650214077
 20
-2.003580627039747
 30
0.0
 10
4.406177763589286
 20
-1.996012488118822
 30
0.0
 10
4.392003011593943
 20
-1.992228418658353
 30
0.0
 10
4.375615716252847
 20
-1.992228418658353
 30
0.0
 10
4.355444351451297
 20
-1.992228418658353
 30
0.0
 10
4.336699766938131
 20
-1.993345029318827
 30
0.0
 10
4.319371623725727
 20
-1.995536894689369
 30
0.0
 10
4.302033141525726
 20
-1.99777011601029
 30
0.0
 10
4.263437700826494
 20
-1.998845370720371
 30
0.0
 10
4.203574962640459
 20
-1.998845370720371
 30
0.0
 10
4.156925450603264
 20
-1.998845370720371
 30
0.0
 10
4.13362137255985
 20
-1.968924340614952
 30
0.0
 10
4.13362137255985
 20
-1.909040924453721
 30
0.0
 10
4.13362137255985
 20
-1.909040924453721
 30
0.0
 10
4.13362137255985
 20
-0.8219377345902785
 30
0.0
 10
4.13362137255985
 20
-0.8219377345902785
 30
0.0
 10
4.13362137255985
 20
-0.7740475440414482
 30
0.0
 10
4.124471368536584
 20
-0.7365583750150916
 30
0.0
 10
4.106202377452872
 20
-0.7094495495360257
 30
0.0
 10
4.086031012651321
 20
-0.6798386890585056
 30
0.0
 10
4.055158795686995
 20
-0.6650125808445561
 30
0.0
 10
4.013565048584673
 20
-0.6650125808445561
 30
0.0
 10
3.97007926675211
 20
-0.6650125808445561
 30
0.0
 10
3.939827389043582
 20
-0.6795285194306062
 30
0.0
 10
3.922809415459091
 20
-0.7084983626771064
 30
0.0
 10
3.909575511335081
 20
-0.7318231186957038
 30
0.0
 10
3.90295855927305
 20
-0.7721658482988055
 30
0.0
 10
3.90295855927305
 20
-0.829505873511203
 30
0.0
 10
3.90295855927305
 20
-0.829505873511203
 30
0.0
 10
3.90295855927305
 20
-1.85988937741806
 30
0.0
 10
3.90295855927305
 20
-1.85988937741806
 30
0.0
 10
3.90295855927305
 20
-1.951286027774636
 30
0.0
 10
3.920596872113366
 20
-2.020288430996339
 30
0.0
 10
3.955904514756766
 20
-2.06691726505835
 30
0.0
 10
3.991191479424995
 20
-2.113566777095558
 30
0.0
 10
4.053266760956754
 20
-2.13687085513896
 30
0.0
 10
4.142130359352096
 20
-2.13687085513896
 30
0.0
  0
SPLINE
  5
4D
330
1F
100
AcDbEntity
  8
Layer 1
370
     0
100
AcDbSpline
210
0.0
220
0.0
230
1.0
 70
    11
 71
     3
 72
   107
 73
   103
 74
     0
 42
0.0000000001
 43
0.0000000001
 12
1.0
 22
0.0
 32
0.0
 13
1.0
 23
0.0
 33
0.0
 40
0.0
 40
0.0
 40
0.0
 40
0.0
 40
1.0
 40
1.0
 40
1.0
 40
2.0
 40
2.0
 40
2.0
 40
3.0
 40
3.0
 40
3.0
 40
4.0
 40
4.0
 40
4.0
 40
5.0
 40
5.0
 40
5.0
 40
6.0
 40
6.0
 40
6.0
 40
7.0
 40
7.0
 40
7.0
 40
8.0
 40
8.0
 40
8.0
 40
9.0
 40
9.0
 40
9.0
 40
10.0
 40
10.0
 40
10.0
 40
11.0
 40
11.0
 40
11.0
 40
12.0
 40
12.0
 40
12.0
 40
13.0
 40
13.0
 40
13.0
 40
14.0
 40
14.0
 40
14.0
 40
15.0
 40
15.0
 40
15.0
 40
16.0
 40
16.0
 40
16.0
 40
17.0
 40
17.0
 40
17.0
 40
18.0
 40
18.0
 40
18.0
 40
19.0
 40
19.0
 40
19.0
 40
20.0
 40
20.0
 40
20.0
 40
21.0
 40
21.0
 40
21.0
 40
22.0
 40
22.0
 40
22.0
 40
23.0
 40
23.0
 40
23.0
 40
24.0
 40
24.0
 40
24.0
 40
25.0
 40
25.0
 40
25.0
 40
26.0
 40
26.0
 40
26.0
 40
27.0
 40
27.0
 40
27.0
 40
28.0
 40
28.0
 40
28.0
 40
29.0
 40
29.0
 40
29.0
 40
30.0
 40
30.0
 40
30.0
 40
31.0
 40
31.0
 40
31.0
 40
32.0
 40
32.0
 40
32.0
 40
33.0
 40
33.0
 40
33.0
 40
34.0
 40
34.0
 40
34.0
 40
34.0
 10
4.593034286428014
 20
-2.099050838509508
 30
0.0
 10
4.640924476976857
 20
-2.124257290270748
 30
0.0
 10
4.707735014828004
 20
-2.13687085513896
 30
0.0
 10
4.793445222006286
 20
-2.13687085513896
 30
0.0
 10
4.891758655065183
 20
-2.13687085513896
 30
0.0
 10
4.961071227914797
 20
-2.128206783532758
 30
0.0
 10
5.001413957517898
 20
-2.110878640320354
 30
0.0
 10
5.041736009145804
 20
-2.093550497107963
 30
0.0
 10
5.061907373947355
 20
-2.069439978031988
 30
0.0
 10
5.061907373947355
 20
-2.038547083092466
 30
0.0
 10
5.061907373947355
 20
-2.022811143969976
 30
0.0
 10
5.055766015314778
 20
-2.011148765960684
 30
0.0
 10
5.043472959062076
 20
-2.003580627039747
 30
0.0
 10
5.031190241796947
 20
-1.996012488118822
 30
0.0
 10
5.016850066000061
 20
-1.992228418658353
 30
0.0
 10
5.000462770658967
 20
-1.992228418658353
 30
0.0
 10
4.975886997141161
 20
-1.992228418658353
 30
0.0
 10
4.951455969449676
 20
-1.993345029318827
 30
0.0
 10
4.927200704547355
 20
-1.995536894689369
 30
0.0
 10
4.902935100657436
 20
-1.99777011601029
 30
0.0
 10
4.878524750941172
 20
-1.998845370720371
 30
0.0
 10
4.853938638435744
 20
-1.998845370720371
 30
0.0
 10
4.776427248421795
 20
-1.998845370720371
 30
0.0
 10
4.724111971181501
 20
-1.979635531765338
 30
0.0
 10
4.697023823677606
 20
-1.941195175880075
 30
0.0
 10
4.680005850093115
 20
-1.915988724118834
 30
0.0
 10
4.671496863300868
 20
-1.880071081207209
 30
0.0
 10
4.671496863300868
 20
-1.833421569170001
 30
0.0
 10
4.671496863300868
 20
-1.833421569170001
 30
0.0
 10
4.671496863300868
 20
-1.789935787337451
 30
0.0
 10
4.671496863300868
 20
-1.789935787337451
 30
0.0
 10
4.671496863300868
 20
-1.763467979089392
 30
0.0
 10
4.686622802155145
 20
-1.750234074965356
 30
0.0
 10
4.716874679863673
 20
-1.750234074965356
 30
0.0
 10
4.716874679863673
 20
-1.750234074965356
 30
0.0
 10
4.912550359122557
 20
-1.753066957566918
 30
0.0
 10
4.912550359122557
 20
-1.753066957566918
 30
0.0
 10
4.935244436897746
 20
-1.753066957566918
 30
0.0
 10
4.952872410750463
 20
-1.747732039966915
 30
0.0
 10
4.965485975618675
 20
-1.737000170841333
 30
0.0
 10
4.978089201499288
 20
-1.726288979690947
 30
0.0
 10
4.984395983933407
 20
-1.713365245194824
 30
0.0
 10
4.984395983933407
 20
-1.698249645328158
 30
0.0
 10
4.984395983933407
 20
-1.671781837080099
 30
0.0
 10
4.974946149269827
 20
-1.652861489777782
 30
0.0
 10
4.956036140955095
 20
-1.641529959371572
 30
0.0
 10
4.940279523857448
 20
-1.632080124708005
 30
0.0
 10
4.916334428583014
 20
-1.62734486838863
 30
0.0
 10
4.884190516144271
 20
-1.62734486838863
 30
0.0
 10
4.857722707896199
 20
-1.62734486838863
 30
0.0
 10
4.831089475846587
 20
-1.627985885619637
 30
0.0
 10
4.804311497970629
 20
-1.629226564131272
 30
0.0
 10
4.777523181107072
 20
-1.630508598593287
 30
0.0
 10
4.750900288045058
 20
-1.631128937849098
 30
0.0
 10
4.724432479796986
 20
-1.631128937849098
 30
0.0
 10
4.706783827969098
 20
-1.631128937849098
 30
0.0
 10
4.693549923845063
 20
-1.62703469876073
 30
0.0
 10
4.684730767424904
 20
-1.618846220583982
 30
0.0
 10
4.675901272017149
 20
-1.610657742407233
 30
0.0
 10
4.671496863300868
 20
-1.592068242708011
 30
0.0
 10
4.671496863300868
 20
-1.563057043511119
 30
0.0
 10
4.671496863300868
 20
-1.563057043511119
 30
0.0
 10
4.671496863300868
 20
-0.8918913246708876
 30
0.0
 10
4.671496863300868
 20
-0.8918913246708876
 30
0.0
 10
4.671496863300868
 20
-0.8414784211484073
 30
0.0
 10
4.693860093472974
 20
-0.8162719693871673
 30
0.0
 10
4.738617570779929
 20
-0.8162719693871673
 30
0.0
 10
4.762562666054363
 20
-0.8162719693871673
 30
0.0
 10
4.786662846142715
 20
-0.8167475628166332
 30
0.0
 10
4.810928450032634
 20
-0.8176780717003567
 30
0.0
 10
4.835183714934955
 20
-0.8186292585592633
 30
0.0
 10
4.85929423401093
 20
-0.8191048519887292
 30
0.0
 10
4.883249668272937
 20
-0.8191048519887292
 30
0.0
 10
4.916644598210925
 20
-0.8191048519887292
 30
0.0
 10
4.941530541356668
 20
-0.8123431541003532
 30
0.0
 10
4.957928175685336
 20
-0.7987784023732223
 30
0.0
 10
4.974305132038833
 20
-0.7852343286212873
 30
0.0
 10
4.982503949203166
 20
-0.770883813836791
 30
0.0
 10
4.982503949203166
 20
-0.7557682139701253
 30
0.0
 10
4.982503949203166
 20
-0.7148051451112122
 30
0.0
 10
4.956346310583007
 20
-0.6911702194647028
 30
0.0
 10
4.904041372330312
 20
-0.6848634370305969
 30
0.0
 10
4.882608651041942
 20
-0.6823614020321555
 30
0.0
 10
4.863067964483788
 20
-0.6810793675701411
 30
0.0
 10
4.845439990631095
 20
-0.6810793675701411
 30
0.0
 10
4.845439990631095
 20
-0.6810793675701411
 30
0.0
 10
4.590201403826464
 20
-0.6810793675701411
 30
0.0
 10
4.590201403826464
 20
-0.6810793675701411
 30
0.0
 10
4.515833066041978
 20
-0.6810793675701411
 30
0.0
 10
4.469824571235777
 20
-0.7116620928817635
 30
0.0
 10
4.452186258395487
 20
-0.7727861875546169
 30
0.0
 10
4.443987441231128
 20
-0.8017767087763256
 30
0.0
 10
4.43989320214276
 20
-0.836763842804228
 30
0.0
 10
4.43989320214276
 20
-0.8777062336879453
 30
0.0
 10
4.43989320214276
 20
-0.8777062336879453
 30
0.0
 10
4.43989320214276
 20
-1.67083065022118
 30
0.0
 10
4.43989320214276
 20
-1.67083065022118
 30
0.0
 10
4.43989320214276
 20
-1.731975422869242
 30
0.0
 10
4.4424055761288
 20
-1.790266634940546
 30
0.0
 10
4.447461341063697
 20
-1.845704286435117
 30
0.0
 10
4.458803210457492
 20
-1.968593493011844
 30
0.0
 10
4.507324079249732
 20
-2.053063021678503
 30
0.0
 10
4.593034286428014
 20
-2.099050838509508
 30
0.0
  0
HATCH
  5
4E
330
1F
100
AcDbEntity
  8
Layer 1
 62
    55
420
 11639378
100
AcDbHatch
 10
0.0
 20
0.0
 30
0.0
210
0.0
220
0.0
230
1.0
  2
SOLID
 70
     1
 71
     0
 91
       13
 92
        1
 93
        1
 72
     4
 94
        3
 73
     0
 74
     1
 95
       98
 96
       94
 40
0.0
 40
0.0
 40
0.0
 40
0.0
 40
1.0
 40
1.0
 40
1.0
 40
2.0
 40
2.0
 40
2.0
 40
3.0
 40
3.0
 40
3.0
 40
4.0
 40
4.0
 40
4.0
 40
5.0
 40
5.0
 40
5.0
 40
6.0
 40
6.0
 40
6.0
 40
7.0
 40
7.0
 40
7.0
 40
8.0
 40
8.0
 40
8.0
 40
9.0
 40
9.0
 40
9.0
 40
10.0
 40
10.0
 40
10.0
 40
11.0
 40
11.0
 40
11.0
 40
12.0
 40
12.0
 40
12.0
 40
13.0
 40
13.0
 40
13.0
 40
14.0
 40
14.0
 40
14.0
 40
15.0
 40
15.0
 40
15.0
 40
16.0
 40
16.0
 40
16.0
 40
17.0
 40
17.0
 40
17.0
 40
18.0
 40
18.0
 40
18.0
 40
19.0
 40
19.0
 40
19.0
 40
20.0
 40
20.0
 40
20.0
 40
21.0
 40
21.0
 40
21.0
 40
22.0
 40
22.0
 40
22.0
 40
23.0
 40
23.0
 40
23.0
 40
24.0
 40
24.0
 40
24.0
 40
25.0
 40
25.0
 40
25.0
 40
26.0
 40
26.0
 40
26.0
 40
27.0
 40
27.0
 40
27.0
 40
28.0
 40
28.0
 40
28.0
 40
29.0
 40
29.0
 40
29.0
 40
30.0
 40
30.0
 40
30.0
 40
31.0
 40
31.0
 40
31.0
 40
31.0
 10
1.127519372811359
 20
-3.70804544428918
 10
1.127519372811359
 20
-3.807609894847297
 10
1.119134453870275
 20
-3.893051288348058
 10
1.102405971938487
 20
-3.964410980741857
 10
1.07948443643617
 20
-4.063086278366654
 10
1.041168148402069
 20
-4.112423927179053
 10
0.9874364298609887
 20
-4.112423927179053
 10
0.9389775949943239
 20
-4.112423927179053
 10
0.9147533470547967
 20
-4.08775510277284
 10
0.9147533470547967
 20
-4.038417453960442
 10
0.9147533470547967
 20
-4.025204227811602
 10
0.9160767374671902
 20
-4.011970323687592
 10
0.9187235182920024
 20
-3.998757097538752
 10
0.9389775949943239
 20
-3.903617733672086
 10
0.9491201418268752
 20
-3.806720741913978
 10
0.9491201418268752
 20
-3.70804544428918
 10
0.9491201418268752
 20
-3.63403897107057
 10
0.9411901383400618
 20
-3.56576029698067
 10
0.9253301313664224
 20
-3.503209422019431
 10
0.888326894757117
 20
-3.364005293014795
 10
0.8125524546594534
 20
-3.294403228512465
 10
0.6980274890486144
 20
-3.294403228512465
 10
0.6143230454641248
 20
-3.294403228512465
 10
0.5504591190780906
 20
-3.333629347455093
 10
0.5064150319153037
 20
-3.412019551414788
 10
0.469411795306011
 20
-3.47723788517601
 10
0.4509153464951572
 20
-3.563134194131054
 10
0.4509153464951572
 20
-3.669708478279871
 10
0.4509153464951572
 20
-3.7719197096628
 10
0.4777760362718987
 20
-3.868382463941872
 10
0.5315284327881752
 20
-3.959117419092232
 10
0.5808557426129634
 20
-4.041932709743403
 10
0.6649944236765274
 20
-4.141931397780581
 10
0.7839341369912441
 20
-4.259092805228647
 10
0.8332614468160449
 20
-4.308451132016241
 10
0.8786185854036274
 20
-4.358657255786763
 10
0.9200469087044085
 20
-4.40975253249063
 10
1.009903049909048
 20
-4.523398684155735
 10
1.054836290005167
 20
-4.639691616645652
 10
1.054836290005167
 20
-4.758631329960356
 10
1.054836290005167
 20
-4.867873072909181
 10
1.024439666470281
 20
-4.957739553101419
 10
0.9636567583881211
 20
-5.028210092561898
 10
0.8834779095741775
 20
-5.120723353578922
 10
0.7676192145633346
 20
-5.166959306112251
 10
0.6161013513308009
 20
-5.166959306112251
 10
0.4830592589339125
 20
-5.166959306112251
 10
0.3813029430052413
 20
-5.121178269033205
 10
0.3108324035447873
 20
-5.029533482974279
 10
0.2544435651912964
 20
-4.954658534797545
 10
0.2262594850021615
 20
-4.852447303414616
 10
0.2262594850021615
 20
-4.722941144775884
 10
0.2262594850021615
 20
-4.686837400087496
 10
0.234851183695178
 20
-4.656440776552623
 10
0.2520242420936256
 20
-4.631751274171241
 10
0.2692076394796711
 20
-4.607103127740225
 10
0.2923359547339335
 20
-4.594758376549533
 10
0.3214091878564128
 20
-4.594758376549533
 10
0.3742620924517471
 20
-4.594758376549533
 10
0.4006988837370247
 20
-4.627801780909218
 10
0.4006988837370247
 20
-4.693867911653393
 10
0.4006988837370247
 20
-4.733507590099912
 10
0.4064163438781002
 20
-4.774057099454946
 10
0.4178719421354723
 20
-4.815454405792909
 10
0.4434195804874055
 20
-4.914129703417706
 10
0.503313335636234
 20
-4.963446674254909
 10
0.5975945635323493
 20
-4.963446674254909
 10
0.7024318977648943
 20
-4.963446674254909
 10
0.7548609038687648
 20
-4.905755123464233
 10
0.7548609038687648
 20
-4.790330665932465
 10
0.7548609038687648
 20
-4.71634487068905
 10
0.716534276847066
 20
-4.636610598341778
 10
0.6398913617912537
 20
-4.551148526865821
 10
0.6046354140858309
 20
-4.51328715428599
 10
0.5663191260517301
 20
-4.473626797864275
 10
0.5249114807261573
 20
-4.432208813551092
 10
0.4103761761277206
 20
-4.319451814819331
 10
0.3240456296936145
 20
-4.217695498890659
 10
0.2658991634486685
 20
-4.126960543740274
 10
0.180437091972711
 20
-3.995696757210074
 10
0.1377163952223175
 20
-3.849896354118603
 10
0.1377163952223175
 20
-3.689538656490716
 10
0.1377163952223175
 20
-3.579428438583768
 10
0.1557682675665117
 20
-3.480732462983774
 10
0.1919030292176684
 20
-3.393512763616349
 10
0.2174403285820037
 20
-3.331871719563626
 10
0.2535544122579646
 20
-3.279432374472157
 10
0.3002659582207596
 20
-3.236256762267506
 10
0.3901220994253991
 20
-3.151683843724893
 10
0.5099302876982519
 20
-3.109397384453587
 10
0.6597112010145135
 20
-3.109397384453587
 10
0.9715764228873492
 20
-3.109397384453587
 10
1.127519372811359
 20
-3.308939845073711
 10
1.127519372811359
 20
-3.70804544428918
 97
        0
 97
        0
 92
        1
 93
        1
 72
     4
 94
        3
 73
     0
 74
     1
 95
       65
 96
       61
 40
0.0
 40
0.0
 40
0.0
 40
0.0
 40
1.0
 40
1.0
 40
1.0
 40
2.0
 40
2.0
 40
2.0
 40
3.0
 40
3.0
 40
3.0
 40
4.0
 40
4.0
 40
4.0
 40
5.0
 40
5.0
 40
5.0
 40
6.0
 40
6.0
 40
6.0
 40
7.0
 40
7.0
 40
7.0
 40
8.0
 40
8.0
 40
8.0
 40
9.0
 40
9.0
 40
9.0
 40
10.0
 40
10.0
 40
10.0
 40
11.0
 40
11.0
 40
11.0
 40
12.0
 40
12.0
 40
12.0
 40
13.0
 40
13.0
 40
13.0
 40
14.0
 40
14.0
 40
14.0
 40
15.0
 40
15.0
 40
15.0
 40
16.0
 40
16.0
 40
16.0
 40
17.0
 40
17.0
 40
17.0
 40
18.0
 40
18.0
 40
18.0
 40
19.0
 40
19.0
 40
19.0
 40
20.0
 40
20.0
 40
20.0
 40
20.0
 10
1.73407675815857
 20
-3.285160173600843
 10
1.776363217429889
 20
-3.283402545709375
 10
1.805436450552368
 20
-3.278543221538838
 10
1.821296457526008
 20
-3.270623557039597
 10
1.852127318539955
 20
-3.25476355006597
 10
1.867553088034533
 20
-3.229660488180697
 10
1.867553088034533
 20
-3.195293693408606
 10
1.867553088034533
 20
-3.153007234137299
 10
1.832307479316708
 20
-3.131874343489244
 10
1.761826600868643
 20
-3.131874343489244
 10
1.761826600868643
 20
-3.131874343489244
 10
1.312525216870249
 20
-3.131874343489244
 10
1.312525216870249
 20
-3.131874343489244
 10
1.2420339994346
 20
-3.131874343489244
 10
1.206798729704373
 20
-3.153007234137299
 10
1.206798729704373
 20
-3.195293693408606
 10
1.206798729704373
 20
-3.229660488180697
 10
1.222203821223754
 20
-3.25476355006597
 10
1.253055360212898
 20
-3.270623557039597
 10
1.268026214253205
 20
-3.278543221538838
 10
1.295341819484204
 20
-3.283402545709375
 10
1.334991836918309
 20
-3.285160173600843
 10
1.363175917107456
 20
-3.286938479467507
 10
1.377278296189628
 20
-3.302343570986901
 10
1.377278296189628
 20
-3.331416804109368
 10
1.377278296189628
 20
-3.331416804109368
 10
1.377278296189628
 20
-4.942313783606854
 10
1.377278296189628
 20
-4.942313783606854
 10
1.377278296189628
 20
-4.958173790580505
 10
1.372418972019078
 20
-4.969629388837853
 10
1.362741679628382
 20
-4.976680578378945
 10
1.353033370274892
 20
-4.983731767920037
 10
1.336304888343117
 20
-4.987247023702972
 10
1.312525216870249
 20
-4.987247023702972
 10
1.2420339994346
 20
-4.987247023702972
 10
1.206798729704373
 20
-5.016320256825464
 10
1.206798729704373
 20
-5.074466723070397
 10
1.206798729704373
 20
-5.120289116099861
 10
1.2393872186098
 20
-5.143179634639384
 10
1.304595213383436
 20
-5.143179634639384
 10
1.304595213383436
 20
-5.143179634639384
 10
1.748613374719816
 20
-5.143179634639384
 10
1.748613374719816
 20
-5.143179634639384
 10
1.81908391418027
 20
-5.143179634639384
 10
1.854339861885693
 20
-5.122026066016133
 10
1.854339861885693
 20
-5.079739606744826
 10
1.854339861885693
 20
-5.046282642881275
 10
1.839348329870189
 20
-5.021158903020805
 10
1.809406621789574
 20
-5.00443042108903
 10
1.79441508977407
 20
-4.99562160365647
 10
1.767988637476403
 20
-4.990348719982042
 10
1.730116925908962
 20
-4.988570414115379
 10
1.708084543339977
 20
-4.98681278622391
 10
1.697073521549277
 20
-4.974922950487477
 10
1.697073521549277
 20
-4.952880228930881
 10
1.697073521549277
 20
-4.952880228930881
 10
1.697073521549277
 20
-3.320829680810145
 10
1.697073521549277
 20
-3.320829680810145
 10
1.697073521549277
 20
-3.298828315203941
 10
1.70940793375237
 20
-3.286938479467507
 10
1.73407675815857
 20
-3.285160173600843
 97
        0
 97
        0
 92
        1
 93
        1
 72
     4
 94
        3
 73
     0
 74
     1
 95
       98
 96
       94
 40
0.0
 40
0.0
 40
0.0
 40
0.0
 40
1.0
 40
1.0
 40
1.0
 40
2.0
 40
2.0
 40
2.0
 40
3.0
 40
3.0
 40
3.0
 40
4.0
 40
4.0
 40
4.0
 40
5.0
 40
5.0
 40
5.0
 40
6.0
 40
6.0
 40
6.0
 40
7.0
 40
7.0
 40
7.0
 40
8.0
 40
8.0
 40
8.0
 40
9.0
 40
9.0
 40
9.0
 40
10.0
 40
10.0
 40
10.0
 40
11.0
 40
11.0
 40
11.0
 40
12.0
 40
12.0
 40
12.0
 40
13.0
 40
13.0
 40
13.0
 40
14.0
 40
14.0
 40
14.0
 40
15.0
 40
15.0
 40
15.0
 40
16.0
 40
16.0
 40
16.0
 40
17.0
 40
17.0
 40
17.0
 40
18.0
 40
18.0
 40
18.0
 40
19.0
 40
19.0
 40
19.0
 40
20.0
 40
20.0
 40
20.0
 40
21.0
 40
21.0
 40
21.0
 40
22.0
 40
22.0
 40
22.0
 40
23.0
 40
23.0
 40
23.0
 40
24.0
 40
24.0
 40
24.0
 40
25.0
 40
25.0
 40
25.0
 40
26.0
 40
26.0
 40
26.0
 40
27.0
 40
27.0
 40
27.0
 40
28.0
 40
28.0
 40
28.0
 40
29.0
 40
29.0
 40
29.0
 40
30.0
 40
30.0
 40
30.0
 40
31.0
 40
31.0
 40
31.0
 40
31.0
 10
2.449017750484081
 20
-3.109397384453587
 10
2.299236837167806
 20
-3.109397384453587
 10
2.179428648894953
 20
-3.151683843724893
 10
2.089572507690314
 20
-3.236256762267506
 10
2.042860961727532
 20
-3.279432374472157
 10
2.006746878051571
 20
-3.331871719563626
 10
1.981209578687235
 20
-3.393512763616349
 10
1.945074817036066
 20
-3.480732462983774
 10
1.927022944691885
 20
-3.579428438583768
 10
1.927022944691885
 20
-3.689538656490716
 10
1.927022944691885
 20
-3.849896354118603
 10
1.969743641442266
 20
-3.995696757210074
 10
2.055205712918223
 20
-4.126960543740274
 10
2.113352179163182
 20
-4.217695498890659
 10
2.199682725597288
 20
-4.319451814819331
 10
2.314218030195712
 20
-4.432208813551092
 10
2.355625675521297
 20
-4.473626797864275
 10
2.393941963555398
 20
-4.51328715428599
 10
2.429197911260821
 20
-4.551148526865821
 10
2.505840826316621
 20
-4.636610598341778
 10
2.544167453338332
 20
-4.71634487068905
 10
2.544167453338332
 20
-4.790330665932465
 10
2.544167453338332
 20
-4.905755123464233
 10
2.491738447234461
 20
-4.963446674254909
 10
2.386901113001916
 20
-4.963446674254909
 10
2.292619885105801
 20
-4.963446674254909
 10
2.232726129956973
 20
-4.914129703417706
 10
2.207178491605039
 20
-4.815454405792909
 10
2.195722893347667
 20
-4.774057099454946
 10
2.190005433206579
 20
-4.733507590099912
 10
2.190005433206579
 20
-4.693867911653393
 10
2.190005433206579
 20
-4.627801780909218
 10
2.163568641921314
 20
-4.594758376549533
 10
2.110715737325967
 20
-4.594758376549533
 10
2.081642504203501
 20
-4.594758376549533
 10
2.058514188949238
 20
-4.607103127740225
 10
2.041330791563193
 20
-4.631751274171241
 10
2.024157733164745
 20
-4.656440776552623
 10
2.015566034471716
 20
-4.686837400087496
 10
2.015566034471716
 20
-4.722941144775884
 10
2.015566034471716
 20
-4.852447303414616
 10
2.043750114660864
 20
-4.954658534797545
 10
2.100138953014342
 20
-5.029533482974279
 10
2.170609492474808
 20
-5.121178269033205
 10
2.272365808403479
 20
-5.166959306112251
 10
2.405407900800355
 20
-5.166959306112251
 10
2.556925764032902
 20
-5.166959306112251
 10
2.672784459043744
 20
-5.120723353578922
 10
2.752963307857676
 20
-5.028210092561898
 10
2.813746215939848
 20
-4.957739553101419
 10
2.844142839474721
 20
-4.867873072909181
 10
2.844142839474721
 20
-4.758631329960356
 10
2.844142839474721
 20
-4.639691616645652
 10
2.799209599378603
 20
-4.523398684155735
 10
2.709353458173963
 20
-4.40975253249063
 10
2.667925134873194
 20
-4.358657255786763
 10
2.622567996285599
 20
-4.308451132016241
 10
2.573240686460799
 20
-4.259092805228647
 10
2.454300973146094
 20
-4.141931397780581
 10
2.37016229208253
 20
-4.041932709743403
 10
2.320834982257729
 20
-3.959117419092232
 10
2.267082585741466
 20
-3.868382463941872
 10
2.240221895964724
 20
-3.7719197096628
 10
2.240221895964724
 20
-3.669708478279871
 10
2.240221895964724
 20
-3.563134194131054
 10
2.258718344775565
 20
-3.47723788517601
 10
2.295721581384871
 20
-3.412019551414788
 10
2.339765668547658
 20
-3.333629347455093
 10
2.403629594933692
 20
-3.294403228512465
 10
2.487334038518182
 20
-3.294403228512465
 10
2.60185900412902
 20
-3.294403228512465
 10
2.677633444226684
 20
-3.364005293014795
 10
2.714636680835989
 20
-3.503209422019431
 10
2.730496687809629
 20
-3.56576029698067
 10
2.738426691296455
 20
-3.63403897107057
 10
2.738426691296455
 20
-3.70804544428918
 10
2.738426691296455
 20
-3.806720741913978
 10
2.728284144463891
 20
-3.903617733672086
 10
2.70803006776157
 20
-3.998757097538752
 10
2.705383286936757
 20
-4.011970323687592
 10
2.704059896524351
 20
-4.025204227811602
 10
2.704059896524351
 20
-4.038417453960442
 10
2.704059896524351
 20
-4.08775510277284
 10
2.728284144463891
 20
-4.112423927179053
 10
2.776742979330543
 20
-4.112423927179053
 10
2.830474697871624
 20
-4.112423927179053
 10
2.868790985905737
 20
-4.063086278366654
 10
2.891712521408054
 20
-3.964410980741857
 10
2.90844100333983
 20
-3.893051288348058
 10
2.916825922280926
 20
-3.807609894847297
 10
2.916825922280926
 20
-3.70804544428918
 10
2.916825922280926
 20
-3.308939845073711
 10
2.760882972356916
 20
-3.109397384453587
 10
2.449017750484081
 20
-3.109397384453587
 97
        0
 97
        0
 92
        1
 93
        1
 72
     4
 94
        3
 73
     0
 74
     1
 95
       68
 96
       64
 40
0.0
 40
0.0
 40
0.0
 40
0.0
 40
1.0
 40
1.0
 40
1.0
 40
2.0
 40
2.0
 40
2.0
 40
3.0
 40
3.0
 40
3.0
 40
4.0
 40
4.0
 40
4.0
 40
5.0
 40
5.0
 40
5.0
 40
6.0
 40
6.0
 40
6.0
 40
7.0
 40
7.0
 40
7.0
 40
8.0
 40
8.0
 40
8.0
 40
9.0
 40
9.0
 40
9.0
 40
10.0
 40
10.0
 40
10.0
 40
11.0
 40
11.0
 40
11.0
 40
12.0
 40
12.0
 40
12.0
 40
13.0
 40
13.0
 40
13.0
 40
14.0
 40
14.0
 40
14.0
 40
15.0
 40
15.0
 40
15.0
 40
16.0
 40
16.0
 40
16.0
 40
17.0
 40
17.0
 40
17.0
 40
18.0
 40
18.0
 40
18.0
 40
19.0
 40
19.0
 40
19.0
 40
20.0
 40
20.0
 40
20.0
 40
21.0
 40
21.0
 40
21.0
 40
21.0
 10
3.834597173282368
 20
-3.164897069873733
 10
3.812999028192457
 20
-3.149926215833425
 10
3.787234271100967
 20
-3.140683160921804
 10
3.757292563020352
 20
-3.137147227163647
 10
3.727330176964541
 20
-3.133631971380712
 10
3.700014571733542
 20
-3.131874343489244
 10
3.675366425302551
 20
-3.131874343489244
 10
3.675366425302551
 20
-3.131874343489244
 10
3.122974995975483
 20
-3.131874343489244
 10
3.122974995975483
 20
-3.131874343489244
 10
3.09830617156927
 20
-3.131874343489244
 10
3.070980227350674
 20
-3.133631971380712
 10
3.041048858257656
 20
-3.137147227163647
 10
3.011086472201845
 20
-3.140683160921804
 10
2.985311376122783
 20
-3.149926215833425
 10
2.963733909008043
 20
-3.164897069873733
 10
2.942156441893328
 20
-3.179888601889236
 10
2.931362538842172
 20
-3.2036889513373
 10
2.931362538842172
 20
-3.236256762267506
 10
2.931362538842172
 20
-3.257410330890782
 10
2.94259067937239
 20
-3.276806271622541
 10
2.965057299420449
 20
-3.294403228512465
 10
2.987523919468508
 20
-3.31204154135278
 10
3.020329527113467
 20
-3.320829680810145
 10
3.063505139318118
 20
-3.320829680810145
 10
3.063505139318118
 20
-3.320829680810145
 10
3.207558253505693
 20
-3.320829680810145
 10
3.207558253505693
 20
-3.320829680810145
 10
3.227812330208028
 20
-3.320829680810145
 10
3.237944538052968
 20
-3.331416804109368
 10
3.237944538052968
 20
-3.352549694757423
 10
3.237944538052968
 20
-3.352549694757423
 10
3.237944538052968
 20
-4.935696831544848
 10
3.237944538052968
 20
-4.935696831544848
 10
3.237944538052968
 20
-5.000026012372751
 10
3.243238099702593
 20
-5.047606033293656
 10
3.25380454502662
 20
-5.07841621633242
 10
3.260845395580115
 20
-5.099569784955671
 10
3.271856417370802
 20
-5.117642335275049
 10
3.286837610398707
 20
-5.132613189315356
 10
3.307991179021958
 20
-5.155503707854905
 10
3.3432161097646
 20
-5.166959306112251
 10
3.392564097564597
 20
-5.166959306112251
 10
3.504431943363013
 20
-5.166959306112251
 10
3.56039688322504
 20
-5.093407748347923
 10
3.56039688322504
 20
-4.946283954844072
 10
3.56039688322504
 20
-4.946283954844072
 10
3.56039688322504
 20
-3.352549694757423
 10
3.56039688322504
 20
-3.352549694757423
 10
3.56039688322504
 20
-3.331416804109368
 10
3.570963328549068
 20
-3.320829680810145
 10
3.592106558184721
 20
-3.320829680810145
 10
3.592106558184721
 20
-3.320829680810145
 10
3.734825942972293
 20
-3.320829680810145
 10
3.734825942972293
 20
-3.320829680810145
 10
3.777980877201748
 20
-3.320829680810145
 10
3.8108175018095
 20
-3.31204154135278
 10
3.83328412185756
 20
-3.294403228512465
 10
3.855750741905619
 20
-3.276806271622541
 10
3.866978882435862
 20
-3.257410330890782
 10
3.866978882435862
 20
-3.236256762267506
 10
3.866978882435862
 20
-3.2036889513373
 10
3.856174640397082
 20
-3.179888601889236
 10
3.834597173282368
 20
-3.164897069873733
 97
        0
 97
        0
 92
        1
 93
        1
 72
     4
 94
        3
 73
     0
 74
     1
 95
      107
 96
      103
 40
0.0
 40
0.0
 40
0.0
 40
0.0
 40
1.0
 40
1.0
 40
1.0
 40
2.0
 40
2.0
 40
2.0
 40
3.0
 40
3.0
 40
3.0
 40
4.0
 40
4.0
 40
4.0
 40
5.0
 40
5.0
 40
5.0
 40
6.0
 40
6.0
 40
6.0
 40
7.0
 40
7.0
 40
7.0
 40
8.0
 40
8.0
 40
8.0
 40
9.0
 40
9.0
 40
9.0
 40
10.0
 40
10.0
 40
10.0
 40
11.0
 40
11.0
 40
11.0
 40
12.0
 40
12.0
 40
12.0
 40
13.0
 40
13.0
 40
13.0
 40
14.0
 40
14.0
 40
14.0
 40
15.0
 40
15.0
 40
15.0
 40
16.0
 40
16.0
 40
16.0
 40
17.0
 40
17.0
 40
17.0
 40
18.0
 40
18.0
 40
18.0
 40
19.0
 40
19.0
 40
19.0
 40
20.0
 40
20.0
 40
20.0
 40
21.0
 40
21.0
 40
21.0
 40
22.0
 40
22.0
 40
22.0
 40
23.0
 40
23.0
 40
23.0
 40
24.0
 40
24.0
 40
24.0
 40
25.0
 40
25.0
 40
25.0
 40
26.0
 40
26.0
 40
26.0
 40
27.0
 40
27.0
 40
27.0
 40
28.0
 40
28.0
 40
28.0
 40
29.0
 40
29.0
 40
29.0
 40
30.0
 40
30.0
 40
30.0
 40
31.0
 40
31.0
 40
31.0
 40
32.0
 40
32.0
 40
32.0
 40
33.0
 40
33.0
 40
33.0
 40
34.0
 40
34.0
 40
34.0
 40
34.0
 10
4.792690475911715
 20
-4.980630071640967
 10
4.775507078525682
 20
-4.970063626316939
 10
4.755459781575281
 20
-4.964770064667315
 10
4.73255892404816
 20
-4.964770064667315
 10
4.698202468263667
 20
-4.964770064667315
 10
4.664052792231106
 20
-4.96632091280685
 10
4.630140912913273
 20
-4.969401931110724
 10
4.596218694607867
 20
-4.972503627389793
 10
4.562089696550502
 20
-4.974033797554132
 10
4.527722901778412
 20
-4.974033797554132
 10
4.419359972775333
 20
-4.974033797554132
 10
4.346232313502469
 20
-4.947173107777391
 10
4.308360601935015
 20
-4.893410372273542
 10
4.284570591474575
 20
-4.858195780518498
 10
4.272680755738141
 20
-4.807968978772755
 10
4.272680755738141
 20
-4.742771322986729
 10
4.272680755738141
 20
-4.742771322986729
 10
4.272680755738141
 20
-4.681978075916959
 10
4.272680755738141
 20
-4.681978075916959
 10
4.272680755738141
 20
-4.644985178295276
 10
4.293823985373794
 20
-4.626478390496812
 10
4.336110444645101
 20
-4.626478390496812
 10
4.336110444645101
 20
-4.626478390496812
 10
4.609659378483835
 20
-4.63044856173403
 10
4.609659378483835
 20
-4.63044856173403
 10
4.641379392431114
 20
-4.63044856173403
 10
4.666027538862105
 20
-4.622963134713877
 10
4.683665851702421
 20
-4.607971602698373
 10
4.701273147579943
 20
-4.593000748658065
 10
4.7100923040001
 20
-4.574928198338688
 10
4.7100923040001
 20
-4.553795307690633
 10
4.7100923040001
 20
-4.51678173209373
 10
4.696879077851261
 20
-4.49035527979605
 10
4.670452625553581
 20
-4.474495272822423
 10
4.648420242984608
 20
-4.461282046673583
 10
4.614942601145836
 20
-4.454685772586749
 10
4.570019700037316
 20
-4.454685772586749
 10
4.533016463428035
 20
-4.454685772586749
 10
4.495785769091602
 20
-4.455574925520093
 10
4.458348295003234
 20
-4.457332553411561
 10
4.420890142939672
 20
-4.459090181303028
 10
4.383680126578434
 20
-4.459958656261177
 10
4.346687228956727
 20
-4.459958656261177
 10
4.322008065562942
 20
-4.459958656261177
 10
4.303511616752075
 20
-4.454251535107687
 10
4.291177204548982
 20
-4.442795936850315
 10
4.278832453358291
 20
-4.431340338592968
 10
4.272680755738141
 20
-4.40534812377435
 10
4.272680755738141
 20
-4.364819292394511
 10
4.272680755738141
 20
-4.364819292394511
 10
4.272680755738141
 20
-3.426556167976034
 10
4.272680755738141
 20
-3.426556167976034
 10
4.272680755738141
 20
-3.356085628515554
 10
4.303935515243564
 20
-3.320829680810145
 10
4.366507068179973
 20
-3.320829680810145
 10
4.399974371031147
 20
-3.320829680810145
 10
4.433669131609425
 20
-3.321491376016335
 10
4.467601688902454
 20
-3.322814766428741
 10
4.50150322923269
 20
-3.324138156841147
 10
4.535197989810968
 20
-3.324799852047363
 10
4.56869630962491
 20
-3.324799852047363
 10
4.615376838624924
 20
-3.324799852047363
 10
4.650167531888479
 20
-3.315350017383783
 10
4.673089067390795
 20
-3.296388314131086
 10
4.695989924917916
 20
-3.277447288853561
 10
4.707445523175289
 20
-3.257410330890782
 10
4.707445523175289
 20
-3.236256762267506
 10
4.707445523175289
 20
-3.178999448955892
 10
4.670886863032668
 20
-3.145976722571403
 10
4.597769542747401
 20
-3.137147227163647
 10
4.567807156691591
 20
-3.133631971380712
 10
4.540491551460591
 20
-3.131874343489244
 10
4.515833066041978
 20
-3.131874343489244
 10
4.515833066041978
 20
-3.131874343489244
 10
4.159034604073036
 20
-3.131874343489244
 10
4.159034604073036
 20
-3.131874343489244
 10
4.055065744798614
 20
-3.131874343489244
 10
3.99074690295831
 20
-3.174615718214808
 10
3.966088417539721
 20
-3.260057111715569
 10
3.954632819282349
 20
-3.300585943095408
 10
3.948915359141261
 20
-3.34946867645355
 10
3.948915359141261
 20
-3.406725989765164
 10
3.948915359141261
 20
-3.406725989765164
 10
3.948915359141261
 20
-4.515479019656519
 10
3.948915359141261
 20
-4.515479019656519
 10
3.948915359141261
 20
-4.600941091132477
 10
3.952420275936624
 20
-4.682432991371241
 10
3.959481804465288
 20
-4.759954720372762
 10
3.975341811438941
 20
-4.931747338282826
 10
4.04317590906218
 20
-5.04979789866421
 10
4.162994436322631
 20
-5.114106401516917
 10
4.229939381012551
 20
-5.149341671247157
 10
4.323331455975323
 20
-5.166959306112251
 10
4.443149983235799
 20
-5.166959306112251
 10
4.580586145361344
 20
-5.166959306112251
 10
4.677493476107075
 20
-5.154842012648689
 10
4.733882314460566
 20
-5.130628103696759
 10
4.790250474838836
 20
-5.10641419474483
 10
4.818455233003179
 20
-5.07270909517893
 10
4.818455233003179
 20
-5.029533482974279
 10
4.818455233003179
 20
-5.007511439392904
 10
4.80986353431015
 20
-4.991217194940191
 10
4.792690475911715
 20
-4.980630071640967
 97
        0
 97
        0
 92
        1
 93
        1
 72
     4
 94
        3
 73
     0
 74
     1
 95
       68
 96
       64
 40
0.0
 40
0.0
 40
0.0
 40
0.0
 40
1.0
 40
1.0
 40
1.0
 40
2.0
 40
2.0
 40
2.0
 40
3.0
 40
3.0
 40
3.0
 40
4.0
 40
4.0
 40
4.0
 40
5.0
 40
5.0
 40
5.0
 40
6.0
 40
6.0
 40
6.0
 40
7.0
 40
7.0
 40
7.0
 40
8.0
 40
8.0
 40
8.0
 40
9.0
 40
9.0
 40
9.0
 40
10.0
 40
10.0
 40
10.0
 40
11.0
 40
11.0
 40
11.0
 40
12.0
 40
12.0
 40
12.0
 40
13.0
 40
13.0
 40
13.0
 40
14.0
 40
14.0
 40
14.0
 40
15.0
 40
15.0
 40
15.0
 40
16.0
 40
16.0
 40
16.0
 40
17.0
 40
17.0
 40
17.0
 40
18.0
 40
18.0
 40
18.0
 40
19.0
 40
19.0
 40
19.0
 40
20.0
 40
20.0
 40
20.0
 40
21.0
 40
21.0
 40
21.0
 40
21.0
 10
5.861111115187567
 20
-5.06520299018358
 10
5.861111115187567
 20
-5.097812157064204
 10
5.851196026082132
 20
-5.122915218949477
 10
5.831376186858884
 20
-5.140532853814597
 10
5.811556347635638
 20
-5.158150488679691
 10
5.78445786114417
 20
-5.166959306112251
 10
5.750101405359676
 20
-5.166959306112251
 10
5.690176633248054
 20
-5.166959306112251
 10
5.628070334753475
 20
-5.116318944862642
 10
5.563772170888367
 20
-5.014996866413058
 10
5.494170106386061
 20
-4.909270379247169
 10
5.409586848855825
 20
-4.772299471563479
 10
5.310043076272905
 20
-4.604001431461155
 10
5.291546627462038
 20
-4.581110912921631
 10
5.280080690217093
 20
-4.56965531466426
 10
5.275686620488411
 20
-4.56965531466426
 10
5.267756617001573
 20
-4.56965531466426
 10
5.263796784751977
 20
-4.585515321637912
 10
5.263796784751977
 20
-4.617214657609995
 10
5.263796784751977
 20
-4.617214657609995
 10
5.263796784751977
 20
-4.946283954844072
 10
5.263796784751977
 20
-4.946283954844072
 10
5.263796784751977
 20
-5.093407748347923
 10
5.207831844889951
 20
-5.166959306112251
 10
5.095963999091534
 20
-5.166959306112251
 10
5.046616011291538
 20
-5.166959306112251
 10
5.011163622821767
 20
-5.155731165582034
 10
4.989586155707053
 20
-5.133274884521572
 10
4.967988010617116
 20
-5.110797925485914
 10
4.954557665728745
 20
-5.081952150090577
 10
4.949274443066744
 20
-5.046716880360337
 10
4.943991220404718
 20
-5.011481610630097
 10
4.941344439579906
 20
-4.974488713008415
 10
4.941344439579906
 20
-4.935696831544848
 10
4.941344439579906
 20
-4.935696831544848
 10
4.941344439579906
 20
-3.339336468608583
 10
4.941344439579906
 20
-3.339336468608583
 10
4.941344439579906
 20
-3.186050638496984
 10
5.017997693623329
 20
-3.109397384453587
 10
5.171283523734928
 20
-3.109397384453587
 10
5.347480550361271
 20
-3.109397384453587
 10
5.500342481981407
 20
-3.153462149591557
 10
5.629848640620139
 20
-3.241550323917131
 10
5.78049802889455
 20
-3.345519183191527
 10
5.855817553537943
 20
-3.503664337473689
 10
5.855817553537943
 20
-3.715965108788396
 10
5.855817553537943
 20
-3.870140091833339
 10
5.829391101240288
 20
-4.011122526704639
 10
5.776527857657331
 20
-4.138850379476708
 10
5.713098168750371
 20
-4.292136209588332
 10
5.616635414471299
 20
-4.40975253249063
 10
5.487129255832567
 20
-4.491678670208456
 10
5.480067727303877
 20
-4.496103756899932
 10
5.476552471520941
 20
-4.501397318549556
 10
5.476552471520941
 20
-4.507538677182108
 10
5.476552471520941
 20
-4.516347494614668
 10
5.507817570013963
 20
-4.557765478927826
 10
5.570378783962799
 20
-4.631751274171241
 10
5.59416879442324
 20
-4.65997671031078
 10
5.616180499017042
 20
-4.687271637566583
 10
5.636455253694572
 20
-4.713698089864238
 10
5.786215489035637
 20
-4.903997495572765
 10
5.861111115187567
 20
-5.021158903020805
 10
5.861111115187567
 20
-5.06520299018358
 97
        0
 97
        0
 92
        1
 93
        1
 72
     4
 94
        3
 73
     0
 74
     1
 95
       29
 96
       25
 40
0.0
 40
0.0
 40
0.0
 40
0.0
 40
1.0
 40
1.0
 40
1.0
 40
2.0
 40
2.0
 40
2.0
 40
3.0
 40
3.0
 40
3.0
 40
4.0
 40
4.0
 40
4.0
 40
5.0
 40
5.0
 40
5.0
 40
6.0
 40
6.0
 40
6.0
 40
7.0
 40
7.0
 40
7.0
 40
8.0
 40
8.0
 40
8.0
 40
8.0
 10
5.446155847986069
 20
-4.293459600000738
 10
5.506949095055814
 20
-4.224746688431752
 10
5.552306233643422
 20
-4.143689025672074
 10
5.582268619699233
 20
-4.050307289696876
 10
5.61749355044185
 20
-3.945469955464331
 10
5.635131863282165
 20
-3.838440755861257
 10
5.635131863282165
 20
-3.729178334937235
 10
5.635131863282165
 20
-3.654303386760501
 10
5.623676265024793
 20
-3.585590475191515
 10
5.600775407497673
 20
-3.523018922255081
 10
5.549669791806208
 20
-3.388239879941921
 10
5.452762461060476
 20
-3.320829680810145
 10
5.310043076272905
 20
-3.320829680810145
 10
5.279191537283749
 20
-3.321718833743489
 10
5.263796784751977
 20
-3.336255450304709
 10
5.263796784751977
 20
-3.364439530493857
 10
5.263796784751977
 20
-3.364439530493857
 10
5.263796784751977
 20
-4.350282675833291
 10
5.263796784751977
 20
-4.350282675833291
 10
5.263796784751977
 20
-4.381134214822421
 10
5.276555095446534
 20
-4.396539306341816
 10
5.302113072786065
 20
-4.396539306341816
 10
5.337338003528708
 20
-4.396539306341816
 10
5.385372939903896
 20
-4.362172511569725
 10
5.446155847986069
 20
-4.293459600000738
 97
        0
 97
        0
 92
        1
 93
        1
 72
     4
 94
        3
 73
     0
 74
     1
 95
       50
 96
       46
 40
0.0
 40
0.0
 40
0.0
 40
0.0
 40
1.0
 40
1.0
 40
1.0
 40
2.0
 40
2.0
 40
2.0
 40
3.0
 40
3.0
 40
3.0
 40
4.0
 40
4.0
 40
4.0
 40
5.0
 40
5.0
 40
5.0
 40
6.0
 40
6.0
 40
6.0
 40
7.0
 40
7.0
 40
7.0
 40
8.0
 40
8.0
 40
8.0
 40
9.0
 40
9.0
 40
9.0
 40
10.0
 40
10.0
 40
10.0
 40
11.0
 40
11.0
 40
11.0
 40
12.0
 40
12.0
 40
12.0
 40
13.0
 40
13.0
 40
13.0
 40
14.0
 40
14.0
 40
14.0
 40
15.0
 40
15.0
 40
15.0
 40
15.0
 10
1.4933644489276
 20
-2.13687085513896
 10
1.576551943132232
 20
-2.13687085513896
 10
1.642080446521378
 20
-2.130564072704854
 10
1.689980976057806
 20
-2.117971185811838
 10
1.754889140191128
 20
-2.100953212227334
 10
1.787353561245393
 20
-2.074485403979275
 10
1.787353561245393
 20
-2.038547083092466
 10
1.787353561245393
 20
-2.022811143969976
 10
1.781356948439187
 20
-2.011148765960684
 10
1.76939473978958
 20
-2.003580627039747
 10
1.757411853164778
 20
-1.996012488118822
 10
1.743237101169421
 20
-1.992228418658353
 10
1.726849805828339
 20
-1.992228418658353
 10
1.7066784410268
 20
-1.992228418658353
 10
1.687933856513622
 20
-1.993345029318827
 10
1.670605713301218
 20
-1.995536894689369
 10
1.653267231101217
 20
-1.99777011601029
 10
1.614671790401998
 20
-1.998845370720371
 10
1.554809052215963
 20
-1.998845370720371
 10
1.508159540178756
 20
-1.998845370720371
 10
1.484855462135354
 20
-1.968924340614952
 10
1.484855462135354
 20
-1.909040924453721
 10
1.484855462135354
 20
-1.909040924453721
 10
1.484855462135354
 20
-0.8219377345902785
 10
1.484855462135354
 20
-0.8219377345902785
 10
1.484855462135354
 20
-0.7740475440414482
 10
1.475705458112088
 20
-0.7365583750150916
 10
1.457436467028376
 20
-0.7094495495360257
 10
1.437265102226825
 20
-0.6798386890585056
 10
1.406392885262486
 20
-0.6650125808445561
 10
1.364799138160164
 20
-0.6650125808445561
 10
1.321313356327614
 20
-0.6650125808445561
 10
1.291061478619086
 20
-0.6795285194306062
 10
1.274043505034595
 20
-0.7084983626771064
 10
1.260809600910572
 20
-0.7318231186957038
 10
1.254192648848554
 20
-0.7721658482988055
 10
1.254192648848554
 20
-0.829505873511203
 10
1.254192648848554
 20
-0.829505873511203
 10
1.254192648848554
 20
-1.85988937741806
 10
1.254192648848554
 20
-1.85988937741806
 10
1.254192648848554
 20
-1.951286027774636
 10
1.271830961688857
 20
-2.020288430996339
 10
1.307138604332269
 20
-2.06691726505835
 10
1.342425569000486
 20
-2.113566777095558
 10
1.404500850532258
 20
-2.13687085513896
 10
1.4933644489276
 20
-2.13687085513896
 97
        0
 97
        0
 92
        1
 93
        1
 72
     4
 94
        3
 73
     0
 74
     1
 95
       65
 96
       61
 40
0.0
 40
0.0
 40
0.0
 40
0.0
 40
1.0
 40
1.0
 40
1.0
 40
2.0
 40
2.0
 40
2.0
 40
3.0
 40
3.0
 40
3.0
 40
4.0
 40
4.0
 40
4.0
 40
5.0
 40
5.0
 40
5.0
 40
6.0
 40
6.0
 40
6.0
 40
7.0
 40
7.0
 40
7.0
 40
8.0
 40
8.0
 40
8.0
 40
9.0
 40
9.0
 40
9.0
 40
10.0
 40
10.0
 40
10.0
 40
11.0
 40
11.0
 40
11.0
 40
12.0
 40
12.0
 40
12.0
 40
13.0
 40
13.0
 40
13.0
 40
14.0
 40
14.0
 40
14.0
 40
15.0
 40
15.0
 40
15.0
 40
16.0
 40
16.0
 40
16.0
 40
17.0
 40
17.0
 40
17.0
 40
18.0
 40
18.0
 40
18.0
 40
19.0
 40
19.0
 40
19.0
 40
20.0
 40
20.0
 40
20.0
 40
20.0
 10
1.974520253712032
 20
-2.000747744438197
 10
1.967582793034517
 20
-2.005793170385485
 10
1.955620584384911
 20
-2.008315883359134
 10
1.938602610800406
 20
-2.008315883359134
 10
1.888179368290341
 20
-2.008315883359134
 10
1.862983255516699
 20
-2.029097248428898
 10
1.862983255516699
 20
-2.070701334518819
 10
1.862983255516699
 20
-2.103475925200983
 10
1.886287333560113
 20
-2.119852881554468
 10
1.93292650660971
 20
-2.119852881554468
 10
1.93292650660971
 20
-2.119852881554468
 10
2.250560883561623
 20
-2.119852881554468
 10
2.250560883561623
 20
-2.119852881554468
 10
2.300963448096493
 20
-2.119852881554468
 10
2.326180238845331
 20
-2.104737281687802
 10
2.326180238845331
 20
-2.074485403979275
 10
2.326180238845331
 20
-2.050540308704866
 10
2.315458708707347
 20
-2.032571148261455
 10
2.294036326406576
 20
-2.020598600624251
 10
2.283314796268592
 20
-2.014312496165328
 10
2.264415126941458
 20
-2.010528426704872
 10
2.23731664044999
 20
-2.009246392242858
 10
2.221560023352317
 20
-2.008005713731222
 10
2.213692053791078
 20
-1.999486387951379
 10
2.213692053791078
 20
-1.983729770853706
 10
2.213692053791078
 20
-1.983729770853706
 10
2.213692053791078
 20
-0.8162719693871673
 10
2.213692053791078
 20
-0.8162719693871673
 10
2.213692053791078
 20
-0.8005153522894943
 10
2.222511210211236
 20
-0.7920167044848464
 10
2.240159862039137
 20
-0.7907553479980277
 10
2.270411739747664
 20
-0.7894939915112091
 10
2.291203443805026
 20
-0.7860200916786526
 10
2.302545313198821
 20
-0.780354326475554
 10
2.324598373743002
 20
-0.769002118094161
 10
2.335630073508898
 20
-0.7510329576507502
 10
2.335630073508898
 20
-0.7264675231205172
 10
2.335630073508898
 20
-0.69621564541199
 10
2.310423621747658
 20
-0.6810793675701411
 10
2.260010718225178
 20
-0.6810793675701411
 10
2.260010718225178
 20
-0.6810793675701411
 10
1.938602610800406
 20
-0.6810793675701411
 10
1.938602610800406
 20
-0.6810793675701411
 10
1.888179368290341
 20
-0.6810793675701411
 10
1.862983255516699
 20
-0.69621564541199
 10
1.862983255516699
 20
-0.7264675231205172
 10
1.862983255516699
 20
-0.7510329576507502
 10
1.873994277307399
 20
-0.769002118094161
 10
1.896068015826775
 20
-0.780354326475554
 10
1.906768867989563
 20
-0.7860200916786526
 10
1.926309554547705
 20
-0.7894939915112091
 10
1.954669397525991
 20
-0.7907553479980277
 10
1.974830423339944
 20
-0.7920167044848464
 10
1.984921275234519
 20
-0.8030380652631441
 10
1.984921275234519
 20
-0.8238401083081044
 10
1.984921275234519
 20
-0.8238401083081044
 10
1.984921275234519
 20
-1.976161631932781
 10
1.984921275234519
 20
-1.976161631932781
 10
1.984921275234519
 20
-1.987513840314174
 10
1.98145771438956
 20
-1.99570231849091
 10
1.974520253712032
 20
-2.000747744438197
 97
        0
 97
        0
 92
        1
 93
        1
 72
     4
 94
        3
 73
     0
 74
     1
 95
       68
 96
       64
 40
0.0
 40
0.0
 40
0.0
 40
0.0
 40
1.0
 40
1.0
 40
1.0
 40
2.0
 40
2.0
 40
2.0
 40
3.0
 40
3.0
 40
3.0
 40
4.0
 40
4.0
 40
4.0
 40
5.0
 40
5.0
 40
5.0
 40
6.0
 40
6.0
 40
6.0
 40
7.0
 40
7.0
 40
7.0
 40
8.0
 40
8.0
 40
8.0
 40
9.0
 40
9.0
 40
9.0
 40
10.0
 40
10.0
 40
10.0
 40
11.0
 40
11.0
 40
11.0
 40
12.0
 40
12.0
 40
12.0
 40
13.0
 40
13.0
 40
13.0
 40
14.0
 40
14.0
 40
14.0
 40
15.0
 40
15.0
 40
15.0
 40
16.0
 40
16.0
 40
16.0
 40
17.0
 40
17.0
 40
17.0
 40
18.0
 40
18.0
 40
18.0
 40
19.0
 40
19.0
 40
19.0
 40
20.0
 40
20.0
 40
20.0
 40
21.0
 40
21.0
 40
21.0
 40
21.0
 10
2.430635030536791
 20
-0.7973723000600456
 10
2.446712156249962
 20
-0.8099858649282572
 10
2.47018165809493
 20
-0.8162719693871673
 10
2.501064214046866
 20
-0.8162719693871673
 10
2.501064214046866
 20
-0.8162719693871673
 10
2.604102564437552
 20
-0.8162719693871673
 10
2.604102564437552
 20
-0.8162719693871673
 10
2.618587486060796
 20
-0.8162719693871673
 10
2.625845455353821
 20
-0.8238401083081044
 10
2.625845455353821
 20
-0.83895570817477
 10
2.625845455353821
 20
-0.83895570817477
 10
2.625845455353821
 20
-1.971447053588589
 10
2.625845455353821
 20
-1.971447053588589
 10
2.625845455353821
 20
-2.01745554839479
 10
2.629629524814289
 20
-2.051470817588577
 10
2.637187324747616
 20
-2.073534217120368
 10
2.642222411707305
 20
-2.088649816987034
 10
2.650100720256142
 20
-2.101573551483145
 10
2.660822250394125
 20
-2.112284742633543
 10
2.675948189248389
 20
-2.128661698987028
 10
2.701144302022031
 20
-2.13687085513896
 10
2.736441605677833
 20
-2.13687085513896
 10
2.816475708665419
 20
-2.13687085513896
 10
2.85649792965301
 20
-2.084266086245937
 10
2.85649792965301
 20
-1.97899451453433
 10
2.85649792965301
 20
-1.97899451453433
 10
2.85649792965301
 20
-0.83895570817477
 10
2.85649792965301
 20
-0.83895570817477
 10
2.85649792965301
 20
-0.8238401083081044
 10
2.864066068573948
 20
-0.8162719693871673
 10
2.879192007428224
 20
-0.8162719693871673
 10
2.879192007428224
 20
-0.8162719693871673
 10
2.981279170959978
 20
-0.8162719693871673
 10
2.981279170959978
 20
-0.8162719693871673
 10
3.012151387924329
 20
-0.8162719693871673
 10
3.035631228756882
 20
-0.8099858649282572
 10
3.051708354470065
 20
-0.7973723000600456
 10
3.067775141195625
 20
-0.7847587351918339
 10
3.075808534558417
 20
-0.770883813836791
 10
3.075808534558417
 20
-0.7557682139701253
 10
3.075808534558417
 20
-0.7324641359267237
 10
3.068085310823537
 20
-0.7154461623422195
 10
3.052649202341374
 20
-0.7047142932166378
 10
3.037202754871613
 20
-0.6940237800414479
 10
3.018768339986334
 20
-0.6873861500042469
 10
2.997345957685563
 20
-0.6848634370305969
 10
2.975923575384791
 20
-0.6823614020321555
 10
2.956382888826662
 20
-0.6810793675701411
 10
2.938744575986346
 20
-0.6810793675701411
 10
2.938744575986346
 20
-0.6810793675701411
 10
2.543598809020498
 20
-0.6810793675701411
 10
2.543598809020498
 20
-0.6810793675701411
 10
2.525950157192597
 20
-0.6810793675701411
 10
2.506409470634455
 20
-0.6823614020321555
 10
2.484997427321281
 20
-0.6848634370305969
 10
2.463564706032912
 20
-0.6873861500042469
 10
2.445130291147646
 20
-0.6940237800414479
 10
2.42969418266547
 20
-0.7047142932166378
 10
2.414258074183307
 20
-0.7154461623422195
 10
2.406534850448427
 20
-0.7324641359267237
 10
2.406534850448427
 20
-0.7557682139701253
 10
2.406534850448427
 20
-0.770883813836791
 10
2.414568243811206
 20
-0.7847587351918339
 10
2.430635030536791
 20
-0.7973723000600456
 97
        0
 97
        0
 92
        1
 93
        1
 72
     4
 94
        3
 73
     0
 74
     1
 95
       68
 96
       64
 40
0.0
 40
0.0
 40
0.0
 40
0.0
 40
1.0
 40
1.0
 40
1.0
 40
2.0
 40
2.0
 40
2.0
 40
3.0
 40
3.0
 40
3.0
 40
4.0
 40
4.0
 40
4.0
 40
5.0
 40
5.0
 40
5.0
 40
6.0
 40
6.0
 40
6.0
 40
7.0
 40
7.0
 40
7.0
 40
8.0
 40
8.0
 40
8.0
 40
9.0
 40
9.0
 40
9.0
 40
10.0
 40
10.0
 40
10.0
 40
11.0
 40
11.0
 40
11.0
 40
12.0
 40
12.0
 40
12.0
 40
13.0
 40
13.0
 40
13.0
 40
14.0
 40
14.0
 40
14.0
 40
15.0
 40
15.0
 40
15.0
 40
16.0
 40
16.0
 40
16.0
 40
17.0
 40
17.0
 40
17.0
 40
18.0
 40
18.0
 40
18.0
 40
19.0
 40
19.0
 40
19.0
 40
20.0
 40
20.0
 40
20.0
 40
21.0
 40
21.0
 40
21.0
 40
21.0
 10
3.185939430440587
 20
-0.7973723000600456
 10
3.202016556153744
 20
-0.8099858649282572
 10
3.225486057998725
 20
-0.8162719693871673
 10
3.256368613950649
 20
-0.8162719693871673
 10
3.256368613950649
 20
-0.8162719693871673
 10
3.359406964341335
 20
-0.8162719693871673
 10
3.359406964341335
 20
-0.8162719693871673
 10
3.373891885964591
 20
-0.8162719693871673
 10
3.381149855257616
 20
-0.8238401083081044
 10
3.381149855257616
 20
-0.83895570817477
 10
3.381149855257616
 20
-0.83895570817477
 10
3.381149855257616
 20
-1.971447053588589
 10
3.381149855257616
 20
-1.971447053588589
 10
3.381149855257616
 20
-2.01745554839479
 10
3.384933924718073
 20
-2.051470817588577
 10
3.392491724651411
 20
-2.073534217120368
 10
3.397526811611088
 20
-2.088649816987034
 10
3.405405120159937
 20
-2.101573551483145
 10
3.416126650297908
 20
-2.112284742633543
 10
3.431252589152185
 20
-2.128661698987028
 10
3.456448701925814
 20
-2.13687085513896
 10
3.491746005581641
 20
-2.13687085513896
 10
3.571780108569227
 20
-2.13687085513896
 10
3.611802329556819
 20
-2.084266086245937
 10
3.611802329556819
 20
-1.97899451453433
 10
3.611802329556819
 20
-1.97899451453433
 10
3.611802329556819
 20
-0.83895570817477
 10
3.611802329556819
 20
-0.83895570817477
 10
3.611802329556819
 20
-0.8238401083081044
 10
3.61937046847773
 20
-0.8162719693871673
 10
3.634496407332007
 20
-0.8162719693871673
 10
3.634496407332007
 20
-0.8162719693871673
 10
3.736583570863786
 20
-0.8162719693871673
 10
3.736583570863786
 20
-0.8162719693871673
 10
3.767455787828112
 20
-0.8162719693871673
 10
3.790935628660665
 20
-0.8099858649282572
 10
3.807012754373848
 20
-0.7973723000600456
 10
3.823079541099433
 20
-0.7847587351918339
 10
3.831112934462201
 20
-0.770883813836791
 10
3.831112934462201
 20
-0.7557682139701253
 10
3.831112934462201
 20
-0.7324641359267237
 10
3.82338971072732
 20
-0.7154461623422195
 10
3.807953602245157
 20
-0.7047142932166378
 10
3.792507154775396
 20
-0.6940237800414479
 10
3.774072739890117
 20
-0.6873861500042469
 10
3.752650357589346
 20
-0.6848634370305969
 10
3.731227975288574
 20
-0.6823614020321555
 10
3.711687288730445
 20
-0.6810793675701411
 10
3.69404897589013
 20
-0.6810793675701411
 10
3.69404897589013
 20
-0.6810793675701411
 10
3.29890320892428
 20
-0.6810793675701411
 10
3.29890320892428
 20
-0.6810793675701411
 10
3.281254557096392
 20
-0.6810793675701411
 10
3.261713870538238
 20
-0.6823614020321555
 10
3.240301827225064
 20
-0.6848634370305969
 10
3.218869105936695
 20
-0.6873861500042469
 10
3.200434691051441
 20
-0.6940237800414479
 10
3.184998582569253
 20
-0.7047142932166378
 10
3.16956247408709
 20
-0.7154461623422195
 10
3.161839250352209
 20
-0.7324641359267237
 10
3.161839250352209
 20
-0.7557682139701253
 10
3.161839250352209
 20
-0.770883813836791
 10
3.169872643715002
 20
-0.7847587351918339
 10
3.185939430440587
 20
-0.7973723000600456
 97
        0
 97
        0
 92
        1
 93
        1
 72
     4
 94
        3
 73
     0
 74
     1
 95
       50
 96
       46
 40
0.0
 40
0.0
 40
0.0
 40
0.0
 40
1.0
 40
1.0
 40
1.0
 40
2.0
 40
2.0
 40
2.0
 40
3.0
 40
3.0
 40
3.0
 40
4.0
 40
4.0
 40
4.0
 40
5.0
 40
5.0
 40
5.0
 40
6.0
 40
6.0
 40
6.0
 40
7.0
 40
7.0
 40
7.0
 40
8.0
 40
8.0
 40
8.0
 40
9.0
 40
9.0
 40
9.0
 40
10.0
 40
10.0
 40
10.0
 40
11.0
 40
11.0
 40
11.0
 40
12.0
 40
12.0
 40
12.0
 40
13.0
 40
13.0
 40
13.0
 40
14.0
 40
14.0
 40
14.0
 40
15.0
 40
15.0
 40
15.0
 40
15.0
 10
4.142130359352096
 20
-2.13687085513896
 10
4.22531785355674
 20
-2.13687085513896
 10
4.290846356945874
 20
-2.130564072704854
 10
4.338746886482315
 20
-2.117971185811838
 10
4.403655050615624
 20
-2.100953212227334
 10
4.436119471669902
 20
-2.074485403979275
 10
4.436119471669902
 20
-2.038547083092466
 10
4.436119471669902
 20
-2.022811143969976
 10
4.430122858863696
 20
-2.011148765960684
 10
4.418160650214077
 20
-2.003580627039747
 10
4.406177763589286
 20
-1.996012488118822
 10
4.392003011593943
 20
-1.992228418658353
 10
4.375615716252847
 20
-1.992228418658353
 10
4.355444351451297
 20
-1.992228418658353
 10
4.336699766938131
 20
-1.993345029318827
 10
4.319371623725727
 20
-1.995536894689369
 10
4.302033141525726
 20
-1.99777011601029
 10
4.263437700826494
 20
-1.998845370720371
 10
4.203574962640459
 20
-1.998845370720371
 10
4.156925450603264
 20
-1.998845370720371
 10
4.13362137255985
 20
-1.968924340614952
 10
4.13362137255985
 20
-1.909040924453721
 10
4.13362137255985
 20
-1.909040924453721
 10
4.13362137255985
 20
-0.8219377345902785
 10
4.13362137255985
 20
-0.8219377345902785
 10
4.13362137255985
 20
-0.7740475440414482
 10
4.124471368536584
 20
-0.7365583750150916
 10
4.106202377452872
 20
-0.7094495495360257
 10
4.086031012651321
 20
-0.6798386890585056
 10
4.055158795686995
 20
-0.6650125808445561
 10
4.013565048584673
 20
-0.6650125808445561
 10
3.97007926675211
 20
-0.6650125808445561
 10
3.939827389043582
 20
-0.6795285194306062
 10
3.922809415459091
 20
-0.7084983626771064
 10
3.909575511335081
 20
-0.7318231186957038
 10
3.90295855927305
 20
-0.7721658482988055
 10
3.90295855927305
 20
-0.829505873511203
 10
3.90295855927305
 20
-0.829505873511203
 10
3.90295855927305
 20
-1.85988937741806
 10
3.90295855927305
 20
-1.85988937741806
 10
3.90295855927305
 20
-1.951286027774636
 10
3.920596872113366
 20
-2.020288430996339
 10
3.955904514756766
 20
-2.06691726505835
 10
3.991191479424995
 20
-2.113566777095558
 10
4.053266760956754
 20
-2.13687085513896
 10
4.142130359352096
 20
-2.13687085513896
 97
        0
 97
        0
 92
        1
 93
        1
 72
     4
 94
        3
 73
     0
 74
     1
 95
      107
 96
      103
 40
0.0
 40
0.0
 40
0.0
 40
0.0
 40
1.0
 40
1.0
 40
1.0
 40
2.0
 40
2.0
 40
2.0
 40
3.0
 40
3.0
 40
3.0
 40
4.0
 40
4.0
 40
4.0
 40
5.0
 40
5.0
 40
5.0
 40
6.0
 40
6.0
 40
6.0
 40
7.0
 40
7.0
 40
7.0
 40
8.0
 40
8.0
 40
8.0
 40
9.0
 40
9.0
 40
9.0
 40
10.0
 40
10.0
 40
10.0
 40
11.0
 40
11.0
 40
11.0
 40
12.0
 40
12.0
 40
12.0
 40
13.0
 40
13.0
 40
13.0
 40
14.0
 40
14.0
 40
14.0
 40
15.0
 40
15.0
 40
15.0
 40
16.0
 40
16.0
 40
16.0
 40
17.0
 40
17.0
 40
17.0
 40
18.0
 40
18.0
 40
18.0
 40
19.0
 40
19.0
 40
19.0
 40
20.0
 40
20.0
 40
20.0
 40
21.0
 40
21.0
 40
21.0
 40
22.0
 40
22.0
 40
22.0
 40
23.0
 40
23.0
 40
23.0
 40
24.0
 40
24.0
 40
24.0
 40
25.0
 40
25.0
 40
25.0
 40
26.0
 40
26.0
 40
26.0
 40
27.0
 40
27.0
 40
27.0
 40
28.0
 40
28.0
 40
28.0
 40
29.0
 40
29.0
 40
29.0
 40
30.0
 40
30.0
 40
30.0
 40
31.0
 40
31.0
 40
31.0
 40
32.0
 40
32.0
 40
32.0
 40
33.0
 40
33.0
 40
33.0
 40
34.0
 40
34.0
 40
34.0
 40
34.0
 10
4.593034286428014
 20
-2.099050838509508
 10
4.640924476976857
 20
-2.124257290270748
 10
4.707735014828004
 20
-2.13687085513896
 10
4.793445222006286
 20
-2.13687085513896
 10
4.891758655065183
 20
-2.13687085513896
 10
4.961071227914797
 20
-2.128206783532758
 10
5.001413957517898
 20
-2.110878640320354
 10
5.041736009145804
 20
-2.093550497107963
 10
5.061907373947355
 20
-2.069439978031988
 10
5.061907373947355
 20
-2.038547083092466
 10
5.061907373947355
 20
-2.022811143969976
 10
5.055766015314778
 20
-2.011148765960684
 10
5.043472959062076
 20
-2.003580627039747
 10
5.031190241796947
 20
-1.996012488118822
 10
5.016850066000061
 20
-1.992228418658353
 10
5.000462770658967
 20
-1.992228418658353
 10
4.975886997141161
 20
-1.992228418658353
 10
4.951455969449676
 20
-1.993345029318827
 10
4.927200704547355
 20
-1.995536894689369
 10
4.902935100657436
 20
-1.99777011601029
 10
4.878524750941172
 20
-1.998845370720371
 10
4.853938638435744
 20
-1.998845370720371
 10
4.776427248421795
 20
-1.998845370720371
 10
4.724111971181501
 20
-1.979635531765338
 10
4.697023823677606
 20
-1.941195175880075
 10
4.680005850093115
 20
-1.915988724118834
 10
4.671496863300868
 20
-1.880071081207209
 10
4.671496863300868
 20
-1.833421569170001
 10
4.671496863300868
 20
-1.833421569170001
 10
4.671496863300868
 20
-1.789935787337451
 10
4.671496863300868
 20
-1.789935787337451
 10
4.671496863300868
 20
-1.763467979089392
 10
4.686622802155145
 20
-1.750234074965356
 10
4.716874679863673
 20
-1.750234074965356
 10
4.716874679863673
 20
-1.750234074965356
 10
4.912550359122557
 20
-1.753066957566918
 10
4.912550359122557
 20
-1.753066957566918
 10
4.935244436897746
 20
-1.753066957566918
 10
4.952872410750463
 20
-1.747732039966915
 10
4.965485975618675
 20
-1.737000170841333
 10
4.978089201499288
 20
-1.726288979690947
 10
4.984395983933407
 20
-1.713365245194824
 10
4.984395983933407
 20
-1.698249645328158
 10
4.984395983933407
 20
-1.671781837080099
 10
4.974946149269827
 20
-1.652861489777782
 10
4.956036140955095
 20
-1.641529959371572
 10
4.940279523857448
 20
-1.632080124708005
 10
4.916334428583014
 20
-1.62734486838863
 10
4.884190516144271
 20
-1.62734486838863
 10
4.857722707896199
 20
-1.62734486838863
 10
4.831089475846587
 20
-1.627985885619637
 10
4.804311497970629
 20
-1.629226564131272
 10
4.777523181107072
 20
-1.630508598593287
 10
4.750900288045058
 20
-1.631128937849098
 10
4.724432479796986
 20
-1.631128937849098
 10
4.706783827969098
 20
-1.631128937849098
 10
4.693549923845063
 20
-1.62703469876073
 10
4.684730767424904
 20
-1.618846220583982
 10
4.675901272017149
 20
-1.610657742407233
 10
4.671496863300868
 20
-1.592068242708011
 10
4.671496863300868
 20
-1.563057043511119
 10
4.671496863300868
 20
-1.563057043511119
 10
4.671496863300868
 20
-0.8918913246708876
 10
4.671496863300868
 20
-0.8918913246708876
 10
4.671496863300868
 20
-0.8414784211484073
 10
4.693860093472974
 20
-0.8162719693871673
 10
4.738617570779929
 20
-0.8162719693871673
 10
4.762562666054363
 20
-0.8162719693871673
 10
4.786662846142715
 20
-0.8167475628166332
 10
4.810928450032634
 20
-0.8176780717003567
 10
4.835183714934955
 20
-0.8186292585592633
 10
4.85929423401093
 20
-0.8191048519887292
 10
4.883249668272937
 20
-0.8191048519887292
 10
4.916644598210925
 20
-0.8191048519887292
 10
4.941530541356668
 20
-0.8123431541003532
 10
4.957928175685336
 20
-0.7987784023732223
 10
4.974305132038833
 20
-0.7852343286212873
 10
4.982503949203166
 20
-0.770883813836791
 10
4.982503949203166
 20
-0.7557682139701253
 10
4.982503949203166
 20
-0.7148051451112122
 10
4.956346310583007
 20
-0.6911702194647028
 10
4.904041372330312
 20
-0.6848634370305969
 10
4.882608651041942
 20
-0.6823614020321555
 10
4.863067964483788
 20
-0.6810793675701411
 10
4.845439990631095
 20
-0.6810793675701411
 10
4.845439990631095
 20
-0.6810793675701411
 10
4.590201403826464
 20
-0.6810793675701411
 10
4.590201403826464
 20
-0.6810793675701411
 10
4.515833066041978
 20
-0.6810793675701411
 10
4.469824571235777
 20
-0.7116620928817635
 10
4.452186258395487
 20
-0.7727861875546169
 10
4.443987441231128
 20
-0.8017767087763256
 10
4.43989320214276
 20
-0.836763842804228
 10
4.43989320214276
 20
-0.8777062336879453
 10
4.43989320214276
 20
-0.8777062336879453
 10
4.43989320214276
 20
-1.67083065022118
 10
4.43989320214276
 20
-1.67083065022118
 10
4.43989320214276
 20
-1.731975422869242
 10
4.4424055761288
 20
-1.790266634940546
 10
4.447461341063697
 20
-1.845704286435117
 10
4.458803210457492
 20
-1.968593493011844
 10
4.507324079249732
 20
-2.053063021678503
 10
4.593034286428014
 20
-2.099050838509508
 97
        0
 97
        0
 75
     2
 76
     1
 98
        0
  0
SPLINE
  5
4F
330
1F
100
AcDbEntity
  8
Layer 1
370
     0
100
AcDbSpline
210
0.0
220
0.0
230
1.0
 70
    11
 71
     3
 72
   296
 73
   292
 74
     0
 42
0.0000000001
 43
0.0000000001
 12
1.0
 22
0.0
 32
0.0
 13
1.0
 23
0.0
 33
0.0
 40
0.0
 40
0.0
 40
0.0
 40
0.0
 40
1.0
 40
1.0
 40
1.0
 40
2.0
 40
2.0
 40
2.0
 40
3.0
 40
3.0
 40
3.0
 40
4.0
 40
4.0
 40
4.0
 40
5.0
 40
5.0
 40
5.0
 40
6.0
 40
6.0
 40
6.0
 40
7.0
 40
7.0
 40
7.0
 40
8.0
 40
8.0
 40
8.0
 40
9.0
 40
9.0
 40
9.0
 40
10.0
 40
10.0
 40
10.0
 40
11.0
 40
11.0
 40
11.0
 40
12.0
 40
12.0
 40
12.0
 40
13.0
 40
13.0
 40
13.0
 40
14.0
 40
14.0
 40
14.0
 40
15.0
 40
15.0
 40
15.0
 40
16.0
 40
16.0
 40
16.0
 40
17.0
 40
17.0
 40
17.0
 40
18.0
 40
18.0
 40
18.0
 40
19.0
 40
19.0
 40
19.0
 40
20.0
 40
20.0
 40
20.0
 40
21.0
 40
21.0
 40
21.0
 40
22.0
 40
22.0
 40
22.0
 40
23.0
 40
23.0
 40
23.0
 40
24.0
 40
24.0
 40
24.0
 40
25.0
 40
25.0
 40
25.0
 40
26.0
 40
26.0
 40
26.0
 40
27.0
 40
27.0
 40
27.0
 40
28.0
 40
28.0
 40
28.0
 40
29.0
 40
29.0
 40
29.0
 40
30.0
 40
30.0
 40
30.0
 40
31.0
 40
31.0
 40
31.0
 40
32.0
 40
32.0
 40
32.0
 40
33.0
 40
33.0
 40
33.0
 40
34.0
 40
34.0
 40
34.0
 40
35.0
 40
35.0
 40
35.0
 40
36.0
 40
36.0
 40
36.0
 40
37.0
 40
37.0
 40
37.0
 40
38.0
 40
38.0
 40
38.0
 40
39.0
 40
39.0
 40
39.0
 40
40.0
 40
40.0
 40
40.0
 40
41.0
 40
41.0
 40
41.0
 40
42.0
 40
42.0
 40
42.0
 40
43.0
 40
43.0
 40
43.0
 40
44.0
 40
44.0
 40
44.0
 40
45.0
 40
45.0
 40
45.0
 40
46.0
 40
46.0
 40
46.0
 40
47.0
 40
47.0
 40
47.0
 40
48.0
 40
48.0
 40
48.0
 40
49.0
 40
49.0
 40
49.0
 40
50.0
 40
50.0
 40
50.0
 40
51.0
 40
51.0
 40
51.0
 40
52.0
 40
52.0
 40
52.0
 40
53.0
 40
53.0
 40
53.0
 40
54.0
 40
54.0
 40
54.0
 40
55.0
 40
55.0
 40
55.0
 40
56.0
 40
56.0
 40
56.0
 40
57.0
 40
57.0
 40
57.0
 40
58.0
 40
58.0
 40
58.0
 40
59.0
 40
59.0
 40
59.0
 40
60.0
 40
60.0
 40
60.0
 40
61.0
 40
61.0
 40
61.0
 40
62.0
 40
62.0
 40
62.0
 40
63.0
 40
63.0
 40
63.0
 40
64.0
 40
64.0
 40
64.0
 40
65.0
 40
65.0
 40
65.0
 40
66.0
 40
66.0
 40
66.0
 40
67.0
 40
67.0
 40
67.0
 40
68.0
 40
68.0
 40
68.0
 40
69.0
 40
69.0
 40
69.0
 40
70.0
 40
70.0
 40
70.0
 40
71.0
 40
71.0
 40
71.0
 40
72.0
 40
72.0
 40
72.0
 40
73.0
 40
73.0
 40
73.0
 40
74.0
 40
74.0
 40
74.0
 40
75.0
 40
75.0
 40
75.0
 40
76.0
 40
76.0
 40
76.0
 40
77.0
 40
77.0
 40
77.0
 40
78.0
 40
78.0
 40
78.0
 40
79.0
 40
79.0
 40
79.0
 40
80.0
 40
80.0
 40
80.0
 40
81.0
 40
81.0
 40
81.0
 40
82.0
 40
82.0
 40
82.0
 40
83.0
 40
83.0
 40
83.0
 40
84.0
 40
84.0
 40
84.0
 40
85.0
 40
85.0
 40
85.0
 40
86.0
 40
86.0
 40
86.0
 40
87.0
 40
87.0
 40
87.0
 40
88.0
 40
88.0
 40
88.0
 40
89.0
 40
89.0
 40
89.0
 40
90.0
 40
90.0
 40
90.0
 40
91.0
 40
91.0
 40
91.0
 40
92.0
 40
92.0
 40
92.0
 40
93.0
 40
93.0
 40
93.0
 40
94.0
 40
94.0
 40
94.0
 40
95.0
 40
95.0
 40
95.0
 40
96.0
 40
96.0
 40
96.0
 40
97.0
 40
97.0
 40
97.0
 40
97.0
 10
4.946370479925463
 20
-2.97182293836891
 30
0.0
 10
4.940442362912083
 20
-2.964624418254566
 30
0.0
 10
4.922443477879344
 20
-2.942814323918911
 30
0.0
 10
4.906562792930496
 20
-2.923758277404381
 30
0.0
 10
4.86400364286131
 20
-2.873574123982482
 30
0.0
 10
4.86993175987469
 20
-2.870610711662519
 30
0.0
 10
4.925620131818479
 20
-2.914017658714644
 30
0.0
 10
4.951452092329342
 20
-2.933709552966396
 30
0.0
 10
4.981520453008013
 20
-2.957636555012515
 30
0.0
 10
4.992742131670992
 20
-2.967165224456506
 30
0.0
 10
4.992742131670992
 20
-2.967165224456506
 30
0.0
 10
5.013281822905683
 20
-2.984104363260573
 30
0.0
 10
5.013281822905683
 20
-2.984104363260573
 30
0.0
 10
5.013281822905683
 20
-2.984104363260573
 30
0.0
 10
5.086121282899285
 20
-2.978174953873753
 30
0.0
 10
5.086121282899285
 20
-2.978174953873753
 30
0.0
 10
5.126139626766517
 20
-2.974575693816582
 30
0.0
 10
5.178016789407416
 20
-2.968223678311738
 30
0.0
 10
5.20173184220779
 20
-2.963776621271613
 30
0.0
 10
5.25742021415158
 20
-2.952977548726658
 30
0.0
 10
5.324119607886082
 20
-2.93243914986542
 30
0.0
 10
5.324119607886082
 20
-2.926299083606308
 30
0.0
 10
5.324119607886082
 20
-2.923758277404381
 30
0.0
 10
5.302733412041889
 20
-2.900465830722017
 30
0.0
 10
5.276053654548099
 20
-2.874421920965422
 30
0.0
 10
5.245562687751392
 20
-2.84414290341446
 30
0.0
 10
5.228199650455862
 20
-2.824027110671245
 30
0.0
 10
5.227987701210117
 20
-2.819368104385401
 30
0.0
 10
5.227777044337826
 20
-2.812593482762521
 30
0.0
 10
5.229893952048289
 20
-2.813228038126289
 30
0.0
 10
5.249797795545772
 20
-2.826355967627453
 30
0.0
 10
5.276689502285308
 20
-2.844354852660192
 30
0.0
 10
5.331318128000425
 20
-2.885643599628414
 30
0.0
 10
5.348681165295956
 20
-2.900889729213481
 30
0.0
 10
5.355880977783752
 20
-2.907665643209801
 30
0.0
 10
5.363927294881023
 20
-2.912747255613681
 30
0.0
 10
5.366468101082975
 20
-2.912747255613681
 30
0.0
 10
5.382560735277543
 20
-2.912323357122204
 30
0.0
 10
5.570164249970149
 20
-2.818521599775901
 30
0.0
 10
5.633898939011234
 20
-2.778925862026679
 30
0.0
 10
5.662695604215489
 20
-2.761138926239659
 30
0.0
 10
5.686410657015888
 20
-2.739118175031725
 30
0.0
 10
5.693821126375951
 20
-2.723449439328621
 30
0.0
 10
5.701444837355211
 20
-2.707356805134054
 30
0.0
 10
5.699750535762783
 20
-2.684912155434631
 30
0.0
 10
5.690009917073035
 20
-2.6675491181391
 30
0.0
 10
5.679422793773811
 20
-2.648703728496848
 30
0.0
 10
5.613783146268006
 20
-2.596615908983671
 30
0.0
 10
5.542426038621114
 20
-2.550032307992397
 30
0.0
 10
5.495630488384121
 20
-2.519329391949959
 30
0.0
 10
5.491395380589741
 20
-2.517424433485239
 30
0.0
 10
5.484408809721142
 20
-2.521870198151899
 30
0.0
 10
5.446295424318628
 20
-2.547703451036202
 30
0.0
 10
5.373455964325027
 20
-2.593015356553059
 30
0.0
 10
5.370279310385866
 20
-2.593015356553059
 30
0.0
 10
5.362021044042851
 20
-2.593227305798791
 30
0.0
 10
5.365409647227731
 20
-2.584334484092008
 30
0.0
 10
5.375572872035491
 20
-2.577558570095688
 30
0.0
 10
5.397805572489156
 20
-2.563584135985037
 30
0.0
 10
5.460057909183534
 20
-2.506625360940272
 30
0.0
 10
5.460057909183534
 20
-2.499849446943964
 30
0.0
 10
5.459845959937789
 20
-2.494767834540085
 30
0.0
 10
5.392723960085302
 20
-2.467240280063341
 30
0.0
 10
5.347410762194992
 20
-2.45326584595269
 30
0.0
 10
5.324754163249836
 20
-2.44648993195637
 30
0.0
 10
5.28452387013686
 20
-2.436961262512379
 30
0.0
 10
5.258690617252543
 20
-2.432727447091452
 30
0.0
 10
5.258690617252543
 20
-2.432727447091452
 30
0.0
 10
5.211472460897514
 20
-2.424257231502692
 30
0.0
 10
5.211472460897514
 20
-2.424257231502692
 30
0.0
 10
5.211472460897514
 20
-2.424257231502692
 30
0.0
 10
5.17759418328938
 20
-2.451995442851714
 30
0.0
 10
5.17759418328938
 20
-2.451995442851714
 30
0.0
 10
5.159383349010896
 20
-2.467240280063341
 30
0.0
 10
5.130162785315153
 20
-2.489262323644741
 30
0.0
 10
5.113223646511086
 20
-2.501119850044928
 30
0.0
 10
5.0960725584613
 20
-2.51318932569086
 30
0.0
 10
5.070240597950437
 20
-2.530974969104414
 30
0.0
 10
5.056476820712078
 20
-2.541139486285627
 30
0.0
 10
5.03551452335935
 20
-2.555960425005777
 30
0.0
 10
5.030855517073506
 20
-2.557866675843949
 30
0.0
 10
5.030644860201215
 20
-2.552573114194337
 30
0.0
 10
5.030644860201215
 20
-2.548973854137166
 30
0.0
 10
5.038479228052766
 20
-2.53986908318465
 30
0.0
 10
5.048430503614782
 20
-2.531610816841635
 30
0.0
 10
5.069392800967509
 20
-2.514459728791823
 30
0.0
 10
5.152819384260308
 20
-2.428280390051327
 30
0.0
 10
5.152819384260308
 20
-2.422986828401716
 30
0.0
 10
5.152607435014589
 20
-2.415152460550164
 30
0.0
 10
5.036572977214594
 20
-2.409858898900564
 30
0.0
 10
4.814667286422364
 20
-2.408588495799588
 30
0.0
 10
4.814667286422364
 20
-2.408588495799588
 30
0.0
 10
4.751144546627024
 20
-2.408376546553856
 30
0.0
 10
4.751144546627024
 20
-2.408376546553856
 30
0.0
 10
4.751144546627024
 20
-2.408376546553856
 30
0.0
 10
4.734205407822956
 20
-2.422140323792228
 30
0.0
 10
4.734205407822956
 20
-2.422140323792228
 30
0.0
 10
4.724888687624697
 20
-2.429550793152303
 30
0.0
 10
4.708372154938666
 20
-2.442890671899199
 30
0.0
 10
4.697785031639442
 20
-2.451571544360238
 30
0.0
 10
4.67597622967724
 20
-2.468934581655781
 30
0.0
 10
4.561846730341964
 20
-2.549820358746665
 30
0.0
 10
4.558458127157084
 20
-2.550032307992397
 30
0.0
 10
4.557399673301865
 20
-2.550032307992397
 30
0.0
 10
4.556765117938109
 20
-2.547915400281934
 30
0.0
 10
4.556553168692365
 20
-2.54495069558853
 30
0.0
 10
4.556553168692365
 20
-2.54240988938659
 30
0.0
 10
4.56565793964488
 20
-2.532881219942599
 30
0.0
 10
4.576879618307859
 20
-2.523988398235815
 30
0.0
 10
4.596995411051087
 20
-2.50810771328698
 30
0.0
 10
4.687833756077427
 20
-2.414094006694932
 30
0.0
 10
4.685292949875475
 20
-2.411975806611028
 30
0.0
 10
4.684445152892547
 20
-2.41134125124726
 30
0.0
 10
4.619017454632462
 20
-2.409858898900564
 30
0.0
 10
4.540036636006309
 20
-2.409011101917612
 30
0.0
 10
4.373819317157894
 20
-2.406894194207148
 30
0.0
 10
4.325753363819912
 20
-2.41049345426432
 30
0.0
 10
4.260325665559827
 20
-2.428704288542804
 30
0.0
 10
4.215436366161005
 20
-2.441408319552491
 30
0.0
 10
4.152972080220908
 20
-2.468934581655781
 30
0.0
 10
4.126080373481374
 20
-2.487568022052288
 30
0.0
 10
4.107870831576317
 20
-2.500273345435428
 30
0.0
 10
4.055781719689699
 20
-2.55172660958485
 30
0.0
 10
4.030584314542617
 20
-2.580735224034836
 30
0.0
 10
3.816089093110476
 20
-2.571630453082321
 30
0.0
 10
3.581479371308559
 20
-2.563584135985037
 30
0.0
 10
3.335222779978746
 20
-2.556596272742985
 30
0.0
 10
3.3701595114421
 20
-2.496460843759071
 30
0.0
 10
3.387522548737656
 20
-2.444373024245907
 30
0.0
 10
3.38286483482524
 20
-2.409223051163344
 30
0.0
 10
3.371853813034552
 20
-2.330455474156376
 30
0.0
 10
3.332470024531075
 20
-2.280484562353675
 30
0.0
 10
3.259418615291729
 20
-2.252534401758908
 30
0.0
 10
3.229563496232231
 20
-2.241099481476744
 30
0.0
 10
3.180015190547566
 20
-2.2347474659719
 30
0.0
 10
3.149948122242323
 20
-2.238136069156781
 30
0.0
 10
3.112257342957845
 20
-2.243005732314916
 30
0.0
 10
3.081343770043102
 20
-2.249993595556968
 30
0.0
 10
3.052545812465395
 20
-2.261639172711423
 30
0.0
 10
3.012950074716173
 20
-2.276672060677318
 30
0.0
 10
2.943711167153197
 20
-2.322621106304837
 30
0.0
 10
2.896279769178995
 20
-2.364545701010254
 30
0.0
 10
2.876799824172975
 20
-2.381908738305798
 30
0.0
 10
2.858802231513689
 20
-2.396519020153657
 30
0.0
 10
2.856895980675492
 20
-2.396519020153657
 30
0.0
 10
2.854567123719309
 20
-2.396519020153657
 30
0.0
 10
2.841863092709622
 20
-2.383603039898238
 30
0.0
 10
2.828523213962701
 20
-2.368144961067426
 30
0.0
 10
2.814547487478598
 20
-2.352476225364323
 30
0.0
 10
2.787655780739088
 20
-2.326644264853472
 30
0.0
 10
2.767963886487324
 20
-2.310975529150381
 30
0.0
 10
2.698513029678616
 20
-2.253380906368407
 30
0.0
 10
2.648330168630183
 20
-2.233265113625192
 30
0.0
 10
2.568078946903054
 20
-2.231782761278484
 30
0.0
 10
2.525307847588136
 20
-2.230936256668984
 30
0.0
 10
2.514508775043181
 20
-2.232630558261437
 30
0.0
 10
2.485712109838914
 20
-2.242793783069184
 30
0.0
 10
2.425576680855013
 20
-2.265026483522863
 30
0.0
 10
2.377934626008507
 20
-2.310127732167429
 30
0.0
 10
2.352313322369936
 20
-2.370897716515098
 30
0.0
 10
2.338550837505017
 20
-2.402659086412768
 30
0.0
 10
2.337280434404053
 20
-2.411553200493004
 30
0.0
 10
2.339397342114517
 20
-2.449454636649774
 30
0.0
 10
2.341091643706957
 20
-2.478675200345505
 30
0.0
 10
2.346173256110837
 20
-2.50725991630404
 30
0.0
 10
2.355489976309084
 20
-2.536056581508294
 30
0.0
 10
2.229502950573634
 20
-2.534363572289307
 30
0.0
 10
2.103515924838184
 20
-2.532881219942599
 30
0.0
 10
1.978588645331418
 20
-2.531822766087366
 30
0.0
 10
1.612908993016731
 20
-2.528646112148218
 30
0.0
 10
1.380416178925278
 20
-2.528011556784463
 30
0.0
 10
1.136700393797405
 20
-2.530763019858682
 30
0.0
 10
1.141782006201273
 20
-2.403929489513732
 30
0.0
 10
1.144746710894689
 20
-2.288530879450958
 30
0.0
 10
1.140935501591785
 20
-2.288318930205226
 30
0.0
 10
1.139029250753601
 20
-2.288318930205226
 30
0.0
 10
1.137336241534614
 20
-2.286412679367042
 30
0.0
 10
1.137336241534614
 20
-2.284718377774602
 30
0.0
 10
1.137546898406893
 20
-2.282601470064138
 30
0.0
 10
1.133735689103989
 20
-2.276249454559295
 30
0.0
 10
1.129077975191586
 20
-2.271167842155414
 30
0.0
 10
1.115526147198958
 20
-2.255709763324603
 30
0.0
 10
1.086941431240436
 20
-2.254227410977895
 30
0.0
 10
1.050944953548386
 20
-2.267779238970534
 30
0.0
 10
1.035486874717574
 20
-2.273284749865878
 30
0.0
 10
0.9753527381071131
 20
-2.28874153632325
 30
0.0
 10
0.9173355092071157
 20
-2.302081415070145
 30
0.0
 10
0.8591063310613865
 20
-2.31542129381704
 30
0.0
 10
0.7691157830179868
 20
-2.336383591169755
 30
0.0
 10
0.7174505696228329
 20
-2.348876965307151
 30
0.0
 10
0.6657853562276916
 20
-2.361158390198814
 30
0.0
 10
0.5895572930492108
 20
-2.379579881349589
 30
0.0
 10
0.5476326983437931
 20
-2.389743106157337
 30
0.0
 10
0.5061307097563864
 20
-2.399271775601341
 30
0.0
 10
0.4555252425899172
 20
-2.411553200493004
 30
0.0
 10
0.4356213990924465
 20
-2.416846762142616
 30
0.0
 10
0.3977186705622115
 20
-2.426586088458887
 30
0.0
 10
0.2861312698023413
 20
-2.451359595114506
 30
0.0
 10
0.2378533672186273
 20
-2.460465658440474
 30
0.0
 10
0.2162565145021568
 20
-2.464064918497646
 30
0.0
 10
0.2071504511761885
 20
-2.467876127800549
 30
0.0
 10
0.1971991756141733
 20
-2.476557000261601
 30
0.0
 10
0.1751784244062391
 20
-2.496460843759071
 30
0.0
 10
0.175389081278518
 20
-2.529492616757719
 30
0.0
 10
0.1982576294694051
 20
-2.547279552544726
 30
0.0
 10
0.2024927372637851
 20
-2.550666863356165
 30
0.0
 10
0.2211261776602921
 20
-2.559772926682133
 30
0.0
 10
0.2397596180568118
 20
-2.567817951405964
 30
0.0
 10
0.2581811092075744
 20
-2.575864268503248
 30
0.0
 10
0.3155624903703634
 20
-2.601061673650343
 30
0.0
 10
0.3674396530112492
 20
-2.624354120332706
 30
0.0
 10
0.4188929171606585
 20
-2.64722137615014
 30
0.0
 10
0.4923682248914676
 20
-2.678982746047811
 30
0.0
 10
0.5306935595397135
 20
-2.694652774124367
 30
0.0
 10
0.5685949956964956
 20
-2.710533459073202
 30
0.0
 10
0.6145440413240142
 20
-2.72916689946971
 30
0.0
 10
0.6319057862461047
 20
-2.736789318075517
 30
0.0
 10
0.6793371842203189
 20
-2.757115767691023
 30
0.0
 10
0.7597990628197269
 20
-2.78845453147067
 30
0.0
 10
0.8610112895261182
 20
-2.826567916873185
 30
0.0
 10
0.9107715444565403
 20
-2.845201357269691
 30
0.0
 10
0.9725999826594413
 20
-2.868704460824347
 30
0.0
 10
0.9977973878065237
 20
-2.878657028759802
 30
0.0
 10
1.023418691445095
 20
-2.888608304321818
 30
0.0
 10
1.050733004302641
 20
-2.897925024520077
 30
0.0
 10
1.059413876763693
 20
-2.899407376866785
 30
0.0
 10
1.08736403735846
 20
-2.903218586169689
 30
0.0
 10
1.108115677838883
 20
-2.887337901220854
 30
0.0
 10
1.11658460105419
 20
-2.854941975959428
 30
0.0
 10
1.12081970884857
 20
-2.839483897128603
 30
0.0
 10
1.127383673599146
 20
-2.735095016483077
 30
0.0
 10
1.132677235248757
 20
-2.620119012538326
 30
0.0
 10
1.146651669359421
 20
-2.619907063292582
 30
0.0
 10
1.159991548106316
 20
-2.619907063292582
 30
0.0
 10
1.17227297299798
 20
-2.61969511404685
 30
0.0
 10
1.422976621367916
 20
-2.616731701726887
 30
0.0
 10
2.101187067881988
 20
-2.616942358599178
 30
0.0
 10
2.173814578629845
 20
-2.619272507928827
 30
0.0
 10
2.194776875982547
 20
-2.620330961784058
 30
0.0
 10
2.282650516315496
 20
-2.62223592024879
 30
0.0
 10
2.39635611715927
 20
-2.62477672645073
 30
0.0
 10
2.447809381308692
 20
-2.710109560581726
 30
0.0
 10
2.536953424742592
 20
-2.802852864072797
 30
0.0
 10
2.676914884588705
 20
-2.920581623465232
 30
0.0
 10
2.762035769473969
 20
-2.99172678186638
 30
0.0
 10
2.777916454422792
 20
-3.002737803657081
 30
0.0
 10
2.800573053367947
 20
-3.008243314552424
 30
0.0
 10
2.814759436724342
 20
-3.01205452385534
 30
0.0
 10
2.833392877120862
 20
-3.013324926956304
 30
0.0
 10
2.842073749581889
 20
-3.01205452385534
 30
0.0
 10
2.876799824172975
 20
-3.005702508350497
 30
0.0
 10
3.155664290009958
 20
-2.784853979040046
 30
0.0
 10
3.219610928296788
 20
-2.71307426527513
 30
0.0
 10
3.240150619531454
 20
-2.689993767838511
 30
0.0
 10
3.258994716800266
 20
-2.667125219647624
 30
0.0
 10
3.275935147977786
 20
-2.6446805699482
 30
0.0
 10
3.565809343232003
 20
-2.652726887045497
 30
0.0
 10
3.840439993648058
 20
-2.661831657998012
 30
0.0
 10
4.027620902222654
 20
-2.669667318223004
 30
0.0
 10
4.048159301083893
 20
-2.705662503541614
 30
0.0
 10
4.07399126159473
 20
-2.738694276540248
 30
0.0
 10
4.100671019088546
 20
-2.761986723222612
 30
0.0
 10
4.173510479082122
 20
-2.825509463017953
 30
0.0
 10
4.338246737957308
 20
-2.905547443125884
 30
0.0
 10
4.466138722157489
 20
-2.939849619225495
 30
0.0
 10
4.505311853788675
 20
-2.950226085652439
 30
0.0
 10
4.591489900155718
 20
-2.966529376719298
 30
0.0
 10
4.597207360296807
 20
-2.964624418254566
 30
0.0
 10
4.604619122030347
 20
-2.961871662806895
 30
0.0
 10
4.546177994638886
 20
-2.896018773681893
 30
0.0
 10
4.469527325342369
 20
-2.820427850614073
 30
0.0
 10
4.465926772911744
 20
-2.817039247429193
 30
0.0
 10
4.463174017464072
 20
-2.811321787288105
 30
0.0
 10
4.463809865201281
 20
-2.807722527230933
 30
0.0
 10
4.464444420565036
 20
-2.80221701633559
 30
0.0
 10
4.473126585399541
 20
-2.807087971867178
 30
0.0
 10
4.507428761499138
 20
-2.831225630785588
 30
0.0
 10
4.583867481549911
 20
-2.88522099351039
 30
0.0
 10
4.62642792399255
 20
-2.91719302028034
 30
0.0
 10
4.660518150846428
 20
-2.945779028612315
 30
0.0
 10
4.678939641997204
 20
-2.961023865823942
 30
0.0
 10
4.697573082393697
 20
-2.974151795325105
 30
0.0
 10
4.701808190188077
 20
-2.97521154155379
 30
0.0
 10
4.715571967426462
 20
-2.97775234775573
 30
0.0
 10
4.840076640815192
 20
-2.983680464769097
 30
0.0
 10
4.899998828179908
 20
-2.984528261752037
 30
0.0
 10
4.899998828179908
 20
-2.984528261752037
 30
0.0
 10
4.956957603224686
 20
-2.985586715607269
 30
0.0
 10
4.956957603224686
 20
-2.985586715607269
 30
0.0
 10
4.956957603224686
 20
-2.985586715607269
 30
0.0
 10
4.946370479925463
 20
-2.97182293836891
 30
0.0
 10
4.946370479925463
 20
-2.97182293836891
 30
0.0
  0
SPLINE
  5
50
330
1F
100
AcDbEntity
  8
Layer 1
370
     0
100
AcDbSpline
210
0.0
220
0.0
230
1.0
 70
    11
 71
     3
 72
    41
 73
    37
 74
     0
 42
0.0000000001
 43
0.0000000001
 12
1.0
 22
0.0
 32
0.0
 13
1.0
 23
0.0
 33
0.0
 40
0.0
 40
0.0
 40
0.0
 40
0.0
 40
1.0
 40
1.0
 40
1.0
 40
2.0
 40
2.0
 40
2.0
 40
3.0
 40
3.0
 40
3.0
 40
4.0
 40
4.0
 40
4.0
 40
5.0
 40
5.0
 40
5.0
 40
6.0
 40
6.0
 40
6.0
 40
7.0
 40
7.0
 40
7.0
 40
8.0
 40
8.0
 40
8.0
 40
9.0
 40
9.0
 40
9.0
 40
10.0
 40
10.0
 40
10.0
 40
11.0
 40
11.0
 40
11.0
 40
12.0
 40
12.0
 40
12.0
 40
12.0
 10
4.349045810502275
 20
-2.677289736828824
 30
0.0
 10
4.284463324478237
 20
-2.670725772078236
 30
0.0
 10
4.199555681212183
 20
-2.662679454980952
 30
0.0
 10
4.160806448072435
 20
-2.659080194923781
 30
0.0
 10
4.158688247988544
 20
-2.658868245678049
 30
0.0
 10
4.156783289523799
 20
-2.658656296432317
 30
0.0
 10
4.154877038685628
 20
-2.658444347186572
 30
0.0
 10
4.155088987931372
 20
-2.645950973049177
 30
0.0
 10
4.153818584830383
 20
-2.633670840530954
 30
0.0
 10
4.150643223264701
 20
-2.621601364885035
 30
0.0
 10
4.152972080220908
 20
-2.621813314130766
 30
0.0
 10
4.155300937177091
 20
-2.622025263376498
 30
0.0
 10
4.157417844887555
 20
-2.62223592024879
 30
0.0
 10
4.42781338750923
 20
-2.645950973049177
 30
0.0
 10
4.746273591095435
 20
-2.664584413445684
 30
0.0
 10
5.066429388647546
 20
-2.675383485990639
 30
0.0
 10
5.145408914900245
 20
-2.677712342946847
 30
0.0
 10
5.231164355149253
 20
-2.681100946131727
 30
0.0
 10
5.258056061888788
 20
-2.682371349232703
 30
0.0
 10
5.329625118781425
 20
-2.686182558535607
 30
0.0
 10
5.447565827419591
 20
-2.694652774124367
 30
0.0
 10
5.460481807675023
 20
-2.696345783343354
 30
0.0
 10
5.466621873934122
 20
-2.697405529572039
 30
0.0
 10
5.498807142323257
 20
-2.698675932673003
 30
0.0
 10
5.532050864567635
 20
-2.699310488036771
 30
0.0
 10
5.565294586812014
 20
-2.699310488036771
 30
0.0
 10
5.593879302770548
 20
-2.700580891137734
 30
0.0
 10
5.596208159726731
 20
-2.702063243484443
 30
0.0
 10
5.598114410564929
 20
-2.70290974809393
 30
0.0
 10
5.599384813665893
 20
-2.707992652871262
 30
0.0
 10
5.599384813665893
 20
-2.71307426527513
 30
0.0
 10
5.599384813665893
 20
-2.721331239244705
 30
0.0
 10
5.594303201262012
 20
-2.721967086981913
 30
0.0
 10
5.413898206683749
 20
-2.721755137736181
 30
0.0
 10
4.97516843750317
 20
-2.720908633126681
 30
0.0
 10
4.661365947829355
 20
-2.707780703625531
 30
0.0
 10
4.349045810502275
 20
-2.677289736828824
 30
0.0
  0
HATCH
  5
51
330
1F
100
AcDbEntity
  8
Layer 1
 62
   250
420
  1250067
100
AcDbHatch
 10
0.0
 20
0.0
 30
0.0
210
0.0
220
0.0
230
1.0
  2
SOLID
 70
     1
 71
     0
 91
        2
 92
        1
 93
        1
 72
     4
 94
        3
 73
     0
 74
     1
 95
      296
 96
      292
 40
0.0
 40
0.0
 40
0.0
 40
0.0
 40
1.0
 40
1.0
 40
1.0
 40
2.0
 40
2.0
 40
2.0
 40
3.0
 40
3.0
 40
3.0
 40
4.0
 40
4.0
 40
4.0
 40
5.0
 40
5.0
 40
5.0
 40
6.0
 40
6.0
 40
6.0
 40
7.0
 40
7.0
 40
7.0
 40
8.0
 40
8.0
 40
8.0
 40
9.0
 40
9.0
 40
9.0
 40
10.0
 40
10.0
 40
10.0
 40
11.0
 40
11.0
 40
11.0
 40
12.0
 40
12.0
 40
12.0
 40
13.0
 40
13.0
 40
13.0
 40
14.0
 40
14.0
 40
14.0
 40
15.0
 40
15.0
 40
15.0
 40
16.0
 40
16.0
 40
16.0
 40
17.0
 40
17.0
 40
17.0
 40
18.0
 40
18.0
 40
18.0
 40
19.0
 40
19.0
 40
19.0
 40
20.0
 40
20.0
 40
20.0
 40
21.0
 40
21.0
 40
21.0
 40
22.0
 40
22.0
 40
22.0
 40
23.0
 40
23.0
 40
23.0
 40
24.0
 40
24.0
 40
24.0
 40
25.0
 40
25.0
 40
25.0
 40
26.0
 40
26.0
 40
26.0
 40
27.0
 40
27.0
 40
27.0
 40
28.0
 40
28.0
 40
28.0
 40
29.0
 40
29.0
 40
29.0
 40
30.0
 40
30.0
 40
30.0
 40
31.0
 40
31.0
 40
31.0
 40
32.0
 40
32.0
 40
32.0
 40
33.0
 40
33.0
 40
33.0
 40
34.0
 40
34.0
 40
34.0
 40
35.0
 40
35.0
 40
35.0
 40
36.0
 40
36.0
 40
36.0
 40
37.0
 40
37.0
 40
37.0
 40
38.0
 40
38.0
 40
38.0
 40
39.0
 40
39.0
 40
39.0
 40
40.0
 40
40.0
 40
40.0
 40
41.0
 40
41.0
 40
41.0
 40
42.0
 40
42.0
 40
42.0
 40
43.0
 40
43.0
 40
43.0
 40
44.0
 40
44.0
 40
44.0
 40
45.0
 40
45.0
 40
45.0
 40
46.0
 40
46.0
 40
46.0
 40
47.0
 40
47.0
 40
47.0
 40
48.0
 40
48.0
 40
48.0
 40
49.0
 40
49.0
 40
49.0
 40
50.0
 40
50.0
 40
50.0
 40
51.0
 40
51.0
 40
51.0
 40
52.0
 40
52.0
 40
52.0
 40
53.0
 40
53.0
 40
53.0
 40
54.0
 40
54.0
 40
54.0
 40
55.0
 40
55.0
 40
55.0
 40
56.0
 40
56.0
 40
56.0
 40
57.0
 40
57.0
 40
57.0
 40
58.0
 40
58.0
 40
58.0
 40
59.0
 40
59.0
 40
59.0
 40
60.0
 40
60.0
 40
60.0
 40
61.0
 40
61.0
 40
61.0
 40
62.0
 40
62.0
 40
62.0
 40
63.0
 40
63.0
 40
63.0
 40
64.0
 40
64.0
 40
64.0
 40
65.0
 40
65.0
 40
65.0
 40
66.0
 40
66.0
 40
66.0
 40
67.0
 40
67.0
 40
67.0
 40
68.0
 40
68.0
 40
68.0
 40
69.0
 40
69.0
 40
69.0
 40
70.0
 40
70.0
 40
70.0
 40
71.0
 40
71.0
 40
71.0
 40
72.0
 40
72.0
 40
72.0
 40
73.0
 40
73.0
 40
73.0
 40
74.0
 40
74.0
 40
74.0
 40
75.0
 40
75.0
 40
75.0
 40
76.0
 40
76.0
 40
76.0
 40
77.0
 40
77.0
 40
77.0
 40
78.0
 40
78.0
 40
78.0
 40
79.0
 40
79.0
 40
79.0
 40
80.0
 40
80.0
 40
80.0
 40
81.0
 40
81.0
 40
81.0
 40
82.0
 40
82.0
 40
82.0
 40
83.0
 40
83.0
 40
83.0
 40
84.0
 40
84.0
 40
84.0
 40
85.0
 40
85.0
 40
85.0
 40
86.0
 40
86.0
 40
86.0
 40
87.0
 40
87.0
 40
87.0
 40
88.0
 40
88.0
 40
88.0
 40
89.0
 40
89.0
 40
89.0
 40
90.0
 40
90.0
 40
90.0
 40
91.0
 40
91.0
 40
91.0
 40
92.0
 40
92.0
 40
92.0
 40
93.0
 40
93.0
 40
93.0
 40
94.0
 40
94.0
 40
94.0
 40
95.0
 40
95.0
 40
95.0
 40
96.0
 40
96.0
 40
96.0
 40
97.0
 40
97.0
 40
97.0
 40
97.0
 10
4.946370479925463
 20
-2.97182293836891
 10
4.940442362912083
 20
-2.964624418254566
 10
4.922443477879344
 20
-2.942814323918911
 10
4.906562792930496
 20
-2.923758277404381
 10
4.86400364286131
 20
-2.873574123982482
 10
4.86993175987469
 20
-2.870610711662519
 10
4.925620131818479
 20
-2.914017658714644
 10
4.951452092329342
 20
-2.933709552966396
 10
4.981520453008013
 20
-2.957636555012515
 10
4.992742131670992
 20
-2.967165224456506
 10
4.992742131670992
 20
-2.967165224456506
 10
5.013281822905683
 20
-2.984104363260573
 10
5.013281822905683
 20
-2.984104363260573
 10
5.013281822905683
 20
-2.984104363260573
 10
5.086121282899285
 20
-2.978174953873753
 10
5.086121282899285
 20
-2.978174953873753
 10
5.126139626766517
 20
-2.974575693816582
 10
5.178016789407416
 20
-2.968223678311738
 10
5.20173184220779
 20
-2.963776621271613
 10
5.25742021415158
 20
-2.952977548726658
 10
5.324119607886082
 20
-2.93243914986542
 10
5.324119607886082
 20
-2.926299083606308
 10
5.324119607886082
 20
-2.923758277404381
 10
5.302733412041889
 20
-2.900465830722017
 10
5.276053654548099
 20
-2.874421920965422
 10
5.245562687751392
 20
-2.84414290341446
 10
5.228199650455862
 20
-2.824027110671245
 10
5.227987701210117
 20
-2.819368104385401
 10
5.227777044337826
 20
-2.812593482762521
 10
5.229893952048289
 20
-2.813228038126289
 10
5.249797795545772
 20
-2.826355967627453
 10
5.276689502285308
 20
-2.844354852660192
 10
5.331318128000425
 20
-2.885643599628414
 10
5.348681165295956
 20
-2.900889729213481
 10
5.355880977783752
 20
-2.907665643209801
 10
5.363927294881023
 20
-2.912747255613681
 10
5.366468101082975
 20
-2.912747255613681
 10
5.382560735277543
 20
-2.912323357122204
 10
5.570164249970149
 20
-2.818521599775901
 10
5.633898939011234
 20
-2.778925862026679
 10
5.662695604215489
 20
-2.761138926239659
 10
5.686410657015888
 20
-2.739118175031725
 10
5.693821126375951
 20
-2.723449439328621
 10
5.701444837355211
 20
-2.707356805134054
 10
5.699750535762783
 20
-2.684912155434631
 10
5.690009917073035
 20
-2.6675491181391
 10
5.679422793773811
 20
-2.648703728496848
 10
5.613783146268006
 20
-2.596615908983671
 10
5.542426038621114
 20
-2.550032307992397
 10
5.495630488384121
 20
-2.519329391949959
 10
5.491395380589741
 20
-2.517424433485239
 10
5.484408809721142
 20
-2.521870198151899
 10
5.446295424318628
 20
-2.547703451036202
 10
5.373455964325027
 20
-2.593015356553059
 10
5.370279310385866
 20
-2.593015356553059
 10
5.362021044042851
 20
-2.593227305798791
 10
5.365409647227731
 20
-2.584334484092008
 10
5.375572872035491
 20
-2.577558570095688
 10
5.397805572489156
 20
-2.563584135985037
 10
5.460057909183534
 20
-2.506625360940272
 10
5.460057909183534
 20
-2.499849446943964
 10
5.459845959937789
 20
-2.494767834540085
 10
5.392723960085302
 20
-2.467240280063341
 10
5.347410762194992
 20
-2.45326584595269
 10
5.324754163249836
 20
-2.44648993195637
 10
5.28452387013686
 20
-2.436961262512379
 10
5.258690617252543
 20
-2.432727447091452
 10
5.258690617252543
 20
-2.432727447091452
 10
5.211472460897514
 20
-2.424257231502692
 10
5.211472460897514
 20
-2.424257231502692
 10
5.211472460897514
 20
-2.424257231502692
 10
5.17759418328938
 20
-2.451995442851714
 10
5.17759418328938
 20
-2.451995442851714
 10
5.159383349010896
 20
-2.467240280063341
 10
5.130162785315153
 20
-2.489262323644741
 10
5.113223646511086
 20
-2.501119850044928
 10
5.0960725584613
 20
-2.51318932569086
 10
5.070240597950437
 20
-2.530974969104414
 10
5.056476820712078
 20
-2.541139486285627
 10
5.03551452335935
 20
-2.555960425005777
 10
5.030855517073506
 20
-2.557866675843949
 10
5.030644860201215
 20
-2.552573114194337
 10
5.030644860201215
 20
-2.548973854137166
 10
5.038479228052766
 20
-2.53986908318465
 10
5.048430503614782
 20
-2.531610816841635
 10
5.069392800967509
 20
-2.514459728791823
 10
5.152819384260308
 20
-2.428280390051327
 10
5.152819384260308
 20
-2.422986828401716
 10
5.152607435014589
 20
-2.415152460550164
 10
5.036572977214594
 20
-2.409858898900564
 10
4.814667286422364
 20
-2.408588495799588
 10
4.814667286422364
 20
-2.408588495799588
 10
4.751144546627024
 20
-2.408376546553856
 10
4.751144546627024
 20
-2.408376546553856
 10
4.751144546627024
 20
-2.408376546553856
 10
4.734205407822956
 20
-2.422140323792228
 10
4.734205407822956
 20
-2.422140323792228
 10
4.724888687624697
 20
-2.429550793152303
 10
4.708372154938666
 20
-2.442890671899199
 10
4.697785031639442
 20
-2.451571544360238
 10
4.67597622967724
 20
-2.468934581655781
 10
4.561846730341964
 20
-2.549820358746665
 10
4.558458127157084
 20
-2.550032307992397
 10
4.557399673301865
 20
-2.550032307992397
 10
4.556765117938109
 20
-2.547915400281934
 10
4.556553168692365
 20
-2.54495069558853
 10
4.556553168692365
 20
-2.54240988938659
 10
4.56565793964488
 20
-2.532881219942599
 10
4.576879618307859
 20
-2.523988398235815
 10
4.596995411051087
 20
-2.50810771328698
 10
4.687833756077427
 20
-2.414094006694932
 10
4.685292949875475
 20
-2.411975806611028
 10
4.684445152892547
 20
-2.41134125124726
 10
4.619017454632462
 20
-2.409858898900564
 10
4.540036636006309
 20
-2.409011101917612
 10
4.373819317157894
 20
-2.406894194207148
 10
4.325753363819912
 20
-2.41049345426432
 10
4.260325665559827
 20
-2.428704288542804
 10
4.215436366161005
 20
-2.441408319552491
 10
4.152972080220908
 20
-2.468934581655781
 10
4.126080373481374
 20
-2.487568022052288
 10
4.107870831576317
 20
-2.500273345435428
 10
4.055781719689699
 20
-2.55172660958485
 10
4.030584314542617
 20
-2.580735224034836
 10
3.816089093110476
 20
-2.571630453082321
 10
3.581479371308559
 20
-2.563584135985037
 10
3.335222779978746
 20
-2.556596272742985
 10
3.3701595114421
 20
-2.496460843759071
 10
3.387522548737656
 20
-2.444373024245907
 10
3.38286483482524
 20
-2.409223051163344
 10
3.371853813034552
 20
-2.330455474156376
 10
3.332470024531075
 20
-2.280484562353675
 10
3.259418615291729
 20
-2.252534401758908
 10
3.229563496232231
 20
-2.241099481476744
 10
3.180015190547566
 20
-2.2347474659719
 10
3.149948122242323
 20
-2.238136069156781
 10
3.112257342957845
 20
-2.243005732314916
 10
3.081343770043102
 20
-2.249993595556968
 10
3.052545812465395
 20
-2.261639172711423
 10
3.012950074716173
 20
-2.276672060677318
 10
2.943711167153197
 20
-2.322621106304837
 10
2.896279769178995
 20
-2.364545701010254
 10
2.876799824172975
 20
-2.381908738305798
 10
2.858802231513689
 20
-2.396519020153657
 10
2.856895980675492
 20
-2.396519020153657
 10
2.854567123719309
 20
-2.396519020153657
 10
2.841863092709622
 20
-2.383603039898238
 10
2.828523213962701
 20
-2.368144961067426
 10
2.814547487478598
 20
-2.352476225364323
 10
2.787655780739088
 20
-2.326644264853472
 10
2.767963886487324
 20
-2.310975529150381
 10
2.698513029678616
 20
-2.253380906368407
 10
2.648330168630183
 20
-2.233265113625192
 10
2.568078946903054
 20
-2.231782761278484
 10
2.525307847588136
 20
-2.230936256668984
 10
2.514508775043181
 20
-2.232630558261437
 10
2.485712109838914
 20
-2.242793783069184
 10
2.425576680855013
 20
-2.265026483522863
 10
2.377934626008507
 20
-2.310127732167429
 10
2.352313322369936
 20
-2.370897716515098
 10
2.338550837505017
 20
-2.402659086412768
 10
2.337280434404053
 20
-2.411553200493004
 10
2.339397342114517
 20
-2.449454636649774
 10
2.341091643706957
 20
-2.478675200345505
 10
2.346173256110837
 20
-2.50725991630404
 10
2.355489976309084
 20
-2.536056581508294
 10
2.229502950573634
 20
-2.534363572289307
 10
2.103515924838184
 20
-2.532881219942599
 10
1.978588645331418
 20
-2.531822766087366
 10
1.612908993016731
 20
-2.528646112148218
 10
1.380416178925278
 20
-2.528011556784463
 10
1.136700393797405
 20
-2.530763019858682
 10
1.141782006201273
 20
-2.403929489513732
 10
1.144746710894689
 20
-2.288530879450958
 10
1.140935501591785
 20
-2.288318930205226
 10
1.139029250753601
 20
-2.288318930205226
 10
1.137336241534614
 20
-2.286412679367042
 10
1.137336241534614
 20
-2.284718377774602
 10
1.137546898406893
 20
-2.282601470064138
 10
1.133735689103989
 20
-2.276249454559295
 10
1.129077975191586
 20
-2.271167842155414
 10
1.115526147198958
 20
-2.255709763324603
 10
1.086941431240436
 20
-2.254227410977895
 10
1.050944953548386
 20
-2.267779238970534
 10
1.035486874717574
 20
-2.273284749865878
 10
0.9753527381071131
 20
-2.28874153632325
 10
0.9173355092071157
 20
-2.302081415070145
 10
0.8591063310613865
 20
-2.31542129381704
 10
0.7691157830179868
 20
-2.336383591169755
 10
0.7174505696228329
 20
-2.348876965307151
 10
0.6657853562276916
 20
-2.361158390198814
 10
0.5895572930492108
 20
-2.379579881349589
 10
0.5476326983437931
 20
-2.389743106157337
 10
0.5061307097563864
 20
-2.399271775601341
 10
0.4555252425899172
 20
-2.411553200493004
 10
0.4356213990924465
 20
-2.416846762142616
 10
0.3977186705622115
 20
-2.426586088458887
 10
0.2861312698023413
 20
-2.451359595114506
 10
0.2378533672186273
 20
-2.460465658440474
 10
0.2162565145021568
 20
-2.464064918497646
 10
0.2071504511761885
 20
-2.467876127800549
 10
0.1971991756141733
 20
-2.476557000261601
 10
0.1751784244062391
 20
-2.496460843759071
 10
0.175389081278518
 20
-2.529492616757719
 10
0.1982576294694051
 20
-2.547279552544726
 10
0.2024927372637851
 20
-2.550666863356165
 10
0.2211261776602921
 20
-2.559772926682133
 10
0.2397596180568118
 20
-2.567817951405964
 10
0.2581811092075744
 20
-2.575864268503248
 10
0.3155624903703634
 20
-2.601061673650343
 10
0.3674396530112492
 20
-2.624354120332706
 10
0.4188929171606585
 20
-2.64722137615014
 10
0.4923682248914676
 20
-2.678982746047811
 10
0.5306935595397135
 20
-2.694652774124367
 10
0.5685949956964956
 20
-2.710533459073202
 10
0.6145440413240142
 20
-2.72916689946971
 10
0.6319057862461047
 20
-2.736789318075517
 10
0.6793371842203189
 20
-2.757115767691023
 10
0.7597990628197269
 20
-2.78845453147067
 10
0.8610112895261182
 20
-2.826567916873185
 10
0.9107715444565403
 20
-2.845201357269691
 10
0.9725999826594413
 20
-2.868704460824347
 10
0.9977973878065237
 20
-2.878657028759802
 10
1.023418691445095
 20
-2.888608304321818
 10
1.050733004302641
 20
-2.897925024520077
 10
1.059413876763693
 20
-2.899407376866785
 10
1.08736403735846
 20
-2.903218586169689
 10
1.108115677838883
 20
-2.887337901220854
 10
1.11658460105419
 20
-2.854941975959428
 10
1.12081970884857
 20
-2.839483897128603
 10
1.127383673599146
 20
-2.735095016483077
 10
1.132677235248757
 20
-2.620119012538326
 10
1.146651669359421
 20
-2.619907063292582
 10
1.159991548106316
 20
-2.619907063292582
 10
1.17227297299798
 20
-2.61969511404685
 10
1.422976621367916
 20
-2.616731701726887
 10
2.101187067881988
 20
-2.616942358599178
 10
2.173814578629845
 20
-2.619272507928827
 10
2.194776875982547
 20
-2.620330961784058
 10
2.282650516315496
 20
-2.62223592024879
 10
2.39635611715927
 20
-2.62477672645073
 10
2.447809381308692
 20
-2.710109560581726
 10
2.536953424742592
 20
-2.802852864072797
 10
2.676914884588705
 20
-2.920581623465232
 10
2.762035769473969
 20
-2.99172678186638
 10
2.777916454422792
 20
-3.002737803657081
 10
2.800573053367947
 20
-3.008243314552424
 10
2.814759436724342
 20
-3.01205452385534
 10
2.833392877120862
 20
-3.013324926956304
 10
2.842073749581889
 20
-3.01205452385534
 10
2.876799824172975
 20
-3.005702508350497
 10
3.155664290009958
 20
-2.784853979040046
 10
3.219610928296788
 20
-2.71307426527513
 10
3.240150619531454
 20
-2.689993767838511
 10
3.258994716800266
 20
-2.667125219647624
 10
3.275935147977786
 20
-2.6446805699482
 10
3.565809343232003
 20
-2.652726887045497
 10
3.840439993648058
 20
-2.661831657998012
 10
4.027620902222654
 20
-2.669667318223004
 10
4.048159301083893
 20
-2.705662503541614
 10
4.07399126159473
 20
-2.738694276540248
 10
4.100671019088546
 20
-2.761986723222612
 10
4.173510479082122
 20
-2.825509463017953
 10
4.338246737957308
 20
-2.905547443125884
 10
4.466138722157489
 20
-2.939849619225495
 10
4.505311853788675
 20
-2.950226085652439
 10
4.591489900155718
 20
-2.966529376719298
 10
4.597207360296807
 20
-2.964624418254566
 10
4.604619122030347
 20
-2.961871662806895
 10
4.546177994638886
 20
-2.896018773681893
 10
4.469527325342369
 20
-2.820427850614073
 10
4.465926772911744
 20
-2.817039247429193
 10
4.463174017464072
 20
-2.811321787288105
 10
4.463809865201281
 20
-2.807722527230933
 10
4.464444420565036
 20
-2.80221701633559
 10
4.473126585399541
 20
-2.807087971867178
 10
4.507428761499138
 20
-2.831225630785588
 10
4.583867481549911
 20
-2.88522099351039
 10
4.62642792399255
 20
-2.91719302028034
 10
4.660518150846428
 20
-2.945779028612315
 10
4.678939641997204
 20
-2.961023865823942
 10
4.697573082393697
 20
-2.974151795325105
 10
4.701808190188077
 20
-2.97521154155379
 10
4.715571967426462
 20
-2.97775234775573
 10
4.840076640815192
 20
-2.983680464769097
 10
4.899998828179908
 20
-2.984528261752037
 10
4.899998828179908
 20
-2.984528261752037
 10
4.956957603224686
 20
-2.985586715607269
 10
4.956957603224686
 20
-2.985586715607269
 10
4.956957603224686
 20
-2.985586715607269
 10
4.946370479925463
 20
-2.97182293836891
 10
4.946370479925463
 20
-2.97182293836891
 97
        0
 97
        0
 92
        1
 93
        1
 72
     4
 94
        3
 73
     0
 74
     1
 95
       41
 96
       37
 40
0.0
 40
0.0
 40
0.0
 40
0.0
 40
1.0
 40
1.0
 40
1.0
 40
2.0
 40
2.0
 40
2.0
 40
3.0
 40
3.0
 40
3.0
 40
4.0
 40
4.0
 40
4.0
 40
5.0
 40
5.0
 40
5.0
 40
6.0
 40
6.0
 40
6.0
 40
7.0
 40
7.0
 40
7.0
 40
8.0
 40
8.0
 40
8.0
 40
9.0
 40
9.0
 40
9.0
 40
10.0
 40
10.0
 40
10.0
 40
11.0
 40
11.0
 40
11.0
 40
12.0
 40
12.0
 40
12.0
 40
12.0
 10
4.349045810502275
 20
-2.677289736828824
 10
4.284463324478237
 20
-2.670725772078236
 10
4.199555681212183
 20
-2.662679454980952
 10
4.160806448072435
 20
-2.659080194923781
 10
4.158688247988544
 20
-2.658868245678049
 10
4.156783289523799
 20
-2.658656296432317
 10
4.154877038685628
 20
-2.658444347186572
 10
4.155088987931372
 20
-2.645950973049177
 10
4.153818584830383
 20
-2.633670840530954
 10
4.150643223264701
 20
-2.621601364885035
 10
4.152972080220908
 20
-2.621813314130766
 10
4.155300937177091
 20
-2.622025263376498
 10
4.157417844887555
 20
-2.62223592024879
 10
4.42781338750923
 20
-2.645950973049177
 10
4.746273591095435
 20
-2.664584413445684
 10
5.066429388647546
 20
-2.675383485990639
 10
5.145408914900245
 20
-2.677712342946847
 10
5.231164355149253
 20
-2.681100946131727
 10
5.258056061888788
 20
-2.682371349232703
 10
5.329625118781425
 20
-2.686182558535607
 10
5.447565827419591
 20
-2.694652774124367
 10
5.460481807675023
 20
-2.696345783343354
 10
5.466621873934122
 20
-2.697405529572039
 10
5.498807142323257
 20
-2.698675932673003
 10
5.532050864567635
 20
-2.699310488036771
 10
5.565294586812014
 20
-2.699310488036771
 10
5.593879302770548
 20
-2.700580891137734
 10
5.596208159726731
 20
-2.702063243484443
 10
5.598114410564929
 20
-2.70290974809393
 10
5.599384813665893
 20
-2.707992652871262
 10
5.599384813665893
 20
-2.71307426527513
 10
5.599384813665893
 20
-2.721331239244705
 10
5.594303201262012
 20
-2.721967086981913
 10
5.413898206683749
 20
-2.721755137736181
 10
4.97516843750317
 20
-2.720908633126681
 10
4.661365947829355
 20
-2.707780703625531
 10
4.349045810502275
 20
-2.677289736828824
 97
        0
 97
        0
 75
     2
 76
     1
 98
        0
  0
ENDSEC
  0
SECTION
  2
OBJECTS
  0
DICTIONARY
  5
C
330
0
100
AcDbDictionary
281
     1
  3
ACAD_GROUP
350
D
  3
ACAD_LAYOUT
350
1A
  3
ACAD_MATERIAL
350
3B
  3
ACAD_MLEADERSTYLE
350
53
  3
ACAD_MLINESTYLE
350
17
  3
ACAD_PLOTSETTINGS
350
19
  3
ACAD_PLOTSTYLENAME
350
E
  3
ACAD_TABLESTYLE
350
52
  3
ACAD_VISUALSTYLE
350
2A
  0
SUN
  5
3F
330
29
100
AcDbSun
 90
        1
290
     0
 63
     7
421
 16777215
 40
1.0
291
     1
 91
  2455826
 92
 54000000
292
     0
 70
     2
 71
   256
280
     1
  0
DICTIONARY
  5
D
102
{ACAD_REACTORS
330
C
102
}
330
C
100
AcDbDictionary
281
     1
  0
DICTIONARY
  5
1A
102
{ACAD_REACTORS
330
C
102
}
330
C
100
AcDbDictionary
281
     1
  3
Layout1
350
1E
  3
Layout2
350
26
  3
Model
350
22
  0
DICTIONARY
  5
3B
102
{ACAD_REACTORS
330
C
102
}
330
C
100
AcDbDictionary
281
     1
  3
ByBlock
350
3D
  3
ByLayer
350
3C
  3
Global
350
3E
  0
DICTIONARY
  5
53
102
{ACAD_REACTORS
330
C
102
}
330
C
100
AcDbDictionary
281
     1
  0
DICTIONARY
  5
17
102
{ACAD_REACTORS
330
C
102
}
330
C
100
AcDbDictionary
281
     1
  3
Standard
350
18
  0
DICTIONARY
  5
19
102
{ACAD_REACTORS
330
C
102
}
330
C
100
AcDbDictionary
281
     1
  0
ACDBDICTIONARYWDFLT
  5
E
102
{ACAD_REACTORS
330
C
102
}
330
C
100
AcDbDictionary
281
     1
  3
Normal
350
F
100
AcDbDictionaryWithDefault
340
F
  0
DICTIONARY
  5
52
102
{ACAD_REACTORS
330
C
102
}
330
C
100
AcDbDictionary
281
     1
  0
DICTIONARY
  5
2A
102
{ACAD_REACTORS
330
C
102
}
330
C
100
AcDbDictionary
281
     1
  3
2dWireframe
350
2F
  3
3D Hidden
350
31
  3
3dWireframe
350
30
  3
Basic
350
32
  3
Brighten
350
36
  3
ColorChange
350
3A
  3
Conceptual
350
34
  3
Dim
350
35
  3
Facepattern
350
39
  3
Flat
350
2B
  3
FlatWithEdges
350
2C
  3
Gouraud
350
2D
  3
GouraudWithEdges
350
2E
  3
Linepattern
350
38
  3
Realistic
350
33
  3
Thicken
350
37
  0
LAYOUT
  5
1E
102
{ACAD_REACTORS
330
1A
102
}
330
1A
100
AcDbPlotSettings
  1

  2
none_device
  4

  6

 40
0.0
 41
0.0
 42
0.0
 43
0.0
 44
0.0
 45
0.0
 46
0.0
 47
0.0
 48
0.0
 49
0.0
140
0.0
141
0.0
142
1.0
143
1.0
 70
   688
 72
     0
 73
     0
 74
     5
  7

 75
    16
 76
     0
 77
     2
 78
   300
147
1.0
148
0.0
149
0.0
100
AcDbLayout
  1
Layout1
 70
     1
 71
     1
 10
0.0
 20
0.0
 11
12.0
 21
9.0
 12
0.0
 22
0.0
 32
0.0
 14
1.000000000000000E+20
 24
1.000000000000000E+20
 34
1.000000000000000E+20
 15
-1.000000000000000E+20
 25
-1.000000000000000E+20
 35
-1.000000000000000E+20
146
0.0
 13
0.0
 23
0.0
 33
0.0
 16
1.0
 26
0.0
 36
0.0
 17
0.0
 27
1.0
 37
0.0
 76
     0
330
1B
  0
LAYOUT
  5
26
102
{ACAD_REACTORS
330
1A
102
}
330
1A
100
AcDbPlotSettings
  1

  2
none_device
  4

  6

 40
0.0
 41
0.0
 42
0.0
 43
0.0
 44
0.0
 45
0.0
 46
0.0
 47
0.0
 48
0.0
 49
0.0
140
0.0
141
0.0
142
1.0
143
1.0
 70
   688
 72
     0
 73
     0
 74
     5
  7

 75
    16
 76
     0
 77
     2
 78
   300
147
1.0
148
0.0
149
0.0
100
AcDbLayout
  1
Layout2
 70
     1
 71
     2
 10
0.0
 20
0.0
 11
0.0
 21
0.0
 12
0.0
 22
0.0
 32
0.0
 14
0.0
 24
0.0
 34
0.0
 15
0.0
 25
0.0
 35
0.0
146
0.0
 13
0.0
 23
0.0
 33
0.0
 16
1.0
 26
0.0
 36
0.0
 17
0.0
 27
1.0
 37
0.0
 76
     0
330
23
  0
LAYOUT
  5
22
102
{ACAD_REACTORS
330
1A
102
}
330
1A
100
AcDbPlotSettings
  1

  2
none_device
  4

  6

 40
0.0
 41
0.0
 42
0.0
 43
0.0
 44
0.0
 45
0.0
 46
0.0
 47
0.0
 48
0.0
 49
0.0
140
0.0
141
0.0
142
1.0
143
1.0
 70
  1712
 72
     0
 73
     0
 74
     0
  7

 75
     0
 76
     0
 77
     2
 78
   300
147
1.0
148
0.0
149
0.0
100
AcDbLayout
  1
Model
 70
     1
 71
     0
 10
0.0
 20
0.0
 11
12.0
 21
9.0
 12
0.0
 22
0.0
 32
0.0
 14
1.000000000000000E+20
 24
1.000000000000000E+20
 34
1.000000000000000E+20
 15
-1.000000000000000E+20
 25
-1.000000000000000E+20
 35
-1.000000000000000E+20
146
0.0
 13
0.0
 23
0.0
 33
0.0
 16
1.0
 26
0.0
 36
0.0
 17
0.0
 27
1.0
 37
0.0
 76
     0
330
1F
331
29
  0
MATERIAL
  5
3D
102
{ACAD_REACTORS
330
3B
102
}
330
3B
100
AcDbMaterial
  1
ByBlock
 72
     1
 94
      127
  0
MATERIAL
  5
3C
102
{ACAD_REACTORS
330
3B
102
}
330
3B
100
AcDbMaterial
  1
ByLayer
 72
     1
 94
      127
  0
MATERIAL
  5
3E
102
{ACAD_REACTORS
330
3B
102
}
330
3B
100
AcDbMaterial
  1
Global
 72
     1
 94
      127
  0
MLINESTYLE
  5
18
102
{ACAD_REACTORS
330
17
102
}
330
17
100
AcDbMlineStyle
  2
Standard
 70
     0
  3

 62
   256
 51
90.0
 52
90.0
 71
     2
 49
0.5
 62
   256
  6
BYLAYER
 49
-0.5
 62
   256
  6
BYLAYER
  0
ACDBPLACEHOLDER
  5
F
102
{ACAD_REACTORS
330
E
102
}
330
E
  0
VISUALSTYLE
  5
2F
102
{ACAD_REACTORS
330
2A
102
}
330
2A
100
AcDbVisualStyle
  2
2dWireframe
 70
     4
177
     2
291
     0
 71
     0
176
     1
 72
     2
176
     1
 73
     0
176
     1
 90
        0
176
     1
 40
-0.6
176
     1
 41
-30.0
176
     1
 62
     5
 63
     7
421
 16777215
176
     1
 74
     1
176
     1
 91
        4
176
     1
 64
     7
176
     1
 65
   257
176
     1
 75
     1
176
     1
175
     1
176
     1
 42
1.0
176
     1
 92
        0
176
     1
 66
   257
176
     1
 43
1.0
176
     1
 76
     1
176
     1
 77
     6
176
     1
 78
     2
176
     1
 67
     7
176
     1
 79
     5
176
     1
170
     0
176
     1
171
     0
176
     1
290
     0
176
     1
 93
        1
176
     1
 44
0.0
176
     1
173
     0
176
     1
  0
VISUALSTYLE
  5
31
102
{ACAD_REACTORS
330
2A
102
}
330
2A
100
AcDbVisualStyle
  2
3D Hidden
 70
     6
177
     2
291
     0
 71
     1
176
     1
 72
     2
176
     1
 73
     2
176
     1
 90
        0
176
     1
 40
-0.6
176
     1
 41
-30.0
176
     1
 62
     5
 63
     7
421
 16777215
176
     1
 74
     2
176
     1
 91
        2
176
     1
 64
     7
176
     1
 65
   257
176
     1
 75
     2
176
     1
175
     1
176
     1
 42
40.0
176
     1
 92
        0
176
     1
 66
   257
176
     1
 43
1.0
176
     1
 76
     1
176
     1
 77
     6
176
     1
 78
     2
176
     1
 67
     7
176
     1
 79
     3
176
     1
170
     0
176
     1
171
     0
176
     1
290
     0
176
     1
 93
        1
176
     1
 44
0.0
176
     1
173
     0
176
     1
  0
VISUALSTYLE
  5
30
102
{ACAD_REACTORS
330
2A
102
}
330
2A
100
AcDbVisualStyle
  2
3dWireframe
 70
     5
177
     2
291
     0
 71
     0
176
     1
 72
     2
176
     1
 73
     0
176
     1
 90
        0
176
     1
 40
-0.6
176
     1
 41
-30.0
176
     1
 62
     5
 63
     7
421
 16777215
176
     1
 74
     1
176
     1
 91
        4
176
     1
 64
     7
176
     1
 65
   257
176
     1
 75
     1
176
     1
175
     1
176
     1
 42
1.0
176
     1
 92
        0
176
     1
 66
   257
176
     1
 43
1.0
176
     1
 76
     1
176
     1
 77
     6
176
     1
 78
     2
176
     1
 67
     7
176
     1
 79
     5
176
     1
170
     0
176
     1
171
     0
176
     1
290
     0
176
     1
 93
        1
176
     1
 44
0.0
176
     1
173
     0
176
     1
  0
VISUALSTYLE
  5
32
102
{ACAD_REACTORS
330
2A
102
}
330
2A
100
AcDbVisualStyle
  2
Basic
 70
     7
177
     2
291
     1
 71
     1
176
     1
 72
     0
176
     1
 73
     1
176
     1
 90
        0
176
     1
 40
-0.6
176
     1
 41
-30.0
176
     1
 62
     5
 63
     7
421
 16777215
176
     1
 74
     0
176
     1
 91
        4
176
     1
 64
     7
176
     1
 65
   257
176
     1
 75
     1
176
     1
175
     1
176
     1
 42
1.0
176
     1
 92
        8
176
     1
 66
     7
176
     1
 43
1.0
176
     1
 76
     1
176
     1
 77
     6
176
     1
 78
     2
176
     1
 67
     7
176
     1
 79
     5
176
     1
170
     0
176
     1
171
     0
176
     1
290
     0
176
     1
 93
        1
176
     1
 44
0.0
176
     1
173
     0
176
     1
  0
VISUALSTYLE
  5
36
102
{ACAD_REACTORS
330
2A
102
}
330
2A
100
AcDbVisualStyle
  2
Brighten
 70
    12
177
     2
291
     1
 71
     2
176
     1
 72
     2
176
     1
 73
     0
176
     1
 90
        0
176
     1
 40
-0.6
176
     1
 41
-30.0
176
     1
 62
     5
 63
     7
421
 16777215
176
     1
 74
     1
176
     1
 91
        4
176
     1
 64
     7
176
     1
 65
   257
176
     1
 75
     1
176
     1
175
     1
176
     1
 42
1.0
176
     1
 92
        8
176
     1
 66
     7
176
     1
 43
1.0
176
     1
 76
     1
176
     1
 77
     6
176
     1
 78
     2
176
     1
 67
     7
176
     1
 79
     5
176
     1
170
     0
176
     1
171
     0
176
     1
290
     0
176
     1
 93
        1
176
     1
 44
50.0
176
     1
173
     0
176
     1
  0
VISUALSTYLE
  5
3A
102
{ACAD_REACTORS
330
2A
102
}
330
2A
100
AcDbVisualStyle
  2
ColorChange
 70
    16
177
     2
291
     1
 71
     2
176
     1
 72
     2
176
     1
 73
     3
176
     1
 90
        0
176
     1
 40
-0.6
176
     1
 41
-30.0
176
     1
 62
     5
 63
     8
421
  8421504
176
     1
 74
     1
176
     1
 91
        4
176
     1
 64
     7
176
     1
 65
   257
176
     1
 75
     1
176
     1
175
     1
176
     1
 42
1.0
176
     1
 92
        8
176
     1
 66
     8
424
  8421504
176
     1
 43
1.0
176
     1
 76
     1
176
     1
 77
     6
176
     1
 78
     2
176
     1
 67
     7
176
     1
 79
     5
176
     1
170
     0
176
     1
171
     0
176
     1
290
     0
176
     1
 93
        1
176
     1
 44
0.0
176
     1
173
     0
176
     1
  0
VISUALSTYLE
  5
34
102
{ACAD_REACTORS
330
2A
102
}
330
2A
100
AcDbVisualStyle
  2
Conceptual
 70
     9
177
     2
291
     0
 71
     3
176
     1
 72
     2
176
     1
 73
     0
176
     1
 90
        0
176
     1
 40
-0.6
176
     1
 41
-30.0
176
     1
 62
     5
 63
     7
421
 16777215
176
     1
 74
     2
176
     1
 91
        2
176
     1
 64
     7
176
     1
 65
   257
176
     1
 75
     1
176
     1
175
     1
176
     1
 42
40.0
176
     1
 92
        8
176
     1
 66
     7
176
     1
 43
1.0
176
     1
 76
     1
176
     1
 77
     6
176
     1
 78
     2
176
     1
 67
     7
176
     1
 79
     3
176
     1
170
     0
176
     1
171
     0
176
     1
290
     0
176
     1
 93
        1
176
     1
 44
0.0
176
     1
173
     0
176
     1
  0
VISUALSTYLE
  5
35
102
{ACAD_REACTORS
330
2A
102
}
330
2A
100
AcDbVisualStyle
  2
Dim
 70
    11
177
     2
291
     1
 71
     2
176
     1
 72
     2
176
     1
 73
     0
176
     1
 90
        0
176
     1
 40
-0.6
176
     1
 41
-30.0
176
     1
 62
     5
 63
     7
421
 16777215
176
     1
 74
     1
176
     1
 91
        4
176
     1
 64
     7
176
     1
 65
   257
176
     1
 75
     1
176
     1
175
     1
176
     1
 42
1.0
176
     1
 92
        8
176
     1
 66
     7
176
     1
 43
1.0
176
     1
 76
     1
176
     1
 77
     6
176
     1
 78
     2
176
     1
 67
     7
176
     1
 79
     5
176
     1
170
     0
176
     1
171
     0
176
     1
290
     0
176
     1
 93
        1
176
     1
 44
-50.0
176
     1
173
     0
176
     1
  0
VISUALSTYLE
  5
39
102
{ACAD_REACTORS
330
2A
102
}
330
2A
100
AcDbVisualStyle
  2
Facepattern
 70
    15
177
     2
291
     1
 71
     2
176
     1
 72
     2
176
     1
 73
     0
176
     1
 90
        0
176
     1
 40
-0.6
176
     1
 41
-30.0
176
     1
 62
     5
 63
     7
421
 16777215
176
     1
 74
     1
176
     1
 91
        4
176
     1
 64
     7
176
     1
 65
   257
176
     1
 75
     1
176
     1
175
     1
176
     1
 42
1.0
176
     1
 92
        8
176
     1
 66
     7
176
     1
 43
1.0
176
     1
 76
     1
176
     1
 77
     6
176
     1
 78
     2
176
     1
 67
     7
176
     1
 79
     5
176
     1
170
     0
176
     1
171
     0
176
     1
290
     0
176
     1
 93
        1
176
     1
 44
0.0
176
     1
173
     0
176
     1
  0
VISUALSTYLE
  5
2B
102
{ACAD_REACTORS
330
2A
102
}
330
2A
100
AcDbVisualStyle
  2
Flat
 70
     0
177
     2
291
     1
 71
     2
176
     1
 72
     1
176
     1
 73
     1
176
     1
 90
        2
176
     1
 40
-0.6
176
     1
 41
30.0
176
     1
 62
     5
 63
     7
421
 16777215
176
     1
 74
     0
176
     1
 91
        4
176
     1
 64
     7
176
     1
 65
   257
176
     1
 75
     1
176
     1
175
     1
176
     1
 42
1.0
176
     1
 92
        8
176
     1
 66
     7
176
     1
 43
1.0
176
     1
 76
     1
176
     1
 77
     6
176
     1
 78
     2
176
     1
 67
     7
176
     1
 79
     5
176
     1
170
     0
176
     1
171
     0
176
     1
290
     0
176
     1
 93
       13
176
     1
 44
0.0
176
     1
173
     0
176
     1
  0
VISUALSTYLE
  5
2C
102
{ACAD_REACTORS
330
2A
102
}
330
2A
100
AcDbVisualStyle
  2
FlatWithEdges
 70
     1
177
     2
291
     1
 71
     2
176
     1
 72
     1
176
     1
 73
     1
176
     1
 90
        2
176
     1
 40
-0.6
176
     1
 41
30.0
176
     1
 62
     5
 63
     7
421
 16777215
176
     1
 74
     1
176
     1
 91
        4
176
     1
 64
     7
176
     1
 65
   257
176
     1
 75
     1
176
     1
175
     1
176
     1
 42
1.0
176
     1
 92
        0
176
     1
 66
   257
176
     1
 43
1.0
176
     1
 76
     1
176
     1
 77
     6
176
     1
 78
     2
176
     1
 67
     7
176
     1
 79
     5
176
     1
170
     0
176
     1
171
     0
176
     1
290
     0
176
     1
 93
       13
176
     1
 44
0.0
176
     1
173
     0
176
     1
  0
VISUALSTYLE
  5
2D
102
{ACAD_REACTORS
330
2A
102
}
330
2A
100
AcDbVisualStyle
  2
Gouraud
 70
     2
177
     2
291
     1
 71
     2
176
     1
 72
     2
176
     1
 73
     1
176
     1
 90
        2
176
     1
 40
-0.6
176
     1
 41
30.0
176
     1
 62
     5
 63
     7
421
 16777215
176
     1
 74
     0
176
     1
 91
        4
176
     1
 64
     7
176
     1
 65
   257
176
     1
 75
     1
176
     1
175
     1
176
     1
 42
1.0
176
     1
 92
        0
176
     1
 66
     7
176
     1
 43
1.0
176
     1
 76
     1
176
     1
 77
     6
176
     1
 78
     2
176
     1
 67
     7
176
     1
 79
     5
176
     1
170
     0
176
     1
171
     0
176
     1
290
     0
176
     1
 93
       13
176
     1
 44
0.0
176
     1
173
     0
176
     1
  0
VISUALSTYLE
  5
2E
102
{ACAD_REACTORS
330
2A
102
}
330
2A
100
AcDbVisualStyle
  2
GouraudWithEdges
 70
     3
177
     2
291
     1
 71
     2
176
     1
 72
     2
176
     1
 73
     1
176
     1
 90
        2
176
     1
 40
-0.6
176
     1
 41
30.0
176
     1
 62
     5
 63
     7
421
 16777215
176
     1
 74
     1
176
     1
 91
        4
176
     1
 64
     7
176
     1
 65
   257
176
     1
 75
     1
176
     1
175
     1
176
     1
 42
1.0
176
     1
 92
        0
176
     1
 66
   257
176
     1
 43
1.0
176
     1
 76
     1
176
     1
 77
     6
176
     1
 78
     2
176
     1
 67
     7
176
     1
 79
     5
176
     1
170
     0
176
     1
171
     0
176
     1
290
     0
176
     1
 93
       13
176
     1
 44
0.0
176
     1
173
     0
176
     1
  0
VISUALSTYLE
  5
38
102
{ACAD_REACTORS
330
2A
102
}
330
2A
100
AcDbVisualStyle
  2
Linepattern
 70
    14
177
     2
291
     1
 71
     2
176
     1
 72
     2
176
     1
 73
     0
176
     1
 90
        0
176
     1
 40
-0.6
176
     1
 41
-30.0
176
     1
 62
     5
 63
     7
421
 16777215
176
     1
 74
     1
176
     1
 91
        4
176
     1
 64
     7
176
     1
 65
   257
176
     1
 75
     7
176
     1
175
     7
176
     1
 42
1.0
176
     1
 92
        8
176
     1
 66
     7
176
     1
 43
1.0
176
     1
 76
     1
176
     1
 77
     6
176
     1
 78
     2
176
     1
 67
     7
176
     1
 79
     5
176
     1
170
     0
176
     1
171
     0
176
     1
290
     0
176
     1
 93
        1
176
     1
 44
0.0
176
     1
173
     0
176
     1
  0
VISUALSTYLE
  5
33
102
{ACAD_REACTORS
330
2A
102
}
330
2A
100
AcDbVisualStyle
  2
Realistic
 70
     8
177
     2
291
     0
 71
     2
176
     1
 72
     2
176
     1
 73
     0
176
     1
 90
        0
176
     1
 40
-0.6
176
     1
 41
-30.0
176
     1
 62
     5
 63
     7
421
 16777215
176
     1
 74
     1
176
     1
 91
        0
176
     1
 64
     7
176
     1
 65
   257
176
     1
 75
     1
176
     1
175
     1
176
     1
 42
1.0
176
     1
 92
        8
176
     1
 66
     8
424
  7895160
176
     1
 43
1.0
176
     1
 76
     1
176
     1
 77
     6
176
     1
 78
     2
176
     1
 67
     7
176
     1
 79
     5
176
     1
170
     0
176
     1
171
     0
176
     1
290
     0
176
     1
 93
       13
176
     1
 44
0.0
176
     1
173
     0
176
     1
  0
VISUALSTYLE
  5
37
102
{ACAD_REACTORS
330
2A
102
}
330
2A
100
AcDbVisualStyle
  2
Thicken
 70
    13
177
     2
291
     1
 71
     2
176
     1
 72
     2
176
     1
 73
     0
176
     1
 90
        0
176
     1
 40
-0.6
176
     1
 41
-30.0
176
     1
 62
     5
 63
     7
421
 16777215
176
     1
 74
     1
176
     1
 91
        4
176
     1
 64
     7
176
     1
 65
   257
176
     1
 75
     1
176
     1
175
     1
176
     1
 42
1.0
176
     1
 92
       12
176
     1
 66
     7
176
     1
 43
1.0
176
     1
 76
     1
176
     1
 77
     6
176
     1
 78
     2
176
     1
 67
     7
176
     1
 79
     5
176
     1
170
     0
176
     1
171
     0
176
     1
290
     0
176
     1
 93
        1
176
     1
 44
0.0
176
     1
173
     0
176
     1
  0
ENDSEC
  0
EOF
