<?xml version="1.0" encoding="utf-8"?>
<!-- Generator: Adobe Illustrator 18.0.0, SVG Export Plug-In . SVG Version: 6.00 Build 0)  -->
<!DOCTYPE svg PUBLIC "-//W3C//DTD SVG 1.1//EN" "http://www.w3.org/Graphics/SVG/1.1/DTD/svg11.dtd">
<svg version="1.1" id="Layer_1" xmlns="http://www.w3.org/2000/svg" xmlns:xlink="http://www.w3.org/1999/xlink" x="0px" y="0px"
	 viewBox="0 0 432 432" enable-background="new 0 0 432 432" xml:space="preserve">
<path fill="#B19A53" d="M81.2,267c0,7.2-0.6,13.3-1.8,18.5c-1.7,7.1-4.4,10.7-8.3,10.7c-3.5,0-5.2-1.8-5.2-5.3c0-1,0.1-1.9,0.3-2.9
	c1.5-6.9,2.2-13.8,2.2-20.9c0-5.3-0.6-10.2-1.7-14.7c-2.7-10-8.1-15-16.4-15c-6,0-10.6,2.8-13.8,8.5c-2.7,4.7-4,10.9-4,18.6
	c0,7.4,1.9,14.3,5.8,20.8c3.6,6,9.6,13.2,18.2,21.6c3.6,3.6,6.8,7.2,9.8,10.8c6.5,8.2,9.7,16.6,9.7,25.1c0,7.9-2.2,14.3-6.6,19.4
	c-5.8,6.7-14.1,10-25,10c-9.6,0-16.9-3.3-22-9.9c-4.1-5.4-6.1-12.8-6.1-22.1c0-2.6,0.6-4.8,1.9-6.6c1.2-1.8,2.9-2.7,5-2.7
	c3.8,0,5.7,2.4,5.7,7.1c0,2.9,0.4,5.8,1.2,8.8c1.8,7.1,6.2,10.7,12.9,10.7c7.5,0,11.3-4.2,11.3-12.5c0-5.3-2.8-11.1-8.3-17.2
	c-2.5-2.7-5.3-5.6-8.3-8.6c-8.2-8.1-14.5-15.4-18.6-22c-6.2-9.5-9.2-19.9-9.2-31.5c0-7.9,1.3-15,3.9-21.3c1.8-4.4,4.4-8.2,7.8-11.3
	c6.5-6.1,15.1-9.1,25.9-9.1C70,223.9,81.2,238.2,81.2,267z M124.9,236.5c3-0.1,5.1-0.5,6.3-1c2.2-1.1,3.3-2.9,3.3-5.4
	c0-3-2.5-4.6-7.6-4.6H94.5c-5.1,0-7.6,1.5-7.6,4.6c0,2.5,1.1,4.3,3.3,5.4c1.1,0.6,3,0.9,5.9,1c2,0.1,3,1.2,3,3.3v116
	c0,1.1-0.3,2-1,2.5c-0.7,0.5-1.9,0.8-3.6,0.8c-5.1,0-7.6,2.1-7.6,6.3c0,3.3,2.3,4.9,7,4.9h32c5.1,0,7.6-1.5,7.6-4.6
	c0-2.4-1.1-4.2-3.2-5.4c-1.1-0.6-3-1-5.7-1.1c-1.6-0.1-2.4-1-2.4-2.6V239.1C122.2,237.5,123.1,236.7,124.9,236.5z M176.3,223.9
	c-10.8,0-19.4,3-25.9,9.1c-3.4,3.1-6,6.9-7.8,11.3c-2.6,6.3-3.9,13.4-3.9,21.3c0,11.5,3.1,22,9.2,31.5c4.2,6.5,10.4,13.9,18.6,22
	c3,3,5.7,5.8,8.3,8.6c5.5,6.2,8.3,11.9,8.3,17.2c0,8.3-3.8,12.5-11.3,12.5c-6.8,0-11.1-3.6-12.9-10.7c-0.8-3-1.2-5.9-1.2-8.8
	c0-4.8-1.9-7.1-5.7-7.1c-2.1,0-3.8,0.9-5,2.7c-1.2,1.8-1.9,4-1.9,6.6c0,9.3,2,16.7,6.1,22.1c5.1,6.6,12.4,9.9,22,9.9
	c10.9,0,19.3-3.3,25-10c4.4-5.1,6.6-11.5,6.6-19.4c0-8.6-3.2-16.9-9.7-25.1c-3-3.7-6.2-7.3-9.8-10.8c-8.6-8.4-14.6-15.6-18.2-21.6
	c-3.9-6.5-5.8-13.5-5.8-20.8c0-7.7,1.3-13.9,4-18.6c3.2-5.6,7.8-8.5,13.8-8.5c8.2,0,13.7,5,16.4,15c1.1,4.5,1.7,9.4,1.7,14.7
	c0,7.1-0.7,14.1-2.2,20.9c-0.2,1-0.3,1.9-0.3,2.9c0,3.6,1.7,5.3,5.2,5.3c3.9,0,6.6-3.6,8.3-10.7c1.2-5.1,1.8-11.3,1.8-18.5
	C210,238.2,198.8,223.9,176.3,223.9z M276.1,227.9c-1.6-1.1-3.4-1.7-5.6-2c-2.2-0.3-4.1-0.4-5.9-0.4h-39.8c-1.8,0-3.7,0.1-5.9,0.4
	c-2.2,0.3-4,0.9-5.6,2c-1.6,1.1-2.3,2.8-2.3,5.1c0,1.5,0.8,2.9,2.4,4.2c1.6,1.3,4,1.9,7.1,1.9h10.4c1.5,0,2.2,0.8,2.2,2.3v114
	c0,4.6,0.4,8.1,1.1,10.3c0.5,1.5,1.3,2.8,2.4,3.9c1.5,1.6,4.1,2.5,7.6,2.5c8.1,0,12.1-5.3,12.1-15.9V241.4c0-1.5,0.8-2.3,2.3-2.3
	h10.3c3.1,0,5.5-0.6,7.1-1.9c1.6-1.3,2.4-2.7,2.4-4.2C278.4,230.7,277.6,229,276.1,227.9z M345.1,358.6c-1.2-0.8-2.7-1.1-4.3-1.1
	c-2.5,0-4.9,0.1-7.4,0.3c-2.4,0.2-4.9,0.3-7.4,0.3c-7.8,0-13.1-1.9-15.8-5.8c-1.7-2.5-2.6-6.2-2.6-10.8v-4.4c0-2.7,1.5-4,4.6-4
	l19.7,0.3c2.3,0,4.1-0.5,5.3-1.6c1.3-1.1,1.9-2.4,1.9-3.9c0-2.7-1-4.6-2.9-5.7c-1.6-1-4-1.4-7.2-1.4c-2.7,0-5.3,0.1-8,0.2
	c-2.7,0.1-5.4,0.2-8,0.2c-1.8,0-3.1-0.4-4-1.2c-0.9-0.8-1.3-2.7-1.3-5.6v-67.6c0-5.1,2.3-7.6,6.8-7.6c2.4,0,4.8,0,7.3,0.1
	c2.4,0.1,4.9,0.1,7.3,0.1c3.4,0,5.9-0.7,7.5-2c1.6-1.4,2.5-2.8,2.5-4.3c0-4.1-2.6-6.5-7.9-7.1c-2.2-0.3-4.1-0.4-5.9-0.4h-25.7
	c-7.5,0-12.1,3.1-13.9,9.2c-0.8,2.9-1.2,6.4-1.2,10.6v79.8c0,6.2,0.3,12,0.8,17.6c1.1,12.4,6,20.9,14.7,25.5
	c4.8,2.5,11.5,3.8,20.2,3.8c9.9,0,16.9-0.9,20.9-2.6c4.1-1.7,6.1-4.2,6.1-7.3C346.9,360.5,346.3,359.4,345.1,358.6z M422,364.7
	c0,2.3-0.7,4.2-2.1,5.4c-1.4,1.3-3.4,1.9-5.9,1.9c-4.3,0-8.8-3.6-13.4-10.9c-5-7.6-11.1-17.5-18.3-29.6c-1.3-1.6-2.2-2.5-2.5-2.5
	c-0.6,0-0.9,1.1-0.9,3.4v23.7c0,10.6-4,15.9-12.1,15.9c-3.6,0-6.1-0.8-7.7-2.4c-1.6-1.6-2.5-3.7-2.9-6.2c-0.4-2.5-0.6-5.2-0.6-8
	V240.4c0-11,5.5-16.6,16.6-16.6c12.7,0,23.7,3.2,33,9.5c10.8,7.5,16.3,18.9,16.3,34.2c0,11.1-1.9,21.3-5.7,30.4
	c-4.6,11-11.5,19.5-20.8,25.4c-0.5,0.3-0.8,0.7-0.8,1.1c0,0.6,2.3,3.6,6.8,8.9c1.7,2,3.3,4,4.8,5.9C416.6,353.1,422,361.5,422,364.7
	z M392.1,309.1c4.4-4.9,7.6-10.8,9.8-17.5c2.5-7.5,3.8-15.3,3.8-23.1c0-5.4-0.8-10.3-2.5-14.8c-3.7-9.7-10.7-14.6-20.9-14.6
	c-2.2,0.1-3.3,1.1-3.3,3.1v71c0,2.2,0.9,3.3,2.8,3.3C384.3,316.6,387.7,314.1,392.1,309.1z M107.5,153.9c6,0,10.7-0.5,14.2-1.4
	c4.7-1.2,7-3.1,7-5.7c0-1.1-0.4-2-1.3-2.5c-0.9-0.5-1.9-0.8-3.1-0.8c-1.5,0-2.8,0.1-4,0.2c-1.2,0.2-4,0.2-8.3,0.2
	c-3.4,0-5-2.2-5-6.5V59.2c0-3.4-0.7-6.1-2-8.1c-1.5-2.1-3.7-3.2-6.7-3.2c-3.1,0-5.3,1-6.5,3.1c-1,1.7-1.4,4.6-1.4,8.7v74.2
	c0,6.6,1.3,11.5,3.8,14.9C96.7,152.2,101.1,153.9,107.5,153.9z M142.2,144.1c-0.5,0.4-1.4,0.5-2.6,0.5c-3.6,0-5.4,1.5-5.4,4.5
	c0,2.4,1.7,3.5,5,3.5H162c3.6,0,5.4-1.1,5.4-3.3c0-1.7-0.8-3-2.3-3.9c-0.8-0.5-2.1-0.7-4.1-0.8c-1.1-0.1-1.7-0.7-1.7-1.8V58.8
	c0-1.1,0.6-1.7,1.9-1.8c2.2-0.1,3.7-0.3,4.5-0.7c1.6-0.8,2.4-2.1,2.4-3.9c0-2.2-1.8-3.3-5.4-3.3h-23.1c-3.6,0-5.4,1.1-5.4,3.3
	c0,1.8,0.8,3.1,2.4,3.9c0.8,0.4,2.2,0.7,4.2,0.7c1.5,0.1,2.2,0.9,2.2,2.4v83C142.9,143.1,142.7,143.7,142.2,144.1z M175,57.4
	c1.2,0.9,2.8,1.4,5.1,1.4h7.4c1,0,1.6,0.5,1.6,1.6v81.5c0,3.3,0.3,5.8,0.8,7.4c0.4,1.1,0.9,2,1.7,2.8c1.1,1.2,2.9,1.8,5.4,1.8
	c5.8,0,8.6-3.8,8.6-11.4V60.4c0-1.1,0.5-1.6,1.6-1.6h7.4c2.2,0,3.9-0.5,5.1-1.4c1.2-0.9,1.7-1.9,1.7-3c0-1.7-0.6-2.9-1.7-3.7
	c-1.1-0.8-2.4-1.2-4-1.4c-1.5-0.2-2.9-0.3-4.2-0.3h-28.5c-1.3,0-2.7,0.1-4.2,0.3c-1.5,0.2-2.9,0.7-4,1.4c-1.1,0.8-1.7,2-1.7,3.7
	C173.3,55.5,173.8,56.5,175,57.4z M229.4,57.4c1.2,0.9,2.8,1.4,5.1,1.4h7.4c1,0,1.6,0.5,1.6,1.6v81.5c0,3.3,0.3,5.8,0.8,7.4
	c0.4,1.1,0.9,2,1.7,2.8c1.1,1.2,2.9,1.8,5.4,1.8c5.8,0,8.6-3.8,8.6-11.4V60.4c0-1.1,0.5-1.6,1.6-1.6h7.4c2.2,0,3.9-0.5,5.1-1.4
	c1.2-0.9,1.7-1.9,1.7-3c0-1.7-0.6-2.9-1.7-3.7c-1.1-0.8-2.4-1.2-4-1.4c-1.5-0.2-2.9-0.3-4.2-0.3h-28.5c-1.3,0-2.7,0.1-4.2,0.3
	c-1.5,0.2-2.9,0.7-4,1.4c-1.1,0.8-1.7,2-1.7,3.7C227.7,55.5,228.2,56.5,229.4,57.4z M298.2,153.9c6,0,10.7-0.5,14.2-1.4
	c4.7-1.2,7-3.1,7-5.7c0-1.1-0.4-2-1.3-2.5c-0.9-0.5-1.9-0.8-3.1-0.8c-1.5,0-2.8,0.1-4,0.2c-1.2,0.2-4,0.2-8.3,0.2
	c-3.4,0-5-2.2-5-6.5V59.2c0-3.4-0.7-6.1-2-8.1c-1.5-2.1-3.7-3.2-6.7-3.2c-3.1,0-5.3,1-6.5,3.1c-1,1.7-1.4,4.6-1.4,8.7v74.2
	c0,6.6,1.3,11.5,3.8,14.9C287.4,152.2,291.8,153.9,298.2,153.9z M330.7,151.1c3.4,1.8,8.3,2.7,14.4,2.7c7.1,0,12.1-0.6,15-1.9
	c2.9-1.2,4.4-3,4.4-5.2c0-1.1-0.4-2-1.3-2.5c-0.9-0.5-1.9-0.8-3.1-0.8c-1.8,0-3.5,0.1-5.3,0.2c-1.7,0.2-3.5,0.2-5.3,0.2
	c-5.6,0-9.3-1.4-11.3-4.2c-1.2-1.8-1.8-4.4-1.8-7.8v-3.1c0-1.9,1.1-2.9,3.3-2.9l14.1,0.2c1.6,0,2.9-0.4,3.8-1.2
	c0.9-0.8,1.4-1.7,1.4-2.8c0-1.9-0.7-3.3-2-4.1c-1.1-0.7-2.9-1-5.2-1c-1.9,0-3.8,0-5.8,0.1c-1.9,0.1-3.8,0.1-5.8,0.1
	c-1.3,0-2.2-0.3-2.9-0.9c-0.6-0.6-1-1.9-1-4V64.2c0-3.6,1.6-5.4,4.8-5.4c1.7,0,3.5,0,5.2,0.1c1.7,0.1,3.5,0.1,5.2,0.1
	c2.4,0,4.2-0.5,5.4-1.5c1.2-1,1.8-2,1.8-3.1c0-2.9-1.9-4.7-5.6-5.1c-1.5-0.2-3-0.3-4.2-0.3h-18.4c-5.4,0-8.7,2.2-9.9,6.6
	c-0.6,2.1-0.9,4.6-0.9,7.6v57.1c0,4.4,0.2,8.6,0.5,12.6C321,141.7,324.5,147.8,330.7,151.1z"/>
<path fill="#141414" d="M356.1,214c-0.4-0.5-1.7-2.1-2.9-3.5c-3.1-3.6-2.6-3.8,1.4-0.7c1.9,1.4,4,3.1,4.8,3.8l1.5,1.2l5.2-0.4
	c2.9-0.3,6.6-0.7,8.3-1c4-0.8,8.8-2.3,8.8-2.7c0-0.2-1.5-1.9-3.5-3.7c-2.2-2.2-3.4-3.6-3.5-4c0-0.5,0.1-0.4,1.6,0.5
	c1.9,1.3,5.9,4.3,7.1,5.4c0.5,0.5,1.1,0.9,1.3,0.9c1.2,0,14.7-6.8,19.3-9.6c2.1-1.3,3.8-2.9,4.3-4c0.5-1.2,0.4-2.8-0.3-4
	c-0.8-1.4-5.5-5.1-10.6-8.5c-3.4-2.2-3.7-2.3-4.2-2c-2.7,1.9-8,5.1-8.2,5.1c-0.6,0-0.4-0.6,0.4-1.1c1.6-1,6.1-5.1,6.1-5.6
	c0-0.4-4.8-2.3-8.1-3.4c-1.6-0.5-4.5-1.2-6.4-1.5l-3.4-0.6l-2.4,2c-1.3,1.1-3.4,2.7-4.6,3.5c-1.2,0.9-3.1,2.1-4.1,2.9
	c-1.5,1.1-1.8,1.2-1.9,0.8c0-0.3,0.6-0.9,1.3-1.5c1.5-1.2,7.5-7.4,7.5-7.8c0-0.6-8.4-0.9-24.3-1l-4.6,0l-1.2,1
	c-0.7,0.5-1.9,1.5-2.6,2.1c-1.6,1.3-9.8,7.1-10,7.1c-0.1,0-0.1-0.2-0.1-0.4c0-0.2,0.7-0.9,1.5-1.5c1.4-1.1,8-7.9,7.8-8.1
	c-0.1,0-4.8-0.2-10.5-0.2c-12-0.2-15.4,0.1-20.1,1.4c-3.2,0.9-7.7,2.9-9.7,4.2c-1.3,0.9-5.1,4.6-6.9,6.7
	c-15.4-0.7-32.3-1.2-50.1-1.7c2.5-4.3,3.8-8.1,3.4-10.6c-0.8-5.7-3.6-9.3-8.9-11.3c-2.1-0.8-5.7-1.3-7.9-1c-2.7,0.4-4.9,0.9-7,1.7
	c-2.9,1.1-7.8,4.4-11.3,7.4c-1.4,1.3-2.7,2.3-2.8,2.3c-0.2,0-1.1-0.9-2-2c-1-1.1-2.9-3-4.4-4.1c-5-4.1-8.6-5.6-14.4-5.7
	c-3.1-0.1-3.9,0.1-5.9,0.8c-4.3,1.6-7.8,4.8-9.6,9.2c-1,2.3-1.1,2.9-0.9,5.7c0.1,2.1,0.5,4.2,1.2,6.2c-9.1-0.1-18.1-0.2-27.1-0.3
	c-26.3-0.2-43.1-0.3-60.6-0.1c0.4-9.1,0.6-17.4,0.3-17.5c-0.1,0-0.3-0.1-0.3-0.3c0-0.2-0.3-0.6-0.6-1c-1-1.1-3-1.2-5.6-0.2
	c-1.1,0.4-5.4,1.5-9.6,2.5c-4.2,1-10.7,2.5-14.4,3.4c-3.7,0.9-9.2,2.2-12.2,2.9c-3,0.7-6.6,1.6-8.1,2c-2.7,0.7-10.8,2.5-14.2,3.1
	c-1.6,0.3-2.2,0.5-2.9,1.2c-1.6,1.4-1.6,3.8,0.1,5.1c0.3,0.2,1.6,0.9,3,1.5c1.3,0.6,5.5,2.4,9.2,4.1c3.7,1.6,9,3.9,11.8,5.1
	c2.7,1.1,6,2.5,7.3,3c3.4,1.5,9.2,3.7,16.5,6.5c3.6,1.3,8,3,9.8,3.8c1.8,0.7,3.8,1.4,4.4,1.5c2,0.3,3.5-0.9,4.1-3.2
	c0.3-1.1,0.8-8.6,1.2-16.9c1,0,2,0,2.9,0c18.1-0.2,66.9-0.2,72.1,0c1.5,0.1,7.8,0.2,16,0.4c3.7,6.1,10.1,12.8,20.2,21.3
	c6.1,5.1,7.3,5.9,8.9,6.3c1,0.3,2.4,0.4,3,0.3c2.5-0.5,22.6-16.4,27.2-21.5c1.5-1.7,2.8-3.3,4.1-4.9c20.9,0.6,40.6,1.2,54.1,1.8
	c1.5,2.6,3.3,5,5.3,6.6c5.2,4.6,17.1,10.3,26.3,12.8c2.8,0.7,9,1.9,9.4,1.8c0.5-0.2-3.7-4.9-9.2-10.4c-0.3-0.2-0.5-0.7-0.4-0.9
	c0-0.4,0.7,0,3.1,1.7c5.5,3.9,8.6,6.2,11,8.2c1.3,1.1,2.7,2,3,2.1c1,0.2,10,0.6,14.3,0.7l4.1,0.1L356.1,214z M313.1,192.8
	c-4.6-0.5-10.8-1.1-13.6-1.3c-0.2,0-0.3,0-0.4,0c0-0.9-0.1-1.8-0.3-2.7c0.2,0,0.3,0,0.5,0c19.5,1.7,42.4,3,65.4,3.8
	c5.7,0.2,11.9,0.4,13.8,0.5c5.2,0.3,13.6,0.9,14.6,1c0.4,0.1,2.8,0.2,5.2,0.2c2.4,0,4.5,0.1,4.6,0.2c0.1,0.1,0.2,0.4,0.2,0.8
	c0,0.6-0.4,0.6-13.4,0.6C358.2,195.9,335.6,195,313.1,192.8z"/>
</svg>
