<?xml version="1.0" encoding="utf-8"?>
<!-- Generator: Adobe Illustrator 18.0.0, SVG Export Plug-In . SVG Version: 6.00 Build 0)  -->
<!DOCTYPE svg PUBLIC "-//W3C//DTD SVG 1.1//EN" "http://www.w3.org/Graphics/SVG/1.1/DTD/svg11.dtd">
<svg version="1.1" id="Layer_1" xmlns="http://www.w3.org/2000/svg" xmlns:xlink="http://www.w3.org/1999/xlink" x="0px" y="0px"
	 viewBox="0 0 432 432" enable-background="new 0 0 432 432" xml:space="preserve">
<path fill="#B19A53" d="M190.6,119.2c2.7,2.1,6.1,3.5,10,4.2c0.8,0.1,1.6,0.1,2.3,0.1c3.7,0,7.3-1.5,10.8-4.4
	c4.2-3.5,7.9-7.8,11.1-12.7c0.8-1.1,1.5-2.3,2.3-3.4c-0.1,1-0.1,2-0.1,3v1.3c0.1,4.6,2,7.9,5.8,10c3.8,2.1,7.8,2.9,12.1,2.5
	c1.5-0.2,3.1-1.8,4.8-5c1.6-3.1,3.1-6.4,4.5-9.9c0.9-2.3,1.6-4.5,2.2-6.4c0.5-1.7,0.8-3,1.1-3.9c-0.3,2.1-0.7,4.7-1.2,7.9
	c-0.6,3.4-0.9,6.8-1.1,10.3c-0.1,1.9,0,3.7,0.1,5.4c0.2,1.8,0.5,3.4,1,4.8c0.6,1.8,1.4,3.2,2.5,4.4c1.1,1.1,2.7,1.8,4.6,2.1h0.4
	c2.1,0,4.6-2,7.4-6c2.9-4.3,5.7-8.9,8.3-14c1.5-2.9,2.9-5.7,4.1-8.4c0,0.4,0.1,0.8,0.1,1.3c0.1,6.7,0.9,12.4,2.5,17.2
	c1,3,2.5,5.5,4.2,7.5c1.8,1.9,4,3.2,6.8,3.7h0.8c1.8,0,3.7-1,5.8-2.9c2.4-2.3,4.8-5.1,7.1-8.6c2.3-3.4,4.6-7,6.8-10.8
	c2.1-3.9,3.9-7.3,5.3-10.3c0.8-1.5,1.5-2.9,2.1-4.1c0.6-1.2,1-2.1,1.3-2.7c-0.6-0.6-1.3-0.9-1.9-1c-0.6,0-1.2,0.1-1.8,0.4
	c-0.6,1.2-1.8,3.5-3.6,7c-1.9,3.5-3.9,7.1-6.2,11c-2.8,4.8-5.7,9.1-8.6,12.9c-2.9,3.9-5.2,5.6-6.8,5.3c-0.5-0.2-0.9-1-1.2-2.7
	c-0.3-1.6-0.5-3.7-0.6-6.4c-0.2-5-0.1-11.4,0.2-19.1c0.4-7.7,0.8-15.6,1.3-23.5c0.5-6.4,1-12.5,1.5-18.3c0.2-2,0.3-3.9,0.5-5.7
	c3.5,0.1,6.4,0.2,8.5,0.5h0.2c0.7,0,1.1-0.3,1.1-1V51c0-0.7-0.5-1.3-1.6-1.7c-2.7-0.2-5.4-0.4-8-0.6c0.2-1.9,0.3-3.7,0.5-5.3
	c0.2-1.9,0.4-3.5,0.5-4.6c0.2-1.2,0.2-1.9,0.2-1.9c0-0.8-0.1-1.4-0.4-1.8c-0.3-0.5-0.7-0.8-1.2-1c-0.5-0.2-1-0.4-1.6-0.4
	c-1.2,0-2.6,0.4-4.1,1.2c-2.4,1.2-3.9,2.7-4.5,4.5c0.3,0.3,0.5,1.2,0.5,2.5c-0.1,1.4-0.2,3.1-0.5,5.2c-0.1,0.5-0.2,1-0.2,1.5
	c-3.3,0.1-6.6,0.2-10,0.2c-0.5,0.6-0.8,1.3-1,2.1v0.2c0,0.6,0.4,0.9,1.3,1c3-0.3,6.1-0.5,9.3-0.6c-0.4,3.2-0.9,6.9-1.6,11
	c-1,6.1-1.7,12.6-2.3,19.3c-0.4,3.3-0.6,6.7-0.8,10c-0.6,1.3-1.5,3-2.5,5.3c-1.6,3.4-3.4,7-5.3,10.8c-2.3,4.6-4.7,8.8-7.1,12.7
	c-2.3,3.8-4.1,5.6-5.3,5.4c-0.2-0.1-0.4-0.6-0.5-1.5c-0.1-0.9-0.1-2.1,0-3.6c0.2-2.9,0.6-6.6,1.2-11c0.6-4.5,1.2-9,1.9-13.4
	c0.9-5.6,1.8-10.6,2.8-14.9c1-4.4,1.7-6.4,2.3-6.3c0.1-0.5,0-0.9-0.1-1.2c-0.1-0.4-0.3-0.7-0.6-1c-1.1-1-3.1-1.3-5.8-0.8
	c-2.7,0.4-4.2,1.2-4.7,2.4c-0.2,0.6-1,3.4-2.4,8.6c-1.5,5.2-3.1,10.5-5.1,16c-1.5,4.4-3.1,8.4-4.6,11.8c-1.5,3.4-2.8,5.1-3.9,5.1
	c-2.3,0-3.5-2.5-3.5-7.5c0.1-5.1,1-10.6,2.7-16.7c1.4-4.8,3.1-9.2,5.2-13.4c2.2-4.3,4.5-7.2,7-8.8c1.5-0.9,2.9-1.3,4.4-1.2
	c1.5,0.1,2.9,0.8,4.4,2.3c0.4-0.2,0.6-0.4,0.7-0.7c0.1-0.4,0-0.8-0.2-1.1c-1-1.5-2.8-2.5-5.2-3c-1.9-0.5-3.7-0.7-5.6-0.7h-1.5
	c-1.2,0.1-2.4,0.2-3.5,0.5c-1,0.2-1.9,0.6-2.7,1c-1.5,0.8-3.1,2-4.7,3.5c-1.6,1.5-3.2,3.3-4.7,5.4c-2.8,4-5.2,8.7-7.1,14.1
	c-0.3,0.8-0.5,1.6-0.7,2.4c-0.8,1.7-1.8,3.5-2.9,5.5c-1.4,2.3-2.9,4.7-4.5,7.1c-3.1,4.4-6.4,8.3-9.9,11.5c-3.5,3.3-6.7,4.6-9.4,4
	c-2.5-0.6-4.4-2.4-5.6-5.6c-1.1-3.1-1.8-6.8-1.9-10.9c-0.1-2.3,0-4.7,0.1-7v-0.1c2.7-1.3,5.2-2.8,7.3-4.6c4.5-3.8,6.7-9.2,6.7-16.2
	c-0.1-4.4-1.5-7.9-4.2-10.3c-2.1-1.8-4.4-2.7-6.8-2.7c-0.8,0-1.6,0.1-2.4,0.2c-1.9,0.4-3.7,1.3-5.4,2.8c-1.9,1.5-3.5,3.5-5,6
	c-3.2,5.8-5,12.5-5.3,19.9v1.8c0,6.7,1.5,12.6,4.4,17.7C185.6,114.6,187.8,117.1,190.6,119.2z M195.5,89.7c0.8-5.4,2-10.1,3.5-14.1
	c1.5-3.9,3-5.8,4.5-5.4c1.6,0.4,2.4,2.6,2.3,6.6c-0.1,4-1.7,7.9-5,11.7c-1.5,1.8-3.5,3.4-5.8,4.8C195.2,92.2,195.4,90.9,195.5,89.7z
	 M154.8,234.6c-0.5-0.1-0.9-0.2-1.3-0.2c-0.4,0-0.6,0-0.7,0.1c-0.6,1-1.5,2.8-2.8,5.7c-1.3,2.8-2.8,6-4.5,9.5
	c-1.7,3.5-3.6,7.1-5.6,10.7c-2,3.6-4.1,6.8-6.2,9.4c-2.1,2.6-4.2,4.5-6.3,5.5c-2.1,1-4,0.7-5.8-0.9c-1-0.8-1.8-1.9-2.5-3.3
	c-0.7-1.3-1.3-2.8-1.7-4.3c-0.5-1.5-0.8-3.1-1-4.6c-0.2-1.5-0.3-2.9-0.3-4.1c-0.1-1.1-0.1-2-0.1-2.7c0-0.6,0-1.2,0.1-1.7
	c0.1-0.5,0.3-0.9,0.6-1.3c0.3-0.4,0.8-1,1.4-1.7c5.8-6.1,9.8-11.4,12.1-15.8c2.3-4.4,3.3-7.9,3.2-10.6c-0.1-2.7-1.1-4.7-2.9-5.8
	c-1.8-1.2-4-1.6-6.4-1.2c-5,0.8-9.2,2.5-12.5,5.1c-3.3,2.6-5.9,5.7-7.8,9.3c-0.4,0.8-0.7,1.5-1.1,2.3c-0.2,0-0.4-0.1-0.6-0.1
	c-0.4,0-0.6,0-0.7,0c-2.2,3.8-4.3,8-6.5,12.5c-2.1,4.5-4.3,8.7-6.4,12.8c-2.1,4-4.3,7.5-6.4,10.6c-2.2,3-4.4,5-6.7,6
	c1.5-1.5,2.8-4,3.9-7.6c1.1-3.5,1.9-7.5,2.4-11.8c0.5-4.3,0.6-8.8,0.2-13.3c-0.3-4.6-1.2-8.7-2.5-12.4c-1.4-3.7-3.3-6.6-5.9-8.8
	c-2.6-2.2-5.9-3-9.8-2.5c-1.5,0.2-2.6,0.5-3.5,0.9c-0.9,0.4-1.6,0.8-2.1,1.4c-0.6,0.5-1.1,1.1-1.5,1.8c-0.4,0.7-0.9,1.5-1.5,2.5
	c-0.4,0.7-1.1,2.2-2,4.5c-0.9,2.3-1.9,4.6-2.8,7.1c-1.1,2.8-2.3,5.9-3.6,9.3c-0.1-0.4-0.1-1.9,0-4.4c0.1-2.5,0.2-5.5,0.3-9
	c0.1-3.5,0.3-7.3,0.5-11.2c0.2-4,0.4-7.7,0.6-11.1c0.2-3.4,0.5-6.3,0.7-8.7c0.2-2.3,0.4-3.6,0.6-3.9c0.8-1,2.1-2.8,3.7-5.5
	c1.6-2.7,3.3-5.9,5-9.6c1.7-3.7,3.4-7.6,4.9-11.7c1.6-4.1,2.8-8,3.6-11.6c0.8-3.6,1.1-6.8,0.9-9.6c-0.2-2.8-1.3-4.6-3.2-5.5
	c-1.6-0.8-3.2-1-4.7-0.4c-1.5,0.5-3,1.5-4.4,2.8c-1.4,1.4-2.6,3-3.8,4.9c-1.2,1.9-2.2,3.8-3.2,5.8c-1,2-1.8,3.9-2.5,5.7
	c-0.7,1.8-1.2,3.2-1.7,4.2c-1.7,4.3-3.3,9.3-4.9,15.1c-1.6,5.8-3,12-4.3,18.6c-1.2,6.6-2.3,13.3-3.1,20.2c-0.8,6.9-1.3,13.6-1.4,20
	c-0.2,6.4,0.1,12.5,0.7,18.1c0.6,5.6,1.7,10.4,3.3,14.3c0.5,2.4,1.2,4.1,2,4.9c0.8,0.8,1.8,1.2,2.8,1.1c1-0.1,2.1-0.5,3.1-1.2
	c1.1-0.7,2-1.3,2.9-1.9c0.1-0.3,0.2-0.6,0.4-0.9c0.2-0.3,0.4-0.6,0.7-0.9c-0.1-0.5,0-1.2,0.2-2.1c0.2-0.9,0.5-2.1,0.7-3.6
	c0.5-3.3,1.2-6.1,2-8.5c0.8-2.3,1.5-4.8,2-7.4c0.4-1.9,1-4.2,1.8-7c0.9-2.8,1.8-5.7,2.9-8.5c1.1-2.9,2.3-5.5,3.5-7.8
	c1.3-2.4,2.5-4.1,3.7-5.1c1.1-0.9,2.1-0.3,3.2,1.6c1.1,2,2,4.8,2.7,8.4c0.7,3.6,1.1,7.7,1.3,12.3c0.2,4.6-0.2,9.1-1,13.5
	c-0.8,4.4-2.2,8.3-4.2,11.7c-2,3.4-4.7,5.8-8.2,7.1c-1.1,0.5-1.7,0.9-1.6,1.2c0.1,0.3,0.5,0.6,1.4,0.9c0.8,0.3,1.9,0.6,3.2,0.8
	c1.3,0.2,2.6,0.4,3.9,0.6c1.3,0.1,2.6,0.2,3.7,0.2c1.1,0,1.9,0,2.3-0.1c2.6,0,5.2-1,7.8-3c2.6-2.1,5.2-4.7,7.7-7.9
	c2.5-3.2,4.9-6.8,7.1-10.7c2.2-3.9,4.2-7.7,6-11.3c0.4-0.8,0.8-1.6,1.2-2.4c0,2.6,0.2,5.2,0.6,7.7c0.7,4.1,1.9,7.9,3.7,11.5
	c1.8,3.6,4,6.5,6.6,8.7c2.6,2.2,5.7,3.6,9.1,4.2c3.4,0.5,7.1-0.2,11.1-2.1c1.5-0.7,3.2-2.1,5.1-4.3c1.8-2.2,3.7-4.7,5.5-7.5
	c1.9-2.8,3.7-5.9,5.4-9.1c1.8-3.2,3.3-6.3,4.8-9.3c1.4-2.9,2.6-5.5,3.6-7.8c1-2.2,1.6-3.8,2-4.7c-0.2-0.1-0.6-0.2-1-0.4
	C155.8,234.9,155.3,234.7,154.8,234.6z M117.2,243.9c0.2-1.7,0.6-3.7,1-5.9c0.4-2.2,1-4.5,1.6-6.8c0.6-2.3,1.3-4.4,2.1-6.1
	c0.8-1.7,1.7-2.9,2.7-3.6c1-0.7,2.1-0.4,3.3,0.7c1.4,1.3,1.8,3.1,1.2,5.4c-0.6,2.3-1.6,4.6-3.1,7c-1.5,2.4-3.1,4.8-4.9,7.1
	c-1.8,2.3-3.2,4.1-4.2,5.3C116.9,246.7,117,245.6,117.2,243.9z M49.5,187.8c0.4-2.1,0.9-4.5,1.6-7.4c0.7-2.9,1.5-6,2.5-9.2
	c0.9-3.3,1.9-6.3,2.8-9.2c0.9-2.9,1.9-5.4,2.8-7.5c0.9-2.1,1.8-3.4,2.5-3.9c0.4,3.3,0.2,6.9-0.6,10.9c-0.8,3.9-1.9,7.7-3.3,11.5
	s-2.9,7.3-4.5,10.6c-1.6,3.3-3,6.1-4.1,8.2C49,191.1,49.1,189.9,49.5,187.8z M400.7,235c-0.4-0.2-0.9-0.3-1.4-0.4s-0.9-0.2-1.3-0.2
	c-0.4,0-0.6,0-0.7,0.1c-0.6,1-1.5,2.8-2.8,5.7c-1.3,2.8-2.8,6-4.5,9.5c-1.7,3.5-3.6,7.1-5.6,10.7c-2,3.6-4.1,6.8-6.2,9.4
	c-2.1,2.6-4.2,4.5-6.3,5.5c-2.1,1-4,0.7-5.8-0.9c-1-0.8-1.8-1.9-2.5-3.3c-0.7-1.3-1.3-2.8-1.7-4.3c-0.5-1.5-0.8-3.1-1-4.6
	c-0.2-1.5-0.3-2.9-0.3-4.1c-0.1-1.1-0.1-2-0.1-2.7c0-0.6,0-1.2,0.1-1.7c0.1-0.5,0.3-0.9,0.6-1.3c0.3-0.4,0.8-1,1.4-1.7
	c5.8-6.1,9.8-11.4,12.1-15.8c2.3-4.4,3.3-7.9,3.2-10.6c-0.1-2.7-1.1-4.7-2.9-5.8c-1.8-1.2-4-1.6-6.4-1.2c-5,0.8-9.2,2.5-12.5,5.1
	c-3.3,2.6-5.9,5.7-7.8,9.3c-0.1,0.2-0.2,0.3-0.2,0.5c-0.3-0.1-0.6-0.1-0.8-0.2c-0.3,0-0.5,0-0.6,0.1c-0.7,1-1.4,2.5-2.3,4.7
	c-0.9,2.2-1.9,4.7-3,7.6c-1.1,2.9-2.4,6-3.7,9.4c-1.4,3.4-2.9,6.7-4.5,10c-1.6,3.3-3.4,6.4-5.3,9.4c-1.9,3-3.9,5.5-6.1,7.7
	c-2.8,2.5-5,3.1-6.5,2.1c-1.6-1.1-2.7-3.4-3.3-7.1c-0.7-3.7-0.9-8.3-0.8-13.9c0.1-5.6,0.5-11.7,1.2-18.2c0.7-6.5,1.6-13.2,2.8-20.2
	c1.2-6.9,2.5-13.5,3.9-19.7c3.4,1.7,6.8,3,10.2,4.1c3.4,1,6.8,1.2,10.3,0.4c0.4-0.1,1.2-0.3,2.3-0.8c1.1-0.5,2.4-1,3.7-1.7
	c1.3-0.7,2.7-1.4,4-2.3c1.4-0.9,2.4-1.8,3.3-2.7c0.8-0.9,1.3-1.9,1.4-2.8c0.1-1-0.4-1.9-1.5-2.8c-0.6,0.2-1.2,0.5-1.8,0.9
	c-0.7,0.4-1.4,0.9-2.2,1.4c-2,1.2-3.7,2.2-5.2,3.2c-1.5,0.9-3.1,1.5-5,1.8c-1.9,0.3-4.1,0-6.8-0.7c-2.7-0.7-6.3-2.1-10.8-4.3
	c0.3-1,0.8-2.7,1.5-5c0.8-2.3,1.4-4.7,2-7.2c0.6-2.5,0.9-4.8,1.1-7c0.2-2.2-0.2-3.8-1.2-4.8c-1.4-1.2-2.6-1.8-3.9-1.6
	c-1.2,0.2-2.4,0.8-3.4,1.9c-1.1,1.1-2.1,2.5-3,4.1c-1,1.7-1.8,3.4-2.6,5.1c-0.8,1.7-1.5,3.4-2.1,4.9c-0.6,1.6-1.1,2.8-1.5,3.6
	c-3.5-1.2-6.8-1.8-10.2-1.9c-3.3-0.1-6.4,0.2-9.4,0.7c-2.9,0.6-5.5,1.5-7.9,2.6c-2.3,1.1-4.2,2.3-5.7,3.6c-1.5,1.3-2.4,2.5-2.8,3.8
	c-0.4,1.3-0.1,2.3,0.9,3.2c1.3-0.3,2.9-1.1,4.8-2.4c1.9-1.3,4.2-2.5,6.9-3.6c2.7-1.1,5.8-1.9,9.3-2.3c3.5-0.4,7.4,0.2,11.9,1.6
	c-1.5,5-2.8,10.5-3.7,16.5c-1,6-1.6,12.2-1.9,18.4c0,0.5,0,0.9-0.1,1.4c-0.1,0-0.2,0-0.3,0c-0.4,0-0.5,0-0.5,0.1
	c-5.8,10.6-10.4,18.7-14,24.3c-3.5,5.6-6.2,9.3-8.1,11.2c-1.9,1.9-3,2.2-3.5,1.1c-0.5-1.1-0.6-3.2-0.3-6.1c0.3-2.9,0.8-6.4,1.5-10.4
	c0.7-4,1.4-8,1.9-11.9c0.6-3.9,0.9-7.4,1-10.5c0.1-3.1-0.3-5.2-1.2-6.3c-2.2-1.9-4.3-2.8-6.3-2.6c-1.9,0.2-3.5,1.1-4.7,2.8
	c-1.2,1.7-2,3.9-2.4,6.6c-0.5,2.7-0.7,5.5-0.9,8.5c-0.1,3-0.2,5.8-0.1,8.5c0,2.7,0,4.9,0,6.6c-3,6.3-5.5,10.3-7.5,12.3
	c-2,1.9-3.5,2.4-4.7,1.4c-1.2-1-1.9-3.1-2.4-6.2c-0.4-3.2-0.7-6.7-0.7-10.5c-0.1-3.8,0.1-7.7,0.3-11.5c0.3-3.8,0.5-6.9,0.8-9.3
	c0.2-2.2,0.2-4.1-0.1-5.7c-0.3-1.6-0.9-2.8-1.8-3.4c-2.1-1.3-4-1.4-5.8-0.2c-1.8,1.2-3.3,3.3-4.6,6.1c-0.9,1.9-1.6,4.1-2.2,6.5
	c-0.3,0-0.6,0-0.8,0c-0.4,0-0.7,0.1-0.8,0.2c-1,1.8-2.1,4.1-3.3,6.7c-1.2,2.6-2.5,5.4-4,8.3c-1.4,2.9-3,5.9-4.6,8.8
	c-1.6,3-3.3,5.7-5.1,8.2c-1.7,2.5-3.6,4.7-5.5,6.5c-1.9,1.8-3.9,2.9-5.9,3.5c-2.1,0.4-3.8,0-5-1.2c-1.2-1.3-2-3.1-2.5-5.5
	c-0.4-2.4-0.6-5.2-0.4-8.3c0.2-3.2,0.6-6.4,1.3-9.8c0.7-3.4,1.6-6.7,2.7-9.8c1.1-3.2,2.3-6,3.7-8.4c1.3-2.4,2.8-4.3,4.3-5.6
	c1.5-1.3,3.1-1.8,4.7-1.4c0.4,0.7,0.5,1.4,0.4,2c-0.1,0.6-0.3,1.2-0.5,1.7c-0.2,0.5-0.2,1-0.1,1.3c0.1,0.4,0.5,0.6,1.3,0.7
	c1.3-1.8,1.9-3.4,1.8-4.8c-0.1-1.4-0.7-2.5-1.9-3.2c-1.2-0.8-2.7-1.3-4.6-1.6c-1.9-0.3-3.9-0.2-6.1,0.1c-2.2,0.4-4.3,1-6.6,2
	c-2.2,1-4.2,2.3-6,4c-2.3,2.5-4.2,5.4-5.6,8.8c-1.4,3.4-2.3,7-2.7,10.8s-0.4,7.5,0.2,11.2c0.6,3.7,1.7,7,3.3,10.1
	c1.6,3,3.8,5.5,6.5,7.5c2.7,2,6,3.1,9.8,3.3c2.8,0.2,5.6-0.6,8.2-2.4c2.7-1.8,5.2-4.2,7.6-7.1c2.4-2.9,4.6-6.2,6.7-9.8
	c2-3.6,3.9-7.1,5.6-10.5c0.6-1.2,1.2-2.4,1.7-3.6c-0.1,1.2-0.2,2.5-0.2,3.7c-0.2,4.3,0.1,8.4,0.6,12.5c0.6,4,1.6,7.4,3,10.2
	c1.4,2.8,3.3,4.8,5.5,6c2.3,1.2,5.1,1.1,8.3-0.3c1.3-0.7,2.7-1.8,4.1-3.2c1.4-1.4,2.7-3,4-4.6c1.2-1.6,2.3-3.2,3.2-4.7
	c0.9-1.5,1.5-2.6,1.9-3.4c0.5,5.8,1.3,9.9,2.6,12.5c1.3,2.6,2.8,4,4.7,4.1c1.8,0.2,3.8-0.6,6-2.3c2.2-1.7,4.5-4,6.8-6.9
	c2.3-2.9,4.6-6.1,6.8-9.7c2.2-3.6,4.3-7,6.3-10.5c1.8-3.1,3.3-6,4.7-8.7c0,3,0,5.9,0.2,8.9c0.3,6.2,0.8,11.8,1.7,17
	c0.9,5.2,2.1,9.6,3.6,13.5c1.5,3.8,3.3,6.6,5.4,8.2c2.1,1.7,4.5,2,7.3,1.2c2.8-0.9,5.8-3.5,9.2-7.7c3.4-4.3,7-10.4,11-18.4
	c2.1-4.3,4.3-9.2,6.6-14.8c0,2.3,0.2,4.5,0.6,6.7c0.7,4.1,1.9,7.9,3.7,11.5c1.8,3.6,4,6.5,6.6,8.7c2.6,2.2,5.7,3.6,9.1,4.2
	c3.4,0.5,7.1-0.2,11.1-2.1c1.5-0.7,3.2-2.1,5.1-4.3c1.8-2.2,3.7-4.7,5.5-7.5c1.9-2.8,3.7-5.9,5.4-9.1c1.8-3.2,3.3-6.3,4.8-9.3
	c1.4-2.9,2.6-5.5,3.6-7.8c1-2.2,1.6-3.8,2-4.7C401.4,235.3,401.1,235.2,400.7,235z M361.7,243.9c0.2-1.7,0.6-3.7,1-5.9
	c0.4-2.2,1-4.5,1.6-6.8c0.6-2.3,1.3-4.4,2.1-6.1c0.8-1.7,1.7-2.9,2.7-3.6c1-0.7,2.1-0.4,3.3,0.7c1.4,1.3,1.8,3.1,1.2,5.4
	c-0.6,2.3-1.6,4.6-3.1,7c-1.5,2.4-3.1,4.8-4.9,7.1c-1.8,2.3-3.2,4.1-4.2,5.3C361.3,246.7,361.4,245.6,361.7,243.9z"/>
<path d="M368.7,317.7c-0.3-0.1-0.5-0.2-0.7-0.2c-0.7,0-1.2,0.3-1.5,1c-2.3,4.8-6.5,11.5-12.5,20.1c-6.8,9.6-11.5,14.4-14.3,14.4
	c-0.7,0-1-1.1-1-3.3c0.1-4,1-10.3,2.7-18.8c1.6-8.4,3.8-18.2,6.5-29.4c2,0.5,3.8,1.1,5.5,2c0.3,0.1,0.5,0.2,0.7,0.2
	c0.7,0,1.2-0.3,1.6-1c0.1-0.3,0.2-0.5,0.2-0.7c0-1.4-2.4-2.7-7.1-3.8c1.2-4.8,1.8-7.3,1.8-7.5c0-0.4-0.1-0.7-0.4-0.9
	c-3.3-3.4-7.5-5.1-12.8-5.2c-0.7,0-1.2,0.4-1.5,1.2c-0.7,2.3-1.7,6.4-3.1,12.4c-2.5,0.6-4.8,1.6-7,2.8c-0.6,0.3-0.8,0.8-0.9,1.4
	c0,0.3,0.1,0.6,0.2,0.9c0.3,0.6,0.8,0.8,1.4,0.9c0.3,0,0.6-0.1,0.9-0.3c1.4-0.8,2.9-1.4,4.5-2c-1.2,5.7-2.1,11-2.9,15.9
	c-0.1,0-0.2,0-0.3,0c-0.7,0-1.3,0.3-1.6,1c-1.1,2.4-3.4,6.5-6.8,12.1c-2.8,4.8-6.1,9.7-10,14.8c-5.3,7.1-9.1,10.6-11.5,10.6
	c-0.5,0-0.7-0.8-0.7-2.2c0.1-3.2,1.2-9.9,3.6-20c2.2-9.6,4-16.8,5.5-21.6c0.7-2.2,1.1-3.7,1.1-4.4c0-1.3-1.5-2.7-4.7-4.3
	c-2.6-1.3-5.5-2-8.6-2c-0.8,0-1.3,0.4-1.6,1.2c-0.5,1.7-1.3,4.6-2.3,8.7c-1.2-1.9-2.8-3.5-4.8-4.7c-2-1.2-4.1-1.8-6.4-1.8
	c-4.8-0.1-8.7,2.6-11.8,8c-0.8,1.4-1.5,2.9-2.1,4.5c-0.1,0-0.2,0-0.3,0c-0.7,0-1.3,0.3-1.6,1c-2.5,5.1-6.1,10.9-11,17.5
	c-5.6,7.5-11,12.9-16,16.2c-2.7,1.8-5.3,2.7-7.6,2.6c-2.8,0-4.8-1.9-6.2-5.5c-1.2-3-1.7-6.4-1.6-10.3c0-1.2,0.1-2.5,0.2-3.9
	c3.7-0.3,6.9-1.3,9.5-3c2.6-1.7,4.7-3.8,6.2-6.3c1.5-2.5,2.4-4.7,2.7-6.5c0.3-1.8,0.4-3.1,0.4-3.8c0.1-5-1.5-8.8-4.8-11.5
	c-1.9-1.6-4.4-2.4-7.5-2.5c-3-0.1-5.6,0.9-7.9,2.9s-4.2,4.4-5.8,7.5c-1,1.9-1.8,3.9-2.5,5.9c-0.1,0-0.2,0-0.2,0
	c-0.7,0-1.3,0.3-1.6,1c-4.4,9.3-9.7,15.8-16,19.4c-3.6,2-7.8,3.1-12.5,3c2.7-5.1,4.1-10.9,4.2-17.4c0.1-5.2-0.6-9.8-2-13.8
	c-1.9-5.2-5.2-7.8-9.8-7.9c-2.4,0-4.5,0.6-6.5,1.8c-2,1.2-3.8,2.9-5.5,5c-1.6,2.1-3.1,4.5-4.3,7.1c0.6-2.8,1.3-5.7,2.1-8.5l0.1-0.4
	c0-0.4-0.2-0.8-0.5-1.2c-3.4-2.9-7.4-4.4-11.8-4.5l-1.3,0c-0.8,0.1-1.3,0.5-1.5,1.3c-1.2,5.1-2.1,10.1-2.9,15c-0.1,0-0.2,0-0.3,0
	c-0.7,0-1.3,0.3-1.6,1c-2.5,5.1-6.1,10.9-11,17.5c-5.6,7.5-11,12.9-16,16.2c-2.7,1.8-5.3,2.7-7.6,2.6c-2.8,0-4.8-1.9-6.2-5.5
	c-1.2-3-1.7-6.4-1.6-10.3c0-1.2,0.1-2.5,0.2-3.9c3.7-0.3,6.9-1.3,9.5-3c2.6-1.7,4.7-3.8,6.2-6.3c1.5-2.5,2.4-4.7,2.7-6.5
	c0.3-1.8,0.4-3.1,0.4-3.8c0.1-5-1.5-8.8-4.8-11.5c-1.9-1.6-4.4-2.4-7.5-2.5c-3-0.1-5.6,0.9-7.9,2.9c-2.3,2-4.2,4.4-5.8,7.5
	c-1,1.8-1.8,3.8-2.4,5.7c-0.1,0-0.2,0-0.3,0c-0.7,0-1.2,0.3-1.5,1c-2.1,4.3-4.8,8.7-8.1,13.3c-2,2.8-4.4,5.6-7.2,8.2
	c-3.5,3.4-6.6,5-9.3,5c-1.1,0-1.6-1-1.6-2.9c0-2.7,1-6.9,2.8-12.6c2.3-7.4,5.2-15.2,8.6-23.3c0.7-1.6,1-2.9,1-3.9
	c0-1-0.3-1.6-0.8-2.1c-1.1-0.8-3.3-1.3-6.6-1.4c-5.4-0.3-9.9-1.3-13.7-2.9c1-3.2,1.5-5.5,1.6-6.9c0.1-1.4,0.2-2.4,0.2-2.8
	c0.1-4.5-1.4-6.8-4.5-6.9c-1.7,0-3.2,0.7-4.6,2.2c-1.4,1.5-2.1,3.8-2.2,6.8c-0.1,5.6,1.4,9.4,4.6,11.2c-2.6,7.6-5,13.6-7.2,18.2
	c-0.1,0.3-0.2,0.5-0.2,0.7c0,0.7,0.3,1.2,1,1.5c0.3,0.2,0.5,0.2,0.7,0.2c1.4,0,4.3-6.3,8.8-19.1l0.7,0.2c3.2,1,4.8,2.6,4.8,5
	c0,0.8-0.2,1.9-0.6,3c-1.7,5.8-2.9,11.3-3.7,16.4c-0.8,5.1-1.3,9.2-1.3,12.1c0,2.8,0.2,5.4,0.6,7.8c0.8,4.1,3.1,6.2,6.9,6.3
	c4.7,0.1,9.9-2.8,15.8-8.6c5.3-5.2,9.6-10.8,13-16.7c0.1-0.2,0.3-0.4,0.4-0.7c-0.3,1.7-0.4,3.3-0.4,4.8c-0.1,5.9,0.6,10.9,2.2,15.2
	c1.6,4.3,3.7,7.6,6.5,10c2.8,2.4,5.9,3.6,9.4,3.6c3.5,0.1,6.8-0.9,10-2.8c3.2-1.9,6.2-4.4,9.1-7.5c2.9-3.1,5.7-6.4,8.4-10
	c4-5.3,7.2-10.3,9.7-14.9c-0.5,4-0.9,7.9-1.2,11.8c-0.2,3-0.3,5.9-0.4,8.7c-0.2,12.2,0.6,25.5,2.5,40c0.1,0.6,0.5,1,1.1,1.3
	c0.6,0.3,1.3,0.5,1.9,0.6c0.6,0.1,1.3,0.1,1.9,0.1c0.7,0,1.5-0.1,2.3-0.2c0.8-0.2,1.6-0.4,2.2-0.8c0.7-0.4,1-0.9,1-1.5
	c-0.4-6.5-0.5-13-0.4-19.4c0.2-12.5,1.2-22.7,3-30.5c1.4-6,3.2-11.4,5.5-16.2c2.9-6.1,6-9.1,9.1-9c1.5,0,2.7,1.7,3.5,5
	c0.8,3.3,1.2,7.2,1.1,11.5c-0.1,4.8-0.8,9.5-2.1,14c-2.6-0.6-5-0.9-7-0.9c-2.1,0-3.9,0.2-5.4,0.8c-2.8,1.1-4.3,2.2-4.6,3.4
	c-0.3,1.2-0.4,2.1-0.4,2.5c0,1.6,0.5,3,1.6,4.4c1.5,1.7,3.7,2.7,6.7,2.9c3,0.1,6.1-0.7,9.2-2.2c3.2-1.5,5.7-3.6,7.7-6.2l1.5,0.1
	c5.4,0.1,10-0.9,14-3.1c4-2.2,7.5-5.1,10.4-8.8c1.6-2,3-4.1,4.3-6.3c-0.2,1.5-0.3,2.9-0.4,4.3c-0.1,5.9,0.6,10.9,2.2,15.2
	c1.6,4.3,3.7,7.6,6.5,10c2.8,2.4,5.9,3.6,9.4,3.6c3.5,0.1,6.8-0.9,10-2.8c3.2-1.9,6.2-4.4,9.1-7.5c2.9-3.1,5.7-6.4,8.4-10
	c3.4-4.6,6.3-8.9,8.7-13c-0.2,1.4-0.3,2.8-0.3,4.2c-0.1,3.8,0.3,7.3,0.9,10.7c0.7,3.4,1.8,6.1,3.4,8.3c1.6,2.1,3.7,3.2,6.2,3.3
	c5.3,0.1,9.3-2.5,12.1-7.8c-0.1,5.8,0.5,9.9,1.9,12.5c0.9,1.6,1.9,2.8,3.1,3.6c1.2,0.8,2.8,1.2,4.7,1.2c3.7,0.1,8.5-3.6,14.3-10.9
	c3.8-4.8,8.1-11.1,12.8-19c2.1-3.4,3.7-6.2,4.9-8.3c-0.7,5.4-1,10.3-1.1,14.7c-0.1,5.4,0.2,9.9,1,13.3c1.1,5,3.7,7.5,7.6,7.6
	c3.2,0.1,6.3-1.3,9.3-4.2c1.3-1.2,2.5-2.5,3.6-3.9c5-6,9.9-12.8,14.6-20.4c4.4-7.1,6.6-11.1,6.6-12
	C369.7,318.5,369.3,318,368.7,317.7z M225.5,321.3c1.3-3.3,2.8-6.1,4.4-8.3c1.6-2.2,3.3-3.3,5-3.2c1.6,0,2.3,1.9,2.2,5.7
	c-0.1,4.8-1.8,8.8-5.1,12.1c-2.2,2.3-5.3,3.6-9.4,4.2C223.2,328.1,224.2,324.6,225.5,321.3z M101.3,321.3c1.3-3.3,2.8-6.1,4.4-8.3
	s3.3-3.3,5-3.2c1.6,0,2.3,1.9,2.2,5.7c-0.1,4.8-1.8,8.8-5.1,12.1c-2.2,2.3-5.3,3.6-9.4,4.2C99.1,328.1,100,324.6,101.3,321.3z
	 M166.8,347.5c-1.5,1-3,1.4-4.5,1.4c-1.4,0-2.4-0.4-3.1-1.3c-0.7-0.8-1.1-1.6-1-2.3c0-2.2,2.1-3.3,6.1-3.2c1.7,0,3.8,0.3,6.4,0.9
	C169.6,345.1,168.3,346.6,166.8,347.5z M289.2,320.9c-0.3,1.8-0.6,3.6-0.9,5.5c-0.7,3.9-1.3,6.8-1.9,8.6c-3,8.8-6.3,13.1-10,13.1
	c-0.8,0-1.6-0.5-2.1-1.4c-0.6-1-1-2.1-1.2-3.5c-0.2-1.4-0.3-2.8-0.3-4.3c0.1-6,0.8-10.9,2-14.7c1.2-3.8,2.7-6.6,4.5-8.3
	c1.7-1.8,3.4-2.7,5.1-2.6c1.1,0,2.2,0.6,3.3,1.7c0.5,0.5,1,1.1,1.3,1.7c0.3,0.7,0.5,1.4,0.5,2.2
	C289.4,319.4,289.4,320.2,289.2,320.9z M100.4,151c2.3,3.5,5,6.7,8,9.7c3,3,5.8,6.1,8.6,9.4c-2.2,1.7-4.4,3.4-6.4,5.2
	c-2,1.8-3.9,3.7-5.5,5.7c-1.6,2-3,4.2-4,6.5c-1.1,2.3-1.8,4.8-2.1,7.5c-0.2,2.2,0,4.2,0.7,6c0.6,1.7,1.7,3.1,3.3,4.1
	c0.9,0.7,2,1.2,3.2,1.6c1.2,0.4,2.4,0.6,3.7,0.6c2.8,0,5.7-0.6,8.7-2c3.7-1.7,6.8-4.1,9.2-7.3c2.8-3.5,4.5-7.7,4.9-12.4
	c0.5-5.8-0.7-11.4-3.6-16.7c-0.2-0.4-0.5-0.7-0.7-1.1c-0.2-0.4-0.5-0.7-0.8-1.1c1.9-1.3,3.7-2.7,5.4-4.2c1.7-1.4,3.4-2.9,4.9-4.5
	c1.3-1.3,2.4-2.6,3.4-4c-0.2,1-0.3,2-0.5,3c-0.6,3.7-1,7.2-1.4,10.6c-0.9,8.4-1.2,15.1-0.9,20c0.4,4.9,1.4,8.5,3.2,10.6
	c1.3,1.6,2.9,2.4,4.9,2.4l0.1,0c3.8,0.1,7.7-2.9,11.8-8.9c2.9-4.4,5.9-10.4,9.1-18.1c1.3-3.2,2.6-6.4,3.6-9.5c0-0.1,0-0.1,0.1-0.2
	c0.1,1.9,0.4,3.6,0.8,5.3c0.5,2.2,1.1,3.9,1.9,5.2c0.7,1.3,1.5,2.3,2.4,3c0.8,0.7,1.7,1.2,2.5,1.4c0.8,0.2,1.6,0.4,2.3,0.4
	c2.6,0,5.4-1,8.3-3.1c1.2-0.8,2.5-1.9,3.7-3.2c1.2-1.3,2.5-2.7,3.7-4.3c2-2.6,4.1-5.6,6.1-9c0.3-0.5,0.6-1.1,0.9-1.6
	c0,0.3,0,0.6,0,1c-0.1,3.8,0.2,7.1,0.9,10.2c0.5,2.2,1.1,3.9,1.9,5.2c0.7,1.3,1.5,2.3,2.4,3c0.8,0.7,1.7,1.2,2.5,1.4
	c0.8,0.2,1.6,0.4,2.3,0.4c2.6,0,5.4-1,8.3-3.1c1.2-0.8,2.5-1.9,3.7-3.2c1.2-1.3,2.5-2.7,3.7-4.3c2-2.6,4.1-5.6,6.1-9
	c1.1-1.9,2.3-3.9,3.4-6.1c0,2.3-0.1,4.8-0.3,7.7c-0.1,3.1-0.4,6.4-0.7,9.8c-0.3,3.4-0.7,6.9-1.2,10.5c-0.5,3.6-1.2,7-1.9,10.3
	c-0.7,0.1-1.5,0.2-2.2,0.4c-0.7,0.1-1.5,0.3-2.1,0.5c-2.4,0.6-4.4,1.4-6.2,2.4c-1.8,1-3.3,2.3-4.5,3.8c-2.3,2.7-3.8,5.5-4.7,8.6
	c-0.7,2.8-0.6,5.4,0.3,7.7c0.6,1.6,1.6,2.9,2.8,3.8c1.2,0.9,2.6,1.5,4.2,1.6c1.7,0.2,3.3-0.1,5-0.8c1.6-0.7,3.2-1.6,4.7-2.6
	c1.5-1.1,2.8-2.3,4-3.6c1.2-1.3,2.2-2.5,2.9-3.6c2.5-3.7,4.6-8.8,6.4-15.6c2.3-0.2,4.6-0.4,7.1-0.7c2.4-0.3,4.9-0.7,7.3-1.2
	c2.4-0.5,4.9-1.3,7.2-2.2c2.4-0.9,4.7-2.1,7-3.6c5.5-3.6,10-8.6,13.7-15c3.7-6.4,6.5-14.5,8.4-24.2c0.1-0.5,0-1-0.3-1.4
	c-0.3-0.4-0.7-0.7-1.2-0.9c-0.5-0.1-0.9,0-1.3,0.3c-0.4,0.3-0.7,0.7-0.8,1.2c-1.3,6.6-3,12.2-5,16.8c-2,4.6-4.2,8.6-6.6,11.7
	c-2.4,3.2-5,5.7-7.8,7.6c-2.8,1.9-5.7,3.4-8.7,4.5c-3,1.1-6.1,1.8-9.1,2.3c-3.1,0.4-6.1,0.8-9.2,1c0.5-2.8,1-5.9,1.5-9.1
	c0.5-3.3,0.9-6.7,1.2-10.4c0.3-3.8,0.6-7.3,0.7-10.6c1.4,4.1,3.1,7.4,5.2,10c2.7,3.5,5.9,5.3,9.5,5.3c4.1,0.1,7.3-2,9.6-6.2
	c2-3.8,3-8.7,3.1-14.6c0-2-0.1-3.8-0.4-5.3c-0.3-1.5-0.6-2.8-1.1-4c-0.4-1.1-0.9-2.1-1.5-2.9c-0.6-0.8-1.1-1.5-1.7-2
	c-2.3-2.2-5.1-3.1-8.4-2.8c-2.6,0.3-5,1.3-7.4,3.2c-2.3,1.9-4.4,4.5-6.2,7.9c-0.1-0.7-0.2-1.5-0.3-2.1c-0.1-0.7-0.2-1.4-0.3-2
	c-0.2-1.1-0.8-1.9-2-2.3c-1.2-0.4-2.5-0.5-3.8-0.4c-1.4,0.1-2.6,0.5-3.7,1c-1.1,0.5-1.6,1.2-1.6,1.9c0,0,0,0.2,0,0.4
	c-0.2,0.2-0.3,0.3-0.4,0.6c-4.3,8.5-8.3,15.3-12.1,20.2c-1.2,1.5-2.3,2.7-3.4,3.9c-1.1,1.1-2.2,2.1-3.2,2.9c-0.8,0.7-1.4,0.9-2,0.8
	c-0.6-0.1-1-0.4-1.5-1c-0.4-0.6-0.8-1.3-1-2.2c-0.3-0.9-0.5-1.8-0.7-2.7c-0.8-3.4-1-7.3-0.6-11.7c0.1-1,0.3-1.9,0.4-2.9
	c0.1-1,0.3-1.9,0.4-2.7c0.7,0,1.6-0.3,2.5-0.8c0.9-0.5,1.8-1,2.7-1.7c0.9-0.7,1.7-1.4,2.4-2.1c0.8-0.7,1.3-1.3,1.8-1.8
	c1.8-2.2,2.7-4.4,2.9-6.7c0.2-2.6-0.7-4.6-2.9-6c-1.2-0.8-2.6-1.2-4.3-1.2c-1.6,0-3.4,0.5-5.2,1.5c-1.4,0.7-2.7,1.7-3.7,3
	c-1.1,1.3-2,2.7-2.8,4.2c-0.8,1.5-1.4,3.1-1.9,4.6c-0.5,1.4-0.8,2.6-1.1,3.7c-4,7.9-7.9,14.3-11.4,18.9c-1.2,1.5-2.3,2.7-3.4,3.9
	c-1.1,1.1-2.2,2.1-3.2,2.9c-0.8,0.7-1.4,0.9-2,0.8c-0.6-0.1-1-0.4-1.5-1c-0.4-0.6-0.8-1.3-1-2.2c-0.3-0.9-0.5-1.8-0.7-2.7
	c-0.8-3.4-1-7.3-0.6-11.7c0.1-1,0.3-1.9,0.4-2.9c0.1-1,0.3-1.9,0.4-2.7c0.7,0,1.6-0.3,2.5-0.8c0.9-0.5,1.8-1,2.7-1.7
	c0.9-0.7,1.7-1.4,2.4-2.1c0.8-0.7,1.3-1.3,1.8-1.8c1.8-2.2,2.7-4.4,2.9-6.7c0.2-2.6-0.7-4.6-2.9-6c-1.2-0.8-2.6-1.2-4.3-1.2
	c-1.6,0-3.4,0.5-5.2,1.5c-1.4,0.7-2.7,1.7-3.7,3c-1.1,1.3-2,2.7-2.8,4.2c-0.8,1.5-1.4,3.1-1.9,4.6c-0.3,0.8-0.5,1.5-0.7,2.2
	c-0.1,0.1-0.2,0.3-0.2,0.5c0,0.1-0.2,0.8-0.6,2.3c-0.4,1.5-1,3.5-1.8,5.9c-0.8,2.4-1.7,5.2-2.7,8.2c-1.1,3.1-2.2,6.2-3.5,9.4
	c-1.5,3.7-3,7-4.4,9.9c-1.5,2.9-2.9,5.5-4.4,7.6c-1.2,1.8-2.2,3-2.9,3.6c-0.7,0.6-1.3,0.8-1.7,0.4c-0.4-0.4-0.7-1.2-0.9-2.6
	c-0.2-1.3-0.4-3.1-0.5-5.3c-0.1-2.3-0.1-5,0.1-7.9c0.1-2.9,0.4-6.2,0.9-9.8c0.4-3.3,0.8-6.8,1.4-10.4c0.6-3.6,1.2-7.2,1.8-10.8
	c0.6-3.6,1.3-7.2,2-10.7c0.7-3.5,1.3-6.8,1.9-10c0.7-3.7,1.4-7.1,1.9-10.2c0.5-3.1,1-5.8,1.4-8.2c0.3-1.5-0.1-2.5-1.2-3.1
	c-1.1-0.6-2.3-0.8-3.7-0.8c-1.4,0.1-2.7,0.4-4,0.9c-1.2,0.6-1.9,1.3-2.1,2.2c-0.3,2.3-0.8,5-1.4,8c-0.6,3-1.2,6.3-2,9.9
	c-0.6,3.3-1.3,6.6-1.9,10.2c-0.6,3.2-1.2,6.5-1.8,9.9c-0.1,0-0.2,0.1-0.4,0.1c-0.5,0.2-0.8,0.6-0.9,1c-1.4,3.5-3.5,6.6-6.4,9.3
	c-2.9,2.7-6.2,5.4-9.8,8.1c-1.3-1.7-2.7-3.3-4.1-4.8c-1.4-1.5-2.8-3.1-4.1-4.6c-1.4-1.5-2.7-3-3.9-4.6c-1.3-1.6-2.4-3.2-3.5-4.9
	c1.3-2.6,2.7-5.6,4.2-9c1.4-3.5,2.5-6.9,3.3-10.3c1.6-7.7,0.5-12.8-3.2-15.5c-3-2.3-6.3-2.8-10-1.3c-3,1.3-5.3,3.4-7,6.3
	c-1.7,2.9-2.7,5.8-3.1,8.8c-0.6,6-0.3,11.1,1,15.4C96.3,143.6,98.1,147.5,100.4,151z M231.8,202.5c-0.8,2-1.8,3.8-2.9,5.4
	c-0.8,1.2-1.7,2.4-2.7,3.6c-1,1.2-1.9,2.1-2.8,2.8c-0.9,0.7-1.7,1.1-2.5,1.2c-0.8,0.1-1.4-0.4-1.8-1.5c-0.5-1.4-0.6-3.2-0.2-5.4
	c0.4-2.2,1.7-4.6,3.9-7.2c1.4-1.6,3-2.8,4.9-3.6c1.9-0.8,4-1.5,6.4-1.9C233.4,198.2,232.6,200.4,231.8,202.5z M254.9,149.6
	c1-1.6,2.1-3.1,3.2-4.3c1.3-1.6,2.5-2.5,3.6-2.4c1,0,1.9,0.6,2.6,1.7c0.7,1.1,1.2,2.6,1.6,4.5c0.4,1.9,0.5,3.8,0.5,5.9
	c-0.1,4.2-0.7,7.8-1.8,10.8c-0.6,1.8-1.3,3.1-2.1,3.8c-0.7,0.7-1.4,0.9-2.1,0.7c-0.7-0.2-1.4-0.7-2.1-1.5c-0.7-0.8-1.4-1.8-2-2.9
	c-0.6-1.1-1.2-2.2-1.7-3.4c-0.5-1.2-0.9-2.3-1.3-3.3c-0.2-0.7-0.4-1.3-0.6-2c-0.2-0.6-0.3-1.3-0.5-2
	C253,153.1,253.9,151.2,254.9,149.6z M219.2,139.9c0.3-0.4,0.7-1,1.2-1.6c0.6-0.6,1.1-1.2,1.6-1.6c0.5-0.5,1-0.7,1.3-0.6
	c0.3,0,0.4,0.5,0.3,1.4c-0.1,1.2-0.7,2.5-1.7,4.1c-1.1,1.6-2.9,3.1-5.5,4.7C217.1,143.7,218.1,141.6,219.2,139.9z M186.5,139.9
	c0.3-0.4,0.7-1,1.2-1.6s1.1-1.2,1.6-1.6c0.5-0.5,1-0.7,1.3-0.6c0.3,0,0.4,0.5,0.3,1.4c-0.1,1.2-0.7,2.5-1.7,4.1
	c-1.1,1.6-2.9,3.1-5.5,4.7C184.5,143.7,185.4,141.6,186.5,139.9z M119,173.1c1,1.7,1.8,3.6,2.3,5.5c0.5,1.9,0.6,4.1,0.4,6.5
	c-0.2,2.5-0.8,4.8-1.7,7c-0.9,2.2-2.1,4.2-3.5,5.8c-1.4,1.6-2.9,2.9-4.6,3.8c-1.7,0.9-3.4,1.2-5.1,1c-1.7-0.3-2.8-1.1-3.4-2.5
	c-0.6-1.4-0.8-3-0.7-4.8c0.2-2.4,0.8-4.6,1.8-6.6c1-2,2.2-3.9,3.6-5.8c1.4-1.8,3.1-3.5,5-5.2C115,176.3,116.9,174.7,119,173.1z
	 M105.1,124.3c0.3-2.6,0.8-4.8,1.5-6.4c0.7-1.6,1.4-2.8,2.2-3.5c0.8-0.7,1.6-1,2.4-0.9c0.8,0.1,1.5,0.7,2.1,1.6
	c0.6,0.9,0.9,2.2,1,3.8c0.1,1.6,0,3.6-0.5,5.9c-0.5,2.8-1.4,5.6-2.5,8.4c-1.1,2.8-2.3,5.4-3.4,7.7c-1.1-2.4-1.9-4.9-2.4-7.6
	C104.8,130.6,104.7,127.6,105.1,124.3z M336.5,161.1c1.6,1.5,3.5,2.3,5.7,2.4c0.1,0,0.2,0,0.3,0c1.6-0.1,3-0.6,4.1-1.8
	c1.1-1.2,1.6-2.6,1.7-4.2c0.1-2-0.5-3.9-1.6-5.5c-0.7-1.1-1.7-2-2.8-2.8c-1.8-1.2-3.7-1.8-5.8-1.4c-1.4,0.2-2.7,0.9-3.6,2
	c-1.2,1.6-1.6,3.3-1.3,5.3C333.6,157.5,334.7,159.5,336.5,161.1z M337.6,151.5c0.7,0,1.3,0.6,1.3,1.4c0,0.8-0.6,1.4-1.3,1.4
	c-0.8,0-1.3-0.6-1.3-1.4C336.3,152.1,336.8,151.5,337.6,151.5z M317.4,149.2c-2.1,0.8-3.7,2.3-4.8,4.2c-1,1.7-1.5,3.5-1.3,5.5
	c0.2,1.6,0.9,3.1,2.1,4.1c1.1,0.9,2.4,1.4,3.9,1.4c0.2,0,0.4,0,0.6,0c0.2,0,0.4,0,0.6-0.1c2-0.3,3.7-1.3,5.1-2.7
	c0.8-0.8,1.4-1.7,1.9-2.7c0.9-1.8,1.2-3.7,0.7-5.7c-0.5-1.9-1.6-3.3-3.4-4.1C321,148.3,319.2,148.5,317.4,149.2z M322,152.4
	c0.7,0,1.3,0.6,1.3,1.4c0,0.8-0.6,1.4-1.3,1.4c-0.7,0-1.3-0.6-1.3-1.4C320.7,153,321.4,152.3,322,152.4z M306.1,144.1
	c-1.1-1.6-1.2-3.3-0.8-5.1c0.4-1.6,1.1-2.9,2.2-4.1c1.6-1.8,3.5-3.1,5.8-3.7c1.6-0.4,3.1-0.4,4.6,0.1c1.1,0.4,2,1.1,2.6,2
	c0,0,0,0.1,0.1,0.1c-0.2,0.1-0.5,0.2-0.7,0.4c-0.4,0.2-0.7,0.4-1.1,0.6c-0.3,0.1-0.6,0.3-0.9,0.4c-0.3,0.2-0.6,0.4-0.9,0.5
	c-0.3,0.2-0.5,0.3-0.8,0.5c-0.3,0.2-0.5,0.3-0.8,0.5c-0.3,0.2-0.6,0.4-0.9,0.6c-0.4,0.3-0.9,0.6-1.3,1c-0.6,0.5-1.2,0.9-1.7,1.5
	c-0.7,0.7-1.4,1.4-2,2.1c-0.3,0.3-0.6,0.7-0.9,1.1c-0.3,0.4-0.6,0.8-0.9,1.3c-0.2,0.3-0.4,0.6-0.7,1
	C306.7,144.8,306.4,144.5,306.1,144.1z M339.4,133.9c-0.2-0.1-0.3-0.1-0.5-0.2c0.7-1.1,1.7-1.9,2.9-2.3c1.8-0.6,3.7-0.4,5.4,0.2
	c1.7,0.6,3.1,1.6,4.3,2.8c1.3,1.4,2.3,3,2.7,4.8c0.3,1.6,0.2,3.1-0.6,4.5c-0.2,0.4-0.6,0.8-0.9,1.2c0,0.1-0.1,0.1-0.2,0.1
	c-0.2-0.4-0.4-0.7-0.7-1.1c-0.2-0.3-0.5-0.7-0.7-1c-0.3-0.4-0.5-0.7-0.8-1c-0.4-0.4-0.7-0.9-1.2-1.3c-0.5-0.5-1.1-1.1-1.7-1.6
	c-0.6-0.5-1.3-1-1.9-1.5c-0.6-0.4-1.2-0.9-1.8-1.3c-0.4-0.3-0.8-0.5-1.2-0.7c-0.4-0.2-0.8-0.5-1.2-0.7c-0.3-0.2-0.7-0.3-1-0.5
	C340.1,134.2,339.8,134,339.4,133.9z M326.7,162.5c0.5-0.5,1.2-0.7,1.9-0.9c1.4-0.3,2.7-0.2,4,0.3c0.4,0.1,0.7,0.4,1,0.6
	c0.7,0.5,0.7,1.3,0,1.9c-0.6,0.5-1.3,0.7-2,0.9c-0.2,0-0.4,0.1-0.6,0.1c-0.2,0-0.3,0.1-0.3,0.3c-0.1,0.5-0.2,1.1,0,1.6
	c0.3,0.8,0.9,1.3,1.7,1.6c1.4,0.5,2.6,0.1,3.6-1c0.2-0.2,0.3-0.5,0.5-0.8c0.2,0.1,0.4,0.2,0.6,0.4c0,0,0,0.2,0,0.3
	c-0.4,0.9-1.1,1.6-2,1.9c-1.6,0.7-3.5,0.3-4.6-0.9c-0.1-0.1-0.3-0.3-0.4-0.5c0,0-0.1,0.1-0.1,0.1c-0.9,1.2-2.2,1.6-3.6,1.5
	c-1.2-0.1-2.2-0.6-2.9-1.7c-0.1-0.2-0.2-0.4-0.3-0.6c-0.1-0.1,0-0.2,0.1-0.3c0.2-0.1,0.4-0.2,0.6-0.3c0.1,0.2,0.2,0.4,0.3,0.6
	c0.4,0.7,1.1,1.1,1.8,1.3c1.3,0.3,2.4,0.1,3.3-0.9c0.4-0.5,0.6-1,0.5-1.6c0-0.2-0.1-0.5-0.1-0.7c0-0.2-0.2-0.3-0.4-0.3
	c-0.6-0.1-1.2-0.2-1.8-0.5c-0.2-0.1-0.4-0.2-0.6-0.4C326,163.9,326,163.1,326.7,162.5z"/>
</svg>
