<?xml version="1.0" encoding="utf-8"?>
<!-- Generator: Adobe Illustrator 18.0.0, SVG Export Plug-In . SVG Version: 6.00 Build 0)  -->
<!DOCTYPE svg PUBLIC "-//W3C//DTD SVG 1.1//EN" "http://www.w3.org/Graphics/SVG/1.1/DTD/svg11.dtd">
<svg version="1.1" id="Layer_1" xmlns="http://www.w3.org/2000/svg" xmlns:xlink="http://www.w3.org/1999/xlink" x="0px" y="0px"
	 viewBox="0 0 432 432" enable-background="new 0 0 432 432" xml:space="preserve">
<path fill="#0F0F0F" d="M105.6,388.5c1.4,9-1.9,16.3-8.2,22.6c-4.3,4.3-9.7,7.4-15.7,9.5c-8,2.7-16.2,3.8-24.7,2.6
	c-0.5,0-1.2,0-1.9,0c-1.9,0-3.7-0.4-5.5-1.8c-0.9-0.7-2.3-1.1-3.3-1.6c-3-1.4-5.8-2.8-8.2-4.9c-0.7-0.5-1.4-1.2-2.1-1.9
	c-1-1.2-1.2-2,0.8-2.5c1.4-0.5,1.4-0.6,0.9-2c0,0,0-0.2,0-0.3c-1-3.4-0.4-4.9,2.6-7c0.9-0.7,1.8-1.1,2.7-1.6
	c2.1-1.3,4.1-2.8,5.6-4.8c0.7-0.7,1.1-0.8,2-0.1c3.2,2.1,6.7,3,10.4,3.9c2.8,0.6,5.8,0.6,8.7,0.5c1.8-0.1,3.4-0.6,4.8-1.4
	s2.5-1.8,2.7-3.5c0-0.7-0.2-1.4-0.9-1.9c-0.5-0.3-1.1-0.7-1.6-0.9c-5.6-3.5-11.2-6.8-16.6-10.2c-6.3-4-12.4-8.3-17.5-13.6
	c-4.2-4.6-7.4-9.9-8.6-16c-1.8-9,0.1-17.2,5.2-24.7C42.9,318,51.5,313,62.2,311c3.4-0.6,9.8-1,13.1-1.1c1.8,0.2,3.7,0.1,5.3,0.4
	c9,2,15.3,7.2,19.2,15c0.7,1.5,1.2,3.2,0.8,4.9c-0.4,1.5-1.1,2.8-2.4,3.8c-1.1,0.7-2.1,1.3-3.2,1.8c-3.8,2-7.7,3.1-11.8,4.2
	c-0.9,0.3-1.6,0.1-2.1-0.7c-2.3-2.7-5.4-4-9.1-4.2c-4.4-0.4-8.3,1-11.6,4c-1.6,1.5-2.2,3.3-1.3,5.5c0.3,1.2,0.8,2.2,1.5,3.2
	c2.2,3.2,5.4,5.5,8.5,7.9c6.5,5.2,13.6,9.5,20.8,13.7c3.9,2.3,7.2,4.8,10.1,8.1C103.1,380.7,104.8,384.2,105.6,388.5z M184,343.6
	c0.2,6.6-0.9,12.8-3.2,18.8c-0.7,1.8-1.3,3.7-2,5.5c-1.7,4.4-4.4,8-7.5,11.3c-6.5,7.1-14.4,12.1-23.6,15.4c-0.2,0.2-0.5,0.2-0.9,0.3
	c-1.4,0.6-3,0.8-3.8,2.5c-1.6,0.1-1.6,1.2-1.5,2.3c0,1.5,0.1,3,0.1,4.6c0.1,1.7,0.3,3.4,0.3,5.1c0.2,1.5-0.2,2.9-1,4.2
	c-0.7,1.8-1.7,3.5-2.6,5.2c-0.7,1-1.1,1.2-2.1,0.6c-1.2-0.5-2.3-0.5-3.5-0.4c-3.5,0.4-6.9,0.9-10.3,0.7c-1.1,0-1.9,0-2.8-0.2
	c-1.8-0.4-2.5-1.4-2.6-2.9c-0.2-0.7-0.2-1.2-0.1-1.9c-0.2-1.5-0.5-3.2-1.5-4.4c-0.7-1-0.8-2-0.8-3.2c0.1-4.6,0.2-9.1,0.2-13.7l0.2,0
	c0.1-4.6,0.2-8.9-0.1-13.5c-0.4-8.9-0.2-17.9,0.1-26.8c0.3-4.9,0.9-9.6,1.7-14.3c0.4-2.2,1.3-4.2,1.4-6.4c0-1.3,0.7-2.2,2.3-2.5
	c1.1-0.2,1.4-0.5,1.3-1.7c-0.5-2.7-0.4-5.4-0.4-8.1c0-1.3,0.2-2.7,0.6-4c0.2-0.5,0.4-1,0.6-1.5c0.5-1,1.4-1.7,2.7-1.6
	c4.2,0.1,8.3-0.7,12.6-0.1c1.4,0.2,3,0.2,4.4,0.2c7.4,0.5,14.5,1.9,21.3,4.6c4.8,1.8,9.3,4.2,13,7.8
	C181.4,330.6,184,336.7,184,343.6z M153.8,342.2c-2.3-2.1-5.1-3-8.3-3c-0.7,0-1.2,0.3-1.4,1c0,1-0.2,1.9-0.2,2.7
	c0,1.5-0.1,3-0.3,4.5c-0.6,3.7-0.5,7.2-0.9,10.9c0,2.4-0.1,4.6,0.1,6.9c0,1-0.6,2.4,0.3,2.9c1.2,0.5,2.1-0.6,2.9-1.5
	c3.2-2.5,5.4-5.8,7.2-9.3c1.3-2.7,2.6-5.7,3-8.7C156.7,346.2,155.9,343.9,153.8,342.2z M246.1,325.8c0-1.5,0.1-3.2,0.1-4.7
	c0-1.3-0.1-2.5-0.5-3.9c-0.5-1.4-1.2-2.5-2.4-3.4c-0.2-0.3-0.7-0.7-1.1-0.2c-0.7,1-2,1-3,0.8c-2.3-0.2-4.6-0.2-6.9-0.6
	c-6.4-0.8-12.7-1.7-18.9-2.7c-1.1,0-1.9-0.2-2.8-0.4c-1.2-0.4-1.8,1-2.9,1c-1.2,0-2.1,0.6-2.9,1.6c-3.4,4.5-6.9,9.2-10.3,13.8
	c-0.5,0.7-0.9,1.5-1.1,2.3c-0.4,1.8-0.8,3.7-1.3,5.5c-1.9,5.9-3,11.9-3.9,17.8c-0.6,5.2-1.2,10.4-1,14.1c-0.1,5.7-0.2,9.9,0.3,14.3
	c0.8,6.8,2.6,13.2,6,19.3c4.3,7.5,10.8,12.5,19.6,14.7c4.9,1.3,9.9,1.4,15,0.9c2.7-0.1,5.3-0.8,8-1.5c2-0.6,3.9-1.8,5.4-3.4
	c0.4-0.5,0.5-1,0-1.7c-0.3-0.5-0.3-1,0.4-1.5c0.4-0.2,0.7-0.3,1.1-0.7c0.7-0.5,0.7-0.8,0.2-1.3c-0.7-0.7-1.2-1.4-1.7-2.2
	c-0.8-2-1.9-3.9-2.7-6c-0.7-1.5-1.7-2.9-2.8-4.1c-2.6-2.7-5.6-4.5-10-3.2c-4.1,1.3-7.4-0.3-9.3-3.9c-2.1-3.7-2.5-7.8-2.1-12
	c0-0.8,0.7-1.3,1.6-1.5c0.7-0.2,1.6-0.3,2.5-0.5c3.5-0.4,7.3-0.9,10.8-1.2c2.3-0.1,4.3-0.8,6.1-2.3c1.3-1,2-2.2,1.8-3.8
	c-0.3-3.5-0.4-7.3-0.7-11c-0.2-1.4-0.5-2.7-0.8-4.1c0-0.5-0.3-0.8-0.9-0.4c-0.9,0.7-2,0.6-3,0.8c-4.4,0.4-8.9,1-13.3,2
	c-0.5,0.2-1.2,0.1-1.8,0.1c-0.7,0-1.2-0.5-1.2-1c0.2-0.7,0.2-1.2,0.4-1.8c0.9-2.9,1.9-5.7,2.6-8.6c0.4-1.5,1.3-2.2,2.9-2.3
	c0.9,0,1.6,0,2.5,0c2.7,0,5.5,0.1,8.1,0.1c2.1,0,4.4,0.1,6.5,0.1c1.6,0,3.2-0.5,4.6-0.9c1.4-0.5,2.3-1.3,2.5-2.7c0.2-1,0.4-2,0.6-3
	c0.2-0.8,0.2-1.7,0-2.5C246,328.8,246,327.3,246.1,325.8z M320.2,397.4c-2.4-5.3-5.9-9.5-10.2-13.5c-1.4-1-2.8-1.4-4.4-0.8
	c-1.1,0.3-2.3,0.8-3.5,0.3c-0.7-0.2-1.2,0.1-1.8,0.5c-0.7,0.5-1.4,1-2,1.5c-1.8,1.3-3.8,2.3-5.9,2.9c-3.4,1-5.8,0.2-7.7-2.7
	c-1-1.4-1.5-3.1-2-4.8c-0.7-3.2-1.1-6.6-1.1-10c0.1-5.1,0.2-9.9,0.8-15c0.6-5.9,1.3-11.6,2.3-17.5c0.6-4.5,1.4-9.1,2-13.6
	c0.2-1.7,0.4-3.5,0.4-5.4c0.2-0.5-0.3-0.8-0.9-0.9c-1.6,0.3-3,0.6-4.3,0.9c-1.8,0.5-3.2-0.1-4-1.4c-0.2-0.3-0.3-0.5-0.5-0.9
	c-1.2-2.5-3.5-3.3-6.1-3.3c-1.2,0-2.5,0.3-3.7,0.6c-1.1,0.5-2.3,1-3.6,0.8c-1.2,0-1.8,0.5-2.2,1.5c-1.3,2.7-2,5.5-3,8.4
	c-2.4,8.1-4.4,15.9-5.7,24.2c-1,7.1-2,14-2,21.6c-0.2,3.5-0.1,7.4,0.3,11.1c1,6.4,2.8,12.5,6.9,17.8c4,5.3,9.1,8.9,15.7,10.9
	c2.8,0.7,5.6,1.1,8.5,1.5c4.8,0.6,9.6,0.2,14.2-0.4c5.7-0.7,10.9-3,15.7-5.6c2.5-1.5,5-2.9,7.3-4.6c0.7-0.7,1.1-1.3,0.9-2.2
	C320.5,398.7,320.3,398.1,320.2,397.4z M396,399.4c-0.2-0.7-0.3-1.4-0.5-2c-2.4-5.3-5.9-9.5-10.2-13.5c-1.4-1-2.8-1.4-4.4-0.8
	c-1.1,0.3-2.3,0.8-3.5,0.3c-0.7-0.2-1.2,0.1-1.8,0.5c-0.7,0.5-1.4,1-2,1.5c-1.8,1.3-3.8,2.3-5.9,2.9c-3.4,1-5.8,0.2-7.7-2.7
	c-1-1.4-1.5-3.1-2-4.8c-0.7-3.2-1.1-6.6-1.1-10c0.1-5.1,0.2-9.9,0.8-15c0.6-5.9,1.3-11.6,2.3-17.5c0.6-4.5,1.4-9.1,2-13.6
	c0.2-1.7,0.4-3.5,0.4-5.4c0.2-0.5-0.3-0.8-0.9-0.9c-1.6,0.3-3,0.6-4.3,0.9c-1.8,0.5-3.2-0.1-4-1.4c-0.2-0.3-0.3-0.5-0.5-0.9
	c-1.2-2.5-3.5-3.3-6.1-3.3c-1.2,0-2.5,0.3-3.7,0.6c-1.1,0.5-2.3,1-3.6,0.8c-1.2,0-1.8,0.5-2.2,1.5c-1.3,2.7-2,5.5-3,8.4
	c-2.4,8.1-4.4,15.9-5.7,24.2c-1,7.1-2,14-2,21.6c-0.2,3.5-0.1,7.4,0.3,11.1c1,6.4,2.8,12.5,6.9,17.8c4,5.3,9.1,8.9,15.7,10.9
	c2.8,0.7,5.6,1.1,8.5,1.5c4.8,0.6,9.6,0.2,14.2-0.4c5.7-0.7,10.9-3,15.7-5.6c2.5-1.5,5-2.9,7.3-4.6
	C395.8,400.9,396.2,400.3,396,399.4z M36.4,152.6c2.8,4.6,6,8.7,9.9,12.2c3.1,2.9,6.7,4.8,10.7,5.8c0.2,0,0.3,0,0.4,0.2
	c0.1,0.2,0.3,0.2,0.4,0.3c0.4,0.5,1,0.8,1.6,0.9s1.2,0.2,1.8,0c1.1,0,2.3,0,3.3,0.2l3.5,0.1c12.2,0.1,21.2-5.3,27.2-15.9
	c2.3-4,3.9-8.4,4.9-13c1.5-5.5,2.2-11.5,2.3-17.9c0.2-3.3,0-6.8,0.6-41.7l-2.9-0.4c1.5-1.3,3.2-4.8-5.3-4.3l-4.5-1
	C78.7,80.2,74.4,82.9,77,89.1c1,3.6,2.3,33.7,2.1,37.7c0.1,3.8-0.4,7.7-1.4,11.4c-0.5,2.9-1.6,5.7-3,8.2c-1.1,1.8-2.8,3-4.7,3.5
	c-0.5,0.1-0.8,0.1-1.1,0.3c-0.5,0.1-0.8,0.4-1.1,0.7c-0.2,0.3-0.5,0.4-0.8,0.4c-0.3,0.1-0.6,0.1-1.1,0.1c-4.8-0.2-7.5-2.5-7.9-6.9
	c-1.3-2.3-2-4.9-2.1-7.6c-0.5-7.2,0.1-14.4,1.6-21.8c1.6-6.9,3.1-20.7,2.9-18.6c1.3-3.4-10.9-11.8-17.8-8.4c-3,1.6-9.6-1.4-9.9-0.6
	c-4.1,10-1.5,31.7-1.7,34.3c-0.4,3.8-0.4,7.7,0,11.4c0.4,3,0.8,6,1.2,8.9C33,146,34.5,149.4,36.4,152.6z M122.4,166.9
	c0.8-0.1,1.4-0.1,2.1,0.2c1.2,0.5,2.1,0,3-0.9c0.8-0.7,1.4-1.5,1.5-2.5c0.2-0.4,0.3-0.9,0.5-1.2c0.6-0.6,0.5-1.2,0.3-2
	c-0.3-1.2-0.4-2.4-0.4-3.8c0.1-3.6,0.9-7.2,1.4-10.8c0-0.3,0.2-0.4,0.5-0.4c0.3,0,0.6,0.2,0.7,0.3c0.3,0.5,0.6,1.1,1,1.5
	c2.9,4.4,6,8.8,9.4,13c2.2,2.7,4.6,5.3,7.5,7.5c4.2,3.2,8.8,4.1,13.8,2.9c6.5-1.4,10.9-5.2,13.9-11c1.4-3,2.4-6.1,3.2-9.4
	c0.3-1.6,0.4-3.5,0.8-5.3c0.7-3.4,0.3-7.1,0.8-10.5c0.2-0.6,0-1.1-0.1-1.7c0-0.9,0-1.8-0.1-2.7c0-9.6-0.1-19.3-0.1-29
	c0.1-4.8-0.3-9.8-0.9-14.6c-0.3-2.6-0.8-5.1-1.2-7.5c-0.4-1.8-0.9-2.1-2.5-2.3c-2,0-3.8-0.1-5.6-0.2c-2.1,0-4.1,0.2-6.2,0.6
	c-1.2,0.1-2.4,0.6-3.5,1.1c-1.5,0.9-2.4,2.1-2.5,3.9c0,0.9-0.2,2-0.2,2.9c-0.1,8.3-0.3,16.4-0.4,24.2c0.3,9.2-0.5,17.9-0.5,26.8
	c0,2.3-0.4,4.7-0.4,6.9c0,0.3-0.2,0.4-0.2,0.7c-0.2,0.1-0.3,0.3-0.5,0.3c-0.2,0-0.3,0-0.4-0.2c-0.1-0.3-0.3-0.6-0.6-0.9
	c-1.2-2.4-2.5-4.7-3.6-7.1c-5.8-12.1-11.9-24.3-17.1-36.7c-0.4-0.9-1-1.4-1.9-1.7c-1.2-0.3-2.1-0.8-3-1.7c-0.4-0.5-0.9-0.6-1.5-0.3
	c-1.5,0.6-2.9,0.3-4.4-0.2c-0.6-0.2-1-0.3-1.5-0.3c-1.6-0.5-3.1-0.7-4.7,0.2c-0.6,0.3-1.1,0.1-1.7,0.1c-1.1-0.2-1.7,0.3-2,1.2
	c-0.3,1.2-0.5,2.4-1,3.4c-0.6,1.3-1,2.8-1.4,4.2c-1.9,7.9-3,15.9-3.6,24c-0.4,5-0.6,9.9-1,14.9c0,0.3,0,0.6,0,0.8
	c-0.5,4.4-0.6,8.7-1.4,13.1c-0.2,0.6,0,1.2,0.1,1.8c0.6,2.1,1.3,4.2,1.2,6.5c0.1,0.9,0.6,1.5,1.5,1.7c0.9,0.3,1.8,0.3,2.5,0.9
	c0.9,0.8,1.9,0.8,3,0.4C117.6,167.1,120,167.2,122.4,166.9z M191.3,93.7c-0.4-1.1-0.4-1.5,0.3-2.3c4.3-4.3,8.9-8.4,14.3-11.2
	c9.4-5,19.2-5.7,29.2-2.7c11.7,3.5,20,11.2,25.5,21.7c3.5,6.7,5.5,13.8,6.3,21.2c0.5,6.3,0.2,12.8-2,18.9c-1.7,4.6-4.1,9-7.3,12.7
	c-6,6.7-13.1,11.7-21.6,14.7c-6.8,2.6-14.1,3.8-21.3,4.1c-2.4,0-4.7,0.1-6.9-0.1c-2.7-0.2-5.1-1-7.6-1.5c-1.1-0.2-1.8-0.8-2.2-1.7
	c-0.6-0.8-1-1.7-1.3-2.6c-0.9-2.3-1.3-4.5-1.5-6.8c-0.2-3.5-0.6-6.9-0.4-10.4c0-0.8,0-1.4,0-2.6c0.1-5.7,0.7-11.7,1.2-17.9
	c0.5-4.4,1.1-8.9,1.6-13.2c0.2-2.4,0.5-4.7,0.9-6.9c0.2-0.7,0.2-1.4,0.2-2.1c0.2-0.7-0.1-1.5-0.9-1.8c-0.9-0.3-1.5-1.1-2.1-2
	C194.2,98.7,192.7,96.1,191.3,93.7z M212.4,99.5c0,0.2,0.3,0.3,0.6,0.5c0.3,0,0.4,0.2,0.7,0.2c2,0,2.8,1.1,3,3.1
	c0,0.5,0.1,0.9,0.3,1.2c1.1,5,1.5,10.1,1.1,15.1c-0.3,2.7-0.5,5.4-0.6,8.1c-0.2,3.5-0.3,6.9-0.5,10.1c-0.1,3.8-0.1,7.4-0.2,11
	c0,0.6,0,1.2,0.1,1.8c0,0.5,0.3,0.8,0.9,0.8c0.5,0,1.1-0.1,1.5-0.3c2.3-0.7,4.7-1.3,7-2c3.5-1,6.8-2.4,10-4.2
	c4.9-2.8,8.1-6.8,9.5-12.3c1.1-4.3,1.2-8.7,0.4-13.2c-1-5.4-3.3-10.3-6.7-14.6c-4.4-5.9-10.5-8.6-17.8-8.6c-3.2,0.1-6.2,0.9-8.9,2.6
	C212.6,98.7,212.3,99,212.4,99.5z M320.3,90.1c0-1.4,0-2.9,0.1-4.2c0-1.2-0.1-2.3-0.4-3.5c-0.4-1.2-1-2.3-2.1-3
	c-0.1-0.3-0.6-0.6-0.9-0.2c-0.6,0.9-1.7,0.9-2.6,0.7c-2-0.2-3.9-0.2-5.9-0.6c-5.4-0.7-10.8-1.5-16.1-2.4c-0.9,0-1.7-0.2-2.4-0.3
	c-1-0.3-1.5,0.9-2.4,0.9c-1.1,0-1.8,0.6-2.4,1.5c-2.9,4-5.9,8.2-8.8,12.3c-0.5,0.6-0.8,1.3-0.9,2.1c-0.3,1.6-0.7,3.3-1.1,4.9
	c-1.6,5.2-2.6,10.6-3.3,15.9c-0.5,4.7-1.1,9.3-0.8,12.6c-0.1,5.1-0.2,8.9,0.2,12.8c0.6,6,2.2,11.8,5.1,17.2
	c3.6,6.7,9.1,11.1,16.6,13.1c4.2,1.1,8.4,1.2,12.8,0.8c2.3-0.1,4.5-0.7,6.8-1.4c1.7-0.6,3.3-1.6,4.6-3.1c0.3-0.4,0.5-0.9,0-1.5
	c-0.3-0.5-0.3-0.9,0.3-1.3c0.3-0.1,0.6-0.3,0.9-0.6c0.6-0.4,0.6-0.7,0.2-1.2c-0.6-0.6-1-1.2-1.5-2c-0.7-1.8-1.6-3.5-2.3-5.3
	c-0.6-1.4-1.5-2.6-2.3-3.7c-2.2-2.4-4.7-4-8.5-2.9c-3.5,1.1-6.3-0.3-7.9-3.4c-1.7-3.3-2.1-7-1.8-10.7c0-0.8,0.6-1.2,1.4-1.3
	c0.6-0.1,1.4-0.3,2.1-0.4c3-0.4,6.2-0.8,9.2-1c2-0.1,3.6-0.7,5.2-2c1.1-0.9,1.7-1.9,1.6-3.4c-0.2-3.2-0.3-6.5-0.6-9.8
	c-0.1-1.2-0.4-2.4-0.7-3.6c0-0.5-0.3-0.8-0.7-0.3c-0.8,0.6-1.7,0.6-2.6,0.7c-3.8,0.4-7.5,0.9-11.3,1.8c-0.5,0.1-1.1,0.1-1.5,0.1
	c-0.6,0-1-0.5-1-0.9c0.2-0.6,0.2-1.1,0.3-1.6c0.8-2.5,1.6-5.1,2.2-7.6c0.3-1.3,1.1-1.9,2.4-2.1c0.8,0,1.4,0,2.1,0
	c2.3,0,4.7,0.1,6.9,0.1c1.8,0,3.8,0.1,5.6,0.1c1.4,0,2.7-0.4,3.9-0.8c1.2-0.4,2-1.2,2.1-2.4c0.2-0.9,0.3-1.8,0.5-2.7
	c0.2-0.7,0.2-1.5,0-2.3C320.3,92.8,320.3,91.5,320.3,90.1z M327.4,96.3c-0.7-1.1-1.6-2-2.5-2.9c-0.3-0.5-0.6-0.8-0.9-1.2
	c-0.4-0.8-0.4-1.7,0.3-2.3c0.6-0.4,1.2-0.9,2-1.2c3.6-1.6,7.3-2.7,11.2-3.6c5.1-1.1,10.4-1.8,15.8-2.1c3.3-0.2,6.5-0.3,9.8-0.3
	c4.7-0.1,9.3,0.5,13.8,1.4c6.1,1.5,11.1,4.6,14.7,9.9c2.2,3.2,3.3,7,3.6,10.9c0.5,8.1-2.1,15.5-6,22.3c-3.1,5.5-7,10.4-11.7,14.5
	c-2,1.9-2,1.9,0.1,4.1c2.4,2.4,4.7,4.9,7.2,7.5c0.3,0.3,0.7,0.8,1.2,1.2c0.4,0.5,0.6,0.9,0.4,1.5c-0.3,2-0.5,3.9-0.9,5.9
	c-0.2,1.5-0.7,3.1-1.4,4.5c-1.2,2.2-3.1,3.6-5.6,4c-1.1,0-2,0-3-0.1c-1.4,0.1-2.6-0.3-3.7-1.1c-1.5-1.2-3.1-2.3-4.8-3.5
	c-4.5-3.7-9.7-6.2-14.9-8.5c-0.3-0.2-0.6-0.2-0.7-0.3c-0.5,0-0.9,0.3-1.1,0.7c0,0.5-0.2,0.9,0,1.4c0.1,1.1,0.3,2.1,0.5,3.2
	c0.4,2-0.4,3.6-1.7,4.9c-0.6,0.6-1.4,1.2-2.1,1.6c-0.5,0.4-1.1,0.7-1.7,0.3c-0.9-0.5-1.8-0.3-2.7-0.2c-1.8,0.3-3.8,0.5-5.7,1.1
	c-2.4,0.4-4.8,0.4-7.1,0.2c-2-0.3-2.2-0.8-2.2-2.7c0-1.4,0.2-2.7,0.1-3.9c-0.2-3,0.1-6,0.2-9c0.4-7.4,0.6-14.7,0.2-22.1
	c-0.2-5,0-9.9,0-15c-0.1-3.6,0.4-7.2,0.8-10.8c0-0.6,0.2-1.1,0.2-1.5C329.8,101.8,329.3,98.9,327.4,96.3z M351.2,127.2
	c0,0.6,0,1.4,0.1,2.1c0.1,0.6,0.6,0.9,1.2,0.8c0.6-0.3,1.1-0.4,1.7-0.7c5.6-2.8,10.2-6.7,13.9-11.8c1.2-1.6,2.2-3.4,2.7-5.4
	c0.3-1,0.5-1.9,0.5-2.9c-0.1-1.2-0.6-2.1-1.8-2.4c-1.8-0.6-3.7-1.3-5.7-1.3c-2.9,0-5.9-0.1-8.7,0c-0.6,0-1.1,0-1.7,0.1
	c-1.4,0.1-1.7,0.4-1.8,1.8c0,0.6,0,1.2,0,1.8c-0.1,3-0.1,5.9-0.2,8.9C351.3,121.1,351.3,124.2,351.2,127.2z"/>
<path fill="#96724B" d="M48.9,22.4c0.1-3.1,2.7-3,5.8-2.9c3,0.1,6.2,3.8,6.2,6.1C60.7,31.1,48.8,25.5,48.9,22.4z M57.7,45.1
	c0-2.6,0.5-6.3,0.5-8.5c0.1-3.1-7.6-5.6-7.7-2.9c0,1.5-0.7,4.1-0.9,11.2c-0.1,5.6,0.7,17.1,8.7,17.3c0.1,0,0.1,0,0.1,0
	C62.7,62.3,68,47.9,68.8,45c0.3-1-0.9-1.7-1.3-0.1c-0.5,1.6-5.1,12-7.6,13.3C58.8,55.8,57.6,51.7,57.7,45.1z M93,62.8
	c2,0,2.6-0.1,2.6-0.8c0.3-0.2,0.5-0.5,0.5-0.9c0.1-5.7,4.1-22.5,4.1-22.5s2.4,1,2.3,4c-0.1,3-2.2,15.8-2.4,24.6
	c-0.2,8.9,9.1,8.9,9.2,6.7c0-0.9-1.3-1.9-1.2-9c0.1-5.7,1.4-16.9,1.5-21.9c0.1-5-6.8-6.6-9-6.6c-1.8,0-5.8,14.1-7,20.7
	c-0.6-1.8-1-4.2-1-7.2c0.2-12.9,4.3-30,4.4-32.8c0-2.8-4.8-3.8-6.5-3.8c-2.5,0-1.8,2.4-1.8,3.3C88.6,19.5,79,62.6,93,62.8z
	 M138.2,65.5c0.4,0,0.8,0,1-0.2c3.3-1.1,7.1-10,9.5-16.7c2.6,9,7.4,13.9,10.7,14c0.4,0,0.7-0.1,0.8-0.3c1,0.5,1.9,0.5,2.2-0.3
	c0,0,5.5-11.1,8.4-21.3c2.9-10.2-3.6-14.1-4.1-12.3c-0.5,1.8,0.6,1.5-2,10.6c-1,3.7-4.8,11.2-6.7,15.6c-1.6-4.5-3.3-11-3.2-19.5
	c0.1-3.1-2.1-5.7-6.3-5.8c-2.4,0-1.6,2.3-1.7,3.5c-0.1,4.8,0.4,9,1.2,12.7c-2.3,6.1-6.2,15.9-7.1,15.9c-2,0-1.5-11.8-1.6-16
	c0-0.3,0-0.6,0-1c0-1.3-1.5-3-5.2-3.1c-3.7-0.1-3.7,2.1-3.7,3.4c-0.1,3.2-4.1,15.9-6,15.9c-1.8,0-2-3.7-2-6
	c0.2-11.3,5.7-22.1,11.7-22c2.3,0,2.6,5,2.6,6.4c0,1.3,2.2,0.7,2.2-0.2c0.2-9-4.3-9-10.6-9.1c-9.1-0.2-13.7,12.9-13.9,20.9
	c-0.1,8.5,3.7,11.8,8.6,11.9s7.3-9.2,7.8-9.2C131.3,53.4,132.5,65.4,138.2,65.5z M173.7,47c0.1-8,4.3-15.3,6.8-17.4
	c2.6-2.2,8.4-1.7,10.3-0.7c1.8,0.9,3.1,3.7,3.1,7.2c-0.1,6.4-3.2,9.8-7.2,9.7c-1.5,0-3.2-0.5-4.5-0.9c-0.6,6.1,3,12.3,6.4,12.4
	c7.8,0.1,10.8-11.7,11.1-12.8c0.5-1.2,1.7-0.7,1.2,0.6c-0.5,1.2-4.3,16.2-13.9,16C178.6,60.9,173.6,53.1,173.7,47z M182.4,43.5
	c7.7,3.4,9.2-10.1,6.1-10.1C185.2,33.3,183.1,38.2,182.4,43.5z M226.7,62.7c-4.9-0.1-9.8-3.4-9.6-12c0.1-8,4.8-21.2,13.9-21
	c3.4,0.1,5.5,0.1,6.7,1.5c1.4-9.2,3.2-18.9,3.2-19.2c0-0.5,0.1-1.5,1.3-1.5c1.2,0,6.6,2,6.6,4.2c0,2.2-4.8,16.1-5,29.7
	c-0.4,23.6,3.8,24.3,1,24.3c-7.9-0.1-8.9-13.2-9.3-13.2C234.8,55.5,231.6,62.8,226.7,62.7z M236.1,44.8c0-1.3,0.2-3,0.4-5
	c-1,0-2-0.2-2-0.8c0-1.4,1.5-6.3-0.7-6.3c-4.5-0.1-8.5,10.7-8.7,22c0,2.3,1.2,6,3,6C230,60.7,236,48,236.1,44.8z M310.4,68.8
	c-7.9-0.1-8.9-13.2-9.3-13.2c-0.5,0-3.7,7.2-8.6,7.2c-4.3-0.1-8.5-2.6-9.4-8.8c-2.2,5.4-5,10.7-7.5,11.5c-0.2,0.1-0.6,0.2-1,0.2
	c-5.8-0.1-7-12.1-7.4-12.1c-0.5,0-3,9.3-7.8,9.2s-8.7-3.4-8.6-11.9c0.1-8,4.8-21.1,13.9-20.9c6.3,0.1,10.8,0.2,10.6,9.1
	c0,0.9-2.2,1.6-2.2,0.2c0-1.4-0.3-6.4-2.6-6.4c-6-0.1-11.5,10.7-11.7,22c0,2.3,0.1,6,2,6c1.8,0,5.9-12.7,6-15.9
	c0-1.2,0.1-3.4,3.7-3.4c3.7,0.1,5.2,1.8,5.2,3.1c0,0.4,0,0.7,0,1c0.1,4.2-0.5,15.9,1.6,16c0.8,0,3.5-6.6,5.8-12.4
	c0.7-8.1,5.3-19.5,13.8-19.3c3.4,0.1,5.5,0.1,6.7,1.5c1.4-9.2,3.2-18.9,3.2-19.2c0-0.5,0.1-1.5,1.3-1.5c1.2,0,6.6,2,6.6,4.2
	c0,2.2-4.8,16.1-5,29.7C309,68.1,313.2,68.8,310.4,68.8z M302.2,39.8c-1,0-2-0.2-2-0.8c0-1.4,1.5-6.3-0.7-6.3
	c-4.5-0.1-8.5,10.7-8.7,22c0,2.3,1.2,6,3,6c1.8,0,7.9-12.7,7.9-15.9C301.9,43.5,302,41.8,302.2,39.8z M316.5,50.7
	c0.1-8,4.8-21.2,13.9-21c3.4,0.1,5.5,0.1,6.7,1.5c1.4-9.2,3.2-18.9,3.2-19.2c0-0.5,0.1-1.5,1.3-1.5c1.2,0,6.6,2,6.6,4.2
	c0,2.2-4.8,16.1-5,29.7c-0.4,23.6,3.8,24.3,1,24.3c-7.9-0.1-8.9-13.2-9.3-13.2c-0.5,0-3.7,7.2-8.6,7.2
	C321.2,62.6,316.4,59.3,316.5,50.7z M324.5,54.7c0,2.3,1.2,6,3,6c1.8,0,7.9-12.7,7.9-15.9c0-1.3,0.2-3,0.4-5c-1,0-2-0.2-2-0.8
	c0-1.4,1.5-6.3-0.7-6.3C328.6,32.6,324.7,43.4,324.5,54.7z M358.5,62.6c0.1,0,0.2-0.1,0.3-0.1c0.2-0.1,0.4-0.2,0.5-0.4
	c2.2-2,4.6-11.7,5.8-16.6c0,3.6,0,7.5-0.1,10.6c-0.2,13.1-8.8,19.5-12.2,19.1c-3.4-0.4-5.8-3.4-6-1.6c-0.2,1.8,2.4,4.8,7.1,5.5
	c9.4,1.2,18.4-11.9,18.7-26.7c0.2-8.8-0.2-13.6-0.2-15.8c0-2.3-3.2-4.2-6.4-4.2c-2.7,0-1,1.9-1,3.4c0,0.1,0,0.3,0,0.5
	c-0.1,3.6-5.3,18.8-6.7,22.8c-0.5-1.5-0.9-3.8-0.8-8.1c0.2-8.8,2.7-16,2.7-18.2c0-2.3-3.9-4.2-7.1-4.2c-2.7,0-1,1.9-1,3.4
	c0,2.1-1.8,12.7-1.9,19.4C350.1,60.1,356.2,62.8,358.5,62.6z M228.3,220.4c0.1-8.1-8.5-10.2-16.2-10.4c-7.7-0.1-18.5,36.4-20.2,36.4
	c-1.8,0,12.9-60.6-12.9-61c-13.1-0.2-23.1,47.6-26.6,66.4c-0.1-1.7-0.1-3.6,0-5.9c0.2-10.8,2-21,2.2-29.8c0.2-8.7-21-11.7-21.1-7.1
	c0,2.3,1.8,2.3,1.7,4.5c-0.3,15.6-4,57.3,16.8,57.6c3.8,0.1,3.6-1.3,2.7-5.4c5.1-17.5,12.6-72.5,21.3-72.3c5,0.1-3.8,45.1-4,58.6
	c-0.2,13.4,12.1,15.9,17,15.9c5,0.1,17.7-37.9,17.7-37.9s-1,40.9,18.7,41.3c6.3,0.1,0.4-6.8,0.8-28.6
	C226.1,232.9,228.2,225.4,228.3,220.4z M295.3,206c0.1-5.6-7.8-10.2-15.6-10.4c-6.6-0.1-2.5,4.6-2.6,8.2c0,0.3,0,0.8,0,1.2
	c-0.2,8.9-13,46.1-16.3,55.8c-1.1-3.6-2.1-9.2-1.9-19.7c0.4-21.5,6.6-39.3,6.6-44.7c0.1-5.6-9.6-10.3-17.4-10.4
	c-6.6-0.1-2.5,4.6-2.6,8.2c-0.1,5.1-4.5,31.2-4.7,47.6c-0.4,21.8,14.6,28.2,20.1,27.7c0.3,0,0.6-0.1,0.8-0.1
	c0.6-0.1,1.1-0.4,1.2-0.9c5.4-4.9,11.3-28.7,14.1-40.7c0,8.9,0,18.5-0.2,25.9c-0.6,32-21.6,47.8-29.9,46.7c-8.3-1-14.2-8.4-14.7-3.9
	c-0.5,4.5,6,11.8,17.5,13.4c23.1,3,45.2-29.2,45.8-65.4C296,223.2,295.2,211.4,295.3,206z M391.5,278.1c-5.7,6.4-12.1,8-18.3,10.1
	c-5.8,2-11.8,3.2-17.7,2.6c-9.8-1-19.8-2-29.3-8c-3.8-2.4-7.3-6.5-10.9-10.1c-1.3-1.3-1.2-1.7-2-8.8c4.3-3.8,9-0.1,13.3-2.4
	c2.6-30.4,5-60.5,17.7-79.5c4.2,1.9,7.3,3.3,10.6,4.8c3.1-1.4,6.3-2.8,9.7-4.3c7.5,3.7,10.3,17.3,13,30.8c2.9,14.6,5,29.8,6.2,45.6
	c0.1,0.8,0.4,1.5,0.8,3c3.8,0.3,7.9,0.5,12.1,0.8C396.9,272.3,394.1,275.2,391.5,278.1z M381.2,266.9c-0.1-4.6-0.2-7.8-0.3-12.2
	c-5.2,1.3-10.1,3.1-14.9,3.6c-7.3,0.6-14.6,0.8-21.8,0.2c-4.5-0.3-9-2.4-13.5-3.5c-0.5-0.1-1.1,0.7-1.6,1.2
	c-0.1,1.4-0.3,2.6-0.4,3.9c-0.1,1.7,0,3.4,0,7.6C346.4,274.9,363.6,276,381.2,266.9z M122.9,262.8c0.3,9.6-2.4,12.4-5.1,15.4
	c-5.7,6.4-12.1,8-18.3,10.1c-5.8,2-11.8,3.2-17.7,2.6c-9.8-1-19.8-2-29.3-8c-3.8-2.4-7.3-6.5-10.9-10.1c-1.3-1.3-1.2-1.7-2-8.8
	c4.3-3.8,9-0.1,13.3-2.4c2.6-30.4,5-60.5,17.7-79.5c4.2,1.9,7.3,3.3,10.6,4.8c3.1-1.4,6.3-2.8,9.7-4.3c7.5,3.7,10.3,17.3,13,30.8
	c2.9,14.6,5,29.8,6.2,45.6c0.1,0.8,0.4,1.5,0.8,3C114.7,262.2,118.8,262.5,122.9,262.8z M107.5,266.9c-0.1-4.6-0.2-7.8-0.3-12.2
	c-5.2,1.3-10.1,3.1-14.9,3.6c-7.3,0.6-14.6,0.8-21.8,0.2c-4.5-0.3-9-2.4-13.5-3.5c-0.5-0.1-1.1,0.7-1.6,1.2
	c-0.1,1.4-0.3,2.6-0.4,3.9c-0.1,1.7,0,3.4,0,7.6C72.7,274.9,90,276,107.5,266.9z"/>
</svg>
