<?xml version="1.0" encoding="utf-8"?>
<!-- Generator: Adobe Illustrator 18.0.0, SVG Export Plug-In . SVG Version: 6.00 Build 0)  -->
<!DOCTYPE svg PUBLIC "-//W3C//DTD SVG 1.1//EN" "http://www.w3.org/Graphics/SVG/1.1/DTD/svg11.dtd">
<svg version="1.1" id="Layer_1" xmlns="http://www.w3.org/2000/svg" xmlns:xlink="http://www.w3.org/1999/xlink" x="0px" y="0px"
	 viewBox="0 0 432 432" enable-background="new 0 0 432 432" xml:space="preserve">
<path fill="#B19A53" d="M82.3,199c1.1,2.5,1.7,5.6,1.7,9.3v85.9c0,6-2,9-6,9c-2,0-3.4-0.8-4.1-2.4c-0.7-1.6-1.1-3.8-1.1-6.6
	c0-24.5,0.2-43,0.7-55.4c0.2-6.3,0.4-11.1,0.4-14.3c0-1.4-0.2-2.1-0.7-2.1c-0.5,0-1,1.1-1.7,3.4c-5.1,17.3-11.4,34.7-18.8,52.1
	c-1.1,2.6-2.7,3.9-4.8,3.9c-2.3,0-4-1.4-5.2-4.2c-5-12.3-11.1-30.5-18.3-54.7c-0.7-2.5-1.3-3.8-1.7-3.8c-0.2,0-0.3,0.7-0.3,2.1
	c0,1.6,0,3,0.1,4.2c0.1,1.2,0.2,3.5,0.4,7.1c0.8,18.1,1.2,38,1.2,59.7c0,3.6-0.8,6.4-2.3,8.3c-1.5,1.9-3.8,2.8-6.7,2.8
	c-4.5,0-7.1-2-7.8-6.1c-0.3-1.8-0.4-3.6-0.4-5.6v-83.3c0-9.6,3.2-14.4,9.6-14.4c5.9,0,10.1,3.7,12.6,11c4.5,13.6,8.3,25,11.2,34.3
	c1.9,6.1,3.8,11.9,5.6,17.5c6.9-17.8,13.2-35.8,18.8-53.8c1-3.3,2.4-5.7,4.2-7c1.8-1.3,3.5-2,5.3-2C78,193.8,80.7,195.5,82.3,199z
	 M124.4,203.1c2.2-0.1,3.8-0.4,4.6-0.8c1.6-0.8,2.5-2.2,2.5-4c0-2.2-1.9-3.4-5.6-3.4H102c-3.7,0-5.6,1.1-5.6,3.4
	c0,1.8,0.8,3.2,2.5,4c0.8,0.4,2.2,0.7,4.4,0.8c1.5,0.1,2.2,0.9,2.2,2.5v85.6c0,0.8-0.3,1.5-0.8,1.8c-0.5,0.4-1.4,0.6-2.7,0.6
	c-3.7,0-5.6,1.5-5.6,4.6c0,2.4,1.7,3.7,5.2,3.7h23.6c3.7,0,5.6-1.1,5.6-3.4c0-1.8-0.8-3.1-2.4-4c-0.8-0.5-2.2-0.7-4.2-0.8
	c-1.2-0.1-1.8-0.7-1.8-1.9V205C122.4,203.8,123.1,203.2,124.4,203.1z M178.6,279.1c8,10.1,11.9,16.3,11.9,18.7c0,1.7-0.5,3.1-1.6,4
	c-1.1,0.9-2.5,1.4-4.3,1.4c-3.2,0-6.5-2.7-9.9-8.1c-3.7-5.6-8.2-12.9-13.5-21.9c-1-1.2-1.6-1.8-1.8-1.8c-0.4,0-0.6,0.8-0.6,2.5v17.5
	c0,7.8-3,11.7-8.9,11.7c-2.6,0-4.5-0.6-5.7-1.8c-1.1-1.2-1.9-2.7-2.1-4.6c-0.3-1.9-0.4-3.8-0.4-5.9V206c0-8.2,4.1-12.2,12.2-12.2
	c9.4,0,17.5,2.3,24.4,7c8,5.5,12,13.9,12,25.2c0,8.2-1.4,15.7-4.2,22.5c-3.4,8.2-8.5,14.4-15.4,18.8c-0.4,0.2-0.6,0.5-0.6,0.8
	c0,0.5,1.7,2.7,5,6.6C176.3,276.2,177.5,277.7,178.6,279.1z M168.4,256.7c3.2-3.7,5.6-8,7.2-12.9c1.9-5.6,2.8-11.3,2.8-17.1
	c0-4-0.6-7.6-1.8-11c-2.7-7.2-7.9-10.8-15.5-10.8c-1.6,0-2.5,0.8-2.5,2.3v52.4c0,1.6,0.7,2.5,2,2.5
	C162.6,262.2,165.2,260.4,168.4,256.7z M260.3,285.3c0.5,3.4,0.7,6.1,0.7,8.3c0,2.6-0.3,4.6-0.8,6c-0.9,2.4-2.7,3.6-5.4,3.6
	c-3.2,0-5.1-2.2-5.6-6.6c-0.7-6.1-1.4-12.4-2.2-18.8c-0.3-2.2-1.7-3.4-4.1-3.4h-19.6c-2.2,0-3.5,1.2-3.9,3.7
	c-0.2,1.5-0.5,3.8-0.9,6.8c-0.4,3-0.7,5.6-0.9,7.9c-0.8,6.9-4.3,10.4-10.5,10.4c-5.2,0-7.9-2.8-7.9-8.3c0-1.3,0.4-5.2,1.3-11.8
	c0.8-6.5,2.2-15.4,3.9-26.5c3-18.8,6.5-34.5,10.6-46.9c3.5-10.7,8.3-16,14.5-16c5.1,0,9.2,2.9,12.4,8.8c2,3.7,4,9.1,5.8,16.1
	C252.8,237.3,257,259.5,260.3,285.3z M244.7,262.6c0-0.5-0.7-5.3-2.1-14.5c-3.9-24.7-7-37.1-9.3-37.1c-1.6,0-4.5,12.3-8.9,36.8
	c-1.7,9.6-2.5,14.6-2.5,15c0,1.8,1,2.7,3,2.7h16.9C243.8,265.4,244.7,264.5,244.7,262.6z M314.8,241.1c0,2.1,0.4,3.6,1.1,4.6
	c0.7,1,1.9,1.4,3.5,1.4c2.4,0,4.1-2.1,5.1-6.3c0.6-2.7,0.9-7.1,0.9-13.2c0-9.6-1.6-17.4-4.8-23.3c-3.9-7-10.4-10.5-19.3-10.5
	c-6,0-11.1,1.2-15.1,3.7c-12.3,7.4-18.4,24.1-18.4,50.3c0,19.3,3.3,33.9,9.8,43.6c5.3,7.9,12.7,11.8,22.3,11.8
	c7.4,0,13.4-2.8,18.1-8.4c4.7-5.6,7-11.6,7-17.8c0-1.3-0.4-2.3-1.1-3s-1.6-1.1-2.7-1.1c-2.3,0-3.8,1.4-4.5,4.3
	c-2.3,10.1-7.2,15.2-14.7,15.2c-5.2,0-9.1-4.2-11.9-12.6c-3-9.1-4.5-20.8-4.5-35.3c0-7.1,0.5-13.6,1.6-19.4
	c2.6-14.3,8.2-21.4,16.9-21.4c4.4,0,7.6,2.8,9.7,8.3c1.5,3.7,2.2,8.3,2.2,13.7c0,3.7-0.2,6.8-0.6,9.6
	C315,237.3,314.8,239.3,314.8,241.1z M377.4,293.3c-0.9-0.6-1.9-0.8-3.2-0.8c-1.5,0-2.9,0.1-4.2,0.2c-1.3,0.2-4.2,0.2-8.6,0.2
	c-3.5,0-5.2-2.2-5.2-6.7v-80.8c0-3.6-0.7-6.3-2-8.4c-1.5-2.2-3.8-3.3-6.9-3.3c-3.2,0-5.5,1.1-6.7,3.2c-1,1.7-1.5,4.7-1.5,9v76.6
	c0,6.8,1.3,11.9,3.9,15.4c2.6,3.5,7.2,5.2,13.8,5.2c6.2,0,11.1-0.5,14.6-1.4c4.8-1.3,7.2-3.2,7.2-5.9
	C378.7,294.7,378.3,293.8,377.4,293.3z M423.9,293.3c-0.9-0.6-2-0.8-3.2-0.8c-1.8,0-3.6,0.1-5.4,0.2c-1.8,0.2-3.6,0.2-5.4,0.2
	c-5.8,0-9.6-1.4-11.7-4.3c-1.3-1.9-1.9-4.5-1.9-8v-3.2c0-2,1.1-3,3.4-3l14.5,0.2c1.7,0,3-0.4,3.9-1.2c0.9-0.8,1.4-1.8,1.4-2.9
	c0-2-0.7-3.4-2.1-4.2c-1.2-0.7-3-1.1-5.3-1.1c-2,0-3.9,0-5.9,0.1c-2,0.1-4,0.1-5.9,0.1c-1.3,0-2.3-0.3-3-0.9c-0.7-0.6-1-2-1-4.1
	v-49.9c0-3.7,1.7-5.6,5-5.6c1.8,0,3.6,0,5.4,0.1c1.8,0.1,3.6,0.1,5.4,0.1c2.5,0,4.3-0.5,5.6-1.5c1.2-1,1.8-2.1,1.8-3.2
	c0-3-1.9-4.8-5.8-5.3c-1.6-0.2-3-0.3-4.4-0.3h-19c-5.5,0-8.9,2.3-10.3,6.8c-0.6,2.2-0.9,4.8-0.9,7.8v59c0,4.5,0.2,8.9,0.6,13
	c0.8,9.1,4.4,15.4,10.8,18.8c3.6,1.9,8.5,2.8,14.9,2.8c7.3,0,12.5-0.6,15.5-1.9c3-1.3,4.5-3.1,4.5-5.4
	C425.2,294.7,424.8,293.8,423.9,293.3z M177.9,329.6c0,0.1,0,0.1,0,0.2c-0.2,0-0.4,0-0.6,0c-0.1-0.1-0.1-0.3-0.2-0.3
	c0,0,0.1,0,0.1,0c0-0.1,0-0.1,0-0.2c-0.1,0-0.1-0.1-0.1-0.1c0,0,0,0,0,0h0.2h0.1c0,0,0,0,0,0c0.1,0,0.1,0.1,0.2,0.1
	c0.1-0.1,0.2-0.1,0.3-0.1c0,0.1,0,0.2,0.1,0.2C177.9,329.5,177.9,329.5,177.9,329.6z M177.5,329.4c0,0-0.1,0-0.1-0.1l0,0.1
	C177.4,329.4,177.4,329.4,177.5,329.4z"/>
<path fill="#141414" d="M97.6,179.9c0.5,2.5,1.3,4.4,2.3,5.7c0.2,0.2,0.5,0.7,1.1,1.3c0.5,0.6,1.3,1.2,2.2,1.9
	c0.9,0.7,1.9,1.2,3.1,1.7c1.1,0.5,2.4,0.8,3.8,0.8c0.3,0,0.6,0,1,0c0.3,0,0.7-0.1,1.1-0.2c3.2-0.7,6.6-3.2,10.2-7.7
	c4.2-5.4,7.9-13.3,11.3-23.6c0.3-0.9,0.5-1.7,0.8-2.5c0.1,1,0.2,1.9,0.3,2.9c0.4,2.2,1,4.5,1.9,6.9c0.9,2.2,2.2,4,3.8,5.5
	c1.6,1.5,3.3,2.7,5.1,3.5c0.3,0.2,0.8,0.4,1.3,0.6c0.6,0.2,1.2,0.4,2,0.5c0.8,0.3,1.6,0.2,2.5-0.1c2.7-0.7,6.1-3.3,10.2-7.8
	c1.6-1.9,3.3-4,4.9-6.3c1.6-2.3,3.3-4.6,4.9-7c1.1-1.6,2.1-3.2,3.1-4.7c0,0.6,0.1,1.2,0.1,1.7c0.4,5.2,1.3,9.8,2.7,14
	c1.1,3.2,2,5.5,2.8,6.9c0.8,1.4,1.5,2.3,2.2,2.8c0.4,0.3,0.9,0.8,1.7,1.3c0.7,0.5,1.5,1.1,2.4,1.6c0.9,0.5,1.8,1,2.9,1.4
	c1.1,0.4,2.2,0.6,3.3,0.6c0.2,0,0.5,0,0.8,0c0.3,0,0.5,0,0.8-0.1c3-0.5,5.3-2.6,6.9-6.2c0.8-1.9,1.9-4.2,3.2-7
	c1.3-2.8,2.6-5.7,4-8.7c1.4-3,2.8-6,4.2-9c0.9-2,1.8-3.8,2.6-5.5c0.1,2.7,0.2,5.4,0.4,8c0.4,5.2,1.3,9.8,2.7,14
	c1.1,3.2,2,5.5,2.8,6.9c0.8,1.4,1.5,2.3,2.2,2.8c0.4,0.3,0.9,0.8,1.7,1.3c0.7,0.5,1.5,1.1,2.4,1.6c0.9,0.5,1.8,1,2.9,1.4
	c1.1,0.4,2.2,0.6,3.3,0.6c0.2,0,0.5,0,0.8,0c0.3,0,0.5,0,0.8-0.1c3-0.5,5.3-2.6,6.9-6.2c0.8-1.9,1.9-4.2,3.2-7
	c1.3-2.8,2.6-5.7,4-8.7c1.4-3,2.8-6,4.2-9c0.7-1.5,1.4-3,2-4.3c-0.1,3-0.1,5.8-0.1,8.6c0,6.2,0.2,11.5,0.4,15.9
	c0.3,4.4,0.6,7.5,1,9.2c0.5,2.5,1.3,4.4,2.3,5.7c0.2,0.2,0.5,0.7,1.1,1.3c0.5,0.6,1.3,1.2,2.2,1.9c0.9,0.7,1.9,1.2,3.1,1.7
	c1.1,0.5,2.4,0.8,3.8,0.8c0.3,0,0.6,0,1,0c0.3,0,0.7-0.1,1.1-0.2c3.2-0.7,6.6-3.2,10.2-7.7c4.2-5.4,7.9-13.3,11.3-23.6
	c0.2-0.7,0.4-1.4,0.6-2.1c0,2,0.2,4.1,0.5,6c0.1,1,0.7,2.2,1.7,3.3c1,1.2,2.2,2.3,3.5,3.3c1.3,1,2.7,1.9,4.1,2.5
	c1.4,0.7,2.6,0.9,3.6,0.8l0.1,0l0.2,0c0.3,0,0.6,0,0.8,0c0.2,0,0.5-0.1,0.8-0.2c2.8-0.5,6.2-3.1,10.3-7.8c2.4-2.8,4.9-5.7,7.6-8.9
	c2.7-3.1,5.2-6.1,7.5-8.7c2.3-2.7,4.2-4.9,5.7-6.7c1.5-1.8,2.3-2.7,2.3-2.8c0.3-0.4,0.5-0.8,0.4-1.3c0-0.5-0.2-0.9-0.6-1.2
	c-0.4-0.4-0.8-0.6-1.4-0.5c-0.5,0.1-0.9,0.3-1.3,0.7c-3.1,3.5-5.8,6.6-8.1,9.3c-2.3,2.7-4.8,5.6-7.5,8.7c-2.7,3.1-5.2,6.1-7.6,8.9
	c-3.4,4.2-6.1,6.4-8.1,6.7c-0.2,0.1-0.4,0.1-0.7,0.1c0-0.8,0-1.6-0.1-2.5c-0.1-0.9-0.1-1.7-0.2-2.5c-0.1-0.8-0.1-1.5-0.2-2
	c-0.1-0.6-0.1-0.9-0.1-1.1c0.4-6.9,0.8-12.6,1.4-17.3c0.6-0.1,1.7-0.5,3.1-1.1c1.4-0.6,2.9-1.5,4.5-2.6c5.4-3.8,7.9-8.3,7.4-13.4
	l-0.1-0.1c0-0.2,0-0.4-0.1-0.5c-0.2-0.5-0.5-1.1-0.9-1.9c-0.5-0.8-1.2-1.6-2.1-2.5c-0.9-0.9-2.1-1.6-3.6-2.2c-1.5-0.6-3.3-1-5.4-1.2
	c-0.6,0-1.5,0.2-2.8,0.7c-1.3,0.5-2.8,1.2-4.3,2.3c-1.5,1.1-3,2.6-4.3,4.5s-2.3,4.2-2.8,6.9c-0.4,1.8-0.9,3.9-1.4,6.3
	c-0.3,1.4-0.5,2.9-0.8,4.4c-0.5,0-0.9,0.1-1.3,0.3c-0.4,0.3-0.7,0.7-0.7,1.2c0,0.1-0.3,1.4-0.9,3.9c-0.6,2.5-1.5,5.7-2.6,9.4
	c-1.1,3.7-2.6,7.6-4.3,11.7c-1.7,4.1-3.8,7.7-6.3,10.7c-2.5,3.2-4.8,5.3-6.9,6.1c-0.3-0.5-0.6-1.1-0.8-1.9c-0.2-0.8-0.4-1.5-0.6-2.3
	c-0.1-0.8-0.3-1.5-0.4-2.2c-0.1-0.6-0.2-1.2-0.2-1.6c-0.1-1-0.4-3.2-0.7-6.5c-0.3-3.3-0.6-7.3-0.7-12.2c-0.2-4.8-0.3-10.3-0.2-16.3
	c0.1-6,0.4-12.3,1-18.8c0.7-0.6,1.5-1.3,2.3-2c0.8-0.7,1.7-1.5,2.6-2.5c3.2-3.3,6.3-7.1,9.1-11.5c1.7-2.7,3.3-5.5,4.8-8.4
	c1.4-2.9,2.8-6,3.9-9.3c1.7-4.4,2.7-8.2,3.1-11.4c0.4-3.1,0.5-5.8,0.1-8c-0.3-2.2-0.9-3.9-1.7-5.1c-0.8-1.3-1.6-2.2-2.4-2.9
	c-2-1.6-4.4-2.2-7.3-2c-1.8,0.1-3.6,0.6-5.4,1.3c-0.9,0.1-1.9,0.7-3.1,1.8c-1.2,1.1-2.7,3.2-4.6,6.6c-3.1,5.5-5.5,11.7-7.5,18.7
	c-1.9,7-3.4,14.2-4.6,21.6c-1.1,7.4-1.9,14.8-2.4,22.1c0,0.8-0.1,1.6-0.1,2.4c-0.6,1.2-1.2,2.5-1.9,4c-1.2,2.4-2.4,5.1-3.8,8.1
	c-1.4,3-2.8,6-4.2,9c-1.4,3-2.8,5.9-4,8.7c-1.3,2.8-2.3,5.1-3.2,7c-0.7,1.3-1.4,2.4-2.2,3.1c-0.5,0-1-0.2-1.4-0.7
	c-0.5-0.4-0.9-1-1.3-1.6c-0.5-0.6-0.9-1.4-1.3-2.3c-2.1-5.5-3.6-11.3-4.3-17.2c-0.7-5.9-1-11.8-0.9-17.5c0.1-5.7,0.6-11.3,1.5-16.6
	c0.9-5.3,1.8-10.1,2.8-14.5c1.3,0,2.5,0,3.8,0c1.2,0,2.5-0.1,3.8-0.1c7.8-0.4,13.1-2,15.9-4.6c0.7-0.9,0.7-1.8-0.1-2.6
	c-0.9-0.9-1.7-0.9-2.6,0c-0.7,0.7-1.9,1.4-3.9,2.1c-1.9,0.7-5.1,1.2-9.6,1.5c-1,0.1-2.1,0.1-3.1,0.1c-1,0-2.1,0-3.1,0
	c0.9-3.8,1.9-7,2.7-9.7c0.9-2.6,1.5-4.4,2-5.5c0.9-2.4,1.1-4.3,0.6-5.6c-0.5-1.4-1.3-2.4-2.3-3s-2.2-0.9-3.5-1
	c-1.3,0-2.2,0.1-2.8,0.4c-0.7,0.4-1.5,1-2.2,1.9c-0.7,0.9-1.4,2-2.1,3.4c-0.7,1.5-1.5,3.9-2.4,7.1c-0.9,3.2-1.9,7-2.8,11.4
	c-1.6-0.1-3-0.2-4.2-0.2c-0.6,0-1.2,0-1.7,0c0.1-0.1,0.3-0.2,0.4-0.4c0.7-0.9,0.7-1.8-0.1-2.6c-0.9-0.9-1.7-0.9-2.6,0
	c-0.7,0.7-1.9,1.4-3.9,2.1c-1.9,0.7-5.1,1.2-9.6,1.5c-1,0.1-2.1,0.1-3.1,0.1c-1,0-2.1,0-3.1,0c0.9-3.8,1.9-7,2.7-9.7
	c0.9-2.6,1.5-4.4,2-5.5c0.9-2.4,1.1-4.3,0.6-5.6c-0.5-1.4-1.3-2.4-2.3-3c-1.1-0.6-2.2-0.9-3.5-1c-1.3,0-2.2,0.1-2.8,0.4
	c-0.7,0.4-1.5,1-2.2,1.9c-0.7,0.9-1.4,2-2.1,3.4c-0.7,1.5-1.5,3.9-2.4,7.1c-0.9,3.2-1.9,7-2.8,11.4c-1.6-0.1-3-0.2-4.2-0.2
	c-1.2,0-2.3,0-3.2-0.1c-3,0.2-5.2,1.1-6.5,2.8c-0.9,1.1-1.4,2.2-1.5,3.2c-0.1,1-0.1,1.6-0.2,1.8c0.3,1,0.9,1.6,1.9,1.6l0.2,0
	c0.5-0.1,0.9-0.3,1.2-0.7c0.3-0.4,0.5-0.9,0.4-1.4c-0.1-0.2-0.1-0.4,0-0.7c0-0.4,0.2-0.9,0.6-1.4c0.7-0.8,2.1-1.2,4-1.4
	c0.6,0,1.5,0,2.7,0c1.2,0,2.4,0.1,3.8,0.2c-0.9,4.7-1.7,9.7-2.4,15.1c-0.7,5.3-1.1,10.7-1.4,16.1c-0.1,2.5-0.1,5.1-0.1,7.6
	c-0.4,0.7-0.9,1.4-1.3,2.2c-2,3.3-4.3,6.7-6.8,10.4c-2.5,3.6-4.9,6.8-7.3,9.6c-2.9,3.4-5.3,5.5-7.2,6.3c-0.9-0.7-1.6-1.6-2.3-2.6
	c-0.7-1-1.1-2.1-1.2-3.4c-0.1-1.6-0.2-4-0.1-7.1c0.1-3.1,0.3-6.4,0.7-9.9c0.4-3.5,0.9-6.8,1.5-10.1c0.6-3.3,1.4-5.8,2.4-7.7
	c-0.4-0.9-0.9-1.7-1.6-2.4c-0.6-0.6-1.4-1.2-2.4-1.8c-1-0.5-2.2-0.8-3.8-0.8c-0.6,0-1.2,0-1.9,0c-0.7,0-1.5,0.3-2.2,0.9
	c-0.8,0.6-1.5,1.6-2.3,3c-0.7,1.4-1.4,3.4-1.9,6.1c-0.5,2.3-1,4.5-1.3,6.5c-0.4,0-0.7,0.1-1,0.4c-0.4,0.3-0.7,0.7-0.7,1.2
	c0,0.1-0.3,1.4-0.9,3.9c-0.6,2.5-1.5,5.7-2.6,9.4c-1.1,3.7-2.6,7.6-4.3,11.7c-1.7,4.1-3.8,7.7-6.3,10.7c-2.5,3.2-4.8,5.3-6.9,6.1
	c-0.3-0.5-0.6-1.1-0.8-1.9c-0.2-0.8-0.4-1.5-0.6-2.3c-0.1-0.8-0.3-1.5-0.4-2.2c-0.1-0.6-0.2-1.2-0.2-1.6c-0.1-1-0.4-3.2-0.7-6.5
	c-0.3-3.3-0.6-7.3-0.7-12.2c-0.2-4.8-0.3-10.3-0.2-16.3c0.1-6,0.4-12.3,1-18.8c0.7-0.6,1.5-1.3,2.3-2c0.8-0.7,1.7-1.5,2.6-2.5
	c3.2-3.3,6.3-7.1,9.1-11.5c1.7-2.7,3.3-5.5,4.8-8.4c1.4-2.9,2.8-6,3.9-9.3c1.7-4.4,2.7-8.2,3.1-11.4c0.4-3.1,0.5-5.8,0.1-8
	c-0.3-2.2-0.9-3.9-1.7-5.1c-0.8-1.3-1.6-2.2-2.4-2.9c-2-1.6-4.4-2.2-7.3-2c-1.8,0.1-3.6,0.6-5.4,1.3c-0.9,0.1-1.9,0.7-3.1,1.8
	c-1.2,1.1-2.7,3.2-4.6,6.6c-3.1,5.5-5.5,11.7-7.5,18.7c-1.9,7-3.4,14.2-4.6,21.6c-1.1,7.4-1.9,14.8-2.4,22.1
	c-0.4,7.3-0.7,14.1-0.7,20.3c0,6.2,0.2,11.5,0.4,15.9C96.9,175.2,97.2,178.2,97.6,179.9z M313,127.3c0.1-0.2,0.3-0.5,0.6-0.9
	c0.3-0.5,0.8-0.8,1.3-1.1c0.5-0.2,1.1-0.3,1.9-0.1c0.7,0.2,1.5,0.8,2.5,2l0,0.5c0.2,1.7-0.1,3.2-0.8,4.5c-0.7,1.3-1.7,2.5-2.8,3.6
	c-1.1,1.1-2.4,1.9-3.6,2.6c-1.3,0.7-2.4,1.3-3.4,1.7C309.6,134.9,311.1,130.6,313,127.3z M274.4,93.6c2.5-8.7,6-16.3,10.6-23.1
	c0.3-0.4,0.7-0.8,1-1.2c0.3-0.3,0.7-0.6,1-1c0.4-0.4,0.7-0.6,1.2-0.9c1.7,1.5,2.7,3.9,2.9,7.1c0.2,4.4-0.9,9.7-3.3,15.9
	c-2.5,6.9-5.4,12.6-8.5,17.2c-3.2,4.5-5.9,8.1-8.4,10.6c-0.3,0.3-0.6,0.6-0.9,0.9c-0.3,0.3-0.5,0.6-0.8,0.9
	C270.2,111.1,271.9,102.3,274.4,93.6z M186.1,137.4c0.1-5.7,0.6-11.3,1.5-16.6c0.9-5.3,1.8-10.1,2.8-14.5c1.3,0,2.5,0,3.8,0
	c1.2,0,2.5-0.1,3.8-0.1c2.6-0.1,4.9-0.4,7-0.8c-0.6,0.8-0.9,1.7-1,2.5c-0.1,1-0.1,1.6-0.2,1.8c0.3,1,0.9,1.6,1.9,1.6l0.2,0
	c0.5-0.1,0.9-0.3,1.2-0.7c0.3-0.4,0.5-0.9,0.4-1.4c-0.1-0.2-0.1-0.4,0-0.7c0-0.4,0.2-0.9,0.6-1.4c0.7-0.8,2.1-1.2,4-1.4
	c0.6,0,1.5,0,2.7,0c1.2,0,2.4,0.1,3.8,0.2c-0.9,4.7-1.7,9.7-2.4,15.1c-0.7,5.1-1.1,10.1-1.3,15.3c-0.6,1.3-1.4,2.9-2.2,4.7
	c-1.2,2.4-2.4,5.1-3.8,8.1c-1.4,3-2.8,6-4.2,9c-1.4,3-2.8,5.9-4,8.7c-1.3,2.8-2.3,5.1-3.2,7c-0.7,1.3-1.4,2.4-2.2,3.1
	c-0.5,0-1-0.2-1.4-0.7c-0.5-0.4-0.9-1-1.3-1.6c-0.5-0.6-0.9-1.4-1.3-2.3c-2.1-5.5-3.6-11.3-4.3-17.2
	C186.3,149,186,143.2,186.1,137.4z M115.6,93.6c2.5-8.7,6-16.3,10.6-23.1c0.3-0.4,0.7-0.8,1-1.2c0.3-0.3,0.7-0.6,1-1
	c0.4-0.4,0.7-0.6,1.2-0.9c1.7,1.5,2.7,3.9,2.9,7.1c0.2,4.4-0.9,9.7-3.3,15.9c-2.5,6.9-5.4,12.6-8.5,17.2c-3.2,4.5-5.9,8.1-8.4,10.6
	c-0.3,0.3-0.6,0.6-0.9,0.9c-0.3,0.3-0.5,0.6-0.8,0.9C111.4,111.1,113.2,102.3,115.6,93.6z M146.1,119.5c-1.4-0.6-2.9-1.4-4.4-2.4
	c0.8-2.8,1.7-4.9,2.8-6.4c1.1-1.5,2.3-2.6,3.5-3.2c1.2-0.6,2.5-0.9,3.8-0.8c1.3,0.1,2.5,0.4,3.6,0.9c1.1,0.5,1.9,1.2,2.4,2.1
	c0.5,0.9,0.7,1.9,0.5,3.1c-0.1,1.1-0.6,2.2-1.3,3.4c-0.7,1.1-1.7,2.1-2.9,3c-1.2,0.9-2.6,1.2-4,1.1
	C148.8,120.3,147.4,120,146.1,119.5z M415.9,331.4c-0.8-1.3-5.7-5-11-8.2c-3.5-2.1-3.8-2.3-4.3-1.9c-2.7,2-7.9,5.4-8.1,5.4
	c-0.6,0-0.4-0.6,0.4-1.1c1.6-1.1,5.9-5.3,5.9-5.8c0-0.4-5-2.2-8.3-3.1c-1.7-0.4-4.6-1-6.5-1.3l-3.4-0.5l-2.4,2.1
	c-1.3,1.1-3.4,2.8-4.5,3.7c-1.2,0.9-3.1,2.3-4,3c-1.5,1.1-1.8,1.3-1.8,0.9c0-0.3,0.5-0.9,1.2-1.6c1.5-1.3,7.3-7.7,7.3-8.1
	c0-0.6-8.5-0.7-24.5-0.2l-4.6,0.1l-1.2,1c-0.7,0.6-1.8,1.6-2.6,2.2c-1.5,1.3-9.6,7.4-9.9,7.5c-0.1,0-0.1-0.1-0.1-0.4
	c0-0.2,0.6-0.9,1.4-1.6c1.4-1.2,7.8-8.2,7.6-8.4c-0.1-0.1-4.8,0-10.5,0.1c-12,0.2-15.5,0.6-20.2,2.1c-3.2,1-7.7,3.2-9.6,4.6
	c-1.3,1-5,4.8-6.7,7c-16.8-0.1-35.2-0.1-54.6-0.1c1.3-3.7,2-7.3,2.1-11.3c0.1-6.8-6.4-10.2-12.5-10.5c-11.5-0.5-16.4,5.6-20.9,14.3
	c-2.9-7.8-8.4-12.6-16.9-14.7c-7.9-1.9-17.9,3.9-17.9,16.2c0,2.3,0.3,4.2,0.7,6.3c0.4,0,0.8-0.4,1.2-0.4c0,0,0,0,0,0h0.7
	c0.1,0,0.3,0.1,0.4,0.1c0,0,0,0,0,0h0.1c0,0,0,0,0,0c0,0.1,0,0.2,0.1,0.3c0,0,0,0,0,0c0-0.1,0-0.2-0.1-0.3v0h0c0,0,0,0,0,0
	c0,0,0,0,0,0c0,0,0,0,0,0c0,0,0,0,0,0c0,0,0,0,0,0v0v-0.1c0.1,0.1,0.3,0.4,0.3,0.4c-0.2,0-0.3,0.3-0.3,0.3c0,0-0.4,0-0.8,0
	c0,0,0,0,0,0c0,0,0,0-0.1,0h-0.3c0,0,0,0,0,0c-9.7,0.2-20.6,0.4-30.2,0.6c-26.5,0.7-43.4,1.2-61,1.9c0.1-9.2,0-17.6-0.3-17.6
	c-0.1,0-0.3-0.1-0.3-0.3c0-0.1-0.3-0.6-0.6-0.9c-1-1.1-3.1-1.1-5.7-0.1c-1.1,0.4-5.4,1.7-9.6,2.8c-4.2,1.1-10.7,2.8-14.4,3.9
	c-3.7,1-9.2,2.5-12.2,3.4c-3,0.8-6.6,1.8-8.1,2.2c-2.7,0.8-10.7,2.8-14.2,3.6c-1.6,0.3-2.2,0.6-2.9,1.3c-1.5,1.5-1.5,3.9,0.2,5.1
	c0.3,0.2,1.7,0.9,3.1,1.4c1.4,0.5,5.6,2.2,9.4,3.8c3.8,1.5,9.2,3.7,12,4.7c2.8,1.1,6.1,2.3,7.4,2.8c3.5,1.4,9.4,3.4,16.8,6
	c3.6,1.2,8.2,2.8,10,3.4c1.9,0.7,3.9,1.3,4.5,1.4c2,0.2,3.5-1,4-3.4c0.3-1.1,0.5-8.7,0.6-17.1c1,0,2-0.1,2.9-0.1
	c18.2-0.8,67.3-2.4,72.6-2.4c1.5,0,8.2-0.1,16.7-0.2c4.8,10.6,14.6,18.2,21.7,23.8c2.5,2,4.6,3.6,6.2,5.1c0.2,0.2,0.5,0.3,0.9,0.3
	c0.3,0,0.5-0.1,0.7-0.2l2.4-1.7c8.1-5.9,21.2-15.3,28.3-27.9c22.1-0.1,43.4-0.1,57.6,0c1.6,2.6,3.5,4.9,5.5,6.5
	c5.4,4.4,17.6,9.8,26.9,12c2.8,0.7,9.1,1.6,9.6,1.5c0.5-0.2-3.9-4.9-9.6-10.1c-0.3-0.2-0.5-0.7-0.4-0.9c0-0.4,0.7-0.1,3.2,1.6
	c5.7,3.7,8.8,5.9,11.4,7.9c1.4,1.1,2.8,2,3.1,2c1,0.1,10,0.3,14.4,0.2l4.2-0.1l-0.8-1c-0.4-0.5-1.8-2-3-3.4
	c-3.2-3.5-2.8-3.8,1.4-0.8c1.9,1.4,4.2,3.1,5,3.7l1.5,1.2l5.2-0.6c2.9-0.4,6.6-0.9,8.3-1.3c4-0.9,8.8-2.5,8.8-3
	c0-0.2-1.6-1.8-3.6-3.6c-2.3-2.1-3.6-3.5-3.6-3.9c0-0.5,0.1-0.4,1.6,0.4c2,1.2,6.1,4.1,7.3,5.2c0.6,0.5,1.2,0.8,1.3,0.8
	c1.2-0.1,14.5-7.3,19.1-10.3c2-1.3,3.7-3,4.2-4.2C416.8,334.3,416.6,332.7,415.9,331.4z M177.8,329.8
	C177.8,329.8,177.8,329.8,177.8,329.8C177.8,329.8,177.8,329.8,177.8,329.8C177.8,329.8,177.8,329.8,177.8,329.8z M184.8,310
	c0.5-0.2,1.1-0.4,1.6-0.6C185.9,309.6,185.3,309.8,184.8,310z M208.9,326.1c-0.1,0-0.1,0-0.2-0.1c-0.1-0.1-0.2-0.1-0.3-0.2
	c-0.2-0.2-0.3-0.4-0.4-0.6c-1.1-4.4-3-7.8-5.6-10.4c-2-2-4.5-3.5-7.5-4.6c3,1.1,5.5,2.6,7.5,4.6c2.6,2.6,4.5,6.1,5.6,10.4
	c0.1,0.2,0.2,0.5,0.4,0.6c0.1,0.1,0.2,0.1,0.3,0.2c0,0,0,0,0,0c0,0,0,0,0,0C208.7,326,208.8,326.1,208.9,326.1
	C208.9,326.1,208.9,326.1,208.9,326.1c0.1,0,0.1,0.1,0.2,0.1c0,0,0,0,0,0c0,0,0,0,0,0C209,326.1,208.9,326.1,208.9,326.1z
	 M209.3,326.1C209.3,326.1,209.3,326.1,209.3,326.1c0.1,0,0.2,0,0.2,0C209.4,326.1,209.4,326.1,209.3,326.1z M240.3,316.6
	C240.3,316.6,240.3,316.6,240.3,316.6c0,0,0,0,0-0.1C240.3,316.5,240.3,316.6,240.3,316.6z M240.1,315.8c0-0.1,0-0.1-0.1-0.2
	C240.1,315.6,240.1,315.7,240.1,315.8z M397.6,168.6c0.3,2.3-0.7,4.8-2.2,6.1c-1,0.9-2.1,1.3-3.4,1.4c-3.4,0.3-6-0.8-12.5-5.1
	c-3.6-2.5-8.1-5.1-11-6.3c-1.5-0.7-5-2-7.7-3c-2.8-1-5.2-1.9-5.4-2.1c-0.7-0.5-1-1-1-1.3c0-0.2,0-0.4,0-0.4
	c-0.1-0.3,0.1-1.2,0.3-1.3c0.1-0.1,0.2-0.2,0.2-0.4c-0.1-0.6,2.2-1.4,4.1-1.5c8.5-0.5,13.5-0.2,21,1.3c5.7,1.2,9.9,3,13.3,5.8
	C395.6,163.7,397.4,166.5,397.6,168.6z M363.7,135.6c2.2-1.3,12.9-6.3,16.2-7.6c6.2-2.3,11.6-2,13.5,0.9c1,1.5,1.1,3.4,0.4,5.3
	c-0.4,0.9-1.9,2.7-2.9,3.4c-1.6,1.1-5.3,2.9-7.8,3.6c-2.6,0.8-8.1,2-12.4,2.6c-1.7,0.2-4.5,0.6-6.3,0.9c-5.6,0.8-8.4,0.6-9-0.7
	c-0.4-0.9-0.4-2.3,0.1-2.5c0.1-0.1,0.2-0.2,0.1-0.3c0-0.1,0-0.3,0.2-0.3c0.1-0.1,0.2-0.2,0.2-0.3C356,140.5,360.6,137.4,363.7,135.6
	z M342.8,132.8c-0.1-0.7,0.3-1.4,2.1-3.4c1.9-2.1,2.3-2.8,4-6.9c1.6-3.6,3.2-8.5,5.5-16.7c1.8-6.3,2.9-8.3,5.4-9.7
	c1.5-0.9,3-1.1,4.8-0.9c2.3,0.3,4.1,1.3,5.4,3.2c1.1,1.5,1.3,2.5,1.3,4.8c0,2.8-1.5,7.1-3.7,10.8c-2.1,3.5-5.6,7.9-8.6,11
	c-2.7,2.8-8.1,7.4-10.1,8.6c-0.7,0.5-1.5,0.9-1.7,1.1c-0.7,0.3-2,0.6-2.2,0.3c-0.1-0.1-0.1-0.1-0.2,0c-0.1,0.2-0.8,0-0.9-0.3
	c-0.1-0.1-0.2-0.2-0.3-0.1C343.4,134.7,342.9,133.6,342.8,132.8z M29.2,168.6c0.2-2.1,2-4.8,4.5-6.8c3.4-2.8,7.5-4.6,13.3-5.8
	c7.4-1.5,12.5-1.9,21-1.3c1.8,0.1,4.1,1,4.1,1.5c0,0.1,0.1,0.3,0.2,0.4c0.2,0.1,0.4,1,0.3,1.3c0,0.1,0,0.2,0,0.4
	c0.1,0.3-0.3,0.8-1,1.3c-0.2,0.2-2.7,1.1-5.4,2.1c-2.8,1-6.3,2.3-7.7,3c-2.8,1.2-7.3,3.8-11,6.3c-6.5,4.4-9.1,5.5-12.5,5.1
	c-1.3-0.1-2.4-0.6-3.4-1.4C29.8,173.4,28.9,170.9,29.2,168.6z M33,134.2c-0.7-1.9-0.6-3.8,0.4-5.3c1.9-2.9,7.3-3.3,13.5-0.9
	c3.3,1.2,13.9,6.2,16.2,7.6c3.1,1.8,7.7,4.9,7.6,5.1c0,0.1,0.1,0.2,0.2,0.3c0.1,0.1,0.2,0.2,0.2,0.3c-0.1,0.1,0,0.2,0.1,0.3
	c0.5,0.2,0.6,1.6,0.1,2.5c-0.6,1.3-3.4,1.5-9,0.7c-1.8-0.3-4.6-0.7-6.3-0.9c-4.3-0.6-9.8-1.8-12.4-2.6c-2.4-0.8-6.2-2.6-7.8-3.6
	C34.9,136.9,33.4,135.1,33,134.2z M59.1,114c-2.3-3.7-3.7-8-3.7-10.8c0-2.3,0.3-3.3,1.3-4.8c1.3-1.9,3.1-2.9,5.4-3.2
	c1.8-0.2,3.3,0.1,4.8,0.9c2.5,1.4,3.6,3.4,5.4,9.7c2.3,8.1,3.9,13.1,5.5,16.7c1.7,4,2.1,4.7,4,6.9c1.7,2,2.2,2.7,2.1,3.4
	c-0.1,0.8-0.6,1.9-0.9,1.8c-0.1,0-0.2,0-0.3,0.1c-0.1,0.3-0.8,0.5-0.9,0.3c0-0.1-0.1-0.1-0.2,0c-0.1,0.2-1.5,0-2.2-0.3
	c-0.3-0.1-1-0.6-1.7-1.1c-2-1.3-7.3-5.9-10.1-8.6C64.7,121.9,61.2,117.5,59.1,114z"/>
</svg>
