<?xml version="1.0" encoding="utf-8"?>
<!-- Generator: Adobe Illustrator 18.0.0, SVG Export Plug-In . SVG Version: 6.00 Build 0)  -->
<!DOCTYPE svg PUBLIC "-//W3C//DTD SVG 1.1//EN" "http://www.w3.org/Graphics/SVG/1.1/DTD/svg11.dtd">
<svg version="1.1" id="Layer_1" xmlns="http://www.w3.org/2000/svg" xmlns:xlink="http://www.w3.org/1999/xlink" x="0px" y="0px"
	 viewBox="0 0 432 432" enable-background="new 0 0 432 432" xml:space="preserve">
<path fill="#B19A53" d="M387.8,309.7c-1.9,0-3.1,0.7-3.8,2.2c-1.3,2.7-2.2,5-2.8,6.9c-0.8,2.3-1.6,4.5-2.4,6.5c-0.7,2-1.4,4.1-2,6.5
	c-0.8,2.5-1.6,5-2.4,7.4c-0.7,2.4-1.6,4.8-2.7,7.1c-0.8,1.7-1.6,3.3-2.2,4.9c-0.6,1.6-1.4,3.2-2.2,4.9c-1.1,2.3-2.2,4.5-3.3,6.6
	c-1.2,2.1-2.5,4.2-3.9,6.3c-2.7,4.6-5.7,8.3-8.8,11c-0.8,0.8-1.6,1.7-2.4,2.5c-0.7,0.8-1.5,1.6-2.4,2.2c-1.5,1.1-2.9,2-4.2,2.8
	c-1.4,0.8-2.9,1.5-4.6,1.9c-2.5,1.1-4.8,1.3-6.9,0.6c-2.5-1-4.3-2.4-5.4-4.1c-1.1-1.5-1.8-3-2.2-4.6c-0.4-1.6-0.8-3.2-1.3-4.9
	c-0.6-1.5-0.9-3-0.9-4.7l-0.9-6.6c-0.2-0.8-0.3-1.7-0.3-2.5c0-0.8,0-1.8,0-2.8v-10.1c0-0.2,0.2-0.5,0.6-0.9c4.2-1.7,7.8-3.4,10.7-5
	c1.9-1,3.7-2.1,5.5-3.1c1.8-1,3.6-2.1,5.5-3.1c2.5-1.7,4.9-3.5,7.2-5.4c2.3-1.9,4.3-4.1,6-6.6c3.8-5,6-10.7,6.6-17
	c0-1.9-0.1-3.8-0.2-5.7c-0.1-1.9-0.4-3.8-0.8-5.7c-0.6-2.9-1.7-5.3-3.1-7.2c-2.9-5.2-7.2-9.5-12.9-12.9c-1.7-1-3.3-1.8-4.7-2.2
	c-1.5-0.4-3-0.8-4.7-1.3c-1.9-0.2-3.8-0.3-5.7-0.2c-1.9,0.1-3.7,0.4-5.3,0.8c-1.5,0.4-2.9,0.8-4.2,1.3c-1.4,0.4-2.8,0.8-4.2,1.3
	c-1.1,0.4-2.2,0.9-3.3,1.6c-1.2,0.6-2.3,1.3-3.3,1.9c-5.2,3.1-9.4,7.2-12.6,12.3c-2.3,2.9-4.2,6-5.7,9.1c-1.5,3.1-2.7,6.5-3.8,10.1
	c-0.8,2.3-1.6,5-2.2,8.2c-0.4,1.7-0.7,3.3-0.9,4.7c-0.2,1.5-0.4,3-0.6,4.7c-0.2,1.5-0.3,2.9-0.3,4.2c0,1.4,0,2.8,0,4.2
	c0,2.7,0.1,5.4,0.3,7.9c0.2,2.5,0.5,5,0.9,7.6c0,0.3,0.1,0.7,0.1,1c-0.8,1.7-1.5,3.4-2.3,5.1c-1.3,2.7-2.7,5.7-4.4,8.8
	c-1.1,2.1-2.1,4.1-3.1,6.1c-1.1,2-2.1,3.9-3.1,5.8c-1.1,1.9-2.2,3.8-3.5,5.7c-0.8,0.9-1.8,1.5-2.8,2.1c-1.7,0.3-2.6-0.1-2.8-1.3
	c0-0.3-0.1-0.6-0.2-0.8c-0.1-0.2-0.2-0.4-0.2-0.8c0.2-1.9,0.2-3.6,0-5.3c-0.2-1.6-0.1-3.4,0.3-5.3c0.2-0.9,0.3-1.8,0.3-2.7
	c0-0.9,0.1-1.9,0.3-3c0.2-2.4,0.4-4.8,0.5-7.2c0.1-2.4,0.3-4.8,0.5-7.2c0.2-2.9,0.3-5.9,0.3-8.9c0-3,0.1-6,0.3-8.9v-0.8
	c0-1.9,0-3.8,0.2-5.7c0.1-1.9,0.3-3.8,0.5-5.7c0.2-2.2,0.4-4.4,0.5-6.6c0.1-2.1,0.2-4.3,0.2-6.6c0.2-2.9,0.4-5.9,0.6-9
	c0.2-3.1,0.4-6.1,0.6-9c0-1.4,0-2.6,0.2-3.7c0.1-1.1,0.2-2.4,0.2-3.7c0.2-0.9,0.8-1.3,1.9-1.3H284c2.7,0,4.3-1.1,4.7-3.3
	c0.4-1.5,0.1-3-0.9-4.4c-1.1-1.7-2.6-2.5-4.7-2.3h-12.9h-1.9c0-0.3-0.1-0.6-0.2-0.8c-0.1-0.2-0.2-0.4-0.2-0.8v-8.5c0-1,0-2.1,0-3.1
	s-0.1-2.1-0.3-3.1c-0.8-3.3-2.9-6-6.3-8.2c-1.7-1.2-3.6-2-5.7-2.4c-2.1-0.4-4.3-0.7-6.6-0.9c-1.5-0.2-2.8-0.2-4.1,0
	c-1.3,0.2-2.6,0.3-4.1,0.5c-0.6,0.2-1.2,0.3-1.7,0.3c-0.5,0-1,0.2-1.4,0.5c0.4,4.5,0.6,8.9,0.5,13.3c-0.1,4.4-0.2,8.8-0.2,13.3h-1.9
	h-10.4c-1.5-0.2-2.7,0.3-3.8,1.3c-0.2,0.2-0.3,0.3-0.3,0.4c0,0.1-0.1,0.2-0.3,0.4c-1.9,1.5-2.3,3.3-1.3,5.4c0.8,1.7,2.6,2.6,5.3,2.6
	h11h1.3c0.6,0,0.9,0.3,0.9,0.8c-0.2,1.2-0.3,2.4-0.3,3.6c0,1.2-0.1,2.4-0.3,3.6c-0.2,1.9-0.4,3.8-0.5,5.7c-0.1,1.9-0.2,3.8-0.2,5.7
	c-0.2,1.7-0.3,3.4-0.3,5c0,0.3,0,0.5,0,0.8c-0.6,0.8-1.1,1.7-1.6,2.7c-1.1,2.5-2.1,5.2-3.1,8.2l-2.8,8.5c-0.6,1.9-1.3,3.8-2,5.7
	c-0.7,1.9-1.4,3.9-2,6l-2.8,7.6c-0.6,1.9-1.3,3.7-2,5.5c-0.7,1.8-1.5,3.6-2.4,5.5c-0.4,1.3-0.9,2.5-1.6,3.8
	c-0.6,1.3-1.2,2.6-1.6,4.1c-0.8,1.7-1.6,3.4-2.4,5.2c-0.7,1.8-1.6,3.6-2.7,5.5c-0.8,1.7-1.6,2.9-2.2,3.8c-0.4,0.4-0.8,0.8-1.1,1.1
	c-0.3,0.3-0.7,0.7-1.1,1.1c-1.5,0.8-2.5,0.4-3.1-1.3c0-0.2-0.1-0.4-0.2-0.5c-0.1-0.1-0.2-0.3-0.2-0.5v-2.8c0.2-1.9,0.3-3.8,0.3-5.7
	c0-1.9,0-3.8,0-5.7c0.2-1.7,0.4-3.3,0.5-4.7c0.1-1.5,0.2-3,0.2-4.7c0.2-1,0.3-2.1,0.3-3.3c0-1.2,0-2.3,0-3.3l0.9-10.4
	c0.2-1.7,0.4-3.4,0.5-5c0.1-1.7,0.3-3.4,0.5-5l0.9-11.3c0.2-1.9,0.4-3.7,0.5-5.5c0.1-1.8,0.3-3.6,0.5-5.5c0.2-1.3,0.3-2.6,0.3-3.9
	c0-1.4,0-2.8,0-4.2c0-1-0.1-2.2-0.2-3.5c-0.1-1.3-0.3-2.5-0.5-3.8c0-0.4-0.1-0.8-0.2-1.1c-0.1-0.3-0.2-0.7-0.2-1.1
	c0-1.3-0.3-2.7-0.9-4.4c-0.4-0.4-0.7-0.9-0.9-1.6c-0.2-0.6-0.5-1.1-0.9-1.6c-0.8-1.9-2.1-3.7-3.8-5.4c-3.6-3.1-8.1-4.9-13.5-5.4
	c-1.1-0.2-2.6-0.3-4.7-0.3c-0.8,0.2-1.7,0.4-2.5,0.5c-0.8,0.1-1.8,0.3-2.8,0.5v0.6v19.5c-0.2,2.5-0.3,5.1-0.3,7.7
	c0,2.6-0.1,5.2-0.3,7.7v7.9c0,1.1,0,2,0,2.8c0,0.8-0.1,1.8-0.3,2.8c-0.2,1.7-0.4,3.4-0.5,5c-0.1,1.7-0.3,3.4-0.5,5
	c0,4.2-0.4,8-1.3,11.3c-0.2,1.7-0.4,3.4-0.6,5c-0.2,1.7-0.5,3.4-0.9,5v0.9c-0.6,1.1-1.3,2.1-1.9,3.1c-0.6,1.1-1.3,2.1-1.9,3.1
	c-0.6,1.1-1.3,2-1.9,2.8c-0.6,0.8-1.4,1.8-2.2,2.8c-1.1,1.1-2.1,2-3.1,3c-1.1,0.9-2.1,1.9-3.1,3c-2.1,1.9-4.2,3.6-6.5,5.2
	c-2.2,1.6-4.8,2.8-7.7,3.6c-0.6,0.2-1.2,0.4-1.7,0.5c-0.5,0.1-1.1,0.2-1.7,0.2c-1.7,0-3.3-0.9-4.7-2.8c-0.8-1.5-1.2-3.1-0.9-5
	c0-2.3,0-4.5,0.2-6.6c0.1-2.1,0.2-4.3,0.2-6.6c0.2-2.3,0.3-4.7,0.3-7.2c0-2.5,0.2-5,0.6-7.6c0.2-2.9,0.4-5.8,0.5-8.5
	c0.1-2.7,0.4-5.6,0.8-8.5v-0.6c0-1,0-2,0.2-2.8c0.1-0.8,0.2-1.8,0.2-2.8c0.2-0.6,0.3-1.3,0.3-2c0-0.7,0.1-1.4,0.3-2
	c0-1.3,0.1-2.6,0.3-3.9c0.2-1.4,0.3-2.7,0.3-3.9c0.2-2.1,0.4-4.1,0.5-6c0.1-1.9,0-3.9-0.2-6c0-1,0-2.2,0-3.5c0-1.3-0.2-2.4-0.6-3.5
	c-0.4-2.1-0.8-3.7-1.3-4.7c-0.2-0.4-0.4-0.9-0.6-1.4c-0.2-0.5-0.5-1.1-0.9-1.7c-1.3-2.9-3.6-5.5-6.9-7.6c-2.1-1-4.2-1.8-6.5-2.2
	c-2.2-0.4-4.5-0.6-6.8-0.6c-1.5,0-2.6,0.1-3.5,0.3c-0.8,0.2-1.6,0.4-2.2,0.5c-0.6,0.1-1.4,0.3-2.2,0.5c-0.2,0-0.4,0.1-0.6,0.3
	c0,0.6,0.1,1.3,0.2,1.9c0.1,0.6,0.2,1.2,0.2,1.6c0.2,1.7,0.3,3.3,0.3,4.9s0,3.2,0,4.9v13.5l-0.3,1.2l-4.7,16.6
	c-1.7,6.9-3.6,13-5.7,18.6c-1.3,4-2.7,7.8-4.4,11.5c-1.7,3.7-3.4,7.4-5,11.1c-3.4,6.3-7.2,12-11.6,17c-1.3,1.3-2.6,2.5-3.9,3.6
	c-1.4,1.1-2.8,2.1-4.2,3.2c-0.8,0.5-1.7,0.9-2.5,1.2c-0.8,0.3-1.8,0.5-2.8,0.8c-3.6,0.3-6.5-1.4-8.8-5.1c-1.3-2.6-2.2-5.4-2.8-8.3
	c-1.5-5.8-2.3-10.9-2.5-15.4c-0.2-1.8-0.4-3.6-0.5-5.3c-0.1-1.7-0.2-3.5-0.2-5.3v-8.7c0-1.3,0-2.7,0-4.1c0-1.4,0.1-2.8,0.3-4.1
	c0-5.8,0.4-10.9,1.3-15.4c0.2-1.8,0.4-3.6,0.5-5.3c0.1-1.7,0.4-3.4,0.8-4.9c0.4-2.1,0.8-4.1,1.3-5.9c0.4-1.8,0.8-3.7,1.3-5.5
	c0.4-2.1,0.9-4,1.6-5.7c0.6-1.7,1.3-3.5,1.9-5.3c1-2.4,2.1-4.5,3.1-6.5c1-2,2.2-4,3.5-6.1c1.9-3.2,4.5-4.7,7.9-4.7
	c2.3,0,4,1.1,5,3.2c0.4,1.1,0.8,2.6,1.3,4.7c0.6,2.9,0.8,5.7,0.6,8.3c-0.2,1.1-0.5,2.9-0.9,5.5c-0.2,1.3-0.4,2.7-0.6,4.1
	c-0.2,1.5-0.5,2.8-0.9,4.1c-0.2,0.8-0.4,1.6-0.6,2.4c-0.2,0.8-0.3,1.6-0.3,2.4c-0.4,2.1,0.2,3.8,1.9,5.1c1.9,1.3,3.7,1.3,5.4,0
	c1.7-1.3,3-3.6,4.1-6.7c1.7-5,2.8-10.3,3.5-15.8c0.6-4.7,0.8-9.1,0.6-13c-0.4-2.9-1.1-5.5-1.9-7.9c-0.8-2.1-1.8-4-2.8-5.5
	c-1.1-1.6-2.3-3-3.8-4.3c-2.7-2.9-6.1-5.5-10.1-7.9c-3.4-2.1-6.9-3.2-10.7-3.2c-1.7-0.3-3.4-0.3-5,0c-1.7,0.3-3.4,0.7-5,1.2
	c-3.1,1.1-6.4,2.6-9.8,4.7c-4.2,2.4-8.1,5.9-11.6,10.7c-1.1,1.3-2,2.8-2.8,4.3c-0.8,1.6-1.8,3.2-2.8,4.7c-1.9,3.7-3.6,7.6-5,11.7
	c-1.5,4.1-2.7,8.4-3.8,12.8c-0.8,2.9-1.4,5.9-1.7,8.9c-0.3,3-0.7,6-1.1,8.9c-0.2,2.1-0.4,4.2-0.5,6.3c-0.1,2.1-0.2,3.9-0.2,5.5
	c0,2.9,0.1,5,0.3,6.3c0,2.1,0.1,4.1,0.2,5.9c0.1,1.8,0.3,3.8,0.5,5.9c0.2,1.3,0.4,2.6,0.5,3.8c0.1,1.2,0.4,2.4,0.8,3.8
	c0.2,1.6,0.4,3.1,0.6,4.5c0.2,1.5,0.5,2.8,0.9,4.1c0.4,2.6,1,5.2,1.7,7.7c0.7,2.5,1.5,4.9,2.4,7.3c0.8,2.1,1.6,4,2.2,5.7
	c0.6,1.7,1.5,3.5,2.5,5.3c1.3,2.4,2.6,4.5,3.9,6.5c1.4,2,2.9,4,4.6,6.1c3.1,3.7,6.3,6.2,9.4,7.5c1.7,0.5,3.3,0.9,4.9,1.2
	c1.6,0.3,3.2,0.5,4.9,0.8c1,0,2.1,0.1,3.3,0.2c1.2,0.1,2.4,0.1,3.6-0.2H63c1-0.3,1.9-0.5,2.7-0.6c0.7-0.1,1.5-0.3,2.4-0.6
	c2.9-0.5,6-2,9.1-4.3c1.9-1.3,3.6-2.8,5.2-4.5c1.6-1.7,3.1-3.5,4.6-5.3c2.9-4.2,5.9-8.7,8.8-13.4c2.7-5,5.2-10.1,7.4-15.4
	c0.7-1.8,1.4-3.6,2.2-5.4c0,0.4-0.1,0.8-0.1,1.3c0,2.3-0.1,4.5-0.2,6.6c-0.1,2.1-0.3,4.2-0.5,6.3c-0.2,2.1-0.3,4.1-0.2,6
	c0.1,1.9,0.4,3.8,0.8,5.7c0.6,2.9,1.6,5.5,2.8,7.6c0.4,1.1,0.9,2,1.4,2.8c0.5,0.8,1.1,1.8,1.7,2.8c1.7,2.1,3.7,3.8,6,5
	c2.5,1.5,5,2.5,7.6,3.1c1,0.2,2.7,0.3,5,0.3h4.4c1-0.2,2-0.4,2.8-0.5c0.8-0.1,1.7-0.3,2.5-0.5c3.8-0.6,7.2-1.9,10.4-3.8
	c2.3-1.3,4.6-2.7,6.8-4.4c2.2-1.7,4.4-3.5,6.5-5.3c3.8-3.8,6.8-7.6,9.1-11.3c0.2-0.2,0.3-0.4,0.3-0.5c0-0.1,0.1-0.3,0.3-0.5
	c0,0.4,0.1,0.6,0.3,0.6c0,1.3,0.2,2.7,0.6,4.4c0.6,2.9,1.6,5.7,2.8,8.2c1,2.1,2.3,4,3.8,5.8c1.5,1.8,3.1,3.3,5,4.6
	c1.5,1.1,3,1.9,4.6,2.5c1.6,0.6,3.3,0.8,5.2,0.6c1,0,2,0,3,0c0.9,0,1.9-0.1,3-0.3c2.7,0,5.2-0.8,7.6-2.5c1-0.6,2-1.3,2.8-2
	c0.8-0.7,1.7-1.5,2.5-2.4c1.7-1.9,3.1-3.8,4.2-5.7c1.2-1.9,2.3-4,3.3-6.3c0.6-1.5,1.3-2.9,1.9-4.2c0.6-1.4,1.4-2.8,2.2-4.2
	c0.6-1.7,1.3-3.3,2-4.9c0.7-1.6,1.4-3.2,2-4.9c0.6-1.5,1.2-2.9,1.7-4.2c0.5-1.4,1.1-2.7,1.7-3.9c0.5-1.4,1-2.8,1.5-4.2
	c0,0.5-0.1,0.9-0.1,1.4c-0.1,2.1-0.2,4.1-0.2,6.2c-0.2,1-0.3,2.1-0.3,3.1c0,1,0,2.1,0,3.1c0,2.1-0.1,4.1-0.2,6c-0.1,2-0.2,4-0.2,6.1
	c0,4.6,1,8.8,3.1,12.4c1,1.9,2.2,3.6,3.5,5.1c1.3,1.5,2.8,2.9,4.7,4.1c1.5,0.9,3,1.6,4.6,2.2c1.6,0.6,3.2,0.8,4.9,0.6h6
	c4.6-0.3,8.3-1.6,11-3.9c2.7-2.1,5.4-4.8,7.9-8.2c1.7-2.4,3.1-4.9,4.4-7.5s2.6-5.1,4.1-7.5c0.4-0.8,0.8-1.6,1.2-2.4
	c0.1,0.3,0.2,0.7,0.4,1c0.8,1.9,1.6,3.8,2.4,5.7c0.7,1.9,1.6,3.7,2.7,5.4c1.7,2.3,3.4,4.6,5,6.8c1.7,2.2,3.7,4.2,6,6.1
	c3.4,2.9,7.4,4.9,12.3,6c1.3,0.2,2.6,0.4,3.9,0.5c1.4,0.1,2.8,0.2,4.2,0.2h1.6c1.7,0,3.2,0,4.7,0c1.5,0,3-0.1,4.7-0.3
	c1-0.2,2.1-0.4,3.3-0.5c1.1-0.1,2.3-0.4,3.3-0.8c1-0.4,2.1-0.9,3.1-1.4c1-0.5,2.1-1.1,3.1-1.7c2.3-1.3,4.4-2.7,6.1-4.4
	c1.8-1.7,3.5-3.5,5.2-5.4c1.9-1.9,3.6-3.8,5-5.8c1.5-2,2.9-4,4.4-6.1c1.7-2.7,3.2-5.4,4.7-8c1.5-2.6,2.9-5.4,4.4-8.3
	c1-2.7,2.1-5.3,3.1-7.9c1-2.5,2.1-5.1,3.1-7.9c1.7-4,2.9-7.9,3.8-11.6c0.6-2.1,1.3-4.2,1.9-6.3c0.6-2.1,1.2-4.3,1.6-6.6
	c0.4-1.7,0.6-3.1,0.6-4.4c-0.4-1.7-0.9-2.9-1.6-3.8C391.5,310.3,389.9,309.7,387.8,309.7z M321.2,333c0.1-0.8,0.3-1.7,0.5-2.5
	c0-1.9,0.3-3.7,0.9-5.4c0.6-3.6,1.4-6.5,2.2-8.8c0.4-1.3,0.8-2.5,1.3-3.6c0.4-1.2,0.8-2.3,1.3-3.3c0.8-1.9,1.8-3.7,2.8-5.3
	c1-1.7,2.1-3.4,3.1-5c0.4-0.4,0.8-0.9,1.3-1.6c0.4-0.6,0.9-1.1,1.6-1.6c2.5-2.1,5-3,7.6-2.8c1.9,0,3.4,1.1,4.4,3.1
	c0.8,1.5,1.4,2.9,1.6,4.4c0,1.1,0.1,1.8,0.3,2.2c0,1.1-0.2,2.6-0.6,4.7c-0.4,1.3-0.8,2.5-1.3,3.6c-0.4,1.2-0.9,2.3-1.6,3.3
	c-1.7,3.4-4.2,6.7-7.6,10.1c-3.4,3.4-7,6.1-11,8.2c-1.1,0.4-2,0.9-3,1.4c-0.9,0.5-1.9,1-3,1.4c-0.2,0-0.4,0.1-0.5,0.2
	c-0.1,0.1-0.4,0.2-0.8,0.2C321,334.8,321.1,333.8,321.2,333z M26.6,160c-0.2-6.1,0-11.8,0.8-16.8c0.3-1.8,0.6-3.9,0.9-6.2
	c0.3-2.3,0.7-4.3,1.3-5.9c2-6.8,5.1-10.9,9.1-12.1c4-1.2,6.6,0.3,7.8,4.5c0.4,1.5,0.3,4.8-0.5,10c-3.3,24.9-3.2,39.9-1.5,45.2
	c0.7,2.2,1.9,3.1,3.4,2.6c1.4-0.5,3-2,4.7-4.6c1.7-2.6,3.3-5.9,4.7-9.8c1.4-4,2.8-8.1,3.9-12.3c1.2-4.2,2.1-8.2,3-11.9
	c0.8-3.7,1.4-6.7,1.8-9c0.3-1.9,1.3-3.1,3-3.5c1.4-0.4,2.3,0,2.5,1.1c0.3,1.2-0.5,5.9-2.3,14.1c-2.3,10.7-5.2,20-8.7,27.9
	C56.5,183,51.4,188.9,45,191c-6.9,2.3-11.9-0.8-15-9.6C28.2,176.2,27,169.1,26.6,160z M35.3,109.1c-0.3-1-0.4-2.3-0.4-3.7
	c0-1.4,0.4-3.2,1-5.1c0.6-2,1.7-3.9,3.1-5.8c1.5-1.9,3.2-3.1,5.3-3.7c3.9-1.1,6.2,0.1,7.1,3.5c0.3,1,0.4,2.3,0.3,3.7
	c-0.1,1.4-0.5,3.1-1.1,5.1c-0.6,2-1.7,3.9-3.2,5.8c-1.5,1.9-3.2,3.1-5.1,3.6C38.6,113.6,36.3,112.5,35.3,109.1z M425,146.7
	c-1.7-0.7-3.2-0.3-4.6,1.1c-3.4,3.4-7.6,5.9-12.6,7.4c-4.5,1.3-9.2,1.1-14.3-0.6c1.6-1.4,3.7-3.4,6.3-5.9c2.6-2.5,5.2-5.2,8-8.2
	c2.8-3,5.3-5.9,7.6-8.8c4.3-5.3,7-9.2,7.9-11.7c1.4-3.8,0.6-6.2-2.3-7.3c-5.6-2-12.6,0.7-20.7,8.3c-8.1,7.6-13.1,15.2-15.5,22.6
	c-1.3,4.2-1.6,7.3-0.7,9.3c-11.9,11.4-18.9,17-21.8,16.2c-2.3-0.7-2.8-3.4-1.4-8.3c1.1-3.9,5.1-11.5,12.4-22.6
	c2.6-3.9,5.1-7.7,7.8-11.6c1.8-2.6,3-4.9,3.5-6.8c1-3.3,0-5.4-3-6.3c-6.5-1.9-12.5,1.3-17.7,9.5c-4.9,7.7-9.7,14.6-14.3,20.6
	c-4.6,6.1-8.6,10.9-12.1,14.3c-3.5,3.4-6.2,4.9-8.2,4.5c-1.3-0.3-1.7-1.8-1.1-4.4c1-4.7,5.4-14.5,13.8-29.4
	c2.2-3.8,4.3-7.6,6.5-11.3c2-3.3,3.3-6.1,3.8-8.3c0.9-3.5-0.2-5.6-3.1-6.3c-6.6-1.5-13.7,3-20.9,13.7c-0.6,1-1.2,2-1.8,2.9
	c-0.3,0.1-0.6,0.1-1,0.3c-0.8,0.3-1.5,0.8-2,1.6c-3.3,4.6-7.2,8.1-11.5,10.5c-3.5,2-7.3,2.8-11.5,2.4c5.2-8,8.4-14.9,9.4-20.8
	c0.9-5,0-9.3-2.6-12.8c-2.7-3.5-7.2-5.7-13.6-6.6c-11.6-1.6-22.3,2.2-31.6,11.3c-2.3,2.2-4.3,4.4-6.1,6.6c-0.3,0.3-0.5,0.6-0.8,1
	c-4.3,5.2-7.4,10.4-9.3,15.4c-0.7,1.1-1.4,2.1-2.1,3.2c-2.4,3.6-5,7.1-7.6,10.4c-2.6,3.3-5.1,5.9-7.6,7.7c-2.4,1.9-4.5,2.8-6.2,2.8
	c-1.4,0-2.1-1.2-2.1-3.5c0.1-3.5,2.2-11.5,7-24c4.8-12.5,7.5-20.4,7.6-23.8c0.3-6.4-2.9-9.8-9.4-9.9c-3.4-0.1-7.2,1.4-11.4,4.5
	c-4.2,3.1-8.4,7.3-12.5,12.7c-4.1,5.4-7.9,11.6-11.4,18.5c0.8-3,1.6-5.9,2.4-8.8c0.8-2.9,1.5-5.3,2-7.2c1-4.1,1.5-7.5,1.4-10.1
	c-0.1-4.7-2-6.9-5.7-6.8c-2,0.1-3.7,0.8-5.3,2.2c-2.7,2.4-5.3,7.7-7.6,15.7c-0.9,0.5-1.5,1.3-1.9,2.4c-0.7,2.1-1.9,4.7-3.4,7.9
	c-1.5,3.1-3.2,6.4-5.2,9.9c-2,3.4-4.1,6.7-6.3,9.8c-2.3,3.1-4.6,5.7-6.9,7.8c-2.4,2.1-4.7,3.3-7.1,3.6c-1.7,0.2-3.3-0.9-4.9-3.3
	c-2.9-4.7-5.1-11.9-6.4-21.5c-0.1-0.8-0.2-1.5-0.3-2.3c5.1-6.7,12.3-12,21.4-15.8c3.5-1.5,5.6-3.5,6.2-6.1c0.2-0.7,0.2-1.4,0.2-1.9
	c-0.1-1.8-1.5-2.7-4-2.4c-6.2,0.6-14.2,5.8-23.3,15.9c-7.3,8.1-13,16.3-17.4,24.4c0.5-8.6,1.3-17.4,2.5-26.2
	c4.4-3.9,8.4-7.7,11.8-11.5c2.5-2.7,6-7.3,10.5-13.5c8-11,13.5-21.7,16.3-32.4c0.9-3.4,1.2-6.4,1-9.1c-0.5-7.5-4.8-11-12.7-10.2
	c-14.8,1.5-27,13.1-35.1,34.4c-5.3,14-9.4,32-11.8,53.6c-2.1,19.2-1.6,34,0.5,44.2c0.9,4.2,3.3,5.9,7.2,5.1c2.1-0.4,3.8-1.3,5.1-2.6
	c1.3-1.3,2.2-3.4,2.6-6.2c0.2-1.4,0.4-2.8,0.6-4.3c0.6-5.4,1.6-9.5,3-12.3c1.6-3.1,3.3-6,5-8.8c0.6,3.2,1.4,6.5,2.7,9.7
	c2,5.5,4.8,9.3,8.4,11.5c2,1.2,4.2,1.6,6.8,1.3c6.7-0.9,13-5.2,19.3-13.1c3.7-4.5,7.1-9.8,10.4-15.7c-1.5,8.4-2,15.2-1.6,20.5
	c0.5,6,2.3,8.8,5.4,8.6c2.4-0.2,4.7-2.3,6.9-6.4c1.1-1.9,2.2-4.4,3.3-7.3c2.7-7.1,6.5-15.1,11.6-24c4.1-7.2,8.1-13,11.7-17.4
	c3.6-4.4,6.4-6.5,8.3-6.5c1,0,1.6,0.7,1.5,2.1c0,2.4-2.5,9.1-7,19.9c-4.5,10.9-6.5,18.6-6.4,23.2c0.1,9.4,3.8,14,10.9,14
	c6.6,0,13.2-3.8,20.3-11.6c2-2.2,4.1-4.6,6.1-7.2c0,3,0.4,5.7,1.2,8.3c2.3,7.4,7.8,11.4,16.6,12.2c13.1,1.2,24.7-6.2,36.4-22.4
	c5.5,0.6,10.6-0.3,15.5-2.7c2.6-1.3,5.1-2.9,7.5-4.8c-2,5.2-3.5,10.6-4.6,16.1c-2.4,12.8,0.2,19.9,7.8,21.5c7.1,1.5,15.5-4,26-16.2
	c-2.9,12.9-0.7,20.3,6.7,22.3c8,2.2,18.3-3.6,32.2-17.1c0.7,0.4,1.4,0.7,2.2,1c6.1,1.9,12.1,2,18.1,0.2c5.8-1.7,10.9-4.4,15.3-8.3
	c1.3-1.1,2.1-2.1,2.4-2.9C426.8,148.1,426.4,147.3,425,146.7z M147.3,47.4c2.9-0.3,4.5,1,4.8,4c0.1,1.5-0.1,3.6-0.7,6
	c-3.3,13.4-11.6,27.3-23.8,42c-1.5,1.9-3.5,4.1-5.8,6.5C128,68,137.6,48.4,147.3,47.4z M299.3,115.7c-0.4,2.6-1.2,5.4-2.4,8.4
	c-2.2-0.3-4.4,0.3-6.4,1.9c-2,1.6-3.2,3.7-3.6,6.3c-0.4,2.8,0.5,4.7,2.7,5.6c-7.4,10.8-14.9,15.7-23.1,14.9
	c-5.8-0.6-8.4-4.7-7.7-12.4c0.3-3,1.1-6.4,2.7-10.2c3-7.3,7.3-13.7,12.9-19c5.4-5.1,11.2-7.2,17-6.4c3.1,0.4,5.3,1.7,6.6,3.7
	C299.3,110.6,299.7,113,299.3,115.7z"/>
<path fill="#141414" d="M216.1,180.7c0,2.2-0.1,4.7-0.4,7.6c-0.4,4.4-1,7.6-1.7,9.6c-0.7,2-1.7,3-3,3c-2.9,0-4.6-4.5-5.3-13.5
	c-0.2-2.2-0.2-3.9-0.2-5c0-1.3,0.2-2.6,0.5-3.9c0.3-1.2,0.9-2.3,1.8-3.1c0.9-0.8,2-1.2,3.6-1.2C214.5,174.3,216.1,176.4,216.1,180.7
	z M407.7,262.6c-0.3,0.5-1,1.2-1.5,1.5c-3.1,1.9-11.3,3.6-12.2,2.6c-0.2-0.2-1.2-1.1-2.2-2c-2.3-2-4.2-4.1-7-7.8
	c-2.4-3.1-7.2-9.8-8.5-11.6c-0.6-0.8-1-1.2-1.3-1.3c-0.9,0-0.2,1.7,2.4,6c2.9,4.9,6.4,9.9,9.7,14l2.4,3l-1.9-0.1
	c-4.6-0.2-10-1.1-15.7-2.7c-4.9-1.3-6.3-2-7.4-3.2c-1.3-1.5-6.6-9.6-8.2-12.7c-1.6-3-2.1-3.5-2.5-2.5c-0.3,0.6-0.3,0.8,1,4.1
	c1.4,3.5,2.4,5.6,3.8,7.9c0.5,0.8,0.8,1.5,0.8,1.5c-0.2,0.2-17.6-7.9-19.5-9c-1.2-0.7-2.1-2-6.5-8.9c-1-1.6-2.1-3.5-2.5-4.3
	c-0.5-1-0.8-1.4-1.1-1.3c-0.3,0.1-0.3,0.4,0,2.6c0.4,2.8,0.9,4,2.5,6.6c0.5,0.8,1,1.5,1.1,1.7c0.4,0.7-8.2-4.3-12.5-7.2
	c-5.3-3.6-10.1-7.7-15-12.9c-0.5-0.5-0.8-0.9-1.2-1.3c-6.4-0.9-12.3-1.6-15.7-2.1c-4.1-0.6-9.5-1.3-15.6-2.1v20.9c0,4-1.3,6.1-4,6.1
	c-1.4,0-2.3-0.5-2.8-1.6c-0.5-1.1-0.7-2.6-0.7-4.5c0-16.5,0.2-29,0.5-37.4c0.2-4.3,0.2-7.5,0.2-9.6c0-0.9-0.2-1.4-0.5-1.4
	c-0.3,0-0.7,0.8-1.1,2.3c-3.4,11.7-7.7,23.4-12.7,35.1c-0.8,1.8-1.9,2.7-3.3,2.7c-1.5,0-2.7-0.9-3.5-2.8
	c-3.4-8.3-7.5-20.6-12.4-36.9c-0.5-1.7-0.9-2.6-1.1-2.6c-0.1,0-0.2,0.5-0.2,1.4c0,1.1,0,2.1,0.1,2.8c0.1,0.8,0.1,2.4,0.2,4.8
	c0.5,12.2,0.8,25.7,0.8,40.3c0,2.4-0.5,4.3-1.5,5.6c-1,1.3-2.5,1.9-4.5,1.9c-3,0-4.8-1.4-5.3-4.1c-0.2-1.2-0.3-2.4-0.3-3.7V184
	c0-6.5,2.2-9.7,6.5-9.7c4,0,6.8,2.5,8.5,7.4c3.1,9.2,5.6,16.9,7.6,23.1c1.3,4.1,2.6,8,3.8,11.8c4.7-12,8.9-24.2,12.7-36.3
	c0.7-2.2,1.6-3.8,2.8-4.7c1.2-0.9,2.4-1.4,3.6-1.4c2.6,0,4.5,1.2,5.5,3.5c0.8,1.7,1.1,3.8,1.1,6.3v30.9c6,0.8,11.8,1.6,17.2,2.3
	c4.2,0.6,8.4,1.2,12.8,1.7c0.4-0.7,1-1.6,1.9-2.9c4.1-5.8,8.2-10.2,13-13.9c0.9-0.7,1.6-1.1,1.6-1c0,0.1-0.1,1.1-0.3,2.1
	c-0.4,2.3-0.6,5.4-0.3,5.9c0.3,0.6,0.7,0.5,1-0.2c0.2-0.3,0.6-1.8,1-3.3c0.4-1.5,1-3.8,1.4-5c0.7-2.2,0.7-2.3,2.1-3.2
	c3.3-2.2,12.4-6.1,12.5-5.4c0,0.2-0.2,1.3-0.5,2.4c-0.8,3.1-2,11.4-1.9,12.3c0.1,0.4,0.3,0.9,0.5,1c0.3,0.2,0.5,0.2,0.9-0.4
	c0.3-0.4,1.6-4.4,3.1-9l2.6-8.4l2.1-0.6c2.7-0.8,7.4-1.8,11-2.3c3.2-0.5,10.7-0.9,11.6-0.8l0.5,0.1l-0.7,1.8
	c-3.9,9.5-4.9,13.4-3.5,13.5c0.5,0,4.4-7.2,7.4-13.6l0.7-1.6l2.8,0.1c5.5,0.2,13,1.3,17.1,2.5c4.7,1.3,8.1,3.4,9.1,5.6
	c0.8,1.6,0.7,2.8-0.3,6.7c-1.1,4.4-2.1,6.8-3.6,10.1c-0.6,1.3-1.6,3.4-2.2,4.8c-0.6,1.3-2.2,4-3.6,6c-1.4,2-2.5,3.7-2.5,3.8
	c0,0.1,1.1,1.4,2.4,3c6.2,7.5,9.1,11.8,12.9,19.3c3.2,6.4,4.5,9.6,4.8,12C408.2,261.5,408.1,261.9,407.7,262.6z M384.2,225
	c-0.1-1-0.2-1.2-0.6-1c-0.3,0.1-3.1,0.3-6.3,0.3c-3.1,0-7.9,0.2-10.7,0.3c-5.7,0.2-33.8-1.5-41.6-2.6c-5.9-0.8-15-2.3-15.6-2.6
	c-0.5-0.2-0.6,0.8-0.2,2.4c0.2,1,0.5,1.1,7.1,2.2c17.8,3.1,39.3,5.2,49.5,4.7c5.5-0.3,13.1-1.1,15.1-1.6c0.9-0.3,2.1-0.6,2.6-0.7
	C384.3,226.2,384.3,226.1,384.2,225z M198.8,180.6c1.5-0.1,2.6-0.2,3.1-0.5c1.1-0.6,1.7-1.5,1.7-2.7c0-1.5-1.3-2.3-3.8-2.3h-16.1
	c-2.5,0-3.8,0.8-3.8,2.3c0,1.2,0.6,2.1,1.7,2.7c0.5,0.3,1.5,0.5,2.9,0.5c1,0.1,1.5,0.6,1.5,1.7v38.2c-19-1.2-36.8-2.2-61.2-3.3
	c-1.3-0.1-3.4-0.2-6.1-0.4c-0.4-3.5-0.9-7-1.6-10.4c-1.1-5.6-1.8-9.7-8.8-9.4c-6.9,0.2-13.7,1.1-20.4,1.9
	c-3.7,0.5-10.5,1.2-15.1,1.6c-4.5,0.4-10.9,1-14.3,1.3c-3.3,0.3-8.4,0.8-11.4,1.1c-5.3,0.5-16.6,2.1-23.7,3.2c-2,0.3-4,0.7-4.4,0.7
	c-0.4,0-1.1,0.5-1.6,0.9c-0.8,0.7-1,1.1-1,2.4c0,1.4,0.1,1.7,1.2,2.8c0.8,0.8,1.7,1.4,2.9,1.8c1,0.3,7.4,2.5,14.2,4.7
	c6.8,2.3,28.2,9.4,47.5,15.8c33.1,11,35.3,11.7,36.6,11.5c1.6-0.3,2.9-1.2,3.3-2.5c0.3-1.1-0.1-4.4-1.4-10.5c-0.4-2.1-0.9-5.3-1.3-9
	c8.7,0.6,14.9,0.9,21.3,1.2c10,0.5,25.8,1.3,35.2,1.9c2.8,0.2,6.2,0.4,10,0.6v11.6c0,0.6-0.2,1-0.5,1.2c-0.3,0.3-0.9,0.4-1.8,0.4
	c-2.5,0-3.8,1-3.8,3.1c0,1.6,1.2,2.5,3.5,2.5h15.9c2.5,0,3.8-0.8,3.8-2.3c0-1.2-0.5-2.1-1.6-2.7c-0.5-0.3-1.5-0.5-2.8-0.6
	c-0.8-0.1-1.2-0.5-1.2-1.3v-58.6C197.5,181.1,197.9,180.7,198.8,180.6z"/>
</svg>
