<?xml version="1.0" encoding="utf-8"?>
<!-- Generator: Adobe Illustrator 18.0.0, SVG Export Plug-In . SVG Version: 6.00 Build 0)  -->
<!DOCTYPE svg PUBLIC "-//W3C//DTD SVG 1.1//EN" "http://www.w3.org/Graphics/SVG/1.1/DTD/svg11.dtd">
<svg version="1.1" id="Layer_1" xmlns="http://www.w3.org/2000/svg" xmlns:xlink="http://www.w3.org/1999/xlink" x="0px" y="0px"
	 viewBox="0 0 432 432" enable-background="new 0 0 432 432" xml:space="preserve">
<path fill="#333333" d="M353.2,189.3 M295.5,244.4c-1.3,3.1-3.3,6-4.2,9.3c-1.2,4.5-0.4,9.3-1.7,13.7c-1.7,5.8-6.9,10-12.2,13
	c-5.9,3.4-13.1,7-14.1,13.7c-0.7,4.4,2.1,9.1,6.3,10.6c4.1,1.5,8.5,0.1,12.8-0.3c6.6-0.7,13.2,0.7,19.7,1.4
	c6.6,0.7,13.6,0.6,19.3-2.8c9.8-5.8,12.1-18.8,18.6-28.2c6.8-9.7,18.6-16,22.7-27.1c2.2-6.1,1.8-12.7,2.3-19.1
	c0.9-10.1,4.2-19.8,5.6-29.7c0.3-1.8,0.4-3.6,0.6-5.4c1.3-17.5-2.5-36.3-9.7-52.2c-4.3-9.6-5.8-19.4-8.9-29.3
	c-0.4-1.2-0.7-2.5-0.9-3.7c-0.5-2.4-0.8-4.9-1.1-7.4c-0.1-0.9-0.2-1.7-0.3-2.6c-0.5-3.4-1.2-6.6-2.2-9.8c-1.2-3.6-2.9-7-5.1-10.1
	c-1.3-1.8-2.7-3.5-4.4-5c-2-1.9-4.1-3.5-6.4-4.9c-5.2-3.2-11.1-5.1-17.2-5.8c-6.9-0.8-14.1,0-20.6,2.4c-1.7,0.6-3.3,1.3-4.9,2.1
	c-4.8,2.5-8.8,5.9-12.2,9.9c-0.2,0.2-0.4,0.4-0.5,0.7c-3.4,4.2-5.9,9-7.6,14.2c-1.2,3.7-1.9,7.5-2.2,11.4c-0.1,1.4-0.1,2.7-0.1,4
	c0,0.2,0,0.4,0,0.7c0.1,5,0.7,9.9,1.8,14.8c2.4,11.4,6.8,22.5,9.6,33.6c2.5,9.7,3.9,19.5,5.6,29.3c1.8,10.9,6.1,20.7,9.9,30.9
	c3.3,8.7,5.6,18.5,2.1,27.4C295.6,244.2,295.6,244.3,295.5,244.4z M274.3,157.3c2.5-9.5,5.5-19.1,9.9-27.9c1.8-3.5,3.9-6.9,5.3-10.6
	c1.8-4.8,3.4-9,7.5-12.4c3-2.5,6.5-4.3,9-7.3c0.1-0.1,0.2-0.2,0.2-0.3c2.7,4,6.5,6.7,11.1,8.1c5.2,1.6,10.3,0.9,15.6,0.8
	c4.1-0.1,7.5,0.7,10.6,3.5c2.1,1.9,3.8,4.2,5.7,6.3c3.1,3.3,6.7,5.9,11.3,6.2c0.5,0,0.7-0.7,0.4-1c-3.8-3.5-6.9-7.3-8.3-12.4
	c-1.2-4.4-1.4-9.1-2.1-13.6c-1.2-7.3-3.7-14.4-8.4-20.2c-16.5-20.7-51-19-66.7,1.6c-8,10.4-10.6,23.8-8.9,36.6
	c0.8,6,2.3,11.8,3.6,17.7c1.8,8.2,3,16.4,3,24.8C273.2,157.9,274.2,157.9,274.3,157.3z M112.5,160.5c-0.9,4.5-8,29.8-10.7,29.8
	c-6.2-0.1,2.8-56.1,2.8-60.8c0.1-4.7-1.8-6.8-4.6-6.9c-7.3-0.1-9.9,18.2-10,29.9c0.1-6.6-2.1-11.6-4.9-11.7
	c-4.2-0.1-5.5,7.9-5.8,10.5c-1.8-3.7-4.9-6.6-10-6.7c-2.3,0-4.1,0.6-5.6,1.4c-1.2,0.8-0.6,1.6,0.3,1.1c0.7-0.4,1.4-0.7,2.1-0.7
	c4.7,0.1,7,8.9,6.8,21.2c-0.2,10.5,1.9,23.3,6,23.4c7,0.1-0.6-48.8,5.7-48.7c2.9,0,1.6,26.6,7,26.7c3,0-0.4-45.4,7.6-45.2
	c6.1,0.1-12.5,68.7,2.4,68.9c3.8,0.1,11.2-27.1,12.2-32.2C113.8,159.7,112.7,159.6,112.5,160.5z M129.9,159.6
	c-0.9,2.7-5.6,15.7-11.3,15.6c-4.1-0.1-5.3-7.2-5.3-7.2s8.4-3.8,8.4-8.2c0-2.4-1.2-5-3.9-5c-4.7-0.1-10.1,4.9-10.2,11.4
	c-0.1,6.4,3.4,11.2,9.1,11.3c8.1,0.1,13.2-14.4,14.1-17.6C131.1,159.2,130.1,158.9,129.9,159.6z M118.4,157.7c1.2,0,1.7,1.1,1.7,2.4
	c0,3.5-6.9,6.5-6.9,6.5S112.4,157.6,118.4,157.7z M150.6,160.1c-1,4.6-6,26.9-7.8,26.9c-2.6,0,6.7-30.5-2.8-30.7c-2.6,0-6.2,2-6.2,2
	s2.5-11.3-1.3-11.4c-2.1,0-3.5,4-3.6,6.9c0,2.4,0.5,5.9,2.6,6c2.5,0,4.4-1.5,5.5-1.5c0,0-1.6,16.2-1.6,18.6
	c-0.1,3.5-0.2,13.2,6.3,13.3c4.1,0.1,8.9-24.9,9.9-29.9C151.8,159.3,150.8,159.1,150.6,160.1z M132.6,158.5c-2,0.4-2.4-1.8-2.4-4.4
	c0-2.2,1.1-5.6,2-5.5C134.9,148.6,132.6,158.5,132.6,158.5z M145.5,156.7c0,1.2,0.9,1.6,1.2,3.5c0.2,2.1,1,26.7,5.8,26.8
	c4.8,0.1,4.4-5.4,4.4-10.2c0.5-3.2,2.5-14.1,4.8-14.1c1.2,0,1.1,5.2,1.1,8.7c0,3.5,1.1,6,2.3,6c1.1,0,1.3-2,1.3-3.2
	c0.1-5.5,4.8-16.9,8.2-16.9c0.9,0-3.6,14.5-3.7,21.3c-0.1,3.9,1,11.3,6,11.3c5.1,0.1,11.3-24.6,12.4-30.1c0.2-1-0.9-1.3-1.2-0.1
	c-1.1,5.1-7.3,28.2-10.9,28.2c-7.1-0.1,6.2-32-1.2-32.1c-8.2-0.1-10.1,16.2-10.9,16.2c-0.5,0,0.8-10.4-3.1-10.5
	c-2.8,0-4.5,4.9-5.4,8.6c0,0-0.6-4.3-0.8-7c-0.3-5.2-3.9-7.7-6.8-7.8C146,155.4,145.5,156,145.5,156.7z M209.2,160.1
	c-1.1,3.2-6.3,17.9-10.6,17.8c-4.5-0.1-1.3-13-1.3-14.3c0-1.2-1-4.4-3-4.4c-0.9,0-1.7,0.9-2.3,2.3c-0.1,0.3-0.3,0.6-0.4,1
	c-0.9,2.3-3.2,7.6-4.5,7.6c-0.8,0-0.9-1.5-0.9-2.8c0.1-4,4.1-12.1,8.1-12.1c3.3,0,4.4,2.9,4.4,1c0-2-1.7-4.3-4.7-4.4
	c-8-0.1-12.5,8.1-12.6,12.5c-0.1,3.9,2.7,7.4,4.7,7.4c1.9,0,3.4-1.5,4.6-3.4c0.1,7.1,2.5,11.7,6.6,11.8c6.5,0.1,11.9-16.4,13-20
	C210.7,159.1,209.5,158.9,209.2,160.1z M227,159.6c-1,2.8-5.5,14.1-8.9,14c-4.6-0.1-1.5-12.2-1.4-16.5c0.1-5.1-5.9-5.8-5.9-3.4
	c0,2.2-1.4,8.9-1.4,13.3c-0.1,4.4,2.5,10.1,6.2,10.1c6.4,0.1,11.5-14.2,12.6-17.5C228.3,158.9,227.3,158.7,227,159.6z M213.9,146.4
	c2.1,0,4.4,1.9,4.5-0.2c0.1-4.5-7.1-7.2-7.1-4.9C211.2,142.6,211.8,146.3,213.9,146.4z M261.1,159.4c-1.3,5-6.9,22.9-11.1,22.9
	c-3.9-0.1-3.1-27-3.1-27s13.2-15.2,13.3-24c0-2.4-0.2-5.3-2.6-5.4c-12.7-0.2-15.5,21.9-15.5,21.9s-1.5-0.8-4.1-0.9
	c-5.3-0.1-12,6.5-12.1,12c-0.1,5.4,1.5,8.7,6.9,8.7c4.6,0.1,7.9-4.4,7.9-4.4s-0.3,22.3,6.2,22.4c9.1,0.1,14.2-21.3,15.4-26.2
	C262.4,158.6,261.4,158.3,261.1,159.4z M240.7,161.5c0,0-4.3,4.3-6.5,4.2c-1,0-1.1-0.9-1-4.6c0.1-5.3,5.3-10,8.2-9.9L240.7,161.5z
	 M257.1,128.4c1.8,0,1.5,2.8,1.5,2.8c-0.1,8.4-11.7,21.6-11.7,21.6C247,145.9,248.1,128.3,257.1,128.4z M111.6,61.2
	c-9.9-0.2-18.9,13.2-19.2,29.9c-0.3,16.5,9.2,32.6,17.7,32.7c12.8,0.2,17.6-27.5,17.8-29c0.2-1.6-1-1.4-1.2-0.2
	c-0.2,1.1-4.9,25.3-14,25.2c-8-0.1-11.4-19-11.3-28.5c0.2-9.6,1.8-26.3,13.3-26.1c6,0.1,6.1,9.3,6.8,11.8c0.3,1.3,1.6,1.2,1.4-0.4
	C122.6,73,122.1,61.4,111.6,61.2z M126.2,89.9c0,0.9-0.8,8.5-0.9,12.5c-0.1,4,1.2,10.1,5.5,10.2c5.9,0.1,8.4-12.6,8.4-12.6
	s-2.1,19.7,5.7,19.8c6.7,0.1,11.2-20.2,12.2-24.7c0.2-1-1.1-1.3-1.4-0.2c-1,4-5.2,23.1-9.8,23c-3.6-0.1,0.5-24.9,0.5-27.2
	c0-2.4-3-4.2-4.9-4.2c-2,0-0.9,0.9-0.9,2.5c0,0.9-4.7,21.1-7.9,21.1c-2.4,0,0.8-12.9,0.8-16.2c0-2.2-3.4-4.9-5.5-4.9
	C125.9,89,126.2,89.4,126.2,89.9z M180.3,94.8c-0.1,5.2-6.5,25.3-11.3,25.3c-4.6,0-5.1-22.3-5-30.3c0.1-5.6,1.2-11.5,2.3-16.8
	c0,0,3.6,0.3,6.8,0.8c1.1,0.2,1.3-1.3,0.2-1.5c-1.8-0.3-4-0.6-6.7-0.8c1.1-5.3,2.2-9.7,2.2-12.4c0.1-5.2-3.9-6.8-5.6-6.8
	c-1.1,0-3.8,9.1-5.6,18.9c-3.1,0.2-5.2,0.5-6.7,0.8c-1.4,0.3-1,1.6,0,1.4c3.2-0.5,6.4-0.6,6.4-0.6c-1,5.3-1.7,10.7-1.8,14.7
	c-0.3,18.1,5.4,35.5,11.5,35.6c8.9,0.2,14.8-23.2,14.9-28.2C181.9,93.7,180.3,93.8,180.3,94.8z M201.3,93.8
	c-1.1,3.4-6.9,19.3-13.9,19.2c-5-0.1-6.5-8.9-6.5-8.9s10.3-4.6,10.4-10.1c0-3-1.5-6.2-4.8-6.2c-5.7-0.1-12.4,6-12.5,14
	c-0.1,7.9,4.1,13.8,11.2,13.9c10,0.2,16.3-17.7,17.5-21.7C202.8,93.3,201.6,92.9,201.3,93.8z M187.2,91.4c1.5,0,2.1,1.4,2.1,2.9
	c-0.1,4.3-8.6,7.9-8.6,7.9S179.8,91.3,187.2,91.4z M228.5,93.5c-1.4,5.6-6.3,9.4-13.9,15.5c-3.6-7.7-10.4-14.8-10.4-19.1
	c0-2.3,3.8-6.3,7.9-6.3c2.7,0,3.2,2.6,4.3,2.6c1.1,0,1.6-0.8,1.7-1.6c0-1.7-3.5-5.4-9-5.5c-5.6-0.1-12.5,4.2-12.6,9.3
	c-0.1,7.4,9.8,16.7,13.6,24.3c-4.2,3.6-7.4,7.1-7.4,9.9c-0.1,4.6,2,7.5,5.3,7.5c3.9,0.1,8.7-6,8.8-12.7c0-2.4-0.6-4.9-1.6-7.3
	c7.7-6.4,13.5-11,14.7-16.9C230.2,92.3,228.8,92.3,228.5,93.5z M207.4,125.9c-1.9,0-2.5-2.2-2.5-4.1c0-2.1,2.4-4.8,5.8-7.8
	c0.6,1.4,0.9,2.8,0.9,4C211.6,120.1,209.8,126,207.4,125.9z M251.5,94.8c-0.1,5.2-6.5,25.3-11.3,25.3c-4.6,0-5.1-22.3-5-30.3
	c0.1-5.6,1.2-11.5,2.3-16.8c0,0,3.6,0.3,6.8,0.8c1.1,0.2,1.3-1.3,0.2-1.5c-1.8-0.3-4-0.6-6.7-0.8c1.1-5.3,2.2-9.7,2.2-12.4
	c0.1-5.2-3.9-6.8-5.6-6.8c-1.1,0-3.8,9.1-5.6,18.9c-3.1,0.2-5.2,0.5-6.7,0.8c-1.4,0.3-1,1.6,0,1.4c3.2-0.5,6.4-0.6,6.4-0.6
	c-1,5.3-1.7,10.7-1.8,14.7c-0.3,18.1,5.4,35.5,11.5,35.6C247,123.3,253,100,253,95C253.1,93.7,251.5,93.8,251.5,94.8z M129,250.6
	c-5.3,0.6,3.4-49.2-11.9-47.4c-6.1,0.7-7.7,8.2-8.1,11.3c0,1.4,1.6,1.1,1.8,0c0.4-3,1.9-9,6.3-9.6c5-0.6-4,49.8,11.4,47.9
	c5.8-0.7,9-27.1,9-27.1s2.1,35.4,10.4,34.4c8.3-1,11.5-29.5,11.3-35.8c0.1-1.5-1.2-1.5-1.4,0.1c0,5.8-3.3,32.8-9.8,33.6
	c-5.5,0.7-2.8-55.1-3.2-58.2c-0.4-3.2-1.8-5.4-4.8-5.1c-2,0.2-2.2,1.5-2,3.6C138.3,199.6,134,250,129,250.6z M159.4,240.3
	c2.6-0.3,3.4-1.6,3.3-2.7c-0.9-7.7,1.8-24.6,5-25c3.9-0.5-1,42.2,10.7,40.8c4-0.5,7.9-27.1,8.3-33c0.1-1.1-1.2-1.2-1.3,0
	c-0.5,5.4-4.3,30.3-7.3,30.7c-3.7,0.4-1.5-23.6-2.4-31.5c-0.5-4.6-1.8-9.5-7.1-8.9c-4.2,0.5-6.8,11.3-6.8,11.3s-0.6-8.1-7.8-7.2
	c-1.7,0.2-2.3,0.6-2.2,1.8c0.1,1.2,1.2,0.7,1.7,4.5C153.9,224.9,155,240.8,159.4,240.3z M221.3,215.1c-0.7,5.8-4.3,27-9.1,27.6
	c-4.4,0.5-7.7-30.1-7.7-30.1s12.6-19.2,11.4-29.2c-0.3-2.7-1-6-3.7-5.7c-14.4,1.7-14.2,27.2-14.2,27.2s-1.9-0.7-4.8-0.4
	c-6.1,0.7-12.6,9.2-11.9,15.4c0.7,6.1,3,9.6,9.1,8.8c5.2-0.6,8.3-6.2,8.3-6.2s3,25.3,10.4,24.4c10.3-1.2,12.8-26.3,13.4-32
	C222.7,214.1,221.5,213.9,221.3,215.1z M198.6,220.7c0,0-4.2,5.5-6.7,5.8c-1.1,0.1-1.4-0.9-1.9-5.1c-0.7-6.1,4.4-12.1,7.7-12.5
	L198.6,220.7z M212.1,180.8c2.1-0.3,2.1,2.9,2.1,2.9c1.1,9.5-10,26.2-10,26.2C203.3,202.1,201.9,182,212.1,180.8z M242.9,212.1
	c-0.6,3.2-3.9,18.6-10.4,19.4c-4.6,0.6-7.1-7.4-7.1-7.4s8.9-5.5,8.3-10.6c-0.3-2.7-2.1-5.5-5.2-5.1c-5.3,0.6-10.6,7.1-9.8,14.5
	c0.9,7.2,5.5,12.2,12,11.4c9.2-1.1,12.7-18.3,13.3-22.1C244.2,211.4,243,211.2,242.9,212.1z M229.6,211.7c1.4-0.2,2.1,1,2.3,2.4
	c0.5,3.9-6.9,8.4-6.9,8.4S222.8,212.5,229.6,211.7z M266.3,209.4c-0.4,5.3-2.6,31.3-4.7,31.6c-3,0.4,2.8-35.6-7.9-34.3
	c-2.9,0.4-6.7,3.2-6.7,3.2s1.1-13.2-3.2-12.7c-2.3,0.3-3.4,5-3,8.4c0.3,2.7,1.4,6.7,3.9,6.4c2.8-0.3,4.7-2.4,6-2.6
	c0,0,0.7,18.6,1,21.3c0.5,4,1.8,15,9.2,14.1c4.7-0.6,6.3-29.5,6.6-35.4C267.6,208.3,266.4,208.3,266.3,209.4z M245.8,210.4
	c-2.2,0.8-3-1.6-3.4-4.6c-0.3-2.5,0.4-6.5,1.4-6.6C246.8,198.8,245.8,210.4,245.8,210.4z M63.9,252.4c0.1-0.8-1.3-1.3-1.4-0.2
	c0,0.6,0.3,4.6-7.9,3.7c-5.1-0.6-10.3-2.4-16.5-3.2c-12.8-1.6-15.4,4.9-15.9,8.9c-0.6,4.9,2.7,6.8,4.4,7c1.3,0.2,1.4-1.3,0.2-1.5
	c-1.3-0.2-3.5-1.4-3-5.4c0.5-4,3.9-8.1,9.6-7.4c2.1,0.2,3.9,0.5,5.4,0.9c-0.6,0.2-0.6,0.5-0.6,0.5c-0.3,2.5,1.5,12.3-0.4,27.6
	c-1.8,15.2-5.2,24.4-9,23.9c-3.9-0.5-3.8-4.6-3.4-7.6c0.2-1.4-1.3-1.6-1.5-0.2c-0.4,3.4-1.1,9.3,5.2,10c9.3,1.1,15.3-11.1,17.4-28.6
	c1.5-12.4,1.1-21.3-2.3-24.6c3.4,0.9,6.4,1.7,11.2,2.3C64,259.8,63.8,252.9,63.9,252.4z M84.9,283.1c-1.1,4.7-9.4,31.9-13.5,31.4
	c-2.6-0.3-2.3-6.5-1.3-14.3c1.5-12.7,12.6-33,1.6-34.3c-7.6-0.9-10.2,13-11,19c-0.9-5.2-2.3-13.6-2.3-20.8
	c4.9-3.5,16.7-12.7,17.5-19.4c0.4-3.6-0.3-7.9-5.5-8.5c-10.9-1.3-18.7,11.2-20,21.9c-2.9,24,3.4,33.1,5,33.3
	c1.7,0.2,5.8,0.3,6.1-1.6c0,0,0,0,0,0c1.2-3.9,2.2-23.4,10.7-22.3c1.7,0.2,1.4,2.9,1.3,4c-0.8,6.9-7.2,17.4-8.7,30.5
	c-1,8.5,1.1,14.3,5.1,14.8c7,0.8,14.9-28.6,16.2-33.5C86.2,282.1,85.1,282,84.9,283.1z M58.6,258.6c1.3-11.1,6.3-19.1,13-18.3
	c1.3,0.2,2.5,1.5,2.2,4c-0.7,5.8-11,13.9-15.5,17.2C58.4,260.5,58.5,259.5,58.6,258.6z M103.5,285.1c-1.3,2.9-8,16.7-14.3,15.9
	c-4.5-0.5-5-8.6-5-8.6s9.7-3.2,10.3-8.1c0.3-2.7-0.7-5.7-3.7-6c-5.1-0.6-11.7,4.2-12.6,11.4c-0.8,7.1,2.4,12.8,8.8,13.5
	c9,1.1,16.3-14.4,17.7-17.9C104.9,284.8,103.8,284.4,103.5,285.1z M91,281.7c1.4,0.2,1.8,1.4,1.6,2.8c-0.5,3.8-8.4,6.3-8.4,6.3
	S84.4,280.9,91,281.7z M144.3,289c-1.8,4.9-6.6,7.9-13.9,12.6c-2.5-7.3-8-14.3-7.5-18.1c0.3-2.1,4-5.3,7.6-4.9
	c2.4,0.3,2.6,2.6,3.6,2.7c1,0.1,1.5-0.5,1.6-1.3c0.2-1.6-2.6-5.2-7.6-5.8c-5-0.6-11.6,2.6-12.2,7.2c-0.8,6.7,7.2,15.9,9.9,23.1
	c-4.1,2.9-7.3,5.7-7.6,8.2c-0.5,4.1,1.1,6.9,4.1,7.2c3.5,0.4,8.3-4.6,9-10.6c0.3-2.2-0.1-4.5-0.7-6.7c7.5-5,13.2-8.6,14.8-13.8
	C146,288.1,144.7,288,144.3,289z M122.3,316.2c-1.7-0.2-2.1-2.2-1.9-3.9c0.2-1.9,2.6-4.1,5.9-6.5c0.4,1.3,0.6,2.6,0.4,3.7
	C126.6,311.4,124.4,316.5,122.3,316.2z M163.9,291.3c-1.3,2.9-8,16.7-14.3,15.9c-4.5-0.5-5-8.6-5-8.6s9.7-3.2,10.3-8.1
	c0.3-2.7-0.7-5.7-3.7-6c-5.1-0.6-11.7,4.2-12.6,11.4c-0.8,7.1,2.4,12.8,8.8,13.5c9,1.1,16.3-14.4,17.7-17.9
	C165.3,291,164.2,290.6,163.9,291.3z M151.4,287.9c1.4,0.2,1.8,1.4,1.6,2.8c-0.5,3.8-8.4,6.3-8.4,6.3S144.8,287.1,151.4,287.9z
	 M191.2,294.9c-1.6,3.4-9,19-13.8,18.4c-4.9-0.6,0.1-14.6,0.3-15.9c0.2-1.4-0.6-4.9-2.8-5.2c-1-0.1-2,0.8-2.8,2.2
	c-0.2,0.3-0.4,0.7-0.5,1.1c-1.3,2.4-4.4,8-5.9,7.9c-0.9-0.1-0.9-1.7-0.7-3.2c0.5-4.4,6-12.9,10.3-12.4c3.7,0.4,4.5,3.8,4.8,1.6
	c0.3-2.2-1.4-5-4.7-5.4c-8.8-1.1-14.8,7.5-15.4,12.4c-0.5,4.3,2.2,8.4,4.4,8.7c2.1,0.2,3.9-1.3,5.5-3.2c-0.7,7.8,1.4,13.3,5.9,13.8
	c7.2,0.9,15.1-16.8,16.7-20.6C192.9,294,191.6,293.6,191.2,294.9z M276.9,262.9c-0.2,0.2-0.5,0.4-0.6,0.5c-0.3,0.1-2.8,1.1-3.3,1.2
	c-4.8,1.8-7.1,2.4-10.4,2.9c-3,0.4-5.1,0.4-8,0c-1.1-0.2-2.6-0.5-3.9-0.9c-1.1-0.3-2.6-0.9-3.4-1.3c-0.4,0.3-0.9,0.6-1.4,0.8
	c-1.4,0.7-2.5,1.1-4,1.5c-1.1,0.2-2.2,0.4-3.4,0.4c-0.5,0-1,0-1.5-0.1c-2.5-0.2-5.6-0.9-7.8-1.6c-1.8-0.6-3.9-1.7-5.7-2.7
	c-1-0.6-3.9-2.8-5-3.7c-2.4-2.1-3.9-3.6-5.1-5c-2.2-2.7-2-3.6-1.9-3.8c0.2-0.7,0.7-1.2,1.4-1.2c0.7,0,1.3,0.5,1.6,1.1
	c0.3,0.8,1.7,2.6,3.6,4.4c2.6,2.5,5.5,4.7,7.8,6c2.7,1.5,5.5,2.5,8.4,3c3.2,0.6,5,0.6,7.2,0.1c0.8-0.2,1.8-0.5,2.5-0.9
	c0,0,0.1,0,0.1,0c-1.8-1.3-3.3-2.9-4.2-4.6c-0.5-0.9-0.7-1.5-0.8-2.5c-0.2-1.1-0.1-1.9,0-3c0.2-1.5,0.6-2.3,1.4-3.4
	c0.9-1.3,2-2.2,3.6-2.9c0.5-0.3,0.8-0.4,1.4-0.5c0.7-0.1,0.9-0.1,1.4,0c1,0.2,1.8,0.5,2.8,1.1c1.5,0.9,2.4,1.9,3.1,3.5
	c0.4,0.9,0.6,1.5,0.8,2.5c0.3,1.7,0.2,3.1-0.3,4.5c-0.3,1-0.6,1.6-1.4,2.7c-0.6,0.9-1.2,1.6-1.8,2.2c0.1,0.1,0.3,0.1,0.4,0.1
	c4,1.4,7.7,1.8,11.9,1.1c2.9-0.4,4.8-1,9.3-2.6l3-1.1c0.2-0.1,0.6-0.2,0.9-0.2c0.7,0.1,1.2,0.4,1.4,0.9
	C277.3,261.9,277.2,262.5,276.9,262.9z M247.1,261.6c1-0.8,2-1.9,2.5-2.7c1-1.6,1.3-3,1-4.7c-0.1-0.7-0.5-1.7-0.9-2.3
	c-0.4-0.6-0.5-0.7-1.1-1.1c-0.6-0.5-1.1-0.7-1.8-0.9c-0.3-0.1-0.5-0.1-0.7-0.1c-0.1,0-0.2,0-0.3,0.1c-0.5,0.2-1.4,0.7-2,1.2
	c-0.4,0.4-1.1,1.2-1.2,1.6c-0.4,0.9-0.6,2.2-0.4,3.3c0.1,1.1,0.6,2,1.7,3.3C244.9,260,245.8,260.8,247.1,261.6z M267,162.2
	c0.3,0.1,0.6,0.3,0.7,0.4c0.2,0.2,1.9,2.3,2.2,2.7c3.2,4,4.5,5.9,6,8.9c1.4,2.7,2,4.7,2.5,7.6c0.2,1.1,0.3,2.6,0.4,3.9
	c0,1.2,0,2.7-0.2,3.7c0.4,0.3,0.8,0.7,1.2,1.1c1.1,1.1,1.9,2,2.7,3.3c0.6,1,1,2,1.4,3.1c0.2,0.5,0.3,1,0.4,1.4
	c0.6,2.4,0.9,5.6,0.9,7.9c0,1.9-0.3,4.2-0.8,6.3c-0.2,1.1-1.4,4.6-1.9,5.9c-1.2,3-2.1,4.8-3.1,6.4c-1.8,2.9-2.7,3-3,3
	c-0.8,0.1-1.4-0.3-1.6-1c-0.2-0.6,0-1.4,0.5-1.9c0.7-0.6,1.9-2.4,3-4.8c1.6-3.3,2.8-6.7,3.2-9.3c0.6-3.1,0.7-6,0.2-8.9
	c-0.4-3.2-1-4.9-2.2-6.8c-0.4-0.7-1.1-1.5-1.7-2.1c0,0,0,0-0.1-0.1c-0.6,2.1-1.7,4-3,5.4c-0.7,0.7-1.2,1.1-2.1,1.6
	c-1,0.5-1.8,0.7-2.9,0.9c-1.5,0.2-2.4,0.2-3.7-0.3c-1.5-0.5-2.7-1.2-3.9-2.4c-0.4-0.4-0.6-0.7-0.9-1.2c-0.3-0.6-0.4-0.8-0.5-1.4
	c-0.1-1-0.1-1.9,0.2-3c0.4-1.7,1.1-2.9,2.3-4.1c0.7-0.7,1.3-1.1,2.1-1.5c1.5-0.8,2.9-1.1,4.4-1.2c1,0,1.7,0.1,3,0.5
	c1.1,0.3,1.8,0.6,2.6,1c0-0.1,0-0.3,0-0.4c0.1-4.2-0.7-7.9-2.7-11.7c-1.3-2.6-2.5-4.3-5.4-8l-2-2.5c-0.1-0.1-0.4-0.5-0.5-0.8
	c-0.2-0.7,0-1.2,0.5-1.6C265.9,162.1,266.5,162,267,162.2z M275.2,190.9c-1.1-0.7-2.4-1.3-3.4-1.5c-1.8-0.4-3.2-0.3-4.8,0.5
	c-0.6,0.3-1.4,1-1.9,1.6c-0.5,0.6-0.5,0.7-0.7,1.4c-0.2,0.7-0.3,1.2-0.3,2c0,0.3,0,0.6,0.1,0.7c0,0.1,0.1,0.2,0.1,0.3
	c0.3,0.4,1.1,1.1,1.8,1.5c0.5,0.3,1.5,0.6,1.9,0.7c1,0.1,2.3-0.2,3.2-0.6c1-0.5,1.7-1.2,2.5-2.7
	C274.4,193.5,274.8,192.3,275.2,190.9z"/>
<path fill="#45BFBA" d="M127.5,139.5l1-5.1c0-0.2,0.1-0.3,0.3-0.4l4.7-2.1c0.4-0.2,0.4-0.7,0-0.9l-4.5-2.5c-0.2-0.1-0.3-0.2-0.3-0.4
	l-0.5-5.1c0-0.4-0.6-0.6-0.9-0.3l-3.8,3.5c-0.1,0.1-0.3,0.2-0.5,0.1l-5-1.1c-0.4-0.1-0.8,0.3-0.6,0.7l2.2,4.7c0.1,0.2,0.1,0.3,0,0.5
	l-2.6,4.4c-0.2,0.4,0.1,0.8,0.5,0.8l5.1-0.6c0.2,0,0.3,0,0.5,0.2l3.4,3.9C126.9,140,127.4,139.9,127.5,139.5z M122.7,130
	c-1.1-1.1-2.2-2.2-3.4-3.2c-0.3-0.2,0-0.7,0.3-0.5c1.3,1,2.4,2.1,3.5,3.3C123.4,129.9,123,130.3,122.7,130z M126.8,124.7
	c0.2-0.3,0.7,0,0.5,0.3c-0.6,1.3-1.2,2.6-1.6,3.9c-0.1,0.4-0.7,0.2-0.6-0.2C125.6,127.4,126.2,126,126.8,124.7z M122.4,132.4
	c-1,0.8-2,1.6-3,2.4c-0.3,0.3-0.7-0.2-0.4-0.4c1-0.9,2-1.7,3-2.4C122.3,131.8,122.7,132.2,122.4,132.4z M126.9,130.9
	c1.5-0.1,2.9-0.1,4.4-0.1c0.4,0,0.4,0.6,0,0.6c-1.5,0-2.9,0-4.4,0.1C126.5,131.5,126.5,130.9,126.9,130.9z M126.5,137.7
	c-0.6-1.4-1.2-2.8-1.9-4.2c-0.2-0.3,0.4-0.6,0.5-0.3c0.7,1.4,1.3,2.8,1.9,4.2C127.2,137.8,126.6,138.1,126.5,137.7z M158,151.7
	l1.6-8.2c0.1-0.3,0.2-0.5,0.5-0.6l7.7-3.3c0.6-0.3,0.7-1.2,0.1-1.5l-7.3-4.1c-0.2-0.1-0.4-0.4-0.4-0.7l-0.8-8.3
	c-0.1-0.7-0.9-1-1.4-0.5l-6.1,5.7c-0.2,0.2-0.5,0.3-0.8,0.2l-8.2-1.8c-0.7-0.2-1.3,0.5-1,1.2l3.5,7.6c0.1,0.3,0.1,0.6,0,0.8
	l-4.3,7.2c-0.4,0.6,0.1,1.4,0.8,1.3l8.3-1c0.3,0,0.6,0.1,0.7,0.3l5.5,6.3C157,152.6,157.9,152.4,158,151.7z M150.2,136.4
	c-1.7-1.9-3.5-3.6-5.5-5.1c-0.5-0.4,0-1.2,0.5-0.8c2,1.6,3.9,3.4,5.7,5.3C151.3,136.2,150.7,136.8,150.2,136.4z M156.8,127.8
	c0.3-0.6,1.1-0.1,0.8,0.5c-1,2.1-1.9,4.2-2.7,6.3c-0.2,0.6-1.1,0.3-0.9-0.3C154.9,132.1,155.8,130,156.8,127.8z M149.7,140.3
	c-1.7,1.3-3.3,2.6-4.8,4c-0.5,0.4-1.1-0.3-0.7-0.7c1.6-1.4,3.2-2.7,4.8-4C149.5,139.2,150.2,139.9,149.7,140.3z M156.9,137.8
	c2.4-0.1,4.8-0.2,7.2-0.2c0.6,0,0.6,1,0,1c-2.4,0-4.8,0-7.2,0.2C156.3,138.8,156.3,137.9,156.9,137.8z M156.3,148.9
	c-1-2.3-2-4.6-3.1-6.9c-0.3-0.6,0.6-1,0.8-0.5c1.1,2.3,2.1,4.6,3.1,6.9C157.4,149,156.6,149.4,156.3,148.9z M190.2,144.6l0.9-4.8
	c0-0.2,0.1-0.3,0.3-0.4l4.5-1.9c0.4-0.2,0.4-0.7,0-0.9l-4.3-2.4c-0.1-0.1-0.2-0.2-0.3-0.4L191,129c0-0.4-0.5-0.6-0.8-0.3l-3.6,3.3
	c-0.1,0.1-0.3,0.2-0.4,0.1l-4.8-1.1c-0.4-0.1-0.7,0.3-0.6,0.7l2.1,4.4c0.1,0.1,0.1,0.3,0,0.5l-2.5,4.2c-0.2,0.4,0.1,0.8,0.5,0.7
	l4.9-0.6c0.2,0,0.3,0,0.4,0.2l3.2,3.7C189.7,145.1,190.2,145,190.2,144.6z M185.7,135.6c-1-1.1-2.1-2.1-3.2-3
	c-0.3-0.2,0-0.7,0.3-0.5c1.2,0.9,2.3,2,3.3,3.1C186.4,135.5,186,135.9,185.7,135.6z M189.6,130.7c0.2-0.3,0.6,0,0.5,0.3
	c-0.6,1.2-1.1,2.4-1.6,3.7c-0.1,0.3-0.7,0.2-0.5-0.2C188.4,133.2,189,131.9,189.6,130.7z M185.4,137.9c-1,0.7-1.9,1.5-2.8,2.3
	c-0.3,0.2-0.7-0.2-0.4-0.4c0.9-0.8,1.9-1.6,2.8-2.3C185.3,137.3,185.7,137.7,185.4,137.9z M189.6,136.5c1.4-0.1,2.8-0.1,4.2-0.1
	c0.4,0,0.3,0.6,0,0.6c-1.4,0-2.8,0-4.2,0.1C189.3,137.1,189.3,136.5,189.6,136.5z M189.3,143c-0.6-1.3-1.2-2.7-1.8-4
	c-0.2-0.3,0.3-0.6,0.5-0.3c0.6,1.3,1.2,2.7,1.8,4C189.9,143,189.4,143.3,189.3,143z"/>
<path fill="#FFCE82" d="M409.5,209.6c-0.7,0.4-1.6,0.4-2.4,0.3c-1-0.1-2.1-0.2-3.1-0.2c-0.5,0-1,0-1.6,0c-0.1,0-1.2,0.1-1.2,0
	c0.4,0.7,1.4,1.2,2,1.7c0.8,0.6,1.6,1.1,2.4,1.6c0.9,0.6,1.8,1.1,2.5,1.9c0.2,0.2,0.3,0.5,0.2,0.7c-0.1,0.2-0.3,0.3-0.6,0.3
	c-1.4-0.1-2.5-1.1-3.8-1.7c-0.7-0.4-1.5-0.8-2.2-1.1c-0.4-0.2-0.8-0.4-1.1-0.6c-0.1-0.1-1-0.4-1-0.5c0.1,0.4,0.5,0.8,0.8,1.1
	c0.4,0.4,0.8,0.9,1.2,1.3c0.6,0.6,1.2,1.2,1.9,1.8c0.6,0.5,1.1,1,1.5,1.8c0.1,0.2,0.3,0.7,0.2,0.9c-0.2,0.3-0.8-0.2-1-0.3
	c-0.6-0.4-1.2-0.8-1.8-1.3c-0.6-0.4-1.1-1-1.6-1.4c-0.5-0.3-1-0.6-1.4-0.9c-0.6-0.4-1.1-1.1-1.9-1.4c0.3,0.8,1,1.4,1.5,2.1
	c0.3,0.5,0.7,0.8,1.1,1.2c0.3,0.3,0.6,0.5,0.8,0.9c0.3,0.4,0.5,1.2,0.4,1.7c-0.1,0.6-0.7-0.1-1-0.3c-0.6-0.5-1.1-1-1.6-1.6
	c-7-7.3-13.6-12.9-22-18.7c-4.9-3.1-9.3-6.5-13.4-10.2c-1.6-1.5-3.2-3-4.8-4.5c-1.4-1.4-2.8-2.9-4.2-4.3c-2.3-2.3-4.3-4.8-6.9-6.8
	c-0.1-0.1-0.5,4.8-0.6,5.2c-0.4,2.4-1,4.7-1.3,7c-1.5,9.4-0.6,18.4,2.7,27.3c1.7,4.5,3.9,8.9,4.5,13.7c0.5,4.1-0.5,10.5-4.9,12.3
	c-4.7,1.9-11,2.5-16,3.1c-2.8,0.3-6.3,2-9,1.2c-3.5-1-6.4-4.8-7.5-8.1c-1.2-3.5-0.8-7.3-0.5-11c0.5-5,1.3-9.7,0.2-14.7
	c-1-4.5-2.6-8.8-3.8-13.3c-0.3-1.2-0.6-2.5-0.9-3.7c-0.2-0.6-0.3-1.2-0.5-1.9c-0.1-0.3-0.2-0.6-0.2-1c0-0.2-0.2-0.6-0.2-0.7
	c-0.4,1.9,0.1,3.9,0.1,5.8c0,2.7-0.3,5.5-1.2,8c-0.7,1.9-1.8,4.4-3.5,8.2c-1.3,2.9-3,6.6-5.2,11.3c-0.7,1.6-1.5,3.4-2.4,5.3
	c-1.4,3.2-3.1,6.8-4.9,10.9c-1.6,2.8-0.2,6.9-2.6,9.5c-1.5,1.7,1.6-8.1-2.7-4.8c-1.5,1.1-10.3,9-9.8,6.6c1.1-5.6,10.3-9.6,13.7-23.4
	c0.5-2.5,1.3-4.8,2-7.2c0.7-2.2,1.5-4.5,2.2-6.8c1-3.2,1.9-6.5,2.4-10.1c0.1-0.8,0.2-1.7,0.3-2.6c0.5-2.8-0.3-4.8-0.2-7.7
	c0.3-8.9-0.2-14.9,0.6-19.4c0.5-2.8,1.5-4.9,3.6-6.9c1.1-1,2.4-2,4.2-3c1.4-0.8,2.9-1.5,4.8-2.3c1-0.4,2-0.8,3.1-1.2
	c0.5-0.2,1-0.4,1.5-0.6c3.2-2.3,4.2-6.7,2.5-10.4l0-0.3c-1.8,0.2-3.6,0.1-5.5-0.3c-1.4-0.3-2.8-0.7-4-1.3c-1.7-0.7-3.3-1.6-4.9-2.7
	c-1.4-1-2.7-2.2-4-3.4c-4.9-5-8.8-11.2-11.2-17.8c0.4-0.1,0.8-0.4,0.9-0.9c0.2-0.7,0.4-1.5,0.5-2.3c0,0,0.1-0.1,0.1-0.1
	c1.2-2.8,2.6-5.3,3.9-8c0,0,0,0,0,0c2-2.6,4.3-4.7,6.9-6.7c1.2-1,2.5-1.8,3.7-2.8c0.5-0.5,1.1-1.6,1.7-2.2c0,0,0.1,0,0.1,0.1
	c0.5,1.3,1.5,2.4,2.8,3.4c0.1,0.1,0.2,0.2,0.3,0.2c0.1,0,0.1,0.1,0.2,0.1c0,0.1,0.6,0.5,0.6,0.6c0.3,0.2,0.7,0.4,1,0.7
	c0.4,0.4,0.9,0.7,1.4,1c0.1,0,0.1,0.1,0.2,0.1c0.6,0.5,1.3,0.7,2.1,1c1.5,0.5,2.8,1.1,4.3,1.3c0.1,0,0.2,0,0.3,0
	c6,1,12.2,0,18.1,1.4c0.3,1.6,0.5,3.2,0.7,4.7c0.6,5.6,0.4,11.3-1.2,16.7c-0.1,0.4-0.2,0.8-0.4,1.2c-1,2.9-2.5,5.6-4.4,8
	c-0.9,1.2-2,2.2-3.1,3.2c-1.6,1.4-3.4,2.5-5.3,3.4l0.1,0.2c0.8,3.8,2.6,7.2,6.6,7.6c0.2,0,0.4,0,0.6,0c0.6,0,1.2,0,1.7-0.1
	c1.3-0.1,2.5-0.4,3.8-0.6c1.7-0.3,3.4-0.6,5.1-0.5c0.1,0,0.3,0,0.4,0c2,0.2,3.6,1.2,5.1,2.5c2.8,2.5,4.8,6.4,6.8,9.2
	c0.4,0.6,0.8,1.2,1.3,1.8c1.2,1.8,2.4,3.6,3.7,5.4c1.9,2.8,3.9,5.6,6.2,7.9c0.4,0.5,0.9,0.9,1.3,1.3c6.4,6.1,13.2,11.9,19.8,17.8
	c1.7,1.5,3.5,3.7,5.6,4.5c1,0.3,2.1,0.5,3.1,0.5c1,0,2.1-0.3,3.1-0.2c0.6,0,1.3,0.1,1.9,0.1c0.5,0,0.9-0.1,1.4-0.2
	c0.7-0.1,1.4-0.1,2.1,0c0.2,0,0.6,0.1,0.7,0.3c0.1,0.3-0.1,0.7-0.3,0.8c-0.2,0.2-0.5,0.3-0.8,0.4c-1,0.3-2.1,0.5-3,1.1
	c-0.4,0.2-1,0.4-0.3,0.7c0.6,0.2,1.2,0.4,1.8,0.6c0.9,0.2,1.8,0.3,2.7,0.5c1.5,0.2,2.8,0.5,4.2,0.9
	C409.1,208.7,410.5,209,409.5,209.6z"/>
<path fill="#D4145A" d="M254.4,86c0,0.5,0.1,0.9,0.2,1.4c0.2,0.7,0,1.2-0.6,1.3c-0.7,0.1-0.9-0.4-1-0.9c-0.1-0.4-0.1-0.8-0.2-1.2
	c0-1-0.4-1.7-0.5-2.5c-1.8-9.4-1.3-18.5,2.6-27.4c3.1-7,7.4-13,13.1-18.1c2-1.7,4.1-3.2,6.5-4.3c1-0.5,2-0.9,3.2-0.9
	c1.6,0,2.6,0.9,2.9,2.4c0.2,1.1,0,2.2-0.2,3.3c-0.5,1.9-1.3,3.7-2.4,5.3c-1.7,2.8-3.9,5.2-6.2,7.6c-2.6,2.8-5.2,5.7-7.6,8.8
	c-4.6,6-7.7,12.7-9.4,20.1C254.5,82.5,254.4,84.2,254.4,86z M283.7,53.4c-0.4,0.1-0.9,0.2-1.3,0.3c-3.7,1.2-6.7,3.3-9.4,6.1
	c-6.5,6.9-10.7,15.2-13.6,24.1c-0.4,1.1-0.6,2.3-0.5,3.4c0.1,0.5-0.4,1.3,0.4,1.4c0.7,0.1,0.9-0.6,1.1-1.1c3.6-7,8.7-12.8,14.8-17.8
	c2.8-2.3,5.7-4.4,8.6-6.5c2-1.4,3.9-2.8,5.6-4.6c1.5-1.6,1.4-2.9-0.4-4.2C287.5,53.5,285.7,53.3,283.7,53.4z M165.5,346.9
	c32,15.8,72.1-2.8,84.4-16.6c7.4,4,13.7,9.7,21.2,13.7c8,4.3,16.9,7.3,26,7.6c10.7,0.4,21.3-2.9,30.7-8c0.2-0.1,0.4-0.2,0.6-0.4
	c20.2-11.1,35.6-30.9,40.9-53.3c2.8-12,2.7-24.6-0.1-36.6c-2.6-10.8-7.7-23.7-15.6-31.7c-0.4-0.4-0.8-0.6-1.2-0.8
	c-0.2-0.1-0.4-0.1-0.5-0.2c-3.4-1-8.5,1.8-10.4,2.7c-6.4,3.1-13.7,5-20.7,3.6c-1.8-0.4-3.8-0.8-5.3-0.8c-3.9,0.2-4.1,8.5-4.8,11.6
	c-1.4,5.9-2.4,11.9-3,17.9c-1.1,10.2-1,20.6-3.1,30.7c-2,10.1-6.4,20.1-14.6,26.4c-5.9,4.6-13.7,6.9-21.1,6.2
	c-4.9-0.4-9.6-2-14.4-3.1c-0.1,0-0.1,0-0.2,0c-0.1-2.6-0.1-5.1-0.6-7.6c-1-5.1-3.1-10-5.7-14.5c-2.9-5.2-6.6-10-10.6-14.3
	c-4.4-4.6-9.3-8.7-14.6-12.2c-5.4-3.5-11.3-6.4-17.5-8.2c-6.3-1.9-12.9-2.7-19.4-2.3c-0.6,0-7.1,0.8-7.1,0.9
	c0.5,2.2,0.8,4.4,1.7,6.5c3.8,9.7,9.2,18,15.1,26.5c5.6,8.1,12,15.5,19.4,22.1c-5.7,2-11.2,4.4-16.5,7.3
	c-6.1,3.3-12.3,6.7-17.8,10.9C175,335.5,169.9,340.9,165.5,346.9z M351.7,177.1c-0.7,1.2-2.1,1.9-3.3,2.6c1,0.2,1.7,0.6,2,1.2
	c0.1,0.2,0.2,0.3,0.2,0.5c0.1,0.4,0,0.8-0.2,1.2c-0.2,0.4-0.5,0.8-0.9,1.3c1,1.9,1,3.5,0.4,4.7c-0.4,0.8-1,1.4-1.9,1.8
	c-0.9,0.4-1.9,0.6-2.9,0.7c-2.7,0.1-5.4-0.8-7.7-2.1c-1.5-0.8-2.8-1.8-4-3c-1.1-1.1-2-2.2-2.9-3.4c-2,0.7-4.1,1.3-6.2,1.8
	c-0.3,1.3-0.6,2.6-1.1,3.9c-0.6,1.6-1.4,3-2.3,4.4c-1.5,2.2-3.6,4.1-6,5.2c-1,0.4-1.9,0.6-3,0.7c-1,0-1.8-0.3-2.5-0.8
	c-1-0.8-1.7-2.3-1.6-4.4c-0.6-0.2-1-0.5-1.4-0.8c-0.7-0.6-1-1.3-0.6-2.2c0.2-0.4,0.6-0.9,1.1-1.3c-1.3-0.1-2.9-0.2-4.1-0.9
	c-0.5-0.3-0.8-0.8-0.8-1.4c0-0.3,0.1-0.7,0.3-1c0.1-0.2,0.2-0.4,0.4-0.5c0.1-0.1,0.4-0.4,0.4-0.5c0,0-0.1-0.1-0.3-0.2
	c-0.1-0.1-0.3-0.1-0.3-0.2c-0.2-0.1-0.3-0.2-0.5-0.3c-0.2-0.2-0.4-0.4-0.6-0.6c-0.3-0.6-0.2-1.2,0.1-1.7c0.2-0.3,0.4-0.6,0.7-0.9
	c0.1-0.1,0.2-0.2,0.3-0.2c0.1-0.1,0.1-0.1,0.1-0.2c0-0.2-0.1-0.4-0.1-0.6c0-0.3-0.1-0.5-0.1-0.8c-0.1-1.8,0.4-3.7,1.8-5
	c1.3-1.2,3.2-1.6,4.9-1.7c1.1,0,2.1,0.1,3.2,0.3c1.1,0.2,2.2,0.6,3.3,1.1c1.1,0.5,2.1,1.1,3.1,1.8c1,0.7,1.8,1.6,2.6,2.5
	c0.3,0.3,0.5,0.7,0.8,1c0.2,0.4,0.4,0.8,0.8,1.1c0.2,0.1,0.3,0.2,0.5,0.3c0.1,0.1,0.3,0.2,0.4,0.3c2.1-0.5,4.1-1.1,6.2-1.9
	c0.1-0.1,0.2-0.3,0.3-0.4c0.2-0.4,0.2-0.9,0.2-1.3c0.1-0.4,0.1-0.8,0.2-1.3c0.3-1.2,0.7-2.3,1.2-3.4c0.5-1.1,1.2-2.1,2-3
	c0.7-0.9,1.6-1.7,2.5-2.4c0.8-0.7,1.8-1.2,2.7-1.7c1.6-0.7,3.4-1.1,5.2-0.6c1.8,0.5,3.1,2,3.8,3.7c0.1,0.2,0.2,0.5,0.3,0.7
	c0.1,0.2,0,0.5,0.2,0.6c0,0.1,0.1,0.1,0.2,0.1c0.1,0,0.3,0.1,0.4,0.1c0.4,0.1,0.7,0.3,1,0.5c0.5,0.4,0.9,0.9,0.8,1.5
	c0,0.1,0,0.3-0.1,0.4c0,0.1-0.1,0.3-0.2,0.4c-0.1,0.2-0.2,0.3-0.3,0.5c-0.1,0.1-0.3,0.3-0.3,0.5c0,0,0,0.1,0,0.1c0,0,0,0,0,0h0
	c0.1,0.1,0.4,0.2,0.6,0.3c0.2,0.1,0.4,0.2,0.6,0.3c0.3,0.2,0.5,0.4,0.7,0.7C352.1,176,352,176.6,351.7,177.1z M329.5,181.1
	c0-0.1-0.1-0.2-0.1-0.3c-1.5,0.5-3.1,1-4.7,1.4c0,0.1,0,0.2,0,0.4C326.3,182.1,327.9,181.7,329.5,181.1z"/>
<path d="M323.4,116.1c0.3-0.4,0.6-0.8,1.1-1.2c0.1-0.2,0.2-0.3,0.4-0.5c0,0,0,0-0.1,0c-0.5-0.4,0.1-1.2,0.7-0.9
	c0.2,0.1,0.3,0.2,0.4,0.3c0.1-0.1,0.2-0.1,0.4-0.2c-0.1-0.2-0.3-0.5-0.4-0.7c-0.4-0.5,0.5-1.2,0.9-0.7c0,0,0.1,0.1,0.1,0.1l0,0
	c0,0,0,0,0,0c0.2,0.3,0.4,0.6,0.6,0.9c0-0.5,0-1,0-1.4c0-0.8,1.1-0.8,1.2,0c0.1,0.4,0.1,0.8,0.2,1.3c0.1-0.3,0.2-0.6,0.3-0.9
	c0.2-0.6,1.2-0.6,1.2,0.1c0,0.3-0.1,0.6-0.1,0.9c0,0,0-0.1,0.1-0.1c0.3-0.5,1.3-0.2,1.1,0.4c0,0.1,0,0.1-0.1,0.2
	c0.4-0.3,1.1,0.1,0.9,0.6c0.5-0.1,0.9,0.7,0.4,1.1c-0.5,0.4-1,0.7-1.5,1.1c0.1,0.5,0.1,1.1-0.1,1.7c-0.7,2.2-3.4,3-5.4,2.4
	C323.8,120.1,322.4,117.9,323.4,116.1z M296.6,125.3c0.6,0,1.3,0.1,1.9,0.2c0.3,0.9,1.1,1.7,2.1,2.1c1.8,0.7,4.3-0.4,5.3-2.1
	c0.9-1.6,0.4-3.8-1.4-4.5c-0.3-0.1-0.6-0.2-1-0.2c0,0-0.1-0.1-0.1-0.1c-0.2-0.1-0.4-0.1-0.6-0.2c0,0,0,0,0-0.1
	c0.2-0.7-0.7-0.9-1.1-0.4c-0.1,0.1-0.2,0.3-0.2,0.4c-0.1,0-0.3,0-0.4,0.1c0-0.3,0-0.5,0-0.8c0.1-0.7-1-0.8-1.2-0.1c0,0,0,0.1,0,0.1
	l0,0c0,0,0,0,0,0c-0.1,0.4-0.1,0.8,0,1.2c-0.3-0.4-0.5-0.8-0.8-1.2c-0.4-0.7-1.3-0.1-1,0.6c0.2,0.4,0.3,0.8,0.5,1.1
	c-0.2-0.2-0.5-0.4-0.7-0.7c-0.5-0.5-1.3,0.2-0.9,0.7c0.2,0.2,0.4,0.5,0.5,0.7c-0.1,0-0.1-0.1-0.2-0.1c-0.6-0.3-1.2,0.5-0.7,0.9
	c0,0,0.1,0.1,0.1,0.1c-0.5-0.1-0.8,0.6-0.5,1C295.9,124.4,296,125.3,296.6,125.3z"/>
<path fill="#FFFFFF" d="M326.8,116.9c0-0.1,0-0.2,0-0.3c0-0.1,0-0.3,0.1-0.4c0,0,0-0.1,0-0.1c0-0.1,0.1-0.2,0.1-0.2c0,0,0,0,0,0
	c0,0,0,0,0-0.1c0,0,0.1-0.1,0.1-0.1c0.1-0.1,0.2-0.1,0.2-0.1c0,0,0,0,0,0c0.2,0,0.4,0,0.6,0.1l0,0c0,0,0,0,0,0c0,0,0,0,0,0
	c0,0,0,0,0.1,0c0.1,0,0.1,0.1,0.2,0.1c0,0,0,0,0,0c0.1,0.1,0.2,0.2,0.2,0.3c0,0,0,0.1,0.1,0.1c0,0.1,0.1,0.2,0.1,0.3c0,0,0,0,0,0
	c0,0,0,0.1,0,0.1c0,0.2,0,0.4,0,0.5c0,0,0,0.1,0,0.1c0,0,0,0.1,0,0.1c0,0.1-0.1,0.2-0.2,0.3c-0.1,0.1-0.1,0.1-0.2,0.2
	c-0.1,0-0.1,0.1-0.2,0.1c0,0,0,0,0,0c0,0-0.1,0-0.1,0c0,0,0,0,0,0c-0.1,0-0.2,0-0.3,0c-0.1,0-0.1-0.1-0.2-0.1
	c-0.3-0.2-0.5-0.4-0.6-0.8C326.9,117,326.9,117,326.8,116.9z M325.8,119.3C325.8,119.3,325.8,119.3,325.8,119.3
	c0.2,0.1,0.3,0.2,0.5,0.1c0,0,0,0,0,0l0,0c0.2-0.1,0.3-0.3,0.4-0.5c0-0.1,0-0.3,0-0.4l0,0c0-0.1-0.1-0.2-0.1-0.2c0,0,0,0,0,0
	c-0.1-0.1-0.2-0.2-0.3-0.3c0,0-0.1,0-0.1-0.1c-0.1,0-0.2,0-0.3,0c0,0,0,0-0.1,0c-0.1,0-0.1,0.1-0.2,0.1c0,0,0,0,0,0.1
	c0,0.1-0.1,0.1-0.1,0.2c0,0.1,0,0.3,0,0.5C325.6,119.1,325.7,119.2,325.8,119.3z M301.1,125.1c0.2,0.2,0.4,0.2,0.6,0.2
	c0.1,0,0.1,0,0.2,0l0,0c0,0,0.1,0,0.1,0c0,0,0.1,0,0.1-0.1c0.1,0,0.1-0.1,0.2-0.2c0.1-0.1,0.1-0.1,0.1-0.2c0.1-0.3,0.1-0.6,0-0.9
	c0,0,0,0,0,0c0-0.1-0.1-0.3-0.2-0.4c-0.1-0.1-0.2-0.3-0.3-0.3c0,0,0,0-0.1,0c-0.1-0.1-0.2-0.1-0.3-0.1c0,0,0,0,0,0c0,0,0,0,0,0
	c-0.1,0-0.2,0-0.3,0c0,0-0.1,0-0.1,0c0,0,0,0-0.1,0c-0.2,0.1-0.3,0.2-0.4,0.3c0,0,0,0,0,0l0,0c0,0,0,0,0,0c0,0,0,0,0,0
	c0,0.1,0,0.1-0.1,0.2c0,0,0,0,0,0c0,0.1-0.1,0.3-0.1,0.4c0,0,0,0,0,0c0,0.1,0,0.2,0,0.4c0,0,0,0,0,0c0,0,0,0.1,0,0.1
	c0.1,0.2,0.2,0.3,0.3,0.5C300.9,125,301,125,301.1,125.1C301,125.1,301,125.1,301.1,125.1C301,125.1,301,125.1,301.1,125.1z
	 M303.6,125.4c0.2,0.2,0.4,0.3,0.6,0.3l0,0l0,0c0.2,0,0.3-0.2,0.4-0.3c0,0,0,0,0,0c0.1-0.2,0.1-0.3,0-0.5c0-0.2-0.1-0.3-0.2-0.4
	c-0.1-0.1-0.2-0.1-0.2-0.2c0,0,0,0-0.1,0c-0.1,0-0.1,0-0.2,0c0,0-0.1,0-0.1,0c-0.1,0-0.2,0.1-0.3,0.2c0,0,0,0,0,0
	c-0.1,0.1-0.1,0.2-0.1,0.3c0,0,0,0,0,0c0,0.1,0,0.2,0,0.3c0,0,0,0,0,0C303.5,125.2,303.5,125.3,303.6,125.4z"/>
<path fill="#DEB371" d="M315.4,130.5c-0.5-0.5,0.3-1.4,0.8-0.8c0.6,0.6,1.6,0.5,2.1-0.2c0.4-0.6,1.4-0.1,1,0.5
	C318.5,131.3,316.6,131.6,315.4,130.5z"/>
<path fill="#FF8A8A" d="M315.1,137c0.2,0.1,0.4,0.1,0.6,0.2c0-0.4,0-0.7,0.1-1c0.1-0.3,0.2-0.6,0.5-0.8c0.3-0.2,0.6-0.1,0.9,0
	c0.6,0.2,1.3,0.5,1.8,1c0.1-0.6,0.3-1.2,0.8-1.4c0.3-0.1,0.7-0.1,1.1,0.1c0.6,0.2,1.3,0.4,1.7,0.9c0.3-0.2,0.6-0.4,0.9-0.6
	c0.8-0.6,1.7,0.8,0.8,1.4c-0.4,0.3-0.9,0.6-1.4,0.8c-0.2,0.5-0.6,1-1,1.4c-1,1-2.6,1.4-4,1.1c-0.4-0.1-0.8-0.2-1.1-0.4
	c-0.2-0.2-0.4-0.4-0.6-0.6c-0.6-0.1-1.3-0.3-1.9-0.6C313.4,138,314.2,136.6,315.1,137z"/>
<path fill="#D3698E" d="M86.8,194.6c-8.7-0.2-11,10.2-8.6,17c-7.2-0.7-15.7,4.6-14.3,12.8c1.9,11.2,16.1,7.6,23.4,6.3
	c2.9-0.5,5.9-0.9,8.7,0c1,0.3,1.7,0.9,2.6,0.2c0.8-0.6,0.5-1,0.5-1.8c0-1.3-1-2.9-1.2-4.3c-0.3-2-0.3-4.1-0.2-6.2
	c0.2-5.2,1.3-10.6-1.2-15.5C94.7,199.2,91.2,195.5,86.8,194.6z M94.8,207.4c1.2,6.5-0.8,13.2,0.4,19.8c-6-0.9-11.7,1.6-17.7,2.1
	c-4.2,0.3-10.1-1.1-10.6-6.1c-0.6-5.5,5.5-9.2,10.4-8.6c1.4,0.2,4,2.1,5.3,0.6c1-1.1,0.2-1.9-0.4-2.9c-1.1-1.8-1.8-3.4-2-5.6
	c-0.1-1,0-2,0.2-2.9c0.5-2.7,1.3-3.5,3.6-4.8c2.4-1.4,2.5-1.5,4.7-0.2c1,0.6,1.9,1.4,2.7,2.3C93.1,203,94.1,205.1,94.8,207.4z
	 M103.2,239.8c-5.9-0.1-7.5,7-5.9,11.5c-4.9-0.5-10.7,3.1-9.7,8.7c1.3,7.6,11,5.1,16,4.3c2-0.3,4-0.6,5.9,0c0.7,0.2,1.1,0.6,1.8,0.1
	c0.5-0.4,0.3-0.7,0.4-1.2c0-0.9-0.7-2-0.8-2.9c-0.2-1.4-0.2-2.8-0.1-4.2c0.1-3.6,0.9-7.2-0.8-10.6
	C108.5,242.9,106.2,240.3,103.2,239.8z M108.6,248.5c0.8,4.4-0.6,9,0.3,13.5c-4.1-0.6-8,1.1-12.1,1.4c-2.8,0.2-6.9-0.7-7.2-4.2
	c-0.4-3.8,3.7-6.3,7.1-5.8c0.9,0.1,2.7,1.4,3.6,0.4c0.7-0.7,0.1-1.3-0.3-2c-0.7-1.2-1.2-2.3-1.3-3.8c-0.1-0.7,0-1.4,0.1-2
	c0.3-1.8,0.9-2.4,2.4-3.3c1.6-1,1.7-1,3.2-0.1c0.7,0.4,1.3,1,1.9,1.6C107.4,245.5,108.1,246.9,108.6,248.5z"/>
</svg>
