<?xml version="1.0" encoding="utf-8"?>
<!-- Generator: Adobe Illustrator 18.0.0, SVG Export Plug-In . SVG Version: 6.00 Build 0)  -->
<!DOCTYPE svg PUBLIC "-//W3C//DTD SVG 1.1//EN" "http://www.w3.org/Graphics/SVG/1.1/DTD/svg11.dtd">
<svg version="1.1" id="Layer_1" xmlns="http://www.w3.org/2000/svg" xmlns:xlink="http://www.w3.org/1999/xlink" x="0px" y="0px"
	 viewBox="0 0 432 432" enable-background="new 0 0 432 432" xml:space="preserve">
<path fill="#231F20" d="M64.7,160.5c-10,0-17.8-4.1-23.4-12.4C34.4,137.8,31,122.5,31,102.2c0-27.5,6.4-45.1,19.3-52.8
	c4.2-2.6,9.5-3.8,15.9-3.8c9.4,0,16.2,3.7,20.3,11.1c3.4,6.2,5.1,14.3,5.1,24.4c0,6.4-0.5,11.4-1.6,15.1c-1.1,3.6-2.7,5.5-4.7,5.5
	c-1.5,0-2.7-0.4-3.4-1.3c-0.9-1-1.4-2.7-1.4-5.1c0-1.9,0.2-3.9,0.5-6.2c0.4-2.9,0.7-6.2,0.7-10c0-5-0.6-9.3-1.8-13.1
	c-2.2-6.7-5.7-10-10.7-10c-5.9,0-10.5,3.2-13.7,9.7c-3.8,7.6-5.7,18.6-5.7,33.1c0,15.2,1.6,27.5,4.7,37c2.9,8.8,7.1,13.2,12.5,13.2
	c2.7,0,5.1-0.8,7.3-2.3c2.2-1.5,4-3.5,5.4-5.8c1.4-2.4,2-4.8,2-7.3c0-1.7-1.1-2.6-3.2-2.6c-2.3,0-4.5,0-6.8,0.1l-3.5,0.1
	c-1.8,0-3.2-0.5-4.2-1.6c-1-1.1-1.5-2.2-1.5-3.4c0-2,0.7-3.4,2-4.2c1.3-0.9,3.3-1.3,5.8-1.3c8.1,0,13.4,0.6,15.9,1.7
	c3.2,1.4,4.9,4.9,4.9,10.5c0,4.7-1.2,9.1-3.5,13.3c-2.4,4.2-5.5,7.6-9.5,10.3C74,159.1,69.6,160.5,64.7,160.5z M132.9,160.5
	c-6.7,0-11.9-1-15.6-3c-6.7-3.6-10.5-10.2-11.4-19.8c-0.4-4.3-0.6-8.9-0.6-13.7V62.2c0-3.2,0.3-5.9,1-8.2c1.4-4.8,5-7.2,10.8-7.2
	H137c1.4,0,2.9,0.1,4.6,0.3c4.1,0.5,6.1,2.3,6.1,5.5c0,1.2-0.6,2.3-1.9,3.4c-1.3,1.1-3.2,1.6-5.8,1.6c-1.9,0-3.8,0-5.6-0.1
	c-1.9-0.1-3.8-0.1-5.6-0.1c-3.5,0-5.2,2-5.2,5.9v52.4c0,2.3,0.3,3.7,1,4.4c0.7,0.6,1.7,1,3.1,1c2.1,0,4.1,0,6.2-0.1
	c2.1-0.1,4.2-0.1,6.2-0.1c2.5,0,4.4,0.4,5.6,1.1c1.5,0.9,2.2,2.4,2.2,4.4c0,1.2-0.5,2.2-1.5,3c-1,0.8-2.4,1.3-4.1,1.3l-15.3-0.2
	c-2.4,0-3.5,1-3.5,3.1v3.4c0,3.6,0.7,6.4,2,8.4c2.1,3,6.2,4.5,12.3,4.5c1.9,0,3.8-0.1,5.7-0.3c1.9-0.2,3.8-0.3,5.7-0.3
	c1.3,0,2.4,0.3,3.4,0.9c1,0.6,1.4,1.5,1.4,2.7c0,2.4-1.6,4.3-4.7,5.6C146,159.8,140.6,160.5,132.9,160.5z M189.1,148.1
	c0,8.2-3.1,12.3-9.4,12.3c-2.8,0-4.7-0.6-5.9-1.9c-0.8-0.8-1.5-1.8-1.8-3c-0.6-1.7-0.9-4.4-0.9-8V59.1c0-1.2-0.6-1.8-1.7-1.8h-8
	c-2.4,0-4.2-0.5-5.5-1.5c-1.3-1-1.9-2.1-1.9-3.2c0-1.8,0.6-3.1,1.8-4c1.2-0.8,2.6-1.4,4.3-1.5c1.7-0.2,3.2-0.3,4.6-0.3h30.8
	c1.4,0,2.9,0.1,4.6,0.3c1.7,0.2,3.1,0.7,4.3,1.5c1.2,0.8,1.8,2.2,1.8,4c0,1.2-0.6,2.3-1.9,3.2c-1.3,1-3.1,1.5-5.5,1.5h-8
	c-1.2,0-1.8,0.6-1.8,1.8V148.1z M270.7,160.5c-6,0-10.9-1.3-14.9-3.8c-4-2.5-7.2-5.8-9.7-10c-2.5-4.1-4.4-8.7-5.7-13.8
	c-1.3-5.1-2.2-10.3-2.6-15.6c-0.4-5.3-0.6-10.3-0.6-15.1c0-18.4,3.2-32.7,9.6-42.9c5.7-9.2,14.1-13.7,25.1-13.7
	c15.1,0,24.9,9.8,29.7,29.4c1.7,7.1,2.5,14.9,2.5,23.2c0,12-0.9,22.5-2.8,31.5C297,150.2,286.8,160.5,270.7,160.5z M273.8,149.4
	c8.3,0,13.8-7.2,16.8-21.5c1.5-7.4,2.2-17.6,2.2-30.6c0-7.4-0.6-14.1-1.7-20.2c-1.3-7.5-3.5-13.2-6.6-16.9c-2.5-3.1-5.6-4.6-9.4-4.6
	c-6.2,0-10.9,3.9-14,11.7c-3.2,8.1-4.9,19.3-4.9,33.6c0,15.5,1.7,27.8,5.1,36.8C264.2,145.5,268.4,149.4,273.8,149.4z M327.9,160.5
	c-4.7,0-7.4-2.2-8.1-6.7c-0.3-2-0.5-4-0.5-6.2V62.2c0-3.2,0.3-5.9,1-8.2c1.4-4.8,5-7.2,10.8-7.2h21.4c1.4,0,2.9,0.1,4.6,0.3
	c4.1,0.5,6.1,2.3,6.1,5.5c0,1.2-0.6,2.3-1.9,3.4c-1.3,1.1-3.2,1.6-5.8,1.6c-1.9,0-4,0-6.4-0.1c-2.4-0.1-4.5-0.1-6.4-0.1
	c-3.5,0-5.2,2-5.2,5.9v52.4c0,2.3,0.3,3.7,1,4.4c0.7,0.6,1.7,1,3.1,1c2.1,0,4.1,0,6.2-0.1c2.1-0.1,4.2-0.1,6.2-0.1
	c2.5,0,4.4,0.4,5.6,1.1c1.5,0.9,2.2,2.4,2.2,4.4c0,1.2-0.5,2.2-1.5,3c-1,0.8-2.4,1.3-4.1,1.3l-15.3-0.2c-2.4,0-3.5,1-3.5,3.1v14.8
	c0,2.1-0.3,4.1-0.8,6c-0.6,1.9-1.5,3.4-2.9,4.6C332.2,159.9,330.3,160.5,327.9,160.5z M380.2,160.5c-4.7,0-7.4-2.2-8.1-6.7
	c-0.3-2-0.5-4-0.5-6.2V62.2c0-3.2,0.3-5.9,1-8.2c1.4-4.8,5-7.2,10.8-7.2h21.4c1.4,0,2.9,0.1,4.6,0.3c4.1,0.5,6.1,2.3,6.1,5.5
	c0,1.2-0.6,2.3-1.9,3.4c-1.3,1.1-3.2,1.6-5.8,1.6c-1.9,0-4,0-6.4-0.1c-2.4-0.1-4.5-0.1-6.4-0.1c-3.5,0-5.2,2-5.2,5.9v52.4
	c0,2.3,0.3,3.7,1,4.4c0.7,0.6,1.7,1,3.1,1c2.1,0,4.1,0,6.2-0.1c2.1-0.1,4.2-0.1,6.2-0.1c2.5,0,4.4,0.4,5.6,1.1
	c1.5,0.9,2.2,2.4,2.2,4.4c0,1.2-0.5,2.2-1.5,3c-1,0.8-2.4,1.3-4.1,1.3l-15.3-0.2c-2.4,0-3.5,1-3.5,3.1v14.8c0,2.1-0.3,4.1-0.8,6
	c-0.6,1.9-1.5,3.4-2.9,4.6C384.6,159.9,382.7,160.5,380.2,160.5z M119.2,190.6c0.4-1.2,0.8-2.4,1.2-3.6c0.4-1.3,1-2.6,1.4-4
	c0.6-1.8,1.4-3.8,2.2-5.6c0.6-1.3,1.2-2.7,1.9-4c0.9-1.5,1.9-2.8,3.4-3.8c1.1-0.9,2.4-1.3,3.8-1.5c0.9-0.1,1.6-0.2,2.5-0.1
	c2.1,0.2,3.9,1,5.5,2.4c1.3,1.2,2.4,2.5,3.1,4c0.3,0.8,0.7,1.5,0.8,2.3c0.1,0.8,0.3,1.5,0.3,2.3c0.2,1.5,0.3,3,0.2,4.5
	c0,1.4-0.1,2.8-0.1,4.2c-0.1,0.4-0.1,0.9-0.1,1.2c0,0.1,0,0.2,0.1,0.3c0.1-0.3,0.2-0.6,0.3-1c0.6-1.5,1.2-3,1.8-4.5
	c0.5-1.1,1.1-2.2,1.6-3.2c0.6-1.3,1.3-2.6,2.1-3.9c0.5-1.2,1.2-2.3,1.9-3.5c0.9-1.3,2.1-2.3,3.5-3c1.1-0.5,2.2-0.9,3.2-1.1
	c1.3-0.3,2.6-0.4,3.8-0.3c1.3,0.1,2.5,0.3,3.6,0.8c1.6,0.6,2.8,1.7,3.5,3.4c0.2,0.5,0.3,1.1,0.4,1.6c0.3,1.3,0.2,2.5,0.1,3.8
	c0,0.5,0,1.2,0,1.7c0,0.8,0,1.5-0.1,2.3c0,2.7,0,5.3,0,8c0,1.2-0.1,2.4-0.1,3.5c-0.1,1.4-0.2,2.8-0.3,4.2c0,0.4,0,1-0.1,1.5
	c-0.1,0.7-0.2,1.4-0.3,2.2c0,0.3,0,0.5-0.1,0.9c0,0.3-0.1,0.8-0.2,1.2c0,0.5,0,1.1,0.1,1.6c0.1,0.4,0.4,0.5,0.9,0.4
	c0.5-0.1,0.8-0.4,1.1-0.9c0.2-0.4,0.5-1,0.8-1.5c1-2.1,1.9-4.1,2.8-6.2c0.5-1.2,1-2.4,1.4-3.7c0.7-1.6,1.2-3.4,1.8-5.1
	c0.4-1.2,0.8-2.4,1.2-3.5c0.3-1.2,0.8-2.4,1.3-3.5c0.1-0.3,0.3-0.7,0.5-1c0.3-0.4,0.8-0.5,1.2-0.5c0.3,0,0.6,0,0.9,0.1
	c0.5,0.1,0.9,0.4,1,1c0.1,0.3,0.2,0.8,0.2,1.2c0,0.4-0.1,1-0.2,1.5c-0.2,0.5-0.4,1.2-0.6,1.8c-0.3,1.1-0.8,2.3-1.2,3.4
	c-0.3,0.8-0.5,1.6-0.9,2.5c-0.6,1.6-1.3,3.1-1.9,4.8c-0.3,1-0.8,1.9-1.1,2.8c-0.5,1.3-1.1,2.6-1.7,3.9c-0.3,0.8-0.6,1.6-1.1,2.5
	c-0.8,1.5-1.7,2.8-2.9,4.1c-0.6,0.5-1.3,1.1-2.2,1.4c-0.9,0.3-1.7,0.3-2.6,0.3c-0.4,0.1-0.9,0-1.3,0c-1,0.1-1.8-0.2-2.6-0.8
	c-1.1-0.9-2.2-1.7-2.8-2.9c-0.5-0.8-0.9-1.5-1.2-2.4c-0.1-0.7-0.2-1.3-0.3-1.9c-0.1-1.2-0.2-2.3-0.2-3.5c0-0.8-0.1-1.4-0.1-2.2
	c0.1-1.6,0.1-3.1,0.2-4.8c0-1.3,0.1-2.7,0.2-4c0.1-1.1,0.2-2.2,0.3-3.1c0-0.4,0-0.9,0.1-1.2c0.1-1,0.1-1.9,0.2-3
	c0.1-1,0.2-1.9,0.2-2.9c0.1-0.5,0-1.1,0-1.6c0-0.5-0.1-1-0.2-1.5c-0.1-0.8-0.6-1.1-1.3-1.2c-0.8-0.2-1.4,0-2.1,0.3
	c-0.6,0.3-1.2,0.8-1.7,1.3c-0.3,0.2-0.5,0.5-0.8,0.9c-0.8,1-1.5,2.1-2.1,3.2c-0.3,0.7-0.6,1.3-1,1.9c-0.5,1.4-1.1,2.7-1.6,4.1
	c-0.1,0.2-0.2,0.5-0.3,0.9c-0.4,1.4-0.9,2.8-1.3,4.3c-0.2,0.9-0.4,1.8-0.8,2.7c-0.3,1.1-0.6,2.1-1,3.1c-0.2,0.8-0.5,1.6-0.8,2.5
	c-0.3,1.1-0.6,2.2-1,3.2c-0.4,1.3-0.8,2.5-1.1,3.7c-0.2,0.6-0.3,1.2-0.5,1.8c-0.2,0.8-0.4,1.4-0.9,1.9c-0.3,0.4-0.6,0.6-1.1,0.8
	c-0.5,0.1-1,0.2-1.5,0.1c-0.1,0-0.1,0-0.2,0c-1.5-0.1-2.7-0.8-3.6-2.1c-0.6-0.9-1.2-1.9-1.4-3.1c-0.2-0.9-0.3-1.8-0.5-2.7
	c-0.1-1-0.1-1.9,0-2.9c0-0.4,0-1,0-1.5c0.1-1.6,0.1-3.1,0.2-4.8c0-1.3,0-2.5,0-3.7c0.1-1.2,0.1-2.4,0.2-3.5c0-0.5,0-1.1,0-1.6
	c0-1.2,0.1-2.3,0.1-3.4c-0.1-1-0.1-1.9-0.2-2.9c-0.1-1.2-0.3-2.4-0.8-3.5c-0.3-0.9-0.8-1.5-1.6-1.7c-1.1-0.3-1.8-0.1-2.5,0.6
	c-0.5,0.5-1,1.3-1.3,2.1c-0.8,1.6-1.4,3.2-2.1,5c-0.8,2.2-1.6,4.2-2.4,6.4c-0.5,1.4-1,2.7-1.5,4.1c-0.5,1.5-1.1,2.9-1.6,4.3
	c-0.3,1-0.5,1.9-0.9,2.9c-0.4,1.2-0.8,2.5-1.1,3.7c-0.4,1.3-0.8,2.5-1.2,3.8c-0.3,1-0.7,1.8-1.1,2.7c-0.1,0.4-0.3,0.9-0.7,1.2
	c-0.6,0.5-1.4,0.7-2.3,0.5c-0.2,0-0.4,0-0.8-0.1c-1.8-0.3-3.1-1.3-4-2.9c-0.7-1.1-1-2.3-1.2-3.5c-0.2-1.3-0.2-2.6-0.2-3.8
	c0-0.7,0.1-1.3,0.1-1.9c0-0.3,0-0.6,0-1c0.1-1.2,0.1-2.5,0.2-3.8c0-1.2,0-2.4,0-3.6c0.1-1.5,0.1-3.1,0.2-4.7c0-2.5,0-5,0-7.6
	c0.1-1.5,0.1-3,0.1-4.5c0-1.7,0-3.4-0.2-5.1c0-0.1,0-0.2,0-0.3c-0.1-0.3-0.1-0.3,0.2-0.3c1.1-0.3,2.2-0.4,3.4-0.4
	c0.6,0,1.3,0.1,1.9,0.2c1.5,0.3,2.8,1.1,3.8,2.4c0.2,0.3,0.4,0.9,0.6,1.2c0.2,0.4,0.4,0.8,0.5,1.1c0.3,0.7,0.3,1.4,0.4,2.2
	c0.1,1.1,0.2,2.2,0.1,3.2c0,0.7-0.1,1.4-0.1,2.1c-0.1,1.2-0.2,2.4-0.3,3.5c-0.1,1.2-0.2,2.4-0.3,3.6c0,0.9,0,1.6-0.1,2.5
	c0,0.9,0,1.8-0.1,2.7c0,0.1,0,0.2,0,0.3h0.1C118.8,191.9,118.9,191.3,119.2,190.6z M206.4,167.1c1.7,0.1,3.4,0.6,4.7,1.8
	c0.4,0.4,0.9,0.9,1.1,1.5c0.4,0.8,0.9,1.4,1.1,2.3c0.1,0.3,0.1,0.8,0.2,1.2c0.2,1.3,0.2,2.7,0.2,4c-0.1,1.8-0.3,3.6-0.4,5.4
	c-0.1,0.8-0.1,1.5-0.2,2.3c-0.1,1-0.2,1.9-0.2,2.9c-0.2,2.2-0.3,4.3-0.4,6.5c-0.1,1.4-0.2,2.9-0.3,4.3c-0.1,1.7-0.2,3.5-0.3,5.3
	c-0.1,0.4-0.1,0.9-0.2,1.3c0,0.1,0,0.2,0,0.4c0.2-0.1,0.2-0.2,0.3-0.2c1.5-1.8,2.9-3.8,3.9-6c1.3-2.9,2.5-6,3.6-9.1
	c0.8-2.2,1.5-4.3,2.3-6.4c0.4-1.3,0.9-2.6,1.5-3.8c0.5-1.2,1.6-1.3,2.6-1c0.7,0.3,0.9,1,1,1.5c0.1,1-0.1,1.8-0.4,2.7
	c-0.3,1.1-0.8,2.2-1.1,3.2c-0.6,1.6-1.3,3.2-1.8,4.9c-0.5,1.3-1,2.5-1.4,3.7c-1,2.3-1.9,4.5-2.9,6.8c-0.4,1.1-1.1,1.9-1.7,2.9
	c-1,1.5-1.9,3-3.1,4.4c-0.8,0.9-1.5,1.7-2.5,2.4c-0.2,0.2-0.2,0.3-0.2,0.7c0,0.6,0,1.2,0,1.8c-0.1,2.7-0.2,5.3-0.3,8
	c-0.1,1.7-0.2,3.6-0.3,5.4c-0.1,1.2-0.3,2.4-0.4,3.6c-0.1,0.4-0.1,0.9-0.2,1.3c-0.2,1.4-0.4,2.7-0.6,4.1c-0.4,1.7-1,3.5-1.8,5
	c-1.2,2.2-2.8,3.6-5.3,4.1c-3.1,0.6-6.2,0.2-8.9-1.8c-1.3-1-2.3-2.3-3-3.7c-0.9-1.8-1.3-3.8-1.4-5.8c-0.1-1.4,0-2.8,0.2-4.2
	c0.2-1.8,0.8-3.6,1.6-5.3c1.2-2.4,2.9-4.5,4.9-6.4c1.5-1.3,3-2.6,4.5-4c0.4-0.3,0.9-0.8,1.3-1.2c0.1-0.1,0.2-0.3,0.2-0.5
	c0.1-1.5,0.2-3.1,0.1-4.7c-0.1-1.1,0-2.2-0.1-3.2c0-1,0-1.9,0-2.8c-0.1-0.2-0.1-0.3-0.1-0.4c-0.3-0.1-0.4,0.2-0.4,0.3
	c-0.9,1.2-1.7,2.3-2.8,3.4c-1.8,1.8-4.1,3.4-6.6,4.2c-1.3,0.5-2.7,0.8-4,0.8c-0.6,0-1.2,0-1.8,0c-0.8,0-1.5-0.2-2.2-0.5
	c-1.3-0.7-2.6-1.4-3.5-2.7c-0.8-1-1.3-2.2-1.6-3.5c-0.4-1.3-0.5-2.6-0.5-4c0.1-1.1,0.2-2.1,0.2-3.1c0.1-2.2,0.2-4.2,0.4-6.4
	c0.1-1.8,0.2-3.7,0.2-5.5c0-2.8,0-5.7,0.1-8.7c0-1.3,0-2.5,0-3.8c0-1.4-0.1-2.9-0.2-4.3c0-0.1,0-0.2,0-0.4c0.4-0.1,0.8-0.3,1.2-0.3
	c1.3-0.2,2.6-0.3,3.9-0.1c1.6,0.3,3.2,1.1,4.2,2.5c0.8,1.2,1.3,2.4,1.5,3.7c0.3,1.7,0.3,3.5,0.2,5.1c-0.1,1.6-0.3,3.2-0.4,4.8
	c-0.1,0.9-0.1,1.6-0.2,2.4c-0.1,0.9-0.1,1.6-0.2,2.5c-0.1,2.2-0.3,4.3-0.4,6.5c-0.1,2.2-0.1,4.4-0.2,6.6c-0.1,0.7-0.1,1.3,0.2,1.9
	c0.3,0.8,1.2,1.3,2.2,1.2c1.1-0.2,2.1-0.6,2.9-1.2c1.9-1.2,3.7-2.8,5.1-4.5c1-1.1,1.7-2.4,2.4-3.7c0.1-0.1,0.1-0.2,0.1-0.3
	c0.2-1,0.3-1.8,0.4-2.7c0.2-1.1,0.3-2.2,0.4-3.2c0.1-0.8,0.2-1.6,0.2-2.5c0.1-1.6,0.2-3.2,0.3-4.9c0-1,0-1.9,0-2.8
	c0.1-3.7,0.1-7.5,0.2-11.1c0-0.1,0-0.3,0-0.4C204.1,166.9,205.3,166.9,206.4,167.1z M201.2,220.3c-0.6,0.5-1.3,1.1-1.7,1.7
	c-2.1,2.5-3.4,5.3-4.2,8.4c-0.2,0.8-0.3,1.6-0.4,2.5c-0.3,1.5-0.3,3,0,4.5c0.2,0.8,0.5,1.5,1.3,1.9c0.9,0.5,1.7,0.6,2.5-0.2
	c0.3-0.4,0.6-1,0.9-1.4c0.6-1.5,0.9-3,1.2-4.5c0.1-1.1,0.2-2.2,0.3-3.2c0.1-0.6,0.1-1.2,0.2-1.8c0-1.5,0.1-3,0.2-4.5
	c0-1,0.1-1.9,0.1-2.8c0-0.2,0-0.4,0-0.7C201.3,220.3,201.3,220.3,201.2,220.3z M51.4,318c-0.3,11-0.8,21.8,2.2,32.5
	c1.1,3,5.2,9.1,11.8,5.5c3.9-2.5,11-11.8,14.3-17.1c6.9-11,18.7-38.6,19.8-42.2c1.4-5,3.6-6.1,5.8-5.5c2.5,0.6,3.6,2.5,2.5,6.1
	c-5.2,17.4-10.7,30.6-19.8,46c-3.3,5.5-10.5,14.6-15.4,18.5c-9.6,7.7-28.9,6.9-37.5-7.4c-3-4.7-5.2-11.6-6.1-17.1
	c-3-22.6-1.7-45.7,3.9-67.8c2.8-10.7,5.8-19.3,9.1-30.3c1.1-3.9,2.5-7.7,4.1-11.6c-1.4-1.1-2.8-2.2-4.1-3.3c-5.5-3.9-13-2.2-16,3.9
	c-0.8,1.1-0.6,3.3-2.8,3.6c-1.7,0.3-3.6,0-5.2-0.8c-3.3-1.1-4.4-4.4-2.8-8c1.7-4.1,5-6.6,9.4-7.7c7.7-1.9,15.4-1.7,22.6,1.9
	c1.1,0.6,1.9,1.1,2.8,1.7c2.2-4.7,4.7-9.1,7.2-13.5c3-4.7,6.9-9.9,10.2-13.5c2.5-2.5,6.6-3.6,10.5-2.5c3.6,1.1,4.4,2.2,3.3,5.8
	c-1.1,3.6-2.5,7.2-3.6,10.5c-3.3,8.5-6.3,17.1-9.1,25.9c2.8,1.9,5.5,3.9,8.5,5.8c5.8,3.6,11.8,2.2,16-3.3c3.6-4.7,2.8-9.4-2.2-12.7
	c-0.8-0.6-3.3-1.4-2.8-2.8c0.8-1.1,3.3-1.7,4.4-1.9c7.2-0.8,15.2,3.6,18.2,10.2c1.9,4.1,0.6,8-2.2,11.3c-5,5.8-11.6,8.5-19,8.8
	c-8.5,0.3-16.8-1.7-24-5.8c-1.7,4.7-2.8,9.4-4.1,14.3C56.1,276.1,52.6,296.8,51.4,318z M146.8,265.4c2.8-0.6,5.8-0.8,8.5,1.1
	c0.8,0.6,1.4,1.9,1.7,3c0.3,2.5,0.3,4.7,0.3,7.2c-0.6,18.2-2.2,36.7-1.1,54.8c0.6,8.5,1.1,17.6,7.7,23.7c5.5-2.5,11-13,16.3-24.2
	c6.9-14.3,13-30.6,14.9-35c0.3-0.8,1.7-5,5.8-4.7c3.6,0.3,3.9,3.6,2.5,8c-10.5,31.7-20.4,50.2-25.1,56.8c-9.6,12.4-23.4,10.2-30.9,0
	c-3.6-5-5.5-10.7-6.6-16.8c-1.1-6.9-1.7-13.2-2.2-17.9c-0.6,1.1-0.8,2.2-1.4,3.3c-3,6.3-5.8,12.7-8.8,18.7c-1.7,3-3.3,5.8-5.2,8.5
	c-6.3,8.5-17.4,11.8-26.7,7.2c-6.9-3.3-18.5-24.8-2.2-65.3c2.8-6.9,11.3-17.6,17.4-20.9c9.6-5.5,20.4-6.9,31.4-2.5
	C143.5,267.8,144.3,265.9,146.8,265.4z M123.1,326.8c3.6-7.7,6.6-16,9.6-24c3-8.3,6.1-15.7,8.3-24c-1.4-0.8-2.8-1.7-4.4-2.2
	c-1.4-0.8-5-0.8-6.6,0.3c-1.9,1.4-6.1,5.2-8.3,8.8c-10.2,14.9-14.6,32-15.4,49.9c-0.3,4.4,0.6,8.8,2.2,14.1
	C115.1,342.2,119.5,334.8,123.1,326.8z M256.2,294.6c-0.6,2.2-8.3,27.3-26.5,48.5c-8.8,9.9-22,11-30.6,7.7
	c-9.4-3.9-13.2-11.6-14.3-20.9c-1.4-14.6,1.7-28.4,8-41.3c1.9-3.9,4.1-7.4,6.3-10.7c3.3-5,8.5-6.1,14.3-5.5c3.6,0.6,4.7,2.2,4.1,6.1
	c-0.3,3-1.1,6.1-1.9,9.1c-2.2,7.7-4.4,15.7-5.8,23.7c-1.4,8-3,16.8-1.4,24.8c1.4,5.8,4.7,8.8,5.2,8.5c2.5-0.8,6.9-4.7,8.8-6.9
	c7.4-8.5,19.3-28.9,24.8-43.3c1.1-2.8,3.9-4.1,6.3-3.9C255.9,291,257,292.4,256.2,294.6z M208,250.8c0.6-5,5.8-9.9,10.7-9.1
	c1.4,0.3,2.8,1.4,3.3,2.5c2.8,4.1,2.2,9.9-1.9,13.5c-1.9,1.7-5.8,2.8-8.3,1.4C209.1,257.1,207.4,253.8,208,250.8z M319.6,296.8
	c-7.7,32.5-18.5,49-23.4,55.7c-13,17.1-38.6,11.8-48.2-3.9c-3.9-6.1-5.8-12.7-7.2-19.8c-2.8-14.3-3-28.7-1.7-43
	c1.4-14.3,3.3-28.7,7.7-42.7c4.4-13.8,10.2-26.7,18.7-38.6c3.6-5,7.7-9.6,12.1-14.1c4.4-3.9,11.3-7.4,18.7-6.6
	c6.1,0.6,8.5,7.4,8,14.1c-2.5,25.9-13,49.3-26.5,68.1c-3.6,5.2-7.7,10.2-13,14.3c-1.1,0.8-1.7,1.9-1.9,3.6
	c-2.2,18.5-2.5,37.2,2.8,55.4c3,10.7,10.7,16.5,11.8,16.5c18.2-7.7,30.3-49.6,33.3-60.3c0.6-1.7,1.7-4.4,5.5-4.1
	C319.6,291.8,320.4,294,319.6,296.8z M266.1,264.5c4.4-5,13.8-17.6,19.3-32.2c6.6-17.9,9.4-36.6,8.5-39.7
	C284.6,199.5,269.1,239.5,266.1,264.5z"/>
<path fill="#65C8D0" d="M152.6,252.8c-7.7,0-13.8-6.2-13.8-13.9c0-7.7,6.3-13.9,14-13.8c7.7,0.1,13.8,6.3,13.7,14
	C166.5,246.7,160.3,252.8,152.6,252.8z M142,239.5c0,0.7,0,1.1,0,1.5c0.1,1.2,0.9,2.1,2,2.2c1.1,0.1,2.1-0.6,2.4-1.8
	c0.1-0.7,0.2-1.3,0.2-2c0.1-2.1,0.8-4,2-5.6c0.3-0.4,0.7-0.7,1-1.1c0.8-1,0.8-2.2,0-3.1c-0.8-0.8-2-0.9-3.1-0.1
	c-0.6,0.5-1.1,1-1.6,1.7C143,233.7,142.1,236.6,142,239.5z M215.2,100.8c-7.7,0-13.8-6.2-13.8-13.9c0-7.7,6.3-13.9,14-13.8
	c7.7,0.1,13.8,6.3,13.7,14C229.1,94.7,222.9,100.8,215.2,100.8z M204.6,87.5c0,0.7,0,1.1,0,1.5c0.1,1.2,0.9,2.1,2,2.2
	c1.1,0.1,2.1-0.6,2.4-1.8c0.1-0.7,0.2-1.3,0.2-2c0.1-2.1,0.8-4,2-5.6c0.3-0.4,0.7-0.7,1-1.1c0.8-1,0.8-2.2,0-3.1
	c-0.8-0.8-2-0.9-3.1-0.1c-0.6,0.5-1.1,1-1.6,1.7C205.6,81.7,204.7,84.6,204.6,87.5z M51.8,193.5c-7.7,0-13.8-6.2-13.8-13.9
	c0-7.7,6.3-13.9,14-13.8c7.7,0.1,13.8,6.3,13.7,14C65.7,187.5,59.5,193.6,51.8,193.5z M41.2,180.3c0,0.7,0,1.1,0,1.5
	c0.1,1.2,0.9,2.1,2,2.2c1.1,0.1,2.1-0.6,2.4-1.8c0.1-0.7,0.2-1.3,0.2-2c0.1-2.1,0.8-4,2-5.6c0.3-0.4,0.7-0.7,1-1.1
	c0.8-1,0.8-2.2,0-3.1c-0.8-0.8-2-0.9-3.1-0.1c-0.6,0.5-1.1,1-1.6,1.7C42.2,174.4,41.3,177.3,41.2,180.3z M363.1,356.5
	c0,4.6-3.8,8.5-8.5,8.4c-4.6,0-8.3-3.8-8.3-8.4c0-4.7,3.8-8.4,8.4-8.4C359.4,348.2,363.1,351.9,363.1,356.5z M349.3,356.8
	c0-0.1,0,0.1,0,0.2c0.1,1,0.6,1.6,1.5,1.6c0.8,0,1.4-0.5,1.6-1.5c0-0.2,0-0.4,0.1-0.7c0.1-1.1,0.5-2.1,1.2-3c0.2-0.3,0.5-0.6,0.7-1
	c0.4-0.9,0-1.9-1-2.1c-0.7-0.2-1.3,0.2-1.8,0.7C350.2,352.7,349.4,354.5,349.3,356.8z M223.7,141.8c0,4.6-3.8,8.5-8.5,8.4
	c-4.6,0-8.3-3.8-8.3-8.4c0-4.7,3.8-8.4,8.4-8.4C219.9,133.5,223.7,137.2,223.7,141.8z M209.8,142.1c0-0.1,0,0.1,0,0.2
	c0.1,1,0.6,1.6,1.5,1.6c0.8,0,1.4-0.5,1.6-1.5c0-0.2,0-0.4,0.1-0.7c0.1-1.1,0.5-2.1,1.2-3c0.2-0.3,0.5-0.6,0.7-1
	c0.4-0.9,0-1.9-1-2.1c-0.7-0.2-1.3,0.2-1.8,0.7C210.7,138,209.9,139.8,209.8,142.1z M256.8,184.7c0,4.6-3.8,8.5-8.5,8.4
	c-4.6,0-8.3-3.8-8.3-8.4c0-4.7,3.8-8.4,8.4-8.4C253,176.4,256.8,180.1,256.8,184.7z M242.9,185c0-0.1,0,0.1,0,0.2
	c0.1,1,0.6,1.6,1.5,1.6c0.8,0,1.4-0.5,1.6-1.5c0-0.2,0-0.4,0.1-0.7c0.1-1.1,0.5-2.1,1.2-3c0.2-0.3,0.5-0.6,0.7-1
	c0.4-0.9,0-1.9-1-2.1c-0.7-0.2-1.3,0.2-1.8,0.7C243.8,180.8,243,182.6,242.9,185z M92.6,174.6c0,2.8-2.3,5.1-5.1,5c-2.7,0-5-2.3-5-5
	c0-2.8,2.2-5.1,5.1-5C90.3,169.6,92.5,171.9,92.6,174.6z M84.1,174.2c0.2,0.6,0.4,1.1,0.9,1.2c0.6,0.1,0.9-0.2,1.2-0.7
	c0.1-0.2,0.1-0.4,0.2-0.6c0.2-0.5,0.4-1,0.7-1.4c0.5-0.8,0.5-1.3,0-1.7c-0.5-0.3-1.2-0.2-1.6,0.5C84.9,172.3,84.6,173.3,84.1,174.2z
	 M384.5,304.1c0.3,3.6,0.9,7.1,1.9,10.6c1.6,6.1,3.5,12.1,6,17.9c2,4.7,4.3,9.4,6.3,14.1c2.3,5.3,3.7,10.9,4.4,16.6
	c0.5,3.7,0.6,7.5,0.3,11.3c-0.3,3.6-0.9,7.2-2.2,10.6c-0.4,1-0.9,2-1.5,3c-0.7,1.1-1.2,1.2-2.4,0.9c-1.2-0.3-2.3-0.9-3.3-1.6
	c-1.4-1.1-2.7-2.1-3.9-3.3c-4.5-4.5-8.4-9.6-11.8-15.1c-5.2-8.3-7.4-17.4-6.8-27.2c0.2-2.9,0.5-5.8,0.8-8.6c0-0.5,0.1-0.9,0.1-1.4
	c0-0.5-0.2-0.9-0.7-1.1c-0.5-0.2-0.9-0.1-1.3,0.2c-0.5,0.4-0.9,0.8-1.3,1.3c-1.9,2-3.9,3.9-6.2,5.4c-4.6,3.1-9.8,4.7-15.4,5.4
	c-4.5,0.5-9.1,0.3-13.5-0.4c-3.9-0.6-7.7-1.3-11.6-2c-2.2-0.4-4.5-0.7-6.7-1.2c-1.6-0.3-1.9-0.9-1.3-2.4c0.1-0.2,0.1-0.3,0.2-0.5
	c0.7-1.1,1.3-2.3,2-3.4c1.3-1.9,3-3.6,4.7-5.1c4-3.5,8.3-6.5,13-9c5-2.8,10.3-5,15.9-6.3c3.4-0.8,6.9-1.5,10.3-2.3
	c3.5-0.8,7-1.9,10.2-3.6c2.6-1.4,5.1-3,6.9-5.5c0.1-0.1,0.2-0.1,0.4-0.2c0.1,0.7,0.2,1.4,0.3,2c0.1,0.9,0.3,1.8,0.8,2.6
	c0.7,1.2,1.8,1.4,2.9,0.7c0.4-0.3,0.9-0.7,1.2-1.1c0.5-0.5,0.9-1,1.5-1.6C384.5,303.8,384.5,303.9,384.5,304.1z M394.6,351.5
	c-2.4-6.5-5-13-7.6-19.5c-2-4.9-3.4-10-4-15.3c0-0.4-0.2-0.8-0.2-1.2c-0.1-0.4-0.4-0.7-0.9-0.7c-0.5,0-0.9,0.2-1,0.6
	c-0.1,0.5-0.2,1.1-0.3,1.6c-0.1,2.1,0.2,4.1,0.5,6.2c0.9,6.5,3.2,12.6,5.4,18.7c2.1,5.6,4.1,11.2,6.1,16.8c1.2,3.5,2.2,7,2.9,10.6
	c0.6,2.8,0.7,5.7,0.6,8.6c0,0.8-0.1,1.7-0.2,2.5c0,0.7,0.3,1.2,1,1.4c0.7,0.2,1.2-0.1,1.2-0.8c0.2-1.9,0.5-3.8,0.5-5.6
	c0.1-2.3-0.1-4.6-0.1-6.9C398.2,362.7,396.7,357,394.6,351.5z M373.2,311.4c-3.4,1.3-6.9,2.2-10.4,3c-6,1.4-12,2.7-17.9,4.3
	c-5.4,1.5-10.4,4-14.9,7.3c-2.5,1.8-4.9,3.7-7.3,5.6c-0.7,0.5-1.3,1.2-1.9,1.9c-0.4,0.4-0.6,1-0.4,1.6c0.2,0.5,0.6,0.7,1.1,0.4
	c0.6-0.3,1.2-0.7,1.8-1.1c1.6-1,3.1-2.2,4.7-3.1c4.3-2.4,8.6-4.8,13.2-6.4c2.7-0.9,5.4-1.6,8.1-2.5c6.1-1.8,12.2-3.7,18.2-5.6
	c1.9-0.6,3.7-1.4,5.5-2.2c0.7-0.3,1.4-0.8,2.1-1.3c0.3-0.2,0.5-0.6,0.6-0.9c0.2-0.9-0.4-1.5-1.4-1.3
	C374.1,311.1,373.6,311.2,373.2,311.4z M331.7,338.5c3.8-1.2,7.6-2.4,11.4-3.6c4.8-1.4,9.7-2.7,14.6-4c2.8-0.8,5.6-1.5,8.2-2.7
	c1.2-0.6,2.4-1.3,3.6-1.9c0.4-0.2,0.7-0.5,1-0.8c0.5-0.5,0.6-1,0.3-1.5c-0.3-0.5-0.7-0.7-1.4-0.5c-0.6,0.1-1.2,0.3-1.7,0.5
	c-2.3,0.9-4.7,1.7-7.1,2.2c-2.2,0.5-4.3,0.9-6.5,1.3c-4.2,0.8-8.2,2-12.3,3.2c-3.6,1.1-6.9,2.6-10.2,4.4c-0.5,0.3-1,0.7-1.5,1.1
	c-0.4,0.3-0.5,0.8-0.5,1.3c0.1,0.7,0.6,1.3,1.3,1.1C331.2,338.7,331.4,338.6,331.7,338.5z M388.6,360.1c-1-3.8-2.2-7.5-3.7-11.2
	c-0.8-2-1.6-4-2.5-6c-1.2-3-2-6.1-2.8-9.1c-0.2-0.9-0.5-1.7-0.7-2.6c0-0.1-0.1-0.3-0.1-0.4c-0.2-0.4-0.7-0.7-1.1-0.6
	c-0.5,0.1-0.8,0.4-0.8,0.9c0,0.7-0.1,1.3,0,2c0.3,2.3,0.7,4.6,1.1,6.9c0.7,4.7,2.6,9,4.2,13.4c1.5,4,2.9,8,4.3,12.1
	c0.8,2.3,1.3,4.7,1.5,7.1c0,0.4,0.1,0.9,0.2,1.3c0.1,0.5,0.4,0.8,0.8,0.9c0.8,0.3,1.4,0,1.4-0.9c0-1.7,0-3.3,0-5
	C390.1,366,389.4,363,388.6,360.1z M355.7,211.2c1.9,1.9,3.9,3.4,6.4,4.1c1.4,0.4,2.7,0.3,4.1-0.2c2.3-0.9,3.5-2.7,3.7-5
	c0.2-2.1-0.5-4.1-1.4-6c-3.9,0.5-7.1-1.1-10.2-3.5C359.1,204.7,358.7,208.3,355.7,211.2z M384.4,195.3c-3.4,1.1-6.6,0.6-9.5-1.5
	c0,0.9,0,1.7,0,2.5c-0.1,1.5-0.4,2.9-1.1,4.2c-0.6,1.1-1.4,1.9-2.5,2.6c-0.2,0.1-0.3,0.2-0.6,0.4c2.5,2.1,5,3.9,8.4,3.9
	c3.4,0,6-2.2,6.5-5.6c0.3-2.1,0-4.1-1-6C384.6,195.6,384.5,195.5,384.4,195.3z M353.2,212.6c-0.9,0.1-1.8,0.3-2.7,0.2
	c-1.5,0-2.9-0.5-4.2-1.3c-1-0.6-1.9-1.3-2.9-1.9c-0.2-0.1-0.4-0.3-0.7-0.5c0.4,3.3,0.4,6.3-1.8,9c1.3,1.9,2.9,3.3,5,4
	c1.1,0.4,2.3,0.5,3.5,0.3c3.3-0.6,4.9-3.3,4.8-6.1C354.2,215,353.9,213.7,353.2,212.6z M382.6,287.4c0.8,1.9,2.9,3.2,4.8,3
	c0.8-0.1,1.3-0.4,1.5-1.3c0.6-2.3,1.4-4.5,2.1-6.7c0.1-0.2,0.1-0.5,0.2-0.8c-1.8,0.1-3.4-0.6-5-1.7
	C386.5,283.3,385.8,285.9,382.6,287.4z M384,291.7c-1.7-1-3-2.2-3.4-4c-0.9-0.2-1.7-0.4-2.5-0.6c0.2,1.4,0.4,2.7,0.6,4
	c0.2,1.1,0.3,2.3,0.5,3.4c0.1,0.7,0.3,1,1.1,1.1c0.7,0.1,1.3-0.2,1.8-0.6C383.1,294.2,383.7,293.1,384,291.7z M362.7,239
	c1.2,1.8,2.4,3.4,4.1,4.6c0.7,0.5,1.5,1,2.3,1.4c2.9,1.2,5.7-0.1,6.7-3.1c0.6-1.8,0.5-3.6,0.1-5.4c-0.1-0.5-0.3-0.9-0.4-1.5
	c-2,0.7-4.1,0.8-6.1,0c-1.9-0.7-3.5-2-5-3.4c0,1.4,0,2.6-0.1,3.9C364.1,236.7,363.6,237.9,362.7,239z M388,227.1
	c-3.3,0.9-6.1-0.2-8.9-2c0,0.5,0.1,0.8,0.1,1.1c0.3,1.8,0.1,3.6-0.6,5.3c-0.3,0.7-0.8,1.4-1.3,2.2c1.8,1.8,4,3.1,6.7,3.5
	c2.4,0.3,4.4-1.1,5-3.5C389.6,231.4,389.2,229.3,388,227.1z M356.2,241c1.9,2.7,3.9,5.4,5.9,8.2c0.5-1,0.6-1.9,0.6-2.8
	c0-1.4-0.5-2.7-1-4c-0.3-0.7-0.6-1.3-1-2c-1.4,0.5-2.9,0.7-4.4,0.4C356.3,240.9,356.2,240.9,356.2,241z M390.1,226
	c1,1.6,2.3,2.8,3.6,3.2c-0.3-2.2-0.6-4.3-1.1-6.5C392,224,391.2,225.1,390.1,226z M375.8,264.3c1.5,1.3,3.1,2.4,5,2.9
	c2.6,0.7,4.5-0.5,4.9-3.2c0.2-1.4,0-3-0.6-4.2c-3,1.2-5.7,0.4-8.3-1.5C377.1,260.5,376.9,262.5,375.8,264.3z M394.8,253.9
	c-2.4,0.2-4.4-0.7-6.4-1.9c0.2,2.2,0.2,4.3-1.3,6.1c2.2,1.7,4.2,3.4,7.2,3.4C394.6,259,394.7,256.5,394.8,253.9z M374.3,272.5
	c1.1-1.8,0.9-4.3-0.2-6.4c-0.6,0.2-1.2,0.5-2,0.8C372.9,268.7,373.6,270.5,374.3,272.5z"/>
<path fill="#CC9C5E" d="M306.8,246.9c2.5,0.1,4.8,0.7,7.2,1.2c1.1,0.3,2.1,0.5,3.2,0.8c2.5,0.5,4.7-0.5,6.1-2.5c1.4-2,2.8-4,4.2-6
	c0.8-1.1,1.8-2,2.8-2.9c0.6-0.5,1.3-0.9,2-1.2c1.2-0.5,2.3-0.3,3.3,0.6c0.8,0.6,1.3,1.5,1.7,2.3c1,2,1.4,4,1.7,6.2
	c0.2,1.6,0.5,3.2,0.8,4.7c0,0.3,0.1,0.6,0.2,0.9c0.3,1.2,1.1,2.1,2.2,2.5c1.3,0.4,2.5,0.8,3.8,1.2c1.5,0.4,3,0.7,4.4,1.2
	c0.9,0.3,1.7,0.6,2.5,1.1c1.9,1.1,2.3,3,1,4.7c-0.6,0.8-1.4,1.6-2.3,2.2c-1.8,1.2-3.8,2.2-5.7,3.2c-0.8,0.5-1.7,0.9-2.5,1.4
	c-1.3,0.8-2.1,2-2.1,3.5c-0.1,1.5-0.1,3.1-0.1,4.6c0,2,0.2,4,0.3,6c0,0.9,0,1.8-0.1,2.6c-0.3,2.2-1.9,3.9-5,3.2
	c-1.3-0.3-2.3-1-3.3-1.8c-1.5-1.2-2.7-2.6-3.8-4.2c-1.1-1.5-2.2-3-3.3-4.5c-1.1-1.5-1.5-1.6-3.3-1c-1.4,0.5-2.8,1.1-4.2,1.7
	c-2.7,1.2-5.3,2.5-8.1,3.3c-1.2,0.3-2.3,0.6-3.5,0.8c-0.8,0.1-1.7,0.1-2.5-0.1c-1.6-0.3-2.7-1.7-2.8-3.4c-0.1-1,0.2-2,0.5-3
	c0.6-1.7,1.6-3.3,2.6-4.8c0.9-1.4,1.9-2.9,2.8-4.4c1.2-2,1.2-4-0.3-5.9c-0.7-0.9-1.5-1.9-2.3-2.8c-1.1-1.3-2-2.6-2.8-4.1
	c-0.6-1.2-0.9-2.4-0.9-3.8c0.1-1.6,0.8-2.6,2.3-3C304.6,247.2,305.7,247.1,306.8,246.9z M326,267.6c3-0.1,5.3-2.5,5.3-5.4
	c0-2.9-2.4-5.3-5.3-5.3c-3,0-5.3,2.4-5.3,5.3C320.6,265.1,322.8,267.6,326,267.6z M315.8,272.2c1.7,0,3-1.4,3-3.1
	c0-1.7-1.4-3.1-3.2-3.1c-1.7,0-3,1.3-3,3C312.7,270.8,314.1,272.2,315.8,272.2z M335.9,273.5c0-1.7-1.3-3.1-3-3.1
	c-1.7,0-3.1,1.3-3.1,3c0,1.6,1.3,3,2.9,3.1C334.5,276.5,335.9,275.2,335.9,273.5z M332.4,251.3c0-1.7-1.3-3.1-3-3.1
	c-1.7,0-3,1.4-3,3c0,1.6,1.3,3,3,3C331,254.4,332.4,253,332.4,251.3z M340,261.8c0-1.7-1.3-3.1-3-3.1c-1.7,0-3,1.4-3,3
	c0,1.6,1.3,3,3,3C338.7,264.8,340,263.5,340,261.8z M315.7,254.3c-1.7,0-3,1.3-3,3c0,1.7,1.3,3.1,3,3.1c1.6,0,3-1.3,3-3
	C318.8,255.6,317.4,254.3,315.7,254.3z M308.4,254.5c0.9,0,1.7-0.8,1.6-1.8c0-1-0.8-1.7-1.7-1.6c-1,0-1.7,0.9-1.6,1.8
	C306.8,253.8,307.5,254.6,308.4,254.5z M308.8,275.1c-0.9,0-1.6,0.7-1.6,1.6c0,0.9,0.8,1.8,1.7,1.8c0.9,0,1.6-0.7,1.6-1.6
	C310.5,275.9,309.7,275.1,308.8,275.1z M337.6,282c0-0.9-0.7-1.6-1.6-1.7c-0.9,0-1.7,0.7-1.8,1.6c0,0.9,0.7,1.7,1.6,1.7
	C336.8,283.7,337.6,282.9,337.6,282z M332.3,244.1c0.9,0,1.6-0.8,1.6-1.6c0-0.8-0.8-1.5-1.6-1.5c-0.9,0-1.6,0.7-1.6,1.6
	C330.8,243.4,331.5,244.1,332.3,244.1z M346.2,262.3c0.9,0,1.6-0.7,1.6-1.6c0-0.8-0.7-1.5-1.5-1.6c-0.9,0-1.6,0.7-1.6,1.6
	C344.6,261.6,345.3,262.3,346.2,262.3z M331.6,196.2c4-0.5,7-1.7,9.7-3.4c2.3-1.5,4.4-3.2,6.2-5.2c0.1-0.1,0.3-0.3,0.4-0.5
	c1-1.3,2.2-2.1,3.9-2.4c4.5-0.9,8.5-3.1,12.1-6c1.5-1.2,2.9-2.6,3.9-4.2c1.2-1.8,1.7-3.7,1.6-5.8c-0.3-3.1-2.6-5.4-5.7-5.7
	c-1.8-0.2-3.5,0.2-5,1.1c-1.6,0.9-3,2-4.1,3.4c-1,1.2-1.8,2.6-2.6,3.9c-0.9,1.5-1.6,3.1-2.4,4.7c-0.5,0.9-1,1.9-1.5,2.8
	c-1.2,2.2-3.1,3.2-5.4,3.6c-2.1,0.4-4.2,0.3-6.4,0.3c-2.8,0-5.5,0.1-8.2,0.7c-1.4,0.3-2.8,0.8-4.1,1.6c-1.3,0.8-2.3,1.9-2.6,3.4
	c-0.4,1.8,0.2,3.3,1.3,4.6c1,1.2,2.3,2,3.8,2.4C328.5,196.3,330.4,196.4,331.6,196.2z M363.4,227.6c1.7,2,3.5,3.8,5.8,5
	c1.6,0.8,3.2,1.1,4.9,0.5c1.1-0.3,2-1,2.5-2.1c0.5-1.1,0.8-2.2,0.7-3.4c-0.1-1.7-0.4-3.3-1.3-4.9c-4.1,1.4-7.6,0.1-10.9-2.7
	c0.2,1.4,0.3,2.7,0,4C365,225.4,364.3,226.5,363.4,227.6z M390.1,215.2c-3.1,0.6-5.7-0.1-8.2-2.1c-0.2,3.4-1.2,6.3-3.9,8.4
	c0.2,0.2,0.3,0.4,0.5,0.5c1.1,0.9,2.3,1.8,3.6,2.5c0.9,0.5,1.9,0.8,2.9,0.9c2.6,0.3,4.9-1.3,5.6-3.8c0.4-1.7,0.5-3.5-0.1-5.2
	C390.5,216,390.3,215.7,390.1,215.2z M350.8,233.5c0.9,1.3,1.7,2.5,2.7,3.7c1.5,1.8,4.6,2.3,6.7,1.2c0.8-0.4,1.5-1.1,1.7-2
	c0.2-0.8,0.4-1.7,0.4-2.5c0-1.4-0.2-2.9-0.6-4.2c-0.1-0.2-0.1-0.4-0.2-0.6c-3.2,1.1-6.1,0.2-8.7-1.7c-0.1,1.2-0.1,2.3-0.3,3.3
	C352.3,231.8,351.7,232.7,350.8,233.5z M344.8,192.9c1.8,1.6,3.6,3.2,5.9,4c3,1,6.4-0.6,7.8-3.6c0.9-1.9,1.1-3.9,0.6-5.9
	c-0.2-0.9-0.5-1.8-0.7-2.7c-0.2,0-0.3,0-0.4,0.1c-2.1,1-4.3,1.6-6.5,2.1c-0.5,0.1-0.8,0.3-1.2,0.7c-0.6,0.7-1.2,1.4-1.9,2.1
	c-1,1-2.1,1.9-3.1,2.8C345.2,192.6,345,192.7,344.8,192.9z M370.2,174.6c-2.4,4-5.9,6.7-9.8,8.9c1.5,1.4,3.1,2.6,4.9,3.3
	c1,0.4,2.2,0.8,3.3,1c2.5,0.4,4.7-1.1,5.3-3.6c0.5-1.8,0.2-3.6-0.5-5.3C372.6,177.4,371.4,176,370.2,174.6z M332.4,198.2
	c0.1,0.4,0.2,0.7,0.4,1c1.1,1.9,2.5,3.4,4.4,4.5c0.6,0.3,1.3,0.5,1.9,0.7c0.8,0.2,1.5,0,2.1-0.5c0.8-0.6,1.3-1.4,1.7-2.3
	c0.7-1.7,0.9-3.5,0.6-5.3c-0.1-0.7-0.3-1.3-0.4-2.1C339.7,196.2,336.2,197.7,332.4,198.2z M361.2,187c0.6,4-0.2,7.5-3.4,10.3
	c0,0.1,0.1,0.2,0.1,0.2c1.8,2,4,3.6,6.6,4.4c1.3,0.4,2.5,0.5,3.8,0.2c1.9-0.4,3.3-1.5,3.9-3.4c1.1-3.2,0.5-6.1-1.2-9
	c-3.3,0.7-6.1-0.5-8.8-2.2c-0.3-0.2-0.6-0.4-0.9-0.6C361.3,187,361.3,187,361.2,187z M342.2,205.6c1.8,2.2,3.9,3.9,6.5,4.8
	c0.7,0.3,1.4,0.4,2.2,0.4c1.8,0.1,3.3-0.7,4.4-2.1c1-1.3,1.3-2.8,1.4-4.3c0.1-1.5-0.4-4.1-1.6-5.6c-1.7,0.4-3.4,0.5-5-0.1
	c-1.6-0.6-3-1.5-4.6-2.6C345.8,199.8,345.1,203.1,342.2,205.6z M375.9,180.4c0.4,3.4,0,6.3-2.8,8.5c0.9,1.2,1.8,2.3,2.9,3.3
	c2,1.7,5.7,2.2,7.7,1.2C383.4,191.5,377.7,182.1,375.9,180.4z M339.2,216.9c1-1.1,1.4-2.2,1.6-3.5c0.3-2.2-0.1-4.3-0.8-6.3
	c0-0.1-0.1-0.2-0.1-0.3c0-0.1-0.1-0.1-0.2-0.2c-2.6-0.1-4.7-1.5-6.6-3.2C334.7,208,336.7,212.5,339.2,216.9z M384.9,268.8
	c-2.9,1.3-5.4,0.3-7.9-1c0,1,0.1,2,0,2.9c-0.1,0.9-0.4,1.8-0.7,2.9c0,0,0.2,0.2,0.4,0.4c1.1,0.9,2.2,1.7,3.6,2.2
	c0.3,0.1,0.7,0.2,1,0.3c2.1,0.4,3.8-0.7,4.3-2.8C386,271.9,385.6,270.4,384.9,268.8z M387.8,261.3c0.2,2.1,0,4-1.2,5.8
	c1.5,1.4,2.9,2.6,5,2.9c0.2,0,0.5,0,0.7,0c1-0.1,1.2-0.3,1.4-1.3c0.2-1.7,0.4-3.4,0.6-5.2C391.8,263.6,389.8,262.6,387.8,261.3z
	 M376.4,244.9c1.3,1.2,2.7,2.2,4.2,2.8c1.4,0.6,2.8,0.6,4.2,0c1.1-0.5,1.9-1.3,2.2-2.5c0.6-2.1,0.2-4.1-0.6-6.2
	c-3,0.6-5.7-0.5-8.3-2.2C378.4,239.8,378.2,242.5,376.4,244.9z M374.2,246.8c-0.2,0.1-0.3,0.1-0.4,0.1c-2.2,0.9-4.3,0.6-6.3-0.4
	c-0.8-0.4-1.5-1-2.3-1.5c-0.2-0.2-0.4-0.3-0.6-0.5c0,1.1,0.1,2.2,0,3.3c0,1.1-0.5,2.1-1,3c1.1,1.6,2.4,3,4.1,3.9
	c1.3,0.7,2.6,0.9,4,0.5c2-0.6,3.1-1.9,3.4-3.9C375.4,249.6,375,248.1,374.2,246.8z M388.3,238.3c1.7,1.9,3.7,3.2,6.4,3.4
	c0-0.4,0.1-0.7,0-1c-0.2-2.9-0.5-5.7-0.7-8.6c0-0.3,0-0.6-0.4-0.7c-0.8-0.3-1.6-0.7-2.4-1.1c0,0.5,0,1,0,1.5
	c0.1,2.5-0.7,4.7-2.8,6.3C388.5,238.1,388.4,238.1,388.3,238.3z M383.9,278.3c-0.6,0.1-1,0.1-1.4,0.1c-1.3,0.1-2.6-0.3-3.7-0.9
	c-0.9-0.4-1.7-1-2.6-1.5c-0.2-0.1-0.5-0.3-0.8-0.6c0.2,0.7,0.4,1.3,0.5,1.9c0.5,2.1,1,4.2,1.5,6.3c0.1,0.4,0.3,0.7,0.6,0.9
	c0.8,0.6,1.6,1,2.6,1.1c1.6,0.1,2.9-0.6,3.5-2.1c0.2-0.7,0.4-1.5,0.4-2.3C384.3,280.2,384,279.3,383.9,278.3z M393.3,272
	c-2.1,0.2-3.9-0.3-5.6-1.4c0.3,2.4,0,4.6-1.7,6.5c1.1,1,2.2,1.9,3.6,2.3c0.5,0.1,1,0.1,1.5,0.1c0.4,0,0.7-0.3,0.8-0.7
	C392.4,276.5,392.8,274.3,393.3,272z M395,251.7c0-2.7,0-5.3,0-8c-2.1-0.1-3.9-0.7-5.7-1.9c0.1,2.5-0.1,4.7-1.8,6.6
	C389,250.6,392.7,252.3,395,251.7z M375.8,254.8c1.2,1.2,2.5,2.3,4,3c1,0.5,1.9,0.7,3,0.5c1.9-0.2,3.3-1.5,3.6-3.4
	c0.3-1.6-0.1-3.7-1-5.3c-1.4,0.4-2.9,0.7-4.4,0.3c-1.4-0.4-2.7-1.1-4-1.9c0,0.8,0.1,1.6,0.1,2.3c0,0.7-0.2,1.5-0.4,2.2
	C376.6,253.3,376.2,254,375.8,254.8z M371.3,264.8c0.8,0,1.5-0.3,2.1-0.8c0.7-0.7,1.2-1.5,1.4-2.4c0.4-1.8,0-3.5-0.9-5.2
	c-2.2,1.1-4.3,1.2-6.6,0.2C368.6,259.4,370,262.1,371.3,264.8z M371.7,206.9c0.1,0.9,0.2,1.6,0.2,2.3c0.1,2-0.5,3.8-1.7,5.4
	c-1,1.3-2.3,2.2-3.9,2.7c-0.2,0.1-0.5,0.1-0.8,0.2c0.7,0.9,1.4,1.5,2.2,2.1c1.4,1,2.9,1.7,4.6,1.8c2.8,0.2,4.9-1.2,6.3-3.5
	c1.1-1.9,1.5-4,1.1-6.1c-0.1-0.4-0.2-0.7-0.3-1.1c-0.3-0.9-0.8-1.4-1.9-1.5c-1.8-0.1-3.5-0.9-5-1.9
	C372.3,207.2,372.1,207.1,371.7,206.9z M356.1,214.4c0.5,4-0.6,7.1-4.1,9.2c0.1,0.2,0.2,0.4,0.4,0.5c1.6,1.8,3.5,3.1,6,3.3
	c3,0.3,4.7-1.9,5-4.3c0.2-2-0.3-3.8-1.4-5.5c-0.1-0.2-0.3-0.3-0.4-0.4C359.6,216.8,357.9,215.7,356.1,214.4z M387.6,202.7
	c-0.9,3.2-2.9,5.4-6.1,6.3c1.6,3.9,6,5.2,9.1,3.8C389.9,209.4,388.9,206.1,387.6,202.7z M349.6,231.8c0.6-0.4,0.8-1,1-1.6
	c0.3-1.3,0.1-2.6-0.2-3.9c-0.2-0.6-0.4-1.2-0.6-1.9c-2.1,0.3-4.1-0.1-6-1c0,0.1-0.1,0.1-0.1,0.2C345.5,226.2,347.5,229,349.6,231.8z
	 M387.7,292.4c-0.6,0-1.2,0-1.8-0.1c-0.7,2.4-2,4.3-4.4,5.2c0.6,1.2,1.4,1.9,2.7,2.4C385.6,297.5,386.7,295,387.7,292.4z
	 M379.6,298.5c0,1.8,0.5,5,0.9,5.8c0.7-0.2,1.6-1.2,2.5-2.6c-0.6-0.5-1.3-0.9-1.9-1.4C380.6,299.8,380.1,299.2,379.6,298.5z"/>
</svg>
