<?xml version="1.0" encoding="utf-8"?>
<!-- Generator: Adobe Illustrator 18.0.0, SVG Export Plug-In . SVG Version: 6.00 Build 0)  -->
<!DOCTYPE svg PUBLIC "-//W3C//DTD SVG 1.1//EN" "http://www.w3.org/Graphics/SVG/1.1/DTD/svg11.dtd">
<svg version="1.1" id="Layer_1" xmlns="http://www.w3.org/2000/svg" xmlns:xlink="http://www.w3.org/1999/xlink" x="0px" y="0px"
	 viewBox="0 0 432 432" enable-background="new 0 0 432 432" xml:space="preserve">
<path fill="#EAD5B6" d="M256.6,255.8c-0.3,0.1-0.6,0.1-1,0.2c-2.5,0.4-4.9,0.9-7.4,1.2c-2.5,0.4-5.1,0.5-7.6,0.2
	c-1.2-0.1-2.4-0.4-3.6-0.8c-3-1.1-4.8-3.1-5.6-6.1c-0.4-1.5-0.7-3.1-1-4.7c-0.2-1-0.3-2-0.6-2.9c-0.3-1.4-0.8-2.7-1.7-3.8
	c0.6-0.5,1.2-0.7,1.8-0.9c4.9-1.4,9.3-0.5,13.1,2.9c1.4,1.2,2.5,2.7,3.5,4.3c0.7,1,1.3,2.1,2,3.1c2,3.1,4.6,5.5,7.9,7.1
	c0.1,0,0.1,0.1,0.2,0.1C256.6,255.7,256.6,255.7,256.6,255.8z M224.2,253.4c-0.6-1.8-0.9-3.7-1.2-5.5c-0.2-1.1-0.4-2.2-0.6-3.3
	c-0.3-1.3-0.9-2.5-2-3.4c-1.2-0.9-3-1.1-4.2-0.3c-0.6,0.4-1,0.9-1.5,1.3c0.5,0.6,0.9,1.1,1.3,1.6c0.7,1.1,1.2,2.4,1.5,3.7
	c0.3,1.8,0.7,3.5,1.1,5.3c0.3,1.3,0.9,2.4,1.9,3.3c0.9,0.7,1.8,1,2.9,0.8c0.7-0.1,1.4-0.5,1.9-0.9
	C224.8,255.1,224.4,254.3,224.2,253.4z M223.3,243.1c0.3,0.8,0.5,1.6,0.7,2.4c0.3,1.7,0.6,3.5,0.9,5.2c0.2,1.3,0.6,2.5,1.2,3.7
	c1.2,2.3,3.7,3.1,6,1.8c0.2-0.1,0.5-0.3,0.7-0.5c0-0.1,0-0.1,0-0.1c-0.1-0.1-0.2-0.2-0.3-0.3c-0.8-0.8-1.4-1.8-1.9-2.8
	c-0.6-1.4-1-2.8-1.3-4.3c-0.3-1.6-0.5-3.1-0.8-4.7c-0.2-1-0.5-2.1-1-3c-0.6-1.1-1.6-1.7-2.8-1.6c-1.2,0.1-2.2,0.5-3,1.5
	C222.4,241.2,223,242.1,223.3,243.1z M210.2,249.7c0.5,1.2,1,2.3,1.5,3.5c0.4,0.9,0.9,1.7,1.6,2.4c0.5,0.6,1.2,1,1.9,1.3
	c1,0.4,2.2,0,2.9-0.9c0-0.1,0-0.2-0.1-0.2c-0.6-1-1-2.1-1.3-3.3c-0.3-1.5-0.6-2.9-0.9-4.4c-0.2-1.1-0.5-2.1-1.1-3
	c-1.3-2.4-3.4-3.3-6.1-2.6c-1.1,0.3-1.8,0.9-2.4,1.9C208.3,245.8,209.4,247.6,210.2,249.7z M211.4,255.5c-0.4-0.8-0.8-1.5-1.2-2.3
	c-0.6-1.3-1.1-2.6-1.7-4c-0.6-1.5-1.5-2.7-2.8-3.7c-0.6-0.5-1.3-0.7-2.1-0.8c-2.4,0-4.3,1-5.9,2.7c-1.1,1.3-1.9,2.8-2.3,4.4
	c-0.1,0.3-0.1,0.5-0.1,0.8c0,0.5,0.2,0.7,0.6,0.6c0.4,0,0.8-0.2,1.2-0.3c1.1-0.4,2.3-0.9,3.4-1.2c2-0.6,3.9-0.4,5.6,0.7
	c0.8,0.5,1.5,1.1,2.2,1.6c0.6,0.4,1.2,0.8,1.8,1.2c0.4,0.2,0.8,0.3,1.2,0.4C211.3,255.6,211.4,255.6,211.4,255.5z M160.3,275
	l-8.1-9.2c-0.3-0.3-0.7-0.5-1.1-0.4l-12.1,1.5c-1,0.1-1.7-1-1.2-1.9l6.2-10.5c0.2-0.4,0.2-0.8,0.1-1.2l-5.1-11.1
	c-0.4-0.9,0.4-2,1.4-1.7l11.9,2.7c0.4,0.1,0.8,0,1.1-0.3l9-8.3c0.8-0.7,2-0.2,2.1,0.8l1.1,12.2c0,0.4,0.3,0.8,0.6,1l10.7,6
	c0.9,0.5,0.8,1.8-0.1,2.2l-11.2,4.8c-0.4,0.2-0.6,0.5-0.7,0.9l-2.4,12C162.2,275.4,161,275.7,160.3,275z M152.1,251.1
	c-2.6-2.8-5.3-5.3-8.3-7.7c-0.7-0.6-1.4,0.6-0.7,1.2c2.9,2.3,5.6,4.8,8,7.5C151.7,252.7,152.7,251.7,152.1,251.1z M156.7,249.1
	c-0.3,0.8,1,1.2,1.3,0.4c1.1-3.1,2.4-6.2,3.9-9.2c0.4-0.8-0.8-1.5-1.2-0.7C159.2,242.7,157.9,245.9,156.7,249.1z M149.4,256.7
	c-2.4,1.8-4.8,3.8-7.1,5.8c-0.7,0.6,0.3,1.6,1,1c2.3-2,4.6-3.9,7.1-5.8C151,257.2,150.1,256.2,149.4,256.7z M160.8,255.5
	c3.5-0.2,7-0.3,10.4-0.2c0.9,0,0.9-1.4,0-1.4c-3.5-0.1-7,0-10.4,0.2C160,254.2,159.9,255.6,160.8,255.5z M161.2,269.6
	c-1.4-3.4-2.9-6.7-4.5-10c-0.4-0.8-1.6-0.1-1.2,0.7c1.6,3.3,3.1,6.6,4.5,10C160.4,271.1,161.6,270.5,161.2,269.6z M292.3,275
	l-8.1-9.2c-0.3-0.3-0.7-0.5-1.1-0.4l-12.1,1.5c-1,0.1-1.7-1-1.2-1.9l6.2-10.5c0.2-0.4,0.2-0.8,0.1-1.2l-5.1-11.1
	c-0.4-0.9,0.4-2,1.4-1.7l11.9,2.7c0.4,0.1,0.8,0,1.1-0.3l9-8.3c0.8-0.7,2-0.2,2.1,0.8l1.1,12.2c0,0.4,0.3,0.8,0.6,1l10.7,6
	c0.9,0.5,0.8,1.8-0.1,2.2l-11.2,4.8c-0.4,0.2-0.6,0.5-0.7,0.9l-2.4,12C294.3,275.4,293,275.7,292.3,275z M284.1,251.1
	c-2.6-2.8-5.3-5.3-8.3-7.7c-0.7-0.6-1.4,0.6-0.7,1.2c2.9,2.3,5.6,4.8,8,7.5C283.7,252.7,284.7,251.7,284.1,251.1z M288.7,249.1
	c-0.3,0.8,1,1.2,1.3,0.4c1.1-3.1,2.4-6.2,3.9-9.2c0.4-0.8-0.8-1.5-1.2-0.7C291.2,242.7,289.9,245.9,288.7,249.1z M281.4,256.7
	c-2.4,1.8-4.8,3.8-7.1,5.8c-0.7,0.6,0.3,1.6,1,1c2.3-2,4.6-3.9,7.1-5.8C283.1,257.2,282.1,256.2,281.4,256.7z M292.9,255.5
	c3.5-0.2,7-0.3,10.4-0.2c0.9,0,0.9-1.4,0-1.4c-3.5-0.1-7,0-10.5,0.2C292,254.2,292,255.6,292.9,255.5z M293.3,269.6
	c-1.4-3.4-2.9-6.7-4.5-10c-0.4-0.8-1.6-0.1-1.2,0.7c1.6,3.3,3.1,6.6,4.5,10C292.4,271.1,293.6,270.5,293.3,269.6z M399.5,273l-10-7
	c-0.3-0.2-0.8-0.3-1.1-0.1l-11.4,4.3c-1,0.4-1.9-0.5-1.6-1.5l3.5-11.7c0.1-0.4,0-0.8-0.2-1.1l-7.6-9.5c-0.6-0.8-0.1-2,0.9-2
	l12.2-0.3c0.4,0,0.8-0.2,1-0.6l6.7-10.2c0.6-0.9,1.9-0.7,2.2,0.3l4,11.5c0.1,0.4,0.5,0.7,0.8,0.8l11.8,3.2c1,0.3,1.2,1.6,0.4,2.2
	l-9.7,7.4c-0.3,0.2-0.5,0.6-0.5,1l0.6,12.2C401.5,272.9,400.3,273.6,399.5,273z M385.8,251.7c-3.2-2.1-6.5-3.9-9.9-5.5
	c-0.8-0.4-1.2,1-0.4,1.3c3.3,1.5,6.5,3.3,9.6,5.3C385.8,253.4,386.6,252.2,385.8,251.7z M389.8,248.7c-0.1,0.9,1.3,0.9,1.4,0
	c0.4-3.3,0.9-6.6,1.6-9.9c0.2-0.9-1.1-1.3-1.3-0.4C390.7,241.9,390.2,245.3,389.8,248.7z M384.5,257.9c-1.9,2.4-3.7,4.8-5.5,7.3
	c-0.5,0.7,0.7,1.5,1.2,0.7c1.7-2.5,3.6-4.9,5.5-7.3C386.2,257.9,385.1,257.2,384.5,257.9z M395.4,254c3.3-1,6.7-1.9,10.1-2.7
	c0.9-0.2,0.6-1.6-0.3-1.4c-3.4,0.8-6.8,1.7-10.1,2.7C394.2,252.9,394.5,254.3,395.4,254z M399.1,267.6c-2.2-2.9-4.5-5.8-6.8-8.6
	c-0.6-0.7-1.6,0.2-1,0.9c2.3,2.8,4.6,5.7,6.8,8.6C398.6,269.2,399.7,268.3,399.1,267.6z"/>
<path fill="#231F20" d="M59.4,224.6c-11.8-11.4-15.9-34-11.3-51.6c1.4-5.4,7.1-8.8,8.7-0.7c0.1,0.7,0.3,1.4,0.4,2.2
	c1.1,8.4,4,28.1,11.3,42.3c6.1-19.7,9.6-29.2,19.5-44.4c2.5-3.9,7.6-2.1,5.9,3.4c-3.4,12.6,1.2,22.6,11.8,22.6
	c3.4,0,3.2,3.5,0.7,3.5c-10.4,0-19.1-4.4-19.8-14.9c-4.7,6.7-10.5,19-15.1,38.9C70.3,232.1,64.1,228.9,59.4,224.6z M108.2,176.5
	c3-8.1,8.5-16.6,9.8-10.8c0.6,4.1,0.1,8.5-0.9,14.9c-5.9,42.6,3.4,56.9,20.7,17.1c0.3-0.4,0.7-0.8,1.1-1c0.2-0.1,0.7,0,1,0.1
	c0.1,0.1,0.3,0.4,0.3,0.6c-0.1,0.6-0.1,1.2-0.3,1.8c-5.4,18-19.9,37.9-30.6,24.5C100.6,213.1,102.2,192.9,108.2,176.5z M113.7,153
	c0.5-6,6.9-8.6,9.2-2.4c2.8,7.9-7.6,12.3-9,5.4C113.7,155.1,113.7,154,113.7,153z M139,154.3l0.5-2.3c-4.1,1.6-6.9,2.4-10.1,2.1
	c-7.1-0.5-7.9-8.2-1.9-11.2c2.4-1.1,2.8,1.7,2.3,4.7c-0.6,3.6,3.8,3.7,11,0c2-7.6,6.2-19.9,9.3-27c2.3-5,5.2-4.2,5.7-1
	c0.8,5.8-0.5,15.8-1.7,23.3c7.6-3.1,26.4-11.8,34.6-7.7c8,3.5,2,11.6-3.3,9.8c-2.7-0.8,1-3.4-2.2-4.6c-7.4-2.8-21.4,3-29.7,7
	c-4.3,29.9-7.3,62.5-3.4,71.6c3.2,7.5,11.7-3.6,16.3-15.2c3-7.6,6.6-6.4,4.4,0c-6.1,18.3-24.1,34.3-31.7,19.2
	C132.6,210.3,134.4,174.3,139,154.3z M184.8,170.8c9.4-7.8,22.6-5.4,20.7,5.4c-0.5,1.9-3.2,1.9-2.8-0.1c1.2-8.2-4.5-9-10.4-3.6
	c-5.9,5.3-10.6,17.2-12.2,27.3c-5.6,29.3,8.4,15.8,23.2-12.7c0.7-1.2,1.2-2.6,1.7-4c1.2-3.7,2.4-7.5,3.7-11.1c0.6-1.7,1.3-3.4,2.1-5
	c0.5-1.1,1.5-1.6,2.7-1.7c1.6-0.1,2.6,0.8,2.6,2.4c-0.1,3.1-0.3,6.4-0.6,9.5c-0.8,8.1-1.6,16-1.6,24.2c-0.8,22.8,9,14.9,17.9-4.4
	c0.2-0.3,2.2-1.1,2.2,0c-11.8,35.1-35.6,42.4-31.9,1.9c-15.3,27.6-28.9,32.5-34.6,18.5C162.9,205.5,171.1,182.6,184.8,170.8z
	 M230.5,174.9c0.3-1.5,0.7-3,1.3-4.5c0.4-1.1,1.4-1.6,2.6-1.5c0.8,0.1,1.4,0.5,1.7,1.2c0.3,0.8,0.5,1.7,0.7,2.5
	c0.7,5.2,0.4,14.3,2.8,31.3c1.1-7.3,3.7-17,8.1-23.9c8.7-13.7,17-6.2,17.9,13.3c0.5,6.6,0.5,6.6,4.7-1.2
	c6.1-11.4,20.9-19.9,20.1-1.2c-1.7,20.8-1,40.3,16,14.5c4-7,6.1-2.9,1.7,4.2c-18.3,28.6-31.6,18.7-27.6-16.7
	c1.4-10.3-11.2,1.8-12.3,19.8c0.3,8.7-7.6,13.5-10,4.9c-2.2-7.7-2.5-17.9-2.4-27.3c0-11.6,0.1-17.1-5-9.1
	c-4.8,7.7-9.4,29.2-7.5,40.1c1.4,5.4-6.4,5.9-9,1.3C227.9,211.9,228,190.8,230.5,174.9z M310.7,176.5c3-8.1,8.5-16.6,9.8-10.8
	c0.6,4.1,0.1,8.5-0.9,14.9c-5.9,42.6,3.4,56.9,20.7,17.1c0.3-0.4,0.7-0.8,1.1-1c0.2-0.1,0.7,0,1,0.1c0.1,0.1,0.3,0.4,0.3,0.6
	c-0.1,0.6-0.1,1.2-0.3,1.8c-5.4,18-19.9,37.9-30.6,24.5C303.1,213.1,304.7,192.9,310.7,176.5z M316.2,153c0.5-6,6.9-8.6,9.2-2.4
	c2.8,7.9-7.6,12.3-9,5.4C316.2,155.1,316.2,154,316.2,153z M368.4,220.9c-1.3-9.5,0.1-20.9,2.6-32.1c4.3-17.9,1.9-22.8-7.1-6.8
	c-5,8.5-8.6,17.6-10.9,27.1c-1.8,7.7-1.9,8.2-2.3,15.6c-0.6,9.5-7.4,7.7-9.6-0.3c-1-3.8-2.2-7.6-2.8-11.4c-1.9-10.9,1-34.4,7.1-38.7
	c5.6-4,3.4,30.4,4.1,35.6c2.2-11.5,8.2-25,16.2-35.6c7-10.3,16.5-9,16.5,1.1c0,14.1-7.2,59.1,4,50.8c7.7-5.6,12.7-17.2,14.8-27.1
	c0.2-0.3,0.8-0.6,1.2-0.7c0.5,0,0.7,0.6,0.6,1.1c-1.3,13-6.2,23.3-14,29.5S370.1,231.8,368.4,220.9z M165.8,147.3
	c-2.4,0.9-5.1,2-7.9,3.2c-0.1,0.8-0.2,1.6-0.3,2.4C160.7,152.5,163.5,150.6,165.8,147.3z M275.2,153c2.7,0,4.7-0.9,6.1-2.6
	c1.4-1.7,2.1-4.2,2.1-7.5c0-19.7-0.4-37.7-1.1-54.2c-0.1-3.2-0.2-5.4-0.3-6.4s-0.1-2.3-0.1-3.8c0-1.3,0.1-1.9,0.3-1.9
	c0.3,0,0.9,1.1,1.5,3.4c6.6,22,12.1,38.6,16.7,49.7c1.1,2.6,2.6,3.8,4.7,3.8c1.9,0,3.4-1.2,4.4-3.6c6.8-15.8,12.5-31.5,17.1-47.3
	c0.6-2,1.1-3.1,1.5-3.1c0.4,0,0.6,0.6,0.6,1.9c0,2.9-0.1,7.2-0.3,13c-0.4,11.3-0.6,28.1-0.6,50.3c0,0.1,0,0.2,0,0.3
	c0.9,1,1.6,2.2,2.2,3.7c0.5,1.3,0.6,2.6,0.7,3.9c0.5,0.2,1.1,0.4,1.8,0.4c3.6,0,5.4-2.7,5.4-8.2v-78c0-3.3-0.5-6.1-1.5-8.4
	c-1.4-3.1-3.9-4.7-7.5-4.7c-1.6,0-3.2,0.6-4.8,1.8c-1.6,1.2-2.9,3.3-3.8,6.4c-5.1,16.4-10.7,32.7-17,48.9
	c-1.7-5.1-3.4-10.4-5.1-15.9c-2.7-8.4-6.1-18.8-10.2-31.1c-2.2-6.7-6-10-11.4-10c-5.8,0-8.7,4.4-8.7,13.1v75.7c0,1.7,0.1,3.4,0.4,5
	C268.8,151.2,271.1,153,275.2,153z M365.2,150.5c3.2,1.7,7.7,2.6,13.5,2.6c6.6,0,11.3-0.6,14-1.8c2.7-1.2,4.1-2.8,4.1-4.9
	c0-1.1-0.4-1.9-1.2-2.4c-0.8-0.5-1.8-0.8-2.9-0.8c-1.7,0-3.3,0.1-4.9,0.2c-1.6,0.1-3.3,0.2-4.9,0.2c-5.2,0-8.8-1.3-10.6-3.9
	c-1.1-1.7-1.7-4.1-1.7-7.3v-2.9c0-1.8,1-2.7,3.1-2.7l13.2,0.2c1.5,0,2.7-0.4,3.6-1.1s1.3-1.6,1.3-2.6c0-1.8-0.6-3.1-1.9-3.8
	c-1.1-0.6-2.7-1-4.8-1c-1.8,0-3.6,0-5.4,0.1c-1.8,0.1-3.6,0.1-5.4,0.1c-1.2,0-2.1-0.3-2.7-0.8c-0.6-0.6-0.9-1.8-0.9-3.8V69
	c0-3.4,1.5-5.1,4.5-5.1c1.6,0,3.2,0,4.9,0.1c1.6,0.1,3.3,0.1,4.9,0.1c2.3,0,3.9-0.5,5-1.4c1.1-0.9,1.7-1.9,1.7-2.9
	c0-2.8-1.8-4.4-5.3-4.8c-1.4-0.2-2.8-0.3-4-0.3h-17.2c-5,0-8.1,2.1-9.3,6.2c-0.6,2-0.8,4.3-0.8,7.1v53.5c0,4.1,0.2,8.1,0.5,11.8
	C356.2,141.7,359.5,147.4,365.2,150.5z M197.3,141.8c-0.1,0.4-0.2,0.8-0.4,1.2c1.7,3.3,4.1,5.8,7.2,7.5c3.2,1.7,7.7,2.6,13.5,2.6
	c6.6,0,11.3-0.6,14-1.8c2.7-1.2,4.1-2.8,4.1-4.9c0-1.1-0.4-1.9-1.2-2.4c-0.8-0.5-1.8-0.8-2.9-0.8c-1.7,0-3.3,0.1-4.9,0.2
	c-1.6,0.1-3.3,0.2-4.9,0.2c-5.2,0-8.8-1.3-10.6-3.9c-1.1-1.7-1.7-4.1-1.7-7.3v-2.9c0-1.8,1-2.7,3.1-2.7l13.2,0.2
	c1.5,0,2.7-0.4,3.6-1.1c0.9-0.7,1.3-1.6,1.3-2.6c0-1.8-0.6-3.1-1.9-3.8c-1.1-0.6-2.7-1-4.8-1c-1.8,0-3.6,0-5.4,0.1s-3.6,0.1-5.4,0.1
	c-1.2,0-2.1-0.3-2.7-0.8c-0.6-0.6-0.9-1.8-0.9-3.8V69c0-3.4,1.5-5.1,4.5-5.1c1.6,0,3.2,0,4.9,0.1c1.6,0.1,3.3,0.1,4.9,0.1
	c2.3,0,3.9-0.5,5-1.4c1.1-0.9,1.7-1.9,1.7-2.9c0-2.8-1.8-4.4-5.3-4.8c-1.4-0.2-2.8-0.3-4-0.3h-17.2c-5,0-8.1,2.1-9.3,6.2
	c-0.6,2-0.8,4.3-0.8,7.1v53.5c0,4,0.2,7.8,0.5,11.4C197.2,135.6,197.9,139.1,197.3,141.8z M172.4,130.9c0-0.1,0-0.1,0.1-0.2
	c3.9-14.3,7.3-31.7,10.2-52.3c0.3-2.5,0.7-5.3,1.2-8.4c0.5-3.1,0.7-5.7,0.7-7.7c0-2.9-0.4-5-1.1-6.3c-0.9-1.6-2.4-2.4-4.5-2.4
	s-3.5,1.1-4.3,3.2c-0.4,0.9-0.6,1.9-0.7,2.8c-1.3,12-3.3,26.7-6,44.1c-2.5,15.9-4.7,26.2-6.4,30.8
	C164.9,133.3,168.7,131.9,172.4,130.9z M64.5,153c4.2,0,8-1.1,11.5-3.4c3.4-2.3,6.2-5.3,8.2-8.9c2-3.6,3.1-7.5,3.1-11.5
	c0-4.8-1.4-7.8-4.2-9.1c-2.1-1-6.7-1.5-13.7-1.5c-2.2,0-3.9,0.4-5,1.1c-1.1,0.7-1.7,2-1.7,3.7c0,1,0.4,2,1.3,2.9
	c0.9,0.9,2.1,1.4,3.6,1.4l3-0.1c2-0.1,3.9-0.1,5.9-0.1c1.9,0,2.8,0.7,2.8,2.2c0,2.2-0.6,4.3-1.8,6.3c-1.2,2-2.7,3.7-4.7,5
	c-1.9,1.3-4.1,2-6.4,2c-4.7,0-8.3-3.8-10.8-11.4c-2.7-8.3-4.1-18.9-4.1-32c0-12.5,1.6-22.1,4.9-28.7c2.8-5.6,6.8-8.4,11.9-8.4
	c4.3,0,7.4,2.9,9.3,8.7c1,3.2,1.5,7,1.5,11.3c0,3.3-0.2,6.2-0.6,8.7c-0.3,2-0.4,3.7-0.4,5.4c0,2.1,0.4,3.6,1.2,4.4
	c0.6,0.7,1.6,1.1,2.9,1.1c1.8,0,3.1-1.6,4.1-4.7c0.9-3.1,1.4-7.5,1.4-13c0-8.8-1.5-15.8-4.4-21.1c-3.6-6.4-9.4-9.6-17.5-9.6
	c-5.5,0-10.1,1.1-13.7,3.3c-11.1,6.7-16.7,21.9-16.7,45.7c0,17.6,3,30.8,8.9,39.6C49.1,149.5,55.8,153,64.5,153z M99.5,143.9
	c-0.5,0.3-1.3,0.5-2.4,0.5c-3.4,0-5.1,1.4-5.1,4.2c0,2.2,1.6,3.3,4.7,3.3H109c0.6-4.4,3.2-7.8,6.7-9.2c0,0,0,0,0,0V63.9
	c0-1.1,0.6-1.6,1.8-1.7c2-0.1,3.4-0.3,4.2-0.7c1.5-0.8,2.2-2,2.2-3.6c0-2-1.7-3.1-5.1-3.1H97.1c-3.4,0-5.1,1-5.1,3.1
	c0,1.7,0.7,2.9,2.2,3.6c0.7,0.4,2,0.6,4,0.7c1.4,0.1,2,0.8,2,2.2v77.8C100.2,143,100,143.5,99.5,143.9z M140.3,130.3
	c0.1,0.5,0.3,1,0.4,1.5c1.7-4.8,3.4-9.5,4.9-13.1c2.3-4.9,5.2-6.2,7.2-6.5c-0.5-2.5-1-5.3-1.5-8.2c-3.2-18.2-5.3-31.4-6.3-39.4
	c-0.8-6.3-3.9-9.4-9.4-9.4c-4.8,0-7.2,2.5-7.2,7.6c0,2.7,1.6,13.7,4.8,33.2C135.1,108.1,137.5,119.5,140.3,130.3z"/>
<path fill="#00B5AC" d="M329.1,333.2c-4.3,0-8.6,0-13,0c-6.5,0-12.8,1.1-18.8,3.8c-2.1,1-4.2,2.2-6.2,3.4c-0.8,0.5-1.7,1-2.5,1.5
	c-1,0.5-2,0.5-2.9-0.2c-0.9-0.7-1.1-1.6-0.4-2.4c0.7-0.8,1.5-1.7,2.4-2.3c1.9-1.3,3.9-2.6,5.9-3.8c10.2-5.8,21.2-9.6,32.7-12.2
	c4.7-1.1,9.3-2.5,13.8-4.3c6.4-2.6,11.8-6.6,16.2-11.9c2.9-3.5,5.8-7.1,8.7-10.6c3.1-3.8,6.4-7.3,10.2-10.4c1.1-0.8,2-1.8,3.1-2.7
	c1.4-1.1,3.1-1.9,4.9-2.3c2.1-0.5,4.2-0.1,6.2,0.6c2.9,1.1,5.2,2.9,7,5.4c3.4,4.8,4.6,10,3.5,15.8c-1.2,6.4-4.4,11.7-8.9,16.3
	c-4.8,4.9-10.6,8.4-16.9,10.9c-5.1,2-10.5,3.2-15.9,4.1c-7,1.1-14,1.5-21,1.4C334.5,333.3,331.8,333.3,329.1,333.2
	C329.1,333.3,329.1,333.2,329.1,333.2z M361.1,285.3c1.3-2.7,2-5.4,2.1-8.3c0-1.2-0.1-2.3-0.5-3.4c-0.9-2.3-2.7-3.4-5.1-2.8
	c-1.3,0.3-2.5,0.8-3.7,1.5c-2.8,1.5-5.2,3.7-7.3,6.1c-2.3,2.5-4.5,5-6.7,7.5c-6.6,7.6-14.2,14.1-22.4,20c-4.7,3.4-9.6,6.6-14.9,9
	c-1.6,0.7-3.3,1.4-4.9,2.1c-0.6,0.3-1.1,0.6-1.3,1.3c-0.4,1.2,0.4,2.3,1.7,2.2c0.7-0.1,1.4-0.2,2.1-0.4c5.4-1.4,10.8-3,16.1-5.1
	c2.2-0.9,4.4-1.5,6.6-2.3c6.4-2.3,12.7-4.8,18.6-8.3c5.6-3.3,10.8-7.2,15.1-12.2C358.3,290.2,360,287.9,361.1,285.3z M336.5,270.3
	c1-3.2,1.6-6.6,1.4-10c-0.3-5.2-2.4-9.6-6.7-12.7c-2.2-1.5-4.6-2.1-7.2-1.4c-2.4,0.7-3.9,2.4-4.1,4.9c-0.1,1.1,0,2.2,0.2,3.3
	c0.2,1.5,0.6,3.1,0.9,4.6c1.1,4.8,1.1,9.6-0.3,14.4c-2.2,7.7-6.9,13.1-14.3,16.1c-1.4,0.6-3,0.9-4.5,1.4c-0.7,0.2-1.5,0.5-2,1
	c-1,0.8-0.9,1.9,0.2,2.6c0.3,0.2,0.6,0.4,0.9,0.4c1.3,0.2,2.6,0.5,3.9,0.5c3-0.1,6-0.7,8.7-2c4-1.9,7.8-4.3,11.4-6.9
	c4.2-3.1,7.5-7,9.7-11.7C335.3,273.4,336,271.9,336.5,270.3z M210.2,291.1c0,0.2,0,0.4,0,0.6c-0.4,3-0.9,6-1.3,9
	c-0.7,5.6-1,11.2-0.6,16.8c0.1,2.1,0.5,4.1,1.3,6.1c0.9,2.4,2.5,4.1,4.8,5.2c1.5,0.7,3.2,1,4.8,0.9c3.7-0.3,7.3-1.3,10.6-3.2
	c2.6-1.5,5.1-3.1,7.5-5c6-4.6,11.4-10,16.5-15.6c4-4.4,7.6-9.2,10.7-14.3c1.7-2.8,3.2-5.8,4.3-8.9c0.6-1.6,1-3.3,0.9-5.1
	c-0.1-3.4-2.5-5.7-5.9-5.6c-1.5,0-2.9,0.5-4.2,1.3c-1.8,1.2-3.5,2.5-4.8,4.3c-1.5,2-3.1,4.1-4.3,6.3c-1.8,3.1-3.3,6.3-4.9,9.5
	c-3.8,7.8-8.3,15.1-13.5,22.1c-1.5,1.9-3,3.7-4.9,5.3c-1.1,0.9-2.3,1.6-3.7,1.8c-0.9,0.1-1.2,0-1.6-0.9c-0.2-0.6-0.4-1.2-0.4-1.8
	c0-1.3-0.1-2.6,0.1-3.8c0.5-3.4,1.1-6.8,1.9-10.2c1.3-5.8,2.7-11.6,4-17.4c0.8-3.8,1.2-7.7,0.9-11.6c-0.2-2.1-0.7-4-1.7-5.8
	c-1-1.7-2.4-2.7-4.4-3c-1.9-0.3-3.7-0.1-5.5,0.7c-2.5,1.1-4.4,2.8-5.9,5.1c-1.3,2-2.5,4.1-3.6,6.2c-3.1,5.9-6.1,11.9-9.1,17.9
	c-2.2,4.4-5,8.4-8.1,12.1c-1.7,2.1-3.6,4-5.6,5.9c-0.7,0.7-1.6,1.3-2.5,1.8c-1.2,0.7-1.9,0.5-2.7-0.6c-0.3-0.5-0.7-1-0.8-1.6
	c-0.3-1.2-0.6-2.4-0.7-3.6c-0.2-2.2,0.1-4.3,0.5-6.4c1.1-6.4,3.2-12.4,6.7-17.8c0.9-1.4,2-2.6,3.1-3.8c0.9-0.9,2.1-1.6,3.4-1.7
	c1.7-0.1,3.4-0.1,5.1-0.1c0.8,0,1.6,0,2.4-0.2c2.3-0.5,3.9-2.6,3.4-4.9c-0.2-0.9-0.7-1.9-1.2-2.6c-3.8-4.7-8.8-6.5-14.7-5.6
	c-5.5,0.9-10.3,3.3-14.3,7.3c-4.8,4.8-8.2,10.6-12.1,16.1c-0.5,0.7-0.9,1.4-1.5,2.1c-5.3,5.8-10.6,11.7-16,17.4
	c-1.6,1.7-3.4,3.2-5.2,4.7c-1.3,1-2.7,1.9-4.2,2.7c-2.4,1.2-4.9,0.5-6.5-1.7c-0.5-0.7-1-1.6-1.3-2.5c-0.7-1.7-0.9-3.5-1-5.3
	c-0.2-3.7,0.2-7.4,0.7-11c0.1-0.6,0.3-1,0.8-1.3c1.7-1.2,3.4-2.3,5.1-3.6c2.7-2,5-4.4,6.9-7.2c1.2-1.8,2-3.7,2.4-5.8
	c0.8-4.4-1.3-7.5-5.6-8.5c-2.5-0.6-4.9-0.1-7.2,1c-3.1,1.5-5.7,3.7-7.9,6.3c-5,6-8.1,12.9-9.5,20.6c-0.2,1-0.6,1.3-1.4,1.6
	c-4,1.4-7.9,2.8-11.8,4.2c-0.1,0.1-0.3,0.1-0.6,0.1c-0.2-0.7-0.4-1.3-0.6-1.9c-2.3-7.3-4.7-14.5-6.4-21.9c-0.2-0.9-0.1-1.5,0.6-2.3
	c4-4.2,7.6-8.7,11-13.4c4.3-6,8.4-12.1,11.5-18.8c1.4-2.9,2.5-5.9,3.1-9.1c0.5-2.8,0.1-5.4-2-7.4c-2.2-2.1-4.8-3.5-7.8-3.9
	c-2.5-0.4-5-0.2-7.4,0.5c-9.4,2.5-16.7,7.8-21.5,16.4c-3.9,7-5.5,14.6-5.2,22.6c0.1,2.2,0.4,4.4,0.6,6.6c0.4,4.8,0.9,9.6,1.8,14.3
	c0.2,0.8,0,1.2-0.6,1.7c-3.8,3.3-7.6,6.7-11.5,10c-2.1,1.8-4.3,3.4-6.5,5c-3.2,2.3-6.6,4.3-10.2,5.8c-1.7,0.7-3.5,1.2-5.4,1.1
	c-2.9-0.1-5.2-2-5.6-4.9c-0.1-0.8-0.2-1.7,0-2.5c0.3-1.4,0.7-2.9,1.3-4.2c1.1-2.7,2.7-5.1,4.3-7.4c2.8-3.9,5.6-7.7,8.3-11.6
	c1-1.5,1.9-3,2.6-4.6c1.3-3,0.1-5.5-2.9-6.8c-0.4-0.1-0.7-0.3-1.1-0.3c-2.2-0.6-4.4-0.3-6.5,0.6c-3.7,1.5-7,3.6-9.7,6.6
	c-3.7,4.1-6.7,8.6-8.8,13.7c-1.2,2.8-2.1,5.8-2.1,8.8c0,4.7,1,9,3.8,12.9c1.5,2.1,3.4,3.7,5.8,4.7c3,1.2,6.1,1.5,9.2,1.1
	c3.9-0.5,7.7-1.8,11.2-3.5c3.6-1.8,7.1-3.9,10.4-6.3c5.1-3.6,9.8-7.6,14.3-11.7c0.4-0.3,0.7-0.6,1.3-1.1c1.5,6.7,3.3,13.1,4.6,19.6
	c-1.2,0.8-2.3,1.5-3.3,2.2c-9.1,6.1-17.1,13.5-23.1,22.7c-1.6,2.4-3,4.9-4,7.6c-1.4,4.1-2,8.2-0.7,12.5c2.8,8.9,11.5,16.2,23.2,13.9
	c10.9-2.1,18.9-8.3,24.2-18.1c4.8-9,5.8-18.6,4.7-28.6c-0.6-5.1-1.7-10.1-3.1-15c-0.1-0.2,0-0.4-0.1-0.7c3.8-1.9,7.6-3.8,11.7-5.2
	c0,1-0.1,1.8,0,2.6c0.2,2.1,0.4,4.2,0.8,6.3c1.2,5.7,4.5,9.7,10,11.7c4.2,1.5,8.3,1.2,12.4-0.5c3.2-1.4,6-3.4,8.5-5.8
	c3.4-3.2,6.4-6.8,9.3-10.4c1.8-2.3,3.6-4.6,5.5-6.8c2.7-3.1,5.4-6.2,8.1-9.3c0.2-0.2,0.3-0.5,0.5-0.7c0.1,0.1,0.2,0.1,0.3,0.2
	c-0.1,0.4-0.2,0.9-0.4,1.3c-1.8,6.3-2.6,12.8-1.9,19.3c0.4,3.4,1.3,6.6,3.1,9.6c3,5.1,9,6.6,14,4.3c2.1-0.9,3.9-2.2,5.6-3.6
	c4.1-3.6,7.6-7.7,10.9-12c4.7-6.2,8.8-12.9,12.9-19.5c0.3-0.4,0.5-0.8,0.8-1.3C210,291,210.1,291.1,210.2,291.1z M82.9,332.6
	c0.3,4.4-0.2,8.6-1.4,12.8c-1.9,6.3-5.4,11.6-10.2,16.1c-1.9,1.8-4.1,2.9-6.7,3.5c-2.9,0.7-5.5,0.2-8-1.8c-3.4-2.8-4.4-6.4-4.1-10.5
	c0.2-1.7,0.6-3.3,1.1-4.9c1.6-4.5,4.2-8.4,7.6-11.8c4.3-4.3,9.1-8,14.1-11.5c1.6-1.1,3.3-2.2,4.9-3.3c0.3-0.2,0.6-0.4,1.1-0.7
	C82.2,324.7,82.6,328.6,82.9,332.6z M86.2,265.8c-0.3-2.3-0.5-4.7-0.5-7.1c0-4.3,1-8.4,2.9-12.2c0.9-2,2.2-3.8,3.8-5.3
	c2.6-2.3,5.6-3.3,9-2.6c3.2,0.7,4.8,2.6,4.8,5.9c0,2.4-0.5,4.6-1.5,6.8c-0.8,1.7-1.6,3.5-2.6,5.1c-4,6.5-8.7,12.4-13.9,17.9
	c-0.1,0.1-0.2,0.2-0.6,0.5C87.2,271.7,86.6,268.8,86.2,265.8z M130.4,279.8c0.6-1.1,1.3-2.1,2.1-3c0.6-0.7,1.3-1.4,2.3-1
	c1,0.4,1.4,1.3,1.5,2.3c0.1,0.9,0,1.8-0.2,2.6c-0.5,2.6-1.9,4.7-3.6,6.6c-1.8,1.8-3.8,3.5-5.7,5.2c-0.1,0.1-0.3,0.2-0.7,0.4
	C127.2,288.2,128.3,283.8,130.4,279.8z M275,356.1c5.1,4.8,10.9,8.7,17.3,11.4c11.8,5,23.2,4.1,34-3c2.3-1.5,4.3-3.4,6.4-5.1
	c0.6-0.5,1.2-1,2.1-1.8c0.6,0.8,1.1,1.5,1.6,2.1c9.5,8.9,20.8,11.9,33.5,10.3c3.4-0.4,6.5-1.8,9.5-3.5c2.4-1.4,3.2-4,2.1-6.3
	c-1.1-2.2-3.5-3.1-6-2.3c-1,0.4-2,0.9-3.1,1.3c-2,0.6-4,1.4-6,1.5c-9.5,0.5-18-2-24.7-9.2c-1.2-1.3-2.6-2.4-4.1-3.3
	c-2.4-1.4-4.8-1.2-7.1,0.4c-0.8,0.6-1.6,1.3-2.4,2c-1.8,1.5-3.5,3.2-5.4,4.6c-8.6,6.6-17.9,7.6-27.7,3.1c-5.2-2.4-9.9-5.6-14-9.6
	c-2-1.9-4.1-3.9-6.4-5.5c-3.2-2.3-6.5-1.9-9.2,0.9c-1.1,1.1-2,2.4-2.9,3.6c-2.1,2.8-4.5,5.3-7.2,7.5c-5.4,4.1-11.5,5.8-18.3,4.8
	c-6.2-0.9-11.8-3.2-17-6.5c-1.9-1.2-3.8-2.6-5.8-3.8c-1.2-0.7-2.4-1.4-3.7-1.9c-3.2-1.2-6-0.4-8.1,2.3c-1,1.3-1.9,2.7-2.8,4
	c-1.6,2.1-3.1,4.3-4.9,6.3c-5,5.6-11.3,7.3-18.5,5.9c-8.1-1.6-15.2-5.1-21.8-10c-1.1-0.8-2.2-1.8-3.4-2.5c-3.3-2.2-5.9-2-8.9,0.6
	c-1.6,1.4-3.1,2.8-4.6,4.1c-3.7,3.2-7.8,5.7-12.6,6.7c-6.4,1.3-12.6,1-18.7-1.7c-2.5-1.1-5.1-0.2-6.3,2c-1.2,2.2-0.5,4.9,1.8,6.4
	c1.1,0.7,2.3,1.3,3.6,1.7c7,2.1,14.1,2.7,21.2,1.1c6.8-1.5,12.6-4.9,17.8-9.4c0.9-0.8,1.8-1.5,2.5-2.2c0.3,0,0.4,0,0.4,0.1
	c0.6,0.4,1.2,0.9,1.8,1.3c7.4,5.4,15.6,9.3,24.6,11.2c10.7,2.2,20.1-0.4,27.7-8.4c2.1-2.2,3.9-4.8,5.8-7.3c0.5-0.7,1-1.4,1.6-2.3
	c1.7,1.1,3.3,2.2,4.9,3.2c5.7,3.8,11.9,6.5,18.6,8.1c4.7,1.1,9.5,1.3,14.3,0.4c8.4-1.6,15.1-6.1,20.8-12.3c1.2-1.4,2.4-2.8,3.7-4.5
	C272.6,353.8,273.8,355,275,356.1z"/>
</svg>
