<?xml version="1.0" encoding="utf-8"?>
<!-- Generator: Adobe Illustrator 18.0.0, SVG Export Plug-In . SVG Version: 6.00 Build 0)  -->
<!DOCTYPE svg PUBLIC "-//W3C//DTD SVG 1.1//EN" "http://www.w3.org/Graphics/SVG/1.1/DTD/svg11.dtd">
<svg version="1.1" id="Layer_1" xmlns="http://www.w3.org/2000/svg" xmlns:xlink="http://www.w3.org/1999/xlink" x="0px" y="0px"
	 viewBox="0 0 432 432" enable-background="new 0 0 432 432" xml:space="preserve">
<g>
	<path fill="#231F20" d="M147.2,154.2c0.2,0.5,0.4,1,0.5,1.5c0.1,0.5-0.1,1-0.5,1.5c-0.8,0.8-1.8,1-2.9,0.6
		c-3.9-1.3-7.1-3.5-9.7-6.6c-3.1-3.5-5.4-7.4-6.9-11.4c-1.5-4.1-2.7-8.4-3.4-12.9c-1.1-6.5-1.6-13-1.5-19.5c0.1-6.5,0.4-13,0.9-19.5
		c0.2-2.1,0.4-4.2,0.6-6.4c0.3-2.1,0.6-4.2,0.9-6.3c-1,1.6-1.9,3.2-2.7,4.9c-0.7,1.7-1.5,3.4-2.3,5.1c-3,6.9-5.8,13.9-8.3,20.9
		c-2.6,7-5.1,14.1-7.6,21.3c-0.5,1.3-1,2.7-1.5,4c-0.5,1.3-1.1,2.6-1.7,4c-1.7,3.6-4.6,5.5-8.7,5.8c-0.9,0.1-1.5,0-2-0.4
		c-0.5-0.3-0.8-0.9-0.9-1.9c-0.5-3.1-0.7-6.1-0.6-8.7c0.2-5,0.3-9.9,0.3-14.9c0-5,0.3-10,0.8-14.9c0.4-4.2,0.8-8.5,1.2-12.7
		s1-8.5,1.6-12.7c0-0.1,0-0.2-0.1-0.3c0-0.1-0.1-0.3-0.1-0.6c-1.2,2.5-2.2,5-3.2,7.3c-0.9,2.4-1.8,4.7-2.7,7.1
		c-2.7,7.3-5.3,14.6-7.9,21.8c-2.6,7.2-5.2,14.5-7.9,21.8c-0.6,1.7-1.4,3.4-2.2,5.1c-0.8,1.7-1.9,3.1-3.2,4.5
		c-2,2.2-4.5,3.3-7.7,3.3c-1.4-0.1-2.4-0.4-2.9-1c-0.6-0.6-0.8-1.6-0.7-3.1c0.2-2.6,0.5-5.2,1-7.7c0.5-2.6,1-5.1,1.5-7.6
		c0.7-4.4,1.3-8.8,1.8-13.2c0.5-4.4,0.9-8.7,1.4-13.2c0.4-4.2,0.8-8.4,1.2-12.6c0.4-4.1,0.8-8.3,1.2-12.6c0.2-2.4,0.3-4.8,0.5-7.2
		c0.2-2.4,0.3-4.8,0.4-7.2c-0.4-2.1-1.2-4.1-2.3-6c-1.1-1.8-2.9-3.1-5.1-3.8h-1.1H54H53L49.6,50h-0.1c-0.2,0-0.4,0.1-0.7,0.2h-0.1
		c-0.3,0.1-0.7,0.2-1.2,0.4c-0.3,0.1-0.6,0.1-0.9,0.1c-0.3,0-0.5,0.1-0.8,0.2c-0.3,0.2-0.6,0.3-0.8,0.4s-0.5,0.2-0.7,0.2
		c-0.2,0.1-0.3,0.2-0.5,0.2c-0.2,0.1-0.4,0.2-0.7,0.4c-0.2,0.1-0.3,0.2-0.5,0.2c-0.2,0.1-0.4,0.2-0.6,0.2c-0.1,0-0.3,0.1-0.6,0.4
		c-0.1,0.1-0.1,0.1-0.2,0.1c0,0-0.1,0-0.2,0.1c-0.6,0.2-1.1,0.4-1.6,0.7c-0.5,0.3-1,0.7-1.6,1.1l-1.9,1.4c-0.3,0.2-0.8,0.6-1.3,1.2
		c-0.2,0.2-0.5,0.4-0.7,0.6c-0.2,0.2-0.5,0.4-0.7,0.6c-0.6,0.6-1.3,1.3-1.9,1.9c-0.6,0.6-1.3,1.4-1.9,2.2c-0.8,0.9-1.5,1.9-2.1,3.1
		c-0.9,1.3-1.5,2.5-1.9,3.5c-1.3,2.9-2.1,6-2.4,9.3v0.1c-0.2,0.3-0.2,0.7,0,1.1v0.1v0.2c-0.2,1.3-0.1,2.3,0.1,3.2v0.2v0.4
		c0.1,0.2,0.1,0.4,0.1,0.6s0,0.4,0.1,0.5c0,0.2,0,0.4,0.1,0.5v0.2c0,0.1,0,0.1,0.1,0.2c0,0,0.1,0.1,0.1,0.2c0.1,0.4,0.1,0.7,0.2,1.1
		c0,0.3,0.1,0.7,0.3,1.1l0.1,0.1c0,0.2,0,0.3,0.1,0.3c0,0,0.1,0.1,0.1,0.3c0.1,0.2,0.2,0.3,0.2,0.4c0.1,0.1,0.2,0.2,0.2,0.4
		c0.2,0.2,0.3,0.5,0.4,0.8c0.1,0.3,0.3,0.5,0.4,0.6v0.2c0.5,0.9,1.2,1.5,2,2c0,0.1,0.1,0.1,0.2,0.1c0,0.1,0,0.1,0.1,0.1
		c0.1,0,0.3,0.1,0.6,0.2h0.2c0.3-0.2,0.6-0.2,0.7-0.2c0.8-0.3,1.3-0.5,1.7-0.7c0.6-0.5,1.1-0.8,1.3-1.1l0.4-0.4
		c0.4-0.4,0.8-0.7,1.2-0.8c0.4-0.2,0.8-0.2,1.1-0.2c0.2,0,0.7,0.1,1.3,0.2l0.7,0.4c0.1,0,0.2,0,0.2,0.1c0.2,0.1,0.4,0.2,0.6,0.5
		c0.2,0.1,0.3,0.2,0.5,0.4c0.1,0,0.1,0,0.1,0.1c0,0,0,0.1,0.1,0.1c0.6,0.8,0.8,1.7,0.6,2.6v0.1c-0.2,0.4-0.3,0.6-0.4,0.7v0.1
		l-0.2,0.5c-0.7,1.1-1.5,2.1-2.5,2.9c-0.5,0.5-1,0.8-1.6,1c-0.6,0.2-1.1,0.3-1.6,0.4c-0.2,0.1-0.7,0.1-1.3,0.1h-1.3h-0.1l-0.1-0.1
		c-1.6-0.2-3.1-0.6-4.5-1.2c-0.6-0.2-1.3-0.5-1.9-0.9c-0.6-0.4-1.3-0.7-1.9-1.1c-0.4-0.3-0.8-0.6-1.1-0.9c-0.4-0.3-0.7-0.6-1.1-1
		l-0.7-0.6c-0.2-0.2-0.2-0.3-0.2-0.4c-0.2-0.2-0.3-0.2-0.4-0.2c0-0.2-0.1-0.2-0.2-0.2c-0.4-0.5-0.7-1-1-1.5
		c-0.3-0.4-0.6-0.9-0.9-1.4c-0.4-0.7-0.7-1.4-1.1-2.1c-0.3-0.7-0.6-1.5-0.9-2.2l-0.2-0.5v-0.1c-0.2-0.4-0.3-0.8-0.4-1.3
		c-0.1-0.5-0.2-1-0.3-1.7h-0.1c-0.2-1.1-0.3-2.2-0.4-3.2c-0.1-1-0.1-2.1,0-3.2v-0.1v-0.2c0.2-1,0.3-2,0.4-2.9c0.1-0.9,0.3-1.9,0.5-3
		c0.3-1.2,0.7-2.3,1.1-3.4c0.4-1.1,0.8-2.1,1.3-3.1c0.9-1.9,2.2-3.9,3.8-6l0.1-0.1c0.4-0.5,0.8-0.9,1.2-1.4c0.4-0.5,0.8-1,1.2-1.5
		c0.1,0,0.1,0,0.1-0.1l2.2-2.1c0.4-0.4,0.9-0.8,1.5-1.3c0.4-0.4,0.7-0.7,1.1-0.9c0.3-0.2,0.7-0.5,1.1-0.7c0.4-0.4,0.7-0.7,0.9-0.8
		l0.1-0.1c0.8-0.5,1.6-0.9,2.3-1.3c0.7-0.4,1.5-0.8,2.2-1.2l0.7-0.4c0.2-0.1,0.3-0.2,0.5-0.2c0.2-0.1,0.4-0.2,0.5-0.2
		c1.9-0.9,4.5-1.7,8-2.5c3.4-0.8,7.5-1,12.2-0.5c2.4,0.1,5,0.5,7.6,1.3c0.3,0.2,0.6,0.2,0.8,0.2h-0.2c1.4,0.6,2.8,1.2,4.1,2.1
		c1.3,0.8,2.4,1.8,3.4,3.1c1,1.2,1.7,2.7,2.2,4.4c0.5,1.7,0.7,3.6,0.6,5.8c0.2,3.8,0.1,7.5-0.3,11.3c-0.4,3.7-0.7,7.5-1,11.3
		c-0.4,4.4-0.8,8.8-1.3,13c-0.5,4.3-0.9,8.6-1.3,12.9c-0.1,0.4-0.1,1-0.1,1.9c1.6-4,3.3-7.9,5.1-11.8c1.8-3.9,3.6-7.7,5.3-11.7
		c2.3-5.5,4.7-10.9,7.3-16.2c2.6-5.3,5.2-10.6,8-15.9c0.2-0.4,0.3-0.8,0.5-1.1c0.2-0.4,0.4-0.7,0.5-1.1c0.9-1.8,1.8-3,2.7-3.5
		c0.9-0.5,2.3-0.5,4.1,0.1c1.7,0.5,3,1.3,3.9,2.6c0.9,1.3,1.1,2.8,0.8,4.5c-0.5,3-1.1,5.9-1.8,8.8c-0.7,2.9-1.3,5.9-1.7,8.8
		c-0.6,3.3-1,6.6-1.2,9.8c-0.3,3.2-0.5,6.5-0.8,9.8c-0.2,3-0.4,6-0.6,8.9c-0.3,2.9-0.3,6.1-0.2,9.4c0.5-1.3,1-2.5,1.5-3.6
		c0.4-1.1,0.9-2.1,1.4-3.1c3.9-9.1,8-18.1,12.3-26.9c4.3-8.8,8.9-17.5,13.7-26.1c0.9-1.6,1.7-2.6,2.7-3c0.9-0.4,2.3-0.4,4.1,0.1
		c2.9,0.8,4.4,2.7,4.4,5.8c0,2-0.2,4-0.6,6c-0.4,1.9-1,3.9-1.6,5.8c-1.6,5.2-2.7,10.4-3.2,15.6c-0.6,5.2-1,10.5-1.2,15.9
		c-0.3,6-0.3,11.9,0.1,17.7c0.4,5.8,1.2,11.7,2.5,17.6c0.7,3.5,1.7,6.8,2.9,10c1.2,3.2,2.9,6.3,4.9,9.3c0.2,0.3,0.5,0.6,0.6,0.9
		C146.9,153.6,147,153.9,147.2,154.2z M140.4,112.3c0-0.5,0-1.1,0-1.6c0-0.5,0-1,0.1-1.6c0.1-0.6,0.2-1.2,0.2-1.8
		c0.1-0.5,0.2-1.1,0.4-1.8c0.2-1.2,0.5-2.2,0.8-3.1c0.4-1.3,0.9-2.6,1.4-3.8c0.5-1.2,1.3-2.3,2.1-3.4c1.2-1.9,2.8-3.4,4.7-4.6
		c0.4-0.2,0.8-0.5,1.2-0.7c0.4-0.2,0.8-0.4,1.2-0.6c0.5-0.2,1.1-0.3,1.6-0.5c0.5-0.2,1-0.3,1.6-0.5c0.6-0.2,1.3-0.3,2-0.3
		c0.7,0,1.4,0,2.1,0.1c0.6,0.2,1.2,0.3,1.8,0.5c0.5,0.2,1.1,0.4,1.8,0.8c2.1,1.3,3.7,2.9,4.8,4.8c0.5,0.7,0.9,1.6,1.2,2.7
		c0.2,0.7,0.3,1.4,0.3,2.1c0,0.7,0.1,1.4,0.1,2.1c-0.2,2.4-1.1,4.5-2.5,6.4c-0.6,0.9-1.4,1.8-2.2,2.5c-0.9,0.7-1.8,1.4-2.7,2
		c-0.7,0.4-1.4,0.8-2.1,1.2c-0.7,0.4-1.4,0.8-2.1,1.2c-1.1,0.6-2.4,1.3-4,1.9c-0.2,0.2-0.2,0.3-0.2,0.4v3.8c0,0.4,0,0.7,0,1.1
		c0,0.3,0,0.6,0.1,0.9l0.4,2.5c0,0.6,0.1,1.2,0.4,1.8c0.2,0.6,0.3,1.2,0.5,1.8c0.2,0.6,0.4,1.2,0.8,1.7c0.4,0.6,1.1,1.1,2,1.5
		c0.8,0.2,1.7,0.2,2.6-0.2c0.6-0.2,1.2-0.4,1.7-0.7c0.5-0.3,1-0.7,1.6-1.1c0.3-0.2,0.6-0.5,0.9-0.8c0.3-0.3,0.6-0.6,0.9-0.9
		c1.2-1,2.3-2.4,3.3-4.1c0.6-0.8,1-1.6,1.5-2.4c0.4-0.8,0.8-1.6,1.2-2.5c0.3-0.6,0.6-1.2,0.8-1.8c0.2-0.6,0.5-1.2,0.8-1.8
		c0.4-0.9,0.7-1.8,1-2.7c0.3-0.9,0.6-1.8,0.9-2.8c0.2-0.9,0.5-1.7,0.8-2.4c0.3-0.7,0.6-1.6,0.9-2.4c0.2-0.7,0.6-1.6,1.1-2.6
		c0.2-0.5,0.7-0.8,1.4-0.8c0.8,0,1.4,0.2,1.8,0.7c0.2,0.3,0.4,0.8,0.6,1.4c0,0.5-0.1,1-0.2,1.7c-0.2,0.9-0.4,1.7-0.6,2.5
		c-0.2,0.8-0.5,1.6-0.7,2.4c-0.3,1.4-0.8,2.9-1.4,4.4c-0.4,1-0.8,2-1.2,2.9c-0.4,0.9-0.8,1.9-1.2,2.9c-0.6,1.1-1.1,2.1-1.7,3.1
		c-0.6,1-1.1,2-1.8,3c-0.6,0.8-1.1,1.6-1.7,2.3c-0.6,0.7-1.2,1.5-1.9,2.2c-0.6,0.7-1.3,1.4-1.9,2c-0.7,0.6-1.4,1.2-2.3,1.7
		c-0.4,0.2-0.8,0.5-1.2,0.6c-0.4,0.2-0.8,0.4-1.2,0.5c-0.4,0.2-0.8,0.3-1.2,0.3c-0.4,0-0.8,0.1-1.2,0.2c-0.6,0.1-1.2,0.1-1.8,0.1
		c-0.6,0-1.1,0-1.8,0h-0.6c-0.6,0-1.1,0-1.6-0.1c-0.5,0-1-0.1-1.5-0.2c-1.8-0.4-3.3-1.1-4.6-2.2c-0.9-0.7-1.6-1.5-2.2-2.3
		c-0.6-0.8-1.3-1.7-1.9-2.5c-0.4-0.6-0.7-1.3-1-2c-0.3-0.7-0.6-1.4-0.9-2.1c-0.2-0.6-0.5-1.3-0.6-1.9c-0.2-0.6-0.4-1.3-0.5-1.9
		c-0.4-1.2-0.6-2.3-0.7-3.4c-0.2-0.9-0.3-1.9-0.4-2.8C140.4,114.3,140.4,113.3,140.4,112.3z M154.4,111.6c0.2,0,0.3,0,0.3-0.1
		c0,0,0.1-0.1,0.2-0.1c0.4-0.2,0.8-0.3,1.1-0.5c0.4-0.2,0.7-0.4,1.1-0.5c1.5-0.8,2.9-1.8,4.1-3.1c1.3-1.3,2.2-2.5,2.8-3.8
		c0.2-0.4,0.4-0.8,0.6-1.2c0.2-0.4,0.3-0.9,0.5-1.4c0.2-0.8,0.2-1.4,0.2-1.8c-0.1-0.2-0.1-0.4-0.1-0.8c-0.1-0.5-0.3-1.1-0.6-1.7
		c-0.4-0.8-0.9-1.2-1.7-1.2c-0.9-0.1-1.9,0.3-2.8,1.1c-0.2,0.2-0.4,0.4-0.6,0.6c-0.2,0.2-0.3,0.4-0.5,0.6c-0.4,0.6-0.8,1.3-1.2,1.9
		c-0.4,0.6-0.7,1.3-1.1,2c-0.2,0.4-0.3,0.8-0.5,1.2c-0.2,0.4-0.3,0.9-0.5,1.4c-0.3,0.9-0.6,2-0.8,3.3c-0.2,0.6-0.4,1.3-0.4,2
		c-0.1,0.3-0.1,0.6-0.2,0.9C154.5,110.9,154.5,111.2,154.4,111.6z M182.8,101.3l-0.2,0.2c-0.1,0.4-0.2,0.8-0.2,1.1
		c-0.1,0.4-0.2,0.7-0.4,1.1c-0.2,0.9-0.5,1.9-0.8,2.8c-0.3,0.9-0.8,1.8-1.4,2.7l-0.4,0.4c-0.4,0.5-0.8,0.7-1.2,0.7
		c-0.4,0-0.8-0.1-1.1-0.4c-0.2-0.2-0.4-0.4-0.6-0.6c-0.3-0.8-0.4-1.5-0.1-2.1c0.1-0.4,0.2-0.7,0.2-1c0.1-0.3,0.2-0.6,0.2-0.9
		c0.1-0.4,0.3-0.9,0.6-1.5c0.2-0.4,0.4-0.8,0.4-1.3s0.1-0.9,0.1-1.4c0-0.3-0.2-0.6-0.6-0.8c-1.2-0.6-2-1.5-2.6-2.6
		c-0.4-0.8-0.7-1.7-0.8-2.6c-0.2-0.5-0.2-1-0.1-1.3c0-0.8,0.1-1.3,0.2-1.7c0.2-1.1,0.9-2.1,1.9-3.1c0.4-0.4,0.9-0.7,1.4-0.9
		c0.5-0.2,1.1-0.3,1.8-0.4c0.3,0,0.6,0,0.9-0.1c0.3,0,0.6,0,0.9,0.2c1.5,0.4,2.4,1.2,2.8,2.4c0.3,0.7,0.5,1.5,0.5,2.4
		c0,0.4,0,0.8,0,1.2c0,0.4,0,0.8-0.1,1.2c0,0.2,0,0.5-0.1,0.6c0,0.2-0.1,0.4-0.1,0.5c0.2,0.2,0.5,0.2,0.7,0c1.1-0.1,2.2-0.6,3.4-1.5
		c0.4-0.2,0.8-0.5,1.1-0.8c0.4-0.3,0.7-0.5,1.1-0.8c0.7-0.5,1.6-0.8,2.7-0.9c0.9-0.2,1.7-0.1,2.4,0.1c1.3,0.2,2.5,0.9,3.5,2
		c0.4,0.4,0.7,0.8,0.9,1.1s0.4,0.8,0.6,1.4c0.3,0.9,0.4,1.7,0.4,2.5c0,0.8,0,1.6-0.1,2.3c0,0.7-0.1,1.5-0.2,2.2
		c-0.1,0.9-0.1,1.7-0.2,2.4c0,0.7-0.1,1.5-0.2,2.3c0,0.5,0,0.9,0,1.4c0,0.5,0,0.9-0.1,1.4c0,0.6,0,1.1-0.1,1.7
		c0,0.6-0.1,1.1-0.2,1.8c-0.1,0.8-0.1,1.6-0.1,2.4c0,0.8,0,1.6-0.1,2.5c-0.1,0.9-0.1,1.7-0.1,2.5c0,0.8,0,1.6-0.1,2.5
		c-0.1,0.7-0.1,1.4-0.1,2.1c0,0.7,0,1.5-0.1,2.2c0,0.4,0,0.7,0.1,0.8c0.2,0.8,0.6,1,1.3,0.6c0.3-0.2,0.6-0.5,0.8-0.8l1.1-2.1
		c0.5-1.1,1.1-2.2,1.5-3.4c0.2-0.6,0.5-1.1,0.7-1.5c0.2-0.5,0.5-1,0.7-1.5l1.8-4.6c0.2-0.5,0.3-1.1,0.5-1.5s0.4-1,0.5-1.5
		c0.2-0.5,0.3-0.9,0.5-1.4c0.2-0.5,0.3-0.9,0.5-1.4c0.3-0.8,0.5-1.3,0.6-1.7c0.2-0.7,0.5-1.4,0.7-2.1c0.2-0.7,0.5-1.4,0.7-2.1
		c0.3-0.6,0.5-1.1,0.7-1.3c0.4-0.6,0.9-0.9,1.5-0.9c0.6,0,1.1,0.1,1.3,0.2c0.4,0.2,0.6,0.5,0.7,0.8c0.3,0.8,0.4,1.7,0.1,2.6
		c-0.2,0.6-0.4,1.2-0.6,1.8c-0.2,0.6-0.4,1.1-0.6,1.7c-0.2,0.4-0.3,0.8-0.4,1.1c-0.1,0.4-0.2,0.7-0.4,1.1c-0.3,0.7-0.6,1.4-0.8,2.1
		c-0.2,0.7-0.5,1.4-0.8,2.1c-0.2,0.6-0.4,1.1-0.6,1.5s-0.4,1-0.6,1.5c-0.5,1.1-0.9,2.2-1.4,3.3c-0.4,1.1-0.9,2.2-1.4,3.3
		c-0.3,0.8-0.6,1.5-0.9,2.2c-0.3,0.7-0.7,1.4-1.1,2.1c-0.4,0.9-0.8,1.6-1.3,2.3c-0.5,0.7-1,1.3-1.7,1.9c-0.9,0.9-2,1.6-3.3,2
		c-0.2,0.1-0.5,0.1-0.7,0.1s-0.5,0-0.7,0.1h-1.7c-0.9,0.1-1.6,0-2.2-0.3c-0.6-0.3-1.3-0.6-1.9-1.1c-1.1-0.9-2-2-2.6-3.4
		c-0.2-0.4-0.5-0.8-0.7-1.3c-0.2-0.5-0.4-1-0.5-1.5c-0.2-0.6-0.3-1.3-0.3-1.9s-0.1-1.3-0.1-1.9c0.1-0.6,0.1-1.2,0.1-1.8s0-1.1,0-1.8
		c0.1-0.6,0.1-1.2,0.1-1.8s0-1.1,0.1-1.8l0.4-4.2c0-0.2,0-0.4,0.1-0.6c0-0.2,0.1-0.5,0.1-0.7c0.1-0.6,0.1-1.2,0.1-1.8s0-1.2,0.1-1.8
		c0.1-0.6,0.1-1.3,0.2-2c0-0.7,0.1-1.4,0.2-2c0-0.4,0-0.7,0.1-1.1c0-0.3,0-0.7-0.1-1.1c0-0.2,0-0.5-0.1-0.7
		c-0.1-0.2-0.2-0.5-0.2-0.7c-0.4-0.8-0.9-1-1.7-0.7c-0.7,0.3-1.5,0.6-2.2,0.7c-0.6,0.2-1.1,0.2-1.5,0.2H182.8z M180.5,96.3
		c0.2-0.4,0.3-0.8,0.4-1.2c0.1-0.4,0.1-0.8,0.1-1.2c0-0.7-0.1-1.3-0.2-1.7c-0.2-0.5-0.5-0.6-0.9-0.4c-0.2,0.1-0.6,0.4-1.1,0.8
		c0.1,0,0,0.1-0.2,0.4v1.2c0,0.5,0.1,0.9,0.4,1.2C179.2,95.9,179.8,96.3,180.5,96.3z M221.9,115.6c0.2-0.3,0.3-0.6,0.3-0.9
		c0-0.3,0.1-0.7,0.3-1.1c0.2-0.6,0.5-1.3,0.6-1.9c0.2-0.7,0.4-1.3,0.7-1.9c0.2-0.7,0.5-1.4,0.8-2.1c0.3-0.7,0.5-1.5,0.8-2.2
		c0.4-1,0.8-2,1.2-3.1c0.4-1,0.8-2,1.2-3.1c0.4-0.7,0.7-1.4,1.1-2.2c0.3-0.7,0.7-1.5,1.1-2.2c1-1.7,2.2-3.1,3.7-4.1
		c1-0.9,2.4-1.4,4.1-1.7c0.5-0.1,0.9-0.1,1.4-0.2c0.4,0,0.9,0,1.4,0.1c2.3,0.2,4.3,1.1,6,2.6c1.5,1.4,2.6,2.9,3.4,4.4
		c0.2,0.4,0.3,0.8,0.5,1.2c0.2,0.4,0.3,0.8,0.4,1.2c0.1,0.4,0.2,0.8,0.2,1.2c0.1,0.4,0.1,0.8,0.1,1.2c0.2,1.8,0.3,3.5,0.2,5
		c0,0.8,0,1.6-0.1,2.3c0,0.7-0.1,1.5-0.1,2.3c-0.1,0.3-0.1,0.7-0.1,1.3c0,0.2,0,0.3,0.1,0.4l0.4-1.1c0.4-0.9,0.7-1.7,1-2.5
		c0.3-0.8,0.6-1.6,1-2.5l1.8-3.5c0.4-0.7,0.8-1.4,1.1-2.1c0.4-0.7,0.7-1.4,1.1-2.1c0.3-0.6,0.7-1.3,1-1.9c0.4-0.6,0.7-1.3,1.1-1.9
		c0.9-1.3,2.1-2.4,3.8-3.3c1-0.6,2.2-0.9,3.5-1.2c1.4-0.4,2.8-0.5,4.1-0.4c1.6,0.2,2.9,0.4,3.9,0.8c1.8,0.7,3.1,1.9,3.8,3.7
		c0.2,0.4,0.3,1,0.5,1.8c0.2,0.7,0.2,1.4,0.2,2.1c0,0.7,0,1.4-0.1,2.1v1.9c0,0.4,0,0.8,0,1.2s0,0.8-0.1,1.2v8.7c0,0.6,0,1.3-0.1,1.9
		c0,0.6-0.1,1.3-0.1,1.9l-0.4,4.6c0,0.2,0,0.5,0,0.8c0,0.3,0,0.6-0.1,0.9c-0.1,0.4-0.1,0.8-0.2,1.2c0,0.4-0.1,0.8-0.2,1.2
		c0,0.4,0,0.7-0.1,0.9c0,0.2-0.1,0.7-0.2,1.3c0,0.8,0,1.4,0.1,1.8c0.1,0.5,0.4,0.6,0.9,0.5c0.4-0.1,0.8-0.4,1.2-0.9
		c0.2-0.2,0.3-0.5,0.4-0.8c0.1-0.3,0.3-0.6,0.4-0.9c0.6-1.1,1.1-2.2,1.6-3.4c0.5-1.1,1-2.3,1.5-3.4c0.3-0.6,0.6-1.3,0.8-1.9
		c0.2-0.7,0.5-1.4,0.7-2.1c0.4-0.9,0.7-1.8,1-2.7c0.3-0.9,0.6-1.9,1-2.8c0.2-0.6,0.5-1.3,0.6-1.9c0.2-0.6,0.4-1.3,0.6-1.9
		c0.4-1.4,0.9-2.7,1.4-3.8c0.1-0.2,0.3-0.6,0.6-1.1c0.3-0.4,0.7-0.6,1.3-0.6c0.5,0,0.8,0,0.9,0.1c0.5,0.2,0.9,0.5,1.1,1.1
		c0.2,0.5,0.2,0.9,0.2,1.3c0,0.3-0.1,0.9-0.2,1.7c-0.2,0.3-0.3,0.6-0.4,0.9c-0.1,0.3-0.2,0.7-0.4,1.1c-0.3,1.1-0.7,2.3-1.3,3.7
		c-0.2,0.4-0.3,0.8-0.5,1.3c-0.2,0.5-0.3,0.9-0.5,1.4c-0.4,0.9-0.7,1.7-1.1,2.6c-0.3,0.9-0.7,1.7-1.1,2.6c-0.2,0.6-0.4,1.1-0.6,1.6
		c-0.2,0.5-0.4,1-0.6,1.5c-0.3,0.7-0.6,1.4-0.9,2.1c-0.3,0.7-0.6,1.4-1,2.1c-0.2,0.4-0.3,0.8-0.5,1.3c-0.2,0.5-0.4,0.9-0.7,1.4
		c-0.7,1.5-1.8,3-3.2,4.5c-0.4,0.3-0.8,0.6-1.1,0.9c-0.4,0.3-0.8,0.5-1.2,0.6c-0.5,0.2-0.9,0.3-1.4,0.3c-0.5,0-0.9,0.1-1.4,0.1
		c-0.2,0.1-0.5,0.1-0.7,0.1c-0.2,0-0.5-0.1-0.7-0.1c-0.9,0.1-1.9-0.2-2.8-0.8c-0.6-0.5-1.2-1-1.7-1.5c-0.5-0.5-1-1.1-1.4-1.7
		c-0.3-0.4-0.6-0.8-0.8-1.2c-0.2-0.4-0.4-0.9-0.5-1.4l-0.4-2.1c-0.1-0.6-0.1-1.3-0.2-1.9c0-0.6-0.1-1.3-0.1-1.9c0-0.4,0-0.8-0.1-1.2
		c0-0.4-0.1-0.8-0.1-1.2c0.1-0.9,0.1-1.7,0.1-2.6c0-0.9,0-1.7,0.1-2.6c0-0.7,0-1.4,0.1-2.2c0-0.7,0.1-1.5,0.2-2.2
		c0.1-0.6,0.1-1.2,0.2-1.8c0-0.6,0.1-1.1,0.2-1.7c0-0.6,0-1.1,0.1-1.3c0.1-0.5,0.1-1.1,0.1-1.6c0-0.5,0-1.1,0.1-1.7
		c0.1-0.5,0.1-1.1,0.2-1.6c0-0.5,0.1-1,0.1-1.6c0.1-0.3,0.1-0.6,0.1-0.9c0-0.3-0.1-0.6-0.1-0.9c0-0.3,0-0.6-0.1-0.8
		c0-0.2-0.1-0.5-0.2-0.8c-0.1-0.7-0.6-1.1-1.4-1.3c-0.6-0.2-1.4,0-2.2,0.4c-0.6,0.3-1.3,0.8-1.9,1.4c-0.2,0.2-0.5,0.5-0.8,0.9
		c-0.4,0.6-0.8,1.1-1.2,1.7c-0.4,0.6-0.7,1.2-1.1,1.8l-1.1,2.1c-0.3,0.8-0.6,1.5-0.9,2.2c-0.3,0.7-0.6,1.5-0.9,2.2
		c-0.1,0.2-0.2,0.5-0.4,0.9c-0.2,0.8-0.5,1.6-0.7,2.3c-0.2,0.7-0.5,1.6-0.7,2.4c-0.2,0.5-0.3,1-0.4,1.5c-0.1,0.5-0.3,1-0.4,1.5
		c-0.2,0.6-0.3,1.2-0.5,1.7c-0.2,0.5-0.4,1.1-0.5,1.7c-0.2,0.4-0.3,0.8-0.4,1.3c-0.1,0.5-0.3,0.9-0.4,1.4l-1.1,3.5
		c-0.2,0.7-0.5,1.4-0.6,2.1c-0.2,0.7-0.4,1.3-0.5,1.9c-0.2,0.4-0.3,0.7-0.3,1c0,0.3-0.1,0.6-0.3,1c-0.3,0.9-0.6,1.7-0.9,2.1
		c-0.3,0.5-0.7,0.7-1.2,0.8c-0.3,0.1-0.6,0.1-0.8,0.2c-0.2,0-0.5,0-0.8-0.1h-0.2c-1.7-0.2-2.9-0.9-3.9-2.2c-0.8-1.1-1.3-2.2-1.5-3.4
		c-0.2-0.5-0.3-1-0.3-1.5c0-0.5-0.1-1-0.3-1.5c-0.2-1-0.2-2.1,0-3.2v-1.7c0.1-0.9,0.1-1.7,0.1-2.6c0-0.9,0-1.7,0.1-2.6v-4
		c0.1-0.6,0.1-1.3,0.1-1.9c0-0.6,0-1.3,0.1-1.9v-1.8c0-0.6,0-1.2,0.1-1.8c0-0.6,0.1-1.2,0.1-1.8c-0.1-0.5-0.1-1.1-0.1-1.6
		c0-0.5,0-1-0.1-1.6c-0.2-1.5-0.4-2.8-0.8-3.8c-0.4-1.1-1-1.7-1.8-1.9c-1.1-0.3-2-0.1-2.7,0.7c-0.6,0.6-1,1.3-1.4,2.2
		c-0.4,0.9-0.8,1.8-1.1,2.7c-0.4,0.9-0.7,1.8-1.1,2.8c-0.4,1.2-0.8,2.3-1.3,3.5c-0.5,1.1-0.9,2.3-1.3,3.5c-0.3,0.8-0.6,1.5-0.8,2.2
		c-0.2,0.7-0.5,1.5-0.8,2.2c-0.3,0.9-0.6,1.7-0.9,2.4c-0.3,0.7-0.6,1.5-0.9,2.3c-0.2,0.6-0.3,1.1-0.5,1.6c-0.2,0.5-0.3,1-0.5,1.6
		c-0.2,0.6-0.5,1.3-0.6,2c-0.2,0.7-0.4,1.4-0.5,2c-0.2,0.7-0.5,1.4-0.6,2.1c-0.2,0.7-0.4,1.4-0.6,2.1c-0.4,1.2-0.8,2.2-1.2,2.9
		c-0.2,0.6-0.4,1-0.7,1.3c-0.6,0.6-1.5,0.7-2.5,0.6c-0.3,0-0.6,0-0.8-0.1c-2-0.3-3.4-1.4-4.4-3.2c-0.4-0.6-0.7-1.3-0.8-1.9
		c-0.2-0.6-0.3-1.3-0.5-1.9c-0.2-0.7-0.2-1.4-0.2-2.1c0-0.7,0-1.4,0-2c0-0.4,0-0.7,0.1-1.1c0-0.3,0.1-0.7,0.1-1.1v-1.1
		c0.1-0.6,0.1-1.3,0.1-2c0-0.7,0-1.4,0.1-2.1v-3.9c0.1-0.9,0.1-1.7,0.1-2.5c0-0.8,0-1.7,0.1-2.5v-8.3c0.1-0.9,0.1-1.7,0.1-2.5
		c0-0.8,0-1.6,0-2.5c0-0.9,0-1.9,0-2.8c0-0.9-0.1-1.8-0.2-2.8v-0.4c-0.1-0.2,0-0.4,0.2-0.4c1-0.3,2.2-0.5,3.7-0.5
		c0.4,0,0.7,0,1.1,0.1c0.3,0,0.7,0.1,1.1,0.2c1.7,0.4,3.1,1.3,4.1,2.6c0.2,0.2,0.3,0.4,0.4,0.6c0.1,0.3,0.2,0.5,0.4,0.6
		c0.2,0.2,0.3,0.5,0.4,0.6c0.1,0.2,0.2,0.4,0.2,0.5c0.2,0.4,0.3,0.8,0.3,1.2c0,0.4,0.1,0.8,0.2,1.2c0.1,0.6,0.1,1.2,0.2,1.8
		c0,0.6,0,1.1-0.1,1.8c0,0.4,0,0.8-0.1,1.1s-0.1,0.7-0.1,1.1c-0.1,0.6-0.1,1.3-0.2,1.9c0,0.6-0.1,1.3-0.2,1.9l-0.4,3.9
		c0,0.5,0,0.9,0,1.4c0,0.4,0,0.9-0.1,1.4c0,0.5,0,1,0,1.5c0,0.5,0,1-0.1,1.5v0.4H221.9z M317.1,126.5c-0.1,0.2-0.2,0.3-0.2,0.5
		c-0.1,0.2-0.2,0.3-0.2,0.5c-0.6,1.3-1.3,2.4-2.1,3.5c-0.8,1.1-1.7,2-2.8,2.9c-1.5,1.3-3,2.1-4.6,2.5c-0.9,0.2-1.8,0.4-2.7,0.4
		c-0.9,0-1.8,0-2.7-0.1c-0.4-0.1-0.8-0.2-1.3-0.2c-0.5-0.1-0.9-0.2-1.3-0.4c-0.9-0.3-1.6-0.7-2.2-1.2c-0.6-0.5-1.3-1-1.9-1.7
		c-0.6-0.6-1.2-1.3-1.7-1.9c-0.5-0.7-1-1.4-1.4-2.2c-0.6-1-1.1-2-1.5-3.1c-0.6-1.6-1.1-3.1-1.4-4.7c-0.2-0.8-0.3-1.6-0.5-2.4
		c-0.2-0.8-0.3-1.6-0.4-2.4c-0.2-0.8-0.2-1.6-0.2-2.3c0-0.7,0-1.5,0-2.3c0-1,0-2,0.1-3c0.1-1,0.2-1.9,0.5-2.9
		c0.2-0.6,0.3-1.2,0.4-1.8c0.1-0.5,0.3-1.1,0.4-1.7c0.5-1.4,1-2.8,1.6-4.1c0.6-1.3,1.4-2.6,2.2-3.8c1.6-2.1,3.7-3.8,6.3-5.1
		c1.4-0.5,3-0.8,4.8-0.8c0.6,0,1.1,0,1.7,0c0.5,0,1.1,0,1.7,0.1c1.5,0.2,2.8,0.6,4,1.2c1.3,0.5,2.5,1.1,3.6,2c1.1,0.9,2.1,1.8,3,2.8
		l0.4,0.4h0.1v-0.7c0-1.7,0.4-3.1,1.3-4.2c0.8-1.1,1.8-1.9,3.2-2.4c1.1-0.3,2.2-0.4,3.2-0.3c1.1,0.1,2.1,0.4,3.2,0.8l0.1,0.1
		c0,0.1,0,0.1,0.1,0.2c0,0,0,0.1-0.1,0.3c-0.2,1.7-0.3,3.3-0.4,5c-0.1,1.7-0.2,3.3-0.4,5.1c-0.1,1.1-0.2,2.2-0.2,3.4
		c-0.1,1.1-0.2,2.3-0.2,3.5c-0.1,1.5-0.2,3-0.2,4.4c-0.1,1.5-0.2,3-0.2,4.5c-0.2,1.9-0.3,3.8-0.4,5.7c-0.1,1.9-0.1,3.8-0.1,5.7
		c0.1,0.4,0.1,0.8,0.1,1.2c0,0.4,0,0.8,0,1.2v0.5c0.1,0.4,0.3,0.7,0.6,0.8c0.3,0.2,0.6,0.1,0.9-0.1c0.3-0.2,0.6-0.5,0.8-0.8
		c0.2-0.3,0.4-0.6,0.5-0.9c0.5-1.3,1.1-2.5,1.7-3.7c0.5-1.2,1.1-2.5,1.7-3.7c0.5-1.1,0.9-2.2,1.3-3.2c0.4-1.1,0.8-2.1,1.2-3.2l2.1-6
		c0.2-0.6,0.4-1.2,0.6-1.8c0.2-0.6,0.5-1.2,0.7-1.8c0.3-0.8,0.6-1.3,0.8-1.7c0.3-0.6,0.8-1,1.5-1.1s1.2,0.1,1.7,0.5
		c0.2,0.2,0.4,0.7,0.6,1.4c0.1,0.9-0.1,1.8-0.5,2.9c-0.5,1.4-1,3-1.7,4.7c-0.4,1-0.8,2-1.1,3c-0.4,1-0.7,2-1.1,3
		c-0.4,0.9-0.8,1.9-1.2,2.8c-0.4,0.9-0.8,1.9-1.2,2.8c-0.4,0.9-0.8,1.8-1.1,2.7c-0.4,0.9-0.7,1.8-1.1,2.7c-0.3,0.6-0.6,1.2-0.9,1.8
		c-0.3,0.6-0.7,1.1-1.1,1.7c-0.4,0.6-0.8,1-1.1,1.5c-0.4,0.4-0.8,0.8-1.2,1.2c-1.1,0.9-2.4,1.4-3.8,1.4c-0.4,0.1-0.8,0.1-1.2,0.1
		c-0.4,0-0.8,0-1.2,0c-0.6,0-1.2-0.1-1.7-0.4c-0.5-0.2-1-0.5-1.5-0.9c-0.8-0.6-1.5-1.3-2-2c-0.6-0.7-1-1.5-1.4-2.4
		c-0.6-1.3-0.9-2.5-0.9-3.5c0-0.1,0-0.1-0.1-0.1s-0.1,0-0.1-0.1H317.1z M301.4,118.1c0.1,0.9,0.1,1.7,0.1,2.4c0,0.7,0,1.5,0.1,2.3
		c0.1,0.2,0.1,0.5,0.1,0.8c0,0.3,0,0.5,0.1,0.8c0.1,0.5,0.1,0.9,0.2,1.4c0,0.5,0.1,1,0.3,1.5c0.2,0.6,0.3,1.2,0.5,1.8
		c0.2,0.6,0.5,1.1,0.9,1.5c0.4,0.6,0.9,0.9,1.6,1c0.7,0.1,1.3,0,1.9-0.3c0.4-0.2,0.8-0.5,1.1-0.8c0.4-0.3,0.7-0.6,1.1-0.9
		c2-1.7,3.6-3.6,5-5.9c1-1.7,1.8-3.5,2.4-5.2c0.2-0.8,0.4-1.7,0.4-2.6v-2.4c0.1-0.9,0.1-1.9,0.2-2.8c0-0.9,0.1-1.9,0.2-3
		c0-0.5,0-1.1,0-1.7c0-0.6,0-1.1,0.1-1.7c0-0.5,0-1.1-0.1-1.6c0-0.5-0.2-1-0.4-1.6l-1.1-2.1c-0.8-1.4-1.7-2.6-2.6-3.5
		c-0.7-0.6-1.5-1.1-2.2-1.4c-0.8-0.3-1.7-0.4-2.6-0.2c-0.2,0-0.5,0.1-0.8,0.2c-0.5,0.2-0.9,0.5-1.3,1.1c-0.6,0.7-1.1,1.4-1.4,2.2
		c-0.3,0.7-0.6,1.6-0.9,2.4c-0.2,0.7-0.5,1.4-0.6,2.2c-0.2,0.7-0.4,1.5-0.5,2.2c-0.2,0.7-0.3,1.4-0.5,2.2c-0.2,0.7-0.3,1.5-0.5,2.2
		c-0.1,0.6-0.1,1.3-0.2,2c0,0.7-0.1,1.4-0.2,2c-0.1,0.9-0.1,1.8-0.2,2.7C301.5,116.3,301.5,117.2,301.4,118.1z M338.9,89.1
		c0.3-0.2,0.5-0.2,0.6-0.2c0.8-0.2,1.5-0.3,2.3-0.4c0.7-0.1,1.5,0,2.4,0.1c0.5,0.2,1.1,0.3,1.7,0.4c0.5,0.1,1.1,0.4,1.5,0.8
		c0.9,0.6,1.7,1.3,2.1,2.4c0.4,0.6,0.6,1.3,0.7,2.1c0.1,0.7,0.2,1.5,0.2,2.2c0,1.2,0,2.4-0.1,3.5s-0.1,2.4-0.2,3.5
		c-0.1,1.1-0.2,2.2-0.2,3.2c-0.1,1.1-0.2,2.1-0.2,3.2c-0.1,0.4-0.1,0.7-0.1,1.1c0,0.3,0,0.6,0,0.9c-0.2,0.9-0.3,1.8-0.3,2.7
		c0,0.9-0.1,1.8-0.2,2.7c-0.1,0.9-0.2,1.9-0.2,2.9c-0.1,1-0.2,1.9-0.2,2.9c-0.1,0.8-0.1,1.6-0.1,2.4c0,0.8,0,1.6-0.1,2.4v1.4
		c0.2,0.6,0.5,0.8,1.1,0.6c0.4-0.2,0.8-0.5,1.2-1.1c0.4-0.6,0.7-1.3,0.9-1.9c0.5-1.1,0.9-2.1,1.4-3.1c0.5-1,0.9-2,1.4-3.1
		c0.2-0.6,0.5-1.3,0.8-2c0.3-0.7,0.5-1.4,0.8-2c0.5-1.3,0.9-2.5,1.4-3.8c0.4-1.3,0.9-2.5,1.4-3.8c0.2-0.5,0.3-1.1,0.5-1.7
		c0.2-0.5,0.4-1.1,0.5-1.8c0.2-0.5,0.4-0.9,0.6-1.4c0.2-0.5,0.5-0.9,0.7-1.4c0.2-0.5,0.7-0.9,1.4-1s1.3,0,1.8,0.4
		c0.1,0.2,0.2,0.3,0.2,0.4c0.1,0.1,0.2,0.3,0.2,0.4c0.2,0.7,0.2,1.6-0.1,2.6c-0.4,1.3-0.8,2.7-1.3,4c-0.5,1.3-0.9,2.7-1.4,4
		l-3.9,9.9c-0.4,1-0.8,2-1.4,3c-0.5,1-1,2-1.5,3c-0.9,1.8-2,3.3-3.3,4.6c-1.3,1.1-2.6,1.7-4.1,1.7c-0.4,0.1-1,0.1-1.8,0.1
		c-1.4,0.1-2.8-0.4-4.1-1.4c-1.2-1.1-2.1-2.3-2.8-3.7c-0.2-0.5-0.3-0.9-0.5-1.4c-0.2-0.5-0.4-1-0.5-1.5c-0.2-0.7-0.3-1.4-0.3-2.2
		c0-0.7,0-1.5,0.2-2.2v-2c0.1-1.1,0.1-2.2,0.2-3.3c0-1.1,0.1-2.2,0.2-3.3c0.1-0.9,0.1-1.8,0.1-2.7s0-1.8,0.1-2.7l0.4-5.7
		c0.1-1.5,0.1-3,0.2-4.5c0-1.5,0.1-3,0.2-4.5c0.1-0.9,0.1-1.7,0.1-2.7c0-0.9-0.1-1.8-0.2-2.8C339,89.5,338.9,89.3,338.9,89.1z
		 M344.7,77.9c-0.9,0-1.9-0.3-2.8-1c-0.9-0.7-1.6-1.5-1.9-2.4c-0.9-2.2-0.6-4.2,0.8-5.9c1.3-1.7,3.1-2.4,5.4-2
		c1.5,0.3,2.7,1.3,3.7,2.8c1,2.1,0.9,4.1-0.2,5.9C348.5,77,346.9,77.9,344.7,77.9z M387.3,94.3c0-0.2,0-0.5,0.1-0.7
		c0-0.2,0.1-0.5,0.1-0.7c0.1-1.2,0.1-2.3,0.2-3.5c0-1.1,0.1-2.3,0.1-3.5v-8.7c0-0.9,0-1.7,0.1-2.5c0-0.8,0.1-1.6,0.2-2.5
		c0.2-2,0.9-3.6,2.4-4.7c0.9-0.7,1.9-1.2,2.9-1.4c0.9-0.2,2-0.3,3.3-0.1c0.9,0,1.9,0.2,2.9,0.6v0.4l-0.4,3.2
		c-0.2,1.1-0.2,2.2-0.2,3.2c0,1,0,2.1-0.1,3.2c0,1,0,2-0.1,3.1c0,1-0.1,2-0.2,3.1c-0.1,0.9-0.1,1.9-0.1,2.8c0,0.9,0,1.9-0.1,2.8
		c-0.1,1.1-0.1,2.2-0.2,3.2c0,1.1-0.1,2.1-0.2,3.2c-0.1,1.1-0.1,2.2-0.1,3.4c0,1.2,0,2.4-0.1,3.5l-0.4,7.4c0,0.8,0,1.6,0,2.3
		c0,0.7,0,1.5-0.1,2.3l-0.4,8.5c0,0.6,0,1.3-0.1,1.9c0,0.6-0.1,1.3-0.1,1.9c0,0.5,0,0.9,0.1,1.4c0,0.5,0.1,0.9,0.2,1.4
		c0.2,0.3,0.2,0.5,0.2,0.6c0.2,0.7,0.6,0.8,1.2,0.4c0.2-0.2,0.3-0.3,0.4-0.4c0.1-0.1,0.2-0.3,0.4-0.4c0.2-0.5,0.5-0.9,0.7-1.4
		c0.2-0.5,0.4-0.9,0.6-1.4c1.3-2.6,2.4-5.3,3.5-8.1c0.3-0.7,0.6-1.4,0.8-2.2c0.2-0.7,0.5-1.5,0.8-2.3c0.4-1.1,0.8-2.2,1.1-3.2
		c0.4-1,0.7-2.1,1.1-3.2c0.3-1,0.7-2.2,1.3-3.4c0.1-0.3,0.3-0.7,0.6-1.2c0.3-0.5,0.7-0.7,1.3-0.7h0.7c0.8,0.2,1.3,0.6,1.4,1.3
		c0.2,0.9,0.2,1.7,0,2.6c-0.4,1.4-0.8,2.8-1.4,4.2c-0.5,1.4-1,2.8-1.6,4.1c-0.5,1.1-0.9,2.2-1.4,3.4c-0.4,1.1-0.9,2.3-1.4,3.4
		c-1,2.8-2.3,5.7-3.8,8.7c-0.4,0.9-0.9,1.7-1.4,2.5c-0.5,0.8-1.1,1.5-1.8,2.1c-1.2,1.3-2.8,2.2-4.7,2.7c-2.5,0.5-4.6-0.2-6.3-2.1
		c-1-1.1-1.8-2.5-2.2-4.1c-0.4-1.2-0.6-2.3-0.7-3.4c0-0.2,0-0.3-0.1-0.4c-0.1,0.1-0.1,0.1-0.1,0.2c0,0,0,0.1-0.1,0.2
		c-0.3,0.5-0.6,0.9-0.8,1.4c-0.2,0.5-0.5,0.9-0.8,1.4c-1.3,2-3,3.7-5,5c-1.7,1.1-3.5,1.7-5.4,1.8c-0.6,0-1.3,0-1.9,0
		c-0.6,0-1.3-0.1-1.9-0.2c-2-0.3-3.7-1.2-5.2-2.6c-1.6-1.4-2.9-3.1-3.9-5c-0.6-1-1.1-2.1-1.4-3.2c-0.8-1.8-1.3-3.5-1.7-5.2
		c-0.2-1.2-0.4-2.3-0.6-3.5c-0.2-1.1-0.2-2.3-0.2-3.5c-0.2-1.3-0.2-2.6,0-3.9c0.2-2.5,0.6-5,1.4-7.3c0.4-0.9,0.8-1.7,1.1-2.7
		c0.4-0.9,0.8-1.8,1.2-2.7c0.6-1.2,1.4-2.3,2.2-3.3c0.9-1,1.8-1.9,2.9-2.7c1.5-1,3-1.7,4.6-2c0.9-0.2,1.8-0.3,2.7-0.3
		c0.9,0,1.8,0,2.7,0.1c2.1,0.2,4.1,0.8,6,1.8c0.4,0.2,0.8,0.5,1.2,0.7c0.4,0.2,0.8,0.5,1.2,0.8c0.4,0.3,0.7,0.6,1.1,0.9
		c0.3,0.3,0.7,0.6,1.1,0.9c0.1,0.1,0.1,0.1,0.2,0.1C387.1,94.1,387.2,94.2,387.3,94.3z M387.1,105.9h0.1c0-0.4,0-0.8,0-1.2
		c0-0.4,0-0.8,0.1-1.2c0-0.3-0.1-0.8-0.2-1.4l-1.4-2.8c-0.8-1.4-1.7-2.6-2.6-3.5c-0.9-0.9-1.9-1.4-2.7-1.5c-0.3-0.1-0.6-0.1-0.9-0.1
		c-0.3,0-0.7,0-1.1,0c-0.3,0.2-0.6,0.2-0.8,0.2c-0.4,0.2-0.7,0.4-0.9,0.6c-0.2,0.3-0.5,0.6-0.7,0.9c-0.5,0.6-0.9,1.3-1.2,2
		c-0.3,0.7-0.6,1.5-0.8,2.2c-0.8,2.1-1.4,4.3-1.8,6.6c-0.2,0.9-0.3,1.7-0.4,2.6c-0.1,0.9-0.2,1.7-0.4,2.6c-0.1,0.8-0.1,1.6-0.2,2.4
		c0,0.8-0.1,1.6-0.2,2.4c-0.1,1.1-0.1,2.2-0.1,3.2c0,1.1,0.1,2.1,0.3,3.2c0.2,0.7,0.3,1.4,0.4,2.2c0.1,0.7,0.2,1.5,0.4,2.2
		c0.2,1.2,0.5,2.2,1.1,2.9c1.2,1.5,2.5,1.8,4,0.9c0.2-0.1,0.5-0.3,0.9-0.6c2-1.5,3.8-3.3,5.3-5.5c1.3-2.1,2.4-4.2,3.1-6.4
		c0.2-0.4,0.3-0.7,0.4-1.1c0.1-0.3,0.1-0.7,0.1-1.1c-0.1-0.4-0.1-0.7-0.1-1.1c0-0.3,0.1-0.7,0.1-1.1c0.1-1.1,0.1-2.1,0.1-3.1
		c0-1,0-2,0.1-3V105.9z M74.4,232.6c2.8-16.8,7.3-33.5,14.3-49.2c2.2-4.5,4.5-8.9,7.6-12.7c6.5-8.2,15.3-11,25.7-8.6
		c6,1.3,10.6,4.8,12.3,10.8c1.9,6.3-0.4,11.4-4.8,16c-2.4,2.2-5.6,3.5-8.6,3.5c-1.9,0-4.1-0.4-5.6-1.1c-3.5-1.7,0.6-3.5,2.2-4.8
		c6.3-5,6-13.2-0.9-17.7c-3.5,1.1-5.6,3.9-7.8,6.7c-7.1,9.5-12.1,20.3-15.8,31.5c-5.4,17.5-8.9,35.2-10.4,53.4
		c-0.9,8.4-1.3,16.8-1.7,25.3c-0.2,4.1-1.3,5.2-5.6,5.6c-4.3,0.6-6.5-0.2-9.5-3.5c-2.2-2.2-3.7-4.5-5.2-6.9
		c-9.3-13.8-15.1-28.9-18.4-44.9c-1.9-9.1-3-18.6-3.2-27.9c-0.2-9.1,0.2-18.6,1.5-27.6c0.6-6,1.9-13.2,4.3-17.1
		c2.6-3.9,7.8-5.2,11.7-2.4c1.1,0.9,1.7,2.6,1.7,3.9c0.2,3,0,6-0.2,9.1c-1.1,19.4-0.9,39.1,2.2,58.5c1.7,10.2,9.1,30.2,9.7,30.9
		C71.3,252.7,72.6,242.5,74.4,232.6z M169.8,235c-0.4,1.7-6.5,21.4-20.7,38c-6.9,7.8-17.3,8.6-24,6c-7.3-3-10.4-9.1-11.2-16.4
		c-1.1-11.4,1.3-22.2,6.3-32.4c1.5-3,3.2-5.8,5-8.4c2.6-3.9,6.7-4.8,11.2-4.3c2.8,0.4,3.7,1.7,3.2,4.8c-0.2,2.4-0.9,4.8-1.5,7.1
		c-1.7,6-3.5,12.3-4.5,18.6c-1.1,6.3-2.4,13.2-1.1,19.4c1.1,4.5,3.7,6.9,4.1,6.7c1.9-0.6,5.4-3.7,6.9-5.4
		c5.8-6.7,15.1-22.7,19.4-33.9c0.9-2.2,3-3.2,5-3C169.6,232.2,170.5,233.2,169.8,235z M132,200.6c0.4-3.9,4.5-7.8,8.4-7.1
		c1.1,0.2,2.2,1.1,2.6,1.9c2.2,3.2,1.7,7.8-1.5,10.6c-1.5,1.3-4.5,2.2-6.5,1.1C132.9,205.6,131.6,203,132,200.6z M176.3,250.7
		c2.4-9.1,6-17.9,11.7-25.5c1.7-2.2,3.7-4.3,5.8-6.3c8.6-7.8,24-5.8,29.6,5.8c2.6,5,3.9,10.2,4.5,15.8c0,1.3,0.4,4.3,0.6,6
		c4.1-1.1,12.5-5.8,18.6-13c2.4-2.6,3.9-3.2,6.5-1.3c1.5,1.3-0.4,4.8-1.5,6.5c-2.2,3.7-7.6,7.3-11.2,9.7c-3.5,1.9-6.7,3-10.2,5.2
		c-1.5,0.9-2.4,0.9-2.6,2.8c-0.4,5.6-1.3,11-3.5,16.4c-1.9,5.4-4.8,10.2-9.3,13.8c-5,4.3-10.6,5.4-16.8,3.9c-5.8-1.5-8.6-6-6.9-12.1
		c0.4-1.9,1.5-3.9,2.6-5.6c3-5.2,6-8.2,10.6-11.7c2.4-1.9,4.3-3,6.9-4.8c1.1-0.9,1.3-1.9,1.5-3.2c0.2-7.6,0.4-15.3-1.9-22.7
		c-0.6-2.4-1.7-5-3-7.1c-2.6-3.9-3.2-3.7-6.3-1.5c-4.3,3.2-8.9,10.6-11.9,16.8c-1.1,1.9-1.9,4.1-2.8,6.3c-0.6,1.9-1.5,3.9-1.9,6
		c-3.2,10.2-4.3,20.5-4.3,31.1c0,3.9,1.1,7.8,1.9,11.7c1.1,4.3-0.6,5.8-5,5.8c-3.5,0-7.6-1.7-9.1-5c-6-11.9-8.2-25.5-9.9-38.7
		c-1.5-12.7-1.3-23.1-0.2-35.6c0.6-7.8,1.9-15.3,3.7-22.9c1.9-7.6,3.9-14.9,6.9-22c2.6-6.5,5.8-13.2,9.9-18.8
		c1.3-1.7,2.4-3.2,3.9-4.8c3.7-3,9.5-5.6,14.5-5.4c1.5,0,3,0.2,4.3,0.6c4.3,1.3,6.7,4.1,7.1,8.6c0.4,7.8-1.9,15.8-5,22.7
		c-2.8,6.5-6,12.7-10.2,18.6c-2.6,3.5-5.2,6.7-8,9.9c-2.6,3-5.6,5.6-8.6,8.4c-0.9,0.9-1.7,1.5-1.7,2.8c-1.5,12.3-1.7,22.2-0.2,34.6
		C175.9,252.3,176.1,251.6,176.3,250.7z M194.7,156.8c-3,3.9-5.2,8.4-6.9,13c-3.7,10.4-6.5,17.7-8.9,28.5c-0.4,1.9-0.4,3.7-0.9,5.8
		c0.4,0,3.2-2.8,3.5-3.2c7.8-10.2,11.7-16.2,15.8-28.3c2.2-6.7,3-13.2,1.9-20.3C197.1,153.5,195.8,155.1,194.7,156.8z M204.2,273
		c-1.9,2.6-3.9,6.9-3.5,9.5c0,1.1,0.4,2.4,1.5,2.4c2.2,0,4.5-3.2,5.6-4.8c1.3-2.2,3-5,3.9-7.3c1.1-2.6,1.7-6.7,1.9-8.2
		C213.5,264.8,208.7,266.7,204.2,273z M258.2,248.4c-0.9,6.9-0.4,13.4,2.4,19.9c1.1,2.8,2.8,5.2,5.4,7.1c2.6,1.9,5.8,0.6,8.6-1.3
		c5.4-4.3,14.5-16.8,23.8-38.4c1.1-2.4,2.8-3.2,4.3-2.8c2.8,0.9,0.6,6-0.2,8.2c-2.6,6.5-11.9,24.6-18.1,32.6
		c-9.7,12.7-26.8,10.8-35.9,1.9c-3.7-3.7-5.8-8.2-6.9-13c-3.2-13.6,0-26.1,7.6-38c2.2-3.2,4.5-6.5,7.8-9.1c4.5-3.9,9.7-5.8,16-5.4
		c4.3,0.2,6.3,2.2,7.1,6c1.1,5.4,0.4,10.6-1.5,15.8c-2.6,6.7-7.3,10.8-15.1,11.2c-1.3,0-2.6,0-4.3,0
		C258.6,244.9,258.4,246.6,258.2,248.4z M259.9,239.1c3.9,0.6,6-1.1,7.8-3.7c2.2-3.2,3.2-6.9,3.7-10.6c0.2-2.4,0-4.5-1.1-7.1
		C265.5,224.6,261.9,231.3,259.9,239.1z M357.3,240.2c-5.4,4.3-21.8,11.4-28.1,13.4c1.3,2.6,3.2,5.8,4.3,9.1
		c2.6,7.1,3.9,14.3,3.7,21.8c-0.4,14.3-9.9,22.9-22.9,25.3c-2.4,0.4-4.5,0.4-6.7,0.4c-8-0.4-13-7.8-14.3-15.6
		c-1.1-7.3,0.6-14,3.5-18.8c2.8-4.8,6.5-8.9,10.8-13c0.9-0.6,1.7-1.5,2.8-2.4c-0.2-0.9-0.4-1.7-0.9-2.6
		c-3.2-7.1-11.7-16.8-13.6-19.7c-2.8-4.5-4.1-9.7-3.9-15.1c0.2-7.3,3-13.2,6.3-16.8c3-3.5,6.3-5.4,11-5.8c4.3-0.6,8.2,1.5,9.7,5.8
		c0.9,2.4,1.3,5,1.3,7.6c0.4,7.3-1.5,10.4-5.2,16.8c-0.4,0.6-0.9,1.3-1.3,2.4c5.4,5.6,7.8,7.3,12.3,14.7c3.9-1.1,13.6-4.3,26.4-12.7
		c2.6-1.7,5-3.7,7.6-1.9C361.4,234.1,361,237.6,357.3,240.2z M313,267.2c-5.6,5-9.5,10.2-11.2,17.1c-1.1,5-1.1,9.7,1.1,14.3
		c1.3,2.8,3,5,6.5,6c1.3-1.3,2.6-2.4,3.5-3.9c2.4-3.5,3.5-7.6,3.9-11.7C317.6,281.6,315.6,274.7,313,267.2z M308.9,225.7
		c4.1-7.3,3.9-15.1-0.4-19.2C304,212.5,304.2,220.9,308.9,225.7z"/>
	<path fill="#65C8D0" d="M307,173.5c-6,0-10.8-4.9-10.8-10.9c0-6,4.9-10.8,11-10.8c6,0.1,10.8,4.9,10.7,10.9
		C317.8,168.8,313,173.5,307,173.5z M298.7,163.2c0,0.5,0,0.8,0,1.2c0.1,0.9,0.7,1.6,1.6,1.7c0.9,0.1,1.7-0.5,1.9-1.4
		c0.1-0.5,0.1-1,0.2-1.6c0.1-1.6,0.6-3.1,1.6-4.4c0.2-0.3,0.5-0.6,0.8-0.9c0.6-0.8,0.6-1.7,0-2.4c-0.6-0.7-1.6-0.7-2.4-0.1
		c-0.5,0.4-0.9,0.8-1.2,1.3C299.5,158.6,298.8,160.9,298.7,163.2z M375,309.2c0,3.6-3,6.6-6.6,6.6c-3.6,0-6.5-3-6.5-6.6
		c0-3.7,2.9-6.6,6.6-6.5C372.1,302.7,375,305.6,375,309.2z M364.2,309.4c0-0.1,0,0,0,0.2c0.1,0.8,0.5,1.2,1.1,1.3
		c0.6,0,1.1-0.4,1.3-1.2c0-0.2,0-0.3,0.1-0.5c0.1-0.9,0.4-1.6,0.9-2.3c0.2-0.3,0.4-0.5,0.5-0.8c0.4-0.7,0-1.5-0.7-1.7
		c-0.6-0.1-1,0.1-1.4,0.5C364.9,306.2,364.3,307.6,364.2,309.4z M412,151.8c0,3.6-3,6.6-6.6,6.6c-3.6,0-6.5-3-6.5-6.6
		c0-3.7,2.9-6.6,6.6-6.5C409.1,145.3,412,148.2,412,151.8z M401.2,152c0-0.1,0,0,0,0.2c0.1,0.8,0.5,1.2,1.1,1.3
		c0.6,0,1.1-0.4,1.3-1.2c0-0.2,0-0.3,0.1-0.5c0.1-0.9,0.4-1.6,0.9-2.3c0.2-0.3,0.4-0.5,0.5-0.8c0.4-0.7,0-1.5-0.7-1.7
		c-0.6-0.1-1,0.1-1.4,0.5C401.9,148.8,401.3,150.2,401.2,152z M337.1,185.7c0,3.6-3,6.6-6.6,6.6c-3.6,0-6.5-3-6.5-6.6
		c0-3.7,2.9-6.6,6.6-6.5C334.1,179.2,337.1,182.1,337.1,185.7z M326.3,185.9c0-0.1,0,0,0,0.2c0.1,0.8,0.5,1.2,1.1,1.3
		c0.6,0,1.1-0.4,1.3-1.2c0-0.2,0-0.3,0.1-0.5c0.1-0.9,0.4-1.6,0.9-2.3c0.2-0.3,0.4-0.5,0.5-0.8c0.4-0.7,0-1.5-0.7-1.7
		c-0.6-0.1-1,0.1-1.4,0.5C327,182.7,326.3,184.1,326.3,185.9z M397.3,258.5c0.2,2.8,0.7,5.5,1.4,8.3c1.2,4.8,2.7,9.5,4.7,14
		c1.6,3.7,3.3,7.3,4.9,11c1.8,4.1,2.9,8.5,3.5,12.9c0.4,2.9,0.4,5.8,0.2,8.8c-0.2,2.8-0.7,5.6-1.8,8.2c-0.3,0.8-0.7,1.6-1.2,2.3
		c-0.5,0.8-0.9,0.9-1.9,0.7c-0.9-0.3-1.8-0.7-2.6-1.3c-1.1-0.8-2.1-1.7-3.1-2.6c-3.5-3.5-6.6-7.5-9.2-11.8
		c-4.1-6.5-5.7-13.6-5.3-21.2c0.1-2.3,0.4-4.5,0.6-6.7c0-0.4,0.1-0.7,0.1-1.1c0-0.4-0.2-0.7-0.5-0.9c-0.4-0.2-0.7-0.1-1,0.2
		c-0.4,0.3-0.7,0.7-1,1c-1.5,1.6-3.1,3-4.9,4.2c-3.6,2.4-7.7,3.7-12,4.2c-3.5,0.4-7.1,0.2-10.6-0.3c-3-0.5-6-1-9.1-1.6
		c-1.7-0.3-3.5-0.6-5.2-0.9c-1.3-0.3-1.5-0.7-1-1.9c0-0.1,0.1-0.3,0.1-0.4c0.5-0.9,1-1.8,1.6-2.7c1.1-1.5,2.3-2.8,3.7-4
		c3.1-2.8,6.5-5.1,10.1-7.1c3.9-2.2,8-3.9,12.4-4.9c2.7-0.6,5.4-1.2,8.1-1.8c2.8-0.6,5.4-1.5,7.9-2.8c2.1-1.1,4-2.3,5.4-4.3
		c0-0.1,0.1-0.1,0.3-0.2c0.1,0.6,0.1,1.1,0.2,1.6c0.1,0.7,0.2,1.4,0.6,2c0.5,0.9,1.4,1.1,2.3,0.5c0.4-0.2,0.7-0.5,1-0.8
		c0.4-0.4,0.7-0.8,1.2-1.3C397.3,258.3,397.3,258.4,397.3,258.5z M405.2,295.5c-1.9-5.1-3.9-10.2-5.9-15.2
		c-1.5-3.8-2.6-7.8-3.1-11.9c0-0.3-0.1-0.6-0.2-0.9c-0.1-0.3-0.3-0.5-0.7-0.5c-0.4,0-0.7,0.1-0.8,0.5c-0.1,0.4-0.2,0.8-0.2,1.3
		c-0.1,1.6,0.2,3.2,0.4,4.8c0.7,5.1,2.5,9.8,4.3,14.6c1.6,4.4,3.2,8.7,4.8,13.1c1,2.7,1.7,5.5,2.3,8.3c0.4,2.2,0.6,4.4,0.5,6.7
		c0,0.6-0.1,1.3-0.1,1.9c0,0.6,0.3,1,0.8,1.1c0.5,0.2,0.9,0,1-0.6c0.2-1.5,0.4-2.9,0.4-4.4c0-1.8-0.1-3.6-0.1-5.4
		C408,304.3,406.8,299.9,405.2,295.5z M388.5,264.2c-2.6,1-5.4,1.7-8.1,2.3c-4.7,1.1-9.3,2.1-14,3.4c-4.2,1.2-8.1,3.1-11.7,5.7
		c-2,1.4-3.8,2.9-5.7,4.4c-0.5,0.4-1,1-1.5,1.5c-0.3,0.3-0.4,0.8-0.3,1.2c0.2,0.4,0.4,0.6,0.8,0.3c0.5-0.3,0.9-0.5,1.4-0.8
		c1.2-0.8,2.4-1.7,3.7-2.4c3.3-1.9,6.7-3.7,10.3-5c2.1-0.7,4.2-1.3,6.4-1.9c4.8-1.4,9.5-2.9,14.2-4.4c1.5-0.5,2.9-1.1,4.3-1.8
		c0.6-0.3,1.1-0.7,1.6-1c0.2-0.2,0.4-0.4,0.5-0.7c0.2-0.7-0.3-1.1-1.1-1C389.1,264,388.8,264.1,388.5,264.2z M356.1,285.4
		c3-0.9,5.9-1.9,8.9-2.8c3.8-1.1,7.6-2.1,11.4-3.1c2.2-0.6,4.4-1.1,6.4-2.1c0.9-0.4,1.9-1,2.8-1.5c0.3-0.2,0.5-0.4,0.8-0.6
		c0.4-0.4,0.4-0.8,0.2-1.2c-0.2-0.4-0.6-0.5-1.1-0.4c-0.5,0.1-0.9,0.3-1.3,0.4c-1.8,0.7-3.7,1.3-5.6,1.7c-1.7,0.4-3.4,0.7-5.1,1.1
		c-3.3,0.6-6.4,1.5-9.6,2.5c-2.8,0.9-5.4,2-7.9,3.4c-0.4,0.2-0.8,0.6-1.2,0.9c-0.3,0.3-0.4,0.6-0.4,1c0,0.6,0.4,1,1,0.9
		C355.7,285.5,355.9,285.5,356.1,285.4z M400.5,302.3c-0.8-3-1.7-5.9-2.9-8.7c-0.6-1.6-1.3-3.1-1.9-4.7c-0.9-2.3-1.5-4.7-2.2-7.1
		c-0.2-0.7-0.4-1.3-0.6-2c0-0.1-0.1-0.2-0.1-0.3c-0.2-0.3-0.5-0.5-0.9-0.5c-0.4,0.1-0.6,0.3-0.6,0.7c0,0.5-0.1,1,0,1.5
		c0.3,1.8,0.5,3.6,0.8,5.4c0.6,3.7,2,7,3.3,10.5c1.2,3.1,2.3,6.3,3.3,9.4c0.6,1.8,1,3.7,1.2,5.6c0,0.3,0.1,0.7,0.2,1
		c0.1,0.4,0.3,0.6,0.6,0.7c0.6,0.2,1.1,0,1.1-0.7c0-1.3,0-2.6,0-3.9C401.6,306.8,401.1,304.5,400.5,302.3z M374.8,186.1
		c1.5,1.5,3.1,2.7,5,3.2c1.1,0.3,2.1,0.3,3.2-0.1c1.8-0.7,2.7-2.1,2.9-3.9c0.2-1.6-0.4-3.2-1.1-4.7c-3,0.4-5.5-0.8-8-2.7
		C377.5,181,377.2,183.7,374.8,186.1z M397.2,173.6c-2.6,0.8-5.1,0.5-7.5-1.1c0,0.7,0,1.3,0,1.9c0,1.2-0.3,2.3-0.9,3.3
		c-0.5,0.8-1.1,1.5-1.9,2c-0.1,0.1-0.3,0.2-0.4,0.3c1.9,1.6,3.9,3,6.6,3c2.7,0,4.7-1.7,5.1-4.4c0.2-1.6,0-3.2-0.8-4.7
		C397.3,173.8,397.3,173.7,397.2,173.6z M372.9,187.1c-0.7,0.1-1.4,0.2-2.1,0.2c-1.2,0-2.3-0.4-3.3-1c-0.8-0.5-1.5-1-2.2-1.5
		c-0.2-0.1-0.3-0.2-0.6-0.4c0.3,2.6,0.3,5-1.4,7c1,1.5,2.2,2.6,3.9,3.1c0.9,0.3,1.8,0.4,2.7,0.2c2.6-0.5,3.8-2.6,3.8-4.8
		C373.7,188.9,373.4,188,372.9,187.1z M395.8,245.5c0.6,1.5,2.3,2.5,3.8,2.3c0.6-0.1,1-0.3,1.2-1c0.5-1.8,1.1-3.5,1.6-5.3
		c0.1-0.2,0.1-0.4,0.1-0.6c-1.4,0.1-2.7-0.4-3.9-1.3C398.9,242.3,398.3,244.4,395.8,245.5z M396.9,248.8c-1.3-0.7-2.3-1.7-2.7-3.1
		c-0.7-0.2-1.3-0.3-2-0.5c0.2,1.1,0.3,2.1,0.5,3.1c0.1,0.9,0.3,1.8,0.4,2.7c0.1,0.6,0.3,0.8,0.8,0.8c0.5,0.1,1-0.1,1.4-0.4
		C396.2,250.8,396.7,249.9,396.9,248.8z M380.3,207.7c0.9,1.4,1.9,2.7,3.2,3.6c0.6,0.4,1.1,0.8,1.8,1.1c2.3,0.9,4.4-0.1,5.2-2.4
		c0.5-1.4,0.4-2.8,0.1-4.2c-0.1-0.4-0.2-0.7-0.3-1.2c-1.6,0.5-3.2,0.6-4.7,0c-1.5-0.6-2.7-1.6-3.9-2.7c0,1.1,0,2.1-0.1,3
		C381.4,205.9,381,206.9,380.3,207.7z M400,198.4c-2.6,0.7-4.7-0.2-6.9-1.6c0,0.4,0,0.6,0.1,0.9c0.2,1.4,0.1,2.8-0.5,4.1
		c-0.3,0.6-0.6,1.1-1,1.7c1.4,1.4,3.1,2.5,5.2,2.7c1.9,0.2,3.5-0.8,3.9-2.7C401.3,201.8,400.9,200.1,400,198.4z M375.2,209.3
		c1.5,2.1,3,4.2,4.6,6.4c0.4-0.8,0.5-1.5,0.5-2.2c0-1.1-0.4-2.1-0.8-3.1c-0.2-0.5-0.5-1-0.8-1.6c-1.1,0.4-2.3,0.6-3.4,0.3
		C375.2,209.2,375.2,209.2,375.2,209.3z M401.7,197.6c0.8,1.3,1.8,2.2,2.8,2.5c-0.2-1.7-0.5-3.4-0.9-5.1
		C403.2,196,402.5,196.9,401.7,197.6z M390.5,227.5c1.2,1,2.4,1.9,3.9,2.3c2.1,0.5,3.5-0.4,3.8-2.5c0.2-1.1,0-2.3-0.4-3.2
		c-2.3,1-4.4,0.3-6.5-1.2C391.5,224.5,391.4,226,390.5,227.5z M405.4,219.3c-1.8,0.1-3.4-0.5-5-1.5c0.1,1.7,0.1,3.4-1,4.8
		c1.7,1.3,3.3,2.7,5.7,2.6C405.2,223.3,405.3,221.4,405.4,219.3z M389.4,233.9c0.8-1.4,0.7-3.3-0.2-5c-0.5,0.2-1,0.4-1.5,0.6
		C388.2,230.9,388.8,232.3,389.4,233.9z M155.2,83.1c0.5,0.2,1.3,0.4,1.6,0.5c0.8,0.1,3.6-0.1,4.3-0.3c1.2-0.5,2.7-2.4,3.7-5
		c0.2-0.4,0.3-0.9,0.4-1.5c1,0,2.1,0,3.1,0c0.2,1.6,0.8,2.9,1.9,3.8c1,0.8,2.1,1.1,3.8,1.2c1.8,0.1,3-0.2,4.1-1
		c0.9-0.6,1.9-2,2.3-3.2c0.1-0.2,0.1-0.4,0.1-0.6c21,0.3,47.9,0.2,73.5-0.3c11.4-0.2,19.1-0.4,26.7-0.7c0,0.5,0,1.2,0,1.9
		c-0.1,4.4-0.1,4.8,0.2,5.1c0.4,0.6,0.6,0.8,1.1,1c0.5,0.2,1,0.1,1.6-0.3c1-0.7,12.3-6.3,13.2-6.5l0.3-0.1l0,2.5
		c0,1.6,0,2.5,0.1,2.5c0.1,0,0.1,0.1,0.1,0.2c0,0.1,0.1,0.3,0.2,0.4c0.4,0.3,1.3,0.7,1.7,0.7c0.2,0,1.4-0.4,2.6-0.8
		c1.2-0.4,3.7-1.3,5.5-1.9c1.8-0.6,5.2-1.7,7.6-2.6c2.4-0.8,4.8-1.7,7.2-2.4c1.3-0.4,4.5-0.8,4.8-2.4c0.6-2.8-4-3.1-5.8-3.6
		c-8.4-2.5-11.4-3.4-14.4-4.2c-1.7-0.5-3.9-1.1-5-1.5c-2.9-1-3.5-1-4.3-0.2c-0.3,0.3-0.3,0.4-0.4,1.3c0,0.6,0,2.3,0,3.8
		c0.1,1.5,0.1,2.8,0,2.9c0,0-0.5-0.2-1-0.4c-0.5-0.3-1.7-0.9-2.7-1.4c-1-0.5-3.2-1.7-4.9-2.6c-6-3.3-6.9-3.6-8-2.6
		c-0.3,0.3-0.3,0.4-0.4,1.6c0,0.7,0,1.8,0.1,2.4c0.1,0.6,0.2,1.8,0.3,2.7c0,0.4,0.1,0.9,0.1,1.4c-9.7,0.4-31.2,0.9-33.6,0.9
		c-1.1,0-7.8,0-14.7,0.1c-17.6,0.1-40.4,0.1-51.8-0.1c0-0.1,0-0.3-0.1-0.4c-0.5-2.2-2.6-4.1-4.9-4.4c-1.1-0.2-2.9,0.1-3.7,0.5
		c-1.7,0.8-2.9,2.3-3.4,4.2c-1,0-2.1,0-3.2,0c0-0.1,0-0.3-0.1-0.4c-0.4-1.9-1.4-3.6-2.9-4.8c-1.4-1.2-2.3-1.5-4.2-1.6
		c-1.9-0.1-2.7,0.2-4.3,1.2c-2.5,1.5-4.1,4.4-4.2,7.4C149.6,79.3,151.4,81.8,155.2,83.1z"/>
	<path fill="#DB8FA2" d="M251.6,313.4c-0.1-0.3-0.2-0.4-0.3-0.5c-2.3-5.1-3.4-10.5-3-16.1c0.2-2.3,0.7-4.5,1.8-6.6
		c0.7-1.3,1.7-2.5,3-3.3c2-1.3,3.6-0.8,4.6,1.3c0.5,1.2,0.7,2.4,0.8,3.6c0.1,2-0.2,3.9-0.6,5.8c-1.2,5.1-3.1,9.9-5.6,14.4
		C252.2,312.7,251.9,313,251.6,313.4z M254.2,312.8c0.2,0,0.3-0.1,0.5-0.2c4.8-1.8,9.2-4.4,12.7-8.2c1.2-1.2,2.2-2.6,2.8-4.2
		c0.4-0.9,0.5-1.9,0.3-2.9c-0.2-0.9-0.7-1.6-1.6-2.1c-0.8-0.4-1.6-0.5-2.4-0.5c-1.2,0-2.3,0.4-3.4,0.9c-1.2,0.6-2.3,1.5-3.2,2.5
		c-0.3,0.3-0.5,0.6-0.6,1.1c-0.8,3.3-2,6.5-3.4,9.5c-0.6,1.3-1.2,2.6-1.9,3.9C254.1,312.8,254.2,312.8,254.2,312.8z M249.7,313.3
		c-0.1-0.2-0.1-0.4-0.2-0.6c-2.1-4.8-2.9-9.8-2.8-15c0-0.4-0.1-0.7-0.3-1c-0.9-1.2-2-2.2-3.2-3c-0.9-0.6-2-1-3.1-1.2
		c-1.9-0.3-3.4,0.8-3.7,2.7c-0.1,0.6-0.1,1.2-0.1,1.7c0.1,1.1,0.4,2.1,0.8,3.1c0.6,1.3,1.4,2.6,2.3,3.7c2.8,3.5,6.1,6.5,9.6,9.2
		C249.2,313.1,249.4,313.2,249.7,313.3C249.6,313.3,249.6,313.3,249.7,313.3z M235.4,300.8c-2.4,0.3-4.9,2.7-4.2,5.8
		c0.3,1.2,0.8,2.2,1.6,3c1.9,1.9,4.1,3.2,6.6,3.9c2.8,0.8,5.7,1.2,8.7,1.3c0.1,0,0.3,0,0.5-0.1c-0.6-0.4-1.1-0.8-1.6-1.2
		c-2.6-2.1-5-4.3-7.3-6.8c-1.3-1.4-2.5-3-3.5-4.7c-0.2-0.4-0.5-0.9-0.7-1.3C235.5,300.8,235.5,300.8,235.4,300.8z M253.7,314.9
		c0.3,0,0.6,0,0.9,0.1c3.1,0.1,6.2-0.1,9.4-0.5c1.8-0.2,3.7-0.6,5.4-1.1c1.3-0.4,2.5-0.9,3.6-1.7c0.7-0.5,1.3-1,1.7-1.8
		c0.6-1.1,0.5-2-0.5-2.8c-0.2-0.2-0.5-0.4-0.8-0.5c-1.5-0.7-3.1-0.9-4.7-0.7c-0.4,0-0.6,0.2-0.9,0.4c-0.9,0.8-1.8,1.7-2.8,2.5
		c-3.2,2.5-6.7,4.3-10.5,5.6c-0.3,0.1-0.5,0.2-0.8,0.3C253.6,314.8,253.7,314.9,253.7,314.9z M235.3,317.4c0.2,1,0.6,1.4,1.5,1.5
		c0.7,0.1,1.4,0.1,2.1,0c3.2-0.4,6.2-1.2,9.2-2.2c0.1,0,0.2-0.1,0.4-0.3c-4.6-0.3-9-0.7-13.2-2.9
		C235.3,314.9,235.1,316.1,235.3,317.4z M255.5,316.9c2.3,1.1,4.7,2,7.2,2.5c1.1,0.2,2.2,0.4,3.3,0.5c1.2,0.1,1.6-0.2,1.8-1.4
		c0.1-0.7,0.2-1.5,0.3-2.2c0-0.3,0-0.6,0.1-0.9c-4.3,0.9-8.5,1.2-13,1.3C255.3,316.8,255.4,316.9,255.5,316.9z M228.6,162.9
		c-1.5,0.4-2.2,1.5-2.3,3.1c-0.1,1.3,0.3,2.6,0.9,3.8c0.7,1.5,1.7,2.9,2.8,4.1c0.8,0.9,1.5,1.9,2.3,2.8c1.5,1.9,1.6,3.9,0.3,5.9
		c-0.9,1.5-1.8,2.9-2.8,4.4c-1,1.5-1.9,3.1-2.6,4.8c-0.3,1-0.6,1.9-0.5,3c0.1,1.7,1.2,3,2.8,3.4c0.8,0.2,1.7,0.2,2.5,0.1
		c1.2-0.2,2.4-0.5,3.5-0.8c2.8-0.8,5.4-2.1,8.1-3.3c1.4-0.6,2.8-1.2,4.2-1.7c1.8-0.6,2.1-0.5,3.3,1c1.1,1.5,2.2,3,3.3,4.5
		c1.1,1.5,2.4,3,3.8,4.2c1,0.8,2.1,1.5,3.3,1.8c3.1,0.7,4.8-1,5-3.2c0.1-0.9,0.2-1.8,0.1-2.6c-0.1-2-0.2-4-0.3-6
		c0-1.5,0-3.1,0.1-4.6c0.1-1.5,0.8-2.7,2.1-3.5c0.8-0.5,1.7-0.9,2.5-1.4c1.9-1.1,3.9-2.1,5.7-3.3c0.9-0.6,1.7-1.4,2.3-2.2
		c1.3-1.8,0.9-3.6-1-4.8c-0.8-0.5-1.6-0.8-2.5-1.1c-1.5-0.5-3-0.8-4.4-1.2c-1.3-0.4-2.6-0.8-3.8-1.2c-1.2-0.4-2-1.3-2.3-2.5
		c-0.1-0.3-0.2-0.6-0.2-0.9c-0.3-1.6-0.5-3.2-0.8-4.7c-0.3-2.1-0.8-4.2-1.7-6.2c-0.4-0.9-1-1.7-1.7-2.4c-1-0.8-2.1-1.1-3.3-0.6
		c-0.7,0.3-1.4,0.7-2,1.2c-1,0.9-2,1.8-2.8,2.9c-1.5,1.9-2.9,4-4.3,6c-1.4,2.1-3.7,3-6.1,2.5c-1.1-0.2-2.2-0.5-3.2-0.8
		c-2.4-0.6-4.7-1.1-7.2-1.2C230.8,162.5,229.6,162.6,228.6,162.9z M245.7,177.8c0-3,2.4-5.4,5.3-5.4c2.9,0,5.3,2.3,5.3,5.3
		c0,2.9-2.2,5.3-5.3,5.4C247.9,183.1,245.7,180.6,245.7,177.8z M237.8,184.5c0-1.7,1.3-3,3-3c1.7,0,3.1,1.3,3.2,3.1
		c0,1.7-1.3,3.1-3,3.1C239.2,187.6,237.8,186.3,237.8,184.5z M257.9,191.9c-1.6-0.1-3-1.4-2.9-3.1c0-1.7,1.4-3,3.1-3
		c1.7,0,3,1.4,3,3.1C261,190.6,259.6,192,257.9,191.9z M254.4,169.8c-1.6,0-3-1.4-3-3c0-1.7,1.4-3.1,3-3c1.7,0,3,1.4,3,3.1
		C257.5,168.5,256.1,169.8,254.4,169.8z M262.1,180.2c-1.6,0-3-1.4-3-3c0-1.7,1.4-3.1,3.1-3c1.7,0,3,1.4,3,3.1
		C265.1,178.9,263.8,180.2,262.1,180.2z M243.9,172.8c0,1.7-1.4,3-3,3c-1.7,0-3-1.4-3-3.1c0-1.7,1.3-3,3-3
		C242.5,169.7,243.9,171.1,243.9,172.8z M231.8,168.3c0-1,0.7-1.8,1.6-1.8c0.9,0,1.7,0.7,1.7,1.6c0,1-0.7,1.8-1.6,1.8
		C232.6,170,231.8,169.3,231.8,168.3z M235.6,192.4c0,0.9-0.7,1.6-1.6,1.6c-0.9,0-1.7-0.8-1.7-1.8c0-0.9,0.8-1.6,1.6-1.6
		C234.8,190.6,235.6,191.4,235.6,192.4z M261,199.1c-0.9,0-1.6-0.8-1.6-1.7c0-0.9,0.9-1.6,1.8-1.6c0.9,0,1.6,0.8,1.6,1.7
		C262.7,198.4,261.9,199.2,261,199.1z M255.9,157.9c0-0.9,0.7-1.6,1.6-1.6c0.8,0,1.6,0.7,1.6,1.5c0,0.9-0.7,1.6-1.6,1.6
		C256.6,159.5,255.9,158.8,255.9,157.9z M269.8,176.2c0-0.9,0.7-1.6,1.6-1.6c0.9,0,1.5,0.7,1.5,1.6c0,0.9-0.7,1.6-1.6,1.6
		C270.5,177.8,269.8,177.1,269.8,176.2z M356,174.3c3.1-0.4,5.4-1.3,7.6-2.7c1.8-1.1,3.4-2.5,4.9-4.1c0.1-0.1,0.2-0.2,0.3-0.4
		c0.8-1,1.7-1.6,3-1.9c3.5-0.7,6.6-2.4,9.4-4.6c1.2-0.9,2.2-2,3.1-3.3c0.9-1.4,1.4-2.9,1.2-4.5c-0.2-2.4-2-4.2-4.4-4.4
		c-1.4-0.1-2.7,0.2-3.9,0.9c-1.2,0.7-2.3,1.6-3.2,2.7c-0.7,1-1.4,2-2.1,3.1c-0.7,1.2-1.2,2.4-1.9,3.7c-0.4,0.7-0.8,1.5-1.2,2.2
		c-0.9,1.7-2.4,2.5-4.2,2.8c-1.6,0.3-3.3,0.3-5,0.3c-2.2,0-4.3,0-6.4,0.6c-1.1,0.3-2.2,0.6-3.2,1.3c-1,0.6-1.8,1.5-2,2.7
		c-0.3,1.4,0.2,2.6,1,3.6c0.8,1,1.8,1.5,3,1.9C353.6,174.4,355.1,174.4,356,174.3z M380.9,198.8c1.3,1.6,2.7,3,4.5,3.9
		c1.2,0.6,2.5,0.8,3.8,0.4c0.9-0.3,1.5-0.8,2-1.6c0.4-0.8,0.6-1.7,0.6-2.7c0-1.3-0.3-2.6-1-3.8c-3.2,1.1-5.9,0.1-8.5-2.1
		c0.1,1.1,0.3,2.1,0,3.1C382,197.1,381.6,198,380.9,198.8z M401.7,189.1c-2.4,0.5-4.5-0.1-6.4-1.6c-0.1,2.7-0.9,4.9-3,6.6
		c0.2,0.1,0.3,0.3,0.4,0.4c0.9,0.7,1.8,1.4,2.8,1.9c0.7,0.4,1.5,0.6,2.3,0.7c2,0.2,3.9-1,4.4-3c0.3-1.3,0.4-2.7,0-4
		C402,189.8,401.8,189.5,401.7,189.1z M371,203.4c0.7,1,1.3,2,2.1,2.9c1.2,1.4,3.6,1.8,5.3,1c0.7-0.3,1.1-0.8,1.3-1.5
		c0.2-0.6,0.3-1.3,0.3-2c0-1.1-0.2-2.2-0.5-3.3c0-0.1-0.1-0.3-0.2-0.5c-2.5,0.9-4.7,0.1-6.8-1.3c-0.1,0.9-0.1,1.8-0.2,2.6
		C372.2,202.1,371.7,202.8,371,203.4z M366.3,171.7c1.4,1.3,2.8,2.5,4.6,3.1c2.3,0.8,5-0.4,6.1-2.8c0.7-1.5,0.8-3,0.5-4.6
		c-0.2-0.7-0.4-1.4-0.6-2.1c-0.2,0-0.3,0-0.3,0.1c-1.6,0.8-3.3,1.3-5.1,1.6c-0.4,0.1-0.7,0.2-0.9,0.5c-0.5,0.5-1,1.1-1.5,1.6
		c-0.8,0.8-1.6,1.5-2.4,2.2C366.6,171.5,366.5,171.6,366.3,171.7z M386.1,157.5c-1.8,3.1-4.6,5.2-7.7,7c1.2,1.1,2.4,2,3.8,2.6
		c0.8,0.3,1.7,0.6,2.6,0.8c2,0.3,3.6-0.9,4.1-2.8c0.4-1.4,0.2-2.8-0.4-4.1C388,159.6,387.1,158.6,386.1,157.5z M356.6,175.8
		c0.1,0.3,0.2,0.6,0.3,0.8c0.8,1.5,1.9,2.7,3.4,3.5c0.5,0.3,1,0.4,1.5,0.6c0.6,0.2,1.1,0,1.6-0.4c0.6-0.5,1-1.1,1.3-1.8
		c0.6-1.3,0.7-2.7,0.5-4.1c-0.1-0.5-0.2-1-0.3-1.6C362.3,174.3,359.6,175.5,356.6,175.8z M379.1,167.2c0.4,3.1-0.1,5.9-2.6,8
		c0,0.1,0.1,0.1,0.1,0.2c1.4,1.6,3.1,2.8,5.1,3.4c1,0.3,2,0.4,3,0.2c1.5-0.3,2.6-1.2,3.1-2.6c0.9-2.5,0.4-4.8-0.9-7
		c-2.6,0.5-4.8-0.4-6.9-1.7c-0.2-0.2-0.5-0.3-0.7-0.5C379.2,167.1,379.2,167.1,379.1,167.2z M364.3,181.7c1.4,1.7,3,3,5.1,3.8
		c0.5,0.2,1.1,0.3,1.7,0.3c1.4,0.1,2.6-0.5,3.4-1.7c0.8-1,1-2.2,1.1-3.4c0.1-1.2-0.3-3.2-1.3-4.3c-1.3,0.3-2.6,0.4-3.9-0.1
		c-1.3-0.4-2.4-1.2-3.6-2C367.1,177.1,366.6,179.7,364.3,181.7z M390.6,161.9c0.3,2.6,0,4.9-2.2,6.6c0.7,0.9,1.4,1.8,2.3,2.6
		c1.5,1.3,4.4,1.7,6,0.9C396.4,170.7,392,163.3,390.6,161.9z M362,190.4c0.8-0.8,1.1-1.7,1.2-2.7c0.2-1.7-0.1-3.3-0.6-5
		c0-0.1-0.1-0.2-0.1-0.2c0-0.1-0.1-0.1-0.1-0.2c-2.1-0.1-3.6-1.2-5.1-2.5C358.4,183.5,360,187,362,190.4z M397.6,230.9
		c-2.3,1-4.2,0.3-6.2-0.8c0,0.8,0.1,1.5,0,2.3c-0.1,0.7-0.3,1.4-0.5,2.3c0,0,0.2,0.2,0.3,0.3c0.8,0.7,1.8,1.3,2.8,1.7
		c0.3,0.1,0.5,0.2,0.8,0.2c1.7,0.3,3-0.5,3.3-2.2C398.4,233.4,398.2,232.2,397.6,230.9z M399.9,225.1c0.1,1.6,0,3.1-0.9,4.5
		c1.1,1.1,2.3,2.1,3.9,2.3c0.2,0,0.4,0,0.5,0c0.8-0.1,1-0.2,1.1-1c0.2-1.3,0.3-2.7,0.5-4.1C403,226.9,401.4,226.1,399.9,225.1z
		 M391,212.3c1,0.9,2.1,1.7,3.3,2.2c1.1,0.5,2.2,0.5,3.3,0c0.9-0.4,1.5-1,1.7-1.9c0.5-1.7,0.2-3.2-0.5-4.8c-2.4,0.4-4.4-0.4-6.5-1.7
		C392.5,208.4,392.4,210.5,391,212.3z M389.3,213.8c-0.1,0-0.2,0.1-0.3,0.1c-1.7,0.7-3.3,0.5-4.9-0.3c-0.6-0.3-1.2-0.8-1.8-1.2
		c-0.2-0.1-0.3-0.3-0.5-0.4c0,0.9,0,1.7,0,2.5c0,0.8-0.4,1.6-0.8,2.3c0.8,1.3,1.8,2.3,3.2,3c1,0.5,2,0.7,3.1,0.4
		c1.6-0.5,2.4-1.5,2.7-3C390.2,216,389.9,214.9,389.3,213.8z M400.3,207.2c1.3,1.5,2.9,2.5,5,2.6c0-0.3,0-0.5,0-0.8
		c-0.2-2.2-0.4-4.5-0.6-6.7c0-0.2,0-0.4-0.3-0.5c-0.6-0.3-1.2-0.5-1.9-0.8c0,0.4,0,0.8,0,1.1c0.1,2-0.6,3.6-2.2,4.9
		C400.4,207,400.4,207,400.3,207.2z M396.8,238.4c-0.4,0-0.8,0.1-1.1,0.1c-1,0.1-2-0.2-2.9-0.7c-0.7-0.4-1.3-0.8-2-1.2
		c-0.2-0.1-0.4-0.3-0.7-0.5c0.2,0.6,0.3,1,0.4,1.5c0.4,1.6,0.8,3.3,1.2,4.9c0.1,0.3,0.2,0.5,0.5,0.7c0.6,0.5,1.2,0.8,2,0.9
		c1.2,0.1,2.3-0.5,2.7-1.7c0.2-0.6,0.3-1.2,0.3-1.8C397.1,239.9,396.9,239.2,396.8,238.4z M404.1,233.5c-1.6,0.2-3-0.2-4.4-1.1
		c0.2,1.9,0,3.6-1.3,5.1c0.8,0.8,1.7,1.5,2.8,1.8c0.4,0.1,0.8,0.1,1.2,0.1c0.3,0,0.6-0.2,0.6-0.6C403.4,237,403.8,235.3,404.1,233.5
		z M405.5,217.6c0-2.1,0-4.1,0-6.3c-1.6,0-3-0.5-4.4-1.5c0.1,1.9-0.1,3.7-1.4,5.1C400.8,216.7,403.7,218.1,405.5,217.6z
		 M390.5,220.1c0.9,0.9,1.9,1.8,3.1,2.3c0.7,0.4,1.5,0.5,2.3,0.4c1.4-0.2,2.6-1.2,2.8-2.6c0.2-1.3-0.1-2.9-0.8-4.1
		c-1.1,0.3-2.2,0.5-3.4,0.2c-1.1-0.3-2.1-0.8-3.2-1.5c0,0.7,0.1,1.2,0.1,1.8c0,0.6-0.1,1.2-0.3,1.7
		C391.1,218.9,390.8,219.4,390.5,220.1z M387,227.9c0.6,0,1.2-0.2,1.6-0.6c0.6-0.5,0.9-1.1,1.1-1.9c0.3-1.4,0-2.7-0.7-4
		c-1.7,0.9-3.4,0.9-5.2,0.2C384.9,223.7,385.9,225.7,387,227.9z M387.3,182.6c0.1,0.7,0.1,1.2,0.2,1.8c0.1,1.6-0.4,3-1.3,4.2
		c-0.8,1-1.8,1.7-3,2.1c-0.2,0.1-0.4,0.1-0.6,0.2c0.5,0.7,1.1,1.2,1.7,1.7c1.1,0.8,2.2,1.3,3.6,1.4c2.2,0.1,3.8-0.9,4.9-2.7
		c0.9-1.5,1.2-3.1,0.9-4.8c0-0.3-0.1-0.6-0.2-0.8c-0.2-0.7-0.6-1.1-1.5-1.2c-1.4-0.1-2.7-0.7-3.9-1.5
		C387.8,182.9,387.6,182.8,387.3,182.6z M375.1,188.5c0.4,3.1-0.5,5.6-3.2,7.2c0.1,0.1,0.2,0.3,0.3,0.4c1.2,1.4,2.7,2.4,4.7,2.6
		c2.3,0.2,3.7-1.5,3.9-3.4c0.2-1.5-0.2-3-1.1-4.3c-0.1-0.1-0.2-0.2-0.3-0.3C377.8,190.4,376.5,189.5,375.1,188.5z M399.7,179.4
		c-0.7,2.5-2.2,4.2-4.7,4.9c1.2,3.1,4.7,4.1,7.1,3C401.5,184.6,400.7,182,399.7,179.4z M370,202.1c0.5-0.3,0.7-0.8,0.8-1.3
		c0.2-1,0.1-2-0.2-3c-0.1-0.5-0.3-1-0.5-1.5c-1.7,0.2-3.2,0-4.7-0.8c0,0-0.1,0.1-0.1,0.1C366.9,197.8,368.5,199.9,370,202.1z
		 M399.8,249.4c-0.5,0-0.9,0-1.4-0.1c-0.5,1.9-1.6,3.3-3.4,4c0.5,0.9,1.1,1.5,2.1,1.9C398.1,253.4,399,251.5,399.8,249.4z
		 M393.5,254.2c0,1.4,0.4,3.9,0.7,4.6c0.6-0.2,1.3-0.9,2-2c-0.5-0.4-1-0.7-1.5-1.1C394.2,255.2,393.9,254.7,393.5,254.2z
		 M355.7,307.2c-2-2.5-4.4-2.3-7.5,0.4c-3.1,2.7-8.8,6.5-14.5,9.7c-19.6,10.8-41,16.5-65,17.1c-10.2,0.3-28-0.8-36-2.2
		c-12.3-2.1-19.3-4.4-45.3-15.1c-26.1-10.7-40.8-16-52.1-18.6c-13.3-3.2-37.9-6-47.9-5.5c-7.7,0.4-20,2.7-30.1,5.5
		c1.3,2.7,2.5,5.3,3.7,8c2.6-0.7,5.4-1.4,8.6-2.1c13.4-3,19.7-3.4,34.4-1.9c28.2,2.8,39,5.8,78.1,21.9c23.3,9.5,31.9,12.7,41.4,14.9
		c16.9,4,44.5,5.1,63.2,2.4c20.1-2.9,36-8.2,52.5-17.5c5.8-3.3,12.4-7.8,15-10.3c1.8-1.8,2.1-2.3,2.2-3.8
		C356.5,308.8,356.3,308,355.7,307.2z"/>
</g>
</svg>
