<?xml version="1.0" encoding="utf-8"?>
<!-- Generator: Adobe Illustrator 18.0.0, SVG Export Plug-In . SVG Version: 6.00 Build 0)  -->
<!DOCTYPE svg PUBLIC "-//W3C//DTD SVG 1.1//EN" "http://www.w3.org/Graphics/SVG/1.1/DTD/svg11.dtd">
<svg version="1.1" id="Layer_1" xmlns="http://www.w3.org/2000/svg" xmlns:xlink="http://www.w3.org/1999/xlink" x="0px" y="0px"
	 viewBox="0 0 432 432" enable-background="new 0 0 432 432" xml:space="preserve">
<path fill="#333333" d="M85,121.5c-0.8,0.7-1.7,1-2.6,1c-0.9,0-1.7-0.1-2.4-0.3c-0.7-0.3-1.2-0.8-1.5-1.4c-0.3-0.6-0.6-1-0.7-1.2
	c-1.1-3-2.1-6.2-2.7-9.8c-0.7-3.5-1.3-6.8-1.9-9.8c-0.6-3.5-1.1-7-1.5-10.4c-0.3-1.7-0.7-3.5-0.9-5.2c-0.3-1.8-0.5-3.5-0.8-5.2v-0.2
	c0,5,0,10.4-0.1,16c-0.1,5.7-0.1,11.2-0.3,16.7s-0.3,10.6-0.4,15.3c-0.2,4.7-0.4,8.6-0.6,11.7c-0.1,2.2-0.3,4.1-0.5,5.8
	c-0.2,1.5-0.5,2.8-0.9,4c-0.4,1.2-0.9,1.8-1.5,1.8c-1.6,0-2.8-1.6-3.5-4.7c-0.7-3.1-1-8.2-0.8-15.3c0-2.4,0-6.1,0.1-11.1
	c0.1-5,0.1-10.6,0.2-16.8c0.1-6.2,0.1-12.5,0.3-19.1c0.1-6.6,0.3-12.6,0.7-18.1c0.3-5.5,0.8-10,1.4-13.5c0.6-3.5,1.3-5.4,2.1-5.5
	h0.2c0.1,0,0.3,0.1,0.5,0.2c0.2-0.2,0.4-0.3,0.5-0.3c0.7-0.2,1.3-0.2,1.9,0c0.6,0.2,1.1,0.8,1.7,1.7c0.7,0.8,1.3,2.1,1.7,3.9
	c0.8,3.1,1.5,6.5,2.2,10.3c0.6,3.2,1.2,6.9,1.9,11s1.3,8.6,1.9,13.3c0.7,4.5,1.3,8.6,1.9,12.3c0.6,3.2,1.1,6.3,1.5,9.2
	c0.5,2.9,0.8,4.8,1,5.7c0.1-2.4,0.3-5.2,0.6-8.6c0.3-3.3,0.6-6.4,0.9-9.4c0.5-3.5,0.9-7.1,1.4-10.8c0.5-3.5,1-6.8,1.6-9.9
	c0.6-3.1,1.2-5.8,1.8-8.1c0.7-2.7,1.4-5.2,2.1-7.5c0.5-1.7,1-3.4,1.7-5.1c0.6-1.5,1.3-3,2.1-4.5c0.8-1.5,1.7-2.9,2.6-4
	c0.2-0.3,0.5-0.6,0.9-0.9c0.8-0.5,1.6-0.6,2.4-0.3c0.2,0.1,0.4,0.2,0.5,0.3s0.3,0.4,0.5,0.9c0.6,0.2,1.2,1,1.9,2.2
	c0.7,1.3,1.3,3.4,1.7,6.5c0.2,2.1,0.5,5.1,0.7,9.2c0.2,4.1,0.4,8.6,0.4,13.7c0.1,5.1,0.1,10.5,0.1,16.2c0,5.7-0.1,11.3-0.2,16.8
	c-0.1,5.5-0.3,10.6-0.5,15.5c-0.2,4.9-0.5,8.9-0.9,12.1c-0.1,2.3-0.4,4.3-0.9,6.2c-0.3,1.6-0.9,3-1.5,4.2c-0.7,1.2-1.5,1.8-2.4,1.8
	c-2.7,0-4.4-1.7-5.1-5.1c-0.6-3.4-0.8-8.8-0.6-16.2c0-2.1,0.1-5,0.2-8.7c0.1-3.8,0.2-8,0.3-12.7c0.1-4.7,0.2-9.6,0.3-14.8
	c0.2-5.2,0.3-10.3,0.5-15.2c0.2-5,0.4-9.6,0.7-14c0.3-4.3,0.7-7.9,1.1-10.8c-0.7,2.2-1.3,4.4-1.9,6.7c-0.6,1.9-1.1,4.2-1.6,6.7
	c-0.5,2.5-1,4.9-1.5,7.2c-0.7,3.7-1.3,7.4-1.7,11.1c-0.6,3.2-1.1,6.6-1.5,10.2s-0.8,6.9-1,10c-0.2,2.2-0.5,4.3-0.7,6.3
	s-0.5,3.9-0.7,5.6c-0.1,0.8-0.3,1.5-0.5,2.1C86.2,119.8,85.7,120.8,85,121.5z M150.7,119.3c1.6,0.3,1.9,2.3,1,5.8
	c-0.2,0.8-0.5,1.6-0.7,2.4c-0.2,0.7-0.4,1.4-0.6,2.1c-0.2,0.7-0.4,1.3-0.6,1.8c-1.3,3.8-3.1,7.4-5.5,11c-2.4,3.5-5.5,5.9-9.4,7.2
	c-3,0.9-6.2,1-9.6,0.2c-1.9-0.5-3.6-1.3-5-2.6c-1.4-1.3-2.5-2.8-3.4-4.5c-0.9-1.8-1.6-3.7-2.1-5.8c-0.5-2.1-0.9-4.2-1.1-6.4
	c-0.6-5-0.6-10.7,0-17c0.7-4.6,1.7-8.4,3.1-11.6c1.1-2.7,2.7-5.1,4.8-6.9c2.1-1.9,4.6-2.2,7.7-0.9c1.9,0.8,3.4,2.3,4.4,4.5
	c1,2.2,1.6,4.7,1.9,7.5c0.3,2.8,0.2,5.7-0.3,8.8c-0.5,3.1-1.1,6-2,8.6c-0.9,2.7-1.9,5-3.3,7c-1.3,2-2.7,3.2-4.2,3.7
	c0.3,2.7,0.9,5.2,1.8,7.3c0.9,2.1,2.1,3.3,3.9,3.5c1.8,0.1,3.5-0.2,5-1c1.5-0.8,2.8-1.9,3.9-3.3c1.1-1.4,2.2-2.9,3.1-4.5
	c0.9-1.6,1.7-3.1,2.2-4.6c0.2-0.6,0.4-1.2,0.6-1.8c0.2-0.6,0.4-1.2,0.6-1.8c0.2-0.7,0.5-1.4,0.7-2.2c0.2-1.3,0.6-2.3,1-3.3
	c0.2-0.8,0.5-1.5,0.9-2.1C150,119.6,150.4,119.3,150.7,119.3z M125.4,120.5c-0.1,0.8-0.2,1.7-0.2,2.6c0,0.8,0,1.7,0,2.7
	c0,1,0.1,2.2,0.2,3.4c1.1-0.9,2.3-2.7,3.5-5.2c1.2-2.6,1.9-6.5,2.1-11.9c0-1.8-0.1-3.5-0.2-5c-0.1-1.3-0.3-2.5-0.5-3.8
	c-0.2-1.3-0.6-2.1-1.2-2.6c-0.5,0-0.9,0.7-1.4,2.1c-0.5,1.3-0.9,3.2-1.3,5.9C126.1,111.4,125.7,115.4,125.4,120.5z M188.1,119.3
	c1.7,0.3,2.1,2.3,1,5.8c-0.3,0.9-0.9,2.9-1.6,6c-0.7,3.1-1.8,6.3-3.2,9.5c-1.4,3.3-3.1,6.2-5.1,8.7c-2,2.6-4.3,3.8-6.9,3.7
	c-6.1-0.3-9.8-6.3-11.3-17.8c-1.5-11.5-0.8-27.9,2.1-49c0-0.2,0.1-0.6,0.2-1c0.1-0.2,0.2-0.5,0.2-0.9c0-0.4,0.1-0.8,0.3-1.3
	c-1.1,0.1-2.4,0.2-3.7,0.3c-1.3,0.1-2.5,0-3.7-0.3c0.3,3.3,0.4,7.1,0.1,11.4c-0.3,4.3-0.7,8.4-1.3,12.2c-0.6,3.9-1.1,7.3-1.7,10.2
	c-0.6,2.9-0.9,4.7-1,5.4c-0.7,3.7-1.9,5.3-3.6,4.8c-0.3-0.1-0.5-0.5-0.6-1.2c-0.1-0.7,0-1.5,0.3-2.4c0.1-1,0.3-2.2,0.7-3.4
	c1.1-5.5,1.9-10.5,2.2-15c0.3-4.5,0.5-8.4,0.4-11.7c-0.1-3.3-0.3-6-0.6-8c-0.3-2.1-0.7-3.4-1-3.9c-0.8-1-1.3-1.9-1.5-2.7
	c-0.2-0.7-0.3-1.4-0.3-2s0.1-1,0.2-1.4c0.2-0.6,0.6-0.9,1-1.1c0.5-0.2,0.9-0.3,1.2-0.3c0.5,0,0.9,0.1,1.4,0.2
	c0.8,0.2,1.6,0.9,2.4,1.9c1,0.6,2.5,1.1,4.4,1.6c1.9,0.5,4.3,0.8,7.1,0.9c0.3,0,1,0.1,1.9,0.3c1.6,0.5,2.9,1.3,3.9,2.6
	c0.7,1.3,1.3,2.9,1.7,5c0.5,2.1,0.4,4.7-0.2,8.1c-0.7,4.1-1.2,8.9-1.6,14.3c-0.4,5.4-0.7,10.7-0.8,15.8c-0.1,5.1-0.1,9.7,0.2,13.7
	c0.2,4,0.6,6.7,1.2,8c0.3,0.8,0.9,1.4,1.6,1.8c0.7,0.4,1.7,0,2.7-1.2c1.1-1.2,2.3-3.4,3.7-6.7c1.4-3.3,2.9-8.1,4.6-14.6
	c0.3-1.3,0.7-2.3,1-3.3c0.2-0.8,0.5-1.5,0.9-2.1C187.2,119.6,187.6,119.3,188.1,119.3z M191.3,150.1c-1.1-0.2-2-0.6-2.7-1.2
	s-1.1-1.2-1.5-1.9c-0.5-0.8-0.7-1.7-0.9-2.6c-0.3-2.3-0.6-5.6-0.9-9.9c-0.2-4.3-0.3-8.9-0.3-13.7c0-4.8,0.1-9.4,0.3-13.9
	c0.2-4.4,0.4-8,0.8-10.6c0.1-1.1,0.4-2.2,0.9-3.3c0.3-0.8,0.8-1.5,1.3-2.2c0.5-0.7,1.2-1,2.1-1c2.3,0,3.9,0.9,4.9,2.6
	c1,1.7,1.3,4.6,1.1,8.7c-0.1,1.8-0.1,4.8,0,8.9c0.1,4.1,0.1,8.6,0,13.4c0.7-4.1,1.5-8.3,2.3-12.6c0.9-4.3,1.9-8.1,3.1-11.6
	c1.2-3.4,2.5-6.2,3.9-8.5c1.4-2.2,2.9-3.4,4.6-3.5c2.1-0.2,3.9,0.3,5.7,1.7c1.5,1.3,2.9,3.3,4.2,6.2c1.3,2.9,2.1,7.3,2.3,13.3
	c1.1-3.9,2.5-7.1,4.1-9.8c1.6-2.6,3.5-4,5.6-4.1c2.6-0.1,4.9,0.6,7,2.1c1.7,1.4,3.2,3.7,4.6,6.9c1.4,3.3,1.9,8.1,1.7,14.6
	c-0.1,1.4-0.2,2.7-0.2,3.9s0,2.3,0,3.3c-0.1,3-0.2,5.5-0.2,7.7c0,2.2,0,3.6,0,4.3c0.1,0.9,0.5,1.8,1.2,2.7c0.7,0.9,1.6,1.2,2.7,0.9
	c1.1-0.3,2.5-1.7,4-3.9c1.5-2.3,3.2-6.1,5.1-11.5c0.2-1.3,0.5-2.3,0.9-3.3c0.2-0.8,0.5-1.5,0.9-2.1c0.4-0.6,0.8-0.9,1.1-0.9
	c1.9,0.3,2.3,2.3,1,5.8c-0.2,0.9-0.7,2.5-1.5,4.9c-0.8,2.3-1.9,4.8-3.3,7.3c-1.4,2.5-3.1,4.7-5.1,6.5c-2,1.8-4.3,2.7-6.9,2.6
	c-4.3-0.2-7.2-2.6-8.6-7.2c-1.4-4.6-2.1-12.3-2.1-23.1v-0.2V113c0-4-0.4-6.7-1.1-8.2c-0.7-1.5-1.5-2.2-2.4-2.1
	c-1.5,0.2-2.8,2.3-4.1,6.2c-1.2,3.9-2.5,9.2-3.9,16.1c-0.1,0.9-0.3,2-0.4,3.2c-0.2,1.2-0.3,2.5-0.4,4c-0.5,5.4-2.3,7.9-5.7,7.7
	c-1.5-0.1-2.5-0.9-3.1-2.2c-0.6-1.4-0.9-2.3-1-2.9c-0.8-4.6-1.1-10.8-1-18.8v-0.2V113c0-2.1,0-4.1-0.1-6.2c-0.1-2.1-0.2-3.9-0.3-5.6
	c-0.2-1.7-0.4-3.1-0.7-4.2c-0.3-1.1-0.7-1.6-1.1-1.6c-1,0.1-2.1,1.6-3.1,4.4c-1,2.9-2,6.7-3,11.4c-1,4.7-2,10.1-3,16.2
	c-1,6.1-2.1,12.3-3.1,18.8c-0.3,0.9-0.7,1.7-1.2,2.2c-0.5,0.6-1.1,1.1-1.8,1.5C193.2,150.3,192.3,150.3,191.3,150.1z M312.5,119.3
	c1.7,0.3,2.1,2.3,1,5.8c-0.2,0.6-0.5,1.7-0.9,3.3c-0.4,1.7-0.9,3.5-1.5,5.7c-0.6,2.1-1.4,4.3-2.3,6.6c-0.9,2.3-2,4.4-3.2,6.2
	c-1.2,1.9-2.5,3.4-4,4.5c-1.5,1.1-3.1,1.7-4.8,1.5c-2.7-0.2-4.9-1.2-6.6-3c-1.7-1.8-2.9-4.9-3.9-9.3c-1,2.1-2.5,3.8-4.4,5.2
	c-1.9,1.4-4.5,2.1-7.8,2c-3.3-0.1-6.1-1-8.2-2.7c-2.2-1.7-3.9-3.8-5.2-6.2c-1.3-2.5-2.2-5-2.7-7.5c-0.5-2.6-0.8-4.8-0.8-6.6
	c0.1-5.1,0.8-9.8,2.1-14c1.1-3.7,3-7,5.6-10c2.6-3,6.3-4.8,11.2-5.4c1-0.1,2.2-0.1,3.4,0.2c0.9,0.2,2,0.5,3.2,0.9
	c1.2,0.4,2.3,1.1,3.2,2.1c0-0.5,0.1-1.3,0.3-2.5c0.2-1.2,0.4-2.4,0.8-3.6c0.3-1.2,0.9-2.2,1.5-3c0.7-0.8,1.5-1.1,2.6-1
	c2.1,0.3,3.6,1.7,4.5,4.1c1,2.4,1.5,5,1.5,7.7c0,0.9,0,2.6-0.1,5.1c-0.1,2.5-0.1,5.4-0.2,8.6c-0.1,3.2-0.1,6.6-0.2,10.1
	c-0.1,3.5-0.1,6.8-0.1,9.9c0,3.1,0,5.8,0.1,8c0.1,2.3,0.1,3.7,0.3,4.3c0.1,0.9,0.5,1.6,1.3,2c0.7,0.4,1.7,0,2.8-1.2
	c1.1-1.2,2.5-3.5,3.9-6.8c1.5-3.3,3.1-8.2,4.8-14.7c0.2-1.3,0.5-2.3,0.9-3.3c0.2-0.8,0.5-1.5,0.9-2.1
	C311.8,119.6,312.2,119.3,312.5,119.3z M287.4,121.4c0.1-2.3,0.1-4.4-0.1-6.3c-0.2-1.9-0.4-3.6-0.6-5.1c-0.3-1.7-0.7-3.3-1.2-4.6
	c-0.5-1.4-1-2.6-1.7-3.8c-0.7-1.1-1.6-1.9-2.7-2.4c-1.4-0.6-2.7-0.3-3.9,0.8c-1.3,1.1-2.4,2.8-3.3,5.1c-1,2.3-1.8,5.1-2.6,8.5
	c-0.7,3.4-1.3,7-1.8,10.9c-0.6,5-0.6,8.9-0.1,11.6c0.5,2.7,1.2,4.7,2,6c0.9,1.5,2.1,2.4,3.4,2.7c1.4,0,2.6-0.3,3.8-0.9
	c1.1-0.6,2.1-1.5,3-2.5s1.6-2.2,2.2-3.5c0.6-1.3,1.2-2.6,1.6-3.9c0.7-2.3,1.2-4.5,1.5-6.7S287.3,123.2,287.4,121.4z M316.3,91.2
	c0.9,0.6,2,1.9,3.3,4c1.3,2.1,1.8,5.7,1.7,10.7c-0.1,3.1-0.2,6.3-0.3,9.7c-0.1,3.4-0.1,6.6-0.3,9.6c-0.1,3-0.2,5.7-0.2,7.9
	s0.1,3.7,0.2,4.4c0,0.9,0.3,1.8,1,2.7c0.7,0.9,1.6,1.2,2.7,0.9c1.1-0.3,2.5-1.7,4-3.9c1.5-2.3,3.2-6.1,5.1-11.5
	c0.2-1.3,0.5-2.3,0.9-3.3c0.2-0.8,0.5-1.5,0.9-2.1c0.4-0.6,0.8-0.9,1.1-0.9c1.9,0.3,2.3,2.3,1,5.8c-0.2,0.9-0.7,2.5-1.5,4.9
	c-0.8,2.3-1.9,4.8-3.3,7.3c-1.4,2.5-3,4.7-5,6.5c-1.9,1.8-4.3,2.7-7,2.6c-2.6-0.1-4.7-1.1-6.3-2.8c-1.5-1.8-2.7-4.5-3.4-8.2
	c-0.7-3.7-1.1-8.6-1.2-14.6c-0.1-6,0.1-13.4,0.4-22.2c0-1.5,0.2-2.9,0.5-4.1c0.2-1,0.6-2,1.1-2.8c0.5-0.9,1.3-1.2,2.5-1.1
	c0.2,0.1,0.5,0.2,0.7,0.2c0.2,0.1,0.4,0.2,0.6,0.2C315.9,90.9,316.1,91,316.3,91.2z M317.3,89c-0.1,0-0.3-0.1-0.5-0.2
	c-0.2-0.1-0.6-0.6-1.2-1.5c-0.1-0.1-0.3-0.4-0.5-0.9c-0.3-0.9-0.7-2-1.2-3.3c-0.5-1.3-0.7-2.5-0.9-3.9c-0.1-1.3,0-2.5,0.3-3.5
	s0.9-1.8,2-2.4c1-0.6,1.9-0.3,2.7,0.7c0.7,1,1.3,2.4,1.5,4.1c0.3,1.7,0.4,3.5,0.3,5.3c-0.1,1.8-0.3,3.3-0.8,4.3
	C318.7,88.8,318.1,89.2,317.3,89z M389.6,119.3c1.7,0.3,2.1,2.3,1,5.8c-0.2,0.9-0.7,2.9-1.5,6.1s-1.9,6.4-3.3,9.7s-3.1,6.2-5.1,8.8
	c-2,2.6-4.3,3.7-6.9,3.3c-1.3-0.1-2.5-0.4-3.6-0.8c-1.1-0.4-2.1-1.2-3-2.4c-0.9-1.2-1.8-2.9-2.5-5.1c-0.8-2.2-1.3-5.2-1.7-9
	c-0.9,2.6-2.3,4.8-4.1,6.5c-1.8,1.7-4.7,2.5-8.7,2.4c-3.3-0.1-6.1-1.3-8.3-3.4c-2.2-2.2-4-4.8-5.2-7.8c-1.3-3-2.1-6.2-2.7-9.4
	c-0.5-3.3-0.8-6-0.8-8.3c0-5.5,0.6-10.4,1.9-14.7c0.5-1.8,1.1-3.6,2.1-5.4c0.9-1.8,2-3.4,3.3-4.8c1.3-1.4,2.8-2.6,4.5-3.5
	c1.8-0.9,3.9-1.4,6.3-1.5c1.5-0.1,2.9,0.1,4.3,0.5c1.3,0.3,2.5,1,3.9,1.9c1.3,0.9,2.5,2.2,3.5,3.9c0-6.3,0.1-12.3,0.3-18.1
	c0.2-5.8,0.5-10.5,0.9-14.3c0.1-2.1,0.4-3.9,0.9-5.5c0.3-1.4,0.8-2.6,1.4-3.7c0.6-1.1,1.4-1.5,2.4-1.3c1.5,0.3,2.7,0.9,3.6,1.6
	c0.9,0.7,1.5,1.8,1.8,3.2c0.3,1.4,0.5,3.1,0.5,5.3c0,2.2-0.1,4.9-0.2,8c-0.1,1.9-0.2,4.8-0.2,8.5c0,3.7,0,7.9,0,12.5
	c0,4.6,0,9.5-0.1,14.6c-0.1,5.1-0.2,10-0.4,14.6c0,2.6,0,5.5-0.1,8.6c-0.1,3.1-0.1,6-0.2,8.7c-0.1,2.7-0.1,5.2,0,7.3
	c0.1,2.1,0.1,3.5,0.3,4.2c0.1,0.9,0.5,1.6,1.3,2c0.7,0.4,1.7,0,2.8-1.2c1.1-1.2,2.5-3.5,3.9-6.8c1.5-3.3,3.1-8.2,4.8-14.7
	c0.2-1.3,0.5-2.3,0.9-3.3c0.2-0.8,0.5-1.5,0.9-2.1C388.9,119.6,389.3,119.3,389.6,119.3z M359.8,133.9c0.5-0.9,0.9-1.9,1.2-2.9
	c0.3-1,0.6-2,0.9-2.9c0.2-1,0.4-2.1,0.5-3.1c0.2-1.9,0.4-3.9,0.5-5.8c0.1-1.9,0.2-3.7,0.2-5.3c0-1.8-0.1-3.5-0.3-5
	c0-0.5-0.1-1.6-0.3-3.3c-0.2-1.8-0.6-3.7-1-5.7s-1.1-3.9-2-5.7c-0.9-1.8-1.9-3-3.2-3.7c-2.9-1.3-5.3,0.1-7.3,4
	c-2,3.9-3.2,10.9-3.6,20.8c-0.3,5.9-0.3,10.6,0.3,13.9c0.5,3.3,1.2,5.8,2,7.4c0.9,1.9,2,3.1,3.1,3.4c2,0.6,3.7,0.2,5.3-1.1
	C357.4,137.6,358.7,135.9,359.8,133.9z M176.5,229.8c-1.3,0-2.2-0.5-2.6-1.5c-0.5-1-0.7-2.4-0.7-4.2v-11c0-1-0.6-1.6-1.9-1.6l-14,0
	c-1.2,0-1.8,0.5-1.8,1.5v9.2c0,2-0.3,3.6-1,4.8c-1,1.8-2.5,2.7-4.7,2.7c-1.6,0-2.8-0.4-3.5-1.2c-0.6-0.6-1-1.3-1.3-2.1
	c-0.3-1.1-0.4-2.6-0.4-4.5v-54c0-1.3,0.1-2.5,0.3-3.7c0.4-2.7,2.1-4.1,4.9-4.1c2,0,3.4,0.7,4.3,2c0.9,1.3,1.4,3.1,1.4,5.4v36.1
	c0,1.3,0.6,2,1.8,2l14,0c1.3,0,1.9-0.7,1.9-2v-37.8c0-1.8,0.2-3.3,0.7-4.3c0.5-1,1.3-1.5,2.6-1.5c2.5,0,3.8,1.9,3.8,5.7V224
	C180.3,227.8,179,229.8,176.5,229.8z M199.4,218.1c-0.2,1.9-0.4,3.6-0.6,5c-0.5,4.4-2.7,6.6-6.7,6.6c-3.3,0-5-1.8-5-5.3
	c0-0.8,0.3-3.3,0.8-7.5c0.5-4.2,1.4-9.8,2.5-16.8c1.9-12,4.2-21.9,6.8-29.8c2.2-6.8,5.3-10.2,9.3-10.2c3.2,0,5.9,1.9,7.9,5.6
	c1.3,2.4,2.5,5.8,3.7,10.2c3.2,11.9,5.9,26,8,42.4c0.3,2.1,0.4,3.9,0.4,5.3c0,1.6-0.2,2.9-0.5,3.8c-0.6,1.5-1.7,2.3-3.4,2.3
	c-2.1,0-3.2-1.4-3.6-4.2c-0.4-3.9-0.9-7.9-1.4-11.9c-0.2-1.4-1.1-2.1-2.6-2.1h-12.5c-1.4,0-2.2,0.8-2.5,2.3
	C199.8,214.8,199.7,216.2,199.4,218.1z M214.3,205.7c1.3,0,1.9-0.6,1.9-1.8c0-0.3-0.4-3.4-1.3-9.3c-2.5-15.7-4.5-23.6-6-23.6
	c-1,0-2.9,7.8-5.6,23.4c-1.1,6.1-1.6,9.3-1.6,9.6c0,1.1,0.6,1.7,1.9,1.7H214.3z M248.6,229h-15c-2.2,0-3.3-0.8-3.3-2.3
	c0-2,1.2-3,3.6-3c0.8,0,1.4-0.1,1.7-0.4c0.3-0.2,0.5-0.6,0.5-1.2v-54.5c0-1-0.5-1.5-1.4-1.6c-1.3-0.1-2.3-0.2-2.8-0.5
	c-1-0.5-1.6-1.4-1.6-2.5c0-1.4,1.2-2.1,3.6-2.1h15.2c2.4,0,3.6,0.7,3.6,2.1c0,1.2-0.5,2-1.6,2.5c-0.5,0.3-1.5,0.4-3,0.5
	c-0.8,0.1-1.3,0.5-1.3,1.2v55.2c0,0.7,0.4,1.1,1.1,1.2c1.3,0.1,2.2,0.2,2.7,0.5c1,0.6,1.5,1.4,1.5,2.5
	C252.2,228.2,251,229,248.6,229z M286.5,229.8c-2,0-4.1-1.7-6.3-5.1c-2.4-3.6-5.2-8.2-8.6-13.9c-0.6-0.8-1-1.2-1.2-1.2
	c-0.3,0-0.4,0.5-0.4,1.6v11.1c0,5-1.9,7.5-5.7,7.5c-1.7,0-2.9-0.4-3.6-1.1s-1.2-1.7-1.4-2.9c-0.2-1.2-0.3-2.4-0.3-3.8v-54
	c0-5.2,2.6-7.8,7.8-7.8c6,0,11.1,1.5,15.5,4.5c5.1,3.5,7.6,8.9,7.6,16.1c0,5.2-0.9,10-2.7,14.3c-2.1,5.2-5.4,9.2-9.8,11.9
	c-0.2,0.1-0.4,0.3-0.4,0.5c0,0.3,1.1,1.7,3.2,4.2c0.8,1,1.6,1.9,2.2,2.8c5.1,6.4,7.6,10.4,7.6,11.9c0,1.1-0.3,2-1,2.5
	C288.5,229.5,287.6,229.8,286.5,229.8z M271.3,203.7c1.2,0,2.8-1.2,4.9-3.5c2.1-2.3,3.6-5.1,4.6-8.2c1.2-3.5,1.8-7.2,1.8-10.9
	c0-2.5-0.4-4.9-1.2-7c-1.7-4.6-5-6.8-9.8-6.8c-1,0-1.6,0.5-1.6,1.5v33.4C270,203.2,270.4,203.7,271.3,203.7z M84.1,312.3
	c-0.1,0.7-0.2,1.3-0.3,2c-0.1,0.6-0.2,1.2-0.4,1.8c-0.2,0.7-0.3,1.3-0.6,2c0.9-0.1,1.8-0.2,2.6-0.2c0.9-0.1,1.7-0.1,2.5-0.1
	c2.2-0.1,3.9,0,5.2,0.3c1.3,0.3,1.9,0.5,1.9,0.7v0.2c0,0.2-0.2,0.4-0.5,0.5c-0.2,0.1-0.8,0.3-1.8,0.7c-0.6,0.2-1.1,0.4-1.7,0.4
	c-0.6,0.1-1.2,0.1-1.7,0.2c-0.7,0.1-1.3,0.2-2,0.2c-1.2,0.2-2.1,0.4-2.7,0.5c-0.6,0.1-1.1,0.2-1.6,0.3c-0.4,0.1-0.8,0.2-1,0.2
	c-0.7,2.5-1.5,5-2.4,7.4c-0.9,2.1-1.9,4.3-3.2,6.5c-1.3,2.3-2.7,4.3-4.4,6.2c-1.1,1.1-2.3,2.1-3.5,3c-1.1,0.8-2.3,1.5-3.7,2.1
	c-1.4,0.7-2.8,0.9-4.4,0.8c-1.3,0-2.4-0.2-3.3-0.6c-0.9-0.4-1.6-0.8-2.2-1.2c-0.6-0.4-1-1-1.3-1.8c-0.8-1.5-1-3.1-0.7-4.7
	c0.3-1.6,0.7-3.1,1.4-4.5c0.8-1.7,1.8-3.2,3-4.8c1.7-2.2,3.9-4.2,6.6-6c1-0.6,2-1.1,3.1-1.7c0.9-0.4,1.8-0.9,2.9-1.3
	c1-0.4,2.1-0.8,3.1-1c0.5-3.2,0.9-6.3,1.2-9.3c0.2-3,0.4-5.8,0.7-8.2c0.2-2.9,0.3-5.6,0.3-8.1c0-1.3-0.1-3.2-0.2-5.7
	c-0.1-2.5-0.3-5.2-0.7-8.1c-0.3-2.9-0.7-5.9-1.2-9c-0.4-3.1-1-5.9-1.7-8.5c-0.7-2.6-1.5-4.7-2.4-6.3c-0.9-1.6-1.9-2.5-3.1-2.6
	c-1-0.1-1.9,0.1-2.8,0.6c-0.9,0.5-1.7,1.2-2.4,2c-0.7,0.8-1.4,1.7-1.9,2.6c-0.6,0.9-1,1.7-1.3,2.5c-0.3,0.7-0.6,1.4-0.9,2.1
	c-0.3,0.7-0.5,1.5-0.7,2.2c-0.4,1.2-0.8,2.4-1.2,3.5c-0.3,1.1-0.7,2.2-1,3.3c-0.2,0.8-0.4,1.5-0.5,2.2c-0.1,0.7-0.3,1.4-0.5,2.1
	c0.1,4.1,0.2,8.6,0.2,13.5s0,9.8-0.1,14.7c-0.1,4.9-0.2,9.6-0.4,14.1c-0.2,4.5-0.5,8.2-0.8,11.3c-0.1,2-0.3,3.7-0.7,5.3
	c-0.2,1.3-0.6,2.5-1.2,3.6c-0.6,1.1-1.2,1.7-2,1.7c-2.2,0-3.8-1.4-4.9-4.3c-1-2.9-1.5-7.5-1.2-13.9c0.1-2.3,0.1-5.9,0.1-10.7
	c-0.1-4.8,0-10,0.1-15.6c0.1-5.6,0.3-11.3,0.5-17c0.2-5.7,0.6-10.7,1.2-15c0.4-3.2,1-5.2,1.7-6c0.7-0.8,1.6-1.2,2.6-1.3
	c0.7-0.1,1.3,0.1,1.8,0.5c0.6,0.3,1,0.9,1.4,1.7c0.4,0.8,0.7,2,0.9,3.6c0.1,0.3,0.2,0.9,0.2,1.8c0.3-2.2,1-4.3,2-6.3
	c0.9-1.8,2-3.6,3.4-5.5c1.4-1.9,3.2-3.5,5.5-4.8c1.2-0.8,2.5-1.3,4-1.5c1.2-0.2,2.6-0.1,4.2,0.5c1.6,0.6,3.2,1.7,4.9,3.5
	c1.2,1.8,2.3,3.7,3.4,5.8c0.9,1.9,1.8,4.1,2.8,6.6c1,2.5,1.7,5.3,2.3,8.4c0.5,3.6,1,7.6,1.3,11.9c0.2,3.6,0.2,7.9,0.1,12.7
	C85.6,301.8,85.1,306.9,84.1,312.3z M57.9,336.6c-0.4,1.1-0.8,2.1-1,3.1c-0.2,0.9-0.3,1.7-0.2,2.6c0.1,0.8,0.6,1.5,1.5,1.9
	c0.2,0.1,0.6,0.2,1,0.3c0.4,0.1,1,0.1,1.7-0.2c2.9-0.7,5.2-2.9,7-6.6c1.8-3.7,3.2-8,4.2-12.9c-0.8,0.3-1.5,0.7-2.3,1
	s-1.5,0.8-2.3,1.3c-1.9,1-3.4,2.1-4.6,3.2c-1.2,1.2-2.2,2.2-3,3.1C59,334.6,58.4,335.6,57.9,336.6z M140,302.4
	c0.1,0.2,0.1,0.5,0,0.8c-0.2,0.8-0.7,1.4-1.5,1.8c-4.9,2.9-10,4.7-15.5,5.6c-0.1,3-0.4,6.8-0.9,11.3c-0.5,4.6-1.4,9-2.7,13.3
	c-1.3,4.3-3.2,8-5.7,11c-2.5,3-5.8,4.4-9.8,4.2c-2.9-0.1-5.3-0.9-7.3-2.2c-2-1.4-3.6-3.1-4.7-5.1c-1.2-2-2-4.3-2.5-6.8
	c-0.5-2.5-0.8-4.9-1-7.2c-0.2-2.3-0.1-4.4,0.1-6.3c0.2-1.9,0.4-3.3,0.7-4.3c0.4-2.1,1-4,1.7-5.6c0.6-1.4,1.4-2.7,2.4-3.8
	c1-1.1,2.3-1.6,3.9-1.5c2.5,0.2,3.8,1.4,3.8,3.6c0,2.2-0.3,5.2-0.8,9.1c-0.3,2.1-0.5,4.5-0.6,7.4c-0.1,2.8,0.1,5.5,0.3,8.2
	c0.3,2.6,0.8,4.9,1.5,6.7c0.7,1.8,1.7,2.8,2.9,2.9c1.4,0.1,2.8-0.6,4-2.1c1.2-1.5,2.2-3.8,3.1-6.8c0.8-3,1.5-6.6,2.1-10.9
	c0.6-4.3,0.9-9.1,1.2-14.4c-4.1-0.2-7.9-0.9-11.3-2.1c-3.5-1.2-6.3-2.7-8.5-4.5s-3.7-4.5-4.5-7.8c-0.8-3.3-0.8-6.5,0-9.6
	c0.8-3.1,2.6-5.7,5.2-7.7c2.6-2,6.4-2.8,11.2-2.4c3.9,0.3,6.9,1.8,9.1,4.4c2.2,2.6,3.9,5.5,5,8.6c1.1,3.1,1.8,6.2,2.1,9.1
	c0.3,2.9,0.5,4.9,0.5,5.9c2.6-0.2,5.2-0.6,7.7-1.1c2.5-0.5,4.7-1.3,6.5-2.4c0.3-0.1,0.7-0.2,1.2-0.3c0.3,0,0.6,0,0.9,0.1
	C139.7,301.5,139.9,301.8,140,302.4z M114.5,305.2c0-0.8,0-2.4-0.1-4.8c-0.1-2.4-0.3-5-0.8-7.7c-0.5-2.7-1.4-5.2-2.6-7.4
	c-1.2-2.3-3-3.7-5.3-4.2c-3.2-0.8-5.6-0.3-7.3,1.3s-2.6,3.8-2.8,6.3c-0.2,2.5,0.2,5.2,1.3,7.9c1.1,2.7,2.9,4.7,5.5,6
	c1.2,0.7,2.9,1.2,5,1.7C109.6,304.7,112,305,114.5,305.2z M147.9,321.8c-0.1-1.1-0.1-2.2-0.1-3.2c0.1-1,0.1-2,0.1-2.9v-3
	c-0.1-3.9-0.5-6.5-1.1-7.9c-0.6-1.4-1.4-2.1-2.4-2c-1.5,0.2-3.1,2.9-4.5,7.9c-1.5,5.1-3,12-4.5,20.8c-0.1,0.3-0.2,1-0.3,2
	c-0.1,1-0.2,2-0.3,3.1c-0.2,1.5-0.4,3-0.7,4.3c-0.2,1.3-0.5,2.5-0.8,3.5c-0.7,2.6-1.6,4-2.8,4c-0.7,0.1-1.3,0.1-1.8-0.2
	c-0.6-0.2-1.1-0.6-1.7-1.2c-0.6-0.6-0.9-1.4-1.2-2.6c-0.3-1.7-0.6-4.9-0.8-9.6c-0.2-4.7-0.4-9.9-0.4-15.5c-0.1-5.6,0-11,0.2-16.2
	c0.2-5.2,0.5-9.2,0.9-11.8c0.1-1.1,0.4-2.1,0.8-3c0.3-0.8,0.7-1.5,1.2-2.1c0.5-0.7,1.2-1,2.1-1c2.2,0,3.8,0.8,4.7,2.4
	c0.9,1.6,1.3,4.4,1.1,8.5v14.2c1.2-4.2,2.7-7.8,4.3-10.7c1.7-3,3.7-4.5,6-4.6c2.6-0.1,4.8,0.6,6.8,2c1.7,1.3,3.1,3.6,4.4,6.7
	s1.8,7.9,1.6,14.1c-0.1,1.3-0.2,2.6-0.2,3.8s0,2.3,0,3.1c-0.1,2.9-0.2,5.3-0.2,7.4c0,2.1,0.1,3.5,0.2,4.1c0,0.9,0.3,1.8,1,2.6
	c0.7,0.9,1.5,1.2,2.6,0.8c1.1-0.3,2.4-1.6,3.9-3.8c1.5-2.2,3.1-5.9,4.9-11.1c0.2-1.2,0.5-2.3,0.8-3.1c0.2-0.8,0.5-1.5,0.9-2.1
	c0.4-0.6,0.7-0.9,1.1-0.9c1.9,0.3,2.2,2.2,1,5.6c-0.2,0.9-0.7,2.5-1.5,4.7c-0.8,2.3-1.8,4.6-3.1,7c-1.3,2.4-2.9,4.5-4.8,6.3
	c-1.9,1.8-4.1,2.6-6.8,2.5c-3.8-0.2-6.5-2.1-8.1-5.6S148,329.9,147.9,321.8z M196,234.1c-3.8,13.7-10.9,31.6-15.5,39.2l-9.3,1
	c3.6-9.6,7.9-26.8,9.8-38.5L196,234.1z M170.4,271.3c-0.4,0-0.8-0.1-1-0.2c-0.8-0.2-1.5-0.6-2.1-1.1c-0.6-0.5-0.6-1.4,0.1-2.7
	c0.4-1,1-1.5,1.8-1.6c0.8-0.1,1.7,0.1,2.7,0.4c1,0.3,2.2,0.7,3.6,1.2c1.3,0.5,2.8,0.8,4.5,0.9h16c0.1-2.1,0.3-4.1,0.5-6.1
	c0.1-1.3,0.3-2.6,0.7-3.8c0.2-0.9,0.6-1.7,1.1-2.6c0.5-0.8,1.2-1.3,2-1.4c2.2-0.2,3.7,0.6,4.7,2.4c1,1.8,1.4,5.6,1.3,11.3
	c3.3-0.1,6.6-0.2,9.9-0.2s6.6,0,9.9,0c5.3,0.1,10.6,0.3,16,0.4c5.3,0.2,10.7-0.1,16-0.7c1.8-0.2,3,0,3.6,0.7
	c0.6,0.7,0.9,1.5,0.7,2.3c-0.1,0.8-0.4,1.6-0.9,2.2c-0.5,0.7-1,0.8-1.6,0.3c-0.6-0.3-1.4-0.6-2.6-0.9c-1.2-0.3-2.4-0.5-3.7-0.6
	c-1.3-0.1-2.6-0.2-3.8-0.3s-2-0.2-2.5-0.2c-3.5,0.1-7.1,0.1-10.6,0c-3.5-0.1-7.1-0.2-10.6-0.3c-3.3,0-6.6,0-9.9,0s-6.6,0.1-9.9,0.2
	c-0.1,3.8-0.1,9.2,0,16.3c0.1,7.1,0,14.8-0.3,23.1c0,1.3,0,3-0.1,5.1c-0.1,2.1-0.1,4.4-0.2,6.9c-0.1,2.5-0.1,5.1-0.2,7.8
	c-0.1,2.6-0.1,5.1-0.1,7.4s0,4.2,0.1,5.9c0.1,1.7,0.1,2.8,0.2,3.3c0.1,0.9,0.5,1.4,1.2,1.6c0.7,0.2,1.6-0.5,2.7-1.9
	c1.1-1.4,2.4-3.8,3.8-7.2c1.4-3.4,3-8.2,4.6-14.5c0.3-1.2,0.7-2.3,1-3.1c0.2-0.8,0.5-1.5,0.8-2.1c0.3-0.6,0.7-0.9,1.2-0.9
	c1.7,0.3,1.9,2.2,0.8,5.6c-0.2,0.9-0.7,3-1.5,6.3c-0.8,3.3-1.9,6.8-3.3,10.3c-1.4,3.6-3.1,6.8-5.1,9.6c-2,2.8-4.2,4.2-6.8,4.1
	c-1.7-0.1-3.3-0.7-4.6-1.8c-1.4-1.1-2.4-3.1-3.3-6c-0.8-2.9-1.4-7-1.8-12.2c-0.4-5.2-0.5-12-0.2-20.5l0.2-16.7c0-5.2,0-9.9,0-14.3
	c0-4.4,0.1-8.4,0.3-12c-3.9,0.1-7.7,0.2-11.7,0.2c-3.9,0-7.9,0-11.8,0H170.4z M280.7,347.1c-3.2-1.5-5.7-3.9-7.6-7
	c-1.9-3.1-3.3-6.3-4.3-9.3c-1.2-3.6-2-7.4-2.5-11.4c-0.6-5.3-0.8-10.2-0.8-14.8c0-4.6,0.1-8.5,0.3-11.8c0.3-3.9,0.7-7.4,1.2-10.8
	c-1,0-2.9-0.2-5.6-0.5c-0.7-0.1-1.5-0.2-2.4-0.4c-0.9-0.2-1.7-0.5-2.4-0.9c-0.7-0.4-1.1-1-1.4-1.7c-0.3-0.7-0.1-1.6,0.6-2.7
	c0.4-0.8,0.9-1.2,1.4-1.2c0.5,0,1,0.2,1.6,0.6c0.6,0.4,1.2,0.9,1.8,1.7s1.5,1.3,2.5,1.7c0.3,0.1,0.7,0.3,1.2,0.5
	c0.4,0.2,0.9,0.4,1.4,0.5c0.5,0.1,1.1,0.2,1.9,0.2c0.6-3.6,1.2-6.8,2.1-9.6c0.8-2.8,1.7-5.1,2.6-6.9c1-2.2,2.1-4.1,3.3-5.8
	c0.9-1.3,1.9-2.5,3.1-3.6c1.2-1.1,2.4-2.1,3.5-3c1.2-1,2.5-1.8,4-2.5c1.5-0.7,3.1-1.1,4.6-1.3c1.3-0.2,2.7-0.2,4.1,0.2
	c1.4,0.3,2.8,1.1,4,2.3c0.7,0.7,1.2,1.5,1.7,2.5c0.3,0.9,0.6,2,0.7,3.3c0.2,1.3,0.1,2.9-0.2,4.8c-0.3,1.4-0.7,2.9-1.2,4.3
	c-0.9,2.8-2.4,5.6-4.6,8.6c-1.3,1.4-2.9,2.8-4.6,4c-1.5,1-3.3,1.9-5.4,2.8c-2,0.9-4.4,1.4-7,1.7c-0.6,4.2-0.9,8.9-1,14.1
	c-0.4,9-0.2,17.1,0.7,24.1c0.3,3,0.9,5.9,1.6,8.9c0.7,2.9,1.7,5.5,2.8,7.7c1.2,2.2,2.6,4,4.3,5.4c1.7,1.4,3.7,2.1,6,2.1
	c1.7,0,3.1-0.4,4.5-1.2c1.3-0.8,2.5-1.9,3.6-3.2c1-1.3,2-2.7,2.8-4.2c0.8-1.5,1.5-2.9,2.1-4.2c0.2-0.6,0.4-1.1,0.6-1.7
	c0.2-0.6,0.4-1.2,0.6-1.7c0.2-0.7,0.4-1.4,0.7-2.2c0.2-1.2,0.5-2.3,0.8-3.1c0.2-0.8,0.5-1.5,0.9-2.1c0.4-0.6,0.7-0.9,1.1-0.9
	c1.8,0.3,2.1,2.2,1,5.6c-0.2,0.8-0.4,1.5-0.7,2.3c-0.2,0.7-0.4,1.4-0.6,2.1c-0.2,0.7-0.3,1.3-0.4,1.7c-1.3,3.6-3.1,7.2-5.5,10.6
	c-2.3,3.4-5.4,5.7-9.1,6.9c-1.3,0.4-2.9,0.7-4.8,0.7c-1.4,0.1-2.7,0.1-3.7-0.2c-1-0.2-2-0.4-2.9-0.7
	C282.4,347.6,281.5,347.3,280.7,347.1z M278.6,278.1c2.6-0.4,5-1.2,6.9-2.1c2-1,3.6-2.1,4.8-3.3c1.4-1.2,2.6-2.6,3.6-4.3
	c1.1-2,1.9-3.7,2.3-5.3c0.4-1.5,0.8-2.9,1-4.1c0.2-1.2,0.3-2.4,0.2-3.5c-0.1-0.9-0.3-1.7-0.7-2.3c-0.3-0.7-0.7-1.2-1.2-1.5
	c-0.4-0.4-1-0.7-1.7-0.8c-1-0.3-2-0.3-3,0.2c-0.4,0.2-0.9,0.4-1.3,0.7c-0.9,0.6-1.8,1.4-2.8,2.6c-1,1.2-2,2.8-3,4.8
	c-1,2-2,4.6-2.9,7.8C280,269.9,279.2,273.7,278.6,278.1z M356.5,318.8c1.7,0.3,2,2.2,1,5.6c-0.2,0.6-0.5,1.6-0.9,3.2
	c-0.4,1.6-0.9,3.4-1.5,5.5c-0.6,2-1.4,4.2-2.2,6.4c-0.9,2.2-1.9,4.2-3.1,6c-1.2,1.8-2.5,3.3-3.9,4.4c-1.4,1.1-3,1.6-4.6,1.5
	c-2.6-0.2-4.8-1.2-6.4-2.9c-1.6-1.7-2.8-4.7-3.7-9c-1,2-2.4,3.7-4.2,5c-1.8,1.4-4.3,2-7.5,1.9c-3.2-0.1-5.8-1-7.9-2.6
	c-2.1-1.7-3.8-3.7-5-6c-1.3-2.4-2.1-4.8-2.6-7.3c-0.5-2.5-0.7-4.6-0.7-6.4c0.1-5,0.8-9.5,2-13.6c1.1-3.5,2.9-6.8,5.4-9.7
	c2.5-2.9,6.1-4.7,10.8-5.2c1-0.1,2.1-0.1,3.3,0.2c0.9,0.2,1.9,0.5,3.1,0.9c1.2,0.4,2.2,1.1,3.1,2.1c0-0.4,0.1-1.2,0.3-2.4
	c0.2-1.2,0.4-2.3,0.7-3.5c0.3-1.2,0.8-2.1,1.5-2.9c0.7-0.8,1.5-1.1,2.5-1c2,0.3,3.4,1.7,4.4,4c0.9,2.3,1.4,4.8,1.4,7.4
	c0,0.9,0,2.5-0.1,5c-0.1,2.4-0.1,5.2-0.2,8.3c-0.1,3.1-0.1,6.3-0.2,9.8c-0.1,3.4-0.1,6.6-0.1,9.6s0,5.6,0.1,7.8
	c0.1,2.2,0.1,3.6,0.3,4.1c0.1,0.9,0.5,1.5,1.2,1.9c0.7,0.4,1.6,0,2.7-1.2c1.1-1.2,2.4-3.3,3.8-6.5c1.4-3.2,3-7.9,4.6-14.2
	c0.2-1.2,0.5-2.3,0.8-3.1c0.2-0.8,0.5-1.5,0.9-2.1C355.8,319.1,356.1,318.8,356.5,318.8z M332.2,320.8c0.1-2.2,0.1-4.2-0.1-6
	c-0.2-1.8-0.4-3.4-0.6-4.9c-0.3-1.7-0.7-3.1-1.2-4.5c-0.4-1.3-1-2.5-1.7-3.6c-0.7-1.1-1.5-1.9-2.6-2.3c-1.3-0.6-2.6-0.3-3.8,0.7
	c-1.2,1-2.3,2.7-3.2,4.9c-0.9,2.2-1.8,4.9-2.5,8.2c-0.7,3.3-1.3,6.8-1.7,10.5c-0.6,4.9-0.6,8.6-0.1,11.2c0.5,2.6,1.1,4.6,1.9,5.8
	c0.9,1.4,2,2.3,3.3,2.6c1.3,0,2.5-0.3,3.6-0.9c1.1-0.6,2.1-1.4,2.9-2.4c0.8-1,1.5-2.1,2.1-3.4c0.6-1.3,1.1-2.5,1.6-3.7
	c0.7-2.2,1.1-4.4,1.4-6.5C331.9,324.5,332,322.5,332.2,320.8z M387.9,318.8c1.7,0.3,2,2.2,1,5.6c-0.3,0.9-0.9,2.8-1.6,5.8
	c-0.7,3-1.7,6-3.1,9.2c-1.3,3.1-3,6-4.9,8.4c-1.9,2.5-4.2,3.7-6.7,3.6c-5.8-0.3-9.5-6.1-10.9-17.2c-1.4-11.1-0.8-26.9,2-47.3
	c0-0.2,0.1-0.6,0.2-1c0.1-0.2,0.2-0.5,0.2-0.9c0-0.4,0.1-0.8,0.3-1.2c-1.1,0.1-2.3,0.2-3.6,0.2c-1.3,0.1-2.5,0-3.6-0.2
	c0.3,3.2,0.4,6.9,0.1,11c-0.3,4.1-0.7,8.1-1.2,11.8c-0.6,3.8-1.1,7-1.7,9.8c-0.6,2.8-0.9,4.5-1,5.2c-0.7,3.5-1.8,5.1-3.5,4.6
	c-0.3-0.1-0.5-0.5-0.6-1.2c-0.1-0.7,0-1.4,0.2-2.3c0.1-1,0.3-2.1,0.7-3.3c1.1-5.3,1.8-10.1,2.1-14.5c0.3-4.4,0.5-8.1,0.4-11.3
	c-0.1-3.2-0.2-5.8-0.6-7.8c-0.3-2-0.7-3.3-1-3.8c-0.8-1-1.3-1.8-1.5-2.6c-0.2-0.7-0.3-1.4-0.3-1.9c0-0.6,0.1-1,0.2-1.3
	c0.2-0.6,0.6-0.9,1-1.1c0.4-0.2,0.8-0.2,1.2-0.2c0.4,0,0.9,0.1,1.3,0.2c0.8,0.2,1.5,0.8,2.3,1.8c1,0.6,2.4,1.1,4.2,1.6
	c1.8,0.5,4.1,0.8,6.9,0.9c0.3,0,0.9,0.1,1.8,0.3c1.5,0.4,2.8,1.3,3.8,2.5c0.7,1.2,1.2,2.8,1.7,4.8c0.4,2,0.4,4.6-0.2,7.8
	c-0.7,4-1.2,8.6-1.6,13.8c-0.4,5.2-0.6,10.3-0.7,15.3c-0.1,5-0.1,9.4,0.2,13.2c0.2,3.9,0.6,6.5,1.2,7.8c0.3,0.8,0.9,1.4,1.6,1.7
	c0.7,0.4,1.6,0,2.6-1.2c1-1.2,2.2-3.3,3.6-6.5c1.3-3.1,2.8-7.9,4.5-14.1c0.3-1.2,0.7-2.3,1-3.1c0.2-0.8,0.5-1.5,0.8-2.1
	C387.1,319.1,387.5,318.8,387.9,318.8z M416.5,318.8c1.5,0.3,1.9,2.2,1,5.6c-0.2,0.8-0.4,1.5-0.7,2.3c-0.2,0.7-0.4,1.4-0.6,2.1
	c-0.2,0.7-0.4,1.3-0.6,1.7c-1.2,3.6-3,7.2-5.3,10.6c-2.3,3.4-5.3,5.7-9.1,6.9c-2.9,0.9-6,0.9-9.3,0.2c-1.9-0.4-3.5-1.3-4.8-2.5
	c-1.3-1.2-2.4-2.7-3.3-4.4c-0.9-1.7-1.6-3.6-2.1-5.6c-0.5-2-0.9-4.1-1.1-6.2c-0.6-4.8-0.6-10.3,0-16.4c0.7-4.4,1.7-8.2,3-11.3
	c1.1-2.6,2.6-4.9,4.6-6.7c2-1.8,4.5-2.1,7.4-0.9c1.9,0.8,3.3,2.2,4.2,4.3c0.9,2.1,1.5,4.5,1.8,7.2c0.3,2.7,0.2,5.5-0.3,8.5
	c-0.4,3-1.1,5.8-1.9,8.4c-0.8,2.6-1.9,4.9-3.1,6.8c-1.3,1.9-2.6,3.1-4.1,3.6c0.3,2.6,0.9,5,1.7,7c0.8,2,2.1,3.2,3.7,3.4
	c1.8,0.1,3.4-0.2,4.8-1c1.4-0.8,2.7-1.8,3.8-3.1c1.1-1.3,2.1-2.8,3-4.3c0.9-1.5,1.6-3,2.1-4.5c0.2-0.6,0.4-1.1,0.6-1.7
	c0.2-0.6,0.4-1.2,0.6-1.7c0.2-0.7,0.4-1.4,0.7-2.2c0.2-1.2,0.5-2.3,1-3.1c0.2-0.8,0.5-1.5,0.9-2.1
	C415.8,319.1,416.2,318.8,416.5,318.8z M392,319.9c-0.1,0.8-0.2,1.6-0.2,2.5c0,0.8,0,1.7,0,2.6s0.1,2.1,0.2,3.3
	c1.1-0.9,2.2-2.6,3.4-5c1.2-2.5,1.8-6.3,2.1-11.5c0-1.8-0.1-3.4-0.2-4.8c-0.1-1.2-0.3-2.4-0.5-3.6c-0.2-1.2-0.6-2-1.2-2.5
	c-0.4,0-0.9,0.7-1.3,2c-0.4,1.2-0.9,3.1-1.2,5.7C392.7,311.2,392.4,315,392,319.9z M387.9,205.1c0.2,0.1,0.5,0.2,0.7,0.4
	c1.8,1.2,3.8,1.6,6,1.2c4.2-0.8,7.9-2.5,11-5.4c1.7-1.6,3.1-3.4,4.1-5.4c1.8-3.5,2.1-7.1,0.8-10.8c-0.3-0.7-0.7-1.4-1.2-2
	c-0.7-0.8-1.5-0.8-2.3-0.1c-0.5,0.4-1,0.9-1.5,1.4c-1,0.9-2.3,1.3-3.7,1.2c-2-0.1-3.7-0.9-5.3-2.1c-1.2-0.9-2.3-1.9-3.2-3
	c-2.3-2.6-4.9-4.8-8-6.5c-2.3-1.2-3.7-3.1-4.3-5.7c-0.2-1-0.6-1.9-1.1-2.9c-0.7-1.4-1.8-2.3-3.3-2.7c-2.5-0.7-4.6,0.1-6.5,1.7
	c-0.6,0.5-1.1,0.7-1.8,0.6c-2-0.3-3.5,0.5-4.6,2.1c-0.9,1.2-1.1,2.6-0.9,4.1c0.3,2.3,1.3,4.2,3.3,5.4c0,1.4,0,2.8,0,4.1
	c0,1.7,0.1,3.3,0.1,5c0,1.4-0.4,2.6-1.2,3.7c-2.1,2.9-4,5.9-5.8,9c-1.1,1.8-2.2,3.6-3.3,5.4c-0.8,1.3-1.9,2.4-3.1,3.3
	c-1.5,1-3,2-4.6,3c-1.4,0.9-3,1.4-4.7,1.4c-1.8,0-3.6,0.2-5.2,1.1c-0.5,0.2-0.9,0.5-1.3,0.9c-0.5,0.5-0.7,1.1-0.3,1.8
	c0.3,0.6,0.9,1,1.7,0.9c0.4,0,0.7-0.2,1.1-0.2c0.8-0.2,1.6-0.4,2.4-0.5c0.7-0.1,1.5-0.3,2.2,0c0.1,0.4,0.1,0.8,0.2,1.2
	c0.3,1.2,1.5,1.6,2.4,0.7c0.3-0.3,0.6-0.8,0.8-1.2c0.5-1.1,1.3-1.9,2.4-2.5c1.6-0.9,3.2-1.9,4.9-2.7c2.9-1.5,4.8-3.9,6.6-6.5
	c2-2.9,4.1-5.7,6.2-8.5c0.1-0.2,0.4-0.3,0.7-0.6c0.5,1.8,0.9,3.4,1.3,5c0.5,2.2-0.1,4.1-1.4,5.9c-1.1,1.4-2.4,2.6-3.9,3.6
	c-3.4,2.3-6.8,4.5-10.2,6.8c-5.2,3.7-9.4,8.3-12.7,13.7c-2.6,4.2-4.2,8.7-4.3,13.7c-0.1,6.6,1.2,12.7,5.4,18
	c3.7,4.6,8.4,7.1,14.4,6.8c3.4-0.2,6.8-0.6,10.1-1.3c3.7-0.7,7.3-1,11-0.3c2.4,0.5,4.8,0.2,7.1-0.5c2.3-0.7,4.4-1.8,6.4-3.2
	c1.6-1.1,3.3-2,5.1-2.7c1.2-0.4,2.4-0.9,3.6-1.5c1.2-0.6,1.2-1.4,0.1-2.1c-2.2-1.4-4.4-2.8-6.7-4.1c-3-1.8-6.3-2.5-9.8-2.2
	c-0.8,0.1-1.6,0-2.6,0c0.1-0.3,0.2-0.6,0.4-0.9c0.4-0.9,0.8-1.9,1.2-2.8c0.7-1.8,0.9-3.7,0.8-5.7c-0.4-4.7-2.9-8.2-5.9-11.5
	c-0.5-0.5-1.1-0.5-1.5,0.1c-0.2,0.3-0.4,0.6-0.5,1c-0.8,1.7-1.5,3.5-2.3,5.2c-1.3,3.1-2.3,6.3-2.7,9.6c-0.2,1.9-0.4,3.8-0.6,5.8
	c-0.2,1.7-0.5,3.4-1.1,5.1c-0.8,2.2-2.3,3.8-4.6,4.5c-0.8,0.2-1.5,0.5-2.3,0.6c-2.1,0.4-5.5-0.3-7-2.8c-0.7-1.2-1.3-2.4-1.6-3.7
	c-0.8-3.7-0.3-7.2,1.5-10.6c2-3.8,4.2-7.3,7.1-10.5c3.3-3.7,6.2-7.6,9.2-11.6c2.2-2.9,4-6.1,5.1-9.6c1-3,2.3-5.9,3.9-8.7
	c0.1-0.2,0.3-0.4,0.4-0.6c1.1,2,2.1,3.9,3.3,5.8c1.1,1.9,2.3,3.8,3.5,5.5c0.7,1,1.4,2,1.9,3.2c0.2,0.5,0.3,1,0.6,1.5
	c0.4,0.7,0.8,1.4,1.2,2c0.3,0.4,0.8,0.6,1.3,0.4c0.5-0.2,0.7-0.6,0.8-1.1c0-0.3,0-0.5,0-0.8c0-0.5,0.1-1,0.1-1.5
	c0.3,0.1,0.5,0.1,0.7,0.2c1.2,0.4,2.4,0.9,3.6,1.3c0.5,0.2,1.1,0.3,1.7,0.3c0.8,0,1.2-0.8,0.8-1.6c-0.2-0.3-0.5-0.6-0.8-0.8
	c-0.6-0.5-1.3-0.9-2-1.3c-1.9-1.1-3.8-2.1-5.7-3.1c-1.1-0.6-1.8-1.4-2.2-2.5c-0.4-1.3-0.8-2.7-1.2-4c-0.2-0.6-0.3-1.2-0.5-1.9
	C387.8,205.1,387.9,205.1,387.9,205.1z M53.7,187.2c-0.2,0.5-0.4,0.9-0.7,1.4c-0.5,1-1.1,2-1.6,3c-0.5,0.8-1.2,1.3-2.1,1.6
	c-1.7,0.5-3.3,1-5,1.5c-0.6,0.2-1.2,0.4-1.8,0.7c-0.3,0.1-0.5,0.3-0.7,0.5c-0.5,0.5-0.3,1.2,0.4,1.4c0.4,0.1,0.9,0.1,1.4,0
	c1-0.1,2.1-0.3,3.1-0.4c0.2,0,0.3,0,0.6,0c-0.1,0.5-0.1,0.8-0.2,1.2c0,0.2-0.1,0.4-0.1,0.6c0,0.4,0.1,0.8,0.4,1
	c0.4,0.2,0.8,0.1,1.1-0.1c0.5-0.4,0.9-0.9,1.3-1.4c0.3-0.3,0.5-0.7,0.7-1.1c0.6-0.8,1.3-1.5,2-2.2c1.3-1.2,2.5-2.5,3.7-3.8
	c1.2-1.3,2.3-2.7,3.5-4c0.1,0.2,0.2,0.4,0.2,0.5c0.8,2.4,1.4,4.9,1.7,7.5c0.3,2.9,1.2,5.7,2.4,8.4c1.7,3.6,3.3,7.2,5.3,10.6
	c1.7,3,2.9,6.2,3.8,9.5c0.8,2.9,0.7,5.8-0.6,8.6c-0.5,1-1.1,1.9-1.8,2.7c-1.6,1.7-4.3,1.7-6,1c-0.6-0.2-1.1-0.6-1.7-0.9
	c-1.7-0.9-2.6-2.4-2.9-4.3c-0.2-1.4-0.2-2.8-0.1-4.2c0.2-1.5,0.4-3.1,0.5-4.6c0.2-2.7-0.1-5.4-0.6-8c-0.3-1.5-0.6-3-0.9-4.5
	c-0.1-0.3-0.1-0.6-0.3-0.9c-0.2-0.5-0.7-0.7-1.2-0.4c-2.9,2.1-5.5,4.4-6.6,8c-0.4,1.5-0.6,3.1-0.3,4.6c0.1,0.8,0.3,1.6,0.4,2.4
	c0,0.3,0.1,0.5,0.1,0.8c-0.7-0.2-1.4-0.2-2-0.4c-2.7-0.8-5.4-0.8-8.1,0.1c-2,0.7-4,1.4-5.9,2.1c-1,0.4-1.1,1-0.3,1.7
	c0.8,0.6,1.7,1.2,2.6,1.8c1.4,0.8,2.5,1.8,3.6,2.9c1.3,1.4,2.8,2.6,4.5,3.5c1.7,1,3.5,1.6,5.5,1.6c3,0,5.9,0.8,8.6,2
	c2.5,1.1,5.1,2,7.8,2.7c4.7,1.2,8.8,0.1,12.4-3c4.2-3.5,6.3-8.1,7.2-13.3c0.7-3.9,0.2-7.8-1.1-11.5c-1.7-4.8-4.3-9.2-7.8-12.9
	c-2.2-2.4-4.6-4.7-6.9-7.1c-1-1-1.8-2.2-2.5-3.5c-0.7-1.6-1-3.2-0.2-4.8c0.6-1.2,1.2-2.4,1.8-3.7c0.2,0.3,0.4,0.4,0.4,0.6
	c1.2,2.6,2.4,5.1,3.5,7.7c1,2.4,2.1,4.6,4.1,6.2c1.2,0.9,2.2,2,3.4,2.9c0.7,0.6,1.3,1.4,1.5,2.3c0.1,0.4,0.2,0.8,0.5,1.1
	c0.6,0.9,1.6,0.8,2-0.1c0.1-0.3,0.2-0.6,0.3-0.9c0.6-0.2,1.2,0.1,1.7,0.3c0.6,0.2,1.2,0.5,1.8,0.8c0.3,0.1,0.5,0.3,0.8,0.4
	c0.6,0.2,1.2,0,1.5-0.4c0.4-0.5,0.3-1,0-1.5c-0.2-0.3-0.5-0.7-0.9-0.9c-1.1-0.9-2.5-1.4-3.9-1.7c-1.4-0.3-2.5-0.9-3.5-1.8
	c-1-1-2.1-2-3.1-3.1c-0.8-0.9-1.5-1.9-1.9-3.1c-0.6-1.6-1.2-3.2-1.7-4.8c-0.9-2.7-1.9-5.4-3.1-8c-0.5-1-0.6-2-0.3-3.1
	c0.3-1.3,0.6-2.6,0.9-3.9c0.2-1,0.4-2.1,0.7-3.2c1.7-0.6,2.8-1.9,3.5-3.7c0.4-1.1,0.5-2.3,0-3.4c-0.6-1.4-1.7-2.3-3.3-2.4
	c-0.6,0-1-0.3-1.4-0.7c-1.2-1.6-2.8-2.5-4.9-2.4c-1.3,0.1-2.3,0.6-3.1,1.6c-0.5,0.7-1,1.3-1.3,2.1c-0.9,1.9-2.4,3.2-4.4,3.8
	c-2.7,0.8-5.1,2.1-7.4,3.8c-1,0.7-2,1.3-3.1,1.8c-1.4,0.7-2.9,1-4.5,0.8c-1.1-0.2-2-0.6-2.7-1.6c-0.3-0.4-0.6-0.9-1-1.3
	c-0.5-0.6-1.2-0.8-1.8-0.3c-0.5,0.4-1,0.9-1.3,1.4c-1.6,2.7-2,5.6-1.2,8.6c0.5,1.8,1.3,3.4,2.3,4.9c2,2.8,4.6,4.8,7.8,6.1
	c1.6,0.7,3.3,0.7,4.9,0.1c0.2-0.1,0.4-0.1,0.6-0.2C53.5,187.1,53.5,187.1,53.7,187.2z"/>
<path fill="#45BFBA" d="M325.2,164.9c-3.1,0.7-5.1,2.5-9.5,8.3c-2.5,3.3-5.7,6.9-7.8,8.9c-1.1,1-3.8,3.2-6,4.9
	c-2.2,1.7-4.1,3.3-4.2,3.5c-0.4,0.7-0.6,1.2-0.5,1.5c0.1,0.1,0.1,0.3,0.1,0.4c0,0.3,0.5,1,0.7,1.1c0.1,0,0.2,0.1,0.3,0.3
	c0.1,0.5,2.4,0.6,4.1,0.1c7.7-2.1,12-3.9,18.2-7.4c4.7-2.8,7.9-5.6,10-9.1c1.5-2.5,2.3-5.5,1.9-7.4c-0.5-2.1-2-4.1-3.8-4.7
	C327.5,164.7,326.4,164.6,325.2,164.9z M327.4,170c0.7,0.9,0.5,2.1-0.5,4.1c-1.7,3.2-4.9,6-9.5,8.7c-2.7,1.5-6.7,3.4-6.8,3.3
	c0,0,0.5-0.6,1.1-1.2c2-1.8,4.5-4.7,9-10.6c1.9-2.5,3.3-3.9,4.3-4.4C326.3,169.2,326.8,169.3,327.4,170z M327.7,198.4
	c-2.6,0-7.7,0.6-11.8,1.4c-1.5,0.3-4.2,0.8-5.8,1.1c-5.2,0.9-7.6,1.9-7.8,3.3c-0.1,0.9,0.4,2.1,0.9,2.2c0.1,0,0.2,0.1,0.2,0.2
	c0,0.1,0.1,0.2,0.3,0.2c0.2,0,0.3,0.1,0.3,0.2c0,0.2,4.9,1.5,8.2,2.3c2.4,0.5,13.3,1.8,16.6,1.9c6.2,0.2,10.8-1.7,11.6-4.8
	c0.4-1.6,0-3.3-1.2-4.8c-0.6-0.7-2.4-1.8-3.6-2.2C333.9,198.8,330,198.3,327.7,198.4z M335.7,204.6c0.2,0.2,0.2,0.3-0.2,0.6
	c-1,0.9-3.6,1.3-7,1.2c-3.2-0.1-14.6-1.4-14-1.6c1-0.3,7.1-1.3,9.1-1.5c1.1-0.1,3-0.2,4.2-0.2C331.7,203,334.8,203.6,335.7,204.6z
	 M297.9,214.9c-0.7-0.1-2,0.1-2,0.4c0,0.1-0.1,0.2-0.1,0.1c-0.1-0.2-0.7,0.2-0.7,0.5c0,0.1-0.1,0.2-0.2,0.2c-0.3,0-0.4,1.1-0.2,1.9
	c0.1,0.7,0.7,1.2,2.8,2.4c2.3,1.3,2.9,1.8,5.6,4.9c2.5,2.7,5.4,6.6,9.8,13.1c3.5,5.1,5.1,6.5,7.7,7c1.6,0.3,3,0.1,4.5-0.6
	c2-0.9,3.2-2.4,3.8-4.4c0.5-1.7,0.4-2.6-0.3-4.6c-0.8-2.5-3.4-5.8-6.5-8.5c-2.9-2.5-7.3-5.3-10.9-7.2c-3.3-1.6-9.3-4.1-11.5-4.6
	C299,215.1,298.1,214.9,297.9,214.9z M308.4,223.8c0.5,0.1,4.3,2.3,6.4,3.6c5.8,3.8,9.9,8.6,9.7,11.1c-0.1,0.9-0.7,1.6-1.7,2
	c-1.9,0.6-2.8-0.2-6.6-5.6c-1.4-2-3.7-5.3-5.2-7.4C309.5,225.5,308.3,223.8,308.4,223.8z M111.6,159.7c-1.8,0.5-3.5,2.3-4.2,4.4
	c-0.6,1.9-0.1,4.9,1.2,7.5c1.8,3.6,4.7,6.7,9.2,9.9c5.8,4.1,10,6.3,17.4,9c1.6,0.6,3.9,0.7,4,0.2c0-0.1,0.2-0.2,0.3-0.2
	c0.2,0,0.8-0.7,0.8-1c0-0.1,0.1-0.2,0.1-0.4c0.2-0.3,0-0.8-0.3-1.5c-0.1-0.2-1.9-2-3.9-3.8c-2-1.9-4.5-4.3-5.5-5.4
	c-2-2.1-4.8-6-7-9.5c-3.9-6.2-5.7-8.1-8.7-9.1C113.9,159.4,112.8,159.3,111.6,159.7z M114.7,164.7c1,0.6,2.2,2.2,3.9,4.8
	c4,6.3,6.2,9.4,8,11.3c0.6,0.7,1.1,1.2,1,1.3c-0.1,0.2-3.9-2.1-6.5-3.9c-4.4-3-7.3-6.2-8.7-9.5c-0.9-2.1-0.9-3.3-0.2-4.1
	C113,163.9,113.5,164,114.7,164.7z M101.5,193c-1.2,0.2-3.1,1.2-3.8,1.8c-1.3,1.3-1.9,3-1.6,4.7c0.5,3.2,5,5.5,11.2,5.9
	c3.3,0.2,14.3-0.1,16.7-0.4c3.3-0.4,8.4-1.3,8.4-1.5c0-0.1,0.1-0.2,0.3-0.2c0.2,0,0.3-0.1,0.3-0.2c0-0.1,0.1-0.2,0.2-0.2
	c0.5,0,1.1-1.2,1.1-2.1c0-1.4-2.3-2.6-7.4-4c-1.6-0.4-4.2-1.2-5.7-1.6c-3.9-1.1-9-2.2-11.6-2.5C107.1,192.6,103.2,192.7,101.5,193z
	 M108.9,197.5c1.2,0.1,3.1,0.4,4.2,0.6c1.9,0.4,8,1.9,8.9,2.3c0.6,0.2-10.9,0.5-14.1,0.3c-3.4-0.2-5.9-0.9-6.8-1.8
	c-0.3-0.3-0.3-0.4-0.1-0.6C101.9,197.4,105,197.1,108.9,197.5z M135.8,212.3c-2.2,0.3-8.5,2.2-11.9,3.6c-3.8,1.5-8.4,3.9-11.5,6.1
	c-3.3,2.3-6.2,5.4-7.2,7.8c-0.9,2-1,2.9-0.7,4.6c0.4,2.1,1.5,3.7,3.4,4.8c1.5,0.9,2.8,1.2,4.5,1c2.6-0.3,4.3-1.5,8.3-6.3
	c5-6.1,8.3-9.7,11-12.1c3-2.8,3.6-3.3,6-4.3c2.2-1,2.8-1.5,3.1-2.1c0.2-0.7,0.2-1.9-0.1-1.9c-0.1,0-0.2-0.1-0.2-0.2
	c0-0.3-0.5-0.7-0.7-0.6c-0.1,0.1-0.1,0-0.1-0.1c0-0.3-1.3-0.6-2-0.5C137.4,212,136.6,212.1,135.8,212.3z M123.5,223.4
	c-1.7,1.9-4.3,5-5.9,6.9c-4.3,5.1-5.3,5.8-7.1,5c-0.9-0.4-1.5-1.2-1.5-2.1c0-2.6,4.6-7,10.7-10.2c2.2-1.2,6.2-3,6.7-3
	C126.5,219.9,125.2,221.5,123.5,223.4z M146.8,278.3c-1,0.8-2.2,1.2-3.4,1.5c-2.1,0.5-4.2,0.7-5.7,0.7c-8.1,0-14.9-2.5-21.1-6.6
	c-6.6-4.3-12.1-9.8-16.8-16.2c-1.7-2.4-3.1-4.9-3.9-7.8c-0.2-0.8-0.4-1.6-0.3-2.4c0.1-0.9,0.8-1.2,1.4-0.6c0.3,0.3,0.5,0.6,0.8,0.9
	c2.3,2.8,4.8,5.5,7.5,8c4.8,4.4,10.5,6.8,16.8,7.9c4.9,0.9,9.9,1.1,14.8,1.3c2.7,0.1,5.3,0.8,7.7,2c1.2,0.6,2.4,1.4,3.3,2.4
	C150.9,272.9,149.6,276.2,146.8,278.3z M297.5,286.8c0.4-1.1,1.1-2,1.9-2.9c1.6-1.7,3.4-3,5.5-3.9c3.8-1.7,7.7-3.3,11.3-5.5
	c4.6-2.8,8.3-6.4,10.8-11.3c1.4-2.8,2.5-5.6,3.5-8.5c0.1-0.3,0.2-0.7,0.3-1c0.3-0.6,1-0.6,1.3,0c0.3,0.6,0.4,1.3,0.4,2
	c0.2,2.5-0.1,4.9-0.7,7.3c-1.7,6.4-4.4,12.4-8.3,17.8c-3.6,5.1-8.2,9.1-14.6,11.6c-1.2,0.5-2.9,0.9-4.7,1.2
	c-1.1,0.2-2.1,0.2-3.1-0.1C298.2,292.6,296.1,290.4,297.5,286.8z M184.1,67.7c0.9,0.6,1.3,1.1,1.7,2.2c0.6,1.5,1.2,2.4,2.5,3.3
	c1.2,0.9,3.1,1.6,4.3,1.6c1.1,0,3.4-0.9,4.5-1.6c0.5-0.3,1.5-1.3,2.1-2.2c1.4-1.9,2.1-2.3,3.5-2.1c1.1,0.1,1.4,0.4,2.3,1.9
	c1.9,3.2,4,4.6,6.7,4.7c1.3,0,1.7-0.1,2.8-0.7c1.7-0.9,2.6-1.8,3-3.2c0.5-1.4,1-2.1,1.9-2.6c1.1-0.6,1.8-0.4,3.1,0.5
	c0.2,0.2,0.7,1,1.1,1.9c1.1,2.3,2.5,3.5,5,4c0.7,0.2,1.2,0.1,2.1-0.1c1.4-0.4,2.3-1.4,3.3-3.7c1-2.1,1.4-2.5,2.7-2.7
	c1.5-0.2,2.4,0.4,3.1,2c1,2.2,2.7,3.5,5.5,4.2c1.5,0.4,2.6,0.2,4.3-0.7c1.6-0.8,2.4-1.6,3.1-3s1.3-2.1,1.8-2.1
	c0.2,0,0.3-0.1,0.3-0.2c0-0.1,0.4-0.2,0.8-0.2c0.6,0,1,0.2,1.6,0.7c0.4,0.4,0.8,0.8,0.8,1c0,0.2,0.1,0.3,0.2,0.3
	c0.1,0,0.2,0.2,0.2,0.5c0,0.9,1,2.7,2,3.6c1,0.9,2.8,1.6,4,1.6c1.1,0,2.2-0.5,3.4-1.5c0.9-0.7,1.2-1.2,1.9-2.8
	c0.9-2.1,1.2-2.5,2.1-3c0.7-0.4,1.9-0.4,1.9-0.1c0,0.1,0.1,0.2,0.3,0.2c0.3,0,1.3,0.9,1.3,1.2c0,0.2,0.1,0.3,0.2,0.3
	c0.1,0,0.2,0.3,0.2,0.6c0,1.3,0.7,2.9,1.7,4c1.9,2,3.8,2.8,5.9,2.4c1.5-0.3,2.4-0.9,3.7-2.7c1-1.4,1.3-2.2,1.6-4.5
	c0.2-1.3,0.3-1.6,0.8-2.1c0.8-0.7,1.4-0.8,2.5-0.7c0.9,0.1,1.2,0.3,1.8,1.3c0.8,1.2,0.2,4.9-1.1,7.4c-1.1,2.1-3.9,5-5.6,5.9
	c-1.6,0.8-4.4,1.1-6.6,0.8c-2.1-0.3-4.7-1.7-6.5-3.5l-1.6-1.5l-1.1,1c-4.1,3.8-10.3,3.5-14.8-0.7l-1.4-1.3l-1.6,1
	c-1.9,1.3-4,2.1-5.7,2.3c-1.5,0.2-4.3-0.2-5.5-0.7c-1.8-0.7-3.4-1.6-4.2-2.3l-0.9-0.8l-1,1.1c-1.2,1.4-3.6,2.6-5.5,2.8
	c-3.1,0.4-6.6-0.6-9.1-2.8l-1.2-1l-1.2,1c-2.6,2.1-5.7,3.1-8.6,2.9c-3.2-0.3-5.3-1.3-7.5-3.3l-1.5-1.4l-1,0.9
	c-2.8,2.6-8.1,3.8-11.7,2.8c-2.7-0.8-5.8-3-7.3-5.1c-0.8-1.2-1.9-3.8-1.9-4.7c0-1,0.6-2.1,1.2-2.3c0.3-0.1,0.5-0.2,0.5-0.3
	C181.9,67.2,183.5,67.3,184.1,67.7z"/>
</svg>
