<?xml version="1.0" encoding="utf-8"?>
<!-- Generator: Adobe Illustrator 18.0.0, SVG Export Plug-In . SVG Version: 6.00 Build 0)  -->
<!DOCTYPE svg PUBLIC "-//W3C//DTD SVG 1.1//EN" "http://www.w3.org/Graphics/SVG/1.1/DTD/svg11.dtd">
<svg version="1.1" id="Layer_1" xmlns="http://www.w3.org/2000/svg" xmlns:xlink="http://www.w3.org/1999/xlink" x="0px" y="0px"
	 viewBox="0 0 432 432" enable-background="new 0 0 432 432" xml:space="preserve">
<g>
	<path fill="#23C282" d="M227.1,165.1c-0.9,1.2-2.1,2.1-3.4,2.9c-2.2,1.3-4.4,2.3-6.2,2.9c-9.2,2.9-17.7,2.5-26.1,0.1
		c-9-2.5-17.2-6.7-24.7-12.3c-2.8-2.1-5.2-4.4-7.1-7.4c-0.5-0.8-1-1.6-1.2-2.5c-0.2-1,0.5-1.6,1.4-1.2c0.4,0.2,0.8,0.5,1.2,0.8
		c3.6,2.4,7.3,4.5,11.3,6.3c7,3.2,14.2,3.9,21.7,3c5.8-0.7,11.5-2.3,17.1-3.8c3.1-0.8,6.2-1,9.4-0.5c1.6,0.2,3.2,0.7,4.6,1.5
		C229.8,157.5,229.5,161.7,227.1,165.1z M333.1,339.1c-1.6-0.4-3.2-0.6-4.8-0.6c-0.8,0-1.4,0.3-1.7,1.1c-0.3,0.8,0.3,1.2,0.9,1.6
		c2.3,1.5,4.4,3.3,6.3,5.3c2.4,2.5,4.8,5,7.2,7.6c4,4.2,8,8.4,12.5,12c2.2,1.8,4.5,3.3,7.2,4.3c1.4,0.5,2.8,0.9,4.3,0.8
		c3.2-0.2,4.8-2.4,4.1-5.6c-0.3-1.4-0.9-2.6-1.7-3.8c-1.3-1.9-2.8-3.7-4.5-5.3c-4.4-4.3-9.4-7.8-14.8-10.9
		C343.3,343.1,338.5,340.5,333.1,339.1z M337.1,336.1c-0.4,0.3-1.1,0.5-1,1c0.1,0.7,0.8,0.6,1.4,0.7c2.8,0.2,5.5,0.9,8.2,1.6
		c3.7,1,7.3,2.5,10.9,3.9c3.6,1.3,7.2,2.7,11,3.5c2.2,0.5,4.3,0.7,6.5,0.4c0.8-0.1,1.7-0.3,2.4-0.7c1.6-0.9,2-2.4,1-4
		c-0.5-0.8-1.2-1.4-1.9-1.9c-2.1-1.7-4.4-2.9-6.9-3.8c-7.3-2.6-14.8-3-22.1-2.9c-1.7,0.2-3.2,0.4-4.6,0.7
		C340.5,334.9,338.7,335.1,337.1,336.1z"/>
	<path fill="#222222" d="M153.7,155.8c-0.5,0.6-1.3,0.7-2,0.5c-2.7-0.7-5.1-2.2-7.1-4.2c-4.6-4.6-6.9-10.4-8.3-16.5
		c-2.1-9-2.2-18.1-2.2-27.2c0-3,0.3-6,0.5-8.9c-1.3,2.3-2.1,4.8-3,7.2c-3.5,9.9-6.3,20.1-9.2,30.2c-0.5,1.9-1.1,3.8-1.9,5.7
		c-1.1,2.6-3,4.1-5.8,4.4c-1.1,0.2-1.9-0.1-2.2-1.4c-0.5-2-0.8-4.1-0.8-6.1c-0.2-6.9-0.8-13.9-0.6-20.9c0.2-6,0.3-11.9,0.8-17.9
		c0-0.1-0.1-0.2-0.1-0.6c-1.4,3.6-2.5,6.9-3.5,10.3c-3.1,10.4-6,20.7-9.1,31.1c-0.8,2.4-1.6,4.9-3.4,6.9c-1.3,1.7-3.1,2.5-5.2,2.6
		c-2,0-2.7-0.7-2.7-2.7c-0.1-3.6,0.6-7.2,1-10.8c0.6-6.2,0.8-12.4,1-18.5c0.2-5.9,0.4-11.8,0.5-17.6c0-3.4,0.1-6.7-0.1-10.1
		c-0.8-2.9-2.3-5.7-5.6-6.5c-0.2,0-0.5,0-0.7,0c-0.2,0-0.2,0-0.4,0c-0.2,0-0.4,0-0.7,0l-2.4,0.5l-0.1,0c-0.2,0-0.3,0.1-0.5,0.2
		l-0.1,0c-0.3,0.1-0.6,0.2-0.8,0.3C79,86,78.5,86,78.2,86.2c-0.4,0.3-0.7,0.4-1,0.5c-0.2,0.1-0.5,0.3-0.8,0.5
		c-0.2,0.1-0.5,0.3-0.8,0.4c-0.1,0-0.2,0.1-0.4,0.3c-0.1,0.1-0.2,0.1-0.2,0.2c-0.7,0.3-1.4,0.8-2.1,1.4l-1.3,1.1
		c-0.3,0.3-0.5,0.5-0.9,0.9c-0.3,0.3-0.6,0.6-0.9,0.9c-0.9,0.9-1.6,1.8-2.5,3.1c-0.5,0.7-1,1.5-1.3,2.2c-0.5,0.9-0.9,1.7-1.2,2.6
		c-0.8,2-1.2,4.2-1.2,6.6c0,0,0,0,0,0.1c-0.1,0.2-0.1,0.5,0,0.7c0,0.1,0,0.1,0,0.1l0,0.2c0,0.8,0,1.5,0.2,2.2c0,0.1,0,0.1,0,0.2
		c0,0.1,0,0.3,0,0.3c0.1,0.2,0.1,0.2,0.1,0.4c0,0.1,0,0.2,0.1,0.3c0,0.2,0,0.2,0.1,0.3c0,0.1,0,0.1,0,0.2c0,0.1,0.1,0.2,0.1,0.2
		c0.1,0.5,0.2,1,0.4,1.5l0.1,0.1c0,0.2,0.1,0.2,0.1,0.4c0.1,0.2,0.3,0.3,0.4,0.5c0.2,0.3,0.4,0.7,0.6,1c0,0.1,0,0.1,0,0.2
		c0.4,0.5,0.8,0.9,1.5,1.3c0,0.1,0.1,0.1,0.2,0.1c0,0.1,0.1,0.1,0.1,0.1c0.1,0,0.3,0.1,0.4,0.1c0,0,0.1,0,0.2,0
		c0.2-0.1,0.3-0.2,0.5-0.2c0.4-0.2,0.8-0.4,1.1-0.6c0.3-0.3,0.6-0.5,0.9-0.8c0.1-0.1,0.2-0.2,0.2-0.3c0.5-0.6,1.2-0.8,1.6-0.8
		c0.2,0,0.6,0,0.9,0.1c0.2,0.1,0.3,0.1,0.5,0.2c0.1,0,0.1,0,0.2,0.1c0.2,0.1,0.3,0.1,0.4,0.3c0.2,0.1,0.3,0.1,0.3,0.2
		c0.1,0,0.1,0.1,0.2,0.1c0.4,0.5,0.6,1.1,0.5,1.8l0,0.1c-0.1,0.2-0.1,0.4-0.2,0.5c0,0.1,0,0.1,0,0.1c-0.1,0.2-0.1,0.3-0.1,0.3
		c-0.4,0.7-0.9,1.5-1.6,2.2c-0.6,0.7-1.5,1-2.2,1.1c-0.2,0.1-0.6,0.1-0.9,0.1c-0.3,0-0.6,0-0.9,0.1l-0.1,0c0,0-0.1,0-0.1-0.1
		c-1.1-0.1-2.1-0.3-3.2-0.6c-0.9-0.3-1.8-0.7-2.7-1.2c-0.6-0.4-1-0.8-1.6-1.2l-0.5-0.4c-0.1-0.1-0.2-0.2-0.2-0.2
		c-0.1-0.1-0.2-0.2-0.3-0.1c0-0.1-0.1-0.2-0.2-0.1c-0.5-0.7-1-1.3-1.4-1.9c-0.6-1-1.1-1.9-1.6-3l-0.2-0.3l0-0.1
		c-0.2-0.5-0.5-1.2-0.6-2c0,0,0,0-0.1,0c-0.3-1.5-0.5-2.9-0.5-4.4c0-0.1,0-0.1,0-0.1l0-0.2c0.1-1.4,0.2-2.7,0.4-4.2
		c0.3-1.7,0.8-3.2,1.4-4.6c0.6-1.4,1.3-2.7,2.4-4.4l0.1-0.1c0.4-0.7,1-1.4,1.5-2.2c0.1,0,0.1,0,0.1-0.1l1.5-1.6c0.3-0.4,0.7-0.7,1-1
		c0.5-0.5,0.9-0.9,1.4-1.2c0.2-0.3,0.4-0.4,0.6-0.6c0,0,0.1,0,0.1-0.1c1-0.7,2.1-1.4,3-1.9c0.2-0.1,0.3-0.2,0.5-0.3
		c0.2-0.1,0.5-0.3,0.7-0.4c2.6-1.3,7.4-3.3,13.9-3c1.7,0,3.6,0.2,5.3,0.6c0.2,0.1,0.4,0.1,0.6,0.1c-0.1,0-0.1,0-0.2,0
		c4.1,1.2,7.8,4,7.9,10.2c0.5,5.3,0.2,10.6,0.1,15.8c-0.1,6.1-0.5,12.2-0.7,18.2c-0.1,0.4,0,0.8,0,1.3c1.9-5.8,4.2-11.3,6.2-16.9
		c2.7-7.9,5.9-15.5,9.2-23.1c0.2-0.5,0.4-1.1,0.6-1.6c1-2.6,2.1-3.3,4.6-2.7c2.4,0.5,3.9,2.3,3.6,4.7c-0.4,4.2-1.4,8.4-1.7,12.5
		c-0.4,4.6-0.5,9.1-0.5,13.8c0,4.1-0.2,8.2,0.2,12.8c0.6-1.9,1.1-3.4,1.7-4.8c4.6-13,9.9-25.8,15.8-38.2c1.1-2.3,2.1-2.8,4.6-2.3
		c2.2,0.4,3.2,1.6,3.3,3.8c0.2,2.8-0.4,5.6-1,8.3c-1.7,7.3-1.9,14.8-1.7,22.2c0.1,8.3,1.1,16.5,3.4,24.5c1.3,4.7,3.2,9.1,6.3,13.1
		c0.4,0.4,0.6,0.9,0.9,1.3C154,154.4,154.3,155.1,153.7,155.8z M146.9,122.6c0-0.8,0.1-1.7,0.3-2.5c0.1-0.7,0.2-1.4,0.4-2.2
		c0.5-1.8,1.1-3.6,2.1-5.2c0.7-1.4,1.7-2.5,3.1-3.4c0.6-0.4,1.1-0.7,1.7-1c0.7-0.3,1.5-0.6,2.2-0.8c0.9-0.3,1.9-0.4,2.9-0.4
		c0.8,0.1,1.7,0.3,2.5,0.8c1.5,0.7,2.7,1.7,3.6,3.2c0.4,0.5,0.7,1.2,0.9,1.8c0.3,1,0.4,2,0.4,3c-0.1,1.7-0.5,3.2-1.4,4.6
		c-0.8,1.4-2,2.4-3.3,3.3c-1,0.6-1.8,1.3-2.8,1.8c-0.9,0.6-1.8,1-2.7,1.5c-0.1,0.1-0.2,0.2-0.1,0.3c0.1,0.9,0.1,1.7,0.2,2.6
		c0,0.5,0.1,1,0.2,1.4c0.1,0.6,0.2,1.1,0.4,1.7c0,0.4,0.1,0.8,0.3,1.2c0.3,0.9,0.5,1.7,1.1,2.4c0.4,0.5,0.9,0.8,1.5,1
		c0.6,0.1,1.2,0,1.8-0.3c0.8-0.3,1.5-0.8,2.2-1.4c0.4-0.4,0.8-0.9,1.2-1.3c0.9-0.9,1.5-1.9,2.1-3c0.7-1.1,1.2-2.3,1.7-3.5
		c0.4-0.9,0.6-1.8,1-2.6c0.4-1.3,0.7-2.5,1.1-3.9c0.3-1.2,0.6-2.3,0.9-3.5c0.1-0.6,0.3-1.2,0.6-1.9c0.1-0.4,0.5-0.6,1-0.6
		c0.5,0,0.9,0,1.3,0.4c0.3,0.3,0.4,0.6,0.5,1c0,0.4,0,0.8-0.1,1.2c-0.2,1.2-0.4,2.3-0.7,3.4c-0.2,1.1-0.4,2.1-0.8,3.1
		c-0.4,1.4-0.9,2.8-1.4,4.2c-0.6,1.5-1.3,3-2.1,4.4c-0.7,1.1-1.3,2.2-2.3,3.3c-0.8,1-1.7,2-2.8,2.7c-0.5,0.4-1,0.6-1.6,0.9
		c-0.6,0.2-1.1,0.3-1.7,0.4c-0.8,0.1-1.6,0.2-2.5,0.2c-0.2,0-0.2,0-0.4,0c-0.7,0-1.5,0-2.2,0c-1.2-0.2-2.4-0.6-3.3-1.4
		c-1.2-0.9-2.2-2-3.1-3.2c-0.6-0.9-1-1.8-1.5-2.8c-0.4-0.8-0.7-1.7-1-2.6c-0.3-0.8-0.5-1.5-0.6-2.4c-0.3-1.3-0.5-2.6-0.6-4
		C146.9,124.1,146.8,123.3,146.9,122.6z M157,123.6c0.5-0.3,1-0.6,1.5-0.8c1-0.7,2-1.5,2.7-2.3c0.8-0.9,1.4-1.7,1.8-2.8
		c0.3-0.6,0.4-1.2,0.6-1.9c0.1-0.4,0.1-0.8,0.1-1.2c-0.1-0.2-0.1-0.3-0.1-0.6c-0.1-0.4-0.3-0.8-0.5-1.1c-0.3-0.5-0.6-0.8-1.2-0.8
		c-0.7,0-1.4,0.3-1.9,0.9c-0.3,0.3-0.5,0.6-0.7,0.9c-0.5,0.9-1,1.8-1.4,2.8c-0.2,0.6-0.4,1.2-0.5,1.9c-0.2,0.8-0.3,1.5-0.4,2.3
		c-0.1,0.4-0.2,0.9-0.2,1.4c-0.1,0.4-0.1,0.9-0.2,1.4C156.9,123.7,156.9,123.6,157,123.6z M175.9,115.4c0,0.6-0.2,1.1-0.3,1.6
		c-0.2,1.3-0.6,2.7-1.3,3.9c-0.1,0.1-0.2,0.2-0.2,0.3c-0.4,0.7-1.2,0.7-1.6,0.4c-0.2-0.1-0.3-0.2-0.4-0.4c-0.2-0.5-0.3-1-0.2-1.5
		c0.1-0.5,0.2-0.9,0.2-1.3c0.1-0.4,0.2-0.8,0.3-1.1c0.3-0.6,0.2-1.3,0.2-1.9c0-0.3-0.2-0.4-0.4-0.6c-0.8-0.4-1.5-0.9-1.9-1.7
		c-0.4-0.6-0.6-1.1-0.7-1.8c-0.1-0.3-0.2-0.6-0.1-0.9c0-0.4-0.1-0.8,0.1-1.2c0.1-0.9,0.6-1.6,1.2-2.2c0.5-0.6,1.4-0.9,2.2-1
		c0.4,0,0.9-0.1,1.3,0c0.9,0.2,1.7,0.6,2.1,1.5c0.3,0.6,0.4,1.1,0.4,1.6c0,0.6,0.1,1.1,0,1.7c0,0.3,0,0.6,0,0.8
		c0.2,0.1,0.3,0.1,0.5,0c0.9-0.1,1.6-0.6,2.3-1.2c0.5-0.4,1-0.8,1.5-1.2c0.6-0.4,1.1-0.7,1.9-0.8c0.6-0.1,1.1-0.2,1.7,0
		c1,0.1,1.9,0.5,2.6,1.2c0.5,0.5,1,0.9,1.2,1.7c0.3,0.6,0.4,1.1,0.4,1.7c0.1,1.1,0.1,2.1,0,3.1c0,1.2,0,2.2,0,3.3c0,0.7,0.1,1.3,0,2
		c0,0.7,0,1.6,0,2.4c0,1.1,0.1,2.2,0,3.4c0,1.2,0.1,2.3,0.1,3.5c0,1,0,2,0,3.1c0,0.2,0,0.4,0.1,0.6c0.1,0.5,0.5,0.6,0.9,0.4
		c0.2-0.2,0.4-0.4,0.5-0.6c0.2-0.5,0.4-1,0.6-1.5c0.4-0.8,0.6-1.6,0.9-2.5c0.3-0.8,0.6-1.4,0.8-2.2c0.3-1.1,0.7-2.2,1-3.3
		c0.2-0.8,0.4-1.4,0.6-2.2c0.2-0.7,0.3-1.3,0.5-2c0.1-0.4,0.3-0.8,0.3-1.2c0.3-1,0.5-1.9,0.8-2.9c0.1-0.3,0.3-0.7,0.4-0.9
		c0.2-0.4,0.5-0.7,1-0.7c0.3,0,0.7,0,0.9,0.1c0.3,0.1,0.4,0.3,0.5,0.5c0.3,0.6,0.3,1.2,0.2,1.8c-0.2,0.8-0.5,1.7-0.7,2.4
		c-0.1,0.5-0.3,1.1-0.4,1.6c-0.3,1-0.6,2-1,3c-0.2,0.8-0.5,1.4-0.7,2.2c-0.6,1.6-1,3.2-1.6,4.7c-0.3,1.1-0.8,2.1-1.2,3.1
		c-0.4,1.2-1.1,2.1-1.9,3.1c-0.5,0.7-1.3,1.2-2.2,1.5c-0.3,0.1-0.7,0.1-1,0.2c-0.4,0-0.8,0.1-1.2,0.1c-1.1,0.2-2.1-0.2-2.9-0.8
		c-0.9-0.6-1.5-1.4-2-2.3c-0.4-0.6-0.7-1.2-1-1.9c-0.3-0.9-0.4-1.8-0.4-2.7c0-0.8,0-1.7-0.1-2.5c0-0.8,0-1.7,0-2.5c0-1,0-2,0.1-3
		c0-0.2,0-0.6,0-0.9c0-0.8,0-1.7,0-2.6c0-0.9,0-1.9,0.1-2.8c0-0.5,0-1-0.1-1.5c0-0.3-0.2-0.6-0.3-1c-0.3-0.5-0.7-0.7-1.2-0.4
		c-0.5,0.3-1,0.5-1.5,0.6c-0.3,0.1-0.7,0.2-1.1,0.2c-0.3,0-0.7,0-1,0.1C176,115.3,176,115.4,175.9,115.4z M174.4,110
		c0-0.4,0-0.7-0.2-1.1c-0.1-0.2-0.4-0.4-0.7-0.2c-0.2,0.1-0.5,0.4-0.7,0.6c-0.1,0-0.1,0.2-0.1,0.3c0,0.2,0,0.6,0,0.8
		c0,0.2,0.1,0.6,0.3,0.8c0.3,0.4,0.6,0.6,1.2,0.6C174.3,111.2,174.5,110.6,174.4,110z M204.3,122c0.3-0.9,0.5-1.8,0.7-2.8
		c0.3-1,0.6-2,0.9-3.1c0.4-1.4,0.9-2.9,1.4-4.4c0.4-1,0.8-2.1,1.3-3.1c0.6-1.2,1.3-2.2,2.4-3c0.8-0.7,1.8-1.1,2.8-1.3
		c0.6-0.1,1.2-0.2,1.9-0.2c1.6,0.1,3,0.6,4.3,1.5c1,0.8,1.9,1.8,2.6,2.9c0.3,0.6,0.6,1.1,0.7,1.7c0.1,0.6,0.3,1.1,0.4,1.7
		c0.2,1.1,0.4,2.3,0.4,3.4c0.1,1.1,0.1,2.1,0.1,3.2c-0.1,0.3,0,0.7,0,0.9c0,0.1,0,0.2,0.1,0.2c0.1-0.3,0.1-0.5,0.2-0.8
		c0.4-1.2,0.8-2.4,1.2-3.6c0.4-0.8,0.7-1.7,1.1-2.6c0.4-1,0.9-2,1.4-3.1c0.4-0.9,0.8-1.8,1.3-2.7c0.6-1,1.5-1.8,2.5-2.5
		c0.8-0.5,1.6-0.8,2.4-1c1-0.3,2-0.5,2.9-0.4c1,0,1.9,0.1,2.8,0.4c1.3,0.4,2.2,1.2,2.8,2.4c0.2,0.4,0.3,0.8,0.4,1.2
		c0.3,1,0.3,1.9,0.3,2.9c0,0.4,0.1,0.9,0.1,1.3c0,0.6,0.1,1.2,0,1.7c0.1,2.1,0.3,4,0.4,6.1c0.1,0.9,0,1.8,0.1,2.6c0,1.1,0,2.2,0,3.2
		c0,0.3,0,0.7,0,1.2c-0.1,0.5-0.1,1.1-0.1,1.7c0,0.2,0,0.4,0,0.7c0,0.2,0,0.6-0.1,0.9c0,0.4,0.1,0.8,0.2,1.2
		c0.1,0.3,0.4,0.4,0.7,0.3c0.4-0.1,0.6-0.4,0.8-0.7c0.1-0.3,0.4-0.8,0.5-1.2c0.6-1.6,1.3-3.2,1.8-4.8c0.4-0.9,0.6-1.9,0.9-2.9
		c0.4-1.3,0.7-2.6,1.2-4c0.3-0.9,0.5-1.9,0.7-2.7c0.2-0.9,0.5-1.8,0.8-2.7c0.1-0.3,0.2-0.5,0.4-0.8c0.2-0.3,0.6-0.4,0.9-0.5
		c0.2,0,0.5,0,0.7,0c0.4,0.1,0.7,0.3,0.8,0.7c0.1,0.2,0.2,0.6,0.2,0.9c0,0.3,0,0.7-0.1,1.2c-0.1,0.4-0.3,0.9-0.4,1.4
		c-0.2,0.8-0.5,1.8-0.7,2.6c-0.2,0.6-0.3,1.3-0.5,1.9c-0.4,1.3-0.8,2.5-1.2,3.7c-0.2,0.8-0.5,1.5-0.7,2.2c-0.3,1-0.7,2-1.1,3
		c-0.2,0.6-0.4,1.3-0.7,1.9c-0.5,1.2-1.2,2.2-2,3.3c-0.5,0.4-0.9,0.9-1.6,1.2c-0.6,0.3-1.3,0.3-2,0.4c-0.3,0.1-0.7,0-1,0.1
		c-0.7,0.1-1.4-0.1-2-0.4c-0.9-0.6-1.7-1.2-2.3-2.1c-0.4-0.6-0.7-1.1-1-1.8c-0.1-0.5-0.2-1-0.3-1.5c-0.1-0.9-0.3-1.7-0.3-2.6
		c0-0.6-0.1-1.1-0.2-1.6c0-1.2-0.1-2.4-0.1-3.6c-0.1-1,0-2.1,0-3.1c0-0.8,0.1-1.7,0.1-2.4c0-0.3,0-0.7,0-0.9c0-0.7,0-1.5,0-2.3
		c0-0.7,0.1-1.5,0-2.2c0.1-0.4-0.1-0.8-0.1-1.2c0-0.4-0.1-0.7-0.2-1.1c-0.1-0.6-0.6-0.8-1-0.8c-0.6-0.1-1.1,0.1-1.5,0.4
		c-0.5,0.3-0.9,0.6-1.3,1.1c-0.2,0.2-0.4,0.4-0.5,0.7c-0.5,0.8-1.1,1.6-1.4,2.6c-0.2,0.5-0.4,1-0.6,1.5c-0.3,1.1-0.7,2.1-1,3.2
		c-0.1,0.2-0.1,0.4-0.2,0.7c-0.3,1.1-0.5,2.2-0.8,3.4c-0.1,0.7-0.2,1.4-0.4,2.1c-0.2,0.8-0.4,1.6-0.6,2.4c-0.1,0.6-0.3,1.3-0.5,1.9
		c-0.2,0.8-0.4,1.7-0.6,2.5c-0.3,1-0.5,1.9-0.6,2.9c-0.1,0.5-0.2,0.9-0.3,1.4c-0.1,0.6-0.3,1.1-0.6,1.5c-0.2,0.3-0.5,0.5-0.8,0.6
		c-0.4,0.1-0.7,0.2-1.1,0.2c-0.1,0-0.1,0-0.2,0c-1.2,0-2.1-0.4-2.8-1.4c-0.5-0.6-1-1.4-1.2-2.3c-0.2-0.7-0.3-1.4-0.5-2
		c-0.1-0.7-0.2-1.5-0.1-2.2c0-0.3,0-0.7-0.1-1.2c0-1.2-0.1-2.4-0.1-3.6c-0.1-1-0.1-1.9-0.2-2.8c0-0.9,0-1.8,0-2.6
		c0-0.4-0.1-0.8-0.1-1.2c-0.1-0.9,0-1.7-0.1-2.6c-0.1-0.7-0.2-1.5-0.3-2.2c-0.1-0.9-0.4-1.8-0.7-2.6c-0.3-0.6-0.6-1.1-1.3-1.2
		c-0.8-0.2-1.4,0-1.9,0.6c-0.4,0.4-0.7,1-0.9,1.6c-0.5,1.3-0.9,2.5-1.3,3.9c-0.5,1.7-1,3.3-1.5,5c-0.3,1.1-0.6,2.1-1,3.2
		c-0.3,1.2-0.7,2.3-1,3.4c-0.2,0.8-0.3,1.5-0.5,2.3c-0.3,0.9-0.5,1.9-0.6,2.9c-0.3,1-0.5,1.9-0.7,2.9c-0.2,0.8-0.4,1.4-0.7,2.1
		c-0.1,0.3-0.2,0.7-0.4,0.9c-0.5,0.4-1,0.6-1.7,0.5c-0.2,0-0.3,0-0.6,0c-1.4-0.2-2.5-0.8-3.2-2c-0.5-0.8-0.8-1.7-1.1-2.6
		c-0.2-1-0.3-2-0.3-2.9c0-0.5,0-1,0-1.5c0-0.2,0-0.5,0-0.7c0-0.9,0-1.9,0-2.9c-0.1-0.9-0.1-1.8-0.2-2.7c0-1.2-0.1-2.4-0.1-3.6
		c-0.1-1.9-0.2-3.8-0.4-5.8c0-1.2-0.1-2.3-0.1-3.5c-0.1-1.3-0.2-2.5-0.4-3.9c0-0.1,0-0.2,0-0.2c-0.1-0.2-0.1-0.2,0.1-0.3
		c0.8-0.3,1.6-0.4,2.5-0.5c0.5,0,1,0,1.5,0.1c1.2,0.2,2.2,0.7,3,1.6c0.2,0.2,0.4,0.6,0.6,0.9c0.2,0.3,0.4,0.6,0.5,0.8
		c0.3,0.5,0.3,1.1,0.4,1.6c0.1,0.8,0.3,1.6,0.2,2.5c0,0.5,0,1.1,0,1.6c0,0.9,0,1.8-0.1,2.7c0,0.9,0,1.8-0.1,2.7c0,0.7,0.1,1.2,0,1.9
		c0,0.7,0.1,1.4,0.1,2.1c0,0.1,0,0.2,0,0.2l0.1,0C204.1,123,204.2,122.5,204.3,122z M270.6,127.5c-0.8,1.8-1.8,3.3-3.2,4.7
		c-0.9,0.9-1.9,1.5-3.1,1.9c-1.2,0.4-2.5,0.4-3.7,0.4c-0.6,0-1.2-0.1-1.8-0.3c-1.2-0.3-2.1-1-3-1.8c-0.9-0.8-1.7-1.7-2.3-2.7
		c-0.5-0.7-0.8-1.4-1.2-2.1c-0.5-1-0.9-2.1-1.2-3.2c-0.3-1.1-0.6-2.2-0.8-3.3c-0.2-1.1-0.3-2.1-0.4-3.2c-0.1-1.4-0.1-2.8,0.2-4.1
		c0.1-0.8,0.2-1.7,0.4-2.4c0.5-2,1.2-3.9,2.4-5.7c1.1-1.7,2.5-2.9,4.1-3.8c1-0.5,2.2-0.7,3.3-0.8c0.7,0,1.6-0.1,2.3-0.1
		c1,0.1,1.9,0.3,2.9,0.6c1.9,0.5,3.4,1.8,4.8,3.1c0.1,0.1,0.2,0.1,0.3,0.2l0.1,0c0-0.2,0-0.3,0-0.5c-0.1-1.1,0.1-2.1,0.7-3
		c0.5-0.9,1.2-1.4,2.1-1.8c1.5-0.5,3-0.4,4.5,0l0.1,0.1c0,0.1,0.1,0.2,0,0.3c0,2.3,0,4.6,0,7c0,1.6,0,3.1,0,4.8c0,2.1,0,4.1,0.1,6.3
		c0,2.7,0,5.3,0.2,7.9c0.1,0.5,0.1,1.1,0.2,1.6c0,0.1,0,0.2,0,0.3c0.1,0.6,0.7,0.8,1.1,0.4c0.4-0.4,0.6-0.8,0.8-1.2
		c0.6-1.8,1.3-3.6,2-5.3c0.6-1.5,1-3,1.4-4.6c0.4-1.4,0.8-2.9,1.2-4.3c0.2-0.8,0.5-1.7,0.7-2.6c0.1-0.4,0.3-0.8,0.5-1.2
		c0.4-0.8,1.5-1.1,2.2-0.6c0.3,0.2,0.4,0.6,0.5,1c0.1,0.7,0,1.4-0.2,2.1c-0.3,1.1-0.6,2.3-0.9,3.4c-0.4,1.4-0.9,2.9-1.3,4.3
		c-0.5,1.4-0.9,2.7-1.4,4.1c-0.4,1.3-0.9,2.5-1.3,3.8c-0.4,0.8-0.7,1.7-1.2,2.5c-0.4,0.8-0.9,1.5-1.5,2c-0.7,0.7-1.6,1.1-2.6,1.2
		c-0.6,0.1-1.1,0.2-1.7,0.2c-0.8,0.1-1.6-0.3-2.3-0.8c-1.1-0.8-1.9-1.8-2.6-2.9c-0.4-0.8-0.7-1.6-0.8-2.4c0-0.1-0.1-0.1-0.1-0.2
		l-0.1,0C270.9,127,270.7,127.2,270.6,127.5z M260,124.9c0.1,0.3,0.1,0.7,0.2,1.1c0.1,0.7,0.3,1.3,0.5,2c0.2,0.8,0.5,1.6,1.1,2.2
		c0.6,0.7,1.7,0.8,2.5,0.3c0.6-0.4,1-0.8,1.5-1.3c1.3-1.2,2.4-2.7,3.2-4.3c0.6-1.2,1.1-2.5,1.4-3.7c0.1-0.6,0.2-1.2,0.1-1.8
		c0-0.6-0.1-1.1-0.1-1.6c0-1.3,0-2.6,0-4c0-0.7-0.1-1.6-0.1-2.3c0-0.7-0.1-1.5-0.5-2.2c-0.3-0.5-0.6-1-0.8-1.4
		c-0.6-0.9-1.2-1.7-2-2.4c-1-0.8-2.1-1.3-3.4-0.9c-0.2,0-0.4,0.1-0.6,0.2c-0.4,0.2-0.6,0.5-0.9,0.8c-0.8,1-1.1,2.1-1.4,3.3
		c-0.3,1-0.5,2.1-0.6,3.1c-0.2,1-0.4,2.1-0.5,3.1c0,0.9,0,1.9-0.1,2.8c0,1.2,0,2.6,0,3.8C259.8,122.8,259.8,123.9,260,124.9z
		 M284.6,89.4c-0.7-1.4-0.6-2.9,0.3-4.2c0.9-1.3,2.1-1.8,3.7-1.6c1.2,0.2,2,0.9,2.7,1.8c0.7,1.4,0.8,2.8,0.1,4.1
		c-0.7,1.2-1.7,1.9-3.3,2C286.7,91.7,285.2,90.7,284.6,89.4z M284.9,99.5c1.1-0.3,2.1-0.6,3.3-0.4c0.7,0.1,1.6,0.2,2.3,0.7
		c0.7,0.4,1.2,0.9,1.6,1.5c0.6,0.9,0.7,1.9,0.8,2.9c0.1,1.6,0.1,3.3,0.1,5c0,1.6-0.1,3.1,0,4.6c-0.1,0.5,0,1,0,1.4
		c-0.1,1.2-0.1,2.5-0.1,3.7c0,1.3-0.1,2.7-0.1,4.1c0,1.1,0.1,2.2,0,3.3c0,0.3,0,0.7,0.1,1c0.1,0.4,0.4,0.6,0.8,0.4
		c0.4-0.2,0.6-0.4,0.8-0.8c0.2-0.4,0.4-0.9,0.6-1.4c0.6-1.5,1.1-3,1.7-4.5c0.3-0.9,0.6-1.9,0.9-2.9c0.6-1.8,1-3.6,1.6-5.4
		c0.2-0.8,0.4-1.6,0.6-2.4c0.2-0.7,0.5-1.4,0.8-2c0.3-0.8,1.5-1.1,2.2-0.6c0.1,0.2,0.3,0.4,0.4,0.6c0.2,0.6,0.2,1.2,0,1.8
		c-0.4,1.9-1,3.9-1.5,5.7c-0.8,2.4-1.5,4.7-2.3,7.1c-0.5,1.4-1.1,2.9-1.7,4.3c-0.5,1.3-1.2,2.4-2.1,3.4c-0.8,0.8-1.7,1.3-2.8,1.3
		c-0.4,0.1-0.8,0.1-1.2,0.2c-1.1,0.1-2.1-0.2-2.9-0.8c-0.9-0.7-1.6-1.5-2.1-2.4c-0.3-0.6-0.7-1.3-0.9-2c-0.2-1-0.4-2-0.3-3
		c0-0.5-0.1-1-0.1-1.4c0-1.6,0-3.1,0-4.6c0-1.2-0.1-2.5-0.1-3.7c0-1.3,0-2.6,0-4c0-2.1-0.1-4.2-0.1-6.3c0-1.2-0.2-2.5-0.3-3.8
		c-0.1-0.1-0.1-0.2-0.1-0.3C284.6,99.6,284.7,99.5,284.9,99.5z M318.5,100.2c0-1.7,0-3.2-0.1-4.9c-0.1-2.1-0.3-4-0.4-6.1
		c-0.1-1.2-0.1-2.3-0.1-3.5c0-1.3,0.4-2.5,1.4-3.4c0.6-0.5,1.3-0.9,2-1.1c0.7-0.2,1.5-0.3,2.3-0.2c0.7,0,1.4,0.1,2.1,0.3
		c0,0.1,0,0.2,0,0.3c0,0.7-0.1,1.5-0.1,2.2c-0.1,1.5,0.1,3,0.1,4.5c0.1,1.4,0.1,2.9,0.1,4.3c0,1.3,0.1,2.6,0.1,4c0,1.6,0,3.1,0,4.5
		c0,1.6,0.1,3.2,0.1,4.9c0,1.7,0.1,3.5,0.1,5.2c0.1,1.1,0.1,2.1,0.1,3.2c0,2,0.1,4,0.1,5.9c0.1,0.8,0,1.7,0.1,2.6
		c0,0.7,0.2,1.3,0.3,2c0.1,0.2,0.2,0.3,0.2,0.4c0.1,0.4,0.5,0.5,0.8,0.2c0.2-0.2,0.3-0.4,0.5-0.6c0.3-0.7,0.6-1.4,0.8-2
		c0.8-1.9,1.5-3.8,2.1-5.8c0.3-1,0.6-2.1,1-3.2c0.4-1.5,0.8-3,1.3-4.5c0.2-0.8,0.5-1.7,0.8-2.4c0.1-0.3,0.2-0.6,0.4-0.8
		c0.2-0.3,0.5-0.5,0.9-0.6c0.2,0,0.3,0,0.5,0c0.5,0.1,0.9,0.4,1,0.8c0.2,0.6,0.2,1.2,0.1,1.8c-0.4,2-1.1,4-1.7,6
		c-0.6,1.6-1,3.2-1.6,4.8c-0.6,2.1-1.4,4.2-2.2,6.3c-0.5,1.2-1.2,2.4-2,3.4c-0.8,1-2,1.7-3.2,2.1c-1.7,0.4-3.2,0-4.5-1.2
		c-0.8-0.8-1.4-1.7-1.8-2.8c-0.3-0.8-0.5-1.5-0.6-2.4c0-0.1,0-0.2-0.1-0.2c-0.1,0.1-0.1,0.2-0.1,0.3c-0.4,0.7-0.7,1.4-1,2.1
		c-0.8,1.5-1.9,2.7-3.2,3.7c-1.1,0.8-2.3,1.3-3.7,1.5c-0.9,0.1-1.8,0.1-2.6,0c-1.4-0.2-2.6-0.7-3.7-1.6c-1.1-0.9-2.1-2-2.9-3.3
		c-0.5-0.7-0.8-1.4-1.1-2.2c-0.6-1.1-1.1-2.3-1.4-3.5c-0.4-1.6-0.8-3.2-0.9-4.8c-0.1-0.9-0.2-1.8-0.2-2.7c0-1.7,0.2-3.5,0.7-5.2
		c0.4-1.3,0.8-2.6,1.4-3.8c0.8-1.7,1.9-3.3,3.4-4.4c0.9-0.7,2-1.3,3.1-1.6c1.2-0.3,2.5-0.4,3.7-0.4c1.5,0.1,2.9,0.4,4.3,1
		c0.6,0.3,1.2,0.6,1.7,1c0.5,0.4,1,0.8,1.6,1.2c0.1,0.1,0.2,0.1,0.3,0.1C318.5,100.8,318.5,100.5,318.5,100.2z M318.9,109.3
		c0-0.6-0.1-1.2,0-1.7c0-0.3-0.1-0.7-0.2-1c-0.4-0.6-0.7-1.3-1.1-1.9c-0.6-0.9-1.2-1.7-2-2.4c-0.6-0.5-1.2-0.8-2-0.9
		c-0.4-0.1-0.9,0-1.4,0c-0.2,0.1-0.3,0.2-0.6,0.2c-0.5,0.3-0.8,0.7-1.1,1.1c-0.6,1-1,2-1.2,3.1c-0.5,1.5-0.8,3.1-0.9,4.7
		c-0.2,1.2-0.2,2.4-0.3,3.7c0,1.1,0,2.2,0,3.3c0,1.6,0.2,3,0.5,4.5c0.2,1,0.5,2,0.7,3c0.1,0.7,0.4,1.5,0.9,2
		c0.8,0.9,1.9,1.1,2.8,0.5c0.2-0.1,0.4-0.3,0.6-0.5c1.4-1.2,2.6-2.6,3.5-4.1c0.8-1.5,1.5-3,1.9-4.6c0.1-0.5,0.3-0.9,0.2-1.5
		c-0.1-0.5-0.1-1-0.1-1.5c0-1.5-0.1-2.9-0.1-4.3C318.9,110.5,318.9,109.9,318.9,109.3L318.9,109.3z M106.1,190.1
		c2-1.4,3.9-2.9,5.6-4.5c2-1.8,3.8-3.7,5.4-5.9c2.5-3.1,4.6-6.4,6.5-9.9c1-1.9,2-3.9,2.7-6c0.5-1.2,0.8-2.6,1.2-4
		c0.3-0.9,0.4-1.9,0.5-2.8c0.2-1.7,0.2-3.3,0.1-5c-0.1-0.4-0.2-0.9-0.2-1.3c-0.3-1.1-1.1-1.7-2.1-2c-0.5-0.2-1-0.2-1.6-0.3
		c-0.1,0-0.3-0.1-0.3-0.2c-0.2-0.2-0.4-0.4-0.3-0.7c0.1-0.5,0.3-0.8,0.7-1.1c0.7-0.4,1.3-0.6,2.1-0.7c1.2,0,2.4,0.2,3.5,0.8
		c1.3,0.6,2.2,1.7,2.9,2.8c0.7,1.3,1.1,2.7,1.4,4.1c0.3,1.5,0.4,3.1,0.3,4.5c0,1.3-0.1,2.6-0.3,3.9c-0.2,0.9-0.3,1.8-0.5,2.6
		c-0.3,1.7-0.8,3.2-1.4,4.7c-0.6,1.5-1.2,2.8-1.8,4.2c-1.4,2.8-3.1,5.4-5.2,7.8c-1.1,1.3-2.3,2.6-3.5,3.8c-1.1,1-2.2,1.9-3.4,2.9
		c-1.1,0.9-2.1,1.8-3.2,2.7c-1.5,1.2-3.1,2.3-4.5,3.5c-0.3,0.2-0.3,0.4-0.2,0.7c0.4,1.2,0.9,2.2,1.4,3.4c0.6,1.4,1.2,2.7,1.8,4
		c0.7,1.4,1.3,2.7,2.1,4c1,1.7,2.1,3.6,3.1,5.2c1.3,2.1,2.9,4.1,4.7,5.9c0.7,0.7,1.5,1.3,2.2,2c1.1,0.8,2.1,1.6,3.1,2.3
		c1.9,1.4,3.9,2.6,6,3.8c1,0.5,2.1,0.8,3.1,1.1c1.2,0.2,2.1-0.1,3-0.9c0.2-0.3,0.7-0.6,1.2-0.4c0.2,0.3,0.2,0.6,0.1,0.9
		c-0.6,1.9-1.5,3.6-3.3,4.5c-1.2,0.6-2.3,0.7-3.5,0.5c-2.3-0.4-4.4-1.2-6.4-2.1c-2.6-1.3-4.8-2.9-6.9-4.8c-0.5-0.4-1.2-0.7-1.7-1.2
		c-1.2-1.1-2.4-2.1-3.6-3.2c-1.4-1.3-2.6-2.7-3.7-4.3c-0.7-0.9-1.3-1.9-2-2.8c-0.2-0.3-0.3-0.6-0.4-0.9c-0.1-0.1-0.2-0.2-0.2-0.3
		c-1.2-1.4-1.9-3.1-2.8-4.7c-0.7-1.3-1.3-2.7-2-4.1c-0.1-0.1-0.2-0.3-0.3-0.3c0,0.4,0,0.7,0,1.1c-0.2,2.1-0.3,4.4-0.5,6.5
		c-0.1,1.1-0.2,2.2-0.3,3.3c-0.2,1.2-0.4,2.4-0.8,3.5c-0.3,0.5-0.6,0.7-1.1,0.8c-1.2,0.1-2.3-0.1-3.4-0.6c-0.9-0.3-1.7-0.7-2.4-1.4
		c-0.5-0.3-0.7-0.7-0.6-1.3c0.3-1.4,0.4-2.8,0.5-4.2c0.1-1.5,0.2-3,0.2-4.5c0.1-1.9,0.2-3.8,0.2-5.7c0.1-1.6,0.2-3.2,0.3-4.9
		c0-0.1,0-0.1,0-0.2c0-4.1,0.1-8.2,0.1-12.2c0-2.1,0-4.2,0-6.4c-0.1-2.3-0.2-4.7-0.4-7c-0.1-1.7-0.3-3.4-0.6-5
		c-0.2-1.5-0.6-2.9-1.2-4.3c-0.1-0.2-0.1-0.4-0.4-0.4c-0.1-0.1-0.1-0.2-0.2-0.2c-0.5-0.7-1.3-1-2.1-1.2c-1.1-0.2-2.1,0.2-3,0.7
		c-1.4,0.7-2.5,1.8-3.5,3c-1.4,1.6-2.6,3.2-3.5,5c-0.5,1-0.9,2.1-1.2,3.1c-0.4,1.4-0.7,2.8-0.7,4.2c-0.1,1.1-0.1,2.1,0,3.1
		c0.2,1,0.3,2,0.6,3c0.3,1.3,1,2.5,1.8,3.5c0.3,0.4,0.7,0.7,1.2,0.9c0.2,0.2,0.4,0.1,0.7,0.1c0.9-0.3,1.8-0.8,2.6-1.5
		c1.1-1.1,2.3-1.1,3.5-0.3c0.2,0.3,0.6,0.4,0.7,0.7c0.5,0.6,0.6,1.3,0.3,2c-0.6,1.4-1.5,2.5-2.7,3.3c-0.5,0.3-1.2,0.5-1.7,0.5
		c-1,0.2-2,0.1-3-0.2c-1-0.3-2-0.6-2.9-1c-1.1-0.5-2-1.2-2.8-1.9c-1.9-1.6-3.1-3.6-4-5.8c-0.3-0.9-0.7-1.8-0.9-2.7
		c-0.2-1.9-0.5-3.7-0.3-5.5c0.2-0.9,0.2-1.8,0.4-2.7c0.3-1.9,0.9-3.7,1.7-5.4c0.7-1.3,1.5-2.7,2.4-4c1.7-2.2,3.7-4,6.1-5.4
		c1.5-0.9,3.1-1.6,4.7-2c1.5-0.3,3-0.5,4.5-0.2c1.4,0.2,2.8,0.8,4,1.7c1.7,1.2,2.9,2.8,3.9,4.6c0.9,1.6,1.6,3.3,2.1,5
		c0.4,1.5,0.7,3,1,4.5c0.4,2.3,0.6,4.6,0.7,6.9c0,1.1,0.2,2.1,0.2,3.3c0,1.1,0.1,2.2,0.1,3.3c0,2.1-0.1,4.3-0.1,6.4
		c0,0.7,0,1.2,0,1.9C105.7,190.4,105.9,190.3,106.1,190.1z M125.2,182.9c1.1-0.2,2.1-0.4,3.3-0.2c0.7,0.2,1.6,0.3,2.2,0.8
		c0.7,0.4,1.2,1,1.5,1.7c0.6,0.9,0.6,2,0.7,3c0,1.7-0.1,3.3-0.2,5c-0.1,1.6-0.2,3.1-0.3,4.5c-0.1,0.5-0.1,1-0.1,1.4
		c-0.2,1.2-0.2,2.5-0.3,3.7c-0.1,1.3-0.2,2.7-0.3,4c-0.1,1.1-0.1,2.2-0.2,3.3c0,0.3,0,0.7,0,1c0.1,0.4,0.3,0.6,0.7,0.4
		c0.4-0.2,0.6-0.4,0.8-0.7c0.3-0.4,0.5-0.9,0.7-1.3c0.7-1.5,1.3-2.9,2-4.4c0.3-0.9,0.7-1.9,1.1-2.8c0.7-1.7,1.2-3.6,1.9-5.3
		c0.2-0.7,0.5-1.6,0.7-2.4c0.2-0.7,0.6-1.3,0.9-2c0.3-0.7,1.6-1,2.2-0.4c0.1,0.2,0.2,0.4,0.3,0.6c0.2,0.6,0.1,1.2-0.1,1.8
		c-0.5,1.9-1.2,3.8-1.9,5.6c-0.9,2.3-1.8,4.6-2.7,6.9c-0.6,1.4-1.3,2.8-2,4.2c-0.6,1.2-1.3,2.3-2.3,3.2c-0.8,0.7-1.7,1.2-2.9,1.2
		c-0.4,0.1-0.8,0.1-1.2,0.1c-1.1,0.1-2.1-0.3-2.9-1c-0.8-0.7-1.5-1.6-2-2.6c-0.3-0.7-0.6-1.3-0.7-2.1c-0.2-1-0.3-2.1-0.1-3.1
		c0-0.5,0-1,0-1.4c0.1-1.6,0.2-3.1,0.2-4.6c0.1-1.2,0.1-2.5,0.2-3.7c0.1-1.3,0.2-2.6,0.2-4c0.1-2.1,0.2-4.2,0.3-6.3
		c0.1-1.2,0-2.5-0.1-3.8c-0.1-0.1-0.1-0.2-0.1-0.3C125,183,125,182.9,125.2,182.9z M125.5,172.9c-0.6-1.5-0.4-2.9,0.6-4.1
		c1-1.2,2.2-1.7,3.8-1.4c1.2,0.3,2,1,2.6,2c0.7,1.4,0.7,2.8-0.2,4.1c-0.7,1.2-1.8,1.8-3.5,1.8C127.5,175.2,126.1,174.2,125.5,172.9z
		 M155.3,197.6c0.9-0.9,1.7-1.9,2.3-3c0.5-0.7,1.1-1.2,1.7-1.8c0.7-0.8,1.7-0.3,2.1,0.2c0.2,0.3,0.2,0.7,0.2,1.2
		c0,0.3-0.2,0.7-0.4,1.1c-0.7,1.3-1.7,2.6-2.6,3.7c-0.9,1.1-2,2.1-3.1,3.1c-0.2,0.1-0.2,0.1-0.2,0.3c0.1,0.3,0.2,0.6,0.2,0.8
		c0.1,0.5,0.2,0.9,0.3,1.3c0.1,0.4,0.2,0.8,0.2,1.3c0,0.7,0,1.5-0.1,2.2c0,0.7-0.2,1.5-0.4,2.2c-0.5,1.5-1.2,2.9-2.4,4
		c-0.7,0.7-1.4,1.1-2.2,1.4c-1.2,0.4-2.4,0.6-3.6,0.4c-1.7-0.2-3-1.1-3.9-2.6c-0.5-0.8-0.7-1.7-0.7-2.7c0-0.4,0-0.9,0.1-1.3
		c0.3-1.2,0.7-2.5,1.5-3.5c0.6-0.7,1.2-1.4,1.8-2.1c0.2-0.2,0.5-0.5,0.8-0.8c0.1-0.1,0.1-0.2,0-0.3c-0.3-0.8-0.6-1.7-0.9-2.6
		c-0.3-0.9-0.7-1.8-1.1-2.7c-0.2-0.7-0.5-1.3-0.7-2c-0.2-0.6-0.4-1.2-0.7-1.7c0-0.1-0.1-0.2-0.2-0.3c-0.2,0.2-0.2,0.3-0.2,0.6
		c-0.3,0.5-0.7,1.1-1.1,1.6c-0.3,0.5-0.8,0.7-1.4,0.4c-0.3-0.2-0.6-0.3-0.7-0.6c-0.2-0.2-0.2-0.4-0.2-0.7c-0.1-0.4,0-0.9,0.2-1.4
		c0.3-0.8,0.7-1.7,1-2.6c0.2-0.5,0.3-1,0.5-1.5c0.1-0.2,0.1-0.3,0.1-0.5c-0.2-0.5-0.3-0.9-0.5-1.4c-0.3-0.7-0.5-1.3-0.7-2.1
		c-0.2-0.8-0.3-1.6-0.2-2.4c0.1-1.7,0.5-3.1,1.4-4.5c0.7-1,1.7-1.7,2.8-2.1c0.6-0.2,1.2-0.3,1.7-0.3c1.2,0,2.4,0.3,3.4,1.2
		c0.7,0.7,1.1,1.5,1.2,2.4c0.1,1.1-0.1,2.1-0.7,3c-0.6,1-1.2,1.9-1.7,2.9c-0.2,0.2-0.2,0.2-0.1,0.4c0.3,0.5,0.4,1,0.7,1.5
		c0.2,0.6,0.5,1.1,0.7,1.7c0.4,0.9,0.8,1.7,1.2,2.6c0.3,0.7,0.7,1.5,1.1,2.3c0.3,0.7,0.7,1.5,1.1,2.2c0.2,0.6,0.5,1.2,0.7,1.7
		c0.1,0.2,0.2,0.4,0.3,0.7C154.5,198.3,154.9,197.9,155.3,197.6z M147.4,182.8c0.4-0.7,0.8-1.2,1-2c0.2-0.5,0.1-0.9-0.2-1.3
		c-0.4-0.8-1.2-1.2-2-1.2c-0.9-0.1-1.4,0.5-1.3,1.3c0,0.4,0.2,0.9,0.3,1.3c0.3,0.8,0.8,1.7,1.3,2.4c0.1,0.1,0.2,0.2,0.2,0.4
		C147.1,183.3,147.2,183,147.4,182.8z M147.9,207.1c-0.5,0.5-0.9,1.1-1.3,1.7c-0.2,0.3-0.3,0.7-0.3,1.2c-0.1,0.4-0.1,0.8,0,1.2
		c0,0.2,0.1,0.6,0.2,0.9c0.2,0.4,1,0.7,1.6,0.6c0.4-0.2,0.7-0.5,1-0.8c0.3-0.4,0.4-0.9,0.5-1.5c0.1-0.7,0-1.2-0.2-1.9
		c-0.2-0.4-0.3-0.8-0.5-1.2c-0.1-0.2-0.2-0.4-0.3-0.7C148.2,206.7,148.1,206.9,147.9,207.1z M174.3,197.6c0.9-0.9,1.7-1.9,2.3-3
		c0.5-0.7,1.1-1.2,1.7-1.8c0.7-0.8,1.7-0.3,2.1,0.2c0.2,0.3,0.2,0.7,0.2,1.2c0,0.3-0.2,0.7-0.4,1.1c-0.7,1.3-1.7,2.6-2.6,3.7
		c-0.9,1.1-2,2.1-3.1,3.1c-0.2,0.1-0.2,0.1-0.2,0.3c0.1,0.3,0.2,0.6,0.2,0.8c0.1,0.5,0.2,0.9,0.3,1.3c0.1,0.4,0.2,0.8,0.2,1.3
		c0,0.7,0,1.5-0.1,2.2c0,0.7-0.2,1.5-0.4,2.2c-0.5,1.5-1.2,2.9-2.4,4c-0.7,0.7-1.4,1.1-2.2,1.4c-1.2,0.4-2.4,0.6-3.6,0.4
		c-1.7-0.2-3-1.1-3.9-2.6c-0.5-0.8-0.7-1.7-0.7-2.7c0-0.4,0-0.9,0.1-1.3c0.3-1.2,0.7-2.5,1.5-3.5c0.6-0.7,1.2-1.4,1.8-2.1
		c0.2-0.2,0.5-0.5,0.8-0.8c0.1-0.1,0.1-0.2,0-0.3c-0.3-0.8-0.6-1.7-0.9-2.6c-0.3-0.9-0.7-1.8-1.1-2.7c-0.2-0.7-0.5-1.3-0.7-2
		c-0.2-0.6-0.4-1.2-0.7-1.7c0-0.1-0.1-0.2-0.2-0.3c-0.2,0.2-0.2,0.3-0.2,0.6c-0.3,0.5-0.7,1.1-1.1,1.6c-0.3,0.5-0.8,0.7-1.4,0.4
		c-0.3-0.2-0.6-0.3-0.7-0.6c-0.2-0.2-0.2-0.4-0.2-0.7c-0.1-0.4,0-0.9,0.2-1.4c0.3-0.8,0.7-1.7,1-2.6c0.2-0.5,0.3-1,0.5-1.5
		c0.1-0.2,0.1-0.3,0.1-0.5c-0.2-0.5-0.3-0.9-0.5-1.4c-0.3-0.7-0.5-1.3-0.7-2.1c-0.2-0.8-0.3-1.6-0.2-2.4c0.1-1.7,0.5-3.1,1.4-4.5
		c0.7-1,1.7-1.7,2.8-2.1c0.6-0.2,1.2-0.3,1.7-0.3c1.2,0,2.4,0.3,3.4,1.2c0.7,0.7,1.1,1.5,1.2,2.4c0.1,1.1-0.1,2.1-0.7,3
		c-0.6,1-1.2,1.9-1.7,2.9c-0.2,0.2-0.2,0.2-0.1,0.4c0.3,0.5,0.4,1,0.7,1.5c0.2,0.6,0.5,1.1,0.7,1.7c0.4,0.9,0.8,1.7,1.2,2.6
		c0.3,0.7,0.7,1.5,1.1,2.3c0.3,0.7,0.7,1.5,1.1,2.2c0.2,0.6,0.5,1.2,0.7,1.7c0.1,0.2,0.2,0.4,0.3,0.7
		C173.6,198.3,174,197.9,174.3,197.6z M166.5,182.8c0.4-0.7,0.8-1.2,1-2c0.2-0.5,0.1-0.9-0.2-1.3c-0.4-0.8-1.2-1.2-2-1.2
		c-0.9-0.1-1.4,0.5-1.3,1.3c0,0.4,0.2,0.9,0.3,1.3c0.3,0.8,0.8,1.7,1.3,2.4c0.1,0.1,0.2,0.2,0.2,0.4
		C166.1,183.3,166.3,183,166.5,182.8z M167,207.1c-0.5,0.5-0.9,1.1-1.3,1.7c-0.2,0.3-0.3,0.7-0.3,1.2c-0.1,0.4-0.1,0.8,0,1.2
		c0,0.2,0.1,0.6,0.2,0.9c0.2,0.4,1,0.7,1.6,0.6c0.4-0.2,0.7-0.5,1-0.8c0.3-0.4,0.4-0.9,0.5-1.5c0.1-0.7,0-1.2-0.2-1.9
		c-0.2-0.4-0.3-0.8-0.5-1.2c-0.1-0.2-0.2-0.4-0.3-0.7C167.3,206.7,167.1,206.9,167,207.1z M174.7,197.1c0.1-0.8,0.2-1.7,0.4-2.5
		c0.2-0.7,0.3-1.4,0.6-2.1c0.6-1.8,1.3-3.6,2.5-5c0.8-1.3,1.9-2.4,3.3-3.2c0.6-0.3,1.2-0.7,1.7-0.9c0.7-0.3,1.5-0.5,2.2-0.7
		c0.9-0.3,1.9-0.3,2.9-0.2c0.8,0.2,1.7,0.4,2.5,0.9c1.4,0.8,2.6,1.9,3.4,3.4c0.4,0.6,0.7,1.2,0.8,1.9c0.2,1,0.2,2,0.2,3
		c-0.2,1.7-0.7,3.1-1.7,4.5c-0.9,1.3-2.1,2.3-3.5,3.1c-1,0.6-1.9,1.2-2.9,1.7c-0.9,0.5-1.8,0.9-2.8,1.3c-0.1,0.1-0.2,0.2-0.2,0.2
		c0,0.9,0,1.7,0,2.6c0,0.5,0,1,0.1,1.4c0.1,0.6,0.2,1.2,0.2,1.7c0,0.4,0.1,0.8,0.2,1.2c0.2,0.9,0.4,1.7,0.9,2.5
		c0.3,0.5,0.8,0.8,1.4,1.1c0.6,0.2,1.2,0.1,1.8-0.2c0.8-0.2,1.6-0.7,2.3-1.2c0.4-0.3,0.8-0.8,1.2-1.2c0.9-0.8,1.7-1.8,2.3-2.9
		c0.7-1.1,1.3-2.2,1.9-3.4c0.4-0.9,0.7-1.7,1.2-2.6c0.5-1.2,0.9-2.5,1.3-3.8c0.3-1.2,0.7-2.2,1.2-3.4c0.2-0.6,0.4-1.2,0.7-1.8
		c0.2-0.4,0.5-0.6,1-0.6s0.9,0.1,1.2,0.5c0.2,0.3,0.3,0.7,0.4,1c0,0.4-0.1,0.8-0.2,1.2c-0.2,1.2-0.6,2.3-0.9,3.4
		c-0.3,1.1-0.6,2.1-1,3.1c-0.5,1.4-1.1,2.7-1.7,4.1c-0.7,1.5-1.5,2.9-2.4,4.3c-0.7,1.1-1.5,2.1-2.5,3.1c-0.8,1-1.8,1.9-3,2.6
		c-0.5,0.3-1.1,0.6-1.7,0.8c-0.6,0.2-1.2,0.2-1.7,0.3c-0.8,0.1-1.7,0.1-2.5,0.1c-0.2,0-0.2,0-0.4,0c-0.7,0-1.5-0.1-2.1-0.2
		c-1.2-0.2-2.3-0.7-3.2-1.6c-1.2-1-2.1-2.1-2.9-3.4c-0.5-0.9-0.9-1.9-1.3-2.9c-0.3-0.8-0.6-1.7-0.8-2.6c-0.3-0.8-0.4-1.6-0.5-2.4
		c-0.2-1.3-0.3-2.6-0.3-4C174.6,198.6,174.6,197.9,174.7,197.1z M184.8,198.8c0.5-0.2,1.1-0.5,1.6-0.7c1.1-0.6,2.1-1.3,2.9-2.1
		s1.5-1.7,2-2.6c0.3-0.6,0.5-1.2,0.7-1.8c0.1-0.4,0.2-0.8,0.2-1.2c-0.1-0.2-0.1-0.3-0.1-0.6c-0.1-0.4-0.3-0.8-0.4-1.2
		c-0.2-0.5-0.6-0.8-1.2-0.8c-0.7-0.1-1.4,0.3-2,0.7c-0.3,0.3-0.5,0.6-0.7,0.8c-0.6,0.8-1.2,1.7-1.6,2.7c-0.2,0.6-0.5,1.2-0.7,1.8
		c-0.2,0.7-0.4,1.5-0.6,2.3c-0.2,0.4-0.2,0.9-0.2,1.4c-0.1,0.4-0.2,0.9-0.2,1.4C184.6,198.9,184.7,198.8,184.8,198.8z M216.2,197.6
		c0.9-0.9,1.7-1.9,2.3-3c0.5-0.7,1.1-1.2,1.7-1.8c0.7-0.8,1.7-0.3,2.1,0.2c0.2,0.3,0.2,0.7,0.2,1.2c0,0.3-0.2,0.7-0.4,1.1
		c-0.7,1.3-1.7,2.6-2.6,3.7c-0.9,1.1-2,2.1-3.1,3.1c-0.2,0.1-0.2,0.1-0.2,0.3c0.1,0.3,0.2,0.6,0.2,0.8c0.1,0.5,0.2,0.9,0.3,1.3
		c0.1,0.4,0.2,0.8,0.2,1.3c0,0.7,0,1.5-0.1,2.2c0,0.7-0.2,1.5-0.4,2.2c-0.5,1.5-1.2,2.9-2.4,4c-0.7,0.7-1.4,1.1-2.2,1.4
		c-1.2,0.4-2.4,0.6-3.6,0.4c-1.7-0.2-3-1.1-3.9-2.6c-0.5-0.8-0.7-1.7-0.7-2.7c0-0.4,0-0.9,0.1-1.3c0.3-1.2,0.7-2.5,1.5-3.5
		c0.6-0.7,1.2-1.4,1.8-2.1c0.2-0.2,0.5-0.5,0.8-0.8c0.1-0.1,0.1-0.2,0-0.3c-0.3-0.8-0.6-1.7-0.9-2.6c-0.3-0.9-0.7-1.8-1.1-2.7
		c-0.2-0.7-0.5-1.3-0.7-2c-0.2-0.6-0.4-1.2-0.7-1.7c0-0.1-0.1-0.2-0.2-0.3c-0.2,0.2-0.2,0.3-0.2,0.6c-0.3,0.5-0.7,1.1-1.1,1.6
		c-0.3,0.5-0.8,0.7-1.4,0.4c-0.3-0.2-0.6-0.3-0.7-0.6c-0.2-0.2-0.2-0.4-0.2-0.7c-0.1-0.4,0-0.9,0.2-1.4c0.3-0.8,0.7-1.7,1-2.6
		c0.2-0.5,0.3-1,0.5-1.5c0.1-0.2,0.1-0.3,0.1-0.5c-0.2-0.5-0.3-0.9-0.5-1.4c-0.3-0.7-0.5-1.3-0.7-2.1c-0.2-0.8-0.3-1.6-0.2-2.4
		c0.1-1.7,0.5-3.1,1.4-4.5c0.7-1,1.7-1.7,2.8-2.1c0.6-0.2,1.2-0.3,1.7-0.3c1.2,0,2.4,0.3,3.4,1.2c0.7,0.7,1.1,1.5,1.2,2.4
		c0.1,1.1-0.1,2.1-0.7,3c-0.6,1-1.2,1.9-1.7,2.9c-0.2,0.2-0.2,0.2-0.1,0.4c0.3,0.5,0.4,1,0.7,1.5c0.2,0.6,0.5,1.1,0.7,1.7
		c0.4,0.9,0.8,1.7,1.2,2.6c0.3,0.7,0.7,1.5,1.1,2.3c0.3,0.7,0.7,1.5,1.1,2.2c0.2,0.6,0.5,1.2,0.7,1.7c0.1,0.2,0.2,0.4,0.3,0.7
		C215.4,198.3,215.8,197.9,216.2,197.6z M208.3,182.8c0.4-0.7,0.8-1.2,1-2c0.2-0.5,0.1-0.9-0.2-1.3c-0.4-0.8-1.2-1.2-2-1.2
		c-0.9-0.1-1.4,0.5-1.3,1.3c0,0.4,0.2,0.9,0.3,1.3c0.3,0.8,0.8,1.7,1.3,2.4c0.1,0.1,0.2,0.2,0.2,0.4
		C208,183.3,208.2,183,208.3,182.8z M208.8,207.1c-0.5,0.5-0.9,1.1-1.3,1.7c-0.2,0.3-0.3,0.7-0.3,1.2c-0.1,0.4-0.1,0.8,0,1.2
		c0,0.2,0.1,0.6,0.2,0.9c0.2,0.4,1,0.7,1.6,0.6c0.4-0.2,0.7-0.5,1-0.8c0.3-0.4,0.4-0.9,0.5-1.5c0.1-0.7,0-1.2-0.2-1.9
		c-0.2-0.4-0.3-0.8-0.5-1.2c-0.1-0.2-0.2-0.4-0.3-0.7C209.1,206.7,209,206.9,208.8,207.1z M288.5,157.6c-0.5,2.6-1.5,5.2-2.8,7.7
		c-2.8,4.9-7,9.1-11.9,11.8c0.8,0.4,1.6,1,2.3,1.7c1,1.1,1.8,2.4,2.4,4c1.2,3,1.6,6.9,0.9,10.6c-0.8,5.7-3.6,10.9-7.7,14.8
		c-2.3,2.2-5,3.9-8,5.1c-3.3,1.3-7,1.9-11,1.9c-2.8,0-5.8-0.3-9-0.9c-2.3-0.5-4.3-1.2-6.2-2.3c-1.7-1-3.2-2.3-4.6-3.8
		c-2.5-2.8-4.2-6.5-4.7-10.5c-0.8-5,0.1-10.4,2.5-15.3c2.4-4.9,6.1-9,10.9-11.9c-1.4-1.2-2.5-2.7-3.3-4.2c-1-1.7-1.8-3.4-2.2-5.3
		c-0.8-3.4-0.5-7.1,0.8-10.5c0.6-1.7,1.5-3.3,2.6-4.8c1.1-1.5,2.4-2.7,3.9-3.7c3.1-2.3,6.7-3.5,10.4-3.5c2.2,0,4.5,0.4,6.7,1.2
		c4.1,1.5,7.1,6.2,6.8,10.3c-0.2,1.7-0.9,3.2-2.1,4.4c-1.4,1.3-3.3,2.1-5.8,2.5c0,0,0,0-0.1,0c-0.2,0-0.4-0.1-0.6-0.3
		c-0.1-0.2-0.1-0.5,0-0.7c2.7-4.8,3.4-9,2.1-11.3c-0.7-1.4-2.4-2.1-4.7-2.1c-0.2,0-0.5,0-0.7,0c-5.3,0.3-9.6,3.7-10.5,8.4
		c-0.4,2.8,0.3,5.7,2.2,8.4c2.4,3.2,6.2,6,11.4,8.2c0.3,0.2,0.5,0.5,0.4,0.8c0,0.3-0.3,0.5-0.6,0.6c-7,0.9-14.9,7.7-18.1,15.3
		c-1.8,4.4-2.9,10.8,1.9,17.1c3.8,5,8.4,7.7,13.6,7.7c4.2,0,8.5-1.8,11.9-4.9c3.2-2.9,5.2-6.6,5.3-10c0-2.8-1.2-5.2-3.9-7.1
		c-3.1-2.2-7.8-3.4-14.1-3.5c-0.3,0-0.8-0.2-1-1.1c0-0.3-0.1-0.7-0.1-1.1c0-0.2,0-0.5,0-0.6c-0.1-0.2,0-0.4,0.1-0.6
		c0.1-0.1,0.3-0.2,0.5-0.3c5.1-0.6,10.9-3,15.9-6.8c5.3-3.9,9-8.8,10.2-13.5c1.8-6.8-1.1-13.2-8.5-18.7c-0.2-0.2-0.3-0.5-0.2-0.8
		c0.1-0.3,0.4-0.5,0.7-0.5c4.5,0.1,8.2,1.1,11,3.1c2.5,1.9,4.3,4.6,5,7.8C289.1,152.5,289.1,155,288.5,157.6z M276.6,235.6
		c0.2,0.4,0.3,0.7,0.4,1.1c0.4,0.9,0.7,1.9,0.7,2.9c0,0.1,0,0.2,0,0.3c0,0.6-0.5,0.9-0.9,0.8c-0.1,0-0.3,0-0.4-0.1
		c-0.3-0.2-0.6-0.5-0.7-0.8c-0.2-0.3-0.2-0.6-0.4-0.9c-0.1-0.3-0.2-0.5-0.2-0.8c-0.1-0.5-0.3-0.9-0.6-1.3c-0.1-0.2-0.3-0.2-0.5-0.2
		c-0.6,0.1-1.2,0-1.8-0.3c-0.4-0.2-0.8-0.5-1.1-0.8c-0.2-0.2-0.3-0.3-0.4-0.5c-0.2-0.2-0.3-0.5-0.4-0.8c-0.3-0.6-0.3-1.2-0.1-1.8
		c0.1-0.6,0.5-1.1,0.9-1.5c0.2-0.2,0.5-0.4,0.8-0.5c0.6-0.2,1.3-0.3,1.9,0.1c0.4,0.2,0.6,0.5,0.9,0.8c0.2,0.3,0.5,0.7,0.7,1.1
		c0.1,0.2,0.2,0.4,0.3,0.5c0.1,0,0.2-0.1,0.3-0.2c0.5-0.4,0.8-1,1-1.6c0.1-0.4,0.3-0.9,0.5-1.3c0.2-0.5,0.4-0.8,0.8-1.2
		c0.3-0.3,0.6-0.5,1-0.7c0.7-0.3,1.3-0.4,2.1-0.2c0.5,0.1,1,0.2,1.4,0.6c0.4,0.2,0.7,0.5,0.9,0.9c0.5,0.6,0.9,1.3,1.2,1.9
		c0.4,0.7,0.8,1.4,1.3,2c0.3,0.4,0.6,0.8,0.8,1.2c0.3,0.4,0.6,1,0.9,1.5c0.4,0.7,0.9,1.4,1.3,2.1c0.4,0.7,0.9,1.4,1.4,2.1
		c0.4,0.6,0.8,1.2,1.2,1.9c0.1,0.1,0.2,0.2,0.3,0.3c0.3,0.3,0.5,0.2,0.7-0.1c0.1-0.2,0.1-0.4,0.1-0.6c-0.1-0.4-0.1-0.8-0.2-1.2
		c-0.1-0.7-0.2-1.2-0.4-1.9c-0.1-0.6-0.2-1.1-0.3-1.7c-0.2-0.8-0.4-1.6-0.6-2.4c-0.2-0.5-0.3-1-0.5-1.6c-0.1-0.5-0.3-1-0.5-1.4
		c-0.1-0.3-0.2-0.6-0.2-0.9c-0.2-0.7-0.4-1.4-0.6-2.1c0-0.3-0.1-0.5-0.1-0.7c0-0.3,0.1-0.6,0.4-0.8c0.2-0.1,0.4-0.3,0.6-0.3
		c0.2,0,0.4,0,0.5,0.1c0.4,0.2,0.7,0.6,0.8,1c0.2,0.6,0.4,1.2,0.5,1.8c0.1,0.4,0.3,0.8,0.4,1.1c0.2,0.8,0.4,1.5,0.6,2.2
		c0.2,0.5,0.3,1.1,0.4,1.6c0.3,1.2,0.6,2.4,0.8,3.5c0.2,0.8,0.3,1.6,0.5,2.4c0.2,0.9,0.1,1.7,0,2.6c-0.1,0.6-0.3,1.3-0.8,1.8
		c-0.2,0.2-0.4,0.3-0.5,0.5c-0.2,0.2-0.5,0.4-0.7,0.5c-0.6,0.5-1.4,0.7-2.1,0.6c-0.8,0-1.5-0.3-2.1-0.6c-0.4-0.2-0.9-0.4-1.3-0.8
		c-0.5-0.4-0.9-1-1.3-1.5c-0.3-0.5-0.7-1-1-1.5c-0.3-0.5-0.7-1-1-1.5c-0.4-0.6-0.7-1.2-1.1-1.9c-0.1-0.1-0.2-0.4-0.3-0.6
		c-0.3-0.5-0.7-1.1-1-1.6c-0.3-0.6-0.7-1.2-1-1.8c-0.2-0.3-0.4-0.6-0.6-0.9c-0.1-0.2-0.4-0.3-0.6-0.5c-0.4-0.2-0.7-0.2-0.9,0.2
		c-0.2,0.4-0.5,0.7-0.7,1c-0.2,0.2-0.4,0.4-0.6,0.6c-0.2,0.1-0.4,0.3-0.6,0.4C276.7,235.5,276.7,235.6,276.6,235.6z M273.7,232.9
		c-0.2-0.3-0.3-0.4-0.6-0.6c-0.1-0.1-0.4-0.1-0.5,0.1c-0.1,0.2-0.1,0.4-0.2,0.7c0,0,0,0.1,0,0.2c0.1,0.1,0.2,0.3,0.4,0.5
		s0.3,0.3,0.5,0.4c0.3,0.1,0.6,0.1,1-0.1C274,233.7,273.9,233.3,273.7,232.9z M289.6,222.6c0.4,0.5,0.8,1.1,1.2,1.6
		c0.3,0.4,0.6,0.8,0.8,1.3c0.1,0.1,0.2,0.1,0.2,0.2c0.8,0.2,1.5,0.4,2.3,0.7c0.8,0.3,1.5,0.7,2.2,1.1c0,0,0,0,0.1,0
		c0-0.1,0.1-0.2,0.1-0.3c0.3-0.9,0.4-1.9,0.3-2.9c0-0.4-0.1-0.8-0.2-1.1c0-0.1,0-0.3,0-0.4c0-0.4,0.3-0.7,0.6-0.7
		c0.3,0,0.6,0.2,0.8,0.5c0.2,0.3,0.3,0.7,0.3,1c0.2,1,0.2,2,0,3c-0.1,0.6-0.3,1.2-0.5,1.7c0,0,0,0.1-0.1,0.1
		c0.1,0.1,0.3,0.2,0.5,0.3c0.3,0.2,0.7,0.5,1,0.8c0.7,0.6,1.4,1.2,2.1,1.8c0.4,0.4,0.9,0.8,1.3,1.3c0.6,0.7,1.3,1.5,2,2.2
		c0.5,0.7,1,1.4,1.5,2.2c0.3,0.4,0.5,0.8,0.7,1.3c0.4,0.9,0.8,1.8,0.8,2.8c0,0.8-0.1,1.6-0.7,2.3c-1,1.2-2.3,1.6-3.8,1.2
		c-0.9-0.2-1.8-0.6-2.6-1.1c-0.7-0.5-1.4-1.1-2.1-1.7c-0.8-0.7-1.5-1.5-2.2-2.3c-1.1-1.4-2.3-3-3.3-4.5c-0.6-0.9-1.2-1.9-1.8-2.9
		c-0.2-0.3-0.4-0.7-0.6-1c-0.2-0.3-0.3-0.5-0.6-0.8c-0.4-0.4-0.8-0.8-1-1.3c-0.1-0.3-0.2-0.6-0.1-1c0-0.1,0-0.2-0.1-0.3
		c-0.7-0.9-1.3-1.7-1.9-2.5c-0.3-0.4-0.6-0.8-0.8-1.2c-0.2-0.3-0.5-0.6-0.7-0.9c-0.3-0.4-0.6-0.9-0.9-1.4c-0.2-0.3-0.3-0.6-0.4-0.8
		c-0.5-1-0.7-2-0.7-3.1c0-0.5,0.2-1,0.4-1.4c0.3-0.3,0.5-0.7,0.8-1c0.3-0.3,0.7-0.4,1.1-0.5c0.9-0.1,1.7-0.1,2.4,0.4
		c0.7,0.4,1.3,1,1.7,1.7c0.4,0.7,0.7,1.3,0.7,2.1c0,0.9-0.1,1.8-0.6,2.7c-0.1,0.2-0.3,0.3-0.4,0.6
		C289.3,222.2,289.5,222.4,289.6,222.6z M288.1,220.6c0.4-0.5,0.4-1.1,0.4-1.7c-0.1-0.6-0.4-1.1-0.7-1.6c-0.2-0.3-0.4-0.5-0.7-0.6
		c-0.6-0.3-0.9,0.1-1,0.6c0,0,0,0.1,0,0.1c0,0.5,0.3,1,0.5,1.5c0.3,0.5,0.7,1.1,1.1,1.6c0.1,0.1,0.2,0.1,0.2,0.3
		C288.1,220.7,288.1,220.7,288.1,220.6z M292.9,228.1c0.2,0.3,0.4,0.7,0.6,1c0,0.1,0.1,0.2,0.3,0.1c0.3-0.1,0.5-0.1,0.7-0.2
		c0,0,0.1-0.1,0.2-0.1C294,228.5,293.5,228.3,292.9,228.1L292.9,228.1z M295.4,232.4c0.4,0.6,0.8,1.1,1.1,1.7
		c0.5,0.6,0.8,1.3,1.3,1.9c0.4,0.6,0.9,1.2,1.4,1.8c0.4,0.5,0.7,1,1.1,1.4c0.4,0.5,0.9,0.9,1.3,1.4c0.5,0.5,1,1,1.6,1.3
		c0.3,0.2,0.7,0.4,1,0.4c0.3,0,0.8-0.3,0.9-0.6c0.1-0.4,0.1-0.8,0-1.2c-0.2-0.8-0.6-1.6-1-2.3c-0.4-0.7-0.9-1.4-1.4-2.1
		c-0.7-0.9-1.4-1.7-2.2-2.5c-0.5-0.5-1.1-1.1-1.6-1.6c-0.7-0.6-1.4-1.2-2.1-1.8c-0.1-0.1-0.3-0.2-0.4,0c-0.1,0-0.1,0-0.2,0.1
		c-0.3,0.1-0.5,0.3-0.8,0.4c-0.2,0.1-0.5,0.2-0.8,0.2C294.9,231.5,295.2,232,295.4,232.4z M287.7,210.7c-1-0.6-1.5-1.5-1.4-2.7
		c0.1-1.1,0.6-1.9,1.6-2.4c0.8-0.3,1.6-0.3,2.3,0.1c1,0.6,1.6,1.4,1.7,2.5c0.1,1-0.3,1.8-1.3,2.5
		C289.9,211.2,288.6,211.2,287.7,210.7z M291.8,216.7c0.5-0.6,1.1-1.1,1.9-1.5c0.5-0.2,1.1-0.5,1.7-0.5c0.6,0,1.1,0.1,1.6,0.3
		c0.7,0.3,1.2,0.9,1.6,1.5c0.7,1,1.4,2,2,3c0.6,1,1.1,1.9,1.7,2.8c0.2,0.3,0.4,0.6,0.5,0.9c0.4,0.8,0.9,1.6,1.4,2.3
		c0.5,0.8,1,1.7,1.5,2.5c0.4,0.7,0.9,1.3,1.3,2c0.1,0.2,0.3,0.4,0.4,0.6c0.2,0.2,0.4,0.2,0.6-0.1c0.2-0.3,0.2-0.5,0.2-0.8
		c0-0.4-0.1-0.7-0.2-1.1c-0.2-1.2-0.4-2.3-0.7-3.4c-0.2-0.7-0.4-1.4-0.6-2.1c-0.3-1.3-0.8-2.6-1.1-3.9c-0.2-0.5-0.4-1.1-0.6-1.7
		c-0.1-0.5-0.2-1-0.3-1.5c-0.1-0.6,0.5-1.2,1.1-1.2c0.1,0.1,0.3,0.1,0.4,0.2c0.3,0.3,0.6,0.7,0.7,1.1c0.5,1.3,0.9,2.8,1.3,4.1
		c0.4,1.7,0.9,3.5,1.3,5.2c0.3,1.1,0.4,2.2,0.6,3.3c0.2,1,0.2,1.9,0,2.9c-0.2,0.8-0.5,1.4-1.2,1.9c-0.2,0.2-0.4,0.4-0.7,0.6
		c-0.6,0.5-1.4,0.7-2.1,0.6c-0.8-0.1-1.5-0.3-2.2-0.7c-0.4-0.3-0.9-0.5-1.3-0.9c-0.5-0.5-1-1.1-1.3-1.8c-0.2-0.3-0.4-0.6-0.6-0.8
		c-0.6-1-1.2-1.9-1.8-2.8c-0.5-0.8-1-1.5-1.5-2.2c-0.5-0.8-1-1.6-1.5-2.4c-0.8-1.2-1.7-2.5-2.5-3.8c-0.5-0.8-1.1-1.5-1.7-2.2
		c-0.1,0-0.1-0.1-0.2-0.2C291.7,216.9,291.7,216.8,291.8,216.7z M315.7,212.6c0.1-0.9,0.2-1.8,0.1-2.7c0-0.6,0.1-1.2,0.2-1.8
		c0.1-0.8,0.8-0.9,1.3-0.8c0.3,0.1,0.5,0.3,0.6,0.6c0.1,0.2,0.2,0.5,0.2,0.8c0.1,1.1,0.1,2.2,0,3.3c-0.1,1-0.3,2.1-0.5,3.1
		c-0.1,0.1-0.1,0.1,0,0.3c0.2,0.2,0.3,0.3,0.5,0.4c0.3,0.3,0.5,0.4,0.7,0.6c0.2,0.2,0.4,0.4,0.7,0.7c0.3,0.4,0.6,0.9,0.9,1.3
		c0.3,0.4,0.5,0.9,0.7,1.5c0.3,1.1,0.5,2.2,0.3,3.4c-0.1,0.7-0.4,1.2-0.7,1.8c-0.5,0.7-1.2,1.4-1.9,1.8c-1.1,0.6-2.2,0.6-3.4,0.1
		c-0.6-0.3-1.2-0.7-1.5-1.3c-0.2-0.2-0.4-0.5-0.5-0.8c-0.4-0.8-0.6-1.8-0.6-2.7c0-0.7,0.1-1.4,0.2-2c0-0.3,0.1-0.5,0.1-0.8
		c0-0.1,0-0.1-0.1-0.2c-0.5-0.3-1-0.7-1.6-1.1c-0.6-0.4-1.2-0.8-1.8-1.1c-0.4-0.3-0.8-0.6-1.3-0.8c-0.3-0.3-0.7-0.5-1.1-0.7
		c0,0-0.1-0.1-0.2-0.1c0,0.2,0,0.3,0.1,0.4c0,0.4,0.1,0.9,0,1.4c0,0.4-0.2,0.7-0.7,0.8c-0.3,0-0.5,0.1-0.7,0c-0.2,0-0.3-0.1-0.4-0.3
		c-0.2-0.2-0.4-0.5-0.5-0.9c-0.2-0.6-0.3-1.2-0.5-1.9c-0.1-0.4-0.2-0.7-0.3-1.1c0-0.1-0.1-0.2-0.2-0.3c-0.3-0.2-0.6-0.4-0.9-0.6
		c-0.5-0.3-0.8-0.6-1.3-0.9c-0.4-0.4-0.9-0.8-1.2-1.3c-0.6-1-1-2.1-1.1-3.2c0-0.9,0.2-1.7,0.7-2.5c0.2-0.4,0.5-0.7,0.9-0.9
		c0.7-0.5,1.5-0.8,2.5-0.7c0.7,0.1,1.3,0.4,1.7,0.9c0.5,0.6,0.8,1.2,0.9,2c0.1,0.8,0.1,1.6,0.2,2.4c0,0.2,0,0.2,0.1,0.3
		c0.4,0.2,0.7,0.4,1,0.6c0.4,0.2,0.7,0.4,1.1,0.7c0.6,0.4,1.2,0.7,1.8,1c0.5,0.3,1.1,0.6,1.6,0.9c0.5,0.3,1.1,0.6,1.6,0.9
		c0.4,0.2,0.8,0.5,1.2,0.7c0.2,0.1,0.3,0.1,0.5,0.3C315.5,213.3,315.6,213,315.7,212.6z M304.8,207.2c0-0.6,0-1.1-0.3-1.6
		c-0.1-0.4-0.3-0.6-0.7-0.7c-0.6-0.3-1.2-0.2-1.7,0.1c-0.6,0.3-0.6,0.9-0.2,1.3c0.2,0.2,0.5,0.5,0.8,0.6c0.5,0.3,1.2,0.6,1.8,0.8
		c0.1,0,0.2,0.1,0.3,0.1C304.8,207.7,304.8,207.4,304.8,207.2z M315.4,221.3c-0.1,0.5-0.1,1-0.1,1.5c0,0.3,0.1,0.6,0.3,0.8
		c0.1,0.3,0.3,0.5,0.5,0.7c0.1,0.1,0.3,0.3,0.5,0.5c0.3,0.1,0.9,0,1.2-0.3c0.2-0.3,0.2-0.6,0.2-0.9c0-0.4-0.1-0.7-0.3-1.1
		c-0.2-0.4-0.5-0.7-0.9-1.1c-0.3-0.2-0.5-0.3-0.8-0.5c-0.1-0.1-0.3-0.1-0.5-0.3C315.4,220.9,315.4,221.2,315.4,221.3z M304.1,188.3
		c0.6-0.3,1.1-0.5,1.8-0.5c0.6-0.1,1.2,0.1,1.8,0.4c0.6,0.3,1,0.8,1.3,1.2c0.5,0.7,1,1.4,1.5,2c0.7,1.1,1.4,2.1,2.1,3.2
		c0.6,1,1.4,2,2.1,3.1c0.4,0.6,0.8,1.2,1.3,1.9c0.1,0.1,0.2,0.2,0.3,0.3c0-0.2,0-0.5-0.1-0.7c-0.3-1.6-0.2-3.1,0.3-4.6
		c0.2-0.7,0.6-1.3,1-1.8c0.7-0.7,1.4-1.3,2.3-1.7c1.8-0.8,3.6-0.8,5.4,0c0.8,0.4,1.5,0.8,2.2,1.4c0.7,0.5,1.3,1.2,1.8,1.9
		c0.3,0.4,0.7,0.9,1.1,1.4c0.2,0.3,0.5,0.8,0.8,1.2c0.2,0.3,0.5,0.6,0.8,1c0.4,0.7,0.9,1.4,1.4,2.1l0,0c0.7,1.1,1.3,2.1,2.1,3.1
		c0.4,0.5,0.8,0.9,1.2,1.3c0.1,0.1,0.2,0.2,0.3,0.2c0.3,0.2,0.6,0.1,0.7-0.3c0-0.2,0.1-0.4,0-0.6c0-0.4-0.1-0.7-0.1-1
		c-0.4-1.7-0.7-3.5-1.2-5.1c-0.4-1.2-0.7-2.4-1-3.6c-0.3-1-0.6-2-0.9-3c-0.1-0.3-0.2-0.6-0.2-1c-0.1-0.6,0.3-1.2,0.9-1.3
		c0.2,0,0.4,0.1,0.6,0.2c0.4,0.3,0.6,0.7,0.8,1.1c0.2,0.8,0.5,1.6,0.7,2.4c0.3,1.1,0.6,2.2,0.9,3.3c0.2,0.9,0.5,1.9,0.7,2.8
		c0.3,1.2,0.5,2.4,0.8,3.6c0.2,1,0.2,2,0.1,3c-0.1,0.8-0.4,1.5-1,2.1c-0.3,0.3-0.6,0.6-0.8,0.8c-1.1,0.8-2.3,1-3.5,0.4
		c-0.5-0.2-0.9-0.6-1.4-1c-0.7-0.5-1.3-1.2-1.9-1.8c-0.4-0.4-0.7-0.8-1-1.2c-1.1-1.4-2.1-2.8-3.1-4.2c-0.7-0.9-1.4-1.8-2.1-2.7
		c-0.2-0.3-0.5-0.6-0.8-1c-0.4-0.4-0.7-0.7-1.2-1.1c-0.3-0.4-0.7-0.7-1.1-1c-0.4-0.2-0.7-0.4-1.1-0.5c-0.7-0.2-1.4,0.1-1.7,0.7
		c-0.1,0.3-0.3,0.6-0.4,0.9c-0.2,1-0.4,2-0.4,3c0,1.1,0.1,2.1,0.4,3.2c0.1,0.4,0.2,0.9,0.4,1.4c0.3,0.6,0.6,1,0.9,1.6
		c0.6,1,1.2,1.9,1.8,2.9c0.4,0.7,0.9,1.4,1.4,2.2c0.5,0.8,1,1.6,1.5,2.4c0.1,0.2,0.3,0.4,0.4,0.6c0.4,0.5,0.7,1.1,0.8,1.8
		c0.1,0.9,0.1,1.8-0.5,2.6c-0.5,0.7-1.3,1.2-2.1,1.5c-0.3,0.1-0.5,0.2-0.8,0.3c0,0-0.1-0.1-0.1-0.2c-0.7-1.1-1.3-2.1-1.9-3.1
		c-0.7-1.3-1.6-2.5-2.4-3.6c-0.7-1-1.3-2.1-2-3c-0.4-0.7-0.9-1.4-1.4-2c-0.7-0.9-1.3-1.8-2-2.7c-0.5-0.9-1.1-1.8-1.7-2.6
		c-0.4-0.7-0.9-1.3-1.3-1.9c-0.7-1.1-1.4-2.1-2.1-3.2c-0.4-0.5-0.7-1-1.1-1.5c-0.7-1.1-1.4-2-2.1-3c-0.5-0.7-1-1.3-1.5-2
		c-0.1-0.1-0.3-0.3-0.4-0.4C302.8,189.3,303.3,188.7,304.1,188.3z M125.1,339.9c-0.3,0.6-4.6,6.9-12.6,11.1c-3.9,1.9-8.5,1-11-0.7
		c-2.7-1.9-3.2-4.3-2.5-6.8c1.1-3.9,3.5-7.2,6.6-10c1-0.8,2-1.6,2.9-2.3c1.5-1,3.1-0.9,4.9-0.3c1,0.4,1.3,0.9,0.8,1.9
		c-0.3,0.8-0.9,1.5-1.4,2.3c-1.3,1.9-2.8,3.8-3.9,5.8c-1.2,2-2.6,4.2-2.8,6.4c-0.1,1.6,0.7,2.7,0.9,2.7c0.9,0,2.7-0.6,3.6-1.1
		c3.3-1.6,8.9-6.2,11.7-9.6c0.6-0.7,1.6-0.9,2.3-0.6C125.2,338.8,125.5,339.3,125.1,339.9z M113.5,324.8c0.6-1.3,2.5-2.2,3.9-1.6
		c0.4,0.2,0.7,0.6,0.8,0.9c0.5,1.3-0.1,2.8-1.6,3.4c-0.7,0.3-2,0.3-2.6-0.3C113.3,326.6,113.1,325.6,113.5,324.8z M146.1,344.6
		c-2.6,1.3-10.1,3-12.9,3.3c0.3,1,0.9,2.2,1.1,3.4c0.5,2.6,0.6,5.2-0.2,7.8c-1.4,4.9-6.6,7.3-12.8,7c-1.1-0.1-2.1-0.2-3.1-0.4
		c-3.6-0.9-5-3.9-4.7-6.6c0.3-2.6,1.9-4.7,3.6-6c1.7-1.3,3.7-2.4,6-3.5c0.4-0.2,0.9-0.4,1.4-0.6c0-0.3,0-0.6-0.1-1
		c-0.7-2.7-3.3-6.7-3.8-7.8c-0.7-1.8-0.7-3.7-0.1-5.5c0.8-2.5,2.4-4.2,4-5.2c1.5-0.9,2.9-1.4,4.8-1.2c1.7,0.1,3.1,1.1,3.4,2.7
		c0.2,0.9,0.1,1.8-0.1,2.7c-0.4,2.6-1.4,3.5-3.5,5.5c-0.2,0.2-0.5,0.4-0.7,0.7c1.7,2.3,2.6,3.1,3.9,5.9c1.7-0.1,6.2-0.6,12.1-3
		c1.2-0.5,2.3-1.1,3.3-0.4C148.2,342.6,147.8,343.8,146.1,344.6z M125,351.4c-2.9,1.3-5.1,2.7-6.6,4.9c-1,1.6-1.5,3.2-1.1,4.9
		c0.3,1.1,0.8,2,2.3,2.6c0.7-0.3,1.4-0.6,2-1c1.4-1,2.3-2.3,2.9-3.7C125.6,356.7,125.4,354.2,125,351.4z M127,336.9
		c2.3-2.2,2.8-4.9,1.4-6.6C126.2,332,125.5,334.9,127,336.9z M158.1,368c1.8-1.2,4.1-3.5,5.5-5c2.2-2.4,5-6.8,6.1-9.5
		c0.2-0.3,0.5-1,1.6-0.9c1,0.1,1,0.7,0.7,1.5c-0.5,1.1-2.3,4.4-3,5.5c-1.6,2.5-4.1,5.6-6.5,7.7c-1.1,1-2.4,1.8-3.7,2.6
		c-1.2,0.7-2.3,1-3.8,1.1c-3.2,0.1-5.5-1.3-5.2-3.6c0.1-1.5,0.4-3,1-4.4c1.6-3.9,3.7-6.4,5.5-9.4c0.9-1.4,1.3-2.6,1.6-4.3
		c0-0.3,0.1-1.1,0-1.4c-0.4,0.2-0.7,0.3-1,0.5c-4.7,2.3-7.2,6.3-9.6,10.1c-0.5,0.8-1,1.6-1.5,2.4c-0.7,1.1-0.8,2.6-0.7,3.8
		c0.1,0.9-0.3,1.2-1.5,1.2c-2,0-2.6-0.5-3.2-1.5c-1.6-2.8-1.5-5.7-1.2-8.7c0.3-5,1.8-10.1,4.5-14.6c2-3.4,3.9-5.8,7-8.5
		c0.5-0.5,1.6-1.3,2.2-1.7c1-0.7,2.1-0.9,3.3-0.8c1.2,0.1,1.9,0.7,2.2,1.6c0.3,0.9,0.2,1.8,0,2.7c-0.5,2.6-1.7,5.1-3.1,7.5
		c-2,3.2-4.8,6-8,8.4c-0.5,0.4-0.8,0.7-0.9,1.2c-0.3,1.5-0.6,3-0.9,4.7c0.3-0.4,0.5-0.6,0.7-0.9c1.4-1.9,2.9-3.9,4.7-5.6
		c1.3-1.2,2.7-2.2,4.4-2.9c1.3-0.6,2.8-0.9,4.3-0.9c2.6,0.1,4,1.4,3.9,3.5c0,1.5-0.5,2.9-1.1,4.3c-1.4,2.8-3.8,5.4-5.2,8.1
		c-2.5,5-2.1,7-1.4,7.1C155.6,369.3,156.3,369.2,158.1,368z M147,348.2c0.5-0.2,1.3-0.9,1.5-1.2c3.1-3.1,5.2-6.5,6.6-10.2
		c0.3-0.8,0.5-1.7,0.7-2.5c0.2-0.9,0.2-1.7-0.2-2.6C153,333,147.2,344,147,348.2z M171.8,353.4c-0.3,1.5-0.3,2.8,0.3,4.2
		c0.2,0.6,0.7,1.1,1.3,1.5c0.7,0.4,1.6,0.1,2.4-0.4c1.5-1,4.2-3.7,6.8-8.5c0.3-0.5,0.8-0.7,1.2-0.7c0.7,0.1,0.1,1.3-0.1,1.7
		c-0.7,1.4-3.4,5.4-5.2,7.2c-2.8,2.8-7.5,2.6-9.8,0.7c-0.9-0.8-1.4-1.7-1.6-2.7c-0.6-2.9,0.5-5.5,2.7-8c0.6-0.7,1.3-1.4,2.2-2
		c1.2-0.9,2.6-1.3,4.2-1.3c1.1,0,1.6,0.4,1.8,1.2c0.2,1.1,0,2.2-0.5,3.3c-0.8,1.4-2.1,2.4-4.1,2.5c-0.3,0-0.7,0-1.2,0
		C171.9,352.6,171.9,353,171.8,353.4z M172.4,351.4c1,0.1,1.6-0.3,2.1-0.8c0.6-0.7,0.9-1.5,1.1-2.3c0.1-0.5,0-1-0.2-1.5
		C174.1,348.3,173,349.7,172.4,351.4z M198.4,349.3c-1.4,1.1-5.8,3.2-7.5,3.8c0.3,0.5,0.9,1.1,1.2,1.8c0.7,1.4,1.1,2.9,1,4.5
		c-0.1,3-2.9,5.2-6.6,6c-0.7,0.1-1.3,0.2-1.9,0.2c-2.3,0.1-3.6-1.4-3.8-3c-0.2-1.5,0.3-3,1.2-4c0.8-1.1,1.9-2,3.1-3
		c0.2-0.2,0.5-0.4,0.8-0.6c-0.1-0.2-0.1-0.4-0.2-0.5c-0.8-1.4-3-3.3-3.5-3.9c-0.7-0.9-1-2-0.9-3.1c0.1-1.6,0.9-2.8,1.7-3.7
		c0.8-0.8,1.6-1.3,2.9-1.5c1.1-0.2,2.1,0.1,2.5,1c0.2,0.5,0.3,1,0.3,1.6c0.1,1.5-0.4,2.2-1.4,3.7c-0.1,0.1-0.2,0.3-0.3,0.5
		c1.4,1,2.1,1.3,3.3,2.8c1-0.3,3.7-1.3,7-3.6c0.7-0.5,1.3-1,2-0.7C199.4,347.9,199.3,348.7,198.4,349.3z M186.4,356.5
		c-1.6,1.2-2.7,2.4-3.2,3.9c-0.3,1.1-0.4,2.1,0.2,3c0.3,0.6,0.8,1,1.8,1.1c0.4-0.3,0.8-0.6,1-0.9c0.7-0.8,1-1.7,1.2-2.6
		C187.6,359.4,187.1,358,186.4,356.5z M185.5,347.8c1.1-1.6,1-3.3-0.1-4C184.2,345.1,184.2,346.9,185.5,347.8z M64,53.6
		c3.1-0.8,6-1.3,9.1-1.1c5.9,0.3,11,2.4,15.4,6.3c1.1,1,2,2.1,2.7,3.4c2.5,4.4,1.3,9.3-2.8,12.2c-2.8,1.9-6,2.3-9.2,1.9
		c-6.4-0.9-11.4-4.3-15.2-9.4c-1.8-2.4-3.1-5-4-7.8c-0.1-0.4-0.2-0.9-0.5-1.3c-0.3-0.1-0.4,0-0.6,0.1c-6.3,3.9-11,9.1-13.6,16.1
		c-1.6,4.4-1.7,8.8-1,13.4c0.7,5.6,2.6,10.8,4.9,15.9c1.6,3.5,3.4,6.9,5.2,10.3c3.3,6.2,6.5,12.5,8.6,19.3c2.2,6.9,3.5,14,3.3,21.2
		c-0.1,7.2-1.7,14-4.9,20.4c-0.5,1.1-0.5,1.1,0.3,1.9c6.9,6.5,10.8,14.6,11.6,23.9c0.7,7.6-1.4,14.6-5.5,20.9
		c-2.6,4.1-5.7,7.9-9.1,11.3c-4.3,4.2-8.6,8.3-13.2,12.3c-4.9,4.2-9.5,8.7-13.6,13.7c-3.2,3.9-5.8,8.2-7.9,12.9
		c-4.6,10.4-4.5,20.9-0.3,31.4c2.3,5.7,5.4,10.8,10,14.9c2.2,1.9,4.5,3.6,7.2,4.8c4.4,2,8.9,2.2,13.3,0.5c5.3-2.1,9.3-5.8,11-11.4
		c1-3.3,0.6-6.4-1.6-9.1c-1.9-2.4-4.4-3.5-7.5-3c-0.6,0.1-1.1,0.1-1.7,0.2c-0.5,0-0.9-0.2-1-0.7c-0.1-0.5,0.2-0.9,0.6-1
		c1.9-0.6,3.7-1.2,5.7-0.4c4.4,1.7,7.5,6,7.7,10.7c0.2,3.5-0.8,6.6-2.9,9.5c-1.1,1.5-2.3,2.8-3.6,4.1c-6.3,5.9-14.7,7.2-22.6,3.6
		c-5.3-2.5-9.6-6.2-13-10.9c-6.2-8.5-9.4-18.1-9.3-28.7c0.1-6.2,1.8-11.9,4.4-17.5c2.9-6.2,7-11.6,11.8-16.4
		c3.7-3.8,7.7-7.2,11.8-10.6c4.2-3.4,8.2-7,12.1-10.7c3.3-3.1,6.3-6.6,8.8-10.5c3.5-5.4,5.5-11.3,5.2-17.7c-0.3-9-3.7-16.9-9.9-23.5
		c-0.2-0.2-0.3-0.3-0.5-0.5c-0.3-0.3-0.6-0.3-0.8,0.1c-0.3,0.5-0.7,0.9-1,1.4c-3.2,4.2-7.3,7.2-12.5,8.6c-3.5,0.9-7.1,0.9-10.4-0.7
		c-3.7-1.7-6.3-4.5-7.3-8.5c-1.1-4.5,0.8-8.3,5-10.2c2.9-1.3,5.9-1.6,9-1.3c5.3,0.4,10.1,2.2,14.6,4.8c0.4,0.2,0.7,0.4,1.1,0.7
		c0,0,0.1,0,0.2,0c0.4-0.2,0.4-0.6,0.6-0.9c2.3-6,3.1-12.3,2.7-18.7c-0.6-8.5-2.9-16.5-6.4-24.2c-2-4.5-4.3-8.8-6.6-13.1
		c-2.3-4.3-4.5-8.6-6.3-13.1c-2.4-6-3.8-12.2-3.7-18.7c0.1-5.1,1.5-9.8,4.2-14.2c3.9-6.1,9.1-10.8,15.5-14.1c1.2-0.6,1.2-0.6,1-2.1
		c-1.4-10.9,1.2-20.6,8.6-28.9c5.3-5.9,12-9.3,19.8-10.5c6.4-1,12.7-0.6,18.8,1.9c7.3,2.9,12.9,7.9,17.1,14.5
		c4.4,6.9,6.8,14.5,7,22.7c0.1,3-0.3,5.9-1.2,8.8c-0.4,1.2-1,2.3-1.8,3.3c-0.3,0.3-0.6,0.6-0.9,0.9c-0.2,0.2-0.5,0.2-0.7,0.1
		c-0.3-0.2-0.2-0.5-0.1-0.8c0.9-1.6,1.6-3.2,2-4.9c1.2-4.8,1-9.6,0-14.4c-1.3-6.4-3.8-12.4-7.8-17.6c-4.4-5.9-10.1-10.1-17.4-11.8
		c-16.3-3.9-33.5,4.9-37.7,23.3c-0.8,3.6-1,7.2-0.8,10.9c0,0.5,0.1,1,0.2,1.4C63.9,53.1,63.9,53.3,64,53.6z M72.7,53.9
		c-2.6,0-5.1,0.4-7.5,1.2c-1,0.3-1,0.3-0.8,1.3c0.8,3.9,2.3,7.4,4.7,10.5c2.9,3.7,6.5,6.3,11.3,7.1c2.6,0.4,5.2,0.1,7.4-1.5
		c2.9-2,3.9-5.4,2.6-8.6c-0.6-1.4-1.4-2.7-2.5-3.8C83.6,55.9,78.5,54,72.7,53.9z M40.3,187c0.5,0,0.9,0,1.3-0.1
		c0.6-0.1,1.1-0.1,1.7-0.2c6-1.4,10.1-5.1,13-10.3c0.4-0.7,0-0.9-0.5-1.2c-2-1.4-4.2-2.5-6.5-3.4c-3.7-1.5-7.5-2.2-11.5-2
		c-2.1,0.1-4.1,0.7-5.8,1.9c-1.7,1.2-2.7,2.9-2.7,5c-0.1,1.4,0.2,2.7,0.8,3.9C32.2,184.8,35.8,186.8,40.3,187z M356.2,62.8
		c-0.5,0.6-0.5,1.2-0.7,1.7c-2.1,6-5.6,10.8-11.1,14.1c-3.4,2.1-7.1,3.2-11.1,3c-2.9-0.1-5.5-1.1-7.6-3.2c-2.8-2.9-3.4-6.7-1.7-10.3
		c1.1-2.3,2.8-4.1,4.9-5.6c6.4-4.5,13.4-5.8,20.9-4c1.8,0.4,1.8,0.4,1.9-1.4c0.5-6.8-0.6-13.3-3.8-19.4c-4.8-9-12.5-14.2-22.5-15.6
		c-12.5-1.7-22.4,2.8-29.8,12.9c-5.4,7.3-8,15.6-8.2,24.6c-0.1,4.1,0.6,8,2.7,11.6c0.1,0.1,0.1,0.3,0.2,0.4c0.1,0.2,0.2,0.4-0.1,0.6
		c-0.2,0.2-0.5,0.1-0.7-0.1c-0.4-0.2-0.7-0.6-1-1c-1-1.3-1.6-2.8-2.1-4.4c-1.1-4.1-1.1-8.2-0.5-12.3c1.2-8.6,4.5-16.3,10.2-22.8
		c5.2-6,11.7-10.2,19.6-11.5c12.1-2,22.9,0.8,31.8,9.6c5.1,5.1,8,11.4,9.2,18.5c0.6,3.8,0.7,7.5,0.1,11.3c-0.2,1.2-0.2,1.2,1,1.8
		c6.4,3.3,11.6,7.9,15.5,14c2.6,4.1,4,8.7,4.3,13.6c0.3,6.8-1.2,13.3-3.7,19.5c-1.7,4.1-3.7,8.1-5.8,12.1c-2.8,5.3-5.6,10.5-7.9,16
		c-2.7,6.4-4.6,13-5.3,20c-0.8,7.1-0.1,14,2.4,20.7c0.1,0.3,0.2,0.6,0.4,0.9c0,0.1,0.1,0.1,0.2,0.2c0.5,0,0.9-0.4,1.3-0.6
		c4.6-2.7,9.5-4.5,14.9-4.9c3.1-0.2,6,0,8.9,1.3c4,1.8,5.8,5.3,5,9.6c-0.6,3.4-2.5,6-5.3,7.9c-3.9,2.6-8.1,3-12.6,1.9
		c-5-1.3-9-4.2-12.2-8.2c-0.3-0.3-0.5-0.7-0.8-1c-0.3-0.3-0.4-0.7-0.8-1c-0.6,0.2-1,0.8-1.5,1.3c-3.9,4.2-6.4,9.2-8.1,14.6
		c-2.7,9.3-1.3,17.9,3.9,26c2.5,3.9,5.5,7.4,8.9,10.6c4.7,4.5,9.7,8.6,14.6,12.8c5.4,4.5,10.6,9.3,14.9,15
		c4.2,5.5,7.3,11.5,9.1,18.1c2.3,8.4,1.6,16.7-1.2,24.9c-2.2,6.2-5.3,11.9-9.9,16.7c-3,3.1-6.4,5.7-10.4,7.3
		c-7.7,3.2-14.8,2.1-21.3-3.3c-2-1.6-3.7-3.5-5-5.7c-2.1-3.5-2.8-7.3-1.7-11.3c1.1-3.7,3.5-6.2,7-7.7c2-0.9,4-0.2,5.9,0.3
		c0.5,0.1,0.7,0.5,0.6,1c-0.1,0.6-0.5,0.8-1.1,0.7c-0.4,0-0.9,0-1.3-0.1c-5.1-1.2-9.2,3.2-9.8,7.3c-0.4,2.9,0.2,5.7,1.8,8.1
		c3.9,6,9.2,9.4,16.6,9.2c2.8-0.1,5.4-1,7.8-2.3c4.2-2.3,7.7-5.4,10.5-9.3c5.5-7.8,8.5-16.4,8.4-26c0-5.9-1.7-11.4-4.2-16.6
		c-2.5-5.3-5.9-10-9.8-14.3c-4.2-4.7-9-8.8-13.7-13c-4.9-4.4-9.8-8.9-14.2-13.9c-1.9-2.3-3.7-4.6-5.4-7.1
		c-3.6-5.6-5.5-11.7-5.7-18.3c-0.1-4.8,1.1-9.4,2.9-13.8c2-4.9,5-9.2,8.9-12.8c1-0.9,0.8-0.8,0.3-1.8c-4-7.8-5.4-16.1-4.9-24.8
		c0.6-9.9,3.5-19.2,7.7-28.1c1.9-4,4-7.9,6.1-11.8c2.7-5.2,5.3-10.5,6.8-16.1c0.9-3.2,1.4-6.5,1.6-9.8c0.4-7-1.9-13.1-6.3-18.5
		C362.8,67.4,359.7,64.9,356.2,62.8z M343.3,59.1c-5-0.1-9.2,1.3-13,3.9c-2.1,1.4-3.8,3.1-4.9,5.4c-2,3.9-0.5,8.2,3.4,10.1
		c1.2,0.6,2.5,0.9,3.9,0.9c4.4,0.1,8-1.7,11.2-4.6c3.9-3.6,6-8.1,7.2-13.2c0.2-0.9,0.2-1-0.8-1.3C347.9,59.5,345.5,59,343.3,59.1z
		 M376.1,174.9c-6.1,0.1-11.5,2.2-16.6,5.5c-0.6,0.4-0.6,0.8-0.2,1.3c0.9,1.4,1.8,2.8,2.9,4.1c3.2,3.5,7,5.8,11.8,6.3
		c5.2,0.5,10.3-2.6,11.9-7.4c1.2-3.7-0.1-6.8-3.6-8.5C380.3,175.1,378.2,174.8,376.1,174.9z M143.9,292.9c-2.8,1.8-8.1,1.4-10.4,0.7
		c-2.2-0.7-6.7-3.1-8-6c0,0,0.8,13.2-0.2,20.2c-0.3,2.8-1.1,5.2-2.1,7.1c-1.6,2.8-4.3,4.3-7.4,4.1c-1.3-0.2-2.7-0.8-3.7-1.9
		c-1.5-1.4-2.6-3.5-3.2-5.9c-1.1-3.4-1.2-6.1-1-9.5c-0.2,0.4-4.9,9.6-7.8,12.2c-2.3,1.9-5.3,3.8-8.3,3.4c-0.9-0.1-1.9-0.3-2.7-0.7
		c-2.6-0.8-4.5-2.7-5.4-4.9c-1.4-3.2-1-6.5-0.4-9.3c1.1-5.4,3.1-10.9,6-17.3c0.9-1.7,1.6-3.4,2.4-5.1c1.2-2.4,2.2-4.9,3.5-7.4
		c1.3-2.7,1.5-3.7,1.4-5.5c0,0-0.2,0.1-0.3,0.1c-0.5,0.3-1,0.4-1.5,0.6c-1.1,0.1-4.1,0.8-4.6-0.9c-0.1-0.3-0.1-0.9,0.6-1.7
		c0.5-0.4,1.1-1,1.8-1.4c2.2-1.1,4.7-1.6,7.3-1.3c1.2,0.2,2.5,0.5,3.7,1c2.9,1.2,4.5,3.8,3.9,6.9c-0.4,2.3-1.1,4.6-2.1,6.9
		c-1.1,2.6-2.4,5.4-3.4,7.9c-1.3,2.9-2.6,5.9-4,8.8c-1.5,3.8-2.9,7.8-4,11.5c-0.8,2.6-0.8,4.8-0.2,7.1c1.3-0.8,2.1-1.8,2.9-2.6
		c3.6-4.4,6.1-9.5,8.4-14.6c0.3-0.7,0.7-1.6,1-2.4c0.7-1.5,0.9-3.1,2.7-2.9c1.1,0.1,3.4,1.4,3.9,2.1c0.6,0.6,0.5,1.7,0.5,2.4
		c-0.5,4.5-0.4,8.4,0.2,12.2c0.5,3.5,1.5,6,3.2,8.1c0.6-0.8,1-1.7,1.3-2.8c0.9-2.3,1.4-4.8,1.7-7.2c0.4-2.6,0.5-5,0.6-7.5
		c0.2-2.5,0.1-4.9,0.2-7.2c-0.1-2.3-0.2-4.5-0.5-6.8c-0.2-2.6-0.4-5.1-0.7-7.7c-0.3-1.5-0.4-2.9,1.4-3.3c0.4,0,1.6-0.1,2,0
		c1.4,0.1,1.9,0.9,2.1,2c0.2,0.5,0.4,1.1,0.5,1.7c0.3,0.9,0.7,2,1.2,3.1c1,3.1,3.8,7.5,5.9,9.4c0.4,0.5,3.6,2.2,8.6,1.3
		c1.4-0.2,3-0.2,3.5,0.5C145.1,290.9,145,292.4,143.9,292.9z M152.3,307.6c-0.3,0.6-4.5,7.3-11.4,12.1c-3.3,2.2-7.3,1.5-9.5-0.1
		c-2.4-1.8-3-4.4-2.6-7.2c0.7-4.4,2.6-8.1,5.5-11.4c0.9-1,1.8-1.9,2.7-2.6c1.3-1.2,2.9-1.1,4.6-0.5c1,0.4,1.2,1,0.7,2.1
		c-0.3,0.9-0.8,1.7-1.2,2.5c-1.2,2.1-2.5,4.2-3.5,6.5c-1,2.2-2.2,4.7-2.3,7.1c0,1.8,0.7,2.9,0.9,2.9c0.8,0,2.4-0.8,3.1-1.3
		c2.8-1.9,7.8-7,10.5-10.7c0.5-0.7,1.4-0.9,2.1-0.6C152.4,306.5,152.7,307,152.3,307.6z M141.5,291.2c0.5-1.4,2.4-2.5,3.8-1.8
		c0.4,0.2,0.7,0.6,0.8,1c0.5,1.4-0.1,3-1.6,3.8c-0.7,0.3-1.9,0.4-2.5-0.2C141.4,293.1,141.1,292,141.5,291.2z M185.6,241.9
		c-0.4-1.7-0.9-3.4-0.8-5.2c0-0.4,0.1-1,0.2-1.4c0.3-0.8,0.8-1.3,1.7-1.4c0.8-0.1,1.5,0,2.1,0.7c0.1,0.1,0.2,0.4,0.2,0.6
		c0.1,1,0.5,1.9,0.7,2.8c0.5,1.3,1.1,2.3,1.8,3.4c0.3,0.4,0.6,1,0.9,1.4c0.3,0.4,0.6,0.7,1,0.7c0.4,0.1,0.9,0.2,1.4,0.1
		c3.5,0,6.8,1,9.6,3c1.1,0.8,2.1,1.7,3,2.7c0.4,0.3,0.8,0.7,1.1,1.2c0.7,0.7,1.2,1.6,1.5,2.6c0.5,1.7,0.4,3.3-0.6,4.9
		c-0.7,1-1.7,1.8-2.8,2.3c-1.8,0.7-3.4,0.5-5.2-0.2c-2-0.8-3.8-1.9-5.4-3.3c-1.2-0.9-2.1-1.9-3.2-2.9c-1.3-1.1-2.4-2.4-3.4-3.7
		c-0.3,0.1-0.5,0.1-0.8,0.2c-0.8,0.3-1.5,0.7-2.3,1.2c-1.6,1.2-2.8,2.5-3.7,4.2c-1.1,1.9-1.6,3.8-2,5.9c-0.2,1.2,0,2.2,0.3,3.3
		c0.4,1.5,0.9,2.8,1.8,4c0.8,1.2,1.7,2.2,2.8,3.2c1.3,1,2.8,1.9,4.3,2.4c1.6,0.6,3,0.7,4.7,0.7c2.5,0,5-0.2,7.4-0.6
		c2.5-0.4,5-0.9,7.6-1.3c3.9-0.5,7.9-0.6,11.9,0.1c3.2,0.6,6.1,1.9,8.7,3.9c2.5,1.9,4.4,4.3,5.8,7.1c0.8,1.6,1.4,3.1,1.8,4.8
		c0.1,0.7,0.3,1.3,0.4,1.9c0.4,2.2,0.3,4.4-0.2,6.5c-0.6,2.6-1.5,5-2.9,7.3c-0.7,1.1-1.5,2.3-2.3,3.4c-0.6,1-1.4,1.8-2.2,2.7
		c-0.8,0.7-1.5,1.6-2.3,2.2c-1.3,1-2.7,2-4.2,2.8c-0.4,0.2-0.9,0.5-1.3,0.7c-2.7,1.2-5.6,2.1-8.5,2.3c-3,0.3-5.8-0.2-8.6-1.6
		c-1.5-0.7-2.7-1.6-3.9-2.7c-1.2-1.2-2.3-2.5-3-4c-1.3-2.7-1.7-5.5-1.3-8.4c0.2-1.4,0.6-2.8,1.2-4.1c0.9-1.9,2.3-3.1,4.2-3.8
		c0.3-0.2,0.7-0.2,1.1-0.3c1.7-0.1,2.6,1.3,2.2,2.7c-0.2,0.7-0.4,1.3-0.5,2c-0.4,1.8-0.2,3.7,0.6,5.4c0.4,1.3,1.2,2.5,2.1,3.5
		c1.3,1.4,2.9,2.4,4.7,3c1.3,0.5,2.6,0.7,3.9,0.8c0.5,0,1.1-0.1,1.6-0.3c1.5-0.4,2.9-0.9,4.3-1.7c1-0.7,2-1.3,2.8-2.2
		c2.1-2.2,3.6-4.9,4.2-7.9c0.2-1.4,0.3-2.8,0.4-4.1c0.1-1.7-0.4-3.1-1-4.5c-0.4-1.1-1-2.2-1.8-3.2c-1.1-1.3-2.3-2.4-3.6-3.3
		c-2.3-1.5-4.9-2-7.5-2.1c-2.7-0.2-5.4,0-8.2,0.4c-2.4,0.4-4.9,0.7-7.3,1c-3.5,0.4-6.8,0.5-10.3,0.2c-2.1-0.2-4.2-0.6-6.2-1.6
		c-0.8-0.4-1.6-0.9-2.4-1.5c-1.4-1-2.7-2.1-3.7-3.4c-1.2-1.4-2.2-3-3-4.7c-1.4-3.5-1.8-7-1.3-10.7c0.3-2.4,1.1-4.8,2.4-6.9
		c0.9-1.7,2-3.2,3.2-4.5c0.9-1,1.9-1.9,2.9-2.8c0.9-0.9,1.9-1.7,3-2.4c0.4-0.2,0.7-0.5,1.2-0.8C186.1,243.7,185.9,242.8,185.6,241.9
		z M196.3,248.9c0.6,0.7,1,1.5,1.6,2c1.1,1.2,2.4,2.1,3.7,3.1c0.7,0.5,1.4,0.9,2.2,1.1c0.2,0,0.6,0.1,0.8,0c0.5-0.2,0.9-0.5,1.1-1
		c0.2-0.5,0-0.9-0.2-1.2c-0.6-1-1.3-1.8-2.2-2.4c-0.6-0.4-1.2-0.9-1.8-1.1c-1.5-0.6-3.2-0.9-4.8-0.8c-0.1,0-0.3,0.1-0.5,0.1
		C196.3,248.8,196.3,248.9,196.3,248.9z M214,243.6c0.1-0.3,0.3-0.4,0.6-0.7c0.6-0.5,1.1-1.1,1.8-1.4c1.1-0.6,2.3-1.1,3.5-1
		c1.3,0.1,2.2,0.6,3.1,1.4c0.5,0.5,0.9,1.1,1.3,1.7c0.6,0.8,1.1,1.6,1.6,2.4c0.1,0.1,0.2,0.2,0.4,0.4c0.1-0.1,0.3-0.2,0.4-0.3
		c1-0.6,2-1.3,3-2c0.5-0.5,1-0.4,1.5-0.1c0.5,0.2,0.8,0.6,1.1,1.1c0.3,0.6,0.1,1.3-0.5,1.7c-1.1,0.7-2.3,1.5-3.4,2.3
		c-0.4,0.3-0.4,0.3-0.2,0.7c0.5,0.7,0.9,1.4,1.4,2.2c1.1,1.7,2.1,3.6,3.2,5.3c0.8,1.2,1.6,2.6,2.4,3.8c0.6,1.1,1.3,2.2,2,3.3
		c0.1,0.1,0.1,0.1,0.1,0.2c1.1,1.7,2.2,3.4,3.3,5.2c0.9,1.4,1.7,2.9,2.6,4.3c0.3,0.6,0.7,1.2,0.9,1.7c0.5,1.1,1.3,2,2,3.1
		c0.1,0.1,0.3,0.2,0.4,0.4c0.3,0.3,0.7,0.2,0.9-0.1c0.2-0.3,0.3-0.7,0.3-1c-0.1-0.7-0.2-1.5-0.3-2.2c-0.2-1.5-0.5-2.9-0.8-4.4
		c-0.2-1.1-0.4-2.2-0.7-3.2c-0.5-1.9-1-3.8-1.5-5.7c-0.2-0.9-0.4-1.7-0.7-2.6s-0.4-1.7-0.5-2.7c0-0.8,0.7-1.7,1.5-1.7
		c0.3,0,0.7,0.2,0.9,0.4c0.5,0.5,0.9,1.2,1.1,1.9c0.4,1.4,0.8,3,1.2,4.4c0.4,1.7,0.8,3.5,1.2,5.3c0.3,1.3,0.6,2.5,0.9,3.8
		c0.3,1.8,0.7,3.7,0.9,5.6c0.1,1.2,0,2.4-0.3,3.6c-0.2,1.2-0.9,2.1-1.8,2.8c-0.4,0.3-1,0.6-1.4,0.9c-0.8,0.6-1.7,0.7-2.8,0.7
		c-1.3-0.1-2.6-0.6-3.7-1.4c-1.3-0.8-2.3-1.8-3.1-3c-0.8-1.2-1.5-2.3-2.3-3.5c-0.4-0.6-0.8-1.2-1.1-1.8c-0.8-1.2-1.5-2.4-2.2-3.6
		c-0.3-0.5-0.7-1-0.9-1.5c-0.6-1-1.2-1.9-1.7-2.9c-0.3-0.5-0.6-1-0.9-1.5c-0.7-1.1-1.5-2.3-2.1-3.5c-0.6-1-1.3-1.9-1.9-2.9
		c-0.7-1.1-1.4-2.2-2-3.3c-0.4-0.7-0.9-1.4-1.2-2.2c-0.1-0.1-0.2-0.2-0.4-0.1c-0.1,0-0.1,0.1-0.3,0.2c-0.8,0.5-1.7,1.1-2.6,1.7
		c-0.6,0.4-1.2,0.5-1.7,0.1c-0.6-0.4-0.9-1-0.8-1.7c0-0.1,0-0.2,0-0.3c0-0.4,0.2-0.8,0.6-1c0.8-0.5,1.6-1.1,2.4-1.6
		c0.1-0.1,0.3-0.2,0.4-0.3C217.5,248.6,215.9,246,214,243.6z M270.1,261.6c0.2,2.1,0.2,4.1-0.4,6.1c-0.4,1.3-0.9,2.4-1.8,3.5
		c-0.9,1-2.1,1.7-3.2,2.4c-0.6,0.3-1.2,0.6-1.9,0.7c-1.3,0.3-2.5,0.2-3.8,0c-1.3-0.3-2.5-0.7-3.6-1.3c-0.8-0.4-1.5-0.8-2.2-1.3
		c-1-0.7-1.9-1.5-2.9-2.3c-0.9-0.8-1.8-1.7-2.5-2.6c-0.8-0.9-1.4-1.8-2.1-2.8c-0.8-1.2-1.6-2.5-2.1-3.9c-0.4-0.8-0.7-1.7-0.9-2.5
		c-0.6-2.2-1-4.3-0.9-6.6c0.1-2.1,0.7-4,1.8-5.8c0.7-1,1.6-1.9,2.7-2.6c0.7-0.4,1.4-0.9,2.1-1.3c1-0.5,1.9-0.8,3-1
		c2.1-0.6,4.1-0.2,6.2,0.2c0.1,0,0.3,0,0.4,0.1l0.1-0.1c-0.1-0.1-0.2-0.3-0.3-0.4c-0.6-1-1-2-1-3.2c0-1.1,0.4-2,1-2.8
		c1.1-1.3,2.6-2,4.2-2.4l0.1,0c0.1,0.1,0.2,0.1,0.2,0.3c1.2,2.2,2.5,4.3,3.8,6.5c0.9,1.4,1.7,2.9,2.6,4.5c1.2,1.9,2.3,3.8,3.5,5.8
		c1.4,2.5,2.9,4.9,4.5,7.3c0.4,0.4,0.7,0.9,1.1,1.4c0,0.1,0.1,0.2,0.2,0.3c0.4,0.5,1.1,0.3,1.2-0.2c0.2-0.5,0.1-1.1,0.1-1.6
		c-0.4-2-0.7-4-1.1-6c-0.3-1.7-0.8-3.3-1.2-5.1c-0.4-1.5-0.8-3.1-1.2-4.6c-0.3-0.9-0.5-1.8-0.7-2.8c-0.1-0.5-0.2-0.9-0.2-1.4
		c-0.1-1,0.8-1.8,1.7-1.7c0.4,0.1,0.6,0.3,1,0.6c0.5,0.5,0.8,1.3,1,2c0.4,1.2,0.7,2.4,1,3.6c0.4,1.5,0.7,3.1,1.1,4.7
		c0.3,1.5,0.6,3,0.9,4.5c0.3,1.4,0.5,2.9,0.8,4.2c0.1,1,0.3,2,0.2,3c0,1,0,1.8-0.3,2.7c-0.3,1-0.9,1.9-1.8,2.5
		c-0.5,0.4-1,0.8-1.5,1.1c-0.7,0.5-1.6,0.6-2.5,0.5c-1.5-0.1-2.8-0.6-4-1.3c-0.8-0.5-1.5-1.1-2.1-1.8c0-0.1-0.1,0-0.2-0.1l-0.1,0
		C270.1,261.1,270.1,261.3,270.1,261.6z M258.9,265c0.3,0.2,0.5,0.6,0.8,0.9c0.5,0.5,0.9,1.1,1.5,1.6c0.6,0.6,1.4,1.2,2.3,1.5
		c1,0.3,2-0.2,2.5-1c0.3-0.6,0.5-1.3,0.7-2c0.6-1.9,0.7-3.8,0.6-5.8c-0.1-1.4-0.3-2.9-0.7-4.2c-0.2-0.6-0.5-1.2-0.9-1.8
		c-0.3-0.5-0.6-1-1-1.5c-0.7-1.2-1.4-2.4-2.2-3.7c-0.4-0.7-0.9-1.4-1.3-2.1c-0.4-0.7-0.9-1.3-1.6-1.8c-0.5-0.3-1-0.6-1.6-0.9
		c-1-0.5-2-0.9-3.1-1.1c-1.4-0.2-2.7,0-3.7,1c-0.1,0.1-0.3,0.3-0.4,0.5c-0.3,0.4-0.3,0.8-0.4,1.2c-0.1,1.4,0.1,2.6,0.5,3.9
		c0.3,1.1,0.7,2.2,1.1,3.2c0.4,1,0.8,2.1,1.2,3.1c0.5,0.9,1,1.8,1.5,2.6c0.7,1.2,1.4,2.4,2.1,3.5C257.5,263.2,258.2,264.1,258.9,265
		z"/>
	<path fill="#D3698E" d="M232.8,47.4c1.3,2.6,1.4,5.5,0.8,8.3c-0.7,3.1-1.9,5.9-3.5,8.6c-2.3,3.9-5.1,7.4-8.2,10.7
		c-1.6,1.6-3.1,3.2-4.7,4.8c-1.6,1.6-2.9,1.6-4.6,0.2c-0.9-0.8-1.8-1.8-2.5-2.8c-3.3-4.4-6.3-8.9-8.9-13.7
		c-1.8-3.3-3.1-6.7-3.5-10.4c-0.1-1.3,0-2.5,0.3-3.7c0.7-2.8,2.8-4.6,5.7-4.8c0.9-0.1,1.8,0,2.7,0.2c4.2,1,7.8,3,10.2,6.7
		c0.2,0.4,0.5,0.7,0.8,1.2c1.3-1.6,2.4-3.1,3.7-4.5c1.4-1.5,3-2.7,4.9-3.4C228.9,43.6,231.4,44.5,232.8,47.4z M52.2,251.2
		c2.7-2,5.3-3.9,7.8-6.1c1.1-0.9,2.3-2.8,3.9-2.4c2.6,0.6,1.4,3.1,1.1,5c-1.4,7.5,1.8,12.9,4.6,19.5c1.7,4,2.1,8.4-0.2,12.2
		c-4.5,7.5-13.2,5.8-17.3-0.6c-5.2,6.4-14.5,8.4-18.6-0.4c0,0,0,0,0-0.1c0,0,0,0,0-0.1C29.9,266.7,44.4,257,52.2,251.2z M43.6,263.3
		c-3.1,3.2-8.6,9.2-6.4,14.1c0.9,2,5.4,3.5,7.3,2.8c1.3-0.5,2.2-1.3,3.1-2.3c1.6-1.6,2-3.9,3.4-5.4c0.7-0.8,1.3-1.4,2.4-0.9
		c1.9,0.8,1.2,3.1,1.7,4.6c0.9,2.6,6.1,5.1,8.6,3.6c1.1-0.6,2.1-2,2.6-3.1c1.2-2.3,1-4.9,0.2-7.3c-1.2-3.9-3.7-7.1-4.8-11.1
		c-0.8-2.9-1.1-5.9-0.9-8.9c-2,1.6-4,3.1-6.1,4.7C50.9,257,47,259.9,43.6,263.3z M333,149.2c2.8,5.6,1.6,11.7,1.4,17.7
		c-0.1,2.3-0.1,4.7,0.3,7c0.2,1.5,1.4,3.4,1.4,4.8c0,0.9,0.3,1.4-0.6,2.1c-1.1,0.9-1.8,0.2-3-0.2c-3.3-1-6.6-0.6-10,0
		c-8.4,1.5-24.5,5.7-26.8-7c-1.7-9.4,7.9-15.4,16.2-14.7c-2.7-7.7-0.2-19.6,9.7-19.4C326.8,140.5,330.8,144.8,333,149.2z M327,147
		c-0.9-1-2-1.9-3.1-2.6c-2.5-1.5-2.6-1.4-5.4,0.2c-2.6,1.6-3.5,2.5-4,5.5c-0.2,1.1-0.2,2.3-0.2,3.4c0.2,2.4,1.1,4.3,2.3,6.3
		c0.7,1.1,1.6,2.1,0.5,3.3c-1.5,1.6-4.5-0.5-6.1-0.7c-5.6-0.7-12.5,3.6-11.8,9.8c0.6,5.7,7.4,7.3,12.2,6.9
		c6.8-0.6,13.3-3.4,20.2-2.5c-1.5-7.5,0.8-15.2-0.6-22.6C330.1,151.5,328.9,149.1,327,147z M83.7,240c-1.3,1.5-2.4,5.8-5,5.5
		c-2.5-0.3-2.8-4.7-3.9-6.3c-2-3.2-5.4-5.8-5.8-9.9c-0.4-3.2,1.4-6.7,4.7-7.6c2.8-0.7,4.2,1.9,6.5,1.9c0.8,0,2.8-1.9,3.9-2.1
		c1-0.2,2.1-0.2,3.1,0.2c3.4,1.1,5.1,4.5,5.2,7.9C91.3,234.4,86.8,236.4,83.7,240z M83.8,234.2c1.9-1.6,4.9-3.7,4-6.6
		c-0.6-1.9-3.6-2.3-4.9-1.1c-0.6,0.6-0.8,1.5-1.2,2.2c-0.8,1.1-1.6,2-3,1.3c-0.8-0.3-0.9-0.8-1.2-1.5c-0.5-1.1-1.1-5.1-3.7-2.1
		c-0.9,1-0.3,3,0.1,4.1c1.3,3,3.9,5.3,5.6,8.1C80.7,237.1,82.2,235.6,83.8,234.2z"/>
	<path fill="#FF4257" d="M374.3,412.1c-0.1-0.1-0.2-0.3-0.3-0.4l-0.1-0.1c-4.5-5.9-8.5-12.6-11.8-19.9c-1.9-4.1-3.8-8.2-5.7-12.3
		l-0.4-0.9c-1.9-4.2-4.4-8.4-7.3-12.5c-4.5-6.3-10-11.1-16.3-14.5c-8.1-4.3-16.8-7-25.8-7.9c4.8-2.5,8.5-6.2,11-10.8
		c1.5-2.7,2.6-5.5,3.4-8.3c0.5-1.6,0.9-3.2,1.3-4.8c0.7-2.4,1.3-4.9,2.1-7.4c2.3-7,4.6-12.2,7.3-16.8c5.8-9.7,14.3-16.2,25.4-19.5
		c3.9-1.1,8.3-1.9,13.3-2.4c1-0.1,1.9-0.2,2.9-0.3l1.2-0.1c0.7-0.1,1.8-0.2,2.2-1.3c0.4-1.3-0.5-2-1.2-2.4c-0.3-0.2-0.5-0.4-0.8-0.5
		l-2.7-1.7c-2.1-1.4-4.2-2.8-6.4-4.1c-6.4-4-13.5-7.1-21.1-9.3c-10.3-2.9-19.9-3.6-29.3-2.2c-10.4,1.6-19.1,5.2-26.6,11.2
		c-5.9,4.7-10.9,10.6-15.2,18c-2.3,4-4.4,8.1-6.3,12.2c-1.1,2.2-2.2,4.4-3.3,6.6c-3.9,7.5-8.3,13.7-13.4,18.9
		c-3.4,3.4-7.6,7.2-13.2,8.8c-0.6,0.2-1.1,0.3-1.7,0.5c-1.3,0.4-2.6,0.9-3.9,1c-3.6,0.3-7.4,1-11.2,2.1c-2.1,0.6-4.3,1.2-6.4,1.9
		c-2.6,0.8-5.3,1.6-8,2.3c-8.9,2.4-16.5,2.9-23.7,1.5c-5.8-1.2-10.9-3.5-15.3-7.1c-6.7-5.5-9.3-12.7-7.9-21.9
		c0.5-3.7,1.5-7.5,3.2-12.5c0.3-1,0.7-2,1-3c1.9-5.4,3.8-11,5-16.7c1.3-6,1.5-10.9,0.8-15.5c-0.5-2.9-1.4-6.7-3.9-9.9
		c-0.1-0.1-0.2-0.2-0.3-0.3c-0.1-0.1-0.1-0.1-0.2-0.2l0.3-0.2c0.5-0.3,1-0.7,1.5-1c1.6-1.1,2.8-2.6,3.7-4.5c1.2-2.5,0.7-4.9-1.4-6.8
		c-1.6-1.4-3.5-2.1-5.7-2.2c-5.9-0.2-11.7,1.2-17.6,4.3c-5.8,3-10.9,7.1-15.1,12.2c-0.1,0.1-0.1,0.2-0.2,0.2l0,0
		c0.6-3,0.6-6.1-0.2-9.5c-1-4.8-3-8.6-5.9-11.5c-2-2-4.2-3-6.6-3.2c-2-0.1-3.5,0.8-4.4,2.6c-0.5,1-0.8,2.1-0.9,3.4
		c-0.1,1.3-0.2,2.5,0,3.8c-1.5,0.2-3,0.6-4.7,1.4c-2.9,1.4-5.8,3.3-9,6.1c-5.6,4.8-10.2,10.8-14.1,18.1
		c-7.5,13.9-11.4,28.6-11.6,43.6c-0.1,10.2,1.5,20,4.7,29.3c5.8,16.5,16.7,28.9,32.3,36.8c10.8,5.5,22.7,8.3,36.5,8.7
		c9.4,0.3,19.3-0.6,31.3-2.7c12.6-2.2,25.9-5.9,40.6-11.2c12.2-4.4,21.6-9.1,29.6-14.6c0.3-0.2,0.4-0.2,0.8,0.1
		c4.1,2,7.9,5,11.9,9.4c4.1,4.4,7.6,9.5,10.9,15.6l1.4,2.5c1.6,3,3.3,6,5,9c4.7,8,10.9,14.1,18.5,18c4.5,2.3,9.4,3.8,14.9,4.6
		c3.2,0.4,6.6,0.6,10.3,0.6c3.8-0.1,7.7-0.3,11.5-0.5c3.8-0.2,7.6-0.5,11.5-0.5c5.3-0.1,9.9,0.3,14.4,1.2c3.5,0.7,6.9,1.6,9.8,2.4
		c1.2,0.3,2.5,0.6,3.9,0.5c0.8-0.1,1.4-0.5,1.7-1C374.8,413.6,374.7,412.8,374.3,412.1z M341.3,387.8c2.7,2.7,5.4,5.5,8,8.2
		c0.7,0.7,1.4,1.4,2.1,2.2c-3.1-1.7-6.1-3.6-9.1-5.5c-3.1-1.9-6.3-3.9-9.5-5.7c-4.5-2.6-9.1-5.1-13.6-7.7c-7.9-4.5-16-9.1-24.1-13.6
		l-0.7-0.4c-7.7-4.2-15.6-8.6-23.7-12.3c-3.9-1.8-8.2-3.7-12.7-5.3c1.5,0.2,2.9,0.5,4.3,0.8c11.1,2.4,20.9,5.1,30,8.3
		C310.5,363,326.9,373.5,341.3,387.8z M287.2,373.5c-4.1-4.4-8.4-9.1-13.4-13.2c-3.6-2.9-7.3-5.5-11.1-7.7c6,2.6,12.3,5.7,19.3,9.5
		c8.5,4.6,17.1,9.5,25.3,14.3c6.4,3.7,13.1,7.5,19.7,11.2c3.9,2.2,7.9,4.5,11.7,6.7c3.3,1.9,6.6,3.8,10,5.7
		c-4.4-1.6-9.3-2.8-14.8-3.7l-1.6-0.3c-6-1-12.1-2-18.1-3.8c-8.6-2.7-15.6-6.9-21.4-12.7l-1-1.1
		C290.3,376.8,288.7,375.2,287.2,373.5z M267,363.2c2.3,3,4.6,6.1,6.7,9.2c1.9,2.8,4,5.6,6.1,8.3c7,9.1,16.1,15.9,27.1,20.2
		c4.6,1.8,9.7,2.8,15.4,3.2c7.3,0.4,13.8,1,19.7,1.7c0.9,0.1,1.8,0.2,2.7,0.4c-4.7,0-9.3,0.4-13.9,0.7c-1.8,0.1-3.6,0.3-5.4,0.4
		c-6,0.4-10.5,0.3-14.7-0.2c-10.7-1.3-19.4-6.2-26-14.8c-2.6-3.3-4.7-7-6.6-10.4c-2.6-4.8-4.8-8.6-7-11.9
		c-3.7-5.7-7.7-10.5-12.2-14.5C261.9,357.5,264.7,360.2,267,363.2z M342.7,402.9c-6.6-0.8-12.7-1.3-18.8-1.5
		c-11.5-0.5-22-4.6-32.1-12.7c-4.7-3.8-9.1-8.6-13.6-15.2c-3.3-4.7-6.3-8.9-9.2-12.6c-0.2-0.3-0.4-0.5-0.6-0.8
		c0.8,0.6,1.6,1.2,2.3,1.8c5,4,9.4,8.7,13,12.8c2.6,3,5.5,5.9,8.7,8.9c5.8,5.4,12.6,9.3,21.1,11.9c4.7,1.4,9.9,2.5,16.4,3.4
		c8.5,1.1,15.9,3,22.5,5.6c-0.3-0.1-0.7-0.2-1-0.2C348.5,403.6,345.6,403.2,342.7,402.9z M283.5,350.4c-9-2.5-16.4-4.2-23.5-5.6
		l-0.6-0.1c-0.7-0.1-1.5-0.3-2.2-0.4c-1-0.1-2-0.2-3-0.1l-0.2,0c-0.1,0-0.2,0-0.2,0c0-0.1,0-0.2,0-0.3c0.1-0.1,0.2-0.2,0.4-0.2
		c1.1-0.1,2.3-0.2,3.4-0.2c4.3,0.2,8.9,0.5,13.5,1.2c8.8,1.4,17.8,3.4,26.6,6.1c9.5,2.9,17.9,6.3,25.6,10.6
		c10,5.5,18.5,13.1,25.4,22.4c2.8,3.8,5.6,7.8,8.6,12.4c2.1,3.1,4.2,6.2,6.7,9.5c-2.2-1.6-4.2-3.3-6.2-5.1c-3.1-3-6.1-6.1-9.1-9.2
		c-0.7-0.8-1.4-1.5-2.1-2.2c-8.2-8.6-16.1-15.5-24.2-20.9C311,360.3,297.9,354.4,283.5,350.4z M111.3,240c0.7-0.2,0.7-0.2,1,0.5
		c0.7,1.6,1.4,3.4,2.1,5.4c1.9,5.7,3.6,11.6,5.2,18.3c0.2,0.7,0.3,1.3,0.5,1.9c0.7,2.2,1.9,3,4.2,2.7c3-0.3,6.1-1.1,10.1-2.4
		c5.9-2,11.3-5.4,16-8.4c1.6-1,3.2-2.2,4.7-3.2c1.7-1.2,3.5-2.5,5.3-3.6c0.1-0.1,0.2-0.1,0.3-0.2c0.1-0.1,0.3-0.2,0.5-0.3
		c0.7-0.4,0.9-0.3,1.5,0.3c2.2,2.6,2.9,5.7,3.4,8.5c0.7,4,0.5,8.3-0.7,13.6c-1.2,5.5-3.1,10.9-5,16.1c-0.3,0.9-0.7,1.8-1,2.7
		c-1.5,4.4-3.1,9.1-3.9,13.9c-2.1,12.5,2,22.1,12.2,28.7c1.9,1.2,4,2.2,6.5,3.2c5.8,2.2,12.1,3.1,19.3,2.5
		c6.2-0.5,12.5-1.9,20.6-4.6c6.4-2.2,11.8-3.5,16.9-4.1c3.9-0.5,6.8-0.4,9.4,0.4c3.9,1.1,6.9,3.5,9.1,7.2c0.1,0.2,0.3,0.5,0.4,0.8
		c1.7,3.7,0.8,6.5-2.9,8.9c-0.4,0.2-0.7,0.5-0.9,0.7c-0.3,0.3-0.6,0.5-0.9,0.7c-2.1,1.2-4.3,2.3-6.2,3.1
		c-16.8,7.5-35,13.5-54.2,17.8c-11.1,2.5-22.4,4.1-33.8,4.7c-12.5,0.7-23.6-0.7-33.8-4.5c-18.1-6.7-30.4-19.3-36.7-37.5
		c-2.7-7.7-4.1-15.7-4.3-24.6c-0.1-2.3,0-4.5,0.1-7.4l0-0.8c1.4-16.3,6.5-31.1,15.2-43.9c3.7-5.4,7.8-9.7,12.6-13.1
		c1.6-1.1,3.4-2.2,5.8-3.5C110.4,240.3,110.8,240.2,111.3,240z M319,295.4l-1.8,1.9c-1.2,1.2-2.5,2.5-3.7,3.7l-1.3,1.3
		c-4.5,4.6-9.1,9.3-13.9,13.6c-4.9,4.3-10.2,8.1-15.9,11.4c-7.8,4.5-16.5,7.3-26.4,8.3c-0.4,0-0.8,0.1-1.3,0.1
		c-1.1,0.1-2.2,0.2-3.3,0.5c-0.2,0.1-0.3,0.1-0.5-0.3c8.5-2.8,16.6-7.2,25.6-13.9c6.3-4.7,12.6-10.6,19.6-18.4
		c1.3-1.4,2.6-2.8,3.8-4.1c9.8-10.2,21.5-16.9,34.9-19.8c1-0.2,2.1-0.5,3.1-0.7c1.7-0.4,3.4-0.8,5.1-1.1
		C334.2,282.3,326.1,288.2,319,295.4z M297.8,297c-1.5,1.5-2.9,3-4.4,4.6c-2.2,2.3-4.5,4.7-6.8,7c-9.8,9.6-20.1,16.8-31.3,21.9
		c5.2-2.9,10.2-6.5,14.9-11.1c5-4.9,9.3-10.5,13.5-15.9l0.3-0.3c0.6-0.8,1.2-1.6,1.8-2.4c2.5-3.2,5-6.6,7.7-9.7
		c1.9-2.2,4.3-4.9,6.8-7.2c6.6-6.2,14.5-10.3,23.7-12.2c6.3-1.3,13-1.7,19.9-1.1c5.4,0.5,10.3,1,15,1.5l-4.1,0.7
		c-6.5,1.1-13.5,2.4-20.5,3.8C320.5,279.5,308.2,286.4,297.8,297z M317.7,269.9c-7.7,2.6-14.6,6.7-20.3,12.4
		c-4.1,4.1-8.1,8.6-12.1,13.9c-3.9,5.2-8.4,11.1-13.1,16.4c-6.6,7.4-14.7,13.4-24,17.7c-0.3,0.2-0.7,0.3-1,0.4
		c-0.4,0.2-0.8,0.3-1.2,0.5c0,0-0.1,0-0.1,0l0,0c0.6-0.3,1.1-0.7,1.7-1c5.6-3.3,10.8-7.7,16.5-13.6c4.7-5,9.2-10.8,13.6-17.9
		c3.5-5.7,7-10.8,10.8-15.7c4.3-5.6,8.4-9.5,13.1-12.5c8-5.1,17-7.8,26.9-8.2c4.1-0.2,8.2,0.1,12.4,0.6c4.9,0.7,9.9,1.9,15.1,3.6
		c2.8,1,5.7,1.9,8.5,2.9c-0.5,0-0.9-0.1-1.4-0.1c-2.4-0.3-4.9-0.6-7.3-0.8c-3.7-0.4-7.5-0.9-11.2-1.3
		C334.7,266.4,326,267.2,317.7,269.9z M328.5,259.5c-6.8,0.2-12.6,1.2-17.8,3.2c-9.6,3.5-17.6,9.4-23.8,17.5
		c-4.2,5.5-8.1,11.1-11.5,16.6c-5.2,8.6-11,15.8-17.7,22c-4,3.8-7.9,6.7-11.8,9c-0.5,0.3-1,0.6-1.6,0.8c-0.4,0.2-0.8,0.4-1.2,0.6
		c-0.6,0.3-1.2,0.3-1.8,0.1c5.1-1.9,8.9-5.5,12.3-9c5-5.2,9.2-11.2,13-18.5c1.4-2.8,2.9-5.7,4.3-8.6l0.6-1.2
		c3.1-6.3,6-11.1,9.2-15.3c9.4-12.2,22-19.3,37.6-21.1c7.9-0.9,16.1-0.1,25.1,2.3c7.2,1.9,14.3,4.8,21.7,8.9l0.1,0.1
		c-1.1-0.4-2.2-0.8-3.3-1.2c-4.4-1.7-9.2-3.4-14.2-4.4C341.3,259.9,334.8,259.3,328.5,259.5z M254.3,339.4c1.4-0.1,2.7-0.2,4-0.3
		c9.8-1,19.2-4.2,28-9.6c7.5-4.6,14.6-10.5,22.2-18.4c1.4-1.5,2.9-3,4.3-4.5c2.9-3.1,6-6.3,9.1-9.3c2.6-2.5,4.9-4.8,7.4-6.8
		c-2.6,2.8-5,6-7.2,9.8c-1.2,2-2.3,4.1-3.4,6.1c-1,1.8-2,3.6-3,5.4c-2.9,5-5.6,9-8.6,12.5c-5.6,6.6-12.9,11-21.7,13.3
		c-9.7,2.5-18.7,3.2-27.7,2.2c-1.4-0.2-2.9-0.2-4.3-0.2c-0.1,0-0.2,0-0.3,0L254.3,339.4z M319.5,355.6c-9.6-4.6-19.7-8.1-30.1-10.7
		c-3-0.7-6.5-1.5-10.1-2.2c4.5-0.8,8.1-1.7,11.4-2.9c8.5-3,15.6-8.5,21.3-16.4c3.3-4.6,6-9.5,8.5-14.2c0.4-0.8,0.9-1.7,1.3-2.6
		c0.8-1.5,1.5-3,2.4-4.5c-2.5,5.7-4.1,11.4-5.2,16.1c-1.1,4.3-2.2,8.2-4,11.9c-3.4,6.8-8.5,10.9-15.3,12.4c-0.3,0.1-0.7,0.2-1,0.3
		c-0.2,0.1-0.4,0.1-0.6,0.2c-0.6,0.2-1.1,0.5-1.5,1.1c-0.2,0.2-0.6,0.8-0.3,1.4c0.2,0.4,0.6,0.6,1.2,0.7c1.1,0.1,2.2,0.1,3.5,0.1
		c9,0.1,17.8,2.2,26.8,6.4c7.7,3.5,14.1,8.9,19,16c2.8,4.1,5.4,8.5,7.6,13l0.3,0.5c1.6,3.2,3.2,6.4,4.7,9.7c1.2,2.5,2.4,4.9,3.7,7.2
		c-0.3-0.5-0.6-0.9-0.9-1.4l-2.6-3.9c-2.2-3.4-4.6-6.9-6.9-10.4C344.4,371.4,333.6,362.3,319.5,355.6z M184.8,49.1
		c0.6,3.3,0.1,6.5-0.4,9.7c-1.2,6.6-3.2,12.9-5.2,19.3c-0.1,0.2-0.2,0.5-0.2,0.7c-0.9,2.2-2.4,2.9-4.6,2.1c-2.5-0.9-4.9-2.1-7-3.6
		c-5.5-3.9-10.5-8.4-14.8-13.6c-1.7-2-3.1-4.2-3.9-6.7c-0.6-1.7-0.9-3.5-0.5-5.4c0.6-2.7,2.3-4.2,5.1-4.4c1.6-0.1,3.1,0.2,4.6,0.8
		c3.9,1.5,7.3,3.5,10.4,6.4c0.5,0.5,1,0.9,1.6,1.5c0.3-1.7,0.5-3.1,0.8-4.5c0.5-2.1,1.2-4.1,2.3-5.9c0.7-1.2,1.6-2.3,2.8-3
		c1.7-1.1,3.4-1.1,5.1,0.1C183.1,44.2,184.3,46.5,184.8,49.1z M278.2,55.2c-0.6,5.6-2.6,10.8-5.2,15.7c-1.7,3.2-3.6,6.2-5.9,9
		c-1.6,2-2.8,2.2-5.2,1.2c-0.7-0.3-1.4-0.7-2-1.1c-5-3.3-9.5-7.3-13.3-12c-0.8-1-1.5-2-2.1-3.1c-0.8-1.5-1.4-3.2-1.6-4.9
		c-0.5-3.6,2-6.6,5.6-6.7c4.2-0.2,7.8,1.3,11,3.9c0.3,0.3,0.7,0.5,1,0.8c0,0,0.1,0,0.2,0c0.1-0.6,0.3-1.3,0.5-2
		c0.6-2.7,1.6-5.2,3.2-7.5c1.1-1.6,2.4-2.9,4.1-3.8c3.1-1.7,5.7-1.1,7.6,1.8C278,49,278.6,52,278.2,55.2z M176.9,304.6
		c-0.8-5.5-0.8-16.8,14.7-7.5c0.5,0.3,0.9,0.9,0.8,1.6c-0.2,3.7-0.5,16.9,6.5,24.5c0.9,1,0.3,2.6-1.1,2.8
		c-9.9,0.9-35.6,2.2-34.8-9.5c0.7-10.5,7.9-10.6,11.9-9.9C176,306.7,177.1,305.7,176.9,304.6z"/>
</g>
</svg>
