<?xml version="1.0" encoding="utf-8"?>
<!-- Generator: Adobe Illustrator 18.0.0, SVG Export Plug-In . SVG Version: 6.00 Build 0)  -->
<!DOCTYPE svg PUBLIC "-//W3C//DTD SVG 1.1//EN" "http://www.w3.org/Graphics/SVG/1.1/DTD/svg11.dtd">
<svg version="1.1" id="Layer_1" xmlns="http://www.w3.org/2000/svg" xmlns:xlink="http://www.w3.org/1999/xlink" x="0px" y="0px"
	 viewBox="0 0 432 432" enable-background="new 0 0 432 432" xml:space="preserve">
<path fill="#231F20" d="M106.3,234.6c-1.7,3.8-6.4,6.5-10,4.1c-5.6-3.8-6.8-19.2-7.1-32.7c-0.1-8.3,0.7-15.9,0.3-19.3
	c-1.7,5.2-5.6,25.6-7.8,35.8c-0.6,3-0.4,4.7-0.2,6.3c1,5.3-0.3,7.3-5.4,3.8c-4.1-2.9-4.9-9.2-5.6-14.9c-1.2-8.8-2.4-17.6-3.3-26.4
	c-1.6,3.8-5.3,26.2-11.9,38.8c-4,7.8-11.2,5.6-11,0.3c0.1-2,0.9-2.8,2.6-1.5c2.5,1.8,2.6,1.4,4.2-1.5c3.1-5.8,6.4-17.4,7.7-22
	c3.6-13,5.6-25.5,7.3-39.6c0.4-4.5,2.3-6,5.5-2.1c3,3.7,3.9,11.6,4.7,18c1,7.5,2.2,21.2,3.1,27.6c2.3-8.8,8.8-38.3,12.7-48.7
	c1-2.5,1.5-3.8,4.5-2.2c3.1,1.7,3.7,7.2,3.9,13.1c0.3,13.2-3.4,51.8-0.1,60.2c0.5,1.4,1.1,2.5,2.6,1.3
	C105.9,230.7,108.2,230.6,106.3,234.6z M152.6,207.4c-4.9,9.5-14.1,33.8-25.7,34.7c-3.3,0.3-6.7-1.2-10-5.2
	c-5.2-6.5-6.5-17.9-6.1-25.3c0.5-11.8,4.3-23.1,10.1-25c5.4-1.7,15.9,1.7,13.6,8.9c-2.1,6.3-9.4,6.8-13.6,11
	c-0.3,0.5,1.5,24.1,7.1,28.2c5.1,3.9,16.8-19.5,21.3-29.2C151.1,201.7,156.2,200.3,152.6,207.4z M121.4,199.1c1.8-0.2,4.3-2.3,6-4.5
	c1.6-2.3,1-3.6-0.3-3.9C122.7,189.8,121.9,196.3,121.4,199.1z M177.7,199.9c-6.5-4.1-11.4,7.8-13.8,15c-1.6,4.8-1.5,10.7-3,16.4
	c-2.9,10.4-11.4,8.1-11.2,1.2l-0.5-33.2c0-3.6-0.6-7.5,4.9-8.1c2.6-0.2,6.1,1.3,7.4,6c0.9,2.8,0.4,7.5,0.7,10
	c3.6-5,6.7-14.5,14.3-14.3c2.2,0.1,3.9,1,4.8,2.4C182.8,198.1,179.6,201,177.7,199.9z M245.7,206.9c-2.4,6.2-4.9,12.5-7.8,18.3
	c-2,4.1-5.5,10-9.9,11c-1.7,0.3-3.9-0.2-5.3-2.3c-3.7-5.3-0.8-19.6-0.2-28.2c0.8-12.5-8.6,9.1-9.4,12.4c-1.7,6-3,12-4.1,15.5
	c-1.1,3.4-5.6,4.7-6.7,0.5c-1.2-4.8-0.2-11.3,0-17.8c0.1-2.3,0.9-12.5-0.9-13c-2.9-1-7.9,24.2-9.3,30.1c-2.4,10.4-9.7,3.5-9.7-1.2
	c0-5.8,1.1-25.3,2.5-35.1c1.3-9.4,7.6-4.2,8.3,0.2c0.4,3.3-0.1,7.5,0.3,10.9c1.5-4.7,7.6-16,13.8-12.5c5.1,2.9,2.6,14.8,2,20.8
	c1.1-4.3,4.8-15,9.6-19.6c3.5-3.5,9.6-4,11.8,1.4c2.5,6.1-0.3,17.8-0.5,25c-0.2,6.4,1.6,5.9,4.2,0.9c2.9-5.4,6.2-13.1,8.6-19.1
	C244.3,201.2,248.5,199.8,245.7,206.9z M293.2,206.9c-1.6,3.1-3.4,6.3-5,9.2c-2.5,4.3-5.1,9-8,12.9c-3.1,4.2-6.4,6.8-9,6.8
	c-2.9,0-5.5-2.9-7.2-10.2c-4,4.8-8.3,15.5-16.9,11.7c-12.8-5.4-8.3-35.7,3.5-43c5.2-3.1,14-0.3,18.9,2.3c2.6-2.2,4.5-2.8,5.9,1.5
	c1.8,5.9-2.9,16.8-2.1,26.4c0.3,3.7,1.5,3.5,4,0.5c2.7-3,5.3-7.7,7.4-11.1l2.8-4.7l2.5-4.3C291.9,201.2,297,199.8,293.2,206.9z
	 M263.8,199.6c-8.4-7.2-15,20.1-14.7,25.7c0.2,6.6,3.5,8.6,8.1,3.1c2.7-3.3,4.5-8.4,5.9-11.6C265.1,212,268,203.2,263.8,199.6z
	 M320,206.9c-3.5,7.4-6.6,14.5-11.2,21.2c-3.1,4.8-6.5,8.5-9.2,8.8c-11.9,1.2-11.9-24.3-10-34.2c0.7-2.8,2.7-5.8,6.1-4.8
	c3,0.8,3.5,4.1,3.5,6.7c0.1,5.5-0.5,13.9,0.3,19.5c0.9,6.1,2.4,6.3,5.8,1.3c4.2-6.2,8.2-13.8,11.3-20.4
	C318.3,201.2,323.3,199.8,320,206.9z M298.5,186.2c6.5,2.4,2.8,12.2-4.9,7.3C287.6,189.5,291.6,183.6,298.5,186.2z M373.5,206.9
	c-2.1,3.9-4.3,8-6.6,12c-3.5,6-8.7,17.5-15.8,19.1c-6.6,1.4-10.2-6.7-11.1-9.3c-8.1,17.8-24.8,13-27-3.9c-1-6.9,0.1-15.6,4.5-21.1
	c6.1-7.6,14.4-5.3,19.2-5c-0.1-8.7-0.3-15.4,0.1-21.7c0.5-7.5,2.3-20.4,12.2-19.3c6.6,0.8,8.4,6.4,8,13.1
	c-0.5,13.1-6.1,23.8-10.2,35.7c-0.3,3.3,0,11,1.2,17.3c1,5.3,2.1,8.3,4,8.1c3.1-0.2,9.9-12.5,11.7-15.5c2.4-3.9,4.6-7.7,6.5-11.4
	C372.2,201.2,377.3,199.8,373.5,206.9z M334.5,202.5c-12.2-2.4-13,14.9-10.4,25.4c1.5,6.3,5.8,9.3,10,0.9
	C338.6,219.7,340,203.7,334.5,202.5z M345.4,196.3c2.9-6.5,6.5-18,6.2-26.8c-0.2-6.2-2.1-6.3-3.9-0.4
	C345.4,176.8,345.4,192.3,345.4,196.3z M403.2,206.9c-3.1,5.8-6.3,8.8-12,11.8c3.1,6.1,4.8,12.4,2.1,18.3c-2.1,4.8-7.4,7.8-12.8,8.5
	c-3.8,0.4-6.6-0.1-8.6-1.2c-9.1-5.3-2.7-18.8,5.5-23.8l-4.2-6.4c-4.7-7.5-5.3-16-1.2-20.7c2.1-2.2,5.2-3.7,8.4-3.7
	c6.8-0.2,12.3,7.1,7.8,12.7c-2.1,1.8-3.5,2-3.7-0.8l0.6-1.8c3.3-8.9-10.5-9.9-7.1-1.8c2.1,4.7,7.3,10.2,11.3,16.9
	c4.9-1.7,8.4-6.4,10.5-9.9C402.3,201.4,407,199.8,403.2,206.9z M379.7,224.1c-4,1.2-13.4,13.9-3.8,16.5c1.7,0.5,3.9-0.4,5.3-2.3
	C383.8,234.8,381.7,227.7,379.7,224.1z M84.1,326.6c-3,2.7-6.4,4.2-10.6,4.4c-8.6,0.1-14-4.7-14.6-13c-0.4-6.8,1-13.4,2.8-19.9
	c2.5-9.5,6.8-18.3,10.8-27.3c2.4-5.5,5-11.2,6.1-17.1c0.3-1.8,0.4-4.1-0.8-5.5c-3.7,0.8-8.9,4.7-11.3,8.9c-1.8,3.1-2.3,6.8-0.7,9.8
	c2,3.7,0.3,4.4,0,4.5c-3.1,1.6-6.4,1-7.5-2.1c-1.8-5.5-0.6-12.9,3.3-17.5c4-4.8,8.3-7.1,14.9-8.1c2.8-0.4,5.5-0.3,8.2,0.6
	c4.1,1.3,6.5,4.1,6.7,8.2c0.1,3-0.1,5.9-1,8.8c-2.1,6.8-4.7,13.4-7.4,19.9c-4.4,10.6-8.8,21.6-10.2,33.2c-0.4,3.7-0.6,7.6,1.7,11
	c0.7-0.6,1.4-0.8,2.1-1.4c3.4-2.7,5.8-6.1,7.8-9.9c4.4-8.5,7.8-17.5,10-26.7c0.8-3.5,4-4.5,7.1-4c1.3,0.3,2,1.1,2,2.4
	c0.1,2,0.3,4.1,0.4,6.2c0.1,7.8,1.7,15.8,4.8,23.1c1.6,3.8,5.9,8.9,6.9,8.6c1.7-0.4,2.7-5,3.4-7.5c0.7-3.4,1-6.9,1-10.5
	c0-1.8-0.1-3.8-0.3-5.8c-0.8-12.2-4.5-23.5-9.8-34.5c-1.1-2.4-2.3-5-3.3-7.4c-0.7-1.7-0.3-2.4,1.3-2.7c3.4-0.7,5.8-0.3,7.4,2.7
	c6.4,11.3,11.6,22.8,13.2,35.7c0.8,7.8,1.3,15.6-0.3,23.2c-0.3,1-0.4,2-0.7,2.8c-1.8,6.2-6.5,9.9-14.9,8.6
	c-4.2-0.6-7.5-3.4-10.2-6.4c-2-2.4-4.2-6.4-5.4-10.3c-0.4-1-1-3.1-1.1-4.5c-0.4,1.1-2,4.8-2.7,6.5C90.9,318.3,88.2,322.9,84.1,326.6
	z M145.5,302.4c-0.6,4.5-0.3,8.8,1.6,13c0.7,1.8,1.8,3.4,3.5,4.7c1.7,1.3,3.8,0.4,5.7-0.8c3.5-2.8,9.5-11,15.6-25.2
	c0.7-1.6,1.8-2.1,2.8-1.8c1.8,0.6,0.4,4-0.1,5.4c-1.7,4.2-7.8,16.1-11.9,21.4c-6.4,8.3-17.5,7.1-23.5,1.3c-2.4-2.4-3.8-5.4-4.5-8.5
	c-2.1-8.9,0-17.1,5-24.9c1.4-2.1,3-4.2,5.1-5.9c3-2.5,6.4-3.8,10.5-3.5c2.8,0.1,4.1,1.4,4.7,4c0.7,3.5,0.3,6.9-1,10.3
	c-1.7,4.4-4.8,7.1-9.9,7.4c-0.9,0-1.7,0-2.8,0C145.8,300.1,145.7,301.2,145.5,302.4z M146.7,296.3c2.5,0.4,4-0.7,5.1-2.4
	c1.4-2.1,2.1-4.5,2.4-6.9c0.1-1.6,0-3-0.7-4.7C150.3,286.8,147.9,291.2,146.7,296.3z M209.5,294.7c-4,16.7-9.5,25.2-12,28.6
	c-6.7,8.8-19.8,6.1-24.8-2c-2-3.1-3-6.5-3.7-10.2c-1.4-7.4-1.6-14.7-0.8-22.1c0.7-7.4,1.7-14.7,4-21.9c2.3-7.1,5.2-13.7,9.6-19.8
	c1.8-2.5,4-5,6.2-7.2c2.3-2,5.8-3.8,9.6-3.4c3.1,0.3,4.4,3.8,4.1,7.2c-1.3,13.3-6.6,25.3-13.6,34.9c-1.8,2.7-4,5.2-6.7,7.4
	c-0.6,0.4-0.8,1-1,1.8c-1.1,9.5-1.3,19.1,1.4,28.4c1.6,5.5,5.5,8.5,6.1,8.5c9.3-4,15.6-25.5,17.1-31c0.3-0.9,0.9-2.3,2.8-2.1
	C209.5,292.2,209.9,293.3,209.5,294.7z M182,278.2c2.3-2.5,7.1-9.1,9.9-16.6c3.4-9.2,4.8-18.8,4.4-20.4
	C191.5,244.8,183.6,265.3,182,278.2z M247.7,295.6c-3.1,5.8-6.7,12-10.8,17.3c-2.3,2.8-6.9,7.6-9.9,9.6c-5.4,3.8-11.5,5-17.7,2.3
	c-3-1.4-5-3.5-6.5-6.1c-2.3-4-3.4-8.2-3.3-12.7c0.3-8.3,3.1-16.1,8.5-22.9c2.5-3.4,5.9-6.1,10.5-7.4c2.5-0.7,5.2-0.9,7.9-0.4
	c3.5,0.6,5.8,3,5.7,5.9c0,0.6-0.1,1.1-0.3,1.7c-0.7,1.7-2.3,2.4-4.2,1.8c-0.8-0.3-1-0.8-1.3-1.6c-0.4-1.4-1.4-2.7-3-3.5
	c-0.8,0.7-1.6,1.3-2.3,2c-2.1,2.1-3.8,4.5-5.1,7.1c-2.4,5.2-4.1,10.6-4.4,16.3c-0.1,5.4,1.1,10.6,4.4,15.1c2,2.7,5,0.8,8.3-1.8
	c10.6-8.2,17.5-21.9,18.8-24.1c0.9-1.4,2.1-2.4,3.8-2C248.5,292.7,247.8,295.1,247.7,295.6z M285.7,293.9c-2.1,3.4-5.2,5.7-7.8,6.4
	c-2.5,0.7-5.2,1.1-8.1,1.1c-0.1,1-1.6,8.9-2.8,12.4c-1.6,4.1-4.2,8.9-8.5,10.9c-3.4,1.6-7.9,1.7-11.3,0c-1.8-0.8-4.1-2.5-5.2-4.2
	c-2.4-3.8-3.5-8.1-3.8-12.4c-0.3-5.5,0.4-11,2.7-16.1c0.7-1.6,1.6-3.1,2.4-4.5c2-3,4.2-5.5,8.2-5.9c0.1-1.3,0.1-2.1,0.1-3.1
	c0.3-3.7,2.1-5.9,5.2-6.7c4-1,6.9,0,8.9,3.3c2.4,3.8,3.7,8.2,4.1,12.6c0.3,3,0.3,5.9,0.4,9.2c0.8,0.1,4.8,0.1,7.8-1.1
	c1.7-0.7,3.4-2.8,4.2-4c1-1.4,1.6-1.8,2.8-1.4C286.3,290.6,286.3,292.6,285.7,293.9z M264.2,300c-5.5-1.8-8.8-7.2-11.3-12.2
	c-0.3,0.3-0.4,0.4-0.4,0.6c-3.1,8.8-4.1,17.5-2,26.6c0.7,2.8,1.7,5.4,3.8,7.5c2.1-0.7,3.3-1.7,4.7-3.8c2.1-3.4,3.4-7.1,4.2-10.9
	C263.8,304.8,264.2,303.1,264.2,300z M259.6,274.6c-3,5.7,0.1,16.6,5,18.7C265.1,288.9,263.2,280.6,259.6,274.6z M354.5,295.3
	c-1.6,5.4-5.2,13.6-9.6,21.5c-4.5,8.2-8.9,12.3-11,14.1c-3.1,2.4-6.5,3.4-10.5,2.8c-3.4-0.4-6.1-2.5-6.7-5.9
	c-0.6-3.8,0.1-7.4,1.1-11c1.7-5.8,4.8-11.2,7.6-16.6c1.1-2,2.4-4,3.4-6.1c0.8-1.8,1.4-3.8,2-5.9c0.4-1.3,0.6-2.8-0.7-4.2
	c-1,0.4-1.6,0.8-2.4,1.3c-3.5,2.1-6.7,4.8-8.9,8.2c-4.1,5.7-7.1,12-9.1,18.8c-0.4,1.4-1.1,2.1-2.4,2.3c-0.8,0-1.7,0-2.4-0.1
	c-1.6-0.1-2.4-1-2.7-2.5c-1-4.5-0.8-9.2,0-13.7c1.1-5.2,2.3-10.5,3.4-15.7c0.3-2,0.7-4.1,0.3-6.5c-0.4,0.3-1,0.4-1.3,0.7
	c-4.4,3.4-7.9,7.4-10.5,12.4c-3.1,6.1-4.5,12.7-5.4,19.5c-0.1,1.3,0.3,2.7,0.6,4c0.4,2.3,1.1,4.4,1.7,6.7c0.3,1.7-0.1,2.3-1.8,2.5
	c-2.3,0.6-4.7,0.3-6.1-2c-0.7-1.3-1.6-2.4-2.1-3.7c-3.8-8.9-4.5-18.3-2.8-27.7c0.3-1.7,0.9-3.4,1.7-5c1.1-2.3,4.8-3.1,6.8-1.7
	c0.6,0.4,1.1,1.3,1.1,2c0.3,1.4,0.1,2.8,0.3,4.4c0,0.4,0,1,0,2c0.4-0.8,0.7-1.1,0.8-1.6c1.8-4,4.2-7.8,7.1-11
	c1.7-1.8,3.7-3.5,5.7-4.8c2.7-1.8,5.7-2.3,8.8-1.4c3.1,0.7,5.1,2.7,5.2,5.8c0.1,2.1,0,4.2-0.4,6.4c-0.6,3.1-1.6,6.1-2.4,9.6
	c0.7-0.9,1.1-1.4,1.7-2.1c2.4-3,5.1-5.7,8.5-7.6c3.1-1.8,6.5-2.8,10-2.4c5.2,0.4,8.1,4,7.1,9.1c-0.4,2.3-1.1,4.5-2,6.6
	c-1.7,3.7-3.7,7.2-5.4,10.9c-2,4.4-4.1,8.9-6.1,13.3c-1.3,3.1-2,6.5-0.3,9.6c0.3-0.1,5.7-2.5,12.9-13.7c5.8-9.1,10-20.7,10.5-21.9
	c0.7-1.7,2-4,4.2-3.3C355.6,291.9,354.8,294.6,354.5,295.3z M356.3,302.4c-0.6,4.5-0.3,8.8,1.6,13c0.7,1.8,1.8,3.4,3.5,4.7
	c1.7,1.3,3.8,0.4,5.7-0.8c3.5-2.8,9.5-11,15.6-25.2c0.7-1.6,1.8-2.1,2.8-1.8c1.8,0.6,0.4,4-0.1,5.4c-1.7,4.2-7.8,16.1-11.9,21.4
	c-6.4,8.3-17.5,7.1-23.5,1.3c-2.4-2.4-3.8-5.4-4.5-8.5c-2.1-8.9,0-17.1,5-24.9c1.4-2.1,3-4.2,5.1-5.9c3-2.5,6.4-3.8,10.5-3.5
	c2.8,0.1,4.1,1.4,4.7,4c0.7,3.5,0.3,6.9-1,10.3c-1.7,4.4-4.8,7.1-9.9,7.4c-0.9,0-1.7,0-2.8,0C356.6,300.1,356.5,301.2,356.3,302.4z
	 M357.4,296.3c2.5,0.4,4-0.7,5.1-2.4c1.4-2.1,2.1-4.5,2.4-6.9c0.1-1.6,0-3-0.7-4.7C361.1,286.8,358.7,291.2,357.4,296.3z"/>
<path fill="#D3698E" d="M22.4,283.1C22.4,283.1,22.5,283.2,22.4,283.1c0,0.1,0,0.1,0.1,0.1c3.9,8.4,12.8,6.4,17.7,0.4
	c3.9,6.1,12.2,7.7,16.5,0.6c2.2-3.7,1.8-7.8,0.2-11.7c-2.6-6.3-5.7-11.5-4.4-18.6c0.3-1.8,1.4-4.2-1-4.7c-1.6-0.4-2.7,1.4-3.7,2.3
	c-2.4,2.1-4.9,3.9-7.5,5.8C32.8,262.8,19.1,272.1,22.4,283.1z M42.8,260.1c2-1.5,3.9-2.9,5.8-4.4c-0.2,2.9,0.1,5.7,0.8,8.5
	c1,3.7,3.4,6.9,4.5,10.5c0.7,2.2,0.9,4.8-0.2,6.9c-0.5,1-1.5,2.4-2.5,3c-2.4,1.3-7.3-1-8.2-3.5c-0.5-1.4,0.2-3.7-1.6-4.4
	c-1.1-0.4-1.6,0.1-2.3,0.9c-1.3,1.4-1.7,3.6-3.2,5.1c-0.9,0.9-1.8,1.7-3,2.2c-1.9,0.7-6.1-0.8-7-2.7c-2-4.6,3.1-10.4,6.1-13.4
	C35.3,265.6,39.1,262.8,42.8,260.1z M399.6,292.2c8.8-4.5,5.4-16.1-0.5-21.6c7.6-3.2,13.2-13,7.3-20.4c-7.9-10.1-20.1,1.1-26.7,6.3
	c-2.6,2.1-5.4,4-8.7,4.7c-1.1,0.2-2.2,0-2.7,1.2c-0.4,1,0.1,1.3,0.5,2.1c0.6,1.3,2.5,2.4,3.5,3.6c1.4,1.9,2.5,4,3.5,6
	c2.7,5.3,4.5,11.2,9.5,14.8C389.3,291.8,394.8,293.7,399.6,292.2z M384.8,283.7c-4.7-5.8-6.3-13.6-11.1-19.5
	c6.5-2.4,10.8-7.9,16.5-11.6c4-2.6,10.6-4.3,13.9,0.4c3.5,5.2-0.5,12.2-5.7,14.1c-1.5,0.6-5.1,0.1-5.7,2.2c-0.4,1.6,0.8,2,2,2.7
	c2,1.2,3.6,2.4,5,4.5c0.6,0.9,1.1,2,1.4,3c1,2.9,0.6,4.1-0.9,6.7c-1.6,2.7-1.7,2.9-4.6,2.7c-1.4-0.1-2.7-0.4-3.9-0.8
	C388.9,287.2,386.7,285.7,384.8,283.7z M343.1,256.6c-0.1-2.9-1.5-5.8-4.5-6.8c-0.9-0.3-1.8-0.3-2.7-0.1c-1,0.2-2.7,1.8-3.3,1.8
	c-1.9,0-3.1-2.2-5.6-1.6c-2.8,0.7-4.3,3.8-4,6.5c0.4,3.5,3.3,5.8,5,8.5c0.9,1.4,1.2,5.2,3.3,5.5c2.3,0.3,3.2-3.5,4.3-4.7
	C338.3,262.6,342.2,260.8,343.1,256.6z M331.9,264.6c-1.5-2.4-3.7-4.4-4.8-7c-0.4-0.9-0.9-2.6-0.1-3.5c2.2-2.6,2.8,0.9,3.2,1.8
	c0.3,0.6,0.4,1,1.1,1.3c1.3,0.6,2-0.2,2.6-1.2c0.4-0.6,0.5-1.4,1.1-1.9c1.1-1.1,3.8-0.7,4.3,0.9c0.8,2.4-1.8,4.3-3.5,5.7
	C334.3,261.9,333,263.2,331.9,264.6z M230.7,255C230.7,255,230.7,255,230.7,255c-0.1,0-0.2-0.1-0.3-0.1c-1.6-0.4-2.8-0.5-4.2-0.2
	c-0.7-3.7-4.3-6-7.9-3.9c-3.7,2.1-3.3,6.5-2.9,10.1c0.2,2,0.2,3.9-0.2,5.9c-0.2,1.1-0.8,1.7,0.1,2.5c0.5,0.5,1.5,0.6,2.1,0.5
	c1.4-0.3,2.7-1.5,4-1.9c1.9-0.6,3.9-0.8,5.9-1.1c3.2-0.6,6.1-1.9,6.7-5.4C234.4,258.6,233.2,256.3,230.7,255z M229.7,262.3
	c-1.7,1.7-4.4,1.6-6.6,2c-1.4,0.2-2.7,0.5-4,1c0.1-2.9-0.8-5.9-0.3-8.7c0.1-0.9,0.5-2.2,1.3-2.8c1.3-0.9,2.7,0,2.6,1.6
	c-0.1,1-0.9,1.9-0.3,2.8c0.4,0.7,1.5,1,2.2,0.9c1.2-0.2,1.9-1.4,3.2-1.6C231.1,257.1,230.7,260.6,229.7,262.3z M147.3,249.7
	C147.3,249.7,147.3,249.7,147.3,249.7c-0.1,0.1-0.2,0.1-0.3,0.2c-1.3,0.9-2.1,1.8-2.8,3.1c-3.2-1.9-7.4-0.6-8.1,3.5
	c-0.8,4.2,2.8,6.7,5.8,8.8c1.7,1.1,3.1,2.4,4.4,3.9c0.7,0.8,0.8,1.7,2,1.6c0.7,0,1.4-0.7,1.7-1.3c0.7-1.2,0.6-3,1.2-4.3
	c0.8-1.9,1.9-3.5,2.9-5.2c1.6-2.8,2.5-5.9,0.2-8.6C152.4,249.1,149.9,248.6,147.3,249.7z M152.2,255.2c0.2,2.4-1.6,4.4-2.7,6.4
	c-0.7,1.2-1.3,2.4-1.8,3.7c-2.2-1.9-5-3.2-6.9-5.4c-0.6-0.7-1.4-1.8-1.3-2.8c0.2-1.6,1.7-2.1,2.9-0.9c0.7,0.7,0.8,1.9,2,2
	c0.8,0.1,1.7-0.5,2.1-1.2c0.6-1,0.1-2.4,0.8-3.5C149.1,250.8,151.5,253.3,152.2,255.2z"/>
<path fill="#45BFBA" d="M287.5,272.3l2-10c0.1-0.3,0.3-0.6,0.6-0.7l9.3-4c0.8-0.3,0.8-1.4,0.1-1.9l-8.9-4.9
	c-0.3-0.2-0.5-0.5-0.5-0.8l-1-10.1c-0.1-0.9-1.1-1.2-1.7-0.7l-7.4,6.9c-0.2,0.2-0.6,0.3-0.9,0.3l-9.9-2.2c-0.8-0.2-1.5,0.7-1.2,1.4
	l4.3,9.2c0.1,0.3,0.1,0.7,0,1l-5.2,8.7c-0.4,0.7,0.2,1.7,1,1.6l10.1-1.2c0.3,0,0.7,0.1,0.9,0.3l6.7,7.6
	C286.3,273.4,287.3,273.1,287.5,272.3z M278.1,253.7c-2.1-2.2-4.3-4.3-6.7-6.2c-0.6-0.5,0-1.4,0.6-1c2.5,1.9,4.8,4.1,6.9,6.4
	C279.4,253.4,278.6,254.2,278.1,253.7z M286,243.3c0.3-0.7,1.3-0.1,1,0.6c-1.2,2.5-2.3,5.1-3.2,7.7c-0.3,0.7-1.4,0.4-1.1-0.3
	C283.7,248.6,284.8,245.9,286,243.3z M277.4,258.4c-2,1.5-4,3.1-5.9,4.8c-0.6,0.5-1.4-0.3-0.8-0.8c1.9-1.7,3.8-3.3,5.9-4.8
	C277.2,257.1,278,258,277.4,258.4z M286.2,255.5c2.9-0.2,5.8-0.2,8.7-0.2c0.7,0,0.7,1.2,0,1.2c-2.9,0-5.8,0-8.7,0.2
	C285.4,256.7,285.4,255.5,286.2,255.5z M285.5,268.9c-1.2-2.8-2.4-5.6-3.7-8.3c-0.3-0.7,0.7-1.2,1-0.5c1.3,2.7,2.5,5.5,3.7,8.3
	C286.8,269,285.8,269.6,285.5,268.9z M325.6,166.4c-5.4-8.4-14.2-14.6-23.3-18.3c-1.1-0.4-5.8-1.4-6.1-2.1c-0.5-1.1,1.5-2.4,2.2-3.4
	c2.9-3.7,4.9-8.2,5.8-12.8c0.9-4.8,0.6-9.7-0.8-14.4c-1-3.3-2.4-8-6.4-8.4c-8.3-0.8-14.3,6-17.9,12.5c-1.8,3.3-3.4,6.8-4.5,10.5
	c-0.6,2.3-1.1,4.6-1.3,6.9c-0.1,1,0.2,3.4-0.2,4.2c-0.8,1.7-3.3,2.1-4.9,2.6c-11.9,3.6-24.4,5-36.8,4.7c-11.9-0.3-24.1-2.2-35-7.1
	c-4.8-2.1-9-5-13.3-7.9c-2.4-1.6-4.8-3.3-7.3-4.6c-1.1-0.6-2.7-1.7-3.9-1.8c-1.5-0.1-1.8,0.4-3,1.4c-9.5,7.5-21.3,11.9-33.4,11.7
	c-3.1-0.1-6.1-0.4-9.1-1.1c-0.9-0.2-2-0.8-3-0.7c-0.5,0-1,0.2-1.4,0.5c-2,1.8,1,5.1,1.8,6.6c9.8,18.2,25.1,33.2,44.4,41
	c18.1,7.3,38,7.4,56.8,2.7c11.6-2.9,22.7-7.7,33.1-13.6c3-1.7,6-3.6,8.9-5.6c1.9-1.3,4-3.5,6.1-4.5c2-1,1.2-1.1,2.4,0.7
	c1,1.5,1.8,3.1,3,4.5c1.8,2.2,4,4.1,6.4,5.6c8.6,5.7,20,7.7,30.1,5c3.9-1.1,8.6-2.8,11.4-6C328.8,172.2,327.5,169.4,325.6,166.4z
	 M249.4,157.2c-1-1-2.1-1.8-3.5-2.4c0,0,0,0,0,0c0,0,0,0-0.1,0c-0.1,0-0.4-2.1-0.5-2.2c-0.1-0.4-0.3-0.8-0.5-1.3
	c0.8-0.1,1.7-0.1,2.5-0.2c1.2-0.1,2.2-0.6,2.7,0.9C250.7,153.7,250.5,155.7,249.4,157.2z M251.4,167.6c0.5-1.1,0.3-2.2,1.9-2.1
	c1.2,0.1,2.3,0.8,3,1.8c0.9,1.2,1.6,4,0.4,5.3c-0.4,0.4-1.6,0.8-2.2,1.2c-1,0.6-2.1,1.1-3.1,1.7c-0.2-1.8-0.9-3.4-2-4.9
	C250.2,169.7,250.9,168.8,251.4,167.6z M252,162.3c-0.1-0.8-0.4-1.6-0.7-2.3c1.1-1,1.9-2.4,2.3-3.8c2.6,1.2,3.9,4.1,3.1,6.8
	C255.2,162.2,253.7,162,252,162.3z M236.5,182.1c-1.3,0.5-2.5,0.9-3.8,1.3c0.5-2.2,0.3-4.4-0.5-6.6c-0.1-0.3-0.7-1.1-0.7-1.2
	c0-0.2,0.3-0.4,0.4-0.6c0.3-1,1.2-2,1.9-3c1.9,0.5,3.4,1.9,4.2,3.8c0.5,1.1,0.6,2.4,0.5,3.6C238.2,181,237.8,181.6,236.5,182.1z
	 M159.5,178.2c-2.2-1.3-4.2-2.6-6.3-4.1c2.6-1.9,4.3-4.5,5.3-7.6c1.3,0.2,2.5,0.2,3.8,0c1.6-0.3,2.6-1.3,3,0.7
	c0.4,2.1,0,4.5-0.9,6.3C163.2,175.9,161.4,176.8,159.5,178.2z M142.5,164.9c-2.8-2.9-5.4-5.9-7.8-9.1c4.2-0.2,7.7-1.9,10.3-5.2
	c1.3,1.9,2.4,4,2.7,6.2C148.1,160.3,145.7,163.8,142.5,164.9z M151.5,141c2.3-0.7,4.5-1.6,6.6-2.5c-0.1,4.3-2.9,7.9-7.4,8.3
	c-0.6,0-2.3,0.3-2.7-0.1c-0.7-0.6-0.4-0.8-0.4-1.6c0-1.1,0.2-2.1,0.3-3.1C149.1,141.6,150.3,141.3,151.5,141z M185.2,139.3
	c1.6,1,1.6,1.5,1.2,3.5c-0.4,1.9-1.1,3.8-2.7,4.9c0.3-1.7,0.4-3.4,0.2-5.2c-0.2-1.7-0.6-3-0.6-4.5
	C184,138.4,184.6,138.9,185.2,139.3z M206.9,153.4c0.2-1.6,0.1-3.2-0.3-4.8c1.7,0.4,3.4,0.9,5.2,1.2c0.4,3.6-0.7,7-3.3,9.5
	C207.8,157.3,206.6,155.5,206.9,153.4z M177.9,165.2c0.5-2,1.5-2.1,3.1-2.7c2.4-0.9,4.5-2.2,6.2-4.1c0.1,2.6,0,5.6-1.6,7.7
	c-1.7,2.1-4.3,3.5-6.8,4.6C178.5,169.1,177.5,166.8,177.9,165.2z M185.3,155.8c-1.3,1.8-3.2,2.9-5.2,3.7c0.4-1.8,0.6-3.9,0.1-5.7
	c0.6-0.5,1.1-1.1,1.7-1.6c0.8-0.8,0.3-0.4,1.6-0.8c1.3-0.4,2.4-1.1,3.3-2C186.7,151.6,186.4,153.9,185.3,155.8z M179.5,149.8
	c-1.2,2.2-3.9,3.1-6.2,3.8c0.1-1.3-0.1-2.7,0.5-3.9c0.6-1.2,1.2-2.3,1.7-3.6c2.1-0.1,3.7-1,5.1-2.5
	C180.6,145.7,180.5,148,179.5,149.8z M168.3,163.7c1.7-1.5,2.7-3.2,3.7-5.2c0.5-1.1,0.7-1.3,1.9-1.7c1-0.3,1.9-0.7,2.9-1.1
	c0.4,5.7-2.9,11.6-8,14.2C169,167.8,168.9,165.6,168.3,163.7z M189,173.4c-0.4-1.6-1-3-1.8-4.4c1.7-1.8,2.6-3.5,3.2-5.9
	c0.5-1.8,0.9-1.9,2.4-3c0.7-0.5,1.3-1,1.9-1.6C195.1,163.9,193.4,170,189,173.4z M163.2,163c-0.9,0.2-2.5,0.6-3.4,0.3
	c-1-0.4-0.7-0.2-0.8-1.4c0-0.9-0.3-1.8-0.6-2.7c1.7-1.1,3-2.4,4.2-4c2.6,0.3,4.9-0.2,7.1-1.5C169.2,157.8,167.3,161.5,163.2,163z
	 M151.1,154.9c-0.2-0.9-0.5-1.7-0.8-2.5c-0.4-0.8-0.8-1.6-1.2-2.4c4.1,0,7.6-1.4,10.2-4.6c1.8,3.1,2.2,6.5-0.4,9.5
	c-1.3,1.4-5.8,4.5-7.4,2.3C151.1,156.8,151.2,155.5,151.1,154.9z M197.6,165.6c0.6-2.1,0.8-2.3,2.7-3.3c1.6-0.9,3-2,4.2-3.4
	c0.9,2.2,1.6,4.7,1.3,7.1c-0.4,3.3-2.7,5.9-5.3,7.8c-1.2-1.8-2.6-3.3-4.2-4.7C196.8,168,197.2,166.8,197.6,165.6z M210.3,174.7
	c-0.4-0.8-0.8-1.6-1.3-2.3c0-0.1-1.3-1.5-1.3-1.6c-0.1-0.5,0.6-1.5,0.8-1.8c0.4-1.1,0.7-2,0.8-3.2c0.2-1.6-0.1-2.6,0.9-3.9
	c0.9-1.1,1.8-2,2.7-3C215.6,164.1,214.6,170.7,210.3,174.7z M220.6,173.7c-0.5-1.1-1.1-2.1-1.9-3c-0.9-1-1.4-1.2-1-2.6
	c0.3-1.6,0.2-2.5,1.4-3.6c0.8-0.8,1.6-1.6,2.4-2.5C224,166,223,170,220.6,173.7z M217.7,161.3c-0.5-1.9-1.3-3.4-2.2-5.2
	c-0.8-1.6-0.1-3.8,0-5.7c1.6,0.3,3.2,0.5,4.8,0.7C221.5,155,220.5,158.4,217.7,161.3z M203.3,150.8c0.2,1.9,0,3.6-0.8,5.3
	c-1,1.7-2.4,2.8-4.1,3.6c0-1.3-0.2-2.5-0.3-3.8c-0.1-1.4,0.4-2.3,0.9-3.5c0.8-1.9,1.1-3.8,1.1-5.8c0.6,0.2,1.2,0.3,1.6,0.6
	C202.9,148,203.1,149.5,203.3,150.8z M190.8,157.7c-0.2-1.3-0.6-2.7-0.5-3.9c0.1-1,1.2-1.7,1.8-2.6c1.5-2,2.3-4.4,2.7-6.8
	c0.5,0.2,1.1,0.5,1.6,0.7C197,150.2,194.8,154.9,190.8,157.7z M167.3,151.4c-4.2,1.8-2.7-0.5-3-2.9c-0.2-1.4-0.7-2.8-1.4-4
	c4-0.4,7.5-2.2,9.7-5.4C172.8,143.7,172,149.4,167.3,151.4z M141.1,150.3c-1.8,1.5-3.9,2.2-6.2,2.2c-2.5,0-3.3-1.2-4.6-3.1
	c-1.4-2.2-2.7-4.6-4-6.9c3.9,0.7,7.8,1,11.7,0.8c0.9,0,4.7-1,5.4-0.5C146,144.4,142.2,149.1,141.1,150.3z M150.5,161
	c0.7,0.1,1.4,0.1,2.1,0.1c0.3,0,1.7-0.3,1.9-0.3c1.9,0.7,0.9,4.4,0.5,5.7c-0.5,1.4-1.2,2.7-2.1,3.8c-0.3,0.3-0.7,0.7-1,1
	c-1,0.7-1.9,0.6-2.5-0.2c-1.5-0.8-3-2.5-4.3-3.8C147.6,165.9,149.3,163.7,150.5,161z M165.6,177.4c0.8-1,1.5-3.1,2.4-3.8
	c0.6-0.5,2.3-0.8,3.2-1.3c1.4-0.8,2.5-1.8,3.6-3c0.6,2.3,0.9,4.7,0.5,7c-0.6,2.9-2.6,5.2-4.5,7.3c-2.8-1.1-5.5-2.3-8.1-3.7
	C163.8,179.2,164.8,178.4,165.6,177.4z M178.7,177.3c0.5-1.8,0.1-2.6,1.6-3.7c1.3-0.8,2.7-1.5,4-2.3c1.8,3.4,2.2,7.5,0.5,11.1
	c-1,2.2-2.6,4.5-5.2,4.1c-1.9-0.3-3.8-1-5.6-1.6C176,182.6,177.9,180.1,178.7,177.3z M189.2,179.5c0.3-2,0.5-2.6,2.2-3.9
	c1.2-0.9,2.1-2,3-3.2c3.6,3.4,5.9,7.6,4.5,12.7c-1,3.8-3.1,3.8-6.8,3.5c-2.4-0.2-4.7-0.6-7-1C187.3,185.4,188.7,182.7,189.2,179.5z
	 M202.9,180.2c-0.1-1.2-0.9-2.6-0.5-3.8c0.3-0.7,1.9-1.8,2.9-2.7c2.1,2.5,3.3,5.8,3.4,9.2c0.1,1.6,0.2,4.9-1.6,5.8
	c-1.4,0.7-4.4,0.3-6.2,0.3C202.3,186.3,203.1,183.3,202.9,180.2z M212.3,184.1c0.1-1.8-0.7-3.8-0.5-5.6c0.1-1.3,0.8-1.4,1.7-2.4
	c0.9-1,1.7-2,2.3-3.2c2,2.4,2.9,5.6,2.7,8.8c-0.1,1.5-0.4,3.6-1.4,4.8c-1.2,1.5-3.7,1.5-5.5,1.6
	C211.9,186.9,212.2,185.6,212.3,184.1z M222,179.4c-0.2-2.3,1.4-4.1,2.6-6c3.3,1.8,5.4,5.9,4.6,9.6c-0.5,2.1-0.9,1.8-2.8,2.3
	c-1.9,0.5-3.8,1-5.7,1.4C221.7,184.4,222.1,181.9,222,179.4z M231.7,166.5c0.2,2.3-0.9,4.3-2.1,6.2c-1-1-2.1-1.9-3.5-2.5
	c0.2-0.8,0.4-1.5,0.5-2.3c0.1-1.2-0.5-2.7,0.3-3.6c0.9-1.2,2-2,2.8-3.2C230.7,162.7,231.6,164.5,231.7,166.5z M226.7,151.6
	c1.2,3.3,1.5,7.3-1.4,9.8c-0.2-0.5-0.4-0.9-0.7-1.3c-0.2-0.3-1-1-1.1-1.4c0-0.4,0.5-1.4,0.6-1.8c0.5-1.8,0.4-3.6,0.1-5.4
	C225,151.5,225.9,151.6,226.7,151.6z M233.3,151.8c1.2,2.8,1.3,5.6,0.2,8.3c-0.7-1.2-1.7-2.4-2.1-3.7c-0.5-1.5-0.5-3.1-0.8-4.7
	C231.5,151.8,232.4,151.8,233.3,151.8z M240.7,151.6c2,1.9,1.7,4.8,0.7,7.2c-0.7-1.1-1.5-1.9-2.6-2.7c-1.2-0.9-1.3-2.8-1.7-4.4
	C238.4,151.7,239.6,151.7,240.7,151.6z M237.8,170.1c-1-0.5-2.7-1.2-2.6-2c0.2-1.7-0.3-3.4,0.4-4.9c0.6-1.3,1.2-2.4,1.6-3.6
	C240.4,162.2,239.7,166.8,237.8,170.1z M241.4,174.7c-0.3-0.8-1.2-1.8-1-2.7c0.1-0.6,0.8-1.5,1.2-2.2c2.7,1.1,5.3,2.5,6,5.6
	c0.4,1.8-0.4,2.1-1.9,2.8c-1.3,0.6-2.6,1.2-3.9,1.7C242.1,178.2,242.1,176.4,241.4,174.7z M245.5,167.6c-0.5-0.2-1.7-0.5-2-0.9
	c-0.7-0.6-0.4-1.8-0.4-2.6c0.1-1.9,1.4-3.7,2.1-5.6c3.4,2.2,4.7,6.8,1.8,10C246.5,168.1,246,167.8,245.5,167.6z M190.2,147.8
	c-0.1-0.9-0.2-1.8-0.3-2.8c-0.1-1,0-1.9,0.1-2.8c0.4,0.2,0.9,0.5,1.3,0.7C191.3,144.6,190.9,146.3,190.2,147.8z M178.8,140.5
	c-0.3,0.6-1.9,2.9-2.7,1.7c-0.2-0.4,0.1-2.2,0.1-2.7c0-2.2-0.2-4.5-0.7-6.6c1.5,0.9,2.9,1.8,4.3,2.7
	C179.9,137.3,179.6,139,178.8,140.5z M161.6,136.7c1.9-1,3.7-2.1,5.5-3.3c1.1-0.7,2.1-1.5,3.1-2.3c1.2,3.7,0.1,7.4-3.7,9.2
	c-1,0.5-4.4,1.7-5.1,0.2c-0.1-0.2,0.2-1.4,0.3-1.7C161.7,138.1,161.7,137.4,161.6,136.7z M267,147.3c2.8,2.2,3.5,6.2,2.1,9.3
	c-0.4-3.8-3.3-6.3-6.7-8.1c0.6-0.1,1.2-0.3,1.7-0.4C264.4,148.1,266.8,147.2,267,147.3z M257,149.7c1,0.8,2.3,2.3,2.3,3.7
	c0,0.8-0.3,1.5-0.7,2.3c-0.8-1-1.8-1.9-3-2.5c-0.5-0.3-1.4-0.4-1.7-0.8c-0.3-0.4-0.4-1.3-0.6-2C254.6,150.1,255.8,149.9,257,149.7z
	 M259.3,165.2c0.8-1.4,1.2-2.9,1.2-4.4c2.4,0.4,5,1.1,5.5,3.7c0.4,1.8-0.1,2.1-1.5,3c-1.2,0.8-2.5,1.7-3.7,2.5
	C260.8,168.3,260.3,166.7,259.3,165.2z M261.4,157.5c0.7-1.3,1.4-2.7,1.5-4.2c1.7,1.4,3,3.1,2.6,5.4
	C264.2,158.1,262.8,157.7,261.4,157.5z M275.9,159.5c-0.4-0.1-0.7,0.1-1,0.2c-1.8,0.6-3.6,2.7-5.2,4.1c-0.2-0.8-0.4-1.8-0.1-2.6
	c-0.1,0.3,1.8-1.9,1.6-1.7c0.8-1,1.4-2.2,1.8-3.5c1-3.5,0.1-7.1-2-9.9c3.3-0.9,5.7-1.1,5.7-4.8c-0.1-6.6,1.5-12.7,4.4-18.5
	c1.2-2.5,2.6-5.1,4.3-7.2c2-2.4,4.9-4.6,8.1-5c3.1-0.4,4.2,0.7,5.4,3.4c2.6,6,2.9,13,0.8,19.2c-1.1,3.2-2.8,6.3-5.1,8.8
	c-1.1,1.2-3.3,2.4-4.1,3.8c-0.7,1.2-0.5,1.8,0.6,2.5c0.7,0.5,2.2,0.5,3,0.7c2.2,0.6,4.4,1.3,6.5,2.2c3.1,1.3,6.1,2.9,8.9,4.7
	c3.4,2.2,6.6,4.8,9.4,7.8c1.9,2.1,4.8,5.3,5.4,8.3c-0.4,1.6-3.2,3.3-4.6,4c-1,0.5-2,0.9-3.1,1.3c-2.2,0.8-4.5,1.3-6.9,1.6
	c-4,0.4-8.1,0.1-12-0.9c-4.2-1-8.2-2.8-11.7-5.4c-2.2-1.6-4.2-3.6-5.8-5.8c-1.3-1.8-1.6-4.6-2.8-6.2
	C276.8,160,276.7,159.6,275.9,159.5z M132.2,73c-2.2-1.2-5.5-1.1-8.1,0.2c-2.3,1.2-4.7,4.6-5.9,8.3c-1.7,5.2-1.9,10.8-0.6,18
	c1.6,9.3,3.5,15.3,8,24.9c1,2.1,3,4.4,3.6,4c0.1-0.1,0.4-0.1,0.5,0c0.2,0.2,1.4,0,1.7-0.2c0.1-0.1,0.3-0.1,0.5-0.2
	c0.4-0.1,0.8-0.7,1.1-1.8c0.1-0.3,0.1-3.6-0.1-7.3c-0.1-3.7-0.2-8.3-0.1-10.3c0.1-3.9,1.1-10.2,2.3-15.6c2.1-9.5,2.2-13,0.3-16.8
	C134.6,74.8,133.6,73.8,132.2,73z M130.4,80.7c0.3,1.5,0.1,4.2-0.8,8.2c-2.1,9.7-2.9,14.7-3,18.3c0,1.2-0.2,2.2-0.2,2.2
	c-0.3,0-1.7-5.6-2.5-9.7c-1.3-7-1.1-12.7,0.7-17.2c1.1-2.8,2.2-4,3.7-4.1C129.5,78.4,130,78.9,130.4,80.7z M91.3,95.1
	c-1.3-0.9-4.1-1.8-5.3-1.8c-2.5,0-4.6,1.1-5.9,2.9c-2.5,3.5-0.5,9.9,5.1,16.1c2.9,3.2,13.6,13.3,16.2,15.3c3.5,2.7,9.2,6.6,9.4,6.5
	c0.1-0.1,0.3,0,0.4,0.1c0.2,0.1,0.4,0.2,0.5,0.1c0.1-0.1,0.3-0.1,0.4,0c0.5,0.5,2.2-0.1,3-1c1.2-1.3,0.2-4.6-3.3-10.7
	c-1.1-1.9-2.9-5-3.9-6.8c-2.7-4.7-6.5-10.6-8.7-13.2C97,100,93.3,96.5,91.3,95.1z M94.1,106.3c1,1.2,2.5,3.3,3.4,4.5
	c1.5,2.2,5.7,9.3,6.3,10.5c0.4,0.8-10.8-9.8-13.6-12.9c-3-3.4-4.8-6.3-4.8-8.1c0-0.6,0.1-0.7,0.5-0.7
	C87.6,99.7,90.8,102.4,94.1,106.3z M105.8,145.6c-2.4-1.7-10.1-5.8-14.6-7.7c-5-2.2-11.7-4.2-16.7-5c-5.4-0.9-11-0.7-14.2,0.6
	c-2.7,1.1-3.7,1.8-5,3.7c-1.6,2.4-2,4.9-1.2,7.7c0.6,2.2,1.6,3.7,3.3,5.1c2.7,2.2,5.6,2.6,13.7,1.8c10.5-1,16.9-1.4,21.8-1.2
	c5.5,0.2,6.5,0.3,9.8,1.6c3.1,1.1,4.1,1.3,4.9,0.9c0.9-0.5,2-1.6,1.7-1.8c-0.1-0.1-0.1-0.3,0-0.4c0.3-0.3,0.2-1.2-0.1-1.2
	c-0.1,0-0.1-0.1,0-0.2c0.2-0.2-0.7-1.7-1.4-2.3C107.6,146.8,106.6,146.2,105.8,145.6z M83.7,144.6c-3.4,0.2-8.8,0.7-12,1
	c-8.8,0.8-10.5,0.6-11.4-1.9c-0.5-1.3-0.3-2.6,0.5-3.4c2.4-2.4,10.9-2.3,19.7,0.4c3.1,0.9,8.7,3,9.2,3.4
	C89.7,144.1,87,144.3,83.7,144.6z"/>
</svg>
