<?xml version="1.0" encoding="utf-8"?>
<!-- Generator: Adobe Illustrator 18.0.0, SVG Export Plug-In . SVG Version: 6.00 Build 0)  -->
<!DOCTYPE svg PUBLIC "-//W3C//DTD SVG 1.1//EN" "http://www.w3.org/Graphics/SVG/1.1/DTD/svg11.dtd">
<svg version="1.1" id="Layer_1" xmlns="http://www.w3.org/2000/svg" xmlns:xlink="http://www.w3.org/1999/xlink" x="0px" y="0px"
	 viewBox="0 0 432 432" enable-background="new 0 0 432 432" xml:space="preserve">
<g>
	<path fill="#231F20" d="M110.8,206.6c-9.3,18.4-34.8,22.6-47.4,8.2c-9.1-10.9-3.5-34.5,8.8-32.7c3.6,0.5,3.1,3.1,0.2,5.3
		c-13.1,9.5-3.8,30.5,9.3,29c5.5-0.5,10.6-4.7,11.3-14c1.6-19.2-8-49.3-15-59.7c-7.8,2.9-19.5,2.2-25.4-6.2
		c-2.6-3.8-5.3-14-2.9-19.5c2-4.2,5.3-4.7,6.6,0.4c1.3,4.9,1.1,11.3,4.4,14.8c2.2,2.4,5.3,3.5,13.5,2c-3.5-8.2-8.9-45.1,18.1-46
		c20.8-0.7,16.2,23.5,8,36.3c-2,3.1-3.8,5.5-4.9,6.8C103.1,152,123,182,110.8,206.6z M99.5,105.2c0.4-7.3-4.2-10.4-8.2-3.6
		c-3.5,5.7-2.9,15.9,0.5,20.1C95.8,117.7,99.3,111.2,99.5,105.2z M211.1,167.9c-3.3,6.6-6.6,13.5-10,20.1
		c-5.1,9.5-16.1,26.6-25.7,27.9c-17.3,2.4-14.2-31.2-12.6-49.8c0.9-10.8,0.2-13-8.9-0.9c-16.6,22.1-11.1,39.4-13.7,48
		c-3.1,3.6-8.8,6.4-13.3,4.2c-3.6-1.8-4.2-10.4-4.6-14.4c-9.9-89.2,11.5-118.9,25.9-117.5c27.2,2.7-1.8,62.9-9.1,77.3
		c0.2,4.6,0.4,7.3,1.1,9.1c2.9-3.5,11.7-21.5,21.9-25c3.5-1.1,7.5-0.4,11.7,3.1c9.7,7.8,2.9,28.8,2.6,44.5c0,6.2,0.9,8.9,2.4,9.5
		c2.7,0.9,10.4-10.6,17-21.5c4.4-7.5,8.4-14.8,9.9-17.7C208.5,158.4,217.1,156.1,211.1,167.9z M137.9,147.7c5.1-7.7,14.6-31,14-45.1
		c-0.4-8.6-3.8-11.7-8.4-2.6C137.6,112.3,137.4,137.4,137.9,147.7z M274.2,168.8c-8.2,16.1-23.7,56.7-43.2,58.4
		c-5.5,0.5-11.3-2-16.8-8.8c-8.8-10.9-10.9-30.1-10.2-42.5c0.9-19.9,7.3-38.9,17-42c9.1-2.9,26.6,2.9,22.8,15
		c-3.5,10.6-15.9,11.5-22.8,18.4c-0.5,0.9,2.6,40.5,11.9,47.4c8.6,6.6,28.3-32.8,35.8-49.1C271.8,159.3,280.4,157,274.2,168.8z
		 M221.9,155c3.1-0.4,7.3-3.8,10-7.5c2.7-3.8,1.6-6-0.5-6.6C224,139.3,222.8,150.2,221.9,155z M380,167.9
		c-7.3,13.3-34.1,66-50.5,57.6c-7.5-4-11.5-16.8-13-33.2l-0.5,0.9c-8.8,14-22.3,30.6-33.6,24.8C250.3,202.6,269.8,77.6,301.8,86
		c10.9,2.9,6.4,26.1,4,35.7c-4.4,18.4-12.4,36.1-22.1,52c-2.2,6.4-1.6,31.2,3.6,34.5c4.9,2.9,14.4-8.8,21.7-19.3
		c2.6-3.5,4.7-6.8,6.9-10.2c0-29.6,6.9-55.6,18.1-73c5.1-8,11.1-12.2,17.5-10.4c6.8,1.6,7.7,11.1,6.8,20.2
		c-2,23.2-13,38.7-24.8,58.2c-2,6.4-4.4,38.7,1.1,42c6.8,4,35-42.7,39.8-50.9C377.8,158.4,386.4,156.1,380,167.9z M283.9,157.9
		c6.8-7.5,16.6-35.6,18.4-52.9c1.3-13.3-2.2-16.6-7.7-2.4C288.4,118.5,283.3,151.1,283.9,157.9z M333.9,157.9
		c6.6-7.5,16.4-26.3,18.2-43.6c1.5-13.3-2-16.6-7.5-2.6C338.2,127.8,333.3,151.1,333.9,157.9z M133.4,324.4
		c-2,10.6-10.2,30.5-25,35.9c-10.2,3.8-29-0.5-28.1-13.9c0.9-16.1,23.3-26.5,37.4-29.2c0.2-0.5,1.1-12.2,1.8-27.4
		c-7.5,8-25.9,16.1-33.7,5.8c-4.9-6.2-3.1-16.2-1.8-21.5c2.4-11.3,6.9-37,4-41.8c-0.7-1.3-1.5-2.4-3.5-1.5c-4,1.6-7.1,1.6-4.6-1.8
		c2.4-3.1,9.7-4.7,14.4-2.2c13.5,6.9,6,48,7.1,61.1c0.5,6.4,6.2,2.6,11.5-2.6c7.8-7.5,7.8-21.9,8.2-36.5c0.2-5.5,0.2-10.6,0.2-14.8
		c0-3.1,2.7-10,10-9.5c7.8,0.5,7.8,9.3,7.7,12.2c-1.1,20.1-0.2,57.3-4.2,78.6C147.1,316.5,143.6,319.5,133.4,324.4z M117.3,328
		c-5.7-0.4-14.4,3.6-20.4,8.8c-14.8,12.2-1.1,19.2,6.9,14.4C110.9,347,116.2,335.2,117.3,328z M216.2,307.2
		c-8.2,16.1-23.7,56.7-43.2,58.4c-5.5,0.5-11.3-2-16.8-8.8c-8.8-10.9-10.9-30.1-10.2-42.5c0.9-19.9,7.3-38.9,17-42
		c9.1-2.9,26.6,2.9,22.8,15c-3.5,10.6-15.9,11.5-22.8,18.4c-0.5,0.9,2.6,40.5,11.9,47.4c8.6,6.6,28.3-32.8,35.8-49.1
		C213.8,297.8,222.4,295.4,216.2,307.2z M163.8,293.4c3.1-0.4,7.3-3.8,10-7.5c2.7-3.8,1.6-6-0.5-6.6
		C166,277.7,164.8,288.6,163.8,293.4z M295.4,306.3c-2.7,5.3-5.7,10.6-8.4,15.5c-4.2,7.3-8.6,15.1-13.5,21.7
		c-5.3,7.1-10.8,11.5-15.1,11.5c-4.9,0-9.3-4.9-12-17.1c-6.8,8-13.9,26.1-28.5,19.7c-21.5-9.1-13.9-60,5.8-72.2
		c8.8-5.3,23.5-0.5,31.7,3.8c4.4-3.6,7.5-4.7,9.9,2.6c3.1,9.8-4.9,28.3-3.5,44.3c0.5,6.2,2.6,5.8,6.7,0.9c4.6-5.1,8.9-13,12.4-18.6
		l4.7-7.8l4.2-7.3C293.2,296.8,301.7,294.5,295.4,306.3z M245.9,294.1c-14-12-25.2,33.7-24.6,43.2c0.4,11.1,5.8,14.4,13.7,5.3
		c4.6-5.5,7.5-14,9.9-19.5C248.1,314.9,253,300.1,245.9,294.1z M379.8,306.3c-3.3,6.6-6.6,13.5-10,20.1
		c-5.1,9.5-16.1,26.6-25.7,27.9c-17.3,2.4-14.2-31.2-12.6-49.8c0.9-10.8,0.2-13-8.9-0.9c-16.6,22.1-11.1,39.4-13.7,48
		c-3.1,3.6-8.8,6.4-13.3,4.2c-3.6-1.8-4.2-10.4-4.6-14.4c-9.8-89.2,11.5-118.9,25.9-117.5c27.2,2.7-1.8,62.9-9.1,77.3
		c0.2,4.6,0.4,7.3,1.1,9.1c2.9-3.5,11.7-21.5,21.9-25c3.5-1.1,7.5-0.4,11.7,3.1c9.7,7.8,2.9,28.8,2.6,44.5c0,6.2,0.9,8.9,2.4,9.5
		c2.7,0.9,10.4-10.6,17-21.5c4.4-7.5,8.4-14.8,9.9-17.7C377.3,296.8,385.8,294.5,379.8,306.3z M306.7,286.1c5.1-7.7,14.6-31,14-45.1
		c-0.4-8.6-3.8-11.7-8.4-2.6C306.3,250.7,306.1,275.9,306.7,286.1z M401.2,361.4c-3.1,4.2-8,4-11.1,1.6c-3.5-2.6-5.1-7.5-1.1-12.6
		c2.9-3.6,8.4-3.6,11.5-0.9C403.5,352.3,404.1,357.6,401.2,361.4z M408.1,283.5l-8,48.5c-0.9,5.1-7.5,4.9-8.4-0.2
		c-3.1-18.2-2.9-78.8,3.6-96.5c1.5-3.8,8.8-2.2,10.2-0.4C415,246.1,410.7,270.4,408.1,283.5z"/>
	<path fill="#CC9C5E" d="M340.4,239.5c2.4-0.3,4.7-0.2,7,0c1.1,0.1,2.1,0.2,3.2,0.2c2.4,0.1,4.4-1.2,5.4-3.4c1-2.1,2-4.3,3-6.4
		c0.6-1.1,1.4-2.2,2.2-3.2c0.5-0.6,1.1-1.1,1.7-1.5c1-0.7,2.1-0.6,3.2,0c0.8,0.5,1.5,1.2,2,1.9c1.2,1.7,2,3.6,2.7,5.6
		c0.5,1.5,1,2.9,1.5,4.4c0.1,0.3,0.2,0.5,0.3,0.8c0.5,1.1,1.3,1.8,2.5,2c1.3,0.2,2.5,0.4,3.8,0.5c1.5,0.2,2.9,0.2,4.4,0.4
		c0.9,0.1,1.7,0.3,2.6,0.6c2,0.8,2.7,2.5,1.7,4.3c-0.5,0.9-1.1,1.8-1.8,2.5c-1.5,1.4-3.2,2.7-4.9,4c-0.7,0.6-1.4,1.1-2.1,1.7
		c-1.1,1-1.6,2.2-1.4,3.7c0.2,1.5,0.4,2.9,0.7,4.4c0.4,1.9,0.9,3.7,1.2,5.6c0.2,0.8,0.3,1.7,0.3,2.5c0.1,2.1-1.2,4-4.2,3.9
		c-1.2-0.1-2.4-0.5-3.5-1.1c-1.6-0.9-3-2.1-4.3-3.3c-1.3-1.2-2.6-2.5-3.9-3.7c-1.3-1.2-1.7-1.3-3.3-0.4c-1.3,0.7-2.5,1.5-3.7,2.3
		c-2.3,1.5-4.6,3.2-7.1,4.4c-1,0.5-2.1,1-3.2,1.3c-0.8,0.2-1.6,0.4-2.4,0.3c-1.6-0.1-2.8-1.2-3.2-2.7c-0.2-1-0.2-1.9,0-2.9
		c0.3-1.7,0.9-3.4,1.6-5c0.7-1.5,1.3-3.1,1.9-4.6c0.8-2.1,0.4-4-1.3-5.6c-0.9-0.8-1.7-1.5-2.6-2.3c-1.2-1-2.4-2.2-3.3-3.5
		c-0.7-1-1.3-2.1-1.5-3.4c-0.2-1.5,0.3-2.6,1.7-3.3C338.3,240.1,339.4,239.8,340.4,239.5z M362,256c2.9-0.6,4.7-3.2,4.1-6
		c-0.5-2.8-3.1-4.6-5.9-4.1c-2.8,0.5-4.7,3.1-4.2,5.9C356.5,254.5,359,256.5,362,256z M353.1,261.9c1.6-0.3,2.7-1.8,2.4-3.4
		c-0.3-1.6-1.9-2.7-3.5-2.4c-1.6,0.3-2.6,1.8-2.3,3.3C350,261.2,351.5,262.2,353.1,261.9z M372.4,259.9c-0.2-1.6-1.7-2.7-3.3-2.5
		c-1.6,0.2-2.7,1.8-2.4,3.4c0.2,1.5,1.7,2.6,3.3,2.4C371.5,263,372.6,261.5,372.4,259.9z M365.4,239.4c-0.3-1.6-1.8-2.7-3.4-2.4
		c-1.6,0.3-2.7,1.8-2.4,3.4c0.3,1.5,1.8,2.6,3.3,2.4C364.6,242.5,365.7,241.1,365.4,239.4z M374.4,248.1c-0.3-1.6-1.7-2.7-3.3-2.4
		c-1.6,0.3-2.7,1.8-2.4,3.4c0.3,1.5,1.7,2.6,3.3,2.4C373.6,251.2,374.6,249.7,374.4,248.1z M350.1,245c-1.6,0.3-2.6,1.7-2.4,3.3
		c0.3,1.6,1.8,2.7,3.4,2.4c1.6-0.3,2.6-1.8,2.4-3.3C353.2,245.8,351.7,244.7,350.1,245z M343.2,246.4c0.9-0.2,1.4-1,1.2-2
		c-0.2-0.9-1-1.4-1.9-1.3c-0.9,0.2-1.5,1.1-1.3,2C341.5,246,342.3,246.6,343.2,246.4z M347,265.9c-0.8,0.1-1.4,1-1.3,1.8
		c0.1,0.9,1,1.6,1.9,1.4c0.8-0.1,1.4-0.9,1.3-1.8C348.7,266.4,347.8,265.8,347,265.9z M375.4,267.7c-0.1-0.8-0.9-1.4-1.8-1.3
		c-0.9,0.1-1.5,0.9-1.4,1.8c0.1,0.9,0.9,1.5,1.8,1.4C374.9,269.4,375.6,268.6,375.4,267.7z M364.2,232.5c0.8-0.2,1.4-1,1.2-1.8
		c-0.2-0.8-1-1.3-1.8-1.2c-0.8,0.2-1.4,1-1.2,1.8C362.6,232.2,363.4,232.7,364.2,232.5z M380.3,247.6c0.8-0.1,1.4-0.9,1.3-1.8
		c-0.1-0.8-0.9-1.3-1.7-1.2c-0.9,0.1-1.4,0.9-1.3,1.8C378.8,247.2,379.5,247.8,380.3,247.6z M223.5,121.9c0.1-0.6,0.3-1.1,0.4-1.7
		c1.7-7.6,3.5-15.2,5.2-22.9c2.4-10.6,4.3-21.3,5.5-32.1c0.6-5.3,1.1-10.5,1.4-15.8c0.2-3.4,0.3-6.8,0-10.2
		c-0.4-5.8-3.6-9.6-9.8-10.4c-6.4-0.8-12.3,0.7-17.8,3.8c-1.2,0.7-2.2,1.6-3.2,2.6c-0.7,0.7-1.3,1.5-1.7,2.4c-0.2,0.3-0.2,0.9,0,1.3
		c1.4,2.7,2.2,5.7,2.8,8.7c2.3,12,4.6,24,6.9,36c2.4,12.4,5.1,24.8,9.4,36.7c0.2,0.5,0.4,1.1,0.6,1.6
		C223.3,121.9,223.4,121.9,223.5,121.9z M219.1,120.6c-0.2-0.5-0.3-1-0.5-1.5c-1.2-3.9-2.5-7.7-3.6-11.6
		c-3.6-13.5-6.1-27.3-8.8-41.1c-1.2-6.3-2.2-12.6-3.5-18.9c-0.5-2.3-1.2-4.6-2.1-6.7c-1-2.3-2.8-2.8-5.1-1.9c-0.3,0.1-0.7,0.3-1,0.5
		c-6.4,3.5-9.5,9.2-10.4,16.3c-0.1,0.9,0.2,1.7,0.7,2.5c0.9,1.3,1.7,2.6,2.4,4c1.4,2.8,2.7,5.6,4,8.4c6.3,13.5,13.5,26.6,20.6,39.6
		c1.8,3.2,4,6.2,6,9.2c0.3,0.4,0.6,0.8,0.9,1.2C218.9,120.7,219,120.7,219.1,120.6z M227.9,119.7c0.3-0.4,0.6-0.8,0.9-1.2
		c1.5-2.5,3.1-4.9,4.5-7.4c7-12.8,13.3-25.9,18.8-39.5c1.5-3.7,2.8-7.6,4.1-11.4c0.8-2.4,1.1-4.9,0.8-7.5c-0.6-4.9-2.7-8.8-7.3-11
		c-2.7-1.3-5.6-1.8-8.6-1.1c-1.1,0.3-1.3,0.4-1.3,1.4c-0.2,4.4-0.4,8.8-0.7,13.2c-0.6,9.6-1.8,19.1-3.7,28.5
		c-2,10.2-4.4,20.4-6.6,30.6c-0.4,1.7-0.8,3.5-1.2,5.2C227.7,119.6,227.8,119.7,227.9,119.7z M216.1,122.9c-0.3-0.4-0.5-0.8-0.8-1.2
		c-1.6-2.4-3.4-4.8-4.9-7.3c-2.1-3.5-4-7.1-6-10.7c-6.6-12.1-13-24.3-18.7-36.9c-0.8-1.8-1.8-3.5-2.8-5.3c-0.3-0.6-0.8-1.1-1.2-1.7
		c-0.5-0.7-1.1-0.8-1.8-0.4c-0.6,0.3-1.1,0.6-1.6,1c-1.4,1.1-2.1,2.6-2.7,4.2c-1.1,3.2-1,6.5-0.2,9.8c1.4,5.2,3.9,9.8,7,14.2
		c6.1,8.9,13.1,17,20.8,24.6c3.5,3.4,7.1,6.5,11.2,9.2c0.5,0.3,0.9,0.6,1.4,0.9C216,123,216,123,216.1,122.9z M260,58.7
		c-0.8,3.8-2.1,7.5-3.5,11.1c-5.5,13.5-11.5,26.6-18.4,39.5c-2.3,4.3-4.6,8.6-7.5,12.6c-0.1,0.2-0.2,0.4-0.4,0.6
		c0.6-0.1,1.1-0.4,1.5-0.8c1.6-1.5,3.3-3.1,4.9-4.7c7.6-7.4,14.4-15.5,20.9-23.9c2.9-3.7,5.6-7.6,8.3-11.5c1.5-2.2,2.7-4.6,3.5-7.2
		c0.7-2.1,1-4.2,0.7-6.4c-0.6-4.6-4.7-9-9.3-10c-0.1,0-0.3,0-0.5,0C260.2,58.2,260.1,58.5,260,58.7z M214.8,126.1
		c-2.3-1.6-4.7-3.1-7-4.8c-4.6-3.5-8.6-7.6-12.6-11.8c-0.4-0.4-0.8-0.8-1.2-1.2c-0.2,0.4-0.2,0.5-0.3,0.6c-0.7,3.5-1.3,7-2,10.5
		c-0.3,1.7-0.5,3.3,0,5c0.5,1.7,1.5,3,3.3,3.5c1.5,0.4,3,0.7,4.5,0.6c4.2-0.1,8.4-0.4,12.5-0.8c1.3-0.1,2.5-0.4,4.2-0.7
		C215.6,126.6,215.2,126.3,214.8,126.1z M250.5,106.9c-0.2,0.3-0.4,0.6-0.6,0.9c-4,4.3-8.1,8.7-12.2,12.9c-2.1,2.2-4.4,4.2-7,5.8
		c-0.1,0.1-0.2,0.3-0.4,0.5c4.4,0.9,8.7,1.5,13,1.6c1,0,2-0.1,3-0.3c2.2-0.5,3.8-1.7,4.1-4.1c0-0.3,0.1-0.5,0.2-0.8
		c0.8-5.4,0.6-10.8,0.3-16.3C250.7,107.1,250.6,107,250.5,106.9z"/>
	<path fill="#7FB9BC" d="M27,302.8c-0.4,0.1-0.8,0.1-1.2,0.2c-1.3,0.1-2.4-0.2-3.3-1.2c-0.5-0.5-0.9-1.1-1.2-1.7
		c-1.6-2.8-1.8-5.8-1.2-8.9c0.2-1.2,0.7-2.3,1.2-3.4c0.1-0.2,0.2-0.5,0.4-0.8c-0.2-0.1-0.3-0.1-0.5-0.1c-1.4-0.3-2.2-1.3-2.2-2.6
		c0-0.7,0.1-1.4,0.4-2.1c0.8-2.1,2.1-3.9,3.8-5.5c5.4-4.8,11.7-7.2,18.9-6.9c8.8,0.3,16.1,3.9,21.8,10.6c2.4,2.7,4,5.9,4.6,9.5
		c0.5,2.9,0.4,5.7-0.3,8.5c-1,4.4-2.8,8.5-5.2,12.3c-2.2,3.5-4.4,6.9-6.6,10.4c-1.8,2.8-3.4,5.6-4.8,8.6c-1.2,2.7-2,5.5-2,8.4
		c-0.1,2.5,0.5,5,1.4,7.4c0.7,1.8,1.6,3.6,2.8,5.2c0.1,0.1,0.1,0.2,0.2,0.3c0.2,0.4,0.1,0.8-0.1,1c-0.2,0.3-0.6,0.4-1,0.2
		c-0.2-0.1-0.4-0.2-0.6-0.4c-1.4-1.2-2.4-2.7-3.2-4.3c-1.9-4.1-2.5-8.5-2.2-13c0.3-4.4,1.3-8.6,3-12.6c1.7-4,3.3-8,4.9-12
		c1-2.5,1.9-5.1,2.4-7.7c0.7-3.5,0.8-7-0.3-10.4c-1.3-3.9-3.8-6.8-7.5-8.7c-2-1-4.2-1.2-6.4-0.7c-2.6,0.5-5,1.7-7.1,3.5
		c-4.4,3.7-4.1,9.5-2.2,12.9c0.8,1.5,2.1,2.7,3.8,3.4c0.9,0.4,1.9,0.4,2.8,0.1c1.2-0.4,2.1-1,3-1.9c0.6-0.6,1.1-1.1,1.6-1.7
		c0.3-0.4,0.7-0.7,1-1c1.9-1.6,4-1.7,6-0.3c1.5,1,2.4,2.5,2.8,4.2c0.4,1.6,0.4,3.3-0.1,4.9c-1.3,4.1-4.1,6.8-8.2,8
		c-4,1.3-7.9,0.7-11.6-1.2c-2-1-3.8-2.3-5.2-4.1c-1.4-1.7-2.3-3.5-2.7-5.6C27.1,303.1,27,303,27,302.8z M77.9,294.4
		c0.9-4.9,1.2-9.9,0.9-14.9c-0.4-6.4-1.9-12.4-4.8-18.1c-1.8-3.5-4.1-6.7-7-9.3c-2.2-2-4.7-3.7-7.7-4.5c-1.5-0.4-3-0.6-4.5-0.2
		c-1.7,0.5-2.5,1.8-2.3,3.5c0.1,1,0.5,2,1,2.8c0.6,0.9,1.2,1.9,1.9,2.7c1.3,1.6,2.7,3.1,4.1,4.7c3.1,3.6,6.1,7.3,8.5,11.4
		c1.4,2.4,2.8,4.9,3.7,7.6c1.3,4,1.8,8.2,1.8,12.4c0,2.6-0.4,5.1-1.1,7.6c-0.8,2.8-2.3,5.3-4.1,7.6c-0.1,0.2-0.3,0.4-0.4,0.6
		c-0.3,0.8,0.3,1.5,1.1,1.4c0.2,0,0.5-0.1,0.6-0.3c0.5-0.4,1.1-0.8,1.5-1.3c2.3-2.6,4.1-5.6,5.4-8.9C77.1,297.6,77.6,296,77.9,294.4
		z M55.6,333.6c-1.1,4.5-1,9,0.3,13.4c0.2,0.8,0.6,1.6,1,2.4c0.1,0.2,0.2,0.3,0.3,0.4c0.3,0.2,0.6,0.3,1,0.2
		c0.4-0.2,0.6-0.5,0.6-0.9c0-0.3,0-0.5-0.1-0.8c-0.1-1-0.2-2,0-3.1c0.5-2.5,1.2-4.9,2.4-7.2c2-3.9,4.6-7.3,7.9-10.2
		c1.5-1.2,2.9-2.5,4.3-3.7c0.9-0.8,1.7-1.7,2.5-2.6c0.9-1.1,1.6-2.3,1.9-3.7c0.5-2.1-0.5-3.6-2.6-4c-1.4-0.2-2.7,0-4.1,0.4
		c-1.4,0.5-2.6,1.2-3.8,2c-4.9,3.6-8.4,8.3-10.8,14.2C56.2,331.4,55.9,332.5,55.6,333.6z M38.2,258.4c-1-0.3-1.9-0.5-2.9-0.7
		c-3.5-0.7-7-0.7-10.5,0.2c-1.7,0.5-3.4,1.1-4.8,2.1c-0.8,0.5-1.5,1.1-2,1.9c-0.8,1.1-1.2,2.3-0.9,3.6c0.4,1.5,1.4,2.3,3,2.1
		c0.8-0.1,1.7-0.4,2.5-0.7c1.4-0.6,2.7-1.2,4-1.8c3.2-1.4,6.5-2.2,10-2c5.7,0.4,10.9,2.1,15.6,5.3c0.3,0.2,0.7,0.4,1,0.6
		c0.8,0.3,1.4-0.3,1.2-1.1c-0.1-0.3-0.3-0.7-0.5-1c-0.6-0.6-1.2-1.2-1.8-1.7c-3.2-2.4-6.7-4.2-10.4-5.6
		C40.7,259.1,39.5,258.7,38.2,258.4z M54.8,192.4c0.1,2.1-0.3,3.7-1.2,5.4c-0.7,1.3-2.5,2.9-3.6,3.7c-3,2-6.6,3-9.6,2.6
		c-3.1-0.4-6.4-2.1-9-4.7c-0.1-0.1-0.3-0.3-0.5-0.5c-1.1,2.6-1.7,5.4-2,8.4c-0.1,1.2-0.1,4.9,0,6c0.5,4.7,2.1,10.6,4.1,15
		c1.1,2.3,2.5,4.8,4.1,7.1c1.7,2.4,3.6,4.5,5.3,5.8c1,0.7,2.5,1.6,3.1,1.9c1.4,0.2,2.6,1.6,2.6,3.1c0,1.1-0.6,2.2-1.5,2.8
		c-0.5,0.3-1.1,0.5-1.7,0.5c-1.3,0-2.8-0.7-5.2-2.3c-2.6-1.7-5.9-5.2-8.2-8.5c-3.6-5.2-6.1-10.9-7.6-17.3c-1.1-4.5-1.4-7.1-1.5-11.1
		c0-3.3,0.2-5.4,0.8-8.1c0.7-3.2,2-6.6,3.7-9.4c-0.7-1.6-1.3-3.9-1.7-5.8c-0.3-2-0.4-2.7-0.4-5.5c0-2.5,0-3,0.2-4.2
		c0.6-5,2.1-9.6,4.6-14.3c2.8-5.3,6.9-10.5,10.5-13.6c0.7-0.6,1.4-1,2.1-1.5l0.8-0.5c0.7-0.5,1.8-1.3,3.2-1.4h0c2,0,2.8,1.2,3,1.7
		c0.5,1.2,0.3,2.7-0.6,3.6l-1,0.7c-0.7,0.5-2.6,1.7-3,2c-1.8,1.3-3.7,3.5-5.9,6.5c-4.2,5.8-6.6,11.5-7.4,17.8
		c-0.1,1.1-0.2,4.3-0.1,5.4c0.1,1,0.3,2.1,0.5,3.1c2.7-2.4,5.9-4.2,8.6-4.9c0.8-0.2,2-0.2,2.6-0.2c0.9,0,1.8,0.1,2.3,0.2
		c0.9,0.2,2.4,0.7,3.3,1.1c2.2,1.1,4.1,3.1,5.4,5.6C54.4,189.8,54.7,190.9,54.8,192.4z M47.9,191.2c-0.7-1.3-1.6-2.3-2.7-2.7
		c-0.9-0.4-1.6-0.5-2.4-0.5v-1.9c0,0,0,0,0,0l-0.1,1.9c-0.9,0-1.5,0.1-2.5,0.5c-1.6,0.7-3.7,2.2-5.2,3.7c-0.2,0.2-0.5,0.5-0.7,0.8
		c0.2,0.2,0.3,0.4,0.4,0.6c0.5,0.6,1.5,1.6,2.1,2c1.3,1,2.8,1.7,4.1,1.9c0.2,0,0.6,0.1,0.9,0.1l1-0.2c2-0.4,4.2-1.8,4.9-2.8
		C48.5,193.7,48.6,192.4,47.9,191.2z M380.5,187.9c-1-1.8-1.4-3.4-1.3-5.4c0.1-1.5,0.9-3.7,1.6-4.9c1.8-3.1,4.6-5.7,7.4-6.6
		c3-1,6.7-1,10.2,0.1c0.2,0.1,0.4,0.1,0.6,0.2c-0.2-2.8-0.8-5.6-1.9-8.4c-0.4-1.1-2.1-4.4-2.7-5.4c-2.6-4-6.7-8.5-10.4-11.5
		c-2-1.6-4.3-3.2-6.8-4.5c-2.6-1.4-5.3-2.4-7.3-2.8c-1.2-0.2-3-0.3-3.6-0.3c-1.4,0.4-3.1-0.3-3.8-1.6c-0.5-1-0.4-2.2,0.2-3.2
		c0.3-0.5,0.7-0.9,1.3-1.2c1.1-0.6,2.8-0.7,5.7-0.3c3.1,0.4,7.6,2,11.1,4c5.5,3.1,10.3,7,14.6,12c3,3.5,4.5,5.7,6.3,9.3
		c1.5,2.9,2.2,4.9,2.9,7.6c0.8,3.2,1.1,6.8,0.9,10.1c1.3,1.1,2.9,2.9,4.1,4.4c1.2,1.6,1.6,2.3,2.8,4.8c1.1,2.2,1.3,2.7,1.7,3.9
		c1.7,4.8,2.4,9.5,2.3,14.9c-0.1,6-1.4,12.5-3.3,16.9c-0.3,0.8-0.8,1.5-1.2,2.3l-0.4,0.8c-0.4,0.8-1,2-2.2,2.7l0,0
		c-1.8,0.9-3,0.1-3.5-0.2c-1-0.9-1.5-2.3-1.1-3.5l0.5-1.1c0.4-0.7,1.5-2.7,1.8-3.1c1-2,1.7-4.8,2.3-8.5c1.2-7.1,0.7-13.2-1.3-19.2
		c-0.4-1.1-1.7-3.9-2.4-4.9c-0.5-0.9-1.2-1.7-1.8-2.5c-1.3,3.3-3.4,6.4-5.5,8.2c-0.6,0.5-1.7,1.1-2.2,1.4c-0.8,0.4-1.6,0.7-2.1,0.9
		c-0.9,0.2-2.4,0.5-3.4,0.5c-2.5,0-5.1-0.9-7.3-2.6C382,190.1,381.2,189.2,380.5,187.9z M387.2,185.9c1.2,0.9,2.5,1.3,3.6,1.2
		c1-0.1,1.6-0.3,2.4-0.7l0.9,1.7l0,0l-0.8-1.8c0.8-0.4,1.3-0.8,2-1.6c1.1-1.3,2.3-3.6,3-5.6c0.1-0.3,0.2-0.7,0.3-1.1
		c-0.2-0.1-0.5-0.2-0.7-0.3c-0.8-0.3-2.1-0.8-2.8-0.9c-1.6-0.3-3.3-0.2-4.5,0.1c-0.2,0.1-0.6,0.2-0.9,0.4l-0.8,0.6
		c-1.6,1.3-2.9,3.4-3.1,4.7C385.5,183.9,386,185.1,387.2,185.9z M288.5,249.6c-0.4,1.8-2.3,2.8-3.5,3.5c-2.2,1.4-4,2.5-5.8,3.6
		c-4.7,2.9-9.3,4.9-14.2,6.4c-7.1,2.1-13.5,2.8-20.7,2.3c-1.9-0.1-6.4-0.7-8-1c-5.3-1-11-2.9-15.7-5.3c-1.1,0.8-1.9,1.3-3,1.9
		c-3.3,1.8-9,3.4-14.7,4.3c-3.9,0.6-7.7,0.9-12,0.9c-3.6,0-7.7-0.2-12.4-0.6c-3.6-0.3-10.8-1.3-17.1-2.4c-1.3-0.2-3.3-0.6-4.5-0.7
		c-1.3-0.1-4-0.3-4.4-2.7l-0.1-0.3l0-0.5c0.1-1.3,1.2-2.6,2.5-2.8l0.6,0c0.3,0,1.1,0,6.7,1c5.2,0.9,7,1.2,12.1,1.8
		c5.4,0.7,5.9,0.7,10.2,1c5.7,0.3,10.3,0.2,14.9-0.3c6.2-0.7,12.1-2.3,15.4-4.1c-1.5-1.2-2.8-2.5-4.1-4.2c-1.7-2.2-2.5-3.6-3.1-5.4
		c-0.6-1.9-0.8-3.4-0.5-5.2c0.3-1.6,0.8-2.9,1.8-4.3c0.6-0.9,1.1-1.4,2-2c1.3-1,2.1-1.4,3.6-1.8c1.5-0.4,2.4-0.5,4.3-0.3
		c1.8,0.2,2.7,0.4,4.1,1.1c2.8,1.4,4.7,3.5,5.8,6.7c0.7,2,0.9,3.6,0.7,5.8c-0.1,1.8-0.6,3.3-1.3,4.8c-0.5,1.1-1.5,2.5-2.6,3.8
		c0.3,0.1,0.6,0.2,0.7,0.3c5.5,2.3,10.9,3.7,16.8,4.2c5.7,0.5,9.8,0.4,15-0.7c2.8-0.6,5.3-1.2,7.5-2c5-1.8,7.7-3.2,14.5-7.5l3.2-2
		c0.6-0.4,1.5-0.9,2.5-0.9c1,0,1.9,0.5,2.5,1.2C288.5,247.9,288.7,248.8,288.5,249.6z M219.7,251.6c1-1.1,1.8-2.1,2.1-2.6
		c0.3-0.4,0.6-1.3,0.9-1.8c0.2-0.5,0.4-2.2,0.3-2.9c-0.2-1.8-1-3.6-1.9-4.4c-0.9-0.7-2.3-1.2-3.3-1.2l-0.1-1.7c0,0,0,0,0,0v1.7
		c-1.3,0-2.4,0.3-3,0.8c-0.6,0.5-1,1-1.3,1.8c-0.2,0.4-0.3,1.2-0.3,1.5c0.1,1.5,0.8,2.9,2.3,4.9C216.6,249.1,218,250.4,219.7,251.6z
		"/>
</g>
</svg>
