<?xml version="1.0" encoding="utf-8"?>
<!-- Generator: Adobe Illustrator 18.0.0, SVG Export Plug-In . SVG Version: 6.00 Build 0)  -->
<!DOCTYPE svg PUBLIC "-//W3C//DTD SVG 1.1//EN" "http://www.w3.org/Graphics/SVG/1.1/DTD/svg11.dtd">
<svg version="1.1" id="Layer_1" xmlns="http://www.w3.org/2000/svg" xmlns:xlink="http://www.w3.org/1999/xlink" x="0px" y="0px"
	 viewBox="0 0 432 432" enable-background="new 0 0 432 432" xml:space="preserve">
<path fill="#231F20" d="M101.2,97.3c-7.6,18-15.6,38.4-18,43.2c-9.1,18.8-19.4,19.6-29.5,9.1c-15.4-15.2-11.5-68.1,2.6-86.9
	c1.7-2.1,4.9-2.4,5.1-0.4c0.8,1.6,1.8,9.6-0.2,23.2c-1.2,10-2.1,19.8-2,29.9c0.4,23.7,7.5,45.5,18.1,25.9
	c6.2-11.8,12-26.6,24.7-56.3c1.3-6.1,3.7-13.6,5.3-18.7c0.7-2.5,4.5-5.5,5.1-0.6c0.1,0.8,0.2,1.6,0.2,2.4c3.2,43.9-1.3,61.4,10.2,84
	c2.3,4.4-3.4,6.2-9.4,0.3C101,139.2,99.6,118.4,101.2,97.3z M164,142.5c-1.5-10.2,0.1-22.4,3.1-34.4c5.1-19.3,2.3-24.5-8.3-7.3
	c-5.9,9.1-10.1,18.9-12.8,29.1c-2.1,8.2-2.3,8.8-2.7,16.8c-0.7,10.2-8.6,8.2-11.2-0.3c-1.2-4.1-2.6-8.1-3.3-12.2
	c-2.2-11.7,1.2-36.9,8.3-41.6c6.6-4.3,4,32.7,4.9,38.2c2.6-12.3,9.6-26.9,19.1-38.2c8.2-11,19.4-9.6,19.4,1.2
	c0,15.2-8.4,63.4,4.7,54.6c9-6.1,14.9-18.5,17.4-29.1c0.2-0.3,0.9-0.7,1.4-0.8c0.6,0,0.8,0.6,0.7,1.2c-1.5,14-7.3,25-16.5,31.7
	C179.1,158.1,165.9,154.2,164,142.5z M201.4,137.2c-1.3-2.3-1.9-4.7-2.2-7.1c-2.7-23,17.9-52.8,38.8-35.8
	c-0.7-19.7,6.6-43.2,16.2-51.3c7.3-6.3,15.6-3.5,16.5,8.9c0.6,11.7-8.5,31.8-17.5,48.2c0.1,38.4,9.4,53.2,19.7,23.7
	c0.9-1.8,3.2-1.5,3.2,0c-7.6,31.5-27,35.9-34.5,5.8c-1.3,2.6-6.7,9.4-11.8,13.6C221,150.4,206.8,147.2,201.4,137.2z M240.2,123
	c-1.1-7.3-2-16.2-2.1-24c-29.2-18.5-35.2,52.9-12.8,39C230.5,134.3,236.7,128.4,240.2,123z M265.4,50.3c0-7.7-4.3-8.9-7.3-0.8
	c-3.8,9.4-5.7,24.3-5.2,41.3C261.4,74.5,266,61.6,265.4,50.3z M297,83.3c7.9-1.7,14.4,3.2,13.9,10.7c-0.7,14.5-16.2,25.7-26.8,27.9
	c2.6,38,27.6,18.8,40.7-8.1c0.4-1,2.4,0.2,1.5,1.7c-11.6,37.8-47,45.6-55.4,15.8C267.1,112.5,278.8,88.2,297,83.3z M299.7,105.1
	c6.3-11,2-23.4-6.3-12.8c-4.9,5.7-8.4,13.4-8.4,24.6C291.7,115.7,297,109.9,299.7,105.1z M327.3,146.5c-7.8-20-9.2-37.1-3.1-58.4
	c0.6-2.4,1.5-4.8,2.6-7.1c1.3-3,6.3-2.9,6.9-0.2c0.2,1.1,0.2,2.4,0.2,3.5c-1.1,15.8-0.5,32.4,1.4,37.7c3.8-15.7,7.9-27.9,13.4-35.3
	c1.4-2.2,3.2-4.1,5.3-5.7c5-3.9,13.5-3.1,16.5,2.1c3.4,5.8,3.8,18.2,0.8,23.5c-1.5,3.1-7.5,4-6.6-0.1c3.1-14.7-1.1-30.4-8.6-19.2
	c-7.1,11-12.4,26.6-15,39.7c-1.3,6.2-3.3,17.3-3,23.4C338.1,156.3,329.8,153,327.3,146.5z M62,278.2c3.8,0.9,5.8,3.8,6.9,7.7
	c1,3.9,0.9,7.9,0.4,11.8c-0.7,4.7-3.1,15.9-2.9,17.1c0.6-0.7,1.2-1.5,1.8-2.3c3.9-5.3,8.3-10.1,13.5-13.9c3.2-2.2,6.6-4.2,10.4-4.5
	c2.3-0.1,5,0,7.3,0.6c3.7,1,5,4.8,5.6,8.3c0.1,3.9-0.6,7-1.8,10.2c-1.9,5.4-5.3,10.7-7.7,15.8c-2.3,5-6,11.6-8.3,16.5
	c-2.2,4.5-3.5,7.6-5.3,12.3c-3.1,8.2,0,12.6,0.4,12.7c1.8,0.1,4.1-1.2,6.7-3.8c4.7-6.3,3.4-13.3,3.1-15.5c-0.1-1.2-0.4-1.9-0.1-2.2
	c0.4-0.7,1.6-0.9,2.5-1c2.2-0.1,5.4,1.2,5.7,4.1c0.4,4.8,0.4,10.5-4.2,16.4c-4.2,5.3-13.3,8.9-18.7,6.1c-5-2.5-8.2-9.4-7.2-16.2
	c0.4-3.5,1.3-7.3,2.8-10.7c2.6-6.6,5.8-13.2,9.1-19.6c2.5-5.3,5.1-10.5,7.6-15.8c1-2.3,3.5-9.1,2.9-12.6c-1.5,0.9-2.5,1.5-3.5,2
	c-10.1,6.9-17,16.7-21.6,28.4c-2.2,5.3-3.9,10.8-5.8,16.2c-1.5,4.4-6.9,6.4-10.5,3.7c-0.7-0.4-1.2-1.5-1.6-2.5
	c-1.8-4.2-1.5-8.8-1.2-13.3c0.7-7.9,2.6-15.4,4.5-22.8c1.6-5.7,2.8-11.6,3.9-17.4c0.6-2.8,0.6-5.7,0-9.1
	c-3.7,0.7-11.7,12.6-13.6,15.5c-9.2,14.9-12.4,26.2-14.8,44.2c-0.1,1.9-0.1,3.9,0.3,5.8c0.4,2.6,1.5,5.3,2,8
	c0.3,1.8,0.6,3.7,0.7,5.4c0.1,1.8-0.6,2.6-2,3.1c-3.7,1.5-6.3,0.3-8.6-3.1c-2.6-3.7-3.5-7.9-4.5-12.3c-3.4-14.9-2.8-29.7,0.9-44.4
	c0.7-3.1,1.5-5.7,2.8-8.6c0.6-1.8,4.5-4.7,7.3-4.2c2.9,0.3,3.1,2,2.5,5.1c-0.7,3.8-1.5,7.6-2,11.4c-0.3,1.5-0.3,3.1-0.4,4.7
	c0.1,0,9.5-23,22.4-33.5C52.7,279.5,57.9,277.3,62,278.2z M117.3,343.4c-0.6,4.7-0.3,9.1,1.6,13.5c0.7,1.9,1.9,3.5,3.7,4.8
	c1.8,1.3,3.9,0.4,5.8-0.9c3.7-2.9,9.8-11.4,16.1-26c0.7-1.6,1.9-2.2,2.9-1.9c1.9,0.6,0.4,4.1-0.1,5.6c-1.8,4.4-8,16.7-12.3,22.1
	c-6.6,8.6-18.1,7.3-24.3,1.3c-2.5-2.5-3.9-5.6-4.7-8.8c-2.2-9.2,0-17.7,5.1-25.7c1.5-2.2,3.1-4.4,5.3-6.1c3.1-2.6,6.6-3.9,10.8-3.7
	c2.9,0.1,4.2,1.5,4.8,4.1c0.7,3.7,0.3,7.2-1,10.7c-1.8,4.5-5,7.3-10.2,7.6c-0.9,0-1.8,0-2.9,0C117.6,341.1,117.4,342.2,117.3,343.4z
	 M118.5,337.1c2.6,0.4,4.1-0.7,5.3-2.5c1.5-2.2,2.2-4.7,2.5-7.2c0.1-1.6,0-3.1-0.7-4.8C122.3,327.3,119.8,331.8,118.5,337.1z
	 M154,335.9c-2.2,0.3-4.4,0.6-6.6,0.3c-5.4-0.6-8.2-4.7-8.6-10.1c-0.3-5.1,1.2-8.9,3.5-12.3c2.3-3.1,4.4-4.7,8.3-4.2
	c2.9,0.3,5.4,3.9,5.8,7.8c0.3,5-0.4,6.3-1.9,11c-0.3,0.7-0.6,1.5-0.9,2.3c1,0,1.9-0.1,2.8-0.1c3.2-0.4,5-0.7,8,0.6
	c3.7,1.5,5.6,4.1,6,8c0.3,3.7-0.4,6.6-1.5,10.1c-1.2,3.9-2.2,6.7-3.4,10.5c-0.6,2-1.2,3.9-1.8,5.8c-0.4,1.8-0.6,4.4,0,5.4
	c1.9-0.3,4.8-2.8,6.1-4.2c2.9-3.1,5.7-7.5,7.7-11.1c3.2-6.1,5-10.7,7-17.3c0.9-2.9,1.6-6.1,4.5-5.7c1.9,0.4,1.6,3.2,1,5.7
	c-0.7,2.9-2,7.3-3.1,10.1c-2.6,6.6-4.8,10.2-8.9,15.9c-2.8,4.1-6.3,8.3-11,10.4c-2.3,0.9-5.1,1.6-8,0.9c-5.3-1.2-7.5-4.2-7.5-9.7
	c0-3.2,0.6-6.6,1.3-9.8c1.3-5.4,2.9-8.8,4.4-14.2c0.6-2.2,0.9-4.5-0.3-6.7C156.2,335.5,155.2,335.9,154,335.9z M147.7,327.9
	c2.3-2.9,3.8-9.5,1.6-13.2C146.4,317.7,145.5,322.6,147.7,327.9z M261.3,336.1c-1.6,5.6-5.4,14-9.9,22.2
	c-4.7,8.5-9.2,12.7-11.4,14.6c-3.2,2.5-6.7,3.5-10.8,2.9c-3.5-0.4-6.3-2.6-6.9-6.1c-0.6-3.9,0.1-7.6,1.2-11.4c1.8-6,5-11.6,7.9-17.1
	c1.2-2,2.5-4.1,3.5-6.3c0.9-1.9,1.5-3.9,2-6.1c0.4-1.3,0.6-2.9-0.7-4.4c-1,0.4-1.6,0.9-2.5,1.3c-3.7,2.2-6.9,5-9.2,8.5
	c-4.2,5.8-7.3,12.4-9.4,19.4c-0.4,1.5-1.2,2.2-2.5,2.3c-0.9,0-1.8,0-2.5-0.1c-1.6-0.1-2.5-1-2.8-2.6c-1-4.7-0.9-9.5,0-14.2
	c1.2-5.4,2.3-10.8,3.5-16.2c0.3-2,0.7-4.2,0.3-6.7c-0.4,0.3-1,0.4-1.3,0.7c-4.5,3.5-8.2,7.6-10.8,12.9c-3.2,6.3-4.7,13.2-5.6,20.2
	c-0.1,1.3,0.3,2.8,0.6,4.1c0.4,2.3,1.2,4.5,1.8,6.9c0.3,1.8-0.1,2.3-1.9,2.6c-2.3,0.6-4.8,0.3-6.3-2c-0.7-1.3-1.6-2.5-2.2-3.8
	c-3.9-9.2-4.7-18.9-2.9-28.7c0.3-1.8,0.9-3.5,1.8-5.1c1.2-2.3,5-3.2,7-1.8c0.6,0.4,1.2,1.3,1.2,2c0.3,1.5,0.1,2.9,0.3,4.5
	c0,0.4,0,1,0,2c0.4-0.9,0.7-1.2,0.9-1.6c1.9-4.1,4.4-8,7.3-11.4c1.8-1.9,3.8-3.7,5.8-5c2.8-1.9,5.8-2.3,9.1-1.5
	c3.2,0.7,5.3,2.8,5.4,6c0.1,2.2,0,4.4-0.4,6.6c-0.6,3.2-1.6,6.3-2.5,9.9c0.7-0.9,1.2-1.5,1.8-2.2c2.5-3.1,5.3-5.8,8.8-7.9
	c3.2-1.9,6.7-2.9,10.4-2.5c5.4,0.4,8.3,4.1,7.3,9.4c-0.4,2.3-1.2,4.7-2,6.9c-1.8,3.8-3.8,7.5-5.6,11.3c-2,4.5-4.2,9.2-6.3,13.7
	c-1.3,3.2-2,6.7-0.3,9.9c0.3-0.1,5.8-2.6,13.3-14.2c6-9.4,10.4-21.3,10.8-22.7c0.7-1.8,2-4.1,4.4-3.4
	C262.5,332.6,261.6,335.4,261.3,336.1z M282.2,318.8c1.5-0.3,3.1-0.4,4.5,0.6c0.4,0.3,0.7,1,0.9,1.6c0.1,1.3,0.1,2.5,0.1,3.8
	c-0.3,9.7-1.2,19.4-0.6,29.1c0.3,4.5,0.6,9.4,4.1,12.6c2.9-1.3,5.8-6.9,8.6-12.9c3.7-7.6,6.9-16.2,7.9-18.6c0.1-0.4,0.9-2.6,3.1-2.5
	c1.9,0.1,2,1.9,1.3,4.2c-5.6,16.8-10.8,26.6-13.3,30.1c-5.1,6.6-12.4,5.4-16.4,0c-1.9-2.6-2.9-5.7-3.5-8.9c-0.6-3.7-0.9-7-1.2-9.5
	c-0.3,0.6-0.4,1.2-0.7,1.8c-1.6,3.4-3.1,6.7-4.7,9.9c-0.9,1.6-1.8,3.1-2.8,4.5c-3.4,4.5-9.2,6.3-14.2,3.8
	c-3.7-1.8-9.8-13.2-1.2-34.7c1.5-3.7,6-9.4,9.2-11.1c5.1-2.9,10.8-3.7,16.7-1.3C280.5,320.1,280.9,319.1,282.2,318.8z M269.7,351.4
	c1.9-4.1,3.5-8.5,5.1-12.7c1.6-4.4,3.2-8.3,4.4-12.7c-0.7-0.4-1.5-0.9-2.3-1.2c-0.7-0.4-2.6-0.4-3.5,0.1c-1,0.7-3.2,2.8-4.4,4.7
	c-5.4,7.9-7.7,17-8.2,26.5c-0.1,2.3,0.3,4.7,1.2,7.5C265.4,359.6,267.8,355.7,269.7,351.4z M340.3,334.3c-0.3,1.2-4.4,14.5-14,25.7
	c-4.7,5.3-11.7,5.8-16.2,4.1c-5-2-7-6.1-7.6-11.1c-0.7-7.7,0.9-15.1,4.2-21.9c1-2,2.2-3.9,3.4-5.7c1.8-2.6,4.5-3.2,7.6-2.9
	c1.9,0.3,2.5,1.2,2.2,3.2c-0.1,1.6-0.6,3.2-1,4.8c-1.2,4.1-2.3,8.3-3.1,12.6c-0.7,4.2-1.6,8.9-0.7,13.2c0.7,3.1,2.5,4.7,2.8,4.5
	c1.3-0.4,3.7-2.5,4.7-3.7c3.9-4.5,10.2-15.4,13.2-23c0.6-1.5,2-2.2,3.4-2C340.1,332.4,340.7,333.2,340.3,334.3z M314.7,311.1
	c0.3-2.6,3.1-5.3,5.7-4.8c0.7,0.1,1.5,0.7,1.8,1.3c1.5,2.2,1.2,5.3-1,7.2c-1,0.9-3.1,1.5-4.4,0.7
	C315.3,314.4,314.4,312.7,314.7,311.1z M383.9,354.8c3.1-6.3,6.6-14,9.2-20.5c0.3-1,1.2-2.6,3.7-2.2c1.5,0.4,1.5,2.3,1.2,2.9
	c-2,6.1-5.6,14.9-8.6,20.8c-2,4.4-3.9,8-7,11.7c-7.2,8-15.4,4.5-19.3-4.1c-0.7-1.8-1.5-3.8-1.9-7c-0.7,0.9-3.8,7.9-5.6,9.9
	c-2.8,3.2-6.4,4.7-10.8,4.5c-5.6,0-11.1-2.8-13.5-7.6c-1.6-3.5-5.4-19.7,6.3-35.7c5.1-7,11.6-11.3,21.8-5.6c0.1-0.4,0.4-3.2,0.6-3.8
	c1.2-8.2,2.3-16.5,4.7-24.7c1.9-6.9,6.4-19.3,15.1-20.2c2.9-0.3,4.2,0.6,4.8,3.4c0.7,2.9,0.3,11.4,0,14.3c-1.3,14-4.1,22.2-8.9,35.4
	c-1.8,5-3.8,9.8-5.8,14.6c-0.1,0.7-0.4,1.6-0.4,2.3c0.1,5.8,2.5,21.2,6.3,22.1C379.5,364.5,381.7,359.5,383.9,354.8z M352.3,362.1
	c2.3-3.4,3.7-5.8,5.7-10.7c0.3-0.9,0.4-3.9,0.3-5.3c-0.9-6.6-0.7-10.7-0.6-16.4c0-2.2-1-3.5-2.6-4.2c-4.4-1.9-10.1,8.8-11.1,11.7
	c-1.8,4.7-3.1,14.3-1,21.2c0.4,1.6,2.2,5.4,4.2,6.4C348.5,365.5,351.1,363.6,352.3,362.1z M377.1,304.1c1.5-6.6,3.4-17.5,2.5-26.5
	c-2,3.1-5.1,11.7-6.3,16.7c-2,8.9-3.1,16.7-3.8,26c0,2-0.1,3.9-0.1,6C369.5,326.3,375.1,314.2,377.1,304.1z"/>
<path fill="#FC708A" d="M66.1,276.6c-9.7,0-17.3-4-22.6-12c-6.7-9.9-10-24.7-10-44.3c0-26.6,6.2-43.6,18.7-51.1
	c4.1-2.5,9.2-3.7,15.3-3.7c9.1,0,15.6,3.6,19.6,10.7c3.3,6,4.9,13.8,4.9,23.6c0,6.2-0.3,10.7-0.9,13.4c-1,4.3-2.7,6.4-5.2,6.4
	c-1.6,0-2.8-0.5-3.5-1.5c-0.7-1-1.1-2.5-1.1-4.7c0-1.8,0.2-3.8,0.5-6c0.4-2.8,0.6-6,0.6-9.7c0-5.5-0.7-10.1-2.2-13.9
	c-2.1-5.6-5.4-8.4-9.9-8.4c-8.8,0-14.5,7.3-17.1,21.8c-1.1,5.9-1.6,12.5-1.6,19.7c0,14.7,1.5,26.6,4.6,35.8
	c2.8,8.5,6.8,12.8,12.1,12.8c7.6,0,12.5-5.1,14.9-15.4c0.7-2.9,2.2-4.4,4.6-4.4c1,0,2,0.4,2.7,1.1c0.8,0.7,1.1,1.7,1.1,3.1
	c0,6.4-2.4,12.4-7.1,18.1C79.7,273.7,73.5,276.6,66.1,276.6z M133.8,276.6c-5.8,0-10.6-1.2-14.4-3.6c-3.9-2.4-7-5.6-9.4-9.6
	c-2.4-4-4.2-8.5-5.5-13.4s-2.1-10-2.5-15.1c-0.4-5.1-0.6-10-0.6-14.6c0-17.8,3.1-31.7,9.3-41.6c5.5-8.9,13.6-13.3,24.3-13.3
	c14.6,0,24.1,9.5,28.7,28.5c1.6,6.9,2.4,14.4,2.4,22.4c0,11.6-0.9,21.8-2.7,30.5C159.2,266.6,149.4,276.6,133.8,276.6z M136.8,265.9
	c8,0,13.4-6.9,16.2-20.8c1.4-7.1,2.1-17,2.1-29.6c0-7.1-0.5-13.7-1.6-19.6c-1.3-7.3-3.4-12.7-6.4-16.4c-2.4-3-5.5-4.4-9.1-4.4
	c-6,0-10.6,3.8-13.6,11.4c-3.1,7.9-4.7,18.7-4.7,32.5c0,15,1.6,26.9,4.9,35.6C127.5,262.1,131.5,265.9,136.8,265.9z M204.5,276.6
	c-4.7,0-8.5-2.9-11.5-8.6c-2.2-4.1-4.2-9.8-6.1-16.9c-3.1-12-5.8-24.8-8-38.5c-3.6-21.8-5.4-34.1-5.4-37.1c0-5.7,2.7-8.5,8.1-8.5
	c6.2,0,9.7,3.5,10.6,10.6c1.1,9,3.5,23.7,7.1,44.1c4.4,25,7.4,37.5,9.1,37.5c2.4,0,5.5-12.6,9.5-37.7c3-19.5,5.3-36,6.7-49.3
	c0.1-1,0.4-2.1,0.8-3.1c0.9-2.4,2.5-3.6,4.9-3.6c2.3,0,4,0.9,5,2.6c0.9,1.5,1.3,3.8,1.3,7.1c0,2.2-0.3,5.1-0.8,8.6
	c-0.5,3.5-1,6.6-1.4,9.4c-3.3,23.1-7.1,42.6-11.4,58.5c-1.9,6.9-3.8,12.2-5.9,16C213.8,273.6,209.7,276.6,204.5,276.6z M273.5,276.6
	c-6.5,0-11.5-1-15.1-2.9c-6.5-3.5-10.1-9.9-11-19.1c-0.4-4.2-0.6-8.6-0.6-13.2v-59.9c0-3.1,0.3-5.7,0.9-7.9
	c1.3-4.6,4.8-6.9,10.4-6.9h19.3c1.3,0,2.8,0.1,4.4,0.3c3.9,0.5,5.9,2.3,5.9,5.4c0,1.1-0.6,2.2-1.9,3.2c-1.2,1-3.1,1.5-5.6,1.5
	c-1.8,0-3.6,0-5.5-0.1c-1.8-0.1-3.7-0.1-5.5-0.1c-3.4,0-5.1,1.9-5.1,5.7v50.7c0,2.2,0.3,3.6,1,4.2c0.7,0.6,1.7,0.9,3,0.9
	c2,0,4,0,6-0.1s4-0.1,6-0.1c2.4,0,4.2,0.4,5.4,1.1c1.4,0.9,2.1,2.3,2.1,4.3c0,1.1-0.5,2.1-1.4,2.9s-2.3,1.2-4,1.2l-14.8-0.2
	c-2.3,0-3.4,1-3.4,3v3.3c0,3.5,0.6,6.2,1.9,8.1c2,2.9,6,4.4,11.9,4.4c1.9,0,3.7-0.1,5.5-0.3c1.8-0.2,3.7-0.2,5.5-0.2
	c1.2,0,2.3,0.3,3.2,0.9c0.9,0.6,1.4,1.5,1.4,2.6c0,2.3-1.5,4.2-4.6,5.5C286.1,275.9,280.9,276.6,273.5,276.6z M344.1,276.6
	c-3.2,0-6.6-2.7-10.1-8.2c-3.8-5.7-8.3-13.1-13.7-22.2c-1-1.2-1.6-1.9-1.9-1.9c-0.4,0-0.6,0.9-0.6,2.6v17.8c0,7.9-3,11.9-9.1,11.9
	c-2.7,0-4.6-0.6-5.7-1.8c-1.2-1.2-1.9-2.8-2.2-4.7c-0.3-1.9-0.4-3.9-0.4-6v-86.3c0-8.3,4.1-12.4,12.4-12.4c9.5,0,17.8,2.4,24.8,7.1
	c8.1,5.6,12.2,14.2,12.2,25.6c0,8.3-1.4,15.9-4.3,22.8c-3.4,8.3-8.6,14.6-15.6,19.1c-0.4,0.2-0.6,0.5-0.6,0.9c0,0.5,1.7,2.7,5.1,6.7
	c1.3,1.5,2.5,3,3.6,4.4c8.1,10.3,12.1,16.6,12.1,19c0,1.8-0.5,3.1-1.6,4.1S346,276.6,344.1,276.6z M319.9,234.9
	c1.9,0,4.5-1.9,7.8-5.6c3.3-3.7,5.7-8.1,7.4-13.1c1.9-5.7,2.9-11.4,2.9-17.4c0-4-0.6-7.8-1.9-11.1c-2.8-7.3-8-10.9-15.7-10.9
	c-1.7,0-2.5,0.8-2.5,2.4v53.3C317.8,234.1,318.5,234.9,319.9,234.9z M141.7,293.9c0.4,1.3,1.4,2.6,2.8,3.5c0.4,0.2,0.7,0.5,0.7,0.5
	c0,0-0.1,0.1-0.3,0.3c-0.9,0.7-1.9,1.9-2.2,2.5c-0.4,0.8-0.4,1.7-0.1,2.4c0.3,0.6,1,1.2,1.6,1.5c0.5,0.2,0.7,0.3,1.7,0.3
	c2.7,0,4.2-1.1,6.6-4.6c0.9-1.4,1-1.4,1.2-1.4c0.2,0,1.4,0.1,2.7,0.1c1.3,0,2.9,0.1,3.6,0.1l1.3,0.1l-0.5,0.6
	c-0.8,1.1-1.1,1.8-1.1,2.7c0,0.8,0,0.9,0.3,1.4c1,2.1,4,2.6,6.9,1.1c1.3-0.6,2.9-2,4.7-4.1c0.8-0.9,1-1.1,1.6-2.5
	c0.1-0.3,0.1-0.7,0-1c-0.3-0.6-1.7-2.1-2.5-3c-3-2.7-4.5-3.8-6.2-4.6c-2-0.8-4.1-0.5-5.3,0.7c-0.7,0.7-0.9,1.3-0.9,2.5
	c0.1,1.2,0.4,1.8,1.3,2.8l0.7,0.7l-0.9-0.1c-0.5,0-2-0.1-3.4-0.1l-2.5-0.1l-0.6-0.8c-0.8-1.1-3.1-3.3-4.2-4.1
	c-0.9-0.7-2-1.3-2.7-1.4c-0.2-0.1-0.8-0.1-1.3-0.1C142.6,290.1,141.1,291.9,141.7,293.9z M144.5,292.6c0.9-0.5,2.4,0.4,4.7,2.5
	c1.1,1.1,2.1,2.3,2,2.5c-0.1,0.4-1.8,2.8-2.3,3.3c-0.8,0.9-1.3,1.2-2.2,1.4c-0.7,0.2-1.3,0.1-1.6-0.1c-0.3-0.2-0.2-0.4,0.2-0.9
	c0.6-0.8,1.2-1.2,3-2.4c0.7-0.4,0.9-1.1,0.6-1.7c-0.2-0.5-0.5-0.7-1.5-1.1c-1.7-0.8-2.9-1.8-3.2-2.7
	C144,293,144.1,292.8,144.5,292.6z M161,292.4c0.4-0.3,1.2-0.4,1.8-0.3c0.8,0.2,1.2,0.4,2.2,1.1c1.5,1,4.4,3.6,5.3,4.7l0.3,0.4
	l-0.4,0.5c-0.6,0.8-2.6,2.8-3.5,3.4c-0.9,0.7-1.5,1-2.5,1.2c-0.6,0.1-0.8,0.1-1.2,0.1c-0.6-0.1-1-0.4-1-0.8c0-0.7,1.3-2.3,2.4-3
	c0.7-0.5,1-0.8,1-1.4c0-0.7-0.3-1.1-1.8-2.1c-1.1-0.8-2.2-1.7-2.6-2.3C160.7,293.2,160.6,292.7,161,292.4z M183.2,293.9
	c0.4,1.3,1.4,2.6,2.8,3.5c0.4,0.2,0.7,0.5,0.7,0.5c0,0-0.1,0.1-0.3,0.3c-0.9,0.7-1.9,1.9-2.2,2.5c-0.4,0.8-0.4,1.7-0.1,2.4
	c0.3,0.6,1,1.2,1.6,1.5c0.5,0.2,0.7,0.3,1.7,0.3c2.7,0,4.2-1.1,6.6-4.6c0.9-1.4,1-1.4,1.2-1.4c0.2,0,1.4,0.1,2.7,0.1
	c1.3,0,2.9,0.1,3.6,0.1l1.3,0.1l-0.5,0.6c-0.8,1.1-1.1,1.8-1.1,2.7c0,0.8,0,0.9,0.3,1.4c1,2.1,4,2.6,6.9,1.1c1.3-0.6,2.9-2,4.7-4.1
	c0.8-0.9,1-1.1,1.6-2.5c0.1-0.3,0.1-0.7,0-1c-0.3-0.6-1.7-2.1-2.5-3c-3-2.7-4.5-3.8-6.2-4.6c-2-0.8-4.1-0.5-5.3,0.7
	c-0.7,0.7-0.9,1.3-0.9,2.5c0.1,1.2,0.4,1.8,1.3,2.8l0.7,0.7l-0.9-0.1c-0.5,0-2-0.1-3.4-0.1l-2.5-0.1l-0.6-0.8
	c-0.8-1.1-3.1-3.3-4.2-4.1c-0.9-0.7-2-1.3-2.7-1.4c-0.2-0.1-0.8-0.1-1.3-0.1C184.1,290.1,182.6,291.9,183.2,293.9z M186,292.6
	c0.9-0.5,2.4,0.4,4.7,2.5c1.1,1.1,2.1,2.3,2,2.5c-0.1,0.4-1.8,2.8-2.3,3.3c-0.8,0.9-1.3,1.2-2.2,1.4c-0.7,0.2-1.3,0.1-1.6-0.1
	c-0.3-0.2-0.2-0.4,0.2-0.9c0.6-0.8,1.2-1.2,3-2.4c0.7-0.4,0.9-1.1,0.6-1.7c-0.2-0.5-0.5-0.7-1.5-1.1c-1.7-0.8-2.9-1.8-3.2-2.7
	C185.5,293,185.6,292.8,186,292.6z M202.5,292.4c0.4-0.3,1.2-0.4,1.8-0.3c0.8,0.2,1.2,0.4,2.2,1.1c1.5,1,4.4,3.6,5.3,4.7l0.3,0.4
	l-0.4,0.5c-0.6,0.8-2.6,2.8-3.5,3.4c-0.9,0.7-1.5,1-2.5,1.2c-0.6,0.1-0.8,0.1-1.2,0.1c-0.6-0.1-1-0.4-1-0.8c0-0.7,1.3-2.3,2.4-3
	c0.7-0.5,1-0.8,1-1.4c0-0.7-0.3-1.1-1.8-2.1c-1.1-0.8-2.2-1.7-2.6-2.3C202.2,293.2,202.1,292.7,202.5,292.4z M224.7,293.9
	c0.4,1.3,1.4,2.6,2.8,3.5c0.4,0.2,0.7,0.5,0.7,0.5c0,0-0.1,0.1-0.3,0.3c-0.9,0.7-1.9,1.9-2.2,2.5c-0.4,0.8-0.4,1.7-0.1,2.4
	c0.3,0.6,1,1.2,1.6,1.5c0.5,0.2,0.7,0.3,1.7,0.3c2.7,0,4.2-1.1,6.6-4.6c0.9-1.4,1-1.4,1.2-1.4c0.2,0,1.4,0.1,2.7,0.1
	c1.3,0,2.9,0.1,3.6,0.1l1.3,0.1l-0.5,0.6c-0.8,1.1-1.1,1.8-1.1,2.7c0,0.8,0,0.9,0.3,1.4c1,2.1,4,2.6,6.9,1.1c1.3-0.6,2.9-2,4.7-4.1
	c0.8-0.9,1-1.1,1.6-2.5c0.1-0.3,0.1-0.7,0-1c-0.3-0.6-1.7-2.1-2.5-3c-3-2.7-4.5-3.8-6.2-4.6c-2-0.8-4.1-0.5-5.3,0.7
	c-0.7,0.7-0.9,1.3-0.9,2.5c0.1,1.2,0.4,1.8,1.3,2.8l0.7,0.7l-0.9-0.1c-0.5,0-2-0.1-3.4-0.1l-2.5-0.1l-0.6-0.8
	c-0.8-1.1-3.1-3.3-4.2-4.1c-0.9-0.7-2-1.3-2.7-1.4c-0.2-0.1-0.8-0.1-1.3-0.1C225.6,290.1,224.2,291.9,224.7,293.9z M227.5,292.6
	c0.9-0.5,2.4,0.4,4.7,2.5c1.1,1.1,2.1,2.3,2,2.5c-0.1,0.4-1.8,2.8-2.3,3.3c-0.8,0.9-1.3,1.2-2.2,1.4c-0.7,0.2-1.3,0.1-1.6-0.1
	c-0.3-0.2-0.2-0.4,0.2-0.9c0.6-0.8,1.2-1.2,3-2.4c0.7-0.4,0.9-1.1,0.6-1.7c-0.2-0.5-0.5-0.7-1.5-1.1c-1.7-0.8-2.9-1.8-3.2-2.7
	C227,293,227.1,292.8,227.5,292.6z M244,292.4c0.4-0.3,1.2-0.4,1.8-0.3c0.8,0.2,1.2,0.4,2.2,1.1c1.5,1,4.4,3.6,5.3,4.7l0.3,0.4
	l-0.4,0.5c-0.6,0.8-2.6,2.8-3.5,3.4c-0.9,0.7-1.5,1-2.5,1.2c-0.6,0.1-0.8,0.1-1.2,0.1c-0.6-0.1-1-0.4-1-0.8c0-0.7,1.3-2.3,2.4-3
	c0.7-0.5,1-0.8,1-1.4c0-0.7-0.3-1.1-1.8-2.1c-1.1-0.8-2.2-1.7-2.6-2.3C243.7,293.2,243.6,292.7,244,292.4z M266.2,293.9
	c0.4,1.3,1.4,2.6,2.8,3.5c0.4,0.2,0.7,0.5,0.7,0.5c0,0-0.1,0.1-0.3,0.3c-0.9,0.7-1.9,1.9-2.2,2.5c-0.4,0.8-0.4,1.7-0.1,2.4
	c0.3,0.6,1,1.2,1.6,1.5c0.5,0.2,0.7,0.3,1.7,0.3c2.7,0,4.2-1.1,6.6-4.6c0.9-1.4,1-1.4,1.2-1.4c0.2,0,1.4,0.1,2.7,0.1
	c1.3,0,2.9,0.1,3.6,0.1l1.3,0.1l-0.5,0.6c-0.8,1.1-1.1,1.8-1.1,2.7c0,0.8,0,0.9,0.3,1.4c1,2.1,4,2.6,6.9,1.1c1.3-0.6,2.9-2,4.7-4.1
	c0.8-0.9,1-1.1,1.6-2.5c0.1-0.3,0.1-0.7,0-1c-0.3-0.6-1.7-2.1-2.5-3c-3-2.7-4.5-3.8-6.2-4.6c-2-0.8-4.1-0.5-5.3,0.7
	c-0.7,0.7-0.9,1.3-0.9,2.5c0.1,1.2,0.4,1.8,1.3,2.8l0.7,0.7l-0.9-0.1c-0.5,0-2-0.1-3.4-0.1l-2.5-0.1l-0.6-0.8
	c-0.8-1.1-3.1-3.3-4.2-4.1c-0.9-0.7-2-1.3-2.7-1.4c-0.2-0.1-0.8-0.1-1.3-0.1C267.1,290.1,265.7,291.9,266.2,293.9z M269,292.6
	c0.9-0.5,2.4,0.4,4.7,2.5c1.1,1.1,2.1,2.3,2,2.5c-0.1,0.4-1.8,2.8-2.3,3.3c-0.8,0.9-1.3,1.2-2.2,1.4c-0.7,0.2-1.3,0.1-1.6-0.1
	c-0.3-0.2-0.2-0.4,0.2-0.9c0.6-0.8,1.2-1.2,3-2.4c0.7-0.4,0.9-1.1,0.6-1.7c-0.2-0.5-0.5-0.7-1.5-1.1c-1.7-0.8-2.9-1.8-3.2-2.7
	C268.5,293,268.6,292.8,269,292.6z M285.5,292.4c0.4-0.3,1.2-0.4,1.8-0.3c0.8,0.2,1.2,0.4,2.2,1.1c1.5,1,4.4,3.6,5.3,4.7l0.3,0.4
	l-0.4,0.5c-0.6,0.8-2.6,2.8-3.5,3.4c-0.9,0.7-1.5,1-2.5,1.2c-0.6,0.1-0.8,0.1-1.2,0.1c-0.6-0.1-1-0.4-1-0.8c0-0.7,1.3-2.3,2.4-3
	c0.7-0.5,1-0.8,1-1.4c0-0.7-0.3-1.1-1.8-2.1c-1.1-0.8-2.2-1.7-2.6-2.3C285.2,293.2,285.2,292.7,285.5,292.4z"/>
<path fill="#82D2CF" d="M133.2,297.7c0,4.7-3.8,8.5-8.5,8.5c-4.6,0-8.3-3.8-8.3-8.4c0-4.7,3.8-8.5,8.5-8.5
	C129.4,289.3,133.2,293.1,133.2,297.7z M119,297c0.3,1,0.6,1.8,1.6,2c1,0.2,1.6-0.3,2-1.1c0.2-0.3,0.2-0.7,0.3-1.1
	c0.4-0.8,0.7-1.7,1.2-2.4c0.8-1.3,0.8-2.2,0-2.8c-0.8-0.6-2-0.4-2.7,0.8C120.4,293.9,119.8,295.5,119,297z M18.9,268.4
	c1.2,0.1,2.3,0.3,3.4,0.6c0.5,0.1,1,0.3,1.6,0.4c1.2,0.2,2.3-0.2,2.9-1.2c0.7-1,1.3-1.9,2-2.9c0.4-0.5,0.9-0.9,1.3-1.4
	c0.3-0.2,0.6-0.4,1-0.6c0.6-0.2,1.1-0.1,1.6,0.3c0.4,0.3,0.6,0.7,0.8,1.1c0.5,0.9,0.7,1.9,0.8,3c0.1,0.8,0.2,1.5,0.4,2.3
	c0,0.1,0.1,0.3,0.1,0.4c0.1,0.6,0.5,1,1.1,1.2c0.6,0.2,1.2,0.4,1.8,0.6c0.7,0.2,1.4,0.4,2.1,0.6c0.4,0.1,0.8,0.3,1.2,0.5
	c0.9,0.5,1.1,1.4,0.5,2.3c-0.3,0.4-0.7,0.8-1.1,1.1c-0.9,0.6-1.8,1-2.7,1.6c-0.4,0.2-0.8,0.4-1.2,0.7c-0.6,0.4-1,1-1,1.7
	c0,0.7-0.1,1.5,0,2.2c0,1,0.1,1.9,0.1,2.9c0,0.4,0,0.8-0.1,1.3c-0.1,1.1-0.9,1.9-2.4,1.5c-0.6-0.1-1.1-0.5-1.6-0.9
	c-0.7-0.6-1.3-1.3-1.8-2c-0.5-0.7-1-1.4-1.6-2.2c-0.5-0.7-0.7-0.8-1.6-0.5c-0.7,0.2-1.3,0.5-2,0.8c-1.3,0.6-2.5,1.2-3.9,1.6
	c-0.6,0.2-1.1,0.3-1.7,0.4c-0.4,0.1-0.8,0-1.2,0c-0.8-0.2-1.3-0.8-1.3-1.6c0-0.5,0.1-1,0.2-1.4c0.3-0.8,0.7-1.6,1.2-2.3
	c0.5-0.7,0.9-1.4,1.3-2.1c0.6-1,0.6-1.9-0.2-2.8c-0.4-0.5-0.7-0.9-1.1-1.3c-0.5-0.6-1-1.3-1.3-2c-0.3-0.6-0.5-1.2-0.4-1.8
	c0-0.7,0.4-1.3,1.1-1.5C17.8,268.5,18.3,268.5,18.9,268.4z M28.1,278.4c1.5,0,2.6-1.2,2.5-2.6c0-1.4-1.1-2.5-2.6-2.5
	c-1.4,0-2.6,1.1-2.6,2.6C25.5,277.1,26.5,278.3,28.1,278.4z M23.2,280.5c0.8,0,1.5-0.7,1.5-1.5c0-0.8-0.7-1.5-1.5-1.5
	c-0.8,0-1.4,0.6-1.4,1.4C21.7,279.9,22.4,280.5,23.2,280.5z M32.8,281.2c0-0.8-0.6-1.5-1.4-1.5c-0.8,0-1.5,0.6-1.5,1.4
	c0,0.8,0.6,1.4,1.4,1.5C32.1,282.6,32.8,282,32.8,281.2z M31.1,270.5c0-0.8-0.6-1.5-1.4-1.5c-0.8,0-1.5,0.7-1.5,1.5
	c0,0.8,0.6,1.4,1.4,1.4C30.5,272,31.1,271.3,31.1,270.5z M34.8,275.5c0-0.8-0.6-1.5-1.4-1.5c-0.8,0-1.5,0.7-1.5,1.5
	c0,0.8,0.6,1.4,1.4,1.4C34.2,277,34.8,276.3,34.8,275.5z M23.2,271.9c-0.8,0-1.4,0.6-1.4,1.4c0,0.8,0.6,1.5,1.4,1.5
	c0.8,0,1.4-0.6,1.4-1.4C24.6,272.6,24,271.9,23.2,271.9z M19.7,272.1c0.5,0,0.8-0.4,0.8-0.9c0-0.5-0.4-0.8-0.8-0.8
	c-0.5,0-0.8,0.4-0.8,0.9C18.9,271.7,19.2,272.1,19.7,272.1z M19.8,281.9c-0.4,0-0.8,0.4-0.8,0.8c0,0.5,0.4,0.9,0.8,0.9
	c0.4,0,0.8-0.3,0.8-0.8C20.6,282.3,20.3,281.9,19.8,281.9z M33.7,285.3c0-0.4-0.3-0.8-0.7-0.8c-0.4,0-0.8,0.3-0.8,0.8
	c0,0.4,0.3,0.8,0.8,0.8C33.3,286,33.6,285.7,33.7,285.3z M31.1,267c0.4,0,0.8-0.4,0.8-0.8c0-0.4-0.4-0.7-0.8-0.7
	c-0.4,0-0.8,0.4-0.7,0.8C30.4,266.7,30.7,267,31.1,267z M37.8,275.8c0.4,0,0.8-0.3,0.8-0.8c0-0.4-0.3-0.7-0.7-0.7
	c-0.4,0-0.8,0.3-0.8,0.8C37,275.5,37.3,275.8,37.8,275.8z M31.7,149.1c1.2,0.1,2.3,0.3,3.4,0.6c0.5,0.1,1,0.3,1.6,0.4
	c1.2,0.2,2.3-0.2,2.9-1.2c0.7-1,1.3-1.9,2-2.9c0.4-0.5,0.9-0.9,1.3-1.4c0.3-0.2,0.6-0.4,1-0.6c0.6-0.2,1.1-0.1,1.6,0.3
	c0.4,0.3,0.6,0.7,0.8,1.1c0.5,0.9,0.7,1.9,0.8,3c0.1,0.8,0.2,1.5,0.4,2.3c0,0.1,0.1,0.3,0.1,0.4c0.1,0.6,0.5,1,1.1,1.2
	c0.6,0.2,1.2,0.4,1.8,0.6c0.7,0.2,1.4,0.4,2.1,0.6c0.4,0.1,0.8,0.3,1.2,0.5c0.9,0.5,1.1,1.4,0.5,2.3c-0.3,0.4-0.7,0.8-1.1,1.1
	c-0.9,0.6-1.8,1-2.7,1.6c-0.4,0.2-0.8,0.4-1.2,0.7c-0.6,0.4-1,1-1,1.7c0,0.7-0.1,1.5,0,2.2c0,1,0.1,1.9,0.1,2.9c0,0.4,0,0.8-0.1,1.3
	c-0.1,1.1-0.9,1.9-2.4,1.5c-0.6-0.1-1.1-0.5-1.6-0.9c-0.7-0.6-1.3-1.3-1.8-2c-0.5-0.7-1-1.4-1.6-2.2c-0.5-0.7-0.7-0.8-1.6-0.5
	c-0.7,0.2-1.3,0.5-2,0.8c-1.3,0.6-2.5,1.2-3.9,1.6c-0.6,0.2-1.1,0.3-1.7,0.4c-0.4,0.1-0.8,0-1.2,0c-0.8-0.2-1.3-0.8-1.3-1.6
	c0-0.5,0.1-1,0.2-1.4c0.3-0.8,0.7-1.6,1.2-2.3c0.5-0.7,0.9-1.4,1.3-2.1c0.6-1,0.6-1.9-0.2-2.8c-0.4-0.5-0.7-0.9-1.1-1.3
	c-0.5-0.6-1-1.3-1.3-2c-0.3-0.6-0.5-1.2-0.4-1.8c0-0.7,0.4-1.3,1.1-1.5C30.6,149.2,31.2,149.1,31.7,149.1z M40.9,159
	c1.5,0,2.6-1.2,2.5-2.6c0-1.4-1.1-2.5-2.6-2.5c-1.4,0-2.6,1.1-2.6,2.6C38.3,157.8,39.4,159,40.9,159z M36,161.2
	c0.8,0,1.5-0.7,1.5-1.5c0-0.8-0.7-1.5-1.5-1.5c-0.8,0-1.4,0.6-1.4,1.4C34.6,160.5,35.2,161.2,36,161.2z M45.7,161.8
	c0-0.8-0.6-1.5-1.4-1.5c-0.8,0-1.5,0.6-1.5,1.4c0,0.8,0.6,1.4,1.4,1.5C45,163.2,45.6,162.6,45.7,161.8z M44,151.2
	c0-0.8-0.6-1.5-1.4-1.5c-0.8,0-1.5,0.7-1.5,1.5c0,0.8,0.6,1.4,1.4,1.4C43.3,152.6,44,152,44,151.2z M47.6,156.2
	c0-0.8-0.6-1.5-1.4-1.5c-0.8,0-1.5,0.7-1.5,1.5c0,0.8,0.6,1.4,1.4,1.4C47,157.6,47.6,157,47.6,156.2z M36,152.6
	c-0.8,0-1.4,0.6-1.4,1.4c0,0.8,0.6,1.5,1.4,1.5c0.8,0,1.4-0.6,1.4-1.4C37.5,153.2,36.8,152.6,36,152.6z M32.5,152.7
	c0.5,0,0.8-0.4,0.8-0.9c0-0.5-0.4-0.8-0.8-0.8c-0.5,0-0.8,0.4-0.8,0.9C31.7,152.4,32.1,152.7,32.5,152.7z M32.7,162.6
	c-0.4,0-0.8,0.4-0.8,0.8c0,0.5,0.4,0.9,0.8,0.9c0.4,0,0.8-0.3,0.8-0.8C33.5,163,33.1,162.6,32.7,162.6z M46.5,165.9
	c0-0.4-0.3-0.8-0.7-0.8c-0.4,0-0.8,0.3-0.8,0.8c0,0.4,0.3,0.8,0.8,0.8C46.1,166.7,46.5,166.3,46.5,165.9z M44,147.7
	c0.4,0,0.8-0.4,0.8-0.8c0-0.4-0.4-0.7-0.8-0.7c-0.4,0-0.8,0.4-0.7,0.8C43.2,147.4,43.5,147.7,44,147.7z M50.6,156.5
	c0.4,0,0.8-0.3,0.8-0.8c0-0.4-0.3-0.7-0.7-0.7c-0.4,0-0.8,0.3-0.8,0.8C49.9,156.1,50.2,156.4,50.6,156.5z M215.8,164.9
	c0,4.7-3.8,8.5-8.5,8.5c-4.6,0-8.3-3.8-8.3-8.4c0-4.7,3.8-8.5,8.5-8.5C212.1,156.5,215.8,160.2,215.8,164.9z M201.7,164.2
	c0.3,1,0.6,1.8,1.6,2c1,0.2,1.6-0.3,2-1.1c0.2-0.3,0.2-0.7,0.3-1.1c0.4-0.8,0.7-1.7,1.2-2.4c0.8-1.3,0.8-2.2,0-2.8
	c-0.8-0.6-2-0.4-2.7,0.8C203,161,202.4,162.7,201.7,164.2z M185.3,267.3c0,4.7-3.8,8.5-8.5,8.5c-4.6,0-8.3-3.8-8.3-8.4
	c0-4.7,3.8-8.5,8.5-8.5C181.6,259,185.3,262.7,185.3,267.3z M171.2,266.7c0.3,1,0.6,1.8,1.6,2c1,0.2,1.6-0.3,2-1.1
	c0.2-0.3,0.2-0.7,0.3-1.1c0.4-0.8,0.7-1.7,1.2-2.4c0.8-1.3,0.8-2.2,0-2.8c-0.8-0.6-2-0.4-2.7,0.8
	C172.5,263.5,171.9,265.1,171.2,266.7z M375.4,182.6c0.4,0.6,0.6,1.3,0.4,2c-0.1,0.4-0.1,0.8-0.1,1.2c0,0.5,0.4,0.8,0.9,0.5
	c0.3-0.2,0.5-0.4,0.7-0.7c0.9-1.5,1.4-3.1,0.6-4.8c-0.1-0.3-0.2-0.6-0.4-0.8c-0.6-1-0.7-2-0.4-3c0.2-0.9,0.4-1.8,0.6-2.6
	c0.8-3,0.9-6.1,0.3-9.1c-0.1-0.7-0.2-1.4-0.2-2.1c0.1-1.9,0.2-3.8,0.8-5.6c0.1-0.3,0.2-0.6,0.2-0.9c0.4-1.7,0.8-3.4,1.3-5
	c0.5-1.8,0.5-3.6,0-5.5c-0.2-0.8-0.5-1.6-0.8-2.3c-0.6-1.5-0.5-3,0.2-4.4c0.1-0.3,0.3-0.6,0.5-0.8c0.2-0.2,0.4-0.3,0.7-0.1
	c0.2,0.1,0.4,0.3,0.4,0.5c0.1,0.2,0.2,0.5,0.2,0.8c0.1,1.3,0.5,2.6,1,3.8c0.7,1.4,1,3,0.9,4.6c-0.1,2.1-0.1,4.2-0.6,6.3
	c-0.3,1.2-0.2,2.5,0.1,3.7c0.2,0.7,0.4,1.5,0.7,2.2c0.8,2,1.5,3.9,2.3,5.9c0.8,2,1.4,4.1,1.2,6.3c0,0.4,0,0.9,0,1.3
	c0,1.3,0.4,2.5,1,3.6c0.3,0.5,0.6,1,0.9,1.5c0.8,1.4,1.4,2.9,1.7,4.5c0.2,1.1,0.4,2.2,0.6,3.3c0.2,1.1,0.5,2.2,0.9,3.2
	c0.1,0.3,0.3,0.6,0.5,0.9c0.2,0.3,0.5,0.4,0.8,0.3c0.3-0.1,0.4-0.3,0.4-0.8c0-0.3,0-0.6-0.1-0.9c-0.3-1.6-0.5-3.2-0.4-4.8
	c0-0.6,0-1.2,0-1.8c-0.1-1.3-0.4-2.6-1.1-3.7c-0.3-0.6-0.6-1.1-1-1.7c-0.9-1.4-1.3-2.8-1.4-4.4c0-0.9-0.1-1.7-0.2-2.6
	c0,0,0-0.1,0-0.2c0.1,0,0.1,0.1,0.1,0.1c0.9,1.1,1.8,2.2,2.8,3.3c1.6,1.7,2.6,3.7,2.9,6.1c0.2,1.8,0.9,3.5,1.8,5.1
	c0.7,1.1,1.1,2.2,1.2,3.5c0.1,0.9,0.2,1.8,0.1,2.7c0,0.4,0.1,0.6,0.4,0.7c0.2,0,0.5-0.1,0.6-0.5c0.1-0.3,0.1-0.6,0.1-0.9
	c0.1-1.5-0.2-2.9-0.6-4.2c-0.3-0.8-0.5-1.6-0.7-2.5c-0.4-1.8-0.4-3.6,0.1-5.3c0.1-0.2,0.1-0.4,0.2-0.6c0.3,0.6,0.6,1.1,0.9,1.6
	c0.6,1,0.9,2,1,3.1c0,0.4,0.1,0.9,0.1,1.3c0.1,2,0.8,3.6,2.1,5.1c1.4,1.6,2.5,3.3,3.5,5.2c0.2,0.4,0.4,0.7,0.6,1.1
	c0.2,0.3,0.5,0.6,0.9,0.7c0.3,0.1,0.6,0.2,0.9,0c0.3-0.3,0.1-0.6,0-0.9c-0.1-0.2-0.2-0.4-0.3-0.5c-0.3-0.7-0.7-1.5-0.9-2.2
	c-0.4-1.2-0.9-2.4-1.7-3.5c-1.2-1.7-1.7-3.5-1.7-5.5c0-0.1,0-0.1,0-0.2c0-1.5-0.3-3-1.1-4.4c-0.3-0.5-0.6-1-0.8-1.6
	c-0.3-0.6-0.6-1.2-0.8-1.8c-0.4-1-0.5-2-0.3-3.1c0-0.1,0.1-0.3,0.1-0.5c0.1,0.1,0.1,0.2,0.1,0.2c0.4,1.8,1.2,3.3,2.4,4.7
	c0.5,0.6,1,1.1,1.6,1.6c1.5,1.1,2.4,2.5,2.8,4.3c0.1,0.4,0.2,0.8,0.2,1.1c0.2,1.3,0.4,2.5,0.6,3.8c0.2,1,0.5,2,0.9,3
	c0.9,1.8,2.1,3.3,3.6,4.5c1.9,1.5,4.1,1.9,6.4,1.3c0.2-0.1,0.5-0.2,0.5-0.5c0-0.3-0.2-0.4-0.4-0.5c-0.4-0.2-0.8-0.4-1.1-0.6
	c-1.1-0.5-2.1-1.2-3-2.1c-1.6-1.5-2.6-3.3-3.1-5.5c-0.2-1.1-0.5-2.1-0.6-3.2c-0.3-1.8-0.8-3.6-1.8-5.1c-0.2-0.3-0.4-0.6-0.5-0.9
	c-1-1.6-1.5-3.4-1.6-5.3c0-0.4,0-0.8,0-1.1c0.1,0.1,0.2,0.2,0.3,0.4c0.2,0.7,0.5,1.4,0.7,2.2c0.4,1.3,1.1,2.5,2,3.6
	c0.7,0.9,1.6,1.6,2.5,2.3c0.2,0.2,0.5,0.3,0.8,0.1c0.3-0.2,0.3-0.5,0.2-0.7c0-0.2-0.1-0.3-0.2-0.5c-0.1-0.3-0.3-0.5-0.4-0.8
	c-1-1.7-1.8-3.6-2.2-5.6c-0.1-0.4-0.2-0.9-0.3-1.3c-0.5-1.7-1-3.5-1.9-5.1c0-0.1-0.1-0.2-0.1-0.3c0.2,0.1,0.3,0.3,0.4,0.4
	c0.9,1.1,1.9,2.1,3.1,2.8c0.2,0.1,0.3,0.2,0.5,0.2c0.4,0.1,0.6-0.3,0.5-0.6c-0.1-0.2-0.2-0.3-0.3-0.4c-0.9-0.9-1.7-1.9-2.3-3
	c-1.4-2.8-2.7-5.7-3.2-8.9c-0.2-1.1-0.5-2.2-0.7-3.3c-0.3-1.2-0.7-2.4-1.4-3.5c0-0.1,0-0.1-0.1-0.3c0.2,0.2,0.4,0.3,0.5,0.5
	c0.7,0.7,1.3,1.5,1.7,2.4c0.5,1.1,0.9,2.3,1.3,3.4c0,0.1,0,0.2,0.1,0.3c0.1,0.1,0.3,0.2,0.4,0.2c0.1,0,0.2-0.2,0.3-0.3
	c0-0.1,0-0.2,0-0.3c-0.3-3.8-2.1-6.8-5.2-8.9c-1.2-0.8-2.4-1.4-3.6-2.2c-1.9-1.1-3.5-2.6-4.5-4.6c-0.8-1.5-1.4-3.1-1.7-4.8
	c-0.2-1.1-0.4-2.1-0.6-3.2c-0.3-1.1-0.8-2.1-1.5-3c-1.5-1.8-3.4-2.8-5.6-3.1c-2.4-0.4-4.6,0.2-6.5,1.6c-0.6,0.4-1.1,1-1.5,1.6
	c-0.8,1.3-1.2,2.6-1.2,4.1c0,0.6,0,1.2,0,1.8c0,0.6-0.2,1.1-0.6,1.5c-1,0.9-2.1,1.5-3.5,1.3c-0.7-0.1-1.3-0.3-2-0.4
	c-0.4-0.1-0.9-0.3-1.3-0.4c-2-0.5-3.9-0.4-5.7,0.7c-1,0.6-2,1.2-2.8,2c-2.5,2.1-4.7,4.4-6.9,6.7c-1.3,1.4-2.7,2.6-4.3,3.5
	c-1.1,0.7-2.2,1.5-3.3,2.3c-2,1.6-4,3.2-5.9,4.8c-0.8,0.6-1.6,1-2.7,1.1c-0.9,0.1-1.7,0.2-2.6,0.3c-0.9,0.1-1.8,0.4-2.6,0.8
	c-0.6,0.3-1.2,0.7-1.6,1.3c-0.2,0.2-0.3,0.5-0.1,0.8c0.2,0.3,0.4,0.3,0.7,0.3c0.3-0.1,0.7-0.2,1-0.2c0.7-0.2,1.3-0.4,2-0.6
	c0.8-0.2,1.5-0.2,2.3-0.2c0.2,0.3,0.2,0.6-0.1,0.8c-0.1,0.1-0.2,0.2-0.4,0.3c-0.3,0.2-0.5,0.5-0.8,0.7c-0.2,0.2-0.3,0.4-0.2,0.7
	c0.1,0.3,0.4,0.3,0.7,0.3c0.4-0.1,0.8-0.2,1.1-0.4c0.7-0.3,1.3-0.8,1.8-1.4c0.9-1,1.8-1.7,2.9-2.4c1.8-1.1,3.7-2.1,5.5-3.2
	c1.4-0.8,2.6-1.7,3.8-2.8c0.6-0.5,1.3-1.1,2-1.5c2.3-1.4,4.5-2.8,6.5-4.5c0.1-0.1,0.1-0.1,0.3-0.2c-0.1,0.2-0.1,0.4-0.1,0.5
	c-0.1,0.6-0.3,1.3-0.4,1.9c-0.1,2.3-0.7,4.4-1.8,6.4c-0.1,0.3-0.3,0.5-0.4,0.8c-0.3,0-0.6-0.1-0.9-0.1c-1.3-0.1-2.1,0.9-1.7,2.2
	c0,0.1,0,0.2,0.1,0.3c0.5,0.6,0.3,1.2,0,1.8c-0.1,0.1-0.1,0.2-0.1,0.3c-1.8,3.8-3.3,7.8-4.3,12c-1.3,5.5-1.6,11.1-0.4,16.7
	c0.9,4.7,2.3,9.2,4.1,13.6c0.4,0.9,0.9,1.8,1.2,2.8c1.4,3.3,3.1,6.5,5.1,9.5c1.1,1.6,2.2,3.3,3.2,4.9c1,1.5,1.5,3.2,1.4,5.1
	c-0.1,1.5-0.2,2.9-0.4,4.3c-0.2,2-0.6,4-0.8,6c-0.6,4.4,0.2,8.7,2.2,12.6c1.4,2.7,3,5.1,4.9,7.4c2.1,2.5,4.5,4.8,6.7,7.2
	c0.1,0.1,0.2,0.2,0.4,0.3c0.5,0.4,1,0.4,1.5-0.1c0.2-0.2,0.4-0.5,0.6-0.7c0.8-1.3,1.5-2.8,2-4.3c1.6-5.4,1.4-10.7-0.7-15.8
	c-0.4-1.1-0.9-2.1-1.4-3.2c-0.5-1-0.9-2-1.4-3c-0.9-2-1.3-4.2-1.3-6.4c0-0.1,0-0.2,0-0.3c0.5,0.1,1,0.2,1.5,0.3c2.5,0.5,5,0.4,7.5,0
	c2.9-0.5,5.6-1.4,8.3-2.5c1.7-0.7,3.4-1.4,5-2.1c2.1-0.9,4.4-1.5,6.7-1.8c1.4-0.2,2.7-0.4,4.1-0.6c0.2,0,0.5-0.1,0.7-0.1
	c0.5-0.2,0.8-0.6,0.7-1.1c0-0.3-0.1-0.6-0.3-0.9c-0.3-0.6-0.7-1.1-1.1-1.6c-1.2-1.4-2.5-2.7-3.9-3.9c-2.1-1.7-4.5-2.9-7.2-3.5
	c-2.6-0.6-5.3-0.5-7.9-0.1c-2.1,0.3-4.2,0.8-6.2,1.4c-1.6,0.5-3.3,1-4.9,1.5c-2,0.6-4,0.8-6.1,0.7c-1.6-0.1-3-0.6-4.1-1.7
	c-0.7-0.7-1.3-1.3-1.9-2c-1.6-1.9-2.8-4-3.5-6.5c-1.1-3.8-1.4-7.7-0.7-11.6c0.5-3.1,1.3-6.1,2.1-9.1c0.7-2.4,1.5-4.8,2-7.2
	c0.7-3,0.8-6.1,0.2-9.1c-0.2-1.1-0.5-2.2-0.7-3.3c-0.1-0.4-0.2-0.9-0.3-1.3c0.1-0.1,0.3-0.2,0.4-0.2c0.8-0.5,0.9-1.4,0.5-2.2
	c-0.2-0.4-0.5-0.6-0.9-0.8c-0.2-0.1-0.3-0.2-0.5-0.3c0.2-0.9,0.4-1.7,0.8-2.5c0.2-0.4,0.5-0.8,0.8-1.1c0.7-0.6,1.4-1.2,2.2-1.7
	c0.7-0.5,1.4-1,2-1.7c0.1-0.1,0.2-0.2,0.3-0.2c0.3,0.2,0.4,0.4,0.4,0.7c0,0.4,0,0.8-0.1,1.2c-0.1,0.7-0.2,1.3-0.3,2
	c-0.3,2.7-0.6,5.3-0.3,8c0.1,0.8,0,1.6-0.2,2.4c-0.3,1.2-0.4,2.4-0.5,3.6c-0.1,2.5,0.1,5,0.4,7.4c0.1,0.8,0.1,1.6-0.3,2.4
	c-0.4,1-0.4,2-0.4,3c0,0.1,0,0.1,0,0.2c0.1,0.4,0.5,0.6,0.9,0.3c0.2-0.1,0.4-0.4,0.5-0.6c0.2-0.3,0.3-0.6,0.5-1
	C375.3,182.4,375.3,182.5,375.4,182.6z M349.1,296c0,4.7-3.8,8.5-8.5,8.5c-4.6,0-8.3-3.8-8.3-8.4c0-4.7,3.8-8.5,8.5-8.5
	C345.4,287.6,349.1,291.4,349.1,296z M335,295.3c0.3,1,0.6,1.8,1.6,2c1,0.2,1.6-0.3,2-1.1c0.2-0.3,0.2-0.7,0.3-1.1
	c0.4-0.8,0.7-1.7,1.2-2.4c0.8-1.3,0.8-2.2,0-2.8c-0.8-0.6-2-0.4-2.7,0.8C336.3,292.2,335.7,293.8,335,295.3z"/>
</svg>
