<?xml version="1.0" encoding="utf-8"?>
<!-- Generator: Adobe Illustrator 18.0.0, SVG Export Plug-In . SVG Version: 6.00 Build 0)  -->
<!DOCTYPE svg PUBLIC "-//W3C//DTD SVG 1.1//EN" "http://www.w3.org/Graphics/SVG/1.1/DTD/svg11.dtd">
<svg version="1.1" id="Layer_1" xmlns="http://www.w3.org/2000/svg" xmlns:xlink="http://www.w3.org/1999/xlink" x="0px" y="0px"
	 viewBox="0 0 432 432" enable-background="new 0 0 432 432" xml:space="preserve">
<path fill="#DB8FA2" d="M356.4,272.5c0.2-0.3,0.3-0.5,0.4-0.6c4.6-6,10.2-10.5,17-13.6c2.8-1.2,5.7-2,8.8-1.9c2,0,3.9,0.5,5.7,1.5
	c2.7,1.5,3.1,3.8,1.2,6.2c-1,1.3-2.3,2.4-3.8,3.2c-2.3,1.4-4.7,2.3-7.2,2.9c-6.7,1.8-13.5,2.5-20.4,2.4
	C357.6,272.7,357.1,272.6,356.4,272.5z M358.7,275.2c0.2,0.2,0.3,0.3,0.5,0.4c5.1,4.6,10.8,8.1,17.4,9.9c2.2,0.6,4.4,1,6.6,0.7
	c1.3-0.1,2.5-0.6,3.5-1.5c1-0.8,1.5-1.9,1.5-3.2c0-1.2-0.3-2.2-0.9-3.2c-0.8-1.4-1.9-2.5-3.2-3.4c-1.5-1-3.2-1.7-4.9-2.2
	c-0.5-0.2-1.1-0.2-1.6-0.1c-4.4,1.1-8.8,1.7-13.2,2c-1.9,0.1-3.8,0.2-5.8,0.3C358.7,275.1,358.7,275.1,358.7,275.2z M355.4,270.1
	c0.2-0.2,0.4-0.4,0.5-0.6c4.3-5.4,9.7-9.6,15.9-12.6c0.4-0.2,0.7-0.5,0.9-1c0.9-1.8,1.4-3.7,1.5-5.7c0.1-1.5,0-3-0.5-4.4
	c-0.8-2.4-3-3.5-5.4-2.8c-0.7,0.2-1.4,0.6-2.1,1c-1.2,0.7-2.2,1.8-3.1,2.9c-1.2,1.5-2.2,3.2-3,5c-2.4,5.5-4,11.3-4.9,17.2
	c0,0.3,0,0.6-0.1,0.9C355.3,270,355.4,270.1,355.4,270.1z M361.4,245.4c-1.8-2.7-6.2-4.1-9.4-1.3c-1.2,1-2.1,2.3-2.5,3.8
	c-1.1,3.4-1.2,6.8-0.5,10.3c0.7,3.9,2.1,7.6,3.8,11.1c0.1,0.2,0.2,0.3,0.4,0.5c0.1-1,0.3-1.8,0.4-2.7c0.8-4.4,2-8.6,3.5-12.8
	c0.9-2.5,1.9-4.8,3.3-7c0.4-0.6,0.8-1.1,1.1-1.7C361.4,245.5,361.4,245.4,361.4,245.4z M355.9,275.8c0.2,0.4,0.3,0.8,0.5,1.1
	c1.8,3.8,4,7.3,6.3,10.7c1.4,2,2.9,4,4.7,5.7c1.2,1.2,2.6,2.3,4.2,3.2c1,0.5,2,0.9,3.1,1c1.6,0.1,2.6-0.7,2.9-2.3
	c0.1-0.4,0.1-0.8,0.1-1.2c-0.1-2.2-0.8-4.2-2-6.1c-0.3-0.4-0.6-0.6-1.1-0.8c-1.6-0.6-3.1-1.1-4.6-1.8c-4.9-2.2-9.2-5.3-13.1-9
	c-0.3-0.3-0.6-0.5-0.8-0.8C356,275.7,356,275.8,355.9,275.8z M341.8,255.7c-1,0.8-1.3,1.6-0.9,2.8c0.3,0.9,0.7,1.7,1.2,2.5
	c2.4,3.5,5.2,6.6,8.3,9.5c0.1,0.1,0.3,0.2,0.6,0.4c-2.5-5.6-4.7-11.1-4.6-17.4C344.7,254,343.1,254.6,341.8,255.7z M354.7,279.2
	c0.1,3.4,0.5,6.8,1.4,10.1c0.4,1.4,0.9,2.8,1.5,4.2c0.6,1.5,1.3,1.8,2.8,1.3c0.9-0.3,1.8-0.7,2.8-1c0.4-0.1,0.7-0.3,1.1-0.5
	c-3.7-4.5-6.7-9.4-9.4-14.6C354.7,279,354.7,279.1,354.7,279.2z"/>
<path fill="#B22931" d="M283.7,71.3c1.9,1.2,4.3-1.2,6-1.6c4-0.9,2.7,6.6,6.4,7c3.3,0.4,2.4-5.8,2.7-7.6c0.2-1,0.8-2.1,2-2.1
	c0.5,0,1.1,0.1,1.6,0.2c0.8,0.1,1.7,0.2,2.5,0.3c1.1,0,2.5-0.3,2.8-1.5c0.8-2.5-3.9-3.9-5.3-5c-1.9-1.4-1.5-3.2-0.9-5.2
	c0.4-1.2,1.1-3.2,0.4-4.4c-0.6-1-1.9-0.4-2.7,0c-1.9,1.1-3.1,2.8-5.5,2.9c-2.4-0.2-4.4-1.4-6.7-1.8c-1.3-0.3-2.6,0-2.8,1.5
	c-0.3,1.8,0.7,3.8,1.4,5.3c0.7,1.3,1.7,2.6,1,4.1c-0.4,1-1.2,1.6-1.9,2.3C283.8,66.8,282,70.1,283.7,71.3z M299,54.5
	c-0.5-0.4-0.5-1-0.1-1.4c0.4-0.5,1-0.5,1.4-0.1c0.5,0.4,0.5,1,0.1,1.4C300.1,54.8,299.5,54.9,299,54.5z M289.7,64.9
	c0.5,0.4,0.5,1,0.1,1.6c-0.4,0.5-1.1,0.5-1.6,0.1c-0.5-0.4-0.5-1.1-0.1-1.6C288.6,64.5,289.3,64.5,289.7,64.9z M288.2,54.6
	c0.5,0.4,0.5,1,0.1,1.4c-0.4,0.5-1,0.5-1.4,0.1c-0.5-0.4-0.5-1-0.1-1.4C287.1,54.2,287.8,54.1,288.2,54.6z M296.5,57.5
	c-0.5-0.4-0.5-1-0.1-1.5c0.4-0.5,1-0.5,1.5-0.1c0.5,0.4,0.5,1,0.1,1.5C297.6,57.8,297,57.9,296.5,57.5z M303.9,65.6
	c-0.5-0.4-0.5-1-0.1-1.4c0.4-0.5,1-0.5,1.4-0.1c0.5,0.4,0.5,1,0.1,1.4C305,65.9,304.4,66,303.9,65.6z M300.3,64.2
	c-0.5-0.4-0.5-1-0.2-1.5c0.4-0.5,1-0.5,1.5-0.2c0.5,0.4,0.5,1,0.2,1.5C301.4,64.5,300.7,64.6,300.3,64.2z M296.7,62.7
	c-0.5-0.4-0.5-1.1-0.1-1.6c0.4-0.5,1-0.5,1.6-0.1c0.5,0.4,0.5,1.1,0.1,1.6C297.8,63,297.2,63.1,296.7,62.7z M291,58.9
	c-0.4,0.5-1,0.5-1.5,0.2c-0.5-0.4-0.5-1-0.2-1.5c0.4-0.5,1-0.5,1.5-0.2C291.3,57.7,291.3,58.4,291,58.9z M292,61.9
	c-0.4-0.4-0.5-1.1-0.1-1.6c0.4-0.4,1.1-0.5,1.6-0.1c0.4,0.4,0.5,1.1,0.1,1.6C293.2,62.3,292.5,62.4,292,61.9z M293.9,66.6
	c-0.5-0.4-0.5-1.1-0.1-1.6c0.4-0.5,1.1-0.5,1.6-0.1c0.5,0.4,0.5,1.1,0.1,1.6C295,66.9,294.4,66.9,293.9,66.6z M294.8,70.3
	c-0.5-0.4-0.5-1.1-0.1-1.6c0.4-0.5,1.1-0.5,1.6-0.1c0.5,0.4,0.5,1.1,0.1,1.6C296,70.7,295.3,70.8,294.8,70.3z M295.8,72.6
	c0.4-0.5,1-0.5,1.5-0.1c0.5,0.4,0.5,1,0.1,1.5c-0.4,0.5-1,0.5-1.5,0.1C295.4,73.7,295.4,73,295.8,72.6z M285.6,69.2
	c-0.5-0.4-0.5-1-0.1-1.5c0.4-0.5,1-0.5,1.5-0.1c0.5,0.4,0.5,1,0.1,1.5C286.7,69.6,286,69.7,285.6,69.2z M235.1,143.2
	c1.2,0.8,2.7-0.8,3.8-1c2.5-0.6,1.7,4.2,4.1,4.4c2.1,0.2,1.5-3.7,1.7-4.8c0.1-0.7,0.5-1.3,1.2-1.4c0.3,0,0.7,0.1,1,0.1
	c0.5,0.1,1.1,0.1,1.6,0.2c0.7,0,1.5-0.2,1.8-0.9c0.5-1.6-2.5-2.5-3.3-3.1c-1.2-0.9-0.9-2-0.6-3.3c0.2-0.8,0.7-2,0.2-2.8
	c-0.4-0.6-1.2-0.2-1.7,0c-1.2,0.7-1.9,1.8-3.4,1.8c-1.5-0.1-2.8-0.9-4.2-1.1c-0.8-0.2-1.6,0-1.8,1c-0.2,1.1,0.4,2.4,0.9,3.3
	c0.4,0.8,1.1,1.6,0.6,2.6c-0.3,0.6-0.8,1-1.2,1.5C235.2,140.3,234,142.4,235.1,143.2z M244.8,132.6c-0.3-0.2-0.3-0.6-0.1-0.9
	c0.2-0.3,0.6-0.3,0.9-0.1c0.3,0.2,0.3,0.6,0.1,0.9C245.4,132.7,245.1,132.8,244.8,132.6z M238.9,139.1c0.3,0.2,0.3,0.7,0.1,1
	c-0.2,0.3-0.7,0.3-1,0.1c-0.3-0.2-0.3-0.7-0.1-1C238.2,138.9,238.6,138.8,238.9,139.1z M237.9,132.6c0.3,0.2,0.3,0.6,0.1,0.9
	c-0.2,0.3-0.6,0.3-0.9,0.1c-0.3-0.2-0.3-0.6-0.1-0.9C237.3,132.4,237.7,132.3,237.9,132.6z M243.2,134.4c-0.3-0.2-0.3-0.6-0.1-0.9
	c0.2-0.3,0.6-0.3,0.9-0.1c0.3,0.2,0.3,0.6,0.1,0.9C243.9,134.7,243.5,134.7,243.2,134.4z M247.9,139.6c-0.3-0.2-0.3-0.6-0.1-0.9
	c0.2-0.3,0.6-0.3,0.9-0.1c0.3,0.2,0.3,0.6,0.1,0.9C248.5,139.7,248.1,139.8,247.9,139.6z M245.6,138.7c-0.3-0.2-0.3-0.7-0.1-0.9
	c0.2-0.3,0.7-0.3,0.9-0.1c0.3,0.2,0.3,0.7,0.1,0.9C246.3,138.9,245.8,138.9,245.6,138.7z M243.3,137.7c-0.3-0.2-0.3-0.7-0.1-1
	c0.2-0.3,0.7-0.3,1-0.1c0.3,0.2,0.3,0.7,0.1,1C244,137.9,243.6,138,243.3,137.7z M239.7,135.3c-0.2,0.3-0.7,0.3-0.9,0.1
	c-0.3-0.2-0.3-0.7-0.1-0.9c0.2-0.3,0.7-0.3,0.9-0.1C239.9,134.6,239.9,135,239.7,135.3z M240.3,137.2c-0.3-0.3-0.3-0.7-0.1-1
	c0.3-0.3,0.7-0.3,1-0.1c0.3,0.3,0.3,0.7,0.1,1C241.1,137.5,240.7,137.5,240.3,137.2z M241.5,140.1c-0.3-0.2-0.3-0.7-0.1-1
	c0.2-0.3,0.7-0.3,1-0.1c0.3,0.2,0.3,0.7,0.1,1C242.3,140.4,241.9,140.4,241.5,140.1z M242.1,142.5c-0.3-0.3-0.3-0.7-0.1-1
	c0.3-0.3,0.7-0.3,1-0.1c0.3,0.3,0.3,0.7,0.1,1C242.9,142.8,242.4,142.8,242.1,142.5z M242.7,143.9c0.2-0.3,0.6-0.3,0.9-0.1
	c0.3,0.2,0.3,0.6,0.1,0.9c-0.2,0.3-0.6,0.3-0.9,0.1C242.5,144.6,242.5,144.2,242.7,143.9z M236.3,141.8c-0.3-0.2-0.3-0.6-0.1-0.9
	c0.2-0.3,0.6-0.3,0.9-0.1c0.3,0.2,0.3,0.6,0.1,0.9C237,142.1,236.6,142.1,236.3,141.8z M227.3,269.6c1.2,0.8,2.7-0.8,3.8-1
	c2.5-0.6,1.7,4.2,4.1,4.4c2.1,0.2,1.5-3.7,1.7-4.8c0.1-0.7,0.5-1.3,1.2-1.4c0.3,0,0.7,0.1,1,0.1c0.5,0.1,1.1,0.1,1.6,0.2
	c0.7,0,1.5-0.2,1.8-0.9c0.5-1.6-2.5-2.5-3.3-3.1c-1.2-0.9-0.9-2-0.6-3.3c0.2-0.8,0.7-2,0.2-2.8c-0.4-0.6-1.2-0.2-1.7,0
	c-1.2,0.7-1.9,1.8-3.4,1.8c-1.5-0.1-2.8-0.9-4.2-1.1c-0.8-0.2-1.6,0-1.8,1c-0.2,1.1,0.4,2.4,0.9,3.3c0.4,0.8,1.1,1.6,0.6,2.6
	c-0.3,0.6-0.8,1-1.2,1.5C227.4,266.8,226.2,268.9,227.3,269.6z M236.9,259c-0.3-0.2-0.3-0.6-0.1-0.9c0.2-0.3,0.6-0.3,0.9-0.1
	c0.3,0.2,0.3,0.6,0.1,0.9C237.6,259.2,237.2,259.3,236.9,259z M231.1,265.6c0.3,0.2,0.3,0.7,0.1,1c-0.2,0.3-0.7,0.3-1,0.1
	c-0.3-0.2-0.3-0.7-0.1-1C230.4,265.3,230.8,265.3,231.1,265.6z M230.1,259c0.3,0.2,0.3,0.6,0.1,0.9c-0.2,0.3-0.6,0.3-0.9,0.1
	c-0.3-0.2-0.3-0.6-0.1-0.9C229.4,258.8,229.8,258.8,230.1,259z M235.4,260.9c-0.3-0.2-0.3-0.6-0.1-0.9c0.2-0.3,0.6-0.3,0.9-0.1
	c0.3,0.2,0.3,0.6,0.1,0.9C236,261.1,235.7,261.1,235.4,260.9z M240,266c-0.3-0.2-0.3-0.6-0.1-0.9c0.2-0.3,0.6-0.3,0.9-0.1
	c0.3,0.2,0.3,0.6,0.1,0.9C240.7,266.2,240.3,266.3,240,266z M237.8,265.2c-0.3-0.2-0.3-0.7-0.1-0.9c0.2-0.3,0.7-0.3,0.9-0.1
	c0.3,0.2,0.3,0.7,0.1,0.9C238.4,265.3,238,265.4,237.8,265.2z M235.5,264.2c-0.3-0.2-0.3-0.7-0.1-1c0.2-0.3,0.7-0.3,1-0.1
	c0.3,0.2,0.3,0.7,0.1,1C236.2,264.4,235.8,264.5,235.5,264.2z M231.9,261.8c-0.2,0.3-0.7,0.3-0.9,0.1c-0.3-0.2-0.3-0.7-0.1-0.9
	c0.2-0.3,0.7-0.3,0.9-0.1C232.1,261.1,232.1,261.5,231.9,261.8z M232.5,263.7c-0.3-0.3-0.3-0.7-0.1-1c0.3-0.3,0.7-0.3,1-0.1
	c0.3,0.3,0.3,0.7,0.1,1C233.3,263.9,232.8,264,232.5,263.7z M233.7,266.6c-0.3-0.2-0.3-0.7-0.1-1c0.2-0.3,0.7-0.3,1-0.1
	c0.3,0.2,0.3,0.7,0.1,1C234.4,266.8,234,266.9,233.7,266.6z M234.3,269c-0.3-0.3-0.3-0.7-0.1-1c0.3-0.3,0.7-0.3,1-0.1
	c0.3,0.3,0.3,0.7,0.1,1C235,269.2,234.6,269.3,234.3,269z M234.9,270.4c0.2-0.3,0.6-0.3,0.9-0.1c0.3,0.2,0.3,0.6,0.1,0.9
	c-0.2,0.3-0.6,0.3-0.9,0.1C234.7,271.1,234.7,270.7,234.9,270.4z M228.5,268.3c-0.3-0.2-0.3-0.6-0.1-0.9c0.2-0.3,0.6-0.3,0.9-0.1
	c0.3,0.2,0.3,0.6,0.1,0.9C229.2,268.5,228.8,268.6,228.5,268.3z M242.9,202.8c1.2,0.8,2.7-0.8,3.8-1c2.5-0.6,1.7,4.2,4.1,4.4
	c2.1,0.2,1.5-3.7,1.7-4.8c0.1-0.7,0.5-1.3,1.2-1.4c0.3,0,0.7,0.1,1,0.1c0.5,0.1,1.1,0.1,1.6,0.2c0.7,0,1.5-0.2,1.8-0.9
	c0.5-1.6-2.5-2.5-3.3-3.1c-1.2-0.9-0.9-2-0.6-3.3c0.2-0.8,0.7-2,0.2-2.8c-0.4-0.6-1.2-0.2-1.7,0c-1.2,0.7-1.9,1.8-3.4,1.8
	c-1.5-0.1-2.8-0.9-4.2-1.1c-0.8-0.2-1.6,0-1.8,1c-0.2,1.1,0.4,2.4,0.9,3.3c0.4,0.8,1.1,1.6,0.6,2.6c-0.3,0.6-0.8,1-1.2,1.5
	C243,199.9,241.8,202,242.9,202.8z M252.6,192.2c-0.3-0.2-0.3-0.6-0.1-0.9c0.2-0.3,0.6-0.3,0.9-0.1c0.3,0.2,0.3,0.6,0.1,0.9
	C253.3,192.4,252.9,192.4,252.6,192.2z M246.7,198.7c0.3,0.2,0.3,0.7,0.1,1c-0.2,0.3-0.7,0.3-1,0.1c-0.3-0.2-0.3-0.7-0.1-1
	C246,198.5,246.5,198.5,246.7,198.7z M245.8,192.2c0.3,0.2,0.3,0.6,0.1,0.9c-0.2,0.3-0.6,0.3-0.9,0.1c-0.3-0.2-0.3-0.6-0.1-0.9
	C245.1,192,245.5,191.9,245.8,192.2z M251,194.1c-0.3-0.2-0.3-0.6-0.1-0.9c0.2-0.3,0.6-0.3,0.9-0.1c0.3,0.2,0.3,0.6,0.1,0.9
	C251.7,194.3,251.3,194.3,251,194.1z M255.7,199.2c-0.3-0.2-0.3-0.6-0.1-0.9c0.2-0.3,0.6-0.3,0.9-0.1c0.3,0.2,0.3,0.6,0.1,0.9
	C256.4,199.4,256,199.4,255.7,199.2z M253.4,198.3c-0.3-0.2-0.3-0.7-0.1-0.9c0.2-0.3,0.7-0.3,0.9-0.1c0.3,0.2,0.3,0.7,0.1,0.9
	C254.1,198.5,253.7,198.5,253.4,198.3z M251.1,197.4c-0.3-0.2-0.3-0.7-0.1-1c0.2-0.3,0.7-0.3,1-0.1c0.3,0.2,0.3,0.7,0.1,1
	C251.8,197.6,251.4,197.6,251.1,197.4z M247.6,194.9c-0.2,0.3-0.7,0.3-0.9,0.1c-0.3-0.2-0.3-0.7-0.1-0.9c0.2-0.3,0.7-0.3,0.9-0.1
	C247.8,194.2,247.8,194.6,247.6,194.9z M248.2,196.9c-0.3-0.3-0.3-0.7-0.1-1c0.3-0.3,0.7-0.3,1-0.1c0.3,0.3,0.3,0.7,0.1,1
	C248.9,197.1,248.5,197.1,248.2,196.9z M249.4,199.8c-0.3-0.2-0.3-0.7-0.1-1c0.2-0.3,0.7-0.3,1-0.1c0.3,0.2,0.3,0.7,0.1,1
	C250.1,200,249.7,200,249.4,199.8z M250,202.2c-0.3-0.3-0.3-0.7-0.1-1c0.3-0.3,0.7-0.3,1-0.1c0.3,0.3,0.3,0.7,0.1,1
	C250.7,202.4,250.3,202.4,250,202.2z M250.6,203.6c0.2-0.3,0.6-0.3,0.9-0.1c0.3,0.2,0.3,0.6,0.1,0.9c-0.2,0.3-0.6,0.3-0.9,0.1
	C250.3,204.3,250.3,203.9,250.6,203.6z M244.1,201.5c-0.3-0.2-0.3-0.6-0.1-0.9c0.2-0.3,0.6-0.3,0.9-0.1c0.3,0.2,0.3,0.6,0.1,0.9
	C244.8,201.7,244.4,201.7,244.1,201.5z"/>
<path fill="#6E8BC4" d="M290.5,119.9c-1.2,0.5-2.5,0.9-3.6,1.4c-1.3,0.6-2.6,1.3-3.9,2c-2.5,1.3-5.1,2.5-7.8,3.3
	c-5.5,1.6-10.9,1.5-16.2-0.9c-7.4-3.4-12.4-8.9-14.9-16.6c-1.5-4.9-1.8-10-1.3-15.1c0.6-5.9,1.5-11.8,2.5-17.7
	c0.7-4,1.7-7.9,3.5-11.6c2.4-5,5.7-9.3,10.1-12.7c3.1-2.3,6.6-3.8,10.3-4.7c0.8-0.2,1.6-0.3,2.5-0.1c1,0.3,1.5,1,1.4,2
	c-0.1,0.5-0.3,1-0.5,1.4c-0.5,1.1-1.1,2.2-1.6,3.2c-1.8,3.8-3.4,7.7-3.9,12c-0.3,2.4-0.1,4.6,0.8,6.8c1.3,3.1,3.1,5.8,6.1,7.4
	c1.5,0.8,3.1,1.6,4.7,2.3c0.9,0.4,1.9,0.6,2.9,0.8c4,0.6,8.1,0.8,12.2,0.9c3.2,0.1,6.4,0.2,9.6,0.5c3.5,0.3,6.9,0.7,10.4,1.2
	c4.6,0.7,9.1,1.8,13.5,3.5c4.7,1.7,9,4.1,13.2,6.9c6.3,4.2,11.8,9.3,16.7,15c6.4,7.4,11.4,15.6,14.7,24.8c1.4,3.9,2.5,7.9,3.1,12.1
	c0.8,5.3,1,10.6,0.8,16c-0.2,5.5-0.8,11-2.1,16.4c-0.4,1.9-1,3.7-1.5,5.6c-1.2,4-2.6,8-4.2,11.8c-2,4.9-4.5,9.6-7,14.3
	c-2.3,4.2-4.3,8.6-6.9,12.6c-3.3,5.1-6.8,10.2-10.3,15.2c-7.5,10.7-15.8,20.8-25.4,29.7c-6.5,6.1-13.6,11.5-21.2,16.1
	c-1.2,0.7-2.6,1.4-3.9,1.9c-3.2,1.2-5.6,0.3-7.3-2.6c-0.8-1.2-1.4-2.5-2.1-3.8c-1.3-2.3-2.6-4.7-4.4-6.7c-2.5-2.9-5.4-5.4-8.5-7.6
	c-3.3-2.4-7.1-4-10.9-5.4c-1.9-0.7-3.7-1.6-5.2-3.1c-1.2-1.1-1.9-2.4-2.3-4c-0.4-1.8-0.5-3.6-0.2-5.5c0.4-3.1,1.3-6,2.6-8.8
	c3.2-7.1,7.3-13.7,12.3-19.7c3.3-3.9,7-7.3,11.2-10.2c0.7-0.5,1.4-1,2.1-1.5c2.9-2.1,5.7-4.4,8.7-6.4c6.3-4.3,12.7-8.5,19-12.7
	c4.7-3.1,9.3-6.2,13.5-9.9c5.9-5.1,11-10.8,15-17.5c2.3-3.8,4.1-7.9,5.3-12.2c0.8-2.8,1.3-5.7,1.6-8.7c0.4-4.1,0.2-8.2-0.6-12.2
	c-0.8-3.9-2.4-7.4-5.1-10.4c-1.4-1.5-2.9-2.8-4.8-3.7c-3.4-1.7-6.8-0.6-8.5,2.8c-0.9,1.8-1.3,3.8-1.5,5.8c-0.5,4.7-0.8,9.3-1.3,14
	c-0.3,3.3-0.6,6.6-1.2,9.9c-0.4,2.7-1.1,5.3-1.8,7.9c-0.7,2.6-1.8,5-3.2,7.3c-1.9,3.2-4.3,6-7.7,7.8c-3.7,2-7.7,3.1-12,3.1
	c-5.4,0-10.7-0.7-16.1-1.4c-3.2-0.4-6.5-0.8-9.8-0.8c-4.3,0-8.5,0.5-12.5,2.2c-0.4,0.2-0.8,0.3-1.2,0.4c-1.7,0.5-3.1-0.2-3.7-1.9
	c-0.3-0.9-0.3-1.9-0.2-2.9c0.2-2.1,1-4,1.9-5.8c3.2-6.5,8.2-10.5,15.3-12c1-0.2,2-0.4,2.9-0.5c0.5-0.1,1-0.2,1.5-0.3
	c1.3-0.4,2.1-1.2,2.3-2.6c0.1-0.4,0.1-0.9,0.2-1.3c0.2-2,0.3-4,0.7-5.9c1.1-5.1,4.1-8.4,9.2-9.7c0.8-0.2,1.6-0.4,2.3-0.7
	c1.2-0.4,1.3-0.5,1.1-1.7c0-0.3-0.1-0.6-0.1-0.8c-0.3-2.2,0-4.4,0.8-6.5c0.1-0.4,0.3-0.8,0.4-1.3
	C290.7,119.9,290.6,119.9,290.5,119.9z M311.8,134.1c-0.5,4-1,8-2.1,11.8c-1,3.5-2.4,6.7-4.4,9.7c-3.6,5.2-8.6,7.4-14.9,6.8
	c-2.6-0.3-5.2-0.7-7.8-1c-4-0.6-7.9-0.2-11.9,0.4c-0.2,0-0.4,0.1-0.5,0.2c-0.6,0.3-0.6,1.1,0,1.4c0.3,0.2,0.6,0.2,1,0.2
	c2,0,4-0.1,6.1-0.1c1.5,0,3,0.2,4.4,0.4c3.1,0.6,6.2,1.4,9.3,2.1c1.6,0.3,3.1,0.5,4.7,0.5c4.5-0.1,8.4-1.8,11.6-5
	c3.1-3,5.2-6.6,6.7-10.7c1.6-4.3,2.4-8.8,2.9-13.3c0.4-3.5,0.7-7,1.1-10.5c0.3-2.9,0.5-5.8,0.9-8.6c0.3-2.2,0.9-4.3,1.4-6.5
	c0.1-0.3,0.2-0.7,0.2-1c0.1-0.8-0.5-1.3-1.2-1.1c-0.5,0.1-1.1,0.4-1.4,0.8c-0.6,0.6-1.1,1.3-1.5,2.1c-1.4,2.5-2.1,5.2-2.8,7.9
	C313,125.3,312.4,129.7,311.8,134.1z M295.4,102.6c-2.3,0.4-4.5,1-6.7,1.9c-2.4,1-4.8,2-7.2,3c-3.9,1.7-8,2.6-12.2,2.5
	c-5-0.1-8.9-2.2-11.5-6.5c-1.8-2.9-2.5-6.1-2.9-9.5c-0.2-1.7-0.3-3.3-0.4-5c0-0.3-0.1-0.6-0.1-0.9c-0.2-0.7-0.7-1.1-1.4-1
	c-0.6,0-1.1,0.4-1.2,1.1c-0.1,0.5-0.1,1.1-0.1,1.6c0.1,3.2,0.1,6.3,0.9,9.4c0.9,3.5,2.3,6.8,4.4,9.7c1.8,2.4,4.2,4.1,7,5.2
	c4.8,1.9,9.7,1.8,14.6,0.4c1.8-0.5,3.5-1.2,5.2-1.9c2.1-0.8,4.1-1.7,6.2-2.6c2.5-1.1,5-1.8,7.7-2.3c1.1-0.2,2.2-0.5,3.4-0.8
	c0.4-0.1,0.9-0.4,1.2-0.7c0.6-0.6,0.6-1.7-0.1-2.4c-0.6-0.7-1.5-1-2-1.1C298.2,102.3,296.8,102.4,295.4,102.6z M291.6,92.7
	c-2.9,0.5-5.9,0.9-8.9,1.3c-2.8,0.3-5.6,0.3-8.4,0c-3.5-0.3-6.4-1.8-8.8-4.4c-2.3-2.5-3.6-5.4-4-8.7c-0.2-1.4-0.4-2.8-0.6-4.2
	c-0.1-0.3-0.1-0.7-0.3-1c-0.1-0.3-0.5-0.6-0.8-0.4c-0.2,0.1-0.4,0.4-0.6,0.6c-0.1,0.1,0,0.3,0,0.5c0.1,3.1,0.3,6.3,1.2,9.3
	c1.5,5,4.3,9,9,11.6c2.1,1.2,4.5,1.7,6.9,2.1c4,0.6,8,0.2,12-0.4c2.4-0.4,4.8-0.8,7.2-1.1c2.6-0.3,5.2-0.2,7.7,0.3
	c3.2,0.7,6.3,1.5,9.5,2.3c0.3,0.1,0.7,0.2,1,0.2c1.2,0.1,1.8-0.6,1.5-1.8c-0.2-0.7-0.6-1.3-1.2-1.7c-0.8-0.6-1.7-1.2-2.6-1.7
	c-2.4-1.2-4.9-2.1-7.5-2.7C299.8,91.9,295.7,92.1,291.6,92.7z M308.8,125.5c0.5-3.9,1.3-7.8,2.6-11.5c0.3-0.8,0.7-1.6,1-2.4
	c0.2-0.5,0.3-1,0.4-1.5c0.1-0.7-0.4-1.2-1-1c-0.8,0.2-1.5,0.6-2.2,1c-1.1,0.7-1.9,1.7-2.5,2.8c-1.3,2-2.2,4-2.7,6.3
	c-0.5,2.4-0.9,4.8-1.3,7.2c-0.7,4.2-1.3,8.5-2.4,12.6c-0.6,2.2-1.5,4.2-2.8,6.1c-1.6,2.4-3.9,3.6-6.8,3.6c-0.9,0-1.9,0-2.8,0
	c-0.4,0-0.7,0-1.1,0.1c-0.4,0.1-0.7,0.4-0.7,0.9c0,0.4,0.2,0.7,0.5,0.9c0.2,0.1,0.3,0.2,0.5,0.2c2.1,0.4,4.3,0.7,6.5,0.5
	c2.5-0.3,4.7-1.4,6.5-3.2c2.2-2.1,3.7-4.6,4.9-7.3c0.9-2.1,1.6-4.2,2.1-6.5C308,131.4,308.4,128.5,308.8,125.5z"/>
<path fill="#231F20" d="M86.6,100.3c-1.2,9.8-7.5,28.4-20.7,34.2c-9.1,4.1-26.5,1.2-26.4-11c-0.1-14.7,19.7-25.5,32.4-28.8
	c0.1-0.5,0.3-11.2,0.1-25.1c-6.4,7.8-22.7,16.2-30.4,7.3c-4.9-5.4-3.8-14.6-2.9-19.5C40,47,42.7,23.3,39.7,19.1
	C39,18,38.3,17.1,36.5,18c-3.6,1.7-6.4,1.9-4.3-1.4c2-3,8.5-4.9,13-2.8c12.7,5.5,8.3,43.4,10.1,55.3c0.9,5.8,5.8,2,10.3-3
	c6.7-7.3,5.9-20.4,5.3-33.8c-0.2-5-0.5-9.7-0.7-13.5c-0.2-2.8,1.9-9.3,8.6-9.2c7.2,0,7.7,8,7.7,10.7c0.2,18.4,3.2,52.3,0.8,72
	C98.6,92.4,95.6,95.2,86.6,100.3z M72.2,104.6c-5.2,0-12.9,4.2-18.1,9.2c-12.8,12,0.1,17.5,7.2,12.7
	C67.5,122.3,71.6,111.1,72.2,104.6z M163.1,77.5c-3.1,9.2-11.3,23.8-21.9,26.3c0.3,4.7-0.8,13.6-2.8,20.6
	c-5.1,16.5-20,13.5-29.2,3.1c-6.3-7.3-8.7-16.1-9.2-25.5c-1-23.3,8-37.3,17.9-38.9c9.6-1.6,20.1,8.4,23.2,32.9
	c7.9-1.8,13.5-13.4,15.4-18.2C158.3,73,162.3,67.5,163.1,77.5z M134.3,104.6c-7.9-1.5-14.6-8.1-18.3-16.4
	c-2.7,9.7-1.8,24.3,4.1,34.3c3.7,6.3,9.4,5.7,11.2,0.3C133.3,117,134.4,108.8,134.3,104.6z M127.9,77.9c-2.8-3.8-4-3.1-4.4,1.1
	c-0.6,6.9,6,15.3,10.4,16.2C133.7,89.8,131.6,82.7,127.9,77.9z M239.9,73.9c-5.6,12.1-19.1,48.2-34.7,47.2
	c-9.7-0.5-12.4-14.1-11.9-18.6c-2.5,11-11.2,22.6-23.6,19.9c-23.5-5-15.5-43.4-12.5-57.2c4.2-19.7,18.9-15.8,19.3-1.2
	c0.3,13.2-3.8,27.3-3.1,40.6c0.8,17.7,10.6,3.3,13.7-5.2c3.8-10.8,5.9-25.4,8-35.9c3.8-18.6,15.9-12.7,17.1-1.1
	c1.3,10.3-0.8,26-1.4,35.8c-0.5,10.1,2.3,10.4,8.8,1.3c5.3-7.9,11-19.3,14.9-28C237.4,65.4,245.1,62.7,239.9,73.9z M117.2,164.5
	c-2.5,4.8-5.1,9.7-7.6,14.2c-3.8,6.7-7.8,13.9-12.3,19.9c-4.8,6.5-9.8,10.6-13.8,10.6c-4.5,0-8.5-4.5-11.1-15.6
	c-6.1,7.4-12.6,23.9-25.9,18.1c-19.7-8.2-12.9-54.8,5-66c8-4.9,21.5-0.6,29,3.4c4-3.4,6.8-4.4,9,2.3c2.9,9-4.4,25.9-3,40.5
	c0.5,5.7,2.4,5.3,6.2,0.8c4.1-4.7,8.1-11.9,11.3-17.1l4.3-7.2l3.8-6.7C115.1,155.8,122.9,153.6,117.2,164.5z M71.9,153.5
	c-12.9-10.9-22.9,31-22.3,39.6c0.4,10.2,5.4,13.1,12.5,4.8c4.1-5,6.8-12.9,8.9-17.9C74,172.5,78.5,159,71.9,153.5z M156,153.6
	c-10-6.3-17.5,12.1-21.1,23.1c-2.5,7.3-2.3,16.5-4.6,25.2c-4.4,16-17.4,12.6-17.2,1.9l-1.1-51c0-5.5-1.1-11.5,7.4-12.5
	c4-0.4,9.3,2,11.4,9.1c1.4,4.3,0.7,11.5,1.1,15.3c5.5-7.7,10.2-22.4,21.9-22.1c3.3,0.2,6,1.5,7.4,3.6
	C163.8,150.8,158.8,155.3,156,153.6z M228.9,164.8c-7.4,14.7-21.4,52-39.3,53.5c-5,0.5-10.3-1.8-15.4-7.9
	c-8.1-10-10.1-27.5-9.5-38.8c0.8-18.2,6.5-35.5,15.3-38.4c8.3-2.7,24.4,2.6,20.9,13.6c-3.1,9.7-14.5,10.6-20.8,16.9
	c-0.5,0.8,2.5,37,11,43.3c7.9,6,25.7-30.1,32.5-45C226.7,156.2,234.5,153.9,228.9,164.8z M181,152.4c2.8-0.3,6.7-3.5,9.1-6.9
	c2.5-3.5,1.5-5.5-0.5-6C182.9,138,181.8,148,181,152.4z M137.3,243.4c-3.7,9.5-7.5,19.2-12,28.2c-3,6.3-8.5,15.3-15.2,16.8
	c-2.7,0.5-6-0.3-8.2-3.5c-5.7-8.2-1.2-30.2-0.3-43.3c1.2-19.2-13.2,14-14.5,19c-2.7,9.2-4.7,18.5-6.3,23.8
	c-1.7,5.2-8.7,7.2-10.3,0.8c-1.8-7.3-0.3-17.3,0-27.3c0.2-3.5,1.3-19.2-1.3-20c-4.5-1.5-12.2,37.2-14.3,46.2
	c-3.7,16-14.8,5.3-14.8-1.8c0-8.8,1.7-38.8,3.8-53.9c2-14.5,11.7-6.5,12.7,0.3c0.7,5-0.2,11.5,0.5,16.7c2.3-7.2,11.7-24.5,21.2-19.2
	c7.8,4.5,4,22.7,3,32c1.7-6.7,7.3-23,14.7-30.2c5.3-5.3,14.7-6.2,18.2,2.2c3.8,9.3-0.5,27.3-0.8,38.3c-0.3,9.8,2.5,9,6.5,1.3
	c4.5-8.3,9.5-20.2,13.2-29.3C135.1,234.8,141.6,232.6,137.3,243.4z M195.7,244.3c-7.5,14.7-21.7,51.8-39.5,53.3
	c-5,0.5-10.3-1.8-15.3-8c-8-10-10-27.5-9.3-38.9c0.8-18.2,6.7-35.5,15.5-38.3c8.3-2.7,24.3,2.7,20.8,13.7
	c-3.2,9.7-14.5,10.5-20.8,16.8c-0.5,0.8,2.3,37,10.8,43.4c7.8,6,25.9-30,32.7-44.8C193.5,235.6,201.3,233.4,195.7,244.3z
	 M147.8,231.6c2.8-0.3,6.7-3.5,9.2-6.8c2.5-3.5,1.5-5.5-0.5-6C149.8,217.3,148.6,227.3,147.8,231.6z M234.3,232.8
	c-10-6.3-17.5,12-21.2,23c-2.5,7.3-2.3,16.5-4.7,25.2c-4.5,16-17.5,12.5-17.2,1.8l-0.8-51c0-5.5-1-11.5,7.5-12.5
	c4-0.3,9.3,2,11.3,9.2c1.3,4.3,0.7,11.5,1,15.3c5.5-7.7,10.3-22.3,22-22c3.3,0.2,6,1.5,7.3,3.7C242.2,229.9,237.2,234.4,234.3,232.8
	z M119,327.3c-1.8,6.3-6.2,16-11.3,25.3c-5.3,9.7-10.5,14.5-13,16.7c-3.7,2.8-7.7,4-12.3,3.3c-4-0.5-7.2-3-7.8-7
	c-0.7-4.5,0.2-8.7,1.3-13c2-6.8,5.7-13.2,9-19.5c1.3-2.3,2.8-4.7,4-7.2c1-2.2,1.7-4.5,2.3-7c0.5-1.5,0.7-3.3-0.8-5
	c-1.2,0.5-1.8,1-2.8,1.5c-4.2,2.5-7.8,5.7-10.5,9.7c-4.8,6.7-8.3,14.2-10.7,22.2c-0.5,1.7-1.3,2.5-2.8,2.7c-1,0-2,0-2.8-0.2
	c-1.8-0.2-2.8-1.2-3.2-3c-1.2-5.3-1-10.8,0-16.2c1.3-6.2,2.7-12.3,4-18.5c0.3-2.3,0.8-4.8,0.3-7.7c-0.5,0.3-1.2,0.5-1.5,0.8
	c-5.2,4-9.3,8.7-12.3,14.7c-3.7,7.2-5.3,15-6.3,23c-0.2,1.5,0.3,3.2,0.7,4.7c0.5,2.7,1.3,5.2,2,7.8c0.3,2-0.2,2.7-2.2,3
	c-2.7,0.7-5.5,0.3-7.2-2.3c-0.8-1.5-1.8-2.8-2.5-4.3c-4.5-10.5-5.3-21.5-3.3-32.7c0.3-2,1-4,2-5.8c1.3-2.7,5.7-3.7,8-2
	c0.7,0.5,1.3,1.5,1.3,2.3c0.3,1.7,0.2,3.3,0.3,5.2c0,0.5,0,1.2,0,2.3c0.5-1,0.8-1.3,1-1.8c2.2-4.7,5-9.2,8.3-13
	c2-2.2,4.3-4.2,6.7-5.7c3.2-2.2,6.7-2.7,10.3-1.7c3.7,0.8,6,3.2,6.2,6.8c0.2,2.5,0,5-0.5,7.5c-0.7,3.7-1.8,7.2-2.8,11.3
	c0.8-1,1.3-1.7,2-2.5c2.8-3.5,6-6.7,10-9c3.7-2.2,7.7-3.3,11.8-2.8c6.2,0.5,9.5,4.7,8.3,10.7c-0.5,2.7-1.3,5.3-2.3,7.8
	c-2,4.3-4.3,8.5-6.3,12.8c-2.3,5.2-4.8,10.5-7.2,15.7c-1.5,3.7-2.3,7.7-0.3,11.3c0.3-0.2,6.7-3,15.2-16.2
	c6.8-10.7,11.8-24.3,12.3-25.8c0.8-2,2.3-4.7,5-3.8C120.3,323.3,119.3,326.5,119,327.3z M142.8,307.6c1.7-0.3,3.5-0.5,5.2,0.7
	c0.5,0.3,0.8,1.2,1,1.8c0.2,1.5,0.2,2.8,0.2,4.3c-0.3,11-1.3,22.2-0.7,33.2c0.3,5.2,0.7,10.7,4.7,14.3c3.3-1.5,6.7-7.8,9.8-14.7
	c4.2-8.7,7.8-18.5,9-21.2c0.2-0.5,1-3,3.5-2.8c2.2,0.2,2.3,2.2,1.5,4.8c-6.3,19.2-12.3,30.3-15.2,34.3c-5.8,7.5-14.2,6.2-18.7,0
	c-2.2-3-3.3-6.5-4-10.2c-0.7-4.2-1-8-1.3-10.8c-0.3,0.7-0.5,1.3-0.8,2c-1.8,3.8-3.5,7.7-5.3,11.3c-1,1.8-2,3.5-3.2,5.2
	c-3.8,5.2-10.5,7.2-16.2,4.3c-4.2-2-11.2-15-1.3-39.5c1.7-4.2,6.8-10.7,10.5-12.7c5.8-3.3,12.3-4.2,19-1.5
	C140.8,309.1,141.3,308,142.8,307.6z M128.5,344.8c2.2-4.7,4-9.7,5.8-14.5c1.8-5,3.7-9.5,5-14.5c-0.8-0.5-1.7-1-2.7-1.3
	c-0.8-0.5-3-0.5-4,0.2c-1.2,0.8-3.7,3.2-5,5.3c-6.2,9-8.8,19.3-9.3,30.2c-0.2,2.7,0.3,5.3,1.3,8.5
	C123.6,354.1,126.3,349.6,128.5,344.8z M226,324.5c-2.8,9.8-6.3,21.2-12.5,30.3c-2.8,4.2-6.5,8.2-11.3,9.7c-2.3,0.8-4.3,1-6.7,0.7
	c-2.7-0.3-5-2.5-6.5-4.7c-1-1.3-1.7-3.2-2.5-4.7c-1.2-2.2-1.3-3.3-2.3-4c-1-0.7-2.7,2.2-3.5,3.7c-1.3,2.5-3,5-4.5,7.5
	c-1.7,2.5-6,3.5-9,2.3c-1.2-0.3-1.8-1.2-1.3-2.5c0.3-1.5,0.7-3.2,1.3-4.8c4.3-10.7,9.7-20.5,17-29.5c0.7-0.8,1.8-2.3,4.2-4.5
	c-7,3.3-13,2.7-16.2-0.3c-2.8-2.5-4.3-5.3-5-9c-0.5-2.8-0.5-9.3,2-13.8c2-3.5,4.3-6.3,8.8-6.5c3.7-0.3,6,2.8,7.2,6.5
	c1.2,4.2,1.2,7.8,0,12.8c-0.3,2-1.3,4-2,5.8c-0.2,0.7-0.5,1.2-1,2.3c1.3-0.5,2.2-0.7,3-1c4-2.2,8-4.3,11.8-6.5
	c1.8-1,3.5-1.7,5.5-1.7c0.7,0,1.5,0.2,2.2,0.5c1.3,0.5,1.5,1.2,0.8,2.3c-1,1.5-2,3.2-3,4.7c-4.8,7.5-9.7,15-14.7,22.5
	c-0.5,0.8-0.8,1.7-1.5,2.8c1.2,0.2,2.7-0.2,3.5-0.2c3.2,0.3,4.8,2.7,6,5.5c0.8,1.7,0.5,4.8,1.2,6.7c0.7,1.5,1.7,3,3.5,2.5
	c1.5-0.3,5-3,8.3-7.8c3.8-5.7,6.8-12.3,12.5-29.3c0.7-1.5,1.5-2.3,2.7-2.2C226,320.8,226.5,322.5,226,324.5z M177.6,300.2
	c-1.5,1.5-2.5,4.8-2.3,7.8c0.2,3,0.7,6,2.7,8.7C179.5,310.7,180.1,302.5,177.6,300.2z M259.5,321.2c-0.3,1.3-5,16.5-16,29.3
	c-5.3,6-13.3,6.7-18.5,4.7c-5.7-2.3-8-7-8.7-12.7c-0.8-8.8,1-17.2,4.8-25c1.2-2.3,2.5-4.5,3.8-6.5c2-3,5.2-3.7,8.7-3.3
	c2.2,0.3,2.8,1.3,2.5,3.7c-0.2,1.8-0.7,3.7-1.2,5.5c-1.3,4.7-2.7,9.5-3.5,14.3s-1.8,10.2-0.8,15c0.8,3.5,2.8,5.3,3.2,5.2
	c1.5-0.5,4.2-2.8,5.3-4.2c4.5-5.2,11.7-17.5,15-26.2c0.7-1.7,2.3-2.5,3.8-2.3C259.3,319,260,319.8,259.5,321.2z M230.3,294.7
	c0.3-3,3.5-6,6.5-5.5c0.8,0.2,1.7,0.8,2,1.5c1.7,2.5,1.3,6-1.2,8.2c-1.2,1-3.5,1.7-5,0.8C231,298.5,230,296.5,230.3,294.7z
	 M285,301.8c-3.2,2.8-5.8,6.2-8.2,9.8c-6,9.3-9.5,19.5-11.2,30.5c-0.2,1.5-0.3,3.2-0.5,4.7c-0.5,2-0.3,4,0.2,6
	c0.5,1.7,0.2,2.3-1.5,2.8c-2,0.7-4,0.7-6.2,0c-1.2-0.3-1.8-1.3-2.3-2.3c-1.8-3-2.7-6.2-3.3-9.5c-1.8-9.3-2.3-18.7-0.8-28
	c0.3-2.3,1.2-4.5,2-6.5c1.3-3.2,5.3-4.5,8.3-2.8c1.2,0.5,1.7,1.5,1.7,2.7c-0.2,5.3-0.8,10.7-0.5,16c0.3-0.7,0.7-1.3,1-2.2
	c2.3-6.3,5.3-12.2,9.2-17.7c2.5-3.7,5.5-6.8,9.2-9.2c4.7-3.2,9.8-3.8,15.2-2.3c4.8,1.3,7.2,4.7,7.2,9.8c0,3.2-0.7,6.3-1.8,9.2
	c-3,7-6,14-9,21c-3.5,7.8-6.5,15.8-8,24.5c-0.5,2.5-0.5,5.2,0.3,7.7c0.3,1,1,2,1.7,3.3c1.5-1,3-1.8,4.2-2.7c4.5-3.5,7.8-8,10.5-13
	c4.5-8.3,10.8-23,14-31.8c0.7-2.3,2.3-3.8,4.5-3c1.5,0.7,0.8,3.5,0.5,4.5c-3.3,10.2-8.2,22.7-14.8,33.8c-2.5,4-4.8,7.8-8.5,11
	c-2.5,2.2-5.5,3.8-8.8,4.3c-7.3,0.8-14-3.5-14.8-10.8c-0.7-5,0-10,1.2-15c2.3-9.8,6.5-19.3,10-28.7c1.5-4.3,3.3-8.7,4.7-13
	c0.7-2.2,1.2-4.2,0-7C288.2,299.5,286.5,300.5,285,301.8z M347.2,323.5c-2.3,8.5-4.7,14.8-8.8,22.5c-1.3,2.5-3,5-4.8,7
	c-3.8,4.3-8.7,5.7-14.2,4.7c-5.5-1-9-5.2-10-11.3c-1.2-6.5-0.8-10.8,0.8-17.2c2-7.8,5.3-15.2,10.8-21.3c4.3-4.7,9.5-8,15.8-9.2
	c2.7-0.5,5.5-0.5,8.2,0.5c1,0.5,2,0.3,3,0c4.7-1.3,6.8-0.3,9,4c3,6.5,5,13.3,6.3,20.2c2.5,12.5,4,30.3,4,31.3
	c9.3-6.8,16.8-18.3,19.5-33.2c0.7-2.5,2.2-3.7,3.5-3.7c2.5,0.2,2.8,2.5,2.5,5.3c-0.7,6.2-6.5,20.2-10.2,25.2
	c-6.7,10.2-14.8,13.8-14.8,14.5c0,11.3-1.5,23.3-6.2,33.8c-1.5,3.7-3.5,7.2-5.8,10.3c-3.5,4.8-8.3,8.2-14.7,8.8
	c-0.3,0-0.5,0.2-0.8,0.2c-8.3,0.3-13.7-4.5-13.7-13c0.2-6.2,2-12,5.5-17.2c3.3-4.3,7-8.3,11.2-11.8c2.5-2,4.8-4,7.3-6
	c1.5-1,2-2,2-3.7c-0.3-8-0.3-16-0.8-24c-0.5-6.8-2.5-23.8-2.7-24.2C348.5,318.3,347.9,321.3,347.2,323.5z M329.7,346.9
	c3-4.3,5.3-9.2,7-14.2c3-9.2,5-16.5,7.8-25.7c0.2-0.5,0.2-1.2,0.2-1.5c-1-1.3-2.7-2-4.2-1.8c-2.5,1.2-5.7,4.5-7.7,8
	c-6.7,11-8.5,21.2-8.3,33.8c0,1.8,0.3,4.5,0.8,5.7C327.5,350,328.7,348.5,329.7,346.9z M344.5,406.4c1.3-2.7,2.8-5.5,3.8-8.5
	c2-5.8,2.7-12.2,3.3-18.3c0.2-2,0.2-3.8,0.5-6.3c-5.2,4.2-9.2,8.2-12.5,13c-2.7,4-4.3,8.3-5.2,13.2c-0.3,2.5-0.3,5,0.5,7.3
	c0.7,2.2,1.7,4,4,5C341.4,410.5,343.2,408.7,344.5,406.4z"/>
</svg>
