<?xml version="1.0" encoding="utf-8"?>
<!-- Generator: Adobe Illustrator 18.0.0, SVG Export Plug-In . SVG Version: 6.00 Build 0)  -->
<!DOCTYPE svg PUBLIC "-//W3C//DTD SVG 1.1//EN" "http://www.w3.org/Graphics/SVG/1.1/DTD/svg11.dtd">
<svg version="1.1" id="Layer_1" xmlns="http://www.w3.org/2000/svg" xmlns:xlink="http://www.w3.org/1999/xlink" x="0px" y="0px"
	 viewBox="0 0 432 432" enable-background="new 0 0 432 432" xml:space="preserve">
<path fill="#B19A53" d="M199.1,286.4c-2.3,6.3-12.3,31.3-19.9,31.1c-10.2-0.2-3.3-27.1-3.1-36.7c0.2-11.4-13.1-12.8-13.2-7.5
	c-0.1,4.9-3.1,19.7-3.3,29.6c-0.1,3.8,0.8,8.1,2.3,11.9c-5.5,16.7-13.7,32.3-25.7,32.1c-15.2-0.3-21.3-8.1-31-16.2
	c13.6-14.5,19.9-46.1,25.4-72.9c3.7,0.8,7.8,1.3,11.8,1.3c28.1,0.5,26.9-53,2.1-53.5c-13.4-0.2-21,20.6-27.2,45.8
	c-7.2-1.5-14.5-3-21.5-3.1c-11.2-0.2-15.7,9.2-17.3,14.5c-1,2.6,1.6,3.6,2.6,1c1.7-4.3,5.9-12.3,14.8-12.2c7.3,0.1,14,1.5,20.5,2.8
	c-6,26-10.7,55.4-18,70.9c-4.2-2.8-8.5-4.9-13.6-5c-10.8-0.2-14.2,18,3,18.3c6.1,0.1,11.2-2.3,15.6-6.2c9.7,8.1,16.1,16.9,32.5,17.2
	c12.6,0.2,21.5-15.2,27.4-32.1c2.4,4.4,5.9,7.5,10,7.6c14.2,0.2,25.7-31.5,28.2-38.9C201.9,285,199.7,284.6,199.1,286.4z M147,212.6
	c17.6,0.3,18.9,43.7-5.4,43.2c-3-0.1-6.6-0.6-10.5-1.4C135.7,231.3,139.7,212.5,147,212.6z M86.7,336.2c-12.2-0.2-9.8-13.1-2-12.9
	c4.6,0.1,8.6,1.9,12.4,4.3C94.2,333.1,90.9,336.3,86.7,336.2z M179.9,256.4c-0.1,4.9-5.3,0.6-10,0.5c-4.6-0.1-5.8-8.4-5.8-11.6
	C164.2,240.3,180.1,246.3,179.9,256.4z M384,285.9c-2,6.1-12.5,34.8-25.2,34.6c-9-0.2-11.7-16.1-11.7-16.1s18.6-8.3,18.8-18.2
	c0.1-5.4-2.6-11.1-8.6-11.2c-10.4-0.2-22.4,10.8-22.7,25.3c-0.1,3.3,0.3,6.5,1.1,9.3c-4.9,16.2-11,32.4-16,32.3
	c-5.3-0.1-11.4-49.4-10.9-76.6c0-1,0-1.9,0.1-2.9c10.1-10.2,33.9-36.2,34.3-55.9c0.2-9.1-3-15.3-9-15.4
	c-22.3-0.4-41.4,48.5-42.1,86.7c-0.1,6.6,0,13.7,0.5,20.7c-3.7,14.2-12,35.3-18.6,35.3c-8.3,0-9.2-40.3-9-54.8
	c0.2-10,2.1-20.8,4.1-30.4c0,0,6.5,0.5,12.3,1.4c2,0.3,2.4-2.3,0.5-2.6c-3.2-0.6-7.3-1-12.2-1.5c2-9.5,4-17.6,4-22.5
	c0.2-9.3-7.1-12.2-10.1-12.3c-1.9,0-6.8,16.4-10.1,34.1c-5.6,0.3-9.5,1-12.1,1.5c-2.4,0.5-1.9,2.9,0,2.5c5.7-0.9,11.6-1,11.6-1
	c-1.8,9.6-3.1,19.2-3.2,26.5c-0.1,4.1,0,8.1,0.3,12.1c-0.3,0.2-0.5,0.6-0.5,1.1c-0.2,9.3-11.8,45.7-20.5,45.7
	c-8.3,0-9.2-40.3-9-54.8c0.2-10,2.1-20.8,4.1-30.4c0,0,6.5,0.5,12.3,1.4c2,0.3,2.4-2.3,0.5-2.6c-3.2-0.6-7.3-1-12.2-1.5
	c2-9.5,4-17.6,4-22.5c0.2-9.3-7.1-12.2-10.1-12.3c-1.9,0-6.8,16.4-10.1,34.1c-5.6,0.3-9.5,1-12.1,1.5c-2.4,0.5-1.9,2.9,0,2.5
	c5.7-0.9,11.6-1,11.6-1c-1.8,9.6-3.1,19.2-3.2,26.5c-0.6,32.7,9.7,64.1,20.8,64.3c12.8,0.2,22.2-26.7,25.5-42.1
	c3,23.4,11.1,41.9,19.6,42.1c10.3,0.2,18.4-17.2,22.9-32c2.5,22.8,9.3,42.9,24.1,43.1c7.1,0.1,14.4-17.8,20-36
	c3.3,6.8,9.3,11.1,17.4,11.3c18.1,0.3,29.4-32,31.5-39.1C386.8,285,384.6,284.3,384,285.9z M334.3,203.3c2.9,0.1,5.1,3.5,5.1,5.4
	c-0.3,15.2-20.7,38.5-30.2,48.5C311.4,231.6,321.5,203,334.3,203.3z M358.5,281.6c2.7,0,3.8,2.5,3.8,5.2
	c-0.1,7.7-15.5,14.3-15.5,14.3S345.2,281.4,358.5,281.6z M75.9,151.6c-0.6-0.2-1-0.5-1.4-0.9c-5.1-5.7-9.6-11.1-13.5-16.3
	c-4.1-5.2-7.8-10.1-11.1-14.8c-1.1-1.6-2.2-3.2-3.3-4.8c-4.6-6.8-8.5-13-11.7-18.7c-4-6.9-7.9-12.9-11.8-17.7c0.2-1.2,0.8-2.3,2-3.1
	c0.8-0.5,1.7-0.9,2.8-1.2c3-0.7,5-0.6,5.8,0.2c1.2,0.8,2.6,2.1,4.4,4.1c1.8,2,3.7,4.2,5.7,6.6c2.9,3.5,5.7,6.8,8.4,9.9
	c2.6,3.2,3.9,4.7,4.2,4.7c-0.2-1.1-0.7-3.9-1.5-8.4c-0.8-4.5-1.2-9.4-1-14.8c0.1-2.9,0.4-5.7,0.9-8.4c0.4-2.8,1.2-5.3,2.4-7.5
	c0.8-1.6,1.9-3,3.1-4.3c1.2-1.2,2.5-2.2,4-2.8c6.7-2.8,12.7-2.8,17.7-0.4c5.1,2.5,9.4,6.3,13.2,11.3c2,2.8,3.8,5.8,5.4,9
	c1.5,3.2,3,6.5,4.4,9.7c0.1,0.2,0.1,0.4,0.2,0.6c1.3,3.2,2.5,7.3,3.6,12.1c1.3,5,2,10.1,2.2,15.2c0,2.7-0.1,5.4-0.5,8
	c-0.4,2.6-1,4.9-1.8,7.1c-1.1,2.7-2.7,4.9-4.8,6.8c-2.1,1.9-4.8,3.2-8.3,4c-1.5,0.4-2.8-0.1-3.9-1.3c-1-1.1-1.6-2.3-1.6-3.5
	c0.3-0.2,0.6-0.4,0.9-0.5c0.3-0.1,0.6-0.1,1.1,0c0.1,0.6,0.6,1.2,1.5,1.6c0.9,0.5,1.7,0.6,2.3,0.4c3.5-1,5-3.9,4.7-8.7
	c-0.2-4.7-1.1-9.9-2.8-15.4c-1-3.6-2.2-7.1-3.5-10.5c-1.4-3.3-2.7-5.9-3.7-8c-1.3-2.3-2.9-4.8-4.6-7.7c-1.7-2.8-3.4-5.6-5.2-8.5
	c-3.2-5.3-6.4-10-9.6-14c-3.2-4-5.5-5.7-6.9-5.1c-1.7,0.7-3.1,3-4.1,7c-0.9,4-1.5,8.5-1.7,13.6c-0.4,6.2-0.2,12.2,0.4,18.1
	c0.7,6,1.5,9.7,2.4,11.4c5.9,7.2,11.1,13.9,15.8,19.9c4.6,6.2,8.8,12.8,12.6,19.8c0.2,1.2-0.7,2.3-2.6,3.5c-0.4,0.3-0.9,0.5-1.4,0.7
	c-2.9,1.5-5.7,2.2-8.3,2C77.1,151.8,76.5,151.7,75.9,151.6z M108.1,53.8c1,8.2,3.1,17.7,6.2,28.5c1.2,4,2.5,8,4,12.1
	c0.7,1.9,1.4,3.7,2.3,5.6c2.5,6.1,5.4,12.1,8.7,18.1c0.5,1.2,1.6,2,3.3,2.6c1.6,0.7,3.3,1.1,5.2,1.2c2.2,0.2,4.2,0.1,6-0.5
	c1.8-0.6,2.5-1.5,2.1-3c-0.5-4.8-2.1-10.1-5-15.6c-2.9-5.7-5.3-11.3-6.9-17c0.5-0.1,1-0.3,1.6-0.6c1.3,0.1,2.7,0.4,4,0.8
	c1.9,0.7,3.8,1.6,5.8,2.7c3.5,2.2,7.1,4.9,10.6,8c3.6,3.1,7.2,5.9,10.9,8.2c3,2,6.1,3.4,9.2,4.2c2.1,0.6,4.3,0.7,6.5,0.4
	c1.2-0.2,2.4-0.5,3.6-0.9c3-0.9,4.4-2.3,4.2-4.4c0,0,0-0.1,0-0.1c-0.2-2-1.4-2.5-3.3-1.5c-2.2,1.3-4.2,1.8-6.2,1.5
	c-2.1-0.3-4.1-1.2-6.1-2.6c-1.6-1.1-3.3-2.4-4.9-4.1c-1.8-1.6-3.5-3.3-5.2-5c-3.3-3.3-6.8-6.4-10.4-9.4c-2.9-2.3-5.9-3.9-9-4.6
	c2.7-2.2,5.3-4.6,8.1-7.2c2.2-2,4.3-4.2,6.4-6.5c2.2-2.2,4.2-4.5,6-6.8c2.2-2.9,3.9-5.8,5.3-8.7c1.3-2.9,2-5.6,1.9-8.4
	c0-0.3-0.1-0.5-0.1-0.8c-0.2-1.3-0.6-2.5-1.4-3.6c-1-1.5-2.2-2.8-3.8-4c-2.8-2.3-6.4-3.9-10.6-4.7c-4.2-0.7-8.2-0.3-11.6,1.2
	c-2.8,1.4-5.2,3.6-7.1,6.6c-2,3-3.6,6.3-4.8,9.8c-1.8,5.3-3,10.4-3.7,15.2c-0.5,4.8-0.9,7.4-1.3,8c-0.4-0.1-0.7-0.8-1.1-1.9
	c-0.4-1-0.9-2.5-1.3-4.3c-0.9-3.4-2.2-7.5-3.9-12.5c-1.8-4.9-4.4-9.6-8.1-14c-1.2-0.9-3.2-1.2-5.8-1.1c-0.7,0.1-1.3,0.2-1.7,0.3
	c-1.4,0.5-2,1.7-1.9,3.5C106.1,40.4,107.1,45.5,108.1,53.8z M133.8,57.8c1.9-7.9,4.4-14.5,7.2-19.5c1.6-2.7,3.2-4.8,4.7-6.3
	c1.2-1.2,2.3-2,3.1-2.1c0.1,0,0.3,0,0.5,0c2.7,0.2,4.4,1.8,5.1,4.8c0.2,1,0.3,2.2,0.2,3.5c0,5.3-1.2,11-3.2,17.3
	c-1.3,4.2-2.9,8.3-4.7,12.3c-1.8,4-3.8,7.2-5.9,9.8c-0.6,0.7-1.7,1.6-3.2,2.6c-1.1,0.7-2.2,1.3-3.3,1.6c-0.4,0.1-0.7,0.2-1.1,0.3
	C131.8,74,131.9,65.8,133.8,57.8z M192.9,74.2c-0.9-9.2-0.8-18.5,0.5-27.9c1.6-10.2,4.5-19.6,9-28.3c1.4-0.9,2.9-1.3,4.3-1.4
	c0.7,0,1.3,0,1.9,0.2c2.2,0.3,4,0.9,5.5,1.7c1.9,0.5,5.6,0.7,11,0.6c5.4,0,10.3-0.1,14.7-0.3c0.8,0,1.3,0.3,1.5,0.7
	c0,0.1,0,0.2,0,0.4c0,0.2-0.1,0.5-0.4,0.7c-4.3,1.1-9,1.8-14,1.9c-5.1,0.1-8.7,0.4-10.7,0.9c-0.2,0.3-0.5,1.2-0.8,2.5
	c-0.3,1.3-0.6,2.9-0.9,4.8c-0.5,3.7-0.9,8.2-1.4,13.6c-0.5,5.4-0.8,10.9-1,16.3c-0.4,6.8-0.6,13-0.6,18.5c0,5.5,0.2,8.6,0.6,9.4
	c0.7,0.5,3,0.4,6.8-0.3c3.8-0.8,7-1.8,9.7-3.1c1,0,1.5,0.5,1.6,1.3c0.1,0.9-0.2,1.6-0.9,2.2c-2.9,1.6-6,2.6-9.3,2.9
	c-3.4,0.4-5.7,0.8-6.8,1.1c-0.3,0.4-0.3,1.5,0,3.2c0.4,1.7,1,3.5,1.6,5.4c0.5,1.5,1.1,2.8,1.8,3.9c0.6,1.2,1.2,1.8,1.8,1.9
	c1.1,0.1,3.4-0.5,7-1.7c3.6-1.2,6.7-2.2,9.3-3.2c0.2,0.2,0.3,0.6,0.3,1c0.1,0.4-0.1,0.8-0.4,1.3c-2.8,1.4-6,2.7-9.6,4
	c-3.5,1.4-5.9,2.3-7.1,2.5c-1,0.2-2,0.3-3.1,0.3c-1.9,0.1-4-0.1-6.3-0.5c-3.7-0.6-6.2-1.7-7.6-3.5c-1.9-4.7-3.6-9.6-4.9-14.9
	c-1.3-5.1-2.3-10.4-2.9-15.8C193,75.7,193,75,192.9,74.2z M251.3,110c3.8,1.1,6,0.9,6.8-0.6c0.7-8,1.1-15.3,1.1-21.9
	c-0.1-0.2-0.1-0.5,0-0.7c1.7-0.2,3.5-0.3,5.5-0.4c4.8-0.3,9.6-0.3,14.2,0.1c0.5,0,0.9,0.1,1.4,0.2c-0.7,3.1-1.4,6.1-2,9.1
	c-1.5,7.1-2.3,12.8-2.4,17.1c0.8,2.6,2.9,4.4,6.3,5.6c0.6,0.2,1.2,0.4,1.8,0.5c2.6,0.6,4.5,0.3,5.8-1c0-0.7,0.2-1.8,0.6-3.3
	c0.5-1.8,1-3.7,1.4-5.5c1.1-3.9,2.5-8.7,4.2-14.4c0.7-2.8,1.5-5.6,2.2-8.4c0.8-3.1,1.6-6.3,2.4-9.6c1-4.2,1.9-8.3,2.6-12.5
	c0.8-4.1,1.3-8.1,1.5-12c0.4-7.2-0.2-13.5-2.1-18.9c-1.8-5.4-5.5-8.8-11.1-10.1c-2.8-0.6-5.6-0.1-8.4,1.7c-2.9,1.7-5.7,4-8.2,6.9
	c-2.5,2.8-4.8,5.8-6.9,9c-1.9,3.3-3.6,6.1-4.9,8.6c-0.7,1.3-1.2,2.4-1.7,3.4c-0.5,1-0.9,1.7-1,2c-0.3-0.1-0.3-2.2-0.1-6.1
	c0.2-3.9,0.5-8.1,0.7-12.6c0.1-2.9,0.2-5.7,0.1-8.2c0-2.6-0.2-4.6-0.5-5.9c-0.1-1.2-1.4-2.5-3.9-3.7c-1.1-0.5-2-0.8-2.8-0.9
	c-1.2-0.1-2.3,0.3-3.2,1.2c0.8,1,0.1,5.5-2,13.3c-2.1,7.9-3.7,17.8-4.8,29.7c-0.1,1.2-0.2,2.4-0.2,3.6c-0.4,5.3-0.5,10.9-0.5,16.9
	c0,7.2,0.6,14.7,1.5,22.4C245.4,107.2,247.5,109,251.3,110z M260.2,63.7c0.3-1.9,1.8-5.4,4.7-10.6c2.7-5.1,5.9-10,9.6-14.7
	c3-3.9,6-7.2,9-9.9c3-2.6,5.4-3.7,7.1-3.3c1.6,0.5,2.2,3,1.6,7.6c-0.5,4.6-1.5,10.3-3,17c-0.9,3.6-1.8,7.4-2.8,11.4
	c-0.9,4-1.9,8-2.9,12c-0.9,3.7-1.8,7.3-2.6,10.9c0,0-0.1,0-0.1,0c-4.9-0.5-9.8-0.7-14.6-0.6c-2.4,0.1-4.6,0.3-6.8,0.5
	C259.4,78.1,259.7,71.3,260.2,63.7z M415.3,89c-0.6,2-1.9,4.3-3.7,7c-0.7,1-1.5,2.2-2.5,3.4c-3.1,4.2-6.7,8.7-10.8,13.4
	c-2.2,2.5-4.4,5.1-6.6,7.7c-2.2,2.6-4.4,5.2-6.5,7.8c-4,4.8-7.5,9.3-10.5,13.4c-2.9,4.1-4.7,7.4-5.4,9.7c-1,2-2.8,2.4-5.3,1.1
	c-0.5-0.2-0.9-0.4-1.3-0.7c-1.8-1.2-3.2-2.8-4-4.9c-0.3-0.8-0.5-1.7-0.5-2.7c0-0.9,0.1-1.9,0.5-2.9c3.7-7.1,7.4-13.7,11.4-19.5
	c4-5.8,7.8-11.1,11.6-15.6c7.1-8.4,13.4-14.6,18.7-18.7c5.3-4.1,7.7-6.5,6.9-7.3c-1.5-1.4-4.2-1.7-7.9-0.8c-3.7,1-7.8,2.8-12.3,5.3
	c-2.4,1.4-4.9,2.9-7.4,4.7c-2.5,1.7-5,3.5-7.4,5.4c-4.7,3.7-9,7.6-13,11.6c-4.1,4-7.3,7.5-9.7,10.4c-0.9,0.9-1.7,1.5-2.6,1.8
	c-0.9,0.4-1.8,0.5-2.7,0.4c-2-0.3-3.7-1.2-5.3-3c-1.5-1.8-2.2-3.4-2-4.9c0.5-3.9,1.6-8.3,3.4-13c1.9-4.7,4-9.4,6.2-14
	c2.1-4.5,4.3-8.8,6.5-12.7c2.1-3.9,3.8-7.1,4.9-9.7c0.6-1.4,1-2.5,1.1-3.4c0.1-0.9,0-1.4-0.4-1.6c-1.2-0.7-3.9,0.6-8,4
	c-4.1,3.5-8.2,7.4-12.3,11.9c-3.3,3.7-6.3,7.3-8.9,10.7c-2.6,3.5-4.1,6-4.7,7.4c-1.1,3.9-2,7.5-2.8,10.7c-0.8,3.3-1.9,6.8-3.1,10.5
	c-0.7,1-1.4,1.9-2.2,2.6c-0.9,0.8-1.9,1.4-2.8,1.9c-3.1,1.4-6.1,1.8-9.2,1.2c-3-0.6-4.4-2.1-4-4.5c0.5-4.7,1.5-9.9,3.1-15.8
	c0.4-1.7,0.9-3.4,1.4-5.2c1.2-4.2,2.6-8.4,4.2-12.7c2.5-7.3,5.2-14.3,8-21.1c2.8-6.7,5.1-12.3,6.9-16.8c0.9-2.5,1.6-4.5,2-6.1
	c0.5-1.7,0.6-2.8,0.3-3.3c1.1-1.2,2.7-1.4,4.9-0.7c0.5,0.2,1.2,0.4,1.9,0.7c3.2,1.6,5.2,3.7,5.9,6.2c-0.6,2.7-1.4,6-2.4,9.9
	c-1.1,3.8-2.2,7.7-3.4,11.7c-1.8,5.9-3.4,11.3-5,16c-1.5,4.8-2.3,7.4-2.3,7.9c0.9-1.5,2.9-4.4,6.2-8.6c3.4-4.2,7-8.3,11-12.4
	c2.7-2.7,5.3-5.1,7.9-7.1c2.5-2.1,4.8-3.6,6.7-4.3c1.2-0.5,3-0.3,5.2,0.7c2.2,1,4,2.4,5.3,4.3c0.7,1,1.1,2.1,1.5,3.3
	c0.3,1.3,0.2,2.6-0.2,3.9c-0.8,1.9-2,4.8-3.7,8.6c-1.8,3.7-3.6,7.8-5.6,12.1c-1.1,2.2-2.1,4.5-3,6.7c-1,2.1-2,4.3-3.1,6.4
	c-1.7,3.8-3.1,7-4.2,9.6c-1.1,2.6-1.7,4-1.6,4.1c0.2-0.1,0.7-0.4,1.5-1.1c0.7-0.8,1.7-1.8,2.9-3.1c2.2-2.5,5-5.6,8.7-9.2
	c3.7-3.6,7.9-7.2,12.4-10.6c4.7-3.5,9.8-6.4,15.3-8.7c5.4-2.3,10.8-3.3,16.2-2.8c2.8,0.2,5.3,1.8,7.4,4.7
	C415,83.4,415.8,86.3,415.3,89z"/>
<path fill="#1B1B1C" d="M181.7,202.6c7.8,0.1,14.1-1.2,18.9-3.9c4.7-2.7,7.1-6.1,7.2-10c0.1-3.2-1.3-5.9-4.1-8.1
	c-1.7-1.4-3.9-2.5-6.5-3.2c-1.2-0.3-1.8-0.7-1.8-1.2c0-0.5,0.5-1.2,1.4-2.2c5.8-5.5,8.8-12.8,9-21.9c0.1-7.4-2.4-13-7.6-16.7
	c-4.5-3.2-9.6-4.9-15.5-5c-5.7-0.1-8.6,2.5-8.7,7.9l-1,54.6C172.9,199.2,175.8,202.5,181.7,202.6z M185.3,139.4c0-1,0.6-1.5,1.6-1.5
	c1.6,0,3.1,0.3,4.3,0.8c2.7,1.1,4.6,3.3,5.7,6.5c0.8,2.2,1.1,4.6,1.1,7.2c-0.1,4.6-1.2,9-3.2,13.2c-1.6,3.2-3.2,5.7-4.9,7.4
	c-1.7,1.7-3.1,2.6-4.1,2.6c-0.7,0-1.1-0.3-1.1-0.9L185.3,139.4z M184.5,184.2c0-1.5,1-2.2,2.9-2.1c3.9,0.1,7,0.6,9.2,1.7
	c2.3,1.1,3.4,2.6,3.3,4.6c0,2-1.2,3.7-3.4,5c-2.2,1.3-5.5,1.9-9.9,1.8c-1.6,0-2.4-0.8-2.3-2.3L184.5,184.2z M213.3,199.2
	c0-2,1.3-3,3.8-3c0.8,0,1.4-0.1,1.8-0.3c0.3-0.2,0.5-0.6,0.5-1.2l1-56.5c0-1-0.5-1.6-1.5-1.6c-1.4-0.1-2.3-0.3-2.9-0.6
	c-1.1-0.6-1.6-1.5-1.6-2.7c0-1.5,1.3-2.2,3.7-2.2l15.8,0.3c2.5,0,3.7,0.8,3.7,2.3c0,1.2-0.6,2.1-1.7,2.6c-0.6,0.3-1.6,0.4-3.1,0.5
	c-0.9,0-1.3,0.5-1.3,1.2l-1,57.2c0,0.8,0.4,1.2,1.1,1.3c1.3,0.1,2.3,0.3,2.8,0.6c1,0.6,1.6,1.5,1.5,2.7c0,1.5-1.3,2.2-3.7,2.2
	l-15.6-0.3C214.4,201.7,213.3,200.9,213.3,199.2z M248.4,194.7c-4.2-6.5-6.2-16.1-6-28.9c0.3-17.3,4.5-28.3,12.7-33
	c2.7-1.6,6-2.3,10-2.2c5.9,0.1,10.1,2.5,12.6,7.2c2.1,3.9,3,9,2.9,15.4c-0.1,4-0.5,7.2-1.2,9.4c-0.7,2.3-1.7,3.4-3,3.4
	c-1,0-1.7-0.3-2.1-0.8c-0.6-0.6-0.9-1.7-0.8-3.2c0-1.2,0.2-2.5,0.4-3.9c0.3-1.8,0.5-3.9,0.5-6.3c0.1-3.1-0.3-5.9-1-8.2
	c-1.3-4.2-3.5-6.4-6.6-6.4c-3.7-0.1-6.6,1.9-8.7,6c-2.5,4.7-3.8,11.6-3.9,20.8c-0.2,9.5,0.7,17.3,2.6,23.3c1.7,5.6,4.3,8.4,7.7,8.4
	c1.7,0,3.2-0.4,4.6-1.4c1.4-0.9,2.6-2.1,3.4-3.6c0.9-1.5,1.3-3,1.4-4.6c0-1.1-0.7-1.6-2-1.7c-1.4,0-2.8,0-4.3,0l-2.2,0
	c-1.1,0-2-0.4-2.6-1.1c-0.6-0.7-0.9-1.4-0.9-2.1c0-1.2,0.5-2.1,1.3-2.6c0.8-0.5,2.1-0.8,3.7-0.7c5.1,0.1,8.4,0.5,9.9,1.2
	c2,0.9,3,3.1,2.9,6.6c-0.1,2.9-0.8,5.7-2.4,8.3c-1.5,2.6-3.6,4.7-6.1,6.4c-2.5,1.6-5.3,2.4-8.4,2.4
	C256.7,202.6,251.8,199.9,248.4,194.7z M310.3,370c-0.9,1.9-2,4-3.3,6.4c-1.3,2.3-2.8,4.6-4.4,7c-3,4.4-6.3,8.1-9.8,11.3
	c-3.5,3.3-6.6,4.6-9.3,3.9c-2.5-0.6-4.3-2.4-5.5-5.5c-1.1-3.1-1.7-6.7-1.9-10.7c-0.1-2.3,0-4.6,0.1-6.9v-0.1
	c2.7-1.3,5.1-2.8,7.1-4.5c4.4-3.7,6.6-9,6.5-15.9c-0.1-4.4-1.5-7.7-4.2-10.1c-2.1-1.7-4.3-2.6-6.7-2.6c-0.8,0-1.6,0.1-2.4,0.2
	c-1.8,0.4-3.6,1.3-5.4,2.7c-1.8,1.4-3.4,3.4-4.9,5.9c-3.2,5.7-4.9,12.2-5.2,19.6v1.8c0,1.6,0.1,3.1,0.2,4.6
	c-0.2,0.4-0.4,0.7-0.6,1.2c-1.3,2.7-2.8,5.5-4.4,8.4c-2.5,4.4-5,8.3-7.5,11.9c-2.5,3.6-4.6,5.1-6.2,4.6c-0.6-0.2-0.8-1.9-0.6-5.2
	c0.2-3.3,0.6-7.4,1.2-12.1c0.2-2.6,0.5-5.3,0.7-8.1c0.2-2.8,0.4-5.5,0.6-8.3c0.3-6.4,0.1-12.1-0.7-17.1c-0.8-5.1-2.9-7.7-6.2-8
	c-1.3-0.1-2.7,0.2-3.9,1c-1.3,0.7-2.6,1.7-3.8,2.9c-2.2,2.2-4.1,4.8-5.7,7.8c-1.6,3.1-2.6,5.5-3.1,7.4c-0.2-3.1-0.3-6.2-0.4-9.3
	c-0.1-3.2-0.4-5.8-1.1-8c-0.3-1.1-0.8-2-1.3-2.7c-0.6-0.7-1.3-1.1-2.1-1.2c-0.3-0.1-0.7-0.1-1.1-0.1c-1,0-1.9,0.2-2.9,0.5
	c-1.3,0.5-2.3,1.3-3.1,2.6c1.4,1.1,1.8,4.1,1.1,9c-0.7,4.8-1.5,10.4-2.4,16.6c0,0.2,0,0.4-0.1,0.6c-0.1,0-0.3,0.1-0.4,0.1
	c-0.7,1.7-2,3.6-3.9,5.9c-1.8,2.3-4,4.1-6.4,5.4c-1.3,0.7-2.6,1.2-4,1.5c-0.5,0.1-1,0.1-1.4,0.1c0.8-3.8,1-7.8,0.7-12.1
	c-0.8-9.8-2.9-16.3-6.4-19.6c-3.5-3.4-7.8-3.6-13.1-0.6c-3.1,1.8-4.4,5-3.8,9.6c0.6,4.6,2.2,9.1,4.9,13.6c1.7,2.9,3.8,5.4,6.3,7.7
	c2.2,2.1,4.5,3.6,6.8,4.3c-1.2,3.2-2.6,5.7-4.2,7.7c-1,1.3-2.1,2.4-3.3,3.2c-1.2,0.8-2.4,1.2-3.6,1.3c-2.7,0.1-4.9-1.1-6.7-3.7
	c-1.7-2.5-2.9-5.5-3.8-9c-0.5-1.8-0.8-3.7-1.1-5.6c-0.2-2-0.4-3.8-0.4-5.5c-0.1-2.3,0-4.7,0.4-7.1c0.2-2.5,0.7-4.8,1.3-7.1
	c1.1-4.3,2.8-7.8,5-10.7c2.2-2.8,5-3.6,8.4-2.5c0.6,0.2,1.1,0,1.7-0.4c0.6-0.4,0.4-0.8-0.5-1.1c-2.5-1.2-4.8-1.8-7.1-1.8
	c-2.4,0-4.6,0.5-6.7,1.4c-3.9,1.9-7.1,5.3-9.6,10.2c-2.5,4.9-3.8,10.8-3.8,17.7v0.1c0,8.7,1.9,15.5,5.6,20.3
	c3.8,4.8,9.4,7.3,16.8,7.3h0.1c2,0,3.8-0.4,5.5-1.3c1.7-0.8,3.3-1.9,4.6-3.4c2.1-2.5,3.8-5.6,5-9.4c0.9,0.1,1.7,0,2.6-0.1
	c1.7-0.2,3.4-0.8,5.1-1.7c3-1.5,5.6-3.6,7.8-6.4c0.3-0.4,0.5-0.7,0.8-1.1c-0.1,0.8-0.2,1.6-0.2,2.5c-0.2,1.7-0.2,3.3-0.2,5
	c0,1.8,0.1,3.6,0.2,5.4c1.7,3.6,3.8,5,6.2,4.2c2.4-0.8,4.6-2.3,6.7-4.4c0.3-0.7,0.6-2.4,0.8-5c0.2-2.5,0.4-5.4,0.6-8.6
	c0.1-1.7,0.2-3.4,0.2-5.1c0-1.7,0-3.4,0.1-4.9c0.5-1.4,1.1-3,1.8-4.6c0.7-1.6,1.5-3.2,2.4-4.8c1.6-3,3.3-5.7,5.2-8
	c1.8-2.3,3.4-3.4,4.8-3.3c0.8,0.1,0.8,2.8-0.1,8.2c-0.8,5.4-1.5,11.5-2.1,18.2c-0.4,4.6-0.6,9.1-0.5,13.6c0,4.4,0.6,8.3,1.7,11.5
	c0.7,2.1,1.7,3.8,2.9,5.1c1.1,1.3,2.6,2.3,4.4,2.7c0.5,0.1,0.9,0.1,1.3,0.1c2.5,0,5.2-1.7,7.8-5c3.3-4,6.2-8.4,8.9-13.2
	c0.9-1.8,1.8-3.5,2.7-5.2c0.7,2.3,1.6,4.5,2.8,6.6c1.7,3,3.8,5.5,6.5,7.6c2.7,2.1,6,3.4,9.9,4.2c0.8,0.1,1.5,0.1,2.3,0.1
	c3.6,0,7.2-1.4,10.6-4.3c4.1-3.5,7.8-7.7,10.9-12.5c1.7-2.5,3.3-5.1,4.8-7.6c1.3-2.6,2.5-5,3.6-7.1c-0.6-0.6-1.3-1-1.9-1.1
	C311.6,369.2,310.9,369.5,310.3,370z M277,368.6c0.8-5.3,1.9-9.9,3.4-13.9c1.5-3.9,3-5.7,4.4-5.4c1.6,0.4,2.3,2.6,2.3,6.5
	c-0.1,4-1.7,7.8-4.9,11.5c-1.5,1.7-3.4,3.3-5.7,4.8C276.7,371,276.8,369.8,277,368.6z M188.3,384.1c-1.3-0.5-2.6-1.5-4-3
	c-1.6-1.6-3.1-3.4-4.4-5.6c-2.1-3.3-3.6-6.5-4.6-9.6c-1.1-3.3-1-5.2,0.2-5.8c2.4-1.3,5.1-0.9,8.1,1.4c3,2.4,4.8,6.2,5.5,11.5
	C189.4,376.9,189.1,380.6,188.3,384.1z M376.8,165c-0.2-1-1.7-2.2-4.1-3.2c-2-0.9-5.9-1.9-8.8-2.5l-1.5-0.3l-0.6,0.6
	c-2.5,2.5-5.6,5.3-5.9,5.3c-0.7-0.1,0.4-1.7,3.8-5.5l0.6-0.7l-0.3-0.1c-0.4-0.1-4.5-0.6-6.3-0.6c-2-0.1-4.6-0.1-6.2,0.1l-1.2,0.1
	l-2.6,3.4c-1.4,1.9-2.7,3.5-2.9,3.7c-0.3,0.2-0.4,0.2-0.5,0.1c-0.1-0.1-0.2-0.3-0.1-0.5c0-0.4,1.9-3.9,2.8-5.1
	c0.3-0.5,0.6-0.9,0.6-1c0.1-0.3-5.3,0.6-7.4,1.3c-0.8,0.3-0.9,0.3-1.6,1.2c-0.4,0.5-1,1.4-1.5,2c-0.4,0.6-0.9,1.2-1,1.4
	c-0.3,0.3-0.5,0.3-0.6,0c0-0.3,0.5-1.6,1-2.5c0.2-0.4,0.5-0.8,0.5-0.9c0-0.1-1.7,0.5-3.3,1.3c-1.7,0.7-3.3,1.7-5.5,3.1l-1.9,1.3
	l-1-0.1c-0.6-0.1-6.4-1.1-13-2.2c-9.1-1.6-12.1-2.1-12.3-2.1c-0.7,0.2-1.3,0.9-1.1,1.7c0.1,0.4,0.5,0.8,0.9,0.9
	c1.5,0.7,3.5,0.7,5.1,1c2.7,0.5,5.3,1,8,1.5c2.5,0.5,5,0.9,7.5,1.3c1.2,0.2,2.4,0.5,3.7,0.6l0.6,0l1,1.4c1.9,2.8,3.9,4.9,6.2,6.9
	c1.9,1.6,5.8,4.5,5.6,4.1c0-0.1-0.2-0.5-0.3-0.8c-0.5-1.3-0.6-1.8-0.4-3.1c0.1-1,0.2-1.1,0.4-1.1c0.1,0,0.3,0.2,0.4,0.7
	c0.1,0.4,0.4,1.3,0.7,2c1.3,3.3,1.7,4,2.2,4.4c0.8,0.6,9,5.6,9.1,5.5c0,0,0-0.4-0.2-0.7c-0.5-1.1-0.7-2.1-0.9-3.7
	c-0.2-1.5-0.2-1.6,0-1.8c0.4-0.4,0.6-0.1,1,1.3c0.4,1.5,2.1,5.4,2.6,6.2c0.4,0.6,1.1,1,3.5,2c2.8,1.1,5.6,2,8,2.4l1,0.2l-0.9-1.5
	c-1.2-2-2.3-4.5-3.2-6.9c-0.8-2.1-0.9-2.9-0.4-2.8c0.2,0,0.3,0.2,0.5,0.6c0.4,0.9,2,4.2,2.8,5.7c1,1.8,1.7,2.9,2.6,3.9
	c0.4,0.5,0.8,0.9,0.9,1c0.4,0.5,5,0.4,6.9-0.1c0.3-0.1,0.8-0.3,1-0.5c0.4-0.3,0.5-0.4,0.5-0.9c0.2-1,0-2.6-0.8-5.6
	c-0.9-3.5-1.9-5.7-4.1-9.4c-0.5-0.8-0.8-1.4-0.8-1.5c0,0,0.9-0.7,1.9-1.4c1-0.7,2.3-1.8,2.8-2.3c0.5-0.5,1.3-1.4,1.9-1.9
	c1.3-1.3,2.2-2.3,3.4-4.1C376.8,166.3,377,165.8,376.8,165z M362.1,177c-0.1,0.3-0.1,0.4-0.5,0.3c-0.2,0-0.8,0-1.3,0
	c-1,0-4.5-0.3-7.1-0.6c-4.7-0.6-14.3-2.7-22.1-4.8c-2.9-0.8-3-0.8-3-1.1c0-0.5,0.2-0.8,0.4-0.7c0.2,0.1,4.2,1.2,6.9,1.8
	c3.4,0.9,16.1,3.3,18.7,3.7c1.3,0.2,3.5,0.5,4.9,0.7c1.4,0.2,2.7,0.4,2.9,0.4C362.1,176.7,362.2,176.7,362.1,177z M160.2,165.1
	c0.4-0.2,0.8-0.5,0.9-0.9c0.2-0.8-0.4-1.5-1.1-1.7c-0.2-0.1-3.2,0.4-12.3,2.1c-6.6,1.2-12.4,2.2-13,2.2l-1,0.1l-1.9-1.3
	c-2.2-1.5-3.8-2.4-5.5-3.1c-1.6-0.7-3.3-1.4-3.3-1.3c0,0.1,0.2,0.4,0.5,0.9c0.5,0.9,1.1,2.3,1,2.5c-0.1,0.3-0.3,0.3-0.6,0
	c-0.1-0.1-0.6-0.7-1-1.4c-0.4-0.6-1.1-1.5-1.5-2c-0.7-0.9-0.7-0.9-1.6-1.2c-2.1-0.7-7.5-1.6-7.4-1.3c0,0.1,0.3,0.5,0.6,1
	c0.9,1.3,2.7,4.8,2.8,5.1c0,0.2-0.1,0.4-0.1,0.5c-0.1,0.1-0.2,0.1-0.5-0.1c-0.2-0.1-1.5-1.8-2.9-3.7l-2.6-3.4l-1.2-0.1
	c-1.6-0.1-4.2-0.2-6.2-0.1c-1.8,0.1-5.9,0.5-6.3,0.6l-0.3,0.1l0.6,0.7c3.5,3.8,4.6,5.4,3.8,5.5c-0.3,0.1-3.4-2.7-5.9-5.3l-0.6-0.6
	l-1.5,0.3c-2.9,0.6-6.8,1.6-8.8,2.5c-2.3,1-3.8,2.1-4.1,3.2c-0.2,0.8,0,1.2,1.1,2.9c1.2,1.8,2.1,2.8,3.4,4.1
	c0.5,0.5,1.4,1.4,1.9,1.9c0.5,0.5,1.8,1.5,2.8,2.3c1,0.8,1.9,1.4,1.9,1.4c0,0-0.4,0.7-0.8,1.5c-2.2,3.7-3.2,5.9-4.1,9.4
	c-0.8,3-1,4.5-0.8,5.6c0.1,0.5,0.2,0.6,0.5,0.9c0.2,0.2,0.7,0.4,1,0.5c1.9,0.6,6.5,0.6,6.9,0.1c0.1-0.1,0.5-0.6,0.9-1
	c0.9-1,1.6-2.1,2.6-3.9c0.8-1.5,2.4-4.8,2.8-5.7c0.2-0.4,0.4-0.6,0.5-0.6c0.5-0.1,0.3,0.7-0.4,2.8c-0.8,2.3-2,4.8-3.2,6.9l-0.9,1.5
	l1-0.2c2.4-0.5,5.2-1.3,8-2.4c2.4-1,3.1-1.4,3.5-2c0.5-0.7,2.1-4.7,2.6-6.2c0.4-1.4,0.6-1.7,1-1.3c0.2,0.2,0.2,0.3,0,1.8
	c-0.2,1.6-0.5,2.6-0.9,3.7c-0.2,0.4-0.2,0.7-0.2,0.7c0.1,0.1,8.3-4.9,9.1-5.5c0.5-0.4,0.8-1.1,2.2-4.4c0.3-0.8,0.6-1.7,0.7-2
	c0.1-0.5,0.3-0.7,0.4-0.7c0.2,0,0.2,0.1,0.4,1.1c0.2,1.2,0.1,1.8-0.4,3.1c-0.2,0.4-0.3,0.7-0.3,0.8c-0.1,0.3,3.8-2.5,5.6-4.1
	c2.4-2,4.3-4.2,6.2-6.9l1-1.4l0.6,0c1.2-0.1,2.5-0.4,3.7-0.6c2.5-0.4,5-0.9,7.5-1.3c2.7-0.5,5.3-1,8-1.5
	C156.7,165.8,158.7,165.7,160.2,165.1z M124.9,171.9c-7.8,2.2-17.4,4.3-22.1,4.8c-2.5,0.3-6.1,0.6-7.1,0.6c-0.5,0-1,0-1.3,0
	c-0.4,0-0.4,0-0.5-0.3c-0.1-0.3,0-0.3,0.2-0.3c0.2,0,1.4-0.1,2.9-0.4c1.4-0.2,3.6-0.5,4.9-0.7c2.6-0.3,15.3-2.8,18.7-3.7
	c2.6-0.6,6.6-1.7,6.9-1.8c0.2-0.1,0.4,0.2,0.4,0.7C127.9,171.1,127.8,171.1,124.9,171.9z"/>
</svg>
