<?xml version="1.0" encoding="utf-8"?>
<!-- Generator: Adobe Illustrator 18.0.0, SVG Export Plug-In . SVG Version: 6.00 Build 0)  -->
<!DOCTYPE svg PUBLIC "-//W3C//DTD SVG 1.1//EN" "http://www.w3.org/Graphics/SVG/1.1/DTD/svg11.dtd">
<svg version="1.1" id="Layer_1" xmlns="http://www.w3.org/2000/svg" xmlns:xlink="http://www.w3.org/1999/xlink" x="0px" y="0px"
	 viewBox="0 0 432 432" enable-background="new 0 0 432 432" xml:space="preserve">
<path fill="#171617" d="M356,153.6c-1.3,1.3-2.7,2.5-4.1,3.6c0.7-2.7,1.5-5.3,2.2-7.8c0.7-2.5,1.4-4.8,2.2-7
	c0.7-2.2,1.4-4.1,2.2-5.8c0.7-1.7,1.5-3.2,2.3-4.4c0.6-0.7,1.1-1.3,1.6-1.8c0.5-0.5,1-0.7,1.5-0.7c0.5,0,0.9,0.5,1.4,1.4
	c0.4,1.1,0.6,2.2,0.6,3.4c0,0.9-0.1,1.8-0.4,2.8c-0.2,1-0.5,1.9-0.8,2.8l0.1,0c-0.5,1.6-1.2,3.1-2,4.7c-0.9,1.6-1.9,3.1-3,4.6
	C358.6,150.8,357.4,152.3,356,153.6z M240.8,218.9c0.2-0.6,0.4-1.3,0.5-2.1c0.1-0.7,0-1.5-0.3-2.3c-0.2-0.7-0.6-1.7-1.3-2.2
	c-0.7-0.6-1.4-0.2-2.1-0.2h-0.1c-1,2-1.7,2.1-2,3.8c-0.3,1.8-0.5,3.8-0.6,5.8c0,0.7,0,1.3-0.1,1.7c0,0.3,0,0.9,0,1.5
	c1.4-0.6,2.6-1.3,3.6-2.2C239.5,221.8,240.3,220.5,240.8,218.9z M281.7,149.3c1.1-1.5,2.1-3,3-4.6c0.9-1.6,1.5-3.1,2-4.7l-0.1,0
	c0.3-0.9,0.5-1.8,0.8-2.8c0.2-1,0.3-1.9,0.4-2.8c0-1.1-0.2-2.3-0.6-3.4c-0.5-0.9-0.9-1.3-1.4-1.4c-0.5,0-1,0.2-1.5,0.7
	c-0.5,0.5-1.1,1.1-1.6,1.8c-0.8,1.2-1.6,2.7-2.3,4.4c-0.7,1.7-1.5,3.7-2.2,5.8c-0.7,2.2-1.4,4.5-2.2,7c-0.7,2.5-1.4,5.1-2.2,7.8
	c1.4-1.1,2.8-2.3,4.1-3.6C279.3,152.3,280.6,150.8,281.7,149.3z M265.6,214.5c-0.2-0.3-0.4-0.5-0.7-0.5c-0.7,0-1.3,0.3-1.8,0.9
	c-0.5,0.6-1.1,1.4-1.6,2.5c-0.5,1-1,2.1-1.5,3.2c-0.5,1.1-0.9,2.3-1.3,3.4c-0.4,1.1-0.7,2.1-1,2.9c-0.2,0.7-0.4,1.7-0.6,2.8
	c-0.2,1.1-0.3,2.2-0.3,3.1c0,1.1,0.1,1.8,0.3,2c0.3,0.2,0.9-0.3,1.6-1.6c0.7-1.3,1.5-3,2.3-5c0.8-2,1.6-4.1,2.4-6.3
	c0.8-2.2,1.5-4.1,2-5.7l-0.1,0.1C265.7,215.4,265.7,214.8,265.6,214.5z M240.5,182c2-3.2,3-6.8,3.1-10.9c0.1-1.6,0-3.2-0.3-4.9
	c-0.3-1.7-0.7-3.2-1.4-4.5c-0.7-1.3-1.6-2.4-2.7-3.3c-1.1-0.9-2.4-1.3-3.9-1.4c-3.1-0.1-5.9,0.5-8.3,2c-2.4,1.4-4.6,3.3-6.6,5.7
	c-1.9,2.4-3.6,5.1-5.1,8.2c-1.5,3.1-2.7,6.2-3.8,9.5c-1.1,3.2-2,6.4-2.7,9.5c-0.7,3.1-1.4,5.9-1.9,8.3c4.8-1,9.4-2.3,13.7-3.9
	c4.4-1.6,8.2-3.6,11.6-5.9C235.8,187.9,238.5,185.2,240.5,182z M417.9,256.8c-2,20.1-3.7,40.3-5.8,60.4c-0.3,3.1-1.5,6.1-2.5,10.2
	c-8.7-5.3-6.1-11.8-5.6-17.7c1.9-23.6,4-47.2,5.5-70.9c0.3-5.4-1.5-11-2.4-16.4c-0.7,0-1.4,0-2.1,0c-9.4,33.7-19.2,67.4-27.8,101.3
	c-1.8,7,0.9,15.2,1.5,22.8c0.5,5.8-0.9,10-5.9,11.2c-0.2,0-0.5,0-0.7,0c-2.8-0.1-5.6-0.6-8.4-0.7c-1.9,0-3.7,0.4-5.4,1.1
	c-6.2,0-12.5,0-19.2,0c18.2-37.9,8.6-73.6-5.5-109.6c-8.9,2.3-18.1,4.2-27,6.9c-18.2,5.4-36.5,5.2-54.9,2.3
	c-11.9-1.8-12.8-0.5-10.2,10.9c5.5,24.1,11,48.2,15.7,72.5c2.3,11.8,1.5,15.3-6.3,16.5c-1.7-0.2-3.4-0.4-5.1-0.6
	c-0.3,0-0.6-0.1-0.8-0.1c-3.7-0.7-7.2-0.6-10.5,1.4c0,0-0.1,0-0.1,0.1c-2.5,0-5,0-7.5,0c-2.4,0-4.8-0.5-4.4-0.5
	c-1.4-11.2-1.2-21.8-4.2-31.5c-5.8-18.9-13.4-37.3-22.7-55.6c0.3,4.8,1,9.7,0.8,14.5c-0.8,21.2-1.8,42.5-2.9,63.7
	c-0.2,4.9-2.1,7.9-5.9,8.9c-1.4-0.5-2.8-0.7-4.3-0.7c-0.6,0-1.2,0-1.9,0c-0.3-0.1-0.5-0.1-0.8-0.2c-3.4-1-6.8-0.5-9.8,1
	c-5,0-10.1,0.1-15.4,0.1c7.8-31.9-1-61.5-4.5-91.5c-1.5-12.7-1.2-25.7-2.3-38.5c-0.5-5.7-2.3-11.3-4-19.1c-4.7,4.3-6.9,6.3-10.2,9.3
	c-5.4-12.9-14.3-11.4-23.9-6.4c-0.6,0.3-1.3,0.8-1.9,0.7c-11.3-0.6-19.9,3-24.5,14.1c-0.8,1.9-4.3,2.6-8.9,5.1
	c1.5-7.8,2.5-13,3.8-19.6c-2.7,1.8-5,3.6-7.4,4.8c-1,0.5-1.9,1-2.8,1.5c-24.7,13.6-34,36.5-36.5,63.6c-0.7,7.6-2.4,15.2-2.8,22.8
	c-0.8,16.4,2.4,18.7,17,13.1c0.1,0.2,0.3,0.4,0.4,0.6c0.1,5.1,2.6,10.1,7.6,12.3c-19.4,12.6-39.7,5.4-41.9-17.1
	c-2.1-21.3,0.1-43.1,1.1-64.6c1.2-25.6,10.3-48.8,22.5-71.2c5.5-10,9.5-20.9,13.5-31.7c2.8-7.5,6.4-13.2,14-17.1
	c3.8-1.9,6.3-7.7,7.9-12.3c4.5-12.6,8.5-25.2,22.3-31.2c10.6-4.6,20.7-3,30.3,2c12.6,6.5,24.8,7,38.4,3.1c8.1-2.3,17.3-1.1,25.9-1.4
	c18.8-0.5,37.6-0.5,56.3-1.6c73.4-4.5,137.9,21.5,167.4,91.7C423.2,204.9,420.4,230.7,417.9,256.8z M64.4,142c-5.9,0-5.9,9.2,0,9.2
	C70.4,151.1,70.4,142,64.4,142z M292,153.3c-0.5-0.2-0.9-0.3-1.4-0.5c-0.5-0.2-0.9-0.3-1.4-0.3c-0.8,0-1.2,0.2-1.4,0.6
	c-0.1,0.4-0.2,1-0.2,1.6l0,0.4c0.1,0.9,0.2,1.7,0.4,2.4c0.2,0.6,0.7,1,1.4,1.1l1.2,0.3l-0.1,0c0.7,0.3,1.3,0.4,1.6,0.3
	s0.6-0.6,0.6-1.7c0-0.2-0.1-0.5-0.1-0.9c0-0.7-0.1-1.4-0.2-2C292.4,153.9,292.2,153.5,292,153.3z M150.7,106.4
	c-9.3-12.7-37.6-1.2-38.8-0.7l1.6,3.9c7.3-3,27.7-9.1,33.8-0.7c8.4,11.5,13.5,42.3,11.8,45.5c-3.7,3.7-21.2,18.9-28,20.6
	c-2.4,0.6-8.9-5.7-12.2-14.2c-1.4-3.7-4-12.6,2.8-16.2l-2-3.7c-6.8,3.6-8.6,11.6-4.8,21.4c3.3,8.5,10.3,16.9,15.9,16.9
	c0.4,0,0.8,0,1.2-0.1c8.7-2.2,27.7-19.5,30-21.7C166.6,152.8,158.8,117.5,150.7,106.4z M231.7,198.6c3.4-1.8,6.6-3.9,9.5-6.4
	c2.9-2.5,5.3-5.3,7.4-8.5c2-3.2,3.3-6.8,3.8-10.8c0-2-0.3-4.1-0.9-6.3s-1.6-4.3-3-6.2c-1.4-1.9-3.1-3.4-5.3-4.7
	c-2.2-1.3-4.8-1.9-7.8-2c-3.6-0.1-6.7,0.7-9.6,2.4c-2.8,1.7-5.3,3.9-7.5,6.6c-2.2,2.7-4.1,5.9-5.8,9.4c-1.7,3.5-3.1,7.1-4.3,10.8
	c-1.2,3.7-2.3,7.2-3.1,10.8c-0.9,3.5-1.6,6.6-2.1,9.3c-0.9,3.9-1.5,7.8-1.8,11.7c-0.3,3.9-0.5,7.5-0.6,10.8c0,2.4-0.1,4.7,0,6.9
	c0,2.2,0.1,4.2,0.2,6.1c0.1,2.9,0.2,5.4,0.1,7.5c-0.1,3.7-0.6,5.5-1.6,5.6c-2,0.1-3.4-1-4.1-3.1c-0.7-2.2-1.1-5-1-8.6
	c0.1-3.2,0.4-6.7,1-10.7c0.6-4,1.3-8.1,2.2-12.4c0.9-4.3,1.8-8.6,2.9-12.9c1.1-4.3,2.1-8.4,3.1-12.2c1.2-4.9,2.3-9.2,3.1-12.8
	c0.8-3.6,1.2-6.1,1.2-7.6c0-2.8-0.5-4.8-1.4-6c-1-1.2-2.2-1.8-3.7-1.8c-1.5,0-3.1,0.5-4.7,1.6c-1.7,1.1-3.2,2.5-4.6,4.1
	c-0.8,0.8-1.5,1.7-2.2,2.8s-1.4,2.3-2.2,3.4c-0.7,1-1.4,2.1-2.2,3.1c-0.7,1.1-1.5,2.1-2.3,3c-0.8,0.9-1.6,1.8-2.5,2.5
	c-0.9,0.7-1.8,1.3-2.8,1.6c-1,0.3-2.1,0.5-3.2,0.5c-2.1,0-3.9-0.8-5.2-2.2c-1.4-1.4-2-3.3-1.8-5.8c0.1-1.7,0.6-3.2,1.4-4.4
	c0.8-1.2,1.7-2.4,2.9-3.5c0.2-0.2,0.3-0.4,0.1-0.8c-0.2-0.3-0.4-0.7-0.7-1c-0.3-0.3-0.6-0.6-0.9-0.7c-0.3-0.2-0.6-0.2-0.8,0
	c-1.4,1.4-2.6,2.8-3.6,4.4c-1,1.6-1.5,3.5-1.7,5.8c-0.1,1.8,0.1,3.5,0.7,5.1c0.6,1.5,1.5,2.8,2.7,3.8c1.2,1,2.5,1.8,4.1,2.2
	c1.6,0.5,3.3,0.5,5.2,0c1.6-0.3,2.9-0.8,4.1-1.6c1.2-0.7,2.3-1.6,3.2-2.6c1-1,1.8-2.1,2.6-3.3c0.8-1.2,1.6-2.4,2.4-3.6
	c0.8-1.3,1.7-2.6,2.5-3.9c0.9-1.3,1.9-2.5,3.1-3.6c1.7-1.5,2.9-2.5,3.8-2.9c0.8-0.4,1.2-0.2,1.2,0.6c0,0.9-0.1,1.9-0.4,3.1
	c-0.2,0.9-0.6,2.4-1.2,4.5c-0.6,2.1-1.4,4.5-2.2,7.4c-1.1,3.5-2.3,7.4-3.7,11.8c-1.3,4.4-2.6,8.9-3.8,13.5c-1.2,4.6-2.2,9.2-3,13.9
	c-0.8,4.6-1.3,8.9-1.3,12.9c-0.1,2.9,0.1,5.6,0.6,8c0.4,2.4,1.2,4.5,2.3,6.2c1.1,1.7,2.5,3.1,4.3,4c1.8,0.9,4,1.4,6.7,1.3
	c2.1-0.1,3.5-0.8,4.3-2.1c0.7-1.3,1.1-3.3,1.1-5.9c0-1,0-2.2,0-3.4c0-1.2-0.1-2.5-0.2-3.9c-0.1-2-0.2-4.1-0.3-6.5
	c-0.1-2.4-0.2-4.9-0.1-7.7c0-2.8,0.2-5.7,0.5-8.7c0.3-3,0.7-6.3,1.4-9.9c1.6-0.1,3.7-0.5,6.5-1.1c2.8-0.6,5.8-1.5,9.1-2.7
	C224.8,201.9,228.2,200.4,231.7,198.6z M378.5,216.9c0-0.6-0.1-1-0.4-1.4c-0.3-0.3-0.6-0.6-1-0.6c-0.4-0.1-0.8,0-1.1,0.3
	c-0.3,0.3-0.6,0.7-0.7,1.3l-0.6,2.6c-0.4,2.1-0.9,4.4-1.5,6.9c-0.5,2.5-1.2,4.8-2,7.2c-0.8,2.3-1.7,4.4-2.8,6.4
	c-1.1,1.9-2.3,3.5-3.8,4.7l0.1,0c-0.6,0.4-1.1,0.7-1.7,1c-0.5,0.3-1,0.4-1.5,0.4s-0.9-0.3-1.3-0.8c-0.4-0.6-0.7-1.5-1.1-2.8
	c-0.3-0.9-0.5-2-0.5-3.1c-0.1-1.2-0.1-2.4-0.1-3.7c0-1.9,0.2-4,0.4-6.2c0.2-2.2,0.6-4.5,0.9-6.9c0.4-2.4,0.8-4.8,1.2-7.2
	c0.4-2.4,0.9-4.7,1.3-7c0.2-1,0.4-1.9,0.6-2.9c0.2-0.9,0.3-1.9,0.5-2.9c1.2-0.3,2.5-0.6,3.9-0.8c1.4-0.2,3-0.3,4.8-0.3
	c1.2-0.3,1.7-0.9,1.6-1.7s-0.6-1.4-1.7-1.8c-1.6,0.2-3,0.4-4.3,0.6c-1.3,0.2-2.5,0.4-3.7,0.7l0.1-0.7c0.3-1.7,0.5-3.3,0.6-4.7
	c0.2-0.7,0-1.5-0.4-2.2c-0.5-0.8-1.1-1.3-1.9-1.7c-0.8-0.4-1.6-0.5-2.4-0.4c-0.9,0.1-1.6,0.6-2.3,1.6c-0.4,1.5-0.8,3.1-1.1,4.9
	c-0.3,1.8-0.6,3.7-1,5.7c-0.5,0.3-1,0.5-1.4,0.8c-0.4,0.2-0.9,0.4-1.3,0.6c-0.6,0.3-1.2,0.6-1.9,0.9c-0.7,0.3-1.4,0.7-2.1,1.1
	c-0.3,0.3-0.6,0.6-0.6,1c-0.1,0.4,0,0.8,0.2,1.1c0.2,0.3,0.6,0.6,1,0.7c0.4,0.2,0.9,0.1,1.4-0.2l4.2-2c-0.3,1.3-0.5,2.4-0.6,3.3
	c-0.1,0.9-0.3,2-0.5,3.5l-0.8,4.3c-0.3,0.1-0.5,0.3-0.6,0.7c-0.1,1.4-0.6,3-1.5,4.8c-0.9,1.8-1.9,3.5-3.1,5.1
	c-1.2,1.6-2.5,2.8-3.9,3.8c-1.4,1-2.7,1.3-3.9,0.9l0.1,0.1c-0.3-0.1-0.5-0.4-0.5-0.9c0-0.5-0.1-1.1-0.1-1.9c0-1.1,0.1-2.4,0.4-3.8
	c0.2-1.5,0.5-2.9,0.8-4.3c0.3-1.4,0.6-2.7,1-3.9c0.3-1.2,0.6-2.2,0.8-2.9c0-0.1,0-0.1,0-0.2c0-0.1,0-0.1,0-0.3
	c0.1-0.4,0.3-0.9,0.5-1.5c0.2-0.6,0.4-1.3,0.5-1.9c0.2-0.6,0.3-1.2,0.3-1.8c0.1-0.5,0-1-0.1-1.3c-0.2-1.2-0.6-2.1-1.2-2.8
	c-0.6-0.6-1.2-0.9-1.8-0.8c-0.2,0.1-0.5,0.3-0.8,0.7c-0.4,0.4-0.8,0.9-1.3,1.4c-0.5,0.5-0.9,1.1-1.4,1.7c-0.4,0.6-0.8,1.1-1.1,1.5
	l0-0.1c-1.1,1.4-2,2.6-2.7,3.7c-0.8,1.1-1.4,2-2,2.9c-0.8,1.1-1.5,2-2.2,2.8c-0.6,0.8-1.3,1.6-2.1,2.4l-0.8,0.7
	c-0.3,0.3-0.5,0.4-0.6,0.5c-0.1,0-0.1-0.3,0-0.9c0.1-0.7,0.1-1.3,0.1-1.6c0-0.3,0.1-0.8,0.2-1.4l0.4-1.9c0.2-0.9,0.3-1.6,0.5-2.2
	c0.1-0.6,0.3-1.1,0.5-1.6l0.9-2.7c-0.1-0.3-0.3-0.8-0.8-1.3c-0.5-0.5-1.1-1-1.7-1.5c-0.6-0.4-1.2-0.8-1.8-1c-0.6-0.2-1-0.2-1.2,0.2
	l0.1-0.2c-0.2,0.3-0.6,1-1,2c-0.4,1-0.8,2.1-1.3,3.3c-0.3,1-0.6,2-0.9,3.1c-0.1,0-0.1-0.1-0.2-0.1c-0.3,0.1-0.7,0.3-1,0.8
	c-0.3,0.5-0.6,1.2-0.8,2.1l0-0.2c-0.3,1.5-0.8,3.3-1.5,5.4c-0.7,2.1-1.5,4.3-2.4,6.4c-0.9,2.1-1.9,4.1-3,5.8c-1.1,1.8-2.1,3-3.1,3.8
	c-0.8,0.6-1.5,0.9-2,0.9c-0.4,0-0.7-0.2-1-0.5c-0.3-0.3-0.4-0.8-0.5-1.3c-0.1-0.5-0.2-1.1-0.2-1.7c0-0.6,0-1.2,0-1.7
	c0.2-1.5,0.5-3,0.9-4.7c0.4-1.6,0.8-3.2,1.2-4.8c0.4-1.4,0.8-2.8,1.2-4.2c0.3-1.4,0.6-2.9,0.9-4.5c0.2-1,0.2-2,0.1-3.1
	c-0.1-1-0.3-1.9-0.6-2.8c-0.3-0.8-0.8-1.5-1.4-2.1c-0.6-0.6-1.3-0.9-2.2-1.1c-1.8-0.2-3.1,0.2-4.1,1.1c-1,1-1.7,2.1-2.3,3.5
	c-0.1,0.2-0.3,0.5-0.4,0.8c-0.1,0.3-0.3,0.6-0.4,0.9l-1.5,3.3c-0.1-0.6-0.2-1.2-0.4-1.9c-0.2-0.7-0.4-1.3-0.7-2l0.1,0.1
	c-0.4-0.9-1.1-1.6-2-1.9c-0.9-0.3-2-0.1-3.2,0.8l0.2,0c-0.2,0.1-0.4,0.2-0.7,0.5c-0.3,0.3-0.6,0.5-0.9,0.8c-0.3,0.3-0.6,0.6-0.9,0.9
	c-0.3,0.3-0.5,0.6-0.6,0.7c-0.3,0.4-0.4,0.8-0.4,1.2c0,0.3,0.1,0.5,0.3,0.7c-0.1,0.1-0.2,0.2-0.2,0.4c-0.2,1.3-0.7,3.1-1.4,5.4
	c-0.7,2.3-1.6,4.7-2.6,7.1c-1,2.4-2.1,4.7-3.3,6.8c-1.2,2.1-2.3,3.6-3.3,4.6l0.1,0c-0.8,0.6-1.4,0.9-1.7,0.9c-0.4,0-0.6-1-0.7-2.9
	c-0.1-1.4-0.2-2.7-0.2-4c0-1.3,0-2.6,0-3.9c0-1.6,0.1-3.2,0.2-4.7c0.1-1.5,0.2-3.2,0.3-4.8c0-0.1,0-0.3,0-0.5c0-0.2,0.1-0.4,0.1-0.7
	c0-0.4,0-0.8,0.1-1.2c0-0.4,0.1-0.8,0.1-1.3c0-1,0-1.9-0.2-2.6c-0.1-0.8-0.4-1.4-1-1.8c-0.2-0.1-0.5-0.3-0.8-0.6
	c-0.4-0.3-0.9-0.6-1.4-0.8c-0.5-0.2-1.1-0.4-1.7-0.4c-0.6,0-1.1,0.1-1.5,0.5c-1.8-1-3.5-1.5-5.1-1.6c-1.7,0-3.1,0.4-4.4,1.4
	c-1.3,1-2.4,2.2-3.3,3.7c-0.9,1.5-1.7,3.1-2.3,4.9c-0.6,1.8-1.1,3.4-1.5,5c-0.2,0.7-0.3,1.6-0.5,2.6c-0.1,0.9-0.2,1.7-0.2,2.5
	c0,0,0,0.1-0.1,0.1c-0.8,1.3-1.8,2.5-2.8,3.6c-1,1.1-2.1,2-3.3,2.7c-1.2,0.7-2.3,1-3.4,1c-1,0-2-0.4-2.9-1.3
	c-0.9-0.8-1.6-2.3-2.2-4.3c-0.1-0.3-0.2-0.8-0.4-1.4c-0.1-0.7-0.2-1.4-0.4-2.1c2.1-0.7,3.9-1.7,5.5-3c1.6-1.3,2.8-3.1,3.6-5.6
	c0.3-0.9,0.5-1.7,0.5-2.6c0-0.9,0-1.8-0.1-2.8c-0.4-1.6-1.1-2.9-2.2-4.1c-1.1-1.2-2.7-1.8-4.9-1.8c-0.5,0-1,0-1.5,0.1
	c-0.5,0.1-1,0.2-1.5,0.3c-1.6,0.3-2.8,1.2-3.8,2.7c-1,1.5-1.6,2.9-1.9,4.4l0.1-0.1c-1,2.8-1.6,5.8-1.6,9c0,1.7,0.1,3.3,0.4,5
	c0.3,1.6,0.7,3.2,1.3,4.5c0.8,1.7,1.8,3,2.8,4c1,1,2.1,1.7,3.1,2.3c1.1,0.5,2.2,0.8,3.2,0.9c1.1,0.1,2.1,0.1,3-0.1
	c1.6-0.2,3.1-0.8,4.5-1.7c1.4-0.9,2.8-2,4-3.3c0.5-0.5,1-1.1,1.5-1.7c0,0.1,0,0.2,0.1,0.2c0.5,1.5,1.6,2.6,3.1,3.4
	c0.7,0.3,1.4,0.4,2.1,0.4c0.7,0,1.4-0.2,2-0.4c0.6-0.2,1.2-0.6,1.7-0.9c0.5-0.4,0.9-0.7,1.2-1.1c1.1-1.7,2-3.5,2.8-5.3
	c0.8-1.8,1.5-3.4,2-4.9c0.1-0.1,0.1-0.3,0.1-0.4c0-0.2,0.1-0.3,0.2-0.4c-0.1,0.3-0.1,0.6-0.1,0.8s0,0.4,0,0.6
	c-0.1,0.8-0.1,1.6-0.1,2.4c0,0.8,0,1.5,0,2.3c0,1.7,0,3.3,0.1,5c0.1,1.7,0.3,3.4,0.8,5.2c0.4,0.9,1.3,1.8,2.8,2.5
	c1.5,0.7,2.9,1.1,4.4,1.2c0.6,0,1.2-0.1,1.8-0.2c0.5-0.2,1-0.4,1.3-0.8l0,0.1c1.4-1.4,2.8-3.3,4.1-5.6c1.4-2.3,2.6-4.7,3.7-7.3
	c1.1-2.6,2.1-5.1,2.9-7.6c0.7-2.1,1.2-3.9,1.5-5.6c0,0.2,0,0.3,0,0.5c0,0.2-0.1,0.7-0.2,1.5c-0.2,0.7-0.3,1.5-0.5,2.3
	c-0.2,0.8-0.4,1.6-0.5,2.3c-0.2,0.7-0.2,1.2-0.2,1.3c0.1,0.4,0.4,0.8,0.9,1.2c0.5,0.4,1,0.8,1.6,1.1c0.6,0.3,1.2,0.5,1.8,0.7
	c0.6,0.2,1.1,0.1,1.5,0l-0.1,0.1c0.6-0.2,1.1-0.6,1.5-1.4c0.4-0.8,0.7-1.7,1.2-2.8l2.4-7.2v0.1c0.4-0.7,0.7-1.4,0.9-1.8
	c0.2-0.5,0.4-0.9,0.6-1.2c0.2-0.3,0.4-0.7,0.5-1c0.2-0.3,0.4-0.7,0.6-1.1c0-0.1,0.1-0.3,0.2-0.6c0.1-0.3,0.3-0.6,0.5-0.9
	c0.2-0.3,0.3-0.5,0.5-0.7c0.1-0.2,0.3-0.2,0.4-0.1c0.2,0.1,0.2,0.4,0.2,0.8c0,0.4-0.1,0.9-0.2,1.5c-0.1,0.6-0.3,1.2-0.5,1.8
	c-0.2,0.6-0.4,1.2-0.6,1.8c-0.1,0.2-0.1,0.4-0.2,0.5c-0.1,0.1-0.1,0.2-0.2,0.4l0-0.1l-1.1,3.3l0.1,0c-0.7,2.1-1.5,4.4-2.2,6.8
	c-0.7,2.4-1.1,4.8-1.2,7.2c0,1.3,0.1,2.6,0.4,3.9c0.4,1.9,1.2,3.3,2.3,4.1c1.1,0.9,2.4,1.3,3.9,1.3c1.5,0,3-0.4,4.5-1.2
	c1.5-0.8,2.9-2,4-3.5c0.8-1,1.6-2.4,2.6-4.3c0.9-1.8,1.9-3.8,2.7-5.9c0.9-2.1,1.6-4.2,2.3-6.2c0-0.1,0-0.2,0.1-0.2
	c0.1,0.5,0.3,0.9,0.5,1.3c0.7,1.4,2,2.2,3.9,2.6c0.9,0,1.8-0.2,2.7-0.6c0.9-0.4,1.7-1,2.5-1.7c0.8-0.7,1.6-1.5,2.3-2.4
	c0.7-0.9,1.5-1.8,2.2-2.7l0.3-0.3c-0.3,1.8-0.6,3.4-0.8,4.8c-0.2,1.4-0.4,2.8-0.4,4.1c0,1.6,0.1,3,0.4,4.2c0.3,1.3,1,2.3,2.2,2.9
	c1.2,0.6,2.5,0.9,3.8,1c2-0.2,3.9-0.9,5.7-2.2c1.9-1.3,3.5-2.8,5-4.6c0.5-0.6,0.9-1.2,1.3-1.7c0,0,0,0.1,0,0.1
	c-0.3,2.6-0.4,5-0.5,7.2c0,2.2,0,4.1,0.2,5.7c0.2,1.6,0.6,3,1,4c1,2.2,2.1,3.8,3.3,4.7c1.2,0.9,2.5,1.4,3.8,1.4
	c1.3,0,2.6-0.3,3.9-1.1c1.3-0.7,2.5-1.6,3.5-2.5c1.8-1.6,3.4-3.7,4.6-6.2c1.3-2.5,2.3-5.1,3.2-7.8c0.9-2.7,1.6-5.5,2.1-8.3
	C377.7,221.8,378.1,219.2,378.5,216.9z M390.9,167.2c0-0.4-0.1-0.8-0.3-1.1c-0.2-0.3-0.5-0.5-0.8-0.6c-0.3-0.1-0.6-0.1-1,0.1
	c-0.3,0.1-0.6,0.4-0.8,0.8c-0.3,1.9-0.6,3.6-1,5.2c-0.3,1.5-0.8,3-1.3,4.4V176c-0.4,1.1-1,2.2-1.8,3.4c-0.8,1.2-1.6,2.2-2.5,3.2
	c-0.9,1-1.9,1.8-3,2.5c-1.1,0.6-2.1,0.9-3.1,0.9c-0.9,0-1.8-0.4-2.6-1.2c-0.8-0.8-1.5-2.1-2-3.9c-0.1-0.3-0.2-0.7-0.3-1.3
	c-0.1-0.6-0.2-1.2-0.3-1.9c1.9-0.6,3.6-1.5,5-2.7c1.5-1.1,2.5-2.8,3.3-5.1c0.3-0.8,0.4-1.6,0.5-2.3c0-0.8,0-1.6-0.1-2.5
	c-0.3-1.4-1-2.7-2-3.7c-1-1.1-2.5-1.6-4.5-1.6c-0.5,0-0.9,0-1.4,0.1c-0.4,0.1-0.9,0.2-1.4,0.3c-1.4,0.3-2.6,1.1-3.5,2.4
	c-0.9,1.3-1.5,2.7-1.7,4l0.1-0.1c0,0.1-0.1,0.3-0.1,0.4c0,0,0,0-0.1,0c-0.4,0-0.7,0-1.1,0.1c-0.3,0.1-0.5,0.3-0.6,0.6l-0.2,0.5
	c-0.3,1-0.8,2.4-1.5,4.1c-0.7,1.8-1.4,3.5-2.2,5.2c-0.8,1.7-1.7,3.2-2.6,4.4c-0.9,1.2-1.7,1.9-2.5,1.8c-0.6,0-1.2-0.7-1.8-2
	c-0.5-1.5-1-3.3-1.4-5.3c-0.4-2-0.5-4.2-0.5-6.6c0-2.6,0.3-5.3,0.8-8.1c1.8-1.1,3.6-2.4,5.4-3.9s3.3-3.2,4.8-5
	c1.4-1.8,2.7-3.7,3.9-5.7c1.1-2,2.1-3.9,2.8-5.8c0.3-0.8,0.6-1.8,0.8-2.9c0.2-1.1,0.4-2.2,0.4-3.4c0-1.1-0.1-2.2-0.3-3.2
	c-0.2-1-0.6-2-1.1-2.7c-0.5-0.8-1.2-1.4-2.1-1.8c-0.9-0.4-1.9-0.5-3.1-0.4c-1.4,0.3-2.8,1-4,2.1c-1.3,1.1-2.5,2.4-3.6,4
	c-1.1,1.6-2.1,3.4-3,5.4c-0.9,2-1.8,4-2.6,6c-0.8,2-1.5,4-2.1,6c-0.6,1.9-1.2,3.7-1.6,5.3c-0.6,2-1,4-1.2,6.2
	c-0.2,1.4-0.3,2.7-0.4,4.1c-0.2,0-0.4,0.1-0.6,0.2c-0.3,0.2-0.5,0.6-0.6,1.2l-0.5,2.3c-0.4,1.9-0.8,4-1.3,6.2
	c-0.5,2.2-1.1,4.4-1.8,6.5c-0.7,2.1-1.6,4-2.5,5.8c-1,1.8-2.1,3.2-3.4,4.3l0.1,0c-0.5,0.4-1,0.7-1.5,0.9c-0.5,0.3-0.9,0.4-1.3,0.4
	c-0.4,0-0.8-0.3-1.2-0.8c-0.4-0.5-0.7-1.4-1-2.6c-0.2-0.8-0.4-1.8-0.5-2.8c-0.1-1-0.1-2.2-0.1-3.4c0-1.7,0.2-3.6,0.4-5.6
	c0.2-2,0.5-4.1,0.9-6.3c0.4-2.2,0.7-4.3,1.1-6.5c0.4-2.2,0.8-4.3,1.2-6.3c0.2-0.9,0.4-1.8,0.6-2.6c0.1-0.9,0.3-1.7,0.5-2.6
	c1.1-0.3,2.2-0.5,3.5-0.7c1.3-0.2,2.8-0.3,4.4-0.2c1-0.3,1.5-0.8,1.5-1.5c-0.1-0.7-0.6-1.3-1.6-1.7c-1.4,0.2-2.7,0.4-3.9,0.5
	c-1.2,0.2-2.3,0.4-3.3,0.6l0.1-0.6c0.3-1.6,0.5-3,0.5-4.3c0.2-0.7,0-1.4-0.4-2c-0.4-0.7-1-1.2-1.7-1.6c-0.7-0.4-1.4-0.5-2.2-0.4
	c-0.8,0.1-1.5,0.6-2.1,1.4c-0.4,1.4-0.7,2.8-1,4.5c-0.3,1.6-0.6,3.4-0.9,5.2c-0.5,0.3-0.9,0.5-1.3,0.7c-0.4,0.2-0.8,0.4-1.1,0.5
	c-0.5,0.3-1.1,0.5-1.7,0.8c-0.6,0.3-1.3,0.6-1.9,1c-0.3,0.3-0.5,0.6-0.6,0.9c-0.1,0.4,0,0.7,0.2,1c0.2,0.3,0.5,0.5,0.9,0.6
	c0.4,0.1,0.8,0.1,1.3-0.2l3.8-1.8c-0.3,1.2-0.5,2.2-0.6,3c-0.1,0.8-0.3,1.9-0.5,3.2l-0.6,3.2c-0.2,0.2-0.4,0.6-0.5,1l-0.5,2.3
	c-0.4,1.9-0.8,4-1.3,6.2c-0.5,2.2-1.1,4.4-1.8,6.5c-0.7,2.1-1.6,4-2.5,5.8c-1,1.8-2.1,3.2-3.4,4.3l0.1,0c-0.5,0.4-1,0.7-1.5,0.9
	c-0.5,0.3-0.9,0.4-1.3,0.4c-0.4,0-0.8-0.3-1.2-0.8c-0.4-0.5-0.7-1.4-1-2.6c-0.2-0.8-0.4-1.8-0.5-2.8c-0.1-1-0.1-2.2-0.1-3.4
	c0-1.7,0.2-3.6,0.4-5.6c0.2-2,0.5-4.1,0.9-6.3c0.4-2.2,0.7-4.3,1.1-6.5c0.4-2.2,0.8-4.3,1.2-6.3c0.2-0.9,0.4-1.8,0.6-2.6
	c0.1-0.9,0.3-1.7,0.5-2.6c1.1-0.3,2.2-0.5,3.5-0.7c1.3-0.2,2.8-0.3,4.4-0.2c1-0.3,1.5-0.8,1.5-1.5c-0.1-0.7-0.6-1.3-1.6-1.7
	c-1.4,0.2-2.7,0.4-3.9,0.5c-1.2,0.2-2.3,0.4-3.3,0.6l0.1-0.6c0.3-1.6,0.5-3,0.5-4.3c0.2-0.7,0-1.4-0.4-2c-0.4-0.7-1-1.2-1.7-1.6
	c-0.7-0.4-1.4-0.5-2.2-0.4c-0.8,0.1-1.5,0.6-2.1,1.4c-0.4,1.4-0.7,2.8-1,4.5c-0.3,1.6-0.6,3.4-0.9,5.2c-0.5,0.3-0.9,0.5-1.3,0.7
	c-0.4,0.2-0.8,0.4-1.1,0.5c-0.5,0.3-1.1,0.5-1.7,0.8c-0.6,0.3-1.3,0.6-1.9,1c-0.3,0.3-0.5,0.6-0.6,0.9c-0.1,0.4,0,0.7,0.2,1
	c0.2,0.3,0.5,0.5,0.9,0.6c0.4,0.1,0.8,0.1,1.3-0.2l3.8-1.8c-0.3,1.2-0.5,2.2-0.6,3c-0.1,0.8-0.3,1.9-0.5,3.2l-0.7,3.7
	c-0.1,0.1-0.2,0.3-0.3,0.5l-0.5,2.3c-0.3,1.1-0.6,2.3-0.9,3.5c-0.3,1.2-0.7,2.4-1.2,3.4c-0.5,1.1-1.1,2-1.8,2.7
	c-0.7,0.7-1.6,1.2-2.6,1.4l0.1,0c-0.3,0-0.6,0.1-1.1,0c-0.4,0-0.9-0.1-1.3-0.3c-0.4-0.2-0.8-0.4-1.2-0.8c-0.3-0.4-0.5-0.9-0.6-1.6
	c0-0.7,0-1.4,0.2-2.1c0.2-0.7,0.4-1.4,0.7-2c0.3-0.7,0.5-1.4,0.7-2.1c0.2-0.6,0.3-1.3,0.3-1.8c0-1.1-0.3-2.1-1.1-3
	c-0.7-0.9-2.1-1.6-4.2-2.2v0.1l-1.6-0.4c-0.3-0.1-0.5-0.1-0.7-0.1c-0.2,0-0.5-0.1-0.8-0.2c-0.7,0-1.2,0.3-1.5,1
	c-0.3,0.7-0.1,1.4,0.6,2l0.5,0.2c0.2,0,0.3,0.1,0.5,0.1c0,0.1-0.1,0.1-0.1,0.2l-0.2,0.5c-0.3,1-0.8,2.4-1.5,4.1
	c-0.7,1.8-1.4,3.5-2.2,5.2c-0.8,1.7-1.7,3.2-2.6,4.4c-0.9,1.2-1.7,1.9-2.5,1.8c-0.6,0-1.2-0.7-1.8-2c-0.5-1.5-1-3.3-1.4-5.3
	c-0.4-2-0.5-4.2-0.5-6.6c0-2.6,0.3-5.3,0.8-8.1c1.8-1.1,3.6-2.4,5.4-3.9s3.3-3.2,4.8-5c1.4-1.8,2.7-3.7,3.9-5.7
	c1.1-2,2.1-3.9,2.8-5.8c0.3-0.8,0.6-1.8,0.8-2.9c0.2-1.1,0.4-2.2,0.4-3.4c0-1.1-0.1-2.2-0.3-3.2c-0.2-1-0.6-2-1.1-2.7
	c-0.5-0.8-1.2-1.4-2.1-1.8c-0.9-0.4-1.9-0.5-3.1-0.4c-1.4,0.3-2.8,1-4,2.1c-1.3,1.1-2.5,2.4-3.6,4c-1.1,1.6-2.1,3.4-3,5.4
	c-0.9,2-1.8,4-2.6,6c-0.8,2-1.5,4-2.1,6c-0.6,1.9-1.2,3.7-1.6,5.3c-0.6,2-1,4-1.2,6.2c-0.3,2.1-0.4,4.3-0.5,6.3
	c-0.1,3,0.1,5.8,0.6,8.4c0.4,2.6,1.1,4.8,1.9,6.7c1,2.2,2,3.8,3.1,4.8c1.1,1,2.1,1.5,3.2,1.5c1.4,0,2.6-0.6,3.9-2
	c1.2-1.4,2.4-3.1,3.5-5.2c0.9-1.8,1.8-3.7,2.7-5.8c0,0.4,0.1,0.8,0.2,1.2c0.3,1.2,0.8,2.2,1.5,3.1c0.7,0.8,1.5,1.5,2.5,2
	c0.9,0.5,1.9,0.9,2.9,1.1c1,0.2,1.9,0.3,2.8,0.3c1.9-0.1,3.4-0.6,4.7-1.6c0.6-0.5,1.1-1,1.6-1.6c-0.1,1-0.1,2-0.1,2.9
	c0,2,0,3.7,0.2,5.2c0.2,1.5,0.5,2.7,1,3.7c0.9,2,1.9,3.4,3,4.2c1.1,0.8,2.3,1.3,3.5,1.3c1.2,0,2.4-0.3,3.6-1
	c1.2-0.7,2.3-1.4,3.2-2.3c1.6-1.5,3-3.4,4.2-5.6c0.6-1.1,1.1-2.2,1.5-3.3c0,1.1,0.1,2.1,0.2,3c0.2,1.5,0.5,2.7,1,3.7
	c0.9,2,1.9,3.4,3,4.2c1.1,0.8,2.3,1.3,3.5,1.3c1.2,0,2.4-0.3,3.6-1c1.2-0.7,2.3-1.4,3.2-2.3c1.6-1.5,3-3.4,4.2-5.6
	c1.2-2.3,2.1-4.6,2.9-7.1c0.7-2.4,1.3-4.7,1.8-7.1c0.1,0.5,0.1,1,0.2,1.5c0.4,2.6,1.1,4.8,1.9,6.7c1,2.2,2,3.8,3.1,4.8
	c1.1,1,2.1,1.5,3.2,1.5c1.4,0,2.6-0.6,3.9-2c1.2-1.4,2.4-3.1,3.5-5.2c1.1-2.1,2.2-4.4,3.1-7c0-0.1,0.1-0.2,0.1-0.3
	c0,1.5,0.1,3,0.4,4.5c0.3,1.5,0.7,2.9,1.2,4.1c0.8,1.5,1.6,2.7,2.5,3.6c0.9,0.9,1.9,1.6,2.9,2c1,0.5,2,0.7,2.9,0.8s1.9,0.1,2.7-0.1
	c1.4-0.2,2.8-0.7,4.1-1.5c1.3-0.8,2.5-1.8,3.7-3c1.1-1.2,2.1-2.4,3-3.8c0.9-1.4,1.6-2.8,2.1-4.1c0.7-1.7,1.2-3.3,1.5-4.9
	C390.2,170.7,390.5,169,390.9,167.2z M375.4,169.1c0.2-0.6,0.4-1.2,0.4-1.9c0.1-0.7,0-1.4-0.3-2.1c-0.1-0.7-0.5-1.3-1.2-1.8
	c-0.6-0.5-1.3-0.5-1.9,0l-0.1,0c-0.9,0.6-1.5,1.6-1.8,3.3c-0.3,1.6-0.5,3.3-0.5,5.2c0,0.7,0,1.2-0.1,1.4c0,0.3,0,0.7,0,1.4
	c1.3-0.6,2.4-1.2,3.3-2C374.2,171.8,374.9,170.6,375.4,169.1z"/>
</svg>
