<?xml version="1.0" encoding="utf-8"?>
<!-- Generator: Adobe Illustrator 18.0.0, SVG Export Plug-In . SVG Version: 6.00 Build 0)  -->
<!DOCTYPE svg PUBLIC "-//W3C//DTD SVG 1.1//EN" "http://www.w3.org/Graphics/SVG/1.1/DTD/svg11.dtd">
<svg version="1.1" id="Layer_1" xmlns="http://www.w3.org/2000/svg" xmlns:xlink="http://www.w3.org/1999/xlink" x="0px" y="0px"
	 viewBox="0 0 432 432" enable-background="new 0 0 432 432" xml:space="preserve">
<path fill="#010101" d="M80.5,160.7v95.4c0,1.3,0.6,2,1.9,2.1c2.2,0.1,3.8,0.4,4.6,0.9c1.8,1,2.6,2.4,2.6,4.4c0,2.5-2.1,3.7-6.2,3.7
	h-26c-3.8,0-5.7-1.3-5.7-4c0-3.4,2.1-5.1,6.2-5.1c1.4,0,2.4-0.2,2.9-0.6c0.6-0.4,0.9-1.1,0.9-2v-94.2c0-1.7-0.8-2.6-2.5-2.7
	c-2.3-0.1-3.9-0.4-4.8-0.8c-1.8-0.9-2.7-2.4-2.7-4.4c0-2.5,2.1-3.7,6.2-3.7h26.3c4.1,0,6.2,1.2,6.2,3.7c0,2-0.9,3.5-2.7,4.4
	c-0.9,0.5-2.6,0.7-5.1,0.8C81.2,158.7,80.5,159.4,80.5,160.7z M127.1,152.3c-8.8,0-15.8,2.1-21,6.4c-2.7,2.2-4.8,4.8-6.3,7.9
	c-2.1,4.4-3.2,9.4-3.2,14.9c0,8.1,2.5,15.4,7.5,22c3.4,4.6,8.4,9.7,15.1,15.4c2.4,2.1,4.7,4.1,6.7,6c4.5,4.3,6.7,8.3,6.7,12
	c0,5.8-3.1,8.7-9.2,8.7c-5.5,0-9-2.5-10.5-7.4c-0.7-2.1-1-4.1-1-6.1c0-3.3-1.5-5-4.6-5c-1.7,0-3.1,0.6-4.1,1.9
	c-1,1.2-1.5,2.8-1.5,4.6c0,6.5,1.6,11.7,4.9,15.4c4.1,4.6,10.1,6.9,17.8,6.9c8.9,0,15.6-2.3,20.3-7c3.6-3.5,5.3-8.1,5.3-13.6
	c0-6-2.6-11.8-7.9-17.6c-2.4-2.6-5.1-5.1-8-7.6c-7-5.9-11.9-10.9-14.8-15.1c-3.1-4.6-4.7-9.4-4.7-14.6c0-5.4,1.1-9.7,3.2-13
	c2.6-3.9,6.3-5.9,11.2-5.9c6.7,0,11.1,3.5,13.3,10.5c0.9,3.1,1.4,6.6,1.4,10.3c0,5-0.6,9.8-1.8,14.6c-0.2,0.7-0.2,1.3-0.2,2
	c0,2.5,1.4,3.7,4.2,3.7c3.1,0,5.4-2.5,6.7-7.4c1-3.6,1.5-7.9,1.5-12.9C154.4,162.4,145.3,152.3,127.1,152.3z M242.2,158.2
	c-1.3-0.6-2.8-1-4.5-1.2c-1.8-0.2-3.3-0.2-4.8-0.2h-32.3c-1.4,0-3,0.1-4.8,0.2c-1.8,0.2-3.3,0.5-4.5,1.2c-1.3,0.6-1.9,1.7-1.9,3.1
	c0,0.9,0.7,1.7,2,2.5c1.3,0.8,3.2,1.1,5.8,1.1h8.4c1.2,0,1.8,0.5,1.8,1.4v68.1c0,2.8,0.3,4.8,0.9,6.1c0.4,0.9,1.1,1.7,1.9,2.3
	c1.2,1,3.3,1.5,6.2,1.5c6.5,0,9.8-3.2,9.8-9.5v-68.5c0-0.9,0.6-1.4,1.9-1.4h8.3c2.5,0,4.4-0.4,5.8-1.1c1.3-0.8,2-1.6,2-2.5
	C244.1,159.9,243.5,158.9,242.2,158.2z M304.9,152.1c-2.2,0-3.7,0.7-4.5,2.2c-0.8,1.4-1.2,3.5-1.2,6.3v55.5c0,1.9-1.1,2.9-3.2,2.9
	l-24.2,0.1c-2.1,0-3.2-1-3.2-3v-53c0-3.4-0.8-6-2.4-8c-1.6-2-4.1-2.9-7.5-2.9c-4.9,0-7.8,2-8.5,6c-0.4,1.8-0.5,3.6-0.5,5.5V243
	c0,2.9,0.3,5.1,0.8,6.6c0.5,1.3,1.2,2.3,2.2,3.2c1.2,1.1,3.3,1.7,6.1,1.7c3.8,0,6.5-1.3,8.2-3.9c1.1-1.8,1.7-4.1,1.7-7V230
	c0-1.5,1.1-2.2,3.2-2.2l24.2-0.1c2.2,0,3.2,0.8,3.2,2.3v16.1c0,2.7,0.4,4.7,1.2,6.2c0.8,1.5,2.3,2.2,4.5,2.2c4.4,0,6.6-2.8,6.6-8.4
	v-85.6C311.5,154.9,309.3,152.1,304.9,152.1z M380,257.7c-1-0.6-2.2-0.9-3.5-0.9c-2,0-4,0.1-6,0.3c-2,0.2-4,0.3-6,0.3
	c-6.3,0-10.6-1.6-12.8-4.7c-1.4-2.1-2.1-5-2.1-8.8v-3.6c0-2.2,1.2-3.2,3.7-3.2l16,0.2c1.9,0,3.3-0.4,4.3-1.3c1-0.9,1.5-1.9,1.5-3.2
	c0-2.2-0.8-3.7-2.3-4.6c-1.3-0.8-3.2-1.2-5.9-1.2c-2.2,0-4.3,0.1-6.5,0.2c-2.2,0.1-4.4,0.2-6.5,0.2c-1.4,0-2.5-0.3-3.2-1
	c-0.7-0.7-1.1-2.2-1.1-4.6v-54.8c0-4.1,1.8-6.2,5.5-6.2c2,0,3.9,0,5.9,0.1c2,0.1,4,0.1,5.9,0.1c2.7,0,4.8-0.6,6.1-1.7
	c1.3-1.1,2-2.3,2-3.5c0-3.3-2.1-5.3-6.4-5.8c-1.8-0.2-3.3-0.3-4.8-0.3H343c-6.1,0-9.8,2.5-11.3,7.5c-0.7,2.4-1,5.2-1,8.6v64.8
	c0,5,0.2,9.8,0.6,14.3c0.9,10,4.9,16.9,11.9,20.7c3.9,2.1,9.4,3.1,16.4,3.1c8,0,13.7-0.7,17-2.1c3.3-1.4,4.9-3.4,4.9-5.9
	C381.5,259.3,381,258.3,380,257.7z"/>
<path fill="#B09856" d="M138.8,144.1c-1.2,0.9-2.3,1.3-3.5,1.3c-1.2,0-2.2-0.3-3.2-0.9c-0.9-0.5-1.6-1.2-2.3-2.1
	c-0.7-0.8-1.3-1.7-1.8-2.7c-0.5-0.9-0.9-1.9-1.1-2.8c-0.3-0.9-0.4-1.7-0.4-2.3c0-0.9,0.2-2.4,0.4-4.4c0.3-2,0.6-4.3,1-7.1
	c0.4-2.7,0.8-5.7,1.3-8.9s0.9-6.6,1.3-10.1c0.4-3.5,0.8-7,1.1-10.6c0.3-3.6,0.5-7,0.6-10.3c0.1-3.3,0-6.4-0.2-9.3
	c-0.2-2.9-0.6-5.4-1.2-7.6c-0.6-2.1-1.5-3.9-2.5-5.1c-1.1-1.3-2.4-1.9-4.1-1.9c-0.9,0-1.7,0.5-2.6,1.6c-0.8,1.1-1.7,2.5-2.5,4.2
	c-0.8,1.7-1.6,3.7-2.3,5.9c-0.7,2.2-1.4,4.5-2,6.8c-0.5,1.9-1,3.8-1.3,5.6c0,3.6-0.1,7-0.4,10.3c-0.2,3.3-0.5,6.2-0.7,8.6
	c-0.2,2-0.5,3.6-0.9,4.8c-0.3,1.3-0.8,2.3-1.4,3.1c-0.4,0.7-0.9,1.3-1.5,1.7c-0.6,0.4-1.2,0.7-1.9,0.9c-0.7,0.2-1.5,0.3-2.3,0.3
	c-0.8,0-1.8,0-2.7,0c-0.2,0-0.3-0.6-0.3-1.9c0-1.3,0-3,0-5.1c0-2.1,0.1-4.5,0.1-7.2c0-2.7,0-5.4-0.1-8.2c-0.1-2.8-0.3-5.5-0.6-8.2
	c-0.3-2.7-0.8-5.1-1.4-7.2c-0.6-2.1-1.5-3.8-2.5-5.1c-1-1.3-2.3-2-3.9-2c-1.1,0-2.2,0.5-3.1,1.7c-0.9,1.1-1.7,2.7-2.4,4.6
	c-0.7,1.9-1.3,4.1-1.9,6.6c-0.6,2.5-1.1,5.1-1.6,7.8c0.4,3,0.7,6.1,0.9,9.2c0.2,3.1,0.3,6.1,0.3,9.1c0,3-0.2,5.8-0.4,8.5
	c-0.3,2.7-0.7,5.2-1.1,7.4c-0.4,1.6-0.8,3.1-1.3,4.6c-0.5,1.5-1.3,2.7-2.2,3.7c-0.9,1-2.1,1.7-3.6,2.1c-1.5,0.4-3.4,0.3-5.7-0.3
	c0.3-1.9,0.6-3.7,0.7-5.4c0.2-1.8,0.3-3.6,0.3-5.4c0.1-4.2-0.2-8.4-0.9-12.7c-0.7-4.3-1.6-8.5-2.6-12.5c-1.1-4.1-2.2-7.9-3.5-11.5
	c-1.3-3.6-2.5-6.9-3.6-9.7c-1.1-2.8-2-5.2-2.7-7.1c-0.7-1.9-1.1-3.1-1.1-3.7c0-0.8,0.5-1.5,1.4-2.3c0.9-0.7,2-1.3,3.2-1.8
	c1.2-0.5,2.5-0.9,3.7-1.2c1.2-0.3,2.2-0.5,2.8-0.4c1.6,0,3.1,0.6,4.5,1.6c1.4,1.1,2.6,2.5,3.8,4.3s2.2,4,3.1,6.5
	c0.9,2.5,1.7,5.2,2.4,8.1c0.8-3.8,1.7-7.5,2.8-10.9c1.1-3.4,2.4-6.4,4-8.9c1.6-2.5,3.4-4.5,5.6-5.9c2.1-1.4,4.6-2.1,7.5-2.1
	c1.1,0,2.1,0.3,3.2,1c1,0.6,2,1.6,2.9,2.9c0.9,1.3,1.8,3,2.5,4.9s1.3,4.3,1.8,7c0.1,0.7,0.2,1.4,0.3,2.1s0.2,1.5,0.2,2.3
	c0.7-3,1.4-5.6,2-7.7c0.6-2.2,1.2-4,1.8-5.6c0.6-1.6,1.2-2.9,1.8-3.9c0.6-1.1,1.2-2,1.8-2.7c1.2-1.4,2.5-2.5,4-3.4
	c1.4-0.9,2.9-1.6,4.5-1.9c1.5-0.4,3.1-0.5,4.6-0.4c1.5,0.1,3,0.5,4.4,1.1c2.5,1.2,4.5,3,6,5.4c1.5,2.4,2.7,5.2,3.5,8.5
	c0.8,3.3,1.3,6.9,1.4,10.8c0.2,4,0.1,8.1-0.2,12.4c-0.3,4.3-0.7,8.7-1.3,13.2c-0.6,4.5-1.3,8.9-2.1,13.2c-0.8,4.3-1.6,8.5-2.4,12.4
	c-0.8,4-1.6,7.6-2.2,10.9c-0.4,2.1-0.7,3.9-1.1,5.6C139.3,141.2,139.1,142.7,138.8,144.1z M149.1,111.7c-0.2-2.6-0.2-5.1,0-7.7
	c0.2-2.5,0.4-5,0.7-7.5c0.3-2.5,0.5-4.9,0.8-7.4c0.3-2.5,0.4-4.9,0.5-7.4c0.7-0.5,1.5-0.8,2.5-0.8c1,0,2,0.2,3,0.6
	c1,0.4,1.8,1,2.6,1.9c0.7,0.8,1.2,1.9,1.3,3.1c-0.3,2-0.6,4-0.9,6.3c-0.3,2.2-0.6,4.5-0.8,6.8c0,0.3-0.1,1-0.2,2s-0.1,2.1-0.1,3.3
	c0,1.2,0,2.5,0,3.8c0,1.3,0.1,2.5,0.3,3.6c0.2,1.1,0.4,1.9,0.7,2.5c0.3,0.6,0.7,0.9,1.3,0.7c0.8-0.3,2-1.7,3.4-4
	c0.7-1.2,1.6-2.7,2.5-4.6c1-1.9,2.1-4.3,3.4-7.3c0.3-2.7,0.5-5.1,0.6-7.3c0.1-2.2,0.2-4,0.3-5.3c0-0.3,0-0.7,0-1c0-0.3,0-0.7,0-1
	c0.6-0.6,1.4-1,2.5-1.3c1-0.3,2-0.3,3-0.2c1,0.2,1.9,0.6,2.6,1.2c0.8,0.7,1.3,1.6,1.4,2.9c0,0.1,0,0.7,0,1.7c0,1,0,2.3,0.1,3.9
	c0,1.6,0,3.3,0.1,5.2c0,1.9,0,3.8,0.1,5.6c0,1.9,0,3.6,0,5.2c0,1.6,0,2.9,0,3.9l0.2-0.2c0.7-1,1.5-2.2,2.4-3.7
	c0.9-1.5,1.8-3.1,2.7-4.8c0.9-1.7,1.8-3.4,2.7-5.2c0.9-1.8,1.8-3.4,2.5-5c0.3-0.2,0.6-0.4,0.8-0.4c0.3,0,0.5,0,0.7,0.1
	c0.2,0.1,0.4,0.3,0.5,0.4c0.1,0.2,0.1,0.4,0.1,0.6l-0.1,0c-1.4,2.8-3.1,6.2-5,10.2c-2,4-4.5,8.4-7.5,13.2c-0.1,1.6-0.1,3.1-0.2,4.5
	c-0.1,1.4-0.2,2.8-0.2,4c-0.1,1.2-0.1,2.2-0.2,3c0,0.8-0.1,1.5-0.1,1.8c-0.1,1.9-0.3,4-0.5,6.3c-0.2,2.3-0.4,4.6-0.7,7
	c-0.3,2.4-0.7,4.8-1.2,7.1c-0.5,2.4-1.1,4.6-1.9,6.8c-0.8,2.2-1.7,4.1-2.7,5.9c-1.1,1.8-2.3,3.3-3.8,4.5c-1.6,1.3-3.1,2.1-4.5,2.5
	c-1.4,0.4-2.8,0.4-4.1,0.1c-1.7-0.4-3-1.3-4-2.5c-1-1.2-1.7-2.6-2.2-4.2c-0.5-1.6-0.8-3.2-0.8-4.9c0-1.7,0.1-3.2,0.3-4.5
	c0.5-2.7,1.2-5.4,2.3-8c1-2.6,2.1-5,3.2-7.1c0.9-1.8,1.9-3.6,3-5.3c1-1.7,2.1-3.3,3.1-4.7c0.9-1.2,1.7-2.4,2.6-3.4
	c0.8-1,1.6-1.9,2.4-2.7c0-3,0-6.2,0-9.5c0-3.3,0-6.5,0-9.5c-0.5,1.1-1.2,2.4-1.9,3.9c-0.7,1.5-1.6,3-2.5,4.6c-0.6,1-1.3,1.9-2,2.8
	c-0.7,0.9-1.5,1.7-2.3,2.3c-0.8,0.7-1.7,1.2-2.7,1.5c-1,0.4-2,0.5-3.2,0.4c-0.8,0-1.5-0.3-2.3-0.8c-0.7-0.5-1.4-1.1-2-1.9
	c-0.6-0.8-1.1-1.8-1.5-2.9S149.3,113.1,149.1,111.7z M170.3,128.9c-1.1,1.3-2.1,2.5-3,3.6c-0.8,1.1-1.6,2.2-2.3,3.1
	c-0.7,1-1.3,1.9-1.8,2.9c-0.5,0.9-1,1.8-1.5,2.8c-0.3,0.6-0.6,1.3-1,2.2c-0.4,0.9-0.8,1.8-1.3,2.8c-0.4,1-0.8,2.1-1.2,3.2
	c-0.4,1.1-0.7,2.2-1,3.2c-0.3,1-0.5,2.1-0.7,3.4c-0.2,1.3-0.3,2.5-0.2,3.7c0,1.2,0.2,2.3,0.5,3.1c0.3,0.9,0.8,1.4,1.5,1.6
	c0.8,0.2,1.5-0.1,2.2-0.7c0.7-0.6,1.4-1.4,2.1-2.4c0.7-1,1.3-2.2,1.9-3.5c0.6-1.3,1.1-2.6,1.5-3.9c0.5-1.3,0.8-2.5,1.1-3.7
	c0.3-1.1,0.5-2,0.7-2.7c0.3-1.8,0.6-3.5,0.9-5.4c0.2-1.8,0.5-3.6,0.6-5.2c0.2-1.7,0.3-3.2,0.4-4.6
	C170.1,131,170.2,129.8,170.3,128.9z M232.9,131.1c0.9-1,1.7-2.2,2.2-3.7c0.5-1.5,1-3,1.3-4.6c0.5-2.2,0.9-4.7,1.1-7.4
	c0.3-2.7,0.4-5.6,0.4-8.5c0-3-0.1-6-0.3-9.1c-0.2-3.1-0.5-6.2-0.9-9.2c0.5-2.7,1-5.3,1.6-7.8c0.6-2.5,1.2-4.7,1.9-6.6
	c0.7-1.9,1.5-3.4,2.4-4.6c0.9-1.1,1.9-1.7,3.1-1.7c1.6,0,2.8,0.7,3.9,2c1,1.3,1.9,3,2.5,5.1c0.6,2.1,1.1,4.5,1.4,7.2
	c0.3,2.7,0.5,5.4,0.6,8.2c0.1,2.8,0.1,5.5,0.1,8.2c0,2.7-0.1,5.1-0.1,7.2c0,2.1,0,3.8,0,5.1c0,1.3,0.1,1.9,0.3,1.9c1,0,1.9,0,2.7,0
	c0.8,0,1.6-0.1,2.3-0.3c0.7-0.2,1.4-0.5,1.9-0.9c0.6-0.4,1.1-0.9,1.5-1.7c0.6-0.8,1.1-1.8,1.4-3.1c0.3-1.3,0.6-2.9,0.9-4.8
	c0.3-2.5,0.5-5.4,0.7-8.6c0.2-3.3,0.3-6.7,0.4-10.3c0.4-1.8,0.8-3.6,1.3-5.6c0.6-2.3,1.3-4.6,2-6.8c0.7-2.2,1.5-4.2,2.3-5.9
	c0.8-1.7,1.6-3.1,2.5-4.2c0.8-1.1,1.7-1.6,2.6-1.6c1.7,0,3,0.7,4.1,1.9c1.1,1.3,1.9,3,2.5,5.1c0.6,2.1,1,4.7,1.2,7.6
	c0.2,2.9,0.3,6,0.2,9.3c-0.1,3.3-0.3,6.7-0.6,10.3c-0.3,3.6-0.7,7.1-1.1,10.6c-0.4,3.5-0.9,6.9-1.3,10.1s-0.9,6.2-1.3,8.9
	c-0.4,2.7-0.7,5.1-1,7.1c-0.3,2-0.4,3.5-0.4,4.4c0,0.7,0.1,1.4,0.4,2.3c0.3,0.9,0.6,1.8,1.1,2.8c0.5,0.9,1.1,1.8,1.8,2.7
	c0.7,0.8,1.5,1.5,2.3,2.1c1,0.6,2.1,0.9,3.2,0.9s2.3-0.4,3.5-1.3c0.3-1.3,0.6-2.8,0.9-4.5c0.3-1.6,0.7-3.5,1.1-5.6
	c0.7-3.3,1.4-6.9,2.2-10.9c0.8-4,1.6-8.1,2.4-12.4c0.8-4.3,1.5-8.7,2.1-13.2c0.6-4.5,1.1-8.9,1.3-13.2c0.3-4.3,0.3-8.4,0.2-12.4
	c-0.2-3.9-0.6-7.6-1.4-10.8c-0.8-3.3-2-6.1-3.5-8.5c-1.5-2.4-3.5-4.2-6-5.4c-1.4-0.6-2.9-1-4.4-1.1c-1.5-0.1-3.1,0-4.6,0.4
	c-1.5,0.4-3,1-4.5,1.9c-1.4,0.9-2.8,2.1-4,3.4c-0.6,0.7-1.2,1.7-1.8,2.7c-0.6,1.1-1.2,2.4-1.8,3.9c-0.6,1.6-1.2,3.4-1.8,5.6
	c-0.6,2.2-1.3,4.8-2,7.7c-0.1-0.8-0.1-1.6-0.2-2.3s-0.2-1.4-0.3-2.1c-0.5-2.7-1.1-5-1.8-7s-1.6-3.6-2.5-4.9
	c-0.9-1.3-1.9-2.3-2.9-2.9c-1-0.6-2.1-1-3.2-1c-2.9-0.1-5.4,0.6-7.5,2.1c-2.1,1.4-4,3.4-5.6,5.9c-1.6,2.5-2.9,5.5-4,8.9
	c-1.1,3.4-2,7-2.8,10.9c-0.7-2.9-1.5-5.6-2.4-8.1c-0.9-2.5-1.9-4.6-3.1-6.5s-2.4-3.3-3.8-4.3s-2.9-1.6-4.5-1.6
	c-0.7,0-1.6,0.1-2.8,0.4c-1.2,0.3-2.5,0.7-3.7,1.2c-1.2,0.5-2.3,1.1-3.2,1.8c-0.9,0.7-1.4,1.5-1.4,2.3c0,0.6,0.3,1.8,1.1,3.7
	c0.7,1.9,1.6,4.3,2.7,7.1c1.1,2.8,2.3,6.1,3.6,9.7c1.3,3.6,2.5,7.5,3.5,11.5c1.1,4.1,1.9,8.2,2.6,12.5c0.7,4.3,1,8.5,0.9,12.7
	c0,1.9-0.1,3.7-0.3,5.4c-0.2,1.8-0.4,3.6-0.7,5.4c2.3,0.6,4.2,0.7,5.7,0.3C230.7,132.8,231.9,132.1,232.9,131.1z M396.9,95.7
	c-0.3,0.8-0.7,1.9-1.3,3.2s-1.1,2.8-1.8,4.4c-0.7,1.6-1.5,3.3-2.3,5c-0.8,1.7-1.7,3.4-2.7,5.1c-0.8,1.3-1.6,2.6-2.5,3.8
	c-0.9,1.2-1.8,2.3-2.7,3.2c-0.9,0.9-1.8,1.7-2.7,2.2c-0.9,0.5-1.8,0.8-2.7,0.8c-1.3,0-2.4-0.5-3.1-1.4c-0.7-0.9-1.2-2.1-1.5-3.6
	c-0.3-1.5-0.4-3.2-0.3-5.1c0-1.9,0.1-3.9,0.3-5.8c0.1-2,0.3-3.9,0.4-5.8c0.1-1.9,0.2-3.6,0.1-5.1s-0.3-2.7-0.8-3.6
	c-0.4-0.9-1.1-1.4-2.1-1.4c-0.5,0-1,0.4-1.7,1.2c-0.6,0.8-1.3,1.8-1.9,3c-0.6,1.2-1.3,2.5-1.8,3.9c-0.6,1.4-1,2.7-1.4,3.8
	c-0.2,2.1-0.4,4-0.5,5.8c-0.1,1.7-0.2,3.3-0.2,4.7c-0.1,1.4-0.1,2.6-0.2,3.5c-0.1,1-0.2,1.8-0.4,2.4c-0.3,0.9-0.7,1.5-1.3,1.9
	c-0.6,0.4-1.2,0.6-1.9,0.6c-0.9,0-1.6-0.2-2.2-0.7c-0.6-0.4-1.1-1-1.4-1.8s-0.6-1.6-0.8-2.5c-0.2-0.9-0.3-1.9-0.4-2.8
	c0-0.6,0-1.5,0.1-2.8s0.2-2.7,0.3-4.3c0.1-1.6,0.1-3.3,0.2-5s0-3.4-0.1-5c-0.1-1.8-0.4-3.4-0.9-4.6c-0.4-1.2-1.1-1.9-2.1-1.9
	c-0.5,0-1,0.4-1.7,1.2c-0.6,0.8-1.3,1.8-1.9,3c-0.6,1.2-1.3,2.5-1.8,3.9c-0.6,1.4-1,2.7-1.4,3.8c-0.2,2.1-0.4,4-0.5,5.8
	c-0.1,1.7-0.2,3.3-0.2,4.7c-0.1,1.4-0.1,2.6-0.2,3.5c-0.1,1-0.2,1.8-0.4,2.4c-0.3,0.8-0.7,1.4-1.3,1.9c-0.6,0.4-1.1,0.6-1.8,0.7
	c-0.6,0-1.2-0.2-1.9-0.5c-0.6-0.4-1.1-1-1.5-1.8c-0.4-0.8-0.7-1.7-0.9-2.6c-0.2-0.9-0.4-1.9-0.4-2.8c-0.1-0.9-0.1-1.9-0.2-2.8
	c0-0.9,0-1.8,0-2.6c0.1-3.4,0.2-6.8,0.4-10.2c-0.3,0.2-0.5,0.5-0.8,0.7c-0.7,0.6-1.5,1.2-2.4,1.7c-0.8,0.5-1.7,0.8-2.7,1
	c-0.3,2.4-0.8,4.7-1.5,7c-0.7,2.3-1.8,4.6-3.1,6.9c-0.8,1.4-1.7,2.6-2.6,3.6c-1,1-2,1.8-3.2,2.3c-1.2,0.5-2.5,0.7-3.9,0.6
	c-1.4-0.1-3-0.6-4.7-1.5c-1.6-0.8-2.9-1.9-4.1-3.4c-1.1-1.4-2-3.2-2.5-5.4c-0.2-0.8-0.4-1.9-0.5-3.2c-0.1-1.3-0.2-2.8-0.1-4.4
	c0-1.6,0.2-3.3,0.4-5.1c0.2-1.8,0.6-3.6,1.1-5.4c0.5-1.8,1.2-3.6,2-5.3c0.8-1.7,1.8-3.3,3-4.7c0.8-1,1.7-1.6,2.6-2
	c0.9-0.4,1.8-0.6,2.7-0.5c0.9,0,1.8,0.2,2.7,0.6c0.9,0.4,1.7,0.9,2.5,1.5c0.6,0.5,1.1,1,1.3,1.5c0.2,0.5,0.3,1,0.2,1.5
	c-0.1,0.5-0.2,1-0.5,1.5c-0.3,0.5-0.5,1.1-0.8,1.8c-1,2.6-1.8,4.8-2.4,6.6c-0.6,1.8-1.1,3.4-1.4,4.8c-0.3,1.4-0.5,2.5-0.6,3.5
	c-0.1,1-0.1,1.9,0,2.8c0.1,1.8,0.3,3.5,0.7,5c0.4,1.5,0.9,2.6,1.5,3.4c0.6,0.8,1.3,1.1,2.1,1c0.8-0.1,1.6-0.8,2.5-2.1
	c1.2-1.8,2.2-3.8,2.8-5.9c0.6-2.1,1-4.3,1.3-6.6c-1.2,0.1-2.3-0.2-3-0.8c-0.8-0.6-1.4-1.4-1.8-2.4c-0.4-1-0.6-2.1-0.6-3.2
	c0-1.2,0.1-2.2,0.3-3.3c0.1-0.5,0.3-1,0.5-1.6c0.2-0.5,0.4-1,0.7-1.4c0.3-0.4,0.7-0.8,1.1-1c0.4-0.3,0.9-0.4,1.6-0.4
	c1.3,0,2.3,0.4,2.9,1.2c0.6,0.8,1,1.7,1.2,2.8c0.2,1.1,0.3,2.4,0.2,3.7c-0.1,1.3-0.1,2.6-0.1,3.8c0.7,0.1,1.4-0.1,2.2-0.7
	c0.8-0.5,1.5-1.2,2.2-1.9c0.6-0.6,1.1-1.1,1.5-1.7c0.2-3.4,0.4-6.8,0.6-10.2c0-0.6,0.1-1.2,0.1-1.8c0-0.7,0.1-1.3,0.3-1.8
	c0.2-0.5,0.4-1,0.8-1.4c0.4-0.4,1-0.5,1.8-0.5c1.6,0,2.8,0.3,3.5,0.9c0.8,0.6,1.3,1.4,1.6,2.3c0.3,0.9,0.4,2,0.4,3.2
	c0,1.2-0.1,2.3-0.1,3.5c0,0.4,0,0.9-0.1,1.4c0,0.6,0,1.2-0.1,1.8c0,0.6,0,1.2-0.1,1.8c0,0.6,0,1.1-0.1,1.4c0.1,0,0.1,0,0.2,0
	c0.1,0,0.2,0,0.2,0c0.3-1.1,0.9-2.4,1.6-4c0.8-1.6,1.7-3.1,2.8-4.7c0.7-1,1.5-1.8,2.3-2.5s1.6-1.2,2.4-1.6c0.7-0.3,1.5-0.5,2.4-0.6
	c1-0.1,1.9,0,2.9,0.2c1.5,0.3,2.6,1,3.2,2c0.6,1,1,2.2,1.2,3.5c0.1,1.3,0.2,2.7,0,4.2c-0.1,1.4-0.2,2.8-0.2,4c0.3-1.1,0.9-2.4,1.6-4
	c0.8-1.6,1.7-3.1,2.8-4.7c1.3-1.8,2.8-3.2,4.3-4c1.5-0.8,3-1.1,4.3-0.9c1.3,0.2,2.5,0.9,3.4,2.1c0.9,1.2,1.5,2.9,1.7,5
	c0.2,2.4,0.2,4.8-0.1,7.2s-0.6,4.8-0.9,7.3c-0.1,0.8-0.2,1.7-0.4,2.9c-0.2,1.2-0.3,2.4-0.3,3.6c-0.1,1.2-0.1,2.3,0,3.3
	s0.2,1.6,0.6,1.9c0.3,0.3,0.8,0.2,1.5-0.4c0.7-0.6,1.6-1.8,2.8-3.6c0.9-1.5,1.9-3.2,2.8-5c0.9-1.8,1.8-3.6,2.6-5.3
	c0.8-1.7,1.5-3.2,2.1-4.6c0.6-1.4,1-2.3,1.2-2.8c0.1-0.1,0.3-0.3,0.5-0.4c0.2-0.1,0.3-0.2,0.5-0.1c0.2,0,0.3,0.2,0.5,0.4
	C396.7,94.7,396.8,95.1,396.9,95.7z M328.8,92.7c0-0.4,0-0.8-0.1-1.2c-0.1-0.3-0.2-0.6-0.4-0.7c-0.2-0.1-0.4-0.1-0.6,0.1
	s-0.4,0.6-0.6,1.3c-0.1,0.4-0.2,1.1-0.4,1.9c-0.2,0.8-0.2,1.6-0.2,2.4c0,0.8,0.2,1.5,0.5,2.1c0.3,0.6,0.8,0.9,1.6,1
	c0.1-0.9,0.2-1.9,0.2-2.9S328.8,94.3,328.8,92.7z M132.7,321.2c0.4,0.4,0.5,1.1,0.1,1.9c-0.4,0.8-0.7,1.5-1.1,2
	c-0.7,1.1-1.8,2.2-3.2,3.2c-1.4,1-2.7,1.9-3.8,2.6c-1.1,0.6-2.1,1.1-3.1,1.5c-1,0.4-2.1,0.9-3.1,1.6c-0.4,0.3-0.8,0.4-1.1,0.6
	c-0.3,0.1-0.5,0.5-0.5,1.1c-0.2,1.8-0.5,3.5-0.7,5.1c-0.3,1.6-0.8,3.3-1.5,4.9c-0.6,1.7-1.4,3.2-2.3,4.6c-0.9,1.4-2.1,2.7-3.5,3.8
	c-3,2.5-6.4,3.2-10.3,2.2c-1.8-0.5-3-1.4-3.8-2.7c-0.8-1.3-0.9-2.9-0.3-4.8c0.2-0.6,0.4-1.2,0.7-1.8c0.3-0.6,0.6-1.1,1-1.6
	c1-1.6,2-2.9,3-3.9c1-1,2.2-2.1,3.6-3.1c0.7-0.6,1.4-1.1,2.1-1.5s1.4-0.8,2.2-1.3c0.4-0.3,0.6-0.5,0.7-0.8c0.1-0.3,0.2-0.7,0.3-1.1
	c0.1-2.3,0.2-4.6,0.1-6.9c0-2.3-0.4-4.7-1.1-7c-0.4-1.6-1-3.1-1.8-4.4c-0.8-1.2-1.4-1.9-1.7-1.9c-0.4,0-1.1,0.3-2.1,1
	c-1.3,0.9-2.7,2.4-4,4.4c-1.3,2-2.5,3.9-3.5,5.8c-0.4,0.6-0.7,1.2-1,1.8c-0.3,0.6-0.6,1.3-0.8,2c-0.2,0.6-0.4,1.2-0.6,1.8
	c-0.2,0.6-0.4,1.2-0.6,1.9c-1,3.1-1.8,6.2-2.2,9.3s-0.7,6.4-0.8,9.6c0,1.2,0.1,2.4,0.3,3.6c0.2,1.1,0.5,2.3,0.7,3.6
	c0.3,1.3,0.2,2.3-0.3,2.8c-0.5,0.5-1.5,0.8-2.8,0.7c-1.1,0-2.1-0.3-3.2-0.8c-1.1-0.5-1.8-1.3-2.3-2.3c-1.8-3.7-3.1-7.6-3.8-11.6
	c-0.8-4-1.4-8.1-1.8-12.1c-0.4-4-0.5-7.6-0.5-11c0.1-3.3,0.3-7,0.7-10.8c0.2-2.4,0.5-4.7,1-7.1c0.4-2.3,0.9-4.6,1.5-6.9
	c0.7-2.3,1.3-4.5,2-6.8c0.7-2.2,1.5-4.4,2.5-6.6c0.8-2,1.8-4,2.8-5.9c1-1.9,2.2-3.7,3.5-5.5c0.4-0.5,0.9-1,1.2-1.5
	c0.4-0.5,0.8-0.9,1.2-1.4c1.2-0.9,2.6-1.7,4.2-2.4c1.6-0.6,3.2-0.9,4.7-0.8c1,0,1.8,0.2,2.6,0.4c2.6,0.8,4.1,2.6,4.3,5.4
	c0.1,2.4-0.1,4.8-0.8,7.1c-0.7,2.4-1.5,4.6-2.5,6.7c-0.9,2-1.9,4-2.9,5.8c-1,1.9-2.2,3.7-3.5,5.4c-1.6,2.2-3.3,4.2-5,6
	c-0.8,1-1.7,1.8-2.6,2.6c-0.9,0.8-1.8,1.6-2.8,2.5c-0.3,0.3-0.5,0.5-0.7,0.7c-0.2,0.2-0.3,0.5-0.3,1c-0.5,3.8-0.8,7.3-0.9,10.6
	c-0.1,3.3,0,6.8,0.4,10.6c0.2-0.3,0.4-0.8,0.6-1.3c0.8-2.8,1.7-5.5,2.9-8.1c1.2-2.6,2.7-5.1,4.5-7.3c1.2-1.5,2.4-2.7,3.6-3.8
	c1.3-1.1,2.9-1.9,4.6-2.4c1.7-0.5,3.4-0.5,5.2-0.2c1.7,0.3,3.3,1,4.8,2.1c1.5,1.1,2.6,2.5,3.5,4.3c0.8,1.5,1.4,3.1,1.8,4.7
	c0.4,1.6,0.7,3.3,0.8,5c0,0.4,0,1,0.1,1.8c0.1,0.8,0.2,1.4,0.2,1.9c1.2-0.3,3-1.2,5.3-2.5c2.3-1.3,4.3-3.1,6.2-5.2
	c0.7-0.8,1.4-1.3,1.9-1.4C131.3,320.3,131.9,320.6,132.7,321.2z M86.8,303.1c0.2,0,0.6-0.3,1.1-0.8c0.6-0.6,0.9-0.9,1-1.1
	c1.2-1.6,2.2-3,3.2-4.2c0.9-1.3,1.8-2.5,2.6-3.9c0.8-1.3,1.5-2.7,2.2-4.1c0.7-1.4,1.4-3.1,2-4.9c0.7-2,1.2-4,1.5-6.1
	c0.3-2,0.2-4.1-0.1-6.3c-1.2,0.7-2.1,1.6-2.8,2.7c-1,1.2-1.8,2.5-2.5,3.8s-1.3,2.7-1.9,4.1c-1.2,3.2-2.3,6-3.2,8.5
	c-0.9,2.5-1.8,5.5-2.5,8.8c-0.2,0.6-0.3,1.2-0.3,1.7C87.1,301.8,87,302.4,86.8,303.1z M107.9,340.5c-0.1,0.1-0.7,0.5-1.9,1.2
	c-1.2,0.7-2.5,2-4,3.9c-0.6,0.8-1.2,1.7-1.7,2.9c-0.5,1.1-0.7,2.1-0.5,2.9c0,0.4,0.1,0.7,0.2,1c0.1,0.3,0.4,0.5,0.7,0.5
	c0.7,0,1.4-0.4,2-1.1c0.6-0.7,1.1-1.3,1.5-1.8c0.5-0.7,0.9-1.4,1.4-2.2c0.5-0.8,0.8-1.5,1.1-2.2c0.4-0.8,0.6-1.7,0.8-2.8
	C107.7,341.6,107.8,340.9,107.9,340.5z M352.1,321.2c0.4,0.4,0.5,1.1,0.1,1.9c-0.4,0.8-0.7,1.5-1.1,2c-0.7,1.1-1.8,2.2-3.2,3.2
	c-1.4,1-2.7,1.9-3.8,2.6c-1.1,0.6-2.1,1.1-3.1,1.5c-1,0.4-2.1,0.9-3.1,1.6c-0.4,0.3-0.8,0.4-1.1,0.6c-0.3,0.1-0.5,0.5-0.5,1.1
	c-0.2,1.8-0.5,3.5-0.7,5.1c-0.3,1.6-0.8,3.3-1.5,4.9c-0.6,1.7-1.4,3.2-2.3,4.6c-0.9,1.4-2.1,2.7-3.5,3.8c-3,2.5-6.4,3.2-10.3,2.2
	c-1.8-0.5-3-1.4-3.8-2.7c-0.8-1.3-0.9-2.9-0.3-4.8c0.2-0.6,0.4-1.2,0.7-1.8c0.3-0.6,0.6-1.1,1-1.6c1-1.6,2-2.9,3-3.9
	c1-1,2.2-2.1,3.6-3.1c0.7-0.6,1.4-1.1,2.1-1.5s1.4-0.8,2.2-1.3c0.4-0.3,0.6-0.5,0.7-0.8c0.1-0.3,0.2-0.7,0.3-1.1
	c0.1-2.3,0.2-4.6,0.1-6.9c0-2.3-0.4-4.7-1.1-7c-0.4-1.6-1-3.1-1.8-4.4c-0.8-1.2-1.4-1.9-1.8-1.9c-0.4,0-1.1,0.3-2.1,1
	c-1.3,0.9-2.7,2.4-4,4.4c-1.3,2-2.5,3.9-3.5,5.8c-0.4,0.6-0.7,1.2-1,1.8c-0.3,0.6-0.6,1.3-0.8,2c-0.2,0.6-0.4,1.2-0.6,1.8
	c-0.2,0.6-0.4,1.2-0.6,1.9c-1,3.1-1.8,6.2-2.2,9.3c-0.5,3.2-0.7,6.4-0.8,9.6c0,1.2,0.1,2.4,0.3,3.6c0.2,1.1,0.5,2.3,0.7,3.6
	c0.3,1.3,0.2,2.3-0.3,2.8c-0.5,0.5-1.5,0.8-2.8,0.7c-1.1,0-2.1-0.3-3.2-0.8c-1.1-0.5-1.8-1.3-2.3-2.3c-1.8-3.7-3.1-7.6-3.8-11.6
	c-0.7-3.5-1.2-7-1.6-10.6c-1.3,2.7-2.8,5.4-4.4,8.1c-2.2,3.8-4.2,6.8-6.2,8.7c-1.9,2-3.4,3.4-4.4,4.3c-2.9,2.2-6.2,3.1-9.8,2.5
	c-1.6-0.2-2.9-0.8-4.1-1.8c-1.1-1-1.8-2.3-2-3.9c-0.2-1.8-0.2-3.5,0.1-5.2c0.3-1.7,0.7-3.4,1.1-5.1c0.8-2.7,1.9-5.3,3.3-7.8
	c1.4-2.5,2.7-5,4.1-7.5c0.5-1,1.1-1.9,1.7-2.8c0.6-0.9,1.1-1.9,1.6-2.8c0.5-0.9,0.8-1.8,1.1-2.7s0.6-1.9,0.8-2.8
	c0.2-0.6,0.3-1.3,0.3-1.9c0-0.7-0.3-1.3-0.9-2.1c-0.4,0.2-0.8,0.4-1.1,0.6c-0.3,0.2-0.7,0.4-1.1,0.6c-1.7,0.9-3.3,2-4.7,3.3
	c-1.4,1.3-2.7,2.7-3.8,4.2c-2,2.6-3.7,5.4-5.1,8.3c-1.4,2.9-2.6,6-3.7,9.1c-0.4,1.3-1.1,2-2.3,2.1c-0.4,0-0.8,0-1.2,0
	c-0.4,0-0.7-0.1-1.1-0.2c-1.4-0.1-2.2-0.9-2.5-2.4c-0.4-2.1-0.6-4.3-0.5-6.4c0-2.2,0.3-4.3,0.8-6.4l3.4-14.6c0.2-1,0.3-1.9,0.4-2.9
	c0.1-1,0.1-2-0.1-3.2c-0.2,0.2-0.4,0.3-0.6,0.3c-0.2,0-0.4,0.1-0.6,0.3c-2.1,1.5-3.9,3.3-5.6,5.1c-1.7,1.9-3.1,4-4.4,6.3
	c-1.5,2.8-2.7,5.7-3.5,8.8c-0.8,3.1-1.4,6.2-1.9,9.3c-0.1,0.6-0.1,1.2,0,1.9c0.1,0.6,0.3,1.2,0.4,1.9c0.2,1.1,0.4,2.1,0.7,3.1
	c0.3,1,0.6,2.1,0.8,3.1c0.2,0.8,0.1,1.3-0.2,1.6c-0.3,0.3-0.8,0.5-1.6,0.7c-1.1,0.2-2.1,0.3-3.1,0c-1-0.2-1.9-0.9-2.5-2
	c-0.3-0.6-0.7-1.2-1-1.7c-0.3-0.5-0.6-1.1-0.9-1.7c-1.7-4.3-2.7-8.5-3-12.8c-0.3-4.3,0-8.7,0.8-13.1c0.3-1.7,0.8-3.2,1.7-4.6
	c0.5-1,1.5-1.7,2.9-2.1c1.4-0.3,2.5-0.1,3.5,0.6c0.7,0.5,1,1.2,1,1.9c0.2,0.7,0.2,1.4,0.2,2.1c-0.1,0.7,0,1.3,0,2l0,1.8
	c0.2-0.4,0.3-0.7,0.5-0.9c0.1-0.2,0.2-0.3,0.3-0.5c1.8-3.8,4.1-7.2,6.8-10.2c1.7-1.7,3.5-3.2,5.4-4.4c2.5-1.6,5.2-2,8.2-1.2
	c1.5,0.4,2.6,1,3.5,1.9c0.8,0.9,1.3,2.1,1.3,3.6c0.1,2-0.1,4-0.5,5.9c-0.3,1.5-0.6,2.9-1.1,4.3c-0.4,1.4-0.9,2.9-1.3,4.6
	c0.4-0.4,0.7-0.8,0.9-1c0.2-0.3,0.5-0.6,0.7-0.9c1.2-1.4,2.4-2.7,3.7-3.8c1.3-1.2,2.7-2.2,4.3-3.2c1.5-0.9,3-1.5,4.6-1.8
	c1.5-0.4,3.2-0.5,4.8-0.2c2.5,0.2,4.3,1.1,5.4,2.7c1.2,1.6,1.5,3.5,1,5.9c-0.4,2-1,4.1-2,6.2c-0.8,1.7-1.7,3.4-2.6,5
	c-0.9,1.6-1.8,3.3-2.6,5c-1,2-2,4.1-2.9,6.2s-1.9,4.2-2.9,6.2c-0.6,1.5-1.1,3-1.3,4.5c-0.2,1.5,0.1,3,0.8,4.5c0.1,0,0.4-0.2,1.1-0.6
	c0.6-0.4,1.5-1,2.5-1.9c1.1-0.9,2.3-2.2,3.8-3.8c1.5-1.6,3.1-3.7,4.8-6.3c1.4-2.1,2.6-4.3,3.8-6.5c1.2-2.3,2.2-4.4,3.1-6.3
	c0.8-1.6,1.4-3,1.9-4.3c0-1.1,0-2.3,0-3.3c0.1-3.3,0.3-7,0.7-10.8c0.2-2.4,0.5-4.7,1-7.1c0.4-2.3,0.9-4.6,1.5-6.9
	c0.7-2.3,1.3-4.5,2-6.8c0.7-2.2,1.5-4.4,2.5-6.6c0.8-2,1.8-4,2.8-5.9c1-1.9,2.2-3.7,3.5-5.5c0.4-0.5,0.9-1,1.2-1.5
	c0.4-0.5,0.8-0.9,1.2-1.4c1.2-0.9,2.6-1.7,4.2-2.4c1.6-0.6,3.2-0.9,4.7-0.8c1,0,1.8,0.2,2.6,0.4c2.6,0.8,4,2.6,4.3,5.4
	c0.1,2.4-0.1,4.8-0.8,7.1c-0.7,2.4-1.5,4.6-2.5,6.7c-0.9,2-1.9,4-2.9,5.8c-1,1.9-2.2,3.7-3.5,5.4c-1.6,2.2-3.3,4.2-5,6
	c-0.8,1-1.7,1.8-2.6,2.6c-0.9,0.8-1.8,1.6-2.8,2.5c-0.3,0.3-0.5,0.5-0.7,0.7c-0.2,0.2-0.3,0.5-0.3,1c-0.5,3.8-0.8,7.3-0.9,10.6
	c-0.1,3.3,0,6.8,0.4,10.6c0.2-0.3,0.4-0.8,0.6-1.3c0.8-2.8,1.7-5.5,2.9-8.1c1.2-2.6,2.7-5.1,4.5-7.3c1.2-1.5,2.4-2.7,3.6-3.8
	c1.3-1.1,2.9-1.9,4.6-2.4c1.7-0.5,3.4-0.5,5.2-0.2c1.7,0.3,3.3,1,4.8,2.1c1.5,1.1,2.6,2.5,3.5,4.3c0.8,1.5,1.4,3.1,1.8,4.7
	c0.4,1.6,0.7,3.3,0.8,5c0,0.4,0,1,0.1,1.8c0.1,0.8,0.2,1.4,0.2,1.9c1.2-0.3,3-1.2,5.3-2.5c2.3-1.3,4.3-3.1,6.2-5.2
	c0.7-0.8,1.4-1.3,1.9-1.4C350.7,320.3,351.3,320.6,352.1,321.2z M306.2,303.1c0.2,0,0.6-0.3,1.1-0.8c0.6-0.6,0.9-0.9,1-1.1
	c1.2-1.6,2.2-3,3.2-4.2c0.9-1.3,1.8-2.5,2.6-3.9c0.8-1.3,1.5-2.7,2.2-4.1s1.4-3.1,2-4.9c0.7-2,1.2-4,1.5-6.1c0.3-2,0.2-4.1-0.1-6.3
	c-1.2,0.7-2.1,1.6-2.8,2.7c-1,1.2-1.8,2.5-2.5,3.8s-1.3,2.7-1.9,4.1c-1.2,3.2-2.3,6-3.2,8.5c-0.9,2.5-1.8,5.5-2.5,8.8
	c-0.2,0.6-0.3,1.2-0.3,1.7C306.5,301.8,306.4,302.4,306.2,303.1z M327.3,340.5c-0.1,0.1-0.7,0.5-1.9,1.2c-1.2,0.7-2.5,2-4,3.9
	c-0.6,0.8-1.2,1.7-1.7,2.9c-0.5,1.1-0.7,2.1-0.5,2.9c0,0.4,0.1,0.7,0.2,1c0.1,0.3,0.4,0.5,0.7,0.5c0.7,0,1.4-0.4,2-1.1
	c0.6-0.7,1.1-1.3,1.5-1.8c0.5-0.7,0.9-1.4,1.4-2.2c0.5-0.8,0.8-1.5,1.1-2.2c0.4-0.8,0.6-1.7,0.8-2.8
	C327.1,341.6,327.2,340.9,327.3,340.5z M196.4,283.6l0.2-11.1c-3.1-1.4-6.4-2.5-9.9-3.3c0.2-9.1,3.8-13.5,10.9-13.4
	c3.7,0.1,8.4,2.3,14.4,6.7c0-0.6-0.1-1.2-0.1-1.8c0-2.6,0.5-5.1,1.3-7.5c-5.6-3.6-10.7-5.4-15.2-5.5c-5.3-0.1-9.8,1.8-13.5,5.5
	c-3.7,3.8-5.6,8.5-5.7,14.1l0,1.7c-4,0.6-7.4,1.6-10.2,2.9l-0.2,11.1c-19.7,8.2-29.7,21.7-30,40.5c-0.2,11.9,3.9,22.1,12.2,30.7
	c8.3,8.6,18.5,13,30.4,13.2c12,0.2,22.3-3.8,30.9-12.1c8.6-8.3,13-18.5,13.3-30.5C225.3,305.6,215.8,291.9,196.4,283.6z"/>
</svg>
