<?xml version="1.0" encoding="utf-8"?>
<!-- Generator: Adobe Illustrator 18.0.0, SVG Export Plug-In . SVG Version: 6.00 Build 0)  -->
<!DOCTYPE svg PUBLIC "-//W3C//DTD SVG 1.1//EN" "http://www.w3.org/Graphics/SVG/1.1/DTD/svg11.dtd">
<svg version="1.1" id="Layer_1" xmlns="http://www.w3.org/2000/svg" xmlns:xlink="http://www.w3.org/1999/xlink" x="0px" y="0px"
	 viewBox="0 0 432 432" enable-background="new 0 0 432 432" xml:space="preserve">
<path fill="#141414" d="M141.8,203.5c-0.5-0.4-1.1-0.6-1.8-0.4c-0.7,0.2-1.3,0.6-1.8,1.2c-3,4.7-7.3,7.2-12.8,7.4
	c-5.6,0.2-11.7-1.9-18.4-6.2c-2.2-1.5-4.5-3.1-6.8-4.9c-2.3-1.8-4.6-3.5-7-5.4c-0.2-0.2-0.4-0.4-0.6-0.5c1.8-3.8,3.3-8.2,4.6-13.1
	c1.2-4.9,2.3-10.1,3.1-15.6c0.9-5.5,1.6-11.1,2.2-16.9c0.6-5.8,1.1-11.5,1.7-17.1c0.5-5.4,1-10.6,1.4-15.5c0.4-4.9,1-9.3,1.6-13.1
	c1-4.9,1.9-8.2,2.8-9.9c0.9-1.7,1.6-2.6,2.2-2.8c0.5-0.3,1.1-0.6,1.7-0.7c0.6-0.2,1.1-0.1,1.7,0.2c0.2,0.2,0.6,0.9,1.1,1.9
	c0.5,1.1,0.8,3.2,0.8,6.4c0,1,0,1.9,0,2.8c0,0.9-0.1,1.7-0.2,2.3c-0.1,0.9-0.2,1.6-0.2,2.2c-0.2,0.6-0.1,1.3,0.3,1.8
	c0.4,0.6,1,0.9,1.8,1c0.7,0.2,1.4,0.1,1.9-0.4c0.5-0.5,0.9-1,1-1.7c0-0.1,0.1-1,0.3-2.6c0.2-1.6,0.3-3.5,0.2-5.6
	c0.1-5-0.8-8.8-2.7-11.2c-1.1-1.5-2.4-2.6-3.9-3.3c-1.5-0.7-3.1-1.1-4.7-1.1c-1.6-0.1-3.2,0.1-4.6,0.4c-1.5,0.3-2.7,0.7-3.5,1.1
	c-1.8,0.9-3.5,1.9-5,3.2c-1.5,1.3-2.8,2.6-4,4.1c-1.2,1.4-2.2,2.8-3.1,4.2c-0.9,1.3-1.6,2.5-2.2,3.4c-0.9,1.4-1.8,3.6-2.8,6.6
	c-1,3-2.1,7.3-3.3,12.8c-1.2,5.6-2.4,12.6-3.7,21.2c-1.3,8.6-2.6,19.2-4,31.8c-0.2,2-0.5,3.9-0.8,5.6c-0.3,1.7-0.6,3.3-1,4.8
	c-1-0.2-1.9-0.3-2.7-0.4c-0.9-0.1-1.7,0-2.6,0.2c-2.9,0.5-5.1,2.3-6.7,5.3c-1,1.9-1.6,4.1-1.9,6.4c-0.3,2.4-0.2,4.6,0.3,6.9
	c0.5,2.3,1.4,4.5,2.5,6.3c1.1,1.9,2.5,3.3,4.2,4.2c1.2,0.7,2.7,1.3,4.6,1.6c1.9,0.3,4.1-0.1,6.6-1.3c2-1,4.1-2.4,6.2-4.3
	s4.1-4.4,6.2-7.4c0.1-0.1,0.2-0.2,0.2-0.2c0-0.1,0.1-0.1,0.2-0.2c2.2,1.8,4.6,3.7,7,5.5c2.4,1.9,4.8,3.5,7.1,5
	c3.7,2.5,7.4,4.3,11.1,5.4c3.7,1.2,7.2,1.7,10.7,1.4h0.3c7-0.5,12.4-3.7,16.2-9.6c0.4-0.5,0.6-1.1,0.4-1.8
	C142.7,204.5,142.4,203.9,141.8,203.5z M67.8,195.2c-1.3,2.1-2.3,3.9-3,5.4c-0.5-1.7-0.7-3.5-0.6-5.4c0.1-1.9,0.6-3.8,1.4-5.6
	c0.6-1.2,1.2-1.9,1.7-2.2c0.5-0.3,0.9-0.5,1.4-0.7h0.6c0.4,0,0.8,0,1.1,0.1c0.3,0.1,0.7,0.1,1.1,0.1
	C70.3,190.3,69.1,193.1,67.8,195.2z M383.7,142.1c-0.5-0.5-1.1-0.7-1.8-0.6c-0.7,0.1-1.3,0.4-1.7,1c-4.1,4.8-7.6,9-10.6,12.7
	c-3,3.6-6.2,7.6-9.8,11.9c-3.5,4.3-6.8,8.3-9.9,12c-4.5,5.7-8.1,8.7-10.7,9.1c-0.2,0.1-0.5,0.2-1,0.2c0-1.1-0.1-2.2-0.2-3.4
	c-0.1-1.2-0.2-2.3-0.3-3.4c-0.1-1.1-0.2-2-0.3-2.7c-0.1-0.7-0.2-1.2-0.2-1.4c0.3-9.2,0.8-16.9,1.4-23.2c0.9-0.2,2.2-0.7,4.1-1.6
	c1.9-0.9,3.9-2,6-3.5c7.2-5.2,10.4-11.3,9.6-18.1l-0.2-0.2c0-0.3-0.1-0.5-0.2-0.6c-0.2-0.6-0.6-1.5-1.3-2.6
	c-0.6-1.1-1.6-2.2-2.9-3.3c-1.3-1.1-2.9-2.1-4.9-2.9c-2-0.8-4.4-1.3-7.3-1.5c-0.7,0-2,0.3-3.8,1c-1.8,0.6-3.7,1.7-5.7,3.2
	c-2,1.5-3.9,3.5-5.7,6.1c-1.8,2.6-3,5.7-3.6,9.3c-0.5,2.5-1.1,5.3-1.7,8.5c-0.6,3.2-1.1,6.6-1.6,10.2c0,0.2,0,0.4-0.1,0.6
	c-0.1,0.5-0.2,1-0.3,1.5c-0.7,3.4-1.8,7.6-3.3,12.6s-3.3,10.2-5.5,15.7c-2.2,5.5-5,10.3-8.2,14.5c-3.3,4.4-6.4,7.2-9.1,8.3
	c-0.4-0.6-0.8-1.5-1.1-2.5c-0.3-1-0.6-2.1-0.8-3.1c-0.2-1.1-0.4-2-0.6-2.9c-0.2-0.9-0.2-1.5-0.2-2.1c-0.2-1.4-0.6-4.3-1-8.6
	c-0.5-4.4-0.9-9.8-1.3-16.3c-0.4-6.5-0.6-13.7-0.6-21.8c-0.1-8.1,0.2-16.5,0.9-25.2c1-0.9,2-1.8,3-2.7c1.1-1,2.2-2.1,3.4-3.4
	c4.3-4.5,8.2-9.7,11.9-15.5c2.2-3.6,4.3-7.4,6.2-11.4c1.9-3.9,3.5-8.1,5-12.5c2.1-6,3.4-11.1,3.9-15.3c0.5-4.2,0.5-7.8,0-10.7
	c-0.5-2.9-1.3-5.2-2.4-6.8c-1.1-1.7-2.2-2.9-3.3-3.8c-2.7-2-5.9-2.9-9.8-2.6c-2.5,0.2-4.9,0.9-7.2,1.9c-1.2,0.2-2.5,1-4.1,2.5
	c-1.5,1.4-3.6,4.4-6,8.9c-4,7.4-7.1,15.8-9.5,25.1c-2.4,9.4-4.3,19.1-5.6,29c-1.3,9.9-2.2,19.8-2.6,29.6c-0.1,3-0.2,5.8-0.3,8.7
	c-1.4,3-2.8,6.3-4.4,9.9c-1.8,4.1-3.6,8.1-5.4,12.2c-1.8,4.1-3.6,8-5.2,11.7c-1.7,3.7-3,6.9-4.1,9.5c-0.9,1.8-1.8,3.2-2.9,4.2
	c-0.6,0-1.3-0.3-1.9-0.9c-0.6-0.6-1.2-1.3-1.8-2.2c-0.6-0.9-1.2-1.9-1.8-3c-3-7.4-5-15-6.2-22.9c-1.1-7.9-1.7-15.7-1.6-23.4
	c0.1-7.7,0.6-15.1,1.6-22.2c1-7.1,2.2-13.6,3.4-19.5c1.7,0,3.4,0,5-0.1c1.7-0.1,3.3-0.1,5-0.2c10.5-0.7,17.5-2.9,21.1-6.6
	c1-1.3,0.9-2.5-0.2-3.5c-1.2-1.2-2.3-1.2-3.5,0c-0.9,1-2.6,1.9-5.1,2.9c-2.6,1-6.8,1.7-12.8,2.2c-1.4,0.1-2.8,0.2-4.2,0.2
	c-1.4,0.1-2.8,0.1-4.2,0.1c1.2-5.1,2.3-9.4,3.4-13c1.1-3.5,1.9-6,2.5-7.4c1.2-3.2,1.4-5.7,0.7-7.5c-0.7-1.8-1.8-3.1-3.2-3.9
	c-1.4-0.8-3-1.2-4.7-1.2c-1.7,0-2.9,0.2-3.7,0.6c-1,0.5-1.9,1.4-2.9,2.6c-1,1.2-1.9,2.7-2.7,4.6c-0.9,2-1.9,5.2-3,9.5
	c-1.2,4.3-2.4,9.4-3.5,15.3c-2.1-0.1-4-0.2-5.7-0.2c-0.2,0-0.5,0-0.7,0c0.6-0.5,1.2-0.9,1.8-1.4c1-1.3,0.9-2.5-0.2-3.5
	c-1.2-1.2-2.3-1.2-3.5,0c-0.9,1-2.6,1.9-5.1,2.9c-2.6,1-6.8,1.7-12.8,2.2c-1.4,0.1-2.8,0.2-4.2,0.2c-1.4,0.1-2.8,0.1-4.2,0.1
	c1.2-5.1,2.3-9.4,3.4-13c1.1-3.5,1.9-6,2.5-7.4c1.2-3.2,1.4-5.7,0.7-7.5c-0.7-1.8-1.8-3.1-3.2-3.9c-1.4-0.8-3-1.2-4.7-1.2
	c-1.7,0-2.9,0.2-3.7,0.6c-1,0.5-1.9,1.4-2.9,2.6c-1,1.2-1.9,2.7-2.7,4.6c-0.9,2-1.9,5.2-3,9.5c-1.2,4.3-2.4,9.4-3.5,15.3
	c-2.1-0.1-4-0.2-5.7-0.2c-1.7,0-3.1,0-4.2,0c-4.1,0.3-6.9,1.6-8.6,3.8c-1.2,1.5-1.8,2.9-1.9,4.3c-0.1,1.4-0.2,2.2-0.2,2.4
	c0.4,1.4,1.3,2.1,2.6,2.1h0.3c0.6-0.1,1.2-0.4,1.6-1c0.4-0.5,0.6-1.2,0.5-1.9c-0.1-0.2-0.1-0.5,0-1c0-0.5,0.3-1.2,0.8-1.9
	c1-1.1,2.7-1.7,5.3-1.9c0.9,0,2.1,0,3.6,0s3.2,0.1,5,0.2c-1.1,6.3-2,13-2.8,20.2c-0.8,7.2-1.3,14.4-1.4,21.6
	c-0.1,4.6,0,9.1,0.2,13.6c-2.4,4-5,8.2-7.9,12.5c-3.3,4.9-6.4,9.2-9.5,13c-3.8,4.6-7,7.5-9.4,8.6c-1.2-1-2.2-2.1-3.1-3.4
	c-0.9-1.3-1.5-2.8-1.7-4.5c-0.2-2.1-0.3-5.3-0.2-9.5c0.1-4.2,0.3-8.6,0.7-13.2c0.4-4.6,1-9.2,1.8-13.5c0.7-4.4,1.8-7.8,3-10.4
	c-0.5-1.2-1.3-2.2-2.2-3.2c-0.9-0.9-2-1.6-3.3-2.3c-1.3-0.7-3-1-5-1c-0.7,0-1.6,0-2.6,0c-1,0-1.9,0.4-3,1.2c-1,0.8-2,2.1-3,4
	c-1,1.9-1.8,4.6-2.4,8.2c-0.9,4.2-1.5,8-2,11.5c-0.5,3.5-0.7,6.8-0.7,9.9c0,3.2,0.3,6.2,0.8,9.1c0.5,2.9,1.4,6,2.7,9.2
	c1.3,2.9,3,5.3,5.2,7.3c2.2,2,4.5,3.5,7,4.6c0.4,0.2,1,0.5,1.8,0.8c0.7,0.3,1.7,0.5,2.7,0.6c1.1,0.3,2.2,0.3,3.4-0.2
	c3.6-1,8.1-4.5,13.5-10.7c2.1-2.6,4.3-5.4,6.4-8.5c2.1-3.1,4.2-6.2,6.3-9.4c0.5-0.8,1-1.6,1.5-2.4c0.7,6.6,2,12.6,3.8,17.9
	c1.5,4.3,2.8,7.3,3.8,9.1c1.1,1.8,2.1,3,3,3.7c0.5,0.4,1.3,1,2.2,1.7c1,0.7,2,1.4,3.2,2.1c1.2,0.7,2.5,1.3,3.9,1.8s2.9,0.7,4.4,0.7
	c0.3,0,0.7,0,1,0c0.4,0,0.7-0.1,1-0.2c3.9-0.7,7-3.6,9.1-8.5c1.1-2.6,2.4-5.7,4.1-9.5c1.7-3.7,3.4-7.6,5.2-11.7
	c1.8-4.1,3.6-8.1,5.4-12.1c0.3-0.6,0.5-1.2,0.8-1.8c0.1,2,0.3,4,0.5,6c0.7,6.9,2,13.1,3.9,18.7c1.5,4.3,2.8,7.3,3.8,9.1
	c1.1,1.8,2.1,3,3,3.7c0.5,0.4,1.3,1,2.2,1.7c1,0.7,2,1.4,3.2,2.1c1.2,0.7,2.5,1.3,3.9,1.8s2.9,0.7,4.4,0.7c0.3,0,0.7,0,1,0
	c0.4,0,0.7-0.1,1-0.2c3.9-0.7,7-3.6,9.1-8.5c1.1-2.6,2.4-5.7,4.1-9.5c1.7-3.7,3.4-7.6,5.2-11.7c1.7-3.9,3.5-7.8,5.1-11.6
	c0,2.1,0,4.1,0.1,6.1c0.2,8.3,0.5,15.4,1,21.3c0.5,5.9,1,10,1.5,12.3c0.7,3.3,1.8,5.8,3.2,7.5c0.2,0.3,0.7,0.9,1.4,1.7
	c0.7,0.8,1.7,1.6,3,2.5c1.2,0.9,2.6,1.6,4.2,2.2c1.5,0.6,3.2,1,5,1c0.4,0,0.9,0,1.3-0.1c0.4-0.1,0.9-0.1,1.4-0.2
	c4.3-1,8.8-4.5,13.5-10.6c4.9-6.6,9.3-15.8,13.2-27.6c0.1,0.6,0.2,1.2,0.3,1.8c0.2,1.4,1,2.9,2.4,4.4c1.4,1.5,3,3,4.8,4.3
	c1.8,1.3,3.7,2.4,5.6,3.3c1.9,0.9,3.5,1.2,4.8,1h0.2h0.3c0.4,0,0.8,0,1.1-0.1c0.3-0.1,0.7-0.1,1.1-0.2c3.7-0.7,8.3-4.3,13.6-10.7
	c3.1-3.7,6.4-7.7,9.9-12c3.5-4.3,6.8-8.2,9.8-11.9c3-3.6,5.5-6.6,7.5-9.1c2-2.4,3-3.7,3-3.8c0.4-0.5,0.6-1.1,0.6-1.8
	C384.5,143.1,384.2,142.6,383.7,142.1z M345.1,131.2c0.1-0.2,0.4-0.6,0.8-1.3c0.4-0.6,1-1.1,1.7-1.4c0.7-0.3,1.5-0.4,2.5-0.2
	c1,0.2,2.1,1.1,3.4,2.6v0.6c0.3,2.2,0,4.3-1,6.1c-1,1.8-2.2,3.4-3.7,4.9c-1.5,1.4-3.1,2.6-4.8,3.6c-1.7,1-3.2,1.8-4.5,2.4
	C340.7,141.5,342.6,135.7,345.1,131.2z M295.4,86.2c3.1-11.6,7.6-22,13.6-31.1c0.4-0.5,0.9-1.1,1.3-1.6c0.4-0.4,0.9-0.9,1.4-1.4
	c0.5-0.5,1-0.9,1.5-1.2c2.3,2,3.7,5.2,4,9.4c0.3,5.9-1,13-4,21.3c-3.2,9.3-6.9,17-11,23.1c-4.1,6.1-7.8,10.9-11,14.3
	c-0.4,0.4-0.8,0.8-1.2,1.2c-0.4,0.4-0.7,0.8-1,1.2C290.2,109.7,292.3,97.9,295.4,86.2z M221.2,123.2c-0.8,7.2-1.3,14.4-1.4,21.6
	c0,1.4,0,2.7,0,4.1c0,0,0,0.1,0,0.1c-1.5,3.2-3.1,6.8-4.9,10.9c-1.8,4.1-3.6,8.1-5.4,12.2c-1.8,4.1-3.6,8-5.2,11.7
	c-1.7,3.7-3,6.9-4.1,9.5c-0.9,1.8-1.8,3.2-2.9,4.2c-0.6,0-1.3-0.3-1.9-0.9c-0.6-0.6-1.2-1.3-1.8-2.2c-0.6-0.9-1.2-1.9-1.8-3
	c-3-7.4-5-15-6.2-22.9c-1.1-7.9-1.7-15.7-1.6-23.4c0.1-7.7,0.6-15.1,1.6-22.2c1-7.1,2.2-13.6,3.4-19.5c1.7,0,3.4,0,5-0.1
	c1.7-0.1,3.3-0.1,5-0.2c2.5-0.2,4.8-0.4,6.9-0.8c-0.9,1.3-1.5,2.6-1.6,3.8c-0.1,1.4-0.2,2.2-0.2,2.4c0.4,1.4,1.3,2.1,2.6,2.1h0.3
	c0.6-0.1,1.2-0.4,1.6-1c0.4-0.5,0.6-1.2,0.5-1.9c-0.1-0.2-0.1-0.5,0-1c0-0.5,0.3-1.2,0.8-1.9c1-1.1,2.7-1.7,5.3-1.9
	c0.9,0,2.1,0,3.6,0c1.5,0,3.2,0.1,5,0.2C222.9,109.4,222,116.1,221.2,123.2z"/>
<path fill="#B19A53" d="M59.3,295.4c-2.8-3-6.4-4.6-10.6-4.6c-6.8,0-12.4,3.4-16.9,10.3c-0.9,1.5-1.8,3.1-2.7,4.6v-29.3
	c0-3.9-0.8-7-2.3-9.1c-1.5-2.2-3.8-3.2-6.8-3.2c-3.2,0-5.4,1.1-6.6,3.3c-1,1.8-1.6,5-1.6,9.7v90.2c0,2.2,0.1,4.3,0.4,6.3
	c0.6,4.5,3.2,6.8,7.8,6.8c2.7,0,4.9-0.9,6.3-2.7c0.4-0.4,0.8-0.7,1.3-0.7c0.5,0,1.1,0.2,1.8,0.6c3,1.9,6,2.8,9,2.8
	c9.4,0,16.7-5.4,22-16.2c5-10.2,7.5-23.5,7.5-39.9c0-6-0.7-11.5-2.2-16.6C64.3,302.5,62.2,298.4,59.3,295.4z M53.8,336.9
	c-0.3,3.4-0.8,6.9-1.5,10.6c-0.7,3.7-1.7,7.3-3,10.6c-1.3,3.4-2.9,6.1-4.9,8.3c-2,2.2-4.4,3.2-7.3,3.2c-3.8,0-6.2-1-7.1-3.1
	c-0.5-1.2-0.7-2.7-0.7-4.4V343c0-4.1,0.4-9.1,1.3-15c0.9-5.9,2.2-11,3.8-15.3c3.2-7.9,7.2-11.9,11.9-11.9c2,0,3.6,1.3,4.7,3.9
	c1.2,2.6,2,6,2.5,10.3c0.5,4.3,0.7,8.9,0.7,13.8C54.2,330.9,54.1,333.6,53.8,336.9z M123,303.9c-1.2,0-2.4-0.6-3.7-1.7
	c-0.9-0.9-2.1-1.3-3.4-1.3c-4.4,0-8.4,4.3-11.9,13c-3.5,8.7-5.3,20-5.3,34v19.9c0,8.3-3,12.5-9,12.5c-4.5,0-7.1-2.3-7.8-6.8
	c-0.3-2-0.4-4.1-0.4-6.3v-63.4c0-2.1,0.1-4.2,0.4-6.2c0.3-2,1-3.6,2.2-4.9c1.2-1.3,3-1.9,5.6-1.9c6,0,9,4.1,9,12.4
	c0,1,0.1,1.6,0.4,1.6c0.3,0,0.7-0.5,1.3-1.5c4.7-8.3,10.8-12.5,18.1-12.5c2.8,0,5.3,0.5,7.3,1.6c2,1,3,2.6,3,4.6
	c0,1.8-0.6,3.4-1.7,4.8C125.9,303.2,124.6,303.9,123,303.9z M158.5,290.8c-11.9,0-20.9,4.6-26.8,13.7c-5.2,8-7.8,18.9-7.8,32.7
	c0,11.7,2.1,21.2,6.3,28.7c5.3,9.5,13.2,14.2,23.6,14.2c11.6,0,20.1-4.6,25.6-13.7c4.8-8.1,7.2-19.2,7.2-33.4
	c0-11.1-1.7-20.3-5.2-27.5C176.4,295.8,168.8,290.8,158.5,290.8z M171.6,357.7c-2.9,7.8-7.3,11.7-13.2,11.7c-6,0-10.4-3.5-13.4-10.5
	c-2.6-6.2-3.9-14.7-3.9-25.3c0-21.9,6.2-32.8,18.7-32.8c5.7,0,9.9,3.6,12.5,10.7c2,5.5,3,12.5,3,20.9
	C175.3,342.6,174.1,351,171.6,357.7z M234.1,373.3c0,1.6-0.8,2.9-2.4,4c-1.6,1-3.3,1.8-5.3,2.3c-2,0.5-3.6,0.7-4.9,0.7
	c-5.8,0-10.3-1.2-13.5-3.5c-3.3-2.3-5.6-5.7-6.9-10.1c-1.4-4.4-2.1-9.7-2.1-15.9v-46.9c0-1.6-0.9-2.4-2.7-2.4h-2.1
	c-1.8,0-3.1-0.4-4-1.3c-0.9-0.9-1.3-1.8-1.3-2.8c0-1.5,0.4-2.6,1.3-3.2c1.2-0.8,3.2-1.2,6.1-1.2c1.8,0,2.7-0.9,2.7-2.7v-5.1
	c0-2.1,0.1-4.2,0.4-6.2c0.3-2,1-3.6,2.2-4.9c1.2-1.3,3-1.9,5.6-1.9c2.6,0,4.6,0.8,6,2.3c2,2.1,3,5.5,3,10.1v5.7
	c0,1.8,0.8,2.7,2.4,2.7h9.6c2.9,0,4.3,1.5,4.3,4.4c0,1-0.4,1.9-1.3,2.8c-0.9,0.9-2.2,1.3-4,1.3h-8.6c-1.6,0-2.4,0.8-2.4,2.4v49.4
	c0,5.1,0.3,9,1,11.6c0.6,2.6,1.6,4.4,2.8,5.4c1.2,0.9,2.7,1.4,4.5,1.4c1.4,0,3-0.2,4.7-0.7c0.6-0.1,1.3-0.2,1.9-0.2
	C233.1,370.9,234.1,371.7,234.1,373.3z M297.3,307.5c1.1,4.8,1.6,10.7,1.6,17.8c0,29.8-1.3,47.3-4,52.4c-0.9,1.7-2.6,2.5-5.1,2.5
	c-4.5,0-6.8-2-6.8-6c0-2.8,0.2-6.5,0.6-11.2c1.1-12.4,1.7-24.9,1.7-37.4c0-5.9-0.3-10.9-1-14.9c-1.1-6.7-3.5-10-7-10
	c-4.8,0-8.8,4-11.9,11.9c-3.5,8.9-5.3,21-5.3,36.4v18.7c0,3.1-0.5,5.7-1.5,7.8c-1.5,3.1-4,4.6-7.6,4.6c-4.6,0-7.2-2.3-7.8-6.8
	c-0.3-2-0.4-4.1-0.4-6.3v-90.8c0-8.3,3-12.4,9-12.4c3,0,5.1,1,6.4,2.9c1.3,1.9,1.9,5.3,1.9,10.1v25.5c0,1.3,0.1,1.9,0.4,1.9
	c0.2,0,0.6-0.5,1.2-1.4c4.9-8.2,10.9-12.2,18.1-12.2C289,290.8,294.8,296.4,297.3,307.5z M354,357.9c-1.9,0-3.2,0.9-3.9,2.7
	c-2.4,6.2-5.6,9.3-9.7,9.3c-3.9,0-7.1-2.3-9.7-7c-1.9-3.3-2.8-6.6-2.8-9.9c0-1.4,0.6-2.2,1.9-2.2c7-0.3,12.9-2.3,17.6-6.1
	c6.8-5.5,10.2-13.9,10.2-25.2c0-7.6-1.1-13.8-3.4-18.7c-3-6.6-8.4-9.9-16-9.9c-6.1,0-11.3,2.1-15.8,6.3
	c-8.5,8.1-12.7,21.9-12.7,41.4c0,7.7,0.8,14.7,2.5,21c3.5,13.7,11.2,20.5,23.2,20.5c5.9,0,10.7-1.6,14.5-4.8
	c3.9-3.3,6.5-7.5,7.6-12.4c0.1-0.5,0.1-0.9,0.1-1.3c0-1.1-0.4-2.1-1.1-2.7C355.8,358.2,354.9,357.9,354,357.9z M339.8,301.8
	c3.7,0,6.1,2.5,7.4,7.5c0.7,2.9,1,6.6,1,11.1c0,5.4-1,9.6-3.1,12.8c-2.1,3.1-4.7,5.4-7.9,6.7c-3.2,1.3-5.8,2-7.8,2
	c-1.3,0-2-1.1-2-3.3C327.7,314.1,331.8,301.8,339.8,301.8z M419.1,272.2c0,2.3-0.6,4.4-1.7,6.3c-1.1,1.8-2.5,2.8-4.1,2.8
	c-1.2,0-2.4-0.7-3.7-2.2c-0.9-1.2-2.1-1.8-3.4-1.8c-4.4,0-8.4,5.7-11.9,17c-3.5,11.3-5.3,26.1-5.3,44.3v26c0,10.8-3,16.2-9,16.2
	c-4.5,0-7.1-2.9-7.8-8.8c-0.3-2.6-0.4-5.3-0.4-8.2v-82.5c0-2.8,0.1-5.5,0.4-8.1c0.3-2.6,1-4.7,2.2-6.4c1.2-1.7,3-2.5,5.6-2.5
	c6,0,9,5.4,9,16.1c0,1.4,0.1,2,0.4,2c0.3,0,0.7-0.6,1.3-1.9c4.7-10.8,10.8-16.2,18.1-16.2c2.8,0,5.3,0.7,7.3,2
	C418.1,267.6,419.1,269.6,419.1,272.2z M13.4,235.2c-2.1-4.1-2.8-8-2-10.8c0.4-1.4,0.6-1.7,2-2.8c2.5-2.1,5-2.3,9.9-0.9
	c1.3,0.4,3.4,1.1,4.6,1.6c1.1,0.5,2.2,0.9,2.2,0.8c0.1,0-0.1-1.3-0.3-2.9c-0.5-3.7-0.6-8.1-0.1-10c0.3-1.4,0.9-2.7,1.9-3.9
	c0.8-1,2.6-2,4-2.2c3.6-0.4,7.1,1.4,11.2,5.5c3.3,3.3,7,11.8,9.5,21.6c1.5,5.8,3.5,25.8,2.8,27.1c-0.2,0.3-0.8,0.7-1.5,0.9
	c-0.9,0.3-2,0.1-7.9-1.6c-16.8-4.9-25.7-9.6-32.7-17.5C14.9,237.9,14.5,237.3,13.4,235.2z M373.5,246.8c0.4-0.9,0.3-2.2-0.2-3.2
	c-0.6-1.1-4.3-4-8.3-6.6c-2.6-1.7-2.9-1.8-3.3-1.6c-2.2,1.5-6.3,4-6.4,4c-0.5,0-0.3-0.5,0.3-0.9c1.3-0.8,4.8-4,4.8-4.4
	c0-0.3-3.8-1.8-6.4-2.6c-1.3-0.4-3.6-0.9-5-1.2l-2.7-0.5l-1.9,1.6c-1,0.9-2.7,2.1-3.6,2.8c-1,0.7-2.4,1.7-3.2,2.3
	c-1.2,0.8-1.5,1-1.5,0.6c0-0.2,0.4-0.7,1-1.2c1.2-1,5.9-5.9,5.9-6.1c0-0.4-6.6-0.7-19.1-0.8l-3.6,0l-1,0.8c-0.5,0.4-1.5,1.2-2.1,1.7
	c-1.2,1-7.7,5.6-7.9,5.6c-0.1,0-0.1-0.1-0.1-0.3c0-0.1,0.5-0.7,1.1-1.2c1.1-0.9,6.3-6.2,6.1-6.3c0,0-3.7-0.1-8.2-0.2
	c-9.4-0.1-12.1,0.1-15.8,1.1c-2.5,0.7-6.1,2.3-7.6,3.3c-1,0.7-4,3.6-5.4,5.3c-12-0.5-25.2-1-39.1-1.4c0.7-1.9,1.1-3.5,0.9-4.7
	c-0.6-4.4-2.8-7.3-7-8.8c-1.7-0.6-4.5-1-6.2-0.8c-2.1,0.3-3.9,0.7-5.5,1.3c-2.2,0.8-6.1,3.4-8.8,5.8c-1.1,1-2.1,1.8-2.2,1.8
	c-0.1,0-0.9-0.7-1.6-1.6c-0.8-0.9-2.3-2.3-3.4-3.2c-3.9-3.3-6.8-4.4-11.3-4.5c-2.4,0-3,0-4.6,0.6c-3.4,1.3-6.1,3.8-7.5,7.2
	c-0.8,1.8-0.8,2.3-0.7,4.4c0,0.4,0.1,0.8,0.1,1.3c-6.3-0.1-12.7-0.2-18.9-0.2c-20.7-0.2-33.8-0.2-47.6-0.1
	c0.3-7.2,0.5-13.7,0.2-13.7c-0.1,0-0.2-0.1-0.2-0.2c0-0.1-0.2-0.5-0.5-0.8c-0.8-0.9-2.4-1-4.4-0.2c-0.9,0.3-4.3,1.2-7.6,1.9
	c-3.3,0.7-8.4,1.9-11.3,2.6c-2.9,0.7-7.2,1.7-9.6,2.3c-2.3,0.5-5.2,1.2-6.3,1.5c-2.1,0.6-8.4,1.9-11.2,2.5c-1.2,0.2-1.7,0.4-2.3,0.9
	c-1.2,1.1-1.2,3,0.1,4c0.2,0.2,1.3,0.7,2.3,1.2c1,0.5,4.3,1.9,7.2,3.2c2.9,1.3,7.1,3.1,9.2,4c2.1,0.9,4.7,2,5.7,2.4
	c2.7,1.1,7.2,2.9,12.9,5.1c2.8,1,6.3,2.4,7.7,2.9c1.4,0.6,3,1.1,3.5,1.2c1.6,0.2,2.8-0.7,3.2-2.5c0.2-0.9,0.6-6.8,0.9-13.3
	c0.8,0,1.5,0,2.2,0c14.2-0.2,52.5-0.2,56.6,0c1,0,4.5,0.1,9.2,0.2c2.3,5.9,7.7,12,17.7,20.4c4.8,4,5.7,4.6,7,4.9
	c0.8,0.2,1.9,0.3,2.3,0.2c2-0.4,17.7-12.8,21.3-16.9c2.3-2.5,4.2-5.1,5.7-7.4c16,0.4,31.2,0.9,41.5,1.4c1.2,2,2.6,3.9,4.1,5.2
	c4.1,3.6,13.4,8.1,20.6,10c2.2,0.6,7.1,1.5,7.4,1.4c0.4-0.2-2.9-3.9-7.2-8.1c-0.2-0.2-0.4-0.5-0.3-0.7c0-0.3,0.5,0,2.5,1.3
	c4.3,3,6.7,4.9,8.6,6.5c1,0.9,2.1,1.6,2.3,1.7c0.8,0.1,7.8,0.5,11.2,0.5l3.2,0.1l-0.6-0.8c-0.3-0.4-1.3-1.6-2.2-2.7
	c-2.4-2.8-2.1-3,1.1-0.6c1.4,1.1,3.1,2.5,3.8,3l1.2,1l4.1-0.3c2.3-0.2,5.2-0.6,6.5-0.8c3.1-0.6,6.9-1.8,6.9-2.1
	c0-0.1-1.2-1.5-2.7-2.9c-1.7-1.7-2.7-2.8-2.7-3.1c0-0.4,0.1-0.3,1.2,0.4c1.5,1,4.6,3.3,5.6,4.2c0.4,0.4,0.9,0.7,1,0.7
	c0.9,0,11.5-5.3,15.1-7.6C371.8,248.9,373.1,247.6,373.5,246.8z M357.7,246.7c-24.8,0-42.5-0.8-60.2-2.5c-3.6-0.4-8.4-0.8-10.6-1
	c-0.1,0-0.2,0-0.3,0c0-0.7-0.1-1.4-0.2-2.1c0.1,0,0.3,0,0.4,0c15.3,1.3,33.3,2.4,51.3,3c4.5,0.1,9.3,0.3,10.8,0.4
	c4,0.2,10.7,0.7,11.4,0.8c0.3,0.1,2.2,0.1,4,0.2c1.9,0,3.5,0.1,3.6,0.2c0.1,0.1,0.2,0.3,0.2,0.6
	C368.2,246.7,367.9,246.7,357.7,246.7z"/>
</svg>
