<?xml version="1.0" encoding="utf-8"?>
<!-- Generator: Adobe Illustrator 18.0.0, SVG Export Plug-In . SVG Version: 6.00 Build 0)  -->
<!DOCTYPE svg PUBLIC "-//W3C//DTD SVG 1.1//EN" "http://www.w3.org/Graphics/SVG/1.1/DTD/svg11.dtd">
<svg version="1.1" id="Layer_1" xmlns="http://www.w3.org/2000/svg" xmlns:xlink="http://www.w3.org/1999/xlink" x="0px" y="0px"
	 viewBox="0 0 432 432" enable-background="new 0 0 432 432" xml:space="preserve">
<path fill="#131313" d="M396.6,339.8c-1.3,0-2.6,0.2-3.8,0.6c-1.4,2.7-3,4.6-4.7,5.7c-1.7,1.1-3.5,1.6-5.3,1.5c-2-0.1-4-0.9-6.2-2.1
	c-2.1-1.4-4.1-3.1-6-5.1c-3.7-3.8-6.9-8.5-9.6-14.1c-2.6-5.4-4-10.4-4.3-14.9c-0.1-6.8-2.5-11.1-7-13c-4.7-1.8-7.5,0.2-8.5,6.2
	c-0.1,2.6-0.3,8.1-0.4,16.6c0,8.4-0.4,17.5-1.3,27.3c-0.7,7.7-1.8,15-3.2,22.1c-1.4,7.1-3.5,12.7-6.2,16.8c-1.4,2.3-3.1,4-4.9,5.1
	c-1.8,1.1-3.9,1.5-6.2,1.1c-2.1-0.4-3.2-4.1-3.2-11.1c0-7.1,0.4-15,1.3-23.6c0.6-5.8,1.2-11.6,1.9-17.2c0.7-5.7,1.3-10.5,1.9-14.5
	c-1.3-3.7-4.6-5.9-10-6.6c-5.4-0.7-8.8,0.2-10.2,2.8c-0.9,3-1.6,7.5-2.3,13.4c-0.6,6.1-1.4,12.1-2.6,18.1
	c-2.1,7.7-6.2,14.4-12.1,20.2c-5.8,5.8-10.6,8.4-14.3,7.9c-2.6-0.3-3.1-5.4-1.7-15.3c1.3-9.8,2.8-20.9,4.5-33.4
	c1-6.7,1.8-13.3,2.3-20c0.6-6.7,0.7-12.8,0.4-18.3c-1-2.6-3.3-4.7-7-6.4c-2.3-1-4.4-1.6-6.4-1.7c-1.3,0-2.5,0.3-3.6,0.9
	c-1,0.3-1.9,0.9-2.8,1.7c-0.9,0.7-1.5,1.7-1.9,3c0.4,0.4,0.6,1.5,0.6,3.2v7c-0.3,5.4-0.6,12.1-1.1,20c-0.4,6.3-0.6,12.5-0.6,18.8
	c-1,1.9-2,3.8-3.2,5.9c-2.4,4.1-5,8.3-7.9,12.6c-5.4,7.8-11.2,14.5-17.5,20.2c-6.2,5.8-11.8,8.2-16.6,7c-4.4-1-7.7-4.3-9.8-9.8
	c-2-5.5-3.1-11.9-3.4-19.2c-0.1-4.1-0.1-8.2,0.2-12.3v-0.2c4.8-2.3,9.1-5,12.8-8.1c7.9-6.7,11.8-16.2,11.7-28.5
	c-0.1-7.8-2.6-13.8-7.5-18.1c-3.7-3.1-7.7-4.7-11.9-4.7c-1.4,0-2.8,0.1-4.3,0.4c-3.3,0.7-6.5,2.3-9.6,4.9c-3.3,2.6-6.2,6.1-8.7,10.6
	c-5.7,10.2-8.8,21.9-9.4,35.1v3.2c0,2.8,0.1,5.5,0.4,8.2c-0.3,0.7-0.7,1.3-1.1,2c-2.4,4.8-5,9.9-7.9,15.1
	c-4.4,7.8-8.9,14.9-13.4,21.3c-4.5,6.4-8.2,9.2-11.1,8.3c-1.1-0.3-1.5-3.4-1.1-9.4s1.1-13.2,2.1-21.7c0.4-4.7,0.9-9.5,1.3-14.5
	c0.4-5,0.8-9.9,1.1-14.9c0.6-11.5,0.1-21.7-1.3-30.7c-1.4-9.1-5.1-13.8-11.1-14.3c-2.4-0.1-4.8,0.4-7,1.7c-2.4,1.3-4.7,3-6.8,5.1
	c-4,4-7.4,8.7-10.2,14.1c-2.8,5.5-4.7,9.9-5.5,13.2c-0.3-5.5-0.5-11.1-0.6-16.6c-0.1-5.7-0.8-10.4-1.9-14.3c-0.6-2-1.4-3.6-2.3-4.9
	c-1-1.3-2.3-2-3.8-2.1c-0.6-0.1-1.2-0.2-1.9-0.2c-1.7,0-3.4,0.3-5.1,0.9c-2.3,0.9-4.1,2.4-5.5,4.7c2.6,2,3.2,7.4,1.9,16.2
	c-1.3,8.7-2.7,18.6-4.3,29.8c-0.9,6.1-1.5,12.3-1.9,18.7c-0.3,3-0.4,6-0.4,8.9c0,3.3,0.1,6.5,0.4,9.6c3.1,6.4,6.8,8.9,11.1,7.5
	c4.3-1.4,8.2-4,11.9-7.9c0.6-1.3,1.1-4.3,1.5-8.9c0.4-4.5,0.8-9.7,1.1-15.3c0.1-3,0.3-6,0.4-9.2c0-3.1,0.1-6,0.2-8.7
	c0.9-2.6,1.9-5.3,3.2-8.3c1.3-2.8,2.7-5.7,4.3-8.5c2.8-5.4,6-10.1,9.4-14.3c3.3-4.1,6.1-6.1,8.5-6c1.4,0.1,1.3,5-0.2,14.7
	c-1.4,9.7-2.7,20.5-3.8,32.6c-0.7,8.2-1,16.3-0.9,24.3c0,8,1,14.8,3,20.7c1.3,3.7,3,6.7,5.1,9.2c2,2.4,4.6,4,7.9,4.9
	c0.9,0.1,1.6,0.2,2.3,0.2c4.5,0,9.2-3,14.1-8.9c5.8-7.1,11.1-15,16-23.6c1.7-3.1,3.3-6.2,4.8-9.2c1.2,4.2,2.9,8.1,5,11.8
	c3,5.4,6.9,9.9,11.7,13.6c4.8,3.7,10.7,6.2,17.7,7.5c1.4,0.1,2.8,0.2,4,0.2c6.5,0,12.8-2.6,18.9-7.7c7.4-6.2,13.9-13.7,19.6-22.4
	c2-2.9,3.8-5.8,5.6-8.7c0.4,7,1.2,13.4,2.5,19.1c1.8,8,5.3,12.3,10.4,13.2c6.1,0.9,12.3-1.3,18.5-6.4c6.4-5.2,10.6-10.4,12.8-15.3
	c-0.1,3.4,0.6,7.4,2.3,11.9c1.6,4.7,3.8,8.7,6.8,12.1c1.6,2,3.3,3.6,5.3,4.9c2.1,1.3,4.3,2.1,6.6,2.6c1.6,0.1,3.1,0.2,4.7,0.2
	c7,0,12.8-2.9,17.5-8.7c5.7-7.1,9.8-15.5,12.3-25.3c1.4-5.2,2.4-10.6,3-16c0.6-5.2,0.7-10.1,0.4-14.5c0.4,1.1,2,3.5,4.7,7.2
	c2.8,4.1,6.3,7.6,10.4,10.4c1.8,1.3,3.7,2.3,5.5,3c2,0.9,4,1.2,6,1.1c3,0,5.9-1.1,8.7-3.2c3-2.1,5.8-5.7,8.5-10.6
	C399,340,398,339.7,396.6,339.8z M195.4,334.3c1.4-9.5,3.5-17.8,6.2-24.9c2.7-7,5.3-10.1,7.9-9.6c2.8,0.7,4.2,4.6,4,11.7
	c-0.1,7.1-3.1,14-8.7,20.7c-2.7,3.1-6.1,6-10.2,8.5C194.8,338.5,195.1,336.4,195.4,334.3z M80.1,68.6c0.8,10.2,2.1,22.7,4.1,37.8
	c0.1,0.9,0.2,1.7,0.3,2.6c1.9,14.2,5,29.4,9.2,45.5c0.2,0.7,0.5,1.4,0.9,2c0.3,0.6,0.8,1.1,1.4,1.7c2.2,2,5.1,3,8.6,3.2
	c1,0.1,1.8,0.1,2.5,0c2-0.2,3.2-1.1,3.5-2.6c-0.6-6-1.6-13.2-2.9-21.8c-1.5-8.6-2.7-16.8-3.8-24.6c1.6-1.2,4.3-2.3,8.2-3.2
	c3.8-0.9,7.4-0.6,10.6,0.9c1.9,0.9,3.6,2.5,5.1,4.9c1.5,2.3,2.7,4.9,3.6,7.8c1.4,4.3,2.1,8.6,2.3,13c0.1,4.4-0.5,7.3-1.8,8.9
	c-2,2.4-4.7,3.6-8.3,3.6c-3.5,0-5.3-1.6-5.3-4.7c-0.3-0.5-0.7-0.7-1-0.8c-0.3,0-0.6,0.1-0.9,0.1c-0.6,1.4-0.8,3.1-0.6,5.1
	c0.2,2.1,1.2,3.4,2.8,3.8c9.3,2.5,16.3,1.6,21.4-2.7c4.6-4.1,6.5-11,5.7-20.7c-0.1-0.8-0.1-1.6-0.2-2.4c-0.9-7.3-3.3-12.4-7.4-15.4
	c-4.2-3-8.5-4.8-13-5.4c-2.4-0.3-4.7-0.3-6.9-0.2c-2.2,0.2-4,0.6-5.6,1.1c0.5-0.8,2.4-3.4,6-7.8c3.6-4.5,6.9-10.2,9.8-17.4
	c1.5-3.8,2.8-8,3.8-12.4c0.9-4.4,1.3-9,0.9-13.9c-0.3-5.9-2.8-10.6-7.5-14c-3.2-2.4-6.5-3.4-9.8-3c-1.5,0.1-2.9,0.6-4.3,1.4
	c-2.5,1.3-4.5,3.9-6.1,7.7c-1.5,3.8-2.8,8-3.7,12.7c-1.3,7-2.1,13.8-2.4,20.2c-0.3,6.6-0.6,10.2-1,10.7c-0.6-0.3-1.2-2.8-1.9-7.3
	c-0.6-4.4-1.7-9.8-3.2-16c-0.8-3.4-1.8-6.9-2.9-10.6c-1.1-3.6-2.5-7.3-4.3-10.8c-1-1.3-2.7-2.2-5-2.6c-2.3-0.5-3.4,0.8-3.3,4
	c0.5,1.6,0.9,4.2,1.2,8C79.4,58.5,79.7,63.1,80.1,68.6z M102.6,89.6c0.3-5.7,0.8-11,1.6-16.1c1.4-9.5,3.2-17.3,5.5-23.6
	c2.2-5.8,4.1-8.7,5.6-8.9c0.1,0,0.2,0,0.3,0.1c1.9,0.2,3,2.6,3.5,7c0.1,1.1,0.2,2.3,0.2,3.7c0.1,6.8-0.5,14.4-1.8,22.6
	c-0.9,5.5-2,10.9-3.4,16.1c-1.3,5.3-2.8,9.7-4.4,13.2c-0.4,1-1.3,1.8-2.6,2.6c-0.8,0.4-1.5,0.6-2.3,0.7c-0.6,0.1-1.3,0.1-1.9-0.1
	C102.4,101.1,102.3,95.3,102.6,89.6z M151.7,109.1c-1.3,3.1-2.4,5.7-3.2,7.7c0.8,0.5,1.5,0.8,2.2,0.7c0.7-0.1,1.4-0.4,2.1-0.7
	c0.8-2,1.8-4.6,3.3-7.8c1.4-3.3,2.8-6.8,4.2-10.3c0.2-0.5,0.4-1.1,0.6-1.7c2.6,1.1,5.6,1.9,9.2,2.4c-1.9,2.9-3.4,6.4-4.3,10.7
	c-0.9,4.3-1.3,8.7-1.2,13.1c0.3,6.6,1.8,12.6,4.3,18c2.6,5.4,6.4,8.2,11.4,8.3c0.3,0.1,0.5,0.1,0.7,0.1c3.1-0.2,6.2-2.5,9.4-6.7
	c3.4-4.6,6.6-9.6,9.4-14.9c0.2-0.4,0.4-0.8,0.7-1.2c0,0.4,0,0.7,0,1.1c0,0.5,0,1,0,1.4c0.2,4.9,2.5,8.5,6.7,10.6
	c4.2,2.2,8.6,3,13.2,2.5c1.7-0.2,3.4-2,5.2-5.4c1.7-3.4,3.4-7,4.9-10.7c1-2.5,1.8-4.8,2.4-6.9c0.5-1.8,0.9-3.2,1.2-4.2
	c-0.4,2.3-0.8,5.1-1.3,8.4c-0.6,3.6-1,7.3-1.2,11c-0.1,2,0,3.9,0.1,5.8c0.2,1.9,0.5,3.6,1.1,5.2c0.6,1.9,1.5,3.5,2.7,4.7
	c1.2,1.2,2.9,2,5,2.2c0.1,0,0.3,0,0.4,0c2.3,0,4.9-2.1,8.1-6.4c3.2-4.5,6.4-9.5,9.4-14.9c1.3-2.2,2.5-4.4,3.6-6.5
	c-0.2,1.6-0.3,3.2-0.3,4.8c-0.1,2,0,3.9,0.1,5.9c1.8,3.9,4.1,5.5,6.7,4.7c2.7-0.8,5.2-2.3,7.6-4.5c0.4-0.8,0.8-2.6,1.1-5.4
	c0.4-2.8,0.7-5.9,1.1-9.3c0.2-1.8,0.3-3.7,0.5-5.6c0.1-1.9,0.2-3.7,0.4-5.3c0.6-1.5,1.4-3.2,2.3-5c0.9-1.7,1.9-3.4,3-5.1
	c2-3.2,4.1-6,6.5-8.4c2.2-2.4,4.2-3.5,5.7-3.3c0.9,0.1,0.7,3.1-0.6,8.9c-1.3,5.8-2.4,12.4-3.6,19.7c-0.7,5-1.2,9.9-1.3,14.8
	c-0.3,4.8,0.1,9.1,1.2,12.7c0.7,2.3,1.6,4.2,2.8,5.8c1.1,1.5,2.7,2.6,4.7,3.3c0.5,0.1,1,0.2,1.4,0.2c2.8,0.2,5.8-1.4,9-4.9
	c3.9-4.1,7.6-8.6,11-13.6c0.5-0.7,0.9-1.4,1.4-2.1c0.9,3.6,2.4,6.7,4.7,9.3c3.2,3.8,7.6,5.7,13.1,5.8c2,0.1,4.2-1.1,6.5-3.8
	c1.7-1.9,3.3-4.1,4.8-6.5c-0.1,1.5-0.2,2.9-0.4,4.4c-0.3,4.4-0.1,8.2,0.7,11.3c0.4,1.7,1,3.2,1.7,4.4c0.8,1.1,1.9,2,3.3,2.5
	c0.5,0.2,1,0.4,1.7,0.5c2,0.2,4.2-0.4,6.5-1.8c3-1.9,6.1-4.4,9.2-7.6c1.6-1.7,3.3-3.5,4.9-5.4c1.6-1.9,3.2-3.8,4.7-5.6
	c2.7-3.6,5.2-6.8,7.2-9.9c2.2-3,3.7-5.1,4.5-6.3c-0.6-0.6-1.4-1-2.1-1.2c-0.7-0.2-1.4-0.1-2.1,0.2c-0.9,1.3-2.4,3.3-4.6,6.2
	c-2,2.8-4.4,5.8-7,9c-3.9,4.9-7.9,9.3-11.9,13.4c-4.1,4-7.1,5.6-9.3,4.6c-0.4-0.1-0.3-1.9,0.5-5.4c0.9-3.5,2-7.9,3.6-13.3
	c0.8-3,1.7-6.1,2.8-9.4c1-3.4,2-6.8,3.2-10.3c2.5-8.1,5-16.2,7.5-24.3c2.6-8.2,4.6-15.3,6.2-21.2c0.8-3.1,1.4-5.8,1.9-8.1
	c0.4-2.3,0.6-3.9,0.5-4.8c-0.1-1.5-0.5-2.8-1.1-3.8c-0.6-1-1.3-1.9-2.1-2.5c-1.2-0.9-2.5-1.4-3.9-1.5c-1.1,0-2.1,0-3.2,0.3
	c-2.7,0.6-4.5,2.1-5.3,4.5c1,0.6,1.4,2.4,1.1,5.2c-0.2,2.8-0.8,6.2-1.8,10.1c-0.4,2-1,4.2-1.6,6.5c-0.6,2.3-1.3,4.5-1.9,6.7
	c-1.2,4.2-2.3,8.1-3.5,11.8c-1.1,3.6-1.8,6.2-2.3,7.8c-0.5-4.4-2.9-7.7-7.1-9.8c-4.2-2-8.7-2.3-13.4-0.7c-2.5,0.9-4.9,2.4-7.2,4.4
	c-2.2,2.1-4.1,4.8-5.5,8.1c-1.7,3.9-2.9,7.7-3.5,11.3c-0.3,1.6-0.5,3.2-0.7,4.8c-0.1,1.2-0.1,2.3-0.1,3.5c-1.4,2.2-2.8,4.4-4.4,6.7
	c-3.1,4.5-6.2,8.7-9.3,12.3c-3.1,3.7-5.4,5.2-7.2,4.6c-0.7-0.2-0.8-2.1-0.3-5.7c0.5-3.6,1.2-8,2.2-13.1c0.5-2.8,0.9-5.8,1.4-8.8
	c0.5-3,0.9-6,1.3-9c0.8-7,1-13.2,0.4-18.7c-0.6-5.6-2.8-8.6-6.6-9.1c-1.6-0.2-3.1,0.1-4.6,0.8c-1.6,0.7-3.1,1.7-4.6,2.9
	c-2.7,2.3-5,5-7,8.3c-2,3.3-3.3,5.9-3.9,7.9c0-3.4,0-6.8,0-10.1c0.1-3.5-0.2-6.4-0.9-8.7c-0.3-1.2-0.8-2.2-1.4-3
	c-0.6-0.8-1.4-1.3-2.5-1.4c-0.4-0.1-0.8-0.2-1.2-0.2c-1.1,0-2.2,0.1-3.4,0.4c-1.5,0.5-2.7,1.4-3.7,2.7c1.6,1.3,1.9,4.6,0.9,9.9
	c-1,5.2-2.1,11.2-3.2,17.9c-0.7,1.3-1.7,3.2-2.9,5.5c-1.9,3.6-3.9,7.4-6.2,11.4c-2.7,4.9-5.4,9.4-8,13.5c-2.6,4-4.5,6-5.8,5.8
	c-0.3-0.1-0.4-0.6-0.5-1.6c-0.1-1-0.1-2.3,0-3.9c0.2-3.1,0.7-7.1,1.4-11.8c0.7-4.8,1.4-9.6,2.3-14.4c1-6.1,2.2-11.4,3.3-15.9
	c1.2-4.7,2.1-6.9,2.7-6.7c0.1-0.5,0.1-1-0.1-1.3c-0.1-0.4-0.3-0.8-0.7-1c-1.3-1.1-3.5-1.5-6.6-1c-3,0.4-4.8,1.3-5.4,2.6
	c-0.2,0.6-1.1,3.7-2.8,9.2c-1.6,5.5-3.5,11.3-5.7,17.2c-1.7,4.8-3.3,9-5,12.8c-1.7,3.7-3,5.5-4.2,5.5c-2.6,0-3.9-2.6-4-8
	c0-5.5,0.9-11.5,2.7-18c1.5-5.1,3.4-10,5.7-14.5c2.4-4.6,5.1-7.8,8-9.5c1.7-1,3.3-1.4,5-1.3c1.7,0.1,3.3,0.9,5,2.5
	c0.5-0.2,0.7-0.4,0.8-0.8c0.1-0.4,0-0.8-0.3-1.2c-1.2-1.6-3.2-2.7-5.9-3.3c-2.1-0.5-4.3-0.8-6.4-0.8c-0.6,0-1.1,0-1.7,0
	c-1.4,0.1-2.7,0.3-4,0.5c-1.2,0.3-2.2,0.6-3,1.1c-1.8,0.9-3.5,2.2-5.4,3.8c-1.8,1.7-3.6,3.7-5.3,5.9c-3.1,4.3-5.7,9.4-7.7,15.4
	c-0.5,1.7-1,3.3-1.3,5c-0.2,0.5-0.5,1-0.8,1.5c-1.5,3-3.2,6.2-4.9,9.5c-2.8,5-5.6,9.8-8.5,14.2c-2.9,4.5-5.2,6.6-6.8,6.4
	c-3-0.2-4.7-2.4-5.1-6.6c-0.3-4.2-0.1-9.1,0.8-14.6c0.4-2.3,0.9-4.6,1.4-7.1c0.5-2.4,1.1-4.7,1.7-6.9c1.1-4,2-7.6,2.9-10.5
	c0.9-2.9,1.3-4.6,1.3-5c-0.1-0.7-0.4-1.2-0.9-1.7c-0.5-0.5-1.1-0.9-1.7-1.2c-0.9-0.4-2.1-0.7-3.5-0.9c-1.3-0.2-2.7-0.3-4.3-0.3
	c-2.7,0-5.3,0.1-7.9,0.3c-1.5,0.2-2.5,0.3-3,0.3c1.1-3.2,1.9-6.2,2.5-9.1c0.9-4.7,0.1-7.3-2.6-7.8c-1-0.2-2-0.3-2.8-0.2
	c-2.6,0.2-4.8,1.5-6.5,4c-2.2,3.4-2.2,6.9,0,10.6c1,1.7,2.4,3.2,4.3,4.5c-0.5,1.4-1.1,2.9-1.6,4.4
	C154.4,102.7,153,105.9,151.7,109.1z M337.5,127.6c0.2-2.5,0.6-5.1,1.2-7.7c0.6-2.7,1.5-5.5,2.6-8.2c3.3-8.3,6.6-12.4,9.8-12.2
	c3.1,0.1,5.5,3,6.9,8.7c-0.5,1.8-1.2,4.6-2.2,8.4c-1,3.8-1.9,8-2.8,12.5c-0.1,0.3-0.2,0.6-0.2,0.9c-0.7,1.1-1.3,2.2-2,3.4
	c-1.6,2.7-3.3,5.2-5.1,7.4c-1.8,2.3-3.2,3.3-4.3,3.2c-1.3-0.1-2.3-1.8-3.1-4.9C337.4,136.1,337.2,132.2,337.5,127.6z M158.1,84.1
	c0.3-1.7,0.7-3.1,1.3-4.3c0.6-1.2,1.2-1.7,2-1.6c1,0.2,0.9,2.5-0.5,6.8c-0.7,2.1-1.5,4.4-2.4,6.7c-0.2-0.5-0.4-1.1-0.4-1.8
	C157.8,88.1,157.8,86.1,158.1,84.1z"/>
<path fill="#B09856" d="M94.6,223.5c2.5-2.4,4.9-5.1,7.1-8.3c2.2-3.1,4.3-6.4,6.3-9.9c2-3.5,3.8-7,5.5-10.5c1.7-3.5,3.2-6.9,4.5-10
	c0.1-1.5-0.1-2.3-0.6-2.3c-0.5,0-1.1,0.2-1.9,0.6c-1,2.2-2.2,4.5-3.5,7.1c-1.3,2.6-2.6,5.2-4,7.7c-1.4,2.6-2.8,5.1-4.2,7.5
	c-1.4,2.4-2.8,4.5-4,6.3c0.6-1.7,1.1-3.8,1.5-6.4c0.4-2.5,0.7-5.2,0.8-8.1c0.1-2.9,0.1-5.9-0.1-9c-0.2-3.1-0.6-6.1-1.1-9
	c-0.5-2.9-1.3-5.7-2.2-8.2c-0.9-2.5-2.1-4.7-3.5-6.5c-1.4-1.8-3-3-4.9-3.9c-1.9-0.8-4-1-6.4-0.5c-2.6,0.6-5.1,1.9-7.5,3.8
	c-2.4,2-4.6,4.5-6.7,7.6c0-0.6-0.1-1-0.3-1.3c-0.3-2.8-1.3-5-2.8-6.7c-1.6-1.7-3.4-2.7-5.6-2.9c-0.4-0.3-0.9-0.3-1.4,0
	c-1.9,0.1-3.6,0.7-4.9,1.8c0.5,4.2,0.7,9.3,0.8,15.5c0.1,6,0,12.6-0.1,19.6c-0.4,0.4-0.9,1.3-1.5,2.6c-2.6,5.4-5.4,10-8.4,13.7
	c-0.6,0.8-1.2,1.6-1.8,2.3c-0.6,0.7-1.3,1.4-1.9,2.1l-0.6-4.8c-0.6-4.8-1.4-9.5-2.4-14.3c-1-4.8-1.8-9.3-2.6-13.5
	c-0.8-4.3-1.3-8.2-1.6-11.7c-0.3-3.5-0.1-6.5,0.6-8.8c0.2-0.6,0.3-1.3,0.1-2.2c-0.1-0.9-0.4-1.4-0.9-1.6c-2-0.9-3.8,0-5.4,2.7
	c-1.6,2.7-2.9,6.8-3.7,12.1l-0.2,0.9c-0.4,1.3-0.9,2.7-1.4,4.2c-0.5,1.5-1.1,3.3-1.9,5.2c-0.7,1.9-1.5,4.1-2.5,6.6
	c-1,2.4-2.1,5.2-3.5,8.3c0.4,0.1,1,0.1,1.6,0c0.6-0.1,1.1-0.3,1.5-0.6c0.1-0.1,0.4-0.5,0.8-1.2s0.8-1.7,1.3-2.8
	c0.5-1.1,1-2.4,1.6-3.9c0.6-1.4,1.1-2.9,1.7-4.4l0.4-1c0,0.1,0.1,0.3,0.1,0.8c0,0.8,0,1.6,0.1,2.7c0.1,1,0.3,2.6,0.7,4.9
	c0.4,2.3,1,5.4,1.7,9.3c0.8,4,1.9,9.3,3.3,15.9c-4.5-0.6-8.9,0-13.1,1.8c-2.2,0.9-4,2.4-5.5,4.4c-1.5,2-2.6,4.3-3.1,6.7
	c-0.5,2.5-0.5,4.9,0.2,7.5c0.7,2.5,2.1,4.7,4.3,6.5c2,1.7,4.3,2.8,7,3.4c2.7,0.6,5.3,0.6,8,0c2.6-0.6,5.1-1.9,7.3-3.8
	c2.2-1.9,3.9-4.6,5-8.1c0.6-1.8,1-3.7,1.3-5.7c0.3-2,0.4-4.2,0.4-6.4l-0.1-3.2c0.2-0.1,0.4-0.3,0.5-0.5c0.1-0.2,0.3-0.3,0.4-0.5
	c2.5-2.6,4.8-5.5,6.7-8.5c1.8-2.9,3.6-6.3,5.5-10c-0.2,5.4-0.4,10.9-0.7,16.6c-0.4,8-0.9,15.8-1.3,23.6c-0.5,7.7-1,15.1-1.5,22.2
	c-0.5,7-1,13.3-1.5,18.8c-0.1,1.6-0.1,3.1,0.1,4.6c0.1,1.4,0.4,2.7,0.9,3.9c0.5,1.2,1.2,2.2,2.2,3c1,0.8,2.3,1.5,4,1.9
	c1.6,0.4,3,0.1,4.1-1.1c1.1-1.1,1.7-3.3,1.9-6.4c1.1-8.1,2.2-17.5,3.3-28.2c1.1-10.7,1.9-22.8,2.5-36.4c1.3,1.2,2.7,2.1,4.3,2.8
	c1.6,0.7,3.3,1.1,5.1,1.2c2.9,0.2,5.7-0.4,8.5-1.8C89.5,227.7,92.1,225.8,94.6,223.5z M30.3,233.8c-0.5,2.3-1.5,4.3-2.7,5.9
	c-1.3,1.6-2.8,2.7-4.7,3.3c-1.9,0.6-3.8,0.4-5.9-0.7c-1.5-0.7-2.5-1.7-2.9-3c-0.4-1.3-0.5-2.7-0.2-4.1c0.3-1.4,0.9-2.8,1.8-4.1
	c0.9-1.3,1.9-2.4,3.1-3.2c1-0.6,2-1.1,3.1-1.4c1.1-0.3,2.1-0.5,3.2-0.6c1-0.1,2,0,2.9,0.1c0.9,0.1,1.7,0.3,2.3,0.6
	C30.8,229.1,30.8,231.5,30.3,233.8z M85.8,201.8c-0.4,2.6-0.8,5.1-1.4,7.4c-0.5,2.3-1.2,4.4-1.8,6.4c-0.7,1.9-1.4,3.5-2.2,4.8
	c-0.7,1.3-1.6,2.1-2.6,2.7c-1,0.5-2,0.8-3,0.7c-1,0-2-0.3-3-0.9c-1-0.5-1.9-1.3-2.7-2.2l0-0.2c0.1-3.3,0.1-6.7,0.2-10.2
	c0.1-3.5,0.1-7.1,0.1-10.6c0-3.5,0.1-7,0.1-10.3c0-3.4,0-6.6,0-9.5c0.6-1,1.4-2.1,2.3-3.5c0.9-1.4,1.9-2.7,3.1-3.9
	c2-2.3,3.7-3.5,5.1-3.7c1.4-0.2,2.6,0.2,3.5,1.4c0.9,1.1,1.6,2.7,2.1,4.8c0.5,2.1,0.8,4.3,1,6.7c0.2,2.3,0.3,4.6,0.2,6.8
	c0,2.2-0.1,3.9-0.2,5.3C86.5,196.5,86.2,199.2,85.8,201.8z M285.2,170.4c-0.7-3.3-0.8-5.8-0.5-7.4c0.3-1.6,0.9-2.6,1.8-3.1
	c0.8-0.4,1.7-0.5,2.7-0.1c1,0.4,2,0.9,3,1.8c1,0.8,1.9,1.8,2.7,3c0.8,1.1,1.4,2.3,1.8,3.5c0.4,1.1,0.4,2.1,0.1,3.1
	c-0.3,1-0.9,1.9-1.6,2.6c-0.7,0.8-1.6,1.3-2.6,1.7c-1,0.4-2,0.5-3,0.3c-1-0.2-1.9-0.7-2.7-1.6C286.1,173.4,285.5,172.1,285.2,170.4z
	 M424.1,184.7c-0.1-0.3-0.4-0.6-0.6-0.7c-0.3-0.2-0.6-0.2-1-0.2c-0.4,0-0.8,0.3-1.2,0.7c-1.1,2.5-2.3,5.2-3.6,8.1
	c-1.3,2.9-2.5,5.7-3.8,8.5c-1.3,2.8-2.5,5.4-3.7,7.8c-1.2,2.4-2.3,4.4-3.4,6.1l-0.2,0.3c0.1-3.8,0.2-7.3,0.2-10.7c0-3.4,0-6.4,0-8.9
	c0-0.9-0.1-1.8-0.1-2.6c0-0.8-0.1-1.6-0.3-2.4c-0.2-0.8-0.5-1.5-0.9-2.2c-0.4-0.7-0.9-1.3-1.7-1.9c-1.2-1-2.6-1.4-4.1-1.4
	c-1.5,0-2.8,0.9-3.8,2.5c-1,1.6-2,3.4-3,5.6c-1,2.2-2.1,4.5-3.1,6.9c-1.1,2.4-2.2,4.8-3.3,7.2c-1.1,2.4-2.3,4.6-3.5,6.5
	c-1.4,2.4-2.7,4-3.9,5c-1.2,0.9-2.1,1-2.8,0.2c-0.8-1-1.3-2.2-1.5-3.7c-0.2-1.5-0.2-3.1,0-4.8c0.2-1.7,0.6-3.6,1.2-5.5
	c0.6-1.9,1.2-3.7,1.9-5.5c0.7-1.8,1.4-3.4,2.2-4.9c0.7-1.5,1.4-2.8,2-3.8c2.4-4,5.1-7.6,8.3-10.7c3.1-3.1,6.3-5.4,9.6-7
	c1.4-0.7,2.2-1.8,2.5-3.2c0.3-1.4,0.2-2.9-0.2-4.4c-0.4-1.5-1.1-2.9-2-4.2c-0.9-1.3-2-2.2-3-2.6c-2-0.9-4.4-1.2-7.3-0.8
	c-2.9,0.5-5.8,1.8-8.5,3.9c-2.7,2.1-5.2,4.7-7.5,7.8c-2.3,3.1-4.4,6.6-6.3,10.5c-1.9,3.9-3.4,7.9-4.6,12c-1.2,4.1-2.1,8.2-2.6,12.2
	c-0.1,0.9-0.2,1.7-0.3,2.6c-1.1,2.6-2.3,5.3-3.5,8.1c-1.3,2.9-2.6,5.6-3.9,8c-1.6,3-2.9,4.9-3.9,5.8c-1,0.9-1.7,1.1-2.1,0.6
	c-0.5-0.5-0.7-1.5-0.8-3.1c-0.1-1.6-0.1-3.3,0.1-5.2c0.1-1.9,0.3-3.8,0.5-5.7c0.2-1.9,0.4-3.5,0.5-4.7c0.5-3.9,0.9-7.8,1.3-11.5
	s0.5-7.5,0.2-11.4c-0.3-3.4-1.1-6-2.4-7.9c-1.3-1.9-2.9-3-4.7-3.3c-1.8-0.3-3.8,0.2-6,1.5c-2.1,1.3-4.1,3.4-6,6.3
	c-0.7,1.2-1.5,2.5-2.2,3.8s-1.3,2.6-1.9,3.8c-0.6,1.2-1.1,2.4-1.6,3.4c-0.5,1.1-0.9,1.9-1.2,2.6c0-0.6,0-1.4,0.1-2.3
	c0-0.9,0.1-1.9,0.1-2.9c0-1,0-1.9,0.1-2.9c0-0.9,0.1-1.7,0.1-2.3c0-1.9,0.1-3.7,0.1-5.6c0.1-1.9-0.1-3.5-0.5-5s-1.1-2.7-2.2-3.6
	c-1.1-0.9-2.7-1.4-4.9-1.5c-1.1,0-1.9,0.3-2.5,0.8c-0.5,0.6-0.9,1.3-1.2,2.1c-0.2,0.9-0.4,1.8-0.4,2.9c0,1-0.1,2-0.2,2.9
	c-0.3,6.3-0.7,12.5-1,18.6c-0.1,1.6-0.1,3.1-0.2,4.7c-0.6,1.2-1.2,2.4-1.9,3.7c-1.1,2-2.2,4.1-3.3,6.2c-1.1,2.1-2.2,4.1-3.3,6.1
	c-1.1,2-2.1,3.8-3.1,5.5c-0.9,1.4-1.8,2.4-2.5,3c-0.7,0.6-1.3,0.4-1.7-0.7c-0.5-2.6-0.7-5.5-0.7-8.6c0-3.1,0.2-6.2,0.5-9.3
	c0.3-3.2,0.7-6.3,1.1-9.3c0.4-3.1,0.8-5.9,1.2-8.5c-0.2-1.6-0.8-3-1.7-4.1c-0.9-1.1-2-1.9-3.3-2.5c-1.2-0.5-2.5-0.8-3.8-0.8
	c-1.3,0-2.3,0.4-3.2,1c-0.1,2.9-0.2,5.4-0.4,7.6c-0.2,2.2-0.4,4.2-0.7,5.9c-0.2,1.8-0.5,3.4-0.7,4.8c-0.2,1.3-0.3,2.5-0.4,3.7
	c0,0,0,0,0,0c-1.1,2-2.2,4.1-3.3,6.2c-1.1,2.1-2.2,4.1-3.3,6.1c-1.1,2-2.1,3.8-3.1,5.5c-0.6,0.9-1.2,1.7-1.8,2.4
	c-0.5,0.6-1,1-1.5,0.9c-0.4,0-0.8-0.4-1-1.3s-0.4-2.3-0.4-4.3c0-3,0.1-6,0.4-9c0.3-3,0.6-5.7,0.8-8.1c0.7-6.9,1.6-13.9,2.6-20.9
	c1-7,1.8-14.1,2.2-21.4c0.1-1.3,0.1-2.6,0-3.8c-0.1-1.2-0.4-2.3-0.8-3.3c-0.4-1-1-1.8-1.9-2.5c-0.8-0.7-2-1.2-3.4-1.6
	c-1.4-0.4-2.6-0.1-3.5,0.9c-1,0.9-1.5,2.7-1.6,5.4l-0.7,6.3c-0.7,6.8-1.5,13.6-2.4,20.3c-0.9,6.5-1.5,13.1-2,20
	c-0.6,1.1-1.2,2.3-1.8,3.5c-1.2,2.3-2.4,4.6-3.7,6.7c-0.5,0.9-1.2,2-2,3.3c-0.8,1.3-1.7,2.5-2.7,3.7c-1,1.2-2.1,2.2-3.3,3
	c-1.2,0.8-2.4,1.2-3.7,1.2c-1.3-0.1-2.6-0.6-3.9-1.5s-2.4-2.2-3.6-3.6c-1.2-1.4-2.3-3-3.4-4.6c-1.1-1.7-2.2-3.2-3.4-4.7
	c-1.1-1.5-2.3-2.8-3.4-3.9c-1.2-1.1-2.3-1.8-3.5-2c1.9-0.6,3.8-1.4,5.7-2.3c1.9-0.9,3.8-2,5.6-3.3c1.8-1.2,3.5-2.6,5.1-4
	c1.6-1.5,3.1-3,4.5-4.7c1-1.2,1.9-2.5,2.7-3.8c0.8-1.3,1.3-2.6,1.6-4c0.3-1.4,0.3-2.7,0-4.1c-0.3-1.4-1.1-2.8-2.2-4.4
	c-0.6-0.7-1.2-1.3-1.8-1.7c-0.6-0.4-1.3-0.6-1.9-0.6c-0.6,0-1.2,0.2-1.7,0.7c-0.5,0.4-1,1.1-1.3,2.1c-0.3,0.8-0.7,1.6-0.9,2.4
	c-0.3,0.8-0.6,1.7-0.9,2.6c-1.6,4.1-3.8,7.9-6.6,11.6c-2.8,3.7-6,6.8-9.7,9.3c0.7-6.4,1.6-12.8,2.5-19.1s1.6-12.9,2-19.6
	c0.1-1.3,0.1-2.6,0-3.8c-0.1-1.2-0.4-2.3-0.8-3.3c-0.4-1-1-1.8-1.9-2.5c-0.8-0.7-2-1.2-3.4-1.6c-1.4-0.4-2.6-0.1-3.5,0.9
	c-1,0.9-1.5,2.7-1.6,5.4l-0.7,6.3c-0.7,6.8-1.5,13.6-2.4,20.3c-0.9,6.5-1.5,13.2-2,20.2c-0.2,0.3-0.3,0.6-0.5,0.9
	c-1.2,2.3-2.4,4.6-3.7,7.1c-1.3,2.5-2.6,5-4,7.5s-2.5,4.6-3.6,6.5c-1,1.8-1.8,3-2.4,3.6c-0.5,0.6-0.9,0.6-1.1,0.1s-0.3-1.4-0.2-2.8
	c0.1-1.4,0.2-3.2,0.4-5.4c0.2-1.9,0.4-3.9,0.6-6c0.2-2.1,0.4-4.1,0.6-6c0.2-1.9,0.4-3.5,0.5-4.9c0.1-1.4,0.2-2.4,0.2-3
	c0-1.3-0.1-2.5-0.3-3.6c-0.2-1.1-0.5-2-1-2.7c-0.5-0.7-1.2-1.3-2-1.6c-0.9-0.3-1.9-0.4-3.2-0.2c-0.7,0.1-1.5,0.3-2.4,0.6
	c-0.8,0.3-1.7,0.6-2.5,0.8c-0.8,0.3-1.6,0.4-2.3,0.6c-0.7,0.1-1.3,0.1-1.7-0.1c0.5-1.1,0.8-2.4,1.1-3.9c0.3-1.5,0.5-3.1,0.7-4.8
	c0.1-1.7,0.2-3.4,0.2-5.2c0-1.8-0.2-3.5-0.4-5.2c-0.4-2.6-1.2-4.6-2.2-6c-1.1-1.3-2.3-2.1-3.6-2.3c-1.3-0.2-2.7,0.1-4.1,0.9
	c-1.4,0.8-2.6,2-3.7,3.5c-1.2,1.6-2,3.6-2.6,5.9c-0.5,2.3-0.8,4.7-0.6,7.2c0.1,2.5,0.6,4.9,1.4,7.2c0.8,2.3,2,4.2,3.5,5.8
	c1.2,1.2,2.6,2.1,4.2,2.7c-1,1.9-2,4-3.2,6.2c-1.3,2.5-2.5,4.9-3.8,7.3c-1.3,2.4-2.5,4.6-3.7,6.7c-1.2,2.1-2.3,3.8-3.4,5.2
	c-1.2,1.6-2,2.2-2.6,2c-0.5-0.2-0.9-1-1-2.3c-0.1-1.3-0.1-2.9,0.1-4.9c0.2-2,0.4-3.9,0.7-5.7c0.3-1.9,0.6-3.5,0.9-4.9
	c0.3-1.4,0.5-2.2,0.5-2.4c0.2-1.1,0.3-2,0.3-2.7c0-0.6,0-1.1,0-1.5c0-0.3-0.1-0.6-0.2-0.7c-0.1-0.1-0.2-0.3-0.3-0.4
	c-0.5-0.9-1.2-1.5-2.1-1.8c-0.9-0.3-1.7-0.4-2.7-0.3c-0.9,0.1-1.8,0.4-2.7,0.9c-0.9,0.5-1.6,1.1-2.2,1.9c-0.7,1-1.6,2.4-2.6,4.2
	c-1,1.8-2,3.7-3.1,5.8s-2.3,4.2-3.5,6.3c-1.2,2.1-2.4,4-3.6,5.7c-1.4,2.1-2.7,3.6-3.9,4.3c-1.2,0.7-2.1,0.7-2.8,0.1
	c-0.8-0.8-1.3-1.9-1.5-3.2c-0.2-1.3-0.2-2.7,0-4.1c0.2-1.5,0.6-3,1.2-4.7c0.6-1.6,1.2-3.2,1.9-4.7c0.7-1.5,1.4-2.9,2.2-4.2
	c0.7-1.3,1.4-2.4,2-3.2c2.4-3.4,5.1-6.4,8.3-9.1c3.1-2.6,6.3-4.6,9.6-6c1.4-0.6,2.2-1.5,2.5-2.7c0.3-1.2,0.2-2.5-0.2-3.7
	c-0.4-1.3-1.1-2.5-2-3.6c-0.9-1.1-2-1.8-3.1-2.2c-2-0.8-4.4-1-7.3-0.7c-2.9,0.4-5.7,1.5-8.4,3.3c-2.7,1.8-5.2,4-7.5,6.7
	c-2.3,2.7-4.4,5.7-6.2,9c-1.9,3.3-3.4,6.7-4.6,10.2c-1.2,3.5-2.1,7-2.6,10.4c-0.5,3.4-0.6,6.6-0.2,9.5c0.4,2.9,1.2,5.4,2.5,7.6
	c1.3,2.1,3.2,3.7,5.6,4.6c1.9,0.7,3.6,0.8,5.4,0.4c1.7-0.4,3.3-1.2,4.8-2.4c1.5-1.2,2.9-2.7,4.2-4.4c1.3-1.7,2.5-3.5,3.7-5.3
	c1.1-1.8,2.2-3.6,3.1-5.4c0.9-1.8,1.7-3.3,2.5-4.5c-0.1,1.8-0.2,3.8-0.3,5.9c-0.1,2.1-0.1,4.2,0.1,6.2c0.2,2.6,0.7,4.7,1.4,6.2
	c0.7,1.5,1.5,2.5,2.5,3c1,0.5,2.1,0.7,3.3,0.3c1.2-0.3,2.4-0.9,3.7-1.9c1.2-0.9,2.5-2.1,3.7-3.5c1.2-1.4,2.4-2.9,3.5-4.7
	c1.3-2.1,2.6-4.3,3.9-6.8c1.3-2.4,2.5-4.8,3.8-7.3c1.2-2.4,2.4-4.8,3.5-7.1c1-2.2,2-4.2,3-6.1c1.8,0.1,3.8-0.3,6.1-1.1
	c-0.2,1.6-0.4,3.4-0.6,5.3c-0.2,2-0.4,4-0.6,6.2c-0.2,2.2-0.4,4.3-0.5,6.6c-0.2,2.2-0.2,4.4-0.2,6.5c0,2.1,0.2,4.1,0.4,6
	c0.2,1.9,0.6,3.5,1.1,4.9c0.5,1.4,1.2,2.4,2.2,3.3c0.9,0.8,2,1.3,3.1,1.5c1.1,0.2,2.3,0,3.5-0.6c1.2-0.6,2.3-1.6,3.3-3
	c0.8-1.1,1.7-2.5,2.7-4.3c1-1.8,2.2-4.1,3.5-6.8c1.1-2,2.2-4.3,3.5-6.7c1.2-2.4,2.4-4.8,3.6-7.2c0.1-0.1,0.1-0.2,0.2-0.3
	c-0.2,1.9-0.3,3.9-0.4,5.9c-0.1,2.3-0.1,4.7,0,6.9c0.1,2.3,0.5,4.4,1,6.3c0.6,2.1,1.5,3.5,2.5,4.3c1,0.8,2,1.3,2.8,1.5
	c0.9,0.3,1.8-0.2,2.6-1.3c0.8-1.1,1.4-3,1.9-5.8c0.2-1.1,0.3-2.4,0.4-3.8c0.1-1.4,0.2-3,0.2-4.6c-0.1-2.3,0-4.6,0.2-6.8
	c0.2-2.2,0.4-4.3,0.6-6.3c1.1,3.9,2.4,7.6,4.1,11.1c1.6,3.5,3.4,6.6,5.5,9.1c2,2.6,4.2,4.5,6.5,5.8s4.7,1.6,7.1,0.9
	c1.8-0.5,3.4-1.4,5-2.8c1.5-1.4,3-3,4.3-4.9c1.3-1.9,2.5-3.9,3.6-6c1.1-2.1,2.1-4.2,3-6.2c0.4-1,0.9-2,1.4-3c0,0.4-0.1,0.7-0.1,1.1
	c-0.3,3-0.3,6,0,9c0.2,2.3,0.6,4.7,1.3,7c0.7,2.4,1.8,4.5,3.5,6.3c2,2.1,4.2,2.2,6.6,0.3c1.4-1,2.6-2.4,3.7-4.1
	c1.1-1.7,2.2-3.6,3.4-5.7c1.1-2,2.3-4.1,3.5-6.3c1.1-2.1,2.2-4.2,3.3-6.3c0,2.6,0.1,5.2,0.4,7.8c0.3,2.7,0.9,5.3,1.6,7.8
	c0.8,2.5,1.9,4.6,3.4,6.4c2,2.1,4.2,2.2,6.6,0.3c1.4-1,2.6-2.4,3.7-4.1c1.1-1.7,2.2-3.6,3.4-5.7c1.1-2,2.3-4.1,3.5-6.3
	s2.3-4.4,3.4-6.5c0.6-1.2,1.2-2.4,1.8-3.6c-0.1,2.2-0.1,4.3-0.2,6.5c0,1.3,0,2.7,0,4.2c0,1.5,0.1,3,0.2,4.5c0.1,1.5,0.3,3,0.6,4.5
	c0.3,1.5,0.7,2.8,1.2,4.1c0.6,1.3,1.3,2.3,2.1,2.9c0.9,0.6,1.7,0.9,2.6,0.9c0.9,0,1.7-0.4,2.5-1.1c0.8-0.7,1.4-1.7,1.8-3
	c0.3-1,0.5-2.2,0.6-3.8c0.1-1.6,0.2-3.4,0.3-5.6c0.1-2.2,0.2-4.6,0.3-7.4c0.1-2.8,0.4-5.8,0.7-9.1c0.5-1.8,1.2-3.9,2-6.1
	c0.8-2.2,1.7-4.3,2.6-6.2c0.9-1.9,1.8-3.5,2.7-4.8c0.9-1.3,1.7-1.9,2.3-1.9c1.3,0,2.3,0.8,2.9,2.2c0.6,1.5,0.9,3.4,1,5.7
	c0.1,2.4,0,5.1-0.2,8.1c-0.2,3-0.5,6.1-0.7,9.3c-0.2,3.2-0.4,6.3-0.6,9.3s0,5.7,0.3,8.1c0.3,2.4,1,4.3,2,5.8c1,1.5,2.4,2.2,4.2,2.2
	c1.2,0,2.5-0.4,3.8-1.3s2.7-2.1,4.1-3.5c1.4-1.5,2.7-3.2,4-5.1c1.3-1.9,2.5-4,3.6-6.1c1.3-2.6,2.6-5.3,3.8-8
	c0.1-0.2,0.1-0.3,0.2-0.5c0.4,3.1,1.2,5.8,2.4,8.1c1.3,2.5,3.2,4.3,5.6,5.3c1.9,0.8,3.6,1,5.4,0.5c1.7-0.5,3.3-1.5,4.8-2.9
	c1.5-1.4,2.9-3.1,4.2-5.2c1.3-2,2.5-4.1,3.7-6.3c1.1-2.1,2.2-4.2,3.1-6.3c0.9-2.1,1.8-3.8,2.5-5.3c0,4.9,0,9.9,0,14.7
	c0,4.9,0,9.8,0,14.7c-1,1.3-2.1,2.8-3.3,4.5c-1.2,1.7-2.4,3.5-3.6,5.5c-1.4,2.4-2.9,5-4.3,7.7c-1.5,2.8-2.8,5.6-4.1,8.7
	c-1.5,3.5-3,7.4-4.5,11.6c-1.5,4.2-2.5,8.6-3.2,13c-0.3,2.2-0.5,4.6-0.4,7.4c0,2.7,0.4,5.4,1.1,7.9c0.7,2.6,1.7,4.8,3.1,6.8
	c1.4,2,3.2,3.3,5.6,4.1c1.8,0.5,3.7,0.5,5.7-0.1c2-0.6,4.1-2,6.3-4.1c2.1-2,3.8-4.4,5.3-7.4s2.8-6.2,3.8-9.7s1.9-7.2,2.6-11.1
	c0.7-3.9,1.3-7.8,1.7-11.7c0.5-3.9,0.8-7.7,1.1-11.4c0.3-3.7,0.5-7.1,0.7-10.2c0-0.6,0.1-1.6,0.1-3c0.1-1.4,0.2-3,0.3-5
	c0.1-1.9,0.2-4.1,0.3-6.4c0.1-2.4,0.2-4.8,0.3-7.4c4.3-7.8,7.8-15,10.5-21.5c2.8-6.5,5.1-12.1,7.1-16.6l0.1,0
	C424.3,185.3,424.3,185,424.1,184.7z M175.3,189.5c-0.1,1.4-0.4,2.7-0.7,3.8c-0.3,1.1-0.7,2-1.1,2.6c-1.6-0.5-2.7-1.6-3.3-3.3
	c-0.6-1.7-0.9-3.5-0.8-5.6c0.1-2,0.4-4,1-5.9c0.6-1.9,1.3-3.3,2.1-4.3c0.6,0.1,1.1,0.5,1.6,1.3c0.4,0.8,0.7,1.8,1,3
	c0.2,1.2,0.3,2.6,0.4,4C175.6,186.7,175.5,188.2,175.3,189.5z M391.5,246.6c-0.2,2.3-0.4,4.8-0.6,7.5c-0.3,2.7-0.6,5.6-0.9,8.5
	c-0.3,3-0.8,5.9-1.2,8.7c-0.2,1.1-0.5,2.5-1,4.4c-0.4,1.8-1,3.8-1.6,6c-0.6,2.2-1.4,4.3-2.2,6.5c-0.8,2.2-1.7,4.1-2.6,5.8
	c-0.9,1.7-1.9,3-2.9,4c-1,1-2.1,1.3-3.1,1c-1-0.3-1.7-1.2-2.1-2.6c-0.4-1.4-0.7-3.1-0.7-5.1c0-2,0.1-4,0.3-6.1
	c0.3-2.1,0.6-4,0.9-5.6c0.4-1.7,0.8-3.5,1.4-5.3c0.6-1.8,1.1-3.5,1.7-5.2c0.6-1.6,1.2-3.2,1.8-4.6c0.6-1.4,1.1-2.6,1.5-3.5
	c0.6-1.5,1.3-3,2.1-4.5c0.7-1.5,1.6-3.1,2.5-4.7c0.9-1.6,2-3.3,3.2-5.1c1.2-1.8,2.6-3.8,4.1-5.9
	C391.8,242.4,391.7,244.3,391.5,246.6z M352.9,263.6c-2.3-1.6-2.5-1.7-2.9-1.4c-1.9,1.3-5.6,3.5-5.8,3.5c-0.4,0-0.2-0.4,0.3-0.8
	c1.1-0.7,4.3-3.5,4.3-3.8c0-0.2-3.4-1.7-5.6-2.4c-1.1-0.4-3.1-0.9-4.4-1.1l-2.4-0.5l-1.7,1.4c-0.9,0.7-2.4,1.8-3.3,2.4
	c-0.9,0.6-2.2,1.5-2.9,2c-1.1,0.7-1.3,0.8-1.3,0.6c0-0.2,0.4-0.6,0.9-1c1.1-0.8,5.3-5.1,5.3-5.4c0-0.4-5.8-0.7-17-1l-3.2-0.1
	l-0.9,0.7c-0.5,0.4-1.3,1-1.9,1.4c-1.1,0.9-6.9,4.8-7,4.8c-0.1,0-0.1-0.1-0.1-0.2c0-0.1,0.5-0.6,1-1c1-0.8,5.6-5.4,5.5-5.5
	c0,0-3.3-0.2-7.3-0.2c-8.3-0.2-10.8-0.1-14.1,0.8c-2.3,0.6-5.4,1.9-6.8,2.9c-0.9,0.6-3.6,3.2-4.9,4.6c-10.6-0.6-22.1-1.2-34.2-1.7
	c1.2-2.8,2-5.8,2-9c0-4.5-4.3-6.7-8.3-6.9c-7.6-0.3-10.9,3.7-13.8,9.5c-1.9-5.2-5.6-8.4-11.2-9.7c-5.2-1.2-11.8,2.6-11.8,10.7
	c0,1.4,0.1,2.7,0.4,4c-8.7-0.3-17.4-0.5-26-0.7c-18.3-0.4-30-0.6-42.2-0.6c0.3-6.4,0.6-12.2,0.4-12.2c-0.1,0-0.2-0.1-0.2-0.2
	c0-0.1-0.2-0.4-0.4-0.7c-0.7-0.8-2.1-0.9-3.9-0.2c-0.8,0.3-3.8,1-6.7,1.6c-2.9,0.6-7.5,1.6-10.1,2.2c-2.6,0.6-6.4,1.4-8.6,1.9
	c-2.1,0.5-4.6,1-5.6,1.3c-1.9,0.5-7.5,1.6-10,2.1c-1.1,0.2-1.6,0.4-2.1,0.8c-1.1,1-1.1,2.6,0,3.6c0.2,0.2,1.1,0.6,2.1,1.1
	c0.9,0.4,3.8,1.7,6.4,2.9c2.6,1.2,6.2,2.8,8.1,3.6c1.9,0.8,4.2,1.8,5,2.2c2.4,1.1,6.4,2.7,11.4,4.7c2.5,1,5.6,2.2,6.8,2.7
	c1.3,0.5,2.7,1,3.1,1.1c1.4,0.2,2.4,0.4,2.9-1.2c0.2-0.8,0.6-5.8,1-10.8h2c12.6,0,46.6-0.5,50.3-0.3c1.4,0.1,9-0.1,17.7,0.2
	c0.1,0,0.1,0,0.2,0c3.2,6.9,9.6,11.8,14.2,15.5c1.7,1.3,3.1,2.4,4.1,3.4c0.2,0.1,0.4,0.2,0.6,0.2c0.2,0,0.3-0.1,0.5-0.2l1.6-1.1
	c5-3.6,12.9-9.3,17.7-16.8c14,0.6,27.3,1.2,36.4,1.7c1,1.8,2.3,3.5,3.6,4.7c3.6,3.2,11.8,7.4,18.2,9.2c1.9,0.6,6.3,1.4,6.5,1.3
	c0.4-0.1-2.5-3.5-6.3-7.3c-0.2-0.2-0.3-0.5-0.3-0.6c0-0.3,0.5,0,2.2,1.2c3.8,2.8,5.9,4.4,7.6,5.8c0.9,0.8,1.8,1.4,2.1,1.5
	c0.7,0.1,6.9,0.5,9.9,0.6l2.9,0.1l-0.5-0.7c-0.3-0.4-1.2-1.5-2-2.4c-2.1-2.5-1.8-2.7,1-0.5c1.3,1,2.8,2.2,3.3,2.7l1,0.9l3.7-0.2
	c2-0.1,4.6-0.4,5.8-0.6c2.8-0.5,6.2-1.5,6.2-1.8c0-0.1-1.1-1.3-2.4-2.6c-1.5-1.6-2.4-2.6-2.4-2.8c0-0.3,0.1-0.3,1.1,0.4
	c1.3,0.9,4.1,3,4.9,3.8c0.4,0.3,0.8,0.6,0.9,0.6c0.8,0,10.3-4.6,13.5-6.5c1.4-0.9,2.7-2,3-2.7c0.4-0.8,0.3-1.9-0.2-2.8
	C359.7,268.6,356.4,266,352.9,263.6z M346.3,272.1c-22-0.4-37.8-1.2-53.4-3c-3.2-0.4-7.5-0.8-9.4-1c-0.1,0-0.2,0-0.3,0
	c0-0.6,0-1.2-0.2-1.9c0.1,0,0.2,0,0.4,0c13.5,1.4,29.5,2.5,45.6,3.3c4,0.2,8.3,0.4,9.6,0.5c3.6,0.2,9.5,0.7,10.2,0.8
	c0.3,0.1,1.9,0.1,3.6,0.2c1.7,0,3.1,0.1,3.2,0.2c0.1,0,0.1,0.3,0.1,0.6C355.7,272.2,355.4,272.2,346.3,272.1z M29.8,131.8
	c-1.5-2.4-2-4.1-1.8-7.4c0.1-2.9,0.5-4.6,1.8-7.2c0.9-1.9,2.9-3.8,5.3-5c1.4-0.7,4.2-1.6,6-1.9c1.6-0.3,5.3-0.3,7,0
	c5.7,0.9,12.8,5.4,17.3,10.9c3,3.6,5.5,7.3,6.9,10.3c2.8,5.6,4,9.6,5.8,18.9c0.2,1,0.1,1.7-0.4,2.2c-0.4,0.4-1.5,0.7-1.9,0.5
	c-0.2-0.1-0.3-0.1-0.4-0.1c0,0-0.5-0.4-1.1-0.9c-0.6-0.5-1.5-1.3-2.1-1.7c-0.9-0.7-5.4-3.7-9.1-6c-3-1.9-6.5-3.7-9-4.3
	c-1.9-0.6-5.4-1.1-9.2-1.5c-5.3-0.5-6.1-0.7-6.8-0.8c-1.2-0.3-3.3-1.1-4.4-1.7C32.7,135.1,30.6,133.1,29.8,131.8z"/>
</svg>
