<?xml version="1.0" encoding="utf-8"?>
<!-- Generator: Adobe Illustrator 18.0.0, SVG Export Plug-In . SVG Version: 6.00 Build 0)  -->
<!DOCTYPE svg PUBLIC "-//W3C//DTD SVG 1.1//EN" "http://www.w3.org/Graphics/SVG/1.1/DTD/svg11.dtd">
<svg version="1.1" id="Layer_1" xmlns="http://www.w3.org/2000/svg" xmlns:xlink="http://www.w3.org/1999/xlink" x="0px" y="0px"
	 viewBox="0 0 432 432" enable-background="new 0 0 432 432" xml:space="preserve">
<path fill="#B19A53" d="M135.4,124.7c-1.3,1-2.8,1.8-4.4,2.6c-1.6,0.7-3.2,1.3-4.7,1.7c-1.5,0.4-2.7,0.5-3.5,0.2
	c-1.2-0.8-2.7-2.2-4.3-4.2c-1.7-2.1-3.4-4.5-5.3-7.4c-1.9-2.9-3.8-6.1-5.7-9.5c-1.9-3.5-3.7-7-5.4-10.6c-4.3-8.3-8.7-17.5-12.9-27.7
	c-0.1,2.4-0.1,5.4,0,8.8c0.2,3.5,0.5,7,1.1,10.6c0.6,3.6,1.2,7.2,1.9,10.8c0.7,3.6,1.4,6.8,2.1,9.6c0.7,2.8,1.2,5.2,1.7,7
	c0.4,1.8,0.7,2.9,0.7,3.3c-0.2,1.3-1.7,2.7-4.3,4.5c-1.9,1.3-3.8,2.1-5.6,2.5c-0.4,0-1.4-0.5-3-1.3c-1.6-0.9-3.4-2.1-5.5-3.6
	c-2.1-1.6-4.5-3.3-7.1-5.1c-2.6-1.9-5.4-3.7-8.2-5.6c-6.5-4.5-13.8-9.5-21.9-14.9c1.8,4,4.1,8.1,6.9,12.2c2.7,4.2,5.6,8.2,8.7,12.1
	c3,3.9,6.1,7.7,9.1,11.2c3.1,3.5,5.8,6.6,8.3,9.3c2.5,2.7,4.5,4.9,6.1,6.6c1.5,1.7,2.3,2.7,2.3,3c0.1,0.6-0.3,1.3-1.1,2.2
	c-0.8,0.9-1.6,1.8-2.6,2.7c-0.8,0.7-1.6,1.4-2.4,1.9c-0.8,0.6-1.5,0.8-2,0.6c-2.4-1.1-5.4-3.3-9-6.4c-3.6-3.2-7.5-6.9-11.5-11.3
	c-4-4.4-8-9-12-13.9c-3.9-4.9-7.4-9.6-10.4-14.2c-3-4.5-5.4-8.6-7.1-12c-1.7-3.5-2.5-5.8-2.2-6.9c0.1-0.9,1.4-2.8,3.9-5.6
	c2.5-2.8,5.2-5.5,8.2-7.9c2.1-1.7,4.2-3.1,6.3-4.3c2.1-1.1,3.8-1.7,5.2-1.6c0.8,0,2.1,0.5,3.8,1.4c1.7,1,3.7,2.3,6,3.9
	c2.3,1.6,4.7,3.5,7.2,5.7c2.5,2.2,5.1,4.3,7.7,6.4c5.8,5.3,12.1,11.4,18.7,18.4c-2.4-10.3-4.2-19.8-5.4-28.5
	c-0.6-5.2-1-9.4-1.3-12.5c-0.3-3.1-0.5-6.1-0.6-8.9c-0.1-2.8-0.1-5.2,0-7.2c0.1-2,0.2-3.3,0.5-3.8c0.6-0.8,1.6-1.7,3.1-2.7
	c1.5-1,3.3-2,5.5-3c3.4-1.6,6.8-2.8,10.2-3.7c3.4-0.9,5.4-0.9,6.1-0.3c2.1,1.4,4.3,4.4,6.5,8.9c2.2,4.6,4.4,9.8,6.6,15.8
	c2.2,6,4.3,12.3,6.3,18.9c2,6.6,3.8,12.7,5.5,18.3c1.6,5.6,3,10.3,4.2,14.2c1.1,3.9,1.7,6.1,1.6,6.6
	C137.4,122.8,136.8,123.7,135.4,124.7z M206.5,78.7c0.1,5.5,0.1,10.3,0,14.4c-0.1,4.1-0.1,6.7-0.1,7.8c0,1.7-0.8,2.9-2.6,3.7
	c-1.7,0.8-3.6,1.2-5.7,1.4c-2.3,0.2-4.5,0-6.5-0.5c-2-0.5-3-1.2-3.1-2.2c-0.1-0.5-0.2-1.6-0.4-3.5c-0.2-1.9-0.6-4.3-1.3-7.3
	c-2.8,0.8-5.7,1.5-8.9,2.2c-3.2,0.7-6.2,1.3-9.1,1.9c-1.4,0.3-2.8,0.6-4.2,0.9c0.6,4.8,1.4,9.5,2.5,14.2c0.1,0.5-0.5,1-1.8,1.7
	c-1.3,0.6-2.6,1.2-4,1.5c-2,0.5-3,0.5-3.2-0.1c-1.2-4.5-2.5-9.6-3.6-15.4c-1.2-5.8-2.2-11.8-3-18.1c-0.8-6.3-1.4-12.5-1.7-18.8
	c-0.3-6.3-0.1-12.1,0.5-17.5c0.6-5.4,1.8-10.2,3.4-14.3c1.6-4.1,3.8-7,6.3-8.7c2.7-1.8,6.7-3.2,11.8-3.9c2.8-0.4,5.6-0.5,8.4-0.3
	c2.8,0.2,5.3,0.7,7.5,1.4c4.1,1.5,7.5,4.4,10,8.7c2.5,4.3,4.4,9.4,5.6,15.1c1.3,5.7,2.1,11.7,2.5,18
	C206.2,67.3,206.4,73.2,206.5,78.7z M186.5,88.9c-0.6-3.7-1.3-7.9-2.1-12.4c-0.8-4.5-1.7-9.1-2.7-13.7c-1-4.6-2-9.1-2.9-13.5
	c-1-4.3-2-8.2-3-11.5c-1-3.3-1.9-6-2.8-8c-0.9-2-1.6-2.9-2.2-2.8c-1.2,0.2-2.6,2.2-3.8,6c-1.3,3.8-2.4,8.9-3.3,15.2
	c-0.9,6.3-1.3,13.5-1.2,21.5c0.1,8,0.7,16.3,1.7,24.9c4-1,8-2,12-3.1C180,90.6,183.5,89.7,186.5,88.9z M319.9,69
	c2.8-5.7,5.1-11,6.8-15.7c1.7-4.8,2.4-8.4,1.9-10.9c0-0.9-1.5-2.4-4.5-4.2c-3-1.8-6.2-3.4-9.6-4.8c-2.2-0.9-4.2-1.5-5.9-1.8
	c-1.7-0.4-3.1-0.5-4-0.3c-0.5,0.2-1.6,1-3.1,2.3c-1.5,1.3-3.2,3-5.1,5c-1.9,2-3.9,4.2-5.9,6.6c-2.1,2.4-4.8,5.6-8,9.6
	c-5.3,6.9-10.9,14.8-16.6,23.7c0.5-9.6,0.7-18.3,0.6-26.2c-0.2-3.3-0.4-6.6-0.5-10c-0.2-3.3-0.4-6.3-0.8-9.1c-0.3-2.8-0.7-5.1-1.2-7
	c-0.5-1.9-1-3.2-1.5-3.7c-0.9-1-2.4-1.9-4.5-2.6c-2.2-0.7-4.5-1.2-7-1.6c-3.6-0.5-7.2-0.7-10.8-0.5c-3.6,0.2-5.7,0.5-6.4,1.1
	c-0.9,0.6-2,2.7-3.3,6.3c-1.3,3.6-2.5,8.1-3.7,13.4c-1.2,5.3-2.2,11.1-3.1,17.3c-0.9,6.2-1.5,12.3-1.9,18.2
	c-0.4,5.9-0.5,11.3-0.4,16.1c0.1,4.8,0.6,8.5,1.3,11c0.3,0.5,0.8,0.8,1.7,1c0.9,0.2,1.8,0.3,2.9,0.4c1.2,0.1,2.3,0.1,3.5,0
	c1.1-0.1,1.9-0.3,2.2-0.8c0.2-0.2,0.4-1.4,0.5-3.7c0.2-2.3,0.4-5.3,0.7-9c0.3-3.7,0.6-7.8,1.1-12.5c0.5-4.6,1.1-9.4,1.8-14.3
	c0.8-4.9,1.7-9.8,2.8-14.6c1.1-4.9,2.4-9.3,4-13.4c1.5,9.6,2.8,18.3,3.9,26.1c0.6,3.3,1,6.6,1.5,9.8c0.4,3.2,0.8,6.1,1,8.6
	c0.3,2.6,0.6,4.7,1.1,6.4c0.4,1.7,0.7,2.7,1,3.1c1.4,1.1,3.3,1.8,5.5,2.3c3,0.7,5,0.7,6,0c0.2-0.2,0.8-1.1,1.9-2.7
	c1-1.6,2.3-3.6,3.9-6.1c1.6-2.5,3.4-5.2,5.5-8.2c2.1-3,4.2-5.9,6.4-8.8c2.2-2.9,4.4-5.6,6.8-8.1c2.4-2.5,4.5-4.6,6.3-6.1
	c-4.4,10.2-8,19.7-11,28.5c-1.4,3.7-2.7,7.4-3.9,11.2c-1.2,3.8-2.2,7.4-3,10.7c-0.8,3.4-1.4,6.4-1.7,9c-0.3,2.6-0.4,4.6-0.1,6
	c0.4,0.7,1.2,1.5,2.6,2.3c1.3,0.8,2.8,1.6,4.4,2.2c1.6,0.6,3.3,1.1,4.9,1.4c1.6,0.3,2.7,0.2,3.3-0.4c0.5-0.3,1.7-2.2,3.7-5.7
	c2-3.5,4.5-7.8,7.4-12.8c2.9-5.1,6-10.6,9.4-16.6C314,80.6,317.1,74.7,319.9,69z M402.1,102.2c-1.3,4.9-3.6,9.8-6.9,14.6
	c-3.3,4.9-7.1,9.6-11.4,14.2c-4.3,4.6-8.5,8.8-12.5,12.7c-4,3.8-7.5,7.1-10.5,9.7c-3,2.7-5,4.4-5.8,5.2c-1.2,1.2-2.8,1.3-4.6,0.5
	c-1.9-0.8-3.6-2-5.2-3.5c-1.8-1.7-3.3-3.5-4.4-5.3c-1.1-1.8-1.3-3.1-0.7-3.9c0.3-0.4,1.1-1.3,2.3-2.7c1.2-1.4,2.7-3.4,4.4-5.9
	c-2.6-1.6-5.3-3.3-8.1-5.2c-2.8-1.9-5.5-3.7-8-5.5c-1.2-0.8-2.4-1.7-3.6-2.5c-3.1,3.7-5.9,7.6-8.6,11.6c-0.3,0.4-1.1,0.3-2.5-0.2
	c-1.4-0.5-2.7-1.1-4-1.9c-1.8-1.1-2.5-1.9-2.2-2.5c2.4-4,5.2-8.4,8.6-13.2c3.4-4.8,7-9.7,11-14.7c4-4.9,8.1-9.7,12.5-14.2
	c4.4-4.5,8.7-8.4,13.1-11.7c4.4-3.3,8.7-5.7,12.9-7.3c4.2-1.6,7.8-2,10.9-1.3c3.3,0.8,7.1,2.8,11.4,6.2c2.3,1.8,4.4,3.9,6.3,6.1
	c1.9,2.3,3.4,4.5,4.4,6.7C403.1,92.7,403.4,97.3,402.1,102.2z M383,81c-1-0.8-3.5-0.4-7.2,1.2c-3.7,1.7-8.3,4.3-13.5,8
	c-5.2,3.7-10.8,8.3-16.6,13.8c-5.8,5.6-11.4,11.7-16.9,18.4c3.6,2.3,7.2,4.6,10.9,6.8c3.6,2.3,6.8,4.3,9.6,6c2.3-3,4.8-6.3,7.5-10
	c2.7-3.7,5.4-7.5,8.1-11.4c2.7-3.9,5.2-7.7,7.7-11.4c2.5-3.7,4.6-7.1,6.3-10.1c1.7-3,3-5.6,3.8-7.6C383.3,82.6,383.5,81.4,383,81z
	 M121.2,347c0,5.7-5.1,10.6-15.2,14.7c-10.1,4.1-23.7,6.2-40.7,6.2c-12.8,0-19.2-4.6-19.2-13.8v-79.4c0-7.8,6.2-11.7,18.5-11.7
	c12.8,0,24,2.3,33.8,6.8c11.4,5.3,17.2,13.3,17.2,24.1c0,13.2-6.2,23.8-18.7,32c-2,1.3-3,2.4-3,3.2c0,0.7,1.3,1.3,3.9,1.8
	c5.7,1,10.5,2.5,14.2,4.5C118.2,338.4,121.2,342.3,121.2,347z M70.8,327.2c0,0.9,0.8,1.3,2.4,1.3c2.3,0,5.2-1.3,8.8-3.9
	c3.6-2.6,7-6.2,10.4-10.9c4.3-6.2,6.5-12.6,6.5-19.3c0-3.8-0.9-7.3-2.6-10.4c-2.6-4.6-6.8-7.7-12.6-9.3c-2.7-0.7-5.9-1.1-9.4-1.1
	c-2.3,0-3.4,0.8-3.4,2.2V327.2z M104.4,346.7c0-2.9-2.5-5.1-7.4-6.6c-4.9-1.5-11.6-2.3-20-2.3c-4.1,0-6.2,1.1-6.2,3.2v12.7
	c0,2.2,1.7,3.3,5.1,3.3c9.6,0,16.7-1,21.4-2.9C102,352.2,104.4,349.7,104.4,346.7z M197.8,358.3c-1.3-0.5-2.8-0.8-4.6-0.8
	c-2.6,0-5.2,0.1-7.8,0.2c-2.6,0.2-5.2,0.2-7.8,0.2c-8.2,0-13.8-1.4-16.6-4.1c-1.8-1.8-2.7-4.4-2.7-7.7v-3.1c0-1.9,1.6-2.8,4.8-2.8
	l20.8,0.2c2.4,0,4.3-0.4,5.6-1.1c1.3-0.8,2-1.7,2-2.8c0-1.9-1-3.2-3-4c-1.7-0.7-4.2-1-7.6-1c-2.8,0-5.6,0-8.5,0.1
	c-2.8,0.1-5.7,0.1-8.5,0.1c-1.9,0-3.3-0.3-4.2-0.9c-0.9-0.6-1.4-1.9-1.4-4v-47.9c0-3.6,2.4-5.4,7.1-5.4c2.5,0,5.1,0,7.7,0.1
	c2.6,0.1,5.1,0.1,7.7,0.1c3.5,0,6.2-0.5,7.9-1.4c1.7-1,2.6-2,2.6-3.1c0-2.9-2.8-4.6-8.3-5.1c-2.3-0.2-4.3-0.3-6.2-0.3h-27.1
	c-7.9,0-12.8,2.2-14.6,6.5c-0.9,2.1-1.3,4.6-1.3,7.5v56.6c0,4.4,0.3,8.5,0.8,12.5c1.2,8.8,6.4,14.8,15.4,18.1
	c5.1,1.8,12.2,2.7,21.3,2.7c10.4,0,17.8-0.6,22.1-1.9c4.3-1.2,6.4-3,6.4-5.2C199.8,359.7,199.1,358.9,197.8,358.3z M294.7,350.7
	c0.7,3.2,1,5.9,1,8c0,2.5-0.4,4.4-1.2,5.8c-1.3,2.3-3.9,3.4-7.7,3.4c-4.6,0-7.3-2.1-8-6.3c-0.9-5.9-2-11.9-3.2-18
	c-0.4-2.2-2.4-3.2-5.9-3.2h-28c-3.1,0-5,1.2-5.5,3.5c-0.3,1.5-0.8,3.7-1.3,6.5c-0.5,2.9-1,5.4-1.4,7.6c-1.1,6.7-6.1,10-14.9,10
	c-7.5,0-11.2-2.7-11.2-8c0-1.3,0.6-5,1.8-11.3c1.2-6.3,3.1-14.7,5.6-25.4c4.3-18.1,9.3-33.1,15.1-45c4.9-10.2,11.9-15.4,20.8-15.4
	c7.2,0,13.1,2.8,17.8,8.4c2.9,3.6,5.6,8.7,8.3,15.4C283.9,304.6,289.9,325.9,294.7,350.7z M272.5,328.9c0-0.4-1-5.1-3-14
	c-5.6-23.7-10-35.6-13.3-35.6c-2.3,0-6.5,11.8-12.6,35.3c-2.4,9.2-3.6,14-3.6,14.4c0,1.7,1.4,2.6,4.2,2.6h24.2
	C271.1,331.6,272.5,330.7,272.5,328.9z M379.5,362.7c0,1.7-0.8,2.9-2.3,3.8c-1.5,0.9-3.6,1.3-6.2,1.3c-4.5,0-9.3-2.6-14.1-7.8
	c-5.3-5.4-11.7-12.4-19.3-21c-1.4-1.2-2.3-1.8-2.6-1.8c-0.6,0-0.9,0.8-0.9,2.4v16.8c0,7.5-4.2,11.3-12.7,11.3
	c-3.7,0-6.4-0.6-8.1-1.7c-1.6-1.1-2.7-2.6-3.1-4.4c-0.4-1.8-0.6-3.7-0.6-5.7v-81.4c0-7.8,5.8-11.7,17.5-11.7c13.4,0,25,2.2,34.8,6.7
	c11.4,5.3,17.1,13.4,17.1,24.2c0,7.9-2,15.1-6,21.6c-4.8,7.8-12.1,13.8-22,18c-0.5,0.2-0.8,0.5-0.8,0.8c0,0.4,2.4,2.6,7.1,6.3
	c1.8,1.4,3.5,2.8,5,4.2C373.8,354.4,379.5,360.4,379.5,362.7z M348,323.3c4.6-3.5,8.1-7.6,10.3-12.4c2.7-5.3,4-10.8,4-16.4
	c0-3.8-0.9-7.3-2.6-10.5c-3.9-6.9-11.2-10.3-22.1-10.3c-2.3,0-3.5,0.8-3.5,2.2v50.3c0,1.6,1,2.4,2.9,2.4
	C339.7,328.5,343.4,326.8,348,323.3z"/>
<path fill="#141414" d="M121.1,406.3c-1.1-0.6-2.5-1.1-4.2-1.5c-0.8-0.2-1.2-0.3-1.1-0.6c0-0.2,0.3-0.6,0.9-1
	c3.7-2.5,5.6-5.8,5.7-9.9c0.1-3.4-1.6-5.9-4.9-7.6c-2.9-1.5-6.2-2.2-10-2.3c-3.6-0.1-5.5,1.1-5.5,3.6l-0.4,24.8
	c-0.1,2.9,1.8,4.4,5.6,4.4c5,0.1,9-0.5,12.1-1.7c3-1.2,4.5-2.7,4.6-4.5C123.8,408.5,122.9,407.3,121.1,406.3z M109.2,387.5
	c0-0.4,0.3-0.7,1-0.7c1,0,2,0.1,2.8,0.4c1.7,0.5,2.9,1.5,3.7,3c0.5,1,0.7,2.1,0.7,3.3c0,2.1-0.7,4.1-2,6c-1,1.4-2.1,2.6-3.1,3.3
	c-1.1,0.8-1.9,1.2-2.6,1.2c-0.5,0-0.7-0.2-0.7-0.4L109.2,387.5z M116.7,412.1c-1.4,0.6-3.5,0.9-6.4,0.8c-1,0-1.5-0.4-1.5-1.1l0.1-4
	c0-0.7,0.6-1,1.9-1c2.5,0,4.5,0.3,5.9,0.8s2.2,1.2,2.1,2.1C118.8,410.8,118.1,411.5,116.7,412.1z M148,391.1
	c-0.8-2.1-1.5-3.7-2.4-4.9c-1.3-1.8-3.1-2.7-5.2-2.7c-2.6,0-4.7,1.5-6.2,4.7c-1.8,3.7-3.4,8.4-4.7,14c-0.8,3.3-1.4,5.9-1.8,7.9
	c-0.4,2-0.6,3.1-0.6,3.5c0,1.7,1.1,2.5,3.3,2.5c2.6,0,4.1-1,4.5-3c0.1-0.7,0.3-1.5,0.4-2.4c0.2-0.9,0.3-1.6,0.4-2
	c0.2-0.7,0.7-1.1,1.7-1.1l8.3,0.1c1,0,1.6,0.4,1.7,1c0.3,1.9,0.6,3.8,0.9,5.6c0.2,1.3,1,2,2.3,2c1.1,0,1.9-0.3,2.3-1
	c0.2-0.4,0.4-1,0.4-1.8c0-0.6-0.1-1.5-0.3-2.5C151.7,403.4,150.1,396.7,148,391.1z M145.3,405.1l-7.2-0.1c-0.8,0-1.2-0.3-1.2-0.8
	c0-0.1,0.4-1.6,1.1-4.5c1.9-7.3,3.3-11,3.9-11c1,0,2.2,3.7,3.8,11.2c0.5,2.8,0.8,4.2,0.8,4.4C146.5,404.8,146.1,405.1,145.3,405.1z
	 M178.3,406.3c-1.1-0.6-2.5-1.1-4.2-1.5c-0.8-0.2-1.2-0.3-1.1-0.6c0-0.2,0.3-0.6,0.9-1c3.7-2.5,5.6-5.8,5.7-9.9
	c0.1-3.4-1.6-5.9-4.9-7.6c-2.9-1.5-6.2-2.2-10-2.3c-3.6-0.1-5.5,1.1-5.5,3.6l-0.4,24.8c-0.1,2.9,1.8,4.4,5.6,4.4
	c5,0.1,9-0.5,12.1-1.7c3-1.2,4.5-2.7,4.6-4.5C180.9,408.5,180,407.3,178.3,406.3z M166.4,387.5c0-0.4,0.3-0.7,1-0.7
	c1,0,2,0.1,2.8,0.4c1.7,0.5,2.9,1.5,3.7,3c0.5,1,0.7,2.1,0.7,3.3c0,2.1-0.7,4.1-2,6c-1,1.4-2.1,2.6-3.1,3.3
	c-1.1,0.8-1.9,1.2-2.6,1.2c-0.5,0-0.7-0.2-0.7-0.4L166.4,387.5z M173.8,412.1c-1.4,0.6-3.5,0.9-6.4,0.8c-1,0-1.5-0.4-1.5-1.1l0.1-4
	c0-0.7,0.6-1,1.9-1c2.5,0,4.5,0.3,5.9,0.8s2.2,1.2,2.1,2.1C175.9,410.8,175.2,411.5,173.8,412.1z M208.9,385.2
	c0.1,0.4,0.2,0.9,0.2,1.4c0,2.4-0.8,5.4-2.4,8.9c-1.4,3.1-3.2,6.1-5.5,9.1c-0.7,0.9-1,1.8-1.1,2.8l-0.1,5.5c0,2.3-1.3,3.5-3.8,3.5
	c-1.1,0-1.9-0.2-2.4-0.6c-0.5-0.4-0.8-0.8-0.9-1.4c-0.1-0.6-0.2-1.2-0.1-1.8l0.1-5.1c0-1-0.3-1.8-0.9-2.4c-1.1-1.1-2.1-2.6-3-4.5
	c-1.3-2.5-2.3-5.1-3.1-7.7c-0.8-2.6-1.2-4.6-1.2-5.9c0-0.6,0.1-1.2,0.2-1.7c0.1-0.6,0.5-1,0.9-1.4c0.5-0.4,1.3-0.5,2.4-0.5
	c1,0,1.7,0.2,2.2,0.5c0.8,0.5,1.3,1.6,1.5,3c0.2,1.1,0.5,2.8,1.1,5c0.6,2.3,1.3,4.5,2.2,6.7c1.1,2.7,1.9,4.1,2.6,4.1
	c0.3,0,0.5-0.2,0.8-0.5c1-1.5,1.8-3.1,2.5-4.9c1.6-3.9,2.5-7.9,2.9-11.7c0-0.3,0.1-0.6,0.3-0.9c0.4-0.7,1.1-1,2.1-1
	c0.8,0,1.3,0.2,1.7,0.5C208.5,384.4,208.7,384.8,208.9,385.2z M245.4,406.3c-1.1-0.6-2.5-1.1-4.2-1.5c-0.8-0.2-1.2-0.3-1.1-0.6
	c0-0.2,0.3-0.6,0.9-1c3.7-2.5,5.6-5.8,5.7-9.9c0.1-3.4-1.6-5.9-4.9-7.6c-2.9-1.5-6.2-2.2-10-2.3c-3.6-0.1-5.5,1.1-5.5,3.6l-0.4,24.8
	c-0.1,2.9,1.8,4.4,5.6,4.4c5,0.1,9-0.5,12.1-1.7c3-1.2,4.5-2.7,4.6-4.5C248,408.5,247.1,407.3,245.4,406.3z M233.5,387.5
	c0-0.4,0.3-0.7,1-0.7c1,0,2,0.1,2.8,0.4c1.7,0.5,2.9,1.5,3.7,3c0.5,1,0.7,2.1,0.7,3.3c0,2.1-0.7,4.1-2,6c-1,1.4-2.1,2.6-3.1,3.3
	c-1.1,0.8-1.9,1.2-2.6,1.2c-0.5,0-0.7-0.2-0.7-0.4L233.5,387.5z M240.9,412.1c-1.4,0.6-3.5,0.9-6.4,0.8c-1,0-1.5-0.4-1.5-1.1l0.1-4
	c0-0.7,0.6-1,1.9-1c2.5,0,4.5,0.3,5.9,0.8s2.2,1.2,2.1,2.1C243,410.8,242.3,411.5,240.9,412.1z M272.9,414.3c0,0.7-0.7,1.2-1.9,1.6
	c-1.3,0.4-3.5,0.5-6.5,0.5c-2.7,0-4.8-0.4-6.3-1c-2.7-1.1-4.2-3-4.5-5.7c-0.1-1.2-0.2-2.5-0.2-3.9l0.3-17.7c0-0.9,0.2-1.7,0.4-2.3
	c0.6-1.4,2-2,4.4-2l8,0.1c0.6,0,1.2,0,1.8,0.1c1.6,0.2,2.5,0.7,2.4,1.6c0,0.3-0.3,0.7-0.8,0.9c-0.5,0.3-1.3,0.4-2.4,0.4
	c-0.8,0-1.5,0-2.3-0.1c-0.8,0-1.5-0.1-2.3-0.1c-1.4,0-2.1,0.5-2.1,1.6l-0.3,15c0,0.6,0.1,1.1,0.4,1.3c0.3,0.2,0.7,0.3,1.2,0.3
	c0.8,0,1.7,0,2.5,0c0.8,0,1.7,0,2.5,0c1,0,1.8,0.1,2.2,0.4c0.6,0.3,0.9,0.7,0.9,1.3c0,0.3-0.2,0.6-0.6,0.9c-0.4,0.2-1,0.3-1.7,0.3
	l-6.1-0.2c-0.9,0-1.4,0.3-1.4,0.9l0,1c0,1,0.2,1.8,0.8,2.4c0.8,0.9,2.5,1.3,4.9,1.4c0.8,0,1.5,0,2.3,0c0.8,0,1.5,0,2.3,0
	c0.5,0,1,0.1,1.3,0.3C272.7,413.7,272.9,414,272.9,414.3z M295.1,391.1c-0.8-2.1-1.5-3.7-2.4-4.9c-1.3-1.8-3.1-2.7-5.2-2.7
	c-2.6,0-4.7,1.5-6.2,4.7c-1.8,3.7-3.4,8.4-4.7,14c-0.8,3.3-1.4,5.9-1.8,7.9c-0.4,2-0.6,3.1-0.6,3.5c0,1.7,1.1,2.5,3.3,2.5
	c2.6,0,4.1-1,4.5-3c0.1-0.7,0.3-1.5,0.4-2.4c0.2-0.9,0.3-1.6,0.4-2c0.2-0.7,0.7-1.1,1.7-1.1l8.3,0.1c1,0,1.6,0.4,1.7,1
	c0.3,1.9,0.6,3.8,0.9,5.6c0.2,1.3,1,2,2.3,2c1.1,0,1.9-0.3,2.3-1c0.2-0.4,0.4-1,0.4-1.8c0-0.6-0.1-1.5-0.3-2.5
	C298.7,403.4,297.1,396.7,295.1,391.1z M292.3,405.1l-7.2-0.1c-0.8,0-1.2-0.3-1.2-0.8c0-0.1,0.4-1.6,1.1-4.5c1.9-7.3,3.3-11,3.9-11
	c1,0,2.2,3.7,3.8,11.2c0.5,2.8,0.8,4.2,0.8,4.4C293.5,404.8,293.1,405.1,292.3,405.1z M318.2,405.6c2.9-1.3,5.1-3.1,6.6-5.5
	c1.2-2,1.9-4.3,1.9-6.7c0.1-3.4-1.6-5.9-4.9-7.7c-2.9-1.5-6.3-2.2-10.3-2.3c-3.4-0.1-5.2,1.1-5.2,3.6l-0.4,25.5c0,0.6,0,1.2,0.1,1.8
	c0.1,0.6,0.4,1,0.9,1.4c0.5,0.4,1.3,0.6,2.4,0.6c2.5,0,3.8-1.1,3.8-3.5l0.1-5.2c0-0.5,0.1-0.8,0.3-0.8c0.1,0,0.4,0.2,0.8,0.6
	c2.2,2.7,4.1,4.9,5.6,6.7c1.4,1.6,2.8,2.5,4.1,2.5c0.8,0,1.4-0.1,1.8-0.4c0.5-0.3,0.7-0.7,0.7-1.2c0-0.7-1.6-2.6-4.9-5.7
	c-0.4-0.4-0.9-0.9-1.5-1.3c-1.4-1.2-2.1-1.9-2.1-2C317.9,405.7,318,405.7,318.2,405.6z M317.3,402.4c-1.4,1.1-2.5,1.6-3.3,1.6
	c-0.6,0-0.9-0.3-0.8-0.8l0.3-15.7c0-0.4,0.4-0.7,1.1-0.7c3.2,0.1,5.4,1.2,6.5,3.3c0.5,1,0.7,2.1,0.7,3.3c0,1.7-0.5,3.4-1.3,5.1
	C319.7,400.1,318.7,401.3,317.3,402.4z M175.4,255c-9.8,0-19.8,1.5-29.2-0.4c-11.3-2.2-9.3-16-16.8-24.3c-4.3,6-8.2,11.5-12.5,17.5
	c4.8,2.1,7.7,3.3,11.7,5c-11.4,4.8-19.9,3.4-25.3-3.3c-5-6.2-3-14.4,1.4-23.2c3.5-7.1,4.3-15.9,4.9-24c0.7-10.6-0.9-21.5,0.2-32
	c1.3-13.6,8-24.7,20.5-31.5c5.1-2.8,10.1-5.6,15.3-8.3c11-5.8,22.4-7.3,34.5-3.2c6,2,12.4,3.1,18.5,4.7c8,2.1,15.5,0.8,22.5-3.5
	c11.9-7.2,23-4.9,35.4,0.6c10.5,4.6,22.8,5,34.3,7.3c2,0.4,5.1,0,6,1.2c9.1,12.3,18,24.8,26.5,37.6c0.8,1.2-1.9,6.9-3.6,7.3
	c-6.1,1.3-12.5,1.4-18.7,1.4c-9.5,0.1-19-1.1-28.4-0.2c-9.6,0.9-12.8,5.8-9.8,15.1c2.9,9,7.7,17.3,12.2,25.7c2,3.8,5.7,6.6,7.9,10.3
	c4.9,8.4,10.5,15.1,21.4,14.9c1.9,0,3.8,1.9,6.3,3.2c-23.1,11.8-60.2-10.8-77.1-48.2c-6.4,12.1-12.4,22.3-17.3,33
	c-3.8,8.1-2,10.5,6.8,12.2c2,0.4,3.8,1.4,5.7,2.2c-0.1,0.8-0.2,1.5-0.3,2.3c-7.8,0-15.5,0-24,0c-6.2-15.3-7.3-32-4.4-50.4
	c-16.4,6.9-31.8,11.6-48.7,0.8c-0.3,15.3,2,28.9,9.7,41c1.3,2,5.7,1.9,8.5,3c2.5,1,4.9,2.3,7.3,3.5C176.1,253.1,175.7,254,175.4,255
	z M332.7,393.3c0-0.6,0.1-0.9,0.6-1.9c0.6-1.2,1.3-2.1,3.8-4.9c3-3.4,8.3-7.6,11.5-9.3c1-0.5,1.4-0.6,2.1-0.6c0.8,0,0.9,0,1.4,0.3
	c1.3,0.9,1.2,2.3,0,4.3c-0.6,1-3.2,3.9-4.9,5.4c-2.2,2.1-6.8,5.7-9.5,7.5c-1.9,1.2-2,1.2-2.9,1.2
	C333.4,395.4,332.7,394.7,332.7,393.3z M364.1,406.1c-2.4,0.7-4.8,0.8-10.7,0.4c-5.7-0.3-7.3-0.5-7.8-0.8c-0.2-0.1-0.6-0.3-0.9-0.5
	s-0.8-0.5-1-0.8c-0.3-0.4-0.4-0.7-0.5-1.3c-0.1-0.7,0-0.8,0.4-1.4c0.5-0.8,1.3-1.4,2.2-1.7c0.9-0.3,7-0.4,9.9-0.1
	c2.5,0.2,5.7,0.6,7.1,1c2,0.4,3.2,1.3,3.4,2.5C366.5,404.6,365.7,405.6,364.1,406.1z M353.3,422.8c0.4,1.2,0,2.3-1.2,2.7
	c-0.5,0.2-0.7,0.2-1.5,0.1c-2.7-0.5-5.8-2.1-9.1-4.9c-1.7-1.5-7-6.7-7.5-7.3c-0.1-0.2-0.4-0.6-0.7-1c-0.3-0.4-0.4-0.7-0.4-1.4
	c-0.1-1,0.3-1.7,1-2.2c0.7-0.5,2.1-0.6,3.1-0.2c2.7,1.1,9.1,5.9,12.6,9.4C351.3,419.8,353,421.9,353.3,422.8z M90.7,391.4
	c0.5,1,0.6,1.3,0.6,1.9c0,1.4-0.7,2.1-2,2.2c-1,0-1.1,0-2.9-1.2c-2.7-1.7-7.4-5.4-9.5-7.5c-1.7-1.6-4.3-4.5-4.9-5.4
	c-1.3-2-1.3-3.5,0-4.3c0.5-0.3,0.6-0.4,1.4-0.3c0.7,0,1.1,0.2,2.1,0.6c3.2,1.6,8.5,5.8,11.5,9.3C89.4,389.3,90.1,390.2,90.7,391.4z
	 M70.6,406.5c-5.9,0.4-8.3,0.3-10.7-0.4c-1.6-0.5-2.4-1.5-2.2-2.8c0.2-1.2,1.4-2.1,3.4-2.5c1.5-0.3,4.6-0.7,7.1-1
	c2.9-0.3,9-0.2,9.9,0.1c0.9,0.3,1.7,0.9,2.2,1.7c0.4,0.6,0.4,0.7,0.4,1.4c0,0.6-0.1,0.9-0.5,1.3c-0.2,0.3-0.7,0.7-1,0.8
	s-0.8,0.4-0.9,0.5C78,406,76.4,406.2,70.6,406.5z M91,411.1c0,0.6-0.1,0.9-0.4,1.4c-0.2,0.3-0.5,0.7-0.7,1c-0.4,0.6-5.8,5.8-7.5,7.3
	c-3.3,2.8-6.3,4.5-9.1,4.9c-0.8,0.1-1,0.1-1.5-0.1c-1.1-0.4-1.6-1.6-1.2-2.7c0.3-0.9,2-3,3.6-4.7c3.5-3.6,9.8-8.4,12.6-9.4
	c1-0.4,2.4-0.3,3.1,0.2C90.8,409.4,91.1,410.1,91,411.1z"/>
</svg>
