  0
SECTION
  2
HEADER
  9
$ACADVER
  1
AC1024
  9
$ACADMAINTVER
 70
     6
  9
$DWGCODEPAGE
  3
ANSI_1252
  9
$INSBASE
 10
0.0
 20
0.0
 30
0.0
  9
$EXTMIN
 10
1.000000000000000E+20
 20
1.000000000000000E+20
 30
1.000000000000000E+20
  9
$EXTMAX
 10
-1.000000000000000E+20
 20
-1.000000000000000E+20
 30
-1.000000000000000E+20
  9
$LIMMIN
 10
0.0
 20
0.0
  9
$LIMMAX
 10
12.0
 20
9.0
  9
$ORTHOMODE
 70
     0
  9
$REGENMODE
 70
     1
  9
$FILLMODE
 70
     1
  9
$QTEXTMODE
 70
     0
  9
$MIRRTEXT
 70
     1
  9
$LTSCALE
 40
1.0
  9
$ATTMODE
 70
     1
  9
$TEXTSIZE
 40
0.2
  9
$TRACEWID
 40
0.05
  9
$TEXTSTYLE
  7
Standard
  9
$CLAYER
  8
0
  9
$CELTYPE
  6
ByLayer
  9
$CECOLOR
 62
   256
  9
$CELTSCALE
 40
1.0
  9
$DISPSILH
 70
     0
  9
$DIMSCALE
 40
1.0
  9
$DIMASZ
 40
0.18
  9
$DIMEXO
 40
0.0625
  9
$DIMDLI
 40
0.38
  9
$DIMRND
 40
0.0
  9
$DIMDLE
 40
0.0
  9
$DIMEXE
 40
0.18
  9
$DIMTP
 40
0.0
  9
$DIMTM
 40
0.0
  9
$DIMTXT
 40
0.18
  9
$DIMCEN
 40
0.09
  9
$DIMTSZ
 40
0.0
  9
$DIMTOL
 70
     0
  9
$DIMLIM
 70
     0
  9
$DIMTIH
 70
     1
  9
$DIMTOH
 70
     1
  9
$DIMSE1
 70
     0
  9
$DIMSE2
 70
     0
  9
$DIMTAD
 70
     0
  9
$DIMZIN
 70
     0
  9
$DIMBLK
  1

  9
$DIMASO
 70
     1
  9
$DIMSHO
 70
     1
  9
$DIMPOST
  1

  9
$DIMAPOST
  1

  9
$DIMALT
 70
     0
  9
$DIMALTD
 70
     2
  9
$DIMALTF
 40
25.4
  9
$DIMLFAC
 40
1.0
  9
$DIMTOFL
 70
     0
  9
$DIMTVP
 40
0.0
  9
$DIMTIX
 70
     0
  9
$DIMSOXD
 70
     0
  9
$DIMSAH
 70
     0
  9
$DIMBLK1
  1

  9
$DIMBLK2
  1

  9
$DIMSTYLE
  2
Standard
  9
$DIMCLRD
 70
     0
  9
$DIMCLRE
 70
     0
  9
$DIMCLRT
 70
     0
  9
$DIMTFAC
 40
1.0
  9
$DIMGAP
 40
0.09
  9
$DIMJUST
 70
     0
  9
$DIMSD1
 70
     0
  9
$DIMSD2
 70
     0
  9
$DIMTOLJ
 70
     1
  9
$DIMTZIN
 70
     0
  9
$DIMALTZ
 70
     0
  9
$DIMALTTZ
 70
     0
  9
$DIMUPT
 70
     0
  9
$DIMDEC
 70
     4
  9
$DIMTDEC
 70
     4
  9
$DIMALTU
 70
     2
  9
$DIMALTTD
 70
     2
  9
$DIMTXSTY
  7
Standard
  9
$DIMAUNIT
 70
     0
  9
$DIMADEC
 70
     0
  9
$DIMALTRND
 40
0.0
  9
$DIMAZIN
 70
     0
  9
$DIMDSEP
 70
    46
  9
$DIMATFIT
 70
     3
  9
$DIMFRAC
 70
     0
  9
$DIMLDRBLK
  1

  9
$DIMLUNIT
 70
     2
  9
$DIMLWD
 70
    -2
  9
$DIMLWE
 70
    -2
  9
$DIMTMOVE
 70
     0
  9
$DIMFXL
 40
1.0
  9
$DIMFXLON
 70
     0
  9
$DIMJOGANG
 40
0.7853981633974483
  9
$DIMTFILL
 70
     0
  9
$DIMTFILLCLR
 70
     0
  9
$DIMARCSYM
 70
     0
  9
$DIMLTYPE
  6

  9
$DIMLTEX1
  6

  9
$DIMLTEX2
  6

  9
$DIMTXTDIRECTION
 70
     0
  9
$LUNITS
 70
     2
  9
$LUPREC
 70
     4
  9
$SKETCHINC
 40
0.1
  9
$FILLETRAD
 40
0.5
  9
$AUNITS
 70
     0
  9
$AUPREC
 70
     0
  9
$MENU
  1
.
  9
$ELEVATION
 40
0.0
  9
$PELEVATION
 40
0.0
  9
$THICKNESS
 40
0.0
  9
$LIMCHECK
 70
     0
  9
$CHAMFERA
 40
0.5
  9
$CHAMFERB
 40
0.5
  9
$CHAMFERC
 40
1.0
  9
$CHAMFERD
 40
0.0
  9
$SKPOLY
 70
     0
  9
$TDCREATE
 40
2458603.759894583
  9
$TDUCREATE
 40
2458603.509894583
  9
$TDUPDATE
 40
2458603.759895486
  9
$TDUUPDATE
 40
2458603.509895486
  9
$TDINDWG
 40
0.0000000116
  9
$TDUSRTIMER
 40
0.0000000116
  9
$USRTIMER
 70
     1
  9
$ANGBASE
 50
0.0
  9
$ANGDIR
 70
     0
  9
$PDMODE
 70
     0
  9
$PDSIZE
 40
0.0
  9
$PLINEWID
 40
0.0
  9
$SPLFRAME
 70
     0
  9
$SPLINETYPE
 70
     6
  9
$SPLINESEGS
 70
     8
  9
$HANDSEED
  5
AF
  9
$SURFTAB1
 70
     6
  9
$SURFTAB2
 70
     6
  9
$SURFTYPE
 70
     6
  9
$SURFU
 70
     6
  9
$SURFV
 70
     6
  9
$UCSBASE
  2

  9
$UCSNAME
  2

  9
$UCSORG
 10
0.0
 20
0.0
 30
0.0
  9
$UCSXDIR
 10
1.0
 20
0.0
 30
0.0
  9
$UCSYDIR
 10
0.0
 20
1.0
 30
0.0
  9
$UCSORTHOREF
  2

  9
$UCSORTHOVIEW
 70
     0
  9
$UCSORGTOP
 10
0.0
 20
0.0
 30
0.0
  9
$UCSORGBOTTOM
 10
0.0
 20
0.0
 30
0.0
  9
$UCSORGLEFT
 10
0.0
 20
0.0
 30
0.0
  9
$UCSORGRIGHT
 10
0.0
 20
0.0
 30
0.0
  9
$UCSORGFRONT
 10
0.0
 20
0.0
 30
0.0
  9
$UCSORGBACK
 10
0.0
 20
0.0
 30
0.0
  9
$PUCSBASE
  2

  9
$PUCSNAME
  2

  9
$PUCSORG
 10
0.0
 20
0.0
 30
0.0
  9
$PUCSXDIR
 10
1.0
 20
0.0
 30
0.0
  9
$PUCSYDIR
 10
0.0
 20
1.0
 30
0.0
  9
$PUCSORTHOREF
  2

  9
$PUCSORTHOVIEW
 70
     0
  9
$PUCSORGTOP
 10
0.0
 20
0.0
 30
0.0
  9
$PUCSORGBOTTOM
 10
0.0
 20
0.0
 30
0.0
  9
$PUCSORGLEFT
 10
0.0
 20
0.0
 30
0.0
  9
$PUCSORGRIGHT
 10
0.0
 20
0.0
 30
0.0
  9
$PUCSORGFRONT
 10
0.0
 20
0.0
 30
0.0
  9
$PUCSORGBACK
 10
0.0
 20
0.0
 30
0.0
  9
$USERI1
 70
     0
  9
$USERI2
 70
     0
  9
$USERI3
 70
     0
  9
$USERI4
 70
     0
  9
$USERI5
 70
     0
  9
$USERR1
 40
0.0
  9
$USERR2
 40
0.0
  9
$USERR3
 40
0.0
  9
$USERR4
 40
0.0
  9
$USERR5
 40
0.0
  9
$WORLDVIEW
 70
     1
  9
$SHADEDGE
 70
     3
  9
$SHADEDIF
 70
    70
  9
$TILEMODE
 70
     1
  9
$MAXACTVP
 70
    64
  9
$PINSBASE
 10
0.0
 20
0.0
 30
0.0
  9
$PLIMCHECK
 70
     0
  9
$PEXTMIN
 10
1.000000000000000E+20
 20
1.000000000000000E+20
 30
1.000000000000000E+20
  9
$PEXTMAX
 10
-1.000000000000000E+20
 20
-1.000000000000000E+20
 30
-1.000000000000000E+20
  9
$PLIMMIN
 10
0.0
 20
0.0
  9
$PLIMMAX
 10
12.0
 20
9.0
  9
$UNITMODE
 70
     0
  9
$VISRETAIN
 70
     1
  9
$PLINEGEN
 70
     0
  9
$PSLTSCALE
 70
     1
  9
$TREEDEPTH
 70
  3020
  9
$CMLSTYLE
  2
Standard
  9
$CMLJUST
 70
     0
  9
$CMLSCALE
 40
1.0
  9
$PROXYGRAPHICS
 70
     1
  9
$MEASUREMENT
 70
     0
  9
$CELWEIGHT
370
    -1
  9
$ENDCAPS
280
     0
  9
$JOINSTYLE
280
     0
  9
$LWDISPLAY
290
     1
  9
$INSUNITS
 70
     1
  9
$HYPERLINKBASE
  1

  9
$STYLESHEET
  1

  9
$XEDIT
290
     1
  9
$CEPSNTYPE
380
     0
  9
$PSTYLEMODE
290
     1
  9
$FINGERPRINTGUID
  2
{9C4705B5-070D-4A09-AF8B-3A95572C7A00}
  9
$VERSIONGUID
  2
{FAEB1C32-E019-11D5-929B-00C0DF256EC4}
  9
$EXTNAMES
290
     1
  9
$PSVPSCALE
 40
0.0
  9
$OLESTARTUP
290
     0
  9
$SORTENTS
280
   127
  9
$INDEXCTL
280
     0
  9
$HIDETEXT
280
     1
  9
$XCLIPFRAME
280
     2
  9
$HALOGAP
280
     0
  9
$OBSCOLOR
 70
   257
  9
$OBSLTYPE
280
     0
  9
$INTERSECTIONDISPLAY
280
     0
  9
$INTERSECTIONCOLOR
 70
   257
  9
$DIMASSOC
280
     2
  9
$PROJECTNAME
  1

  9
$CAMERADISPLAY
290
     0
  9
$LENSLENGTH
 40
50.0
  9
$CAMERAHEIGHT
 40
0.0
  9
$STEPSPERSEC
 40
2.0
  9
$STEPSIZE
 40
6.0
  9
$3DDWFPREC
 40
2.0
  9
$PSOLWIDTH
 40
0.25
  9
$PSOLHEIGHT
 40
4.0
  9
$LOFTANG1
 40
1.570796326794897
  9
$LOFTANG2
 40
1.570796326794897
  9
$LOFTMAG1
 40
0.0
  9
$LOFTMAG2
 40
0.0
  9
$LOFTPARAM
 70
     7
  9
$LOFTNORMALS
280
     1
  9
$LATITUDE
 40
37.795
  9
$LONGITUDE
 40
-122.394
  9
$NORTHDIRECTION
 40
0.0
  9
$TIMEZONE
 70
 -8000
  9
$LIGHTGLYPHDISPLAY
280
     1
  9
$TILEMODELIGHTSYNCH
280
     1
  9
$CMATERIAL
347
3C
  9
$SOLIDHIST
280
     1
  9
$SHOWHIST
280
     1
  9
$DWFFRAME
280
     2
  9
$DGNFRAME
280
     2
  9
$REALWORLDSCALE
290
     1
  9
$INTERFERECOLOR
 62
   256
  9
$CSHADOW
280
     0
  9
$SHADOWPLANELOCATION
 40
0.0
  0
ENDSEC
  0
SECTION
  2
CLASSES
  0
CLASS
  1
ACDBDICTIONARYWDFLT
  2
AcDbDictionaryWithDefault
  3
ObjectDBX Classes
 90
        0
 91
        4
280
     0
281
     0
  0
CLASS
  1
VISUALSTYLE
  2
AcDbVisualStyle
  3
ObjectDBX Classes
 90
     4095
 91
        4
280
     0
281
     0
  0
CLASS
  1
MATERIAL
  2
AcDbMaterial
  3
ObjectDBX Classes
 90
     1153
 91
        4
280
     0
281
     0
  0
CLASS
  1
SUN
  2
AcDbSun
  3
SCENEOE
 90
     1024
 91
        4
280
     0
281
     0
  0
ENDSEC
  0
SECTION
  2
TABLES
  0
TABLE
  2
VPORT
  5
8
330
0
100
AcDbSymbolTable
 70
     1
  0
VPORT
  5
29
330
8
100
AcDbSymbolTableRecord
100
AcDbViewportTableRecord
  2
*Active
 70
     0
 10
0.0
 20
0.0
 11
1.0
 21
1.0
 12
0.0
 22
0.0
 13
0.0
 23
0.0
 14
0.5
 24
0.5
 15
0.5
 25
0.5
 16
0.0
 26
0.0
 36
1.0
 17
3.0
 27
-3.0
 37
0.0
 40
6.0
 41
1.0
 42
50.0
 43
0.0
 44
0.0
 50
0.0
 51
0.0
 71
     0
 72
   100
 73
     1
 74
     3
 75
     0
 76
     0
 77
     0
 78
     0
281
     0
 65
     1
110
0.0
120
0.0
130
0.0
111
1.0
121
0.0
131
0.0
112
0.0
122
1.0
132
0.0
 79
     0
146
0.0
 60
     3
 61
     5
292
     1
282
     1
141
0.0
142
0.0
 63
   250
361
3F
  0
ENDTAB
  0
TABLE
  2
LTYPE
  5
5
330
0
100
AcDbSymbolTable
 70
     1
  0
LTYPE
  5
14
330
5
100
AcDbSymbolTableRecord
100
AcDbLinetypeTableRecord
  2
ByBlock
 70
     0
  3

 72
    65
 73
     0
 40
0.0
  0
LTYPE
  5
15
330
5
100
AcDbSymbolTableRecord
100
AcDbLinetypeTableRecord
  2
ByLayer
 70
     0
  3

 72
    65
 73
     0
 40
0.0
  0
LTYPE
  5
16
330
5
100
AcDbSymbolTableRecord
100
AcDbLinetypeTableRecord
  2
Continuous
 70
     0
  3
Solid line
 72
    65
 73
     0
 40
0.0
  0
ENDTAB
  0
TABLE
  2
LAYER
  5
2
330
0
100
AcDbSymbolTable
 70
     2
  0
LAYER
  5
10
330
2
100
AcDbSymbolTableRecord
100
AcDbLayerTableRecord
  2
0
 70
     0
 62
     7
  6
Continuous
370
    -3
390
F
347
3E
  0
LAYER
  5
40
330
2
100
AcDbSymbolTableRecord
100
AcDbLayerTableRecord
  2
Layer 1
 70
     0
 62
     7
  6
Continuous
370
    -3
390
F
347
3E
  0
ENDTAB
  0
TABLE
  2
STYLE
  5
3
330
0
100
AcDbSymbolTable
 70
     1
  0
STYLE
  5
11
330
3
100
AcDbSymbolTableRecord
100
AcDbTextStyleTableRecord
  2
Standard
 70
     0
 40
0.0
 41
1.0
 50
0.0
 71
     0
 42
0.2
  3
txt
  4

  0
ENDTAB
  0
TABLE
  2
VIEW
  5
6
330
0
100
AcDbSymbolTable
 70
     0
  0
ENDTAB
  0
TABLE
  2
UCS
  5
7
330
0
100
AcDbSymbolTable
 70
     0
  0
ENDTAB
  0
TABLE
  2
APPID
  5
9
330
0
100
AcDbSymbolTable
 70
     1
  0
APPID
  5
12
330
9
100
AcDbSymbolTableRecord
100
AcDbRegAppTableRecord
  2
ACAD
 70
     0
  0
ENDTAB
  0
TABLE
  2
DIMSTYLE
  5
A
330
0
100
AcDbSymbolTable
 70
     1
100
AcDbDimStyleTable
  0
DIMSTYLE
105
27
330
A
100
AcDbSymbolTableRecord
100
AcDbDimStyleTableRecord
  2
Standard
 70
     0
178
     0
340
11
  0
ENDTAB
  0
TABLE
  2
BLOCK_RECORD
  5
1
330
0
100
AcDbSymbolTable
 70
     8
  0
BLOCK_RECORD
  5
1F
330
1
100
AcDbSymbolTableRecord
100
AcDbBlockTableRecord
  2
*Model_Space
340
22
 70
     0
280
     1
281
     0
  0
BLOCK_RECORD
  5
1B
330
1
100
AcDbSymbolTableRecord
100
AcDbBlockTableRecord
  2
*Paper_Space
340
1E
 70
     0
280
     1
281
     0
  0
BLOCK_RECORD
  5
23
330
1
100
AcDbSymbolTableRecord
100
AcDbBlockTableRecord
  2
*Paper_Space0
340
26
 70
     0
280
     1
281
     0
  0
BLOCK_RECORD
  5
41
330
1
100
AcDbSymbolTableRecord
100
AcDbBlockTableRecord
  2
block 2
340
0
102
{BLKREFS
331
42
102
}
 70
     0
280
     1
281
     0
  0
BLOCK_RECORD
  5
47
330
1
100
AcDbSymbolTableRecord
100
AcDbBlockTableRecord
  2
block 3
340
0
102
{BLKREFS
331
48
102
}
 70
     0
280
     1
281
     0
  0
BLOCK_RECORD
  5
57
330
1
100
AcDbSymbolTableRecord
100
AcDbBlockTableRecord
  2
block 4
340
0
102
{BLKREFS
331
58
102
}
 70
     0
280
     1
281
     0
  0
BLOCK_RECORD
  5
5D
330
1
100
AcDbSymbolTableRecord
100
AcDbBlockTableRecord
  2
block 5
340
0
102
{BLKREFS
331
5E
102
}
 70
     0
280
     1
281
     0
  0
BLOCK_RECORD
  5
70
330
1
100
AcDbSymbolTableRecord
100
AcDbBlockTableRecord
  2
block 6
340
0
102
{BLKREFS
331
71
102
}
 70
     0
280
     1
281
     0
  0
BLOCK_RECORD
  5
9E
330
1
100
AcDbSymbolTableRecord
100
AcDbBlockTableRecord
  2
block 7
340
0
102
{BLKREFS
331
9F
102
}
 70
     0
280
     1
281
     0
  0
BLOCK_RECORD
  5
A4
330
1
100
AcDbSymbolTableRecord
100
AcDbBlockTableRecord
  2
block 8
340
0
102
{BLKREFS
331
A5
102
}
 70
     0
280
     1
281
     0
  0
ENDTAB
  0
ENDSEC
  0
SECTION
  2
BLOCKS
  0
BLOCK
  5
20
330
1F
100
AcDbEntity
  8
0
100
AcDbBlockBegin
  2
*Model_Space
 70
     0
 10
0.0
 20
0.0
 30
0.0
  3
*Model_Space
  1

  0
ENDBLK
  5
21
330
1F
100
AcDbEntity
  8
0
100
AcDbBlockEnd
  0
BLOCK
  5
1C
330
1B
100
AcDbEntity
 67
     1
  8
0
100
AcDbBlockBegin
  2
*Paper_Space
 70
     0
 10
0.0
 20
0.0
 30
0.0
  3
*Paper_Space
  1

  0
ENDBLK
  5
1D
330
1B
100
AcDbEntity
 67
     1
  8
0
100
AcDbBlockEnd
  0
BLOCK
  5
24
330
23
100
AcDbEntity
  8
0
100
AcDbBlockBegin
  2
*Paper_Space0
 70
     0
 10
0.0
 20
0.0
 30
0.0
  3
*Paper_Space0
  1

  0
ENDBLK
  5
25
330
23
100
AcDbEntity
  8
0
100
AcDbBlockEnd
  0
BLOCK
  5
43
330
41
100
AcDbEntity
  8
0
100
AcDbBlockBegin
  2
block 2
 70
     0
 10
0.0
 20
0.0
 30
0.0
  3
block 2
  1

  0
SPLINE
  5
45
330
41
100
AcDbEntity
  8
Layer 1
370
     0
100
AcDbSpline
210
0.0
220
0.0
230
1.0
 70
    11
 71
     3
 72
    41
 73
    37
 74
     0
 42
0.0000000001
 43
0.0000000001
 12
1.0
 22
0.0
 32
0.0
 13
1.0
 23
0.0
 33
0.0
 40
0.0
 40
0.0
 40
0.0
 40
0.0
 40
1.0
 40
1.0
 40
1.0
 40
2.0
 40
2.0
 40
2.0
 40
3.0
 40
3.0
 40
3.0
 40
4.0
 40
4.0
 40
4.0
 40
5.0
 40
5.0
 40
5.0
 40
6.0
 40
6.0
 40
6.0
 40
7.0
 40
7.0
 40
7.0
 40
8.0
 40
8.0
 40
8.0
 40
9.0
 40
9.0
 40
9.0
 40
10.0
 40
10.0
 40
10.0
 40
11.0
 40
11.0
 40
11.0
 40
12.0
 40
12.0
 40
12.0
 40
12.0
 10
2.067072550455729
 20
-4.300010681152344
 30
0.0
 10
2.015463087293837
 20
-4.259064568413629
 30
0.0
 10
1.940137227376302
 20
-4.22963121202257
 30
0.0
 10
1.841094122992621
 20
-4.21171145968967
 30
0.0
 10
1.742031521267361
 20
-4.193792555067274
 30
0.0
 10
1.551993476019965
 20
-4.184833102756076
 30
0.0
 10
1.270960489908854
 20
-4.184833102756076
 30
0.0
 10
1.270960489908854
 20
-4.184833102756076
 30
0.0
 10
0.8355857001410589
 20
-4.184833102756076
 30
0.0
 10
0.8355857001410589
 20
-4.184833102756076
 30
0.0
 10
0.8355857001410589
 20
-4.184833102756076
 30
0.0
 10
0.8355857001410589
 20
-5.738765292697482
 30
0.0
 10
0.8355857001410589
 20
-5.738765292697482
 30
0.0
 10
0.8355857001410589
 20
-5.738765292697482
 30
0.0
 10
1.569507175021701
 20
-5.738765292697482
 30
0.0
 10
1.569507175021701
 20
-5.738765292697482
 30
0.0
 10
1.708624945746528
 20
-5.738765292697482
 30
0.0
 10
1.812756008572048
 20
-5.733495076497396
 30
0.0
 10
1.881858825683594
 20
-5.722933451334635
 30
0.0
 10
1.950961642795139
 20
-5.712372673882379
 30
0.0
 10
2.009017096625434
 20
-5.693824768066406
 30
0.0
 10
2.056003994411892
 20
-5.667249891493055
 30
0.0
 10
2.103012084960938
 20
-5.640715705023871
 30
0.0
 10
2.135932074652778
 20
-5.60390387641059
 30
0.0
 10
2.15482415093316
 20
-5.556876288519965
 30
0.0
 10
2.173716227213542
 20
-5.509847852918837
 30
0.0
 10
2.183162265353733
 20
-5.416603088378906
 30
0.0
 10
2.183162265353733
 20
-5.277099609375
 30
0.0
 10
2.183162265353733
 20
-5.277099609375
 30
0.0
 10
2.183162265353733
 20
-4.732872009277344
 30
0.0
 10
2.183162265353733
 20
-4.732872009277344
 30
0.0
 10
2.183162265353733
 20
-4.585706075032552
 30
0.0
 10
2.17671627468533
 20
-4.487028333875868
 30
0.0
 10
2.163824293348524
 20
-4.436777750651041
 30
0.0
 10
2.150911966959635
 20
-4.386546664767795
 30
0.0
 10
2.118660820855035
 20
-4.340957641601562
 30
0.0
 10
2.067072550455729
 20
-4.300010681152344
 30
0.0
  0
SPLINE
  5
46
330
41
100
AcDbEntity
  8
Layer 1
370
     0
100
AcDbSpline
210
0.0
220
0.0
230
1.0
 70
    11
 71
     3
 72
    26
 73
    22
 74
     0
 42
0.0000000001
 43
0.0000000001
 12
1.0
 22
0.0
 32
0.0
 13
1.0
 23
0.0
 33
0.0
 40
0.0
 40
0.0
 40
0.0
 40
0.0
 40
1.0
 40
1.0
 40
1.0
 40
2.0
 40
2.0
 40
2.0
 40
3.0
 40
3.0
 40
3.0
 40
4.0
 40
4.0
 40
4.0
 40
5.0
 40
5.0
 40
5.0
 40
6.0
 40
6.0
 40
6.0
 40
7.0
 40
7.0
 40
7.0
 40
7.0
 10
1.601292080349392
 20
-5.247342427571614
 30
0.0
 10
1.601292080349392
 20
-5.351006401909722
 30
0.0
 10
1.591623094346788
 20
-5.414515177408854
 30
0.0
 10
1.572263929578993
 20
-5.437867058648004
 30
0.0
 10
1.552905612521701
 20
-5.461238437228732
 30
0.0
 10
1.501296149359809
 20
-5.472894456651475
 30
0.0
 10
1.417456732855903
 20
-5.472894456651475
 30
0.0
 10
1.417456732855903
 20
-5.472894456651475
 30
0.0
 10
1.417456732855903
 20
-4.450703091091579
 30
0.0
 10
1.417456732855903
 20
-4.450703091091579
 30
0.0
 10
1.481046040852865
 20
-4.450703091091579
 30
0.0
 10
1.524344550238715
 20
-4.455345153808594
 30
0.0
 10
1.547392103407118
 20
-4.464608934190538
 30
0.0
 10
1.570398966471354
 20
-4.473893059624566
 30
0.0
 10
1.585156758626302
 20
-4.488467746310763
 30
0.0
 10
1.591623094346788
 20
-4.508292304144965
 30
0.0
 10
1.598048739963108
 20
-4.528116861979166
 30
0.0
 10
1.601292080349392
 20
-4.573239644368489
 30
0.0
 10
1.601292080349392
 20
-4.643619961208767
 30
0.0
 10
1.601292080349392
 20
-4.643619961208767
 30
0.0
 10
1.601292080349392
 20
-5.247342427571614
 30
0.0
 10
1.601292080349392
 20
-5.247342427571614
 30
0.0
  0
ENDBLK
  5
44
330
41
100
AcDbEntity
  8
0
100
AcDbBlockEnd
  0
BLOCK
  5
49
330
47
100
AcDbEntity
  8
0
100
AcDbBlockBegin
  2
block 3
 70
     0
 10
0.0
 20
0.0
 30
0.0
  3
block 3
  1

  0
POLYLINE
  5
4B
330
47
100
AcDbEntity
  8
Layer 1
370
     0
100
AcDb2dPolyline
 66
     1
 10
0.0
 20
0.0
 30
0.0
  0
VERTEX
  5
4C
330
4B
100
AcDbEntity
  8
Layer 1
370
     0
100
AcDbVertex
100
AcDb2dVertex
 10
2.564981248643663
 20
-4.184833102756076
 30
0.0
  0
VERTEX
  5
4D
330
4B
100
AcDbEntity
  8
Layer 1
370
     0
100
AcDbVertex
100
AcDb2dVertex
 10
2.268177456325955
 20
-5.738765292697482
 30
0.0
  0
VERTEX
  5
4E
330
4B
100
AcDbEntity
  8
Layer 1
370
     0
100
AcDbVertex
100
AcDb2dVertex
 10
2.869751824273003
 20
-5.738765292697482
 30
0.0
  0
VERTEX
  5
4F
330
4B
100
AcDbEntity
  8
Layer 1
370
     0
100
AcDbVertex
100
AcDb2dVertex
 10
2.904719034830729
 20
-5.459454854329427
 30
0.0
  0
VERTEX
  5
50
330
4B
100
AcDbEntity
  8
Layer 1
370
     0
100
AcDbVertex
100
AcDb2dVertex
 10
3.112858242458767
 20
-5.459454854329427
 30
0.0
  0
VERTEX
  5
51
330
4B
100
AcDbEntity
  8
Layer 1
370
     0
100
AcDbVertex
100
AcDb2dVertex
 10
3.144095526801215
 20
-5.738765292697482
 30
0.0
  0
VERTEX
  5
52
330
4B
100
AcDbEntity
  8
Layer 1
370
     0
100
AcDbVertex
100
AcDb2dVertex
 10
3.738756815592448
 20
-5.738765292697482
 30
0.0
  0
VERTEX
  5
53
330
4B
100
AcDbEntity
  8
Layer 1
370
     0
100
AcDbVertex
100
AcDb2dVertex
 10
3.406013488769531
 20
-4.184833102756076
 30
0.0
  0
VERTEX
  5
54
330
4B
100
AcDbEntity
  8
Layer 1
370
     0
100
AcDbVertex
100
AcDb2dVertex
 10
2.564981248643663
 20
-4.184833102756076
 30
0.0
  0
SEQEND
  5
55
330
4B
100
AcDbEntity
  8
Layer 1
370
     0
  0
SPLINE
  5
56
330
47
100
AcDbEntity
  8
Layer 1
370
     0
100
AcDbSpline
210
0.0
220
0.0
230
1.0
 70
    11
 71
     3
 72
    14
 73
    10
 74
     0
 42
0.0000000001
 43
0.0000000001
 12
1.0
 22
0.0
 32
0.0
 13
1.0
 23
0.0
 33
0.0
 40
0.0
 40
0.0
 40
0.0
 40
0.0
 40
1.0
 40
1.0
 40
1.0
 40
2.0
 40
2.0
 40
2.0
 40
3.0
 40
3.0
 40
3.0
 40
3.0
 10
2.897320217556424
 20
-5.183996412489149
 30
0.0
 10
2.912482367621528
 20
-5.046439276801215
 30
0.0
 10
2.949719746907552
 20
-4.828873528374566
 30
0.0
 10
3.008990817599826
 20
-4.531320359971788
 30
0.0
 10
3.038626776801215
 20
-4.790440877278646
 30
0.0
 10
3.068161010742188
 20
-5.007985432942708
 30
0.0
 10
3.09761471218533
 20
-5.183996412489149
 30
0.0
 10
3.09761471218533
 20
-5.183996412489149
 30
0.0
 10
2.897320217556424
 20
-5.183996412489149
 30
0.0
 10
2.897320217556424
 20
-5.183996412489149
 30
0.0
  0
ENDBLK
  5
4A
330
47
100
AcDbEntity
  8
0
100
AcDbBlockEnd
  0
BLOCK
  5
59
330
57
100
AcDbEntity
  8
0
100
AcDbBlockBegin
  2
block 4
 70
     0
 10
0.0
 20
0.0
 30
0.0
  3
block 4
  1

  0
SPLINE
  5
5B
330
57
100
AcDbEntity
  8
Layer 1
370
     0
100
AcDbSpline
210
0.0
220
0.0
230
1.0
 70
    11
 71
     3
 72
    41
 73
    37
 74
     0
 42
0.0000000001
 43
0.0000000001
 12
1.0
 22
0.0
 32
0.0
 13
1.0
 23
0.0
 33
0.0
 40
0.0
 40
0.0
 40
0.0
 40
0.0
 40
1.0
 40
1.0
 40
1.0
 40
2.0
 40
2.0
 40
2.0
 40
3.0
 40
3.0
 40
3.0
 40
4.0
 40
4.0
 40
4.0
 40
5.0
 40
5.0
 40
5.0
 40
6.0
 40
6.0
 40
6.0
 40
7.0
 40
7.0
 40
7.0
 40
8.0
 40
8.0
 40
8.0
 40
9.0
 40
9.0
 40
9.0
 40
10.0
 40
10.0
 40
10.0
 40
11.0
 40
11.0
 40
11.0
 40
12.0
 40
12.0
 40
12.0
 40
12.0
 10
5.069062974717881
 20
-4.300010681152344
 30
0.0
 10
5.017453511555989
 20
-4.259064568413629
 30
0.0
 10
4.942127651638454
 20
-4.22963121202257
 30
0.0
 10
4.843084547254774
 20
-4.21171145968967
 30
0.0
 10
4.744021945529513
 20
-4.193792555067274
 30
0.0
 10
4.553983900282118
 20
-4.184833102756076
 30
0.0
 10
4.272950914171007
 20
-4.184833102756076
 30
0.0
 10
4.272950914171007
 20
-4.184833102756076
 30
0.0
 10
3.837576972113715
 20
-4.184833102756076
 30
0.0
 10
3.837576972113715
 20
-4.184833102756076
 30
0.0
 10
3.837576972113715
 20
-4.184833102756076
 30
0.0
 10
3.837576972113715
 20
-5.738765292697482
 30
0.0
 10
3.837576972113715
 20
-5.738765292697482
 30
0.0
 10
3.837576972113715
 20
-5.738765292697482
 30
0.0
 10
4.571497599283854
 20
-5.738765292697482
 30
0.0
 10
4.571497599283854
 20
-5.738765292697482
 30
0.0
 10
4.71061537000868
 20
-5.738765292697482
 30
0.0
 10
4.814746432834201
 20
-5.733495076497396
 30
0.0
 10
4.883849249945746
 20
-5.722933451334635
 30
0.0
 10
4.952952067057291
 20
-5.712372673882379
 30
0.0
 10
5.011007520887587
 20
-5.693824768066406
 30
0.0
 10
5.057995266384548
 20
-5.667249891493055
 30
0.0
 10
5.10500250922309
 20
-5.640715705023871
 30
0.0
 10
5.13792249891493
 20
-5.60390387641059
 30
0.0
 10
5.156814575195312
 20
-5.556876288519965
 30
0.0
 10
5.175706651475694
 20
-5.509847852918837
 30
0.0
 10
5.185152689615885
 20
-5.416603088378906
 30
0.0
 10
5.185152689615885
 20
-5.277099609375
 30
0.0
 10
5.185152689615885
 20
-5.277099609375
 30
0.0
 10
5.185152689615885
 20
-4.732872009277344
 30
0.0
 10
5.185152689615885
 20
-4.732872009277344
 30
0.0
 10
5.185152689615885
 20
-4.585706075032552
 30
0.0
 10
5.178706698947482
 20
-4.487028333875868
 30
0.0
 10
5.165814717610677
 20
-4.436777750651041
 30
0.0
 10
5.152902391221788
 20
-4.386546664767795
 30
0.0
 10
5.120651245117188
 20
-4.340957641601562
 30
0.0
 10
5.069062974717881
 20
-4.300010681152344
 30
0.0
  0
SPLINE
  5
5C
330
57
100
AcDbEntity
  8
Layer 1
370
     0
100
AcDbSpline
210
0.0
220
0.0
230
1.0
 70
    11
 71
     3
 72
    26
 73
    22
 74
     0
 42
0.0000000001
 43
0.0000000001
 12
1.0
 22
0.0
 32
0.0
 13
1.0
 23
0.0
 33
0.0
 40
0.0
 40
0.0
 40
0.0
 40
0.0
 40
1.0
 40
1.0
 40
1.0
 40
2.0
 40
2.0
 40
2.0
 40
3.0
 40
3.0
 40
3.0
 40
4.0
 40
4.0
 40
4.0
 40
5.0
 40
5.0
 40
5.0
 40
6.0
 40
6.0
 40
6.0
 40
7.0
 40
7.0
 40
7.0
 40
7.0
 10
4.603282504611545
 20
-5.247342427571614
 30
0.0
 10
4.603282504611545
 20
-5.351006401909722
 30
0.0
 10
4.593613518608941
 20
-5.414515177408854
 30
0.0
 10
4.574254353841146
 20
-5.437867058648004
 30
0.0
 10
4.554896036783854
 20
-5.461238437228732
 30
0.0
 10
4.503286573621962
 20
-5.472894456651475
 30
0.0
 10
4.419447157118055
 20
-5.472894456651475
 30
0.0
 10
4.419447157118055
 20
-5.472894456651475
 30
0.0
 10
4.419447157118055
 20
-4.450703091091579
 30
0.0
 10
4.419447157118055
 20
-4.450703091091579
 30
0.0
 10
4.483036465115017
 20
-4.450703091091579
 30
0.0
 10
4.526334974500868
 20
-4.455345153808594
 30
0.0
 10
4.549382527669271
 20
-4.464608934190538
 30
0.0
 10
4.57239023844401
 20
-4.473893059624566
 30
0.0
 10
4.587147182888454
 20
-4.488467746310763
 30
0.0
 10
4.593613518608941
 20
-4.508292304144965
 30
0.0
 10
4.60003916422526
 20
-4.528116861979166
 30
0.0
 10
4.603282504611545
 20
-4.573239644368489
 30
0.0
 10
4.603282504611545
 20
-4.643619961208767
 30
0.0
 10
4.603282504611545
 20
-4.643619961208767
 30
0.0
 10
4.603282504611545
 20
-5.247342427571614
 30
0.0
 10
4.603282504611545
 20
-5.247342427571614
 30
0.0
  0
ENDBLK
  5
5A
330
57
100
AcDbEntity
  8
0
100
AcDbBlockEnd
  0
BLOCK
  5
5F
330
5D
100
AcDbEntity
  8
0
100
AcDbBlockBegin
  2
block 5
 70
     0
 10
0.0
 20
0.0
 30
0.0
  3
block 5
  1

  0
SPLINE
  5
61
330
5D
100
AcDbEntity
  8
Layer 1
370
     0
100
AcDbSpline
210
0.0
220
0.0
230
1.0
 70
    11
 71
     3
 72
    53
 73
    49
 74
     0
 42
0.0000000001
 43
0.0000000001
 12
1.0
 22
0.0
 32
0.0
 13
1.0
 23
0.0
 33
0.0
 40
0.0
 40
0.0
 40
0.0
 40
0.0
 40
1.0
 40
1.0
 40
1.0
 40
2.0
 40
2.0
 40
2.0
 40
3.0
 40
3.0
 40
3.0
 40
4.0
 40
4.0
 40
4.0
 40
5.0
 40
5.0
 40
5.0
 40
6.0
 40
6.0
 40
6.0
 40
7.0
 40
7.0
 40
7.0
 40
8.0
 40
8.0
 40
8.0
 40
9.0
 40
9.0
 40
9.0
 40
10.0
 40
10.0
 40
10.0
 40
11.0
 40
11.0
 40
11.0
 40
12.0
 40
12.0
 40
12.0
 40
13.0
 40
13.0
 40
13.0
 40
14.0
 40
14.0
 40
14.0
 40
15.0
 40
15.0
 40
15.0
 40
16.0
 40
16.0
 40
16.0
 40
16.0
 10
5.215010748969184
 20
-3.081128438313802
 30
0.0
 10
5.133418613009982
 20
-2.956924438476562
 30
0.0
 10
4.904406229654947
 20
-2.660414801703559
 30
0.0
 10
4.828981187608506
 20
-2.576417711046007
 30
0.0
 10
4.828981187608506
 20
-2.576417711046007
 30
0.0
 10
4.785096910264756
 20
-2.529237535264757
 30
0.0
 10
4.785096910264756
 20
-2.529237535264757
 30
0.0
 10
4.785096910264756
 20
-2.529237535264757
 30
0.0
 10
4.832410176595052
 20
-2.476569281684028
 30
0.0
 10
4.832410176595052
 20
-2.476569281684028
 30
0.0
 10
4.905774434407552
 20
-2.393292744954427
 30
0.0
 10
4.978455437554254
 20
-2.303062438964844
 30
0.0
 10
5.057993570963541
 20
-2.195374382866754
 30
0.0
 10
5.098448011610243
 20
-2.14081064860026
 30
0.0
 10
5.157414754231771
 20
-2.061202155219184
 30
0.0
 10
5.188957214355469
 20
-2.019561767578125
 30
0.0
 10
5.213881598578559
 20
-1.98634762234158
 30
0.0
 10
5.232157389322916
 20
-2.004231770833333
 30
0.0
 10
5.245260450575087
 20
-1.941959804958767
 30
0.0
 10
5.245260450575087
 20
-1.941959804958767
 30
0.0
 10
0.7504696316189235
 20
-1.941959804958767
 30
0.0
 10
0.7504696316189235
 20
-1.941959804958767
 30
0.0
 10
0.7249120076497395
 20
-2.004231770833333
 30
0.0
 10
0.7377861870659722
 20
-1.997020297580295
 30
0.0
 10
0.852108425564236
 20
-2.118031819661458
 30
0.0
 10
0.9131317138671875
 20
-2.183366563585069
 30
0.0
 10
0.9775848388671875
 20
-2.253021240234375
 30
0.0
 10
0.9947263929578992
 20
-2.273122999403212
 30
0.0
 10
1.039293924967448
 20
-2.324815538194444
 30
0.0
 10
1.159286499023438
 20
-2.484201219346788
 30
0.0
 10
1.192885504828559
 20
-2.535894605848524
 30
0.0
 10
1.192885504828559
 20
-2.535894605848524
 30
0.0
 10
1.220995585123698
 20
-2.579691569010417
 30
0.0
 10
1.220995585123698
 20
-2.579691569010417
 30
0.0
 10
1.220995585123698
 20
-2.579691569010417
 30
0.0
 10
1.118148803710938
 20
-2.688819037543403
 30
0.0
 10
1.118148803710938
 20
-2.688819037543403
 30
0.0
 10
1.026268853081597
 20
-2.7843017578125
 30
0.0
 10
0.9103885226779513
 20
-2.918871561686198
 30
0.0
 10
0.7760001288519965
 20
-3.1026611328125
 30
0.0
 10
0.7673890855577257
 20
-3.114407857259114
 30
0.0
 10
0.7605641682942708
 20
-3.125120374891493
 30
0.0
 10
0.7545301649305555
 20
-3.125120374891493
 30
0.0
 10
0.7545301649305555
 20
-3.125120374891493
 30
0.0
 10
5.244324578179254
 20
-3.125120374891493
 30
0.0
 10
5.244324578179254
 20
-3.125120374891493
 30
0.0
 10
5.238422817654079
 20
-3.125120374891493
 30
0.0
 10
5.229021708170572
 20
-3.102549235026042
 30
0.0
 10
5.215010748969184
 20
-3.081128438313802
 30
0.0
  0
SPLINE
  5
62
330
5D
100
AcDbEntity
  8
Layer 1
370
     0
100
AcDbSpline
210
0.0
220
0.0
230
1.0
 70
    11
 71
     3
 72
    65
 73
    61
 74
     0
 42
0.0000000001
 43
0.0000000001
 12
1.0
 22
0.0
 32
0.0
 13
1.0
 23
0.0
 33
0.0
 40
0.0
 40
0.0
 40
0.0
 40
0.0
 40
1.0
 40
1.0
 40
1.0
 40
2.0
 40
2.0
 40
2.0
 40
3.0
 40
3.0
 40
3.0
 40
4.0
 40
4.0
 40
4.0
 40
5.0
 40
5.0
 40
5.0
 40
6.0
 40
6.0
 40
6.0
 40
7.0
 40
7.0
 40
7.0
 40
8.0
 40
8.0
 40
8.0
 40
9.0
 40
9.0
 40
9.0
 40
10.0
 40
10.0
 40
10.0
 40
11.0
 40
11.0
 40
11.0
 40
12.0
 40
12.0
 40
12.0
 40
13.0
 40
13.0
 40
13.0
 40
14.0
 40
14.0
 40
14.0
 40
15.0
 40
15.0
 40
15.0
 40
16.0
 40
16.0
 40
16.0
 40
17.0
 40
17.0
 40
17.0
 40
18.0
 40
18.0
 40
18.0
 40
19.0
 40
19.0
 40
19.0
 40
20.0
 40
20.0
 40
20.0
 40
20.0
 10
1.708116319444444
 20
-2.20298597547743
 30
0.0
 10
1.691786872016059
 20
-2.210906982421875
 30
0.0
 10
1.667886522081163
 20
-2.232560899522569
 30
0.0
 10
1.636495802137587
 20
-2.232560899522569
 30
0.0
 10
1.636495802137587
 20
-2.232560899522569
 30
0.0
 10
1.53334469265408
 20
-2.232560899522569
 30
0.0
 10
1.53334469265408
 20
-2.232560899522569
 30
0.0
 10
1.53334469265408
 20
-2.232560899522569
 30
0.0
 10
1.53334469265408
 20
-2.927146911621094
 30
0.0
 10
1.53334469265408
 20
-2.927146911621094
 30
0.0
 10
1.53334469265408
 20
-2.993229336208767
 30
0.0
 10
1.481993781195746
 20
-3.026275634765625
 30
0.0
 10
1.400599161783854
 20
-3.026275634765625
 30
0.0
 10
1.364681667751736
 20
-3.026275634765625
 30
0.0
 10
1.330596923828125
 20
-3.021126641167534
 30
0.0
 10
1.315203348795573
 20
-3.01084476047092
 30
0.0
 10
1.304296705457899
 20
-3.004114786783854
 30
0.0
 10
1.30774180094401
 20
-2.9959962632921
 30
0.0
 10
1.302610609266493
 20
-2.986496819390191
 30
0.0
 10
1.294922722710503
 20
-2.972664727105034
 30
0.0
 10
1.305015563964844
 20
-2.951299031575521
 30
0.0
 10
1.305015563964844
 20
-2.922408209906684
 30
0.0
 10
1.305015563964844
 20
-2.922408209906684
 30
0.0
 10
1.305015563964844
 20
-2.211373223198785
 30
0.0
 10
1.305015563964844
 20
-2.211373223198785
 30
0.0
 10
1.305015563964844
 20
-2.201873779296875
 30
0.0
 10
1.267605251736111
 20
-2.232560899522569
 30
0.0
 10
1.252855936686198
 20
-2.232560899522569
 30
0.0
 10
1.252855936686198
 20
-2.232560899522569
 30
0.0
 10
1.14804924858941
 20
-2.232560899522569
 30
0.0
 10
1.14804924858941
 20
-2.232560899522569
 30
0.0
 10
1.11663818359375
 20
-2.232560899522569
 30
0.0
 10
1.092778523763021
 20
-2.2097413804796
 30
0.0
 10
1.076428731282552
 20
-2.201820373535156
 30
0.0
 10
1.06008063422309
 20
-2.193899366590712
 30
0.0
 10
1.051905314127604
 20
-2.171084933810764
 30
0.0
 10
1.051905314127604
 20
-2.161582946777344
 30
0.0
 10
1.051905314127604
 20
-2.146949768066406
 30
0.0
 10
1.059767829047309
 20
-2.131546868218316
 30
0.0
 10
1.075473361545139
 20
-2.12481689453125
 30
0.0
 10
1.091159396701389
 20
-2.118104722764757
 30
0.0
 10
1.109908209906684
 20
-2.104913499620225
 30
0.0
 10
1.131719801161024
 20
-2.10333506266276
 30
0.0
 10
1.153493245442708
 20
-2.101754082573785
 30
0.0
 10
1.173373752170139
 20
-2.08726077609592
 30
0.0
 10
1.191321478949653
 20
-2.08726077609592
 30
0.0
 10
1.191321478949653
 20
-2.08726077609592
 30
0.0
 10
1.59322272406684
 20
-2.08726077609592
 30
0.0
 10
1.59322272406684
 20
-2.08726077609592
 30
0.0
 10
1.611171298556858
 20
-2.08726077609592
 30
0.0
 10
1.631033155653212
 20
-2.100563049316406
 30
0.0
 10
1.652843899197048
 20
-2.102144029405382
 30
0.0
 10
1.674617343478733
 20
-2.103722466362847
 30
0.0
 10
1.693366156684028
 20
-2.118786282009549
 30
0.0
 10
1.709091186523438
 20
-2.125498453776042
 30
0.0
 10
1.724777221679688
 20
-2.132230970594618
 30
0.0
 10
1.732639736599392
 20
-2.152575174967448
 30
0.0
 10
1.732639736599392
 20
-2.167208353678385
 30
0.0
 10
1.732639736599392
 20
-2.176710340711805
 30
0.0
 10
1.72446526421441
 20
-2.195064968532986
 30
0.0
 10
1.708116319444444
 20
-2.20298597547743
 30
0.0
  0
SPLINE
  5
63
330
5D
100
AcDbEntity
  8
Layer 1
370
     0
100
AcDbSpline
210
0.0
220
0.0
230
1.0
 70
    11
 71
     3
 72
    86
 73
    82
 74
     0
 42
0.0000000001
 43
0.0000000001
 12
1.0
 22
0.0
 32
0.0
 13
1.0
 23
0.0
 33
0.0
 40
0.0
 40
0.0
 40
0.0
 40
0.0
 40
1.0
 40
1.0
 40
1.0
 40
2.0
 40
2.0
 40
2.0
 40
3.0
 40
3.0
 40
3.0
 40
4.0
 40
4.0
 40
4.0
 40
5.0
 40
5.0
 40
5.0
 40
6.0
 40
6.0
 40
6.0
 40
7.0
 40
7.0
 40
7.0
 40
8.0
 40
8.0
 40
8.0
 40
9.0
 40
9.0
 40
9.0
 40
10.0
 40
10.0
 40
10.0
 40
11.0
 40
11.0
 40
11.0
 40
12.0
 40
12.0
 40
12.0
 40
13.0
 40
13.0
 40
13.0
 40
14.0
 40
14.0
 40
14.0
 40
15.0
 40
15.0
 40
15.0
 40
16.0
 40
16.0
 40
16.0
 40
17.0
 40
17.0
 40
17.0
 40
18.0
 40
18.0
 40
18.0
 40
19.0
 40
19.0
 40
19.0
 40
20.0
 40
20.0
 40
20.0
 40
21.0
 40
21.0
 40
21.0
 40
22.0
 40
22.0
 40
22.0
 40
23.0
 40
23.0
 40
23.0
 40
24.0
 40
24.0
 40
24.0
 40
25.0
 40
25.0
 40
25.0
 40
26.0
 40
26.0
 40
26.0
 40
27.0
 40
27.0
 40
27.0
 40
27.0
 10
2.571204291449653
 20
-2.950306362575955
 30
0.0
 10
2.571204291449653
 20
-3.000952826605903
 30
0.0
 10
2.540273878309462
 20
-3.026275634765625
 30
0.0
 10
2.485783047146267
 20
-3.026275634765625
 30
0.0
 10
2.45821550157335
 20
-3.026275634765625
 30
0.0
 10
2.448781331380208
 20
-3.019642300075955
 30
0.0
 10
2.438851250542534
 20
-3.006377326117621
 30
0.0
 10
2.428919474283854
 20
-2.993130154079861
 30
0.0
 10
2.425904168023003
 20
-2.974438137478299
 30
0.0
 10
2.425904168023003
 20
-2.950306362575955
 30
0.0
 10
2.425904168023003
 20
-2.950306362575955
 30
0.0
 10
2.425904168023003
 20
-2.804879082573784
 30
0.0
 10
2.425904168023003
 20
-2.804879082573784
 30
0.0
 10
2.425904168023003
 20
-2.791049533420139
 30
0.0
 10
2.410255432128906
 20
-2.784122043185764
 30
0.0
 10
2.383332146538628
 20
-2.784122043185764
 30
0.0
 10
2.383332146538628
 20
-2.784122043185764
 30
0.0
 10
2.089814927842882
 20
-2.784706963433159
 30
0.0
 10
2.089814927842882
 20
-2.784706963433159
 30
0.0
 10
2.063535054524739
 20
-2.784706963433159
 30
0.0
 10
2.052274915907118
 20
-2.791439480251736
 30
0.0
 10
2.052274915907118
 20
-2.804879082573784
 30
0.0
 10
2.052274915907118
 20
-2.804879082573784
 30
0.0
 10
2.052274915907118
 20
-2.927146911621094
 30
0.0
 10
2.052274915907118
 20
-2.927146911621094
 30
0.0
 10
2.052274915907118
 20
-2.953270806206597
 30
0.0
 10
2.037953694661458
 20
-2.974438137478299
 30
0.0
 10
2.02384779188368
 20
-2.990652296278212
 30
0.0
 10
2.003343370225694
 20
-3.014396667480469
 30
0.0
 10
1.964156256781684
 20
-3.026275634765625
 30
0.0
 10
1.91672854953342
 20
-3.026275634765625
 30
0.0
 10
1.881454467773438
 20
-3.026275634765625
 30
0.0
 10
1.855445014105903
 20
-3.021126641167534
 30
0.0
 10
1.840051439073351
 20
-3.01084476047092
 30
0.0
 10
1.827877468532986
 20
-3.003334045410156
 30
0.0
 10
1.828806559244792
 20
-2.993832058376736
 30
0.0
 10
1.823030259874132
 20
-2.98234134250217
 30
0.0
 10
1.816631740993923
 20
-2.968098958333333
 30
0.0
 10
1.823944939507378
 20
-2.948121812608507
 30
0.0
 10
1.823944939507378
 20
-2.922408209906684
 30
0.0
 10
1.823944939507378
 20
-2.922408209906684
 30
0.0
 10
1.823944939507378
 20
-2.205443488226996
 30
0.0
 10
1.823944939507378
 20
-2.205443488226996
 30
0.0
 10
1.823944939507378
 20
-2.188431633843316
 30
0.0
 10
1.815979851616753
 20
-2.172002156575521
 30
0.0
 10
1.820467631022135
 20
-2.156180487738715
 30
0.0
 10
1.829442342122396
 20
-2.120185004340278
 30
0.0
 10
1.859380086263021
 20
-2.102179633246528
 30
0.0
 10
1.920933193630642
 20
-2.102179633246528
 30
0.0
 10
1.963230556911892
 20
-2.102179633246528
 30
0.0
 10
1.997611999511719
 20
-2.110977172851562
 30
0.0
 10
2.017492506239149
 20
-2.128574795193142
 30
0.0
 10
2.037354363335504
 20
-2.146192762586805
 30
0.0
 10
2.052274915907118
 20
-2.170228746202257
 30
0.0
 10
2.052274915907118
 20
-2.20070309109158
 30
0.0
 10
2.052274915907118
 20
-2.20070309109158
 30
0.0
 10
2.052274915907118
 20
-2.679063585069444
 30
0.0
 10
2.052274915907118
 20
-2.679063585069444
 30
0.0
 10
2.052274915907118
 20
-2.696873982747396
 30
0.0
 10
2.054368760850694
 20
-2.705770704481337
 30
0.0
 10
2.080648634168837
 20
-2.705770704481337
 30
0.0
 10
2.080648634168837
 20
-2.705770704481337
 30
0.0
 10
2.383703443739149
 20
-2.705184936523438
 30
0.0
 10
2.383703443739149
 20
-2.705184936523438
 30
0.0
 10
2.41062757703993
 20
-2.705184936523438
 30
0.0
 10
2.425904168023003
 20
-2.696484035915799
 30
0.0
 10
2.425904168023003
 20
-2.679063585069444
 30
0.0
 10
2.425904168023003
 20
-2.679063585069444
 30
0.0
 10
2.425904168023003
 20
-2.178148905436198
 30
0.0
 10
2.425904168023003
 20
-2.178148905436198
 30
0.0
 10
2.425904168023003
 20
-2.153606838650174
 30
0.0
 10
2.425125969780816
 20
-2.134818183051215
 30
0.0
 10
2.435056898328993
 20
-2.121765984429254
 30
0.0
 10
2.444986979166667
 20
-2.108694288465712
 30
0.0
 10
2.467381795247396
 20
-2.102179633246528
 30
0.0
 10
2.494948493109809
 20
-2.102179633246528
 30
0.0
 10
2.549439324273003
 20
-2.102179633246528
 30
0.0
 10
2.571204291449653
 20
-2.127503289116754
 30
0.0
 10
2.571204291449653
 20
-2.178148905436198
 30
0.0
 10
2.571204291449653
 20
-2.178148905436198
 30
0.0
 10
2.571204291449653
 20
-2.950306362575955
 30
0.0
 10
2.571204291449653
 20
-2.950306362575955
 30
0.0
  0
SPLINE
  5
64
330
5D
100
AcDbEntity
  8
Layer 1
370
     0
100
AcDbSpline
210
0.0
220
0.0
230
1.0
 70
    11
 71
     3
 72
   107
 73
   103
 74
     0
 42
0.0000000001
 43
0.0000000001
 12
1.0
 22
0.0
 32
0.0
 13
1.0
 23
0.0
 33
0.0
 40
0.0
 40
0.0
 40
0.0
 40
0.0
 40
1.0
 40
1.0
 40
1.0
 40
2.0
 40
2.0
 40
2.0
 40
3.0
 40
3.0
 40
3.0
 40
4.0
 40
4.0
 40
4.0
 40
5.0
 40
5.0
 40
5.0
 40
6.0
 40
6.0
 40
6.0
 40
7.0
 40
7.0
 40
7.0
 40
8.0
 40
8.0
 40
8.0
 40
9.0
 40
9.0
 40
9.0
 40
10.0
 40
10.0
 40
10.0
 40
11.0
 40
11.0
 40
11.0
 40
12.0
 40
12.0
 40
12.0
 40
13.0
 40
13.0
 40
13.0
 40
14.0
 40
14.0
 40
14.0
 40
15.0
 40
15.0
 40
15.0
 40
16.0
 40
16.0
 40
16.0
 40
17.0
 40
17.0
 40
17.0
 40
18.0
 40
18.0
 40
18.0
 40
19.0
 40
19.0
 40
19.0
 40
20.0
 40
20.0
 40
20.0
 40
21.0
 40
21.0
 40
21.0
 40
22.0
 40
22.0
 40
22.0
 40
23.0
 40
23.0
 40
23.0
 40
24.0
 40
24.0
 40
24.0
 40
25.0
 40
25.0
 40
25.0
 40
26.0
 40
26.0
 40
26.0
 40
27.0
 40
27.0
 40
27.0
 40
28.0
 40
28.0
 40
28.0
 40
29.0
 40
29.0
 40
29.0
 40
30.0
 40
30.0
 40
30.0
 40
31.0
 40
31.0
 40
31.0
 40
32.0
 40
32.0
 40
32.0
 40
33.0
 40
33.0
 40
33.0
 40
34.0
 40
34.0
 40
34.0
 40
34.0
 10
3.404374016655816
 20
-3.009947882758246
 30
0.0
 10
3.36334482828776
 20
-3.020833333333333
 30
0.0
 10
3.293519761827257
 20
-3.026275634765625
 30
0.0
 10
3.193512810601128
 20
-3.026275634765625
 30
0.0
 10
3.106343587239583
 20
-3.026275634765625
 30
0.0
 10
3.039720323350694
 20
-3.01835462782118
 30
0.0
 10
2.991003248426649
 20
-3.002533806694878
 30
0.0
 10
2.903834025065104
 20
-2.973658243815104
 30
0.0
 10
2.866419474283854
 20
-2.920632256401909
 30
0.0
 10
2.854889763726128
 20
-2.84346940782335
 30
0.0
 10
2.849758572048611
 20
-2.808644612630208
 30
0.0
 10
2.861805386013455
 20
-2.772045559353299
 30
0.0
 10
2.861805386013455
 20
-2.733668009440104
 30
0.0
 10
2.861805386013455
 20
-2.733668009440104
 30
0.0
 10
2.861805386013455
 20
-2.235702514648438
 30
0.0
 10
2.861805386013455
 20
-2.235702514648438
 30
0.0
 10
2.861805386013455
 20
-2.209989759657118
 30
0.0
 10
2.851358201768663
 20
-2.17553965250651
 30
0.0
 10
2.859688652886284
 20
-2.157335917154948
 30
0.0
 10
2.877638075086805
 20
-2.118959214952257
 30
0.0
 10
2.909818861219618
 20
-2.08726077609592
 30
0.0
 10
2.985478719075521
 20
-2.08726077609592
 30
0.0
 10
2.985478719075521
 20
-2.08726077609592
 30
0.0
 10
3.245073954264323
 20
-2.08726077609592
 30
0.0
 10
3.245073954264323
 20
-2.08726077609592
 30
0.0
 10
3.26300303141276
 20
-2.08726077609592
 30
0.0
 10
3.283115810818142
 20
-2.100563049316406
 30
0.0
 10
3.304907904730903
 20
-2.102144029405382
 30
0.0
 10
3.358111063639323
 20
-2.10608164469401
 30
0.0
 10
3.384954664442274
 20
-2.131841023763021
 30
0.0
 10
3.384954664442274
 20
-2.157554626464844
 30
0.0
 10
3.384954664442274
 20
-2.16705576578776
 30
0.0
 10
3.377067565917969
 20
-2.176846822102864
 30
0.0
 10
3.360406663682725
 20
-2.185350206163194
 30
0.0
 10
3.343745761447483
 20
-2.193876478407118
 30
0.0
 10
3.319346110026042
 20
-2.19850836859809
 30
0.0
 10
3.285380045572917
 20
-2.19850836859809
 30
0.0
 10
3.261011759440104
 20
-2.19850836859809
 30
0.0
 10
3.238338894314236
 20
-2.198415120442708
 30
0.0
 10
3.213678148057725
 20
-2.197831895616319
 30
0.0
 10
3.188998752170139
 20
-2.19722408718533
 30
0.0
 10
3.171759711371528
 20
-2.197031656901042
 30
0.0
 10
3.147412618001302
 20
-2.197031656901042
 30
0.0
 10
3.101895650227864
 20
-2.197031656901042
 30
0.0
 10
3.090134514702691
 20
-2.21295420328776
 30
0.0
 10
3.090134514702691
 20
-2.244619581434462
 30
0.0
 10
3.090134514702691
 20
-2.244619581434462
 30
0.0
 10
3.090134514702691
 20
-2.666009691026475
 30
0.0
 10
3.090134514702691
 20
-2.666009691026475
 30
0.0
 10
3.090134514702691
 20
-2.684212578667534
 30
0.0
 10
3.083644443088108
 20
-2.695878770616319
 30
0.0
 10
3.092638651529948
 20
-2.701029459635417
 30
0.0
 10
3.101613362630208
 20
-2.706180996365017
 30
0.0
 10
3.105889214409722
 20
-2.708735148111979
 30
0.0
 10
3.123857286241319
 20
-2.708735148111979
 30
0.0
 10
3.150780571831597
 20
-2.708735148111979
 30
0.0
 10
3.177001105414496
 20
-2.708345201280382
 30
0.0
 10
3.204256693522135
 20
-2.707546657986111
 30
0.0
 10
3.231491088867188
 20
-2.706765916612413
 30
0.0
 10
3.258260091145833
 20
-2.706375969780816
 30
0.0
 10
3.285164727105034
 20
-2.706375969780816
 30
0.0
 10
3.317862616644965
 20
-2.706375969780816
 30
0.0
 10
3.342217339409722
 20
-2.709340413411458
 30
0.0
 10
3.358255174424913
 20
-2.715272691514757
 30
0.0
 10
3.377492268880208
 20
-2.72239261203342
 30
0.0
 10
3.387441847059462
 20
-2.73425547281901
 30
0.0
 10
3.387441847059462
 20
-2.750878228081597
 30
0.0
 10
3.387441847059462
 20
-2.760379367404514
 30
0.0
 10
3.381911383734809
 20
-2.768492804633246
 30
0.0
 10
3.369092305501302
 20
-2.77520751953125
 30
0.0
 10
3.356256273057725
 20
-2.781937493218316
 30
0.0
 10
3.34014892578125
 20
-2.785313076443142
 30
0.0
 10
3.317069159613715
 20
-2.785313076443142
 30
0.0
 10
3.317069159613715
 20
-2.785313076443142
 30
0.0
 10
3.125301784939236
 20
-2.783518473307292
 30
0.0
 10
3.125301784939236
 20
-2.783518473307292
 30
0.0
 10
3.094534979926215
 20
-2.783518473307292
 30
0.0
 10
3.090134514702691
 20
-2.791829427083333
 30
0.0
 10
3.090134514702691
 20
-2.808451334635417
 30
0.0
 10
3.090134514702691
 20
-2.808451334635417
 30
0.0
 10
3.090134514702691
 20
-2.835745917426215
 30
0.0
 10
3.090134514702691
 20
-2.835745917426215
 30
0.0
 10
3.090134514702691
 20
-2.865027533637153
 30
0.0
 10
3.087789747450087
 20
-2.887583414713542
 30
0.0
 10
3.105095757378472
 20
-2.903405083550347
 30
0.0
 10
3.132662455240885
 20
-2.927557203504774
 30
0.0
 10
3.176670498318142
 20
-2.939613342285156
 30
0.0
 10
3.255509270562066
 20
-2.939613342285156
 30
0.0
 10
3.280520968967014
 20
-2.939613342285156
 30
0.0
 10
3.304461161295573
 20
-2.938931783040364
 30
0.0
 10
3.329140557183159
 20
-2.937545776367188
 30
0.0
 10
3.35380130343967
 20
-2.936162312825521
 30
0.0
 10
3.378208584255642
 20
-2.935457865397135
 30
0.0
 10
3.40320078531901
 20
-2.935457865397135
 30
0.0
 10
3.419861687554253
 20
-2.935457865397135
 30
0.0
 10
3.434231228298611
 20
-2.937839931911892
 30
0.0
 10
3.446737501356337
 20
-2.942580329047309
 30
0.0
 10
3.459222581651475
 20
-2.947341918945312
 30
0.0
 10
3.465705023871528
 20
-2.954656812879774
 30
0.0
 10
3.465705023871528
 20
-2.964548746744792
 30
0.0
 10
3.465705023871528
 20
-2.983940124511719
 30
0.0
 10
3.445403205023871
 20
-2.999062432183159
 30
0.0
 10
3.404374016655816
 20
-3.009947882758246
 30
0.0
  0
SPLINE
  5
65
330
5D
100
AcDbEntity
  8
Layer 1
370
     0
100
AcDbSpline
210
0.0
220
0.0
230
1.0
 70
    11
 71
     3
 72
    98
 73
    94
 74
     0
 42
0.0000000001
 43
0.0000000001
 12
1.0
 22
0.0
 32
0.0
 13
1.0
 23
0.0
 33
0.0
 40
0.0
 40
0.0
 40
0.0
 40
0.0
 40
1.0
 40
1.0
 40
1.0
 40
2.0
 40
2.0
 40
2.0
 40
3.0
 40
3.0
 40
3.0
 40
4.0
 40
4.0
 40
4.0
 40
5.0
 40
5.0
 40
5.0
 40
6.0
 40
6.0
 40
6.0
 40
7.0
 40
7.0
 40
7.0
 40
8.0
 40
8.0
 40
8.0
 40
9.0
 40
9.0
 40
9.0
 40
10.0
 40
10.0
 40
10.0
 40
11.0
 40
11.0
 40
11.0
 40
12.0
 40
12.0
 40
12.0
 40
13.0
 40
13.0
 40
13.0
 40
14.0
 40
14.0
 40
14.0
 40
15.0
 40
15.0
 40
15.0
 40
16.0
 40
16.0
 40
16.0
 40
17.0
 40
17.0
 40
17.0
 40
18.0
 40
18.0
 40
18.0
 40
19.0
 40
19.0
 40
19.0
 40
20.0
 40
20.0
 40
20.0
 40
21.0
 40
21.0
 40
21.0
 40
22.0
 40
22.0
 40
22.0
 40
23.0
 40
23.0
 40
23.0
 40
24.0
 40
24.0
 40
24.0
 40
25.0
 40
25.0
 40
25.0
 40
26.0
 40
26.0
 40
26.0
 40
27.0
 40
27.0
 40
27.0
 40
28.0
 40
28.0
 40
28.0
 40
29.0
 40
29.0
 40
29.0
 40
30.0
 40
30.0
 40
30.0
 40
31.0
 40
31.0
 40
31.0
 40
31.0
 10
4.139244927300347
 20
-2.486167907714844
 30
0.0
 10
4.122565375434028
 20
-2.530494689941406
 30
0.0
 10
4.094685024685329
 20
-2.552640279134114
 30
0.0
 10
4.055587768554688
 20
-2.552640279134114
 30
0.0
 10
4.020333184136285
 20
-2.552640279134114
 30
0.0
 10
4.002716064453125
 20
-2.541577657063802
 30
0.0
 10
4.002716064453125
 20
-2.519414265950521
 30
0.0
 10
4.002716064453125
 20
-2.513482835557725
 30
0.0
 10
4.003672281901041
 20
-2.507532755533854
 30
0.0
 10
4.005583869086371
 20
-2.501601325141059
 30
0.0
 10
4.020333184136285
 20
-2.458873324924045
 30
0.0
 10
4.027708265516493
 20
-2.41534678141276
 30
0.0
 10
4.027708265516493
 20
-2.371040344238281
 30
0.0
 10
4.027708265516493
 20
-2.337796529134114
 30
0.0
 10
4.02193366156684
 20
-2.307126363118489
 30
0.0
 10
4.010403103298611
 20
-2.279034084743924
 30
0.0
 10
3.983479817708333
 20
-2.216523912217882
 30
0.0
 10
3.9283447265625
 20
-2.185269673665364
 30
0.0
 10
3.845018174913194
 20
-2.185269673665364
 30
0.0
 10
3.784128824869792
 20
-2.185269673665364
 30
0.0
 10
3.737657335069444
 20
-2.202868991427951
 30
0.0
 10
3.705602857801649
 20
-2.238084581163194
 30
0.0
 10
3.678678724500868
 20
-2.267365349663628
 30
0.0
 10
3.665217081705729
 20
-2.305955674913194
 30
0.0
 10
3.665217081705729
 20
-2.353814866807725
 30
0.0
 10
3.665217081705729
 20
-2.399723476833767
 30
0.0
 10
3.684766133626302
 20
-2.443051656087239
 30
0.0
 10
3.723883734809028
 20
-2.48380872938368
 30
0.0
 10
3.759761386447483
 20
-2.520992702907986
 30
0.0
 10
3.820982191297743
 20
-2.565905253092448
 30
0.0
 10
3.907528347439236
 20
-2.618522644042969
 30
0.0
 10
3.943405999077691
 20
-2.64068603515625
 30
0.0
 10
3.976416693793403
 20
-2.663240220811632
 30
0.0
 10
4.006559583875868
 20
-2.686183505588108
 30
0.0
 10
4.071936713324653
 20
-2.737220764160156
 30
0.0
 10
4.104635450575087
 20
-2.78944820827908
 30
0.0
 10
4.104635450575087
 20
-2.842866685655382
 30
0.0
 10
4.104635450575087
 20
-2.89193132188585
 30
0.0
 10
4.082511054144965
 20
-2.932298448350694
 30
0.0
 10
4.038281758626302
 20
-2.963943481445312
 30
0.0
 10
3.979948255750868
 20
-3.005498250325521
 30
0.0
 10
3.895646837022569
 20
-3.026275634765625
 30
0.0
 10
3.785416497124566
 20
-3.026275634765625
 30
0.0
 10
3.688609653049045
 20
-3.026275634765625
 30
0.0
 10
3.614588419596354
 20
-3.00569576687283
 30
0.0
 10
3.56331804063585
 20
-2.964548746744792
 30
0.0
 10
3.522288852267795
 20
-2.930912441677517
 30
0.0
 10
3.501764085557725
 20
-2.885006374782986
 30
0.0
 10
3.501764085557725
 20
-2.826847500271267
 30
0.0
 10
3.501764085557725
 20
-2.810635884602864
 30
0.0
 10
3.508026970757378
 20
-2.796978420681424
 30
0.0
 10
3.520513746473524
 20
-2.785897996690538
 30
0.0
 10
3.533019171820746
 20
-2.774817572699653
 30
0.0
 10
3.549855550130208
 20
-2.769273546006944
 30
0.0
 10
3.571004231770833
 20
-2.769273546006944
 30
0.0
 10
3.60945807562934
 20
-2.769273546006944
 30
0.0
 10
3.628694322374132
 20
-2.784122043185764
 30
0.0
 10
3.628694322374132
 20
-2.813797844780816
 30
0.0
 10
3.628694322374132
 20
-2.831590440538194
 30
0.0
 10
3.632849799262153
 20
-2.849794175889757
 30
0.0
 10
3.641181098090278
 20
-2.868402269151475
 30
0.0
 10
3.65977308485243
 20
-2.912708706325955
 30
0.0
 10
3.703358968098958
 20
-2.93487548828125
 30
0.0
 10
3.77195570203993
 20
-2.93487548828125
 30
0.0
 10
3.848219129774305
 20
-2.93487548828125
 30
0.0
 10
3.886361016167534
 20
-2.908964369032118
 30
0.0
 10
3.886361016167534
 20
-2.857126871744792
 30
0.0
 10
3.886361016167534
 20
-2.823883056640625
 30
0.0
 10
3.858480665418837
 20
-2.788082546657986
 30
0.0
 10
3.802722507052951
 20
-2.749687194824219
 30
0.0
 10
3.777065700954861
 20
-2.732694837782118
 30
0.0
 10
3.749187893337673
 20
-2.714881896972656
 30
0.0
 10
3.719063652886284
 20
-2.696268717447917
 30
0.0
 10
3.635737101236979
 20
-2.645642598470052
 30
0.0
 10
3.572915818956163
 20
-2.599932352701823
 30
0.0
 10
3.53062015109592
 20
-2.559175279405382
 30
0.0
 10
3.468442281087239
 20
-2.500215318467882
 30
0.0
 10
3.437363518608941
 20
-2.434740702311198
 30
0.0
 10
3.437363518608941
 20
-2.362729390462239
 30
0.0
 10
3.437363518608941
 20
-2.31327395968967
 30
0.0
 10
3.450492011176215
 20
-2.268947177463108
 30
0.0
 10
3.476771884494358
 20
-2.229773627387153
 30
0.0
 10
3.495365566677517
 20
-2.202089097764757
 30
0.0
 10
3.521625094943576
 20
-2.178539699978299
 30
0.0
 10
3.555611504448784
 20
-2.159145779079861
 30
0.0
 10
3.621008131239149
 20
-2.121160719129774
 30
0.0
 10
3.708158704969618
 20
-2.102179633246528
 30
0.0
 10
3.817140367296007
 20
-2.102179633246528
 30
0.0
 10
4.044058057996962
 20
-2.102179633246528
 30
0.0
 10
4.157506306966146
 20
-2.191786024305555
 30
0.0
 10
4.157506306966146
 20
-2.371040344238281
 30
0.0
 10
4.157506306966146
 20
-2.415757073296441
 30
0.0
 10
4.151400248209635
 20
-2.454114278157552
 30
0.0
 10
4.139244927300347
 20
-2.486167907714844
 30
0.0
  0
SPLINE
  5
66
330
5D
100
AcDbEntity
  8
Layer 1
370
     0
100
AcDbSpline
210
0.0
220
0.0
230
1.0
 70
    11
 71
     3
 72
   107
 73
   103
 74
     0
 42
0.0000000001
 43
0.0000000001
 12
1.0
 22
0.0
 32
0.0
 13
1.0
 23
0.0
 33
0.0
 40
0.0
 40
0.0
 40
0.0
 40
0.0
 40
1.0
 40
1.0
 40
1.0
 40
2.0
 40
2.0
 40
2.0
 40
3.0
 40
3.0
 40
3.0
 40
4.0
 40
4.0
 40
4.0
 40
5.0
 40
5.0
 40
5.0
 40
6.0
 40
6.0
 40
6.0
 40
7.0
 40
7.0
 40
7.0
 40
8.0
 40
8.0
 40
8.0
 40
9.0
 40
9.0
 40
9.0
 40
10.0
 40
10.0
 40
10.0
 40
11.0
 40
11.0
 40
11.0
 40
12.0
 40
12.0
 40
12.0
 40
13.0
 40
13.0
 40
13.0
 40
14.0
 40
14.0
 40
14.0
 40
15.0
 40
15.0
 40
15.0
 40
16.0
 40
16.0
 40
16.0
 40
17.0
 40
17.0
 40
17.0
 40
18.0
 40
18.0
 40
18.0
 40
19.0
 40
19.0
 40
19.0
 40
20.0
 40
20.0
 40
20.0
 40
21.0
 40
21.0
 40
21.0
 40
22.0
 40
22.0
 40
22.0
 40
23.0
 40
23.0
 40
23.0
 40
24.0
 40
24.0
 40
24.0
 40
25.0
 40
25.0
 40
25.0
 40
26.0
 40
26.0
 40
26.0
 40
27.0
 40
27.0
 40
27.0
 40
28.0
 40
28.0
 40
28.0
 40
29.0
 40
29.0
 40
29.0
 40
30.0
 40
30.0
 40
30.0
 40
31.0
 40
31.0
 40
31.0
 40
32.0
 40
32.0
 40
32.0
 40
33.0
 40
33.0
 40
33.0
 40
34.0
 40
34.0
 40
34.0
 40
34.0
 10
4.883110894097222
 20
-3.009947882758246
 30
0.0
 10
4.842081705729166
 20
-3.020833333333333
 30
0.0
 10
4.772232055664062
 20
-3.026275634765625
 30
0.0
 10
4.672225952148438
 20
-3.026275634765625
 30
0.0
 10
4.585055033365885
 20
-3.026275634765625
 30
0.0
 10
4.518383449978298
 20
-3.01835462782118
 30
0.0
 10
4.46966807047526
 20
-3.002533806694878
 30
0.0
 10
4.382497999403212
 20
-2.973658243815104
 30
0.0
 10
4.353059556749132
 20
-2.920632256401909
 30
0.0
 10
4.341528998480903
 20
-2.84346940782335
 30
0.0
 10
4.336398654513888
 20
-2.808644612630208
 30
0.0
 10
4.356324089898004
 20
-2.772045559353299
 30
0.0
 10
4.356324089898004
 20
-2.733668009440104
 30
0.0
 10
4.356324089898004
 20
-2.733668009440104
 30
0.0
 10
4.356324089898004
 20
-2.235702514648438
 30
0.0
 10
4.356324089898004
 20
-2.235702514648438
 30
0.0
 10
4.356324089898004
 20
-2.209989759657118
 30
0.0
 10
4.337998284233941
 20
-2.17553965250651
 30
0.0
 10
4.346328735351562
 20
-2.157335917154948
 30
0.0
 10
4.364278157552083
 20
-2.118959214952257
 30
0.0
 10
4.388580322265625
 20
-2.08726077609592
 30
0.0
 10
4.464239332411024
 20
-2.08726077609592
 30
0.0
 10
4.464239332411024
 20
-2.08726077609592
 30
0.0
 10
4.723836263020833
 20
-2.08726077609592
 30
0.0
 10
4.723836263020833
 20
-2.08726077609592
 30
0.0
 10
4.741765340169271
 20
-2.08726077609592
 30
0.0
 10
4.761870490180121
 20
-2.100563049316406
 30
0.0
 10
4.783662584092881
 20
-2.102144029405382
 30
0.0
 10
4.836865743001302
 20
-2.10608164469401
 30
0.0
 10
4.863704257541232
 20
-2.131841023763021
 30
0.0
 10
4.863704257541232
 20
-2.157554626464844
 30
0.0
 10
4.863704257541232
 20
-2.16705576578776
 30
0.0
 10
4.855804443359375
 20
-2.176846822102864
 30
0.0
 10
4.839143541124131
 20
-2.185350206163194
 30
0.0
 10
4.822482638888888
 20
-2.193876478407118
 30
0.0
 10
4.798058403862847
 20
-2.19850836859809
 30
0.0
 10
4.764091491699219
 20
-2.19850836859809
 30
0.0
 10
4.739724900987413
 20
-2.19850836859809
 30
0.0
 10
4.71700202094184
 20
-2.198415120442708
 30
0.0
 10
4.692342122395833
 20
-2.197831895616319
 30
0.0
 10
4.667661878797743
 20
-2.19722408718533
 30
0.0
 10
4.658399793836805
 20
-2.197031656901042
 30
0.0
 10
4.634051852756076
 20
-2.197031656901042
 30
0.0
 10
4.588535732693142
 20
-2.197031656901042
 30
0.0
 10
4.584653218587239
 20
-2.21295420328776
 30
0.0
 10
4.584653218587239
 20
-2.244619581434462
 30
0.0
 10
4.584653218587239
 20
-2.244619581434462
 30
0.0
 10
4.584653218587239
 20
-2.666009691026475
 30
0.0
 10
4.584653218587239
 20
-2.666009691026475
 30
0.0
 10
4.584653218587239
 20
-2.684212578667534
 30
0.0
 10
4.570284525553385
 20
-2.695878770616319
 30
0.0
 10
4.579277886284722
 20
-2.701029459635417
 30
0.0
 10
4.588252597384982
 20
-2.706180996365017
 30
0.0
 10
4.588684929741754
 20
-2.708735148111979
 30
0.0
 10
4.606653849283854
 20
-2.708735148111979
 30
0.0
 10
4.633577134874131
 20
-2.708735148111979
 30
0.0
 10
4.657779269748263
 20
-2.708345201280382
 30
0.0
 10
4.685033162434896
 20
-2.707546657986111
 30
0.0
 10
4.712269253200954
 20
-2.706765916612413
 30
0.0
 10
4.738022698296441
 20
-2.706375969780816
 30
0.0
 10
4.764927334255642
 20
-2.706375969780816
 30
0.0
 10
4.797625223795572
 20
-2.706375969780816
 30
0.0
 10
4.821471320258246
 20
-2.709340413411458
 30
0.0
 10
4.837509155273438
 20
-2.715272691514757
 30
0.0
 10
4.856746249728732
 20
-2.72239261203342
 30
0.0
 10
4.866431342230903
 20
-2.73425547281901
 30
0.0
 10
4.866431342230903
 20
-2.750878228081597
 30
0.0
 10
4.866431342230903
 20
-2.760379367404514
 30
0.0
 10
4.860749138726129
 20
-2.768492804633246
 30
0.0
 10
4.847931755913629
 20
-2.77520751953125
 30
0.0
 10
4.835094028049045
 20
-2.781937493218316
 30
0.0
 10
4.818876478407118
 20
-2.785313076443142
 30
0.0
 10
4.795795864529079
 20
-2.785313076443142
 30
0.0
 10
4.795795864529079
 20
-2.785313076443142
 30
0.0
 10
4.611973232693142
 20
-2.783518473307292
 30
0.0
 10
4.611973232693142
 20
-2.783518473307292
 30
0.0
 10
4.581206427680121
 20
-2.783518473307292
 30
0.0
 10
4.584653218587239
 20
-2.791829427083333
 30
0.0
 10
4.584653218587239
 20
-2.808451334635417
 30
0.0
 10
4.584653218587239
 20
-2.808451334635417
 30
0.0
 10
4.584653218587239
 20
-2.835745917426215
 30
0.0
 10
4.584653218587239
 20
-2.835745917426215
 30
0.0
 10
4.584653218587239
 20
-2.865027533637153
 30
0.0
 10
4.574430677625868
 20
-2.887583414713542
 30
0.0
 10
4.59173583984375
 20
-2.903405083550347
 30
0.0
 10
4.619302537706163
 20
-2.927557203504774
 30
0.0
 10
4.659468756781684
 20
-2.939613342285156
 30
0.0
 10
4.738306681315104
 20
-2.939613342285156
 30
0.0
 10
4.763318379720052
 20
-2.939613342285156
 30
0.0
 10
4.785240173339844
 20
-2.938931783040364
 30
0.0
 10
4.809920416937934
 20
-2.937545776367188
 30
0.0
 10
4.834580315483941
 20
-2.936162312825521
 30
0.0
 10
4.857978820800781
 20
-2.935457865397135
 30
0.0
 10
4.882971021864149
 20
-2.935457865397135
 30
0.0
 10
4.899632771809896
 20
-2.935457865397135
 30
0.0
 10
4.91349622938368
 20
-2.937839931911892
 30
0.0
 10
4.926002502441406
 20
-2.942580329047309
 30
0.0
 10
4.938489278157552
 20
-2.947341918945312
 30
0.0
 10
4.944707234700521
 20
-2.954656812879774
 30
0.0
 10
4.944707234700521
 20
-2.964548746744792
 30
0.0
 10
4.944707234700521
 20
-2.983940124511719
 30
0.0
 10
4.924140082465278
 20
-2.999062432183159
 30
0.0
 10
4.883110894097222
 20
-3.009947882758246
 30
0.0
  0
ENDBLK
  5
60
330
5D
100
AcDbEntity
  8
0
100
AcDbBlockEnd
  0
BLOCK
  5
72
330
70
100
AcDbEntity
  8
0
100
AcDbBlockBegin
  2
block 6
 70
     0
 10
0.0
 20
0.0
 30
0.0
  3
block 6
  1

  0
SPLINE
  5
74
330
70
100
AcDbEntity
  8
Layer 1
370
     0
100
AcDbSpline
210
0.0
220
0.0
230
1.0
 70
    11
 71
     3
 72
    59
 73
    55
 74
     0
 42
0.0000000001
 43
0.0000000001
 12
1.0
 22
0.0
 32
0.0
 13
1.0
 23
0.0
 33
0.0
 40
0.0
 40
0.0
 40
0.0
 40
0.0
 40
1.0
 40
1.0
 40
1.0
 40
2.0
 40
2.0
 40
2.0
 40
3.0
 40
3.0
 40
3.0
 40
4.0
 40
4.0
 40
4.0
 40
5.0
 40
5.0
 40
5.0
 40
6.0
 40
6.0
 40
6.0
 40
7.0
 40
7.0
 40
7.0
 40
8.0
 40
8.0
 40
8.0
 40
9.0
 40
9.0
 40
9.0
 40
10.0
 40
10.0
 40
10.0
 40
11.0
 40
11.0
 40
11.0
 40
12.0
 40
12.0
 40
12.0
 40
13.0
 40
13.0
 40
13.0
 40
14.0
 40
14.0
 40
14.0
 40
15.0
 40
15.0
 40
15.0
 40
16.0
 40
16.0
 40
16.0
 40
17.0
 40
17.0
 40
17.0
 40
18.0
 40
18.0
 40
18.0
 40
18.0
 10
3.123854743109809
 20
-1.539708455403646
 30
0.0
 10
3.115412394205729
 20
-1.475733439127604
 30
0.0
 10
3.111185709635417
 20
-1.363738165961371
 30
0.0
 10
3.111185709635417
 20
-1.203761630588108
 30
0.0
 10
3.111185709635417
 20
-1.203761630588108
 30
0.0
 10
3.111185709635417
 20
-0.9378907945421007
 30
0.0
 10
3.111185709635417
 20
-0.9378907945421007
 30
0.0
 10
3.111185709635417
 20
-0.7817866007486979
 30
0.0
 10
3.115230136447483
 20
-0.6712298923068576
 30
0.0
 10
3.123328314887153
 20
-0.6062825520833333
 30
0.0
 10
3.131416320800781
 20
-0.5413555569118923
 30
0.0
 10
3.156754387749566
 20
-0.4819827609592013
 30
0.0
 10
3.19934336344401
 20
-0.4282446967230902
 30
0.0
 10
3.241922166612413
 20
-0.3744871351453993
 30
0.0
 10
3.299470689561632
 20
-0.3332155015733507
 30
0.0
 10
3.371968587239583
 20
-0.3044314914279514
 30
0.0
 10
3.444456312391493
 20
-0.2756271362304688
 30
0.0
 10
3.528914557562934
 20
-0.2612347073025174
 30
0.0
 10
3.625362820095486
 20
-0.2612347073025174
 30
0.0
 10
3.716854519314236
 20
-0.2612347073025174
 30
0.0
 10
3.799041748046875
 20
-0.2748362223307291
 30
0.0
 10
3.871884663899739
 20
-0.3020189073350694
 30
0.0
 10
3.944737752278646
 20
-0.3292227851019965
 30
0.0
 10
4.003330654568142
 20
-0.3700273301866319
 30
0.0
 10
4.047672695583767
 20
-0.424393547905816
 30
0.0
 10
4.092024909125434
 20
-0.4788004557291666
 30
0.0
 10
4.118417527940538
 20
-0.5379901462131076
 30
0.0
 10
4.126859876844618
 20
-0.6019651624891492
 30
0.0
 10
4.135312398274739
 20
-0.6659596761067708
 30
0.0
 10
4.13952891031901
 20
-0.7779346042209201
 30
0.0
 10
4.13952891031901
 20
-0.9378907945421007
 30
0.0
 10
4.13952891031901
 20
-0.9378907945421007
 30
0.0
 10
4.13952891031901
 20
-1.203761630588108
 30
0.0
 10
4.13952891031901
 20
-1.203761630588108
 30
0.0
 10
4.13952891031901
 20
-1.359906514485677
 30
0.0
 10
4.135475158691406
 20
-1.470442877875434
 30
0.0
 10
4.127387152777778
 20
-1.535390218098958
 30
0.0
 10
4.119288974338107
 20
-1.600337558322483
 30
0.0
 10
4.09395005967882
 20
-1.65967051188151
 30
0.0
 10
4.05137210422092
 20
-1.713428073459201
 30
0.0
 10
4.008772956000434
 20
-1.767185635036892
 30
0.0
 10
3.951234605577257
 20
-1.808457268608941
 30
0.0
 10
3.878746880425347
 20
-1.83724127875434
 30
0.0
 10
3.806248135036892
 20
-1.866046481662326
 30
0.0
 10
3.721780565049913
 20
-1.880438062879774
 30
0.0
 10
3.625362820095486
 20
-1.880438062879774
 30
0.0
 10
3.533850775824653
 20
-1.880438062879774
 30
0.0
 10
3.451683044433594
 20
-1.866836547851562
 30
0.0
 10
3.378829956054688
 20
-1.839653862847222
 30
0.0
 10
3.305977715386284
 20
-1.812450832790798
 30
0.0
 10
3.247384813096788
 20
-1.771665785047743
 30
0.0
 10
3.203042772081163
 20
-1.717258877224392
 30
0.0
 10
3.158700731065538
 20
-1.662893507215712
 30
0.0
 10
3.132308112250434
 20
-1.603702969021267
 30
0.0
 10
3.123854743109809
 20
-1.539708455403646
 30
0.0
  0
SPLINE
  5
75
330
70
100
AcDbEntity
  8
Layer 1
370
     0
100
AcDbSpline
210
0.0
220
0.0
230
1.0
 70
    11
 71
     3
 72
    35
 73
    31
 74
     0
 42
0.0000000001
 43
0.0000000001
 12
1.0
 22
0.0
 32
0.0
 13
1.0
 23
0.0
 33
0.0
 40
0.0
 40
0.0
 40
0.0
 40
0.0
 40
1.0
 40
1.0
 40
1.0
 40
2.0
 40
2.0
 40
2.0
 40
3.0
 40
3.0
 40
3.0
 40
4.0
 40
4.0
 40
4.0
 40
5.0
 40
5.0
 40
5.0
 40
6.0
 40
6.0
 40
6.0
 40
7.0
 40
7.0
 40
7.0
 40
8.0
 40
8.0
 40
8.0
 40
9.0
 40
9.0
 40
9.0
 40
10.0
 40
10.0
 40
10.0
 40
10.0
 10
3.555681864420573
 20
-1.418773227267795
 30
0.0
 10
3.555681864420573
 20
-1.508997599283854
 30
0.0
 10
3.559716118706597
 20
-1.564661661783854
 30
0.0
 10
3.567814297146267
 20
-1.585783216688368
 30
0.0
 10
3.575902303059896
 20
-1.606885274251302
 30
0.0
 10
3.594743516710069
 20
-1.617446051703559
 30
0.0
 10
3.624308268229167
 20
-1.617446051703559
 30
0.0
 10
3.654562208387587
 20
-1.617446051703559
 30
0.0
 10
3.673921373155382
 20
-1.605304294162326
 30
0.0
 10
3.682373894585503
 20
-1.580979241265191
 30
0.0
 10
3.690817091200087
 20
-1.556654188368055
 30
0.0
 10
3.695042928059896
 20
-1.498761494954427
 30
0.0
 10
3.695042928059896
 20
-1.407239278157552
 30
0.0
 10
3.695042928059896
 20
-1.407239278157552
 30
0.0
 10
3.695042928059896
 20
-0.693142361111111
 30
0.0
 10
3.695042928059896
 20
-0.693142361111111
 30
0.0
 10
3.695042928059896
 20
-0.6208572387695312
 30
0.0
 10
3.690633985731337
 20
-0.5746197170681423
 30
0.0
 10
3.681846618652344
 20
-0.5544501410590278
 30
0.0
 10
3.673038906521267
 20
-0.5343009101019965
 30
0.0
 10
3.654917399088542
 20
-0.5242267184787326
 30
0.0
 10
3.627471076117621
 20
-0.5242267184787326
 30
0.0
 10
3.604240417480469
 20
-0.5242267184787326
 30
0.0
 10
3.586463080512153
 20
-0.532375759548611
 30
0.0
 10
3.574148390028212
 20
-0.5486933390299479
 30
0.0
 10
3.561834547254774
 20
-0.5650117662217882
 30
0.0
 10
3.555681864420573
 20
-0.6131744384765625
 30
0.0
 10
3.555681864420573
 20
-0.693142361111111
 30
0.0
 10
3.555681864420573
 20
-0.693142361111111
 30
0.0
 10
3.555681864420573
 20
-1.418773227267795
 30
0.0
 10
3.555681864420573
 20
-1.418773227267795
 30
0.0
  0
ENDBLK
  5
73
330
70
100
AcDbEntity
  8
0
100
AcDbBlockEnd
  0
BLOCK
  5
A0
330
9E
100
AcDbEntity
  8
0
100
AcDbBlockBegin
  2
block 7
 70
     0
 10
0.0
 20
0.0
 30
0.0
  3
block 7
  1

  0
SPLINE
  5
A2
330
9E
100
AcDbEntity
  8
Layer 1
370
     0
100
AcDbSpline
210
0.0
220
0.0
230
1.0
 70
    11
 71
     3
 72
    56
 73
    52
 74
     0
 42
0.0000000001
 43
0.0000000001
 12
1.0
 22
0.0
 32
0.0
 13
1.0
 23
0.0
 33
0.0
 40
0.0
 40
0.0
 40
0.0
 40
0.0
 40
1.0
 40
1.0
 40
1.0
 40
2.0
 40
2.0
 40
2.0
 40
3.0
 40
3.0
 40
3.0
 40
4.0
 40
4.0
 40
4.0
 40
5.0
 40
5.0
 40
5.0
 40
6.0
 40
6.0
 40
6.0
 40
7.0
 40
7.0
 40
7.0
 40
8.0
 40
8.0
 40
8.0
 40
9.0
 40
9.0
 40
9.0
 40
10.0
 40
10.0
 40
10.0
 40
11.0
 40
11.0
 40
11.0
 40
12.0
 40
12.0
 40
12.0
 40
13.0
 40
13.0
 40
13.0
 40
14.0
 40
14.0
 40
14.0
 40
15.0
 40
15.0
 40
15.0
 40
16.0
 40
16.0
 40
16.0
 40
17.0
 40
17.0
 40
17.0
 40
17.0
 10
3.830137464735243
 20
-3.629273308648003
 30
0.0
 10
3.870475769042969
 20
-3.639287312825521
 30
0.0
 10
3.897577921549479
 20
-3.652665879991319
 30
0.0
 10
3.911463419596354
 20
-3.669449700249566
 30
0.0
 10
3.925328572591146
 20
-3.686234368218316
 30
0.0
 10
3.933964199490017
 20
-3.701639811197917
 30
0.0
 10
3.937349107530382
 20
-3.715666876898871
 30
0.0
 10
3.940754360622829
 20
-3.729715135362413
 30
0.0
 10
3.942437065972222
 20
-3.768370734320746
 30
0.0
 10
3.942437065972222
 20
-3.831615871853298
 30
0.0
 10
3.942437065972222
 20
-3.831615871853298
 30
0.0
 10
3.942437065972222
 20
-4.038296169704861
 30
0.0
 10
3.942437065972222
 20
-4.038296169704861
 30
0.0
 10
3.942437065972222
 20
-4.038296169704861
 30
0.0
 10
3.753169589572483
 20
-4.038296169704861
 30
0.0
 10
3.753169589572483
 20
-4.038296169704861
 30
0.0
 10
3.753169589572483
 20
-4.038296169704861
 30
0.0
 10
3.753169589572483
 20
-3.777877807617188
 30
0.0
 10
3.753169589572483
 20
-3.777877807617188
 30
0.0
 10
3.753169589572483
 20
-3.735938178168403
 30
0.0
 10
3.749865214029948
 20
-3.709950764973958
 30
0.0
 10
3.743257310655382
 20
-3.699937608506944
 30
0.0
 10
3.736628214518229
 20
-3.68994394938151
 30
0.0
 10
3.719296773274739
 20
-3.6849365234375
 30
0.0
 10
3.691222296820746
 20
-3.6849365234375
 30
0.0
 10
3.691222296820746
 20
-3.6849365234375
 30
0.0
 10
3.691222296820746
 20
-4.038296169704861
 30
0.0
 10
3.691222296820746
 20
-4.038296169704861
 30
0.0
 10
3.691222296820746
 20
-4.038296169704861
 30
0.0
 10
3.487440321180555
 20
-4.038296169704861
 30
0.0
 10
3.487440321180555
 20
-4.038296169704861
 30
0.0
 10
3.487440321180555
 20
-4.038296169704861
 30
0.0
 10
3.487440321180555
 20
-3.254609849717882
 30
0.0
 10
3.487440321180555
 20
-3.254609849717882
 30
0.0
 10
3.487440321180555
 20
-3.254609849717882
 30
0.0
 10
3.631686740451389
 20
-3.254609849717882
 30
0.0
 10
3.631686740451389
 20
-3.254609849717882
 30
0.0
 10
3.727830674913194
 20
-3.254609849717882
 30
0.0
 10
3.792940775553385
 20
-3.258339775933159
 30
0.0
 10
3.826995001898871
 20
-3.265758938259548
 30
0.0
 10
3.861029730902778
 20
-3.273178100585938
 30
0.0
 10
3.888780381944444
 20
-3.292131212022569
 30
0.0
 10
3.910246955023871
 20
-3.322618272569444
 30
0.0
 10
3.931713528103298
 20
-3.353125678168403
 30
0.0
 10
3.942437065972222
 20
-3.40177493625217
 30
0.0
 10
3.942437065972222
 20
-3.468567742241753
 30
0.0
 10
3.942437065972222
 20
-3.529562208387587
 30
0.0
 10
3.93485599093967
 20
-3.570549011230469
 30
0.0
 10
3.919692993164062
 20
-3.591509501139323
 30
0.0
 10
3.904510498046875
 20
-3.612489488389757
 30
0.0
 10
3.874671936035156
 20
-3.625077141655816
 30
0.0
 10
3.830137464735243
 20
-3.629273308648003
 30
0.0
  0
SPLINE
  5
A3
330
9E
100
AcDbEntity
  8
Layer 1
370
     0
100
AcDbSpline
210
0.0
220
0.0
230
1.0
 70
    11
 71
     3
 72
    23
 73
    19
 74
     0
 42
0.0000000001
 43
0.0000000001
 12
1.0
 22
0.0
 32
0.0
 13
1.0
 23
0.0
 33
0.0
 40
0.0
 40
0.0
 40
0.0
 40
0.0
 40
1.0
 40
1.0
 40
1.0
 40
2.0
 40
2.0
 40
2.0
 40
3.0
 40
3.0
 40
3.0
 40
4.0
 40
4.0
 40
4.0
 40
5.0
 40
5.0
 40
5.0
 40
6.0
 40
6.0
 40
6.0
 40
6.0
 10
3.753169589572483
 20
-3.449208577473958
 30
0.0
 10
3.753169589572483
 20
-3.424357096354167
 30
0.0
 10
3.748730129665798
 20
-3.408059014214409
 30
0.0
 10
3.739871554904514
 20
-3.400316026475694
 30
0.0
 10
3.730993482801649
 20
-3.392572191026475
 30
0.0
 10
3.714776780870225
 20
-3.388700697157118
 30
0.0
 10
3.691222296820746
 20
-3.388700697157118
 30
0.0
 10
3.691222296820746
 20
-3.388700697157118
 30
0.0
 10
3.691222296820746
 20
-3.562947591145833
 30
0.0
 10
3.691222296820746
 20
-3.562947591145833
 30
0.0
 10
3.714128282335069
 20
-3.562947591145833
 30
0.0
 10
3.730182223849826
 20
-3.559805976019965
 30
0.0
 10
3.739384969075521
 20
-3.553521898057725
 30
0.0
 10
3.748588562011719
 20
-3.547217475043403
 30
0.0
 10
3.753169589572483
 20
-3.526824951171875
 30
0.0
 10
3.753169589572483
 20
-3.492284138997396
 30
0.0
 10
3.753169589572483
 20
-3.492284138997396
 30
0.0
 10
3.753169589572483
 20
-3.449208577473958
 30
0.0
 10
3.753169589572483
 20
-3.449208577473958
 30
0.0
  0
ENDBLK
  5
A1
330
9E
100
AcDbEntity
  8
0
100
AcDbBlockEnd
  0
BLOCK
  5
A6
330
A4
100
AcDbEntity
  8
0
100
AcDbBlockBegin
  2
block 8
 70
     0
 10
0.0
 20
0.0
 30
0.0
  3
block 8
  1

  0
SPLINE
  5
A8
330
A4
100
AcDbEntity
  8
Layer 1
370
     0
100
AcDbSpline
210
0.0
220
0.0
230
1.0
 70
    11
 71
     3
 72
    59
 73
    55
 74
     0
 42
0.0000000001
 43
0.0000000001
 12
1.0
 22
0.0
 32
0.0
 13
1.0
 23
0.0
 33
0.0
 40
0.0
 40
0.0
 40
0.0
 40
0.0
 40
1.0
 40
1.0
 40
1.0
 40
2.0
 40
2.0
 40
2.0
 40
3.0
 40
3.0
 40
3.0
 40
4.0
 40
4.0
 40
4.0
 40
5.0
 40
5.0
 40
5.0
 40
6.0
 40
6.0
 40
6.0
 40
7.0
 40
7.0
 40
7.0
 40
8.0
 40
8.0
 40
8.0
 40
9.0
 40
9.0
 40
9.0
 40
10.0
 40
10.0
 40
10.0
 40
11.0
 40
11.0
 40
11.0
 40
12.0
 40
12.0
 40
12.0
 40
13.0
 40
13.0
 40
13.0
 40
14.0
 40
14.0
 40
14.0
 40
15.0
 40
15.0
 40
15.0
 40
16.0
 40
16.0
 40
16.0
 40
17.0
 40
17.0
 40
17.0
 40
18.0
 40
18.0
 40
18.0
 40
18.0
 10
4.481191847059462
 20
-3.410005357530382
 30
0.0
 10
4.485063340928819
 20
-3.442276000976562
 30
0.0
 10
4.487009684244791
 20
-3.498750474717882
 30
0.0
 10
4.487009684244791
 20
-3.579407585991753
 30
0.0
 10
4.487009684244791
 20
-3.579407585991753
 30
0.0
 10
4.487009684244791
 20
-3.713498433430989
 30
0.0
 10
4.487009684244791
 20
-3.713498433430989
 30
0.0
 10
4.487009684244791
 20
-3.792229546440972
 30
0.0
 10
4.485144721137153
 20
-3.847994486490885
 30
0.0
 10
4.481435139973958
 20
-3.880731370713975
 30
0.0
 10
4.477725558810763
 20
-3.913489447699653
 30
0.0
 10
4.466110229492188
 20
-3.943428887261284
 30
0.0
 10
4.446589999728732
 20
-3.970531039767795
 30
0.0
 10
4.427048577202691
 20
-3.997633192274305
 30
0.0
 10
4.40067630343967
 20
-4.018451266818576
 30
0.0
 10
4.367432488335504
 20
-4.032964918348524
 30
0.0
 10
4.33420901828342
 20
-4.047498914930555
 30
0.0
 10
4.295472039116754
 20
-4.054755316840278
 30
0.0
 10
4.251261393229166
 20
-4.054755316840278
 30
0.0
 10
4.209320916069879
 20
-4.054755316840278
 30
0.0
 10
4.171637641059028
 20
-4.047883775499132
 30
0.0
 10
4.138231913248697
 20
-4.034180535210504
 30
0.0
 10
4.104845682779947
 20
-4.020478142632379
 30
0.0
 10
4.077967325846354
 20
-3.999903361002604
 30
0.0
 10
4.057655334472656
 20
-3.97245619032118
 30
0.0
 10
4.037323845757379
 20
-3.945030212402344
 30
0.0
 10
4.025222778320312
 20
-3.915191650390625
 30
0.0
 10
4.021351284450954
 20
-3.882921006944444
 30
0.0
 10
4.017478942871094
 20
-3.85064951578776
 30
0.0
 10
4.015533447265625
 20
-3.794175889756944
 30
0.0
 10
4.015533447265625
 20
-3.713498433430989
 30
0.0
 10
4.015533447265625
 20
-3.713498433430989
 30
0.0
 10
4.015533447265625
 20
-3.579407585991753
 30
0.0
 10
4.015533447265625
 20
-3.579407585991753
 30
0.0
 10
4.015533447265625
 20
-3.500676472981771
 30
0.0
 10
4.01737806532118
 20
-3.444931877983941
 30
0.0
 10
4.021107991536458
 20
-3.412174648708767
 30
0.0
 10
4.024817572699653
 20
-3.37941657172309
 30
0.0
 10
4.036432054307726
 20
-3.349497477213542
 30
0.0
 10
4.055953131781684
 20
-3.322374979654948
 30
0.0
 10
4.075473361545138
 20
-3.295272827148438
 30
0.0
 10
4.10184563530816
 20
-3.274454752604167
 30
0.0
 10
4.135089450412326
 20
-3.259941101074219
 30
0.0
 10
4.168334113226996
 20
-3.245427449544271
 30
0.0
 10
4.207050747341579
 20
-3.238149854871962
 30
0.0
 10
4.251261393229166
 20
-3.238149854871962
 30
0.0
 10
4.293221367730035
 20
-3.238149854871962
 30
0.0
 10
4.330884297688802
 20
-3.245022243923611
 30
0.0
 10
4.364290873209635
 20
-3.258724636501736
 30
0.0
 10
4.397696601019965
 20
-3.272448221842448
 30
0.0
 10
4.424555460611979
 20
-3.293023003472222
 30
0.0
 10
4.444886949327256
 20
-3.320448981391059
 30
0.0
 10
4.465218438042535
 20
-3.347875807020399
 30
0.0
 10
4.477320353190104
 20
-3.377734714084201
 30
0.0
 10
4.481191847059462
 20
-3.410005357530382
 30
0.0
  0
SPLINE
  5
A9
330
A4
100
AcDbEntity
  8
Layer 1
370
     0
100
AcDbSpline
210
0.0
220
0.0
230
1.0
 70
    11
 71
     3
 72
    35
 73
    31
 74
     0
 42
0.0000000001
 43
0.0000000001
 12
1.0
 22
0.0
 32
0.0
 13
1.0
 23
0.0
 33
0.0
 40
0.0
 40
0.0
 40
0.0
 40
0.0
 40
1.0
 40
1.0
 40
1.0
 40
2.0
 40
2.0
 40
2.0
 40
3.0
 40
3.0
 40
3.0
 40
4.0
 40
4.0
 40
4.0
 40
5.0
 40
5.0
 40
5.0
 40
6.0
 40
6.0
 40
6.0
 40
7.0
 40
7.0
 40
7.0
 40
8.0
 40
8.0
 40
8.0
 40
9.0
 40
9.0
 40
9.0
 40
10.0
 40
10.0
 40
10.0
 40
10.0
 10
4.283208211263021
 20
-3.455979241265191
 30
0.0
 10
4.283208211263021
 20
-3.419512430826823
 30
0.0
 10
4.281200832790798
 20
-3.39620123969184
 30
0.0
 10
4.277167426215278
 20
-3.386045667860243
 30
0.0
 10
4.273133171929254
 20
-3.375869750976562
 30
0.0
 10
4.264822218153212
 20
-3.370781792534722
 30
0.0
 10
4.252234564887153
 20
-3.370781792534722
 30
0.0
 10
4.241592407226562
 20
-3.370781792534722
 30
0.0
 10
4.233443366156684
 20
-3.374896579318576
 30
0.0
 10
4.227787441677517
 20
-3.383126152886284
 30
0.0
 10
4.222132364908854
 20
-3.391356574164496
 30
0.0
 10
4.219314575195312
 20
-3.415640936957465
 30
0.0
 10
4.219314575195312
 20
-3.455979241265191
 30
0.0
 10
4.219314575195312
 20
-3.455979241265191
 30
0.0
 10
4.219314575195312
 20
-3.821926540798611
 30
0.0
 10
4.219314575195312
 20
-3.821926540798611
 30
0.0
 10
4.219314575195312
 20
-3.86743418375651
 30
0.0
 10
4.221179538302951
 20
-3.895508660210503
 30
0.0
 10
4.224889119466146
 20
-3.906150817871094
 30
0.0
 10
4.22859870062934
 20
-3.916792975531684
 30
0.0
 10
4.237234327528212
 20
-3.922124226888021
 30
0.0
 10
4.250774807400173
 20
-3.922124226888021
 30
0.0
 10
4.264660305447048
 20
-3.922124226888021
 30
0.0
 10
4.273538377549913
 20
-3.916002909342448
 30
0.0
 10
4.277410719129774
 20
-3.903739081488715
 30
0.0
 10
4.281282212999132
 20
-3.891475253634983
 30
0.0
 10
4.283208211263021
 20
-3.862264845106337
 30
0.0
 10
4.283208211263021
 20
-3.816108703613281
 30
0.0
 10
4.283208211263021
 20
-3.816108703613281
 30
0.0
 10
4.283208211263021
 20
-3.455979241265191
 30
0.0
 10
4.283208211263021
 20
-3.455979241265191
 30
0.0
  0
ENDBLK
  5
A7
330
A4
100
AcDbEntity
  8
0
100
AcDbBlockEnd
  0
ENDSEC
  0
SECTION
  2
ENTITIES
  0
INSERT
  5
42
330
1F
100
AcDbEntity
  8
Layer 1
100
AcDbBlockReference
  2
block 2
 10
0.0
 20
0.0
 30
0.0
  0
INSERT
  5
48
330
1F
100
AcDbEntity
  8
Layer 1
100
AcDbBlockReference
  2
block 3
 10
0.0
 20
0.0
 30
0.0
  0
INSERT
  5
58
330
1F
100
AcDbEntity
  8
Layer 1
100
AcDbBlockReference
  2
block 4
 10
0.0
 20
0.0
 30
0.0
  0
INSERT
  5
5E
330
1F
100
AcDbEntity
  8
Layer 1
100
AcDbBlockReference
  2
block 5
 10
0.0
 20
0.0
 30
0.0
  0
HATCH
  5
67
330
1F
100
AcDbEntity
  8
Layer 1
 62
    55
420
 11639378
100
AcDbHatch
 10
0.0
 20
0.0
 30
0.0
210
0.0
220
0.0
230
1.0
  2
SOLID
 70
     1
 71
     0
 91
       12
 92
        1
 93
        1
 72
     4
 94
        3
 73
     0
 74
     1
 95
       41
 96
       37
 40
0.0
 40
0.0
 40
0.0
 40
0.0
 40
1.0
 40
1.0
 40
1.0
 40
2.0
 40
2.0
 40
2.0
 40
3.0
 40
3.0
 40
3.0
 40
4.0
 40
4.0
 40
4.0
 40
5.0
 40
5.0
 40
5.0
 40
6.0
 40
6.0
 40
6.0
 40
7.0
 40
7.0
 40
7.0
 40
8.0
 40
8.0
 40
8.0
 40
9.0
 40
9.0
 40
9.0
 40
10.0
 40
10.0
 40
10.0
 40
11.0
 40
11.0
 40
11.0
 40
12.0
 40
12.0
 40
12.0
 40
12.0
 10
2.067072550455729
 20
-4.300010681152344
 10
2.015463087293837
 20
-4.259064568413629
 10
1.940137227376302
 20
-4.22963121202257
 10
1.841094122992621
 20
-4.21171145968967
 10
1.742031521267361
 20
-4.193792555067274
 10
1.551993476019965
 20
-4.184833102756076
 10
1.270960489908854
 20
-4.184833102756076
 10
1.270960489908854
 20
-4.184833102756076
 10
0.8355857001410589
 20
-4.184833102756076
 10
0.8355857001410589
 20
-4.184833102756076
 10
0.8355857001410589
 20
-4.184833102756076
 10
0.8355857001410589
 20
-5.738765292697482
 10
0.8355857001410589
 20
-5.738765292697482
 10
0.8355857001410589
 20
-5.738765292697482
 10
1.569507175021701
 20
-5.738765292697482
 10
1.569507175021701
 20
-5.738765292697482
 10
1.708624945746528
 20
-5.738765292697482
 10
1.812756008572048
 20
-5.733495076497396
 10
1.881858825683594
 20
-5.722933451334635
 10
1.950961642795139
 20
-5.712372673882379
 10
2.009017096625434
 20
-5.693824768066406
 10
2.056003994411892
 20
-5.667249891493055
 10
2.103012084960938
 20
-5.640715705023871
 10
2.135932074652778
 20
-5.60390387641059
 10
2.15482415093316
 20
-5.556876288519965
 10
2.173716227213542
 20
-5.509847852918837
 10
2.183162265353733
 20
-5.416603088378906
 10
2.183162265353733
 20
-5.277099609375
 10
2.183162265353733
 20
-5.277099609375
 10
2.183162265353733
 20
-4.732872009277344
 10
2.183162265353733
 20
-4.732872009277344
 10
2.183162265353733
 20
-4.585706075032552
 10
2.17671627468533
 20
-4.487028333875868
 10
2.163824293348524
 20
-4.436777750651041
 10
2.150911966959635
 20
-4.386546664767795
 10
2.118660820855035
 20
-4.340957641601562
 10
2.067072550455729
 20
-4.300010681152344
 97
        0
 97
        0
 92
        1
 93
        1
 72
     4
 94
        3
 73
     0
 74
     1
 95
       26
 96
       22
 40
0.0
 40
0.0
 40
0.0
 40
0.0
 40
1.0
 40
1.0
 40
1.0
 40
2.0
 40
2.0
 40
2.0
 40
3.0
 40
3.0
 40
3.0
 40
4.0
 40
4.0
 40
4.0
 40
5.0
 40
5.0
 40
5.0
 40
6.0
 40
6.0
 40
6.0
 40
7.0
 40
7.0
 40
7.0
 40
7.0
 10
1.601292080349392
 20
-5.247342427571614
 10
1.601292080349392
 20
-5.351006401909722
 10
1.591623094346788
 20
-5.414515177408854
 10
1.572263929578993
 20
-5.437867058648004
 10
1.552905612521701
 20
-5.461238437228732
 10
1.501296149359809
 20
-5.472894456651475
 10
1.417456732855903
 20
-5.472894456651475
 10
1.417456732855903
 20
-5.472894456651475
 10
1.417456732855903
 20
-4.450703091091579
 10
1.417456732855903
 20
-4.450703091091579
 10
1.481046040852865
 20
-4.450703091091579
 10
1.524344550238715
 20
-4.455345153808594
 10
1.547392103407118
 20
-4.464608934190538
 10
1.570398966471354
 20
-4.473893059624566
 10
1.585156758626302
 20
-4.488467746310763
 10
1.591623094346788
 20
-4.508292304144965
 10
1.598048739963108
 20
-4.528116861979166
 10
1.601292080349392
 20
-4.573239644368489
 10
1.601292080349392
 20
-4.643619961208767
 10
1.601292080349392
 20
-4.643619961208767
 10
1.601292080349392
 20
-5.247342427571614
 10
1.601292080349392
 20
-5.247342427571614
 97
        0
 97
        0
 92
        1
 93
        8
 72
     1
 10
2.564981248643663
 20
-4.184833102756076
 11
2.268177456325955
 21
-5.738765292697482
 72
     1
 10
2.268177456325955
 20
-5.738765292697482
 11
2.869751824273003
 21
-5.738765292697482
 72
     1
 10
2.869751824273003
 20
-5.738765292697482
 11
2.904719034830729
 21
-5.459454854329427
 72
     1
 10
2.904719034830729
 20
-5.459454854329427
 11
3.112858242458767
 21
-5.459454854329427
 72
     1
 10
3.112858242458767
 20
-5.459454854329427
 11
3.144095526801215
 21
-5.738765292697482
 72
     1
 10
3.144095526801215
 20
-5.738765292697482
 11
3.738756815592448
 21
-5.738765292697482
 72
     1
 10
3.738756815592448
 20
-5.738765292697482
 11
3.406013488769531
 21
-4.184833102756076
 72
     1
 10
3.406013488769531
 20
-4.184833102756076
 11
2.564981248643663
 21
-4.184833102756076
 97
        0
 92
        1
 93
        1
 72
     4
 94
        3
 73
     0
 74
     1
 95
       14
 96
       10
 40
0.0
 40
0.0
 40
0.0
 40
0.0
 40
1.0
 40
1.0
 40
1.0
 40
2.0
 40
2.0
 40
2.0
 40
3.0
 40
3.0
 40
3.0
 40
3.0
 10
2.897320217556424
 20
-5.183996412489149
 10
2.912482367621528
 20
-5.046439276801215
 10
2.949719746907552
 20
-4.828873528374566
 10
3.008990817599826
 20
-4.531320359971788
 10
3.038626776801215
 20
-4.790440877278646
 10
3.068161010742188
 20
-5.007985432942708
 10
3.09761471218533
 20
-5.183996412489149
 10
3.09761471218533
 20
-5.183996412489149
 10
2.897320217556424
 20
-5.183996412489149
 10
2.897320217556424
 20
-5.183996412489149
 97
        0
 97
        0
 92
        1
 93
        1
 72
     4
 94
        3
 73
     0
 74
     1
 95
       41
 96
       37
 40
0.0
 40
0.0
 40
0.0
 40
0.0
 40
1.0
 40
1.0
 40
1.0
 40
2.0
 40
2.0
 40
2.0
 40
3.0
 40
3.0
 40
3.0
 40
4.0
 40
4.0
 40
4.0
 40
5.0
 40
5.0
 40
5.0
 40
6.0
 40
6.0
 40
6.0
 40
7.0
 40
7.0
 40
7.0
 40
8.0
 40
8.0
 40
8.0
 40
9.0
 40
9.0
 40
9.0
 40
10.0
 40
10.0
 40
10.0
 40
11.0
 40
11.0
 40
11.0
 40
12.0
 40
12.0
 40
12.0
 40
12.0
 10
5.069062974717881
 20
-4.300010681152344
 10
5.017453511555989
 20
-4.259064568413629
 10
4.942127651638454
 20
-4.22963121202257
 10
4.843084547254774
 20
-4.21171145968967
 10
4.744021945529513
 20
-4.193792555067274
 10
4.553983900282118
 20
-4.184833102756076
 10
4.272950914171007
 20
-4.184833102756076
 10
4.272950914171007
 20
-4.184833102756076
 10
3.837576972113715
 20
-4.184833102756076
 10
3.837576972113715
 20
-4.184833102756076
 10
3.837576972113715
 20
-4.184833102756076
 10
3.837576972113715
 20
-5.738765292697482
 10
3.837576972113715
 20
-5.738765292697482
 10
3.837576972113715
 20
-5.738765292697482
 10
4.571497599283854
 20
-5.738765292697482
 10
4.571497599283854
 20
-5.738765292697482
 10
4.71061537000868
 20
-5.738765292697482
 10
4.814746432834201
 20
-5.733495076497396
 10
4.883849249945746
 20
-5.722933451334635
 10
4.952952067057291
 20
-5.712372673882379
 10
5.011007520887587
 20
-5.693824768066406
 10
5.057995266384548
 20
-5.667249891493055
 10
5.10500250922309
 20
-5.640715705023871
 10
5.13792249891493
 20
-5.60390387641059
 10
5.156814575195312
 20
-5.556876288519965
 10
5.175706651475694
 20
-5.509847852918837
 10
5.185152689615885
 20
-5.416603088378906
 10
5.185152689615885
 20
-5.277099609375
 10
5.185152689615885
 20
-5.277099609375
 10
5.185152689615885
 20
-4.732872009277344
 10
5.185152689615885
 20
-4.732872009277344
 10
5.185152689615885
 20
-4.585706075032552
 10
5.178706698947482
 20
-4.487028333875868
 10
5.165814717610677
 20
-4.436777750651041
 10
5.152902391221788
 20
-4.386546664767795
 10
5.120651245117188
 20
-4.340957641601562
 10
5.069062974717881
 20
-4.300010681152344
 97
        0
 97
        0
 92
        1
 93
        1
 72
     4
 94
        3
 73
     0
 74
     1
 95
       26
 96
       22
 40
0.0
 40
0.0
 40
0.0
 40
0.0
 40
1.0
 40
1.0
 40
1.0
 40
2.0
 40
2.0
 40
2.0
 40
3.0
 40
3.0
 40
3.0
 40
4.0
 40
4.0
 40
4.0
 40
5.0
 40
5.0
 40
5.0
 40
6.0
 40
6.0
 40
6.0
 40
7.0
 40
7.0
 40
7.0
 40
7.0
 10
4.603282504611545
 20
-5.247342427571614
 10
4.603282504611545
 20
-5.351006401909722
 10
4.593613518608941
 20
-5.414515177408854
 10
4.574254353841146
 20
-5.437867058648004
 10
4.554896036783854
 20
-5.461238437228732
 10
4.503286573621962
 20
-5.472894456651475
 10
4.419447157118055
 20
-5.472894456651475
 10
4.419447157118055
 20
-5.472894456651475
 10
4.419447157118055
 20
-4.450703091091579
 10
4.419447157118055
 20
-4.450703091091579
 10
4.483036465115017
 20
-4.450703091091579
 10
4.526334974500868
 20
-4.455345153808594
 10
4.549382527669271
 20
-4.464608934190538
 10
4.57239023844401
 20
-4.473893059624566
 10
4.587147182888454
 20
-4.488467746310763
 10
4.593613518608941
 20
-4.508292304144965
 10
4.60003916422526
 20
-4.528116861979166
 10
4.603282504611545
 20
-4.573239644368489
 10
4.603282504611545
 20
-4.643619961208767
 10
4.603282504611545
 20
-4.643619961208767
 10
4.603282504611545
 20
-5.247342427571614
 10
4.603282504611545
 20
-5.247342427571614
 97
        0
 97
        0
 92
        1
 93
        1
 72
     4
 94
        3
 73
     0
 74
     1
 95
       53
 96
       49
 40
0.0
 40
0.0
 40
0.0
 40
0.0
 40
1.0
 40
1.0
 40
1.0
 40
2.0
 40
2.0
 40
2.0
 40
3.0
 40
3.0
 40
3.0
 40
4.0
 40
4.0
 40
4.0
 40
5.0
 40
5.0
 40
5.0
 40
6.0
 40
6.0
 40
6.0
 40
7.0
 40
7.0
 40
7.0
 40
8.0
 40
8.0
 40
8.0
 40
9.0
 40
9.0
 40
9.0
 40
10.0
 40
10.0
 40
10.0
 40
11.0
 40
11.0
 40
11.0
 40
12.0
 40
12.0
 40
12.0
 40
13.0
 40
13.0
 40
13.0
 40
14.0
 40
14.0
 40
14.0
 40
15.0
 40
15.0
 40
15.0
 40
16.0
 40
16.0
 40
16.0
 40
16.0
 10
5.215010748969184
 20
-3.081128438313802
 10
5.133418613009982
 20
-2.956924438476562
 10
4.904406229654947
 20
-2.660414801703559
 10
4.828981187608506
 20
-2.576417711046007
 10
4.828981187608506
 20
-2.576417711046007
 10
4.785096910264756
 20
-2.529237535264757
 10
4.785096910264756
 20
-2.529237535264757
 10
4.785096910264756
 20
-2.529237535264757
 10
4.832410176595052
 20
-2.476569281684028
 10
4.832410176595052
 20
-2.476569281684028
 10
4.905774434407552
 20
-2.393292744954427
 10
4.978455437554254
 20
-2.303062438964844
 10
5.057993570963541
 20
-2.195374382866754
 10
5.098448011610243
 20
-2.14081064860026
 10
5.157414754231771
 20
-2.061202155219184
 10
5.188957214355469
 20
-2.019561767578125
 10
5.213881598578559
 20
-1.98634762234158
 10
5.232157389322916
 20
-2.004231770833333
 10
5.245260450575087
 20
-1.941959804958767
 10
5.245260450575087
 20
-1.941959804958767
 10
0.7504696316189235
 20
-1.941959804958767
 10
0.7504696316189235
 20
-1.941959804958767
 10
0.7249120076497395
 20
-2.004231770833333
 10
0.7377861870659722
 20
-1.997020297580295
 10
0.852108425564236
 20
-2.118031819661458
 10
0.9131317138671875
 20
-2.183366563585069
 10
0.9775848388671875
 20
-2.253021240234375
 10
0.9947263929578992
 20
-2.273122999403212
 10
1.039293924967448
 20
-2.324815538194444
 10
1.159286499023438
 20
-2.484201219346788
 10
1.192885504828559
 20
-2.535894605848524
 10
1.192885504828559
 20
-2.535894605848524
 10
1.220995585123698
 20
-2.579691569010417
 10
1.220995585123698
 20
-2.579691569010417
 10
1.220995585123698
 20
-2.579691569010417
 10
1.118148803710938
 20
-2.688819037543403
 10
1.118148803710938
 20
-2.688819037543403
 10
1.026268853081597
 20
-2.7843017578125
 10
0.9103885226779513
 20
-2.918871561686198
 10
0.7760001288519965
 20
-3.1026611328125
 10
0.7673890855577257
 20
-3.114407857259114
 10
0.7605641682942708
 20
-3.125120374891493
 10
0.7545301649305555
 20
-3.125120374891493
 10
0.7545301649305555
 20
-3.125120374891493
 10
5.244324578179254
 20
-3.125120374891493
 10
5.244324578179254
 20
-3.125120374891493
 10
5.238422817654079
 20
-3.125120374891493
 10
5.229021708170572
 20
-3.102549235026042
 10
5.215010748969184
 20
-3.081128438313802
 97
        0
 97
        0
 92
        1
 93
        1
 72
     4
 94
        3
 73
     0
 74
     1
 95
       65
 96
       61
 40
0.0
 40
0.0
 40
0.0
 40
0.0
 40
1.0
 40
1.0
 40
1.0
 40
2.0
 40
2.0
 40
2.0
 40
3.0
 40
3.0
 40
3.0
 40
4.0
 40
4.0
 40
4.0
 40
5.0
 40
5.0
 40
5.0
 40
6.0
 40
6.0
 40
6.0
 40
7.0
 40
7.0
 40
7.0
 40
8.0
 40
8.0
 40
8.0
 40
9.0
 40
9.0
 40
9.0
 40
10.0
 40
10.0
 40
10.0
 40
11.0
 40
11.0
 40
11.0
 40
12.0
 40
12.0
 40
12.0
 40
13.0
 40
13.0
 40
13.0
 40
14.0
 40
14.0
 40
14.0
 40
15.0
 40
15.0
 40
15.0
 40
16.0
 40
16.0
 40
16.0
 40
17.0
 40
17.0
 40
17.0
 40
18.0
 40
18.0
 40
18.0
 40
19.0
 40
19.0
 40
19.0
 40
20.0
 40
20.0
 40
20.0
 40
20.0
 10
1.708116319444444
 20
-2.20298597547743
 10
1.691786872016059
 20
-2.210906982421875
 10
1.667886522081163
 20
-2.232560899522569
 10
1.636495802137587
 20
-2.232560899522569
 10
1.636495802137587
 20
-2.232560899522569
 10
1.53334469265408
 20
-2.232560899522569
 10
1.53334469265408
 20
-2.232560899522569
 10
1.53334469265408
 20
-2.232560899522569
 10
1.53334469265408
 20
-2.927146911621094
 10
1.53334469265408
 20
-2.927146911621094
 10
1.53334469265408
 20
-2.993229336208767
 10
1.481993781195746
 20
-3.026275634765625
 10
1.400599161783854
 20
-3.026275634765625
 10
1.364681667751736
 20
-3.026275634765625
 10
1.330596923828125
 20
-3.021126641167534
 10
1.315203348795573
 20
-3.01084476047092
 10
1.304296705457899
 20
-3.004114786783854
 10
1.30774180094401
 20
-2.9959962632921
 10
1.302610609266493
 20
-2.986496819390191
 10
1.294922722710503
 20
-2.972664727105034
 10
1.305015563964844
 20
-2.951299031575521
 10
1.305015563964844
 20
-2.922408209906684
 10
1.305015563964844
 20
-2.922408209906684
 10
1.305015563964844
 20
-2.211373223198785
 10
1.305015563964844
 20
-2.211373223198785
 10
1.305015563964844
 20
-2.201873779296875
 10
1.267605251736111
 20
-2.232560899522569
 10
1.252855936686198
 20
-2.232560899522569
 10
1.252855936686198
 20
-2.232560899522569
 10
1.14804924858941
 20
-2.232560899522569
 10
1.14804924858941
 20
-2.232560899522569
 10
1.11663818359375
 20
-2.232560899522569
 10
1.092778523763021
 20
-2.2097413804796
 10
1.076428731282552
 20
-2.201820373535156
 10
1.06008063422309
 20
-2.193899366590712
 10
1.051905314127604
 20
-2.171084933810764
 10
1.051905314127604
 20
-2.161582946777344
 10
1.051905314127604
 20
-2.146949768066406
 10
1.059767829047309
 20
-2.131546868218316
 10
1.075473361545139
 20
-2.12481689453125
 10
1.091159396701389
 20
-2.118104722764757
 10
1.109908209906684
 20
-2.104913499620225
 10
1.131719801161024
 20
-2.10333506266276
 10
1.153493245442708
 20
-2.101754082573785
 10
1.173373752170139
 20
-2.08726077609592
 10
1.191321478949653
 20
-2.08726077609592
 10
1.191321478949653
 20
-2.08726077609592
 10
1.59322272406684
 20
-2.08726077609592
 10
1.59322272406684
 20
-2.08726077609592
 10
1.611171298556858
 20
-2.08726077609592
 10
1.631033155653212
 20
-2.100563049316406
 10
1.652843899197048
 20
-2.102144029405382
 10
1.674617343478733
 20
-2.103722466362847
 10
1.693366156684028
 20
-2.118786282009549
 10
1.709091186523438
 20
-2.125498453776042
 10
1.724777221679688
 20
-2.132230970594618
 10
1.732639736599392
 20
-2.152575174967448
 10
1.732639736599392
 20
-2.167208353678385
 10
1.732639736599392
 20
-2.176710340711805
 10
1.72446526421441
 20
-2.195064968532986
 10
1.708116319444444
 20
-2.20298597547743
 97
        0
 97
        0
 92
        1
 93
        1
 72
     4
 94
        3
 73
     0
 74
     1
 95
       86
 96
       82
 40
0.0
 40
0.0
 40
0.0
 40
0.0
 40
1.0
 40
1.0
 40
1.0
 40
2.0
 40
2.0
 40
2.0
 40
3.0
 40
3.0
 40
3.0
 40
4.0
 40
4.0
 40
4.0
 40
5.0
 40
5.0
 40
5.0
 40
6.0
 40
6.0
 40
6.0
 40
7.0
 40
7.0
 40
7.0
 40
8.0
 40
8.0
 40
8.0
 40
9.0
 40
9.0
 40
9.0
 40
10.0
 40
10.0
 40
10.0
 40
11.0
 40
11.0
 40
11.0
 40
12.0
 40
12.0
 40
12.0
 40
13.0
 40
13.0
 40
13.0
 40
14.0
 40
14.0
 40
14.0
 40
15.0
 40
15.0
 40
15.0
 40
16.0
 40
16.0
 40
16.0
 40
17.0
 40
17.0
 40
17.0
 40
18.0
 40
18.0
 40
18.0
 40
19.0
 40
19.0
 40
19.0
 40
20.0
 40
20.0
 40
20.0
 40
21.0
 40
21.0
 40
21.0
 40
22.0
 40
22.0
 40
22.0
 40
23.0
 40
23.0
 40
23.0
 40
24.0
 40
24.0
 40
24.0
 40
25.0
 40
25.0
 40
25.0
 40
26.0
 40
26.0
 40
26.0
 40
27.0
 40
27.0
 40
27.0
 40
27.0
 10
2.571204291449653
 20
-2.950306362575955
 10
2.571204291449653
 20
-3.000952826605903
 10
2.540273878309462
 20
-3.026275634765625
 10
2.485783047146267
 20
-3.026275634765625
 10
2.45821550157335
 20
-3.026275634765625
 10
2.448781331380208
 20
-3.019642300075955
 10
2.438851250542534
 20
-3.006377326117621
 10
2.428919474283854
 20
-2.993130154079861
 10
2.425904168023003
 20
-2.974438137478299
 10
2.425904168023003
 20
-2.950306362575955
 10
2.425904168023003
 20
-2.950306362575955
 10
2.425904168023003
 20
-2.804879082573784
 10
2.425904168023003
 20
-2.804879082573784
 10
2.425904168023003
 20
-2.791049533420139
 10
2.410255432128906
 20
-2.784122043185764
 10
2.383332146538628
 20
-2.784122043185764
 10
2.383332146538628
 20
-2.784122043185764
 10
2.089814927842882
 20
-2.784706963433159
 10
2.089814927842882
 20
-2.784706963433159
 10
2.063535054524739
 20
-2.784706963433159
 10
2.052274915907118
 20
-2.791439480251736
 10
2.052274915907118
 20
-2.804879082573784
 10
2.052274915907118
 20
-2.804879082573784
 10
2.052274915907118
 20
-2.927146911621094
 10
2.052274915907118
 20
-2.927146911621094
 10
2.052274915907118
 20
-2.953270806206597
 10
2.037953694661458
 20
-2.974438137478299
 10
2.02384779188368
 20
-2.990652296278212
 10
2.003343370225694
 20
-3.014396667480469
 10
1.964156256781684
 20
-3.026275634765625
 10
1.91672854953342
 20
-3.026275634765625
 10
1.881454467773438
 20
-3.026275634765625
 10
1.855445014105903
 20
-3.021126641167534
 10
1.840051439073351
 20
-3.01084476047092
 10
1.827877468532986
 20
-3.003334045410156
 10
1.828806559244792
 20
-2.993832058376736
 10
1.823030259874132
 20
-2.98234134250217
 10
1.816631740993923
 20
-2.968098958333333
 10
1.823944939507378
 20
-2.948121812608507
 10
1.823944939507378
 20
-2.922408209906684
 10
1.823944939507378
 20
-2.922408209906684
 10
1.823944939507378
 20
-2.205443488226996
 10
1.823944939507378
 20
-2.205443488226996
 10
1.823944939507378
 20
-2.188431633843316
 10
1.815979851616753
 20
-2.172002156575521
 10
1.820467631022135
 20
-2.156180487738715
 10
1.829442342122396
 20
-2.120185004340278
 10
1.859380086263021
 20
-2.102179633246528
 10
1.920933193630642
 20
-2.102179633246528
 10
1.963230556911892
 20
-2.102179633246528
 10
1.997611999511719
 20
-2.110977172851562
 10
2.017492506239149
 20
-2.128574795193142
 10
2.037354363335504
 20
-2.146192762586805
 10
2.052274915907118
 20
-2.170228746202257
 10
2.052274915907118
 20
-2.20070309109158
 10
2.052274915907118
 20
-2.20070309109158
 10
2.052274915907118
 20
-2.679063585069444
 10
2.052274915907118
 20
-2.679063585069444
 10
2.052274915907118
 20
-2.696873982747396
 10
2.054368760850694
 20
-2.705770704481337
 10
2.080648634168837
 20
-2.705770704481337
 10
2.080648634168837
 20
-2.705770704481337
 10
2.383703443739149
 20
-2.705184936523438
 10
2.383703443739149
 20
-2.705184936523438
 10
2.41062757703993
 20
-2.705184936523438
 10
2.425904168023003
 20
-2.696484035915799
 10
2.425904168023003
 20
-2.679063585069444
 10
2.425904168023003
 20
-2.679063585069444
 10
2.425904168023003
 20
-2.178148905436198
 10
2.425904168023003
 20
-2.178148905436198
 10
2.425904168023003
 20
-2.153606838650174
 10
2.425125969780816
 20
-2.134818183051215
 10
2.435056898328993
 20
-2.121765984429254
 10
2.444986979166667
 20
-2.108694288465712
 10
2.467381795247396
 20
-2.102179633246528
 10
2.494948493109809
 20
-2.102179633246528
 10
2.549439324273003
 20
-2.102179633246528
 10
2.571204291449653
 20
-2.127503289116754
 10
2.571204291449653
 20
-2.178148905436198
 10
2.571204291449653
 20
-2.178148905436198
 10
2.571204291449653
 20
-2.950306362575955
 10
2.571204291449653
 20
-2.950306362575955
 97
        0
 97
        0
 92
        1
 93
        1
 72
     4
 94
        3
 73
     0
 74
     1
 95
      107
 96
      103
 40
0.0
 40
0.0
 40
0.0
 40
0.0
 40
1.0
 40
1.0
 40
1.0
 40
2.0
 40
2.0
 40
2.0
 40
3.0
 40
3.0
 40
3.0
 40
4.0
 40
4.0
 40
4.0
 40
5.0
 40
5.0
 40
5.0
 40
6.0
 40
6.0
 40
6.0
 40
7.0
 40
7.0
 40
7.0
 40
8.0
 40
8.0
 40
8.0
 40
9.0
 40
9.0
 40
9.0
 40
10.0
 40
10.0
 40
10.0
 40
11.0
 40
11.0
 40
11.0
 40
12.0
 40
12.0
 40
12.0
 40
13.0
 40
13.0
 40
13.0
 40
14.0
 40
14.0
 40
14.0
 40
15.0
 40
15.0
 40
15.0
 40
16.0
 40
16.0
 40
16.0
 40
17.0
 40
17.0
 40
17.0
 40
18.0
 40
18.0
 40
18.0
 40
19.0
 40
19.0
 40
19.0
 40
20.0
 40
20.0
 40
20.0
 40
21.0
 40
21.0
 40
21.0
 40
22.0
 40
22.0
 40
22.0
 40
23.0
 40
23.0
 40
23.0
 40
24.0
 40
24.0
 40
24.0
 40
25.0
 40
25.0
 40
25.0
 40
26.0
 40
26.0
 40
26.0
 40
27.0
 40
27.0
 40
27.0
 40
28.0
 40
28.0
 40
28.0
 40
29.0
 40
29.0
 40
29.0
 40
30.0
 40
30.0
 40
30.0
 40
31.0
 40
31.0
 40
31.0
 40
32.0
 40
32.0
 40
32.0
 40
33.0
 40
33.0
 40
33.0
 40
34.0
 40
34.0
 40
34.0
 40
34.0
 10
3.404374016655816
 20
-3.009947882758246
 10
3.36334482828776
 20
-3.020833333333333
 10
3.293519761827257
 20
-3.026275634765625
 10
3.193512810601128
 20
-3.026275634765625
 10
3.106343587239583
 20
-3.026275634765625
 10
3.039720323350694
 20
-3.01835462782118
 10
2.991003248426649
 20
-3.002533806694878
 10
2.903834025065104
 20
-2.973658243815104
 10
2.866419474283854
 20
-2.920632256401909
 10
2.854889763726128
 20
-2.84346940782335
 10
2.849758572048611
 20
-2.808644612630208
 10
2.861805386013455
 20
-2.772045559353299
 10
2.861805386013455
 20
-2.733668009440104
 10
2.861805386013455
 20
-2.733668009440104
 10
2.861805386013455
 20
-2.235702514648438
 10
2.861805386013455
 20
-2.235702514648438
 10
2.861805386013455
 20
-2.209989759657118
 10
2.851358201768663
 20
-2.17553965250651
 10
2.859688652886284
 20
-2.157335917154948
 10
2.877638075086805
 20
-2.118959214952257
 10
2.909818861219618
 20
-2.08726077609592
 10
2.985478719075521
 20
-2.08726077609592
 10
2.985478719075521
 20
-2.08726077609592
 10
3.245073954264323
 20
-2.08726077609592
 10
3.245073954264323
 20
-2.08726077609592
 10
3.26300303141276
 20
-2.08726077609592
 10
3.283115810818142
 20
-2.100563049316406
 10
3.304907904730903
 20
-2.102144029405382
 10
3.358111063639323
 20
-2.10608164469401
 10
3.384954664442274
 20
-2.131841023763021
 10
3.384954664442274
 20
-2.157554626464844
 10
3.384954664442274
 20
-2.16705576578776
 10
3.377067565917969
 20
-2.176846822102864
 10
3.360406663682725
 20
-2.185350206163194
 10
3.343745761447483
 20
-2.193876478407118
 10
3.319346110026042
 20
-2.19850836859809
 10
3.285380045572917
 20
-2.19850836859809
 10
3.261011759440104
 20
-2.19850836859809
 10
3.238338894314236
 20
-2.198415120442708
 10
3.213678148057725
 20
-2.197831895616319
 10
3.188998752170139
 20
-2.19722408718533
 10
3.171759711371528
 20
-2.197031656901042
 10
3.147412618001302
 20
-2.197031656901042
 10
3.101895650227864
 20
-2.197031656901042
 10
3.090134514702691
 20
-2.21295420328776
 10
3.090134514702691
 20
-2.244619581434462
 10
3.090134514702691
 20
-2.244619581434462
 10
3.090134514702691
 20
-2.666009691026475
 10
3.090134514702691
 20
-2.666009691026475
 10
3.090134514702691
 20
-2.684212578667534
 10
3.083644443088108
 20
-2.695878770616319
 10
3.092638651529948
 20
-2.701029459635417
 10
3.101613362630208
 20
-2.706180996365017
 10
3.105889214409722
 20
-2.708735148111979
 10
3.123857286241319
 20
-2.708735148111979
 10
3.150780571831597
 20
-2.708735148111979
 10
3.177001105414496
 20
-2.708345201280382
 10
3.204256693522135
 20
-2.707546657986111
 10
3.231491088867188
 20
-2.706765916612413
 10
3.258260091145833
 20
-2.706375969780816
 10
3.285164727105034
 20
-2.706375969780816
 10
3.317862616644965
 20
-2.706375969780816
 10
3.342217339409722
 20
-2.709340413411458
 10
3.358255174424913
 20
-2.715272691514757
 10
3.377492268880208
 20
-2.72239261203342
 10
3.387441847059462
 20
-2.73425547281901
 10
3.387441847059462
 20
-2.750878228081597
 10
3.387441847059462
 20
-2.760379367404514
 10
3.381911383734809
 20
-2.768492804633246
 10
3.369092305501302
 20
-2.77520751953125
 10
3.356256273057725
 20
-2.781937493218316
 10
3.34014892578125
 20
-2.785313076443142
 10
3.317069159613715
 20
-2.785313076443142
 10
3.317069159613715
 20
-2.785313076443142
 10
3.125301784939236
 20
-2.783518473307292
 10
3.125301784939236
 20
-2.783518473307292
 10
3.094534979926215
 20
-2.783518473307292
 10
3.090134514702691
 20
-2.791829427083333
 10
3.090134514702691
 20
-2.808451334635417
 10
3.090134514702691
 20
-2.808451334635417
 10
3.090134514702691
 20
-2.835745917426215
 10
3.090134514702691
 20
-2.835745917426215
 10
3.090134514702691
 20
-2.865027533637153
 10
3.087789747450087
 20
-2.887583414713542
 10
3.105095757378472
 20
-2.903405083550347
 10
3.132662455240885
 20
-2.927557203504774
 10
3.176670498318142
 20
-2.939613342285156
 10
3.255509270562066
 20
-2.939613342285156
 10
3.280520968967014
 20
-2.939613342285156
 10
3.304461161295573
 20
-2.938931783040364
 10
3.329140557183159
 20
-2.937545776367188
 10
3.35380130343967
 20
-2.936162312825521
 10
3.378208584255642
 20
-2.935457865397135
 10
3.40320078531901
 20
-2.935457865397135
 10
3.419861687554253
 20
-2.935457865397135
 10
3.434231228298611
 20
-2.937839931911892
 10
3.446737501356337
 20
-2.942580329047309
 10
3.459222581651475
 20
-2.947341918945312
 10
3.465705023871528
 20
-2.954656812879774
 10
3.465705023871528
 20
-2.964548746744792
 10
3.465705023871528
 20
-2.983940124511719
 10
3.445403205023871
 20
-2.999062432183159
 10
3.404374016655816
 20
-3.009947882758246
 97
        0
 97
        0
 92
        1
 93
        1
 72
     4
 94
        3
 73
     0
 74
     1
 95
       98
 96
       94
 40
0.0
 40
0.0
 40
0.0
 40
0.0
 40
1.0
 40
1.0
 40
1.0
 40
2.0
 40
2.0
 40
2.0
 40
3.0
 40
3.0
 40
3.0
 40
4.0
 40
4.0
 40
4.0
 40
5.0
 40
5.0
 40
5.0
 40
6.0
 40
6.0
 40
6.0
 40
7.0
 40
7.0
 40
7.0
 40
8.0
 40
8.0
 40
8.0
 40
9.0
 40
9.0
 40
9.0
 40
10.0
 40
10.0
 40
10.0
 40
11.0
 40
11.0
 40
11.0
 40
12.0
 40
12.0
 40
12.0
 40
13.0
 40
13.0
 40
13.0
 40
14.0
 40
14.0
 40
14.0
 40
15.0
 40
15.0
 40
15.0
 40
16.0
 40
16.0
 40
16.0
 40
17.0
 40
17.0
 40
17.0
 40
18.0
 40
18.0
 40
18.0
 40
19.0
 40
19.0
 40
19.0
 40
20.0
 40
20.0
 40
20.0
 40
21.0
 40
21.0
 40
21.0
 40
22.0
 40
22.0
 40
22.0
 40
23.0
 40
23.0
 40
23.0
 40
24.0
 40
24.0
 40
24.0
 40
25.0
 40
25.0
 40
25.0
 40
26.0
 40
26.0
 40
26.0
 40
27.0
 40
27.0
 40
27.0
 40
28.0
 40
28.0
 40
28.0
 40
29.0
 40
29.0
 40
29.0
 40
30.0
 40
30.0
 40
30.0
 40
31.0
 40
31.0
 40
31.0
 40
31.0
 10
4.139244927300347
 20
-2.486167907714844
 10
4.122565375434028
 20
-2.530494689941406
 10
4.094685024685329
 20
-2.552640279134114
 10
4.055587768554688
 20
-2.552640279134114
 10
4.020333184136285
 20
-2.552640279134114
 10
4.002716064453125
 20
-2.541577657063802
 10
4.002716064453125
 20
-2.519414265950521
 10
4.002716064453125
 20
-2.513482835557725
 10
4.003672281901041
 20
-2.507532755533854
 10
4.005583869086371
 20
-2.501601325141059
 10
4.020333184136285
 20
-2.458873324924045
 10
4.027708265516493
 20
-2.41534678141276
 10
4.027708265516493
 20
-2.371040344238281
 10
4.027708265516493
 20
-2.337796529134114
 10
4.02193366156684
 20
-2.307126363118489
 10
4.010403103298611
 20
-2.279034084743924
 10
3.983479817708333
 20
-2.216523912217882
 10
3.9283447265625
 20
-2.185269673665364
 10
3.845018174913194
 20
-2.185269673665364
 10
3.784128824869792
 20
-2.185269673665364
 10
3.737657335069444
 20
-2.202868991427951
 10
3.705602857801649
 20
-2.238084581163194
 10
3.678678724500868
 20
-2.267365349663628
 10
3.665217081705729
 20
-2.305955674913194
 10
3.665217081705729
 20
-2.353814866807725
 10
3.665217081705729
 20
-2.399723476833767
 10
3.684766133626302
 20
-2.443051656087239
 10
3.723883734809028
 20
-2.48380872938368
 10
3.759761386447483
 20
-2.520992702907986
 10
3.820982191297743
 20
-2.565905253092448
 10
3.907528347439236
 20
-2.618522644042969
 10
3.943405999077691
 20
-2.64068603515625
 10
3.976416693793403
 20
-2.663240220811632
 10
4.006559583875868
 20
-2.686183505588108
 10
4.071936713324653
 20
-2.737220764160156
 10
4.104635450575087
 20
-2.78944820827908
 10
4.104635450575087
 20
-2.842866685655382
 10
4.104635450575087
 20
-2.89193132188585
 10
4.082511054144965
 20
-2.932298448350694
 10
4.038281758626302
 20
-2.963943481445312
 10
3.979948255750868
 20
-3.005498250325521
 10
3.895646837022569
 20
-3.026275634765625
 10
3.785416497124566
 20
-3.026275634765625
 10
3.688609653049045
 20
-3.026275634765625
 10
3.614588419596354
 20
-3.00569576687283
 10
3.56331804063585
 20
-2.964548746744792
 10
3.522288852267795
 20
-2.930912441677517
 10
3.501764085557725
 20
-2.885006374782986
 10
3.501764085557725
 20
-2.826847500271267
 10
3.501764085557725
 20
-2.810635884602864
 10
3.508026970757378
 20
-2.796978420681424
 10
3.520513746473524
 20
-2.785897996690538
 10
3.533019171820746
 20
-2.774817572699653
 10
3.549855550130208
 20
-2.769273546006944
 10
3.571004231770833
 20
-2.769273546006944
 10
3.60945807562934
 20
-2.769273546006944
 10
3.628694322374132
 20
-2.784122043185764
 10
3.628694322374132
 20
-2.813797844780816
 10
3.628694322374132
 20
-2.831590440538194
 10
3.632849799262153
 20
-2.849794175889757
 10
3.641181098090278
 20
-2.868402269151475
 10
3.65977308485243
 20
-2.912708706325955
 10
3.703358968098958
 20
-2.93487548828125
 10
3.77195570203993
 20
-2.93487548828125
 10
3.848219129774305
 20
-2.93487548828125
 10
3.886361016167534
 20
-2.908964369032118
 10
3.886361016167534
 20
-2.857126871744792
 10
3.886361016167534
 20
-2.823883056640625
 10
3.858480665418837
 20
-2.788082546657986
 10
3.802722507052951
 20
-2.749687194824219
 10
3.777065700954861
 20
-2.732694837782118
 10
3.749187893337673
 20
-2.714881896972656
 10
3.719063652886284
 20
-2.696268717447917
 10
3.635737101236979
 20
-2.645642598470052
 10
3.572915818956163
 20
-2.599932352701823
 10
3.53062015109592
 20
-2.559175279405382
 10
3.468442281087239
 20
-2.500215318467882
 10
3.437363518608941
 20
-2.434740702311198
 10
3.437363518608941
 20
-2.362729390462239
 10
3.437363518608941
 20
-2.31327395968967
 10
3.450492011176215
 20
-2.268947177463108
 10
3.476771884494358
 20
-2.229773627387153
 10
3.495365566677517
 20
-2.202089097764757
 10
3.521625094943576
 20
-2.178539699978299
 10
3.555611504448784
 20
-2.159145779079861
 10
3.621008131239149
 20
-2.121160719129774
 10
3.708158704969618
 20
-2.102179633246528
 10
3.817140367296007
 20
-2.102179633246528
 10
4.044058057996962
 20
-2.102179633246528
 10
4.157506306966146
 20
-2.191786024305555
 10
4.157506306966146
 20
-2.371040344238281
 10
4.157506306966146
 20
-2.415757073296441
 10
4.151400248209635
 20
-2.454114278157552
 10
4.139244927300347
 20
-2.486167907714844
 97
        0
 97
        0
 92
        1
 93
        1
 72
     4
 94
        3
 73
     0
 74
     1
 95
      107
 96
      103
 40
0.0
 40
0.0
 40
0.0
 40
0.0
 40
1.0
 40
1.0
 40
1.0
 40
2.0
 40
2.0
 40
2.0
 40
3.0
 40
3.0
 40
3.0
 40
4.0
 40
4.0
 40
4.0
 40
5.0
 40
5.0
 40
5.0
 40
6.0
 40
6.0
 40
6.0
 40
7.0
 40
7.0
 40
7.0
 40
8.0
 40
8.0
 40
8.0
 40
9.0
 40
9.0
 40
9.0
 40
10.0
 40
10.0
 40
10.0
 40
11.0
 40
11.0
 40
11.0
 40
12.0
 40
12.0
 40
12.0
 40
13.0
 40
13.0
 40
13.0
 40
14.0
 40
14.0
 40
14.0
 40
15.0
 40
15.0
 40
15.0
 40
16.0
 40
16.0
 40
16.0
 40
17.0
 40
17.0
 40
17.0
 40
18.0
 40
18.0
 40
18.0
 40
19.0
 40
19.0
 40
19.0
 40
20.0
 40
20.0
 40
20.0
 40
21.0
 40
21.0
 40
21.0
 40
22.0
 40
22.0
 40
22.0
 40
23.0
 40
23.0
 40
23.0
 40
24.0
 40
24.0
 40
24.0
 40
25.0
 40
25.0
 40
25.0
 40
26.0
 40
26.0
 40
26.0
 40
27.0
 40
27.0
 40
27.0
 40
28.0
 40
28.0
 40
28.0
 40
29.0
 40
29.0
 40
29.0
 40
30.0
 40
30.0
 40
30.0
 40
31.0
 40
31.0
 40
31.0
 40
32.0
 40
32.0
 40
32.0
 40
33.0
 40
33.0
 40
33.0
 40
34.0
 40
34.0
 40
34.0
 40
34.0
 10
4.883110894097222
 20
-3.009947882758246
 10
4.842081705729166
 20
-3.020833333333333
 10
4.772232055664062
 20
-3.026275634765625
 10
4.672225952148438
 20
-3.026275634765625
 10
4.585055033365885
 20
-3.026275634765625
 10
4.518383449978298
 20
-3.01835462782118
 10
4.46966807047526
 20
-3.002533806694878
 10
4.382497999403212
 20
-2.973658243815104
 10
4.353059556749132
 20
-2.920632256401909
 10
4.341528998480903
 20
-2.84346940782335
 10
4.336398654513888
 20
-2.808644612630208
 10
4.356324089898004
 20
-2.772045559353299
 10
4.356324089898004
 20
-2.733668009440104
 10
4.356324089898004
 20
-2.733668009440104
 10
4.356324089898004
 20
-2.235702514648438
 10
4.356324089898004
 20
-2.235702514648438
 10
4.356324089898004
 20
-2.209989759657118
 10
4.337998284233941
 20
-2.17553965250651
 10
4.346328735351562
 20
-2.157335917154948
 10
4.364278157552083
 20
-2.118959214952257
 10
4.388580322265625
 20
-2.08726077609592
 10
4.464239332411024
 20
-2.08726077609592
 10
4.464239332411024
 20
-2.08726077609592
 10
4.723836263020833
 20
-2.08726077609592
 10
4.723836263020833
 20
-2.08726077609592
 10
4.741765340169271
 20
-2.08726077609592
 10
4.761870490180121
 20
-2.100563049316406
 10
4.783662584092881
 20
-2.102144029405382
 10
4.836865743001302
 20
-2.10608164469401
 10
4.863704257541232
 20
-2.131841023763021
 10
4.863704257541232
 20
-2.157554626464844
 10
4.863704257541232
 20
-2.16705576578776
 10
4.855804443359375
 20
-2.176846822102864
 10
4.839143541124131
 20
-2.185350206163194
 10
4.822482638888888
 20
-2.193876478407118
 10
4.798058403862847
 20
-2.19850836859809
 10
4.764091491699219
 20
-2.19850836859809
 10
4.739724900987413
 20
-2.19850836859809
 10
4.71700202094184
 20
-2.198415120442708
 10
4.692342122395833
 20
-2.197831895616319
 10
4.667661878797743
 20
-2.19722408718533
 10
4.658399793836805
 20
-2.197031656901042
 10
4.634051852756076
 20
-2.197031656901042
 10
4.588535732693142
 20
-2.197031656901042
 10
4.584653218587239
 20
-2.21295420328776
 10
4.584653218587239
 20
-2.244619581434462
 10
4.584653218587239
 20
-2.244619581434462
 10
4.584653218587239
 20
-2.666009691026475
 10
4.584653218587239
 20
-2.666009691026475
 10
4.584653218587239
 20
-2.684212578667534
 10
4.570284525553385
 20
-2.695878770616319
 10
4.579277886284722
 20
-2.701029459635417
 10
4.588252597384982
 20
-2.706180996365017
 10
4.588684929741754
 20
-2.708735148111979
 10
4.606653849283854
 20
-2.708735148111979
 10
4.633577134874131
 20
-2.708735148111979
 10
4.657779269748263
 20
-2.708345201280382
 10
4.685033162434896
 20
-2.707546657986111
 10
4.712269253200954
 20
-2.706765916612413
 10
4.738022698296441
 20
-2.706375969780816
 10
4.764927334255642
 20
-2.706375969780816
 10
4.797625223795572
 20
-2.706375969780816
 10
4.821471320258246
 20
-2.709340413411458
 10
4.837509155273438
 20
-2.715272691514757
 10
4.856746249728732
 20
-2.72239261203342
 10
4.866431342230903
 20
-2.73425547281901
 10
4.866431342230903
 20
-2.750878228081597
 10
4.866431342230903
 20
-2.760379367404514
 10
4.860749138726129
 20
-2.768492804633246
 10
4.847931755913629
 20
-2.77520751953125
 10
4.835094028049045
 20
-2.781937493218316
 10
4.818876478407118
 20
-2.785313076443142
 10
4.795795864529079
 20
-2.785313076443142
 10
4.795795864529079
 20
-2.785313076443142
 10
4.611973232693142
 20
-2.783518473307292
 10
4.611973232693142
 20
-2.783518473307292
 10
4.581206427680121
 20
-2.783518473307292
 10
4.584653218587239
 20
-2.791829427083333
 10
4.584653218587239
 20
-2.808451334635417
 10
4.584653218587239
 20
-2.808451334635417
 10
4.584653218587239
 20
-2.835745917426215
 10
4.584653218587239
 20
-2.835745917426215
 10
4.584653218587239
 20
-2.865027533637153
 10
4.574430677625868
 20
-2.887583414713542
 10
4.59173583984375
 20
-2.903405083550347
 10
4.619302537706163
 20
-2.927557203504774
 10
4.659468756781684
 20
-2.939613342285156
 10
4.738306681315104
 20
-2.939613342285156
 10
4.763318379720052
 20
-2.939613342285156
 10
4.785240173339844
 20
-2.938931783040364
 10
4.809920416937934
 20
-2.937545776367188
 10
4.834580315483941
 20
-2.936162312825521
 10
4.857978820800781
 20
-2.935457865397135
 10
4.882971021864149
 20
-2.935457865397135
 10
4.899632771809896
 20
-2.935457865397135
 10
4.91349622938368
 20
-2.937839931911892
 10
4.926002502441406
 20
-2.942580329047309
 10
4.938489278157552
 20
-2.947341918945312
 10
4.944707234700521
 20
-2.954656812879774
 10
4.944707234700521
 20
-2.964548746744792
 10
4.944707234700521
 20
-2.983940124511719
 10
4.924140082465278
 20
-2.999062432183159
 10
4.883110894097222
 20
-3.009947882758246
 97
        0
 97
        0
 75
     2
 76
     1
 98
        0
  0
POLYLINE
  5
68
330
1F
100
AcDbEntity
  8
Layer 1
370
     0
100
AcDb2dPolyline
 66
     1
 10
0.0
 20
0.0
 30
0.0
  0
VERTEX
  5
69
330
68
100
AcDbEntity
  8
Layer 1
370
     0
100
AcDbVertex
100
AcDb2dVertex
 10
1.372303432888455
 20
-1.847802903917101
 30
0.0
  0
VERTEX
  5
6A
330
68
100
AcDbEntity
  8
Layer 1
370
     0
100
AcDbVertex
100
AcDb2dVertex
 10
0.927808125813802
 20
-1.847802903917101
 30
0.0
  0
VERTEX
  5
6B
330
68
100
AcDbEntity
  8
Layer 1
370
     0
100
AcDbVertex
100
AcDb2dVertex
 10
0.927808125813802
 20
-0.2938707139756944
 30
0.0
  0
VERTEX
  5
6C
330
68
100
AcDbEntity
  8
Layer 1
370
     0
100
AcDbVertex
100
AcDb2dVertex
 10
1.372303432888455
 20
-0.2938707139756944
 30
0.0
  0
VERTEX
  5
6D
330
68
100
AcDbEntity
  8
Layer 1
370
     0
100
AcDbVertex
100
AcDb2dVertex
 10
1.372303432888455
 20
-1.847802903917101
 30
0.0
  0
SEQEND
  5
6E
330
68
100
AcDbEntity
  8
Layer 1
370
     0
  0
SPLINE
  5
6F
330
1F
100
AcDbEntity
  8
Layer 1
370
     0
100
AcDbSpline
210
0.0
220
0.0
230
1.0
 70
    11
 71
     3
 72
   101
 73
    97
 74
     0
 42
0.0000000001
 43
0.0000000001
 12
1.0
 22
0.0
 32
0.0
 13
1.0
 23
0.0
 33
0.0
 40
0.0
 40
0.0
 40
0.0
 40
0.0
 40
1.0
 40
1.0
 40
1.0
 40
2.0
 40
2.0
 40
2.0
 40
3.0
 40
3.0
 40
3.0
 40
4.0
 40
4.0
 40
4.0
 40
5.0
 40
5.0
 40
5.0
 40
6.0
 40
6.0
 40
6.0
 40
7.0
 40
7.0
 40
7.0
 40
8.0
 40
8.0
 40
8.0
 40
9.0
 40
9.0
 40
9.0
 40
10.0
 40
10.0
 40
10.0
 40
11.0
 40
11.0
 40
11.0
 40
12.0
 40
12.0
 40
12.0
 40
13.0
 40
13.0
 40
13.0
 40
14.0
 40
14.0
 40
14.0
 40
15.0
 40
15.0
 40
15.0
 40
16.0
 40
16.0
 40
16.0
 40
17.0
 40
17.0
 40
17.0
 40
18.0
 40
18.0
 40
18.0
 40
19.0
 40
19.0
 40
19.0
 40
20.0
 40
20.0
 40
20.0
 40
21.0
 40
21.0
 40
21.0
 40
22.0
 40
22.0
 40
22.0
 40
23.0
 40
23.0
 40
23.0
 40
24.0
 40
24.0
 40
24.0
 40
25.0
 40
25.0
 40
25.0
 40
26.0
 40
26.0
 40
26.0
 40
27.0
 40
27.0
 40
27.0
 40
28.0
 40
28.0
 40
28.0
 40
29.0
 40
29.0
 40
29.0
 40
30.0
 40
30.0
 40
30.0
 40
31.0
 40
31.0
 40
31.0
 40
32.0
 40
32.0
 40
32.0
 40
32.0
 10
2.744833204481337
 20
-0.3341683281792535
 30
0.0
 10
2.658946567111545
 20
-0.2855597601996527
 30
0.0
 10
2.550913492838542
 20
-0.2612347073025174
 30
0.0
 10
2.420705159505208
 20
-0.2612347073025174
 30
0.0
 10
2.288367377387153
 20
-0.2612347073025174
 30
0.0
 10
2.180507236056858
 20
-0.2892286512586805
 30
0.0
 10
2.097103542751736
 20
-0.3452156914605035
 30
0.0
 10
2.013689676920573
 20
-0.4012239244249132
 30
0.0
 10
1.963184780544705
 20
-0.4627863566080729
 30
0.0
 10
1.945589701334635
 20
-0.5299835205078125
 30
0.0
 10
1.927994622124566
 20
-0.5971603393554688
 30
0.0
 10
1.919197082519531
 20
-0.705000983344184
 30
0.0
 10
1.919197082519531
 20
-0.8534435696072048
 30
0.0
 10
1.919197082519531
 20
-0.8534435696072048
 30
0.0
 10
1.919197082519531
 20
-1.315108405219184
 30
0.0
 10
1.919197082519531
 20
-1.315108405219184
 30
0.0
 10
1.919197082519531
 20
-1.421975877549913
 30
0.0
 10
1.923423767089844
 20
-1.502126057942708
 30
0.0
 10
1.931866963704427
 20
-1.55553944905599
 30
0.0
 10
1.940319485134548
 20
-1.608973185221354
 30
0.0
 10
1.961452060275608
 20
-1.66001468234592
 30
0.0
 10
1.995262993706597
 20
-1.708624098036024
 30
0.0
 10
2.029084947374132
 20
-1.757273356119792
 30
0.0
 10
2.078555636935764
 20
-1.798058403862847
 30
0.0
 10
2.14371575249566
 20
-1.830997890896267
 30
0.0
 10
2.208865695529514
 20
-1.863958570692274
 30
0.0
 10
2.278779771592882
 20
-1.880438062879774
 30
0.0
 10
2.35345713297526
 20
-1.880438062879774
 30
0.0
 10
2.416143629286024
 20
-1.880438062879774
 30
0.0
 10
2.470550537109375
 20
-1.868437872992621
 30
0.0
 10
2.516696506076389
 20
-1.844437493218316
 30
0.0
 10
2.562822977701823
 20
-1.820457458496094
 30
0.0
 10
2.601042853461371
 20
-1.784456888834635
 30
0.0
 10
2.631327311197917
 20
-1.736455281575521
 30
0.0
 10
2.631327311197917
 20
-1.736455281575521
 30
0.0
 10
2.67244635687934
 20
-1.847802903917101
 30
0.0
 10
2.67244635687934
 20
-1.847802903917101
 30
0.0
 10
2.67244635687934
 20
-1.847802903917101
 30
0.0
 10
2.951766967773438
 20
-1.847802903917101
 30
0.0
 10
2.951766967773438
 20
-1.847802903917101
 30
0.0
 10
2.951766967773438
 20
-1.847802903917101
 30
0.0
 10
2.951766967773438
 20
-1.013723585340712
 30
0.0
 10
2.951766967773438
 20
-1.013723585340712
 30
0.0
 10
2.951766967773438
 20
-1.013723585340712
 30
0.0
 10
2.431255764431424
 20
-1.013723585340712
 30
0.0
 10
2.431255764431424
 20
-1.013723585340712
 30
0.0
 10
2.431255764431424
 20
-1.013723585340712
 30
0.0
 10
2.431255764431424
 20
-1.249837239583333
 30
0.0
 10
2.431255764431424
 20
-1.249837239583333
 30
0.0
 10
2.431255764431424
 20
-1.249837239583333
 30
0.0
 10
2.521004570855034
 20
-1.249837239583333
 30
0.0
 10
2.521004570855034
 20
-1.249837239583333
 30
0.0
 10
2.521004570855034
 20
-1.249837239583333
 30
0.0
 10
2.521004570855034
 20
-1.434117635091146
 30
0.0
 10
2.521004570855034
 20
-1.434117635091146
 30
0.0
 10
2.521004570855034
 20
-1.506444295247396
 30
0.0
 10
2.515196906195746
 20
-1.555052863226996
 30
0.0
 10
2.50358157687717
 20
-1.580006069607205
 30
0.0
 10
2.491966247558594
 20
-1.604979621039496
 30
0.0
 10
2.469962226019965
 20
-1.617446051703559
 30
0.0
 10
2.437590705023871
 20
-1.617446051703559
 30
0.0
 10
2.408035278320312
 20
-1.617446051703559
 30
0.0
 10
2.388322618272569
 20
-1.606419033474392
 30
0.0
 10
2.378470526801215
 20
-1.584343804253472
 30
0.0
 10
2.368609110514323
 20
-1.562249077690972
 30
0.0
 10
2.363693237304688
 20
-1.516356574164496
 30
0.0
 10
2.363693237304688
 20
-1.446604410807292
 30
0.0
 10
2.363693237304688
 20
-1.446604410807292
 30
0.0
 10
2.363693237304688
 20
-0.7008251614040798
 30
0.0
 10
2.363693237304688
 20
-0.7008251614040798
 30
0.0
 10
2.363693237304688
 20
-0.6214853922526041
 30
0.0
 10
2.368609110514323
 20
-0.5722071329752604
 30
0.0
 10
2.378470526801215
 20
-0.5530107286241319
 30
0.0
 10
2.388322618272569
 20
-0.5338151719835069
 30
0.0
 10
2.406971401638455
 20
-0.5242267184787326
 30
0.0
 10
2.434427897135417
 20
-0.5242267184787326
 30
0.0
 10
2.466100904676649
 20
-0.5242267184787326
 30
0.0
 10
2.486158582899305
 20
-0.535416497124566
 30
0.0
 10
2.49461195203993
 20
-0.5578155517578125
 30
0.0
 10
2.50305430094401
 20
-0.580214606391059
 30
0.0
 10
2.507280985514323
 20
-0.6358981662326388
 30
0.0
 10
2.507280985514323
 20
-0.7248255411783854
 30
0.0
 10
2.507280985514323
 20
-0.7248255411783854
 30
0.0
 10
2.507280985514323
 20
-0.8659100002712673
 30
0.0
 10
2.507280985514323
 20
-0.8659100002712673
 30
0.0
 10
2.507280985514323
 20
-0.8659100002712673
 30
0.0
 10
2.951766967773438
 20
-0.8659100002712673
 30
0.0
 10
2.951766967773438
 20
-0.8659100002712673
 30
0.0
 10
2.951766967773438
 20
-0.8659100002712673
 30
0.0
 10
2.951766967773438
 20
-0.7987323337131076
 30
0.0
 10
2.951766967773438
 20
-0.7987323337131076
 30
0.0
 10
2.951766967773438
 20
-0.6714121500651041
 30
0.0
 10
2.938732571072049
 20
-0.5742950439453125
 30
0.0
 10
2.912705315483941
 20
-0.5074225531684028
 30
0.0
 10
2.88665771484375
 20
-0.4405695597330729
 30
0.0
 10
2.830700344509549
 20
-0.3828184339735243
 30
0.0
 10
2.744833204481337
 20
-0.3341683281792535
 30
0.0
  0
INSERT
  5
71
330
1F
100
AcDbEntity
  8
Layer 1
100
AcDbBlockReference
  2
block 6
 10
0.0
 20
0.0
 30
0.0
  0
POLYLINE
  5
76
330
1F
100
AcDbEntity
  8
Layer 1
370
     0
100
AcDb2dPolyline
 66
     1
 10
0.0
 20
0.0
 30
0.0
  0
VERTEX
  5
77
330
76
100
AcDbEntity
  8
Layer 1
370
     0
100
AcDbVertex
100
AcDb2dVertex
 10
4.229277716742621
 20
-0.2938707139756944
 30
0.0
  0
VERTEX
  5
78
330
76
100
AcDbEntity
  8
Layer 1
370
     0
100
AcDbVertex
100
AcDb2dVertex
 10
4.229277716742621
 20
-0.6048431396484375
 30
0.0
  0
VERTEX
  5
79
330
76
100
AcDbEntity
  8
Layer 1
370
     0
100
AcDbVertex
100
AcDb2dVertex
 10
4.492168850368923
 20
-0.6048431396484375
 30
0.0
  0
VERTEX
  5
7A
330
76
100
AcDbEntity
  8
Layer 1
370
     0
100
AcDbVertex
100
AcDb2dVertex
 10
4.492168850368923
 20
-1.847802903917101
 30
0.0
  0
VERTEX
  5
7B
330
76
100
AcDbEntity
  8
Layer 1
370
     0
100
AcDbVertex
100
AcDb2dVertex
 10
4.936665005154079
 20
-1.847802903917101
 30
0.0
  0
VERTEX
  5
7C
330
76
100
AcDbEntity
  8
Layer 1
370
     0
100
AcDbVertex
100
AcDb2dVertex
 10
4.936665005154079
 20
-0.6048431396484375
 30
0.0
  0
VERTEX
  5
7D
330
76
100
AcDbEntity
  8
Layer 1
370
     0
100
AcDbVertex
100
AcDb2dVertex
 10
5.200609842936197
 20
-0.6048431396484375
 30
0.0
  0
VERTEX
  5
7E
330
76
100
AcDbEntity
  8
Layer 1
370
     0
100
AcDbVertex
100
AcDb2dVertex
 10
5.200609842936197
 20
-0.2938707139756944
 30
0.0
  0
VERTEX
  5
7F
330
76
100
AcDbEntity
  8
Layer 1
370
     0
100
AcDbVertex
100
AcDb2dVertex
 10
4.229277716742621
 20
-0.2938707139756944
 30
0.0
  0
SEQEND
  5
80
330
76
100
AcDbEntity
  8
Layer 1
370
     0
  0
SPLINE
  5
81
330
1F
100
AcDbEntity
  8
Layer 1
370
     0
100
AcDbSpline
210
0.0
220
0.0
230
1.0
 70
    11
 71
     3
 72
   101
 73
    97
 74
     0
 42
0.0000000001
 43
0.0000000001
 12
1.0
 22
0.0
 32
0.0
 13
1.0
 23
0.0
 33
0.0
 40
0.0
 40
0.0
 40
0.0
 40
0.0
 40
1.0
 40
1.0
 40
1.0
 40
2.0
 40
2.0
 40
2.0
 40
3.0
 40
3.0
 40
3.0
 40
4.0
 40
4.0
 40
4.0
 40
5.0
 40
5.0
 40
5.0
 40
6.0
 40
6.0
 40
6.0
 40
7.0
 40
7.0
 40
7.0
 40
8.0
 40
8.0
 40
8.0
 40
9.0
 40
9.0
 40
9.0
 40
10.0
 40
10.0
 40
10.0
 40
11.0
 40
11.0
 40
11.0
 40
12.0
 40
12.0
 40
12.0
 40
13.0
 40
13.0
 40
13.0
 40
14.0
 40
14.0
 40
14.0
 40
15.0
 40
15.0
 40
15.0
 40
16.0
 40
16.0
 40
16.0
 40
17.0
 40
17.0
 40
17.0
 40
18.0
 40
18.0
 40
18.0
 40
19.0
 40
19.0
 40
19.0
 40
20.0
 40
20.0
 40
20.0
 40
21.0
 40
21.0
 40
21.0
 40
22.0
 40
22.0
 40
22.0
 40
23.0
 40
23.0
 40
23.0
 40
24.0
 40
24.0
 40
24.0
 40
25.0
 40
25.0
 40
25.0
 40
26.0
 40
26.0
 40
26.0
 40
27.0
 40
27.0
 40
27.0
 40
28.0
 40
28.0
 40
28.0
 40
29.0
 40
29.0
 40
29.0
 40
30.0
 40
30.0
 40
30.0
 40
31.0
 40
31.0
 40
31.0
 40
32.0
 40
32.0
 40
32.0
 40
32.0
 10
1.152863396538628
 20
-3.274941338433159
 30
0.0
 10
1.113477071126302
 20
-3.250434027777778
 30
0.0
 10
1.063955518934462
 20
-3.238149854871962
 30
0.0
 10
1.004258897569444
 20
-3.238149854871962
 30
0.0
 10
0.9435882568359375
 20
-3.238149854871962
 30
0.0
 10
0.8941277398003472
 20
-3.252278645833333
 30
0.0
 10
0.8558976915147569
 20
-3.280515882703993
 30
0.0
 10
0.8176464504665798
 20
-3.308753119574653
 30
0.0
 10
0.7944971720377604
 20
-3.339808146158854
 30
0.0
 10
0.7864295111762152
 20
-3.373700459798177
 30
0.0
 10
0.7783618503146701
 20
-3.407572428385417
 30
0.0
 10
0.7743284437391492
 20
-3.461958991156684
 30
0.0
 10
0.7743284437391492
 20
-3.536818610297309
 30
0.0
 10
0.7743284437391492
 20
-3.536818610297309
 30
0.0
 10
0.7743284437391492
 20
-3.769648234049479
 30
0.0
 10
0.7743284437391492
 20
-3.769648234049479
 30
0.0
 10
0.7743284437391492
 20
-3.823548210991753
 30
0.0
 10
0.776273939344618
 20
-3.863967895507812
 30
0.0
 10
0.7801454332139757
 20
-3.890907287597656
 30
0.0
 10
0.7840177747938367
 20
-3.917847527398003
 30
0.0
 10
0.7937071058485242
 20
-3.943590799967448
 30
0.0
 10
0.8091939290364583
 20
-3.968098110622829
 30
0.0
 10
0.8247010972764757
 20
-3.992646111382378
 30
0.0
 10
0.8473832872178819
 20
-4.01320054796007
 30
0.0
 10
0.8772625393337673
 20
-4.029822455512153
 30
0.0
 10
0.9071417914496527
 20
-4.046444363064236
 30
0.0
 10
0.9391894870334201
 20
-4.054755316840278
 30
0.0
 10
0.9734268188476562
 20
-4.054755316840278
 30
0.0
 10
1.002170986599392
 20
-4.054755316840278
 30
0.0
 10
1.027103847927517
 20
-4.048695034450954
 30
0.0
 10
1.048266092936198
 20
-4.036593119303385
 30
0.0
 10
1.069408840603299
 20
-4.024491204155816
 30
0.0
 10
1.086942884657118
 20
-4.006349351671007
 30
0.0
 10
1.100828382703993
 20
-3.982146369086371
 30
0.0
 10
1.100828382703993
 20
-3.982146369086371
 30
0.0
 10
1.119659423828125
 20
-4.038296169704861
 30
0.0
 10
1.119659423828125
 20
-4.038296169704861
 30
0.0
 10
1.119659423828125
 20
-4.038296169704861
 30
0.0
 10
1.247729831271701
 20
-4.038296169704861
 30
0.0
 10
1.247729831271701
 20
-4.038296169704861
 30
0.0
 10
1.247729831271701
 20
-4.038296169704861
 30
0.0
 10
1.247729831271701
 20
-3.617657979329427
 30
0.0
 10
1.247729831271701
 20
-3.617657979329427
 30
0.0
 10
1.247729831271701
 20
-3.617657979329427
 30
0.0
 10
1.009103563096788
 20
-3.617657979329427
 30
0.0
 10
1.009103563096788
 20
-3.617657979329427
 30
0.0
 10
1.009103563096788
 20
-3.617657979329427
 30
0.0
 10
1.009103563096788
 20
-3.736728244357639
 30
0.0
 10
1.009103563096788
 20
-3.736728244357639
 30
0.0
 10
1.009103563096788
 20
-3.736728244357639
 30
0.0
 10
1.050232781304253
 20
-3.736728244357639
 30
0.0
 10
1.050232781304253
 20
-3.736728244357639
 30
0.0
 10
1.050232781304253
 20
-3.736728244357639
 30
0.0
 10
1.050232781304253
 20
-3.829669528537326
 30
0.0
 10
1.050232781304253
 20
-3.829669528537326
 30
0.0
 10
1.050232781304253
 20
-3.866136338975694
 30
0.0
 10
1.047576904296875
 20
-3.890663994683159
 30
0.0
 10
1.042245652940538
 20
-3.903252495659722
 30
0.0
 10
1.036934746636285
 20
-3.915840148925781
 30
0.0
 10
1.026840209960938
 20
-3.922124226888021
 30
0.0
 10
1.01200188530816
 20
-3.922124226888021
 30
0.0
 10
0.9984410603841145
 20
-3.922124226888021
 30
0.0
 10
0.9894002278645833
 20
-3.916549682617188
 30
0.0
 10
0.9848997328016492
 20
-3.905421786838108
 30
0.0
 10
0.980359395345052
 20
-3.894293043348524
 30
0.0
 10
0.9781095716688367
 20
-3.871143764919704
 30
0.0
 10
0.9781095716688367
 20
-3.835953606499566
 30
0.0
 10
0.9781095716688367
 20
-3.835953606499566
 30
0.0
 10
0.9781095716688367
 20
-3.459850735134548
 30
0.0
 10
0.9781095716688367
 20
-3.459850735134548
 30
0.0
 10
0.9781095716688367
 20
-3.419836256239149
 30
0.0
 10
0.980359395345052
 20
-3.394984775119358
 30
0.0
 10
0.9848997328016492
 20
-3.385315789116753
 30
0.0
 10
0.9894002278645833
 20
-3.375626458062066
 30
0.0
 10
0.9979544745551214
 20
-3.370781792534722
 30
0.0
 10
1.010542975531684
 20
-3.370781792534722
 30
0.0
 10
1.025076972113715
 20
-3.370781792534722
 30
0.0
 10
1.034259372287326
 20
-3.376436869303385
 30
0.0
 10
1.038130866156684
 20
-3.387727525499132
 30
0.0
 10
1.042002360026042
 20
-3.399038526746962
 30
0.0
 10
1.043948703342014
 20
-3.427113850911458
 30
0.0
 10
1.043948703342014
 20
-3.471952650282118
 30
0.0
 10
1.043948703342014
 20
-3.471952650282118
 30
0.0
 10
1.043948703342014
 20
-3.543102688259548
 30
0.0
 10
1.043948703342014
 20
-3.543102688259548
 30
0.0
 10
1.043948703342014
 20
-3.543102688259548
 30
0.0
 10
1.247729831271701
 20
-3.543102688259548
 30
0.0
 10
1.247729831271701
 20
-3.543102688259548
 30
0.0
 10
1.247729831271701
 20
-3.543102688259548
 30
0.0
 10
1.247729831271701
 20
-3.509230719672309
 30
0.0
 10
1.247729831271701
 20
-3.509230719672309
 30
0.0
 10
1.247729831271701
 20
-3.445012410481771
 30
0.0
 10
1.241750081380208
 20
-3.396038479275173
 30
0.0
 10
1.229831271701389
 20
-3.362308078342014
 30
0.0
 10
1.217871771918403
 20
-3.328598022460938
 30
0.0
 10
1.192229376898871
 20
-3.299468994140625
 30
0.0
 10
1.152863396538628
 20
-3.274941338433159
 30
0.0
  0
SPLINE
  5
82
330
1F
100
AcDbEntity
  8
Layer 1
370
     0
100
AcDbSpline
210
0.0
220
0.0
230
1.0
 70
    11
 71
     3
 72
    59
 73
    55
 74
     0
 42
0.0000000001
 43
0.0000000001
 12
1.0
 22
0.0
 32
0.0
 13
1.0
 23
0.0
 33
0.0
 40
0.0
 40
0.0
 40
0.0
 40
0.0
 40
1.0
 40
1.0
 40
1.0
 40
2.0
 40
2.0
 40
2.0
 40
3.0
 40
3.0
 40
3.0
 40
4.0
 40
4.0
 40
4.0
 40
5.0
 40
5.0
 40
5.0
 40
6.0
 40
6.0
 40
6.0
 40
7.0
 40
7.0
 40
7.0
 40
8.0
 40
8.0
 40
8.0
 40
9.0
 40
9.0
 40
9.0
 40
10.0
 40
10.0
 40
10.0
 40
11.0
 40
11.0
 40
11.0
 40
12.0
 40
12.0
 40
12.0
 40
13.0
 40
13.0
 40
13.0
 40
14.0
 40
14.0
 40
14.0
 40
15.0
 40
15.0
 40
15.0
 40
16.0
 40
16.0
 40
16.0
 40
17.0
 40
17.0
 40
17.0
 40
18.0
 40
18.0
 40
18.0
 40
18.0
 10
1.586089240180121
 20
-3.832082112630208
 30
0.0
 10
1.586089240180121
 20
-3.871143764919704
 30
0.0
 10
1.584224277072483
 20
-3.895914713541667
 30
0.0
 10
1.580514695909288
 20
-3.90639411078559
 30
0.0
 10
1.576805114746094
 20
-3.916874355740017
 30
0.0
 10
1.568494160970052
 20
-3.922124226888021
 30
0.0
 10
1.555601331922743
 20
-3.922124226888021
 30
0.0
 10
1.544290330674913
 20
-3.922124226888021
 30
0.0
 10
1.536790635850694
 20
-3.91736094156901
 30
0.0
 10
1.5330810546875
 20
-3.907853868272569
 30
0.0
 10
1.529371473524306
 20
-3.898326449924045
 30
0.0
 10
1.52752685546875
 20
-3.876454671223958
 30
0.0
 10
1.52752685546875
 20
-3.842258029513889
 30
0.0
 10
1.52752685546875
 20
-3.842258029513889
 30
0.0
 10
1.52752685546875
 20
-3.254609849717882
 30
0.0
 10
1.52752685546875
 20
-3.254609849717882
 30
0.0
 10
1.52752685546875
 20
-3.254609849717882
 30
0.0
 10
1.323725382486979
 20
-3.254609849717882
 30
0.0
 10
1.323725382486979
 20
-3.254609849717882
 30
0.0
 10
1.323725382486979
 20
-3.254609849717882
 30
0.0
 10
1.323725382486979
 20
-3.718343098958333
 30
0.0
 10
1.323725382486979
 20
-3.718343098958333
 30
0.0
 10
1.323725382486979
 20
-3.806763543023003
 30
0.0
 10
1.325347052680121
 20
-3.864757961697048
 30
0.0
 10
1.328570048014323
 20
-3.892346700032552
 30
0.0
 10
1.331793043348524
 20
-3.919935438368055
 30
0.0
 10
1.342292785644531
 20
-3.946165296766493
 30
0.0
 10
1.360030280219184
 20
-3.971017625596788
 30
0.0
 10
1.377787272135417
 20
-3.995869106716579
 30
0.0
 10
1.404564751519097
 20
-4.016038682725695
 30
0.0
 10
1.440383063422309
 20
-4.031525505913629
 30
0.0
 10
1.476201375325521
 20
-4.047012329101562
 30
0.0
 10
1.517512851291233
 20
-4.054755316840278
 30
0.0
 10
1.564297993977865
 20
-4.054755316840278
 30
0.0
 10
1.606582641601562
 20
-4.054755316840278
 30
0.0
 10
1.643272399902344
 20
-4.048228793674045
 30
0.0
 10
1.674428304036458
 20
-4.035153706868489
 30
0.0
 10
1.705564710828993
 20
-4.022079467773438
 30
0.0
 10
1.730659484863281
 20
-4.002883063422309
 30
0.0
 10
1.749693976508246
 20
-3.977544148763021
 30
0.0
 10
1.768727620442708
 20
-3.952226426866319
 30
0.0
 10
1.780201382107205
 20
-3.927536858452691
 30
0.0
 10
1.784072875976562
 20
-3.903495788574219
 30
0.0
 10
1.78794436984592
 20
-3.879454718695746
 30
0.0
 10
1.789870368109809
 20
-3.837737189398871
 30
0.0
 10
1.789870368109809
 20
-3.77836439344618
 30
0.0
 10
1.789870368109809
 20
-3.77836439344618
 30
0.0
 10
1.789870368109809
 20
-3.254609849717882
 30
0.0
 10
1.789870368109809
 20
-3.254609849717882
 30
0.0
 10
1.789870368109809
 20
-3.254609849717882
 30
0.0
 10
1.586089240180121
 20
-3.254609849717882
 30
0.0
 10
1.586089240180121
 20
-3.254609849717882
 30
0.0
 10
1.586089240180121
 20
-3.254609849717882
 30
0.0
 10
1.586089240180121
 20
-3.832082112630208
 30
0.0
 10
1.586089240180121
 20
-3.832082112630208
 30
0.0
  0
POLYLINE
  5
83
330
1F
100
AcDbEntity
  8
Layer 1
370
     0
100
AcDb2dPolyline
 66
     1
 10
0.0
 20
0.0
 30
0.0
  0
VERTEX
  5
84
330
83
100
AcDbEntity
  8
Layer 1
370
     0
100
AcDbVertex
100
AcDb2dVertex
 10
2.153384738498264
 20
-3.60748291015625
 30
0.0
  0
VERTEX
  5
85
330
83
100
AcDbEntity
  8
Layer 1
370
     0
100
AcDbVertex
100
AcDb2dVertex
 10
2.039159138997396
 20
-3.254609849717882
 30
0.0
  0
VERTEX
  5
86
330
83
100
AcDbEntity
  8
Layer 1
370
     0
100
AcDbVertex
100
AcDb2dVertex
 10
1.868764241536458
 20
-3.254609849717882
 30
0.0
  0
VERTEX
  5
87
330
83
100
AcDbEntity
  8
Layer 1
370
     0
100
AcDbVertex
100
AcDb2dVertex
 10
1.868764241536458
 20
-4.038296169704861
 30
0.0
  0
VERTEX
  5
88
330
83
100
AcDbEntity
  8
Layer 1
370
     0
100
AcDbVertex
100
AcDb2dVertex
 10
2.039159138997396
 20
-4.038296169704861
 30
0.0
  0
VERTEX
  5
89
330
83
100
AcDbEntity
  8
Layer 1
370
     0
100
AcDbVertex
100
AcDb2dVertex
 10
2.039159138997396
 20
-3.682038201226128
 30
0.0
  0
VERTEX
  5
8A
330
83
100
AcDbEntity
  8
Layer 1
370
     0
100
AcDbVertex
100
AcDb2dVertex
 10
2.145155164930555
 20
-4.038296169704861
 30
0.0
  0
VERTEX
  5
8B
330
83
100
AcDbEntity
  8
Layer 1
370
     0
100
AcDbVertex
100
AcDb2dVertex
 10
2.323780483669705
 20
-4.038296169704861
 30
0.0
  0
VERTEX
  5
8C
330
83
100
AcDbEntity
  8
Layer 1
370
     0
100
AcDbVertex
100
AcDb2dVertex
 10
2.323780483669705
 20
-3.254609849717882
 30
0.0
  0
VERTEX
  5
8D
330
83
100
AcDbEntity
  8
Layer 1
370
     0
100
AcDbVertex
100
AcDb2dVertex
 10
2.153384738498264
 20
-3.254609849717882
 30
0.0
  0
VERTEX
  5
8E
330
83
100
AcDbEntity
  8
Layer 1
370
     0
100
AcDbVertex
100
AcDb2dVertex
 10
2.153384738498264
 20
-3.60748291015625
 30
0.0
  0
SEQEND
  5
8F
330
83
100
AcDbEntity
  8
Layer 1
370
     0
  0
SPLINE
  5
90
330
1F
100
AcDbEntity
  8
Layer 1
370
     0
100
AcDbSpline
210
0.0
220
0.0
230
1.0
 70
    11
 71
     3
 72
   110
 73
   106
 74
     0
 42
0.0000000001
 43
0.0000000001
 12
1.0
 22
0.0
 32
0.0
 13
1.0
 23
0.0
 33
0.0
 40
0.0
 40
0.0
 40
0.0
 40
0.0
 40
1.0
 40
1.0
 40
1.0
 40
2.0
 40
2.0
 40
2.0
 40
3.0
 40
3.0
 40
3.0
 40
4.0
 40
4.0
 40
4.0
 40
5.0
 40
5.0
 40
5.0
 40
6.0
 40
6.0
 40
6.0
 40
7.0
 40
7.0
 40
7.0
 40
8.0
 40
8.0
 40
8.0
 40
9.0
 40
9.0
 40
9.0
 40
10.0
 40
10.0
 40
10.0
 40
11.0
 40
11.0
 40
11.0
 40
12.0
 40
12.0
 40
12.0
 40
13.0
 40
13.0
 40
13.0
 40
14.0
 40
14.0
 40
14.0
 40
15.0
 40
15.0
 40
15.0
 40
16.0
 40
16.0
 40
16.0
 40
17.0
 40
17.0
 40
17.0
 40
18.0
 40
18.0
 40
18.0
 40
19.0
 40
19.0
 40
19.0
 40
20.0
 40
20.0
 40
20.0
 40
21.0
 40
21.0
 40
21.0
 40
22.0
 40
22.0
 40
22.0
 40
23.0
 40
23.0
 40
23.0
 40
24.0
 40
24.0
 40
24.0
 40
25.0
 40
25.0
 40
25.0
 40
26.0
 40
26.0
 40
26.0
 40
27.0
 40
27.0
 40
27.0
 40
28.0
 40
28.0
 40
28.0
 40
29.0
 40
29.0
 40
29.0
 40
30.0
 40
30.0
 40
30.0
 40
31.0
 40
31.0
 40
31.0
 40
32.0
 40
32.0
 40
32.0
 40
33.0
 40
33.0
 40
33.0
 40
34.0
 40
34.0
 40
34.0
 40
35.0
 40
35.0
 40
35.0
 40
35.0
 10
2.647564358181424
 20
-3.538339402940538
 30
0.0
 10
2.615921868218316
 20
-3.519649929470486
 30
0.0
 10
2.596725463867188
 20
-3.503676520453559
 30
0.0
 10
2.589975145128038
 20
-3.49043952094184
 30
0.0
 10
2.582901000976562
 20
-3.477202521430121
 30
0.0
 10
2.579353332519531
 20
-3.457499186197917
 30
0.0
 10
2.579353332519531
 20
-3.431350708007812
 30
0.0
 10
2.579353332519531
 20
-3.410998874240451
 30
0.0
 10
2.582516140407986
 20
-3.39581553141276
 30
0.0
 10
2.588799370659722
 20
-3.385802374945746
 30
0.0
 10
2.595083448621962
 20
-3.375788370768229
 30
0.0
 10
2.604367574055989
 20
-3.370781792534722
 30
0.0
 10
2.616631401909722
 20
-3.370781792534722
 30
0.0
 10
2.627922058105469
 20
-3.370781792534722
 30
0.0
 10
2.635989718967014
 20
-3.374510871039496
 30
0.0
 10
2.640834384494358
 20
-3.381930033365885
 30
0.0
 10
2.645679050021701
 20
-3.389349195692274
 30
0.0
 10
2.648091634114583
 20
-3.406600104437934
 30
0.0
 10
2.648091634114583
 20
-3.433721754286024
 30
0.0
 10
2.648091634114583
 20
-3.433721754286024
 30
0.0
 10
2.648091634114583
 20
-3.491797553168403
 30
0.0
 10
2.648091634114583
 20
-3.491797553168403
 30
0.0
 10
2.648091634114583
 20
-3.491797553168403
 30
0.0
 10
2.837359110514323
 20
-3.491797553168403
 30
0.0
 10
2.837359110514323
 20
-3.491797553168403
 30
0.0
 10
2.837359110514323
 20
-3.491797553168403
 30
0.0
 10
2.837359110514323
 20
-3.460823906792534
 30
0.0
 10
2.837359110514323
 20
-3.460823906792534
 30
0.0
 10
2.837359110514323
 20
-3.398551940917969
 30
0.0
 10
2.83131832546658
 20
-3.354422675238715
 30
0.0
 10
2.81921641031901
 20
-3.328436109754774
 30
0.0
 10
2.807115342881944
 20
-3.302469041612413
 30
0.0
 10
2.782425774468316
 20
-3.280921088324653
 30
0.0
 10
2.745147705078125
 20
-3.263812594943576
 30
0.0
 10
2.707869635687934
 20
-3.2467041015625
 30
0.0
 10
2.662767198350694
 20
-3.238149854871962
 30
0.0
 10
2.609860738118489
 20
-3.238149854871962
 30
0.0
 10
2.561454772949219
 20
-3.238149854871962
 30
0.0
 10
2.520142449273003
 20
-3.245994567871094
 30
0.0
 10
2.485945807562934
 20
-3.261644151475694
 30
0.0
 10
2.451728820800781
 20
-3.277292887369792
 30
0.0
 10
2.426958719889323
 20
-3.298982408311632
 30
0.0
 10
2.411633809407552
 20
-3.326733059353298
 30
0.0
 10
2.396308898925781
 20
-3.354504055447048
 30
0.0
 10
2.388646443684896
 20
-3.398390028211805
 30
0.0
 10
2.388646443684896
 20
-3.458411322699653
 30
0.0
 10
2.388646443684896
 20
-3.500027126736111
 30
0.0
 10
2.394038730197483
 20
-3.534244113498264
 30
0.0
 10
2.404863145616319
 20
-3.561022440592448
 30
0.0
 10
2.415667215983073
 20
-3.587820265028212
 30
0.0
 10
2.429309421115451
 20
-3.608779907226562
 30
0.0
 10
2.445769415961371
 20
-3.623942057291667
 30
0.0
 10
2.462209065755208
 20
-3.639125400119358
 30
0.0
 10
2.495777553982205
 20
-3.663490295410156
 30
0.0
 10
2.546454535590278
 20
-3.697038438585069
 30
0.0
 10
2.597110324435764
 20
-3.730282253689236
 30
0.0
 10
2.628895229763455
 20
-3.753999498155382
 30
0.0
 10
2.641807556152344
 20
-3.7681884765625
 30
0.0
 10
2.654396057128906
 20
-3.782398647732204
 30
0.0
 10
2.660679287380642
 20
-3.81256103515625
 30
0.0
 10
2.660679287380642
 20
-3.858718024359809
 30
0.0
 10
2.660679287380642
 20
-3.879698011610243
 30
0.0
 10
2.657375759548611
 20
-3.895508660210503
 30
0.0
 10
2.650767008463542
 20
-3.906150817871094
 30
0.0
 10
2.644138760036892
 20
-3.916792975531684
 30
0.0
 10
2.634064568413628
 20
-3.922124226888021
 30
0.0
 10
2.62050289577908
 20
-3.922124226888021
 30
0.0
 10
2.606942070855034
 20
-3.922124226888021
 30
0.0
 10
2.597516377766927
 20
-3.917928059895833
 30
0.0
 10
2.59218512641059
 20
-3.909536573621962
 30
0.0
 10
2.586853875054253
 20
-3.901144239637587
 30
0.0
 10
2.584197998046875
 20
-3.882272508409288
 30
0.0
 10
2.584197998046875
 20
-3.852900187174479
 30
0.0
 10
2.584197998046875
 20
-3.852900187174479
 30
0.0
 10
2.584197998046875
 20
-3.757546318901909
 30
0.0
 10
2.584197998046875
 20
-3.757546318901909
 30
0.0
 10
2.584197998046875
 20
-3.757546318901909
 30
0.0
 10
2.394930521647135
 20
-3.757546318901909
 30
0.0
 10
2.394930521647135
 20
-3.757546318901909
 30
0.0
 10
2.394930521647135
 20
-3.757546318901909
 30
0.0
 10
2.394930521647135
 20
-3.808851453993055
 30
0.0
 10
2.394930521647135
 20
-3.808851453993055
 30
0.0
 10
2.394930521647135
 20
-3.867596096462673
 30
0.0
 10
2.400910271538628
 20
-3.912921481662326
 30
0.0
 10
2.412850273980034
 20
-3.94486829969618
 30
0.0
 10
2.424789428710938
 20
-3.976815117730034
 30
0.0
 10
2.450026618109809
 20
-4.003126356336805
 30
0.0
 10
2.488601684570312
 20
-4.02378167046441
 30
0.0
 10
2.527156405978733
 20
-4.044417487250434
 30
0.0
 10
2.573718600802951
 20
-4.054755316840278
 30
0.0
 10
2.628246731228299
 20
-4.054755316840278
 30
0.0
 10
2.677930196126302
 20
-4.054755316840278
 30
0.0
 10
2.721511840820312
 20
-4.045795864529079
 30
0.0
 10
2.758951822916667
 20
-4.027897304958767
 30
0.0
 10
2.796371459960938
 20
-4.009977552625868
 30
0.0
 10
2.821628994411892
 20
-3.987801445855034
 30
0.0
 10
2.834703233506944
 20
-3.9613282945421
 30
0.0
 10
2.847757975260417
 20
-3.934874640570746
 30
0.0
 10
2.854305691189236
 20
-3.893725077311198
 30
0.0
 10
2.854305691189236
 20
-3.837899949815538
 30
0.0
 10
2.854305691189236
 20
-3.761093987358941
 30
0.0
 10
2.842508104112413
 20
-3.705430772569444
 30
0.0
 10
2.818973965115017
 20
-3.670909457736545
 30
0.0
 10
2.795399136013455
 20
-3.636368645562066
 30
0.0
 10
2.738276163736979
 20
-3.592198689778646
 30
0.0
 10
2.647564358181424
 20
-3.538339402940538
 30
0.0
  0
POLYLINE
  5
91
330
1F
100
AcDbEntity
  8
Layer 1
370
     0
100
AcDb2dPolyline
 66
     1
 10
0.0
 20
0.0
 30
0.0
  0
VERTEX
  5
92
330
91
100
AcDbEntity
  8
Layer 1
370
     0
100
AcDbVertex
100
AcDb2dVertex
 10
3.092931959364149
 20
-4.038296169704861
 30
0.0
  0
VERTEX
  5
93
330
91
100
AcDbEntity
  8
Layer 1
370
     0
100
AcDbVertex
100
AcDb2dVertex
 10
3.29671393500434
 20
-4.038296169704861
 30
0.0
  0
VERTEX
  5
94
330
91
100
AcDbEntity
  8
Layer 1
370
     0
100
AcDbVertex
100
AcDb2dVertex
 10
3.29671393500434
 20
-3.709140353732639
 30
0.0
  0
VERTEX
  5
95
330
91
100
AcDbEntity
  8
Layer 1
370
     0
100
AcDbVertex
100
AcDb2dVertex
 10
3.422574361165364
 20
-3.709140353732639
 30
0.0
  0
VERTEX
  5
96
330
91
100
AcDbEntity
  8
Layer 1
370
     0
100
AcDbVertex
100
AcDb2dVertex
 10
3.422574361165364
 20
-3.560049268934462
 30
0.0
  0
VERTEX
  5
97
330
91
100
AcDbEntity
  8
Layer 1
370
     0
100
AcDbVertex
100
AcDb2dVertex
 10
3.29671393500434
 20
-3.560049268934462
 30
0.0
  0
VERTEX
  5
98
330
91
100
AcDbEntity
  8
Layer 1
370
     0
100
AcDbVertex
100
AcDb2dVertex
 10
3.29671393500434
 20
-3.411444769965278
 30
0.0
  0
VERTEX
  5
99
330
91
100
AcDbEntity
  8
Layer 1
370
     0
100
AcDbVertex
100
AcDb2dVertex
 10
3.438061184353298
 20
-3.411444769965278
 30
0.0
  0
VERTEX
  5
9A
330
91
100
AcDbEntity
  8
Layer 1
370
     0
100
AcDbVertex
100
AcDb2dVertex
 10
3.438061184353298
 20
-3.254609849717882
 30
0.0
  0
VERTEX
  5
9B
330
91
100
AcDbEntity
  8
Layer 1
370
     0
100
AcDbVertex
100
AcDb2dVertex
 10
3.092931959364149
 20
-3.254609849717882
 30
0.0
  0
VERTEX
  5
9C
330
91
100
AcDbEntity
  8
Layer 1
370
     0
100
AcDbVertex
100
AcDb2dVertex
 10
3.092931959364149
 20
-4.038296169704861
 30
0.0
  0
SEQEND
  5
9D
330
91
100
AcDbEntity
  8
Layer 1
370
     0
  0
INSERT
  5
9F
330
1F
100
AcDbEntity
  8
Layer 1
100
AcDbBlockReference
  2
block 7
 10
0.0
 20
0.0
 30
0.0
  0
INSERT
  5
A5
330
1F
100
AcDbEntity
  8
Layer 1
100
AcDbBlockReference
  2
block 8
 10
0.0
 20
0.0
 30
0.0
  0
SPLINE
  5
AA
330
1F
100
AcDbEntity
  8
Layer 1
370
     0
100
AcDbSpline
210
0.0
220
0.0
230
1.0
 70
    11
 71
     3
 72
    47
 73
    43
 74
     0
 42
0.0000000001
 43
0.0000000001
 12
1.0
 22
0.0
 32
0.0
 13
1.0
 23
0.0
 33
0.0
 40
0.0
 40
0.0
 40
0.0
 40
0.0
 40
1.0
 40
1.0
 40
1.0
 40
2.0
 40
2.0
 40
2.0
 40
3.0
 40
3.0
 40
3.0
 40
4.0
 40
4.0
 40
4.0
 40
5.0
 40
5.0
 40
5.0
 40
6.0
 40
6.0
 40
6.0
 40
7.0
 40
7.0
 40
7.0
 40
8.0
 40
8.0
 40
8.0
 40
9.0
 40
9.0
 40
9.0
 40
10.0
 40
10.0
 40
10.0
 40
11.0
 40
11.0
 40
11.0
 40
12.0
 40
12.0
 40
12.0
 40
13.0
 40
13.0
 40
13.0
 40
14.0
 40
14.0
 40
14.0
 40
14.0
 10
4.879814995659722
 20
-3.620557149251302
 30
0.0
 10
4.879814995659722
 20
-3.620557149251302
 30
0.0
 10
4.85086907280816
 20
-3.421214633517795
 30
0.0
 10
4.85086907280816
 20
-3.421214633517795
 30
0.0
 10
4.842558119032118
 20
-3.35726081000434
 30
0.0
 10
4.834509955512153
 20
-3.301739162868923
 30
0.0
 10
4.826685587565104
 20
-3.254609849717882
 30
0.0
 10
4.826685587565104
 20
-3.254609849717882
 30
0.0
 10
4.563004387749566
 20
-3.254609849717882
 30
0.0
 10
4.563004387749566
 20
-3.254609849717882
 30
0.0
 10
4.563004387749566
 20
-3.254609849717882
 30
0.0
 10
4.563004387749566
 20
-4.038296169704861
 30
0.0
 10
4.563004387749566
 20
-4.038296169704861
 30
0.0
 10
4.563004387749566
 20
-4.038296169704861
 30
0.0
 10
4.741122775607638
 20
-4.038296169704861
 30
0.0
 10
4.741122775607638
 20
-4.038296169704861
 30
0.0
 10
4.741122775607638
 20
-4.038296169704861
 30
0.0
 10
4.741366068522135
 20
-3.521331787109375
 30
0.0
 10
4.741366068522135
 20
-3.521331787109375
 30
0.0
 10
4.741366068522135
 20
-3.521331787109375
 30
0.0
 10
4.816165500217013
 20
-4.038296169704861
 30
0.0
 10
4.816165500217013
 20
-4.038296169704861
 30
0.0
 10
4.816165500217013
 20
-4.038296169704861
 30
0.0
 10
4.942492167154947
 20
-4.038296169704861
 30
0.0
 10
4.942492167154947
 20
-4.038296169704861
 30
0.0
 10
4.942492167154947
 20
-4.038296169704861
 30
0.0
 10
5.013399759928385
 20
-3.509230719672309
 30
0.0
 10
5.013399759928385
 20
-3.509230719672309
 30
0.0
 10
5.013399759928385
 20
-3.509230719672309
 30
0.0
 10
5.013642205132379
 20
-4.038296169704861
 30
0.0
 10
5.013642205132379
 20
-4.038296169704861
 30
0.0
 10
5.013642205132379
 20
-4.038296169704861
 30
0.0
 10
5.191781785753038
 20
-4.038296169704861
 30
0.0
 10
5.191781785753038
 20
-4.038296169704861
 30
0.0
 10
5.191781785753038
 20
-4.038296169704861
 30
0.0
 10
5.191781785753038
 20
-3.254609849717882
 30
0.0
 10
5.191781785753038
 20
-3.254609849717882
 30
0.0
 10
5.191781785753038
 20
-3.254609849717882
 30
0.0
 10
4.926640828450521
 20
-3.254609849717882
 30
0.0
 10
4.926640828450521
 20
-3.254609849717882
 30
0.0
 10
4.926640828450521
 20
-3.254609849717882
 30
0.0
 10
4.879814995659722
 20
-3.620557149251302
 30
0.0
 10
4.879814995659722
 20
-3.620557149251302
 30
0.0
  0
SPLINE
  5
AB
330
1F
100
AcDbEntity
  8
Layer 1
370
     0
100
AcDbSpline
210
0.0
220
0.0
230
1.0
 70
    11
 71
     3
 72
    14
 73
    10
 74
     0
 42
0.0000000001
 43
0.0000000001
 12
1.0
 22
0.0
 32
0.0
 13
1.0
 23
0.0
 33
0.0
 40
0.0
 40
0.0
 40
0.0
 40
0.0
 40
1.0
 40
1.0
 40
1.0
 40
2.0
 40
2.0
 40
2.0
 40
3.0
 40
3.0
 40
3.0
 40
3.0
 10
1.532645331488715
 20
-2.232560899522569
 30
0.0
 10
1.532645331488715
 20
-2.232560899522569
 30
0.0
 10
1.53334469265408
 20
-2.232560899522569
 30
0.0
 10
1.53334469265408
 20
-2.232560899522569
 30
0.0
 10
1.53334469265408
 20
-2.232560899522569
 30
0.0
 10
1.53334469265408
 20
-2.211494445800781
 30
0.0
 10
1.53334469265408
 20
-2.211494445800781
 30
0.0
 10
1.53334469265408
 20
-2.212591383192274
 30
0.0
 10
1.528360154893663
 20
-2.232560899522569
 30
0.0
 10
1.532645331488715
 20
-2.232560899522569
 30
0.0
  0
HATCH
  5
AC
330
1F
100
AcDbEntity
  8
Layer 1
 62
   250
420
  1250067
100
AcDbHatch
 10
0.0
 20
0.0
 30
0.0
210
0.0
220
0.0
230
1.0
  2
SOLID
 70
     1
 71
     0
 91
       16
 92
        1
 93
        4
 72
     1
 10
1.372303432888455
 20
-1.847802903917101
 11
0.927808125813802
 21
-1.847802903917101
 72
     1
 10
0.927808125813802
 20
-1.847802903917101
 11
0.927808125813802
 21
-0.2938707139756944
 72
     1
 10
0.927808125813802
 20
-0.2938707139756944
 11
1.372303432888455
 21
-0.2938707139756944
 72
     1
 10
1.372303432888455
 20
-0.2938707139756944
 11
1.372303432888455
 21
-1.847802903917101
 97
        0
 92
        1
 93
        1
 72
     4
 94
        3
 73
     0
 74
     1
 95
      101
 96
       97
 40
0.0
 40
0.0
 40
0.0
 40
0.0
 40
1.0
 40
1.0
 40
1.0
 40
2.0
 40
2.0
 40
2.0
 40
3.0
 40
3.0
 40
3.0
 40
4.0
 40
4.0
 40
4.0
 40
5.0
 40
5.0
 40
5.0
 40
6.0
 40
6.0
 40
6.0
 40
7.0
 40
7.0
 40
7.0
 40
8.0
 40
8.0
 40
8.0
 40
9.0
 40
9.0
 40
9.0
 40
10.0
 40
10.0
 40
10.0
 40
11.0
 40
11.0
 40
11.0
 40
12.0
 40
12.0
 40
12.0
 40
13.0
 40
13.0
 40
13.0
 40
14.0
 40
14.0
 40
14.0
 40
15.0
 40
15.0
 40
15.0
 40
16.0
 40
16.0
 40
16.0
 40
17.0
 40
17.0
 40
17.0
 40
18.0
 40
18.0
 40
18.0
 40
19.0
 40
19.0
 40
19.0
 40
20.0
 40
20.0
 40
20.0
 40
21.0
 40
21.0
 40
21.0
 40
22.0
 40
22.0
 40
22.0
 40
23.0
 40
23.0
 40
23.0
 40
24.0
 40
24.0
 40
24.0
 40
25.0
 40
25.0
 40
25.0
 40
26.0
 40
26.0
 40
26.0
 40
27.0
 40
27.0
 40
27.0
 40
28.0
 40
28.0
 40
28.0
 40
29.0
 40
29.0
 40
29.0
 40
30.0
 40
30.0
 40
30.0
 40
31.0
 40
31.0
 40
31.0
 40
32.0
 40
32.0
 40
32.0
 40
32.0
 10
2.744833204481337
 20
-0.3341683281792535
 10
2.658946567111545
 20
-0.2855597601996527
 10
2.550913492838542
 20
-0.2612347073025174
 10
2.420705159505208
 20
-0.2612347073025174
 10
2.288367377387153
 20
-0.2612347073025174
 10
2.180507236056858
 20
-0.2892286512586805
 10
2.097103542751736
 20
-0.3452156914605035
 10
2.013689676920573
 20
-0.4012239244249132
 10
1.963184780544705
 20
-0.4627863566080729
 10
1.945589701334635
 20
-0.5299835205078125
 10
1.927994622124566
 20
-0.5971603393554688
 10
1.919197082519531
 20
-0.705000983344184
 10
1.919197082519531
 20
-0.8534435696072048
 10
1.919197082519531
 20
-0.8534435696072048
 10
1.919197082519531
 20
-1.315108405219184
 10
1.919197082519531
 20
-1.315108405219184
 10
1.919197082519531
 20
-1.421975877549913
 10
1.923423767089844
 20
-1.502126057942708
 10
1.931866963704427
 20
-1.55553944905599
 10
1.940319485134548
 20
-1.608973185221354
 10
1.961452060275608
 20
-1.66001468234592
 10
1.995262993706597
 20
-1.708624098036024
 10
2.029084947374132
 20
-1.757273356119792
 10
2.078555636935764
 20
-1.798058403862847
 10
2.14371575249566
 20
-1.830997890896267
 10
2.208865695529514
 20
-1.863958570692274
 10
2.278779771592882
 20
-1.880438062879774
 10
2.35345713297526
 20
-1.880438062879774
 10
2.416143629286024
 20
-1.880438062879774
 10
2.470550537109375
 20
-1.868437872992621
 10
2.516696506076389
 20
-1.844437493218316
 10
2.562822977701823
 20
-1.820457458496094
 10
2.601042853461371
 20
-1.784456888834635
 10
2.631327311197917
 20
-1.736455281575521
 10
2.631327311197917
 20
-1.736455281575521
 10
2.67244635687934
 20
-1.847802903917101
 10
2.67244635687934
 20
-1.847802903917101
 10
2.67244635687934
 20
-1.847802903917101
 10
2.951766967773438
 20
-1.847802903917101
 10
2.951766967773438
 20
-1.847802903917101
 10
2.951766967773438
 20
-1.847802903917101
 10
2.951766967773438
 20
-1.013723585340712
 10
2.951766967773438
 20
-1.013723585340712
 10
2.951766967773438
 20
-1.013723585340712
 10
2.431255764431424
 20
-1.013723585340712
 10
2.431255764431424
 20
-1.013723585340712
 10
2.431255764431424
 20
-1.013723585340712
 10
2.431255764431424
 20
-1.249837239583333
 10
2.431255764431424
 20
-1.249837239583333
 10
2.431255764431424
 20
-1.249837239583333
 10
2.521004570855034
 20
-1.249837239583333
 10
2.521004570855034
 20
-1.249837239583333
 10
2.521004570855034
 20
-1.249837239583333
 10
2.521004570855034
 20
-1.434117635091146
 10
2.521004570855034
 20
-1.434117635091146
 10
2.521004570855034
 20
-1.506444295247396
 10
2.515196906195746
 20
-1.555052863226996
 10
2.50358157687717
 20
-1.580006069607205
 10
2.491966247558594
 20
-1.604979621039496
 10
2.469962226019965
 20
-1.617446051703559
 10
2.437590705023871
 20
-1.617446051703559
 10
2.408035278320312
 20
-1.617446051703559
 10
2.388322618272569
 20
-1.606419033474392
 10
2.378470526801215
 20
-1.584343804253472
 10
2.368609110514323
 20
-1.562249077690972
 10
2.363693237304688
 20
-1.516356574164496
 10
2.363693237304688
 20
-1.446604410807292
 10
2.363693237304688
 20
-1.446604410807292
 10
2.363693237304688
 20
-0.7008251614040798
 10
2.363693237304688
 20
-0.7008251614040798
 10
2.363693237304688
 20
-0.6214853922526041
 10
2.368609110514323
 20
-0.5722071329752604
 10
2.378470526801215
 20
-0.5530107286241319
 10
2.388322618272569
 20
-0.5338151719835069
 10
2.406971401638455
 20
-0.5242267184787326
 10
2.434427897135417
 20
-0.5242267184787326
 10
2.466100904676649
 20
-0.5242267184787326
 10
2.486158582899305
 20
-0.535416497124566
 10
2.49461195203993
 20
-0.5578155517578125
 10
2.50305430094401
 20
-0.580214606391059
 10
2.507280985514323
 20
-0.6358981662326388
 10
2.507280985514323
 20
-0.7248255411783854
 10
2.507280985514323
 20
-0.7248255411783854
 10
2.507280985514323
 20
-0.8659100002712673
 10
2.507280985514323
 20
-0.8659100002712673
 10
2.507280985514323
 20
-0.8659100002712673
 10
2.951766967773438
 20
-0.8659100002712673
 10
2.951766967773438
 20
-0.8659100002712673
 10
2.951766967773438
 20
-0.8659100002712673
 10
2.951766967773438
 20
-0.7987323337131076
 10
2.951766967773438
 20
-0.7987323337131076
 10
2.951766967773438
 20
-0.6714121500651041
 10
2.938732571072049
 20
-0.5742950439453125
 10
2.912705315483941
 20
-0.5074225531684028
 10
2.88665771484375
 20
-0.4405695597330729
 10
2.830700344509549
 20
-0.3828184339735243
 10
2.744833204481337
 20
-0.3341683281792535
 97
        0
 97
        0
 92
        1
 93
        1
 72
     4
 94
        3
 73
     0
 74
     1
 95
       59
 96
       55
 40
0.0
 40
0.0
 40
0.0
 40
0.0
 40
1.0
 40
1.0
 40
1.0
 40
2.0
 40
2.0
 40
2.0
 40
3.0
 40
3.0
 40
3.0
 40
4.0
 40
4.0
 40
4.0
 40
5.0
 40
5.0
 40
5.0
 40
6.0
 40
6.0
 40
6.0
 40
7.0
 40
7.0
 40
7.0
 40
8.0
 40
8.0
 40
8.0
 40
9.0
 40
9.0
 40
9.0
 40
10.0
 40
10.0
 40
10.0
 40
11.0
 40
11.0
 40
11.0
 40
12.0
 40
12.0
 40
12.0
 40
13.0
 40
13.0
 40
13.0
 40
14.0
 40
14.0
 40
14.0
 40
15.0
 40
15.0
 40
15.0
 40
16.0
 40
16.0
 40
16.0
 40
17.0
 40
17.0
 40
17.0
 40
18.0
 40
18.0
 40
18.0
 40
18.0
 10
3.123854743109809
 20
-1.539708455403646
 10
3.115412394205729
 20
-1.475733439127604
 10
3.111185709635417
 20
-1.363738165961371
 10
3.111185709635417
 20
-1.203761630588108
 10
3.111185709635417
 20
-1.203761630588108
 10
3.111185709635417
 20
-0.9378907945421007
 10
3.111185709635417
 20
-0.9378907945421007
 10
3.111185709635417
 20
-0.7817866007486979
 10
3.115230136447483
 20
-0.6712298923068576
 10
3.123328314887153
 20
-0.6062825520833333
 10
3.131416320800781
 20
-0.5413555569118923
 10
3.156754387749566
 20
-0.4819827609592013
 10
3.19934336344401
 20
-0.4282446967230902
 10
3.241922166612413
 20
-0.3744871351453993
 10
3.299470689561632
 20
-0.3332155015733507
 10
3.371968587239583
 20
-0.3044314914279514
 10
3.444456312391493
 20
-0.2756271362304688
 10
3.528914557562934
 20
-0.2612347073025174
 10
3.625362820095486
 20
-0.2612347073025174
 10
3.716854519314236
 20
-0.2612347073025174
 10
3.799041748046875
 20
-0.2748362223307291
 10
3.871884663899739
 20
-0.3020189073350694
 10
3.944737752278646
 20
-0.3292227851019965
 10
4.003330654568142
 20
-0.3700273301866319
 10
4.047672695583767
 20
-0.424393547905816
 10
4.092024909125434
 20
-0.4788004557291666
 10
4.118417527940538
 20
-0.5379901462131076
 10
4.126859876844618
 20
-0.6019651624891492
 10
4.135312398274739
 20
-0.6659596761067708
 10
4.13952891031901
 20
-0.7779346042209201
 10
4.13952891031901
 20
-0.9378907945421007
 10
4.13952891031901
 20
-0.9378907945421007
 10
4.13952891031901
 20
-1.203761630588108
 10
4.13952891031901
 20
-1.203761630588108
 10
4.13952891031901
 20
-1.359906514485677
 10
4.135475158691406
 20
-1.470442877875434
 10
4.127387152777778
 20
-1.535390218098958
 10
4.119288974338107
 20
-1.600337558322483
 10
4.09395005967882
 20
-1.65967051188151
 10
4.05137210422092
 20
-1.713428073459201
 10
4.008772956000434
 20
-1.767185635036892
 10
3.951234605577257
 20
-1.808457268608941
 10
3.878746880425347
 20
-1.83724127875434
 10
3.806248135036892
 20
-1.866046481662326
 10
3.721780565049913
 20
-1.880438062879774
 10
3.625362820095486
 20
-1.880438062879774
 10
3.533850775824653
 20
-1.880438062879774
 10
3.451683044433594
 20
-1.866836547851562
 10
3.378829956054688
 20
-1.839653862847222
 10
3.305977715386284
 20
-1.812450832790798
 10
3.247384813096788
 20
-1.771665785047743
 10
3.203042772081163
 20
-1.717258877224392
 10
3.158700731065538
 20
-1.662893507215712
 10
3.132308112250434
 20
-1.603702969021267
 10
3.123854743109809
 20
-1.539708455403646
 97
        0
 97
        0
 92
        1
 93
        1
 72
     4
 94
        3
 73
     0
 74
     1
 95
       35
 96
       31
 40
0.0
 40
0.0
 40
0.0
 40
0.0
 40
1.0
 40
1.0
 40
1.0
 40
2.0
 40
2.0
 40
2.0
 40
3.0
 40
3.0
 40
3.0
 40
4.0
 40
4.0
 40
4.0
 40
5.0
 40
5.0
 40
5.0
 40
6.0
 40
6.0
 40
6.0
 40
7.0
 40
7.0
 40
7.0
 40
8.0
 40
8.0
 40
8.0
 40
9.0
 40
9.0
 40
9.0
 40
10.0
 40
10.0
 40
10.0
 40
10.0
 10
3.555681864420573
 20
-1.418773227267795
 10
3.555681864420573
 20
-1.508997599283854
 10
3.559716118706597
 20
-1.564661661783854
 10
3.567814297146267
 20
-1.585783216688368
 10
3.575902303059896
 20
-1.606885274251302
 10
3.594743516710069
 20
-1.617446051703559
 10
3.624308268229167
 20
-1.617446051703559
 10
3.654562208387587
 20
-1.617446051703559
 10
3.673921373155382
 20
-1.605304294162326
 10
3.682373894585503
 20
-1.580979241265191
 10
3.690817091200087
 20
-1.556654188368055
 10
3.695042928059896
 20
-1.498761494954427
 10
3.695042928059896
 20
-1.407239278157552
 10
3.695042928059896
 20
-1.407239278157552
 10
3.695042928059896
 20
-0.693142361111111
 10
3.695042928059896
 20
-0.693142361111111
 10
3.695042928059896
 20
-0.6208572387695312
 10
3.690633985731337
 20
-0.5746197170681423
 10
3.681846618652344
 20
-0.5544501410590278
 10
3.673038906521267
 20
-0.5343009101019965
 10
3.654917399088542
 20
-0.5242267184787326
 10
3.627471076117621
 20
-0.5242267184787326
 10
3.604240417480469
 20
-0.5242267184787326
 10
3.586463080512153
 20
-0.532375759548611
 10
3.574148390028212
 20
-0.5486933390299479
 10
3.561834547254774
 20
-0.5650117662217882
 10
3.555681864420573
 20
-0.6131744384765625
 10
3.555681864420573
 20
-0.693142361111111
 10
3.555681864420573
 20
-0.693142361111111
 10
3.555681864420573
 20
-1.418773227267795
 10
3.555681864420573
 20
-1.418773227267795
 97
        0
 97
        0
 92
        1
 93
        8
 72
     1
 10
4.229277716742621
 20
-0.2938707139756944
 11
4.229277716742621
 21
-0.6048431396484375
 72
     1
 10
4.229277716742621
 20
-0.6048431396484375
 11
4.492168850368923
 21
-0.6048431396484375
 72
     1
 10
4.492168850368923
 20
-0.6048431396484375
 11
4.492168850368923
 21
-1.847802903917101
 72
     1
 10
4.492168850368923
 20
-1.847802903917101
 11
4.936665005154079
 21
-1.847802903917101
 72
     1
 10
4.936665005154079
 20
-1.847802903917101
 11
4.936665005154079
 21
-0.6048431396484375
 72
     1
 10
4.936665005154079
 20
-0.6048431396484375
 11
5.200609842936197
 21
-0.6048431396484375
 72
     1
 10
5.200609842936197
 20
-0.6048431396484375
 11
5.200609842936197
 21
-0.2938707139756944
 72
     1
 10
5.200609842936197
 20
-0.2938707139756944
 11
4.229277716742621
 21
-0.2938707139756944
 97
        0
 92
        1
 93
        1
 72
     4
 94
        3
 73
     0
 74
     1
 95
      101
 96
       97
 40
0.0
 40
0.0
 40
0.0
 40
0.0
 40
1.0
 40
1.0
 40
1.0
 40
2.0
 40
2.0
 40
2.0
 40
3.0
 40
3.0
 40
3.0
 40
4.0
 40
4.0
 40
4.0
 40
5.0
 40
5.0
 40
5.0
 40
6.0
 40
6.0
 40
6.0
 40
7.0
 40
7.0
 40
7.0
 40
8.0
 40
8.0
 40
8.0
 40
9.0
 40
9.0
 40
9.0
 40
10.0
 40
10.0
 40
10.0
 40
11.0
 40
11.0
 40
11.0
 40
12.0
 40
12.0
 40
12.0
 40
13.0
 40
13.0
 40
13.0
 40
14.0
 40
14.0
 40
14.0
 40
15.0
 40
15.0
 40
15.0
 40
16.0
 40
16.0
 40
16.0
 40
17.0
 40
17.0
 40
17.0
 40
18.0
 40
18.0
 40
18.0
 40
19.0
 40
19.0
 40
19.0
 40
20.0
 40
20.0
 40
20.0
 40
21.0
 40
21.0
 40
21.0
 40
22.0
 40
22.0
 40
22.0
 40
23.0
 40
23.0
 40
23.0
 40
24.0
 40
24.0
 40
24.0
 40
25.0
 40
25.0
 40
25.0
 40
26.0
 40
26.0
 40
26.0
 40
27.0
 40
27.0
 40
27.0
 40
28.0
 40
28.0
 40
28.0
 40
29.0
 40
29.0
 40
29.0
 40
30.0
 40
30.0
 40
30.0
 40
31.0
 40
31.0
 40
31.0
 40
32.0
 40
32.0
 40
32.0
 40
32.0
 10
1.152863396538628
 20
-3.274941338433159
 10
1.113477071126302
 20
-3.250434027777778
 10
1.063955518934462
 20
-3.238149854871962
 10
1.004258897569444
 20
-3.238149854871962
 10
0.9435882568359375
 20
-3.238149854871962
 10
0.8941277398003472
 20
-3.252278645833333
 10
0.8558976915147569
 20
-3.280515882703993
 10
0.8176464504665798
 20
-3.308753119574653
 10
0.7944971720377604
 20
-3.339808146158854
 10
0.7864295111762152
 20
-3.373700459798177
 10
0.7783618503146701
 20
-3.407572428385417
 10
0.7743284437391492
 20
-3.461958991156684
 10
0.7743284437391492
 20
-3.536818610297309
 10
0.7743284437391492
 20
-3.536818610297309
 10
0.7743284437391492
 20
-3.769648234049479
 10
0.7743284437391492
 20
-3.769648234049479
 10
0.7743284437391492
 20
-3.823548210991753
 10
0.776273939344618
 20
-3.863967895507812
 10
0.7801454332139757
 20
-3.890907287597656
 10
0.7840177747938367
 20
-3.917847527398003
 10
0.7937071058485242
 20
-3.943590799967448
 10
0.8091939290364583
 20
-3.968098110622829
 10
0.8247010972764757
 20
-3.992646111382378
 10
0.8473832872178819
 20
-4.01320054796007
 10
0.8772625393337673
 20
-4.029822455512153
 10
0.9071417914496527
 20
-4.046444363064236
 10
0.9391894870334201
 20
-4.054755316840278
 10
0.9734268188476562
 20
-4.054755316840278
 10
1.002170986599392
 20
-4.054755316840278
 10
1.027103847927517
 20
-4.048695034450954
 10
1.048266092936198
 20
-4.036593119303385
 10
1.069408840603299
 20
-4.024491204155816
 10
1.086942884657118
 20
-4.006349351671007
 10
1.100828382703993
 20
-3.982146369086371
 10
1.100828382703993
 20
-3.982146369086371
 10
1.119659423828125
 20
-4.038296169704861
 10
1.119659423828125
 20
-4.038296169704861
 10
1.119659423828125
 20
-4.038296169704861
 10
1.247729831271701
 20
-4.038296169704861
 10
1.247729831271701
 20
-4.038296169704861
 10
1.247729831271701
 20
-4.038296169704861
 10
1.247729831271701
 20
-3.617657979329427
 10
1.247729831271701
 20
-3.617657979329427
 10
1.247729831271701
 20
-3.617657979329427
 10
1.009103563096788
 20
-3.617657979329427
 10
1.009103563096788
 20
-3.617657979329427
 10
1.009103563096788
 20
-3.617657979329427
 10
1.009103563096788
 20
-3.736728244357639
 10
1.009103563096788
 20
-3.736728244357639
 10
1.009103563096788
 20
-3.736728244357639
 10
1.050232781304253
 20
-3.736728244357639
 10
1.050232781304253
 20
-3.736728244357639
 10
1.050232781304253
 20
-3.736728244357639
 10
1.050232781304253
 20
-3.829669528537326
 10
1.050232781304253
 20
-3.829669528537326
 10
1.050232781304253
 20
-3.866136338975694
 10
1.047576904296875
 20
-3.890663994683159
 10
1.042245652940538
 20
-3.903252495659722
 10
1.036934746636285
 20
-3.915840148925781
 10
1.026840209960938
 20
-3.922124226888021
 10
1.01200188530816
 20
-3.922124226888021
 10
0.9984410603841145
 20
-3.922124226888021
 10
0.9894002278645833
 20
-3.916549682617188
 10
0.9848997328016492
 20
-3.905421786838108
 10
0.980359395345052
 20
-3.894293043348524
 10
0.9781095716688367
 20
-3.871143764919704
 10
0.9781095716688367
 20
-3.835953606499566
 10
0.9781095716688367
 20
-3.835953606499566
 10
0.9781095716688367
 20
-3.459850735134548
 10
0.9781095716688367
 20
-3.459850735134548
 10
0.9781095716688367
 20
-3.419836256239149
 10
0.980359395345052
 20
-3.394984775119358
 10
0.9848997328016492
 20
-3.385315789116753
 10
0.9894002278645833
 20
-3.375626458062066
 10
0.9979544745551214
 20
-3.370781792534722
 10
1.010542975531684
 20
-3.370781792534722
 10
1.025076972113715
 20
-3.370781792534722
 10
1.034259372287326
 20
-3.376436869303385
 10
1.038130866156684
 20
-3.387727525499132
 10
1.042002360026042
 20
-3.399038526746962
 10
1.043948703342014
 20
-3.427113850911458
 10
1.043948703342014
 20
-3.471952650282118
 10
1.043948703342014
 20
-3.471952650282118
 10
1.043948703342014
 20
-3.543102688259548
 10
1.043948703342014
 20
-3.543102688259548
 10
1.043948703342014
 20
-3.543102688259548
 10
1.247729831271701
 20
-3.543102688259548
 10
1.247729831271701
 20
-3.543102688259548
 10
1.247729831271701
 20
-3.543102688259548
 10
1.247729831271701
 20
-3.509230719672309
 10
1.247729831271701
 20
-3.509230719672309
 10
1.247729831271701
 20
-3.445012410481771
 10
1.241750081380208
 20
-3.396038479275173
 10
1.229831271701389
 20
-3.362308078342014
 10
1.217871771918403
 20
-3.328598022460938
 10
1.192229376898871
 20
-3.299468994140625
 10
1.152863396538628
 20
-3.274941338433159
 97
        0
 97
        0
 92
        1
 93
        1
 72
     4
 94
        3
 73
     0
 74
     1
 95
       59
 96
       55
 40
0.0
 40
0.0
 40
0.0
 40
0.0
 40
1.0
 40
1.0
 40
1.0
 40
2.0
 40
2.0
 40
2.0
 40
3.0
 40
3.0
 40
3.0
 40
4.0
 40
4.0
 40
4.0
 40
5.0
 40
5.0
 40
5.0
 40
6.0
 40
6.0
 40
6.0
 40
7.0
 40
7.0
 40
7.0
 40
8.0
 40
8.0
 40
8.0
 40
9.0
 40
9.0
 40
9.0
 40
10.0
 40
10.0
 40
10.0
 40
11.0
 40
11.0
 40
11.0
 40
12.0
 40
12.0
 40
12.0
 40
13.0
 40
13.0
 40
13.0
 40
14.0
 40
14.0
 40
14.0
 40
15.0
 40
15.0
 40
15.0
 40
16.0
 40
16.0
 40
16.0
 40
17.0
 40
17.0
 40
17.0
 40
18.0
 40
18.0
 40
18.0
 40
18.0
 10
1.586089240180121
 20
-3.832082112630208
 10
1.586089240180121
 20
-3.871143764919704
 10
1.584224277072483
 20
-3.895914713541667
 10
1.580514695909288
 20
-3.90639411078559
 10
1.576805114746094
 20
-3.916874355740017
 10
1.568494160970052
 20
-3.922124226888021
 10
1.555601331922743
 20
-3.922124226888021
 10
1.544290330674913
 20
-3.922124226888021
 10
1.536790635850694
 20
-3.91736094156901
 10
1.5330810546875
 20
-3.907853868272569
 10
1.529371473524306
 20
-3.898326449924045
 10
1.52752685546875
 20
-3.876454671223958
 10
1.52752685546875
 20
-3.842258029513889
 10
1.52752685546875
 20
-3.842258029513889
 10
1.52752685546875
 20
-3.254609849717882
 10
1.52752685546875
 20
-3.254609849717882
 10
1.52752685546875
 20
-3.254609849717882
 10
1.323725382486979
 20
-3.254609849717882
 10
1.323725382486979
 20
-3.254609849717882
 10
1.323725382486979
 20
-3.254609849717882
 10
1.323725382486979
 20
-3.718343098958333
 10
1.323725382486979
 20
-3.718343098958333
 10
1.323725382486979
 20
-3.806763543023003
 10
1.325347052680121
 20
-3.864757961697048
 10
1.328570048014323
 20
-3.892346700032552
 10
1.331793043348524
 20
-3.919935438368055
 10
1.342292785644531
 20
-3.946165296766493
 10
1.360030280219184
 20
-3.971017625596788
 10
1.377787272135417
 20
-3.995869106716579
 10
1.404564751519097
 20
-4.016038682725695
 10
1.440383063422309
 20
-4.031525505913629
 10
1.476201375325521
 20
-4.047012329101562
 10
1.517512851291233
 20
-4.054755316840278
 10
1.564297993977865
 20
-4.054755316840278
 10
1.606582641601562
 20
-4.054755316840278
 10
1.643272399902344
 20
-4.048228793674045
 10
1.674428304036458
 20
-4.035153706868489
 10
1.705564710828993
 20
-4.022079467773438
 10
1.730659484863281
 20
-4.002883063422309
 10
1.749693976508246
 20
-3.977544148763021
 10
1.768727620442708
 20
-3.952226426866319
 10
1.780201382107205
 20
-3.927536858452691
 10
1.784072875976562
 20
-3.903495788574219
 10
1.78794436984592
 20
-3.879454718695746
 10
1.789870368109809
 20
-3.837737189398871
 10
1.789870368109809
 20
-3.77836439344618
 10
1.789870368109809
 20
-3.77836439344618
 10
1.789870368109809
 20
-3.254609849717882
 10
1.789870368109809
 20
-3.254609849717882
 10
1.789870368109809
 20
-3.254609849717882
 10
1.586089240180121
 20
-3.254609849717882
 10
1.586089240180121
 20
-3.254609849717882
 10
1.586089240180121
 20
-3.254609849717882
 10
1.586089240180121
 20
-3.832082112630208
 10
1.586089240180121
 20
-3.832082112630208
 97
        0
 97
        0
 92
        1
 93
       10
 72
     1
 10
2.153384738498264
 20
-3.60748291015625
 11
2.039159138997396
 21
-3.254609849717882
 72
     1
 10
2.039159138997396
 20
-3.254609849717882
 11
1.868764241536458
 21
-3.254609849717882
 72
     1
 10
1.868764241536458
 20
-3.254609849717882
 11
1.868764241536458
 21
-4.038296169704861
 72
     1
 10
1.868764241536458
 20
-4.038296169704861
 11
2.039159138997396
 21
-4.038296169704861
 72
     1
 10
2.039159138997396
 20
-4.038296169704861
 11
2.039159138997396
 21
-3.682038201226128
 72
     1
 10
2.039159138997396
 20
-3.682038201226128
 11
2.145155164930555
 21
-4.038296169704861
 72
     1
 10
2.145155164930555
 20
-4.038296169704861
 11
2.323780483669705
 21
-4.038296169704861
 72
     1
 10
2.323780483669705
 20
-4.038296169704861
 11
2.323780483669705
 21
-3.254609849717882
 72
     1
 10
2.323780483669705
 20
-3.254609849717882
 11
2.153384738498264
 21
-3.254609849717882
 72
     1
 10
2.153384738498264
 20
-3.254609849717882
 11
2.153384738498264
 21
-3.60748291015625
 97
        0
 92
        1
 93
        1
 72
     4
 94
        3
 73
     0
 74
     1
 95
      110
 96
      106
 40
0.0
 40
0.0
 40
0.0
 40
0.0
 40
1.0
 40
1.0
 40
1.0
 40
2.0
 40
2.0
 40
2.0
 40
3.0
 40
3.0
 40
3.0
 40
4.0
 40
4.0
 40
4.0
 40
5.0
 40
5.0
 40
5.0
 40
6.0
 40
6.0
 40
6.0
 40
7.0
 40
7.0
 40
7.0
 40
8.0
 40
8.0
 40
8.0
 40
9.0
 40
9.0
 40
9.0
 40
10.0
 40
10.0
 40
10.0
 40
11.0
 40
11.0
 40
11.0
 40
12.0
 40
12.0
 40
12.0
 40
13.0
 40
13.0
 40
13.0
 40
14.0
 40
14.0
 40
14.0
 40
15.0
 40
15.0
 40
15.0
 40
16.0
 40
16.0
 40
16.0
 40
17.0
 40
17.0
 40
17.0
 40
18.0
 40
18.0
 40
18.0
 40
19.0
 40
19.0
 40
19.0
 40
20.0
 40
20.0
 40
20.0
 40
21.0
 40
21.0
 40
21.0
 40
22.0
 40
22.0
 40
22.0
 40
23.0
 40
23.0
 40
23.0
 40
24.0
 40
24.0
 40
24.0
 40
25.0
 40
25.0
 40
25.0
 40
26.0
 40
26.0
 40
26.0
 40
27.0
 40
27.0
 40
27.0
 40
28.0
 40
28.0
 40
28.0
 40
29.0
 40
29.0
 40
29.0
 40
30.0
 40
30.0
 40
30.0
 40
31.0
 40
31.0
 40
31.0
 40
32.0
 40
32.0
 40
32.0
 40
33.0
 40
33.0
 40
33.0
 40
34.0
 40
34.0
 40
34.0
 40
35.0
 40
35.0
 40
35.0
 40
35.0
 10
2.647564358181424
 20
-3.538339402940538
 10
2.615921868218316
 20
-3.519649929470486
 10
2.596725463867188
 20
-3.503676520453559
 10
2.589975145128038
 20
-3.49043952094184
 10
2.582901000976562
 20
-3.477202521430121
 10
2.579353332519531
 20
-3.457499186197917
 10
2.579353332519531
 20
-3.431350708007812
 10
2.579353332519531
 20
-3.410998874240451
 10
2.582516140407986
 20
-3.39581553141276
 10
2.588799370659722
 20
-3.385802374945746
 10
2.595083448621962
 20
-3.375788370768229
 10
2.604367574055989
 20
-3.370781792534722
 10
2.616631401909722
 20
-3.370781792534722
 10
2.627922058105469
 20
-3.370781792534722
 10
2.635989718967014
 20
-3.374510871039496
 10
2.640834384494358
 20
-3.381930033365885
 10
2.645679050021701
 20
-3.389349195692274
 10
2.648091634114583
 20
-3.406600104437934
 10
2.648091634114583
 20
-3.433721754286024
 10
2.648091634114583
 20
-3.433721754286024
 10
2.648091634114583
 20
-3.491797553168403
 10
2.648091634114583
 20
-3.491797553168403
 10
2.648091634114583
 20
-3.491797553168403
 10
2.837359110514323
 20
-3.491797553168403
 10
2.837359110514323
 20
-3.491797553168403
 10
2.837359110514323
 20
-3.491797553168403
 10
2.837359110514323
 20
-3.460823906792534
 10
2.837359110514323
 20
-3.460823906792534
 10
2.837359110514323
 20
-3.398551940917969
 10
2.83131832546658
 20
-3.354422675238715
 10
2.81921641031901
 20
-3.328436109754774
 10
2.807115342881944
 20
-3.302469041612413
 10
2.782425774468316
 20
-3.280921088324653
 10
2.745147705078125
 20
-3.263812594943576
 10
2.707869635687934
 20
-3.2467041015625
 10
2.662767198350694
 20
-3.238149854871962
 10
2.609860738118489
 20
-3.238149854871962
 10
2.561454772949219
 20
-3.238149854871962
 10
2.520142449273003
 20
-3.245994567871094
 10
2.485945807562934
 20
-3.261644151475694
 10
2.451728820800781
 20
-3.277292887369792
 10
2.426958719889323
 20
-3.298982408311632
 10
2.411633809407552
 20
-3.326733059353298
 10
2.396308898925781
 20
-3.354504055447048
 10
2.388646443684896
 20
-3.398390028211805
 10
2.388646443684896
 20
-3.458411322699653
 10
2.388646443684896
 20
-3.500027126736111
 10
2.394038730197483
 20
-3.534244113498264
 10
2.404863145616319
 20
-3.561022440592448
 10
2.415667215983073
 20
-3.587820265028212
 10
2.429309421115451
 20
-3.608779907226562
 10
2.445769415961371
 20
-3.623942057291667
 10
2.462209065755208
 20
-3.639125400119358
 10
2.495777553982205
 20
-3.663490295410156
 10
2.546454535590278
 20
-3.697038438585069
 10
2.597110324435764
 20
-3.730282253689236
 10
2.628895229763455
 20
-3.753999498155382
 10
2.641807556152344
 20
-3.7681884765625
 10
2.654396057128906
 20
-3.782398647732204
 10
2.660679287380642
 20
-3.81256103515625
 10
2.660679287380642
 20
-3.858718024359809
 10
2.660679287380642
 20
-3.879698011610243
 10
2.657375759548611
 20
-3.895508660210503
 10
2.650767008463542
 20
-3.906150817871094
 10
2.644138760036892
 20
-3.916792975531684
 10
2.634064568413628
 20
-3.922124226888021
 10
2.62050289577908
 20
-3.922124226888021
 10
2.606942070855034
 20
-3.922124226888021
 10
2.597516377766927
 20
-3.917928059895833
 10
2.59218512641059
 20
-3.909536573621962
 10
2.586853875054253
 20
-3.901144239637587
 10
2.584197998046875
 20
-3.882272508409288
 10
2.584197998046875
 20
-3.852900187174479
 10
2.584197998046875
 20
-3.852900187174479
 10
2.584197998046875
 20
-3.757546318901909
 10
2.584197998046875
 20
-3.757546318901909
 10
2.584197998046875
 20
-3.757546318901909
 10
2.394930521647135
 20
-3.757546318901909
 10
2.394930521647135
 20
-3.757546318901909
 10
2.394930521647135
 20
-3.757546318901909
 10
2.394930521647135
 20
-3.808851453993055
 10
2.394930521647135
 20
-3.808851453993055
 10
2.394930521647135
 20
-3.867596096462673
 10
2.400910271538628
 20
-3.912921481662326
 10
2.412850273980034
 20
-3.94486829969618
 10
2.424789428710938
 20
-3.976815117730034
 10
2.450026618109809
 20
-4.003126356336805
 10
2.488601684570312
 20
-4.02378167046441
 10
2.527156405978733
 20
-4.044417487250434
 10
2.573718600802951
 20
-4.054755316840278
 10
2.628246731228299
 20
-4.054755316840278
 10
2.677930196126302
 20
-4.054755316840278
 10
2.721511840820312
 20
-4.045795864529079
 10
2.758951822916667
 20
-4.027897304958767
 10
2.796371459960938
 20
-4.009977552625868
 10
2.821628994411892
 20
-3.987801445855034
 10
2.834703233506944
 20
-3.9613282945421
 10
2.847757975260417
 20
-3.934874640570746
 10
2.854305691189236
 20
-3.893725077311198
 10
2.854305691189236
 20
-3.837899949815538
 10
2.854305691189236
 20
-3.761093987358941
 10
2.842508104112413
 20
-3.705430772569444
 10
2.818973965115017
 20
-3.670909457736545
 10
2.795399136013455
 20
-3.636368645562066
 10
2.738276163736979
 20
-3.592198689778646
 10
2.647564358181424
 20
-3.538339402940538
 97
        0
 97
        0
 92
        1
 93
       10
 72
     1
 10
3.092931959364149
 20
-4.038296169704861
 11
3.29671393500434
 21
-4.038296169704861
 72
     1
 10
3.29671393500434
 20
-4.038296169704861
 11
3.29671393500434
 21
-3.709140353732639
 72
     1
 10
3.29671393500434
 20
-3.709140353732639
 11
3.422574361165364
 21
-3.709140353732639
 72
     1
 10
3.422574361165364
 20
-3.709140353732639
 11
3.422574361165364
 21
-3.560049268934462
 72
     1
 10
3.422574361165364
 20
-3.560049268934462
 11
3.29671393500434
 21
-3.560049268934462
 72
     1
 10
3.29671393500434
 20
-3.560049268934462
 11
3.29671393500434
 21
-3.411444769965278
 72
     1
 10
3.29671393500434
 20
-3.411444769965278
 11
3.438061184353298
 21
-3.411444769965278
 72
     1
 10
3.438061184353298
 20
-3.411444769965278
 11
3.438061184353298
 21
-3.254609849717882
 72
     1
 10
3.438061184353298
 20
-3.254609849717882
 11
3.092931959364149
 21
-3.254609849717882
 72
     1
 10
3.092931959364149
 20
-3.254609849717882
 11
3.092931959364149
 21
-4.038296169704861
 97
        0
 92
        1
 93
        1
 72
     4
 94
        3
 73
     0
 74
     1
 95
       56
 96
       52
 40
0.0
 40
0.0
 40
0.0
 40
0.0
 40
1.0
 40
1.0
 40
1.0
 40
2.0
 40
2.0
 40
2.0
 40
3.0
 40
3.0
 40
3.0
 40
4.0
 40
4.0
 40
4.0
 40
5.0
 40
5.0
 40
5.0
 40
6.0
 40
6.0
 40
6.0
 40
7.0
 40
7.0
 40
7.0
 40
8.0
 40
8.0
 40
8.0
 40
9.0
 40
9.0
 40
9.0
 40
10.0
 40
10.0
 40
10.0
 40
11.0
 40
11.0
 40
11.0
 40
12.0
 40
12.0
 40
12.0
 40
13.0
 40
13.0
 40
13.0
 40
14.0
 40
14.0
 40
14.0
 40
15.0
 40
15.0
 40
15.0
 40
16.0
 40
16.0
 40
16.0
 40
17.0
 40
17.0
 40
17.0
 40
17.0
 10
3.830137464735243
 20
-3.629273308648003
 10
3.870475769042969
 20
-3.639287312825521
 10
3.897577921549479
 20
-3.652665879991319
 10
3.911463419596354
 20
-3.669449700249566
 10
3.925328572591146
 20
-3.686234368218316
 10
3.933964199490017
 20
-3.701639811197917
 10
3.937349107530382
 20
-3.715666876898871
 10
3.940754360622829
 20
-3.729715135362413
 10
3.942437065972222
 20
-3.768370734320746
 10
3.942437065972222
 20
-3.831615871853298
 10
3.942437065972222
 20
-3.831615871853298
 10
3.942437065972222
 20
-4.038296169704861
 10
3.942437065972222
 20
-4.038296169704861
 10
3.942437065972222
 20
-4.038296169704861
 10
3.753169589572483
 20
-4.038296169704861
 10
3.753169589572483
 20
-4.038296169704861
 10
3.753169589572483
 20
-4.038296169704861
 10
3.753169589572483
 20
-3.777877807617188
 10
3.753169589572483
 20
-3.777877807617188
 10
3.753169589572483
 20
-3.735938178168403
 10
3.749865214029948
 20
-3.709950764973958
 10
3.743257310655382
 20
-3.699937608506944
 10
3.736628214518229
 20
-3.68994394938151
 10
3.719296773274739
 20
-3.6849365234375
 10
3.691222296820746
 20
-3.6849365234375
 10
3.691222296820746
 20
-3.6849365234375
 10
3.691222296820746
 20
-4.038296169704861
 10
3.691222296820746
 20
-4.038296169704861
 10
3.691222296820746
 20
-4.038296169704861
 10
3.487440321180555
 20
-4.038296169704861
 10
3.487440321180555
 20
-4.038296169704861
 10
3.487440321180555
 20
-4.038296169704861
 10
3.487440321180555
 20
-3.254609849717882
 10
3.487440321180555
 20
-3.254609849717882
 10
3.487440321180555
 20
-3.254609849717882
 10
3.631686740451389
 20
-3.254609849717882
 10
3.631686740451389
 20
-3.254609849717882
 10
3.727830674913194
 20
-3.254609849717882
 10
3.792940775553385
 20
-3.258339775933159
 10
3.826995001898871
 20
-3.265758938259548
 10
3.861029730902778
 20
-3.273178100585938
 10
3.888780381944444
 20
-3.292131212022569
 10
3.910246955023871
 20
-3.322618272569444
 10
3.931713528103298
 20
-3.353125678168403
 10
3.942437065972222
 20
-3.40177493625217
 10
3.942437065972222
 20
-3.468567742241753
 10
3.942437065972222
 20
-3.529562208387587
 10
3.93485599093967
 20
-3.570549011230469
 10
3.919692993164062
 20
-3.591509501139323
 10
3.904510498046875
 20
-3.612489488389757
 10
3.874671936035156
 20
-3.625077141655816
 10
3.830137464735243
 20
-3.629273308648003
 97
        0
 97
        0
 92
        1
 93
        1
 72
     4
 94
        3
 73
     0
 74
     1
 95
       23
 96
       19
 40
0.0
 40
0.0
 40
0.0
 40
0.0
 40
1.0
 40
1.0
 40
1.0
 40
2.0
 40
2.0
 40
2.0
 40
3.0
 40
3.0
 40
3.0
 40
4.0
 40
4.0
 40
4.0
 40
5.0
 40
5.0
 40
5.0
 40
6.0
 40
6.0
 40
6.0
 40
6.0
 10
3.753169589572483
 20
-3.449208577473958
 10
3.753169589572483
 20
-3.424357096354167
 10
3.748730129665798
 20
-3.408059014214409
 10
3.739871554904514
 20
-3.400316026475694
 10
3.730993482801649
 20
-3.392572191026475
 10
3.714776780870225
 20
-3.388700697157118
 10
3.691222296820746
 20
-3.388700697157118
 10
3.691222296820746
 20
-3.388700697157118
 10
3.691222296820746
 20
-3.562947591145833
 10
3.691222296820746
 20
-3.562947591145833
 10
3.714128282335069
 20
-3.562947591145833
 10
3.730182223849826
 20
-3.559805976019965
 10
3.739384969075521
 20
-3.553521898057725
 10
3.748588562011719
 20
-3.547217475043403
 10
3.753169589572483
 20
-3.526824951171875
 10
3.753169589572483
 20
-3.492284138997396
 10
3.753169589572483
 20
-3.492284138997396
 10
3.753169589572483
 20
-3.449208577473958
 10
3.753169589572483
 20
-3.449208577473958
 97
        0
 97
        0
 92
        1
 93
        1
 72
     4
 94
        3
 73
     0
 74
     1
 95
       59
 96
       55
 40
0.0
 40
0.0
 40
0.0
 40
0.0
 40
1.0
 40
1.0
 40
1.0
 40
2.0
 40
2.0
 40
2.0
 40
3.0
 40
3.0
 40
3.0
 40
4.0
 40
4.0
 40
4.0
 40
5.0
 40
5.0
 40
5.0
 40
6.0
 40
6.0
 40
6.0
 40
7.0
 40
7.0
 40
7.0
 40
8.0
 40
8.0
 40
8.0
 40
9.0
 40
9.0
 40
9.0
 40
10.0
 40
10.0
 40
10.0
 40
11.0
 40
11.0
 40
11.0
 40
12.0
 40
12.0
 40
12.0
 40
13.0
 40
13.0
 40
13.0
 40
14.0
 40
14.0
 40
14.0
 40
15.0
 40
15.0
 40
15.0
 40
16.0
 40
16.0
 40
16.0
 40
17.0
 40
17.0
 40
17.0
 40
18.0
 40
18.0
 40
18.0
 40
18.0
 10
4.481191847059462
 20
-3.410005357530382
 10
4.485063340928819
 20
-3.442276000976562
 10
4.487009684244791
 20
-3.498750474717882
 10
4.487009684244791
 20
-3.579407585991753
 10
4.487009684244791
 20
-3.579407585991753
 10
4.487009684244791
 20
-3.713498433430989
 10
4.487009684244791
 20
-3.713498433430989
 10
4.487009684244791
 20
-3.792229546440972
 10
4.485144721137153
 20
-3.847994486490885
 10
4.481435139973958
 20
-3.880731370713975
 10
4.477725558810763
 20
-3.913489447699653
 10
4.466110229492188
 20
-3.943428887261284
 10
4.446589999728732
 20
-3.970531039767795
 10
4.427048577202691
 20
-3.997633192274305
 10
4.40067630343967
 20
-4.018451266818576
 10
4.367432488335504
 20
-4.032964918348524
 10
4.33420901828342
 20
-4.047498914930555
 10
4.295472039116754
 20
-4.054755316840278
 10
4.251261393229166
 20
-4.054755316840278
 10
4.209320916069879
 20
-4.054755316840278
 10
4.171637641059028
 20
-4.047883775499132
 10
4.138231913248697
 20
-4.034180535210504
 10
4.104845682779947
 20
-4.020478142632379
 10
4.077967325846354
 20
-3.999903361002604
 10
4.057655334472656
 20
-3.97245619032118
 10
4.037323845757379
 20
-3.945030212402344
 10
4.025222778320312
 20
-3.915191650390625
 10
4.021351284450954
 20
-3.882921006944444
 10
4.017478942871094
 20
-3.85064951578776
 10
4.015533447265625
 20
-3.794175889756944
 10
4.015533447265625
 20
-3.713498433430989
 10
4.015533447265625
 20
-3.713498433430989
 10
4.015533447265625
 20
-3.579407585991753
 10
4.015533447265625
 20
-3.579407585991753
 10
4.015533447265625
 20
-3.500676472981771
 10
4.01737806532118
 20
-3.444931877983941
 10
4.021107991536458
 20
-3.412174648708767
 10
4.024817572699653
 20
-3.37941657172309
 10
4.036432054307726
 20
-3.349497477213542
 10
4.055953131781684
 20
-3.322374979654948
 10
4.075473361545138
 20
-3.295272827148438
 10
4.10184563530816
 20
-3.274454752604167
 10
4.135089450412326
 20
-3.259941101074219
 10
4.168334113226996
 20
-3.245427449544271
 10
4.207050747341579
 20
-3.238149854871962
 10
4.251261393229166
 20
-3.238149854871962
 10
4.293221367730035
 20
-3.238149854871962
 10
4.330884297688802
 20
-3.245022243923611
 10
4.364290873209635
 20
-3.258724636501736
 10
4.397696601019965
 20
-3.272448221842448
 10
4.424555460611979
 20
-3.293023003472222
 10
4.444886949327256
 20
-3.320448981391059
 10
4.465218438042535
 20
-3.347875807020399
 10
4.477320353190104
 20
-3.377734714084201
 10
4.481191847059462
 20
-3.410005357530382
 97
        0
 97
        0
 92
        1
 93
        1
 72
     4
 94
        3
 73
     0
 74
     1
 95
       35
 96
       31
 40
0.0
 40
0.0
 40
0.0
 40
0.0
 40
1.0
 40
1.0
 40
1.0
 40
2.0
 40
2.0
 40
2.0
 40
3.0
 40
3.0
 40
3.0
 40
4.0
 40
4.0
 40
4.0
 40
5.0
 40
5.0
 40
5.0
 40
6.0
 40
6.0
 40
6.0
 40
7.0
 40
7.0
 40
7.0
 40
8.0
 40
8.0
 40
8.0
 40
9.0
 40
9.0
 40
9.0
 40
10.0
 40
10.0
 40
10.0
 40
10.0
 10
4.283208211263021
 20
-3.455979241265191
 10
4.283208211263021
 20
-3.419512430826823
 10
4.281200832790798
 20
-3.39620123969184
 10
4.277167426215278
 20
-3.386045667860243
 10
4.273133171929254
 20
-3.375869750976562
 10
4.264822218153212
 20
-3.370781792534722
 10
4.252234564887153
 20
-3.370781792534722
 10
4.241592407226562
 20
-3.370781792534722
 10
4.233443366156684
 20
-3.374896579318576
 10
4.227787441677517
 20
-3.383126152886284
 10
4.222132364908854
 20
-3.391356574164496
 10
4.219314575195312
 20
-3.415640936957465
 10
4.219314575195312
 20
-3.455979241265191
 10
4.219314575195312
 20
-3.455979241265191
 10
4.219314575195312
 20
-3.821926540798611
 10
4.219314575195312
 20
-3.821926540798611
 10
4.219314575195312
 20
-3.86743418375651
 10
4.221179538302951
 20
-3.895508660210503
 10
4.224889119466146
 20
-3.906150817871094
 10
4.22859870062934
 20
-3.916792975531684
 10
4.237234327528212
 20
-3.922124226888021
 10
4.250774807400173
 20
-3.922124226888021
 10
4.264660305447048
 20
-3.922124226888021
 10
4.273538377549913
 20
-3.916002909342448
 10
4.277410719129774
 20
-3.903739081488715
 10
4.281282212999132
 20
-3.891475253634983
 10
4.283208211263021
 20
-3.862264845106337
 10
4.283208211263021
 20
-3.816108703613281
 10
4.283208211263021
 20
-3.816108703613281
 10
4.283208211263021
 20
-3.455979241265191
 10
4.283208211263021
 20
-3.455979241265191
 97
        0
 97
        0
 92
        1
 93
        1
 72
     4
 94
        3
 73
     0
 74
     1
 95
       47
 96
       43
 40
0.0
 40
0.0
 40
0.0
 40
0.0
 40
1.0
 40
1.0
 40
1.0
 40
2.0
 40
2.0
 40
2.0
 40
3.0
 40
3.0
 40
3.0
 40
4.0
 40
4.0
 40
4.0
 40
5.0
 40
5.0
 40
5.0
 40
6.0
 40
6.0
 40
6.0
 40
7.0
 40
7.0
 40
7.0
 40
8.0
 40
8.0
 40
8.0
 40
9.0
 40
9.0
 40
9.0
 40
10.0
 40
10.0
 40
10.0
 40
11.0
 40
11.0
 40
11.0
 40
12.0
 40
12.0
 40
12.0
 40
13.0
 40
13.0
 40
13.0
 40
14.0
 40
14.0
 40
14.0
 40
14.0
 10
4.879814995659722
 20
-3.620557149251302
 10
4.879814995659722
 20
-3.620557149251302
 10
4.85086907280816
 20
-3.421214633517795
 10
4.85086907280816
 20
-3.421214633517795
 10
4.842558119032118
 20
-3.35726081000434
 10
4.834509955512153
 20
-3.301739162868923
 10
4.826685587565104
 20
-3.254609849717882
 10
4.826685587565104
 20
-3.254609849717882
 10
4.563004387749566
 20
-3.254609849717882
 10
4.563004387749566
 20
-3.254609849717882
 10
4.563004387749566
 20
-3.254609849717882
 10
4.563004387749566
 20
-4.038296169704861
 10
4.563004387749566
 20
-4.038296169704861
 10
4.563004387749566
 20
-4.038296169704861
 10
4.741122775607638
 20
-4.038296169704861
 10
4.741122775607638
 20
-4.038296169704861
 10
4.741122775607638
 20
-4.038296169704861
 10
4.741366068522135
 20
-3.521331787109375
 10
4.741366068522135
 20
-3.521331787109375
 10
4.741366068522135
 20
-3.521331787109375
 10
4.816165500217013
 20
-4.038296169704861
 10
4.816165500217013
 20
-4.038296169704861
 10
4.816165500217013
 20
-4.038296169704861
 10
4.942492167154947
 20
-4.038296169704861
 10
4.942492167154947
 20
-4.038296169704861
 10
4.942492167154947
 20
-4.038296169704861
 10
5.013399759928385
 20
-3.509230719672309
 10
5.013399759928385
 20
-3.509230719672309
 10
5.013399759928385
 20
-3.509230719672309
 10
5.013642205132379
 20
-4.038296169704861
 10
5.013642205132379
 20
-4.038296169704861
 10
5.013642205132379
 20
-4.038296169704861
 10
5.191781785753038
 20
-4.038296169704861
 10
5.191781785753038
 20
-4.038296169704861
 10
5.191781785753038
 20
-4.038296169704861
 10
5.191781785753038
 20
-3.254609849717882
 10
5.191781785753038
 20
-3.254609849717882
 10
5.191781785753038
 20
-3.254609849717882
 10
4.926640828450521
 20
-3.254609849717882
 10
4.926640828450521
 20
-3.254609849717882
 10
4.926640828450521
 20
-3.254609849717882
 10
4.879814995659722
 20
-3.620557149251302
 10
4.879814995659722
 20
-3.620557149251302
 97
        0
 97
        0
 92
        1
 93
        1
 72
     4
 94
        3
 73
     0
 74
     1
 95
       14
 96
       10
 40
0.0
 40
0.0
 40
0.0
 40
0.0
 40
1.0
 40
1.0
 40
1.0
 40
2.0
 40
2.0
 40
2.0
 40
3.0
 40
3.0
 40
3.0
 40
3.0
 10
1.532645331488715
 20
-2.232560899522569
 10
1.532645331488715
 20
-2.232560899522569
 10
1.53334469265408
 20
-2.232560899522569
 10
1.53334469265408
 20
-2.232560899522569
 10
1.53334469265408
 20
-2.232560899522569
 10
1.53334469265408
 20
-2.211494445800781
 10
1.53334469265408
 20
-2.211494445800781
 10
1.53334469265408
 20
-2.212591383192274
 10
1.528360154893663
 20
-2.232560899522569
 10
1.532645331488715
 20
-2.232560899522569
 97
        0
 97
        0
 75
     2
 76
     1
 98
        0
  0
ENDSEC
  0
SECTION
  2
OBJECTS
  0
DICTIONARY
  5
C
330
0
100
AcDbDictionary
281
     1
  3
ACAD_GROUP
350
D
  3
ACAD_LAYOUT
350
1A
  3
ACAD_MATERIAL
350
3B
  3
ACAD_MLEADERSTYLE
350
AE
  3
ACAD_MLINESTYLE
350
17
  3
ACAD_PLOTSETTINGS
350
19
  3
ACAD_PLOTSTYLENAME
350
E
  3
ACAD_TABLESTYLE
350
AD
  3
ACAD_VISUALSTYLE
350
2A
  0
SUN
  5
3F
330
29
100
AcDbSun
 90
        1
290
     0
 63
     7
421
 16777215
 40
1.0
291
     1
 91
  2455826
 92
 54000000
292
     0
 70
     2
 71
   256
280
     1
  0
DICTIONARY
  5
D
102
{ACAD_REACTORS
330
C
102
}
330
C
100
AcDbDictionary
281
     1
  0
DICTIONARY
  5
1A
102
{ACAD_REACTORS
330
C
102
}
330
C
100
AcDbDictionary
281
     1
  3
Layout1
350
1E
  3
Layout2
350
26
  3
Model
350
22
  0
DICTIONARY
  5
3B
102
{ACAD_REACTORS
330
C
102
}
330
C
100
AcDbDictionary
281
     1
  3
ByBlock
350
3D
  3
ByLayer
350
3C
  3
Global
350
3E
  0
DICTIONARY
  5
AE
102
{ACAD_REACTORS
330
C
102
}
330
C
100
AcDbDictionary
281
     1
  0
DICTIONARY
  5
17
102
{ACAD_REACTORS
330
C
102
}
330
C
100
AcDbDictionary
281
     1
  3
Standard
350
18
  0
DICTIONARY
  5
19
102
{ACAD_REACTORS
330
C
102
}
330
C
100
AcDbDictionary
281
     1
  0
ACDBDICTIONARYWDFLT
  5
E
102
{ACAD_REACTORS
330
C
102
}
330
C
100
AcDbDictionary
281
     1
  3
Normal
350
F
100
AcDbDictionaryWithDefault
340
F
  0
DICTIONARY
  5
AD
102
{ACAD_REACTORS
330
C
102
}
330
C
100
AcDbDictionary
281
     1
  0
DICTIONARY
  5
2A
102
{ACAD_REACTORS
330
C
102
}
330
C
100
AcDbDictionary
281
     1
  3
2dWireframe
350
2F
  3
3D Hidden
350
31
  3
3dWireframe
350
30
  3
Basic
350
32
  3
Brighten
350
36
  3
ColorChange
350
3A
  3
Conceptual
350
34
  3
Dim
350
35
  3
Facepattern
350
39
  3
Flat
350
2B
  3
FlatWithEdges
350
2C
  3
Gouraud
350
2D
  3
GouraudWithEdges
350
2E
  3
Linepattern
350
38
  3
Realistic
350
33
  3
Thicken
350
37
  0
LAYOUT
  5
1E
102
{ACAD_REACTORS
330
1A
102
}
330
1A
100
AcDbPlotSettings
  1

  2
none_device
  4

  6

 40
0.0
 41
0.0
 42
0.0
 43
0.0
 44
0.0
 45
0.0
 46
0.0
 47
0.0
 48
0.0
 49
0.0
140
0.0
141
0.0
142
1.0
143
1.0
 70
   688
 72
     0
 73
     0
 74
     5
  7

 75
    16
 76
     0
 77
     2
 78
   300
147
1.0
148
0.0
149
0.0
100
AcDbLayout
  1
Layout1
 70
     1
 71
     1
 10
0.0
 20
0.0
 11
12.0
 21
9.0
 12
0.0
 22
0.0
 32
0.0
 14
1.000000000000000E+20
 24
1.000000000000000E+20
 34
1.000000000000000E+20
 15
-1.000000000000000E+20
 25
-1.000000000000000E+20
 35
-1.000000000000000E+20
146
0.0
 13
0.0
 23
0.0
 33
0.0
 16
1.0
 26
0.0
 36
0.0
 17
0.0
 27
1.0
 37
0.0
 76
     0
330
1B
  0
LAYOUT
  5
26
102
{ACAD_REACTORS
330
1A
102
}
330
1A
100
AcDbPlotSettings
  1

  2
none_device
  4

  6

 40
0.0
 41
0.0
 42
0.0
 43
0.0
 44
0.0
 45
0.0
 46
0.0
 47
0.0
 48
0.0
 49
0.0
140
0.0
141
0.0
142
1.0
143
1.0
 70
   688
 72
     0
 73
     0
 74
     5
  7

 75
    16
 76
     0
 77
     2
 78
   300
147
1.0
148
0.0
149
0.0
100
AcDbLayout
  1
Layout2
 70
     1
 71
     2
 10
0.0
 20
0.0
 11
0.0
 21
0.0
 12
0.0
 22
0.0
 32
0.0
 14
0.0
 24
0.0
 34
0.0
 15
0.0
 25
0.0
 35
0.0
146
0.0
 13
0.0
 23
0.0
 33
0.0
 16
1.0
 26
0.0
 36
0.0
 17
0.0
 27
1.0
 37
0.0
 76
     0
330
23
  0
LAYOUT
  5
22
102
{ACAD_REACTORS
330
1A
102
}
330
1A
100
AcDbPlotSettings
  1

  2
none_device
  4

  6

 40
0.0
 41
0.0
 42
0.0
 43
0.0
 44
0.0
 45
0.0
 46
0.0
 47
0.0
 48
0.0
 49
0.0
140
0.0
141
0.0
142
1.0
143
1.0
 70
  1712
 72
     0
 73
     0
 74
     0
  7

 75
     0
 76
     0
 77
     2
 78
   300
147
1.0
148
0.0
149
0.0
100
AcDbLayout
  1
Model
 70
     1
 71
     0
 10
0.0
 20
0.0
 11
12.0
 21
9.0
 12
0.0
 22
0.0
 32
0.0
 14
1.000000000000000E+20
 24
1.000000000000000E+20
 34
1.000000000000000E+20
 15
-1.000000000000000E+20
 25
-1.000000000000000E+20
 35
-1.000000000000000E+20
146
0.0
 13
0.0
 23
0.0
 33
0.0
 16
1.0
 26
0.0
 36
0.0
 17
0.0
 27
1.0
 37
0.0
 76
     0
330
1F
331
29
  0
MATERIAL
  5
3D
102
{ACAD_REACTORS
330
3B
102
}
330
3B
100
AcDbMaterial
  1
ByBlock
 72
     1
 94
      127
  0
MATERIAL
  5
3C
102
{ACAD_REACTORS
330
3B
102
}
330
3B
100
AcDbMaterial
  1
ByLayer
 72
     1
 94
      127
  0
MATERIAL
  5
3E
102
{ACAD_REACTORS
330
3B
102
}
330
3B
100
AcDbMaterial
  1
Global
 72
     1
 94
      127
  0
MLINESTYLE
  5
18
102
{ACAD_REACTORS
330
17
102
}
330
17
100
AcDbMlineStyle
  2
Standard
 70
     0
  3

 62
   256
 51
90.0
 52
90.0
 71
     2
 49
0.5
 62
   256
  6
BYLAYER
 49
-0.5
 62
   256
  6
BYLAYER
  0
ACDBPLACEHOLDER
  5
F
102
{ACAD_REACTORS
330
E
102
}
330
E
  0
VISUALSTYLE
  5
2F
102
{ACAD_REACTORS
330
2A
102
}
330
2A
100
AcDbVisualStyle
  2
2dWireframe
 70
     4
177
     2
291
     0
 71
     0
176
     1
 72
     2
176
     1
 73
     0
176
     1
 90
        0
176
     1
 40
-0.6
176
     1
 41
-30.0
176
     1
 62
     5
 63
     7
421
 16777215
176
     1
 74
     1
176
     1
 91
        4
176
     1
 64
     7
176
     1
 65
   257
176
     1
 75
     1
176
     1
175
     1
176
     1
 42
1.0
176
     1
 92
        0
176
     1
 66
   257
176
     1
 43
1.0
176
     1
 76
     1
176
     1
 77
     6
176
     1
 78
     2
176
     1
 67
     7
176
     1
 79
     5
176
     1
170
     0
176
     1
171
     0
176
     1
290
     0
176
     1
 93
        1
176
     1
 44
0.0
176
     1
173
     0
176
     1
  0
VISUALSTYLE
  5
31
102
{ACAD_REACTORS
330
2A
102
}
330
2A
100
AcDbVisualStyle
  2
3D Hidden
 70
     6
177
     2
291
     0
 71
     1
176
     1
 72
     2
176
     1
 73
     2
176
     1
 90
        0
176
     1
 40
-0.6
176
     1
 41
-30.0
176
     1
 62
     5
 63
     7
421
 16777215
176
     1
 74
     2
176
     1
 91
        2
176
     1
 64
     7
176
     1
 65
   257
176
     1
 75
     2
176
     1
175
     1
176
     1
 42
40.0
176
     1
 92
        0
176
     1
 66
   257
176
     1
 43
1.0
176
     1
 76
     1
176
     1
 77
     6
176
     1
 78
     2
176
     1
 67
     7
176
     1
 79
     3
176
     1
170
     0
176
     1
171
     0
176
     1
290
     0
176
     1
 93
        1
176
     1
 44
0.0
176
     1
173
     0
176
     1
  0
VISUALSTYLE
  5
30
102
{ACAD_REACTORS
330
2A
102
}
330
2A
100
AcDbVisualStyle
  2
3dWireframe
 70
     5
177
     2
291
     0
 71
     0
176
     1
 72
     2
176
     1
 73
     0
176
     1
 90
        0
176
     1
 40
-0.6
176
     1
 41
-30.0
176
     1
 62
     5
 63
     7
421
 16777215
176
     1
 74
     1
176
     1
 91
        4
176
     1
 64
     7
176
     1
 65
   257
176
     1
 75
     1
176
     1
175
     1
176
     1
 42
1.0
176
     1
 92
        0
176
     1
 66
   257
176
     1
 43
1.0
176
     1
 76
     1
176
     1
 77
     6
176
     1
 78
     2
176
     1
 67
     7
176
     1
 79
     5
176
     1
170
     0
176
     1
171
     0
176
     1
290
     0
176
     1
 93
        1
176
     1
 44
0.0
176
     1
173
     0
176
     1
  0
VISUALSTYLE
  5
32
102
{ACAD_REACTORS
330
2A
102
}
330
2A
100
AcDbVisualStyle
  2
Basic
 70
     7
177
     2
291
     1
 71
     1
176
     1
 72
     0
176
     1
 73
     1
176
     1
 90
        0
176
     1
 40
-0.6
176
     1
 41
-30.0
176
     1
 62
     5
 63
     7
421
 16777215
176
     1
 74
     0
176
     1
 91
        4
176
     1
 64
     7
176
     1
 65
   257
176
     1
 75
     1
176
     1
175
     1
176
     1
 42
1.0
176
     1
 92
        8
176
     1
 66
     7
176
     1
 43
1.0
176
     1
 76
     1
176
     1
 77
     6
176
     1
 78
     2
176
     1
 67
     7
176
     1
 79
     5
176
     1
170
     0
176
     1
171
     0
176
     1
290
     0
176
     1
 93
        1
176
     1
 44
0.0
176
     1
173
     0
176
     1
  0
VISUALSTYLE
  5
36
102
{ACAD_REACTORS
330
2A
102
}
330
2A
100
AcDbVisualStyle
  2
Brighten
 70
    12
177
     2
291
     1
 71
     2
176
     1
 72
     2
176
     1
 73
     0
176
     1
 90
        0
176
     1
 40
-0.6
176
     1
 41
-30.0
176
     1
 62
     5
 63
     7
421
 16777215
176
     1
 74
     1
176
     1
 91
        4
176
     1
 64
     7
176
     1
 65
   257
176
     1
 75
     1
176
     1
175
     1
176
     1
 42
1.0
176
     1
 92
        8
176
     1
 66
     7
176
     1
 43
1.0
176
     1
 76
     1
176
     1
 77
     6
176
     1
 78
     2
176
     1
 67
     7
176
     1
 79
     5
176
     1
170
     0
176
     1
171
     0
176
     1
290
     0
176
     1
 93
        1
176
     1
 44
50.0
176
     1
173
     0
176
     1
  0
VISUALSTYLE
  5
3A
102
{ACAD_REACTORS
330
2A
102
}
330
2A
100
AcDbVisualStyle
  2
ColorChange
 70
    16
177
     2
291
     1
 71
     2
176
     1
 72
     2
176
     1
 73
     3
176
     1
 90
        0
176
     1
 40
-0.6
176
     1
 41
-30.0
176
     1
 62
     5
 63
     8
421
  8421504
176
     1
 74
     1
176
     1
 91
        4
176
     1
 64
     7
176
     1
 65
   257
176
     1
 75
     1
176
     1
175
     1
176
     1
 42
1.0
176
     1
 92
        8
176
     1
 66
     8
424
  8421504
176
     1
 43
1.0
176
     1
 76
     1
176
     1
 77
     6
176
     1
 78
     2
176
     1
 67
     7
176
     1
 79
     5
176
     1
170
     0
176
     1
171
     0
176
     1
290
     0
176
     1
 93
        1
176
     1
 44
0.0
176
     1
173
     0
176
     1
  0
VISUALSTYLE
  5
34
102
{ACAD_REACTORS
330
2A
102
}
330
2A
100
AcDbVisualStyle
  2
Conceptual
 70
     9
177
     2
291
     0
 71
     3
176
     1
 72
     2
176
     1
 73
     0
176
     1
 90
        0
176
     1
 40
-0.6
176
     1
 41
-30.0
176
     1
 62
     5
 63
     7
421
 16777215
176
     1
 74
     2
176
     1
 91
        2
176
     1
 64
     7
176
     1
 65
   257
176
     1
 75
     1
176
     1
175
     1
176
     1
 42
40.0
176
     1
 92
        8
176
     1
 66
     7
176
     1
 43
1.0
176
     1
 76
     1
176
     1
 77
     6
176
     1
 78
     2
176
     1
 67
     7
176
     1
 79
     3
176
     1
170
     0
176
     1
171
     0
176
     1
290
     0
176
     1
 93
        1
176
     1
 44
0.0
176
     1
173
     0
176
     1
  0
VISUALSTYLE
  5
35
102
{ACAD_REACTORS
330
2A
102
}
330
2A
100
AcDbVisualStyle
  2
Dim
 70
    11
177
     2
291
     1
 71
     2
176
     1
 72
     2
176
     1
 73
     0
176
     1
 90
        0
176
     1
 40
-0.6
176
     1
 41
-30.0
176
     1
 62
     5
 63
     7
421
 16777215
176
     1
 74
     1
176
     1
 91
        4
176
     1
 64
     7
176
     1
 65
   257
176
     1
 75
     1
176
     1
175
     1
176
     1
 42
1.0
176
     1
 92
        8
176
     1
 66
     7
176
     1
 43
1.0
176
     1
 76
     1
176
     1
 77
     6
176
     1
 78
     2
176
     1
 67
     7
176
     1
 79
     5
176
     1
170
     0
176
     1
171
     0
176
     1
290
     0
176
     1
 93
        1
176
     1
 44
-50.0
176
     1
173
     0
176
     1
  0
VISUALSTYLE
  5
39
102
{ACAD_REACTORS
330
2A
102
}
330
2A
100
AcDbVisualStyle
  2
Facepattern
 70
    15
177
     2
291
     1
 71
     2
176
     1
 72
     2
176
     1
 73
     0
176
     1
 90
        0
176
     1
 40
-0.6
176
     1
 41
-30.0
176
     1
 62
     5
 63
     7
421
 16777215
176
     1
 74
     1
176
     1
 91
        4
176
     1
 64
     7
176
     1
 65
   257
176
     1
 75
     1
176
     1
175
     1
176
     1
 42
1.0
176
     1
 92
        8
176
     1
 66
     7
176
     1
 43
1.0
176
     1
 76
     1
176
     1
 77
     6
176
     1
 78
     2
176
     1
 67
     7
176
     1
 79
     5
176
     1
170
     0
176
     1
171
     0
176
     1
290
     0
176
     1
 93
        1
176
     1
 44
0.0
176
     1
173
     0
176
     1
  0
VISUALSTYLE
  5
2B
102
{ACAD_REACTORS
330
2A
102
}
330
2A
100
AcDbVisualStyle
  2
Flat
 70
     0
177
     2
291
     1
 71
     2
176
     1
 72
     1
176
     1
 73
     1
176
     1
 90
        2
176
     1
 40
-0.6
176
     1
 41
30.0
176
     1
 62
     5
 63
     7
421
 16777215
176
     1
 74
     0
176
     1
 91
        4
176
     1
 64
     7
176
     1
 65
   257
176
     1
 75
     1
176
     1
175
     1
176
     1
 42
1.0
176
     1
 92
        8
176
     1
 66
     7
176
     1
 43
1.0
176
     1
 76
     1
176
     1
 77
     6
176
     1
 78
     2
176
     1
 67
     7
176
     1
 79
     5
176
     1
170
     0
176
     1
171
     0
176
     1
290
     0
176
     1
 93
       13
176
     1
 44
0.0
176
     1
173
     0
176
     1
  0
VISUALSTYLE
  5
2C
102
{ACAD_REACTORS
330
2A
102
}
330
2A
100
AcDbVisualStyle
  2
FlatWithEdges
 70
     1
177
     2
291
     1
 71
     2
176
     1
 72
     1
176
     1
 73
     1
176
     1
 90
        2
176
     1
 40
-0.6
176
     1
 41
30.0
176
     1
 62
     5
 63
     7
421
 16777215
176
     1
 74
     1
176
     1
 91
        4
176
     1
 64
     7
176
     1
 65
   257
176
     1
 75
     1
176
     1
175
     1
176
     1
 42
1.0
176
     1
 92
        0
176
     1
 66
   257
176
     1
 43
1.0
176
     1
 76
     1
176
     1
 77
     6
176
     1
 78
     2
176
     1
 67
     7
176
     1
 79
     5
176
     1
170
     0
176
     1
171
     0
176
     1
290
     0
176
     1
 93
       13
176
     1
 44
0.0
176
     1
173
     0
176
     1
  0
VISUALSTYLE
  5
2D
102
{ACAD_REACTORS
330
2A
102
}
330
2A
100
AcDbVisualStyle
  2
Gouraud
 70
     2
177
     2
291
     1
 71
     2
176
     1
 72
     2
176
     1
 73
     1
176
     1
 90
        2
176
     1
 40
-0.6
176
     1
 41
30.0
176
     1
 62
     5
 63
     7
421
 16777215
176
     1
 74
     0
176
     1
 91
        4
176
     1
 64
     7
176
     1
 65
   257
176
     1
 75
     1
176
     1
175
     1
176
     1
 42
1.0
176
     1
 92
        0
176
     1
 66
     7
176
     1
 43
1.0
176
     1
 76
     1
176
     1
 77
     6
176
     1
 78
     2
176
     1
 67
     7
176
     1
 79
     5
176
     1
170
     0
176
     1
171
     0
176
     1
290
     0
176
     1
 93
       13
176
     1
 44
0.0
176
     1
173
     0
176
     1
  0
VISUALSTYLE
  5
2E
102
{ACAD_REACTORS
330
2A
102
}
330
2A
100
AcDbVisualStyle
  2
GouraudWithEdges
 70
     3
177
     2
291
     1
 71
     2
176
     1
 72
     2
176
     1
 73
     1
176
     1
 90
        2
176
     1
 40
-0.6
176
     1
 41
30.0
176
     1
 62
     5
 63
     7
421
 16777215
176
     1
 74
     1
176
     1
 91
        4
176
     1
 64
     7
176
     1
 65
   257
176
     1
 75
     1
176
     1
175
     1
176
     1
 42
1.0
176
     1
 92
        0
176
     1
 66
   257
176
     1
 43
1.0
176
     1
 76
     1
176
     1
 77
     6
176
     1
 78
     2
176
     1
 67
     7
176
     1
 79
     5
176
     1
170
     0
176
     1
171
     0
176
     1
290
     0
176
     1
 93
       13
176
     1
 44
0.0
176
     1
173
     0
176
     1
  0
VISUALSTYLE
  5
38
102
{ACAD_REACTORS
330
2A
102
}
330
2A
100
AcDbVisualStyle
  2
Linepattern
 70
    14
177
     2
291
     1
 71
     2
176
     1
 72
     2
176
     1
 73
     0
176
     1
 90
        0
176
     1
 40
-0.6
176
     1
 41
-30.0
176
     1
 62
     5
 63
     7
421
 16777215
176
     1
 74
     1
176
     1
 91
        4
176
     1
 64
     7
176
     1
 65
   257
176
     1
 75
     7
176
     1
175
     7
176
     1
 42
1.0
176
     1
 92
        8
176
     1
 66
     7
176
     1
 43
1.0
176
     1
 76
     1
176
     1
 77
     6
176
     1
 78
     2
176
     1
 67
     7
176
     1
 79
     5
176
     1
170
     0
176
     1
171
     0
176
     1
290
     0
176
     1
 93
        1
176
     1
 44
0.0
176
     1
173
     0
176
     1
  0
VISUALSTYLE
  5
33
102
{ACAD_REACTORS
330
2A
102
}
330
2A
100
AcDbVisualStyle
  2
Realistic
 70
     8
177
     2
291
     0
 71
     2
176
     1
 72
     2
176
     1
 73
     0
176
     1
 90
        0
176
     1
 40
-0.6
176
     1
 41
-30.0
176
     1
 62
     5
 63
     7
421
 16777215
176
     1
 74
     1
176
     1
 91
        0
176
     1
 64
     7
176
     1
 65
   257
176
     1
 75
     1
176
     1
175
     1
176
     1
 42
1.0
176
     1
 92
        8
176
     1
 66
     8
424
  7895160
176
     1
 43
1.0
176
     1
 76
     1
176
     1
 77
     6
176
     1
 78
     2
176
     1
 67
     7
176
     1
 79
     5
176
     1
170
     0
176
     1
171
     0
176
     1
290
     0
176
     1
 93
       13
176
     1
 44
0.0
176
     1
173
     0
176
     1
  0
VISUALSTYLE
  5
37
102
{ACAD_REACTORS
330
2A
102
}
330
2A
100
AcDbVisualStyle
  2
Thicken
 70
    13
177
     2
291
     1
 71
     2
176
     1
 72
     2
176
     1
 73
     0
176
     1
 90
        0
176
     1
 40
-0.6
176
     1
 41
-30.0
176
     1
 62
     5
 63
     7
421
 16777215
176
     1
 74
     1
176
     1
 91
        4
176
     1
 64
     7
176
     1
 65
   257
176
     1
 75
     1
176
     1
175
     1
176
     1
 42
1.0
176
     1
 92
       12
176
     1
 66
     7
176
     1
 43
1.0
176
     1
 76
     1
176
     1
 77
     6
176
     1
 78
     2
176
     1
 67
     7
176
     1
 79
     5
176
     1
170
     0
176
     1
171
     0
176
     1
290
     0
176
     1
 93
        1
176
     1
 44
0.0
176
     1
173
     0
176
     1
  0
ENDSEC
  0
EOF
