<?xml version="1.0" encoding="utf-8"?>
<!-- Generator: Adobe Illustrator 18.0.0, SVG Export Plug-In . SVG Version: 6.00 Build 0)  -->
<!DOCTYPE svg PUBLIC "-//W3C//DTD SVG 1.1//EN" "http://www.w3.org/Graphics/SVG/1.1/DTD/svg11.dtd">
<svg version="1.1" id="Layer_1" xmlns="http://www.w3.org/2000/svg" xmlns:xlink="http://www.w3.org/1999/xlink" x="0px" y="0px"
	 viewBox="0 0 432 432" enable-background="new 0 0 432 432" xml:space="preserve">
<path fill="#B19A53" d="M148.8,309.6c-3.7-2.9-9.1-5.1-16.3-6.4c-7.1-1.3-20.8-1.9-41-1.9H60.2v111.9H113c10,0,17.5-0.4,22.5-1.1
	c5-0.8,9.2-2.1,12.5-4c3.4-1.9,5.8-4.6,7.1-7.9c1.4-3.4,2-10.1,2-20.1v-39.2c0-10.6-0.5-17.7-1.4-21.3
	C154.9,315.8,152.5,312.5,148.8,309.6z M115.3,377.8c0,7.5-0.7,12-2.1,13.7c-1.4,1.7-5.1,2.5-11.1,2.5v-73.6c4.6,0,7.7,0.3,9.4,1
	c1.7,0.7,2.7,1.7,3.2,3.1c0.5,1.4,0.7,4.7,0.7,9.7V377.8z M184.7,301.3l-21.4,111.9h43.3l2.5-20.1h15l2.2,20.1h42.8l-24-111.9H184.7
	z M208.6,373.2c1.1-9.9,3.8-25.6,8-47c2.1,18.7,4.3,34.3,6.4,47H208.6z M365,309.6c-3.7-2.9-9.1-5.1-16.3-6.4
	c-7.1-1.3-20.8-1.9-41-1.9h-31.3v111.9h52.8c10,0,17.5-0.4,22.5-1.1c5-0.8,9.2-2.1,12.5-4c3.4-1.9,5.8-4.6,7.1-7.9
	c1.4-3.4,2-10.1,2-20.1v-39.2c0-10.6-0.5-17.7-1.4-21.3C371,315.8,368.7,312.5,365,309.6z M331.4,377.8c0,7.5-0.7,12-2.1,13.7
	c-1.4,1.7-5.1,2.5-11.1,2.5v-73.6c4.6,0,7.7,0.3,9.4,1c1.7,0.7,2.7,1.7,3.2,3.1c0.5,1.4,0.7,4.7,0.7,9.7V377.8z M375.5,221.8
	c-5.9-8.9-22.4-30.3-27.8-36.3l-3.2-3.4l3.4-3.8c5.3-6,10.5-12.5,16.2-20.2c2.9-3.9,7.2-9.7,9.4-12.7c1.8-2.4,3.1-1.1,4.1-5.6H54
	c-1.8,4.5-0.9,4,7.3,12.7c4.4,4.7,9,9.7,10.3,11.2c3.2,3.7,11.8,15.2,14.3,18.9l2,3.2l-7.4,7.9c-6.6,6.9-15,16.6-24.6,29.8
	c-0.6,0.8-1.1,1.6-1.5,1.6h323.3C377.2,225,376.5,223.4,375.5,221.8z M123,158.6c-1.2,0.6-2.9,2.1-5.2,2.1h-7.4v50
	c0,4.8-3.7,7.1-9.6,7.1c-2.6,0-5-0.4-6.1-1.1c-0.8-0.5-0.5-1.1-0.9-1.8c-0.6-1,0.2-2.5,0.2-4.6v-51.2c0-0.7-2.7,1.5-3.8,1.5h-7.5
	c-2.3,0-4-1.6-5.2-2.2c-1.2-0.6-1.8-2.2-1.8-2.9c0-1.1,0.6-2.2,1.7-2.6c1.1-0.5,2.5-1.4,4-1.5c1.6-0.1,3-1.2,4.3-1.2h28.9
	c1.3,0,2.7,1,4.3,1.1c1.6,0.1,2.9,1.2,4,1.7c1.1,0.5,1.7,1.9,1.7,3C124.8,156.7,124.2,158,123,158.6z M185.1,212.4
	c0,3.6-2.2,5.5-6.2,5.5c-2,0-2.7-0.5-3.4-1.4c-0.7-1-0.9-2.3-0.9-4V202c0-1-1.1-1.5-3.1-1.5l-21.1,0c-1.9,0-2.7,0.5-2.7,1.5v8.8
	c0,1.9-1,3.4-2,4.6c-1.5,1.7-4.3,2.6-7.7,2.6c-2.5,0-4.4-0.4-5.5-1.1c-0.9-0.5-0.8-1.2-1.2-2.1c-0.5-1,0.1-2.5,0.1-4.3v-51.6
	c0-1.2-0.6-2.4-0.3-3.5c0.6-2.6,2.8-3.9,7.2-3.9c3,0,5.5,0.6,7,1.9c1.4,1.3,2.5,3,2.5,5.2v34.4c0,1.3,0.2,1.9,2,1.9l21.8,0
	c1.9,0,3-0.6,3-1.9v-36.1c0-1.8-0.1-3.1,0.7-4.1c0.7-0.9,2.3-1.4,4.3-1.4c3.9,0,5.5,1.8,5.5,5.5V212.4z M245.1,216.7
	c-3,0.8-8,1.2-15.2,1.2c-6.3,0-11.1-0.6-14.6-1.7c-6.3-2.1-9-5.9-9.8-11.5c-0.4-2.5,0.5-5.1,0.5-7.9V161c0-1.9-0.8-4.3-0.2-5.6
	c1.3-2.8,3.6-5,9.1-5h18.7c1.3,0,2.7,1,4.3,1.1c3.8,0.3,5.8,2.1,5.8,4c0,0.7-0.6,1.4-1.8,2c-1.2,0.6-3,0.9-5.4,0.9
	c-1.8,0-3.4,0-5.2,0c-1.8,0-3-0.1-4.8-0.1c-3.3,0-4.1,1.1-4.1,3.4V192c0,1.3-0.5,2.2,0.2,2.5c0.6,0.4,1,0.6,2.2,0.6
	c1.9,0,3.8,0,5.8-0.1c2-0.1,3.9-0.1,5.8-0.1c2.4,0,4.1,0.2,5.3,0.6c1.4,0.5,2.1,1.4,2.1,2.6c0,0.7-0.4,1.3-1.3,1.8
	c-0.9,0.5-2.1,0.7-3.7,0.7l-13.8-0.1c-2.2,0-2.5,0.6-2.5,1.8v2c0,2.1-0.2,3.7,1.1,4.9c2,1.7,5.2,2.6,10.8,2.6c1.8,0,3.5,0,5.3-0.1
	c1.8-0.1,3.5-0.2,5.3-0.2c1.2,0,2.2,0.2,3.1,0.5c0.9,0.3,1.4,0.9,1.4,1.6C249.5,214.8,248.1,215.9,245.1,216.7z M298,179
	c-1.2,3.2-3.2,4.8-6,4.8c-2.5,0-3.8-0.8-3.8-2.4c0-0.4,0.1-0.9,0.2-1.3c1.1-3.1,1.6-6.2,1.6-9.4c0-2.4-0.4-4.6-1.2-6.6
	c-1.9-4.5-5.9-6.8-11.9-6.8c-4.4,0-7.7,1.3-10,3.8c-1.9,2.1-2.9,4.9-2.9,8.3c0,3.3,1.4,6.4,4.2,9.4c2.6,2.7,7,5.9,13.2,9.7
	c2.6,1.6,5,3.2,7.1,4.9c4.7,3.7,7.1,7.4,7.1,11.3c0,3.5-1.6,6.4-4.8,8.7c-4.2,3-10.3,4.5-18.2,4.5c-7,0-12.3-1.5-16-4.4
	c-3-2.4-4.4-5.7-4.4-9.9c0-1.2,0.5-2.2,1.3-2.9c0.9-0.8,2.1-1.2,3.6-1.2c2.8,0,4.2,1.1,4.2,3.2c0,1.3,0.3,2.6,0.9,3.9
	c1.3,3.2,4.5,4.8,9.4,4.8c5.5,0,8.2-1.9,8.2-5.6c0-2.4-2-5-6-7.7c-1.8-1.2-3.9-2.5-6-3.8c-6-3.6-10.5-6.9-13.6-9.9
	c-4.5-4.2-6.7-9-6.7-14.1c0-3.6,0.9-6.8,2.8-9.6c1.3-2,3.2-3.7,5.7-5.1c4.7-2.7,11-4.1,18.8-4.1c16.3,0,24.5,6.5,24.5,19.4
	C299.3,173.9,298.9,176.7,298,179z M351.6,216.7c-3,0.8-8,1.2-15.2,1.2c-6.3,0-11.1-0.6-14.6-1.7c-6.3-2.1-8.4-5.9-9.2-11.5
	c-0.4-2.5,1.1-5.1,1.1-7.9V161c0-1.9-1.3-4.3-0.7-5.6c1.3-2.8,3-5,8.5-5h18.7c1.3,0,2.7,1,4.3,1.1c3.8,0.3,5.8,2.1,5.8,4
	c0,0.7-0.6,1.4-1.8,2c-1.2,0.6-3,0.9-5.4,0.9c-1.8,0-3.4,0-5.2,0c-1.8,0-2.4-0.1-4.2-0.1c-3.3,0-3.6,1.1-3.6,3.4V192
	c0,1.3-1,2.2-0.4,2.5c0.6,0.4,0.7,0.6,2,0.6c1.9,0,3.7,0,5.6-0.1c2-0.1,3.8-0.1,5.8-0.1c2.4,0,4.1,0.2,5.2,0.6
	c1.4,0.5,2.1,1.4,2.1,2.6c0,0.7-0.4,1.3-1.3,1.8c-0.9,0.5-2.1,0.7-3.8,0.7l-13.2-0.1c-2.2,0-2,0.6-2,1.8v2c0,2.1-0.7,3.7,0.5,4.9
	c2,1.7,4.9,2.6,10.6,2.6c1.8,0,3.4,0,5.2-0.1c1.8-0.1,3.5-0.2,5.3-0.2c1.2,0,2.2,0.2,3.1,0.5c0.9,0.3,1.3,0.9,1.3,1.6
	C356,214.8,354.5,215.9,351.6,216.7z"/>
<path fill="#141414" d="M98.8,133h-32V21.2h32V133z M197.6,24.1c-6.2-3.5-14-5.3-23.3-5.3c-9.5,0-17.3,2-23.3,6
	c-6,4-9.6,8.5-10.9,13.3c-1.3,4.8-1.9,12.6-1.9,23.3v33.2c0,7.7,0.3,13.5,0.9,17.3c0.6,3.8,2.1,7.5,4.6,11c2.4,3.5,6,6.4,10.7,8.8
	c4.7,2.4,9.7,3.6,15.1,3.6c4.5,0,8.4-0.9,11.8-2.6c3.3-1.7,6.1-4.3,8.3-7.8l3,8h20.1V73h-37.5v17h6.5v13.3c0,5.2-0.4,8.7-1.3,10.5
	c-0.8,1.8-2.4,2.7-4.8,2.7c-2.1,0-3.5-0.8-4.3-2.4c-0.7-1.6-1.1-4.9-1.1-9.9V50.5c0-5.7,0.4-9.3,1.1-10.6c0.7-1.4,2.1-2.1,4-2.1
	c2.3,0,3.7,0.8,4.3,2.4c0.6,1.6,0.9,5.6,0.9,12v10.2h32v-4.8c0-9.2-0.9-16.2-2.8-21C207.8,31.7,203.8,27.6,197.6,24.1z M224.9,110.9
	c-0.6-4.6-0.9-12.7-0.9-24.2V67.5c0-11.2,0.3-19.2,0.9-23.9c0.6-4.7,2.4-8.9,5.5-12.8c3.1-3.9,7.2-6.8,12.4-8.9
	c5.2-2.1,11.3-3.1,18.2-3.1c6.6,0,12.5,1,17.7,2.9c5.2,2,9.5,4.9,12.7,8.8c3.2,3.9,5.1,8.2,5.7,12.8c0.6,4.6,0.9,12.7,0.9,24.2v19.1
	c0,11.2-0.3,19.2-0.9,23.9c-0.6,4.7-2.4,8.9-5.5,12.8c-3.1,3.9-7.2,6.8-12.4,8.9c-5.2,2.1-11.3,3.1-18.2,3.1c-6.6,0-12.5-1-17.8-2.9
	c-5.2-2-9.5-4.9-12.7-8.8C227.4,119.7,225.5,115.5,224.9,110.9z M256,102.2c0,6.5,0.3,10.5,0.9,12c0.6,1.5,1.9,2.3,4.1,2.3
	c2.2,0,3.6-0.9,4.2-2.6c0.6-1.8,0.9-5.9,0.9-12.5V49.9c0-5.2-0.3-8.5-1-10c-0.6-1.5-1.9-2.2-3.9-2.2c-1.7,0-3,0.6-3.8,1.8
	c-0.9,1.2-1.3,4.6-1.3,10.4V102.2z M304.5,21.2v22.4h18.9V133h32V43.5h19V21.2H304.5z M83,235.8c-2.8-1.8-6.4-2.6-10.7-2.6
	c-4.4,0-7.9,1-10.7,3.1c-2.8,2-4.4,4.3-5,6.7c-0.6,2.4-0.9,6.4-0.9,11.7v16.8c0,3.9,0.1,6.8,0.4,8.7c0.3,1.9,1,3.8,2.1,5.6
	c1.1,1.8,2.7,3.2,4.9,4.4s4.5,1.8,6.9,1.8c2.1,0,3.9-0.4,5.4-1.3c1.5-0.9,2.8-2.2,3.8-3.9l1.4,4h9.2v-30.3H72.7v8.6h3v6.7
	c0,2.6-0.2,4.4-0.6,5.3c-0.4,0.9-1.1,1.4-2.2,1.4c-1,0-1.6-0.4-2-1.2c-0.3-0.8-0.5-2.5-0.5-5v-27.1c0-2.9,0.2-4.7,0.5-5.4
	c0.3-0.7,0.9-1,1.8-1c1,0,1.7,0.4,2,1.2c0.3,0.8,0.4,2.8,0.4,6.1v5.1h14.7v-2.4c0-4.6-0.4-8.1-1.3-10.6
	C87.7,239.7,85.8,237.6,83,235.8z M114.2,275.9c0,2.8-0.1,4.6-0.4,5.4c-0.3,0.8-0.9,1.1-1.8,1.1c-0.8,0-1.4-0.3-1.6-1
	c-0.3-0.7-0.4-2.3-0.4-4.7v-42.3H95.3v33.4c0,6.4,0.1,10.5,0.3,12.5s1,3.9,2.3,5.7c1.3,1.8,3.2,3.2,5.8,4.4s5.6,1.7,8.9,1.7
	c3,0,5.7-0.5,7.9-1.4c2.2-0.9,4-2.3,5.4-4.1c1.4-1.8,2.2-3.6,2.5-5.3s0.4-4.7,0.4-9v-37.7h-14.7V275.9z M155,259.7l-8.2-25.4h-12.3
	v56.4h12.3v-25.7l7.6,25.7h12.9v-56.4H155V259.7z M190.6,254.8c-2.3-1.3-3.7-2.5-4.1-3.4c-0.5-1-0.8-2.4-0.8-4.3
	c0-1.5,0.2-2.6,0.7-3.3c0.5-0.7,1.1-1.1,2-1.1c0.8,0,1.4,0.3,1.7,0.8s0.5,1.8,0.5,3.7v4.2h13.6v-2.2c0-4.5-0.4-7.7-1.3-9.5
	c-0.9-1.9-2.6-3.4-5.3-4.7s-5.9-1.8-9.7-1.8c-3.5,0-6.5,0.6-8.9,1.7c-2.5,1.1-4.2,2.7-5.4,4.7c-1.1,2-1.7,5.2-1.7,9.5
	c0,3,0.4,5.5,1.2,7.4c0.8,1.9,1.8,3.4,2.9,4.5c1.2,1.1,3.6,2.8,7.2,5.3c3.6,2.4,5.9,4.1,6.9,5.1c0.9,1,1.4,3.2,1.4,6.5
	c0,1.5-0.2,2.6-0.7,3.4c-0.5,0.8-1.2,1.2-2.2,1.2c-1,0-1.7-0.3-2-0.9c-0.4-0.6-0.6-2-0.6-4.1v-6.9h-13.6v3.7c0,4.2,0.4,7.5,1.3,9.8
	c0.9,2.3,2.7,4.2,5.5,5.7c2.8,1.5,6.1,2.2,10.1,2.2c3.6,0,6.7-0.6,9.4-1.9c2.7-1.3,4.5-2.9,5.5-4.8c0.9-1.9,1.4-4.9,1.4-8.9
	c0-5.5-0.8-9.5-2.5-12C201.3,261.8,197.2,258.6,190.6,254.8z M222.7,290.8h14.7v-23.7h9.1v-10.7h-9.1v-10.7h10.2v-11.3h-24.8V290.8z
	 M275.8,261.3c2.9,0.7,4.9,1.7,5.9,2.9c1,1.2,1.6,2.3,1.9,3.3c0.2,1,0.4,3.8,0.4,8.3v14.9h-13.6V272c0-3-0.2-4.9-0.7-5.6
	c-0.5-0.7-1.7-1.1-3.7-1.1v25.4h-14.7v-56.4h10.4c6.9,0,11.6,0.3,14.1,0.8c2.5,0.5,4.4,1.9,6,4.1c1.5,2.2,2.3,5.7,2.3,10.5
	c0,4.4-0.5,7.3-1.6,8.9C281.1,260.1,279,261,275.8,261.3z M270.2,248.3c0-1.8-0.3-3-1-3.5c-0.6-0.6-1.8-0.8-3.5-0.8v12.5
	c1.6,0,2.8-0.2,3.5-0.7c0.7-0.5,1-1.9,1-4.4V248.3z M322.6,245.5c0.3,2.3,0.4,6.4,0.4,12.2v9.7c0,5.7-0.1,9.7-0.4,12
	c-0.3,2.4-1.1,4.5-2.5,6.5c-1.4,2-3.3,3.5-5.7,4.5c-2.4,1-5.2,1.6-8.4,1.6c-3,0-5.7-0.5-8.1-1.5c-2.4-1-4.3-2.5-5.8-4.4
	c-1.5-2-2.3-4.1-2.6-6.4c-0.3-2.3-0.4-6.4-0.4-12.2v-9.7c0-5.7,0.1-9.7,0.4-12c0.3-2.4,1.1-4.5,2.5-6.5c1.4-2,3.3-3.5,5.7-4.5
	c2.4-1,5.2-1.6,8.4-1.6c3,0,5.7,0.5,8.1,1.5c2.4,1,4.3,2.5,5.8,4.4C321.5,241,322.4,243.2,322.6,245.5z M308.4,248.8
	c0-2.6-0.1-4.3-0.4-5c-0.3-0.7-0.9-1.1-1.8-1.1c-0.8,0-1.4,0.3-1.8,0.9c-0.4,0.6-0.6,2.3-0.6,5.2v26.3c0,3.3,0.1,5.3,0.4,6.1
	s0.9,1.2,1.9,1.2c1,0,1.6-0.4,1.9-1.3c0.3-0.9,0.4-3,0.4-6.3V248.8z M351.3,260.7l-2.1-14.4c-0.6-4.6-1.2-8.6-1.7-12h-19v56.4h12.8
	l0-37.2l5.4,37.2h9.1l5.1-38.1l0,38.1h12.8v-56.4h-19.1L351.3,260.7z M110.4,160.7L110.4,160.7l0.1-1.5
	C110.4,159.3,110,160.7,110.4,160.7z"/>
</svg>
