  0
SECTION
  2
HEADER
  9
$ACADVER
  1
AC1024
  9
$ACADMAINTVER
 70
     6
  9
$DWGCODEPAGE
  3
ANSI_1252
  9
$INSBASE
 10
0.0
 20
0.0
 30
0.0
  9
$EXTMIN
 10
1.000000000000000E+20
 20
1.000000000000000E+20
 30
1.000000000000000E+20
  9
$EXTMAX
 10
-1.000000000000000E+20
 20
-1.000000000000000E+20
 30
-1.000000000000000E+20
  9
$LIMMIN
 10
0.0
 20
0.0
  9
$LIMMAX
 10
12.0
 20
9.0
  9
$ORTHOMODE
 70
     0
  9
$REGENMODE
 70
     1
  9
$FILLMODE
 70
     1
  9
$QTEXTMODE
 70
     0
  9
$MIRRTEXT
 70
     1
  9
$LTSCALE
 40
1.0
  9
$ATTMODE
 70
     1
  9
$TEXTSIZE
 40
0.2
  9
$TRACEWID
 40
0.05
  9
$TEXTSTYLE
  7
Standard
  9
$CLAYER
  8
0
  9
$CELTYPE
  6
ByLayer
  9
$CECOLOR
 62
   256
  9
$CELTSCALE
 40
1.0
  9
$DISPSILH
 70
     0
  9
$DIMSCALE
 40
1.0
  9
$DIMASZ
 40
0.18
  9
$DIMEXO
 40
0.0625
  9
$DIMDLI
 40
0.38
  9
$DIMRND
 40
0.0
  9
$DIMDLE
 40
0.0
  9
$DIMEXE
 40
0.18
  9
$DIMTP
 40
0.0
  9
$DIMTM
 40
0.0
  9
$DIMTXT
 40
0.18
  9
$DIMCEN
 40
0.09
  9
$DIMTSZ
 40
0.0
  9
$DIMTOL
 70
     0
  9
$DIMLIM
 70
     0
  9
$DIMTIH
 70
     1
  9
$DIMTOH
 70
     1
  9
$DIMSE1
 70
     0
  9
$DIMSE2
 70
     0
  9
$DIMTAD
 70
     0
  9
$DIMZIN
 70
     0
  9
$DIMBLK
  1

  9
$DIMASO
 70
     1
  9
$DIMSHO
 70
     1
  9
$DIMPOST
  1

  9
$DIMAPOST
  1

  9
$DIMALT
 70
     0
  9
$DIMALTD
 70
     2
  9
$DIMALTF
 40
25.4
  9
$DIMLFAC
 40
1.0
  9
$DIMTOFL
 70
     0
  9
$DIMTVP
 40
0.0
  9
$DIMTIX
 70
     0
  9
$DIMSOXD
 70
     0
  9
$DIMSAH
 70
     0
  9
$DIMBLK1
  1

  9
$DIMBLK2
  1

  9
$DIMSTYLE
  2
Standard
  9
$DIMCLRD
 70
     0
  9
$DIMCLRE
 70
     0
  9
$DIMCLRT
 70
     0
  9
$DIMTFAC
 40
1.0
  9
$DIMGAP
 40
0.09
  9
$DIMJUST
 70
     0
  9
$DIMSD1
 70
     0
  9
$DIMSD2
 70
     0
  9
$DIMTOLJ
 70
     1
  9
$DIMTZIN
 70
     0
  9
$DIMALTZ
 70
     0
  9
$DIMALTTZ
 70
     0
  9
$DIMUPT
 70
     0
  9
$DIMDEC
 70
     4
  9
$DIMTDEC
 70
     4
  9
$DIMALTU
 70
     2
  9
$DIMALTTD
 70
     2
  9
$DIMTXSTY
  7
Standard
  9
$DIMAUNIT
 70
     0
  9
$DIMADEC
 70
     0
  9
$DIMALTRND
 40
0.0
  9
$DIMAZIN
 70
     0
  9
$DIMDSEP
 70
    46
  9
$DIMATFIT
 70
     3
  9
$DIMFRAC
 70
     0
  9
$DIMLDRBLK
  1

  9
$DIMLUNIT
 70
     2
  9
$DIMLWD
 70
    -2
  9
$DIMLWE
 70
    -2
  9
$DIMTMOVE
 70
     0
  9
$DIMFXL
 40
1.0
  9
$DIMFXLON
 70
     0
  9
$DIMJOGANG
 40
0.7853981633974483
  9
$DIMTFILL
 70
     0
  9
$DIMTFILLCLR
 70
     0
  9
$DIMARCSYM
 70
     0
  9
$DIMLTYPE
  6

  9
$DIMLTEX1
  6

  9
$DIMLTEX2
  6

  9
$DIMTXTDIRECTION
 70
     0
  9
$LUNITS
 70
     2
  9
$LUPREC
 70
     4
  9
$SKETCHINC
 40
0.1
  9
$FILLETRAD
 40
0.5
  9
$AUNITS
 70
     0
  9
$AUPREC
 70
     0
  9
$MENU
  1
.
  9
$ELEVATION
 40
0.0
  9
$PELEVATION
 40
0.0
  9
$THICKNESS
 40
0.0
  9
$LIMCHECK
 70
     0
  9
$CHAMFERA
 40
0.5
  9
$CHAMFERB
 40
0.5
  9
$CHAMFERC
 40
1.0
  9
$CHAMFERD
 40
0.0
  9
$SKPOLY
 70
     0
  9
$TDCREATE
 40
2458603.755163125
  9
$TDUCREATE
 40
2458603.505163125
  9
$TDUPDATE
 40
2458603.755163171
  9
$TDUUPDATE
 40
2458603.505163171
  9
$TDINDWG
 40
0.0000000116
  9
$TDUSRTIMER
 40
0.0000000116
  9
$USRTIMER
 70
     1
  9
$ANGBASE
 50
0.0
  9
$ANGDIR
 70
     0
  9
$PDMODE
 70
     0
  9
$PDSIZE
 40
0.0
  9
$PLINEWID
 40
0.0
  9
$SPLFRAME
 70
     0
  9
$SPLINETYPE
 70
     6
  9
$SPLINESEGS
 70
     8
  9
$HANDSEED
  5
59
  9
$SURFTAB1
 70
     6
  9
$SURFTAB2
 70
     6
  9
$SURFTYPE
 70
     6
  9
$SURFU
 70
     6
  9
$SURFV
 70
     6
  9
$UCSBASE
  2

  9
$UCSNAME
  2

  9
$UCSORG
 10
0.0
 20
0.0
 30
0.0
  9
$UCSXDIR
 10
1.0
 20
0.0
 30
0.0
  9
$UCSYDIR
 10
0.0
 20
1.0
 30
0.0
  9
$UCSORTHOREF
  2

  9
$UCSORTHOVIEW
 70
     0
  9
$UCSORGTOP
 10
0.0
 20
0.0
 30
0.0
  9
$UCSORGBOTTOM
 10
0.0
 20
0.0
 30
0.0
  9
$UCSORGLEFT
 10
0.0
 20
0.0
 30
0.0
  9
$UCSORGRIGHT
 10
0.0
 20
0.0
 30
0.0
  9
$UCSORGFRONT
 10
0.0
 20
0.0
 30
0.0
  9
$UCSORGBACK
 10
0.0
 20
0.0
 30
0.0
  9
$PUCSBASE
  2

  9
$PUCSNAME
  2

  9
$PUCSORG
 10
0.0
 20
0.0
 30
0.0
  9
$PUCSXDIR
 10
1.0
 20
0.0
 30
0.0
  9
$PUCSYDIR
 10
0.0
 20
1.0
 30
0.0
  9
$PUCSORTHOREF
  2

  9
$PUCSORTHOVIEW
 70
     0
  9
$PUCSORGTOP
 10
0.0
 20
0.0
 30
0.0
  9
$PUCSORGBOTTOM
 10
0.0
 20
0.0
 30
0.0
  9
$PUCSORGLEFT
 10
0.0
 20
0.0
 30
0.0
  9
$PUCSORGRIGHT
 10
0.0
 20
0.0
 30
0.0
  9
$PUCSORGFRONT
 10
0.0
 20
0.0
 30
0.0
  9
$PUCSORGBACK
 10
0.0
 20
0.0
 30
0.0
  9
$USERI1
 70
     0
  9
$USERI2
 70
     0
  9
$USERI3
 70
     0
  9
$USERI4
 70
     0
  9
$USERI5
 70
     0
  9
$USERR1
 40
0.0
  9
$USERR2
 40
0.0
  9
$USERR3
 40
0.0
  9
$USERR4
 40
0.0
  9
$USERR5
 40
0.0
  9
$WORLDVIEW
 70
     1
  9
$SHADEDGE
 70
     3
  9
$SHADEDIF
 70
    70
  9
$TILEMODE
 70
     1
  9
$MAXACTVP
 70
    64
  9
$PINSBASE
 10
0.0
 20
0.0
 30
0.0
  9
$PLIMCHECK
 70
     0
  9
$PEXTMIN
 10
1.000000000000000E+20
 20
1.000000000000000E+20
 30
1.000000000000000E+20
  9
$PEXTMAX
 10
-1.000000000000000E+20
 20
-1.000000000000000E+20
 30
-1.000000000000000E+20
  9
$PLIMMIN
 10
0.0
 20
0.0
  9
$PLIMMAX
 10
12.0
 20
9.0
  9
$UNITMODE
 70
     0
  9
$VISRETAIN
 70
     1
  9
$PLINEGEN
 70
     0
  9
$PSLTSCALE
 70
     1
  9
$TREEDEPTH
 70
  3020
  9
$CMLSTYLE
  2
Standard
  9
$CMLJUST
 70
     0
  9
$CMLSCALE
 40
1.0
  9
$PROXYGRAPHICS
 70
     1
  9
$MEASUREMENT
 70
     0
  9
$CELWEIGHT
370
    -1
  9
$ENDCAPS
280
     0
  9
$JOINSTYLE
280
     0
  9
$LWDISPLAY
290
     1
  9
$INSUNITS
 70
     1
  9
$HYPERLINKBASE
  1

  9
$STYLESHEET
  1

  9
$XEDIT
290
     1
  9
$CEPSNTYPE
380
     0
  9
$PSTYLEMODE
290
     1
  9
$FINGERPRINTGUID
  2
{5C5EF834-2F50-4D5D-8877-C62A6DDADD22}
  9
$VERSIONGUID
  2
{FAEB1C32-E019-11D5-929B-00C0DF256EC4}
  9
$EXTNAMES
290
     1
  9
$PSVPSCALE
 40
0.0
  9
$OLESTARTUP
290
     0
  9
$SORTENTS
280
   127
  9
$INDEXCTL
280
     0
  9
$HIDETEXT
280
     1
  9
$XCLIPFRAME
280
     2
  9
$HALOGAP
280
     0
  9
$OBSCOLOR
 70
   257
  9
$OBSLTYPE
280
     0
  9
$INTERSECTIONDISPLAY
280
     0
  9
$INTERSECTIONCOLOR
 70
   257
  9
$DIMASSOC
280
     2
  9
$PROJECTNAME
  1

  9
$CAMERADISPLAY
290
     0
  9
$LENSLENGTH
 40
50.0
  9
$CAMERAHEIGHT
 40
0.0
  9
$STEPSPERSEC
 40
2.0
  9
$STEPSIZE
 40
6.0
  9
$3DDWFPREC
 40
2.0
  9
$PSOLWIDTH
 40
0.25
  9
$PSOLHEIGHT
 40
4.0
  9
$LOFTANG1
 40
1.570796326794897
  9
$LOFTANG2
 40
1.570796326794897
  9
$LOFTMAG1
 40
0.0
  9
$LOFTMAG2
 40
0.0
  9
$LOFTPARAM
 70
     7
  9
$LOFTNORMALS
280
     1
  9
$LATITUDE
 40
37.795
  9
$LONGITUDE
 40
-122.394
  9
$NORTHDIRECTION
 40
0.0
  9
$TIMEZONE
 70
 -8000
  9
$LIGHTGLYPHDISPLAY
280
     1
  9
$TILEMODELIGHTSYNCH
280
     1
  9
$CMATERIAL
347
3C
  9
$SOLIDHIST
280
     1
  9
$SHOWHIST
280
     1
  9
$DWFFRAME
280
     2
  9
$DGNFRAME
280
     2
  9
$REALWORLDSCALE
290
     1
  9
$INTERFERECOLOR
 62
   256
  9
$CSHADOW
280
     0
  9
$SHADOWPLANELOCATION
 40
0.0
  0
ENDSEC
  0
SECTION
  2
CLASSES
  0
CLASS
  1
ACDBDICTIONARYWDFLT
  2
AcDbDictionaryWithDefault
  3
ObjectDBX Classes
 90
        0
 91
        4
280
     0
281
     0
  0
CLASS
  1
VISUALSTYLE
  2
AcDbVisualStyle
  3
ObjectDBX Classes
 90
     4095
 91
        4
280
     0
281
     0
  0
CLASS
  1
MATERIAL
  2
AcDbMaterial
  3
ObjectDBX Classes
 90
     1153
 91
        4
280
     0
281
     0
  0
CLASS
  1
SUN
  2
AcDbSun
  3
SCENEOE
 90
     1024
 91
        4
280
     0
281
     0
  0
ENDSEC
  0
SECTION
  2
TABLES
  0
TABLE
  2
VPORT
  5
8
330
0
100
AcDbSymbolTable
 70
     1
  0
VPORT
  5
29
330
8
100
AcDbSymbolTableRecord
100
AcDbViewportTableRecord
  2
*Active
 70
     0
 10
0.0
 20
0.0
 11
1.0
 21
1.0
 12
0.0
 22
0.0
 13
0.0
 23
0.0
 14
0.5
 24
0.5
 15
0.5
 25
0.5
 16
0.0
 26
0.0
 36
1.0
 17
3.0
 27
-3.0
 37
0.0
 40
6.0
 41
1.0
 42
50.0
 43
0.0
 44
0.0
 50
0.0
 51
0.0
 71
     0
 72
   100
 73
     1
 74
     3
 75
     0
 76
     0
 77
     0
 78
     0
281
     0
 65
     1
110
0.0
120
0.0
130
0.0
111
1.0
121
0.0
131
0.0
112
0.0
122
1.0
132
0.0
 79
     0
146
0.0
 60
     3
 61
     5
292
     1
282
     1
141
0.0
142
0.0
 63
   250
361
3F
  0
ENDTAB
  0
TABLE
  2
LTYPE
  5
5
330
0
100
AcDbSymbolTable
 70
     1
  0
LTYPE
  5
14
330
5
100
AcDbSymbolTableRecord
100
AcDbLinetypeTableRecord
  2
ByBlock
 70
     0
  3

 72
    65
 73
     0
 40
0.0
  0
LTYPE
  5
15
330
5
100
AcDbSymbolTableRecord
100
AcDbLinetypeTableRecord
  2
ByLayer
 70
     0
  3

 72
    65
 73
     0
 40
0.0
  0
LTYPE
  5
16
330
5
100
AcDbSymbolTableRecord
100
AcDbLinetypeTableRecord
  2
Continuous
 70
     0
  3
Solid line
 72
    65
 73
     0
 40
0.0
  0
ENDTAB
  0
TABLE
  2
LAYER
  5
2
330
0
100
AcDbSymbolTable
 70
     2
  0
LAYER
  5
10
330
2
100
AcDbSymbolTableRecord
100
AcDbLayerTableRecord
  2
0
 70
     0
 62
     7
  6
Continuous
370
    -3
390
F
347
3E
  0
LAYER
  5
40
330
2
100
AcDbSymbolTableRecord
100
AcDbLayerTableRecord
  2
Layer 1
 70
     0
 62
     7
  6
Continuous
370
    -3
390
F
347
3E
  0
ENDTAB
  0
TABLE
  2
STYLE
  5
3
330
0
100
AcDbSymbolTable
 70
     1
  0
STYLE
  5
11
330
3
100
AcDbSymbolTableRecord
100
AcDbTextStyleTableRecord
  2
Standard
 70
     0
 40
0.0
 41
1.0
 50
0.0
 71
     0
 42
0.2
  3
txt
  4

  0
ENDTAB
  0
TABLE
  2
VIEW
  5
6
330
0
100
AcDbSymbolTable
 70
     0
  0
ENDTAB
  0
TABLE
  2
UCS
  5
7
330
0
100
AcDbSymbolTable
 70
     0
  0
ENDTAB
  0
TABLE
  2
APPID
  5
9
330
0
100
AcDbSymbolTable
 70
     1
  0
APPID
  5
12
330
9
100
AcDbSymbolTableRecord
100
AcDbRegAppTableRecord
  2
ACAD
 70
     0
  0
ENDTAB
  0
TABLE
  2
DIMSTYLE
  5
A
330
0
100
AcDbSymbolTable
 70
     1
100
AcDbDimStyleTable
  0
DIMSTYLE
105
27
330
A
100
AcDbSymbolTableRecord
100
AcDbDimStyleTableRecord
  2
Standard
 70
     0
178
     0
340
11
  0
ENDTAB
  0
TABLE
  2
BLOCK_RECORD
  5
1
330
0
100
AcDbSymbolTable
 70
     2
  0
BLOCK_RECORD
  5
1F
330
1
100
AcDbSymbolTableRecord
100
AcDbBlockTableRecord
  2
*Model_Space
340
22
 70
     0
280
     1
281
     0
  0
BLOCK_RECORD
  5
1B
330
1
100
AcDbSymbolTableRecord
100
AcDbBlockTableRecord
  2
*Paper_Space
340
1E
 70
     0
280
     1
281
     0
  0
BLOCK_RECORD
  5
23
330
1
100
AcDbSymbolTableRecord
100
AcDbBlockTableRecord
  2
*Paper_Space0
340
26
 70
     0
280
     1
281
     0
  0
BLOCK_RECORD
  5
4A
330
1
100
AcDbSymbolTableRecord
100
AcDbBlockTableRecord
  2
block 2
340
0
102
{BLKREFS
331
4B
102
}
 70
     0
280
     1
281
     0
  0
ENDTAB
  0
ENDSEC
  0
SECTION
  2
BLOCKS
  0
BLOCK
  5
20
330
1F
100
AcDbEntity
  8
0
100
AcDbBlockBegin
  2
*Model_Space
 70
     0
 10
0.0
 20
0.0
 30
0.0
  3
*Model_Space
  1

  0
ENDBLK
  5
21
330
1F
100
AcDbEntity
  8
0
100
AcDbBlockEnd
  0
BLOCK
  5
1C
330
1B
100
AcDbEntity
 67
     1
  8
0
100
AcDbBlockBegin
  2
*Paper_Space
 70
     0
 10
0.0
 20
0.0
 30
0.0
  3
*Paper_Space
  1

  0
ENDBLK
  5
1D
330
1B
100
AcDbEntity
 67
     1
  8
0
100
AcDbBlockEnd
  0
BLOCK
  5
24
330
23
100
AcDbEntity
  8
0
100
AcDbBlockBegin
  2
*Paper_Space0
 70
     0
 10
0.0
 20
0.0
 30
0.0
  3
*Paper_Space0
  1

  0
ENDBLK
  5
25
330
23
100
AcDbEntity
  8
0
100
AcDbBlockEnd
  0
BLOCK
  5
4C
330
4A
100
AcDbEntity
  8
0
100
AcDbBlockBegin
  2
block 2
 70
     0
 10
0.0
 20
0.0
 30
0.0
  3
block 2
  1

  0
SPLINE
  5
4E
330
4A
100
AcDbEntity
  8
Layer 1
370
     0
100
AcDbSpline
210
0.0
220
0.0
230
1.0
 70
    11
 71
     3
 72
   371
 73
   367
 74
     0
 42
0.0000000001
 43
0.0000000001
 12
1.0
 22
0.0
 32
0.0
 13
1.0
 23
0.0
 33
0.0
 40
0.0
 40
0.0
 40
0.0
 40
0.0
 40
1.0
 40
1.0
 40
1.0
 40
2.0
 40
2.0
 40
2.0
 40
3.0
 40
3.0
 40
3.0
 40
4.0
 40
4.0
 40
4.0
 40
5.0
 40
5.0
 40
5.0
 40
6.0
 40
6.0
 40
6.0
 40
7.0
 40
7.0
 40
7.0
 40
8.0
 40
8.0
 40
8.0
 40
9.0
 40
9.0
 40
9.0
 40
10.0
 40
10.0
 40
10.0
 40
11.0
 40
11.0
 40
11.0
 40
12.0
 40
12.0
 40
12.0
 40
13.0
 40
13.0
 40
13.0
 40
14.0
 40
14.0
 40
14.0
 40
15.0
 40
15.0
 40
15.0
 40
16.0
 40
16.0
 40
16.0
 40
17.0
 40
17.0
 40
17.0
 40
18.0
 40
18.0
 40
18.0
 40
19.0
 40
19.0
 40
19.0
 40
20.0
 40
20.0
 40
20.0
 40
21.0
 40
21.0
 40
21.0
 40
22.0
 40
22.0
 40
22.0
 40
23.0
 40
23.0
 40
23.0
 40
24.0
 40
24.0
 40
24.0
 40
25.0
 40
25.0
 40
25.0
 40
26.0
 40
26.0
 40
26.0
 40
27.0
 40
27.0
 40
27.0
 40
28.0
 40
28.0
 40
28.0
 40
29.0
 40
29.0
 40
29.0
 40
30.0
 40
30.0
 40
30.0
 40
31.0
 40
31.0
 40
31.0
 40
32.0
 40
32.0
 40
32.0
 40
33.0
 40
33.0
 40
33.0
 40
34.0
 40
34.0
 40
34.0
 40
35.0
 40
35.0
 40
35.0
 40
36.0
 40
36.0
 40
36.0
 40
37.0
 40
37.0
 40
37.0
 40
38.0
 40
38.0
 40
38.0
 40
39.0
 40
39.0
 40
39.0
 40
40.0
 40
40.0
 40
40.0
 40
41.0
 40
41.0
 40
41.0
 40
42.0
 40
42.0
 40
42.0
 40
43.0
 40
43.0
 40
43.0
 40
44.0
 40
44.0
 40
44.0
 40
45.0
 40
45.0
 40
45.0
 40
46.0
 40
46.0
 40
46.0
 40
47.0
 40
47.0
 40
47.0
 40
48.0
 40
48.0
 40
48.0
 40
49.0
 40
49.0
 40
49.0
 40
50.0
 40
50.0
 40
50.0
 40
51.0
 40
51.0
 40
51.0
 40
52.0
 40
52.0
 40
52.0
 40
53.0
 40
53.0
 40
53.0
 40
54.0
 40
54.0
 40
54.0
 40
55.0
 40
55.0
 40
55.0
 40
56.0
 40
56.0
 40
56.0
 40
57.0
 40
57.0
 40
57.0
 40
58.0
 40
58.0
 40
58.0
 40
59.0
 40
59.0
 40
59.0
 40
60.0
 40
60.0
 40
60.0
 40
61.0
 40
61.0
 40
61.0
 40
62.0
 40
62.0
 40
62.0
 40
63.0
 40
63.0
 40
63.0
 40
64.0
 40
64.0
 40
64.0
 40
65.0
 40
65.0
 40
65.0
 40
66.0
 40
66.0
 40
66.0
 40
67.0
 40
67.0
 40
67.0
 40
68.0
 40
68.0
 40
68.0
 40
69.0
 40
69.0
 40
69.0
 40
70.0
 40
70.0
 40
70.0
 40
71.0
 40
71.0
 40
71.0
 40
72.0
 40
72.0
 40
72.0
 40
73.0
 40
73.0
 40
73.0
 40
74.0
 40
74.0
 40
74.0
 40
75.0
 40
75.0
 40
75.0
 40
76.0
 40
76.0
 40
76.0
 40
77.0
 40
77.0
 40
77.0
 40
78.0
 40
78.0
 40
78.0
 40
79.0
 40
79.0
 40
79.0
 40
80.0
 40
80.0
 40
80.0
 40
81.0
 40
81.0
 40
81.0
 40
82.0
 40
82.0
 40
82.0
 40
83.0
 40
83.0
 40
83.0
 40
84.0
 40
84.0
 40
84.0
 40
85.0
 40
85.0
 40
85.0
 40
86.0
 40
86.0
 40
86.0
 40
87.0
 40
87.0
 40
87.0
 40
88.0
 40
88.0
 40
88.0
 40
89.0
 40
89.0
 40
89.0
 40
90.0
 40
90.0
 40
90.0
 40
91.0
 40
91.0
 40
91.0
 40
92.0
 40
92.0
 40
92.0
 40
93.0
 40
93.0
 40
93.0
 40
94.0
 40
94.0
 40
94.0
 40
95.0
 40
95.0
 40
95.0
 40
96.0
 40
96.0
 40
96.0
 40
97.0
 40
97.0
 40
97.0
 40
98.0
 40
98.0
 40
98.0
 40
99.0
 40
99.0
 40
99.0
 40
100.0
 40
100.0
 40
100.0
 40
101.0
 40
101.0
 40
101.0
 40
102.0
 40
102.0
 40
102.0
 40
103.0
 40
103.0
 40
103.0
 40
104.0
 40
104.0
 40
104.0
 40
105.0
 40
105.0
 40
105.0
 40
106.0
 40
106.0
 40
106.0
 40
107.0
 40
107.0
 40
107.0
 40
108.0
 40
108.0
 40
108.0
 40
109.0
 40
109.0
 40
109.0
 40
110.0
 40
110.0
 40
110.0
 40
111.0
 40
111.0
 40
111.0
 40
112.0
 40
112.0
 40
112.0
 40
113.0
 40
113.0
 40
113.0
 40
114.0
 40
114.0
 40
114.0
 40
115.0
 40
115.0
 40
115.0
 40
116.0
 40
116.0
 40
116.0
 40
117.0
 40
117.0
 40
117.0
 40
118.0
 40
118.0
 40
118.0
 40
119.0
 40
119.0
 40
119.0
 40
120.0
 40
120.0
 40
120.0
 40
121.0
 40
121.0
 40
121.0
 40
122.0
 40
122.0
 40
122.0
 40
122.0
 10
5.477532280815972
 20
-3.824098375108507
 30
0.0
 10
5.477532280815972
 20
-3.826108296712239
 30
0.0
 10
5.389171176486545
 20
-4.063053554958767
 30
0.0
 10
5.272705078125
 20
-4.289960225423177
 30
0.0
 10
5.206437852647569
 20
-4.41847398546007
 30
0.0
 10
5.04179212782118
 20
-4.747795104980469
 30
0.0
 10
4.857041252983941
 20
-4.747795104980469
 30
0.0
 10
4.814871046278212
 20
-4.747795104980469
 30
0.0
 10
4.772715250651041
 20
-4.729721917046441
 30
0.0
 10
4.746599833170572
 20
-4.685540941026475
 30
0.0
 10
4.692381117078993
 20
-4.593172709147135
 30
0.0
 10
4.708450317382812
 20
-4.39839850531684
 30
0.0
 10
4.794794718424479
 20
-4.087150573730469
 30
0.0
 10
4.832943386501736
 20
-3.95662604437934
 30
0.0
 10
4.875114440917969
 20
-3.832125345865885
 30
0.0
 10
4.903232150607638
 20
-3.751806471082899
 30
0.0
 10
4.824916415744357
 20
-3.779917399088542
 30
0.0
 10
4.704429626464844
 20
-3.816062927246094
 30
0.0
 10
4.581939697265625
 20
-3.816062927246094
 30
0.0
 10
4.56766594780816
 20
-3.816062927246094
 30
0.0
 10
4.553922865125868
 20
-3.814900716145833
 30
0.0
 10
4.540445963541666
 20
-3.813189188639323
 30
0.0
 10
4.541013081868489
 20
-3.820784674750434
 30
0.0
 10
4.539527893066406
 20
-3.828737046983507
 30
0.0
 10
4.535821702745225
 20
-3.836146884494358
 30
0.0
 10
4.457505120171441
 20
-3.986747741699219
 30
0.0
 10
4.373179117838541
 20
-4.143373277452257
 30
0.0
 10
4.286835564507379
 20
-4.257835388183594
 30
0.0
 10
4.214543660481771
 20
-4.346182081434462
 30
0.0
 10
4.12217542860243
 20
-4.450606452094184
 30
0.0
 10
3.995663960774739
 20
-4.450606452094184
 30
0.0
 10
3.922948201497396
 20
-4.450606452094184
 30
0.0
 10
3.859012179904514
 20
-4.401875813802083
 30
0.0
 10
3.810575697157118
 20
-4.310684204101562
 30
0.0
 10
3.795520358615451
 20
-4.35734388563368
 30
0.0
 10
3.779541863335503
 20
-4.405015733506945
 30
0.0
 10
3.762762281629774
 20
-4.452609592013888
 30
0.0
 10
3.696495056152344
 20
-4.6373536851671
 30
0.0
 10
3.630226982964409
 20
-4.785943773057725
 30
0.0
 10
3.567980448404948
 20
-4.892378913031684
 30
0.0
 10
3.479618496365017
 20
-5.038965861002604
 30
0.0
 10
3.397295633951823
 20
-5.109240214029947
 30
0.0
 10
3.312962849934896
 20
-5.111257765028212
 30
0.0
 10
3.312962849934896
 20
-5.111257765028212
 30
0.0
 10
3.310952080620659
 20
-5.111257765028212
 30
0.0
 10
3.310952080620659
 20
-5.111257765028212
 30
0.0
 10
3.274806552463108
 20
-5.111257765028212
 30
0.0
 10
3.242680867513021
 20
-5.097190856933594
 30
0.0
 10
3.21456315782335
 20
-5.069087558322482
 30
0.0
 10
3.126215616861979
 20
-4.976719326443142
 30
0.0
 10
3.08404541015625
 20
-4.731725056966146
 30
0.0
 10
3.080024719238281
 20
-4.295984903971354
 30
0.0
 10
3.079451666937934
 20
-4.193804423014322
 30
0.0
 10
3.081060621473524
 20
-4.086140102810329
 30
0.0
 10
3.084003024631076
 20
-3.976601494683159
 30
0.0
 10
3.036211649576823
 20
-4.039465162489149
 30
0.0
 10
2.974810282389323
 20
-4.093753390842013
 30
0.0
 10
2.909412807888455
 20
-4.145383199055989
 30
0.0
 10
2.985718621148003
 20
-4.227713690863715
 30
0.0
 10
3.03792741563585
 20
-4.328116522894965
 30
0.0
 10
3.039937337239583
 20
-4.470682779947916
 30
0.0
 10
3.039937337239583
 20
-4.553013271755642
 30
0.0
 10
3.019854227701823
 20
-4.629318237304688
 30
0.0
 10
2.97969479031033
 20
-4.695586310492621
 30
0.0
 10
2.94555918375651
 20
-4.755822075737847
 30
0.0
 10
2.895361158582899
 20
-4.804016960991754
 30
0.0
 10
2.835117763943142
 20
-4.840162489149305
 30
0.0
 10
2.774874369303385
 20
-4.874305725097656
 30
0.0
 10
2.708613925509983
 20
-4.892378913031684
 30
0.0
 10
2.648370530870225
 20
-4.892378913031684
 30
0.0
 10
2.517846001519097
 20
-4.892378913031684
 30
0.0
 10
2.417443169487847
 20
-4.804016960991754
 30
0.0
 10
2.417443169487847
 20
-4.663453843858506
 30
0.0
 10
2.417443169487847
 20
-4.553013271755642
 30
0.0
 10
2.455599466959635
 20
-4.452609592013888
 30
0.0
 10
2.53391604953342
 20
-4.358231438530816
 30
0.0
 10
2.564030117458767
 20
-4.322092692057291
 30
0.0
 10
2.600176493326823
 20
-4.287949456108941
 30
0.0
 10
2.636322021484375
 20
-4.255824618869357
 30
0.0
 10
2.602186414930555
 20
-4.225702921549479
 30
0.0
 10
2.562026977539062
 20
-4.195581224229601
 30
0.0
 10
2.519856770833333
 20
-4.161445617675781
 30
0.0
 10
2.467942979600694
 20
-4.121382819281684
 30
0.0
 10
2.412383185492621
 20
-4.078463236490885
 30
0.0
 10
2.359323289659288
 20
-4.029170566134982
 30
0.0
 10
2.342542860243055
 20
-4.10648685031467
 30
0.0
 10
2.320360819498698
 20
-4.197844611273871
 30
0.0
 10
2.293008592393663
 20
-4.287949456108941
 30
0.0
 10
2.250838385687934
 20
-4.42248789469401
 30
0.0
 10
2.208667331271701
 20
-4.528915405273438
 30
0.0
 10
2.162484063042535
 20
-4.60321044921875
 30
0.0
 10
2.054045783148871
 20
-4.797992282443576
 30
0.0
 10
1.85726081000434
 20
-4.795989142523871
 30
0.0
 10
1.791000366210938
 20
-4.565061781141493
 30
0.0
 10
1.766903347439236
 20
-4.486745198567708
 30
0.0
 10
1.752844068739149
 20
-4.380325317382812
 30
0.0
 10
1.748830159505208
 20
-4.251810709635416
 30
0.0
 10
1.74635738796658
 20
-4.162778218587239
 30
0.0
 10
1.748624165852865
 20
-4.071745130750868
 30
0.0
 10
1.752293056911892
 20
-3.994629753960503
 30
0.0
 10
1.719732496473524
 20
-4.027975294325087
 30
0.0
 10
1.680015563964844
 20
-4.058092753092447
 30
0.0
 10
1.632474263509115
 20
-4.085139804416232
 30
0.0
 10
1.632474263509115
 20
-4.085139804416232
 30
0.0
 10
1.580265469021267
 20
-4.111248440212673
 30
0.0
 10
1.580265469021267
 20
-4.111248440212673
 30
0.0
 10
1.666609870062934
 20
-4.239762200249566
 30
0.0
 10
1.708780076768663
 20
-4.372289869520399
 30
0.0
 10
1.708780076768663
 20
-4.516866895887587
 30
0.0
 10
1.710783216688368
 20
-4.613255818684896
 30
0.0
 10
1.682672288682726
 20
-4.703614128960504
 30
0.0
 10
1.628460354275173
 20
-4.785943773057725
 30
0.0
 10
1.578255547417535
 20
-4.858235677083333
 30
0.0
 10
1.509984334309896
 20
-4.91847907172309
 30
0.0
 10
1.423640780978733
 20
-4.970694647894965
 30
0.0
 10
1.236893547905816
 20
-5.079118516710069
 30
0.0
 10
0.945721944173177
 20
-5.1453857421875
 30
0.0
 10
0.740902370876736
 20
-5.024898952907986
 30
0.0
 10
0.696729024251302
 20
-5.000801934136285
 30
0.0
 10
0.6625934176974826
 20
-4.966673956976996
 30
0.0
 10
0.6384963989257812
 20
-4.928524441189236
 30
0.0
 10
0.6123886108398438
 20
-4.886354234483506
 30
0.0
 10
0.6003468831380208
 20
-4.8381593492296
 30
0.0
 10
0.6003468831380208
 20
-4.783940633138021
 30
0.0
 10
0.6003468831380208
 20
-4.589158799913194
 30
0.0
 10
0.6706280178493923
 20
-4.442571851942274
 30
0.0
 10
0.8172081841362847
 20
-4.334141201443142
 30
0.0
 10
0.9396981133355035
 20
-4.243776109483507
 30
0.0
 10
1.098333570692274
 20
-4.193578084309896
 30
0.0
 10
1.252955966525608
 20
-4.145383199055989
 30
0.0
 10
1.194723341200087
 20
-4.077112833658854
 30
0.0
 10
1.12644534640842
 20
-4.008834838867188
 30
0.0
 10
1.056170993381076
 20
-3.936549716525608
 30
0.0
 10
0.9256464640299479
 20
-3.806025187174479
 30
0.0
 10
0.791107177734375
 20
-3.669475979275173
 30
0.0
 10
0.686690436469184
 20
-3.508836534288194
 30
0.0
 10
0.6746419270833333
 20
-3.492774115668403
 30
0.0
 10
0.6646041870117188
 20
-3.474701775444878
 30
0.0
 10
0.6545588175455729
 20
-3.458631727430555
 30
0.0
 10
0.6545588175455729
 20
-3.458631727430555
 30
0.0
 10
0.5441173977322048
 20
-3.500801934136284
 30
0.0
 10
0.5441173977322048
 20
-3.500801934136284
 30
0.0
 10
0.3613840738932291
 20
-3.567070007324219
 30
0.0
 10
0.2168078952365451
 20
-3.619277954101562
 30
0.0
 10
0.2168078952365451
 20
-3.816062927246094
 30
0.0
 10
0.2168078952365451
 20
-3.838150024414062
 30
0.0
 10
0.1987347073025174
 20
-3.85622321234809
 30
0.0
 10
0.1766476101345486
 20
-3.85622321234809
 30
0.0
 10
0.1545613606770833
 20
-3.85622321234809
 30
0.0
 10
0.1364881727430556
 20
-3.838150024414062
 30
0.0
 10
0.1364881727430556
 20
-3.816062927246094
 30
0.0
 10
0.1364881727430556
 20
-3.701608445909288
 30
0.0
 10
0.1766476101345486
 20
-3.615264044867621
 30
0.0
 10
0.2589781019422743
 20
-3.548996819390191
 30
0.0
 10
0.3292592366536458
 20
-3.492774115668403
 30
0.0
 10
0.41961669921875
 20
-3.460642496744792
 30
0.0
 10
0.5160064697265625
 20
-3.424496120876736
 30
0.0
 10
0.5160064697265625
 20
-3.424496120876736
 30
0.0
 10
0.6164093017578125
 20
-3.388350592719184
 30
0.0
 10
0.6164093017578125
 20
-3.388350592719184
 30
0.0
 10
0.5421142578125
 20
-3.239759657118055
 30
0.0
 10
0.5059678819444444
 20
-3.089158799913194
 30
0.0
 10
0.5059678819444444
 20
-2.930523342556424
 30
0.0
 10
0.5059678819444444
 20
-2.852206759982639
 30
0.0
 10
0.5200203789605035
 20
-2.781925625271267
 30
0.0
 10
0.546128167046441
 20
-2.719679090711805
 30
0.0
 10
0.5742390950520833
 20
-2.659435696072049
 30
0.0
 10
0.6143985324435763
 20
-2.611248440212674
 30
0.0
 10
0.6625934176974826
 20
-2.579115973578559
 30
0.0
 10
0.8051596747504339
 20
-2.486747741699219
 30
0.0
 10
1.014000786675347
 20
-2.53694576687283
 30
0.0
 10
1.05416022406684
 20
-2.721689012315538
 30
0.0
 10
1.070222642686632
 20
-2.797994825575087
 30
0.0
 10
1.068211873372396
 20
-2.896387736002604
 30
0.0
 10
1.050146314832899
 20
-3.004818386501736
 30
0.0
 10
1.026049296061198
 20
-3.137346055772569
 30
0.0
 10
0.971830579969618
 20
-3.241770426432292
 30
0.0
 10
0.8834754096137152
 20
-3.324093288845486
 30
0.0
 10
0.9738405015733507
 20
-3.496788024902344
 30
0.0
 10
1.120420667860243
 20
-3.633337232801649
 30
0.0
 10
1.262993706597222
 20
-3.765864902072483
 30
0.0
 10
1.357372707790798
 20
-3.854220072428385
 30
0.0
 10
1.45375484890408
 20
-3.944577534993489
 30
0.0
 10
1.532071431477865
 20
-4.044980367024739
 30
0.0
 10
1.639921400282118
 20
-3.995624118381076
 30
0.0
 10
1.724310133192274
 20
-3.932836744520399
 30
0.0
 10
1.762847900390625
 20
-3.835655212402344
 30
0.0
 10
1.764879014756944
 20
-3.812586466471354
 30
0.0
 10
1.766436258951823
 20
-3.798319498697917
 30
0.0
 10
1.766903347439236
 20
-3.795986599392361
 30
0.0
 10
1.778951856825087
 20
-3.727708604600694
 30
0.0
 10
2.048028733995225
 20
-3.731730143229167
 30
0.0
 10
2.044007195366754
 20
-3.874295552571614
 30
0.0
 10
2.044007195366754
 20
-3.87630632188585
 30
0.0
 10
2.029955546061198
 20
-3.988758511013454
 30
0.0
 10
2.027944776746962
 20
-4.167470296223958
 30
0.0
 10
2.027944776746962
 20
-4.629318237304688
 30
0.0
 10
2.100236680772569
 20
-4.643377516004774
 30
0.0
 10
2.214692009819879
 20
-4.265863206651476
 30
0.0
 10
2.247646755642361
 20
-4.156020270453559
 30
0.0
 10
2.273639255099826
 20
-4.044711642795138
 30
0.0
 10
2.291453043619792
 20
-3.96028815375434
 30
0.0
 10
2.186145358615451
 20
-3.842503017849392
 30
0.0
 10
2.104192097981771
 20
-3.689148796929253
 30
0.0
 10
2.104192097981771
 20
-3.466666327582465
 30
0.0
 10
2.104192097981771
 20
-3.41044447157118
 30
0.0
 10
2.116241455078125
 20
-3.354214986165364
 30
0.0
 10
2.140338473849826
 20
-3.308030870225694
 30
0.0
 10
2.164435492621528
 20
-3.259835984971788
 30
0.0
 10
2.200581868489583
 20
-3.221687316894531
 30
0.0
 10
2.240741305881076
 20
-3.19557868109809
 30
0.0
 10
2.276887681749132
 20
-3.173492431640625
 30
0.0
 10
2.317047119140625
 20
-3.161443922254774
 30
0.0
 10
2.359210544162326
 20
-3.161443922254774
 30
0.0
 10
2.564030117458767
 20
-3.14939456515842
 30
0.0
 10
2.606200324164496
 20
-3.322090148925781
 30
0.0
 10
2.58010016547309
 20
-3.498798794216579
 30
0.0
 10
2.564030117458767
 20
-3.595180935329861
 30
0.0
 10
2.531905280219184
 20
-3.689559936523438
 30
0.0
 10
2.483710394965278
 20
-3.777914259168837
 30
0.0
 10
2.545956929524739
 20
-3.858233133951823
 30
0.0
 10
2.628287421332465
 20
-3.920479668511284
 30
0.0
 10
2.714638604058159
 20
-3.982733832465278
 30
0.0
 10
2.76082271999783
 20
-4.016869439019097
 30
0.0
 10
2.809009975857205
 20
-4.051005045572916
 30
0.0
 10
2.851180182562934
 20
-4.089153713650173
 30
0.0
 10
2.959618462456597
 20
-4.004820929633246
 30
0.0
 10
3.05399661593967
 20
-3.916466606987847
 30
0.0
 10
3.086121453179253
 20
-3.797990587022569
 30
0.0
 10
3.087067498101128
 20
-3.794523451063368
 30
0.0
 10
3.088527255588108
 20
-3.791407267252604
 30
0.0
 10
3.090201483832465
 20
-3.788466559516059
 30
0.0
 10
3.098444620768229
 20
-3.57505374484592
 30
0.0
 10
3.110224405924479
 20
-3.361751980251736
 30
0.0
 10
3.120191786024305
 20
-3.173492431640625
 30
0.0
 10
3.120191786024305
 20
-3.173492431640625
 30
0.0
 10
3.136254204644097
 20
-2.892366197374132
 30
0.0
 10
3.136254204644097
 20
-2.892366197374132
 30
0.0
 10
2.971594068739149
 20
-2.872290717230903
 30
0.0
 10
2.720589531792534
 20
-2.848192850748698
 30
0.0
 10
2.694481743706597
 20
-2.966668870713975
 30
0.0
 10
2.682433234320746
 20
-3.01485612657335
 30
0.0
 10
2.523804558648003
 20
-2.998793707953559
 30
0.0
 10
2.537856207953559
 20
-2.946585761176215
 30
0.0
 10
2.55391862657335
 20
-2.886342366536458
 30
0.0
 10
2.594085693359375
 20
-2.842169019911024
 30
0.0
 10
2.658342997233073
 20
-2.818071153428819
 30
0.0
 10
2.71055179172092
 20
-2.795984903971354
 30
0.0
 10
2.780832926432292
 20
-2.785946316189236
 30
0.0
 10
2.869187249077691
 20
-2.787949456108941
 30
0.0
 10
2.94950697157118
 20
-2.787949456108941
 30
0.0
 10
3.041875203450521
 20
-2.797994825575087
 30
0.0
 10
3.140267266167534
 20
-2.812047322591146
 30
0.0
 10
3.144281175401475
 20
-2.741765340169271
 30
0.0
 10
3.146291944715712
 20
-2.643373277452257
 30
0.0
 10
3.146291944715712
 20
-2.59517839219835
 30
0.0
 10
3.146291944715712
 20
-2.508834838867188
 30
0.0
 10
3.41536882188585
 20
-2.500799391004774
 30
0.0
 10
3.423396640353733
 20
-2.643373277452257
 30
0.0
 10
3.427417331271701
 20
-2.697591993543837
 30
0.0
 10
3.423396640353733
 20
-2.77590094672309
 30
0.0
 10
3.421393500434028
 20
-2.856228298611111
 30
0.0
 10
3.724612765842014
 20
-2.910439385308159
 30
0.0
 10
4.071991814507379
 20
-2.972693549262153
 30
0.0
 10
4.347093370225695
 20
-2.954620361328125
 30
0.0
 10
4.636260986328125
 20
-2.936547173394097
 30
0.0
 10
4.668385823567708
 20
-2.810036553276909
 30
0.0
 10
4.744684007432725
 20
-2.615262349446614
 30
0.0
 10
4.778827243381076
 20
-2.528917948404948
 30
0.0
 10
5.017782423231337
 20
-2.516869439019097
 30
0.0
 10
4.973609076605903
 20
-2.643373277452257
 30
0.0
 10
4.881240844726562
 20
-2.910439385308159
 30
0.0
 10
4.636260986328125
 20
-3.016866895887587
 30
0.0
 10
4.353117201063368
 20
-3.034940083821614
 30
0.0
 10
4.316971672905816
 20
-3.03695085313585
 30
0.0
 10
4.282843695746528
 20
-3.038953993055555
 30
0.0
 10
4.246697319878472
 20
-3.038953993055555
 30
0.0
 10
3.995693630642361
 20
-3.038953993055555
 30
0.0
 10
3.706540425618489
 20
-2.988755967881944
 30
0.0
 10
3.449512057834201
 20
-2.942571851942274
 30
0.0
 10
3.437462700737847
 20
-2.942571851942274
 30
0.0
 10
3.427417331271701
 20
-2.940561082628038
 30
0.0
 10
3.417371961805555
 20
-2.938550313313802
 30
0.0
 10
3.417371961805555
 20
-2.938550313313802
 30
0.0
 10
3.401317172580295
 20
-3.199600219726562
 30
0.0
 10
3.401317172580295
 20
-3.199600219726562
 30
0.0
 10
3.383243984646267
 20
-3.512850443522135
 30
0.0
 10
3.361150105794271
 20
-3.90240732828776
 30
0.0
 10
3.361150105794271
 20
-4.239762200249566
 30
0.0
 10
3.361150105794271
 20
-4.557026333279079
 30
0.0
 10
3.371195475260417
 20
-5.071090698242188
 30
0.0
 10
3.497691684299045
 20
-4.85221184624566
 30
0.0
 10
3.557935078938802
 20
-4.747795104980469
 30
0.0
 10
3.622199164496528
 20
-4.605221218532986
 30
0.0
 10
3.686449686686198
 20
-4.424498664008246
 30
0.0
 10
3.714779324001736
 20
-4.345687866210938
 30
0.0
 10
3.740709940592448
 20
-4.266516791449653
 30
0.0
 10
3.763639662000868
 20
-4.192268371582031
 30
0.0
 10
3.713350084092882
 20
-4.021058824327257
 30
0.0
 10
3.707207573784722
 20
-3.821950276692708
 30
0.0
 10
3.774781968858507
 20
-3.647388882107204
 30
0.0
 10
3.800882127549913
 20
-3.587146335177951
 30
0.0
 10
3.833006964789496
 20
-3.538958231608073
 30
0.0
 10
3.875177171495225
 20
-3.506826612684462
 30
0.0
 10
3.91534423828125
 20
-3.474701775444878
 30
0.0
 10
3.961521572536892
 20
-3.454617818196614
 30
0.0
 10
4.00771247016059
 20
-3.446583218044704
 30
0.0
 10
4.053904215494791
 20
-3.440566168891059
 30
0.0
 10
4.096060011121962
 20
-3.444580078125
 30
0.0
 10
4.132205539279513
 20
-3.462652418348524
 30
0.0
 10
4.186425103081597
 20
-3.488753424750434
 30
0.0
 10
4.21854994032118
 20
-3.538958231608073
 30
0.0
 10
4.21854994032118
 20
-3.599194844563802
 30
0.0
 10
4.21854994032118
 20
-3.677510579427083
 30
0.0
 10
4.146272447374132
 20
-3.747792561848958
 30
0.0
 10
3.999685499403212
 20
-3.812049018012153
 30
0.0
 10
4.011734008789062
 20
-4.008834838867188
 30
0.0
 10
4.015740288628472
 20
-4.472693549262153
 30
0.0
 10
4.222570631239149
 20
-4.209640502929688
 30
0.0
 10
4.304907904730903
 20
-4.09919908311632
 30
0.0
 10
4.387230767144097
 20
-3.946588304307725
 30
0.0
 10
4.465547349717881
 20
-3.800000508626302
 30
0.0
 10
4.466538323296441
 20
-3.798018561469184
 30
0.0
 10
4.467764112684462
 20
-3.796250237358941
 30
0.0
 10
4.469011094835069
 20
-3.794508192274305
 30
0.0
 10
4.426606072319879
 20
-3.777091979980469
 30
0.0
 10
4.390015496148004
 20
-3.749507480197483
 30
0.0
 10
4.361057705349392
 20
-3.711646185980903
 30
0.0
 10
4.31888665093316
 20
-3.655424329969618
 30
0.0
 10
4.294804043240017
 20
-3.579118516710069
 30
0.0
 10
4.294804043240017
 20
-3.496788024902344
 30
0.0
 10
4.294804043240017
 20
-3.428517659505208
 30
0.0
 10
4.310859680175781
 20
-3.362249586317274
 30
0.0
 10
4.34098137749566
 20
-3.314054701063368
 30
0.0
 10
4.377126905653212
 20
-3.253818935818142
 30
0.0
 10
4.429328070746528
 20
-3.221687316894531
 30
0.0
 10
4.487568325466579
 20
-3.221687316894531
 30
0.0
 10
4.565884908040364
 20
-3.221687316894531
 30
0.0
 10
4.608055114746094
 20
-3.259835984971788
 30
0.0
 10
4.628131442599826
 20
-3.289957682291667
 30
0.0
 10
4.670301649305555
 20
-3.354214986165364
 30
0.0
 10
4.674322340223524
 20
-3.458631727430555
 30
0.0
 10
4.638176812065972
 20
-3.599194844563802
 30
0.0
 10
4.626128302680121
 20
-3.653413560655382
 30
0.0
 10
4.610058254665798
 20
-3.701608445909288
 30
0.0
 10
4.598009745279947
 20
-3.735744052463108
 30
0.0
 10
4.778739081488715
 20
-3.72971937391493
 30
0.0
 10
4.95343017578125
 20
-3.645378960503472
 30
0.0
 10
4.955433315700954
 20
-3.643375820583767
 30
0.0
 10
4.977528042263454
 20
-3.625302632649739
 30
0.0
 10
5.250625610351562
 20
-3.567070007324219
 30
0.0
 10
5.210458543565538
 20
-3.693572998046875
 30
0.0
 10
5.210458543565538
 20
-3.695583767361111
 30
0.0
 10
5.13816663953993
 20
-3.884341769748264
 30
0.0
 10
5.077923244900173
 20
-4.097189161512587
 30
0.0
 10
4.93736097547743
 20
-4.585144890679254
 30
0.0
 10
4.967482672797309
 20
-4.703614128960504
 30
0.0
 10
5.200413174099392
 20
-4.253813849555121
 30
0.0
 10
5.316893683539496
 20
-4.028917948404947
 30
0.0
 10
5.401219685872396
 20
-3.797990587022569
 30
0.0
 10
5.40323723687066
 20
-3.795986599392361
 30
0.0
 10
5.411265055338541
 20
-3.7759034898546
 30
0.0
 10
5.433358934190538
 20
-3.76385498046875
 30
0.0
 10
5.455438401963975
 20
-3.771889580620659
 30
0.0
 10
5.475514729817708
 20
-3.779917399088542
 30
0.0
 10
5.485560099283854
 20
-3.804014417860243
 30
0.0
 10
5.477532280815972
 20
-3.824098375108507
 30
0.0
  0
SPLINE
  5
4F
330
4A
100
AcDbEntity
  8
Layer 1
370
     0
100
AcDbSpline
210
0.0
220
0.0
230
1.0
 70
    11
 71
     3
 72
    14
 73
    10
 74
     0
 42
0.0000000001
 43
0.0000000001
 12
1.0
 22
0.0
 32
0.0
 13
1.0
 23
0.0
 33
0.0
 40
0.0
 40
0.0
 40
0.0
 40
0.0
 40
1.0
 40
1.0
 40
1.0
 40
2.0
 40
2.0
 40
2.0
 40
3.0
 40
3.0
 40
3.0
 40
3.0
 10
4.017757839626736
 20
-3.715660095214844
 30
0.0
 10
4.12618170844184
 20
-3.659438239203559
 30
0.0
 10
4.138230217827691
 20
-3.615264044867621
 30
0.0
 10
4.138230217827691
 20
-3.599194844563802
 30
0.0
 10
4.138230217827691
 20
-3.567070007324219
 30
0.0
 10
4.138230217827691
 20
-3.567070007324219
 30
0.0
 10
4.116150750054254
 20
-3.575096978081597
 30
0.0
 10
4.07196299235026
 20
-3.593170166015625
 30
0.0
 10
4.037834167480469
 20
-3.643375820583767
 30
0.0
 10
4.017757839626736
 20
-3.715660095214844
 30
0.0
  0
SPLINE
  5
50
330
4A
100
AcDbEntity
  8
Layer 1
370
     0
100
AcDbSpline
210
0.0
220
0.0
230
1.0
 70
    11
 71
     3
 72
    20
 73
    16
 74
     0
 42
0.0000000001
 43
0.0000000001
 12
1.0
 22
0.0
 32
0.0
 13
1.0
 23
0.0
 33
0.0
 40
0.0
 40
0.0
 40
0.0
 40
0.0
 40
1.0
 40
1.0
 40
1.0
 40
2.0
 40
2.0
 40
2.0
 40
3.0
 40
3.0
 40
3.0
 40
4.0
 40
4.0
 40
4.0
 40
5.0
 40
5.0
 40
5.0
 40
5.0
 10
0.8473298814561632
 20
-3.245784335666233
 30
0.0
 10
0.9055625067816839
 20
-3.185540941026475
 30
0.0
 10
0.9497434828016492
 20
-3.105221218532986
 30
0.0
 10
0.9698198106553819
 20
-2.99076673719618
 30
0.0
 10
0.9878929985894097
 20
-2.894376966688368
 30
0.0
 10
0.9878929985894097
 20
-2.804011874728733
 30
0.0
 10
0.9738405015733507
 20
-2.73775143093533
 30
0.0
 10
0.965805901421441
 20
-2.689557393391927
 30
0.0
 10
0.9216325547960069
 20
-2.601203070746528
 30
0.0
 10
0.86138916015625
 20
-2.651407877604167
 30
0.0
 10
0.8393020629882812
 20
-2.669481065538194
 30
0.0
 10
0.7870941162109375
 20
-2.731727600097656
 30
0.0
 10
0.7870941162109375
 20
-2.930523342556424
 30
0.0
 10
0.7870941162109375
 20
-3.048999362521701
 30
0.0
 10
0.8091803656684027
 20
-3.153416103786892
 30
0.0
 10
0.8473298814561632
 20
-3.245784335666233
 30
0.0
  0
SPLINE
  5
51
330
4A
100
AcDbEntity
  8
Layer 1
370
     0
100
AcDbSpline
210
0.0
220
0.0
230
1.0
 70
    11
 71
     3
 72
    23
 73
    19
 74
     0
 42
0.0000000001
 43
0.0000000001
 12
1.0
 22
0.0
 32
0.0
 13
1.0
 23
0.0
 33
0.0
 40
0.0
 40
0.0
 40
0.0
 40
0.0
 40
1.0
 40
1.0
 40
1.0
 40
2.0
 40
2.0
 40
2.0
 40
3.0
 40
3.0
 40
3.0
 40
4.0
 40
4.0
 40
4.0
 40
5.0
 40
5.0
 40
5.0
 40
6.0
 40
6.0
 40
6.0
 40
6.0
 10
1.42765384250217
 20
-4.516866895887587
 30
0.0
 10
1.42765384250217
 20
-4.410447014702691
 30
0.0
 10
1.3814697265625
 20
-4.310043334960938
 30
0.0
 10
1.307174682617188
 20
-4.211651272243923
 30
0.0
 10
1.307174682617188
 20
-4.211651272243923
 30
0.0
 10
1.287091573079427
 20
-4.21766832139757
 30
0.0
 10
1.287091573079427
 20
-4.21766832139757
 30
0.0
 10
1.136490715874566
 20
-4.265863206651476
 30
0.0
 10
0.9798651801215277
 20
-4.314057244194879
 30
0.0
 10
0.865403069390191
 20
-4.39839850531684
 30
0.0
 10
0.7388992309570312
 20
-4.492769877115885
 30
0.0
 10
0.6806666056315104
 20
-4.613255818684896
 30
0.0
 10
0.6806666056315104
 20
-4.783940633138021
 30
0.0
 10
0.6806666056315104
 20
-4.860238817003038
 30
0.0
 10
0.7148022121853298
 20
-4.916475931803385
 30
0.0
 10
0.7810694376627604
 20
-4.95662858751085
 30
0.0
 10
1.030063205295139
 20
-5.093184577094184
 30
0.0
 10
1.42765384250217
 20
-4.812059190538194
 30
0.0
 10
1.42765384250217
 20
-4.516866895887587
 30
0.0
  0
SPLINE
  5
52
330
4A
100
AcDbEntity
  8
Layer 1
370
     0
100
AcDbSpline
210
0.0
220
0.0
230
1.0
 70
    11
 71
     3
 72
    20
 73
    16
 74
     0
 42
0.0000000001
 43
0.0000000001
 12
1.0
 22
0.0
 32
0.0
 13
1.0
 23
0.0
 33
0.0
 40
0.0
 40
0.0
 40
0.0
 40
0.0
 40
1.0
 40
1.0
 40
1.0
 40
2.0
 40
2.0
 40
2.0
 40
3.0
 40
3.0
 40
3.0
 40
4.0
 40
4.0
 40
4.0
 40
5.0
 40
5.0
 40
5.0
 40
5.0
 10
2.433512369791667
 20
-3.697594536675347
 30
0.0
 10
2.465638054741753
 20
-3.62931654188368
 30
0.0
 10
2.489735073513455
 20
-3.5570314195421
 30
0.0
 10
2.499772813585069
 20
-3.486750284830729
 30
0.0
 10
2.51182132297092
 20
-3.408433702256944
 30
0.0
 10
2.509818183051215
 20
-3.340163336859809
 30
0.0
 10
2.491745842827691
 20
-3.297992282443576
 30
0.0
 10
2.479696485731337
 20
-3.273895263671875
 30
0.0
 10
2.461624145507812
 20
-3.253818935818142
 30
0.0
 10
2.435516357421875
 20
-3.271884494357639
 30
0.0
 10
2.423467000325521
 20
-3.281929863823784
 30
0.0
 10
2.385318332248264
 20
-3.322090148925781
 30
0.0
 10
2.385318332248264
 20
-3.466666327582465
 30
0.0
 10
2.385318332248264
 20
-3.559034559461805
 30
0.0
 10
2.403390672471788
 20
-3.633337232801649
 30
0.0
 10
2.433512369791667
 20
-3.697594536675347
 30
0.0
  0
SPLINE
  5
53
330
4A
100
AcDbEntity
  8
Layer 1
370
     0
100
AcDbSpline
210
0.0
220
0.0
230
1.0
 70
    11
 71
     3
 72
    14
 73
    10
 74
     0
 42
0.0000000001
 43
0.0000000001
 12
1.0
 22
0.0
 32
0.0
 13
1.0
 23
0.0
 33
0.0
 40
0.0
 40
0.0
 40
0.0
 40
0.0
 40
1.0
 40
1.0
 40
1.0
 40
2.0
 40
2.0
 40
2.0
 40
3.0
 40
3.0
 40
3.0
 40
3.0
 10
2.758811950683594
 20
-4.470682779947916
 30
0.0
 10
2.758811950683594
 20
-4.410447014702691
 30
0.0
 10
2.734714931911892
 20
-4.360241360134548
 30
0.0
 10
2.692544725206163
 20
-4.314057244194879
 30
0.0
 10
2.582103305392795
 20
-4.408436245388454
 30
0.0
 10
2.497769673665364
 20
-4.512852986653646
 30
0.0
 10
2.497769673665364
 20
-4.663453843858506
 30
0.0
 10
2.497769673665364
 20
-4.928524441189236
 30
0.0
 10
2.758811950683594
 20
-4.657430013020833
 30
0.0
 10
2.758811950683594
 20
-4.470682779947916
 30
0.0
  0
SPLINE
  5
54
330
4A
100
AcDbEntity
  8
Layer 1
370
     0
100
AcDbSpline
210
0.0
220
0.0
230
1.0
 70
    11
 71
     3
 72
    14
 73
    10
 74
     0
 42
0.0000000001
 43
0.0000000001
 12
1.0
 22
0.0
 32
0.0
 13
1.0
 23
0.0
 33
0.0
 40
0.0
 40
0.0
 40
0.0
 40
0.0
 40
1.0
 40
1.0
 40
1.0
 40
2.0
 40
2.0
 40
2.0
 40
3.0
 40
3.0
 40
3.0
 40
3.0
 10
4.487568325466579
 20
-3.302006191677517
 30
0.0
 10
4.367081536187066
 20
-3.336141798231337
 30
0.0
 10
4.435352749294704
 20
-3.717670864529079
 30
0.0
 10
4.515686882866754
 20
-3.725705464680989
 30
0.0
 10
4.527735392252604
 20
-3.693572998046875
 30
0.0
 10
4.545808580186631
 20
-3.639361911349826
 30
0.0
 10
4.561863369411892
 20
-3.581121656629774
 30
0.0
 10
4.575915018717447
 20
-3.520885891384548
 30
0.0
 10
4.61808607313368
 20
-3.26385752360026
 30
0.0
 10
4.487568325466579
 20
-3.302006191677517
 30
0.0
  0
ENDBLK
  5
4D
330
4A
100
AcDbEntity
  8
0
100
AcDbBlockEnd
  0
ENDSEC
  0
SECTION
  2
ENTITIES
  0
SPLINE
  5
41
330
1F
100
AcDbEntity
  8
Layer 1
370
     0
100
AcDbSpline
210
0.0
220
0.0
230
1.0
 70
    11
 71
     3
 72
   170
 73
   166
 74
     0
 42
0.0000000001
 43
0.0000000001
 12
1.0
 22
0.0
 32
0.0
 13
1.0
 23
0.0
 33
0.0
 40
0.0
 40
0.0
 40
0.0
 40
0.0
 40
1.0
 40
1.0
 40
1.0
 40
2.0
 40
2.0
 40
2.0
 40
3.0
 40
3.0
 40
3.0
 40
4.0
 40
4.0
 40
4.0
 40
5.0
 40
5.0
 40
5.0
 40
6.0
 40
6.0
 40
6.0
 40
7.0
 40
7.0
 40
7.0
 40
8.0
 40
8.0
 40
8.0
 40
9.0
 40
9.0
 40
9.0
 40
10.0
 40
10.0
 40
10.0
 40
11.0
 40
11.0
 40
11.0
 40
12.0
 40
12.0
 40
12.0
 40
13.0
 40
13.0
 40
13.0
 40
14.0
 40
14.0
 40
14.0
 40
15.0
 40
15.0
 40
15.0
 40
16.0
 40
16.0
 40
16.0
 40
17.0
 40
17.0
 40
17.0
 40
18.0
 40
18.0
 40
18.0
 40
19.0
 40
19.0
 40
19.0
 40
20.0
 40
20.0
 40
20.0
 40
21.0
 40
21.0
 40
21.0
 40
22.0
 40
22.0
 40
22.0
 40
23.0
 40
23.0
 40
23.0
 40
24.0
 40
24.0
 40
24.0
 40
25.0
 40
25.0
 40
25.0
 40
26.0
 40
26.0
 40
26.0
 40
27.0
 40
27.0
 40
27.0
 40
28.0
 40
28.0
 40
28.0
 40
29.0
 40
29.0
 40
29.0
 40
30.0
 40
30.0
 40
30.0
 40
31.0
 40
31.0
 40
31.0
 40
32.0
 40
32.0
 40
32.0
 40
33.0
 40
33.0
 40
33.0
 40
34.0
 40
34.0
 40
34.0
 40
35.0
 40
35.0
 40
35.0
 40
36.0
 40
36.0
 40
36.0
 40
37.0
 40
37.0
 40
37.0
 40
38.0
 40
38.0
 40
38.0
 40
39.0
 40
39.0
 40
39.0
 40
40.0
 40
40.0
 40
40.0
 40
41.0
 40
41.0
 40
41.0
 40
42.0
 40
42.0
 40
42.0
 40
43.0
 40
43.0
 40
43.0
 40
44.0
 40
44.0
 40
44.0
 40
45.0
 40
45.0
 40
45.0
 40
46.0
 40
46.0
 40
46.0
 40
47.0
 40
47.0
 40
47.0
 40
48.0
 40
48.0
 40
48.0
 40
49.0
 40
49.0
 40
49.0
 40
50.0
 40
50.0
 40
50.0
 40
51.0
 40
51.0
 40
51.0
 40
52.0
 40
52.0
 40
52.0
 40
53.0
 40
53.0
 40
53.0
 40
54.0
 40
54.0
 40
54.0
 40
55.0
 40
55.0
 40
55.0
 40
55.0
 10
1.966363694932726
 20
-2.131290011935764
 30
0.0
 10
1.966202629937066
 20
-2.140480041503906
 30
0.0
 10
1.980247497558594
 20
-2.148924933539496
 30
0.0
 10
2.008519490559896
 20
-2.156630622016059
 30
0.0
 10
2.261416965060764
 20
-2.223381042480469
 30
0.0
 10
2.386494954427083
 20
-2.336102803548177
 30
0.0
 10
2.383724636501736
 20
-2.49481201171875
 30
0.0
 10
2.382708231608073
 20
-2.553198072645399
 30
0.0
 10
2.371090359157986
 20
-2.613667805989583
 30
0.0
 10
2.348893907335069
 20
-2.676265292697483
 30
0.0
 10
2.326683044433594
 20
-2.738855997721354
 30
0.0
 10
2.293249342176649
 20
-2.796979268391927
 30
0.0
 10
2.24855719672309
 20
-2.850663926866319
 30
0.0
 10
2.203871832953559
 20
-2.904335021972656
 30
0.0
 10
2.147452460394965
 20
-2.947630988226996
 30
0.0
 10
2.079342312282986
 20
-2.980560302734375
 30
0.0
 10
2.011210123697917
 20
-3.013474358452691
 30
0.0
 10
1.93072255452474
 20
-3.029142591688368
 30
0.0
 10
1.837886386447483
 20
-3.027519226074219
 30
0.0
 10
1.789538065592448
 20
-3.026678297254774
 30
0.0
 10
1.744772169325087
 20
-3.019009060329861
 30
0.0
 10
1.70357428656684
 20
-3.004511515299479
 30
0.0
 10
1.662376403808594
 20
-2.990013122558594
 30
0.0
 10
1.629366556803385
 20
-2.968109130859375
 30
0.0
 10
1.604545593261719
 20
-2.938813951280382
 30
0.0
 10
1.579732259114583
 20
-2.909503512912326
 30
0.0
 10
1.567720201280382
 20
-2.871902465820312
 30
0.0
 10
1.568523830837673
 20
-2.826004028320312
 30
0.0
 10
1.569532606336805
 20
-2.768282572428385
 30
0.0
 10
1.59879896375868
 20
-2.717785305447049
 30
0.0
 10
1.656366984049479
 20
-2.674511379665799
 30
0.0
 10
1.713919745551215
 20
-2.631228976779514
 30
0.0
 10
1.780691358778212
 20
-2.6102540757921
 30
0.0
 10
1.856653849283854
 20
-2.611577351888021
 30
0.0
 10
1.89271969265408
 20
-2.612205505371094
 30
0.0
 10
1.910485161675347
 20
-2.627924601236979
 30
0.0
 10
1.909951951768663
 20
-2.658762613932292
 30
0.0
 10
1.909410264756944
 20
-2.689579433865017
 30
0.0
 10
1.891103956434462
 20
-2.704683939615885
 30
0.0
 10
1.855045742458767
 20
-2.704054938422309
 30
0.0
 10
1.803626166449653
 20
-2.703155517578125
 30
0.0
 10
1.762940300835503
 20
-2.713918050130208
 30
0.0
 10
1.733008490668403
 20
-2.73636966281467
 30
0.0
 10
1.703055487738715
 20
-2.758800082736545
 30
0.0
 10
1.687753465440538
 20
-2.789360894097222
 30
0.0
 10
1.687080383300781
 20
-2.828073289659288
 30
0.0
 10
1.686561584472656
 20
-2.857580396864149
 30
0.0
 10
1.698646545410156
 20
-2.879447937011719
 30
0.0
 10
1.723350524902344
 20
-2.893653021918403
 30
0.0
 10
1.748040093315972
 20
-2.90785895453559
 30
0.0
 10
1.775742424858941
 20
-2.915235731336805
 30
0.0
 10
1.806441413031684
 20
-2.915768941243489
 30
0.0
 10
1.883939107259115
 20
-2.917121887207031
 30
0.0
 10
1.943378024631076
 20
-2.876165601942274
 30
0.0
 10
1.984751383463542
 20
-2.792921278211805
 30
0.0
 10
2.020561218261719
 20
-2.720058865017361
 30
0.0
 10
2.039415995279948
 20
-2.629525926378038
 30
0.0
 10
2.041302151150174
 20
-2.521314832899305
 30
0.0
 10
2.042332967122396
 20
-2.462284511990017
 30
0.0
 10
2.028230455186632
 20
-2.412832472059462
 30
0.0
 10
1.998986138237847
 20
-2.372957865397135
 30
0.0
 10
1.96974860297309
 20
-2.333083258734809
 30
0.0
 10
1.932499355740017
 20
-2.300621880425347
 30
0.0
 10
1.887279934353298
 20
-2.275552537706163
 30
0.0
 10
1.842039320203993
 20
-2.250497606065538
 30
0.0
 10
1.79459720187717
 20
-2.230633205837674
 30
0.0
 10
1.744969685872396
 20
-2.215996636284722
 30
0.0
 10
1.705256144205729
 20
-2.204152425130208
 30
0.0
 10
1.685633341471354
 20
-2.185114542643229
 30
0.0
 10
1.68609364827474
 20
-2.158875359429254
 30
0.0
 10
1.686575995551215
 20
-2.131326463487413
 30
0.0
 10
1.721778869628906
 20
-2.093557569715712
 30
0.0
 10
1.791694641113281
 20
-2.045575459798177
 30
0.0
 10
1.88570064968533
 20
-1.980301751030816
 30
0.0
 10
1.95782470703125
 20
-1.916607326931423
 30
0.0
 10
2.00803714328342
 20
-1.854499816894531
 30
0.0
 10
2.086470709906684
 20
-1.758125305175781
 30
0.0
 10
2.126886155870225
 20
-1.642047458224826
 30
0.0
 10
2.129254659016927
 20
-1.506280687120226
 30
0.0
 10
2.13016849093967
 20
-1.45381588406033
 30
0.0
 10
2.118390401204427
 20
-1.413436889648438
 30
0.0
 10
2.093949211968316
 20
-1.385114034016927
 30
0.0
 10
2.069493611653646
 20
-1.356813218858507
 30
0.0
 10
2.038458082411024
 20
-1.342322455512153
 30
0.0
 10
2.000872294108073
 20
-1.341664632161458
 30
0.0
 10
1.924903021918403
 20
-1.340341356065538
 30
0.0
 10
1.856068929036458
 20
-1.369322035047743
 30
0.0
 10
1.794407314724392
 20
-1.428600735134548
 30
0.0
 10
1.732723659939236
 20
-1.48789299858941
 30
0.0
 10
1.683907402886285
 20
-1.568870544433594
 30
0.0
 10
1.647966172960069
 20
-1.671576605902778
 30
0.0
 10
1.612010531955295
 20
-1.774275885687934
 30
0.0
 10
1.592936197916667
 20
-1.889250013563368
 30
0.0
 10
1.590713500976562
 20
-2.016484578450521
 30
0.0
 10
1.590713500976562
 20
-2.016484578450521
 30
0.0
 10
1.587365044487847
 20
-2.208319769965278
 30
0.0
 10
1.587365044487847
 20
-2.208319769965278
 30
0.0
 10
1.584864298502604
 20
-2.351309882269965
 30
0.0
 10
1.573459201388889
 20
-2.499044630262587
 30
0.0
 10
1.553141276041667
 20
-2.651546902126736
 30
0.0
 10
1.546064588758681
 20
-2.704566955566406
 30
0.0
 10
1.520088195800781
 20
-2.741509331597222
 30
0.0
 10
1.4752197265625
 20
-2.762375725640191
 30
0.0
 10
1.443482293023003
 20
-2.776902940538194
 30
0.0
 10
1.410743713378906
 20
-2.783884684244792
 30
0.0
 10
1.376988728841146
 20
-2.783292134602864
 30
0.0
 10
1.301018608940972
 20
-2.781968858506944
 30
0.0
 10
1.247757805718316
 20
-2.754793802897135
 30
0.0
 10
1.217212253146701
 20
-2.701781378851996
 30
0.0
 10
1.204527113172743
 20
-2.680549621582031
 30
0.0
 10
1.198400709364149
 20
-2.658148871527778
 30
0.0
 10
1.198816935221354
 20
-2.63454098171658
 30
0.0
 10
1.198978000217014
 20
-2.625344170464409
 30
0.0
 10
1.200411478678385
 20
-2.608981662326389
 30
0.0
 10
1.203130933973524
 20
-2.585411071777344
 30
0.0
 10
1.218111673990885
 20
-2.47414313422309
 30
0.0
 10
1.227052476671007
 20
-2.336205376519097
 30
0.0
 10
1.229926215277778
 20
-2.171574062771267
 30
0.0
 10
1.233201768663194
 20
-1.9840087890625
 30
0.0
 10
1.223521762424045
 20
-1.768324110243055
 30
0.0
 10
1.200922648111979
 20
-1.524521721733941
 30
0.0
 10
1.195169236924913
 20
-1.458166334364149
 30
0.0
 10
1.190094841851128
 20
-1.407566494411892
 30
0.0
 10
1.185723198784722
 20
-1.372706943088108
 30
0.0
 10
1.181329515245226
 20
-1.337862650553385
 30
0.0
 10
1.179245842827691
 20
-1.314869350857205
 30
0.0
 10
1.179443359375
 20
-1.303712632921007
 30
0.0
 10
1.179984198676215
 20
-1.272889031304253
 30
0.0
 10
1.194423251681858
 20
-1.247234768337673
 30
0.0
 10
1.222812228732639
 20
-1.226726955837673
 30
0.0
 10
1.25117916531033
 20
-1.206233554416233
 30
0.0
 10
1.286470201280382
 20
-1.196349249945746
 30
0.0
 10
1.328684488932292
 20
-1.19707997639974
 30
0.0
 10
1.380081176757812
 20
-1.197979397243923
 30
0.0
 10
1.420599195692274
 20
-1.208207872178819
 30
0.0
 10
1.450194464789496
 20
-1.227743360731337
 30
0.0
 10
1.502555847167969
 20
-1.262112087673611
 30
0.0
 10
1.53521474202474
 20
-1.325667487250434
 30
0.0
 10
1.548184712727865
 20
-1.418401082356771
 30
0.0
 10
1.557674831814236
 20
-1.490079243977865
 30
0.0
 10
1.562163458930121
 20
-1.541330125596788
 30
0.0
 10
1.561622619628906
 20
-1.572153727213542
 30
0.0
 10
1.629330105251736
 20
-1.430318196614583
 30
0.0
 10
1.719805399576823
 20
-1.32627444797092
 30
0.0
 10
1.833039177788628
 20
-1.260014004177517
 30
0.0
 10
1.912137349446615
 20
-1.214158799913194
 30
0.0
 10
2.004235161675347
 20
-1.192145453559028
 30
0.0
 10
2.109375847710504
 20
-1.193980746799045
 30
0.0
 10
2.183042738172743
 20
-1.195267571343316
 30
0.0
 10
2.247065226236979
 20
-1.210006713867188
 30
0.0
 10
2.301460266113281
 20
-1.238176133897569
 30
0.0
 10
2.355840047200521
 20
-1.266353183322483
 30
0.0
 10
2.397783067491319
 20
-1.304158528645833
 30
0.0
 10
2.427283393012153
 20
-1.351570977105035
 30
0.0
 10
2.456769307454427
 20
-1.398997836642795
 30
0.0
 10
2.471011691623264
 20
-1.451893276638455
 30
0.0
 10
2.4699952867296
 20
-1.510264926486545
 30
0.0
 10
2.468174404568142
 20
-1.61454349093967
 30
0.0
 10
2.426384819878472
 20
-1.721745808919271
 30
0.0
 10
2.344639248318142
 20
-1.831843058268229
 30
0.0
 10
2.274657355414496
 20
-1.926411946614583
 30
0.0
 10
2.161431206597222
 20
-2.014971415201823
 30
0.0
 10
2.004944695366754
 20
-2.097520616319444
 30
0.0
 10
1.979384528266059
 20
-2.110848320855035
 30
0.0
 10
1.966524759928385
 20
-2.122115241156684
 30
0.0
 10
1.966363694932726
 20
-2.131290011935764
 30
0.0
  0
SPLINE
  5
42
330
1F
100
AcDbEntity
  8
Layer 1
370
     0
100
AcDbSpline
210
0.0
220
0.0
230
1.0
 70
    11
 71
     3
 72
    47
 73
    43
 74
     0
 42
0.0000000001
 43
0.0000000001
 12
1.0
 22
0.0
 32
0.0
 13
1.0
 23
0.0
 33
0.0
 40
0.0
 40
0.0
 40
0.0
 40
0.0
 40
1.0
 40
1.0
 40
1.0
 40
2.0
 40
2.0
 40
2.0
 40
3.0
 40
3.0
 40
3.0
 40
4.0
 40
4.0
 40
4.0
 40
5.0
 40
5.0
 40
5.0
 40
6.0
 40
6.0
 40
6.0
 40
7.0
 40
7.0
 40
7.0
 40
8.0
 40
8.0
 40
8.0
 40
9.0
 40
9.0
 40
9.0
 40
10.0
 40
10.0
 40
10.0
 40
11.0
 40
11.0
 40
11.0
 40
12.0
 40
12.0
 40
12.0
 40
13.0
 40
13.0
 40
13.0
 40
14.0
 40
14.0
 40
14.0
 40
14.0
 10
3.029431660970052
 20
-1.535137600368923
 30
0.0
 10
2.999807569715712
 20
-1.516903347439236
 30
0.0
 10
2.963127136230469
 20
-1.507406446668837
 30
0.0
 10
2.919392903645833
 20
-1.506646050347222
 30
0.0
 10
2.881784227159288
 20
-1.505988226996528
 30
0.0
 10
2.848285251193576
 20
-1.51229010687934
 30
0.0
 10
2.818894280327691
 20
-1.525552537706163
 30
0.0
 10
2.76086680094401
 20
-1.551448398166233
 30
0.0
 10
2.728639390733507
 20
-1.748686896430121
 30
0.0
 10
2.722205268012153
 20
-2.117274814181858
 30
0.0
 10
2.72017330593533
 20
-2.234018113878038
 30
0.0
 10
2.724611070421007
 20
-2.352852715386284
 30
0.0
 10
2.735562642415364
 20
-2.473748948838975
 30
0.0
 10
2.73875003390842
 20
-2.510552300347222
 30
0.0
 10
2.755727132161458
 20
-2.538722568088108
 30
0.0
 10
2.786470201280382
 20
-2.558279249403212
 30
0.0
 10
2.817220052083333
 20
-2.577836778428819
 30
0.0
 10
2.852539910210503
 20
-2.587977091471354
 30
0.0
 10
2.892444186740451
 20
-2.588671366373698
 30
0.0
 10
2.940792507595486
 20
-2.589512295193142
 30
0.0
 10
2.978604634602864
 20
-2.577383253309462
 30
0.0
 10
3.005919562445746
 20
-2.552269829644097
 30
0.0
 10
3.033203972710503
 20
-2.52716318766276
 30
0.0
 10
3.047153896755642
 20
-2.498869154188368
 30
0.0
 10
3.047709147135417
 20
-2.46738772922092
 30
0.0
 10
3.048001607259114
 20
-2.449680752224392
 30
0.0
 10
3.04718271891276
 20
-2.430320739746094
 30
0.0
 10
3.045252482096354
 20
-2.409279717339409
 30
0.0
 10
3.038117302788628
 20
-2.334363301595052
 30
0.0
 10
3.035631815592448
 20
-2.235911899142795
 30
0.0
 10
3.037736680772569
 20
-2.113926357693142
 30
0.0
 10
3.040134853786892
 20
-1.977516174316406
 30
0.0
 10
3.049112955729167
 20
-1.836609734429253
 30
0.0
 10
3.064700656467014
 20
-1.691236707899305
 30
0.0
 10
3.066542731391059
 20
-1.673550923665365
 30
0.0
 10
3.068326314290364
 20
-1.65783945719401
 30
0.0
 10
3.070139567057292
 20
-1.644094679090712
 30
0.0
 10
3.071894327799479
 20
-1.630349900987413
 30
0.0
 10
3.072888692220052
 20
-1.617569817437066
 30
0.0
 10
3.073093838161892
 20
-1.605769687228733
 30
0.0
 10
3.073590596516927
 20
-1.576912773980035
 30
0.0
 10
3.059055752224392
 20
-1.55336422390408
 30
0.0
 10
3.029431660970052
 20
-1.535137600368923
 30
0.0
  0
SPLINE
  5
43
330
1F
100
AcDbEntity
  8
Layer 1
370
     0
100
AcDbSpline
210
0.0
220
0.0
230
1.0
 70
    11
 71
     3
 72
    92
 73
    88
 74
     0
 42
0.0000000001
 43
0.0000000001
 12
1.0
 22
0.0
 32
0.0
 13
1.0
 23
0.0
 33
0.0
 40
0.0
 40
0.0
 40
0.0
 40
0.0
 40
1.0
 40
1.0
 40
1.0
 40
2.0
 40
2.0
 40
2.0
 40
3.0
 40
3.0
 40
3.0
 40
4.0
 40
4.0
 40
4.0
 40
5.0
 40
5.0
 40
5.0
 40
6.0
 40
6.0
 40
6.0
 40
7.0
 40
7.0
 40
7.0
 40
8.0
 40
8.0
 40
8.0
 40
9.0
 40
9.0
 40
9.0
 40
10.0
 40
10.0
 40
10.0
 40
11.0
 40
11.0
 40
11.0
 40
12.0
 40
12.0
 40
12.0
 40
13.0
 40
13.0
 40
13.0
 40
14.0
 40
14.0
 40
14.0
 40
15.0
 40
15.0
 40
15.0
 40
16.0
 40
16.0
 40
16.0
 40
17.0
 40
17.0
 40
17.0
 40
18.0
 40
18.0
 40
18.0
 40
19.0
 40
19.0
 40
19.0
 40
20.0
 40
20.0
 40
20.0
 40
21.0
 40
21.0
 40
21.0
 40
22.0
 40
22.0
 40
22.0
 40
23.0
 40
23.0
 40
23.0
 40
24.0
 40
24.0
 40
24.0
 40
25.0
 40
25.0
 40
25.0
 40
26.0
 40
26.0
 40
26.0
 40
27.0
 40
27.0
 40
27.0
 40
28.0
 40
28.0
 40
28.0
 40
29.0
 40
29.0
 40
29.0
 40
29.0
 10
4.114498562282986
 20
-1.990983751085069
 30
0.0
 10
4.035451253255208
 20
-1.98960198296441
 30
0.0
 10
3.956242879231771
 20
-1.99773915608724
 30
0.0
 10
3.876888699001736
 20
-2.015373229980469
 30
0.0
 10
3.842965020073784
 20
-2.023312886555989
 30
0.0
 10
3.825813293457031
 20
-2.039082845052083
 30
0.0
 10
3.825403849283854
 20
-2.062697516547309
 30
0.0
 10
3.825213962131076
 20
-2.073196411132812
 30
0.0
 10
3.830390082465278
 20
-2.083936055501302
 30
0.0
 10
3.840961880154079
 20
-2.094946967230903
 30
0.0
 10
3.85150400797526
 20
-2.10595703125
 30
0.0
 10
3.868290371365017
 20
-2.111667209201389
 30
0.0
 10
3.891320122612847
 20
-2.112062242296007
 30
0.0
 10
3.898222181532118
 20
-2.112186855740017
 30
0.0
 10
3.905153062608507
 20
-2.111323886447483
 30
0.0
 10
3.912083943684896
 20
-2.109474182128906
 30
0.0
 10
3.972180684407552
 20
-2.096745808919271
 30
0.0
 10
4.02294921875
 20
-2.090743170844184
 30
0.0
 10
4.064388699001736
 20
-2.091467115614149
 30
0.0
 10
4.091234842936197
 20
-2.091935051812066
 30
0.0
 10
4.104394700792101
 20
-2.107909308539496
 30
0.0
 10
4.103838602701822
 20
-2.139390733506944
 30
0.0
 10
4.102581448025173
 20
-2.211551242404514
 30
0.0
 10
4.091102600097656
 20
-2.275808546278212
 30
0.0
 10
4.069389343261719
 20
-2.332162645128038
 30
0.0
 10
4.047689649793837
 20
-2.388537936740451
 30
0.0
 10
4.021442837185329
 20
-2.429582383897569
 30
0.0
 10
3.990677727593316
 20
-2.45528072781033
 30
0.0
 10
3.959898206922743
 20
-2.480986701117621
 30
0.0
 10
3.922655741373698
 20
-2.49345228407118
 30
0.0
 10
3.878920661078559
 20
-2.492691887749566
 30
0.0
 10
3.816762288411458
 20
-2.491609361436632
 30
0.0
 10
3.768172370062934
 20
-2.460252549913194
 30
0.0
 10
3.733181423611111
 20
-2.398627387152778
 30
0.0
 10
3.686288621690538
 20
-2.314498901367188
 30
0.0
 10
3.664457533094618
 20
-2.179945203993055
 30
0.0
 10
3.667689005533854
 20
-1.994990030924479
 30
0.0
 10
3.670555114746094
 20
-1.831038581000434
 30
0.0
 10
3.702533298068576
 20
-1.713506062825521
 30
0.0
 10
3.763654073079427
 20
-1.642398410373264
 30
0.0
 10
3.798923068576389
 20
-1.600374009874132
 30
0.0
 10
3.836516486273871
 20
-1.579698350694444
 30
0.0
 10
3.876420762803819
 20
-1.580400254991319
 30
0.0
 10
3.926296657986111
 20
-1.581270005967882
 30
0.0
 10
3.974125332302517
 20
-1.611304389105903
 30
0.0
 10
4.019922044542101
 20
-1.670487297905816
 30
0.0
 10
4.054445054796007
 20
-1.714390224880642
 30
0.0
 10
4.080370585123697
 20
-1.769625345865885
 30
0.0
 10
4.097624884711371
 20
-1.836185879177517
 30
0.0
 10
4.104116651746962
 20
-1.859917534722222
 30
0.0
 10
4.123856438530816
 20
-1.872068617078993
 30
0.0
 10
4.156858656141493
 20
-1.872645907931858
 30
0.0
 10
4.219017876519097
 20
-1.873728434244792
 30
0.0
 10
4.250411139594184
 20
-1.85591803656684
 30
0.0
 10
4.25105455186632
 20
-1.819179958767361
 30
0.0
 10
4.251288519965278
 20
-1.80607181125217
 30
0.0
 10
4.243334452311197
 20
-1.777390374077691
 30
0.0
 10
4.227220323350695
 20
-1.733150906032986
 30
0.0
 10
4.159139845106337
 20
-1.544342041015625
 30
0.0
 10
4.028783162434896
 20
-1.448237948947483
 30
0.0
 10
3.836179945203993
 20
-1.444875081380208
 30
0.0
 10
3.715708414713542
 20
-1.442769368489583
 30
0.0
 10
3.615736219618055
 20
-1.475150214301215
 30
0.0
 10
3.5362794664171
 20
-1.541987948947483
 30
0.0
 10
3.405411614312066
 20
-1.651887681749132
 30
0.0
 10
3.338032192654079
 20
-1.818003336588542
 30
0.0
 10
3.334142896864149
 20
-2.040340847439236
 30
0.0
 10
3.329390631781684
 20
-2.312532212999132
 30
0.0
 10
3.41683112250434
 20
-2.491850958930121
 30
0.0
 10
3.596478780110677
 20
-2.578297085232205
 30
0.0
 10
3.661167568630642
 20
-2.609596252441406
 30
0.0
 10
3.733050028483073
 20
-2.625951131184896
 30
0.0
 10
3.812082926432292
 20
-2.627332899305555
 30
0.0
 10
3.920287238226996
 20
-2.629219055175781
 30
0.0
 10
4.010491265190972
 20
-2.606839497884114
 30
0.0
 10
4.08268059624566
 20
-2.560217115614149
 30
0.0
 10
4.139355977376302
 20
-2.523164537217882
 30
0.0
 10
4.180751376681857
 20
-2.471562703450521
 30
0.0
 10
4.206852383083767
 20
-2.405419243706597
 30
0.0
 10
4.232952541775173
 20
-2.339297824435764
 30
0.0
 10
4.247501797146267
 20
-2.286563449435764
 30
0.0
 10
4.250484890407986
 20
-2.247251722547743
 30
0.0
 10
4.254505581325954
 20
-2.192213270399305
 30
0.0
 10
4.256874084472656
 20
-2.145020378960504
 30
0.0
 10
4.257561577690972
 20
-2.105664571126302
 30
0.0
 10
4.258878072102864
 20
-2.030894809299045
 30
0.0
 10
4.211179945203993
 20
-1.992672390407986
 30
0.0
 10
4.114498562282986
 20
-1.990983751085069
 30
0.0
  0
SPLINE
  5
44
330
1F
100
AcDbEntity
  8
Layer 1
370
     0
100
AcDbSpline
210
0.0
220
0.0
230
1.0
 70
    11
 71
     3
 72
    62
 73
    58
 74
     0
 42
0.0000000001
 43
0.0000000001
 12
1.0
 22
0.0
 32
0.0
 13
1.0
 23
0.0
 33
0.0
 40
0.0
 40
0.0
 40
0.0
 40
0.0
 40
1.0
 40
1.0
 40
1.0
 40
2.0
 40
2.0
 40
2.0
 40
3.0
 40
3.0
 40
3.0
 40
4.0
 40
4.0
 40
4.0
 40
5.0
 40
5.0
 40
5.0
 40
6.0
 40
6.0
 40
6.0
 40
7.0
 40
7.0
 40
7.0
 40
8.0
 40
8.0
 40
8.0
 40
9.0
 40
9.0
 40
9.0
 40
10.0
 40
10.0
 40
10.0
 40
11.0
 40
11.0
 40
11.0
 40
12.0
 40
12.0
 40
12.0
 40
13.0
 40
13.0
 40
13.0
 40
14.0
 40
14.0
 40
14.0
 40
15.0
 40
15.0
 40
15.0
 40
16.0
 40
16.0
 40
16.0
 40
17.0
 40
17.0
 40
17.0
 40
18.0
 40
18.0
 40
18.0
 40
19.0
 40
19.0
 40
19.0
 40
19.0
 10
1.000115288628472
 20
-2.111951192220052
 30
0.0
 10
0.9596549140082464
 20
-2.049468146430121
 30
0.0
 10
0.8915184868706597
 20
-1.994521247016059
 30
0.0
 10
0.8337665134006076
 20
-1.977748446994358
 30
0.0
 10
0.8161468505859375
 20
-1.97271474202474
 30
0.0
 10
0.7777074178059895
 20
-1.967944675021701
 30
0.0
 10
0.7610812717013888
 20
-1.96893564860026
 30
0.0
 10
0.742047627766927
 20
-1.969884236653646
 30
0.0
 10
0.7113571166992188
 20
-1.975817362467448
 30
0.0
 10
0.6960262722439235
 20
-1.981514824761285
 30
0.0
 10
0.6691292656792535
 20
-1.991580539279514
 30
0.0
 10
0.6460096571180555
 20
-2.008714463975694
 30
0.0
 10
0.6344231499565972
 20
-2.027353922526042
 30
0.0
 10
0.6186854044596354
 20
-2.052723354763455
 30
0.0
 10
0.6123936971028645
 20
-2.069630093044705
 30
0.0
 10
0.6074371337890625
 20
-2.099436442057292
 30
0.0
 10
0.6018702189127604
 20
-2.133349948459201
 30
0.0
 10
0.6039988199869791
 20
-2.151509602864583
 30
0.0
 10
0.6170874701605903
 20
-2.178540547688802
 30
0.0
 10
0.6239081488715278
 20
-2.192674424913194
 30
0.0
 10
0.6427722507052951
 20
-2.216155158148871
 30
0.0
 10
0.6549046834309895
 20
-2.225621541341146
 30
0.0
 10
0.6648432413736979
 20
-2.23360612657335
 30
0.0
 10
0.6855400933159722
 20
-2.244765387641059
 30
0.0
 10
0.6980243259006076
 20
-2.249036153157552
 30
0.0
 10
0.7050306532118055
 20
-2.251336839463975
 30
0.0
 10
0.7137391832139757
 20
-2.253471374511719
 30
0.0
 10
0.7676722208658854
 20
-2.265582614474826
 30
0.0
 10
0.8064710828993055
 20
-2.274290296766493
 30
0.0
 10
0.8420893351236979
 20
-2.284624735514323
 30
0.0
 10
0.8612484402126735
 20
-2.292721218532986
 30
0.0
 10
0.8853573269314235
 20
-2.302813212076823
 30
0.0
 10
0.9200575086805555
 20
-2.324974907769097
 30
0.0
 10
0.9488457573784722
 20
-2.348777770996094
 30
0.0
 10
0.9836256239149305
 20
-2.377459208170573
 30
0.0
 10
1.026670667860243
 20
-2.414086235894097
 30
0.0
 10
1.035578409830729
 20
-2.422653198242188
 30
0.0
 10
1.040923224555121
 20
-2.427646213107639
 30
0.0
 10
1.049620734320746
 20
-2.436916775173611
 30
0.0
 10
1.05507575141059
 20
-2.443289862738715
 30
0.0
 10
1.060326470269097
 20
-2.449633280436198
 30
0.0
 10
1.065054999457465
 20
-2.454534742567274
 30
0.0
 10
1.065526326497396
 20
-2.454185485839844
 30
0.0
 10
1.066116333007812
 20
-2.453748067220052
 30
0.0
 10
1.067580329047309
 20
-2.454490661621094
 30
0.0
 10
1.069189283582899
 20
-2.455674065483941
 30
0.0
 10
1.072462293836806
 20
-2.458365546332465
 30
0.0
 10
1.084481981065538
 20
-2.456582811143663
 30
0.0
 10
1.089349534776476
 20
-2.452794392903646
 30
0.0
 10
1.094805399576823
 20
-2.448567708333333
 30
0.0
 10
1.096783108181424
 20
-2.441619025336371
 30
0.0
 10
1.096112569173177
 20
-2.430603875054253
 30
0.0
 10
1.089100307888455
 20
-2.331635369194878
 30
0.0
 10
1.081415812174479
 20
-2.288719177246094
 30
0.0
 10
1.059627109103733
 20
-2.227017720540364
 30
0.0
 10
1.048009236653646
 20
-2.194327460394965
 30
0.0
 10
1.026749504937066
 20
-2.153067694769965
 30
0.0
 10
1.000115288628472
 20
-2.111951192220052
 30
0.0
  0
HATCH
  5
45
330
1F
100
AcDbEntity
  8
Layer 1
 62
   250
420
  1250067
100
AcDbHatch
 10
0.0
 20
0.0
 30
0.0
210
0.0
220
0.0
230
1.0
  2
SOLID
 70
     1
 71
     0
 91
        4
 92
        1
 93
        1
 72
     4
 94
        3
 73
     0
 74
     1
 95
      170
 96
      166
 40
0.0
 40
0.0
 40
0.0
 40
0.0
 40
1.0
 40
1.0
 40
1.0
 40
2.0
 40
2.0
 40
2.0
 40
3.0
 40
3.0
 40
3.0
 40
4.0
 40
4.0
 40
4.0
 40
5.0
 40
5.0
 40
5.0
 40
6.0
 40
6.0
 40
6.0
 40
7.0
 40
7.0
 40
7.0
 40
8.0
 40
8.0
 40
8.0
 40
9.0
 40
9.0
 40
9.0
 40
10.0
 40
10.0
 40
10.0
 40
11.0
 40
11.0
 40
11.0
 40
12.0
 40
12.0
 40
12.0
 40
13.0
 40
13.0
 40
13.0
 40
14.0
 40
14.0
 40
14.0
 40
15.0
 40
15.0
 40
15.0
 40
16.0
 40
16.0
 40
16.0
 40
17.0
 40
17.0
 40
17.0
 40
18.0
 40
18.0
 40
18.0
 40
19.0
 40
19.0
 40
19.0
 40
20.0
 40
20.0
 40
20.0
 40
21.0
 40
21.0
 40
21.0
 40
22.0
 40
22.0
 40
22.0
 40
23.0
 40
23.0
 40
23.0
 40
24.0
 40
24.0
 40
24.0
 40
25.0
 40
25.0
 40
25.0
 40
26.0
 40
26.0
 40
26.0
 40
27.0
 40
27.0
 40
27.0
 40
28.0
 40
28.0
 40
28.0
 40
29.0
 40
29.0
 40
29.0
 40
30.0
 40
30.0
 40
30.0
 40
31.0
 40
31.0
 40
31.0
 40
32.0
 40
32.0
 40
32.0
 40
33.0
 40
33.0
 40
33.0
 40
34.0
 40
34.0
 40
34.0
 40
35.0
 40
35.0
 40
35.0
 40
36.0
 40
36.0
 40
36.0
 40
37.0
 40
37.0
 40
37.0
 40
38.0
 40
38.0
 40
38.0
 40
39.0
 40
39.0
 40
39.0
 40
40.0
 40
40.0
 40
40.0
 40
41.0
 40
41.0
 40
41.0
 40
42.0
 40
42.0
 40
42.0
 40
43.0
 40
43.0
 40
43.0
 40
44.0
 40
44.0
 40
44.0
 40
45.0
 40
45.0
 40
45.0
 40
46.0
 40
46.0
 40
46.0
 40
47.0
 40
47.0
 40
47.0
 40
48.0
 40
48.0
 40
48.0
 40
49.0
 40
49.0
 40
49.0
 40
50.0
 40
50.0
 40
50.0
 40
51.0
 40
51.0
 40
51.0
 40
52.0
 40
52.0
 40
52.0
 40
53.0
 40
53.0
 40
53.0
 40
54.0
 40
54.0
 40
54.0
 40
55.0
 40
55.0
 40
55.0
 40
55.0
 10
1.966363694932726
 20
-2.131290011935764
 10
1.966202629937066
 20
-2.140480041503906
 10
1.980247497558594
 20
-2.148924933539496
 10
2.008519490559896
 20
-2.156630622016059
 10
2.261416965060764
 20
-2.223381042480469
 10
2.386494954427083
 20
-2.336102803548177
 10
2.383724636501736
 20
-2.49481201171875
 10
2.382708231608073
 20
-2.553198072645399
 10
2.371090359157986
 20
-2.613667805989583
 10
2.348893907335069
 20
-2.676265292697483
 10
2.326683044433594
 20
-2.738855997721354
 10
2.293249342176649
 20
-2.796979268391927
 10
2.24855719672309
 20
-2.850663926866319
 10
2.203871832953559
 20
-2.904335021972656
 10
2.147452460394965
 20
-2.947630988226996
 10
2.079342312282986
 20
-2.980560302734375
 10
2.011210123697917
 20
-3.013474358452691
 10
1.93072255452474
 20
-3.029142591688368
 10
1.837886386447483
 20
-3.027519226074219
 10
1.789538065592448
 20
-3.026678297254774
 10
1.744772169325087
 20
-3.019009060329861
 10
1.70357428656684
 20
-3.004511515299479
 10
1.662376403808594
 20
-2.990013122558594
 10
1.629366556803385
 20
-2.968109130859375
 10
1.604545593261719
 20
-2.938813951280382
 10
1.579732259114583
 20
-2.909503512912326
 10
1.567720201280382
 20
-2.871902465820312
 10
1.568523830837673
 20
-2.826004028320312
 10
1.569532606336805
 20
-2.768282572428385
 10
1.59879896375868
 20
-2.717785305447049
 10
1.656366984049479
 20
-2.674511379665799
 10
1.713919745551215
 20
-2.631228976779514
 10
1.780691358778212
 20
-2.6102540757921
 10
1.856653849283854
 20
-2.611577351888021
 10
1.89271969265408
 20
-2.612205505371094
 10
1.910485161675347
 20
-2.627924601236979
 10
1.909951951768663
 20
-2.658762613932292
 10
1.909410264756944
 20
-2.689579433865017
 10
1.891103956434462
 20
-2.704683939615885
 10
1.855045742458767
 20
-2.704054938422309
 10
1.803626166449653
 20
-2.703155517578125
 10
1.762940300835503
 20
-2.713918050130208
 10
1.733008490668403
 20
-2.73636966281467
 10
1.703055487738715
 20
-2.758800082736545
 10
1.687753465440538
 20
-2.789360894097222
 10
1.687080383300781
 20
-2.828073289659288
 10
1.686561584472656
 20
-2.857580396864149
 10
1.698646545410156
 20
-2.879447937011719
 10
1.723350524902344
 20
-2.893653021918403
 10
1.748040093315972
 20
-2.90785895453559
 10
1.775742424858941
 20
-2.915235731336805
 10
1.806441413031684
 20
-2.915768941243489
 10
1.883939107259115
 20
-2.917121887207031
 10
1.943378024631076
 20
-2.876165601942274
 10
1.984751383463542
 20
-2.792921278211805
 10
2.020561218261719
 20
-2.720058865017361
 10
2.039415995279948
 20
-2.629525926378038
 10
2.041302151150174
 20
-2.521314832899305
 10
2.042332967122396
 20
-2.462284511990017
 10
2.028230455186632
 20
-2.412832472059462
 10
1.998986138237847
 20
-2.372957865397135
 10
1.96974860297309
 20
-2.333083258734809
 10
1.932499355740017
 20
-2.300621880425347
 10
1.887279934353298
 20
-2.275552537706163
 10
1.842039320203993
 20
-2.250497606065538
 10
1.79459720187717
 20
-2.230633205837674
 10
1.744969685872396
 20
-2.215996636284722
 10
1.705256144205729
 20
-2.204152425130208
 10
1.685633341471354
 20
-2.185114542643229
 10
1.68609364827474
 20
-2.158875359429254
 10
1.686575995551215
 20
-2.131326463487413
 10
1.721778869628906
 20
-2.093557569715712
 10
1.791694641113281
 20
-2.045575459798177
 10
1.88570064968533
 20
-1.980301751030816
 10
1.95782470703125
 20
-1.916607326931423
 10
2.00803714328342
 20
-1.854499816894531
 10
2.086470709906684
 20
-1.758125305175781
 10
2.126886155870225
 20
-1.642047458224826
 10
2.129254659016927
 20
-1.506280687120226
 10
2.13016849093967
 20
-1.45381588406033
 10
2.118390401204427
 20
-1.413436889648438
 10
2.093949211968316
 20
-1.385114034016927
 10
2.069493611653646
 20
-1.356813218858507
 10
2.038458082411024
 20
-1.342322455512153
 10
2.000872294108073
 20
-1.341664632161458
 10
1.924903021918403
 20
-1.340341356065538
 10
1.856068929036458
 20
-1.369322035047743
 10
1.794407314724392
 20
-1.428600735134548
 10
1.732723659939236
 20
-1.48789299858941
 10
1.683907402886285
 20
-1.568870544433594
 10
1.647966172960069
 20
-1.671576605902778
 10
1.612010531955295
 20
-1.774275885687934
 10
1.592936197916667
 20
-1.889250013563368
 10
1.590713500976562
 20
-2.016484578450521
 10
1.590713500976562
 20
-2.016484578450521
 10
1.587365044487847
 20
-2.208319769965278
 10
1.587365044487847
 20
-2.208319769965278
 10
1.584864298502604
 20
-2.351309882269965
 10
1.573459201388889
 20
-2.499044630262587
 10
1.553141276041667
 20
-2.651546902126736
 10
1.546064588758681
 20
-2.704566955566406
 10
1.520088195800781
 20
-2.741509331597222
 10
1.4752197265625
 20
-2.762375725640191
 10
1.443482293023003
 20
-2.776902940538194
 10
1.410743713378906
 20
-2.783884684244792
 10
1.376988728841146
 20
-2.783292134602864
 10
1.301018608940972
 20
-2.781968858506944
 10
1.247757805718316
 20
-2.754793802897135
 10
1.217212253146701
 20
-2.701781378851996
 10
1.204527113172743
 20
-2.680549621582031
 10
1.198400709364149
 20
-2.658148871527778
 10
1.198816935221354
 20
-2.63454098171658
 10
1.198978000217014
 20
-2.625344170464409
 10
1.200411478678385
 20
-2.608981662326389
 10
1.203130933973524
 20
-2.585411071777344
 10
1.218111673990885
 20
-2.47414313422309
 10
1.227052476671007
 20
-2.336205376519097
 10
1.229926215277778
 20
-2.171574062771267
 10
1.233201768663194
 20
-1.9840087890625
 10
1.223521762424045
 20
-1.768324110243055
 10
1.200922648111979
 20
-1.524521721733941
 10
1.195169236924913
 20
-1.458166334364149
 10
1.190094841851128
 20
-1.407566494411892
 10
1.185723198784722
 20
-1.372706943088108
 10
1.181329515245226
 20
-1.337862650553385
 10
1.179245842827691
 20
-1.314869350857205
 10
1.179443359375
 20
-1.303712632921007
 10
1.179984198676215
 20
-1.272889031304253
 10
1.194423251681858
 20
-1.247234768337673
 10
1.222812228732639
 20
-1.226726955837673
 10
1.25117916531033
 20
-1.206233554416233
 10
1.286470201280382
 20
-1.196349249945746
 10
1.328684488932292
 20
-1.19707997639974
 10
1.380081176757812
 20
-1.197979397243923
 10
1.420599195692274
 20
-1.208207872178819
 10
1.450194464789496
 20
-1.227743360731337
 10
1.502555847167969
 20
-1.262112087673611
 10
1.53521474202474
 20
-1.325667487250434
 10
1.548184712727865
 20
-1.418401082356771
 10
1.557674831814236
 20
-1.490079243977865
 10
1.562163458930121
 20
-1.541330125596788
 10
1.561622619628906
 20
-1.572153727213542
 10
1.629330105251736
 20
-1.430318196614583
 10
1.719805399576823
 20
-1.32627444797092
 10
1.833039177788628
 20
-1.260014004177517
 10
1.912137349446615
 20
-1.214158799913194
 10
2.004235161675347
 20
-1.192145453559028
 10
2.109375847710504
 20
-1.193980746799045
 10
2.183042738172743
 20
-1.195267571343316
 10
2.247065226236979
 20
-1.210006713867188
 10
2.301460266113281
 20
-1.238176133897569
 10
2.355840047200521
 20
-1.266353183322483
 10
2.397783067491319
 20
-1.304158528645833
 10
2.427283393012153
 20
-1.351570977105035
 10
2.456769307454427
 20
-1.398997836642795
 10
2.471011691623264
 20
-1.451893276638455
 10
2.4699952867296
 20
-1.510264926486545
 10
2.468174404568142
 20
-1.61454349093967
 10
2.426384819878472
 20
-1.721745808919271
 10
2.344639248318142
 20
-1.831843058268229
 10
2.274657355414496
 20
-1.926411946614583
 10
2.161431206597222
 20
-2.014971415201823
 10
2.004944695366754
 20
-2.097520616319444
 10
1.979384528266059
 20
-2.110848320855035
 10
1.966524759928385
 20
-2.122115241156684
 10
1.966363694932726
 20
-2.131290011935764
 97
        0
 97
        0
 92
        1
 93
        1
 72
     4
 94
        3
 73
     0
 74
     1
 95
       47
 96
       43
 40
0.0
 40
0.0
 40
0.0
 40
0.0
 40
1.0
 40
1.0
 40
1.0
 40
2.0
 40
2.0
 40
2.0
 40
3.0
 40
3.0
 40
3.0
 40
4.0
 40
4.0
 40
4.0
 40
5.0
 40
5.0
 40
5.0
 40
6.0
 40
6.0
 40
6.0
 40
7.0
 40
7.0
 40
7.0
 40
8.0
 40
8.0
 40
8.0
 40
9.0
 40
9.0
 40
9.0
 40
10.0
 40
10.0
 40
10.0
 40
11.0
 40
11.0
 40
11.0
 40
12.0
 40
12.0
 40
12.0
 40
13.0
 40
13.0
 40
13.0
 40
14.0
 40
14.0
 40
14.0
 40
14.0
 10
3.029431660970052
 20
-1.535137600368923
 10
2.999807569715712
 20
-1.516903347439236
 10
2.963127136230469
 20
-1.507406446668837
 10
2.919392903645833
 20
-1.506646050347222
 10
2.881784227159288
 20
-1.505988226996528
 10
2.848285251193576
 20
-1.51229010687934
 10
2.818894280327691
 20
-1.525552537706163
 10
2.76086680094401
 20
-1.551448398166233
 10
2.728639390733507
 20
-1.748686896430121
 10
2.722205268012153
 20
-2.117274814181858
 10
2.72017330593533
 20
-2.234018113878038
 10
2.724611070421007
 20
-2.352852715386284
 10
2.735562642415364
 20
-2.473748948838975
 10
2.73875003390842
 20
-2.510552300347222
 10
2.755727132161458
 20
-2.538722568088108
 10
2.786470201280382
 20
-2.558279249403212
 10
2.817220052083333
 20
-2.577836778428819
 10
2.852539910210503
 20
-2.587977091471354
 10
2.892444186740451
 20
-2.588671366373698
 10
2.940792507595486
 20
-2.589512295193142
 10
2.978604634602864
 20
-2.577383253309462
 10
3.005919562445746
 20
-2.552269829644097
 10
3.033203972710503
 20
-2.52716318766276
 10
3.047153896755642
 20
-2.498869154188368
 10
3.047709147135417
 20
-2.46738772922092
 10
3.048001607259114
 20
-2.449680752224392
 10
3.04718271891276
 20
-2.430320739746094
 10
3.045252482096354
 20
-2.409279717339409
 10
3.038117302788628
 20
-2.334363301595052
 10
3.035631815592448
 20
-2.235911899142795
 10
3.037736680772569
 20
-2.113926357693142
 10
3.040134853786892
 20
-1.977516174316406
 10
3.049112955729167
 20
-1.836609734429253
 10
3.064700656467014
 20
-1.691236707899305
 10
3.066542731391059
 20
-1.673550923665365
 10
3.068326314290364
 20
-1.65783945719401
 10
3.070139567057292
 20
-1.644094679090712
 10
3.071894327799479
 20
-1.630349900987413
 10
3.072888692220052
 20
-1.617569817437066
 10
3.073093838161892
 20
-1.605769687228733
 10
3.073590596516927
 20
-1.576912773980035
 10
3.059055752224392
 20
-1.55336422390408
 10
3.029431660970052
 20
-1.535137600368923
 97
        0
 97
        0
 92
        1
 93
        1
 72
     4
 94
        3
 73
     0
 74
     1
 95
       92
 96
       88
 40
0.0
 40
0.0
 40
0.0
 40
0.0
 40
1.0
 40
1.0
 40
1.0
 40
2.0
 40
2.0
 40
2.0
 40
3.0
 40
3.0
 40
3.0
 40
4.0
 40
4.0
 40
4.0
 40
5.0
 40
5.0
 40
5.0
 40
6.0
 40
6.0
 40
6.0
 40
7.0
 40
7.0
 40
7.0
 40
8.0
 40
8.0
 40
8.0
 40
9.0
 40
9.0
 40
9.0
 40
10.0
 40
10.0
 40
10.0
 40
11.0
 40
11.0
 40
11.0
 40
12.0
 40
12.0
 40
12.0
 40
13.0
 40
13.0
 40
13.0
 40
14.0
 40
14.0
 40
14.0
 40
15.0
 40
15.0
 40
15.0
 40
16.0
 40
16.0
 40
16.0
 40
17.0
 40
17.0
 40
17.0
 40
18.0
 40
18.0
 40
18.0
 40
19.0
 40
19.0
 40
19.0
 40
20.0
 40
20.0
 40
20.0
 40
21.0
 40
21.0
 40
21.0
 40
22.0
 40
22.0
 40
22.0
 40
23.0
 40
23.0
 40
23.0
 40
24.0
 40
24.0
 40
24.0
 40
25.0
 40
25.0
 40
25.0
 40
26.0
 40
26.0
 40
26.0
 40
27.0
 40
27.0
 40
27.0
 40
28.0
 40
28.0
 40
28.0
 40
29.0
 40
29.0
 40
29.0
 40
29.0
 10
4.114498562282986
 20
-1.990983751085069
 10
4.035451253255208
 20
-1.98960198296441
 10
3.956242879231771
 20
-1.99773915608724
 10
3.876888699001736
 20
-2.015373229980469
 10
3.842965020073784
 20
-2.023312886555989
 10
3.825813293457031
 20
-2.039082845052083
 10
3.825403849283854
 20
-2.062697516547309
 10
3.825213962131076
 20
-2.073196411132812
 10
3.830390082465278
 20
-2.083936055501302
 10
3.840961880154079
 20
-2.094946967230903
 10
3.85150400797526
 20
-2.10595703125
 10
3.868290371365017
 20
-2.111667209201389
 10
3.891320122612847
 20
-2.112062242296007
 10
3.898222181532118
 20
-2.112186855740017
 10
3.905153062608507
 20
-2.111323886447483
 10
3.912083943684896
 20
-2.109474182128906
 10
3.972180684407552
 20
-2.096745808919271
 10
4.02294921875
 20
-2.090743170844184
 10
4.064388699001736
 20
-2.091467115614149
 10
4.091234842936197
 20
-2.091935051812066
 10
4.104394700792101
 20
-2.107909308539496
 10
4.103838602701822
 20
-2.139390733506944
 10
4.102581448025173
 20
-2.211551242404514
 10
4.091102600097656
 20
-2.275808546278212
 10
4.069389343261719
 20
-2.332162645128038
 10
4.047689649793837
 20
-2.388537936740451
 10
4.021442837185329
 20
-2.429582383897569
 10
3.990677727593316
 20
-2.45528072781033
 10
3.959898206922743
 20
-2.480986701117621
 10
3.922655741373698
 20
-2.49345228407118
 10
3.878920661078559
 20
-2.492691887749566
 10
3.816762288411458
 20
-2.491609361436632
 10
3.768172370062934
 20
-2.460252549913194
 10
3.733181423611111
 20
-2.398627387152778
 10
3.686288621690538
 20
-2.314498901367188
 10
3.664457533094618
 20
-2.179945203993055
 10
3.667689005533854
 20
-1.994990030924479
 10
3.670555114746094
 20
-1.831038581000434
 10
3.702533298068576
 20
-1.713506062825521
 10
3.763654073079427
 20
-1.642398410373264
 10
3.798923068576389
 20
-1.600374009874132
 10
3.836516486273871
 20
-1.579698350694444
 10
3.876420762803819
 20
-1.580400254991319
 10
3.926296657986111
 20
-1.581270005967882
 10
3.974125332302517
 20
-1.611304389105903
 10
4.019922044542101
 20
-1.670487297905816
 10
4.054445054796007
 20
-1.714390224880642
 10
4.080370585123697
 20
-1.769625345865885
 10
4.097624884711371
 20
-1.836185879177517
 10
4.104116651746962
 20
-1.859917534722222
 10
4.123856438530816
 20
-1.872068617078993
 10
4.156858656141493
 20
-1.872645907931858
 10
4.219017876519097
 20
-1.873728434244792
 10
4.250411139594184
 20
-1.85591803656684
 10
4.25105455186632
 20
-1.819179958767361
 10
4.251288519965278
 20
-1.80607181125217
 10
4.243334452311197
 20
-1.777390374077691
 10
4.227220323350695
 20
-1.733150906032986
 10
4.159139845106337
 20
-1.544342041015625
 10
4.028783162434896
 20
-1.448237948947483
 10
3.836179945203993
 20
-1.444875081380208
 10
3.715708414713542
 20
-1.442769368489583
 10
3.615736219618055
 20
-1.475150214301215
 10
3.5362794664171
 20
-1.541987948947483
 10
3.405411614312066
 20
-1.651887681749132
 10
3.338032192654079
 20
-1.818003336588542
 10
3.334142896864149
 20
-2.040340847439236
 10
3.329390631781684
 20
-2.312532212999132
 10
3.41683112250434
 20
-2.491850958930121
 10
3.596478780110677
 20
-2.578297085232205
 10
3.661167568630642
 20
-2.609596252441406
 10
3.733050028483073
 20
-2.625951131184896
 10
3.812082926432292
 20
-2.627332899305555
 10
3.920287238226996
 20
-2.629219055175781
 10
4.010491265190972
 20
-2.606839497884114
 10
4.08268059624566
 20
-2.560217115614149
 10
4.139355977376302
 20
-2.523164537217882
 10
4.180751376681857
 20
-2.471562703450521
 10
4.206852383083767
 20
-2.405419243706597
 10
4.232952541775173
 20
-2.339297824435764
 10
4.247501797146267
 20
-2.286563449435764
 10
4.250484890407986
 20
-2.247251722547743
 10
4.254505581325954
 20
-2.192213270399305
 10
4.256874084472656
 20
-2.145020378960504
 10
4.257561577690972
 20
-2.105664571126302
 10
4.258878072102864
 20
-2.030894809299045
 10
4.211179945203993
 20
-1.992672390407986
 10
4.114498562282986
 20
-1.990983751085069
 97
        0
 97
        0
 92
        1
 93
        1
 72
     4
 94
        3
 73
     0
 74
     1
 95
       62
 96
       58
 40
0.0
 40
0.0
 40
0.0
 40
0.0
 40
1.0
 40
1.0
 40
1.0
 40
2.0
 40
2.0
 40
2.0
 40
3.0
 40
3.0
 40
3.0
 40
4.0
 40
4.0
 40
4.0
 40
5.0
 40
5.0
 40
5.0
 40
6.0
 40
6.0
 40
6.0
 40
7.0
 40
7.0
 40
7.0
 40
8.0
 40
8.0
 40
8.0
 40
9.0
 40
9.0
 40
9.0
 40
10.0
 40
10.0
 40
10.0
 40
11.0
 40
11.0
 40
11.0
 40
12.0
 40
12.0
 40
12.0
 40
13.0
 40
13.0
 40
13.0
 40
14.0
 40
14.0
 40
14.0
 40
15.0
 40
15.0
 40
15.0
 40
16.0
 40
16.0
 40
16.0
 40
17.0
 40
17.0
 40
17.0
 40
18.0
 40
18.0
 40
18.0
 40
19.0
 40
19.0
 40
19.0
 40
19.0
 10
1.000115288628472
 20
-2.111951192220052
 10
0.9596549140082464
 20
-2.049468146430121
 10
0.8915184868706597
 20
-1.994521247016059
 10
0.8337665134006076
 20
-1.977748446994358
 10
0.8161468505859375
 20
-1.97271474202474
 10
0.7777074178059895
 20
-1.967944675021701
 10
0.7610812717013888
 20
-1.96893564860026
 10
0.742047627766927
 20
-1.969884236653646
 10
0.7113571166992188
 20
-1.975817362467448
 10
0.6960262722439235
 20
-1.981514824761285
 10
0.6691292656792535
 20
-1.991580539279514
 10
0.6460096571180555
 20
-2.008714463975694
 10
0.6344231499565972
 20
-2.027353922526042
 10
0.6186854044596354
 20
-2.052723354763455
 10
0.6123936971028645
 20
-2.069630093044705
 10
0.6074371337890625
 20
-2.099436442057292
 10
0.6018702189127604
 20
-2.133349948459201
 10
0.6039988199869791
 20
-2.151509602864583
 10
0.6170874701605903
 20
-2.178540547688802
 10
0.6239081488715278
 20
-2.192674424913194
 10
0.6427722507052951
 20
-2.216155158148871
 10
0.6549046834309895
 20
-2.225621541341146
 10
0.6648432413736979
 20
-2.23360612657335
 10
0.6855400933159722
 20
-2.244765387641059
 10
0.6980243259006076
 20
-2.249036153157552
 10
0.7050306532118055
 20
-2.251336839463975
 10
0.7137391832139757
 20
-2.253471374511719
 10
0.7676722208658854
 20
-2.265582614474826
 10
0.8064710828993055
 20
-2.274290296766493
 10
0.8420893351236979
 20
-2.284624735514323
 10
0.8612484402126735
 20
-2.292721218532986
 10
0.8853573269314235
 20
-2.302813212076823
 10
0.9200575086805555
 20
-2.324974907769097
 10
0.9488457573784722
 20
-2.348777770996094
 10
0.9836256239149305
 20
-2.377459208170573
 10
1.026670667860243
 20
-2.414086235894097
 10
1.035578409830729
 20
-2.422653198242188
 10
1.040923224555121
 20
-2.427646213107639
 10
1.049620734320746
 20
-2.436916775173611
 10
1.05507575141059
 20
-2.443289862738715
 10
1.060326470269097
 20
-2.449633280436198
 10
1.065054999457465
 20
-2.454534742567274
 10
1.065526326497396
 20
-2.454185485839844
 10
1.066116333007812
 20
-2.453748067220052
 10
1.067580329047309
 20
-2.454490661621094
 10
1.069189283582899
 20
-2.455674065483941
 10
1.072462293836806
 20
-2.458365546332465
 10
1.084481981065538
 20
-2.456582811143663
 10
1.089349534776476
 20
-2.452794392903646
 10
1.094805399576823
 20
-2.448567708333333
 10
1.096783108181424
 20
-2.441619025336371
 10
1.096112569173177
 20
-2.430603875054253
 10
1.089100307888455
 20
-2.331635369194878
 10
1.081415812174479
 20
-2.288719177246094
 10
1.059627109103733
 20
-2.227017720540364
 10
1.048009236653646
 20
-2.194327460394965
 10
1.026749504937066
 20
-2.153067694769965
 10
1.000115288628472
 20
-2.111951192220052
 97
        0
 97
        0
 75
     2
 76
     1
 98
        0
  0
SPLINE
  5
46
330
1F
100
AcDbEntity
  8
Layer 1
370
     0
100
AcDbSpline
210
0.0
220
0.0
230
1.0
 70
    11
 71
     3
 72
    47
 73
    43
 74
     0
 42
0.0000000001
 43
0.0000000001
 12
1.0
 22
0.0
 32
0.0
 13
1.0
 23
0.0
 33
0.0
 40
0.0
 40
0.0
 40
0.0
 40
0.0
 40
1.0
 40
1.0
 40
1.0
 40
2.0
 40
2.0
 40
2.0
 40
3.0
 40
3.0
 40
3.0
 40
4.0
 40
4.0
 40
4.0
 40
5.0
 40
5.0
 40
5.0
 40
6.0
 40
6.0
 40
6.0
 40
7.0
 40
7.0
 40
7.0
 40
8.0
 40
8.0
 40
8.0
 40
9.0
 40
9.0
 40
9.0
 40
10.0
 40
10.0
 40
10.0
 40
11.0
 40
11.0
 40
11.0
 40
12.0
 40
12.0
 40
12.0
 40
13.0
 40
13.0
 40
13.0
 40
14.0
 40
14.0
 40
14.0
 40
14.0
 10
4.625411987304688
 20
-1.970052083333333
 30
0.0
 10
4.583192613389756
 20
-1.837164984809028
 30
0.0
 10
4.577968173556857
 20
-1.787196689181858
 30
0.0
 10
4.600802951388888
 20
-1.730137295193142
 30
0.0
 10
4.609767489963107
 20
-1.708162943522135
 30
0.0
 10
4.62294684516059
 20
-1.692037794325087
 30
0.0
 10
4.642818874782986
 20
-1.678491380479601
 30
0.0
 10
4.672115749782986
 20
-1.658459133572048
 30
0.0
 10
4.720355563693576
 20
-1.655680338541667
 30
0.0
 10
4.758436414930555
 20
-1.671779208713108
 30
0.0
 10
4.792772081163194
 20
-1.686474270290798
 30
0.0
 10
4.830876668294271
 20
-1.731224907769097
 30
0.0
 10
4.852736579047309
 20
-1.782780117458767
 30
0.0
 10
4.882896423339844
 20
-1.85445319281684
 30
0.0
 10
4.892715454101562
 20
-1.935226440429688
 30
0.0
 10
4.883924696180555
 20
-2.039738125271267
 30
0.0
 10
4.872608608669704
 20
-2.17459954155816
 30
0.0
 10
4.852292378743489
 20
-2.263086954752604
 30
0.0
 10
4.800325181749131
 20
-2.405629475911458
 30
0.0
 10
4.789154052734375
 20
-2.4366455078125
 30
0.0
 10
4.76291741265191
 20
-2.471519470214844
 30
0.0
 10
4.753528171115451
 20
-2.467488606770833
 30
0.0
 10
4.751380072699653
 20
-2.466537475585938
 30
0.0
 10
4.747983296712239
 20
-2.466959635416667
 30
0.0
 10
4.746482849121094
 20
-2.468605889214409
 30
0.0
 10
4.743732028537326
 20
-2.471626281738281
 30
0.0
 10
4.726595560709635
 20
-2.470586988661024
 30
0.0
 10
4.722251892089844
 20
-2.46763441297743
 30
0.0
 10
4.721428765190972
 20
-2.466884189181858
 30
0.0
 10
4.718231201171875
 20
-2.465982225206163
 30
0.0
 10
4.715309143066406
 20
-2.465330335828993
 30
0.0
 10
4.709489610460069
 20
-2.464551289876302
 30
0.0
 10
4.7030275132921
 20
-2.455651177300347
 30
0.0
 10
4.69737074110243
 20
-2.441457112630208
 30
0.0
 10
4.695576985677083
 20
-2.43680911593967
 30
0.0
 10
4.691822475857204
 20
-2.390190972222222
 30
0.0
 10
4.689097934299045
 20
-2.337479485405816
 30
0.0
 10
4.686648898654513
 20
-2.285016377766927
 30
0.0
 10
4.681438869900173
 20
-2.218488057454427
 30
0.0
 10
4.677742852105035
 20
-2.190006679958767
 30
0.0
 10
4.670973883734809
 20
-2.135116577148438
 30
0.0
 10
4.649675157335069
 20
-2.044891357421875
 30
0.0
 10
4.625411987304688
 20
-1.970052083333333
 30
0.0
  0
SPLINE
  5
47
330
1F
100
AcDbEntity
  8
Layer 1
370
     0
100
AcDbSpline
210
0.0
220
0.0
230
1.0
 70
    11
 71
     3
 72
    44
 73
    40
 74
     0
 42
0.0000000001
 43
0.0000000001
 12
1.0
 22
0.0
 32
0.0
 13
1.0
 23
0.0
 33
0.0
 40
0.0
 40
0.0
 40
0.0
 40
0.0
 40
1.0
 40
1.0
 40
1.0
 40
2.0
 40
2.0
 40
2.0
 40
3.0
 40
3.0
 40
3.0
 40
4.0
 40
4.0
 40
4.0
 40
5.0
 40
5.0
 40
5.0
 40
6.0
 40
6.0
 40
6.0
 40
7.0
 40
7.0
 40
7.0
 40
8.0
 40
8.0
 40
8.0
 40
9.0
 40
9.0
 40
9.0
 40
10.0
 40
10.0
 40
10.0
 40
11.0
 40
11.0
 40
11.0
 40
12.0
 40
12.0
 40
12.0
 40
13.0
 40
13.0
 40
13.0
 40
13.0
 10
5.007476806640625
 20
-2.52950202094184
 30
0.0
 10
5.008976406521267
 20
-2.52785407172309
 30
0.0
 10
5.011325412326388
 20
-2.527481079101562
 30
0.0
 10
5.012972513834635
 20
-2.528982374403212
 30
0.0
 10
5.01434580485026
 20
-2.53023189968533
 30
0.0
 10
5.017468770345052
 20
-2.52956051296658
 30
0.0
 10
5.019469367133246
 20
-2.527364095052083
 30
0.0
 10
5.021469963921441
 20
-2.52516852484809
 30
0.0
 10
5.024318271213107
 20
-2.524246215820312
 30
0.0
 10
5.025416904025607
 20
-2.525247361924913
 30
0.0
 10
5.027887132432725
 20
-2.527497185601128
 30
0.0
 10
5.10408698187934
 20
-2.464791191948784
 30
0.0
 10
5.151216295030381
 20
-2.421318054199219
 30
0.0
 10
5.185495164659288
 20
-2.389749315049913
 30
0.0
 10
5.32535892062717
 20
-2.2323243882921
 30
0.0
 10
5.363250732421875
 20
-2.182447645399305
 30
0.0
 10
5.434558444552951
 20
-2.088160196940104
 30
0.0
 10
5.455404493543837
 20
-1.994127061631944
 30
0.0
 10
5.415604485405816
 20
-1.946826510959201
 30
0.0
 10
5.395267062717013
 20
-1.922276814778646
 30
0.0
 10
5.363153245713975
 20
-1.910106235080295
 30
0.0
 10
5.327527364095052
 20
-1.912820604112413
 30
0.0
 10
5.309989929199219
 20
-1.9144287109375
 30
0.0
 10
5.271853976779513
 20
-1.93093024359809
 30
0.0
 10
5.254103766547309
 20
-1.944903055826823
 30
0.0
 10
5.227755228678385
 20
-1.966112772623698
 30
0.0
 10
5.178041246202256
 20
-2.021799723307292
 30
0.0
 10
5.152450561523438
 20
-2.059271918402778
 30
0.0
 10
5.124634636773004
 20
-2.099739922417535
 30
0.0
 10
5.077215406629774
 20
-2.187653435601129
 30
0.0
 10
5.044523451063368
 20
-2.258843315972222
 30
0.0
 10
5.032133314344618
 20
-2.286236233181424
 30
0.0
 10
5.010631137424045
 20
-2.332455952962239
 30
0.0
 10
4.997265285915798
 20
-2.361470540364583
 30
0.0
 10
4.954738193088107
 20
-2.452836778428819
 30
0.0
 10
4.944126553005642
 20
-2.501439412434896
 30
0.0
 10
4.963344997829861
 20
-2.518943786621094
 30
0.0
 10
4.976524353027344
 20
-2.530946519639757
 30
0.0
 10
5.000975714789496
 20
-2.53664059109158
 30
0.0
 10
5.007476806640625
 20
-2.52950202094184
 30
0.0
  0
SPLINE
  5
48
330
1F
100
AcDbEntity
  8
Layer 1
370
     0
100
AcDbSpline
210
0.0
220
0.0
230
1.0
 70
    11
 71
     3
 72
    53
 73
    49
 74
     0
 42
0.0000000001
 43
0.0000000001
 12
1.0
 22
0.0
 32
0.0
 13
1.0
 23
0.0
 33
0.0
 40
0.0
 40
0.0
 40
0.0
 40
0.0
 40
1.0
 40
1.0
 40
1.0
 40
2.0
 40
2.0
 40
2.0
 40
3.0
 40
3.0
 40
3.0
 40
4.0
 40
4.0
 40
4.0
 40
5.0
 40
5.0
 40
5.0
 40
6.0
 40
6.0
 40
6.0
 40
7.0
 40
7.0
 40
7.0
 40
8.0
 40
8.0
 40
8.0
 40
9.0
 40
9.0
 40
9.0
 40
10.0
 40
10.0
 40
10.0
 40
11.0
 40
11.0
 40
11.0
 40
12.0
 40
12.0
 40
12.0
 40
13.0
 40
13.0
 40
13.0
 40
14.0
 40
14.0
 40
14.0
 40
15.0
 40
15.0
 40
15.0
 40
16.0
 40
16.0
 40
16.0
 40
16.0
 10
5.820280287000868
 20
-2.50075191921658
 30
0.0
 10
5.799620734320746
 20
-2.474901835123698
 30
0.0
 10
5.784190707736545
 20
-2.465370178222656
 30
0.0
 10
5.74473147922092
 20
-2.453542921278212
 30
0.0
 10
5.697007073296441
 20
-2.439208984375
 30
0.0
 10
5.616465250651041
 20
-2.44270748562283
 30
0.0
 10
5.540879991319444
 20
-2.462271796332465
 30
0.0
 10
5.470492045084635
 20
-2.480543348524305
 30
0.0
 10
5.377578735351562
 20
-2.517478942871094
 30
0.0
 10
5.308597140842013
 20
-2.554611206054688
 30
0.0
 10
5.247038947211371
 20
-2.587454054090712
 30
0.0
 10
5.141655815972222
 20
-2.655728658040364
 30
0.0
 10
5.109555562337239
 20
-2.683252970377604
 30
0.0
 10
5.098180982801649
 20
-2.692985534667969
 30
0.0
 10
5.085805257161458
 20
-2.70381588406033
 30
0.0
 10
5.082028706868489
 20
-2.707409328884549
 30
0.0
 10
5.072753058539496
 20
-2.71704355875651
 30
0.0
 10
5.061965094672309
 20
-2.739365471733941
 30
0.0
 10
5.06553480360243
 20
-2.74261728922526
 30
0.0
 10
5.067181905110677
 20
-2.744117736816406
 30
0.0
 10
5.067254808213975
 20
-2.74569108751085
 30
0.0
 10
5.065406799316406
 20
-2.745514763726128
 30
0.0
 10
5.06148444281684
 20
-2.745961507161458
 30
0.0
 10
5.061572604709201
 20
-2.759101019965278
 30
0.0
 10
5.065689934624566
 20
-2.762851291232639
 30
0.0
 10
5.067337883843316
 20
-2.764352586534288
 30
0.0
 10
5.067460801866319
 20
-2.766975402832031
 30
0.0
 10
5.066210428873697
 20
-2.768347846137153
 30
0.0
 10
5.062959459092881
 20
-2.771917555067274
 30
0.0
 10
5.079159206814236
 20
-2.786671108669705
 30
0.0
 10
5.092842102050781
 20
-2.792604234483507
 30
0.0
 10
5.105177137586805
 20
-2.797811720106337
 30
0.0
 10
5.119195726182725
 20
-2.794002109103733
 30
0.0
 10
5.161656697591146
 20
-2.774406433105469
 30
0.0
 10
5.207690768771701
 20
-2.752541436089409
 30
0.0
 10
5.221733093261719
 20
-2.749256557888455
 30
0.0
 10
5.29990726047092
 20
-2.740086025661892
 30
0.0
 10
5.369436475965712
 20
-2.731581793891059
 30
0.0
 10
5.462368435329861
 20
-2.72882080078125
 30
0.0
 10
5.61307610405816
 20
-2.730459425184462
 30
0.0
 10
5.730635748969184
 20
-2.731541951497396
 30
0.0
 10
5.770438300238715
 20
-2.722585890028212
 30
0.0
 10
5.806917826334635
 20
-2.687496609157986
 30
0.0
 10
5.829545762803819
 20
-2.665408664279514
 30
0.0
 10
5.841607835557725
 20
-2.642238193088108
 30
0.0
 10
5.847458733452691
 20
-2.609892951117621
 30
0.0
 10
5.854741414388021
 20
-2.56880611843533
 30
0.0
 10
5.845981174045138
 20
-2.533200581868489
 30
0.0
 10
5.820280287000868
 20
-2.50075191921658
 30
0.0
  0
SPLINE
  5
49
330
1F
100
AcDbEntity
  8
Layer 1
370
     0
100
AcDbSpline
210
0.0
220
0.0
230
1.0
 70
    11
 71
     3
 72
    17
 73
    13
 74
     0
 42
0.0000000001
 43
0.0000000001
 12
1.0
 22
0.0
 32
0.0
 13
1.0
 23
0.0
 33
0.0
 40
0.0
 40
0.0
 40
0.0
 40
0.0
 40
1.0
 40
1.0
 40
1.0
 40
2.0
 40
2.0
 40
2.0
 40
3.0
 40
3.0
 40
3.0
 40
4.0
 40
4.0
 40
4.0
 40
4.0
 10
1.91951412624783
 20
-3.53694831000434
 30
0.0
 10
1.977747599283854
 20
-3.53694831000434
 30
0.0
 10
2.021920945909288
 20
-3.494778103298611
 30
0.0
 10
2.021920945909288
 20
-3.440566168891059
 30
0.0
 10
2.021920945909288
 20
-3.384336683485243
 30
0.0
 10
1.977747599283854
 20
-3.342166476779514
 30
0.0
 10
1.91951412624783
 20
-3.342166476779514
 30
0.0
 10
1.86529541015625
 20
-3.342166476779514
 30
0.0
 10
1.821114434136285
 20
-3.384336683485243
 30
0.0
 10
1.821114434136285
 20
-3.440566168891059
 30
0.0
 10
1.821114434136285
 20
-3.494778103298611
 30
0.0
 10
1.86529541015625
 20
-3.53694831000434
 30
0.0
 10
1.91951412624783
 20
-3.53694831000434
 30
0.0
  0
INSERT
  5
4B
330
1F
100
AcDbEntity
  8
Layer 1
100
AcDbBlockReference
  2
block 2
 10
0.0
 20
0.0
 30
0.0
  0
SPLINE
  5
55
330
1F
100
AcDbEntity
  8
Layer 1
370
     0
100
AcDbSpline
210
0.0
220
0.0
230
1.0
 70
    11
 71
     3
 72
    53
 73
    49
 74
     0
 42
0.0000000001
 43
0.0000000001
 12
1.0
 22
0.0
 32
0.0
 13
1.0
 23
0.0
 33
0.0
 40
0.0
 40
0.0
 40
0.0
 40
0.0
 40
1.0
 40
1.0
 40
1.0
 40
2.0
 40
2.0
 40
2.0
 40
3.0
 40
3.0
 40
3.0
 40
4.0
 40
4.0
 40
4.0
 40
5.0
 40
5.0
 40
5.0
 40
6.0
 40
6.0
 40
6.0
 40
7.0
 40
7.0
 40
7.0
 40
8.0
 40
8.0
 40
8.0
 40
9.0
 40
9.0
 40
9.0
 40
10.0
 40
10.0
 40
10.0
 40
11.0
 40
11.0
 40
11.0
 40
12.0
 40
12.0
 40
12.0
 40
13.0
 40
13.0
 40
13.0
 40
14.0
 40
14.0
 40
14.0
 40
15.0
 40
15.0
 40
15.0
 40
16.0
 40
16.0
 40
16.0
 40
16.0
 10
5.546480814615885
 20
-3.059341430664062
 30
0.0
 10
5.523372226291232
 20
-3.053431193033854
 30
0.0
 10
5.503400166829427
 20
-3.050917731391059
 30
0.0
 10
5.483238220214844
 20
-3.052228291829427
 30
0.0
 10
5.45574951171875
 20
-3.053306579589844
 30
0.0
 10
5.401397705078125
 20
-3.069442749023438
 30
0.0
 10
5.360810173882379
 20
-3.087983873155382
 30
0.0
 10
5.343890719943576
 20
-3.095867580837674
 30
0.0
 10
5.328977796766493
 20
-3.101933797200521
 30
0.0
 10
5.328008863661024
 20
-3.101489596896701
 30
0.0
 10
5.326716952853732
 20
-3.100897047254774
 30
0.0
 10
5.323436313205295
 20
-3.088436550564236
 30
0.0
 10
5.320721096462673
 20
-3.073890686035156
 30
0.0
 10
5.317683749728732
 20
-3.059194776746962
 30
0.0
 10
5.310478210449219
 20
-3.03397962782118
 30
0.0
 10
5.304209391276041
 20
-3.017801920572917
 30
0.0
 10
5.282674153645833
 20
-2.959017435709635
 30
0.0
 10
5.260138617621528
 20
-2.932245042588975
 30
0.0
 10
5.214574178059896
 20
-2.911336263020833
 30
0.0
 10
5.190337287055121
 20
-2.900213453504774
 30
0.0
 10
5.183603074815538
 20
-2.898687574598524
 30
0.0
 10
5.163886176215278
 20
-2.899030049641927
 30
0.0
 10
5.122241550021701
 20
-2.900262620713975
 30
0.0
 10
5.080616421169704
 20
-2.921065436469184
 30
0.0
 10
5.046552022298177
 20
-2.958638509114583
 30
0.0
 10
5.0285890367296
 20
-2.978173149956597
 30
0.0
 10
5.024976942274305
 20
-2.984339396158854
 30
0.0
 10
5.014136420355903
 20
-3.01222652859158
 30
0.0
 10
4.9732666015625
 20
-3.117487589518229
 30
0.0
 10
4.98521253797743
 20
-3.232120937771267
 30
0.0
 10
5.058195326063368
 20
-3.435400221082899
 30
0.0
 10
5.084479437934028
 20
-3.507708231608073
 30
0.0
 10
5.089969211154513
 20
-3.51961686876085
 30
0.0
 10
5.101264953613281
 20
-3.529104444715712
 30
0.0
 10
5.10815684000651
 20
-3.535396152072483
 30
0.0
 10
5.118525187174479
 20
-3.540935940212673
 30
0.0
 10
5.123816596137153
 20
-3.542191399468316
 30
0.0
 10
5.145904541015625
 20
-3.546067979600694
 30
0.0
 10
5.376114739312066
 20
-3.455318027072483
 30
0.0
 10
5.435687594943576
 20
-3.419277615017361
 30
0.0
 10
5.536578708224826
 20
-3.357990688747829
 30
0.0
 10
5.610604180230035
 20
-3.287896898057725
 30
0.0
 10
5.625872294108072
 20
-3.240132649739583
 30
0.0
 10
5.644567701551649
 20
-3.180639478895399
 30
0.0
 10
5.637786865234375
 20
-3.134885152180989
 30
0.0
 10
5.604847378200954
 20
-3.096688164605034
 30
0.0
 10
5.591277228461371
 20
-3.081071641710069
 30
0.0
 10
5.564943101671006
 20
-3.06429206000434
 30
0.0
 10
5.546480814615885
 20
-3.059341430664062
 30
0.0
  0
HATCH
  5
56
330
1F
100
AcDbEntity
  8
Layer 1
 62
    55
420
 11573586
100
AcDbHatch
 10
0.0
 20
0.0
 30
0.0
210
0.0
220
0.0
230
1.0
  2
SOLID
 70
     1
 71
     0
 91
       12
 92
        1
 93
        1
 72
     4
 94
        3
 73
     0
 74
     1
 95
       47
 96
       43
 40
0.0
 40
0.0
 40
0.0
 40
0.0
 40
1.0
 40
1.0
 40
1.0
 40
2.0
 40
2.0
 40
2.0
 40
3.0
 40
3.0
 40
3.0
 40
4.0
 40
4.0
 40
4.0
 40
5.0
 40
5.0
 40
5.0
 40
6.0
 40
6.0
 40
6.0
 40
7.0
 40
7.0
 40
7.0
 40
8.0
 40
8.0
 40
8.0
 40
9.0
 40
9.0
 40
9.0
 40
10.0
 40
10.0
 40
10.0
 40
11.0
 40
11.0
 40
11.0
 40
12.0
 40
12.0
 40
12.0
 40
13.0
 40
13.0
 40
13.0
 40
14.0
 40
14.0
 40
14.0
 40
14.0
 10
4.625411987304688
 20
-1.970052083333333
 10
4.583192613389756
 20
-1.837164984809028
 10
4.577968173556857
 20
-1.787196689181858
 10
4.600802951388888
 20
-1.730137295193142
 10
4.609767489963107
 20
-1.708162943522135
 10
4.62294684516059
 20
-1.692037794325087
 10
4.642818874782986
 20
-1.678491380479601
 10
4.672115749782986
 20
-1.658459133572048
 10
4.720355563693576
 20
-1.655680338541667
 10
4.758436414930555
 20
-1.671779208713108
 10
4.792772081163194
 20
-1.686474270290798
 10
4.830876668294271
 20
-1.731224907769097
 10
4.852736579047309
 20
-1.782780117458767
 10
4.882896423339844
 20
-1.85445319281684
 10
4.892715454101562
 20
-1.935226440429688
 10
4.883924696180555
 20
-2.039738125271267
 10
4.872608608669704
 20
-2.17459954155816
 10
4.852292378743489
 20
-2.263086954752604
 10
4.800325181749131
 20
-2.405629475911458
 10
4.789154052734375
 20
-2.4366455078125
 10
4.76291741265191
 20
-2.471519470214844
 10
4.753528171115451
 20
-2.467488606770833
 10
4.751380072699653
 20
-2.466537475585938
 10
4.747983296712239
 20
-2.466959635416667
 10
4.746482849121094
 20
-2.468605889214409
 10
4.743732028537326
 20
-2.471626281738281
 10
4.726595560709635
 20
-2.470586988661024
 10
4.722251892089844
 20
-2.46763441297743
 10
4.721428765190972
 20
-2.466884189181858
 10
4.718231201171875
 20
-2.465982225206163
 10
4.715309143066406
 20
-2.465330335828993
 10
4.709489610460069
 20
-2.464551289876302
 10
4.7030275132921
 20
-2.455651177300347
 10
4.69737074110243
 20
-2.441457112630208
 10
4.695576985677083
 20
-2.43680911593967
 10
4.691822475857204
 20
-2.390190972222222
 10
4.689097934299045
 20
-2.337479485405816
 10
4.686648898654513
 20
-2.285016377766927
 10
4.681438869900173
 20
-2.218488057454427
 10
4.677742852105035
 20
-2.190006679958767
 10
4.670973883734809
 20
-2.135116577148438
 10
4.649675157335069
 20
-2.044891357421875
 10
4.625411987304688
 20
-1.970052083333333
 97
        0
 97
        0
 92
        1
 93
        1
 72
     4
 94
        3
 73
     0
 74
     1
 95
       44
 96
       40
 40
0.0
 40
0.0
 40
0.0
 40
0.0
 40
1.0
 40
1.0
 40
1.0
 40
2.0
 40
2.0
 40
2.0
 40
3.0
 40
3.0
 40
3.0
 40
4.0
 40
4.0
 40
4.0
 40
5.0
 40
5.0
 40
5.0
 40
6.0
 40
6.0
 40
6.0
 40
7.0
 40
7.0
 40
7.0
 40
8.0
 40
8.0
 40
8.0
 40
9.0
 40
9.0
 40
9.0
 40
10.0
 40
10.0
 40
10.0
 40
11.0
 40
11.0
 40
11.0
 40
12.0
 40
12.0
 40
12.0
 40
13.0
 40
13.0
 40
13.0
 40
13.0
 10
5.007476806640625
 20
-2.52950202094184
 10
5.008976406521267
 20
-2.52785407172309
 10
5.011325412326388
 20
-2.527481079101562
 10
5.012972513834635
 20
-2.528982374403212
 10
5.01434580485026
 20
-2.53023189968533
 10
5.017468770345052
 20
-2.52956051296658
 10
5.019469367133246
 20
-2.527364095052083
 10
5.021469963921441
 20
-2.52516852484809
 10
5.024318271213107
 20
-2.524246215820312
 10
5.025416904025607
 20
-2.525247361924913
 10
5.027887132432725
 20
-2.527497185601128
 10
5.10408698187934
 20
-2.464791191948784
 10
5.151216295030381
 20
-2.421318054199219
 10
5.185495164659288
 20
-2.389749315049913
 10
5.32535892062717
 20
-2.2323243882921
 10
5.363250732421875
 20
-2.182447645399305
 10
5.434558444552951
 20
-2.088160196940104
 10
5.455404493543837
 20
-1.994127061631944
 10
5.415604485405816
 20
-1.946826510959201
 10
5.395267062717013
 20
-1.922276814778646
 10
5.363153245713975
 20
-1.910106235080295
 10
5.327527364095052
 20
-1.912820604112413
 10
5.309989929199219
 20
-1.9144287109375
 10
5.271853976779513
 20
-1.93093024359809
 10
5.254103766547309
 20
-1.944903055826823
 10
5.227755228678385
 20
-1.966112772623698
 10
5.178041246202256
 20
-2.021799723307292
 10
5.152450561523438
 20
-2.059271918402778
 10
5.124634636773004
 20
-2.099739922417535
 10
5.077215406629774
 20
-2.187653435601129
 10
5.044523451063368
 20
-2.258843315972222
 10
5.032133314344618
 20
-2.286236233181424
 10
5.010631137424045
 20
-2.332455952962239
 10
4.997265285915798
 20
-2.361470540364583
 10
4.954738193088107
 20
-2.452836778428819
 10
4.944126553005642
 20
-2.501439412434896
 10
4.963344997829861
 20
-2.518943786621094
 10
4.976524353027344
 20
-2.530946519639757
 10
5.000975714789496
 20
-2.53664059109158
 10
5.007476806640625
 20
-2.52950202094184
 97
        0
 97
        0
 92
        1
 93
        1
 72
     4
 94
        3
 73
     0
 74
     1
 95
       53
 96
       49
 40
0.0
 40
0.0
 40
0.0
 40
0.0
 40
1.0
 40
1.0
 40
1.0
 40
2.0
 40
2.0
 40
2.0
 40
3.0
 40
3.0
 40
3.0
 40
4.0
 40
4.0
 40
4.0
 40
5.0
 40
5.0
 40
5.0
 40
6.0
 40
6.0
 40
6.0
 40
7.0
 40
7.0
 40
7.0
 40
8.0
 40
8.0
 40
8.0
 40
9.0
 40
9.0
 40
9.0
 40
10.0
 40
10.0
 40
10.0
 40
11.0
 40
11.0
 40
11.0
 40
12.0
 40
12.0
 40
12.0
 40
13.0
 40
13.0
 40
13.0
 40
14.0
 40
14.0
 40
14.0
 40
15.0
 40
15.0
 40
15.0
 40
16.0
 40
16.0
 40
16.0
 40
16.0
 10
5.820280287000868
 20
-2.50075191921658
 10
5.799620734320746
 20
-2.474901835123698
 10
5.784190707736545
 20
-2.465370178222656
 10
5.74473147922092
 20
-2.453542921278212
 10
5.697007073296441
 20
-2.439208984375
 10
5.616465250651041
 20
-2.44270748562283
 10
5.540879991319444
 20
-2.462271796332465
 10
5.470492045084635
 20
-2.480543348524305
 10
5.377578735351562
 20
-2.517478942871094
 10
5.308597140842013
 20
-2.554611206054688
 10
5.247038947211371
 20
-2.587454054090712
 10
5.141655815972222
 20
-2.655728658040364
 10
5.109555562337239
 20
-2.683252970377604
 10
5.098180982801649
 20
-2.692985534667969
 10
5.085805257161458
 20
-2.70381588406033
 10
5.082028706868489
 20
-2.707409328884549
 10
5.072753058539496
 20
-2.71704355875651
 10
5.061965094672309
 20
-2.739365471733941
 10
5.06553480360243
 20
-2.74261728922526
 10
5.067181905110677
 20
-2.744117736816406
 10
5.067254808213975
 20
-2.74569108751085
 10
5.065406799316406
 20
-2.745514763726128
 10
5.06148444281684
 20
-2.745961507161458
 10
5.061572604709201
 20
-2.759101019965278
 10
5.065689934624566
 20
-2.762851291232639
 10
5.067337883843316
 20
-2.764352586534288
 10
5.067460801866319
 20
-2.766975402832031
 10
5.066210428873697
 20
-2.768347846137153
 10
5.062959459092881
 20
-2.771917555067274
 10
5.079159206814236
 20
-2.786671108669705
 10
5.092842102050781
 20
-2.792604234483507
 10
5.105177137586805
 20
-2.797811720106337
 10
5.119195726182725
 20
-2.794002109103733
 10
5.161656697591146
 20
-2.774406433105469
 10
5.207690768771701
 20
-2.752541436089409
 10
5.221733093261719
 20
-2.749256557888455
 10
5.29990726047092
 20
-2.740086025661892
 10
5.369436475965712
 20
-2.731581793891059
 10
5.462368435329861
 20
-2.72882080078125
 10
5.61307610405816
 20
-2.730459425184462
 10
5.730635748969184
 20
-2.731541951497396
 10
5.770438300238715
 20
-2.722585890028212
 10
5.806917826334635
 20
-2.687496609157986
 10
5.829545762803819
 20
-2.665408664279514
 10
5.841607835557725
 20
-2.642238193088108
 10
5.847458733452691
 20
-2.609892951117621
 10
5.854741414388021
 20
-2.56880611843533
 10
5.845981174045138
 20
-2.533200581868489
 10
5.820280287000868
 20
-2.50075191921658
 97
        0
 97
        0
 92
        1
 93
        1
 72
     4
 94
        3
 73
     0
 74
     1
 95
       17
 96
       13
 40
0.0
 40
0.0
 40
0.0
 40
0.0
 40
1.0
 40
1.0
 40
1.0
 40
2.0
 40
2.0
 40
2.0
 40
3.0
 40
3.0
 40
3.0
 40
4.0
 40
4.0
 40
4.0
 40
4.0
 10
1.91951412624783
 20
-3.53694831000434
 10
1.977747599283854
 20
-3.53694831000434
 10
2.021920945909288
 20
-3.494778103298611
 10
2.021920945909288
 20
-3.440566168891059
 10
2.021920945909288
 20
-3.384336683485243
 10
1.977747599283854
 20
-3.342166476779514
 10
1.91951412624783
 20
-3.342166476779514
 10
1.86529541015625
 20
-3.342166476779514
 10
1.821114434136285
 20
-3.384336683485243
 10
1.821114434136285
 20
-3.440566168891059
 10
1.821114434136285
 20
-3.494778103298611
 10
1.86529541015625
 20
-3.53694831000434
 10
1.91951412624783
 20
-3.53694831000434
 97
        0
 97
        0
 92
        1
 93
        1
 72
     4
 94
        3
 73
     0
 74
     1
 95
      371
 96
      367
 40
0.0
 40
0.0
 40
0.0
 40
0.0
 40
1.0
 40
1.0
 40
1.0
 40
2.0
 40
2.0
 40
2.0
 40
3.0
 40
3.0
 40
3.0
 40
4.0
 40
4.0
 40
4.0
 40
5.0
 40
5.0
 40
5.0
 40
6.0
 40
6.0
 40
6.0
 40
7.0
 40
7.0
 40
7.0
 40
8.0
 40
8.0
 40
8.0
 40
9.0
 40
9.0
 40
9.0
 40
10.0
 40
10.0
 40
10.0
 40
11.0
 40
11.0
 40
11.0
 40
12.0
 40
12.0
 40
12.0
 40
13.0
 40
13.0
 40
13.0
 40
14.0
 40
14.0
 40
14.0
 40
15.0
 40
15.0
 40
15.0
 40
16.0
 40
16.0
 40
16.0
 40
17.0
 40
17.0
 40
17.0
 40
18.0
 40
18.0
 40
18.0
 40
19.0
 40
19.0
 40
19.0
 40
20.0
 40
20.0
 40
20.0
 40
21.0
 40
21.0
 40
21.0
 40
22.0
 40
22.0
 40
22.0
 40
23.0
 40
23.0
 40
23.0
 40
24.0
 40
24.0
 40
24.0
 40
25.0
 40
25.0
 40
25.0
 40
26.0
 40
26.0
 40
26.0
 40
27.0
 40
27.0
 40
27.0
 40
28.0
 40
28.0
 40
28.0
 40
29.0
 40
29.0
 40
29.0
 40
30.0
 40
30.0
 40
30.0
 40
31.0
 40
31.0
 40
31.0
 40
32.0
 40
32.0
 40
32.0
 40
33.0
 40
33.0
 40
33.0
 40
34.0
 40
34.0
 40
34.0
 40
35.0
 40
35.0
 40
35.0
 40
36.0
 40
36.0
 40
36.0
 40
37.0
 40
37.0
 40
37.0
 40
38.0
 40
38.0
 40
38.0
 40
39.0
 40
39.0
 40
39.0
 40
40.0
 40
40.0
 40
40.0
 40
41.0
 40
41.0
 40
41.0
 40
42.0
 40
42.0
 40
42.0
 40
43.0
 40
43.0
 40
43.0
 40
44.0
 40
44.0
 40
44.0
 40
45.0
 40
45.0
 40
45.0
 40
46.0
 40
46.0
 40
46.0
 40
47.0
 40
47.0
 40
47.0
 40
48.0
 40
48.0
 40
48.0
 40
49.0
 40
49.0
 40
49.0
 40
50.0
 40
50.0
 40
50.0
 40
51.0
 40
51.0
 40
51.0
 40
52.0
 40
52.0
 40
52.0
 40
53.0
 40
53.0
 40
53.0
 40
54.0
 40
54.0
 40
54.0
 40
55.0
 40
55.0
 40
55.0
 40
56.0
 40
56.0
 40
56.0
 40
57.0
 40
57.0
 40
57.0
 40
58.0
 40
58.0
 40
58.0
 40
59.0
 40
59.0
 40
59.0
 40
60.0
 40
60.0
 40
60.0
 40
61.0
 40
61.0
 40
61.0
 40
62.0
 40
62.0
 40
62.0
 40
63.0
 40
63.0
 40
63.0
 40
64.0
 40
64.0
 40
64.0
 40
65.0
 40
65.0
 40
65.0
 40
66.0
 40
66.0
 40
66.0
 40
67.0
 40
67.0
 40
67.0
 40
68.0
 40
68.0
 40
68.0
 40
69.0
 40
69.0
 40
69.0
 40
70.0
 40
70.0
 40
70.0
 40
71.0
 40
71.0
 40
71.0
 40
72.0
 40
72.0
 40
72.0
 40
73.0
 40
73.0
 40
73.0
 40
74.0
 40
74.0
 40
74.0
 40
75.0
 40
75.0
 40
75.0
 40
76.0
 40
76.0
 40
76.0
 40
77.0
 40
77.0
 40
77.0
 40
78.0
 40
78.0
 40
78.0
 40
79.0
 40
79.0
 40
79.0
 40
80.0
 40
80.0
 40
80.0
 40
81.0
 40
81.0
 40
81.0
 40
82.0
 40
82.0
 40
82.0
 40
83.0
 40
83.0
 40
83.0
 40
84.0
 40
84.0
 40
84.0
 40
85.0
 40
85.0
 40
85.0
 40
86.0
 40
86.0
 40
86.0
 40
87.0
 40
87.0
 40
87.0
 40
88.0
 40
88.0
 40
88.0
 40
89.0
 40
89.0
 40
89.0
 40
90.0
 40
90.0
 40
90.0
 40
91.0
 40
91.0
 40
91.0
 40
92.0
 40
92.0
 40
92.0
 40
93.0
 40
93.0
 40
93.0
 40
94.0
 40
94.0
 40
94.0
 40
95.0
 40
95.0
 40
95.0
 40
96.0
 40
96.0
 40
96.0
 40
97.0
 40
97.0
 40
97.0
 40
98.0
 40
98.0
 40
98.0
 40
99.0
 40
99.0
 40
99.0
 40
100.0
 40
100.0
 40
100.0
 40
101.0
 40
101.0
 40
101.0
 40
102.0
 40
102.0
 40
102.0
 40
103.0
 40
103.0
 40
103.0
 40
104.0
 40
104.0
 40
104.0
 40
105.0
 40
105.0
 40
105.0
 40
106.0
 40
106.0
 40
106.0
 40
107.0
 40
107.0
 40
107.0
 40
108.0
 40
108.0
 40
108.0
 40
109.0
 40
109.0
 40
109.0
 40
110.0
 40
110.0
 40
110.0
 40
111.0
 40
111.0
 40
111.0
 40
112.0
 40
112.0
 40
112.0
 40
113.0
 40
113.0
 40
113.0
 40
114.0
 40
114.0
 40
114.0
 40
115.0
 40
115.0
 40
115.0
 40
116.0
 40
116.0
 40
116.0
 40
117.0
 40
117.0
 40
117.0
 40
118.0
 40
118.0
 40
118.0
 40
119.0
 40
119.0
 40
119.0
 40
120.0
 40
120.0
 40
120.0
 40
121.0
 40
121.0
 40
121.0
 40
122.0
 40
122.0
 40
122.0
 40
122.0
 10
5.477532280815972
 20
-3.824098375108507
 10
5.477532280815972
 20
-3.826108296712239
 10
5.389171176486545
 20
-4.063053554958767
 10
5.272705078125
 20
-4.289960225423177
 10
5.206437852647569
 20
-4.41847398546007
 10
5.04179212782118
 20
-4.747795104980469
 10
4.857041252983941
 20
-4.747795104980469
 10
4.814871046278212
 20
-4.747795104980469
 10
4.772715250651041
 20
-4.729721917046441
 10
4.746599833170572
 20
-4.685540941026475
 10
4.692381117078993
 20
-4.593172709147135
 10
4.708450317382812
 20
-4.39839850531684
 10
4.794794718424479
 20
-4.087150573730469
 10
4.832943386501736
 20
-3.95662604437934
 10
4.875114440917969
 20
-3.832125345865885
 10
4.903232150607638
 20
-3.751806471082899
 10
4.824916415744357
 20
-3.779917399088542
 10
4.704429626464844
 20
-3.816062927246094
 10
4.581939697265625
 20
-3.816062927246094
 10
4.56766594780816
 20
-3.816062927246094
 10
4.553922865125868
 20
-3.814900716145833
 10
4.540445963541666
 20
-3.813189188639323
 10
4.541013081868489
 20
-3.820784674750434
 10
4.539527893066406
 20
-3.828737046983507
 10
4.535821702745225
 20
-3.836146884494358
 10
4.457505120171441
 20
-3.986747741699219
 10
4.373179117838541
 20
-4.143373277452257
 10
4.286835564507379
 20
-4.257835388183594
 10
4.214543660481771
 20
-4.346182081434462
 10
4.12217542860243
 20
-4.450606452094184
 10
3.995663960774739
 20
-4.450606452094184
 10
3.922948201497396
 20
-4.450606452094184
 10
3.859012179904514
 20
-4.401875813802083
 10
3.810575697157118
 20
-4.310684204101562
 10
3.795520358615451
 20
-4.35734388563368
 10
3.779541863335503
 20
-4.405015733506945
 10
3.762762281629774
 20
-4.452609592013888
 10
3.696495056152344
 20
-4.6373536851671
 10
3.630226982964409
 20
-4.785943773057725
 10
3.567980448404948
 20
-4.892378913031684
 10
3.479618496365017
 20
-5.038965861002604
 10
3.397295633951823
 20
-5.109240214029947
 10
3.312962849934896
 20
-5.111257765028212
 10
3.312962849934896
 20
-5.111257765028212
 10
3.310952080620659
 20
-5.111257765028212
 10
3.310952080620659
 20
-5.111257765028212
 10
3.274806552463108
 20
-5.111257765028212
 10
3.242680867513021
 20
-5.097190856933594
 10
3.21456315782335
 20
-5.069087558322482
 10
3.126215616861979
 20
-4.976719326443142
 10
3.08404541015625
 20
-4.731725056966146
 10
3.080024719238281
 20
-4.295984903971354
 10
3.079451666937934
 20
-4.193804423014322
 10
3.081060621473524
 20
-4.086140102810329
 10
3.084003024631076
 20
-3.976601494683159
 10
3.036211649576823
 20
-4.039465162489149
 10
2.974810282389323
 20
-4.093753390842013
 10
2.909412807888455
 20
-4.145383199055989
 10
2.985718621148003
 20
-4.227713690863715
 10
3.03792741563585
 20
-4.328116522894965
 10
3.039937337239583
 20
-4.470682779947916
 10
3.039937337239583
 20
-4.553013271755642
 10
3.019854227701823
 20
-4.629318237304688
 10
2.97969479031033
 20
-4.695586310492621
 10
2.94555918375651
 20
-4.755822075737847
 10
2.895361158582899
 20
-4.804016960991754
 10
2.835117763943142
 20
-4.840162489149305
 10
2.774874369303385
 20
-4.874305725097656
 10
2.708613925509983
 20
-4.892378913031684
 10
2.648370530870225
 20
-4.892378913031684
 10
2.517846001519097
 20
-4.892378913031684
 10
2.417443169487847
 20
-4.804016960991754
 10
2.417443169487847
 20
-4.663453843858506
 10
2.417443169487847
 20
-4.553013271755642
 10
2.455599466959635
 20
-4.452609592013888
 10
2.53391604953342
 20
-4.358231438530816
 10
2.564030117458767
 20
-4.322092692057291
 10
2.600176493326823
 20
-4.287949456108941
 10
2.636322021484375
 20
-4.255824618869357
 10
2.602186414930555
 20
-4.225702921549479
 10
2.562026977539062
 20
-4.195581224229601
 10
2.519856770833333
 20
-4.161445617675781
 10
2.467942979600694
 20
-4.121382819281684
 10
2.412383185492621
 20
-4.078463236490885
 10
2.359323289659288
 20
-4.029170566134982
 10
2.342542860243055
 20
-4.10648685031467
 10
2.320360819498698
 20
-4.197844611273871
 10
2.293008592393663
 20
-4.287949456108941
 10
2.250838385687934
 20
-4.42248789469401
 10
2.208667331271701
 20
-4.528915405273438
 10
2.162484063042535
 20
-4.60321044921875
 10
2.054045783148871
 20
-4.797992282443576
 10
1.85726081000434
 20
-4.795989142523871
 10
1.791000366210938
 20
-4.565061781141493
 10
1.766903347439236
 20
-4.486745198567708
 10
1.752844068739149
 20
-4.380325317382812
 10
1.748830159505208
 20
-4.251810709635416
 10
1.74635738796658
 20
-4.162778218587239
 10
1.748624165852865
 20
-4.071745130750868
 10
1.752293056911892
 20
-3.994629753960503
 10
1.719732496473524
 20
-4.027975294325087
 10
1.680015563964844
 20
-4.058092753092447
 10
1.632474263509115
 20
-4.085139804416232
 10
1.632474263509115
 20
-4.085139804416232
 10
1.580265469021267
 20
-4.111248440212673
 10
1.580265469021267
 20
-4.111248440212673
 10
1.666609870062934
 20
-4.239762200249566
 10
1.708780076768663
 20
-4.372289869520399
 10
1.708780076768663
 20
-4.516866895887587
 10
1.710783216688368
 20
-4.613255818684896
 10
1.682672288682726
 20
-4.703614128960504
 10
1.628460354275173
 20
-4.785943773057725
 10
1.578255547417535
 20
-4.858235677083333
 10
1.509984334309896
 20
-4.91847907172309
 10
1.423640780978733
 20
-4.970694647894965
 10
1.236893547905816
 20
-5.079118516710069
 10
0.945721944173177
 20
-5.1453857421875
 10
0.740902370876736
 20
-5.024898952907986
 10
0.696729024251302
 20
-5.000801934136285
 10
0.6625934176974826
 20
-4.966673956976996
 10
0.6384963989257812
 20
-4.928524441189236
 10
0.6123886108398438
 20
-4.886354234483506
 10
0.6003468831380208
 20
-4.8381593492296
 10
0.6003468831380208
 20
-4.783940633138021
 10
0.6003468831380208
 20
-4.589158799913194
 10
0.6706280178493923
 20
-4.442571851942274
 10
0.8172081841362847
 20
-4.334141201443142
 10
0.9396981133355035
 20
-4.243776109483507
 10
1.098333570692274
 20
-4.193578084309896
 10
1.252955966525608
 20
-4.145383199055989
 10
1.194723341200087
 20
-4.077112833658854
 10
1.12644534640842
 20
-4.008834838867188
 10
1.056170993381076
 20
-3.936549716525608
 10
0.9256464640299479
 20
-3.806025187174479
 10
0.791107177734375
 20
-3.669475979275173
 10
0.686690436469184
 20
-3.508836534288194
 10
0.6746419270833333
 20
-3.492774115668403
 10
0.6646041870117188
 20
-3.474701775444878
 10
0.6545588175455729
 20
-3.458631727430555
 10
0.6545588175455729
 20
-3.458631727430555
 10
0.5441173977322048
 20
-3.500801934136284
 10
0.5441173977322048
 20
-3.500801934136284
 10
0.3613840738932291
 20
-3.567070007324219
 10
0.2168078952365451
 20
-3.619277954101562
 10
0.2168078952365451
 20
-3.816062927246094
 10
0.2168078952365451
 20
-3.838150024414062
 10
0.1987347073025174
 20
-3.85622321234809
 10
0.1766476101345486
 20
-3.85622321234809
 10
0.1545613606770833
 20
-3.85622321234809
 10
0.1364881727430556
 20
-3.838150024414062
 10
0.1364881727430556
 20
-3.816062927246094
 10
0.1364881727430556
 20
-3.701608445909288
 10
0.1766476101345486
 20
-3.615264044867621
 10
0.2589781019422743
 20
-3.548996819390191
 10
0.3292592366536458
 20
-3.492774115668403
 10
0.41961669921875
 20
-3.460642496744792
 10
0.5160064697265625
 20
-3.424496120876736
 10
0.5160064697265625
 20
-3.424496120876736
 10
0.6164093017578125
 20
-3.388350592719184
 10
0.6164093017578125
 20
-3.388350592719184
 10
0.5421142578125
 20
-3.239759657118055
 10
0.5059678819444444
 20
-3.089158799913194
 10
0.5059678819444444
 20
-2.930523342556424
 10
0.5059678819444444
 20
-2.852206759982639
 10
0.5200203789605035
 20
-2.781925625271267
 10
0.546128167046441
 20
-2.719679090711805
 10
0.5742390950520833
 20
-2.659435696072049
 10
0.6143985324435763
 20
-2.611248440212674
 10
0.6625934176974826
 20
-2.579115973578559
 10
0.8051596747504339
 20
-2.486747741699219
 10
1.014000786675347
 20
-2.53694576687283
 10
1.05416022406684
 20
-2.721689012315538
 10
1.070222642686632
 20
-2.797994825575087
 10
1.068211873372396
 20
-2.896387736002604
 10
1.050146314832899
 20
-3.004818386501736
 10
1.026049296061198
 20
-3.137346055772569
 10
0.971830579969618
 20
-3.241770426432292
 10
0.8834754096137152
 20
-3.324093288845486
 10
0.9738405015733507
 20
-3.496788024902344
 10
1.120420667860243
 20
-3.633337232801649
 10
1.262993706597222
 20
-3.765864902072483
 10
1.357372707790798
 20
-3.854220072428385
 10
1.45375484890408
 20
-3.944577534993489
 10
1.532071431477865
 20
-4.044980367024739
 10
1.639921400282118
 20
-3.995624118381076
 10
1.724310133192274
 20
-3.932836744520399
 10
1.762847900390625
 20
-3.835655212402344
 10
1.764879014756944
 20
-3.812586466471354
 10
1.766436258951823
 20
-3.798319498697917
 10
1.766903347439236
 20
-3.795986599392361
 10
1.778951856825087
 20
-3.727708604600694
 10
2.048028733995225
 20
-3.731730143229167
 10
2.044007195366754
 20
-3.874295552571614
 10
2.044007195366754
 20
-3.87630632188585
 10
2.029955546061198
 20
-3.988758511013454
 10
2.027944776746962
 20
-4.167470296223958
 10
2.027944776746962
 20
-4.629318237304688
 10
2.100236680772569
 20
-4.643377516004774
 10
2.214692009819879
 20
-4.265863206651476
 10
2.247646755642361
 20
-4.156020270453559
 10
2.273639255099826
 20
-4.044711642795138
 10
2.291453043619792
 20
-3.96028815375434
 10
2.186145358615451
 20
-3.842503017849392
 10
2.104192097981771
 20
-3.689148796929253
 10
2.104192097981771
 20
-3.466666327582465
 10
2.104192097981771
 20
-3.41044447157118
 10
2.116241455078125
 20
-3.354214986165364
 10
2.140338473849826
 20
-3.308030870225694
 10
2.164435492621528
 20
-3.259835984971788
 10
2.200581868489583
 20
-3.221687316894531
 10
2.240741305881076
 20
-3.19557868109809
 10
2.276887681749132
 20
-3.173492431640625
 10
2.317047119140625
 20
-3.161443922254774
 10
2.359210544162326
 20
-3.161443922254774
 10
2.564030117458767
 20
-3.14939456515842
 10
2.606200324164496
 20
-3.322090148925781
 10
2.58010016547309
 20
-3.498798794216579
 10
2.564030117458767
 20
-3.595180935329861
 10
2.531905280219184
 20
-3.689559936523438
 10
2.483710394965278
 20
-3.777914259168837
 10
2.545956929524739
 20
-3.858233133951823
 10
2.628287421332465
 20
-3.920479668511284
 10
2.714638604058159
 20
-3.982733832465278
 10
2.76082271999783
 20
-4.016869439019097
 10
2.809009975857205
 20
-4.051005045572916
 10
2.851180182562934
 20
-4.089153713650173
 10
2.959618462456597
 20
-4.004820929633246
 10
3.05399661593967
 20
-3.916466606987847
 10
3.086121453179253
 20
-3.797990587022569
 10
3.087067498101128
 20
-3.794523451063368
 10
3.088527255588108
 20
-3.791407267252604
 10
3.090201483832465
 20
-3.788466559516059
 10
3.098444620768229
 20
-3.57505374484592
 10
3.110224405924479
 20
-3.361751980251736
 10
3.120191786024305
 20
-3.173492431640625
 10
3.120191786024305
 20
-3.173492431640625
 10
3.136254204644097
 20
-2.892366197374132
 10
3.136254204644097
 20
-2.892366197374132
 10
2.971594068739149
 20
-2.872290717230903
 10
2.720589531792534
 20
-2.848192850748698
 10
2.694481743706597
 20
-2.966668870713975
 10
2.682433234320746
 20
-3.01485612657335
 10
2.523804558648003
 20
-2.998793707953559
 10
2.537856207953559
 20
-2.946585761176215
 10
2.55391862657335
 20
-2.886342366536458
 10
2.594085693359375
 20
-2.842169019911024
 10
2.658342997233073
 20
-2.818071153428819
 10
2.71055179172092
 20
-2.795984903971354
 10
2.780832926432292
 20
-2.785946316189236
 10
2.869187249077691
 20
-2.787949456108941
 10
2.94950697157118
 20
-2.787949456108941
 10
3.041875203450521
 20
-2.797994825575087
 10
3.140267266167534
 20
-2.812047322591146
 10
3.144281175401475
 20
-2.741765340169271
 10
3.146291944715712
 20
-2.643373277452257
 10
3.146291944715712
 20
-2.59517839219835
 10
3.146291944715712
 20
-2.508834838867188
 10
3.41536882188585
 20
-2.500799391004774
 10
3.423396640353733
 20
-2.643373277452257
 10
3.427417331271701
 20
-2.697591993543837
 10
3.423396640353733
 20
-2.77590094672309
 10
3.421393500434028
 20
-2.856228298611111
 10
3.724612765842014
 20
-2.910439385308159
 10
4.071991814507379
 20
-2.972693549262153
 10
4.347093370225695
 20
-2.954620361328125
 10
4.636260986328125
 20
-2.936547173394097
 10
4.668385823567708
 20
-2.810036553276909
 10
4.744684007432725
 20
-2.615262349446614
 10
4.778827243381076
 20
-2.528917948404948
 10
5.017782423231337
 20
-2.516869439019097
 10
4.973609076605903
 20
-2.643373277452257
 10
4.881240844726562
 20
-2.910439385308159
 10
4.636260986328125
 20
-3.016866895887587
 10
4.353117201063368
 20
-3.034940083821614
 10
4.316971672905816
 20
-3.03695085313585
 10
4.282843695746528
 20
-3.038953993055555
 10
4.246697319878472
 20
-3.038953993055555
 10
3.995693630642361
 20
-3.038953993055555
 10
3.706540425618489
 20
-2.988755967881944
 10
3.449512057834201
 20
-2.942571851942274
 10
3.437462700737847
 20
-2.942571851942274
 10
3.427417331271701
 20
-2.940561082628038
 10
3.417371961805555
 20
-2.938550313313802
 10
3.417371961805555
 20
-2.938550313313802
 10
3.401317172580295
 20
-3.199600219726562
 10
3.401317172580295
 20
-3.199600219726562
 10
3.383243984646267
 20
-3.512850443522135
 10
3.361150105794271
 20
-3.90240732828776
 10
3.361150105794271
 20
-4.239762200249566
 10
3.361150105794271
 20
-4.557026333279079
 10
3.371195475260417
 20
-5.071090698242188
 10
3.497691684299045
 20
-4.85221184624566
 10
3.557935078938802
 20
-4.747795104980469
 10
3.622199164496528
 20
-4.605221218532986
 10
3.686449686686198
 20
-4.424498664008246
 10
3.714779324001736
 20
-4.345687866210938
 10
3.740709940592448
 20
-4.266516791449653
 10
3.763639662000868
 20
-4.192268371582031
 10
3.713350084092882
 20
-4.021058824327257
 10
3.707207573784722
 20
-3.821950276692708
 10
3.774781968858507
 20
-3.647388882107204
 10
3.800882127549913
 20
-3.587146335177951
 10
3.833006964789496
 20
-3.538958231608073
 10
3.875177171495225
 20
-3.506826612684462
 10
3.91534423828125
 20
-3.474701775444878
 10
3.961521572536892
 20
-3.454617818196614
 10
4.00771247016059
 20
-3.446583218044704
 10
4.053904215494791
 20
-3.440566168891059
 10
4.096060011121962
 20
-3.444580078125
 10
4.132205539279513
 20
-3.462652418348524
 10
4.186425103081597
 20
-3.488753424750434
 10
4.21854994032118
 20
-3.538958231608073
 10
4.21854994032118
 20
-3.599194844563802
 10
4.21854994032118
 20
-3.677510579427083
 10
4.146272447374132
 20
-3.747792561848958
 10
3.999685499403212
 20
-3.812049018012153
 10
4.011734008789062
 20
-4.008834838867188
 10
4.015740288628472
 20
-4.472693549262153
 10
4.222570631239149
 20
-4.209640502929688
 10
4.304907904730903
 20
-4.09919908311632
 10
4.387230767144097
 20
-3.946588304307725
 10
4.465547349717881
 20
-3.800000508626302
 10
4.466538323296441
 20
-3.798018561469184
 10
4.467764112684462
 20
-3.796250237358941
 10
4.469011094835069
 20
-3.794508192274305
 10
4.426606072319879
 20
-3.777091979980469
 10
4.390015496148004
 20
-3.749507480197483
 10
4.361057705349392
 20
-3.711646185980903
 10
4.31888665093316
 20
-3.655424329969618
 10
4.294804043240017
 20
-3.579118516710069
 10
4.294804043240017
 20
-3.496788024902344
 10
4.294804043240017
 20
-3.428517659505208
 10
4.310859680175781
 20
-3.362249586317274
 10
4.34098137749566
 20
-3.314054701063368
 10
4.377126905653212
 20
-3.253818935818142
 10
4.429328070746528
 20
-3.221687316894531
 10
4.487568325466579
 20
-3.221687316894531
 10
4.565884908040364
 20
-3.221687316894531
 10
4.608055114746094
 20
-3.259835984971788
 10
4.628131442599826
 20
-3.289957682291667
 10
4.670301649305555
 20
-3.354214986165364
 10
4.674322340223524
 20
-3.458631727430555
 10
4.638176812065972
 20
-3.599194844563802
 10
4.626128302680121
 20
-3.653413560655382
 10
4.610058254665798
 20
-3.701608445909288
 10
4.598009745279947
 20
-3.735744052463108
 10
4.778739081488715
 20
-3.72971937391493
 10
4.95343017578125
 20
-3.645378960503472
 10
4.955433315700954
 20
-3.643375820583767
 10
4.977528042263454
 20
-3.625302632649739
 10
5.250625610351562
 20
-3.567070007324219
 10
5.210458543565538
 20
-3.693572998046875
 10
5.210458543565538
 20
-3.695583767361111
 10
5.13816663953993
 20
-3.884341769748264
 10
5.077923244900173
 20
-4.097189161512587
 10
4.93736097547743
 20
-4.585144890679254
 10
4.967482672797309
 20
-4.703614128960504
 10
5.200413174099392
 20
-4.253813849555121
 10
5.316893683539496
 20
-4.028917948404947
 10
5.401219685872396
 20
-3.797990587022569
 10
5.40323723687066
 20
-3.795986599392361
 10
5.411265055338541
 20
-3.7759034898546
 10
5.433358934190538
 20
-3.76385498046875
 10
5.455438401963975
 20
-3.771889580620659
 10
5.475514729817708
 20
-3.779917399088542
 10
5.485560099283854
 20
-3.804014417860243
 10
5.477532280815972
 20
-3.824098375108507
 97
        0
 97
        0
 92
        1
 93
        1
 72
     4
 94
        3
 73
     0
 74
     1
 95
       14
 96
       10
 40
0.0
 40
0.0
 40
0.0
 40
0.0
 40
1.0
 40
1.0
 40
1.0
 40
2.0
 40
2.0
 40
2.0
 40
3.0
 40
3.0
 40
3.0
 40
3.0
 10
4.017757839626736
 20
-3.715660095214844
 10
4.12618170844184
 20
-3.659438239203559
 10
4.138230217827691
 20
-3.615264044867621
 10
4.138230217827691
 20
-3.599194844563802
 10
4.138230217827691
 20
-3.567070007324219
 10
4.138230217827691
 20
-3.567070007324219
 10
4.116150750054254
 20
-3.575096978081597
 10
4.07196299235026
 20
-3.593170166015625
 10
4.037834167480469
 20
-3.643375820583767
 10
4.017757839626736
 20
-3.715660095214844
 97
        0
 97
        0
 92
        1
 93
        1
 72
     4
 94
        3
 73
     0
 74
     1
 95
       20
 96
       16
 40
0.0
 40
0.0
 40
0.0
 40
0.0
 40
1.0
 40
1.0
 40
1.0
 40
2.0
 40
2.0
 40
2.0
 40
3.0
 40
3.0
 40
3.0
 40
4.0
 40
4.0
 40
4.0
 40
5.0
 40
5.0
 40
5.0
 40
5.0
 10
0.8473298814561632
 20
-3.245784335666233
 10
0.9055625067816839
 20
-3.185540941026475
 10
0.9497434828016492
 20
-3.105221218532986
 10
0.9698198106553819
 20
-2.99076673719618
 10
0.9878929985894097
 20
-2.894376966688368
 10
0.9878929985894097
 20
-2.804011874728733
 10
0.9738405015733507
 20
-2.73775143093533
 10
0.965805901421441
 20
-2.689557393391927
 10
0.9216325547960069
 20
-2.601203070746528
 10
0.86138916015625
 20
-2.651407877604167
 10
0.8393020629882812
 20
-2.669481065538194
 10
0.7870941162109375
 20
-2.731727600097656
 10
0.7870941162109375
 20
-2.930523342556424
 10
0.7870941162109375
 20
-3.048999362521701
 10
0.8091803656684027
 20
-3.153416103786892
 10
0.8473298814561632
 20
-3.245784335666233
 97
        0
 97
        0
 92
        1
 93
        1
 72
     4
 94
        3
 73
     0
 74
     1
 95
       23
 96
       19
 40
0.0
 40
0.0
 40
0.0
 40
0.0
 40
1.0
 40
1.0
 40
1.0
 40
2.0
 40
2.0
 40
2.0
 40
3.0
 40
3.0
 40
3.0
 40
4.0
 40
4.0
 40
4.0
 40
5.0
 40
5.0
 40
5.0
 40
6.0
 40
6.0
 40
6.0
 40
6.0
 10
1.42765384250217
 20
-4.516866895887587
 10
1.42765384250217
 20
-4.410447014702691
 10
1.3814697265625
 20
-4.310043334960938
 10
1.307174682617188
 20
-4.211651272243923
 10
1.307174682617188
 20
-4.211651272243923
 10
1.287091573079427
 20
-4.21766832139757
 10
1.287091573079427
 20
-4.21766832139757
 10
1.136490715874566
 20
-4.265863206651476
 10
0.9798651801215277
 20
-4.314057244194879
 10
0.865403069390191
 20
-4.39839850531684
 10
0.7388992309570312
 20
-4.492769877115885
 10
0.6806666056315104
 20
-4.613255818684896
 10
0.6806666056315104
 20
-4.783940633138021
 10
0.6806666056315104
 20
-4.860238817003038
 10
0.7148022121853298
 20
-4.916475931803385
 10
0.7810694376627604
 20
-4.95662858751085
 10
1.030063205295139
 20
-5.093184577094184
 10
1.42765384250217
 20
-4.812059190538194
 10
1.42765384250217
 20
-4.516866895887587
 97
        0
 97
        0
 92
        1
 93
        1
 72
     4
 94
        3
 73
     0
 74
     1
 95
       20
 96
       16
 40
0.0
 40
0.0
 40
0.0
 40
0.0
 40
1.0
 40
1.0
 40
1.0
 40
2.0
 40
2.0
 40
2.0
 40
3.0
 40
3.0
 40
3.0
 40
4.0
 40
4.0
 40
4.0
 40
5.0
 40
5.0
 40
5.0
 40
5.0
 10
2.433512369791667
 20
-3.697594536675347
 10
2.465638054741753
 20
-3.62931654188368
 10
2.489735073513455
 20
-3.5570314195421
 10
2.499772813585069
 20
-3.486750284830729
 10
2.51182132297092
 20
-3.408433702256944
 10
2.509818183051215
 20
-3.340163336859809
 10
2.491745842827691
 20
-3.297992282443576
 10
2.479696485731337
 20
-3.273895263671875
 10
2.461624145507812
 20
-3.253818935818142
 10
2.435516357421875
 20
-3.271884494357639
 10
2.423467000325521
 20
-3.281929863823784
 10
2.385318332248264
 20
-3.322090148925781
 10
2.385318332248264
 20
-3.466666327582465
 10
2.385318332248264
 20
-3.559034559461805
 10
2.403390672471788
 20
-3.633337232801649
 10
2.433512369791667
 20
-3.697594536675347
 97
        0
 97
        0
 92
        1
 93
        1
 72
     4
 94
        3
 73
     0
 74
     1
 95
       14
 96
       10
 40
0.0
 40
0.0
 40
0.0
 40
0.0
 40
1.0
 40
1.0
 40
1.0
 40
2.0
 40
2.0
 40
2.0
 40
3.0
 40
3.0
 40
3.0
 40
3.0
 10
2.758811950683594
 20
-4.470682779947916
 10
2.758811950683594
 20
-4.410447014702691
 10
2.734714931911892
 20
-4.360241360134548
 10
2.692544725206163
 20
-4.314057244194879
 10
2.582103305392795
 20
-4.408436245388454
 10
2.497769673665364
 20
-4.512852986653646
 10
2.497769673665364
 20
-4.663453843858506
 10
2.497769673665364
 20
-4.928524441189236
 10
2.758811950683594
 20
-4.657430013020833
 10
2.758811950683594
 20
-4.470682779947916
 97
        0
 97
        0
 92
        1
 93
        1
 72
     4
 94
        3
 73
     0
 74
     1
 95
       14
 96
       10
 40
0.0
 40
0.0
 40
0.0
 40
0.0
 40
1.0
 40
1.0
 40
1.0
 40
2.0
 40
2.0
 40
2.0
 40
3.0
 40
3.0
 40
3.0
 40
3.0
 10
4.487568325466579
 20
-3.302006191677517
 10
4.367081536187066
 20
-3.336141798231337
 10
4.435352749294704
 20
-3.717670864529079
 10
4.515686882866754
 20
-3.725705464680989
 10
4.527735392252604
 20
-3.693572998046875
 10
4.545808580186631
 20
-3.639361911349826
 10
4.561863369411892
 20
-3.581121656629774
 10
4.575915018717447
 20
-3.520885891384548
 10
4.61808607313368
 20
-3.26385752360026
 10
4.487568325466579
 20
-3.302006191677517
 97
        0
 97
        0
 92
        1
 93
        1
 72
     4
 94
        3
 73
     0
 74
     1
 95
       53
 96
       49
 40
0.0
 40
0.0
 40
0.0
 40
0.0
 40
1.0
 40
1.0
 40
1.0
 40
2.0
 40
2.0
 40
2.0
 40
3.0
 40
3.0
 40
3.0
 40
4.0
 40
4.0
 40
4.0
 40
5.0
 40
5.0
 40
5.0
 40
6.0
 40
6.0
 40
6.0
 40
7.0
 40
7.0
 40
7.0
 40
8.0
 40
8.0
 40
8.0
 40
9.0
 40
9.0
 40
9.0
 40
10.0
 40
10.0
 40
10.0
 40
11.0
 40
11.0
 40
11.0
 40
12.0
 40
12.0
 40
12.0
 40
13.0
 40
13.0
 40
13.0
 40
14.0
 40
14.0
 40
14.0
 40
15.0
 40
15.0
 40
15.0
 40
16.0
 40
16.0
 40
16.0
 40
16.0
 10
5.546480814615885
 20
-3.059341430664062
 10
5.523372226291232
 20
-3.053431193033854
 10
5.503400166829427
 20
-3.050917731391059
 10
5.483238220214844
 20
-3.052228291829427
 10
5.45574951171875
 20
-3.053306579589844
 10
5.401397705078125
 20
-3.069442749023438
 10
5.360810173882379
 20
-3.087983873155382
 10
5.343890719943576
 20
-3.095867580837674
 10
5.328977796766493
 20
-3.101933797200521
 10
5.328008863661024
 20
-3.101489596896701
 10
5.326716952853732
 20
-3.100897047254774
 10
5.323436313205295
 20
-3.088436550564236
 10
5.320721096462673
 20
-3.073890686035156
 10
5.317683749728732
 20
-3.059194776746962
 10
5.310478210449219
 20
-3.03397962782118
 10
5.304209391276041
 20
-3.017801920572917
 10
5.282674153645833
 20
-2.959017435709635
 10
5.260138617621528
 20
-2.932245042588975
 10
5.214574178059896
 20
-2.911336263020833
 10
5.190337287055121
 20
-2.900213453504774
 10
5.183603074815538
 20
-2.898687574598524
 10
5.163886176215278
 20
-2.899030049641927
 10
5.122241550021701
 20
-2.900262620713975
 10
5.080616421169704
 20
-2.921065436469184
 10
5.046552022298177
 20
-2.958638509114583
 10
5.0285890367296
 20
-2.978173149956597
 10
5.024976942274305
 20
-2.984339396158854
 10
5.014136420355903
 20
-3.01222652859158
 10
4.9732666015625
 20
-3.117487589518229
 10
4.98521253797743
 20
-3.232120937771267
 10
5.058195326063368
 20
-3.435400221082899
 10
5.084479437934028
 20
-3.507708231608073
 10
5.089969211154513
 20
-3.51961686876085
 10
5.101264953613281
 20
-3.529104444715712
 10
5.10815684000651
 20
-3.535396152072483
 10
5.118525187174479
 20
-3.540935940212673
 10
5.123816596137153
 20
-3.542191399468316
 10
5.145904541015625
 20
-3.546067979600694
 10
5.376114739312066
 20
-3.455318027072483
 10
5.435687594943576
 20
-3.419277615017361
 10
5.536578708224826
 20
-3.357990688747829
 10
5.610604180230035
 20
-3.287896898057725
 10
5.625872294108072
 20
-3.240132649739583
 10
5.644567701551649
 20
-3.180639478895399
 10
5.637786865234375
 20
-3.134885152180989
 10
5.604847378200954
 20
-3.096688164605034
 10
5.591277228461371
 20
-3.081071641710069
 10
5.564943101671006
 20
-3.06429206000434
 10
5.546480814615885
 20
-3.059341430664062
 97
        0
 97
        0
 75
     2
 76
     1
 98
        0
  0
ENDSEC
  0
SECTION
  2
OBJECTS
  0
DICTIONARY
  5
C
330
0
100
AcDbDictionary
281
     1
  3
ACAD_GROUP
350
D
  3
ACAD_LAYOUT
350
1A
  3
ACAD_MATERIAL
350
3B
  3
ACAD_MLEADERSTYLE
350
58
  3
ACAD_MLINESTYLE
350
17
  3
ACAD_PLOTSETTINGS
350
19
  3
ACAD_PLOTSTYLENAME
350
E
  3
ACAD_TABLESTYLE
350
57
  3
ACAD_VISUALSTYLE
350
2A
  0
SUN
  5
3F
330
29
100
AcDbSun
 90
        1
290
     0
 63
     7
421
 16777215
 40
1.0
291
     1
 91
  2455826
 92
 54000000
292
     0
 70
     2
 71
   256
280
     1
  0
DICTIONARY
  5
D
102
{ACAD_REACTORS
330
C
102
}
330
C
100
AcDbDictionary
281
     1
  0
DICTIONARY
  5
1A
102
{ACAD_REACTORS
330
C
102
}
330
C
100
AcDbDictionary
281
     1
  3
Layout1
350
1E
  3
Layout2
350
26
  3
Model
350
22
  0
DICTIONARY
  5
3B
102
{ACAD_REACTORS
330
C
102
}
330
C
100
AcDbDictionary
281
     1
  3
ByBlock
350
3D
  3
ByLayer
350
3C
  3
Global
350
3E
  0
DICTIONARY
  5
58
102
{ACAD_REACTORS
330
C
102
}
330
C
100
AcDbDictionary
281
     1
  0
DICTIONARY
  5
17
102
{ACAD_REACTORS
330
C
102
}
330
C
100
AcDbDictionary
281
     1
  3
Standard
350
18
  0
DICTIONARY
  5
19
102
{ACAD_REACTORS
330
C
102
}
330
C
100
AcDbDictionary
281
     1
  0
ACDBDICTIONARYWDFLT
  5
E
102
{ACAD_REACTORS
330
C
102
}
330
C
100
AcDbDictionary
281
     1
  3
Normal
350
F
100
AcDbDictionaryWithDefault
340
F
  0
DICTIONARY
  5
57
102
{ACAD_REACTORS
330
C
102
}
330
C
100
AcDbDictionary
281
     1
  0
DICTIONARY
  5
2A
102
{ACAD_REACTORS
330
C
102
}
330
C
100
AcDbDictionary
281
     1
  3
2dWireframe
350
2F
  3
3D Hidden
350
31
  3
3dWireframe
350
30
  3
Basic
350
32
  3
Brighten
350
36
  3
ColorChange
350
3A
  3
Conceptual
350
34
  3
Dim
350
35
  3
Facepattern
350
39
  3
Flat
350
2B
  3
FlatWithEdges
350
2C
  3
Gouraud
350
2D
  3
GouraudWithEdges
350
2E
  3
Linepattern
350
38
  3
Realistic
350
33
  3
Thicken
350
37
  0
LAYOUT
  5
1E
102
{ACAD_REACTORS
330
1A
102
}
330
1A
100
AcDbPlotSettings
  1

  2
none_device
  4

  6

 40
0.0
 41
0.0
 42
0.0
 43
0.0
 44
0.0
 45
0.0
 46
0.0
 47
0.0
 48
0.0
 49
0.0
140
0.0
141
0.0
142
1.0
143
1.0
 70
   688
 72
     0
 73
     0
 74
     5
  7

 75
    16
 76
     0
 77
     2
 78
   300
147
1.0
148
0.0
149
0.0
100
AcDbLayout
  1
Layout1
 70
     1
 71
     1
 10
0.0
 20
0.0
 11
12.0
 21
9.0
 12
0.0
 22
0.0
 32
0.0
 14
1.000000000000000E+20
 24
1.000000000000000E+20
 34
1.000000000000000E+20
 15
-1.000000000000000E+20
 25
-1.000000000000000E+20
 35
-1.000000000000000E+20
146
0.0
 13
0.0
 23
0.0
 33
0.0
 16
1.0
 26
0.0
 36
0.0
 17
0.0
 27
1.0
 37
0.0
 76
     0
330
1B
  0
LAYOUT
  5
26
102
{ACAD_REACTORS
330
1A
102
}
330
1A
100
AcDbPlotSettings
  1

  2
none_device
  4

  6

 40
0.0
 41
0.0
 42
0.0
 43
0.0
 44
0.0
 45
0.0
 46
0.0
 47
0.0
 48
0.0
 49
0.0
140
0.0
141
0.0
142
1.0
143
1.0
 70
   688
 72
     0
 73
     0
 74
     5
  7

 75
    16
 76
     0
 77
     2
 78
   300
147
1.0
148
0.0
149
0.0
100
AcDbLayout
  1
Layout2
 70
     1
 71
     2
 10
0.0
 20
0.0
 11
0.0
 21
0.0
 12
0.0
 22
0.0
 32
0.0
 14
0.0
 24
0.0
 34
0.0
 15
0.0
 25
0.0
 35
0.0
146
0.0
 13
0.0
 23
0.0
 33
0.0
 16
1.0
 26
0.0
 36
0.0
 17
0.0
 27
1.0
 37
0.0
 76
     0
330
23
  0
LAYOUT
  5
22
102
{ACAD_REACTORS
330
1A
102
}
330
1A
100
AcDbPlotSettings
  1

  2
none_device
  4

  6

 40
0.0
 41
0.0
 42
0.0
 43
0.0
 44
0.0
 45
0.0
 46
0.0
 47
0.0
 48
0.0
 49
0.0
140
0.0
141
0.0
142
1.0
143
1.0
 70
  1712
 72
     0
 73
     0
 74
     0
  7

 75
     0
 76
     0
 77
     2
 78
   300
147
1.0
148
0.0
149
0.0
100
AcDbLayout
  1
Model
 70
     1
 71
     0
 10
0.0
 20
0.0
 11
12.0
 21
9.0
 12
0.0
 22
0.0
 32
0.0
 14
1.000000000000000E+20
 24
1.000000000000000E+20
 34
1.000000000000000E+20
 15
-1.000000000000000E+20
 25
-1.000000000000000E+20
 35
-1.000000000000000E+20
146
0.0
 13
0.0
 23
0.0
 33
0.0
 16
1.0
 26
0.0
 36
0.0
 17
0.0
 27
1.0
 37
0.0
 76
     0
330
1F
331
29
  0
MATERIAL
  5
3D
102
{ACAD_REACTORS
330
3B
102
}
330
3B
100
AcDbMaterial
  1
ByBlock
 72
     1
 94
      127
  0
MATERIAL
  5
3C
102
{ACAD_REACTORS
330
3B
102
}
330
3B
100
AcDbMaterial
  1
ByLayer
 72
     1
 94
      127
  0
MATERIAL
  5
3E
102
{ACAD_REACTORS
330
3B
102
}
330
3B
100
AcDbMaterial
  1
Global
 72
     1
 94
      127
  0
MLINESTYLE
  5
18
102
{ACAD_REACTORS
330
17
102
}
330
17
100
AcDbMlineStyle
  2
Standard
 70
     0
  3

 62
   256
 51
90.0
 52
90.0
 71
     2
 49
0.5
 62
   256
  6
BYLAYER
 49
-0.5
 62
   256
  6
BYLAYER
  0
ACDBPLACEHOLDER
  5
F
102
{ACAD_REACTORS
330
E
102
}
330
E
  0
VISUALSTYLE
  5
2F
102
{ACAD_REACTORS
330
2A
102
}
330
2A
100
AcDbVisualStyle
  2
2dWireframe
 70
     4
177
     2
291
     0
 71
     0
176
     1
 72
     2
176
     1
 73
     0
176
     1
 90
        0
176
     1
 40
-0.6
176
     1
 41
-30.0
176
     1
 62
     5
 63
     7
421
 16777215
176
     1
 74
     1
176
     1
 91
        4
176
     1
 64
     7
176
     1
 65
   257
176
     1
 75
     1
176
     1
175
     1
176
     1
 42
1.0
176
     1
 92
        0
176
     1
 66
   257
176
     1
 43
1.0
176
     1
 76
     1
176
     1
 77
     6
176
     1
 78
     2
176
     1
 67
     7
176
     1
 79
     5
176
     1
170
     0
176
     1
171
     0
176
     1
290
     0
176
     1
 93
        1
176
     1
 44
0.0
176
     1
173
     0
176
     1
  0
VISUALSTYLE
  5
31
102
{ACAD_REACTORS
330
2A
102
}
330
2A
100
AcDbVisualStyle
  2
3D Hidden
 70
     6
177
     2
291
     0
 71
     1
176
     1
 72
     2
176
     1
 73
     2
176
     1
 90
        0
176
     1
 40
-0.6
176
     1
 41
-30.0
176
     1
 62
     5
 63
     7
421
 16777215
176
     1
 74
     2
176
     1
 91
        2
176
     1
 64
     7
176
     1
 65
   257
176
     1
 75
     2
176
     1
175
     1
176
     1
 42
40.0
176
     1
 92
        0
176
     1
 66
   257
176
     1
 43
1.0
176
     1
 76
     1
176
     1
 77
     6
176
     1
 78
     2
176
     1
 67
     7
176
     1
 79
     3
176
     1
170
     0
176
     1
171
     0
176
     1
290
     0
176
     1
 93
        1
176
     1
 44
0.0
176
     1
173
     0
176
     1
  0
VISUALSTYLE
  5
30
102
{ACAD_REACTORS
330
2A
102
}
330
2A
100
AcDbVisualStyle
  2
3dWireframe
 70
     5
177
     2
291
     0
 71
     0
176
     1
 72
     2
176
     1
 73
     0
176
     1
 90
        0
176
     1
 40
-0.6
176
     1
 41
-30.0
176
     1
 62
     5
 63
     7
421
 16777215
176
     1
 74
     1
176
     1
 91
        4
176
     1
 64
     7
176
     1
 65
   257
176
     1
 75
     1
176
     1
175
     1
176
     1
 42
1.0
176
     1
 92
        0
176
     1
 66
   257
176
     1
 43
1.0
176
     1
 76
     1
176
     1
 77
     6
176
     1
 78
     2
176
     1
 67
     7
176
     1
 79
     5
176
     1
170
     0
176
     1
171
     0
176
     1
290
     0
176
     1
 93
        1
176
     1
 44
0.0
176
     1
173
     0
176
     1
  0
VISUALSTYLE
  5
32
102
{ACAD_REACTORS
330
2A
102
}
330
2A
100
AcDbVisualStyle
  2
Basic
 70
     7
177
     2
291
     1
 71
     1
176
     1
 72
     0
176
     1
 73
     1
176
     1
 90
        0
176
     1
 40
-0.6
176
     1
 41
-30.0
176
     1
 62
     5
 63
     7
421
 16777215
176
     1
 74
     0
176
     1
 91
        4
176
     1
 64
     7
176
     1
 65
   257
176
     1
 75
     1
176
     1
175
     1
176
     1
 42
1.0
176
     1
 92
        8
176
     1
 66
     7
176
     1
 43
1.0
176
     1
 76
     1
176
     1
 77
     6
176
     1
 78
     2
176
     1
 67
     7
176
     1
 79
     5
176
     1
170
     0
176
     1
171
     0
176
     1
290
     0
176
     1
 93
        1
176
     1
 44
0.0
176
     1
173
     0
176
     1
  0
VISUALSTYLE
  5
36
102
{ACAD_REACTORS
330
2A
102
}
330
2A
100
AcDbVisualStyle
  2
Brighten
 70
    12
177
     2
291
     1
 71
     2
176
     1
 72
     2
176
     1
 73
     0
176
     1
 90
        0
176
     1
 40
-0.6
176
     1
 41
-30.0
176
     1
 62
     5
 63
     7
421
 16777215
176
     1
 74
     1
176
     1
 91
        4
176
     1
 64
     7
176
     1
 65
   257
176
     1
 75
     1
176
     1
175
     1
176
     1
 42
1.0
176
     1
 92
        8
176
     1
 66
     7
176
     1
 43
1.0
176
     1
 76
     1
176
     1
 77
     6
176
     1
 78
     2
176
     1
 67
     7
176
     1
 79
     5
176
     1
170
     0
176
     1
171
     0
176
     1
290
     0
176
     1
 93
        1
176
     1
 44
50.0
176
     1
173
     0
176
     1
  0
VISUALSTYLE
  5
3A
102
{ACAD_REACTORS
330
2A
102
}
330
2A
100
AcDbVisualStyle
  2
ColorChange
 70
    16
177
     2
291
     1
 71
     2
176
     1
 72
     2
176
     1
 73
     3
176
     1
 90
        0
176
     1
 40
-0.6
176
     1
 41
-30.0
176
     1
 62
     5
 63
     8
421
  8421504
176
     1
 74
     1
176
     1
 91
        4
176
     1
 64
     7
176
     1
 65
   257
176
     1
 75
     1
176
     1
175
     1
176
     1
 42
1.0
176
     1
 92
        8
176
     1
 66
     8
424
  8421504
176
     1
 43
1.0
176
     1
 76
     1
176
     1
 77
     6
176
     1
 78
     2
176
     1
 67
     7
176
     1
 79
     5
176
     1
170
     0
176
     1
171
     0
176
     1
290
     0
176
     1
 93
        1
176
     1
 44
0.0
176
     1
173
     0
176
     1
  0
VISUALSTYLE
  5
34
102
{ACAD_REACTORS
330
2A
102
}
330
2A
100
AcDbVisualStyle
  2
Conceptual
 70
     9
177
     2
291
     0
 71
     3
176
     1
 72
     2
176
     1
 73
     0
176
     1
 90
        0
176
     1
 40
-0.6
176
     1
 41
-30.0
176
     1
 62
     5
 63
     7
421
 16777215
176
     1
 74
     2
176
     1
 91
        2
176
     1
 64
     7
176
     1
 65
   257
176
     1
 75
     1
176
     1
175
     1
176
     1
 42
40.0
176
     1
 92
        8
176
     1
 66
     7
176
     1
 43
1.0
176
     1
 76
     1
176
     1
 77
     6
176
     1
 78
     2
176
     1
 67
     7
176
     1
 79
     3
176
     1
170
     0
176
     1
171
     0
176
     1
290
     0
176
     1
 93
        1
176
     1
 44
0.0
176
     1
173
     0
176
     1
  0
VISUALSTYLE
  5
35
102
{ACAD_REACTORS
330
2A
102
}
330
2A
100
AcDbVisualStyle
  2
Dim
 70
    11
177
     2
291
     1
 71
     2
176
     1
 72
     2
176
     1
 73
     0
176
     1
 90
        0
176
     1
 40
-0.6
176
     1
 41
-30.0
176
     1
 62
     5
 63
     7
421
 16777215
176
     1
 74
     1
176
     1
 91
        4
176
     1
 64
     7
176
     1
 65
   257
176
     1
 75
     1
176
     1
175
     1
176
     1
 42
1.0
176
     1
 92
        8
176
     1
 66
     7
176
     1
 43
1.0
176
     1
 76
     1
176
     1
 77
     6
176
     1
 78
     2
176
     1
 67
     7
176
     1
 79
     5
176
     1
170
     0
176
     1
171
     0
176
     1
290
     0
176
     1
 93
        1
176
     1
 44
-50.0
176
     1
173
     0
176
     1
  0
VISUALSTYLE
  5
39
102
{ACAD_REACTORS
330
2A
102
}
330
2A
100
AcDbVisualStyle
  2
Facepattern
 70
    15
177
     2
291
     1
 71
     2
176
     1
 72
     2
176
     1
 73
     0
176
     1
 90
        0
176
     1
 40
-0.6
176
     1
 41
-30.0
176
     1
 62
     5
 63
     7
421
 16777215
176
     1
 74
     1
176
     1
 91
        4
176
     1
 64
     7
176
     1
 65
   257
176
     1
 75
     1
176
     1
175
     1
176
     1
 42
1.0
176
     1
 92
        8
176
     1
 66
     7
176
     1
 43
1.0
176
     1
 76
     1
176
     1
 77
     6
176
     1
 78
     2
176
     1
 67
     7
176
     1
 79
     5
176
     1
170
     0
176
     1
171
     0
176
     1
290
     0
176
     1
 93
        1
176
     1
 44
0.0
176
     1
173
     0
176
     1
  0
VISUALSTYLE
  5
2B
102
{ACAD_REACTORS
330
2A
102
}
330
2A
100
AcDbVisualStyle
  2
Flat
 70
     0
177
     2
291
     1
 71
     2
176
     1
 72
     1
176
     1
 73
     1
176
     1
 90
        2
176
     1
 40
-0.6
176
     1
 41
30.0
176
     1
 62
     5
 63
     7
421
 16777215
176
     1
 74
     0
176
     1
 91
        4
176
     1
 64
     7
176
     1
 65
   257
176
     1
 75
     1
176
     1
175
     1
176
     1
 42
1.0
176
     1
 92
        8
176
     1
 66
     7
176
     1
 43
1.0
176
     1
 76
     1
176
     1
 77
     6
176
     1
 78
     2
176
     1
 67
     7
176
     1
 79
     5
176
     1
170
     0
176
     1
171
     0
176
     1
290
     0
176
     1
 93
       13
176
     1
 44
0.0
176
     1
173
     0
176
     1
  0
VISUALSTYLE
  5
2C
102
{ACAD_REACTORS
330
2A
102
}
330
2A
100
AcDbVisualStyle
  2
FlatWithEdges
 70
     1
177
     2
291
     1
 71
     2
176
     1
 72
     1
176
     1
 73
     1
176
     1
 90
        2
176
     1
 40
-0.6
176
     1
 41
30.0
176
     1
 62
     5
 63
     7
421
 16777215
176
     1
 74
     1
176
     1
 91
        4
176
     1
 64
     7
176
     1
 65
   257
176
     1
 75
     1
176
     1
175
     1
176
     1
 42
1.0
176
     1
 92
        0
176
     1
 66
   257
176
     1
 43
1.0
176
     1
 76
     1
176
     1
 77
     6
176
     1
 78
     2
176
     1
 67
     7
176
     1
 79
     5
176
     1
170
     0
176
     1
171
     0
176
     1
290
     0
176
     1
 93
       13
176
     1
 44
0.0
176
     1
173
     0
176
     1
  0
VISUALSTYLE
  5
2D
102
{ACAD_REACTORS
330
2A
102
}
330
2A
100
AcDbVisualStyle
  2
Gouraud
 70
     2
177
     2
291
     1
 71
     2
176
     1
 72
     2
176
     1
 73
     1
176
     1
 90
        2
176
     1
 40
-0.6
176
     1
 41
30.0
176
     1
 62
     5
 63
     7
421
 16777215
176
     1
 74
     0
176
     1
 91
        4
176
     1
 64
     7
176
     1
 65
   257
176
     1
 75
     1
176
     1
175
     1
176
     1
 42
1.0
176
     1
 92
        0
176
     1
 66
     7
176
     1
 43
1.0
176
     1
 76
     1
176
     1
 77
     6
176
     1
 78
     2
176
     1
 67
     7
176
     1
 79
     5
176
     1
170
     0
176
     1
171
     0
176
     1
290
     0
176
     1
 93
       13
176
     1
 44
0.0
176
     1
173
     0
176
     1
  0
VISUALSTYLE
  5
2E
102
{ACAD_REACTORS
330
2A
102
}
330
2A
100
AcDbVisualStyle
  2
GouraudWithEdges
 70
     3
177
     2
291
     1
 71
     2
176
     1
 72
     2
176
     1
 73
     1
176
     1
 90
        2
176
     1
 40
-0.6
176
     1
 41
30.0
176
     1
 62
     5
 63
     7
421
 16777215
176
     1
 74
     1
176
     1
 91
        4
176
     1
 64
     7
176
     1
 65
   257
176
     1
 75
     1
176
     1
175
     1
176
     1
 42
1.0
176
     1
 92
        0
176
     1
 66
   257
176
     1
 43
1.0
176
     1
 76
     1
176
     1
 77
     6
176
     1
 78
     2
176
     1
 67
     7
176
     1
 79
     5
176
     1
170
     0
176
     1
171
     0
176
     1
290
     0
176
     1
 93
       13
176
     1
 44
0.0
176
     1
173
     0
176
     1
  0
VISUALSTYLE
  5
38
102
{ACAD_REACTORS
330
2A
102
}
330
2A
100
AcDbVisualStyle
  2
Linepattern
 70
    14
177
     2
291
     1
 71
     2
176
     1
 72
     2
176
     1
 73
     0
176
     1
 90
        0
176
     1
 40
-0.6
176
     1
 41
-30.0
176
     1
 62
     5
 63
     7
421
 16777215
176
     1
 74
     1
176
     1
 91
        4
176
     1
 64
     7
176
     1
 65
   257
176
     1
 75
     7
176
     1
175
     7
176
     1
 42
1.0
176
     1
 92
        8
176
     1
 66
     7
176
     1
 43
1.0
176
     1
 76
     1
176
     1
 77
     6
176
     1
 78
     2
176
     1
 67
     7
176
     1
 79
     5
176
     1
170
     0
176
     1
171
     0
176
     1
290
     0
176
     1
 93
        1
176
     1
 44
0.0
176
     1
173
     0
176
     1
  0
VISUALSTYLE
  5
33
102
{ACAD_REACTORS
330
2A
102
}
330
2A
100
AcDbVisualStyle
  2
Realistic
 70
     8
177
     2
291
     0
 71
     2
176
     1
 72
     2
176
     1
 73
     0
176
     1
 90
        0
176
     1
 40
-0.6
176
     1
 41
-30.0
176
     1
 62
     5
 63
     7
421
 16777215
176
     1
 74
     1
176
     1
 91
        0
176
     1
 64
     7
176
     1
 65
   257
176
     1
 75
     1
176
     1
175
     1
176
     1
 42
1.0
176
     1
 92
        8
176
     1
 66
     8
424
  7895160
176
     1
 43
1.0
176
     1
 76
     1
176
     1
 77
     6
176
     1
 78
     2
176
     1
 67
     7
176
     1
 79
     5
176
     1
170
     0
176
     1
171
     0
176
     1
290
     0
176
     1
 93
       13
176
     1
 44
0.0
176
     1
173
     0
176
     1
  0
VISUALSTYLE
  5
37
102
{ACAD_REACTORS
330
2A
102
}
330
2A
100
AcDbVisualStyle
  2
Thicken
 70
    13
177
     2
291
     1
 71
     2
176
     1
 72
     2
176
     1
 73
     0
176
     1
 90
        0
176
     1
 40
-0.6
176
     1
 41
-30.0
176
     1
 62
     5
 63
     7
421
 16777215
176
     1
 74
     1
176
     1
 91
        4
176
     1
 64
     7
176
     1
 65
   257
176
     1
 75
     1
176
     1
175
     1
176
     1
 42
1.0
176
     1
 92
       12
176
     1
 66
     7
176
     1
 43
1.0
176
     1
 76
     1
176
     1
 77
     6
176
     1
 78
     2
176
     1
 67
     7
176
     1
 79
     5
176
     1
170
     0
176
     1
171
     0
176
     1
290
     0
176
     1
 93
        1
176
     1
 44
0.0
176
     1
173
     0
176
     1
  0
ENDSEC
  0
EOF
