<?xml version="1.0" encoding="utf-8"?>
<!-- Generator: Adobe Illustrator 18.0.0, SVG Export Plug-In . SVG Version: 6.00 Build 0)  -->
<!DOCTYPE svg PUBLIC "-//W3C//DTD SVG 1.1//EN" "http://www.w3.org/Graphics/SVG/1.1/DTD/svg11.dtd">
<svg version="1.1" id="Layer_1" xmlns="http://www.w3.org/2000/svg" xmlns:xlink="http://www.w3.org/1999/xlink" x="0px" y="0px"
	 viewBox="0 0 432 432" enable-background="new 0 0 432 432" xml:space="preserve">
<path fill="#141414" d="M141.6,153.5c0,0.7,1,1.3,3,1.8c18.2,4.8,27.2,12.9,27,24.3c-0.1,4.2-0.9,8.6-2.5,13.1
	c-1.6,4.5-4,8.7-7.2,12.6c-3.2,3.9-7.3,7-12.2,9.4c-4.9,2.4-10.7,3.5-17.4,3.4c-3.5-0.1-6.7-0.6-9.7-1.7c-3-1-5.3-2.6-7.1-4.7
	c-1.8-2.1-2.7-4.8-2.6-8.1c0.1-4.2,2.2-7.8,6.3-10.9c4.1-3.1,9-4.6,14.4-4.5c2.6,0,3.9,1.2,3.8,3.4c0,2.2-1.4,3.3-4,3.3
	c-3.7-0.1-6.6,0.7-8.8,2.3c-2.2,1.6-3.3,3.8-3.3,6.6c0,2.1,0.8,3.7,2.6,4.7c1.8,1,3.8,1.6,6,1.6c5.6,0.1,9.9-2.9,12.8-8.8
	c2.6-5.2,3.9-11.8,4.1-19.6c0.1-4.3-0.9-7.8-3-10.7c-2.1-2.9-4.8-5.2-8-7c-3.3-1.8-6.7-3.2-10.2-4.3c-2.9-0.9-4.3-2.2-4.2-4.1
	c0-2,2.6-4.7,7.6-8.2c6.8-4.7,12-9.3,15.6-13.8c5.6-6.9,8.6-15.3,8.7-25.1c0.1-3.8-0.8-6.7-2.5-8.7c-1.8-2-4-3.1-6.7-3.1
	c-5.5-0.1-10.4,2-14.9,6.3c-4.4,4.3-8,10.1-10.5,17.5c-2.6,7.4-4,15.7-4.1,24.8l-0.2,13.8c-0.2,10.3-1,20.9-2.5,31.9
	c-0.5,3.8-2.4,6.5-5.6,8c-2.3,1-4.6,1.5-7.1,1.5c-5.5-0.1-9.3-2.1-11.5-5.9c-0.9-1.5-1.4-3.1-1.3-4.8c0-0.7,0.1-1.8,0.3-3.5
	c1.1-8,1.7-17.9,1.9-29.8c0.2-13.5-0.5-29-2.1-46.6c-0.4-4.8-0.8-8.4-1.1-10.9c-0.3-2.5-0.5-4.2-0.5-5c0-2.2,1.1-4.1,3.1-5.5
	c2-1.5,4.6-2.2,7.6-2.1c3.7,0.1,6.6,0.8,8.7,2.2c3.8,2.5,6.1,7.1,7.1,13.7c0.7,5.2,1,8.9,1,11.1c4.9-10.2,11.4-17.7,19.5-22.5
	c5.7-3.3,12.3-4.9,19.9-4.8c5.3,0.1,9.9,1.2,13.8,3.2c3.9,2,6.9,4.8,9.1,8.2c2.1,3.4,3.1,7.2,3.1,11.4c-0.1,7.5-3.1,15.2-9,23.2
	c-5,6.8-13.2,13.2-24.5,19.1C142.5,152,141.6,152.8,141.6,153.5z M218.1,110.5c-2.1-1.3-4.8-2-7.9-2.1c-2.7,0-5.1,0.4-7.2,1.4
	c-4.2,1.9-6.5,16.1-7,42.6c-0.1,8.4,0.2,17,1,25.7c0.2,2.6,1.5,4.7,3.7,6.1c2.2,1.4,4.8,2.1,7.6,2.2c3.5,0.1,6.2-0.8,8.2-2.6
	c2-1.8,3-3.8,3-6.1c0-1.3,0-2.7-0.2-4.2c-0.5-5.4-0.7-12.5-0.5-21.3c0.2-9.8,0.8-20,1.9-30.4c0.1-1.3,0.3-2.4,0.4-3.4
	c0.1-1,0.2-1.9,0.2-2.8C221.3,113.5,220.3,111.8,218.1,110.5z M296.2,143.4c-5.7-0.1-11.4,0.5-17.1,1.8c-2.4,0.6-3.7,1.7-3.7,3.4
	c0,0.8,0.4,1.5,1.1,2.3c0.8,0.8,2,1.2,3.6,1.2c0.5,0,1-0.1,1.5-0.2c4.3-0.9,8-1.3,11-1.3c1.9,0,2.9,1.2,2.8,3.5
	c-0.1,5.2-0.9,9.8-2.5,13.9c-1.6,4.1-3.5,7-5.7,8.9c-2.2,1.9-4.9,2.7-8,2.7c-4.5-0.1-8-2.3-10.5-6.8c-3.4-6.1-4.9-15.7-4.7-29.1
	c0.2-11.8,2.5-20.3,6.9-25.4c2.5-3,5.2-4.5,8.1-4.5c3.6,0.1,7,2.2,10.3,6.5c2.5,3.2,4.4,7.1,5.6,11.9c0.5,1.7,1.9,2.6,4.3,2.6
	c4.5,0.1,6.7-1.2,6.8-3.8c0-0.9-0.6-3-1.7-6.2c-4.9-13.6-14.3-20.5-28.2-20.8c-8.7-0.2-15.9,2.2-21.6,7
	c-9.4,7.9-14.3,19.9-14.6,35.9c-0.3,19.6,6,32.5,18.9,38.7c4.7,2.3,9.8,3.4,15.5,3.5c7.8,0.1,14.3-1.5,19.5-4.8
	c4.1-2.7,7.1-6.4,8.9-11.1c1.9-4.8,2.9-8.6,3.1-11.4c0.3-4,0.5-7.4,0.5-10.2C306.6,146.2,303.2,143.5,296.2,143.4z M72,152.1
	c-2.9-4.5-7.8-8.5-12-9.7c-1.3-0.4-4-0.7-5.2-0.6c-1.4,0.1-3.6,0.5-4.7,0.9c-1.9,0.7-3.6,2-4.4,3.3c-1.1,1.8-1.6,3-1.9,5.2
	c-0.4,2.4-0.2,3.7,0.7,5.7c0.5,1,1.8,2.7,2.7,3.4c0.7,0.6,2.2,1.4,3.1,1.7c0.5,0.2,1.1,0.3,5,1.2c2.8,0.6,5.4,1.4,6.7,2
	c1.7,0.7,4.2,2.3,6.3,4c2.5,2.1,5.6,4.7,6.2,5.3c0.4,0.4,1,1,1.4,1.5c0.4,0.5,0.7,0.8,0.8,0.8c0,0,0.1,0,0.3,0.1
	c0.2,0.2,1.1,0.1,1.5-0.2c0.4-0.3,0.5-0.8,0.5-1.6c-0.5-7.1-1.1-10.2-2.6-14.7C75.5,158,73.9,155,72,152.1z"/>
<path fill="#B09953" d="M333,141.8c-3-9.6-3.4-13.2-1.8-17.3c0.6-1.6,1.6-2.7,3-3.7c2.1-1.4,5.6-1.6,8.3-0.5c2.5,1.1,5.2,4.3,6.8,8
	c2.2,5.2,2.9,11,2.2,18.5c-0.8,9.7-2.3,16.1-6,26.3c-0.8,2.2-2.7,4.7-3.4,4.5c-0.2-0.1-0.4,0-0.5,0.1c-0.2,0.2-1.4,0.1-1.7-0.1
	c-0.1-0.1-0.3-0.1-0.5-0.2c-0.4-0.1-0.9-0.7-1.3-1.7c-0.1-0.3-0.4-3.7-0.6-7.5c-0.2-3.8-0.6-8.6-0.8-10.6
	C336.3,153.7,334.8,147.2,333,141.8z M360.5,182.1c0.1-0.1,0.3-0.1,0.4,0c0.1,0.1,0.3,0,0.5-0.1c0.1-0.2,0.3-0.2,0.4-0.2
	c0.2,0.2,5.7-4.4,9.1-7.5c2.5-2.3,12.5-13.6,15.3-17.2c5.1-6.8,6.6-13.6,3.8-17c-1.5-1.8-3.8-2.6-6.3-2.4c-1.3,0.1-4,1.3-5.3,2.3
	c-1.9,1.5-5.5,5.5-7.3,8.2c-2,2.9-5.4,9.2-7.8,14.4c-0.9,2-2.4,5.3-3.4,7.4c-3.1,6.6-3.8,10.1-2.4,11.3
	C358.3,182.2,360.1,182.6,360.5,182.1z M419.1,180.1c-1.5-1.9-2.6-2.5-5.4-3.4c-3.4-1-9.2-0.8-14.7,0.6c-5.1,1.3-11.8,4-16.7,6.6
	c-4.4,2.4-12,7.3-14.3,9.3c-0.8,0.7-1.7,1.5-2,1.7c-0.7,0.7-1.4,2.3-1.2,2.5c0.1,0.1,0.1,0.2,0,0.2c-0.3,0-0.3,1,0,1.2
	c0.1,0.1,0.1,0.3,0,0.4c-0.2,0.3,0.9,1.3,1.9,1.7c0.9,0.4,1.9,0.1,5-1.3c3.3-1.6,4.3-1.8,10-2.5c5-0.6,11.7-0.8,22.5-0.7
	c8.5,0.1,11.3-0.6,14-3.1c1.6-1.6,2.5-3.3,2.9-5.6C421.5,185,420.9,182.4,419.1,180.1z M138.2,254.7c4.2,0,7.4-3,7.4-6.9
	c0-4-3.2-7.1-7.4-7.1c-3.9,0-7.1,3-7.1,7.1C131.1,251.6,134.3,254.7,138.2,254.7z M394.4,275.3c0,0.1-6.4,17.2-14.7,33.5
	c-4.8,9.3-16.6,33-29.9,33c-3,0-6.1-1.3-8-4.5c-3.9-6.7-2.7-20.7,3.5-43.1c2.7-9.4,5.8-18.4,7.8-24.1c-5.6,2-14.3,4.6-23.1,4.6
	c-1,0-2-0.1-3-0.2c0,0.5-0.1,1.1-0.3,1.7c-5.6,10.8-11.7,22.1-17.9,30.4c-5.2,6.4-11.9,13.9-21,13.9c-5.2,0-9.8-3.5-13.3-10.1
	c-1.1,3.4-2.2,6.8-3.4,10.2c-4.8,13.3-9.5,24-14,31.7c-6.4,10.6-12.3,15.6-18.4,15.8h-0.1c-2.6,0-4.9-1-6.9-3
	c-6.4-6.7-9.4-24.3-9.7-55.7c0-7.4,0.1-15.1,0.3-23c-3.4,4.5-7.9,8.4-12.6,12.2c5.5,5.9,9.3,13.2,9.4,23.4c0,5.9-1.4,11.4-4.3,16.2
	c-2.5,4.3-6.1,7.8-10.4,10.4c-4.3,2.5-9.1,3.8-13.4,3.8c-9.4,0-16.6-6.4-16.6-16.5c0-8,2.7-15.2,8.4-22c2.2-2.6,4.8-5.1,7.4-7.4
	c-2.5-2.2-5.3-4.3-8.4-6.8c-3.7-2.9-7.7-6-11.6-9.5c-1.2,5.6-2.8,12.1-4.8,18.6c-3,9.7-6.1,17.3-9.4,22.7c-7.8,14-22,13.9-26.7-2.7
	c-1.7-5.6-2.7-13.3-3-22.6c-0.2-6.4,0-13,0.2-18.5c-2.3,2.4-5.2,4.6-8.6,6.5l-3.8,1.9c6.2,9.3,9.3,18.8,9.3,29.2
	c0.1,6.9-1.9,13.4-5.8,19.4c-3.6,5.2-8.5,9.5-14.7,13.3c-13.4,7.8-34.4,12.6-49.2,3.9c-3.2-1.7-5.6-4.2-7.4-6.9
	c-1.9-3-2.7-6.5-2.7-10.4c0-14,5.1-24.6,15.6-32.4c8.8-6.5,20.2-10.1,31.4-13.6c-4.2-4.9-9.1-9.8-14.2-15
	c-9.4-9.4-19.1-19.2-26.6-30.8c-0.9-1.2-1.6-2.5-2.3-3.6l-8,3c-13.2,4.8-23.6,8.5-23.6,22.7c0,1.6-1.3,2.9-2.9,2.9
	c-1.6,0-2.9-1.3-2.9-2.9c0-8.2,2.9-14.5,8.8-19.2c5.1-4,11.6-6.4,18.5-9l7.2-2.6c-5.3-10.7-8-21.5-8-33c0-5.6,1-10.7,2.9-15.2
	c2-4.3,4.9-7.8,8.4-10.1C58,179,73,182.7,75.9,196c1.2,5.5,1,12.6-0.3,20.4c-1.7,9.5-5.6,17.1-12,23c6.5,12.4,17.1,22.3,27.3,31.8
	c6.8,6.4,13.7,12.9,19.4,20.1c7.8-3.6,13.8-8.1,16.6-15.1c0.1-1.7,0.3-2.7,0.3-2.9c0.9-4.9,20.2-4.6,20,5.6c0,0.1-1,8.2-1.2,21.1
	c0,33.3,5.2,34.3,13.4,7.1c2.4-7.9,4.2-15.9,5.5-22c-7.6-8.5-13.5-19.5-13.5-35.5c0-4,0.9-8.1,2.6-11.4c1.7-3.5,4.3-6.2,7.2-8.1
	c2.6-1.6,5.5-2.5,8.5-2.5c14.7-0.9,17.8,11.6,15.9,24.3c-1.2,6.9-3.5,13.7-6.9,20.1c4.5,5.8,10.4,10.3,16.6,14.7
	c3.3,2.5,6.8,4.9,9.8,7.7c7.8-6.1,14.6-12.4,16.9-21c0.1-0.2,0.2-0.5,0.3-0.7c0.6-15.4,1.4-30.7,2.2-44.3l1.2-20.2
	c-11.9-1.4-29.9-3.2-31.8,5.3c-0.9,3.5-12.3,2.3-11.3-1.4c1.2-4.3,4-7.5,8.7-9.3c3.8-1.6,8.8-2.3,15.2-2.2c5.8,0,12.4,0.7,19.5,1.7
	c0.3-5.1,0.4-12.1,0.4-15.6c0-6.2,19.4-6.8,20,3.5c0.3,3.9,0,9.5-0.1,15.3c21.8,3.9,46.8,8.4,66.7,7.1c20.8-1.3,23.1-10.4,28.6-24.4
	c2.5-6.2,19.7-7.1,16.5,2c-6.7,19.2-24.3,26.9-44.7,28.2c-2.6,0.1-5.1,0.3-7.7,0.3c-18.1,0-38.9-3.6-57.4-6.9
	c-0.9,0-1.6-0.1-2.3-0.3l-1.2,18.8c-1.3,22.6-2.9,50.6-2.9,74.9c0,22.8,0.7,59.9,9.8,44.1c4.3-7.5,9-17.8,13.6-30.8
	c2-5.7,3.9-11.4,5.6-16.7c-3.6-12.3-4.1-26.7,0.8-39.2c1.9-4.3,4.2-7.8,7.2-10.1c2.9-2.3,6.2-3.8,9.5-4.3c3.3-0.4,6.4-0.1,9,1.2
	c3.9,1.9,6.2,5.5,6.2,9.8c0,5.6-5.2,10.7-15.8,15.3c0.9,14.2,1.2,47.6,16,28.6c5.9-8,11.9-18.9,17.5-29.5c0.1-0.1,0.2-0.3,0.2-0.4
	c-3.1-1.3-5.7-3.2-7.8-6c-3-4-4.8-9.5-4.8-15.5c0-4.9,1.2-9.7,3.3-13.2c2.6-4.3,6.4-6.7,10.6-6.7c5.6,0,8.7,2.7,10.1,4.9
	c3,4.6,3.3,12.1,0.7,22.3c-0.9,3.9-2,7.4-2.9,9.8c13-0.4,25.6-6.5,25.7-6.7c1.6-1.3,21.3-5.5,18.4,3.6c0,0.1-5.2,13.7-9.5,29.1
	c-10.1,35.1-8,43.7,8.8,11.3c8.4-16.2,14.5-32.8,14.6-33c0.6-1.4,2.2-2.3,3.8-1.7C394.2,272.2,395,273.9,394.4,275.3z M289.3,267.5
	c7.8-4,8.7-7.2,8.7-8.4c0-2.3,0-2.3-1.6-1.7C293.2,258.7,290.7,262.3,289.3,267.5z M61,233.7c4.2-4.3,7.4-10.1,8.8-18.4
	c1.3-6.9,1.3-13.4,0.3-18.2c-0.6-3.5-3.8-9.8-8.1-6.2c-1.6,1.3-5.3,5.8-5.3,20.1C56.7,219.5,58.3,227,61,233.7z M102.8,325.2
	c0-7.7-3.3-14.9-8.7-22l-1.4,0.4c-10.8,3.5-22.1,6.9-30.4,13c-9.1,6.8-13.3,15.5-13.3,27.8c0,5.5,2.5,9.5,7.2,12.4
	C74.2,366.7,102.8,346.5,102.8,325.2z M175.2,266.2c2.3-4.9,4-10.1,4.8-15.2c0.9-5.6,0.7-10.6-0.6-13.6c-0.9-1.7-2.2-3.2-4-1.9
	c-0.9,0.7-3.6,3.6-3.6,14C171.7,256.3,173,261.6,175.2,266.2z M198.6,321.9c0-4.3-1.7-8-4.8-11.3c-8,6.8-14,14.3-14,25.2
	C179.8,354.9,198.6,335.3,198.6,321.9z M323.1,237.7c-8.7,2.5-3.8,29.9,2,30.5c0.9-2.3,2.2-6.2,3.3-10.4
	C329.5,253.5,332.5,235,323.1,237.7z M399.3,220.3c-1.7-0.4-3.1-0.6-4.6-0.5c-2,0.1-5.9,1.2-8.8,2.6c-1.2,0.6-2.3,1-2.4,1
	c-0.1,0-0.3-0.9-0.5-2c-0.2-1.1-0.7-2.9-1.2-4c-1.6-4.2-3.2-6.2-6.5-7.7c-1.7-0.8-2.2-0.9-3.6-0.9c-3,0.1-6,1.6-8.4,4.3
	c-1.3,1.4-1.6,1.9-2.3,3.9c-2.9,7.6-2.1,15.8,3.2,30.5c1.9,5.2,2.3,6.1,3.1,6.7c0.5,0.5,1.2,0.9,1.6,0.9c1.6,0.3,18.2-6.3,22.5-8.8
	c7.3-4.4,12.6-9.5,13.7-12.9c1.3-4.3,0.9-7.6-1.5-10.3C402.6,221.8,400.7,220.6,399.3,220.3z"/>
</svg>
