  0
SECTION
  2
HEADER
  9
$ACADVER
  1
AC1024
  9
$ACADMAINTVER
 70
     6
  9
$DWGCODEPAGE
  3
ANSI_1252
  9
$INSBASE
 10
0.0
 20
0.0
 30
0.0
  9
$EXTMIN
 10
1.000000000000000E+20
 20
1.000000000000000E+20
 30
1.000000000000000E+20
  9
$EXTMAX
 10
-1.000000000000000E+20
 20
-1.000000000000000E+20
 30
-1.000000000000000E+20
  9
$LIMMIN
 10
0.0
 20
0.0
  9
$LIMMAX
 10
12.0
 20
9.0
  9
$ORTHOMODE
 70
     0
  9
$REGENMODE
 70
     1
  9
$FILLMODE
 70
     1
  9
$QTEXTMODE
 70
     0
  9
$MIRRTEXT
 70
     1
  9
$LTSCALE
 40
1.0
  9
$ATTMODE
 70
     1
  9
$TEXTSIZE
 40
0.2
  9
$TRACEWID
 40
0.05
  9
$TEXTSTYLE
  7
Standard
  9
$CLAYER
  8
0
  9
$CELTYPE
  6
ByLayer
  9
$CECOLOR
 62
   256
  9
$CELTSCALE
 40
1.0
  9
$DISPSILH
 70
     0
  9
$DIMSCALE
 40
1.0
  9
$DIMASZ
 40
0.18
  9
$DIMEXO
 40
0.0625
  9
$DIMDLI
 40
0.38
  9
$DIMRND
 40
0.0
  9
$DIMDLE
 40
0.0
  9
$DIMEXE
 40
0.18
  9
$DIMTP
 40
0.0
  9
$DIMTM
 40
0.0
  9
$DIMTXT
 40
0.18
  9
$DIMCEN
 40
0.09
  9
$DIMTSZ
 40
0.0
  9
$DIMTOL
 70
     0
  9
$DIMLIM
 70
     0
  9
$DIMTIH
 70
     1
  9
$DIMTOH
 70
     1
  9
$DIMSE1
 70
     0
  9
$DIMSE2
 70
     0
  9
$DIMTAD
 70
     0
  9
$DIMZIN
 70
     0
  9
$DIMBLK
  1

  9
$DIMASO
 70
     1
  9
$DIMSHO
 70
     1
  9
$DIMPOST
  1

  9
$DIMAPOST
  1

  9
$DIMALT
 70
     0
  9
$DIMALTD
 70
     2
  9
$DIMALTF
 40
25.4
  9
$DIMLFAC
 40
1.0
  9
$DIMTOFL
 70
     0
  9
$DIMTVP
 40
0.0
  9
$DIMTIX
 70
     0
  9
$DIMSOXD
 70
     0
  9
$DIMSAH
 70
     0
  9
$DIMBLK1
  1

  9
$DIMBLK2
  1

  9
$DIMSTYLE
  2
Standard
  9
$DIMCLRD
 70
     0
  9
$DIMCLRE
 70
     0
  9
$DIMCLRT
 70
     0
  9
$DIMTFAC
 40
1.0
  9
$DIMGAP
 40
0.09
  9
$DIMJUST
 70
     0
  9
$DIMSD1
 70
     0
  9
$DIMSD2
 70
     0
  9
$DIMTOLJ
 70
     1
  9
$DIMTZIN
 70
     0
  9
$DIMALTZ
 70
     0
  9
$DIMALTTZ
 70
     0
  9
$DIMUPT
 70
     0
  9
$DIMDEC
 70
     4
  9
$DIMTDEC
 70
     4
  9
$DIMALTU
 70
     2
  9
$DIMALTTD
 70
     2
  9
$DIMTXSTY
  7
Standard
  9
$DIMAUNIT
 70
     0
  9
$DIMADEC
 70
     0
  9
$DIMALTRND
 40
0.0
  9
$DIMAZIN
 70
     0
  9
$DIMDSEP
 70
    46
  9
$DIMATFIT
 70
     3
  9
$DIMFRAC
 70
     0
  9
$DIMLDRBLK
  1

  9
$DIMLUNIT
 70
     2
  9
$DIMLWD
 70
    -2
  9
$DIMLWE
 70
    -2
  9
$DIMTMOVE
 70
     0
  9
$DIMFXL
 40
1.0
  9
$DIMFXLON
 70
     0
  9
$DIMJOGANG
 40
0.7853981633974483
  9
$DIMTFILL
 70
     0
  9
$DIMTFILLCLR
 70
     0
  9
$DIMARCSYM
 70
     0
  9
$DIMLTYPE
  6

  9
$DIMLTEX1
  6

  9
$DIMLTEX2
  6

  9
$DIMTXTDIRECTION
 70
     0
  9
$LUNITS
 70
     2
  9
$LUPREC
 70
     4
  9
$SKETCHINC
 40
0.1
  9
$FILLETRAD
 40
0.5
  9
$AUNITS
 70
     0
  9
$AUPREC
 70
     0
  9
$MENU
  1
.
  9
$ELEVATION
 40
0.0
  9
$PELEVATION
 40
0.0
  9
$THICKNESS
 40
0.0
  9
$LIMCHECK
 70
     0
  9
$CHAMFERA
 40
0.5
  9
$CHAMFERB
 40
0.5
  9
$CHAMFERC
 40
1.0
  9
$CHAMFERD
 40
0.0
  9
$SKPOLY
 70
     0
  9
$TDCREATE
 40
2458603.75690404
  9
$TDUCREATE
 40
2458603.50690404
  9
$TDUPDATE
 40
2458603.756904155
  9
$TDUUPDATE
 40
2458603.506904155
  9
$TDINDWG
 40
0.0000000116
  9
$TDUSRTIMER
 40
0.0000000116
  9
$USRTIMER
 70
     1
  9
$ANGBASE
 50
0.0
  9
$ANGDIR
 70
     0
  9
$PDMODE
 70
     0
  9
$PDSIZE
 40
0.0
  9
$PLINEWID
 40
0.0
  9
$SPLFRAME
 70
     0
  9
$SPLINETYPE
 70
     6
  9
$SPLINESEGS
 70
     8
  9
$HANDSEED
  5
5C
  9
$SURFTAB1
 70
     6
  9
$SURFTAB2
 70
     6
  9
$SURFTYPE
 70
     6
  9
$SURFU
 70
     6
  9
$SURFV
 70
     6
  9
$UCSBASE
  2

  9
$UCSNAME
  2

  9
$UCSORG
 10
0.0
 20
0.0
 30
0.0
  9
$UCSXDIR
 10
1.0
 20
0.0
 30
0.0
  9
$UCSYDIR
 10
0.0
 20
1.0
 30
0.0
  9
$UCSORTHOREF
  2

  9
$UCSORTHOVIEW
 70
     0
  9
$UCSORGTOP
 10
0.0
 20
0.0
 30
0.0
  9
$UCSORGBOTTOM
 10
0.0
 20
0.0
 30
0.0
  9
$UCSORGLEFT
 10
0.0
 20
0.0
 30
0.0
  9
$UCSORGRIGHT
 10
0.0
 20
0.0
 30
0.0
  9
$UCSORGFRONT
 10
0.0
 20
0.0
 30
0.0
  9
$UCSORGBACK
 10
0.0
 20
0.0
 30
0.0
  9
$PUCSBASE
  2

  9
$PUCSNAME
  2

  9
$PUCSORG
 10
0.0
 20
0.0
 30
0.0
  9
$PUCSXDIR
 10
1.0
 20
0.0
 30
0.0
  9
$PUCSYDIR
 10
0.0
 20
1.0
 30
0.0
  9
$PUCSORTHOREF
  2

  9
$PUCSORTHOVIEW
 70
     0
  9
$PUCSORGTOP
 10
0.0
 20
0.0
 30
0.0
  9
$PUCSORGBOTTOM
 10
0.0
 20
0.0
 30
0.0
  9
$PUCSORGLEFT
 10
0.0
 20
0.0
 30
0.0
  9
$PUCSORGRIGHT
 10
0.0
 20
0.0
 30
0.0
  9
$PUCSORGFRONT
 10
0.0
 20
0.0
 30
0.0
  9
$PUCSORGBACK
 10
0.0
 20
0.0
 30
0.0
  9
$USERI1
 70
     0
  9
$USERI2
 70
     0
  9
$USERI3
 70
     0
  9
$USERI4
 70
     0
  9
$USERI5
 70
     0
  9
$USERR1
 40
0.0
  9
$USERR2
 40
0.0
  9
$USERR3
 40
0.0
  9
$USERR4
 40
0.0
  9
$USERR5
 40
0.0
  9
$WORLDVIEW
 70
     1
  9
$SHADEDGE
 70
     3
  9
$SHADEDIF
 70
    70
  9
$TILEMODE
 70
     1
  9
$MAXACTVP
 70
    64
  9
$PINSBASE
 10
0.0
 20
0.0
 30
0.0
  9
$PLIMCHECK
 70
     0
  9
$PEXTMIN
 10
1.000000000000000E+20
 20
1.000000000000000E+20
 30
1.000000000000000E+20
  9
$PEXTMAX
 10
-1.000000000000000E+20
 20
-1.000000000000000E+20
 30
-1.000000000000000E+20
  9
$PLIMMIN
 10
0.0
 20
0.0
  9
$PLIMMAX
 10
12.0
 20
9.0
  9
$UNITMODE
 70
     0
  9
$VISRETAIN
 70
     1
  9
$PLINEGEN
 70
     0
  9
$PSLTSCALE
 70
     1
  9
$TREEDEPTH
 70
  3020
  9
$CMLSTYLE
  2
Standard
  9
$CMLJUST
 70
     0
  9
$CMLSCALE
 40
1.0
  9
$PROXYGRAPHICS
 70
     1
  9
$MEASUREMENT
 70
     0
  9
$CELWEIGHT
370
    -1
  9
$ENDCAPS
280
     0
  9
$JOINSTYLE
280
     0
  9
$LWDISPLAY
290
     1
  9
$INSUNITS
 70
     1
  9
$HYPERLINKBASE
  1

  9
$STYLESHEET
  1

  9
$XEDIT
290
     1
  9
$CEPSNTYPE
380
     0
  9
$PSTYLEMODE
290
     1
  9
$FINGERPRINTGUID
  2
{0A08EB8F-BF71-4CD5-9F7A-9214ADD87C04}
  9
$VERSIONGUID
  2
{FAEB1C32-E019-11D5-929B-00C0DF256EC4}
  9
$EXTNAMES
290
     1
  9
$PSVPSCALE
 40
0.0
  9
$OLESTARTUP
290
     0
  9
$SORTENTS
280
   127
  9
$INDEXCTL
280
     0
  9
$HIDETEXT
280
     1
  9
$XCLIPFRAME
280
     2
  9
$HALOGAP
280
     0
  9
$OBSCOLOR
 70
   257
  9
$OBSLTYPE
280
     0
  9
$INTERSECTIONDISPLAY
280
     0
  9
$INTERSECTIONCOLOR
 70
   257
  9
$DIMASSOC
280
     2
  9
$PROJECTNAME
  1

  9
$CAMERADISPLAY
290
     0
  9
$LENSLENGTH
 40
50.0
  9
$CAMERAHEIGHT
 40
0.0
  9
$STEPSPERSEC
 40
2.0
  9
$STEPSIZE
 40
6.0
  9
$3DDWFPREC
 40
2.0
  9
$PSOLWIDTH
 40
0.25
  9
$PSOLHEIGHT
 40
4.0
  9
$LOFTANG1
 40
1.570796326794897
  9
$LOFTANG2
 40
1.570796326794897
  9
$LOFTMAG1
 40
0.0
  9
$LOFTMAG2
 40
0.0
  9
$LOFTPARAM
 70
     7
  9
$LOFTNORMALS
280
     1
  9
$LATITUDE
 40
37.795
  9
$LONGITUDE
 40
-122.394
  9
$NORTHDIRECTION
 40
0.0
  9
$TIMEZONE
 70
 -8000
  9
$LIGHTGLYPHDISPLAY
280
     1
  9
$TILEMODELIGHTSYNCH
280
     1
  9
$CMATERIAL
347
3C
  9
$SOLIDHIST
280
     1
  9
$SHOWHIST
280
     1
  9
$DWFFRAME
280
     2
  9
$DGNFRAME
280
     2
  9
$REALWORLDSCALE
290
     1
  9
$INTERFERECOLOR
 62
   256
  9
$CSHADOW
280
     0
  9
$SHADOWPLANELOCATION
 40
0.0
  0
ENDSEC
  0
SECTION
  2
CLASSES
  0
CLASS
  1
ACDBDICTIONARYWDFLT
  2
AcDbDictionaryWithDefault
  3
ObjectDBX Classes
 90
        0
 91
        4
280
     0
281
     0
  0
CLASS
  1
VISUALSTYLE
  2
AcDbVisualStyle
  3
ObjectDBX Classes
 90
     4095
 91
        4
280
     0
281
     0
  0
CLASS
  1
MATERIAL
  2
AcDbMaterial
  3
ObjectDBX Classes
 90
     1153
 91
        4
280
     0
281
     0
  0
CLASS
  1
SUN
  2
AcDbSun
  3
SCENEOE
 90
     1024
 91
        4
280
     0
281
     0
  0
ENDSEC
  0
SECTION
  2
TABLES
  0
TABLE
  2
VPORT
  5
8
330
0
100
AcDbSymbolTable
 70
     1
  0
VPORT
  5
29
330
8
100
AcDbSymbolTableRecord
100
AcDbViewportTableRecord
  2
*Active
 70
     0
 10
0.0
 20
0.0
 11
1.0
 21
1.0
 12
0.0
 22
0.0
 13
0.0
 23
0.0
 14
0.5
 24
0.5
 15
0.5
 25
0.5
 16
0.0
 26
0.0
 36
1.0
 17
3.0
 27
-3.0
 37
0.0
 40
6.0
 41
1.0
 42
50.0
 43
0.0
 44
0.0
 50
0.0
 51
0.0
 71
     0
 72
   100
 73
     1
 74
     3
 75
     0
 76
     0
 77
     0
 78
     0
281
     0
 65
     1
110
0.0
120
0.0
130
0.0
111
1.0
121
0.0
131
0.0
112
0.0
122
1.0
132
0.0
 79
     0
146
0.0
 60
     3
 61
     5
292
     1
282
     1
141
0.0
142
0.0
 63
   250
361
3F
  0
ENDTAB
  0
TABLE
  2
LTYPE
  5
5
330
0
100
AcDbSymbolTable
 70
     1
  0
LTYPE
  5
14
330
5
100
AcDbSymbolTableRecord
100
AcDbLinetypeTableRecord
  2
ByBlock
 70
     0
  3

 72
    65
 73
     0
 40
0.0
  0
LTYPE
  5
15
330
5
100
AcDbSymbolTableRecord
100
AcDbLinetypeTableRecord
  2
ByLayer
 70
     0
  3

 72
    65
 73
     0
 40
0.0
  0
LTYPE
  5
16
330
5
100
AcDbSymbolTableRecord
100
AcDbLinetypeTableRecord
  2
Continuous
 70
     0
  3
Solid line
 72
    65
 73
     0
 40
0.0
  0
ENDTAB
  0
TABLE
  2
LAYER
  5
2
330
0
100
AcDbSymbolTable
 70
     2
  0
LAYER
  5
10
330
2
100
AcDbSymbolTableRecord
100
AcDbLayerTableRecord
  2
0
 70
     0
 62
     7
  6
Continuous
370
    -3
390
F
347
3E
  0
LAYER
  5
40
330
2
100
AcDbSymbolTableRecord
100
AcDbLayerTableRecord
  2
Layer 1
 70
     0
 62
     7
  6
Continuous
370
    -3
390
F
347
3E
  0
ENDTAB
  0
TABLE
  2
STYLE
  5
3
330
0
100
AcDbSymbolTable
 70
     1
  0
STYLE
  5
11
330
3
100
AcDbSymbolTableRecord
100
AcDbTextStyleTableRecord
  2
Standard
 70
     0
 40
0.0
 41
1.0
 50
0.0
 71
     0
 42
0.2
  3
txt
  4

  0
ENDTAB
  0
TABLE
  2
VIEW
  5
6
330
0
100
AcDbSymbolTable
 70
     0
  0
ENDTAB
  0
TABLE
  2
UCS
  5
7
330
0
100
AcDbSymbolTable
 70
     0
  0
ENDTAB
  0
TABLE
  2
APPID
  5
9
330
0
100
AcDbSymbolTable
 70
     1
  0
APPID
  5
12
330
9
100
AcDbSymbolTableRecord
100
AcDbRegAppTableRecord
  2
ACAD
 70
     0
  0
ENDTAB
  0
TABLE
  2
DIMSTYLE
  5
A
330
0
100
AcDbSymbolTable
 70
     1
100
AcDbDimStyleTable
  0
DIMSTYLE
105
27
330
A
100
AcDbSymbolTableRecord
100
AcDbDimStyleTableRecord
  2
Standard
 70
     0
178
     0
340
11
  0
ENDTAB
  0
TABLE
  2
BLOCK_RECORD
  5
1
330
0
100
AcDbSymbolTable
 70
     3
  0
BLOCK_RECORD
  5
1F
330
1
100
AcDbSymbolTableRecord
100
AcDbBlockTableRecord
  2
*Model_Space
340
22
 70
     0
280
     1
281
     0
  0
BLOCK_RECORD
  5
1B
330
1
100
AcDbSymbolTableRecord
100
AcDbBlockTableRecord
  2
*Paper_Space
340
1E
 70
     0
280
     1
281
     0
  0
BLOCK_RECORD
  5
23
330
1
100
AcDbSymbolTableRecord
100
AcDbBlockTableRecord
  2
*Paper_Space0
340
26
 70
     0
280
     1
281
     0
  0
BLOCK_RECORD
  5
41
330
1
100
AcDbSymbolTableRecord
100
AcDbBlockTableRecord
  2
block 2
340
0
102
{BLKREFS
331
42
102
}
 70
     0
280
     1
281
     0
  0
BLOCK_RECORD
  5
52
330
1
100
AcDbSymbolTableRecord
100
AcDbBlockTableRecord
  2
block 3
340
0
102
{BLKREFS
331
53
102
}
 70
     0
280
     1
281
     0
  0
ENDTAB
  0
ENDSEC
  0
SECTION
  2
BLOCKS
  0
BLOCK
  5
20
330
1F
100
AcDbEntity
  8
0
100
AcDbBlockBegin
  2
*Model_Space
 70
     0
 10
0.0
 20
0.0
 30
0.0
  3
*Model_Space
  1

  0
ENDBLK
  5
21
330
1F
100
AcDbEntity
  8
0
100
AcDbBlockEnd
  0
BLOCK
  5
1C
330
1B
100
AcDbEntity
 67
     1
  8
0
100
AcDbBlockBegin
  2
*Paper_Space
 70
     0
 10
0.0
 20
0.0
 30
0.0
  3
*Paper_Space
  1

  0
ENDBLK
  5
1D
330
1B
100
AcDbEntity
 67
     1
  8
0
100
AcDbBlockEnd
  0
BLOCK
  5
24
330
23
100
AcDbEntity
  8
0
100
AcDbBlockBegin
  2
*Paper_Space0
 70
     0
 10
0.0
 20
0.0
 30
0.0
  3
*Paper_Space0
  1

  0
ENDBLK
  5
25
330
23
100
AcDbEntity
  8
0
100
AcDbBlockEnd
  0
BLOCK
  5
43
330
41
100
AcDbEntity
  8
0
100
AcDbBlockBegin
  2
block 2
 70
     0
 10
0.0
 20
0.0
 30
0.0
  3
block 2
  1

  0
SPLINE
  5
45
330
41
100
AcDbEntity
  8
Layer 1
370
     0
100
AcDbSpline
210
0.0
220
0.0
230
1.0
 70
    11
 71
     3
 72
    41
 73
    37
 74
     0
 42
0.0000000001
 43
0.0000000001
 12
1.0
 22
0.0
 32
0.0
 13
1.0
 23
0.0
 33
0.0
 40
0.0
 40
0.0
 40
0.0
 40
0.0
 40
1.0
 40
1.0
 40
1.0
 40
2.0
 40
2.0
 40
2.0
 40
3.0
 40
3.0
 40
3.0
 40
4.0
 40
4.0
 40
4.0
 40
5.0
 40
5.0
 40
5.0
 40
6.0
 40
6.0
 40
6.0
 40
7.0
 40
7.0
 40
7.0
 40
8.0
 40
8.0
 40
8.0
 40
9.0
 40
9.0
 40
9.0
 40
10.0
 40
10.0
 40
10.0
 40
11.0
 40
11.0
 40
11.0
 40
12.0
 40
12.0
 40
12.0
 40
12.0
 10
2.444850497775608
 20
-4.072458902994791
 30
0.0
 10
2.411747402615017
 20
-4.045507642957899
 30
0.0
 10
2.369555155436198
 20
-4.024698045518663
 30
0.0
 10
2.318253411187066
 20
-4.009999593098958
 30
0.0
 10
2.294997321234809
 20
-4.003612094455295
 30
0.0
 10
2.283451504177517
 20
-3.99560801188151
 30
0.0
 10
2.283615112304688
 20
-3.986017015245225
 30
0.0
 10
2.283799065483941
 20
-3.97583262125651
 30
0.0
 10
2.29303232828776
 20
-3.961901346842448
 30
0.0
 10
2.311313205295139
 20
-3.944244384765625
 30
0.0
 10
2.424686008029514
 20
-3.837125990125868
 30
0.0
 10
2.482907613118489
 20
-3.695768568250868
 30
0.0
 10
2.485978020562066
 20
-3.520172966851128
 30
0.0
 10
2.488475375705295
 20
-3.376348707411024
 30
0.0
 10
2.439118279351128
 20
-3.268186781141493
 30
0.0
 10
2.337865193684896
 20
-3.195675320095486
 30
0.0
 10
2.251433478461371
 20
-3.133625454372829
 30
0.0
 10
2.15097893608941
 20
-3.101598103841146
 30
0.0
 10
2.036521911621094
 20
-3.099601745605469
 30
0.0
 10
1.926240709092882
 20
-3.097677442762587
 30
0.0
 10
1.870209587944878
 20
-3.148846096462673
 30
0.0
 10
1.868387010362413
 20
-3.253119574652778
 30
0.0
 10
1.868387010362413
 20
-3.253119574652778
 30
0.0
 10
1.849900987413194
 20
-4.312049865722656
 30
0.0
 10
1.849900987413194
 20
-4.312049865722656
 30
0.0
 10
1.847772386338976
 20
-4.434900071885851
 30
0.0
 10
1.903906080457899
 20
-4.497318691677517
 30
0.0
 10
2.018383449978299
 20
-4.499325222439236
 30
0.0
 10
2.170590718587239
 20
-4.501976013183594
 30
0.0
 10
2.292582194010417
 20
-4.476682874891493
 30
0.0
 10
2.384335835774739
 20
-4.423436482747396
 30
0.0
 10
2.476069980197483
 20
-4.370179070366754
 30
0.0
 10
2.522622850206163
 20
-4.305508931477864
 30
0.0
 10
2.523952907986111
 20
-4.229394700792101
 30
0.0
 10
2.525017632378472
 20
-4.167683071560329
 30
0.0
 10
2.498650444878472
 20
-4.115367465549045
 30
0.0
 10
2.444850497775608
 20
-4.072458902994791
 30
0.0
  0
SPLINE
  5
46
330
41
100
AcDbEntity
  8
Layer 1
370
     0
100
AcDbSpline
210
0.0
220
0.0
230
1.0
 70
    11
 71
     3
 72
    32
 73
    28
 74
     0
 42
0.0000000001
 43
0.0000000001
 12
1.0
 22
0.0
 32
0.0
 13
1.0
 23
0.0
 33
0.0
 40
0.0
 40
0.0
 40
0.0
 40
0.0
 40
1.0
 40
1.0
 40
1.0
 40
2.0
 40
2.0
 40
2.0
 40
3.0
 40
3.0
 40
3.0
 40
4.0
 40
4.0
 40
4.0
 40
5.0
 40
5.0
 40
5.0
 40
6.0
 40
6.0
 40
6.0
 40
7.0
 40
7.0
 40
7.0
 40
8.0
 40
8.0
 40
8.0
 40
9.0
 40
9.0
 40
9.0
 40
9.0
 10
2.088335673014323
 20
-3.274051242404514
 30
0.0
 10
2.088662889268663
 20
-3.254879421657986
 30
0.0
 10
2.099021911621094
 20
-3.245166354709201
 30
0.0
 10
2.119411892361111
 20
-3.244920518663194
 30
0.0
 10
2.151162889268663
 20
-3.245473225911458
 30
0.0
 10
2.179250081380208
 20
-3.250764634874132
 30
0.0
 10
2.20365227593316
 20
-3.260775248209635
 30
0.0
 10
2.255425347222222
 20
-3.282669915093316
 30
0.0
 10
2.292459275987413
 20
-3.324678209092882
 30
0.0
 10
2.314752366807725
 20
-3.386799282497829
 30
0.0
 10
2.329594930013021
 20
-3.429033067491319
 30
0.0
 10
2.336575826009114
 20
-3.475616455078125
 30
0.0
 10
2.335695054796007
 20
-3.526539272732204
 30
0.0
 10
2.334139506022135
 20
-3.61584726969401
 30
0.0
 10
2.313156127929688
 20
-3.70119391547309
 30
0.0
 10
2.27278561062283
 20
-3.782609727647569
 30
0.0
 10
2.241709391276042
 20
-3.84442392985026
 30
0.0
 10
2.209855821397569
 20
-3.892267015245225
 30
0.0
 10
2.177202860514323
 20
-3.926157633463542
 30
0.0
 10
2.144530402289496
 20
-3.960069444444444
 30
0.0
 10
2.118019104003906
 20
-3.976835462782118
 30
0.0
 10
2.097650316026475
 20
-3.976476881239149
 30
0.0
 10
2.083258734809028
 20
-3.9762208726671
 30
0.0
 10
2.076175265842014
 20
-3.970120747884114
 30
0.0
 10
2.076380411783854
 20
-3.958123948838975
 30
0.0
 10
2.076380411783854
 20
-3.958123948838975
 30
0.0
 10
2.088335673014323
 20
-3.274051242404514
 30
0.0
 10
2.088335673014323
 20
-3.274051242404514
 30
0.0
  0
SPLINE
  5
47
330
41
100
AcDbEntity
  8
Layer 1
370
     0
100
AcDbSpline
210
0.0
220
0.0
230
1.0
 70
    11
 71
     3
 72
    26
 73
    22
 74
     0
 42
0.0000000001
 43
0.0000000001
 12
1.0
 22
0.0
 32
0.0
 13
1.0
 23
0.0
 33
0.0
 40
0.0
 40
0.0
 40
0.0
 40
0.0
 40
1.0
 40
1.0
 40
1.0
 40
2.0
 40
2.0
 40
2.0
 40
3.0
 40
3.0
 40
3.0
 40
4.0
 40
4.0
 40
4.0
 40
5.0
 40
5.0
 40
5.0
 40
6.0
 40
6.0
 40
6.0
 40
7.0
 40
7.0
 40
7.0
 40
7.0
 10
2.307874043782552
 20
-4.321384853786892
 30
0.0
 10
2.265169779459635
 20
-4.34671868218316
 30
0.0
 10
2.200970967610677
 20
-4.358633253309462
 30
0.0
 10
2.11527591281467
 20
-4.35713873969184
 30
0.0
 10
2.084711710611979
 20
-4.35660637749566
 30
0.0
 10
2.069686041937934
 20
-4.341662089029947
 30
0.0
 10
2.070197211371528
 20
-4.31229485405816
 30
0.0
 10
2.070197211371528
 20
-4.31229485405816
 30
0.0
 10
2.073165893554688
 20
-4.142400105794271
 30
0.0
 10
2.073165893554688
 20
-4.142400105794271
 30
0.0
 10
2.073657565646701
 20
-4.114241706000434
 30
0.0
 10
2.09247080485026
 20
-4.100474039713541
 30
0.0
 10
2.129647148980035
 20
-4.101119147406684
 30
0.0
 10
2.205146789550781
 20
-4.102439880371094
 30
0.0
 10
2.264760335286458
 20
-4.113525390625
 30
0.0
 10
2.308447096082899
 20
-4.134365505642361
 30
0.0
 10
2.35213385687934
 20
-4.155225965711805
 30
0.0
 10
2.373649597167969
 20
-4.185114542643229
 30
0.0
 10
2.372973971896701
 20
-4.224061754014757
 30
0.0
 10
2.37227800157335
 20
-4.26361338297526
 30
0.0
 10
2.350578308105469
 20
-4.296061197916666
 30
0.0
 10
2.307874043782552
 20
-4.321384853786892
 30
0.0
  0
ENDBLK
  5
44
330
41
100
AcDbEntity
  8
0
100
AcDbBlockEnd
  0
BLOCK
  5
54
330
52
100
AcDbEntity
  8
0
100
AcDbBlockBegin
  2
block 3
 70
     0
 10
0.0
 20
0.0
 30
0.0
  3
block 3
  1

  0
SPLINE
  5
56
330
52
100
AcDbEntity
  8
Layer 1
370
     0
100
AcDbSpline
210
0.0
220
0.0
230
1.0
 70
    11
 71
     3
 72
   608
 73
   604
 74
     0
 42
0.0000000001
 43
0.0000000001
 12
1.0
 22
0.0
 32
0.0
 13
1.0
 23
0.0
 33
0.0
 40
0.0
 40
0.0
 40
0.0
 40
0.0
 40
1.0
 40
1.0
 40
1.0
 40
2.0
 40
2.0
 40
2.0
 40
3.0
 40
3.0
 40
3.0
 40
4.0
 40
4.0
 40
4.0
 40
5.0
 40
5.0
 40
5.0
 40
6.0
 40
6.0
 40
6.0
 40
7.0
 40
7.0
 40
7.0
 40
8.0
 40
8.0
 40
8.0
 40
9.0
 40
9.0
 40
9.0
 40
10.0
 40
10.0
 40
10.0
 40
11.0
 40
11.0
 40
11.0
 40
12.0
 40
12.0
 40
12.0
 40
13.0
 40
13.0
 40
13.0
 40
14.0
 40
14.0
 40
14.0
 40
15.0
 40
15.0
 40
15.0
 40
16.0
 40
16.0
 40
16.0
 40
17.0
 40
17.0
 40
17.0
 40
18.0
 40
18.0
 40
18.0
 40
19.0
 40
19.0
 40
19.0
 40
20.0
 40
20.0
 40
20.0
 40
21.0
 40
21.0
 40
21.0
 40
22.0
 40
22.0
 40
22.0
 40
23.0
 40
23.0
 40
23.0
 40
24.0
 40
24.0
 40
24.0
 40
25.0
 40
25.0
 40
25.0
 40
26.0
 40
26.0
 40
26.0
 40
27.0
 40
27.0
 40
27.0
 40
28.0
 40
28.0
 40
28.0
 40
29.0
 40
29.0
 40
29.0
 40
30.0
 40
30.0
 40
30.0
 40
31.0
 40
31.0
 40
31.0
 40
32.0
 40
32.0
 40
32.0
 40
33.0
 40
33.0
 40
33.0
 40
34.0
 40
34.0
 40
34.0
 40
35.0
 40
35.0
 40
35.0
 40
36.0
 40
36.0
 40
36.0
 40
37.0
 40
37.0
 40
37.0
 40
38.0
 40
38.0
 40
38.0
 40
39.0
 40
39.0
 40
39.0
 40
40.0
 40
40.0
 40
40.0
 40
41.0
 40
41.0
 40
41.0
 40
42.0
 40
42.0
 40
42.0
 40
43.0
 40
43.0
 40
43.0
 40
44.0
 40
44.0
 40
44.0
 40
45.0
 40
45.0
 40
45.0
 40
46.0
 40
46.0
 40
46.0
 40
47.0
 40
47.0
 40
47.0
 40
48.0
 40
48.0
 40
48.0
 40
49.0
 40
49.0
 40
49.0
 40
50.0
 40
50.0
 40
50.0
 40
51.0
 40
51.0
 40
51.0
 40
52.0
 40
52.0
 40
52.0
 40
53.0
 40
53.0
 40
53.0
 40
54.0
 40
54.0
 40
54.0
 40
55.0
 40
55.0
 40
55.0
 40
56.0
 40
56.0
 40
56.0
 40
57.0
 40
57.0
 40
57.0
 40
58.0
 40
58.0
 40
58.0
 40
59.0
 40
59.0
 40
59.0
 40
60.0
 40
60.0
 40
60.0
 40
61.0
 40
61.0
 40
61.0
 40
62.0
 40
62.0
 40
62.0
 40
63.0
 40
63.0
 40
63.0
 40
64.0
 40
64.0
 40
64.0
 40
65.0
 40
65.0
 40
65.0
 40
66.0
 40
66.0
 40
66.0
 40
67.0
 40
67.0
 40
67.0
 40
68.0
 40
68.0
 40
68.0
 40
69.0
 40
69.0
 40
69.0
 40
70.0
 40
70.0
 40
70.0
 40
71.0
 40
71.0
 40
71.0
 40
72.0
 40
72.0
 40
72.0
 40
73.0
 40
73.0
 40
73.0
 40
74.0
 40
74.0
 40
74.0
 40
75.0
 40
75.0
 40
75.0
 40
76.0
 40
76.0
 40
76.0
 40
77.0
 40
77.0
 40
77.0
 40
78.0
 40
78.0
 40
78.0
 40
79.0
 40
79.0
 40
79.0
 40
80.0
 40
80.0
 40
80.0
 40
81.0
 40
81.0
 40
81.0
 40
82.0
 40
82.0
 40
82.0
 40
83.0
 40
83.0
 40
83.0
 40
84.0
 40
84.0
 40
84.0
 40
85.0
 40
85.0
 40
85.0
 40
86.0
 40
86.0
 40
86.0
 40
87.0
 40
87.0
 40
87.0
 40
88.0
 40
88.0
 40
88.0
 40
89.0
 40
89.0
 40
89.0
 40
90.0
 40
90.0
 40
90.0
 40
91.0
 40
91.0
 40
91.0
 40
92.0
 40
92.0
 40
92.0
 40
93.0
 40
93.0
 40
93.0
 40
94.0
 40
94.0
 40
94.0
 40
95.0
 40
95.0
 40
95.0
 40
96.0
 40
96.0
 40
96.0
 40
97.0
 40
97.0
 40
97.0
 40
98.0
 40
98.0
 40
98.0
 40
99.0
 40
99.0
 40
99.0
 40
100.0
 40
100.0
 40
100.0
 40
101.0
 40
101.0
 40
101.0
 40
102.0
 40
102.0
 40
102.0
 40
103.0
 40
103.0
 40
103.0
 40
104.0
 40
104.0
 40
104.0
 40
105.0
 40
105.0
 40
105.0
 40
106.0
 40
106.0
 40
106.0
 40
107.0
 40
107.0
 40
107.0
 40
108.0
 40
108.0
 40
108.0
 40
109.0
 40
109.0
 40
109.0
 40
110.0
 40
110.0
 40
110.0
 40
111.0
 40
111.0
 40
111.0
 40
112.0
 40
112.0
 40
112.0
 40
113.0
 40
113.0
 40
113.0
 40
114.0
 40
114.0
 40
114.0
 40
115.0
 40
115.0
 40
115.0
 40
116.0
 40
116.0
 40
116.0
 40
117.0
 40
117.0
 40
117.0
 40
118.0
 40
118.0
 40
118.0
 40
119.0
 40
119.0
 40
119.0
 40
120.0
 40
120.0
 40
120.0
 40
121.0
 40
121.0
 40
121.0
 40
122.0
 40
122.0
 40
122.0
 40
123.0
 40
123.0
 40
123.0
 40
124.0
 40
124.0
 40
124.0
 40
125.0
 40
125.0
 40
125.0
 40
126.0
 40
126.0
 40
126.0
 40
127.0
 40
127.0
 40
127.0
 40
128.0
 40
128.0
 40
128.0
 40
129.0
 40
129.0
 40
129.0
 40
130.0
 40
130.0
 40
130.0
 40
131.0
 40
131.0
 40
131.0
 40
132.0
 40
132.0
 40
132.0
 40
133.0
 40
133.0
 40
133.0
 40
134.0
 40
134.0
 40
134.0
 40
135.0
 40
135.0
 40
135.0
 40
136.0
 40
136.0
 40
136.0
 40
137.0
 40
137.0
 40
137.0
 40
138.0
 40
138.0
 40
138.0
 40
139.0
 40
139.0
 40
139.0
 40
140.0
 40
140.0
 40
140.0
 40
141.0
 40
141.0
 40
141.0
 40
142.0
 40
142.0
 40
142.0
 40
143.0
 40
143.0
 40
143.0
 40
144.0
 40
144.0
 40
144.0
 40
145.0
 40
145.0
 40
145.0
 40
146.0
 40
146.0
 40
146.0
 40
147.0
 40
147.0
 40
147.0
 40
148.0
 40
148.0
 40
148.0
 40
149.0
 40
149.0
 40
149.0
 40
150.0
 40
150.0
 40
150.0
 40
151.0
 40
151.0
 40
151.0
 40
152.0
 40
152.0
 40
152.0
 40
153.0
 40
153.0
 40
153.0
 40
154.0
 40
154.0
 40
154.0
 40
155.0
 40
155.0
 40
155.0
 40
156.0
 40
156.0
 40
156.0
 40
157.0
 40
157.0
 40
157.0
 40
158.0
 40
158.0
 40
158.0
 40
159.0
 40
159.0
 40
159.0
 40
160.0
 40
160.0
 40
160.0
 40
161.0
 40
161.0
 40
161.0
 40
162.0
 40
162.0
 40
162.0
 40
163.0
 40
163.0
 40
163.0
 40
164.0
 40
164.0
 40
164.0
 40
165.0
 40
165.0
 40
165.0
 40
166.0
 40
166.0
 40
166.0
 40
167.0
 40
167.0
 40
167.0
 40
168.0
 40
168.0
 40
168.0
 40
169.0
 40
169.0
 40
169.0
 40
170.0
 40
170.0
 40
170.0
 40
171.0
 40
171.0
 40
171.0
 40
172.0
 40
172.0
 40
172.0
 40
173.0
 40
173.0
 40
173.0
 40
174.0
 40
174.0
 40
174.0
 40
175.0
 40
175.0
 40
175.0
 40
176.0
 40
176.0
 40
176.0
 40
177.0
 40
177.0
 40
177.0
 40
178.0
 40
178.0
 40
178.0
 40
179.0
 40
179.0
 40
179.0
 40
180.0
 40
180.0
 40
180.0
 40
181.0
 40
181.0
 40
181.0
 40
182.0
 40
182.0
 40
182.0
 40
183.0
 40
183.0
 40
183.0
 40
184.0
 40
184.0
 40
184.0
 40
185.0
 40
185.0
 40
185.0
 40
186.0
 40
186.0
 40
186.0
 40
187.0
 40
187.0
 40
187.0
 40
188.0
 40
188.0
 40
188.0
 40
189.0
 40
189.0
 40
189.0
 40
190.0
 40
190.0
 40
190.0
 40
191.0
 40
191.0
 40
191.0
 40
192.0
 40
192.0
 40
192.0
 40
193.0
 40
193.0
 40
193.0
 40
194.0
 40
194.0
 40
194.0
 40
195.0
 40
195.0
 40
195.0
 40
196.0
 40
196.0
 40
196.0
 40
197.0
 40
197.0
 40
197.0
 40
198.0
 40
198.0
 40
198.0
 40
199.0
 40
199.0
 40
199.0
 40
200.0
 40
200.0
 40
200.0
 40
201.0
 40
201.0
 40
201.0
 40
201.0
 10
5.696701049804688
 20
-3.166615804036458
 30
0.0
 10
5.693179660373263
 20
-3.181150648328993
 30
0.0
 10
5.684827168782552
 20
-3.193167792426215
 30
0.0
 10
5.671766493055555
 20
-3.202666388617621
 30
0.0
 10
5.642287360297309
 20
-3.218348185221354
 30
0.0
 10
5.612808227539062
 20
-3.234018961588542
 30
0.0
 10
5.583369784884982
 20
-3.249771965874566
 30
0.0
 10
5.553890652126736
 20
-3.265453762478298
 30
0.0
 10
5.522814432779947
 20
-3.277910868326823
 30
0.0
 10
5.490264044867621
 20
-3.287071228027344
 30
0.0
 10
5.424918280707465
 20
-3.311842176649305
 30
0.0
 10
5.358221266004774
 20
-3.328547159830729
 30
0.0
 10
5.289968702528212
 20
-3.337083604600694
 30
0.0
 10
5.221675448947482
 20
-3.345620897081163
 30
0.0
 10
5.153463575575087
 20
-3.352489047580295
 30
0.0
 10
5.085251702202691
 20
-3.35783216688368
 30
0.0
 10
5.081607394748263
 20
-3.380422804090712
 30
0.0
 10
5.078782823350694
 20
-3.403104994032118
 30
0.0
 10
5.076776292588975
 20
-3.425788031684028
 30
0.0
 10
5.07472907172309
 20
-3.448409186469184
 30
0.0
 10
5.071904500325521
 20
-3.471081203884548
 30
0.0
 10
5.06830088297526
 20
-3.493754069010417
 30
0.0
 10
5.054011874728732
 20
-3.568066067165798
 30
0.0
 10
5.036528693305121
 20
-3.642327202690972
 30
0.0
 10
5.015770806206597
 20
-3.716609530978733
 30
0.0
 10
4.995012071397569
 20
-3.790818956163194
 30
0.0
 10
4.967785305447048
 20
-3.861712985568576
 30
0.0
 10
4.934211730957031
 20
-3.929239061143663
 30
0.0
 10
4.90727064344618
 20
-3.983877393934462
 30
0.0
 10
4.872305128309462
 20
-4.035936991373697
 30
0.0
 10
4.829314337836371
 20
-4.085509406195746
 30
0.0
 10
4.786282857259114
 20
-4.134999593098958
 30
0.0
 10
4.735389709472656
 20
-4.17219712999132
 30
0.0
 10
4.676554361979166
 20
-4.197162204318576
 30
0.0
 10
4.617759704589844
 20
-4.222056070963541
 30
0.0
 10
4.554378933376736
 20
-4.230684916178385
 30
0.0
 10
4.486412896050347
 20
-4.223038567437066
 30
0.0
 10
4.376316494411892
 20
-4.211380004882812
 30
0.0
 10
4.284725613064236
 20
-4.162739223904079
 30
0.0
 10
4.211641947428385
 20
-4.077167087131076
 30
0.0
 10
4.176675584581163
 20
-4.034361097547743
 30
0.0
 10
4.145886739095052
 20
-3.987614101833767
 30
0.0
 10
4.119232177734375
 20
-3.936904907226562
 30
0.0
 10
4.092536926269531
 20
-3.886115180121528
 30
0.0
 10
4.076426188151041
 20
-3.833164638943142
 30
0.0
 10
4.07093980577257
 20
-3.777952406141493
 30
0.0
 10
4.053579542371962
 20
-3.657630072699653
 30
0.0
 10
4.086231655544704
 20
-3.551177130805121
 30
0.0
 10
4.168937683105469
 20
-3.458593580457899
 30
0.0
 10
4.208570692274305
 20
-3.41709730360243
 30
0.0
 10
4.253690931532118
 20
-3.385427686903212
 30
0.0
 10
4.304378933376736
 20
-3.363666110568576
 30
0.0
 10
4.354984707302517
 20
-3.341823154025608
 30
0.0
 10
4.406409369574653
 20
-3.323254903157552
 30
0.0
 10
4.458571539984809
 20
-3.307973225911458
 30
0.0
 10
4.513967725965712
 20
-3.292680528428819
 30
0.0
 10
4.567644755045572
 20
-3.282290988498264
 30
0.0
 10
4.619684007432725
 20
-3.2767333984375
 30
0.0
 10
4.671600341796875
 20
-3.271103752983941
 30
0.0
 10
4.725195142957899
 20
-3.265575832790798
 30
0.0
 10
4.780509948730469
 20
-3.260079277886284
 30
0.0
 10
4.788534376356337
 20
-3.169389512803819
 30
0.0
 10
4.794921875
 20
-3.082773844401042
 30
0.0
 10
4.799630059136285
 20
-3.000150044759114
 30
0.0
 10
4.804256863064236
 20
-2.917536417643229
 30
0.0
 10
4.80880143907335
 20
-2.843879699707031
 30
0.0
 10
4.813223944769965
 20
-2.779045104980469
 30
0.0
 10
4.813223944769965
 20
-2.779045104980469
 30
0.0
 10
4.816949632432725
 20
-2.565064324273003
 30
0.0
 10
4.816949632432725
 20
-2.565064324273003
 30
0.0
 10
4.816949632432725
 20
-2.565064324273003
 30
0.0
 10
4.833777533637153
 20
-1.602136400010851
 30
0.0
 10
4.833777533637153
 20
-1.602136400010851
 30
0.0
 10
4.805771721733941
 20
-1.715211656358507
 30
0.0
 10
4.776169670952691
 20
-1.836312188042535
 30
0.0
 10
4.744725545247396
 20
-1.965437995062934
 30
0.0
 10
4.713280571831597
 20
-2.094645182291667
 30
0.0
 10
4.678683810763888
 20
-2.216492546929254
 30
0.0
 10
4.641056484646267
 20
-2.330919053819444
 30
0.0
 10
4.603306240505642
 20
-2.44541761610243
 30
0.0
 10
4.562650044759114
 20
-2.54526858859592
 30
0.0
 10
4.519044664171006
 20
-2.630399915907118
 30
0.0
 10
4.475399441189236
 20
-2.715603298611111
 30
0.0
 10
4.429092407226562
 20
-2.769147237141927
 30
0.0
 10
4.380042182074653
 20
-2.790939331054688
 30
0.0
 10
4.33426751030816
 20
-2.809599134657118
 30
0.0
 10
4.293692694769965
 20
-2.813755459255642
 30
0.0
 10
4.258193969726562
 20
-2.803406609429253
 30
0.0
 10
4.222614712185329
 20
-2.796334160698784
 30
0.0
 10
4.188876681857638
 20
-2.777120802137587
 30
0.0
 10
4.157063802083333
 20
-2.745697021484375
 30
0.0
 10
4.125128004286024
 20
-2.714354621039496
 30
0.0
 10
4.096959431966146
 20
-2.656327989366319
 30
0.0
 10
4.072536044650607
 20
-2.571523878309462
 30
0.0
 10
4.063262939453125
 20
-2.545442369249132
 30
0.0
 10
4.057223849826388
 20
-2.51698727077908
 30
0.0
 10
4.054562038845486
 20
-2.486084832085503
 30
0.0
 10
4.051839192708333
 20
-2.45524427625868
 30
0.0
 10
4.049075656467013
 20
-2.426850212944878
 30
0.0
 10
4.046332465277778
 20
-2.400800069173177
 30
0.0
 10
4.044614156087239
 20
-2.380174424913194
 30
0.0
 10
4.043794420030382
 20
-2.360422770182292
 30
0.0
 10
4.043384975857204
 20
-2.341091579861111
 30
0.0
 10
4.019744873046875
 20
-2.405300564236111
 30
0.0
 10
3.988666110568576
 20
-2.471607632107205
 30
0.0
 10
3.949746873643663
 20
-2.54005855984158
 30
0.0
 10
3.909581502278646
 20
-2.610727098253038
 30
0.0
 10
3.861473083496094
 20
-2.671538458930121
 30
0.0
 10
3.805482652452257
 20
-2.722400241427951
 30
0.0
 10
3.749410841200087
 20
-2.773334079318576
 30
0.0
 10
3.682570563422309
 20
-2.796487596299913
 30
0.0
 10
3.604818556043837
 20
-2.791860792371962
 30
0.0
 10
3.492920769585503
 20
-2.783446417914496
 30
0.0
 10
3.414779663085938
 20
-2.726975335015191
 30
0.0
 10
3.370540195041233
 20
-2.62237548828125
 30
0.0
 10
3.326219346788194
 20
-2.5178468492296
 30
0.0
 10
3.304519653320312
 20
-2.345608181423611
 30
0.0
 10
3.305440266927083
 20
-2.105577256944444
 30
0.0
 10
3.302738613552517
 20
-2.073149787055121
 30
0.0
 10
3.302472432454427
 20
-2.041520860460069
 30
0.0
 10
3.304683261447483
 20
-2.01070064968533
 30
0.0
 10
3.306811862521701
 20
-1.979952494303385
 30
0.0
 10
3.308142768012153
 20
-1.951619466145833
 30
0.0
 10
3.308592902289496
 20
-1.925630357530382
 30
0.0
 10
3.308592902289496
 20
-1.925630357530382
 30
0.0
 10
3.310128953721788
 20
-1.83809322781033
 30
0.0
 10
3.310128953721788
 20
-1.83809322781033
 30
0.0
 10
3.308838738335503
 20
-1.724588182237413
 30
0.0
 10
3.299626668294271
 20
-1.646591186523438
 30
0.0
 10
3.28257327609592
 20
-1.604112413194444
 30
0.0
 10
3.265459696451823
 20
-1.561694675021701
 30
0.0
 10
3.242326524522569
 20
-1.541837056477865
 30
0.0
 10
3.213092380099826
 20
-1.544519212510851
 30
0.0
 10
3.167522854275173
 20
-1.550261603461371
 30
0.0
 10
3.12164560953776
 20
-1.627296447753906
 30
0.0
 10
3.075276692708333
 20
-1.775623745388455
 30
0.0
 10
3.028888278537326
 20
-1.924023946126302
 30
0.0
 10
2.980717976888021
 20
-2.12750244140625
 30
0.0
 10
2.930828518337674
 20
-2.386060078938802
 30
0.0
 10
2.927389356825087
 20
-2.395722283257378
 30
0.0
 10
2.92378658718533
 20
-2.41511959499783
 30
0.0
 10
2.920081244574653
 20
-2.444251166449653
 30
0.0
 10
2.916314019097222
 20
-2.47337171766493
 30
0.0
 10
2.912506103515625
 20
-2.504161410861545
 30
0.0
 10
2.908739725748698
 20
-2.536476135253906
 30
0.0
 10
2.90143076578776
 20
-2.581800672743055
 30
0.0
 10
2.894225226508246
 20
-2.623787773980034
 30
0.0
 10
2.887080722384983
 20
-2.662581549750434
 30
0.0
 10
2.879874335394965
 20
-2.701375325520833
 30
0.0
 10
2.87123531765408
 20
-2.735276963975694
 30
0.0
 10
2.860999213324653
 20
-2.764285617404514
 30
0.0
 10
2.840179443359375
 20
-2.84176042344835
 30
0.0
 10
2.811908298068576
 20
-2.880186292860243
 30
0.0
 10
2.776287502712674
 20
-2.879561530219184
 30
0.0
 10
2.75675794813368
 20
-2.882488674587674
 30
0.0
 10
2.738947550455729
 20
-2.880584716796875
 30
0.0
 10
2.722856309678819
 20
-2.873768276638455
 30
0.0
 10
2.706724378797743
 20
-2.867022196451823
 30
0.0
 10
2.690736558702257
 20
-2.855415344238281
 30
0.0
 10
2.674830118815104
 20
-2.838873969184028
 30
0.0
 10
2.658841451009114
 20
-2.822404649522569
 30
0.0
 10
2.64797125922309
 20
-2.796292622884114
 30
0.0
 10
2.642136467827691
 20
-2.760467529296875
 30
0.0
 10
2.633271959092882
 20
-2.711662292480469
 30
0.0
 10
2.626782735188802
 20
-2.617523193359375
 30
0.0
 10
2.622749328613281
 20
-2.477978176540799
 30
0.0
 10
2.621075100368924
 20
-2.420906914605034
 30
0.0
 10
2.619980706108941
 20
-2.361270480685764
 30
0.0
 10
2.619218614366319
 20
-2.300125122070312
 30
0.0
 10
2.61596934000651
 20
-2.309291415744358
 30
0.0
 10
2.61259290907118
 20
-2.318764580620659
 30
0.0
 10
2.608951992458767
 20
-2.328872680664062
 30
0.0
 10
2.585060967339409
 20
-2.394965277777778
 30
0.0
 10
2.553084479437934
 20
-2.463350931803385
 30
0.0
 10
2.512939453125
 20
-2.533947414822049
 30
0.0
 10
2.472774081759983
 20
-2.604626125759549
 30
0.0
 10
2.42466566297743
 20
-2.66542731391059
 30
0.0
 10
2.368675231933594
 20
-2.71628909640842
 30
0.0
 10
2.312603420681424
 20
-2.767222934299045
 30
0.0
 10
2.245763142903646
 20
-2.790386623806424
 30
0.0
 10
2.168011135525174
 20
-2.785759819878472
 30
0.0
 10
2.093432956271701
 20
-2.781266954210069
 30
0.0
 10
2.034781561957465
 20
-2.753486633300781
 30
0.0
 10
1.991893344455295
 20
-2.702419704861111
 30
0.0
 10
1.949005126953125
 20
-2.651424831814236
 30
0.0
 10
1.917908562554253
 20
-2.573048909505208
 30
0.0
 10
1.898706224229601
 20
-2.467281765407986
 30
0.0
 10
1.886541578504774
 20
-2.40061781141493
 30
0.0
 10
1.878552754720052
 20
-2.321015252007378
 30
0.0
 10
1.874624464246962
 20
-2.228643629286024
 30
0.0
 10
1.86611090766059
 20
-2.261651780870225
 30
0.0
 10
1.853809780544705
 20
-2.310136583116319
 30
0.0
 10
1.837536282009548
 20
-2.374903361002604
 30
0.0
 10
1.813113742404514
 20
-2.471775478786892
 30
0.0
 10
1.778905232747396
 20
-2.572567409939236
 30
0.0
 10
1.734952290852865
 20
-2.677157931857639
 30
0.0
 10
1.690938313802083
 20
-2.781819661458333
 30
0.0
 10
1.639083862304688
 20
-2.874934726291233
 30
0.0
 10
1.579285515679253
 20
-2.956596374511719
 30
0.0
 10
1.51946767171224
 20
-3.038247850206163
 30
0.0
 10
1.452361212836371
 20
-3.076755099826389
 30
0.0
 10
1.378028021918403
 20
-3.072272406684028
 30
0.0
 10
1.327033148871528
 20
-3.068105909559462
 30
0.0
 10
1.281811184353298
 20
-3.049456278483073
 30
0.0
 10
1.242485046386719
 20
-3.016394721137153
 30
0.0
 10
1.203158908420139
 20
-2.983250935872396
 30
0.0
 10
1.172287835015191
 20
-2.923494127061632
 30
0.0
 10
1.149850633409288
 20
-2.837215847439236
 30
0.0
 10
1.127413431803385
 20
-2.750927395290799
 30
0.0
 10
1.111936781141493
 20
-2.631464640299479
 30
0.0
 10
1.103338453504774
 20
-2.478837754991319
 30
0.0
 10
1.094761318630642
 20
-2.326282925075955
 30
0.0
 10
1.095989651150174
 20
-2.125260247124566
 30
0.0
 10
1.106798807779948
 20
-1.875669691297743
 30
0.0
 10
1.106798807779948
 20
-1.875669691297743
 30
0.0
 10
1.120248582628038
 20
-1.38456302218967
 30
0.0
 10
1.120248582628038
 20
-1.38456302218967
 30
0.0
 10
1.122909545898438
 20
-1.232212490505642
 30
0.0
 10
1.125345865885417
 20
-1.092012193467882
 30
0.0
 10
1.127577039930556
 20
-0.9638900756835938
 30
0.0
 10
1.129829406738281
 20
-0.8358493381076388
 30
0.0
 10
1.135069953070746
 20
-0.718351576063368
 30
0.0
 10
1.143463134765625
 20
-0.611479017469618
 30
0.0
 10
1.029947916666667
 20
-0.6127692328559028
 30
0.0
 10
0.9156333075629339
 20
-0.6123699612087673
 30
0.0
 10
0.8005210028754339
 20
-0.6103532579210069
 30
0.0
 10
0.685469733344184
 20
-0.6083475748697916
 30
0.0
 10
0.5695181952582465
 20
-0.6063206990559895
 30
0.0
 10
0.4527884589301215
 20
-0.6042836507161458
 30
0.0
 10
0.4527884589301215
 20
-0.6042836507161458
 30
0.0
 10
0.3944439358181424
 20
-0.603269788953993
 30
0.0
 10
0.3944439358181424
 20
-0.603269788953993
 30
0.0
 10
0.3815265231662326
 20
-0.6030451456705729
 30
0.0
 10
0.3718227810329861
 20
-0.6012742784288194
 30
0.0
 10
0.3653335571289062
 20
-0.5978961520724826
 30
0.0
 10
0.3428141276041666
 20
-0.5910381740993923
 30
0.0
 10
0.3227115207248264
 20
-0.5801272922092013
 30
0.0
 10
0.3051054212782118
 20
-0.5652236938476562
 30
0.0
 10
0.287581549750434
 20
-0.550320095486111
 30
0.0
 10
0.2888098822699652
 20
-0.5235841539171007
 30
0.0
 10
0.3089336819118924
 20
-0.4850251939561632
 30
0.0
 10
0.3224453396267361
 20
-0.4560682508680555
 30
0.0
 10
0.3405626085069444
 20
-0.4410315619574652
 30
0.0
 10
0.3632447984483507
 20
-0.4397523668077257
 30
0.0
 10
0.3859888712565104
 20
-0.4385545518663194
 30
0.0
 10
0.4126637776692708
 20
-0.4430482652452257
 30
0.0
 10
0.4432695176866319
 20
-0.4533148871527777
 30
0.0
 10
0.4739566379123263
 20
-0.4635815090603299
 30
0.0
 10
0.5085330539279513
 20
-0.4763454861111111
 30
0.0
 10
0.5472039116753472
 20
-0.4916178385416666
 30
0.0
 10
0.5858544243706597
 20
-0.506879170735677
 30
0.0
 10
0.6294598049587673
 20
-0.5166134304470485
 30
0.0
 10
0.6780387030707465
 20
-0.5206561618381076
 30
0.0
 10
0.6780387030707465
 20
-0.5206561618381076
 30
0.0
 10
1.149768405490451
 20
-0.5288865831163194
 30
0.0
 10
1.149768405490451
 20
-0.5288865831163194
 30
0.0
 10
1.154046800401476
 20
-0.4673894246419271
 30
0.0
 10
1.159942626953125
 20
-0.4074478149414062
 30
0.0
 10
1.167497422960069
 20
-0.3492058648003472
 30
0.0
 10
1.171366373697917
 20
-0.3103502061631944
 30
0.0
 10
1.17840830485026
 20
-0.2732255723741319
 30
0.0
 10
1.188603719075521
 20
-0.2376759847005208
 30
0.0
 10
1.195441351996528
 20
-0.2118818495008681
 30
0.0
 10
1.206208970811632
 20
-0.186905754937066
 30
0.0
 10
1.220989651150173
 20
-0.162841796875
 30
0.0
 10
1.235709296332465
 20
-0.1387769911024306
 30
0.0
 10
1.255853441026476
 20
-0.1253679063585069
 30
0.0
 10
1.281442430284288
 20
-0.1225433349609375
 30
0.0
 10
1.34531487358941
 20
-0.1172002156575521
 30
0.0
 10
1.391191270616319
 20
-0.1414896647135417
 30
0.0
 10
1.418971591525608
 20
-0.1954837375217014
 30
0.0
 10
1.446751912434896
 20
-0.2494879828559028
 30
0.0
 10
1.45751953125
 20
-0.3608033921983507
 30
0.0
 10
1.451378716362847
 20
-0.5292850070529513
 30
0.0
 10
1.548700968424479
 20
-0.5277913411458333
 30
0.0
 10
1.646002875434028
 20
-0.5278218587239583
 30
0.0
 10
1.74326409233941
 20
-0.5295206705729166
 30
0.0
 10
1.840525309244792
 20
-0.5312203301323785
 30
0.0
 10
1.937786526150173
 20
-0.5329089694552951
 30
0.0
 10
2.035047743055555
 20
-0.5346077813042535
 30
0.0
 10
2.19063229031033
 20
-0.5405960083007812
 30
0.0
 10
2.346934000651042
 20
-0.5473514133029513
 30
0.0
 10
2.504157172309028
 20
-0.5549570719401041
 30
0.0
 10
2.661277770996094
 20
-0.5625720553927951
 30
0.0
 10
2.817866007486979
 20
-0.5580071343315972
 30
0.0
 10
2.973839653862847
 20
-0.5412716335720485
 30
0.0
 10
3.02577633327908
 20
-0.5357131958007812
 30
0.0
 10
3.060517205132378
 20
-0.5436155531141493
 30
0.0
 10
3.078019883897569
 20
-0.5649778578016492
 30
0.0
 10
3.095420837402344
 20
-0.586411370171441
 30
0.0
 10
3.102320353190104
 20
-0.6091868082682291
 30
0.0
 10
3.098716735839844
 20
-0.6334457397460938
 30
0.0
 10
3.095011393229167
 20
-0.6577046712239583
 30
0.0
 10
3.085738288031684
 20
-0.6794348822699653
 30
0.0
 10
3.070814344618055
 20
-0.6986270480685763
 30
0.0
 10
3.055890401204427
 20
-0.7178302341037326
 30
0.0
 10
3.040413750542534
 20
-0.7208294338650173
 30
0.0
 10
3.024445427788628
 20
-0.7075534396701388
 30
0.0
 10
3.008355034722222
 20
-0.6975428263346354
 30
0.0
 10
2.983440823025174
 20
-0.688218010796441
 30
0.0
 10
2.949540032280816
 20
-0.679486592610677
 30
0.0
 10
2.915638393825955
 20
-0.67083740234375
 30
0.0
 10
2.879260592990451
 20
-0.6645007663302951
 30
0.0
 10
2.840404934353299
 20
-0.6605606079101562
 30
0.0
 10
2.801549275716146
 20
-0.6566908094618055
 30
0.0
 10
2.764311896430121
 20
-0.65277099609375
 30
0.0
 10
2.728711446126302
 20
-0.648880852593316
 30
0.0
 10
2.693070305718316
 20
-0.6450636121961805
 30
0.0
 10
2.668769836425781
 20
-0.6429646809895833
 30
0.0
 10
2.655852423773871
 20
-0.6427400377061632
 30
0.0
 10
2.551999409993489
 20
-0.6441930135091145
 30
0.0
 10
2.448269314236111
 20
-0.6423814561631944
 30
0.0
 10
2.344600253634983
 20
-0.6373045179578992
 30
0.0
 10
2.240870157877604
 20
-0.6323089599609375
 30
0.0
 10
2.137201097276475
 20
-0.6272218492296007
 30
0.0
 10
2.03353288438585
 20
-0.6221449110243055
 30
0.0
 10
1.936271667480469
 20
-0.6204562717013888
 30
0.0
 10
1.838990105523003
 20
-0.6187574598524305
 30
0.0
 10
1.741728888617621
 20
-0.6170578002929688
 30
0.0
 10
1.64446767171224
 20
-0.6153589884440104
 30
0.0
 10
1.547165764702691
 20
-0.6153276231553819
 30
0.0
 10
1.449842664930556
 20
-0.6168221367730035
 30
0.0
 10
1.444664001464844
 20
-0.7270321316189235
 30
0.0
 10
1.441879272460938
 20
-0.8866806030273438
 30
0.0
 10
1.441490173339844
 20
-1.095860799153646
 30
0.0
 10
1.4410400390625
 20
-1.305030822753906
 30
0.0
 10
1.433895534939236
 20
-1.531120300292969
 30
0.0
 10
1.419913397894965
 20
-1.77410888671875
 30
0.0
 10
1.419237772623698
 20
-1.813015407986111
 30
0.0
 10
1.417518615722656
 20
-1.863304138183594
 30
0.0
 10
1.414856804741753
 20
-1.924831814236111
 30
0.0
 10
1.412113613552517
 20
-1.986431545681423
 30
0.0
 10
1.409329732259115
 20
-2.054489983452691
 30
0.0
 10
1.406422932942708
 20
-2.129007127549913
 30
0.0
 10
1.403454250759548
 20
-2.203595479329427
 30
0.0
 10
1.400526258680556
 20
-2.279709710015191
 30
0.0
 10
1.397578769259983
 20
-2.357491387261284
 30
0.0
 10
1.394549051920573
 20
-2.435273912217882
 30
0.0
 10
1.392522176106771
 20
-2.507447136773003
 30
0.0
 10
1.391376071506076
 20
-2.573867797851562
 30
0.0
 10
1.390208774142795
 20
-2.640359666612413
 30
0.0
 10
1.389962938096788
 20
-2.69789547390408
 30
0.0
 10
1.390781826443142
 20
-2.746556599934896
 30
0.0
 10
1.391539679633246
 20
-2.795217725965712
 30
0.0
 10
1.393402099609375
 20
-2.827706231011284
 30
0.0
 10
1.396391126844618
 20
-2.843950907389323
 30
0.0
 10
1.399113972981771
 20
-2.869990878634983
 30
0.0
 10
1.41100819905599
 20
-2.885549757215712
 30
0.0
 10
1.432053460015191
 20
-2.890780131022135
 30
0.0
 10
1.453016493055556
 20
-2.896010504828559
 30
0.0
 10
1.480079650878906
 20
-2.877862718370225
 30
0.0
 10
1.51326412624783
 20
-2.836253696017795
 30
0.0
 10
1.54636722140842
 20
-2.794726901584201
 30
0.0
 10
1.584915161132812
 20
-2.724856906467014
 30
0.0
 10
1.628827412923177
 20
-2.626653883192274
 30
0.0
 10
1.672637091742621
 20
-2.528533087836371
 30
0.0
 10
1.720560709635417
 20
-2.387452019585503
 30
0.0
 10
1.772416008843316
 20
-2.203503078884549
 30
0.0
 10
1.782774183485243
 20
-2.168026394314236
 30
0.0
 10
1.793030632866753
 20
-2.137420654296875
 30
0.0
 10
1.80320570203993
 20
-2.111606174045139
 30
0.0
 10
1.810063680013021
 20
-2.089076571994358
 30
0.0
 10
1.818559434678819
 20
-2.068922254774305
 30
0.0
 10
1.828590393066406
 20
-2.051234775119358
 30
0.0
 10
1.838621351453993
 20
-2.033629523383246
 30
0.0
 10
1.850106133355035
 20
-2.024857415093316
 30
0.0
 10
1.863105773925781
 20
-2.025082058376736
 30
0.0
 10
1.866497463650173
 20
-2.025822957356771
 30
0.0
 10
1.869207594129774
 20
-2.027299669053819
 30
0.0
 10
1.872194078233507
 20
-2.028477986653646
 30
0.0
 10
1.874068366156684
 20
-1.862715827094184
 30
0.0
 10
1.881602817111545
 20
-1.661463419596354
 30
0.0
 10
1.89504157172309
 20
-1.42372555202908
 30
0.0
 10
1.895757887098524
 20
-1.381635877821181
 30
0.0
 10
1.90130615234375
 20
-1.342810736762153
 30
0.0
 10
1.911664326985677
 20
-1.307261996799045
 30
0.0
 10
1.918624877929688
 20
-1.278202480740017
 30
0.0
 10
1.929659525553385
 20
-1.251630147298177
 30
0.0
 10
1.944664849175347
 20
-1.227575514051649
 30
0.0
 10
1.959691365559896
 20
-1.203511555989583
 30
0.0
 10
1.98335689968533
 20
-1.193439059787326
 30
0.0
 10
2.015742831759983
 20
-1.197196112738715
 30
0.0
 10
2.022150675455729
 20
-1.200573391384548
 30
0.0
 10
2.028578864203559
 20
-1.202283223470052
 30
0.0
 10
2.035108778211805
 20
-1.20239512125651
 30
0.0
 10
2.041516621907552
 20
-1.205773247612847
 30
0.0
 10
2.047186957465278
 20
-1.207472907172309
 30
0.0
 10
2.052039252387153
 20
-1.207554287380642
 30
0.0
 10
2.056911044650608
 20
-1.207636515299479
 30
0.0
 10
2.062479654947917
 20
-1.211003621419271
 30
0.0
 10
2.068887498643663
 20
-1.217575073242188
 30
0.0
 10
2.094518025716146
 20
-1.234290228949653
 30
0.0
 10
2.124632093641493
 20
-1.272900051540798
 30
0.0
 10
2.159311082628038
 20
-1.333475748697917
 30
0.0
 10
2.193887498643663
 20
-1.394133673773871
 30
0.0
 10
2.208320617675781
 20
-1.495703803168403
 30
0.0
 10
2.202629089355469
 20
-1.638279385036892
 30
0.0
 10
2.197838677300347
 20
-1.725764804416233
 30
0.0
 10
2.19380611843533
 20
-1.81736585828993
 30
0.0
 10
2.190530565049913
 20
-1.912928263346354
 30
0.0
 10
2.187193128797743
 20
-2.008572048611111
 30
0.0
 10
2.183180914984809
 20
-2.099333021375868
 30
0.0
 10
2.178493075900608
 20
-2.185139973958333
 30
0.0
 10
2.173723008897569
 20
-2.271029154459635
 30
0.0
 10
2.170816209581163
 20
-2.345546298556858
 30
0.0
 10
2.169731140136719
 20
-2.408773634168837
 30
0.0
 10
2.168625725640191
 20
-2.471989949544271
 30
0.0
 10
2.169485304090712
 20
-2.513363308376736
 30
0.0
 10
2.172412448459201
 20
-2.532873365614149
 30
0.0
 10
2.171962314181858
 20
-2.558851453993055
 30
0.0
 10
2.181236267089844
 20
-2.584943135579427
 30
0.0
 10
2.20023430718316
 20
-2.611187405056424
 30
0.0
 10
2.219231499565972
 20
-2.637513902452257
 30
0.0
 10
2.245005289713542
 20
-2.646019829644097
 30
0.0
 10
2.277637057834201
 20
-2.636869642469618
 30
0.0
 10
2.310167100694444
 20
-2.627708435058594
 30
0.0
 10
2.348960876464844
 20
-2.591135660807292
 30
0.0
 10
2.393875969780816
 20
-2.527008056640625
 30
0.0
 10
2.438770718044705
 20
-2.46295166015625
 30
0.0
 10
2.488455030653212
 20
-2.355199178059896
 30
0.0
 10
2.543033175998264
 20
-2.203667534722222
 30
0.0
 10
2.550095452202691
 20
-2.168148464626736
 30
0.0
 10
2.558775160047743
 20
-2.137513054741754
 30
0.0
 10
2.56895022922092
 20
-2.111687554253472
 30
0.0
 10
2.57580820719401
 20
-2.089158799913194
 30
0.0
 10
2.585060967339409
 20
-2.069024827745225
 30
0.0
 10
2.596771240234375
 20
-2.051367865668403
 30
0.0
 10
2.604438781738281
 20
-2.039772033691406
 30
0.0
 10
2.611664666069878
 20
-2.032389322916667
 30
0.0
 10
2.61851331922743
 20
-2.028493245442708
 30
0.0
 10
2.618526034884983
 20
-2.026646084255642
 30
0.0
 10
2.618520100911458
 20
-2.024895562065972
 30
0.0
 10
2.61853281656901
 20
-2.023045010036892
 30
0.0
 10
2.619781494140625
 20
-1.859342787000868
 30
0.0
 10
2.624162462022569
 20
-1.700472513834635
 30
0.0
 10
2.63171641031901
 20
-1.546535068088108
 30
0.0
 10
2.639270358615451
 20
-1.392659505208333
 30
0.0
 10
2.650182088216146
 20
-1.276861402723524
 30
0.0
 10
2.664532131618924
 20
-1.199273851182726
 30
0.0
 10
2.668279012044271
 20
-1.166959126790365
 30
0.0
 10
2.676918029785156
 20
-1.13791995578342
 30
0.0
 10
2.690367804633246
 20
-1.112156338161892
 30
0.0
 10
2.700501335991753
 20
-1.089688618977865
 30
0.0
 10
2.713029649522569
 20
-1.068776448567708
 30
0.0
 10
2.727953592936198
 20
-1.049574110243056
 30
0.0
 10
2.742877536349826
 20
-1.030371771918403
 30
0.0
 10
2.763267517089844
 20
-1.021006266276042
 30
0.0
 10
2.789246453179253
 20
-1.021456400553385
 30
0.0
 10
2.854080200195312
 20
-1.022592332628038
 30
0.0
 10
2.899854871961805
 20
-1.046953837076823
 30
0.0
 10
2.926631503634983
 20
-1.094396803114149
 30
0.0
 10
2.953306410047743
 20
-1.141911824544271
 30
0.0
 10
2.962416754828559
 20
-1.225610521104601
 30
0.0
 10
2.953859117296007
 20
-1.34540049235026
 30
0.0
 10
2.953859117296007
 20
-1.34540049235026
 30
0.0
 10
2.946571350097656
 20
-1.763648139105903
 30
0.0
 10
2.946571350097656
 20
-1.763648139105903
 30
0.0
 10
2.984586927625868
 20
-1.64109378390842
 30
0.0
 10
3.028888278537326
 20
-1.536443074544271
 30
0.0
 10
3.079433017306858
 20
-1.449755350748698
 30
0.0
 10
3.129895528157552
 20
-1.363067626953125
 30
0.0
 10
3.189509073893229
 20
-1.318726433648003
 30
0.0
 10
3.258191426595052
 20
-1.316658020019531
 30
0.0
 10
3.333323160807292
 20
-1.314785427517361
 30
0.0
 10
3.399855719672309
 20
-1.335400051540798
 30
0.0
 10
3.457934061686198
 20
-1.378523932562934
 30
0.0
 10
3.50618659125434
 20
-1.418290032280816
 30
0.0
 10
3.548357645670573
 20
-1.484690348307292
 30
0.0
 10
3.584286159939236
 20
-1.577754550509983
 30
0.0
 10
3.620193481445312
 20
-1.670808580186632
 30
0.0
 10
3.633294847276475
 20
-1.809678819444444
 30
0.0
 10
3.623591105143229
 20
-1.994374593098958
 30
0.0
 10
3.619661119249132
 20
-2.033220079210069
 30
0.0
 10
3.617408752441406
 20
-2.070509168836805
 30
0.0
 10
3.616774664984809
 20
-2.106150309244792
 30
0.0
 10
3.616160074869792
 20
-2.141863505045573
 30
0.0
 10
3.615627712673611
 20
-2.1726320054796
 30
0.0
 10
3.615177578396267
 20
-2.198549058702257
 30
0.0
 10
3.610427856445312
 20
-2.282842000325521
 30
0.0
 10
3.607562594943576
 20
-2.355762057834201
 30
0.0
 10
3.606497870551215
 20
-2.417310078938802
 30
0.0
 10
3.605412801106771
 20
-2.478940327962239
 30
0.0
 10
3.606292724609375
 20
-2.519464280870225
 30
0.0
 10
3.609220716688368
 20
-2.538973490397135
 30
0.0
 10
3.608769734700521
 20
-2.564962599012587
 30
0.0
 10
3.618043687608507
 20
-2.591043260362413
 30
0.0
 10
3.637041727701823
 20
-2.617298550075955
 30
0.0
 10
3.656059265136719
 20
-2.643625047471788
 30
0.0
 10
3.681812710232204
 20
-2.652130974663628
 30
0.0
 10
3.714445326063368
 20
-2.642969767252604
 30
0.0
 10
3.746974521213108
 20
-2.63380855984158
 30
0.0
 10
3.785768296983507
 20
-2.597245958116319
 30
0.0
 10
3.830683390299479
 20
-2.533108181423611
 30
0.0
 10
3.875578138563368
 20
-2.469052632649739
 30
0.0
 10
3.925262451171875
 20
-2.361299302842882
 30
0.0
 10
3.979840596516927
 20
-2.20977783203125
 30
0.0
 10
3.986902872721354
 20
-2.174249437120225
 30
0.0
 10
3.995583428276909
 20
-2.143613179524739
 30
0.0
 10
4.005757649739583
 20
-2.117798699273004
 30
0.0
 10
4.012615627712673
 20
-2.095269097222222
 30
0.0
 10
4.021868387858072
 20
-2.075135972764757
 30
0.0
 10
4.033578660753038
 20
-2.057479010687934
 30
0.0
 10
4.039321051703559
 20
-2.048795064290364
 30
0.0
 10
4.044834560818142
 20
-2.042296515570746
 30
0.0
 10
4.050122578938802
 20
-2.037923177083333
 30
0.0
 10
4.052569071451822
 20
-1.966686672634548
 30
0.0
 10
4.055405510796441
 20
-1.896267361111111
 30
0.0
 10
4.05877939860026
 20
-1.826977199978298
 30
0.0
 10
4.066353691948785
 20
-1.671443515353733
 30
0.0
 10
4.077285766601562
 20
-1.554877387152778
 30
0.0
 10
4.091636657714844
 20
-1.477289835611979
 30
0.0
 10
4.095403035481771
 20
-1.444975111219618
 30
0.0
 10
4.104042053222656
 20
-1.41426764594184
 30
0.0
 10
4.1175537109375
 20
-1.385310702853733
 30
0.0
 10
4.127666897243923
 20
-1.362842983669705
 30
0.0
 10
4.140195210774739
 20
-1.341930813259548
 30
0.0
 10
4.155139499240451
 20
-1.322728474934896
 30
0.0
 10
4.170083787706163
 20
-1.303526136610243
 30
0.0
 10
4.188835991753472
 20
-1.294129265679253
 30
0.0
 10
4.211559719509548
 20
-1.294528537326389
 30
0.0
 10
4.279648674858941
 20
-1.295716179741753
 30
0.0
 10
4.327020433213976
 20
-1.320865207248264
 30
0.0
 10
4.353756374782986
 20
-1.369977315266927
 30
0.0
 10
4.38041008843316
 20
-1.419088575575087
 30
0.0
 10
4.389540778266059
 20
-1.501948038736979
 30
0.0
 10
4.381065368652344
 20
-1.618554857042101
 30
0.0
 10
4.380533006456163
 20
-1.647737291124132
 30
0.0
 10
4.379755655924479
 20
-1.693174574110243
 30
0.0
 10
4.378690931532118
 20
-1.754732767740885
 30
0.0
 10
4.37758551703559
 20
-1.816352844238281
 30
0.0
 10
4.376357184516059
 20
-1.886877271864149
 30
0.0
 10
4.374965243869357
 20
-1.966277228461371
 30
0.0
 10
4.373613993326822
 20
-2.045768737792969
 30
0.0
 10
4.372099134657118
 20
-2.131627400716146
 30
0.0
 10
4.370502048068576
 20
-2.224036322699653
 30
0.0
 10
4.368864271375868
 20
-2.316435919867621
 30
0.0
 10
4.365588717990451
 20
-2.408046298556858
 30
0.0
 10
4.36083984375
 20
-2.498725891113281
 30
0.0
 10
4.360430399576822
 20
-2.521439446343316
 30
0.0
 10
4.365097893608941
 20
-2.532852172851562
 30
0.0
 10
4.374801635742188
 20
-2.533016628689236
 30
0.0
 10
4.394208272298177
 20
-2.536629570855034
 30
0.0
 10
4.421722412109375
 20
-2.493321736653646
 30
0.0
 10
4.457343207465278
 20
-2.403112623426649
 30
0.0
 10
4.49296400282118
 20
-2.312976413302951
 30
0.0
 10
4.530509101019965
 20
-2.205775790744358
 30
0.0
 10
4.569978502061631
 20
-2.081574334038629
 30
0.0
 10
4.609407212999131
 20
-1.957454257541233
 30
0.0
 10
4.64740244547526
 20
-1.828358968098958
 30
0.0
 10
4.683760748969184
 20
-1.694381713867188
 30
0.0
 10
4.720158894856771
 20
-1.560476515028212
 30
0.0
 10
4.748819139268663
 20
-1.45151604546441
 30
0.0
 10
4.769741482204861
 20
-1.367510477701823
 30
0.0
 10
4.790786743164062
 20
-1.277117411295573
 30
0.0
 10
4.81539323594835
 20
-1.213470458984375
 30
0.0
 10
4.843603346082899
 20
-1.176641676161024
 30
0.0
 10
4.871772766113281
 20
-1.139884948730469
 30
0.0
 10
4.898181491427951
 20
-1.117622375488281
 30
0.0
 10
4.922624376085069
 20
-1.109914143880208
 30
0.0
 10
4.947067260742188
 20
-1.102288987901476
 30
0.0
 10
4.968112521701388
 20
-1.103414747450087
 30
0.0
 10
4.985800001356337
 20
-1.113445705837673
 30
0.0
 10
5.003406100802951
 20
-1.123487684461806
 30
0.0
 10
5.012249416775173
 20
-1.130181206597222
 30
0.0
 10
5.012208726671006
 20
-1.133365207248264
 30
0.0
 10
5.044226752387153
 20
-1.153386433919271
 30
0.0
 10
5.077595180935329
 20
-1.192886352539062
 30
0.0
 10
5.112315707736545
 20
-1.251875983344184
 30
0.0
 10
5.146912468804254
 20
-1.31085459391276
 30
0.0
 10
5.161406622992621
 20
-1.408402336968316
 30
0.0
 10
5.155838012695312
 20
-1.544519212510851
 30
0.0
 10
5.155838012695312
 20
-1.544519212510851
 30
0.0
 10
5.147527058919271
 20
-2.021110534667969
 30
0.0
 10
5.147527058919271
 20
-2.021110534667969
 30
0.0
 10
5.146380106608072
 20
-2.086006164550781
 30
0.0
 10
5.145193311903212
 20
-2.154095119900174
 30
0.0
 10
5.14396497938368
 20
-2.225377400716146
 30
0.0
 10
5.142695109049479
 20
-2.296721564398871
 30
0.0
 10
5.140647888183594
 20
-2.36639658610026
 30
0.0
 10
5.137864006890191
 20
-2.434455023871528
 30
0.0
 10
5.134997897677951
 20
-2.502503289116753
 30
0.0
 10
5.132295396592881
 20
-2.567377726236979
 30
0.0
 10
5.129593743218316
 20
-2.628895229763455
 30
0.0
 10
5.126850552029079
 20
-2.690494961208767
 30
0.0
 10
5.125130547417535
 20
-2.745574103461371
 30
0.0
 10
5.12431165907118
 20
-2.794204711914062
 30
0.0
 10
5.121650695800781
 20
-2.946565416124132
 30
0.0
 10
5.11415778266059
 20
-3.097237481011284
 30
0.0
 10
5.101793077256944
 20
-3.246230231391059
 30
0.0
 10
5.192646450466579
 20
-3.241286383734809
 30
0.0
 10
5.28128899468316
 20
-3.229075113932292
 30
0.0
 10
5.36759779188368
 20
-3.209524366590712
 30
0.0
 10
5.453824361165364
 20
-3.189892239040798
 30
0.0
 10
5.537963019476996
 20
-3.154875013563368
 30
0.0
 10
5.619932386610243
 20
-3.104474385579427
 30
0.0
 10
5.633033752441406
 20
-3.094964769151475
 30
0.0
 10
5.646053738064236
 20
-3.092764112684462
 30
0.0
 10
5.658992343478732
 20
-3.097851223415799
 30
0.0
 10
5.671807183159722
 20
-3.102948506673177
 30
0.0
 10
5.682206895616319
 20
-3.112018161349826
 30
0.0
 10
5.690109252929688
 20
-3.125150892469618
 30
0.0
 10
5.697970072428385
 20
-3.138211568196614
 30
0.0
 10
5.700140211317274
 20
-3.152080959743923
 30
0.0
 10
5.696701049804688
 20
-3.166615804036458
 30
0.0
  0
SPLINE
  5
57
330
52
100
AcDbEntity
  8
Layer 1
370
     0
100
AcDbSpline
210
0.0
220
0.0
230
1.0
 70
    11
 71
     3
 72
    41
 73
    37
 74
     0
 42
0.0000000001
 43
0.0000000001
 12
1.0
 22
0.0
 32
0.0
 13
1.0
 23
0.0
 33
0.0
 40
0.0
 40
0.0
 40
0.0
 40
0.0
 40
1.0
 40
1.0
 40
1.0
 40
2.0
 40
2.0
 40
2.0
 40
3.0
 40
3.0
 40
3.0
 40
4.0
 40
4.0
 40
4.0
 40
5.0
 40
5.0
 40
5.0
 40
6.0
 40
6.0
 40
6.0
 40
7.0
 40
7.0
 40
7.0
 40
8.0
 40
8.0
 40
8.0
 40
9.0
 40
9.0
 40
9.0
 40
10.0
 40
10.0
 40
10.0
 40
11.0
 40
11.0
 40
11.0
 40
12.0
 40
12.0
 40
12.0
 40
12.0
 10
4.768308851453993
 20
-3.400945875379774
 30
0.0
 10
4.69665781656901
 20
-3.415890163845486
 30
0.0
 10
4.622509426540798
 20
-3.43648444281684
 30
0.0
 10
4.545862833658854
 20
-3.462739732530382
 30
0.0
 10
4.469175550672743
 20
-3.488922966851128
 30
0.0
 10
4.402929517957899
 20
-3.522649976942274
 30
0.0
 10
4.347082349989149
 20
-3.563859727647569
 30
0.0
 10
4.291194491916232
 20
-3.604997422960069
 30
0.0
 10
4.250619676378038
 20
-3.655368381076389
 30
0.0
 10
4.225275675455729
 20
-3.714971754286024
 30
0.0
 10
4.199890984429254
 20
-3.774503072102864
 30
0.0
 10
4.204312642415364
 20
-3.843523661295573
 30
0.0
 10
4.238705105251736
 20
-3.92196061876085
 30
0.0
 10
4.245051066080729
 20
-3.928532070583767
 30
0.0
 10
4.251315646701388
 20
-3.939208136664496
 30
0.0
 10
4.257580227322048
 20
-3.953917609320746
 30
0.0
 10
4.263803270128038
 20
-3.968616061740451
 30
0.0
 10
4.27485826280382
 20
-3.984163920084635
 30
0.0
 10
4.290826585557726
 20
-4.000705295138888
 30
0.0
 10
4.316292656792535
 20
-4.027073330349392
 30
0.0
 10
4.342620001898871
 20
-4.050257364908854
 30
0.0
 10
4.369888305664062
 20
-4.070196363661024
 30
0.0
 10
4.39703369140625
 20
-4.090126037597656
 30
0.0
 10
4.428437127007379
 20
-4.103596157497829
 30
0.0
 10
4.464017232259114
 20
-4.110750834147135
 30
0.0
 10
4.506024678548177
 20
-4.117947048611111
 30
0.0
 10
4.543611314561631
 20
-4.10241953531901
 30
0.0
 10
4.576733907063802
 20
-4.064075893825954
 30
0.0
 10
4.609775967068142
 20
-4.025732252332899
 30
0.0
 10
4.638313293457031
 20
-3.972720675998264
 30
0.0
 10
4.662223815917969
 20
-3.905030992296007
 30
0.0
 10
4.686052958170572
 20
-3.83734130859375
 30
0.0
 10
4.706852383083767
 20
-3.759865654839409
 30
0.0
 10
4.724662780761719
 20
-3.672615051269531
 30
0.0
 10
4.742350260416666
 20
-3.585355122884114
 30
0.0
 10
4.756926642523871
 20
-3.494777255588108
 30
0.0
 10
4.768308851453993
 20
-3.400945875379774
 30
0.0
  0
ENDBLK
  5
55
330
52
100
AcDbEntity
  8
0
100
AcDbBlockEnd
  0
ENDSEC
  0
SECTION
  2
ENTITIES
  0
INSERT
  5
42
330
1F
100
AcDbEntity
  8
Layer 1
100
AcDbBlockReference
  2
block 2
 10
0.0
 20
0.0
 30
0.0
  0
SPLINE
  5
48
330
1F
100
AcDbEntity
  8
Layer 1
370
     0
100
AcDbSpline
210
0.0
220
0.0
230
1.0
 70
    11
 71
     3
 72
    59
 73
    55
 74
     0
 42
0.0000000001
 43
0.0000000001
 12
1.0
 22
0.0
 32
0.0
 13
1.0
 23
0.0
 33
0.0
 40
0.0
 40
0.0
 40
0.0
 40
0.0
 40
1.0
 40
1.0
 40
1.0
 40
2.0
 40
2.0
 40
2.0
 40
3.0
 40
3.0
 40
3.0
 40
4.0
 40
4.0
 40
4.0
 40
5.0
 40
5.0
 40
5.0
 40
6.0
 40
6.0
 40
6.0
 40
7.0
 40
7.0
 40
7.0
 40
8.0
 40
8.0
 40
8.0
 40
9.0
 40
9.0
 40
9.0
 40
10.0
 40
10.0
 40
10.0
 40
11.0
 40
11.0
 40
11.0
 40
12.0
 40
12.0
 40
12.0
 40
13.0
 40
13.0
 40
13.0
 40
14.0
 40
14.0
 40
14.0
 40
15.0
 40
15.0
 40
15.0
 40
16.0
 40
16.0
 40
16.0
 40
17.0
 40
17.0
 40
17.0
 40
18.0
 40
18.0
 40
18.0
 40
18.0
 10
3.415926615397135
 20
-3.223138597276475
 30
0.0
 10
3.415926615397135
 20
-3.223138597276475
 30
0.0
 10
3.401964823404948
 20
-4.021371629503038
 30
0.0
 10
3.401964823404948
 20
-4.021371629503038
 30
0.0
 10
3.396314832899305
 20
-4.345581902398004
 30
0.0
 10
3.274835374620225
 20
-4.505619472927517
 30
0.0
 10
3.037527296278212
 20
-4.501474168565538
 30
0.0
 10
2.904481675889757
 20
-4.499150594075521
 30
0.0
 10
2.811355590820312
 20
-4.442986382378472
 30
0.0
 10
2.758129543728299
 20
-4.332940843370226
 30
0.0
 10
2.718209160698784
 20
-4.249518500434028
 30
0.0
 10
2.699579874674479
 20
-4.132901509602864
 30
0.0
 10
2.702179802788628
 20
-3.983078850640191
 30
0.0
 10
2.702179802788628
 20
-3.983078850640191
 30
0.0
 10
2.714790344238281
 20
-3.261256747775608
 30
0.0
 10
2.714790344238281
 20
-3.261256747775608
 30
0.0
 10
2.715241326226128
 20
-3.235493130154079
 30
0.0
 10
2.717472500271267
 20
-3.210650973849826
 30
0.0
 10
2.721484714084201
 20
-3.186739603678385
 30
0.0
 10
2.730819702148438
 20
-3.132356431749132
 30
0.0
 10
2.764270358615451
 20
-3.105661180284288
 30
0.0
 10
2.821795993381076
 20
-3.106664869520399
 30
0.0
 10
2.851746453179253
 20
-3.107186211480034
 30
0.0
 10
2.87500254313151
 20
-3.114781697591146
 30
0.0
 10
2.891522725423177
 20
-3.129459804958767
 30
0.0
 10
2.921043395996094
 20
-3.155755784776475
 30
0.0
 10
2.935291714138455
 20
-3.198561774359809
 30
0.0
 10
2.934247334798177
 20
-3.257888793945312
 30
0.0
 10
2.934247334798177
 20
-3.257888793945312
 30
0.0
 10
2.921124776204427
 20
-4.010286119249132
 30
0.0
 10
2.921124776204427
 20
-4.010286119249132
 30
0.0
 10
2.920039706759983
 20
-4.071404351128472
 30
0.0
 10
2.922394646538628
 20
-4.125101725260416
 30
0.0
 10
2.928187900119358
 20
-4.171357896592882
 30
0.0
 10
2.936069064670139
 20
-4.235649108886719
 30
0.0
 10
2.953225029839409
 20
-4.283297220865885
 30
0.0
 10
2.979653252495659
 20
-4.314331902398004
 30
0.0
 10
3.003728230794271
 20
-4.342327541775173
 30
0.0
 10
3.038550482855903
 20
-4.356719122992621
 30
0.0
 10
3.084100511338975
 20
-4.357516818576388
 30
0.0
 10
3.19737074110243
 20
-4.359492831759982
 30
0.0
 10
3.255960252549913
 20
-4.247215270996094
 30
0.0
 10
3.25993177625868
 20
-4.020696004231771
 30
0.0
 10
3.25993177625868
 20
-4.020696004231771
 30
0.0
 10
3.273893568250868
 20
-3.220661587185329
 30
0.0
 10
3.273893568250868
 20
-3.220661587185329
 30
0.0
 10
3.274548848470052
 20
-3.183504740397135
 30
0.0
 10
3.279666476779514
 20
-3.155120849609375
 30
0.0
 10
3.289329528808594
 20
-3.135498894585503
 30
0.0
 10
3.298951043023003
 20
-3.115887112087673
 30
0.0
 10
3.316351996527778
 20
-3.10630628797743
 30
0.0
 10
3.341532389322917
 20
-3.106736077202691
 30
0.0
 10
3.392466227213542
 20
-3.10762702094184
 30
0.0
 10
3.417236328125
 20
-3.146430969238281
 30
0.0
 10
3.415926615397135
 20
-3.223138597276475
 30
0.0
  0
SPLINE
  5
49
330
1F
100
AcDbEntity
  8
Layer 1
370
     0
100
AcDbSpline
210
0.0
220
0.0
230
1.0
 70
    11
 71
     3
 72
    68
 73
    64
 74
     0
 42
0.0000000001
 43
0.0000000001
 12
1.0
 22
0.0
 32
0.0
 13
1.0
 23
0.0
 33
0.0
 40
0.0
 40
0.0
 40
0.0
 40
0.0
 40
1.0
 40
1.0
 40
1.0
 40
2.0
 40
2.0
 40
2.0
 40
3.0
 40
3.0
 40
3.0
 40
4.0
 40
4.0
 40
4.0
 40
5.0
 40
5.0
 40
5.0
 40
6.0
 40
6.0
 40
6.0
 40
7.0
 40
7.0
 40
7.0
 40
8.0
 40
8.0
 40
8.0
 40
9.0
 40
9.0
 40
9.0
 40
10.0
 40
10.0
 40
10.0
 40
11.0
 40
11.0
 40
11.0
 40
12.0
 40
12.0
 40
12.0
 40
13.0
 40
13.0
 40
13.0
 40
14.0
 40
14.0
 40
14.0
 40
15.0
 40
15.0
 40
15.0
 40
16.0
 40
16.0
 40
16.0
 40
17.0
 40
17.0
 40
17.0
 40
18.0
 40
18.0
 40
18.0
 40
19.0
 40
19.0
 40
19.0
 40
20.0
 40
20.0
 40
20.0
 40
21.0
 40
21.0
 40
21.0
 40
21.0
 10
4.19014655219184
 20
-3.194242689344618
 30
0.0
 10
4.189900716145833
 20
-3.208634270562066
 30
0.0
 10
4.182039896647135
 20
-3.221684773763021
 30
0.0
 10
4.166542053222656
 20
-3.233395046657986
 30
0.0
 10
4.15104505750868
 20
-3.245124816894531
 30
0.0
 10
4.128608703613281
 20
-3.250723944769965
 30
0.0
 10
4.099251641167535
 20
-3.250211927625868
 30
0.0
 10
4.099251641167535
 20
-3.250211927625868
 30
0.0
 10
4.00217522515191
 20
-3.248513115776909
 30
0.0
 10
4.00217522515191
 20
-3.248513115776909
 30
0.0
 10
3.987783643934462
 20
-3.248267279730903
 30
0.0
 10
3.980474683973524
 20
-3.255330403645833
 30
0.0
 10
3.980229695638021
 20
-3.269711812337239
 30
0.0
 10
3.980229695638021
 20
-3.269711812337239
 30
0.0
 10
3.961292690700954
 20
-4.35380130343967
 30
0.0
 10
3.961292690700954
 20
-4.35380130343967
 30
0.0
 10
3.959553188747829
 20
-4.453887939453125
 30
0.0
 10
3.92061530219184
 20
-4.503255208333333
 30
0.0
 10
3.844522264268663
 20
-4.501925150553385
 30
0.0
 10
3.810948689778646
 20
-4.501341078016493
 30
0.0
 10
3.787119547526042
 20
-4.493131849500868
 30
0.0
 10
3.773014492458767
 20
-4.47729746500651
 30
0.0
 10
3.76298353407118
 20
-4.466938442654079
 30
0.0
 10
3.755716111924913
 20
-4.454522874620225
 30
0.0
 10
3.751191880967882
 20
-4.440059238009982
 30
0.0
 10
3.744354248046875
 20
-4.418963114420572
 30
0.0
 10
3.741324530707465
 20
-4.38653564453125
 30
0.0
 10
3.742081536187066
 20
-4.342787848578559
 30
0.0
 10
3.742081536187066
 20
-4.342787848578559
 30
0.0
 10
3.760895623101128
 20
-3.265883551703559
 30
0.0
 10
3.760895623101128
 20
-3.265883551703559
 30
0.0
 10
3.761140611436632
 20
-3.251502143012153
 30
0.0
 10
3.754364861382378
 20
-3.244183010525173
 30
0.0
 10
3.740587022569444
 20
-3.243948194715712
 30
0.0
 10
3.740587022569444
 20
-3.243948194715712
 30
0.0
 10
3.642609490288628
 20
-3.242238362630208
 30
0.0
 10
3.642609490288628
 20
-3.242238362630208
 30
0.0
 10
3.613232930501302
 20
-3.241726345486111
 30
0.0
 10
3.591021219889323
 20
-3.235349867078993
 30
0.0
 10
3.575954013400608
 20
-3.223086886935764
 30
0.0
 10
3.560886806911892
 20
-3.210845099555121
 30
0.0
 10
3.553476121690538
 20
-3.197518242730034
 30
0.0
 10
3.553721957736545
 20
-3.183136834038628
 30
0.0
 10
3.554110209147135
 20
-3.160975986056858
 30
0.0
 10
3.561726040310329
 20
-3.144926283094618
 30
0.0
 10
3.576588100857204
 20
-3.134976704915364
 30
0.0
 10
3.591451009114583
 20
-3.125058492024739
 30
0.0
 10
3.609077453613281
 20
-3.119070265028212
 30
0.0
 10
3.629508124457465
 20
-3.117023044162326
 30
0.0
 10
3.649918450249566
 20
-3.114985995822483
 30
0.0
 10
3.668526543511284
 20
-3.114106072319878
 30
0.0
 10
3.685293409559462
 20
-3.114402770996094
 30
0.0
 10
3.685293409559462
 20
-3.114402770996094
 30
0.0
 10
4.061051262749566
 20
-3.120953877766927
 30
0.0
 10
4.061051262749566
 20
-3.120953877766927
 30
0.0
 10
4.077818128797743
 20
-3.121250576443142
 30
0.0
 10
4.096385531955295
 20
-3.12278578016493
 30
0.0
 10
4.116714477539062
 20
-3.125528971354167
 30
0.0
 10
4.137042575412326
 20
-3.128282335069444
 30
0.0
 10
4.154463873969184
 20
-3.134885152180989
 30
0.0
 10
4.168978373209635
 20
-3.145325554741753
 30
0.0
 10
4.183472527398004
 20
-3.155776129828559
 30
0.0
 10
4.190535651312934
 20
-3.172081841362847
 30
0.0
 10
4.19014655219184
 20
-3.194242689344618
 30
0.0
  0
SPLINE
  5
4A
330
1F
100
AcDbEntity
  8
Layer 1
370
     0
100
AcDbSpline
210
0.0
220
0.0
230
1.0
 70
    11
 71
     3
 72
    35
 73
    31
 74
     0
 42
0.0000000001
 43
0.0000000001
 12
1.0
 22
0.0
 32
0.0
 13
1.0
 23
0.0
 33
0.0
 40
0.0
 40
0.0
 40
0.0
 40
0.0
 40
1.0
 40
1.0
 40
1.0
 40
2.0
 40
2.0
 40
2.0
 40
3.0
 40
3.0
 40
3.0
 40
4.0
 40
4.0
 40
4.0
 40
5.0
 40
5.0
 40
5.0
 40
6.0
 40
6.0
 40
6.0
 40
7.0
 40
7.0
 40
7.0
 40
8.0
 40
8.0
 40
8.0
 40
9.0
 40
9.0
 40
9.0
 40
10.0
 40
10.0
 40
10.0
 40
10.0
 10
1.724333021375868
 20
-3.278617011176215
 30
0.0
 10
1.853799608018663
 20
-3.726635403103298
 30
0.0
 10
1.580123901367188
 20
-4.157669915093316
 30
0.0
 10
1.433111402723524
 20
-4.389244927300347
 30
0.0
 10
1.433111402723524
 20
-4.389244927300347
 30
0.0
 10
1.402996487087673
 20
-4.436916775173611
 30
0.0
 10
1.402996487087673
 20
-4.436916775173611
 30
0.0
 10
1.400231255425347
 20
-4.441355387369791
 30
0.0
 10
1.396309746636285
 20
-4.444327460394965
 30
0.0
 10
1.391924540201823
 20
-4.445630391438802
 30
0.0
 10
1.386678907606337
 20
-4.447186787923177
 30
0.0
 10
1.380742390950521
 20
-4.446414523654513
 30
0.0
 10
1.37530771891276
 20
-4.442965189615885
 30
0.0
 10
1.338628980848524
 20
-4.419972737630208
 30
0.0
 10
1.291731092664931
 20
-4.396329243977864
 30
0.0
 10
1.237463209364149
 20
-4.369009229871962
 30
0.0
 10
1.023824903700087
 20
-4.261377122667101
 30
0.0
 10
0.7009667290581597
 20
-4.098730299207899
 30
0.0
 10
0.5928895738389757
 20
-3.734707302517361
 30
0.0
 10
0.5177544487847222
 20
-3.481641133626302
 30
0.0
 10
0.6531567043728298
 20
-3.313023037380642
 30
0.0
 10
0.7989679972330729
 20
-3.311354743109809
 30
0.0
 10
0.9554129706488714
 20
-3.310078938802083
 30
0.0
 10
1.079443189832899
 20
-3.38090091281467
 30
0.0
 10
1.176534016927083
 20
-3.527473449707031
 30
0.0
 10
1.199865553114149
 20
-3.325889587402344
 30
0.0
 10
1.246747334798177
 20
-3.174791971842448
 30
0.0
 10
1.446324666341146
 20
-3.126834445529514
 30
0.0
 10
1.552040100097656
 20
-3.102393256293403
 30
0.0
 10
1.684108310275608
 20
-3.139407687717014
 30
0.0
 10
1.724333021375868
 20
-3.278617011176215
 30
0.0
  0
HATCH
  5
4B
330
1F
100
AcDbEntity
  8
Layer 1
 62
    55
420
 11639122
100
AcDbHatch
 10
0.0
 20
0.0
 30
0.0
210
0.0
220
0.0
230
1.0
  2
SOLID
 70
     1
 71
     0
 91
        6
 92
        1
 93
        1
 72
     4
 94
        3
 73
     0
 74
     1
 95
       41
 96
       37
 40
0.0
 40
0.0
 40
0.0
 40
0.0
 40
1.0
 40
1.0
 40
1.0
 40
2.0
 40
2.0
 40
2.0
 40
3.0
 40
3.0
 40
3.0
 40
4.0
 40
4.0
 40
4.0
 40
5.0
 40
5.0
 40
5.0
 40
6.0
 40
6.0
 40
6.0
 40
7.0
 40
7.0
 40
7.0
 40
8.0
 40
8.0
 40
8.0
 40
9.0
 40
9.0
 40
9.0
 40
10.0
 40
10.0
 40
10.0
 40
11.0
 40
11.0
 40
11.0
 40
12.0
 40
12.0
 40
12.0
 40
12.0
 10
2.444850497775608
 20
-4.072458902994791
 10
2.411747402615017
 20
-4.045507642957899
 10
2.369555155436198
 20
-4.024698045518663
 10
2.318253411187066
 20
-4.009999593098958
 10
2.294997321234809
 20
-4.003612094455295
 10
2.283451504177517
 20
-3.99560801188151
 10
2.283615112304688
 20
-3.986017015245225
 10
2.283799065483941
 20
-3.97583262125651
 10
2.29303232828776
 20
-3.961901346842448
 10
2.311313205295139
 20
-3.944244384765625
 10
2.424686008029514
 20
-3.837125990125868
 10
2.482907613118489
 20
-3.695768568250868
 10
2.485978020562066
 20
-3.520172966851128
 10
2.488475375705295
 20
-3.376348707411024
 10
2.439118279351128
 20
-3.268186781141493
 10
2.337865193684896
 20
-3.195675320095486
 10
2.251433478461371
 20
-3.133625454372829
 10
2.15097893608941
 20
-3.101598103841146
 10
2.036521911621094
 20
-3.099601745605469
 10
1.926240709092882
 20
-3.097677442762587
 10
1.870209587944878
 20
-3.148846096462673
 10
1.868387010362413
 20
-3.253119574652778
 10
1.868387010362413
 20
-3.253119574652778
 10
1.849900987413194
 20
-4.312049865722656
 10
1.849900987413194
 20
-4.312049865722656
 10
1.847772386338976
 20
-4.434900071885851
 10
1.903906080457899
 20
-4.497318691677517
 10
2.018383449978299
 20
-4.499325222439236
 10
2.170590718587239
 20
-4.501976013183594
 10
2.292582194010417
 20
-4.476682874891493
 10
2.384335835774739
 20
-4.423436482747396
 10
2.476069980197483
 20
-4.370179070366754
 10
2.522622850206163
 20
-4.305508931477864
 10
2.523952907986111
 20
-4.229394700792101
 10
2.525017632378472
 20
-4.167683071560329
 10
2.498650444878472
 20
-4.115367465549045
 10
2.444850497775608
 20
-4.072458902994791
 97
        0
 97
        0
 92
        1
 93
        1
 72
     4
 94
        3
 73
     0
 74
     1
 95
       32
 96
       28
 40
0.0
 40
0.0
 40
0.0
 40
0.0
 40
1.0
 40
1.0
 40
1.0
 40
2.0
 40
2.0
 40
2.0
 40
3.0
 40
3.0
 40
3.0
 40
4.0
 40
4.0
 40
4.0
 40
5.0
 40
5.0
 40
5.0
 40
6.0
 40
6.0
 40
6.0
 40
7.0
 40
7.0
 40
7.0
 40
8.0
 40
8.0
 40
8.0
 40
9.0
 40
9.0
 40
9.0
 40
9.0
 10
2.088335673014323
 20
-3.274051242404514
 10
2.088662889268663
 20
-3.254879421657986
 10
2.099021911621094
 20
-3.245166354709201
 10
2.119411892361111
 20
-3.244920518663194
 10
2.151162889268663
 20
-3.245473225911458
 10
2.179250081380208
 20
-3.250764634874132
 10
2.20365227593316
 20
-3.260775248209635
 10
2.255425347222222
 20
-3.282669915093316
 10
2.292459275987413
 20
-3.324678209092882
 10
2.314752366807725
 20
-3.386799282497829
 10
2.329594930013021
 20
-3.429033067491319
 10
2.336575826009114
 20
-3.475616455078125
 10
2.335695054796007
 20
-3.526539272732204
 10
2.334139506022135
 20
-3.61584726969401
 10
2.313156127929688
 20
-3.70119391547309
 10
2.27278561062283
 20
-3.782609727647569
 10
2.241709391276042
 20
-3.84442392985026
 10
2.209855821397569
 20
-3.892267015245225
 10
2.177202860514323
 20
-3.926157633463542
 10
2.144530402289496
 20
-3.960069444444444
 10
2.118019104003906
 20
-3.976835462782118
 10
2.097650316026475
 20
-3.976476881239149
 10
2.083258734809028
 20
-3.9762208726671
 10
2.076175265842014
 20
-3.970120747884114
 10
2.076380411783854
 20
-3.958123948838975
 10
2.076380411783854
 20
-3.958123948838975
 10
2.088335673014323
 20
-3.274051242404514
 10
2.088335673014323
 20
-3.274051242404514
 97
        0
 97
        0
 92
        1
 93
        1
 72
     4
 94
        3
 73
     0
 74
     1
 95
       26
 96
       22
 40
0.0
 40
0.0
 40
0.0
 40
0.0
 40
1.0
 40
1.0
 40
1.0
 40
2.0
 40
2.0
 40
2.0
 40
3.0
 40
3.0
 40
3.0
 40
4.0
 40
4.0
 40
4.0
 40
5.0
 40
5.0
 40
5.0
 40
6.0
 40
6.0
 40
6.0
 40
7.0
 40
7.0
 40
7.0
 40
7.0
 10
2.307874043782552
 20
-4.321384853786892
 10
2.265169779459635
 20
-4.34671868218316
 10
2.200970967610677
 20
-4.358633253309462
 10
2.11527591281467
 20
-4.35713873969184
 10
2.084711710611979
 20
-4.35660637749566
 10
2.069686041937934
 20
-4.341662089029947
 10
2.070197211371528
 20
-4.31229485405816
 10
2.070197211371528
 20
-4.31229485405816
 10
2.073165893554688
 20
-4.142400105794271
 10
2.073165893554688
 20
-4.142400105794271
 10
2.073657565646701
 20
-4.114241706000434
 10
2.09247080485026
 20
-4.100474039713541
 10
2.129647148980035
 20
-4.101119147406684
 10
2.205146789550781
 20
-4.102439880371094
 10
2.264760335286458
 20
-4.113525390625
 10
2.308447096082899
 20
-4.134365505642361
 10
2.35213385687934
 20
-4.155225965711805
 10
2.373649597167969
 20
-4.185114542643229
 10
2.372973971896701
 20
-4.224061754014757
 10
2.37227800157335
 20
-4.26361338297526
 10
2.350578308105469
 20
-4.296061197916666
 10
2.307874043782552
 20
-4.321384853786892
 97
        0
 97
        0
 92
        1
 93
        1
 72
     4
 94
        3
 73
     0
 74
     1
 95
       59
 96
       55
 40
0.0
 40
0.0
 40
0.0
 40
0.0
 40
1.0
 40
1.0
 40
1.0
 40
2.0
 40
2.0
 40
2.0
 40
3.0
 40
3.0
 40
3.0
 40
4.0
 40
4.0
 40
4.0
 40
5.0
 40
5.0
 40
5.0
 40
6.0
 40
6.0
 40
6.0
 40
7.0
 40
7.0
 40
7.0
 40
8.0
 40
8.0
 40
8.0
 40
9.0
 40
9.0
 40
9.0
 40
10.0
 40
10.0
 40
10.0
 40
11.0
 40
11.0
 40
11.0
 40
12.0
 40
12.0
 40
12.0
 40
13.0
 40
13.0
 40
13.0
 40
14.0
 40
14.0
 40
14.0
 40
15.0
 40
15.0
 40
15.0
 40
16.0
 40
16.0
 40
16.0
 40
17.0
 40
17.0
 40
17.0
 40
18.0
 40
18.0
 40
18.0
 40
18.0
 10
3.415926615397135
 20
-3.223138597276475
 10
3.415926615397135
 20
-3.223138597276475
 10
3.401964823404948
 20
-4.021371629503038
 10
3.401964823404948
 20
-4.021371629503038
 10
3.396314832899305
 20
-4.345581902398004
 10
3.274835374620225
 20
-4.505619472927517
 10
3.037527296278212
 20
-4.501474168565538
 10
2.904481675889757
 20
-4.499150594075521
 10
2.811355590820312
 20
-4.442986382378472
 10
2.758129543728299
 20
-4.332940843370226
 10
2.718209160698784
 20
-4.249518500434028
 10
2.699579874674479
 20
-4.132901509602864
 10
2.702179802788628
 20
-3.983078850640191
 10
2.702179802788628
 20
-3.983078850640191
 10
2.714790344238281
 20
-3.261256747775608
 10
2.714790344238281
 20
-3.261256747775608
 10
2.715241326226128
 20
-3.235493130154079
 10
2.717472500271267
 20
-3.210650973849826
 10
2.721484714084201
 20
-3.186739603678385
 10
2.730819702148438
 20
-3.132356431749132
 10
2.764270358615451
 20
-3.105661180284288
 10
2.821795993381076
 20
-3.106664869520399
 10
2.851746453179253
 20
-3.107186211480034
 10
2.87500254313151
 20
-3.114781697591146
 10
2.891522725423177
 20
-3.129459804958767
 10
2.921043395996094
 20
-3.155755784776475
 10
2.935291714138455
 20
-3.198561774359809
 10
2.934247334798177
 20
-3.257888793945312
 10
2.934247334798177
 20
-3.257888793945312
 10
2.921124776204427
 20
-4.010286119249132
 10
2.921124776204427
 20
-4.010286119249132
 10
2.920039706759983
 20
-4.071404351128472
 10
2.922394646538628
 20
-4.125101725260416
 10
2.928187900119358
 20
-4.171357896592882
 10
2.936069064670139
 20
-4.235649108886719
 10
2.953225029839409
 20
-4.283297220865885
 10
2.979653252495659
 20
-4.314331902398004
 10
3.003728230794271
 20
-4.342327541775173
 10
3.038550482855903
 20
-4.356719122992621
 10
3.084100511338975
 20
-4.357516818576388
 10
3.19737074110243
 20
-4.359492831759982
 10
3.255960252549913
 20
-4.247215270996094
 10
3.25993177625868
 20
-4.020696004231771
 10
3.25993177625868
 20
-4.020696004231771
 10
3.273893568250868
 20
-3.220661587185329
 10
3.273893568250868
 20
-3.220661587185329
 10
3.274548848470052
 20
-3.183504740397135
 10
3.279666476779514
 20
-3.155120849609375
 10
3.289329528808594
 20
-3.135498894585503
 10
3.298951043023003
 20
-3.115887112087673
 10
3.316351996527778
 20
-3.10630628797743
 10
3.341532389322917
 20
-3.106736077202691
 10
3.392466227213542
 20
-3.10762702094184
 10
3.417236328125
 20
-3.146430969238281
 10
3.415926615397135
 20
-3.223138597276475
 97
        0
 97
        0
 92
        1
 93
        1
 72
     4
 94
        3
 73
     0
 74
     1
 95
       68
 96
       64
 40
0.0
 40
0.0
 40
0.0
 40
0.0
 40
1.0
 40
1.0
 40
1.0
 40
2.0
 40
2.0
 40
2.0
 40
3.0
 40
3.0
 40
3.0
 40
4.0
 40
4.0
 40
4.0
 40
5.0
 40
5.0
 40
5.0
 40
6.0
 40
6.0
 40
6.0
 40
7.0
 40
7.0
 40
7.0
 40
8.0
 40
8.0
 40
8.0
 40
9.0
 40
9.0
 40
9.0
 40
10.0
 40
10.0
 40
10.0
 40
11.0
 40
11.0
 40
11.0
 40
12.0
 40
12.0
 40
12.0
 40
13.0
 40
13.0
 40
13.0
 40
14.0
 40
14.0
 40
14.0
 40
15.0
 40
15.0
 40
15.0
 40
16.0
 40
16.0
 40
16.0
 40
17.0
 40
17.0
 40
17.0
 40
18.0
 40
18.0
 40
18.0
 40
19.0
 40
19.0
 40
19.0
 40
20.0
 40
20.0
 40
20.0
 40
21.0
 40
21.0
 40
21.0
 40
21.0
 10
4.19014655219184
 20
-3.194242689344618
 10
4.189900716145833
 20
-3.208634270562066
 10
4.182039896647135
 20
-3.221684773763021
 10
4.166542053222656
 20
-3.233395046657986
 10
4.15104505750868
 20
-3.245124816894531
 10
4.128608703613281
 20
-3.250723944769965
 10
4.099251641167535
 20
-3.250211927625868
 10
4.099251641167535
 20
-3.250211927625868
 10
4.00217522515191
 20
-3.248513115776909
 10
4.00217522515191
 20
-3.248513115776909
 10
3.987783643934462
 20
-3.248267279730903
 10
3.980474683973524
 20
-3.255330403645833
 10
3.980229695638021
 20
-3.269711812337239
 10
3.980229695638021
 20
-3.269711812337239
 10
3.961292690700954
 20
-4.35380130343967
 10
3.961292690700954
 20
-4.35380130343967
 10
3.959553188747829
 20
-4.453887939453125
 10
3.92061530219184
 20
-4.503255208333333
 10
3.844522264268663
 20
-4.501925150553385
 10
3.810948689778646
 20
-4.501341078016493
 10
3.787119547526042
 20
-4.493131849500868
 10
3.773014492458767
 20
-4.47729746500651
 10
3.76298353407118
 20
-4.466938442654079
 10
3.755716111924913
 20
-4.454522874620225
 10
3.751191880967882
 20
-4.440059238009982
 10
3.744354248046875
 20
-4.418963114420572
 10
3.741324530707465
 20
-4.38653564453125
 10
3.742081536187066
 20
-4.342787848578559
 10
3.742081536187066
 20
-4.342787848578559
 10
3.760895623101128
 20
-3.265883551703559
 10
3.760895623101128
 20
-3.265883551703559
 10
3.761140611436632
 20
-3.251502143012153
 10
3.754364861382378
 20
-3.244183010525173
 10
3.740587022569444
 20
-3.243948194715712
 10
3.740587022569444
 20
-3.243948194715712
 10
3.642609490288628
 20
-3.242238362630208
 10
3.642609490288628
 20
-3.242238362630208
 10
3.613232930501302
 20
-3.241726345486111
 10
3.591021219889323
 20
-3.235349867078993
 10
3.575954013400608
 20
-3.223086886935764
 10
3.560886806911892
 20
-3.210845099555121
 10
3.553476121690538
 20
-3.197518242730034
 10
3.553721957736545
 20
-3.183136834038628
 10
3.554110209147135
 20
-3.160975986056858
 10
3.561726040310329
 20
-3.144926283094618
 10
3.576588100857204
 20
-3.134976704915364
 10
3.591451009114583
 20
-3.125058492024739
 10
3.609077453613281
 20
-3.119070265028212
 10
3.629508124457465
 20
-3.117023044162326
 10
3.649918450249566
 20
-3.114985995822483
 10
3.668526543511284
 20
-3.114106072319878
 10
3.685293409559462
 20
-3.114402770996094
 10
3.685293409559462
 20
-3.114402770996094
 10
4.061051262749566
 20
-3.120953877766927
 10
4.061051262749566
 20
-3.120953877766927
 10
4.077818128797743
 20
-3.121250576443142
 10
4.096385531955295
 20
-3.12278578016493
 10
4.116714477539062
 20
-3.125528971354167
 10
4.137042575412326
 20
-3.128282335069444
 10
4.154463873969184
 20
-3.134885152180989
 10
4.168978373209635
 20
-3.145325554741753
 10
4.183472527398004
 20
-3.155776129828559
 10
4.190535651312934
 20
-3.172081841362847
 10
4.19014655219184
 20
-3.194242689344618
 97
        0
 97
        0
 92
        1
 93
        1
 72
     4
 94
        3
 73
     0
 74
     1
 95
       35
 96
       31
 40
0.0
 40
0.0
 40
0.0
 40
0.0
 40
1.0
 40
1.0
 40
1.0
 40
2.0
 40
2.0
 40
2.0
 40
3.0
 40
3.0
 40
3.0
 40
4.0
 40
4.0
 40
4.0
 40
5.0
 40
5.0
 40
5.0
 40
6.0
 40
6.0
 40
6.0
 40
7.0
 40
7.0
 40
7.0
 40
8.0
 40
8.0
 40
8.0
 40
9.0
 40
9.0
 40
9.0
 40
10.0
 40
10.0
 40
10.0
 40
10.0
 10
1.724333021375868
 20
-3.278617011176215
 10
1.853799608018663
 20
-3.726635403103298
 10
1.580123901367188
 20
-4.157669915093316
 10
1.433111402723524
 20
-4.389244927300347
 10
1.433111402723524
 20
-4.389244927300347
 10
1.402996487087673
 20
-4.436916775173611
 10
1.402996487087673
 20
-4.436916775173611
 10
1.400231255425347
 20
-4.441355387369791
 10
1.396309746636285
 20
-4.444327460394965
 10
1.391924540201823
 20
-4.445630391438802
 10
1.386678907606337
 20
-4.447186787923177
 10
1.380742390950521
 20
-4.446414523654513
 10
1.37530771891276
 20
-4.442965189615885
 10
1.338628980848524
 20
-4.419972737630208
 10
1.291731092664931
 20
-4.396329243977864
 10
1.237463209364149
 20
-4.369009229871962
 10
1.023824903700087
 20
-4.261377122667101
 10
0.7009667290581597
 20
-4.098730299207899
 10
0.5928895738389757
 20
-3.734707302517361
 10
0.5177544487847222
 20
-3.481641133626302
 10
0.6531567043728298
 20
-3.313023037380642
 10
0.7989679972330729
 20
-3.311354743109809
 10
0.9554129706488714
 20
-3.310078938802083
 10
1.079443189832899
 20
-3.38090091281467
 10
1.176534016927083
 20
-3.527473449707031
 10
1.199865553114149
 20
-3.325889587402344
 10
1.246747334798177
 20
-3.174791971842448
 10
1.446324666341146
 20
-3.126834445529514
 10
1.552040100097656
 20
-3.102393256293403
 10
1.684108310275608
 20
-3.139407687717014
 10
1.724333021375868
 20
-3.278617011176215
 97
        0
 97
        0
 75
     2
 76
     1
 98
        0
  0
SPLINE
  5
4C
330
1F
100
AcDbEntity
  8
Layer 1
370
     0
100
AcDbSpline
210
0.0
220
0.0
230
1.0
 70
    11
 71
     3
 72
    98
 73
    94
 74
     0
 42
0.0000000001
 43
0.0000000001
 12
1.0
 22
0.0
 32
0.0
 13
1.0
 23
0.0
 33
0.0
 40
0.0
 40
0.0
 40
0.0
 40
0.0
 40
1.0
 40
1.0
 40
1.0
 40
2.0
 40
2.0
 40
2.0
 40
3.0
 40
3.0
 40
3.0
 40
4.0
 40
4.0
 40
4.0
 40
5.0
 40
5.0
 40
5.0
 40
6.0
 40
6.0
 40
6.0
 40
7.0
 40
7.0
 40
7.0
 40
8.0
 40
8.0
 40
8.0
 40
9.0
 40
9.0
 40
9.0
 40
10.0
 40
10.0
 40
10.0
 40
11.0
 40
11.0
 40
11.0
 40
12.0
 40
12.0
 40
12.0
 40
13.0
 40
13.0
 40
13.0
 40
14.0
 40
14.0
 40
14.0
 40
15.0
 40
15.0
 40
15.0
 40
16.0
 40
16.0
 40
16.0
 40
17.0
 40
17.0
 40
17.0
 40
18.0
 40
18.0
 40
18.0
 40
19.0
 40
19.0
 40
19.0
 40
20.0
 40
20.0
 40
20.0
 40
21.0
 40
21.0
 40
21.0
 40
22.0
 40
22.0
 40
22.0
 40
23.0
 40
23.0
 40
23.0
 40
24.0
 40
24.0
 40
24.0
 40
25.0
 40
25.0
 40
25.0
 40
26.0
 40
26.0
 40
26.0
 40
27.0
 40
27.0
 40
27.0
 40
28.0
 40
28.0
 40
28.0
 40
29.0
 40
29.0
 40
29.0
 40
30.0
 40
30.0
 40
30.0
 40
31.0
 40
31.0
 40
31.0
 40
31.0
 10
1.750215318467882
 20
-4.714757283528646
 30
0.0
 10
1.752095540364583
 20
-5.019966973198785
 30
0.0
 10
1.753975762261285
 20
-5.325179206000434
 30
0.0
 10
1.75585683186849
 20
-5.630388895670572
 30
0.0
 10
1.756256951226128
 20
-5.694205390082465
 30
0.0
 10
1.73170895046658
 20
-5.726158989800347
 30
0.0
 10
1.682300991482205
 20
-5.726225958930121
 30
0.0
 10
1.657271491156684
 20
-5.726226806640625
 30
0.0
 10
1.640226576063368
 20
-5.717761569552951
 30
0.0
 10
1.631113688151042
 20
-5.700717502170138
 30
0.0
 10
1.621982150607639
 20
-5.683702256944444
 30
0.0
 10
1.617335001627604
 20
-5.659624735514322
 30
0.0
 10
1.617154439290365
 20
-5.628602769639756
 30
0.0
 10
1.615587022569444
 20
-5.362696329752604
 30
0.0
 10
1.61730702718099
 20
-5.162237379286024
 30
0.0
 10
1.622332255045573
 20
-5.027732849121094
 30
0.0
 10
1.624817742241753
 20
-4.959447224934896
 30
0.0
 10
1.6259765625
 20
-4.90814208984375
 30
0.0
 10
1.625770568847656
 20
-4.873613145616319
 30
0.0
 10
1.625672234429253
 20
-4.858393351236979
 30
0.0
 10
1.622713724772135
 20
-4.85042741563585
 30
0.0
 10
1.61692640516493
 20
-4.849721272786458
 30
0.0
 10
1.611097547743055
 20
-4.849020216200087
 30
0.0
 10
1.604203965928819
 20
-4.860366821289062
 30
0.0
 10
1.596233791775173
 20
-4.883864508734809
 30
0.0
 10
1.534043206108941
 20
-5.065008375379774
 30
0.0
 10
1.457330491807726
 20
-5.249051411946614
 30
0.0
 10
1.365962558322483
 20
-5.440599229600694
 30
0.0
 10
1.352166069878472
 20
-5.46952141655816
 30
0.0
 10
1.332200792100694
 20
-5.483616299099392
 30
0.0
 10
1.306066724989149
 20
-5.482616000705295
 30
0.0
 10
1.277581108940972
 20
-5.481530083550347
 30
0.0
 10
1.256052652994792
 20
-5.464637756347656
 30
0.0
 10
1.241387261284722
 20
-5.431646558973524
 30
0.0
 10
1.178699069552951
 20
-5.287542555067274
 30
0.0
 10
1.10217539469401
 20
-5.070652431911892
 30
0.0
 10
1.012718200683594
 20
-4.766663445366754
 30
0.0
 10
1.003406948513455
 20
-4.734895494249131
 30
0.0
 10
0.9964650472005208
 20
-4.718471950954861
 30
0.0
 10
0.9918636745876735
 20
-4.717652214898004
 30
0.0
 10
0.9895502726236979
 20
-4.717230902777778
 30
0.0
 10
0.9884346856011285
 20
-4.725463019476996
 30
0.0
 10
0.9884677463107638
 20
-4.742305331759982
 30
0.0
 10
0.9885101318359375
 20
-4.761967976888021
 30
0.0
 10
0.9891043768988714
 20
-4.77891116672092
 30
0.0
 10
0.9902979532877604
 20
-4.793136596679688
 30
0.0
 10
0.9914694892035589
 20
-4.807365417480469
 30
0.0
 10
0.9929818047417535
 20
-4.835956997341579
 30
0.0
 10
0.9948018391927083
 20
-4.878843519422743
 30
0.0
 10
1.005071004231771
 20
-5.097439236111111
 30
0.0
 10
1.010533650716146
 20
-5.335118611653646
 30
0.0
 10
1.011120266384549
 20
-5.593618604871962
 30
0.0
 10
1.011221143934462
 20
-5.636700100368923
 30
0.0
 10
1.00185309516059
 20
-5.669383578830295
 30
0.0
 10
0.982998318142361
 20
-5.692062377929688
 30
0.0
 10
0.9641503228081597
 20
-5.714714050292969
 30
0.0
 10
0.9363878038194444
 20
-5.726201375325521
 30
0.0
 10
0.8997675577799479
 20
-5.726225958930121
 30
0.0
 10
0.8439237806532117
 20
-5.726299709743923
 30
0.0
 10
0.8116446601019964
 20
-5.701153225368923
 30
0.0
 10
0.8029115464952257
 20
-5.650390625
 30
0.0
 10
0.7994384765625
 20
-5.62827640109592
 30
0.0
 10
0.7976981268988714
 20
-5.60526360405816
 30
0.0
 10
0.797695583767361
 20
-5.581409030490451
 30
0.0
 10
0.797695583767361
 20
-5.236521402994791
 30
0.0
 10
0.797695583767361
 20
-4.891634623209635
 30
0.0
 10
0.797695583767361
 20
-4.546747843424479
 30
0.0
 10
0.7977345784505208
 20
-4.427177429199219
 30
0.0
 10
0.8368555704752604
 20
-4.377866109212239
 30
0.0
 10
0.9154451158311632
 20
-4.397332085503472
 30
0.0
 10
0.9883007473415798
 20
-4.415152655707465
 30
0.0
 10
1.039868672688802
 20
-4.470943027072482
 30
0.0
 10
1.070083618164062
 20
-4.563812255859375
 30
0.0
 10
1.12640126546224
 20
-4.735606723361545
 30
0.0
 10
1.173163519965278
 20
-4.875050014919704
 30
0.0
 10
1.210033840603298
 20
-4.986605326334635
 30
0.0
 10
1.234039306640625
 20
-5.059790717230903
 30
0.0
 10
1.257486979166667
 20
-5.129063924153646
 30
0.0
 10
1.280391269259983
 20
-5.194605509440104
 30
0.0
 10
1.365319146050347
 20
-4.998305426703559
 30
0.0
 10
1.441602071126302
 20
-4.808020697699653
 30
0.0
 10
1.509507921006944
 20
-4.620526631673177
 30
0.0
 10
1.522037929958767
 20
-4.585963779025607
 30
0.0
 10
1.539272732204861
 20
-4.563298543294271
 30
0.0
 10
1.561242845323351
 20
-4.5523927476671
 30
0.0
 10
1.583206176757812
 20
-4.541478474934896
 30
0.0
 10
1.604905870225694
 20
-4.537870619032118
 30
0.0
 10
1.626408894856771
 20
-4.541368272569444
 30
0.0
 10
1.674566480848524
 20
-4.549219767252604
 30
0.0
 10
1.708690219455295
 20
-4.573053995768229
 30
0.0
 10
1.728673299153646
 20
-4.612937927246094
 30
0.0
 10
1.742791069878472
 20
-4.641977098253038
 30
0.0
 10
1.749976264105903
 20
-4.675829569498697
 30
0.0
 10
1.750215318467882
 20
-4.714757283528646
 30
0.0
  0
SPLINE
  5
4D
330
1F
100
AcDbEntity
  8
Layer 1
370
     0
100
AcDbSpline
210
0.0
220
0.0
230
1.0
 70
    11
 71
     3
 72
    65
 73
    61
 74
     0
 42
0.0000000001
 43
0.0000000001
 12
1.0
 22
0.0
 32
0.0
 13
1.0
 23
0.0
 33
0.0
 40
0.0
 40
0.0
 40
0.0
 40
0.0
 40
1.0
 40
1.0
 40
1.0
 40
2.0
 40
2.0
 40
2.0
 40
3.0
 40
3.0
 40
3.0
 40
4.0
 40
4.0
 40
4.0
 40
5.0
 40
5.0
 40
5.0
 40
6.0
 40
6.0
 40
6.0
 40
7.0
 40
7.0
 40
7.0
 40
8.0
 40
8.0
 40
8.0
 40
9.0
 40
9.0
 40
9.0
 40
10.0
 40
10.0
 40
10.0
 40
11.0
 40
11.0
 40
11.0
 40
12.0
 40
12.0
 40
12.0
 40
13.0
 40
13.0
 40
13.0
 40
14.0
 40
14.0
 40
14.0
 40
15.0
 40
15.0
 40
15.0
 40
16.0
 40
16.0
 40
16.0
 40
17.0
 40
17.0
 40
17.0
 40
18.0
 40
18.0
 40
18.0
 40
19.0
 40
19.0
 40
19.0
 40
20.0
 40
20.0
 40
20.0
 40
20.0
 10
2.252572801378038
 20
-4.716123792860243
 30
0.0
 10
2.280586242675781
 20
-4.717599656846788
 30
0.0
 10
2.29986826578776
 20
-4.716565450032552
 30
0.0
 10
2.310350206163194
 20
-4.71319580078125
 30
0.0
 10
2.330748664008246
 20
-4.706375969780816
 30
0.0
 10
2.340933057996962
 20
-4.693813747829861
 30
0.0
 10
2.340834723578559
 20
-4.675506591796875
 30
0.0
 10
2.340724521213108
 20
-4.652968512641059
 30
0.0
 10
2.317246331108941
 20
-4.639815436469184
 30
0.0
 10
2.270529005262587
 20
-4.63554212782118
 30
0.0
 10
2.171195983886719
 20
-4.626440260145399
 30
0.0
 10
2.071969774034288
 20
-4.615776909722222
 30
0.0
 10
1.972891913519965
 20
-4.603548685709635
 30
0.0
 10
1.926240709092882
 20
-4.597738477918837
 30
0.0
 10
1.903038024902344
 20
-4.606382581922743
 30
0.0
 10
1.903180440266927
 20
-4.62992435031467
 30
0.0
 10
1.903299119737413
 20
-4.64902835422092
 30
0.0
 10
1.913573371039496
 20
-4.664269341362847
 30
0.0
 10
1.934026930067274
 20
-4.675493028428819
 30
0.0
 10
1.943959554036458
 20
-4.681062486436631
 30
0.0
 10
1.96203358968099
 20
-4.685865614149305
 30
0.0
 10
1.988263448079427
 20
-4.68980238172743
 30
0.0
 10
2.006915622287326
 20
-4.692887200249566
 30
0.0
 10
2.01629638671875
 20
-4.702347649468316
 30
0.0
 10
2.01640150282118
 20
-4.718313429090712
 30
0.0
 10
2.018197801378038
 20
-5.013158162434896
 30
0.0
 10
2.019994099934896
 20
-5.308010525173611
 30
0.0
 10
2.02178955078125
 20
-5.602857801649305
 30
0.0
 10
2.021842108832465
 20
-5.611579895019531
 30
0.0
 10
2.018666585286458
 20
-5.617821587456597
 30
0.0
 10
2.012299431694879
 20
-5.621617635091146
 30
0.0
 10
2.00592041015625
 20
-5.625426398383246
 30
0.0
 10
1.994880676269531
 20
-5.627243889702691
 30
0.0
 10
1.979185316297743
 20
-5.627073499891493
 30
0.0
 10
1.932634989420573
 20
-5.626530965169271
 30
0.0
 10
1.909466213650173
 20
-5.642424689398871
 30
0.0
 10
1.909666273328993
 20
-5.674790276421441
 30
0.0
 10
1.909817165798611
 20
-5.700274149576822
 30
0.0
 10
1.931404113769531
 20
-5.713061014811197
 30
0.0
 10
1.974472893608941
 20
-5.713096618652344
 30
0.0
 10
2.072179158528646
 20
-5.713239034016927
 30
0.0
 10
2.169888814290364
 20
-5.71336195203993
 30
0.0
 10
2.267598470052083
 20
-5.713468763563368
 30
0.0
 10
2.314136928982205
 20
-5.713505215115017
 30
0.0
 10
2.337349785698784
 20
-5.70225355360243
 30
0.0
 10
2.337237887912326
 20
-5.679707845052083
 30
0.0
 10
2.33714124891493
 20
-5.661862691243489
 30
0.0
 10
2.327166239420573
 20
-5.648425632052951
 30
0.0
 10
2.30735609266493
 20
-5.639332241482204
 30
0.0
 10
2.297420925564236
 20
-5.634566413031684
 30
0.0
 10
2.279955546061198
 20
-5.631597730848524
 30
0.0
 10
2.254942152235243
 20
-5.630442301432291
 30
0.0
 10
2.240377638075087
 20
-5.629381815592447
 30
0.0
 10
2.233077155219184
 20
-5.622918023003472
 30
0.0
 10
2.233005099826389
 20
-5.611059400770399
 30
0.0
 10
2.231382581922743
 20
-5.318428887261285
 30
0.0
 10
2.22975836859809
 20
-5.02579583062066
 30
0.0
 10
2.228134155273438
 20
-4.733164469401041
 30
0.0
 10
2.228065490722656
 20
-4.721310933430989
 30
0.0
 10
2.236207750108507
 20
-4.715653313530816
 30
0.0
 10
2.252572801378038
 20
-4.716123792860243
 30
0.0
  0
SPLINE
  5
4E
330
1F
100
AcDbEntity
  8
Layer 1
370
     0
100
AcDbSpline
210
0.0
220
0.0
230
1.0
 70
    11
 71
     3
 72
   104
 73
   100
 74
     0
 42
0.0000000001
 43
0.0000000001
 12
1.0
 22
0.0
 32
0.0
 13
1.0
 23
0.0
 33
0.0
 40
0.0
 40
0.0
 40
0.0
 40
0.0
 40
1.0
 40
1.0
 40
1.0
 40
2.0
 40
2.0
 40
2.0
 40
3.0
 40
3.0
 40
3.0
 40
4.0
 40
4.0
 40
4.0
 40
5.0
 40
5.0
 40
5.0
 40
6.0
 40
6.0
 40
6.0
 40
7.0
 40
7.0
 40
7.0
 40
8.0
 40
8.0
 40
8.0
 40
9.0
 40
9.0
 40
9.0
 40
10.0
 40
10.0
 40
10.0
 40
11.0
 40
11.0
 40
11.0
 40
12.0
 40
12.0
 40
12.0
 40
13.0
 40
13.0
 40
13.0
 40
14.0
 40
14.0
 40
14.0
 40
15.0
 40
15.0
 40
15.0
 40
16.0
 40
16.0
 40
16.0
 40
17.0
 40
17.0
 40
17.0
 40
18.0
 40
18.0
 40
18.0
 40
19.0
 40
19.0
 40
19.0
 40
20.0
 40
20.0
 40
20.0
 40
21.0
 40
21.0
 40
21.0
 40
22.0
 40
22.0
 40
22.0
 40
23.0
 40
23.0
 40
23.0
 40
24.0
 40
24.0
 40
24.0
 40
25.0
 40
25.0
 40
25.0
 40
26.0
 40
26.0
 40
26.0
 40
27.0
 40
27.0
 40
27.0
 40
28.0
 40
28.0
 40
28.0
 40
29.0
 40
29.0
 40
29.0
 40
30.0
 40
30.0
 40
30.0
 40
31.0
 40
31.0
 40
31.0
 40
32.0
 40
32.0
 40
32.0
 40
33.0
 40
33.0
 40
33.0
 40
33.0
 10
2.998987833658854
 20
-5.122317843967013
 30
0.0
 10
2.998999701605903
 20
-5.144643147786458
 30
0.0
 10
3.00458017985026
 20
-5.160401238335504
 30
0.0
 10
3.01568603515625
 20
-5.169579399956597
 30
0.0
 10
3.024452209472656
 20
-5.177391899956597
 30
0.0
 10
3.037871466742621
 20
-5.181337144639756
 30
0.0
 10
3.055985344780816
 20
-5.181416829427083
 30
0.0
 10
3.080500284830729
 20
-5.181522793240017
 30
0.0
 10
3.099195692274305
 20
-5.164728800455729
 30
0.0
 10
3.112030029296875
 20
-5.131078084309896
 30
0.0
 10
3.124876234266493
 20
-5.09743414984809
 30
0.0
 10
3.131319681803385
 20
-5.051014370388454
 30
0.0
 10
3.131310356987847
 20
-4.991867913140191
 30
0.0
 10
3.131317138671875
 20
-4.898128085666232
 30
0.0
 10
3.111122131347656
 20
-4.822889539930555
 30
0.0
 10
3.070656670464409
 20
-4.765747918023004
 30
0.0
 10
3.021436055501302
 20
-4.697145250108506
 30
0.0
 10
2.940773010253906
 20
-4.662184821234809
 30
0.0
 10
2.828826056586371
 20
-4.658507453070746
 30
0.0
 10
2.753241644965278
 20
-4.656019422743055
 30
0.0
 10
2.69028811984592
 20
-4.664942423502604
 30
0.0
 10
2.640026516384549
 20
-4.68632083468967
 30
0.0
 10
2.486863878038194
 20
-4.75018564860026
 30
0.0
 10
2.411194695366753
 20
-4.911748250325521
 30
0.0
 10
2.412460327148438
 20
-5.173439025878906
 30
0.0
 10
2.413380093044705
 20
-5.366456773546006
 30
0.0
 10
2.454881456163194
 20
-5.512637668185763
 30
0.0
 10
2.536755879720052
 20
-5.609469095865885
 30
0.0
 10
2.602833218044705
 20
-5.687772962782118
 30
0.0
 10
2.695168389214409
 20
-5.726234436035156
 30
0.0
 10
2.813791910807292
 20
-5.726225958930121
 30
0.0
 10
2.871383666992188
 20
-5.726221720377604
 30
0.0
 10
2.923701816134983
 20
-5.713879903157552
 30
0.0
 10
2.970784505208333
 20
-5.689321729871962
 30
0.0
 10
3.01786380343967
 20
-5.664727105034722
 30
0.0
 10
3.055375840928819
 20
-5.633029513888888
 30
0.0
 10
3.083308749728733
 20
-5.594143337673611
 30
0.0
 10
3.111234029134114
 20
-5.555246988932291
 30
0.0
 10
3.125239902072483
 20
-5.514206780327691
 30
0.0
 10
3.125222947862413
 20
-5.470972696940104
 30
0.0
 10
3.125225490993923
 20
-5.419551425509982
 30
0.0
 10
3.105963812934028
 20
-5.387260437011719
 30
0.0
 10
3.067474365234375
 20
-5.373977661132812
 30
0.0
 10
3.038301255967882
 20
-5.363414340549045
 30
0.0
 10
2.975606282552083
 20
-5.358033074273004
 30
0.0
 10
2.87939453125
 20
-5.357126024034288
 30
0.0
 10
2.849046495225694
 20
-5.356830173068576
 30
0.0
 10
2.826046413845486
 20
-5.360560946994357
 30
0.0
 10
2.810313754611545
 20
-5.368375990125868
 30
0.0
 10
2.794592115614149
 20
-5.376200358072916
 30
0.0
 10
2.786759270562066
 20
-5.389271206325954
 30
0.0
 10
2.786813524034288
 20
-5.407578362358941
 30
0.0
 10
2.786834716796875
 20
-5.418563842773438
 30
0.0
 10
2.792678833007812
 20
-5.429165310329861
 30
0.0
 10
2.804371303982205
 20
-5.439336140950521
 30
0.0
 10
2.816047668457031
 20
-5.449536641438802
 30
0.0
 10
2.832665337456597
 20
-5.454679701063368
 30
0.0
 10
2.854229397243924
 20
-5.45485602484809
 30
0.0
 10
2.867925008138021
 20
-5.454734802246094
 30
0.0
 10
2.881618075900608
 20
-5.454606797960069
 30
0.0
 10
2.895313686794705
 20
-5.45447031656901
 30
0.0
 10
2.922103881835938
 20
-5.453744676378038
 30
0.0
 10
2.948919508192274
 20
-5.453440348307291
 30
0.0
 10
2.975720723470052
 20
-5.453553941514756
 30
0.0
 10
3.001354641384549
 20
-5.453670077853732
 30
0.0
 10
3.014226277669271
 20
-5.46167246500651
 30
0.0
 10
3.014225429958767
 20
-5.477610270182291
 30
0.0
 10
3.014241536458333
 20
-5.500823974609375
 30
0.0
 10
3.006242540147569
 20
-5.523353576660156
 30
0.0
 10
2.990263197157118
 20
-5.545165167914496
 30
0.0
 10
2.974264356825087
 20
-5.566992865668403
 30
0.0
 10
2.95302497016059
 20
-5.58494144015842
 30
0.0
 10
2.926575554741753
 20
-5.598983764648438
 30
0.0
 10
2.900103251139323
 20
-5.613055759006076
 30
0.0
 10
2.871166653103299
 20
-5.620072258843316
 30
0.0
 10
2.83974372016059
 20
-5.619967142740885
 30
0.0
 10
2.775711907280816
 20
-5.619770473904079
 30
0.0
 10
2.72642347547743
 20
-5.578614128960504
 30
0.0
 10
2.691802130805121
 20
-5.495980156792535
 30
0.0
 10
2.654229905870225
 20
-5.406461079915364
 30
0.0
 10
2.635142856174045
 20
-5.29032474093967
 30
0.0
 10
2.634641011555989
 20
-5.148373921712239
 30
0.0
 10
2.634156121148003
 20
-5.012404547797309
 30
0.0
 10
2.656281365288628
 20
-4.909787495930989
 30
0.0
 10
2.701116773817274
 20
-4.84082285563151
 30
0.0
 10
2.739540947808159
 20
-4.781659444173177
 30
0.0
 10
2.793919033474392
 20
-4.753630744086371
 30
0.0
 10
2.864189147949219
 20
-4.755504184299045
 30
0.0
 10
2.923325432671441
 20
-4.757074144151475
 30
0.0
 10
2.965858459472656
 20
-4.788748847113715
 30
0.0
 10
2.99167972140842
 20
-4.851019117567274
 30
0.0
 10
3.005772908528646
 20
-4.885821024576822
 30
0.0
 10
3.012820773654514
 20
-4.926180521647135
 30
0.0
 10
3.012871636284722
 20
-4.97216796875
 30
0.0
 10
3.012908935546875
 20
-5.007681952582465
 30
0.0
 10
3.010301378038194
 20
-5.038630167643229
 30
0.0
 10
3.005059136284722
 20
-5.064990573459201
 30
0.0
 10
3.0009765625
 20
-5.085916307237413
 30
0.0
 10
2.998977661132812
 20
-5.105010986328125
 30
0.0
 10
2.998987833658854
 20
-5.122317843967013
 30
0.0
  0
SPLINE
  5
4F
330
1F
100
AcDbEntity
  8
Layer 1
370
     0
100
AcDbSpline
210
0.0
220
0.0
230
1.0
 70
    11
 71
     3
 72
    86
 73
    82
 74
     0
 42
0.0000000001
 43
0.0000000001
 12
1.0
 22
0.0
 32
0.0
 13
1.0
 23
0.0
 33
0.0
 40
0.0
 40
0.0
 40
0.0
 40
0.0
 40
1.0
 40
1.0
 40
1.0
 40
2.0
 40
2.0
 40
2.0
 40
3.0
 40
3.0
 40
3.0
 40
4.0
 40
4.0
 40
4.0
 40
5.0
 40
5.0
 40
5.0
 40
6.0
 40
6.0
 40
6.0
 40
7.0
 40
7.0
 40
7.0
 40
8.0
 40
8.0
 40
8.0
 40
9.0
 40
9.0
 40
9.0
 40
10.0
 40
10.0
 40
10.0
 40
11.0
 40
11.0
 40
11.0
 40
12.0
 40
12.0
 40
12.0
 40
13.0
 40
13.0
 40
13.0
 40
14.0
 40
14.0
 40
14.0
 40
15.0
 40
15.0
 40
15.0
 40
16.0
 40
16.0
 40
16.0
 40
17.0
 40
17.0
 40
17.0
 40
18.0
 40
18.0
 40
18.0
 40
19.0
 40
19.0
 40
19.0
 40
20.0
 40
20.0
 40
20.0
 40
21.0
 40
21.0
 40
21.0
 40
22.0
 40
22.0
 40
22.0
 40
23.0
 40
23.0
 40
23.0
 40
24.0
 40
24.0
 40
24.0
 40
25.0
 40
25.0
 40
25.0
 40
26.0
 40
26.0
 40
26.0
 40
27.0
 40
27.0
 40
27.0
 40
27.0
 10
3.931677076551649
 20
-4.630103217230903
 30
0.0
 10
3.906524658203125
 20
-4.632225884331597
 30
0.0
 10
3.889361911349826
 20
-4.641322665744357
 30
0.0
 10
3.880230373806423
 20
-4.657449510362413
 30
0.0
 10
3.87109629313151
 20
-4.673589918348524
 30
0.0
 10
3.866464402940538
 20
-4.69608900282118
 30
0.0
 10
3.866326226128472
 20
-4.725045098198785
 30
0.0
 10
3.865384419759114
 20
-4.922153049045138
 30
0.0
 10
3.864440070258246
 20
-5.119259304470486
 30
0.0
 10
3.863495720757378
 20
-5.316366407606337
 30
0.0
 10
3.863398234049479
 20
-5.336926778157552
 30
0.0
 10
3.851128472222222
 20
-5.347546047634548
 30
0.0
 10
3.826628790961371
 20
-5.348161485460069
 30
0.0
 10
3.735423617892795
 20
-5.350738525390625
 30
0.0
 10
3.644193861219618
 20
-5.35284423828125
 30
0.0
 10
3.552946302625868
 20
-5.354482014973958
 30
0.0
 10
3.529031541612413
 20
-5.354845682779947
 30
0.0
 10
3.51711188422309
 20
-5.34470960828993
 30
0.0
 10
3.517177157931858
 20
-5.324080573187934
 30
0.0
 10
3.51768324110243
 20
-5.139390733506944
 30
0.0
 10
3.518192715115017
 20
-4.954700046115451
 30
0.0
 10
3.518697102864583
 20
-4.770009358723958
 30
0.0
 10
3.518792894151475
 20
-4.734722561306423
 30
0.0
 10
3.509785122341579
 20
-4.707223680284288
 30
0.0
 10
3.491688198513454
 20
-4.687522888183594
 30
0.0
 10
3.473569234212239
 20
-4.667809380425347
 30
0.0
 10
3.445172627766927
 20
-4.65867190890842
 30
0.0
 10
3.40649668375651
 20
-4.659777323404947
 30
0.0
 10
3.350249396430121
 20
-4.661362542046441
 30
0.0
 10
3.317960103352864
 20
-4.6826171875
 30
0.0
 10
3.309722052680121
 20
-4.724233839246962
 30
0.0
 10
3.305593702528212
 20
-4.74253675672743
 30
0.0
 10
3.303503248426649
 20
-4.761475457085504
 30
0.0
 10
3.303484598795573
 20
-4.781061808268229
 30
0.0
 10
3.303148057725694
 20
-5.056247287326388
 30
0.0
 10
3.302812364366319
 20
-5.331433614095052
 30
0.0
 10
3.302474975585938
 20
-5.606620788574219
 30
0.0
 10
3.302435980902778
 20
-5.636243184407552
 30
0.0
 10
3.305312262641059
 20
-5.65924326578776
 30
0.0
 10
3.311135186089409
 20
-5.67563713921441
 30
0.0
 10
3.316334194607204
 20
-5.688862270779079
 30
0.0
 10
3.324476453993055
 20
-5.699786716037326
 30
0.0
 10
3.335518731011284
 20
-5.708446078830295
 30
0.0
 10
3.34946780734592
 20
-5.720275031195746
 30
0.0
 10
3.372416178385417
 20
-5.726229349772135
 30
0.0
 10
3.404401143391927
 20
-5.726225958930121
 30
0.0
 10
3.447419908311632
 20
-5.726221720377604
 30
0.0
 10
3.478301154242621
 20
-5.712523566351996
 30
0.0
 10
3.496999952528212
 20
-5.685006883409288
 30
0.0
 10
3.509819030761719
 20
-5.666213989257812
 30
0.0
 10
3.516305711534288
 20
-5.641663445366754
 30
0.0
 10
3.516388787163628
 20
-5.611418830023871
 30
0.0
 10
3.516517639160156
 20
-5.564217461480035
 30
0.0
 10
3.516648186577691
 20
-5.517020331488715
 30
0.0
 10
3.516777886284722
 20
-5.469818962944879
 30
0.0
 10
3.516817728678385
 20
-5.454247368706597
 30
0.0
 10
3.528780619303385
 20
-5.446327209472656
 30
0.0
 10
3.55267333984375
 20
-5.446044921875
 30
0.0
 10
3.643863254123264
 20
-5.444756401909722
 30
0.0
 10
3.735042148166233
 20
-5.443110995822482
 30
0.0
 10
3.826201544867621
 20
-5.441109551323785
 30
0.0
 10
3.850676642523871
 20
-5.440626356336805
 30
0.0
 10
3.862859937879774
 20
-5.448548210991754
 30
0.0
 10
3.862784491644965
 20
-5.464900546603732
 30
0.0
 10
3.862511528862847
 20
-5.522113376193576
 30
0.0
 10
3.862235175238715
 20
-5.579327053493923
 30
0.0
 10
3.8619630601671
 20
-5.636541578504774
 30
0.0
 10
3.861825731065538
 20
-5.665028042263454
 30
0.0
 10
3.866227043999566
 20
-5.687088860405816
 30
0.0
 10
3.875159369574653
 20
-5.702725728352864
 30
0.0
 10
3.884095085991753
 20
-5.718368530273438
 30
0.0
 10
3.90108659532335
 20
-5.726221720377604
 30
0.0
 10
3.926100836859809
 20
-5.726225958930121
 30
0.0
 10
3.975523206922743
 20
-5.726256476508246
 30
0.0
 10
4.000411987304688
 20
-5.696062723795572
 30
0.0
 10
4.000739203559028
 20
-5.635565016004774
 30
0.0
 10
4.002394782172309
 20
-5.328426784939236
 30
0.0
 10
4.00405036078559
 20
-5.021289401584201
 30
0.0
 10
4.005707634819879
 20
-4.71415286593967
 30
0.0
 10
4.006050957573785
 20
-4.653656853569879
 30
0.0
 10
3.981348673502604
 20
-4.625838385687934
 30
0.0
 10
3.931677076551649
 20
-4.630103217230903
 30
0.0
  0
SPLINE
  5
50
330
1F
100
AcDbEntity
  8
Layer 1
370
     0
100
AcDbSpline
210
0.0
220
0.0
230
1.0
 70
    11
 71
     3
 72
    68
 73
    64
 74
     0
 42
0.0000000001
 43
0.0000000001
 12
1.0
 22
0.0
 32
0.0
 13
1.0
 23
0.0
 33
0.0
 40
0.0
 40
0.0
 40
0.0
 40
0.0
 40
1.0
 40
1.0
 40
1.0
 40
2.0
 40
2.0
 40
2.0
 40
3.0
 40
3.0
 40
3.0
 40
4.0
 40
4.0
 40
4.0
 40
5.0
 40
5.0
 40
5.0
 40
6.0
 40
6.0
 40
6.0
 40
7.0
 40
7.0
 40
7.0
 40
8.0
 40
8.0
 40
8.0
 40
9.0
 40
9.0
 40
9.0
 40
10.0
 40
10.0
 40
10.0
 40
11.0
 40
11.0
 40
11.0
 40
12.0
 40
12.0
 40
12.0
 40
13.0
 40
13.0
 40
13.0
 40
14.0
 40
14.0
 40
14.0
 40
15.0
 40
15.0
 40
15.0
 40
16.0
 40
16.0
 40
16.0
 40
17.0
 40
17.0
 40
17.0
 40
18.0
 40
18.0
 40
18.0
 40
19.0
 40
19.0
 40
19.0
 40
20.0
 40
20.0
 40
20.0
 40
21.0
 40
21.0
 40
21.0
 40
21.0
 10
4.679234822591146
 20
-4.568668789333767
 30
0.0
 10
4.665042453342013
 20
-4.562307569715712
 30
0.0
 10
4.648130628797743
 20
-4.559733072916666
 30
0.0
 10
4.628390842013888
 20
-4.560818990071614
 30
0.0
 10
4.60866461859809
 20
-4.561921861436631
 30
0.0
 10
4.590652465820312
 20
-4.563713073730469
 30
0.0
 10
4.574391682942708
 20
-4.566191779242621
 30
0.0
 10
4.452952067057291
 20
-4.584737989637587
 30
0.0
 10
4.33123779296875
 20
-4.60091569688585
 30
0.0
 10
4.209316677517361
 20
-4.61472913953993
 30
0.0
 10
4.19297112358941
 20
-4.616580539279513
 30
0.0
 10
4.174876742892795
 20
-4.619564480251736
 30
0.0
 10
4.155040317111545
 20
-4.623591105143229
 30
0.0
 10
4.135188632541232
 20
-4.627644009060329
 30
0.0
 10
4.118076748318142
 20
-4.634410434299045
 30
0.0
 10
4.103728400336371
 20
-4.643946329752604
 30
0.0
 10
4.089383443196614
 20
-4.653487311469184
 30
0.0
 10
4.082154168023004
 20
-4.666993035210504
 30
0.0
 10
4.082054138183594
 20
-4.684573703342013
 30
0.0
 10
4.081993950737847
 20
-4.695974561903212
 30
0.0
 10
4.089369032118055
 20
-4.705742730034722
 30
0.0
 10
4.104211595323351
 20
-4.713868035210504
 30
0.0
 10
4.119020250108507
 20
-4.721999274359809
 30
0.0
 10
4.140732659233941
 20
-4.724734836154513
 30
0.0
 10
4.169321695963541
 20
-4.721915351019965
 30
0.0
 10
4.201115078396267
 20
-4.718766106499566
 30
0.0
 10
4.232897440592447
 20
-4.715472751193576
 30
0.0
 10
4.264663696289062
 20
-4.712035285101996
 30
0.0
 10
4.278103298611111
 20
-4.710574679904513
 30
0.0
 10
4.284725613064236
 20
-4.715660095214844
 30
0.0
 10
4.284662034776476
 20
-4.727296617296006
 30
0.0
 10
4.28288099500868
 20
-5.017829895019531
 30
0.0
 10
4.281105041503906
 20
-5.308364868164062
 30
0.0
 10
4.279324001736111
 20
-5.598896450466579
 30
0.0
 10
4.27911631266276
 20
-5.634301079644097
 30
0.0
 10
4.282461378309462
 20
-5.660469055175781
 30
0.0
 10
4.289324442545572
 20
-5.677427503797743
 30
0.0
 10
4.29390123155382
 20
-5.689036051432291
 30
0.0
 10
4.301099141438802
 20
-5.698990715874566
 30
0.0
 10
4.310943603515625
 20
-5.707242329915364
 30
0.0
 10
4.324838426378038
 20
-5.71985117594401
 30
0.0
 10
4.348038567437066
 20
-5.726225958930121
 30
0.0
 10
4.380615234375
 20
-5.726225958930121
 30
0.0
 10
4.454473707411024
 20
-5.726361592610677
 30
0.0
 10
4.491672939724392
 20
-5.684828864203559
 30
0.0
 10
4.492179870605469
 20
-5.601646423339844
 30
0.0
 10
4.494033813476562
 20
-5.301776462131076
 30
0.0
 10
4.49589114718967
 20
-5.001906500922309
 30
0.0
 10
4.497746785481771
 20
-4.702037387424045
 30
0.0
 10
4.49782477484809
 20
-4.690112643771701
 30
0.0
 10
4.504833645290798
 20
-4.683225843641493
 30
0.0
 10
4.518797980414496
 20
-4.681373596191406
 30
0.0
 10
4.550200568305121
 20
-4.677193535698785
 30
0.0
 10
4.581588745117188
 20
-4.672868516710069
 30
0.0
 10
4.612957424587673
 20
-4.668403625488281
 30
0.0
 10
4.641406589084201
 20
-4.664364284939236
 30
0.0
 10
4.663076612684462
 20
-4.656090630425347
 30
0.0
 10
4.677914089626736
 20
-4.643675910101996
 30
0.0
 10
4.69278801812066
 20
-4.631254408094618
 30
0.0
 10
4.700240241156684
 20
-4.618841383192274
 30
0.0
 10
4.700315687391493
 20
-4.606580098470052
 30
0.0
 10
4.700426737467447
 20
-4.587677001953125
 30
0.0
 10
4.693400065104166
 20
-4.575030856662326
 30
0.0
 10
4.679234822591146
 20
-4.568668789333767
 30
0.0
  0
SPLINE
  5
51
330
1F
100
AcDbEntity
  8
Layer 1
370
     0
100
AcDbSpline
210
0.0
220
0.0
230
1.0
 70
    11
 71
     3
 72
    92
 73
    88
 74
     0
 42
0.0000000001
 43
0.0000000001
 12
1.0
 22
0.0
 32
0.0
 13
1.0
 23
0.0
 33
0.0
 40
0.0
 40
0.0
 40
0.0
 40
0.0
 40
1.0
 40
1.0
 40
1.0
 40
2.0
 40
2.0
 40
2.0
 40
3.0
 40
3.0
 40
3.0
 40
4.0
 40
4.0
 40
4.0
 40
5.0
 40
5.0
 40
5.0
 40
6.0
 40
6.0
 40
6.0
 40
7.0
 40
7.0
 40
7.0
 40
8.0
 40
8.0
 40
8.0
 40
9.0
 40
9.0
 40
9.0
 40
10.0
 40
10.0
 40
10.0
 40
11.0
 40
11.0
 40
11.0
 40
12.0
 40
12.0
 40
12.0
 40
13.0
 40
13.0
 40
13.0
 40
14.0
 40
14.0
 40
14.0
 40
15.0
 40
15.0
 40
15.0
 40
16.0
 40
16.0
 40
16.0
 40
17.0
 40
17.0
 40
17.0
 40
18.0
 40
18.0
 40
18.0
 40
19.0
 40
19.0
 40
19.0
 40
20.0
 40
20.0
 40
20.0
 40
21.0
 40
21.0
 40
21.0
 40
22.0
 40
22.0
 40
22.0
 40
23.0
 40
23.0
 40
23.0
 40
24.0
 40
24.0
 40
24.0
 40
25.0
 40
25.0
 40
25.0
 40
26.0
 40
26.0
 40
26.0
 40
27.0
 40
27.0
 40
27.0
 40
28.0
 40
28.0
 40
28.0
 40
29.0
 40
29.0
 40
29.0
 40
29.0
 10
5.452319675021701
 20
-4.392069498697916
 30
0.0
 10
5.441452026367188
 20
-4.383219401041666
 30
0.0
 10
5.424849616156684
 20
-4.381658766004774
 30
0.0
 10
5.402494642469618
 20
-4.387200249565972
 30
0.0
 10
5.373828464084201
 20
-4.394317626953125
 30
0.0
 10
5.354012383355035
 20
-4.413356357150607
 30
0.0
 10
5.343052334255642
 20
-4.444251166449653
 30
0.0
 10
5.338458591037326
 20
-4.457795037163629
 30
0.0
 10
5.335812886555989
 20
-4.470846388075087
 30
0.0
 10
5.335250006781684
 20
-4.483428107367621
 30
0.0
 10
5.325804816351996
 20
-4.641248914930555
 30
0.0
 10
5.299385918511285
 20
-4.804367913140191
 30
0.0
 10
5.255673726399739
 20
-4.968179490831163
 30
0.0
 10
5.235856797960069
 20
-5.042832268608941
 30
0.0
 10
5.211700439453125
 20
-5.111136542426215
 30
0.0
 10
5.183137681749131
 20
-5.172840542263454
 30
0.0
 10
5.176145765516493
 20
-5.187852647569444
 30
0.0
 10
5.168576558430989
 20
-5.195665147569444
 30
0.0
 10
5.160481770833333
 20
-5.196401807996962
 30
0.0
 10
5.141360812717013
 20
-5.198162502712673
 30
0.0
 10
5.115466647677951
 20
-5.147057427300347
 30
0.0
 10
5.082874721950954
 20
-5.045569525824653
 30
0.0
 10
5.056555853949653
 20
-4.964567396375868
 30
0.0
 10
5.034177144368489
 20
-4.882526821560329
 30
0.0
 10
5.015756395128038
 20
-4.799045986599392
 30
0.0
 10
4.997327168782552
 20
-4.715577867296006
 30
0.0
 10
4.98563724093967
 20
-4.654262118869357
 30
0.0
 10
4.980612013075087
 20
-4.614128960503472
 30
0.0
 10
4.974485609266493
 20
-4.559805976019965
 30
0.0
 10
4.959641350640191
 20
-4.524916754828559
 30
0.0
 10
4.936047871907552
 20
-4.509354485405816
 30
0.0
 10
4.921068827311197
 20
-4.499529520670572
 30
0.0
 10
4.89913092719184
 20
-4.497464497884114
 30
0.0
 10
4.870196024576822
 20
-4.502888149685329
 30
0.0
 10
4.838369581434462
 20
-4.508854336208767
 30
0.0
 10
4.815305074055989
 20
-4.519650777180989
 30
0.0
 10
4.801044040256076
 20
-4.535373263888888
 30
0.0
 10
4.786779615614149
 20
-4.551099989149305
 30
0.0
 10
4.777715047200521
 20
-4.569547865125868
 30
0.0
 10
4.773818969726562
 20
-4.59082285563151
 30
0.0
 10
4.769932217068142
 20
-4.61209954155816
 30
0.0
 10
4.767928229437934
 20
-4.633820427788629
 30
0.0
 10
4.767809549967447
 20
-4.65598890516493
 30
0.0
 10
4.767540825737847
 20
-4.702962239583333
 30
0.0
 10
4.77962663438585
 20
-4.772496541341146
 30
0.0
 10
4.804033915201822
 20
-4.866007486979166
 30
0.0
 10
4.828425089518229
 20
-4.959582858615451
 30
0.0
 10
4.859557257758246
 20
-5.050827874077691
 30
0.0
 10
4.897373623318142
 20
-5.140500386555989
 30
0.0
 10
4.925431993272569
 20
-5.207386440700954
 30
0.0
 10
4.955333285861545
 20
-5.260526021321614
 30
0.0
 10
4.987090216742621
 20
-5.299444410536024
 30
0.0
 10
5.006111992730035
 20
-5.322678460015191
 30
0.0
 10
5.015569898817274
 20
-5.35270267062717
 30
0.0
 10
5.015409681532118
 20
-5.389167785644531
 30
0.0
 10
5.015129937065972
 20
-5.45458984375
 30
0.0
 10
5.014851040310329
 20
-5.520015292697482
 30
0.0
 10
5.01457044813368
 20
-5.585441589355469
 30
0.0
 10
5.014474656846788
 20
-5.609063042534722
 30
0.0
 10
5.016104804144965
 20
-5.63153076171875
 30
0.0
 10
5.019521077473958
 20
-5.652958340115017
 30
0.0
 10
5.022917005750868
 20
-5.67437744140625
 30
0.0
 10
5.031689114040798
 20
-5.69191657172309
 30
0.0
 10
5.045885721842447
 20
-5.705600314670138
 30
0.0
 10
5.060066223144531
 20
-5.719297620985243
 30
0.0
 10
5.083452860514322
 20
-5.726214090983072
 30
0.0
 10
5.116039699978298
 20
-5.726225958930121
 30
0.0
 10
5.189898173014322
 20
-5.726419236924913
 30
0.0
 10
5.226966857910156
 20
-5.680027431911892
 30
0.0
 10
5.22719489203559
 20
-5.586993747287326
 30
0.0
 10
5.227386474609375
 20
-5.514744228786892
 30
0.0
 10
5.227571275499131
 20
-5.442491319444444
 30
0.0
 10
5.227762858072916
 20
-5.37024180094401
 30
0.0
 10
5.227870517306857
 20
-5.331346299913194
 30
0.0
 10
5.237820095486111
 20
-5.294049580891927
 30
0.0
 10
5.257595486111111
 20
-5.257780287000868
 30
0.0
 10
5.323903401692708
 20
-5.133344014485677
 30
0.0
 10
5.376024034288194
 20
-5.002798292371962
 30
0.0
 10
5.414155748155381
 20
-4.868614196777344
 30
0.0
 10
5.457489013671875
 20
-4.714601304796006
 30
0.0
 10
5.478964063856337
 20
-4.585353427463107
 30
0.0
 10
5.478964063856337
 20
-4.48655022515191
 30
0.0
 10
5.478971693250868
 20
-4.467359754774305
 30
0.0
 10
5.477231343587239
 20
-4.449006822374131
 30
0.0
 10
5.473799811469184
 20
-4.431546529134114
 30
0.0
 10
5.470355563693576
 20
-4.41407945421007
 30
0.0
 10
5.463205973307291
 20
-4.400923834906684
 30
0.0
 10
5.452319675021701
 20
-4.392069498697916
 30
0.0
  0
INSERT
  5
53
330
1F
100
AcDbEntity
  8
Layer 1
100
AcDbBlockReference
  2
block 3
 10
0.0
 20
0.0
 30
0.0
  0
SPLINE
  5
58
330
1F
100
AcDbEntity
  8
Layer 1
370
     0
100
AcDbSpline
210
0.0
220
0.0
230
1.0
 70
    11
 71
     3
 72
    35
 73
    31
 74
     0
 42
0.0000000001
 43
0.0000000001
 12
1.0
 22
0.0
 32
0.0
 13
1.0
 23
0.0
 33
0.0
 40
0.0
 40
0.0
 40
0.0
 40
0.0
 40
1.0
 40
1.0
 40
1.0
 40
2.0
 40
2.0
 40
2.0
 40
3.0
 40
3.0
 40
3.0
 40
4.0
 40
4.0
 40
4.0
 40
5.0
 40
5.0
 40
5.0
 40
6.0
 40
6.0
 40
6.0
 40
7.0
 40
7.0
 40
7.0
 40
8.0
 40
8.0
 40
8.0
 40
9.0
 40
9.0
 40
9.0
 40
10.0
 40
10.0
 40
10.0
 40
10.0
 10
5.144930521647135
 20
-4.006779140896267
 30
0.0
 10
5.108005947536892
 20
-3.964150322808159
 30
0.0
 10
5.024395412868923
 20
-3.966309441460503
 30
0.0
 10
4.968461778428819
 20
-4.051720513237847
 30
0.0
 10
4.888001335991754
 20
-4.174581739637587
 30
0.0
 10
4.92065684000651
 20
-4.310532463921441
 30
0.0
 10
4.9422607421875
 20
-4.400494045681423
 30
0.0
 10
4.947755601671006
 20
-4.42333984375
 30
0.0
 10
4.952494303385416
 20
-4.44309319390191
 30
0.0
 10
4.954871283637153
 20
-4.459665934244791
 30
0.0
 10
4.955210367838541
 20
-4.462131924099392
 30
0.0
 10
4.956465827094184
 20
-4.464077419704861
 30
0.0
 10
4.95823499891493
 20
-4.465237087673611
 30
0.0
 10
4.959715101453993
 20
-4.466205173068576
 30
0.0
 10
4.961573282877604
 20
-4.466621398925781
 30
0.0
 10
4.963573879665798
 20
-4.466328091091579
 30
0.0
 10
4.963573879665798
 20
-4.466328091091579
 30
0.0
 10
4.985171847873263
 20
-4.463307698567708
 30
0.0
 10
4.985171847873263
 20
-4.463307698567708
 30
0.0
 10
5.090268452962239
 20
-4.448845757378472
 30
0.0
 10
5.285895453559028
 20
-4.421939425998263
 30
0.0
 10
5.385807461208767
 20
-4.271777682834201
 30
0.0
 10
5.416852315266927
 20
-4.225120544433594
 30
0.0
 10
5.394781324598524
 20
-4.176884121365017
 30
0.0
 10
5.361151801215278
 20
-4.151782565646701
 30
0.0
 10
5.297129313151041
 20
-4.104847378200954
 30
0.0
 10
5.24080573187934
 20
-4.128761291503906
 30
0.0
 10
5.175468444824219
 20
-4.172240363226996
 30
0.0
 10
5.194478352864583
 20
-4.106956481933594
 30
0.0
 10
5.184396531846788
 20
-4.052644517686632
 30
0.0
 10
5.144930521647135
 20
-4.006779140896267
 30
0.0
  0
HATCH
  5
59
330
1F
100
AcDbEntity
  8
Layer 1
 62
   250
420
  1250067
100
AcDbHatch
 10
0.0
 20
0.0
 30
0.0
210
0.0
220
0.0
230
1.0
  2
SOLID
 70
     1
 71
     0
 91
        9
 92
        1
 93
        1
 72
     4
 94
        3
 73
     0
 74
     1
 95
       98
 96
       94
 40
0.0
 40
0.0
 40
0.0
 40
0.0
 40
1.0
 40
1.0
 40
1.0
 40
2.0
 40
2.0
 40
2.0
 40
3.0
 40
3.0
 40
3.0
 40
4.0
 40
4.0
 40
4.0
 40
5.0
 40
5.0
 40
5.0
 40
6.0
 40
6.0
 40
6.0
 40
7.0
 40
7.0
 40
7.0
 40
8.0
 40
8.0
 40
8.0
 40
9.0
 40
9.0
 40
9.0
 40
10.0
 40
10.0
 40
10.0
 40
11.0
 40
11.0
 40
11.0
 40
12.0
 40
12.0
 40
12.0
 40
13.0
 40
13.0
 40
13.0
 40
14.0
 40
14.0
 40
14.0
 40
15.0
 40
15.0
 40
15.0
 40
16.0
 40
16.0
 40
16.0
 40
17.0
 40
17.0
 40
17.0
 40
18.0
 40
18.0
 40
18.0
 40
19.0
 40
19.0
 40
19.0
 40
20.0
 40
20.0
 40
20.0
 40
21.0
 40
21.0
 40
21.0
 40
22.0
 40
22.0
 40
22.0
 40
23.0
 40
23.0
 40
23.0
 40
24.0
 40
24.0
 40
24.0
 40
25.0
 40
25.0
 40
25.0
 40
26.0
 40
26.0
 40
26.0
 40
27.0
 40
27.0
 40
27.0
 40
28.0
 40
28.0
 40
28.0
 40
29.0
 40
29.0
 40
29.0
 40
30.0
 40
30.0
 40
30.0
 40
31.0
 40
31.0
 40
31.0
 40
31.0
 10
1.750215318467882
 20
-4.714757283528646
 10
1.752095540364583
 20
-5.019966973198785
 10
1.753975762261285
 20
-5.325179206000434
 10
1.75585683186849
 20
-5.630388895670572
 10
1.756256951226128
 20
-5.694205390082465
 10
1.73170895046658
 20
-5.726158989800347
 10
1.682300991482205
 20
-5.726225958930121
 10
1.657271491156684
 20
-5.726226806640625
 10
1.640226576063368
 20
-5.717761569552951
 10
1.631113688151042
 20
-5.700717502170138
 10
1.621982150607639
 20
-5.683702256944444
 10
1.617335001627604
 20
-5.659624735514322
 10
1.617154439290365
 20
-5.628602769639756
 10
1.615587022569444
 20
-5.362696329752604
 10
1.61730702718099
 20
-5.162237379286024
 10
1.622332255045573
 20
-5.027732849121094
 10
1.624817742241753
 20
-4.959447224934896
 10
1.6259765625
 20
-4.90814208984375
 10
1.625770568847656
 20
-4.873613145616319
 10
1.625672234429253
 20
-4.858393351236979
 10
1.622713724772135
 20
-4.85042741563585
 10
1.61692640516493
 20
-4.849721272786458
 10
1.611097547743055
 20
-4.849020216200087
 10
1.604203965928819
 20
-4.860366821289062
 10
1.596233791775173
 20
-4.883864508734809
 10
1.534043206108941
 20
-5.065008375379774
 10
1.457330491807726
 20
-5.249051411946614
 10
1.365962558322483
 20
-5.440599229600694
 10
1.352166069878472
 20
-5.46952141655816
 10
1.332200792100694
 20
-5.483616299099392
 10
1.306066724989149
 20
-5.482616000705295
 10
1.277581108940972
 20
-5.481530083550347
 10
1.256052652994792
 20
-5.464637756347656
 10
1.241387261284722
 20
-5.431646558973524
 10
1.178699069552951
 20
-5.287542555067274
 10
1.10217539469401
 20
-5.070652431911892
 10
1.012718200683594
 20
-4.766663445366754
 10
1.003406948513455
 20
-4.734895494249131
 10
0.9964650472005208
 20
-4.718471950954861
 10
0.9918636745876735
 20
-4.717652214898004
 10
0.9895502726236979
 20
-4.717230902777778
 10
0.9884346856011285
 20
-4.725463019476996
 10
0.9884677463107638
 20
-4.742305331759982
 10
0.9885101318359375
 20
-4.761967976888021
 10
0.9891043768988714
 20
-4.77891116672092
 10
0.9902979532877604
 20
-4.793136596679688
 10
0.9914694892035589
 20
-4.807365417480469
 10
0.9929818047417535
 20
-4.835956997341579
 10
0.9948018391927083
 20
-4.878843519422743
 10
1.005071004231771
 20
-5.097439236111111
 10
1.010533650716146
 20
-5.335118611653646
 10
1.011120266384549
 20
-5.593618604871962
 10
1.011221143934462
 20
-5.636700100368923
 10
1.00185309516059
 20
-5.669383578830295
 10
0.982998318142361
 20
-5.692062377929688
 10
0.9641503228081597
 20
-5.714714050292969
 10
0.9363878038194444
 20
-5.726201375325521
 10
0.8997675577799479
 20
-5.726225958930121
 10
0.8439237806532117
 20
-5.726299709743923
 10
0.8116446601019964
 20
-5.701153225368923
 10
0.8029115464952257
 20
-5.650390625
 10
0.7994384765625
 20
-5.62827640109592
 10
0.7976981268988714
 20
-5.60526360405816
 10
0.797695583767361
 20
-5.581409030490451
 10
0.797695583767361
 20
-5.236521402994791
 10
0.797695583767361
 20
-4.891634623209635
 10
0.797695583767361
 20
-4.546747843424479
 10
0.7977345784505208
 20
-4.427177429199219
 10
0.8368555704752604
 20
-4.377866109212239
 10
0.9154451158311632
 20
-4.397332085503472
 10
0.9883007473415798
 20
-4.415152655707465
 10
1.039868672688802
 20
-4.470943027072482
 10
1.070083618164062
 20
-4.563812255859375
 10
1.12640126546224
 20
-4.735606723361545
 10
1.173163519965278
 20
-4.875050014919704
 10
1.210033840603298
 20
-4.986605326334635
 10
1.234039306640625
 20
-5.059790717230903
 10
1.257486979166667
 20
-5.129063924153646
 10
1.280391269259983
 20
-5.194605509440104
 10
1.365319146050347
 20
-4.998305426703559
 10
1.441602071126302
 20
-4.808020697699653
 10
1.509507921006944
 20
-4.620526631673177
 10
1.522037929958767
 20
-4.585963779025607
 10
1.539272732204861
 20
-4.563298543294271
 10
1.561242845323351
 20
-4.5523927476671
 10
1.583206176757812
 20
-4.541478474934896
 10
1.604905870225694
 20
-4.537870619032118
 10
1.626408894856771
 20
-4.541368272569444
 10
1.674566480848524
 20
-4.549219767252604
 10
1.708690219455295
 20
-4.573053995768229
 10
1.728673299153646
 20
-4.612937927246094
 10
1.742791069878472
 20
-4.641977098253038
 10
1.749976264105903
 20
-4.675829569498697
 10
1.750215318467882
 20
-4.714757283528646
 97
        0
 97
        0
 92
        1
 93
        1
 72
     4
 94
        3
 73
     0
 74
     1
 95
       65
 96
       61
 40
0.0
 40
0.0
 40
0.0
 40
0.0
 40
1.0
 40
1.0
 40
1.0
 40
2.0
 40
2.0
 40
2.0
 40
3.0
 40
3.0
 40
3.0
 40
4.0
 40
4.0
 40
4.0
 40
5.0
 40
5.0
 40
5.0
 40
6.0
 40
6.0
 40
6.0
 40
7.0
 40
7.0
 40
7.0
 40
8.0
 40
8.0
 40
8.0
 40
9.0
 40
9.0
 40
9.0
 40
10.0
 40
10.0
 40
10.0
 40
11.0
 40
11.0
 40
11.0
 40
12.0
 40
12.0
 40
12.0
 40
13.0
 40
13.0
 40
13.0
 40
14.0
 40
14.0
 40
14.0
 40
15.0
 40
15.0
 40
15.0
 40
16.0
 40
16.0
 40
16.0
 40
17.0
 40
17.0
 40
17.0
 40
18.0
 40
18.0
 40
18.0
 40
19.0
 40
19.0
 40
19.0
 40
20.0
 40
20.0
 40
20.0
 40
20.0
 10
2.252572801378038
 20
-4.716123792860243
 10
2.280586242675781
 20
-4.717599656846788
 10
2.29986826578776
 20
-4.716565450032552
 10
2.310350206163194
 20
-4.71319580078125
 10
2.330748664008246
 20
-4.706375969780816
 10
2.340933057996962
 20
-4.693813747829861
 10
2.340834723578559
 20
-4.675506591796875
 10
2.340724521213108
 20
-4.652968512641059
 10
2.317246331108941
 20
-4.639815436469184
 10
2.270529005262587
 20
-4.63554212782118
 10
2.171195983886719
 20
-4.626440260145399
 10
2.071969774034288
 20
-4.615776909722222
 10
1.972891913519965
 20
-4.603548685709635
 10
1.926240709092882
 20
-4.597738477918837
 10
1.903038024902344
 20
-4.606382581922743
 10
1.903180440266927
 20
-4.62992435031467
 10
1.903299119737413
 20
-4.64902835422092
 10
1.913573371039496
 20
-4.664269341362847
 10
1.934026930067274
 20
-4.675493028428819
 10
1.943959554036458
 20
-4.681062486436631
 10
1.96203358968099
 20
-4.685865614149305
 10
1.988263448079427
 20
-4.68980238172743
 10
2.006915622287326
 20
-4.692887200249566
 10
2.01629638671875
 20
-4.702347649468316
 10
2.01640150282118
 20
-4.718313429090712
 10
2.018197801378038
 20
-5.013158162434896
 10
2.019994099934896
 20
-5.308010525173611
 10
2.02178955078125
 20
-5.602857801649305
 10
2.021842108832465
 20
-5.611579895019531
 10
2.018666585286458
 20
-5.617821587456597
 10
2.012299431694879
 20
-5.621617635091146
 10
2.00592041015625
 20
-5.625426398383246
 10
1.994880676269531
 20
-5.627243889702691
 10
1.979185316297743
 20
-5.627073499891493
 10
1.932634989420573
 20
-5.626530965169271
 10
1.909466213650173
 20
-5.642424689398871
 10
1.909666273328993
 20
-5.674790276421441
 10
1.909817165798611
 20
-5.700274149576822
 10
1.931404113769531
 20
-5.713061014811197
 10
1.974472893608941
 20
-5.713096618652344
 10
2.072179158528646
 20
-5.713239034016927
 10
2.169888814290364
 20
-5.71336195203993
 10
2.267598470052083
 20
-5.713468763563368
 10
2.314136928982205
 20
-5.713505215115017
 10
2.337349785698784
 20
-5.70225355360243
 10
2.337237887912326
 20
-5.679707845052083
 10
2.33714124891493
 20
-5.661862691243489
 10
2.327166239420573
 20
-5.648425632052951
 10
2.30735609266493
 20
-5.639332241482204
 10
2.297420925564236
 20
-5.634566413031684
 10
2.279955546061198
 20
-5.631597730848524
 10
2.254942152235243
 20
-5.630442301432291
 10
2.240377638075087
 20
-5.629381815592447
 10
2.233077155219184
 20
-5.622918023003472
 10
2.233005099826389
 20
-5.611059400770399
 10
2.231382581922743
 20
-5.318428887261285
 10
2.22975836859809
 20
-5.02579583062066
 10
2.228134155273438
 20
-4.733164469401041
 10
2.228065490722656
 20
-4.721310933430989
 10
2.236207750108507
 20
-4.715653313530816
 10
2.252572801378038
 20
-4.716123792860243
 97
        0
 97
        0
 92
        1
 93
        1
 72
     4
 94
        3
 73
     0
 74
     1
 95
      104
 96
      100
 40
0.0
 40
0.0
 40
0.0
 40
0.0
 40
1.0
 40
1.0
 40
1.0
 40
2.0
 40
2.0
 40
2.0
 40
3.0
 40
3.0
 40
3.0
 40
4.0
 40
4.0
 40
4.0
 40
5.0
 40
5.0
 40
5.0
 40
6.0
 40
6.0
 40
6.0
 40
7.0
 40
7.0
 40
7.0
 40
8.0
 40
8.0
 40
8.0
 40
9.0
 40
9.0
 40
9.0
 40
10.0
 40
10.0
 40
10.0
 40
11.0
 40
11.0
 40
11.0
 40
12.0
 40
12.0
 40
12.0
 40
13.0
 40
13.0
 40
13.0
 40
14.0
 40
14.0
 40
14.0
 40
15.0
 40
15.0
 40
15.0
 40
16.0
 40
16.0
 40
16.0
 40
17.0
 40
17.0
 40
17.0
 40
18.0
 40
18.0
 40
18.0
 40
19.0
 40
19.0
 40
19.0
 40
20.0
 40
20.0
 40
20.0
 40
21.0
 40
21.0
 40
21.0
 40
22.0
 40
22.0
 40
22.0
 40
23.0
 40
23.0
 40
23.0
 40
24.0
 40
24.0
 40
24.0
 40
25.0
 40
25.0
 40
25.0
 40
26.0
 40
26.0
 40
26.0
 40
27.0
 40
27.0
 40
27.0
 40
28.0
 40
28.0
 40
28.0
 40
29.0
 40
29.0
 40
29.0
 40
30.0
 40
30.0
 40
30.0
 40
31.0
 40
31.0
 40
31.0
 40
32.0
 40
32.0
 40
32.0
 40
33.0
 40
33.0
 40
33.0
 40
33.0
 10
2.998987833658854
 20
-5.122317843967013
 10
2.998999701605903
 20
-5.144643147786458
 10
3.00458017985026
 20
-5.160401238335504
 10
3.01568603515625
 20
-5.169579399956597
 10
3.024452209472656
 20
-5.177391899956597
 10
3.037871466742621
 20
-5.181337144639756
 10
3.055985344780816
 20
-5.181416829427083
 10
3.080500284830729
 20
-5.181522793240017
 10
3.099195692274305
 20
-5.164728800455729
 10
3.112030029296875
 20
-5.131078084309896
 10
3.124876234266493
 20
-5.09743414984809
 10
3.131319681803385
 20
-5.051014370388454
 10
3.131310356987847
 20
-4.991867913140191
 10
3.131317138671875
 20
-4.898128085666232
 10
3.111122131347656
 20
-4.822889539930555
 10
3.070656670464409
 20
-4.765747918023004
 10
3.021436055501302
 20
-4.697145250108506
 10
2.940773010253906
 20
-4.662184821234809
 10
2.828826056586371
 20
-4.658507453070746
 10
2.753241644965278
 20
-4.656019422743055
 10
2.69028811984592
 20
-4.664942423502604
 10
2.640026516384549
 20
-4.68632083468967
 10
2.486863878038194
 20
-4.75018564860026
 10
2.411194695366753
 20
-4.911748250325521
 10
2.412460327148438
 20
-5.173439025878906
 10
2.413380093044705
 20
-5.366456773546006
 10
2.454881456163194
 20
-5.512637668185763
 10
2.536755879720052
 20
-5.609469095865885
 10
2.602833218044705
 20
-5.687772962782118
 10
2.695168389214409
 20
-5.726234436035156
 10
2.813791910807292
 20
-5.726225958930121
 10
2.871383666992188
 20
-5.726221720377604
 10
2.923701816134983
 20
-5.713879903157552
 10
2.970784505208333
 20
-5.689321729871962
 10
3.01786380343967
 20
-5.664727105034722
 10
3.055375840928819
 20
-5.633029513888888
 10
3.083308749728733
 20
-5.594143337673611
 10
3.111234029134114
 20
-5.555246988932291
 10
3.125239902072483
 20
-5.514206780327691
 10
3.125222947862413
 20
-5.470972696940104
 10
3.125225490993923
 20
-5.419551425509982
 10
3.105963812934028
 20
-5.387260437011719
 10
3.067474365234375
 20
-5.373977661132812
 10
3.038301255967882
 20
-5.363414340549045
 10
2.975606282552083
 20
-5.358033074273004
 10
2.87939453125
 20
-5.357126024034288
 10
2.849046495225694
 20
-5.356830173068576
 10
2.826046413845486
 20
-5.360560946994357
 10
2.810313754611545
 20
-5.368375990125868
 10
2.794592115614149
 20
-5.376200358072916
 10
2.786759270562066
 20
-5.389271206325954
 10
2.786813524034288
 20
-5.407578362358941
 10
2.786834716796875
 20
-5.418563842773438
 10
2.792678833007812
 20
-5.429165310329861
 10
2.804371303982205
 20
-5.439336140950521
 10
2.816047668457031
 20
-5.449536641438802
 10
2.832665337456597
 20
-5.454679701063368
 10
2.854229397243924
 20
-5.45485602484809
 10
2.867925008138021
 20
-5.454734802246094
 10
2.881618075900608
 20
-5.454606797960069
 10
2.895313686794705
 20
-5.45447031656901
 10
2.922103881835938
 20
-5.453744676378038
 10
2.948919508192274
 20
-5.453440348307291
 10
2.975720723470052
 20
-5.453553941514756
 10
3.001354641384549
 20
-5.453670077853732
 10
3.014226277669271
 20
-5.46167246500651
 10
3.014225429958767
 20
-5.477610270182291
 10
3.014241536458333
 20
-5.500823974609375
 10
3.006242540147569
 20
-5.523353576660156
 10
2.990263197157118
 20
-5.545165167914496
 10
2.974264356825087
 20
-5.566992865668403
 10
2.95302497016059
 20
-5.58494144015842
 10
2.926575554741753
 20
-5.598983764648438
 10
2.900103251139323
 20
-5.613055759006076
 10
2.871166653103299
 20
-5.620072258843316
 10
2.83974372016059
 20
-5.619967142740885
 10
2.775711907280816
 20
-5.619770473904079
 10
2.72642347547743
 20
-5.578614128960504
 10
2.691802130805121
 20
-5.495980156792535
 10
2.654229905870225
 20
-5.406461079915364
 10
2.635142856174045
 20
-5.29032474093967
 10
2.634641011555989
 20
-5.148373921712239
 10
2.634156121148003
 20
-5.012404547797309
 10
2.656281365288628
 20
-4.909787495930989
 10
2.701116773817274
 20
-4.84082285563151
 10
2.739540947808159
 20
-4.781659444173177
 10
2.793919033474392
 20
-4.753630744086371
 10
2.864189147949219
 20
-4.755504184299045
 10
2.923325432671441
 20
-4.757074144151475
 10
2.965858459472656
 20
-4.788748847113715
 10
2.99167972140842
 20
-4.851019117567274
 10
3.005772908528646
 20
-4.885821024576822
 10
3.012820773654514
 20
-4.926180521647135
 10
3.012871636284722
 20
-4.97216796875
 10
3.012908935546875
 20
-5.007681952582465
 10
3.010301378038194
 20
-5.038630167643229
 10
3.005059136284722
 20
-5.064990573459201
 10
3.0009765625
 20
-5.085916307237413
 10
2.998977661132812
 20
-5.105010986328125
 10
2.998987833658854
 20
-5.122317843967013
 97
        0
 97
        0
 92
        1
 93
        1
 72
     4
 94
        3
 73
     0
 74
     1
 95
       86
 96
       82
 40
0.0
 40
0.0
 40
0.0
 40
0.0
 40
1.0
 40
1.0
 40
1.0
 40
2.0
 40
2.0
 40
2.0
 40
3.0
 40
3.0
 40
3.0
 40
4.0
 40
4.0
 40
4.0
 40
5.0
 40
5.0
 40
5.0
 40
6.0
 40
6.0
 40
6.0
 40
7.0
 40
7.0
 40
7.0
 40
8.0
 40
8.0
 40
8.0
 40
9.0
 40
9.0
 40
9.0
 40
10.0
 40
10.0
 40
10.0
 40
11.0
 40
11.0
 40
11.0
 40
12.0
 40
12.0
 40
12.0
 40
13.0
 40
13.0
 40
13.0
 40
14.0
 40
14.0
 40
14.0
 40
15.0
 40
15.0
 40
15.0
 40
16.0
 40
16.0
 40
16.0
 40
17.0
 40
17.0
 40
17.0
 40
18.0
 40
18.0
 40
18.0
 40
19.0
 40
19.0
 40
19.0
 40
20.0
 40
20.0
 40
20.0
 40
21.0
 40
21.0
 40
21.0
 40
22.0
 40
22.0
 40
22.0
 40
23.0
 40
23.0
 40
23.0
 40
24.0
 40
24.0
 40
24.0
 40
25.0
 40
25.0
 40
25.0
 40
26.0
 40
26.0
 40
26.0
 40
27.0
 40
27.0
 40
27.0
 40
27.0
 10
3.931677076551649
 20
-4.630103217230903
 10
3.906524658203125
 20
-4.632225884331597
 10
3.889361911349826
 20
-4.641322665744357
 10
3.880230373806423
 20
-4.657449510362413
 10
3.87109629313151
 20
-4.673589918348524
 10
3.866464402940538
 20
-4.69608900282118
 10
3.866326226128472
 20
-4.725045098198785
 10
3.865384419759114
 20
-4.922153049045138
 10
3.864440070258246
 20
-5.119259304470486
 10
3.863495720757378
 20
-5.316366407606337
 10
3.863398234049479
 20
-5.336926778157552
 10
3.851128472222222
 20
-5.347546047634548
 10
3.826628790961371
 20
-5.348161485460069
 10
3.735423617892795
 20
-5.350738525390625
 10
3.644193861219618
 20
-5.35284423828125
 10
3.552946302625868
 20
-5.354482014973958
 10
3.529031541612413
 20
-5.354845682779947
 10
3.51711188422309
 20
-5.34470960828993
 10
3.517177157931858
 20
-5.324080573187934
 10
3.51768324110243
 20
-5.139390733506944
 10
3.518192715115017
 20
-4.954700046115451
 10
3.518697102864583
 20
-4.770009358723958
 10
3.518792894151475
 20
-4.734722561306423
 10
3.509785122341579
 20
-4.707223680284288
 10
3.491688198513454
 20
-4.687522888183594
 10
3.473569234212239
 20
-4.667809380425347
 10
3.445172627766927
 20
-4.65867190890842
 10
3.40649668375651
 20
-4.659777323404947
 10
3.350249396430121
 20
-4.661362542046441
 10
3.317960103352864
 20
-4.6826171875
 10
3.309722052680121
 20
-4.724233839246962
 10
3.305593702528212
 20
-4.74253675672743
 10
3.303503248426649
 20
-4.761475457085504
 10
3.303484598795573
 20
-4.781061808268229
 10
3.303148057725694
 20
-5.056247287326388
 10
3.302812364366319
 20
-5.331433614095052
 10
3.302474975585938
 20
-5.606620788574219
 10
3.302435980902778
 20
-5.636243184407552
 10
3.305312262641059
 20
-5.65924326578776
 10
3.311135186089409
 20
-5.67563713921441
 10
3.316334194607204
 20
-5.688862270779079
 10
3.324476453993055
 20
-5.699786716037326
 10
3.335518731011284
 20
-5.708446078830295
 10
3.34946780734592
 20
-5.720275031195746
 10
3.372416178385417
 20
-5.726229349772135
 10
3.404401143391927
 20
-5.726225958930121
 10
3.447419908311632
 20
-5.726221720377604
 10
3.478301154242621
 20
-5.712523566351996
 10
3.496999952528212
 20
-5.685006883409288
 10
3.509819030761719
 20
-5.666213989257812
 10
3.516305711534288
 20
-5.641663445366754
 10
3.516388787163628
 20
-5.611418830023871
 10
3.516517639160156
 20
-5.564217461480035
 10
3.516648186577691
 20
-5.517020331488715
 10
3.516777886284722
 20
-5.469818962944879
 10
3.516817728678385
 20
-5.454247368706597
 10
3.528780619303385
 20
-5.446327209472656
 10
3.55267333984375
 20
-5.446044921875
 10
3.643863254123264
 20
-5.444756401909722
 10
3.735042148166233
 20
-5.443110995822482
 10
3.826201544867621
 20
-5.441109551323785
 10
3.850676642523871
 20
-5.440626356336805
 10
3.862859937879774
 20
-5.448548210991754
 10
3.862784491644965
 20
-5.464900546603732
 10
3.862511528862847
 20
-5.522113376193576
 10
3.862235175238715
 20
-5.579327053493923
 10
3.8619630601671
 20
-5.636541578504774
 10
3.861825731065538
 20
-5.665028042263454
 10
3.866227043999566
 20
-5.687088860405816
 10
3.875159369574653
 20
-5.702725728352864
 10
3.884095085991753
 20
-5.718368530273438
 10
3.90108659532335
 20
-5.726221720377604
 10
3.926100836859809
 20
-5.726225958930121
 10
3.975523206922743
 20
-5.726256476508246
 10
4.000411987304688
 20
-5.696062723795572
 10
4.000739203559028
 20
-5.635565016004774
 10
4.002394782172309
 20
-5.328426784939236
 10
4.00405036078559
 20
-5.021289401584201
 10
4.005707634819879
 20
-4.71415286593967
 10
4.006050957573785
 20
-4.653656853569879
 10
3.981348673502604
 20
-4.625838385687934
 10
3.931677076551649
 20
-4.630103217230903
 97
        0
 97
        0
 92
        1
 93
        1
 72
     4
 94
        3
 73
     0
 74
     1
 95
       68
 96
       64
 40
0.0
 40
0.0
 40
0.0
 40
0.0
 40
1.0
 40
1.0
 40
1.0
 40
2.0
 40
2.0
 40
2.0
 40
3.0
 40
3.0
 40
3.0
 40
4.0
 40
4.0
 40
4.0
 40
5.0
 40
5.0
 40
5.0
 40
6.0
 40
6.0
 40
6.0
 40
7.0
 40
7.0
 40
7.0
 40
8.0
 40
8.0
 40
8.0
 40
9.0
 40
9.0
 40
9.0
 40
10.0
 40
10.0
 40
10.0
 40
11.0
 40
11.0
 40
11.0
 40
12.0
 40
12.0
 40
12.0
 40
13.0
 40
13.0
 40
13.0
 40
14.0
 40
14.0
 40
14.0
 40
15.0
 40
15.0
 40
15.0
 40
16.0
 40
16.0
 40
16.0
 40
17.0
 40
17.0
 40
17.0
 40
18.0
 40
18.0
 40
18.0
 40
19.0
 40
19.0
 40
19.0
 40
20.0
 40
20.0
 40
20.0
 40
21.0
 40
21.0
 40
21.0
 40
21.0
 10
4.679234822591146
 20
-4.568668789333767
 10
4.665042453342013
 20
-4.562307569715712
 10
4.648130628797743
 20
-4.559733072916666
 10
4.628390842013888
 20
-4.560818990071614
 10
4.60866461859809
 20
-4.561921861436631
 10
4.590652465820312
 20
-4.563713073730469
 10
4.574391682942708
 20
-4.566191779242621
 10
4.452952067057291
 20
-4.584737989637587
 10
4.33123779296875
 20
-4.60091569688585
 10
4.209316677517361
 20
-4.61472913953993
 10
4.19297112358941
 20
-4.616580539279513
 10
4.174876742892795
 20
-4.619564480251736
 10
4.155040317111545
 20
-4.623591105143229
 10
4.135188632541232
 20
-4.627644009060329
 10
4.118076748318142
 20
-4.634410434299045
 10
4.103728400336371
 20
-4.643946329752604
 10
4.089383443196614
 20
-4.653487311469184
 10
4.082154168023004
 20
-4.666993035210504
 10
4.082054138183594
 20
-4.684573703342013
 10
4.081993950737847
 20
-4.695974561903212
 10
4.089369032118055
 20
-4.705742730034722
 10
4.104211595323351
 20
-4.713868035210504
 10
4.119020250108507
 20
-4.721999274359809
 10
4.140732659233941
 20
-4.724734836154513
 10
4.169321695963541
 20
-4.721915351019965
 10
4.201115078396267
 20
-4.718766106499566
 10
4.232897440592447
 20
-4.715472751193576
 10
4.264663696289062
 20
-4.712035285101996
 10
4.278103298611111
 20
-4.710574679904513
 10
4.284725613064236
 20
-4.715660095214844
 10
4.284662034776476
 20
-4.727296617296006
 10
4.28288099500868
 20
-5.017829895019531
 10
4.281105041503906
 20
-5.308364868164062
 10
4.279324001736111
 20
-5.598896450466579
 10
4.27911631266276
 20
-5.634301079644097
 10
4.282461378309462
 20
-5.660469055175781
 10
4.289324442545572
 20
-5.677427503797743
 10
4.29390123155382
 20
-5.689036051432291
 10
4.301099141438802
 20
-5.698990715874566
 10
4.310943603515625
 20
-5.707242329915364
 10
4.324838426378038
 20
-5.71985117594401
 10
4.348038567437066
 20
-5.726225958930121
 10
4.380615234375
 20
-5.726225958930121
 10
4.454473707411024
 20
-5.726361592610677
 10
4.491672939724392
 20
-5.684828864203559
 10
4.492179870605469
 20
-5.601646423339844
 10
4.494033813476562
 20
-5.301776462131076
 10
4.49589114718967
 20
-5.001906500922309
 10
4.497746785481771
 20
-4.702037387424045
 10
4.49782477484809
 20
-4.690112643771701
 10
4.504833645290798
 20
-4.683225843641493
 10
4.518797980414496
 20
-4.681373596191406
 10
4.550200568305121
 20
-4.677193535698785
 10
4.581588745117188
 20
-4.672868516710069
 10
4.612957424587673
 20
-4.668403625488281
 10
4.641406589084201
 20
-4.664364284939236
 10
4.663076612684462
 20
-4.656090630425347
 10
4.677914089626736
 20
-4.643675910101996
 10
4.69278801812066
 20
-4.631254408094618
 10
4.700240241156684
 20
-4.618841383192274
 10
4.700315687391493
 20
-4.606580098470052
 10
4.700426737467447
 20
-4.587677001953125
 10
4.693400065104166
 20
-4.575030856662326
 10
4.679234822591146
 20
-4.568668789333767
 97
        0
 97
        0
 92
        1
 93
        1
 72
     4
 94
        3
 73
     0
 74
     1
 95
       92
 96
       88
 40
0.0
 40
0.0
 40
0.0
 40
0.0
 40
1.0
 40
1.0
 40
1.0
 40
2.0
 40
2.0
 40
2.0
 40
3.0
 40
3.0
 40
3.0
 40
4.0
 40
4.0
 40
4.0
 40
5.0
 40
5.0
 40
5.0
 40
6.0
 40
6.0
 40
6.0
 40
7.0
 40
7.0
 40
7.0
 40
8.0
 40
8.0
 40
8.0
 40
9.0
 40
9.0
 40
9.0
 40
10.0
 40
10.0
 40
10.0
 40
11.0
 40
11.0
 40
11.0
 40
12.0
 40
12.0
 40
12.0
 40
13.0
 40
13.0
 40
13.0
 40
14.0
 40
14.0
 40
14.0
 40
15.0
 40
15.0
 40
15.0
 40
16.0
 40
16.0
 40
16.0
 40
17.0
 40
17.0
 40
17.0
 40
18.0
 40
18.0
 40
18.0
 40
19.0
 40
19.0
 40
19.0
 40
20.0
 40
20.0
 40
20.0
 40
21.0
 40
21.0
 40
21.0
 40
22.0
 40
22.0
 40
22.0
 40
23.0
 40
23.0
 40
23.0
 40
24.0
 40
24.0
 40
24.0
 40
25.0
 40
25.0
 40
25.0
 40
26.0
 40
26.0
 40
26.0
 40
27.0
 40
27.0
 40
27.0
 40
28.0
 40
28.0
 40
28.0
 40
29.0
 40
29.0
 40
29.0
 40
29.0
 10
5.452319675021701
 20
-4.392069498697916
 10
5.441452026367188
 20
-4.383219401041666
 10
5.424849616156684
 20
-4.381658766004774
 10
5.402494642469618
 20
-4.387200249565972
 10
5.373828464084201
 20
-4.394317626953125
 10
5.354012383355035
 20
-4.413356357150607
 10
5.343052334255642
 20
-4.444251166449653
 10
5.338458591037326
 20
-4.457795037163629
 10
5.335812886555989
 20
-4.470846388075087
 10
5.335250006781684
 20
-4.483428107367621
 10
5.325804816351996
 20
-4.641248914930555
 10
5.299385918511285
 20
-4.804367913140191
 10
5.255673726399739
 20
-4.968179490831163
 10
5.235856797960069
 20
-5.042832268608941
 10
5.211700439453125
 20
-5.111136542426215
 10
5.183137681749131
 20
-5.172840542263454
 10
5.176145765516493
 20
-5.187852647569444
 10
5.168576558430989
 20
-5.195665147569444
 10
5.160481770833333
 20
-5.196401807996962
 10
5.141360812717013
 20
-5.198162502712673
 10
5.115466647677951
 20
-5.147057427300347
 10
5.082874721950954
 20
-5.045569525824653
 10
5.056555853949653
 20
-4.964567396375868
 10
5.034177144368489
 20
-4.882526821560329
 10
5.015756395128038
 20
-4.799045986599392
 10
4.997327168782552
 20
-4.715577867296006
 10
4.98563724093967
 20
-4.654262118869357
 10
4.980612013075087
 20
-4.614128960503472
 10
4.974485609266493
 20
-4.559805976019965
 10
4.959641350640191
 20
-4.524916754828559
 10
4.936047871907552
 20
-4.509354485405816
 10
4.921068827311197
 20
-4.499529520670572
 10
4.89913092719184
 20
-4.497464497884114
 10
4.870196024576822
 20
-4.502888149685329
 10
4.838369581434462
 20
-4.508854336208767
 10
4.815305074055989
 20
-4.519650777180989
 10
4.801044040256076
 20
-4.535373263888888
 10
4.786779615614149
 20
-4.551099989149305
 10
4.777715047200521
 20
-4.569547865125868
 10
4.773818969726562
 20
-4.59082285563151
 10
4.769932217068142
 20
-4.61209954155816
 10
4.767928229437934
 20
-4.633820427788629
 10
4.767809549967447
 20
-4.65598890516493
 10
4.767540825737847
 20
-4.702962239583333
 10
4.77962663438585
 20
-4.772496541341146
 10
4.804033915201822
 20
-4.866007486979166
 10
4.828425089518229
 20
-4.959582858615451
 10
4.859557257758246
 20
-5.050827874077691
 10
4.897373623318142
 20
-5.140500386555989
 10
4.925431993272569
 20
-5.207386440700954
 10
4.955333285861545
 20
-5.260526021321614
 10
4.987090216742621
 20
-5.299444410536024
 10
5.006111992730035
 20
-5.322678460015191
 10
5.015569898817274
 20
-5.35270267062717
 10
5.015409681532118
 20
-5.389167785644531
 10
5.015129937065972
 20
-5.45458984375
 10
5.014851040310329
 20
-5.520015292697482
 10
5.01457044813368
 20
-5.585441589355469
 10
5.014474656846788
 20
-5.609063042534722
 10
5.016104804144965
 20
-5.63153076171875
 10
5.019521077473958
 20
-5.652958340115017
 10
5.022917005750868
 20
-5.67437744140625
 10
5.031689114040798
 20
-5.69191657172309
 10
5.045885721842447
 20
-5.705600314670138
 10
5.060066223144531
 20
-5.719297620985243
 10
5.083452860514322
 20
-5.726214090983072
 10
5.116039699978298
 20
-5.726225958930121
 10
5.189898173014322
 20
-5.726419236924913
 10
5.226966857910156
 20
-5.680027431911892
 10
5.22719489203559
 20
-5.586993747287326
 10
5.227386474609375
 20
-5.514744228786892
 10
5.227571275499131
 20
-5.442491319444444
 10
5.227762858072916
 20
-5.37024180094401
 10
5.227870517306857
 20
-5.331346299913194
 10
5.237820095486111
 20
-5.294049580891927
 10
5.257595486111111
 20
-5.257780287000868
 10
5.323903401692708
 20
-5.133344014485677
 10
5.376024034288194
 20
-5.002798292371962
 10
5.414155748155381
 20
-4.868614196777344
 10
5.457489013671875
 20
-4.714601304796006
 10
5.478964063856337
 20
-4.585353427463107
 10
5.478964063856337
 20
-4.48655022515191
 10
5.478971693250868
 20
-4.467359754774305
 10
5.477231343587239
 20
-4.449006822374131
 10
5.473799811469184
 20
-4.431546529134114
 10
5.470355563693576
 20
-4.41407945421007
 10
5.463205973307291
 20
-4.400923834906684
 10
5.452319675021701
 20
-4.392069498697916
 97
        0
 97
        0
 92
        1
 93
        1
 72
     4
 94
        3
 73
     0
 74
     1
 95
      608
 96
      604
 40
0.0
 40
0.0
 40
0.0
 40
0.0
 40
1.0
 40
1.0
 40
1.0
 40
2.0
 40
2.0
 40
2.0
 40
3.0
 40
3.0
 40
3.0
 40
4.0
 40
4.0
 40
4.0
 40
5.0
 40
5.0
 40
5.0
 40
6.0
 40
6.0
 40
6.0
 40
7.0
 40
7.0
 40
7.0
 40
8.0
 40
8.0
 40
8.0
 40
9.0
 40
9.0
 40
9.0
 40
10.0
 40
10.0
 40
10.0
 40
11.0
 40
11.0
 40
11.0
 40
12.0
 40
12.0
 40
12.0
 40
13.0
 40
13.0
 40
13.0
 40
14.0
 40
14.0
 40
14.0
 40
15.0
 40
15.0
 40
15.0
 40
16.0
 40
16.0
 40
16.0
 40
17.0
 40
17.0
 40
17.0
 40
18.0
 40
18.0
 40
18.0
 40
19.0
 40
19.0
 40
19.0
 40
20.0
 40
20.0
 40
20.0
 40
21.0
 40
21.0
 40
21.0
 40
22.0
 40
22.0
 40
22.0
 40
23.0
 40
23.0
 40
23.0
 40
24.0
 40
24.0
 40
24.0
 40
25.0
 40
25.0
 40
25.0
 40
26.0
 40
26.0
 40
26.0
 40
27.0
 40
27.0
 40
27.0
 40
28.0
 40
28.0
 40
28.0
 40
29.0
 40
29.0
 40
29.0
 40
30.0
 40
30.0
 40
30.0
 40
31.0
 40
31.0
 40
31.0
 40
32.0
 40
32.0
 40
32.0
 40
33.0
 40
33.0
 40
33.0
 40
34.0
 40
34.0
 40
34.0
 40
35.0
 40
35.0
 40
35.0
 40
36.0
 40
36.0
 40
36.0
 40
37.0
 40
37.0
 40
37.0
 40
38.0
 40
38.0
 40
38.0
 40
39.0
 40
39.0
 40
39.0
 40
40.0
 40
40.0
 40
40.0
 40
41.0
 40
41.0
 40
41.0
 40
42.0
 40
42.0
 40
42.0
 40
43.0
 40
43.0
 40
43.0
 40
44.0
 40
44.0
 40
44.0
 40
45.0
 40
45.0
 40
45.0
 40
46.0
 40
46.0
 40
46.0
 40
47.0
 40
47.0
 40
47.0
 40
48.0
 40
48.0
 40
48.0
 40
49.0
 40
49.0
 40
49.0
 40
50.0
 40
50.0
 40
50.0
 40
51.0
 40
51.0
 40
51.0
 40
52.0
 40
52.0
 40
52.0
 40
53.0
 40
53.0
 40
53.0
 40
54.0
 40
54.0
 40
54.0
 40
55.0
 40
55.0
 40
55.0
 40
56.0
 40
56.0
 40
56.0
 40
57.0
 40
57.0
 40
57.0
 40
58.0
 40
58.0
 40
58.0
 40
59.0
 40
59.0
 40
59.0
 40
60.0
 40
60.0
 40
60.0
 40
61.0
 40
61.0
 40
61.0
 40
62.0
 40
62.0
 40
62.0
 40
63.0
 40
63.0
 40
63.0
 40
64.0
 40
64.0
 40
64.0
 40
65.0
 40
65.0
 40
65.0
 40
66.0
 40
66.0
 40
66.0
 40
67.0
 40
67.0
 40
67.0
 40
68.0
 40
68.0
 40
68.0
 40
69.0
 40
69.0
 40
69.0
 40
70.0
 40
70.0
 40
70.0
 40
71.0
 40
71.0
 40
71.0
 40
72.0
 40
72.0
 40
72.0
 40
73.0
 40
73.0
 40
73.0
 40
74.0
 40
74.0
 40
74.0
 40
75.0
 40
75.0
 40
75.0
 40
76.0
 40
76.0
 40
76.0
 40
77.0
 40
77.0
 40
77.0
 40
78.0
 40
78.0
 40
78.0
 40
79.0
 40
79.0
 40
79.0
 40
80.0
 40
80.0
 40
80.0
 40
81.0
 40
81.0
 40
81.0
 40
82.0
 40
82.0
 40
82.0
 40
83.0
 40
83.0
 40
83.0
 40
84.0
 40
84.0
 40
84.0
 40
85.0
 40
85.0
 40
85.0
 40
86.0
 40
86.0
 40
86.0
 40
87.0
 40
87.0
 40
87.0
 40
88.0
 40
88.0
 40
88.0
 40
89.0
 40
89.0
 40
89.0
 40
90.0
 40
90.0
 40
90.0
 40
91.0
 40
91.0
 40
91.0
 40
92.0
 40
92.0
 40
92.0
 40
93.0
 40
93.0
 40
93.0
 40
94.0
 40
94.0
 40
94.0
 40
95.0
 40
95.0
 40
95.0
 40
96.0
 40
96.0
 40
96.0
 40
97.0
 40
97.0
 40
97.0
 40
98.0
 40
98.0
 40
98.0
 40
99.0
 40
99.0
 40
99.0
 40
100.0
 40
100.0
 40
100.0
 40
101.0
 40
101.0
 40
101.0
 40
102.0
 40
102.0
 40
102.0
 40
103.0
 40
103.0
 40
103.0
 40
104.0
 40
104.0
 40
104.0
 40
105.0
 40
105.0
 40
105.0
 40
106.0
 40
106.0
 40
106.0
 40
107.0
 40
107.0
 40
107.0
 40
108.0
 40
108.0
 40
108.0
 40
109.0
 40
109.0
 40
109.0
 40
110.0
 40
110.0
 40
110.0
 40
111.0
 40
111.0
 40
111.0
 40
112.0
 40
112.0
 40
112.0
 40
113.0
 40
113.0
 40
113.0
 40
114.0
 40
114.0
 40
114.0
 40
115.0
 40
115.0
 40
115.0
 40
116.0
 40
116.0
 40
116.0
 40
117.0
 40
117.0
 40
117.0
 40
118.0
 40
118.0
 40
118.0
 40
119.0
 40
119.0
 40
119.0
 40
120.0
 40
120.0
 40
120.0
 40
121.0
 40
121.0
 40
121.0
 40
122.0
 40
122.0
 40
122.0
 40
123.0
 40
123.0
 40
123.0
 40
124.0
 40
124.0
 40
124.0
 40
125.0
 40
125.0
 40
125.0
 40
126.0
 40
126.0
 40
126.0
 40
127.0
 40
127.0
 40
127.0
 40
128.0
 40
128.0
 40
128.0
 40
129.0
 40
129.0
 40
129.0
 40
130.0
 40
130.0
 40
130.0
 40
131.0
 40
131.0
 40
131.0
 40
132.0
 40
132.0
 40
132.0
 40
133.0
 40
133.0
 40
133.0
 40
134.0
 40
134.0
 40
134.0
 40
135.0
 40
135.0
 40
135.0
 40
136.0
 40
136.0
 40
136.0
 40
137.0
 40
137.0
 40
137.0
 40
138.0
 40
138.0
 40
138.0
 40
139.0
 40
139.0
 40
139.0
 40
140.0
 40
140.0
 40
140.0
 40
141.0
 40
141.0
 40
141.0
 40
142.0
 40
142.0
 40
142.0
 40
143.0
 40
143.0
 40
143.0
 40
144.0
 40
144.0
 40
144.0
 40
145.0
 40
145.0
 40
145.0
 40
146.0
 40
146.0
 40
146.0
 40
147.0
 40
147.0
 40
147.0
 40
148.0
 40
148.0
 40
148.0
 40
149.0
 40
149.0
 40
149.0
 40
150.0
 40
150.0
 40
150.0
 40
151.0
 40
151.0
 40
151.0
 40
152.0
 40
152.0
 40
152.0
 40
153.0
 40
153.0
 40
153.0
 40
154.0
 40
154.0
 40
154.0
 40
155.0
 40
155.0
 40
155.0
 40
156.0
 40
156.0
 40
156.0
 40
157.0
 40
157.0
 40
157.0
 40
158.0
 40
158.0
 40
158.0
 40
159.0
 40
159.0
 40
159.0
 40
160.0
 40
160.0
 40
160.0
 40
161.0
 40
161.0
 40
161.0
 40
162.0
 40
162.0
 40
162.0
 40
163.0
 40
163.0
 40
163.0
 40
164.0
 40
164.0
 40
164.0
 40
165.0
 40
165.0
 40
165.0
 40
166.0
 40
166.0
 40
166.0
 40
167.0
 40
167.0
 40
167.0
 40
168.0
 40
168.0
 40
168.0
 40
169.0
 40
169.0
 40
169.0
 40
170.0
 40
170.0
 40
170.0
 40
171.0
 40
171.0
 40
171.0
 40
172.0
 40
172.0
 40
172.0
 40
173.0
 40
173.0
 40
173.0
 40
174.0
 40
174.0
 40
174.0
 40
175.0
 40
175.0
 40
175.0
 40
176.0
 40
176.0
 40
176.0
 40
177.0
 40
177.0
 40
177.0
 40
178.0
 40
178.0
 40
178.0
 40
179.0
 40
179.0
 40
179.0
 40
180.0
 40
180.0
 40
180.0
 40
181.0
 40
181.0
 40
181.0
 40
182.0
 40
182.0
 40
182.0
 40
183.0
 40
183.0
 40
183.0
 40
184.0
 40
184.0
 40
184.0
 40
185.0
 40
185.0
 40
185.0
 40
186.0
 40
186.0
 40
186.0
 40
187.0
 40
187.0
 40
187.0
 40
188.0
 40
188.0
 40
188.0
 40
189.0
 40
189.0
 40
189.0
 40
190.0
 40
190.0
 40
190.0
 40
191.0
 40
191.0
 40
191.0
 40
192.0
 40
192.0
 40
192.0
 40
193.0
 40
193.0
 40
193.0
 40
194.0
 40
194.0
 40
194.0
 40
195.0
 40
195.0
 40
195.0
 40
196.0
 40
196.0
 40
196.0
 40
197.0
 40
197.0
 40
197.0
 40
198.0
 40
198.0
 40
198.0
 40
199.0
 40
199.0
 40
199.0
 40
200.0
 40
200.0
 40
200.0
 40
201.0
 40
201.0
 40
201.0
 40
201.0
 10
5.696701049804688
 20
-3.166615804036458
 10
5.693179660373263
 20
-3.181150648328993
 10
5.684827168782552
 20
-3.193167792426215
 10
5.671766493055555
 20
-3.202666388617621
 10
5.642287360297309
 20
-3.218348185221354
 10
5.612808227539062
 20
-3.234018961588542
 10
5.583369784884982
 20
-3.249771965874566
 10
5.553890652126736
 20
-3.265453762478298
 10
5.522814432779947
 20
-3.277910868326823
 10
5.490264044867621
 20
-3.287071228027344
 10
5.424918280707465
 20
-3.311842176649305
 10
5.358221266004774
 20
-3.328547159830729
 10
5.289968702528212
 20
-3.337083604600694
 10
5.221675448947482
 20
-3.345620897081163
 10
5.153463575575087
 20
-3.352489047580295
 10
5.085251702202691
 20
-3.35783216688368
 10
5.081607394748263
 20
-3.380422804090712
 10
5.078782823350694
 20
-3.403104994032118
 10
5.076776292588975
 20
-3.425788031684028
 10
5.07472907172309
 20
-3.448409186469184
 10
5.071904500325521
 20
-3.471081203884548
 10
5.06830088297526
 20
-3.493754069010417
 10
5.054011874728732
 20
-3.568066067165798
 10
5.036528693305121
 20
-3.642327202690972
 10
5.015770806206597
 20
-3.716609530978733
 10
4.995012071397569
 20
-3.790818956163194
 10
4.967785305447048
 20
-3.861712985568576
 10
4.934211730957031
 20
-3.929239061143663
 10
4.90727064344618
 20
-3.983877393934462
 10
4.872305128309462
 20
-4.035936991373697
 10
4.829314337836371
 20
-4.085509406195746
 10
4.786282857259114
 20
-4.134999593098958
 10
4.735389709472656
 20
-4.17219712999132
 10
4.676554361979166
 20
-4.197162204318576
 10
4.617759704589844
 20
-4.222056070963541
 10
4.554378933376736
 20
-4.230684916178385
 10
4.486412896050347
 20
-4.223038567437066
 10
4.376316494411892
 20
-4.211380004882812
 10
4.284725613064236
 20
-4.162739223904079
 10
4.211641947428385
 20
-4.077167087131076
 10
4.176675584581163
 20
-4.034361097547743
 10
4.145886739095052
 20
-3.987614101833767
 10
4.119232177734375
 20
-3.936904907226562
 10
4.092536926269531
 20
-3.886115180121528
 10
4.076426188151041
 20
-3.833164638943142
 10
4.07093980577257
 20
-3.777952406141493
 10
4.053579542371962
 20
-3.657630072699653
 10
4.086231655544704
 20
-3.551177130805121
 10
4.168937683105469
 20
-3.458593580457899
 10
4.208570692274305
 20
-3.41709730360243
 10
4.253690931532118
 20
-3.385427686903212
 10
4.304378933376736
 20
-3.363666110568576
 10
4.354984707302517
 20
-3.341823154025608
 10
4.406409369574653
 20
-3.323254903157552
 10
4.458571539984809
 20
-3.307973225911458
 10
4.513967725965712
 20
-3.292680528428819
 10
4.567644755045572
 20
-3.282290988498264
 10
4.619684007432725
 20
-3.2767333984375
 10
4.671600341796875
 20
-3.271103752983941
 10
4.725195142957899
 20
-3.265575832790798
 10
4.780509948730469
 20
-3.260079277886284
 10
4.788534376356337
 20
-3.169389512803819
 10
4.794921875
 20
-3.082773844401042
 10
4.799630059136285
 20
-3.000150044759114
 10
4.804256863064236
 20
-2.917536417643229
 10
4.80880143907335
 20
-2.843879699707031
 10
4.813223944769965
 20
-2.779045104980469
 10
4.813223944769965
 20
-2.779045104980469
 10
4.816949632432725
 20
-2.565064324273003
 10
4.816949632432725
 20
-2.565064324273003
 10
4.816949632432725
 20
-2.565064324273003
 10
4.833777533637153
 20
-1.602136400010851
 10
4.833777533637153
 20
-1.602136400010851
 10
4.805771721733941
 20
-1.715211656358507
 10
4.776169670952691
 20
-1.836312188042535
 10
4.744725545247396
 20
-1.965437995062934
 10
4.713280571831597
 20
-2.094645182291667
 10
4.678683810763888
 20
-2.216492546929254
 10
4.641056484646267
 20
-2.330919053819444
 10
4.603306240505642
 20
-2.44541761610243
 10
4.562650044759114
 20
-2.54526858859592
 10
4.519044664171006
 20
-2.630399915907118
 10
4.475399441189236
 20
-2.715603298611111
 10
4.429092407226562
 20
-2.769147237141927
 10
4.380042182074653
 20
-2.790939331054688
 10
4.33426751030816
 20
-2.809599134657118
 10
4.293692694769965
 20
-2.813755459255642
 10
4.258193969726562
 20
-2.803406609429253
 10
4.222614712185329
 20
-2.796334160698784
 10
4.188876681857638
 20
-2.777120802137587
 10
4.157063802083333
 20
-2.745697021484375
 10
4.125128004286024
 20
-2.714354621039496
 10
4.096959431966146
 20
-2.656327989366319
 10
4.072536044650607
 20
-2.571523878309462
 10
4.063262939453125
 20
-2.545442369249132
 10
4.057223849826388
 20
-2.51698727077908
 10
4.054562038845486
 20
-2.486084832085503
 10
4.051839192708333
 20
-2.45524427625868
 10
4.049075656467013
 20
-2.426850212944878
 10
4.046332465277778
 20
-2.400800069173177
 10
4.044614156087239
 20
-2.380174424913194
 10
4.043794420030382
 20
-2.360422770182292
 10
4.043384975857204
 20
-2.341091579861111
 10
4.019744873046875
 20
-2.405300564236111
 10
3.988666110568576
 20
-2.471607632107205
 10
3.949746873643663
 20
-2.54005855984158
 10
3.909581502278646
 20
-2.610727098253038
 10
3.861473083496094
 20
-2.671538458930121
 10
3.805482652452257
 20
-2.722400241427951
 10
3.749410841200087
 20
-2.773334079318576
 10
3.682570563422309
 20
-2.796487596299913
 10
3.604818556043837
 20
-2.791860792371962
 10
3.492920769585503
 20
-2.783446417914496
 10
3.414779663085938
 20
-2.726975335015191
 10
3.370540195041233
 20
-2.62237548828125
 10
3.326219346788194
 20
-2.5178468492296
 10
3.304519653320312
 20
-2.345608181423611
 10
3.305440266927083
 20
-2.105577256944444
 10
3.302738613552517
 20
-2.073149787055121
 10
3.302472432454427
 20
-2.041520860460069
 10
3.304683261447483
 20
-2.01070064968533
 10
3.306811862521701
 20
-1.979952494303385
 10
3.308142768012153
 20
-1.951619466145833
 10
3.308592902289496
 20
-1.925630357530382
 10
3.308592902289496
 20
-1.925630357530382
 10
3.310128953721788
 20
-1.83809322781033
 10
3.310128953721788
 20
-1.83809322781033
 10
3.308838738335503
 20
-1.724588182237413
 10
3.299626668294271
 20
-1.646591186523438
 10
3.28257327609592
 20
-1.604112413194444
 10
3.265459696451823
 20
-1.561694675021701
 10
3.242326524522569
 20
-1.541837056477865
 10
3.213092380099826
 20
-1.544519212510851
 10
3.167522854275173
 20
-1.550261603461371
 10
3.12164560953776
 20
-1.627296447753906
 10
3.075276692708333
 20
-1.775623745388455
 10
3.028888278537326
 20
-1.924023946126302
 10
2.980717976888021
 20
-2.12750244140625
 10
2.930828518337674
 20
-2.386060078938802
 10
2.927389356825087
 20
-2.395722283257378
 10
2.92378658718533
 20
-2.41511959499783
 10
2.920081244574653
 20
-2.444251166449653
 10
2.916314019097222
 20
-2.47337171766493
 10
2.912506103515625
 20
-2.504161410861545
 10
2.908739725748698
 20
-2.536476135253906
 10
2.90143076578776
 20
-2.581800672743055
 10
2.894225226508246
 20
-2.623787773980034
 10
2.887080722384983
 20
-2.662581549750434
 10
2.879874335394965
 20
-2.701375325520833
 10
2.87123531765408
 20
-2.735276963975694
 10
2.860999213324653
 20
-2.764285617404514
 10
2.840179443359375
 20
-2.84176042344835
 10
2.811908298068576
 20
-2.880186292860243
 10
2.776287502712674
 20
-2.879561530219184
 10
2.75675794813368
 20
-2.882488674587674
 10
2.738947550455729
 20
-2.880584716796875
 10
2.722856309678819
 20
-2.873768276638455
 10
2.706724378797743
 20
-2.867022196451823
 10
2.690736558702257
 20
-2.855415344238281
 10
2.674830118815104
 20
-2.838873969184028
 10
2.658841451009114
 20
-2.822404649522569
 10
2.64797125922309
 20
-2.796292622884114
 10
2.642136467827691
 20
-2.760467529296875
 10
2.633271959092882
 20
-2.711662292480469
 10
2.626782735188802
 20
-2.617523193359375
 10
2.622749328613281
 20
-2.477978176540799
 10
2.621075100368924
 20
-2.420906914605034
 10
2.619980706108941
 20
-2.361270480685764
 10
2.619218614366319
 20
-2.300125122070312
 10
2.61596934000651
 20
-2.309291415744358
 10
2.61259290907118
 20
-2.318764580620659
 10
2.608951992458767
 20
-2.328872680664062
 10
2.585060967339409
 20
-2.394965277777778
 10
2.553084479437934
 20
-2.463350931803385
 10
2.512939453125
 20
-2.533947414822049
 10
2.472774081759983
 20
-2.604626125759549
 10
2.42466566297743
 20
-2.66542731391059
 10
2.368675231933594
 20
-2.71628909640842
 10
2.312603420681424
 20
-2.767222934299045
 10
2.245763142903646
 20
-2.790386623806424
 10
2.168011135525174
 20
-2.785759819878472
 10
2.093432956271701
 20
-2.781266954210069
 10
2.034781561957465
 20
-2.753486633300781
 10
1.991893344455295
 20
-2.702419704861111
 10
1.949005126953125
 20
-2.651424831814236
 10
1.917908562554253
 20
-2.573048909505208
 10
1.898706224229601
 20
-2.467281765407986
 10
1.886541578504774
 20
-2.40061781141493
 10
1.878552754720052
 20
-2.321015252007378
 10
1.874624464246962
 20
-2.228643629286024
 10
1.86611090766059
 20
-2.261651780870225
 10
1.853809780544705
 20
-2.310136583116319
 10
1.837536282009548
 20
-2.374903361002604
 10
1.813113742404514
 20
-2.471775478786892
 10
1.778905232747396
 20
-2.572567409939236
 10
1.734952290852865
 20
-2.677157931857639
 10
1.690938313802083
 20
-2.781819661458333
 10
1.639083862304688
 20
-2.874934726291233
 10
1.579285515679253
 20
-2.956596374511719
 10
1.51946767171224
 20
-3.038247850206163
 10
1.452361212836371
 20
-3.076755099826389
 10
1.378028021918403
 20
-3.072272406684028
 10
1.327033148871528
 20
-3.068105909559462
 10
1.281811184353298
 20
-3.049456278483073
 10
1.242485046386719
 20
-3.016394721137153
 10
1.203158908420139
 20
-2.983250935872396
 10
1.172287835015191
 20
-2.923494127061632
 10
1.149850633409288
 20
-2.837215847439236
 10
1.127413431803385
 20
-2.750927395290799
 10
1.111936781141493
 20
-2.631464640299479
 10
1.103338453504774
 20
-2.478837754991319
 10
1.094761318630642
 20
-2.326282925075955
 10
1.095989651150174
 20
-2.125260247124566
 10
1.106798807779948
 20
-1.875669691297743
 10
1.106798807779948
 20
-1.875669691297743
 10
1.120248582628038
 20
-1.38456302218967
 10
1.120248582628038
 20
-1.38456302218967
 10
1.122909545898438
 20
-1.232212490505642
 10
1.125345865885417
 20
-1.092012193467882
 10
1.127577039930556
 20
-0.9638900756835938
 10
1.129829406738281
 20
-0.8358493381076388
 10
1.135069953070746
 20
-0.718351576063368
 10
1.143463134765625
 20
-0.611479017469618
 10
1.029947916666667
 20
-0.6127692328559028
 10
0.9156333075629339
 20
-0.6123699612087673
 10
0.8005210028754339
 20
-0.6103532579210069
 10
0.685469733344184
 20
-0.6083475748697916
 10
0.5695181952582465
 20
-0.6063206990559895
 10
0.4527884589301215
 20
-0.6042836507161458
 10
0.4527884589301215
 20
-0.6042836507161458
 10
0.3944439358181424
 20
-0.603269788953993
 10
0.3944439358181424
 20
-0.603269788953993
 10
0.3815265231662326
 20
-0.6030451456705729
 10
0.3718227810329861
 20
-0.6012742784288194
 10
0.3653335571289062
 20
-0.5978961520724826
 10
0.3428141276041666
 20
-0.5910381740993923
 10
0.3227115207248264
 20
-0.5801272922092013
 10
0.3051054212782118
 20
-0.5652236938476562
 10
0.287581549750434
 20
-0.550320095486111
 10
0.2888098822699652
 20
-0.5235841539171007
 10
0.3089336819118924
 20
-0.4850251939561632
 10
0.3224453396267361
 20
-0.4560682508680555
 10
0.3405626085069444
 20
-0.4410315619574652
 10
0.3632447984483507
 20
-0.4397523668077257
 10
0.3859888712565104
 20
-0.4385545518663194
 10
0.4126637776692708
 20
-0.4430482652452257
 10
0.4432695176866319
 20
-0.4533148871527777
 10
0.4739566379123263
 20
-0.4635815090603299
 10
0.5085330539279513
 20
-0.4763454861111111
 10
0.5472039116753472
 20
-0.4916178385416666
 10
0.5858544243706597
 20
-0.506879170735677
 10
0.6294598049587673
 20
-0.5166134304470485
 10
0.6780387030707465
 20
-0.5206561618381076
 10
0.6780387030707465
 20
-0.5206561618381076
 10
1.149768405490451
 20
-0.5288865831163194
 10
1.149768405490451
 20
-0.5288865831163194
 10
1.154046800401476
 20
-0.4673894246419271
 10
1.159942626953125
 20
-0.4074478149414062
 10
1.167497422960069
 20
-0.3492058648003472
 10
1.171366373697917
 20
-0.3103502061631944
 10
1.17840830485026
 20
-0.2732255723741319
 10
1.188603719075521
 20
-0.2376759847005208
 10
1.195441351996528
 20
-0.2118818495008681
 10
1.206208970811632
 20
-0.186905754937066
 10
1.220989651150173
 20
-0.162841796875
 10
1.235709296332465
 20
-0.1387769911024306
 10
1.255853441026476
 20
-0.1253679063585069
 10
1.281442430284288
 20
-0.1225433349609375
 10
1.34531487358941
 20
-0.1172002156575521
 10
1.391191270616319
 20
-0.1414896647135417
 10
1.418971591525608
 20
-0.1954837375217014
 10
1.446751912434896
 20
-0.2494879828559028
 10
1.45751953125
 20
-0.3608033921983507
 10
1.451378716362847
 20
-0.5292850070529513
 10
1.548700968424479
 20
-0.5277913411458333
 10
1.646002875434028
 20
-0.5278218587239583
 10
1.74326409233941
 20
-0.5295206705729166
 10
1.840525309244792
 20
-0.5312203301323785
 10
1.937786526150173
 20
-0.5329089694552951
 10
2.035047743055555
 20
-0.5346077813042535
 10
2.19063229031033
 20
-0.5405960083007812
 10
2.346934000651042
 20
-0.5473514133029513
 10
2.504157172309028
 20
-0.5549570719401041
 10
2.661277770996094
 20
-0.5625720553927951
 10
2.817866007486979
 20
-0.5580071343315972
 10
2.973839653862847
 20
-0.5412716335720485
 10
3.02577633327908
 20
-0.5357131958007812
 10
3.060517205132378
 20
-0.5436155531141493
 10
3.078019883897569
 20
-0.5649778578016492
 10
3.095420837402344
 20
-0.586411370171441
 10
3.102320353190104
 20
-0.6091868082682291
 10
3.098716735839844
 20
-0.6334457397460938
 10
3.095011393229167
 20
-0.6577046712239583
 10
3.085738288031684
 20
-0.6794348822699653
 10
3.070814344618055
 20
-0.6986270480685763
 10
3.055890401204427
 20
-0.7178302341037326
 10
3.040413750542534
 20
-0.7208294338650173
 10
3.024445427788628
 20
-0.7075534396701388
 10
3.008355034722222
 20
-0.6975428263346354
 10
2.983440823025174
 20
-0.688218010796441
 10
2.949540032280816
 20
-0.679486592610677
 10
2.915638393825955
 20
-0.67083740234375
 10
2.879260592990451
 20
-0.6645007663302951
 10
2.840404934353299
 20
-0.6605606079101562
 10
2.801549275716146
 20
-0.6566908094618055
 10
2.764311896430121
 20
-0.65277099609375
 10
2.728711446126302
 20
-0.648880852593316
 10
2.693070305718316
 20
-0.6450636121961805
 10
2.668769836425781
 20
-0.6429646809895833
 10
2.655852423773871
 20
-0.6427400377061632
 10
2.551999409993489
 20
-0.6441930135091145
 10
2.448269314236111
 20
-0.6423814561631944
 10
2.344600253634983
 20
-0.6373045179578992
 10
2.240870157877604
 20
-0.6323089599609375
 10
2.137201097276475
 20
-0.6272218492296007
 10
2.03353288438585
 20
-0.6221449110243055
 10
1.936271667480469
 20
-0.6204562717013888
 10
1.838990105523003
 20
-0.6187574598524305
 10
1.741728888617621
 20
-0.6170578002929688
 10
1.64446767171224
 20
-0.6153589884440104
 10
1.547165764702691
 20
-0.6153276231553819
 10
1.449842664930556
 20
-0.6168221367730035
 10
1.444664001464844
 20
-0.7270321316189235
 10
1.441879272460938
 20
-0.8866806030273438
 10
1.441490173339844
 20
-1.095860799153646
 10
1.4410400390625
 20
-1.305030822753906
 10
1.433895534939236
 20
-1.531120300292969
 10
1.419913397894965
 20
-1.77410888671875
 10
1.419237772623698
 20
-1.813015407986111
 10
1.417518615722656
 20
-1.863304138183594
 10
1.414856804741753
 20
-1.924831814236111
 10
1.412113613552517
 20
-1.986431545681423
 10
1.409329732259115
 20
-2.054489983452691
 10
1.406422932942708
 20
-2.129007127549913
 10
1.403454250759548
 20
-2.203595479329427
 10
1.400526258680556
 20
-2.279709710015191
 10
1.397578769259983
 20
-2.357491387261284
 10
1.394549051920573
 20
-2.435273912217882
 10
1.392522176106771
 20
-2.507447136773003
 10
1.391376071506076
 20
-2.573867797851562
 10
1.390208774142795
 20
-2.640359666612413
 10
1.389962938096788
 20
-2.69789547390408
 10
1.390781826443142
 20
-2.746556599934896
 10
1.391539679633246
 20
-2.795217725965712
 10
1.393402099609375
 20
-2.827706231011284
 10
1.396391126844618
 20
-2.843950907389323
 10
1.399113972981771
 20
-2.869990878634983
 10
1.41100819905599
 20
-2.885549757215712
 10
1.432053460015191
 20
-2.890780131022135
 10
1.453016493055556
 20
-2.896010504828559
 10
1.480079650878906
 20
-2.877862718370225
 10
1.51326412624783
 20
-2.836253696017795
 10
1.54636722140842
 20
-2.794726901584201
 10
1.584915161132812
 20
-2.724856906467014
 10
1.628827412923177
 20
-2.626653883192274
 10
1.672637091742621
 20
-2.528533087836371
 10
1.720560709635417
 20
-2.387452019585503
 10
1.772416008843316
 20
-2.203503078884549
 10
1.782774183485243
 20
-2.168026394314236
 10
1.793030632866753
 20
-2.137420654296875
 10
1.80320570203993
 20
-2.111606174045139
 10
1.810063680013021
 20
-2.089076571994358
 10
1.818559434678819
 20
-2.068922254774305
 10
1.828590393066406
 20
-2.051234775119358
 10
1.838621351453993
 20
-2.033629523383246
 10
1.850106133355035
 20
-2.024857415093316
 10
1.863105773925781
 20
-2.025082058376736
 10
1.866497463650173
 20
-2.025822957356771
 10
1.869207594129774
 20
-2.027299669053819
 10
1.872194078233507
 20
-2.028477986653646
 10
1.874068366156684
 20
-1.862715827094184
 10
1.881602817111545
 20
-1.661463419596354
 10
1.89504157172309
 20
-1.42372555202908
 10
1.895757887098524
 20
-1.381635877821181
 10
1.90130615234375
 20
-1.342810736762153
 10
1.911664326985677
 20
-1.307261996799045
 10
1.918624877929688
 20
-1.278202480740017
 10
1.929659525553385
 20
-1.251630147298177
 10
1.944664849175347
 20
-1.227575514051649
 10
1.959691365559896
 20
-1.203511555989583
 10
1.98335689968533
 20
-1.193439059787326
 10
2.015742831759983
 20
-1.197196112738715
 10
2.022150675455729
 20
-1.200573391384548
 10
2.028578864203559
 20
-1.202283223470052
 10
2.035108778211805
 20
-1.20239512125651
 10
2.041516621907552
 20
-1.205773247612847
 10
2.047186957465278
 20
-1.207472907172309
 10
2.052039252387153
 20
-1.207554287380642
 10
2.056911044650608
 20
-1.207636515299479
 10
2.062479654947917
 20
-1.211003621419271
 10
2.068887498643663
 20
-1.217575073242188
 10
2.094518025716146
 20
-1.234290228949653
 10
2.124632093641493
 20
-1.272900051540798
 10
2.159311082628038
 20
-1.333475748697917
 10
2.193887498643663
 20
-1.394133673773871
 10
2.208320617675781
 20
-1.495703803168403
 10
2.202629089355469
 20
-1.638279385036892
 10
2.197838677300347
 20
-1.725764804416233
 10
2.19380611843533
 20
-1.81736585828993
 10
2.190530565049913
 20
-1.912928263346354
 10
2.187193128797743
 20
-2.008572048611111
 10
2.183180914984809
 20
-2.099333021375868
 10
2.178493075900608
 20
-2.185139973958333
 10
2.173723008897569
 20
-2.271029154459635
 10
2.170816209581163
 20
-2.345546298556858
 10
2.169731140136719
 20
-2.408773634168837
 10
2.168625725640191
 20
-2.471989949544271
 10
2.169485304090712
 20
-2.513363308376736
 10
2.172412448459201
 20
-2.532873365614149
 10
2.171962314181858
 20
-2.558851453993055
 10
2.181236267089844
 20
-2.584943135579427
 10
2.20023430718316
 20
-2.611187405056424
 10
2.219231499565972
 20
-2.637513902452257
 10
2.245005289713542
 20
-2.646019829644097
 10
2.277637057834201
 20
-2.636869642469618
 10
2.310167100694444
 20
-2.627708435058594
 10
2.348960876464844
 20
-2.591135660807292
 10
2.393875969780816
 20
-2.527008056640625
 10
2.438770718044705
 20
-2.46295166015625
 10
2.488455030653212
 20
-2.355199178059896
 10
2.543033175998264
 20
-2.203667534722222
 10
2.550095452202691
 20
-2.168148464626736
 10
2.558775160047743
 20
-2.137513054741754
 10
2.56895022922092
 20
-2.111687554253472
 10
2.57580820719401
 20
-2.089158799913194
 10
2.585060967339409
 20
-2.069024827745225
 10
2.596771240234375
 20
-2.051367865668403
 10
2.604438781738281
 20
-2.039772033691406
 10
2.611664666069878
 20
-2.032389322916667
 10
2.61851331922743
 20
-2.028493245442708
 10
2.618526034884983
 20
-2.026646084255642
 10
2.618520100911458
 20
-2.024895562065972
 10
2.61853281656901
 20
-2.023045010036892
 10
2.619781494140625
 20
-1.859342787000868
 10
2.624162462022569
 20
-1.700472513834635
 10
2.63171641031901
 20
-1.546535068088108
 10
2.639270358615451
 20
-1.392659505208333
 10
2.650182088216146
 20
-1.276861402723524
 10
2.664532131618924
 20
-1.199273851182726
 10
2.668279012044271
 20
-1.166959126790365
 10
2.676918029785156
 20
-1.13791995578342
 10
2.690367804633246
 20
-1.112156338161892
 10
2.700501335991753
 20
-1.089688618977865
 10
2.713029649522569
 20
-1.068776448567708
 10
2.727953592936198
 20
-1.049574110243056
 10
2.742877536349826
 20
-1.030371771918403
 10
2.763267517089844
 20
-1.021006266276042
 10
2.789246453179253
 20
-1.021456400553385
 10
2.854080200195312
 20
-1.022592332628038
 10
2.899854871961805
 20
-1.046953837076823
 10
2.926631503634983
 20
-1.094396803114149
 10
2.953306410047743
 20
-1.141911824544271
 10
2.962416754828559
 20
-1.225610521104601
 10
2.953859117296007
 20
-1.34540049235026
 10
2.953859117296007
 20
-1.34540049235026
 10
2.946571350097656
 20
-1.763648139105903
 10
2.946571350097656
 20
-1.763648139105903
 10
2.984586927625868
 20
-1.64109378390842
 10
3.028888278537326
 20
-1.536443074544271
 10
3.079433017306858
 20
-1.449755350748698
 10
3.129895528157552
 20
-1.363067626953125
 10
3.189509073893229
 20
-1.318726433648003
 10
3.258191426595052
 20
-1.316658020019531
 10
3.333323160807292
 20
-1.314785427517361
 10
3.399855719672309
 20
-1.335400051540798
 10
3.457934061686198
 20
-1.378523932562934
 10
3.50618659125434
 20
-1.418290032280816
 10
3.548357645670573
 20
-1.484690348307292
 10
3.584286159939236
 20
-1.577754550509983
 10
3.620193481445312
 20
-1.670808580186632
 10
3.633294847276475
 20
-1.809678819444444
 10
3.623591105143229
 20
-1.994374593098958
 10
3.619661119249132
 20
-2.033220079210069
 10
3.617408752441406
 20
-2.070509168836805
 10
3.616774664984809
 20
-2.106150309244792
 10
3.616160074869792
 20
-2.141863505045573
 10
3.615627712673611
 20
-2.1726320054796
 10
3.615177578396267
 20
-2.198549058702257
 10
3.610427856445312
 20
-2.282842000325521
 10
3.607562594943576
 20
-2.355762057834201
 10
3.606497870551215
 20
-2.417310078938802
 10
3.605412801106771
 20
-2.478940327962239
 10
3.606292724609375
 20
-2.519464280870225
 10
3.609220716688368
 20
-2.538973490397135
 10
3.608769734700521
 20
-2.564962599012587
 10
3.618043687608507
 20
-2.591043260362413
 10
3.637041727701823
 20
-2.617298550075955
 10
3.656059265136719
 20
-2.643625047471788
 10
3.681812710232204
 20
-2.652130974663628
 10
3.714445326063368
 20
-2.642969767252604
 10
3.746974521213108
 20
-2.63380855984158
 10
3.785768296983507
 20
-2.597245958116319
 10
3.830683390299479
 20
-2.533108181423611
 10
3.875578138563368
 20
-2.469052632649739
 10
3.925262451171875
 20
-2.361299302842882
 10
3.979840596516927
 20
-2.20977783203125
 10
3.986902872721354
 20
-2.174249437120225
 10
3.995583428276909
 20
-2.143613179524739
 10
4.005757649739583
 20
-2.117798699273004
 10
4.012615627712673
 20
-2.095269097222222
 10
4.021868387858072
 20
-2.075135972764757
 10
4.033578660753038
 20
-2.057479010687934
 10
4.039321051703559
 20
-2.048795064290364
 10
4.044834560818142
 20
-2.042296515570746
 10
4.050122578938802
 20
-2.037923177083333
 10
4.052569071451822
 20
-1.966686672634548
 10
4.055405510796441
 20
-1.896267361111111
 10
4.05877939860026
 20
-1.826977199978298
 10
4.066353691948785
 20
-1.671443515353733
 10
4.077285766601562
 20
-1.554877387152778
 10
4.091636657714844
 20
-1.477289835611979
 10
4.095403035481771
 20
-1.444975111219618
 10
4.104042053222656
 20
-1.41426764594184
 10
4.1175537109375
 20
-1.385310702853733
 10
4.127666897243923
 20
-1.362842983669705
 10
4.140195210774739
 20
-1.341930813259548
 10
4.155139499240451
 20
-1.322728474934896
 10
4.170083787706163
 20
-1.303526136610243
 10
4.188835991753472
 20
-1.294129265679253
 10
4.211559719509548
 20
-1.294528537326389
 10
4.279648674858941
 20
-1.295716179741753
 10
4.327020433213976
 20
-1.320865207248264
 10
4.353756374782986
 20
-1.369977315266927
 10
4.38041008843316
 20
-1.419088575575087
 10
4.389540778266059
 20
-1.501948038736979
 10
4.381065368652344
 20
-1.618554857042101
 10
4.380533006456163
 20
-1.647737291124132
 10
4.379755655924479
 20
-1.693174574110243
 10
4.378690931532118
 20
-1.754732767740885
 10
4.37758551703559
 20
-1.816352844238281
 10
4.376357184516059
 20
-1.886877271864149
 10
4.374965243869357
 20
-1.966277228461371
 10
4.373613993326822
 20
-2.045768737792969
 10
4.372099134657118
 20
-2.131627400716146
 10
4.370502048068576
 20
-2.224036322699653
 10
4.368864271375868
 20
-2.316435919867621
 10
4.365588717990451
 20
-2.408046298556858
 10
4.36083984375
 20
-2.498725891113281
 10
4.360430399576822
 20
-2.521439446343316
 10
4.365097893608941
 20
-2.532852172851562
 10
4.374801635742188
 20
-2.533016628689236
 10
4.394208272298177
 20
-2.536629570855034
 10
4.421722412109375
 20
-2.493321736653646
 10
4.457343207465278
 20
-2.403112623426649
 10
4.49296400282118
 20
-2.312976413302951
 10
4.530509101019965
 20
-2.205775790744358
 10
4.569978502061631
 20
-2.081574334038629
 10
4.609407212999131
 20
-1.957454257541233
 10
4.64740244547526
 20
-1.828358968098958
 10
4.683760748969184
 20
-1.694381713867188
 10
4.720158894856771
 20
-1.560476515028212
 10
4.748819139268663
 20
-1.45151604546441
 10
4.769741482204861
 20
-1.367510477701823
 10
4.790786743164062
 20
-1.277117411295573
 10
4.81539323594835
 20
-1.213470458984375
 10
4.843603346082899
 20
-1.176641676161024
 10
4.871772766113281
 20
-1.139884948730469
 10
4.898181491427951
 20
-1.117622375488281
 10
4.922624376085069
 20
-1.109914143880208
 10
4.947067260742188
 20
-1.102288987901476
 10
4.968112521701388
 20
-1.103414747450087
 10
4.985800001356337
 20
-1.113445705837673
 10
5.003406100802951
 20
-1.123487684461806
 10
5.012249416775173
 20
-1.130181206597222
 10
5.012208726671006
 20
-1.133365207248264
 10
5.044226752387153
 20
-1.153386433919271
 10
5.077595180935329
 20
-1.192886352539062
 10
5.112315707736545
 20
-1.251875983344184
 10
5.146912468804254
 20
-1.31085459391276
 10
5.161406622992621
 20
-1.408402336968316
 10
5.155838012695312
 20
-1.544519212510851
 10
5.155838012695312
 20
-1.544519212510851
 10
5.147527058919271
 20
-2.021110534667969
 10
5.147527058919271
 20
-2.021110534667969
 10
5.146380106608072
 20
-2.086006164550781
 10
5.145193311903212
 20
-2.154095119900174
 10
5.14396497938368
 20
-2.225377400716146
 10
5.142695109049479
 20
-2.296721564398871
 10
5.140647888183594
 20
-2.36639658610026
 10
5.137864006890191
 20
-2.434455023871528
 10
5.134997897677951
 20
-2.502503289116753
 10
5.132295396592881
 20
-2.567377726236979
 10
5.129593743218316
 20
-2.628895229763455
 10
5.126850552029079
 20
-2.690494961208767
 10
5.125130547417535
 20
-2.745574103461371
 10
5.12431165907118
 20
-2.794204711914062
 10
5.121650695800781
 20
-2.946565416124132
 10
5.11415778266059
 20
-3.097237481011284
 10
5.101793077256944
 20
-3.246230231391059
 10
5.192646450466579
 20
-3.241286383734809
 10
5.28128899468316
 20
-3.229075113932292
 10
5.36759779188368
 20
-3.209524366590712
 10
5.453824361165364
 20
-3.189892239040798
 10
5.537963019476996
 20
-3.154875013563368
 10
5.619932386610243
 20
-3.104474385579427
 10
5.633033752441406
 20
-3.094964769151475
 10
5.646053738064236
 20
-3.092764112684462
 10
5.658992343478732
 20
-3.097851223415799
 10
5.671807183159722
 20
-3.102948506673177
 10
5.682206895616319
 20
-3.112018161349826
 10
5.690109252929688
 20
-3.125150892469618
 10
5.697970072428385
 20
-3.138211568196614
 10
5.700140211317274
 20
-3.152080959743923
 10
5.696701049804688
 20
-3.166615804036458
 97
        0
 97
        0
 92
        1
 93
        1
 72
     4
 94
        3
 73
     0
 74
     1
 95
       41
 96
       37
 40
0.0
 40
0.0
 40
0.0
 40
0.0
 40
1.0
 40
1.0
 40
1.0
 40
2.0
 40
2.0
 40
2.0
 40
3.0
 40
3.0
 40
3.0
 40
4.0
 40
4.0
 40
4.0
 40
5.0
 40
5.0
 40
5.0
 40
6.0
 40
6.0
 40
6.0
 40
7.0
 40
7.0
 40
7.0
 40
8.0
 40
8.0
 40
8.0
 40
9.0
 40
9.0
 40
9.0
 40
10.0
 40
10.0
 40
10.0
 40
11.0
 40
11.0
 40
11.0
 40
12.0
 40
12.0
 40
12.0
 40
12.0
 10
4.768308851453993
 20
-3.400945875379774
 10
4.69665781656901
 20
-3.415890163845486
 10
4.622509426540798
 20
-3.43648444281684
 10
4.545862833658854
 20
-3.462739732530382
 10
4.469175550672743
 20
-3.488922966851128
 10
4.402929517957899
 20
-3.522649976942274
 10
4.347082349989149
 20
-3.563859727647569
 10
4.291194491916232
 20
-3.604997422960069
 10
4.250619676378038
 20
-3.655368381076389
 10
4.225275675455729
 20
-3.714971754286024
 10
4.199890984429254
 20
-3.774503072102864
 10
4.204312642415364
 20
-3.843523661295573
 10
4.238705105251736
 20
-3.92196061876085
 10
4.245051066080729
 20
-3.928532070583767
 10
4.251315646701388
 20
-3.939208136664496
 10
4.257580227322048
 20
-3.953917609320746
 10
4.263803270128038
 20
-3.968616061740451
 10
4.27485826280382
 20
-3.984163920084635
 10
4.290826585557726
 20
-4.000705295138888
 10
4.316292656792535
 20
-4.027073330349392
 10
4.342620001898871
 20
-4.050257364908854
 10
4.369888305664062
 20
-4.070196363661024
 10
4.39703369140625
 20
-4.090126037597656
 10
4.428437127007379
 20
-4.103596157497829
 10
4.464017232259114
 20
-4.110750834147135
 10
4.506024678548177
 20
-4.117947048611111
 10
4.543611314561631
 20
-4.10241953531901
 10
4.576733907063802
 20
-4.064075893825954
 10
4.609775967068142
 20
-4.025732252332899
 10
4.638313293457031
 20
-3.972720675998264
 10
4.662223815917969
 20
-3.905030992296007
 10
4.686052958170572
 20
-3.83734130859375
 10
4.706852383083767
 20
-3.759865654839409
 10
4.724662780761719
 20
-3.672615051269531
 10
4.742350260416666
 20
-3.585355122884114
 10
4.756926642523871
 20
-3.494777255588108
 10
4.768308851453993
 20
-3.400945875379774
 97
        0
 97
        0
 92
        1
 93
        1
 72
     4
 94
        3
 73
     0
 74
     1
 95
       35
 96
       31
 40
0.0
 40
0.0
 40
0.0
 40
0.0
 40
1.0
 40
1.0
 40
1.0
 40
2.0
 40
2.0
 40
2.0
 40
3.0
 40
3.0
 40
3.0
 40
4.0
 40
4.0
 40
4.0
 40
5.0
 40
5.0
 40
5.0
 40
6.0
 40
6.0
 40
6.0
 40
7.0
 40
7.0
 40
7.0
 40
8.0
 40
8.0
 40
8.0
 40
9.0
 40
9.0
 40
9.0
 40
10.0
 40
10.0
 40
10.0
 40
10.0
 10
5.144930521647135
 20
-4.006779140896267
 10
5.108005947536892
 20
-3.964150322808159
 10
5.024395412868923
 20
-3.966309441460503
 10
4.968461778428819
 20
-4.051720513237847
 10
4.888001335991754
 20
-4.174581739637587
 10
4.92065684000651
 20
-4.310532463921441
 10
4.9422607421875
 20
-4.400494045681423
 10
4.947755601671006
 20
-4.42333984375
 10
4.952494303385416
 20
-4.44309319390191
 10
4.954871283637153
 20
-4.459665934244791
 10
4.955210367838541
 20
-4.462131924099392
 10
4.956465827094184
 20
-4.464077419704861
 10
4.95823499891493
 20
-4.465237087673611
 10
4.959715101453993
 20
-4.466205173068576
 10
4.961573282877604
 20
-4.466621398925781
 10
4.963573879665798
 20
-4.466328091091579
 10
4.963573879665798
 20
-4.466328091091579
 10
4.985171847873263
 20
-4.463307698567708
 10
4.985171847873263
 20
-4.463307698567708
 10
5.090268452962239
 20
-4.448845757378472
 10
5.285895453559028
 20
-4.421939425998263
 10
5.385807461208767
 20
-4.271777682834201
 10
5.416852315266927
 20
-4.225120544433594
 10
5.394781324598524
 20
-4.176884121365017
 10
5.361151801215278
 20
-4.151782565646701
 10
5.297129313151041
 20
-4.104847378200954
 10
5.24080573187934
 20
-4.128761291503906
 10
5.175468444824219
 20
-4.172240363226996
 10
5.194478352864583
 20
-4.106956481933594
 10
5.184396531846788
 20
-4.052644517686632
 10
5.144930521647135
 20
-4.006779140896267
 97
        0
 97
        0
 75
     2
 76
     1
 98
        0
  0
ENDSEC
  0
SECTION
  2
OBJECTS
  0
DICTIONARY
  5
C
330
0
100
AcDbDictionary
281
     1
  3
ACAD_GROUP
350
D
  3
ACAD_LAYOUT
350
1A
  3
ACAD_MATERIAL
350
3B
  3
ACAD_MLEADERSTYLE
350
5B
  3
ACAD_MLINESTYLE
350
17
  3
ACAD_PLOTSETTINGS
350
19
  3
ACAD_PLOTSTYLENAME
350
E
  3
ACAD_TABLESTYLE
350
5A
  3
ACAD_VISUALSTYLE
350
2A
  0
SUN
  5
3F
330
29
100
AcDbSun
 90
        1
290
     0
 63
     7
421
 16777215
 40
1.0
291
     1
 91
  2455826
 92
 54000000
292
     0
 70
     2
 71
   256
280
     1
  0
DICTIONARY
  5
D
102
{ACAD_REACTORS
330
C
102
}
330
C
100
AcDbDictionary
281
     1
  0
DICTIONARY
  5
1A
102
{ACAD_REACTORS
330
C
102
}
330
C
100
AcDbDictionary
281
     1
  3
Layout1
350
1E
  3
Layout2
350
26
  3
Model
350
22
  0
DICTIONARY
  5
3B
102
{ACAD_REACTORS
330
C
102
}
330
C
100
AcDbDictionary
281
     1
  3
ByBlock
350
3D
  3
ByLayer
350
3C
  3
Global
350
3E
  0
DICTIONARY
  5
5B
102
{ACAD_REACTORS
330
C
102
}
330
C
100
AcDbDictionary
281
     1
  0
DICTIONARY
  5
17
102
{ACAD_REACTORS
330
C
102
}
330
C
100
AcDbDictionary
281
     1
  3
Standard
350
18
  0
DICTIONARY
  5
19
102
{ACAD_REACTORS
330
C
102
}
330
C
100
AcDbDictionary
281
     1
  0
ACDBDICTIONARYWDFLT
  5
E
102
{ACAD_REACTORS
330
C
102
}
330
C
100
AcDbDictionary
281
     1
  3
Normal
350
F
100
AcDbDictionaryWithDefault
340
F
  0
DICTIONARY
  5
5A
102
{ACAD_REACTORS
330
C
102
}
330
C
100
AcDbDictionary
281
     1
  0
DICTIONARY
  5
2A
102
{ACAD_REACTORS
330
C
102
}
330
C
100
AcDbDictionary
281
     1
  3
2dWireframe
350
2F
  3
3D Hidden
350
31
  3
3dWireframe
350
30
  3
Basic
350
32
  3
Brighten
350
36
  3
ColorChange
350
3A
  3
Conceptual
350
34
  3
Dim
350
35
  3
Facepattern
350
39
  3
Flat
350
2B
  3
FlatWithEdges
350
2C
  3
Gouraud
350
2D
  3
GouraudWithEdges
350
2E
  3
Linepattern
350
38
  3
Realistic
350
33
  3
Thicken
350
37
  0
LAYOUT
  5
1E
102
{ACAD_REACTORS
330
1A
102
}
330
1A
100
AcDbPlotSettings
  1

  2
none_device
  4

  6

 40
0.0
 41
0.0
 42
0.0
 43
0.0
 44
0.0
 45
0.0
 46
0.0
 47
0.0
 48
0.0
 49
0.0
140
0.0
141
0.0
142
1.0
143
1.0
 70
   688
 72
     0
 73
     0
 74
     5
  7

 75
    16
 76
     0
 77
     2
 78
   300
147
1.0
148
0.0
149
0.0
100
AcDbLayout
  1
Layout1
 70
     1
 71
     1
 10
0.0
 20
0.0
 11
12.0
 21
9.0
 12
0.0
 22
0.0
 32
0.0
 14
1.000000000000000E+20
 24
1.000000000000000E+20
 34
1.000000000000000E+20
 15
-1.000000000000000E+20
 25
-1.000000000000000E+20
 35
-1.000000000000000E+20
146
0.0
 13
0.0
 23
0.0
 33
0.0
 16
1.0
 26
0.0
 36
0.0
 17
0.0
 27
1.0
 37
0.0
 76
     0
330
1B
  0
LAYOUT
  5
26
102
{ACAD_REACTORS
330
1A
102
}
330
1A
100
AcDbPlotSettings
  1

  2
none_device
  4

  6

 40
0.0
 41
0.0
 42
0.0
 43
0.0
 44
0.0
 45
0.0
 46
0.0
 47
0.0
 48
0.0
 49
0.0
140
0.0
141
0.0
142
1.0
143
1.0
 70
   688
 72
     0
 73
     0
 74
     5
  7

 75
    16
 76
     0
 77
     2
 78
   300
147
1.0
148
0.0
149
0.0
100
AcDbLayout
  1
Layout2
 70
     1
 71
     2
 10
0.0
 20
0.0
 11
0.0
 21
0.0
 12
0.0
 22
0.0
 32
0.0
 14
0.0
 24
0.0
 34
0.0
 15
0.0
 25
0.0
 35
0.0
146
0.0
 13
0.0
 23
0.0
 33
0.0
 16
1.0
 26
0.0
 36
0.0
 17
0.0
 27
1.0
 37
0.0
 76
     0
330
23
  0
LAYOUT
  5
22
102
{ACAD_REACTORS
330
1A
102
}
330
1A
100
AcDbPlotSettings
  1

  2
none_device
  4

  6

 40
0.0
 41
0.0
 42
0.0
 43
0.0
 44
0.0
 45
0.0
 46
0.0
 47
0.0
 48
0.0
 49
0.0
140
0.0
141
0.0
142
1.0
143
1.0
 70
  1712
 72
     0
 73
     0
 74
     0
  7

 75
     0
 76
     0
 77
     2
 78
   300
147
1.0
148
0.0
149
0.0
100
AcDbLayout
  1
Model
 70
     1
 71
     0
 10
0.0
 20
0.0
 11
12.0
 21
9.0
 12
0.0
 22
0.0
 32
0.0
 14
1.000000000000000E+20
 24
1.000000000000000E+20
 34
1.000000000000000E+20
 15
-1.000000000000000E+20
 25
-1.000000000000000E+20
 35
-1.000000000000000E+20
146
0.0
 13
0.0
 23
0.0
 33
0.0
 16
1.0
 26
0.0
 36
0.0
 17
0.0
 27
1.0
 37
0.0
 76
     0
330
1F
331
29
  0
MATERIAL
  5
3D
102
{ACAD_REACTORS
330
3B
102
}
330
3B
100
AcDbMaterial
  1
ByBlock
 72
     1
 94
      127
  0
MATERIAL
  5
3C
102
{ACAD_REACTORS
330
3B
102
}
330
3B
100
AcDbMaterial
  1
ByLayer
 72
     1
 94
      127
  0
MATERIAL
  5
3E
102
{ACAD_REACTORS
330
3B
102
}
330
3B
100
AcDbMaterial
  1
Global
 72
     1
 94
      127
  0
MLINESTYLE
  5
18
102
{ACAD_REACTORS
330
17
102
}
330
17
100
AcDbMlineStyle
  2
Standard
 70
     0
  3

 62
   256
 51
90.0
 52
90.0
 71
     2
 49
0.5
 62
   256
  6
BYLAYER
 49
-0.5
 62
   256
  6
BYLAYER
  0
ACDBPLACEHOLDER
  5
F
102
{ACAD_REACTORS
330
E
102
}
330
E
  0
VISUALSTYLE
  5
2F
102
{ACAD_REACTORS
330
2A
102
}
330
2A
100
AcDbVisualStyle
  2
2dWireframe
 70
     4
177
     2
291
     0
 71
     0
176
     1
 72
     2
176
     1
 73
     0
176
     1
 90
        0
176
     1
 40
-0.6
176
     1
 41
-30.0
176
     1
 62
     5
 63
     7
421
 16777215
176
     1
 74
     1
176
     1
 91
        4
176
     1
 64
     7
176
     1
 65
   257
176
     1
 75
     1
176
     1
175
     1
176
     1
 42
1.0
176
     1
 92
        0
176
     1
 66
   257
176
     1
 43
1.0
176
     1
 76
     1
176
     1
 77
     6
176
     1
 78
     2
176
     1
 67
     7
176
     1
 79
     5
176
     1
170
     0
176
     1
171
     0
176
     1
290
     0
176
     1
 93
        1
176
     1
 44
0.0
176
     1
173
     0
176
     1
  0
VISUALSTYLE
  5
31
102
{ACAD_REACTORS
330
2A
102
}
330
2A
100
AcDbVisualStyle
  2
3D Hidden
 70
     6
177
     2
291
     0
 71
     1
176
     1
 72
     2
176
     1
 73
     2
176
     1
 90
        0
176
     1
 40
-0.6
176
     1
 41
-30.0
176
     1
 62
     5
 63
     7
421
 16777215
176
     1
 74
     2
176
     1
 91
        2
176
     1
 64
     7
176
     1
 65
   257
176
     1
 75
     2
176
     1
175
     1
176
     1
 42
40.0
176
     1
 92
        0
176
     1
 66
   257
176
     1
 43
1.0
176
     1
 76
     1
176
     1
 77
     6
176
     1
 78
     2
176
     1
 67
     7
176
     1
 79
     3
176
     1
170
     0
176
     1
171
     0
176
     1
290
     0
176
     1
 93
        1
176
     1
 44
0.0
176
     1
173
     0
176
     1
  0
VISUALSTYLE
  5
30
102
{ACAD_REACTORS
330
2A
102
}
330
2A
100
AcDbVisualStyle
  2
3dWireframe
 70
     5
177
     2
291
     0
 71
     0
176
     1
 72
     2
176
     1
 73
     0
176
     1
 90
        0
176
     1
 40
-0.6
176
     1
 41
-30.0
176
     1
 62
     5
 63
     7
421
 16777215
176
     1
 74
     1
176
     1
 91
        4
176
     1
 64
     7
176
     1
 65
   257
176
     1
 75
     1
176
     1
175
     1
176
     1
 42
1.0
176
     1
 92
        0
176
     1
 66
   257
176
     1
 43
1.0
176
     1
 76
     1
176
     1
 77
     6
176
     1
 78
     2
176
     1
 67
     7
176
     1
 79
     5
176
     1
170
     0
176
     1
171
     0
176
     1
290
     0
176
     1
 93
        1
176
     1
 44
0.0
176
     1
173
     0
176
     1
  0
VISUALSTYLE
  5
32
102
{ACAD_REACTORS
330
2A
102
}
330
2A
100
AcDbVisualStyle
  2
Basic
 70
     7
177
     2
291
     1
 71
     1
176
     1
 72
     0
176
     1
 73
     1
176
     1
 90
        0
176
     1
 40
-0.6
176
     1
 41
-30.0
176
     1
 62
     5
 63
     7
421
 16777215
176
     1
 74
     0
176
     1
 91
        4
176
     1
 64
     7
176
     1
 65
   257
176
     1
 75
     1
176
     1
175
     1
176
     1
 42
1.0
176
     1
 92
        8
176
     1
 66
     7
176
     1
 43
1.0
176
     1
 76
     1
176
     1
 77
     6
176
     1
 78
     2
176
     1
 67
     7
176
     1
 79
     5
176
     1
170
     0
176
     1
171
     0
176
     1
290
     0
176
     1
 93
        1
176
     1
 44
0.0
176
     1
173
     0
176
     1
  0
VISUALSTYLE
  5
36
102
{ACAD_REACTORS
330
2A
102
}
330
2A
100
AcDbVisualStyle
  2
Brighten
 70
    12
177
     2
291
     1
 71
     2
176
     1
 72
     2
176
     1
 73
     0
176
     1
 90
        0
176
     1
 40
-0.6
176
     1
 41
-30.0
176
     1
 62
     5
 63
     7
421
 16777215
176
     1
 74
     1
176
     1
 91
        4
176
     1
 64
     7
176
     1
 65
   257
176
     1
 75
     1
176
     1
175
     1
176
     1
 42
1.0
176
     1
 92
        8
176
     1
 66
     7
176
     1
 43
1.0
176
     1
 76
     1
176
     1
 77
     6
176
     1
 78
     2
176
     1
 67
     7
176
     1
 79
     5
176
     1
170
     0
176
     1
171
     0
176
     1
290
     0
176
     1
 93
        1
176
     1
 44
50.0
176
     1
173
     0
176
     1
  0
VISUALSTYLE
  5
3A
102
{ACAD_REACTORS
330
2A
102
}
330
2A
100
AcDbVisualStyle
  2
ColorChange
 70
    16
177
     2
291
     1
 71
     2
176
     1
 72
     2
176
     1
 73
     3
176
     1
 90
        0
176
     1
 40
-0.6
176
     1
 41
-30.0
176
     1
 62
     5
 63
     8
421
  8421504
176
     1
 74
     1
176
     1
 91
        4
176
     1
 64
     7
176
     1
 65
   257
176
     1
 75
     1
176
     1
175
     1
176
     1
 42
1.0
176
     1
 92
        8
176
     1
 66
     8
424
  8421504
176
     1
 43
1.0
176
     1
 76
     1
176
     1
 77
     6
176
     1
 78
     2
176
     1
 67
     7
176
     1
 79
     5
176
     1
170
     0
176
     1
171
     0
176
     1
290
     0
176
     1
 93
        1
176
     1
 44
0.0
176
     1
173
     0
176
     1
  0
VISUALSTYLE
  5
34
102
{ACAD_REACTORS
330
2A
102
}
330
2A
100
AcDbVisualStyle
  2
Conceptual
 70
     9
177
     2
291
     0
 71
     3
176
     1
 72
     2
176
     1
 73
     0
176
     1
 90
        0
176
     1
 40
-0.6
176
     1
 41
-30.0
176
     1
 62
     5
 63
     7
421
 16777215
176
     1
 74
     2
176
     1
 91
        2
176
     1
 64
     7
176
     1
 65
   257
176
     1
 75
     1
176
     1
175
     1
176
     1
 42
40.0
176
     1
 92
        8
176
     1
 66
     7
176
     1
 43
1.0
176
     1
 76
     1
176
     1
 77
     6
176
     1
 78
     2
176
     1
 67
     7
176
     1
 79
     3
176
     1
170
     0
176
     1
171
     0
176
     1
290
     0
176
     1
 93
        1
176
     1
 44
0.0
176
     1
173
     0
176
     1
  0
VISUALSTYLE
  5
35
102
{ACAD_REACTORS
330
2A
102
}
330
2A
100
AcDbVisualStyle
  2
Dim
 70
    11
177
     2
291
     1
 71
     2
176
     1
 72
     2
176
     1
 73
     0
176
     1
 90
        0
176
     1
 40
-0.6
176
     1
 41
-30.0
176
     1
 62
     5
 63
     7
421
 16777215
176
     1
 74
     1
176
     1
 91
        4
176
     1
 64
     7
176
     1
 65
   257
176
     1
 75
     1
176
     1
175
     1
176
     1
 42
1.0
176
     1
 92
        8
176
     1
 66
     7
176
     1
 43
1.0
176
     1
 76
     1
176
     1
 77
     6
176
     1
 78
     2
176
     1
 67
     7
176
     1
 79
     5
176
     1
170
     0
176
     1
171
     0
176
     1
290
     0
176
     1
 93
        1
176
     1
 44
-50.0
176
     1
173
     0
176
     1
  0
VISUALSTYLE
  5
39
102
{ACAD_REACTORS
330
2A
102
}
330
2A
100
AcDbVisualStyle
  2
Facepattern
 70
    15
177
     2
291
     1
 71
     2
176
     1
 72
     2
176
     1
 73
     0
176
     1
 90
        0
176
     1
 40
-0.6
176
     1
 41
-30.0
176
     1
 62
     5
 63
     7
421
 16777215
176
     1
 74
     1
176
     1
 91
        4
176
     1
 64
     7
176
     1
 65
   257
176
     1
 75
     1
176
     1
175
     1
176
     1
 42
1.0
176
     1
 92
        8
176
     1
 66
     7
176
     1
 43
1.0
176
     1
 76
     1
176
     1
 77
     6
176
     1
 78
     2
176
     1
 67
     7
176
     1
 79
     5
176
     1
170
     0
176
     1
171
     0
176
     1
290
     0
176
     1
 93
        1
176
     1
 44
0.0
176
     1
173
     0
176
     1
  0
VISUALSTYLE
  5
2B
102
{ACAD_REACTORS
330
2A
102
}
330
2A
100
AcDbVisualStyle
  2
Flat
 70
     0
177
     2
291
     1
 71
     2
176
     1
 72
     1
176
     1
 73
     1
176
     1
 90
        2
176
     1
 40
-0.6
176
     1
 41
30.0
176
     1
 62
     5
 63
     7
421
 16777215
176
     1
 74
     0
176
     1
 91
        4
176
     1
 64
     7
176
     1
 65
   257
176
     1
 75
     1
176
     1
175
     1
176
     1
 42
1.0
176
     1
 92
        8
176
     1
 66
     7
176
     1
 43
1.0
176
     1
 76
     1
176
     1
 77
     6
176
     1
 78
     2
176
     1
 67
     7
176
     1
 79
     5
176
     1
170
     0
176
     1
171
     0
176
     1
290
     0
176
     1
 93
       13
176
     1
 44
0.0
176
     1
173
     0
176
     1
  0
VISUALSTYLE
  5
2C
102
{ACAD_REACTORS
330
2A
102
}
330
2A
100
AcDbVisualStyle
  2
FlatWithEdges
 70
     1
177
     2
291
     1
 71
     2
176
     1
 72
     1
176
     1
 73
     1
176
     1
 90
        2
176
     1
 40
-0.6
176
     1
 41
30.0
176
     1
 62
     5
 63
     7
421
 16777215
176
     1
 74
     1
176
     1
 91
        4
176
     1
 64
     7
176
     1
 65
   257
176
     1
 75
     1
176
     1
175
     1
176
     1
 42
1.0
176
     1
 92
        0
176
     1
 66
   257
176
     1
 43
1.0
176
     1
 76
     1
176
     1
 77
     6
176
     1
 78
     2
176
     1
 67
     7
176
     1
 79
     5
176
     1
170
     0
176
     1
171
     0
176
     1
290
     0
176
     1
 93
       13
176
     1
 44
0.0
176
     1
173
     0
176
     1
  0
VISUALSTYLE
  5
2D
102
{ACAD_REACTORS
330
2A
102
}
330
2A
100
AcDbVisualStyle
  2
Gouraud
 70
     2
177
     2
291
     1
 71
     2
176
     1
 72
     2
176
     1
 73
     1
176
     1
 90
        2
176
     1
 40
-0.6
176
     1
 41
30.0
176
     1
 62
     5
 63
     7
421
 16777215
176
     1
 74
     0
176
     1
 91
        4
176
     1
 64
     7
176
     1
 65
   257
176
     1
 75
     1
176
     1
175
     1
176
     1
 42
1.0
176
     1
 92
        0
176
     1
 66
     7
176
     1
 43
1.0
176
     1
 76
     1
176
     1
 77
     6
176
     1
 78
     2
176
     1
 67
     7
176
     1
 79
     5
176
     1
170
     0
176
     1
171
     0
176
     1
290
     0
176
     1
 93
       13
176
     1
 44
0.0
176
     1
173
     0
176
     1
  0
VISUALSTYLE
  5
2E
102
{ACAD_REACTORS
330
2A
102
}
330
2A
100
AcDbVisualStyle
  2
GouraudWithEdges
 70
     3
177
     2
291
     1
 71
     2
176
     1
 72
     2
176
     1
 73
     1
176
     1
 90
        2
176
     1
 40
-0.6
176
     1
 41
30.0
176
     1
 62
     5
 63
     7
421
 16777215
176
     1
 74
     1
176
     1
 91
        4
176
     1
 64
     7
176
     1
 65
   257
176
     1
 75
     1
176
     1
175
     1
176
     1
 42
1.0
176
     1
 92
        0
176
     1
 66
   257
176
     1
 43
1.0
176
     1
 76
     1
176
     1
 77
     6
176
     1
 78
     2
176
     1
 67
     7
176
     1
 79
     5
176
     1
170
     0
176
     1
171
     0
176
     1
290
     0
176
     1
 93
       13
176
     1
 44
0.0
176
     1
173
     0
176
     1
  0
VISUALSTYLE
  5
38
102
{ACAD_REACTORS
330
2A
102
}
330
2A
100
AcDbVisualStyle
  2
Linepattern
 70
    14
177
     2
291
     1
 71
     2
176
     1
 72
     2
176
     1
 73
     0
176
     1
 90
        0
176
     1
 40
-0.6
176
     1
 41
-30.0
176
     1
 62
     5
 63
     7
421
 16777215
176
     1
 74
     1
176
     1
 91
        4
176
     1
 64
     7
176
     1
 65
   257
176
     1
 75
     7
176
     1
175
     7
176
     1
 42
1.0
176
     1
 92
        8
176
     1
 66
     7
176
     1
 43
1.0
176
     1
 76
     1
176
     1
 77
     6
176
     1
 78
     2
176
     1
 67
     7
176
     1
 79
     5
176
     1
170
     0
176
     1
171
     0
176
     1
290
     0
176
     1
 93
        1
176
     1
 44
0.0
176
     1
173
     0
176
     1
  0
VISUALSTYLE
  5
33
102
{ACAD_REACTORS
330
2A
102
}
330
2A
100
AcDbVisualStyle
  2
Realistic
 70
     8
177
     2
291
     0
 71
     2
176
     1
 72
     2
176
     1
 73
     0
176
     1
 90
        0
176
     1
 40
-0.6
176
     1
 41
-30.0
176
     1
 62
     5
 63
     7
421
 16777215
176
     1
 74
     1
176
     1
 91
        0
176
     1
 64
     7
176
     1
 65
   257
176
     1
 75
     1
176
     1
175
     1
176
     1
 42
1.0
176
     1
 92
        8
176
     1
 66
     8
424
  7895160
176
     1
 43
1.0
176
     1
 76
     1
176
     1
 77
     6
176
     1
 78
     2
176
     1
 67
     7
176
     1
 79
     5
176
     1
170
     0
176
     1
171
     0
176
     1
290
     0
176
     1
 93
       13
176
     1
 44
0.0
176
     1
173
     0
176
     1
  0
VISUALSTYLE
  5
37
102
{ACAD_REACTORS
330
2A
102
}
330
2A
100
AcDbVisualStyle
  2
Thicken
 70
    13
177
     2
291
     1
 71
     2
176
     1
 72
     2
176
     1
 73
     0
176
     1
 90
        0
176
     1
 40
-0.6
176
     1
 41
-30.0
176
     1
 62
     5
 63
     7
421
 16777215
176
     1
 74
     1
176
     1
 91
        4
176
     1
 64
     7
176
     1
 65
   257
176
     1
 75
     1
176
     1
175
     1
176
     1
 42
1.0
176
     1
 92
       12
176
     1
 66
     7
176
     1
 43
1.0
176
     1
 76
     1
176
     1
 77
     6
176
     1
 78
     2
176
     1
 67
     7
176
     1
 79
     5
176
     1
170
     0
176
     1
171
     0
176
     1
290
     0
176
     1
 93
        1
176
     1
 44
0.0
176
     1
173
     0
176
     1
  0
ENDSEC
  0
EOF
