<?xml version="1.0" encoding="utf-8"?>
<!-- Generator: Adobe Illustrator 18.0.0, SVG Export Plug-In . SVG Version: 6.00 Build 0)  -->
<!DOCTYPE svg PUBLIC "-//W3C//DTD SVG 1.1//EN" "http://www.w3.org/Graphics/SVG/1.1/DTD/svg11.dtd">
<svg version="1.1" id="Layer_1" xmlns="http://www.w3.org/2000/svg" xmlns:xlink="http://www.w3.org/1999/xlink" x="0px" y="0px"
	 viewBox="0 0 432 432" enable-background="new 0 0 432 432" xml:space="preserve">
<path fill="#B19953" d="M176,293.2c-2.4-1.9-5.4-3.4-9.1-4.5c-1.7-0.5-2.5-1-2.5-1.7c0-0.7,0.7-1.7,2-3c8.2-7.7,12.4-17.9,12.6-30.5
	c0.2-10.4-3.4-18.1-10.7-23.4c-6.2-4.5-13.5-6.8-21.7-6.9c-7.9-0.1-12,3.5-12.1,11.1l-1.3,76.2c-0.2,8.8,3.9,13.3,12.1,13.5
	c11,0.2,19.7-1.6,26.3-5.5c6.6-3.8,10-8.5,10.1-14C181.8,300.1,179.9,296.3,176,293.2z M150.4,235.7c0-1.4,0.8-2.1,2.2-2.1
	c2.3,0,4.3,0.4,6.1,1.1c3.7,1.6,6.4,4.6,8,9.1c1.1,3,1.6,6.4,1.5,10.1c-0.1,6.4-1.6,12.6-4.5,18.4c-2.2,4.5-4.5,7.9-6.9,10.3
	c-2.4,2.4-4.3,3.6-5.7,3.6c-1,0-1.5-0.5-1.5-1.3L150.4,235.7z M166.2,311.1c-3.1,1.8-7.7,2.7-13.9,2.6c-2.2,0-3.3-1.1-3.2-3.2
	l0.2-12.2c0-2,1.4-3,4.1-3c5.4,0.1,9.7,0.9,12.9,2.4c3.1,1.5,4.7,3.7,4.6,6.5C170.8,307,169.2,309.3,166.2,311.1z M245.9,232.1
	l-1,57.5c-0.4,23.3-9.2,34.9-26.2,34.6c-9.6-0.2-16.3-4.2-20.1-12.1c-2.9-6-4.2-14.4-4-25.2l0.9-52c0-1.9,0.2-3.6,0.5-5.4
	c0.7-3.9,3.1-5.8,7.2-5.8c2.2,0,3.8,0.6,5,1.6c2.1,1.9,3.2,5,3.1,9.2l-0.9,54.2c-0.1,4.4,0.1,8.3,0.5,11.6c0.6,4.6,1.8,8.1,3.7,10.3
	c1.7,2,4.2,3.1,7.5,3.1c8.2,0.1,12.4-7.9,12.7-24.3l1-57.6c0-2.7,0.4-4.7,1.1-6.1c0.7-1.4,1.9-2.1,3.8-2.1
	C244.3,223.7,246,226.5,245.9,232.1z M301.7,230c0,1-0.6,2-1.7,2.8c-1.1,0.8-2.7,1.2-4.8,1.2l-7-0.1c-1,0-1.6,0.5-1.6,1.5l-1.4,78.1
	c-0.1,7.2-2.9,10.8-8.4,10.7c-2.4,0-4.1-0.6-5.1-1.8c-0.7-0.7-1.2-1.6-1.6-2.7c-0.5-1.5-0.7-3.9-0.7-7l1.4-77.5c0-1-0.5-1.6-1.5-1.6
	l-7.1-0.1c-2.1,0-3.7-0.5-4.8-1.4c-1.1-0.9-1.6-1.8-1.6-2.9c0-1.6,0.6-2.8,1.6-3.5c1.1-0.7,2.3-1.1,3.8-1.3c1.5-0.1,2.8-0.2,4-0.2
	l27.1,0.5c1.2,0,2.5,0.1,4,0.3c1.5,0.2,2.7,0.7,3.8,1.4C301.2,227.2,301.7,228.4,301.7,230z M124.2,236.1c9.3,32.3-10.4,63.3-21,80
	l-2.2,3.4c-0.2,0.3-0.5,0.5-0.8,0.6c-0.4,0.1-0.8,0.1-1.2-0.2c-2.6-1.7-6-3.4-9.9-5.3c-15.4-7.7-38.6-19.5-46.4-45.7
	c-5.4-18.2,4.3-30.4,14.8-30.5c11.3-0.1,20.2,5,27.2,15.6c1.7-14.5,5.1-25.4,19.4-28.8C111.7,223.4,121.3,226,124.2,236.1z"/>
<path fill="#141414" d="M126,339.5c0.1,22,0.3,44,0.4,65.9c0,4.6-1.7,6.9-5.3,6.9c-1.8,0-3-0.6-3.7-1.8c-0.7-1.2-1-3-1-5.2
	c-0.1-19.1,0-33.6,0.4-43.3c0.2-4.9,0.3-8.6,0.2-11.1c0-1.1-0.2-1.7-0.6-1.7c-0.4-0.1-0.9,0.8-1.5,2.5c-4.5,13-10,26.3-16.6,40.1
	c-1,2.1-2.4,3.1-4.3,3c-2.1-0.1-3.6-1.3-4.7-3.7c-4.5-10.4-10-26-16.5-47.9c-0.7-2.3-1.2-3.5-1.5-3.5c-0.2,0-0.2,0.6-0.2,1.8
	c0,1.4,0,2.6,0.1,3.7c0.1,1,0.2,3.1,0.3,6.2c0.7,15.7,1.1,32.9,1.2,51.5c0,3.1-0.7,5.5-2,7.1c-1.4,1.6-3.4,2.5-6,2.5
	c-4,0-6.3-1.8-7-5.5c-0.3-1.6-0.4-3.2-0.4-5c0-24.8,0-49.7,0-74.5c0-8.6,2.8-12.2,8.5-10.8c5.2,1.3,9,5.3,11.1,12
	C81.1,341,84.5,351,87.1,359c1.7,5.3,3.4,10.3,5.1,15c6.1-14.1,11.6-27.8,16.5-41.3c0.9-2.5,2.1-4.1,3.7-4.9c1.6-0.8,3.1-1,4.7-0.8
	c3.5,0.6,5.9,2.3,7.4,5.2C125.5,334.2,126,336.7,126,339.5z M162.2,339.6c2,0.1,3.4,0,4.2-0.2c1.5-0.5,2.2-1.4,2.2-2.7
	c0-1.6-1.7-2.6-5.1-2.9c-7.2-0.7-14.3-1.4-21.4-2.3c-3.4-0.4-5,0.2-5,1.9c0,1.4,0.7,2.5,2.2,3.3c0.7,0.4,2,0.7,3.9,1
	c1.3,0.2,2,0.9,2,2.1c0.1,21.2,0.3,42.5,0.4,63.7c0,0.6-0.2,1.1-0.7,1.4c-0.5,0.3-1.3,0.4-2.4,0.4c-3.4,0-5,1.1-5,3.4
	c0,1.8,1.6,2.8,4.7,2.8c7,0,14.1,0,21.1,0c3.4,0,5-0.8,5-2.4c0-1.3-0.7-2.3-2.2-2.9c-0.7-0.3-2-0.6-3.8-0.6c-1-0.1-1.6-0.5-1.6-1.4
	c-0.1-21.1-0.2-42.1-0.4-63.2C160.4,339.9,161,339.5,162.2,339.6z M215.9,368.8c0,1.6,0.4,2.7,1.2,3.4c0.6,0.6,1.6,0.8,2.9,0.9
	c1.8,0,3.1-1.2,4-3.6c0.9-2.4,1.4-5.8,1.4-10c0-6.7-1.5-12.2-4.4-16.3c-3.5-4.9-9.4-7.5-17.4-7.7c-5.4-0.2-10,0.5-13.6,2
	c-11,4.6-16.5,16.2-16.4,35.1c0.1,13.9,3.1,24.4,8.9,31.4c4.8,5.6,11.4,8.4,19.9,8.4c4.1,0,7.9-0.9,11.3-2.7
	c3.4-1.8,6.1-4.1,8.1-6.9c2-2.8,3-5.8,3-8.9c0-3.7-1.4-6-4.2-7c-2.1-0.8-6.6-1.1-13.5-1.2c-2.2,0-3.8,0.2-5,0.8
	c-1.1,0.6-1.7,1.5-1.7,2.8c0,0.8,0.4,1.6,1.3,2.3c0.8,0.7,2,1.1,3.6,1.1c1,0,2,0,3,0c1.9-0.1,3.9-0.1,5.8-0.1c1.8,0,2.8,0.6,2.8,1.7
	c0,1.7-0.6,3.3-1.7,4.9c-1.2,1.6-2.7,2.9-4.6,3.9c-1.9,1-4,1.5-6.3,1.5c-4.6,0-8.2-3-10.7-8.9c-2.7-6.4-4.1-14.8-4.1-25
	c0-9.8,1.6-17.2,4.8-22.1c2.8-4.3,6.7-6.3,11.7-6.1c4.3,0.1,7.3,2.4,9.2,6.9c1,2.5,1.5,5.4,1.5,8.7c0,2.6-0.2,4.8-0.6,6.7
	C216.1,366.2,215.9,367.6,215.9,368.8z M283.1,333.4c-1.8,0.2-3,0.8-3.7,2c-0.7,1.2-1,2.8-1,4.9c-0.1,14.2-0.1,28.4-0.2,42.6
	c0,1.5-0.9,2.2-2.7,2.3c-6.6,0.2-13.1,0.3-19.7,0.5c-1.7,0-2.6-0.7-2.6-2.2c0-13.3,0.1-26.6,0.1-39.9c0-2.5-0.6-4.5-1.9-5.9
	c-1.3-1.4-3.3-2.1-6.1-2c-4,0.1-6.4,1.6-7,4.6c-0.3,1.3-0.4,2.7-0.4,4.1c0,19.8,0,39.6-0.1,59.4c0,2.1,0.2,3.8,0.6,5
	c0.4,1,1,1.7,1.8,2.4c1,0.9,2.7,1.3,5,1.3c3.1,0,5.3-1,6.7-3c0.9-1.4,1.4-3.1,1.4-5.3c0-3.4,0-6.8,0-10.2c0-1.1,0.9-1.7,2.6-1.7
	c6.6-0.1,13.1-0.2,19.7-0.4c1.8,0,2.6,0.5,2.6,1.7c0,4.1,0,8.2-0.1,12.4c0,2.1,0.3,3.6,1,4.8c0.6,1.1,1.9,1.7,3.7,1.7
	c3.6,0,5.4-2.2,5.4-6.5c0.1-22.1,0.2-44.2,0.4-66.3C288.4,335.1,286.7,333.1,283.1,333.4z M336.9,328.9c-1-0.5-2.2-0.6-3.7-0.6
	c-1.4,0.1-2.7,0.2-3.9,0.4c-8.7,1.3-17.5,2.5-26.3,3.5c-1.2,0.1-2.5,0.3-3.9,0.6c-1.4,0.3-2.7,0.8-3.7,1.5c-1,0.7-1.6,1.7-1.6,2.9
	c0,0.8,0.5,1.5,1.6,2.1c1.1,0.6,2.6,0.8,4.7,0.6c2.3-0.2,4.6-0.5,6.9-0.7c1-0.1,1.4,0.3,1.4,1.1c-0.1,20.9-0.3,41.8-0.4,62.8
	c0,2.5,0.2,4.4,0.7,5.7c0.3,0.8,0.8,1.6,1.6,2.1c1,0.9,2.7,1.4,5,1.4c5.3,0,8-3,8-9c0.1-21.6,0.3-43.2,0.4-64.8
	c0-0.9,0.5-1.4,1.5-1.5c2.3-0.3,4.5-0.6,6.8-0.9c2-0.3,3.6-0.9,4.7-1.8c1.1-0.9,1.6-1.8,1.6-2.7
	C338.4,330.3,337.9,329.4,336.9,328.9z M392.6,316.2c-0.8-0.6-2-0.7-3.6-0.4c-2.1,0.5-3.5,1.9-4.3,4.1c-0.3,1-0.5,1.9-0.6,2.8
	c-0.7,11.4-2.6,23.1-5.7,34.9c-1.4,5.4-3.2,10.3-5.2,14.7c-0.5,1.1-1,1.6-1.6,1.7c-1.4,0.1-3.2-3.6-5.6-10.9
	c-1.9-5.8-3.5-11.7-4.8-17.7c-1.3-6-2.2-10.4-2.5-13.3c-0.4-3.9-1.5-6.4-3.2-7.5c-1.1-0.7-2.7-0.9-4.7-0.5c-2.3,0.4-4,1.2-5,2.3
	c-1,1.1-1.7,2.5-2,4c-0.3,1.5-0.4,3.1-0.4,4.7c0,3.4,0.9,8.4,2.6,15.1c1.8,6.7,4,13.3,6.7,19.8c2,4.8,4.2,8.6,6.5,11.4
	c1.4,1.7,2.1,3.8,2,6.5c0,4.7,0,9.4-0.1,14.1c0,1.7,0.1,3.3,0.4,4.9c0.2,1.5,0.9,2.8,1.9,3.8c1,1,2.7,1.5,5.1,1.5c5.3,0,8-3.3,8-10
	c0-5.2,0-10.4,0-15.6c0-2.8,0.7-5.5,2.1-8.1c4.8-9,8.5-18.4,11.3-28c3.1-11.1,4.7-20.4,4.7-27.5c0-1.4-0.1-2.7-0.4-4
	C393.9,317.8,393.4,316.9,392.6,316.2z M410.2,228c-0.3,1-0.9,1.9-1.8,2.6c-2.1,1.1-4.2,2.3-6.4,3.4c-2.1,1.1-4.4,2-6.7,2.7
	c-4.7,1.8-9.5,3-14.4,3.6c-4.9,0.6-9.8,1.1-14.7,1.5c-0.3,1.6-0.5,3.3-0.6,4.9c-0.1,1.6-0.4,3.3-0.6,4.9c-1,5.4-2.3,10.7-3.8,16
	c-1.5,5.3-3.5,10.4-5.9,15.3c-1.9,3.9-4.5,7.7-7.6,11.3c-3.1,3.6-6.8,6.2-11,8c-4.2,1.8-8.8,2.4-13.7,1.9
	c-7.9-0.8-14.5-4.3-19.8-10.5c-2.5-3.1-4.7-6.4-6.7-10.1c-1.9-3.7-3.1-7.5-3.5-11.4c-1.2-8.7,1.1-16.3,7.1-23c2.9-3,6.1-5.3,9.8-6.8
	c3.6-1.6,7.3-2.9,11.1-4c4-1.1,7.9-1.8,11.6-2.2c3.7-0.4,7.6-0.8,11.6-1.2c0.6-6.5,1-12.8,1.4-18.7c0.3-5.9,0.7-11.3,1-15.9
	l0.3-15.4l1.2-69.3c-2,8.1-4.1,16.9-6.4,26.2c-2.3,9.3-4.8,18.1-7.5,26.3c-2.7,8.2-5.6,15.4-8.8,21.6c-3.1,6.1-6.5,10-10,11.6
	c-3.3,1.3-6.2,1.6-8.8,0.9c-2.6-0.5-5-1.9-7.3-4.2c-2.3-2.3-4.3-6.4-6.1-12.5c-0.7-1.9-1.1-3.9-1.3-6.2c-0.2-2.2-0.4-4.3-0.6-6.1
	c-0.1-1.5-0.2-2.9-0.2-4.3c-1.7,4.6-3.9,9.4-6.7,14.3c-2.9,5.1-6.4,9.5-10.4,13.1c-4,3.7-8.8,5.3-14.4,5
	c-8.1-0.6-13.7-4.7-16.9-12.2c-3.2-7.5-4.8-19.9-4.7-37.2c-0.2-2.3-0.2-4.6-0.1-6.8c0.2-2.2,0.2-4.3,0.3-6.1l0.1-6.3
	c-0.1-8.2-0.8-13.8-2-16.8c-1.2-3.1-2.9-4.5-5-4.3c-3.3,0.4-6.6,6-9.9,16.6c-3.3,10.7-6.8,25.3-10.4,44c-0.2,0.7-0.5,2.1-0.8,4.2
	c-0.3,2.1-0.5,4.3-0.8,6.6c-0.5,3.3-1,6.3-1.6,9.1c-0.5,2.8-1.1,5.2-1.9,7.3c-1.5,5.6-3.5,8.3-6.1,8.3c-1.4,0.2-2.7,0.1-3.8-0.4
	c-1.2-0.5-2.3-1.3-3.5-2.5c-1.2-1.2-1.9-3.1-2.4-5.6c-0.6-3.5-1.1-10.3-1.4-20.3c-0.1-4.1-0.2-8.4-0.3-12.8
	c-0.2,0.7-0.5,1.3-0.7,2.1c-1.7,4.8-4,9.7-6.9,14.8c-2.9,5.1-6.4,9.5-10.4,13.1c-4,3.7-8.8,5.3-14.4,5c-5.4-0.3-9.6-2.3-12.7-6
	c-3.1-3.7-5.3-9.3-6.7-16.9c-0.9-4.8-1.5-10.5-1.7-17.2c-0.6,2.4-1.5,5.9-2.7,10.5c-1.8,7-4.2,14.2-7.4,21.8
	c-3.2,7.5-6.9,14.2-11.2,20.1c-4.3,5.9-9.1,8.7-14.5,8.3c-3.7-0.3-6.9-1.6-9.8-4c-2.8-2.4-5.1-6.7-6.7-12.9
	c-1.6-6.2-2.7-14.8-3.3-25.8c-0.6-11-0.5-25.5,0.2-43.4l1-35.4c0.2-11,0.4-21.1,0.5-30.3c0.2-9.2,0.5-17.7,1.1-25.4
	c-8.2,0.1-16.4,0.1-24.7-0.1c-8.3-0.1-16.6-0.3-25-0.4l-4.2-0.1c-0.9,0-1.6-0.1-2.1-0.4c-1.6-0.5-3.1-1.3-4.3-2.4
	c-1.3-1.1-1.2-3,0.3-5.8c1-2.1,2.3-3.2,3.9-3.3c1.6-0.1,3.6,0.2,5.8,1c2.2,0.7,4.7,1.7,7.5,2.8c2.8,1.1,5.9,1.8,9.4,2.1l34,0.6
	c0.3-4.4,0.7-8.7,1.3-12.9c0.3-2.8,0.8-5.5,1.5-8c0.5-1.9,1.3-3.7,2.3-5.4C89,10,90.4,9,92.3,8.8c4.6-0.4,7.9,1.4,9.9,5.3
	c2,3.9,2.8,11.9,2.3,24c7-0.1,14-0.1,21,0c7,0.1,14,0.2,21,0.4c11.2,0.4,22.5,0.9,33.8,1.5c11.3,0.5,22.6,0.2,33.8-1
	c3.7-0.4,6.2,0.2,7.5,1.7c1.3,1.5,1.7,3.2,1.5,4.9c-0.3,1.7-0.9,3.3-2,4.7c-1.1,1.4-2.2,1.6-3.3,0.6c-1.2-0.7-3-1.4-5.4-2
	c-2.4-0.6-5.1-1.1-7.9-1.4c-2.8-0.3-5.5-0.6-8-0.8c-2.6-0.3-4.3-0.4-5.2-0.4c-7.5,0.1-14.9,0-22.4-0.4c-7.5-0.4-14.9-0.7-22.4-1.1
	c-7-0.1-14-0.2-21-0.4c-7-0.1-14-0.1-21,0c-0.4,7.9-0.6,19.4-0.6,34.5c0,15.1-0.5,31.3-1.6,48.8c0,2.8-0.2,6.4-0.4,10.9
	c-0.2,4.4-0.4,9.3-0.6,14.7c-0.2,5.4-0.4,10.9-0.6,16.5c-0.2,5.6-0.4,10.8-0.4,15.6c-0.1,4.8-0.1,8.9,0,12.4c0.1,3.5,0.2,5.8,0.4,7
	c0.2,1.9,1.1,3,2.6,3.4c1.5,0.4,3.5-0.9,5.8-3.9c2.4-3,5.2-8,8.3-15.1c3.2-7.1,6.6-17.2,10.3-30.5c0.7-2.6,1.5-4.8,2.2-6.6
	c0.5-1.6,1.1-3.1,1.8-4.3c0.7-1.3,1.5-1.9,2.5-1.9c0.2,0.1,0.4,0.2,0.7,0.2c0.1-11.9,0.7-26.4,1.6-43.5c0.1-3,0.5-5.8,1.2-8.4
	c0.5-2.1,1.3-4,2.4-5.7c1.1-1.7,2.8-2.5,5.1-2.2c0.5,0.2,0.9,0.4,1.4,0.4c0.5,0.2,0.9,0.4,1.2,0.4c0.4,0,0.8,0.2,1.2,0.7
	c1.8,1.2,4,4,6.5,8.3c2.5,4.4,3.5,11.7,3.1,21.9c-0.3,6.3-0.6,12.9-0.9,19.8c-0.2,6.9-0.5,13.4-0.9,19.6c-0.3,6.2-0.6,11.5-0.6,16.1
	c-0.1,4.6,0,7.5,0.2,8.9c0,1.9,0.6,3.7,2,5.6c1.4,1.9,3.2,2.5,5.6,1.8c2.3-0.7,5.1-3.3,8.4-7.9c3.2-4.6,6.8-12.4,10.7-23.3
	c0.5-2.6,1.1-4.8,1.9-6.6c0.5-1.6,1.2-3.1,2-4.3c0.6-0.8,1.1-1.4,1.6-1.6c0-0.1,0-0.3,0-0.4c0.1-11.8,0.4-23.2,0.9-34.3
	c0.5-11.1,1.3-19.4,2.4-25c0.3-2.3,0.9-4.4,1.9-6.3c0.7-1.6,1.6-3.1,2.7-4.5s2.5-2.1,4.4-2c4.7,0.1,8,1.8,9.9,5.3
	c1.9,3.4,2.6,9.4,2,18.1l-0.5,30.1c2.7-8.8,5.9-16.4,9.6-22.6c3.6-6.2,7.9-9.4,12.9-9.6c5.4-0.1,10.2,1.3,14.4,4.5
	c3.5,2.9,6.5,7.6,9.1,14.3c2.6,6.7,3.5,16.7,2.8,30c-0.3,2.8-0.4,5.5-0.5,8c0,2.6-0.1,4.8-0.1,6.7c-0.3,6.1-0.5,11.3-0.6,15.8
	c-0.1,4.4,0,7.4,0.2,8.8c0,1.9,0.6,3.7,2,5.6c1.4,1.9,3.2,2.5,5.6,1.8c2.3-0.7,5.1-3.3,8.4-7.9c3.2-4.6,6.8-12.4,10.7-23.3
	c0.5-2.6,1.1-4.8,1.9-6.6c0.5-1.6,1.2-3.1,2-4.3c0.4-0.6,0.8-1.1,1.2-1.4c0.2-5.1,0.4-10.2,0.6-15.2c0.5-11.2,1.3-19.6,2.4-25.2
	c0.3-2.3,0.9-4.5,1.9-6.6c0.7-1.6,1.6-3.1,2.7-4.5s2.4-2.1,4.1-2c4.9,0.1,8.3,1.9,10.2,5.4c1.9,3.5,2.6,9.5,2,17.9
	c0,2.1-0.1,5.4-0.2,9.8c-0.1,4.4-0.2,9.5-0.3,15.2c-0.1,5.7-0.2,11.9-0.3,18.6c-0.1,6.7-0.4,13.2-0.7,19.8c0,1.6,0.3,2.5,1,2.5
	c1.4,0.3,3.4-2.9,5.9-9.4c2.6-6.5,5.3-14.2,8.1-23.2c2.8-8.9,5.6-18.2,8.2-27.9c2.6-9.6,4.7-17.5,6.2-23.5
	c1.5-6.5,3.3-11.1,5.3-13.7c2-2.6,3.9-4.2,5.7-4.8c1.8-0.5,3.3-0.5,4.5,0.3c1.3,0.7,1.9,1.2,1.9,1.4c2.3,1.4,4.7,4.3,7.2,8.5
	c2.5,4.2,3.5,11.3,3.1,21.1l-0.6,34.3c-0.1,4.7-0.2,9.6-0.3,14.7c-0.1,5.1-0.2,10.2-0.4,15.1c-0.2,4.9-0.4,9.6-0.6,14
	c-0.2,4.4-0.3,8.4-0.4,11.9c-0.2,11-0.7,21.8-1.6,32.5c6.5-0.4,12.9-1.2,19.1-2.6c6.2-1.4,12.3-3.9,18.2-7.6
	c0.9-0.7,1.9-0.8,2.8-0.5c0.9,0.4,1.7,1,2.2,2C410.3,226,410.4,226.9,410.2,228z M343.3,244.9c-5.2,1.1-10.5,2.6-16,4.4
	c-5.5,1.9-10.3,4.3-14.3,7.3c-4,3-6.9,6.6-8.8,10.9c-1.8,4.3-1.5,9.3,1,14.9c0.5,0.5,0.9,1.2,1.4,2.3c0.4,1.1,1.2,2.2,2.4,3.4
	c1.8,1.9,3.7,3.6,5.7,5c2,1.4,4.2,2.4,6.8,2.9c3,0.5,5.7-0.6,8.1-3.4c2.4-2.8,4.4-6.6,6.2-11.5c1.7-4.9,3.2-10.5,4.5-16.7
	C341.4,258.1,342.5,251.6,343.3,244.9z M370.4,288.5c-2.7-3.1-8.7-2.9-12.7,3.2c-5.8,8.8-3.4,18.6-1.9,25.1c0.4,1.6,0.7,3.1,0.9,4.3
	c0,0.2,0.1,0.3,0.2,0.4c0.1,0.1,0.2,0.1,0.4,0.1l1.6-0.2c7.6-1,21.7-3,28.8-13.8c2.2-3.4,0.6-6.8-1.8-8.6c-4.6-3.4-8.7-1.7-13.4,1.5
	C374,295.7,373.3,291.8,370.4,288.5z"/>
</svg>
