<?xml version="1.0" encoding="utf-8"?>
<!-- Generator: Adobe Illustrator 18.0.0, SVG Export Plug-In . SVG Version: 6.00 Build 0)  -->
<!DOCTYPE svg PUBLIC "-//W3C//DTD SVG 1.1//EN" "http://www.w3.org/Graphics/SVG/1.1/DTD/svg11.dtd">
<svg version="1.1" id="Layer_1" xmlns="http://www.w3.org/2000/svg" xmlns:xlink="http://www.w3.org/1999/xlink" x="0px" y="0px"
	 viewBox="0 0 432 432" enable-background="new 0 0 432 432" xml:space="preserve">
<path fill="#B19A53" d="M420.6,172.3c-2.1,6.3-12.9,36-26,35.7c-9.3-0.2-12.1-16.7-12.1-16.7s19.2-8.6,19.4-18.9
	c0.1-5.6-2.7-11.5-8.9-11.6c-10.7-0.2-23.2,11.1-23.4,26.1c-0.1,3.4,0.3,6.7,1.1,9.6c-5.1,16.8-11.4,33.4-16.5,33.4
	c-5.5-0.1-11.8-51.1-11.3-79.2c0-1,0-2,0.1-3c10.5-10.5,35.1-37.4,35.4-57.8c0.2-9.4-3.1-15.8-9.3-15.9
	c-23.1-0.4-42.8,50.1-43.5,89.6c0,2.6-0.1,5.2,0,7.8c-0.7-0.5-1.6-0.2-1.8,1.3c-2.3,12.9-8.2,22.5-18.4,30.7
	c-0.4-39.6-10.7-47.9-28.8-48.2c-7.6-0.1-14.3,7-17.7,16c-0.5,0-1,0.5-1.2,1.5c-2.3,12.9-8.2,22.5-18.4,30.7
	c-0.4-39.6-10.7-47.9-28.8-48.2c-8.3-0.1-15.5,8.4-18.6,18.5c-0.2,0.2-0.4,0.5-0.5,0.9c-1.9,7.5-9.7,43-18.3,42.9
	c-6.7-0.1,0.9-46.5,1-50.8c0.1-4.4-5.6-7.9-9.2-7.9c-3.7-0.1-1.7,1.6-1.8,4.6c0,1.7-8.9,39.4-14.8,39.3c-4.4-0.1,1.5-24,1.6-30.2
	c0.1-4.1-6.3-9.1-10.2-9.2c-4-0.1-3.4,0.8-3.4,1.7c0,1.7-1.5,15.9-1.7,23.4c0,2.3,0.1,4.9,0.7,7.5c-5.4,16.9-12.6,36.3-16.4,36.3
	c-7.4-0.1,3.6-47.3,3.8-63.4c0.2-9.2-1-19.4-11.7-19.6c-8.5-0.1-16.6,20.7-16.6,20.7s1.1-16.2-13.6-16.5c-3.4-0.1-4.8,0.5-4.9,3.1
	c0,2.5,2.3,1.8,2.1,9.4c0,1.7-0.2,4.5-0.3,7.9c-3.3,9.3-12.2,16.3-25.2,26.8c-6.7-14.4-19.4-27.6-19.3-35.7
	c0.1-4.3,7.1-11.8,14.7-11.7c5,0.1,5.9,4.8,8,4.9c2,0,3.1-1.4,3.1-3c0.1-3.3-6.4-10.1-16.8-10.3c-10.5-0.2-23.3,7.9-23.5,17.4
	c-0.2,13.8,18.2,31.2,25.3,45.4c-7.9,6.8-13.8,13.2-13.9,18.4c-0.1,8.6,3.7,13.9,9.9,14c7.3,0.1,16.1-11.3,16.4-23.6
	c0.1-4.5-1.1-9.1-2.9-13.6c10.7-8.9,19.4-15.9,24.1-23.4c-0.1,11.7,0.9,26,6.9,26.1c5.3,0.1,7.3-2.2,7.3-4.4
	c0.3-15.5,10.3-48.6,16.9-48.5c7.9,0.1-13.6,83.8,10.1,84.2c4.9,0.1,12.3-18.5,17.9-36c1.6,3.7,4.2,6.5,8.1,6.6
	c11,0.2,15.7-23.4,15.7-23.4s-4,36.7,10.6,37c8.7,0.2,15.3-17.8,19.2-31.7c0.7,13.5,5.1,19,11.6,19.1c10.7,0.2,19.8-22.1,23.3-32
	c0.6,8.1-0.3,18-0.4,25.7c-0.1,4.2-0.3,8.4-0.5,12.6c-19.2,13.8-38.1,26.4-38.4,42.3c-0.2,14.3,6.7,24.8,18.8,25
	c21.4,0.4,33.7-26.4,34.5-71.8c0-1.2,0-2.4,0.1-3.6c7.7-6.2,13.4-12.8,17.1-20.9c0.1,16.2,4.6,22.6,11.7,22.7
	c10.7,0.2,19.8-22.1,23.3-32c0.6,8.1-0.3,18-0.4,25.7c-0.1,4.2-0.3,8.4-0.5,12.6c-19.2,13.8-38.1,26.4-38.4,42.3
	c-0.2,14.3,6.7,24.8,18.8,25c21.4,0.4,33.7-26.4,34.5-71.8c0-1.2,0-2.4,0.1-3.6c10.5-8.4,17.3-17.6,20.3-30.4
	c0.9,29.7,7,62,26.1,62.3c7.4,0.1,14.9-18.4,20.7-37.2c3.4,7,9.6,11.5,18,11.6c18.7,0.3,30.4-33,32.6-40.4
	C423.5,171.3,421.2,170.6,420.6,172.3z M369.2,86.9c3,0.1,5.3,3.7,5.3,5.5c-0.3,15.7-21.4,39.8-31.2,50.1
	C345.5,116.2,356,86.7,369.2,86.9z M39,232.2c-3.5-0.1-4.8-4.2-4.7-7.6c0.1-3.9,4.6-8.9,10.8-14.6c1.1,2.6,1.7,5.2,1.7,7.5
	C46.7,221.5,43.4,232.3,39,232.2z M205,203.3c-5.6-0.1-2.6-42.1,10.6-41.9c4.4,0.1,6.9,2.7,8.3,6.9
	C220.2,178.2,210.2,203.4,205,203.3z M200.2,275c-6.8-0.1-10.7-9.6-10.6-17.4c0.2-14.3,16.7-26.4,34.6-39.5
	C221.8,247.1,214.6,275.3,200.2,275z M271.1,203.3c-5.6-0.1-2.6-42.1,10.6-41.9c4.4,0.1,6.9,2.7,8.3,6.9
	C286.3,178.2,276.3,203.4,271.1,203.3z M266.3,275c-6.8-0.1-10.7-9.6-10.6-17.4c0.2-14.3,16.7-26.4,34.6-39.5
	C287.9,247.1,280.7,275.3,266.3,275z M394.3,167.9c2.8,0,3.9,2.6,3.9,5.4c-0.1,8-16,14.8-16,14.8S380.5,167.6,394.3,167.9z"/>
<path fill="#1B1B1C" d="M404.8,324.8c-0.8,0-1.6,0.2-2.4,0.5c-1,1.8-2.5,4.2-4.4,7.2c-1.9,2.9-4.1,6-6.4,9.1c-3.5,4.7-7,9-10.7,12.7
	c-3.7,3.9-6.5,5.5-8.6,4.9c-1.7-0.4-3-2.5-3.7-6.2c-0.7-3.7-1-8.2-0.9-13.6c0-3,0.1-6.1,0.3-9.4c0.2-3.3,0.5-6.6,0.9-10.1
	c0-0.5,0.1-1,0.2-1.5c1.8-1.1,3.6-2.4,5.2-3.9c2.8-2.5,5.2-5.4,7.3-8.7c2.1-3.3,3.9-6.8,5.2-10.4c2.4-6.5,3.4-12.6,2.8-18.2
	c-0.6-5.6-3.2-8.5-7.6-8.9h-0.9c-1.4,0-3.3,0.3-5.7,0.8c-2.8,0.6-4.9,1.8-6.6,3.5c-3.2,4.6-6,10.5-8.6,17.6
	c-2.5,7.1-4.5,14.5-5.8,22.2c-0.4,2.9-0.8,5.8-1,8.6c-0.4,0.9-0.8,1.8-1.3,2.9c-2,4.4-4.3,9.2-6.7,14.1c-3,6-6,11.6-9,16.7
	c-3,5-5.2,7.4-6.7,7.1c-0.3-0.1-0.5-0.7-0.6-1.9c-0.1-1.2-0.1-2.8,0-4.8c0.2-3.8,0.7-8.6,1.5-14.5c0.7-5.9,1.5-11.8,2.4-17.6
	c1.1-7.4,2.3-13.9,3.5-19.5c1.2-5.7,2.2-8.5,2.9-8.3c0.1-0.6,0-1.2-0.2-1.6c-0.1-0.5-0.4-1-0.8-1.3c-1.4-1.4-3.9-1.7-7.3-1.1
	c-3.4,0.5-5.4,1.6-6,3.2c-0.2,0.7-1.2,4.5-3.1,11.3c-1.8,6.8-4,13.8-6.4,21c-1.9,5.8-3.9,11-5.8,15.6c-1.9,4.4-3.6,6.7-4.9,6.7
	c-3,0-4.4-3.3-4.4-9.9c0.1-6.7,1.2-14,3.4-21.9c1.7-6.2,3.9-12.1,6.6-17.6c2.8-5.6,5.7-9.5,8.9-11.6c1.8-1.2,3.7-1.7,5.5-1.6
	c1.8,0.1,3.7,1.1,5.5,3c0.5-0.2,0.8-0.5,0.9-1c0.1-0.5,0-1-0.3-1.4c-1.3-1.9-3.5-3.2-6.6-4c-2.3-0.6-4.7-1-7-1h-1.8
	c-1.5,0.1-3,0.3-4.4,0.6c-1.3,0.3-2.4,0.7-3.4,1.3c-1.9,1.1-3.9,2.6-6,4.6c-2,2-4,4.4-6,7.1c-3.6,5.2-6.6,11.4-9,18.6
	c-1.3,4-2.2,8-2.8,12.2c-0.8,1.4-1.8,2.8-2.8,4.4c-1.7,2.5-3.6,5-5.7,7.6c-3.9,4.7-8.1,8.8-12.5,12.2c-4.5,3.5-8.5,4.9-11.9,4.2
	c-3.2-0.6-5.5-2.6-7-5.9c-1.4-3.3-2.2-7.2-2.4-11.6c-0.1-2.5-0.1-5,0.2-7.5v-0.1c3.5-1.4,6.5-3,9.2-4.9c5.7-4,8.5-9.8,8.4-17.2
	c-0.1-4.7-1.9-8.4-5.4-10.9c-2.7-1.9-5.5-2.8-8.6-2.8c-1,0-2,0.1-3.1,0.3c-2.3,0.4-4.6,1.4-6.9,3c-2.3,1.5-4.4,3.7-6.3,6.4
	c-4.1,6.2-6.3,13.2-6.7,21.2v1.6c-0.5,0.8-1,1.6-1.5,2.5c-1.8,2.9-3.8,6-6,9.2c-3.4,4.9-6.8,9.5-10.4,13.7c-3.6,4.3-6.3,6.3-8.3,6
	c-3.5-0.3-5.3-2.6-5.5-6.8c-0.1-4.2,0.5-9,1.8-14.4c0.6-2.2,1.3-4.5,2-6.9c0.7-2.3,1.5-4.5,2.3-6.7c1.4-3.9,2.7-7.4,3.8-10.3
	c1.1-2.8,1.7-4.5,1.7-4.9c-0.1-0.7-0.4-1.2-0.9-1.7c-0.5-0.5-1.1-0.9-1.8-1.3c-1-0.4-2.3-0.8-3.8-1c-1.4-0.3-3-0.4-4.7-0.5
	c-3-0.2-5.9-0.2-8.7-0.1c-1.6,0.1-2.8,0.1-3.4,0.1c1.4-3.1,2.5-6,3.4-8.9c1.3-4.5,0.6-7.2-2.3-7.8c-1.1-0.3-2.1-0.4-3.1-0.4
	c-2.9,0-5.3,1.2-7.3,3.5c-2.7,3.2-2.9,6.6-0.8,10.4c0.9,1.7,2.4,3.3,4.4,4.8c-0.7,1.4-1.4,2.8-2.1,4.2c-1.7,3.3-3.5,6.4-5.2,9.4
	c-1.7,3-3.2,5.4-4.3,7.3c0.8,0.6,1.6,0.9,2.4,0.9c0.8-0.1,1.6-0.3,2.4-0.5c1-1.9,2.4-4.4,4.3-7.5c1.8-3.2,3.7-6.5,5.5-9.9
	c0.3-0.5,0.6-1.1,0.8-1.7c2.8,1.2,6.1,2.2,10.1,3c-2.3,2.7-4.2,6.2-5.5,10.3c-1.3,4.2-2.1,8.5-2.3,12.8c-0.1,6.5,1.1,12.5,3.7,18
	c2.6,5.5,6.9,8.4,12.7,8.9c0.3,0.1,0.6,0.1,0.8,0.1c3.6-0.1,7.3-2.1,11.3-6.2c4.2-4.5,8-9.2,11.5-14.4c1.4-2,2.6-3.9,3.8-5.8
	c0.8,4.2,2.4,8,4.8,11.5c2.1,3.3,4.9,6,8.4,8.2c3.5,2.2,7.7,3.7,12.7,4.5c1,0.1,2,0.1,2.9,0.1c4.7,0,9.2-1.5,13.6-4.6
	c5.3-3.8,10-8.3,14.1-13.5c1.3-1.6,2.6-3.2,3.7-4.8c0,0.1,0,0.1,0,0.2v1.7c0.1,6,2.5,10.4,7.3,13.2c4.8,2.8,9.9,3.9,15.3,3.3
	c1.9-0.2,4-2.4,6.1-6.5c2-4.1,3.9-8.5,5.7-13c1.1-3.1,2-5.9,2.8-8.4c0.6-2.2,1.1-3.9,1.4-5.1c-0.4,2.8-0.9,6.2-1.5,10.3
	c-0.7,4.4-1.2,9-1.4,13.5c-0.1,2.4-0.1,4.8,0.2,7.1c0.2,2.3,0.6,4.4,1.2,6.4c0.7,2.3,1.8,4.2,3.2,5.7c1.4,1.5,3.4,2.4,5.8,2.7h0.5
	c2.6,0,5.8-2.6,9.3-7.9c3.7-5.6,7.2-11.8,10.5-18.4c1.1-2.2,2.2-4.4,3.2-6.6v0.7c0.4,7.1,1.9,13.1,4.4,17.9c1.4,2.7,3.2,4.8,5.2,6.6
	c2.1,1.7,4.7,2.9,7.6,3.5c0.9,0.2,1.8,0.2,2.6,0.1c3.7,0,7.3-1.6,11-4.8c4.4-3.9,8.4-8.5,12.1-13.6c2.4-3.4,4.6-6.8,6.6-10.1
	c1.9-3.3,3.5-6,4.7-8.1C406.4,325.2,405.6,324.9,404.8,324.8z M370.5,307.4c0.7-4.2,1.4-8.2,2.1-11.9c1.5-7.1,3.2-13.1,4.9-17.9
	c1.7-4.7,3.4-7,4.9-6.8c1.2,0.2,2,1.6,2.3,4.2c0.3,2.7,0.1,5.9-0.6,9.8c-0.3,2.1-0.8,4.2-1.5,6.4c-0.6,2.3-1.4,4.6-2.4,6.8
	c-1.2,2.7-2.7,5.4-4.3,7.8c-1.6,2.6-3.5,4.8-5.5,6.7c-0.3,0.3-0.6,0.5-0.8,0.6C369.9,311.3,370.2,309.3,370.5,307.4z M242.7,322.4
	c1-5.7,2.5-10.7,4.4-15c1.9-4.2,3.8-6.1,5.7-5.8c2,0.4,3,2.8,2.9,7.1c-0.1,4.3-2.2,8.4-6.3,12.5c-1.9,1.9-4.4,3.6-7.3,5.1
	C242.2,325,242.5,323.7,242.7,322.4z M174.9,302.1c-0.2-0.5-0.3-1.1-0.3-1.8c-0.2-1.9-0.1-3.8,0.5-5.8c0.4-1.6,1-3,1.7-4.1
	c0.7-1.1,1.5-1.6,2.3-1.4c1.1,0.3,0.8,2.5-1.1,6.7C177.1,297.7,176.1,299.9,174.9,302.1z M113.6,60.3c4-0.3,8.1-0.6,12.4-0.6
	c-0.5,3.4-1.2,7.3-2.1,11.7c-1.3,6.5-2.3,13.4-3.1,20.6c-0.9,6.5-1.3,12.9-1.3,19.3c0,0.9,0.1,1.7,0.2,2.6
	c0.1,7.1,1.2,13.2,3.4,18.2c1.4,3.2,3.3,5.8,5.6,8c2.4,2.1,5.4,3.4,9,4h1.1c2.4,0,4.9-1,7.7-3.1c3.2-2.4,6.4-5.4,9.5-9.1
	c3.1-3.6,6.1-7.4,9-11.4c1.5-2.2,2.8-4.2,4-6.1c0,0.8,0,1.6,0,2.4c0,2.8,0.1,5.3,0.3,7.5c2.2,3.9,5,6,8.4,6c3.3,0.1,6-1.2,8-4
	c0.2-0.4,0.4-1.2,0.6-2.3c0.2-1.1,0.4-2.4,0.6-3.9c0.3-2.9,0.5-6.3,0.6-10c0.2-3.8,0.4-7.2,0.5-10.4c0.5-1.5,1.3-3.1,2.2-4.9
	c1.1-1.7,2.2-3.5,3.4-5.3c2.1-3.2,4.4-6,6.9-8.5c2.6-2.5,4.8-3.7,6.6-3.6c0.7,0.1,0.8,1.8,0.2,5.1c-0.6,3.3-1.4,7.5-2.2,12.5
	c-0.5,2.7-1,5.5-1.4,8.5c-0.4,2.9-0.8,5.8-1,8.7c-0.5,6.9-0.1,13.1,1.3,18.9c1.3,5.7,4.7,9,10.1,10c0.5,0.1,1.1,0.1,1.8,0.1
	c3.3,0,6.8-1.8,10.4-5.3c4.2-4.2,8-8.9,11.6-14.1c1.7-2.6,3.2-5.2,4.7-7.6c1,3.3,2.4,6.4,4.5,9.3c2.2,3.3,5.2,6,8.8,8.2
	c3.6,2.2,8.1,3.7,13.3,4.5c1.1,0.1,2.1,0.1,3.1,0.1c4.9,0,9.7-1.5,14.3-4.6c5.6-3.8,10.5-8.3,14.8-13.5c2.4-2.7,4.5-5.5,6.4-8.2
	c1.8-2.8,3.4-5.4,4.8-7.7c-0.9-0.7-1.7-1.1-2.6-1.2c-0.9-0.1-1.7,0.2-2.6,0.8c-1.2,2.1-2.7,4.4-4.5,6.9c-1.8,2.5-3.8,5-5.9,7.6
	c-4.1,4.7-8.5,8.8-13.2,12.2c-4.7,3.5-8.9,4.9-12.5,4.2c-3.3-0.6-5.8-2.6-7.4-5.9c-1.5-3.3-2.4-7.2-2.6-11.6c-0.1-2.5-0.1-5,0.2-7.5
	v-0.1c3.6-1.4,6.9-3,9.6-4.9c6-4,8.9-9.8,8.8-17.2c-0.1-4.7-2-8.4-5.6-10.9c-2.8-1.9-5.8-2.8-9-2.8c-1.1,0-2.1,0.1-3.2,0.3
	c-2.5,0.4-4.9,1.4-7.2,3c-2.5,1.5-4.7,3.7-6.6,6.4c-4.3,6.2-6.6,13.2-7.1,21.2v1.9c0,0.7,0,1.5,0.1,2.2c-0.7,1.2-1.5,2.5-2.3,4
	c-1.8,2.9-3.7,6-5.8,9.1c-3.2,4.8-6.5,9.1-10,13c-3.3,3.9-6,5.5-8.2,5c-1.2-0.3-1.3-3.1-0.5-8.5c0.9-5.5,1.8-11.7,2.7-18.6
	c0.6-5.6,1.1-11.1,1.3-16.6c0.2-5.5-0.3-10-1.4-13.5c-0.6-2-1.6-3.5-2.7-4.6c-1.2-1.2-2.7-1.8-4.7-1.9c-1.7-0.1-3.5,0.3-5.3,1
	c-1.7,0.8-3.4,1.8-5,3.1c-3,2.4-5.6,5.2-7.7,8.5c-2.2,3.3-3.6,6-4.2,8c-0.2-2.1-0.4-5.1-0.5-9.2c-0.2-4.2-0.5-8.6-0.8-13.4
	c-0.1-2.5-0.3-5-0.5-7.6c-0.2-2.5-0.5-4.9-0.8-7.2c-0.5-4.3-1.2-7.9-1.9-10.9c-0.9-3-1.9-4.8-3.1-5.3c-1.2-0.3-2.4-0.6-3.7-0.6
	c-0.5,0-1,0-1.4,0.1c-1.8,0.3-3.2,1.5-4,3.7c1.2,0.8,1.8,3.3,1.9,7.5c0.1,4.3-0.1,9.4-0.5,15.4c-0.2,3.2-0.4,6.6-0.6,10.1l-1,10.8
	c-0.5,5.7-0.9,11.3-1.3,16.6c-0.8,1.2-1.7,2.5-2.8,4.2c-2.5,3.7-5.2,7.6-8.2,11.7c-3.7,5.1-7.5,9.6-11.4,13.7c-3.9,4.1-6.9,6-9,5.7
	c-0.6-0.2-1.2-1.1-1.6-2.8c-0.4-1.7-0.7-4-0.8-6.8c-0.2-5.3-0.1-12.1,0.3-20.3c0.5-8.2,1.1-16.5,1.8-24.9c0.6-6.9,1.3-13.3,1.9-19.4
	c0.2-2.1,0.4-4.2,0.6-6c4.7,0.1,8.5,0.3,11.2,0.5h0.3c1,0,1.4-0.3,1.4-1v-0.1c0-0.8-0.7-1.4-2.1-1.8c-3.6-0.3-7.2-0.5-10.6-0.6
	c0.2-2.1,0.4-3.9,0.6-5.7c0.3-2.1,0.5-3.7,0.6-4.9c0.2-1.3,0.3-2,0.3-2.1c0-0.9-0.2-1.5-0.5-1.9c-0.4-0.5-1-0.9-1.6-1
	c-0.6-0.3-1.3-0.4-2.1-0.4c-1.6,0-3.4,0.4-5.5,1.3c-3.2,1.3-5.2,2.9-5.9,4.8c0.4,0.3,0.6,1.2,0.6,2.7c-0.1,1.5-0.3,3.3-0.6,5.5
	c-0.1,0.5-0.2,1-0.3,1.5c-4.4,0.1-8.8,0.2-13.3,0.3c-0.6,0.7-1.1,1.4-1.3,2.2v0.3C111.8,59.9,112.4,60.2,113.6,60.3z M262.4,100.3
	c1.1-5.7,2.6-10.7,4.7-15c2-4.2,4-6.1,5.9-5.8c2.1,0.4,3.2,2.8,3.1,7.1c-0.1,4.3-2.3,8.4-6.6,12.5c-2,1.9-4.6,3.6-7.7,5.1
	C262,102.8,262.2,101.5,262.4,100.3z M110.8,239c-32.7-12.6-66.4-4.3-75.3,18.7s10.4,51.9,43.1,64.5c32.7,12.6,66.4,4.3,75.3-18.7
	S143.5,251.7,110.8,239z M82.8,245.8c0-0.2,0-0.3,0-0.4c0.3-0.7,1.1-1.3,2.5-1.7c1.5-0.5,3.1-0.5,4.6,0.1c0,0.9,0.2,1.5,1.3,2.3
	c1.2,0.7,1.3,1.4,1,2.4l-0.1,0.2c-0.3,0.7-0.5,1.6-1.5,2.2c-1,0.7-2,0.9-3.4,0.5c-0.2,0-0.3,0-0.5-0.1c-1.2-0.5-2.2-1.3-2.8-2.4
	C83,247.5,82.6,246.5,82.8,245.8z M129.5,294.9c-1.2,0.4-2.5,0.8-4,1c-2.1,0.4-4.2,0.7-6.4,0.8c0,0.5,0,1.1-0.1,1.6
	c-0.2,1.8-0.9,3.3-1.9,4.6c-1,1.3-2.2,2.4-3.6,3.3c-1.2,0.7-2.4,1.3-3.8,1.7c-1.4,0.4-2.9,0.6-4.3,0.7c-2.7,0.2-5.3-0.1-7.8-1
	l-0.6-0.2c-2.3-0.9-4.1-2.2-5.3-4c-1.1-1.6-0.8-2.9,0.8-3.9c1.6-1,3.8-1.8,6.7-2.5c1.6-0.3,3.2-0.6,5-0.9l2.3-0.3
	c0.1-0.5,0.2-1,0.2-1.4c0.1-1.9-1-4.3-3.1-7.1c-1.2-1.6-2.3-3.3-3.4-5c0,0-0.1,0-0.1,0.1c-0.7,0.5-1.5,1-2.5,1.6
	c-1.8,1-4,2.2-6.4,3.6c-2.5,1.4-5,2.6-7.5,3.6c-2.6,1.1-5.1,2-7.3,2.6c-2.1,0.5-3.9,0.6-5.1,0.1l-0.3-0.1c-2.3-0.9-3.9-2.4-4.9-3.8
	c-1-1.4-1.4-3-1.5-4.7c-0.1-1.8,0.3-3.6,1.1-5.5l0.3-0.8c0.6-1.7,1.3-3.3,2.2-4.9c1.9-3.5,3.9-6.6,6.1-9.4c2.1-2.8,3-4.6,2.6-5.5
	c0.8-0.7,2.2-1,4.1-0.8c1,0.1,1.8,0.3,2.6,0.6c0.8,0.3,1.4,0.7,1.8,1.1c0.3,0.3,0.6,0.7,0.7,1.1c0.1,0.4,0.1,0.7-0.1,1.1
	c-0.2,0.2-1,1.5-2.6,3.9c-1.6,2.4-3.3,5.1-5,8.3c-1.5,2.4-2.8,4.9-4,7.4c-1.3,2.5-2.1,4.5-2.5,6.2c-0.3,0.9-0.4,1.7-0.3,2.3
	c0.1,0.6,0.3,1,0.8,1.2c1,0.4,3.2,0,6.6-1.5c3.4-1.4,6.8-3,10.2-4.8c2.2-1.2,4.2-2.3,6-3.4c1.8-1,3-1.7,3.6-2.2
	c-0.2-0.4-0.5-0.8-0.7-1.2c-0.9-1.6-1.9-3.3-2.4-4.8c-0.5-1.5,0.6-2.5-0.5-4.4l0.2-0.4c0.3-0.8,1.1-1.3,1.8-1.8
	c0.8-0.6,1.9-1,3.1-1.3c2-0.5,4.3-0.5,6.8,0.1c0.7,0.1,1.4,0.3,2.1,0.6c1.5,0.6,2.8,1.4,3.9,2.5c0.7,0.8,1.2,1.7,1.5,2.7
	c0.3,1,0.3,2.1,0,3.3c-0.4,0.3-1.2,0.4-2.4,0.2c-1.3-0.2-2-0.8-2.1-1.6c0.4-1.1,0.6-2.1,0.5-2.9c-0.1-0.8-0.3-1.5-0.7-2
	c-0.9-1.2-2.2-1.7-4.1-1.4c-1.8,0.3-2.9,1.4-3.4,3.3c-0.2,0.8-0.1,1.6,0.3,2.5c0.3,0.9,0.8,1.8,1.4,2.7c1.3,1.7,3,3.5,5,5.4
	c2,1.9,3.9,3.9,5.7,6c1.4,1.7,2.6,3.5,3.5,5.3c0.3,0.6,0.5,1.2,0.6,1.8c0.5,0,1-0.1,1.5-0.1c3.9-0.1,7.2-0.9,9.8-2.6
	c0.6,0.1,1.2,0.2,1.6,0.4c0.5,0.2,0.9,0.5,1.3,1C131.9,293.9,130.8,294.5,129.5,294.9z M285.3,78.8c-0.1-0.8,0-1.6,0.4-2.4
	c0.6-1.1,2-2.1,3.5-2.2c1.3-0.1,3.3,0.6,4.9,1.9c2.2,1.7,3.9,4.1,5.4,7.5c2,4.4,2.9,7.6,3.7,13c0.2,1.2,0,2.7-0.4,2.8
	c-0.1,0-0.2,0.1-0.2,0.2c0,0.1-0.6,0.4-0.8,0.4c0,0-0.2,0-0.3,0c-0.2,0.1-0.6-0.1-1-0.4c-0.1-0.1-1.1-1.5-2.1-3.1
	c-1-1.6-2.3-3.6-2.9-4.4c-1.2-1.6-3.4-4.1-5.5-6C286.6,82.4,285.6,80.9,285.3,78.8z M308.5,87.7c-0.2-2.8-0.2-6.4-0.1-8.2
	c0.2-1.6,0.7-4.2,1.2-5.4c0.3-0.7,1.2-1.9,1.8-2.3c1.1-0.7,2.3-0.9,3.4-0.5c2.1,0.8,3.1,4.1,2.5,8.3c-0.3,2.2-2,9.6-2.5,11.2
	c-0.7,2.2-2,5.5-2.1,5.5c-0.1,0-0.1,0.1-0.2,0.2c0,0.1-0.1,0.2-0.2,0.2c-0.1,0-0.1,0-0.2,0.1c-0.1,0.3-0.9,0.6-1.6,0.4
	c-0.9-0.2-1.4-1.9-1.7-5.5C308.7,90.6,308.6,88.7,308.5,87.7z M317.5,101.1c0.1-0.2,0.3-0.7,0.4-1.2c0.5-1.4,2.7-5.4,4-7.5
	c1.5-2.4,3.8-5.1,5.7-6.9c2-1.9,4.5-3.4,6.3-3.8c1.4-0.3,2.1-0.3,3.2,0.2c1.4,0.6,2.3,1.5,2.8,3c0.4,1.1,0.4,2.1,0.1,3.1
	c-0.5,1.7-1.6,2.7-5.3,4.7c-4.8,2.6-7.6,4.3-9.7,5.7c-2.3,1.6-2.7,2-3.8,3.5c-1,1.4-1.4,1.7-1.8,1.8c-0.5,0.1-1.3-0.1-1.3-0.3
	c0-0.1,0-0.1-0.1-0.2c-0.2,0-0.4-0.5-0.3-0.5c0.1,0,0-0.1,0-0.1C317.4,102.5,317.3,101.6,317.5,101.1z M88.4,110.1
	c2.1,1.2,4.6,1.7,7,2.4c1.6,0.5,3.3,0.7,4.8,1.4c6.7,3.1,7.9,10.5,2.5,15.6c-0.9,0.9-2,1.6-3.3,2.6c-1.4,0.5-3,1.2-4.8,1.6
	c-2.6,0.6-4.7,1.8-6.4,3.8c-2.8,3-6.1,5.1-10.3,5.3c-5.3,0.3-9.4-3.1-9.6-8.4c-0.1-2,0.6-4.1,0.9-6.1c0.5-2.9,1.4-5.7,1.6-8.6
	c0.3-4.5,2-7.9,5.9-10C80.7,107.3,84.5,107.9,88.4,110.1z M54.1,105.8c-0.8-4-0.3-7.8,1.8-11.4c1.8-3,4.3-3.6,6.9-1.2
	c2.2,2,4,4.5,6,6.8c1.3,2.9,2.3,5.8,1.8,8.9c-0.8,4.7-4.9,7.1-9.3,5.3C57.4,112.8,54.8,110,54.1,105.8z M68.7,88.9
	c-0.5-2.5,0.9-4.1,3.4-4.5c6.9-1.3,15,4.5,15.9,11.5c0.3,2.2,0,4.4-1.4,6.3c-1.9,2.7-5.5,3.4-8.9,1.7c-2.5-1.2-4.3-3.3-6-5.6
	C70.7,95.2,69.4,92.1,68.7,88.9z M53.9,128.7c-2.3-2.7-3.6-5.9-3.6-9.5c0-3.8,2.3-5.6,5.9-4.5c4.3,1.2,8,3.4,10.3,6.8
	c1.6,2.9,2.1,5.4,0.5,7.9c-1.5,2.3-3.8,2.9-6.3,2.7C58.1,131.8,55.7,130.8,53.9,128.7z M92.7,108.6c-2.8-3.5-3.4-11.8-1.3-15.7
	c1.1-1.9,2.7-2.6,4.8-1.8c3,1,5,3.2,6.6,5.8c2.2,3.5,2.4,7.2,0.4,10.8C100.8,112.2,95.8,112.5,92.7,108.6z"/>
</svg>
